<svg width="72" height="72" viewBox="0 0 72 72" fill="none" xmlns="http://www.w3.org/2000/svg">
<path d="M29.887 4.07675C27.9495 4.40174 25.9246 5.37672 24.5871 6.62668L23.6622 7.48916H19.9123C15.8249 7.48916 15.2624 7.55166 14.0874 8.13914C12.675 8.85162 11.4875 10.3891 11.15 11.964C10.95 12.9015 10.95 62.5751 11.15 63.5126C11.35 64.4376 11.925 65.5376 12.5875 66.2375C13.2374 66.925 14.5249 67.65 15.4874 67.85C16.4249 68.05 56.3488 68.05 57.2862 67.85C59.4112 67.4 61.1736 65.6251 61.6236 63.5126C61.8236 62.5626 61.8236 12.9015 61.6236 11.964C61.1736 9.85159 59.3862 8.06414 57.2862 7.62666C56.8862 7.53916 55.1363 7.48916 52.8614 7.48916H49.099L48.2615 6.68918C47.3115 5.8017 46.3615 5.18922 45.0866 4.68924C43.4491 4.02675 42.8991 3.98926 36.2868 4.00175C32.9369 4.01425 30.062 4.05175 29.887 4.07675ZM42.8741 7.92665C43.3116 8.03914 44.0241 8.30164 44.4366 8.51413C45.6865 9.17661 47.0865 10.7641 47.449 11.9515L47.524 12.239H36.3868H25.2496L25.3246 11.9515C25.5371 11.2891 26.1246 10.3766 26.8371 9.6516C27.662 8.81412 28.962 8.07664 30.0245 7.87665C30.3245 7.81415 33.1619 7.76415 36.3243 7.75165C41.0492 7.73915 42.2116 7.77665 42.8741 7.92665ZM21.4247 12.0765C21.3247 12.5515 21.2622 13.3765 21.2872 13.9515C21.3247 15.0515 21.5247 15.4139 22.2872 15.8139C22.7872 16.0764 49.9864 16.0764 50.4864 15.8139C51.2489 15.4139 51.4489 15.0515 51.4864 13.9515C51.5114 13.3765 51.4489 12.5515 51.3489 12.0765L51.1739 11.2391H53.8113C56.8362 11.2391 57.2362 11.3391 57.7362 12.2265L58.0112 12.714V37.7383V62.7626L57.7487 63.2376C57.5987 63.5001 57.2737 63.8251 57.0112 63.9751L56.5362 64.2376H36.3868H16.2374L15.7624 63.9751C15.4999 63.8251 15.1749 63.5001 15.0249 63.2376L14.7624 62.7626V37.7383V12.714L15.0374 12.2265C15.5374 11.3391 15.9249 11.2391 18.9623 11.2391H21.5997L21.4247 12.0765Z" fill="#4D0000"/>
<path d="M42.8741 7.92665C43.3116 8.03914 44.0241 8.30164 44.4366 8.51413C45.6865 9.17661 47.0865 10.7641 47.449 11.9515L47.524 12.239H36.3868H25.2496L25.3246 11.9515C25.5371 11.2891 26.1246 10.3766 26.8371 9.6516C27.662 8.81412 28.962 8.07664 30.0245 7.87665C30.3245 7.81415 33.1619 7.76415 36.3243 7.75165C41.0492 7.73915 42.2116 7.77665 42.8741 7.92665Z" fill="#E60000"/>
<path d="M27.762 40.9381C27.5245 41.038 26.6621 41.7755 25.8621 42.5755L24.3996 44.0255L23.8871 43.563C23.5996 43.313 23.2372 43.0505 23.0622 42.988C21.5247 42.4005 19.9872 44.063 20.7122 45.5254C20.9872 46.0754 22.9747 48.0754 23.5371 48.3753C24.1246 48.6753 24.6496 48.6753 25.2371 48.3753C25.4871 48.2379 26.6871 47.1379 27.8995 45.9004C29.662 44.1255 30.137 43.5755 30.2495 43.1755C30.512 42.2255 29.9245 41.113 29.037 40.8631C28.437 40.7006 28.287 40.7131 27.762 40.9381Z" fill="#4D0000"/>
<path d="M34.1243 43.1505C32.9868 43.913 33.0118 45.4129 34.1868 46.2879C34.5243 46.5504 34.6493 46.5504 42.6991 46.5504C50.7489 46.5504 50.8738 46.5504 51.2113 46.2879C52.3863 45.4129 52.4113 43.913 51.2738 43.1505L50.8489 42.863H42.6991H34.5493L34.1243 43.1505Z" fill="#4D0000"/>
<path d="M28.3252 51.5503C28.2627 51.5753 28.0377 51.6253 27.8377 51.6753C27.6002 51.7253 26.9252 52.2878 25.9378 53.2628L24.4003 54.7752L23.9378 54.3627C23.4253 53.9127 22.7879 53.6127 22.3629 53.6127C21.8379 53.6127 21.0754 54.0877 20.7879 54.6002C20.2004 55.6502 20.4504 56.2627 22.1754 57.9626C23.5503 59.3126 23.8878 59.4876 24.8628 59.3001C25.2503 59.2251 25.6878 58.8501 27.6127 56.9502C28.8752 55.7002 30.0002 54.5002 30.1002 54.3002C30.5376 53.4753 30.2252 52.2878 29.4502 51.8503C29.0502 51.6253 28.5252 51.4878 28.3252 51.5503Z" fill="#4D0000"/>
<path d="M34.3117 53.7878C33.6992 54.0628 33.3242 54.6878 33.3242 55.4503C33.3242 56.1503 33.5492 56.5753 34.1867 57.0377C34.5242 57.3002 34.6492 57.3002 42.699 57.3002C50.7487 57.3002 50.8737 57.3002 51.2112 57.0377C51.8487 56.5753 52.0737 56.1503 52.0737 55.4503C52.0737 54.6753 51.6987 54.0503 51.0612 53.7878C50.4612 53.5378 34.8867 53.5378 34.3117 53.7878Z" fill="#4D0000"/>
<path d="M38.4401 35.7587C38.4401 36.2796 38.4598 36.7468 38.4401 37.2121C38.3846 38.2861 37.6275 39.0343 36.6627 39.0128C35.6979 38.9913 34.9838 38.2396 34.9587 37.1549C34.9497 36.7342 34.9587 36.3154 34.9587 35.7963C34.189 35.7963 33.482 35.8267 32.7768 35.7963C31.5238 35.7301 30.7434 34.6758 31.0889 33.5392C31.3162 32.791 31.9319 32.3382 32.8215 32.3292C34.3859 32.3113 35.9503 32.3292 37.5165 32.3292C37.7171 32.3398 37.9182 32.3278 38.1161 32.2934C38.6119 32.1789 38.9055 31.8621 38.8715 31.3412C38.8742 31.228 38.8538 31.1153 38.8117 31.0102C38.7695 30.9051 38.7064 30.8096 38.6263 30.7296C38.5461 30.6495 38.4505 30.5867 38.3452 30.5447C38.24 30.5028 38.1273 30.4827 38.0141 30.4856C37.2552 30.4552 36.4944 30.4856 35.7355 30.4695C33.2493 30.4462 31.3645 28.8049 31.0424 26.3831C30.7309 24.1225 32.1628 22.0211 34.4897 21.391C34.8943 21.2819 34.9784 21.1064 34.9605 20.7503C34.9426 20.3709 34.9462 19.9908 34.9712 19.6119C34.9959 19.2068 35.1636 18.8237 35.4446 18.5309C35.7256 18.2381 36.1015 18.0547 36.5052 18.0135C36.9204 17.9604 37.3404 18.0655 37.6817 18.3079C38.0229 18.5503 38.2605 18.9123 38.347 19.3219C38.4634 19.9054 38.4437 20.5176 38.492 21.2246C39.1775 21.2246 39.881 21.2246 40.5862 21.2246C41.8212 21.2335 42.616 21.9155 42.6195 22.9626C42.6231 24.0097 41.8284 24.6917 40.5969 24.7024C39.0308 24.7024 37.4664 24.7024 35.9002 24.7024C35.0321 24.7024 34.522 25.1141 34.5041 25.8032C34.4862 26.4923 35.016 26.9595 35.9127 26.9666C36.5839 26.9666 37.2552 26.9666 37.9246 26.9666C40.2515 27.0042 42.0987 28.6259 42.3493 30.8275C42.6052 33.0882 41.1787 35.0965 38.9144 35.6603C38.7855 35.6979 38.6549 35.7176 38.4401 35.7587Z" fill="#4D0000"/>
</svg>
