<svg width="72" height="72" viewBox="0 0 72 72" fill="none" xmlns="http://www.w3.org/2000/svg">
<path d="M50 18L38 6.5L36.5 18H50Z" fill="#62C89E"/>
<path d="M19.6819 28.5999C20.174 28.0379 20.6284 27.5191 21.0829 26.9996C21.7359 26.2536 22.3882 25.5075 23.0411 24.7615C23.0747 24.7231 23.1082 24.6834 23.1438 24.6472C23.3806 24.4042 23.6893 24.3775 23.9214 24.5787C24.1575 24.7834 24.1787 25.1174 23.9542 25.3795C23.5209 25.886 23.0788 26.3843 22.6394 26.886C21.8399 27.7991 21.0419 28.7128 20.241 29.6245C19.9029 30.0099 19.6079 30.0188 19.2459 29.6574C18.5799 28.9934 17.9132 28.3309 17.2541 27.6608C17.1555 27.5609 17.0638 27.4349 17.0221 27.3042C16.9481 27.0729 17.0672 26.8299 17.2705 26.7115C17.4834 26.5876 17.749 26.6198 17.9509 26.8183C18.4327 27.2905 18.9091 27.7696 19.3841 28.2494C19.4854 28.3514 19.5717 28.4698 19.6819 28.5999Z" fill="#0B2D1F" stroke="#0B2D1F"/>
<path d="M19.6819 46.6645C20.174 46.1025 20.6284 45.5837 21.0829 45.0642C21.7359 44.3182 22.3882 43.5721 23.0411 42.826C23.0747 42.7877 23.1082 42.748 23.1438 42.7117C23.3806 42.4688 23.6893 42.4421 23.9214 42.6433C24.1575 42.8479 24.1787 43.182 23.9542 43.4441C23.5209 43.9506 23.0788 44.4489 22.6394 44.9506C21.8399 45.8636 21.0419 46.7774 20.241 47.6891C19.9029 48.0744 19.6079 48.0833 19.2459 47.7219C18.5799 47.058 17.9132 46.3955 17.2541 45.7254C17.1555 45.6255 17.0638 45.4995 17.0221 45.3688C16.9481 45.1374 17.0672 44.8945 17.2705 44.7761C17.4834 44.6522 17.749 44.6843 17.9509 44.8828C18.4327 45.3551 18.9091 45.8342 19.3841 46.314C19.4854 46.416 19.5717 46.5344 19.6819 46.6645Z" fill="#0B2D1F" stroke="#0B2D1F"/>
<path d="M19.6819 37.6321C20.174 37.0702 20.6284 36.5514 21.0829 36.0319C21.7359 35.2858 22.3882 34.5398 23.0411 33.7937C23.0747 33.7554 23.1082 33.7157 23.1438 33.6794C23.3806 33.4364 23.6893 33.4097 23.9214 33.6109C24.1575 33.8156 24.1787 34.1496 23.9542 34.4118C23.5209 34.9183 23.0788 35.4165 22.6394 35.9182C21.8399 36.8313 21.0419 37.745 20.241 38.6567C19.9029 39.0421 19.6079 39.051 19.2459 38.6896C18.5799 38.0257 17.9132 37.3631 17.2541 36.693C17.1555 36.5931 17.0638 36.4672 17.0221 36.3364C16.9481 36.1051 17.0672 35.8621 17.2705 35.7437C17.4834 35.6198 17.749 35.652 17.9509 35.8505C18.4327 36.3228 18.9091 36.8019 19.3841 37.2817C19.4854 37.3837 19.5717 37.5021 19.6819 37.6321Z" fill="#0B2D1F" stroke="#0B2D1F"/>
<path d="M36.5261 27.1101C33.7009 27.1101 30.8756 27.1136 28.0493 27.1077C27.1309 27.1065 26.5377 26.1875 26.8713 25.285C27.0714 24.7432 27.4499 24.4617 27.969 24.4499C28.4632 24.4392 28.9584 24.4475 29.4536 24.4475C34.6485 24.4475 39.8445 24.4463 45.0395 24.4487C45.9829 24.4487 46.5845 25.3772 46.23 26.2916C46.0069 26.8664 45.591 27.1113 45.0415 27.1101C42.2038 27.1077 39.365 27.1101 36.5261 27.1101Z" fill="#0B2D1F"/>
<path d="M36.5581 36.8876C33.7194 36.8876 30.8817 36.8912 28.0429 36.8853C27.1276 36.8841 26.5344 35.9531 26.8743 35.053C27.0848 34.4939 27.4799 34.2239 28.0158 34.2227C28.9926 34.2215 29.9684 34.2227 30.9452 34.2227C35.6459 34.2227 40.3455 34.2215 45.0462 34.2239C45.9865 34.2251 46.587 35.1643 46.2274 36.0763C46.0011 36.6496 45.5831 36.89 45.0347 36.8888C42.5869 36.8841 40.1391 36.8865 37.6913 36.8865C37.3139 36.8876 36.9365 36.8876 36.5581 36.8876Z" fill="#0B2D1F"/>
<path d="M32.454 46.9545C31.1771 46.9545 29.8987 46.9568 28.6217 46.9533C27.5389 46.9497 26.7863 46.4086 26.7774 45.6342C26.7671 44.8433 27.5285 44.2915 28.6469 44.2904C31.2023 44.288 33.7576 44.288 36.313 44.2904C37.4225 44.2915 38.2032 44.8516 38.1929 45.6307C38.1825 46.4122 37.4107 46.9509 36.2893 46.9533C35.0094 46.9557 33.731 46.9545 32.454 46.9545Z" fill="#0B2D1F"/>
<path d="M36.5571 63.1575C36.6008 62.9652 36.6418 62.7729 36.6897 62.5819C36.898 61.7424 37.3396 61.0439 37.9492 60.4357C40.9169 57.4763 43.8783 54.51 46.8419 51.5465C47.6765 50.7119 48.509 49.8752 49.3485 49.0461C49.4755 48.9205 49.5297 48.7996 49.5172 48.6163C49.2804 44.9835 51.9481 41.7936 55.5588 41.3791C56.7114 41.2471 57.8245 41.402 58.9014 41.8255C59.6604 42.1241 59.7909 42.7768 59.2132 43.3559C58.5334 44.0377 57.8474 44.7147 57.1746 45.4035C57.0899 45.4903 57.0288 45.6389 57.0253 45.7604C57.01 46.3486 57.0183 46.9374 57.0183 47.5484C57.2933 47.5484 57.5759 47.5533 57.8585 47.547C58.2473 47.5394 58.6785 47.6241 59.0132 47.4831C59.3396 47.3457 59.5673 46.9742 59.8374 46.7048C60.3165 46.2264 60.7915 45.7438 61.2747 45.2702C61.7608 44.7946 62.4204 44.9321 62.6905 45.5577C64.4493 49.6343 61.7469 54.4017 57.3412 54.9801C56.8795 55.0405 56.408 55.0377 55.9407 55.0363C55.7595 55.0357 55.6373 55.0822 55.5109 55.2085C51.7468 58.9796 47.9744 62.7416 44.2151 66.5175C43.4423 67.2938 42.5646 67.8285 41.4648 67.9639C41.4418 67.9666 41.421 67.9875 41.3988 68C41.0863 68 40.7739 68 40.4614 68C40.4128 67.9847 40.3649 67.9639 40.3149 67.9548C38.5054 67.6438 37.3167 66.6099 36.7383 64.8733C36.6543 64.6212 36.6154 64.3539 36.5557 64.0935C36.5571 63.7825 36.5571 63.47 36.5571 63.1575ZM61.4817 47.4109C60.9678 47.9268 60.4846 48.4094 60.0055 48.8962C59.8201 49.0843 59.6048 49.1961 59.3382 49.2003C58.3057 49.2163 57.2739 49.2371 56.2414 49.244C55.647 49.2482 55.3054 48.8955 55.3116 48.3011C55.3234 47.2776 55.3429 46.2534 55.3554 45.23C55.3588 44.9612 55.4644 44.7467 55.6518 44.5606C56.0768 44.1391 56.499 43.7149 56.9218 43.2913C56.9871 43.226 57.0475 43.1566 57.1336 43.0643C56.9614 43.0427 56.826 43.0177 56.6906 43.0101C53.4202 42.824 50.8143 45.5764 51.2073 48.8253C51.2635 49.2906 51.1385 49.6155 50.8163 49.9363C46.9384 53.8018 43.0694 57.6749 39.1984 61.5473C39.0817 61.664 38.9658 61.7813 38.8595 61.907C37.7993 63.1589 38.1096 65.0754 39.5095 65.9322C40.6149 66.6092 41.9397 66.4293 42.9083 65.4621C46.3579 62.0153 49.8054 58.5665 53.2535 55.1183C53.7569 54.6149 54.2617 54.1142 54.7624 53.6081C54.986 53.3824 55.245 53.2817 55.563 53.3324C56.2309 53.4386 56.894 53.4067 57.5523 53.2581C60.1506 52.6707 61.9441 50.0363 61.4817 47.4109Z" fill="#0B2D1F"/>
<path d="M61.4817 47.4109C60.9678 47.9268 60.4846 48.4094 60.0055 48.8962C59.8201 49.0843 59.6048 49.1961 59.3382 49.2003C58.3057 49.2163 57.2739 49.2371 56.2414 49.244C55.647 49.2482 55.3054 48.8955 55.3116 48.3011C55.3234 47.2776 55.3429 46.2534 55.3554 45.23C55.3588 44.9612 55.4644 44.7467 55.6518 44.5606C56.0768 44.1391 56.499 43.7149 56.9218 43.2913C56.9871 43.226 57.0475 43.1566 57.1336 43.0643C56.9614 43.0427 56.826 43.0177 56.6906 43.0101C53.4202 42.824 50.8143 45.5764 51.2073 48.8253C51.2635 49.2906 51.1385 49.6155 50.8163 49.9363C46.9384 53.8018 43.0694 57.6749 39.1984 61.5473C39.0817 61.664 38.9658 61.7813 38.8595 61.907C37.7993 63.1589 38.1096 65.0754 39.5095 65.9322C40.6149 66.6092 41.9397 66.4293 42.9083 65.4621C46.3579 62.0153 49.8054 58.5665 53.2535 55.1183C53.7569 54.6149 54.2617 54.1142 54.7624 53.6081C54.986 53.3824 55.245 53.2817 55.563 53.3324C56.2309 53.4386 56.894 53.4067 57.5523 53.2581C60.1506 52.6707 61.9441 50.0363 61.4817 47.4109Z" fill="#22885E"/>
<path d="M41.5564 63.9005C41.1683 63.8936 40.9252 63.7471 40.7732 63.4645C40.6155 63.1722 40.635 62.8791 40.8211 62.6042C40.8787 62.5188 40.9544 62.4445 41.028 62.3716C44.2797 59.1185 47.5327 55.8662 50.783 52.6124C50.9795 52.4152 51.1871 52.2611 51.4815 52.2652C51.8169 52.2701 52.0703 52.4166 52.2196 52.7117C52.3731 53.0144 52.3481 53.3172 52.1439 53.5942C52.0828 53.6775 52.0058 53.7498 51.9322 53.8234C48.6923 57.0639 45.4517 60.3038 42.2133 63.5457C42.0105 63.7471 41.7994 63.9165 41.5564 63.9005Z" fill="#0B2D1F"/>
<path fill-rule="evenodd" clip-rule="evenodd" d="M14.3387 60.8889C14.1118 60.8088 13.8795 60.7381 13.6471 60.6673L13.6471 60.6673C13.1364 60.5119 12.6256 60.3564 12.1715 60.1008C10.0813 58.9231 9.02209 57.0803 9.01024 54.6805C8.99657 51.8168 8.99932 48.9523 9.00206 46.0881C9.00319 44.9164 9.00431 43.7448 9.00431 42.5733C9.00431 39.4997 9.00407 36.4262 9.00383 33.3527C9.00322 25.6706 9.00262 17.9888 9.00579 10.3062C9.00727 7.27679 10.8649 4.85772 13.7239 4.17925C14.2395 4.0563 14.7861 4.01186 15.3179 4.01038C18.9531 4.00472 22.5884 4.00435 26.2234 4.00398C29.2526 4.00368 32.2817 4.00337 35.3104 4.00001C37.0836 3.99852 38.5887 4.6044 39.873 5.82357C43.295 9.07516 46.7199 12.3238 50.1626 15.5532C51.641 16.9397 52.3446 18.6063 52.3417 20.6357L52.3405 21.4628C52.3309 28.0992 52.3212 34.736 52.324 41.3727C50.7782 42.2396 49.5921 43.649 49.0018 45.3202C49.0019 40.9945 49.0017 36.6687 49.0015 32.343C49.0014 28.6583 49.0012 24.9737 49.0012 21.289V20.6698H48.3227C47.3105 20.6698 46.2982 20.67 45.2859 20.6701C43.2614 20.6705 41.2369 20.6708 39.2123 20.6698C36.6066 20.6683 35.0023 19.0536 35.0023 16.4346C35.0013 14.5582 35.0016 12.6818 35.002 10.8054C35.0021 9.8672 35.0023 8.929 35.0023 7.9908C35.0038 7.7923 35.0038 7.59232 35.0038 7.33752H34.3594H15.4171C13.4691 7.33752 12.3389 8.45892 12.3389 10.3951C12.3374 25.0961 12.3374 39.7987 12.3389 54.4998C12.3389 56.4329 13.4706 57.5558 15.4186 57.5558C23.4569 57.557 31.4951 57.5572 39.5334 57.5566C38.4444 58.6451 37.3549 59.7331 36.2647 60.8203C36.242 60.8429 36.2196 60.8656 36.1974 60.8885C28.9393 60.8889 21.6808 60.8889 14.4222 60.8889H14.3387ZM47.1895 17.3367L43.5036 13.8508L43.5009 13.8483C41.7879 12.2281 40.0905 10.6227 38.3724 8.99813C38.3648 9.06848 38.3578 9.12189 38.3523 9.16497C38.3437 9.23077 38.3383 9.27249 38.3383 9.31366L38.3375 10.5234C38.3361 12.5426 38.3346 14.5624 38.3383 16.5812C38.3398 17.1575 38.5205 17.3323 39.1086 17.3353C40.1391 17.3384 41.1688 17.3378 42.1989 17.3372H42.1991L42.2037 17.3372C42.6143 17.337 43.025 17.3367 43.4357 17.3367H47.1895Z" fill="#0B2D1F"/>
</svg>
