<svg width="72" height="72" viewBox="0 0 72 72" fill="none" xmlns="http://www.w3.org/2000/svg">
<rect x="8" y="16" width="48" height="7" fill="#62C89E"/>
<path fill-rule="evenodd" clip-rule="evenodd" d="M14.9625 10.6408C14.963 10.912 14.9635 11.1899 14.9635 11.4776C14.6689 11.4776 14.3833 11.4774 14.1035 11.4772C13.561 11.4768 13.0406 11.4764 12.5202 11.4776C7.55993 11.4896 4.00732 15.025 4.00389 19.9785C3.99703 30.7769 4.00046 41.577 4.0056 52.3754C4.0056 52.8881 4.00903 53.4093 4.09648 53.9117C4.82517 58.0953 8.13945 60.8523 12.4585 60.854C18.8836 60.8566 25.3087 60.8579 31.7338 60.8567C31.6046 60.554 31.5139 60.2291 31.4667 59.8882C31.4646 59.8718 31.4536 59.8564 31.4426 59.841C31.4377 59.8341 31.4327 59.8272 31.4286 59.8202V56.6032C31.5407 56.1849 31.6645 55.7732 31.8568 55.3914H12.7328C10.5159 55.3914 9.46482 54.3386 9.46482 52.1217V28.7828V27.9821H53.3803V27.984C53.3803 28.2986 53.3803 28.5519 53.3786 28.8051V45.3143C55.2016 45.3141 57.0246 45.3151 58.8475 45.318C58.8495 39.9499 58.8485 34.5815 58.8475 29.2134C58.847 26.115 58.8464 23.0166 58.8464 19.9184C58.8464 19.7693 58.8447 19.6184 58.8396 19.4692C58.7384 16.0126 56.5334 12.9881 53.2312 11.9405C52.3932 11.6749 51.4873 11.5969 50.5957 11.52C50.4858 11.5105 50.376 11.5011 50.2667 11.4913C49.7313 11.444 49.191 11.4554 48.6386 11.467C48.3896 11.4723 48.138 11.4776 47.8834 11.4776C47.8834 11.1789 47.8914 10.8886 47.8993 10.6048C47.9171 9.96163 47.934 9.35204 47.8542 8.75482C47.7702 8.12729 47.5353 7.45346 47.1667 6.94766C46.5169 6.05608 45.3047 5.79889 44.2622 6.15381C43.1477 6.53273 42.4379 7.48946 42.395 8.73768C42.375 9.35018 42.3801 9.96512 42.3852 10.5825C42.3875 10.8621 42.3899 11.1421 42.3899 11.4227H20.4604C20.4604 11.1395 20.4624 10.8614 20.4644 10.5869C20.4687 9.98082 20.473 9.39228 20.4553 8.80455C20.4055 7.14312 19.2259 5.98749 17.6399 6.01664C16.102 6.04579 14.9789 7.24257 14.9652 8.87484C14.9604 9.45209 14.9614 10.0293 14.9625 10.6408ZM53.3803 20.1842V22.4354H53.3551C38.692 22.4354 24.1213 22.4354 9.56598 22.4337C9.56598 22.0781 9.55585 21.7246 9.54577 21.3734C9.52297 20.5783 9.50051 19.7952 9.59684 19.0269C9.73744 17.897 10.8571 17.0637 12.0178 16.9831C12.1817 16.9713 12.3456 16.9725 12.5095 16.9738C12.5599 16.9741 12.6104 16.9745 12.6608 16.9745H50.1946C52.319 16.9745 53.3769 18.041 53.3803 20.1842Z" fill="#0B2D1F"/>
<mask id="path-3-outside-1_5952_45225" maskUnits="userSpaceOnUse" x="34.0859" y="47.0571" width="35" height="20" fill="black">
<rect fill="white" x="34.0859" y="47.0571" width="35" height="20"/>
<path d="M35.0859 57.2935C35.2301 56.7556 35.3979 56.2312 35.7697 55.7937C36.2089 55.2769 36.7628 54.9616 37.4103 54.7862C38.9168 54.3782 40.4217 53.9617 41.93 53.5587C42.1711 53.4946 42.3405 53.3749 42.4906 53.1751C43.3792 51.9948 44.2855 50.8271 45.1749 49.6477C45.9733 48.5888 47.0305 48.0619 48.3499 48.0602C51.5848 48.0568 54.8197 48.0551 58.0545 48.061C59.5088 48.0636 60.6225 48.6874 61.3922 49.9284C62.0861 51.0472 62.7858 52.1617 63.4957 53.2704C63.5867 53.4128 63.736 53.5444 63.8886 53.6177C64.6119 53.9642 65.3437 54.293 66.0755 54.621C67.3637 55.1985 68.0137 56.184 67.9952 57.6021C67.985 58.3726 68.0331 59.1499 67.9522 59.9129C67.7844 61.4937 66.5881 62.5627 65.0006 62.545C64.4703 62.5391 64.2308 62.6706 64.0125 63.1806C63.408 64.5911 61.9588 65.4401 60.496 65.36C58.9035 65.2723 57.6085 64.307 57.0968 62.8046C57.0336 62.62 56.9594 62.5568 56.7638 62.5568C53.1538 62.5627 49.5446 62.5627 45.9346 62.5559C45.7339 62.5559 45.6639 62.6276 45.6024 62.8063C45.0713 64.3483 43.6684 65.3574 42.0725 65.3608C40.4554 65.3642 39.0534 64.3593 38.5155 62.7979C38.4591 62.6343 38.4051 62.5492 38.212 62.5559C36.5697 62.6107 35.3254 61.4861 35.1171 59.9812C35.1146 59.9618 35.0969 59.9441 35.0859 59.9256C35.0859 59.0504 35.0859 58.172 35.0859 57.2935ZM64.3666 61.2129C64.5681 61.2129 64.778 61.2154 64.9871 61.2129C65.9701 61.1994 66.6353 60.5334 66.642 59.5495C66.6462 58.8751 66.637 58.1998 66.6437 57.5253C66.6513 56.7421 66.2888 56.2051 65.584 55.8847C64.7569 55.5087 63.9231 55.1453 63.1079 54.7432C62.8727 54.6269 62.64 54.4313 62.4983 54.2129C61.7581 53.0731 61.028 51.9257 60.3342 50.758C59.7744 49.818 58.9836 49.3939 57.8952 49.4007C54.7784 49.4192 51.6624 49.4167 48.5455 49.4015C47.5229 49.3965 46.7397 49.775 46.131 50.6029C45.2314 51.8279 44.2872 53.0208 43.375 54.2365C43.1642 54.5181 42.9122 54.6909 42.5724 54.7744C41.9915 54.9169 41.4157 55.0821 40.8382 55.2406C39.7658 55.5348 38.6917 55.8206 37.6227 56.1284C36.9221 56.3299 36.4652 56.8652 36.4433 57.527C36.4197 58.2647 36.4096 59.0058 36.4467 59.7434C36.4955 60.7054 37.4212 61.3824 38.3343 61.1682C38.6783 59.0504 40.3054 57.957 41.9333 57.8828C42.7604 57.8457 43.5208 58.0784 44.2004 58.5547C45.1176 59.1971 45.6235 60.0959 45.7879 61.1935C49.5109 61.1935 53.2111 61.1935 56.9088 61.1935C57.2747 58.9282 59.0755 57.8457 60.7304 57.882C62.4663 57.9199 64.0715 59.1643 64.3666 61.2129ZM42.0682 63.9942C43.3851 63.9858 44.4701 62.8965 44.4524 61.6016C44.4339 60.283 43.3556 59.2148 42.0497 59.2216C40.7412 59.2283 39.6528 60.3226 39.6646 61.621C39.6764 62.9345 40.759 64.0026 42.0682 63.9942ZM60.6503 63.9942C61.968 63.9832 63.0531 62.8915 63.0328 61.599C63.0118 60.2813 61.9301 59.2132 60.6259 59.2216C59.3174 59.23 58.2273 60.3294 58.2434 61.6235C58.2594 62.9387 59.3419 64.0052 60.6503 63.9942Z"/>
<path d="M64.3666 61.2129C64.5681 61.2129 64.778 61.2154 64.9871 61.2129C65.9701 61.1994 66.6353 60.5334 66.642 59.5495C66.6462 58.8751 66.637 58.1998 66.6437 57.5253C66.6513 56.7421 66.2888 56.2051 65.584 55.8847C64.7569 55.5087 63.9231 55.1453 63.1079 54.7432C62.8727 54.6269 62.64 54.4313 62.4983 54.2129C61.7581 53.0731 61.028 51.9257 60.3342 50.758C59.7744 49.818 58.9836 49.3939 57.8952 49.4007C54.7784 49.4192 51.6624 49.4167 48.5455 49.4015C47.5229 49.3965 46.7397 49.775 46.131 50.6029C45.2314 51.8279 44.2872 53.0208 43.375 54.2365C43.1642 54.5181 42.9122 54.6909 42.5724 54.7744C41.9915 54.9169 41.4157 55.0821 40.8382 55.2406C39.7658 55.5348 38.6917 55.8206 37.6227 56.1284C36.9221 56.3299 36.4652 56.8652 36.4433 57.527C36.4197 58.2647 36.4096 59.0058 36.4467 59.7434C36.4955 60.7054 37.4212 61.3824 38.3343 61.1682C38.6783 59.0504 40.3054 57.957 41.9333 57.8828C42.7604 57.8457 43.5208 58.0784 44.2004 58.5547C45.1176 59.1971 45.6235 60.0959 45.7879 61.1935H56.9088C57.2747 58.9282 59.0755 57.8457 60.7304 57.882C62.4663 57.9199 64.0715 59.1643 64.3666 61.2129Z"/>
</mask>
<path d="M35.0859 57.2935C35.2301 56.7556 35.3979 56.2312 35.7697 55.7937C36.2089 55.2769 36.7628 54.9616 37.4103 54.7862C38.9168 54.3782 40.4217 53.9617 41.93 53.5587C42.1711 53.4946 42.3405 53.3749 42.4906 53.1751C43.3792 51.9948 44.2855 50.8271 45.1749 49.6477C45.9733 48.5888 47.0305 48.0619 48.3499 48.0602C51.5848 48.0568 54.8197 48.0551 58.0545 48.061C59.5088 48.0636 60.6225 48.6874 61.3922 49.9284C62.0861 51.0472 62.7858 52.1617 63.4957 53.2704C63.5867 53.4128 63.736 53.5444 63.8886 53.6177C64.6119 53.9642 65.3437 54.293 66.0755 54.621C67.3637 55.1985 68.0137 56.184 67.9952 57.6021C67.985 58.3726 68.0331 59.1499 67.9522 59.9129C67.7844 61.4937 66.5881 62.5627 65.0006 62.545C64.4703 62.5391 64.2308 62.6706 64.0125 63.1806C63.408 64.5911 61.9588 65.4401 60.496 65.36C58.9035 65.2723 57.6085 64.307 57.0968 62.8046C57.0336 62.62 56.9594 62.5568 56.7638 62.5568C53.1538 62.5627 49.5446 62.5627 45.9346 62.5559C45.7339 62.5559 45.6639 62.6276 45.6024 62.8063C45.0713 64.3483 43.6684 65.3574 42.0725 65.3608C40.4554 65.3642 39.0534 64.3593 38.5155 62.7979C38.4591 62.6343 38.4051 62.5492 38.212 62.5559C36.5697 62.6107 35.3254 61.4861 35.1171 59.9812C35.1146 59.9618 35.0969 59.9441 35.0859 59.9256C35.0859 59.0504 35.0859 58.172 35.0859 57.2935ZM64.3666 61.2129C64.5681 61.2129 64.778 61.2154 64.9871 61.2129C65.9701 61.1994 66.6353 60.5334 66.642 59.5495C66.6462 58.8751 66.637 58.1998 66.6437 57.5253C66.6513 56.7421 66.2888 56.2051 65.584 55.8847C64.7569 55.5087 63.9231 55.1453 63.1079 54.7432C62.8727 54.6269 62.64 54.4313 62.4983 54.2129C61.7581 53.0731 61.028 51.9257 60.3342 50.758C59.7744 49.818 58.9836 49.3939 57.8952 49.4007C54.7784 49.4192 51.6624 49.4167 48.5455 49.4015C47.5229 49.3965 46.7397 49.775 46.131 50.6029C45.2314 51.8279 44.2872 53.0208 43.375 54.2365C43.1642 54.5181 42.9122 54.6909 42.5724 54.7744C41.9915 54.9169 41.4157 55.0821 40.8382 55.2406C39.7658 55.5348 38.6917 55.8206 37.6227 56.1284C36.9221 56.3299 36.4652 56.8652 36.4433 57.527C36.4197 58.2647 36.4096 59.0058 36.4467 59.7434C36.4955 60.7054 37.4212 61.3824 38.3343 61.1682C38.6783 59.0504 40.3054 57.957 41.9333 57.8828C42.7604 57.8457 43.5208 58.0784 44.2004 58.5547C45.1176 59.1971 45.6235 60.0959 45.7879 61.1935C49.5109 61.1935 53.2111 61.1935 56.9088 61.1935C57.2747 58.9282 59.0755 57.8457 60.7304 57.882C62.4663 57.9199 64.0715 59.1643 64.3666 61.2129ZM42.0682 63.9942C43.3851 63.9858 44.4701 62.8965 44.4524 61.6016C44.4339 60.283 43.3556 59.2148 42.0497 59.2216C40.7412 59.2283 39.6528 60.3226 39.6646 61.621C39.6764 62.9345 40.759 64.0026 42.0682 63.9942ZM60.6503 63.9942C61.968 63.9832 63.0531 62.8915 63.0328 61.599C63.0118 60.2813 61.9301 59.2132 60.6259 59.2216C59.3174 59.23 58.2273 60.3294 58.2434 61.6235C58.2594 62.9387 59.3419 64.0052 60.6503 63.9942Z" fill="#0B2D1F"/>
<path d="M64.3666 61.2129C64.5681 61.2129 64.778 61.2154 64.9871 61.2129C65.9701 61.1994 66.6353 60.5334 66.642 59.5495C66.6462 58.8751 66.637 58.1998 66.6437 57.5253C66.6513 56.7421 66.2888 56.2051 65.584 55.8847C64.7569 55.5087 63.9231 55.1453 63.1079 54.7432C62.8727 54.6269 62.64 54.4313 62.4983 54.2129C61.7581 53.0731 61.028 51.9257 60.3342 50.758C59.7744 49.818 58.9836 49.3939 57.8952 49.4007C54.7784 49.4192 51.6624 49.4167 48.5455 49.4015C47.5229 49.3965 46.7397 49.775 46.131 50.6029C45.2314 51.8279 44.2872 53.0208 43.375 54.2365C43.1642 54.5181 42.9122 54.6909 42.5724 54.7744C41.9915 54.9169 41.4157 55.0821 40.8382 55.2406C39.7658 55.5348 38.6917 55.8206 37.6227 56.1284C36.9221 56.3299 36.4652 56.8652 36.4433 57.527C36.4197 58.2647 36.4096 59.0058 36.4467 59.7434C36.4955 60.7054 37.4212 61.3824 38.3343 61.1682C38.6783 59.0504 40.3054 57.957 41.9333 57.8828C42.7604 57.8457 43.5208 58.0784 44.2004 58.5547C45.1176 59.1971 45.6235 60.0959 45.7879 61.1935H56.9088C57.2747 58.9282 59.0755 57.8457 60.7304 57.882C62.4663 57.9199 64.0715 59.1643 64.3666 61.2129Z" fill="#22885E"/>
<path d="M64.3666 61.2129L63.8717 61.2842L63.9334 61.7129H64.3666V61.2129ZM64.9871 61.2129L64.9931 61.7129L64.9939 61.7129L64.9871 61.2129ZM66.642 59.5495L67.142 59.553L67.142 59.5527L66.642 59.5495ZM66.6437 57.5253L67.1437 57.5303L67.1437 57.5302L66.6437 57.5253ZM65.584 55.8847L65.377 56.3399L65.3771 56.3399L65.584 55.8847ZM63.1079 54.7432L62.8862 55.1914L62.8867 55.1916L63.1079 54.7432ZM62.4983 54.2129L62.9178 53.9408L62.9177 53.9406L62.4983 54.2129ZM60.3342 50.758L60.764 50.5026L60.7638 50.5022L60.3342 50.758ZM57.8952 49.4007L57.8982 49.9007L57.8983 49.9007L57.8952 49.4007ZM48.5455 49.4015L48.5431 49.9015L48.5431 49.9015L48.5455 49.4015ZM46.131 50.6029L45.7282 50.3067L45.728 50.3069L46.131 50.6029ZM43.375 54.2365L42.9751 53.9364L42.9747 53.9369L43.375 54.2365ZM42.5724 54.7744L42.6915 55.26L42.6917 55.26L42.5724 54.7744ZM40.8382 55.2406L40.9705 55.7228L40.9705 55.7228L40.8382 55.2406ZM37.6227 56.1284L37.7609 56.6089L37.761 56.6089L37.6227 56.1284ZM36.4433 57.527L35.9436 57.5105L35.9435 57.511L36.4433 57.527ZM36.4467 59.7434L35.9473 59.7686L35.9473 59.7688L36.4467 59.7434ZM38.3343 61.1682L38.4485 61.655L38.7742 61.5786L38.8278 61.2484L38.3343 61.1682ZM41.9333 57.8828L41.9109 57.3833L41.9106 57.3833L41.9333 57.8828ZM44.2004 58.5547L43.9134 58.9641L43.9135 58.9643L44.2004 58.5547ZM60.7304 57.882L60.7195 58.3818L60.7195 58.3818L60.7304 57.882ZM64.3666 61.7129C64.5595 61.7129 64.7805 61.7155 64.9931 61.7129L64.981 60.713C64.7755 60.7154 64.5767 60.7129 64.3666 60.7129V61.7129ZM64.9939 61.7129C65.5994 61.7046 66.1416 61.4928 66.5349 61.098C66.9283 60.703 67.1379 60.1596 67.142 59.553L66.142 59.5461C66.1394 59.9233 66.013 60.2049 65.8264 60.3923C65.6396 60.5798 65.3578 60.7078 64.9802 60.713L64.9939 61.7129ZM67.142 59.5527C67.1464 58.8503 67.1368 58.2181 67.1437 57.5303L66.1437 57.5203C66.1371 58.1814 66.1461 58.8999 66.142 59.5464L67.142 59.5527ZM67.1437 57.5302C67.1483 57.0579 67.0405 56.6269 66.7996 56.258C66.5595 55.8904 66.2104 55.6203 65.7909 55.4295L65.3771 56.3399C65.6623 56.4696 65.8469 56.6281 65.9624 56.8049C66.077 56.9804 66.1467 57.2095 66.1437 57.5205L67.1437 57.5302ZM65.7909 55.4296C64.9543 55.0492 64.1349 54.6923 63.3291 54.2948L62.8867 55.1916C63.7114 55.5984 64.5595 55.9682 65.377 56.3399L65.7909 55.4296ZM63.3296 54.295C63.1647 54.2135 63.0047 54.0748 62.9178 53.9408L62.0789 54.485C62.2753 54.7878 62.5806 55.0402 62.8862 55.1914L63.3296 54.295ZM62.9177 53.9406C62.1789 52.803 61.4529 51.6619 60.764 50.5026L59.9043 51.0134C60.6031 52.1894 61.3374 53.3432 62.079 54.4852L62.9177 53.9406ZM60.7638 50.5022C60.4467 49.9697 60.0488 49.5592 59.5544 49.2865C59.0609 49.0143 58.503 48.8969 57.8921 48.9007L57.8983 49.9007C58.3757 49.8977 58.7574 49.989 59.0714 50.1621C59.3845 50.3348 59.6619 50.6063 59.9046 51.0138L60.7638 50.5022ZM57.8922 48.9007C54.7776 48.9192 51.6635 48.9167 48.548 48.9015L48.5431 49.9015C51.6613 49.9167 54.7791 49.9192 57.8982 49.9007L57.8922 48.9007ZM48.548 48.9015C47.3708 48.8957 46.4347 49.3458 45.7282 50.3067L46.5338 50.8991C47.0447 50.2042 47.675 49.8972 48.5431 49.9015L48.548 48.9015ZM45.728 50.3069C44.8264 51.5347 43.9017 52.7014 42.9751 53.9364L43.7749 54.5366C44.6726 53.3402 45.6365 52.121 46.534 50.8988L45.728 50.3069ZM42.9747 53.9369C42.8297 54.1307 42.6748 54.2344 42.4531 54.2888L42.6917 55.26C43.1495 55.1475 43.4988 54.9055 43.7753 54.5361L42.9747 53.9369ZM42.4533 54.2888C41.8636 54.4334 41.2759 54.602 40.7059 54.7584L40.9705 55.7228C41.5555 55.5622 42.1195 55.4003 42.6915 55.26L42.4533 54.2888ZM40.7059 54.7584C39.6385 55.0513 38.5574 55.339 37.4844 55.6479L37.761 56.6089C38.8261 56.3023 39.8931 56.0184 40.9705 55.7228L40.7059 54.7584ZM37.4845 55.6478C36.6084 55.8998 35.9737 56.5997 35.9436 57.5105L36.943 57.5436C36.9567 57.1307 37.2359 56.7599 37.7609 56.6089L37.4845 55.6478ZM35.9435 57.511C35.9198 58.2537 35.9092 59.0106 35.9473 59.7686L36.946 59.7183C36.9099 59.0009 36.9196 58.2757 36.943 57.543L35.9435 57.511ZM35.9473 59.7688C36.0122 61.0456 37.235 61.9396 38.4485 61.655L38.2201 60.6814C37.6075 60.8251 36.9789 60.3652 36.946 59.7181L35.9473 59.7688ZM38.8278 61.2484C39.1298 59.3893 40.5381 58.4469 41.9561 58.3823L41.9106 57.3833C40.0727 57.4671 38.2267 58.7116 37.8408 61.0881L38.8278 61.2484ZM41.9558 58.3823C42.6676 58.3504 43.3201 58.5483 43.9134 58.9641L44.4874 58.1453C43.7216 57.6085 42.8532 57.341 41.9109 57.3833L41.9558 58.3823ZM43.9135 58.9643C44.707 59.52 45.1471 60.2909 45.2934 61.2676L46.2823 61.1195C46.0998 59.9008 45.5283 58.8743 44.4872 58.1452L43.9135 58.9643ZM57.4024 61.2733C57.7242 59.2808 59.2861 58.3504 60.7195 58.3818L60.7414 57.3821C58.8648 57.341 56.8252 58.5756 56.4152 61.1138L57.4024 61.2733ZM60.7195 58.3818C62.2172 58.4146 63.6123 59.4837 63.8717 61.2842L64.8615 61.1416C64.5307 58.8449 62.7154 57.4252 60.7413 57.3821L60.7195 58.3818ZM35.0859 57.2935L34.12 57.0346L34.0859 57.1618V57.2935H35.0859ZM35.7697 55.7937L35.0077 55.1461L35.0076 55.1461L35.7697 55.7937ZM37.4103 54.7862L37.6717 55.7514L37.6717 55.7514L37.4103 54.7862ZM41.93 53.5587L41.6732 52.5922L41.6718 52.5926L41.93 53.5587ZM42.4906 53.1751L41.6917 52.5736L41.691 52.5746L42.4906 53.1751ZM45.1749 49.6477L45.9734 50.2498L45.9734 50.2497L45.1749 49.6477ZM48.3499 48.0602L48.3489 47.0602L48.3487 47.0602L48.3499 48.0602ZM58.0545 48.061L58.0527 49.061L58.0528 49.061L58.0545 48.061ZM61.3922 49.9284L62.2421 49.4014L62.242 49.4013L61.3922 49.9284ZM63.4957 53.2704L64.3383 52.7319L64.3378 52.7311L63.4957 53.2704ZM63.8886 53.6177L63.4553 54.519L63.4565 54.5196L63.8886 53.6177ZM66.0755 54.621L66.4846 53.7085L66.4844 53.7084L66.0755 54.621ZM67.9952 57.6021L68.9951 57.6152L68.9951 57.6151L67.9952 57.6021ZM67.9522 59.9129L68.9466 60.0184L68.9466 60.0184L67.9522 59.9129ZM65.0006 62.545L65.0117 61.545L65.0117 61.545L65.0006 62.545ZM64.0125 63.1806L64.9316 63.5746L64.9318 63.5742L64.0125 63.1806ZM60.496 65.36L60.4411 66.3585L60.4414 66.3585L60.496 65.36ZM57.0968 62.8046L58.0434 62.4822L58.0429 62.4806L57.0968 62.8046ZM56.7638 62.5568L56.7638 61.5568L56.7621 61.5568L56.7638 62.5568ZM45.9346 62.5559L45.9364 61.5559H45.9346V62.5559ZM45.6024 62.8063L46.5479 63.132L46.5479 63.1319L45.6024 62.8063ZM42.0725 65.3608L42.0745 66.3608L42.0746 66.3608L42.0725 65.3608ZM38.5155 62.7979L39.461 62.4722L39.4608 62.4714L38.5155 62.7979ZM38.212 62.5559L38.2454 63.5554L38.247 63.5553L38.212 62.5559ZM35.1171 59.9812L34.1255 60.1105L34.1266 60.1183L35.1171 59.9812ZM35.0859 59.9256L34.0859 59.9256V60.1989L34.225 60.4343L35.0859 59.9256ZM42.0682 63.9942L42.0618 62.9942L42.0618 62.9942L42.0682 63.9942ZM44.4524 61.6016L45.4523 61.5879L45.4523 61.5875L44.4524 61.6016ZM42.0497 59.2216L42.0548 60.2216L42.0549 60.2216L42.0497 59.2216ZM39.6646 61.621L40.6646 61.612L40.6646 61.6119L39.6646 61.621ZM60.6503 63.9942L60.642 62.9942L60.642 62.9942L60.6503 63.9942ZM63.0328 61.599L64.0327 61.5834L64.0327 61.5831L63.0328 61.599ZM60.6259 59.2216L60.6323 60.2216L60.6323 60.2216L60.6259 59.2216ZM58.2434 61.6235L59.2433 61.6113L59.2433 61.6111L58.2434 61.6235ZM36.0518 57.5524C36.1933 57.0244 36.3167 56.6942 36.5317 56.4412L35.0076 55.1461C34.4791 55.7682 34.2669 56.4868 34.12 57.0346L36.0518 57.5524ZM36.5316 56.4413C36.82 56.102 37.1872 55.8826 37.6717 55.7514L37.1489 53.821C36.3384 54.0405 35.5978 54.4517 35.0077 55.1461L36.5316 56.4413ZM37.6717 55.7514C39.1867 55.3411 40.6807 54.9276 42.1881 54.5248L41.6718 52.5926C40.1628 52.9958 38.647 53.4152 37.1489 53.821L37.6717 55.7514ZM42.1868 54.5251C42.6587 54.3997 43.0143 54.143 43.2902 53.7756L41.691 52.5746C41.679 52.5906 41.672 52.5978 41.6703 52.5994C41.669 52.6008 41.6713 52.5983 41.6769 52.5945C41.6825 52.5906 41.6873 52.5881 41.6894 52.5872C41.6911 52.5865 41.6866 52.5887 41.6732 52.5922L42.1868 54.5251ZM43.2895 53.7766C43.7312 53.1899 44.1777 52.6058 44.6268 52.0186C45.0752 51.4323 45.5262 50.8427 45.9734 50.2498L44.3765 49.0456C43.9342 49.6321 43.4874 50.2161 43.0381 50.8036C42.5896 51.3901 42.1386 51.98 41.6917 52.5736L43.2895 53.7766ZM45.9734 50.2497C46.5834 49.4407 47.3457 49.0615 48.3512 49.0602L48.3487 47.0602C46.7154 47.0623 45.3633 47.7369 44.3765 49.0457L45.9734 50.2497ZM48.351 49.0602C51.5856 49.0568 54.8193 49.0551 58.0527 49.061L58.0563 47.061C54.82 47.0551 51.584 47.0568 48.3489 47.0602L48.351 49.0602ZM58.0528 49.061C59.1593 49.063 59.9535 49.506 60.5424 50.4555L62.242 49.4013C61.2915 47.8688 59.8583 47.0642 58.0563 47.061L58.0528 49.061ZM60.5424 50.4555C61.2381 51.5773 61.9405 52.696 62.6535 53.8096L64.3378 52.7311C63.6311 51.6274 62.934 50.5171 62.2421 49.4014L60.5424 50.4555ZM62.6531 53.8088C62.8454 54.1098 63.1372 54.3661 63.4553 54.519L64.3218 52.7164C64.3265 52.7187 64.3298 52.7205 64.3317 52.7216C64.3337 52.7227 64.3347 52.7234 64.3348 52.7235C64.3348 52.7235 64.3333 52.7225 64.3311 52.7205C64.3289 52.7185 64.3278 52.7173 64.3282 52.7178C64.3285 52.7181 64.3323 52.7224 64.3383 52.7319L62.6531 53.8088ZM63.4565 54.5196C64.193 54.8723 64.9358 55.206 65.6665 55.5335L66.4844 53.7084C65.7516 53.38 65.0309 53.0561 64.3206 52.7158L63.4565 54.5196ZM65.6664 55.5335C66.1719 55.7601 66.49 56.0373 66.6861 56.34C66.8813 56.6413 67.0024 57.0399 66.9952 57.589L68.9951 57.6151C69.0064 56.7461 68.8118 55.9429 68.3646 55.2526C67.9183 54.5637 67.2672 54.0593 66.4846 53.7085L65.6664 55.5335ZM66.9952 57.5889C66.9838 58.4637 67.0325 59.1027 66.9577 59.8074L68.9466 60.0184C69.0337 59.1971 68.9863 58.2815 68.9951 57.6152L66.9952 57.5889ZM66.9577 59.8074C66.8441 60.8781 66.0807 61.557 65.0117 61.545L64.9894 63.5449C67.0954 63.5684 68.7247 62.1092 68.9466 60.0184L66.9577 59.8074ZM65.0117 61.545C64.6855 61.5414 64.2583 61.5721 63.8596 61.8213C63.4534 62.0752 63.2354 62.4548 63.0932 62.7871L64.9318 63.5742C64.9494 63.5332 64.9637 63.5041 64.9745 63.4842C64.9853 63.4643 64.9912 63.4561 64.9914 63.4558C64.9915 63.4558 64.9899 63.4579 64.9867 63.4616C64.9835 63.4653 64.9787 63.4705 64.9722 63.4767C64.9587 63.4896 64.9409 63.504 64.9195 63.5173C64.8982 63.5306 64.8785 63.5398 64.8631 63.5455C64.8482 63.5511 64.8406 63.5524 64.8435 63.5518C64.8468 63.5512 64.8594 63.549 64.8844 63.5472C64.9095 63.5455 64.9436 63.5444 64.9894 63.5449L65.0117 61.545ZM63.0933 62.7867C62.6594 63.7993 61.6071 64.4193 60.5507 64.3615L60.4414 66.3585C62.3104 66.4608 64.1566 65.3829 64.9316 63.5746L63.0933 62.7867ZM60.551 64.3615C59.3573 64.2958 58.4209 63.5905 58.0434 62.4822L56.1502 63.1271C56.7962 65.0235 58.4497 66.2488 60.4411 66.3585L60.551 64.3615ZM58.0429 62.4806C57.9933 62.336 57.8789 62.0399 57.587 61.8168C57.2808 61.5829 56.9508 61.5568 56.7638 61.5568V63.5568C56.7636 63.5568 56.7178 63.5573 56.6482 63.54C56.5706 63.5207 56.471 63.4811 56.3728 63.4061C56.1827 63.2608 56.137 63.0887 56.1507 63.1286L58.0429 62.4806ZM56.7621 61.5568C53.1532 61.5627 49.5452 61.5627 45.9364 61.5559L45.9327 63.5559C49.544 63.5627 53.1543 63.5627 56.7654 63.5568L56.7621 61.5568ZM45.9346 61.5559C45.7285 61.5559 45.3948 61.5904 45.0912 61.8335C44.8103 62.0585 44.7018 62.3503 44.6569 62.4807L46.5479 63.1319C46.5645 63.0836 46.5218 63.2502 46.3414 63.3946C46.1383 63.5573 45.9399 63.5559 45.9346 63.5559V61.5559ZM44.6569 62.4806C44.2618 63.6277 43.2321 64.3584 42.0703 64.3608L42.0746 66.3608C44.1047 66.3565 45.8807 65.0689 46.5479 63.132L44.6569 62.4806ZM42.0704 64.3608C40.8894 64.3633 39.8624 63.6374 39.461 62.4722L37.5701 63.1236C38.2444 65.0811 40.0215 66.3651 42.0745 66.3608L42.0704 64.3608ZM39.4608 62.4714C39.4334 62.3923 39.3406 62.1045 39.0901 61.8753C38.7833 61.5946 38.4245 61.5479 38.1771 61.5565L38.247 63.5553C38.1927 63.5572 37.9573 63.5497 37.7399 63.3508C37.6506 63.269 37.6035 63.1887 37.5838 63.1506C37.566 63.1164 37.5613 63.0981 37.5703 63.1243L39.4608 62.4714ZM38.1787 61.5565C37.0589 61.5938 36.2472 60.8525 36.1077 59.8441L34.1266 60.1183C34.4035 62.1197 36.0806 63.6276 38.2454 63.5554L38.1787 61.5565ZM36.1087 59.8519C36.0914 59.7186 36.0513 59.6133 36.0186 59.5434C35.9865 59.4746 35.9534 59.4233 35.9368 59.3984C35.9231 59.3779 35.904 59.3513 35.9109 59.361C35.9114 59.3617 35.9156 59.3677 35.9213 59.3761C35.9271 59.3848 35.9362 59.3988 35.9469 59.4168L34.225 60.4343C34.2501 60.4767 34.2735 60.5095 34.2793 60.5177C34.2926 60.5365 34.2802 60.5191 34.2726 60.5077C34.2621 60.492 34.2346 60.4499 34.2069 60.3905C34.1785 60.3299 34.1416 60.2341 34.1255 60.1105L36.1087 59.8519ZM36.0859 59.9256C36.0859 59.0606 36.0859 58.1619 36.0859 57.2935H34.0859C34.0859 58.1619 34.0859 59.0606 34.0859 59.9256L36.0859 59.9256ZM45.7879 62.1935C45.7951 62.1935 45.8024 62.1935 45.8097 62.1935C45.8169 62.1935 45.8242 62.1935 45.8315 62.1935C45.8388 62.1935 45.846 62.1935 45.8533 62.1935C45.8606 62.1935 45.8678 62.1935 45.8751 62.1935C45.8824 62.1935 45.8897 62.1935 45.8969 62.1935C45.9042 62.1935 45.9115 62.1935 45.9187 62.1935C45.926 62.1935 45.9333 62.1935 45.9405 62.1935C45.9478 62.1935 45.9551 62.1935 45.9624 62.1935C45.9696 62.1935 45.9769 62.1935 45.9842 62.1935C45.9914 62.1935 45.9987 62.1935 46.006 62.1935C46.0132 62.1935 46.0205 62.1935 46.0278 62.1935C46.0351 62.1935 46.0423 62.1935 46.0496 62.1935C46.0569 62.1935 46.0641 62.1935 46.0714 62.1935C46.0787 62.1935 46.0859 62.1935 46.0932 62.1935C46.1005 62.1935 46.1077 62.1935 46.115 62.1935C46.1223 62.1935 46.1296 62.1935 46.1368 62.1935C46.1441 62.1935 46.1514 62.1935 46.1586 62.1935C46.1659 62.1935 46.1732 62.1935 46.1804 62.1935C46.1877 62.1935 46.195 62.1935 46.2022 62.1935C46.2095 62.1935 46.2168 62.1935 46.224 62.1935C46.2313 62.1935 46.2386 62.1935 46.2458 62.1935C46.2531 62.1935 46.2604 62.1935 46.2677 62.1935C46.2749 62.1935 46.2822 62.1935 46.2895 62.1935C46.2967 62.1935 46.304 62.1935 46.3113 62.1935C46.3185 62.1935 46.3258 62.1935 46.3331 62.1935C46.3403 62.1935 46.3476 62.1935 46.3549 62.1935C46.3621 62.1935 46.3694 62.1935 46.3767 62.1935C46.3839 62.1935 46.3912 62.1935 46.3985 62.1935C46.4057 62.1935 46.413 62.1935 46.4203 62.1935C46.4275 62.1935 46.4348 62.1935 46.4421 62.1935C46.4493 62.1935 46.4566 62.1935 46.4639 62.1935C46.4711 62.1935 46.4784 62.1935 46.4857 62.1935C46.4929 62.1935 46.5002 62.1935 46.5075 62.1935C46.5147 62.1935 46.522 62.1935 46.5293 62.1935C46.5365 62.1935 46.5438 62.1935 46.5511 62.1935C46.5583 62.1935 46.5656 62.1935 46.5728 62.1935C46.5801 62.1935 46.5874 62.1935 46.5946 62.1935C46.6019 62.1935 46.6092 62.1935 46.6164 62.1935C46.6237 62.1935 46.631 62.1935 46.6382 62.1935C46.6455 62.1935 46.6528 62.1935 46.66 62.1935C46.6673 62.1935 46.6746 62.1935 46.6818 62.1935C46.6891 62.1935 46.6964 62.1935 46.7036 62.1935C46.7109 62.1935 46.7181 62.1935 46.7254 62.1935C46.7327 62.1935 46.7399 62.1935 46.7472 62.1935C46.7545 62.1935 46.7617 62.1935 46.769 62.1935C46.7763 62.1935 46.7835 62.1935 46.7908 62.1935C46.7981 62.1935 46.8053 62.1935 46.8126 62.1935C46.8198 62.1935 46.8271 62.1935 46.8344 62.1935C46.8416 62.1935 46.8489 62.1935 46.8562 62.1935C46.8634 62.1935 46.8707 62.1935 46.8779 62.1935C46.8852 62.1935 46.8925 62.1935 46.8997 62.1935C46.907 62.1935 46.9143 62.1935 46.9215 62.1935C46.9288 62.1935 46.9361 62.1935 46.9433 62.1935C46.9506 62.1935 46.9578 62.1935 46.9651 62.1935C46.9724 62.1935 46.9796 62.1935 46.9869 62.1935C46.9942 62.1935 47.0014 62.1935 47.0087 62.1935C47.0159 62.1935 47.0232 62.1935 47.0305 62.1935C47.0377 62.1935 47.045 62.1935 47.0522 62.1935C47.0595 62.1935 47.0668 62.1935 47.074 62.1935C47.0813 62.1935 47.0886 62.1935 47.0958 62.1935C47.1031 62.1935 47.1103 62.1935 47.1176 62.1935C47.1249 62.1935 47.1321 62.1935 47.1394 62.1935C47.1466 62.1935 47.1539 62.1935 47.1612 62.1935C47.1684 62.1935 47.1757 62.1935 47.183 62.1935C47.1902 62.1935 47.1975 62.1935 47.2047 62.1935C47.212 62.1935 47.2193 62.1935 47.2265 62.1935C47.2338 62.1935 47.241 62.1935 47.2483 62.1935C47.2556 62.1935 47.2628 62.1935 47.2701 62.1935C47.2773 62.1935 47.2846 62.1935 47.2919 62.1935C47.2991 62.1935 47.3064 62.1935 47.3136 62.1935C47.3209 62.1935 47.3282 62.1935 47.3354 62.1935C47.3427 62.1935 47.3499 62.1935 47.3572 62.1935C47.3645 62.1935 47.3717 62.1935 47.379 62.1935C47.3862 62.1935 47.3935 62.1935 47.4008 62.1935C47.408 62.1935 47.4153 62.1935 47.4225 62.1935C47.4298 62.1935 47.4371 62.1935 47.4443 62.1935C47.4516 62.1935 47.4588 62.1935 47.4661 62.1935C47.4734 62.1935 47.4806 62.1935 47.4879 62.1935C47.4951 62.1935 47.5024 62.1935 47.5096 62.1935C47.5169 62.1935 47.5242 62.1935 47.5314 62.1935C47.5387 62.1935 47.5459 62.1935 47.5532 62.1935C47.5605 62.1935 47.5677 62.1935 47.575 62.1935C47.5822 62.1935 47.5895 62.1935 47.5967 62.1935C47.604 62.1935 47.6113 62.1935 47.6185 62.1935C47.6258 62.1935 47.633 62.1935 47.6403 62.1935C47.6476 62.1935 47.6548 62.1935 47.6621 62.1935C47.6693 62.1935 47.6766 62.1935 47.6838 62.1935C47.6911 62.1935 47.6984 62.1935 47.7056 62.1935C47.7129 62.1935 47.7201 62.1935 47.7274 62.1935C47.7346 62.1935 47.7419 62.1935 47.7492 62.1935C47.7564 62.1935 47.7637 62.1935 47.7709 62.1935C47.7782 62.1935 47.7854 62.1935 47.7927 62.1935C47.8 62.1935 47.8072 62.1935 47.8145 62.1935C47.8217 62.1935 47.829 62.1935 47.8362 62.1935C47.8435 62.1935 47.8508 62.1935 47.858 62.1935C47.8653 62.1935 47.8725 62.1935 47.8798 62.1935C47.887 62.1935 47.8943 62.1935 47.9015 62.1935C47.9088 62.1935 47.9161 62.1935 47.9233 62.1935C47.9306 62.1935 47.9378 62.1935 47.9451 62.1935C47.9523 62.1935 47.9596 62.1935 47.9668 62.1935C47.9741 62.1935 47.9814 62.1935 47.9886 62.1935C47.9959 62.1935 48.0031 62.1935 48.0104 62.1935C48.0176 62.1935 48.0249 62.1935 48.0321 62.1935C48.0394 62.1935 48.0467 62.1935 48.0539 62.1935C48.0612 62.1935 48.0684 62.1935 48.0757 62.1935C48.0829 62.1935 48.0902 62.1935 48.0974 62.1935C48.1047 62.1935 48.112 62.1935 48.1192 62.1935C48.1265 62.1935 48.1337 62.1935 48.141 62.1935C48.1482 62.1935 48.1555 62.1935 48.1627 62.1935C48.17 62.1935 48.1772 62.1935 48.1845 62.1935C48.1917 62.1935 48.199 62.1935 48.2063 62.1935C48.2135 62.1935 48.2208 62.1935 48.228 62.1935C48.2353 62.1935 48.2425 62.1935 48.2498 62.1935C48.257 62.1935 48.2643 62.1935 48.2715 62.1935C48.2788 62.1935 48.286 62.1935 48.2933 62.1935C48.3006 62.1935 48.3078 62.1935 48.3151 62.1935C48.3223 62.1935 48.3296 62.1935 48.3368 62.1935C48.3441 62.1935 48.3513 62.1935 48.3586 62.1935C48.3658 62.1935 48.3731 62.1935 48.3803 62.1935C48.3876 62.1935 48.3948 62.1935 48.4021 62.1935C48.4094 62.1935 48.4166 62.1935 48.4239 62.1935C48.4311 62.1935 48.4384 62.1935 48.4456 62.1935C48.4529 62.1935 48.4601 62.1935 48.4674 62.1935C48.4746 62.1935 48.4819 62.1935 48.4891 62.1935C48.4964 62.1935 48.5036 62.1935 48.5109 62.1935C48.5181 62.1935 48.5254 62.1935 48.5326 62.1935C48.5399 62.1935 48.5471 62.1935 48.5544 62.1935C48.5617 62.1935 48.5689 62.1935 48.5762 62.1935C48.5834 62.1935 48.5907 62.1935 48.5979 62.1935C48.6052 62.1935 48.6124 62.1935 48.6197 62.1935C48.6269 62.1935 48.6342 62.1935 48.6414 62.1935C48.6487 62.1935 48.6559 62.1935 48.6632 62.1935C48.6704 62.1935 48.6777 62.1935 48.6849 62.1935C48.6922 62.1935 48.6994 62.1935 48.7067 62.1935C48.7139 62.1935 48.7212 62.1935 48.7284 62.1935C48.7357 62.1935 48.7429 62.1935 48.7502 62.1935C48.7574 62.1935 48.7647 62.1935 48.7719 62.1935C48.7792 62.1935 48.7864 62.1935 48.7937 62.1935C48.8009 62.1935 48.8082 62.1935 48.8154 62.1935C48.8227 62.1935 48.8299 62.1935 48.8372 62.1935C48.8444 62.1935 48.8517 62.1935 48.8589 62.1935C48.8662 62.1935 48.8734 62.1935 48.8807 62.1935C48.8879 62.1935 48.8952 62.1935 48.9024 62.1935C48.9097 62.1935 48.9169 62.1935 48.9242 62.1935C48.9314 62.1935 48.9387 62.1935 48.9459 62.1935C48.9532 62.1935 48.9604 62.1935 48.9677 62.1935C48.9749 62.1935 48.9822 62.1935 48.9894 62.1935C48.9967 62.1935 49.0039 62.1935 49.0112 62.1935C49.0184 62.1935 49.0257 62.1935 49.0329 62.1935C49.0402 62.1935 49.0474 62.1935 49.0547 62.1935C49.0619 62.1935 49.0692 62.1935 49.0764 62.1935C49.0837 62.1935 49.0909 62.1935 49.0982 62.1935C49.1054 62.1935 49.1127 62.1935 49.1199 62.1935C49.1272 62.1935 49.1344 62.1935 49.1417 62.1935C49.1489 62.1935 49.1561 62.1935 49.1634 62.1935C49.1706 62.1935 49.1779 62.1935 49.1851 62.1935C49.1924 62.1935 49.1996 62.1935 49.2069 62.1935C49.2141 62.1935 49.2214 62.1935 49.2286 62.1935C49.2359 62.1935 49.2431 62.1935 49.2504 62.1935C49.2576 62.1935 49.2649 62.1935 49.2721 62.1935C49.2794 62.1935 49.2866 62.1935 49.2939 62.1935C49.3011 62.1935 49.3084 62.1935 49.3156 62.1935C49.3228 62.1935 49.3301 62.1935 49.3373 62.1935C49.3446 62.1935 49.3518 62.1935 49.3591 62.1935C49.3663 62.1935 49.3736 62.1935 49.3808 62.1935C49.3881 62.1935 49.3953 62.1935 49.4026 62.1935C49.4098 62.1935 49.4171 62.1935 49.4243 62.1935C49.4316 62.1935 49.4388 62.1935 49.446 62.1935C49.4533 62.1935 49.4605 62.1935 49.4678 62.1935C49.475 62.1935 49.4823 62.1935 49.4895 62.1935C49.4968 62.1935 49.504 62.1935 49.5113 62.1935C49.5185 62.1935 49.5258 62.1935 49.533 62.1935C49.5402 62.1935 49.5475 62.1935 49.5547 62.1935C49.562 62.1935 49.5692 62.1935 49.5765 62.1935C49.5837 62.1935 49.591 62.1935 49.5982 62.1935C49.6055 62.1935 49.6127 62.1935 49.62 62.1935C49.6272 62.1935 49.6344 62.1935 49.6417 62.1935C49.6489 62.1935 49.6562 62.1935 49.6634 62.1935C49.6707 62.1935 49.6779 62.1935 49.6852 62.1935C49.6924 62.1935 49.6996 62.1935 49.7069 62.1935C49.7141 62.1935 49.7214 62.1935 49.7286 62.1935C49.7359 62.1935 49.7431 62.1935 49.7504 62.1935C49.7576 62.1935 49.7649 62.1935 49.7721 62.1935C49.7793 62.1935 49.7866 62.1935 49.7938 62.1935C49.8011 62.1935 49.8083 62.1935 49.8156 62.1935C49.8228 62.1935 49.8301 62.1935 49.8373 62.1935C49.8445 62.1935 49.8518 62.1935 49.859 62.1935C49.8663 62.1935 49.8735 62.1935 49.8808 62.1935C49.888 62.1935 49.8953 62.1935 49.9025 62.1935C49.9097 62.1935 49.917 62.1935 49.9242 62.1935C49.9315 62.1935 49.9387 62.1935 49.946 62.1935C49.9532 62.1935 49.9604 62.1935 49.9677 62.1935C49.9749 62.1935 49.9822 62.1935 49.9894 62.1935C49.9967 62.1935 50.0039 62.1935 50.0112 62.1935C50.0184 62.1935 50.0256 62.1935 50.0329 62.1935C50.0401 62.1935 50.0474 62.1935 50.0546 62.1935C50.0619 62.1935 50.0691 62.1935 50.0763 62.1935C50.0836 62.1935 50.0908 62.1935 50.0981 62.1935C50.1053 62.1935 50.1126 62.1935 50.1198 62.1935C50.127 62.1935 50.1343 62.1935 50.1415 62.1935C50.1488 62.1935 50.156 62.1935 50.1633 62.1935C50.1705 62.1935 50.1777 62.1935 50.185 62.1935C50.1922 62.1935 50.1995 62.1935 50.2067 62.1935C50.214 62.1935 50.2212 62.1935 50.2284 62.1935C50.2357 62.1935 50.2429 62.1935 50.2502 62.1935C50.2574 62.1935 50.2647 62.1935 50.2719 62.1935C50.2791 62.1935 50.2864 62.1935 50.2936 62.1935C50.3009 62.1935 50.3081 62.1935 50.3153 62.1935C50.3226 62.1935 50.3298 62.1935 50.3371 62.1935C50.3443 62.1935 50.3516 62.1935 50.3588 62.1935C50.366 62.1935 50.3733 62.1935 50.3805 62.1935C50.3878 62.1935 50.395 62.1935 50.4022 62.1935C50.4095 62.1935 50.4167 62.1935 50.424 62.1935C50.4312 62.1935 50.4385 62.1935 50.4457 62.1935C50.4529 62.1935 50.4602 62.1935 50.4674 62.1935C50.4747 62.1935 50.4819 62.1935 50.4891 62.1935C50.4964 62.1935 50.5036 62.1935 50.5109 62.1935C50.5181 62.1935 50.5253 62.1935 50.5326 62.1935C50.5398 62.1935 50.5471 62.1935 50.5543 62.1935C50.5615 62.1935 50.5688 62.1935 50.576 62.1935C50.5833 62.1935 50.5905 62.1935 50.5978 62.1935C50.605 62.1935 50.6122 62.1935 50.6195 62.1935C50.6267 62.1935 50.634 62.1935 50.6412 62.1935C50.6484 62.1935 50.6557 62.1935 50.6629 62.1935C50.6702 62.1935 50.6774 62.1935 50.6846 62.1935C50.6919 62.1935 50.6991 62.1935 50.7064 62.1935C50.7136 62.1935 50.7208 62.1935 50.7281 62.1935C50.7353 62.1935 50.7426 62.1935 50.7498 62.1935C50.757 62.1935 50.7643 62.1935 50.7715 62.1935C50.7788 62.1935 50.786 62.1935 50.7932 62.1935C50.8005 62.1935 50.8077 62.1935 50.8149 62.1935C50.8222 62.1935 50.8294 62.1935 50.8367 62.1935C50.8439 62.1935 50.8511 62.1935 50.8584 62.1935C50.8656 62.1935 50.8729 62.1935 50.8801 62.1935C50.8873 62.1935 50.8946 62.1935 50.9018 62.1935C50.9091 62.1935 50.9163 62.1935 50.9235 62.1935C50.9308 62.1935 50.938 62.1935 50.9453 62.1935C50.9525 62.1935 50.9597 62.1935 50.967 62.1935C50.9742 62.1935 50.9814 62.1935 50.9887 62.1935C50.9959 62.1935 51.0032 62.1935 51.0104 62.1935C51.0176 62.1935 51.0249 62.1935 51.0321 62.1935C51.0394 62.1935 51.0466 62.1935 51.0538 62.1935C51.0611 62.1935 51.0683 62.1935 51.0755 62.1935C51.0828 62.1935 51.09 62.1935 51.0973 62.1935C51.1045 62.1935 51.1117 62.1935 51.119 62.1935C51.1262 62.1935 51.1334 62.1935 51.1407 62.1935C51.1479 62.1935 51.1552 62.1935 51.1624 62.1935C51.1696 62.1935 51.1769 62.1935 51.1841 62.1935C51.1914 62.1935 51.1986 62.1935 51.2058 62.1935C51.2131 62.1935 51.2203 62.1935 51.2275 62.1935C51.2348 62.1935 51.242 62.1935 51.2493 62.1935C51.2565 62.1935 51.2637 62.1935 51.271 62.1935C51.2782 62.1935 51.2854 62.1935 51.2927 62.1935C51.2999 62.1935 51.3071 62.1935 51.3144 62.1935C51.3216 62.1935 51.3289 62.1935 51.3361 62.1935C51.3433 62.1935 51.3506 62.1935 51.3578 62.1935C51.365 62.1935 51.3723 62.1935 51.3795 62.1935C51.3868 62.1935 51.394 62.1935 51.4012 62.1935C51.4085 62.1935 51.4157 62.1935 51.4229 62.1935C51.4302 62.1935 51.4374 62.1935 51.4446 62.1935C51.4519 62.1935 51.4591 62.1935 51.4664 62.1935C51.4736 62.1935 51.4808 62.1935 51.4881 62.1935C51.4953 62.1935 51.5025 62.1935 51.5098 62.1935C51.517 62.1935 51.5242 62.1935 51.5315 62.1935C51.5387 62.1935 51.546 62.1935 51.5532 62.1935C51.5604 62.1935 51.5677 62.1935 51.5749 62.1935C51.5821 62.1935 51.5894 62.1935 51.5966 62.1935C51.6038 62.1935 51.6111 62.1935 51.6183 62.1935C51.6256 62.1935 51.6328 62.1935 51.64 62.1935C51.6473 62.1935 51.6545 62.1935 51.6617 62.1935C51.669 62.1935 51.6762 62.1935 51.6834 62.1935C51.6907 62.1935 51.6979 62.1935 51.7051 62.1935C51.7124 62.1935 51.7196 62.1935 51.7268 62.1935C51.7341 62.1935 51.7413 62.1935 51.7486 62.1935C51.7558 62.1935 51.763 62.1935 51.7703 62.1935C51.7775 62.1935 51.7847 62.1935 51.792 62.1935C51.7992 62.1935 51.8064 62.1935 51.8137 62.1935C51.8209 62.1935 51.8281 62.1935 51.8354 62.1935C51.8426 62.1935 51.8498 62.1935 51.8571 62.1935C51.8643 62.1935 51.8715 62.1935 51.8788 62.1935C51.886 62.1935 51.8933 62.1935 51.9005 62.1935C51.9077 62.1935 51.915 62.1935 51.9222 62.1935C51.9294 62.1935 51.9367 62.1935 51.9439 62.1935C51.9511 62.1935 51.9584 62.1935 51.9656 62.1935C51.9728 62.1935 51.9801 62.1935 51.9873 62.1935C51.9945 62.1935 52.0018 62.1935 52.009 62.1935C52.0162 62.1935 52.0235 62.1935 52.0307 62.1935C52.0379 62.1935 52.0452 62.1935 52.0524 62.1935C52.0596 62.1935 52.0669 62.1935 52.0741 62.1935C52.0813 62.1935 52.0886 62.1935 52.0958 62.1935C52.103 62.1935 52.1103 62.1935 52.1175 62.1935C52.1247 62.1935 52.132 62.1935 52.1392 62.1935C52.1464 62.1935 52.1537 62.1935 52.1609 62.1935C52.1681 62.1935 52.1754 62.1935 52.1826 62.1935C52.1898 62.1935 52.1971 62.1935 52.2043 62.1935C52.2115 62.1935 52.2188 62.1935 52.226 62.1935C52.2332 62.1935 52.2405 62.1935 52.2477 62.1935C52.2549 62.1935 52.2622 62.1935 52.2694 62.1935C52.2766 62.1935 52.2839 62.1935 52.2911 62.1935C52.2983 62.1935 52.3056 62.1935 52.3128 62.1935C52.32 62.1935 52.3273 62.1935 52.3345 62.1935C52.3417 62.1935 52.349 62.1935 52.3562 62.1935C52.3634 62.1935 52.3707 62.1935 52.3779 62.1935C52.3851 62.1935 52.3924 62.1935 52.3996 62.1935C52.4068 62.1935 52.4141 62.1935 52.4213 62.1935C52.4285 62.1935 52.4358 62.1935 52.443 62.1935C52.4502 62.1935 52.4575 62.1935 52.4647 62.1935C52.4719 62.1935 52.4792 62.1935 52.4864 62.1935C52.4936 62.1935 52.5009 62.1935 52.5081 62.1935C52.5153 62.1935 52.5226 62.1935 52.5298 62.1935C52.537 62.1935 52.5443 62.1935 52.5515 62.1935C52.5587 62.1935 52.5659 62.1935 52.5732 62.1935C52.5804 62.1935 52.5876 62.1935 52.5949 62.1935C52.6021 62.1935 52.6093 62.1935 52.6166 62.1935C52.6238 62.1935 52.631 62.1935 52.6383 62.1935C52.6455 62.1935 52.6527 62.1935 52.66 62.1935C52.6672 62.1935 52.6744 62.1935 52.6817 62.1935C52.6889 62.1935 52.6961 62.1935 52.7034 62.1935C52.7106 62.1935 52.7178 62.1935 52.725 62.1935C52.7323 62.1935 52.7395 62.1935 52.7467 62.1935C52.754 62.1935 52.7612 62.1935 52.7684 62.1935C52.7757 62.1935 52.7829 62.1935 52.7901 62.1935C52.7974 62.1935 52.8046 62.1935 52.8118 62.1935C52.8191 62.1935 52.8263 62.1935 52.8335 62.1935C52.8407 62.1935 52.848 62.1935 52.8552 62.1935C52.8624 62.1935 52.8697 62.1935 52.8769 62.1935C52.8841 62.1935 52.8914 62.1935 52.8986 62.1935C52.9058 62.1935 52.9131 62.1935 52.9203 62.1935C52.9275 62.1935 52.9347 62.1935 52.942 62.1935C52.9492 62.1935 52.9564 62.1935 52.9637 62.1935C52.9709 62.1935 52.9781 62.1935 52.9854 62.1935C52.9926 62.1935 52.9998 62.1935 53.0071 62.1935C53.0143 62.1935 53.0215 62.1935 53.0287 62.1935C53.036 62.1935 53.0432 62.1935 53.0504 62.1935C53.0577 62.1935 53.0649 62.1935 53.0721 62.1935C53.0794 62.1935 53.0866 62.1935 53.0938 62.1935C53.101 62.1935 53.1083 62.1935 53.1155 62.1935C53.1227 62.1935 53.13 62.1935 53.1372 62.1935C53.1444 62.1935 53.1517 62.1935 53.1589 62.1935C53.1661 62.1935 53.1733 62.1935 53.1806 62.1935C53.1878 62.1935 53.195 62.1935 53.2023 62.1935C53.2095 62.1935 53.2167 62.1935 53.224 62.1935C53.2312 62.1935 53.2384 62.1935 53.2456 62.1935C53.2529 62.1935 53.2601 62.1935 53.2673 62.1935C53.2746 62.1935 53.2818 62.1935 53.289 62.1935C53.2962 62.1935 53.3035 62.1935 53.3107 62.1935C53.3179 62.1935 53.3252 62.1935 53.3324 62.1935C53.3396 62.1935 53.3469 62.1935 53.3541 62.1935C53.3613 62.1935 53.3685 62.1935 53.3758 62.1935C53.383 62.1935 53.3902 62.1935 53.3975 62.1935C53.4047 62.1935 53.4119 62.1935 53.4191 62.1935C53.4264 62.1935 53.4336 62.1935 53.4408 62.1935C53.4481 62.1935 53.4553 62.1935 53.4625 62.1935C53.4698 62.1935 53.477 62.1935 53.4842 62.1935C53.4914 62.1935 53.4987 62.1935 53.5059 62.1935C53.5131 62.1935 53.5204 62.1935 53.5276 62.1935C53.5348 62.1935 53.542 62.1935 53.5493 62.1935C53.5565 62.1935 53.5637 62.1935 53.571 62.1935C53.5782 62.1935 53.5854 62.1935 53.5926 62.1935C53.5999 62.1935 53.6071 62.1935 53.6143 62.1935C53.6216 62.1935 53.6288 62.1935 53.636 62.1935C53.6432 62.1935 53.6505 62.1935 53.6577 62.1935C53.6649 62.1935 53.6722 62.1935 53.6794 62.1935C53.6866 62.1935 53.6938 62.1935 53.7011 62.1935C53.7083 62.1935 53.7155 62.1935 53.7227 62.1935C53.73 62.1935 53.7372 62.1935 53.7444 62.1935C53.7517 62.1935 53.7589 62.1935 53.7661 62.1935C53.7733 62.1935 53.7806 62.1935 53.7878 62.1935C53.795 62.1935 53.8023 62.1935 53.8095 62.1935C53.8167 62.1935 53.8239 62.1935 53.8312 62.1935C53.8384 62.1935 53.8456 62.1935 53.8529 62.1935C53.8601 62.1935 53.8673 62.1935 53.8745 62.1935C53.8818 62.1935 53.889 62.1935 53.8962 62.1935C53.9034 62.1935 53.9107 62.1935 53.9179 62.1935C53.9251 62.1935 53.9324 62.1935 53.9396 62.1935C53.9468 62.1935 53.954 62.1935 53.9613 62.1935C53.9685 62.1935 53.9757 62.1935 53.9829 62.1935C53.9902 62.1935 53.9974 62.1935 54.0046 62.1935C54.0119 62.1935 54.0191 62.1935 54.0263 62.1935C54.0335 62.1935 54.0408 62.1935 54.048 62.1935C54.0552 62.1935 54.0625 62.1935 54.0697 62.1935C54.0769 62.1935 54.0841 62.1935 54.0914 62.1935C54.0986 62.1935 54.1058 62.1935 54.113 62.1935C54.1203 62.1935 54.1275 62.1935 54.1347 62.1935C54.1419 62.1935 54.1492 62.1935 54.1564 62.1935C54.1636 62.1935 54.1709 62.1935 54.1781 62.1935C54.1853 62.1935 54.1925 62.1935 54.1998 62.1935C54.207 62.1935 54.2142 62.1935 54.2214 62.1935C54.2287 62.1935 54.2359 62.1935 54.2431 62.1935C54.2504 62.1935 54.2576 62.1935 54.2648 62.1935C54.272 62.1935 54.2793 62.1935 54.2865 62.1935C54.2937 62.1935 54.3009 62.1935 54.3082 62.1935C54.3154 62.1935 54.3226 62.1935 54.3298 62.1935C54.3371 62.1935 54.3443 62.1935 54.3515 62.1935C54.3587 62.1935 54.366 62.1935 54.3732 62.1935C54.3804 62.1935 54.3877 62.1935 54.3949 62.1935C54.4021 62.1935 54.4093 62.1935 54.4166 62.1935C54.4238 62.1935 54.431 62.1935 54.4382 62.1935C54.4455 62.1935 54.4527 62.1935 54.4599 62.1935C54.4671 62.1935 54.4744 62.1935 54.4816 62.1935C54.4888 62.1935 54.496 62.1935 54.5033 62.1935C54.5105 62.1935 54.5177 62.1935 54.525 62.1935C54.5322 62.1935 54.5394 62.1935 54.5466 62.1935C54.5539 62.1935 54.5611 62.1935 54.5683 62.1935C54.5755 62.1935 54.5828 62.1935 54.59 62.1935C54.5972 62.1935 54.6044 62.1935 54.6117 62.1935C54.6189 62.1935 54.6261 62.1935 54.6333 62.1935C54.6406 62.1935 54.6478 62.1935 54.655 62.1935C54.6622 62.1935 54.6695 62.1935 54.6767 62.1935C54.6839 62.1935 54.6911 62.1935 54.6984 62.1935C54.7056 62.1935 54.7128 62.1935 54.72 62.1935C54.7273 62.1935 54.7345 62.1935 54.7417 62.1935C54.749 62.1935 54.7562 62.1935 54.7634 62.1935C54.7706 62.1935 54.7779 62.1935 54.7851 62.1935C54.7923 62.1935 54.7995 62.1935 54.8068 62.1935C54.814 62.1935 54.8212 62.1935 54.8284 62.1935C54.8357 62.1935 54.8429 62.1935 54.8501 62.1935C54.8573 62.1935 54.8646 62.1935 54.8718 62.1935C54.879 62.1935 54.8862 62.1935 54.8935 62.1935C54.9007 62.1935 54.9079 62.1935 54.9151 62.1935C54.9224 62.1935 54.9296 62.1935 54.9368 62.1935C54.944 62.1935 54.9513 62.1935 54.9585 62.1935C54.9657 62.1935 54.9729 62.1935 54.9802 62.1935C54.9874 62.1935 54.9946 62.1935 55.0018 62.1935C55.0091 62.1935 55.0163 62.1935 55.0235 62.1935C55.0307 62.1935 55.038 62.1935 55.0452 62.1935C55.0524 62.1935 55.0596 62.1935 55.0669 62.1935C55.0741 62.1935 55.0813 62.1935 55.0885 62.1935C55.0958 62.1935 55.103 62.1935 55.1102 62.1935C55.1174 62.1935 55.1247 62.1935 55.1319 62.1935C55.1391 62.1935 55.1463 62.1935 55.1536 62.1935C55.1608 62.1935 55.168 62.1935 55.1752 62.1935C55.1825 62.1935 55.1897 62.1935 55.1969 62.1935C55.2041 62.1935 55.2114 62.1935 55.2186 62.1935C55.2258 62.1935 55.233 62.1935 55.2402 62.1935C55.2475 62.1935 55.2547 62.1935 55.2619 62.1935C55.2691 62.1935 55.2764 62.1935 55.2836 62.1935C55.2908 62.1935 55.298 62.1935 55.3053 62.1935C55.3125 62.1935 55.3197 62.1935 55.3269 62.1935C55.3342 62.1935 55.3414 62.1935 55.3486 62.1935C55.3558 62.1935 55.3631 62.1935 55.3703 62.1935C55.3775 62.1935 55.3847 62.1935 55.392 62.1935C55.3992 62.1935 55.4064 62.1935 55.4136 62.1935C55.4209 62.1935 55.4281 62.1935 55.4353 62.1935C55.4425 62.1935 55.4498 62.1935 55.457 62.1935C55.4642 62.1935 55.4714 62.1935 55.4786 62.1935C55.4859 62.1935 55.4931 62.1935 55.5003 62.1935C55.5075 62.1935 55.5148 62.1935 55.522 62.1935C55.5292 62.1935 55.5364 62.1935 55.5437 62.1935C55.5509 62.1935 55.5581 62.1935 55.5653 62.1935C55.5726 62.1935 55.5798 62.1935 55.587 62.1935C55.5942 62.1935 55.6015 62.1935 55.6087 62.1935C55.6159 62.1935 55.6231 62.1935 55.6303 62.1935C55.6376 62.1935 55.6448 62.1935 55.652 62.1935C55.6592 62.1935 55.6665 62.1935 55.6737 62.1935C55.6809 62.1935 55.6881 62.1935 55.6954 62.1935C55.7026 62.1935 55.7098 62.1935 55.717 62.1935C55.7243 62.1935 55.7315 62.1935 55.7387 62.1935C55.7459 62.1935 55.7532 62.1935 55.7604 62.1935C55.7676 62.1935 55.7748 62.1935 55.782 62.1935C55.7893 62.1935 55.7965 62.1935 55.8037 62.1935C55.8109 62.1935 55.8182 62.1935 55.8254 62.1935C55.8326 62.1935 55.8398 62.1935 55.8471 62.1935C55.8543 62.1935 55.8615 62.1935 55.8687 62.1935C55.8759 62.1935 55.8832 62.1935 55.8904 62.1935C55.8976 62.1935 55.9048 62.1935 55.9121 62.1935C55.9193 62.1935 55.9265 62.1935 55.9337 62.1935C55.941 62.1935 55.9482 62.1935 55.9554 62.1935C55.9626 62.1935 55.9699 62.1935 55.9771 62.1935C55.9843 62.1935 55.9915 62.1935 55.9987 62.1935C56.006 62.1935 56.0132 62.1935 56.0204 62.1935C56.0276 62.1935 56.0349 62.1935 56.0421 62.1935C56.0493 62.1935 56.0565 62.1935 56.0638 62.1935C56.071 62.1935 56.0782 62.1935 56.0854 62.1935C56.0926 62.1935 56.0999 62.1935 56.1071 62.1935C56.1143 62.1935 56.1215 62.1935 56.1288 62.1935C56.136 62.1935 56.1432 62.1935 56.1504 62.1935C56.1577 62.1935 56.1649 62.1935 56.1721 62.1935C56.1793 62.1935 56.1865 62.1935 56.1938 62.1935C56.201 62.1935 56.2082 62.1935 56.2154 62.1935C56.2227 62.1935 56.2299 62.1935 56.2371 62.1935C56.2443 62.1935 56.2515 62.1935 56.2588 62.1935C56.266 62.1935 56.2732 62.1935 56.2804 62.1935C56.2877 62.1935 56.2949 62.1935 56.3021 62.1935C56.3093 62.1935 56.3166 62.1935 56.3238 62.1935C56.331 62.1935 56.3382 62.1935 56.3454 62.1935C56.3527 62.1935 56.3599 62.1935 56.3671 62.1935C56.3743 62.1935 56.3816 62.1935 56.3888 62.1935C56.396 62.1935 56.4032 62.1935 56.4104 62.1935C56.4177 62.1935 56.4249 62.1935 56.4321 62.1935C56.4393 62.1935 56.4466 62.1935 56.4538 62.1935C56.461 62.1935 56.4682 62.1935 56.4755 62.1935C56.4827 62.1935 56.4899 62.1935 56.4971 62.1935C56.5043 62.1935 56.5116 62.1935 56.5188 62.1935C56.526 62.1935 56.5332 62.1935 56.5405 62.1935C56.5477 62.1935 56.5549 62.1935 56.5621 62.1935C56.5693 62.1935 56.5766 62.1935 56.5838 62.1935C56.591 62.1935 56.5982 62.1935 56.6055 62.1935C56.6127 62.1935 56.6199 62.1935 56.6271 62.1935C56.6343 62.1935 56.6416 62.1935 56.6488 62.1935C56.656 62.1935 56.6632 62.1935 56.6705 62.1935C56.6777 62.1935 56.6849 62.1935 56.6921 62.1935C56.6993 62.1935 56.7066 62.1935 56.7138 62.1935C56.721 62.1935 56.7282 62.1935 56.7355 62.1935C56.7427 62.1935 56.7499 62.1935 56.7571 62.1935C56.7643 62.1935 56.7716 62.1935 56.7788 62.1935C56.786 62.1935 56.7932 62.1935 56.8005 62.1935C56.8077 62.1935 56.8149 62.1935 56.8221 62.1935C56.8293 62.1935 56.8366 62.1935 56.8438 62.1935C56.851 62.1935 56.8582 62.1935 56.8655 62.1935C56.8727 62.1935 56.8799 62.1935 56.8871 62.1935C56.8943 62.1935 56.9016 62.1935 56.9088 62.1935V60.1935C56.9016 60.1935 56.8943 60.1935 56.8871 60.1935C56.8799 60.1935 56.8727 60.1935 56.8655 60.1935C56.8582 60.1935 56.851 60.1935 56.8438 60.1935C56.8366 60.1935 56.8293 60.1935 56.8221 60.1935C56.8149 60.1935 56.8077 60.1935 56.8005 60.1935C56.7932 60.1935 56.786 60.1935 56.7788 60.1935C56.7716 60.1935 56.7643 60.1935 56.7571 60.1935C56.7499 60.1935 56.7427 60.1935 56.7355 60.1935C56.7282 60.1935 56.721 60.1935 56.7138 60.1935C56.7066 60.1935 56.6993 60.1935 56.6921 60.1935C56.6849 60.1935 56.6777 60.1935 56.6705 60.1935C56.6632 60.1935 56.656 60.1935 56.6488 60.1935C56.6416 60.1935 56.6343 60.1935 56.6271 60.1935C56.6199 60.1935 56.6127 60.1935 56.6055 60.1935C56.5982 60.1935 56.591 60.1935 56.5838 60.1935C56.5766 60.1935 56.5693 60.1935 56.5621 60.1935C56.5549 60.1935 56.5477 60.1935 56.5405 60.1935C56.5332 60.1935 56.526 60.1935 56.5188 60.1935C56.5116 60.1935 56.5043 60.1935 56.4971 60.1935C56.4899 60.1935 56.4827 60.1935 56.4755 60.1935C56.4682 60.1935 56.461 60.1935 56.4538 60.1935C56.4466 60.1935 56.4393 60.1935 56.4321 60.1935C56.4249 60.1935 56.4177 60.1935 56.4104 60.1935C56.4032 60.1935 56.396 60.1935 56.3888 60.1935C56.3816 60.1935 56.3743 60.1935 56.3671 60.1935C56.3599 60.1935 56.3527 60.1935 56.3454 60.1935C56.3382 60.1935 56.331 60.1935 56.3238 60.1935C56.3166 60.1935 56.3093 60.1935 56.3021 60.1935C56.2949 60.1935 56.2877 60.1935 56.2804 60.1935C56.2732 60.1935 56.266 60.1935 56.2588 60.1935C56.2515 60.1935 56.2443 60.1935 56.2371 60.1935C56.2299 60.1935 56.2227 60.1935 56.2154 60.1935C56.2082 60.1935 56.201 60.1935 56.1938 60.1935C56.1865 60.1935 56.1793 60.1935 56.1721 60.1935C56.1649 60.1935 56.1577 60.1935 56.1504 60.1935C56.1432 60.1935 56.136 60.1935 56.1288 60.1935C56.1215 60.1935 56.1143 60.1935 56.1071 60.1935C56.0999 60.1935 56.0926 60.1935 56.0854 60.1935C56.0782 60.1935 56.071 60.1935 56.0638 60.1935C56.0565 60.1935 56.0493 60.1935 56.0421 60.1935C56.0349 60.1935 56.0276 60.1935 56.0204 60.1935C56.0132 60.1935 56.006 60.1935 55.9987 60.1935C55.9915 60.1935 55.9843 60.1935 55.9771 60.1935C55.9699 60.1935 55.9626 60.1935 55.9554 60.1935C55.9482 60.1935 55.941 60.1935 55.9337 60.1935C55.9265 60.1935 55.9193 60.1935 55.9121 60.1935C55.9048 60.1935 55.8976 60.1935 55.8904 60.1935C55.8832 60.1935 55.8759 60.1935 55.8687 60.1935C55.8615 60.1935 55.8543 60.1935 55.8471 60.1935C55.8398 60.1935 55.8326 60.1935 55.8254 60.1935C55.8182 60.1935 55.8109 60.1935 55.8037 60.1935C55.7965 60.1935 55.7893 60.1935 55.782 60.1935C55.7748 60.1935 55.7676 60.1935 55.7604 60.1935C55.7532 60.1935 55.7459 60.1935 55.7387 60.1935C55.7315 60.1935 55.7243 60.1935 55.717 60.1935C55.7098 60.1935 55.7026 60.1935 55.6954 60.1935C55.6881 60.1935 55.6809 60.1935 55.6737 60.1935C55.6665 60.1935 55.6592 60.1935 55.652 60.1935C55.6448 60.1935 55.6376 60.1935 55.6303 60.1935C55.6231 60.1935 55.6159 60.1935 55.6087 60.1935C55.6015 60.1935 55.5942 60.1935 55.587 60.1935C55.5798 60.1935 55.5726 60.1935 55.5653 60.1935C55.5581 60.1935 55.5509 60.1935 55.5437 60.1935C55.5364 60.1935 55.5292 60.1935 55.522 60.1935C55.5148 60.1935 55.5075 60.1935 55.5003 60.1935C55.4931 60.1935 55.4859 60.1935 55.4786 60.1935C55.4714 60.1935 55.4642 60.1935 55.457 60.1935C55.4498 60.1935 55.4425 60.1935 55.4353 60.1935C55.4281 60.1935 55.4209 60.1935 55.4136 60.1935C55.4064 60.1935 55.3992 60.1935 55.392 60.1935C55.3847 60.1935 55.3775 60.1935 55.3703 60.1935C55.3631 60.1935 55.3558 60.1935 55.3486 60.1935C55.3414 60.1935 55.3342 60.1935 55.3269 60.1935C55.3197 60.1935 55.3125 60.1935 55.3053 60.1935C55.298 60.1935 55.2908 60.1935 55.2836 60.1935C55.2764 60.1935 55.2691 60.1935 55.2619 60.1935C55.2547 60.1935 55.2475 60.1935 55.2402 60.1935C55.233 60.1935 55.2258 60.1935 55.2186 60.1935C55.2114 60.1935 55.2041 60.1935 55.1969 60.1935C55.1897 60.1935 55.1825 60.1935 55.1752 60.1935C55.168 60.1935 55.1608 60.1935 55.1536 60.1935C55.1463 60.1935 55.1391 60.1935 55.1319 60.1935C55.1247 60.1935 55.1174 60.1935 55.1102 60.1935C55.103 60.1935 55.0958 60.1935 55.0885 60.1935C55.0813 60.1935 55.0741 60.1935 55.0669 60.1935C55.0596 60.1935 55.0524 60.1935 55.0452 60.1935C55.038 60.1935 55.0307 60.1935 55.0235 60.1935C55.0163 60.1935 55.0091 60.1935 55.0018 60.1935C54.9946 60.1935 54.9874 60.1935 54.9802 60.1935C54.9729 60.1935 54.9657 60.1935 54.9585 60.1935C54.9513 60.1935 54.944 60.1935 54.9368 60.1935C54.9296 60.1935 54.9224 60.1935 54.9151 60.1935C54.9079 60.1935 54.9007 60.1935 54.8935 60.1935C54.8862 60.1935 54.879 60.1935 54.8718 60.1935C54.8646 60.1935 54.8573 60.1935 54.8501 60.1935C54.8429 60.1935 54.8357 60.1935 54.8284 60.1935C54.8212 60.1935 54.814 60.1935 54.8068 60.1935C54.7995 60.1935 54.7923 60.1935 54.7851 60.1935C54.7779 60.1935 54.7706 60.1935 54.7634 60.1935C54.7562 60.1935 54.749 60.1935 54.7417 60.1935C54.7345 60.1935 54.7273 60.1935 54.72 60.1935C54.7128 60.1935 54.7056 60.1935 54.6984 60.1935C54.6911 60.1935 54.6839 60.1935 54.6767 60.1935C54.6695 60.1935 54.6622 60.1935 54.655 60.1935C54.6478 60.1935 54.6406 60.1935 54.6333 60.1935C54.6261 60.1935 54.6189 60.1935 54.6117 60.1935C54.6044 60.1935 54.5972 60.1935 54.59 60.1935C54.5828 60.1935 54.5755 60.1935 54.5683 60.1935C54.5611 60.1935 54.5539 60.1935 54.5466 60.1935C54.5394 60.1935 54.5322 60.1935 54.525 60.1935C54.5177 60.1935 54.5105 60.1935 54.5033 60.1935C54.496 60.1935 54.4888 60.1935 54.4816 60.1935C54.4744 60.1935 54.4671 60.1935 54.4599 60.1935C54.4527 60.1935 54.4455 60.1935 54.4382 60.1935C54.431 60.1935 54.4238 60.1935 54.4166 60.1935C54.4093 60.1935 54.4021 60.1935 54.3949 60.1935C54.3877 60.1935 54.3804 60.1935 54.3732 60.1935C54.366 60.1935 54.3587 60.1935 54.3515 60.1935C54.3443 60.1935 54.3371 60.1935 54.3298 60.1935C54.3226 60.1935 54.3154 60.1935 54.3082 60.1935C54.3009 60.1935 54.2937 60.1935 54.2865 60.1935C54.2793 60.1935 54.272 60.1935 54.2648 60.1935C54.2576 60.1935 54.2504 60.1935 54.2431 60.1935C54.2359 60.1935 54.2287 60.1935 54.2214 60.1935C54.2142 60.1935 54.207 60.1935 54.1998 60.1935C54.1925 60.1935 54.1853 60.1935 54.1781 60.1935C54.1709 60.1935 54.1636 60.1935 54.1564 60.1935C54.1492 60.1935 54.1419 60.1935 54.1347 60.1935C54.1275 60.1935 54.1203 60.1935 54.113 60.1935C54.1058 60.1935 54.0986 60.1935 54.0914 60.1935C54.0841 60.1935 54.0769 60.1935 54.0697 60.1935C54.0625 60.1935 54.0552 60.1935 54.048 60.1935C54.0408 60.1935 54.0335 60.1935 54.0263 60.1935C54.0191 60.1935 54.0119 60.1935 54.0046 60.1935C53.9974 60.1935 53.9902 60.1935 53.9829 60.1935C53.9757 60.1935 53.9685 60.1935 53.9613 60.1935C53.954 60.1935 53.9468 60.1935 53.9396 60.1935C53.9324 60.1935 53.9251 60.1935 53.9179 60.1935C53.9107 60.1935 53.9034 60.1935 53.8962 60.1935C53.889 60.1935 53.8818 60.1935 53.8745 60.1935C53.8673 60.1935 53.8601 60.1935 53.8529 60.1935C53.8456 60.1935 53.8384 60.1935 53.8312 60.1935C53.8239 60.1935 53.8167 60.1935 53.8095 60.1935C53.8023 60.1935 53.795 60.1935 53.7878 60.1935C53.7806 60.1935 53.7733 60.1935 53.7661 60.1935C53.7589 60.1935 53.7517 60.1935 53.7444 60.1935C53.7372 60.1935 53.73 60.1935 53.7227 60.1935C53.7155 60.1935 53.7083 60.1935 53.7011 60.1935C53.6938 60.1935 53.6866 60.1935 53.6794 60.1935C53.6722 60.1935 53.6649 60.1935 53.6577 60.1935C53.6505 60.1935 53.6432 60.1935 53.636 60.1935C53.6288 60.1935 53.6216 60.1935 53.6143 60.1935C53.6071 60.1935 53.5999 60.1935 53.5926 60.1935C53.5854 60.1935 53.5782 60.1935 53.571 60.1935C53.5637 60.1935 53.5565 60.1935 53.5493 60.1935C53.542 60.1935 53.5348 60.1935 53.5276 60.1935C53.5204 60.1935 53.5131 60.1935 53.5059 60.1935C53.4987 60.1935 53.4914 60.1935 53.4842 60.1935C53.477 60.1935 53.4698 60.1935 53.4625 60.1935C53.4553 60.1935 53.4481 60.1935 53.4408 60.1935C53.4336 60.1935 53.4264 60.1935 53.4191 60.1935C53.4119 60.1935 53.4047 60.1935 53.3975 60.1935C53.3902 60.1935 53.383 60.1935 53.3758 60.1935C53.3685 60.1935 53.3613 60.1935 53.3541 60.1935C53.3469 60.1935 53.3396 60.1935 53.3324 60.1935C53.3252 60.1935 53.3179 60.1935 53.3107 60.1935C53.3035 60.1935 53.2962 60.1935 53.289 60.1935C53.2818 60.1935 53.2746 60.1935 53.2673 60.1935C53.2601 60.1935 53.2529 60.1935 53.2456 60.1935C53.2384 60.1935 53.2312 60.1935 53.224 60.1935C53.2167 60.1935 53.2095 60.1935 53.2023 60.1935C53.195 60.1935 53.1878 60.1935 53.1806 60.1935C53.1733 60.1935 53.1661 60.1935 53.1589 60.1935C53.1517 60.1935 53.1444 60.1935 53.1372 60.1935C53.13 60.1935 53.1227 60.1935 53.1155 60.1935C53.1083 60.1935 53.101 60.1935 53.0938 60.1935C53.0866 60.1935 53.0794 60.1935 53.0721 60.1935C53.0649 60.1935 53.0577 60.1935 53.0504 60.1935C53.0432 60.1935 53.036 60.1935 53.0287 60.1935C53.0215 60.1935 53.0143 60.1935 53.0071 60.1935C52.9998 60.1935 52.9926 60.1935 52.9854 60.1935C52.9781 60.1935 52.9709 60.1935 52.9637 60.1935C52.9564 60.1935 52.9492 60.1935 52.942 60.1935C52.9347 60.1935 52.9275 60.1935 52.9203 60.1935C52.9131 60.1935 52.9058 60.1935 52.8986 60.1935C52.8914 60.1935 52.8841 60.1935 52.8769 60.1935C52.8697 60.1935 52.8624 60.1935 52.8552 60.1935C52.848 60.1935 52.8407 60.1935 52.8335 60.1935C52.8263 60.1935 52.8191 60.1935 52.8118 60.1935C52.8046 60.1935 52.7974 60.1935 52.7901 60.1935C52.7829 60.1935 52.7757 60.1935 52.7684 60.1935C52.7612 60.1935 52.754 60.1935 52.7467 60.1935C52.7395 60.1935 52.7323 60.1935 52.725 60.1935C52.7178 60.1935 52.7106 60.1935 52.7034 60.1935C52.6961 60.1935 52.6889 60.1935 52.6817 60.1935C52.6744 60.1935 52.6672 60.1935 52.66 60.1935C52.6527 60.1935 52.6455 60.1935 52.6383 60.1935C52.631 60.1935 52.6238 60.1935 52.6166 60.1935C52.6093 60.1935 52.6021 60.1935 52.5949 60.1935C52.5876 60.1935 52.5804 60.1935 52.5732 60.1935C52.5659 60.1935 52.5587 60.1935 52.5515 60.1935C52.5443 60.1935 52.537 60.1935 52.5298 60.1935C52.5226 60.1935 52.5153 60.1935 52.5081 60.1935C52.5009 60.1935 52.4936 60.1935 52.4864 60.1935C52.4792 60.1935 52.4719 60.1935 52.4647 60.1935C52.4575 60.1935 52.4502 60.1935 52.443 60.1935C52.4358 60.1935 52.4285 60.1935 52.4213 60.1935C52.4141 60.1935 52.4068 60.1935 52.3996 60.1935C52.3924 60.1935 52.3851 60.1935 52.3779 60.1935C52.3707 60.1935 52.3634 60.1935 52.3562 60.1935C52.349 60.1935 52.3417 60.1935 52.3345 60.1935C52.3273 60.1935 52.32 60.1935 52.3128 60.1935C52.3056 60.1935 52.2983 60.1935 52.2911 60.1935C52.2839 60.1935 52.2766 60.1935 52.2694 60.1935C52.2622 60.1935 52.2549 60.1935 52.2477 60.1935C52.2405 60.1935 52.2332 60.1935 52.226 60.1935C52.2188 60.1935 52.2115 60.1935 52.2043 60.1935C52.1971 60.1935 52.1898 60.1935 52.1826 60.1935C52.1754 60.1935 52.1681 60.1935 52.1609 60.1935C52.1537 60.1935 52.1464 60.1935 52.1392 60.1935C52.132 60.1935 52.1247 60.1935 52.1175 60.1935C52.1103 60.1935 52.103 60.1935 52.0958 60.1935C52.0886 60.1935 52.0813 60.1935 52.0741 60.1935C52.0669 60.1935 52.0596 60.1935 52.0524 60.1935C52.0452 60.1935 52.0379 60.1935 52.0307 60.1935C52.0235 60.1935 52.0162 60.1935 52.009 60.1935C52.0018 60.1935 51.9945 60.1935 51.9873 60.1935C51.9801 60.1935 51.9728 60.1935 51.9656 60.1935C51.9584 60.1935 51.9511 60.1935 51.9439 60.1935C51.9367 60.1935 51.9294 60.1935 51.9222 60.1935C51.915 60.1935 51.9077 60.1935 51.9005 60.1935C51.8933 60.1935 51.886 60.1935 51.8788 60.1935C51.8715 60.1935 51.8643 60.1935 51.8571 60.1935C51.8498 60.1935 51.8426 60.1935 51.8354 60.1935C51.8281 60.1935 51.8209 60.1935 51.8137 60.1935C51.8064 60.1935 51.7992 60.1935 51.792 60.1935C51.7847 60.1935 51.7775 60.1935 51.7703 60.1935C51.763 60.1935 51.7558 60.1935 51.7486 60.1935C51.7413 60.1935 51.7341 60.1935 51.7268 60.1935C51.7196 60.1935 51.7124 60.1935 51.7051 60.1935C51.6979 60.1935 51.6907 60.1935 51.6834 60.1935C51.6762 60.1935 51.669 60.1935 51.6617 60.1935C51.6545 60.1935 51.6473 60.1935 51.64 60.1935C51.6328 60.1935 51.6256 60.1935 51.6183 60.1935C51.6111 60.1935 51.6038 60.1935 51.5966 60.1935C51.5894 60.1935 51.5821 60.1935 51.5749 60.1935C51.5677 60.1935 51.5604 60.1935 51.5532 60.1935C51.546 60.1935 51.5387 60.1935 51.5315 60.1935C51.5242 60.1935 51.517 60.1935 51.5098 60.1935C51.5025 60.1935 51.4953 60.1935 51.4881 60.1935C51.4808 60.1935 51.4736 60.1935 51.4664 60.1935C51.4591 60.1935 51.4519 60.1935 51.4446 60.1935C51.4374 60.1935 51.4302 60.1935 51.4229 60.1935C51.4157 60.1935 51.4085 60.1935 51.4012 60.1935C51.394 60.1935 51.3868 60.1935 51.3795 60.1935C51.3723 60.1935 51.365 60.1935 51.3578 60.1935C51.3506 60.1935 51.3433 60.1935 51.3361 60.1935C51.3289 60.1935 51.3216 60.1935 51.3144 60.1935C51.3071 60.1935 51.2999 60.1935 51.2927 60.1935C51.2854 60.1935 51.2782 60.1935 51.271 60.1935C51.2637 60.1935 51.2565 60.1935 51.2493 60.1935C51.242 60.1935 51.2348 60.1935 51.2275 60.1935C51.2203 60.1935 51.2131 60.1935 51.2058 60.1935C51.1986 60.1935 51.1914 60.1935 51.1841 60.1935C51.1769 60.1935 51.1696 60.1935 51.1624 60.1935C51.1552 60.1935 51.1479 60.1935 51.1407 60.1935C51.1334 60.1935 51.1262 60.1935 51.119 60.1935C51.1117 60.1935 51.1045 60.1935 51.0973 60.1935C51.09 60.1935 51.0828 60.1935 51.0755 60.1935C51.0683 60.1935 51.0611 60.1935 51.0538 60.1935C51.0466 60.1935 51.0394 60.1935 51.0321 60.1935C51.0249 60.1935 51.0176 60.1935 51.0104 60.1935C51.0032 60.1935 50.9959 60.1935 50.9887 60.1935C50.9814 60.1935 50.9742 60.1935 50.967 60.1935C50.9597 60.1935 50.9525 60.1935 50.9453 60.1935C50.938 60.1935 50.9308 60.1935 50.9235 60.1935C50.9163 60.1935 50.9091 60.1935 50.9018 60.1935C50.8946 60.1935 50.8873 60.1935 50.8801 60.1935C50.8729 60.1935 50.8656 60.1935 50.8584 60.1935C50.8511 60.1935 50.8439 60.1935 50.8367 60.1935C50.8294 60.1935 50.8222 60.1935 50.8149 60.1935C50.8077 60.1935 50.8005 60.1935 50.7932 60.1935C50.786 60.1935 50.7788 60.1935 50.7715 60.1935C50.7643 60.1935 50.757 60.1935 50.7498 60.1935C50.7426 60.1935 50.7353 60.1935 50.7281 60.1935C50.7208 60.1935 50.7136 60.1935 50.7064 60.1935C50.6991 60.1935 50.6919 60.1935 50.6846 60.1935C50.6774 60.1935 50.6702 60.1935 50.6629 60.1935C50.6557 60.1935 50.6484 60.1935 50.6412 60.1935C50.634 60.1935 50.6267 60.1935 50.6195 60.1935C50.6122 60.1935 50.605 60.1935 50.5978 60.1935C50.5905 60.1935 50.5833 60.1935 50.576 60.1935C50.5688 60.1935 50.5615 60.1935 50.5543 60.1935C50.5471 60.1935 50.5398 60.1935 50.5326 60.1935C50.5253 60.1935 50.5181 60.1935 50.5109 60.1935C50.5036 60.1935 50.4964 60.1935 50.4891 60.1935C50.4819 60.1935 50.4747 60.1935 50.4674 60.1935C50.4602 60.1935 50.4529 60.1935 50.4457 60.1935C50.4385 60.1935 50.4312 60.1935 50.424 60.1935C50.4167 60.1935 50.4095 60.1935 50.4022 60.1935C50.395 60.1935 50.3878 60.1935 50.3805 60.1935C50.3733 60.1935 50.366 60.1935 50.3588 60.1935C50.3516 60.1935 50.3443 60.1935 50.3371 60.1935C50.3298 60.1935 50.3226 60.1935 50.3153 60.1935C50.3081 60.1935 50.3009 60.1935 50.2936 60.1935C50.2864 60.1935 50.2791 60.1935 50.2719 60.1935C50.2647 60.1935 50.2574 60.1935 50.2502 60.1935C50.2429 60.1935 50.2357 60.1935 50.2284 60.1935C50.2212 60.1935 50.214 60.1935 50.2067 60.1935C50.1995 60.1935 50.1922 60.1935 50.185 60.1935C50.1777 60.1935 50.1705 60.1935 50.1633 60.1935C50.156 60.1935 50.1488 60.1935 50.1415 60.1935C50.1343 60.1935 50.127 60.1935 50.1198 60.1935C50.1126 60.1935 50.1053 60.1935 50.0981 60.1935C50.0908 60.1935 50.0836 60.1935 50.0763 60.1935C50.0691 60.1935 50.0619 60.1935 50.0546 60.1935C50.0474 60.1935 50.0401 60.1935 50.0329 60.1935C50.0256 60.1935 50.0184 60.1935 50.0112 60.1935C50.0039 60.1935 49.9967 60.1935 49.9894 60.1935C49.9822 60.1935 49.9749 60.1935 49.9677 60.1935C49.9604 60.1935 49.9532 60.1935 49.946 60.1935C49.9387 60.1935 49.9315 60.1935 49.9242 60.1935C49.917 60.1935 49.9097 60.1935 49.9025 60.1935C49.8953 60.1935 49.888 60.1935 49.8808 60.1935C49.8735 60.1935 49.8663 60.1935 49.859 60.1935C49.8518 60.1935 49.8445 60.1935 49.8373 60.1935C49.8301 60.1935 49.8228 60.1935 49.8156 60.1935C49.8083 60.1935 49.8011 60.1935 49.7938 60.1935C49.7866 60.1935 49.7793 60.1935 49.7721 60.1935C49.7649 60.1935 49.7576 60.1935 49.7504 60.1935C49.7431 60.1935 49.7359 60.1935 49.7286 60.1935C49.7214 60.1935 49.7141 60.1935 49.7069 60.1935C49.6996 60.1935 49.6924 60.1935 49.6852 60.1935C49.6779 60.1935 49.6707 60.1935 49.6634 60.1935C49.6562 60.1935 49.6489 60.1935 49.6417 60.1935C49.6344 60.1935 49.6272 60.1935 49.62 60.1935C49.6127 60.1935 49.6055 60.1935 49.5982 60.1935C49.591 60.1935 49.5837 60.1935 49.5765 60.1935C49.5692 60.1935 49.562 60.1935 49.5547 60.1935C49.5475 60.1935 49.5402 60.1935 49.533 60.1935C49.5258 60.1935 49.5185 60.1935 49.5113 60.1935C49.504 60.1935 49.4968 60.1935 49.4895 60.1935C49.4823 60.1935 49.475 60.1935 49.4678 60.1935C49.4605 60.1935 49.4533 60.1935 49.446 60.1935C49.4388 60.1935 49.4316 60.1935 49.4243 60.1935C49.4171 60.1935 49.4098 60.1935 49.4026 60.1935C49.3953 60.1935 49.3881 60.1935 49.3808 60.1935C49.3736 60.1935 49.3663 60.1935 49.3591 60.1935C49.3518 60.1935 49.3446 60.1935 49.3373 60.1935C49.3301 60.1935 49.3228 60.1935 49.3156 60.1935C49.3084 60.1935 49.3011 60.1935 49.2939 60.1935C49.2866 60.1935 49.2794 60.1935 49.2721 60.1935C49.2649 60.1935 49.2576 60.1935 49.2504 60.1935C49.2431 60.1935 49.2359 60.1935 49.2286 60.1935C49.2214 60.1935 49.2141 60.1935 49.2069 60.1935C49.1996 60.1935 49.1924 60.1935 49.1851 60.1935C49.1779 60.1935 49.1706 60.1935 49.1634 60.1935C49.1561 60.1935 49.1489 60.1935 49.1417 60.1935C49.1344 60.1935 49.1272 60.1935 49.1199 60.1935C49.1127 60.1935 49.1054 60.1935 49.0982 60.1935C49.0909 60.1935 49.0837 60.1935 49.0764 60.1935C49.0692 60.1935 49.0619 60.1935 49.0547 60.1935C49.0474 60.1935 49.0402 60.1935 49.0329 60.1935C49.0257 60.1935 49.0184 60.1935 49.0112 60.1935C49.0039 60.1935 48.9967 60.1935 48.9894 60.1935C48.9822 60.1935 48.9749 60.1935 48.9677 60.1935C48.9604 60.1935 48.9532 60.1935 48.9459 60.1935C48.9387 60.1935 48.9314 60.1935 48.9242 60.1935C48.9169 60.1935 48.9097 60.1935 48.9024 60.1935C48.8952 60.1935 48.8879 60.1935 48.8807 60.1935C48.8734 60.1935 48.8662 60.1935 48.8589 60.1935C48.8517 60.1935 48.8444 60.1935 48.8372 60.1935C48.8299 60.1935 48.8227 60.1935 48.8154 60.1935C48.8082 60.1935 48.8009 60.1935 48.7937 60.1935C48.7864 60.1935 48.7792 60.1935 48.7719 60.1935C48.7647 60.1935 48.7574 60.1935 48.7502 60.1935C48.7429 60.1935 48.7357 60.1935 48.7284 60.1935C48.7212 60.1935 48.7139 60.1935 48.7067 60.1935C48.6994 60.1935 48.6922 60.1935 48.6849 60.1935C48.6777 60.1935 48.6704 60.1935 48.6632 60.1935C48.6559 60.1935 48.6487 60.1935 48.6414 60.1935C48.6342 60.1935 48.6269 60.1935 48.6197 60.1935C48.6124 60.1935 48.6052 60.1935 48.5979 60.1935C48.5907 60.1935 48.5834 60.1935 48.5762 60.1935C48.5689 60.1935 48.5617 60.1935 48.5544 60.1935C48.5471 60.1935 48.5399 60.1935 48.5326 60.1935C48.5254 60.1935 48.5181 60.1935 48.5109 60.1935C48.5036 60.1935 48.4964 60.1935 48.4891 60.1935C48.4819 60.1935 48.4746 60.1935 48.4674 60.1935C48.4601 60.1935 48.4529 60.1935 48.4456 60.1935C48.4384 60.1935 48.4311 60.1935 48.4239 60.1935C48.4166 60.1935 48.4094 60.1935 48.4021 60.1935C48.3948 60.1935 48.3876 60.1935 48.3803 60.1935C48.3731 60.1935 48.3658 60.1935 48.3586 60.1935C48.3513 60.1935 48.3441 60.1935 48.3368 60.1935C48.3296 60.1935 48.3223 60.1935 48.3151 60.1935C48.3078 60.1935 48.3006 60.1935 48.2933 60.1935C48.286 60.1935 48.2788 60.1935 48.2715 60.1935C48.2643 60.1935 48.257 60.1935 48.2498 60.1935C48.2425 60.1935 48.2353 60.1935 48.228 60.1935C48.2208 60.1935 48.2135 60.1935 48.2063 60.1935C48.199 60.1935 48.1917 60.1935 48.1845 60.1935C48.1772 60.1935 48.17 60.1935 48.1627 60.1935C48.1555 60.1935 48.1482 60.1935 48.141 60.1935C48.1337 60.1935 48.1265 60.1935 48.1192 60.1935C48.112 60.1935 48.1047 60.1935 48.0974 60.1935C48.0902 60.1935 48.0829 60.1935 48.0757 60.1935C48.0684 60.1935 48.0612 60.1935 48.0539 60.1935C48.0467 60.1935 48.0394 60.1935 48.0321 60.1935C48.0249 60.1935 48.0176 60.1935 48.0104 60.1935C48.0031 60.1935 47.9959 60.1935 47.9886 60.1935C47.9814 60.1935 47.9741 60.1935 47.9668 60.1935C47.9596 60.1935 47.9523 60.1935 47.9451 60.1935C47.9378 60.1935 47.9306 60.1935 47.9233 60.1935C47.9161 60.1935 47.9088 60.1935 47.9015 60.1935C47.8943 60.1935 47.887 60.1935 47.8798 60.1935C47.8725 60.1935 47.8653 60.1935 47.858 60.1935C47.8508 60.1935 47.8435 60.1935 47.8362 60.1935C47.829 60.1935 47.8217 60.1935 47.8145 60.1935C47.8072 60.1935 47.8 60.1935 47.7927 60.1935C47.7854 60.1935 47.7782 60.1935 47.7709 60.1935C47.7637 60.1935 47.7564 60.1935 47.7492 60.1935C47.7419 60.1935 47.7346 60.1935 47.7274 60.1935C47.7201 60.1935 47.7129 60.1935 47.7056 60.1935C47.6984 60.1935 47.6911 60.1935 47.6838 60.1935C47.6766 60.1935 47.6693 60.1935 47.6621 60.1935C47.6548 60.1935 47.6476 60.1935 47.6403 60.1935C47.633 60.1935 47.6258 60.1935 47.6185 60.1935C47.6113 60.1935 47.604 60.1935 47.5967 60.1935C47.5895 60.1935 47.5822 60.1935 47.575 60.1935C47.5677 60.1935 47.5605 60.1935 47.5532 60.1935C47.5459 60.1935 47.5387 60.1935 47.5314 60.1935C47.5242 60.1935 47.5169 60.1935 47.5096 60.1935C47.5024 60.1935 47.4951 60.1935 47.4879 60.1935C47.4806 60.1935 47.4734 60.1935 47.4661 60.1935C47.4588 60.1935 47.4516 60.1935 47.4443 60.1935C47.4371 60.1935 47.4298 60.1935 47.4225 60.1935C47.4153 60.1935 47.408 60.1935 47.4008 60.1935C47.3935 60.1935 47.3862 60.1935 47.379 60.1935C47.3717 60.1935 47.3645 60.1935 47.3572 60.1935C47.3499 60.1935 47.3427 60.1935 47.3354 60.1935C47.3282 60.1935 47.3209 60.1935 47.3136 60.1935C47.3064 60.1935 47.2991 60.1935 47.2919 60.1935C47.2846 60.1935 47.2773 60.1935 47.2701 60.1935C47.2628 60.1935 47.2556 60.1935 47.2483 60.1935C47.241 60.1935 47.2338 60.1935 47.2265 60.1935C47.2193 60.1935 47.212 60.1935 47.2047 60.1935C47.1975 60.1935 47.1902 60.1935 47.183 60.1935C47.1757 60.1935 47.1684 60.1935 47.1612 60.1935C47.1539 60.1935 47.1466 60.1935 47.1394 60.1935C47.1321 60.1935 47.1249 60.1935 47.1176 60.1935C47.1103 60.1935 47.1031 60.1935 47.0958 60.1935C47.0886 60.1935 47.0813 60.1935 47.074 60.1935C47.0668 60.1935 47.0595 60.1935 47.0522 60.1935C47.045 60.1935 47.0377 60.1935 47.0305 60.1935C47.0232 60.1935 47.0159 60.1935 47.0087 60.1935C47.0014 60.1935 46.9942 60.1935 46.9869 60.1935C46.9796 60.1935 46.9724 60.1935 46.9651 60.1935C46.9578 60.1935 46.9506 60.1935 46.9433 60.1935C46.9361 60.1935 46.9288 60.1935 46.9215 60.1935C46.9143 60.1935 46.907 60.1935 46.8997 60.1935C46.8925 60.1935 46.8852 60.1935 46.8779 60.1935C46.8707 60.1935 46.8634 60.1935 46.8562 60.1935C46.8489 60.1935 46.8416 60.1935 46.8344 60.1935C46.8271 60.1935 46.8198 60.1935 46.8126 60.1935C46.8053 60.1935 46.7981 60.1935 46.7908 60.1935C46.7835 60.1935 46.7763 60.1935 46.769 60.1935C46.7617 60.1935 46.7545 60.1935 46.7472 60.1935C46.7399 60.1935 46.7327 60.1935 46.7254 60.1935C46.7181 60.1935 46.7109 60.1935 46.7036 60.1935C46.6964 60.1935 46.6891 60.1935 46.6818 60.1935C46.6746 60.1935 46.6673 60.1935 46.66 60.1935C46.6528 60.1935 46.6455 60.1935 46.6382 60.1935C46.631 60.1935 46.6237 60.1935 46.6164 60.1935C46.6092 60.1935 46.6019 60.1935 46.5946 60.1935C46.5874 60.1935 46.5801 60.1935 46.5728 60.1935C46.5656 60.1935 46.5583 60.1935 46.5511 60.1935C46.5438 60.1935 46.5365 60.1935 46.5293 60.1935C46.522 60.1935 46.5147 60.1935 46.5075 60.1935C46.5002 60.1935 46.4929 60.1935 46.4857 60.1935C46.4784 60.1935 46.4711 60.1935 46.4639 60.1935C46.4566 60.1935 46.4493 60.1935 46.4421 60.1935C46.4348 60.1935 46.4275 60.1935 46.4203 60.1935C46.413 60.1935 46.4057 60.1935 46.3985 60.1935C46.3912 60.1935 46.3839 60.1935 46.3767 60.1935C46.3694 60.1935 46.3621 60.1935 46.3549 60.1935C46.3476 60.1935 46.3403 60.1935 46.3331 60.1935C46.3258 60.1935 46.3185 60.1935 46.3113 60.1935C46.304 60.1935 46.2967 60.1935 46.2895 60.1935C46.2822 60.1935 46.2749 60.1935 46.2677 60.1935C46.2604 60.1935 46.2531 60.1935 46.2458 60.1935C46.2386 60.1935 46.2313 60.1935 46.224 60.1935C46.2168 60.1935 46.2095 60.1935 46.2022 60.1935C46.195 60.1935 46.1877 60.1935 46.1804 60.1935C46.1732 60.1935 46.1659 60.1935 46.1586 60.1935C46.1514 60.1935 46.1441 60.1935 46.1368 60.1935C46.1296 60.1935 46.1223 60.1935 46.115 60.1935C46.1077 60.1935 46.1005 60.1935 46.0932 60.1935C46.0859 60.1935 46.0787 60.1935 46.0714 60.1935C46.0641 60.1935 46.0569 60.1935 46.0496 60.1935C46.0423 60.1935 46.0351 60.1935 46.0278 60.1935C46.0205 60.1935 46.0132 60.1935 46.006 60.1935C45.9987 60.1935 45.9914 60.1935 45.9842 60.1935C45.9769 60.1935 45.9696 60.1935 45.9624 60.1935C45.9551 60.1935 45.9478 60.1935 45.9405 60.1935C45.9333 60.1935 45.926 60.1935 45.9187 60.1935C45.9115 60.1935 45.9042 60.1935 45.8969 60.1935C45.8897 60.1935 45.8824 60.1935 45.8751 60.1935C45.8678 60.1935 45.8606 60.1935 45.8533 60.1935C45.846 60.1935 45.8388 60.1935 45.8315 60.1935C45.8242 60.1935 45.8169 60.1935 45.8097 60.1935C45.8024 60.1935 45.7951 60.1935 45.7879 60.1935V62.1935ZM42.0746 64.9942C43.931 64.9823 45.4778 63.4534 45.4523 61.5879L43.4525 61.6152C43.4624 62.3396 42.8392 62.9892 42.0618 62.9942L42.0746 64.9942ZM45.4523 61.5875C45.4262 59.7294 43.9084 58.212 42.0445 58.2216L42.0549 60.2216C42.8028 60.2177 43.4416 60.8367 43.4525 61.6156L45.4523 61.5875ZM42.0445 58.2216C40.1903 58.2312 38.6478 59.77 38.6647 61.6301L40.6646 61.6119C40.6579 60.8753 41.2922 60.2255 42.0548 60.2216L42.0445 58.2216ZM38.6647 61.6299C38.6814 63.4923 40.2117 65.0062 42.0747 64.9942L42.0618 62.9942C41.3062 62.9991 40.6715 62.3766 40.6646 61.612L38.6647 61.6299ZM60.6586 64.9942C62.514 64.9787 64.0619 63.4482 64.0327 61.5834L62.033 61.6147C62.0442 62.3347 61.4221 62.9878 60.642 62.9942L60.6586 64.9942ZM64.0327 61.5831C64.003 59.7263 62.4816 58.2096 60.6194 58.2216L60.6323 60.2216C61.3786 60.2167 62.0205 60.8364 62.033 61.615L64.0327 61.5831ZM60.6194 58.2216C58.7665 58.2335 57.2204 59.7772 57.2434 61.6359L59.2433 61.6111C59.2343 60.8816 59.8684 60.2265 60.6323 60.2216L60.6194 58.2216ZM57.2434 61.6357C57.2661 63.4965 58.7943 65.0098 60.6587 64.9942L60.642 62.9942C59.8894 63.0005 59.2527 62.3809 59.2433 61.6113L57.2434 61.6357ZM45.7879 62.1935H56.9088V60.1935H45.7879V62.1935Z" fill="#0B2D1F" mask="url(#path-3-outside-1_5952_45225)"/>
</svg>
