<svg width="360" height="360" viewBox="0 0 360 360" fill="none" xmlns="http://www.w3.org/2000/svg">
<path d="M13.3336 309.557C13.5103 309.453 13.817 309.38 13.847 309.247C15.957 299.387 22.637 293.007 30.1036 286.913C58.2436 264 86.2003 240.827 114.227 217.75C122.28 228.377 131.724 237.617 142.25 245.773C117.957 275.291 93.667 304.811 69.3803 334.333C64.247 340.577 57.957 344.84 49.8403 346.127C49.587 346.167 49.3736 346.487 49.1403 346.673H39.3736C39.0403 345.91 38.3136 346.087 37.707 345.93C25.247 342.626 17.3648 334.746 14.0603 322.29C13.9036 321.697 14.077 320.957 13.3203 320.623L13.3336 309.557Z" fill="#4809AE"/>
<path d="M346.667 153.307C345.177 156.484 345.427 159.991 344.857 163.334C335.643 217.377 293.58 259.334 239.14 268.667C232.293 269.841 225.407 270.587 218.444 270.361C217.464 263.924 217.92 257.434 217.777 250.967C223.89 250.134 230.067 250.187 236.183 249.167C295.35 239.317 335.977 182.834 325.063 123.501C316.76 78.4473 289.26 49.6673 245.367 36.624C236.367 33.9573 227.034 33.5873 217.757 32.844C217.85 26.3373 217.577 19.8173 218.424 13.334H228.84C232.277 14.6673 235.97 14.524 239.53 15.134C265.293 19.5281 289.111 31.6518 307.823 49.8964C326.536 68.141 339.259 91.6441 344.304 117.287C345.214 121.904 345.204 126.664 346.68 131.174L346.667 153.307Z" fill="#6610F2"/>
<path d="M217.763 250.954C217.92 257.421 217.463 263.911 218.43 270.347C196.203 270.537 175.393 265.104 155.993 254.347C151.277 251.731 146.817 248.651 142.237 245.781C131.71 237.624 122.267 228.384 114.213 217.757C105.08 204.704 98.2134 190.621 93.9034 175.211C80.5934 127.484 98.0034 73.474 136.723 42.4207C154.883 27.8573 175.333 18.644 198.24 14.8207C201.063 14.334 204 14.5873 206.693 13.334H218.41C217.577 19.8173 217.85 26.334 217.743 32.844C217.752 33.0371 217.771 33.2295 217.8 33.4207C217.514 33.2826 217.208 33.1883 216.893 33.1406C203.112 33.3416 189.49 36.11 176.723 41.304C129.057 60.6373 100.92 112.637 111.433 162.797C119.227 199.977 140.907 226.304 175.46 241.847C188.817 247.847 202.957 250.931 217.737 250.371C217.757 250.564 217.76 250.761 217.763 250.954Z" fill="#6610F2"/>
<path d="M217.764 250.953C217.764 250.759 217.764 250.563 217.764 250.369C219.037 242.329 218.124 234.226 218.457 226.156C226.65 225.573 234.82 224.859 242.694 222.283C251.767 219.313 260.417 215.513 267.804 209.283C278.867 202.036 286.677 191.909 292.704 180.393C299.63 167.149 302.614 153.029 301.88 137.983C301.376 126.306 298.434 114.864 293.244 104.393C288.018 93.7781 280.541 84.43 271.334 76.9994C257.504 65.7794 241.834 59.2294 223.967 58.306C222.007 58.206 220.164 58.0827 218.47 57.046C218.107 49.1794 218.927 41.2794 217.804 33.436C217.775 33.2449 217.756 33.0525 217.747 32.8594C227.02 33.6027 236.354 33.9627 245.357 36.6394C289.26 49.666 316.76 78.446 325.05 123.499C335.964 182.833 295.337 239.303 236.17 249.166C230.054 250.173 223.877 250.119 217.764 250.953Z" fill="#EAE2F8"/>
<path d="M217.814 33.4206C218.94 41.264 218.12 49.164 218.48 57.0306L218.3 58.194C214.21 58.5273 210.13 58.1573 206.004 58.8006C184.93 62.0806 167.56 71.7606 153.77 88.024C138.214 106.374 132.39 127.787 134.594 151.334C135.974 166.077 141.447 179.641 150.387 191.594C155.507 198.441 161.144 204.831 168.59 209.327C175.027 214.994 182.634 218.601 190.65 221.271C199.65 224.271 208.83 226.624 218.487 225.831C218.487 225.947 218.464 226.061 218.444 226.164C218.11 234.234 219.024 242.337 217.75 250.377C202.97 250.937 188.83 247.861 175.474 241.854C140.92 226.311 119.24 199.984 111.447 162.804C100.934 112.651 129.08 60.6373 176.737 41.3106C189.503 36.1144 203.126 33.3437 216.907 33.1406C217.221 33.1882 217.527 33.2826 217.814 33.4206Z" fill="#EAE2F8"/>
<path d="M218.3 58.1926L218.48 57.0293C220.176 58.066 222.02 58.1893 223.98 58.2893C241.846 59.2126 257.516 65.7626 271.346 76.9826C280.545 84.419 288.013 93.7703 293.23 104.386C298.42 114.858 301.362 126.299 301.866 137.976C302.6 153.023 299.616 167.143 292.69 180.386C286.663 191.903 278.853 202.029 267.79 209.276C267.5 205.609 267.456 201.909 266.873 198.299C264.506 183.836 256.82 172.756 244.873 164.479C245.048 163.97 245.271 163.479 245.54 163.013C250.946 155.309 253.6 146.956 252.336 137.416C251.156 128.503 247.066 121.296 240.39 115.493C234.11 110.036 226.596 107.633 218.39 107.099L218.3 58.1926Z" fill="#C5A7F7"/>
<path d="M244.884 164.48C256.82 172.757 264.507 183.837 266.884 198.3C267.474 201.91 267.51 205.634 267.8 209.277C260.414 215.514 251.764 219.314 242.69 222.277C234.817 224.854 226.647 225.567 218.453 226.15C218.473 226.037 218.487 225.924 218.497 225.817C218.47 209.464 218.441 193.112 218.41 176.76C226.297 176.124 233.527 173.817 239.84 168.834C241.584 167.444 242.737 165.38 244.884 164.48Z" fill="#4809AE"/>
<path d="M218.3 58.1934C218.337 74.4956 218.372 90.7978 218.403 107.1L218.43 107.2C213.894 107.246 209.406 108.132 205.193 109.813C197.572 112.913 191.3 118.619 187.496 125.913C183.693 133.208 182.605 141.617 184.426 149.64C185.673 155.163 188.69 159.737 191.283 164.57C182.283 170.697 175.65 178.72 171.713 188.937C169.18 195.513 168.713 202.38 168.59 209.31C161.143 204.813 155.506 198.423 150.386 191.577C141.446 179.623 135.973 166.06 134.593 151.317C132.39 127.787 138.213 106.373 153.77 88.0234C167.56 71.76 184.93 62.08 206.003 58.8C210.13 58.1567 214.21 58.5134 218.3 58.1934Z" fill="#C5A7F7"/>
<path d="M168.59 209.31C168.72 202.38 169.18 195.514 171.713 188.937C175.65 178.72 182.273 170.697 191.28 164.57C192.947 164.617 193.537 166.13 194.52 167.047C201.055 173.158 208.784 176.284 217.707 176.424L218.4 176.757C218.429 193.11 218.458 209.463 218.487 225.814C208.82 226.607 199.65 224.254 190.65 221.254C182.633 218.584 175.027 214.98 168.59 209.31Z" fill="#4809AE"/>
<path d="M218.4 176.756L217.707 176.422C218.454 174.916 218.41 173.306 218.41 171.679C218.41 150.186 218.417 128.691 218.43 107.196L218.404 107.096C226.6 107.629 234.114 110.032 240.404 115.489C247.07 121.292 251.17 128.489 252.35 137.412C253.614 146.952 250.96 155.306 245.554 163.009C245.285 163.476 245.062 163.967 244.887 164.476C242.737 165.376 241.584 167.439 239.83 168.826C233.517 173.812 226.287 176.119 218.4 176.756Z" fill="#EAE2F8"/>
<path d="M218.43 107.199C218.43 128.693 218.423 150.187 218.41 171.683C218.41 173.309 218.453 174.919 217.707 176.426C208.773 176.273 201.045 173.146 194.52 167.046C193.537 166.129 192.95 164.616 191.28 164.569C188.69 159.736 185.673 155.163 184.427 149.639C182.605 141.616 183.693 133.207 187.497 125.913C191.301 118.618 197.573 112.912 205.193 109.813C209.406 108.131 213.894 107.245 218.43 107.199Z" fill="#EAE2F8"/>
</svg>
