<svg width="36" height="36" viewBox="0 0 36 36" fill="none" xmlns="http://www.w3.org/2000/svg">
<path d="M23.465 27.9229C22.3614 27.4428 21.4816 26.555 21.0057 25.4414C20.7686 24.8756 20.6465 24.2675 20.6465 23.6532C20.6465 23.0389 20.7686 22.4308 21.0057 21.865C21.2408 21.3133 21.5774 20.8117 21.9977 20.3867C22.4175 19.9612 22.9142 19.6207 23.461 19.3838C24.0221 19.1444 24.6251 19.021 25.2343 19.021C25.8435 19.021 26.4464 19.1444 27.0075 19.3838C28.1124 19.8626 28.9934 20.7506 29.4691 21.865C29.7064 22.4307 29.8286 23.0388 29.8286 23.6532C29.8286 24.2675 29.7064 24.8756 29.4691 25.4414C28.993 26.5552 28.1127 27.443 27.0087 27.9229C26.4479 28.1623 25.8453 28.2857 25.2364 28.2857C24.6276 28.2857 24.0249 28.1623 23.4642 27.9229H23.465ZM26.7685 27.3169C27.2373 27.1159 27.6635 26.8261 28.0241 26.4631C28.3851 26.1011 28.6726 25.6714 28.8706 25.1982C29.2749 24.2082 29.274 23.097 28.8683 22.1076C28.6689 21.6345 28.3816 21.2043 28.0218 20.8403C27.6567 20.47 27.2226 20.1761 26.7446 19.9755C26.2665 19.775 25.7539 19.6717 25.2361 19.6717C24.7184 19.6717 24.2058 19.775 23.7277 19.9755C23.2496 20.1761 22.8156 20.47 22.4504 20.8403C22.0922 21.2046 21.8065 21.6347 21.6089 22.1076C21.2053 23.0972 21.2053 24.2077 21.6089 25.1973C22.009 26.1515 22.7611 26.9113 23.7064 27.3161C24.1917 27.5191 24.712 27.6235 25.2374 27.6235C25.7629 27.6235 26.2831 27.5191 26.7685 27.3161V27.3169ZM22.2206 23.9585C22.1803 23.9187 22.1482 23.8713 22.1263 23.8188C22.1045 23.7664 22.0932 23.7101 22.0932 23.6532C22.0932 23.5963 22.1045 23.54 22.1263 23.4876C22.1482 23.4351 22.1803 23.3876 22.2206 23.3479C22.2597 23.3075 22.3064 23.2756 22.3581 23.2539C22.4097 23.2322 22.4651 23.2212 22.521 23.2217C22.5776 23.2209 22.6338 23.2317 22.6862 23.2534C22.7385 23.2751 22.786 23.3072 22.8258 23.3479C22.8661 23.3876 22.8981 23.4351 22.92 23.4876C22.9419 23.54 22.9532 23.5963 22.9532 23.6532C22.9532 23.7101 22.9419 23.7664 22.92 23.8188C22.8981 23.8713 22.8661 23.9187 22.8258 23.9585C22.786 23.9992 22.7386 24.0314 22.6862 24.0531C22.6338 24.0748 22.5776 24.0855 22.521 24.0847C22.4651 24.0852 22.4097 24.0743 22.358 24.0526C22.3064 24.0309 22.2596 23.9989 22.2206 23.9585ZM23.0203 22.0419C22.9605 21.9815 22.9197 21.9046 22.9033 21.8208C22.8868 21.7371 22.8952 21.6503 22.9276 21.5714C22.96 21.4926 23.0148 21.4252 23.0852 21.3777C23.1555 21.3303 23.2383 21.305 23.3229 21.305C23.4075 21.305 23.4902 21.3303 23.5605 21.3777C23.6309 21.4252 23.6857 21.4926 23.7181 21.5714C23.7505 21.6503 23.759 21.7371 23.7425 21.8208C23.726 21.9046 23.6853 21.9815 23.6254 22.0419C23.586 22.0826 23.539 22.1149 23.487 22.137C23.4351 22.1591 23.3792 22.1704 23.3229 22.1704C23.2665 22.1704 23.2107 22.1591 23.1587 22.137C23.1067 22.1149 23.0597 22.0826 23.0203 22.0419V22.0419ZM23.0272 25.8754C22.9596 25.8052 22.9181 25.7135 22.9098 25.616C22.9015 25.5184 22.927 25.421 22.9818 25.3402C23.0366 25.2594 23.1175 25.2002 23.2106 25.1727C23.3037 25.1452 23.4034 25.1511 23.4927 25.1893C23.5821 25.2275 23.6556 25.2958 23.7007 25.3825C23.7459 25.4691 23.7599 25.5689 23.7405 25.6648C23.721 25.7607 23.6693 25.8469 23.594 25.9087C23.5188 25.9706 23.4246 26.0042 23.3276 26.004C23.2713 26.0045 23.2155 25.9934 23.1636 25.9713C23.1117 25.9492 23.0649 25.9165 23.026 25.8754H23.0272ZM24.3471 23.9174C24.3226 23.781 24.3417 23.6403 24.4016 23.5155C24.4677 23.3774 24.568 23.2588 24.6928 23.1713L27.25 21.3441C27.3197 21.2952 27.3848 21.2804 27.4457 21.3004C27.4744 21.3091 27.5006 21.3247 27.522 21.3459C27.5434 21.3671 27.5593 21.3932 27.5685 21.422C27.5897 21.4834 27.5745 21.5492 27.5229 21.6194L25.6664 24.1583C25.5805 24.2836 25.4637 24.3841 25.3275 24.4498C25.2043 24.5088 25.0663 24.529 24.9316 24.5077C24.7977 24.4865 24.6726 24.4177 24.5562 24.3013C24.4399 24.1814 24.3697 24.0535 24.3456 23.9174H24.3471ZM24.9316 21.2156C24.8716 21.1552 24.8308 21.0782 24.8143 20.9944C24.7977 20.9106 24.8062 20.8237 24.8386 20.7448C24.871 20.6658 24.9258 20.5983 24.9962 20.5508C25.0667 20.5034 25.1494 20.478 25.2341 20.478C25.3188 20.478 25.4016 20.5034 25.472 20.5508C25.5424 20.5983 25.5973 20.6658 25.6297 20.7448C25.6621 20.8237 25.6705 20.9106 25.654 20.9944C25.6374 21.0782 25.5966 21.1552 25.5367 21.2156C25.4973 21.2563 25.4502 21.2886 25.3983 21.3107C25.3463 21.3328 25.2905 21.3441 25.2341 21.3441C25.1777 21.3441 25.1219 21.3328 25.07 21.3107C25.018 21.2886 24.971 21.2563 24.9316 21.2156ZM26.8405 25.8754C26.7909 25.8253 26.7543 25.7637 26.734 25.6959C26.7137 25.6282 26.7102 25.5564 26.724 25.487C26.7377 25.4176 26.7682 25.3527 26.8128 25.298C26.8573 25.2433 26.9146 25.2006 26.9794 25.1736C27.0443 25.1466 27.1147 25.1361 27.1846 25.1432C27.2544 25.1502 27.3214 25.1745 27.3796 25.214C27.4379 25.2534 27.4856 25.3067 27.5186 25.3693C27.5515 25.4318 27.5686 25.5015 27.5685 25.5723C27.5689 25.6287 27.5581 25.6846 27.5366 25.7367C27.5151 25.7888 27.4834 25.836 27.4434 25.8754C27.4042 25.916 27.3574 25.9483 27.3056 25.9704C27.2539 25.9924 27.1983 26.0038 27.1421 26.0038C27.0859 26.0038 27.0303 25.9924 26.9786 25.9704C26.9268 25.9483 26.88 25.916 26.8408 25.8754H26.8405ZM27.6439 23.9585C27.5738 23.8879 27.53 23.7948 27.5202 23.6953C27.5104 23.5958 27.5351 23.4959 27.5901 23.4127C27.645 23.3295 27.7269 23.2681 27.8218 23.2389C27.9166 23.2098 28.0185 23.2148 28.1101 23.253C28.2017 23.2912 28.2774 23.3603 28.3242 23.4484C28.3709 23.5366 28.386 23.6384 28.3667 23.7365C28.3474 23.8347 28.295 23.923 28.2184 23.9865C28.1418 24.05 28.0458 24.0847 27.9467 24.0847C27.89 24.086 27.8337 24.0754 27.7812 24.0537C27.7288 24.032 27.6814 23.9996 27.6419 23.9585H27.6439Z" fill="black"/>
<path d="M13.1367 20.7468H14.9501C15.2229 20.7468 15.4408 20.6677 15.6037 20.5094C15.7667 20.3512 15.8481 20.1371 15.8479 19.8673V9.10808C15.8479 8.83786 15.7665 8.62381 15.6037 8.46592C15.4409 8.30804 15.2231 8.2289 14.9501 8.22852H13.1367C12.8635 8.22852 12.6455 8.30765 12.4828 8.46592C12.32 8.62419 12.2387 8.83825 12.2389 9.10808V19.8658C12.2389 20.136 12.3202 20.3501 12.4828 20.508C12.6454 20.6659 12.8633 20.7455 13.1367 20.7468ZM17.7136 20.7468H19.5442C19.812 20.7468 20.027 20.6677 20.1892 20.5094C20.3514 20.3512 20.4328 20.1371 20.4334 19.8673V11.131C20.4334 10.8553 20.352 10.6384 20.1892 10.4801C20.0264 10.3219 19.8114 10.2427 19.5442 10.2427H17.7136C17.4458 10.2427 17.2306 10.3219 17.0682 10.4801C16.9058 10.6384 16.8245 10.8553 16.8243 11.131V19.8658C16.8243 20.136 16.9056 20.3501 17.0682 20.508C17.2308 20.6659 17.4459 20.7455 17.7136 20.7468V20.7468ZM25.0189 18.1006V14.6495C25.0189 14.3793 24.9375 14.1638 24.7747 14.003C24.6119 13.8422 24.3969 13.7616 24.1297 13.761H22.3077C22.0345 13.761 21.818 13.8417 21.6583 14.003C21.4986 14.1644 21.4186 14.3799 21.4184 14.6495V19.6501C22.389 18.7044 23.6707 18.1523 25.0189 18.0992V18.1006ZM19.7278 23.6533C19.7275 23.1185 19.8039 22.5864 19.9548 22.0737H7.65337C7.52709 22.0712 7.40158 22.094 7.2841 22.1408C7.16663 22.1876 7.05953 22.2575 6.96904 22.3464C6.78004 22.5279 6.68555 22.7565 6.68555 23.0323C6.68555 23.3139 6.78004 23.5441 6.96904 23.7228C7.15311 23.8999 7.3991 23.9964 7.65337 23.9912H19.7382C19.7316 23.8795 19.7278 23.7668 19.7278 23.6533ZM8.55119 20.7468H10.366C10.6339 20.7468 10.8489 20.6677 11.0111 20.5094C11.1733 20.3512 11.2547 20.1371 11.2553 19.8673V12.9078C11.2553 12.6375 11.1739 12.422 11.0111 12.2613C10.8483 12.1005 10.6333 12.0199 10.366 12.0195H8.55262C8.27373 12.0195 8.05432 12.1001 7.8944 12.2613C7.73448 12.4224 7.65462 12.6379 7.65481 12.9078V19.8658C7.65481 20.136 7.73467 20.3501 7.8944 20.508C8.05413 20.6659 8.27306 20.7455 8.55119 20.7468Z" fill="black"/>
<path d="M13.1369 20.0522C13.0493 20.0522 12.9902 20.0377 12.9613 20.0096C12.9389 19.9876 12.9277 19.9403 12.9277 19.8675V9.1083C12.9277 9.03592 12.9389 8.98815 12.961 8.96643C12.9897 8.93748 13.0493 8.92358 13.1369 8.92358H14.9503C15.0364 8.92358 15.0969 8.93806 15.1262 8.96643C15.1483 8.98815 15.1595 9.03592 15.1595 9.1083V19.866C15.1595 19.9384 15.1483 19.9865 15.1259 20.0082C15.0972 20.0371 15.0375 20.0508 14.9503 20.0508L13.1369 20.0522ZM19.5444 20.0522C19.6675 20.0522 19.7008 20.0198 19.7114 20.0096C19.7338 19.9879 19.7449 19.9399 19.7449 19.8675V11.1312C19.7449 11.0872 19.7406 11.0087 19.7117 10.9806C19.7008 10.9699 19.6675 10.9378 19.5444 10.9378H17.7137C17.5906 10.9378 17.5576 10.9699 17.5465 10.9806C17.5178 11.0096 17.5132 11.0872 17.5132 11.1312V19.866C17.5132 19.9386 17.5244 19.986 17.5467 20.0082C17.5576 20.0186 17.5906 20.0508 17.7137 20.0508L19.5444 20.0522ZM22.1073 18.2572C22.7911 17.8521 23.546 17.5838 24.3304 17.4668V14.6497C24.3304 14.5365 24.3017 14.509 24.2926 14.4992C24.2834 14.4893 24.2492 14.456 24.1299 14.456H22.3078C22.2504 14.456 22.1767 14.463 22.1454 14.4946C22.136 14.5041 22.1073 14.5331 22.1073 14.6497V18.2572ZM10.3662 20.0522C10.489 20.0522 10.5223 20.0198 10.5329 20.0094C10.5553 19.9879 10.5668 19.9399 10.5668 19.8675V12.908C10.5668 12.7951 10.5381 12.7676 10.5289 12.7574C10.5197 12.7473 10.4856 12.7146 10.3662 12.7146H8.55281C8.51264 12.7146 8.41594 12.7183 8.38065 12.7528C8.37118 12.7623 8.34277 12.7913 8.34277 12.908V19.866C8.34277 19.9176 8.34851 19.9847 8.37634 20.0108C8.40418 20.0369 8.46616 20.0493 8.55195 20.0493L10.3662 20.0522Z" fill="#FFA600"/>
</svg>
