<svg width="72" height="72" viewBox="0 0 72 72" fill="none" xmlns="http://www.w3.org/2000/svg">
<g id="competencies">
<g id="Group 1171275592">
<g id="Group">
<g id="Vector">
<mask id="path-1-outside-1_6486_46602" maskUnits="userSpaceOnUse" x="3" y="45.0322" width="15" height="13" fill="black">
<rect fill="white" x="3" y="45.0322" width="15" height="13"/>
<path fill-rule="evenodd" clip-rule="evenodd" d="M5.87621 46.0343C4.84732 46.0343 4 46.8844 4 47.9105V55.6464C4 56.6726 4.84732 57.5199 5.87621 57.5199H13.6782C14.7043 57.5199 15.5544 56.6726 15.5544 55.6464V49.4511L16.465 48.5708C16.9657 48.1031 16.5778 47.2723 15.8983 47.3575C15.7414 47.374 15.5956 47.4483 15.4856 47.5611L10.2504 52.6313L7.97526 50.436C7.70015 50.1471 7.23798 50.1471 6.96012 50.436C6.68502 50.7193 6.69877 51.1815 6.99864 51.4483L9.75793 54.1169C10.0303 54.381 10.4705 54.381 10.7401 54.1169L14.1431 50.8211V55.6464C14.1431 55.9188 13.9505 56.1169 13.6782 56.1169H5.87621C5.60386 56.1169 5.40578 55.9188 5.40578 55.6464V47.9105C5.40578 47.6381 5.60386 47.4401 5.87621 47.4401H12.0991C13.1032 47.5088 13.1032 45.9683 12.0991 46.0343H5.87621Z"/>
</mask>
<path fill-rule="evenodd" clip-rule="evenodd" d="M5.87621 46.0343C4.84732 46.0343 4 46.8844 4 47.9105V55.6464C4 56.6726 4.84732 57.5199 5.87621 57.5199H13.6782C14.7043 57.5199 15.5544 56.6726 15.5544 55.6464V49.4511L16.465 48.5708C16.9657 48.1031 16.5778 47.2723 15.8983 47.3575C15.7414 47.374 15.5956 47.4483 15.4856 47.5611L10.2504 52.6313L7.97526 50.436C7.70015 50.1471 7.23798 50.1471 6.96012 50.436C6.68502 50.7193 6.69877 51.1815 6.99864 51.4483L9.75793 54.1169C10.0303 54.381 10.4705 54.381 10.7401 54.1169L14.1431 50.8211V55.6464C14.1431 55.9188 13.9505 56.1169 13.6782 56.1169H5.87621C5.60386 56.1169 5.40578 55.9188 5.40578 55.6464V47.9105C5.40578 47.6381 5.60386 47.4401 5.87621 47.4401H12.0991C13.1032 47.5088 13.1032 45.9683 12.0991 46.0343H5.87621Z" fill="#0D313B"/>
<path fill-rule="evenodd" clip-rule="evenodd" d="M5.87621 46.0343C4.84732 46.0343 4 46.8844 4 47.9105V55.6464C4 56.6726 4.84732 57.5199 5.87621 57.5199H13.6782C14.7043 57.5199 15.5544 56.6726 15.5544 55.6464V49.4511L16.465 48.5708C16.9657 48.1031 16.5778 47.2723 15.8983 47.3575C15.7414 47.374 15.5956 47.4483 15.4856 47.5611L10.2504 52.6313L7.97526 50.436C7.70015 50.1471 7.23798 50.1471 6.96012 50.436C6.68502 50.7193 6.69877 51.1815 6.99864 51.4483L9.75793 54.1169C10.0303 54.381 10.4705 54.381 10.7401 54.1169L14.1431 50.8211V55.6464C14.1431 55.9188 13.9505 56.1169 13.6782 56.1169H5.87621C5.60386 56.1169 5.40578 55.9188 5.40578 55.6464V47.9105C5.40578 47.6381 5.60386 47.4401 5.87621 47.4401H12.0991C13.1032 47.5088 13.1032 45.9683 12.0991 46.0343H5.87621Z" stroke="#0D313B" mask="url(#path-1-outside-1_6486_46602)"/>
</g>
</g>
<g id="Group_2">
<g id="Vector_2">
<mask id="path-2-outside-2_6486_46602" maskUnits="userSpaceOnUse" x="3" y="10.3938" width="15" height="13" fill="black">
<rect fill="white" x="3" y="10.3938" width="15" height="13"/>
<path fill-rule="evenodd" clip-rule="evenodd" d="M5.87621 11.396C4.84732 11.396 4 12.2406 4 13.2723V21.0054C4 22.0316 4.84732 22.8789 5.87621 22.8789H13.6782C14.7043 22.8789 15.5544 22.0316 15.5544 21.0054V14.8101L16.465 13.9297C16.9657 13.4648 16.5778 12.634 15.8983 12.7138C15.7414 12.7358 15.5956 12.8101 15.4856 12.9229L10.2504 17.993L7.97526 15.7922C7.70015 15.5061 7.23798 15.5061 6.96012 15.7922C6.68502 16.0811 6.69877 16.5405 6.99864 16.8073L9.75793 19.4759C10.0303 19.7427 10.4705 19.7427 10.7401 19.4759L14.1431 16.1801V21.0054C14.1431 21.2778 13.9505 21.4759 13.6782 21.4759H5.87621C5.60386 21.4759 5.40578 21.2778 5.40578 21.0054V13.2695C5.40578 12.9999 5.60386 12.7991 5.87621 12.7991H12.0991C13.1032 12.8651 13.1032 11.3273 12.0991 11.396H5.87621Z"/>
</mask>
<path fill-rule="evenodd" clip-rule="evenodd" d="M5.87621 11.396C4.84732 11.396 4 12.2406 4 13.2723V21.0054C4 22.0316 4.84732 22.8789 5.87621 22.8789H13.6782C14.7043 22.8789 15.5544 22.0316 15.5544 21.0054V14.8101L16.465 13.9297C16.9657 13.4648 16.5778 12.634 15.8983 12.7138C15.7414 12.7358 15.5956 12.8101 15.4856 12.9229L10.2504 17.993L7.97526 15.7922C7.70015 15.5061 7.23798 15.5061 6.96012 15.7922C6.68502 16.0811 6.69877 16.5405 6.99864 16.8073L9.75793 19.4759C10.0303 19.7427 10.4705 19.7427 10.7401 19.4759L14.1431 16.1801V21.0054C14.1431 21.2778 13.9505 21.4759 13.6782 21.4759H5.87621C5.60386 21.4759 5.40578 21.2778 5.40578 21.0054V13.2695C5.40578 12.9999 5.60386 12.7991 5.87621 12.7991H12.0991C13.1032 12.8651 13.1032 11.3273 12.0991 11.396H5.87621Z" fill="#0D313B"/>
<path fill-rule="evenodd" clip-rule="evenodd" d="M5.87621 11.396C4.84732 11.396 4 12.2406 4 13.2723V21.0054C4 22.0316 4.84732 22.8789 5.87621 22.8789H13.6782C14.7043 22.8789 15.5544 22.0316 15.5544 21.0054V14.8101L16.465 13.9297C16.9657 13.4648 16.5778 12.634 15.8983 12.7138C15.7414 12.7358 15.5956 12.8101 15.4856 12.9229L10.2504 17.993L7.97526 15.7922C7.70015 15.5061 7.23798 15.5061 6.96012 15.7922C6.68502 16.0811 6.69877 16.5405 6.99864 16.8073L9.75793 19.4759C10.0303 19.7427 10.4705 19.7427 10.7401 19.4759L14.1431 16.1801V21.0054C14.1431 21.2778 13.9505 21.4759 13.6782 21.4759H5.87621C5.60386 21.4759 5.40578 21.2778 5.40578 21.0054V13.2695C5.40578 12.9999 5.60386 12.7991 5.87621 12.7991H12.0991C13.1032 12.8651 13.1032 11.3273 12.0991 11.396H5.87621Z" stroke="#0D313B" mask="url(#path-2-outside-2_6486_46602)"/>
</g>
</g>
<g id="Group_3">
<g id="Vector_3">
<mask id="path-3-outside-3_6486_46602" maskUnits="userSpaceOnUse" x="3" y="27.7119" width="15" height="13" fill="black">
<rect fill="white" x="3" y="27.7119" width="15" height="13"/>
<path fill-rule="evenodd" clip-rule="evenodd" d="M5.87621 28.714C4.84732 28.714 4 29.5613 4 30.5902V38.3261C4 39.3523 4.84732 40.1996 5.87621 40.1996H13.6782C14.7043 40.1996 15.5544 39.3523 15.5544 38.3261V32.1308L16.465 31.2504C16.9657 30.7828 16.5778 29.9519 15.8983 30.0372C15.7414 30.0537 15.5956 30.128 15.4856 30.2408L10.2504 35.311L7.97526 33.1156C7.70015 32.824 7.23798 32.824 6.96012 33.1129C6.68502 33.4018 6.69877 33.8612 6.99864 34.128L9.75793 36.7965C10.0303 37.0606 10.4705 37.0606 10.7401 36.7965L14.1431 33.498V38.3261C14.1431 38.5985 13.9505 38.7938 13.6782 38.7938H5.87621C5.60386 38.7938 5.40578 38.5985 5.40578 38.3261V30.5902C5.40578 30.3178 5.60386 30.1225 5.87621 30.1225H12.0991C13.1032 30.1885 13.1032 28.648 12.0991 28.714H5.87621Z"/>
</mask>
<path fill-rule="evenodd" clip-rule="evenodd" d="M5.87621 28.714C4.84732 28.714 4 29.5613 4 30.5902V38.3261C4 39.3523 4.84732 40.1996 5.87621 40.1996H13.6782C14.7043 40.1996 15.5544 39.3523 15.5544 38.3261V32.1308L16.465 31.2504C16.9657 30.7828 16.5778 29.9519 15.8983 30.0372C15.7414 30.0537 15.5956 30.128 15.4856 30.2408L10.2504 35.311L7.97526 33.1156C7.70015 32.824 7.23798 32.824 6.96012 33.1129C6.68502 33.4018 6.69877 33.8612 6.99864 34.128L9.75793 36.7965C10.0303 37.0606 10.4705 37.0606 10.7401 36.7965L14.1431 33.498V38.3261C14.1431 38.5985 13.9505 38.7938 13.6782 38.7938H5.87621C5.60386 38.7938 5.40578 38.5985 5.40578 38.3261V30.5902C5.40578 30.3178 5.60386 30.1225 5.87621 30.1225H12.0991C13.1032 30.1885 13.1032 28.648 12.0991 28.714H5.87621Z" fill="#0D313B"/>
<path fill-rule="evenodd" clip-rule="evenodd" d="M5.87621 28.714C4.84732 28.714 4 29.5613 4 30.5902V38.3261C4 39.3523 4.84732 40.1996 5.87621 40.1996H13.6782C14.7043 40.1996 15.5544 39.3523 15.5544 38.3261V32.1308L16.465 31.2504C16.9657 30.7828 16.5778 29.9519 15.8983 30.0372C15.7414 30.0537 15.5956 30.128 15.4856 30.2408L10.2504 35.311L7.97526 33.1156C7.70015 32.824 7.23798 32.824 6.96012 33.1129C6.68502 33.4018 6.69877 33.8612 6.99864 34.128L9.75793 36.7965C10.0303 37.0606 10.4705 37.0606 10.7401 36.7965L14.1431 33.498V38.3261C14.1431 38.5985 13.9505 38.7938 13.6782 38.7938H5.87621C5.60386 38.7938 5.40578 38.5985 5.40578 38.3261V30.5902C5.40578 30.3178 5.60386 30.1225 5.87621 30.1225H12.0991C13.1032 30.1885 13.1032 28.648 12.0991 28.714H5.87621Z" stroke="#0D313B" mask="url(#path-3-outside-3_6486_46602)"/>
</g>
</g>
<g id="Group 1171275364">
<g id="person.3">
<path d="M44.6931 35.8982C51.1099 35.8982 56.307 30.2504 56.307 23.3033C56.307 16.4622 51.1364 11 44.6931 11C38.3294 11 33.0793 16.5418 33.0793 23.3563C33.1058 30.2769 38.2764 35.8982 44.6931 35.8982ZM44.6931 31.258C41.034 31.258 37.9317 27.8109 37.9317 23.3298C37.9317 19.0077 41.0075 15.6402 44.6931 15.6402C48.4053 15.6402 51.4546 18.9547 51.4546 23.3033C51.4546 27.7579 48.3788 31.258 44.6931 31.258ZM28.1739 60.8759H61.2124C65.7996 60.8759 68.0004 59.4176 68.0004 56.2887C68.0004 48.9969 58.9055 39.2922 44.6931 39.2922C30.4808 39.2922 21.3594 48.9969 21.3594 56.2887C21.3594 59.4176 23.5867 60.8759 28.1739 60.8759ZM27.3254 56.2357C26.7155 56.2357 26.4769 56.0236 26.4769 55.5463C26.4769 51.4894 33.0263 43.9324 44.6931 43.9324C56.36 43.9324 62.9094 51.4894 62.9094 55.5463C62.9094 56.0236 62.6708 56.2357 62.0344 56.2357H27.3254Z" fill="#0D313B"/>
<path d="M44.6931 31.258C41.034 31.258 37.9317 27.8109 37.9317 23.3298C37.9317 19.0077 41.0075 15.6402 44.6931 15.6402C48.4053 15.6402 51.4546 18.9547 51.4546 23.3033C51.4546 27.7579 48.3788 31.258 44.6931 31.258Z" fill="#36C5F0"/>
<path d="M27.3254 56.2357C26.7155 56.2357 26.4769 56.0236 26.4769 55.5463C26.4769 51.4894 33.0263 43.9324 44.6931 43.9324C56.36 43.9324 62.9094 51.4894 62.9094 55.5463C62.9094 56.0236 62.6708 56.2357 62.0344 56.2357H27.3254Z" fill="#36C5F0"/>
</g>
</g>
</g>
</g>
</svg>
