<svg width="72" height="72" viewBox="0 0 72 72" fill="none" xmlns="http://www.w3.org/2000/svg">
<g id="kpis">
<g id="Group 1171275586">
<g id="Group 1171275585">
<g id="Group">
<path id="Vector" d="M36 65.8694C19.5292 65.8694 6.13402 52.4708 6.13402 36C6.13402 19.5292 19.5292 6.13402 36 6.13402C52.4708 6.13402 65.866 19.5292 65.866 36C65.866 52.4708 52.4708 65.8694 36 65.8694ZM36 4C18.354 4 4 18.3574 4 36C4 53.646 18.354 68 36 68C53.646 68 68 53.646 68 36C68 18.3574 53.646 4 36 4Z" fill="#0D313B"/>
</g>
<g id="Vector_2">
<path d="M36.001 61.601C22.2416 61.601 10.9873 50.6938 10.4237 37.0684H20.1797C21.7467 37.0684 23.0904 35.8691 23.3172 34.2677C24.1763 27.9584 29.6264 23.2024 36.001 23.2024C38.324 23.2024 40.6161 23.8553 42.599 25.0478C38.4134 27.6354 33.8498 30.6079 32.2347 32.223C31.2244 33.2299 30.6711 34.5735 30.6711 35.9962C30.6677 37.4258 31.221 38.7625 32.2278 39.7729C33.2347 40.7763 34.5715 41.3296 35.9976 41.3296C36.001 41.3296 36.001 41.3296 36.0045 41.3296C37.4306 41.3296 38.7708 40.7763 39.7777 39.7694C41.3928 38.1509 44.3653 33.5873 46.9529 29.3983C47.8498 30.8897 48.4443 32.5426 48.6849 34.2711C48.9082 35.8691 50.2553 37.0684 51.8223 37.0684H61.5715C61.0113 50.6938 49.757 61.601 36.001 61.601ZM49.8498 24.6182C50.0698 24.2436 50.1419 23.8278 50.0835 23.4258L54.8292 18.6801C58.8051 22.9962 61.3137 28.6801 61.5715 34.9344H51.8223C51.3034 34.9344 50.8739 34.5289 50.7948 33.979C50.4718 31.6045 49.5715 29.3433 48.1866 27.3845C48.7914 26.388 49.3584 25.4464 49.8498 24.6182ZM47.3378 24.6629C43.0251 31.8588 39.7433 36.7832 38.2725 38.254C37.6643 38.8622 36.8567 39.1955 36.001 39.1955C36.001 39.1955 36.001 39.1955 35.9976 39.1955C35.1419 39.1955 34.3412 38.8691 33.7364 38.2643C33.135 37.6595 32.8017 36.8553 32.8051 35.9997C32.8051 35.144 33.1385 34.3399 33.7467 33.7316C35.2175 32.2608 40.1419 28.9756 47.3378 24.6629ZM37.0663 10.4292C43.3206 10.6835 49.0045 13.1955 53.3206 17.1715L48.5715 21.9172C48.1763 21.8588 47.757 21.9309 47.3825 22.1509C46.5543 22.6457 45.6093 23.2127 44.6127 23.8175C42.3928 22.2505 39.7742 21.3089 37.0663 21.1131V10.4292ZM26.2347 24.7247L18.678 17.1715C22.9976 13.1955 28.678 10.6835 34.9323 10.4292V21.1165C31.6471 21.357 28.6161 22.6629 26.2347 24.7247ZM24.733 26.2436C22.8842 28.3708 21.6093 31.0237 21.2038 33.9756C21.1247 34.5289 20.6952 34.9344 20.1797 34.9344H10.4237C10.6883 28.6801 13.1969 22.9962 17.1694 18.6801L24.733 26.2436ZM36.001 8.2677C20.7089 8.2677 8.26562 20.711 8.26562 35.9997C8.26562 51.2918 20.7089 63.7351 36.001 63.7351C51.2931 63.7351 63.733 51.2918 63.733 35.9997C63.733 20.711 51.2931 8.2677 36.001 8.2677Z" fill="#0D313B"/>
<path d="M24.733 26.2436C22.8842 28.3708 21.6093 31.0237 21.2038 33.9756C21.1247 34.5289 20.6952 34.9344 20.1797 34.9344H10.4237C10.6883 28.6801 13.1969 22.9962 17.1694 18.6801L24.733 26.2436Z" fill="#2894B4"/>
<path d="M26.2347 24.7247L18.678 17.1715C22.9976 13.1955 28.678 10.6835 34.9323 10.4292V21.1165C31.6471 21.357 28.6161 22.6629 26.2347 24.7247Z" fill="#2894B4"/>
<path d="M37.0663 10.4292C43.3206 10.6835 49.0045 13.1955 53.3206 17.1715L48.5715 21.9172C48.1763 21.8588 47.757 21.9309 47.3825 22.1509C46.5543 22.6457 45.6093 23.2127 44.6127 23.8175C42.3928 22.2505 39.7742 21.3089 37.0663 21.1131V10.4292Z" fill="#2894B4"/>
<path d="M49.8498 24.6182C50.0698 24.2436 50.1419 23.8278 50.0835 23.4258L54.8292 18.6801C58.8051 22.9962 61.3137 28.6801 61.5715 34.9344H51.8223C51.3034 34.9344 50.8739 34.5289 50.7948 33.979C50.4718 31.6045 49.5715 29.3433 48.1866 27.3845C48.7914 26.388 49.3584 25.4464 49.8498 24.6182Z" fill="#2894B4"/>
<path d="M36.001 61.601C22.2416 61.601 10.9873 50.6938 10.4237 37.0684H20.1797C21.7467 37.0684 23.0904 35.8691 23.3172 34.2677C24.1763 27.9584 29.6264 23.2024 36.001 23.2024C38.324 23.2024 40.6161 23.8553 42.599 25.0478C38.4134 27.6354 33.8498 30.6079 32.2347 32.223C31.2244 33.2299 30.6711 34.5735 30.6711 35.9962C30.6677 37.4258 31.221 38.7625 32.2278 39.7729C33.2347 40.7763 34.5715 41.3296 35.9976 41.3296H36.0045C37.4306 41.3296 38.7708 40.7763 39.7777 39.7694C41.3928 38.1509 44.3653 33.5873 46.9529 29.3983C47.8498 30.8897 48.4443 32.5426 48.6849 34.2711C48.9082 35.8691 50.2553 37.0684 51.8223 37.0684H61.5715C61.0113 50.6938 49.757 61.601 36.001 61.601Z" fill="#36C5F0"/>
</g>
<path id="Vector_3" d="M31.4199 44.8484C31.0041 44.4291 30.3305 44.4291 29.9113 44.8484L27.468 47.2917V45.6009C27.468 45.0133 26.9869 44.5357 26.3993 44.5357C25.8116 44.5357 25.334 45.0133 25.334 45.6009V54.1336C25.334 54.7212 25.8116 55.2023 26.3993 55.2023C26.9869 55.2023 27.468 54.7212 27.468 54.1336V52.4429L29.9113 54.8896C30.1209 55.0958 30.3924 55.2023 30.6673 55.2023C30.9422 55.2023 31.2137 55.0958 31.4199 54.8896C31.8357 54.4704 31.8357 53.7968 31.4199 53.381L27.9079 49.869L31.4199 46.357C31.8357 45.9377 31.8357 45.2642 31.4199 44.8484Z" fill="#0D313B"/>
<path id="Vector_4" d="M43.4672 44.5359C42.8795 44.5359 42.3984 45.0136 42.3984 45.6012V54.1338C42.3984 54.7215 42.8795 55.2026 43.4672 55.2026C44.0514 55.2026 44.5325 54.7215 44.5325 54.1338V45.6012C44.5325 45.0136 44.0514 44.5359 43.4672 44.5359Z" fill="#0D313B"/>
<path id="Vector_5" d="M37.0645 48.8005H35.9993V46.6665H37.0645C37.6522 46.6665 38.1333 47.1476 38.1333 47.7352C38.1333 48.3228 37.6522 48.8005 37.0645 48.8005ZM37.0645 44.5359H34.9305C34.3429 44.5359 33.8652 45.0136 33.8652 45.6012V54.1338C33.8652 54.7215 34.3429 55.2026 34.9305 55.2026C35.5182 55.2026 35.9993 54.7215 35.9993 54.1338V50.9345H37.0645C38.8309 50.9345 40.2639 49.5015 40.2639 47.7352C40.2639 45.9689 38.8309 44.5359 37.0645 44.5359Z" fill="#0D313B"/>
</g>
</g>
</g>
</svg>
