<svg width="72" height="72" viewBox="0 0 72 72" fill="none" xmlns="http://www.w3.org/2000/svg">
<g id="competency-levels">
<g id="Group 1171275597">
<g id="Group 1171275594">
<g id="Group 1171275593">
<g id="Group">
<path id="Vector" d="M62.2747 68.0001H9.75165C7.68199 68.0001 6 66.3165 6 64.2484V54.8693C6 52.8012 7.68199 51.1177 9.75165 51.1177H22.8824V47.366C22.8824 45.2979 24.5644 43.6144 26.6341 43.6144H37.889V39.8627C37.889 37.7946 39.571 36.1111 41.6406 36.1111H62.2747C64.3443 36.1111 66.0263 37.7946 66.0263 39.8627V64.2484C66.0263 66.3165 64.3443 68.0001 62.2747 68.0001ZM9.75165 54.8693V64.2484H62.2747V39.8596L41.6406 39.8627V43.6144C41.6406 45.6825 39.9586 47.366 37.889 47.366H26.6341V51.1177C26.6341 53.1858 24.9521 54.8693 22.8824 54.8693H9.75165Z" fill="#0D313B"/>
</g>
</g>
</g>
<g id="Group 1171275365">
<g id="person.3">
<path d="M52.285 18.4362C56.0055 18.4362 59.0188 15.1615 59.0188 11.1335C59.0188 7.16705 56.0209 4 52.285 4C48.5952 4 45.5512 7.21317 45.5512 11.1643C45.5665 15.1769 48.5645 18.4362 52.285 18.4362ZM52.285 15.7458C50.1634 15.7458 48.3646 13.7471 48.3646 11.1489C48.3646 8.64296 50.148 6.69045 52.285 6.69045C54.4374 6.69045 56.2054 8.61221 56.2054 11.1335C56.2054 13.7164 54.422 15.7458 52.285 15.7458ZM42.707 32.9185H61.863C64.5227 32.9185 65.7988 32.073 65.7988 30.2588C65.7988 26.031 60.5255 20.4041 52.285 20.4041C44.0445 20.4041 38.7559 26.031 38.7559 30.2588C38.7559 32.073 40.0473 32.9185 42.707 32.9185ZM42.215 30.2281C41.8614 30.2281 41.723 30.1051 41.723 29.8284C41.723 27.4761 45.5204 23.0945 52.285 23.0945C59.0496 23.0945 62.847 27.4761 62.847 29.8284C62.847 30.1051 62.7086 30.2281 62.3396 30.2281H42.215Z" fill="#0D313B"/>
<path d="M52.285 15.7458C50.1634 15.7458 48.3646 13.7471 48.3646 11.1489C48.3646 8.64296 50.148 6.69045 52.285 6.69045C54.4374 6.69045 56.2054 8.61221 56.2054 11.1335C56.2054 13.7164 54.422 15.7458 52.285 15.7458Z" fill="#36C5F0"/>
<path d="M42.215 30.2281C41.8614 30.2281 41.723 30.1051 41.723 29.8284C41.723 27.4761 45.5204 23.0945 52.285 23.0945C59.0496 23.0945 62.847 27.4761 62.847 29.8284C62.847 30.1051 62.7086 30.2281 62.3396 30.2281H42.215Z" fill="#36C5F0"/>
<path d="M45.5512 11.1643H45.0512L45.0512 11.1662L45.5512 11.1643ZM52.285 18.9362C56.3193 18.9362 59.5188 15.3984 59.5188 11.1335H58.5188C58.5188 14.9247 55.6917 17.9362 52.285 17.9362V18.9362ZM59.5188 11.1335C59.5188 6.91805 56.3234 3.5 52.285 3.5V4.5C55.7184 4.5 58.5188 7.41605 58.5188 11.1335H59.5188ZM52.285 3.5C48.2915 3.5 45.0512 6.96548 45.0512 11.1643H46.0512C46.0512 7.46086 48.899 4.5 52.285 4.5V3.5ZM45.0512 11.1662C45.0675 15.4145 48.251 18.9362 52.285 18.9362V17.9362C48.878 17.9362 46.0656 14.9393 46.0512 11.1624L45.0512 11.1662ZM52.285 15.2458C50.5041 15.2458 48.8646 13.5403 48.8646 11.1489H47.8646C47.8646 13.954 49.8227 16.2458 52.285 16.2458V15.2458ZM48.8646 11.1489C48.8646 8.86255 50.4775 7.19045 52.285 7.19045V6.19045C49.8185 6.19045 47.8646 8.42336 47.8646 11.1489H48.8646ZM52.285 7.19045C54.1099 7.19045 55.7054 8.83404 55.7054 11.1335H56.7054C56.7054 8.39038 54.7649 6.19045 52.285 6.19045V7.19045ZM55.7054 11.1335C55.7054 13.5144 54.0771 15.2458 52.285 15.2458V16.2458C54.7668 16.2458 56.7054 13.9184 56.7054 11.1335H55.7054ZM42.707 33.4185H61.863V32.4185H42.707V33.4185ZM61.863 33.4185C63.228 33.4185 64.3326 33.2049 65.1073 32.6839C65.9211 32.1365 66.2988 31.3009 66.2988 30.2588H65.2988C65.2988 31.0309 65.0384 31.5251 64.5492 31.8541C64.021 32.2094 63.1577 32.4185 61.863 32.4185V33.4185ZM66.2988 30.2588C66.2988 27.9502 64.8734 25.3572 62.45 23.3601C60.0122 21.3512 56.5213 19.9041 52.285 19.9041V20.9041C56.2891 20.9041 59.5552 22.2704 61.8141 24.1319C64.0875 26.0053 65.2988 28.3396 65.2988 30.2588H66.2988ZM52.285 19.9041C48.0487 19.9041 44.5542 21.3512 42.1126 23.3599C39.6856 25.3566 38.2559 27.9497 38.2559 30.2588H39.2559C39.2559 28.3401 40.4705 26.0058 42.7479 24.1321C45.0108 22.2705 48.2808 20.9041 52.285 20.9041V19.9041ZM38.2559 30.2588C38.2559 31.3031 38.639 32.1383 39.4561 32.6846C40.2341 33.2048 41.3418 33.4185 42.707 33.4185V32.4185C41.4125 32.4185 40.5446 32.2095 40.0119 31.8533C39.5185 31.5234 39.2559 31.0287 39.2559 30.2588H38.2559ZM42.215 29.7281C42.1531 29.7281 42.1219 29.7224 42.1115 29.7198C42.1028 29.7176 42.1248 29.7216 42.1556 29.7471C42.1709 29.7598 42.185 29.7751 42.1968 29.7921C42.2084 29.809 42.2155 29.8243 42.2196 29.8354C42.2271 29.8559 42.223 29.8584 42.223 29.8284H41.223C41.223 30.0449 41.2789 30.3192 41.5173 30.5169C41.7321 30.695 42.0009 30.7281 42.215 30.7281V29.7281ZM42.223 29.8284C42.223 29.3646 42.4148 28.7415 42.8465 28.0481C43.2739 27.3618 43.9181 26.6368 44.7734 25.9747C46.4809 24.6529 49.0138 23.5945 52.285 23.5945V22.5945C48.7916 22.5945 46.0435 23.7269 44.1612 25.184C43.2216 25.9114 42.4937 26.7228 41.9976 27.5196C41.5059 28.3093 41.223 29.116 41.223 29.8284H42.223ZM52.285 23.5945C55.5562 23.5945 58.0891 24.6529 59.7966 25.9747C60.6519 26.6368 61.2961 27.3618 61.7235 28.0481C62.1552 28.7415 62.347 29.3646 62.347 29.8284H63.347C63.347 29.116 63.0641 28.3093 62.5724 27.5196C62.0763 26.7228 61.3484 25.9114 60.4088 25.184C58.5265 23.7269 55.7784 22.5945 52.285 22.5945V23.5945ZM62.347 29.8284C62.347 29.8586 62.3428 29.8551 62.3509 29.8335C62.3553 29.8216 62.3628 29.8058 62.3749 29.7885C62.3872 29.7711 62.4018 29.7558 62.4171 29.7434C62.4476 29.7186 62.4682 29.7158 62.4558 29.7188C62.442 29.7222 62.4067 29.7281 62.3396 29.7281V30.7281C62.5576 30.7281 62.8292 30.6963 63.0462 30.5206C63.2907 30.3227 63.347 30.0454 63.347 29.8284H62.347ZM62.3396 29.7281H42.215V30.7281H62.3396V29.7281Z" fill="#0D313B"/>
</g>
</g>
</g>
</g>
</svg>
