<svg width="72" height="72" viewBox="0 0 72 72" fill="none" xmlns="http://www.w3.org/2000/svg">
<g id="feedback-template">
<path id="Vector 852" d="M40.5 43.5L37 41V23L38.5 22L43.5 19L45.5 13V6.5H48L50.5 7.5L52 10L53 19.5H62.5L66.5 23L64 40L60.5 43.5H40.5Z" fill="#36C5F0" stroke="#0D313B"/>
<path id="Vector 850" d="M27.5 42.5H36V22H27.5V42.5Z" fill="#36C5F0" stroke="#0D313B"/>
<g id="Group">
<path id="Vector" d="M45.2287 5.17808C44.7983 5.28968 44.2562 5.57665 44.033 5.81579L43.6026 6.2303L43.5229 10.9015L43.4431 15.5568L42.9011 16.5612C42.1518 17.9482 40.6691 19.2874 39.0111 20.1005C37.5284 20.8179 37.369 20.8498 36.9704 20.4831C36.3327 19.9092 35.5515 19.7976 32.2832 19.7816C30.5295 19.7816 28.8236 19.8613 28.5048 19.9411C27.7076 20.1643 26.9583 20.8179 26.6076 21.615C26.3366 22.2049 26.3047 22.8905 26.3047 31.9619C26.3047 41.5435 26.3047 41.687 26.6395 42.3884C26.8467 42.8029 27.2453 43.2493 27.6279 43.5044L28.2656 43.9349L31.9484 43.9827C35.0413 44.0305 35.7268 43.9827 36.3008 43.7755C36.9704 43.5204 36.9863 43.5204 37.5284 43.9349C37.8313 44.174 38.469 44.5088 38.9313 44.7001C39.7604 45.0509 39.9357 45.0509 49.342 45.0987C55.6393 45.1306 59.2902 45.0828 60.0236 44.9712C62.6063 44.5726 64.376 43.2175 65.2209 40.9855C65.6992 39.7419 68.1225 24.3731 67.995 23.4485C67.692 21.3918 66.3529 19.5744 64.4397 18.6338L63.3716 18.1076L58.5728 18.0598L53.7581 18.012L53.6943 14.1538C53.6305 10.6783 53.5987 10.2 53.2639 9.29131C53.0726 8.73331 52.7537 8.01589 52.5464 7.68109C51.9725 6.77235 50.7768 5.79985 49.7565 5.41722C48.6245 4.98677 46.3288 4.85922 45.2287 5.17808ZM48.4651 8.46228C49.1506 8.65359 49.9318 9.43479 50.2347 10.216C50.3782 10.6146 50.4579 12.1769 50.5217 15.5887C50.6174 20.3396 50.6174 20.4193 50.9841 20.7701C51.3348 21.1368 51.3826 21.1368 56.9626 21.2165C62.0961 21.2962 62.6223 21.3281 63.1962 21.5991C63.9933 21.9977 64.7267 23.1296 64.7267 23.9746C64.7267 24.9949 62.5107 39.6941 62.2715 40.2362C61.9686 40.9376 61.2671 41.5594 60.4381 41.8623C59.8482 42.0696 58.3655 42.1015 50.0913 42.1015H40.4459L39.7604 41.7029C39.2821 41.4159 38.9792 41.0652 38.6763 40.4753L38.2617 39.6463V31.8822V24.134L39.1864 23.7992C41.9605 22.7629 44.6707 20.5628 45.8027 18.4106C46.7273 16.6409 46.8708 15.7322 46.8708 11.7624V8.30286H47.3969C47.668 8.30286 48.1622 8.38257 48.4651 8.46228ZM34.9138 31.9778V40.826H32.2832H29.6527V31.9778V23.1296H32.2832H34.9138V31.9778Z" fill="#0D313B"/>
<path id="Vector_2" d="M10.5534 11.4281C7.61998 12.2093 5.59525 14.1224 4.39955 17.2313C4.06475 18.0922 4.06475 18.2835 4.01692 32.3928C3.96909 48.1921 3.95315 48.0167 4.97349 50.0733C5.69091 51.556 7.38084 53.1981 8.92729 53.9474C10.4897 54.6808 11.51 54.8562 14.3797 54.8562H16.7392V60.6753V66.5103L17.1219 66.8929C17.5683 67.3393 18.1741 67.5306 18.7321 67.3871C18.9553 67.3234 21.9684 64.5812 25.6193 61.0738L32.108 54.8562H44.3999C54.4438 54.8562 56.8671 54.8083 57.7599 54.617C60.1035 54.1228 62.3833 52.401 63.4993 50.2646C64.2327 48.8776 64.2486 48.3037 63.6109 47.65C63.1804 47.2196 63.0369 47.1717 62.479 47.2515C61.6818 47.3631 61.4586 47.5544 60.9644 48.5269C60.4223 49.5791 59.3223 50.6473 58.2222 51.1574L57.3135 51.5879L44.0491 51.6676L30.7848 51.7473L30.0195 52.4807C29.605 52.8952 27.1817 55.2069 24.6309 57.6302L20.0075 62.0463L19.9278 57.3751C19.8799 54.8083 19.7843 52.5763 19.7046 52.4169C19.4176 51.827 18.9872 51.7473 15.145 51.6676C11.526 51.5879 11.3665 51.5719 10.5216 51.1734C9.42151 50.6632 8.43306 49.7066 7.85912 48.6066L7.41272 47.7616V33.0146V18.2676L7.81129 17.4704C8.30552 16.4501 9.42151 15.3341 10.4418 14.8399L11.239 14.4413L25.428 14.3616C41.1316 14.2659 40.2069 14.3456 40.6533 13.2615C40.9084 12.6398 40.749 12.0499 40.2229 11.5557L39.8084 11.173L25.6034 11.189C13.8377 11.189 11.2549 11.2368 10.5534 11.4281Z" fill="#0D313B"/>
</g>
</g>
</svg>
