<svg width="72" height="72" viewBox="0 0 72 72" fill="none" xmlns="http://www.w3.org/2000/svg">
<g id="performance-planning">
<g id="Group">
<g id="Vector">
<mask id="path-1-outside-1_6297_46150" maskUnits="userSpaceOnUse" x="13" y="3" width="46" height="66" fill="black">
<rect fill="white" x="13" y="3" width="46" height="66"/>
<path d="M34.284 4.09452C32.9003 4.45113 31.7164 5.32126 30.889 6.60505L30.2899 7.51797H27.5369C24.0707 7.51797 24.199 7.44665 24.199 9.51499V10.9414H20.9182C19.1066 10.9414 17.3236 11.0127 16.9242 11.0983C15.8972 11.3123 14.97 12.0113 14.4422 12.9384L14 13.723V39.5415V65.3601L14.3138 65.9449C14.6847 66.6296 15.6261 67.5282 16.2966 67.7993C16.696 67.9704 19.7628 67.999 35.6105 67.999C56.5364 67.999 54.9816 68.0703 56.0514 67.029C56.351 66.7437 56.7361 66.2444 56.9073 65.9306L57.2211 65.3601V39.5415V13.723L56.9073 13.1524C56.5507 12.482 55.8517 11.7973 55.1527 11.4264C54.7106 11.1839 54.2398 11.1554 50.8449 11.1126L47.022 11.0698V9.57204C47.022 7.43239 47.1647 7.51797 43.6842 7.51797H40.9312L40.3321 6.60505C39.2765 4.96465 37.8073 4.10878 35.9244 4.00893C35.3253 3.98041 34.5835 4.0232 34.284 4.09452ZM36.9086 6.14859C37.8358 6.47667 38.4492 7.06151 38.9769 8.17413C39.3763 9.00147 39.5618 9.2297 39.9184 9.35808C40.1609 9.44366 41.4019 9.51499 42.7713 9.51499H45.1677L45.1392 11.9685L45.0964 14.4362H35.6819H26.2674L26.2246 11.9827L26.196 9.54351L28.8778 9.48646C31.8447 9.44366 31.9161 9.41514 32.2014 8.54501C32.5722 7.40386 33.5422 6.40535 34.555 6.09153C35.1683 5.9061 36.3238 5.93462 36.9086 6.14859ZM24.199 14.5075C24.199 16.747 22.8439 16.5045 35.5677 16.5045C45.4102 16.5045 46.3802 16.4903 46.6226 16.262C46.8366 16.0623 46.8794 15.8056 46.8794 14.5503V13.0811H50.3742C54.2113 13.0811 54.5251 13.1381 54.9245 13.9084C55.0814 14.2365 55.1242 18.4017 55.167 39.57L55.2241 64.8465L54.9245 65.2459C54.3397 66.0305 55.0244 66.0162 35.3395 65.9734C15.3836 65.9306 16.8529 65.9877 16.2395 65.1176C16.0113 64.818 15.997 62.8067 15.9542 39.8268C15.9257 22.4956 15.9542 14.7072 16.0683 14.3364C16.1539 14.0511 16.4107 13.6517 16.6532 13.452L17.0954 13.0811H20.6472H24.199V14.5075Z"/>
<path d="M24.199 14.5075C24.199 16.747 22.8439 16.5045 35.5677 16.5045C45.4102 16.5045 46.3802 16.4903 46.6226 16.262C46.8366 16.0623 46.8794 15.8056 46.8794 14.5503V13.0811H50.3742C54.2113 13.0811 54.5251 13.1381 54.9245 13.9084C55.0814 14.2365 55.1242 18.4017 55.167 39.57L55.2241 64.8465L54.9245 65.2459C54.3397 66.0305 55.0244 66.0162 35.3395 65.9734C15.3836 65.9306 16.8529 65.9877 16.2395 65.1176C16.0113 64.818 15.997 62.8067 15.9542 39.8268C15.9257 22.4956 15.9542 14.7072 16.0683 14.3364C16.1539 14.0511 16.4107 13.6517 16.6532 13.452L17.0954 13.0811H20.6472H24.199V14.5075Z"/>
</mask>
<path d="M34.284 4.09452C32.9003 4.45113 31.7164 5.32126 30.889 6.60505L30.2899 7.51797H27.5369C24.0707 7.51797 24.199 7.44665 24.199 9.51499V10.9414H20.9182C19.1066 10.9414 17.3236 11.0127 16.9242 11.0983C15.8972 11.3123 14.97 12.0113 14.4422 12.9384L14 13.723V39.5415V65.3601L14.3138 65.9449C14.6847 66.6296 15.6261 67.5282 16.2966 67.7993C16.696 67.9704 19.7628 67.999 35.6105 67.999C56.5364 67.999 54.9816 68.0703 56.0514 67.029C56.351 66.7437 56.7361 66.2444 56.9073 65.9306L57.2211 65.3601V39.5415V13.723L56.9073 13.1524C56.5507 12.482 55.8517 11.7973 55.1527 11.4264C54.7106 11.1839 54.2398 11.1554 50.8449 11.1126L47.022 11.0698V9.57204C47.022 7.43239 47.1647 7.51797 43.6842 7.51797H40.9312L40.3321 6.60505C39.2765 4.96465 37.8073 4.10878 35.9244 4.00893C35.3253 3.98041 34.5835 4.0232 34.284 4.09452ZM36.9086 6.14859C37.8358 6.47667 38.4492 7.06151 38.9769 8.17413C39.3763 9.00147 39.5618 9.2297 39.9184 9.35808C40.1609 9.44366 41.4019 9.51499 42.7713 9.51499H45.1677L45.1392 11.9685L45.0964 14.4362H35.6819H26.2674L26.2246 11.9827L26.196 9.54351L28.8778 9.48646C31.8447 9.44366 31.9161 9.41514 32.2014 8.54501C32.5722 7.40386 33.5422 6.40535 34.555 6.09153C35.1683 5.9061 36.3238 5.93462 36.9086 6.14859ZM24.199 14.5075C24.199 16.747 22.8439 16.5045 35.5677 16.5045C45.4102 16.5045 46.3802 16.4903 46.6226 16.262C46.8366 16.0623 46.8794 15.8056 46.8794 14.5503V13.0811H50.3742C54.2113 13.0811 54.5251 13.1381 54.9245 13.9084C55.0814 14.2365 55.1242 18.4017 55.167 39.57L55.2241 64.8465L54.9245 65.2459C54.3397 66.0305 55.0244 66.0162 35.3395 65.9734C15.3836 65.9306 16.8529 65.9877 16.2395 65.1176C16.0113 64.818 15.997 62.8067 15.9542 39.8268C15.9257 22.4956 15.9542 14.7072 16.0683 14.3364C16.1539 14.0511 16.4107 13.6517 16.6532 13.452L17.0954 13.0811H20.6472H24.199V14.5075Z" fill="#0B2D1F"/>
<path d="M24.199 14.5075C24.199 16.747 22.8439 16.5045 35.5677 16.5045C45.4102 16.5045 46.3802 16.4903 46.6226 16.262C46.8366 16.0623 46.8794 15.8056 46.8794 14.5503V13.0811H50.3742C54.2113 13.0811 54.5251 13.1381 54.9245 13.9084C55.0814 14.2365 55.1242 18.4017 55.167 39.57L55.2241 64.8465L54.9245 65.2459C54.3397 66.0305 55.0244 66.0162 35.3395 65.9734C15.3836 65.9306 16.8529 65.9877 16.2395 65.1176C16.0113 64.818 15.997 62.8067 15.9542 39.8268C15.9257 22.4956 15.9542 14.7072 16.0683 14.3364C16.1539 14.0511 16.4107 13.6517 16.6532 13.452L17.0954 13.0811H20.6472H24.199V14.5075Z" fill="#2EB67D"/>
<path d="M46.6226 16.262L46.28 15.8979L46.2815 15.8965L46.6226 16.262ZM46.8794 13.0811H46.3794V12.5811H46.8794V13.0811ZM54.9245 13.9084L55.3684 13.6783L55.3721 13.6854L55.3756 13.6927L54.9245 13.9084ZM55.167 39.57L54.667 39.5712L54.667 39.5711L55.167 39.57ZM55.2241 64.8465L55.7241 64.8454L55.7244 65.0127L55.6241 65.1465L55.2241 64.8465ZM54.9245 65.2459L54.5236 64.9471L54.5245 64.9459L54.9245 65.2459ZM35.3395 65.9734L35.3406 65.4734L35.3406 65.4734L35.3395 65.9734ZM16.2395 65.1176L16.6372 64.8145L16.6428 64.8219L16.6482 64.8295L16.2395 65.1176ZM15.9542 39.8268L15.4542 39.8277L15.4542 39.8276L15.9542 39.8268ZM16.0683 14.3364L16.5473 14.48L16.5462 14.4834L16.0683 14.3364ZM16.6532 13.452L16.9745 13.8351L16.971 13.8379L16.6532 13.452ZM17.0954 13.0811L16.7741 12.698L16.9135 12.5811H17.0954V13.0811ZM24.199 13.0811V12.5811H24.699V13.0811H24.199ZM24.699 14.5075C24.699 14.807 24.676 15.0742 24.6648 15.2656C24.6523 15.4781 24.6561 15.5815 24.6717 15.6451C24.6791 15.6752 24.6828 15.6839 24.7165 15.7062C24.7758 15.7453 24.9097 15.8028 25.1982 15.8534C25.7755 15.9545 26.7554 15.9951 28.4272 16.0075C30.0873 16.0197 32.3815 16.0045 35.5677 16.0045V17.0045C32.3921 17.0045 30.0842 17.0197 28.4198 17.0074C26.7671 16.9952 25.7001 16.9565 25.0257 16.8383C24.6884 16.7793 24.3952 16.6921 24.166 16.5409C23.9112 16.3729 23.7649 16.1457 23.7005 15.8836C23.6444 15.655 23.6546 15.41 23.6665 15.207C23.6797 14.983 23.699 14.768 23.699 14.5075H24.699ZM35.5677 16.0045C40.492 16.0045 43.1882 16.0009 44.6845 15.969C45.4366 15.9529 45.8658 15.93 46.1176 15.8998C46.394 15.8666 46.3489 15.8331 46.28 15.8979L46.9653 16.6261C46.7752 16.8051 46.5179 16.8589 46.2366 16.8927C45.9307 16.9293 45.4569 16.9527 44.7058 16.9688C43.196 17.001 40.4859 17.0045 35.5677 17.0045V16.0045ZM46.2815 15.8965C46.2975 15.8816 46.2989 15.8776 46.3014 15.8723C46.3073 15.8598 46.3225 15.8216 46.337 15.7268C46.3677 15.5249 46.3794 15.186 46.3794 14.5503H47.3794C47.3794 15.1699 47.3697 15.587 47.3256 15.8772C47.3026 16.0285 47.2669 16.1703 47.2046 16.3014C47.139 16.4397 47.0548 16.5427 46.9638 16.6276L46.2815 15.8965ZM46.3794 14.5503V13.0811H47.3794V14.5503H46.3794ZM46.8794 12.5811H50.3742V13.5811H46.8794V12.5811ZM50.3742 12.5811C52.2696 12.5811 53.3641 12.5933 54.0279 12.714C54.3738 12.7769 54.6585 12.8775 54.8924 13.0601C55.1254 13.2422 55.2602 13.4696 55.3684 13.6783L54.4806 14.1386C54.3891 13.9621 54.3349 13.8936 54.2769 13.8482C54.2197 13.8036 54.1112 13.7455 53.8491 13.6978C53.2968 13.5974 52.3159 13.5811 50.3742 13.5811V12.5811ZM55.3756 13.6927C55.4181 13.7817 55.4361 13.8778 55.4458 13.936C55.4578 14.0078 55.4677 14.0941 55.4763 14.1936C55.4938 14.3934 55.5088 14.676 55.5223 15.0622C55.5493 15.8365 55.5707 17.0549 55.5885 18.9194C55.6242 22.65 55.6456 28.9854 55.667 39.569L54.667 39.5711C54.6456 28.9864 54.6242 22.655 54.5886 18.9289C54.5708 17.065 54.5494 15.8576 54.5229 15.0971C54.5096 14.7159 54.4952 14.4539 54.4801 14.2805C54.4725 14.1933 54.4653 14.1358 54.4594 14.1003C54.4512 14.0511 54.4505 14.0762 54.4735 14.1241L55.3756 13.6927ZM55.667 39.5689L55.7241 64.8454L54.7241 64.8477L54.667 39.5712L55.667 39.5689ZM55.6241 65.1465L55.3245 65.5459L54.5245 64.9459L54.8241 64.5465L55.6241 65.1465ZM55.3254 65.5448C55.2841 65.6001 55.1853 65.7501 55.0734 65.8603C54.9351 65.9967 54.7673 66.0966 54.5436 66.171C54.1394 66.3055 53.4832 66.3754 52.3134 66.4196C49.9378 66.5092 45.1726 66.4948 35.3384 66.4734L35.3406 65.4734C45.1913 65.4948 49.9262 65.5089 52.2757 65.4203C53.4684 65.3753 53.981 65.3043 54.228 65.2222C54.33 65.1882 54.3584 65.1609 54.3715 65.1481C54.411 65.1091 54.4187 65.0879 54.5236 64.9471L55.3254 65.5448ZM35.3384 66.4734C25.3708 66.452 20.7315 66.4557 18.5134 66.3552C17.9571 66.33 17.54 66.2978 17.2235 66.2549C16.9121 66.2128 16.6663 66.1565 16.4704 66.068C16.2514 65.969 16.1129 65.8381 16.0088 65.69C15.9655 65.6284 15.9285 65.5638 15.9046 65.5231C15.8776 65.4771 15.8563 65.4418 15.8308 65.4056L16.6482 64.8295C16.6994 64.9021 16.7385 64.9683 16.7671 65.0171C16.7988 65.0711 16.8126 65.0946 16.8269 65.1148C16.8377 65.1303 16.841 65.1381 16.8823 65.1567C16.9467 65.1859 17.0798 65.2264 17.3577 65.264C17.6305 65.3009 18.0131 65.3315 18.5587 65.3563C20.7483 65.4555 25.3524 65.452 35.3406 65.4734L35.3384 66.4734ZM15.8418 65.4206C15.7368 65.2827 15.6959 65.1174 15.6708 64.9729C15.6435 64.8154 15.6228 64.5995 15.6055 64.2999C15.5706 63.6969 15.5461 62.6883 15.5274 60.9828C15.4899 57.5671 15.4756 51.3163 15.4542 39.8277L16.4542 39.8259C16.4756 51.3172 16.4899 57.562 16.5273 60.9718C16.546 62.6791 16.5705 63.6657 16.6038 64.2422C16.6206 64.5323 16.6388 64.7022 16.6561 64.8019C16.6757 64.9145 16.6852 64.8775 16.6372 64.8145L15.8418 65.4206ZM15.4542 39.8276C15.44 31.162 15.44 24.8808 15.4578 20.7193C15.4667 18.6389 15.4801 17.0863 15.4984 16.0298C15.5076 15.502 15.518 15.095 15.5299 14.8067C15.5359 14.663 15.5423 14.5446 15.5495 14.4538C15.5549 14.3862 15.564 14.2753 15.5904 14.1893L16.5462 14.4834C16.5584 14.4438 16.554 14.4372 16.5464 14.5328C16.5406 14.6053 16.5348 14.7093 16.5291 14.8479C16.5177 15.1242 16.5074 15.5219 16.4983 16.0472C16.4801 17.0969 16.4667 18.6442 16.4578 20.7236C16.44 24.8818 16.44 31.1604 16.4542 39.826L15.4542 39.8276ZM15.5894 14.1927C15.6502 13.99 15.7614 13.7745 15.8838 13.5879C16.006 13.4015 16.1627 13.2082 16.3353 13.066L16.971 13.8379C16.9012 13.8954 16.8083 14.0017 16.7201 14.1362C16.632 14.2705 16.572 14.3974 16.5472 14.48L15.5894 14.1927ZM16.3319 13.0689L16.7741 12.698L17.4167 13.4642L16.9745 13.8351L16.3319 13.0689ZM17.0954 12.5811H20.6472V13.5811H17.0954V12.5811ZM20.6472 12.5811H24.199V13.5811H20.6472V12.5811ZM24.699 13.0811V14.5075H23.699V13.0811H24.699ZM34.284 4.09452L34.0344 3.12617L34.0433 3.12386L34.0523 3.12171L34.284 4.09452ZM30.889 6.60505L31.7296 7.14677L31.7251 7.15371L30.889 6.60505ZM30.2899 7.51797L31.126 8.06663L30.8298 8.51797H30.2899V7.51797ZM24.199 10.9414H25.199V11.9414H24.199V10.9414ZM16.9242 11.0983L17.1337 12.0762L17.1282 12.0773L16.9242 11.0983ZM14.4422 12.9384L13.571 12.4474L13.5731 12.4437L14.4422 12.9384ZM14 13.723H13V13.4606L13.1288 13.232L14 13.723ZM14 65.3601L13.1188 65.8329L13 65.6114V65.3601H14ZM14.3138 65.9449L13.4345 66.4212L13.4327 66.4177L14.3138 65.9449ZM16.2966 67.7993L16.6714 66.8722L16.681 66.876L16.6905 66.8801L16.2966 67.7993ZM56.0514 67.029L55.3539 66.3123L55.3617 66.3048L56.0514 67.029ZM56.9073 65.9306L56.0294 65.4518L56.0311 65.4487L56.9073 65.9306ZM57.2211 65.3601H58.2211V65.6169L58.0973 65.842L57.2211 65.3601ZM57.2211 13.723L58.0973 13.2411L58.2211 13.4661V13.723H57.2211ZM56.9073 13.1524L56.031 13.6344L56.0244 13.622L56.9073 13.1524ZM55.1527 11.4264L54.684 12.3099L54.6719 12.3032L55.1527 11.4264ZM50.8449 11.1126L50.8561 10.1127L50.8575 10.1127L50.8449 11.1126ZM47.022 11.0698L47.0109 12.0697L46.022 12.0587V11.0698H47.022ZM40.9312 7.51797V8.51797H40.3913L40.0951 8.06663L40.9312 7.51797ZM40.3321 6.60505L39.496 7.15373L39.4911 7.14618L40.3321 6.60505ZM35.9244 4.00893L35.9719 3.01005L35.9773 3.01034L35.9244 4.00893ZM36.9086 6.14859L36.575 7.09137L36.565 7.08771L36.9086 6.14859ZM38.9769 8.17413L38.0764 8.60889L38.0734 8.60272L38.9769 8.17413ZM39.9184 9.35808L39.5856 10.3011L39.5797 10.299L39.9184 9.35808ZM45.1677 9.51499V8.51499H46.1794L46.1676 9.52661L45.1677 9.51499ZM45.1392 11.9685L46.1391 11.9801L46.139 11.9858L45.1392 11.9685ZM45.0964 14.4362L46.0962 14.4535L46.0792 15.4362H45.0964V14.4362ZM26.2674 14.4362V15.4362H25.2847L25.2675 14.4536L26.2674 14.4362ZM26.2246 11.9827L25.2247 12.0002L25.2246 11.9944L26.2246 11.9827ZM26.196 9.54351L25.1961 9.55521L25.1845 8.56481L26.1748 8.54374L26.196 9.54351ZM28.8778 9.48646L28.8565 8.48666L28.8633 8.48656L28.8778 9.48646ZM32.2014 8.54501L33.1524 8.8541L33.1516 8.85656L32.2014 8.54501ZM34.555 6.09153L34.259 5.13632L34.2656 5.13432L34.555 6.09153ZM34.5335 5.06288C33.4082 5.35292 32.429 6.06142 31.7296 7.14675L30.0485 6.06335C31.0037 4.5811 32.3924 3.54934 34.0344 3.12617L34.5335 5.06288ZM31.7251 7.15371L31.126 8.06663L29.4539 6.96931L30.053 6.0564L31.7251 7.15371ZM30.2899 8.51797H27.5369V6.51797H30.2899V8.51797ZM27.5369 8.51797C26.6504 8.51797 26.0474 8.51394 25.6069 8.53769C25.1282 8.5635 25.049 8.61849 25.0826 8.59835C25.236 8.50631 25.2405 8.35447 25.2223 8.47701C25.1942 8.66644 25.199 8.94147 25.199 9.51499H23.199C23.199 9.05433 23.1878 8.56265 23.2439 8.18374C23.31 7.73793 23.499 7.21611 24.0536 6.88336C24.4884 6.6225 25.027 6.56605 25.4992 6.5406C26.0095 6.51308 26.6903 6.51797 27.5369 6.51797V8.51797ZM25.199 9.51499V10.9414H23.199V9.51499H25.199ZM24.199 11.9414H20.9182V9.94143H24.199V11.9414ZM20.9182 11.9414C20.0242 11.9414 19.1388 11.9591 18.4311 11.987C18.0768 12.001 17.7723 12.0174 17.5362 12.035C17.418 12.0437 17.3217 12.0525 17.2475 12.0608C17.2106 12.0649 17.182 12.0687 17.1608 12.0718C17.1384 12.0751 17.1307 12.0768 17.1337 12.0761L16.7147 10.1205C17.0173 10.0557 17.6613 10.0159 18.3522 9.98857C19.0888 9.95947 20.0006 9.94143 20.9182 9.94143V11.9414ZM17.1282 12.0773C16.3973 12.2296 15.705 12.7414 15.3113 13.4331L13.5731 12.4437C14.235 11.2811 15.397 10.395 16.7202 10.1194L17.1282 12.0773ZM15.3133 13.4295L14.8712 14.214L13.1288 13.232L13.571 12.4474L15.3133 13.4295ZM15 13.723V39.5415H13V13.723H15ZM15 39.5415V65.3601H13V39.5415H15ZM14.8812 64.8872L15.195 65.4721L13.4327 66.4177L13.1188 65.8329L14.8812 64.8872ZM15.1931 65.4686C15.3109 65.6861 15.5595 65.999 15.8783 66.2991C16.2037 66.6055 16.5013 66.8034 16.6714 66.8722L15.9218 68.7264C15.4214 68.5241 14.913 68.1372 14.5074 67.7553C14.0951 67.3672 13.6876 66.8884 13.4345 66.4212L15.1931 65.4686ZM16.6905 66.8801C16.59 66.837 16.5469 66.8458 16.7026 66.8632C16.8231 66.8767 17.012 66.8907 17.2995 66.9037C17.8719 66.9296 18.7728 66.9491 20.1706 66.9634C22.962 66.9918 27.6849 66.999 35.6105 66.999V68.999C27.6884 68.999 22.954 68.9918 20.1502 68.9633C18.7504 68.949 17.8193 68.9293 17.2091 68.9017C16.9053 68.8879 16.6653 68.8716 16.4797 68.8508C16.3293 68.8339 16.103 68.8043 15.9026 68.7184L16.6905 66.8801ZM35.6105 66.999C46.0964 66.999 50.9 67.0164 53.2295 66.9056C54.4295 66.8485 54.8159 66.7593 54.9606 66.6983C55.0603 66.6563 54.9095 66.7449 55.3539 66.3124L56.7489 67.7456C56.6584 67.8337 56.3007 68.3039 55.7372 68.5414C55.2186 68.7599 54.4852 68.8481 53.3245 68.9033C50.9324 69.0172 46.0505 68.999 35.6105 68.999V66.999ZM55.3617 66.3048C55.5921 66.0855 55.9116 65.6678 56.0294 65.4518L57.7852 66.4095C57.5606 66.8211 57.1099 67.4019 56.7411 67.7531L55.3617 66.3048ZM56.0311 65.4487L56.3449 64.8781L58.0973 65.842L57.7835 66.4125L56.0311 65.4487ZM56.2211 65.3601V39.5415H58.2211V65.3601H56.2211ZM56.2211 39.5415V13.723H58.2211V39.5415H56.2211ZM56.3449 14.2049L56.0311 13.6343L57.7835 12.6705L58.0973 13.2411L56.3449 14.2049ZM56.0244 13.622C55.7668 13.1378 55.2171 12.5926 54.684 12.3098L55.6215 10.5431C56.4863 11.002 57.3345 11.8262 57.7901 12.6828L56.0244 13.622ZM54.6719 12.3032C54.6352 12.2831 54.574 12.2307 54.0346 12.1921C53.4738 12.1519 52.5424 12.1341 50.8323 12.1125L50.8575 10.1127C52.5423 10.1339 53.5438 10.1518 54.1776 10.1972C54.8328 10.2441 55.2281 10.3272 55.6336 10.5496L54.6719 12.3032ZM50.8337 12.1125L47.0109 12.0697L47.0332 10.0699L50.8561 10.1127L50.8337 12.1125ZM46.022 11.0698V9.57204H48.022V11.0698H46.022ZM46.022 9.57204C46.022 8.98044 46.028 8.68992 45.9996 8.4871C45.9796 8.34447 45.9771 8.49752 46.1338 8.59403C46.1729 8.61815 46.1011 8.56225 45.6208 8.53661C45.1794 8.51305 44.5758 8.51797 43.6842 8.51797V6.51797C44.5329 6.51797 45.2166 6.51219 45.7274 6.53945C46.1992 6.56463 46.7443 6.62106 47.1828 6.89124C47.7389 7.23381 47.9182 7.76665 47.9803 8.20975C48.0339 8.59267 48.022 9.09382 48.022 9.57204H46.022ZM43.6842 8.51797H40.9312V6.51797H43.6842V8.51797ZM40.0951 8.06663L39.496 7.15371L41.1681 6.0564L41.7672 6.96931L40.0951 8.06663ZM39.4911 7.14618C38.6053 5.76958 37.4258 5.08996 35.8714 5.00753L35.9773 3.01034C38.1887 3.12761 39.9477 4.15972 41.173 6.06393L39.4911 7.14618ZM35.8768 5.0078C35.616 4.99538 35.315 4.99832 35.0456 5.01283C34.7576 5.02836 34.5728 5.05371 34.5156 5.06733L34.0523 3.12171C34.4875 3.0181 35.3391 2.97993 35.9719 3.01007L35.8768 5.0078ZM37.2422 5.20587C38.4694 5.64013 39.2632 6.4443 39.8804 7.74555L38.0734 8.60272C37.6351 7.67872 37.2021 7.31321 36.575 7.09131L37.2422 5.20587ZM39.8775 7.73938C40.0774 8.15352 40.1819 8.32494 40.2453 8.40448C40.268 8.43289 40.271 8.43057 40.2559 8.41988C40.2404 8.40884 40.2336 8.40874 40.2571 8.41719L39.5797 10.299C39.2325 10.174 38.9418 9.97748 38.6821 9.65195C38.4638 9.37844 38.2759 9.02208 38.0764 8.60888L39.8775 7.73938ZM40.2512 8.41509C40.1855 8.3919 40.1942 8.40411 40.3822 8.42458C40.5302 8.44071 40.7318 8.45646 40.9779 8.47018C41.4683 8.49752 42.1021 8.51499 42.7713 8.51499V10.515C42.071 10.515 41.3997 10.4968 40.8666 10.4671C40.6009 10.4523 40.3613 10.4341 40.1656 10.4128C40.0098 10.3959 39.7725 10.367 39.5856 10.3011L40.2512 8.41509ZM42.7713 8.51499H45.1677V10.515H42.7713V8.51499ZM46.1676 9.52661L46.1391 11.9801L44.1392 11.9568L44.1677 9.50336L46.1676 9.52661ZM46.139 11.9858L46.0962 14.4535L44.0965 14.4189L44.1393 11.9511L46.139 11.9858ZM45.0964 15.4362H35.6819V13.4362H45.0964V15.4362ZM35.6819 15.4362H26.2674V13.4362H35.6819V15.4362ZM25.2675 14.4536L25.2247 12.0002L27.2244 11.9653L27.2672 14.4188L25.2675 14.4536ZM25.2246 11.9944L25.1961 9.55521L27.196 9.53182L27.2245 11.971L25.2246 11.9944ZM26.1748 8.54374L28.8565 8.48668L28.899 10.4862L26.2173 10.5433L26.1748 8.54374ZM28.8633 8.48656C29.61 8.47579 30.1507 8.46614 30.5567 8.44502C30.9765 8.42318 31.1751 8.3917 31.2705 8.36446C31.3236 8.34928 31.2427 8.36705 31.1755 8.45775C31.1554 8.48487 31.1696 8.48206 31.2511 8.23346L33.1516 8.85656C33.0904 9.04302 32.9888 9.37008 32.7823 9.64861C32.5288 9.99071 32.1911 10.1814 31.8199 10.2875C31.4909 10.3815 31.0976 10.4196 30.6606 10.4423C30.2098 10.4658 29.629 10.4757 28.8922 10.4864L28.8633 8.48656ZM31.2503 8.23592C31.7093 6.82357 32.8998 5.55751 34.259 5.13634L34.851 7.04673C34.1846 7.25319 33.4351 7.98415 33.1524 8.8541L31.2503 8.23592ZM34.2656 5.13432C34.7157 4.99824 35.2768 4.95863 35.7669 4.97058C36.2549 4.98249 36.8133 5.04892 37.2522 5.20947L36.565 7.08771C36.419 7.0343 36.1074 6.97948 35.7181 6.96999C35.3309 6.96054 35.0076 6.99939 34.8444 7.04875L34.2656 5.13432Z" fill="#0B2D1F" mask="url(#path-1-outside-1_6297_46150)"/>
</g>
</g>
<path id="Vector_2" d="M30.1592 31.2655C29.4605 31.5868 28.9156 32.3553 28.7759 33.2076L28.6781 33.7945L26.8058 34.8703C25.1291 35.8205 24.9056 35.9183 24.5842 35.7646C24.1091 35.555 23.0612 35.5689 22.6001 35.8065C20.8955 36.7007 20.7138 38.8664 22.2229 40.0261C23.7319 41.1719 26.0653 40.0401 26.0653 38.1678V37.5949L27.9096 36.533C29.74 35.4711 29.754 35.4711 30.2011 35.6807C30.6901 35.9183 31.5983 35.9602 32.1013 35.7646C32.3808 35.6668 32.6882 35.8624 34.4487 37.2317C36.4048 38.7686 36.4747 38.8385 36.4328 39.2996C36.3769 39.8166 36.6982 40.6828 37.0755 41.102C37.4528 41.5212 38.3051 41.8984 38.8779 41.8984C40.2612 41.8845 41.3371 40.8226 41.3371 39.4672V38.7127L43.1116 37.2456L44.8861 35.7785L45.8082 35.8484C46.6186 35.9183 46.8003 35.8903 47.3452 35.555C48.7564 34.7446 48.966 32.7884 47.7783 31.6707C46.5488 30.5389 44.6625 30.9022 43.8661 32.4252C43.7543 32.6347 43.6705 33.1098 43.6705 33.501V34.1997L41.896 35.6668L40.1075 37.1339L39.3251 37.05C38.8779 37.0081 38.347 37.036 38.1234 37.1059C37.7462 37.2456 37.6064 37.1478 35.6643 35.6528C33.8758 34.2555 33.6243 34.018 33.6942 33.7386C33.806 33.2915 33.5405 32.3832 33.1632 31.9082C32.786 31.4331 31.8778 31 31.235 31C30.9696 31 30.4805 31.1257 30.1592 31.2655Z" fill="#0B2D1F"/>
<path id="Vector_3" d="M44.5927 36.7427L44.2294 37.0221V44.8466V52.6572H43.391H42.5527V47.7808C42.5527 43.0722 42.5387 42.9045 42.2593 42.5412L41.9798 42.1779H39.6185H37.2572L36.9777 42.5412C36.6983 42.9045 36.6843 43.0722 36.6843 47.7808V52.6572H35.846H35.0076V45.8946V39.118L34.6443 38.8385C34.309 38.573 34.0854 38.5451 32.1433 38.5451C30.2011 38.5451 29.9776 38.573 29.6422 38.8385L29.2789 39.118V45.8946V52.6572H28.4406H27.6023V47.7808C27.6023 43.0722 27.5883 42.9045 27.3088 42.5412L27.0294 42.1779H24.6681C22.4185 42.1779 22.2928 42.1919 22.0133 42.4853C21.7478 42.7787 21.7339 42.9464 21.7339 47.725V52.6572H20.8676C19.6799 52.6572 19.3865 52.755 19.135 53.244C18.9673 53.5794 18.9534 53.7051 19.1071 54.0125C19.2049 54.2221 19.4424 54.4736 19.638 54.5714C20.0991 54.809 51.3553 54.8369 52.026 54.5994C52.5569 54.4177 52.8224 53.8449 52.6268 53.3139C52.4312 52.7969 52.0679 52.6572 50.9501 52.6572H49.9581V44.9025V37.1339L49.6088 36.7986C49.2874 36.4632 49.2175 36.4492 47.1217 36.4492C45.1516 36.4492 44.928 36.4772 44.5927 36.7427ZM48.0019 45.6012V52.6572H47.0937H46.1855V45.6012V38.5451H47.0937H48.0019V45.6012ZM33.0515 46.6491V52.6572H32.1433H31.2351V46.6491V40.641H32.1433H33.0515V46.6491ZM25.5064 48.3956V52.6572H24.5982H23.69V48.3956V44.1341H24.5982H25.5064V48.3956ZM40.4568 48.3956V52.6572H39.5486H38.6404V48.3956V44.1341H39.5486H40.4568V48.3956Z" fill="#0B2D1F"/>
</g>
</svg>
