<svg width="72" height="72" viewBox="0 0 72 72" fill="none" xmlns="http://www.w3.org/2000/svg">
<g id="nine-box-matrix">
<g id="Group 1171275312">
<path id="Subtract" fill-rule="evenodd" clip-rule="evenodd" d="M9.1285 4.48591C8.85804 4.27492 8.47653 4.28296 8.21615 4.50627C8.09054 4.61401 7.96503 4.72189 7.83953 4.82976C7.26339 5.32497 6.68723 5.82019 6.10006 6.30208C5.70274 6.62822 5.30222 6.9506 4.90032 7.27133C3.849 8.1103 3.69464 9.64729 4.56298 10.6745C5.06682 11.2705 5.95543 11.3526 6.55995 10.859L6.87594 10.601V64.9048H60.2689C59.6048 65.5367 59.5678 66.5836 60.1858 67.2607L60.2957 67.3811C61.0106 68.1643 62.256 68.2083 63.0357 67.4895C63.1332 67.3997 63.2289 67.3105 63.3219 67.2223C64.0023 66.5787 64.6838 65.9103 65.3659 65.2413C65.9182 64.6997 66.4708 64.1577 67.0235 63.6282C67.3793 63.2873 67.3904 62.7205 67.0455 62.3686C66.223 61.5294 65.3229 60.5975 64.4328 59.6761C63.9789 59.2061 63.5275 58.7388 63.0904 58.2879C62.3701 57.5449 61.1831 57.5381 60.4497 58.2681L60.4071 58.3105C59.6775 59.0367 59.7009 60.2248 60.4585 60.9218C60.4353 60.9557 60.4115 60.9889 60.3875 61.0224C60.3775 61.0364 60.3674 61.0504 60.3574 61.0646H10.7288C10.7249 61.0219 10.7198 60.9788 10.7147 60.9355C10.7035 60.8404 10.6922 60.744 10.6922 60.6476C10.692 60.2392 10.6917 59.8307 10.6914 59.4222C10.6898 57.2418 10.6882 55.0593 10.701 52.8787C10.6984 52.7621 10.7155 52.6468 10.7508 52.5374V47.0648C10.7392 46.9602 10.7283 46.8741 10.7189 46.8001C10.7007 46.6573 10.6884 46.56 10.6884 46.4632L10.6878 46.0043C10.6841 43.2509 10.6805 40.4975 10.6972 37.744C10.6956 37.6222 10.714 37.5019 10.7508 37.3877V31.6124L10.7263 31.6369V10.5125L10.8833 10.6355C11.6966 11.2723 12.871 11.1358 13.5166 10.3294C14.1729 9.50959 14.0325 8.3115 13.2045 7.66557L9.1285 4.48591Z" fill="#0D313B"/>
<g id="Group 1171275302">
<path id="Rectangle 34624891" d="M53.2949 41.5392C53.2949 40.8525 53.8515 40.2959 54.5382 40.2959H66.1991C66.8858 40.2959 67.4424 40.8525 67.4424 41.5392V53.2C67.4424 53.8867 66.8858 54.4433 66.1991 54.4433H54.5382C53.8515 54.4433 53.2949 53.8867 53.2949 53.2V41.5392Z" fill="#36C5F0"/>
<path id="Rectangle 34624891 (Stroke)" fill-rule="evenodd" clip-rule="evenodd" d="M55.7814 42.7824V51.9568H64.9559V42.7824H55.7814ZM54.5382 40.2959C53.8515 40.2959 53.2949 40.8525 53.2949 41.5392V53.2C53.2949 53.8867 53.8515 54.4433 54.5382 54.4433H66.1991C66.8858 54.4433 67.4424 53.8867 67.4424 53.2V41.5392C67.4424 40.8525 66.8858 40.2959 66.1991 40.2959H54.5382Z" fill="#0D313B"/>
</g>
<g id="Group 1171275306">
<path id="Rectangle 34624891_2" d="M53.2949 23.3907C53.2949 22.7041 53.8515 22.1475 54.5382 22.1475H66.1991C66.8858 22.1475 67.4424 22.7041 67.4424 23.3907V35.0516C67.4424 35.7382 66.8858 36.2948 66.1991 36.2948H54.5382C53.8515 36.2948 53.2949 35.7382 53.2949 35.0516V23.3907Z" fill="#36C5F0"/>
<path id="Rectangle 34624891 (Stroke)_2" fill-rule="evenodd" clip-rule="evenodd" d="M55.7814 24.634V33.8083H64.9559V24.634H55.7814ZM54.5382 22.1475C53.8515 22.1475 53.2949 22.7041 53.2949 23.3907V35.0516C53.2949 35.7382 53.8515 36.2948 54.5382 36.2948H66.1991C66.8858 36.2948 67.4424 35.7382 67.4424 35.0516V23.3907C67.4424 22.7041 66.8858 22.1475 66.1991 22.1475H54.5382Z" fill="#0D313B"/>
</g>
<g id="Group 1171275309">
<path id="Rectangle 34624891_3" d="M53.2949 5.24326C53.2949 4.55662 53.8515 4 54.5382 4H66.1991C66.8858 4 67.4424 4.55662 67.4424 5.24326V16.9041C67.4424 17.5908 66.8858 18.1474 66.1991 18.1474H54.5382C53.8515 18.1474 53.2949 17.5908 53.2949 16.9041V5.24326Z" fill="#36C5F0"/>
<path id="Rectangle 34624891 (Stroke)_3" fill-rule="evenodd" clip-rule="evenodd" d="M55.7814 6.48651V15.6609H64.9559V6.48651H55.7814ZM54.5382 4C53.8515 4 53.2949 4.55662 53.2949 5.24326V16.9041C53.2949 17.5908 53.8515 18.1474 54.5382 18.1474H66.1991C66.8858 18.1474 67.4424 17.5908 67.4424 16.9041V5.24326C67.4424 4.55662 66.8858 4 66.1991 4H54.5382Z" fill="#0D313B"/>
</g>
<g id="Group 1171275304">
<path id="Rectangle 34624891_4" d="M35.1484 41.5392C35.1484 40.8525 35.7051 40.2959 36.3917 40.2959H48.0526C48.7393 40.2959 49.2959 40.8525 49.2959 41.5392V53.2C49.2959 53.8867 48.7393 54.4433 48.0526 54.4433H36.3917C35.7051 54.4433 35.1484 53.8867 35.1484 53.2V41.5392Z" fill="#36C5F0"/>
<path id="Rectangle 34624891 (Stroke)_4" fill-rule="evenodd" clip-rule="evenodd" d="M37.635 42.7824V51.9568H46.8094V42.7824H37.635ZM36.3917 40.2959C35.7051 40.2959 35.1484 40.8525 35.1484 41.5392V53.2C35.1484 53.8867 35.7051 54.4433 36.3917 54.4433H48.0526C48.7393 54.4433 49.2959 53.8867 49.2959 53.2V41.5392C49.2959 40.8525 48.7393 40.2959 48.0526 40.2959H36.3917Z" fill="#0D313B"/>
</g>
<g id="Group 1171275307">
<path id="Rectangle 34624891_5" d="M35.1484 23.3912C35.1484 22.7046 35.7051 22.1479 36.3917 22.1479H48.0526C48.7393 22.1479 49.2959 22.7046 49.2959 23.3912V35.0521C49.2959 35.7387 48.7393 36.2953 48.0526 36.2953H36.3917C35.7051 36.2953 35.1484 35.7387 35.1484 35.0521V23.3912Z" fill="#36C5F0"/>
<path id="Rectangle 34624891 (Stroke)_5" fill-rule="evenodd" clip-rule="evenodd" d="M37.635 24.6345V33.8088H46.8094V24.6345H37.635ZM36.3917 22.1479C35.7051 22.1479 35.1484 22.7046 35.1484 23.3912V35.0521C35.1484 35.7387 35.7051 36.2953 36.3917 36.2953H48.0526C48.7393 36.2953 49.2959 35.7387 49.2959 35.0521V23.3912C49.2959 22.7046 48.7393 22.1479 48.0526 22.1479H36.3917Z" fill="#0D313B"/>
</g>
<g id="Group 1171275310">
<path id="Rectangle 34624891_6" d="M35.1484 5.24326C35.1484 4.55662 35.7051 4 36.3917 4H48.0526C48.7393 4 49.2959 4.55662 49.2959 5.24326V16.9041C49.2959 17.5908 48.7393 18.1474 48.0526 18.1474H36.3917C35.7051 18.1474 35.1484 17.5908 35.1484 16.9041V5.24326Z" fill="#36C5F0"/>
<path id="Rectangle 34624891 (Stroke)_6" fill-rule="evenodd" clip-rule="evenodd" d="M37.635 6.48651V15.6609H46.8094V6.48651H37.635ZM36.3917 4C35.7051 4 35.1484 4.55662 35.1484 5.24326V16.9041C35.1484 17.5908 35.7051 18.1474 36.3917 18.1474H48.0526C48.7393 18.1474 49.2959 17.5908 49.2959 16.9041V5.24326C49.2959 4.55662 48.7393 4 48.0526 4H36.3917Z" fill="#0D313B"/>
</g>
<g id="Group 1171275305">
<path id="Rectangle 34624891_7" d="M17 41.5387C17 40.852 17.5566 40.2954 18.2433 40.2954H29.9042C30.5908 40.2954 31.1475 40.852 31.1475 41.5387V53.1995C31.1475 53.8862 30.5908 54.4428 29.9042 54.4428H18.2433C17.5566 54.4428 17 53.8862 17 53.1995V41.5387Z" fill="#36C5F0"/>
<path id="Rectangle 34624891 (Stroke)_7" fill-rule="evenodd" clip-rule="evenodd" d="M19.4865 42.7819V51.9563H28.6609V42.7819H19.4865ZM18.2433 40.2954C17.5566 40.2954 17 40.852 17 41.5387V53.1995C17 53.8862 17.5566 54.4428 18.2433 54.4428H29.9042C30.5908 54.4428 31.1475 53.8862 31.1475 53.1995V41.5387C31.1475 40.852 30.5908 40.2954 29.9042 40.2954H18.2433Z" fill="#0D313B"/>
</g>
<g id="Group 1171275308">
<path id="Rectangle 34624891_8" d="M17 23.3912C17 22.7046 17.5566 22.1479 18.2433 22.1479H29.9042C30.5908 22.1479 31.1475 22.7046 31.1475 23.3912V35.0521C31.1475 35.7387 30.5908 36.2953 29.9042 36.2953H18.2433C17.5566 36.2953 17 35.7387 17 35.0521V23.3912Z" fill="#36C5F0"/>
<path id="Rectangle 34624891 (Stroke)_8" fill-rule="evenodd" clip-rule="evenodd" d="M19.4865 24.6345V33.8088H28.6609V24.6345H19.4865ZM18.2433 22.1479C17.5566 22.1479 17 22.7046 17 23.3912V35.0521C17 35.7387 17.5566 36.2953 18.2433 36.2953H29.9042C30.5908 36.2953 31.1475 35.7387 31.1475 35.0521V23.3912C31.1475 22.7046 30.5908 22.1479 29.9042 22.1479H18.2433Z" fill="#0D313B"/>
</g>
<g id="Group 1171275311">
<path id="Rectangle 34624891_9" d="M17 5.24326C17 4.55662 17.5566 4 18.2433 4H29.9042C30.5908 4 31.1475 4.55662 31.1475 5.24326V16.9041C31.1475 17.5908 30.5908 18.1474 29.9042 18.1474H18.2433C17.5566 18.1474 17 17.5908 17 16.9041V5.24326Z" fill="#36C5F0"/>
<path id="Rectangle 34624891 (Stroke)_9" fill-rule="evenodd" clip-rule="evenodd" d="M19.4865 6.48651V15.6609H28.6609V6.48651H19.4865ZM18.2433 4C17.5566 4 17 4.55662 17 5.24326V16.9041C17 17.5908 17.5566 18.1474 18.2433 18.1474H29.9042C30.5908 18.1474 31.1475 17.5908 31.1475 16.9041V5.24326C31.1475 4.55662 30.5908 4 29.9042 4H18.2433Z" fill="#0D313B"/>
</g>
</g>
</g>
</svg>
