<svg width="72" height="72" viewBox="0 0 72 72" fill="none" xmlns="http://www.w3.org/2000/svg">
<g id="perfomance-evaluation">
<g id="Group 1171275649">
<g id="Group 1171275647">
<g id="Group">
<path id="Vector" d="M32.9477 7C16.9601 7 4 19.9601 4 35.9477C4 51.9353 16.9601 64.8955 32.9477 64.8955C48.9353 64.8955 61.8955 51.9353 61.8955 35.9477C61.8955 19.9601 48.9353 7 32.9477 7ZM32.9477 60.6076C19.3483 60.6076 8.28788 49.5441 8.28788 35.9477C8.28788 22.3513 19.3483 11.2894 32.9477 11.2894C46.5441 11.2894 57.6076 22.3513 57.6076 35.9477C57.6076 49.5441 46.5441 60.6076 32.9477 60.6076Z" fill="#4D0000"/>
</g>
<path id="Vector_2" d="M31.875 14.5054H34.0189V18.7933H31.875V14.5054Z" fill="#4D0000"/>
<path id="Vector_3" d="M21.2949 17.9156L23.1539 16.8422L25.2979 20.5571L23.4389 21.6291L21.2949 17.9156Z" fill="#4D0000"/>
<path id="Vector_4" d="M13.8438 26.1553L14.9172 24.2963L18.6307 26.4402L17.5572 28.2992L13.8438 26.1553Z" fill="#4D0000"/>
<path id="Vector_5" d="M47.2676 45.4552L48.3411 43.5962L52.0545 45.7401L50.981 47.5991L47.2676 45.4552Z" fill="#4D0000"/>
<path id="Vector_6" d="M11.5059 34.8757H15.7937V37.0197H11.5059V34.8757Z" fill="#4D0000"/>
<path id="Vector_7" d="M50.1016 34.8757H54.3894V37.0197H50.1016V34.8757Z" fill="#4D0000"/>
<path id="Vector_8" d="M13.8418 45.7373L17.5568 43.5948L18.6287 45.4538L14.9138 47.5963L13.8418 45.7373Z" fill="#4D0000"/>
<path id="Vector_9" d="M47.2676 26.4387L50.9825 24.2963L52.0545 26.1553L48.3395 28.2977L47.2676 26.4387Z" fill="#4D0000"/>
<path id="Vector_10" d="M40.5977 20.5571L42.7386 16.8422L44.5991 17.9141L42.4566 21.6291L40.5977 20.5571Z" fill="#4D0000"/>
<path id="Vector_11" d="M32.9464 46.6689C34.7224 46.6689 36.1623 45.2276 36.1623 43.453C36.1623 42.0554 35.2637 40.8779 34.0184 40.4331V44.525H31.8744V40.4331C30.6291 40.8779 29.7305 42.0554 29.7305 43.453C29.7305 45.2276 31.1703 46.6689 32.9464 46.6689Z" fill="#4D0000"/>
<path id="Vector_12" d="M34.0189 40.4332V23.0826H31.875V40.4332C32.2112 40.3141 32.57 40.2372 32.947 40.2372C33.3239 40.2372 33.6827 40.3141 34.0189 40.4332Z" fill="#4D0000"/>
<path id="Vector_13" d="M34.0189 44.5249V40.4331C33.6827 40.314 33.3239 40.2371 32.947 40.2371C32.57 40.2371 32.2112 40.314 31.875 40.4331V44.5249H34.0189Z" fill="#4D0000"/>
</g>
<g id="Group 1171275648">
<circle id="Ellipse 2708" cx="52.4859" cy="49.6666" r="17.0152" fill="#FF3333" stroke="#4D0000" stroke-width="3"/>
<path id="Vector_14" d="M56.5504 45.0678C55.919 45.2657 55.4667 46.029 55.5892 46.6981C55.7023 47.2918 56.2677 47.8007 56.8237 47.8007C56.9557 47.8007 57.0593 47.829 57.0593 47.8761C57.0593 47.9138 56.3148 48.6865 55.4101 49.5912L53.761 51.2404L51.471 48.9504C48.9925 46.4813 48.8511 46.3777 48.1349 46.5662C47.8428 46.651 47.2396 47.207 44.9308 49.5158C42.4994 51.9566 42.0848 52.4184 42.0282 52.72C41.8586 53.6435 42.4711 54.3974 43.3947 54.3974C43.6114 54.3974 43.8753 54.3503 43.9884 54.2937C44.1015 54.2372 45.157 53.2288 46.3444 52.0603L48.4836 49.9211L50.7265 52.1545C51.9516 53.3796 53.0542 54.4257 53.1673 54.4822C53.4311 54.6142 54.0908 54.6142 54.3547 54.4822C54.4678 54.4257 55.5798 53.3608 56.8332 52.1168L59.1043 49.8551L59.1609 50.2321C59.3776 51.542 61.187 51.8153 61.7996 50.6279C61.9503 50.3357 61.9598 50.053 61.9409 48.1117C61.9126 45.7086 61.9032 45.6992 61.2624 45.2185C61.0174 45.0301 60.8666 45.0206 58.9158 45.0018C57.7661 44.9924 56.7012 45.0206 56.5504 45.0678Z" fill="#4D0000"/>
</g>
</g>
</g>
</svg>
