<svg width="72" height="72" viewBox="0 0 72 72" fill="none" xmlns="http://www.w3.org/2000/svg">
<g id="nine-box-analysis">
<g id="Group 1171275633">
<g id="Group 1171275312">
<path id="Subtract" fill-rule="evenodd" clip-rule="evenodd" d="M15.5277 4.40936C15.3 4.23168 14.9787 4.23846 14.7594 4.42651C14.6536 4.51724 14.5479 4.60808 14.4423 4.69893C13.9571 5.11594 13.4719 5.53297 12.9775 5.93876C12.6429 6.21341 12.3056 6.48489 11.9671 6.75497C11.0818 7.46148 10.9518 8.75579 11.6831 9.6208C12.1074 10.1227 12.8557 10.1919 13.3647 9.77618L13.6308 9.5589V55.2884H58.5933C58.034 55.8205 58.0029 56.7022 58.5234 57.2724L58.6158 57.3737C59.2179 58.0333 60.2667 58.0703 60.9233 57.465C61.0054 57.3894 61.086 57.3143 61.1643 57.24C61.7372 56.6981 62.3111 56.1352 62.8855 55.5718C63.3506 55.1157 63.8159 54.6593 64.2814 54.2134C64.5811 53.9263 64.5904 53.449 64.2999 53.1527C63.6073 52.446 62.8493 51.6612 62.0997 50.8852C61.7175 50.4895 61.3374 50.096 60.9693 49.7163C60.3628 49.0906 59.3632 49.0849 58.7456 49.6997L58.7097 49.7354C58.0953 50.3469 58.115 51.3474 58.753 51.9343C58.7394 51.9541 58.7256 51.9736 58.7117 51.9931C58.6972 52.0135 58.6825 52.0339 58.6678 52.0545H16.8753C16.872 52.0186 16.8678 51.9823 16.8635 51.9459C16.854 51.8657 16.8445 51.7846 16.8445 51.7034C16.8443 51.3596 16.8441 51.0157 16.8438 50.6717C16.8425 48.8355 16.8412 46.9976 16.8519 45.1612C16.8497 45.0627 16.8642 44.9654 16.8941 44.8732V40.2671C16.8842 40.1782 16.8749 40.1051 16.867 40.0424C16.8517 39.9221 16.8413 39.8401 16.8413 39.7586L16.8408 39.3721C16.8377 37.0535 16.8346 34.7348 16.8487 32.4162C16.8474 32.3134 16.8629 32.2119 16.8941 32.1155V27.2525L16.8732 27.2733V9.48441L17.0054 9.58795C17.6903 10.1243 18.6793 10.0093 19.2229 9.33021C19.7756 8.63983 19.6574 7.63091 18.9601 7.08697L15.5277 4.40936Z" fill="#4D0000"/>
<g id="Group 1171275302">
<path id="Rectangle 34624891" d="M52.7207 35.6119C52.7207 35.0337 53.1894 34.5649 53.7677 34.5649H63.5874C64.1656 34.5649 64.6344 35.0337 64.6344 35.6119V45.4316C64.6344 46.0098 64.1656 46.4785 63.5874 46.4785H53.7677C53.1894 46.4785 52.7207 46.0098 52.7207 45.4316V35.6119Z" fill="#BE1A2E"/>
<path id="Rectangle 34624891 (Stroke)" fill-rule="evenodd" clip-rule="evenodd" d="M54.8146 36.6588V44.3846H62.5404V36.6588H54.8146ZM53.7677 34.5649C53.1894 34.5649 52.7207 35.0337 52.7207 35.6119V45.4316C52.7207 46.0098 53.1894 46.4785 53.7677 46.4785H63.5874C64.1656 46.4785 64.6344 46.0098 64.6344 45.4316V35.6119C64.6344 35.0337 64.1656 34.5649 63.5874 34.5649H53.7677Z" fill="#4D0000"/>
</g>
<g id="Group 1171275306">
<path id="Rectangle 34624891_2" d="M52.7207 20.3288C52.7207 19.7506 53.1894 19.2819 53.7677 19.2819H63.5874C64.1656 19.2819 64.6344 19.7506 64.6344 20.3288V30.1485C64.6344 30.7267 64.1656 31.1954 63.5874 31.1954H53.7677C53.1894 31.1954 52.7207 30.7267 52.7207 30.1485V20.3288Z" fill="#BE1A2E"/>
<path id="Rectangle 34624891 (Stroke)_2" fill-rule="evenodd" clip-rule="evenodd" d="M54.8146 21.3758V29.1015H62.5404V21.3758H54.8146ZM53.7677 19.2819C53.1894 19.2819 52.7207 19.7506 52.7207 20.3288V30.1485C52.7207 30.7267 53.1894 31.1954 53.7677 31.1954H63.5874C64.1656 31.1954 64.6344 30.7267 64.6344 30.1485V20.3288C64.6344 19.7506 64.1656 19.2819 63.5874 19.2819H53.7677Z" fill="#4D0000"/>
</g>
<g id="Group 1171275309">
<path id="Rectangle 34624891_3" d="M52.7207 5.04695C52.7207 4.46874 53.1894 4 53.7677 4H63.5874C64.1656 4 64.6344 4.46874 64.6344 5.04695V14.8666C64.6344 15.4449 64.1656 15.9136 63.5874 15.9136H53.7677C53.1894 15.9136 52.7207 15.4449 52.7207 14.8666V5.04695Z" fill="#BE1A2E"/>
<path id="Rectangle 34624891 (Stroke)_3" fill-rule="evenodd" clip-rule="evenodd" d="M54.8146 6.0939V13.8197H62.5404V6.0939H54.8146ZM53.7677 4C53.1894 4 52.7207 4.46874 52.7207 5.04695V14.8666C52.7207 15.4449 53.1894 15.9136 53.7677 15.9136H63.5874C64.1656 15.9136 64.6344 15.4449 64.6344 14.8666V5.04695C64.6344 4.46874 64.1656 4 63.5874 4H53.7677Z" fill="#4D0000"/>
</g>
<g id="Group 1171275304">
<path id="Rectangle 34624891_4" d="M37.4375 35.6119C37.4375 35.0337 37.9062 34.5649 38.4845 34.5649H48.3042C48.8824 34.5649 49.3512 35.0337 49.3512 35.6119V45.4316C49.3512 46.0098 48.8824 46.4785 48.3042 46.4785H38.4845C37.9062 46.4785 37.4375 46.0098 37.4375 45.4316V35.6119Z" fill="#BE1A2E"/>
<path id="Rectangle 34624891 (Stroke)_4" fill-rule="evenodd" clip-rule="evenodd" d="M39.5314 36.6588V44.3846H47.2572V36.6588H39.5314ZM38.4845 34.5649C37.9062 34.5649 37.4375 35.0337 37.4375 35.6119V45.4316C37.4375 46.0098 37.9062 46.4785 38.4845 46.4785H48.3042C48.8824 46.4785 49.3512 46.0098 49.3512 45.4316V35.6119C49.3512 35.0337 48.8824 34.5649 48.3042 34.5649H38.4845Z" fill="#4D0000"/>
</g>
<g id="Group 1171275307">
<path id="Rectangle 34624891_5" d="M37.4375 20.3292C37.4375 19.751 37.9062 19.2822 38.4845 19.2822H48.3042C48.8824 19.2822 49.3512 19.751 49.3512 20.3292V30.1489C49.3512 30.7271 48.8824 31.1958 48.3042 31.1958H38.4845C37.9062 31.1958 37.4375 30.7271 37.4375 30.1489V20.3292Z" fill="#BE1A2E"/>
<path id="Rectangle 34624891 (Stroke)_5" fill-rule="evenodd" clip-rule="evenodd" d="M39.5314 21.3761V29.1019H47.2572V21.3761H39.5314ZM38.4845 19.2822C37.9062 19.2822 37.4375 19.751 37.4375 20.3292V30.1489C37.4375 30.7271 37.9062 31.1958 38.4845 31.1958H48.3042C48.8824 31.1958 49.3512 30.7271 49.3512 30.1489V20.3292C49.3512 19.751 48.8824 19.2822 48.3042 19.2822H38.4845Z" fill="#4D0000"/>
</g>
<g id="Group 1171275310">
<path id="Rectangle 34624891_6" d="M37.4375 5.04695C37.4375 4.46874 37.9062 4 38.4845 4H48.3042C48.8824 4 49.3512 4.46874 49.3512 5.04695V14.8666C49.3512 15.4449 48.8824 15.9136 48.3042 15.9136H38.4845C37.9062 15.9136 37.4375 15.4449 37.4375 14.8666V5.04695Z" fill="#BE1A2E"/>
<path id="Rectangle 34624891 (Stroke)_6" fill-rule="evenodd" clip-rule="evenodd" d="M39.5314 6.0939V13.8197H47.2572V6.0939H39.5314ZM38.4845 4C37.9062 4 37.4375 4.46874 37.4375 5.04695V14.8666C37.4375 15.4449 37.9062 15.9136 38.4845 15.9136H48.3042C48.8824 15.9136 49.3512 15.4449 49.3512 14.8666V5.04695C49.3512 4.46874 48.8824 4 48.3042 4H38.4845Z" fill="#4D0000"/>
</g>
<g id="Group 1171275305">
<path id="Rectangle 34624891_7" d="M22.1562 35.6116C22.1562 35.0334 22.625 34.5647 23.2032 34.5647H33.0229C33.6012 34.5647 34.0699 35.0334 34.0699 35.6116V45.4313C34.0699 46.0095 33.6012 46.4783 33.0229 46.4783H23.2032C22.625 46.4783 22.1562 46.0095 22.1562 45.4313V35.6116Z" fill="#BE1A2E"/>
<path id="Rectangle 34624891 (Stroke)_7" fill-rule="evenodd" clip-rule="evenodd" d="M24.2502 36.6586V44.3844H31.976V36.6586H24.2502ZM23.2032 34.5647C22.625 34.5647 22.1562 35.0334 22.1562 35.6116V45.4313C22.1562 46.0095 22.625 46.4783 23.2032 46.4783H33.0229C33.6012 46.4783 34.0699 46.0095 34.0699 45.4313V35.6116C34.0699 35.0334 33.6012 34.5647 33.0229 34.5647H23.2032Z" fill="#4D0000"/>
</g>
<g id="Group 1171275308">
<path id="Rectangle 34624891_8" d="M22.1562 20.3292C22.1562 19.751 22.625 19.2822 23.2032 19.2822H33.0229C33.6012 19.2822 34.0699 19.751 34.0699 20.3292V30.1489C34.0699 30.7271 33.6012 31.1958 33.0229 31.1958H23.2032C22.625 31.1958 22.1562 30.7271 22.1562 30.1489V20.3292Z" fill="#BE1A2E"/>
<path id="Rectangle 34624891 (Stroke)_8" fill-rule="evenodd" clip-rule="evenodd" d="M24.2502 21.3761V29.1019H31.976V21.3761H24.2502ZM23.2032 19.2822C22.625 19.2822 22.1562 19.751 22.1562 20.3292V30.1489C22.1562 30.7271 22.625 31.1958 23.2032 31.1958H33.0229C33.6012 31.1958 34.0699 30.7271 34.0699 30.1489V20.3292C34.0699 19.751 33.6012 19.2822 33.0229 19.2822H23.2032Z" fill="#4D0000"/>
</g>
<g id="Group 1171275311">
<path id="Rectangle 34624891_9" d="M22.1562 5.04695C22.1562 4.46874 22.625 4 23.2032 4H33.0229C33.6012 4 34.0699 4.46874 34.0699 5.04695V14.8666C34.0699 15.4449 33.6012 15.9136 33.0229 15.9136H23.2032C22.625 15.9136 22.1562 15.4449 22.1562 14.8666V5.04695Z" fill="#BE1A2E"/>
<path id="Rectangle 34624891 (Stroke)_9" fill-rule="evenodd" clip-rule="evenodd" d="M24.2502 6.0939V13.8197H31.976V6.0939H24.2502ZM23.2032 4C22.625 4 22.1562 4.46874 22.1562 5.04695V14.8666C22.1562 15.4449 22.625 15.9136 23.2032 15.9136H33.0229C33.6012 15.9136 34.0699 15.4449 34.0699 14.8666V5.04695C34.0699 4.46874 33.6012 4 33.0229 4H23.2032Z" fill="#4D0000"/>
</g>
</g>
<g id="Vector">
<path d="M27.9879 50.5101C27.9879 48.2632 27.1893 46.3411 25.5921 44.7439C23.9949 43.1468 22.0729 42.3482 19.8259 42.3482C17.5789 42.3482 15.6569 43.1468 14.0597 44.7439C12.4626 46.3411 11.664 48.2632 11.664 50.5101C11.664 52.7571 12.4626 54.6791 14.0597 56.2763C15.6569 57.8735 17.5789 58.6721 19.8259 58.6721C22.0729 58.6721 23.9949 57.8735 25.5921 56.2763C27.1893 54.6791 27.9879 52.7571 27.9879 50.5101ZM37.3158 65.668C37.3158 66.2996 37.085 66.8461 36.6235 67.3077C36.1619 67.7692 35.6154 68 34.9838 68C34.3279 68 33.7814 67.7692 33.3441 67.3077L27.0951 61.0769C24.9211 62.583 22.498 63.336 19.8259 63.336C18.0891 63.336 16.4281 62.999 14.8431 62.3249C13.2581 61.6508 11.8917 60.7399 10.7439 59.5921C9.59615 58.4443 8.68522 57.0779 8.01113 55.4929C7.33704 53.9079 7 52.247 7 50.5101C7 48.7733 7.33704 47.1123 8.01113 45.5273C8.68522 43.9423 9.59615 42.5759 10.7439 41.4281C11.8917 40.2804 13.2581 39.3694 14.8431 38.6953C16.4281 38.0212 18.0891 37.6842 19.8259 37.6842C21.5628 37.6842 23.2237 38.0212 24.8087 38.6953C26.3937 39.3694 27.7601 40.2804 28.9079 41.4281C30.0557 42.5759 30.9666 43.9423 31.6407 45.5273C32.3148 47.1123 32.6518 48.7733 32.6518 50.5101C32.6518 53.1822 31.8988 55.6053 30.3927 57.7793L36.6417 64.0283C37.0911 64.4777 37.3158 65.0243 37.3158 65.668Z" fill="#4D0000"/>
<path d="M27.9879 50.5101C27.9879 48.2632 27.1893 46.3411 25.5921 44.7439C23.9949 43.1468 22.0729 42.3482 19.8259 42.3482C17.5789 42.3482 15.6569 43.1468 14.0597 44.7439C12.4626 46.3411 11.664 48.2632 11.664 50.5101C11.664 52.7571 12.4626 54.6791 14.0597 56.2763C15.6569 57.8735 17.5789 58.6721 19.8259 58.6721C22.0729 58.6721 23.9949 57.8735 25.5921 56.2763C27.1893 54.6791 27.9879 52.7571 27.9879 50.5101Z" fill="#FF3333"/>
</g>
</g>
</g>
</svg>
