<svg width="360" height="360" viewBox="0 0 360 360" fill="none" xmlns="http://www.w3.org/2000/svg">
<path d="M340 53.069V218.586H20V53.069C20 40.8815 29.8815 31 42.069 31H317.931C330.119 31 340 40.8815 340 53.069Z" fill="#6610F2"/>
<path d="M340 218.587V240.656C340 252.843 330.119 262.725 317.931 262.725H42.069C29.8815 262.725 20 252.843 20 240.656V218.587H340Z" fill="#C5A7F7"/>
<path d="M224.138 306.863H135.862L141.38 262.725H218.621L224.138 306.863Z" fill="#C5A7F7"/>
<path d="M235.173 306.862C241.248 306.908 246.161 311.822 246.207 317.897C246.188 323.982 241.258 328.912 235.173 328.931H124.828C118.753 328.885 113.839 323.972 113.793 317.897C113.812 311.811 118.742 306.881 124.828 306.862H235.173Z" fill="#C5A7F7"/>
<path d="M102.759 113.759V218.586H58.6211V113.759L68.4406 91.6897L80.6901 64.1035L92.9395 91.6897L102.759 113.759Z" fill="#6610F2"/>
<path d="M312.414 75.1377V191H290.345V75.1377H312.414Z" fill="#6610F2"/>
<path d="M220 273.759H140L141.38 262.725H218.621L220 273.759Z" fill="#C5A7F7"/>
<path d="M290.345 75.1377H301.379V191H290.345V75.1377Z" fill="#6610F2"/>
<path d="M301.379 235.138H312.414V246.172H301.379V235.138Z" fill="#6610F2"/>
<path d="M295.656 67.9104V175.451H212.971C204.197 175.442 195.775 178.105 189.57 182.852C183.365 187.6 179.884 194.043 179.897 200.755V74.2364C179.897 60.2625 194.706 48.9326 212.971 48.9326H295.656V67.9104Z" fill="#EAE2F8"/>
<path d="M146.823 48.9326C165.088 48.9326 179.897 60.2625 179.897 74.2364V200.755C179.909 194.043 176.429 187.6 170.224 182.852C164.018 178.105 155.596 175.442 146.823 175.451H64.1377V48.9326H146.823Z" fill="#EAE2F8"/>
<path d="M295.656 175.45V200.754H179.897C179.884 194.042 183.365 187.599 189.57 182.851C195.775 178.104 204.197 175.441 212.971 175.45H295.656Z" fill="#C5A7F7"/>
<path d="M170.224 182.851C176.405 187.611 179.881 194.045 179.897 200.754H64.1377V175.45H146.823C155.592 175.463 164.002 178.122 170.224 182.851Z" fill="#C5A7F7"/>
<path d="M88.9434 74.2373H155.092V86.8892H88.9434V74.2373Z" fill="#C5A7F7"/>
<path d="M204.703 74.2373H270.851V86.8892H204.703V74.2373Z" fill="#C5A7F7"/>
<path d="M88.9434 105.867H155.092V118.519H88.9434V105.867Z" fill="#C5A7F7"/>
<path d="M204.703 105.867H270.851V118.519H204.703V105.867Z" fill="#C5A7F7"/>
<path d="M88.9434 137.496H155.092V150.148H88.9434V137.496Z" fill="#C5A7F7"/>
<path d="M204.703 137.496H270.851V150.148H204.703V137.496Z" fill="#C5A7F7"/>
</svg>
