<svg width="72" height="72" viewBox="0 0 72 72" fill="none" xmlns="http://www.w3.org/2000/svg">
<g id="competency-areas">
<g id="Group 1171275599">
<g id="Vector">
<mask id="path-1-outside-1_6486_46519" maskUnits="userSpaceOnUse" x="6.05469" y="6.0542" width="60" height="31" fill="black">
<rect fill="white" x="6.05469" y="6.0542" width="60" height="31"/>
<path d="M36.0547 7.0542C20.0387 7.0542 7.05469 20.0382 7.05469 36.0542H25.0547C25.0547 29.9792 29.9797 25.0542 36.0547 25.0542C42.1297 25.0542 47.0547 29.9792 47.0547 36.0542H65.0547C65.0547 20.0382 52.0707 7.0542 36.0547 7.0542Z"/>
</mask>
<path d="M36.0547 7.0542C20.0387 7.0542 7.05469 20.0382 7.05469 36.0542H25.0547C25.0547 29.9792 29.9797 25.0542 36.0547 25.0542C42.1297 25.0542 47.0547 29.9792 47.0547 36.0542H65.0547C65.0547 20.0382 52.0707 7.0542 36.0547 7.0542Z" fill="#36C5F0"/>
<path d="M36.0547 7.0542C20.0387 7.0542 7.05469 20.0382 7.05469 36.0542H25.0547C25.0547 29.9792 29.9797 25.0542 36.0547 25.0542C42.1297 25.0542 47.0547 29.9792 47.0547 36.0542H65.0547C65.0547 20.0382 52.0707 7.0542 36.0547 7.0542Z" stroke="#0D313B" mask="url(#path-1-outside-1_6486_46519)"/>
</g>
<g id="Vector_2">
<mask id="path-2-outside-2_6486_46519" maskUnits="userSpaceOnUse" x="6.05469" y="6.0542" width="31" height="31" fill="black">
<rect fill="white" x="6.05469" y="6.0542" width="31" height="31"/>
<path d="M7.05469 36.0542H25.0547C25.0547 29.9792 29.9797 25.0542 36.0547 25.0542V7.0542C20.0387 7.0542 7.05469 20.0382 7.05469 36.0542Z"/>
</mask>
<path d="M7.05469 36.0542H25.0547C25.0547 29.9792 29.9797 25.0542 36.0547 25.0542V7.0542C20.0387 7.0542 7.05469 20.0382 7.05469 36.0542Z" fill="#36C5F0"/>
<path d="M7.05469 36.0542H25.0547C25.0547 29.9792 29.9797 25.0542 36.0547 25.0542V7.0542C20.0387 7.0542 7.05469 20.0382 7.05469 36.0542Z" stroke="#0D313B" mask="url(#path-2-outside-2_6486_46519)"/>
</g>
<g id="Vector_3">
<mask id="path-3-outside-3_6486_46519" maskUnits="userSpaceOnUse" x="29.0547" y="29.0542" width="14" height="13" fill="black">
<rect fill="white" x="29.0547" y="29.0542" width="14" height="13"/>
<path d="M36.0547 31.0542L37.5997 34.3462L41.0547 34.8742L38.5547 37.4362L39.1447 41.0542L36.0547 39.3462L32.9647 41.0542L33.5547 37.4362L31.0547 34.8742L34.5097 34.3462L36.0547 31.0542Z"/>
</mask>
<path d="M36.0547 31.0542L37.5997 34.3462L41.0547 34.8742L38.5547 37.4362L39.1447 41.0542L36.0547 39.3462L32.9647 41.0542L33.5547 37.4362L31.0547 34.8742L34.5097 34.3462L36.0547 31.0542Z" fill="#36C5F0"/>
<path d="M36.0547 31.0542L37.5997 34.3462L41.0547 34.8742L38.5547 37.4362L39.1447 41.0542L36.0547 39.3462L32.9647 41.0542L33.5547 37.4362L31.0547 34.8742L34.5097 34.3462L36.0547 31.0542Z" stroke="#0D313B" mask="url(#path-3-outside-3_6486_46519)"/>
</g>
<g id="Vector_4">
<mask id="path-4-outside-4_6486_46519" maskUnits="userSpaceOnUse" x="29.0547" y="29.0542" width="14" height="14" fill="black">
<rect fill="white" x="29.0547" y="29.0542" width="14" height="14"/>
<path d="M41.2044 33.8852L38.2774 33.4382L36.9594 30.6292C36.7944 30.2792 36.4414 30.0542 36.0534 30.0542C35.6654 30.0542 35.3124 30.2792 35.1484 30.6292L33.8304 33.4382L30.9034 33.8852C30.5324 33.9422 30.2254 34.2002 30.1064 34.5562C29.9874 34.9122 30.0774 35.3032 30.3384 35.5722L32.4854 37.7732L31.9764 40.8932C31.9144 41.2712 32.0744 41.6512 32.3874 41.8722C32.7004 42.0932 33.1114 42.1152 33.4474 41.9302L36.0534 40.4892L38.6594 41.9292C38.8114 42.0132 38.9774 42.0542 39.1434 42.0542C39.3454 42.0542 39.5474 41.9922 39.7194 41.8712C40.0324 41.6502 40.1924 41.2702 40.1304 40.8922L39.6214 37.7722L41.7684 35.5712C42.0304 35.3022 42.1204 34.9112 42.0004 34.5552C41.8804 34.1992 41.5744 33.9422 41.2044 33.8852ZM37.8374 36.7382C37.6154 36.9662 37.5154 37.2842 37.5664 37.5972L37.8254 39.1832L36.5374 38.4712C36.3864 38.3882 36.2204 38.3462 36.0534 38.3462C35.8864 38.3462 35.7204 38.3882 35.5694 38.4712L34.2814 39.1832L34.5404 37.5972C34.5914 37.2842 34.4914 36.9652 34.2694 36.7382L33.1284 35.5692L34.6594 35.3352C34.9894 35.2852 35.2724 35.0732 35.4134 34.7722L36.0534 33.4082L36.6934 34.7712C36.8354 35.0732 37.1184 35.2852 37.4474 35.3342L38.9784 35.5682L37.8374 36.7382Z"/>
</mask>
<path d="M41.2044 33.8852L38.2774 33.4382L36.9594 30.6292C36.7944 30.2792 36.4414 30.0542 36.0534 30.0542C35.6654 30.0542 35.3124 30.2792 35.1484 30.6292L33.8304 33.4382L30.9034 33.8852C30.5324 33.9422 30.2254 34.2002 30.1064 34.5562C29.9874 34.9122 30.0774 35.3032 30.3384 35.5722L32.4854 37.7732L31.9764 40.8932C31.9144 41.2712 32.0744 41.6512 32.3874 41.8722C32.7004 42.0932 33.1114 42.1152 33.4474 41.9302L36.0534 40.4892L38.6594 41.9292C38.8114 42.0132 38.9774 42.0542 39.1434 42.0542C39.3454 42.0542 39.5474 41.9922 39.7194 41.8712C40.0324 41.6502 40.1924 41.2702 40.1304 40.8922L39.6214 37.7722L41.7684 35.5712C42.0304 35.3022 42.1204 34.9112 42.0004 34.5552C41.8804 34.1992 41.5744 33.9422 41.2044 33.8852ZM37.8374 36.7382C37.6154 36.9662 37.5154 37.2842 37.5664 37.5972L37.8254 39.1832L36.5374 38.4712C36.3864 38.3882 36.2204 38.3462 36.0534 38.3462C35.8864 38.3462 35.7204 38.3882 35.5694 38.4712L34.2814 39.1832L34.5404 37.5972C34.5914 37.2842 34.4914 36.9652 34.2694 36.7382L33.1284 35.5692L34.6594 35.3352C34.9894 35.2852 35.2724 35.0732 35.4134 34.7722L36.0534 33.4082L36.6934 34.7712C36.8354 35.0732 37.1184 35.2852 37.4474 35.3342L38.9784 35.5682L37.8374 36.7382Z" fill="#0D313B"/>
<path d="M41.2044 33.8852L38.2774 33.4382L36.9594 30.6292C36.7944 30.2792 36.4414 30.0542 36.0534 30.0542C35.6654 30.0542 35.3124 30.2792 35.1484 30.6292L33.8304 33.4382L30.9034 33.8852C30.5324 33.9422 30.2254 34.2002 30.1064 34.5562C29.9874 34.9122 30.0774 35.3032 30.3384 35.5722L32.4854 37.7732L31.9764 40.8932C31.9144 41.2712 32.0744 41.6512 32.3874 41.8722C32.7004 42.0932 33.1114 42.1152 33.4474 41.9302L36.0534 40.4892L38.6594 41.9292C38.8114 42.0132 38.9774 42.0542 39.1434 42.0542C39.3454 42.0542 39.5474 41.9922 39.7194 41.8712C40.0324 41.6502 40.1924 41.2702 40.1304 40.8922L39.6214 37.7722L41.7684 35.5712C42.0304 35.3022 42.1204 34.9112 42.0004 34.5552C41.8804 34.1992 41.5744 33.9422 41.2044 33.8852ZM37.8374 36.7382C37.6154 36.9662 37.5154 37.2842 37.5664 37.5972L37.8254 39.1832L36.5374 38.4712C36.3864 38.3882 36.2204 38.3462 36.0534 38.3462C35.8864 38.3462 35.7204 38.3882 35.5694 38.4712L34.2814 39.1832L34.5404 37.5972C34.5914 37.2842 34.4914 36.9652 34.2694 36.7382L33.1284 35.5692L34.6594 35.3352C34.9894 35.2852 35.2724 35.0732 35.4134 34.7722L36.0534 33.4082L36.6934 34.7712C36.8354 35.0732 37.1184 35.2852 37.4474 35.3342L38.9784 35.5682L37.8374 36.7382Z" stroke="#0D313B" mask="url(#path-4-outside-4_6486_46519)"/>
</g>
<g id="Vector_5">
<mask id="path-5-outside-5_6486_46519" maskUnits="userSpaceOnUse" x="5.05469" y="5.0542" width="62" height="62" fill="black">
<rect fill="white" x="5.05469" y="5.0542" width="62" height="62"/>
<path d="M36.0547 6.0542C19.5127 6.0542 6.05469 19.5122 6.05469 36.0542C6.05469 52.5962 19.5127 66.0542 36.0547 66.0542C39.6167 66.0542 43.0977 65.4372 46.4007 64.2202L45.7097 62.3432C42.9397 63.3642 40.0307 63.9062 37.0557 64.0112V48.0032C39.6137 47.7912 41.9437 46.7772 43.7957 45.2092L55.6407 57.4682L57.0547 56.0542L45.2107 43.7952C46.7797 41.9432 47.7927 39.6122 48.0057 37.0542H64.0127C63.9087 40.0332 63.3667 42.9422 62.3467 45.7082L64.2227 46.3992C65.4377 43.1032 66.0547 39.6212 66.0547 36.0542C66.0547 19.5122 52.5967 6.0542 36.0547 6.0542ZM45.2097 28.3132L56.5347 16.9882C60.9827 21.7632 63.7827 28.0872 64.0297 35.0542H48.0037C47.7917 32.4962 46.7777 30.1662 45.2097 28.3132ZM28.3137 45.2092C30.1657 46.7782 32.4967 47.7912 35.0547 48.0042V64.0292C28.0887 63.7832 21.7637 60.9832 16.9887 56.5342L28.3137 45.2092ZM15.5747 55.1202C11.1267 50.3452 8.32669 44.0212 8.07969 37.0542H24.1047C24.3177 39.6122 25.3307 41.9422 26.8997 43.7952L15.5747 55.1202ZM24.1057 35.0542H8.07969C8.32569 28.0882 11.1257 21.7632 15.5747 16.9882L26.8997 28.3132C25.3317 30.1662 24.3177 32.4962 24.1057 35.0542ZM28.3137 26.8992L16.9887 15.5742C21.7637 11.1262 28.0887 8.3262 35.0547 8.0792V24.1042C32.4967 24.3172 30.1667 25.3312 28.3137 26.8992ZM37.0547 8.0792C44.0207 8.3252 50.3457 11.1252 55.1207 15.5742L43.7957 26.8992C41.9437 25.3302 39.6127 24.3172 37.0547 24.1042V8.0792ZM36.0547 46.0542C30.5407 46.0542 26.0547 41.5682 26.0547 36.0542C26.0547 30.5402 30.5407 26.0542 36.0547 26.0542C41.5687 26.0542 46.0547 30.5402 46.0547 36.0542C46.0547 41.5682 41.5687 46.0542 36.0547 46.0542Z"/>
</mask>
<path d="M36.0547 6.0542C19.5127 6.0542 6.05469 19.5122 6.05469 36.0542C6.05469 52.5962 19.5127 66.0542 36.0547 66.0542C39.6167 66.0542 43.0977 65.4372 46.4007 64.2202L45.7097 62.3432C42.9397 63.3642 40.0307 63.9062 37.0557 64.0112V48.0032C39.6137 47.7912 41.9437 46.7772 43.7957 45.2092L55.6407 57.4682L57.0547 56.0542L45.2107 43.7952C46.7797 41.9432 47.7927 39.6122 48.0057 37.0542H64.0127C63.9087 40.0332 63.3667 42.9422 62.3467 45.7082L64.2227 46.3992C65.4377 43.1032 66.0547 39.6212 66.0547 36.0542C66.0547 19.5122 52.5967 6.0542 36.0547 6.0542ZM45.2097 28.3132L56.5347 16.9882C60.9827 21.7632 63.7827 28.0872 64.0297 35.0542H48.0037C47.7917 32.4962 46.7777 30.1662 45.2097 28.3132ZM28.3137 45.2092C30.1657 46.7782 32.4967 47.7912 35.0547 48.0042V64.0292C28.0887 63.7832 21.7637 60.9832 16.9887 56.5342L28.3137 45.2092ZM15.5747 55.1202C11.1267 50.3452 8.32669 44.0212 8.07969 37.0542H24.1047C24.3177 39.6122 25.3307 41.9422 26.8997 43.7952L15.5747 55.1202ZM24.1057 35.0542H8.07969C8.32569 28.0882 11.1257 21.7632 15.5747 16.9882L26.8997 28.3132C25.3317 30.1662 24.3177 32.4962 24.1057 35.0542ZM28.3137 26.8992L16.9887 15.5742C21.7637 11.1262 28.0887 8.3262 35.0547 8.0792V24.1042C32.4967 24.3172 30.1667 25.3312 28.3137 26.8992ZM37.0547 8.0792C44.0207 8.3252 50.3457 11.1252 55.1207 15.5742L43.7957 26.8992C41.9437 25.3302 39.6127 24.3172 37.0547 24.1042V8.0792ZM36.0547 46.0542C30.5407 46.0542 26.0547 41.5682 26.0547 36.0542C26.0547 30.5402 30.5407 26.0542 36.0547 26.0542C41.5687 26.0542 46.0547 30.5402 46.0547 36.0542C46.0547 41.5682 41.5687 46.0542 36.0547 46.0542Z" fill="#0D313B"/>
<path d="M36.0547 6.0542C19.5127 6.0542 6.05469 19.5122 6.05469 36.0542C6.05469 52.5962 19.5127 66.0542 36.0547 66.0542C39.6167 66.0542 43.0977 65.4372 46.4007 64.2202L45.7097 62.3432C42.9397 63.3642 40.0307 63.9062 37.0557 64.0112V48.0032C39.6137 47.7912 41.9437 46.7772 43.7957 45.2092L55.6407 57.4682L57.0547 56.0542L45.2107 43.7952C46.7797 41.9432 47.7927 39.6122 48.0057 37.0542H64.0127C63.9087 40.0332 63.3667 42.9422 62.3467 45.7082L64.2227 46.3992C65.4377 43.1032 66.0547 39.6212 66.0547 36.0542C66.0547 19.5122 52.5967 6.0542 36.0547 6.0542ZM45.2097 28.3132L56.5347 16.9882C60.9827 21.7632 63.7827 28.0872 64.0297 35.0542H48.0037C47.7917 32.4962 46.7777 30.1662 45.2097 28.3132ZM28.3137 45.2092C30.1657 46.7782 32.4967 47.7912 35.0547 48.0042V64.0292C28.0887 63.7832 21.7637 60.9832 16.9887 56.5342L28.3137 45.2092ZM15.5747 55.1202C11.1267 50.3452 8.32669 44.0212 8.07969 37.0542H24.1047C24.3177 39.6122 25.3307 41.9422 26.8997 43.7952L15.5747 55.1202ZM24.1057 35.0542H8.07969C8.32569 28.0882 11.1257 21.7632 15.5747 16.9882L26.8997 28.3132C25.3317 30.1662 24.3177 32.4962 24.1057 35.0542ZM28.3137 26.8992L16.9887 15.5742C21.7637 11.1262 28.0887 8.3262 35.0547 8.0792V24.1042C32.4967 24.3172 30.1667 25.3312 28.3137 26.8992ZM37.0547 8.0792C44.0207 8.3252 50.3457 11.1252 55.1207 15.5742L43.7957 26.8992C41.9437 25.3302 39.6127 24.3172 37.0547 24.1042V8.0792ZM36.0547 46.0542C30.5407 46.0542 26.0547 41.5682 26.0547 36.0542C26.0547 30.5402 30.5407 26.0542 36.0547 26.0542C41.5687 26.0542 46.0547 30.5402 46.0547 36.0542C46.0547 41.5682 41.5687 46.0542 36.0547 46.0542Z" stroke="#0D313B" mask="url(#path-5-outside-5_6486_46519)"/>
</g>
<g id="Vector_6">
<mask id="path-6-outside-6_6486_46519" maskUnits="userSpaceOnUse" x="4.99877" y="4.99818" width="62.1124" height="62.1124" fill="black">
<rect fill="white" x="4.99877" y="4.99818" width="62.1124" height="62.1124"/>
<path d="M66.0549 36.1088C66.0849 19.5669 52.6514 6.08446 36.1094 6.05444C19.5675 6.02442 6.08505 19.458 6.05503 35.9999C6.04856 39.5619 6.65924 43.044 7.87025 46.3493L9.7485 45.6617C8.73253 42.8898 8.19581 39.9798 8.09621 37.0046L24.1042 37.0337C24.3115 39.5921 25.3213 41.9239 26.8859 43.7788L14.6055 55.6015L16.0169 57.0181L28.2974 45.1963C30.1465 46.7687 32.4757 47.7859 35.0333 48.0036L35.0042 64.0105C32.0254 63.9011 29.1174 63.3538 26.3533 62.3288L25.6589 64.2036C28.9527 65.4245 32.4335 66.0479 36.0005 66.0543C52.5425 66.0844 66.0249 52.6508 66.0549 36.1088ZM43.7793 45.2234L55.0838 56.569C50.3007 61.0083 43.9716 63.7968 37.0042 64.0312L37.0333 48.0052C39.5917 47.7978 41.9235 46.7881 43.7793 45.2234ZM26.914 28.2968C25.3417 30.1459 24.3245 32.4751 24.1068 35.0327L8.08184 35.0036C8.34048 28.0381 11.152 21.7182 15.6096 16.9513L26.914 28.2968ZM17.0262 15.5398C21.8092 11.1005 28.1383 8.31198 35.1058 8.07762L35.0767 24.1026C32.5183 24.3109 30.1865 25.3197 28.3306 26.8854L17.0262 15.5398ZM37.0767 24.1072L37.1057 8.08125C44.0713 8.33989 50.3912 11.1514 55.1581 15.609L43.8126 26.9135C41.9624 25.3421 39.6343 24.3239 37.0767 24.1072ZM45.224 28.33L56.5695 17.0256C61.0089 21.8087 63.7974 28.1387 64.0317 35.1052L48.0068 35.0761C47.7984 32.5177 46.7886 30.1859 45.224 28.33ZM64.0281 37.1052C63.7695 44.0707 60.958 50.3906 56.5003 55.1575L45.1959 43.812C46.7683 41.9628 47.7855 39.6337 48.0031 37.0761L64.0281 37.1052ZM26.055 36.0362C26.065 30.5222 30.5591 26.0444 36.0731 26.0544C41.5871 26.0644 46.065 30.5585 46.055 36.0725C46.045 41.5865 41.5508 46.0644 36.0368 46.0544C30.5228 46.0444 26.045 41.5502 26.055 36.0362Z"/>
</mask>
<path d="M66.0549 36.1088C66.0849 19.5669 52.6514 6.08446 36.1094 6.05444C19.5675 6.02442 6.08505 19.458 6.05503 35.9999C6.04856 39.5619 6.65924 43.044 7.87025 46.3493L9.7485 45.6617C8.73253 42.8898 8.19581 39.9798 8.09621 37.0046L24.1042 37.0337C24.3115 39.5921 25.3213 41.9239 26.8859 43.7788L14.6055 55.6015L16.0169 57.0181L28.2974 45.1963C30.1465 46.7687 32.4757 47.7859 35.0333 48.0036L35.0042 64.0105C32.0254 63.9011 29.1174 63.3538 26.3533 62.3288L25.6589 64.2036C28.9527 65.4245 32.4335 66.0479 36.0005 66.0543C52.5425 66.0844 66.0249 52.6508 66.0549 36.1088ZM43.7793 45.2234L55.0838 56.569C50.3007 61.0083 43.9716 63.7968 37.0042 64.0312L37.0333 48.0052C39.5917 47.7978 41.9235 46.7881 43.7793 45.2234ZM26.914 28.2968C25.3417 30.1459 24.3245 32.4751 24.1068 35.0327L8.08184 35.0036C8.34048 28.0381 11.152 21.7182 15.6096 16.9513L26.914 28.2968ZM17.0262 15.5398C21.8092 11.1005 28.1383 8.31198 35.1058 8.07762L35.0767 24.1026C32.5183 24.3109 30.1865 25.3197 28.3306 26.8854L17.0262 15.5398ZM37.0767 24.1072L37.1057 8.08125C44.0713 8.33989 50.3912 11.1514 55.1581 15.609L43.8126 26.9135C41.9624 25.3421 39.6343 24.3239 37.0767 24.1072ZM45.224 28.33L56.5695 17.0256C61.0089 21.8087 63.7974 28.1387 64.0317 35.1052L48.0068 35.0761C47.7984 32.5177 46.7886 30.1859 45.224 28.33ZM64.0281 37.1052C63.7695 44.0707 60.958 50.3906 56.5003 55.1575L45.1959 43.812C46.7683 41.9628 47.7855 39.6337 48.0031 37.0761L64.0281 37.1052ZM26.055 36.0362C26.065 30.5222 30.5591 26.0444 36.0731 26.0544C41.5871 26.0644 46.065 30.5585 46.055 36.0725C46.045 41.5865 41.5508 46.0644 36.0368 46.0544C30.5228 46.0444 26.045 41.5502 26.055 36.0362Z" fill="#0D313B"/>
<path d="M66.0549 36.1088C66.0849 19.5669 52.6514 6.08446 36.1094 6.05444C19.5675 6.02442 6.08505 19.458 6.05503 35.9999C6.04856 39.5619 6.65924 43.044 7.87025 46.3493L9.7485 45.6617C8.73253 42.8898 8.19581 39.9798 8.09621 37.0046L24.1042 37.0337C24.3115 39.5921 25.3213 41.9239 26.8859 43.7788L14.6055 55.6015L16.0169 57.0181L28.2974 45.1963C30.1465 46.7687 32.4757 47.7859 35.0333 48.0036L35.0042 64.0105C32.0254 63.9011 29.1174 63.3538 26.3533 62.3288L25.6589 64.2036C28.9527 65.4245 32.4335 66.0479 36.0005 66.0543C52.5425 66.0844 66.0249 52.6508 66.0549 36.1088ZM43.7793 45.2234L55.0838 56.569C50.3007 61.0083 43.9716 63.7968 37.0042 64.0312L37.0333 48.0052C39.5917 47.7978 41.9235 46.7881 43.7793 45.2234ZM26.914 28.2968C25.3417 30.1459 24.3245 32.4751 24.1068 35.0327L8.08184 35.0036C8.34048 28.0381 11.152 21.7182 15.6096 16.9513L26.914 28.2968ZM17.0262 15.5398C21.8092 11.1005 28.1383 8.31198 35.1058 8.07762L35.0767 24.1026C32.5183 24.3109 30.1865 25.3197 28.3306 26.8854L17.0262 15.5398ZM37.0767 24.1072L37.1057 8.08125C44.0713 8.33989 50.3912 11.1514 55.1581 15.609L43.8126 26.9135C41.9624 25.3421 39.6343 24.3239 37.0767 24.1072ZM45.224 28.33L56.5695 17.0256C61.0089 21.8087 63.7974 28.1387 64.0317 35.1052L48.0068 35.0761C47.7984 32.5177 46.7886 30.1859 45.224 28.33ZM64.0281 37.1052C63.7695 44.0707 60.958 50.3906 56.5003 55.1575L45.1959 43.812C46.7683 41.9628 47.7855 39.6337 48.0031 37.0761L64.0281 37.1052ZM26.055 36.0362C26.065 30.5222 30.5591 26.0444 36.0731 26.0544C41.5871 26.0644 46.065 30.5585 46.055 36.0725C46.045 41.5865 41.5508 46.0644 36.0368 46.0544C30.5228 46.0444 26.045 41.5502 26.055 36.0362Z" stroke="#0D313B" mask="url(#path-6-outside-6_6486_46519)"/>
</g>
</g>
</g>
</svg>
