<svg width="360" height="360" viewBox="0 0 360 360" fill="none" xmlns="http://www.w3.org/2000/svg">
<path d="M275.137 65.6997L275.087 84.1863C272.544 86.333 268.877 86.793 266.284 88.853L264.207 89.5197C264.18 65.993 264.143 42.4641 264.094 18.933C264.094 16.3163 265.68 14.7597 267.74 13.333H272.117C276.75 16.703 274.637 21.4163 275.18 25.5997C273.317 26.3697 269.757 24.0697 269.82 28.353C269.99 39.8363 269.934 51.3263 269.82 62.8163C269.8 64.9897 270.624 65.7663 272.964 65.5197C273.667 65.4463 274.414 65.633 275.137 65.6997Z" fill="#4809AE"/>
<path d="M275.097 198.816C285.297 198.88 295.494 198.97 305.694 199.003C316.414 199.04 321.634 203.62 321.634 213.096C321.634 252.908 321.634 292.719 321.634 332.53C321.634 333.936 321.764 335.343 321.83 336.75C315.53 336.783 309.227 336.856 302.927 336.846C285.594 336.82 268.26 336.773 250.927 336.706C250.94 310.342 250.949 283.979 250.954 257.616C250.954 256.676 251.287 255.636 250.287 254.88C250.303 241.038 250.32 227.194 250.34 213.35C250.34 204.35 254.247 200.273 264.13 198.906L275.097 198.816Z" fill="#6610F2"/>
<path d="M108.271 314.843C108.248 306.843 108.091 298.806 108.238 290.793C108.381 283.1 113.968 278.32 122.528 278.28C129.321 278.253 136.114 278.28 142.911 278.28L157.508 278.3C159.684 278.3 161.864 278.376 164.034 278.26C171.634 277.846 176.728 280.81 179.368 287.166C179.392 303.666 179.414 320.166 179.434 336.666C161.701 336.715 143.967 336.76 126.231 336.8C120.408 336.8 114.564 336.676 108.758 336.61C108.758 332.42 108.891 328.23 108.758 324.046C108.668 321 109.424 317.866 108.271 314.843Z" fill="#C5A7F7"/>
<path d="M108.768 336.613C114.591 336.68 120.418 336.807 126.241 336.803C143.977 336.788 161.711 336.744 179.444 336.673L250.941 336.707C268.274 336.758 285.608 336.804 302.941 336.847C309.241 336.847 315.544 336.783 321.844 336.75C328.038 336.75 334.228 336.75 340.421 336.79C344.441 336.827 346.674 338.63 346.671 341.69C346.671 344.69 344.314 346.55 340.404 346.653C339.554 346.677 338.704 346.653 337.854 346.653H22.0677C21.2177 346.653 20.3677 346.677 19.5177 346.653C15.7144 346.527 13.261 344.503 13.3377 341.57C13.4077 338.75 15.7544 336.847 19.4244 336.793C25.371 336.707 31.3177 336.703 37.261 336.663C53.4777 336.71 69.6944 336.78 85.9277 336.787C93.5277 336.79 101.148 336.667 108.768 336.613Z" fill="#4809AE"/>
<path d="M157.507 278.303L142.91 278.283C149.137 266.44 154.797 254.32 161.767 242.836C167.75 232.98 170.037 222.776 170.13 211.783C170.197 203.563 171.1 195.35 171.63 187.116C171.813 186.886 171.997 186.653 172.183 186.423H172.14C173.773 186.486 175.14 185.733 176.573 185.22C187.502 181.308 198.429 177.39 209.353 173.463C209.482 173.626 209.558 173.825 209.57 174.033C207.843 176.27 208.12 178.96 207.57 181.443C205.867 189.37 204.39 197.34 202.823 205.29C201.857 209.956 200.973 214.646 199.903 219.29C198.72 224.42 198.38 229.71 194.387 234.15C188.097 241.15 182.17 248.393 176.207 255.616C170 263.193 163.243 270.42 157.507 278.303Z" fill="#4809AE"/>
<path d="M275.138 65.6996C274.414 65.6329 273.678 65.4463 272.974 65.5196C270.641 65.7663 269.811 64.9896 269.831 62.8163C269.934 51.3263 269.991 39.8363 269.831 28.3529C269.768 24.0696 273.328 26.3529 275.191 25.5996L337.421 25.7196C338.391 25.7196 339.361 25.7429 340.331 25.7196C341.664 25.6829 342.761 26.0529 343.331 27.1596C343.951 28.3929 343.094 29.2163 342.158 29.9596C336.724 34.2774 331.28 38.5918 325.824 42.9029C322.891 45.2129 322.848 46.1829 325.861 48.5696C330.861 52.5129 335.914 56.3963 340.914 60.3363C341.914 61.1096 343.248 61.7529 343.431 63.0029C343.791 65.4329 341.838 65.5229 339.904 65.5229C328.984 65.5229 318.068 65.5029 307.148 65.5229C296.478 65.5596 285.808 65.6429 275.138 65.6996Z" fill="#9B63F5"/>
<path d="M108.767 336.613C101.147 336.673 93.5275 336.79 85.9108 336.787C69.6941 336.787 53.4775 336.71 37.2441 336.663C37.2841 331.247 37.3341 325.83 37.3541 320.413C37.3841 312.303 42.6508 307.58 51.8075 307.563C64.4275 307.537 77.0575 307.833 89.6641 307.453C97.4608 307.22 104.074 308.31 108.254 314.843C109.407 317.867 108.657 320.983 108.754 324.05C108.901 328.233 108.781 332.423 108.767 336.613Z" fill="#EAE2F8"/>
<path d="M209.354 173.476C198.427 177.396 187.501 181.315 176.574 185.233C175.137 185.746 173.774 186.5 172.141 186.436C172.747 182.168 174.042 178.027 175.974 174.173C177.064 174.153 178.137 174.146 179.144 173.636C187.307 169.503 194.624 164.576 200.164 157.613C206.334 149.86 209.164 140.913 212.274 132.076C213.607 128.296 216.087 125.663 219.727 123.693C230.371 117.936 240.974 112.12 251.684 106.46C259.351 102.396 264.524 96.793 266.284 88.863C268.877 86.793 272.544 86.333 275.087 84.1963C277.334 88.283 276.691 92.5096 275.827 96.743C275.571 98.0096 275.274 99.2663 274.997 100.526C272.273 105.214 268.551 109.245 264.094 112.333C251.234 119.266 238.368 126.194 225.497 133.116C224.094 133.87 223.617 134.973 223.164 136.233C218.577 148.651 213.974 161.065 209.354 173.476Z" fill="#6610F2"/>
<path d="M266.285 88.8633C264.525 96.7833 259.365 102.397 251.685 106.46C240.975 112.127 230.371 117.937 219.728 123.693C216.088 125.663 213.608 128.297 212.275 132.077C209.158 140.913 206.335 149.86 200.165 157.613C194.625 164.577 187.308 169.503 179.145 173.637C178.145 174.147 177.065 174.153 175.975 174.173C177.518 166.527 180.551 159.24 182.721 151.747C184.441 145.803 186.475 139.933 188.388 134.033C190.268 128.2 193.771 123.487 200.015 120.683C203.958 119.017 207.978 117.463 211.485 115.08C221.541 110.293 231.628 105.55 241.651 100.703C249.215 97.0366 256.701 93.2533 264.221 89.5199L266.285 88.8633Z" fill="#6610F2"/>
<path d="M264.094 112.333C268.553 109.243 272.277 105.209 275 100.517C275.044 112.627 275.114 124.74 275.12 136.85C275.134 157.503 275.127 178.159 275.1 198.817L264.14 198.907C264.125 170.047 264.109 141.189 264.094 112.333Z" fill="#4809AE"/>
<path d="M211.471 115.08C207.965 117.463 203.945 119 200.001 120.683C193.388 121.033 188.571 118.783 185.838 113.18C184.345 110.113 182.471 107.18 180.838 104.18C177.551 98.1999 179.838 92.7566 186.211 89.3666C197.151 83.5366 204.128 86.1566 208.678 95.8333C209.751 98.1166 211.241 100.24 212.521 102.447C215.061 106.847 213.895 111 211.471 115.08Z" fill="#C5A7F7"/>
<path d="M250.94 336.706L179.444 336.673C179.424 320.171 179.401 303.67 179.377 287.17C179.427 277.776 179.447 268.38 179.53 258.983C179.597 251.83 184.89 247.016 192.94 246.906C200.317 246.803 207.7 246.906 215.077 246.86C216.364 246.86 217.744 247.236 218.927 246.393L232.617 246.356C233.17 246.523 233.747 246.883 234.284 246.83C241.79 246.1 246.97 249.01 250.304 254.88C251.304 255.636 250.97 256.676 250.97 257.616C250.973 283.981 250.963 310.344 250.94 336.706Z" fill="#9B63F5"/>
<path d="M218.927 246.394C217.77 236.16 216.54 225.93 215.503 215.684C215.223 212.917 213.97 211.017 211.25 209.734C208.367 208.384 205.95 206.32 202.84 205.304C204.407 197.354 205.883 189.384 207.587 181.457C208.12 178.974 207.843 176.284 209.587 174.047C218.142 182.738 226.494 191.581 234.643 200.577C238.956 205.367 237.603 210.547 236.886 215.77C235.489 225.966 234.071 236.161 232.633 246.357L218.927 246.394Z" fill="#4809AE"/>
</svg>
