<svg width="72" height="72" viewBox="0 0 72 72" fill="none" xmlns="http://www.w3.org/2000/svg">
<g id="job-position">
<g id="Group">
<g id="Vector">
<mask id="path-1-outside-1_6486_46577" maskUnits="userSpaceOnUse" x="14" y="2" width="44" height="68" fill="black">
<rect fill="white" x="14" y="2" width="44" height="68"/>
<path d="M33.6858 4.12259C29.1442 4.62271 25.0757 6.60966 21.7912 9.90773C18.1822 13.5437 16.2493 17.8555 16.0195 22.8432C15.8979 25.533 16.3304 27.8984 17.7091 31.9669C20.1962 39.2659 25.8056 50.5929 31.4421 59.6626C32.0098 60.5682 32.4558 61.3386 32.4288 61.3657C32.4017 61.3927 31.2528 61.4873 29.8876 61.5549C25.2514 61.8117 21.8182 62.2307 19.4257 62.839C17.9659 63.2039 17.1955 63.5689 16.8035 64.069C15.7898 65.3666 17.5199 66.3804 21.9263 67.0967C32.0368 68.7052 49.9058 68.0699 54.096 65.9478C55.5287 65.2179 55.5152 64.1771 54.069 63.4337C52.4064 62.5822 47.7837 61.8793 41.8093 61.5549C40.4442 61.4873 39.2952 61.3927 39.2682 61.3657C39.2412 61.3386 39.6872 60.5682 40.2549 59.6626C47.0132 48.7952 53.2309 35.6705 55.0421 28.4526C55.6234 26.1007 55.772 24.8436 55.6774 22.8432C55.4882 18.8963 54.1636 15.2198 51.8117 12.0704C47.5134 6.35284 40.6469 3.33862 33.6858 4.12259ZM39.6332 5.39316C47.0538 7.02868 52.7714 12.7057 54.2987 19.9506C55.0557 23.5055 54.7853 26.1683 53.2039 31.0478C50.7439 38.5901 44.391 51.3633 38.5788 60.406C37.5245 62.0415 35.9972 64.1231 35.8485 64.1231C35.3889 64.1231 31.361 57.7973 28.144 52.0257C21.9669 40.915 17.6686 30.4666 17.0603 25.0599C16.6413 21.3428 18.0065 16.4092 20.3719 13.0841C23.3861 8.86694 27.6574 6.17713 32.8748 5.24448C34.2535 5.00117 38.2544 5.08228 39.6332 5.39316ZM33.9967 63.4878C34.8077 64.5826 35.47 65.2044 35.8485 65.2044C36.227 65.2044 36.8893 64.5826 37.7003 63.4878L38.4302 62.5011H39.7413C45.0668 62.5146 52.7038 63.5959 53.8392 64.5151L54.1501 64.7719L53.6229 65.0422C52.3929 65.664 49.1894 66.2722 45.175 66.6372C41.9715 66.921 33.3209 67.0427 29.766 66.8399C24.3999 66.5426 19.9123 65.8667 18.3174 65.1368L17.5334 64.7854L17.8443 64.5151C18.9797 63.5959 25.9408 62.5822 31.6178 62.5146L33.2668 62.5011L33.9967 63.4878Z"/>
<path d="M39.6332 5.39316C47.0538 7.02868 52.7714 12.7057 54.2987 19.9506C55.0557 23.5055 54.7853 26.1683 53.2039 31.0478C50.7439 38.5901 44.391 51.3633 38.5788 60.406C37.5245 62.0415 35.9972 64.1231 35.8485 64.1231C35.3889 64.1231 31.361 57.7973 28.144 52.0257C21.9669 40.915 17.6686 30.4666 17.0603 25.0599C16.6413 21.3428 18.0065 16.4092 20.3719 13.0841C23.3861 8.86694 27.6574 6.17713 32.8748 5.24448C34.2535 5.00117 38.2544 5.08228 39.6332 5.39316Z"/>
</mask>
<path d="M33.6858 4.12259C29.1442 4.62271 25.0757 6.60966 21.7912 9.90773C18.1822 13.5437 16.2493 17.8555 16.0195 22.8432C15.8979 25.533 16.3304 27.8984 17.7091 31.9669C20.1962 39.2659 25.8056 50.5929 31.4421 59.6626C32.0098 60.5682 32.4558 61.3386 32.4288 61.3657C32.4017 61.3927 31.2528 61.4873 29.8876 61.5549C25.2514 61.8117 21.8182 62.2307 19.4257 62.839C17.9659 63.2039 17.1955 63.5689 16.8035 64.069C15.7898 65.3666 17.5199 66.3804 21.9263 67.0967C32.0368 68.7052 49.9058 68.0699 54.096 65.9478C55.5287 65.2179 55.5152 64.1771 54.069 63.4337C52.4064 62.5822 47.7837 61.8793 41.8093 61.5549C40.4442 61.4873 39.2952 61.3927 39.2682 61.3657C39.2412 61.3386 39.6872 60.5682 40.2549 59.6626C47.0132 48.7952 53.2309 35.6705 55.0421 28.4526C55.6234 26.1007 55.772 24.8436 55.6774 22.8432C55.4882 18.8963 54.1636 15.2198 51.8117 12.0704C47.5134 6.35284 40.6469 3.33862 33.6858 4.12259ZM39.6332 5.39316C47.0538 7.02868 52.7714 12.7057 54.2987 19.9506C55.0557 23.5055 54.7853 26.1683 53.2039 31.0478C50.7439 38.5901 44.391 51.3633 38.5788 60.406C37.5245 62.0415 35.9972 64.1231 35.8485 64.1231C35.3889 64.1231 31.361 57.7973 28.144 52.0257C21.9669 40.915 17.6686 30.4666 17.0603 25.0599C16.6413 21.3428 18.0065 16.4092 20.3719 13.0841C23.3861 8.86694 27.6574 6.17713 32.8748 5.24448C34.2535 5.00117 38.2544 5.08228 39.6332 5.39316ZM33.9967 63.4878C34.8077 64.5826 35.47 65.2044 35.8485 65.2044C36.227 65.2044 36.8893 64.5826 37.7003 63.4878L38.4302 62.5011H39.7413C45.0668 62.5146 52.7038 63.5959 53.8392 64.5151L54.1501 64.7719L53.6229 65.0422C52.3929 65.664 49.1894 66.2722 45.175 66.6372C41.9715 66.921 33.3209 67.0427 29.766 66.8399C24.3999 66.5426 19.9123 65.8667 18.3174 65.1368L17.5334 64.7854L17.8443 64.5151C18.9797 63.5959 25.9408 62.5822 31.6178 62.5146L33.2668 62.5011L33.9967 63.4878Z" fill="#0D313B"/>
<path d="M39.6332 5.39316C47.0538 7.02868 52.7714 12.7057 54.2987 19.9506C55.0557 23.5055 54.7853 26.1683 53.2039 31.0478C50.7439 38.5901 44.391 51.3633 38.5788 60.406C37.5245 62.0415 35.9972 64.1231 35.8485 64.1231C35.3889 64.1231 31.361 57.7973 28.144 52.0257C21.9669 40.915 17.6686 30.4666 17.0603 25.0599C16.6413 21.3428 18.0065 16.4092 20.3719 13.0841C23.3861 8.86694 27.6574 6.17713 32.8748 5.24448C34.2535 5.00117 38.2544 5.08228 39.6332 5.39316Z" fill="#2894B4"/>
<path d="M39.6332 5.39316L39.4717 6.12559L39.4682 6.12479L39.6332 5.39316ZM54.2987 19.9506L53.5652 20.1068L53.5649 20.1053L54.2987 19.9506ZM53.2039 31.0478L53.9174 31.279L53.9169 31.2804L53.2039 31.0478ZM38.5788 60.406L39.2098 60.8115L39.2092 60.8123L38.5788 60.406ZM28.144 52.0257L27.4889 52.3908L27.4885 52.3901L28.144 52.0257ZM17.0603 25.0599L17.8056 24.9759L17.8056 24.9761L17.0603 25.0599ZM20.3719 13.0841L19.7608 12.6494L19.7617 12.648L20.3719 13.0841ZM32.8748 5.24448L32.7428 4.50618L32.7445 4.50589L32.8748 5.24448ZM39.7946 4.66074C47.4933 6.35754 53.4424 12.2531 55.0326 19.7959L53.5649 20.1053C52.1003 13.1582 46.6143 7.69981 39.4717 6.12558L39.7946 4.66074ZM55.0323 19.7944C55.8259 23.5214 55.523 26.3248 53.9173 31.279L52.4904 30.8166C54.0477 26.0118 54.2855 23.4896 53.5652 20.1068L55.0323 19.7944ZM53.9169 31.2804C51.4316 38.9002 45.0456 51.732 39.2098 60.8115L37.9479 60.0005C43.7364 50.9947 50.0561 38.28 52.4909 30.8152L53.9169 31.2804ZM39.2092 60.8123C38.673 61.6443 38.0188 62.5861 37.4786 63.3217C37.2091 63.6888 36.9625 64.0119 36.77 64.2472C36.6753 64.363 36.5841 64.4692 36.5047 64.5514C36.4668 64.5907 36.4164 64.6404 36.3598 64.6856C36.3322 64.7076 36.2862 64.7423 36.2267 64.7749C36.1859 64.7972 36.0446 64.8731 35.8485 64.8731V63.3731C35.6617 63.3731 35.5323 63.4449 35.5061 63.4592C35.4612 63.4838 35.4323 63.5066 35.4244 63.513C35.407 63.5269 35.4056 63.5303 35.4258 63.5094C35.4625 63.4714 35.5232 63.4023 35.6091 63.2973C35.7778 63.0912 36.0068 62.7918 36.2695 62.434C36.7938 61.72 37.4304 60.8032 37.9485 59.9996L39.2092 60.8123ZM35.8485 64.8731C35.6397 64.8731 35.4847 64.7913 35.4222 64.7555C35.3444 64.7109 35.2798 64.6599 35.2326 64.6193C35.1371 64.5372 35.0414 64.4354 34.9518 64.3325C34.7688 64.1223 34.5455 63.8309 34.2948 63.4831C33.79 62.7829 33.1341 61.7981 32.3976 60.6416C30.9231 58.3261 29.1043 55.2891 27.4889 52.3908L28.7991 51.6605C30.4006 54.5338 32.2043 57.5456 33.6629 59.8358C34.3929 60.9823 35.0312 61.9396 35.5116 62.6059C35.7533 62.9413 35.9452 63.1891 36.0831 63.3475C36.1538 63.4288 36.195 63.4685 36.2105 63.4819C36.2188 63.4891 36.2034 63.4743 36.1679 63.454C36.1479 63.4425 36.0286 63.3731 35.8485 63.3731V64.8731ZM27.4885 52.3901C24.3882 46.8137 21.7559 41.3974 19.8202 36.689C17.8913 31.9974 16.6312 27.9546 16.315 25.1438L17.8056 24.9761C18.0976 27.5719 19.2908 31.4566 21.2075 36.1186C23.1172 40.7637 25.7226 46.1269 28.7995 51.6612L27.4885 52.3901ZM16.315 25.1439C15.8734 21.2258 17.2989 16.11 19.7608 12.6494L20.983 13.5189C18.714 16.7085 17.4092 21.4598 17.8056 24.9759L16.315 25.1439ZM19.7617 12.648C22.8917 8.26891 27.3359 5.47271 32.7428 4.50618L33.0068 5.98277C27.9789 6.88155 23.8806 9.46497 20.9821 13.5203L19.7617 12.648ZM32.7445 4.50589C33.5136 4.37017 34.9242 4.33243 36.27 4.36117C37.6151 4.3899 39.0277 4.4878 39.7981 4.66153L39.4682 6.12479C38.8599 5.98763 37.5827 5.88955 36.238 5.86083C34.894 5.83212 33.6148 5.87548 33.0052 5.98306L32.7445 4.50589ZM33.6858 4.12259L33.8537 5.61317L33.85 5.61358L33.6858 4.12259ZM21.7912 9.90773L20.7265 8.85103L20.7283 8.84925L21.7912 9.90773ZM16.0195 22.8432L14.5211 22.7754L14.5211 22.7741L16.0195 22.8432ZM17.7091 31.9669L16.2893 32.4507L16.2885 32.4483L17.7091 31.9669ZM31.4421 59.6626L30.1711 60.4593L30.168 60.4543L31.4421 59.6626ZM29.8876 61.5549L29.8047 60.0572L29.8135 60.0567L29.8876 61.5549ZM19.4257 62.839L19.7953 64.2927L19.7895 64.2942L19.4257 62.839ZM16.8035 64.069L15.6215 63.1455L15.6229 63.1437L16.8035 64.069ZM21.9263 67.0967L21.6906 68.5781L21.6856 68.5773L21.9263 67.0967ZM54.096 65.9478L54.7769 67.2844L54.7737 67.286L54.096 65.9478ZM54.069 63.4337L54.7528 62.0987L54.7547 62.0996L54.069 63.4337ZM41.8093 61.5549L41.8835 60.0567L41.8907 60.0571L41.8093 61.5549ZM40.2549 59.6626L41.5287 60.4547L41.5258 60.4593L40.2549 59.6626ZM55.0421 28.4526L56.4984 28.8125L56.497 28.8177L55.0421 28.4526ZM55.6774 22.8432L57.1757 22.7713L57.1758 22.7723L55.6774 22.8432ZM51.8117 12.0704L53.0107 11.169L53.0135 11.1729L51.8117 12.0704ZM33.9967 63.4878L32.7914 64.3806L32.7908 64.3798L33.9967 63.4878ZM37.7003 63.4878L38.9062 64.3798L38.9056 64.3806L37.7003 63.4878ZM38.4302 62.5011L37.2242 61.609L37.674 61.0011H38.4302V62.5011ZM39.7413 62.5011V61.0011L39.7451 61.0011L39.7413 62.5011ZM53.8392 64.5151L54.783 63.3492L54.7887 63.3539L54.7945 63.3586L53.8392 64.5151ZM54.1501 64.7719L55.1054 63.6154L56.8622 65.0667L54.8345 66.1066L54.1501 64.7719ZM53.6229 65.0422L54.3074 66.377L54.2996 66.3809L53.6229 65.0422ZM45.175 66.6372L45.3108 68.131L45.3074 68.1313L45.175 66.6372ZM29.766 66.8399L29.849 65.3422L29.8514 65.3424L29.766 66.8399ZM18.3174 65.1368L18.931 63.768L18.9416 63.7729L18.3174 65.1368ZM17.5334 64.7854L16.9198 66.1541L14.7777 65.1939L16.5491 63.6535L17.5334 64.7854ZM17.8443 64.5151L16.86 63.3831L16.88 63.3658L16.9005 63.3492L17.8443 64.5151ZM31.6178 62.5146L31.5999 61.0147L31.6055 61.0146L31.6178 62.5146ZM33.2668 62.5011L33.2545 61.0011L34.0184 60.9949L34.4727 61.609L33.2668 62.5011ZM33.85 5.61358C29.658 6.0752 25.9039 7.90374 22.854 10.9662L20.7283 8.84925C24.2475 5.31558 28.6304 3.17022 33.5216 2.63161L33.85 5.61358ZM22.8558 10.9644C19.4994 14.346 17.73 18.3095 17.5179 22.9122L14.5211 22.7741C14.7686 17.4016 16.8651 12.7414 20.7265 8.85103L22.8558 10.9644ZM17.518 22.9109C17.4082 25.3388 17.7805 27.5039 19.1298 31.4855L16.2885 32.4483C14.8803 28.2929 14.3876 25.7272 14.5211 22.7754L17.518 22.9109ZM19.129 31.4831C21.5685 38.6427 27.1192 49.8648 32.7161 58.8708L30.168 60.4543C24.492 51.321 18.8238 39.8891 16.2893 32.4507L19.129 31.4831ZM32.713 58.8659C33.0033 59.3291 33.2663 59.7635 33.4564 60.0918C33.5499 60.2531 33.6341 60.4032 33.6967 60.5236C33.7253 60.5786 33.765 60.6571 33.7996 60.7391C33.8136 60.7723 33.8503 60.8606 33.8796 60.9728C33.8926 61.0222 33.9243 61.15 33.9293 61.3159C33.9314 61.3887 33.9589 61.9568 33.4894 62.4263L31.3681 60.305C31.1175 60.5556 31.0158 60.8322 30.9732 61.0054C30.9304 61.1791 30.9281 61.3235 30.9306 61.406C30.9355 61.5673 30.9661 61.6892 30.9771 61.7313C31.0026 61.8288 31.032 61.8969 31.0352 61.9046C31.0484 61.9358 31.0532 61.9426 31.035 61.9074C31.0038 61.8474 30.9461 61.7433 30.8605 61.5954C30.6924 61.3053 30.4485 60.9017 30.1711 60.4593L32.713 58.8659ZM33.4894 62.4263C33.3053 62.6104 33.1187 62.6991 33.0655 62.7242C32.9868 62.7612 32.9208 62.7839 32.885 62.7955C32.8122 62.819 32.752 62.8324 32.7253 62.8382C32.6659 62.8509 32.6126 62.859 32.5826 62.8633C32.5158 62.873 32.4396 62.8816 32.3665 62.8892C32.2151 62.9048 32.0117 62.9225 31.7751 62.9407C31.2991 62.9773 30.6569 63.0187 29.9618 63.0531L29.8135 60.0567C30.4836 60.0236 31.0984 59.9838 31.545 59.9495C31.7696 59.9322 31.9438 59.9169 32.0581 59.9051C32.086 59.9022 32.1083 59.8997 32.1255 59.8977C32.134 59.8967 32.1406 59.8959 32.1455 59.8952C32.148 59.8949 32.1498 59.8947 32.1511 59.8945C32.1524 59.8943 32.153 59.8942 32.153 59.8943C32.153 59.8943 32.152 59.8944 32.1503 59.8947C32.1486 59.8949 32.1457 59.8954 32.1417 59.8961C32.1353 59.8972 32.1189 59.9 32.0963 59.9049C32.0798 59.9084 32.0278 59.9197 31.961 59.9413C31.9282 59.9519 31.8647 59.9737 31.7879 60.0098C31.7366 60.034 31.5514 60.1218 31.3681 60.305L33.4894 62.4263ZM29.9706 63.0526C25.3611 63.3079 22.0442 63.721 19.7953 64.2927L19.0561 61.3852C21.5921 60.7405 25.1417 60.3155 29.8047 60.0572L29.9706 63.0526ZM19.7895 64.2942C19.1009 64.4664 18.6497 64.621 18.3524 64.7608C18.0609 64.8978 17.9897 64.9872 17.9841 64.9943L15.6229 63.1437C16.3624 62.2001 17.612 61.7463 19.0619 61.3838L19.7895 64.2942ZM17.9855 64.9925C17.9156 65.082 18.094 64.8861 17.9908 64.5492C17.9172 64.3091 17.7919 64.3304 18.0943 64.5088C18.6884 64.8591 19.9753 65.2599 22.167 65.6162L21.6856 68.5773C19.4709 68.2172 17.6896 67.7529 16.5704 67.0929C16.0161 66.766 15.373 66.2459 15.1225 65.4283C14.8422 64.514 15.1845 63.7048 15.6215 63.1455L17.9855 64.9925ZM22.162 65.6154C27.0878 66.399 33.9781 66.6433 40.1778 66.4222C43.2709 66.3119 46.1607 66.0868 48.5193 65.7628C50.9413 65.43 52.6174 65.0153 53.4183 64.6096L54.7737 67.286C53.4795 67.9414 51.3507 68.4019 48.9277 68.7348C46.4415 69.0764 43.4464 69.3076 40.2847 69.4203C33.9748 69.6453 26.8753 69.4029 21.6906 68.5781L22.162 65.6154ZM53.4151 64.6113C53.5307 64.5523 53.6133 64.4996 53.6694 64.4578C53.726 64.4157 53.7481 64.3903 53.7502 64.3878C53.7518 64.3859 53.7287 64.4129 53.7051 64.472C53.6804 64.5339 53.6611 64.617 53.6622 64.7129C53.6633 64.8086 53.6843 64.8882 53.7078 64.9441C53.7301 64.9972 53.75 65.0185 53.7439 65.0114C53.7375 65.0039 53.7105 64.9746 53.6496 64.9293C53.589 64.8843 53.5023 64.829 53.3832 64.7678L54.7547 62.0996C55.6159 62.5423 56.6471 63.368 56.662 64.6787C56.6772 66.0089 55.6405 66.8444 54.7769 67.2844L53.4151 64.6113ZM53.3851 64.7688C52.7929 64.4655 51.4417 64.1024 49.3293 63.7794C47.2805 63.4661 44.682 63.2131 41.728 63.0527L41.8907 60.0571C44.911 60.2211 47.6111 60.4818 49.7828 60.8139C51.891 61.1363 53.6824 61.5504 54.7528 62.0987L53.3851 64.7688ZM41.7352 63.0531C41.0401 63.0187 40.3979 62.9773 39.9219 62.9407C39.6853 62.9225 39.4819 62.9048 39.3305 62.8892C39.2574 62.8816 39.1812 62.873 39.1143 62.8633C39.0844 62.859 39.0311 62.8509 38.9717 62.8382C38.945 62.8324 38.8848 62.819 38.812 62.7955C38.7762 62.7839 38.7102 62.7612 38.6315 62.7242C38.5783 62.6991 38.3916 62.6104 38.2075 62.4263L40.3289 60.305C40.1456 60.1218 39.9604 60.034 39.9091 60.0098C39.8323 59.9737 39.7688 59.9519 39.736 59.9413C39.6692 59.9197 39.6172 59.9084 39.6007 59.9049C39.5781 59.9 39.5617 59.8972 39.5552 59.8961C39.5513 59.8954 39.5483 59.8949 39.5467 59.8947C39.5449 59.8944 39.544 59.8943 39.544 59.8943C39.5439 59.8942 39.5445 59.8943 39.5459 59.8945C39.5472 59.8947 39.549 59.8949 39.5514 59.8952C39.5563 59.8959 39.5629 59.8967 39.5714 59.8977C39.5886 59.8997 39.611 59.9022 39.6389 59.9051C39.7531 59.9169 39.9274 59.9322 40.152 59.9495C40.5985 59.9838 41.2134 60.0236 41.8835 60.0567L41.7352 63.0531ZM38.2075 62.4263C37.738 61.9568 37.7655 61.3887 37.7677 61.3159C37.7727 61.15 37.8044 61.0222 37.8173 60.9728C37.8467 60.8606 37.8834 60.7723 37.8974 60.7391C37.932 60.6571 37.9717 60.5786 38.0003 60.5236C38.0628 60.4032 38.1471 60.2531 38.2406 60.0918C38.4307 59.7635 38.6936 59.3291 38.984 58.8659L41.5258 60.4593C41.2485 60.9017 41.0046 61.3053 40.8365 61.5954C40.7509 61.7433 40.6932 61.8474 40.662 61.9074C40.6437 61.9426 40.6486 61.9358 40.6617 61.9046C40.665 61.8969 40.6944 61.8288 40.7198 61.7313C40.7308 61.6892 40.7615 61.5673 40.7664 61.406C40.7688 61.3235 40.7666 61.1791 40.7238 61.0054C40.6812 60.8322 40.5794 60.5556 40.3289 60.305L38.2075 62.4263ZM38.9811 58.8704C45.7073 48.0547 51.8316 35.0841 53.5873 28.0875L56.497 28.8177C54.6303 36.2569 48.3192 49.5357 41.5287 60.4547L38.9811 58.8704ZM53.586 28.0927C54.1407 25.8481 54.2654 24.7388 54.1791 22.914L57.1758 22.7723C57.2787 24.9485 57.1061 26.3533 56.4983 28.8125L53.586 28.0927ZM54.1792 22.915C54.0043 19.2672 52.7831 15.8781 50.6098 12.9679L53.0135 11.1729C55.5441 14.5615 56.9721 18.5255 57.1757 22.7713L54.1792 22.915ZM50.6127 12.9718C46.6247 7.66702 40.2725 4.89027 33.8537 5.61317L33.5179 2.63202C41.0213 1.78698 48.402 5.03867 53.0106 11.169L50.6127 12.9718ZM35.202 62.5949C35.5801 63.1054 35.8865 63.4538 36.1064 63.6583C36.1586 63.7069 36.2002 63.742 36.2313 63.7662C36.2631 63.7909 36.2774 63.7992 36.2749 63.7977C36.2738 63.7971 36.241 63.7775 36.1793 63.7564C36.1186 63.7356 36.0038 63.7044 35.8485 63.7044V66.7044C35.3697 66.7044 34.9841 66.5192 34.7522 66.3826C34.4984 66.2331 34.2667 66.0443 34.0632 65.855C33.6546 65.4749 33.2243 64.9651 32.7914 64.3806L35.202 62.5949ZM35.8485 63.7044C35.6932 63.7044 35.5784 63.7356 35.5177 63.7564C35.456 63.7775 35.4232 63.7971 35.4221 63.7977C35.4196 63.7992 35.4339 63.7909 35.4656 63.7662C35.4967 63.742 35.5384 63.7069 35.5906 63.6583C35.8105 63.4538 36.1168 63.1054 36.4949 62.5949L38.9056 64.3806C38.4727 64.9651 38.0424 65.4749 37.6338 65.855C37.4303 66.0443 37.1985 66.2331 36.9448 66.3826C36.7129 66.5192 36.3273 66.7044 35.8485 66.7044V63.7044ZM36.4943 62.5957L37.2242 61.609L39.6361 63.3931L38.9062 64.3798L36.4943 62.5957ZM38.4302 61.0011H39.7413V64.0011H38.4302V61.0011ZM39.7451 61.0011C42.491 61.008 45.8024 61.2889 48.573 61.6834C49.9589 61.8808 51.2366 62.1104 52.2574 62.3562C52.7663 62.4787 53.2351 62.6109 53.6321 62.7532C53.9888 62.8811 54.4342 63.0668 54.783 63.3492L52.8954 65.6809C52.9603 65.7335 52.9187 65.6844 52.6196 65.5772C52.3608 65.4844 52.0051 65.3812 51.5552 65.2728C50.6583 65.0569 49.481 64.843 48.1501 64.6535C45.487 64.2742 42.3171 64.0076 39.7375 64.0011L39.7451 61.0011ZM54.7945 63.3586L55.1054 63.6154L53.1947 65.9283L52.8839 65.6715L54.7945 63.3586ZM54.8345 66.1066L54.3074 66.3769L52.9384 63.7075L53.4656 63.4371L54.8345 66.1066ZM54.2996 66.3809C53.4798 66.7953 52.1881 67.1326 50.7218 67.4099C49.207 67.6963 47.3532 67.9453 45.3108 68.131L45.0392 65.1433C47.0112 64.9641 48.7664 64.7265 50.1644 64.4621C51.6109 64.1886 52.5359 63.9109 52.9462 63.7035L54.2996 66.3809ZM45.3074 68.1313C42.0271 68.422 33.3035 68.5441 29.6806 68.3375L29.8514 65.3424C33.3382 65.5412 41.9159 65.4201 45.0426 65.143L45.3074 68.1313ZM29.683 68.3376C26.964 68.1869 24.4532 67.9397 22.406 67.6341C20.4163 67.3371 18.704 66.9634 17.6932 66.5008L18.9416 63.7729C19.5257 64.0402 20.8546 64.3693 22.849 64.667C24.7858 64.9561 27.2019 65.1955 29.849 65.3422L29.683 68.3376ZM17.7038 66.5056L16.9198 66.1541L18.147 63.4166L18.931 63.7681L17.7038 66.5056ZM16.5491 63.6535L16.86 63.3831L18.8286 65.647L18.5177 65.9173L16.5491 63.6535ZM16.9005 63.3492C17.2364 63.0772 17.6557 62.893 18.0044 62.7628C18.3853 62.6205 18.8309 62.4897 19.3131 62.369C20.2798 62.1273 21.4872 61.9037 22.8121 61.7111C25.4642 61.3256 28.69 61.0493 31.5999 61.0147L31.6356 64.0145C28.8686 64.0474 25.7753 64.3119 23.2437 64.6799C21.9769 64.864 20.8763 65.0705 20.041 65.2794C19.6223 65.3841 19.2933 65.4838 19.0541 65.5732C18.7827 65.6745 18.736 65.7231 18.7881 65.6809L16.9005 63.3492ZM31.6055 61.0146L33.2545 61.0011L33.2791 64.001L31.6301 64.0145L31.6055 61.0146ZM34.4727 61.609L35.2026 62.5957L32.7908 64.3798L32.0609 63.3931L34.4727 61.609Z" fill="#0D313B" mask="url(#path-1-outside-1_6486_46577)"/>
</g>
</g>
<circle id="Ellipse 2708" cx="36" cy="24" r="13.25" fill="#D9D9D9" stroke="#0D313B" stroke-width="2.5"/>
<g id="person.3">
<mask id="path-4-outside-2_6486_46577" maskUnits="userSpaceOnUse" x="27" y="15" width="17" height="18" fill="black">
<rect fill="white" x="27" y="15" width="17" height="18"/>
<path d="M35.5043 24.0074C37.5679 24.0074 39.2393 22.191 39.2393 19.9568C39.2393 17.7567 37.5765 16 35.5043 16C33.4576 16 31.7692 17.7823 31.7692 19.9738C31.7777 22.1995 33.4406 24.0074 35.5043 24.0074ZM35.5043 22.5151C34.3275 22.5151 33.3297 21.4065 33.3297 19.9653C33.3297 18.5753 34.3189 17.4923 35.5043 17.4923C36.6981 17.4923 37.6788 18.5583 37.6788 19.9568C37.6788 21.3894 36.6896 22.5151 35.5043 22.5151ZM30.1916 32.0404H40.8169C42.2922 32.0404 43 31.5713 43 30.5651C43 28.22 40.075 25.0989 35.5043 25.0989C30.9335 25.0989 28 28.22 28 30.5651C28 31.5713 28.7163 32.0404 30.1916 32.0404ZM29.9187 30.548C29.7226 30.548 29.6458 30.4798 29.6458 30.3263C29.6458 29.0216 31.7521 26.5912 35.5043 26.5912C39.2564 26.5912 41.3627 29.0216 41.3627 30.3263C41.3627 30.4798 41.286 30.548 41.0813 30.548H29.9187Z"/>
<path d="M35.5043 22.5151C34.3275 22.5151 33.3297 21.4065 33.3297 19.9653C33.3297 18.5753 34.3189 17.4923 35.5043 17.4923C36.6981 17.4923 37.6788 18.5583 37.6788 19.9568C37.6788 21.3894 36.6896 22.5151 35.5043 22.5151Z"/>
<path d="M29.9187 30.548C29.7226 30.548 29.6458 30.4798 29.6458 30.3263C29.6458 29.0216 31.7521 26.5912 35.5043 26.5912C39.2564 26.5912 41.3627 29.0216 41.3627 30.3263C41.3627 30.4798 41.286 30.548 41.0813 30.548H29.9187Z"/>
</mask>
<path d="M35.5043 24.0074C37.5679 24.0074 39.2393 22.191 39.2393 19.9568C39.2393 17.7567 37.5765 16 35.5043 16C33.4576 16 31.7692 17.7823 31.7692 19.9738C31.7777 22.1995 33.4406 24.0074 35.5043 24.0074ZM35.5043 22.5151C34.3275 22.5151 33.3297 21.4065 33.3297 19.9653C33.3297 18.5753 34.3189 17.4923 35.5043 17.4923C36.6981 17.4923 37.6788 18.5583 37.6788 19.9568C37.6788 21.3894 36.6896 22.5151 35.5043 22.5151ZM30.1916 32.0404H40.8169C42.2922 32.0404 43 31.5713 43 30.5651C43 28.22 40.075 25.0989 35.5043 25.0989C30.9335 25.0989 28 28.22 28 30.5651C28 31.5713 28.7163 32.0404 30.1916 32.0404ZM29.9187 30.548C29.7226 30.548 29.6458 30.4798 29.6458 30.3263C29.6458 29.0216 31.7521 26.5912 35.5043 26.5912C39.2564 26.5912 41.3627 29.0216 41.3627 30.3263C41.3627 30.4798 41.286 30.548 41.0813 30.548H29.9187Z" fill="#0D313B"/>
<path d="M35.5043 22.5151C34.3275 22.5151 33.3297 21.4065 33.3297 19.9653C33.3297 18.5753 34.3189 17.4923 35.5043 17.4923C36.6981 17.4923 37.6788 18.5583 37.6788 19.9568C37.6788 21.3894 36.6896 22.5151 35.5043 22.5151Z" fill="#36C5F0"/>
<path d="M29.9187 30.548C29.7226 30.548 29.6458 30.4798 29.6458 30.3263C29.6458 29.0216 31.7521 26.5912 35.5043 26.5912C39.2564 26.5912 41.3627 29.0216 41.3627 30.3263C41.3627 30.4798 41.286 30.548 41.0813 30.548H29.9187Z" fill="#36C5F0"/>
<path d="M35.5043 22.3151C34.4637 22.3151 33.5297 21.3237 33.5297 19.9653H33.1297C33.1297 21.4892 34.1912 22.7151 35.5043 22.7151V22.3151ZM33.5297 19.9653C33.5297 18.6632 34.4507 17.6923 35.5043 17.6923V17.2923C34.1871 17.2923 33.1297 18.4875 33.1297 19.9653H33.5297ZM35.5043 17.6923C36.5671 17.6923 37.4788 18.647 37.4788 19.9568H37.8788C37.8788 18.4695 36.8291 17.2923 35.5043 17.2923V17.6923ZM37.4788 19.9568C37.4788 21.3086 36.5517 22.3151 35.5043 22.3151V22.7151C36.8275 22.7151 37.8788 21.4702 37.8788 19.9568H37.4788ZM29.9187 30.348C29.8803 30.348 29.8562 30.3446 29.8424 30.3411C29.8292 30.3377 29.8302 30.3356 29.8364 30.3408C29.8438 30.347 29.8477 30.3543 29.8487 30.3569C29.8488 30.3573 29.8458 30.3491 29.8458 30.3263H29.4458C29.4458 30.4343 29.4735 30.5595 29.581 30.6487C29.6792 30.7301 29.8057 30.748 29.9187 30.748V30.348ZM29.8458 30.3263C29.8458 30.0499 29.9593 29.69 30.2033 29.298C30.4457 28.9088 30.8095 28.4999 31.2904 28.1277C32.2511 27.384 33.6726 26.7912 35.5043 26.7912V26.3912C33.5837 26.3912 32.0761 27.0136 31.0456 27.8114C30.5309 28.2098 30.1336 28.6532 29.8638 29.0866C29.5957 29.5172 29.4458 29.9504 29.4458 30.3263H29.8458ZM35.5043 26.7912C37.3359 26.7912 38.7575 27.384 39.7181 28.1277C40.199 28.4999 40.5628 28.9088 40.8052 29.298C41.0493 29.69 41.1627 30.0499 41.1627 30.3263H41.5627C41.5627 29.9504 41.4128 29.5172 41.1448 29.0866C40.8749 28.6532 40.4776 28.2098 39.963 27.8114C38.9324 27.0136 37.4248 26.3912 35.5043 26.3912V26.7912ZM41.1627 30.3263C41.1627 30.3491 41.1597 30.357 41.16 30.3561C41.1612 30.3529 41.1655 30.3453 41.1729 30.3393C41.1789 30.3344 41.1791 30.337 41.1641 30.3407C41.1485 30.3445 41.1224 30.348 41.0813 30.348V30.748C41.197 30.748 41.3253 30.7306 41.4246 30.6502C41.5349 30.5609 41.5627 30.4345 41.5627 30.3263H41.1627ZM41.0813 30.348H29.9187V30.748H41.0813V30.348ZM31.7692 19.9738H31.3692L31.3692 19.9754L31.7692 19.9738ZM35.5043 24.4074C37.819 24.4074 39.6393 22.3805 39.6393 19.9568H38.8393C38.8393 22.0015 37.3169 23.6074 35.5043 23.6074V24.4074ZM39.6393 19.9568C39.6393 17.5575 37.8185 15.6 35.5043 15.6V16.4C37.3344 16.4 38.8393 17.9559 38.8393 19.9568H39.6393ZM35.5043 15.6C33.2146 15.6 31.3692 17.5841 31.3692 19.9738H32.1692C32.1692 17.9804 33.7007 16.4 35.5043 16.4V15.6ZM31.3692 19.9754C31.3784 22.3896 33.1898 24.4074 35.5043 24.4074V23.6074C33.6914 23.6074 32.177 22.0095 32.1692 19.9723L31.3692 19.9754ZM30.1916 32.4404H40.8169V31.6404H30.1916V32.4404ZM40.8169 32.4404C41.5827 32.4404 42.225 32.3213 42.6849 32.012C43.1762 31.6816 43.4 31.1762 43.4 30.5651H42.6C42.6 30.9602 42.4699 31.1925 42.2385 31.3482C41.9757 31.5249 41.5264 31.6404 40.8169 31.6404V32.4404ZM43.4 30.5651C43.4 29.2368 42.5832 27.7668 41.2206 26.6439C39.8464 25.5115 37.8825 24.6989 35.5043 24.6989V25.4989C37.6968 25.4989 39.4808 26.2469 40.7118 27.2613C41.9544 28.2852 42.6 29.5483 42.6 30.5651H43.4ZM35.5043 24.6989C33.126 24.6989 31.1602 25.5115 29.784 26.6437C28.4194 27.7663 27.6 29.2364 27.6 30.5651H28.4C28.4 29.5487 29.0473 28.2857 30.2922 27.2615C31.5254 26.2469 33.3117 25.4989 35.5043 25.4989V24.6989ZM27.6 30.5651C27.6 31.1779 27.8273 31.683 28.3202 32.0126C28.7819 32.3213 29.4257 32.4404 30.1916 32.4404V31.6404C29.4822 31.6404 29.0302 31.525 28.7649 31.3476C28.5309 31.1911 28.4 30.9585 28.4 30.5651H27.6Z" fill="#0D313B" mask="url(#path-4-outside-2_6486_46577)"/>
</g>
</g>
</svg>
