<svg width="72" height="72" viewBox="0 0 72 72" fill="none" xmlns="http://www.w3.org/2000/svg">
<g id="contents">
<g id="Group 1171275692">
<path id="Vector 898" d="M62.4135 8H9V63H45.4904V54.0952L43 42L54.7452 45.1905H64L62.4135 8Z" fill="#2EB67D"/>
<g id="Group">
<path id="Vector" d="M12.081 4.15308C10.2046 4.56589 8.90364 5.19135 7.54013 6.3422C6.07654 7.5556 4.92569 9.3069 4.35026 11.1583L4 12.2841V35.9892V59.6943L4.35026 60.8201C5.351 64.0601 7.89039 66.5994 11.1303 67.6002L12.2561 67.9504H28.8434H45.4182L45.9311 67.6127C46.7067 67.0998 47.0319 66.4869 47.0319 65.5111C47.0319 64.5354 46.7067 63.9224 45.9311 63.4096L45.4182 63.0718L29.1562 63.0093L12.8816 62.9467L12.1561 62.659C10.7675 62.0961 9.71674 60.9953 9.22888 59.5817C9.01622 58.9813 9.00371 57.7554 9.00371 35.9267V12.9096L9.29143 12.184C9.85435 10.7955 10.9552 9.74473 12.3687 9.25687C12.9692 9.04421 14.1951 9.0317 35.9612 9.0317C57.7274 9.0317 58.9533 9.04421 59.5537 9.25687C60.9673 9.74473 62.0681 10.7955 62.631 12.184L62.9187 12.9096L62.9813 29.2467L63.0438 45.5713L63.3816 46.0842C63.8945 46.8598 64.5074 47.185 65.4831 47.185C66.4589 47.185 67.0718 46.8598 67.5847 46.0842L67.9225 45.5713V28.934V12.2841L67.5722 11.1583C66.5715 7.91837 64.0321 5.37899 60.7922 4.37825L59.6663 4.02799L36.274 4.00297C16.6719 3.99046 12.7565 4.01548 12.081 4.15308Z" fill="#0B2D1F"/>
<path id="Vector_2" d="M18.0986 15.7365C17.5107 15.9116 16.7351 16.7247 16.56 17.3752C16.2722 18.4885 16.7101 19.6519 17.6608 20.2398L18.1361 20.54H35.9619H53.7876L54.2629 20.2398C54.5256 20.0772 54.8884 19.7144 55.0761 19.4392C55.3638 19.0139 55.4138 18.7887 55.4138 18.1007C55.4138 17.4127 55.3638 17.1876 55.0761 16.7622C54.8884 16.487 54.5256 16.1243 54.2629 15.9616L53.7876 15.6614L36.1495 15.6364C25.2414 15.6239 18.3488 15.6614 18.0986 15.7365Z" fill="#0B2D1F"/>
<path id="Vector_3" d="M18.0986 25.744C17.5107 25.9192 16.7351 26.7323 16.56 27.3828C16.2722 28.4961 16.7101 29.6594 17.6608 30.2474L18.1361 30.5476H35.9619H53.7876L54.2629 30.2474C54.5256 30.0848 54.8884 29.722 55.0761 29.4468C55.3638 29.0215 55.4138 28.7963 55.4138 28.1083C55.4138 27.4203 55.3638 27.1951 55.0761 26.7698C54.8884 26.4946 54.5256 26.1318 54.2629 25.9692L53.7876 25.669L36.1495 25.644C25.2414 25.6315 18.3488 25.669 18.0986 25.744Z" fill="#0B2D1F"/>
<path id="Vector_4" d="M18.0986 35.7514C17.5107 35.9265 16.7351 36.7521 16.56 37.3901C16.2722 38.5034 16.7101 39.6668 17.6608 40.2547L18.1361 40.5549H24.7035H31.2709L31.7462 40.2547C32.0089 40.0921 32.3717 39.7293 32.5593 39.4541C32.847 39.0288 32.8971 38.8036 32.8971 38.1156C32.8971 37.4276 32.847 37.2024 32.5593 36.7771C32.3717 36.5019 32.0089 36.1392 31.7462 35.9765L31.2709 35.6763L24.8911 35.6513C21.0883 35.6388 18.3488 35.6763 18.0986 35.7514Z" fill="#0B2D1F"/>
<path id="Vector_5" d="M39.5997 37.9155C38.7115 38.2283 37.9609 39.3166 37.9609 40.2673C37.9609 40.7176 40.8256 50.9752 41.0883 51.5006C41.2134 51.7383 44.6534 55.2659 48.7439 59.3314C55.8242 66.3867 56.1995 66.7494 57.1001 67.1873C60.1149 68.6508 63.4048 68.1129 65.7441 65.7737C68.0833 63.4345 68.6212 60.1195 67.1576 57.1298C66.7198 56.2541 66.2569 55.7663 59.4269 48.8361C55.4239 44.7831 51.9338 41.3431 51.6461 41.1679C51.0206 40.8052 40.9757 37.7404 40.4253 37.7529C40.2001 37.7529 39.8373 37.828 39.5997 37.9155ZM46.5673 44.6956L48.9066 45.4086L53.56 50.0495L58.226 54.6905L56.4497 56.4668L54.6608 58.2556L50.0824 53.6772L45.504 49.0988L44.8536 46.7346C44.5033 45.4336 44.1781 44.2828 44.1405 44.1827C44.0905 44.0826 44.103 43.995 44.153 43.995C44.1906 43.995 45.2789 44.3078 46.5673 44.6956ZM62.5167 59.1188C62.8669 59.6191 62.917 59.7943 62.917 60.5073C62.917 61.1828 62.8544 61.408 62.5792 61.7958C61.6535 63.1468 60.1274 63.3844 58.8389 62.3587L58.201 61.8583L59.9898 60.057C61.9663 58.0805 61.8287 58.1305 62.5167 59.1188Z" fill="#0B2D1F"/>
</g>
</g>
</g>
</svg>
