<svg width="72" height="72" viewBox="0 0 72 72" fill="none" xmlns="http://www.w3.org/2000/svg">
<g id="contents">
<g id="Group 1171275692">
<path id="Vector 898" d="M62.4135 8H9V63H45.4904V54.0952L43 42L54.7452 45.1905H64L62.4135 8Z" fill="#FF3333"/>
<g id="Group">
<path id="Vector" d="M12.081 4.15296C10.2046 4.56576 8.90364 5.19123 7.54013 6.34208C6.07654 7.55548 4.92569 9.30678 4.35026 11.1582L4 12.284V35.9891V59.6942L4.35026 60.82C5.351 64.0599 7.89039 66.5993 11.1303 67.6001L12.2561 67.9503H28.8434H45.4182L45.9311 67.6126C46.7067 67.0997 47.0319 66.4867 47.0319 65.511C47.0319 64.5353 46.7067 63.9223 45.9311 63.4094L45.4182 63.0717L29.1562 63.0091L12.8816 62.9466L12.1561 62.6589C10.7675 62.096 9.71674 60.9952 9.22888 59.5816C9.01622 58.9812 9.00371 57.7552 9.00371 35.9265V12.9095L9.29143 12.1839C9.85435 10.7954 10.9552 9.74461 12.3687 9.25675C12.9692 9.04409 14.1951 9.03158 35.9612 9.03158C57.7274 9.03158 58.9533 9.04409 59.5537 9.25675C60.9673 9.74461 62.0681 10.7954 62.631 12.1839L62.9187 12.9095L62.9813 29.2466L63.0438 45.5712L63.3816 46.0841C63.8945 46.8597 64.5074 47.1849 65.4831 47.1849C66.4589 47.1849 67.0718 46.8597 67.5847 46.0841L67.9225 45.5712V28.9339V12.284L67.5722 11.1582C66.5715 7.91825 64.0321 5.37887 60.7922 4.37812L59.6663 4.02786L36.274 4.00285C16.6719 3.99034 12.7565 4.01535 12.081 4.15296Z" fill="#4D0000"/>
<path id="Vector_2" d="M18.0986 15.7365C17.5107 15.9116 16.7351 16.7247 16.56 17.3752C16.2722 18.4885 16.7101 19.6519 17.6608 20.2398L18.1361 20.54H35.9619H53.7876L54.2629 20.2398C54.5256 20.0772 54.8884 19.7144 55.0761 19.4392C55.3638 19.0139 55.4138 18.7887 55.4138 18.1007C55.4138 17.4127 55.3638 17.1876 55.0761 16.7622C54.8884 16.487 54.5256 16.1243 54.2629 15.9616L53.7876 15.6614L36.1495 15.6364C25.2414 15.6239 18.3488 15.6614 18.0986 15.7365Z" fill="#4D0000"/>
<path id="Vector_3" d="M18.0986 25.7438C17.5107 25.9189 16.7351 26.732 16.56 27.3825C16.2722 28.4958 16.7101 29.6592 17.6608 30.2471L18.1361 30.5474H35.9619H53.7876L54.2629 30.2471C54.5256 30.0845 54.8884 29.7218 55.0761 29.4465C55.3638 29.0212 55.4138 28.7961 55.4138 28.1081C55.4138 27.42 55.3638 27.1949 55.0761 26.7696C54.8884 26.4944 54.5256 26.1316 54.2629 25.969L53.7876 25.6687L36.1495 25.6437C25.2414 25.6312 18.3488 25.6687 18.0986 25.7438Z" fill="#4D0000"/>
<path id="Vector_4" d="M18.0986 35.7511C17.5107 35.9263 16.7351 36.7519 16.56 37.3898C16.2722 38.5032 16.7101 39.6665 17.6608 40.2545L18.1361 40.5547H24.7035H31.2709L31.7462 40.2545C32.0089 40.0918 32.3717 39.7291 32.5593 39.4539C32.847 39.0286 32.8971 38.8034 32.8971 38.1154C32.8971 37.4274 32.847 37.2022 32.5593 36.7769C32.3717 36.5017 32.0089 36.1389 31.7462 35.9763L31.2709 35.6761L24.8911 35.651C21.0883 35.6385 18.3488 35.6761 18.0986 35.7511Z" fill="#4D0000"/>
<path id="Vector_5" d="M39.5997 37.9154C38.7115 38.2281 37.9609 39.3164 37.9609 40.2671C37.9609 40.7175 40.8256 50.9751 41.0883 51.5005C41.2134 51.7382 44.6534 55.2658 48.7439 59.3313C55.8242 66.3865 56.1995 66.7493 57.1001 67.1871C60.1149 68.6507 63.4048 68.1128 65.7441 65.7736C68.0833 63.4343 68.6212 60.1194 67.1576 57.1297C66.7198 56.254 66.2569 55.7662 59.4269 48.836C55.4239 44.783 51.9338 41.3429 51.6461 41.1678C51.0206 40.805 40.9757 37.7403 40.4253 37.7528C40.2001 37.7528 39.8373 37.8278 39.5997 37.9154ZM46.5673 44.6954L48.9066 45.4085L53.56 50.0494L58.226 54.6904L56.4497 56.4667L54.6608 58.2555L50.0824 53.6771L45.504 49.0987L44.8536 46.7344C44.5033 45.4335 44.1781 44.2826 44.1405 44.1826C44.0905 44.0825 44.103 43.9949 44.153 43.9949C44.1906 43.9949 45.2789 44.3076 46.5673 44.6954ZM62.5167 59.1186C62.8669 59.619 62.917 59.7941 62.917 60.5072C62.917 61.1827 62.8544 61.4078 62.5792 61.7956C61.6535 63.1466 60.1274 63.3843 58.8389 62.3585L58.201 61.8582L59.9898 60.0568C61.9663 58.0804 61.8287 58.1304 62.5167 59.1186Z" fill="#4D0000"/>
</g>
</g>
</g>
</svg>
