<svg width="72" height="72" viewBox="0 0 72 72" fill="none" xmlns="http://www.w3.org/2000/svg">
<g id="courses">
<g id="Group 1171275685">
<g id="Vector">
<path d="M64.7694 17.5284C63.5911 17.3712 62.3969 17.2876 61.2067 17.202V15.8108C61.2067 14.5628 60.3369 13.5318 59.1367 13.3547C51.1036 12.1863 43.2218 13.9478 36.4585 18.0559C29.6515 13.9199 21.7597 12.1923 13.7823 13.3547C12.5801 13.5298 11.7104 14.5628 11.7104 15.8108V17.202C10.5201 17.2876 9.3259 17.3712 8.14959 17.5284C6.92353 17.6897 6 18.7505 6 19.9925V56.1932C6 57.7955 7.48083 58.9718 9.03928 58.6036C17.6416 56.5595 27.5357 56.4838 33.8133 57.264C35.5688 57.483 37.3482 57.483 39.1057 57.264C45.4052 56.4818 55.2873 56.5614 63.8797 58.6055C65.4263 58.9738 66.917 57.8014 66.917 56.1932V19.9925C66.919 18.7505 65.9935 17.6917 64.7694 17.5284ZM57.3991 16.9711V48.6318C51.0956 47.4217 44.6309 48.1183 38.3633 50.9765V21.4634H38.2498C43.9741 17.9285 50.4846 16.2427 57.3991 16.9711ZM15.5179 16.9711C21.909 16.2984 28.4831 17.6419 34.6692 21.4634H34.5557V50.9765C28.3757 48.1581 21.9209 47.4058 15.5179 48.6318V16.9711ZM9.80756 54.5313V21.1609C10.4405 21.0892 11.0754 21.0554 11.7123 21.0056V50.3057C11.7123 51.9259 13.1832 53.0883 14.7058 52.7081C19.4608 51.5179 24.5542 51.5537 29.6077 53.1201C21.499 52.7579 15.3547 53.357 9.80756 54.5313ZM63.1115 54.5313C57.5643 53.357 51.4221 52.7579 43.3113 53.1201C48.3629 51.5537 53.4562 51.5179 58.2112 52.7081C59.7517 53.0922 61.2067 51.912 61.2067 50.3037V21.0056C61.8416 21.0534 62.4785 21.0892 63.1115 21.1589V54.5313Z" fill="#4D0000"/>
<path d="M15.5179 16.9711C21.909 16.2984 28.4831 17.6419 34.6692 21.4634H34.5557V50.9765C28.3757 48.1581 21.9209 47.4058 15.5179 48.6318V16.9711Z" fill="#FF3333"/>
<path d="M57.3991 16.9711V48.6318C51.0956 47.4217 44.6309 48.1183 38.3633 50.9765V21.4634H38.2498C43.9741 17.9285 50.4846 16.2427 57.3991 16.9711Z" fill="#FF3333"/>
<path d="M63.1115 54.5313C57.5643 53.357 51.4221 52.7579 43.3113 53.1201C48.3629 51.5537 53.4562 51.5179 58.2112 52.7081C59.7517 53.0922 61.2067 51.912 61.2067 50.3037V21.0056C61.8416 21.0534 62.4785 21.0892 63.1115 21.1589V54.5313Z" fill="#FF3333"/>
<path d="M9.80756 54.5313V21.1609C10.4405 21.0892 11.0754 21.0554 11.7123 21.0056V50.3057C11.7123 51.9259 13.1832 53.0883 14.7058 52.7081C19.4608 51.5179 24.5542 51.5537 29.6077 53.1201C21.499 52.7579 15.3547 53.357 9.80756 54.5313Z" fill="#FF3333"/>
</g>
</g>
</g>
</svg>
