<svg width="72" height="72" viewBox="0 0 72 72" fill="none" xmlns="http://www.w3.org/2000/svg">
<g id="lms-&#38;-forum">
<g id="Group 1171275691">
<path id="Vector 430" d="M36.6949 32.4648L23.1838 26.7759L22.4727 26.0648L36.6949 19.6648L50.206 26.0648L36.6949 32.4648Z" fill="#2EB67D"/>
<path id="Vector" d="M51.9527 25.3446L37.2353 19.0371C36.9731 18.9261 36.6773 18.9261 36.4154 19.0371L21.698 25.3446C21.4436 25.4531 21.2424 25.6571 21.1373 25.9129C21.0324 26.1684 21.0324 26.4551 21.1373 26.7109C21.2424 26.9664 21.4436 27.1707 21.698 27.2789L36.4154 33.5864C36.6773 33.6974 36.9731 33.6974 37.2353 33.5864L47.3376 29.2553V42.0803C47.3376 42.456 47.538 42.8031 47.8632 42.991C48.1884 43.1785 48.5893 43.1785 48.9145 42.991C49.2397 42.8031 49.4401 42.456 49.4401 42.0803V28.351L51.9526 27.2997C52.2067 27.1915 52.4082 26.9872 52.5131 26.7317C52.618 26.4759 52.618 26.1892 52.5131 25.9334C52.4082 25.6779 52.2067 25.4736 51.9526 25.3654L51.9527 25.3446ZM36.8255 31.4734L24.7782 26.3119L36.8255 21.1503L48.8727 26.3119L36.8255 31.4734ZM46.2871 32.6194V38.0543C46.289 38.3964 46.1242 38.718 45.8456 38.9164C43.2452 40.8906 40.09 41.9978 36.8258 42.0805C33.563 42.0008 30.4078 40.8976 27.806 38.9269C27.5241 38.7263 27.359 38.4 27.3646 38.0543V32.6194C27.3646 32.2437 27.5649 31.8966 27.8901 31.709C28.2153 31.5212 28.616 31.5212 28.9415 31.709C29.2667 31.8966 29.467 32.2437 29.467 32.6194V37.4971C34.4185 40.8085 39.2333 40.8085 44.1844 37.4971V32.6194C44.1844 32.2437 44.3847 31.8966 44.7099 31.709C45.0351 31.5212 45.4361 31.5212 45.7612 31.709C46.0864 31.8966 46.2868 32.2437 46.2868 32.6194H46.2871Z" fill="#0B2D1F"/>
<g id="Group 159071">
<g id="Group 159038">
<path id="display" d="M4 46.2625C4 51.206 6.52492 53.6512 11.3621 53.6512H27.6013L26.8837 58.4618H24.0664C22.7375 58.4618 21.6478 59.5781 21.6478 60.907C21.6478 62.2093 22.7375 63.3256 24.0664 63.3256H48.1196C49.4751 63.3256 50.5648 62.2093 50.5648 60.907C50.5648 59.5781 49.4751 58.4618 48.1196 58.4618H45.0897L44.3987 53.6512H60.6113C65.4485 53.6512 68 51.206 68 46.2625V16.3621C68 11.4452 65.4485 9 60.6113 9H11.3621C6.52492 9 4 11.4452 4 16.3621V46.2625ZM9.18272 45.9435V16.7076C9.18272 14.8738 9.95349 14.1827 11.7076 14.1827H60.2658C62.0199 14.1827 62.8173 14.8738 62.8173 16.7076V45.9435C62.8173 47.7508 62.0199 48.4684 60.2658 48.4684H11.7076C9.95349 48.4684 9.18272 47.7508 9.18272 45.9435Z" fill="#0B2D1F"/>
</g>
</g>
</g>
</g>
</svg>
