<svg width="72" height="72" viewBox="0 0 72 72" fill="none" xmlns="http://www.w3.org/2000/svg">
<g id="reviews ">
<g id="Group 1171275704">
<path id="Vector 894" d="M30 7.5H8.5V64.5H49.5V23.5H30V7.5Z" fill="#2EB67D"/>
<path id="Vector 895" d="M30.5 24V8.50004C31.3333 7.83337 33 6.30004 33 5.50004C33 4.70004 44 17.8334 49.5 24.5L30.5 24Z" fill="#22885E"/>
<g id="Group 1171275702">
<path id="Vector" d="M15.2526 32.1044C14.7997 32.2829 14.2022 33.1116 14.0673 33.7745C13.8456 34.9092 14.1829 36.0948 14.9153 36.694L15.2815 37H29.0144H42.7472L43.1134 36.694C43.3158 36.5283 43.5952 36.1586 43.7398 35.8781C43.9615 35.4446 44 35.2151 44 34.514C44 33.8128 43.9615 33.5833 43.7398 33.1498C43.5952 32.8693 43.3158 32.4996 43.1134 32.3339L42.7472 32.0279L29.1589 32.0024C20.7554 31.9897 15.4454 32.0279 15.2526 32.1044Z" fill="#0B2D1F"/>
<path id="Vector_2" d="M15.2526 42.1044C14.7997 42.2829 14.2022 43.1116 14.0673 43.7745C13.8456 44.9092 14.1829 46.0948 14.9153 46.694L15.2815 47H29.0144H42.7472L43.1134 46.694C43.3158 46.5283 43.5952 46.1586 43.7398 45.8781C43.9615 45.4446 44 45.2151 44 44.514C44 43.8128 43.9615 43.5833 43.7398 43.1498C43.5952 42.8693 43.3158 42.4996 43.1134 42.3339L42.7472 42.0279L29.1589 42.0024C20.7554 41.9897 15.4454 42.0279 15.2526 42.1044Z" fill="#0B2D1F"/>
<path id="Vector_3" d="M15.6259 52.1171C15.038 52.2922 14.2624 53.1178 14.0873 53.7558C13.7996 54.8691 14.2374 56.0325 15.1881 56.6204L15.6635 56.9207H22.2308H28.7982L29.2736 56.6204C29.5363 56.4578 29.899 56.095 30.0867 55.8198C30.3744 55.3945 30.4244 55.1694 30.4244 54.4813C30.4244 53.7933 30.3744 53.5682 30.0867 53.1429C29.899 52.8676 29.5363 52.5049 29.2736 52.3423L28.7982 52.042L22.4185 52.017C18.6157 52.0045 15.8761 52.042 15.6259 52.1171Z" fill="#0B2D1F"/>
</g>
<g id="Group 125">
<path id="Vector_4" d="M51.2789 20.6864L34.8347 4.6865C34.6278 4.46317 34.3738 4.28621 34.0898 4.16781C33.8059 4.0494 33.499 3.99244 33.1902 4.0008H9.6984C8.45344 4.00442 7.26048 4.48722 6.38016 5.34373C5.49984 6.20023 5.00368 7.36089 5 8.57218V63.4286C5.00368 64.64 5.49984 65.8006 6.38016 66.6571C7.26048 67.5136 8.45344 67.9965 9.6984 68H47.2853C48.5301 67.9965 49.723 67.5136 50.6034 66.6571C51.4837 65.8006 51.9798 64.64 51.9835 63.4286V22.2864C51.9922 21.9859 51.9336 21.6872 51.812 21.4109C51.6904 21.1347 51.5085 20.8874 51.2789 20.6864ZM33.1902 9.48645L46.3456 22.2864H33.1902V9.48645ZM47.2853 63.4286H9.6984V8.57218H28.4917V22.2864C28.4957 23.4976 28.9918 24.6582 29.872 25.5147C30.7523 26.3714 31.9453 26.8541 33.1902 26.8576H47.2853V63.4286Z" fill="#0B2D1F"/>
</g>
<g id="Group 1171275703">
<g id="Group">
<g id="Vector_5">
<path d="M34.9908 29.496C33.9425 29.6707 32.8858 30.2365 32.1036 31.0269C31.5212 31.6177 31.1302 32.2584 30.8306 33.107L30.5977 33.7727V43.5907C30.5977 52.8846 30.606 53.4338 30.7474 53.908C31.3049 55.7219 32.8275 57.2029 34.5914 57.6522C35.0075 57.7604 36.0725 57.777 41.6804 57.777H48.2702L53.2291 61.3132C56.1246 63.3766 58.3212 64.8826 58.4959 64.9326C59.3197 65.1572 60.1767 64.8078 60.601 64.0756L60.8007 63.7261L60.8257 60.7557L60.8506 57.777H61.2417C63.2053 57.777 65.3187 56.0547 65.976 53.908C66.1174 53.4338 66.1257 52.8846 66.1257 43.5907V33.7727L65.8678 33.0654C65.2854 31.418 64.1289 30.2698 62.4648 29.679L61.7991 29.4461L48.6113 29.4378C41.3559 29.4294 35.2321 29.4544 34.9908 29.496ZM61.5079 33.2319C61.9239 33.4399 62.1486 33.6812 62.3483 34.1055C62.4981 34.4217 62.5064 34.8543 62.5064 43.7988C62.5064 52.7349 62.4981 53.1758 62.3483 53.492C62.2651 53.6751 62.0904 53.9247 61.9572 54.0495C61.4913 54.4821 61.2417 54.5321 59.511 54.5321C57.0898 54.5321 57.1813 54.4156 57.1813 57.3527V59.4328L53.6285 57.0781C51.6649 55.7801 49.9343 54.6569 49.7762 54.5737C49.0606 54.2076 48.9774 54.1993 42.2046 54.1993C37.9612 54.1993 35.6481 54.166 35.4401 54.1077C35.0324 53.9996 34.5665 53.5835 34.3751 53.1592C34.2253 52.843 34.217 52.3438 34.217 43.624V34.43L34.425 34.0056C34.633 33.6063 34.8078 33.4315 35.2987 33.1736C35.4651 33.0904 37.9446 33.0654 48.3451 33.0654C61.017 33.0654 61.1834 33.0654 61.5079 33.2319Z" fill="#0B2D1F"/>
<path d="M61.5079 33.2319C61.9239 33.4399 62.1486 33.6812 62.3483 34.1055C62.4981 34.4217 62.5064 34.8543 62.5064 43.7988C62.5064 52.7349 62.4981 53.1758 62.3483 53.492C62.2651 53.6751 62.0904 53.9247 61.9572 54.0495C61.4913 54.4821 61.2417 54.5321 59.511 54.5321C57.0898 54.5321 57.1813 54.4156 57.1813 57.3527V59.4328L53.6285 57.0781C51.6649 55.7801 49.9343 54.6569 49.7762 54.5737C49.0606 54.2076 48.9774 54.1993 42.2046 54.1993C37.9612 54.1993 35.6481 54.166 35.4401 54.1077C35.0324 53.9996 34.5665 53.5835 34.3751 53.1592C34.2253 52.843 34.217 52.3438 34.217 43.624V34.43L34.425 34.0056C34.633 33.6063 34.8078 33.4315 35.2987 33.1736C35.4651 33.0904 37.9446 33.0654 48.3451 33.0654C61.017 33.0654 61.1834 33.0654 61.5079 33.2319Z" fill="#62C89E"/>
</g>
</g>
<g id="Group 1171275702_2">
<path id="Vector_6" d="M57.4289 37.389C57.7272 37.4739 58.1208 37.8681 58.2096 38.1834C58.3556 38.7232 58.1334 39.2872 57.6511 39.5722L57.4099 39.7178H48.3656H39.3213L39.0802 39.5722C38.9469 39.4934 38.7628 39.3175 38.6676 39.1841C38.5216 38.9779 38.4962 38.8687 38.4962 38.5352C38.4962 38.2016 38.5216 38.0925 38.6676 37.8863C38.7628 37.7528 38.9469 37.577 39.0802 37.4981L39.3213 37.3526L48.2704 37.3405C53.8049 37.3344 57.302 37.3526 57.4289 37.389Z" fill="#0B2D1F"/>
<path id="Vector_7" d="M57.4289 42.1458C57.7272 42.2307 58.1208 42.6249 58.2096 42.9403C58.3556 43.48 58.1334 44.044 57.6511 44.3291L57.4099 44.4746H48.3656H39.3213L39.0802 44.3291C38.9469 44.2502 38.7628 44.0743 38.6676 43.9409C38.5216 43.7347 38.4962 43.6256 38.4962 43.292C38.4962 42.9585 38.5216 42.8493 38.6676 42.6431C38.7628 42.5097 38.9469 42.3338 39.0802 42.255L39.3213 42.1094L48.2704 42.0973C53.8049 42.0912 57.302 42.1094 57.4289 42.1458Z" fill="#0B2D1F"/>
<path id="Vector_8" d="M57.1831 46.9088C57.5703 46.9921 58.0811 47.3849 58.1964 47.6883C58.3859 48.218 58.0975 48.7714 57.4714 49.051L57.1584 49.1938H52.8332H48.508L48.1949 49.051C48.0219 48.9737 47.783 48.8011 47.6594 48.6702C47.4699 48.4679 47.437 48.3608 47.437 48.0335C47.437 47.7062 47.4699 47.5991 47.6594 47.3968C47.783 47.2659 48.0219 47.0933 48.1949 47.0159L48.508 46.8731L52.7096 46.8612C55.2141 46.8553 57.0183 46.8731 57.1831 46.9088Z" fill="#0B2D1F"/>
</g>
</g>
</g>
</g>
</svg>
