<svg width="72" height="72" viewBox="0 0 72 72" fill="none" xmlns="http://www.w3.org/2000/svg">
<g id="follow-ups">
<g id="Group 1171275007">
<g id="Group 1171275006">
<g id="Group 1171275004">
<ellipse id="Ellipse 13" cx="55.6002" cy="11.6564" rx="4.02989" ry="4.60559" fill="#22885E"/>
<path id="Vector 25" d="M55.0242 21.4434C47.1947 21.4434 45.2373 26.049 45.2373 28.3517L46.3887 29.5031H55.8877H65.3868L65.9625 28.3517C65.5787 26.049 62.8537 21.4434 55.0242 21.4434Z" fill="#62C89E"/>
<path id="person.3" d="M55.599 18.1402C58.8541 18.1402 61.4905 15.2751 61.4905 11.751C61.4905 8.28065 58.8676 5.50977 55.599 5.50977C52.3708 5.50977 49.7075 8.32101 49.7075 11.7779C49.721 15.2886 52.3439 18.1402 55.599 18.1402ZM55.599 15.7863C53.7428 15.7863 52.169 14.0376 52.169 11.7644C52.169 9.57194 53.7293 7.86368 55.599 7.86368C57.4821 7.86368 59.029 9.54504 59.029 11.751C59.029 14.0107 57.4687 15.7863 55.599 15.7863ZM47.2191 30.8109H63.9789C66.3059 30.8109 67.4224 30.0711 67.4224 28.4839C67.4224 24.7849 62.8087 19.8619 55.599 19.8619C48.3893 19.8619 43.7622 24.7849 43.7622 28.4839C43.7622 30.0711 44.8921 30.8109 47.2191 30.8109ZM46.7887 28.457C46.4793 28.457 46.3582 28.3494 46.3582 28.1073C46.3582 26.0493 49.6806 22.2158 55.599 22.2158C61.5174 22.2158 64.8398 26.0493 64.8398 28.1073C64.8398 28.3494 64.7187 28.457 64.3959 28.457H46.7887Z" fill="#0B2D1F" stroke="#0B2D1F" stroke-width="1.11895"/>
</g>
<g id="Group 1171275005">
<ellipse id="Ellipse 13_2" cx="16.0703" cy="42.9729" rx="3.76852" ry="4.30688" fill="#22885E"/>
<path id="Vector 25_2" d="M15.5315 52.125C8.20982 52.125 6.37939 56.4319 6.37939 58.5853L7.45611 59.662H16.3391H25.222L25.7603 58.5853C25.4014 56.4319 22.8532 52.125 15.5315 52.125Z" fill="#62C89E"/>
<path id="person.3_2" d="M16.0691 49.0358C19.1131 49.0358 21.5785 46.3566 21.5785 43.061C21.5785 39.8158 19.1257 37.2246 16.0691 37.2246C13.0502 37.2246 10.5597 39.8535 10.5597 43.0862C10.5723 46.3692 13.0251 49.0358 16.0691 49.0358ZM16.0691 46.8346C14.3332 46.8346 12.8616 45.1994 12.8616 43.0736C12.8616 41.0233 14.3207 39.4258 16.0691 39.4258C17.8301 39.4258 19.2766 40.9982 19.2766 43.061C19.2766 45.1742 17.8175 46.8346 16.0691 46.8346ZM8.23267 60.8848H23.9055C26.0816 60.8848 27.1256 60.1929 27.1256 58.7087C27.1256 55.2496 22.8112 50.6459 16.0691 50.6459C9.327 50.6459 5 55.2496 5 58.7087C5 60.1929 6.05659 60.8848 8.23267 60.8848ZM7.83016 58.6835C7.54086 58.6835 7.42765 58.5829 7.42765 58.3565C7.42765 56.432 10.5345 52.8471 16.0691 52.8471C21.6036 52.8471 24.7105 56.432 24.7105 58.3565C24.7105 58.5829 24.5973 58.6835 24.2954 58.6835H7.83016Z" fill="#0B2D1F" stroke="#0B2D1F" stroke-width="1.04638"/>
</g>
<g id="Vector">
<mask id="path-7-outside-1_6461_46613" maskUnits="userSpaceOnUse" x="10.5444" y="3" width="33" height="33" fill="black">
<rect fill="white" x="10.5444" y="3" width="33" height="33"/>
<path d="M34.1835 16.8332C33.7473 17.2705 33.7473 17.9754 34.1835 18.4116C34.6196 18.8489 35.3257 18.8489 35.7618 18.4116L42.0206 12.1642C42.3451 11.8397 42.4351 11.358 42.2677 10.9446C42.2005 10.776 42.0991 10.6417 41.9762 10.5301L35.7732 4.32712C35.337 3.89096 34.631 3.89096 34.1948 4.32712C33.7575 4.76441 33.7575 5.46932 34.1948 5.90547L38.5165 10.2499H30.3321C19.976 10.2499 11.5444 18.6803 11.5444 29.049V33.7624C11.5444 34.3773 12.0489 34.8818 12.6639 34.8818C13.2799 34.8818 13.7844 34.3773 13.7844 33.7624V29.049C13.7844 19.9125 21.207 12.4888 30.3435 12.4888H38.5279L34.1835 16.8332Z"/>
</mask>
<path d="M34.1835 16.8332C33.7473 17.2705 33.7473 17.9754 34.1835 18.4116C34.6196 18.8489 35.3257 18.8489 35.7618 18.4116L42.0206 12.1642C42.3451 11.8397 42.4351 11.358 42.2677 10.9446C42.2005 10.776 42.0991 10.6417 41.9762 10.5301L35.7732 4.32712C35.337 3.89096 34.631 3.89096 34.1948 4.32712C33.7575 4.76441 33.7575 5.46932 34.1948 5.90547L38.5165 10.2499H30.3321C19.976 10.2499 11.5444 18.6803 11.5444 29.049V33.7624C11.5444 34.3773 12.0489 34.8818 12.6639 34.8818C13.2799 34.8818 13.7844 34.3773 13.7844 33.7624V29.049C13.7844 19.9125 21.207 12.4888 30.3435 12.4888H38.5279L34.1835 16.8332Z" fill="#0B2D1F"/>
<path d="M34.1835 16.8332C33.7473 17.2705 33.7473 17.9754 34.1835 18.4116C34.6196 18.8489 35.3257 18.8489 35.7618 18.4116L42.0206 12.1642C42.3451 11.8397 42.4351 11.358 42.2677 10.9446C42.2005 10.776 42.0991 10.6417 41.9762 10.5301L35.7732 4.32712C35.337 3.89096 34.631 3.89096 34.1948 4.32712C33.7575 4.76441 33.7575 5.46932 34.1948 5.90547L38.5165 10.2499H30.3321C19.976 10.2499 11.5444 18.6803 11.5444 29.049V33.7624C11.5444 34.3773 12.0489 34.8818 12.6639 34.8818C13.2799 34.8818 13.7844 34.3773 13.7844 33.7624V29.049C13.7844 19.9125 21.207 12.4888 30.3435 12.4888H38.5279L34.1835 16.8332Z" stroke="#0B2D1F" stroke-width="0.6" mask="url(#path-7-outside-1_6461_46613)"/>
</g>
<g id="Vector_2">
<mask id="path-8-outside-2_6461_46613" maskUnits="userSpaceOnUse" x="30.1221" y="36.1211" width="33" height="33" fill="black">
<rect fill="white" x="30.1221" y="36.1211" width="33" height="33"/>
<path d="M60.808 37.1211C60.1919 37.1211 59.6886 37.6256 59.6886 38.2405V42.9551C59.6886 52.0904 52.2649 59.5141 43.1295 59.5141H34.9451L39.2884 55.1697C39.7257 54.7335 39.7257 54.0275 39.2884 53.5913C38.8523 53.154 38.1462 53.154 37.7101 53.5913L31.4513 59.8387C31.1268 60.1632 31.0368 60.645 31.2053 61.0583C31.2725 61.2269 31.3727 61.3612 31.4957 61.4728L37.6987 67.6758C37.923 67.9001 38.2032 68.0004 38.4935 68.0004C38.7851 68.0004 39.0652 67.8888 39.2884 67.6758C39.7257 67.2396 39.7257 66.5336 39.2884 66.0974L34.9553 61.753H43.1398C53.497 61.753 61.9274 53.3226 61.9274 42.9551V38.2405C61.9274 37.6256 61.4241 37.1211 60.808 37.1211Z"/>
</mask>
<path d="M60.808 37.1211C60.1919 37.1211 59.6886 37.6256 59.6886 38.2405V42.9551C59.6886 52.0904 52.2649 59.5141 43.1295 59.5141H34.9451L39.2884 55.1697C39.7257 54.7335 39.7257 54.0275 39.2884 53.5913C38.8523 53.154 38.1462 53.154 37.7101 53.5913L31.4513 59.8387C31.1268 60.1632 31.0368 60.645 31.2053 61.0583C31.2725 61.2269 31.3727 61.3612 31.4957 61.4728L37.6987 67.6758C37.923 67.9001 38.2032 68.0004 38.4935 68.0004C38.7851 68.0004 39.0652 67.8888 39.2884 67.6758C39.7257 67.2396 39.7257 66.5336 39.2884 66.0974L34.9553 61.753H43.1398C53.497 61.753 61.9274 53.3226 61.9274 42.9551V38.2405C61.9274 37.6256 61.4241 37.1211 60.808 37.1211Z" fill="#0B2D1F"/>
<path d="M60.808 37.1211C60.1919 37.1211 59.6886 37.6256 59.6886 38.2405V42.9551C59.6886 52.0904 52.2649 59.5141 43.1295 59.5141H34.9451L39.2884 55.1697C39.7257 54.7335 39.7257 54.0275 39.2884 53.5913C38.8523 53.154 38.1462 53.154 37.7101 53.5913L31.4513 59.8387C31.1268 60.1632 31.0368 60.645 31.2053 61.0583C31.2725 61.2269 31.3727 61.3612 31.4957 61.4728L37.6987 67.6758C37.923 67.9001 38.2032 68.0004 38.4935 68.0004C38.7851 68.0004 39.0652 67.8888 39.2884 67.6758C39.7257 67.2396 39.7257 66.5336 39.2884 66.0974L34.9553 61.753H43.1398C53.497 61.753 61.9274 53.3226 61.9274 42.9551V38.2405C61.9274 37.6256 61.4241 37.1211 60.808 37.1211Z" stroke="#0B2D1F" stroke-width="0.6" mask="url(#path-8-outside-2_6461_46613)"/>
</g>
</g>
</g>
</g>
</svg>
