<svg width="72" height="72" viewBox="0 0 72 72" fill="none" xmlns="http://www.w3.org/2000/svg">
<g id="leads-types">
<rect id="Rectangle 34624666" x="13" y="42" width="13" height="4" fill="#2894B4"/>
<rect id="Rectangle 34624667" x="29" y="42" width="7" height="6" fill="#2894B4"/>
<rect id="Rectangle 34624668" x="3" y="42" width="7" height="6" fill="#2894B4"/>
<circle id="Ellipse 2528" cx="8.5" cy="35.5" r="2.5" fill="#2894B4"/>
<circle id="Ellipse 2529" cx="19.5" cy="34.5" r="2.5" fill="#2894B4"/>
<circle id="Ellipse 2530" cx="30.5" cy="35.5" r="2.5" fill="#2894B4"/>
<path id="Rectangle 34624663" d="M30 10L35 9L36.5 7L39.5 6L42 7L43.5 9L49 10V18H30V10Z" fill="#68D4F4"/>
<g id="Group 1171274974">
<path id="person.3" d="M19.4306 38.9856C21.7464 38.9856 23.622 36.9474 23.622 34.4402C23.622 31.9713 21.756 30 19.4306 30C17.134 30 15.2392 32 15.2392 34.4593C15.2488 36.9569 17.1148 38.9856 19.4306 38.9856ZM8.33014 39.2057C10.3493 39.2057 11.9761 37.4163 11.9761 35.2057C11.9761 33.0526 10.3493 31.311 8.33014 31.311C6.33014 31.311 4.67464 33.0813 4.68421 35.2153C4.68421 37.4258 6.32057 39.2057 8.33014 39.2057ZM30.5311 39.2057C32.5311 39.2057 34.1675 37.4258 34.177 35.2153C34.1866 33.0813 32.5311 31.311 30.5311 31.311C28.512 31.311 26.8756 33.0526 26.8756 35.2057C26.8756 37.4163 28.512 39.2057 30.5311 39.2057ZM19.4306 37.311C18.1101 37.311 16.9904 36.067 16.9904 34.4498C16.9904 32.89 18.1005 31.6746 19.4306 31.6746C20.7703 31.6746 21.8708 32.8708 21.8708 34.4402C21.8708 36.0478 20.7608 37.311 19.4306 37.311ZM8.33014 37.5502C7.2488 37.5502 6.33014 36.5167 6.33014 35.2153C6.33014 33.9713 7.23924 32.9569 8.33014 32.9569C9.44019 32.9569 10.3397 33.9522 10.3397 35.2057C10.3397 36.5167 9.42105 37.5502 8.33014 37.5502ZM30.5311 37.5502C29.4306 37.5502 28.5215 36.5167 28.5215 35.2057C28.5215 33.9522 29.4211 32.9569 30.5311 32.9569C31.6124 32.9569 32.5311 33.9713 32.5311 35.2153C32.5311 36.5167 31.6124 37.5502 30.5311 37.5502ZM3.06699 48H9.68326C9.15694 47.6938 8.80287 46.9952 8.86986 46.3636H2.98086C2.79904 46.3636 2.72249 46.2775 2.72249 46.1148C2.72249 43.9234 5.28708 41.8373 8.32057 41.8373C9.39235 41.8373 9.57225 41.6823 10.3952 42.1416C10.7206 41.6727 11.1225 41.2708 11.6488 40.9263C10.4335 40.1799 9.8134 40.201 8.32057 40.201C4.27273 40.201 1 43.0909 1 46.2679C1 47.4163 1.689 48 3.06699 48ZM35.7943 48C37.1723 48 37.8612 47.4163 37.8612 46.2679C37.8612 43.0909 34.579 40.201 30.5311 40.201C29.0479 40.201 28.8124 40.1933 27.6067 40.9397C28.133 41.2842 28.5349 41.6861 28.8507 42.155C29.6737 41.6957 29.4689 41.8373 30.5311 41.8373C33.5646 41.8373 36.1388 43.9234 36.1388 46.1148C36.1388 46.2775 36.0622 46.3636 35.8804 46.3636H30.801C30.8679 46.9952 30.5234 47.6938 29.9971 48H35.7943ZM13.4689 48H25.3923C27.0479 48 27.8421 47.4737 27.8421 46.3445C27.8421 43.7129 24.5598 40.2105 19.4306 40.2105C14.3014 40.2105 11.0096 43.7129 11.0096 46.3445C11.0096 47.4737 11.8134 48 13.4689 48ZM13.1627 46.3254C12.9426 46.3254 12.8565 46.2488 12.8565 46.0766C12.8565 44.6124 15.2201 41.8852 19.4306 41.8852C23.6412 41.8852 26.0048 44.6124 26.0048 46.0766C26.0048 46.2488 25.9187 46.3254 25.689 46.3254H13.1627Z" fill="#0D313B" stroke="#0D313B" stroke-width="0.592413"/>
<g id="Group 1171274956">
<path id="Vector" d="M33.958 9.66562C33.958 9.29306 33.9949 8.92721 34.0688 8.56136C34.1393 8.19551 34.2467 7.84309 34.3876 7.49738C34.532 7.15503 34.7065 6.82945 34.9112 6.51731C35.1193 6.20852 35.3509 5.92322 35.6161 5.66142C35.8779 5.39627 36.1632 5.16132 36.472 4.95658C36.7807 4.74848 37.1063 4.57395 37.4487 4.43298C37.791 4.28865 38.1468 4.18125 38.5093 4.11076C38.8751 4.03692 39.241 4 39.6136 4C39.9861 4 40.352 4.03692 40.7178 4.11076C41.0803 4.18125 41.4361 4.28865 41.7784 4.43298C42.1208 4.57395 42.4464 4.74848 42.7552 4.95658C43.0639 5.16132 43.3492 5.39627 43.611 5.65807C43.8762 5.92322 44.1078 6.20852 44.3159 6.51731C44.5206 6.8261 44.6952 7.15503 44.8395 7.49738C44.9805 7.83973 45.0879 8.19551 45.1617 8.558C45.2322 8.92385 45.2691 9.29306 45.2691 9.66562C45.2691 10.0382 45.2322 10.404 45.1617 10.7699C45.0879 11.1357 44.9805 11.4881 44.8395 11.8305C44.6952 12.1762 44.5206 12.5018 44.3159 12.8106C44.1111 13.1194 43.8762 13.408 43.611 13.6698C43.3492 13.9316 43.0639 14.1666 42.7552 14.3747C42.4464 14.5794 42.1208 14.7539 41.7784 14.8983C41.4361 15.0392 41.0803 15.1466 40.7178 15.2205C40.352 15.291 39.9861 15.3279 39.6136 15.3279C39.241 15.3279 38.8751 15.291 38.5127 15.2205C38.1468 15.1466 37.7944 15.0392 37.452 14.8949C37.1097 14.7539 36.7841 14.5794 36.4753 14.3713C36.1665 14.1666 35.8812 13.9316 35.6161 13.6698C35.3543 13.4047 35.1193 13.1194 34.9146 12.8106C34.7065 12.5018 34.532 12.1762 34.391 11.8339C34.25 11.4881 34.1426 11.1357 34.0688 10.7699C33.9949 10.4074 33.958 10.0382 33.958 9.66562ZM36.4115 9.66562C36.4115 10.0919 36.4921 10.5014 36.6532 10.8941C36.8177 11.2868 37.0459 11.6358 37.348 11.9346C37.6467 12.2366 37.9958 12.4682 38.3851 12.6327C38.7778 12.7938 39.1873 12.8777 39.6136 12.8777C40.0365 12.8777 40.4459 12.7938 40.8386 12.6327C41.2313 12.4682 41.5771 12.2366 41.8791 11.9379C42.1779 11.6358 42.4094 11.2901 42.5739 10.8974C42.735 10.5047 42.8156 10.0952 42.8156 9.66898C42.8156 9.24271 42.735 8.83323 42.5739 8.44053C42.4094 8.04783 42.1779 7.70212 41.8791 7.40004C41.5771 7.09797 41.2313 6.86637 40.8386 6.70527C40.4459 6.5408 40.0398 6.46025 39.6136 6.46025C39.1906 6.46025 38.7812 6.5408 38.3885 6.70527C37.9958 6.86637 37.6501 7.09797 37.3513 7.40004C37.0493 7.69876 36.8177 8.04783 36.6566 8.44053C36.4921 8.83323 36.4115 9.24271 36.4115 9.66562Z" fill="#0D313B"/>
<path id="Vector_2" d="M28.6108 16.3181V11.9514C28.6108 11.7231 28.6343 11.4949 28.6813 11.27C28.725 11.0451 28.7921 10.8236 28.8794 10.6122C28.97 10.4007 29.0774 10.1993 29.2049 10.008C29.3325 9.81669 29.4768 9.6388 29.6413 9.47769C29.8024 9.31658 29.9803 9.1689 30.1682 9.04136C30.3595 8.91381 30.5609 8.80641 30.7724 8.71578C30.9838 8.62852 31.2053 8.56139 31.4302 8.51776C31.6551 8.47077 31.88 8.44727 32.1116 8.44727H35.176C35.3371 8.44727 35.4948 8.47748 35.6459 8.54125C35.7936 8.60167 35.9278 8.69229 36.0419 8.80641C36.156 8.92052 36.2467 9.05478 36.3071 9.20582C36.3709 9.3535 36.4011 9.51125 36.4011 9.67236C36.4111 10.0919 36.4984 10.4947 36.6662 10.8773C36.834 11.2633 37.0656 11.5989 37.3644 11.8943C37.6631 12.1863 38.0088 12.4112 38.3948 12.5689C38.7808 12.7267 39.1835 12.8039 39.6031 12.8039C40.0226 12.8039 40.4254 12.7267 40.8114 12.5689C41.1974 12.4112 41.5431 12.1863 41.8418 11.8943C42.1405 11.5989 42.3721 11.2633 42.5399 10.8773C42.7078 10.4947 42.795 10.0919 42.8051 9.67236C42.8051 9.5079 42.8319 9.35015 42.8957 9.19911C42.9561 9.04471 43.0468 8.91046 43.1609 8.79298C43.2783 8.67551 43.4126 8.58824 43.5636 8.52447C43.718 8.4607 43.8758 8.43049 44.0403 8.43385H47.1047C47.3329 8.43385 47.5611 8.45734 47.786 8.50097C48.0109 8.54796 48.229 8.61509 48.4405 8.70236C48.6553 8.78962 48.8567 8.90039 49.0447 9.02793C49.236 9.15547 49.4139 9.2998 49.575 9.46426C49.7394 9.62537 49.8838 9.80326 50.0113 9.99458C50.1388 10.1859 50.2463 10.3873 50.3335 10.5987C50.4241 10.8102 50.4913 11.0283 50.5349 11.2532C50.5819 11.4815 50.6054 11.7063 50.6054 11.9379V16.3181C50.6054 16.5496 50.5819 16.7779 50.5349 17.0028C50.4913 17.2276 50.4241 17.4458 50.3335 17.6573C50.2463 17.8721 50.1388 18.0735 50.0113 18.2648C49.8838 18.4561 49.7394 18.6306 49.575 18.7951C49.4139 18.9562 49.236 19.1005 49.0447 19.2314C48.8567 19.359 48.6553 19.4664 48.4405 19.5536C48.229 19.6443 48.0109 19.7114 47.786 19.755C47.5611 19.802 47.3329 19.8255 47.1047 19.8255H32.1216C31.8901 19.8255 31.6618 19.802 31.4369 19.7584C31.2121 19.7114 30.9939 19.6443 30.7791 19.557C30.5676 19.4697 30.3662 19.3623 30.1749 19.2348C29.9836 19.1039 29.8057 18.9595 29.6446 18.7984C29.4801 18.634 29.3358 18.4594 29.2083 18.2681C29.0774 18.0768 28.97 17.8721 28.8827 17.6606C28.7921 17.4492 28.725 17.2276 28.6813 17.0028C28.6343 16.7779 28.6108 16.5496 28.6108 16.3181ZM45.1311 10.8941C44.9935 11.5251 44.7518 12.1125 44.4128 12.6596C44.0738 13.2033 43.6509 13.6799 43.1508 14.0827C42.6473 14.4855 42.0935 14.7942 41.486 15.0057C40.8819 15.2205 40.2542 15.3279 39.6131 15.3279C38.9687 15.3279 38.3444 15.2205 37.7369 15.0057C37.1328 14.7942 36.5756 14.4855 36.0755 14.0827C35.572 13.6799 35.1525 13.2033 34.8135 12.6596C34.4711 12.1125 34.2328 11.5251 34.0919 10.8941H32.1216C31.9807 10.8941 31.8464 10.9209 31.7155 10.9746C31.588 11.0283 31.4739 11.1055 31.3732 11.2062C31.2758 11.3036 31.1986 11.4177 31.1449 11.5486C31.0912 11.6761 31.0644 11.8137 31.0644 11.9514V16.3181C31.0644 16.459 31.0912 16.5933 31.1449 16.7242C31.1986 16.8517 31.2758 16.9658 31.3732 17.0665C31.4739 17.1639 31.588 17.2411 31.7155 17.2948C31.8464 17.3485 31.9807 17.3753 32.1216 17.3753H47.1047C47.2456 17.3753 47.3799 17.3485 47.5074 17.2948C47.6383 17.2411 47.7524 17.1639 47.8498 17.0665C47.9505 16.9658 48.0243 16.8517 48.078 16.7242C48.1317 16.5933 48.1586 16.459 48.1586 16.3181V11.9514C48.1586 11.8137 48.1317 11.6761 48.078 11.5486C48.0243 11.4177 47.9505 11.3036 47.8498 11.2062C47.7524 11.1055 47.6383 11.0283 47.5074 10.9746C47.3799 10.9209 47.2456 10.8941 47.1047 10.8941H45.1311Z" fill="#0D313B"/>
<g id="Group">
<path id="Vector_3" d="M23.5728 68.0005H55.6533C56.0561 68.0005 56.4555 67.9602 56.8482 67.8796C57.2443 67.8024 57.6269 67.685 57.9995 67.5306C58.3687 67.3762 58.7244 67.1849 59.0567 66.9633C59.3924 66.7385 59.7012 66.4834 59.9865 66.1981C60.2718 65.9128 60.5268 65.604 60.7484 65.2684C60.9732 64.9327 61.1612 64.5803 61.3156 64.2077C61.47 63.8352 61.5875 63.4492 61.6647 63.0565C61.7452 62.6604 61.7821 62.261 61.7821 61.8582V17.0368C61.7821 16.634 61.7419 16.2346 61.6647 15.8385C61.5841 15.4425 61.47 15.0598 61.3156 14.6873C61.1612 14.3147 60.9732 13.9623 60.7484 13.6266C60.5235 13.291 60.2718 12.9822 59.9865 12.6969C59.7012 12.4116 59.3924 12.1565 59.0567 11.9317C58.7244 11.7101 58.3687 11.5188 57.9995 11.3644C57.6269 11.21 57.2443 11.0926 56.8482 11.0154C56.4555 10.9348 56.0561 10.8945 55.6533 10.8945H49.3903C49.2292 10.8945 49.0714 10.9247 48.9204 10.9885C48.7693 11.0489 48.6384 11.1395 48.521 11.2537C48.4068 11.3678 48.3162 11.502 48.2558 11.6531C48.192 11.8041 48.1618 11.9585 48.1585 12.123V16.3185C48.1585 16.4595 48.1316 16.5937 48.0779 16.7246C48.0242 16.8522 47.9504 16.9663 47.8497 17.067C47.7523 17.1643 47.6382 17.2415 47.5073 17.2952C47.3798 17.3489 47.2455 17.3758 47.1046 17.3758H32.1216C31.9806 17.3758 31.8463 17.3489 31.7154 17.2952C31.5879 17.2415 31.4738 17.1643 31.3731 17.067C31.2757 16.9663 31.1985 16.8522 31.1448 16.7246C31.0911 16.5937 31.0643 16.4595 31.0643 16.3185V12.123C31.0643 11.9585 31.0341 11.8041 30.9703 11.6531C30.9099 11.502 30.8193 11.3678 30.7051 11.2537C30.591 11.1395 30.4568 11.0489 30.3057 10.9885C30.1581 10.9247 30.0003 10.8945 29.8392 10.8945H23.5761C23.1734 10.8945 22.774 10.9348 22.3779 11.012C21.9852 11.0926 21.5992 11.2067 21.23 11.3611C20.8574 11.5155 20.5017 11.7068 20.1694 11.9317C19.8337 12.1532 19.5249 12.4083 19.2397 12.6936C18.9544 12.9789 18.6993 13.2877 18.4777 13.6233C18.2529 13.9589 18.0649 14.3147 17.9105 14.6873C17.7561 15.0598 17.6386 15.4425 17.5614 15.8385C17.4809 16.2346 17.4406 16.634 17.4406 17.0368V25.8373C17.4339 26.0017 17.4608 26.1628 17.5212 26.3206C17.5782 26.475 17.6655 26.616 17.783 26.7368C17.8971 26.8543 18.0313 26.9482 18.1857 27.0154C18.3401 27.0791 18.5012 27.1127 18.6657 27.1127C18.8335 27.1127 18.9946 27.0791 19.1457 27.0154C19.3001 26.9482 19.4343 26.8543 19.5518 26.7368C19.6659 26.616 19.7532 26.475 19.8136 26.3206C19.874 26.1628 19.9009 26.0017 19.8942 25.8373V17.0368C19.8942 16.7917 19.9176 16.5534 19.9646 16.3151C20.0116 16.0768 20.0821 15.8486 20.1727 15.6237C20.2667 15.3988 20.3808 15.1874 20.5151 14.986C20.6493 14.7846 20.8004 14.5967 20.9716 14.4255C21.1427 14.2543 21.3273 14.1033 21.5287 13.969C21.7301 13.8314 21.9449 13.7206 22.1664 13.6266C22.3913 13.5327 22.6196 13.4655 22.8579 13.4152C23.0962 13.3682 23.3345 13.3447 23.5761 13.3447H28.6107V16.3185C28.6107 16.5501 28.6342 16.7783 28.6812 17.0032C28.7249 17.2281 28.792 17.4462 28.8793 17.6577C28.9699 17.8725 29.0773 18.0739 29.2048 18.2652C29.3324 18.4565 29.4767 18.6311 29.6412 18.7955C29.8023 18.9566 29.9802 19.101 30.1681 19.2319C30.3594 19.3594 30.5608 19.4668 30.7723 19.5541C30.9837 19.6447 31.2053 19.7118 31.4301 19.7555C31.655 19.8024 31.8799 19.8259 32.1115 19.8259H47.0945C47.3261 19.8259 47.551 19.8024 47.7758 19.7555C48.0007 19.7118 48.2222 19.6447 48.4337 19.5541C48.6451 19.4668 48.8465 19.3594 49.0378 19.2319C49.2292 19.101 49.4037 18.9566 49.5648 18.7955C49.7293 18.6311 49.8736 18.4565 50.0011 18.2652C50.1287 18.0739 50.2361 17.8725 50.3267 17.6577C50.414 17.4462 50.4811 17.2281 50.5247 17.0032C50.5717 16.7783 50.5952 16.5501 50.5952 16.3185V13.3514H55.6366C55.8782 13.3514 56.1165 13.3749 56.3548 13.4219C56.5898 13.4689 56.8214 13.5394 57.0462 13.6334C57.2678 13.724 57.4792 13.8381 57.6806 13.9724C57.882 14.1066 58.0699 14.261 58.2411 14.4322C58.4123 14.6034 58.5633 14.7913 58.6976 14.9927C58.8319 15.1941 58.946 15.4055 59.0399 15.6304C59.1306 15.8519 59.2011 16.0835 59.248 16.3218C59.295 16.5601 59.3185 16.7985 59.3185 17.0401V61.8717C59.3185 62.1133 59.295 62.355 59.248 62.5933C59.2011 62.8316 59.1306 63.0598 59.0399 63.2847C58.946 63.5096 58.8319 63.7211 58.6976 63.9224C58.5633 64.1238 58.4123 64.3118 58.2411 64.483C58.0699 64.6541 57.882 64.8052 57.6806 64.9394C57.4792 65.0737 57.2678 65.1878 57.0462 65.2818C56.8214 65.3758 56.5898 65.4429 56.3548 65.4932C56.1165 65.5402 55.8782 65.5637 55.6366 65.5637H23.5728C23.3278 65.5637 23.0895 65.5402 22.8511 65.4932C22.6162 65.4429 22.3846 65.3758 22.1597 65.2818C21.9382 65.1878 21.7268 65.0737 21.5254 64.9394C21.324 64.8052 21.136 64.6541 20.9648 64.483C20.7937 64.3118 20.6426 64.1238 20.5084 63.9224C20.3741 63.7211 20.26 63.5096 20.166 63.2847C20.0754 63.0598 20.0049 62.8316 19.9579 62.5933C19.9109 62.355 19.8874 62.1133 19.8874 61.8717V56.0315C19.8942 55.8637 19.8673 55.7026 19.8069 55.5482C19.7498 55.3904 19.6626 55.2528 19.5451 55.132C19.431 55.0112 19.2967 54.9205 19.1423 54.8534C18.9879 54.7896 18.8268 54.7561 18.6624 54.7561C18.4945 54.7561 18.3334 54.7896 18.1824 54.8534C18.028 54.9205 17.8937 55.0112 17.7763 55.132C17.6621 55.2528 17.5749 55.3904 17.5145 55.5482C17.454 55.7026 17.4305 55.8637 17.4339 56.0315V61.865C17.4373 62.2677 17.4775 62.6671 17.5547 63.0598C17.6353 63.4559 17.7528 63.8385 17.9072 64.2111C18.0616 64.5836 18.2495 64.9394 18.4744 65.2717C18.6959 65.6074 18.951 65.9161 19.2363 66.2014C19.5216 66.4867 19.8304 66.7418 20.166 66.9667C20.5017 67.1882 20.8541 67.3795 21.2266 67.5339C21.5959 67.685 21.9818 67.8024 22.3745 67.883C22.7706 67.9602 23.17 68.0005 23.5728 68.0005Z" fill="#0D313B"/>
</g>
<path id="Vector_4" d="M30.1714 26.5854H55.1095C55.274 26.5921 55.4351 26.5653 55.5929 26.5082C55.7473 26.4478 55.8849 26.3605 56.0057 26.2431C56.1265 26.1289 56.2205 25.9947 56.2843 25.8403C56.3514 25.6859 56.3816 25.5248 56.3816 25.357C56.3816 25.1925 56.3514 25.0314 56.2843 24.877C56.2205 24.7226 56.1265 24.5883 56.0057 24.4742C55.8849 24.3567 55.7473 24.2695 55.5929 24.2091C55.4351 24.152 55.274 24.1252 55.1095 24.1319H30.1714C30.0036 24.1252 29.8425 24.152 29.6881 24.2091C29.5304 24.2695 29.3927 24.3567 29.2719 24.4742C29.1544 24.5883 29.0605 24.7226 28.9933 24.877C28.9296 25.0314 28.896 25.1925 28.896 25.357C28.896 25.5248 28.9296 25.6859 28.9933 25.8403C29.0605 25.9947 29.1544 26.1289 29.2719 26.2431C29.3927 26.3605 29.5304 26.4478 29.6881 26.5082C29.8425 26.5653 30.0036 26.5921 30.1714 26.5854Z" fill="#0D313B"/>
<path id="Vector_5" d="M37.1261 32.3182H55.1097C55.2742 32.325 55.4353 32.2981 55.593 32.2377C55.7474 32.1773 55.885 32.09 56.0059 31.9759C56.1267 31.8584 56.2207 31.7242 56.2845 31.5698C56.3516 31.4154 56.3818 31.2576 56.3818 31.0898C56.3818 30.922 56.3516 30.7609 56.2845 30.6065C56.2207 30.4554 56.1267 30.3178 56.0059 30.2037C55.885 30.0862 55.7474 29.999 55.593 29.9419C55.4353 29.8815 55.2742 29.8546 55.1097 29.8614H37.1261C36.9616 29.8546 36.7972 29.8815 36.6428 29.9419C36.4884 29.999 36.3474 30.0862 36.2299 30.2037C36.1091 30.3178 36.0151 30.4554 35.9513 30.6065C35.8842 30.7609 35.854 30.922 35.854 31.0898C35.854 31.2576 35.8842 31.4154 35.9513 31.5698C36.0151 31.7242 36.1091 31.8584 36.2299 31.9759C36.3474 32.09 36.4884 32.1773 36.6428 32.2377C36.7972 32.2981 36.9616 32.325 37.1261 32.3182Z" fill="#0D313B"/>
<path id="Vector_6" d="M40.0562 38.0477H55.1097C55.2742 38.0545 55.4353 38.0276 55.593 37.9672C55.7474 37.9068 55.885 37.8195 56.0059 37.7054C56.1267 37.5879 56.2207 37.4537 56.2844 37.2993C56.3516 37.1482 56.3818 36.9871 56.3818 36.8193C56.3818 36.6515 56.3516 36.4904 56.2844 36.3393C56.2207 36.1849 56.1267 36.0507 56.0059 35.9332C55.885 35.8191 55.7474 35.7318 55.593 35.6714C55.4353 35.611 55.2742 35.5841 55.1097 35.5909H40.0562C39.8884 35.5841 39.7273 35.611 39.5729 35.6714C39.4151 35.7318 39.2775 35.8191 39.1567 35.9332C39.0358 36.0507 38.9452 36.1849 38.8781 36.3393C38.8143 36.4904 38.7808 36.6515 38.7808 36.8193C38.7808 36.9871 38.8143 37.1482 38.8781 37.2993C38.9452 37.4537 39.0358 37.5879 39.1567 37.7054C39.2775 37.8195 39.4151 37.9068 39.5729 37.9672C39.7273 38.0276 39.8884 38.0545 40.0562 38.0477Z" fill="#0D313B"/>
<path id="Vector_7" d="M41.0093 43.7801H55.1095C55.2707 43.7801 55.4284 43.7466 55.5761 43.6862C55.7271 43.6224 55.8614 43.5351 55.9755 43.4176C56.0896 43.3035 56.1802 43.1726 56.2407 43.0216C56.3044 42.8705 56.3346 42.7128 56.3346 42.5517C56.3346 42.3872 56.3044 42.2295 56.2407 42.0818C56.1802 41.9308 56.0896 41.7965 55.9755 41.6824C55.8614 41.5649 55.7271 41.4776 55.5761 41.4139C55.4284 41.3535 55.2707 41.3232 55.1095 41.3232H41.0093C40.8482 41.3232 40.6904 41.3535 40.5394 41.4139C40.3883 41.4776 40.2574 41.5649 40.1433 41.6824C40.0258 41.7965 39.9386 41.9308 39.8748 42.0818C39.8144 42.2295 39.7842 42.3872 39.7842 42.5517C39.7842 42.7128 39.8144 42.8705 39.8748 43.0216C39.9386 43.1726 40.0258 43.3035 40.1433 43.4176C40.2574 43.5351 40.3883 43.6224 40.5394 43.6862C40.6904 43.7466 40.8482 43.7801 41.0093 43.7801Z" fill="#0D313B"/>
<path id="Vector_8" d="M39.6133 49.5097H55.1099C55.2743 49.5164 55.4354 49.4895 55.5932 49.4291C55.7476 49.372 55.8852 49.2814 56.006 49.1673C56.1269 49.0498 56.2208 48.9156 56.2846 48.7645C56.3517 48.6101 56.3819 48.449 56.3819 48.2812C56.3819 48.1134 56.3517 47.9556 56.2846 47.8012C56.2208 47.6468 56.1269 47.5126 56.006 47.3951C55.8852 47.281 55.7476 47.1937 55.5932 47.1333C55.4354 47.0729 55.2743 47.0461 55.1099 47.0528H39.6133C39.4455 47.0461 39.2844 47.0729 39.13 47.1333C38.9723 47.1937 38.8346 47.281 38.7172 47.3951C38.5963 47.5126 38.5024 47.6468 38.4386 47.8012C38.3715 47.9556 38.3379 48.1134 38.3379 48.2812C38.3379 48.449 38.3715 48.6101 38.4386 48.7645C38.5024 48.9156 38.5963 49.0498 38.7172 49.1673C38.8346 49.2814 38.9723 49.372 39.13 49.4291C39.2844 49.4895 39.4455 49.5164 39.6133 49.5097Z" fill="#0D313B"/>
<path id="Vector_9" d="M34.4712 55.2387H55.0997C55.2675 55.2454 55.4287 55.2186 55.5864 55.1615C55.7408 55.1011 55.8784 55.0138 55.9992 54.8964C56.1201 54.7823 56.2107 54.648 56.2778 54.4936C56.3416 54.3392 56.3752 54.1781 56.3752 54.0103C56.3752 53.8458 56.3416 53.6847 56.2778 53.5303C56.2107 53.3759 56.1201 53.2417 55.9992 53.1275C55.8784 53.0101 55.7408 52.9228 55.5864 52.8624C55.4287 52.8053 55.2675 52.7785 55.0997 52.7852H34.4712C34.3034 52.7785 34.1423 52.8053 33.9879 52.8624C33.8302 52.9228 33.6926 53.0101 33.5717 53.1275C33.4509 53.2417 33.3603 53.3759 33.2931 53.5303C33.2294 53.6847 33.1958 53.8458 33.1958 54.0103C33.1958 54.1781 33.2294 54.3392 33.2931 54.4936C33.3603 54.648 33.4509 54.7823 33.5717 54.8964C33.6926 55.0138 33.8302 55.1011 33.9879 55.1615C34.1423 55.2186 34.3034 55.2454 34.4712 55.2387Z" fill="#0D313B"/>
<path id="Vector_10" d="M25.5468 60.9716H55.11C55.2745 60.9749 55.4356 60.9514 55.5933 60.891C55.7477 60.8306 55.8853 60.7433 56.0062 60.6292C56.127 60.5117 56.221 60.3775 56.2847 60.2231C56.3519 60.0687 56.3821 59.9076 56.3821 59.7431C56.3821 59.5753 56.3519 59.4142 56.2847 59.2598C56.221 59.1088 56.127 58.9712 56.0062 58.857C55.8853 58.7396 55.7477 58.6523 55.5933 58.5952C55.4356 58.5348 55.2745 58.508 55.11 58.5147H25.5468C25.389 58.5214 25.2346 58.555 25.0903 58.6221C24.946 58.6859 24.8184 58.7765 24.711 58.8906C24.6002 59.0047 24.5163 59.1356 24.4559 59.2833C24.3955 59.431 24.3687 59.582 24.3687 59.7431C24.3687 59.9009 24.3955 60.0553 24.4559 60.203C24.5163 60.3473 24.6002 60.4782 24.711 60.5957C24.8184 60.7098 24.946 60.797 25.0903 60.8642C25.2346 60.9279 25.389 60.9649 25.5468 60.9716Z" fill="#0D313B"/>
</g>
</g>
</g>
</svg>
