<svg width="72" height="72" viewBox="0 0 72 72" fill="none" xmlns="http://www.w3.org/2000/svg">
<path d="M55.5 12H22.5L18.5 16V63L22.5 66.5H57L60 63V15L55.5 12Z" fill="#68D4F4"/>
<rect x="13" y="42" width="13" height="4" fill="#2894B4"/>
<rect x="29" y="42" width="7" height="6" fill="#2894B4"/>
<rect x="3" y="42" width="7" height="6" fill="#2894B4"/>
<circle cx="8.5" cy="35.5" r="2.5" fill="#2894B4"/>
<circle cx="19.5" cy="34.5" r="2.5" fill="#2894B4"/>
<circle cx="30.5" cy="35.5" r="2.5" fill="#2894B4"/>
<path d="M30 10L35 9L36.5 7L39.5 6L42 7L43.5 9L49 10V18H30V10Z" fill="#CDF1FB"/>
<path d="M19.4306 38.9856C21.7464 38.9856 23.622 36.9474 23.622 34.4402C23.622 31.9713 21.756 30 19.4306 30C17.134 30 15.2392 32 15.2392 34.4593C15.2488 36.9569 17.1148 38.9856 19.4306 38.9856ZM8.33014 39.2057C10.3493 39.2057 11.9761 37.4163 11.9761 35.2057C11.9761 33.0526 10.3493 31.311 8.33014 31.311C6.33014 31.311 4.67464 33.0813 4.68421 35.2153C4.68421 37.4258 6.32057 39.2057 8.33014 39.2057ZM30.5311 39.2057C32.5311 39.2057 34.1675 37.4258 34.177 35.2153C34.1866 33.0813 32.5311 31.311 30.5311 31.311C28.512 31.311 26.8756 33.0526 26.8756 35.2057C26.8756 37.4163 28.512 39.2057 30.5311 39.2057ZM19.4306 37.311C18.11 37.311 16.9904 36.067 16.9904 34.4498C16.9904 32.89 18.1005 31.6746 19.4306 31.6746C20.7703 31.6746 21.8708 32.8708 21.8708 34.4402C21.8708 36.0478 20.7608 37.311 19.4306 37.311ZM8.33014 37.5502C7.2488 37.5502 6.33014 36.5167 6.33014 35.2153C6.33014 33.9713 7.23924 32.9569 8.33014 32.9569C9.44019 32.9569 10.3397 33.9522 10.3397 35.2057C10.3397 36.5167 9.42105 37.5502 8.33014 37.5502ZM30.5311 37.5502C29.4306 37.5502 28.5215 36.5167 28.5215 35.2057C28.5215 33.9522 29.4211 32.9569 30.5311 32.9569C31.6124 32.9569 32.5311 33.9713 32.5311 35.2153C32.5311 36.5167 31.6124 37.5502 30.5311 37.5502ZM3.06699 48H9.68326C9.15694 47.6938 8.80287 46.9952 8.86986 46.3636H2.98086C2.79904 46.3636 2.72249 46.2775 2.72249 46.1148C2.72249 43.9234 5.28708 41.8373 8.32057 41.8373C9.39235 41.8373 9.57225 41.6823 10.3952 42.1416C10.7206 41.6727 11.1225 41.2708 11.6488 40.9263C10.4335 40.1799 9.8134 40.201 8.32057 40.201C4.27273 40.201 1 43.0909 1 46.2679C1 47.4163 1.689 48 3.06699 48ZM35.7943 48C37.1723 48 37.8612 47.4163 37.8612 46.2679C37.8612 43.0909 34.579 40.201 30.5311 40.201C29.0479 40.201 28.8124 40.1933 27.6067 40.9397C28.133 41.2842 28.5349 41.6861 28.8507 42.155C29.6737 41.6957 29.4689 41.8373 30.5311 41.8373C33.5646 41.8373 36.1388 43.9234 36.1388 46.1148C36.1388 46.2775 36.0622 46.3636 35.8804 46.3636H30.801C30.8679 46.9952 30.5234 47.6938 29.9971 48H35.7943ZM13.4689 48H25.3923C27.0479 48 27.8421 47.4737 27.8421 46.3445C27.8421 43.7129 24.5598 40.2105 19.4306 40.2105C14.3014 40.2105 11.0096 43.7129 11.0096 46.3445C11.0096 47.4737 11.8134 48 13.4689 48ZM13.1627 46.3254C12.9426 46.3254 12.8565 46.2488 12.8565 46.0766C12.8565 44.6124 15.2201 41.8852 19.4306 41.8852C23.6412 41.8852 26.0048 44.6124 26.0048 46.0766C26.0048 46.2488 25.9187 46.3254 25.689 46.3254H13.1627Z" fill="#0D313B" stroke="#0D313B" stroke-width="0.592413"/>
<path d="M33.9579 9.66562C33.9579 9.29306 33.9948 8.92721 34.0686 8.56136C34.1391 8.19551 34.2465 7.84309 34.3875 7.49738C34.5318 7.15503 34.7064 6.82945 34.9111 6.51731C35.1192 6.20852 35.3508 5.92322 35.616 5.66142C35.8778 5.39627 36.163 5.16132 36.4718 4.95658C36.7806 4.74848 37.1062 4.57395 37.4486 4.43298C37.7909 4.28865 38.1467 4.18125 38.5092 4.11076C38.875 4.03692 39.2409 4 39.6134 4C39.986 4 40.3518 4.03692 40.7177 4.11076C41.0802 4.18125 41.436 4.28865 41.7783 4.43298C42.1207 4.57395 42.4462 4.74848 42.755 4.95658C43.0638 5.16132 43.3491 5.39627 43.6109 5.65807C43.8761 5.92322 44.1077 6.20852 44.3158 6.51731C44.5205 6.8261 44.695 7.15503 44.8394 7.49738C44.9803 7.83973 45.0877 8.19551 45.1616 8.558C45.2321 8.92385 45.269 9.29306 45.269 9.66562C45.269 10.0382 45.2321 10.404 45.1616 10.7699C45.0877 11.1357 44.9803 11.4881 44.8394 11.8305C44.695 12.1762 44.5205 12.5018 44.3158 12.8106C44.111 13.1194 43.8761 13.408 43.6109 13.6698C43.3491 13.9316 43.0638 14.1666 42.755 14.3747C42.4462 14.5794 42.1207 14.7539 41.7783 14.8983C41.436 15.0392 41.0802 15.1466 40.7177 15.2205C40.3518 15.291 39.986 15.3279 39.6134 15.3279C39.2409 15.3279 38.875 15.291 38.5125 15.2205C38.1467 15.1466 37.7943 15.0392 37.4519 14.8949C37.1096 14.7539 36.784 14.5794 36.4752 14.3713C36.1664 14.1666 35.8811 13.9316 35.616 13.6698C35.3542 13.4047 35.1192 13.1194 34.9145 12.8106C34.7064 12.5018 34.5318 12.1762 34.3909 11.8339C34.2499 11.4881 34.1425 11.1357 34.0686 10.7699C33.9948 10.4074 33.9579 10.0382 33.9579 9.66562ZM36.4114 9.66562C36.4114 10.0919 36.492 10.5014 36.6531 10.8941C36.8175 11.2868 37.0458 11.6358 37.3479 11.9346C37.6466 12.2366 37.9956 12.4682 38.385 12.6327C38.7777 12.7938 39.1872 12.8777 39.6134 12.8777C40.0363 12.8777 40.4458 12.7938 40.8385 12.6327C41.2312 12.4682 41.5769 12.2366 41.879 11.9379C42.1777 11.6358 42.4093 11.2901 42.5738 10.8974C42.7349 10.5047 42.8154 10.0952 42.8154 9.66898C42.8154 9.24271 42.7349 8.83323 42.5738 8.44053C42.4093 8.04783 42.1777 7.70212 41.879 7.40004C41.5769 7.09797 41.2312 6.86637 40.8385 6.70527C40.4458 6.5408 40.0397 6.46025 39.6134 6.46025C39.1905 6.46025 38.781 6.5408 38.3883 6.70527C37.9956 6.86637 37.6499 7.09797 37.3512 7.40004C37.0491 7.69876 36.8175 8.04783 36.6564 8.44053C36.492 8.83323 36.4114 9.24271 36.4114 9.66562Z" fill="#0D313B"/>
<path d="M28.611 16.318V11.9513C28.611 11.7231 28.6345 11.4948 28.6814 11.27C28.7251 11.0451 28.7922 10.8235 28.8795 10.6121C28.9701 10.4006 29.0775 10.1993 29.205 10.0079C29.3326 9.81663 29.4769 9.63873 29.6414 9.47763C29.8025 9.31652 29.9804 9.16884 30.1683 9.04129C30.3597 8.91375 30.561 8.80635 30.7725 8.71572C30.9839 8.62846 31.2055 8.56133 31.4303 8.51769C31.6552 8.47071 31.8801 8.44721 32.1117 8.44721H35.1761C35.3372 8.44721 35.495 8.47742 35.646 8.54119C35.7937 8.6016 35.9279 8.69223 36.0421 8.80635C36.1562 8.92046 36.2468 9.05472 36.3072 9.20576C36.371 9.35344 36.4012 9.51119 36.4012 9.6723C36.4113 10.0919 36.4985 10.4946 36.6663 10.8773C36.8342 11.2632 37.0658 11.5989 37.3645 11.8942C37.6632 12.1863 38.0089 12.4111 38.3949 12.5689C38.7809 12.7266 39.1836 12.8038 39.6032 12.8038C40.0228 12.8038 40.4255 12.7266 40.8115 12.5689C41.1975 12.4111 41.5432 12.1863 41.8419 11.8942C42.1406 11.5989 42.3722 11.2632 42.5401 10.8773C42.7079 10.4946 42.7951 10.0919 42.8052 9.6723C42.8052 9.50784 42.8321 9.35008 42.8958 9.19905C42.9563 9.04465 43.0469 8.91039 43.161 8.79292C43.2785 8.67545 43.4127 8.58818 43.5638 8.52441C43.7182 8.46064 43.8759 8.43043 44.0404 8.43378H47.1048C47.333 8.43378 47.5612 8.45728 47.7861 8.50091C48.011 8.5479 48.2292 8.61503 48.4406 8.7023C48.6554 8.78956 48.8568 8.90033 49.0448 9.02787C49.2361 9.15541 49.414 9.29974 49.5751 9.4642C49.7396 9.62531 49.8839 9.8032 50.0114 9.99451C50.139 10.1858 50.2464 10.3872 50.3336 10.5987C50.4243 10.8101 50.4914 11.0283 50.535 11.2532C50.582 11.4814 50.6055 11.7063 50.6055 11.9379V16.318C50.6055 16.5496 50.582 16.7778 50.535 17.0027C50.4914 17.2276 50.4243 17.4457 50.3336 17.6572C50.2464 17.872 50.139 18.0734 50.0114 18.2647C49.8839 18.456 49.7396 18.6306 49.5751 18.795C49.414 18.9561 49.2361 19.1005 49.0448 19.2314C48.8568 19.3589 48.6554 19.4663 48.4406 19.5536C48.2292 19.6442 48.011 19.7113 47.7861 19.755C47.5612 19.8019 47.333 19.8254 47.1048 19.8254H32.1218C31.8902 19.8254 31.6619 19.8019 31.4371 19.7583C31.2122 19.7113 30.994 19.6442 30.7792 19.5569C30.5677 19.4697 30.3664 19.3623 30.175 19.2347C29.9837 19.1038 29.8058 18.9595 29.6447 18.7984C29.4803 18.6339 29.3359 18.4594 29.2084 18.2681C29.0775 18.0767 28.9701 17.872 28.8828 17.6606C28.7922 17.4491 28.7251 17.2276 28.6814 17.0027C28.6345 16.7778 28.611 16.5496 28.611 16.318ZM45.1312 10.894C44.9936 11.525 44.7519 12.1124 44.4129 12.6595C44.0739 13.2032 43.651 13.6799 43.1509 14.0826C42.6475 14.4854 42.0937 14.7942 41.4861 15.0056C40.882 15.2204 40.2543 15.3278 39.6133 15.3278C38.9688 15.3278 38.3445 15.2204 37.737 15.0056C37.1329 14.7942 36.5757 14.4854 36.0756 14.0826C35.5722 13.6799 35.1526 13.2032 34.8136 12.6595C34.4713 12.1124 34.2329 11.525 34.092 10.894H32.1218C31.9808 10.894 31.8465 10.9209 31.7156 10.9746C31.5881 11.0283 31.474 11.1055 31.3733 11.2062C31.276 11.3035 31.1988 11.4176 31.1451 11.5485C31.0913 11.6761 31.0645 11.8137 31.0645 11.9513V16.318C31.0645 16.459 31.0913 16.5932 31.1451 16.7241C31.1988 16.8517 31.276 16.9658 31.3733 17.0665C31.474 17.1638 31.5881 17.241 31.7156 17.2947C31.8465 17.3484 31.9808 17.3753 32.1218 17.3753H47.1048C47.2457 17.3753 47.38 17.3484 47.5075 17.2947C47.6384 17.241 47.7526 17.1638 47.8499 17.0665C47.9506 16.9658 48.0244 16.8517 48.0781 16.7241C48.1318 16.5932 48.1587 16.459 48.1587 16.318V11.9513C48.1587 11.8137 48.1318 11.6761 48.0781 11.5485C48.0244 11.4176 47.9506 11.3035 47.8499 11.2062C47.7526 11.1055 47.6384 11.0283 47.5075 10.9746C47.38 10.9209 47.2457 10.894 47.1048 10.894H45.1312Z" fill="#0D313B"/>
<path d="M23.5729 68H55.6535C56.0562 68 56.4556 67.9597 56.8483 67.8792C57.2444 67.802 57.627 67.6845 57.9996 67.5301C58.3688 67.3757 58.7246 67.1844 59.0569 66.9629C59.3925 66.738 59.7013 66.4829 59.9866 66.1976C60.2719 65.9123 60.527 65.6035 60.7485 65.2679C60.9734 64.9322 61.1613 64.5798 61.3157 64.2072C61.4701 63.8347 61.5876 63.4487 61.6648 63.056C61.7453 62.6599 61.7823 62.2605 61.7823 61.8578V17.0363C61.7823 16.6335 61.742 16.2341 61.6648 15.838C61.5842 15.442 61.4701 15.0593 61.3157 14.6868C61.1613 14.3142 60.9734 13.9618 60.7485 13.6262C60.5236 13.2905 60.2719 12.9817 59.9866 12.6964C59.7013 12.4111 59.3925 12.1561 59.0569 11.9312C58.7246 11.7097 58.3688 11.5183 57.9996 11.3639C57.627 11.2095 57.2444 11.0921 56.8483 11.0149C56.4556 10.9343 56.0562 10.894 55.6535 10.894H49.3904C49.2293 10.894 49.0715 10.9243 48.9205 10.988C48.7695 11.0484 48.6386 11.1391 48.5211 11.2532C48.407 11.3673 48.3163 11.5016 48.2559 11.6526C48.1922 11.8036 48.1619 11.958 48.1586 12.1225V16.318C48.1586 16.459 48.1317 16.5932 48.078 16.7241C48.0243 16.8517 47.9505 16.9658 47.8498 17.0665C47.7525 17.1638 47.6384 17.241 47.5074 17.2947C47.3799 17.3484 47.2457 17.3753 47.1047 17.3753H32.1217C31.9807 17.3753 31.8464 17.3484 31.7155 17.2947C31.588 17.241 31.4739 17.1638 31.3732 17.0665C31.2759 16.9658 31.1987 16.8517 31.145 16.7241C31.0913 16.5932 31.0644 16.459 31.0644 16.318V12.1225C31.0644 11.958 31.0342 11.8036 30.9704 11.6526C30.91 11.5016 30.8194 11.3673 30.7053 11.2532C30.5912 11.1391 30.4569 11.0484 30.3059 10.988C30.1582 10.9243 30.0004 10.894 29.8393 10.894H23.5763C23.1735 10.894 22.7741 10.9343 22.378 11.0115C21.9853 11.0921 21.5993 11.2062 21.2301 11.3606C20.8576 11.515 20.5018 11.7063 20.1695 11.9312C19.8339 12.1527 19.5251 12.4078 19.2398 12.6931C18.9545 12.9784 18.6994 13.2872 18.4779 13.6228C18.253 13.9584 18.065 14.3142 17.9106 14.6868C17.7562 15.0593 17.6388 15.442 17.5616 15.838C17.481 16.2341 17.4407 16.6335 17.4407 17.0363V25.8368C17.434 26.0012 17.4609 26.1623 17.5213 26.3201C17.5784 26.4745 17.6656 26.6155 17.7831 26.7363C17.8972 26.8538 18.0315 26.9477 18.1859 27.0149C18.3403 27.0786 18.5014 27.1122 18.6658 27.1122C18.8337 27.1122 18.9948 27.0786 19.1458 27.0149C19.3002 26.9477 19.4344 26.8538 19.5519 26.7363C19.666 26.6155 19.7533 26.4745 19.8137 26.3201C19.8741 26.1623 19.901 26.0012 19.8943 25.8368V17.0363C19.8943 16.7913 19.9178 16.5529 19.9648 16.3146C20.0117 16.0763 20.0822 15.8481 20.1729 15.6232C20.2668 15.3983 20.381 15.1869 20.5152 14.9855C20.6495 14.7841 20.8005 14.5962 20.9717 14.425C21.1429 14.2538 21.3275 14.1028 21.5288 13.9685C21.7302 13.8309 21.945 13.7201 22.1666 13.6262C22.3914 13.5322 22.6197 13.4651 22.858 13.4147C23.0963 13.3677 23.3346 13.3442 23.5763 13.3442H28.6109V16.318C28.6109 16.5496 28.6344 16.7778 28.6814 17.0027C28.725 17.2276 28.7921 17.4458 28.8794 17.6572C28.97 17.872 29.0774 18.0734 29.205 18.2647C29.3325 18.456 29.4768 18.6306 29.6413 18.795C29.8024 18.9561 29.9803 19.1005 30.1682 19.2314C30.3596 19.3589 30.5609 19.4663 30.7724 19.5536C30.9839 19.6442 31.2054 19.7113 31.4303 19.755C31.6551 19.802 31.88 19.8254 32.1116 19.8254H47.0946C47.3262 19.8254 47.5511 19.802 47.776 19.755C48.0008 19.7113 48.2224 19.6442 48.4338 19.5536C48.6453 19.4663 48.8467 19.3589 49.038 19.2314C49.2293 19.1005 49.4038 18.9561 49.5649 18.795C49.7294 18.6306 49.8737 18.456 50.0013 18.2647C50.1288 18.0734 50.2362 17.872 50.3268 17.6572C50.4141 17.4458 50.4812 17.2276 50.5249 17.0027C50.5719 16.7778 50.5953 16.5496 50.5953 16.318V13.3509H55.6367C55.8783 13.3509 56.1166 13.3744 56.3549 13.4214C56.5899 13.4684 56.8215 13.5389 57.0464 13.6329C57.2679 13.7235 57.4793 13.8376 57.6807 13.9719C57.8821 14.1061 58.0701 14.2605 58.2412 14.4317C58.4124 14.6029 58.5635 14.7908 58.6977 14.9922C58.832 15.1936 58.9461 15.4051 59.0401 15.6299C59.1307 15.8515 59.2012 16.0831 59.2482 16.3214C59.2952 16.5597 59.3187 16.798 59.3187 17.0396V61.8712C59.3187 62.1128 59.2952 62.3545 59.2482 62.5928C59.2012 62.8311 59.1307 63.0594 59.0401 63.2842C58.9461 63.5091 58.832 63.7206 58.6977 63.9219C58.5635 64.1233 58.4124 64.3113 58.2412 64.4825C58.0701 64.6536 57.8821 64.8047 57.6807 64.9389C57.4793 65.0732 57.2679 65.1873 57.0464 65.2813C56.8215 65.3753 56.5899 65.4424 56.3549 65.4927C56.1166 65.5397 55.8783 65.5632 55.6367 65.5632H23.5729C23.3279 65.5632 23.0896 65.5397 22.8513 65.4927C22.6163 65.4424 22.3847 65.3753 22.1599 65.2813C21.9383 65.1873 21.7269 65.0732 21.5255 64.9389C21.3241 64.8047 21.1361 64.6536 20.965 64.4825C20.7938 64.3113 20.6428 64.1233 20.5085 63.9219C20.3742 63.7206 20.2601 63.5091 20.1661 63.2842C20.0755 63.0594 20.005 62.8311 19.958 62.5928C19.9111 62.3545 19.8876 62.1128 19.8876 61.8712V56.031C19.8943 55.8632 19.8674 55.7021 19.807 55.5477C19.75 55.39 19.6627 55.2523 19.5452 55.1315C19.4311 55.0107 19.2968 54.9201 19.1424 54.8529C18.988 54.7892 18.8269 54.7556 18.6625 54.7556C18.4947 54.7556 18.3335 54.7892 18.1825 54.8529C18.0281 54.9201 17.8939 55.0107 17.7764 55.1315C17.6623 55.2523 17.575 55.39 17.5146 55.5477C17.4542 55.7021 17.4307 55.8632 17.434 56.031V61.8645C17.4374 62.2672 17.4777 62.6667 17.5549 63.0594C17.6354 63.4554 17.7529 63.838 17.9073 64.2106C18.0617 64.5832 18.2496 64.9389 18.4745 65.2712C18.696 65.6069 18.9511 65.9157 19.2364 66.201C19.5217 66.4862 19.8305 66.7413 20.1661 66.9662C20.5018 67.1877 20.8542 67.3791 21.2268 67.5334C21.596 67.6845 21.982 67.802 22.3747 67.8825C22.7707 67.9597 23.1701 68 23.5729 68Z" fill="#0D313B"/>
<path d="M30.1718 26.5853H55.1099C55.2744 26.592 55.4355 26.5651 55.5932 26.5081C55.7476 26.4477 55.8852 26.3604 56.0061 26.2429C56.1269 26.1288 56.2209 25.9946 56.2847 25.8402C56.3518 25.6858 56.382 25.5247 56.382 25.3568C56.382 25.1924 56.3518 25.0313 56.2847 24.8769C56.2209 24.7225 56.1269 24.5882 56.0061 24.4741C55.8852 24.3566 55.7476 24.2694 55.5932 24.2089C55.4355 24.1519 55.2744 24.125 55.1099 24.1317H30.1718C30.004 24.125 29.8429 24.1519 29.6885 24.2089C29.5307 24.2694 29.3931 24.3566 29.2723 24.4741C29.1548 24.5882 29.0608 24.7225 28.9937 24.8769C28.9299 25.0313 28.8964 25.1924 28.8964 25.3568C28.8964 25.5247 28.9299 25.6858 28.9937 25.8402C29.0608 25.9946 29.1548 26.1288 29.2723 26.2429C29.3931 26.3604 29.5307 26.4477 29.6885 26.5081C29.8429 26.5651 30.004 26.592 30.1718 26.5853Z" fill="#0D313B"/>
<path d="M37.1263 32.318H55.1099C55.2744 32.3247 55.4355 32.2979 55.5932 32.2375C55.7476 32.177 55.8852 32.0898 56.0061 31.9757C56.1269 31.8582 56.2209 31.7239 56.2846 31.5695C56.3518 31.4151 56.382 31.2574 56.382 31.0896C56.382 30.9217 56.3518 30.7606 56.2846 30.6062C56.2209 30.4552 56.1269 30.3176 56.0061 30.2035C55.8852 30.086 55.7476 29.9987 55.5932 29.9417C55.4355 29.8813 55.2744 29.8544 55.1099 29.8611H37.1263C36.9618 29.8544 36.7973 29.8813 36.6429 29.9417C36.4885 29.9987 36.3476 30.086 36.2301 30.2035C36.1093 30.3176 36.0153 30.4552 35.9515 30.6062C35.8844 30.7606 35.8542 30.9217 35.8542 31.0896C35.8542 31.2574 35.8844 31.4151 35.9515 31.5695C36.0153 31.7239 36.1093 31.8582 36.2301 31.9757C36.3476 32.0898 36.4885 32.177 36.6429 32.2375C36.7973 32.2979 36.9618 32.3247 37.1263 32.318Z" fill="#0D313B"/>
<path d="M40.0563 38.0474H55.1098C55.2743 38.0542 55.4354 38.0273 55.5931 37.9669C55.7475 37.9065 55.8851 37.8192 56.006 37.7051C56.1268 37.5876 56.2208 37.4534 56.2846 37.299C56.3517 37.1479 56.3819 36.9868 56.3819 36.819C56.3819 36.6512 56.3517 36.4901 56.2846 36.339C56.2208 36.1846 56.1268 36.0504 56.006 35.9329C55.8851 35.8188 55.7475 35.7315 55.5931 35.6711C55.4354 35.6107 55.2743 35.5838 55.1098 35.5905H40.0563C39.8885 35.5838 39.7274 35.6107 39.573 35.6711C39.4152 35.7315 39.2776 35.8188 39.1568 35.9329C39.036 36.0504 38.9453 36.1846 38.8782 36.339C38.8144 36.4901 38.7809 36.6512 38.7809 36.819C38.7809 36.9868 38.8144 37.1479 38.8782 37.299C38.9453 37.4534 39.036 37.5876 39.1568 37.7051C39.2776 37.8192 39.4152 37.9065 39.573 37.9669C39.7274 38.0273 39.8885 38.0542 40.0563 38.0474Z" fill="#0D313B"/>
<path d="M41.0094 43.7801H55.1097C55.2708 43.7801 55.4285 43.7466 55.5762 43.6862C55.7272 43.6224 55.8615 43.5351 55.9756 43.4176C56.0897 43.3035 56.1804 43.1726 56.2408 43.0216C56.3045 42.8705 56.3348 42.7128 56.3348 42.5517C56.3348 42.3872 56.3045 42.2295 56.2408 42.0818C56.1804 41.9308 56.0897 41.7965 55.9756 41.6824C55.8615 41.5649 55.7272 41.4776 55.5762 41.4139C55.4285 41.3535 55.2708 41.3232 55.1097 41.3232H41.0094C40.8483 41.3232 40.6905 41.3535 40.5395 41.4139C40.3885 41.4776 40.2576 41.5649 40.1434 41.6824C40.026 41.7965 39.9387 41.9308 39.8749 42.0818C39.8145 42.2295 39.7843 42.3872 39.7843 42.5517C39.7843 42.7128 39.8145 42.8705 39.8749 43.0216C39.9387 43.1726 40.026 43.3035 40.1434 43.4176C40.2576 43.5351 40.3885 43.6224 40.5395 43.6862C40.6905 43.7466 40.8483 43.7801 41.0094 43.7801Z" fill="#0D313B"/>
<path d="M39.6134 49.5095H55.1099C55.2744 49.5162 55.4355 49.4894 55.5932 49.429C55.7476 49.3719 55.8853 49.2813 56.0061 49.1672C56.1269 49.0497 56.2209 48.9154 56.2847 48.7644C56.3518 48.61 56.382 48.4489 56.382 48.2811C56.382 48.1133 56.3518 47.9555 56.2847 47.8011C56.2209 47.6467 56.1269 47.5125 56.0061 47.395C55.8853 47.2809 55.7476 47.1936 55.5932 47.1332C55.4355 47.0728 55.2744 47.0459 55.1099 47.0526H39.6134C39.4456 47.0459 39.2845 47.0728 39.1301 47.1332C38.9723 47.1936 38.8347 47.2809 38.7172 47.395C38.5964 47.5125 38.5024 47.6467 38.4386 47.8011C38.3715 47.9555 38.338 48.1133 38.338 48.2811C38.338 48.4489 38.3715 48.61 38.4386 48.7644C38.5024 48.9154 38.5964 49.0497 38.7172 49.1672C38.8347 49.2813 38.9723 49.3719 39.1301 49.429C39.2845 49.4894 39.4456 49.5162 39.6134 49.5095Z" fill="#0D313B"/>
<path d="M34.4711 55.239H55.0996C55.2674 55.2457 55.4285 55.2188 55.5863 55.1618C55.7407 55.1014 55.8783 55.0141 55.9991 54.8966C56.12 54.7825 56.2106 54.6482 56.2777 54.4938C56.3415 54.3395 56.375 54.1783 56.375 54.0105C56.375 53.8461 56.3415 53.685 56.2777 53.5306C56.2106 53.3762 56.12 53.2419 55.9991 53.1278C55.8783 53.0103 55.7407 52.923 55.5863 52.8626C55.4285 52.8056 55.2674 52.7787 55.0996 52.7854H34.4711C34.3033 52.7787 34.1422 52.8056 33.9878 52.8626C33.83 52.923 33.6924 53.0103 33.5716 53.1278C33.4508 53.2419 33.3601 53.3762 33.293 53.5306C33.2292 53.685 33.1957 53.8461 33.1957 54.0105C33.1957 54.1783 33.2292 54.3395 33.293 54.4938C33.3601 54.6482 33.4508 54.7825 33.5716 54.8966C33.6924 55.0141 33.83 55.1014 33.9878 55.1618C34.1422 55.2188 34.3033 55.2457 34.4711 55.239Z" fill="#0D313B"/>
<path d="M25.5468 60.9717H55.1101C55.2745 60.975 55.4356 60.9516 55.5934 60.8911C55.7478 60.8307 55.8854 60.7435 56.0062 60.6293C56.1271 60.5119 56.221 60.3776 56.2848 60.2232C56.3519 60.0688 56.3821 59.9077 56.3821 59.7432C56.3821 59.5754 56.3519 59.4143 56.2848 59.2599C56.221 59.1089 56.1271 58.9713 56.0062 58.8572C55.8854 58.7397 55.7478 58.6524 55.5934 58.5954C55.4356 58.5349 55.2745 58.5081 55.1101 58.5148H25.5468C25.3891 58.5215 25.2347 58.5551 25.0903 58.6222C24.946 58.686 24.8185 58.7766 24.7111 58.8907C24.6003 59.0048 24.5164 59.1357 24.456 59.2834C24.3956 59.4311 24.3687 59.5821 24.3687 59.7432C24.3687 59.901 24.3956 60.0554 24.456 60.2031C24.5164 60.3474 24.6003 60.4783 24.7111 60.5958C24.8185 60.7099 24.946 60.7972 25.0903 60.8643C25.2347 60.9281 25.3891 60.965 25.5468 60.9717Z" fill="#0D313B"/>
</svg>
