<svg width="72" height="72" viewBox="0 0 72 72" fill="none" xmlns="http://www.w3.org/2000/svg">
<g id="meetings">
<rect id="Rectangle 34624660" x="6" y="14" width="59" height="11" fill="#22885E"/>
<g id="Group 1171274972">
<g id="Group">
<path id="Vector" d="M59.4667 11.0245H55.8556V9.27097C55.8556 8.96935 55.8028 8.67957 55.6944 8.40161C55.5861 8.12366 55.4306 7.87823 55.2306 7.66532C55.0306 7.45242 54.8 7.28683 54.5389 7.17151C54.2778 7.05618 54.0056 7 53.7222 7C53.4389 7 53.1667 7.05618 52.9056 7.17151C52.6444 7.28683 52.4139 7.45242 52.2139 7.66532C52.0139 7.87823 51.8611 8.12366 51.7528 8.40161C51.6444 8.67957 51.5889 8.96935 51.5889 9.27097V11.0245H44.0417V9.27097C44.0417 8.96935 43.9889 8.67957 43.8806 8.40161C43.7722 8.12366 43.6167 7.87823 43.4167 7.66532C43.2167 7.45242 42.9861 7.28683 42.725 7.17151C42.4639 7.05618 42.1917 7 41.9083 7C41.625 7 41.3528 7.05618 41.0917 7.17151C40.8306 7.28683 40.6 7.45242 40.4 7.66532C40.2 7.87823 40.0444 8.12366 39.9361 8.40161C39.8278 8.67957 39.775 8.96935 39.775 9.27097V11.0245H32.225V9.27097C32.225 8.96935 32.1722 8.67957 32.0639 8.40161C31.9556 8.12366 31.8 7.87823 31.6 7.66532C31.4 7.45242 31.1694 7.28683 30.9083 7.17151C30.6472 7.05618 30.375 7 30.0917 7C29.8083 7 29.5361 7.05618 29.275 7.17151C29.0139 7.28683 28.7833 7.45242 28.5833 7.66532C28.3833 7.87823 28.2278 8.12366 28.1194 8.40161C28.0111 8.67957 27.9583 8.96935 27.9583 9.27097V11.0245H20.4111V9.27097C20.4111 8.96935 20.3556 8.67957 20.2472 8.40161C20.1389 8.12366 19.9861 7.87823 19.7861 7.66532C19.5861 7.45242 19.3556 7.28683 19.0944 7.17151C18.8333 7.05618 18.5611 7 18.2778 7C17.9944 7 17.7222 7.05618 17.4611 7.17151C17.2 7.28683 16.9694 7.45242 16.7694 7.66532C16.5694 7.87823 16.4139 8.12366 16.3056 8.40161C16.1972 8.67957 16.1444 8.96935 16.1444 9.27097V11.0245H12.5333C11.9722 11.0274 11.4194 11.0836 10.8694 11.2019C10.3194 11.3172 9.78611 11.4917 9.26944 11.7194C8.75278 11.947 8.26111 12.228 7.79444 12.5591C7.32778 12.8903 6.89722 13.2688 6.50278 13.6887C6.10556 14.1116 5.75278 14.5699 5.44167 15.0667C5.13056 15.5634 4.86667 16.0868 4.65278 16.6368C4.43611 17.1868 4.275 17.7546 4.16667 18.3401C4.05556 18.9255 4 19.5169 4 20.1113V56.4616C4 57.0589 4.05556 57.6473 4.16667 58.2328C4.275 58.8183 4.43611 59.386 4.65278 59.936C4.86667 60.489 5.13056 61.0124 5.44167 61.5062C5.75278 62.003 6.10556 62.4613 6.50278 62.8841C6.89722 63.307 7.32778 63.6825 7.79444 64.0137C8.26111 64.3449 8.75278 64.6258 9.26944 64.8535C9.78611 65.0841 10.3194 65.2556 10.8694 65.371C11.4194 65.4892 11.9722 65.5484 12.5333 65.5484H59.4667C60.0278 65.5484 60.5806 65.4892 61.1306 65.371C61.6806 65.2556 62.2139 65.0841 62.7306 64.8535C63.2472 64.6258 63.7389 64.3449 64.2056 64.0137C64.6722 63.6825 65.1028 63.307 65.4972 62.8841C65.8944 62.4613 66.2472 62.003 66.5583 61.5062C66.8694 61.0124 67.1333 60.489 67.3472 59.936C67.5639 59.386 67.725 58.8183 67.8333 58.2328C67.9444 57.6473 68 57.0589 68 56.4616V20.1113C68 19.5169 67.9444 18.9255 67.8333 18.3401C67.725 17.7546 67.5639 17.1868 67.3472 16.6368C67.1333 16.0868 66.8694 15.5634 66.5583 15.0667C66.2472 14.5699 65.8944 14.1116 65.4972 13.6887C65.1028 13.2688 64.6722 12.8903 64.2056 12.5591C63.7389 12.228 63.2472 11.947 62.7306 11.7194C62.2139 11.4917 61.6806 11.3172 61.1306 11.2019C60.5806 11.0836 60.0278 11.0274 59.4667 11.0245ZM63.7333 56.4616C63.7333 56.7602 63.7056 57.0559 63.65 57.3487C63.5944 57.6384 63.5139 57.9223 63.4083 58.2003C63.3 58.4753 63.1694 58.7355 63.0139 58.9839C62.8583 59.2323 62.6806 59.4629 62.4833 59.6728C62.2833 59.8828 62.0694 60.072 61.8361 60.2376C61.6028 60.4032 61.3583 60.5422 61.1 60.6575C60.8389 60.7729 60.5722 60.8586 60.3 60.9177C60.025 60.9739 59.7472 61.0035 59.4667 61.0035H12.5333C12.2528 61.0035 11.975 60.9739 11.7 60.9177C11.4278 60.8586 11.1611 60.7729 10.9 60.6575C10.6417 60.5422 10.3972 60.4032 10.1639 60.2376C9.93056 60.072 9.71667 59.8828 9.51667 59.6728C9.31945 59.4629 9.14167 59.2323 8.98611 58.9839C8.83056 58.7355 8.7 58.4753 8.59167 58.2003C8.48611 57.9223 8.40555 57.6384 8.35 57.3487C8.29444 57.0559 8.26667 56.7602 8.26667 56.4616V28.0863H63.7333V56.4616ZM63.7333 23.5414H8.26667V20.1113C8.26667 19.8156 8.29444 19.5199 8.35 19.2271C8.40555 18.9344 8.48611 18.6505 8.59167 18.3755C8.7 18.1005 8.83056 17.8374 8.98611 17.589C9.14167 17.3406 9.31945 17.1129 9.51667 16.9C9.71667 16.6901 9.93056 16.5008 10.1639 16.3352C10.3972 16.1696 10.6417 16.0306 10.9 15.9153C11.1611 15.803 11.4278 15.7142 11.7 15.6581C11.975 15.5989 12.2528 15.5694 12.5333 15.5694H16.1444V17.3228C16.1444 17.6245 16.1972 17.9142 16.3056 18.1922C16.4139 18.4731 16.5694 18.7185 16.7694 18.9315C16.9694 19.1444 17.2 19.307 17.4611 19.4223C17.7222 19.5376 17.9944 19.5968 18.2778 19.5968C18.5611 19.5968 18.8333 19.5376 19.0944 19.4223C19.3556 19.307 19.5861 19.1444 19.7861 18.9315C19.9861 18.7185 20.1389 18.4731 20.2472 18.1922C20.3556 17.9142 20.4111 17.6245 20.4111 17.3228V15.5694H27.9583V17.3228C27.9583 17.6245 28.0111 17.9142 28.1194 18.1922C28.2278 18.4731 28.3833 18.7185 28.5833 18.9315C28.7833 19.1444 29.0139 19.307 29.275 19.4223C29.5361 19.5376 29.8083 19.5968 30.0917 19.5968C30.375 19.5968 30.6472 19.5376 30.9083 19.4223C31.1694 19.307 31.4 19.1444 31.6 18.9315C31.8 18.7185 31.9556 18.4731 32.0639 18.1922C32.1722 17.9142 32.225 17.6245 32.225 17.3228V15.5694H39.775V17.3228C39.775 17.6245 39.8278 17.9142 39.9361 18.1922C40.0444 18.4731 40.2 18.7185 40.4 18.9315C40.6 19.1444 40.8306 19.307 41.0917 19.4223C41.3528 19.5376 41.625 19.5968 41.9083 19.5968C42.1917 19.5968 42.4639 19.5376 42.725 19.4223C42.9861 19.307 43.2167 19.1444 43.4167 18.9315C43.6167 18.7185 43.7722 18.4731 43.8806 18.1922C43.9889 17.9142 44.0417 17.6245 44.0417 17.3228V15.5694H51.5889V17.3228C51.5889 17.6245 51.6444 17.9142 51.7528 18.1922C51.8611 18.4731 52.0139 18.7185 52.2139 18.9315C52.4139 19.1444 52.6444 19.307 52.9056 19.4223C53.1667 19.5376 53.4389 19.5968 53.7222 19.5968C54.0056 19.5968 54.2778 19.5376 54.5389 19.4223C54.8 19.307 55.0306 19.1444 55.2306 18.9315C55.4306 18.7185 55.5861 18.4731 55.6944 18.1922C55.8028 17.9142 55.8556 17.6245 55.8556 17.3228V15.5694H59.4667C59.7472 15.5694 60.025 15.5989 60.3 15.6581C60.5722 15.7142 60.8389 15.803 61.1 15.9153C61.3583 16.0306 61.6028 16.1696 61.8361 16.3352C62.0694 16.5008 62.2833 16.6901 62.4833 16.9C62.6806 17.1129 62.8583 17.3406 63.0139 17.589C63.1694 17.8374 63.3 18.1005 63.4083 18.3755C63.5139 18.6505 63.5944 18.9344 63.65 19.2271C63.7056 19.5199 63.7333 19.8156 63.7333 20.1113V23.5414Z" fill="#0B2D1F"/>
</g>
<text id="30" fill="#0B2D1F" xml:space="preserve" style="white-space: pre" font-family="Inter" font-size="17.8862" font-weight="bold" letter-spacing="0em"><tspan x="25.5314" y="56.6916">30</tspan></text>
<text id="MON" fill="#0B2D1F" xml:space="preserve" style="white-space: pre" font-family="Inter" font-size="9.41433" font-weight="bold" letter-spacing="0em"><tspan x="26.1328" y="39.2408">MON</tspan></text>
</g>
</g>
</svg>
