<svg width="72" height="72" viewBox="0 0 72 72" fill="none" xmlns="http://www.w3.org/2000/svg">
<g id="sales-teams">
<g id="Group">
<g id="Vector">
<path d="M33.2694 4.21531C30.4597 4.8397 28.3367 6.02604 26.3075 8.13336C24.6216 9.88165 23.6538 11.6143 22.9982 14.0495C22.5299 15.8134 22.5299 18.8417 22.9982 20.6056C23.6694 23.0563 24.7621 25.0075 26.5104 26.7714C31.6928 32.0007 40.2938 32.0007 45.4919 26.7558C47.2401 25.0075 48.3328 23.0563 49.004 20.6056C49.4723 18.8417 49.4723 15.8134 49.004 14.0495C48.3172 11.4895 47.2089 9.58507 45.3358 7.78995C43.3845 5.90117 41.246 4.73043 38.7797 4.23092C37.3279 3.93434 34.5806 3.91873 33.2694 4.21531ZM38.5611 7.10312C42.2606 8.0397 45.2577 11.0368 46.2411 14.7519C46.6001 16.0943 46.6001 18.5607 46.2567 19.8875C45.0079 24.586 40.7933 27.8641 36.0011 27.8641C31.2089 27.8641 27.0099 24.586 25.7455 19.8875C25.4021 18.5607 25.4021 16.0943 25.7611 14.7519C27.244 9.13239 33.0197 5.68263 38.5611 7.10312Z" fill="#0D313B"/>
<path d="M38.5611 7.10312C42.2606 8.0397 45.2577 11.0368 46.2411 14.7519C46.6001 16.0943 46.6001 18.5607 46.2567 19.8875C45.0079 24.586 40.7933 27.8641 36.0011 27.8641C31.2089 27.8641 27.0099 24.586 25.7455 19.8875C25.4021 18.5607 25.4021 16.0943 25.7611 14.7519C27.244 9.13239 33.0197 5.68263 38.5611 7.10312Z" fill="#68D4F4"/>
</g>
<path id="Vector_2" d="M35.049 8.96014C34.6744 9.33478 34.5963 9.55331 34.5963 10.1309C34.5963 10.7553 34.5495 10.8801 34.2217 11.005C33.6285 11.2236 32.7387 12.0977 32.3797 12.7689C31.9895 13.5494 31.849 14.9231 32.0831 15.7972C32.3173 16.6714 33.129 17.7172 33.9251 18.1543C34.2841 18.3572 35.0178 18.5758 35.5641 18.6694C36.6568 18.8411 37.25 19.3094 37.25 19.9806C37.25 20.5582 36.6412 21.167 36.0324 21.1826C35.6109 21.1982 35.3924 21.0577 34.768 20.4021C33.9407 19.4967 33.5817 19.4031 32.77 19.9026C32.0987 20.3084 31.9583 21.0421 32.3953 21.885C32.7231 22.5406 33.5973 23.3992 34.2217 23.6801C34.5339 23.8206 34.5963 23.9767 34.5963 24.5387C34.5963 25.4128 35.2363 26.1465 36.0012 26.1465C36.7817 26.1465 37.4061 25.4128 37.4061 24.5231C37.4061 23.9143 37.4685 23.7738 37.7651 23.6645C37.968 23.5865 38.3583 23.3367 38.6236 23.1026C40.2939 21.6977 40.5124 19.0597 39.0919 17.3426C38.5612 16.687 37.2656 16.0001 36.5787 16.0001C36.3446 16.0001 35.9075 15.9065 35.6109 15.7816C34.7056 15.407 34.5027 14.5953 35.1114 13.8772C35.6266 13.284 36.3914 13.3153 36.969 13.9553C37.4841 14.5328 37.89 14.7514 38.4207 14.7514C38.967 14.7514 39.7475 13.9709 39.7475 13.4245C39.7475 12.6284 38.967 11.6294 37.9212 11.0987C37.4529 10.8645 37.4061 10.7709 37.4061 10.1309C37.4061 9.24112 36.7817 8.50746 36.0012 8.50746C35.6578 8.50746 35.3612 8.64795 35.049 8.96014Z" fill="#0D313B"/>
<g id="Vector_3">
<path d="M34.5176 35.3884C32.7381 35.7318 30.7556 37.0742 29.7878 38.5884C28.3361 40.8674 28.2737 44.005 29.6161 46.3933C30.2093 47.4235 31.6922 48.7972 32.7537 49.2967C35.5166 50.5923 38.7322 50.124 40.9176 48.126C42.5722 46.6118 43.3371 44.8635 43.3371 42.6001C43.3371 37.886 39.1849 34.4986 34.5176 35.3884ZM37.983 38.5728C39.6844 39.3845 40.6366 41.0703 40.4961 42.9903C40.4025 44.286 39.9966 45.0977 38.9664 46.0342C37.2025 47.6108 34.7986 47.6108 33.0347 46.0342C32.0044 45.0977 31.5986 44.286 31.5049 42.9903C31.2552 39.4313 34.783 37.0274 37.983 38.5728Z" fill="#0D313B"/>
<path d="M37.983 38.5728C39.6844 39.3845 40.6366 41.0703 40.4961 42.9903C40.4025 44.286 39.9966 45.0977 38.9664 46.0342C37.2025 47.6108 34.7986 47.6108 33.0347 46.0342C32.0044 45.0977 31.5986 44.286 31.5049 42.9903C31.2552 39.4313 34.783 37.0274 37.983 38.5728Z" fill="#2894B4"/>
</g>
<g id="Vector_4">
<path d="M13.6456 40.664C11.7881 40.9918 9.97733 42.3655 9.18123 44.0669C8.80659 44.863 8.75977 45.144 8.75977 46.6738C8.75977 48.2972 8.79099 48.4377 9.25928 49.3274C9.88367 50.5294 11.0076 51.6221 12.1939 52.1684C13.0212 52.5586 13.3022 52.6055 14.6915 52.6055C16.0651 52.6055 16.3617 52.5586 17.1578 52.184C19.2183 51.2162 20.5451 49.2806 20.67 47.0796C20.7637 45.5342 20.4983 44.4728 19.7646 43.3489C18.469 41.3352 16.0183 40.2582 13.6456 40.664ZM16.2524 43.8484C17.6573 44.5977 18.3129 46.5645 17.6105 47.9382C16.4866 50.1391 13.8798 50.5138 12.3032 48.703C11.6632 47.985 11.4915 47.5479 11.4915 46.6582C11.4915 44.145 14.0203 42.6464 16.2524 43.8484Z" fill="#0D313B"/>
<path d="M16.2524 43.8484C17.6573 44.5977 18.3129 46.5645 17.6105 47.9382C16.4866 50.1391 13.8798 50.5138 12.3032 48.703C11.6632 47.985 11.4915 47.5479 11.4915 46.6582C11.4915 44.145 14.0203 42.6464 16.2524 43.8484Z" fill="#2894B4"/>
</g>
<g id="Vector_5">
<path d="M56.2618 40.664C54.3887 40.9918 52.6872 42.2874 51.8287 44.0201C51.4228 44.8786 51.376 45.0972 51.376 46.5957C51.376 48.0786 51.4228 48.3284 51.8287 49.2025C52.375 50.3889 53.5926 51.5908 54.8413 52.184C55.6374 52.5586 55.934 52.6055 57.3077 52.6055C58.697 52.6055 58.9779 52.5586 59.8052 52.1684C60.9916 51.6221 62.1155 50.5294 62.7399 49.3274C63.2082 48.4377 63.2394 48.2972 63.2394 46.6738C63.2394 44.7225 63.0052 43.9889 61.9594 42.7245C60.6638 41.1479 58.3379 40.305 56.2618 40.664ZM58.7906 43.786C59.8677 44.3323 60.5077 45.4094 60.5077 46.6582C60.5077 47.5479 60.336 47.985 59.696 48.703C58.1194 50.5138 55.5126 50.1391 54.3887 47.9382C53.936 47.0484 54.0452 45.7216 54.6696 44.8474C55.6531 43.4425 57.2765 43.0211 58.7906 43.786Z" fill="#0D313B"/>
<path d="M58.7906 43.786C59.8677 44.3323 60.5077 45.4094 60.5077 46.6582C60.5077 47.5479 60.336 47.985 59.696 48.703C58.1194 50.5138 55.5126 50.1391 54.3887 47.9382C53.936 47.0484 54.0452 45.7216 54.6696 44.8474C55.6531 43.4425 57.2765 43.0211 58.7906 43.786Z" fill="#2894B4"/>
</g>
<path id="Vector_6" d="M33.1902 52.2C30.7863 52.7151 28.5698 53.8858 26.7434 55.6185C25.76 56.5707 24.6517 58.0068 24.199 58.959C24.0429 59.2868 23.8868 59.5522 23.8244 59.5522C23.7776 59.5522 23.6215 59.3493 23.481 59.1151C23.0439 58.3658 21.2488 56.7112 20.2029 56.0868C17.2839 54.3073 13.3034 54.1044 10.1659 55.5561C6.26341 57.3824 4 61.0351 4 65.5151C4 67.1073 4.01561 67.2322 4.39024 67.5912L4.76488 67.9814H36H67.2351L67.6098 67.5912C67.9844 67.2322 68 67.1073 68 65.5151C68 61.0351 65.7366 57.3824 61.8341 55.5561C58.6966 54.1044 54.7161 54.3073 51.7971 56.0868C50.7512 56.7112 48.9561 58.3658 48.519 59.1151C48.3785 59.3493 48.2224 59.5522 48.1756 59.5522C48.1132 59.5522 47.9571 59.2868 47.801 58.959C47.3483 58.0068 46.24 56.5707 45.2566 55.6185C42.041 52.559 37.5298 51.279 33.1902 52.2ZM39.0439 55.1815C40.761 55.7122 42.041 56.5083 43.4302 57.8975C45.241 59.7239 46.1932 61.7063 46.5366 64.3444L46.6459 65.1717H36H25.3541L25.4634 64.3444C25.7756 61.9093 26.759 59.7707 28.32 58.1161C29.8966 56.4458 31.6449 55.4468 33.8927 54.9317C35.2039 54.6351 37.6546 54.7444 39.0439 55.1815ZM16.2068 57.5385C18.3922 57.9912 20.5776 59.599 21.6078 61.5346C22.1229 62.518 22.5756 64.001 22.5756 64.7346V65.1717H14.6927H6.80976V64.7346C6.80976 64.5005 6.91902 63.8917 7.0439 63.3766C8.10537 59.318 12.1951 56.7112 16.2068 57.5385ZM59.0868 57.601C61.8966 58.2722 64.2068 60.5512 64.9561 63.3766C65.081 63.8917 65.1902 64.5005 65.1902 64.7346V65.1717H57.3073H49.4244V64.7346C49.4244 64.5005 49.5337 63.8917 49.6585 63.3766C50.7512 59.2244 54.9659 56.6332 59.0868 57.601Z" fill="#0D313B"/>
</g>
</g>
</svg>
