<svg width="72" height="72" viewBox="0 0 72 72" fill="none" xmlns="http://www.w3.org/2000/svg">
<path d="M33.2694 4.2148C30.4596 4.83919 28.3367 6.02553 26.3074 8.13284C24.6215 9.88113 23.6537 11.6138 22.9981 14.0489C22.5298 15.8128 22.5298 18.8411 22.9981 20.605C23.6694 23.0558 24.762 25.007 26.5103 26.7709C31.6928 32.0002 40.2937 32.0002 45.4918 26.7553C47.2401 25.007 48.3328 23.0558 49.004 20.605C49.4723 18.8411 49.4723 15.8128 49.004 14.0489C48.3172 11.4889 47.2089 9.58455 45.3357 7.78943C43.3845 5.90065 41.2459 4.72992 38.7796 4.2304C37.3279 3.93382 34.5806 3.91821 33.2694 4.2148ZM38.5611 7.1026C42.2606 8.03918 45.2576 11.0363 46.2411 14.7514C46.6001 16.0938 46.6001 18.5602 46.2567 19.887C45.0079 24.5855 40.7933 27.8636 36.0011 27.8636C31.2089 27.8636 27.0098 24.5855 25.7454 19.887C25.402 18.5602 25.402 16.0938 25.7611 14.7514C27.244 9.13187 33.0196 5.68211 38.5611 7.1026Z" fill="black"/>
<path d="M38.5611 7.1026C42.2606 8.03918 45.2576 11.0363 46.2411 14.7514C46.6001 16.0938 46.6001 18.5602 46.2567 19.887C45.0079 24.5855 40.7933 27.8636 36.0011 27.8636C31.2089 27.8636 27.0098 24.5855 25.7454 19.887C25.402 18.5602 25.402 16.0938 25.7611 14.7514C27.244 9.13187 33.0196 5.68211 38.5611 7.1026Z" fill="#FFA600"/>
<path d="M35.0489 8.95996C34.6743 9.33459 34.5962 9.55313 34.5962 10.1307C34.5962 10.7551 34.5494 10.88 34.2216 11.0048C33.6284 11.2234 32.7387 12.0975 32.3797 12.7687C31.9894 13.5492 31.8489 14.9229 32.0831 15.797C32.3172 16.6712 33.1289 17.717 33.925 18.1541C34.2841 18.357 35.0177 18.5756 35.5641 18.6692C36.6567 18.8409 37.2499 19.3092 37.2499 19.9804C37.2499 20.558 36.6411 21.1668 36.0323 21.1824C35.6109 21.198 35.3923 21.0575 34.768 20.4019C33.9406 19.4965 33.5816 19.4029 32.7699 19.9024C32.0987 20.3083 31.9582 21.0419 32.3953 21.8848C32.7231 22.5404 33.5972 23.399 34.2216 23.68C34.5338 23.8204 34.5962 23.9765 34.5962 24.5385C34.5962 25.4126 35.2362 26.1463 36.0011 26.1463C36.7816 26.1463 37.406 25.4126 37.406 24.5229C37.406 23.9141 37.4684 23.7736 37.765 23.6643C37.968 23.5863 38.3582 23.3365 38.6236 23.1024C40.2938 21.6975 40.5123 19.0595 39.0919 17.3424C38.5611 16.6868 37.2655 16 36.5787 16C36.3445 16 35.9075 15.9063 35.6109 15.7814C34.7055 15.4068 34.5026 14.5951 35.1114 13.877C35.6265 13.2839 36.3914 13.3151 36.9689 13.9551C37.4841 14.5326 37.8899 14.7512 38.4206 14.7512C38.967 14.7512 39.7475 13.9707 39.7475 13.4243C39.7475 12.6283 38.967 11.6292 37.9211 11.0985C37.4528 10.8643 37.406 10.7707 37.406 10.1307C37.406 9.24093 36.7816 8.50727 36.0011 8.50727C35.6577 8.50727 35.3611 8.64776 35.0489 8.95996Z" fill="black"/>
<path d="M34.5178 35.388C32.7383 35.7314 30.7559 37.0739 29.7881 38.588C28.3364 40.867 28.2739 44.0046 29.6164 46.3929C30.2095 47.4231 31.6925 48.7968 32.7539 49.2963C35.5169 50.5919 38.7325 50.1236 40.9178 48.1256C42.5725 46.6114 43.3374 44.8631 43.3374 42.5997C43.3374 37.8856 39.1852 34.4982 34.5178 35.388ZM37.9832 38.5724C39.6847 39.3841 40.6369 41.0699 40.4964 42.9899C40.4027 44.2856 39.9969 45.0973 38.9666 46.0338C37.2027 47.6104 34.7988 47.6104 33.0349 46.0338C32.0047 45.0973 31.5988 44.2856 31.5052 42.9899C31.2554 39.4309 34.7832 37.027 37.9832 38.5724Z" fill="black"/>
<path d="M37.9832 38.5724C39.6847 39.3841 40.6369 41.0699 40.4964 42.9899C40.4027 44.2856 39.9969 45.0973 38.9666 46.0338C37.2027 47.6104 34.7988 47.6104 33.0349 46.0338C32.0047 45.0973 31.5988 44.2856 31.5052 42.9899C31.2554 39.4309 34.7832 37.027 37.9832 38.5724Z" fill="#FFA600"/>
<path d="M13.6454 40.6636C11.7879 40.9914 9.97714 42.3651 9.18105 44.0666C8.80641 44.8627 8.75958 45.1436 8.75958 46.6734C8.75958 48.2968 8.7908 48.4373 9.25909 49.3271C9.88348 50.529 11.0074 51.6217 12.1937 52.168C13.021 52.5583 13.302 52.6051 14.6913 52.6051C16.0649 52.6051 16.3615 52.5583 17.1576 52.1836C19.2181 51.2158 20.5449 49.2802 20.6698 47.0792C20.7635 45.5339 20.4981 44.4724 19.7645 43.3485C18.4689 41.3349 16.0181 40.2578 13.6454 40.6636ZM16.2523 43.848C17.6571 44.5973 18.3128 46.5641 17.6103 47.9378C16.4864 50.1388 13.8796 50.5134 12.303 48.7027C11.663 47.9846 11.4913 47.5475 11.4913 46.6578C11.4913 44.1446 14.0201 42.6461 16.2523 43.848Z" fill="black"/>
<path d="M56.262 40.6636C54.3888 40.9914 52.6873 42.2871 51.8288 44.0197C51.4229 44.8783 51.3761 45.0968 51.3761 46.5953C51.3761 48.0783 51.4229 48.328 51.8288 49.2022C52.3751 50.3885 53.5927 51.5905 54.8415 52.1836C55.6376 52.5583 55.9341 52.6051 57.3078 52.6051C58.6971 52.6051 58.9781 52.5583 59.8054 52.168C60.9917 51.6217 62.1156 50.529 62.74 49.3271C63.2083 48.4373 63.2395 48.2968 63.2395 46.6734C63.2395 44.7222 63.0054 43.9885 61.9595 42.7241C60.6639 41.1475 58.3381 40.3046 56.262 40.6636ZM58.7907 43.7856C59.8678 44.3319 60.5078 45.409 60.5078 46.6578C60.5078 47.5475 60.3361 47.9846 59.6961 48.7027C58.1195 50.5134 55.5127 50.1388 54.3888 47.9378C53.9361 47.048 54.0454 45.7212 54.6698 44.8471C55.6532 43.4422 57.2766 43.0207 58.7907 43.7856Z" fill="black"/>
<path d="M33.1902 52.1996C30.7863 52.7147 28.5698 53.8854 26.7434 55.6181C25.76 56.5703 24.6517 58.0064 24.199 58.9586C24.0429 59.2864 23.8868 59.5518 23.8244 59.5518C23.7776 59.5518 23.6215 59.3489 23.481 59.1147C23.0439 58.3654 21.2488 56.7108 20.2029 56.0864C17.2839 54.3069 13.3034 54.104 10.1659 55.5557C6.26341 57.382 4 61.0347 4 65.5147C4 67.1069 4.01561 67.2318 4.39024 67.5908L4.76488 67.981H36H67.2351L67.6098 67.5908C67.9844 67.2318 68 67.1069 68 65.5147C68 61.0347 65.7366 57.382 61.8341 55.5557C58.6966 54.104 54.7161 54.3069 51.7971 56.0864C50.7512 56.7108 48.9561 58.3654 48.519 59.1147C48.3785 59.3489 48.2224 59.5518 48.1756 59.5518C48.1132 59.5518 47.9571 59.2864 47.801 58.9586C47.3483 58.0064 46.24 56.5703 45.2566 55.6181C42.041 52.5586 37.5298 51.2786 33.1902 52.1996ZM39.0439 55.1811C40.761 55.7118 42.041 56.5079 43.4302 57.8972C45.241 59.7235 46.1932 61.7059 46.5366 64.344L46.6459 65.1713H36H25.3541L25.4634 64.344C25.7756 61.9089 26.759 59.7703 28.32 58.1157C29.8966 56.4454 31.6449 55.4464 33.8927 54.9313C35.2039 54.6347 37.6546 54.744 39.0439 55.1811ZM16.2068 57.5381C18.3922 57.9908 20.5776 59.5986 21.6078 61.5342C22.1229 62.5176 22.5756 64.0006 22.5756 64.7342V65.1713H14.6927H6.80976V64.7342C6.80976 64.5001 6.91902 63.8913 7.0439 63.3762C8.10537 59.3176 12.1951 56.7108 16.2068 57.5381ZM59.0868 57.6006C61.8966 58.2718 64.2068 60.5508 64.9561 63.3762C65.081 63.8913 65.1902 64.5001 65.1902 64.7342V65.1713H57.3073H49.4244V64.7342C49.4244 64.5001 49.5337 63.8913 49.6585 63.3762C50.7512 59.224 54.9659 56.6328 59.0868 57.6006Z" fill="black"/>
<path d="M39.0439 55.1811C40.761 55.7118 42.041 56.5079 43.4302 57.8972C45.241 59.7235 46.1932 61.7059 46.5366 64.344L46.6459 65.1713H36H25.3541L25.4634 64.344C25.7756 61.9089 26.759 59.7703 28.32 58.1157C29.8966 56.4454 31.6449 55.4464 33.8927 54.9313C35.2039 54.6347 37.6546 54.744 39.0439 55.1811Z" fill="#FFA600"/>
</svg>
