<svg width="72" height="72" viewBox="0 0 72 72" fill="none" xmlns="http://www.w3.org/2000/svg">
<g id="academic-year">
<g id="Group 1171275247">
<g id="Group 1171275103">
<g id="Vector">
<path d="M16.7907 10.3905C16.7907 9.29831 16.7847 8.32615 16.7927 7.35398C16.8087 5.44966 18.1189 4.05342 19.9132 4.01941C21.7635 3.98541 23.1397 5.33364 23.1978 7.27197C23.2278 8.26814 23.2038 9.26631 23.2038 10.3265C31.7312 10.3265 40.2106 10.3265 48.7881 10.3265C48.7881 9.27631 48.7601 8.23213 48.7941 7.19395C48.8441 5.73771 49.6723 4.62152 50.9725 4.17944C52.1887 3.76537 53.6029 4.06542 54.3611 5.1056C54.7911 5.6957 55.0652 6.48183 55.1632 7.21396C55.2972 8.21813 55.1972 9.2523 55.1972 10.3905C56.1534 10.3905 57.0715 10.3265 57.9777 10.4065C59.1399 10.5105 60.3381 10.5825 61.4363 10.9306C65.2889 12.1528 67.8614 15.6814 67.9794 19.7141C67.9854 19.8881 67.9874 20.0641 67.9874 20.2382C67.9874 32.8863 67.9954 45.5365 67.9834 58.1846C67.9794 62.8574 65.1029 66.6261 60.7101 67.7043C59.872 67.9103 58.9818 67.9843 58.1137 67.9863C43.3652 68.0023 28.6167 68.0023 13.8682 67.9963C8.8293 67.9943 4.96264 64.7778 4.1125 59.8969C4.01048 59.3108 4.00648 58.7027 4.00648 58.1046C4.00048 45.5065 3.99648 32.9063 4.00448 20.3082C4.00848 14.5292 8.15319 10.4045 13.9402 10.3905C14.8603 10.3885 15.7805 10.3905 16.7907 10.3905ZM61.6103 29.6458C44.4814 29.6458 27.4705 29.6458 10.3756 29.6458C10.3756 29.9898 10.3756 30.2839 10.3756 30.5799C10.3756 39.6555 10.3756 48.733 10.3756 57.8086C10.3756 60.395 11.6018 61.6232 14.1882 61.6232C28.7147 61.6232 43.2432 61.6232 57.7696 61.6232C60.4021 61.6232 61.6083 60.409 61.6083 57.7606C61.6083 48.709 61.6083 39.6575 61.6083 30.6059C61.6103 30.3099 61.6103 30.0138 61.6103 29.6458ZM61.6103 23.1747C61.6103 22.2425 61.6103 21.3964 61.6103 20.5482C61.6063 18.0478 60.3721 16.8036 57.8937 16.8036C43.2972 16.8036 28.7007 16.8036 14.1042 16.8036C13.8542 16.8036 13.6041 16.7956 13.3541 16.8136C11.9998 16.9076 10.6936 17.8798 10.5296 19.198C10.3676 20.4902 10.4936 21.8184 10.4936 23.1727C27.4683 23.1747 44.461 23.1747 61.5614 23.1747C61.5777 23.1747 61.594 23.1747 61.6103 23.1747Z" fill="#0D313B"/>
<path d="M61.6103 29.6458H10.3756V30.5799V57.8086C10.3756 60.395 11.6018 61.6232 14.1882 61.6232H57.7696C60.4021 61.6232 61.6083 60.409 61.6083 57.7606V30.6059C61.6103 30.3099 61.6103 30.0138 61.6103 29.6458Z" fill="#2894B4"/>
<path d="M61.6103 23.1747V20.5482C61.6063 18.0478 60.3721 16.8036 57.8937 16.8036H14.1042C13.8542 16.8036 13.6041 16.7956 13.3541 16.8136C11.9998 16.9076 10.6936 17.8798 10.5296 19.198C10.3676 20.4902 10.4936 21.8184 10.4936 23.1727C27.4683 23.1747 44.461 23.1747 61.5614 23.1747H61.6103Z" fill="#68D4F4"/>
</g>
</g>
<g id="Group 1171274854">
<path id="Vector 357" d="M26.9813 49.6444V43.9556L23.4258 41.1112L36.9367 34.7113L49.7366 41.1112L45.47 43.9556V48.9333C45.47 49.6444 45.0433 51.3511 43.3366 52.4889C41.2033 53.9111 36.9367 53.9111 33.3812 53.9111C30.5368 53.9111 27.9294 51.0667 26.9813 49.6444Z" fill="#CDF1FB"/>
<g id="graduationcap">
<mask id="path-3-outside-1_5978_45540" maskUnits="userSpaceOnUse" x="21" y="33" width="30" height="27" fill="black">
<rect fill="white" x="21" y="33" width="30" height="27"/>
<path d="M26.0917 48.8303C26.0917 50.4504 27.0887 51.9043 28.8334 52.974V53.9709C28.2622 54.1579 27.9091 54.6564 27.9091 55.3418V58.1354C27.9091 59.0181 28.4907 59.5997 29.3734 59.5997H29.8096C30.6924 59.5997 31.2739 59.0181 31.2739 58.1354V55.3418C31.2739 54.6667 30.9312 54.1579 30.3704 53.9709V53.7321C32.0009 54.3863 34.0468 54.7706 36.3626 54.7706C42.4691 54.7706 46.6439 52.1328 46.6439 48.8303V44.1778L49.5933 42.8277C50.3306 42.485 50.7357 41.8307 50.7357 41.1245C50.7357 40.4287 50.3306 39.7641 49.5933 39.4317L39.3224 34.7377C38.1904 34.2288 37.2765 33.9899 36.3626 34.0003C35.4591 33.9899 34.5452 34.2288 33.4029 34.7377L23.1424 39.4317C22.3946 39.7641 22 40.4287 22 41.1245C22 41.8307 22.3946 42.485 23.1424 42.8277L26.0917 44.1778V48.8303ZM36.3626 46.2132C35.698 46.2132 35.0645 46.0471 34.2025 45.6421L31.4401 44.3958L35.3968 42.3188C35.7084 42.4019 36.0511 42.4538 36.4042 42.4538C37.5881 42.4538 38.7304 41.9034 38.7304 41.1245C38.7304 40.3664 37.5881 39.8264 36.4042 39.8264C35.2099 39.8264 34.0571 40.3664 34.0571 41.1245C34.0571 41.2284 34.0779 41.3218 34.1091 41.4049L29.7888 43.6377L24.9494 41.4361C24.7832 41.3634 24.7001 41.2595 24.7001 41.1245C24.7001 40.9999 24.7832 40.8857 24.9494 40.813L34.2025 36.607C35.0645 36.2124 35.698 36.0358 36.3626 36.0358C37.0273 36.0358 37.6608 36.2124 38.5331 36.607L47.7863 40.813C47.9421 40.8857 48.0251 40.9999 48.0251 41.1245C48.0251 41.2595 47.9421 41.3634 47.7863 41.4361L38.5331 45.6421C37.6608 46.0471 37.0273 46.2132 36.3626 46.2132ZM28.0961 48.8303V45.0916L28.8334 45.424V50.5231C28.3453 49.9934 28.0961 49.4222 28.0961 48.8303ZM36.3626 48.2591C37.2765 48.2695 38.1904 48.0306 39.3224 47.5114L44.6396 45.0916V48.8303C44.6396 50.9385 41.3579 52.8805 36.3626 52.8805C33.8806 52.8805 31.814 52.3924 30.3704 51.6447V46.1302L33.4029 47.5114C34.5452 48.0306 35.4591 48.2695 36.3626 48.2591Z"/>
</mask>
<path d="M26.0917 48.8303C26.0917 50.4504 27.0887 51.9043 28.8334 52.974V53.9709C28.2622 54.1579 27.9091 54.6564 27.9091 55.3418V58.1354C27.9091 59.0181 28.4907 59.5997 29.3734 59.5997H29.8096C30.6924 59.5997 31.2739 59.0181 31.2739 58.1354V55.3418C31.2739 54.6667 30.9312 54.1579 30.3704 53.9709V53.7321C32.0009 54.3863 34.0468 54.7706 36.3626 54.7706C42.4691 54.7706 46.6439 52.1328 46.6439 48.8303V44.1778L49.5933 42.8277C50.3306 42.485 50.7357 41.8307 50.7357 41.1245C50.7357 40.4287 50.3306 39.7641 49.5933 39.4317L39.3224 34.7377C38.1904 34.2288 37.2765 33.9899 36.3626 34.0003C35.4591 33.9899 34.5452 34.2288 33.4029 34.7377L23.1424 39.4317C22.3946 39.7641 22 40.4287 22 41.1245C22 41.8307 22.3946 42.485 23.1424 42.8277L26.0917 44.1778V48.8303ZM36.3626 46.2132C35.698 46.2132 35.0645 46.0471 34.2025 45.6421L31.4401 44.3958L35.3968 42.3188C35.7084 42.4019 36.0511 42.4538 36.4042 42.4538C37.5881 42.4538 38.7304 41.9034 38.7304 41.1245C38.7304 40.3664 37.5881 39.8264 36.4042 39.8264C35.2099 39.8264 34.0571 40.3664 34.0571 41.1245C34.0571 41.2284 34.0779 41.3218 34.1091 41.4049L29.7888 43.6377L24.9494 41.4361C24.7832 41.3634 24.7001 41.2595 24.7001 41.1245C24.7001 40.9999 24.7832 40.8857 24.9494 40.813L34.2025 36.607C35.0645 36.2124 35.698 36.0358 36.3626 36.0358C37.0273 36.0358 37.6608 36.2124 38.5331 36.607L47.7863 40.813C47.9421 40.8857 48.0251 40.9999 48.0251 41.1245C48.0251 41.2595 47.9421 41.3634 47.7863 41.4361L38.5331 45.6421C37.6608 46.0471 37.0273 46.2132 36.3626 46.2132ZM28.0961 48.8303V45.0916L28.8334 45.424V50.5231C28.3453 49.9934 28.0961 49.4222 28.0961 48.8303ZM36.3626 48.2591C37.2765 48.2695 38.1904 48.0306 39.3224 47.5114L44.6396 45.0916V48.8303C44.6396 50.9385 41.3579 52.8805 36.3626 52.8805C33.8806 52.8805 31.814 52.3924 30.3704 51.6447V46.1302L33.4029 47.5114C34.5452 48.0306 35.4591 48.2695 36.3626 48.2591Z" fill="#0D313B"/>
<path d="M26.0917 48.8303C26.0917 50.4504 27.0887 51.9043 28.8334 52.974V53.9709C28.2622 54.1579 27.9091 54.6564 27.9091 55.3418V58.1354C27.9091 59.0181 28.4907 59.5997 29.3734 59.5997H29.8096C30.6924 59.5997 31.2739 59.0181 31.2739 58.1354V55.3418C31.2739 54.6667 30.9312 54.1579 30.3704 53.9709V53.7321C32.0009 54.3863 34.0468 54.7706 36.3626 54.7706C42.4691 54.7706 46.6439 52.1328 46.6439 48.8303V44.1778L49.5933 42.8277C50.3306 42.485 50.7357 41.8307 50.7357 41.1245C50.7357 40.4287 50.3306 39.7641 49.5933 39.4317L39.3224 34.7377C38.1904 34.2288 37.2765 33.9899 36.3626 34.0003C35.4591 33.9899 34.5452 34.2288 33.4029 34.7377L23.1424 39.4317C22.3946 39.7641 22 40.4287 22 41.1245C22 41.8307 22.3946 42.485 23.1424 42.8277L26.0917 44.1778V48.8303ZM36.3626 46.2132C35.698 46.2132 35.0645 46.0471 34.2025 45.6421L31.4401 44.3958L35.3968 42.3188C35.7084 42.4019 36.0511 42.4538 36.4042 42.4538C37.5881 42.4538 38.7304 41.9034 38.7304 41.1245C38.7304 40.3664 37.5881 39.8264 36.4042 39.8264C35.2099 39.8264 34.0571 40.3664 34.0571 41.1245C34.0571 41.2284 34.0779 41.3218 34.1091 41.4049L29.7888 43.6377L24.9494 41.4361C24.7832 41.3634 24.7001 41.2595 24.7001 41.1245C24.7001 40.9999 24.7832 40.8857 24.9494 40.813L34.2025 36.607C35.0645 36.2124 35.698 36.0358 36.3626 36.0358C37.0273 36.0358 37.6608 36.2124 38.5331 36.607L47.7863 40.813C47.9421 40.8857 48.0251 40.9999 48.0251 41.1245C48.0251 41.2595 47.9421 41.3634 47.7863 41.4361L38.5331 45.6421C37.6608 46.0471 37.0273 46.2132 36.3626 46.2132ZM28.0961 48.8303V45.0916L28.8334 45.424V50.5231C28.3453 49.9934 28.0961 49.4222 28.0961 48.8303ZM36.3626 48.2591C37.2765 48.2695 38.1904 48.0306 39.3224 47.5114L44.6396 45.0916V48.8303C44.6396 50.9385 41.3579 52.8805 36.3626 52.8805C33.8806 52.8805 31.814 52.3924 30.3704 51.6447V46.1302L33.4029 47.5114C34.5452 48.0306 35.4591 48.2695 36.3626 48.2591Z" stroke="#0D313B" stroke-width="0.308571" mask="url(#path-3-outside-1_5978_45540)"/>
</g>
</g>
</g>
</g>
</svg>
