<svg width="72" height="72" viewBox="0 0 72 72" fill="none" xmlns="http://www.w3.org/2000/svg">
<g id="admission-register">
<path id="Vector 703" d="M36 7H20L15 14H42L36 7Z" fill="#CBEDDF"/>
<g id="Group 1171275141">
<path id="Subtract" fill-rule="evenodd" clip-rule="evenodd" d="M15.2967 21.5H6V66H41.1209L41.143 65.9716C40.4127 64.5769 40.0008 62.9972 40.0008 61.3238C40.0008 59.051 40.7606 56.9511 42.0462 55.2526L12.1978 54.5456L14.7802 48L15.2967 42.8387V33.7756H12.7143L14.7802 27.7335L15.2967 21.5Z" fill="#22885E"/>
<path id="Subtract_2" fill-rule="evenodd" clip-rule="evenodd" d="M14.2637 11H6V22.5806L19.9451 23.0841V28.1192L21.4945 32L13.2308 35.1683L14.7802 43.7279L19.4286 44.7349L19.9451 49.2665L21.4945 51.2805L22.5275 56.3155H41.2743C43.0543 53.1308 46.5187 50.9698 50.5008 50.9698C50.8272 50.9698 51.1501 50.9843 51.4689 51.0127L53 28.6227L51.4506 11H43.1868L41.1209 13.5175H28.7253H16.8462L14.2637 11Z" fill="#22885E"/>
<g id="Group 1171275137">
<g id="Group 1171275100">
<g id="Group">
<g id="Vector">
<mask id="path-4-outside-1_5978_45431" maskUnits="userSpaceOnUse" x="11" y="21" width="12" height="14" fill="black">
<rect fill="white" x="11" y="21" width="12" height="14"/>
<path d="M20.5325 33.8237H13.4662C13.4454 33.8162 13.4252 33.805 13.4035 33.8015C12.6461 33.684 12.0529 33.0487 12.0073 32.2855C11.9729 31.7113 12.0613 31.1484 12.2457 30.6058C12.6877 29.3048 13.5196 28.3323 14.7415 27.6987C14.8257 27.6551 14.9115 27.615 15.0004 27.5743C15.0951 27.531 15.1135 27.4063 15.0379 27.3347C15.0373 27.3341 15.0368 27.3338 15.0365 27.3333C14.9196 27.2218 14.794 27.117 14.693 26.9923C14.0253 26.1694 13.797 25.2373 14.0888 24.2146C14.3971 23.1344 15.117 22.4365 16.1937 22.1155C16.3756 22.0612 16.5672 22.0387 16.7546 22.0026C16.7635 22.0009 16.7728 22 16.7817 22H17.2147C17.2248 22 17.2346 22.0009 17.2444 22.0029C17.2767 22.0095 17.3091 22.0173 17.3417 22.0214C18.1543 22.1215 18.8292 22.4844 19.3438 23.1171C20.4093 24.4268 20.2124 26.2981 18.9085 27.3777C18.8707 27.4089 18.8338 27.4406 18.7957 27.4727C18.8078 27.486 18.8115 27.4929 18.8173 27.4955C18.8802 27.5238 18.9437 27.5512 19.007 27.5792C20.0277 28.0341 20.8134 28.7488 21.3627 29.7213C21.7694 30.4412 21.9672 31.2171 21.9986 32.0433C22.0252 32.7407 21.667 33.3729 21.0319 33.6635C20.8746 33.7363 20.6997 33.7715 20.5325 33.8237ZM16.9993 32.9162C18.0844 32.9162 19.1695 32.9113 20.2543 32.9182C20.8108 32.9217 21.1358 32.508 21.0856 32.0623C21.0521 31.765 21.0333 31.4631 20.9635 31.1739C20.7381 30.2395 20.23 29.4826 19.4662 28.8992C18.9082 28.4732 18.2813 28.2096 17.585 28.1106C16.7999 27.9992 16.0439 28.1005 15.322 28.4276C14.5007 28.7999 13.8677 29.3839 13.426 30.1685C13.0759 30.7905 12.9062 31.4631 12.9105 32.1778C12.9117 32.3452 12.9691 32.4936 13.0727 32.6244C13.2445 32.8417 13.4771 32.9165 13.7441 32.9165C14.8295 32.9156 15.9146 32.9162 16.9993 32.9162ZM16.9962 22.909C15.8262 22.9156 14.8731 23.8717 14.8766 25.035C14.88 26.2072 15.8438 27.1618 17.0141 27.1517C18.1791 27.1416 19.125 26.189 19.1221 25.0286C19.119 23.863 18.1554 22.9023 16.9962 22.909Z"/>
<path d="M16.9993 32.9162C18.0844 32.9162 19.1695 32.9113 20.2543 32.9182C20.8108 32.9217 21.1358 32.508 21.0856 32.0623C21.0521 31.765 21.0333 31.4631 20.9635 31.1739C20.7381 30.2395 20.23 29.4826 19.4662 28.8992C18.9082 28.4732 18.2813 28.2096 17.585 28.1106C16.7999 27.9992 16.0439 28.1005 15.322 28.4276C14.5007 28.7999 13.8677 29.3839 13.426 30.1685C13.0759 30.7905 12.9062 31.4631 12.9105 32.1778C12.9117 32.3452 12.9691 32.4936 13.0727 32.6244C13.2445 32.8417 13.4771 32.9165 13.7441 32.9165C14.8295 32.9156 15.9146 32.9162 16.9993 32.9162Z"/>
<path d="M16.9962 22.909C15.8262 22.9156 14.8731 23.8717 14.8766 25.035C14.88 26.2072 15.8438 27.1618 17.0141 27.1517C18.1791 27.1416 19.125 26.189 19.1221 25.0286C19.119 23.863 18.1554 22.9023 16.9962 22.909Z"/>
</mask>
<path d="M20.5325 33.8237H13.4662C13.4454 33.8162 13.4252 33.805 13.4035 33.8015C12.6461 33.684 12.0529 33.0487 12.0073 32.2855C11.9729 31.7113 12.0613 31.1484 12.2457 30.6058C12.6877 29.3048 13.5196 28.3323 14.7415 27.6987C14.8257 27.6551 14.9115 27.615 15.0004 27.5743C15.0951 27.531 15.1135 27.4063 15.0379 27.3347C15.0373 27.3341 15.0368 27.3338 15.0365 27.3333C14.9196 27.2218 14.794 27.117 14.693 26.9923C14.0253 26.1694 13.797 25.2373 14.0888 24.2146C14.3971 23.1344 15.117 22.4365 16.1937 22.1155C16.3756 22.0612 16.5672 22.0387 16.7546 22.0026C16.7635 22.0009 16.7728 22 16.7817 22H17.2147C17.2248 22 17.2346 22.0009 17.2444 22.0029C17.2767 22.0095 17.3091 22.0173 17.3417 22.0214C18.1543 22.1215 18.8292 22.4844 19.3438 23.1171C20.4093 24.4268 20.2124 26.2981 18.9085 27.3777C18.8707 27.4089 18.8338 27.4406 18.7957 27.4727C18.8078 27.486 18.8115 27.4929 18.8173 27.4955C18.8802 27.5238 18.9437 27.5512 19.007 27.5792C20.0277 28.0341 20.8134 28.7488 21.3627 29.7213C21.7694 30.4412 21.9672 31.2171 21.9986 32.0433C22.0252 32.7407 21.667 33.3729 21.0319 33.6635C20.8746 33.7363 20.6997 33.7715 20.5325 33.8237ZM16.9993 32.9162C18.0844 32.9162 19.1695 32.9113 20.2543 32.9182C20.8108 32.9217 21.1358 32.508 21.0856 32.0623C21.0521 31.765 21.0333 31.4631 20.9635 31.1739C20.7381 30.2395 20.23 29.4826 19.4662 28.8992C18.9082 28.4732 18.2813 28.2096 17.585 28.1106C16.7999 27.9992 16.0439 28.1005 15.322 28.4276C14.5007 28.7999 13.8677 29.3839 13.426 30.1685C13.0759 30.7905 12.9062 31.4631 12.9105 32.1778C12.9117 32.3452 12.9691 32.4936 13.0727 32.6244C13.2445 32.8417 13.4771 32.9165 13.7441 32.9165C14.8295 32.9156 15.9146 32.9162 16.9993 32.9162ZM16.9962 22.909C15.8262 22.9156 14.8731 23.8717 14.8766 25.035C14.88 26.2072 15.8438 27.1618 17.0141 27.1517C18.1791 27.1416 19.125 26.189 19.1221 25.0286C19.119 23.863 18.1554 22.9023 16.9962 22.909Z" fill="#0B2D1F"/>
<path d="M16.9993 32.9162C18.0844 32.9162 19.1695 32.9113 20.2543 32.9182C20.8108 32.9217 21.1358 32.508 21.0856 32.0623C21.0521 31.765 21.0333 31.4631 20.9635 31.1739C20.7381 30.2395 20.23 29.4826 19.4662 28.8992C18.9082 28.4732 18.2813 28.2096 17.585 28.1106C16.7999 27.9992 16.0439 28.1005 15.322 28.4276C14.5007 28.7999 13.8677 29.3839 13.426 30.1685C13.0759 30.7905 12.9062 31.4631 12.9105 32.1778C12.9117 32.3452 12.9691 32.4936 13.0727 32.6244C13.2445 32.8417 13.4771 32.9165 13.7441 32.9165C14.8295 32.9156 15.9146 32.9162 16.9993 32.9162Z" fill="#62C89E"/>
<path d="M16.9962 22.909C15.8262 22.9156 14.8731 23.8717 14.8766 25.035C14.88 26.2072 15.8438 27.1618 17.0141 27.1517C18.1791 27.1416 19.125 26.189 19.1221 25.0286C19.119 23.863 18.1554 22.9023 16.9962 22.909Z" fill="#CBEDDF"/>
<path d="M20.2543 32.9182L20.2525 33.196L20.2525 33.196L20.2543 32.9182ZM21.0856 32.0623L20.8096 32.0934L20.8096 32.0934L21.0856 32.0623ZM20.9635 31.1739L20.6935 31.239L20.6935 31.2391L20.9635 31.1739ZM19.4662 28.8992L19.6348 28.6785L19.6348 28.6784L19.4662 28.8992ZM17.585 28.1106L17.6241 27.8356L17.6241 27.8356L17.585 28.1106ZM15.322 28.4276L15.2073 28.1745L15.2072 28.1746L15.322 28.4276ZM13.426 30.1685L13.184 30.0322L13.184 30.0322L13.426 30.1685ZM12.9105 32.1778L12.6327 32.1795L12.6327 32.1797L12.9105 32.1778ZM13.0727 32.6244L13.2907 32.4521L13.2904 32.4518L13.0727 32.6244ZM13.7441 32.9165L13.7441 33.1943L13.7444 33.1943L13.7441 32.9165ZM16.9962 22.909L16.9977 23.1868L16.9978 23.1868L16.9962 22.909ZM14.8766 25.035L15.1543 25.0341L15.1543 25.0341L14.8766 25.035ZM17.0141 27.1517L17.0165 27.4295L17.0165 27.4295L17.0141 27.1517ZM19.1221 25.0286L19.3999 25.0279L19.3999 25.0278L19.1221 25.0286ZM16.9993 33.194C18.0861 33.194 19.1689 33.1891 20.2525 33.196L20.256 32.6404C19.1701 32.6335 18.0827 32.6384 16.9993 32.6384V33.194ZM20.2525 33.196C20.9719 33.2005 21.4309 32.6458 21.3616 32.0312L20.8096 32.0934C20.8408 32.3702 20.6497 32.6429 20.256 32.6404L20.2525 33.196ZM21.3616 32.0313C21.3303 31.7529 21.3088 31.4203 21.2335 31.1086L20.6935 31.2391C20.7579 31.5059 20.7739 31.7772 20.8096 32.0934L21.3616 32.0313ZM21.2335 31.1087C20.9925 30.1098 20.4471 29.2989 19.6348 28.6785L19.2976 29.12C20.0129 29.6663 20.4836 30.3691 20.6935 31.239L21.2335 31.1087ZM19.6348 28.6784C19.0392 28.2236 18.3677 27.9413 17.6241 27.8356L17.5459 28.3856C18.1949 28.4779 18.7773 28.7227 19.2976 29.12L19.6348 28.6784ZM17.6241 27.8356C16.7884 27.717 15.9789 27.825 15.2073 28.1745L15.4366 28.6806C16.1088 28.376 16.8114 28.2814 17.546 28.3856L17.6241 27.8356ZM15.2072 28.1746C14.3317 28.5716 13.6543 29.1967 13.184 30.0322L13.6681 30.3047C14.0811 29.5711 14.6697 29.0283 15.4367 28.6805L15.2072 28.1746ZM13.184 30.0322C12.8096 30.6974 12.6281 31.4177 12.6327 32.1795L13.1883 32.1761C13.1842 31.5085 13.3422 30.8836 13.6681 30.3047L13.184 30.0322ZM12.6327 32.1797C12.6344 32.4149 12.7167 32.6223 12.855 32.7969L13.2904 32.4518C13.2215 32.3649 13.189 32.2755 13.1883 32.1759L12.6327 32.1797ZM12.8548 32.7966C13.0948 33.1003 13.4209 33.1943 13.7441 33.1943V32.6387C13.5333 32.6387 13.3942 32.5831 13.2907 32.4521L12.8548 32.7966ZM13.7444 33.1943C14.8296 33.1934 15.9144 33.194 16.9993 33.194V32.6384C15.9148 32.6384 14.8294 32.6378 13.7439 32.6387L13.7444 33.1943ZM16.9946 22.6312C15.673 22.6387 14.5949 23.7179 14.5988 25.0358L15.1543 25.0341C15.1513 24.0254 15.9795 23.1925 16.9977 23.1868L16.9946 22.6312ZM14.5988 25.0358C14.6027 26.3616 15.6917 27.4409 17.0165 27.4295L17.0117 26.8739C15.996 26.8827 15.1573 26.0528 15.1543 25.0341L14.5988 25.0358ZM17.0165 27.4295C18.3332 27.418 19.4032 26.3421 19.3999 25.0279L18.8444 25.0293C18.8469 26.0359 18.025 26.8651 17.0117 26.8739L17.0165 27.4295ZM19.3999 25.0278C19.3963 23.7099 18.309 22.6237 16.9946 22.6312L16.9978 23.1868C18.0018 23.181 18.8416 24.0161 18.8444 25.0294L19.3999 25.0278ZM20.5325 33.8237V34.3793H20.6173L20.6983 34.354L20.5325 33.8237ZM13.4662 33.8237L13.2775 34.3463L13.3689 34.3793H13.4662V33.8237ZM13.4035 33.8015L13.4913 33.2529L13.4887 33.2525L13.4035 33.8015ZM12.0073 32.2855L12.5619 32.2523L12.5619 32.2523L12.0073 32.2855ZM12.2457 30.6058L12.7717 30.7846L12.7718 30.7845L12.2457 30.6058ZM14.7415 27.6987L14.4863 27.2052L14.4857 27.2055L14.7415 27.6987ZM15.0004 27.5743L14.7693 27.0691L14.7691 27.0691L15.0004 27.5743ZM15.0379 27.3347L14.6451 27.7275L14.6505 27.7329L14.656 27.7382L15.0379 27.3347ZM15.0365 27.3333L15.5334 27.0848L15.49 26.998L15.4198 26.9311L15.0365 27.3333ZM14.693 26.9923L15.1246 26.6426L15.1244 26.6423L14.693 26.9923ZM14.0888 24.2146L13.5546 24.0621L13.5546 24.0621L14.0888 24.2146ZM16.1937 22.1155L16.3524 22.6479L16.3526 22.6478L16.1937 22.1155ZM16.7546 22.0026L16.8596 22.5481L16.8601 22.548L16.7546 22.0026ZM17.2444 22.0029L17.1324 22.547L17.1327 22.5471L17.2444 22.0029ZM17.3417 22.0214L17.2734 22.5727L17.2737 22.5727L17.3417 22.0214ZM19.3438 23.1171L18.9128 23.4677L18.9129 23.4677L19.3438 23.1171ZM18.9085 27.3777L19.2619 27.8064L19.2628 27.8056L18.9085 27.3777ZM18.7957 27.4727L18.4381 27.0475L17.9952 27.4199L18.3854 27.8473L18.7957 27.4727ZM18.8173 27.4955L18.5893 28.0021L18.5895 28.0022L18.8173 27.4955ZM19.007 27.5792L19.2331 27.0718L19.232 27.0712L19.007 27.5792ZM21.3627 29.7213L20.879 29.9946L20.879 29.9946L21.3627 29.7213ZM21.9986 32.0433L22.5538 32.0222L22.5538 32.0221L21.9986 32.0433ZM21.0319 33.6635L20.8007 33.1584L20.7987 33.1593L21.0319 33.6635ZM20.5325 33.2682H13.4662V34.3793H20.5325V33.2682ZM13.6549 33.3012C13.6634 33.3043 13.6687 33.3066 13.6658 33.3054C13.6626 33.304 13.6646 33.3048 13.6587 33.3024C13.6551 33.3009 13.6497 33.2986 13.6434 33.296C13.6213 33.2871 13.5647 33.2647 13.4913 33.2529L13.3158 34.3501C13.2884 34.3457 13.2667 34.3397 13.2525 34.3352C13.2385 34.3308 13.229 34.327 13.227 34.3262C13.2259 34.3257 13.2256 34.3256 13.2272 34.3263C13.228 34.3266 13.2288 34.327 13.2303 34.3276C13.2317 34.3282 13.2335 34.329 13.2356 34.3298C13.2429 34.3329 13.2586 34.3394 13.2775 34.3463L13.6549 33.3012ZM13.4887 33.2525C12.982 33.1739 12.5914 32.747 12.5619 32.2523L11.4527 32.3186C11.5144 33.3504 12.3101 34.1941 13.3184 34.3505L13.4887 33.2525ZM12.5619 32.2523C12.5323 31.7579 12.6077 31.267 12.7717 30.7846L11.7197 30.427C11.5148 31.0299 11.4136 31.6648 11.4527 32.3187L12.5619 32.2523ZM12.7718 30.7845C13.1678 29.6185 13.9033 28.7591 14.9972 28.1919L14.4857 27.2055C13.1358 27.9055 12.2075 28.991 11.7197 30.4271L12.7718 30.7845ZM14.9966 28.1922C15.0687 28.1549 15.1446 28.1193 15.2316 28.0794L14.7691 27.0691C14.6783 27.1107 14.5828 27.1553 14.4863 27.2052L14.9966 28.1922ZM15.2314 28.0795C15.6987 27.8658 15.7699 27.2626 15.4198 26.9312L14.656 27.7382C14.4572 27.55 14.4915 27.1961 14.7693 27.0691L15.2314 28.0795ZM15.4308 26.9419C15.4144 26.9255 15.4006 26.9137 15.3944 26.9086C15.3919 26.9064 15.3891 26.9042 15.3903 26.9052C15.3905 26.9053 15.3941 26.9083 15.3985 26.9121C15.414 26.9253 15.4828 26.9836 15.5334 27.0848L14.5396 27.5817C14.5904 27.6834 14.6597 27.7422 14.6756 27.7559C14.6802 27.7598 14.6839 27.7629 14.6842 27.7631C14.6856 27.7642 14.683 27.7621 14.6806 27.76C14.6747 27.7551 14.6611 27.7436 14.6451 27.7275L15.4308 26.9419ZM15.4198 26.9311C15.2667 26.7852 15.1957 26.7303 15.1246 26.6426L14.2613 27.3421C14.3923 27.5038 14.5724 27.6584 14.6532 27.7354L15.4198 26.9311ZM15.1244 26.6423C14.5607 25.9476 14.3852 25.2006 14.623 24.367L13.5546 24.0621C13.2088 25.274 13.4899 26.3912 14.2615 27.3424L15.1244 26.6423ZM14.623 24.3671C14.8768 23.478 15.4487 22.9173 16.3524 22.6479L16.035 21.5831C14.7853 21.9556 13.9174 22.7908 13.5546 24.0621L14.623 24.3671ZM16.3526 22.6478C16.5001 22.6038 16.617 22.5949 16.8596 22.5481L16.6495 21.4571C16.5174 21.4825 16.251 21.5186 16.0348 21.5831L16.3526 22.6478ZM16.8601 22.548C16.8338 22.5531 16.8077 22.5556 16.7817 22.5556V21.4444C16.7378 21.4444 16.6932 21.4486 16.649 21.4572L16.8601 22.548ZM16.7817 22.5556H17.2147V21.4444H16.7817V22.5556ZM17.2147 22.5556C17.1925 22.5556 17.1643 22.5536 17.1324 22.547L17.3564 21.4587C17.3049 21.4481 17.2571 21.4444 17.2147 21.4444V22.5556ZM17.1327 22.5471C17.1399 22.5486 17.2117 22.5651 17.2734 22.5727L17.41 21.47C17.4138 21.4705 17.4132 21.4706 17.4033 21.4686C17.3984 21.4676 17.3929 21.4665 17.3847 21.4647C17.3774 21.4631 17.3669 21.4609 17.3562 21.4587L17.1327 22.5471ZM17.2737 22.5727C17.949 22.656 18.4919 22.9502 18.9128 23.4677L19.7748 22.7665C19.1664 22.0186 18.3595 21.5871 17.4097 21.47L17.2737 22.5727ZM18.9129 23.4677C19.7829 24.5371 19.6269 26.0616 18.5542 26.9498L19.2628 27.8056C20.7979 26.5346 21.0357 24.3164 19.7748 22.7665L18.9129 23.4677ZM18.5551 26.949C18.515 26.9821 18.4697 27.0209 18.4381 27.0475L19.1532 27.8979C19.1978 27.8603 19.2264 27.8357 19.2619 27.8064L18.5551 26.949ZM18.3854 27.8473C18.3844 27.8461 18.366 27.8249 18.3865 27.849C18.392 27.8554 18.4121 27.879 18.4408 27.9049C18.4727 27.9338 18.5218 27.9717 18.5893 28.0021L19.0453 26.9889C19.1099 27.0179 19.1564 27.054 19.1856 27.0804C19.2116 27.1039 19.229 27.1245 19.2313 27.1272C19.2333 27.1296 19.2347 27.1313 19.2337 27.1301C19.2334 27.1297 19.2312 27.127 19.2288 27.1243C19.2235 27.1179 19.2157 27.1088 19.2059 27.0981L18.3854 27.8473ZM18.5895 28.0022C18.653 28.0307 18.7264 28.0625 18.782 28.0871L19.232 27.0712C19.1611 27.0398 19.1075 27.0168 19.0451 26.9888L18.5895 28.0022ZM18.7808 28.0866C19.6927 28.4931 20.3882 29.1257 20.879 29.9946L21.8464 29.4481C21.2386 28.372 20.3626 27.5751 19.2331 27.0718L18.7808 28.0866ZM20.879 29.9946C21.2373 30.6288 21.415 31.3164 21.4435 32.0644L22.5538 32.0221C22.5193 31.1179 22.3016 30.2537 21.8464 29.4481L20.879 29.9946ZM21.4435 32.0644C21.4622 32.5551 21.2152 32.9687 20.8007 33.1584L21.2631 34.1687C22.1187 33.777 22.5882 32.9263 22.5538 32.0222L21.4435 32.0644ZM20.7987 33.1593C20.683 33.2128 20.6119 33.2169 20.3668 33.2935L20.6983 34.354C20.7874 34.3261 21.0662 34.2597 21.2651 34.1678L20.7987 33.1593Z" fill="#0B2D1F" mask="url(#path-4-outside-1_5978_45431)"/>
</g>
</g>
</g>
<g id="Group 1171275101">
<g id="Group_2">
<g id="Vector_2">
<mask id="path-6-outside-2_5978_45431" maskUnits="userSpaceOnUse" x="11" y="42" width="12" height="14" fill="black">
<rect fill="white" x="11" y="42" width="12" height="14"/>
<path d="M20.5325 54.8237H13.4662C13.4454 54.8162 13.4252 54.805 13.4035 54.8015C12.6461 54.684 12.0529 54.0487 12.0073 53.2855C11.9729 52.7113 12.0613 52.1484 12.2457 51.6058C12.6877 50.3048 13.5196 49.3323 14.7415 48.6987C14.8257 48.6551 14.9115 48.615 15.0004 48.5743C15.0951 48.531 15.1135 48.4063 15.0379 48.3347C15.0373 48.3341 15.0368 48.3338 15.0365 48.3333C14.9196 48.2218 14.794 48.117 14.693 47.9923C14.0253 47.1694 13.797 46.2373 14.0888 45.2146C14.3971 44.1344 15.117 43.4365 16.1937 43.1155C16.3756 43.0612 16.5672 43.0387 16.7546 43.0026C16.7635 43.0009 16.7728 43 16.7817 43H17.2147C17.2248 43 17.2346 43.0009 17.2444 43.0029C17.2767 43.0095 17.3091 43.0173 17.3417 43.0214C18.1543 43.1215 18.8292 43.4844 19.3438 44.1171C20.4093 45.4268 20.2124 47.2981 18.9085 48.3777C18.8707 48.4089 18.8338 48.4406 18.7957 48.4727C18.8078 48.486 18.8115 48.4929 18.8173 48.4955C18.8802 48.5238 18.9437 48.5512 19.007 48.5792C20.0277 49.0341 20.8134 49.7488 21.3627 50.7213C21.7694 51.4412 21.9672 52.2171 21.9986 53.0433C22.0252 53.7407 21.667 54.3729 21.0319 54.6635C20.8746 54.7363 20.6997 54.7715 20.5325 54.8237ZM16.9993 53.9162C18.0844 53.9162 19.1695 53.9113 20.2543 53.9182C20.8108 53.9217 21.1358 53.508 21.0856 53.0623C21.0521 52.765 21.0333 52.4631 20.9635 52.1739C20.7381 51.2395 20.23 50.4826 19.4662 49.8992C18.9082 49.4732 18.2813 49.2096 17.585 49.1106C16.7999 48.9992 16.0439 49.1005 15.322 49.4276C14.5007 49.7999 13.8677 50.3839 13.426 51.1685C13.0759 51.7905 12.9062 52.4631 12.9105 53.1778C12.9117 53.3452 12.9691 53.4936 13.0727 53.6244C13.2445 53.8417 13.4771 53.9165 13.7441 53.9165C14.8295 53.9156 15.9146 53.9162 16.9993 53.9162ZM16.9962 43.909C15.8262 43.9156 14.8731 44.8717 14.8766 46.035C14.88 47.2072 15.8438 48.1618 17.0141 48.1517C18.1791 48.1416 19.125 47.189 19.1221 46.0286C19.119 44.863 18.1554 43.9023 16.9962 43.909Z"/>
<path d="M16.9993 53.9162C18.0844 53.9162 19.1695 53.9113 20.2543 53.9182C20.8108 53.9217 21.1358 53.508 21.0856 53.0623C21.0521 52.765 21.0333 52.4631 20.9635 52.1739C20.7381 51.2395 20.23 50.4826 19.4662 49.8992C18.9082 49.4732 18.2813 49.2096 17.585 49.1106C16.7999 48.9992 16.0439 49.1005 15.322 49.4276C14.5007 49.7999 13.8677 50.3839 13.426 51.1685C13.0759 51.7905 12.9062 52.4631 12.9105 53.1778C12.9117 53.3452 12.9691 53.4936 13.0727 53.6244C13.2445 53.8417 13.4771 53.9165 13.7441 53.9165C14.8295 53.9156 15.9146 53.9162 16.9993 53.9162Z"/>
<path d="M16.9962 43.909C15.8262 43.9156 14.8731 44.8717 14.8766 46.035C14.88 47.2072 15.8438 48.1618 17.0141 48.1517C18.1791 48.1416 19.125 47.189 19.1221 46.0286C19.119 44.863 18.1554 43.9023 16.9962 43.909Z"/>
</mask>
<path d="M20.5325 54.8237H13.4662C13.4454 54.8162 13.4252 54.805 13.4035 54.8015C12.6461 54.684 12.0529 54.0487 12.0073 53.2855C11.9729 52.7113 12.0613 52.1484 12.2457 51.6058C12.6877 50.3048 13.5196 49.3323 14.7415 48.6987C14.8257 48.6551 14.9115 48.615 15.0004 48.5743C15.0951 48.531 15.1135 48.4063 15.0379 48.3347C15.0373 48.3341 15.0368 48.3338 15.0365 48.3333C14.9196 48.2218 14.794 48.117 14.693 47.9923C14.0253 47.1694 13.797 46.2373 14.0888 45.2146C14.3971 44.1344 15.117 43.4365 16.1937 43.1155C16.3756 43.0612 16.5672 43.0387 16.7546 43.0026C16.7635 43.0009 16.7728 43 16.7817 43H17.2147C17.2248 43 17.2346 43.0009 17.2444 43.0029C17.2767 43.0095 17.3091 43.0173 17.3417 43.0214C18.1543 43.1215 18.8292 43.4844 19.3438 44.1171C20.4093 45.4268 20.2124 47.2981 18.9085 48.3777C18.8707 48.4089 18.8338 48.4406 18.7957 48.4727C18.8078 48.486 18.8115 48.4929 18.8173 48.4955C18.8802 48.5238 18.9437 48.5512 19.007 48.5792C20.0277 49.0341 20.8134 49.7488 21.3627 50.7213C21.7694 51.4412 21.9672 52.2171 21.9986 53.0433C22.0252 53.7407 21.667 54.3729 21.0319 54.6635C20.8746 54.7363 20.6997 54.7715 20.5325 54.8237ZM16.9993 53.9162C18.0844 53.9162 19.1695 53.9113 20.2543 53.9182C20.8108 53.9217 21.1358 53.508 21.0856 53.0623C21.0521 52.765 21.0333 52.4631 20.9635 52.1739C20.7381 51.2395 20.23 50.4826 19.4662 49.8992C18.9082 49.4732 18.2813 49.2096 17.585 49.1106C16.7999 48.9992 16.0439 49.1005 15.322 49.4276C14.5007 49.7999 13.8677 50.3839 13.426 51.1685C13.0759 51.7905 12.9062 52.4631 12.9105 53.1778C12.9117 53.3452 12.9691 53.4936 13.0727 53.6244C13.2445 53.8417 13.4771 53.9165 13.7441 53.9165C14.8295 53.9156 15.9146 53.9162 16.9993 53.9162ZM16.9962 43.909C15.8262 43.9156 14.8731 44.8717 14.8766 46.035C14.88 47.2072 15.8438 48.1618 17.0141 48.1517C18.1791 48.1416 19.125 47.189 19.1221 46.0286C19.119 44.863 18.1554 43.9023 16.9962 43.909Z" fill="#0B2D1F"/>
<path d="M16.9993 53.9162C18.0844 53.9162 19.1695 53.9113 20.2543 53.9182C20.8108 53.9217 21.1358 53.508 21.0856 53.0623C21.0521 52.765 21.0333 52.4631 20.9635 52.1739C20.7381 51.2395 20.23 50.4826 19.4662 49.8992C18.9082 49.4732 18.2813 49.2096 17.585 49.1106C16.7999 48.9992 16.0439 49.1005 15.322 49.4276C14.5007 49.7999 13.8677 50.3839 13.426 51.1685C13.0759 51.7905 12.9062 52.4631 12.9105 53.1778C12.9117 53.3452 12.9691 53.4936 13.0727 53.6244C13.2445 53.8417 13.4771 53.9165 13.7441 53.9165C14.8295 53.9156 15.9146 53.9162 16.9993 53.9162Z" fill="#62C89E"/>
<path d="M16.9962 43.909C15.8262 43.9156 14.8731 44.8717 14.8766 46.035C14.88 47.2072 15.8438 48.1618 17.0141 48.1517C18.1791 48.1416 19.125 47.189 19.1221 46.0286C19.119 44.863 18.1554 43.9023 16.9962 43.909Z" fill="#CBEDDF"/>
<path d="M20.2543 53.9182L20.2525 54.196L20.2525 54.196L20.2543 53.9182ZM21.0856 53.0623L20.8096 53.0934L20.8096 53.0934L21.0856 53.0623ZM20.9635 52.1739L20.6935 52.239L20.6935 52.2391L20.9635 52.1739ZM19.4662 49.8992L19.6348 49.6785L19.6348 49.6784L19.4662 49.8992ZM17.585 49.1106L17.6241 48.8356L17.6241 48.8356L17.585 49.1106ZM15.322 49.4276L15.2073 49.1745L15.2072 49.1746L15.322 49.4276ZM13.426 51.1685L13.184 51.0322L13.184 51.0322L13.426 51.1685ZM12.9105 53.1778L12.6327 53.1795L12.6327 53.1797L12.9105 53.1778ZM13.0727 53.6244L13.2907 53.4521L13.2904 53.4518L13.0727 53.6244ZM13.7441 53.9165L13.7441 54.1943L13.7444 54.1943L13.7441 53.9165ZM16.9962 43.909L16.9977 44.1868L16.9978 44.1868L16.9962 43.909ZM14.8766 46.035L15.1543 46.0341L15.1543 46.0341L14.8766 46.035ZM17.0141 48.1517L17.0165 48.4295L17.0165 48.4295L17.0141 48.1517ZM19.1221 46.0286L19.3999 46.0279L19.3999 46.0278L19.1221 46.0286ZM16.9993 54.194C18.0861 54.194 19.1689 54.1891 20.2525 54.196L20.256 53.6404C19.1701 53.6335 18.0827 53.6384 16.9993 53.6384V54.194ZM20.2525 54.196C20.9719 54.2005 21.4309 53.6458 21.3616 53.0312L20.8096 53.0934C20.8408 53.3702 20.6497 53.6429 20.256 53.6404L20.2525 54.196ZM21.3616 53.0313C21.3303 52.7529 21.3088 52.4203 21.2335 52.1086L20.6935 52.2391C20.7579 52.5059 20.7739 52.7772 20.8096 53.0934L21.3616 53.0313ZM21.2335 52.1087C20.9925 51.1098 20.4471 50.2989 19.6348 49.6785L19.2976 50.12C20.0129 50.6663 20.4836 51.3691 20.6935 52.239L21.2335 52.1087ZM19.6348 49.6784C19.0392 49.2236 18.3677 48.9413 17.6241 48.8356L17.5459 49.3856C18.1949 49.4779 18.7773 49.7227 19.2976 50.12L19.6348 49.6784ZM17.6241 48.8356C16.7884 48.717 15.9789 48.825 15.2073 49.1745L15.4366 49.6806C16.1088 49.376 16.8114 49.2814 17.546 49.3856L17.6241 48.8356ZM15.2072 49.1746C14.3317 49.5716 13.6543 50.1967 13.184 51.0322L13.6681 51.3047C14.0811 50.5711 14.6697 50.0283 15.4367 49.6805L15.2072 49.1746ZM13.184 51.0322C12.8096 51.6974 12.6281 52.4177 12.6327 53.1795L13.1883 53.1761C13.1842 52.5085 13.3422 51.8836 13.6681 51.3047L13.184 51.0322ZM12.6327 53.1797C12.6344 53.4149 12.7167 53.6223 12.855 53.7969L13.2904 53.4518C13.2215 53.3649 13.189 53.2755 13.1883 53.1759L12.6327 53.1797ZM12.8548 53.7966C13.0948 54.1003 13.4209 54.1943 13.7441 54.1943V53.6387C13.5333 53.6387 13.3942 53.5831 13.2907 53.4521L12.8548 53.7966ZM13.7444 54.1943C14.8296 54.1934 15.9144 54.194 16.9993 54.194V53.6384C15.9148 53.6384 14.8294 53.6378 13.7439 53.6387L13.7444 54.1943ZM16.9946 43.6312C15.673 43.6387 14.5949 44.7179 14.5988 46.0358L15.1543 46.0341C15.1513 45.0254 15.9795 44.1925 16.9977 44.1868L16.9946 43.6312ZM14.5988 46.0358C14.6027 47.3616 15.6917 48.4409 17.0165 48.4295L17.0117 47.8739C15.996 47.8827 15.1573 47.0528 15.1543 46.0341L14.5988 46.0358ZM17.0165 48.4295C18.3332 48.418 19.4032 47.3421 19.3999 46.0279L18.8444 46.0293C18.8469 47.0359 18.025 47.8651 17.0117 47.8739L17.0165 48.4295ZM19.3999 46.0278C19.3963 44.7099 18.309 43.6237 16.9946 43.6312L16.9978 44.1868C18.0018 44.181 18.8416 45.0161 18.8444 46.0294L19.3999 46.0278ZM20.5325 54.8237V55.3793H20.6173L20.6983 55.354L20.5325 54.8237ZM13.4662 54.8237L13.2775 55.3463L13.3689 55.3793H13.4662V54.8237ZM13.4035 54.8015L13.4913 54.2529L13.4887 54.2525L13.4035 54.8015ZM12.0073 53.2855L12.5619 53.2523L12.5619 53.2523L12.0073 53.2855ZM12.2457 51.6058L12.7717 51.7846L12.7718 51.7845L12.2457 51.6058ZM14.7415 48.6987L14.4863 48.2052L14.4857 48.2055L14.7415 48.6987ZM15.0004 48.5743L14.7693 48.0691L14.7691 48.0691L15.0004 48.5743ZM15.0379 48.3347L14.6451 48.7275L14.6505 48.7329L14.656 48.7382L15.0379 48.3347ZM15.0365 48.3333L15.5334 48.0848L15.49 47.998L15.4198 47.9311L15.0365 48.3333ZM14.693 47.9923L15.1246 47.6426L15.1244 47.6423L14.693 47.9923ZM14.0888 45.2146L13.5546 45.0621L13.5546 45.0621L14.0888 45.2146ZM16.1937 43.1155L16.3524 43.6479L16.3526 43.6478L16.1937 43.1155ZM16.7546 43.0026L16.8596 43.5481L16.8601 43.548L16.7546 43.0026ZM17.2444 43.0029L17.1324 43.547L17.1327 43.5471L17.2444 43.0029ZM17.3417 43.0214L17.2734 43.5727L17.2737 43.5727L17.3417 43.0214ZM19.3438 44.1171L18.9128 44.4677L18.9129 44.4677L19.3438 44.1171ZM18.9085 48.3777L19.2619 48.8064L19.2628 48.8056L18.9085 48.3777ZM18.7957 48.4727L18.4381 48.0475L17.9952 48.4199L18.3854 48.8473L18.7957 48.4727ZM18.8173 48.4955L18.5893 49.0021L18.5895 49.0022L18.8173 48.4955ZM19.007 48.5792L19.2331 48.0718L19.232 48.0712L19.007 48.5792ZM21.3627 50.7213L20.879 50.9946L20.879 50.9946L21.3627 50.7213ZM21.9986 53.0433L22.5538 53.0222L22.5538 53.0221L21.9986 53.0433ZM21.0319 54.6635L20.8007 54.1584L20.7987 54.1593L21.0319 54.6635ZM20.5325 54.2682H13.4662V55.3793H20.5325V54.2682ZM13.6549 54.3012C13.6634 54.3043 13.6687 54.3066 13.6658 54.3054C13.6626 54.304 13.6646 54.3048 13.6587 54.3024C13.6551 54.3009 13.6497 54.2986 13.6434 54.296C13.6213 54.2871 13.5647 54.2647 13.4913 54.2529L13.3158 55.3501C13.2884 55.3457 13.2667 55.3397 13.2525 55.3352C13.2385 55.3308 13.229 55.327 13.227 55.3262C13.2259 55.3257 13.2256 55.3256 13.2272 55.3263C13.228 55.3266 13.2288 55.327 13.2303 55.3276C13.2317 55.3282 13.2335 55.329 13.2356 55.3298C13.2429 55.3329 13.2586 55.3394 13.2775 55.3463L13.6549 54.3012ZM13.4887 54.2525C12.982 54.1739 12.5914 53.747 12.5619 53.2523L11.4527 53.3186C11.5144 54.3504 12.3101 55.1941 13.3184 55.3505L13.4887 54.2525ZM12.5619 53.2523C12.5323 52.7579 12.6077 52.267 12.7717 51.7846L11.7197 51.427C11.5148 52.0299 11.4136 52.6648 11.4527 53.3187L12.5619 53.2523ZM12.7718 51.7845C13.1678 50.6185 13.9033 49.7591 14.9972 49.1919L14.4857 48.2055C13.1358 48.9055 12.2075 49.991 11.7197 51.4271L12.7718 51.7845ZM14.9966 49.1922C15.0687 49.1549 15.1446 49.1193 15.2316 49.0794L14.7691 48.0691C14.6783 48.1107 14.5828 48.1553 14.4863 48.2052L14.9966 49.1922ZM15.2314 49.0795C15.6987 48.8658 15.7699 48.2626 15.4198 47.9312L14.656 48.7382C14.4572 48.55 14.4915 48.1961 14.7693 48.0691L15.2314 49.0795ZM15.4308 47.9419C15.4144 47.9255 15.4006 47.9137 15.3944 47.9086C15.3919 47.9064 15.3891 47.9042 15.3903 47.9052C15.3905 47.9053 15.3941 47.9083 15.3985 47.9121C15.414 47.9253 15.4828 47.9836 15.5334 48.0848L14.5396 48.5817C14.5904 48.6834 14.6597 48.7422 14.6756 48.7559C14.6802 48.7598 14.6839 48.7629 14.6842 48.7631C14.6856 48.7642 14.683 48.7621 14.6806 48.76C14.6747 48.7551 14.6611 48.7436 14.6451 48.7275L15.4308 47.9419ZM15.4198 47.9311C15.2667 47.7852 15.1957 47.7303 15.1246 47.6426L14.2613 48.3421C14.3923 48.5038 14.5724 48.6584 14.6532 48.7354L15.4198 47.9311ZM15.1244 47.6423C14.5607 46.9476 14.3852 46.2006 14.623 45.367L13.5546 45.0621C13.2088 46.274 13.4899 47.3912 14.2615 48.3424L15.1244 47.6423ZM14.623 45.3671C14.8768 44.478 15.4487 43.9173 16.3524 43.6479L16.035 42.5831C14.7853 42.9556 13.9174 43.7908 13.5546 45.0621L14.623 45.3671ZM16.3526 43.6478C16.5001 43.6038 16.617 43.5949 16.8596 43.5481L16.6495 42.4571C16.5174 42.4825 16.251 42.5186 16.0348 42.5831L16.3526 43.6478ZM16.8601 43.548C16.8338 43.5531 16.8077 43.5556 16.7817 43.5556V42.4444C16.7378 42.4444 16.6932 42.4486 16.649 42.4572L16.8601 43.548ZM16.7817 43.5556H17.2147V42.4444H16.7817V43.5556ZM17.2147 43.5556C17.1925 43.5556 17.1643 43.5536 17.1324 43.547L17.3564 42.4587C17.3049 42.4481 17.2571 42.4444 17.2147 42.4444V43.5556ZM17.1327 43.5471C17.1399 43.5486 17.2117 43.5651 17.2734 43.5727L17.41 42.47C17.4138 42.4705 17.4132 42.4706 17.4033 42.4686C17.3984 42.4676 17.3929 42.4665 17.3847 42.4647C17.3774 42.4631 17.3669 42.4609 17.3562 42.4587L17.1327 43.5471ZM17.2737 43.5727C17.949 43.656 18.4919 43.9502 18.9128 44.4677L19.7748 43.7665C19.1664 43.0186 18.3595 42.5871 17.4097 42.47L17.2737 43.5727ZM18.9129 44.4677C19.7829 45.5371 19.6269 47.0616 18.5542 47.9498L19.2628 48.8056C20.7979 47.5346 21.0357 45.3164 19.7748 43.7665L18.9129 44.4677ZM18.5551 47.949C18.515 47.9821 18.4697 48.0209 18.4381 48.0475L19.1532 48.8979C19.1978 48.8603 19.2264 48.8357 19.2619 48.8064L18.5551 47.949ZM18.3854 48.8473C18.3844 48.8461 18.366 48.8249 18.3865 48.849C18.392 48.8554 18.4121 48.879 18.4408 48.9049C18.4727 48.9338 18.5218 48.9717 18.5893 49.0021L19.0453 47.9889C19.1099 48.0179 19.1564 48.054 19.1856 48.0804C19.2116 48.1039 19.229 48.1245 19.2313 48.1272C19.2333 48.1296 19.2347 48.1313 19.2337 48.1301C19.2334 48.1297 19.2312 48.127 19.2288 48.1243C19.2235 48.1179 19.2157 48.1088 19.2059 48.0981L18.3854 48.8473ZM18.5895 49.0022C18.653 49.0307 18.7264 49.0625 18.782 49.0871L19.232 48.0712C19.1611 48.0398 19.1075 48.0168 19.0451 47.9888L18.5895 49.0022ZM18.7808 49.0866C19.6927 49.4931 20.3882 50.1257 20.879 50.9946L21.8464 50.4481C21.2386 49.372 20.3626 48.5751 19.2331 48.0718L18.7808 49.0866ZM20.879 50.9946C21.2373 51.6288 21.415 52.3164 21.4435 53.0644L22.5538 53.0221C22.5193 52.1179 22.3016 51.2537 21.8464 50.4481L20.879 50.9946ZM21.4435 53.0644C21.4622 53.5551 21.2152 53.9687 20.8007 54.1584L21.2631 55.1687C22.1187 54.777 22.5882 53.9263 22.5538 53.0222L21.4435 53.0644ZM20.7987 54.1593C20.683 54.2128 20.6119 54.2169 20.3668 54.2935L20.6983 55.354C20.7874 55.3261 21.0662 55.2597 21.2651 55.1678L20.7987 54.1593Z" fill="#0B2D1F" mask="url(#path-6-outside-2_5978_45431)"/>
</g>
</g>
</g>
<rect id="Rectangle 34624758" x="28" y="25" width="16" height="2" fill="#0B2D1F"/>
<rect id="Rectangle 34624759" x="28" y="30" width="16" height="2" fill="#0B2D1F"/>
<rect id="Rectangle 34624760" x="28" y="46" width="16" height="2" fill="#0B2D1F"/>
<rect id="Rectangle 34624761" x="28" y="51" width="16" height="2" fill="#0B2D1F"/>
<g id="Group 1171275136">
<path id="Vector_3" fill-rule="evenodd" clip-rule="evenodd" d="M59.6719 48.0648L63.6347 52.0276L65.6165 50.0458L61.653 46.083L59.6719 48.0648Z" fill="#0B2D1F"/>
<g id="Group_3">
<g id="Vector_4">
<path fill-rule="evenodd" clip-rule="evenodd" d="M69.1794 48.765C70.2735 47.6709 70.2735 45.8963 69.1794 44.8022L67.1976 42.8211C66.1035 41.7263 64.3289 41.7263 63.2348 42.8211L46.8875 59.1684C46.7489 59.307 46.6406 59.473 46.5706 59.6561L44.0936 66.096C43.8946 66.6125 44.0188 67.1977 44.4105 67.5894C44.8022 67.981 45.3873 68.1052 45.9045 67.9063L52.3444 65.4292C52.5268 65.3593 52.6935 65.2509 52.8321 65.1123L69.1794 48.765ZM65.2159 44.8022L67.1976 46.7839L51.0609 62.9207L47.841 64.1595L49.0792 60.9396L65.2159 44.8022Z" fill="#0B2D1F"/>
<path d="M65.2159 44.8022L67.1976 46.7839L51.0609 62.9207L47.841 64.1595L49.0792 60.9396L65.2159 44.8022Z" fill="#62C89E"/>
</g>
</g>
</g>
<path id="Subtract_3" fill-rule="evenodd" clip-rule="evenodd" d="M16.5871 6.62668C17.9246 5.37671 19.9495 4.40174 21.887 4.07675C22.062 4.05175 24.9369 4.01425 28.2868 4.00175C34.8991 3.98925 35.4491 4.02675 37.0866 4.68923C38.3615 5.18922 39.3115 5.8017 40.2615 6.68917L41.099 7.48915H44.8614C47.1363 7.48915 48.8862 7.53915 49.2862 7.62665C51.3862 8.06414 53.1736 9.85159 53.6236 11.964C53.7617 12.6112 53.8044 36.4814 53.7519 51.5133C52.728 51.1801 51.635 51 50.5 51C50.3362 51 50.1732 51.0037 50.0112 51.0112V37.7383V12.714L49.7362 12.2265C49.2362 11.339 48.8362 11.2391 45.8113 11.2391H43.1739L43.3489 12.0765C43.4489 12.5515 43.5114 13.3765 43.4864 13.9515C43.4489 15.0514 43.2489 15.4139 42.4864 15.8139C41.9864 16.0764 14.7872 16.0764 14.2872 15.8139C13.5247 15.4139 13.3247 15.0514 13.2872 13.9515C13.2622 13.3765 13.3247 12.5515 13.4247 12.0765L13.5997 11.2391H10.9623C7.92486 11.2391 7.53738 11.339 7.03739 12.2265L6.7624 12.714V37.7383V62.7626L7.02489 63.2376C7.17489 63.5001 7.49988 63.8251 7.76237 63.9751L8.23736 64.2376H28.3868H40.3605C40.7305 65.6117 41.3725 66.8743 42.2251 67.9642C30.4826 68.0369 8.18517 67.9989 7.48738 67.85C6.5249 67.65 5.23744 66.925 4.58746 66.2375C3.92497 65.5376 3.34999 64.4376 3.15 63.5126C2.95 62.5751 2.95 12.9015 3.15 11.964C3.48749 10.3891 4.67495 8.85162 6.08742 8.13914C7.26238 7.55165 7.82487 7.48915 11.9123 7.48915H15.6622L16.5871 6.62668ZM36.4366 8.51413C36.0241 8.30163 35.3116 8.03914 34.8741 7.92664C34.2116 7.77665 33.0492 7.73915 28.3243 7.75165C25.1619 7.76415 22.3245 7.81415 22.0245 7.87664C20.962 8.07664 19.662 8.81412 18.8371 9.6516C18.1246 10.3766 17.5371 11.289 17.3246 11.9515L17.2496 12.239H28.3868H39.524L39.449 11.9515C39.0865 10.7641 37.6865 9.17661 36.4366 8.51413Z" fill="#0B2D1F"/>
</g>
</g>
</g>
</svg>
