<svg width="72" height="72" viewBox="0 0 72 72" fill="none" xmlns="http://www.w3.org/2000/svg">
<g id="class-configuration">
<rect id="Rectangle 34624845" x="7" y="11" width="48" height="40" fill="#CBEDDF"/>
<g id="Group 1171275215">
<g id="Group 1171275144">
<g id="Group 1171274905">
<g id="Group 1171274903">
<circle id="Ellipse 2538" cx="30.8619" cy="25.3448" r="3.50254" fill="#22885E"/>
<path id="person" d="M30.5495 30.3106C33.0328 30.3106 35.044 28.1146 35.044 25.4262C35.044 22.7787 33.0328 20.6752 30.5495 20.6752C28.0765 20.6752 26.0448 22.8095 26.055 25.4467C26.0653 28.1249 28.0663 30.3106 30.5495 30.3106ZM30.5495 28.5148C29.1334 28.5148 27.9329 27.1706 27.9329 25.4467C27.9226 23.7638 29.1232 22.4709 30.5495 22.4709C31.9861 22.4709 33.1662 23.7433 33.1662 25.4262C33.1662 27.1501 31.9758 28.5148 30.5495 28.5148ZM24.1464 39.8536H36.9423C38.7175 39.8536 39.5692 39.2892 39.5692 38.0784C39.5692 35.2565 36.0496 31.5009 30.5495 31.5009C25.0494 31.5009 21.5195 35.2565 21.5195 38.0784C21.5195 39.2892 22.3712 39.8536 24.1464 39.8536ZM23.8283 38.0579C23.5821 38.0579 23.4897 37.9758 23.4897 37.7911C23.4897 36.2211 26.0243 33.2966 30.5495 33.2966C35.0645 33.2966 37.5991 36.2211 37.5991 37.7911C37.5991 37.9758 37.5067 38.0579 37.2604 38.0579H23.8283Z" fill="#0B2D1F" stroke="#0B2D1F" stroke-width="0.257143"/>
</g>
<path id="Subtract" fill-rule="evenodd" clip-rule="evenodd" d="M6.18909 9H54.349C54.9296 9 55.4864 9.23064 55.8969 9.64117C56.3074 10.0517 56.5381 10.6085 56.5381 11.1891V39.413C56.1533 39.3747 55.7631 39.3551 55.3683 39.3551C54.2556 39.3551 53.1793 39.5108 52.1599 39.8015V13.3782H8.37817V48.4036H36.8363V46.2145H44.7295C44.0638 47.6827 43.6932 49.3132 43.6932 51.0302C43.6932 51.6255 43.7377 52.2104 43.8237 52.7817H6.18909C5.6085 52.7817 5.0517 52.5511 4.64117 52.1406C4.23064 51.73 4 51.1732 4 50.5926V11.1891C4 10.6085 4.23064 10.0517 4.64117 9.64117C5.0517 9.23064 5.6085 9 6.18909 9Z" fill="#0B2D1F"/>
</g>
</g>
<g id="Group 1171275214">
<g id="Group 1171275111">
<g id="Ellipse 2574">
<mask id="path-5-inside-1_5978_45555" fill="white">
<path d="M57.3307 63.3029C63.2218 63.3029 67.9974 58.5273 67.9974 52.6363C67.9974 46.7452 63.2218 41.9696 57.3307 41.9696C51.4397 41.9696 46.6641 46.7452 46.6641 52.6363C46.6641 58.5273 51.4397 63.3029 57.3307 63.3029Z"/>
</mask>
<path d="M57.3307 63.3029C63.2218 63.3029 67.9974 58.5273 67.9974 52.6363C67.9974 46.7452 63.2218 41.9696 57.3307 41.9696C51.4397 41.9696 46.6641 46.7452 46.6641 52.6363C46.6641 58.5273 51.4397 63.3029 57.3307 63.3029Z" fill="#62C89E" stroke="#0B2D1F" stroke-width="4.02681" mask="url(#path-5-inside-1_5978_45555)"/>
</g>
</g>
<g id="Group">
<path id="Vector" d="M60.9647 51.3959H60.0539C60.0017 51.3959 59.9498 51.401 59.8986 51.4112C59.8472 51.4213 59.7975 51.4364 59.7491 51.4565C59.7007 51.4766 59.6547 51.501 59.6114 51.5301C59.5678 51.5591 59.5276 51.5919 59.4904 51.6291C59.4535 51.666 59.4204 51.7063 59.3914 51.7496C59.3623 51.7931 59.3376 51.8389 59.3178 51.8873C59.2977 51.9354 59.2826 51.9853 59.2725 52.0365C59.2623 52.0877 59.2572 52.1394 59.2572 52.1918V56.2848C59.2572 56.337 59.2623 56.3889 59.2725 56.4401C59.2826 56.4913 59.2977 56.5412 59.3178 56.5893C59.3376 56.6377 59.3623 56.6835 59.3914 56.727C59.4204 56.7703 59.4535 56.8106 59.4904 56.8475C59.5276 56.8844 59.5678 56.9175 59.6114 56.9465C59.6547 56.9756 59.7007 57 59.7491 57.0201C59.7975 57.04 59.8472 57.0553 59.8986 57.0655C59.9498 57.0756 60.0017 57.0807 60.0539 57.0807H60.9647C61.0172 57.0807 61.0689 57.0756 61.1203 57.0655C61.1717 57.0553 61.2214 57.04 61.2698 57.0201C61.3182 57 61.364 56.9756 61.4075 56.9465C61.4511 56.9175 61.4913 56.8844 61.5285 56.8475C61.5654 56.8106 61.5985 56.7703 61.6275 56.727C61.6566 56.6835 61.681 56.6377 61.7011 56.5893C61.7212 56.5412 61.7363 56.4913 61.7464 56.4401C61.7566 56.3889 61.7617 56.337 61.7617 56.2848V52.1918C61.7617 52.1394 61.7566 52.0877 61.7464 52.0365C61.7363 51.9853 61.7212 51.9354 61.7011 51.8873C61.681 51.8389 61.6566 51.7931 61.6275 51.7496C61.5985 51.7063 61.5654 51.666 61.5285 51.6291C61.4913 51.5919 61.4511 51.5591 61.4075 51.5301C61.364 51.501 61.3182 51.4766 61.2698 51.4565C61.2214 51.4364 61.1717 51.4213 61.1203 51.4112C61.0689 51.401 61.0172 51.3959 60.9647 51.3959Z" fill="#22885E"/>
</g>
<g id="Group_2">
<path id="Vector_2" d="M57.7772 49.1221H56.8664C56.814 49.1221 56.7623 49.1272 56.7108 49.1373C56.6597 49.1475 56.6098 49.1626 56.5614 49.1827C56.513 49.2025 56.4672 49.2272 56.4236 49.2563C56.3801 49.2853 56.3398 49.3181 56.3029 49.3551C56.2657 49.392 56.2329 49.4322 56.2039 49.4758C56.1746 49.5193 56.1501 49.5651 56.13 49.6133C56.1102 49.6616 56.0949 49.7113 56.0847 49.7627C56.0745 49.8139 56.0694 49.8656 56.0694 49.9178V56.2848C56.0694 56.337 56.0745 56.3889 56.0847 56.4401C56.0949 56.4913 56.1102 56.5412 56.13 56.5893C56.1501 56.6377 56.1746 56.6835 56.2039 56.7271C56.2329 56.7704 56.2657 56.8106 56.3029 56.8475C56.3398 56.8844 56.3801 56.9175 56.4236 56.9466C56.4672 56.9756 56.513 57 56.5614 57.0202C56.6098 57.04 56.6597 57.0553 56.7108 57.0655C56.7623 57.0757 56.814 57.0808 56.8664 57.0808H57.7772C57.8294 57.0808 57.8814 57.0757 57.9328 57.0655C57.984 57.0553 58.0339 57.04 58.0823 57.0202C58.1307 57 58.1765 56.9756 58.22 56.9466C58.2636 56.9175 58.3038 56.8844 58.3407 56.8475C58.3776 56.8106 58.4107 56.7704 58.4398 56.7271C58.4691 56.6835 58.4935 56.6377 58.5136 56.5893C58.5335 56.5412 58.5488 56.4913 58.5589 56.4401C58.5691 56.3889 58.5742 56.337 58.5742 56.2848V49.9178C58.5742 49.8656 58.5691 49.8139 58.5589 49.7627C58.5488 49.7113 58.5335 49.6616 58.5136 49.6133C58.4935 49.5651 58.4691 49.5193 58.4398 49.4758C58.4107 49.4322 58.3776 49.392 58.3407 49.3551C58.3038 49.3181 58.2636 49.2853 58.22 49.2563C58.1765 49.2272 58.1307 49.2025 58.0823 49.1827C58.0339 49.1626 57.984 49.1475 57.9328 49.1373C57.8814 49.1272 57.8294 49.1221 57.7772 49.1221Z" fill="#22885E"/>
</g>
<g id="Group_3">
<path id="Vector_3" d="M54.5897 47.303H53.6789C53.6267 47.303 53.5748 47.3081 53.5236 47.3183C53.4722 47.3284 53.4225 47.3435 53.3741 47.3636C53.3257 47.3834 53.2797 47.4079 53.2364 47.4369C53.1928 47.4659 53.1526 47.499 53.1154 47.536C53.0785 47.5729 53.0454 47.6131 53.0164 47.6567C52.9873 47.6999 52.9626 47.746 52.9428 47.7942C52.9227 47.8425 52.9076 47.8922 52.8975 47.9436C52.8873 47.9948 52.8822 48.0465 52.8822 48.0987V56.2848C52.8822 56.337 52.8873 56.3889 52.8975 56.4401C52.9076 56.4913 52.9227 56.5412 52.9428 56.5893C52.9626 56.6377 52.9873 56.6835 53.0164 56.7271C53.0454 56.7704 53.0785 56.8106 53.1154 56.8475C53.1526 56.8844 53.1928 56.9175 53.2364 56.9466C53.2797 56.9756 53.3257 57 53.3741 57.0201C53.4225 57.04 53.4722 57.0553 53.5236 57.0655C53.5748 57.0757 53.6267 57.0807 53.6789 57.0807H54.5897C54.6422 57.0807 54.6939 57.0757 54.7453 57.0655C54.7967 57.0553 54.8464 57.04 54.8948 57.0201C54.9432 57 54.989 56.9756 55.0325 56.9466C55.0761 56.9175 55.1163 56.8844 55.1535 56.8475C55.1904 56.8106 55.2235 56.7704 55.2525 56.7271C55.2816 56.6835 55.306 56.6377 55.3261 56.5893C55.3462 56.5412 55.3613 56.4913 55.3714 56.4401C55.3816 56.3889 55.3867 56.337 55.3867 56.2848V48.0987C55.3867 48.0465 55.3816 47.9948 55.3714 47.9436C55.3613 47.8922 55.3462 47.8425 55.3261 47.7942C55.306 47.746 55.2816 47.6999 55.2525 47.6567C55.2235 47.6131 55.1904 47.5729 55.1535 47.536C55.1163 47.499 55.0761 47.4659 55.0325 47.4369C54.989 47.4079 54.9432 47.3834 54.8948 47.3636C54.8464 47.3435 54.7967 47.3284 54.7453 47.3183C54.6939 47.3081 54.6422 47.303 54.5897 47.303Z" fill="#22885E"/>
</g>
</g>
</g>
</g>
</svg>
