<svg width="72" height="72" viewBox="0 0 72 72" fill="none" xmlns="http://www.w3.org/2000/svg">
<g id="class-schedule">
<rect id="Rectangle 34624848" x="7" y="30" width="50" height="30" rx="6" fill="#CBEDDF"/>
<g id="class-schedule_2">
<g id="Group 1171274887">
<g id="Group 1171274856">
<path id="Vector 359" d="M57.4485 28.855H6.45312C6.45312 14.8031 12.1193 13.1788 14.9524 14.1231H44.983C54.049 14.1231 57.0707 19.4115 57.4485 22.0557V28.855Z" fill="#22885E"/>
<g id="Group 1171274855">
<path id="Vector (Stroke)" fill-rule="evenodd" clip-rule="evenodd" d="M21.7555 6C23.1124 6 24.2124 7.1 24.2124 8.45691V18.6561C24.2124 20.013 23.1124 21.113 21.7555 21.113C20.3986 21.113 19.2986 20.013 19.2986 18.6561V8.45691C19.2986 7.1 20.3986 6 21.7555 6ZM42.1537 6C43.5107 6 44.6107 7.1 44.6107 8.45691V18.6561C44.6107 20.013 43.5107 21.113 42.1537 21.113C40.7968 21.113 39.6968 20.013 39.6968 18.6561V8.45691C39.6968 7.1 40.7968 6 42.1537 6ZM4 28.855C4 27.4981 5.1 26.3981 6.45691 26.3981H57.4523C58.8092 26.3981 59.9092 27.4981 59.9092 28.855C59.9092 30.2119 58.8092 31.3119 57.4523 31.3119H6.45691C5.1 31.3119 4 30.2119 4 28.855Z" fill="#0B2D1F"/>
</g>
</g>
<path id="Subtract" fill-rule="evenodd" clip-rule="evenodd" d="M8.91382 23.7559C8.91382 19.48 12.3801 16.0137 16.6561 16.0137H47.2532C51.5293 16.0137 54.9954 19.48 54.9954 23.7559V42.5236C55.4311 42.4777 55.8734 42.454 56.3211 42.454C57.5683 42.454 58.773 42.6371 59.9092 42.9781V23.7559C59.9092 16.7663 54.2431 11.0999 47.2532 11.0999H16.6561C9.66626 11.0999 4 16.7663 4 23.7559V49.2536C4 56.2434 9.66626 61.9096 16.6561 61.9096H45.9983C45.0152 60.4603 44.3289 58.7934 44.0278 56.9958H16.6561C12.3801 56.9958 8.91382 53.5294 8.91382 49.2536V23.7559Z" fill="#0B2D1F"/>
<path id="Ellipse 2519" d="M57.4604 65.1184C62.4673 65.1184 66.5262 61.0595 66.5262 56.0525C66.5262 51.0456 62.4673 46.9867 57.4604 46.9867C52.4535 46.9867 48.3945 51.0456 48.3945 56.0525C48.3945 61.0595 52.4535 65.1184 57.4604 65.1184Z" fill="#22885E"/>
<path id="clock" d="M57.4442 66.2515C63.0342 66.2515 67.6483 61.6353 67.6483 56.0524C67.6483 50.4695 63.0244 45.8533 57.4344 45.8533C51.8542 45.8533 47.25 50.4695 47.25 56.0524C47.25 61.6353 51.8641 66.2515 57.4442 66.2515ZM57.4442 64.2197C52.9189 64.2197 49.3007 60.5799 49.3007 56.0524C49.3007 51.5249 52.9189 47.8952 57.4344 47.8952C61.9597 47.8952 65.5976 51.5249 65.6074 56.0524C65.6172 60.5799 61.9696 64.2197 57.4442 64.2197ZM52.4753 57.2953H57.4344C57.8878 57.2953 58.2329 56.95 58.2329 56.5061V50.0554C58.2329 49.6115 57.8878 49.2662 57.4344 49.2662C57.0006 49.2662 56.6556 49.6115 56.6556 50.0554V55.7172H52.4753C52.0317 55.7172 51.6866 56.0622 51.6866 56.5061C51.6866 56.95 52.0317 57.2953 52.4753 57.2953Z" fill="#0B2D1F"/>
<path id="clock (Stroke)" fill-rule="evenodd" clip-rule="evenodd" d="M46.8984 56.0522C46.8984 50.2761 51.6592 45.5021 57.4338 45.5021C63.2172 45.5021 67.9987 50.275 67.9987 56.0522C67.9987 61.829 63.2274 66.6023 57.4436 66.6023C51.6695 66.6023 46.8984 61.8288 46.8984 56.0522ZM57.4338 46.204C52.0481 46.204 47.6004 50.6626 47.6004 56.0522C47.6004 61.4414 52.0575 65.9003 57.4436 65.9003C62.8398 65.9003 67.2967 61.4412 67.2967 56.0522C67.2967 50.6636 62.8305 46.204 57.4338 46.204ZM57.4338 48.246C53.1131 48.246 49.6511 51.7175 49.6511 56.0522C49.6511 60.3871 53.1134 63.8685 57.4436 63.8685C61.7757 63.8685 65.2652 60.3855 65.2558 56.053C65.2464 51.7189 61.7656 48.246 57.4338 48.246ZM48.9491 56.0522C48.9491 51.3318 52.7235 47.544 57.4338 47.544C62.1527 47.544 65.9476 51.3304 65.9578 56.0514C65.9681 60.7739 62.1623 64.5705 57.4436 64.5705C52.7232 64.5705 48.9491 60.7723 48.9491 56.0522ZM56.304 50.0552C56.304 49.4206 56.8031 48.915 57.4338 48.915C58.0785 48.915 58.5833 49.4148 58.5833 50.0552V56.5059C58.5833 57.1462 58.0785 57.6461 57.4338 57.6461H52.4747C51.837 57.6461 51.3351 57.1434 51.3351 56.5059C51.3351 55.8683 51.8372 55.366 52.4747 55.366H56.304V50.0552ZM57.4338 49.617C57.197 49.617 57.006 49.802 57.006 50.0552V56.068H52.4747C52.225 56.068 52.037 56.2558 52.037 56.5059C52.037 56.7562 52.2252 56.9441 52.4747 56.9441H57.4338C57.696 56.9441 57.8813 56.7533 57.8813 56.5059V50.0552C57.8813 49.8078 57.696 49.617 57.4338 49.617Z" fill="#0B2D1F"/>
</g>
</g>
</g>
</svg>
