<svg width="72" height="72" viewBox="0 0 72 72" fill="none" xmlns="http://www.w3.org/2000/svg">
<g id="class-schedule">
<rect id="Rectangle 34624849" x="7" y="27" width="50" height="31" rx="6" fill="#CBEDDF"/>
<g id="Group 1171274887">
<g id="Group 1171274856">
<path id="Vector 359" d="M57.2733 27.5108H5.99609C5.99609 13.3811 11.6936 11.7478 14.5423 12.6974H44.7389C53.8548 12.6974 56.8935 18.015 57.2733 20.6738V27.5108Z" fill="#22885E"/>
<g id="Group 1171274855">
<path id="Vector" d="M21.3793 7V17.2554M41.8901 7V17.2554M5.99609 27.5109H57.2733" stroke="#0B2D1F" stroke-width="4" stroke-linecap="round" stroke-linejoin="round"/>
</g>
</g>
<path id="Subtract" fill-rule="evenodd" clip-rule="evenodd" d="M8 22.3837C8 17.8244 11.6961 14.1283 16.2554 14.1283H47.0218C51.5811 14.1283 55.2772 17.8244 55.2772 22.3837V41.2137C55.5597 41.1947 55.8448 41.185 56.1321 41.185C57.2183 41.185 58.2722 41.3232 59.2772 41.5828V22.3837C59.2772 15.6152 53.7903 10.1283 47.0218 10.1283H16.2554C9.48695 10.1283 4 15.6152 4 22.3837V48.0223C4 54.7908 9.48695 60.2778 16.2554 60.2778H45.4483C44.7026 59.0656 44.1574 57.7169 43.859 56.2778H16.2554C11.6961 56.2778 8 52.5817 8 48.0223V22.3837Z" fill="#0B2D1F"/>
<circle id="Ellipse 2519" cx="57.2722" cy="54.8586" r="9.11595" fill="#22885E"/>
<path id="clock" d="M57.27 65.1139C62.8909 65.1139 67.5304 60.4722 67.5304 54.8585C67.5304 49.2448 62.881 44.603 57.2601 44.603C51.6491 44.603 47.0195 49.2448 47.0195 54.8585C47.0195 60.4722 51.659 65.1139 57.27 65.1139ZM57.27 63.0708C52.7198 63.0708 49.0815 59.4109 49.0815 54.8585C49.0815 50.306 52.7198 46.6561 57.2601 46.6561C61.8104 46.6561 65.4684 50.306 65.4783 54.8585C65.4882 59.4109 61.8203 63.0708 57.27 63.0708ZM52.2736 56.1082H57.2601C57.7161 56.1082 58.0631 55.761 58.0631 55.3147V48.8282C58.0631 48.3819 57.7161 48.0347 57.2601 48.0347C56.8239 48.0347 56.4769 48.3819 56.4769 48.8282V54.5212H52.2736C51.8275 54.5212 51.4806 54.8684 51.4806 55.3147C51.4806 55.761 51.8275 56.1082 52.2736 56.1082Z" fill="#0B2D1F" stroke="#0B2D1F" stroke-width="0.571429"/>
</g>
<path id="31" d="M26.3234 50.2205C25.095 50.2205 24.0056 50.0105 23.0554 49.5905C22.1105 49.1653 21.365 48.5799 20.819 47.8345C20.2731 47.089 19.9948 46.2307 19.9843 45.2595H23.9059C23.9216 45.6112 24.0345 45.9236 24.2445 46.1966C24.4545 46.4643 24.7406 46.6743 25.1028 46.8265C25.4651 46.9788 25.8772 47.0549 26.3391 47.0549C26.8011 47.0549 27.208 46.9735 27.5597 46.8108C27.9167 46.6428 28.1949 46.4144 28.3944 46.1257C28.5939 45.8317 28.691 45.4957 28.6858 45.1177C28.691 44.7398 28.5834 44.4038 28.3629 44.1098C28.1424 43.8158 27.8301 43.5874 27.4258 43.4247C27.0269 43.2619 26.5544 43.1806 26.0084 43.1806H24.4414V40.4087H26.0084C26.4861 40.4087 26.9061 40.33 27.2684 40.1725C27.6358 40.015 27.9219 39.7945 28.1267 39.511C28.3314 39.2223 28.4312 38.8915 28.4259 38.5188C28.4312 38.1566 28.3446 37.839 28.1661 37.566C27.9928 37.2877 27.7487 37.0725 27.4337 36.9203C27.124 36.768 26.7644 36.6919 26.3549 36.6919C25.9244 36.6919 25.5333 36.768 25.1816 36.9203C24.8351 37.0725 24.5595 37.2877 24.3547 37.566C24.15 37.8442 24.0424 38.1671 24.0319 38.5346H20.3072C20.3177 37.5738 20.5854 36.7286 21.1104 35.9989C21.6354 35.264 22.3493 34.6891 23.2523 34.2744C24.1605 33.8597 25.1947 33.6523 26.3549 33.6523C27.5098 33.6523 28.5257 33.8544 29.4024 34.2586C30.2791 34.6629 30.9616 35.2141 31.4498 35.9123C31.938 36.6053 32.1821 37.3901 32.1821 38.2668C32.1874 39.175 31.8908 39.9231 31.2923 40.5111C30.6991 41.0991 29.9352 41.4613 29.0008 41.5978V41.7238C30.2502 41.8708 31.1925 42.275 31.8278 42.9365C32.4682 43.5979 32.7858 44.4248 32.7806 45.417C32.7806 46.3514 32.505 47.1809 31.9538 47.9054C31.4078 48.6246 30.6466 49.1915 29.6701 49.6063C28.6989 50.0157 27.5833 50.2205 26.3234 50.2205ZM42.4368 33.8728V50H38.5468V37.5108H38.4523L34.8457 39.7157V36.3454L38.8224 33.8728H42.4368Z" fill="#0B2D1F"/>
</g>
</svg>
