<svg width="72" height="72" viewBox="0 0 72 72" fill="none" xmlns="http://www.w3.org/2000/svg">
<g id="fee-stucture">
<g id="Group 1171274875">
<rect id="Rectangle 34624709" x="7.30859" y="44.6628" width="19.6756" height="22.299" rx="9.83779" fill="#2894B4"/>
<rect id="Rectangle 34624710" x="44.0352" y="44.6628" width="19.6756" height="22.299" rx="9.83779" fill="#2894B4"/>
<path id="Rectangle 34624709_2" d="M21.7367 8.59082H49.2825L51.9059 12.5259V23.6754L49.2825 27.6106H21.7367L19.1133 23.6754V12.5259L21.7367 8.59082Z" fill="#2894B4"/>
<g id="Group 1171274870">
<g id="Group">
<g id="Vector">
<mask id="path-4-outside-1_5978_45459" maskUnits="userSpaceOnUse" x="5" y="43.0701" width="24" height="26" fill="black">
<rect fill="white" x="5" y="43.0701" width="24" height="26"/>
<path fill-rule="evenodd" clip-rule="evenodd" d="M17.0339 44.0701C16.6736 44.0701 16.3134 44.0883 15.9531 44.1274C15.5928 44.1664 15.2373 44.2237 14.8819 44.2992C14.5264 44.3748 14.1781 44.4711 13.8323 44.5857C13.4864 44.6977 13.1454 44.8305 12.8115 44.9789C12.4777 45.13 12.151 45.2966 11.8316 45.4815C11.5145 45.6664 11.2047 45.8669 10.9045 46.0857C10.6043 46.3044 10.3136 46.5362 10.035 46.7862C9.75402 47.0336 9.48742 47.2966 9.23043 47.5727C8.97584 47.8513 8.73326 48.1404 8.50508 48.4451C8.27451 48.7472 8.06075 49.0623 7.859 49.3878C7.65725 49.7133 7.47231 50.0492 7.30178 50.393C7.13125 50.7393 6.97754 51.0935 6.83823 51.4555C6.70133 51.8175 6.57884 52.1873 6.47556 52.5623C6.36988 52.9373 6.28101 53.3149 6.21136 53.7003C6.14171 54.0857 6.08887 54.4711 6.05284 54.8617C6.01681 55.2524 6 55.643 6 56.0336C6 56.4269 6.01681 56.8175 6.05284 57.2081C6.08887 57.5987 6.14171 57.9841 6.21136 58.3696C6.28101 58.7524 6.36988 59.1326 6.47556 59.5076C6.57884 59.8826 6.70133 60.2524 6.83823 60.6144C6.97754 60.9763 7.13125 61.3305 7.30178 61.6743C7.47231 62.0206 7.65725 62.3566 7.859 62.6821C8.06075 63.0076 8.27451 63.3227 8.50508 63.6248C8.73326 63.9295 8.97584 64.2185 9.23043 64.4946C9.48742 64.7732 9.75402 65.0362 10.035 65.2836C10.3136 65.5336 10.6043 65.7654 10.9045 65.9842C11.2047 66.2003 11.5145 66.4034 11.8316 66.5883C12.151 66.7706 12.4777 66.9399 12.8115 67.0883C13.1454 67.2394 13.4864 67.3722 13.8323 67.4842C14.1781 67.5987 14.5264 67.6925 14.8819 67.7706C15.2373 67.8461 15.5928 67.9034 15.9531 67.9425C16.3134 67.9816 16.6736 67.9998 17.0339 67.9998C17.3966 67.9998 17.7568 67.9816 18.1171 67.9425C18.475 67.9034 18.8328 67.8461 19.1883 67.7706C19.5414 67.6925 19.892 67.5987 20.2379 67.4842C20.5838 67.3722 20.9248 67.2394 21.2587 67.0883C21.5925 66.9399 21.9192 66.7706 22.2362 66.5883C22.5556 66.4034 22.8655 66.2003 23.1657 65.9842C23.4659 65.7654 23.7566 65.5336 24.0352 65.2836C24.3138 65.0362 24.5828 64.7732 24.8374 64.4946C25.0944 64.2185 25.3369 63.9295 25.5651 63.6248C25.7957 63.3227 26.0094 63.0076 26.2112 62.6821C26.4105 62.3566 26.5979 62.0206 26.766 61.6743C26.9365 61.3305 27.0927 60.9763 27.2296 60.6144C27.3689 60.2524 27.489 59.8826 27.5946 59.5076C27.7003 59.1326 27.7868 58.7524 27.8588 58.3696C27.9285 57.9841 27.9813 57.5987 28.0174 57.2081C28.0534 56.8175 28.0702 56.4269 28.0702 56.0336C28.0702 55.643 28.051 55.2524 28.0174 54.8617C27.9813 54.4711 27.9285 54.0857 27.8564 53.7003C27.7868 53.3175 27.6979 52.9373 27.5946 52.5623C27.489 52.1873 27.3665 51.8175 27.2296 51.4555C27.0903 51.0935 26.9365 50.742 26.766 50.3956C26.5955 50.0492 26.4105 49.7133 26.2088 49.3878C26.007 49.0623 25.7933 48.7472 25.5627 48.4451C25.3345 48.143 25.092 47.8539 24.8374 47.5753C24.5804 47.2992 24.3138 47.0362 24.0352 46.7862C23.7541 46.5388 23.4659 46.3044 23.1633 46.0883C22.8631 45.8696 22.5556 45.669 22.2362 45.4841C21.9168 45.2992 21.5901 45.1326 21.2563 44.9815C20.9224 44.8305 20.5838 44.7003 20.2379 44.5857C19.892 44.4711 19.5414 44.3774 19.1883 44.2992C18.8328 44.2237 18.475 44.1664 18.1171 44.1274C17.7568 44.0883 17.3966 44.0701 17.0339 44.0701ZM17.0339 66.3305C16.4118 66.3305 15.7946 66.2654 15.1821 66.1326C14.5696 65.9998 13.9764 65.8045 13.4 65.5467C12.8259 65.2888 12.2783 64.9711 11.7595 64.5961C11.2407 64.2185 10.7604 63.7941 10.3208 63.3149C9.87892 62.8357 9.48502 62.3175 9.13916 61.755C8.7933 61.1925 8.50028 60.5987 8.2625 59.9737C8.02232 59.3513 7.84219 58.7055 7.72209 58.044C7.5996 57.38 7.53956 56.7107 7.53956 56.0336C7.53956 55.3591 7.5996 54.6899 7.72209 54.0258C7.84219 53.3617 8.02232 52.7185 8.2625 52.0935C8.50028 51.4711 8.7933 50.8774 9.13916 50.3149C9.48502 49.7524 9.87892 49.2315 10.3208 48.755C10.7604 48.2758 11.2407 47.8487 11.7595 47.4737C12.2783 47.0987 12.8259 46.781 13.4 46.5232C13.9764 46.2628 14.5696 46.0675 15.1821 45.9373C15.7946 45.8044 16.4118 45.7393 17.0339 45.7393C17.6584 45.7393 18.2756 45.8044 18.8881 45.9373C19.4981 46.0675 20.0914 46.2628 20.6678 46.5232C21.2443 46.781 21.7919 47.0987 22.3107 47.4737C22.8295 47.8487 23.3074 48.2758 23.7493 48.755C24.1889 49.2315 24.5828 49.7524 24.931 50.3149C25.2769 50.8774 25.5699 51.4711 25.8077 52.0935C26.0455 52.7185 26.2256 53.3617 26.3481 54.0258C26.4706 54.6899 26.5306 55.3591 26.5306 56.0336C26.5306 56.7107 26.4682 57.38 26.3481 58.044C26.2256 58.7055 26.0455 59.3487 25.8053 59.9737C25.5675 60.5987 25.2745 61.1925 24.9286 61.7524C24.5828 62.3149 24.1889 62.8357 23.7469 63.3123C23.3074 63.7914 22.8271 64.2185 22.3083 64.5935C21.7919 64.9685 21.2443 65.2862 20.6678 65.5441C20.0914 65.8045 19.4981 65.9998 18.8857 66.1326C18.2756 66.2628 17.6584 66.3305 17.0339 66.3305Z"/>
</mask>
<path fill-rule="evenodd" clip-rule="evenodd" d="M17.0339 44.0701C16.6736 44.0701 16.3134 44.0883 15.9531 44.1274C15.5928 44.1664 15.2373 44.2237 14.8819 44.2992C14.5264 44.3748 14.1781 44.4711 13.8323 44.5857C13.4864 44.6977 13.1454 44.8305 12.8115 44.9789C12.4777 45.13 12.151 45.2966 11.8316 45.4815C11.5145 45.6664 11.2047 45.8669 10.9045 46.0857C10.6043 46.3044 10.3136 46.5362 10.035 46.7862C9.75402 47.0336 9.48742 47.2966 9.23043 47.5727C8.97584 47.8513 8.73326 48.1404 8.50508 48.4451C8.27451 48.7472 8.06075 49.0623 7.859 49.3878C7.65725 49.7133 7.47231 50.0492 7.30178 50.393C7.13125 50.7393 6.97754 51.0935 6.83823 51.4555C6.70133 51.8175 6.57884 52.1873 6.47556 52.5623C6.36988 52.9373 6.28101 53.3149 6.21136 53.7003C6.14171 54.0857 6.08887 54.4711 6.05284 54.8617C6.01681 55.2524 6 55.643 6 56.0336C6 56.4269 6.01681 56.8175 6.05284 57.2081C6.08887 57.5987 6.14171 57.9841 6.21136 58.3696C6.28101 58.7524 6.36988 59.1326 6.47556 59.5076C6.57884 59.8826 6.70133 60.2524 6.83823 60.6144C6.97754 60.9763 7.13125 61.3305 7.30178 61.6743C7.47231 62.0206 7.65725 62.3566 7.859 62.6821C8.06075 63.0076 8.27451 63.3227 8.50508 63.6248C8.73326 63.9295 8.97584 64.2185 9.23043 64.4946C9.48742 64.7732 9.75402 65.0362 10.035 65.2836C10.3136 65.5336 10.6043 65.7654 10.9045 65.9842C11.2047 66.2003 11.5145 66.4034 11.8316 66.5883C12.151 66.7706 12.4777 66.9399 12.8115 67.0883C13.1454 67.2394 13.4864 67.3722 13.8323 67.4842C14.1781 67.5987 14.5264 67.6925 14.8819 67.7706C15.2373 67.8461 15.5928 67.9034 15.9531 67.9425C16.3134 67.9816 16.6736 67.9998 17.0339 67.9998C17.3966 67.9998 17.7568 67.9816 18.1171 67.9425C18.475 67.9034 18.8328 67.8461 19.1883 67.7706C19.5414 67.6925 19.892 67.5987 20.2379 67.4842C20.5838 67.3722 20.9248 67.2394 21.2587 67.0883C21.5925 66.9399 21.9192 66.7706 22.2362 66.5883C22.5556 66.4034 22.8655 66.2003 23.1657 65.9842C23.4659 65.7654 23.7566 65.5336 24.0352 65.2836C24.3138 65.0362 24.5828 64.7732 24.8374 64.4946C25.0944 64.2185 25.3369 63.9295 25.5651 63.6248C25.7957 63.3227 26.0094 63.0076 26.2112 62.6821C26.4105 62.3566 26.5979 62.0206 26.766 61.6743C26.9365 61.3305 27.0927 60.9763 27.2296 60.6144C27.3689 60.2524 27.489 59.8826 27.5946 59.5076C27.7003 59.1326 27.7868 58.7524 27.8588 58.3696C27.9285 57.9841 27.9813 57.5987 28.0174 57.2081C28.0534 56.8175 28.0702 56.4269 28.0702 56.0336C28.0702 55.643 28.051 55.2524 28.0174 54.8617C27.9813 54.4711 27.9285 54.0857 27.8564 53.7003C27.7868 53.3175 27.6979 52.9373 27.5946 52.5623C27.489 52.1873 27.3665 51.8175 27.2296 51.4555C27.0903 51.0935 26.9365 50.742 26.766 50.3956C26.5955 50.0492 26.4105 49.7133 26.2088 49.3878C26.007 49.0623 25.7933 48.7472 25.5627 48.4451C25.3345 48.143 25.092 47.8539 24.8374 47.5753C24.5804 47.2992 24.3138 47.0362 24.0352 46.7862C23.7541 46.5388 23.4659 46.3044 23.1633 46.0883C22.8631 45.8696 22.5556 45.669 22.2362 45.4841C21.9168 45.2992 21.5901 45.1326 21.2563 44.9815C20.9224 44.8305 20.5838 44.7003 20.2379 44.5857C19.892 44.4711 19.5414 44.3774 19.1883 44.2992C18.8328 44.2237 18.475 44.1664 18.1171 44.1274C17.7568 44.0883 17.3966 44.0701 17.0339 44.0701ZM17.0339 66.3305C16.4118 66.3305 15.7946 66.2654 15.1821 66.1326C14.5696 65.9998 13.9764 65.8045 13.4 65.5467C12.8259 65.2888 12.2783 64.9711 11.7595 64.5961C11.2407 64.2185 10.7604 63.7941 10.3208 63.3149C9.87892 62.8357 9.48502 62.3175 9.13916 61.755C8.7933 61.1925 8.50028 60.5987 8.2625 59.9737C8.02232 59.3513 7.84219 58.7055 7.72209 58.044C7.5996 57.38 7.53956 56.7107 7.53956 56.0336C7.53956 55.3591 7.5996 54.6899 7.72209 54.0258C7.84219 53.3617 8.02232 52.7185 8.2625 52.0935C8.50028 51.4711 8.7933 50.8774 9.13916 50.3149C9.48502 49.7524 9.87892 49.2315 10.3208 48.755C10.7604 48.2758 11.2407 47.8487 11.7595 47.4737C12.2783 47.0987 12.8259 46.781 13.4 46.5232C13.9764 46.2628 14.5696 46.0675 15.1821 45.9373C15.7946 45.8044 16.4118 45.7393 17.0339 45.7393C17.6584 45.7393 18.2756 45.8044 18.8881 45.9373C19.4981 46.0675 20.0914 46.2628 20.6678 46.5232C21.2443 46.781 21.7919 47.0987 22.3107 47.4737C22.8295 47.8487 23.3074 48.2758 23.7493 48.755C24.1889 49.2315 24.5828 49.7524 24.931 50.3149C25.2769 50.8774 25.5699 51.4711 25.8077 52.0935C26.0455 52.7185 26.2256 53.3617 26.3481 54.0258C26.4706 54.6899 26.5306 55.3591 26.5306 56.0336C26.5306 56.7107 26.4682 57.38 26.3481 58.044C26.2256 58.7055 26.0455 59.3487 25.8053 59.9737C25.5675 60.5987 25.2745 61.1925 24.9286 61.7524C24.5828 62.3149 24.1889 62.8357 23.7469 63.3123C23.3074 63.7914 22.8271 64.2185 22.3083 64.5935C21.7919 64.9685 21.2443 65.2862 20.6678 65.5441C20.0914 65.8045 19.4981 65.9998 18.8857 66.1326C18.2756 66.2628 17.6584 66.3305 17.0339 66.3305Z" fill="#0D313B"/>
<path fill-rule="evenodd" clip-rule="evenodd" d="M17.0339 44.0701C16.6736 44.0701 16.3134 44.0883 15.9531 44.1274C15.5928 44.1664 15.2373 44.2237 14.8819 44.2992C14.5264 44.3748 14.1781 44.4711 13.8323 44.5857C13.4864 44.6977 13.1454 44.8305 12.8115 44.9789C12.4777 45.13 12.151 45.2966 11.8316 45.4815C11.5145 45.6664 11.2047 45.8669 10.9045 46.0857C10.6043 46.3044 10.3136 46.5362 10.035 46.7862C9.75402 47.0336 9.48742 47.2966 9.23043 47.5727C8.97584 47.8513 8.73326 48.1404 8.50508 48.4451C8.27451 48.7472 8.06075 49.0623 7.859 49.3878C7.65725 49.7133 7.47231 50.0492 7.30178 50.393C7.13125 50.7393 6.97754 51.0935 6.83823 51.4555C6.70133 51.8175 6.57884 52.1873 6.47556 52.5623C6.36988 52.9373 6.28101 53.3149 6.21136 53.7003C6.14171 54.0857 6.08887 54.4711 6.05284 54.8617C6.01681 55.2524 6 55.643 6 56.0336C6 56.4269 6.01681 56.8175 6.05284 57.2081C6.08887 57.5987 6.14171 57.9841 6.21136 58.3696C6.28101 58.7524 6.36988 59.1326 6.47556 59.5076C6.57884 59.8826 6.70133 60.2524 6.83823 60.6144C6.97754 60.9763 7.13125 61.3305 7.30178 61.6743C7.47231 62.0206 7.65725 62.3566 7.859 62.6821C8.06075 63.0076 8.27451 63.3227 8.50508 63.6248C8.73326 63.9295 8.97584 64.2185 9.23043 64.4946C9.48742 64.7732 9.75402 65.0362 10.035 65.2836C10.3136 65.5336 10.6043 65.7654 10.9045 65.9842C11.2047 66.2003 11.5145 66.4034 11.8316 66.5883C12.151 66.7706 12.4777 66.9399 12.8115 67.0883C13.1454 67.2394 13.4864 67.3722 13.8323 67.4842C14.1781 67.5987 14.5264 67.6925 14.8819 67.7706C15.2373 67.8461 15.5928 67.9034 15.9531 67.9425C16.3134 67.9816 16.6736 67.9998 17.0339 67.9998C17.3966 67.9998 17.7568 67.9816 18.1171 67.9425C18.475 67.9034 18.8328 67.8461 19.1883 67.7706C19.5414 67.6925 19.892 67.5987 20.2379 67.4842C20.5838 67.3722 20.9248 67.2394 21.2587 67.0883C21.5925 66.9399 21.9192 66.7706 22.2362 66.5883C22.5556 66.4034 22.8655 66.2003 23.1657 65.9842C23.4659 65.7654 23.7566 65.5336 24.0352 65.2836C24.3138 65.0362 24.5828 64.7732 24.8374 64.4946C25.0944 64.2185 25.3369 63.9295 25.5651 63.6248C25.7957 63.3227 26.0094 63.0076 26.2112 62.6821C26.4105 62.3566 26.5979 62.0206 26.766 61.6743C26.9365 61.3305 27.0927 60.9763 27.2296 60.6144C27.3689 60.2524 27.489 59.8826 27.5946 59.5076C27.7003 59.1326 27.7868 58.7524 27.8588 58.3696C27.9285 57.9841 27.9813 57.5987 28.0174 57.2081C28.0534 56.8175 28.0702 56.4269 28.0702 56.0336C28.0702 55.643 28.051 55.2524 28.0174 54.8617C27.9813 54.4711 27.9285 54.0857 27.8564 53.7003C27.7868 53.3175 27.6979 52.9373 27.5946 52.5623C27.489 52.1873 27.3665 51.8175 27.2296 51.4555C27.0903 51.0935 26.9365 50.742 26.766 50.3956C26.5955 50.0492 26.4105 49.7133 26.2088 49.3878C26.007 49.0623 25.7933 48.7472 25.5627 48.4451C25.3345 48.143 25.092 47.8539 24.8374 47.5753C24.5804 47.2992 24.3138 47.0362 24.0352 46.7862C23.7541 46.5388 23.4659 46.3044 23.1633 46.0883C22.8631 45.8696 22.5556 45.669 22.2362 45.4841C21.9168 45.2992 21.5901 45.1326 21.2563 44.9815C20.9224 44.8305 20.5838 44.7003 20.2379 44.5857C19.892 44.4711 19.5414 44.3774 19.1883 44.2992C18.8328 44.2237 18.475 44.1664 18.1171 44.1274C17.7568 44.0883 17.3966 44.0701 17.0339 44.0701ZM17.0339 66.3305C16.4118 66.3305 15.7946 66.2654 15.1821 66.1326C14.5696 65.9998 13.9764 65.8045 13.4 65.5467C12.8259 65.2888 12.2783 64.9711 11.7595 64.5961C11.2407 64.2185 10.7604 63.7941 10.3208 63.3149C9.87892 62.8357 9.48502 62.3175 9.13916 61.755C8.7933 61.1925 8.50028 60.5987 8.2625 59.9737C8.02232 59.3513 7.84219 58.7055 7.72209 58.044C7.5996 57.38 7.53956 56.7107 7.53956 56.0336C7.53956 55.3591 7.5996 54.6899 7.72209 54.0258C7.84219 53.3617 8.02232 52.7185 8.2625 52.0935C8.50028 51.4711 8.7933 50.8774 9.13916 50.3149C9.48502 49.7524 9.87892 49.2315 10.3208 48.755C10.7604 48.2758 11.2407 47.8487 11.7595 47.4737C12.2783 47.0987 12.8259 46.781 13.4 46.5232C13.9764 46.2628 14.5696 46.0675 15.1821 45.9373C15.7946 45.8044 16.4118 45.7393 17.0339 45.7393C17.6584 45.7393 18.2756 45.8044 18.8881 45.9373C19.4981 46.0675 20.0914 46.2628 20.6678 46.5232C21.2443 46.781 21.7919 47.0987 22.3107 47.4737C22.8295 47.8487 23.3074 48.2758 23.7493 48.755C24.1889 49.2315 24.5828 49.7524 24.931 50.3149C25.2769 50.8774 25.5699 51.4711 25.8077 52.0935C26.0455 52.7185 26.2256 53.3617 26.3481 54.0258C26.4706 54.6899 26.5306 55.3591 26.5306 56.0336C26.5306 56.7107 26.4682 57.38 26.3481 58.044C26.2256 58.7055 26.0455 59.3487 25.8053 59.9737C25.5675 60.5987 25.2745 61.1925 24.9286 61.7524C24.5828 62.3149 24.1889 62.8357 23.7469 63.3123C23.3074 63.7914 22.8271 64.2185 22.3083 64.5935C21.7919 64.9685 21.2443 65.2862 20.6678 65.5441C20.0914 65.8045 19.4981 65.9998 18.8857 66.1326C18.2756 66.2628 17.6584 66.3305 17.0339 66.3305Z" stroke="#0D313B" stroke-width="0.205714" mask="url(#path-4-outside-1_5978_45459)"/>
</g>
</g>
<g id="Group_2">
<g id="Vector_2">
<mask id="path-5-outside-2_5978_45459" maskUnits="userSpaceOnUse" x="41.9531" y="43.0701" width="24" height="26" fill="black">
<rect fill="white" x="41.9531" y="43.0701" width="24" height="26"/>
<path fill-rule="evenodd" clip-rule="evenodd" d="M53.9894 44.0701C53.6292 44.0701 53.2665 44.0883 52.9086 44.1274C52.5483 44.1664 52.1905 44.2237 51.8374 44.2992C51.4819 44.3748 51.1313 44.4711 50.7854 44.5857C50.4396 44.6977 50.1009 44.8305 49.767 44.9789C49.4332 45.13 49.1066 45.2966 48.7871 45.4815C48.4677 45.6664 48.1602 45.8669 47.8576 46.0857C47.5574 46.3044 47.2692 46.5362 46.9882 46.7862C46.7095 47.0336 46.4429 47.2966 46.186 47.5727C45.9314 47.8513 45.6888 48.1404 45.4582 48.4451C45.23 48.7472 45.0139 49.0623 44.8145 49.3878C44.6128 49.7133 44.4278 50.0492 44.2573 50.393C44.0868 50.7393 43.9331 51.0935 43.7938 51.4555C43.6569 51.8175 43.5344 52.1873 43.4287 52.5623C43.3254 52.9373 43.2365 53.3149 43.1669 53.7003C43.0948 54.0857 43.042 54.4711 43.0084 54.8617C42.9723 55.2524 42.9531 55.643 42.9531 56.0336C42.9531 56.4269 42.9723 56.8175 43.0084 57.2081C43.042 57.5987 43.0948 57.9841 43.1669 58.3696C43.2365 58.7524 43.3254 59.1326 43.4287 59.5076C43.5344 59.8826 43.6569 60.2524 43.7938 60.6144C43.9331 60.9763 44.0868 61.3305 44.2573 61.6743C44.4278 62.0206 44.6128 62.3566 44.8145 62.6821C45.0139 63.0076 45.23 63.3227 45.4582 63.6248C45.6888 63.9295 45.9314 64.2185 46.186 64.4946C46.4429 64.7732 46.7095 65.0362 46.9882 65.2836C47.2692 65.5336 47.5574 65.7654 47.8576 65.9842C48.1602 66.2003 48.4677 66.4034 48.7871 66.5883C49.1066 66.7706 49.4332 66.9399 49.767 67.0883C50.1009 67.2394 50.4396 67.3722 50.7854 67.4842C51.1313 67.5987 51.4819 67.6925 51.8374 67.7706C52.1905 67.8461 52.5483 67.9034 52.9086 67.9425C53.2665 67.9816 53.6292 67.9998 53.9894 67.9998C54.3521 67.9998 54.7124 67.9816 55.0702 67.9425C55.4305 67.9034 55.7884 67.8461 56.1414 67.7706C56.4969 67.6925 56.8476 67.5987 57.1934 67.4842C57.5393 67.3722 57.8779 67.2394 58.2118 67.0883C58.5456 66.9399 58.8723 66.7706 59.1917 66.5883C59.5112 66.4034 59.821 66.2003 60.1212 65.9842C60.4215 65.7654 60.7121 65.5336 60.9907 65.2836C61.2693 65.0362 61.5383 64.7732 61.7929 64.4946C62.0475 64.2185 62.2901 63.9295 62.5206 63.6248C62.7488 63.3227 62.965 63.0076 63.1643 62.6821C63.3661 62.3566 63.551 62.0206 63.7215 61.6743C63.8921 61.3305 64.0458 60.9763 64.1851 60.6144C64.3244 60.2524 64.4445 59.8826 64.5502 59.5076C64.6558 59.1326 64.7423 58.7524 64.812 58.3696C64.884 57.9841 64.9369 57.5987 64.9729 57.2081C65.0065 56.8175 65.0257 56.4269 65.0257 56.0336C65.0257 55.643 65.0065 55.2524 64.9705 54.8617C64.9369 54.4711 64.8816 54.0857 64.812 53.7003C64.7423 53.3175 64.6534 52.9373 64.5478 52.5623C64.4445 52.1873 64.322 51.8175 64.1827 51.4555C64.0458 51.0935 63.8897 50.742 63.7215 50.3956C63.551 50.0492 63.3637 49.7133 63.1643 49.3878C62.9626 49.0623 62.7488 48.7472 62.5182 48.4451C62.2901 48.143 62.0475 47.8539 61.7905 47.5753C61.5359 47.2992 61.2693 47.0362 60.9883 46.7862C60.7097 46.5388 60.4191 46.3044 60.1188 46.0883C59.8186 45.8696 59.5088 45.669 59.1917 45.4841C58.8723 45.2992 58.5456 45.1326 58.2118 44.9815C57.8779 44.8305 57.5393 44.7003 57.1934 44.5857C56.8476 44.4711 56.4969 44.3774 56.1414 44.2992C55.7884 44.2237 55.4305 44.1664 55.0702 44.1274C54.7124 44.0883 54.3521 44.0701 53.9894 44.0701ZM53.9894 66.3305C53.365 66.3305 52.7477 66.2654 52.1376 66.1326C51.5252 65.9998 50.9319 65.8045 50.3555 65.5467C49.7791 65.2888 49.2314 64.9711 48.7151 64.5961C48.1963 64.2185 47.7159 63.7941 47.274 63.3149C46.8344 62.8357 46.4405 62.3175 46.0947 61.755C45.7488 61.1925 45.4558 60.5987 45.2156 59.9737C44.9778 59.3513 44.7977 58.7055 44.6752 58.044C44.5551 57.38 44.4951 56.7107 44.4951 56.0336C44.4951 55.3591 44.5551 54.6899 44.6752 54.0258C44.7977 53.3617 44.9778 52.7185 45.2156 52.0935C45.4558 51.4711 45.7488 50.8774 46.0947 50.3149C46.4405 49.7524 46.8344 49.2315 47.274 48.755C47.7159 48.2758 48.1963 47.8487 48.7151 47.4737C49.2314 47.0987 49.7791 46.781 50.3555 46.5232C50.9319 46.2628 51.5252 46.0675 52.1376 45.9373C52.7477 45.8044 53.365 45.7393 53.9894 45.7393C54.6139 45.7393 55.2312 45.8044 55.8412 45.9373C56.4537 46.0675 57.0469 46.2628 57.6234 46.5232C58.1998 46.781 58.7474 47.0987 59.2662 47.4737C59.7826 47.8487 60.2629 48.2758 60.7049 48.755C61.1444 49.2315 61.5383 49.7524 61.8842 50.3149C62.2324 50.8774 62.523 51.4711 62.7632 52.0935C63.001 52.7185 63.1811 53.3617 63.3036 54.0258C63.4237 54.6899 63.4862 55.3591 63.4862 56.0336C63.4838 56.7107 63.4237 57.38 63.3012 58.044C63.1811 58.7055 62.9986 59.3487 62.7608 59.9737C62.523 60.5987 62.23 61.1925 61.8842 61.7524C61.5359 62.3149 61.1444 62.8357 60.7025 63.3123C60.2605 63.7914 59.7826 64.2185 59.2638 64.5935C58.745 64.9685 58.1974 65.2862 57.6234 65.5441C57.0469 65.8045 56.4537 65.9998 55.8412 66.1326C55.2312 66.2628 54.6139 66.3305 53.9894 66.3305Z"/>
</mask>
<path fill-rule="evenodd" clip-rule="evenodd" d="M53.9894 44.0701C53.6292 44.0701 53.2665 44.0883 52.9086 44.1274C52.5483 44.1664 52.1905 44.2237 51.8374 44.2992C51.4819 44.3748 51.1313 44.4711 50.7854 44.5857C50.4396 44.6977 50.1009 44.8305 49.767 44.9789C49.4332 45.13 49.1066 45.2966 48.7871 45.4815C48.4677 45.6664 48.1602 45.8669 47.8576 46.0857C47.5574 46.3044 47.2692 46.5362 46.9882 46.7862C46.7095 47.0336 46.4429 47.2966 46.186 47.5727C45.9314 47.8513 45.6888 48.1404 45.4582 48.4451C45.23 48.7472 45.0139 49.0623 44.8145 49.3878C44.6128 49.7133 44.4278 50.0492 44.2573 50.393C44.0868 50.7393 43.9331 51.0935 43.7938 51.4555C43.6569 51.8175 43.5344 52.1873 43.4287 52.5623C43.3254 52.9373 43.2365 53.3149 43.1669 53.7003C43.0948 54.0857 43.042 54.4711 43.0084 54.8617C42.9723 55.2524 42.9531 55.643 42.9531 56.0336C42.9531 56.4269 42.9723 56.8175 43.0084 57.2081C43.042 57.5987 43.0948 57.9841 43.1669 58.3696C43.2365 58.7524 43.3254 59.1326 43.4287 59.5076C43.5344 59.8826 43.6569 60.2524 43.7938 60.6144C43.9331 60.9763 44.0868 61.3305 44.2573 61.6743C44.4278 62.0206 44.6128 62.3566 44.8145 62.6821C45.0139 63.0076 45.23 63.3227 45.4582 63.6248C45.6888 63.9295 45.9314 64.2185 46.186 64.4946C46.4429 64.7732 46.7095 65.0362 46.9882 65.2836C47.2692 65.5336 47.5574 65.7654 47.8576 65.9842C48.1602 66.2003 48.4677 66.4034 48.7871 66.5883C49.1066 66.7706 49.4332 66.9399 49.767 67.0883C50.1009 67.2394 50.4396 67.3722 50.7854 67.4842C51.1313 67.5987 51.4819 67.6925 51.8374 67.7706C52.1905 67.8461 52.5483 67.9034 52.9086 67.9425C53.2665 67.9816 53.6292 67.9998 53.9894 67.9998C54.3521 67.9998 54.7124 67.9816 55.0702 67.9425C55.4305 67.9034 55.7884 67.8461 56.1414 67.7706C56.4969 67.6925 56.8476 67.5987 57.1934 67.4842C57.5393 67.3722 57.8779 67.2394 58.2118 67.0883C58.5456 66.9399 58.8723 66.7706 59.1917 66.5883C59.5112 66.4034 59.821 66.2003 60.1212 65.9842C60.4215 65.7654 60.7121 65.5336 60.9907 65.2836C61.2693 65.0362 61.5383 64.7732 61.7929 64.4946C62.0475 64.2185 62.2901 63.9295 62.5206 63.6248C62.7488 63.3227 62.965 63.0076 63.1643 62.6821C63.3661 62.3566 63.551 62.0206 63.7215 61.6743C63.8921 61.3305 64.0458 60.9763 64.1851 60.6144C64.3244 60.2524 64.4445 59.8826 64.5502 59.5076C64.6558 59.1326 64.7423 58.7524 64.812 58.3696C64.884 57.9841 64.9369 57.5987 64.9729 57.2081C65.0065 56.8175 65.0257 56.4269 65.0257 56.0336C65.0257 55.643 65.0065 55.2524 64.9705 54.8617C64.9369 54.4711 64.8816 54.0857 64.812 53.7003C64.7423 53.3175 64.6534 52.9373 64.5478 52.5623C64.4445 52.1873 64.322 51.8175 64.1827 51.4555C64.0458 51.0935 63.8897 50.742 63.7215 50.3956C63.551 50.0492 63.3637 49.7133 63.1643 49.3878C62.9626 49.0623 62.7488 48.7472 62.5182 48.4451C62.2901 48.143 62.0475 47.8539 61.7905 47.5753C61.5359 47.2992 61.2693 47.0362 60.9883 46.7862C60.7097 46.5388 60.4191 46.3044 60.1188 46.0883C59.8186 45.8696 59.5088 45.669 59.1917 45.4841C58.8723 45.2992 58.5456 45.1326 58.2118 44.9815C57.8779 44.8305 57.5393 44.7003 57.1934 44.5857C56.8476 44.4711 56.4969 44.3774 56.1414 44.2992C55.7884 44.2237 55.4305 44.1664 55.0702 44.1274C54.7124 44.0883 54.3521 44.0701 53.9894 44.0701ZM53.9894 66.3305C53.365 66.3305 52.7477 66.2654 52.1376 66.1326C51.5252 65.9998 50.9319 65.8045 50.3555 65.5467C49.7791 65.2888 49.2314 64.9711 48.7151 64.5961C48.1963 64.2185 47.7159 63.7941 47.274 63.3149C46.8344 62.8357 46.4405 62.3175 46.0947 61.755C45.7488 61.1925 45.4558 60.5987 45.2156 59.9737C44.9778 59.3513 44.7977 58.7055 44.6752 58.044C44.5551 57.38 44.4951 56.7107 44.4951 56.0336C44.4951 55.3591 44.5551 54.6899 44.6752 54.0258C44.7977 53.3617 44.9778 52.7185 45.2156 52.0935C45.4558 51.4711 45.7488 50.8774 46.0947 50.3149C46.4405 49.7524 46.8344 49.2315 47.274 48.755C47.7159 48.2758 48.1963 47.8487 48.7151 47.4737C49.2314 47.0987 49.7791 46.781 50.3555 46.5232C50.9319 46.2628 51.5252 46.0675 52.1376 45.9373C52.7477 45.8044 53.365 45.7393 53.9894 45.7393C54.6139 45.7393 55.2312 45.8044 55.8412 45.9373C56.4537 46.0675 57.0469 46.2628 57.6234 46.5232C58.1998 46.781 58.7474 47.0987 59.2662 47.4737C59.7826 47.8487 60.2629 48.2758 60.7049 48.755C61.1444 49.2315 61.5383 49.7524 61.8842 50.3149C62.2324 50.8774 62.523 51.4711 62.7632 52.0935C63.001 52.7185 63.1811 53.3617 63.3036 54.0258C63.4237 54.6899 63.4862 55.3591 63.4862 56.0336C63.4838 56.7107 63.4237 57.38 63.3012 58.044C63.1811 58.7055 62.9986 59.3487 62.7608 59.9737C62.523 60.5987 62.23 61.1925 61.8842 61.7524C61.5359 62.3149 61.1444 62.8357 60.7025 63.3123C60.2605 63.7914 59.7826 64.2185 59.2638 64.5935C58.745 64.9685 58.1974 65.2862 57.6234 65.5441C57.0469 65.8045 56.4537 65.9998 55.8412 66.1326C55.2312 66.2628 54.6139 66.3305 53.9894 66.3305Z" fill="#0D313B"/>
<path fill-rule="evenodd" clip-rule="evenodd" d="M53.9894 44.0701C53.6292 44.0701 53.2665 44.0883 52.9086 44.1274C52.5483 44.1664 52.1905 44.2237 51.8374 44.2992C51.4819 44.3748 51.1313 44.4711 50.7854 44.5857C50.4396 44.6977 50.1009 44.8305 49.767 44.9789C49.4332 45.13 49.1066 45.2966 48.7871 45.4815C48.4677 45.6664 48.1602 45.8669 47.8576 46.0857C47.5574 46.3044 47.2692 46.5362 46.9882 46.7862C46.7095 47.0336 46.4429 47.2966 46.186 47.5727C45.9314 47.8513 45.6888 48.1404 45.4582 48.4451C45.23 48.7472 45.0139 49.0623 44.8145 49.3878C44.6128 49.7133 44.4278 50.0492 44.2573 50.393C44.0868 50.7393 43.9331 51.0935 43.7938 51.4555C43.6569 51.8175 43.5344 52.1873 43.4287 52.5623C43.3254 52.9373 43.2365 53.3149 43.1669 53.7003C43.0948 54.0857 43.042 54.4711 43.0084 54.8617C42.9723 55.2524 42.9531 55.643 42.9531 56.0336C42.9531 56.4269 42.9723 56.8175 43.0084 57.2081C43.042 57.5987 43.0948 57.9841 43.1669 58.3696C43.2365 58.7524 43.3254 59.1326 43.4287 59.5076C43.5344 59.8826 43.6569 60.2524 43.7938 60.6144C43.9331 60.9763 44.0868 61.3305 44.2573 61.6743C44.4278 62.0206 44.6128 62.3566 44.8145 62.6821C45.0139 63.0076 45.23 63.3227 45.4582 63.6248C45.6888 63.9295 45.9314 64.2185 46.186 64.4946C46.4429 64.7732 46.7095 65.0362 46.9882 65.2836C47.2692 65.5336 47.5574 65.7654 47.8576 65.9842C48.1602 66.2003 48.4677 66.4034 48.7871 66.5883C49.1066 66.7706 49.4332 66.9399 49.767 67.0883C50.1009 67.2394 50.4396 67.3722 50.7854 67.4842C51.1313 67.5987 51.4819 67.6925 51.8374 67.7706C52.1905 67.8461 52.5483 67.9034 52.9086 67.9425C53.2665 67.9816 53.6292 67.9998 53.9894 67.9998C54.3521 67.9998 54.7124 67.9816 55.0702 67.9425C55.4305 67.9034 55.7884 67.8461 56.1414 67.7706C56.4969 67.6925 56.8476 67.5987 57.1934 67.4842C57.5393 67.3722 57.8779 67.2394 58.2118 67.0883C58.5456 66.9399 58.8723 66.7706 59.1917 66.5883C59.5112 66.4034 59.821 66.2003 60.1212 65.9842C60.4215 65.7654 60.7121 65.5336 60.9907 65.2836C61.2693 65.0362 61.5383 64.7732 61.7929 64.4946C62.0475 64.2185 62.2901 63.9295 62.5206 63.6248C62.7488 63.3227 62.965 63.0076 63.1643 62.6821C63.3661 62.3566 63.551 62.0206 63.7215 61.6743C63.8921 61.3305 64.0458 60.9763 64.1851 60.6144C64.3244 60.2524 64.4445 59.8826 64.5502 59.5076C64.6558 59.1326 64.7423 58.7524 64.812 58.3696C64.884 57.9841 64.9369 57.5987 64.9729 57.2081C65.0065 56.8175 65.0257 56.4269 65.0257 56.0336C65.0257 55.643 65.0065 55.2524 64.9705 54.8617C64.9369 54.4711 64.8816 54.0857 64.812 53.7003C64.7423 53.3175 64.6534 52.9373 64.5478 52.5623C64.4445 52.1873 64.322 51.8175 64.1827 51.4555C64.0458 51.0935 63.8897 50.742 63.7215 50.3956C63.551 50.0492 63.3637 49.7133 63.1643 49.3878C62.9626 49.0623 62.7488 48.7472 62.5182 48.4451C62.2901 48.143 62.0475 47.8539 61.7905 47.5753C61.5359 47.2992 61.2693 47.0362 60.9883 46.7862C60.7097 46.5388 60.4191 46.3044 60.1188 46.0883C59.8186 45.8696 59.5088 45.669 59.1917 45.4841C58.8723 45.2992 58.5456 45.1326 58.2118 44.9815C57.8779 44.8305 57.5393 44.7003 57.1934 44.5857C56.8476 44.4711 56.4969 44.3774 56.1414 44.2992C55.7884 44.2237 55.4305 44.1664 55.0702 44.1274C54.7124 44.0883 54.3521 44.0701 53.9894 44.0701ZM53.9894 66.3305C53.365 66.3305 52.7477 66.2654 52.1376 66.1326C51.5252 65.9998 50.9319 65.8045 50.3555 65.5467C49.7791 65.2888 49.2314 64.9711 48.7151 64.5961C48.1963 64.2185 47.7159 63.7941 47.274 63.3149C46.8344 62.8357 46.4405 62.3175 46.0947 61.755C45.7488 61.1925 45.4558 60.5987 45.2156 59.9737C44.9778 59.3513 44.7977 58.7055 44.6752 58.044C44.5551 57.38 44.4951 56.7107 44.4951 56.0336C44.4951 55.3591 44.5551 54.6899 44.6752 54.0258C44.7977 53.3617 44.9778 52.7185 45.2156 52.0935C45.4558 51.4711 45.7488 50.8774 46.0947 50.3149C46.4405 49.7524 46.8344 49.2315 47.274 48.755C47.7159 48.2758 48.1963 47.8487 48.7151 47.4737C49.2314 47.0987 49.7791 46.781 50.3555 46.5232C50.9319 46.2628 51.5252 46.0675 52.1376 45.9373C52.7477 45.8044 53.365 45.7393 53.9894 45.7393C54.6139 45.7393 55.2312 45.8044 55.8412 45.9373C56.4537 46.0675 57.0469 46.2628 57.6234 46.5232C58.1998 46.781 58.7474 47.0987 59.2662 47.4737C59.7826 47.8487 60.2629 48.2758 60.7049 48.755C61.1444 49.2315 61.5383 49.7524 61.8842 50.3149C62.2324 50.8774 62.523 51.4711 62.7632 52.0935C63.001 52.7185 63.1811 53.3617 63.3036 54.0258C63.4237 54.6899 63.4862 55.3591 63.4862 56.0336C63.4838 56.7107 63.4237 57.38 63.3012 58.044C63.1811 58.7055 62.9986 59.3487 62.7608 59.9737C62.523 60.5987 62.23 61.1925 61.8842 61.7524C61.5359 62.3149 61.1444 62.8357 60.7025 63.3123C60.2605 63.7914 59.7826 64.2185 59.2638 64.5935C58.745 64.9685 58.1974 65.2862 57.6234 65.5441C57.0469 65.8045 56.4537 65.9998 55.8412 66.1326C55.2312 66.2628 54.6139 66.3305 53.9894 66.3305Z" stroke="#0D313B" stroke-width="0.205714" mask="url(#path-5-outside-2_5978_45459)"/>
</g>
</g>
<g id="Vector_3">
<mask id="path-6-outside-3_5978_45459" maskUnits="userSpaceOnUse" x="27.5898" y="9.677" width="15" height="17" fill="black">
<rect fill="white" x="27.5898" y="9.677" width="15" height="17"/>
<path fill-rule="evenodd" clip-rule="evenodd" d="M35.5191 10.677C35.0627 10.677 34.6136 10.7265 34.1668 10.8228C33.7201 10.9192 33.2878 11.0624 32.8675 11.2499C32.4471 11.44 32.046 11.6692 31.669 11.9452C31.2895 12.2187 30.9412 12.5312 30.6194 12.8775C30.2975 13.2265 30.0093 13.6067 29.7571 14.0182C29.5049 14.427 29.2912 14.8593 29.1158 15.315C28.9429 15.7708 28.8108 16.2421 28.7219 16.7265C28.6331 17.2083 28.5898 17.6978 28.5898 18.19C28.5898 18.6848 28.6331 19.1744 28.7219 19.6562C28.8108 20.1406 28.9429 20.6119 29.1158 21.0676C29.2912 21.5234 29.5049 21.9557 29.7571 22.3645C30.0093 22.776 30.2975 23.1562 30.6194 23.5051C30.9412 23.8515 31.2895 24.164 31.669 24.4374C32.046 24.7135 32.4471 24.9426 32.8675 25.1328C33.2878 25.3203 33.7201 25.4635 34.1668 25.5598C34.6136 25.6562 35.0627 25.7057 35.5191 25.7057C35.973 25.7057 36.4245 25.6562 36.8713 25.5598C37.3156 25.4635 37.7503 25.3203 38.1706 25.1328C38.591 24.9426 38.9897 24.7135 39.3691 24.4374C39.7462 24.164 40.0969 23.8515 40.4187 23.5051C40.7406 23.1562 41.0264 22.776 41.2786 22.3645C41.5332 21.9557 41.7469 21.5234 41.9199 21.0676C42.0952 20.6119 42.2249 20.1406 42.3138 19.6562C42.4026 19.1744 42.4483 18.6848 42.4483 18.19C42.4483 17.6978 42.4026 17.2109 42.3138 16.7265C42.2249 16.2421 42.0928 15.7734 41.9199 15.3176C41.7445 14.8619 41.5308 14.4296 41.2786 14.0182C41.0264 13.6093 40.7382 13.2291 40.4163 12.8801C40.0945 12.5312 39.7462 12.2187 39.3667 11.9452C38.9897 11.6718 38.5886 11.44 38.1682 11.2525C37.7503 11.0624 37.3156 10.9192 36.8689 10.8228C36.4245 10.7265 35.973 10.6796 35.5191 10.677ZM35.5191 24.0338C35.1636 24.0338 34.8129 23.9973 34.4671 23.9218C34.1188 23.8489 33.7825 23.7369 33.4559 23.5911C33.1293 23.4426 32.8194 23.263 32.524 23.0494C32.231 22.8359 31.9572 22.5937 31.7074 22.3229C31.4576 22.052 31.2342 21.7577 31.0373 21.4374C30.8403 21.1197 30.6746 20.7812 30.5401 20.427C30.4032 20.0728 30.3023 19.7083 30.2327 19.3307C30.163 18.9557 30.1294 18.5755 30.1294 18.19C30.1294 17.8072 30.163 17.427 30.2327 17.052C30.3023 16.6744 30.4032 16.3098 30.5401 15.9557C30.6746 15.6015 30.8403 15.2629 31.0373 14.9452C31.2342 14.6249 31.4576 14.3307 31.7074 14.0598C31.9572 13.789 32.231 13.5468 32.524 13.3333C32.8194 13.1197 33.1293 12.94 33.4559 12.7916C33.7825 12.6458 34.1188 12.5338 34.4671 12.4609C34.8129 12.3853 35.1636 12.3489 35.5191 12.3489C35.8721 12.3489 36.2228 12.3853 36.5686 12.4609C36.9169 12.5338 37.2532 12.6458 37.5798 12.7916C37.9088 12.94 38.2187 13.1197 38.5117 13.3333C38.8071 13.5468 39.0785 13.789 39.3283 14.0598C39.5805 14.3307 39.8039 14.6249 39.9984 14.9452C40.1954 15.2629 40.3611 15.6015 40.498 15.9557C40.6325 16.3098 40.7358 16.6744 40.803 17.052C40.8727 17.427 40.9087 17.8072 40.9087 18.19C40.9087 18.5755 40.8727 18.9557 40.803 19.3307C40.7358 19.7083 40.6325 20.0728 40.498 20.427C40.3611 20.7812 40.1954 21.1171 39.9984 21.4374C39.8015 21.7551 39.5781 22.052 39.3283 22.3229C39.0785 22.5937 38.8071 22.8359 38.5117 23.0494C38.2187 23.263 37.9064 23.4426 37.5798 23.5885C37.2532 23.7369 36.9169 23.8463 36.5686 23.9218C36.2228 23.9973 35.8721 24.0338 35.5191 24.0338Z"/>
</mask>
<path fill-rule="evenodd" clip-rule="evenodd" d="M35.5191 10.677C35.0627 10.677 34.6136 10.7265 34.1668 10.8228C33.7201 10.9192 33.2878 11.0624 32.8675 11.2499C32.4471 11.44 32.046 11.6692 31.669 11.9452C31.2895 12.2187 30.9412 12.5312 30.6194 12.8775C30.2975 13.2265 30.0093 13.6067 29.7571 14.0182C29.5049 14.427 29.2912 14.8593 29.1158 15.315C28.9429 15.7708 28.8108 16.2421 28.7219 16.7265C28.6331 17.2083 28.5898 17.6978 28.5898 18.19C28.5898 18.6848 28.6331 19.1744 28.7219 19.6562C28.8108 20.1406 28.9429 20.6119 29.1158 21.0676C29.2912 21.5234 29.5049 21.9557 29.7571 22.3645C30.0093 22.776 30.2975 23.1562 30.6194 23.5051C30.9412 23.8515 31.2895 24.164 31.669 24.4374C32.046 24.7135 32.4471 24.9426 32.8675 25.1328C33.2878 25.3203 33.7201 25.4635 34.1668 25.5598C34.6136 25.6562 35.0627 25.7057 35.5191 25.7057C35.973 25.7057 36.4245 25.6562 36.8713 25.5598C37.3156 25.4635 37.7503 25.3203 38.1706 25.1328C38.591 24.9426 38.9897 24.7135 39.3691 24.4374C39.7462 24.164 40.0969 23.8515 40.4187 23.5051C40.7406 23.1562 41.0264 22.776 41.2786 22.3645C41.5332 21.9557 41.7469 21.5234 41.9199 21.0676C42.0952 20.6119 42.2249 20.1406 42.3138 19.6562C42.4026 19.1744 42.4483 18.6848 42.4483 18.19C42.4483 17.6978 42.4026 17.2109 42.3138 16.7265C42.2249 16.2421 42.0928 15.7734 41.9199 15.3176C41.7445 14.8619 41.5308 14.4296 41.2786 14.0182C41.0264 13.6093 40.7382 13.2291 40.4163 12.8801C40.0945 12.5312 39.7462 12.2187 39.3667 11.9452C38.9897 11.6718 38.5886 11.44 38.1682 11.2525C37.7503 11.0624 37.3156 10.9192 36.8689 10.8228C36.4245 10.7265 35.973 10.6796 35.5191 10.677ZM35.5191 24.0338C35.1636 24.0338 34.8129 23.9973 34.4671 23.9218C34.1188 23.8489 33.7825 23.7369 33.4559 23.5911C33.1293 23.4426 32.8194 23.263 32.524 23.0494C32.231 22.8359 31.9572 22.5937 31.7074 22.3229C31.4576 22.052 31.2342 21.7577 31.0373 21.4374C30.8403 21.1197 30.6746 20.7812 30.5401 20.427C30.4032 20.0728 30.3023 19.7083 30.2327 19.3307C30.163 18.9557 30.1294 18.5755 30.1294 18.19C30.1294 17.8072 30.163 17.427 30.2327 17.052C30.3023 16.6744 30.4032 16.3098 30.5401 15.9557C30.6746 15.6015 30.8403 15.2629 31.0373 14.9452C31.2342 14.6249 31.4576 14.3307 31.7074 14.0598C31.9572 13.789 32.231 13.5468 32.524 13.3333C32.8194 13.1197 33.1293 12.94 33.4559 12.7916C33.7825 12.6458 34.1188 12.5338 34.4671 12.4609C34.8129 12.3853 35.1636 12.3489 35.5191 12.3489C35.8721 12.3489 36.2228 12.3853 36.5686 12.4609C36.9169 12.5338 37.2532 12.6458 37.5798 12.7916C37.9088 12.94 38.2187 13.1197 38.5117 13.3333C38.8071 13.5468 39.0785 13.789 39.3283 14.0598C39.5805 14.3307 39.8039 14.6249 39.9984 14.9452C40.1954 15.2629 40.3611 15.6015 40.498 15.9557C40.6325 16.3098 40.7358 16.6744 40.803 17.052C40.8727 17.427 40.9087 17.8072 40.9087 18.19C40.9087 18.5755 40.8727 18.9557 40.803 19.3307C40.7358 19.7083 40.6325 20.0728 40.498 20.427C40.3611 20.7812 40.1954 21.1171 39.9984 21.4374C39.8015 21.7551 39.5781 22.052 39.3283 22.3229C39.0785 22.5937 38.8071 22.8359 38.5117 23.0494C38.2187 23.263 37.9064 23.4426 37.5798 23.5885C37.2532 23.7369 36.9169 23.8463 36.5686 23.9218C36.2228 23.9973 35.8721 24.0338 35.5191 24.0338Z" fill="#0D313B"/>
<path fill-rule="evenodd" clip-rule="evenodd" d="M35.5191 10.677C35.0627 10.677 34.6136 10.7265 34.1668 10.8228C33.7201 10.9192 33.2878 11.0624 32.8675 11.2499C32.4471 11.44 32.046 11.6692 31.669 11.9452C31.2895 12.2187 30.9412 12.5312 30.6194 12.8775C30.2975 13.2265 30.0093 13.6067 29.7571 14.0182C29.5049 14.427 29.2912 14.8593 29.1158 15.315C28.9429 15.7708 28.8108 16.2421 28.7219 16.7265C28.6331 17.2083 28.5898 17.6978 28.5898 18.19C28.5898 18.6848 28.6331 19.1744 28.7219 19.6562C28.8108 20.1406 28.9429 20.6119 29.1158 21.0676C29.2912 21.5234 29.5049 21.9557 29.7571 22.3645C30.0093 22.776 30.2975 23.1562 30.6194 23.5051C30.9412 23.8515 31.2895 24.164 31.669 24.4374C32.046 24.7135 32.4471 24.9426 32.8675 25.1328C33.2878 25.3203 33.7201 25.4635 34.1668 25.5598C34.6136 25.6562 35.0627 25.7057 35.5191 25.7057C35.973 25.7057 36.4245 25.6562 36.8713 25.5598C37.3156 25.4635 37.7503 25.3203 38.1706 25.1328C38.591 24.9426 38.9897 24.7135 39.3691 24.4374C39.7462 24.164 40.0969 23.8515 40.4187 23.5051C40.7406 23.1562 41.0264 22.776 41.2786 22.3645C41.5332 21.9557 41.7469 21.5234 41.9199 21.0676C42.0952 20.6119 42.2249 20.1406 42.3138 19.6562C42.4026 19.1744 42.4483 18.6848 42.4483 18.19C42.4483 17.6978 42.4026 17.2109 42.3138 16.7265C42.2249 16.2421 42.0928 15.7734 41.9199 15.3176C41.7445 14.8619 41.5308 14.4296 41.2786 14.0182C41.0264 13.6093 40.7382 13.2291 40.4163 12.8801C40.0945 12.5312 39.7462 12.2187 39.3667 11.9452C38.9897 11.6718 38.5886 11.44 38.1682 11.2525C37.7503 11.0624 37.3156 10.9192 36.8689 10.8228C36.4245 10.7265 35.973 10.6796 35.5191 10.677ZM35.5191 24.0338C35.1636 24.0338 34.8129 23.9973 34.4671 23.9218C34.1188 23.8489 33.7825 23.7369 33.4559 23.5911C33.1293 23.4426 32.8194 23.263 32.524 23.0494C32.231 22.8359 31.9572 22.5937 31.7074 22.3229C31.4576 22.052 31.2342 21.7577 31.0373 21.4374C30.8403 21.1197 30.6746 20.7812 30.5401 20.427C30.4032 20.0728 30.3023 19.7083 30.2327 19.3307C30.163 18.9557 30.1294 18.5755 30.1294 18.19C30.1294 17.8072 30.163 17.427 30.2327 17.052C30.3023 16.6744 30.4032 16.3098 30.5401 15.9557C30.6746 15.6015 30.8403 15.2629 31.0373 14.9452C31.2342 14.6249 31.4576 14.3307 31.7074 14.0598C31.9572 13.789 32.231 13.5468 32.524 13.3333C32.8194 13.1197 33.1293 12.94 33.4559 12.7916C33.7825 12.6458 34.1188 12.5338 34.4671 12.4609C34.8129 12.3853 35.1636 12.3489 35.5191 12.3489C35.8721 12.3489 36.2228 12.3853 36.5686 12.4609C36.9169 12.5338 37.2532 12.6458 37.5798 12.7916C37.9088 12.94 38.2187 13.1197 38.5117 13.3333C38.8071 13.5468 39.0785 13.789 39.3283 14.0598C39.5805 14.3307 39.8039 14.6249 39.9984 14.9452C40.1954 15.2629 40.3611 15.6015 40.498 15.9557C40.6325 16.3098 40.7358 16.6744 40.803 17.052C40.8727 17.427 40.9087 17.8072 40.9087 18.19C40.9087 18.5755 40.8727 18.9557 40.803 19.3307C40.7358 19.7083 40.6325 20.0728 40.498 20.427C40.3611 20.7812 40.1954 21.1171 39.9984 21.4374C39.8015 21.7551 39.5781 22.052 39.3283 22.3229C39.0785 22.5937 38.8071 22.8359 38.5117 23.0494C38.2187 23.263 37.9064 23.4426 37.5798 23.5885C37.2532 23.7369 36.9169 23.8463 36.5686 23.9218C36.2228 23.9973 35.8721 24.0338 35.5191 24.0338Z" stroke="#0D313B" stroke-width="0.205714" mask="url(#path-6-outside-3_5978_45459)"/>
</g>
<g id="Vector_4">
<mask id="path-7-outside-4_5978_45459" maskUnits="userSpaceOnUse" x="12.6914" y="47.6223" width="8" height="16" fill="black">
<rect fill="white" x="12.6914" y="47.6223" width="8" height="16"/>
<path fill-rule="evenodd" clip-rule="evenodd" d="M17.0347 51.2838C17.2749 51.2838 17.5055 51.3333 17.7264 51.4348C17.9474 51.5338 18.142 51.6744 18.3125 51.8593C18.4806 52.0416 18.6103 52.2525 18.704 52.4921C18.7952 52.7317 18.8409 52.9817 18.8409 53.2421C18.8409 53.3515 18.8601 53.4583 18.8985 53.5624C18.9394 53.664 18.9946 53.7525 19.0666 53.8307C19.1387 53.9088 19.2204 53.9713 19.3164 54.0129C19.4101 54.0546 19.5086 54.0754 19.6095 54.0754C19.7127 54.0754 19.8112 54.0546 19.9049 54.0129C19.9985 53.9713 20.0826 53.9088 20.1547 53.8307C20.2267 53.7525 20.282 53.664 20.3204 53.5624C20.3612 53.4583 20.3804 53.3515 20.3804 53.2421C20.3804 52.8333 20.318 52.4374 20.1955 52.052C20.0706 51.6666 19.8929 51.3124 19.6575 50.9921C19.4245 50.6718 19.1483 50.401 18.8313 50.1822C18.5142 49.9635 18.1708 49.8046 17.8057 49.7109V49.4583C17.8057 49.3463 17.7865 49.2395 17.7457 49.1379C17.7072 49.0364 17.652 48.9452 17.5799 48.8671C17.5079 48.789 17.4238 48.7291 17.3301 48.6874C17.2365 48.6431 17.138 48.6223 17.0347 48.6223C16.9338 48.6223 16.8354 48.6431 16.7417 48.6874C16.6456 48.7291 16.564 48.789 16.4919 48.8671C16.4199 48.9452 16.3622 49.0364 16.3238 49.1379C16.2854 49.2395 16.2661 49.3463 16.2661 49.4583V49.7109C15.8674 49.815 15.4976 49.9895 15.1589 50.2395C14.8203 50.4895 14.532 50.7968 14.2967 51.1614C14.0613 51.5234 13.8956 51.9218 13.7947 52.3541C13.6938 52.7838 13.6674 53.2187 13.7154 53.6614C13.7635 54.1015 13.8811 54.5208 14.0709 54.914C14.2582 55.3098 14.5056 55.6536 14.813 55.9505C15.1181 56.2447 15.4639 56.4713 15.8458 56.6301C16.2301 56.789 16.6264 56.8671 17.0347 56.8697C17.2749 56.8671 17.5055 56.9192 17.7264 57.0182C17.9474 57.1171 18.1444 57.2577 18.3125 57.4426C18.483 57.6249 18.6127 57.8359 18.704 58.0781C18.7952 58.3176 18.8433 58.5676 18.8433 58.8255C18.8433 59.0859 18.7976 59.3359 18.704 59.5755C18.6127 59.815 18.483 60.026 18.3125 60.2109C18.1444 60.3932 17.9498 60.5364 17.7288 60.6354C17.5055 60.7343 17.2749 60.7838 17.0371 60.7838C16.7969 60.7838 16.5664 60.7343 16.3454 60.6354C16.1244 60.5364 15.9275 60.3932 15.7594 60.2109C15.5888 60.026 15.4591 59.815 15.3679 59.5755C15.2766 59.3359 15.231 59.0859 15.231 58.8255C15.231 58.7135 15.2117 58.6093 15.1733 58.5051C15.1325 58.4036 15.0772 58.3124 15.0052 58.2343C14.9331 58.1562 14.8491 58.0963 14.7554 58.0546C14.6617 58.0104 14.5633 57.9895 14.46 57.9895C14.3591 57.9895 14.2606 58.0104 14.167 58.0546C14.0709 58.0963 13.9892 58.1562 13.9172 58.2343C13.8451 58.3124 13.7899 58.4036 13.749 58.5051C13.7106 58.6093 13.6914 58.7135 13.6914 58.8255C13.6914 59.2343 13.7539 59.6301 13.8763 60.0156C14.0012 60.401 14.179 60.7551 14.4119 61.0755C14.6473 61.3958 14.9211 61.6666 15.2406 61.8854C15.5576 62.1041 15.8987 62.2604 16.2661 62.3567V62.6119C16.2661 62.7213 16.2854 62.8281 16.3238 62.9322C16.3622 63.0338 16.4199 63.1249 16.4919 63.2031C16.564 63.2812 16.6456 63.3411 16.7417 63.3828C16.8354 63.4244 16.9338 63.4479 17.0347 63.4479C17.138 63.4479 17.2365 63.4244 17.3301 63.3828C17.4238 63.3411 17.5079 63.2812 17.5799 63.2031C17.652 63.1249 17.7072 63.0338 17.7457 62.9322C17.7865 62.8281 17.8057 62.7213 17.8057 62.6119V62.3567C18.2044 62.2525 18.5743 62.0781 18.9129 61.8281C19.2516 61.5781 19.5398 61.2708 19.7728 60.9062C20.0082 60.5442 20.1763 60.1458 20.2772 59.7135C20.378 59.2838 20.4045 58.8463 20.3564 58.4062C20.3084 57.9635 20.1907 57.5468 20.0009 57.1536C19.8112 56.7577 19.5638 56.414 19.2588 56.1171C18.9514 55.8228 18.6079 55.5963 18.226 55.4374C17.8417 55.2786 17.4454 55.2004 17.0347 55.1978C16.7969 55.1978 16.5664 55.1484 16.3454 55.0494C16.1244 54.9504 15.9275 54.8098 15.7594 54.6249C15.5888 54.4426 15.4591 54.2317 15.3679 53.9895C15.2766 53.7499 15.231 53.4999 15.231 53.2421C15.231 52.9817 15.2766 52.7317 15.3679 52.4921C15.4591 52.2525 15.5888 52.0416 15.7594 51.8567C15.9275 51.6744 16.1244 51.5338 16.3454 51.4322C16.5664 51.3333 16.7969 51.2838 17.0347 51.2838Z"/>
</mask>
<path fill-rule="evenodd" clip-rule="evenodd" d="M17.0347 51.2838C17.2749 51.2838 17.5055 51.3333 17.7264 51.4348C17.9474 51.5338 18.142 51.6744 18.3125 51.8593C18.4806 52.0416 18.6103 52.2525 18.704 52.4921C18.7952 52.7317 18.8409 52.9817 18.8409 53.2421C18.8409 53.3515 18.8601 53.4583 18.8985 53.5624C18.9394 53.664 18.9946 53.7525 19.0666 53.8307C19.1387 53.9088 19.2204 53.9713 19.3164 54.0129C19.4101 54.0546 19.5086 54.0754 19.6095 54.0754C19.7127 54.0754 19.8112 54.0546 19.9049 54.0129C19.9985 53.9713 20.0826 53.9088 20.1547 53.8307C20.2267 53.7525 20.282 53.664 20.3204 53.5624C20.3612 53.4583 20.3804 53.3515 20.3804 53.2421C20.3804 52.8333 20.318 52.4374 20.1955 52.052C20.0706 51.6666 19.8929 51.3124 19.6575 50.9921C19.4245 50.6718 19.1483 50.401 18.8313 50.1822C18.5142 49.9635 18.1708 49.8046 17.8057 49.7109V49.4583C17.8057 49.3463 17.7865 49.2395 17.7457 49.1379C17.7072 49.0364 17.652 48.9452 17.5799 48.8671C17.5079 48.789 17.4238 48.7291 17.3301 48.6874C17.2365 48.6431 17.138 48.6223 17.0347 48.6223C16.9338 48.6223 16.8354 48.6431 16.7417 48.6874C16.6456 48.7291 16.564 48.789 16.4919 48.8671C16.4199 48.9452 16.3622 49.0364 16.3238 49.1379C16.2854 49.2395 16.2661 49.3463 16.2661 49.4583V49.7109C15.8674 49.815 15.4976 49.9895 15.1589 50.2395C14.8203 50.4895 14.532 50.7968 14.2967 51.1614C14.0613 51.5234 13.8956 51.9218 13.7947 52.3541C13.6938 52.7838 13.6674 53.2187 13.7154 53.6614C13.7635 54.1015 13.8811 54.5208 14.0709 54.914C14.2582 55.3098 14.5056 55.6536 14.813 55.9505C15.1181 56.2447 15.4639 56.4713 15.8458 56.6301C16.2301 56.789 16.6264 56.8671 17.0347 56.8697C17.2749 56.8671 17.5055 56.9192 17.7264 57.0182C17.9474 57.1171 18.1444 57.2577 18.3125 57.4426C18.483 57.6249 18.6127 57.8359 18.704 58.0781C18.7952 58.3176 18.8433 58.5676 18.8433 58.8255C18.8433 59.0859 18.7976 59.3359 18.704 59.5755C18.6127 59.815 18.483 60.026 18.3125 60.2109C18.1444 60.3932 17.9498 60.5364 17.7288 60.6354C17.5055 60.7343 17.2749 60.7838 17.0371 60.7838C16.7969 60.7838 16.5664 60.7343 16.3454 60.6354C16.1244 60.5364 15.9275 60.3932 15.7594 60.2109C15.5888 60.026 15.4591 59.815 15.3679 59.5755C15.2766 59.3359 15.231 59.0859 15.231 58.8255C15.231 58.7135 15.2117 58.6093 15.1733 58.5051C15.1325 58.4036 15.0772 58.3124 15.0052 58.2343C14.9331 58.1562 14.8491 58.0963 14.7554 58.0546C14.6617 58.0104 14.5633 57.9895 14.46 57.9895C14.3591 57.9895 14.2606 58.0104 14.167 58.0546C14.0709 58.0963 13.9892 58.1562 13.9172 58.2343C13.8451 58.3124 13.7899 58.4036 13.749 58.5051C13.7106 58.6093 13.6914 58.7135 13.6914 58.8255C13.6914 59.2343 13.7539 59.6301 13.8763 60.0156C14.0012 60.401 14.179 60.7551 14.4119 61.0755C14.6473 61.3958 14.9211 61.6666 15.2406 61.8854C15.5576 62.1041 15.8987 62.2604 16.2661 62.3567V62.6119C16.2661 62.7213 16.2854 62.8281 16.3238 62.9322C16.3622 63.0338 16.4199 63.1249 16.4919 63.2031C16.564 63.2812 16.6456 63.3411 16.7417 63.3828C16.8354 63.4244 16.9338 63.4479 17.0347 63.4479C17.138 63.4479 17.2365 63.4244 17.3301 63.3828C17.4238 63.3411 17.5079 63.2812 17.5799 63.2031C17.652 63.1249 17.7072 63.0338 17.7457 62.9322C17.7865 62.8281 17.8057 62.7213 17.8057 62.6119V62.3567C18.2044 62.2525 18.5743 62.0781 18.9129 61.8281C19.2516 61.5781 19.5398 61.2708 19.7728 60.9062C20.0082 60.5442 20.1763 60.1458 20.2772 59.7135C20.378 59.2838 20.4045 58.8463 20.3564 58.4062C20.3084 57.9635 20.1907 57.5468 20.0009 57.1536C19.8112 56.7577 19.5638 56.414 19.2588 56.1171C18.9514 55.8228 18.6079 55.5963 18.226 55.4374C17.8417 55.2786 17.4454 55.2004 17.0347 55.1978C16.7969 55.1978 16.5664 55.1484 16.3454 55.0494C16.1244 54.9504 15.9275 54.8098 15.7594 54.6249C15.5888 54.4426 15.4591 54.2317 15.3679 53.9895C15.2766 53.7499 15.231 53.4999 15.231 53.2421C15.231 52.9817 15.2766 52.7317 15.3679 52.4921C15.4591 52.2525 15.5888 52.0416 15.7594 51.8567C15.9275 51.6744 16.1244 51.5338 16.3454 51.4322C16.5664 51.3333 16.7969 51.2838 17.0347 51.2838Z" fill="#0D313B"/>
<path fill-rule="evenodd" clip-rule="evenodd" d="M17.0347 51.2838C17.2749 51.2838 17.5055 51.3333 17.7264 51.4348C17.9474 51.5338 18.142 51.6744 18.3125 51.8593C18.4806 52.0416 18.6103 52.2525 18.704 52.4921C18.7952 52.7317 18.8409 52.9817 18.8409 53.2421C18.8409 53.3515 18.8601 53.4583 18.8985 53.5624C18.9394 53.664 18.9946 53.7525 19.0666 53.8307C19.1387 53.9088 19.2204 53.9713 19.3164 54.0129C19.4101 54.0546 19.5086 54.0754 19.6095 54.0754C19.7127 54.0754 19.8112 54.0546 19.9049 54.0129C19.9985 53.9713 20.0826 53.9088 20.1547 53.8307C20.2267 53.7525 20.282 53.664 20.3204 53.5624C20.3612 53.4583 20.3804 53.3515 20.3804 53.2421C20.3804 52.8333 20.318 52.4374 20.1955 52.052C20.0706 51.6666 19.8929 51.3124 19.6575 50.9921C19.4245 50.6718 19.1483 50.401 18.8313 50.1822C18.5142 49.9635 18.1708 49.8046 17.8057 49.7109V49.4583C17.8057 49.3463 17.7865 49.2395 17.7457 49.1379C17.7072 49.0364 17.652 48.9452 17.5799 48.8671C17.5079 48.789 17.4238 48.7291 17.3301 48.6874C17.2365 48.6431 17.138 48.6223 17.0347 48.6223C16.9338 48.6223 16.8354 48.6431 16.7417 48.6874C16.6456 48.7291 16.564 48.789 16.4919 48.8671C16.4199 48.9452 16.3622 49.0364 16.3238 49.1379C16.2854 49.2395 16.2661 49.3463 16.2661 49.4583V49.7109C15.8674 49.815 15.4976 49.9895 15.1589 50.2395C14.8203 50.4895 14.532 50.7968 14.2967 51.1614C14.0613 51.5234 13.8956 51.9218 13.7947 52.3541C13.6938 52.7838 13.6674 53.2187 13.7154 53.6614C13.7635 54.1015 13.8811 54.5208 14.0709 54.914C14.2582 55.3098 14.5056 55.6536 14.813 55.9505C15.1181 56.2447 15.4639 56.4713 15.8458 56.6301C16.2301 56.789 16.6264 56.8671 17.0347 56.8697C17.2749 56.8671 17.5055 56.9192 17.7264 57.0182C17.9474 57.1171 18.1444 57.2577 18.3125 57.4426C18.483 57.6249 18.6127 57.8359 18.704 58.0781C18.7952 58.3176 18.8433 58.5676 18.8433 58.8255C18.8433 59.0859 18.7976 59.3359 18.704 59.5755C18.6127 59.815 18.483 60.026 18.3125 60.2109C18.1444 60.3932 17.9498 60.5364 17.7288 60.6354C17.5055 60.7343 17.2749 60.7838 17.0371 60.7838C16.7969 60.7838 16.5664 60.7343 16.3454 60.6354C16.1244 60.5364 15.9275 60.3932 15.7594 60.2109C15.5888 60.026 15.4591 59.815 15.3679 59.5755C15.2766 59.3359 15.231 59.0859 15.231 58.8255C15.231 58.7135 15.2117 58.6093 15.1733 58.5051C15.1325 58.4036 15.0772 58.3124 15.0052 58.2343C14.9331 58.1562 14.8491 58.0963 14.7554 58.0546C14.6617 58.0104 14.5633 57.9895 14.46 57.9895C14.3591 57.9895 14.2606 58.0104 14.167 58.0546C14.0709 58.0963 13.9892 58.1562 13.9172 58.2343C13.8451 58.3124 13.7899 58.4036 13.749 58.5051C13.7106 58.6093 13.6914 58.7135 13.6914 58.8255C13.6914 59.2343 13.7539 59.6301 13.8763 60.0156C14.0012 60.401 14.179 60.7551 14.4119 61.0755C14.6473 61.3958 14.9211 61.6666 15.2406 61.8854C15.5576 62.1041 15.8987 62.2604 16.2661 62.3567V62.6119C16.2661 62.7213 16.2854 62.8281 16.3238 62.9322C16.3622 63.0338 16.4199 63.1249 16.4919 63.2031C16.564 63.2812 16.6456 63.3411 16.7417 63.3828C16.8354 63.4244 16.9338 63.4479 17.0347 63.4479C17.138 63.4479 17.2365 63.4244 17.3301 63.3828C17.4238 63.3411 17.5079 63.2812 17.5799 63.2031C17.652 63.1249 17.7072 63.0338 17.7457 62.9322C17.7865 62.8281 17.8057 62.7213 17.8057 62.6119V62.3567C18.2044 62.2525 18.5743 62.0781 18.9129 61.8281C19.2516 61.5781 19.5398 61.2708 19.7728 60.9062C20.0082 60.5442 20.1763 60.1458 20.2772 59.7135C20.378 59.2838 20.4045 58.8463 20.3564 58.4062C20.3084 57.9635 20.1907 57.5468 20.0009 57.1536C19.8112 56.7577 19.5638 56.414 19.2588 56.1171C18.9514 55.8228 18.6079 55.5963 18.226 55.4374C17.8417 55.2786 17.4454 55.2004 17.0347 55.1978C16.7969 55.1978 16.5664 55.1484 16.3454 55.0494C16.1244 54.9504 15.9275 54.8098 15.7594 54.6249C15.5888 54.4426 15.4591 54.2317 15.3679 53.9895C15.2766 53.7499 15.231 53.4999 15.231 53.2421C15.231 52.9817 15.2766 52.7317 15.3679 52.4921C15.4591 52.2525 15.5888 52.0416 15.7594 51.8567C15.9275 51.6744 16.1244 51.5338 16.3454 51.4322C16.5664 51.3333 16.7969 51.2838 17.0347 51.2838Z" stroke="#0D313B" stroke-width="0.205714" mask="url(#path-7-outside-4_5978_45459)"/>
</g>
<g id="Vector_5">
<mask id="path-8-outside-5_5978_45459" maskUnits="userSpaceOnUse" x="49.6484" y="47.6223" width="8" height="16" fill="black">
<rect fill="white" x="49.6484" y="47.6223" width="8" height="16"/>
<path fill-rule="evenodd" clip-rule="evenodd" d="M53.9918 51.2838C54.232 51.2838 54.4626 51.3333 54.6835 51.4348C54.9045 51.5338 55.099 51.6744 55.2672 51.8593C55.4377 52.0416 55.5674 52.2525 55.6587 52.4921C55.7499 52.7317 55.7956 52.9817 55.7956 53.2421C55.7956 53.3541 55.8172 53.4583 55.8556 53.5624C55.894 53.664 55.9493 53.7551 56.0213 53.8333C56.0934 53.9114 56.1775 53.9713 56.2711 54.0129C56.3672 54.0546 56.4633 54.0781 56.5665 54.0781C56.6698 54.0781 56.7659 54.0546 56.862 54.0129C56.9556 53.9713 57.0397 53.9114 57.1118 53.8333C57.1838 53.7551 57.2391 53.664 57.2775 53.5624C57.3159 53.4583 57.3375 53.3541 57.3375 53.2421C57.3375 52.8333 57.2751 52.4374 57.1502 52.052C57.0277 51.6666 56.8476 51.3124 56.6146 50.9921C56.3816 50.6718 56.1054 50.401 55.7884 50.1822C55.4713 49.9635 55.1279 49.8046 54.7628 49.7109V49.4583C54.7628 49.3463 54.7412 49.2395 54.7027 49.1379C54.6643 49.0364 54.6091 48.9452 54.537 48.8671C54.465 48.789 54.3809 48.7291 54.2872 48.6874C54.1912 48.6431 54.0951 48.6223 53.9918 48.6223C53.8909 48.6223 53.7925 48.6431 53.6964 48.6874C53.6027 48.7291 53.5187 48.789 53.4466 48.8671C53.3745 48.9452 53.3193 49.0364 53.2809 49.1379C53.2424 49.2395 53.2208 49.3463 53.2208 49.4583V49.7109C52.8221 49.815 52.4547 49.9895 52.116 50.2395C51.7749 50.4895 51.4891 50.7968 51.2538 51.1614C51.0184 51.5234 50.8502 51.9218 50.7494 52.3541C50.6509 52.7838 50.6245 53.2187 50.6701 53.6614C50.7181 54.1015 50.8358 54.5208 51.0256 54.914C51.2153 55.3098 51.4627 55.6536 51.7701 55.9505C52.0752 56.2447 52.4186 56.4713 52.8029 56.6301C53.1848 56.789 53.5811 56.8671 53.9918 56.8697C54.232 56.8671 54.4626 56.9192 54.6835 57.0182C54.9045 57.1171 55.099 57.2577 55.2696 57.4426C55.4377 57.6249 55.5698 57.8359 55.6611 58.0781C55.7523 58.3176 55.798 58.5676 55.798 58.8255C55.798 59.0859 55.7523 59.3359 55.6611 59.5755C55.5698 59.815 55.4401 60.026 55.2696 60.2109C55.1014 60.3932 54.9045 60.5364 54.6835 60.6354C54.4626 60.7343 54.232 60.7838 53.9918 60.7838C53.754 60.7838 53.5235 60.7343 53.3025 60.6354C53.0815 60.5364 52.8846 60.3932 52.7165 60.2109C52.5459 60.026 52.4162 59.815 52.325 59.5755C52.2337 59.3359 52.1881 59.0859 52.1881 58.8255C52.1881 58.7135 52.1688 58.6093 52.128 58.5051C52.0896 58.4036 52.0343 58.3124 51.9623 58.2343C51.8902 58.1562 51.8062 58.0963 51.7125 58.0546C51.6188 58.0104 51.5204 57.9895 51.4171 57.9895C51.3162 57.9895 51.2177 58.0104 51.1217 58.0546C51.028 58.0963 50.9463 58.1562 50.8719 58.2343C50.7998 58.3124 50.7446 58.4036 50.7061 58.5051C50.6677 58.6093 50.6485 58.7135 50.6485 58.8255C50.6485 59.2343 50.7085 59.6301 50.8334 60.0156C50.9559 60.401 51.1361 60.7551 51.369 61.0755C51.602 61.3958 51.8782 61.6666 52.1953 61.8854C52.5147 62.1041 52.8558 62.2604 53.2208 62.3567V62.6119C53.2208 62.7213 53.2424 62.8281 53.2809 62.9322C53.3193 63.0338 53.3745 63.1249 53.4466 63.2031C53.5187 63.2812 53.6027 63.3411 53.6964 63.3828C53.7925 63.4244 53.8909 63.4479 53.9918 63.4479C54.0951 63.4479 54.1912 63.4244 54.2872 63.3828C54.3809 63.3411 54.465 63.2812 54.537 63.2031C54.6091 63.1249 54.6643 63.0338 54.7027 62.9322C54.7412 62.8281 54.7628 62.7213 54.7628 62.6119V62.3567C55.1615 62.2525 55.529 62.0781 55.8676 61.8281C56.2087 61.5781 56.4945 61.2708 56.7299 60.9062C56.9652 60.5442 57.1334 60.1458 57.2342 59.7135C57.3327 59.2838 57.3591 58.8463 57.3135 58.4062C57.2655 57.9635 57.1478 57.5468 56.958 57.1536C56.7683 56.7577 56.5209 56.414 56.2159 56.1171C55.9085 55.8228 55.565 55.5963 55.1807 55.4374C54.7988 55.2786 54.4025 55.2004 53.9918 55.1978C53.7516 55.1978 53.5235 55.1484 53.3001 55.0494C53.0791 54.9504 52.8846 54.8098 52.7165 54.6249C52.5459 54.4426 52.4162 54.2317 52.325 53.9895C52.2337 53.7499 52.1857 53.4999 52.1857 53.2421C52.1857 52.9817 52.2337 52.7317 52.325 52.4921C52.4162 52.2525 52.5459 52.0416 52.7165 51.8567C52.8846 51.6744 53.0791 51.5338 53.3001 51.4322C53.5235 51.3333 53.7516 51.2838 53.9918 51.2838Z"/>
</mask>
<path fill-rule="evenodd" clip-rule="evenodd" d="M53.9918 51.2838C54.232 51.2838 54.4626 51.3333 54.6835 51.4348C54.9045 51.5338 55.099 51.6744 55.2672 51.8593C55.4377 52.0416 55.5674 52.2525 55.6587 52.4921C55.7499 52.7317 55.7956 52.9817 55.7956 53.2421C55.7956 53.3541 55.8172 53.4583 55.8556 53.5624C55.894 53.664 55.9493 53.7551 56.0213 53.8333C56.0934 53.9114 56.1775 53.9713 56.2711 54.0129C56.3672 54.0546 56.4633 54.0781 56.5665 54.0781C56.6698 54.0781 56.7659 54.0546 56.862 54.0129C56.9556 53.9713 57.0397 53.9114 57.1118 53.8333C57.1838 53.7551 57.2391 53.664 57.2775 53.5624C57.3159 53.4583 57.3375 53.3541 57.3375 53.2421C57.3375 52.8333 57.2751 52.4374 57.1502 52.052C57.0277 51.6666 56.8476 51.3124 56.6146 50.9921C56.3816 50.6718 56.1054 50.401 55.7884 50.1822C55.4713 49.9635 55.1279 49.8046 54.7628 49.7109V49.4583C54.7628 49.3463 54.7412 49.2395 54.7027 49.1379C54.6643 49.0364 54.6091 48.9452 54.537 48.8671C54.465 48.789 54.3809 48.7291 54.2872 48.6874C54.1912 48.6431 54.0951 48.6223 53.9918 48.6223C53.8909 48.6223 53.7925 48.6431 53.6964 48.6874C53.6027 48.7291 53.5187 48.789 53.4466 48.8671C53.3745 48.9452 53.3193 49.0364 53.2809 49.1379C53.2424 49.2395 53.2208 49.3463 53.2208 49.4583V49.7109C52.8221 49.815 52.4547 49.9895 52.116 50.2395C51.7749 50.4895 51.4891 50.7968 51.2538 51.1614C51.0184 51.5234 50.8502 51.9218 50.7494 52.3541C50.6509 52.7838 50.6245 53.2187 50.6701 53.6614C50.7181 54.1015 50.8358 54.5208 51.0256 54.914C51.2153 55.3098 51.4627 55.6536 51.7701 55.9505C52.0752 56.2447 52.4186 56.4713 52.8029 56.6301C53.1848 56.789 53.5811 56.8671 53.9918 56.8697C54.232 56.8671 54.4626 56.9192 54.6835 57.0182C54.9045 57.1171 55.099 57.2577 55.2696 57.4426C55.4377 57.6249 55.5698 57.8359 55.6611 58.0781C55.7523 58.3176 55.798 58.5676 55.798 58.8255C55.798 59.0859 55.7523 59.3359 55.6611 59.5755C55.5698 59.815 55.4401 60.026 55.2696 60.2109C55.1014 60.3932 54.9045 60.5364 54.6835 60.6354C54.4626 60.7343 54.232 60.7838 53.9918 60.7838C53.754 60.7838 53.5235 60.7343 53.3025 60.6354C53.0815 60.5364 52.8846 60.3932 52.7165 60.2109C52.5459 60.026 52.4162 59.815 52.325 59.5755C52.2337 59.3359 52.1881 59.0859 52.1881 58.8255C52.1881 58.7135 52.1688 58.6093 52.128 58.5051C52.0896 58.4036 52.0343 58.3124 51.9623 58.2343C51.8902 58.1562 51.8062 58.0963 51.7125 58.0546C51.6188 58.0104 51.5204 57.9895 51.4171 57.9895C51.3162 57.9895 51.2177 58.0104 51.1217 58.0546C51.028 58.0963 50.9463 58.1562 50.8719 58.2343C50.7998 58.3124 50.7446 58.4036 50.7061 58.5051C50.6677 58.6093 50.6485 58.7135 50.6485 58.8255C50.6485 59.2343 50.7085 59.6301 50.8334 60.0156C50.9559 60.401 51.1361 60.7551 51.369 61.0755C51.602 61.3958 51.8782 61.6666 52.1953 61.8854C52.5147 62.1041 52.8558 62.2604 53.2208 62.3567V62.6119C53.2208 62.7213 53.2424 62.8281 53.2809 62.9322C53.3193 63.0338 53.3745 63.1249 53.4466 63.2031C53.5187 63.2812 53.6027 63.3411 53.6964 63.3828C53.7925 63.4244 53.8909 63.4479 53.9918 63.4479C54.0951 63.4479 54.1912 63.4244 54.2872 63.3828C54.3809 63.3411 54.465 63.2812 54.537 63.2031C54.6091 63.1249 54.6643 63.0338 54.7027 62.9322C54.7412 62.8281 54.7628 62.7213 54.7628 62.6119V62.3567C55.1615 62.2525 55.529 62.0781 55.8676 61.8281C56.2087 61.5781 56.4945 61.2708 56.7299 60.9062C56.9652 60.5442 57.1334 60.1458 57.2342 59.7135C57.3327 59.2838 57.3591 58.8463 57.3135 58.4062C57.2655 57.9635 57.1478 57.5468 56.958 57.1536C56.7683 56.7577 56.5209 56.414 56.2159 56.1171C55.9085 55.8228 55.565 55.5963 55.1807 55.4374C54.7988 55.2786 54.4025 55.2004 53.9918 55.1978C53.7516 55.1978 53.5235 55.1484 53.3001 55.0494C53.0791 54.9504 52.8846 54.8098 52.7165 54.6249C52.5459 54.4426 52.4162 54.2317 52.325 53.9895C52.2337 53.7499 52.1857 53.4999 52.1857 53.2421C52.1857 52.9817 52.2337 52.7317 52.325 52.4921C52.4162 52.2525 52.5459 52.0416 52.7165 51.8567C52.8846 51.6744 53.0791 51.5338 53.3001 51.4322C53.5235 51.3333 53.7516 51.2838 53.9918 51.2838Z" fill="#0D313B"/>
<path fill-rule="evenodd" clip-rule="evenodd" d="M53.9918 51.2838C54.232 51.2838 54.4626 51.3333 54.6835 51.4348C54.9045 51.5338 55.099 51.6744 55.2672 51.8593C55.4377 52.0416 55.5674 52.2525 55.6587 52.4921C55.7499 52.7317 55.7956 52.9817 55.7956 53.2421C55.7956 53.3541 55.8172 53.4583 55.8556 53.5624C55.894 53.664 55.9493 53.7551 56.0213 53.8333C56.0934 53.9114 56.1775 53.9713 56.2711 54.0129C56.3672 54.0546 56.4633 54.0781 56.5665 54.0781C56.6698 54.0781 56.7659 54.0546 56.862 54.0129C56.9556 53.9713 57.0397 53.9114 57.1118 53.8333C57.1838 53.7551 57.2391 53.664 57.2775 53.5624C57.3159 53.4583 57.3375 53.3541 57.3375 53.2421C57.3375 52.8333 57.2751 52.4374 57.1502 52.052C57.0277 51.6666 56.8476 51.3124 56.6146 50.9921C56.3816 50.6718 56.1054 50.401 55.7884 50.1822C55.4713 49.9635 55.1279 49.8046 54.7628 49.7109V49.4583C54.7628 49.3463 54.7412 49.2395 54.7027 49.1379C54.6643 49.0364 54.6091 48.9452 54.537 48.8671C54.465 48.789 54.3809 48.7291 54.2872 48.6874C54.1912 48.6431 54.0951 48.6223 53.9918 48.6223C53.8909 48.6223 53.7925 48.6431 53.6964 48.6874C53.6027 48.7291 53.5187 48.789 53.4466 48.8671C53.3745 48.9452 53.3193 49.0364 53.2809 49.1379C53.2424 49.2395 53.2208 49.3463 53.2208 49.4583V49.7109C52.8221 49.815 52.4547 49.9895 52.116 50.2395C51.7749 50.4895 51.4891 50.7968 51.2538 51.1614C51.0184 51.5234 50.8502 51.9218 50.7494 52.3541C50.6509 52.7838 50.6245 53.2187 50.6701 53.6614C50.7181 54.1015 50.8358 54.5208 51.0256 54.914C51.2153 55.3098 51.4627 55.6536 51.7701 55.9505C52.0752 56.2447 52.4186 56.4713 52.8029 56.6301C53.1848 56.789 53.5811 56.8671 53.9918 56.8697C54.232 56.8671 54.4626 56.9192 54.6835 57.0182C54.9045 57.1171 55.099 57.2577 55.2696 57.4426C55.4377 57.6249 55.5698 57.8359 55.6611 58.0781C55.7523 58.3176 55.798 58.5676 55.798 58.8255C55.798 59.0859 55.7523 59.3359 55.6611 59.5755C55.5698 59.815 55.4401 60.026 55.2696 60.2109C55.1014 60.3932 54.9045 60.5364 54.6835 60.6354C54.4626 60.7343 54.232 60.7838 53.9918 60.7838C53.754 60.7838 53.5235 60.7343 53.3025 60.6354C53.0815 60.5364 52.8846 60.3932 52.7165 60.2109C52.5459 60.026 52.4162 59.815 52.325 59.5755C52.2337 59.3359 52.1881 59.0859 52.1881 58.8255C52.1881 58.7135 52.1688 58.6093 52.128 58.5051C52.0896 58.4036 52.0343 58.3124 51.9623 58.2343C51.8902 58.1562 51.8062 58.0963 51.7125 58.0546C51.6188 58.0104 51.5204 57.9895 51.4171 57.9895C51.3162 57.9895 51.2177 58.0104 51.1217 58.0546C51.028 58.0963 50.9463 58.1562 50.8719 58.2343C50.7998 58.3124 50.7446 58.4036 50.7061 58.5051C50.6677 58.6093 50.6485 58.7135 50.6485 58.8255C50.6485 59.2343 50.7085 59.6301 50.8334 60.0156C50.9559 60.401 51.1361 60.7551 51.369 61.0755C51.602 61.3958 51.8782 61.6666 52.1953 61.8854C52.5147 62.1041 52.8558 62.2604 53.2208 62.3567V62.6119C53.2208 62.7213 53.2424 62.8281 53.2809 62.9322C53.3193 63.0338 53.3745 63.1249 53.4466 63.2031C53.5187 63.2812 53.6027 63.3411 53.6964 63.3828C53.7925 63.4244 53.8909 63.4479 53.9918 63.4479C54.0951 63.4479 54.1912 63.4244 54.2872 63.3828C54.3809 63.3411 54.465 63.2812 54.537 63.2031C54.6091 63.1249 54.6643 63.0338 54.7027 62.9322C54.7412 62.8281 54.7628 62.7213 54.7628 62.6119V62.3567C55.1615 62.2525 55.529 62.0781 55.8676 61.8281C56.2087 61.5781 56.4945 61.2708 56.7299 60.9062C56.9652 60.5442 57.1334 60.1458 57.2342 59.7135C57.3327 59.2838 57.3591 58.8463 57.3135 58.4062C57.2655 57.9635 57.1478 57.5468 56.958 57.1536C56.7683 56.7577 56.5209 56.414 56.2159 56.1171C55.9085 55.8228 55.565 55.5963 55.1807 55.4374C54.7988 55.2786 54.4025 55.2004 53.9918 55.1978C53.7516 55.1978 53.5235 55.1484 53.3001 55.0494C53.0791 54.9504 52.8846 54.8098 52.7165 54.6249C52.5459 54.4426 52.4162 54.2317 52.325 53.9895C52.2337 53.7499 52.1857 53.4999 52.1857 53.2421C52.1857 52.9817 52.2337 52.7317 52.325 52.4921C52.4162 52.2525 52.5459 52.0416 52.7165 51.8567C52.8846 51.6744 53.0791 51.5338 53.3001 51.4322C53.5235 51.3333 53.7516 51.2838 53.9918 51.2838Z" stroke="#0D313B" stroke-width="0.205714" mask="url(#path-8-outside-5_5978_45459)"/>
</g>
<g id="Group_3">
<g id="Vector_6">
<mask id="path-9-outside-6_5978_45459" maskUnits="userSpaceOnUse" x="13.7305" y="2.99976" width="43" height="30" fill="black">
<rect fill="white" x="13.7305" y="2.99976" width="43" height="30"/>
<path fill-rule="evenodd" clip-rule="evenodd" d="M15.499 32.3826H55.5347C55.638 32.3826 55.7365 32.3618 55.8302 32.3201C55.9238 32.2758 56.0079 32.2159 56.08 32.1378C56.152 32.0597 56.2073 31.9686 56.2457 31.867C56.2865 31.7654 56.3057 31.6587 56.3057 31.5467V4.83569C56.3057 4.72372 56.2865 4.61694 56.2457 4.51538C56.2073 4.41382 56.152 4.32267 56.08 4.24455C56.0079 4.16642 55.9238 4.10653 55.8302 4.06226C55.7365 4.02059 55.638 3.99976 55.5347 3.99976H15.499C15.3982 3.99976 15.2997 4.02059 15.206 4.06226C15.11 4.10653 15.0283 4.16642 14.9562 4.24455C14.8842 4.32267 14.8265 4.41382 14.7881 4.51538C14.7497 4.61694 14.7305 4.72372 14.7305 4.83569V31.5467C14.7305 31.6587 14.7497 31.7654 14.7881 31.867C14.8265 31.9686 14.8842 32.0597 14.9562 32.1378C15.0283 32.2159 15.11 32.2758 15.206 32.3201C15.2997 32.3618 15.3982 32.3826 15.499 32.3826ZM16.27 5.66903H54.7662V30.7133H16.27V5.66903Z"/>
<path d="M16.27 5.66903H54.7662V30.7133H16.27V5.66903Z"/>
</mask>
<path fill-rule="evenodd" clip-rule="evenodd" d="M15.499 32.3826H55.5347C55.638 32.3826 55.7365 32.3618 55.8302 32.3201C55.9238 32.2758 56.0079 32.2159 56.08 32.1378C56.152 32.0597 56.2073 31.9686 56.2457 31.867C56.2865 31.7654 56.3057 31.6587 56.3057 31.5467V4.83569C56.3057 4.72372 56.2865 4.61694 56.2457 4.51538C56.2073 4.41382 56.152 4.32267 56.08 4.24455C56.0079 4.16642 55.9238 4.10653 55.8302 4.06226C55.7365 4.02059 55.638 3.99976 55.5347 3.99976H15.499C15.3982 3.99976 15.2997 4.02059 15.206 4.06226C15.11 4.10653 15.0283 4.16642 14.9562 4.24455C14.8842 4.32267 14.8265 4.41382 14.7881 4.51538C14.7497 4.61694 14.7305 4.72372 14.7305 4.83569V31.5467C14.7305 31.6587 14.7497 31.7654 14.7881 31.867C14.8265 31.9686 14.8842 32.0597 14.9562 32.1378C15.0283 32.2159 15.11 32.2758 15.206 32.3201C15.2997 32.3618 15.3982 32.3826 15.499 32.3826ZM16.27 5.66903H54.7662V30.7133H16.27V5.66903Z" fill="#0D313B"/>
<path d="M16.27 5.66903H54.7662V30.7133H16.27V5.66903Z" fill="#CDF1FB"/>
<path d="M16.27 5.66903V5.6176H16.2186V5.66903H16.27ZM54.7662 5.66903H54.8176V5.6176H54.7662V5.66903ZM54.7662 30.7133V30.7648H54.8176V30.7133H54.7662ZM16.27 30.7133H16.2186V30.7648H16.27V30.7133ZM16.27 5.72046H54.7662V5.6176H16.27V5.72046ZM54.7147 5.66903V30.7133H54.8176V5.66903H54.7147ZM54.7662 30.6619H16.27V30.7648H54.7662V30.6619ZM16.3215 30.7133V5.66903H16.2186V30.7133H16.3215ZM55.8302 32.3201L55.872 32.4141L55.8741 32.4131L55.8302 32.3201ZM56.08 32.1378L56.0043 32.0681L56.08 32.1378ZM56.2457 31.867L56.1502 31.8286L56.1495 31.8306L56.2457 31.867ZM56.2457 4.51538L56.1495 4.55179L56.1502 4.55375L56.2457 4.51538ZM56.08 4.24455L56.0043 4.31428L56.08 4.24455ZM55.8302 4.06226L55.8741 3.96924L55.872 3.96828L55.8302 4.06226ZM15.206 4.06226L15.1642 3.96827L15.163 3.96884L15.206 4.06226ZM14.9562 4.24455L15.0318 4.31428L15.0318 4.31428L14.9562 4.24455ZM14.7881 4.51538L14.8843 4.55178L14.8843 4.55178L14.7881 4.51538ZM14.7881 31.867L14.8843 31.8306L14.8843 31.8306L14.7881 31.867ZM14.9562 32.1378L15.0318 32.0681L15.0318 32.0681L14.9562 32.1378ZM15.206 32.3201L15.163 32.4135L15.1642 32.4141L15.206 32.3201ZM15.499 32.4855H55.5347V32.2798H15.499V32.4855ZM55.5347 32.4855C55.6523 32.4855 55.765 32.4617 55.872 32.4141L55.7884 32.2261C55.708 32.2619 55.6237 32.2798 55.5347 32.2798V32.4855ZM55.8741 32.4131C55.979 32.3636 56.074 32.296 56.1556 32.2076L56.0043 32.0681C55.9418 32.1359 55.8687 32.1881 55.7862 32.2271L55.8741 32.4131ZM56.1556 32.2076C56.2371 32.1192 56.2991 32.0166 56.3419 31.9034L56.1495 31.8306C56.1155 31.9205 56.067 32.0002 56.0043 32.0681L56.1556 32.2076ZM56.3411 31.9054C56.3872 31.7906 56.4086 31.6707 56.4086 31.5467H56.2029C56.2029 31.6466 56.1858 31.7402 56.1502 31.8286L56.3411 31.9054ZM56.4086 31.5467V4.83569H56.2029V31.5467H56.4086ZM56.4086 4.83569C56.4086 4.71166 56.3872 4.59174 56.3411 4.47701L56.1502 4.55375C56.1858 4.64214 56.2029 4.73577 56.2029 4.83569H56.4086ZM56.3419 4.47898C56.2991 4.36579 56.2371 4.26316 56.1556 4.17481L56.0043 4.31428C56.067 4.38218 56.1155 4.46185 56.1495 4.55178L56.3419 4.47898ZM56.1556 4.17481C56.074 4.08636 55.979 4.01881 55.8741 3.96926L55.7862 4.15525C55.8687 4.19424 55.9418 4.24648 56.0043 4.31428L56.1556 4.17481ZM55.872 3.96828C55.765 3.92071 55.6523 3.8969 55.5347 3.8969V4.10261C55.6237 4.10261 55.708 4.12047 55.7884 4.15623L55.872 3.96828ZM55.5347 3.8969H15.499V4.10261H55.5347V3.8969ZM15.499 3.8969C15.3837 3.8969 15.271 3.92078 15.1642 3.96828L15.2478 4.15623C15.3284 4.1204 15.4126 4.10261 15.499 4.10261V3.8969ZM15.163 3.96884C15.0543 4.01891 14.9617 4.08696 14.8806 4.17481L15.0318 4.31428C15.0949 4.24589 15.1656 4.19414 15.2491 4.15567L15.163 3.96884ZM14.8806 4.17481C14.8001 4.26218 14.7352 4.36453 14.6919 4.47898L14.8843 4.55178C14.9179 4.4631 14.9683 4.38316 15.0318 4.31428L14.8806 4.17481ZM14.6919 4.47898C14.6489 4.59254 14.6276 4.71167 14.6276 4.83569H14.8333C14.8333 4.73576 14.8504 4.64135 14.8843 4.55178L14.6919 4.47898ZM14.6276 4.83569V31.5467H14.8333V4.83569H14.6276ZM14.6276 31.5467C14.6276 31.6707 14.6489 31.7898 14.6919 31.9034L14.8843 31.8306C14.8504 31.741 14.8333 31.6466 14.8333 31.5467H14.6276ZM14.6919 31.9034C14.7352 32.0178 14.8001 32.1202 14.8806 32.2076L15.0318 32.0681C14.9683 31.9992 14.9179 31.9193 14.8843 31.8306L14.6919 31.9034ZM14.8806 32.2076C14.9617 32.2954 15.0543 32.3635 15.163 32.4135L15.2491 32.2267C15.1656 32.1882 15.0949 32.1365 15.0318 32.0681L14.8806 32.2076ZM15.1642 32.4141C15.271 32.4616 15.3837 32.4855 15.499 32.4855V32.2798C15.4126 32.2798 15.3284 32.262 15.2478 32.2261L15.1642 32.4141Z" fill="#0D313B" mask="url(#path-9-outside-6_5978_45459)"/>
</g>
</g>
<g id="Vector_7">
<mask id="path-11-outside-7_5978_45459" maskUnits="userSpaceOnUse" x="16.7969" y="6.33838" width="37" height="23" fill="black">
<rect fill="white" x="16.7969" y="6.33838" width="37" height="23"/>
<path fill-rule="evenodd" clip-rule="evenodd" d="M50.2357 7.6665C50.0819 7.44775 49.8754 7.33838 49.6208 7.33838H21.3948C21.1378 7.33838 20.9336 7.44775 20.7775 7.6665L17.9554 11.6743C17.8497 11.8228 17.7969 11.992 17.7969 12.1795V24.203C17.7969 24.3905 17.8497 24.5598 17.9554 24.7082L20.7775 28.716C20.9336 28.9348 21.1378 29.0441 21.3948 29.0441H49.6256C49.8802 29.0441 50.0843 28.9348 50.2405 28.716L53.0626 24.7082C53.1683 24.5598 53.2211 24.3905 53.2211 24.203V12.1795C53.2211 11.992 53.1683 11.8228 53.0626 11.6743L50.2357 7.6665ZM51.6743 23.9191L49.2389 27.3671H21.7743L19.3412 23.9191V12.4634L21.7743 9.01286H49.2437L51.6767 12.4634L51.6743 23.9191Z"/>
</mask>
<path fill-rule="evenodd" clip-rule="evenodd" d="M50.2357 7.6665C50.0819 7.44775 49.8754 7.33838 49.6208 7.33838H21.3948C21.1378 7.33838 20.9336 7.44775 20.7775 7.6665L17.9554 11.6743C17.8497 11.8228 17.7969 11.992 17.7969 12.1795V24.203C17.7969 24.3905 17.8497 24.5598 17.9554 24.7082L20.7775 28.716C20.9336 28.9348 21.1378 29.0441 21.3948 29.0441H49.6256C49.8802 29.0441 50.0843 28.9348 50.2405 28.716L53.0626 24.7082C53.1683 24.5598 53.2211 24.3905 53.2211 24.203V12.1795C53.2211 11.992 53.1683 11.8228 53.0626 11.6743L50.2357 7.6665ZM51.6743 23.9191L49.2389 27.3671H21.7743L19.3412 23.9191V12.4634L21.7743 9.01286H49.2437L51.6767 12.4634L51.6743 23.9191Z" fill="#0D313B"/>
<path fill-rule="evenodd" clip-rule="evenodd" d="M50.2357 7.6665C50.0819 7.44775 49.8754 7.33838 49.6208 7.33838H21.3948C21.1378 7.33838 20.9336 7.44775 20.7775 7.6665L17.9554 11.6743C17.8497 11.8228 17.7969 11.992 17.7969 12.1795V24.203C17.7969 24.3905 17.8497 24.5598 17.9554 24.7082L20.7775 28.716C20.9336 28.9348 21.1378 29.0441 21.3948 29.0441H49.6256C49.8802 29.0441 50.0843 28.9348 50.2405 28.716L53.0626 24.7082C53.1683 24.5598 53.2211 24.3905 53.2211 24.203V12.1795C53.2211 11.992 53.1683 11.8228 53.0626 11.6743L50.2357 7.6665ZM51.6743 23.9191L49.2389 27.3671H21.7743L19.3412 23.9191V12.4634L21.7743 9.01286H49.2437L51.6767 12.4634L51.6743 23.9191Z" stroke="#0D313B" stroke-width="0.205714" mask="url(#path-11-outside-7_5978_45459)"/>
</g>
<g id="Vector_8">
<mask id="path-12-outside-8_5978_45459" maskUnits="userSpaceOnUse" x="15.2617" y="31.9399" width="40" height="12" fill="black">
<rect fill="white" x="15.2617" y="31.9399" width="40" height="12"/>
<path fill-rule="evenodd" clip-rule="evenodd" d="M53.9869 43.5129C54.0902 43.5129 54.1862 43.492 54.2823 43.4504C54.376 43.4061 54.46 43.3462 54.5321 43.2681C54.6041 43.19 54.6594 43.0988 54.6978 42.9972C54.7362 42.8957 54.7579 42.7889 54.7579 42.6769V38.2264C54.7579 38.1144 54.7362 38.0077 54.6978 37.9061C54.6594 37.8045 54.6041 37.7134 54.5321 37.6353C54.46 37.5571 54.376 37.4972 54.2823 37.4556C54.1862 37.4113 54.0902 37.3905 53.9869 37.3905H36.2784V33.7733C36.2784 33.6639 36.2592 33.5571 36.2207 33.4556C36.1823 33.3514 36.1247 33.2629 36.0526 33.1847C35.9805 33.104 35.8989 33.0441 35.8028 33.0024C35.7091 32.9608 35.6107 32.9399 35.5098 32.9399C35.4065 32.9399 35.308 32.9608 35.2144 33.0024C35.1207 33.0441 35.0366 33.104 34.9646 33.1847C34.8925 33.2629 34.8373 33.3514 34.7989 33.4556C34.758 33.5571 34.7388 33.6639 34.7388 33.7733V37.3905H17.0303C16.9294 37.3905 16.8309 37.4113 16.7373 37.4556C16.6412 37.4972 16.5595 37.5571 16.4875 37.6353C16.4154 37.7134 16.3578 37.8045 16.3194 37.9061C16.2809 38.0077 16.2617 38.1144 16.2617 38.2264V42.6769C16.2617 42.7889 16.2809 42.8957 16.3194 42.9972C16.3578 43.0988 16.4154 43.19 16.4875 43.2681C16.5595 43.3462 16.6412 43.4061 16.7373 43.4504C16.8309 43.492 16.9294 43.5129 17.0303 43.5129C17.1336 43.5129 17.232 43.492 17.3257 43.4504C17.4194 43.4061 17.5035 43.3462 17.5755 43.2681C17.6476 43.19 17.7028 43.0988 17.7412 42.9972C17.7821 42.8957 17.8013 42.7889 17.8013 42.6769V39.0597H53.2159V42.6769C53.2159 42.7889 53.2375 42.8957 53.2759 42.9972C53.3144 43.0988 53.3696 43.19 53.4417 43.2681C53.5137 43.3462 53.5978 43.4061 53.6915 43.4504C53.7875 43.492 53.886 43.5129 53.9869 43.5129Z"/>
</mask>
<path fill-rule="evenodd" clip-rule="evenodd" d="M53.9869 43.5129C54.0902 43.5129 54.1862 43.492 54.2823 43.4504C54.376 43.4061 54.46 43.3462 54.5321 43.2681C54.6041 43.19 54.6594 43.0988 54.6978 42.9972C54.7362 42.8957 54.7579 42.7889 54.7579 42.6769V38.2264C54.7579 38.1144 54.7362 38.0077 54.6978 37.9061C54.6594 37.8045 54.6041 37.7134 54.5321 37.6353C54.46 37.5571 54.376 37.4972 54.2823 37.4556C54.1862 37.4113 54.0902 37.3905 53.9869 37.3905H36.2784V33.7733C36.2784 33.6639 36.2592 33.5571 36.2207 33.4556C36.1823 33.3514 36.1247 33.2629 36.0526 33.1847C35.9805 33.104 35.8989 33.0441 35.8028 33.0024C35.7091 32.9608 35.6107 32.9399 35.5098 32.9399C35.4065 32.9399 35.308 32.9608 35.2144 33.0024C35.1207 33.0441 35.0366 33.104 34.9646 33.1847C34.8925 33.2629 34.8373 33.3514 34.7989 33.4556C34.758 33.5571 34.7388 33.6639 34.7388 33.7733V37.3905H17.0303C16.9294 37.3905 16.8309 37.4113 16.7373 37.4556C16.6412 37.4972 16.5595 37.5571 16.4875 37.6353C16.4154 37.7134 16.3578 37.8045 16.3194 37.9061C16.2809 38.0077 16.2617 38.1144 16.2617 38.2264V42.6769C16.2617 42.7889 16.2809 42.8957 16.3194 42.9972C16.3578 43.0988 16.4154 43.19 16.4875 43.2681C16.5595 43.3462 16.6412 43.4061 16.7373 43.4504C16.8309 43.492 16.9294 43.5129 17.0303 43.5129C17.1336 43.5129 17.232 43.492 17.3257 43.4504C17.4194 43.4061 17.5035 43.3462 17.5755 43.2681C17.6476 43.19 17.7028 43.0988 17.7412 42.9972C17.7821 42.8957 17.8013 42.7889 17.8013 42.6769V39.0597H53.2159V42.6769C53.2159 42.7889 53.2375 42.8957 53.2759 42.9972C53.3144 43.0988 53.3696 43.19 53.4417 43.2681C53.5137 43.3462 53.5978 43.4061 53.6915 43.4504C53.7875 43.492 53.886 43.5129 53.9869 43.5129Z" fill="#0D313B"/>
<path fill-rule="evenodd" clip-rule="evenodd" d="M53.9869 43.5129C54.0902 43.5129 54.1862 43.492 54.2823 43.4504C54.376 43.4061 54.46 43.3462 54.5321 43.2681C54.6041 43.19 54.6594 43.0988 54.6978 42.9972C54.7362 42.8957 54.7579 42.7889 54.7579 42.6769V38.2264C54.7579 38.1144 54.7362 38.0077 54.6978 37.9061C54.6594 37.8045 54.6041 37.7134 54.5321 37.6353C54.46 37.5571 54.376 37.4972 54.2823 37.4556C54.1862 37.4113 54.0902 37.3905 53.9869 37.3905H36.2784V33.7733C36.2784 33.6639 36.2592 33.5571 36.2207 33.4556C36.1823 33.3514 36.1247 33.2629 36.0526 33.1847C35.9805 33.104 35.8989 33.0441 35.8028 33.0024C35.7091 32.9608 35.6107 32.9399 35.5098 32.9399C35.4065 32.9399 35.308 32.9608 35.2144 33.0024C35.1207 33.0441 35.0366 33.104 34.9646 33.1847C34.8925 33.2629 34.8373 33.3514 34.7989 33.4556C34.758 33.5571 34.7388 33.6639 34.7388 33.7733V37.3905H17.0303C16.9294 37.3905 16.8309 37.4113 16.7373 37.4556C16.6412 37.4972 16.5595 37.5571 16.4875 37.6353C16.4154 37.7134 16.3578 37.8045 16.3194 37.9061C16.2809 38.0077 16.2617 38.1144 16.2617 38.2264V42.6769C16.2617 42.7889 16.2809 42.8957 16.3194 42.9972C16.3578 43.0988 16.4154 43.19 16.4875 43.2681C16.5595 43.3462 16.6412 43.4061 16.7373 43.4504C16.8309 43.492 16.9294 43.5129 17.0303 43.5129C17.1336 43.5129 17.232 43.492 17.3257 43.4504C17.4194 43.4061 17.5035 43.3462 17.5755 43.2681C17.6476 43.19 17.7028 43.0988 17.7412 42.9972C17.7821 42.8957 17.8013 42.7889 17.8013 42.6769V39.0597H53.2159V42.6769C53.2159 42.7889 53.2375 42.8957 53.2759 42.9972C53.3144 43.0988 53.3696 43.19 53.4417 43.2681C53.5137 43.3462 53.5978 43.4061 53.6915 43.4504C53.7875 43.492 53.886 43.5129 53.9869 43.5129Z" stroke="#0D313B" stroke-width="0.205714" mask="url(#path-12-outside-8_5978_45459)"/>
</g>
<g id="Vector_9">
<mask id="path-13-outside-9_5978_45459" maskUnits="userSpaceOnUse" x="31.9961" y="11.8723" width="7" height="12" fill="black">
<rect fill="white" x="31.9961" y="11.8723" width="7" height="12"/>
<path fill-rule="evenodd" clip-rule="evenodd" d="M35.5113 15.2447C35.6386 15.2447 35.7635 15.2734 35.8836 15.3254C36.0013 15.3801 36.1069 15.4557 36.1982 15.5546C36.2895 15.6536 36.3591 15.7682 36.4096 15.8958C36.46 16.026 36.484 16.1614 36.484 16.2994C36.484 16.4114 36.5032 16.5182 36.5417 16.6197C36.5825 16.7213 36.6377 16.8124 36.7098 16.8905C36.7819 16.9687 36.8635 17.0286 36.9596 17.0702C37.0533 17.1145 37.1517 17.1353 37.2526 17.1353C37.3559 17.1353 37.4544 17.1145 37.548 17.0702C37.6417 17.0286 37.7258 16.9687 37.7978 16.8905C37.8699 16.8124 37.9251 16.7213 37.9659 16.6197C38.0044 16.5182 38.0236 16.4114 38.0236 16.2994C38.0236 16.0129 37.9828 15.7317 37.8987 15.4557C37.817 15.1822 37.6969 14.9296 37.5408 14.6952C37.3847 14.4635 37.1974 14.2603 36.9812 14.0937C36.765 13.9244 36.5321 13.7942 36.2775 13.7056C36.2775 13.5963 36.2583 13.4895 36.2198 13.3879C36.1814 13.2864 36.1262 13.1952 36.0541 13.1171C35.9796 13.039 35.898 12.9791 35.8043 12.9348C35.7082 12.8931 35.6098 12.8723 35.5089 12.8723C35.4056 12.8723 35.3071 12.8931 35.2135 12.9348C35.1198 12.9791 35.0357 13.039 34.9637 13.1171C34.8916 13.1952 34.8364 13.2864 34.798 13.3879C34.7571 13.4895 34.7379 13.5963 34.7379 13.7056C34.4545 13.8072 34.1927 13.9556 33.9573 14.1562C33.7219 14.3567 33.525 14.5963 33.3689 14.8723C33.2128 15.1484 33.1047 15.4478 33.0446 15.7655C32.987 16.0833 32.9798 16.4036 33.0278 16.7239C33.0735 17.0442 33.1695 17.3463 33.316 17.6301C33.4626 17.914 33.6499 18.1614 33.8757 18.3723C34.1038 18.5833 34.3584 18.7447 34.6394 18.8567C34.9205 18.9687 35.2111 19.026 35.5113 19.026C35.6386 19.026 35.7635 19.052 35.8836 19.1041C36.0013 19.1588 36.1069 19.2343 36.1982 19.3333C36.2895 19.4322 36.3591 19.5468 36.4096 19.677C36.46 19.8046 36.484 19.94 36.484 20.0807C36.484 20.2213 36.46 20.3541 36.4096 20.4843C36.3591 20.6145 36.2895 20.7265 36.1982 20.8255C36.1069 20.9244 36.0013 21.0025 35.8836 21.0546C35.7635 21.1093 35.6386 21.1353 35.5113 21.1353C35.3816 21.1353 35.2567 21.1093 35.139 21.0546C35.0189 21.0025 34.9132 20.9244 34.822 20.8255C34.7307 20.7265 34.6611 20.6145 34.6106 20.4843C34.5626 20.3541 34.5386 20.2213 34.5386 20.0807C34.5386 19.9687 34.5169 19.8619 34.4785 19.7603C34.4401 19.6588 34.3848 19.5676 34.3128 19.4895C34.2407 19.4114 34.1567 19.3515 34.063 19.3098C33.9669 19.2656 33.8685 19.2447 33.7676 19.2447C33.6643 19.2447 33.5682 19.2656 33.4722 19.3098C33.3785 19.3515 33.2944 19.4114 33.2224 19.4895C33.1503 19.5676 33.0951 19.6588 33.0566 19.7603C33.0182 19.8619 32.9966 19.9687 32.9966 20.0807C32.9966 20.3697 33.0398 20.651 33.1215 20.9244C33.2032 21.1978 33.3233 21.4531 33.4818 21.6848C33.6379 21.9192 33.8228 22.1197 34.039 22.289C34.2552 22.4583 34.4905 22.5859 34.7427 22.6744C34.7427 22.7864 34.7619 22.8906 34.8004 22.9947C34.8412 23.0963 34.8964 23.1874 34.9685 23.2656C35.0405 23.3437 35.1246 23.4036 35.2183 23.4452C35.3119 23.4895 35.4104 23.5104 35.5137 23.5104C35.6146 23.5104 35.713 23.4895 35.8067 23.4452C35.9004 23.4036 35.9845 23.3437 36.0565 23.2656C36.1286 23.1874 36.1838 23.0963 36.2246 22.9947C36.2631 22.8906 36.2823 22.7864 36.2823 22.6744C36.5681 22.5755 36.8299 22.4244 37.0653 22.2239C37.3006 22.0234 37.4976 21.7864 37.6537 21.5103C37.8122 21.2317 37.9203 20.9348 37.9779 20.6171C38.038 20.2968 38.0428 19.9765 37.9972 19.6562C37.9515 19.3359 37.8555 19.0338 37.7089 18.7499C37.5624 18.4661 37.3751 18.2187 37.1469 18.0077C36.9188 17.7968 36.6642 17.6353 36.3832 17.5234C36.0997 17.4114 35.8115 17.3541 35.5113 17.3567C35.3816 17.3567 35.2567 17.3281 35.1366 17.276C35.0165 17.2213 34.9108 17.1458 34.8196 17.0468C34.7283 16.9478 34.6587 16.8333 34.6082 16.703C34.5602 16.5728 34.5338 16.4374 34.5338 16.2968C34.5338 16.1588 34.5602 16.0234 34.6082 15.8932C34.6587 15.7629 34.7283 15.6484 34.8196 15.5494C34.9108 15.4504 35.0165 15.3749 35.1366 15.3202C35.2567 15.2682 35.3816 15.2395 35.5113 15.2395V15.2447Z"/>
</mask>
<path fill-rule="evenodd" clip-rule="evenodd" d="M35.5113 15.2447C35.6386 15.2447 35.7635 15.2734 35.8836 15.3254C36.0013 15.3801 36.1069 15.4557 36.1982 15.5546C36.2895 15.6536 36.3591 15.7682 36.4096 15.8958C36.46 16.026 36.484 16.1614 36.484 16.2994C36.484 16.4114 36.5032 16.5182 36.5417 16.6197C36.5825 16.7213 36.6377 16.8124 36.7098 16.8905C36.7819 16.9687 36.8635 17.0286 36.9596 17.0702C37.0533 17.1145 37.1517 17.1353 37.2526 17.1353C37.3559 17.1353 37.4544 17.1145 37.548 17.0702C37.6417 17.0286 37.7258 16.9687 37.7978 16.8905C37.8699 16.8124 37.9251 16.7213 37.9659 16.6197C38.0044 16.5182 38.0236 16.4114 38.0236 16.2994C38.0236 16.0129 37.9828 15.7317 37.8987 15.4557C37.817 15.1822 37.6969 14.9296 37.5408 14.6952C37.3847 14.4635 37.1974 14.2603 36.9812 14.0937C36.765 13.9244 36.5321 13.7942 36.2775 13.7056C36.2775 13.5963 36.2583 13.4895 36.2198 13.3879C36.1814 13.2864 36.1262 13.1952 36.0541 13.1171C35.9796 13.039 35.898 12.9791 35.8043 12.9348C35.7082 12.8931 35.6098 12.8723 35.5089 12.8723C35.4056 12.8723 35.3071 12.8931 35.2135 12.9348C35.1198 12.9791 35.0357 13.039 34.9637 13.1171C34.8916 13.1952 34.8364 13.2864 34.798 13.3879C34.7571 13.4895 34.7379 13.5963 34.7379 13.7056C34.4545 13.8072 34.1927 13.9556 33.9573 14.1562C33.7219 14.3567 33.525 14.5963 33.3689 14.8723C33.2128 15.1484 33.1047 15.4478 33.0446 15.7655C32.987 16.0833 32.9798 16.4036 33.0278 16.7239C33.0735 17.0442 33.1695 17.3463 33.316 17.6301C33.4626 17.914 33.6499 18.1614 33.8757 18.3723C34.1038 18.5833 34.3584 18.7447 34.6394 18.8567C34.9205 18.9687 35.2111 19.026 35.5113 19.026C35.6386 19.026 35.7635 19.052 35.8836 19.1041C36.0013 19.1588 36.1069 19.2343 36.1982 19.3333C36.2895 19.4322 36.3591 19.5468 36.4096 19.677C36.46 19.8046 36.484 19.94 36.484 20.0807C36.484 20.2213 36.46 20.3541 36.4096 20.4843C36.3591 20.6145 36.2895 20.7265 36.1982 20.8255C36.1069 20.9244 36.0013 21.0025 35.8836 21.0546C35.7635 21.1093 35.6386 21.1353 35.5113 21.1353C35.3816 21.1353 35.2567 21.1093 35.139 21.0546C35.0189 21.0025 34.9132 20.9244 34.822 20.8255C34.7307 20.7265 34.6611 20.6145 34.6106 20.4843C34.5626 20.3541 34.5386 20.2213 34.5386 20.0807C34.5386 19.9687 34.5169 19.8619 34.4785 19.7603C34.4401 19.6588 34.3848 19.5676 34.3128 19.4895C34.2407 19.4114 34.1567 19.3515 34.063 19.3098C33.9669 19.2656 33.8685 19.2447 33.7676 19.2447C33.6643 19.2447 33.5682 19.2656 33.4722 19.3098C33.3785 19.3515 33.2944 19.4114 33.2224 19.4895C33.1503 19.5676 33.0951 19.6588 33.0566 19.7603C33.0182 19.8619 32.9966 19.9687 32.9966 20.0807C32.9966 20.3697 33.0398 20.651 33.1215 20.9244C33.2032 21.1978 33.3233 21.4531 33.4818 21.6848C33.6379 21.9192 33.8228 22.1197 34.039 22.289C34.2552 22.4583 34.4905 22.5859 34.7427 22.6744C34.7427 22.7864 34.7619 22.8906 34.8004 22.9947C34.8412 23.0963 34.8964 23.1874 34.9685 23.2656C35.0405 23.3437 35.1246 23.4036 35.2183 23.4452C35.3119 23.4895 35.4104 23.5104 35.5137 23.5104C35.6146 23.5104 35.713 23.4895 35.8067 23.4452C35.9004 23.4036 35.9845 23.3437 36.0565 23.2656C36.1286 23.1874 36.1838 23.0963 36.2246 22.9947C36.2631 22.8906 36.2823 22.7864 36.2823 22.6744C36.5681 22.5755 36.8299 22.4244 37.0653 22.2239C37.3006 22.0234 37.4976 21.7864 37.6537 21.5103C37.8122 21.2317 37.9203 20.9348 37.9779 20.6171C38.038 20.2968 38.0428 19.9765 37.9972 19.6562C37.9515 19.3359 37.8555 19.0338 37.7089 18.7499C37.5624 18.4661 37.3751 18.2187 37.1469 18.0077C36.9188 17.7968 36.6642 17.6353 36.3832 17.5234C36.0997 17.4114 35.8115 17.3541 35.5113 17.3567C35.3816 17.3567 35.2567 17.3281 35.1366 17.276C35.0165 17.2213 34.9108 17.1458 34.8196 17.0468C34.7283 16.9478 34.6587 16.8333 34.6082 16.703C34.5602 16.5728 34.5338 16.4374 34.5338 16.2968C34.5338 16.1588 34.5602 16.0234 34.6082 15.8932C34.6587 15.7629 34.7283 15.6484 34.8196 15.5494C34.9108 15.4504 35.0165 15.3749 35.1366 15.3202C35.2567 15.2682 35.3816 15.2395 35.5113 15.2395V15.2447Z" fill="#0D313B"/>
<path fill-rule="evenodd" clip-rule="evenodd" d="M35.5113 15.2447C35.6386 15.2447 35.7635 15.2734 35.8836 15.3254C36.0013 15.3801 36.1069 15.4557 36.1982 15.5546C36.2895 15.6536 36.3591 15.7682 36.4096 15.8958C36.46 16.026 36.484 16.1614 36.484 16.2994C36.484 16.4114 36.5032 16.5182 36.5417 16.6197C36.5825 16.7213 36.6377 16.8124 36.7098 16.8905C36.7819 16.9687 36.8635 17.0286 36.9596 17.0702C37.0533 17.1145 37.1517 17.1353 37.2526 17.1353C37.3559 17.1353 37.4544 17.1145 37.548 17.0702C37.6417 17.0286 37.7258 16.9687 37.7978 16.8905C37.8699 16.8124 37.9251 16.7213 37.9659 16.6197C38.0044 16.5182 38.0236 16.4114 38.0236 16.2994C38.0236 16.0129 37.9828 15.7317 37.8987 15.4557C37.817 15.1822 37.6969 14.9296 37.5408 14.6952C37.3847 14.4635 37.1974 14.2603 36.9812 14.0937C36.765 13.9244 36.5321 13.7942 36.2775 13.7056C36.2775 13.5963 36.2583 13.4895 36.2198 13.3879C36.1814 13.2864 36.1262 13.1952 36.0541 13.1171C35.9796 13.039 35.898 12.9791 35.8043 12.9348C35.7082 12.8931 35.6098 12.8723 35.5089 12.8723C35.4056 12.8723 35.3071 12.8931 35.2135 12.9348C35.1198 12.9791 35.0357 13.039 34.9637 13.1171C34.8916 13.1952 34.8364 13.2864 34.798 13.3879C34.7571 13.4895 34.7379 13.5963 34.7379 13.7056C34.4545 13.8072 34.1927 13.9556 33.9573 14.1562C33.7219 14.3567 33.525 14.5963 33.3689 14.8723C33.2128 15.1484 33.1047 15.4478 33.0446 15.7655C32.987 16.0833 32.9798 16.4036 33.0278 16.7239C33.0735 17.0442 33.1695 17.3463 33.316 17.6301C33.4626 17.914 33.6499 18.1614 33.8757 18.3723C34.1038 18.5833 34.3584 18.7447 34.6394 18.8567C34.9205 18.9687 35.2111 19.026 35.5113 19.026C35.6386 19.026 35.7635 19.052 35.8836 19.1041C36.0013 19.1588 36.1069 19.2343 36.1982 19.3333C36.2895 19.4322 36.3591 19.5468 36.4096 19.677C36.46 19.8046 36.484 19.94 36.484 20.0807C36.484 20.2213 36.46 20.3541 36.4096 20.4843C36.3591 20.6145 36.2895 20.7265 36.1982 20.8255C36.1069 20.9244 36.0013 21.0025 35.8836 21.0546C35.7635 21.1093 35.6386 21.1353 35.5113 21.1353C35.3816 21.1353 35.2567 21.1093 35.139 21.0546C35.0189 21.0025 34.9132 20.9244 34.822 20.8255C34.7307 20.7265 34.6611 20.6145 34.6106 20.4843C34.5626 20.3541 34.5386 20.2213 34.5386 20.0807C34.5386 19.9687 34.5169 19.8619 34.4785 19.7603C34.4401 19.6588 34.3848 19.5676 34.3128 19.4895C34.2407 19.4114 34.1567 19.3515 34.063 19.3098C33.9669 19.2656 33.8685 19.2447 33.7676 19.2447C33.6643 19.2447 33.5682 19.2656 33.4722 19.3098C33.3785 19.3515 33.2944 19.4114 33.2224 19.4895C33.1503 19.5676 33.0951 19.6588 33.0566 19.7603C33.0182 19.8619 32.9966 19.9687 32.9966 20.0807C32.9966 20.3697 33.0398 20.651 33.1215 20.9244C33.2032 21.1978 33.3233 21.4531 33.4818 21.6848C33.6379 21.9192 33.8228 22.1197 34.039 22.289C34.2552 22.4583 34.4905 22.5859 34.7427 22.6744C34.7427 22.7864 34.7619 22.8906 34.8004 22.9947C34.8412 23.0963 34.8964 23.1874 34.9685 23.2656C35.0405 23.3437 35.1246 23.4036 35.2183 23.4452C35.3119 23.4895 35.4104 23.5104 35.5137 23.5104C35.6146 23.5104 35.713 23.4895 35.8067 23.4452C35.9004 23.4036 35.9845 23.3437 36.0565 23.2656C36.1286 23.1874 36.1838 23.0963 36.2246 22.9947C36.2631 22.8906 36.2823 22.7864 36.2823 22.6744C36.5681 22.5755 36.8299 22.4244 37.0653 22.2239C37.3006 22.0234 37.4976 21.7864 37.6537 21.5103C37.8122 21.2317 37.9203 20.9348 37.9779 20.6171C38.038 20.2968 38.0428 19.9765 37.9972 19.6562C37.9515 19.3359 37.8555 19.0338 37.7089 18.7499C37.5624 18.4661 37.3751 18.2187 37.1469 18.0077C36.9188 17.7968 36.6642 17.6353 36.3832 17.5234C36.0997 17.4114 35.8115 17.3541 35.5113 17.3567C35.3816 17.3567 35.2567 17.3281 35.1366 17.276C35.0165 17.2213 34.9108 17.1458 34.8196 17.0468C34.7283 16.9478 34.6587 16.8333 34.6082 16.703C34.5602 16.5728 34.5338 16.4374 34.5338 16.2968C34.5338 16.1588 34.5602 16.0234 34.6082 15.8932C34.6587 15.7629 34.7283 15.6484 34.8196 15.5494C34.9108 15.4504 35.0165 15.3749 35.1366 15.3202C35.2567 15.2682 35.3816 15.2395 35.5113 15.2395V15.2447Z" stroke="#0D313B" stroke-width="0.205714" mask="url(#path-13-outside-9_5978_45459)"/>
</g>
</g>
</g>
</g>
</svg>
