<svg width="72" height="72" viewBox="0 0 72 72" fill="none" xmlns="http://www.w3.org/2000/svg">
<g id="generate-classes">
<rect id="Rectangle 34624847" x="7" y="11" width="48" height="42" fill="#CBEDDF"/>
<g id="generate-classes_2">
<g id="Group 1171274905">
<g id="Group 1171274903">
<path id="Ellipse 2538" d="M31.022 27.514C33.5107 27.514 35.5283 25.4965 35.5283 23.0077C35.5283 20.5189 33.5107 18.5013 31.022 18.5013C28.5332 18.5013 26.5156 20.5189 26.5156 23.0077C26.5156 25.4965 28.5332 27.514 31.022 27.514Z" fill="#22885E"/>
<path id="person" d="M30.6178 29.3966C33.8129 29.3966 36.4006 26.5716 36.4006 23.1126C36.4006 19.7062 33.8129 17 30.6178 17C27.436 17 24.8221 19.7458 24.8354 23.1389C24.8487 26.5846 27.4231 29.3966 30.6178 29.3966ZM30.6178 27.0865C28.7959 27.0865 27.2513 25.3568 27.2513 23.1389C27.238 20.9739 28.783 19.3101 30.6178 19.3101C32.4663 19.3101 33.9843 20.9473 33.9843 23.1126C33.9843 25.3305 32.453 27.0865 30.6178 27.0865ZM22.3798 41.6748H38.8428C41.127 41.6748 42.2227 40.9485 42.2227 39.3909C42.2227 35.7602 37.6943 30.9283 30.6178 30.9283C23.5417 30.9283 19 35.7602 19 39.3909C19 40.9485 20.0956 41.6748 22.3798 41.6748ZM21.9704 39.3643C21.6536 39.3643 21.5348 39.2588 21.5348 39.0212C21.5348 37.0013 24.7958 33.2387 30.6178 33.2387C36.4269 33.2387 39.6879 37.0013 39.6879 39.0212C39.6879 39.2588 39.5691 39.3643 39.2522 39.3643H21.9704Z" fill="#0B2D1F" stroke="#0B2D1F" stroke-width="0.651865"/>
</g>
<path id="Subtract" fill-rule="evenodd" clip-rule="evenodd" d="M6.22204 9H55.1068C55.6961 9 56.2613 9.2341 56.678 9.65082C57.0947 10.0675 57.3289 10.6327 57.3289 11.222V39.8706C56.9393 39.8319 56.5439 39.812 56.1441 39.812C55.0136 39.812 53.9203 39.9701 52.885 40.2657V13.4441H8.44407V48.9966H37.3307V46.7748H45.3451C44.6693 48.2649 44.2932 49.9199 44.2932 51.6628C44.2932 52.267 44.3383 52.861 44.4257 53.4408H6.22204C5.63271 53.4408 5.06754 53.2066 4.65082 52.7899C4.2341 52.3732 4 51.808 4 51.2187V11.222C4 10.6327 4.2341 10.0675 4.65082 9.65082C5.06754 9.2341 5.63271 9 6.22204 9Z" fill="#0B2D1F"/>
<g id="Group 1171274904">
<path id="Ellipse 2540" d="M57.1165 62.2073C62.406 62.2073 66.694 57.9193 66.694 52.6298C66.694 47.3403 62.406 43.0524 57.1165 43.0524C51.827 43.0524 47.5391 47.3403 47.5391 52.6298C47.5391 57.9193 51.827 62.2073 57.1165 62.2073Z" fill="#22885E"/>
<path id="Vector" d="M57.3297 43.706C62.358 43.706 66.4721 47.8198 66.4721 52.8481C66.4721 57.8761 62.358 61.9901 57.3297 61.9901C52.3018 61.9901 48.1877 57.8761 48.1877 52.8481C48.1877 47.8198 52.3018 43.706 57.3297 43.706ZM57.3297 42.1821C51.4636 42.1821 46.6641 46.982 46.6641 52.8481C46.6641 58.7142 51.4636 63.5138 57.3297 63.5138C63.1961 63.5138 67.9957 58.7142 67.9957 52.8481C67.9957 46.982 63.1961 42.1821 57.3297 42.1821Z" fill="#0B2D1F" stroke="#0B2D1F" stroke-width="0.514286"/>
<path id="Vector_2" d="M63.424 52.0865H58.091V46.7535H56.5674V52.0865H51.2344V53.6101H56.5674V58.9431H58.091V53.6101H63.424V52.0865Z" fill="#0B2D1F" stroke="#0B2D1F" stroke-width="0.514286"/>
</g>
</g>
</g>
</g>
</svg>
