<svg width="72" height="72" viewBox="0 0 72 72" fill="none" xmlns="http://www.w3.org/2000/svg">
<g id="group-class">
<rect id="Rectangle 34624932" x="31" y="11" width="30" height="33" fill="#62C89E"/>
<path id="Vector" d="M15.1429 4C10.8078 4 7.30612 7.51478 7.30612 11.8367C7.30612 16.1587 10.8078 19.6735 15.1429 19.6735C19.4779 19.6735 22.9796 16.1587 22.9796 11.8367C22.9796 7.51478 19.4779 4 15.1429 4ZM32.1225 7.91837C29.889 7.91837 28.0916 9.78502 28.2092 12.0459C28.3202 14.1644 30.2219 15.7551 32.3444 15.7551H56.9388C57.6598 15.7551 58.2449 16.3402 58.2449 17.0612V39.2653C58.2449 39.9863 57.6598 40.5714 56.9388 40.5714H33.4286C31.1951 40.5714 29.3978 42.4381 29.5153 44.699C29.6263 46.8175 31.5281 48.4082 33.6505 48.4082H58.2449C62.5734 48.4082 66.0816 44.8999 66.0816 40.5714V15.7551C66.0816 11.4266 62.5734 7.91837 58.2449 7.91837H32.1225ZM13.8367 22.2857C9.50825 22.2857 6 25.794 6 30.1224V44.4898C6 46.654 7.75412 48.4082 9.91837 48.4082H20.3673C22.5316 48.4082 24.2857 46.654 24.2857 44.4898V38.1811C24.3811 38.2569 24.4774 38.3324 24.5714 38.4082C25.1958 38.9071 25.9439 39.1839 26.7066 39.2296C27.4237 39.2727 28.1531 39.1107 28.8061 38.7398L37.9872 33.5179C39.8681 32.4468 40.5203 30.0568 39.4362 28.176C38.3652 26.2952 35.9752 25.643 34.0944 26.727L27.5893 30.4362L22.2372 24.852C20.8044 23.2782 18.7451 22.2857 16.449 22.2857H13.8367ZM16.4413 52.3265C12.1063 52.3265 8.60459 55.8413 8.60459 60.1633C8.60459 64.4852 12.1063 68 16.4413 68C20.7763 68 24.2781 64.4852 24.2781 60.1633C24.2781 55.8413 20.7763 52.3265 16.4413 52.3265ZM34.727 52.3265C30.392 52.3265 26.8903 55.8413 26.8903 60.1633C26.8903 64.4852 30.392 68 34.727 68C39.0621 68 42.5638 64.4852 42.5638 60.1633C42.5638 55.8413 39.0621 52.3265 34.727 52.3265ZM53.0128 52.3265C48.6777 52.3265 45.176 55.8413 45.176 60.1633C45.176 64.4852 48.6777 68 53.0128 68C57.3478 68 60.8495 64.4852 60.8495 60.1633C60.8495 55.8413 57.3478 52.3265 53.0128 52.3265Z" fill="#0B2D1F"/>
<circle id="Ellipse 2718" cx="16.5" cy="60.5" r="4.5" fill="#22885E"/>
<circle id="Ellipse 2724" cx="15" cy="11.5" r="4.5" fill="#22885E"/>
<circle id="Ellipse 2722" cx="34.5" cy="60.5" r="4.5" fill="#22885E"/>
<circle id="Ellipse 2723" cx="53" cy="60.5" r="4.5" fill="#22885E"/>
</g>
</svg>
