<svg width="72" height="72" viewBox="0 0 72 72" fill="none" xmlns="http://www.w3.org/2000/svg">
<g id="reguler-timetable">
<rect id="Rectangle 34624846" x="7" y="23" width="51" height="35" fill="#CBEDDF"/>
<g id="Group 1171274938">
<circle id="Ellipse 2533" cx="53.057" cy="53.0632" r="13.5101" fill="#22885E"/>
<path id="Vector 431" d="M57.3251 11.1106H8.97302L6.83984 22.4876H57.3251V11.1106Z" fill="#22885E" stroke="#22885E" stroke-width="1.02857"/>
<g id="Group 1171274885">
<g id="Group">
<path id="Vector" d="M51.1157 37.9669C47.9076 38.3583 44.8213 39.8212 42.5115 42.0477C41.626 42.9011 41.0678 43.5555 40.3941 44.5629C39.1558 46.3979 38.3152 48.6051 37.9687 50.9278C37.8404 51.8197 37.8597 54.2836 38.0008 55.1626C38.45 57.8831 39.4958 60.2956 41.1063 62.336C41.5747 62.9327 42.9478 64.3058 43.5445 64.7742C45.5785 66.3783 48.0231 67.437 50.7179 67.8797C51.7125 68.0401 54.1506 68.0401 55.1452 67.8797C58.3982 67.3471 61.138 65.9933 63.4094 63.7989C65.9823 61.3094 67.5928 57.9793 67.9521 54.3926C68.0419 53.4559 67.997 51.5759 67.8494 50.6712C66.9576 45.0441 63.0372 40.3987 57.6924 38.6406C56.6787 38.307 55.466 38.0439 54.4586 37.9348C53.6309 37.8514 51.9755 37.8643 51.1157 37.9669ZM54.6319 40.7965C59.1939 41.4125 63.1014 44.6527 64.5707 49.0479C64.9878 50.2926 65.1289 51.146 65.1674 52.5961C65.1931 53.597 65.1803 54.0397 65.0968 54.6172C64.5322 58.5311 62.2031 61.874 58.7062 63.7797C57.5834 64.3892 55.9985 64.9089 54.6383 65.1079C53.7272 65.2426 52.1359 65.2426 51.2248 65.1079C47.7279 64.601 44.6738 62.6761 42.7104 59.7374C41.7094 58.236 41.0421 56.4908 40.7727 54.675C40.6443 53.7895 40.6443 52.1084 40.7727 51.223C41.5298 46.0515 45.4052 41.9514 50.5319 40.9184C51.937 40.6297 53.1433 40.5976 54.6319 40.7965Z" fill="#0B2D1F"/>
<path id="Vector_2" d="M52.5286 43.3823C52.1885 43.4913 51.8998 43.7223 51.7201 44.0175L51.5469 44.319V48.8425C51.5469 53.1286 51.5533 53.3789 51.6688 53.5906C51.8613 53.9563 56.1217 58.1847 56.4233 58.313C56.558 58.3707 56.8403 58.4156 57.0392 58.4156C57.8092 58.4156 58.3802 57.8574 58.3995 57.0939C58.4123 56.4394 58.3866 56.4073 56.2885 54.2964L54.3444 52.3394L54.3251 48.3292L54.3059 44.319L54.1262 44.0175C53.9017 43.6325 53.5038 43.3887 53.0419 43.3566C52.8558 43.3374 52.6248 43.3566 52.5286 43.3823Z" fill="#0B2D1F"/>
</g>
<path id="Subtract" fill-rule="evenodd" clip-rule="evenodd" d="M13.2647 8.41138V6.20569V4H15.4704H17.6761V6.20569V8.41138H32.2337H46.7912V6.20569V4H48.9969H51.2026V6.20569V8.41138H53.0333C55.1177 8.41138 55.7463 8.53269 56.9815 9.15028C58.0402 9.67965 59.1982 10.8376 59.7276 11.8964C59.8322 12.1041 59.9221 12.2549 59.9993 12.4118C60.5081 13.4463 60.4665 14.7514 60.4665 34.4385C60.4665 35.352 60.4666 36.2259 60.4667 37.062C59.0858 36.4057 57.6058 35.9244 56.0551 35.6465V31.7917V25.1746H49.6586H43.2621V31.7917V38.2711C41.4296 39.4822 39.8374 41.0275 38.5723 42.8202H32.2337H25.6166V49.4372V56.0543H32.2337H35.6437C35.9214 57.605 36.4025 59.0852 37.0585 60.4662C35.5725 60.4659 33.9676 60.4657 32.2337 60.4657C10.3242 60.4657 9.01486 60.5076 7.98501 59.9917C7.83397 59.916 7.68894 59.8283 7.48581 59.7268C6.42708 59.1974 5.26909 58.0394 4.73973 56.9807C4.63511 56.7729 4.54524 56.6222 4.46803 56.4652C3.95925 55.4308 4.00082 54.1257 4.00082 34.4385C4.00082 14.7514 3.95925 13.4463 4.46803 12.4118C4.54524 12.2549 4.63511 12.1041 4.73973 11.8964C5.26909 10.8376 6.42708 9.67965 7.48581 9.15028C8.721 8.53269 9.34962 8.41138 11.434 8.41138H13.2647ZM13.2647 17.2341V15.0285V12.8228L11.9744 12.8338C11.2575 12.8448 10.4966 12.8779 10.276 12.922C9.66945 13.0433 9.09597 13.4514 8.76511 14.0138L8.46734 14.5322L8.43426 17.6422L8.39014 20.7632H32.2337H56.0772L56.0331 17.6422L56 14.5322L55.6912 14.0138C55.4927 13.672 55.2059 13.3852 54.8751 13.1867C54.4009 12.911 54.2575 12.8889 52.7797 12.8448L51.2026 12.7897V15.0174V17.2341H48.9969H46.7912V15.0285V12.8228H32.2337H17.6761V15.0285V17.2341H15.4704H13.2647ZM21.2052 38.4088V31.7917V25.1746H14.8087H8.4122V31.7917V38.4088H14.8087H21.2052ZM38.8507 38.4088V31.7917V25.1746H32.2337H25.6166V31.7917V38.4088H32.2337H38.8507ZM21.2052 56.0653V49.4483V42.8202H14.8087H8.40117L8.43426 48.577L8.46734 54.3449L8.77614 54.8632C8.97465 55.2051 9.26139 55.4918 9.60327 55.6904L10.1216 55.9992L15.6689 56.0322L21.2052 56.0653Z" fill="#0B2D1F"/>
</g>
</g>
</g>
</svg>
