<svg width="72" height="72" viewBox="0 0 72 72" fill="none" xmlns="http://www.w3.org/2000/svg">
<g id="school">
<g id="Group 159038">
<g id="display">
<path d="M4 46.2625C4 51.206 6.52492 53.6512 11.3621 53.6512H27.6013L26.8837 58.4618H24.0664C22.7375 58.4618 21.6478 59.5781 21.6478 60.907C21.6478 62.2093 22.7375 63.3256 24.0664 63.3256H48.1196C49.4751 63.3256 50.5648 62.2093 50.5648 60.907C50.5648 59.5781 49.4751 58.4618 48.1196 58.4618H45.0897L44.3987 53.6512H60.6113C65.4485 53.6512 68 51.206 68 46.2625V16.3621C68 11.4452 65.4485 9 60.6113 9H11.3621C6.52492 9 4 11.4452 4 16.3621V46.2625ZM9.18272 45.9435V16.7076C9.18272 14.8738 9.95349 14.1827 11.7076 14.1827H60.2658C62.0199 14.1827 62.8173 14.8738 62.8173 16.7076V45.9435C62.8173 47.7508 62.0199 48.4684 60.2658 48.4684H11.7076C9.95349 48.4684 9.18272 47.7508 9.18272 45.9435Z" fill="#0D313B"/>
<path d="M9.18272 45.9435V16.7076C9.18272 14.8738 9.95349 14.1827 11.7076 14.1827H60.2658C62.0199 14.1827 62.8173 14.8738 62.8173 16.7076V45.9435C62.8173 47.7508 62.0199 48.4684 60.2658 48.4684H11.7076C9.95349 48.4684 9.18272 47.7508 9.18272 45.9435Z" fill="#68D4F4"/>
</g>
</g>
<g id="Group 1171274883">
<rect id="Rectangle 34624705" x="36.3359" y="18.1602" width="3.48" height="2.32" fill="#2894B4"/>
<path id="Rectangle 34624707" d="M28.8008 29.47L35.7608 24.54L43.5908 29.47L43.8808 44.84H28.8008V29.47Z" fill="#2894B4"/>
<g id="Group 1171274880">
<g id="Group">
<path id="Vector" d="M48.4582 32.3435H44.8845V29.7353C44.8845 29.4792 44.7861 29.2753 44.5905 29.1212L36.8065 23.5467V21.5514H40.5272C40.9184 21.5514 41.2124 21.2455 41.2124 20.8353V17.7161C41.2124 17.3071 40.9184 17 40.5272 17H36.0717C35.6805 17 35.3865 17.3071 35.3865 17.7161V23.5467L27.6512 29.1722C27.4556 29.3263 27.3572 29.5302 27.3572 29.7863V32.3945H23.6851C23.2939 32.3945 23 32.7016 23 33.1106V45.2839C23 45.6929 23.2939 46 23.6851 46H48.4085C48.8008 46 49.0947 45.6929 49.0947 45.2839V33.1106C49.1434 32.7016 48.8494 32.3435 48.4582 32.3435ZM36.8065 18.4322H39.841V20.0683H36.8065V18.4322ZM24.42 33.8267H27.3572V44.5169H24.42V33.8267ZM28.7772 33.1106V30.1443L36.1203 24.7737L43.4645 30.1443V44.5169H39.5968V39.4023C39.5968 37.4071 38.0298 35.771 36.1203 35.771C34.2108 35.771 32.6449 37.4071 32.6449 39.4023V44.5169H28.7772V33.1106ZM34.0649 44.5169V39.4023C34.0649 38.2251 34.9943 37.2541 36.1203 37.2541C37.2464 37.2541 38.1768 38.2251 38.1768 39.4023V44.5169H34.0649ZM47.7234 44.5169H44.8845V33.8267H47.7234V44.5169Z" fill="#0D313B"/>
</g>
<path id="Vector_2" d="M36.1191 34.0828C37.686 34.0828 39.0077 32.7526 39.0077 31.0655C39.0077 29.4283 37.7347 28.0471 36.1191 28.0471C34.5532 28.0471 33.2305 29.3773 33.2305 31.0655C33.2305 32.7016 34.5532 34.0828 36.1191 34.0828ZM36.1191 29.5303C36.9026 29.5303 37.5877 30.1954 37.5877 31.0655C37.5877 31.8836 36.9512 32.5996 36.1191 32.5996C35.3356 32.5996 34.6505 31.9346 34.6505 31.0655C34.6505 30.1954 35.3356 29.5303 36.1191 29.5303Z" fill="#0D313B"/>
</g>
</g>
</g>
</svg>
