<svg width="72" height="72" viewBox="0 0 72 72" fill="none" xmlns="http://www.w3.org/2000/svg">
<g id="student-invoice">
<ellipse id="Ellipse 2645" cx="54" cy="47.5" rx="9" ry="8.5" fill="#62C89E"/>
<g id="Group 1171274902">
<path id="Vector" d="M47.1304 63.1226C42.8994 61.2936 39.5253 57.9197 37.6959 53.6889C36.7623 51.5028 36.2809 49.1503 36.2809 46.7731C36.2809 44.396 36.7623 42.0435 37.6959 39.8574C39.5197 35.6272 42.8896 32.2529 47.1174 30.4236C49.3001 29.4815 51.6537 28.9999 54.031 29.009V8.13974C54.031 7.90992 53.9397 7.68951 53.7772 7.527C53.6147 7.36449 53.3943 7.27319 53.1645 7.27319H9.90951C9.67969 7.27319 9.45928 7.36449 9.29677 7.527C9.13427 7.68951 9.04297 7.90992 9.04297 8.13974V65.0427C9.04297 65.2726 9.13427 65.493 9.29677 65.6555C9.45928 65.818 9.67969 65.9093 9.90951 65.9093H53.1645C53.3943 65.9093 53.6147 65.818 53.7772 65.6555C53.9397 65.493 54.031 65.2726 54.031 65.0427V64.5373C51.6581 64.5445 49.3091 64.0629 47.1304 63.1226Z" fill="#22885E"/>
<g id="9xOQyM">
<path id="Vector_2" d="M6.00541 36.0224C6.00541 27.4985 6.00541 18.9746 6.00541 10.4507C6.00541 6.12809 8.14939 4.00072 12.4785 4C25.014 4 37.5493 4 50.0843 4C54.3751 4 56.4202 6.06165 56.4224 10.3799C56.4262 15.9961 56.4262 21.612 56.4224 27.2277C56.4224 27.6285 56.4411 28.0329 56.4007 28.43C56.3018 29.3969 55.8187 30.0302 54.786 30.062C53.7642 30.0938 53.1735 29.4951 53.0262 28.5586C52.902 27.7736 52.949 26.9598 52.9482 26.1582C52.9425 20.8434 52.9482 15.5286 52.941 10.2131C52.936 8.04676 52.4088 7.48278 50.3219 7.48134C37.5861 7.47219 24.8501 7.47219 12.1138 7.48134C10.1764 7.48134 9.4882 8.16952 9.48675 10.112C9.47809 27.3606 9.47809 44.6091 9.48675 61.8576C9.48675 63.8189 10.1663 64.5107 12.0864 64.5122C24.8222 64.5218 37.5582 64.5252 50.2944 64.5223C51.0447 64.522 51.7866 64.3645 52.4724 64.0601C53.3339 63.6889 54.1896 63.8095 54.6792 64.723C55.1926 65.6827 54.8416 66.4756 53.9989 67.0612C53.0674 67.7075 52.0203 68 50.883 68C37.7958 67.9971 24.7088 67.9935 11.6221 67.9892C8.27215 67.9827 6.02274 65.5896 6.01263 62.0447C5.9888 53.3713 6.00614 44.6972 6.00541 36.0224Z" fill="#0B2D1F"/>
<path id="Vector_3" d="M21.2016 54.8755C21.7981 54.9983 22.5852 55.1405 23.3615 55.329C23.9012 55.4587 24.469 55.4011 24.9718 55.1658C25.4224 54.9686 25.7141 54.6206 25.7351 54.1368C25.7596 53.6002 25.3552 53.3338 24.9119 53.1908C24.2959 52.9929 23.6474 52.894 23.0343 52.6853C21.0009 51.9762 19.4772 50.6915 19.2699 48.4544C19.0764 46.3603 20.1069 44.7579 22.0082 43.8624C23.0192 43.3858 22.7773 42.5829 22.8192 41.8217C22.8971 40.3818 23.6546 39.5189 24.7609 39.7175C25.9033 39.9233 26.3431 40.7797 26.2709 41.816C26.1878 43.0147 26.6088 43.6617 27.7873 43.9823C28.8864 44.2827 29.2951 45.1659 28.9485 46.2252C28.6019 47.2846 27.6906 47.4528 26.7294 47.1878C25.7979 46.9315 24.8693 46.7986 23.9132 46.9134C23.3087 46.9856 22.8661 47.2947 22.7672 47.9244C22.6755 48.5021 23.0372 48.9122 23.5052 49.1159C24.1414 49.3924 24.8238 49.5701 25.4968 49.7499C27.3793 50.251 28.7983 51.2526 29.1341 53.2933C29.4439 55.1788 28.825 56.7732 27.2443 57.8737C26.5395 58.364 26.2333 58.9136 26.2962 59.7469C26.3403 60.2465 26.3172 60.7497 26.2276 61.2431C26.0384 62.1754 25.4549 62.8195 24.4692 62.7726C23.4958 62.7271 22.9527 62.0736 22.8502 61.1045C22.805 60.7058 22.7972 60.3037 22.8271 59.9036C22.8906 59.1216 22.5939 58.6883 21.7909 58.5439C21.2503 58.4375 20.7257 58.2615 20.2304 58.0203C19.3963 57.6282 19.0555 56.9227 19.3003 56.0367C19.5292 55.212 20.1524 54.8401 21.2016 54.8755Z" fill="#0B2D1F"/>
<path id="Vector_4" d="M31.2494 23.559C35.6615 23.559 40.0739 23.559 44.4865 23.559C44.9372 23.559 45.3964 23.5366 45.8362 23.6131C46.671 23.7575 47.2032 24.3042 47.2638 25.1346C47.3245 25.9651 46.8732 26.5911 46.0615 26.8323C45.5799 26.9643 45.0819 27.0268 44.5826 27.0179C35.6572 27.028 26.7318 27.0295 17.8064 27.0222C17.4569 27.0222 17.098 27.0222 16.7593 26.95C15.8119 26.7406 15.2566 26.1701 15.3035 25.1527C15.3519 24.1128 15.9823 23.642 16.9586 23.5756C17.4583 23.5424 17.9617 23.5582 18.4628 23.5582C22.7248 23.5578 26.9869 23.558 31.2494 23.559Z" fill="#0B2D1F"/>
<path id="Vector_5" d="M31.3464 17.1508C26.8365 17.1508 22.3264 17.1508 17.816 17.1508C16.6289 17.1508 15.3868 17.223 15.3038 15.5462C15.2446 14.3345 16.0606 13.7409 17.8767 13.7323C23.1388 13.7106 28.4009 13.7222 33.6622 13.7214C37.1703 13.7214 40.6783 13.7229 44.1864 13.7258C44.6861 13.7258 45.1974 13.7258 45.6833 13.8095C46.7051 13.9872 47.3565 14.6169 47.2568 15.6675C47.1651 16.6395 46.4712 17.1371 45.479 17.1399C42.9732 17.1462 40.4675 17.1491 37.9617 17.1486C35.7564 17.1515 33.5513 17.1522 31.3464 17.1508Z" fill="#0B2D1F"/>
<path id="Vector_6" d="M28.784 36.7052C25.0738 36.7052 21.3638 36.7052 17.654 36.7052C16.4719 36.7052 15.375 36.5803 15.2818 35.0617C15.2096 33.8637 16.0097 33.2333 17.6699 33.2304C24.9893 33.2159 27.9767 33.2232 35.2961 33.2261C35.5967 33.2147 35.8978 33.2321 36.1951 33.278C37.1758 33.4716 37.9297 33.9792 37.8574 35.0675C37.7852 36.1167 37.0631 36.6727 36.029 36.6865C33.6229 36.7175 35.5496 36.7031 33.1406 36.7052C31.6905 36.7067 30.2384 36.7067 28.784 36.7052Z" fill="#0B2D1F"/>
</g>
<path id="Vector_7" d="M49.2063 58.3523C46.1861 57.0487 43.7779 54.6407 42.4739 51.6207C41.8235 50.0874 41.4883 48.4388 41.4883 46.7731C41.4883 45.1075 41.8235 43.4589 42.4739 41.9256C43.1181 40.4296 44.0399 39.0692 45.1906 37.9164C46.339 36.7616 47.6979 35.8375 49.194 35.194C50.7284 34.5435 52.3779 34.2083 54.0445 34.2083C55.711 34.2083 57.3606 34.5435 58.8949 35.194C61.9182 36.495 64.329 38.9036 65.633 41.9256C66.2831 43.459 66.6181 45.1076 66.6181 46.7731C66.6181 48.4387 66.2831 50.0873 65.633 51.6207C64.3291 54.6407 61.9209 57.0487 58.9007 58.3523C57.3675 59.0028 55.719 59.338 54.0535 59.338C52.388 59.338 50.7395 59.0028 49.2063 58.3523ZM46.6131 45.3542L49.0395 46.4634L52.7844 44.7259C52.7672 44.6798 52.7589 44.6308 52.7598 44.5815C52.7598 44.376 52.8975 44.2116 53.1729 44.0883C53.4539 43.9641 53.7581 43.9011 54.0654 43.9034C54.3711 43.9006 54.6738 43.9636 54.9529 44.0883C55.2239 44.212 55.3594 44.3764 55.3594 44.5815C55.3594 44.7948 55.2259 44.9671 54.9587 45.0986C54.6802 45.2326 54.3744 45.3001 54.0654 45.2957C53.8741 45.3003 53.6833 45.2759 53.4993 45.2235L49.9515 46.8844L52.45 48.0296C52.7194 48.1573 52.9997 48.2603 53.2877 48.3373C53.7819 48.4528 54.2962 48.4528 54.7904 48.3373C55.078 48.26 55.3582 48.157 55.6273 48.0296L61.4541 45.3578C61.832 45.1854 62.0208 44.9269 62.0203 44.5822C62.0165 44.428 61.9697 44.278 61.8852 44.149C61.7801 43.9891 61.6291 43.8647 61.452 43.7922L55.6273 41.1406C55.0116 40.8619 54.4821 40.7305 54.0387 40.7463C53.5953 40.7305 53.0658 40.8619 52.45 41.1406L46.611 43.7893C46.4394 43.8646 46.2938 43.9887 46.1921 44.1461C46.1074 44.2751 46.0604 44.4251 46.0564 44.5793C46.0578 44.9245 46.2434 45.1835 46.6131 45.3563V45.3542ZM49.077 50.713V47.4014L48.2762 47.0403V49.0485C48.2762 49.6094 48.5431 50.1649 49.077 50.7152V50.713ZM48.8604 54.3467C48.9342 54.4186 49.0221 54.4743 49.1185 54.5103C49.215 54.5464 49.3179 54.562 49.4207 54.5562H49.5688C49.6706 54.5622 49.7726 54.5467 49.868 54.5105C49.9634 54.4743 50.0501 54.4183 50.1223 54.3462C50.1945 54.2741 50.2505 54.1875 50.2868 54.0921C50.3231 53.9967 50.3388 53.8947 50.3328 53.7929V52.5133C50.3328 52.1763 50.1932 51.9423 49.9139 51.8114V51.368C49.6051 51.1926 49.323 50.9737 49.0763 50.7181V51.8013C48.7966 51.9245 48.657 52.1626 48.6575 52.5154V53.7972C48.653 53.8981 48.6688 53.9988 48.7037 54.0936C48.7387 54.1883 48.7922 54.2751 48.8611 54.3489L48.8604 54.3467ZM51.712 52.0742C52.4754 52.2499 53.2568 52.3347 54.0401 52.327C55.2148 52.327 56.231 52.177 57.0889 51.8771C57.9468 51.5772 58.6121 51.1788 59.0849 50.682C59.5571 50.1852 59.7933 49.6412 59.7933 49.05V47.0439L55.9747 48.8059C55.6486 48.9523 55.3103 49.0697 54.9637 49.1569C54.6616 49.2327 54.3508 49.2679 54.0394 49.2616C53.7266 49.2673 53.4144 49.2318 53.1108 49.1561C52.7659 49.0709 52.4298 48.9534 52.107 48.8052L49.9147 47.7942V51.3665C50.4738 51.6945 51.0803 51.934 51.7127 52.0764L51.712 52.0742Z" fill="#0B2D1F"/>
</g>
</g>
</svg>
