<svg width="72" height="72" viewBox="0 0 72 72" fill="none" xmlns="http://www.w3.org/2000/svg">
<g id="student">
<g id="Group">
<g id="Vector">
<path d="M55.0017 41.0367C54.8533 41.0367 54.8533 41.0367 55.0017 41.0367L54.8533 39.7033C54.8533 38.9617 54.2617 38.37 53.5217 38.2217C53.0783 38.2217 52.635 38.0733 52.1917 38.0733L52.0433 37.925C49.2333 35.4067 46.1267 33.6283 42.8717 32.5917C47.605 30.0733 50.86 25.0367 50.86 19.2583C50.86 10.815 44.055 4 35.625 4C27.1933 4 20.39 10.815 20.39 19.2583C20.39 25.0367 23.6433 30.0733 28.3767 32.5917C25.1233 33.6283 22.0167 35.4067 19.2067 37.7767C19.2067 37.7767 19.0583 37.925 19.0583 38.0733C18.615 38.0733 18.1717 38.0733 17.7267 38.2217C16.9883 38.37 16.3967 38.9617 16.3967 39.7033V40.8883C16.2483 41.0367 16.1 41.0367 16.1 41.185C11.6633 46.9617 9 54.815 9 62.2217C9 63.11 9.59167 63.7033 10.48 63.7033H16.5433C16.5433 64 16.6917 64.295 16.9883 64.4433C17.2833 64.74 17.7267 64.8883 18.1717 64.8883C28.6733 63.8517 34.885 67.7033 34.885 67.8517C34.885 67.8517 35.0333 67.8517 35.0333 68H35.1817C35.3283 68 35.3283 68 35.4767 68H35.625C35.7733 68 35.92 68 36.0683 68C36.0683 68 36.0683 68 36.2167 68C36.365 68 36.365 68 36.5117 67.8517C36.5117 67.8517 42.725 63.8517 53.2267 64.8883C53.67 64.8883 54.1133 64.74 54.41 64.4433C54.5583 64.295 54.705 64 54.8533 63.7033H60.9183C61.805 63.7033 62.3967 63.11 62.3967 62.2217C62.3967 54.2217 59.735 46.6667 55.0017 41.0367ZM23.3483 19.2583C23.3483 12.4433 28.82 6.96167 35.625 6.96167C42.4283 6.96167 47.9017 12.4433 47.9017 19.2583C47.9017 26.0733 42.4283 31.555 35.625 31.555C28.82 31.555 23.3483 26.0733 23.3483 19.2583ZM47.31 38.0733C41.245 38.5183 37.2517 40.295 35.625 41.185C33.9983 40.295 30.0033 38.5183 23.94 38.0733C27.49 35.7033 31.4833 34.5183 35.625 34.5183C39.7667 34.5183 43.76 35.7033 47.31 38.0733ZM16.3967 46.0733V60.74H11.9583C12.1067 55.7033 13.7333 50.37 16.3967 46.0733ZM51.895 61.7767C43.3167 61.185 37.695 63.7033 35.625 64.8883C33.5533 63.8517 27.9333 61.3333 19.355 61.7767V41.0367C28.9683 40.4433 34.7367 44 34.885 44C35.0333 44 35.1817 44.1483 35.1817 44.1483H35.3283C35.4767 44.1483 35.625 44.1483 35.7733 44.1483H35.92C36.0683 44.1483 36.2167 44 36.365 44C36.365 44 36.365 44 36.5117 44C36.66 43.8517 42.28 40.295 51.895 41.0367V61.7767ZM54.8533 60.74V46.0733C57.515 50.37 59.1433 55.4067 59.29 60.74H54.8533Z" fill="#0B2D1F"/>
<path d="M51.895 61.7767C43.3167 61.185 37.695 63.7033 35.625 64.8883C33.5533 63.8517 27.9333 61.3333 19.355 61.7767V41.0367C28.9683 40.4433 34.7367 44 34.885 44C35.0333 44 35.1817 44.1483 35.1817 44.1483H35.3283H35.7733H35.92C36.0683 44.1483 36.2167 44 36.365 44H36.5117C36.66 43.8517 42.28 40.295 51.895 41.0367V61.7767Z" fill="#22885E"/>
<path d="M23.3483 19.2583C23.3483 12.4433 28.82 6.96167 35.625 6.96167C42.4283 6.96167 47.9017 12.4433 47.9017 19.2583C47.9017 26.0733 42.4283 31.555 35.625 31.555C28.82 31.555 23.3483 26.0733 23.3483 19.2583Z" fill="#22885E"/>
<path d="M54.8533 60.74V46.0733C57.515 50.37 59.1433 55.4067 59.29 60.74H54.8533Z" fill="#62C89E"/>
<path d="M16.3967 46.0733V60.74H11.9583C12.1067 55.7033 13.7333 50.37 16.3967 46.0733Z" fill="#62C89E"/>
<path d="M47.31 38.0733C41.245 38.5183 37.2517 40.295 35.625 41.185C33.9983 40.295 30.0033 38.5183 23.94 38.0733C27.49 35.7033 31.4833 34.5183 35.625 34.5183C39.7667 34.5183 43.76 35.7033 47.31 38.0733Z" fill="#CBEDDF"/>
</g>
</g>
</g>
</svg>
