<svg width="72" height="72" viewBox="0 0 72 72" fill="none" xmlns="http://www.w3.org/2000/svg">
<g id="subject-weighthage">
<rect id="Rectangle 34624844" x="5" y="16" width="55" height="37" rx="4" fill="#CBEDDF"/>
<g id="Group 1171275147">
<g id="Subtract">
<mask id="path-2-outside-1_5978_45496" maskUnits="userSpaceOnUse" x="3" y="14" width="59" height="40" fill="black">
<rect fill="white" x="3" y="14" width="59" height="40"/>
<path fill-rule="evenodd" clip-rule="evenodd" d="M5.03417 19.3764C5.03417 17.4999 6.65897 15.9723 8.65495 15.9723H56.2339C58.2299 15.9723 59.8547 17.4999 59.8547 19.3764V34.1397C60.206 34.2396 60.551 34.3545 60.8889 34.4838V19.3764C60.8889 16.9643 58.8019 15 56.2339 15H8.65495C6.08936 15 4 16.9643 4 19.3764V48.5495C4 50.9616 6.08936 52.9259 8.65495 52.9259H46.0301C45.8239 52.6114 45.6316 52.2871 45.454 51.9536H8.65495C6.65897 51.9536 5.03417 50.4261 5.03417 48.5495V19.3764Z"/>
</mask>
<path fill-rule="evenodd" clip-rule="evenodd" d="M5.03417 19.3764C5.03417 17.4999 6.65897 15.9723 8.65495 15.9723H56.2339C58.2299 15.9723 59.8547 17.4999 59.8547 19.3764V34.1397C60.206 34.2396 60.551 34.3545 60.8889 34.4838V19.3764C60.8889 16.9643 58.8019 15 56.2339 15H8.65495C6.08936 15 4 16.9643 4 19.3764V48.5495C4 50.9616 6.08936 52.9259 8.65495 52.9259H46.0301C45.8239 52.6114 45.6316 52.2871 45.454 51.9536H8.65495C6.65897 51.9536 5.03417 50.4261 5.03417 48.5495V19.3764Z" fill="#0B2D1F"/>
<path d="M59.8547 34.1397H59.5461V34.3728L59.7703 34.4365L59.8547 34.1397ZM60.8889 34.4838L60.7787 34.772L61.1975 34.9322V34.4838H60.8889ZM46.0301 52.9259V53.2345H46.6015L46.2882 52.7567L46.0301 52.9259ZM45.454 51.9536L45.7263 51.8086L45.6392 51.6451H45.454V51.9536ZM8.65495 15.6637C6.50676 15.6637 4.7256 17.3118 4.7256 19.3764H5.34275C5.34275 17.6879 6.81118 16.2809 8.65495 16.2809V15.6637ZM56.2339 15.6637H8.65495V16.2809H56.2339V15.6637ZM60.1633 19.3764C60.1633 17.3118 58.3821 15.6637 56.2339 15.6637V16.2809C58.0777 16.2809 59.5461 17.6879 59.5461 19.3764H60.1633ZM60.1633 34.1397V19.3764H59.5461V34.1397H60.1633ZM59.7703 34.4365C60.1129 34.5339 60.4492 34.646 60.7787 34.772L60.9991 34.1956C60.6528 34.0631 60.2992 33.9453 59.9391 33.8429L59.7703 34.4365ZM60.5803 19.3764V34.4838H61.1975V19.3764H60.5803ZM56.2339 15.3086C58.6496 15.3086 60.5803 17.1523 60.5803 19.3764H61.1975C61.1975 16.7764 58.9542 14.6914 56.2339 14.6914V15.3086ZM8.65495 15.3086H56.2339V14.6914H8.65495V15.3086ZM4.30857 19.3764C4.30857 17.1524 6.24156 15.3086 8.65495 15.3086V14.6914C5.93715 14.6914 3.69143 16.7763 3.69143 19.3764H4.30857ZM4.30857 48.5495V19.3764H3.69143V48.5495H4.30857ZM8.65495 52.6174C6.24156 52.6174 4.30857 50.7735 4.30857 48.5495H3.69143C3.69143 51.1497 5.93715 53.2345 8.65495 53.2345V52.6174ZM46.0301 52.6174H8.65495V53.2345H46.0301V52.6174ZM46.2882 52.7567C46.0871 52.45 45.8995 52.1337 45.7263 51.8086L45.1816 52.0987C45.3637 52.4404 45.5608 52.7729 45.7721 53.0951L46.2882 52.7567ZM8.65495 52.2622H45.454V51.6451H8.65495V52.2622ZM4.7256 48.5495C4.7256 50.6141 6.50676 52.2622 8.65495 52.2622V51.6451C6.81118 51.6451 5.34275 50.238 5.34275 48.5495H4.7256ZM4.7256 19.3764V48.5495H5.34275V19.3764H4.7256Z" fill="#0B2D1F" mask="url(#path-2-outside-1_5978_45496)"/>
</g>
<path id="Subtract_2" fill-rule="evenodd" clip-rule="evenodd" d="M57.3359 19.4443H9.33594V48.4255H44.9435C44.7548 47.5553 44.6554 46.6519 44.6554 45.7253C44.6554 38.7227 50.3321 33.046 57.3346 33.046C57.3351 33.046 57.3355 33.046 57.3359 33.046V19.4443Z" fill="#22885E"/>
<g id="Group 1171275145">
<g id="Group">
<path id="Vector" d="M26.6747 29.2247H42.6878C42.7754 29.2247 42.8617 29.216 42.9481 29.1991C43.0337 29.1816 43.1176 29.1565 43.1983 29.1228C43.2789 29.0896 43.3559 29.0483 43.4291 28.9995C43.5016 28.9508 43.5692 28.8957 43.6311 28.8338C43.693 28.7719 43.7487 28.7043 43.7969 28.6317C43.8457 28.5586 43.8869 28.4816 43.9207 28.4009C43.9539 28.3196 43.9795 28.2364 43.9964 28.1507C44.0133 28.0644 44.0221 27.9775 44.0221 27.8899C44.0221 27.8023 44.0133 27.716 43.9964 27.6297C43.9795 27.544 43.9539 27.4602 43.9207 27.3795C43.8869 27.2988 43.8457 27.2218 43.7969 27.1487C43.7487 27.0761 43.693 27.0085 43.6311 26.9466C43.5692 26.8847 43.5016 26.829 43.4291 26.7808C43.3559 26.7321 43.2789 26.6908 43.1983 26.657C43.1176 26.6238 43.0337 26.5982 42.9481 26.5813C42.8617 26.5644 42.7754 26.5557 42.6878 26.5557H26.6747C26.5871 26.5557 26.5002 26.5644 26.4139 26.5813C26.3282 26.5982 26.245 26.6238 26.1636 26.657C26.083 26.6908 26.006 26.7321 25.9328 26.7808C25.8603 26.829 25.7927 26.8847 25.7308 26.9466C25.6689 27.0085 25.6138 27.0761 25.565 27.1487C25.5162 27.2218 25.475 27.2988 25.4418 27.3795C25.408 27.4602 25.383 27.544 25.3655 27.6297C25.3486 27.716 25.3398 27.8023 25.3398 27.8899C25.3398 27.9775 25.3486 28.0644 25.3655 28.1507C25.383 28.2364 25.408 28.3196 25.4418 28.4009C25.475 28.4816 25.5162 28.5586 25.565 28.6317C25.6138 28.7043 25.6689 28.7719 25.7308 28.8338C25.7927 28.8957 25.8603 28.9508 25.9328 28.9995C26.006 29.0483 26.083 29.0896 26.1636 29.1228C26.245 29.1565 26.3282 29.1816 26.4139 29.1991C26.5002 29.216 26.5871 29.2247 26.6747 29.2247Z" fill="#0B2D1F"/>
</g>
<g id="Group_2">
<path id="Vector_2" d="M42.6878 31.8933H26.6747C26.5871 31.8933 26.5002 31.9021 26.4139 31.919C26.3282 31.9365 26.245 31.9615 26.1636 31.9953C26.083 32.0284 26.006 32.0697 25.9328 32.1185C25.8603 32.1673 25.7927 32.2223 25.7308 32.2843C25.6689 32.3462 25.6138 32.4137 25.565 32.4863C25.5162 32.5595 25.475 32.6364 25.4418 32.7171C25.408 32.7984 25.383 32.8816 25.3655 32.9673C25.3486 33.0536 25.3398 33.1406 25.3398 33.2282C25.3398 33.3157 25.3486 33.402 25.3655 33.4884C25.383 33.5741 25.408 33.6579 25.4418 33.7386C25.475 33.8193 25.5162 33.8962 25.565 33.9694C25.6138 34.0419 25.6689 34.1095 25.7308 34.1714C25.7927 34.2334 25.8603 34.289 25.9328 34.3372C26.006 34.386 26.083 34.4273 26.1636 34.461C26.245 34.4942 26.3282 34.5198 26.4139 34.5367C26.5002 34.5536 26.5871 34.5624 26.6747 34.5624H42.6878C42.7754 34.5624 42.8617 34.5536 42.9481 34.5367C43.0337 34.5198 43.1176 34.4942 43.1983 34.461C43.2789 34.4273 43.3559 34.386 43.4291 34.3372C43.5016 34.289 43.5692 34.2334 43.6311 34.1714C43.693 34.1095 43.7487 34.0419 43.7969 33.9694C43.8457 33.8962 43.8869 33.8193 43.9207 33.7386C43.9539 33.6579 43.9795 33.5741 43.9964 33.4884C44.0133 33.402 44.0221 33.3157 44.0221 33.2282C44.0221 33.1406 44.0133 33.0536 43.9964 32.9673C43.9795 32.8816 43.9539 32.7984 43.9207 32.7171C43.8869 32.6364 43.8457 32.5595 43.7969 32.4863C43.7487 32.4137 43.693 32.3462 43.6311 32.2843C43.5692 32.2223 43.5016 32.1673 43.4291 32.1185C43.3559 32.0697 43.2789 32.0284 43.1983 31.9953C43.1176 31.9615 43.0337 31.9365 42.9481 31.919C42.8617 31.9021 42.7754 31.8933 42.6878 31.8933Z" fill="#0B2D1F"/>
</g>
<g id="Group_3">
<path id="Vector_3" d="M42.6878 37.2312H26.6747C26.5871 37.2312 26.5002 37.2393 26.4139 37.2568C26.3282 37.2737 26.245 37.2988 26.1636 37.3325C26.083 37.3663 26.006 37.407 25.9328 37.4558C25.8603 37.5046 25.7927 37.5596 25.7308 37.6215C25.6689 37.6841 25.6138 37.751 25.565 37.8242C25.5162 37.8967 25.475 37.9737 25.4418 38.055C25.408 38.1357 25.383 38.2189 25.3655 38.3052C25.3486 38.3909 25.3398 38.4778 25.3398 38.5654C25.3398 38.653 25.3486 38.7399 25.3655 38.8256C25.383 38.912 25.408 38.9951 25.4418 39.0758C25.475 39.1572 25.5162 39.2341 25.565 39.3067C25.6138 39.3798 25.6689 39.4468 25.7308 39.5087C25.7927 39.5712 25.8603 39.6263 25.9328 39.6751C26.006 39.7239 26.083 39.7645 26.1636 39.7983C26.245 39.8321 26.3282 39.8571 26.4139 39.874C26.5002 39.8915 26.5871 39.8996 26.6747 39.8996H42.6878C42.7754 39.8996 42.8617 39.8915 42.9481 39.874C43.0337 39.8571 43.1176 39.8321 43.1983 39.7983C43.2789 39.7645 43.3559 39.7239 43.4291 39.6751C43.5016 39.6263 43.5692 39.5712 43.6311 39.5087C43.693 39.4468 43.7487 39.3798 43.7969 39.3067C43.8457 39.2341 43.8869 39.1572 43.9207 39.0758C43.9539 38.9951 43.9795 38.912 43.9964 38.8256C44.0133 38.7399 44.0221 38.653 44.0221 38.5654C44.0221 38.4778 44.0133 38.3909 43.9964 38.3052C43.9795 38.2189 43.9539 38.1357 43.9207 38.055C43.8869 37.9737 43.8457 37.8967 43.7969 37.8242C43.7487 37.751 43.693 37.6841 43.6311 37.6215C43.5692 37.5596 43.5016 37.5046 43.4291 37.4558C43.3559 37.407 43.2789 37.3663 43.1983 37.3325C43.1176 37.2988 43.0337 37.2737 42.9481 37.2568C42.8617 37.2393 42.7754 37.2312 42.6878 37.2312Z" fill="#0B2D1F"/>
</g>
<g id="Group_4">
<path id="Vector_4" d="M22.6691 27.8899C22.6691 27.9775 22.6603 28.0644 22.6434 28.1507C22.6259 28.2364 22.6009 28.3196 22.5671 28.4009C22.534 28.4816 22.4927 28.5586 22.4439 28.6317C22.3951 28.7043 22.34 28.7719 22.2781 28.8338C22.2162 28.8957 22.1486 28.9508 22.0761 28.9995C22.0029 29.0483 21.926 29.0896 21.8453 29.1228C21.7639 29.1565 21.6808 29.1816 21.5951 29.1991C21.5087 29.216 21.4218 29.2247 21.3342 29.2247C21.2466 29.2247 21.1603 29.216 21.074 29.1991C20.9883 29.1816 20.9045 29.1565 20.8238 29.1228C20.7431 29.0896 20.6662 29.0483 20.593 28.9995C20.5204 28.9508 20.4529 28.8957 20.3909 28.8338C20.329 28.7719 20.2733 28.7043 20.2252 28.6317C20.1764 28.5586 20.1351 28.4816 20.1013 28.4009C20.0682 28.3196 20.0425 28.2364 20.0256 28.1507C20.0088 28.0644 20 27.9775 20 27.8899C20 27.8023 20.0088 27.716 20.0256 27.6297C20.0425 27.544 20.0682 27.4602 20.1013 27.3795C20.1351 27.2988 20.1764 27.2218 20.2252 27.1487C20.2733 27.0761 20.329 27.0085 20.3909 26.9466C20.4529 26.8847 20.5204 26.829 20.593 26.7808C20.6662 26.7321 20.7431 26.6908 20.8238 26.657C20.9045 26.6238 20.9883 26.5982 21.074 26.5813C21.1603 26.5644 21.2466 26.5557 21.3342 26.5557C21.4218 26.5557 21.5087 26.5644 21.5951 26.5813C21.6808 26.5982 21.7639 26.6238 21.8453 26.657C21.926 26.6908 22.0029 26.7321 22.0761 26.7808C22.1486 26.829 22.2162 26.8847 22.2781 26.9466C22.34 27.0085 22.3951 27.0761 22.4439 27.1487C22.4927 27.2218 22.534 27.2988 22.5671 27.3795C22.6009 27.4602 22.6259 27.544 22.6434 27.6297C22.6603 27.716 22.6691 27.8023 22.6691 27.8899Z" fill="#0B2D1F"/>
</g>
<g id="Group_5">
<path id="Vector_5" d="M22.6691 33.2282C22.6691 33.3157 22.6603 33.402 22.6434 33.4884C22.6259 33.5741 22.6009 33.6579 22.5671 33.7386C22.534 33.8193 22.4927 33.8962 22.4439 33.9694C22.3951 34.0419 22.34 34.1095 22.2781 34.1714C22.2162 34.2334 22.1486 34.289 22.0761 34.3372C22.0029 34.386 21.926 34.4273 21.8453 34.461C21.7639 34.4942 21.6808 34.5198 21.5951 34.5367C21.5087 34.5536 21.4218 34.5624 21.3342 34.5624C21.2466 34.5624 21.1603 34.5536 21.074 34.5367C20.9883 34.5198 20.9045 34.4942 20.8238 34.461C20.7431 34.4273 20.6662 34.386 20.593 34.3372C20.5204 34.289 20.4529 34.2334 20.3909 34.1714C20.329 34.1095 20.2733 34.0419 20.2252 33.9694C20.1764 33.8962 20.1351 33.8193 20.1013 33.7386C20.0682 33.6579 20.0425 33.5741 20.0256 33.4884C20.0088 33.402 20 33.3157 20 33.2282C20 33.1406 20.0088 33.0536 20.0256 32.9673C20.0425 32.8816 20.0682 32.7984 20.1013 32.7171C20.1351 32.6364 20.1764 32.5595 20.2252 32.4863C20.2733 32.4137 20.329 32.3462 20.3909 32.2843C20.4529 32.2223 20.5204 32.1673 20.593 32.1185C20.6662 32.0697 20.7431 32.0284 20.8238 31.9953C20.9045 31.9615 20.9883 31.9365 21.074 31.919C21.1603 31.9021 21.2466 31.8933 21.3342 31.8933C21.4218 31.8933 21.5087 31.9021 21.5951 31.919C21.6808 31.9365 21.7639 31.9615 21.8453 31.9953C21.926 32.0284 22.0029 32.0697 22.0761 32.1185C22.1486 32.1673 22.2162 32.2223 22.2781 32.2843C22.34 32.3462 22.3951 32.4137 22.4439 32.4863C22.4927 32.5595 22.534 32.6364 22.5671 32.7171C22.6009 32.7984 22.6259 32.8816 22.6434 32.9673C22.6603 33.0536 22.6691 33.1406 22.6691 33.2282Z" fill="#0B2D1F"/>
</g>
<g id="Group_6">
<path id="Vector_6" d="M22.6691 38.5654C22.6691 38.653 22.6603 38.7399 22.6434 38.8256C22.6259 38.912 22.6009 38.9951 22.5671 39.0758C22.534 39.1572 22.4927 39.2341 22.4439 39.3067C22.3951 39.3798 22.34 39.4468 22.2781 39.5087C22.2162 39.5712 22.1486 39.6263 22.0761 39.6751C22.0029 39.7239 21.926 39.7645 21.8453 39.7983C21.7639 39.8321 21.6808 39.8571 21.5951 39.874C21.5087 39.8915 21.4218 39.8996 21.3342 39.8996C21.2466 39.8996 21.1603 39.8915 21.074 39.874C20.9883 39.8571 20.9045 39.8321 20.8238 39.7983C20.7431 39.7645 20.6662 39.7239 20.593 39.6751C20.5204 39.6263 20.4529 39.5712 20.3909 39.5087C20.329 39.4468 20.2733 39.3798 20.2252 39.3067C20.1764 39.2341 20.1351 39.1572 20.1013 39.0758C20.0682 38.9951 20.0425 38.912 20.0256 38.8256C20.0088 38.7399 20 38.653 20 38.5654C20 38.4778 20.0088 38.3909 20.0256 38.3052C20.0425 38.2189 20.0682 38.1357 20.1013 38.055C20.1351 37.9737 20.1764 37.8967 20.2252 37.8242C20.2733 37.751 20.329 37.6841 20.3909 37.6215C20.4529 37.5596 20.5204 37.5046 20.593 37.4558C20.6662 37.407 20.7431 37.3663 20.8238 37.3325C20.9045 37.2988 20.9883 37.2737 21.074 37.2568C21.1603 37.2393 21.2466 37.2312 21.3342 37.2312C21.4218 37.2312 21.5087 37.2393 21.5951 37.2568C21.6808 37.2737 21.7639 37.2988 21.8453 37.3325C21.926 37.3663 22.0029 37.407 22.0761 37.4558C22.1486 37.5046 22.2162 37.5596 22.2781 37.6215C22.34 37.6841 22.3951 37.751 22.4439 37.8242C22.4927 37.8967 22.534 37.9737 22.5671 38.055C22.6009 38.1357 22.6259 38.2189 22.6434 38.3052C22.6603 38.3909 22.6691 38.4778 22.6691 38.5654Z" fill="#0B2D1F"/>
</g>
</g>
<g id="Subtract_3">
<mask id="path-11-outside-2_5978_45496" maskUnits="userSpaceOnUse" x="7.44141" y="17.5557" width="50" height="32" fill="black">
<rect fill="white" x="7.44141" y="17.5557" width="50" height="32"/>
<path fill-rule="evenodd" clip-rule="evenodd" d="M44.9918 47.7288H9.47558V19.528H56.0227V33.7348C56.3636 33.6992 56.7085 33.6773 57.0569 33.6697V19.0429C57.0569 18.7729 56.8258 18.5557 56.5387 18.5557H8.95966C8.67252 18.5557 8.44141 18.7729 8.44141 19.0429V48.216C8.44141 48.486 8.67252 48.7011 8.95966 48.7011H45.1575C45.0898 48.3813 45.0344 48.0571 44.9918 47.7288Z"/>
</mask>
<path fill-rule="evenodd" clip-rule="evenodd" d="M44.9918 47.7288H9.47558V19.528H56.0227V33.7348C56.3636 33.6992 56.7085 33.6773 57.0569 33.6697V19.0429C57.0569 18.7729 56.8258 18.5557 56.5387 18.5557H8.95966C8.67252 18.5557 8.44141 18.7729 8.44141 19.0429V48.216C8.44141 48.486 8.67252 48.7011 8.95966 48.7011H45.1575C45.0898 48.3813 45.0344 48.0571 44.9918 47.7288Z" fill="#0B2D1F"/>
<path d="M9.47558 47.7288H9.16701V48.0374H9.47558V47.7288ZM44.9918 47.7288L45.2978 47.6891L45.2629 47.4202H44.9918V47.7288ZM9.47558 19.528V19.2194H9.16701V19.528H9.47558ZM56.0227 19.528H56.3313V19.2194H56.0227V19.528ZM56.0227 33.7348H55.7142V34.0773L56.0548 34.0417L56.0227 33.7348ZM57.0569 33.6697L57.0636 33.9782L57.3655 33.9717V33.6697H57.0569ZM45.1575 48.7011V49.0096H45.5382L45.4593 48.6372L45.1575 48.7011ZM9.47558 48.0374H44.9918V47.4202H9.47558V48.0374ZM9.16701 19.528V47.7288H9.78415V19.528H9.16701ZM56.0227 19.2194H9.47558V19.8365H56.0227V19.2194ZM56.3313 33.7348V19.528H55.7142V33.7348H56.3313ZM56.0548 34.0417C56.3872 34.0069 56.7237 33.9856 57.0636 33.9782L57.0502 33.3612C56.6933 33.369 56.3399 33.3914 55.9906 33.4279L56.0548 34.0417ZM56.7483 19.0429V33.6697H57.3655V19.0429H56.7483ZM56.5387 18.8642C56.6736 18.8642 56.7483 18.961 56.7483 19.0429H57.3655C57.3655 18.5849 56.978 18.2471 56.5387 18.2471V18.8642ZM8.95966 18.8642H56.5387V18.2471H8.95966V18.8642ZM8.74998 19.0429C8.74998 18.961 8.82473 18.8642 8.95966 18.8642V18.2471C8.52031 18.2471 8.13283 18.5849 8.13283 19.0429H8.74998ZM8.74998 48.216V19.0429H8.13283V48.216H8.74998ZM8.95966 48.3925C8.82286 48.3925 8.74998 48.2961 8.74998 48.216H8.13283C8.13283 48.6758 8.52218 49.0096 8.95966 49.0096V48.3925ZM45.1575 48.3925H8.95966V49.0096H45.1575V48.3925ZM45.4593 48.6372C45.3933 48.3254 45.3393 48.0092 45.2978 47.6891L44.6858 47.7685C44.7294 48.1049 44.7862 48.4373 44.8556 48.765L45.4593 48.6372Z" fill="#0B2D1F" mask="url(#path-11-outside-2_5978_45496)"/>
</g>
<circle id="Ellipse 2585" cx="57.3346" cy="46.111" r="9.66667" fill="#62C89E" stroke="#0B2D1F" stroke-width="2"/>
<g id="Group 1171275146">
<g id="Group_7">
<path id="Vector_7" fill-rule="evenodd" clip-rule="evenodd" d="M54.3042 48.6055L56.8578 47.8766L57.6357 49.952C57.8155 50.4327 58.3514 50.6764 58.8321 50.4962C59.312 50.316 59.5561 49.7797 59.3759 49.299L58.6507 47.3646L58.9987 47.2648C59.4918 47.1243 59.7783 46.6093 59.6373 46.1154C59.4967 45.6219 58.9818 45.3358 58.4887 45.4764L57.9961 45.6174L56.5877 41.8596C56.4517 41.4968 56.105 41.256 55.7174 41.256C55.3303 41.256 54.9836 41.4968 54.8476 41.8596L52.0594 49.299C51.8792 49.7797 52.1229 50.316 52.6032 50.4962C53.083 50.6764 53.6194 50.4327 53.7996 49.952L54.3042 48.6055ZM55.1159 46.4399L56.2027 46.1294L55.7174 44.8345L55.1159 46.4399ZM59.4353 41.256H58.9703C58.4574 41.256 58.041 41.6732 58.041 42.1865C58.041 42.6998 58.4574 43.1162 58.9703 43.1162H59.4353V43.5536C59.4353 44.0669 59.8513 44.4833 60.3646 44.4833C60.8774 44.4833 61.2934 44.0669 61.2934 43.5536V43.1162H61.7584C62.2713 43.1162 62.6877 42.6998 62.6877 42.1865C62.6877 41.6732 62.2713 41.256 61.7584 41.256H61.2934V40.819C61.2934 40.3057 60.8774 39.8889 60.3646 39.8889C59.8513 39.8889 59.4353 40.3057 59.4353 40.819V41.256Z" fill="#0B2D1F"/>
</g>
</g>
</g>
</g>
</svg>
