<svg width="72" height="72" viewBox="0 0 72 72" fill="none" xmlns="http://www.w3.org/2000/svg">
<g id="teacher-attendance-report">
<g id="Group 1171275684">
<g id="Group 1171275407">
<g id="Group 1171275389">
<g id="Group">
<g id="Vector">
<path d="M25.2681 4.07005C23.4967 4.36718 21.6453 5.25859 20.4225 6.40141L19.5768 7.18996H16.1483C12.4113 7.18996 11.897 7.2471 10.8228 7.78423C9.53139 8.43564 8.4457 9.84132 8.13714 11.2813C7.95429 12.1384 7.95429 57.5543 8.13714 58.4114C8.31999 59.2571 8.84569 60.2628 9.45139 60.9028C10.0457 61.5313 11.2228 62.1942 12.1027 62.377C12.9599 62.5599 49.4617 62.5599 50.3188 62.377C52.2616 61.9656 53.873 60.3428 54.2844 58.4114C54.4673 57.5429 54.4673 12.1384 54.2844 11.2813C53.873 9.3499 52.2388 7.71566 50.3188 7.31567C49.9531 7.23568 48.3532 7.18996 46.2732 7.18996H42.8333L42.0676 6.45855C41.1991 5.64715 40.3305 5.08716 39.1649 4.63003C37.6678 4.02433 37.1649 3.99005 31.1194 4.00148C28.0566 4.01291 25.4281 4.04719 25.2681 4.07005ZM37.1421 7.58995C37.542 7.6928 38.1935 7.9328 38.5706 8.12708C39.7134 8.73278 40.9934 10.1842 41.3248 11.2698L41.3934 11.5327H31.2108H21.0282L21.0968 11.2698C21.2911 10.6642 21.8282 9.82989 22.4796 9.16705C23.2339 8.40136 24.4224 7.72709 25.3938 7.54424C25.6681 7.4871 28.2623 7.44138 31.1537 7.42995C35.4735 7.41853 36.5364 7.45281 37.1421 7.58995ZM17.5312 11.3841C17.4397 11.8184 17.3826 12.5727 17.4055 13.0984C17.4397 14.1041 17.6226 14.4355 18.3197 14.8012C18.7768 15.0412 43.6447 15.0412 44.1019 14.8012C44.799 14.4355 44.9818 14.1041 45.0161 13.0984C45.039 12.5727 44.9818 11.8184 44.8904 11.3841L44.7304 10.6184H47.1418C49.9074 10.6184 50.2731 10.7099 50.7303 11.5213L50.9817 11.967V34.8463V57.7257L50.7417 58.16C50.6045 58.4 50.3074 58.6971 50.0674 58.8343L49.6331 59.0743H31.2108H12.7884L12.3542 58.8343C12.1142 58.6971 11.817 58.4 11.6799 58.16L11.4399 57.7257V34.8463V11.967L11.6913 11.5213C12.1485 10.7099 12.5027 10.6184 15.2798 10.6184H17.6912L17.5312 11.3841Z" fill="#4D0000"/>
<path d="M37.1421 7.58995C37.542 7.6928 38.1935 7.9328 38.5706 8.12708C39.7134 8.73278 40.9934 10.1842 41.3248 11.2698L41.3934 11.5327H31.2108H21.0282L21.0968 11.2698C21.2911 10.6642 21.8282 9.82989 22.4796 9.16705C23.2339 8.40136 24.4224 7.72709 25.3938 7.54424C25.6681 7.4871 28.2623 7.44138 31.1537 7.42995C35.4735 7.41853 36.5364 7.45281 37.1421 7.58995Z" fill="#E60000"/>
</g>
</g>
<path id="Vector_2" d="M20.9419 51.8282C19.5053 52.5844 19.5369 54.0721 21.0208 54.9399C21.447 55.2002 21.6049 55.2002 31.7715 55.2002C41.938 55.2002 42.0959 55.2002 42.5221 54.9399C44.0061 54.0721 44.0376 52.5844 42.601 51.8282L42.0643 51.5431H31.7715H21.4786L20.9419 51.8282Z" fill="#4D0000"/>
<path id="Vector_3" d="M20.9419 42.6851C19.5053 43.4413 19.5369 44.929 21.0208 45.7968C21.447 46.0571 21.6049 46.0571 31.7715 46.0571C41.938 46.0571 42.0959 46.0571 42.5221 45.7968C44.0061 44.929 44.0376 43.4413 42.6011 42.6851L42.0643 42.4H31.7715H21.4786L20.9419 42.6851Z" fill="#4D0000"/>
</g>
</g>
<g id="Group 1171275680">
<g id="Group 1171275477">
<circle id="Ellipse 2671" cx="51.8859" cy="55.1999" r="11.6073" fill="#E60000" stroke="#4D0000" stroke-width="2.38544"/>
</g>
<g id="Group 1171275449">
<path id="Vector_4" d="M56.0217 50.4071C55.8839 50.4957 54.4562 51.884 52.8513 53.4889L49.9171 56.4034L48.962 55.4582C47.7313 54.2471 47.6328 54.188 46.9633 54.188C46.018 54.188 45.4863 54.7197 45.4863 55.6748C45.4863 56.1277 45.5356 56.2951 45.7719 56.6102C46.1066 57.0532 48.7651 59.692 49.1294 59.9382C49.2771 60.0366 49.5725 60.0957 49.9269 60.0957C50.3799 60.0957 50.5473 60.0465 50.8623 59.8102C51.3153 59.4754 57.8925 52.8686 58.1288 52.5142C58.2273 52.3665 58.2863 52.0711 58.2863 51.7265C58.2863 51.116 58.0894 50.7419 57.6365 50.4366C57.2722 50.2003 56.3663 50.1806 56.0217 50.4071Z" fill="#4D0000"/>
</g>
</g>
</g>
<g id="Group 1171275680_2">
<rect id="Rectangle 34624990" x="29.7441" y="23.4658" width="12.179" height="11.367" fill="#E60000"/>
<path id="Vector_5" d="M23.7117 19C21.9518 19 20.5302 20.4269 20.5302 22.1814C20.5302 23.936 21.9518 25.3629 23.7117 25.3629C25.4715 25.3629 26.8931 23.936 26.8931 22.1814C26.8931 20.4269 25.4715 19 23.7117 19ZM30.6048 20.5907C29.6981 20.5907 28.9684 21.3485 29.0162 22.2664C29.0612 23.1264 29.8333 23.7722 30.6949 23.7722H40.6794C40.9721 23.7722 41.2096 24.0097 41.2096 24.3024V33.3165C41.2096 33.6092 40.9721 33.8467 40.6794 33.8467H31.135C30.2283 33.8467 29.4987 34.6045 29.5464 35.5224C29.5915 36.3824 30.3635 37.0282 31.2251 37.0282H41.2096C42.9668 37.0282 44.3911 35.6039 44.3911 33.8467V23.7722C44.3911 22.0149 42.9668 20.5907 41.2096 20.5907H30.6048ZM23.1814 26.4234C21.4242 26.4234 20 27.8476 20 29.6048V35.4374C20 36.3161 20.7121 37.0282 21.5907 37.0282H25.8326C26.7113 37.0282 27.4234 36.3161 27.4234 35.4374V32.8763C27.4621 32.9071 27.5012 32.9378 27.5394 32.9685C27.7928 33.1711 28.0965 33.2834 28.4062 33.302C28.6973 33.3195 28.9934 33.2537 29.2585 33.1031L32.9857 30.9832C33.7493 30.5484 34.014 29.5782 33.5739 28.8146C33.1391 28.0511 32.1689 27.7863 31.4053 28.2264L28.7645 29.7322L26.5918 27.4652C26.0101 26.8263 25.1741 26.4234 24.2419 26.4234H23.1814Z" fill="#4D0000"/>
</g>
</g>
</svg>
