<svg width="72" height="72" viewBox="0 0 72 72" fill="none" xmlns="http://www.w3.org/2000/svg">
<g id="transkrip">
<g id="Group">
<path id="Vector" d="M16.3448 4.23572C14.4936 4.87363 13.1928 6.27454 12.6925 8.16326C12.5299 8.81368 12.5048 11.6155 12.5048 31.5784V54.2555H9.39034C6.37589 54.2555 6.27582 54.2681 5.86306 54.5432C5.02502 55.0936 5 55.2562 5 59.4464C5 63.4115 5.07505 64.0494 5.6129 65.1251C6.0757 66.0257 7.07634 66.9763 8.102 67.4766L9.05262 67.9519L32.2301 67.9894C55.295 68.0144 55.4076 68.0144 56.1706 67.7643C58.0343 67.1389 59.3476 65.713 59.8479 63.8242C60.0105 63.1738 60.0356 60.4345 60.0356 41.0345V18.9828H63.1501C66.1645 18.9828 66.2646 18.9702 66.6774 18.6951C67.5279 18.1322 67.5404 18.0572 67.5404 13.1665C67.5404 8.5385 67.4904 7.96313 66.9275 6.86242C66.4647 5.96183 65.4641 5.01122 64.4384 4.5109L63.4878 4.03559L40.2853 4.01057C17.308 3.98556 17.0578 3.98556 16.3448 4.23572ZM56.3332 8.00065C56.2706 8.16326 56.1956 20.5838 56.1581 35.6185C56.108 55.9942 56.058 63.0112 55.9454 63.1988C55.4076 64.1244 54.2443 64.4371 53.3437 63.8868C52.5682 63.4115 52.5307 63.1863 52.5307 59.2338C52.5307 55.2812 52.4932 55.0936 51.6677 54.5432L51.2424 54.2555H33.8186H16.3824V31.741C16.3824 7.32522 16.3323 8.91374 17.0453 8.2383C17.2204 8.0757 17.5581 7.90059 17.7833 7.85055C18.0084 7.80052 26.8016 7.75049 37.3209 7.73798L56.4332 7.72547L56.3332 8.00065ZM62.9875 8.16326C63.6004 8.56351 63.6629 8.96377 63.6629 12.1658V15.1052H61.8492H60.0356V12.1533C60.0356 9.66423 60.0731 9.13889 60.2357 8.76364C60.6985 7.81303 62.0118 7.51284 62.9875 8.16326ZM48.6907 60.9098C48.7158 62.4483 48.7783 63.8242 48.8408 63.9868L48.9284 64.262L29.5659 64.237C11.1915 64.1995 10.1658 64.187 9.77809 63.9743C8.95255 63.524 8.87751 63.2364 8.87751 60.5346V58.1331H28.7528H48.6282L48.6907 60.9098Z" fill="#4D0000"/>
<path id="Vector_2" d="M39.9605 16.2809C39.1475 16.6436 38.7722 17.3691 38.7722 18.5699V19.2328H37.9092C37.2337 19.2328 36.9711 19.2953 36.6334 19.5205C35.5076 20.271 35.5076 21.947 36.6334 22.6975C36.9711 22.9227 37.2337 22.9852 37.8967 22.9852H38.7347L38.7973 23.9358C38.8598 24.9365 39.0349 25.2992 39.6728 25.7745C40.1857 26.1623 41.1113 26.1873 41.7116 25.8371C42.3871 25.4493 42.6497 24.8864 42.6497 23.8233V22.9852H43.5628C44.6761 22.9852 45.1764 22.7225 45.5266 21.947C45.8393 21.2841 45.8393 20.9339 45.5266 20.271C45.1764 19.4955 44.6761 19.2328 43.5628 19.2328H42.6497V18.3822C42.6497 17.294 42.3871 16.7687 41.6491 16.3809C41.0237 16.0682 40.5109 16.0432 39.9605 16.2809Z" fill="#990000"/>
<path id="Vector_3" d="M28.3403 16.4935C27.765 16.6311 27.2271 16.9313 27.052 17.219C26.8644 17.5192 22.7617 31.0404 22.7617 31.3657C22.7617 32.3413 25.2508 33.1293 25.9888 32.3913C26.1014 32.2662 26.364 31.5408 26.5642 30.7653L26.9269 29.3644H29.2034H31.4799L31.8801 30.8278C32.1053 31.7034 32.3554 32.3663 32.4805 32.4539C33.3436 33.0918 35.645 32.2913 35.645 31.3657C35.645 30.9154 31.5299 17.5692 31.2797 17.2315C30.8294 16.5811 29.4035 16.2184 28.3403 16.4935ZM29.9539 23.8358C30.3541 25.2992 30.6543 26.525 30.6168 26.55C30.5793 26.5876 29.9038 26.6001 29.1158 26.5876L27.6774 26.55L28.0777 25.1116C28.2903 24.3236 28.628 23.0978 28.8281 22.3848C29.0158 21.6844 29.1909 21.1215 29.2034 21.134C29.2284 21.1591 29.5661 22.3723 29.9539 23.8358Z" fill="#990000"/>
<path id="Vector_4" d="M39.7723 29.5144C39.0843 29.9897 38.8467 30.415 38.8467 31.1654C38.8467 31.7033 38.9092 31.9284 39.1969 32.3037C39.8098 33.1042 39.8974 33.1167 44.738 33.1167C48.8156 33.1167 49.1033 33.1042 49.5911 32.8665C50.967 32.2036 51.0045 30.1523 49.6412 29.4643C49.2659 29.2642 48.7531 29.2392 44.7005 29.2392C40.2226 29.2392 40.185 29.2392 39.7723 29.5144Z" fill="#990000"/>
<path id="Vector_5" d="M22.899 36.9692C21.5356 37.6572 21.5731 39.7085 22.949 40.3714C23.4493 40.6216 23.7245 40.6216 36.2701 40.6216C48.8157 40.6216 49.0909 40.6216 49.5912 40.3714C50.9671 39.7085 51.0046 37.6572 49.6412 36.9692C49.241 36.7566 48.3529 36.7441 36.2701 36.7441C24.1873 36.7441 23.2992 36.7566 22.899 36.9692Z" fill="#990000"/>
<path id="Vector_6" d="M22.899 44.4741C21.5356 45.162 21.5731 47.2134 22.949 47.8763C23.4493 48.1265 23.7245 48.1265 36.2701 48.1265C48.8157 48.1265 49.0909 48.1265 49.5912 47.8763C50.9671 47.2134 51.0046 45.162 49.6412 44.4741C49.241 44.2615 48.3529 44.249 36.2701 44.249C24.1873 44.249 23.2992 44.2615 22.899 44.4741Z" fill="#990000"/>
</g>
</g>
</svg>
