<svg width="72" height="72" viewBox="0 0 72 72" fill="none" xmlns="http://www.w3.org/2000/svg">
<g clip-path="url(#clip0_6242_46155)">
<path d="M47.6733 57.5511H48.1733V58.0511H47.6733V57.5511ZM47.6733 6.6123V6.1123H48.1733V6.6123H47.6733ZM11.1019 57.5511V58.0511H10.6019V57.5511H11.1019ZM11.1019 6.6123H10.6019V6.1123H11.1019V6.6123ZM37.2244 15.7551V15.2551H37.7244V15.7551H37.2244ZM20.2448 15.7551H19.7448V15.2551H20.2448V15.7551ZM37.2244 26.2041H37.7244V26.7041H37.2244V26.2041ZM20.2448 26.2041V26.7041H19.7448V26.2041H20.2448ZM47.1733 57.5511V6.6123H48.1733V57.5511H47.1733ZM11.1019 57.0511H47.6733V58.0511H11.1019V57.0511ZM11.6019 6.6123V57.5511H10.6019V6.6123H11.6019ZM47.6733 7.1123H11.1019V6.1123H47.6733V7.1123ZM37.2244 16.2551H20.2448V15.2551H37.2244V16.2551ZM36.7244 26.2041V15.7551H37.7244V26.2041H36.7244ZM20.2448 25.7041H37.2244V26.7041H20.2448V25.7041ZM20.7448 15.7551V26.2041H19.7448V15.7551H20.7448Z" fill="#0B2D1F"/>
<path d="M39.9671 13.4573C40.2609 13.6369 40.6365 14.0124 40.816 14.3062C41.1263 14.8124 41.1426 15.1389 41.1426 20.9675C41.1426 26.796 41.1263 27.1226 40.816 27.6287C40.6365 27.9226 40.2609 28.2981 39.9671 28.4777C39.4446 28.7879 39.1181 28.8042 29.3875 28.8042C19.6569 28.8042 19.3303 28.7879 18.8079 28.4777C18.514 28.2981 18.1385 27.9226 17.9589 27.6287C17.6487 27.1226 17.6324 26.796 17.6324 20.9675C17.6324 15.1389 17.6487 14.8124 17.9589 14.3062C18.1385 14.0124 18.514 13.6369 18.8079 13.4573C19.3303 13.1471 19.6569 13.1307 29.3875 13.1307C39.1181 13.1307 39.4446 13.1471 39.9671 13.4573ZM22.8569 20.9675V23.5797H29.3875H35.9181V20.9675V18.3552H29.3875H22.8569V20.9675Z" fill="#0B2D1F"/>
<path d="M39.9671 34.3555C40.7507 34.8453 41.1426 35.5799 41.1426 36.6412C41.1426 37.7024 40.7507 38.4371 39.9671 38.9269C39.4773 39.2208 39.1344 39.2534 35.9834 39.2534C32.6854 39.2534 32.5222 39.2371 31.9997 38.8779C30.3834 37.8004 30.3834 35.482 31.9997 34.4044C32.5222 34.0453 32.6854 34.0289 35.9834 34.0289C39.1344 34.0289 39.4773 34.0616 39.9671 34.3555Z" fill="#0B2D1F"/>
<path d="M26.906 34.3555C27.6897 34.8453 28.0815 35.5799 28.0815 36.6412C28.0815 37.7024 27.6897 38.4371 26.906 38.9269C26.4162 39.2208 26.0734 39.2534 22.9224 39.2534C19.6244 39.2534 19.4611 39.2371 18.9387 38.8779C17.3224 37.8004 17.3224 35.482 18.9387 34.4044C19.4611 34.0453 19.6244 34.0289 22.9224 34.0289C26.0734 34.0289 26.4162 34.0616 26.906 34.3555Z" fill="#0B2D1F"/>
<path d="M39.9671 44.8042C40.7507 45.294 41.1426 46.0287 41.1426 47.0899C41.1426 48.1511 40.7507 48.8858 39.9671 49.3756C39.4773 49.6695 39.1344 49.7021 35.9834 49.7021C32.6854 49.7021 32.5222 49.6858 31.9997 49.3266C30.3834 48.2491 30.3834 45.9307 31.9997 44.8532C32.5222 44.494 32.6854 44.4777 35.9834 44.4777C39.1344 44.4777 39.4773 44.5103 39.9671 44.8042Z" fill="#0B2D1F"/>
<path d="M26.906 44.8042C27.6897 45.294 28.0815 46.0287 28.0815 47.0899C28.0815 48.1511 27.6897 48.8858 26.906 49.3756C26.4162 49.6695 26.0734 49.7021 22.9224 49.7021C19.6244 49.7021 19.4611 49.6858 18.9387 49.3266C17.3224 48.2491 17.3224 45.9307 18.9387 44.8532C19.4611 44.494 19.6244 44.4777 22.9224 44.4777C26.0734 44.4777 26.4162 44.5103 26.906 44.8042Z" fill="#0B2D1F"/>
<path fill-rule="evenodd" clip-rule="evenodd" d="M7.18368 54.8484V30.1225H7.18363V20.2636C7.18363 11.0378 7.19996 10.3357 7.49384 9.40494C8.24486 7.00459 10.302 4.96348 12.7183 4.26134C13.502 4.03274 15.4612 4.00008 29.3877 4.00008C43.3142 4.00008 45.2734 4.03274 46.0571 4.26134C48.4734 4.96348 50.5306 7.00459 51.2816 9.40494C51.5755 10.3683 51.5918 11.5114 51.5918 45.7857C51.5918 51.1816 51.5909 55.7678 51.5882 59.6677C50.9232 60.3798 49.7326 60.7644 47.6735 60.8164H11.7042C9.57462 59.8443 7.96542 57.9485 7.37955 55.632L7.18368 54.8484ZM-32 60.1093V57.6209C-32 58.0279 -32 58.4426 -32 58.8651C-32 59.2876 -32 59.7023 -32 60.1093ZM12.5714 54.0318C12.751 54.8319 13.1755 55.4197 13.8938 55.8443C14.4314 56.1701 14.7577 56.1708 28.9633 56.2033L29.0612 56.2035C37.0938 56.2035 43.9183 56.1708 44.2285 56.0892C44.9469 55.9259 45.551 55.4524 45.9591 54.7665C46.2848 54.2291 46.2857 53.8704 46.3343 33.6351L46.3347 33.4737C46.3673 22.0761 46.3347 12.3605 46.2857 11.8869C46.1714 10.8745 45.6816 10.1071 44.8979 9.64987C44.3265 9.30696 44.1632 9.30696 29.3877 9.30696C14.7428 9.30696 14.4326 9.30696 13.8938 9.63354C13.1755 10.0581 12.751 10.6459 12.5714 11.446C12.3755 12.2951 12.3755 53.1826 12.5714 54.0318Z" fill="#0B2D1F"/>
<ellipse cx="49.6328" cy="56.2449" rx="11.102" ry="10.449" fill="#22885E"/>
<path d="M48.9797 68C55.4719 68 60.7348 62.737 60.7348 56.2448C60.7348 49.7527 55.4719 44.4897 48.9797 44.4897C42.4875 44.4897 37.2246 49.7527 37.2246 56.2448C37.2246 62.737 42.4875 68 48.9797 68Z" stroke="#0B2D1F" stroke-width="3" stroke-linecap="round" stroke-linejoin="round"/>
<path d="M52.637 52.3266C52.4004 51.9162 52.0567 51.5778 51.6425 51.3477C51.2284 51.1177 50.7595 51.0045 50.286 51.0205H47.6738C46.981 51.0205 46.3165 51.2957 45.8266 51.7856C45.3367 52.2755 45.0615 52.9399 45.0615 53.6327C45.0615 54.3255 45.3367 54.99 45.8266 55.4799C46.3165 55.9697 46.981 56.245 47.6738 56.245H50.286C50.9788 56.245 51.6433 56.5202 52.1331 57.0101C52.623 57.5 52.8983 58.1644 52.8983 58.8572C52.8983 59.55 52.623 60.2145 52.1331 60.7043C51.6433 61.1942 50.9788 61.4695 50.286 61.4695H47.6738C47.2003 61.4854 46.7314 61.3723 46.3173 61.1422C45.9031 60.9121 45.5594 60.5738 45.3227 60.1633M48.9799 49.7144V62.7756" stroke="#0B2D1F" stroke-width="2" stroke-linecap="round" stroke-linejoin="round"/>
</g>
<defs>
<clipPath id="clip0_6242_46155">
<rect width="72" height="72" fill="white"/>
</clipPath>
</defs>
</svg>
