<svg width="72" height="72" viewBox="0 0 72 72" fill="none" xmlns="http://www.w3.org/2000/svg">
<path d="M25.5 21.8716V5.87158H46V21.8716H53V25.8716L35 39.8716L18.5 25.8716V21.8716H25.5Z" fill="#22885E"/>
<path d="M40.5 60.8716L42.5 54.8716H56.5L55.5 60.8716V66.3716H35.5L40.5 60.8716Z" fill="#22885E"/>
<path d="M24.9209 4.21787C24.2128 4.70809 24.2128 4.64 24.2128 12.5515V19.9047L22.143 19.9591C20.2094 20.0136 20.0051 20.0409 19.2834 20.3813C17.7855 21.1166 16.8323 22.6281 16.8323 24.2894C16.8323 25.4468 17.1319 26.3728 17.7038 27.0672C17.9489 27.3668 21.2987 30.24 25.166 33.4536C29.0196 36.6809 32.0834 39.2817 31.9472 39.2272C31.28 38.9821 29.3191 38.8323 27.8349 38.9004C24.1311 39.0774 21.0536 40.3983 18.3983 42.9855C15.4843 45.8179 14 49.3447 14 53.4298C14 57.5149 15.4843 61.0417 18.3983 63.874C20.3183 65.726 22.3609 66.897 24.8664 67.5506C26.5413 67.9864 29.3328 68.1089 30.9123 67.8366C31.7702 67.6732 32.0153 67.6732 32.274 67.823C32.5191 67.9591 34.9021 67.9864 43.3719 68C54.034 68 54.1702 68 54.9464 67.714C55.5183 67.4962 55.9404 67.2102 56.4987 66.6519C57.4928 65.6306 57.7651 64.8681 57.6834 63.3021C57.6289 62.3626 57.5609 62.063 57.1932 61.4094L56.7438 60.6332L57.0298 60.2383C57.7651 59.217 57.9285 57.4332 57.4247 56.0851C57.0434 55.0774 56.063 54.097 55.0553 53.7157C54.3336 53.4434 54.034 53.4298 48.8051 53.4298H43.3038L43.2085 52.3813C42.9226 49.154 41.7379 46.2945 39.7362 43.9387C39.2187 43.3396 38.4289 42.5498 37.9796 42.1957C37.5166 41.8417 37.1489 41.5013 37.1489 41.4332C37.1489 41.3787 40.9345 38.1787 45.5643 34.3251C50.1804 30.4715 54.0477 27.1626 54.1566 26.9855C54.7966 25.9643 54.9055 25.5694 54.9055 24.4255C54.9191 23.023 54.606 22.2196 53.6664 21.2664C52.6451 20.2315 52.0051 20.0272 49.6494 19.9591L47.634 19.9047L47.6068 12.3472L47.566 4.78979L47.1166 4.39489L46.6809 4H35.9506C26.4596 4 25.1932 4.02724 24.9209 4.21787ZM44.6383 14.5668V22.1379L45.0332 22.5328L45.4281 22.9277H47.8111C49.1183 22.9277 50.3711 22.9685 50.6162 23.0094C51.5013 23.1864 52.0596 24.194 51.6647 24.943C51.474 25.3243 36.1821 38.2468 35.9234 38.2468C35.6919 38.2468 20.4409 25.4468 20.1957 25.0655C19.7464 24.3166 20.3047 23.2 21.2306 23.0094C21.4757 22.9685 22.7285 22.9277 24.0357 22.9277H26.4187L26.8136 22.5328L27.2085 22.1379V14.5668V6.99575H35.9234H44.6383V14.5668ZM30.5447 42.0596C32.1651 42.3455 33.6902 42.9583 35.1064 43.9115C37.2034 45.314 38.7557 47.3702 39.6136 49.8621C40.063 51.1557 40.0766 51.2374 40.0766 53.4298C40.0766 55.6221 40.063 55.7174 39.6272 56.9702C38.8374 59.2306 37.5983 61.0281 35.8281 62.4306C33.2817 64.4596 29.9047 65.3447 26.8272 64.8136C19.4468 63.5336 15.2119 55.9489 18.0034 49.0451C19.6783 44.8919 24.0221 41.937 28.5157 41.8689C28.9787 41.8553 29.8911 41.9506 30.5447 42.0596ZM54.0204 56.6162C54.4017 56.8204 54.7149 57.3379 54.7149 57.7872C54.7149 57.9234 54.6468 58.2094 54.5515 58.4C54.2111 59.1353 54.1294 59.1489 47.9064 59.1489C44.7609 59.1489 42.1872 59.1081 42.1872 59.0672C42.1872 59.0128 42.3506 58.4817 42.5413 57.8689C42.7319 57.2562 42.9226 56.6843 42.9498 56.5889C43.0315 56.3302 53.4894 56.3574 54.0204 56.6162ZM53.6528 62.2809C54.7149 62.5804 55.0417 63.6834 54.32 64.4868L53.9251 64.9362L45.7685 64.977L37.6255 65.0043L38.5787 64.1328C39.1098 63.6562 39.7226 63.0162 39.9404 62.703L40.3489 62.1447H46.7489C50.7251 62.1447 53.3396 62.1991 53.6528 62.2809Z" fill="#0B2D1F"/>
<path d="M27.6033 45.1101C27.3446 45.3825 27.2084 45.6548 27.2084 45.9135C27.2084 46.2676 27.1403 46.3493 26.7454 46.4854C26.0373 46.7169 25.0841 47.6293 24.662 48.5008C24.3352 49.1544 24.2807 49.4403 24.2944 50.3663C24.2944 51.2786 24.3624 51.5782 24.662 52.1637C25.2203 53.2395 25.8603 53.7569 27.9029 54.7918C28.9378 55.3229 29.8501 55.8676 29.9318 56.0174C30.2041 56.5212 30.0952 57.0659 29.6322 57.4471C28.7471 58.1961 27.3446 57.5969 27.3446 56.494C27.3446 55.7995 27.1267 55.3637 26.6365 55.0506C25.9965 54.6557 25.2203 54.7782 24.7301 55.3365C24.4033 55.6906 24.3488 55.8676 24.3488 56.562C24.3488 58.1552 25.2884 59.6803 26.6501 60.2931C27.0178 60.4701 27.2084 60.6335 27.2084 60.8106C27.2084 61.5731 27.862 62.1314 28.7471 62.145C29.2918 62.145 29.4688 62.0769 29.8092 61.7501C30.068 61.4778 30.2041 61.2054 30.2041 60.9467C30.2041 60.5927 30.2722 60.511 30.6671 60.3748C31.3752 60.1433 32.3284 59.231 32.7505 58.3595C33.0637 57.7195 33.1318 57.4199 33.1182 56.562C33.1046 54.4786 32.2739 53.4574 29.4961 52.0957C27.685 51.2106 27.3446 50.911 27.3446 50.2301C27.3446 49.4403 28.1071 48.9501 29.0331 49.1271C29.6731 49.2497 29.9318 49.6037 30.0544 50.5161C30.1361 51.1152 30.245 51.374 30.531 51.6191C31.239 52.2318 32.0016 52.191 32.6688 51.5237C33.0092 51.1969 33.0637 51.0335 33.0637 50.4071C33.0637 49.2361 32.7369 48.3646 31.9744 47.534C31.6067 47.1391 31.062 46.7033 30.7761 46.5671C30.3539 46.3765 30.2178 46.2267 30.1497 45.8999C30.0952 45.6684 29.9046 45.3008 29.7003 45.0965C29.4007 44.7833 29.2237 44.7152 28.6654 44.7152C28.1207 44.7152 27.9437 44.7833 27.6033 45.1101Z" fill="#0B2D1F"/>
</svg>
