<svg width="72" height="72" viewBox="0 0 72 72" fill="none" xmlns="http://www.w3.org/2000/svg">
<rect x="23" y="11" width="17" height="5" fill="#E60000"/>
<mask id="path-2-outside-1_6242_46201" maskUnits="userSpaceOnUse" x="19.7339" y="2.86621" width="23" height="16" fill="black">
<rect fill="white" x="19.7339" y="2.86621" width="23" height="16"/>
<path d="M27.8669 4.25332C27.5736 4.38664 27.147 4.70663 26.907 4.94662C26.227 5.67993 26.067 6.21324 26.067 7.86651V9.33312H24.5737C22.8671 9.33312 22.2938 9.51978 21.5739 10.2797C20.8539 11.0531 20.7339 11.5064 20.7339 13.6263C20.7339 15.7729 20.8805 16.2529 21.6805 17.0262C22.6005 17.8928 22.2805 17.8661 31.4268 17.8661C40.7064 17.8661 40.2931 17.8928 41.2264 16.9195C41.9464 16.1595 42.0664 15.6929 42.0664 13.5996C42.0664 11.5064 41.9464 11.0397 41.2264 10.2797C40.5065 9.51978 39.9331 9.33312 38.2399 9.33312H36.7333V7.86651C36.7333 6.21324 36.5733 5.67993 35.8933 4.94662C35.0533 4.06666 34.7467 3.99999 31.4001 3.99999C28.7602 3.99999 28.3336 4.03999 27.8669 4.25332ZM33.8 6.2799C34.3734 6.49323 34.6 7.06654 34.6 8.33316V9.33312H31.4001H28.2003V8.34649C28.2003 7.07987 28.3869 6.55989 28.9202 6.3199C29.4402 6.09324 33.1601 6.06658 33.8 6.2799ZM39.1865 11.653C39.7465 11.8797 39.9331 12.3863 39.9331 13.5996C39.9331 14.8129 39.7465 15.3196 39.1865 15.5462C38.5999 15.7862 24.3604 15.8262 23.6671 15.5862C23.1071 15.3862 22.8671 14.8129 22.8671 13.6263C22.8671 12.413 23.0538 11.8797 23.5871 11.653C24.2004 11.3864 38.5465 11.3864 39.1865 11.653Z"/>
</mask>
<path d="M27.8669 4.25332C27.5736 4.38664 27.147 4.70663 26.907 4.94662C26.227 5.67993 26.067 6.21324 26.067 7.86651V9.33312H24.5737C22.8671 9.33312 22.2938 9.51978 21.5739 10.2797C20.8539 11.0531 20.7339 11.5064 20.7339 13.6263C20.7339 15.7729 20.8805 16.2529 21.6805 17.0262C22.6005 17.8928 22.2805 17.8661 31.4268 17.8661C40.7064 17.8661 40.2931 17.8928 41.2264 16.9195C41.9464 16.1595 42.0664 15.6929 42.0664 13.5996C42.0664 11.5064 41.9464 11.0397 41.2264 10.2797C40.5065 9.51978 39.9331 9.33312 38.2399 9.33312H36.7333V7.86651C36.7333 6.21324 36.5733 5.67993 35.8933 4.94662C35.0533 4.06666 34.7467 3.99999 31.4001 3.99999C28.7602 3.99999 28.3336 4.03999 27.8669 4.25332ZM33.8 6.2799C34.3734 6.49323 34.6 7.06654 34.6 8.33316V9.33312H31.4001H28.2003V8.34649C28.2003 7.07987 28.3869 6.55989 28.9202 6.3199C29.4402 6.09324 33.1601 6.06658 33.8 6.2799ZM39.1865 11.653C39.7465 11.8797 39.9331 12.3863 39.9331 13.5996C39.9331 14.8129 39.7465 15.3196 39.1865 15.5462C38.5999 15.7862 24.3604 15.8262 23.6671 15.5862C23.1071 15.3862 22.8671 14.8129 22.8671 13.6263C22.8671 12.413 23.0538 11.8797 23.5871 11.653C24.2004 11.3864 38.5465 11.3864 39.1865 11.653Z" fill="#4D0000"/>
<path d="M27.8669 4.25332C27.5736 4.38664 27.147 4.70663 26.907 4.94662C26.227 5.67993 26.067 6.21324 26.067 7.86651V9.33312H24.5737C22.8671 9.33312 22.2938 9.51978 21.5739 10.2797C20.8539 11.0531 20.7339 11.5064 20.7339 13.6263C20.7339 15.7729 20.8805 16.2529 21.6805 17.0262C22.6005 17.8928 22.2805 17.8661 31.4268 17.8661C40.7064 17.8661 40.2931 17.8928 41.2264 16.9195C41.9464 16.1595 42.0664 15.6929 42.0664 13.5996C42.0664 11.5064 41.9464 11.0397 41.2264 10.2797C40.5065 9.51978 39.9331 9.33312 38.2399 9.33312H36.7333V7.86651C36.7333 6.21324 36.5733 5.67993 35.8933 4.94662C35.0533 4.06666 34.7467 3.99999 31.4001 3.99999C28.7602 3.99999 28.3336 4.03999 27.8669 4.25332ZM33.8 6.2799C34.3734 6.49323 34.6 7.06654 34.6 8.33316V9.33312H31.4001H28.2003V8.34649C28.2003 7.07987 28.3869 6.55989 28.9202 6.3199C29.4402 6.09324 33.1601 6.06658 33.8 6.2799ZM39.1865 11.653C39.7465 11.8797 39.9331 12.3863 39.9331 13.5996C39.9331 14.8129 39.7465 15.3196 39.1865 15.5462C38.5999 15.7862 24.3604 15.8262 23.6671 15.5862C23.1071 15.3862 22.8671 14.8129 22.8671 13.6263C22.8671 12.413 23.0538 11.8797 23.5871 11.653C24.2004 11.3864 38.5465 11.3864 39.1865 11.653Z" stroke="#4D0000" mask="url(#path-2-outside-1_6242_46201)"/>
<mask id="path-3-outside-2_6242_46201" maskUnits="userSpaceOnUse" x="8" y="11.9976" width="21" height="57" fill="black">
<rect fill="white" x="8" y="11.9976" width="21" height="57"/>
<path d="M10.801 12.7863C10.5077 12.9196 10.0811 13.2396 9.84106 13.4796C8.93443 14.4396 9.0011 12.2796 9.0011 40.2652C9.0011 68.2508 8.93443 66.0909 9.84106 67.0509C10.7744 68.0242 10.3877 67.9975 19.5074 67.9975C27.4937 67.9975 27.667 67.9975 27.9337 67.7308C28.2937 67.3708 28.2937 66.4909 27.9337 66.1309C27.667 65.8642 27.4937 65.8642 20.0007 65.8642C11.5077 65.8642 11.5743 65.8642 11.281 65.0643C11.1743 64.7443 11.1343 58.0912 11.1343 40.2386C11.1343 13.4396 11.081 15.1195 11.9343 14.8129C12.2143 14.7196 13.5743 14.6662 15.7475 14.6662C18.9607 14.6662 19.1474 14.6529 19.4007 14.3996C19.574 14.2262 19.6673 13.9596 19.6673 13.5996C19.6673 13.2396 19.574 12.973 19.4007 12.7996C19.1474 12.5463 18.9607 12.533 15.2409 12.533C11.721 12.533 11.281 12.5596 10.801 12.7863Z"/>
</mask>
<path d="M10.801 12.7863C10.5077 12.9196 10.0811 13.2396 9.84106 13.4796C8.93443 14.4396 9.0011 12.2796 9.0011 40.2652C9.0011 68.2508 8.93443 66.0909 9.84106 67.0509C10.7744 68.0242 10.3877 67.9975 19.5074 67.9975C27.4937 67.9975 27.667 67.9975 27.9337 67.7308C28.2937 67.3708 28.2937 66.4909 27.9337 66.1309C27.667 65.8642 27.4937 65.8642 20.0007 65.8642C11.5077 65.8642 11.5743 65.8642 11.281 65.0643C11.1743 64.7443 11.1343 58.0912 11.1343 40.2386C11.1343 13.4396 11.081 15.1195 11.9343 14.8129C12.2143 14.7196 13.5743 14.6662 15.7475 14.6662C18.9607 14.6662 19.1474 14.6529 19.4007 14.3996C19.574 14.2262 19.6673 13.9596 19.6673 13.5996C19.6673 13.2396 19.574 12.973 19.4007 12.7996C19.1474 12.5463 18.9607 12.533 15.2409 12.533C11.721 12.533 11.281 12.5596 10.801 12.7863Z" fill="#4D0000"/>
<path d="M10.801 12.7863C10.5077 12.9196 10.0811 13.2396 9.84106 13.4796C8.93443 14.4396 9.0011 12.2796 9.0011 40.2652C9.0011 68.2508 8.93443 66.0909 9.84106 67.0509C10.7744 68.0242 10.3877 67.9975 19.5074 67.9975C27.4937 67.9975 27.667 67.9975 27.9337 67.7308C28.2937 67.3708 28.2937 66.4909 27.9337 66.1309C27.667 65.8642 27.4937 65.8642 20.0007 65.8642C11.5077 65.8642 11.5743 65.8642 11.281 65.0643C11.1743 64.7443 11.1343 58.0912 11.1343 40.2386C11.1343 13.4396 11.081 15.1195 11.9343 14.8129C12.2143 14.7196 13.5743 14.6662 15.7475 14.6662C18.9607 14.6662 19.1474 14.6529 19.4007 14.3996C19.574 14.2262 19.6673 13.9596 19.6673 13.5996C19.6673 13.2396 19.574 12.973 19.4007 12.7996C19.1474 12.5463 18.9607 12.533 15.2409 12.533C11.721 12.533 11.281 12.5596 10.801 12.7863Z" stroke="#4D0000" mask="url(#path-3-outside-2_6242_46201)"/>
<mask id="path-4-outside-3_6242_46201" maskUnits="userSpaceOnUse" x="42.1333" y="11.4019" width="13" height="32" fill="black">
<rect fill="white" x="42.1333" y="11.4019" width="13" height="32"/>
<path d="M43.4 12.7997C43.2266 12.973 43.1333 13.2397 43.1333 13.5996C43.1333 13.9596 43.2266 14.2263 43.4 14.3996C43.6533 14.6529 43.8399 14.6663 47.0531 14.6663C49.2264 14.6663 50.5863 14.7196 50.8663 14.8129C51.693 15.1062 51.6663 14.5329 51.6663 28.8657C51.6663 41.6919 51.6663 41.8652 51.933 42.1319C52.2929 42.4919 53.1729 42.4919 53.5329 42.1319C53.7996 41.8652 53.7996 41.6919 53.7996 28.3591C53.7996 15.4929 53.7862 14.8396 53.5462 14.3329C53.4129 14.0396 53.0929 13.613 52.8529 13.373C51.9996 12.5597 51.813 12.533 47.5331 12.533C43.8399 12.533 43.6533 12.5463 43.4 12.7997Z"/>
</mask>
<path d="M43.4 12.7997C43.2266 12.973 43.1333 13.2397 43.1333 13.5996C43.1333 13.9596 43.2266 14.2263 43.4 14.3996C43.6533 14.6529 43.8399 14.6663 47.0531 14.6663C49.2264 14.6663 50.5863 14.7196 50.8663 14.8129C51.693 15.1062 51.6663 14.5329 51.6663 28.8657C51.6663 41.6919 51.6663 41.8652 51.933 42.1319C52.2929 42.4919 53.1729 42.4919 53.5329 42.1319C53.7996 41.8652 53.7996 41.6919 53.7996 28.3591C53.7996 15.4929 53.7862 14.8396 53.5462 14.3329C53.4129 14.0396 53.0929 13.613 52.8529 13.373C51.9996 12.5597 51.813 12.533 47.5331 12.533C43.8399 12.533 43.6533 12.5463 43.4 12.7997Z" fill="#4D0000"/>
<path d="M43.4 12.7997C43.2266 12.973 43.1333 13.2397 43.1333 13.5996C43.1333 13.9596 43.2266 14.2263 43.4 14.3996C43.6533 14.6529 43.8399 14.6663 47.0531 14.6663C49.2264 14.6663 50.5863 14.7196 50.8663 14.8129C51.693 15.1062 51.6663 14.5329 51.6663 28.8657C51.6663 41.6919 51.6663 41.8652 51.933 42.1319C52.2929 42.4919 53.1729 42.4919 53.5329 42.1319C53.7996 41.8652 53.7996 41.6919 53.7996 28.3591C53.7996 15.4929 53.7862 14.8396 53.5462 14.3329C53.4129 14.0396 53.0929 13.613 52.8529 13.373C51.9996 12.5597 51.813 12.533 47.5331 12.533C43.8399 12.533 43.6533 12.5463 43.4 12.7997Z" stroke="#4D0000" mask="url(#path-4-outside-3_6242_46201)"/>
<mask id="path-5-outside-4_6242_46201" maskUnits="userSpaceOnUse" x="40" y="42.9507" width="23" height="26" fill="black">
<rect fill="white" x="40" y="42.9507" width="23" height="26"/>
<path d="M48.4664 43.545C44.8798 43.9983 42.12 45.1182 41.3333 46.4515L41 47.0248V55.7312V64.4375L41.3333 65.0108C42 66.1441 43.9732 67.0907 46.9331 67.6907C48.6797 68.0373 54.6528 68.0373 56.3994 67.6907C59.3593 67.0907 61.3325 66.1441 61.9992 65.0108L62.3325 64.4375V55.7312V47.0248L61.9992 46.4515C61.3459 45.3449 59.5593 44.4649 56.7061 43.8383C55.6928 43.625 54.8795 43.5716 52.1996 43.5316C50.3996 43.505 48.7197 43.5183 48.4664 43.545ZM54.8395 45.8782C56.9727 46.1182 59.4126 46.9048 59.9193 47.5181C60.0659 47.6915 60.0659 47.7715 59.9193 47.9448C59.4393 48.5181 57.0927 49.3047 54.9328 49.5981C54.3461 49.6781 52.8795 49.7447 51.6663 49.7447C50.453 49.7447 48.9864 49.6781 48.3997 49.5981C46.2398 49.3047 43.8932 48.5181 43.4132 47.9448C43.1732 47.6648 43.3866 47.4115 44.2265 46.9848C46.4398 45.8649 50.733 45.4249 54.8395 45.8782ZM46.6398 51.6247C47.8664 51.8913 48.373 51.918 51.6663 51.918C55.6928 51.918 56.7727 51.7846 59.1326 50.9447L60.1993 50.5714V51.798C60.1993 52.8913 60.1726 53.0513 59.9059 53.2913C59.186 53.9579 57.106 54.6379 54.9328 54.9312C53.5595 55.1178 49.773 55.1178 48.3997 54.9312C46.2265 54.6379 44.1465 53.9579 43.4399 53.2913C43.1599 53.0513 43.1333 52.8913 43.1333 51.798V50.5714L44.1999 50.9447C44.7999 51.158 45.8931 51.4647 46.6398 51.6247ZM46.6398 56.9578C47.8664 57.2244 48.373 57.2511 51.6663 57.2511C55.6928 57.2511 56.7727 57.1178 59.1326 56.2778L60.1993 55.9045V57.1311C60.1993 58.2244 60.1726 58.3844 59.9059 58.6244C59.186 59.291 57.106 59.971 54.9328 60.2643C53.5595 60.451 49.773 60.451 48.3997 60.2643C46.2265 59.971 44.1465 59.291 43.4399 58.6244C43.1599 58.3844 43.1333 58.2244 43.1333 57.1311V55.9045L44.1999 56.2778C44.7999 56.4911 45.8931 56.7978 46.6398 56.9578ZM46.6398 62.2909C47.8664 62.5576 48.373 62.5842 51.6663 62.5842C55.6928 62.5842 56.7727 62.4509 59.1326 61.6109L60.1993 61.2376V62.4642C60.1993 63.5575 60.1726 63.7175 59.9059 63.9575C59.186 64.6241 57.106 65.3041 54.9328 65.5974C53.5595 65.7841 49.773 65.7841 48.3997 65.5974C46.2265 65.3041 44.1465 64.6241 43.4399 63.9575C43.1599 63.7175 43.1333 63.5575 43.1333 62.4642V61.2376L44.1999 61.6109C44.7999 61.8243 45.8931 62.1309 46.6398 62.2909Z"/>
</mask>
<path d="M48.4664 43.545C44.8798 43.9983 42.12 45.1182 41.3333 46.4515L41 47.0248V55.7312V64.4375L41.3333 65.0108C42 66.1441 43.9732 67.0907 46.9331 67.6907C48.6797 68.0373 54.6528 68.0373 56.3994 67.6907C59.3593 67.0907 61.3325 66.1441 61.9992 65.0108L62.3325 64.4375V55.7312V47.0248L61.9992 46.4515C61.3459 45.3449 59.5593 44.4649 56.7061 43.8383C55.6928 43.625 54.8795 43.5716 52.1996 43.5316C50.3996 43.505 48.7197 43.5183 48.4664 43.545ZM54.8395 45.8782C56.9727 46.1182 59.4126 46.9048 59.9193 47.5181C60.0659 47.6915 60.0659 47.7715 59.9193 47.9448C59.4393 48.5181 57.0927 49.3047 54.9328 49.5981C54.3461 49.6781 52.8795 49.7447 51.6663 49.7447C50.453 49.7447 48.9864 49.6781 48.3997 49.5981C46.2398 49.3047 43.8932 48.5181 43.4132 47.9448C43.1732 47.6648 43.3866 47.4115 44.2265 46.9848C46.4398 45.8649 50.733 45.4249 54.8395 45.8782ZM46.6398 51.6247C47.8664 51.8913 48.373 51.918 51.6663 51.918C55.6928 51.918 56.7727 51.7846 59.1326 50.9447L60.1993 50.5714V51.798C60.1993 52.8913 60.1726 53.0513 59.9059 53.2913C59.186 53.9579 57.106 54.6379 54.9328 54.9312C53.5595 55.1178 49.773 55.1178 48.3997 54.9312C46.2265 54.6379 44.1465 53.9579 43.4399 53.2913C43.1599 53.0513 43.1333 52.8913 43.1333 51.798V50.5714L44.1999 50.9447C44.7999 51.158 45.8931 51.4647 46.6398 51.6247ZM46.6398 56.9578C47.8664 57.2244 48.373 57.2511 51.6663 57.2511C55.6928 57.2511 56.7727 57.1178 59.1326 56.2778L60.1993 55.9045V57.1311C60.1993 58.2244 60.1726 58.3844 59.9059 58.6244C59.186 59.291 57.106 59.971 54.9328 60.2643C53.5595 60.451 49.773 60.451 48.3997 60.2643C46.2265 59.971 44.1465 59.291 43.4399 58.6244C43.1599 58.3844 43.1333 58.2244 43.1333 57.1311V55.9045L44.1999 56.2778C44.7999 56.4911 45.8931 56.7978 46.6398 56.9578ZM46.6398 62.2909C47.8664 62.5576 48.373 62.5842 51.6663 62.5842C55.6928 62.5842 56.7727 62.4509 59.1326 61.6109L60.1993 61.2376V62.4642C60.1993 63.5575 60.1726 63.7175 59.9059 63.9575C59.186 64.6241 57.106 65.3041 54.9328 65.5974C53.5595 65.7841 49.773 65.7841 48.3997 65.5974C46.2265 65.3041 44.1465 64.6241 43.4399 63.9575C43.1599 63.7175 43.1333 63.5575 43.1333 62.4642V61.2376L44.1999 61.6109C44.7999 61.8243 45.8931 62.1309 46.6398 62.2909Z" fill="#4D0000"/>
<path d="M48.4664 43.545C44.8798 43.9983 42.12 45.1182 41.3333 46.4515L41 47.0248V55.7312V64.4375L41.3333 65.0108C42 66.1441 43.9732 67.0907 46.9331 67.6907C48.6797 68.0373 54.6528 68.0373 56.3994 67.6907C59.3593 67.0907 61.3325 66.1441 61.9992 65.0108L62.3325 64.4375V55.7312V47.0248L61.9992 46.4515C61.3459 45.3449 59.5593 44.4649 56.7061 43.8383C55.6928 43.625 54.8795 43.5716 52.1996 43.5316C50.3996 43.505 48.7197 43.5183 48.4664 43.545ZM54.8395 45.8782C56.9727 46.1182 59.4126 46.9048 59.9193 47.5181C60.0659 47.6915 60.0659 47.7715 59.9193 47.9448C59.4393 48.5181 57.0927 49.3047 54.9328 49.5981C54.3461 49.6781 52.8795 49.7447 51.6663 49.7447C50.453 49.7447 48.9864 49.6781 48.3997 49.5981C46.2398 49.3047 43.8932 48.5181 43.4132 47.9448C43.1732 47.6648 43.3866 47.4115 44.2265 46.9848C46.4398 45.8649 50.733 45.4249 54.8395 45.8782ZM46.6398 51.6247C47.8664 51.8913 48.373 51.918 51.6663 51.918C55.6928 51.918 56.7727 51.7846 59.1326 50.9447L60.1993 50.5714V51.798C60.1993 52.8913 60.1726 53.0513 59.9059 53.2913C59.186 53.9579 57.106 54.6379 54.9328 54.9312C53.5595 55.1178 49.773 55.1178 48.3997 54.9312C46.2265 54.6379 44.1465 53.9579 43.4399 53.2913C43.1599 53.0513 43.1333 52.8913 43.1333 51.798V50.5714L44.1999 50.9447C44.7999 51.158 45.8931 51.4647 46.6398 51.6247ZM46.6398 56.9578C47.8664 57.2244 48.373 57.2511 51.6663 57.2511C55.6928 57.2511 56.7727 57.1178 59.1326 56.2778L60.1993 55.9045V57.1311C60.1993 58.2244 60.1726 58.3844 59.9059 58.6244C59.186 59.291 57.106 59.971 54.9328 60.2643C53.5595 60.451 49.773 60.451 48.3997 60.2643C46.2265 59.971 44.1465 59.291 43.4399 58.6244C43.1599 58.3844 43.1333 58.2244 43.1333 57.1311V55.9045L44.1999 56.2778C44.7999 56.4911 45.8931 56.7978 46.6398 56.9578ZM46.6398 62.2909C47.8664 62.5576 48.373 62.5842 51.6663 62.5842C55.6928 62.5842 56.7727 62.4509 59.1326 61.6109L60.1993 61.2376V62.4642C60.1993 63.5575 60.1726 63.7175 59.9059 63.9575C59.186 64.6241 57.106 65.3041 54.9328 65.5974C53.5595 65.7841 49.773 65.7841 48.3997 65.5974C46.2265 65.3041 44.1465 64.6241 43.4399 63.9575C43.1599 63.7175 43.1333 63.5575 43.1333 62.4642V61.2376L44.1999 61.6109C44.7999 61.8243 45.8931 62.1309 46.6398 62.2909Z" stroke="#4D0000" mask="url(#path-5-outside-4_6242_46201)"/>
<mask id="path-6-outside-5_6242_46201" maskUnits="userSpaceOnUse" x="27.2002" y="48" width="14" height="21" fill="black">
<rect fill="white" x="27.2002" y="48" width="14" height="21"/>
<path d="M35.6666 48.8916C32.28 49.2516 29.3068 50.4515 28.5335 51.7848L28.2002 52.3581V58.3979V64.4377L28.5335 65.011C29.4801 66.6376 32.96 67.8109 37.2798 67.9575C39.2798 68.0375 39.3731 68.0242 39.6531 67.7442C39.9731 67.4242 40.0397 66.5842 39.7597 66.2109C39.5331 65.9043 38.7598 65.7443 37.5332 65.7309C35.6532 65.7309 32.7334 65.131 31.4801 64.5177C30.4134 63.971 30.3334 63.8377 30.3334 62.4644V61.2378L31.4001 61.6111C33.1733 62.2377 34.8666 62.5311 37.2132 62.6244C39.2798 62.7044 39.3731 62.6911 39.6531 62.4111C39.9731 62.0911 40.0397 61.2644 39.7597 60.8778C39.5331 60.5711 38.7598 60.4111 37.5332 60.3978C35.6532 60.3978 32.7334 59.7978 31.4801 59.1845C30.4134 58.6379 30.3334 58.5046 30.3334 57.1313V55.9047L31.4001 56.278C33.1733 56.9046 34.8666 57.1979 37.2132 57.2913C39.2798 57.3713 39.3731 57.3579 39.6531 57.0779C39.9731 56.758 40.0397 55.9313 39.7597 55.5447C39.5331 55.238 38.7598 55.078 37.5332 55.0647C34.9866 55.0514 31.2934 54.1047 30.6134 53.2781C30.4668 53.1048 30.4668 53.0248 30.6134 52.8514C31.2801 52.0381 34.9599 51.0782 37.4665 51.0648C38.7065 51.0515 39.5464 50.8782 39.7597 50.5849C40.0264 50.2115 39.9731 49.3716 39.6664 49.0649C39.4264 48.8249 39.2398 48.7983 37.7732 48.8249C36.8665 48.8249 35.9199 48.8649 35.6666 48.8916Z"/>
</mask>
<path d="M35.6666 48.8916C32.28 49.2516 29.3068 50.4515 28.5335 51.7848L28.2002 52.3581V58.3979V64.4377L28.5335 65.011C29.4801 66.6376 32.96 67.8109 37.2798 67.9575C39.2798 68.0375 39.3731 68.0242 39.6531 67.7442C39.9731 67.4242 40.0397 66.5842 39.7597 66.2109C39.5331 65.9043 38.7598 65.7443 37.5332 65.7309C35.6532 65.7309 32.7334 65.131 31.4801 64.5177C30.4134 63.971 30.3334 63.8377 30.3334 62.4644V61.2378L31.4001 61.6111C33.1733 62.2377 34.8666 62.5311 37.2132 62.6244C39.2798 62.7044 39.3731 62.6911 39.6531 62.4111C39.9731 62.0911 40.0397 61.2644 39.7597 60.8778C39.5331 60.5711 38.7598 60.4111 37.5332 60.3978C35.6532 60.3978 32.7334 59.7978 31.4801 59.1845C30.4134 58.6379 30.3334 58.5046 30.3334 57.1313V55.9047L31.4001 56.278C33.1733 56.9046 34.8666 57.1979 37.2132 57.2913C39.2798 57.3713 39.3731 57.3579 39.6531 57.0779C39.9731 56.758 40.0397 55.9313 39.7597 55.5447C39.5331 55.238 38.7598 55.078 37.5332 55.0647C34.9866 55.0514 31.2934 54.1047 30.6134 53.2781C30.4668 53.1048 30.4668 53.0248 30.6134 52.8514C31.2801 52.0381 34.9599 51.0782 37.4665 51.0648C38.7065 51.0515 39.5464 50.8782 39.7597 50.5849C40.0264 50.2115 39.9731 49.3716 39.6664 49.0649C39.4264 48.8249 39.2398 48.7983 37.7732 48.8249C36.8665 48.8249 35.9199 48.8649 35.6666 48.8916Z" fill="#4D0000"/>
<path d="M35.6666 48.8916C32.28 49.2516 29.3068 50.4515 28.5335 51.7848L28.2002 52.3581V58.3979V64.4377L28.5335 65.011C29.4801 66.6376 32.96 67.8109 37.2798 67.9575C39.2798 68.0375 39.3731 68.0242 39.6531 67.7442C39.9731 67.4242 40.0397 66.5842 39.7597 66.2109C39.5331 65.9043 38.7598 65.7443 37.5332 65.7309C35.6532 65.7309 32.7334 65.131 31.4801 64.5177C30.4134 63.971 30.3334 63.8377 30.3334 62.4644V61.2378L31.4001 61.6111C33.1733 62.2377 34.8666 62.5311 37.2132 62.6244C39.2798 62.7044 39.3731 62.6911 39.6531 62.4111C39.9731 62.0911 40.0397 61.2644 39.7597 60.8778C39.5331 60.5711 38.7598 60.4111 37.5332 60.3978C35.6532 60.3978 32.7334 59.7978 31.4801 59.1845C30.4134 58.6379 30.3334 58.5046 30.3334 57.1313V55.9047L31.4001 56.278C33.1733 56.9046 34.8666 57.1979 37.2132 57.2913C39.2798 57.3713 39.3731 57.3579 39.6531 57.0779C39.9731 56.758 40.0397 55.9313 39.7597 55.5447C39.5331 55.238 38.7598 55.078 37.5332 55.0647C34.9866 55.0514 31.2934 54.1047 30.6134 53.2781C30.4668 53.1048 30.4668 53.0248 30.6134 52.8514C31.2801 52.0381 34.9599 51.0782 37.4665 51.0648C38.7065 51.0515 39.5464 50.8782 39.7597 50.5849C40.0264 50.2115 39.9731 49.3716 39.6664 49.0649C39.4264 48.8249 39.2398 48.7983 37.7732 48.8249C36.8665 48.8249 35.9199 48.8649 35.6666 48.8916Z" stroke="#4D0000" mask="url(#path-6-outside-5_6242_46201)"/>
<mask id="path-7-outside-6_6242_46201" maskUnits="userSpaceOnUse" x="17.9041" y="18.8945" width="24" height="16" fill="black">
<rect fill="white" x="17.9041" y="18.8945" width="24" height="16"/>
<path d="M35.6005 20.1735C35.4728 20.2864 35.4041 20.4601 35.4041 20.6945C35.4041 21.3024 35.6005 21.3893 36.946 21.3893H38.1049L33.6166 25.358L29.1183 29.3353L27.763 28.1369C26.4273 26.9732 26.3978 26.9472 25.9657 26.9472H25.5335L22.2237 29.8824C18.9041 32.809 18.9041 32.809 18.9041 33.1824C18.9041 33.6687 19.1594 33.8945 19.7094 33.8945C20.1219 33.8945 20.1416 33.8772 23.0487 31.3153L25.9755 28.7361L27.3308 29.9258C28.6666 31.0895 28.696 31.1156 29.1282 31.1156H29.5603L34.4416 26.7995L39.3326 22.4748V23.4995C39.3326 24.6893 39.4308 24.863 40.1183 24.863C40.3835 24.863 40.5799 24.8022 40.7076 24.6893C40.8942 24.5243 40.9041 24.4027 40.9041 22.4314C40.9041 20.4601 40.8942 20.3385 40.7076 20.1735C40.521 20.0085 40.3835 19.9998 38.1541 19.9998C35.9246 19.9998 35.7871 20.0085 35.6005 20.1735Z"/>
</mask>
<path d="M35.6005 20.1735C35.4728 20.2864 35.4041 20.4601 35.4041 20.6945C35.4041 21.3024 35.6005 21.3893 36.946 21.3893H38.1049L33.6166 25.358L29.1183 29.3353L27.763 28.1369C26.4273 26.9732 26.3978 26.9472 25.9657 26.9472H25.5335L22.2237 29.8824C18.9041 32.809 18.9041 32.809 18.9041 33.1824C18.9041 33.6687 19.1594 33.8945 19.7094 33.8945C20.1219 33.8945 20.1416 33.8772 23.0487 31.3153L25.9755 28.7361L27.3308 29.9258C28.6666 31.0895 28.696 31.1156 29.1282 31.1156H29.5603L34.4416 26.7995L39.3326 22.4748V23.4995C39.3326 24.6893 39.4308 24.863 40.1183 24.863C40.3835 24.863 40.5799 24.8022 40.7076 24.6893C40.8942 24.5243 40.9041 24.4027 40.9041 22.4314C40.9041 20.4601 40.8942 20.3385 40.7076 20.1735C40.521 20.0085 40.3835 19.9998 38.1541 19.9998C35.9246 19.9998 35.7871 20.0085 35.6005 20.1735Z" fill="#4D0000"/>
<path d="M35.6005 20.1735C35.4728 20.2864 35.4041 20.4601 35.4041 20.6945C35.4041 21.3024 35.6005 21.3893 36.946 21.3893H38.1049L33.6166 25.358L29.1183 29.3353L27.763 28.1369C26.4273 26.9732 26.3978 26.9472 25.9657 26.9472H25.5335L22.2237 29.8824C18.9041 32.809 18.9041 32.809 18.9041 33.1824C18.9041 33.6687 19.1594 33.8945 19.7094 33.8945C20.1219 33.8945 20.1416 33.8772 23.0487 31.3153L25.9755 28.7361L27.3308 29.9258C28.6666 31.0895 28.696 31.1156 29.1282 31.1156H29.5603L34.4416 26.7995L39.3326 22.4748V23.4995C39.3326 24.6893 39.4308 24.863 40.1183 24.863C40.3835 24.863 40.5799 24.8022 40.7076 24.6893C40.8942 24.5243 40.9041 24.4027 40.9041 22.4314C40.9041 20.4601 40.8942 20.3385 40.7076 20.1735C40.521 20.0085 40.3835 19.9998 38.1541 19.9998C35.9246 19.9998 35.7871 20.0085 35.6005 20.1735Z" stroke="#4D0000" stroke-width="0.513515" mask="url(#path-7-outside-6_6242_46201)"/>
<mask id="path-8-outside-7_6242_46201" maskUnits="userSpaceOnUse" x="40.0083" y="25" width="6" height="19" fill="black">
<rect fill="white" x="40.0083" y="25" width="6" height="19"/>
<path d="M41.4953 26.2416C41.0326 26.5537 41.0083 26.7837 41.0083 34.4545C41.0083 42.1253 41.0326 42.3553 41.4953 42.6674C42.1527 43.1109 43.7596 43.1109 44.417 42.6674C44.8796 42.3553 44.904 42.1253 44.904 34.4545C44.904 26.7837 44.8796 26.5537 44.417 26.2416C44.1005 26.0281 43.6135 25.9131 42.9561 25.9131C42.2987 25.9131 41.8118 26.0281 41.4953 26.2416Z"/>
</mask>
<path d="M41.4953 26.2416C41.0326 26.5537 41.0083 26.7837 41.0083 34.4545C41.0083 42.1253 41.0326 42.3553 41.4953 42.6674C42.1527 43.1109 43.7596 43.1109 44.417 42.6674C44.8796 42.3553 44.904 42.1253 44.904 34.4545C44.904 26.7837 44.8796 26.5537 44.417 26.2416C44.1005 26.0281 43.6135 25.9131 42.9561 25.9131C42.2987 25.9131 41.8118 26.0281 41.4953 26.2416Z" fill="#4D0000"/>
<path d="M41.4953 26.2416C41.0326 26.5537 41.0083 26.7837 41.0083 34.4545C41.0083 42.1253 41.0326 42.3553 41.4953 42.6674C42.1527 43.1109 43.7596 43.1109 44.417 42.6674C44.8796 42.3553 44.904 42.1253 44.904 34.4545C44.904 26.7837 44.8796 26.5537 44.417 26.2416C44.1005 26.0281 43.6135 25.9131 42.9561 25.9131C42.2987 25.9131 41.8118 26.0281 41.4953 26.2416Z" stroke="#4D0000" stroke-width="0.739172" mask="url(#path-8-outside-7_6242_46201)"/>
<mask id="path-9-outside-8_6242_46201" maskUnits="userSpaceOnUse" x="24.9043" y="32" width="6" height="12" fill="black">
<rect fill="white" x="24.9043" y="32" width="6" height="12"/>
<path d="M26.4043 33.2778C25.9293 33.5417 25.9043 33.7361 25.9043 38C25.9043 42.2639 25.9293 42.4583 26.4043 42.7222C26.7293 42.9028 27.2293 43 27.9043 43C28.5793 43 29.0793 42.9028 29.4043 42.7222C29.8793 42.4583 29.9043 42.2639 29.9043 38C29.9043 33.7361 29.8793 33.5417 29.4043 33.2778C29.0793 33.0972 28.5793 33 27.9043 33C27.2293 33 26.7293 33.0972 26.4043 33.2778Z"/>
</mask>
<path d="M26.4043 33.2778C25.9293 33.5417 25.9043 33.7361 25.9043 38C25.9043 42.2639 25.9293 42.4583 26.4043 42.7222C26.7293 42.9028 27.2293 43 27.9043 43C28.5793 43 29.0793 42.9028 29.4043 42.7222C29.8793 42.4583 29.9043 42.2639 29.9043 38C29.9043 33.7361 29.8793 33.5417 29.4043 33.2778C29.0793 33.0972 28.5793 33 27.9043 33C27.2293 33 26.7293 33.0972 26.4043 33.2778Z" fill="#4D0000"/>
<path d="M26.4043 33.2778C25.9293 33.5417 25.9043 33.7361 25.9043 38C25.9043 42.2639 25.9293 42.4583 26.4043 42.7222C26.7293 42.9028 27.2293 43 27.9043 43C28.5793 43 29.0793 42.9028 29.4043 42.7222C29.8793 42.4583 29.9043 42.2639 29.9043 38C29.9043 33.7361 29.8793 33.5417 29.4043 33.2778C29.0793 33.0972 28.5793 33 27.9043 33C27.2293 33 26.7293 33.0972 26.4043 33.2778Z" stroke="#4D0000" stroke-width="0.739172" mask="url(#path-9-outside-8_6242_46201)"/>
<mask id="path-10-outside-9_6242_46201" maskUnits="userSpaceOnUse" x="32.583" y="31.9961" width="6" height="12" fill="black">
<rect fill="white" x="32.583" y="31.9961" width="6" height="12"/>
<path d="M34.07 32.8121C33.6074 33.1242 33.583 33.3542 33.583 37.7399C33.583 42.1255 33.6074 42.3555 34.07 42.6676C34.3865 42.8811 34.8735 42.9961 35.5309 42.9961C36.1883 42.9961 36.6752 42.8811 36.9917 42.6676C37.4543 42.3555 37.4787 42.1255 37.4787 37.7399C37.4787 33.3542 37.4543 33.1242 36.9917 32.8121C36.6752 32.5986 36.1883 32.4836 35.5309 32.4836C34.8735 32.4836 34.3865 32.5986 34.07 32.8121Z"/>
</mask>
<path d="M34.07 32.8121C33.6074 33.1242 33.583 33.3542 33.583 37.7399C33.583 42.1255 33.6074 42.3555 34.07 42.6676C34.3865 42.8811 34.8735 42.9961 35.5309 42.9961C36.1883 42.9961 36.6752 42.8811 36.9917 42.6676C37.4543 42.3555 37.4787 42.1255 37.4787 37.7399C37.4787 33.3542 37.4543 33.1242 36.9917 32.8121C36.6752 32.5986 36.1883 32.4836 35.5309 32.4836C34.8735 32.4836 34.3865 32.5986 34.07 32.8121Z" fill="#4D0000"/>
<path d="M34.07 32.8121C33.6074 33.1242 33.583 33.3542 33.583 37.7399C33.583 42.1255 33.6074 42.3555 34.07 42.6676C34.3865 42.8811 34.8735 42.9961 35.5309 42.9961C36.1883 42.9961 36.6752 42.8811 36.9917 42.6676C37.4543 42.3555 37.4787 42.1255 37.4787 37.7399C37.4787 33.3542 37.4543 33.1242 36.9917 32.8121C36.6752 32.5986 36.1883 32.4836 35.5309 32.4836C34.8735 32.4836 34.3865 32.5986 34.07 32.8121Z" stroke="#4D0000" stroke-width="0.739172" mask="url(#path-10-outside-9_6242_46201)"/>
<mask id="path-11-outside-10_6242_46201" maskUnits="userSpaceOnUse" x="17" y="35.9961" width="6" height="8" fill="black">
<rect fill="white" x="17" y="35.9961" width="6" height="8"/>
<path d="M18.487 36.7543C18.0487 37.05 18 37.2964 18 39.7109C18 42.1255 18.0487 42.3719 18.487 42.6676C18.8035 42.8811 19.2904 42.9961 19.9478 42.9961C20.6052 42.9961 21.0922 42.8811 21.4087 42.6676C21.847 42.3719 21.8957 42.1255 21.8957 39.7109C21.8957 37.2964 21.847 37.05 21.4087 36.7543C21.0922 36.5408 20.6052 36.4258 19.9478 36.4258C19.2904 36.4258 18.8035 36.5408 18.487 36.7543Z"/>
</mask>
<path d="M18.487 36.7543C18.0487 37.05 18 37.2964 18 39.7109C18 42.1255 18.0487 42.3719 18.487 42.6676C18.8035 42.8811 19.2904 42.9961 19.9478 42.9961C20.6052 42.9961 21.0922 42.8811 21.4087 42.6676C21.847 42.3719 21.8957 42.1255 21.8957 39.7109C21.8957 37.2964 21.847 37.05 21.4087 36.7543C21.0922 36.5408 20.6052 36.4258 19.9478 36.4258C19.2904 36.4258 18.8035 36.5408 18.487 36.7543Z" fill="#4D0000"/>
<path d="M18.487 36.7543C18.0487 37.05 18 37.2964 18 39.7109C18 42.1255 18.0487 42.3719 18.487 42.6676C18.8035 42.8811 19.2904 42.9961 19.9478 42.9961C20.6052 42.9961 21.0922 42.8811 21.4087 42.6676C21.847 42.3719 21.8957 42.1255 21.8957 39.7109C21.8957 37.2964 21.847 37.05 21.4087 36.7543C21.0922 36.5408 20.6052 36.4258 19.9478 36.4258C19.2904 36.4258 18.8035 36.5408 18.487 36.7543Z" stroke="#4D0000" stroke-width="0.739172" mask="url(#path-11-outside-10_6242_46201)"/>
</svg>
