<svg width="72" height="72" viewBox="0 0 72 72" fill="none" xmlns="http://www.w3.org/2000/svg">
<path d="M20 19.5V14.5H39.5V19.5H20Z" fill="#22885E"/>
<path d="M14.5 46.5L6 48.5L13.5 67.5L20.5 62L14.5 46.5Z" fill="#22885E"/>
<path d="M37 7L39.5 11H43.5V43.5H41L37 47.5L38.5 49.5L49 50.5L61.5 45L63 35L52 19L53.5 16L52 13L55 7L50.5 5L43.5 8L37 7Z" fill="#62C89E"/>
<path d="M47.5578 4.13251C45.9565 4.4703 44.6428 5.05829 43.7671 5.83395L43.3543 6.19676L42.3159 5.82144C40.114 5.04578 38.1248 4.92068 36.9488 5.48365C36.2357 5.82144 35.923 6.33438 35.923 7.16007C35.923 7.69803 36.0105 7.94824 36.536 8.81147L37.149 9.83734H27.128C17.3072 9.83734 17.0945 9.83734 16.5816 10.0876C16.2813 10.2377 15.906 10.5755 15.7058 10.8632L15.343 11.3761V27.0394V42.6902L15.6433 43.1405C16.0561 43.741 16.6817 44.1414 17.3447 44.2039L17.8952 44.279L16.6817 45.2423L15.4807 46.2181L15.0428 45.9804C14.2921 45.5801 13.3288 45.455 11.5273 45.5301C8.38715 45.6552 5.92256 46.631 5.18444 48.0447C4.74657 48.8704 4.80912 49.058 8.58732 58.3159C10.9518 64.0958 12.2779 67.1859 12.4906 67.4111C12.966 67.899 13.4164 68.0491 14.3672 67.9866C15.4056 67.9365 16.7067 67.361 18.0578 66.3477C19.5716 65.2217 21.2105 63.3577 21.5608 62.3818C21.6859 62.019 21.7109 62.0065 22.4491 62.0065C24.4883 62.0065 41.2275 61.2434 41.7279 61.1308C43.5169 60.7304 51.5862 58.0281 54.251 56.9397C55.5896 56.3893 65.5856 50.4342 66.4238 49.6836C67.2745 48.9204 67.5748 48.3324 67.5748 47.4442C67.5748 46.5935 67.4497 46.2557 66.8992 45.6427C66.1986 44.8795 65.1352 44.4542 63.734 44.3916C63.096 44.3666 62.5705 44.329 62.5705 44.3165C62.5705 44.304 62.7582 43.8536 62.9834 43.3032C63.734 41.5392 63.8841 40.676 63.8841 38.3615C63.8716 35.997 63.684 35.0587 62.7957 32.9819C61.4821 29.8918 59.543 27.1895 54.2134 21.0343C53.3752 20.071 52.6872 19.2578 52.6997 19.2203C52.6997 19.1828 52.9374 18.9826 53.2251 18.7824C53.9757 18.2445 54.4887 17.1811 54.4887 16.1677C54.4762 15.2169 54.0758 14.2411 53.4753 13.7156L53.05 13.3403L54.7139 10.6756L56.3778 8.02331V7.14756C56.3778 6.42195 56.3277 6.19676 56.0775 5.84646C55.6647 5.27097 54.814 4.75804 53.6254 4.37021C52.7372 4.08247 52.3869 4.04494 50.4978 4.00741C49.0466 3.98238 48.1083 4.01992 47.5578 4.13251ZM52.537 6.27182C53.4503 6.4845 54.3135 6.89735 54.3135 7.12254C54.3135 7.19761 53.5379 8.51122 52.5871 10.025L50.8606 12.7773L47.9081 12.8149L44.9681 12.8399L44.8805 12.1893C44.7554 11.3011 44.2925 10.5379 43.6295 10.1501C43.1291 9.86236 42.9914 9.83734 41.4026 9.83734H39.7012L39.0006 8.73641C38.0373 7.21012 38.0373 7.21012 38.6628 7.21012C39.5385 7.21012 41.0523 7.58543 42.2909 8.09837C43.9172 8.77394 44.28 8.74892 44.8055 7.8982C45.7813 6.32186 49.4344 5.55872 52.537 6.27182ZM42.5286 12.0392L42.8038 12.2269V27.0394V41.8519L42.5286 42.0396C42.3534 42.1647 41.9781 42.2398 41.5777 42.2398C41.0023 42.2398 40.8271 42.1772 40.4893 41.877C40.0264 41.4766 38.8504 40.9887 38.325 40.9887C38.0623 40.9762 38.1248 40.9262 38.6127 40.7635C39.5385 40.4383 40.0389 40.0254 40.3767 39.3123C40.6645 38.6868 40.677 38.6117 40.677 34.9461C40.677 30.8426 40.652 30.6675 39.8888 29.8793C39.2883 29.2538 38.8379 29.0661 37.9247 29.0536C37.2491 29.0411 37.0114 29.1037 36.511 29.3914C36.1857 29.5791 35.7603 29.9794 35.5727 30.2546L35.2349 30.7676L35.1973 34.8085C35.1598 38.6117 35.1723 38.8869 35.41 39.3248C35.7103 39.9128 36.2232 40.4132 36.7987 40.676C37.2366 40.8636 37.2366 40.8761 36.8613 40.8136C36.6611 40.776 35.41 40.6509 34.0839 40.5383L31.6819 40.3257L32.0447 39.9378C33.1706 38.7994 32.9204 36.7601 31.5693 35.8093C31.1064 35.4841 30.8937 35.4215 30.1306 35.384C29.3674 35.3464 29.1422 35.384 28.6668 35.6342C27.1655 36.4349 26.7277 38.6868 27.8536 39.8628L28.1789 40.2006L27.1405 40.2881C25.0012 40.4758 23.4624 40.8886 21.736 41.7519C20.7601 42.2398 20.7476 42.2398 19.2714 42.2398C17.9452 42.2398 17.7576 42.2148 17.5324 41.9896C17.2822 41.7394 17.2822 41.5767 17.2822 27.0394C17.2822 12.5021 17.2822 12.3395 17.5324 12.0892C17.7826 11.839 17.9452 11.839 30.018 11.839C40.8897 11.839 42.2783 11.8641 42.5286 12.0392ZM51.8364 15.1293C52.537 15.6172 52.537 16.6931 51.8364 17.1811C51.5362 17.3812 51.1484 17.4063 48.2209 17.4438L44.9306 17.4813V16.1552V14.8291L48.2209 14.8666C51.1358 14.9041 51.5362 14.9292 51.8364 15.1293ZM52.5871 22.4355C55.6897 26.0636 56.6655 27.2396 57.6539 28.5532C59.5805 31.1054 60.9817 33.7576 61.5321 35.8344C61.8074 36.9228 61.8324 37.2355 61.7824 38.7994C61.7448 40.3507 61.6948 40.676 61.357 41.6518C60.9441 42.8278 60.4312 43.7536 59.6305 44.7669L59.1301 45.3924L53.638 47.6318L48.1458 49.8712H46.5069C43.7045 49.8712 41.6778 49.6586 39.8012 49.1581C38.8755 48.9204 37.9872 48.6452 37.8246 48.5701C37.5493 48.42 37.5869 48.4075 38.325 48.1948C39.2132 47.9446 39.7637 47.6444 40.4768 46.9938C41.0398 46.4934 41.6778 45.2423 41.6778 44.6418V44.2415H42.3409C43.2792 44.2415 44.0048 43.8286 44.4927 43.053L44.868 42.4525L44.9056 30.9552L44.9431 19.4705H47.4827H50.0349L52.5871 22.4355ZM38.275 31.3055C38.5502 31.4932 38.5502 31.5182 38.5502 34.9211C38.5502 37.8611 38.5252 38.374 38.35 38.5366C38.1123 38.7869 37.7996 38.7869 37.4743 38.5617C37.2491 38.399 37.2366 38.1863 37.199 35.0837C37.1615 31.881 37.174 31.7684 37.4242 31.4431C37.737 31.0553 37.8871 31.0303 38.275 31.3055ZM34.9221 42.7277C38.6002 43.0905 38.6753 43.1155 39.2758 43.6535C39.9013 44.229 39.4509 45.3049 38.3 45.9304C37.6244 46.2932 37.5744 46.3057 35.8604 46.3057C34.8971 46.3057 32.7077 46.2807 30.9938 46.2432L27.8912 46.1806L27.5909 46.5309C27.4283 46.7311 27.2907 47.0438 27.2907 47.2315C27.2907 48.0322 27.2656 48.0197 34.2465 49.8837C38.7754 51.0848 41.1023 51.6477 41.928 51.7353C43.9423 51.948 47.3076 52.0356 48.2459 51.898C48.9215 51.8104 50.5478 51.1974 55.3019 49.2582C58.7047 47.8695 61.8574 46.6435 62.3078 46.5309C62.7832 46.4308 63.3587 46.3808 63.6715 46.4183C64.4221 46.5184 65.2728 46.9187 65.448 47.244C65.5731 47.4817 65.5355 47.5693 65.0351 48.0322C64.7349 48.3324 62.1452 49.9463 59.1802 51.6978C53.2501 55.2133 53.4003 55.1507 46.8697 57.3276C42.5536 58.7663 41.2024 59.1291 39.8638 59.2041C36.6486 59.4043 21.2105 59.9798 21.1354 59.9047C21.0228 59.7796 16.4064 48.4575 16.4064 48.3074C16.4189 48.2324 17.2321 47.5443 18.2205 46.7561C21.8235 43.8912 23.55 43.0029 26.3524 42.54C27.7035 42.3148 31.6068 42.4024 34.9221 42.7277ZM15.7934 52.5485C16.9444 55.3634 18.308 58.6787 18.8085 59.9172L19.7217 62.1566L18.9836 62.8447C16.9569 64.7338 14.4047 66.2726 14.0419 65.8348C13.7792 65.522 7.13609 49.0706 7.19864 48.9079C7.42383 48.3199 11.1895 47.3566 13.0161 47.4067L13.7042 47.4317L15.7934 52.5485Z" fill="#0B2D1F"/>
<path d="M20.097 13.2529C19.434 13.5156 19.0461 13.8534 18.7834 14.3913C18.5707 14.8542 18.5332 15.167 18.5332 16.7558C18.5332 18.0194 18.5832 18.7325 18.7084 19.0077C18.921 19.5457 19.6592 20.1712 20.2472 20.3339C20.8977 20.5215 39.1882 20.5215 39.8387 20.3339C40.4267 20.1712 41.1649 19.5457 41.3775 19.0077C41.5027 18.7325 41.5527 18.0194 41.5527 16.7183C41.5527 14.529 41.4151 14.0786 40.5268 13.5031L40.0014 13.1528L30.2431 13.1278C22.962 13.1153 20.3723 13.1403 20.097 13.2529ZM39.3633 16.7809V18.2821H30.0429H20.7226L20.685 16.9185C20.6725 16.1553 20.685 15.4672 20.71 15.3797C20.7726 15.2421 22.4615 15.217 30.068 15.2421L39.3633 15.2796V16.7809Z" fill="#0B2D1F"/>
<path d="M21.4735 22.3356C20.1975 22.6609 19.2842 23.7994 19.2842 25.0504C19.2842 26.2765 20.21 27.4525 21.3985 27.7277C23.9631 28.3407 25.8397 25.5008 24.2759 23.3615C23.6879 22.5483 22.4368 22.0854 21.4735 22.3356Z" fill="#0B2D1F"/>
<path d="M29.3548 22.3355C27.816 22.7233 26.9528 24.1245 27.2906 25.6883C27.6158 27.1896 29.2422 28.1404 30.7685 27.715C31.5692 27.4898 32.4324 26.6266 32.6576 25.8259C33.0204 24.5373 32.4199 23.1612 31.2314 22.5606C30.756 22.3229 29.8427 22.2103 29.3548 22.3355Z" fill="#0B2D1F"/>
<path d="M37.1866 22.3482C36.0106 22.636 35.1724 23.7369 35.1724 25.0005C35.1724 26.7144 36.2233 27.7778 37.9247 27.7778C39.1132 27.7778 39.9514 27.2399 40.4393 26.164C41.0273 24.8754 40.4143 23.1614 39.1382 22.5609C38.6128 22.3107 37.7245 22.2106 37.1866 22.3482Z" fill="#0B2D1F"/>
<path d="M20.7352 29.1288C19.3341 29.9545 18.8837 31.7435 19.7469 33.0696C20.6226 34.4333 22.5368 34.746 23.7878 33.7452C25.214 32.6067 25.164 30.3298 23.6752 29.2914C23.2123 28.9661 23.0122 28.9161 22.1865 28.8786C21.3733 28.8535 21.1481 28.8911 20.7352 29.1288Z" fill="#0B2D1F"/>
<path d="M28.6543 29.1413C28.0038 29.4916 27.3657 30.3674 27.2406 31.0805C27.103 31.9937 27.3783 32.832 28.0288 33.47C29.2048 34.646 30.7686 34.6585 31.9321 33.495C33.033 32.4066 33.0581 30.7802 31.9947 29.6292C31.2565 28.8161 29.7052 28.5909 28.6543 29.1413Z" fill="#0B2D1F"/>
<path d="M21.0352 35.4968C20.3971 35.7595 19.8717 36.285 19.5714 36.9606C18.508 39.2625 20.9226 41.6771 23.237 40.6262C25.1887 39.7379 25.3889 36.9606 23.5873 35.7345C23.212 35.4843 22.9368 35.4218 22.2362 35.3967C21.7483 35.3717 21.2103 35.4218 21.0352 35.4968Z" fill="#0B2D1F"/>
<path d="M50.0099 26.1134C49.6846 26.3761 49.6721 26.4386 49.7097 27.2518L49.7472 28.1151L48.9966 28.4904C47.4202 29.2785 46.4194 30.6797 46.4069 32.131C46.3944 33.1068 46.5695 33.7573 47.0449 34.508C47.708 35.5463 49.3969 36.1093 51.924 36.1093C53.2752 36.1093 54.2885 36.3345 54.7639 36.7599C56.5154 38.2987 53.5754 40.7633 50.9232 39.9751C50.2226 39.7624 49.5846 39.1869 49.4344 38.6114C49.2968 38.0985 48.8089 37.6106 48.4211 37.6106C47.683 37.6106 47.2326 38.1986 47.3577 38.9868C47.6204 40.6131 49.2468 41.9518 51.236 42.1895L51.9115 42.277L51.9991 42.9651C52.1492 44.2037 53.05 44.6416 53.8257 43.8659C54.1759 43.5156 54.1885 43.4656 54.1134 42.7149L54.0383 41.9268L54.5888 41.7016C56.0025 41.1261 57.0909 39.875 57.3411 38.5114C57.4537 37.8858 57.4412 37.6106 57.2661 36.91C56.7406 34.7707 55.7523 34.2202 52.0241 33.995C49.6846 33.8574 49.0341 33.6322 48.6463 32.8316C47.8706 31.2427 50.5229 29.4787 52.7873 30.0917C53.4879 30.2919 54.1509 30.8799 54.3386 31.5054C54.5388 32.181 55.0016 32.5188 55.5646 32.4312C56.4404 32.2936 56.7031 31.3428 56.1651 30.2419C55.6022 29.0659 54.3636 28.2402 52.7372 27.9399C52.1743 27.8273 51.8615 27.7147 51.849 27.5896C51.7364 26.7514 51.6238 26.4011 51.3736 26.1509C50.9983 25.7756 50.4603 25.7631 50.0099 26.1134Z" fill="#0B2D1F"/>
</svg>
