<svg width="72" height="72" viewBox="0 0 72 72" fill="none" xmlns="http://www.w3.org/2000/svg">
<mask id="path-1-outside-1_6242_46194" maskUnits="userSpaceOnUse" x="3" y="3" width="66" height="66" fill="black">
<rect fill="white" x="3" y="3" width="66" height="66"/>
<path d="M22.7608 4.25006C21.2855 4.78769 20.1727 5.78793 19.46 7.23827L19.0599 8.06347L18.9974 21.1916L18.9349 34.3072L17.8847 34.4697C16.6219 34.6698 14.6089 35.3199 13.3461 35.9576C8.56995 38.3457 5.09413 42.9843 4.19391 48.198C3.94385 49.6483 3.93135 52.474 4.18141 54.0119C5.31918 60.976 11.1081 66.7399 18.0722 67.8277C19.16 68.0027 21.9231 68.0152 41.5028 67.9902L63.6955 67.9527L64.5708 67.5276C65.721 66.965 66.7088 65.9772 67.2714 64.827L67.6965 63.9517L67.734 40.9463C67.7465 28.2933 67.734 17.8033 67.6965 17.6282C67.609 17.3032 55.4936 5.03775 54.5809 4.36259L54.0933 4H38.7646C23.9486 4.0125 23.411 4.0125 22.7608 4.25006ZM51.5051 13.4022C51.5051 18.741 51.5177 19.0911 51.7427 19.4287C51.8677 19.6162 52.1428 19.8913 52.3303 20.0163C52.6679 20.2414 53.018 20.2539 58.3568 20.2539H64.0081L63.9831 41.5339L63.9456 62.8265L63.6705 63.2641C63.5205 63.5016 63.2079 63.8142 62.9829 63.9517C62.5828 64.2018 62.3202 64.2018 47.1041 64.2393L31.6504 64.2643L32.6507 63.3016C35.0762 60.9385 36.8392 57.7503 37.4393 54.612C37.5518 54.0369 37.6644 53.4492 37.7019 53.2867L37.7519 53.0116H47.7918C57.4066 53.0116 57.8317 52.9991 58.1817 52.7741C58.7569 52.3865 59.0069 51.9114 59.0069 51.1362C59.0069 50.3985 58.7694 49.9109 58.2443 49.5358C57.9692 49.3358 57.069 49.3233 47.8293 49.2608L37.7019 49.1982L37.5393 48.198C37.2268 46.2976 36.3641 43.972 35.3763 42.3716L35.0012 41.759H46.4164C57.3815 41.759 57.8317 41.7465 58.1817 41.5214C58.7569 41.1338 59.0069 40.6587 59.0069 39.8835C59.0069 39.1083 58.7569 38.6332 58.1817 38.2456C57.8317 38.0206 57.344 38.0081 44.7285 38.0081H31.6379L30.7127 37.3454C28.7873 35.9576 26.0366 34.8073 23.8611 34.4697L22.8108 34.3072V21.7542V9.18874L23.0859 8.75113C23.386 8.26351 23.7486 8.00095 24.3112 7.86342C24.5237 7.81341 30.7252 7.7759 38.102 7.7634L51.5051 7.75089V13.4022ZM58.2568 13.5648L61.195 16.503H58.2192H55.256V13.5648C55.256 11.9519 55.2685 10.6266 55.2936 10.6266C55.3061 10.6266 56.6439 11.9519 58.2568 13.5648ZM22.3107 38.1831C24.8113 38.3832 27.6245 39.6585 29.7125 41.5589C31.3879 43.0843 32.9007 45.6099 33.5259 47.8854C33.7759 48.7981 33.8134 49.2483 33.8134 51.1362C33.8134 53.6868 33.6134 54.6495 32.6757 56.625C31.3504 59.4257 29.2249 61.5637 26.4367 62.9015C20.6978 65.6396 13.9337 63.8392 10.1828 58.5755C9.43266 57.5377 8.58246 55.6998 8.21987 54.387C7.96981 53.4618 7.9323 53.0367 7.9323 51.1362C7.9323 48.5981 8.13235 47.6354 9.04507 45.6849C9.78274 44.1345 10.4829 43.1343 11.6707 41.934C13.8837 39.7335 16.7219 38.3957 19.7226 38.1456C20.3227 38.0956 20.9479 38.0706 21.1229 38.0831C21.298 38.1081 21.8356 38.1456 22.3107 38.1831Z"/>
<path d="M22.3107 38.1831C24.8113 38.3832 27.6245 39.6585 29.7125 41.5589C31.3879 43.0843 32.9007 45.6099 33.5259 47.8854C33.7759 48.7981 33.8134 49.2483 33.8134 51.1362C33.8134 53.6868 33.6134 54.6495 32.6757 56.625C31.3504 59.4257 29.2249 61.5637 26.4367 62.9015C20.6978 65.6396 13.9337 63.8392 10.1828 58.5755C9.43266 57.5377 8.58246 55.6998 8.21987 54.387C7.96981 53.4618 7.9323 53.0367 7.9323 51.1362C7.9323 48.5981 8.13235 47.6354 9.04507 45.6849C9.78274 44.1345 10.4829 43.1343 11.6707 41.934C13.8837 39.7335 16.7219 38.3957 19.7226 38.1456C20.3227 38.0956 20.9479 38.0706 21.1229 38.0831C21.298 38.1081 21.8356 38.1456 22.3107 38.1831Z"/>
<path d="M58.2568 13.5648L61.195 16.503H58.2192H55.256V13.5648C55.256 11.9519 55.2685 10.6266 55.2936 10.6266C55.3061 10.6266 56.6439 11.9519 58.2568 13.5648Z"/>
</mask>
<path d="M22.7608 4.25006C21.2855 4.78769 20.1727 5.78793 19.46 7.23827L19.0599 8.06347L18.9974 21.1916L18.9349 34.3072L17.8847 34.4697C16.6219 34.6698 14.6089 35.3199 13.3461 35.9576C8.56995 38.3457 5.09413 42.9843 4.19391 48.198C3.94385 49.6483 3.93135 52.474 4.18141 54.0119C5.31918 60.976 11.1081 66.7399 18.0722 67.8277C19.16 68.0027 21.9231 68.0152 41.5028 67.9902L63.6955 67.9527L64.5708 67.5276C65.721 66.965 66.7088 65.9772 67.2714 64.827L67.6965 63.9517L67.734 40.9463C67.7465 28.2933 67.734 17.8033 67.6965 17.6282C67.609 17.3032 55.4936 5.03775 54.5809 4.36259L54.0933 4H38.7646C23.9486 4.0125 23.411 4.0125 22.7608 4.25006ZM51.5051 13.4022C51.5051 18.741 51.5177 19.0911 51.7427 19.4287C51.8677 19.6162 52.1428 19.8913 52.3303 20.0163C52.6679 20.2414 53.018 20.2539 58.3568 20.2539H64.0081L63.9831 41.5339L63.9456 62.8265L63.6705 63.2641C63.5205 63.5016 63.2079 63.8142 62.9829 63.9517C62.5828 64.2018 62.3202 64.2018 47.1041 64.2393L31.6504 64.2643L32.6507 63.3016C35.0762 60.9385 36.8392 57.7503 37.4393 54.612C37.5518 54.0369 37.6644 53.4492 37.7019 53.2867L37.7519 53.0116H47.7918C57.4066 53.0116 57.8317 52.9991 58.1817 52.7741C58.7569 52.3865 59.0069 51.9114 59.0069 51.1362C59.0069 50.3985 58.7694 49.9109 58.2443 49.5358C57.9692 49.3358 57.069 49.3233 47.8293 49.2608L37.7019 49.1982L37.5393 48.198C37.2268 46.2976 36.3641 43.972 35.3763 42.3716L35.0012 41.759H46.4164C57.3815 41.759 57.8317 41.7465 58.1817 41.5214C58.7569 41.1338 59.0069 40.6587 59.0069 39.8835C59.0069 39.1083 58.7569 38.6332 58.1817 38.2456C57.8317 38.0206 57.344 38.0081 44.7285 38.0081H31.6379L30.7127 37.3454C28.7873 35.9576 26.0366 34.8073 23.8611 34.4697L22.8108 34.3072V21.7542V9.18874L23.0859 8.75113C23.386 8.26351 23.7486 8.00095 24.3112 7.86342C24.5237 7.81341 30.7252 7.7759 38.102 7.7634L51.5051 7.75089V13.4022ZM58.2568 13.5648L61.195 16.503H58.2192H55.256V13.5648C55.256 11.9519 55.2685 10.6266 55.2936 10.6266C55.3061 10.6266 56.6439 11.9519 58.2568 13.5648ZM22.3107 38.1831C24.8113 38.3832 27.6245 39.6585 29.7125 41.5589C31.3879 43.0843 32.9007 45.6099 33.5259 47.8854C33.7759 48.7981 33.8134 49.2483 33.8134 51.1362C33.8134 53.6868 33.6134 54.6495 32.6757 56.625C31.3504 59.4257 29.2249 61.5637 26.4367 62.9015C20.6978 65.6396 13.9337 63.8392 10.1828 58.5755C9.43266 57.5377 8.58246 55.6998 8.21987 54.387C7.96981 53.4618 7.9323 53.0367 7.9323 51.1362C7.9323 48.5981 8.13235 47.6354 9.04507 45.6849C9.78274 44.1345 10.4829 43.1343 11.6707 41.934C13.8837 39.7335 16.7219 38.3957 19.7226 38.1456C20.3227 38.0956 20.9479 38.0706 21.1229 38.0831C21.298 38.1081 21.8356 38.1456 22.3107 38.1831Z" fill="#0D313B"/>
<path d="M22.3107 38.1831C24.8113 38.3832 27.6245 39.6585 29.7125 41.5589C31.3879 43.0843 32.9007 45.6099 33.5259 47.8854C33.7759 48.7981 33.8134 49.2483 33.8134 51.1362C33.8134 53.6868 33.6134 54.6495 32.6757 56.625C31.3504 59.4257 29.2249 61.5637 26.4367 62.9015C20.6978 65.6396 13.9337 63.8392 10.1828 58.5755C9.43266 57.5377 8.58246 55.6998 8.21987 54.387C7.96981 53.4618 7.9323 53.0367 7.9323 51.1362C7.9323 48.5981 8.13235 47.6354 9.04507 45.6849C9.78274 44.1345 10.4829 43.1343 11.6707 41.934C13.8837 39.7335 16.7219 38.3957 19.7226 38.1456C20.3227 38.0956 20.9479 38.0706 21.1229 38.0831C21.298 38.1081 21.8356 38.1456 22.3107 38.1831Z" fill="#2894B4"/>
<path d="M58.2568 13.5648L61.195 16.503H58.2192H55.256V13.5648C55.256 11.9519 55.2685 10.6266 55.2936 10.6266C55.3061 10.6266 56.6439 11.9519 58.2568 13.5648Z" fill="#68D4F4"/>
<path d="M58.2568 13.5648L58.08 13.7416L58.08 13.7416L58.2568 13.5648ZM61.195 16.503L61.3717 16.3262L61.7985 16.753H61.195V16.503ZM55.256 16.503V16.753H55.006V16.503H55.256ZM22.3107 38.1831L22.3304 37.9339L22.3307 37.9339L22.3107 38.1831ZM29.7125 41.5589L29.8808 41.374L29.8808 41.3741L29.7125 41.5589ZM33.5259 47.8854L33.7669 47.8192L33.767 47.8194L33.5259 47.8854ZM32.6757 56.625L32.4497 56.5181L32.4498 56.5178L32.6757 56.625ZM26.4367 62.9015L26.5448 63.1269L26.5444 63.1271L26.4367 62.9015ZM10.1828 58.5755L10.3854 58.429L10.3864 58.4304L10.1828 58.5755ZM8.21987 54.387L7.97889 54.4535L7.97853 54.4522L8.21987 54.387ZM9.04507 45.6849L8.81863 45.5789L8.81932 45.5775L9.04507 45.6849ZM11.6707 41.934L11.493 41.7582L11.4944 41.7567L11.6707 41.934ZM19.7226 38.1456L19.7018 37.8965L19.7226 38.1456ZM21.1229 38.0831L21.1407 37.8337L21.1496 37.8344L21.1583 37.8356L21.1229 38.0831ZM58.4335 13.388L61.3717 16.3262L61.0182 16.6797L58.08 13.7416L58.4335 13.388ZM61.195 16.753H58.2192V16.253H61.195V16.753ZM58.2192 16.753H55.256V16.253H58.2192V16.753ZM55.006 16.503V13.5648H55.506V16.503H55.006ZM55.006 13.5648C55.006 12.7579 55.0092 12.0222 55.0154 11.4879C55.0186 11.221 55.0225 11.003 55.0273 10.851C55.0296 10.7756 55.0323 10.7136 55.0354 10.6694C55.0368 10.6482 55.0387 10.6256 55.0416 10.606C55.0428 10.5979 55.0455 10.5797 55.0515 10.5595C55.054 10.5512 55.0614 10.5267 55.0778 10.4992C55.083 10.4905 55.148 10.3766 55.2936 10.3766V10.8766C55.4383 10.8766 55.5025 10.7633 55.507 10.7559C55.5226 10.7297 55.5293 10.7071 55.531 10.7014C55.5336 10.6925 55.535 10.6858 55.5355 10.6832C55.5361 10.68 55.5364 10.6781 55.5364 10.6777C55.5365 10.6772 55.5362 10.6791 55.5357 10.6842C55.5353 10.6891 55.5347 10.6956 55.5342 10.704C55.5318 10.7385 55.5293 10.7927 55.527 10.8667C55.5224 11.0136 55.5185 11.2277 55.5154 11.4938C55.5092 12.0253 55.506 12.7588 55.506 13.5648H55.006ZM55.2936 10.3766C55.3496 10.3766 55.3905 10.396 55.3968 10.3989C55.4109 10.4052 55.4213 10.4115 55.4263 10.4146C55.4366 10.4211 55.4443 10.4269 55.4473 10.4292C55.4541 10.4344 55.4598 10.4393 55.4624 10.4416C55.4686 10.447 55.4753 10.4531 55.4813 10.4586C55.4938 10.4703 55.5109 10.4866 55.5317 10.5065C55.5735 10.5468 55.6337 10.6055 55.7101 10.6804C55.8629 10.8303 56.0821 11.0467 56.351 11.3133C56.889 11.8465 57.6269 12.5814 58.4335 13.388L58.08 13.7416C57.2737 12.9353 56.5363 12.201 55.999 11.6684C55.7303 11.402 55.5119 11.1863 55.36 11.0373C55.2839 10.9628 55.225 10.9054 55.185 10.8668C55.1648 10.8474 55.1503 10.8336 55.1411 10.8251C55.1362 10.8205 55.1344 10.819 55.1347 10.8193C55.135 10.8195 55.1357 10.8201 55.1368 10.821C55.1378 10.8218 55.1399 10.8236 55.1429 10.8259C55.145 10.8275 55.1521 10.8329 55.1619 10.839C55.1666 10.8419 55.1768 10.8481 55.1907 10.8544C55.1968 10.8572 55.2376 10.8766 55.2936 10.8766V10.3766ZM22.3307 37.9339C24.8927 38.1389 27.7567 39.4407 29.8808 41.374L29.5442 41.7438C27.4923 39.8762 24.73 38.6275 22.2908 38.4323L22.3307 37.9339ZM29.8808 41.3741C31.5933 42.9332 33.1301 45.5009 33.7669 47.8192L33.2848 47.9517C32.6714 45.7189 31.1824 43.2353 29.5442 41.7438L29.8808 41.3741ZM33.767 47.8194C34.0263 48.766 34.0634 49.2441 34.0634 51.1362H33.5634C33.5634 49.2524 33.5255 48.8303 33.2848 47.9515L33.767 47.8194ZM34.0634 51.1362C34.0634 52.4158 34.0136 53.3149 33.841 54.147C33.6679 54.9816 33.3741 55.7367 32.9015 56.7322L32.4498 56.5178C32.915 55.5379 33.19 54.8239 33.3514 54.0455C33.5133 53.2648 33.5634 52.4072 33.5634 51.1362H34.0634ZM32.9017 56.7319C31.5519 59.5843 29.3848 61.7642 26.5448 63.1269L26.3285 62.6761C29.0649 61.3631 31.1489 59.267 32.4497 56.5181L32.9017 56.7319ZM26.5444 63.1271C20.6932 65.9188 13.7988 64.0807 9.97924 58.7205L10.3864 58.4304C14.0686 63.5977 20.7024 65.3605 26.329 62.6759L26.5444 63.1271ZM9.98023 58.7219C9.2105 57.6571 8.34839 55.7914 7.97889 54.4535L8.46085 54.3204C8.81652 55.6082 9.65482 57.4183 10.3854 58.429L9.98023 58.7219ZM7.97853 54.4522C7.71952 53.4939 7.6823 53.0415 7.6823 51.1362H8.1823C8.1823 53.0318 8.2201 53.4297 8.46121 54.3217L7.97853 54.4522ZM7.6823 51.1362C7.6823 49.8627 7.73221 48.9671 7.90149 48.1401C8.07126 47.3106 8.35861 46.562 8.81863 45.5789L9.2715 45.7909C8.8188 46.7583 8.54977 47.4663 8.39134 48.2403C8.23242 49.0167 8.1823 49.8716 8.1823 51.1362H7.6823ZM8.81932 45.5775C9.56885 44.0022 10.2851 42.9787 11.493 41.7582L11.8484 42.1099C10.6807 43.2899 9.99663 44.2669 9.27081 45.7923L8.81932 45.5775ZM11.4944 41.7567C13.7474 39.5165 16.64 38.1516 19.7018 37.8965L19.7434 38.3947C16.8038 38.6397 14.02 39.9505 11.847 42.1113L11.4944 41.7567ZM19.7018 37.8965C20.2994 37.8467 20.9434 37.8196 21.1407 37.8337L21.1051 38.3325C20.9524 38.3216 20.3461 38.3445 19.7434 38.3947L19.7018 37.8965ZM21.1583 37.8356C21.3229 37.8591 21.8453 37.8956 22.3304 37.9339L22.291 38.4323C21.8259 38.3956 21.273 38.3571 21.0876 38.3306L21.1583 37.8356ZM22.7608 4.25006L22.9324 4.71969L22.932 4.71984L22.7608 4.25006ZM19.46 7.23827L19.0101 7.02013L19.0113 7.01776L19.46 7.23827ZM19.0599 8.06347L18.56 8.06109L18.5605 7.94752L18.61 7.84533L19.0599 8.06347ZM18.9974 21.1916L19.4974 21.194L19.4974 21.194L18.9974 21.1916ZM18.9349 34.3072L19.4349 34.3096L19.4329 34.7361L19.0114 34.8013L18.9349 34.3072ZM17.8847 34.4697L17.8064 33.9759L17.8082 33.9756L17.8847 34.4697ZM13.3461 35.9576L13.5715 36.4039L13.5697 36.4048L13.3461 35.9576ZM4.19391 48.198L3.70118 48.113L3.7012 48.1129L4.19391 48.198ZM4.18141 54.0119L3.68795 54.0925L3.68789 54.0921L4.18141 54.0119ZM18.0722 67.8277L18.1494 67.3337L18.1516 67.334L18.0722 67.8277ZM41.5028 67.9902L41.5036 68.4902L41.5034 68.4902L41.5028 67.9902ZM63.6955 67.9527L63.914 68.4025L63.8109 68.4525L63.6964 68.4527L63.6955 67.9527ZM64.5708 67.5276L64.7904 67.9767L64.7892 67.9773L64.5708 67.5276ZM67.2714 64.827L67.7212 65.0454L67.7205 65.0466L67.2714 64.827ZM67.6965 63.9517L68.1965 63.9526L68.1963 64.0671L68.1463 64.1702L67.6965 63.9517ZM67.734 40.9463L68.234 40.9468L68.234 40.9471L67.734 40.9463ZM67.6965 17.6282L68.1793 17.4983L68.1827 17.5108L68.1854 17.5235L67.6965 17.6282ZM54.5809 4.36259L54.2835 4.76456L54.2825 4.76382L54.5809 4.36259ZM54.0933 4V3.5H54.2588L54.3916 3.59877L54.0933 4ZM38.7646 4L38.7642 3.5H38.7646V4ZM51.7427 19.4287L51.3267 19.706L51.7427 19.4287ZM52.3303 20.0163L52.053 20.4323L52.053 20.4323L52.3303 20.0163ZM64.0081 20.2539V19.7539H64.5087L64.5081 20.2544L64.0081 20.2539ZM63.9831 41.5339L64.4831 41.5345L64.4831 41.5348L63.9831 41.5339ZM63.9456 62.8265L64.4456 62.8274L64.4454 62.971L64.3689 63.0926L63.9456 62.8265ZM63.6705 63.2641L64.0939 63.5302L64.0933 63.5311L63.6705 63.2641ZM62.9829 63.9517L62.7179 63.5277L62.7222 63.5251L62.9829 63.9517ZM47.1041 64.2393L47.1053 64.7393L47.1049 64.7393L47.1041 64.2393ZM31.6504 64.2643L31.6512 64.7643L30.4079 64.7663L31.3037 63.9041L31.6504 64.2643ZM32.6507 63.3016L32.9996 63.6597L32.9974 63.6618L32.6507 63.3016ZM37.4393 54.612L36.9482 54.5181L36.9486 54.516L37.4393 54.612ZM37.7019 53.2867L38.1938 53.3762L38.1917 53.3877L38.1891 53.3991L37.7019 53.2867ZM37.7519 53.0116L37.2599 52.9222L37.3346 52.5116H37.7519V53.0116ZM58.1817 52.7741L58.4612 53.1888L58.4521 53.1947L58.1817 52.7741ZM58.2443 49.5358L57.9536 49.9427L57.9502 49.9402L58.2443 49.5358ZM47.8293 49.2608L47.8324 48.7608L47.8327 48.7608L47.8293 49.2608ZM37.7019 49.1982L37.6988 49.6982L37.2761 49.6956L37.2083 49.2784L37.7019 49.1982ZM37.5393 48.198L38.0327 48.1169L38.0329 48.1178L37.5393 48.198ZM35.3763 42.3716L34.9508 42.6342L34.9499 42.6327L35.3763 42.3716ZM35.0012 41.759L34.5748 42.02L34.1088 41.259H35.0012V41.759ZM58.1817 41.5214L58.4612 41.9361L58.4521 41.942L58.1817 41.5214ZM58.1817 38.2456L58.4522 37.8249L58.4612 37.831L58.1817 38.2456ZM31.6379 38.0081V38.5081H31.4773L31.3468 38.4146L31.6379 38.0081ZM30.7127 37.3454L30.4216 37.7519L30.4204 37.751L30.7127 37.3454ZM23.8611 34.4697L23.9376 33.9756L23.9378 33.9757L23.8611 34.4697ZM22.8108 34.3072L22.7344 34.8013L22.3108 34.7358V34.3072H22.8108ZM22.8108 9.18874H22.3108V9.04465L22.3875 8.92265L22.8108 9.18874ZM23.0859 8.75113L23.5117 9.01319L23.5092 9.01721L23.0859 8.75113ZM24.3112 7.86342L24.1925 7.3777L24.1967 7.37671L24.3112 7.86342ZM38.102 7.7634L38.1011 7.2634L38.1015 7.2634L38.102 7.7634ZM51.5051 7.75089L51.5047 7.25089L52.0051 7.25043V7.75089H51.5051ZM22.932 4.71984C21.58 5.21254 20.5655 6.12222 19.9088 7.45878L19.0113 7.01776C19.7799 5.45363 20.991 4.36284 22.5896 3.78028L22.932 4.71984ZM19.9099 7.45641L19.5099 8.2816L18.61 7.84533L19.0101 7.02013L19.9099 7.45641ZM19.5599 8.06585L19.4974 21.194L18.4974 21.1892L18.56 8.06109L19.5599 8.06585ZM19.4974 21.194L19.4349 34.3096L18.4349 34.3048L18.4974 21.1892L19.4974 21.194ZM19.0114 34.8013L17.9611 34.9639L17.8082 33.9756L18.8584 33.8131L19.0114 34.8013ZM17.9629 34.9636C16.7533 35.1552 14.7899 35.7887 13.5715 36.4039L13.1207 35.5113C14.4279 34.8512 16.4904 34.1844 17.8064 33.9759L17.9629 34.9636ZM13.5697 36.4048C8.93354 38.7229 5.55938 43.2283 4.68662 48.2831L3.7012 48.1129C4.62887 42.7402 8.20636 37.9684 13.1225 35.5104L13.5697 36.4048ZM4.68664 48.283C4.44622 49.6774 4.43356 52.4472 4.67493 53.9316L3.68789 54.0921C3.42914 52.5008 3.44149 49.6193 3.70118 48.113L4.68664 48.283ZM4.67487 53.9313C5.77792 60.6829 11.3995 66.2794 18.1494 67.3337L17.995 68.3217C10.8166 67.2004 4.86044 61.2692 3.68795 54.0925L4.67487 53.9313ZM18.1516 67.334C18.6487 67.414 19.5658 67.462 22.8564 67.484C26.1281 67.5058 31.7114 67.5027 41.5021 67.4902L41.5034 68.4902C31.7145 68.5027 26.1264 68.5058 22.8497 68.4839C19.5919 68.4622 18.5835 68.4164 17.9928 68.3213L18.1516 67.334ZM41.5019 67.4902L63.6947 67.4527L63.6964 68.4527L41.5036 68.4902L41.5019 67.4902ZM63.4771 67.5029L64.3523 67.0778L64.7892 67.9773L63.914 68.4025L63.4771 67.5029ZM64.3511 67.0784C65.4015 66.5647 66.3085 65.6577 66.8222 64.6073L67.7205 65.0466C67.1091 66.2968 66.0406 67.3653 64.7904 67.9767L64.3511 67.0784ZM66.8216 64.6085L67.2467 63.7333L68.1463 64.1702L67.7212 65.0454L66.8216 64.6085ZM67.1965 63.9509L67.234 40.9455L68.234 40.9471L68.1965 63.9526L67.1965 63.9509ZM67.234 40.9458C67.2403 34.6195 67.2403 28.8342 67.234 24.6088C67.2309 22.4959 67.2262 20.7736 67.2199 19.5688C67.2168 18.9662 67.2133 18.494 67.2094 18.1674C67.2075 18.0039 67.2055 17.8784 67.2034 17.7919C67.2023 17.7484 67.2013 17.7171 67.2004 17.6967C67.1984 17.6518 67.1978 17.6874 67.2076 17.733L68.1854 17.5235C68.1975 17.58 68.1992 17.6467 68.1995 17.6525C68.2008 17.6829 68.202 17.722 68.2031 17.768C68.2053 17.8605 68.2074 17.9908 68.2094 18.1555C68.2133 18.4855 68.2168 18.9604 68.2199 19.5636C68.2262 20.7703 68.2309 22.4941 68.234 24.6073C68.2403 28.8338 68.2403 34.62 68.234 40.9468L67.234 40.9458ZM67.2137 17.7582C67.2277 17.8101 67.2469 17.846 67.2518 17.855C67.2592 17.8689 67.2651 17.8778 67.2666 17.8801C67.2695 17.8846 67.2684 17.8824 67.2593 17.8707C67.242 17.8485 67.2122 17.8126 67.1675 17.7612C67.0791 17.6595 66.9484 17.5154 66.7788 17.3328C66.4406 16.9684 65.9591 16.4626 65.3786 15.8602C64.2182 14.6561 62.6686 13.073 61.0925 11.4782C59.5164 9.88335 57.9152 8.27824 56.6516 7.03021C56.0196 6.40602 55.4733 5.87237 55.0573 5.47441C54.6278 5.06355 54.3659 4.82547 54.2835 4.76456L54.8782 3.96061C55.0241 4.06849 55.3404 4.3614 55.7485 4.7518C56.1701 5.15511 56.7208 5.69301 57.3543 6.31872C58.6217 7.5705 60.226 9.17865 61.8038 10.7752C63.3816 12.3718 64.9343 13.9581 66.0986 15.1663C66.6805 15.7701 67.1671 16.2812 67.5117 16.6524C67.6835 16.8376 67.823 16.991 67.9221 17.1051C67.9712 17.1615 68.0145 17.213 68.0482 17.2563C68.0647 17.2774 68.0835 17.3025 68.1008 17.3286C68.1062 17.3368 68.1544 17.4059 68.1793 17.4983L67.2137 17.7582ZM54.2825 4.76382L53.7949 4.40123L54.3916 3.59877L54.8792 3.96136L54.2825 4.76382ZM54.0933 4.5H38.7646V3.5H54.0933V4.5ZM38.765 4.5C31.3544 4.50625 27.5211 4.50939 25.4581 4.54058C23.3664 4.5722 23.1622 4.63575 22.9324 4.71969L22.5892 3.78043C23.0096 3.62682 23.3993 3.57159 25.443 3.54069C27.5153 3.50936 31.3588 3.50625 38.7642 3.5L38.765 4.5ZM52.0051 13.4022C52.0051 16.0774 52.0084 17.4867 52.0391 18.2713C52.0706 19.0728 52.1325 19.112 52.1587 19.1513L51.3267 19.706C51.1279 19.4078 51.071 19.1032 51.0399 18.3105C51.0082 17.501 51.0051 16.0659 51.0051 13.4022H52.0051ZM52.1587 19.1513C52.2471 19.2839 52.4751 19.5119 52.6077 19.6003L52.053 20.4323C51.8105 20.2707 51.4883 19.9485 51.3267 19.706L52.1587 19.1513ZM52.6077 19.6003C52.647 19.6265 52.6863 19.6884 53.4877 19.7199C54.2723 19.7506 55.6817 19.7539 58.3568 19.7539V20.7539C55.6931 20.7539 54.258 20.7508 53.4485 20.7191C52.6559 20.688 52.3512 20.6311 52.053 20.4323L52.6077 19.6003ZM58.3568 19.7539H64.0081V20.7539H58.3568V19.7539ZM64.5081 20.2544L64.4831 41.5345L63.4831 41.5333L63.5081 20.2533L64.5081 20.2544ZM64.4831 41.5348L64.4456 62.8274L63.4456 62.8256L63.4831 41.533L64.4831 41.5348ZM64.3689 63.0926L64.0939 63.5302L63.2472 62.998L63.5223 62.5604L64.3689 63.0926ZM64.0933 63.5311C63.905 63.8292 63.5385 64.1982 63.2436 64.3784L62.7222 63.5251C62.8774 63.4302 63.136 63.174 63.2478 62.9971L64.0933 63.5311ZM63.2479 64.3757C63.1803 64.418 63.0927 64.4689 62.9619 64.5107C62.8422 64.5489 62.7032 64.5742 62.5285 64.5938C62.1831 64.6325 61.6145 64.6572 60.6084 64.6752C58.5858 64.7112 54.7105 64.7206 47.1053 64.7393L47.1029 63.7393C54.7138 63.7206 58.5779 63.7112 60.5906 63.6753C61.6021 63.6573 62.1252 63.6328 62.417 63.6C62.561 63.5839 62.627 63.5679 62.6577 63.558C62.6773 63.5518 62.6854 63.548 62.7179 63.5277L63.2479 64.3757ZM47.1049 64.7393L31.6512 64.7643L31.6496 63.7643L47.1033 63.7393L47.1049 64.7393ZM31.3037 63.9041L32.3039 62.9413L32.9974 63.6618L31.9972 64.6246L31.3037 63.9041ZM32.3018 62.9435C34.6593 60.6467 36.3686 57.5488 36.9482 54.5181L37.9304 54.7059C37.3097 57.9517 35.4932 61.2304 32.9996 63.6597L32.3018 62.9435ZM36.9486 54.516C37.0591 53.9513 37.1747 53.3477 37.2147 53.1743L38.1891 53.3991C38.1541 53.5508 38.0446 54.1224 37.93 54.708L36.9486 54.516ZM37.2099 53.1973L37.2599 52.9222L38.2438 53.1011L38.1938 53.3762L37.2099 53.1973ZM37.7519 52.5116H47.7918V53.5116H37.7519V52.5116ZM47.7918 52.5116C52.6027 52.5116 55.105 52.5085 56.4495 52.4774C57.1262 52.4617 57.4867 52.4393 57.6948 52.4108C57.879 52.3855 57.8981 52.362 57.9114 52.3535L58.4521 53.1947C58.2904 53.2987 58.125 53.3611 57.8306 53.4015C57.56 53.4386 57.1478 53.4615 56.4726 53.4771C55.1133 53.5086 52.5956 53.5116 47.7918 53.5116V52.5116ZM57.9023 52.3595C58.1372 52.2012 58.2772 52.0451 58.3644 51.8737C58.453 51.6996 58.5069 51.4706 58.5069 51.1362H59.5069C59.5069 51.5769 59.4358 51.9731 59.2556 52.3273C59.074 52.6841 58.8014 52.9594 58.4612 53.1887L57.9023 52.3595ZM58.5069 51.1362C58.5069 50.8206 58.4561 50.5926 58.3716 50.4161C58.2886 50.2429 58.1589 50.0893 57.9536 49.9427L58.5349 49.129C58.8548 49.3574 59.1063 49.6352 59.2734 49.984C59.439 50.3295 59.5069 50.7141 59.5069 51.1362H58.5069ZM57.9502 49.9402C57.9943 49.9723 58.0011 49.9432 57.7439 49.9141C57.5006 49.8865 57.0933 49.8645 56.3858 49.8466C54.9774 49.8108 52.4487 49.792 47.8259 49.7607L47.8327 48.7608C52.4496 48.792 54.9908 48.8108 56.4112 48.8469C57.1181 48.8648 57.5649 48.8874 57.8565 48.9204C58.1342 48.9519 58.3567 48.9993 58.5383 49.1315L57.9502 49.9402ZM47.8262 49.7607L37.6988 49.6982L37.705 48.6982L47.8324 48.7608L47.8262 49.7607ZM37.2083 49.2784L37.0458 48.2782L38.0329 48.1178L38.1954 49.118L37.2083 49.2784ZM37.046 48.2791C36.7437 46.4413 35.9034 44.1776 34.9508 42.6342L35.8018 42.109C36.8247 43.7664 37.7098 46.1538 38.0327 48.1169L37.046 48.2791ZM34.9499 42.6327L34.5748 42.02L35.4277 41.4979L35.8027 42.1105L34.9499 42.6327ZM35.0012 41.259H46.4164V42.259H35.0012V41.259ZM46.4164 41.259C51.9022 41.259 54.7491 41.2558 56.2695 41.2247C57.0342 41.209 57.4419 41.1865 57.6757 41.1573C57.8883 41.1308 57.9044 41.1053 57.9114 41.1008L58.4521 41.942C58.284 42.0501 58.1125 42.1105 57.7997 42.1496C57.5079 42.1861 57.0522 42.2089 56.29 42.2245C54.7565 42.2559 51.8958 42.259 46.4164 42.259V41.259ZM57.9023 41.1068C58.1372 40.9485 58.2772 40.7924 58.3644 40.6211C58.453 40.4469 58.5069 40.218 58.5069 39.8835H59.5069C59.5069 40.3243 59.4358 40.7204 59.2556 41.0746C59.074 41.4315 58.8014 41.7067 58.4612 41.936L57.9023 41.1068ZM58.5069 39.8835C58.5069 39.5491 58.453 39.3201 58.3644 39.146C58.2772 38.9746 58.1372 38.8185 57.9023 38.6603L58.4612 37.831C58.8014 38.0603 59.074 38.3356 59.2556 38.6925C59.4358 39.0466 59.5069 39.4428 59.5069 39.8835H58.5069ZM57.9114 38.6662C57.8976 38.6574 57.8932 38.6547 57.8742 38.6489C57.8444 38.6398 57.7815 38.6252 57.6502 38.6104C57.3846 38.5806 56.9186 38.558 56.0457 38.5424C54.3088 38.5112 51.0391 38.5081 44.7285 38.5081V37.5081C51.0335 37.5081 54.3153 37.5112 56.0636 37.5425C56.9333 37.5581 57.4434 37.5809 57.7619 37.6167C58.0972 37.6544 58.2767 37.7123 58.4521 37.825L57.9114 38.6662ZM44.7285 38.5081H31.6379V37.5081H44.7285V38.5081ZM31.3468 38.4146L30.4216 37.7519L31.0038 36.9389L31.9291 37.6016L31.3468 38.4146ZM30.4204 37.751C28.5544 36.4061 25.8769 35.2885 23.7844 34.9638L23.9378 33.9757C26.1963 34.3261 29.0201 35.5091 31.0051 36.9398L30.4204 37.751ZM23.7846 34.9639L22.7344 34.8013L22.8873 33.8131L23.9376 33.9756L23.7846 34.9639ZM22.3108 34.3072V21.7542H23.3108V34.3072H22.3108ZM22.3108 21.7542V9.18874H23.3108V21.7542H22.3108ZM22.3875 8.92265L22.6626 8.48505L23.5092 9.01721L23.2342 9.45482L22.3875 8.92265ZM22.6601 8.48908C23.03 7.88787 23.5038 7.54606 24.1925 7.37772L24.4299 8.34912C23.9933 8.45584 23.7419 8.63916 23.5117 9.01318L22.6601 8.48908ZM24.1967 7.37671C24.2441 7.36555 24.2916 7.3618 24.3064 7.36054C24.3324 7.35835 24.3624 7.35649 24.3944 7.35485C24.4589 7.35154 24.5444 7.34844 24.648 7.34548C24.8557 7.33954 25.1469 7.33389 25.5109 7.3285C26.2394 7.31773 27.2666 7.30795 28.5166 7.29935C31.0168 7.28215 34.4123 7.26965 38.1011 7.2634L38.1028 8.2634C34.4149 8.26965 31.0213 8.28215 28.5234 8.29933C27.2743 8.30792 26.2503 8.31768 25.5257 8.3284C25.1631 8.33376 24.8774 8.33933 24.6765 8.34507C24.5757 8.34795 24.499 8.3508 24.4457 8.35353C24.4188 8.35492 24.401 8.35611 24.3906 8.35699C24.3691 8.35881 24.3916 8.35816 24.4257 8.35013L24.1967 7.37671ZM38.1015 7.2634L51.5047 7.25089L51.5056 8.25089L38.1024 8.2634L38.1015 7.2634ZM52.0051 7.75089V13.4022H51.0051V7.75089H52.0051Z" fill="#0D313B" mask="url(#path-1-outside-1_6242_46194)"/>
<mask id="path-3-outside-2_6242_46194" maskUnits="userSpaceOnUse" x="26.7495" y="25.5063" width="33" height="6" fill="black">
<rect fill="white" x="26.7495" y="25.5063" width="33" height="6"/>
<path d="M28.5747 26.993C27.9996 27.3806 27.7495 27.8557 27.7495 28.6309C27.7495 29.4061 27.9996 29.8812 28.5747 30.2688C28.9248 30.4938 29.4374 30.5063 43.3782 30.5063C57.319 30.5063 57.8317 30.4938 58.1817 30.2688C58.7569 29.8812 59.0069 29.4061 59.0069 28.6309C59.0069 27.8557 58.7569 27.3806 58.1817 26.993C57.8317 26.768 57.319 26.7555 43.3782 26.7555C29.4374 26.7555 28.9248 26.768 28.5747 26.993Z"/>
</mask>
<path d="M28.5747 26.993C27.9996 27.3806 27.7495 27.8557 27.7495 28.6309C27.7495 29.4061 27.9996 29.8812 28.5747 30.2688C28.9248 30.4938 29.4374 30.5063 43.3782 30.5063C57.319 30.5063 57.8317 30.4938 58.1817 30.2688C58.7569 29.8812 59.0069 29.4061 59.0069 28.6309C59.0069 27.8557 58.7569 27.3806 58.1817 26.993C57.8317 26.768 57.319 26.7555 43.3782 26.7555C29.4374 26.7555 28.9248 26.768 28.5747 26.993Z" fill="#0D313B"/>
<path d="M28.5747 26.993C27.9996 27.3806 27.7495 27.8557 27.7495 28.6309C27.7495 29.4061 27.9996 29.8812 28.5747 30.2688C28.9248 30.4938 29.4374 30.5063 43.3782 30.5063C57.319 30.5063 57.8317 30.4938 58.1817 30.2688C58.7569 29.8812 59.0069 29.4061 59.0069 28.6309C59.0069 27.8557 58.7569 27.3806 58.1817 26.993C57.8317 26.768 57.319 26.7555 43.3782 26.7555C29.4374 26.7555 28.9248 26.768 28.5747 26.993Z" stroke="#0D313B" mask="url(#path-3-outside-2_6242_46194)"/>
<mask id="path-4-outside-3_6242_46194" maskUnits="userSpaceOnUse" x="11.6208" y="44.3877" width="18" height="15" fill="black">
<rect fill="white" x="11.6208" y="44.3877" width="18" height="15"/>
<path d="M25.999 46.0848C25.824 46.1973 24.0111 47.9602 21.9731 49.9982L18.2472 53.6991L17.0344 52.4988C15.4715 50.9609 15.3465 50.8859 14.4963 50.8859C13.296 50.8859 12.6208 51.5611 12.6208 52.7739C12.6208 53.349 12.6834 53.5615 12.9834 53.9616C13.4085 54.5243 16.7843 57.8751 17.2469 58.1876C17.4345 58.3127 17.8096 58.3877 18.2597 58.3877C18.8348 58.3877 19.0474 58.3252 19.4475 58.0251C20.0226 57.6 28.3746 49.2105 28.6747 48.7604C28.7997 48.5729 28.8747 48.1978 28.8747 47.7602C28.8747 46.985 28.6247 46.5099 28.0495 46.1223C27.5869 45.8222 26.4366 45.7972 25.999 46.0848Z"/>
</mask>
<path d="M25.999 46.0848C25.824 46.1973 24.0111 47.9602 21.9731 49.9982L18.2472 53.6991L17.0344 52.4988C15.4715 50.9609 15.3465 50.8859 14.4963 50.8859C13.296 50.8859 12.6208 51.5611 12.6208 52.7739C12.6208 53.349 12.6834 53.5615 12.9834 53.9616C13.4085 54.5243 16.7843 57.8751 17.2469 58.1876C17.4345 58.3127 17.8096 58.3877 18.2597 58.3877C18.8348 58.3877 19.0474 58.3252 19.4475 58.0251C20.0226 57.6 28.3746 49.2105 28.6747 48.7604C28.7997 48.5729 28.8747 48.1978 28.8747 47.7602C28.8747 46.985 28.6247 46.5099 28.0495 46.1223C27.5869 45.8222 26.4366 45.7972 25.999 46.0848Z" fill="#0D313B"/>
<path d="M25.999 46.0848C25.824 46.1973 24.0111 47.9602 21.9731 49.9982L18.2472 53.6991L17.0344 52.4988C15.4715 50.9609 15.3465 50.8859 14.4963 50.8859C13.296 50.8859 12.6208 51.5611 12.6208 52.7739C12.6208 53.349 12.6834 53.5615 12.9834 53.9616C13.4085 54.5243 16.7843 57.8751 17.2469 58.1876C17.4345 58.3127 17.8096 58.3877 18.2597 58.3877C18.8348 58.3877 19.0474 58.3252 19.4475 58.0251C20.0226 57.6 28.3746 49.2105 28.6747 48.7604C28.7997 48.5729 28.8747 48.1978 28.8747 47.7602C28.8747 46.985 28.6247 46.5099 28.0495 46.1223C27.5869 45.8222 26.4366 45.7972 25.999 46.0848Z" stroke="#0D313B" mask="url(#path-4-outside-3_6242_46194)"/>
</svg>
