<svg width="72" height="72" viewBox="0 0 72 72" fill="none" xmlns="http://www.w3.org/2000/svg">
<path d="M5 36H8.5L11 24.5L16 16L26.5 10L37 8L47.5 10L55 15L59.5 20.5L55 24.5L51.5 20.5L44 16L34 14L23 19L16 27.5L15 36L18 36.5L12 43.5L5 36Z" fill="#2894B4"/>
<path d="M16 47.5L13.5 51L20.5 59L29 62.5L40 63.5L51.5 59L61.5 47.5L64 36.5L67 35L60.5 28.5L54 35L57.5 36V38L54 47.5L44 56L31.5 57L20.5 51L16 47.5Z" fill="#2894B4"/>
<mask id="path-2-outside-1_6242_46185" maskUnits="userSpaceOnUse" x="3" y="5.3916" width="58" height="40" fill="black">
<rect fill="white" x="3" y="5.3916" width="58" height="40"/>
<path d="M33.369 7.07102C29.4698 7.48344 26.283 8.40825 22.8711 10.1454C15.4602 13.8946 9.99878 20.7557 8.01168 28.8166C7.62426 30.4038 7.24934 32.6908 7.24934 33.4781C7.24934 33.7156 7.21184 34.0905 7.17435 34.303C7.09937 34.6654 7.06187 34.6904 6.51199 34.6904C5.67466 34.6904 4.77484 35.1653 4.33743 35.8401C4.06249 36.2651 4 36.5025 4 37.1274C4.0125 37.6023 4.08748 38.0272 4.23745 38.3021C4.36243 38.5271 5.71215 39.9143 7.26183 41.389C9.79882 43.8135 10.1237 44.0885 10.7236 44.2634C11.4485 44.4759 12.0359 44.4259 12.6732 44.101C12.8857 43.9885 14.2854 42.7137 15.7976 41.264C18.822 38.3521 19.0719 38.0147 18.9719 36.9149C18.847 35.6652 17.7347 34.6904 16.4475 34.6904H15.8351L15.9101 33.7656C16.3225 28.9041 19.0719 23.6801 22.9086 20.4558C29.1074 15.2444 37.4682 14.1696 44.6792 17.6314C47.3037 18.8936 49.5157 20.6058 51.3778 22.8053C52.0027 23.5302 52.74 24.2925 53.0275 24.48C55.1021 25.8797 58.064 25.1423 59.2387 22.9303C59.5886 22.2804 59.6636 21.968 59.7136 21.1681C59.8136 19.3935 59.2512 18.3562 56.7517 15.7817C52.2027 11.0952 46.6413 8.23328 40.2426 7.25848C38.6679 7.02103 34.8437 6.92105 33.369 7.07102ZM39.9177 9.50803C44.7042 10.2579 49.3532 12.3449 52.965 15.3693C54.1523 16.3441 56.1144 18.3812 56.8642 19.3685C57.3891 20.0559 57.4266 20.1683 57.4266 20.8682C57.4266 21.7805 57.1142 22.3054 56.3643 22.6928C55.302 23.2302 54.4647 22.9178 53.3524 21.5681C47.4911 14.407 37.6806 11.5826 28.8699 14.5195C24.0834 16.1192 20.1217 19.1436 17.2973 23.3802C15.1727 26.5795 13.9605 30.0788 13.623 34.078C13.3856 36.6775 13.5605 36.9399 15.4477 36.9399C16.085 36.9399 16.6349 36.9899 16.6724 37.0524C16.7099 37.1149 15.5601 38.3021 14.1229 39.6894L11.4985 42.2138L10.8111 41.5765C8.84901 39.8018 6.24954 37.2274 6.24954 37.0899C6.24954 36.9774 6.56198 36.9399 7.37431 36.9399C8.58656 36.9399 9.02397 36.8149 9.22393 36.39C9.28642 36.2526 9.41139 35.2278 9.48638 34.128C9.8613 28.8291 11.586 24.105 14.6978 19.9434C18.9594 14.2071 25.6081 10.2954 32.5567 9.45803C33.1815 9.38305 33.8564 9.29557 34.0564 9.27057C34.8312 9.1581 38.7304 9.32056 39.9177 9.50803Z"/>
</mask>
<path d="M33.369 7.07102C29.4698 7.48344 26.283 8.40825 22.8711 10.1454C15.4602 13.8946 9.99878 20.7557 8.01168 28.8166C7.62426 30.4038 7.24934 32.6908 7.24934 33.4781C7.24934 33.7156 7.21184 34.0905 7.17435 34.303C7.09937 34.6654 7.06187 34.6904 6.51199 34.6904C5.67466 34.6904 4.77484 35.1653 4.33743 35.8401C4.06249 36.2651 4 36.5025 4 37.1274C4.0125 37.6023 4.08748 38.0272 4.23745 38.3021C4.36243 38.5271 5.71215 39.9143 7.26183 41.389C9.79882 43.8135 10.1237 44.0885 10.7236 44.2634C11.4485 44.4759 12.0359 44.4259 12.6732 44.101C12.8857 43.9885 14.2854 42.7137 15.7976 41.264C18.822 38.3521 19.0719 38.0147 18.9719 36.9149C18.847 35.6652 17.7347 34.6904 16.4475 34.6904H15.8351L15.9101 33.7656C16.3225 28.9041 19.0719 23.6801 22.9086 20.4558C29.1074 15.2444 37.4682 14.1696 44.6792 17.6314C47.3037 18.8936 49.5157 20.6058 51.3778 22.8053C52.0027 23.5302 52.74 24.2925 53.0275 24.48C55.1021 25.8797 58.064 25.1423 59.2387 22.9303C59.5886 22.2804 59.6636 21.968 59.7136 21.1681C59.8136 19.3935 59.2512 18.3562 56.7517 15.7817C52.2027 11.0952 46.6413 8.23328 40.2426 7.25848C38.6679 7.02103 34.8437 6.92105 33.369 7.07102ZM39.9177 9.50803C44.7042 10.2579 49.3532 12.3449 52.965 15.3693C54.1523 16.3441 56.1144 18.3812 56.8642 19.3685C57.3891 20.0559 57.4266 20.1683 57.4266 20.8682C57.4266 21.7805 57.1142 22.3054 56.3643 22.6928C55.302 23.2302 54.4647 22.9178 53.3524 21.5681C47.4911 14.407 37.6806 11.5826 28.8699 14.5195C24.0834 16.1192 20.1217 19.1436 17.2973 23.3802C15.1727 26.5795 13.9605 30.0788 13.623 34.078C13.3856 36.6775 13.5605 36.9399 15.4477 36.9399C16.085 36.9399 16.6349 36.9899 16.6724 37.0524C16.7099 37.1149 15.5601 38.3021 14.1229 39.6894L11.4985 42.2138L10.8111 41.5765C8.84901 39.8018 6.24954 37.2274 6.24954 37.0899C6.24954 36.9774 6.56198 36.9399 7.37431 36.9399C8.58656 36.9399 9.02397 36.8149 9.22393 36.39C9.28642 36.2526 9.41139 35.2278 9.48638 34.128C9.8613 28.8291 11.586 24.105 14.6978 19.9434C18.9594 14.2071 25.6081 10.2954 32.5567 9.45803C33.1815 9.38305 33.8564 9.29557 34.0564 9.27057C34.8312 9.1581 38.7304 9.32056 39.9177 9.50803Z" fill="#0D313B"/>
<path d="M33.369 7.07102C29.4698 7.48344 26.283 8.40825 22.8711 10.1454C15.4602 13.8946 9.99878 20.7557 8.01168 28.8166C7.62426 30.4038 7.24934 32.6908 7.24934 33.4781C7.24934 33.7156 7.21184 34.0905 7.17435 34.303C7.09937 34.6654 7.06187 34.6904 6.51199 34.6904C5.67466 34.6904 4.77484 35.1653 4.33743 35.8401C4.06249 36.2651 4 36.5025 4 37.1274C4.0125 37.6023 4.08748 38.0272 4.23745 38.3021C4.36243 38.5271 5.71215 39.9143 7.26183 41.389C9.79882 43.8135 10.1237 44.0885 10.7236 44.2634C11.4485 44.4759 12.0359 44.4259 12.6732 44.101C12.8857 43.9885 14.2854 42.7137 15.7976 41.264C18.822 38.3521 19.0719 38.0147 18.9719 36.9149C18.847 35.6652 17.7347 34.6904 16.4475 34.6904H15.8351L15.9101 33.7656C16.3225 28.9041 19.0719 23.6801 22.9086 20.4558C29.1074 15.2444 37.4682 14.1696 44.6792 17.6314C47.3037 18.8936 49.5157 20.6058 51.3778 22.8053C52.0027 23.5302 52.74 24.2925 53.0275 24.48C55.1021 25.8797 58.064 25.1423 59.2387 22.9303C59.5886 22.2804 59.6636 21.968 59.7136 21.1681C59.8136 19.3935 59.2512 18.3562 56.7517 15.7817C52.2027 11.0952 46.6413 8.23328 40.2426 7.25848C38.6679 7.02103 34.8437 6.92105 33.369 7.07102ZM39.9177 9.50803C44.7042 10.2579 49.3532 12.3449 52.965 15.3693C54.1523 16.3441 56.1144 18.3812 56.8642 19.3685C57.3891 20.0559 57.4266 20.1683 57.4266 20.8682C57.4266 21.7805 57.1142 22.3054 56.3643 22.6928C55.302 23.2302 54.4647 22.9178 53.3524 21.5681C47.4911 14.407 37.6806 11.5826 28.8699 14.5195C24.0834 16.1192 20.1217 19.1436 17.2973 23.3802C15.1727 26.5795 13.9605 30.0788 13.623 34.078C13.3856 36.6775 13.5605 36.9399 15.4477 36.9399C16.085 36.9399 16.6349 36.9899 16.6724 37.0524C16.7099 37.1149 15.5601 38.3021 14.1229 39.6894L11.4985 42.2138L10.8111 41.5765C8.84901 39.8018 6.24954 37.2274 6.24954 37.0899C6.24954 36.9774 6.56198 36.9399 7.37431 36.9399C8.58656 36.9399 9.02397 36.8149 9.22393 36.39C9.28642 36.2526 9.41139 35.2278 9.48638 34.128C9.8613 28.8291 11.586 24.105 14.6978 19.9434C18.9594 14.2071 25.6081 10.2954 32.5567 9.45803C33.1815 9.38305 33.8564 9.29557 34.0564 9.27057C34.8312 9.1581 38.7304 9.32056 39.9177 9.50803Z" stroke="#0D313B" stroke-width="1.4" mask="url(#path-2-outside-1_6242_46185)"/>
<mask id="path-3-outside-2_6242_46185" maskUnits="userSpaceOnUse" x="20.0107" y="19.7466" width="32" height="32" fill="black">
<rect fill="white" x="20.0107" y="19.7466" width="32" height="32"/>
<path d="M34.4935 20.8808C34.3935 20.9058 33.8811 20.9933 33.3687 21.0683C31.4441 21.3807 29.207 22.2805 27.4574 23.4678C26.4451 24.1426 24.308 26.2922 23.6207 27.3045C21.5961 30.3289 20.6963 33.9781 21.1087 37.5524C21.8585 43.9636 26.6076 49.1375 32.9938 50.5123C34.456 50.8247 37.5178 50.8247 38.9675 50.5123C44.9538 49.225 49.3904 44.7884 50.6902 38.7896C50.8526 38.0398 50.9151 37.215 50.9151 35.8153C50.9151 33.1158 50.5152 31.3162 49.3654 29.0541C48.5781 27.4795 47.9407 26.6171 46.566 25.2424C45.1663 23.8427 44.304 23.2178 42.6543 22.4055C40.5672 21.3682 38.8301 20.9433 36.3681 20.8808C35.4433 20.8558 34.5934 20.8558 34.4935 20.8808ZM37.9303 23.2553C40.5422 23.6802 42.7918 24.7925 44.7164 26.6171C46.6785 28.4793 47.9282 30.7413 48.5031 33.5032C48.7156 34.4655 48.7156 37.165 48.5031 38.1273C47.3908 43.4012 43.5791 47.2129 38.3052 48.3252C37.3179 48.5377 34.4935 48.5377 33.6186 48.3252C30.7317 47.6378 28.6322 46.4756 26.795 44.5385C23.0708 40.6143 22.2335 34.9654 24.6455 30.1289C27.1075 25.2174 32.5814 22.3805 37.9303 23.2553Z"/>
</mask>
<path d="M34.4935 20.8808C34.3935 20.9058 33.8811 20.9933 33.3687 21.0683C31.4441 21.3807 29.207 22.2805 27.4574 23.4678C26.4451 24.1426 24.308 26.2922 23.6207 27.3045C21.5961 30.3289 20.6963 33.9781 21.1087 37.5524C21.8585 43.9636 26.6076 49.1375 32.9938 50.5123C34.456 50.8247 37.5178 50.8247 38.9675 50.5123C44.9538 49.225 49.3904 44.7884 50.6902 38.7896C50.8526 38.0398 50.9151 37.215 50.9151 35.8153C50.9151 33.1158 50.5152 31.3162 49.3654 29.0541C48.5781 27.4795 47.9407 26.6171 46.566 25.2424C45.1663 23.8427 44.304 23.2178 42.6543 22.4055C40.5672 21.3682 38.8301 20.9433 36.3681 20.8808C35.4433 20.8558 34.5934 20.8558 34.4935 20.8808ZM37.9303 23.2553C40.5422 23.6802 42.7918 24.7925 44.7164 26.6171C46.6785 28.4793 47.9282 30.7413 48.5031 33.5032C48.7156 34.4655 48.7156 37.165 48.5031 38.1273C47.3908 43.4012 43.5791 47.2129 38.3052 48.3252C37.3179 48.5377 34.4935 48.5377 33.6186 48.3252C30.7317 47.6378 28.6322 46.4756 26.795 44.5385C23.0708 40.6143 22.2335 34.9654 24.6455 30.1289C27.1075 25.2174 32.5814 22.3805 37.9303 23.2553Z" fill="#0D313B"/>
<path d="M34.4935 20.8808C34.3935 20.9058 33.8811 20.9933 33.3687 21.0683C31.4441 21.3807 29.207 22.2805 27.4574 23.4678C26.4451 24.1426 24.308 26.2922 23.6207 27.3045C21.5961 30.3289 20.6963 33.9781 21.1087 37.5524C21.8585 43.9636 26.6076 49.1375 32.9938 50.5123C34.456 50.8247 37.5178 50.8247 38.9675 50.5123C44.9538 49.225 49.3904 44.7884 50.6902 38.7896C50.8526 38.0398 50.9151 37.215 50.9151 35.8153C50.9151 33.1158 50.5152 31.3162 49.3654 29.0541C48.5781 27.4795 47.9407 26.6171 46.566 25.2424C45.1663 23.8427 44.304 23.2178 42.6543 22.4055C40.5672 21.3682 38.8301 20.9433 36.3681 20.8808C35.4433 20.8558 34.5934 20.8558 34.4935 20.8808ZM37.9303 23.2553C40.5422 23.6802 42.7918 24.7925 44.7164 26.6171C46.6785 28.4793 47.9282 30.7413 48.5031 33.5032C48.7156 34.4655 48.7156 37.165 48.5031 38.1273C47.3908 43.4012 43.5791 47.2129 38.3052 48.3252C37.3179 48.5377 34.4935 48.5377 33.6186 48.3252C30.7317 47.6378 28.6322 46.4756 26.795 44.5385C23.0708 40.6143 22.2335 34.9654 24.6455 30.1289C27.1075 25.2174 32.5814 22.3805 37.9303 23.2553Z" stroke="#0D313B" stroke-width="1.4" mask="url(#path-3-outside-2_6242_46185)"/>
<mask id="path-4-outside-3_6242_46185" maskUnits="userSpaceOnUse" x="30.6816" y="25.438" width="11" height="21" fill="black">
<rect fill="white" x="30.6816" y="25.438" width="11" height="21"/>
<path d="M35.1813 26.5044C34.9189 26.7668 34.8689 26.9168 34.8689 27.6041V28.404L34.2565 28.6664C31.6195 29.7537 30.8447 33.328 32.7693 35.515C33.5066 36.3523 34.7939 36.9397 35.9186 36.9397C36.506 36.9397 37.2934 37.3521 37.6433 37.827C38.1932 38.5644 38.1557 39.5892 37.5308 40.3265C36.6435 41.3763 35.1563 41.2888 33.8441 40.0891C33.1692 39.4767 32.9318 39.4017 32.4069 39.5767C31.6445 39.8266 31.4571 40.6265 31.9695 41.4138C32.2819 41.8887 33.5316 42.7635 34.244 43.001L34.8689 43.2134V44.0133C34.8689 45.0381 35.1813 45.438 35.9936 45.438C36.806 45.438 37.1184 45.0381 37.1184 44.0258V43.2259L37.7308 42.9635C40.3677 41.8762 41.1426 38.3019 39.218 36.1149C38.4806 35.2776 37.1934 34.6902 36.0936 34.6902C35.5062 34.6902 34.7314 34.3153 34.3815 33.8654C33.3192 32.5156 34.3315 30.566 36.0936 30.566C36.681 30.566 37.7558 31.0909 38.1557 31.5658C38.5681 32.0532 38.9555 32.2282 39.4054 32.1407C40.2678 31.9657 40.5927 31.1534 40.1178 30.3661C39.7429 29.7787 38.5431 28.8914 37.7433 28.6289L37.1184 28.4165V27.6166C37.1184 26.9168 37.0684 26.7668 36.806 26.5044C36.3811 26.0669 35.6062 26.0669 35.1813 26.5044Z"/>
</mask>
<path d="M35.1813 26.5044C34.9189 26.7668 34.8689 26.9168 34.8689 27.6041V28.404L34.2565 28.6664C31.6195 29.7537 30.8447 33.328 32.7693 35.515C33.5066 36.3523 34.7939 36.9397 35.9186 36.9397C36.506 36.9397 37.2934 37.3521 37.6433 37.827C38.1932 38.5644 38.1557 39.5892 37.5308 40.3265C36.6435 41.3763 35.1563 41.2888 33.8441 40.0891C33.1692 39.4767 32.9318 39.4017 32.4069 39.5767C31.6445 39.8266 31.4571 40.6265 31.9695 41.4138C32.2819 41.8887 33.5316 42.7635 34.244 43.001L34.8689 43.2134V44.0133C34.8689 45.0381 35.1813 45.438 35.9936 45.438C36.806 45.438 37.1184 45.0381 37.1184 44.0258V43.2259L37.7308 42.9635C40.3677 41.8762 41.1426 38.3019 39.218 36.1149C38.4806 35.2776 37.1934 34.6902 36.0936 34.6902C35.5062 34.6902 34.7314 34.3153 34.3815 33.8654C33.3192 32.5156 34.3315 30.566 36.0936 30.566C36.681 30.566 37.7558 31.0909 38.1557 31.5658C38.5681 32.0532 38.9555 32.2282 39.4054 32.1407C40.2678 31.9657 40.5927 31.1534 40.1178 30.3661C39.7429 29.7787 38.5431 28.8914 37.7433 28.6289L37.1184 28.4165V27.6166C37.1184 26.9168 37.0684 26.7668 36.806 26.5044C36.3811 26.0669 35.6062 26.0669 35.1813 26.5044Z" fill="#0D313B"/>
<path d="M35.1813 26.5044C34.9189 26.7668 34.8689 26.9168 34.8689 27.6041V28.404L34.2565 28.6664C31.6195 29.7537 30.8447 33.328 32.7693 35.515C33.5066 36.3523 34.7939 36.9397 35.9186 36.9397C36.506 36.9397 37.2934 37.3521 37.6433 37.827C38.1932 38.5644 38.1557 39.5892 37.5308 40.3265C36.6435 41.3763 35.1563 41.2888 33.8441 40.0891C33.1692 39.4767 32.9318 39.4017 32.4069 39.5767C31.6445 39.8266 31.4571 40.6265 31.9695 41.4138C32.2819 41.8887 33.5316 42.7635 34.244 43.001L34.8689 43.2134V44.0133C34.8689 45.0381 35.1813 45.438 35.9936 45.438C36.806 45.438 37.1184 45.0381 37.1184 44.0258V43.2259L37.7308 42.9635C40.3677 41.8762 41.1426 38.3019 39.218 36.1149C38.4806 35.2776 37.1934 34.6902 36.0936 34.6902C35.5062 34.6902 34.7314 34.3153 34.3815 33.8654C33.3192 32.5156 34.3315 30.566 36.0936 30.566C36.681 30.566 37.7558 31.0909 38.1557 31.5658C38.5681 32.0532 38.9555 32.2282 39.4054 32.1407C40.2678 31.9657 40.5927 31.1534 40.1178 30.3661C39.7429 29.7787 38.5431 28.8914 37.7433 28.6289L37.1184 28.4165V27.6166C37.1184 26.9168 37.0684 26.7668 36.806 26.5044C36.3811 26.0669 35.6062 26.0669 35.1813 26.5044Z" stroke="#0D313B" stroke-width="1.4" mask="url(#path-4-outside-3_6242_46185)"/>
<mask id="path-5-outside-4_6242_46185" maskUnits="userSpaceOnUse" x="11.2593" y="25.6201" width="58" height="40" fill="black">
<rect fill="white" x="11.2593" y="25.6201" width="58" height="40"/>
<path d="M59.851 27.3043C59.2011 27.5042 58.8637 27.7917 56.1892 30.3662C53.1649 33.2781 52.9149 33.6155 53.0149 34.7153C53.1399 35.965 54.2521 36.9398 55.5394 36.9398H56.1518L56.0768 37.8646C55.8893 40.0892 55.052 42.8761 53.9147 45.0631C51.1278 50.4121 46.0788 54.2738 40.205 55.5485C32.9565 57.1232 25.1456 54.4112 20.4965 48.6999C19.0343 46.9003 17.997 46.3629 16.2599 46.4629C14.6727 46.5628 13.4855 47.3127 12.7481 48.7124C12.3982 49.3748 12.3107 49.6622 12.2732 50.512C12.1982 51.8118 12.4107 52.4741 13.2855 53.6239C14.1603 54.7987 16.4474 57.1607 17.6846 58.148C21.7713 61.4473 26.5953 63.5719 31.8692 64.3842C33.8563 64.6966 38.1179 64.6966 40.105 64.3967C45.1165 63.6094 49.4406 61.7972 53.4898 58.7853C54.927 57.7106 57.7764 54.8736 58.8262 53.4864C61.2882 50.2246 62.9504 46.8128 63.9377 42.9761C64.3001 41.5264 64.4626 40.5141 64.8125 37.4647L64.875 36.9398H65.4748C66.3122 36.9398 67.212 36.4649 67.6494 35.79C68.0618 35.1402 68.1243 34.0029 67.7619 33.3405C67.6494 33.1031 66.2747 31.7159 64.7375 30.2412C62.288 27.9042 61.8506 27.5417 61.3132 27.3793C60.6383 27.1793 60.3509 27.1668 59.851 27.3043ZM63.7877 32.5157C64.9375 33.6155 65.7373 34.4778 65.6873 34.5528C65.6373 34.6403 65.1749 34.6903 64.5375 34.6903C63.4753 34.6903 63.0503 34.8027 62.7879 35.1652C62.7129 35.2776 62.6129 36.04 62.5629 36.8648C62.188 43.6134 59.651 49.5497 55.1145 54.2363C50.9528 58.5354 45.9038 61.1474 39.8051 62.1347C37.943 62.4471 34.0938 62.4471 32.1941 62.1472C27.7076 61.4348 23.7209 59.7851 20.1716 57.1607C18.7094 56.0734 16.0099 53.4614 15.1101 52.2617C14.5977 51.5743 14.5602 51.4618 14.5602 50.762C14.5602 50.1621 14.6227 49.9122 14.8477 49.5872C15.4351 48.7749 16.6223 48.4625 17.4596 48.9124C17.6721 49.0248 18.3095 49.6622 18.8594 50.3371C25.3955 58.1605 36.6807 60.4975 45.9288 55.9359C53.0524 52.4241 57.6764 45.6005 58.3638 37.5522C58.6012 34.9527 58.4263 34.6903 56.5392 34.6903C55.9018 34.6903 55.3519 34.6403 55.3144 34.5778C55.2769 34.5153 56.4267 33.328 57.8639 31.9408L60.5009 29.4163L61.1507 30.0162C61.5132 30.3537 62.6879 31.4784 63.7877 32.5157Z"/>
</mask>
<path d="M59.851 27.3043C59.2011 27.5042 58.8637 27.7917 56.1892 30.3662C53.1649 33.2781 52.9149 33.6155 53.0149 34.7153C53.1399 35.965 54.2521 36.9398 55.5394 36.9398H56.1518L56.0768 37.8646C55.8893 40.0892 55.052 42.8761 53.9147 45.0631C51.1278 50.4121 46.0788 54.2738 40.205 55.5485C32.9565 57.1232 25.1456 54.4112 20.4965 48.6999C19.0343 46.9003 17.997 46.3629 16.2599 46.4629C14.6727 46.5628 13.4855 47.3127 12.7481 48.7124C12.3982 49.3748 12.3107 49.6622 12.2732 50.512C12.1982 51.8118 12.4107 52.4741 13.2855 53.6239C14.1603 54.7987 16.4474 57.1607 17.6846 58.148C21.7713 61.4473 26.5953 63.5719 31.8692 64.3842C33.8563 64.6966 38.1179 64.6966 40.105 64.3967C45.1165 63.6094 49.4406 61.7972 53.4898 58.7853C54.927 57.7106 57.7764 54.8736 58.8262 53.4864C61.2882 50.2246 62.9504 46.8128 63.9377 42.9761C64.3001 41.5264 64.4626 40.5141 64.8125 37.4647L64.875 36.9398H65.4748C66.3122 36.9398 67.212 36.4649 67.6494 35.79C68.0618 35.1402 68.1243 34.0029 67.7619 33.3405C67.6494 33.1031 66.2747 31.7159 64.7375 30.2412C62.288 27.9042 61.8506 27.5417 61.3132 27.3793C60.6383 27.1793 60.3509 27.1668 59.851 27.3043ZM63.7877 32.5157C64.9375 33.6155 65.7373 34.4778 65.6873 34.5528C65.6373 34.6403 65.1749 34.6903 64.5375 34.6903C63.4753 34.6903 63.0503 34.8027 62.7879 35.1652C62.7129 35.2776 62.6129 36.04 62.5629 36.8648C62.188 43.6134 59.651 49.5497 55.1145 54.2363C50.9528 58.5354 45.9038 61.1474 39.8051 62.1347C37.943 62.4471 34.0938 62.4471 32.1941 62.1472C27.7076 61.4348 23.7209 59.7851 20.1716 57.1607C18.7094 56.0734 16.0099 53.4614 15.1101 52.2617C14.5977 51.5743 14.5602 51.4618 14.5602 50.762C14.5602 50.1621 14.6227 49.9122 14.8477 49.5872C15.4351 48.7749 16.6223 48.4625 17.4596 48.9124C17.6721 49.0248 18.3095 49.6622 18.8594 50.3371C25.3955 58.1605 36.6807 60.4975 45.9288 55.9359C53.0524 52.4241 57.6764 45.6005 58.3638 37.5522C58.6012 34.9527 58.4263 34.6903 56.5392 34.6903C55.9018 34.6903 55.3519 34.6403 55.3144 34.5778C55.2769 34.5153 56.4267 33.328 57.8639 31.9408L60.5009 29.4163L61.1507 30.0162C61.5132 30.3537 62.6879 31.4784 63.7877 32.5157Z" fill="#0D313B"/>
<path d="M59.851 27.3043C59.2011 27.5042 58.8637 27.7917 56.1892 30.3662C53.1649 33.2781 52.9149 33.6155 53.0149 34.7153C53.1399 35.965 54.2521 36.9398 55.5394 36.9398H56.1518L56.0768 37.8646C55.8893 40.0892 55.052 42.8761 53.9147 45.0631C51.1278 50.4121 46.0788 54.2738 40.205 55.5485C32.9565 57.1232 25.1456 54.4112 20.4965 48.6999C19.0343 46.9003 17.997 46.3629 16.2599 46.4629C14.6727 46.5628 13.4855 47.3127 12.7481 48.7124C12.3982 49.3748 12.3107 49.6622 12.2732 50.512C12.1982 51.8118 12.4107 52.4741 13.2855 53.6239C14.1603 54.7987 16.4474 57.1607 17.6846 58.148C21.7713 61.4473 26.5953 63.5719 31.8692 64.3842C33.8563 64.6966 38.1179 64.6966 40.105 64.3967C45.1165 63.6094 49.4406 61.7972 53.4898 58.7853C54.927 57.7106 57.7764 54.8736 58.8262 53.4864C61.2882 50.2246 62.9504 46.8128 63.9377 42.9761C64.3001 41.5264 64.4626 40.5141 64.8125 37.4647L64.875 36.9398H65.4748C66.3122 36.9398 67.212 36.4649 67.6494 35.79C68.0618 35.1402 68.1243 34.0029 67.7619 33.3405C67.6494 33.1031 66.2747 31.7159 64.7375 30.2412C62.288 27.9042 61.8506 27.5417 61.3132 27.3793C60.6383 27.1793 60.3509 27.1668 59.851 27.3043ZM63.7877 32.5157C64.9375 33.6155 65.7373 34.4778 65.6873 34.5528C65.6373 34.6403 65.1749 34.6903 64.5375 34.6903C63.4753 34.6903 63.0503 34.8027 62.7879 35.1652C62.7129 35.2776 62.6129 36.04 62.5629 36.8648C62.188 43.6134 59.651 49.5497 55.1145 54.2363C50.9528 58.5354 45.9038 61.1474 39.8051 62.1347C37.943 62.4471 34.0938 62.4471 32.1941 62.1472C27.7076 61.4348 23.7209 59.7851 20.1716 57.1607C18.7094 56.0734 16.0099 53.4614 15.1101 52.2617C14.5977 51.5743 14.5602 51.4618 14.5602 50.762C14.5602 50.1621 14.6227 49.9122 14.8477 49.5872C15.4351 48.7749 16.6223 48.4625 17.4596 48.9124C17.6721 49.0248 18.3095 49.6622 18.8594 50.3371C25.3955 58.1605 36.6807 60.4975 45.9288 55.9359C53.0524 52.4241 57.6764 45.6005 58.3638 37.5522C58.6012 34.9527 58.4263 34.6903 56.5392 34.6903C55.9018 34.6903 55.3519 34.6403 55.3144 34.5778C55.2769 34.5153 56.4267 33.328 57.8639 31.9408L60.5009 29.4163L61.1507 30.0162C61.5132 30.3537 62.6879 31.4784 63.7877 32.5157Z" stroke="#0D313B" stroke-width="1.4" mask="url(#path-5-outside-4_6242_46185)"/>
</svg>
