<svg width="72" height="72" viewBox="0 0 72 72" fill="none" xmlns="http://www.w3.org/2000/svg">
<path d="M34 9.5L13.5 26.5H48.5L47.5 18L43.5 16.5L39 18L38 10.5L34 9.5Z" fill="#62C89E"/>
<path d="M47 42H66V53H47V42Z" fill="#22885E"/>
<path d="M47 42V41.5H46.5V42H47ZM66 42H66.5V41.5H66V42ZM66 53V53.5H66.5V53H66ZM47 53H46.5V53.5H47V53ZM47 42.5H66V41.5H47V42.5ZM65.5 42V53H66.5V42H65.5ZM66 52.5H47V53.5H66V52.5ZM47.5 53V42H46.5V53H47.5Z" fill="#0B2D1F"/>
<mask id="path-4-outside-1_6242_46113" maskUnits="userSpaceOnUse" x="51.5034" y="2.67676" width="18" height="24" fill="black">
<rect fill="white" x="51.5034" y="2.67676" width="18" height="24"/>
<path d="M59.5003 4.27028C59.0359 4.50244 58.5329 5.09574 56.3919 7.98488C54.9731 9.88087 53.7607 11.5447 53.6704 11.6995C53.593 11.8543 53.5285 12.2799 53.5285 12.6539C53.5285 13.2472 53.5801 13.3633 54.0316 13.8147C54.5346 14.3178 54.5346 14.3178 55.5793 14.3178H56.624V15.0658C56.624 17.0392 55.4503 19.0126 53.5672 20.1992C53.1545 20.4572 52.7418 20.7538 52.6644 20.8699C52.4838 21.0892 52.4451 21.9017 52.5999 22.1468C52.6515 22.2371 53.7091 23.0625 54.9473 23.9912C57.5398 25.9388 57.6559 25.9775 58.7909 25.2165C61.938 23.0883 64.3886 18.9868 64.8271 15.1045L64.9174 14.3178H65.9234C66.9037 14.3178 66.9682 14.3049 67.4196 13.8792C67.8452 13.4923 67.8968 13.3762 67.9484 12.6926L68 11.9187L65.6655 8.77165C62.8795 4.99256 62.3894 4.41215 61.8348 4.17999C61.1899 3.90914 60.1323 3.94783 59.5003 4.27028ZM63.1504 9.11989C64.3499 10.7321 65.3559 12.0864 65.3688 12.1509C65.3946 12.2025 64.9432 12.2541 64.3757 12.2541C62.8666 12.2541 62.8279 12.3057 62.6216 14.7305C62.4023 17.2843 60.9964 20.1476 58.9844 22.1339C57.7075 23.385 57.8235 23.3721 56.5853 22.4434L55.5148 21.6567L56.4435 20.7151C57.4624 19.6833 58.2621 18.2387 58.6232 16.8328C58.9715 15.4399 58.8296 12.7055 58.391 12.4218C58.3008 12.3702 57.7462 12.2928 57.1399 12.2541L56.0307 12.1896L58.2621 9.18438C59.7711 7.17231 60.5837 6.19207 60.7385 6.19207C60.8932 6.19207 61.6929 7.14651 63.1504 9.11989Z"/>
</mask>
<path d="M59.5003 4.27028C59.0359 4.50244 58.5329 5.09574 56.3919 7.98488C54.9731 9.88087 53.7607 11.5447 53.6704 11.6995C53.593 11.8543 53.5285 12.2799 53.5285 12.6539C53.5285 13.2472 53.5801 13.3633 54.0316 13.8147C54.5346 14.3178 54.5346 14.3178 55.5793 14.3178H56.624V15.0658C56.624 17.0392 55.4503 19.0126 53.5672 20.1992C53.1545 20.4572 52.7418 20.7538 52.6644 20.8699C52.4838 21.0892 52.4451 21.9017 52.5999 22.1468C52.6515 22.2371 53.7091 23.0625 54.9473 23.9912C57.5398 25.9388 57.6559 25.9775 58.7909 25.2165C61.938 23.0883 64.3886 18.9868 64.8271 15.1045L64.9174 14.3178H65.9234C66.9037 14.3178 66.9682 14.3049 67.4196 13.8792C67.8452 13.4923 67.8968 13.3762 67.9484 12.6926L68 11.9187L65.6655 8.77165C62.8795 4.99256 62.3894 4.41215 61.8348 4.17999C61.1899 3.90914 60.1323 3.94783 59.5003 4.27028ZM63.1504 9.11989C64.3499 10.7321 65.3559 12.0864 65.3688 12.1509C65.3946 12.2025 64.9432 12.2541 64.3757 12.2541C62.8666 12.2541 62.8279 12.3057 62.6216 14.7305C62.4023 17.2843 60.9964 20.1476 58.9844 22.1339C57.7075 23.385 57.8235 23.3721 56.5853 22.4434L55.5148 21.6567L56.4435 20.7151C57.4624 19.6833 58.2621 18.2387 58.6232 16.8328C58.9715 15.4399 58.8296 12.7055 58.391 12.4218C58.3008 12.3702 57.7462 12.2928 57.1399 12.2541L56.0307 12.1896L58.2621 9.18438C59.7711 7.17231 60.5837 6.19207 60.7385 6.19207C60.8932 6.19207 61.6929 7.14651 63.1504 9.11989Z" fill="#0B2D1F"/>
<path d="M59.5003 4.27028C59.0359 4.50244 58.5329 5.09574 56.3919 7.98488C54.9731 9.88087 53.7607 11.5447 53.6704 11.6995C53.593 11.8543 53.5285 12.2799 53.5285 12.6539C53.5285 13.2472 53.5801 13.3633 54.0316 13.8147C54.5346 14.3178 54.5346 14.3178 55.5793 14.3178H56.624V15.0658C56.624 17.0392 55.4503 19.0126 53.5672 20.1992C53.1545 20.4572 52.7418 20.7538 52.6644 20.8699C52.4838 21.0892 52.4451 21.9017 52.5999 22.1468C52.6515 22.2371 53.7091 23.0625 54.9473 23.9912C57.5398 25.9388 57.6559 25.9775 58.7909 25.2165C61.938 23.0883 64.3886 18.9868 64.8271 15.1045L64.9174 14.3178H65.9234C66.9037 14.3178 66.9682 14.3049 67.4196 13.8792C67.8452 13.4923 67.8968 13.3762 67.9484 12.6926L68 11.9187L65.6655 8.77165C62.8795 4.99256 62.3894 4.41215 61.8348 4.17999C61.1899 3.90914 60.1323 3.94783 59.5003 4.27028ZM63.1504 9.11989C64.3499 10.7321 65.3559 12.0864 65.3688 12.1509C65.3946 12.2025 64.9432 12.2541 64.3757 12.2541C62.8666 12.2541 62.8279 12.3057 62.6216 14.7305C62.4023 17.2843 60.9964 20.1476 58.9844 22.1339C57.7075 23.385 57.8235 23.3721 56.5853 22.4434L55.5148 21.6567L56.4435 20.7151C57.4624 19.6833 58.2621 18.2387 58.6232 16.8328C58.9715 15.4399 58.8296 12.7055 58.391 12.4218C58.3008 12.3702 57.7462 12.2928 57.1399 12.2541L56.0307 12.1896L58.2621 9.18438C59.7711 7.17231 60.5837 6.19207 60.7385 6.19207C60.8932 6.19207 61.6929 7.14651 63.1504 9.11989Z" stroke="#0B2D1F" mask="url(#path-4-outside-1_6242_46113)"/>
<mask id="path-5-outside-2_6242_46113" maskUnits="userSpaceOnUse" x="3" y="6.97314" width="66" height="62" fill="black">
<rect fill="white" x="3" y="6.97314" width="66" height="62"/>
<path d="M33.2788 8.33317C32.9564 8.44925 32.4662 8.69431 32.1825 8.88778C31.8987 9.08125 27.1781 13.1699 21.7094 17.9679L11.7393 26.6998H10.8622C8.68247 26.6998 6.33505 28.0412 5.08395 30.0146C4.83889 30.3757 4.50355 31.1109 4.32298 31.6397L4.00053 32.6199V47.2978C4.00053 63.5879 3.94894 62.5044 4.86469 64.2585C5.70305 65.8579 7.40558 67.2122 9.27578 67.7668C9.90777 67.9473 12.3326 67.9731 33.4078 67.9731C54.483 67.9731 56.9078 67.9473 57.5398 67.7668C59.41 67.2122 61.1125 65.8579 61.9509 64.2585C62.7763 62.685 62.815 62.4012 62.815 58.2997V54.598L63.6018 54.5206C65.1625 54.3787 66.7747 53.205 67.5357 51.6573L67.9097 50.8834V47.3365V43.7895L67.5357 43.0157C66.7747 41.4679 65.1625 40.2942 63.6018 40.1523L62.815 40.0749V36.3732C62.815 32.2717 62.7763 31.988 61.9638 30.4273C61.1383 28.8538 59.655 27.6285 57.8751 27.0223C56.9207 26.7127 56.8175 26.6998 53.1545 26.6998H49.4141L49.3754 22.8562L49.3367 19.0255L48.9111 18.1614C48.421 17.1553 47.4923 16.2396 46.4347 15.7495C45.8027 15.4528 45.5705 15.4141 44.242 15.4141H42.7588L41.4819 16.0203C40.7854 16.3686 40.205 16.6394 40.1792 16.6394C40.1534 16.6394 40.1147 15.5818 40.0889 14.2791C40.0502 11.9446 40.0502 11.9317 39.6375 11.0675C39.1216 9.9712 38.2703 9.11994 37.174 8.60402C36.413 8.24288 36.155 8.19129 35.0845 8.16549C34.2203 8.1397 33.6915 8.19129 33.2788 8.33317ZM36.5291 10.7838C37.7931 11.6737 38.051 12.4992 38.051 15.7366V17.7358L29.0612 22.2242L20.0584 26.7127L17.6336 26.674L15.1959 26.6353L24.1729 18.7676C29.1128 14.4339 33.3949 10.7709 33.7044 10.6032C34.5041 10.1647 35.7552 10.2421 36.5291 10.7838ZM45.4673 17.7873C45.7511 17.9163 46.1767 18.213 46.4089 18.4451C47.2086 19.2448 47.2472 19.4512 47.3117 23.2432L47.3633 26.6998H36.2324C30.1188 26.6998 25.1402 26.674 25.166 26.6482C25.1918 26.6224 29.332 24.5716 34.3622 22.0695C43.1199 17.7357 43.5455 17.5423 44.2291 17.5423C44.6419 17.5423 45.1707 17.6455 45.4673 17.7873ZM56.1726 28.8924C57.3979 29.073 58.3008 29.5244 59.152 30.3628C60.5192 31.73 60.7514 32.7102 60.7514 37.1729V40.1007L54.7925 40.1394L48.8208 40.1781L48.0985 40.5393C46.7571 41.1971 45.8543 42.4869 45.4673 44.3313C45.2094 45.5179 45.2094 49.1551 45.4673 50.3417C45.8543 52.1861 46.7571 53.4759 48.0985 54.1337L48.8208 54.4948L54.7925 54.5335L60.7514 54.5722V57.5C60.7514 61.9627 60.5192 62.943 59.152 64.3101C58.3008 65.1485 57.3979 65.5999 56.1726 65.7805C54.9344 65.9482 11.8812 65.9482 10.643 65.7805C9.41765 65.5999 8.5148 65.1485 7.66354 64.3101C6.82517 63.4589 6.37375 62.556 6.19317 61.3307C6.0255 60.1054 6.0255 34.5675 6.19317 33.3422C6.37375 32.1169 6.82517 31.2141 7.66354 30.3628C8.489 29.5502 9.44345 29.0601 10.5269 28.9053C11.6361 28.7377 55.0505 28.7377 56.1726 28.8924ZM63.9758 42.5127C64.6723 42.8351 65.4333 43.6348 65.6655 44.3184C65.7944 44.6795 65.846 45.5308 65.846 47.3365C65.846 50.2643 65.73 50.7286 64.8271 51.567C63.8727 52.4441 64.0403 52.4312 56.4306 52.4312H49.5947L49.0143 52.1087C47.8921 51.4767 47.4665 50.1869 47.4665 47.3365C47.4665 43.9443 48.1114 42.59 49.8526 42.2934C50.1364 42.2418 53.2964 42.216 56.882 42.216C63.202 42.2418 63.4083 42.2547 63.9758 42.5127Z"/>
</mask>
<path d="M33.2788 8.33317C32.9564 8.44925 32.4662 8.69431 32.1825 8.88778C31.8987 9.08125 27.1781 13.1699 21.7094 17.9679L11.7393 26.6998H10.8622C8.68247 26.6998 6.33505 28.0412 5.08395 30.0146C4.83889 30.3757 4.50355 31.1109 4.32298 31.6397L4.00053 32.6199V47.2978C4.00053 63.5879 3.94894 62.5044 4.86469 64.2585C5.70305 65.8579 7.40558 67.2122 9.27578 67.7668C9.90777 67.9473 12.3326 67.9731 33.4078 67.9731C54.483 67.9731 56.9078 67.9473 57.5398 67.7668C59.41 67.2122 61.1125 65.8579 61.9509 64.2585C62.7763 62.685 62.815 62.4012 62.815 58.2997V54.598L63.6018 54.5206C65.1625 54.3787 66.7747 53.205 67.5357 51.6573L67.9097 50.8834V47.3365V43.7895L67.5357 43.0157C66.7747 41.4679 65.1625 40.2942 63.6018 40.1523L62.815 40.0749V36.3732C62.815 32.2717 62.7763 31.988 61.9638 30.4273C61.1383 28.8538 59.655 27.6285 57.8751 27.0223C56.9207 26.7127 56.8175 26.6998 53.1545 26.6998H49.4141L49.3754 22.8562L49.3367 19.0255L48.9111 18.1614C48.421 17.1553 47.4923 16.2396 46.4347 15.7495C45.8027 15.4528 45.5705 15.4141 44.242 15.4141H42.7588L41.4819 16.0203C40.7854 16.3686 40.205 16.6394 40.1792 16.6394C40.1534 16.6394 40.1147 15.5818 40.0889 14.2791C40.0502 11.9446 40.0502 11.9317 39.6375 11.0675C39.1216 9.9712 38.2703 9.11994 37.174 8.60402C36.413 8.24288 36.155 8.19129 35.0845 8.16549C34.2203 8.1397 33.6915 8.19129 33.2788 8.33317ZM36.5291 10.7838C37.7931 11.6737 38.051 12.4992 38.051 15.7366V17.7358L29.0612 22.2242L20.0584 26.7127L17.6336 26.674L15.1959 26.6353L24.1729 18.7676C29.1128 14.4339 33.3949 10.7709 33.7044 10.6032C34.5041 10.1647 35.7552 10.2421 36.5291 10.7838ZM45.4673 17.7873C45.7511 17.9163 46.1767 18.213 46.4089 18.4451C47.2086 19.2448 47.2472 19.4512 47.3117 23.2432L47.3633 26.6998H36.2324C30.1188 26.6998 25.1402 26.674 25.166 26.6482C25.1918 26.6224 29.332 24.5716 34.3622 22.0695C43.1199 17.7357 43.5455 17.5423 44.2291 17.5423C44.6419 17.5423 45.1707 17.6455 45.4673 17.7873ZM56.1726 28.8924C57.3979 29.073 58.3008 29.5244 59.152 30.3628C60.5192 31.73 60.7514 32.7102 60.7514 37.1729V40.1007L54.7925 40.1394L48.8208 40.1781L48.0985 40.5393C46.7571 41.1971 45.8543 42.4869 45.4673 44.3313C45.2094 45.5179 45.2094 49.1551 45.4673 50.3417C45.8543 52.1861 46.7571 53.4759 48.0985 54.1337L48.8208 54.4948L54.7925 54.5335L60.7514 54.5722V57.5C60.7514 61.9627 60.5192 62.943 59.152 64.3101C58.3008 65.1485 57.3979 65.5999 56.1726 65.7805C54.9344 65.9482 11.8812 65.9482 10.643 65.7805C9.41765 65.5999 8.5148 65.1485 7.66354 64.3101C6.82517 63.4589 6.37375 62.556 6.19317 61.3307C6.0255 60.1054 6.0255 34.5675 6.19317 33.3422C6.37375 32.1169 6.82517 31.2141 7.66354 30.3628C8.489 29.5502 9.44345 29.0601 10.5269 28.9053C11.6361 28.7377 55.0505 28.7377 56.1726 28.8924ZM63.9758 42.5127C64.6723 42.8351 65.4333 43.6348 65.6655 44.3184C65.7944 44.6795 65.846 45.5308 65.846 47.3365C65.846 50.2643 65.73 50.7286 64.8271 51.567C63.8727 52.4441 64.0403 52.4312 56.4306 52.4312H49.5947L49.0143 52.1087C47.8921 51.4767 47.4665 50.1869 47.4665 47.3365C47.4665 43.9443 48.1114 42.59 49.8526 42.2934C50.1364 42.2418 53.2964 42.216 56.882 42.216C63.202 42.2418 63.4083 42.2547 63.9758 42.5127Z" fill="#0B2D1F"/>
<path d="M33.2788 8.33317C32.9564 8.44925 32.4662 8.69431 32.1825 8.88778C31.8987 9.08125 27.1781 13.1699 21.7094 17.9679L11.7393 26.6998H10.8622C8.68247 26.6998 6.33505 28.0412 5.08395 30.0146C4.83889 30.3757 4.50355 31.1109 4.32298 31.6397L4.00053 32.6199V47.2978C4.00053 63.5879 3.94894 62.5044 4.86469 64.2585C5.70305 65.8579 7.40558 67.2122 9.27578 67.7668C9.90777 67.9473 12.3326 67.9731 33.4078 67.9731C54.483 67.9731 56.9078 67.9473 57.5398 67.7668C59.41 67.2122 61.1125 65.8579 61.9509 64.2585C62.7763 62.685 62.815 62.4012 62.815 58.2997V54.598L63.6018 54.5206C65.1625 54.3787 66.7747 53.205 67.5357 51.6573L67.9097 50.8834V47.3365V43.7895L67.5357 43.0157C66.7747 41.4679 65.1625 40.2942 63.6018 40.1523L62.815 40.0749V36.3732C62.815 32.2717 62.7763 31.988 61.9638 30.4273C61.1383 28.8538 59.655 27.6285 57.8751 27.0223C56.9207 26.7127 56.8175 26.6998 53.1545 26.6998H49.4141L49.3754 22.8562L49.3367 19.0255L48.9111 18.1614C48.421 17.1553 47.4923 16.2396 46.4347 15.7495C45.8027 15.4528 45.5705 15.4141 44.242 15.4141H42.7588L41.4819 16.0203C40.7854 16.3686 40.205 16.6394 40.1792 16.6394C40.1534 16.6394 40.1147 15.5818 40.0889 14.2791C40.0502 11.9446 40.0502 11.9317 39.6375 11.0675C39.1216 9.9712 38.2703 9.11994 37.174 8.60402C36.413 8.24288 36.155 8.19129 35.0845 8.16549C34.2203 8.1397 33.6915 8.19129 33.2788 8.33317ZM36.5291 10.7838C37.7931 11.6737 38.051 12.4992 38.051 15.7366V17.7358L29.0612 22.2242L20.0584 26.7127L17.6336 26.674L15.1959 26.6353L24.1729 18.7676C29.1128 14.4339 33.3949 10.7709 33.7044 10.6032C34.5041 10.1647 35.7552 10.2421 36.5291 10.7838ZM45.4673 17.7873C45.7511 17.9163 46.1767 18.213 46.4089 18.4451C47.2086 19.2448 47.2472 19.4512 47.3117 23.2432L47.3633 26.6998H36.2324C30.1188 26.6998 25.1402 26.674 25.166 26.6482C25.1918 26.6224 29.332 24.5716 34.3622 22.0695C43.1199 17.7357 43.5455 17.5423 44.2291 17.5423C44.6419 17.5423 45.1707 17.6455 45.4673 17.7873ZM56.1726 28.8924C57.3979 29.073 58.3008 29.5244 59.152 30.3628C60.5192 31.73 60.7514 32.7102 60.7514 37.1729V40.1007L54.7925 40.1394L48.8208 40.1781L48.0985 40.5393C46.7571 41.1971 45.8543 42.4869 45.4673 44.3313C45.2094 45.5179 45.2094 49.1551 45.4673 50.3417C45.8543 52.1861 46.7571 53.4759 48.0985 54.1337L48.8208 54.4948L54.7925 54.5335L60.7514 54.5722V57.5C60.7514 61.9627 60.5192 62.943 59.152 64.3101C58.3008 65.1485 57.3979 65.5999 56.1726 65.7805C54.9344 65.9482 11.8812 65.9482 10.643 65.7805C9.41765 65.5999 8.5148 65.1485 7.66354 64.3101C6.82517 63.4589 6.37375 62.556 6.19317 61.3307C6.0255 60.1054 6.0255 34.5675 6.19317 33.3422C6.37375 32.1169 6.82517 31.2141 7.66354 30.3628C8.489 29.5502 9.44345 29.0601 10.5269 28.9053C11.6361 28.7377 55.0505 28.7377 56.1726 28.8924ZM63.9758 42.5127C64.6723 42.8351 65.4333 43.6348 65.6655 44.3184C65.7944 44.6795 65.846 45.5308 65.846 47.3365C65.846 50.2643 65.73 50.7286 64.8271 51.567C63.8727 52.4441 64.0403 52.4312 56.4306 52.4312H49.5947L49.0143 52.1087C47.8921 51.4767 47.4665 50.1869 47.4665 47.3365C47.4665 43.9443 48.1114 42.59 49.8526 42.2934C50.1364 42.2418 53.2964 42.216 56.882 42.216C63.202 42.2418 63.4083 42.2547 63.9758 42.5127Z" stroke="#0B2D1F" mask="url(#path-5-outside-2_6242_46113)"/>
<mask id="path-6-outside-3_6242_46113" maskUnits="userSpaceOnUse" x="48.4014" y="42.4644" width="10" height="10" fill="black">
<rect fill="white" x="48.4014" y="42.4644" width="10" height="10"/>
<path d="M51.8778 43.4802C50.3816 44.0606 49.4014 45.5825 49.4014 47.3367C49.4014 49.0134 50.2268 50.3806 51.6585 51.0771C52.5872 51.5414 54.0962 51.593 55.1151 51.206C58.4944 49.942 58.5073 44.7442 55.1409 43.4802C54.1865 43.119 52.8193 43.119 51.8778 43.4802ZM54.5347 45.6599C56.2115 46.6789 55.4892 49.2713 53.5287 49.2713C51.5682 49.2713 50.8459 46.6789 52.5227 45.6599C53.0773 45.3246 53.9801 45.3246 54.5347 45.6599Z"/>
</mask>
<path d="M51.8778 43.4802C50.3816 44.0606 49.4014 45.5825 49.4014 47.3367C49.4014 49.0134 50.2268 50.3806 51.6585 51.0771C52.5872 51.5414 54.0962 51.593 55.1151 51.206C58.4944 49.942 58.5073 44.7442 55.1409 43.4802C54.1865 43.119 52.8193 43.119 51.8778 43.4802ZM54.5347 45.6599C56.2115 46.6789 55.4892 49.2713 53.5287 49.2713C51.5682 49.2713 50.8459 46.6789 52.5227 45.6599C53.0773 45.3246 53.9801 45.3246 54.5347 45.6599Z" fill="#0B2D1F"/>
<path d="M51.8778 43.4802C50.3816 44.0606 49.4014 45.5825 49.4014 47.3367C49.4014 49.0134 50.2268 50.3806 51.6585 51.0771C52.5872 51.5414 54.0962 51.593 55.1151 51.206C58.4944 49.942 58.5073 44.7442 55.1409 43.4802C54.1865 43.119 52.8193 43.119 51.8778 43.4802ZM54.5347 45.6599C56.2115 46.6789 55.4892 49.2713 53.5287 49.2713C51.5682 49.2713 50.8459 46.6789 52.5227 45.6599C53.0773 45.3246 53.9801 45.3246 54.5347 45.6599Z" stroke="#0B2D1F" mask="url(#path-6-outside-3_6242_46113)"/>
</svg>
