<svg width="72" height="72" viewBox="0 0 72 72" fill="none" xmlns="http://www.w3.org/2000/svg">
<path d="M14.6313 4.20019C13.2948 4.60367 12.0591 5.70062 11.4035 7.02453L11 7.8567V36.0371V64.2174L11.4035 65.0496C11.933 66.1087 12.8913 67.067 13.9504 67.5965L14.7826 68H35.6499H56.5173L57.2486 67.6596C58.2699 67.1804 59.392 66.0709 59.8964 65.0496L60.2998 64.2174L60.3377 42.2783C60.3503 30.2119 60.3377 20.2006 60.2998 20.0241C60.2116 19.671 45.1442 4.49019 44.5769 4.18758C44.0851 3.93541 15.4509 3.93541 14.6313 4.20019ZM41.8534 14.5267C41.8912 21.2471 41.8912 21.3984 42.156 21.7514C42.7486 22.5584 42.5847 22.5458 49.9986 22.5458H56.7064V42.8709C56.7064 62.8178 56.7064 63.2213 56.4542 63.6122C55.9373 64.4696 57.5259 64.4065 35.6499 64.4065C13.7739 64.4065 15.3626 64.4696 14.8456 63.6122C14.5935 63.2213 14.5935 62.7674 14.5935 36.0623C14.5935 6.06627 14.5304 8.4367 15.3878 7.91975C15.7787 7.68018 16.1191 7.66757 28.8034 7.66757H41.8282L41.8534 14.5267ZM49.8347 14.6023L54.1216 18.8893H49.7968H45.4847V14.6023C45.4847 12.2445 45.4973 10.3154 45.5225 10.3154C45.5351 10.3154 47.4768 12.2445 49.8347 14.6023Z" fill="#0B2D1F"/>
<path d="M49.8347 14.6023L54.1216 18.8893H49.7968H45.4847V14.6023C45.4847 12.2445 45.4973 10.3154 45.5225 10.3154C45.5351 10.3154 47.4768 12.2445 49.8347 14.6023Z" fill="#22885E"/>
<path d="M25.2983 9.9746C24.7435 10.3403 24.4283 10.9833 24.4283 11.765V12.3955L23.7096 12.6981C22.6757 13.152 21.6292 14.1859 21.0744 15.2828C20.2044 17.0481 20.2044 18.8385 21.087 20.6037C21.9822 22.4446 24.0627 23.7937 26.0044 23.8063C27.0635 23.8189 28.2361 24.7141 28.4127 25.6472C28.6774 27.0972 27.177 28.4715 25.7522 28.0806C24.8192 27.8159 24.0501 26.7441 24.0501 25.6976C24.0501 25.2563 23.6214 24.6133 23.1801 24.3737C21.957 23.7433 20.3936 24.6763 20.3936 26.0254C20.3936 28.1185 21.8814 30.4637 23.7096 31.2454L24.4283 31.5606V32.1911C24.4283 33.3889 25.1975 34.2715 26.244 34.2715C27.3788 34.2715 28.0848 33.5024 28.0848 32.2541V31.5606L28.8035 31.258C30.2031 30.6528 31.527 29.0641 31.9305 27.5259C32.5735 25.0293 31.6027 22.558 29.434 21.1459C28.5261 20.5533 27.7696 20.3011 26.5214 20.1624C25.147 20.0111 24.504 19.5067 24.1635 18.3594C23.8105 17.1111 25.2605 15.5602 26.5718 15.7998C27.6183 15.9889 28.4505 16.9598 28.4631 18.0063C28.4631 18.5611 28.8414 19.1915 29.3709 19.532C29.6987 19.7211 29.9383 19.7715 30.4553 19.7337C31.0227 19.6959 31.1992 19.6202 31.59 19.2294C32.0061 18.8133 32.044 18.6872 32.0944 17.9559C32.1574 17.0354 31.8296 15.762 31.3253 14.9298C30.8209 14.1102 29.7492 13.1394 28.8918 12.7107L28.0848 12.3198V11.6263C28.0848 11.2481 27.9966 10.7689 27.8957 10.5546C27.4418 9.69721 26.1431 9.40721 25.2983 9.9746Z" fill="#0B2D1F"/>
<path d="M35.6503 30.716C34.3642 31.359 34.3137 33.1368 35.5494 33.8933C35.9529 34.1329 36.205 34.1455 44.3628 34.1455H52.7602L53.1889 33.8555C54.3741 33.0612 54.2985 31.3464 53.0376 30.716C52.6467 30.5016 51.9659 30.489 44.3502 30.489C36.7346 30.489 36.0537 30.5016 35.6503 30.716Z" fill="#0B2D1F"/>
<path d="M18.0988 39.2776C17.6575 39.555 17.2415 40.3115 17.2415 40.8537C17.2415 41.4337 17.6323 42.102 18.1367 42.4046C18.5654 42.6567 18.7923 42.6567 35.6501 42.6567C52.4448 42.6567 52.7474 42.6567 53.1509 42.4046C53.5922 42.1398 54.0587 41.3202 54.0587 40.8285C54.0587 40.3494 53.5922 39.5172 53.1887 39.2776C52.8483 39.0759 51.7009 39.0633 35.6249 39.0633C19.8514 39.0759 18.4141 39.0885 18.0988 39.2776Z" fill="#0B2D1F"/>
<path d="M18.1115 47.801C17.6197 48.1288 17.2415 48.7971 17.2415 49.3392C17.2415 49.8814 17.6197 50.5497 18.1115 50.8775L18.5401 51.1675H35.5744C51.537 51.1675 52.634 51.1549 53.0374 50.9405C54.2983 50.3101 54.3739 48.5953 53.1887 47.801L52.76 47.511H35.6501H18.5401L18.1115 47.801Z" fill="#0B2D1F"/>
<path d="M18.4644 56.1353C17.8592 56.3623 17.6827 56.501 17.4431 57.0179C17.1783 57.5853 17.1909 58.0392 17.4935 58.6697C17.9979 59.7036 16.3461 59.6153 35.713 59.6153H52.9491L53.4282 59.1362C54.0586 58.5057 54.1847 57.9131 53.8569 57.1188C53.693 56.7279 53.466 56.4505 53.176 56.274C52.7347 56.0218 52.6212 56.0218 35.8391 55.9966C21.9318 55.9714 18.8553 55.9966 18.4644 56.1353Z" fill="#0B2D1F"/>
</svg>
