<svg width="72" height="72" viewBox="0 0 72 72" fill="none" xmlns="http://www.w3.org/2000/svg">
<g clip-path="url(#clip0_6242_46218)">
<rect x="8.00024" y="13.5552" width="56" height="10.6667" fill="#2894B4"/>
<rect x="6.03333" y="12.0333" width="59.9333" height="13.7111" rx="3.38889" stroke="#0D313B" stroke-width="4.06667"/>
<rect x="27.9995" y="34.8887" width="16" height="7.11111" rx="0.465972" fill="#0D313B"/>
<rect x="10.0336" y="26.255" width="51.9333" height="35.0444" rx="3.38889" stroke="#0D313B" stroke-width="4.06667"/>
<circle cx="55.5139" cy="59.6389" r="10.8533" fill="#68D4F4"/>
<mask id="path-6-outside-1_6242_46218" maskUnits="userSpaceOnUse" x="42" y="45.9497" width="27" height="27" fill="black">
<rect fill="white" x="42" y="45.9497" width="27" height="27"/>
<path d="M54.2563 47.0157C54.1728 47.0366 53.745 47.1096 53.3173 47.1722C51.7105 47.4331 49.8428 48.1843 48.3821 49.1755C47.537 49.7389 45.7528 51.5335 45.179 52.3787C43.4887 54.9036 42.7375 57.9503 43.0818 60.9343C43.7078 66.2868 47.6726 70.6064 53.0042 71.7541C54.225 72.0149 56.7812 72.0149 57.9916 71.7541C62.9893 70.6794 66.6933 66.9754 67.7784 61.9672C67.914 61.3412 67.9662 60.6526 67.9662 59.484C67.9662 57.2303 67.6323 55.7279 66.6724 53.8394C66.0151 52.5247 65.483 51.8048 64.3353 50.6571C63.1667 49.4885 62.4468 48.9668 61.0695 48.2886C59.3271 47.4226 57.8768 47.0679 55.8213 47.0157C55.0492 46.9949 54.3398 46.9949 54.2563 47.0157ZM57.1256 48.9981C59.3062 49.3529 61.1843 50.2815 62.7911 51.8048C64.4292 53.3594 65.4725 55.2479 65.9525 57.5538C66.1299 58.3572 66.1299 60.6109 65.9525 61.4143C65.0239 65.8173 61.8416 68.9996 57.4386 69.9282C56.6143 70.1055 54.2563 70.1055 53.5259 69.9282C51.1157 69.3543 49.3629 68.384 47.8291 66.7668C44.7199 63.4906 44.0208 58.7745 46.0345 54.7367C48.09 50.6362 52.6599 48.2678 57.1256 48.9981Z"/>
</mask>
<path d="M54.2563 47.0157C54.1728 47.0366 53.745 47.1096 53.3173 47.1722C51.7105 47.4331 49.8428 48.1843 48.3821 49.1755C47.537 49.7389 45.7528 51.5335 45.179 52.3787C43.4887 54.9036 42.7375 57.9503 43.0818 60.9343C43.7078 66.2868 47.6726 70.6064 53.0042 71.7541C54.225 72.0149 56.7812 72.0149 57.9916 71.7541C62.9893 70.6794 66.6933 66.9754 67.7784 61.9672C67.914 61.3412 67.9662 60.6526 67.9662 59.484C67.9662 57.2303 67.6323 55.7279 66.6724 53.8394C66.0151 52.5247 65.483 51.8048 64.3353 50.6571C63.1667 49.4885 62.4468 48.9668 61.0695 48.2886C59.3271 47.4226 57.8768 47.0679 55.8213 47.0157C55.0492 46.9949 54.3398 46.9949 54.2563 47.0157ZM57.1256 48.9981C59.3062 49.3529 61.1843 50.2815 62.7911 51.8048C64.4292 53.3594 65.4725 55.2479 65.9525 57.5538C66.1299 58.3572 66.1299 60.6109 65.9525 61.4143C65.0239 65.8173 61.8416 68.9996 57.4386 69.9282C56.6143 70.1055 54.2563 70.1055 53.5259 69.9282C51.1157 69.3543 49.3629 68.384 47.8291 66.7668C44.7199 63.4906 44.0208 58.7745 46.0345 54.7367C48.09 50.6362 52.6599 48.2678 57.1256 48.9981Z" fill="#0D313B"/>
<path d="M54.2563 47.0157C54.1728 47.0366 53.745 47.1096 53.3173 47.1722C51.7105 47.4331 49.8428 48.1843 48.3821 49.1755C47.537 49.7389 45.7528 51.5335 45.179 52.3787C43.4887 54.9036 42.7375 57.9503 43.0818 60.9343C43.7078 66.2868 47.6726 70.6064 53.0042 71.7541C54.225 72.0149 56.7812 72.0149 57.9916 71.7541C62.9893 70.6794 66.6933 66.9754 67.7784 61.9672C67.914 61.3412 67.9662 60.6526 67.9662 59.484C67.9662 57.2303 67.6323 55.7279 66.6724 53.8394C66.0151 52.5247 65.483 51.8048 64.3353 50.6571C63.1667 49.4885 62.4468 48.9668 61.0695 48.2886C59.3271 47.4226 57.8768 47.0679 55.8213 47.0157C55.0492 46.9949 54.3398 46.9949 54.2563 47.0157ZM57.1256 48.9981C59.3062 49.3529 61.1843 50.2815 62.7911 51.8048C64.4292 53.3594 65.4725 55.2479 65.9525 57.5538C66.1299 58.3572 66.1299 60.6109 65.9525 61.4143C65.0239 65.8173 61.8416 68.9996 57.4386 69.9282C56.6143 70.1055 54.2563 70.1055 53.5259 69.9282C51.1157 69.3543 49.3629 68.384 47.8291 66.7668C44.7199 63.4906 44.0208 58.7745 46.0345 54.7367C48.09 50.6362 52.6599 48.2678 57.1256 48.9981Z" stroke="#0D313B" stroke-width="1.11403" mask="url(#path-6-outside-1_6242_46218)"/>
<mask id="path-7-outside-2_6242_46218" maskUnits="userSpaceOnUse" x="50.9082" y="50.5181" width="9" height="18" fill="black">
<rect fill="white" x="50.9082" y="50.5181" width="9" height="18"/>
<path d="M54.83 51.711C54.6108 51.9301 54.5691 52.0553 54.5691 52.6292V53.2969L54.0579 53.516C51.8563 54.4238 51.2095 57.4078 52.8162 59.2337C53.4318 59.9328 54.5065 60.4231 55.4455 60.4231C55.9359 60.4231 56.5933 60.7675 56.8854 61.1639C57.3445 61.7795 57.3132 62.6351 56.7915 63.2507C56.0507 64.1271 54.8091 64.0541 53.7135 63.0524C53.1501 62.5412 52.9519 62.4786 52.5137 62.6247C51.8772 62.8333 51.7207 63.5011 52.1485 64.1584C52.4093 64.5549 53.4527 65.2853 54.0474 65.4835L54.5691 65.6609V66.3286C54.5691 67.1842 54.83 67.5181 55.5081 67.5181C56.1863 67.5181 56.4472 67.1842 56.4472 66.3391V65.6713L56.9584 65.4522C59.1599 64.5445 59.8068 61.5604 58.2 59.7345C57.5845 59.0355 56.5098 58.5451 55.5916 58.5451C55.1012 58.5451 54.4543 58.2321 54.1622 57.8564C53.2753 56.7296 54.1205 55.1019 55.5916 55.1019C56.082 55.1019 56.9793 55.5402 57.3132 55.9366C57.6575 56.3436 57.9809 56.4896 58.3565 56.4166C59.0765 56.2705 59.3478 55.5923 58.9513 54.935C58.6383 54.4446 57.6366 53.7038 56.9689 53.4847L56.4472 53.3073V52.6396C56.4472 52.0553 56.4054 51.9301 56.1863 51.711C55.8316 51.3458 55.1847 51.3458 54.83 51.711Z"/>
</mask>
<path d="M54.83 51.711C54.6108 51.9301 54.5691 52.0553 54.5691 52.6292V53.2969L54.0579 53.516C51.8563 54.4238 51.2095 57.4078 52.8162 59.2337C53.4318 59.9328 54.5065 60.4231 55.4455 60.4231C55.9359 60.4231 56.5933 60.7675 56.8854 61.1639C57.3445 61.7795 57.3132 62.6351 56.7915 63.2507C56.0507 64.1271 54.8091 64.0541 53.7135 63.0524C53.1501 62.5412 52.9519 62.4786 52.5137 62.6247C51.8772 62.8333 51.7207 63.5011 52.1485 64.1584C52.4093 64.5549 53.4527 65.2853 54.0474 65.4835L54.5691 65.6609V66.3286C54.5691 67.1842 54.83 67.5181 55.5081 67.5181C56.1863 67.5181 56.4472 67.1842 56.4472 66.3391V65.6713L56.9584 65.4522C59.1599 64.5445 59.8068 61.5604 58.2 59.7345C57.5845 59.0355 56.5098 58.5451 55.5916 58.5451C55.1012 58.5451 54.4543 58.2321 54.1622 57.8564C53.2753 56.7296 54.1205 55.1019 55.5916 55.1019C56.082 55.1019 56.9793 55.5402 57.3132 55.9366C57.6575 56.3436 57.9809 56.4896 58.3565 56.4166C59.0765 56.2705 59.3478 55.5923 58.9513 54.935C58.6383 54.4446 57.6366 53.7038 56.9689 53.4847L56.4472 53.3073V52.6396C56.4472 52.0553 56.4054 51.9301 56.1863 51.711C55.8316 51.3458 55.1847 51.3458 54.83 51.711Z" fill="#0D313B"/>
<path d="M54.83 51.711C54.6108 51.9301 54.5691 52.0553 54.5691 52.6292V53.2969L54.0579 53.516C51.8563 54.4238 51.2095 57.4078 52.8162 59.2337C53.4318 59.9328 54.5065 60.4231 55.4455 60.4231C55.9359 60.4231 56.5933 60.7675 56.8854 61.1639C57.3445 61.7795 57.3132 62.6351 56.7915 63.2507C56.0507 64.1271 54.8091 64.0541 53.7135 63.0524C53.1501 62.5412 52.9519 62.4786 52.5137 62.6247C51.8772 62.8333 51.7207 63.5011 52.1485 64.1584C52.4093 64.5549 53.4527 65.2853 54.0474 65.4835L54.5691 65.6609V66.3286C54.5691 67.1842 54.83 67.5181 55.5081 67.5181C56.1863 67.5181 56.4472 67.1842 56.4472 66.3391V65.6713L56.9584 65.4522C59.1599 64.5445 59.8068 61.5604 58.2 59.7345C57.5845 59.0355 56.5098 58.5451 55.5916 58.5451C55.1012 58.5451 54.4543 58.2321 54.1622 57.8564C53.2753 56.7296 54.1205 55.1019 55.5916 55.1019C56.082 55.1019 56.9793 55.5402 57.3132 55.9366C57.6575 56.3436 57.9809 56.4896 58.3565 56.4166C59.0765 56.2705 59.3478 55.5923 58.9513 54.935C58.6383 54.4446 57.6366 53.7038 56.9689 53.4847L56.4472 53.3073V52.6396C56.4472 52.0553 56.4054 51.9301 56.1863 51.711C55.8316 51.3458 55.1847 51.3458 54.83 51.711Z" stroke="#0D313B" stroke-width="1.11403" mask="url(#path-7-outside-2_6242_46218)"/>
</g>
<defs>
<clipPath id="clip0_6242_46218">
<rect width="72" height="72" fill="white"/>
</clipPath>
</defs>
</svg>
