<svg width="72" height="72" viewBox="0 0 72 72" fill="none" xmlns="http://www.w3.org/2000/svg">
<path d="M33.2856 30.6428C40.3863 30.6428 46.1426 25.1263 46.1426 18.3214C46.1426 11.5165 40.3863 6 33.2856 6C26.1848 6 20.4285 11.5165 20.4285 18.3214C20.4285 25.1263 26.1848 30.6428 33.2856 30.6428Z" fill="#F8E0C7"/>
<path d="M41.6827 30.6426H25.96C22.788 30.6426 19.7459 31.8761 17.503 34.0718C15.2601 36.2675 14 39.2456 14 42.3508V57.571C14 58.6756 14.8954 59.571 16 59.571H36.4999H51.6427C52.7473 59.571 53.6427 58.6756 53.6427 57.571V42.3508C53.6427 39.2456 52.3826 36.2675 50.1397 34.0718C47.8968 31.8761 44.8547 30.6426 41.6827 30.6426Z" fill="#4ACCFB"/>
<circle cx="50.619" cy="56.6195" r="10.6195" fill="white"/>
<path d="M47.3276 56.0882L49.7682 58.5288C50.1733 58.9339 50.8353 58.9165 51.2186 58.4906L55.2922 53.9644" stroke="#00D63C" stroke-width="3" stroke-linecap="round"/>
</svg>
