<svg width="72" height="72" viewBox="0 0 72 72" fill="none" xmlns="http://www.w3.org/2000/svg">
<path d="M32.2856 30.6428C39.3863 30.6428 45.1426 25.1263 45.1426 18.3214C45.1426 11.5165 39.3863 6 32.2856 6C25.1848 6 19.4285 11.5165 19.4285 18.3214C19.4285 25.1263 25.1848 30.6428 32.2856 30.6428Z" fill="#F8E0C7"/>
<path d="M40.6827 30.6426H24.96C21.788 30.6426 18.7459 31.8761 16.503 34.0718C14.2601 36.2675 13 39.2456 13 42.3508V57.571C13 58.6756 13.8954 59.571 15 59.571H35.4999H50.6427C51.7473 59.571 52.6427 58.6756 52.6427 57.571V42.3508C52.6427 39.2456 51.3826 36.2675 49.1397 34.0718C46.8968 31.8761 43.8547 30.6426 40.6827 30.6426Z" fill="#4ACCFB"/>
<ellipse cx="49" cy="55.5" rx="9" ry="9.5" fill="white"/>
<path d="M40.2964 59.9285C41.8742 63.1037 45.1507 65.2859 48.9369 65.2859C54.2625 65.2859 58.5797 60.9686 58.5797 55.6429C58.5797 50.3173 54.2625 46 48.9369 46C46.6406 46 44.5317 46.8027 42.8756 48.1428C41.8011 49.0123 40.9172 50.1079 40.2964 51.3574M42.8761 51.8407L39.0891 51.9299L39 48.1429" stroke="#E01E5A" stroke-width="3" stroke-linecap="round" stroke-linejoin="round"/>
<path d="M51.3569 53.1177L50.957 53.5835C50.5762 54.0288 50.2261 54.5679 49.9067 55.2007L49.1069 56.9541C49.0513 57.083 48.9282 57.4214 48.7378 57.9692C48.5854 58.4028 48.4434 58.7266 48.3115 58.9404C48.2295 59.0781 48.1123 59.147 47.96 59.147C47.8428 59.147 47.7388 59.106 47.6479 59.0239C47.5601 58.9419 47.5161 58.8438 47.5161 58.7295C47.5161 58.6182 47.6099 58.3325 47.7974 57.8726L48.7861 55.4512C49.2227 54.4932 49.6709 53.7549 50.1309 53.2363L50.2144 53.144L48.0083 53.1001L47.0195 53.0737C46.7354 53.0474 46.5933 52.9067 46.5933 52.6519C46.5933 52.5288 46.6343 52.4277 46.7163 52.3486C46.7983 52.2695 46.9009 52.23 47.0239 52.23C47.3931 52.23 47.9468 52.2417 48.6851 52.2651C49.4263 52.2886 49.9814 52.3003 50.3506 52.3003H51.1548C51.4653 52.3003 51.6206 52.3926 51.6206 52.5771C51.6206 52.7148 51.5327 52.895 51.3569 53.1177Z" fill="black"/>
<path d="M51.3569 53.1177L51.5468 53.2807L51.5532 53.2726L51.3569 53.1177ZM50.957 53.5835L50.7673 53.4207L50.767 53.421L50.957 53.5835ZM49.9067 55.2007L49.6834 55.088L49.6793 55.0969L49.9067 55.2007ZM49.1069 56.9541L48.8794 56.8503L48.8774 56.855L49.1069 56.9541ZM48.7378 57.9692L48.9737 58.0521L48.9739 58.0513L48.7378 57.9692ZM48.3115 58.9404L48.0987 58.8092L48.0967 58.8125L48.3115 58.9404ZM47.6479 59.0239L47.4773 59.2067L47.4804 59.2095L47.6479 59.0239ZM47.7974 57.8726L47.5659 57.778L47.5659 57.7782L47.7974 57.8726ZM48.7861 55.4512L48.5585 55.3474L48.5547 55.3567L48.7861 55.4512ZM50.1309 53.2363L49.9455 53.0686L49.9438 53.0704L50.1309 53.2363ZM50.2144 53.144L50.3997 53.3118L50.7678 52.905L50.2193 52.8941L50.2144 53.144ZM48.0083 53.1001L48.0016 53.35L48.0033 53.35L48.0083 53.1001ZM47.0195 53.0737L46.9964 53.3227L47.0046 53.3234L47.0129 53.3236L47.0195 53.0737ZM48.6851 52.2651L48.6771 52.515L48.6772 52.515L48.6851 52.2651ZM51.1672 52.9548L50.7673 53.4207L51.1467 53.7463L51.5466 53.2805L51.1672 52.9548ZM50.767 53.421C50.3708 53.8843 50.0101 54.4409 49.6835 55.0881L50.1299 55.3133C50.4421 54.6948 50.7816 54.1733 51.147 53.746L50.767 53.421ZM49.6793 55.0969L48.8795 56.8504L49.3344 57.0579L50.1342 55.3044L49.6793 55.0969ZM48.8774 56.855C48.8173 56.9942 48.6909 57.3427 48.5017 57.8872L48.9739 58.0513C49.1656 57.5001 49.2853 57.1718 49.3364 57.0532L48.8774 56.855ZM48.5019 57.8864C48.3515 58.3145 48.2164 58.6183 48.0987 58.8092L48.5243 59.0716C48.6703 58.8348 48.8194 58.4911 48.9737 58.0521L48.5019 57.8864ZM48.0967 58.8125C48.0569 58.8793 48.0188 58.897 47.96 58.897V59.397C48.2059 59.397 48.402 59.2769 48.5263 59.0684L48.0967 58.8125ZM47.96 58.897C47.9076 58.897 47.8626 58.8809 47.8155 58.8384L47.4804 59.2095C47.6149 59.331 47.7779 59.397 47.96 59.397V58.897ZM47.8185 58.8412C47.7783 58.8036 47.7661 58.7705 47.7661 58.7295H47.2661C47.2661 58.917 47.3418 59.0802 47.4774 59.2067L47.8185 58.8412ZM47.7661 58.7295C47.7661 58.7308 47.7667 58.7144 47.777 58.6708C47.7865 58.6305 47.8018 58.5772 47.824 58.5097C47.8682 58.3748 47.9361 58.1945 48.0289 57.9669L47.5659 57.7782C47.4711 58.0106 47.3984 58.2031 47.3489 58.3538C47.3032 58.4929 47.2661 58.6283 47.2661 58.7295H47.7661ZM48.0288 57.9671L49.0176 55.5457L48.5547 55.3567L47.5659 57.778L48.0288 57.9671ZM49.0136 55.5548C49.4446 54.609 49.8806 53.8952 50.3179 53.4022L49.9438 53.0704C49.4612 53.6146 49.0007 54.3773 48.5586 55.3475L49.0136 55.5548ZM50.3162 53.4041L50.3997 53.3118L50.029 52.9763L49.9455 53.0686L50.3162 53.4041ZM50.2193 52.8941L48.0133 52.8501L48.0033 53.35L50.2094 53.394L50.2193 52.8941ZM48.015 52.8502L47.0262 52.8238L47.0129 53.3236L48.0016 53.35L48.015 52.8502ZM47.0426 52.8248C46.934 52.8147 46.8911 52.7861 46.8757 52.7708C46.8642 52.7595 46.8433 52.7318 46.8433 52.6519H46.3433C46.3433 52.8268 46.3933 52.9969 46.524 53.1262C46.6506 53.2515 46.8209 53.3064 46.9964 53.3227L47.0426 52.8248ZM46.8433 52.6519C46.8433 52.5907 46.8608 52.5566 46.8898 52.5286L46.5428 52.1687C46.4077 52.2989 46.3433 52.4669 46.3433 52.6519H46.8433ZM46.8898 52.5286C46.9213 52.4982 46.9599 52.48 47.0239 52.48V51.98C46.8418 51.98 46.6753 52.0409 46.5428 52.1687L46.8898 52.5286ZM47.0239 52.48C47.389 52.48 47.9394 52.4916 48.6771 52.515L48.693 52.0153C47.9541 51.9918 47.3972 51.98 47.0239 51.98V52.48ZM48.6772 52.515C49.4189 52.5385 49.9773 52.5503 50.3506 52.5503V52.0503C49.9856 52.0503 49.4336 52.0387 48.693 52.0153L48.6772 52.515ZM50.3506 52.5503H51.1548V52.0503H50.3506V52.5503ZM51.1548 52.5503C51.2935 52.5503 51.3561 52.5724 51.3764 52.5844C51.3828 52.5882 51.3783 52.587 51.3734 52.5783C51.3687 52.5699 51.3706 52.5668 51.3706 52.5771H51.8706C51.8706 52.399 51.7873 52.247 51.6319 52.1546C51.4969 52.0744 51.3267 52.0503 51.1548 52.0503V52.5503ZM51.3706 52.5771C51.3706 52.6238 51.3323 52.7455 51.1607 52.9628L51.5532 53.2726C51.7332 53.0446 51.8706 52.8059 51.8706 52.5771H51.3706Z" fill="black"/>
</svg>
