<svg width="72" height="72" viewBox="0 0 72 72" fill="none" xmlns="http://www.w3.org/2000/svg">
<path d="M61.6841 59.7368L67.9999 66.0526" stroke="#2E2E2E" stroke-width="3" stroke-linecap="round" stroke-linejoin="round"/>
<path d="M58.5556 13.7778H7C5.89543 13.7778 5 14.6733 5 15.7778V50.6667C5 51.7713 5.89543 52.6667 7 52.6667H33.8889H58.5556C59.6601 52.6667 60.5556 51.7713 60.5556 50.6667V37.6667V15.7778C60.5556 14.6733 59.6601 13.7778 58.5556 13.7778Z" fill="#B8763C"/>
<path d="M23.3333 13.7778V8C23.3333 6.89543 24.2287 6 25.3333 6H39.111C40.2156 6 41.111 6.89543 41.111 8V13.7778" stroke="#B8753E" stroke-width="3" stroke-linecap="round" stroke-linejoin="round"/>
<path d="M38.6726 34.8889H42.0323H45.392C50.7846 34.8889 53.2705 33.4906 56.1143 31.0016C58.958 28.5126 60.5556 25.1367 60.5556 21.6167V15.7778C60.5556 14.6733 59.6601 13.7778 58.5556 13.7778H7C5.89543 13.7778 5 14.6733 5 15.7778V21.6167C5 25.1367 6.59759 28.5126 9.44131 31.0016C12.285 33.4906 14.2972 34.8889 20.1636 34.8889H26.1111" fill="#763D08"/>
<path d="M35.2222 31.5557H28.1111C27.0065 31.5557 26.1111 32.4511 26.1111 33.5557V36.2223C26.1111 37.3269 27.0065 38.2223 28.1111 38.2223H35.2222C36.3268 38.2223 37.2222 37.3269 37.2222 36.2223V33.5557C37.2222 32.4511 36.3268 31.5557 35.2222 31.5557Z" stroke="#8F5B30" stroke-width="3" stroke-linecap="round" stroke-linejoin="round"/>
<path d="M56.4211 61.8421C61.0719 61.8421 64.8421 58.0719 64.8421 53.4211C64.8421 48.7702 61.0719 45 56.4211 45C51.7702 45 48 48.7702 48 53.4211C48 58.0719 51.7702 61.8421 56.4211 61.8421Z" fill="white" stroke="#C7CECE" stroke-width="3" stroke-linecap="round" stroke-linejoin="round"/>
</svg>
