<svg width="72" height="72" viewBox="0 0 72 72" fill="none" xmlns="http://www.w3.org/2000/svg">
<path d="M65.9998 42.8744V54.2144C65.9998 55.3189 65.1044 56.2144 63.9998 56.2144H60.8856H41.4998C40.3952 56.2144 39.4998 55.3189 39.4998 54.2144V42.8744C39.1162 37.4076 43.0815 34.6255 45.3603 33.8084C45.5471 33.7415 45.7438 33.7144 45.9422 33.7144H57.2754C58.4275 33.7198 59.5672 33.9611 60.6294 34.4245C61.6916 34.888 62.6554 35.5644 63.4658 36.4152C64.2761 37.266 64.917 38.2744 65.3518 39.3827C65.7866 40.491 66.0068 41.6776 65.9998 42.8744Z" fill="#00317E"/>
<path d="M52.6072 33.7145C57.0452 33.7145 60.643 30.1168 60.643 25.6788C60.643 21.2408 57.0452 17.6431 52.6072 17.6431C48.1692 17.6431 44.5715 21.2408 44.5715 25.6788C44.5715 30.1168 48.1692 33.7145 52.6072 33.7145Z" fill="#F8E0C7"/>
<path d="M26.3571 33.7143C33.4579 33.7143 39.2143 27.9579 39.2143 20.8571C39.2143 13.7563 33.4579 8 26.3571 8C19.2563 8 13.5 13.7563 13.5 20.8571C13.5 27.9579 19.2563 33.7143 26.3571 33.7143Z" fill="#F8E0C7"/>
<path d="M34.431 33.7144H18.2833C15.0256 33.7144 11.9013 34.9936 9.59769 37.2706C7.29413 39.5477 6 42.636 6 45.8562V61.7144C6 62.8189 6.89543 63.7144 8 63.7144H44.7143C45.8189 63.7144 46.7143 62.8189 46.7143 61.7144V45.8562C46.7205 44.7651 46.0276 41.5688 43.2246 37.4291C43.1536 37.3243 43.0715 37.2254 42.9801 37.1378C40.6904 34.9439 37.6248 33.7144 34.431 33.7144Z" fill="#4ACCFB"/>
<path d="M51.6841 53.7368L57.9999 60.0526" stroke="#2E2E2E" stroke-width="3" stroke-linecap="round" stroke-linejoin="round"/>
<path d="M46.4211 55.8421C51.0719 55.8421 54.8421 52.0719 54.8421 47.4211C54.8421 42.7702 51.0719 39 46.4211 39C41.7702 39 38 42.7702 38 47.4211C38 52.0719 41.7702 55.8421 46.4211 55.8421Z" fill="white" stroke="#C7CECE" stroke-width="3" stroke-linecap="round" stroke-linejoin="round"/>
</svg>
