<svg width="72" height="73" viewBox="0 0 72 73" fill="none" xmlns="http://www.w3.org/2000/svg">
<g id="add-product">
<g id="Group">
<g id="Vector">
<path d="M4.0025 54.6298C4.0025 39.9207 4.0025 25.213 4.0025 10.5039C4.02625 10.4702 4.0625 10.4402 4.0725 10.4027C4.81752 7.73137 6.4288 6.50384 9.19385 6.50384C23.1241 6.50384 37.0556 6.53634 50.9859 6.47759C53.9572 6.46509 56.216 8.64889 56.171 11.6752C56.0773 18.1078 56.1473 24.5429 56.1323 30.9781C56.131 31.4356 56.2423 31.6543 56.6935 31.8381C62.2024 34.0681 65.7962 38.0432 67.4037 43.7733C67.6763 44.7471 67.8075 45.7609 68.0038 46.7559C68.0038 47.7146 68.0038 48.6722 68.0038 49.6309C67.93 50.0784 67.8662 50.5272 67.7812 50.9722C66.3787 58.3011 62.1424 63.2562 54.9585 65.1862C47.6584 67.1475 41.4657 64.8925 36.5944 59.1049C36.3094 58.7661 36.0394 58.6336 35.6031 58.6374C32.7506 58.6574 29.898 58.6474 27.0455 58.6474C20.9866 58.6474 14.9265 58.6549 8.8676 58.6436C6.4563 58.6386 4.71377 57.2523 4.11625 54.921C4.08875 54.8185 4.04 54.726 4.0025 54.6298ZM34.0218 54.796C31.883 48.5697 32.4818 42.7858 36.4469 37.6045C40.4007 32.4381 45.7996 30.2793 52.2697 30.7106C52.2822 30.5418 52.2984 30.4193 52.2984 30.2968C52.2997 24.0267 52.3022 17.7553 52.2972 11.4852C52.2959 10.6064 52.0272 10.3577 51.1122 10.3577C47.1121 10.3552 43.112 10.3552 39.1132 10.3589C38.9357 10.3589 38.7582 10.3889 38.5569 10.4064C38.5569 10.6227 38.5569 10.7864 38.5569 10.9502C38.5569 15.1578 38.5644 19.3666 38.5532 23.5742C38.5482 25.2405 37.3494 26.078 35.7819 25.5292C34.0743 24.9317 32.3793 24.2967 30.6643 23.7229C30.3255 23.6092 29.8868 23.5954 29.5505 23.7079C27.8542 24.2729 26.1554 24.8417 24.4992 25.5117C22.8379 26.183 21.5453 25.0167 21.5753 23.4529C21.6553 19.2878 21.6028 15.1203 21.6016 10.9539C21.6016 10.7727 21.5866 10.5914 21.5753 10.3577C21.3128 10.3577 21.0878 10.3577 20.8628 10.3577C16.9878 10.3577 13.1127 10.3577 9.23885 10.3577C8.04883 10.3577 7.85633 10.5477 7.85633 11.7239C7.85633 25.6192 7.85633 39.5145 7.85633 53.4098C7.85633 54.6185 8.03008 54.7973 9.2151 54.7973C17.2353 54.7973 25.2567 54.7973 33.2768 54.7973C33.5036 54.796 33.728 54.796 34.0192 54.796H34.0218ZM64.1462 48.2797C64.1624 40.7145 58.0398 34.5344 50.4997 34.5044C42.8795 34.4744 36.6719 40.622 36.6494 48.2209C36.6269 55.7773 42.8158 61.9887 50.3784 62.0012C57.9636 62.0137 64.1299 55.8686 64.1462 48.2797ZM25.4629 21.0604C26.6692 20.6329 27.798 20.2779 28.8905 19.8316C29.6955 19.5028 30.438 19.4991 31.2418 19.8166C32.3568 20.2566 33.4981 20.6279 34.6894 21.0504C34.6894 17.4453 34.6894 13.9227 34.6894 10.3877C31.5993 10.3877 28.5455 10.3877 25.4629 10.3877C25.4629 13.929 25.4629 17.4378 25.4629 21.0604Z" fill="#0D313B"/>
<path d="M64.1462 48.2797C64.1624 40.7145 58.0398 34.5344 50.4997 34.5044C42.8795 34.4744 36.6719 40.622 36.6494 48.2209C36.6269 55.7773 42.8158 61.9887 50.3784 62.0012C57.9636 62.0137 64.1299 55.8686 64.1462 48.2797Z" fill="#2894B4"/>
<path d="M25.4629 21.0604C26.6692 20.6329 27.798 20.2779 28.8905 19.8316C29.6955 19.5028 30.438 19.4991 31.2418 19.8166C32.3568 20.2566 33.4981 20.6279 34.6894 21.0504V10.3877H25.4629V21.0604Z" fill="#68D4F4"/>
</g>
<path id="Vector_2" d="M48.4958 50.1577C47.1146 50.1577 45.827 50.1765 44.5408 50.1515C43.5807 50.1327 42.8445 49.4452 42.707 48.5114C42.5757 47.6189 43.0932 46.7414 43.9695 46.4576C44.2783 46.3576 44.6233 46.3464 44.952 46.3426C46.112 46.3301 47.2721 46.3376 48.4946 46.3376C48.4946 44.9726 48.4783 43.6876 48.4996 42.4026C48.5158 41.4325 49.2359 40.6588 50.1846 40.5325C51.0471 40.4163 51.9647 40.99 52.2172 41.8463C52.3097 42.1601 52.3284 42.5026 52.3322 42.8326C52.3459 43.9738 52.3372 45.1164 52.3372 46.3389C52.9947 46.3389 53.5922 46.3376 54.1897 46.3389C54.9185 46.3414 55.6485 46.3164 56.3747 46.3589C57.3873 46.4176 58.1385 47.2664 58.1273 48.2764C58.116 49.2827 57.3435 50.1165 56.3272 50.149C55.246 50.1827 54.1622 50.1602 53.0809 50.1615C52.8572 50.1615 52.6347 50.1615 52.3372 50.1615C52.3372 51.4165 52.3734 52.599 52.3197 53.7778C52.2972 54.254 52.1659 54.7741 51.9272 55.1828C51.5184 55.8841 50.6171 56.1328 49.8396 55.8878C49.0621 55.6428 48.5108 54.9478 48.4983 54.1215C48.4821 52.8328 48.4958 51.544 48.4958 50.1577Z" fill="#0D313B"/>
</g>
</g>
</svg>
