<svg width="72" height="73" viewBox="0 0 72 73" fill="none" xmlns="http://www.w3.org/2000/svg">
<g id="customer">
<g id="Group 6">
<path id="Vector 550" d="M56.5 24.1289L51.5 20.1289L44 24.1289L45 32.1289L50.5 35.1289L56.5 31.6289V24.1289Z" fill="#2894B4"/>
<path id="Vector 85" d="M31.0223 21.3746L29.0012 31.5775L23.6118 33.6181L18.896 30.8973C18.6714 29.3102 18.2223 25.8639 18.2223 24.7756C18.2223 23.6873 19.1205 21.1479 19.5697 20.0142L26.3065 17.9736L31.0223 21.3746Z" fill="#2894B4"/>
<path id="person.2" d="M24.0784 36.4282C18.5568 36.4282 14.0848 31.5967 14.0848 25.6538C14.0848 19.8016 18.534 15.1289 24.0784 15.1289C29.5544 15.1289 34.072 19.8696 34.072 25.6992C34.0492 31.6194 29.5772 36.4282 24.0784 36.4282ZM50.5226 36.9499C45.7084 36.9499 41.8296 32.7082 41.8296 27.4684C41.8296 22.3648 45.7084 18.2365 50.5226 18.2365C55.2913 18.2365 59.2385 22.4328 59.2157 27.4911C59.2157 32.7309 55.3141 36.9499 50.5226 36.9499ZM24.0784 32.4587C27.2271 32.4587 29.8966 29.5099 29.8966 25.6765C29.8966 21.9792 27.2499 19.0984 24.0784 19.0984C20.8841 19.0984 18.2602 21.9338 18.2602 25.6538C18.2602 29.4645 20.9069 32.4587 24.0784 32.4587ZM50.5226 33.0258C53.1009 33.0258 55.2913 30.576 55.2913 27.4911C55.2913 24.5423 53.1237 22.1379 50.5226 22.1379C47.8759 22.1379 45.7312 24.497 45.7312 27.4684C45.7312 30.576 47.9216 33.0258 50.5226 33.0258ZM63.0716 57.7956H45.3433C46.5982 57.0697 47.4424 55.4139 47.2827 53.9168H63.277C63.7105 53.9168 63.893 53.7126 63.893 53.327C63.893 48.1326 57.7782 43.1877 50.5454 43.1877C47.99 43.1877 45.4346 43.8229 43.4724 44.9116C42.6966 43.8002 41.7383 42.8475 40.4834 42.0309C43.3811 40.2616 46.9861 39.309 50.5454 39.309C60.1968 39.309 68 46.1592 68 53.69C68 56.4119 66.3572 57.7956 63.0716 57.7956ZM38.293 57.7956H9.8638C5.91656 57.7956 3.99998 56.548 3.99998 53.8714C3.99998 47.6336 11.8488 39.3316 24.0784 39.3316C36.308 39.3316 44.1568 47.6336 44.1568 53.8714C44.1568 56.548 42.2403 57.7956 38.293 57.7956ZM39.0232 53.8261C39.5479 53.8261 39.7533 53.6446 39.7533 53.2363C39.7533 49.7658 34.1176 43.3012 24.0784 43.3012C14.0392 43.3012 8.40355 49.7658 8.40355 53.2363C8.40355 53.6446 8.60889 53.8261 9.15649 53.8261H39.0232Z" fill="#0D313B"/>
</g>
</g>
</svg>
