<svg width="72" height="73" viewBox="0 0 72 73" fill="none" xmlns="http://www.w3.org/2000/svg">
<g id="one-time-site">
<g id="Group 1171274996">
<g id="Vector">
<path d="M32.6144 68.1248C25.6673 68.1248 18.7182 68.1269 11.7711 68.1248C7.15408 68.1227 4.00154 64.9743 4.00154 60.3614C3.99949 46.6703 3.99949 32.9812 4.00154 19.2901C4.00154 14.667 7.14382 11.5247 11.7568 11.5083C12.4377 11.5062 13.3464 11.8057 13.7381 11.3749C14.0745 11.0037 13.8427 10.1115 13.8448 9.44895C13.853 6.16719 15.8856 4.1325 19.1674 4.13044C25.4745 4.12839 31.7816 4.12839 38.0867 4.13044C41.3193 4.13044 43.3745 6.17744 43.3806 9.39972C43.3827 9.93711 43.4073 10.4786 43.3724 11.0139C43.3458 11.4221 43.4832 11.5247 43.8831 11.5247C45.1343 11.5247 46.3937 11.4139 47.6305 11.7339C50.9492 12.5912 53.2095 15.4648 53.2198 18.9353C53.2382 25.2424 53.2341 31.5496 53.2116 37.8547C53.2095 38.4515 53.3592 38.5992 53.9541 38.6095C60.4212 38.7407 66.476 43.9074 67.68 50.2864C69.2635 58.6733 64.2506 66.1701 55.8964 67.891C55.0699 68.0612 54.2268 68.1289 53.3777 68.1289C46.4593 68.1207 39.5369 68.1248 32.6144 68.1248ZM38.4006 52.6492C38.5134 51.8698 38.5708 51.2319 38.7021 50.6125C39.822 45.3453 42.874 41.6717 47.8418 39.5981C48.1761 39.4586 48.3074 39.3068 48.3053 38.9376C48.293 32.2469 48.3053 25.5562 48.2869 18.8676C48.2828 17.4893 47.21 16.4822 45.8173 16.4494C45.1774 16.435 44.5354 16.4678 43.8955 16.4391C43.5139 16.4227 43.4073 16.5252 43.356 16.9293C43.0196 19.5875 41.0075 21.3494 38.339 21.3699C37.5699 21.3761 36.8007 21.3556 36.0315 21.3741C33.5497 21.4356 31.8186 20.3588 30.8976 18.0267C30.631 17.3518 30.1572 16.8657 29.4701 16.6114C28.1697 16.1273 26.8795 16.7304 26.3011 18.1128C25.3761 20.3198 23.7249 21.4028 21.3333 21.3741C20.437 21.3638 19.5386 21.3864 18.6423 21.3658C16.5748 21.3207 14.817 19.9957 14.0991 18.0451C13.9063 17.52 14.1237 16.7386 13.6027 16.5006C13.1146 16.2771 12.4459 16.4494 11.8552 16.4494C9.85333 16.4494 8.93033 17.3621 8.93033 19.3435C8.93033 33.0058 8.93033 46.6682 8.93033 60.3306C8.93033 62.2607 9.87179 63.2001 11.8101 63.2001C21.6779 63.2001 31.5478 63.2001 41.4157 63.2001C41.631 63.2001 41.8464 63.2001 42.1254 63.2001C39.6312 59.8732 38.86 57.9883 38.4026 54.0768C37.7339 55.6172 36.5382 55.8592 35.1024 55.849C28.9757 55.8059 22.8491 55.8305 16.7245 55.8285C16.3922 55.8285 16.0497 55.8346 15.7318 55.7587C14.5011 55.4613 13.6971 54.2819 13.8509 53.0472C14.0068 51.7919 15.059 50.8997 16.4292 50.8976C22.7855 50.8914 29.1439 50.912 35.5003 50.8812C36.8171 50.8668 37.7832 51.2935 38.4006 52.6492ZM53.2485 43.5116C47.7802 43.5218 43.3765 47.9235 43.3827 53.3733C43.3888 58.8128 47.811 63.2042 53.2833 63.2001C58.7023 63.1981 63.0856 58.7472 63.0712 53.2584C63.0589 47.9174 58.6101 43.5013 53.2485 43.5116ZM38.46 12.7533C38.46 11.7277 38.4436 10.7022 38.4682 9.67662C38.4785 9.24384 38.4026 9.04078 37.8919 9.04078C31.714 9.05719 25.534 9.05719 19.3561 9.04078C18.8659 9.03873 18.7551 9.20282 18.7613 9.65816C18.7859 11.2478 18.7613 12.8374 18.7756 14.427C18.7818 15.0628 18.5028 15.8894 18.8843 16.2853C19.3048 16.7181 20.1499 16.353 20.8001 16.4453C21.4174 16.5314 21.6636 16.2504 21.9282 15.7171C23.1773 13.2004 25.2612 11.7667 28.0425 11.5493C30.8997 11.3257 33.3569 12.4107 34.7332 14.9151C35.5495 16.4022 36.4171 16.7775 37.8796 16.4473C37.9042 16.4412 37.9309 16.4412 37.9555 16.4453C38.3718 16.4965 38.4744 16.2894 38.4682 15.9038C38.4477 14.8557 38.46 13.8034 38.46 12.7533Z" fill="#0D313B"/>
<path d="M38.46 12.7533C38.46 11.7277 38.4436 10.7022 38.4682 9.67662C38.4785 9.24384 38.4026 9.04078 37.8919 9.04078C31.714 9.05719 25.534 9.05719 19.3561 9.04078C18.8659 9.03873 18.7551 9.20282 18.7613 9.65816C18.7859 11.2478 18.7613 12.8374 18.7756 14.427C18.7818 15.0628 18.5028 15.8894 18.8843 16.2853C19.3048 16.7181 20.1499 16.353 20.8001 16.4453C21.4174 16.5314 21.6636 16.2504 21.9282 15.7171C23.1773 13.2004 25.2612 11.7667 28.0425 11.5493C30.8997 11.3257 33.3569 12.4107 34.7332 14.9151C35.5495 16.4022 36.4171 16.7775 37.8796 16.4473C37.9042 16.4412 37.9309 16.4412 37.9555 16.4453C38.3718 16.4965 38.4744 16.2894 38.4682 15.9038C38.4477 14.8557 38.46 13.8034 38.46 12.7533Z" fill="#68D4F4"/>
<path d="M53.2485 43.5116C47.7802 43.5218 43.3765 47.9235 43.3827 53.3733C43.3888 58.8128 47.811 63.2042 53.2833 63.2001C58.7023 63.1981 63.0856 58.7472 63.0712 53.2584C63.0589 47.9174 58.6101 43.5013 53.2485 43.5116Z" fill="#2894B4"/>
</g>
<path id="Vector_2" d="M26.1536 45.9788C22.8718 45.9788 19.5921 45.989 16.3103 45.9726C15.0223 45.9665 13.9762 45.0025 13.849 43.7779C13.7239 42.5514 14.4931 41.4356 15.7012 41.1218C15.9206 41.0643 16.1565 41.0459 16.3842 41.0459C22.8944 41.0418 29.4066 41.0397 35.9168 41.0459C37.2295 41.0479 38.2776 41.9443 38.4479 43.1647C38.6222 44.3994 37.8346 45.5809 36.6019 45.8967C36.3086 45.9706 35.9948 45.9767 35.6892 45.9767C32.512 45.9808 29.3328 45.9788 26.1536 45.9788Z" fill="#0D313B"/>
<path id="Vector_3" d="M22.3857 36.1333C20.4372 36.1333 18.4907 36.1374 16.5421 36.1313C14.9423 36.1272 13.8244 35.0811 13.8429 33.6248C13.8614 32.1993 14.9648 31.1984 16.5401 31.1984C20.4864 31.1943 24.4348 31.1943 28.3811 31.1984C29.981 31.2004 31.1009 32.2444 31.0824 33.7028C31.0639 35.1242 29.9522 36.1292 28.3831 36.1333C26.3833 36.1374 24.3835 36.1333 22.3857 36.1333Z" fill="#0D313B"/>
<path id="Vector_4" d="M55.6893 50.1427C55.1642 51.8985 56.2082 52.9384 57.3404 54.0275C58.8152 55.4469 58.1957 57.7072 56.2657 58.2015C55.4042 58.423 54.633 58.2036 53.9971 57.5923C53.148 56.7739 52.3255 55.9289 51.4928 55.0941C50.9964 54.5977 50.7646 53.9947 50.7646 53.2932C50.7687 51.679 50.7502 50.0627 50.7708 48.4485C50.7892 47.023 51.8866 45.9544 53.2649 45.9749C54.6063 45.9934 55.6503 47.0579 55.6852 48.4526C55.6996 49.0146 55.6893 49.5787 55.6893 50.1427Z" fill="#0D313B"/>
</g>
</g>
</svg>
