<svg width="72" height="73" viewBox="0 0 72 73" fill="none" xmlns="http://www.w3.org/2000/svg">
<g id="pricelist">
<g id="Group">
<path id="Vector" d="M17.9614 68.0134C16.705 68.0134 15.6378 67.6731 14.6974 66.9719C13.4307 66.0276 12.7615 64.6765 12.6515 62.8429C12.6412 62.6702 12.6425 62.5 12.6438 62.3362C12.6438 62.2799 12.6451 62.2236 12.6451 62.1674V50.9422C12.6463 37.5482 12.6476 23.6975 12.6297 10.0758C12.6272 8.3574 13.0763 6.96529 14.0013 5.81756C14.5682 5.11511 15.3602 4.6225 16.4222 4.31029C16.5271 4.27959 16.632 4.24248 16.7421 4.20409C16.7958 4.1849 16.8483 4.16699 16.902 4.14908L16.9583 4.12988H54.8997L54.9548 4.1478C55.0469 4.1785 55.139 4.20793 55.2311 4.23608C55.4371 4.30134 55.6495 4.36787 55.8581 4.44848C57.5905 5.10999 58.6858 6.48035 59.117 8.5199C59.2027 8.92806 59.2104 9.34774 59.2104 9.77766C59.213 20.2569 59.213 30.7348 59.2143 41.214C59.2143 48.2782 59.2143 55.3424 59.2155 62.4053C59.2155 63.635 58.998 64.5844 58.531 65.393C57.5291 67.1293 55.9668 68.0109 53.8876 68.0109C51.051 68.0109 39.4342 68.0109 39.4342 68.0109H33.4896L25.2124 68.0096C22.798 68.0096 20.3836 68.0109 17.9704 68.0134H17.9614ZM48.2373 65.9611C48.8118 65.9611 49.3876 65.9637 49.9621 65.965C50.5366 65.9675 51.1098 65.9688 51.6843 65.9688C52.58 65.9688 53.3157 65.9637 53.999 65.9522C55.4026 65.9278 56.3315 65.3444 56.7589 64.2171C56.9981 63.5876 57.1299 62.8979 57.1299 62.2774C57.1478 47.1881 57.1478 31.8454 57.1466 17.0082V9.95295C57.1466 9.85827 57.144 9.76486 57.1414 9.67018C57.1376 9.52687 57.1325 9.37845 57.1376 9.22875C57.1581 8.5634 56.8331 7.83408 56.2445 7.22759C55.5958 6.5584 54.7449 6.15919 53.9682 6.15919C53.9452 6.15919 53.9209 6.15919 53.8979 6.16047C53.1366 6.1835 52.319 6.19502 51.326 6.19502C50.6722 6.19502 50.0171 6.1899 49.3633 6.18606C48.7107 6.18094 48.0582 6.1771 47.4056 6.1771H37.3678C31.2658 6.1771 24.707 6.17838 18.0932 6.18862C17.6121 6.1899 17.0709 6.21677 16.7024 6.41126C15.318 7.14186 14.6782 8.28574 14.6884 10.0131C14.7268 16.4196 14.7204 22.9336 14.7153 29.2327C14.7128 31.5076 14.7115 33.7826 14.7115 36.0576V40.1098C14.7115 47.4798 14.7115 54.8498 14.714 62.2198V62.3631C14.7128 62.6664 14.7115 62.9543 14.7601 63.2229C15.0058 64.6035 15.6903 65.4455 16.8521 65.7948C17.2078 65.9023 17.6339 65.9547 18.1534 65.9547C25.0346 65.9611 31.9107 65.9624 38.3172 65.9624L48.2373 65.9611Z" fill="#0D313B"/>
<g id="Vector_2">
<mask id="path-2-inside-1_6461_46812" fill="white">
<path d="M44.949 19.4083C44.9758 24.5366 40.9812 28.7053 36.009 28.7398C30.9869 28.7744 26.9181 24.6594 26.9129 19.5081C26.9078 14.408 30.7617 10.1242 35.9092 10.1114C40.9044 10.0986 44.9221 14.2301 44.949 19.4083ZM36.0039 11.4459C31.9517 11.3371 28.2987 14.9326 28.2385 19.3251C28.1784 23.687 31.596 27.3439 35.8555 27.4117C40.0484 27.4782 43.5466 23.9224 43.6183 19.535C43.6861 15.2013 40.1789 11.4357 36.0039 11.4459Z"/>
<path d="M36.0039 11.4459C31.9517 11.3371 28.2987 14.9326 28.2385 19.3251C28.1784 23.687 31.596 27.3439 35.8555 27.4117C40.0484 27.4782 43.5466 23.9224 43.6183 19.535C43.6861 15.2013 40.1789 11.4357 36.0039 11.4459Z"/>
</mask>
<path d="M44.949 19.4083C44.9758 24.5366 40.9812 28.7053 36.009 28.7398C30.9869 28.7744 26.9181 24.6594 26.9129 19.5081C26.9078 14.408 30.7617 10.1242 35.9092 10.1114C40.9044 10.0986 44.9221 14.2301 44.949 19.4083ZM36.0039 11.4459C31.9517 11.3371 28.2987 14.9326 28.2385 19.3251C28.1784 23.687 31.596 27.3439 35.8555 27.4117C40.0484 27.4782 43.5466 23.9224 43.6183 19.535C43.6861 15.2013 40.1789 11.4357 36.0039 11.4459Z" fill="#0D313B"/>
<path d="M36.0039 11.4459C31.9517 11.3371 28.2987 14.9326 28.2385 19.3251C28.1784 23.687 31.596 27.3439 35.8555 27.4117C40.0484 27.4782 43.5466 23.9224 43.6183 19.535C43.6861 15.2013 40.1789 11.4357 36.0039 11.4459Z" fill="#2894B4"/>
<path d="M36.0039 11.4459L35.9905 11.9457L35.9978 11.9459L36.0051 11.9459L36.0039 11.4459ZM28.2385 19.3251L28.7385 19.332L28.7385 19.332L28.2385 19.3251ZM35.8555 27.4117L35.8475 27.9116H35.8475L35.8555 27.4117ZM43.6183 19.535L44.1182 19.5431L44.1182 19.5428L43.6183 19.535ZM36.0173 10.9461C31.6652 10.8293 27.8022 14.6688 27.7386 19.3183L28.7385 19.332C28.7951 15.1963 32.2382 11.845 35.9905 11.9457L36.0173 10.9461ZM27.7386 19.3182C27.6748 23.9404 31.2971 27.8392 35.8475 27.9116L35.8634 26.9117C31.8948 26.8485 28.6819 23.4336 28.7385 19.332L27.7386 19.3182ZM35.8475 27.9116C40.3385 27.9829 44.0424 24.1841 44.1182 19.5431L43.1183 19.5268C43.0508 23.6608 39.7583 26.9735 35.8634 26.9117L35.8475 27.9116ZM44.1182 19.5428C44.19 14.9538 40.4812 10.9349 36.0027 10.9459L36.0051 11.9459C39.8767 11.9364 43.1821 15.4487 43.1183 19.5272L44.1182 19.5428ZM44.949 19.4083L43.949 19.4135V19.4135L44.949 19.4083ZM36.009 28.7398L36.0159 29.7398L36.0159 29.7398L36.009 28.7398ZM26.9129 19.5081L27.9129 19.5071L27.9129 19.5071L26.9129 19.5081ZM35.9092 10.1114L35.9117 11.1114L35.9118 11.1114L35.9092 10.1114ZM43.949 19.4135C43.9731 24.0193 40.394 27.7093 36.0021 27.7398L36.0159 29.7398C41.5683 29.7012 45.9786 25.0539 45.9489 19.4031L43.949 19.4135ZM36.0021 27.7398C31.5549 27.7704 27.9175 24.1244 27.9129 19.5071L25.9129 19.5091C25.9186 25.1945 30.4189 29.7783 36.0159 29.7398L36.0021 27.7398ZM27.9129 19.5071C27.9083 14.9022 31.3707 11.1226 35.9117 11.1114L35.9067 9.11136C30.1527 9.12566 25.9073 13.9137 25.9129 19.5091L27.9129 19.5071ZM35.9118 11.1114C40.3224 11.1001 43.9248 14.7526 43.949 19.4135L45.9489 19.4031C45.9194 13.7076 41.4865 9.09707 35.9066 9.11136L35.9118 11.1114Z" fill="#0D313B" mask="url(#path-2-inside-1_6461_46812)"/>
</g>
<g id="Vector_3">
<mask id="path-4-outside-2_6461_46812" maskUnits="userSpaceOnUse" x="29.0981" y="49.6406" width="23" height="4" fill="black">
<rect fill="white" x="29.0981" y="49.6406" width="23" height="4"/>
<path d="M40.257 52.1069C37.2668 52.1069 34.2753 52.1069 31.2851 52.1069C31.0867 52.1069 30.8871 52.1133 30.6914 52.0915C30.2909 52.0455 30.113 51.796 30.099 51.4057C30.0836 51.0052 30.2794 50.7621 30.6568 50.6815C30.8475 50.6406 31.0509 50.6572 31.248 50.6572C37.2489 50.6559 43.2511 50.6559 49.252 50.6572C49.4695 50.6572 49.7446 50.5971 49.8892 50.7058C50.1131 50.8722 50.3473 51.1421 50.3933 51.4006C50.456 51.7538 50.2334 52.048 49.8227 52.0903C49.6269 52.1107 49.4273 52.1069 49.229 52.1069C46.2387 52.1069 43.2485 52.1069 40.257 52.1069Z"/>
</mask>
<path d="M40.257 52.1069C37.2668 52.1069 34.2753 52.1069 31.2851 52.1069C31.0867 52.1069 30.8871 52.1133 30.6914 52.0915C30.2909 52.0455 30.113 51.796 30.099 51.4057C30.0836 51.0052 30.2794 50.7621 30.6568 50.6815C30.8475 50.6406 31.0509 50.6572 31.248 50.6572C37.2489 50.6559 43.2511 50.6559 49.252 50.6572C49.4695 50.6572 49.7446 50.5971 49.8892 50.7058C50.1131 50.8722 50.3473 51.1421 50.3933 51.4006C50.456 51.7538 50.2334 52.048 49.8227 52.0903C49.6269 52.1107 49.4273 52.1069 49.229 52.1069C46.2387 52.1069 43.2485 52.1069 40.257 52.1069Z" fill="#0D313B"/>
<path d="M40.257 52.1069C37.2668 52.1069 34.2753 52.1069 31.2851 52.1069C31.0867 52.1069 30.8871 52.1133 30.6914 52.0915C30.2909 52.0455 30.113 51.796 30.099 51.4057C30.0836 51.0052 30.2794 50.7621 30.6568 50.6815C30.8475 50.6406 31.0509 50.6572 31.248 50.6572C37.2489 50.6559 43.2511 50.6559 49.252 50.6572C49.4695 50.6572 49.7446 50.5971 49.8892 50.7058C50.1131 50.8722 50.3473 51.1421 50.3933 51.4006C50.456 51.7538 50.2334 52.048 49.8227 52.0903C49.6269 52.1107 49.4273 52.1069 49.229 52.1069C46.2387 52.1069 43.2485 52.1069 40.257 52.1069Z" stroke="#0D313B" stroke-width="1.6" mask="url(#path-4-outside-2_6461_46812)"/>
</g>
<path id="Vector_4" d="M30.942 35.6126C30.7757 35.6126 30.6414 35.5794 30.5288 35.5116C30.0988 35.248 29.8519 34.9806 29.7751 34.6927C29.7099 34.4496 29.7419 34.2154 29.8685 34.0171C30.0182 33.7817 30.2895 33.6192 30.6324 33.5578C30.7514 33.5373 30.8653 33.5334 30.951 33.5334C30.9894 33.5334 31.0278 33.5334 31.0662 33.5347C31.1007 33.5347 31.1353 33.536 31.1698 33.536H38.4054C42.0546 33.536 45.7038 33.536 49.3542 33.5373C49.3926 33.5373 49.4336 33.5347 49.4758 33.5334C49.5295 33.5309 49.5858 33.5283 49.6396 33.5283C49.7944 33.5283 49.994 33.545 50.1578 33.6767C50.3305 33.8162 50.7348 34.1847 50.7464 34.6095C50.7592 35.0893 50.1424 35.4553 50.0721 35.4962C49.9044 35.5922 49.7202 35.6037 49.5961 35.6037C49.5321 35.6037 49.4668 35.5999 49.4016 35.596C49.3504 35.5935 49.3005 35.5896 49.2519 35.5896C47.4337 35.5909 45.6155 35.5909 43.7986 35.5909C43.7986 35.5909 33.0993 35.5909 31.3054 35.5909C31.2581 35.5909 31.2082 35.596 31.157 35.5999C31.0866 35.6063 31.0163 35.6126 30.942 35.6126Z" fill="#0D313B"/>
<g id="Vector_5">
<mask id="path-6-outside-3_6461_46812" maskUnits="userSpaceOnUse" x="29.1056" y="32.8916" width="23" height="4" fill="black">
<rect fill="white" x="29.1056" y="32.8916" width="23" height="4"/>
<path d="M40.2762 35.2284C37.2847 35.2284 34.2944 35.2284 31.3029 35.2284C31.1046 35.2284 30.8653 35.2898 30.7182 35.2002C30.4802 35.0544 30.1898 34.8381 30.1258 34.5976C30.0247 34.2188 30.3177 33.9821 30.6952 33.9143C30.8487 33.8874 31.0112 33.899 31.1699 33.899C37.2309 33.899 43.292 33.8977 49.3543 33.9002C49.5501 33.9002 49.8034 33.858 49.9301 33.9604C50.1361 34.1254 50.3766 34.3916 50.383 34.6206C50.3882 34.8087 50.1054 35.0608 49.8917 35.1823C49.7241 35.2783 49.4669 35.2284 49.2494 35.2284C46.2579 35.2296 43.2677 35.2284 40.2762 35.2284Z"/>
</mask>
<path d="M40.2762 35.2284C37.2847 35.2284 34.2944 35.2284 31.3029 35.2284C31.1046 35.2284 30.8653 35.2898 30.7182 35.2002C30.4802 35.0544 30.1898 34.8381 30.1258 34.5976C30.0247 34.2188 30.3177 33.9821 30.6952 33.9143C30.8487 33.8874 31.0112 33.899 31.1699 33.899C37.2309 33.899 43.292 33.8977 49.3543 33.9002C49.5501 33.9002 49.8034 33.858 49.9301 33.9604C50.1361 34.1254 50.3766 34.3916 50.383 34.6206C50.3882 34.8087 50.1054 35.0608 49.8917 35.1823C49.7241 35.2783 49.4669 35.2284 49.2494 35.2284C46.2579 35.2296 43.2677 35.2284 40.2762 35.2284Z" fill="#0D313B"/>
<path d="M40.2762 35.2284C37.2847 35.2284 34.2944 35.2284 31.3029 35.2284C31.1046 35.2284 30.8653 35.2898 30.7182 35.2002C30.4802 35.0544 30.1898 34.8381 30.1258 34.5976C30.0247 34.2188 30.3177 33.9821 30.6952 33.9143C30.8487 33.8874 31.0112 33.899 31.1699 33.899C37.2309 33.899 43.292 33.8977 49.3543 33.9002C49.5501 33.9002 49.8034 33.858 49.9301 33.9604C50.1361 34.1254 50.3766 34.3916 50.383 34.6206C50.3882 34.8087 50.1054 35.0608 49.8917 35.1823C49.7241 35.2783 49.4669 35.2284 49.2494 35.2284C46.2579 35.2296 43.2677 35.2284 40.2762 35.2284Z" stroke="#0D313B" stroke-width="1.6" mask="url(#path-6-outside-3_6461_46812)"/>
</g>
<path id="Vector_6" d="M30.9382 44.0495C30.8154 44.0495 30.6337 44.038 30.4687 43.9394C30.31 43.8448 29.7931 43.5018 29.7752 43.0489C29.7636 42.7559 29.9505 42.4578 30.3637 42.1097C30.5186 41.9792 30.7156 41.9639 30.85 41.9639C30.9011 41.9639 30.9536 41.9664 31.0048 41.969C31.0432 41.9703 31.0803 41.9728 31.1148 41.9728C34.0347 41.9715 36.9545 41.9715 39.8731 41.9715C43.0552 41.9715 46.2374 41.9715 49.4195 41.9728C49.4502 41.9728 49.4835 41.9715 49.5168 41.9703C49.5603 41.969 49.6038 41.9677 49.6473 41.9677C49.8021 41.9677 50.0004 41.9843 50.1617 42.1123C50.5813 42.445 50.7707 42.7469 50.7426 43.0348C50.6965 43.5057 50.1796 43.8601 50.0772 43.9254C49.9083 44.0341 49.7164 44.0456 49.5859 44.0456C49.5219 44.0456 49.4554 44.0418 49.3901 44.038C49.3389 44.0354 49.289 44.0316 49.2417 44.0316C47.435 44.0328 45.6296 44.0328 43.8242 44.0328H36.6385C34.8561 44.0328 33.075 44.0328 31.2927 44.0316C31.2428 44.0316 31.1903 44.0354 31.1378 44.038C31.0739 44.0456 31.0048 44.0495 30.9382 44.0495Z" fill="#0D313B"/>
<g id="Vector_7">
<mask id="path-8-outside-4_6461_46812" maskUnits="userSpaceOnUse" x="29.1371" y="41.3281" width="23" height="4" fill="black">
<rect fill="white" x="29.1371" y="41.3281" width="23" height="4"/>
<path d="M40.2109 43.673C37.2399 43.673 34.2676 43.673 31.2966 43.6717C31.079 43.6717 30.8193 43.7255 30.6542 43.6282C30.4316 43.4952 30.145 43.2456 30.1373 43.0358C30.1284 42.8221 30.3932 42.5598 30.5967 42.3884C30.7067 42.2962 30.9383 42.3372 31.1149 42.3372C37.2156 42.3346 43.3176 42.3346 49.4183 42.3372C49.5949 42.3372 49.8201 42.3052 49.9365 42.3973C50.1336 42.5534 50.401 42.8106 50.3831 43.0013C50.3613 43.2277 50.1029 43.4811 49.8828 43.6218C49.7241 43.7242 49.4593 43.6717 49.243 43.6717C46.2323 43.6743 43.2216 43.673 40.2109 43.673Z"/>
</mask>
<path d="M40.2109 43.673C37.2399 43.673 34.2676 43.673 31.2966 43.6717C31.079 43.6717 30.8193 43.7255 30.6542 43.6282C30.4316 43.4952 30.145 43.2456 30.1373 43.0358C30.1284 42.8221 30.3932 42.5598 30.5967 42.3884C30.7067 42.2962 30.9383 42.3372 31.1149 42.3372C37.2156 42.3346 43.3176 42.3346 49.4183 42.3372C49.5949 42.3372 49.8201 42.3052 49.9365 42.3973C50.1336 42.5534 50.401 42.8106 50.3831 43.0013C50.3613 43.2277 50.1029 43.4811 49.8828 43.6218C49.7241 43.7242 49.4593 43.6717 49.243 43.6717C46.2323 43.6743 43.2216 43.673 40.2109 43.673Z" fill="#0D313B"/>
<path d="M40.2109 43.673C37.2399 43.673 34.2676 43.673 31.2966 43.6717C31.079 43.6717 30.8193 43.7255 30.6542 43.6282C30.4316 43.4952 30.145 43.2456 30.1373 43.0358C30.1284 42.8221 30.3932 42.5598 30.5967 42.3884C30.7067 42.2962 30.9383 42.3372 31.1149 42.3372C37.2156 42.3346 43.3176 42.3346 49.4183 42.3372C49.5949 42.3372 49.8201 42.3052 49.9365 42.3973C50.1336 42.5534 50.401 42.8106 50.3831 43.0013C50.3613 43.2277 50.1029 43.4811 49.8828 43.6218C49.7241 43.7242 49.4593 43.6717 49.243 43.6717C46.2323 43.6743 43.2216 43.673 40.2109 43.673Z" stroke="#0D313B" stroke-width="1.6" mask="url(#path-8-outside-4_6461_46812)"/>
</g>
<path id="Vector_8" d="M30.8922 60.8007C30.7848 60.8007 30.6235 60.7904 30.4713 60.7047C30.2167 60.5601 29.7867 60.2569 29.7752 59.8628C29.7637 59.4776 30.0606 59.0963 30.3165 58.8878C30.4918 58.7445 30.7144 58.7266 30.8884 58.7266C30.9421 58.7266 30.9972 58.7291 31.0509 58.7304C31.0944 58.7317 31.1366 58.7342 31.1763 58.7342C35.4409 58.7317 39.7055 58.7317 43.9689 58.7317H49.6013C50.3229 58.7317 50.7708 59.1283 50.7708 59.7655C50.7708 60.2044 50.5635 60.4462 50.3908 60.5716C50.1924 60.7149 49.9276 60.7866 49.6039 60.7866C48.5854 60.784 47.572 60.784 46.5586 60.784L42.6471 60.7853C42.6471 60.7853 33.2312 60.7853 31.2364 60.784C31.1891 60.784 31.1405 60.7879 31.0918 60.7917C31.024 60.7955 30.9562 60.8007 30.8922 60.8007Z" fill="#0D313B"/>
<g id="Vector_9">
<mask id="path-10-outside-5_6461_46812" maskUnits="userSpaceOnUse" x="29.1371" y="58.0879" width="23" height="4" fill="black">
<rect fill="white" x="29.1371" y="58.0879" width="23" height="4"/>
<path d="M40.2096 60.422C37.2181 60.422 34.2266 60.422 31.2351 60.4207C31.0367 60.4207 30.8026 60.4745 30.6503 60.3887C30.4354 60.2659 30.1424 60.0407 30.1372 59.8513C30.1308 59.621 30.3445 59.3306 30.5454 59.1668C30.6836 59.0542 30.9612 59.0951 31.1775 59.0951C37.2194 59.0926 43.2612 59.0926 49.3031 59.0926C49.4016 59.0926 49.5014 59.0926 49.5999 59.0926C50.0567 59.0926 50.406 59.2794 50.4073 59.7643C50.4073 60.2518 50.0605 60.4233 49.5986 60.4233C47.2814 60.4182 44.963 60.422 42.6458 60.422C41.8333 60.422 41.0221 60.422 40.2096 60.422Z"/>
</mask>
<path d="M40.2096 60.422C37.2181 60.422 34.2266 60.422 31.2351 60.4207C31.0367 60.4207 30.8026 60.4745 30.6503 60.3887C30.4354 60.2659 30.1424 60.0407 30.1372 59.8513C30.1308 59.621 30.3445 59.3306 30.5454 59.1668C30.6836 59.0542 30.9612 59.0951 31.1775 59.0951C37.2194 59.0926 43.2612 59.0926 49.3031 59.0926C49.4016 59.0926 49.5014 59.0926 49.5999 59.0926C50.0567 59.0926 50.406 59.2794 50.4073 59.7643C50.4073 60.2518 50.0605 60.4233 49.5986 60.4233C47.2814 60.4182 44.963 60.422 42.6458 60.422C41.8333 60.422 41.0221 60.422 40.2096 60.422Z" fill="#0D313B"/>
<path d="M40.2096 60.422C37.2181 60.422 34.2266 60.422 31.2351 60.4207C31.0367 60.4207 30.8026 60.4745 30.6503 60.3887C30.4354 60.2659 30.1424 60.0407 30.1372 59.8513C30.1308 59.621 30.3445 59.3306 30.5454 59.1668C30.6836 59.0542 30.9612 59.0951 31.1775 59.0951C37.2194 59.0926 43.2612 59.0926 49.3031 59.0926C49.4016 59.0926 49.5014 59.0926 49.5999 59.0926C50.0567 59.0926 50.406 59.2794 50.4073 59.7643C50.4073 60.2518 50.0605 60.4233 49.5986 60.4233C47.2814 60.4182 44.963 60.422 42.6458 60.422C41.8333 60.422 41.0221 60.422 40.2096 60.422Z" stroke="#0D313B" stroke-width="1.6" mask="url(#path-10-outside-5_6461_46812)"/>
</g>
<path id="Vector_10" d="M23.4659 62.5047C23.0756 62.5047 22.757 62.2271 22.4704 61.9264C22.1032 61.5412 21.7488 61.1369 21.4059 60.7454L21.3572 60.6904C20.9644 60.2412 20.9683 59.7064 21.3688 59.2944C21.6387 59.0168 21.9138 58.9579 22.0968 58.9579C22.354 58.9579 22.6061 59.0705 22.8261 59.2829C23.0283 59.4787 23.2061 59.6821 23.4147 59.9163C23.4262 59.9303 23.439 59.9431 23.4505 59.9572C23.4505 59.9572 24.9424 58.3527 25.5259 57.7257C25.5617 57.6873 25.5988 57.6502 25.6372 57.6144C25.6692 57.5837 25.7012 57.5517 25.7319 57.5184C26.0288 57.1922 26.3256 57.0322 26.6391 57.0322C26.8707 57.0322 27.0971 57.1218 27.3108 57.2971C27.5207 57.4698 27.6461 57.718 27.6627 57.9957C27.6844 58.3501 27.5309 58.7276 27.2417 59.0308C26.4024 59.9099 25.4261 60.9322 24.4575 61.9328C24.1709 62.2309 23.8523 62.5047 23.4659 62.5047Z" fill="#0D313B"/>
<g id="Vector_11">
<mask id="path-12-outside-6_6461_46812" maskUnits="userSpaceOnUse" x="20.4311" y="56.3955" width="8" height="7" fill="black">
<rect fill="white" x="20.4311" y="56.3955" width="8" height="7"/>
<path d="M23.4455 60.4961C24.2912 59.5864 25.041 58.779 25.7921 57.9729C25.8599 57.9 25.9341 57.8347 26.0007 57.7618C26.3129 57.4176 26.666 57.2372 27.0806 57.5775C27.4145 57.8513 27.3621 58.3798 26.9795 58.7816C26.0544 59.7501 25.1293 60.7187 24.1978 61.6809C23.6041 62.2951 23.3265 62.2951 22.7341 61.6745C22.3553 61.2779 21.9945 60.8633 21.6324 60.4488C21.3739 60.1532 21.3547 59.8295 21.6311 59.5454C21.9292 59.2396 22.2734 59.2486 22.5754 59.5429C22.8569 59.818 23.1077 60.1238 23.4455 60.4961Z"/>
</mask>
<path d="M23.4455 60.4961C24.2912 59.5864 25.041 58.779 25.7921 57.9729C25.8599 57.9 25.9341 57.8347 26.0007 57.7618C26.3129 57.4176 26.666 57.2372 27.0806 57.5775C27.4145 57.8513 27.3621 58.3798 26.9795 58.7816C26.0544 59.7501 25.1293 60.7187 24.1978 61.6809C23.6041 62.2951 23.3265 62.2951 22.7341 61.6745C22.3553 61.2779 21.9945 60.8633 21.6324 60.4488C21.3739 60.1532 21.3547 59.8295 21.6311 59.5454C21.9292 59.2396 22.2734 59.2486 22.5754 59.5429C22.8569 59.818 23.1077 60.1238 23.4455 60.4961Z" fill="#0D313B"/>
<path d="M23.4455 60.4961C24.2912 59.5864 25.041 58.779 25.7921 57.9729C25.8599 57.9 25.9341 57.8347 26.0007 57.7618C26.3129 57.4176 26.666 57.2372 27.0806 57.5775C27.4145 57.8513 27.3621 58.3798 26.9795 58.7816C26.0544 59.7501 25.1293 60.7187 24.1978 61.6809C23.6041 62.2951 23.3265 62.2951 22.7341 61.6745C22.3553 61.2779 21.9945 60.8633 21.6324 60.4488C21.3739 60.1532 21.3547 59.8295 21.6311 59.5454C21.9292 59.2396 22.2734 59.2486 22.5754 59.5429C22.8569 59.818 23.1077 60.1238 23.4455 60.4961Z" stroke="#0D313B" stroke-width="1.6" mask="url(#path-12-outside-6_6461_46812)"/>
</g>
<path id="Vector_12" d="M23.4749 54.0681C23.2791 54.0681 22.981 54.0015 22.6663 53.688C22.5409 53.5626 22.4155 53.4385 22.2901 53.3131C22.0086 53.0329 21.7258 52.7527 21.4482 52.4687C20.9453 51.9556 20.9172 51.3376 21.3752 50.8578C21.6426 50.5775 21.9139 50.5174 22.0943 50.5174C22.4001 50.5174 22.697 50.6748 22.9785 50.9857C23.077 51.0945 23.1742 51.2071 23.2689 51.3184L23.6707 50.9768C24.3053 50.4368 24.94 49.8981 25.572 49.3556C25.6207 49.3134 25.6706 49.2609 25.7243 49.2059C25.7934 49.133 25.8714 49.0511 25.9636 48.9769C26.1862 48.7977 26.4408 48.6992 26.6801 48.6992C26.9705 48.6992 27.2264 48.8438 27.3838 49.0971C27.5732 49.4017 27.6653 50.0824 27.371 50.4125C26.3896 51.5103 25.3443 52.5774 24.3322 53.61L24.2234 53.7213C23.9432 54.0079 23.6617 54.0681 23.4749 54.0681Z" fill="#0D313B"/>
<g id="Vector_13">
<mask id="path-14-outside-7_6461_46812" maskUnits="userSpaceOnUse" x="20.4138" y="48.0635" width="8" height="7" fill="black">
<rect fill="white" x="20.4138" y="48.0635" width="8" height="7"/>
<path d="M23.2484 51.811C24.1019 51.0855 24.9566 50.36 25.8074 49.632C25.9418 49.5168 26.0518 49.3722 26.19 49.2609C26.492 49.0178 26.8746 48.9679 27.0754 49.2903C27.2149 49.5143 27.2495 50.0056 27.0998 50.1719C26.0902 51.303 25.0244 52.3855 23.9637 53.468C23.6272 53.8121 23.2587 53.7661 22.9221 53.4308C22.5165 53.0252 22.1084 52.6235 21.7066 52.214C21.3688 51.8686 21.2946 51.4668 21.6362 51.1072C22.0098 50.7157 22.3911 50.8795 22.7085 51.2288C22.9541 51.5001 23.1844 51.7867 23.4224 52.0669C23.3649 51.9824 23.3073 51.8967 23.2484 51.811Z"/>
</mask>
<path d="M23.2484 51.811C24.1019 51.0855 24.9566 50.36 25.8074 49.632C25.9418 49.5168 26.0518 49.3722 26.19 49.2609C26.492 49.0178 26.8746 48.9679 27.0754 49.2903C27.2149 49.5143 27.2495 50.0056 27.0998 50.1719C26.0902 51.303 25.0244 52.3855 23.9637 53.468C23.6272 53.8121 23.2587 53.7661 22.9221 53.4308C22.5165 53.0252 22.1084 52.6235 21.7066 52.214C21.3688 51.8686 21.2946 51.4668 21.6362 51.1072C22.0098 50.7157 22.3911 50.8795 22.7085 51.2288C22.9541 51.5001 23.1844 51.7867 23.4224 52.0669C23.3649 51.9824 23.3073 51.8967 23.2484 51.811Z" fill="#0D313B"/>
<path d="M23.2484 51.811C24.1019 51.0855 24.9566 50.36 25.8074 49.632C25.9418 49.5168 26.0518 49.3722 26.19 49.2609C26.492 49.0178 26.8746 48.9679 27.0754 49.2903C27.2149 49.5143 27.2495 50.0056 27.0998 50.1719C26.0902 51.303 25.0244 52.3855 23.9637 53.468C23.6272 53.8121 23.2587 53.7661 22.9221 53.4308C22.5165 53.0252 22.1084 52.6235 21.7066 52.214C21.3688 51.8686 21.2946 51.4668 21.6362 51.1072C22.0098 50.7157 22.3911 50.8795 22.7085 51.2288C22.9541 51.5001 23.1844 51.7867 23.4224 52.0669C23.3649 51.9824 23.3073 51.8967 23.2484 51.811Z" stroke="#0D313B" stroke-width="1.6" mask="url(#path-14-outside-7_6461_46812)"/>
</g>
<path id="Vector_14" d="M23.4672 37.315C23.0935 37.315 22.7916 37.0552 22.5446 36.8019C22.0968 36.3412 21.6784 35.8755 21.3035 35.4187C20.9325 34.9671 20.9939 34.4041 21.4545 34.0164C21.6528 33.85 21.878 33.7618 22.1058 33.7618C22.3783 33.7618 22.6368 33.8833 22.8543 34.1149C23.05 34.3222 23.2228 34.5384 23.4057 34.7687L23.9176 34.2569C24.5292 33.6453 25.0985 33.0759 25.6641 32.504C25.8803 32.2852 26.2066 31.9551 26.6416 31.9551C26.8758 31.9551 27.1048 32.0498 27.3236 32.2366C27.5283 32.4119 27.6435 32.6345 27.655 32.8789C27.6716 33.2205 27.4925 33.5801 27.1074 33.9793C26.7274 34.3721 26.3499 34.7687 25.9725 35.1641C25.4594 35.7015 24.9297 36.2568 24.4025 36.7968C24.1376 37.0642 23.8421 37.3137 23.4672 37.315Z" fill="#0D313B"/>
<g id="Vector_15">
<mask id="path-16-outside-8_6461_46812" maskUnits="userSpaceOnUse" x="20.4236" y="31.3154" width="8" height="7" fill="black">
<rect fill="white" x="20.4236" y="31.3154" width="8" height="7"/>
<path d="M23.3776 35.3095C24.3078 34.378 25.119 33.5706 25.9225 32.7569C26.2616 32.4127 26.6083 32.1005 27.0882 32.5099C27.4349 32.8068 27.3351 33.22 26.8463 33.7254C25.9417 34.662 25.0512 35.6102 24.1414 36.5417C23.6079 37.088 23.329 37.0906 22.8031 36.5493C22.3783 36.113 21.9688 35.6601 21.5824 35.1892C21.3304 34.8821 21.3879 34.5456 21.6873 34.2935C21.9931 34.0351 22.3245 34.0824 22.5894 34.3626C22.8607 34.648 23.0961 34.9666 23.3776 35.3095Z"/>
</mask>
<path d="M23.3776 35.3095C24.3078 34.378 25.119 33.5706 25.9225 32.7569C26.2616 32.4127 26.6083 32.1005 27.0882 32.5099C27.4349 32.8068 27.3351 33.22 26.8463 33.7254C25.9417 34.662 25.0512 35.6102 24.1414 36.5417C23.6079 37.088 23.329 37.0906 22.8031 36.5493C22.3783 36.113 21.9688 35.6601 21.5824 35.1892C21.3304 34.8821 21.3879 34.5456 21.6873 34.2935C21.9931 34.0351 22.3245 34.0824 22.5894 34.3626C22.8607 34.648 23.0961 34.9666 23.3776 35.3095Z" fill="#0D313B"/>
<path d="M23.3776 35.3095C24.3078 34.378 25.119 33.5706 25.9225 32.7569C26.2616 32.4127 26.6083 32.1005 27.0882 32.5099C27.4349 32.8068 27.3351 33.22 26.8463 33.7254C25.9417 34.662 25.0512 35.6102 24.1414 36.5417C23.6079 37.088 23.329 37.0906 22.8031 36.5493C22.3783 36.113 21.9688 35.6601 21.5824 35.1892C21.3304 34.8821 21.3879 34.5456 21.6873 34.2935C21.9931 34.0351 22.3245 34.0824 22.5894 34.3626C22.8607 34.648 23.0961 34.9666 23.3776 35.3095Z" stroke="#0D313B" stroke-width="1.6" mask="url(#path-16-outside-8_6461_46812)"/>
</g>
<path id="Vector_16" d="M23.5389 45.6741C23.3227 45.6741 23.0271 45.6178 22.8441 45.4592C22.5012 45.1623 22.1941 44.8284 21.896 44.5059C21.754 44.3511 21.6055 44.1925 21.4584 44.0415C20.7662 43.3313 21.1577 42.7594 21.3586 42.547C21.6311 42.2591 21.9075 42.199 22.0918 42.199C22.2914 42.199 22.5972 42.2706 22.917 42.6084C23.0872 42.7888 23.2446 42.9718 23.4263 43.1842C23.4301 43.188 23.4327 43.1919 23.4365 43.1957L23.9445 42.6545C24.551 42.0096 25.1204 41.4018 25.6898 40.7953C25.9213 40.5484 26.2374 40.2656 26.6417 40.2656C26.881 40.2656 27.1087 40.3641 27.3199 40.5574C27.5412 40.7608 27.664 41.0103 27.6756 41.279C27.6909 41.682 27.458 42.0211 27.261 42.2335C26.222 43.348 25.1421 44.4484 24.052 45.5052C23.9368 45.6178 23.7641 45.6741 23.5389 45.6741Z" fill="#0D313B"/>
<g id="Vector_17">
<mask id="path-18-outside-9_6461_46812" maskUnits="userSpaceOnUse" x="20.4303" y="39.6289" width="8" height="7" fill="black">
<rect fill="white" x="20.4303" y="39.6289" width="8" height="7"/>
<path d="M23.4262 43.7396C24.3385 42.7685 25.1484 41.9074 25.9571 41.0437C26.2795 40.6995 26.6455 40.4295 27.0767 40.8249C27.4963 41.2087 27.2929 41.6668 26.9961 41.9854C25.9597 43.0986 24.8925 44.1849 23.7998 45.243C23.6808 45.3582 23.2343 45.3173 23.0807 45.1842C22.5907 44.7594 22.1723 44.254 21.7181 43.787C21.4148 43.476 21.3022 43.1344 21.6234 42.7941C21.9663 42.4307 22.3373 42.519 22.6559 42.8555C22.9003 43.1165 23.1242 43.3929 23.4262 43.7396Z"/>
</mask>
<path d="M23.4262 43.7396C24.3385 42.7685 25.1484 41.9074 25.9571 41.0437C26.2795 40.6995 26.6455 40.4295 27.0767 40.8249C27.4963 41.2087 27.2929 41.6668 26.9961 41.9854C25.9597 43.0986 24.8925 44.1849 23.7998 45.243C23.6808 45.3582 23.2343 45.3173 23.0807 45.1842C22.5907 44.7594 22.1723 44.254 21.7181 43.787C21.4148 43.476 21.3022 43.1344 21.6234 42.7941C21.9663 42.4307 22.3373 42.519 22.6559 42.8555C22.9003 43.1165 23.1242 43.3929 23.4262 43.7396Z" fill="#0D313B"/>
<path d="M23.4262 43.7396C24.3385 42.7685 25.1484 41.9074 25.9571 41.0437C26.2795 40.6995 26.6455 40.4295 27.0767 40.8249C27.4963 41.2087 27.2929 41.6668 26.9961 41.9854C25.9597 43.0986 24.8925 44.1849 23.7998 45.243C23.6808 45.3582 23.2343 45.3173 23.0807 45.1842C22.5907 44.7594 22.1723 44.254 21.7181 43.787C21.4148 43.476 21.3022 43.1344 21.6234 42.7941C21.9663 42.4307 22.3373 42.519 22.6559 42.8555C22.9003 43.1165 23.1242 43.3929 23.4262 43.7396Z" stroke="#0D313B" stroke-width="1.6" mask="url(#path-18-outside-9_6461_46812)"/>
</g>
<path id="Vector_18" d="M35.2554 23.3405C35.2554 22.2785 35.2707 21.3112 35.2374 20.3452C35.2323 20.207 35.0097 20.0406 34.851 19.9523C34.2804 19.6337 33.5382 19.4776 33.1416 19.0183C31.6471 17.2858 32.283 15.0979 34.4723 14.3839C35.1402 14.1664 35.3129 13.8798 35.2707 13.2349C35.2195 12.4467 35.4639 12.1166 35.9309 12.1192C36.3928 12.1217 36.6398 12.4569 36.5848 13.2413C36.5387 13.8951 36.7178 14.1932 37.3909 14.3865C38.5834 14.7268 39.3268 15.5662 39.5046 16.8367C39.5699 17.2999 39.4675 17.7119 38.9403 17.7746C38.4593 17.8322 38.2712 17.5008 38.1854 17.0491C38.0306 16.2366 37.4625 15.8003 36.6091 15.4984C36.6091 16.5962 36.604 17.6134 36.618 18.6306C36.6193 18.7125 36.7396 18.8251 36.8304 18.866C37.1989 19.0362 37.5815 19.1744 37.9526 19.3407C39.7209 20.1391 40.1316 22.331 38.7049 23.6527C38.2456 24.0775 37.6097 24.3372 37.0185 24.5842C36.7063 24.7147 36.5732 24.835 36.5963 25.1664C36.6168 25.4811 36.6168 25.8023 36.5796 26.1145C36.5349 26.4958 36.2841 26.7901 35.9092 26.7005C35.6648 26.6416 35.2784 26.2898 35.3053 26.1298C35.5049 24.9706 34.8613 24.5867 33.9157 24.2067C32.9305 23.8101 32.3534 22.9618 32.3355 21.8255C32.3291 21.4033 32.5082 21.1154 32.9254 21.0758C33.3438 21.0348 33.6137 21.2894 33.6457 21.7002C33.7212 22.6444 34.3175 23.059 35.2554 23.3405ZM36.6321 23.2816C37.7146 23.0449 38.2366 22.4576 38.1944 21.5965C38.1598 20.8864 37.666 20.491 36.6321 20.3643C36.6321 21.3253 36.6321 22.2823 36.6321 23.2816ZM35.2272 18.5154C35.2272 17.5149 35.2272 16.5527 35.2272 15.5854C34.4122 15.7044 33.6841 16.4362 33.6636 17.1285C33.6393 17.9013 34.0283 18.2608 35.2272 18.5154Z" fill="#0D313B"/>
</g>
</g>
</svg>
