<svg width="72" height="72" viewBox="0 0 72 72" fill="none" xmlns="http://www.w3.org/2000/svg">
<g id="quotations">
<g id="Group">
<g id="Vector">
<path d="M9.26673 4.25134C9 4.51807 9 4.6381 9 35.9923C9 67.2932 9 67.4665 9.26673 67.7333C9.53346 68 9.70684 68 35.6731 68C61.666 68 61.8127 68 62.0794 67.7333C62.3462 67.4665 62.3462 67.3465 62.3195 37.6194L62.2795 7.78552L61.8927 6.98533C61.3859 5.95842 60.3723 4.94484 59.3454 4.43805L58.5452 4.05129L34.046 4.01128C9.65349 3.9846 9.53346 3.98461 9.26673 4.25134ZM51.997 6.25182C52.6505 6.39852 53.1306 6.74527 53.4774 7.33208C53.7174 7.74551 53.7441 8.09226 53.8108 11.0263C53.8775 14.0404 53.8908 14.2938 54.1308 14.4671C54.3442 14.6138 55.0111 14.6538 57.3049 14.6538H60.2123V40.26V65.8662H35.6731H11.1338V35.9923V6.11845H31.312C42.9282 6.11845 51.7036 6.1718 51.997 6.25182ZM58.1718 6.45187C58.8653 6.74527 59.5188 7.39876 59.8522 8.11893C60.0789 8.61238 60.1323 9.07917 60.1856 10.6129L60.2523 12.52H58.0918H55.9446V9.9327C55.9446 7.98557 55.8913 7.21205 55.7446 6.78528C55.6379 6.47854 55.5445 6.18513 55.5445 6.14513C55.5445 5.99842 57.6917 6.25182 58.1718 6.45187Z" fill="#0B2D1F"/>
<path d="M58.1718 6.45187C58.8653 6.74527 59.5188 7.39876 59.8522 8.11893C60.0789 8.61238 60.1323 9.07917 60.1856 10.6129L60.2523 12.52H58.0918H55.9446V9.9327C55.9446 7.98557 55.8913 7.21205 55.7446 6.78528C55.6379 6.47854 55.5445 6.18513 55.5445 6.14513C55.5445 5.99842 57.6917 6.25182 58.1718 6.45187Z" fill="#22885E"/>
</g>
<g id="Vector_2">
<path d="M33.6021 12.566C29.8412 13.5395 26.8138 16.5803 25.8669 20.3545C25.4935 21.8082 25.5068 24.1287 25.8669 25.5824C26.6404 28.6232 28.6276 31.1171 31.4016 32.5041C33.0686 33.3443 34.3356 33.6377 36.2694 33.6377C38.2166 33.6377 39.4702 33.3443 41.2039 32.4774C42.2842 31.944 42.6576 31.6506 43.8046 30.5036C44.9515 29.3567 45.2449 28.9832 45.7784 27.903C46.6452 26.1692 46.9386 24.9156 46.9386 22.9685C46.9386 21.0347 46.6452 19.7677 45.805 18.1006C44.418 15.3266 41.9241 13.3395 38.8834 12.566C37.4564 12.2059 35.0158 12.2059 33.6021 12.566ZM39.0834 15.0199C41.4707 15.8468 43.4978 17.9273 44.2847 20.3278C44.5514 21.1547 44.6048 21.5681 44.6048 23.0351C44.6048 24.5688 44.5647 24.8756 44.258 25.7291C41.7907 32.4908 32.7352 33.411 29.0143 27.2628C28.1608 25.8492 27.9341 24.9823 27.9341 23.0351C27.9341 20.928 28.2275 19.8344 29.2277 18.354C31.4149 15.0732 35.3892 13.7396 39.0834 15.0199Z" fill="#0B2D1F"/>
<path d="M39.0834 15.0199C41.4707 15.8468 43.4978 17.9273 44.2847 20.3278C44.5514 21.1547 44.6048 21.5681 44.6048 23.0351C44.6048 24.5688 44.5647 24.8756 44.258 25.7291C41.7907 32.4908 32.7352 33.411 29.0143 27.2628C28.1608 25.8492 27.9341 24.9823 27.9341 23.0351C27.9341 20.928 28.2275 19.8344 29.2277 18.354C31.4149 15.0732 35.3892 13.7396 39.0834 15.0199Z" fill="#62C89E"/>
</g>
<path id="Vector_3" d="M35.4691 16.8338C35.3224 16.9805 35.2023 17.2472 35.2023 17.4206C35.2023 17.634 35.109 17.7807 34.9223 17.834C34.4555 17.9807 33.5753 18.8609 33.3219 19.4344C32.9885 20.1412 32.9885 21.5282 33.3219 22.2351C33.7887 23.2753 34.7089 23.8755 36.1759 24.1022C36.456 24.1422 36.8027 24.3022 36.9494 24.4489C37.4962 24.9957 37.0828 26.036 36.3226 26.036C35.7358 26.036 35.4824 25.7959 35.2557 25.0357C35.1357 24.6223 34.9356 24.2489 34.8023 24.1689C34.3755 23.9421 33.6286 24.0088 33.3352 24.3022C32.9885 24.649 32.9751 25.7559 33.3219 26.5028C33.5753 27.0762 34.4555 27.9564 34.9223 28.1031C35.109 28.1565 35.2023 28.3032 35.2023 28.5166C35.2023 29.01 35.6425 29.3701 36.2693 29.3701C36.8961 29.3701 37.3362 29.01 37.3362 28.5166C37.3362 28.3032 37.4295 28.1565 37.6163 28.1031C38.083 27.9564 38.9633 27.0762 39.2166 26.5028C39.3767 26.156 39.47 25.6626 39.47 25.1024C39.47 23.2353 38.4298 22.155 36.3626 21.835C36.0826 21.795 35.7358 21.6349 35.5891 21.4882C35.0423 20.9414 35.4557 19.9012 36.2159 19.9012C36.8027 19.9012 37.0561 20.1412 37.2828 20.9014C37.4029 21.3148 37.6029 21.6883 37.7363 21.7683C38.1631 21.995 38.9099 21.9283 39.2033 21.6349C39.5501 21.2882 39.5634 20.1812 39.2166 19.4344C38.9633 18.8609 38.083 17.9807 37.6163 17.834C37.4295 17.7807 37.3362 17.634 37.3362 17.4206C37.3362 16.9271 36.8961 16.567 36.2693 16.567C35.9092 16.567 35.6425 16.6604 35.4691 16.8338Z" fill="#0B2D1F"/>
<g id="Vector_4">
<mask id="path-4-outside-1_6461_46868" maskUnits="userSpaceOnUse" x="17.481" y="40.2441" width="9" height="4" fill="black">
<rect fill="white" x="17.481" y="40.2441" width="9" height="4"/>
<path d="M18.7942 41.0518C18.5906 41.2554 18.481 41.5685 18.481 41.9914C18.481 42.4142 18.5906 42.7274 18.7942 42.9309C19.0917 43.2285 19.311 43.2441 22.2394 43.2441C25.1677 43.2441 25.387 43.2285 25.6845 42.9309C25.8881 42.7274 25.9977 42.4142 25.9977 41.9914C25.9977 41.5685 25.8881 41.2554 25.6845 41.0518C25.387 40.7542 25.1677 40.7386 22.2394 40.7386C19.311 40.7386 19.0917 40.7542 18.7942 41.0518Z"/>
</mask>
<path d="M18.7942 41.0518C18.5906 41.2554 18.481 41.5685 18.481 41.9914C18.481 42.4142 18.5906 42.7274 18.7942 42.9309C19.0917 43.2285 19.311 43.2441 22.2394 43.2441C25.1677 43.2441 25.387 43.2285 25.6845 42.9309C25.8881 42.7274 25.9977 42.4142 25.9977 41.9914C25.9977 41.5685 25.8881 41.2554 25.6845 41.0518C25.387 40.7542 25.1677 40.7386 22.2394 40.7386C19.311 40.7386 19.0917 40.7542 18.7942 41.0518Z" fill="#0B2D1F"/>
<path d="M18.7942 41.0518C18.5906 41.2554 18.481 41.5685 18.481 41.9914C18.481 42.4142 18.5906 42.7274 18.7942 42.9309C19.0917 43.2285 19.311 43.2441 22.2394 43.2441C25.1677 43.2441 25.387 43.2285 25.6845 42.9309C25.8881 42.7274 25.9977 42.4142 25.9977 41.9914C25.9977 41.5685 25.8881 41.2554 25.6845 41.0518C25.387 40.7542 25.1677 40.7386 22.2394 40.7386C19.311 40.7386 19.0917 40.7542 18.7942 41.0518Z" stroke="#0B2D1F" stroke-width="0.2" mask="url(#path-4-outside-1_6461_46868)"/>
</g>
<g id="Vector_5">
<mask id="path-5-outside-2_6461_46868" maskUnits="userSpaceOnUse" x="30.0088" y="40.2441" width="24" height="4" fill="black">
<rect fill="white" x="30.0088" y="40.2441" width="24" height="4"/>
<path d="M31.322 41.0518C31.1184 41.2554 31.0088 41.5685 31.0088 41.9914C31.0088 42.4142 31.1184 42.7274 31.322 42.9309C31.6351 43.2441 31.8387 43.2441 42.2838 43.2441C52.7289 43.2441 52.9324 43.2441 53.2456 42.9309C53.4492 42.7274 53.5588 42.4142 53.5588 41.9914C53.5588 41.5685 53.4492 41.2554 53.2456 41.0518C52.9324 40.7386 52.7289 40.7386 42.2838 40.7386C31.8387 40.7386 31.6351 40.7386 31.322 41.0518Z"/>
</mask>
<path d="M31.322 41.0518C31.1184 41.2554 31.0088 41.5685 31.0088 41.9914C31.0088 42.4142 31.1184 42.7274 31.322 42.9309C31.6351 43.2441 31.8387 43.2441 42.2838 43.2441C52.7289 43.2441 52.9324 43.2441 53.2456 42.9309C53.4492 42.7274 53.5588 42.4142 53.5588 41.9914C53.5588 41.5685 53.4492 41.2554 53.2456 41.0518C52.9324 40.7386 52.7289 40.7386 42.2838 40.7386C31.8387 40.7386 31.6351 40.7386 31.322 41.0518Z" fill="#0B2D1F"/>
<path d="M31.322 41.0518C31.1184 41.2554 31.0088 41.5685 31.0088 41.9914C31.0088 42.4142 31.1184 42.7274 31.322 42.9309C31.6351 43.2441 31.8387 43.2441 42.2838 43.2441C52.7289 43.2441 52.9324 43.2441 53.2456 42.9309C53.4492 42.7274 53.5588 42.4142 53.5588 41.9914C53.5588 41.5685 53.4492 41.2554 53.2456 41.0518C52.9324 40.7386 52.7289 40.7386 42.2838 40.7386C31.8387 40.7386 31.6351 40.7386 31.322 41.0518Z" stroke="#0B2D1F" stroke-width="0.2" mask="url(#path-5-outside-2_6461_46868)"/>
</g>
<g id="Vector_6">
<mask id="path-6-outside-3_6461_46868" maskUnits="userSpaceOnUse" x="17.481" y="45.2559" width="9" height="4" fill="black">
<rect fill="white" x="17.481" y="45.2559" width="9" height="4"/>
<path d="M18.7942 46.0635C18.5906 46.2671 18.481 46.5803 18.481 47.0031C18.481 47.4259 18.5906 47.7391 18.7942 47.9427C19.0917 48.2402 19.311 48.2559 22.2394 48.2559C25.1677 48.2559 25.387 48.2402 25.6845 47.9427C25.8881 47.7391 25.9977 47.4259 25.9977 47.0031C25.9977 46.5803 25.8881 46.2671 25.6845 46.0635C25.387 45.766 25.1677 45.7503 22.2394 45.7503C19.311 45.7503 19.0917 45.766 18.7942 46.0635Z"/>
</mask>
<path d="M18.7942 46.0635C18.5906 46.2671 18.481 46.5803 18.481 47.0031C18.481 47.4259 18.5906 47.7391 18.7942 47.9427C19.0917 48.2402 19.311 48.2559 22.2394 48.2559C25.1677 48.2559 25.387 48.2402 25.6845 47.9427C25.8881 47.7391 25.9977 47.4259 25.9977 47.0031C25.9977 46.5803 25.8881 46.2671 25.6845 46.0635C25.387 45.766 25.1677 45.7503 22.2394 45.7503C19.311 45.7503 19.0917 45.766 18.7942 46.0635Z" fill="#0B2D1F"/>
<path d="M18.7942 46.0635C18.5906 46.2671 18.481 46.5803 18.481 47.0031C18.481 47.4259 18.5906 47.7391 18.7942 47.9427C19.0917 48.2402 19.311 48.2559 22.2394 48.2559C25.1677 48.2559 25.387 48.2402 25.6845 47.9427C25.8881 47.7391 25.9977 47.4259 25.9977 47.0031C25.9977 46.5803 25.8881 46.2671 25.6845 46.0635C25.387 45.766 25.1677 45.7503 22.2394 45.7503C19.311 45.7503 19.0917 45.766 18.7942 46.0635Z" stroke="#0B2D1F" stroke-width="0.2" mask="url(#path-6-outside-3_6461_46868)"/>
</g>
<g id="Vector_7">
<mask id="path-7-outside-4_6461_46868" maskUnits="userSpaceOnUse" x="30.0088" y="45.2559" width="24" height="4" fill="black">
<rect fill="white" x="30.0088" y="45.2559" width="24" height="4"/>
<path d="M31.322 46.0635C31.1184 46.2671 31.0088 46.5803 31.0088 47.0031C31.0088 47.4259 31.1184 47.7391 31.322 47.9427C31.6351 48.2559 31.8387 48.2559 42.2838 48.2559C52.7289 48.2559 52.9324 48.2559 53.2456 47.9427C53.4492 47.7391 53.5588 47.4259 53.5588 47.0031C53.5588 46.5803 53.4492 46.2671 53.2456 46.0635C52.9324 45.7503 52.7289 45.7503 42.2838 45.7503C31.8387 45.7503 31.6351 45.7503 31.322 46.0635Z"/>
</mask>
<path d="M31.322 46.0635C31.1184 46.2671 31.0088 46.5803 31.0088 47.0031C31.0088 47.4259 31.1184 47.7391 31.322 47.9427C31.6351 48.2559 31.8387 48.2559 42.2838 48.2559C52.7289 48.2559 52.9324 48.2559 53.2456 47.9427C53.4492 47.7391 53.5588 47.4259 53.5588 47.0031C53.5588 46.5803 53.4492 46.2671 53.2456 46.0635C52.9324 45.7503 52.7289 45.7503 42.2838 45.7503C31.8387 45.7503 31.6351 45.7503 31.322 46.0635Z" fill="#0B2D1F"/>
<path d="M31.322 46.0635C31.1184 46.2671 31.0088 46.5803 31.0088 47.0031C31.0088 47.4259 31.1184 47.7391 31.322 47.9427C31.6351 48.2559 31.8387 48.2559 42.2838 48.2559C52.7289 48.2559 52.9324 48.2559 53.2456 47.9427C53.4492 47.7391 53.5588 47.4259 53.5588 47.0031C53.5588 46.5803 53.4492 46.2671 53.2456 46.0635C52.9324 45.7503 52.7289 45.7503 42.2838 45.7503C31.8387 45.7503 31.6351 45.7503 31.322 46.0635Z" stroke="#0B2D1F" stroke-width="0.2" mask="url(#path-7-outside-4_6461_46868)"/>
</g>
<g id="Vector_8">
<mask id="path-8-outside-5_6461_46868" maskUnits="userSpaceOnUse" x="17.481" y="50.2666" width="9" height="4" fill="black">
<rect fill="white" x="17.481" y="50.2666" width="9" height="4"/>
<path d="M18.7942 51.0742C18.5906 51.2778 18.481 51.591 18.481 52.0138C18.481 52.4366 18.5906 52.7498 18.7942 52.9534C19.0917 53.2509 19.311 53.2666 22.2394 53.2666C25.1677 53.2666 25.387 53.2509 25.6845 52.9534C25.8881 52.7498 25.9977 52.4366 25.9977 52.0138C25.9977 51.591 25.8881 51.2778 25.6845 51.0742C25.387 50.7767 25.1677 50.761 22.2394 50.761C19.311 50.761 19.0917 50.7767 18.7942 51.0742Z"/>
</mask>
<path d="M18.7942 51.0742C18.5906 51.2778 18.481 51.591 18.481 52.0138C18.481 52.4366 18.5906 52.7498 18.7942 52.9534C19.0917 53.2509 19.311 53.2666 22.2394 53.2666C25.1677 53.2666 25.387 53.2509 25.6845 52.9534C25.8881 52.7498 25.9977 52.4366 25.9977 52.0138C25.9977 51.591 25.8881 51.2778 25.6845 51.0742C25.387 50.7767 25.1677 50.761 22.2394 50.761C19.311 50.761 19.0917 50.7767 18.7942 51.0742Z" fill="#0B2D1F"/>
<path d="M18.7942 51.0742C18.5906 51.2778 18.481 51.591 18.481 52.0138C18.481 52.4366 18.5906 52.7498 18.7942 52.9534C19.0917 53.2509 19.311 53.2666 22.2394 53.2666C25.1677 53.2666 25.387 53.2509 25.6845 52.9534C25.8881 52.7498 25.9977 52.4366 25.9977 52.0138C25.9977 51.591 25.8881 51.2778 25.6845 51.0742C25.387 50.7767 25.1677 50.761 22.2394 50.761C19.311 50.761 19.0917 50.7767 18.7942 51.0742Z" stroke="#0B2D1F" stroke-width="0.2" mask="url(#path-8-outside-5_6461_46868)"/>
</g>
<g id="Vector_9">
<mask id="path-9-outside-6_6461_46868" maskUnits="userSpaceOnUse" x="30.0088" y="50.2666" width="24" height="4" fill="black">
<rect fill="white" x="30.0088" y="50.2666" width="24" height="4"/>
<path d="M31.322 51.0742C31.1184 51.2778 31.0088 51.591 31.0088 52.0138C31.0088 52.4366 31.1184 52.7498 31.322 52.9534C31.6351 53.2666 31.8387 53.2666 42.2838 53.2666C52.7289 53.2666 52.9324 53.2666 53.2456 52.9534C53.4492 52.7498 53.5588 52.4366 53.5588 52.0138C53.5588 51.591 53.4492 51.2778 53.2456 51.0742C52.9324 50.761 52.7289 50.761 42.2838 50.761C31.8387 50.761 31.6351 50.761 31.322 51.0742Z"/>
</mask>
<path d="M31.322 51.0742C31.1184 51.2778 31.0088 51.591 31.0088 52.0138C31.0088 52.4366 31.1184 52.7498 31.322 52.9534C31.6351 53.2666 31.8387 53.2666 42.2838 53.2666C52.7289 53.2666 52.9324 53.2666 53.2456 52.9534C53.4492 52.7498 53.5588 52.4366 53.5588 52.0138C53.5588 51.591 53.4492 51.2778 53.2456 51.0742C52.9324 50.761 52.7289 50.761 42.2838 50.761C31.8387 50.761 31.6351 50.761 31.322 51.0742Z" fill="#0B2D1F"/>
<path d="M31.322 51.0742C31.1184 51.2778 31.0088 51.591 31.0088 52.0138C31.0088 52.4366 31.1184 52.7498 31.322 52.9534C31.6351 53.2666 31.8387 53.2666 42.2838 53.2666C52.7289 53.2666 52.9324 53.2666 53.2456 52.9534C53.4492 52.7498 53.5588 52.4366 53.5588 52.0138C53.5588 51.591 53.4492 51.2778 53.2456 51.0742C52.9324 50.761 52.7289 50.761 42.2838 50.761C31.8387 50.761 31.6351 50.761 31.322 51.0742Z" stroke="#0B2D1F" stroke-width="0.2" mask="url(#path-9-outside-6_6461_46868)"/>
</g>
<g id="Vector_10">
<mask id="path-10-outside-7_6461_46868" maskUnits="userSpaceOnUse" x="17.481" y="55.2773" width="9" height="4" fill="black">
<rect fill="white" x="17.481" y="55.2773" width="9" height="4"/>
<path d="M18.7942 56.085C18.5906 56.2886 18.481 56.6017 18.481 57.0246C18.481 57.4474 18.5906 57.7606 18.7942 57.9641C19.0917 58.2617 19.311 58.2773 22.2394 58.2773C25.1677 58.2773 25.387 58.2617 25.6845 57.9641C25.8881 57.7606 25.9977 57.4474 25.9977 57.0246C25.9977 56.6017 25.8881 56.2886 25.6845 56.085C25.387 55.7874 25.1677 55.7718 22.2394 55.7718C19.311 55.7718 19.0917 55.7874 18.7942 56.085Z"/>
</mask>
<path d="M18.7942 56.085C18.5906 56.2886 18.481 56.6017 18.481 57.0246C18.481 57.4474 18.5906 57.7606 18.7942 57.9641C19.0917 58.2617 19.311 58.2773 22.2394 58.2773C25.1677 58.2773 25.387 58.2617 25.6845 57.9641C25.8881 57.7606 25.9977 57.4474 25.9977 57.0246C25.9977 56.6017 25.8881 56.2886 25.6845 56.085C25.387 55.7874 25.1677 55.7718 22.2394 55.7718C19.311 55.7718 19.0917 55.7874 18.7942 56.085Z" fill="#0B2D1F"/>
<path d="M18.7942 56.085C18.5906 56.2886 18.481 56.6017 18.481 57.0246C18.481 57.4474 18.5906 57.7606 18.7942 57.9641C19.0917 58.2617 19.311 58.2773 22.2394 58.2773C25.1677 58.2773 25.387 58.2617 25.6845 57.9641C25.8881 57.7606 25.9977 57.4474 25.9977 57.0246C25.9977 56.6017 25.8881 56.2886 25.6845 56.085C25.387 55.7874 25.1677 55.7718 22.2394 55.7718C19.311 55.7718 19.0917 55.7874 18.7942 56.085Z" stroke="#0B2D1F" stroke-width="0.2" mask="url(#path-10-outside-7_6461_46868)"/>
</g>
<g id="Vector_11">
<mask id="path-11-outside-8_6461_46868" maskUnits="userSpaceOnUse" x="30.0088" y="55.2773" width="24" height="4" fill="black">
<rect fill="white" x="30.0088" y="55.2773" width="24" height="4"/>
<path d="M31.322 56.085C31.1184 56.2886 31.0088 56.6017 31.0088 57.0246C31.0088 57.4474 31.1184 57.7606 31.322 57.9641C31.6351 58.2773 31.8387 58.2773 42.2838 58.2773C52.7289 58.2773 52.9324 58.2773 53.2456 57.9641C53.4492 57.7606 53.5588 57.4474 53.5588 57.0246C53.5588 56.6017 53.4492 56.2886 53.2456 56.085C52.9324 55.7718 52.7289 55.7718 42.2838 55.7718C31.8387 55.7718 31.6351 55.7718 31.322 56.085Z"/>
</mask>
<path d="M31.322 56.085C31.1184 56.2886 31.0088 56.6017 31.0088 57.0246C31.0088 57.4474 31.1184 57.7606 31.322 57.9641C31.6351 58.2773 31.8387 58.2773 42.2838 58.2773C52.7289 58.2773 52.9324 58.2773 53.2456 57.9641C53.4492 57.7606 53.5588 57.4474 53.5588 57.0246C53.5588 56.6017 53.4492 56.2886 53.2456 56.085C52.9324 55.7718 52.7289 55.7718 42.2838 55.7718C31.8387 55.7718 31.6351 55.7718 31.322 56.085Z" fill="#0B2D1F"/>
<path d="M31.322 56.085C31.1184 56.2886 31.0088 56.6017 31.0088 57.0246C31.0088 57.4474 31.1184 57.7606 31.322 57.9641C31.6351 58.2773 31.8387 58.2773 42.2838 58.2773C52.7289 58.2773 52.9324 58.2773 53.2456 57.9641C53.4492 57.7606 53.5588 57.4474 53.5588 57.0246C53.5588 56.6017 53.4492 56.2886 53.2456 56.085C52.9324 55.7718 52.7289 55.7718 42.2838 55.7718C31.8387 55.7718 31.6351 55.7718 31.322 56.085Z" stroke="#0B2D1F" stroke-width="0.2" mask="url(#path-11-outside-8_6461_46868)"/>
</g>
</g>
</g>
</svg>
