<svg width="72" height="72" viewBox="0 0 72 72" fill="none" xmlns="http://www.w3.org/2000/svg">
<g id="rfm-analysis">
<g id="Group 1171275524">
<g id="Group">
<g id="Vector">
<path d="M15.2875 4.24168C13.6125 4.84168 12.325 6.14168 11.7375 7.84168C11.5125 8.51668 11.5 9.22918 11.5 32.6417V56.7417H8.35C5.4625 56.7417 5.1625 56.7667 4.825 56.9792C4.0875 57.4667 4 57.7417 4 59.7917C4 61.9167 4.15 62.6792 4.8375 64.0417C5.4375 65.2417 6.75 66.5542 7.95 67.1542C9.725 68.0417 8.35 67.9917 28.5 67.9917C48.65 67.9917 47.275 68.0417 49.05 67.1542C50.25 66.5542 51.5625 65.2417 52.1625 64.0417C53 62.3917 53 62.3292 53 55.4417V49.2417H58.225C63.05 49.2417 63.5125 49.2292 64.15 49.0042C65.875 48.4167 67.175 47.1167 67.7625 45.4042C67.9875 44.7292 68 44.2792 68 34.3792C68 24.4792 67.9875 24.0417 67.7625 23.6917C67.225 22.8917 67.1375 22.8667 63.6625 22.8667H60.5V15.7042C60.5 8.96668 60.4875 8.49168 60.2625 7.84168C59.675 6.11668 58.375 4.81668 56.6625 4.22918C55.975 3.99168 55.4625 3.99168 35.95 4.00418C16.775 4.00418 15.9125 4.01668 15.2875 4.24168ZM49.425 7.95418C49.3625 8.07918 49.2875 20.1042 49.25 34.6792L49.1875 61.1792L48.8625 61.8667C48.4 62.8417 47.975 63.2917 47.1 63.7292C46.025 64.2792 44.975 64.2792 43.9 63.7292C43.025 63.2917 42.5875 62.8417 42.15 61.8917C41.9 61.3292 41.8375 60.9792 41.7875 59.6417C41.7375 57.8542 41.575 57.3917 40.9375 56.9917C40.5375 56.7417 40.2625 56.7417 27.8875 56.7417H15.25L15.275 32.9542L15.3125 9.17918L15.5875 8.74168C15.8875 8.25418 16.25 7.99168 16.8125 7.85418C17.025 7.80418 24.4625 7.76668 33.3625 7.75418C48.7125 7.74168 49.525 7.75418 49.425 7.95418ZM55.775 8.07918C55.975 8.20418 56.2625 8.50418 56.4125 8.74168L56.6875 9.17918L56.75 27.1167C56.7875 36.9792 56.8625 45.1542 56.925 45.2667C57.025 45.4792 56.8875 45.4917 55.0125 45.4917H53L53.025 27.3292L53.0625 9.17918L53.325 8.76668C53.875 7.90418 54.95 7.60418 55.775 8.07918ZM64.225 35.3292C64.1875 43.8042 64.175 44.0667 63.9375 44.4667C63.2125 45.6667 61.5375 45.6667 60.8125 44.4667C60.575 44.0667 60.5625 43.8042 60.525 35.3292L60.4875 26.6167H62.375H64.2625L64.225 35.3292ZM38 61.0667C38 61.7542 38.3 62.9917 38.6375 63.6417C38.7625 63.8917 38.875 64.1417 38.875 64.1792C38.875 64.2167 32.5625 64.2292 24.85 64.2167L10.8125 64.1792L10.125 63.8542C9.75 63.6792 9.2625 63.3792 9.0375 63.1917C8.5375 62.7792 7.875 61.4667 7.875 60.9042V60.4917H22.9375H38V61.0667Z" fill="#4D0000"/>
<path d="M49.425 7.95418C49.3625 8.07918 49.2875 20.1042 49.25 34.6792L49.1875 61.1792L48.8625 61.8667C48.4 62.8417 47.975 63.2917 47.1 63.7292C46.025 64.2792 44.975 64.2792 43.9 63.7292C43.025 63.2917 42.5875 62.8417 42.15 61.8917C41.9 61.3292 41.8375 60.9792 41.7875 59.6417C41.7375 57.8542 41.575 57.3917 40.9375 56.9917C40.5375 56.7417 40.2625 56.7417 27.8875 56.7417H15.25L15.275 32.9542L15.3125 9.17918L15.5875 8.74168C15.8875 8.25418 16.25 7.99168 16.8125 7.85418C17.025 7.80418 24.4625 7.76668 33.3625 7.75418C48.7125 7.74168 49.525 7.75418 49.425 7.95418Z" fill="#BE1A2E"/>
</g>
<path id="Vector_2" d="M30.4125 11.8662C28.0625 12.7037 26.625 14.7537 26.625 17.2412C26.625 19.7287 28.0625 21.7787 30.4125 22.6162L31.0625 22.8537H29.2375C27.7875 22.8662 27.275 22.9162 26.725 23.1037C25 23.6912 23.7 24.9912 23.1125 26.7037C22.9 27.3537 22.875 27.7787 22.875 32.1037C22.875 36.4912 22.8875 36.8287 23.1125 37.1662C23.2375 37.3537 23.5125 37.6287 23.7 37.7537C24.05 37.9787 24.4375 37.9912 32.3125 37.9912C40.1875 37.9912 40.575 37.9787 40.925 37.7537C41.1125 37.6287 41.3875 37.3537 41.5125 37.1662C41.7375 36.8287 41.75 36.4912 41.75 32.1037C41.75 27.7787 41.725 27.3537 41.5125 26.7037C40.925 24.9912 39.625 23.6912 37.9 23.1037C37.35 22.9162 36.85 22.8662 35.325 22.8537H33.4375L34.225 22.5662C35.75 21.9912 36.775 21.0537 37.4875 19.6162C37.925 18.7037 37.9375 18.6412 37.9375 17.2412C37.9375 15.8412 37.925 15.7787 37.4875 14.8662C36.7625 13.3912 35.6625 12.4162 34.0625 11.8662C33.1 11.5412 31.3375 11.5412 30.4125 11.8662ZM33.225 15.7412C34.075 16.2662 34.3625 17.2912 33.875 18.0912C32.9125 19.6662 30.5 19.0662 30.5 17.2412C30.5 15.8537 32.025 15.0162 33.225 15.7412ZM36.975 26.9287C37.2 27.0662 37.5125 27.3787 37.6625 27.6162C37.925 28.0287 37.9375 28.2287 37.975 31.1412L38.025 34.2412H32.3125H26.6L26.65 31.1412C26.6875 28.2162 26.7 28.0287 26.9625 27.6162C27.2625 27.1287 27.625 26.8662 28.1875 26.7287C28.4 26.6787 30.3625 26.6412 32.5625 26.6537C36.325 26.6787 36.5875 26.6912 36.975 26.9287Z" fill="#4D0000"/>
<path id="Vector_3" d="M19.825 41.9797C19.25 42.3672 19 42.8422 19 43.6172C19 44.3922 19.25 44.8672 19.825 45.2547C20.175 45.4797 20.5625 45.4922 28.5 45.4922C36.4375 45.4922 36.825 45.4797 37.175 45.2547C37.75 44.8672 38 44.3922 38 43.6172C38 42.8422 37.75 42.3672 37.175 41.9797C36.825 41.7547 36.4375 41.7422 28.5 41.7422C20.5625 41.7422 20.175 41.7547 19.825 41.9797Z" fill="#4D0000"/>
<path id="Vector_4" d="M42.575 41.9787C41.4125 42.7412 41.425 44.5787 42.6 45.2662C42.8375 45.4162 43.2375 45.4912 43.675 45.4912C44.325 45.4912 44.425 45.4537 44.9125 45.0037C45.4375 44.5162 45.4375 44.5037 45.4375 43.6162C45.4375 42.7287 45.4375 42.7162 44.9125 42.2287C44.425 41.7787 44.325 41.7412 43.6625 41.7412C43.1625 41.7412 42.825 41.8162 42.575 41.9787Z" fill="#4D0000"/>
<path id="Vector_5" d="M19.825 49.4787C19.25 49.8662 19 50.3412 19 51.1162C19 51.8912 19.25 52.3662 19.825 52.7537C20.175 52.9787 20.5625 52.9912 28.5 52.9912C36.4375 52.9912 36.825 52.9787 37.175 52.7537C37.75 52.3662 38 51.8912 38 51.1162C38 50.3412 37.75 49.8662 37.175 49.4787C36.825 49.2537 36.4375 49.2412 28.5 49.2412C20.5625 49.2412 20.175 49.2537 19.825 49.4787Z" fill="#4D0000"/>
<path id="Vector_6" d="M42.575 49.4787C41.4125 50.2412 41.425 52.0787 42.6 52.7662C42.8375 52.9162 43.2375 52.9912 43.675 52.9912C44.325 52.9912 44.425 52.9537 44.9125 52.5037C45.4375 52.0162 45.4375 52.0037 45.4375 51.1162C45.4375 50.2287 45.4375 50.2162 44.9125 49.7287C44.425 49.2787 44.325 49.2412 43.6625 49.2412C43.1625 49.2412 42.825 49.3162 42.575 49.4787Z" fill="#4D0000"/>
</g>
</g>
</g>
</svg>
