<svg width="72" height="72" viewBox="0 0 72 72" fill="none" xmlns="http://www.w3.org/2000/svg">
<g id="sales-product">
<g id="Group 1171275576">
<g id="products">
<g id="Group 159054">
<g id="Rectangle 47 (Stroke)">
<mask id="path-1-outside-1_6471_46166" maskUnits="userSpaceOnUse" x="3" y="8" width="56" height="17" fill="black">
<rect fill="white" x="3" y="8" width="56" height="17"/>
<path fill-rule="evenodd" clip-rule="evenodd" d="M8.79064 12.593C8.12919 12.593 7.59299 13.1292 7.59299 13.7906V19.1801C7.59299 19.8416 8.12919 20.3778 8.79064 20.3778H53.1041C53.7655 20.3778 54.3018 19.8416 54.3018 19.1801V13.7906C54.3018 13.1292 53.7655 12.593 53.1041 12.593H8.79064ZM4 13.7906C4 11.1448 6.14484 9 8.79064 9H53.1041C55.7499 9 57.8947 11.1448 57.8947 13.7906V19.1801C57.8947 21.8259 55.7499 23.9708 53.1041 23.9708H8.79064C6.14484 23.9708 4 21.8259 4 19.1801V13.7906Z"/>
<path d="M7.59299 13.7906C7.59299 13.1292 8.12919 12.593 8.79064 12.593H53.1041C53.7655 12.593 54.3018 13.1292 54.3018 13.7906V19.1801C54.3018 19.8416 53.7655 20.3778 53.1041 20.3778H8.79064C8.12919 20.3778 7.59299 19.8416 7.59299 19.1801V13.7906Z"/>
</mask>
<path fill-rule="evenodd" clip-rule="evenodd" d="M8.79064 12.593C8.12919 12.593 7.59299 13.1292 7.59299 13.7906V19.1801C7.59299 19.8416 8.12919 20.3778 8.79064 20.3778H53.1041C53.7655 20.3778 54.3018 19.8416 54.3018 19.1801V13.7906C54.3018 13.1292 53.7655 12.593 53.1041 12.593H8.79064ZM4 13.7906C4 11.1448 6.14484 9 8.79064 9H53.1041C55.7499 9 57.8947 11.1448 57.8947 13.7906V19.1801C57.8947 21.8259 55.7499 23.9708 53.1041 23.9708H8.79064C6.14484 23.9708 4 21.8259 4 19.1801V13.7906Z" fill="#4D0000"/>
<path d="M7.59299 13.7906C7.59299 13.1292 8.12919 12.593 8.79064 12.593H53.1041C53.7655 12.593 54.3018 13.1292 54.3018 13.7906V19.1801C54.3018 19.8416 53.7655 20.3778 53.1041 20.3778H8.79064C8.12919 20.3778 7.59299 19.8416 7.59299 19.1801V13.7906Z" fill="#BE1A2E"/>
<path d="M7.84299 13.7906C7.84299 13.2673 8.26727 12.843 8.79064 12.843V12.343C7.99112 12.343 7.34299 12.9911 7.34299 13.7906H7.84299ZM7.84299 19.1801V13.7906H7.34299V19.1801H7.84299ZM8.79064 20.1278C8.26727 20.1278 7.84299 19.7035 7.84299 19.1801H7.34299C7.34299 19.9796 7.99112 20.6278 8.79064 20.6278V20.1278ZM53.1041 20.1278H8.79064V20.6278H53.1041V20.1278ZM54.0518 19.1801C54.0518 19.7035 53.6275 20.1278 53.1041 20.1278V20.6278C53.9036 20.6278 54.5518 19.9796 54.5518 19.1801H54.0518ZM54.0518 13.7906V19.1801H54.5518V13.7906H54.0518ZM53.1041 12.843C53.6275 12.843 54.0518 13.2673 54.0518 13.7906H54.5518C54.5518 12.9911 53.9036 12.343 53.1041 12.343V12.843ZM8.79064 12.843H53.1041V12.343H8.79064V12.843ZM8.79064 8.5C5.8687 8.5 3.5 10.8687 3.5 13.7906H4.5C4.5 11.421 6.42098 9.5 8.79064 9.5V8.5ZM53.1041 8.5H8.79064V9.5H53.1041V8.5ZM58.3947 13.7906C58.3947 10.8687 56.026 8.5 53.1041 8.5V9.5C55.4738 9.5 57.3947 11.421 57.3947 13.7906H58.3947ZM58.3947 19.1801V13.7906H57.3947V19.1801H58.3947ZM53.1041 24.4708C56.026 24.4708 58.3947 22.1021 58.3947 19.1801H57.3947C57.3947 21.5498 55.4738 23.4708 53.1041 23.4708V24.4708ZM8.79064 24.4708H53.1041V23.4708H8.79064V24.4708ZM3.5 19.1801C3.5 22.1021 5.8687 24.4708 8.79064 24.4708V23.4708C6.42098 23.4708 4.5 21.5498 4.5 19.1801H3.5ZM3.5 13.7906V19.1801H4.5V13.7906H3.5Z" fill="#4D0000" mask="url(#path-1-outside-1_6471_46166)"/>
</g>
<path id="Rectangle 48" d="M37.2727 29.959H24.6224C24.395 29.959 24.2107 30.1433 24.2107 30.3707V35.5356C24.2107 35.763 24.395 35.9473 24.6224 35.9473H37.2727C37.5001 35.9473 37.6844 35.763 37.6844 35.5356V30.3707C37.6844 30.1433 37.5001 29.959 37.2727 29.959Z" fill="#4D0000"/>
</g>
</g>
<g id="Subtract">
<mask id="path-4-outside-2_6471_46166" maskUnits="userSpaceOnUse" x="6.09518" y="20.7959" width="50" height="36" fill="black">
<rect fill="white" x="6.09518" y="20.7959" width="50" height="36"/>
<path fill-rule="evenodd" clip-rule="evenodd" d="M10.9611 52.0035V26.2537H50.933V32.4996C52.1836 32.1286 53.4893 31.8861 54.835 31.7874L54.8348 26.4535C54.8348 23.9875 54.8349 22.8272 54.2558 22.2812C53.7412 21.796 52.7691 21.796 50.933 21.7959H30.3833L10.9611 21.7961C7.65387 21.7961 7.09518 22.9464 7.09518 26.2537V39.2618V52.0701C7.09518 53.7911 7.09518 54.6645 7.53187 55.1077C7.99852 55.5813 8.96386 55.5635 10.9608 55.5635H31.5474H38.4534C38.1124 54.4193 37.879 53.2287 37.7648 52.0035H10.9611Z"/>
</mask>
<path fill-rule="evenodd" clip-rule="evenodd" d="M10.9611 52.0035V26.2537H50.933V32.4996C52.1836 32.1286 53.4893 31.8861 54.835 31.7874L54.8348 26.4535C54.8348 23.9875 54.8349 22.8272 54.2558 22.2812C53.7412 21.796 52.7691 21.796 50.933 21.7959H30.3833L10.9611 21.7961C7.65387 21.7961 7.09518 22.9464 7.09518 26.2537V39.2618V52.0701C7.09518 53.7911 7.09518 54.6645 7.53187 55.1077C7.99852 55.5813 8.96386 55.5635 10.9608 55.5635H31.5474H38.4534C38.1124 54.4193 37.879 53.2287 37.7648 52.0035H10.9611Z" fill="#4D0000"/>
<path d="M10.9611 26.2537V25.7537H10.4611V26.2537H10.9611ZM10.9611 52.0035H10.4611V52.5035H10.9611V52.0035ZM50.933 26.2537H51.433V25.7537H50.933V26.2537ZM50.933 32.4996H50.433V33.1695L51.0752 32.9789L50.933 32.4996ZM54.835 31.7874L54.8716 32.286L55.335 32.252L55.335 31.7874L54.835 31.7874ZM54.8348 26.4535L54.3348 26.4535L54.3348 26.4535L54.8348 26.4535ZM54.2558 22.2812L53.9128 22.645L53.9128 22.645L54.2558 22.2812ZM50.933 21.7959L50.9331 21.2959H50.933V21.7959ZM30.3833 21.7959L30.3833 21.2959L30.3833 21.2959L30.3833 21.7959ZM10.9611 21.7961L10.9611 22.2961L10.9611 22.2961L10.9611 21.7961ZM7.53187 55.1077L7.17571 55.4586L7.17572 55.4586L7.53187 55.1077ZM38.4534 55.5635V56.0635H39.1242L38.9326 55.4207L38.4534 55.5635ZM37.7648 52.0035L38.2627 51.9571L38.2204 51.5035H37.7648V52.0035ZM10.4611 26.2537V52.0035H11.4611V26.2537H10.4611ZM50.933 25.7537H10.9611V26.7537H50.933V25.7537ZM51.433 32.4996V26.2537H50.433V32.4996H51.433ZM51.0752 32.9789C52.2917 32.6181 53.562 32.3821 54.8716 32.286L54.7984 31.2887C53.4166 31.3901 52.0754 31.6392 50.7908 32.0202L51.0752 32.9789ZM54.3348 26.4535L54.335 31.7874L55.335 31.7874L55.3348 26.4534L54.3348 26.4535ZM53.9128 22.645C54.0664 22.7898 54.1959 23.0612 54.2654 23.7013C54.3341 24.3343 54.3348 25.208 54.3348 26.4535H55.3348C55.3348 25.2329 55.3355 24.2935 55.2595 23.5934C55.1843 22.9003 55.0243 22.3186 54.5988 21.9174L53.9128 22.645ZM50.933 22.2959C51.863 22.296 52.5316 22.2968 53.0338 22.3535C53.5372 22.4104 53.7751 22.5152 53.9128 22.645L54.5988 21.9174C54.2219 21.5621 53.7165 21.4243 53.1461 21.3598C52.5746 21.2952 51.8392 21.296 50.9331 21.2959L50.933 22.2959ZM30.3833 22.2959H50.933V21.2959H30.3833V22.2959ZM10.9611 22.2961L30.3833 22.2959L30.3833 21.2959L10.9611 21.2961L10.9611 22.2961ZM7.59518 26.2537C7.59518 25.4356 7.63019 24.7794 7.72611 24.2513C7.82169 23.725 7.97232 23.3582 8.18046 23.0944C8.58003 22.588 9.3304 22.2961 10.9611 22.2961V21.2961C9.28458 21.2961 8.10198 21.5795 7.3954 22.475C7.05047 22.9122 6.85472 23.4531 6.7422 24.0726C6.63001 24.6903 6.59518 25.4181 6.59518 26.2537H7.59518ZM7.59518 39.2618V26.2537H6.59518V39.2618H7.59518ZM7.59518 52.0701V39.2618H6.59518V52.0701H7.59518ZM7.88802 54.7568C7.79071 54.658 7.69777 54.4701 7.64668 54.0126C7.59593 53.558 7.59518 52.9427 7.59518 52.0701H6.59518C6.59518 52.9184 6.59444 53.6003 6.65286 54.1236C6.71094 54.6438 6.83634 55.1142 7.17571 55.4586L7.88802 54.7568ZM10.9608 55.0635C9.94783 55.0635 9.23991 55.0673 8.72207 55.0157C8.19752 54.9634 7.9923 54.8626 7.88802 54.7568L7.17572 55.4586C7.53809 55.8264 8.04886 55.9535 8.62288 56.0108C9.20361 56.0686 9.97682 56.0635 10.9608 56.0635V55.0635ZM31.5474 55.0635H10.9608V56.0635H31.5474V55.0635ZM38.4534 55.0635H31.5474V56.0635H38.4534V55.0635ZM38.9326 55.4207C38.6009 54.3077 38.3737 53.1494 38.2627 51.9571L37.267 52.0499C37.3842 53.308 37.6239 54.5309 37.9743 55.7063L38.9326 55.4207ZM10.9611 52.5035H37.7648V51.5035H10.9611V52.5035Z" fill="#4D0000" mask="url(#path-4-outside-2_6471_46166)"/>
</g>
<g id="Group 1171275575">
<g id="Group">
<g id="Vector">
<path d="M48.1998 52.9941H62.0165C62.2352 52.9948 62.4525 52.9772 62.6683 52.9413C62.8842 52.9048 63.0958 52.8513 63.3025 52.7796C63.5092 52.7072 63.7082 52.6186 63.9002 52.5131C64.0921 52.4077 64.2735 52.2867 64.4444 52.1503C64.6159 52.0139 64.7748 51.8649 64.9204 51.7018C65.0666 51.5386 65.1974 51.3643 65.3141 51.1787C65.4308 50.9937 65.5307 50.7997 65.6143 50.5972C65.698 50.3954 65.7641 50.1873 65.8126 49.9735L67.9768 40.5969C67.9922 40.5308 68 40.464 68 40.3965C68 40.3283 67.9922 40.2615 67.9775 40.1954C67.9627 40.1293 67.9402 40.0661 67.9114 40.0049C67.8819 39.9437 67.846 39.8868 67.8038 39.834C67.7616 39.7813 67.7145 39.7335 67.6611 39.6913C67.6084 39.6491 67.5514 39.6133 67.4902 39.5837C67.4298 39.5542 67.3658 39.5317 67.2997 39.5169C67.2336 39.5022 67.1668 39.4944 67.0993 39.4944H46.1594L45.4767 36.5885C45.4535 36.4894 45.4141 36.3973 45.36 36.3115C45.3058 36.2264 45.2383 36.1519 45.1589 36.0886C45.0794 36.026 44.9915 35.9775 44.8959 35.9445C44.8003 35.9114 44.7012 35.8945 44.5999 35.8945H41.9C41.8409 35.8945 41.7826 35.9002 41.7242 35.9121C41.6665 35.9234 41.6103 35.9402 41.5555 35.9627C41.5013 35.9859 41.4493 36.0134 41.4001 36.0464C41.3509 36.0787 41.3051 36.116 41.2637 36.1582C41.2215 36.1997 41.1842 36.2454 41.1519 36.2946C41.1188 36.3438 41.0914 36.3958 41.0682 36.45C41.0457 36.5048 41.0288 36.5611 41.0176 36.6187C41.0056 36.6771 41 36.7354 41 36.7945C41 36.8536 41.0056 36.9119 41.0176 36.9703C41.0288 37.0279 41.0457 37.0842 41.0682 37.139C41.0914 37.1932 41.1188 37.2452 41.1519 37.2944C41.1842 37.3436 41.2215 37.3893 41.2637 37.4308C41.3051 37.473 41.3509 37.5103 41.4001 37.5426C41.4493 37.5757 41.5013 37.6031 41.5555 37.6263C41.6103 37.6488 41.6665 37.6657 41.7242 37.6769C41.7826 37.6889 41.8409 37.6945 41.9 37.6945H43.887L47.1198 51.4247C46.9792 51.4866 46.8456 51.5597 46.7177 51.6448C46.5897 51.7299 46.4702 51.8248 46.3584 51.9303C46.2466 52.0357 46.1446 52.1496 46.0525 52.272C45.9604 52.395 45.8796 52.5244 45.8092 52.6608C45.7389 52.7972 45.6813 52.9385 45.6356 53.0848C45.5892 53.2317 45.5561 53.3808 45.5357 53.5327C45.5146 53.6845 45.5076 53.8378 45.5132 53.9911C45.5182 54.1444 45.5371 54.2962 45.5681 54.446C45.5997 54.5965 45.6433 54.7427 45.6996 54.8854C45.7565 55.0282 45.824 55.1653 45.9042 55.296C45.9836 55.4275 46.0736 55.5506 46.1749 55.6666C46.2754 55.7826 46.3851 55.8888 46.5039 55.9858C46.6227 56.0828 46.7493 56.1693 46.8829 56.2445C47.0165 56.3198 47.155 56.3837 47.2998 56.4358C47.444 56.4871 47.5916 56.5265 47.7428 56.5532C47.894 56.5799 48.0465 56.5933 48.1998 56.594H65.2993C65.3584 56.594 65.4168 56.5884 65.4751 56.5764C65.5328 56.5651 65.589 56.5483 65.6439 56.5258C65.698 56.5026 65.75 56.4752 65.7993 56.4421C65.8485 56.4098 65.8942 56.3725 65.9357 56.3303C65.9778 56.2888 66.0151 56.2431 66.0475 56.1939C66.0805 56.1447 66.1079 56.0927 66.1311 56.0385C66.1536 55.9837 66.1705 55.9274 66.1817 55.8698C66.1937 55.8114 66.1993 55.7531 66.1993 55.694C66.1993 55.6349 66.1937 55.5766 66.1817 55.5182C66.1705 55.4606 66.1536 55.4043 66.1311 55.3495C66.1079 55.2953 66.0805 55.2433 66.0475 55.1941C66.0151 55.1449 65.9778 55.0992 65.9357 55.0577C65.8942 55.0155 65.8485 54.9782 65.7993 54.9459C65.75 54.9128 65.698 54.8854 65.6439 54.8622C65.589 54.8397 65.5328 54.8229 65.4751 54.8116C65.4168 54.7996 65.3584 54.794 65.2993 54.794H48.1998C48.1407 54.794 48.0824 54.7884 48.024 54.7764C47.9664 54.7652 47.9101 54.7483 47.8553 54.7258C47.8011 54.7026 47.7491 54.6752 47.6999 54.6422C47.6507 54.6098 47.605 54.5725 47.5635 54.5304C47.5213 54.4889 47.484 54.4432 47.4517 54.394C47.4187 54.3447 47.3912 54.2927 47.368 54.2386C47.3455 54.1837 47.3287 54.1275 47.3174 54.0698C47.3055 54.0115 47.2998 53.9531 47.2998 53.894C47.2998 53.835 47.3055 53.7766 47.3174 53.7183C47.3287 53.6606 47.3455 53.6044 47.368 53.5495C47.3912 53.4954 47.4187 53.4434 47.4517 53.3941C47.484 53.3449 47.5213 53.2992 47.5635 53.2577C47.605 53.2156 47.6507 53.1783 47.6999 53.1459C47.7491 53.1129 47.8011 53.0855 47.8553 53.0623C47.9101 53.0398 47.9664 53.0229 48.024 53.0117C48.0824 52.9997 48.1407 52.9941 48.1998 52.9941ZM65.968 41.2944L64.0584 49.5685C64.0324 49.6838 63.9972 49.7956 63.9522 49.9046C63.9072 50.0136 63.8531 50.1177 63.7905 50.2175C63.7279 50.3173 63.6576 50.4109 63.5789 50.4987C63.5008 50.5866 63.415 50.6668 63.3229 50.7406C63.2308 50.8137 63.1331 50.8791 63.0297 50.9354C62.9271 50.9923 62.8195 51.0401 62.7084 51.0788C62.5973 51.1175 62.4834 51.1463 62.3674 51.166C62.2507 51.185 62.134 51.1948 62.0165 51.1941H48.9128L46.5799 41.2944H65.968Z" fill="#4D0000"/>
<path d="M65.968 41.2944L64.0584 49.5685C64.0324 49.6838 63.9972 49.7956 63.9522 49.9046C63.9072 50.0136 63.8531 50.1177 63.7905 50.2175C63.7279 50.3173 63.6576 50.4109 63.5789 50.4987C63.5008 50.5866 63.415 50.6668 63.3229 50.7406C63.2308 50.8137 63.1331 50.8791 63.0297 50.9354C62.9271 50.9923 62.8195 51.0401 62.7084 51.0788C62.5973 51.1175 62.4834 51.1463 62.3674 51.166C62.2507 51.185 62.134 51.1948 62.0165 51.1941H48.9128L46.5799 41.2944H65.968Z" fill="#BE1A2E"/>
</g>
</g>
<g id="Group_2">
<path id="Vector_2" d="M49.9998 57.4941C49.8226 57.4941 49.6468 57.5117 49.4732 57.5462C49.2995 57.5806 49.1301 57.6319 48.9662 57.6994C48.8031 57.7676 48.647 57.8506 48.5001 57.9491C48.3524 58.0475 48.216 58.1593 48.0909 58.2851C47.965 58.4103 47.8532 58.5467 47.7548 58.6943C47.6564 58.8413 47.5734 58.9974 47.5052 59.1605C47.4377 59.3243 47.3864 59.4938 47.3519 59.6674C47.3175 59.8411 47.2999 60.0169 47.2999 60.1941C47.2999 60.3713 47.3175 60.547 47.3519 60.7207C47.3864 60.8944 47.4377 61.0638 47.5052 61.2269C47.5734 61.3908 47.6564 61.5468 47.7548 61.6938C47.8532 61.8414 47.965 61.9778 48.0909 62.103C48.216 62.2289 48.3524 62.3407 48.5001 62.4391C48.647 62.5375 48.8031 62.6205 48.9662 62.6887C49.1301 62.7562 49.2995 62.8075 49.4732 62.842C49.6468 62.8764 49.8226 62.894 49.9998 62.894C50.177 62.894 50.3528 62.8764 50.5264 62.842C50.7001 62.8075 50.8696 62.7562 51.0327 62.6887C51.1965 62.6205 51.3526 62.5375 51.4995 62.4391C51.6472 62.3407 51.7836 62.2289 51.9087 62.103C52.0346 61.9778 52.1464 61.8414 52.2448 61.6938C52.3433 61.5468 52.4262 61.3908 52.4944 61.2269C52.5619 61.0638 52.6133 60.8944 52.6477 60.7207C52.6822 60.547 52.6997 60.3713 52.6997 60.1941C52.6997 60.0169 52.6822 59.8411 52.6477 59.6674C52.6133 59.4938 52.5619 59.3243 52.4944 59.1605C52.4262 58.9974 52.3433 58.8413 52.2448 58.6943C52.1464 58.5467 52.0346 58.4103 51.9087 58.2851C51.7836 58.1593 51.6472 58.0475 51.4995 57.9491C51.3526 57.8506 51.1965 57.7676 51.0334 57.6994C50.8696 57.6319 50.7001 57.5806 50.5264 57.5462C50.3528 57.5117 50.177 57.4941 49.9998 57.4941ZM49.9998 61.094C49.9407 61.094 49.8824 61.0884 49.824 61.0765C49.7664 61.0652 49.7101 61.0483 49.6553 61.0258C49.6011 61.0026 49.5491 60.9752 49.4999 60.9422C49.4507 60.9098 49.405 60.8726 49.3635 60.8304C49.3213 60.7889 49.284 60.7432 49.2517 60.694C49.2187 60.6448 49.1912 60.5927 49.168 60.5386C49.1455 60.4837 49.1287 60.4275 49.1174 60.3698C49.1055 60.3115 49.0998 60.2531 49.0998 60.1941C49.0998 60.135 49.1055 60.0766 49.1174 60.0183C49.1287 59.9606 49.1455 59.9044 49.168 59.8495C49.1912 59.7954 49.2187 59.7434 49.2517 59.6942C49.284 59.6449 49.3213 59.5992 49.3635 59.5578C49.405 59.5156 49.4507 59.4783 49.4999 59.446C49.5491 59.4129 49.6011 59.3855 49.6553 59.3623C49.7101 59.3398 49.7664 59.3229 49.824 59.3117C49.8824 59.2997 49.9407 59.2941 49.9998 59.2941C50.0589 59.2941 50.1172 59.2997 50.1756 59.3117C50.2332 59.3229 50.2895 59.3398 50.3443 59.3623C50.3985 59.3855 50.4505 59.4129 50.4997 59.446C50.5489 59.4783 50.5946 59.5156 50.6361 59.5578C50.6783 59.5992 50.7156 59.6449 50.7479 59.6942C50.781 59.7434 50.8084 59.7954 50.8316 59.8495C50.8541 59.9044 50.871 59.9606 50.8822 60.0183C50.8942 60.0766 50.8998 60.135 50.8998 60.1941C50.8998 60.2531 50.8942 60.3115 50.8822 60.3698C50.871 60.4275 50.8541 60.4837 50.8316 60.5386C50.8084 60.5927 50.781 60.6448 50.7479 60.694C50.7156 60.7432 50.6783 60.7889 50.6361 60.8304C50.5946 60.8726 50.5489 60.9098 50.4997 60.9422C50.4505 60.9752 50.3985 61.0026 50.3443 61.0258C50.2895 61.0483 50.2332 61.0652 50.1756 61.0765C50.1172 61.0884 50.0589 61.094 49.9998 61.094Z" fill="#4D0000"/>
</g>
<g id="Group_3">
<path id="Vector_3" d="M60.7996 57.4941C60.6224 57.4941 60.4466 57.5117 60.273 57.5462C60.0993 57.5806 59.9299 57.6319 59.766 57.6994C59.6029 57.7676 59.4468 57.8506 59.2999 57.9491C59.1522 58.0475 59.0158 58.1593 58.8907 58.2851C58.7648 58.4103 58.653 58.5467 58.5546 58.6943C58.4561 58.8413 58.3732 58.9974 58.305 59.1605C58.2375 59.3243 58.1862 59.4938 58.1517 59.6674C58.1172 59.8411 58.0997 60.0169 58.0997 60.1941C58.0997 60.3713 58.1172 60.547 58.1517 60.7207C58.1862 60.8944 58.2375 61.0638 58.305 61.2269C58.3732 61.3908 58.4561 61.5468 58.5546 61.6938C58.653 61.8414 58.7648 61.9778 58.8907 62.103C59.0158 62.2289 59.1522 62.3407 59.2999 62.4391C59.4468 62.5375 59.6029 62.6205 59.766 62.6887C59.9299 62.7562 60.0993 62.8075 60.273 62.842C60.4466 62.8764 60.6224 62.894 60.7996 62.894C60.9768 62.894 61.1526 62.8764 61.3262 62.842C61.4999 62.8075 61.6693 62.7562 61.8325 62.6887C61.9963 62.6205 62.1524 62.5375 62.2993 62.4391C62.447 62.3407 62.5834 62.2289 62.7085 62.103C62.8344 61.9778 62.9462 61.8414 63.0446 61.6938C63.1431 61.5468 63.226 61.3908 63.2942 61.2269C63.3617 61.0638 63.413 60.8944 63.4475 60.7207C63.4819 60.547 63.4995 60.3713 63.4995 60.1941C63.4995 60.0169 63.4819 59.8411 63.4475 59.6674C63.413 59.4938 63.3617 59.3243 63.2942 59.1605C63.226 58.9974 63.1431 58.8413 63.0446 58.6943C62.9462 58.5467 62.8344 58.4103 62.7085 58.2851C62.5834 58.1593 62.447 58.0475 62.2993 57.9491C62.1524 57.8506 61.9963 57.7676 61.8325 57.6994C61.6693 57.6319 61.4999 57.5806 61.3262 57.5462C61.1526 57.5117 60.9768 57.4941 60.7996 57.4941ZM60.7996 61.094C60.7405 61.094 60.6822 61.0884 60.6238 61.0765C60.5662 61.0652 60.5099 61.0483 60.4551 61.0258C60.4009 61.0026 60.3489 60.9752 60.2997 60.9422C60.2505 60.9098 60.2048 60.8726 60.1633 60.8304C60.1211 60.7889 60.0838 60.7432 60.0515 60.694C60.0184 60.6448 59.991 60.5927 59.9678 60.5386C59.9453 60.4837 59.9284 60.4275 59.9172 60.3698C59.9052 60.3115 59.8996 60.2531 59.8996 60.1941C59.8996 60.135 59.9052 60.0766 59.9172 60.0183C59.9284 59.9606 59.9453 59.9044 59.9678 59.8495C59.991 59.7954 60.0184 59.7434 60.0515 59.6942C60.0838 59.6449 60.1211 59.5992 60.1633 59.5578C60.2048 59.5156 60.2505 59.4783 60.2997 59.446C60.3489 59.4129 60.4009 59.3855 60.4551 59.3623C60.5099 59.3398 60.5662 59.3229 60.6238 59.3117C60.6822 59.2997 60.7405 59.2941 60.7996 59.2941C60.8587 59.2941 60.917 59.2997 60.9754 59.3117C61.033 59.3229 61.0893 59.3398 61.1441 59.3623C61.1983 59.3855 61.2503 59.4129 61.2995 59.446C61.3487 59.4783 61.3944 59.5156 61.4359 59.5578C61.4781 59.5992 61.5154 59.6449 61.5477 59.6942C61.5807 59.7434 61.6082 59.7954 61.6314 59.8495C61.6539 59.9044 61.6707 59.9606 61.682 60.0183C61.6939 60.0766 61.6996 60.135 61.6996 60.1941C61.6996 60.2531 61.6939 60.3115 61.682 60.3698C61.6707 60.4275 61.6539 60.4837 61.6314 60.5386C61.6082 60.5927 61.5807 60.6448 61.5477 60.694C61.5154 60.7432 61.4781 60.7889 61.4359 60.8304C61.3944 60.8726 61.3487 60.9098 61.2995 60.9422C61.2503 60.9752 61.1983 61.0026 61.1441 61.0258C61.0893 61.0483 61.033 61.0652 60.9754 61.0765C60.917 61.0884 60.8587 61.094 60.7996 61.094Z" fill="#4D0000"/>
</g>
</g>
</g>
</g>
</svg>
