<svg width="72" height="72" viewBox="0 0 72 72" fill="none" xmlns="http://www.w3.org/2000/svg">
<g id="sales-order">
<g id="Group">
<g id="Vector">
<path d="M62.8907 68.0001C48.458 68.0001 34.0252 68.0001 19.5924 68.0001C19.1449 67.9235 18.6973 67.8404 18.2481 67.7705C10.9577 66.6225 4.82857 60.4984 4.17306 52.5059C3.57578 45.2088 7.81827 38.2677 14.6994 35.5492C16.0936 34.9985 17.5826 34.6891 19.0916 34.2482C19.0916 34.1018 19.0916 33.8539 19.0916 33.606C19.0916 25.7665 19.09 17.9288 19.0916 10.0893C19.0916 6.48402 21.4624 4.11322 25.0661 4.11322C34.3613 4.11155 43.6548 4.11821 52.95 4.10157C53.8002 4.09991 54.4557 4.36444 55.0546 4.9667C58.981 8.9197 62.9224 12.8611 66.8754 16.7874C67.4943 17.4014 67.7671 18.0702 67.7654 18.9469C67.7455 27.1391 67.7538 35.3313 67.7538 43.5251C67.7538 49.7624 67.7671 56.0013 67.7471 62.2386C67.7388 64.7259 66.5676 66.5127 64.3032 67.5509C63.859 67.7555 63.3632 67.8537 62.8907 68.0001ZM22.8367 34.4079C25.9195 34.7939 28.6231 35.8753 31.0571 37.6588C31.3616 37.8817 31.7991 38.0365 32.1751 38.0365C38.9115 38.0581 45.6479 38.0531 52.386 38.0531C53.9865 38.0531 55.5887 38.0365 57.1892 38.0614C58.1674 38.0764 58.9361 38.8267 59.0176 39.7717C59.0958 40.6835 58.4752 41.5336 57.5502 41.7432C57.2907 41.8015 57.0145 41.7948 56.745 41.7948C49.759 41.7981 42.773 41.7965 35.7854 41.7965C35.5508 41.7965 35.3146 41.7965 34.9685 41.7965C36.5041 44.154 37.3826 46.6096 37.712 49.2832C38.0198 49.2832 38.266 49.2832 38.5139 49.2832C43.8162 49.2832 49.1185 49.2832 54.4207 49.2832C55.3558 49.2832 56.2924 49.2616 57.2274 49.2915C58.1724 49.3232 58.9228 50.0569 59.0159 50.9786C59.1041 51.867 58.5301 52.7038 57.6301 52.9434C57.3556 53.0166 57.0561 53.0216 56.7683 53.0216C50.6557 53.0266 44.5416 53.0249 38.4291 53.0249C38.1895 53.0249 37.9499 53.0249 37.7103 53.0249C37.4308 55.261 36.7953 57.2907 35.7621 59.1923C34.7206 61.1056 33.3381 62.7427 31.5529 64.2551C31.8956 64.2551 32.0737 64.2551 32.25 64.2551C42.1059 64.2551 51.9618 64.2551 61.8176 64.2551C63.3033 64.2551 64.0138 63.5313 64.0138 62.0223C64.0138 48.3615 64.0138 34.7007 64.0138 21.0399C64.0138 20.8186 64.0138 20.5974 64.0138 20.3328C63.7126 20.3328 63.488 20.3328 63.2634 20.3328C60.0824 20.3328 56.9014 20.3345 53.7203 20.3328C52.2629 20.3328 51.5375 19.6091 51.5375 18.1517C51.5359 14.949 51.5375 11.748 51.5375 8.54537C51.5375 8.32576 51.5375 8.10615 51.5375 7.85492C51.243 7.85492 51.0384 7.85492 50.8321 7.85492C42.244 7.85492 33.6575 7.85492 25.0694 7.85492C23.5338 7.85492 22.8383 8.55868 22.8383 10.1126C22.8383 17.972 22.8383 25.8314 22.8383 33.6908C22.8367 33.9188 22.8367 34.1434 22.8367 34.4079ZM20.9633 64.2567C28.1756 64.2584 34.0585 58.3821 34.0668 51.1716C34.0751 43.9577 28.2072 38.0681 20.9983 38.0548C13.7561 38.0415 7.85986 43.9294 7.86486 51.1699C7.86985 58.3771 13.7511 64.255 20.9633 64.2567ZM55.3241 10.66C55.3241 12.6464 55.3241 14.603 55.3241 16.5379C57.3206 16.5379 59.2705 16.5379 61.1821 16.5379C59.2306 14.5797 57.289 12.6315 55.3241 10.66Z" fill="#0B2D1F"/>
<path d="M55.3241 10.66V16.5379H61.1821L55.3241 10.66Z" fill="#22885E"/>
<path d="M20.9633 64.2567C28.1756 64.2584 34.0585 58.3821 34.0668 51.1716C34.0751 43.9577 28.2072 38.0681 20.9983 38.0548C13.7561 38.0415 7.85986 43.9294 7.86486 51.1699C7.86985 58.3771 13.7511 64.255 20.9633 64.2567Z" fill="#62C89E"/>
</g>
<path id="Vector_2" d="M43.4319 30.5667C38.9016 30.5667 34.3729 30.5717 29.8426 30.5633C28.3802 30.5617 27.4352 29.2557 27.9759 27.9912C28.312 27.2059 28.9425 26.825 29.796 26.825C31.2717 26.8233 32.7475 26.825 34.2215 26.825C41.8064 26.825 49.3897 26.8233 56.9746 26.8266C58.4752 26.8283 59.4335 28.146 58.8612 29.4287C58.5019 30.2339 57.833 30.5733 56.9579 30.5717C53.0931 30.565 49.2283 30.5683 45.3635 30.5683C44.7196 30.5667 44.0757 30.5667 43.4319 30.5667Z" fill="#0B2D1F"/>
</g>
<path id="Vector_3" d="M25.7534 54.3874C25.7534 55.4536 25.4067 56.3718 24.7133 57.1418C24.0199 57.9119 23.1191 58.3875 22.0111 58.5687V60.3981C22.0111 60.4957 21.9797 60.5758 21.917 60.6385C21.8543 60.7012 21.7741 60.7326 21.6766 60.7326H20.2653C20.1747 60.7326 20.0963 60.6995 20.0301 60.6333C19.9639 60.5671 19.9308 60.4887 19.9308 60.3981V58.5687C19.4709 58.506 19.0266 58.398 18.598 58.2447C18.1694 58.0914 17.8157 57.9363 17.537 57.7795C17.2582 57.6227 17.0004 57.4554 16.7634 57.2777C16.5265 57.1 16.3645 56.9694 16.2773 56.8857C16.1902 56.8021 16.1293 56.7394 16.0944 56.6976C15.9759 56.5512 15.969 56.4084 16.0735 56.269L17.1502 54.8578C17.199 54.7881 17.2791 54.7463 17.3906 54.7323C17.4952 54.7184 17.5788 54.7497 17.6415 54.8264L17.6624 54.8473C18.4499 55.5372 19.2967 55.9728 20.2026 56.154C20.4605 56.2097 20.7183 56.2376 20.9762 56.2376C21.5407 56.2376 22.0372 56.0878 22.4658 55.7881C22.8944 55.4885 23.1087 55.0633 23.1087 54.5128C23.1087 54.3177 23.0564 54.133 22.9519 53.9588C22.8473 53.7845 22.7306 53.6382 22.6017 53.5197C22.4728 53.4012 22.2689 53.2706 21.9902 53.1277C21.7114 52.9848 21.4814 52.8733 21.3002 52.7932C21.119 52.7131 20.8403 52.5998 20.464 52.4535C20.1922 52.342 19.9779 52.2548 19.8211 52.1921C19.6643 52.1294 19.45 52.0371 19.1782 51.9151C18.9064 51.7932 18.6886 51.6851 18.5248 51.5911C18.3611 51.497 18.1642 51.3733 17.9342 51.22C17.7042 51.0666 17.5178 50.9185 17.375 50.7757C17.2321 50.6328 17.0805 50.4621 16.9202 50.2635C16.7599 50.0648 16.6362 49.8627 16.5491 49.6572C16.462 49.4516 16.3888 49.2199 16.3296 48.962C16.2704 48.7042 16.2408 48.4324 16.2408 48.1466C16.2408 47.1849 16.5822 46.3417 17.2652 45.6169C17.9482 44.8921 18.8367 44.4252 19.9308 44.2161V42.3345C19.9308 42.2439 19.9639 42.1655 20.0301 42.0993C20.0963 42.0331 20.1747 42 20.2653 42H21.6766C21.7741 42 21.8543 42.0314 21.917 42.0941C21.9797 42.1568 22.0111 42.2369 22.0111 42.3345V44.1743C22.4083 44.2161 22.7933 44.2963 23.1662 44.4148C23.539 44.5332 23.8422 44.65 24.0756 44.7649C24.3091 44.8799 24.5304 45.0106 24.7394 45.1569C24.9485 45.3033 25.0844 45.4043 25.1471 45.4601C25.2098 45.5158 25.2621 45.5646 25.3039 45.6064C25.4224 45.7319 25.4398 45.8643 25.3562 46.0037L24.5094 47.5299C24.4537 47.6344 24.3736 47.6902 24.269 47.6971C24.1714 47.718 24.0774 47.6937 23.9868 47.624C23.9659 47.6031 23.9153 47.5612 23.8352 47.4985C23.7551 47.4358 23.6192 47.3435 23.4275 47.2215C23.2359 47.0995 23.032 46.988 22.816 46.887C22.5999 46.7859 22.3404 46.6953 22.0372 46.6152C21.7341 46.5351 21.4361 46.495 21.1434 46.495C20.4814 46.495 19.9413 46.6448 19.5231 46.9445C19.105 47.2442 18.8959 47.6309 18.8959 48.1048C18.8959 48.286 18.9256 48.4533 18.9848 48.6066C19.044 48.7599 19.1468 48.9045 19.2932 49.0404C19.4395 49.1763 19.5772 49.2913 19.7061 49.3854C19.835 49.4795 20.0301 49.5875 20.2915 49.7094C20.5528 49.8314 20.7636 49.9255 20.9239 49.9917C21.0842 50.0579 21.3281 50.1537 21.6557 50.2791C22.025 50.4185 22.3072 50.5283 22.5024 50.6084C22.6975 50.6886 22.9623 50.8105 23.2968 50.9743C23.6314 51.1381 23.8944 51.2862 24.0861 51.4186C24.2777 51.551 24.4938 51.7252 24.7342 51.9412C24.9746 52.1573 25.1593 52.3785 25.2882 52.605C25.4172 52.8315 25.5269 53.0981 25.6175 53.4047C25.7081 53.7114 25.7534 54.0389 25.7534 54.3874Z" fill="#0B2D1F"/>
</g>
</svg>
