<svg width="72" height="72" viewBox="0 0 72 72" fill="none" xmlns="http://www.w3.org/2000/svg">
<g id="sales-analysis">
<g id="Group 1171275531">
<rect id="Rectangle 39" x="5.42471" y="43.9766" width="11.3775" height="14.2219" fill="#BE1A2E"/>
<path id="Subtract" fill-rule="evenodd" clip-rule="evenodd" d="M55.2013 8.42188H43.8238V58.1985H47.52C46.974 56.9054 46.6684 55.4589 46.6684 53.932C46.6684 48.553 50.4605 44.1703 55.2013 43.9829V8.42188Z" fill="#BE1A2E"/>
<g id="Group 159025">
<path id="Vector" d="M21.1964 8.70003C21.1964 8.24915 21.3755 7.81674 21.6943 7.49793C22.0131 7.17911 22.4456 7 22.8964 7H35.3633C35.8142 7 36.2466 7.17911 36.5654 7.49793C36.8842 7.81674 37.0633 8.24915 37.0633 8.70003V21.1669C37.0633 21.6178 36.8842 22.0502 36.5654 22.369C36.2466 22.6878 35.8142 22.8669 35.3633 22.8669C34.9124 22.8669 34.48 22.6878 34.1612 22.369C33.8424 22.0502 33.6633 21.6178 33.6633 21.1669V12.8028L12.7643 33.7018C12.442 34.0021 12.0157 34.1656 11.5753 34.1578C11.1349 34.15 10.7147 33.9716 10.4032 33.6601C10.0917 33.3487 9.91331 32.9284 9.90554 32.488C9.89777 32.0476 10.0612 31.6214 10.3615 31.2991L31.2606 10.4001H22.8964C22.4456 10.4001 22.0131 10.2209 21.6943 9.90213C21.3755 9.58331 21.1964 9.15091 21.1964 8.70003Z" fill="#4D0000"/>
<path id="Subtract_2" fill-rule="evenodd" clip-rule="evenodd" d="M7.79538 44.9538H15.3861V56.34H7.79538V44.9538ZM26.7723 29.7723H34.3631V56.34H26.7723V29.7723ZM53.34 44.5198V10.7954H45.7492V56.34H46.9692C47.3265 57.7497 47.9857 59.0391 48.8739 60.1353H45.7492C44.7426 60.1353 43.7772 59.7355 43.0655 59.0237C42.3537 58.3119 41.9538 57.3466 41.9538 56.34V10.7954C41.9538 9.78878 42.3537 8.82341 43.0655 8.11164C43.7772 7.39987 44.7426 7 45.7492 7H53.34C54.3466 7 55.3119 7.39987 56.0237 8.11164C56.7355 8.82341 57.1353 9.78878 57.1353 10.7954V43.9921C56.953 43.9821 56.7692 43.977 56.5844 43.977C55.4482 43.977 54.3566 44.1681 53.34 44.5198ZM24.0886 27.0886C23.3768 27.8003 22.9769 28.7657 22.9769 29.7723V56.34C22.9769 57.3466 23.3768 58.3119 24.0886 59.0237C24.8003 59.7355 25.7657 60.1353 26.7723 60.1353H34.3631C35.3697 60.1353 36.335 59.7355 37.0468 59.0237C37.7586 58.3119 38.1584 57.3466 38.1584 56.34V29.7723C38.1584 28.7657 37.7586 27.8003 37.0468 27.0886C36.335 26.3768 35.3697 25.9769 34.3631 25.9769H26.7723C25.7657 25.9769 24.8003 26.3768 24.0886 27.0886ZM5.11164 42.2701C4.39987 42.9819 4 43.9472 4 44.9538V56.34C4 57.3466 4.39987 58.3119 5.11164 59.0237C5.82341 59.7355 6.78878 60.1353 7.79538 60.1353H15.3861C16.3927 60.1353 17.3581 59.7355 18.0699 59.0237C18.7817 58.3119 19.1815 57.3466 19.1815 56.34V44.9538C19.1815 43.9472 18.7817 42.9819 18.0699 42.2701C17.3581 41.5583 16.3927 41.1584 15.3861 41.1584H7.79538C6.78878 41.1584 5.82341 41.5583 5.11164 42.2701Z" fill="#4D0000"/>
<path id="Vector_2" d="M61.8235 53.7504C61.8235 52.2626 61.2948 50.9899 60.2372 49.9323C59.1797 48.8748 57.907 48.346 56.4192 48.346C54.9314 48.346 53.6587 48.8748 52.6011 49.9323C51.5436 50.9899 51.0148 52.2626 51.0148 53.7504C51.0148 55.2382 51.5436 56.5109 52.6011 57.5684C53.6587 58.626 54.9314 59.1548 56.4192 59.1548C57.907 59.1548 59.1797 58.626 60.2372 57.5684C61.2948 56.5109 61.8235 55.2382 61.8235 53.7504ZM67.9999 63.7871C67.9999 64.2053 67.8471 64.5672 67.5415 64.8728C67.2359 65.1784 66.874 65.3312 66.4558 65.3312C66.0216 65.3312 65.6597 65.1784 65.3701 64.8728L61.2324 60.7471C59.7929 61.7443 58.1884 62.243 56.4192 62.243C55.2691 62.243 54.1694 62.0198 53.1198 61.5734C52.0703 61.1271 51.1656 60.5239 50.4056 59.7639C49.6456 59.004 49.0424 58.0992 48.5961 57.0497C48.1498 56.0002 47.9266 54.9004 47.9266 53.7504C47.9266 52.6003 48.1498 51.5006 48.5961 50.4511C49.0424 49.4016 49.6456 48.4968 50.4056 47.7368C51.1656 46.9768 52.0703 46.3737 53.1198 45.9273C54.1694 45.481 55.2691 45.2578 56.4192 45.2578C57.5692 45.2578 58.669 45.481 59.7185 45.9273C60.768 46.3737 61.6727 46.9768 62.4327 47.7368C63.1927 48.4968 63.7959 49.4016 64.2422 50.4511C64.6886 51.5006 64.9117 52.6003 64.9117 53.7504C64.9117 55.5197 64.4131 57.1241 63.4159 58.5636L67.5536 62.7014C67.8512 62.9989 67.9999 63.3608 67.9999 63.7871Z" fill="#4D0000"/>
</g>
</g>
</g>
</svg>
