<svg width="72" height="72" viewBox="0 0 72 72" fill="none" xmlns="http://www.w3.org/2000/svg">
<g id="sales-invoice-analysis">
<g id="Group 83">
<g id="Vector">
<path d="M16.6726 5.19693C12.5664 5.95131 9.32387 8.77408 8.4743 12.3147C8.27608 13.1421 8.24776 15.4538 8.24776 32.792V52.3202H6.12386H3.99998V55.6662C3.99998 59.3165 4.12741 60.2288 4.80704 61.616C6.06722 64.1955 8.64421 66.1542 11.915 67.0059C12.6513 67.2006 14.3221 67.225 33.0973 67.2614C47.9504 67.2858 53.7133 67.2616 54.3363 67.1642C55.4832 66.9696 56.9557 66.288 57.7203 65.5826C58.4705 64.901 59.1221 63.8304 59.3486 62.9301C59.4617 62.4675 59.5043 57.9658 59.5043 47.3925V32.4878H63.752H68V21.2333C68 13.3125 67.9574 9.79611 67.844 9.34594C67.3203 7.25317 65.3662 5.57413 62.931 5.12394C62.3928 5.02661 56.0213 4.9901 39.9221 5.00226C20.7221 5.01445 17.5221 5.03877 16.6726 5.19693ZM55.4549 8.96875C55.3982 9.16342 55.3133 21.2454 55.2707 35.8338C55.1859 61.6646 55.1715 62.3704 54.9168 62.7474C54.591 63.2099 53.7414 63.6355 53.1469 63.6355C52.4246 63.6355 51.6176 63.2099 51.2918 62.6624C51.023 62.2122 51.0086 61.9566 51.0086 57.2478V52.3202H31.7521H12.4955V32.9744C12.4955 19.2256 12.5381 13.4584 12.6513 12.996C12.9062 11.9376 13.4725 11.0736 14.3929 10.2828C15.299 9.50413 16.1912 9.06611 17.3805 8.81058C17.9328 8.70109 22.3361 8.66458 36.8353 8.65242L55.568 8.64026L55.4549 8.96875ZM62.6193 8.8836C62.9873 9.04176 63.2849 9.29726 63.4688 9.6136C63.752 10.076 63.752 10.3071 63.752 19.4691V28.8378H61.6281H59.5043V19.4691C59.5043 10.3193 59.5043 10.076 59.7875 9.6136C60.3113 8.72541 61.5433 8.40907 62.6193 8.8836ZM46.8035 59.523C46.8318 61.4822 46.9025 63.2099 46.9592 63.3557L47.0723 63.6355H30.5768C19.0229 63.6355 13.8406 63.5992 13.3168 63.5018C11.5185 63.1733 9.80528 62.0539 8.98403 60.6424C8.41766 59.6813 8.24776 58.8906 8.24776 57.3086V55.9704H27.4901H46.7469L46.8035 59.523Z" fill="#4D0000"/>
<path d="M55.4549 8.96875C55.3982 9.16342 55.3133 21.2454 55.2707 35.8338C55.1859 61.6646 55.1715 62.3704 54.9168 62.7474C54.591 63.2099 53.7414 63.6355 53.1469 63.6355C52.4246 63.6355 51.6176 63.2099 51.2918 62.6624C51.023 62.2122 51.0086 61.9566 51.0086 57.2478V52.3202H31.7521H12.4955V32.9744C12.4955 19.2256 12.5381 13.4584 12.6513 12.996C12.9062 11.9376 13.4725 11.0736 14.3929 10.2828C15.299 9.50413 16.1912 9.06611 17.3805 8.81058C17.9328 8.70109 22.3361 8.66458 36.8353 8.65242L55.568 8.64026L55.4549 8.96875Z" fill="#BE1A2E"/>
</g>
<path id="Vector_2" d="M31.3284 13.6148V14.8314L30.4788 15.2209C27.1653 16.7295 26.4432 20.3796 29.0063 22.5942C29.6999 23.1903 30.5919 23.5798 33.5372 24.5895C35.8733 25.3802 36.4682 25.6846 36.7655 26.2078C37.0909 26.8039 37.0487 27.0716 36.5532 27.5585C35.4204 28.6657 32.4612 28.5316 30.7903 27.3028L30.2098 26.8769L28.6378 28.118L27.0663 29.347L27.392 29.651C27.9018 30.1255 29.5018 31.0138 30.408 31.3302L31.2576 31.6222L31.2999 32.8388L31.3424 34.0678H33.4522H35.576V32.985V31.902L36.2415 31.7682C38.9034 31.1841 40.985 29.2129 41.1973 27.0596C41.3813 25.1858 40.2063 23.4094 38.0965 22.3385C37.728 22.1561 36.3688 21.633 35.052 21.1828C31.9796 20.1119 31.9511 20.0998 31.7672 19.7591C31.569 19.382 31.7532 18.9806 32.3052 18.5791C33.169 17.9583 34.7973 18.0194 36.4256 18.7249L37.261 19.09L38.6061 17.7271L39.9512 16.3646L39.5973 16.109C39.0735 15.7441 37.346 15.0262 36.3973 14.7828L35.576 14.5881V13.493V12.4102H33.4522H31.3284V13.6148Z" fill="#4D0000"/>
<path id="Vector_3" d="M16.7438 39.6659V41.4911H33.8767H51.0094V39.6659V37.8408H33.8767H16.7438V39.6659Z" fill="#4D0000"/>
<path id="Vector_4" d="M16.7438 46.9675V48.7927H33.8767H51.0094V46.9675V45.1426H33.8767H16.7438V46.9675Z" fill="#4D0000"/>
</g>
</g>
</svg>
