<svg width="72" height="72" viewBox="0 0 72 72" fill="none" xmlns="http://www.w3.org/2000/svg">
<g id="team-analysis">
<g id="Group 1171275243">
<g id="Group">
<g id="Vector 685">
<mask id="path-1-outside-1_6471_46118" maskUnits="userSpaceOnUse" x="13" y="5.5" width="45" height="61" fill="black">
<rect fill="white" x="13" y="5.5" width="45" height="61"/>
<path d="M44 6.5H14V66H57.5V20.5H44V6.5Z"/>
</mask>
<path d="M44 6.5H14V66H57.5V20.5H44V6.5Z" fill="#BE1A2E"/>
<path d="M44 6.5H14V66H57.5V20.5H44V6.5Z" stroke="#4D0000" mask="url(#path-1-outside-1_6471_46118)"/>
</g>
<g id="Vector">
<mask id="path-2-outside-2_6471_46118" maskUnits="userSpaceOnUse" x="10" y="3" width="51" height="66" fill="black">
<rect fill="white" x="10" y="3" width="51" height="66"/>
<path d="M14.6313 4.20019C13.2948 4.60367 12.0591 5.70062 11.4035 7.02453L11 7.8567V36.0371V64.2174L11.4035 65.0496C11.933 66.1087 12.8913 67.067 13.9504 67.5965L14.7826 68H35.6499H56.5173L57.2486 67.6596C58.2699 67.1804 59.392 66.0709 59.8964 65.0496L60.2998 64.2174L60.3377 42.2783C60.3503 30.2119 60.3377 20.2006 60.2998 20.0241C60.2116 19.671 45.1442 4.49019 44.5769 4.18758C44.0851 3.93541 15.4509 3.93541 14.6313 4.20019ZM41.8534 14.5267C41.8912 21.2471 41.8912 21.3984 42.156 21.7514C42.7486 22.5584 42.5847 22.5458 49.9986 22.5458H56.7064V42.8709C56.7064 62.8178 56.7064 63.2213 56.4542 63.6122C55.9373 64.4696 57.5259 64.4065 35.6499 64.4065C13.7739 64.4065 15.3626 64.4696 14.8456 63.6122C14.5935 63.2213 14.5935 62.7674 14.5935 36.0623C14.5935 6.06627 14.5304 8.4367 15.3878 7.91975C15.7787 7.68018 16.1191 7.66757 28.8034 7.66757H41.8282L41.8534 14.5267ZM49.8347 14.6023L54.1216 18.8893H49.7968H45.4847V14.6023C45.4847 12.2445 45.4973 10.3154 45.5225 10.3154C45.5351 10.3154 47.4768 12.2445 49.8347 14.6023Z"/>
</mask>
<path d="M14.6313 4.20019C13.2948 4.60367 12.0591 5.70062 11.4035 7.02453L11 7.8567V36.0371V64.2174L11.4035 65.0496C11.933 66.1087 12.8913 67.067 13.9504 67.5965L14.7826 68H35.6499H56.5173L57.2486 67.6596C58.2699 67.1804 59.392 66.0709 59.8964 65.0496L60.2998 64.2174L60.3377 42.2783C60.3503 30.2119 60.3377 20.2006 60.2998 20.0241C60.2116 19.671 45.1442 4.49019 44.5769 4.18758C44.0851 3.93541 15.4509 3.93541 14.6313 4.20019ZM41.8534 14.5267C41.8912 21.2471 41.8912 21.3984 42.156 21.7514C42.7486 22.5584 42.5847 22.5458 49.9986 22.5458H56.7064V42.8709C56.7064 62.8178 56.7064 63.2213 56.4542 63.6122C55.9373 64.4696 57.5259 64.4065 35.6499 64.4065C13.7739 64.4065 15.3626 64.4696 14.8456 63.6122C14.5935 63.2213 14.5935 62.7674 14.5935 36.0623C14.5935 6.06627 14.5304 8.4367 15.3878 7.91975C15.7787 7.68018 16.1191 7.66757 28.8034 7.66757H41.8282L41.8534 14.5267ZM49.8347 14.6023L54.1216 18.8893H49.7968H45.4847V14.6023C45.4847 12.2445 45.4973 10.3154 45.5225 10.3154C45.5351 10.3154 47.4768 12.2445 49.8347 14.6023Z" fill="#4D0000"/>
<path d="M14.6313 4.20019C13.2948 4.60367 12.0591 5.70062 11.4035 7.02453L11 7.8567V36.0371V64.2174L11.4035 65.0496C11.933 66.1087 12.8913 67.067 13.9504 67.5965L14.7826 68H35.6499H56.5173L57.2486 67.6596C58.2699 67.1804 59.392 66.0709 59.8964 65.0496L60.2998 64.2174L60.3377 42.2783C60.3503 30.2119 60.3377 20.2006 60.2998 20.0241C60.2116 19.671 45.1442 4.49019 44.5769 4.18758C44.0851 3.93541 15.4509 3.93541 14.6313 4.20019ZM41.8534 14.5267C41.8912 21.2471 41.8912 21.3984 42.156 21.7514C42.7486 22.5584 42.5847 22.5458 49.9986 22.5458H56.7064V42.8709C56.7064 62.8178 56.7064 63.2213 56.4542 63.6122C55.9373 64.4696 57.5259 64.4065 35.6499 64.4065C13.7739 64.4065 15.3626 64.4696 14.8456 63.6122C14.5935 63.2213 14.5935 62.7674 14.5935 36.0623C14.5935 6.06627 14.5304 8.4367 15.3878 7.91975C15.7787 7.68018 16.1191 7.66757 28.8034 7.66757H41.8282L41.8534 14.5267ZM49.8347 14.6023L54.1216 18.8893H49.7968H45.4847V14.6023C45.4847 12.2445 45.4973 10.3154 45.5225 10.3154C45.5351 10.3154 47.4768 12.2445 49.8347 14.6023Z" stroke="#4D0000" mask="url(#path-2-outside-2_6471_46118)"/>
</g>
</g>
</g>
<g id="Group_2">
<g id="Group 1171275579">
<g id="Vector_2">
<mask id="path-3-outside-3_6471_46118" maskUnits="userSpaceOnUse" x="24.562" y="24.251" width="24" height="17" fill="black">
<rect fill="white" x="24.562" y="24.251" width="24" height="17"/>
<path d="M26.1436 25.0752C25.959 25.1504 25.7266 25.4102 25.6377 25.6426C25.583 25.7725 25.5625 27.9873 25.5625 32.6494C25.5625 40.251 25.5283 39.7588 26.0342 40.0938L26.2666 40.251H36.5H46.7334L46.9658 40.0938C47.2461 39.9092 47.4375 39.5537 47.4375 39.2324C47.4375 38.8975 47.2051 38.46 46.9453 38.3027C46.7266 38.166 46.5488 38.166 37.2041 38.1455L27.6816 38.1318V36.71V35.2949L29.9033 33.0732L32.125 30.8516L34.5996 33.3262C36.7598 35.4795 37.1152 35.8008 37.334 35.8418C37.9697 35.958 37.7988 36.1016 41.7158 32.1982L45.3184 28.5957V30.1543C45.3184 31.8701 45.3457 32.0273 45.7217 32.335C46.043 32.6084 46.4736 32.6494 46.8701 32.4512C47.4512 32.1504 47.4375 32.2393 47.4375 28.8008C47.4375 25.4443 47.4443 25.4785 46.9658 25.1572L46.7266 25L43.5684 25.0205L40.4102 25.041L40.2256 25.2119C39.7129 25.6904 39.7129 26.374 40.2256 26.8525C40.4102 27.0234 40.4102 27.0234 42.1123 27.0576L43.8144 27.0918L40.7041 30.2021L37.5937 33.3125L35.1533 30.8789C33.8066 29.5322 32.6377 28.4043 32.5557 28.3633C32.3643 28.2676 31.9199 28.2676 31.667 28.3633C31.5644 28.3975 30.6211 29.2861 29.582 30.3184L27.6885 32.2119L27.668 28.9307C27.6475 25.2871 27.6611 25.4375 27.1826 25.1436C26.9502 25 26.4033 24.9658 26.1436 25.0752Z"/>
</mask>
<path d="M26.1436 25.0752C25.959 25.1504 25.7266 25.4102 25.6377 25.6426C25.583 25.7725 25.5625 27.9873 25.5625 32.6494C25.5625 40.251 25.5283 39.7588 26.0342 40.0938L26.2666 40.251H36.5H46.7334L46.9658 40.0938C47.2461 39.9092 47.4375 39.5537 47.4375 39.2324C47.4375 38.8975 47.2051 38.46 46.9453 38.3027C46.7266 38.166 46.5488 38.166 37.2041 38.1455L27.6816 38.1318V36.71V35.2949L29.9033 33.0732L32.125 30.8516L34.5996 33.3262C36.7598 35.4795 37.1152 35.8008 37.334 35.8418C37.9697 35.958 37.7988 36.1016 41.7158 32.1982L45.3184 28.5957V30.1543C45.3184 31.8701 45.3457 32.0273 45.7217 32.335C46.043 32.6084 46.4736 32.6494 46.8701 32.4512C47.4512 32.1504 47.4375 32.2393 47.4375 28.8008C47.4375 25.4443 47.4443 25.4785 46.9658 25.1572L46.7266 25L43.5684 25.0205L40.4102 25.041L40.2256 25.2119C39.7129 25.6904 39.7129 26.374 40.2256 26.8525C40.4102 27.0234 40.4102 27.0234 42.1123 27.0576L43.8144 27.0918L40.7041 30.2021L37.5937 33.3125L35.1533 30.8789C33.8066 29.5322 32.6377 28.4043 32.5557 28.3633C32.3643 28.2676 31.9199 28.2676 31.667 28.3633C31.5644 28.3975 30.6211 29.2861 29.582 30.3184L27.6885 32.2119L27.668 28.9307C27.6475 25.2871 27.6611 25.4375 27.1826 25.1436C26.9502 25 26.4033 24.9658 26.1436 25.0752Z" fill="#4D0000"/>
<path d="M26.1436 25.0752C25.959 25.1504 25.7266 25.4102 25.6377 25.6426C25.583 25.7725 25.5625 27.9873 25.5625 32.6494C25.5625 40.251 25.5283 39.7588 26.0342 40.0938L26.2666 40.251H36.5H46.7334L46.9658 40.0938C47.2461 39.9092 47.4375 39.5537 47.4375 39.2324C47.4375 38.8975 47.2051 38.46 46.9453 38.3027C46.7266 38.166 46.5488 38.166 37.2041 38.1455L27.6816 38.1318V36.71V35.2949L29.9033 33.0732L32.125 30.8516L34.5996 33.3262C36.7598 35.4795 37.1152 35.8008 37.334 35.8418C37.9697 35.958 37.7988 36.1016 41.7158 32.1982L45.3184 28.5957V30.1543C45.3184 31.8701 45.3457 32.0273 45.7217 32.335C46.043 32.6084 46.4736 32.6494 46.8701 32.4512C47.4512 32.1504 47.4375 32.2393 47.4375 28.8008C47.4375 25.4443 47.4443 25.4785 46.9658 25.1572L46.7266 25L43.5684 25.0205L40.4102 25.041L40.2256 25.2119C39.7129 25.6904 39.7129 26.374 40.2256 26.8525C40.4102 27.0234 40.4102 27.0234 42.1123 27.0576L43.8144 27.0918L40.7041 30.2021L37.5937 33.3125L35.1533 30.8789C33.8066 29.5322 32.6377 28.4043 32.5557 28.3633C32.3643 28.2676 31.9199 28.2676 31.667 28.3633C31.5644 28.3975 30.6211 29.2861 29.582 30.3184L27.6885 32.2119L27.668 28.9307C27.6475 25.2871 27.6611 25.4375 27.1826 25.1436C26.9502 25 26.4033 24.9658 26.1436 25.0752Z" stroke="#4D0000" stroke-width="0.6" mask="url(#path-3-outside-3_6471_46118)"/>
</g>
<g id="Vector_3">
<mask id="path-4-outside-4_6471_46118" maskUnits="userSpaceOnUse" x="18" y="43.0068" width="37" height="18" fill="black">
<rect fill="white" x="18" y="43.0068" width="37" height="18"/>
<path d="M24.4004 43.7715C22.8555 44.1953 21.6387 45.4736 21.29 47.0527C21.126 47.7842 21.1738 48.8027 21.3994 49.4453C21.5566 49.8828 21.8506 50.3955 22.2061 50.8535L22.3428 51.0312L21.8848 51.332C20.8457 52.0088 19.8613 53.2324 19.417 54.4014C19.0615 55.3242 19 55.7959 19 57.6621C19 59.5283 19.0137 59.583 19.4512 59.877C19.6426 60 20.1074 60.0068 36.5 60.0068C52.8926 60.0068 53.3574 60 53.5488 59.877C53.9863 59.583 54 59.5283 54 57.6621C54 55.7959 53.9385 55.3242 53.583 54.4014C53.1387 53.2324 52.1406 52.002 51.1152 51.3252L50.6572 51.0244L50.7939 50.8535C51.1494 50.3955 51.4434 49.8828 51.5938 49.4453C51.8262 48.7959 51.874 47.7842 51.71 47.0596C51.3545 45.4395 50.1172 44.1611 48.5312 43.7646C47.9092 43.6074 46.6787 43.6621 46.0703 43.8672C44.0127 44.5781 42.7754 46.7998 43.2334 48.9668C43.3564 49.5615 43.7256 50.3135 44.0811 50.7236L44.3545 51.0312L44.0811 51.1816C43.5684 51.4756 42.8096 52.1387 42.4062 52.6582L42.0029 53.1709L41.832 52.9521C41.4424 52.4395 40.6426 51.6738 40.1641 51.3594L39.6582 51.0312L39.9316 50.6826C40.54 49.9102 40.8271 49.0693 40.8271 48.0439C40.8271 46.7998 40.4238 45.8154 39.542 44.9268C39.0977 44.4756 38.8857 44.3184 38.4141 44.0928C37.71 43.7578 37.2998 43.6689 36.4795 43.6689C35.249 43.6689 34.3193 44.0586 33.458 44.9268C32.5762 45.8154 32.1729 46.793 32.1729 48.0439C32.1729 49.0693 32.46 49.9102 33.0684 50.6826L33.3418 51.0312L32.8359 51.3594C32.3574 51.6738 31.5576 52.4395 31.168 52.9521L30.9971 53.1709L30.5938 52.6582C30.1904 52.1387 29.4316 51.4756 28.9189 51.1816L28.6455 51.0312L28.9189 50.7236C29.0693 50.5527 29.2949 50.1973 29.4248 49.9307C30.5664 47.6133 29.3701 44.7148 26.9297 43.8672C26.3486 43.6689 24.9746 43.6143 24.4004 43.7715ZM26.4854 46.0068C26.9229 46.2393 27.3604 46.6904 27.5449 47.1074C28.0234 48.1875 27.5381 49.4795 26.4648 50.0059C26.1367 50.1699 25.9932 50.1973 25.5283 50.1973C24.6328 50.1904 23.9834 49.8076 23.5801 49.0625C22.9307 47.8389 23.4844 46.3896 24.7969 45.8906C25.207 45.7334 26.0615 45.7949 26.4854 46.0068ZM37.5117 46.0273C38.3799 46.499 38.8516 47.4287 38.6807 48.3379C38.5098 49.2812 37.9834 49.8691 37.0742 50.1357C36.5752 50.2793 36.0967 50.2314 35.543 49.9854C34.1484 49.3633 33.8477 47.415 34.9893 46.3828C35.5088 45.9111 35.8643 45.7881 36.6025 45.8086C37.0537 45.8291 37.2178 45.8633 37.5117 46.0273ZM48.4287 45.9932C48.8594 46.2051 49.2764 46.6221 49.4951 47.0527C49.6318 47.3398 49.6592 47.4902 49.6592 48.0098C49.6592 48.543 49.6318 48.6729 49.4678 48.9805C49.0508 49.7871 48.374 50.1904 47.4717 50.1973C46.7812 50.1973 46.2959 49.9785 45.8311 49.4658C44.751 48.2627 45.3047 46.3623 46.8906 45.8496C47.2324 45.7402 48.0664 45.8154 48.4287 45.9932ZM26.793 52.5693C27.8047 52.8838 28.6182 53.4648 29.1377 54.2441C29.7119 55.1123 29.9375 55.9326 29.9375 57.1768V57.9561H25.4805H21.0303L21.0713 57.0811C21.126 56.0352 21.2969 55.3242 21.6455 54.6611C22.5889 52.8633 24.8105 51.9678 26.793 52.5693ZM37.6279 52.5283C38.7764 52.8018 39.9248 53.7178 40.417 54.7432C40.7725 55.4951 40.8818 55.96 40.9229 57.0127L40.9639 57.9561H36.5068H32.0566V57.2861C32.0566 55.7002 32.4736 54.5586 33.3691 53.6631C34.4766 52.5625 36.0352 52.1455 37.6279 52.5283ZM48.6133 52.5283C50.1719 52.918 51.3408 54.1006 51.7441 55.6729C51.8262 55.9805 51.9014 56.5752 51.9287 57.0811L51.9697 57.9561H47.5195H43.0625V57.1768C43.0625 55.9326 43.2881 55.1123 43.8623 54.2441C44.5254 53.2461 45.6807 52.5762 47.0615 52.3916C47.3828 52.3506 48.1826 52.4189 48.6133 52.5283Z"/>
</mask>
<path d="M24.4004 43.7715C22.8555 44.1953 21.6387 45.4736 21.29 47.0527C21.126 47.7842 21.1738 48.8027 21.3994 49.4453C21.5566 49.8828 21.8506 50.3955 22.2061 50.8535L22.3428 51.0312L21.8848 51.332C20.8457 52.0088 19.8613 53.2324 19.417 54.4014C19.0615 55.3242 19 55.7959 19 57.6621C19 59.5283 19.0137 59.583 19.4512 59.877C19.6426 60 20.1074 60.0068 36.5 60.0068C52.8926 60.0068 53.3574 60 53.5488 59.877C53.9863 59.583 54 59.5283 54 57.6621C54 55.7959 53.9385 55.3242 53.583 54.4014C53.1387 53.2324 52.1406 52.002 51.1152 51.3252L50.6572 51.0244L50.7939 50.8535C51.1494 50.3955 51.4434 49.8828 51.5938 49.4453C51.8262 48.7959 51.874 47.7842 51.71 47.0596C51.3545 45.4395 50.1172 44.1611 48.5312 43.7646C47.9092 43.6074 46.6787 43.6621 46.0703 43.8672C44.0127 44.5781 42.7754 46.7998 43.2334 48.9668C43.3564 49.5615 43.7256 50.3135 44.0811 50.7236L44.3545 51.0312L44.0811 51.1816C43.5684 51.4756 42.8096 52.1387 42.4062 52.6582L42.0029 53.1709L41.832 52.9521C41.4424 52.4395 40.6426 51.6738 40.1641 51.3594L39.6582 51.0312L39.9316 50.6826C40.54 49.9102 40.8271 49.0693 40.8271 48.0439C40.8271 46.7998 40.4238 45.8154 39.542 44.9268C39.0977 44.4756 38.8857 44.3184 38.4141 44.0928C37.71 43.7578 37.2998 43.6689 36.4795 43.6689C35.249 43.6689 34.3193 44.0586 33.458 44.9268C32.5762 45.8154 32.1729 46.793 32.1729 48.0439C32.1729 49.0693 32.46 49.9102 33.0684 50.6826L33.3418 51.0312L32.8359 51.3594C32.3574 51.6738 31.5576 52.4395 31.168 52.9521L30.9971 53.1709L30.5938 52.6582C30.1904 52.1387 29.4316 51.4756 28.9189 51.1816L28.6455 51.0312L28.9189 50.7236C29.0693 50.5527 29.2949 50.1973 29.4248 49.9307C30.5664 47.6133 29.3701 44.7148 26.9297 43.8672C26.3486 43.6689 24.9746 43.6143 24.4004 43.7715ZM26.4854 46.0068C26.9229 46.2393 27.3604 46.6904 27.5449 47.1074C28.0234 48.1875 27.5381 49.4795 26.4648 50.0059C26.1367 50.1699 25.9932 50.1973 25.5283 50.1973C24.6328 50.1904 23.9834 49.8076 23.5801 49.0625C22.9307 47.8389 23.4844 46.3896 24.7969 45.8906C25.207 45.7334 26.0615 45.7949 26.4854 46.0068ZM37.5117 46.0273C38.3799 46.499 38.8516 47.4287 38.6807 48.3379C38.5098 49.2812 37.9834 49.8691 37.0742 50.1357C36.5752 50.2793 36.0967 50.2314 35.543 49.9854C34.1484 49.3633 33.8477 47.415 34.9893 46.3828C35.5088 45.9111 35.8643 45.7881 36.6025 45.8086C37.0537 45.8291 37.2178 45.8633 37.5117 46.0273ZM48.4287 45.9932C48.8594 46.2051 49.2764 46.6221 49.4951 47.0527C49.6318 47.3398 49.6592 47.4902 49.6592 48.0098C49.6592 48.543 49.6318 48.6729 49.4678 48.9805C49.0508 49.7871 48.374 50.1904 47.4717 50.1973C46.7812 50.1973 46.2959 49.9785 45.8311 49.4658C44.751 48.2627 45.3047 46.3623 46.8906 45.8496C47.2324 45.7402 48.0664 45.8154 48.4287 45.9932ZM26.793 52.5693C27.8047 52.8838 28.6182 53.4648 29.1377 54.2441C29.7119 55.1123 29.9375 55.9326 29.9375 57.1768V57.9561H25.4805H21.0303L21.0713 57.0811C21.126 56.0352 21.2969 55.3242 21.6455 54.6611C22.5889 52.8633 24.8105 51.9678 26.793 52.5693ZM37.6279 52.5283C38.7764 52.8018 39.9248 53.7178 40.417 54.7432C40.7725 55.4951 40.8818 55.96 40.9229 57.0127L40.9639 57.9561H36.5068H32.0566V57.2861C32.0566 55.7002 32.4736 54.5586 33.3691 53.6631C34.4766 52.5625 36.0352 52.1455 37.6279 52.5283ZM48.6133 52.5283C50.1719 52.918 51.3408 54.1006 51.7441 55.6729C51.8262 55.9805 51.9014 56.5752 51.9287 57.0811L51.9697 57.9561H47.5195H43.0625V57.1768C43.0625 55.9326 43.2881 55.1123 43.8623 54.2441C44.5254 53.2461 45.6807 52.5762 47.0615 52.3916C47.3828 52.3506 48.1826 52.4189 48.6133 52.5283Z" fill="#4D0000"/>
<path d="M24.4004 43.7715C22.8555 44.1953 21.6387 45.4736 21.29 47.0527C21.126 47.7842 21.1738 48.8027 21.3994 49.4453C21.5566 49.8828 21.8506 50.3955 22.2061 50.8535L22.3428 51.0312L21.8848 51.332C20.8457 52.0088 19.8613 53.2324 19.417 54.4014C19.0615 55.3242 19 55.7959 19 57.6621C19 59.5283 19.0137 59.583 19.4512 59.877C19.6426 60 20.1074 60.0068 36.5 60.0068C52.8926 60.0068 53.3574 60 53.5488 59.877C53.9863 59.583 54 59.5283 54 57.6621C54 55.7959 53.9385 55.3242 53.583 54.4014C53.1387 53.2324 52.1406 52.002 51.1152 51.3252L50.6572 51.0244L50.7939 50.8535C51.1494 50.3955 51.4434 49.8828 51.5938 49.4453C51.8262 48.7959 51.874 47.7842 51.71 47.0596C51.3545 45.4395 50.1172 44.1611 48.5312 43.7646C47.9092 43.6074 46.6787 43.6621 46.0703 43.8672C44.0127 44.5781 42.7754 46.7998 43.2334 48.9668C43.3564 49.5615 43.7256 50.3135 44.0811 50.7236L44.3545 51.0312L44.0811 51.1816C43.5684 51.4756 42.8096 52.1387 42.4062 52.6582L42.0029 53.1709L41.832 52.9521C41.4424 52.4395 40.6426 51.6738 40.1641 51.3594L39.6582 51.0312L39.9316 50.6826C40.54 49.9102 40.8271 49.0693 40.8271 48.0439C40.8271 46.7998 40.4238 45.8154 39.542 44.9268C39.0977 44.4756 38.8857 44.3184 38.4141 44.0928C37.71 43.7578 37.2998 43.6689 36.4795 43.6689C35.249 43.6689 34.3193 44.0586 33.458 44.9268C32.5762 45.8154 32.1729 46.793 32.1729 48.0439C32.1729 49.0693 32.46 49.9102 33.0684 50.6826L33.3418 51.0312L32.8359 51.3594C32.3574 51.6738 31.5576 52.4395 31.168 52.9521L30.9971 53.1709L30.5938 52.6582C30.1904 52.1387 29.4316 51.4756 28.9189 51.1816L28.6455 51.0312L28.9189 50.7236C29.0693 50.5527 29.2949 50.1973 29.4248 49.9307C30.5664 47.6133 29.3701 44.7148 26.9297 43.8672C26.3486 43.6689 24.9746 43.6143 24.4004 43.7715ZM26.4854 46.0068C26.9229 46.2393 27.3604 46.6904 27.5449 47.1074C28.0234 48.1875 27.5381 49.4795 26.4648 50.0059C26.1367 50.1699 25.9932 50.1973 25.5283 50.1973C24.6328 50.1904 23.9834 49.8076 23.5801 49.0625C22.9307 47.8389 23.4844 46.3896 24.7969 45.8906C25.207 45.7334 26.0615 45.7949 26.4854 46.0068ZM37.5117 46.0273C38.3799 46.499 38.8516 47.4287 38.6807 48.3379C38.5098 49.2812 37.9834 49.8691 37.0742 50.1357C36.5752 50.2793 36.0967 50.2314 35.543 49.9854C34.1484 49.3633 33.8477 47.415 34.9893 46.3828C35.5088 45.9111 35.8643 45.7881 36.6025 45.8086C37.0537 45.8291 37.2178 45.8633 37.5117 46.0273ZM48.4287 45.9932C48.8594 46.2051 49.2764 46.6221 49.4951 47.0527C49.6318 47.3398 49.6592 47.4902 49.6592 48.0098C49.6592 48.543 49.6318 48.6729 49.4678 48.9805C49.0508 49.7871 48.374 50.1904 47.4717 50.1973C46.7812 50.1973 46.2959 49.9785 45.8311 49.4658C44.751 48.2627 45.3047 46.3623 46.8906 45.8496C47.2324 45.7402 48.0664 45.8154 48.4287 45.9932ZM26.793 52.5693C27.8047 52.8838 28.6182 53.4648 29.1377 54.2441C29.7119 55.1123 29.9375 55.9326 29.9375 57.1768V57.9561H25.4805H21.0303L21.0713 57.0811C21.126 56.0352 21.2969 55.3242 21.6455 54.6611C22.5889 52.8633 24.8105 51.9678 26.793 52.5693ZM37.6279 52.5283C38.7764 52.8018 39.9248 53.7178 40.417 54.7432C40.7725 55.4951 40.8818 55.96 40.9229 57.0127L40.9639 57.9561H36.5068H32.0566V57.2861C32.0566 55.7002 32.4736 54.5586 33.3691 53.6631C34.4766 52.5625 36.0352 52.1455 37.6279 52.5283ZM48.6133 52.5283C50.1719 52.918 51.3408 54.1006 51.7441 55.6729C51.8262 55.9805 51.9014 56.5752 51.9287 57.0811L51.9697 57.9561H47.5195H43.0625V57.1768C43.0625 55.9326 43.2881 55.1123 43.8623 54.2441C44.5254 53.2461 45.6807 52.5762 47.0615 52.3916C47.3828 52.3506 48.1826 52.4189 48.6133 52.5283Z" stroke="#4D0000" stroke-width="0.6" mask="url(#path-4-outside-4_6471_46118)"/>
</g>
</g>
</g>
</g>
</svg>
