<svg width="72" height="72" viewBox="0 0 72 72" fill="none" xmlns="http://www.w3.org/2000/svg">
<g id="advance-to-pay">
<g id="Group 1171275522">
<g id="Group 1171275276">
<rect id="Rectangle 34624852" width="8.12911" height="22.0647" transform="matrix(-1 0 0 1 14.4497 40.2886)" fill="#62C89E"/>
<g id="Group">
<g id="Vector">
<mask id="path-2-outside-1_6356_46781" maskUnits="userSpaceOnUse" x="3" y="37.5212" width="66" height="27" fill="black">
<rect fill="white" x="3" y="37.5212" width="66" height="27"/>
<path d="M16.4836 40.5864C16.4836 41.617 16.5271 42.4734 16.5706 42.4734C16.6287 42.4734 17.4271 42.0234 18.3561 41.4718C20.8238 40.0057 20.9834 39.9767 24.3946 39.8896C26.0494 39.8606 27.8494 39.9041 28.5897 39.9912C30.0558 40.1654 44.8473 44.0846 45.7038 44.5201C46.5021 44.9411 47.315 45.7104 47.7069 46.4652C47.9537 46.9152 48.1279 47.0894 48.273 47.0459C48.3892 46.9878 51.0746 45.5653 54.2245 43.8669C57.3744 42.1541 60.3211 40.5864 60.7566 40.3541C61.4824 39.9622 61.6856 39.9331 63.0791 39.9331C64.4436 39.9331 64.6758 39.9767 65.329 40.3251C66.3597 40.8622 67.3177 41.9508 67.7096 42.996C67.9854 43.6927 68.029 44.0846 67.9854 45.0862C67.9274 46.5378 67.5645 47.4378 66.6355 48.3523C65.8952 49.0781 42.7135 62.9551 41.6539 63.289C41.0007 63.5067 39.8539 63.5212 30.767 63.4922L20.6205 63.4487L18.5883 62.6358L16.5561 61.8229L16.5126 62.6648L16.469 63.5212H10.2418H4V51.1103V38.6993H10.2418H16.4836V40.5864ZM6.61283 51.1103V60.9084H10.2418H13.8707V51.1103V41.3121H10.2418H6.61283V51.1103ZM57.4905 45.1298C47.1989 50.6748 48.3456 49.9926 48.0843 50.7474C47.6053 52.0973 46.5166 53.1715 45.0505 53.7231C43.7441 54.2166 42.67 54.0279 35.2814 52.0538C31.609 51.0812 28.5607 50.2248 28.4881 50.1667C28.3429 50.0506 28.9671 47.6991 29.1413 47.6991C29.2139 47.6991 32.1896 48.4829 35.7605 49.441C42.8151 51.3135 43.2216 51.4151 43.9909 51.2699C44.6586 51.1393 45.457 50.3409 45.6602 49.5861C45.936 48.57 45.4134 47.3797 44.5135 46.9007C44.2957 46.7991 40.6523 45.7685 36.4282 44.6362L28.7494 42.575L25.9188 42.5024C22.0286 42.4153 21.9415 42.4444 18.9512 44.2153L16.4836 45.6814V52.3151V58.9488L18.8351 59.8923L21.2012 60.8358H31.0719H40.9426L52.3375 54.0279C58.6083 50.2829 64.0081 47.0313 64.3275 46.8136C66.2581 45.5072 65.3871 42.4734 63.0936 42.4734C62.484 42.4734 61.8598 42.7782 57.4905 45.1298Z"/>
</mask>
<path d="M16.4836 40.5864C16.4836 41.617 16.5271 42.4734 16.5706 42.4734C16.6287 42.4734 17.4271 42.0234 18.3561 41.4718C20.8238 40.0057 20.9834 39.9767 24.3946 39.8896C26.0494 39.8606 27.8494 39.9041 28.5897 39.9912C30.0558 40.1654 44.8473 44.0846 45.7038 44.5201C46.5021 44.9411 47.315 45.7104 47.7069 46.4652C47.9537 46.9152 48.1279 47.0894 48.273 47.0459C48.3892 46.9878 51.0746 45.5653 54.2245 43.8669C57.3744 42.1541 60.3211 40.5864 60.7566 40.3541C61.4824 39.9622 61.6856 39.9331 63.0791 39.9331C64.4436 39.9331 64.6758 39.9767 65.329 40.3251C66.3597 40.8622 67.3177 41.9508 67.7096 42.996C67.9854 43.6927 68.029 44.0846 67.9854 45.0862C67.9274 46.5378 67.5645 47.4378 66.6355 48.3523C65.8952 49.0781 42.7135 62.9551 41.6539 63.289C41.0007 63.5067 39.8539 63.5212 30.767 63.4922L20.6205 63.4487L18.5883 62.6358L16.5561 61.8229L16.5126 62.6648L16.469 63.5212H10.2418H4V51.1103V38.6993H10.2418H16.4836V40.5864ZM6.61283 51.1103V60.9084H10.2418H13.8707V51.1103V41.3121H10.2418H6.61283V51.1103ZM57.4905 45.1298C47.1989 50.6748 48.3456 49.9926 48.0843 50.7474C47.6053 52.0973 46.5166 53.1715 45.0505 53.7231C43.7441 54.2166 42.67 54.0279 35.2814 52.0538C31.609 51.0812 28.5607 50.2248 28.4881 50.1667C28.3429 50.0506 28.9671 47.6991 29.1413 47.6991C29.2139 47.6991 32.1896 48.4829 35.7605 49.441C42.8151 51.3135 43.2216 51.4151 43.9909 51.2699C44.6586 51.1393 45.457 50.3409 45.6602 49.5861C45.936 48.57 45.4134 47.3797 44.5135 46.9007C44.2957 46.7991 40.6523 45.7685 36.4282 44.6362L28.7494 42.575L25.9188 42.5024C22.0286 42.4153 21.9415 42.4444 18.9512 44.2153L16.4836 45.6814V52.3151V58.9488L18.8351 59.8923L21.2012 60.8358H31.0719H40.9426L52.3375 54.0279C58.6083 50.2829 64.0081 47.0313 64.3275 46.8136C66.2581 45.5072 65.3871 42.4734 63.0936 42.4734C62.484 42.4734 61.8598 42.7782 57.4905 45.1298Z" fill="#0B2D1F"/>
<path d="M16.4836 40.5864C16.4836 41.617 16.5271 42.4734 16.5706 42.4734C16.6287 42.4734 17.4271 42.0234 18.3561 41.4718C20.8238 40.0057 20.9834 39.9767 24.3946 39.8896C26.0494 39.8606 27.8494 39.9041 28.5897 39.9912C30.0558 40.1654 44.8473 44.0846 45.7038 44.5201C46.5021 44.9411 47.315 45.7104 47.7069 46.4652C47.9537 46.9152 48.1279 47.0894 48.273 47.0459C48.3892 46.9878 51.0746 45.5653 54.2245 43.8669C57.3744 42.1541 60.3211 40.5864 60.7566 40.3541C61.4824 39.9622 61.6856 39.9331 63.0791 39.9331C64.4436 39.9331 64.6758 39.9767 65.329 40.3251C66.3597 40.8622 67.3177 41.9508 67.7096 42.996C67.9854 43.6927 68.029 44.0846 67.9854 45.0862C67.9274 46.5378 67.5645 47.4378 66.6355 48.3523C65.8952 49.0781 42.7135 62.9551 41.6539 63.289C41.0007 63.5067 39.8539 63.5212 30.767 63.4922L20.6205 63.4487L18.5883 62.6358L16.5561 61.8229L16.5126 62.6648L16.469 63.5212H10.2418H4V51.1103V38.6993H10.2418H16.4836V40.5864ZM6.61283 51.1103V60.9084H10.2418H13.8707V51.1103V41.3121H10.2418H6.61283V51.1103ZM57.4905 45.1298C47.1989 50.6748 48.3456 49.9926 48.0843 50.7474C47.6053 52.0973 46.5166 53.1715 45.0505 53.7231C43.7441 54.2166 42.67 54.0279 35.2814 52.0538C31.609 51.0812 28.5607 50.2248 28.4881 50.1667C28.3429 50.0506 28.9671 47.6991 29.1413 47.6991C29.2139 47.6991 32.1896 48.4829 35.7605 49.441C42.8151 51.3135 43.2216 51.4151 43.9909 51.2699C44.6586 51.1393 45.457 50.3409 45.6602 49.5861C45.936 48.57 45.4134 47.3797 44.5135 46.9007C44.2957 46.7991 40.6523 45.7685 36.4282 44.6362L28.7494 42.575L25.9188 42.5024C22.0286 42.4153 21.9415 42.4444 18.9512 44.2153L16.4836 45.6814V52.3151V58.9488L18.8351 59.8923L21.2012 60.8358H31.0719H40.9426L52.3375 54.0279C58.6083 50.2829 64.0081 47.0313 64.3275 46.8136C66.2581 45.5072 65.3871 42.4734 63.0936 42.4734C62.484 42.4734 61.8598 42.7782 57.4905 45.1298Z" stroke="#0B2D1F" mask="url(#path-2-outside-1_6356_46781)"/>
</g>
</g>
</g>
<g id="Group 1171275382">
<ellipse id="Ellipse 2666" cx="48.3131" cy="26.0908" rx="17.0855" ry="16.0805" fill="#22885E"/>
<g id="Group_2">
<path id="Vector_2" d="M47.3079 44.1811C57.299 44.1811 65.3984 36.0817 65.3984 26.0906C65.3984 16.0994 57.299 8 47.3079 8C37.3167 8 29.2173 16.0994 29.2173 26.0906C29.2173 36.0817 37.3167 44.1811 47.3079 44.1811Z" stroke="#0B2D1F" stroke-width="4.21094" stroke-linecap="round" stroke-linejoin="round"/>
<path id="Vector_3" d="M52.9357 20.0607C52.5716 19.429 52.0425 18.9083 51.4052 18.5542C50.7679 18.2001 50.0463 18.0261 49.3176 18.0506H45.2975C44.2313 18.0506 43.2087 18.4741 42.4548 19.2281C41.7009 19.982 41.2773 21.0045 41.2773 22.0707C41.2773 23.1369 41.7009 24.1595 42.4548 24.9134C43.2087 25.6673 44.2313 26.0908 45.2975 26.0908H49.3176C50.3838 26.0908 51.4063 26.5144 52.1603 27.2683C52.9142 28.0222 53.3377 29.0448 53.3377 30.111C53.3377 31.1772 52.9142 32.1997 52.1603 32.9536C51.4063 33.7076 50.3838 34.1311 49.3176 34.1311H45.2975C44.5688 34.1556 43.8472 33.9815 43.2099 33.6275C42.5725 33.2734 42.0435 32.7527 41.6794 32.121M47.3075 16.0405V36.1412" stroke="#0B2D1F" stroke-width="2.80729" stroke-linecap="round" stroke-linejoin="round"/>
</g>
</g>
</g>
</g>
</svg>
