<svg width="72" height="72" viewBox="0 0 72 72" fill="none" xmlns="http://www.w3.org/2000/svg">
<g id="advance-to-approve">
<g id="Group 1171275386">
<ellipse id="Ellipse 2668" cx="53.5" cy="18" rx="10.5" ry="11" fill="#22885E"/>
<g id="Group">
<path id="Vector" d="M51.4742 4.03785C47.6463 4.63832 44.106 6.82751 41.8543 9.99245C41.0537 11.1183 40.1029 13.1574 39.6901 14.6461C39.3649 15.822 39.3398 16.0471 39.3398 18.3364C39.3398 20.6257 39.3649 20.8509 39.6901 22.0268C40.5908 25.2793 42.4923 28.0439 45.2194 30.0705C46.2702 30.8461 48.4844 31.8969 49.9731 32.3097C51.149 32.635 51.3741 32.66 53.6634 32.6475C55.9027 32.6475 56.2029 32.6225 57.3288 32.3222C59.8057 31.6467 62.0449 30.3457 63.8588 28.5318C65.6727 26.7179 66.9362 24.5412 67.6367 22.0143C67.962 20.8509 67.987 20.6257 67.987 18.3364C67.987 16.0471 67.962 15.822 67.6367 14.6461C66.2356 9.60465 62.4077 5.75167 57.4163 4.37561C56.3905 4.08789 55.9402 4.05036 54.0387 4.01283C52.8378 3.98781 51.6869 4.00032 51.4742 4.03785ZM55.6024 7.96589C59.2678 8.61639 62.4452 11.406 63.6837 15.0839C64.0464 16.1347 64.0965 16.4725 64.1465 17.9611C64.1966 19.8376 64.0715 20.6507 63.446 22.2644C62.4452 24.8289 60.0684 27.1807 57.4914 28.1565C56.0903 28.6819 55.102 28.857 53.6134 28.857C50.7111 28.8445 48.1717 27.7687 46.0951 25.6421C45.0192 24.5412 44.1686 23.1526 43.6307 21.5889C43.2304 20.438 43.2178 20.3505 43.2178 18.3364C43.2178 16.3223 43.2304 16.2348 43.6307 15.0839C44.2061 13.4326 45.0192 12.1066 46.2327 10.9057C48.7221 8.40372 52.0997 7.35291 55.6024 7.96589Z" fill="#0B2D1F"/>
<path id="Vector_2" d="M57.416 14.3584C57.1033 14.4459 56.3277 15.1215 54.5764 16.8728L52.162 19.2622L51.2488 18.374C50.298 17.4232 49.9228 17.2106 49.1972 17.2106C48.2715 17.2106 47.5084 17.8486 47.3333 18.7993C47.1706 19.65 47.3458 19.9377 49.2097 21.8141C50.1729 22.8024 51.1237 23.6906 51.3113 23.7907C51.7492 24.0158 52.5873 24.0158 53.0877 23.7781C53.3004 23.6781 54.9016 22.1644 56.6279 20.4256C60.0056 17.0354 60.1807 16.7978 59.993 15.7845C59.8805 15.184 59.255 14.496 58.692 14.3333C58.1541 14.1832 58.004 14.1832 57.416 14.3584Z" fill="#0B2D1F"/>
<g id="Vector_3">
<path d="M24.3657 21.9019C23.6277 22.1771 22.7895 22.8026 22.3267 23.4405C21.5511 24.4914 21.5135 24.7541 21.5135 28.582C21.5135 30.4835 21.4635 32.385 21.401 32.8228C21.2383 33.8861 20.838 34.6617 20.0624 35.4373C19.1742 36.3005 18.3861 36.5882 16.6223 36.6883L15.2587 36.7633V36.0878C15.2587 35.3372 15.0085 34.8494 14.4331 34.4616C14.0953 34.2364 13.7701 34.2239 9.62935 34.2239C5.48865 34.2239 5.1634 34.2364 4.82564 34.4616C4.63799 34.5867 4.36278 34.8619 4.23768 35.0495C4.01251 35.3998 4 35.9377 4 51.1119C4 66.2862 4.01251 66.8241 4.23768 67.1744C4.36278 67.362 4.63799 67.6372 4.82564 67.7623C5.1634 67.9875 5.48865 68 9.62935 68C13.7701 68 14.0953 67.9875 14.4331 67.7623C15.0085 67.387 15.2587 66.8866 15.2587 66.1486V65.4981H16.4847C17.6355 65.4981 17.7606 65.5231 19.0616 66.061C20.5253 66.674 22.3892 67.2494 23.8904 67.5497C25.9545 67.9625 27.1554 68.0125 34.8363 67.975L42.4672 67.9375L43.3429 67.5121C44.4938 66.9492 45.4821 65.9609 46.0325 64.81C46.4203 64.0219 46.4703 63.8093 46.5079 62.6208C46.5454 61.5575 46.5079 61.1697 46.3077 60.6068L46.0575 59.9188L46.6079 59.5685C47.3585 59.0931 48.0966 58.2299 48.5595 57.2542C48.9222 56.5161 48.9723 56.2784 49.0098 55.115C49.0473 54.0517 49.0098 53.6639 48.8096 53.101L48.5595 52.4129L49.1099 52.0627C49.8605 51.5873 50.5985 50.7241 51.0739 49.7484C51.4617 48.9478 51.4742 48.8602 51.4742 47.359C51.4742 45.8579 51.4617 45.7703 51.0739 44.9697C50.5985 43.9939 49.8605 43.1308 49.1099 42.6554L48.5595 42.3051L48.8096 41.6171C49.0098 41.0542 49.0473 40.6664 49.0098 39.603C48.9723 38.4146 48.9222 38.202 48.5344 37.4138C47.984 36.263 46.9957 35.2747 45.8449 34.7118L44.9692 34.2864L38.877 34.2489L32.7722 34.2114V30.7462C32.7597 27.4937 32.7472 27.231 32.4845 26.4554C31.7214 24.2036 30.0326 22.5899 27.7809 21.9144C26.9427 21.6642 25.0163 21.6642 24.3657 21.9019ZM27.1804 25.8549C27.906 26.2177 28.2312 26.5429 28.619 27.281L28.9568 27.9065L28.9943 32.2849C29.0193 37.0511 29.0444 37.2137 29.7574 37.6891C30.0576 37.9017 30.6456 37.9142 36.963 37.9768C43.5556 38.0393 43.8558 38.0518 44.2561 38.2895C45.4571 39.0151 45.4571 40.6914 44.2561 41.4169C43.8808 41.6421 43.5556 41.6671 40.7159 41.7297C37.3133 41.7922 37.2632 41.8047 36.7628 42.5678C36.4501 43.0432 36.4501 44.1691 36.7628 44.6444C37.2757 45.4326 37.1757 45.42 41.9669 45.4826C46.0575 45.5451 46.3703 45.5576 46.7581 45.7953C47.959 46.5209 47.959 48.1972 46.7581 48.9227C46.3703 49.1604 46.0575 49.1729 41.9669 49.2355C37.1757 49.298 37.2757 49.2855 36.7628 50.0736C36.4501 50.549 36.4501 51.6749 36.7628 52.1502C37.2632 52.9133 37.3133 52.9258 40.7159 52.9884C43.5556 53.0509 43.8808 53.076 44.2561 53.3011C45.4571 54.0267 45.4571 55.703 44.2561 56.4286C43.8808 56.6537 43.5556 56.6787 40.7159 56.7413C37.3133 56.8038 37.2632 56.8164 36.7628 57.5794C36.4501 58.0548 36.4501 59.1807 36.7628 59.656C37.2257 60.3566 37.4384 60.4316 39.4649 60.4942C41.1037 60.5567 41.4039 60.6068 41.7792 60.832C42.3547 61.1822 42.6549 61.7201 42.6549 62.3706C42.6549 63.0212 42.3547 63.5591 41.7792 63.9093C41.3539 64.1845 41.2538 64.1845 35.5869 64.2221C32.4095 64.2471 28.9818 64.1971 27.9185 64.1345C24.9162 63.9218 22.727 63.3964 20.2 62.2956L18.9616 61.7452H17.1101H15.2587V51.1119V40.4787H16.8349C18.6613 40.4787 19.512 40.3036 20.8881 39.6281C22.2016 38.9901 23.7778 37.4138 24.4158 36.1003C25.2164 34.4741 25.2664 34.0613 25.2664 29.9331C25.2664 27.8314 25.3165 26.0926 25.3915 25.9175C25.4916 25.6297 25.5792 25.5922 26.0796 25.5922C26.4173 25.5922 26.8677 25.7048 27.1804 25.8549ZM11.5058 51.1119V64.2471H9.62935H7.7529V51.1119V37.9768H9.62935H11.5058V51.1119Z" fill="#0B2D1F"/>
<path d="M11.5058 51.1119V64.2471H9.62935H7.7529V51.1119V37.9768H9.62935H11.5058V51.1119Z" fill="#62C89E"/>
</g>
</g>
</g>
</g>
</svg>
