<svg width="36" height="36" viewBox="0 0 36 36" fill="none" xmlns="http://www.w3.org/2000/svg">
<g id="application">
<rect id="Rectangle 34624579" x="7.71442" y="8.22852" width="8.74286" height="7.71429" fill="#FFA600"/>
<rect id="Rectangle 34624580" x="20.0574" y="8.22852" width="8.74286" height="7.71429" fill="#FFA600"/>
<rect id="Rectangle 34624581" x="7.71442" y="21.0856" width="8.74286" height="7.71429" fill="#FFA600"/>
<g id="Group">
<path id="Vector" d="M8.7013 6.78296C7.7618 7.03313 7.02799 7.78362 6.77782 8.73423C6.65552 9.20677 6.65552 14.8549 6.77782 15.3274C7.02799 16.2892 7.76736 17.0341 8.72354 17.2843C9.21274 17.4066 14.8497 17.4066 15.339 17.2843C16.2951 17.0341 17.0345 16.2892 17.2847 15.3274C17.407 14.8549 17.407 9.20677 17.2847 8.73423C17.0345 7.7725 16.2951 7.02757 15.339 6.7774C14.8664 6.6551 9.15715 6.66066 8.7013 6.78296ZM15.1777 8.61749C15.2611 8.67864 15.3834 8.80095 15.4446 8.88433C15.5613 9.03443 15.5613 9.09558 15.5613 12.0308C15.5613 14.9661 15.5613 15.0272 15.4446 15.1773C15.3834 15.2607 15.2611 15.383 15.1777 15.4442C15.0276 15.5609 14.9665 15.5609 12.0312 15.5609C9.096 15.5609 9.03485 15.5609 8.88475 15.4442C8.80136 15.383 8.67906 15.2607 8.61791 15.1773C8.50673 15.0272 8.50117 14.955 8.48449 12.1809C8.47337 10.6132 8.48449 9.2568 8.50117 9.15673C8.54008 8.93437 8.77357 8.65085 9.00149 8.55078C9.13491 8.48963 9.74642 8.47851 12.098 8.48963C14.9554 8.50075 15.0276 8.50075 15.1777 8.61749Z" fill="black"/>
<path id="Vector_2" d="M21.1539 6.78296C20.2144 7.03313 19.4806 7.78362 19.2304 8.73423C19.1081 9.20677 19.1081 14.8549 19.2304 15.3274C19.4806 16.2892 20.2199 17.0341 21.1761 17.2843C21.6653 17.4066 27.3023 17.4066 27.7915 17.2843C28.7477 17.0341 29.4871 16.2892 29.7372 15.3274C29.8595 14.8549 29.8595 9.20677 29.7372 8.73423C29.4871 7.7725 28.7477 7.02757 27.7915 6.7774C27.319 6.6551 21.6097 6.66066 21.1539 6.78296ZM27.6303 8.61749C27.7137 8.67864 27.836 8.80095 27.8972 8.88433C28.0139 9.03443 28.0139 9.09558 28.0139 12.0308C28.0139 14.9661 28.0139 15.0272 27.8972 15.1773C27.836 15.2607 27.7137 15.383 27.6303 15.4442C27.4802 15.5609 27.4191 15.5609 24.4838 15.5609C21.5486 15.5609 21.4874 15.5609 21.3373 15.4442C21.2539 15.383 21.1316 15.2607 21.0705 15.1773C20.9593 15.0272 20.9537 14.955 20.9371 12.1809C20.9259 10.6132 20.9371 9.2568 20.9537 9.15673C20.9927 8.93437 21.2261 8.65085 21.4541 8.55078C21.5875 8.48963 22.199 8.47851 24.5505 8.48963C27.4079 8.50075 27.4802 8.50075 27.6303 8.61749Z" fill="black"/>
<path id="Vector_3" d="M8.7013 19.2355C7.7618 19.4856 7.02799 20.2361 6.77782 21.1867C6.65552 21.6593 6.65552 27.3074 6.77782 27.7799C7.02799 28.7417 7.76736 29.4866 8.72354 29.7368C9.21274 29.8591 14.8497 29.8591 15.339 29.7368C16.2951 29.4866 17.0345 28.7417 17.2847 27.7799C17.407 27.3074 17.407 21.6593 17.2847 21.1867C17.0345 20.225 16.2951 19.4801 15.339 19.2299C14.8664 19.1076 9.15715 19.1132 8.7013 19.2355ZM15.1777 21.07C15.2611 21.1312 15.3834 21.2535 15.4446 21.3368C15.5613 21.4869 15.5613 21.5481 15.5613 24.4833C15.5613 27.4186 15.5613 27.4797 15.4446 27.6298C15.3834 27.7132 15.2611 27.8355 15.1777 27.8967C15.0276 28.0134 14.9665 28.0134 12.0312 28.0134C9.096 28.0134 9.03485 28.0134 8.88475 27.8967C8.80136 27.8355 8.67906 27.7132 8.61791 27.6298C8.50673 27.4797 8.50117 27.4075 8.48449 24.6334C8.47337 23.0658 8.48449 21.7093 8.50117 21.6092C8.54008 21.3869 8.77357 21.1034 9.00149 21.0033C9.13491 20.9421 9.74642 20.931 12.098 20.9421C14.9554 20.9533 15.0276 20.9533 15.1777 21.07Z" fill="black"/>
<path id="Vector_4" d="M23.6776 19.202C22.538 19.3854 21.5429 19.9024 20.7035 20.753C19.9863 21.4757 19.5194 22.304 19.2748 23.2935C19.1247 23.905 19.1413 25.1558 19.3026 25.7618C19.5805 26.7736 19.9808 27.4796 20.6757 28.1856C21.2316 28.7471 21.4818 28.9305 22.1266 29.253C23.7443 30.0646 25.6233 29.9923 27.2188 29.0584C27.8415 28.697 28.6976 27.8409 29.0478 27.235C29.6093 26.2677 29.7872 25.6006 29.7872 24.4832C29.7872 23.6326 29.6927 23.1156 29.4203 22.4541C28.8921 21.1977 27.7692 20.0748 26.5128 19.5466C25.729 19.2242 24.506 19.0741 23.6776 19.202ZM25.2342 21.0087C26.8297 21.3422 28.0416 22.8377 28.0416 24.4832C28.0416 25.7951 27.2466 27.0849 26.0848 27.6464C25.0063 28.1689 23.9612 28.1689 22.8827 27.6464C21.9598 27.2016 21.226 26.2566 21.0092 25.2281C20.4755 22.7154 22.7103 20.4806 25.2342 21.0087Z" fill="black"/>
</g>
</g>
</svg>
