<svg width="70" height="70" viewBox="0 0 70 70" fill="none" xmlns="http://www.w3.org/2000/svg">
<path d="M47.9134 56.9293C44.0104 56.9231 40.8594 53.7671 40.8569 49.8605C40.8532 45.9402 44.0425 42.746 47.9578 42.7473C51.8632 42.7485 55.055 45.9575 55.0476 49.8728C55.0389 53.798 51.8694 56.9354 47.9134 56.9293ZM47.2404 51.1705C46.77 50.6853 46.344 50.2457 45.9168 49.8062C45.6143 49.495 45.2748 49.4123 44.9451 49.7321C44.6167 50.0519 44.6907 50.4075 44.9871 50.7112C45.576 51.315 46.1699 51.9126 46.7762 52.4991C47.133 52.8436 47.5071 52.8399 47.8455 52.4546C48.0751 52.1916 48.2974 51.9225 48.5208 51.6545C49.3234 50.6914 50.1198 49.7247 50.9273 48.7665C51.2199 48.4196 51.3212 48.0603 50.936 47.7479C50.5544 47.4392 50.2075 47.5997 49.9309 47.9553C49.8679 48.0368 49.8012 48.1146 49.7346 48.1924C48.9209 49.1641 48.106 50.1371 47.2404 51.1705Z" fill="black"/>
<path d="M39.0836 52.2089C39.233 52.6386 39.3663 53.0226 39.5194 53.4646C31.9741 53.4646 24.4781 53.4646 16.9043 53.4646C16.9846 52.9572 17.0562 52.4583 17.1426 51.9632C17.5883 49.3913 17.9526 46.8021 18.5094 44.2548C18.991 42.0546 20.3998 40.4605 22.4778 39.6037C24.204 38.8925 26.0042 38.3615 27.7772 37.7676C28.3106 37.5886 28.9132 37.5133 28.6687 36.6761C29.1367 36.6761 29.5182 36.6761 29.7985 36.6761C30.1664 38.3331 30.527 39.9593 30.9258 41.7533C31.7814 40.7272 32.4951 39.8321 33.2594 38.9838C33.4483 38.7739 33.7891 38.6492 34.0805 38.5912C35.0596 38.3949 35.7906 38.7221 36.3586 39.5938C36.8352 40.3247 37.4686 40.9544 38.1365 41.7533C38.5329 39.9963 38.9008 38.3714 39.2824 36.6811C39.5305 36.6811 39.9096 36.6811 40.3529 36.6811C40.1689 37.4528 40.7011 37.5849 41.2493 37.7627C42.9878 38.3294 44.7275 38.8986 46.4425 39.532C47.0747 39.7654 47.639 40.184 48.1983 40.6013C47.2105 40.6779 46.2882 40.9137 45.3066 40.5025C43.8323 39.8852 42.279 39.4555 40.7579 38.948C40.5875 38.8912 40.4097 38.8529 40.1837 38.7912C39.7108 40.6729 39.2466 42.5201 38.749 44.4956C38.2366 43.8968 37.7958 43.3807 37.3327 42.8399C36.8734 43.4498 36.4919 43.9993 36.6487 44.8438C37.0586 47.0453 37.4031 49.2604 37.7106 51.478C37.7958 52.0916 38.0118 52.3089 38.5971 52.2114C38.7379 52.1904 38.8836 52.2089 39.0836 52.2089ZM28.8737 38.7542C26.9043 39.4246 24.9942 40.0049 23.1409 40.7272C21.174 41.4928 20.0232 43.0238 19.6182 45.0833C19.3602 46.3934 19.1799 47.7195 18.9613 49.0369C18.7897 50.0667 18.6119 51.0952 18.4218 52.2077C19.8824 52.2077 21.2555 52.2176 22.6272 52.1892C22.7371 52.1867 22.9161 51.9348 22.9359 51.7829C23.0483 50.9273 23.1211 50.0667 23.21 49.2073C23.3076 48.2541 23.4063 47.2997 23.5101 46.3032C23.9755 46.3539 24.3744 46.3971 24.7818 46.4403C24.5929 48.3875 24.4114 50.2605 24.225 52.1756C26.6351 52.1756 28.9712 52.1756 31.3456 52.1756C31.3888 51.9706 31.4431 51.7731 31.4703 51.573C31.779 49.2715 32.0617 46.9651 32.4025 44.6685C32.5136 43.9165 32.2284 43.3745 31.7629 42.8102C31.2888 43.3621 30.8418 43.8844 30.3195 44.4931C29.8219 42.5275 29.3589 40.6865 28.8737 38.7542ZM36.1684 52.0348C36.1684 51.8583 36.1808 51.757 36.1672 51.6607C36.1564 51.584 36.1457 51.5072 36.135 51.4305C35.8136 49.1316 35.492 46.8315 35.1658 44.5327C35.093 44.0215 35.0349 43.5498 35.3683 43.0646C36.3124 41.6872 36.2957 41.6682 35.1972 40.4144C35.1937 40.4104 35.1903 40.4065 35.1868 40.4025C35.1325 40.3408 35.0856 40.2704 35.0226 40.2198C34.6929 39.9506 34.3546 39.9247 34.0373 40.2321C33.8755 40.3889 33.7372 40.5704 33.5965 40.7458C32.7742 41.7681 32.7914 41.757 33.515 42.8448C33.7311 43.1695 33.9434 43.5782 33.941 43.9462C33.9373 44.6376 33.778 45.3278 33.6792 46.018C33.4187 47.8232 33.1507 49.6283 32.8976 51.4347C32.8631 51.6817 32.7705 52.0237 33.2001 52.0299C34.1793 52.0447 35.1596 52.0348 36.1684 52.0348Z" fill="black"/>
<path d="M36.1684 52.0348C36.1684 51.8583 36.1808 51.757 36.1672 51.6607L36.135 51.4305C35.8136 49.1316 35.492 46.8315 35.1658 44.5327C35.093 44.0215 35.0349 43.5498 35.3683 43.0646C36.3124 41.6872 36.2957 41.6682 35.1972 40.4144L35.1868 40.4025C35.1325 40.3408 35.0856 40.2704 35.0226 40.2198C34.6929 39.9506 34.3546 39.9247 34.0373 40.2321C33.8755 40.3889 33.7372 40.5704 33.5965 40.7458C32.7742 41.7681 32.7914 41.757 33.515 42.8448C33.7311 43.1695 33.9434 43.5782 33.941 43.9462C33.9373 44.6376 33.778 45.3278 33.6792 46.018C33.4187 47.8232 33.1507 49.6283 32.8976 51.4347C32.8631 51.6817 32.7705 52.0237 33.2001 52.0299C34.1793 52.0447 35.1596 52.0348 36.1684 52.0348Z" fill="#FFA600"/>
<path d="M44.2843 22.8769C44.2843 23.1238 44.3004 23.372 44.2819 23.6165C44.2238 24.3882 44.3831 25.0068 44.9202 25.6711C46.3167 27.4009 45.3931 29.9728 43.2336 30.6112C42.8422 30.7272 42.6483 30.9149 42.4705 31.289C42.131 32.0064 41.763 32.7435 41.2506 33.3374C40.3382 34.3919 39.3158 35.3537 38.3256 36.3391C37.6823 36.9786 36.8822 37.2663 35.9809 37.2713C35.0141 37.2762 34.0485 37.2799 33.0817 37.27C32.1828 37.2614 31.3741 36.9897 30.7432 36.3304C29.5788 35.1154 28.2861 33.9881 27.3267 32.6275C26.6044 31.6027 26.0018 30.6927 24.8153 30.0469C23.1422 29.1369 23.0842 26.6909 24.4263 25.2587C24.6338 25.0377 24.7918 24.6648 24.7869 24.366C24.7511 22.3287 24.9239 20.3482 25.9018 18.4998C28.1478 14.2524 32.8718 12.4731 36.9587 13.5671C38.9738 14.1067 40.4036 15.4278 41.2852 17.3182C41.4433 17.6565 41.6248 17.8553 42.0051 17.9701C43.3818 18.3825 44.2251 19.5864 44.2819 21.1483C44.3029 21.7237 44.2856 22.299 44.2856 22.8757C44.2831 22.8769 44.2831 22.8769 44.2843 22.8769ZM27.4637 25.534C27.4637 26.97 27.4131 28.2825 27.4798 29.5901C27.5317 30.5951 27.9305 31.5335 28.6083 32.2756C29.6467 33.4115 30.7296 34.5117 31.8631 35.5513C32.1717 35.8341 32.7212 35.9341 33.1719 35.9649C34.072 36.0267 34.9857 36.0415 35.8833 35.96C36.3871 35.9143 36.9834 35.7637 37.3403 35.4426C38.4071 34.4833 39.4195 33.4535 40.3678 32.3744C40.8024 31.8805 41.1111 31.2372 41.342 30.6112C41.9458 28.9826 41.6001 27.2774 41.6988 25.5575C39.8616 25.2797 38.5441 24.2894 37.6057 22.7139C34.6535 25.3303 31.1728 25.818 27.4637 25.534ZM42.9607 24.2783C42.9607 23.1955 42.9768 22.1311 42.9558 21.068C42.9336 19.9395 42.1927 19.1579 41.0691 19.1295C40.6271 19.1184 40.4888 18.9493 40.3616 18.5677C39.5936 16.2588 37.9823 14.8858 35.5759 14.608C33.02 14.3129 30.7259 15.0426 28.8195 16.8045C26.6365 18.8221 25.8944 21.3755 26.1216 24.2931C27.4736 24.2931 28.7861 24.3116 30.0986 24.2882C31.9865 24.2561 33.7682 23.7894 35.3524 22.751C36.2525 22.1608 37.0686 21.4446 37.9873 20.7359C38.9849 22.7374 40.2073 24.5191 42.9607 24.2783ZM42.9891 25.8168C42.9891 27.0033 42.9891 28.143 42.9891 29.2925C43.7979 29.0122 44.2868 28.3232 44.2732 27.5194C44.2609 26.707 43.7769 26.0464 42.9891 25.8168ZM26.0401 29.2678C26.0401 28.122 26.0401 26.9737 26.0401 25.7982C25.182 26.1588 24.7622 26.8157 24.8091 27.6466C24.8535 28.4467 25.3092 29.0419 26.0401 29.2678Z" fill="black"/>
</svg>
