<svg width="72" height="72" viewBox="0 0 72 72" fill="none" xmlns="http://www.w3.org/2000/svg">
<g id="cash-advance-analysis">
<circle id="Ellipse 2653" cx="44" cy="28" r="20" fill="#E60000"/>
<g id="Group">
<path id="Vector" d="M40.5705 4.15116C28.743 6.06407 20.2412 15.9787 20.2412 27.8437C20.2412 32.9573 22.029 38.2835 25.0547 42.1968C25.4298 42.6844 25.7423 43.1345 25.7423 43.1845C25.7423 43.2345 24.6921 44.3223 23.4168 45.5976L21.0913 47.923L20.4412 47.6855C19.9411 47.498 19.566 47.4479 18.7408 47.4855C16.9154 47.548 17.0905 47.4104 10.414 54.1119C4.82535 59.7256 4.50028 60.0632 4.23772 60.7758C4.01267 61.4009 3.97516 61.7135 4.01267 62.6512C4.08769 64.164 4.36275 64.6891 5.95059 66.227C7.48842 67.7273 8.10105 68.0149 9.7389 67.9398C11.5643 67.8773 11.3893 68.0149 18.0657 61.3134C23.5919 55.7622 23.9795 55.3496 24.2295 54.6745C24.5671 53.7368 24.5796 52.3365 24.2545 51.4738L24.0295 50.8612L26.355 48.5357C27.6302 47.2604 28.718 46.2102 28.768 46.2102C28.818 46.2102 29.2681 46.5227 29.7557 46.8978C35.8195 51.5863 44.2838 52.9491 51.7479 50.4736C60.3248 47.6105 66.4761 40.2214 67.8264 31.1444C68.1389 29.0565 68.0139 25.0556 67.5763 23.0177C65.5634 13.5532 58.4118 6.38914 48.9348 4.37621C47.622 4.08864 47.0719 4.03863 44.5589 4.01363C42.4709 3.97612 41.3832 4.01363 40.5705 4.15116ZM46.8094 8.21453C51.0978 8.77715 54.8486 10.6651 58.0743 13.8782C60.4748 16.2788 61.8626 18.5042 62.8753 21.5674C63.613 23.8054 63.763 24.6431 63.838 27.2061C63.888 29.1815 63.863 29.7441 63.6505 31.0194C62.0751 40.2214 54.411 47.0604 45.109 47.5355C35.8195 48.0231 27.3302 41.7592 25.0047 32.6948C22.4541 22.7301 27.9678 12.528 37.7824 9.08972C40.508 8.13951 43.7712 7.81444 46.8094 8.21453ZM19.7035 52.2365C20.0661 52.5991 20.3662 52.9491 20.3662 53.0241C20.3662 53.1867 9.7139 63.839 9.55136 63.839C9.38883 63.839 8.11355 62.5637 8.11355 62.4012C8.11355 62.2386 18.7658 51.5863 18.9284 51.5863C18.9909 51.5863 19.341 51.8739 19.7035 52.2365Z" fill="#4D0000"/>
<path id="Vector_2" d="M42.996 13.6032C42.2708 14.1033 42.0833 14.4659 42.0208 15.5536L41.9708 16.5539L41.4456 16.7039C39.9578 17.129 38.0949 18.7543 37.3823 20.2296C36.8947 21.2549 36.7571 21.9175 36.7446 23.0803C36.7446 24.8306 37.3198 26.2559 38.5575 27.5687C39.9703 29.069 41.4956 29.7442 43.8962 29.9442C44.9839 30.0317 45.3465 30.1193 45.8716 30.4068C46.6718 30.8444 47.1844 31.4445 47.3594 32.1572C47.8095 33.9576 45.8091 35.6955 43.6211 35.3954C42.971 35.3079 42.1833 34.8578 41.1331 34.0076C40.7955 33.72 40.3079 33.445 40.0703 33.4075C39.5202 33.3074 38.7701 33.495 38.3075 33.8576C37.5948 34.4202 37.3948 35.658 37.9074 36.4706C38.445 37.3458 40.2079 38.6586 41.3706 39.0712L42.0583 39.3087L42.1333 40.1214C42.2583 41.5967 43.071 42.3844 44.3463 42.2969C45.0839 42.2469 45.5215 41.9843 45.9716 41.3342C46.1842 41.0091 46.2467 40.7465 46.2467 40.0714C46.2467 39.3838 46.2842 39.2087 46.4342 39.2087C46.5467 39.2087 46.9968 39.0462 47.4344 38.8461C49.2098 38.0335 50.5976 36.5581 51.2227 34.7953C51.6603 33.57 51.6728 31.8946 51.2727 30.6944C50.3225 27.8938 47.8595 26.1434 44.4713 25.8433C43.7586 25.7808 42.971 25.6433 42.7209 25.5433C42.1333 25.2932 41.3206 24.5556 41.0706 24.0305C40.1329 22.0425 42.5709 19.8296 44.9464 20.5172C45.9841 20.8173 46.5842 21.1548 47.3469 21.8425C48.2721 22.6927 49.1223 22.7927 50.0975 22.2051C50.5601 21.9175 50.9977 21.1048 50.9977 20.5172C50.9977 19.2169 49.2223 17.5791 46.9718 16.8039L46.1216 16.5163V15.6662C46.1216 14.6284 45.8841 14.0533 45.259 13.6282C44.6463 13.2156 43.5836 13.2031 42.996 13.6032Z" fill="#4D0000"/>
</g>
</g>
</svg>
