<svg width="72" height="72" viewBox="0 0 72 72" fill="none" xmlns="http://www.w3.org/2000/svg">
<g id="cash-advance" clip-path="url(#clip0_6356_46867)">
<g id="Group 1171275383">
<g id="Group 1171275271">
<g id="Group">
<path id="Vector" d="M39.9676 13.4577C40.2614 13.6373 40.6369 14.0129 40.8165 14.3067C41.1267 14.8129 41.1431 15.1394 41.1431 20.968C41.1431 26.7965 41.1267 27.1231 40.8165 27.6292C40.6369 27.9231 40.2614 28.2986 39.9676 28.4782C39.4451 28.7884 39.1186 28.8047 29.388 28.8047C19.6574 28.8047 19.3308 28.7884 18.8084 28.4782C18.5145 28.2986 18.139 27.9231 17.9594 27.6292C17.6492 27.1231 17.6329 26.7965 17.6329 20.968C17.6329 15.1394 17.6492 14.8129 17.9594 14.3067C18.139 14.0129 18.5145 13.6373 18.8084 13.4577C19.3308 13.1475 19.6574 13.1312 29.388 13.1312C39.1186 13.1312 39.4451 13.1475 39.9676 13.4577ZM22.8574 20.968V23.5802H29.388H35.9186V20.968V18.3557H29.388H22.8574V20.968Z" fill="#0B2D1F"/>
<path id="Vector_2" d="M39.9676 34.3559C40.7512 34.8457 41.1431 35.5804 41.1431 36.6417C41.1431 37.7029 40.7512 38.4376 39.9676 38.9274C39.4778 39.2213 39.1349 39.2539 35.9839 39.2539C32.6859 39.2539 32.5227 39.2376 32.0002 38.8784C30.3839 37.8008 30.3839 35.4825 32.0002 34.4049C32.5227 34.0457 32.6859 34.0294 35.9839 34.0294C39.1349 34.0294 39.4778 34.0621 39.9676 34.3559Z" fill="#0B2D1F"/>
<path id="Vector_3" d="M26.9065 34.3559C27.6902 34.8457 28.082 35.5804 28.082 36.6417C28.082 37.7029 27.6902 38.4376 26.9065 38.9274C26.4167 39.2213 26.0739 39.2539 22.9228 39.2539C19.6249 39.2539 19.4616 39.2376 18.9392 38.8784C17.3228 37.8008 17.3228 35.4825 18.9392 34.4049C19.4616 34.0457 19.6249 34.0294 22.9228 34.0294C26.0739 34.0294 26.4167 34.0621 26.9065 34.3559Z" fill="#0B2D1F"/>
<path id="Vector_4" d="M39.9676 44.8047C40.7512 45.2945 41.1431 46.0292 41.1431 47.0904C41.1431 48.1516 40.7512 48.8863 39.9676 49.3761C39.4778 49.67 39.1349 49.7026 35.9839 49.7026C32.6859 49.7026 32.5227 49.6863 32.0002 49.3271C30.3839 48.2496 30.3839 45.9312 32.0002 44.8537C32.5227 44.4945 32.6859 44.4781 35.9839 44.4781C39.1349 44.4781 39.4778 44.5108 39.9676 44.8047Z" fill="#0B2D1F"/>
<path id="Vector_5" d="M26.9065 44.8047C27.6902 45.2945 28.082 46.0292 28.082 47.0904C28.082 48.1516 27.6902 48.8863 26.9065 49.3761C26.4167 49.67 26.0739 49.7026 22.9228 49.7026C19.6249 49.7026 19.4616 49.6863 18.9392 49.3271C17.3228 48.2496 17.3228 45.9312 18.9392 44.8537C19.4616 44.4945 19.6249 44.4781 22.9228 44.4781C26.0739 44.4781 26.4167 44.5108 26.9065 44.8047Z" fill="#0B2D1F"/>
</g>
</g>
<path id="Subtract" fill-rule="evenodd" clip-rule="evenodd" d="M7.18364 54.8483V30.1224H7.18359V20.2636C7.18359 11.0377 7.19992 10.3356 7.4938 9.40486C8.24482 7.00451 10.302 4.9634 12.7183 4.26126C13.502 4.03266 15.4611 4 29.3877 4C43.3142 4 45.2734 4.03266 46.0571 4.26126C48.4734 4.9634 50.5305 7.00451 51.2816 9.40486C51.5754 10.3683 51.5918 11.5113 51.5918 45.7856C51.5918 51.1815 51.5908 55.7677 51.5881 59.6676C50.9232 60.3797 49.7325 60.7643 47.6734 60.8163H11.7042C9.57458 59.8443 7.96538 57.9485 7.37951 55.6319L7.18364 54.8483ZM-32 60.1092V57.6208C-32.0001 58.0278 -32.0001 58.4425 -32.0001 58.865C-32.0001 59.2875 -32.0001 59.7022 -32 60.1092ZM12.5714 54.0317C12.7509 54.8318 13.1754 55.4196 13.8938 55.8442C14.4313 56.17 14.7576 56.1708 28.9633 56.2032L29.0611 56.2034C37.0938 56.2034 43.9183 56.1708 44.2285 56.0891C44.9469 55.9258 45.5509 55.4523 45.9591 54.7665C46.2848 54.229 46.2856 53.8703 46.3342 33.6351L46.3346 33.4736C46.3673 22.0761 46.3346 12.3604 46.2856 11.8868C46.1713 10.8745 45.6816 10.107 44.8979 9.64979C44.3265 9.30688 44.1632 9.30688 29.3877 9.30688C14.7428 9.30688 14.4326 9.30688 13.8938 9.63346C13.1754 10.058 12.7509 10.6459 12.5714 11.446C12.3754 12.2951 12.3754 53.1826 12.5714 54.0317Z" fill="#0B2D1F"/>
<g id="Group 1171275382">
<ellipse id="Ellipse 2666" cx="49.6328" cy="56.2449" rx="11.102" ry="10.449" fill="#22885E"/>
<g id="Group_2">
<path id="Vector_6" d="M48.9797 68C55.4719 68 60.7348 62.737 60.7348 56.2448C60.7348 49.7527 55.4719 44.4897 48.9797 44.4897C42.4875 44.4897 37.2246 49.7527 37.2246 56.2448C37.2246 62.737 42.4875 68 48.9797 68Z" stroke="#0B2D1F" stroke-width="3" stroke-linecap="round" stroke-linejoin="round"/>
<path id="Vector_7" d="M52.637 52.3266C52.4004 51.9162 52.0567 51.5778 51.6425 51.3477C51.2284 51.1177 50.7595 51.0045 50.286 51.0205H47.6738C46.981 51.0205 46.3165 51.2957 45.8266 51.7856C45.3367 52.2755 45.0615 52.9399 45.0615 53.6327C45.0615 54.3255 45.3367 54.99 45.8266 55.4799C46.3165 55.9697 46.981 56.245 47.6738 56.245H50.286C50.9788 56.245 51.6433 56.5202 52.1331 57.0101C52.623 57.5 52.8983 58.1644 52.8983 58.8572C52.8983 59.55 52.623 60.2145 52.1331 60.7043C51.6433 61.1942 50.9788 61.4695 50.286 61.4695H47.6738C47.2003 61.4854 46.7314 61.3723 46.3173 61.1422C45.9031 60.9121 45.5594 60.5738 45.3227 60.1633M48.9799 49.7144V62.7756" stroke="#0B2D1F" stroke-width="2" stroke-linecap="round" stroke-linejoin="round"/>
</g>
</g>
</g>
</g>
<defs>
<clipPath id="clip0_6356_46867">
<rect width="72" height="72" fill="white"/>
</clipPath>
</defs>
</svg>
