<svg width="72" height="72" viewBox="0 0 72 72" fill="none" xmlns="http://www.w3.org/2000/svg">
<g id="confirmed">
<g id="Group 1171275520">
<path id="Ellipse 2699" d="M68 36C68 53.6731 53.6731 68 36 68C18.3269 68 4 53.6731 4 36C4 18.3269 18.3269 4 36 4C53.6731 4 68 18.3269 68 36ZM11.0543 36C11.0543 49.7771 22.2229 60.9457 36 60.9457C49.7771 60.9457 60.9457 49.7771 60.9457 36C60.9457 22.2229 49.7771 11.0543 36 11.0543C22.2229 11.0543 11.0543 22.2229 11.0543 36Z" fill="#0B2D1F"/>
<path id="Vector" d="M44.6287 25.301C43.9301 25.4966 42.1975 27.0056 38.2853 30.9178L32.8919 36.2553L30.852 34.2712C28.7282 32.1474 27.8898 31.6724 26.269 31.6724C24.2011 31.6724 22.4965 33.0975 22.1053 35.2213C21.742 37.1216 22.1332 37.7643 26.297 41.956C28.4487 44.1637 30.5725 46.1477 30.9917 46.3713C31.9697 46.8743 33.842 46.8743 34.9598 46.3433C35.4349 46.1198 39.0118 42.7385 42.8682 38.8542C50.4133 31.2811 50.8045 30.7502 50.3853 28.4867C50.1338 27.1453 48.7366 25.6083 47.4791 25.2451C46.2775 24.9097 45.9421 24.9097 44.6287 25.301Z" fill="#0B2D1F"/>
</g>
</g>
</svg>
