<svg width="72" height="72" viewBox="0 0 72 72" fill="none" xmlns="http://www.w3.org/2000/svg">
<g id="convert-as-expense">
<ellipse id="Ellipse 2669" cx="27" cy="26.5" rx="16" ry="15.5" fill="#22885E"/>
<g id="Group">
<path id="Vector" d="M43.6482 6.2365C42.4609 6.96134 42.4484 8.86092 43.6357 9.49828C43.8731 9.63574 44.623 9.93568 45.3103 10.1856C50.8841 12.1977 55.9205 16.2593 59.5821 21.7081C60.0695 22.4329 60.4694 23.0578 60.4445 23.0703C60.4195 23.0953 60.0445 23.0203 59.5946 22.8953C58.8198 22.6954 58.7573 22.6954 58.195 22.9078C56.8203 23.4327 56.5328 25.3073 57.6826 26.2196C57.87 26.357 59.3947 26.9319 61.0943 27.4943C64.556 28.644 64.781 28.669 65.5683 27.9442C65.9432 27.5943 66.1307 27.1819 66.993 24.6324C68.0803 21.4456 68.2052 20.7333 67.7553 20.0584C67.3679 19.4836 66.8805 19.2336 66.1307 19.2336C65.0559 19.2336 64.556 19.671 64.0562 21.0457C63.9687 21.2832 63.9687 21.2832 63.8312 21.0582C63.7437 20.9332 63.2438 20.1709 62.719 19.3711C58.7073 13.3224 52.7711 8.62347 46.3351 6.41146C44.9229 5.92406 44.2355 5.87408 43.6482 6.2365Z" fill="#0B2D1F"/>
<path id="Vector_2" d="M24.315 8.49857C20.1034 9.06094 16.4792 10.873 13.4299 13.9099C10.6805 16.6718 9.06832 19.6336 8.2435 23.4827C7.8311 25.3698 7.8311 29.0815 8.23101 30.9311C9.05582 34.7803 10.6805 37.7921 13.3799 40.4915C15.017 42.1286 16.3292 43.0909 18.2163 44.0532C20.4033 45.1655 22.7528 45.8278 25.3272 46.0403L26.352 46.1277L26.4395 47.1525C26.7394 50.6642 27.8767 53.8385 29.8512 56.6629C30.6885 57.8501 32.8381 60.0497 34.0628 60.9495C37.462 63.4614 41.7486 64.7486 46.0601 64.5612C50.9341 64.3612 55.0956 62.5241 58.5699 59.0499C61.3193 56.288 62.9314 53.3261 63.7687 49.427C64.1686 47.6024 64.1686 43.8532 63.7687 42.0286C62.8939 37.9795 61.0568 34.7053 58.1325 31.9434C55.0082 29.019 51.084 27.2944 46.6725 26.9195L45.6477 26.832L45.5603 25.8072C45.2603 22.308 44.1231 19.1337 42.1485 16.2968C41.1362 14.8347 38.8117 12.5852 37.3121 11.5729C35.1875 10.1732 33.0255 9.2609 30.5511 8.73602C29.1139 8.43608 25.7271 8.29861 24.315 8.49857ZM29.1264 12.4227C35.3125 13.435 40.2739 18.2714 41.5112 24.545C41.6236 25.0824 41.6861 26.1697 41.6736 27.3569C41.6736 29.4314 41.4487 30.7187 40.7863 32.4558C39.2991 36.4424 35.9624 39.7791 31.9758 41.2663C30.2386 41.9287 28.9514 42.1536 26.8769 42.1536C24.7649 42.1661 23.8526 42.0286 22.1029 41.4663C19.2661 40.554 16.6292 38.6544 14.8171 36.2424C10.2681 30.2063 10.8429 21.9956 16.1792 16.6593C19.6285 13.2225 24.3899 11.6604 29.1264 12.4227ZM48.2472 31.0436C56.0829 32.6932 61.3193 40.254 60.057 48.1023C58.4324 58.0751 47.4848 63.6614 38.5243 59.0999C33.7879 56.6754 30.701 52.0639 30.3011 46.7776C30.2136 45.7778 30.2261 45.7278 30.4636 45.7278C30.8385 45.7278 32.7881 45.153 33.8503 44.7156C34.3627 44.5156 34.7876 44.3531 34.8001 44.3531C34.8251 44.3531 34.8751 45.128 34.9001 46.0653C34.9501 47.5899 35.0126 47.9273 35.3625 48.9771C36.4498 52.1764 38.7618 54.5009 41.9985 55.6256C43.1483 56.0256 43.2358 56.038 45.2478 56.038C47.2474 56.038 47.3474 56.0256 48.4971 55.6256C49.9843 55.1133 51.409 54.2634 52.4462 53.2762C53.6085 52.1639 53.8834 51.2891 53.3835 50.3518C53.0586 49.7394 52.4462 49.352 51.7964 49.352C51.009 49.352 50.6716 49.527 49.7468 50.3893C48.3721 51.689 47.0474 52.2264 45.2478 52.2264C44.0856 52.2139 43.4232 52.0764 42.3735 51.5765C41.2737 51.0517 39.924 49.702 39.3991 48.6022L39.0117 47.7899L42.8484 47.7274C46.4351 47.6649 46.71 47.6524 47.1224 47.4025C48.3846 46.6651 48.4596 44.9405 47.2599 44.1407C46.8475 43.8532 46.785 43.8532 42.9233 43.8532H39.0117L39.1867 43.3534C39.4491 42.6035 40.1864 41.5662 40.9238 40.8914C42.111 39.8041 43.5982 39.2293 45.2478 39.2293C46.9974 39.2293 48.4221 39.8041 49.7343 41.0414C50.7591 42.0037 50.9466 42.1036 51.7214 42.1036C53.1086 42.1036 53.9959 40.7414 53.446 39.4292C53.0086 38.392 50.7091 36.6298 48.922 35.9925C47.5348 35.4926 46.535 35.3301 45.0479 35.3801L43.7981 35.4176L44.1981 34.4178C44.6605 33.3056 45.2478 31.3435 45.2478 30.9436C45.2478 30.7062 45.2978 30.6937 46.2976 30.7811C46.885 30.8186 47.7598 30.9436 48.2472 31.0436Z" fill="#0B2D1F"/>
<path id="Vector_3" d="M25.9145 15.7345C25.2647 16.0219 24.9147 16.5593 24.8023 17.4341C24.7273 18.0714 24.7023 18.1089 24.1649 18.3714C22.6902 19.0837 21.3905 20.8833 21.1156 22.5954C20.7781 24.7325 21.8154 27.0694 23.6025 28.2192C24.4398 28.7441 25.1522 28.994 26.2894 29.1065C26.8393 29.169 27.4392 29.319 27.6641 29.4439C28.8264 30.1313 28.8014 31.8434 27.6266 32.5432C27.2392 32.7682 26.9143 32.8057 24.6898 32.8557C22.4403 32.9057 22.1528 32.9431 21.8529 33.1681C20.6782 34.0554 20.8281 35.7925 22.1278 36.4424C22.5652 36.6673 22.8902 36.7298 23.715 36.7298H24.7523L24.8272 37.2172C25.0647 38.6669 26.4394 39.3417 27.7641 38.6544C28.2765 38.3919 28.6264 37.7421 28.6264 37.0297V36.4174L29.4262 36.005C32.7505 34.2804 33.4503 29.6564 30.7884 26.9945C29.8011 26.0072 28.7639 25.5198 27.3142 25.3448C25.9395 25.1824 25.4396 24.9074 25.1022 24.1451C24.8148 23.4952 24.8772 22.9953 25.3396 22.3705C25.8645 21.6831 26.2144 21.6082 28.7889 21.6082C30.9634 21.6082 31.1134 21.5957 31.5008 21.3207C32.1631 20.8708 32.4256 20.4334 32.4256 19.7711C32.4131 19.0462 32.1381 18.4713 31.6008 18.0839C31.2508 17.8465 31.0009 17.7965 29.9136 17.759L28.6264 17.709V17.2466C28.6264 16.9967 28.5139 16.6093 28.3765 16.3843C28.1015 15.9469 27.2767 15.4845 26.7518 15.4845C26.5769 15.4845 26.2019 15.597 25.9145 15.7345Z" fill="#0B2D1F"/>
<path id="Vector_4" d="M7.06889 44.6156C6.29407 44.828 6.05662 45.2654 5.00685 48.3398C3.91959 51.5016 3.79462 52.2139 4.24452 52.9013C4.63193 53.4761 5.11933 53.7261 5.86916 53.7261C6.94392 53.7261 7.44381 53.2887 7.9437 51.914C8.03118 51.6765 8.03118 51.6765 8.16865 51.9015C9.81829 54.5884 11.4304 56.6629 13.5675 58.8C15.9419 61.1869 18.2914 62.974 20.9908 64.4737C23.2528 65.7234 26.4646 66.9731 27.4144 66.9731C28.8266 66.9731 29.7139 65.386 29.0265 64.1113C28.7516 63.6114 28.3392 63.3614 26.6896 62.7741C21.1158 60.7745 16.0044 56.6379 12.3552 51.1766C11.8928 50.4893 11.5304 49.9019 11.5554 49.8894C11.5804 49.8644 11.9553 49.9394 12.4052 50.0644C13.18 50.2643 13.2425 50.2643 13.8049 50.0519C14.5922 49.752 15.0046 49.1396 15.0046 48.2898C15.0046 47.6024 14.7047 46.9901 14.2173 46.6651C13.8174 46.4152 8.03118 44.4781 7.69376 44.4906C7.55629 44.4906 7.26885 44.5531 7.06889 44.6156Z" fill="#0B2D1F"/>
</g>
</g>
</svg>
