<svg width="36" height="36" viewBox="0 0 36 36" fill="none" xmlns="http://www.w3.org/2000/svg">
<path d="M15.8288 15.6974C17.4838 15.6974 18.8255 14.1321 18.8255 12.2012C18.8255 10.2703 17.4838 8.70496 15.8288 8.70496C14.1737 8.70496 12.832 10.2703 12.832 12.2012C12.832 14.1321 14.1737 15.6974 15.8288 15.6974Z" fill="#FFA600"/>
<path d="M24.819 27.6844C26.7499 27.6844 28.3152 26.1191 28.3152 24.1882C28.3152 22.2573 26.7499 20.692 24.819 20.692C22.8881 20.692 21.3228 22.2573 21.3228 24.1882C21.3228 26.1191 22.8881 27.6844 24.819 27.6844Z" fill="#FFA600"/>
<path fill-rule="evenodd" clip-rule="evenodd" d="M20.6356 12.2812C20.6356 15.1565 18.4846 17.5051 15.8288 17.5051C13.173 17.5051 11.033 15.1675 11.022 12.3032C11.0111 9.48275 13.184 7.20007 15.8288 7.20007C18.4846 7.20007 20.6356 9.44983 20.6356 12.2812ZM13.0304 12.3032C13.0304 14.1469 14.3144 15.5845 15.8288 15.5845C17.3543 15.5845 18.6273 14.1249 18.6273 12.2812C18.6273 10.4814 17.3653 9.1206 15.8288 9.1206C14.3034 9.1206 13.0194 10.5034 13.0304 12.3032ZM20.2798 27.7113H8.98084C7.08226 27.7113 6.17139 27.1077 6.17139 25.8127C6.17139 22.7947 9.94659 18.7781 15.8288 18.7781C17.8569 18.7781 19.6332 19.2556 21.0903 20.0049C20.5158 20.3806 20.0235 20.8714 19.646 21.4445C18.5827 20.9908 17.3047 20.6986 15.8288 20.6986C10.9891 20.6986 8.27848 23.8263 8.27848 25.5054C8.27848 25.7029 8.37725 25.7907 8.64063 25.7907H19.0882C19.3356 26.5215 19.7475 27.1763 20.2798 27.7113Z" fill="#1C1C1E"/>
<path d="M24.8167 28.6834C27.2804 28.6834 29.314 26.6488 29.314 24.1882C29.314 21.7277 27.2761 19.6931 24.8123 19.6931C22.353 19.6931 20.3237 21.7277 20.3237 24.1882C20.3237 26.6488 22.3573 28.6834 24.8167 28.6834ZM24.8167 27.7878C22.8222 27.7878 21.2275 26.1837 21.2275 24.1882C21.2275 22.1928 22.8222 20.593 24.8123 20.593C26.8068 20.593 28.4102 22.1928 28.4145 24.1882C28.4189 26.1837 26.8111 27.7878 24.8167 27.7878ZM22.6267 24.736H24.8123C25.0122 24.736 25.1643 24.5838 25.1643 24.3882V21.5451C25.1643 21.3494 25.0122 21.1973 24.8123 21.1973C24.6212 21.1973 24.4691 21.3494 24.4691 21.5451V24.0404H22.6267C22.4312 24.0404 22.2791 24.1926 22.2791 24.3882C22.2791 24.5838 22.4312 24.736 22.6267 24.736Z" fill="#1C1C1E" stroke="#1C1C1E" stroke-width="0.514286"/>
</svg>
