<svg width="36" height="36" viewBox="0 0 36 36" fill="none" xmlns="http://www.w3.org/2000/svg">
<mask id="mask0_4692_38287" style="mask-type:alpha" maskUnits="userSpaceOnUse" x="7" y="7" width="23" height="22">
<path d="M29.3076 7.30762H7.30762V28.3076H29.3076V7.30762Z" fill="white"/>
<path d="M28.6543 23.0725C28.4142 22.8324 27.9941 22.7724 27.694 22.9524C26.9737 23.3126 26.1334 23.3726 25.3532 23.0725C25.1131 23.0125 24.9331 22.8924 24.693 22.7124C25.8333 21.1518 26.4335 19.2912 26.4335 17.3706C26.4335 14.8498 25.4132 12.629 23.7927 10.9485C22.1721 9.32795 19.8914 8.30762 17.3706 8.30762C14.8497 8.30762 12.569 9.26793 10.9484 10.9485C9.32795 12.569 8.30762 14.8498 8.30762 17.3706C8.30762 19.8914 9.26793 22.1722 10.8884 23.7927C12.509 25.4132 14.7897 26.4336 17.3105 26.4336C18.2709 26.4336 19.2312 26.2535 20.1315 25.9534C20.8517 26.5536 21.692 26.9738 22.5923 27.1538C22.9524 27.2138 23.3725 27.2739 23.7327 27.2739C25.8934 27.2739 27.874 26.0134 28.7743 23.9728C28.9544 23.6727 28.8944 23.3126 28.6543 23.0725ZM23.4326 20.0715C23.5526 19.1112 24.0928 18.2709 24.9331 17.7907C25.2331 17.6107 25.4132 17.2506 25.3532 16.8904C25.2932 16.5303 24.9931 16.2902 24.633 16.1702C23.9727 16.0502 23.2525 16.0502 22.5323 16.2302C20.3715 16.7104 18.691 18.3909 18.2108 20.4916C17.9107 21.9921 18.1508 23.4926 18.9911 24.753C19.1111 24.9331 19.2912 25.1732 19.4112 25.3532C18.811 25.5333 18.2709 25.5933 17.6707 25.6533V24.4529C17.6707 24.2129 17.4906 24.0328 17.2505 24.0328C17.0104 24.0328 16.8304 24.2129 16.8304 24.4529V25.6533C14.9698 25.5333 13.1692 24.753 11.7887 23.4926L12.629 22.6523C12.8091 22.4723 12.8091 22.2322 12.629 22.0521C12.4489 21.8721 12.2089 21.8721 12.0288 22.0521L11.1885 22.8924C9.92815 21.512 9.14789 19.7114 9.08788 17.7907H10.2882C10.5283 17.7907 10.7084 17.6107 10.7084 17.3706C10.7084 17.1305 10.5283 16.9505 10.2882 16.9505H9.08788C9.20791 14.9698 9.98817 13.1692 11.1885 11.8488L12.0288 12.6891C12.0888 12.7491 12.2089 12.8091 12.3289 12.8091C12.4489 12.8091 12.569 12.7491 12.629 12.6891C12.8091 12.509 12.8091 12.2689 12.629 12.0889L11.7887 11.2486C13.1692 9.98817 14.9698 9.20791 16.8904 9.14789V10.3483C16.8904 10.5884 17.0705 10.7684 17.3105 10.7684C17.5506 10.7684 17.7307 10.5884 17.7307 10.3483V9.14789C19.7113 9.26793 21.5119 10.0482 22.8324 11.2486L21.9921 12.0889C21.812 12.2689 21.812 12.509 21.9921 12.6891C22.0521 12.7491 22.1721 12.8091 22.2922 12.8091C22.4122 12.8091 22.5323 12.7491 22.5923 12.6891L23.4326 11.8488C24.753 13.2893 25.5933 15.2699 25.5933 17.3706C25.5933 19.1112 25.0531 20.7317 24.0928 22.1122C23.6126 21.572 23.3725 20.8517 23.4326 20.0715ZM17.7307 12.8091V18.0308C17.7307 18.2109 17.6106 18.3309 17.4306 18.3909L12.4489 20.1915C12.3889 20.1915 12.3289 20.1915 12.3289 20.1915C12.1488 20.1915 12.0288 20.0715 11.9688 19.8914C11.9088 19.6514 12.0288 19.4113 12.2089 19.3513L16.8904 17.6707V12.8091C16.8904 12.569 17.0705 12.389 17.3105 12.389C17.5506 12.389 17.7307 12.629 17.7307 12.8091Z" fill="black"/>
</mask>
<g mask="url(#mask0_4692_38287)">
<path d="M28.6543 23.0725C28.4142 22.8324 27.9941 22.7724 27.694 22.9524C26.9737 23.3126 26.1334 23.3726 25.3532 23.0725C25.1131 23.0125 24.9331 22.8924 24.693 22.7124C25.8333 21.1518 26.4335 19.2912 26.4335 17.3706C26.4335 14.8498 25.4132 12.629 23.7927 10.9485C22.1721 9.32795 19.8914 8.30762 17.3706 8.30762C14.8497 8.30762 12.569 9.26793 10.9484 10.9485C9.32795 12.569 8.30762 14.8498 8.30762 17.3706C8.30762 19.8914 9.26793 22.1722 10.8884 23.7927C12.509 25.4132 14.7897 26.4336 17.3105 26.4336C18.2709 26.4336 19.2312 26.2535 20.1315 25.9534C20.8517 26.5536 21.692 26.9738 22.5923 27.1538C22.9524 27.2138 23.3725 27.2739 23.7327 27.2739C25.8934 27.2739 27.874 26.0134 28.7743 23.9728C28.9544 23.6727 28.8944 23.3126 28.6543 23.0725ZM23.4326 20.0715C23.5526 19.1112 24.0928 18.2709 24.9331 17.7907C25.2331 17.6107 25.4132 17.2506 25.3532 16.8904C25.2932 16.5303 24.9931 16.2902 24.633 16.1702C23.9727 16.0502 23.2525 16.0502 22.5323 16.2302C20.3715 16.7104 18.691 18.3909 18.2108 20.4916C17.9107 21.9921 18.1508 23.4926 18.9911 24.753C19.1111 24.9331 19.2912 25.1732 19.4112 25.3532C18.811 25.5333 18.2709 25.5933 17.6707 25.6533V24.4529C17.6707 24.2129 17.4906 24.0328 17.2505 24.0328C17.0104 24.0328 16.8304 24.2129 16.8304 24.4529V25.6533C14.9698 25.5333 13.1692 24.753 11.7887 23.4926L12.629 22.6523C12.8091 22.4723 12.8091 22.2322 12.629 22.0521C12.4489 21.8721 12.2089 21.8721 12.0288 22.0521L11.1885 22.8924C9.92815 21.512 9.14789 19.7114 9.08788 17.7907H10.2882C10.5283 17.7907 10.7084 17.6107 10.7084 17.3706C10.7084 17.1305 10.5283 16.9505 10.2882 16.9505H9.08788C9.20791 14.9698 9.98817 13.1692 11.1885 11.8488L12.0288 12.6891C12.0888 12.7491 12.2089 12.8091 12.3289 12.8091C12.4489 12.8091 12.569 12.7491 12.629 12.6891C12.8091 12.509 12.8091 12.2689 12.629 12.0889L11.7887 11.2486C13.1692 9.98817 14.9698 9.20791 16.8904 9.14789V10.3483C16.8904 10.5884 17.0705 10.7684 17.3105 10.7684C17.5506 10.7684 17.7307 10.5884 17.7307 10.3483V9.14789C19.7113 9.26793 21.5119 10.0482 22.8324 11.2486L21.9921 12.0889C21.812 12.2689 21.812 12.509 21.9921 12.6891C22.0521 12.7491 22.1721 12.8091 22.2922 12.8091C22.4122 12.8091 22.5323 12.7491 22.5923 12.6891L23.4326 11.8488C24.753 13.2893 25.5933 15.2699 25.5933 17.3706C25.5933 19.1112 25.0531 20.7317 24.0928 22.1122C23.6126 21.572 23.3725 20.8517 23.4326 20.0715ZM17.7307 12.8091V18.0308C17.7307 18.2109 17.6106 18.3309 17.4306 18.3909L12.4489 20.1915C12.3889 20.1915 12.3289 20.1915 12.3289 20.1915C12.1488 20.1915 12.0288 20.0715 11.9688 19.8914C11.9088 19.6514 12.0288 19.4113 12.2089 19.3513L16.8904 17.6707V12.8091C16.8904 12.569 17.0705 12.389 17.3105 12.389C17.5506 12.389 17.7307 12.629 17.7307 12.8091Z" fill="black"/>
<path d="M23.733 26.4937C23.4329 26.4937 23.0728 26.4337 22.7727 26.3737C22.4126 26.3137 22.0525 26.1936 21.6923 26.0136C21.1522 25.7735 20.732 25.4134 20.3119 24.9932L20.0718 24.7532C19.9518 24.6331 19.8317 24.4531 19.7117 24.333C19.3516 23.8529 19.1115 23.2527 19.0515 22.6525C18.9314 22.0523 18.9314 21.3921 19.0515 20.7318C19.4116 18.9913 20.8521 17.5508 22.7127 17.1307C23.0728 17.0706 23.4329 17.0106 23.793 17.0106C24.0331 17.0106 24.2732 17.0106 24.5133 17.0706C23.4329 17.7309 22.7127 18.8112 22.5926 20.0716C22.5326 20.5518 22.5926 21.0319 22.7127 21.5121C22.8327 21.8122 23.0128 22.2924 23.3729 22.7125C23.613 23.0126 23.8531 23.2527 24.1532 23.4327C24.5133 23.6728 24.8134 23.7929 24.9934 23.8529C25.1735 23.9129 25.6536 24.093 26.3139 24.093C26.4939 24.093 26.614 24.093 26.794 24.0329C27.2142 23.9729 27.6343 23.8529 27.9944 23.6728C27.3342 25.4134 25.5936 26.4937 23.733 26.4937Z" fill="#FFA600"/>
</g>
</svg>
