<svg width="72" height="72" viewBox="0 0 72 72" fill="none" xmlns="http://www.w3.org/2000/svg">
<g id="paid">
<g id="Group 1171275387">
<g id="Group 1171275277">
<rect id="Rectangle 34624852" x="13.5308" y="27.1897" width="7.41438" height="20.1247" transform="rotate(-180 13.5308 27.1897)" fill="#62C89E"/>
<g id="Group">
<g id="Vector">
<mask id="path-2-outside-1_6356_46792" maskUnits="userSpaceOnUse" x="3.37305" y="5" width="60" height="25" fill="black">
<rect fill="white" x="3.37305" y="5" width="60" height="25"/>
<path d="M15.3861 26.9184C15.3861 25.9784 15.4258 25.1973 15.4655 25.1973C15.5185 25.1973 16.2466 25.6077 17.094 26.1108C19.3447 27.448 19.4903 27.4744 22.6016 27.5539C24.1109 27.5804 25.7526 27.5406 26.4278 27.4612C27.765 27.3023 41.256 23.7277 42.0371 23.3305C42.7653 22.9465 43.5067 22.2449 43.8642 21.5564C44.0893 21.146 44.2481 20.9871 44.3805 21.0268C44.4865 21.0798 46.9358 22.3772 49.8087 23.9263C52.6817 25.4885 55.3693 26.9184 55.7665 27.1302C56.4285 27.4877 56.6138 27.5142 57.8848 27.5142C59.1293 27.5142 59.3412 27.4744 59.9369 27.1567C60.8769 26.6668 61.7507 25.6739 62.1082 24.7206C62.3598 24.0851 62.3995 23.7277 62.3598 22.8141C62.3068 21.4902 61.9758 20.6694 61.1285 19.8353C60.4533 19.1733 39.3098 6.51634 38.3433 6.21183C37.7476 6.01324 36.7016 6 28.4137 6.02648L19.1593 6.0662L17.3058 6.80761L15.4523 7.54902L15.4125 6.78113L15.3728 6H9.69309H4.00011V17.3198V28.6395H9.69309H15.3861V26.9184ZM6.38322 17.3198V8.38311H9.69309H13.003V17.3198V26.2564H9.69309H6.38322V17.3198ZM52.7876 22.7744C43.4008 17.7169 44.4467 18.3392 44.2084 17.6507C43.7715 16.4195 42.7786 15.4398 41.4414 14.9367C40.2498 14.4865 39.2701 14.6586 32.5312 16.4592C29.1816 17.3462 26.4013 18.1274 26.3351 18.1803C26.2027 18.2862 26.772 20.431 26.9309 20.431C26.9971 20.431 29.7112 19.7161 32.9681 18.8423C39.4025 17.1344 39.7732 17.0417 40.4749 17.1741C41.0839 17.2933 41.8121 18.0215 41.9974 18.7099C42.249 19.6367 41.7724 20.7223 40.9515 21.1592C40.7529 21.2519 37.4298 22.1919 33.5771 23.2246L26.5734 25.1046L23.9917 25.1708C20.4436 25.2502 20.3641 25.2237 17.6368 23.6085L15.3861 22.2713V16.2209V10.1704L17.5309 9.30987L19.6889 8.4493H28.6917H37.6946L48.0876 14.6586C53.807 18.0744 58.7321 21.0401 59.0234 21.2386C60.7843 22.4302 59.9899 25.1973 57.8981 25.1973C57.342 25.1973 56.7727 24.9192 52.7876 22.7744Z"/>
</mask>
<path d="M15.3861 26.9184C15.3861 25.9784 15.4258 25.1973 15.4655 25.1973C15.5185 25.1973 16.2466 25.6077 17.094 26.1108C19.3447 27.448 19.4903 27.4744 22.6016 27.5539C24.1109 27.5804 25.7526 27.5406 26.4278 27.4612C27.765 27.3023 41.256 23.7277 42.0371 23.3305C42.7653 22.9465 43.5067 22.2449 43.8642 21.5564C44.0893 21.146 44.2481 20.9871 44.3805 21.0268C44.4865 21.0798 46.9358 22.3772 49.8087 23.9263C52.6817 25.4885 55.3693 26.9184 55.7665 27.1302C56.4285 27.4877 56.6138 27.5142 57.8848 27.5142C59.1293 27.5142 59.3412 27.4744 59.9369 27.1567C60.8769 26.6668 61.7507 25.6739 62.1082 24.7206C62.3598 24.0851 62.3995 23.7277 62.3598 22.8141C62.3068 21.4902 61.9758 20.6694 61.1285 19.8353C60.4533 19.1733 39.3098 6.51634 38.3433 6.21183C37.7476 6.01324 36.7016 6 28.4137 6.02648L19.1593 6.0662L17.3058 6.80761L15.4523 7.54902L15.4125 6.78113L15.3728 6H9.69309H4.00011V17.3198V28.6395H9.69309H15.3861V26.9184ZM6.38322 17.3198V8.38311H9.69309H13.003V17.3198V26.2564H9.69309H6.38322V17.3198ZM52.7876 22.7744C43.4008 17.7169 44.4467 18.3392 44.2084 17.6507C43.7715 16.4195 42.7786 15.4398 41.4414 14.9367C40.2498 14.4865 39.2701 14.6586 32.5312 16.4592C29.1816 17.3462 26.4013 18.1274 26.3351 18.1803C26.2027 18.2862 26.772 20.431 26.9309 20.431C26.9971 20.431 29.7112 19.7161 32.9681 18.8423C39.4025 17.1344 39.7732 17.0417 40.4749 17.1741C41.0839 17.2933 41.8121 18.0215 41.9974 18.7099C42.249 19.6367 41.7724 20.7223 40.9515 21.1592C40.7529 21.2519 37.4298 22.1919 33.5771 23.2246L26.5734 25.1046L23.9917 25.1708C20.4436 25.2502 20.3641 25.2237 17.6368 23.6085L15.3861 22.2713V16.2209V10.1704L17.5309 9.30987L19.6889 8.4493H28.6917H37.6946L48.0876 14.6586C53.807 18.0744 58.7321 21.0401 59.0234 21.2386C60.7843 22.4302 59.9899 25.1973 57.8981 25.1973C57.342 25.1973 56.7727 24.9192 52.7876 22.7744Z" fill="#0B2D1F"/>
<path d="M15.3861 26.9184C15.3861 25.9784 15.4258 25.1973 15.4655 25.1973C15.5185 25.1973 16.2466 25.6077 17.094 26.1108C19.3447 27.448 19.4903 27.4744 22.6016 27.5539C24.1109 27.5804 25.7526 27.5406 26.4278 27.4612C27.765 27.3023 41.256 23.7277 42.0371 23.3305C42.7653 22.9465 43.5067 22.2449 43.8642 21.5564C44.0893 21.146 44.2481 20.9871 44.3805 21.0268C44.4865 21.0798 46.9358 22.3772 49.8087 23.9263C52.6817 25.4885 55.3693 26.9184 55.7665 27.1302C56.4285 27.4877 56.6138 27.5142 57.8848 27.5142C59.1293 27.5142 59.3412 27.4744 59.9369 27.1567C60.8769 26.6668 61.7507 25.6739 62.1082 24.7206C62.3598 24.0851 62.3995 23.7277 62.3598 22.8141C62.3068 21.4902 61.9758 20.6694 61.1285 19.8353C60.4533 19.1733 39.3098 6.51634 38.3433 6.21183C37.7476 6.01324 36.7016 6 28.4137 6.02648L19.1593 6.0662L17.3058 6.80761L15.4523 7.54902L15.4125 6.78113L15.3728 6H9.69309H4.00011V17.3198V28.6395H9.69309H15.3861V26.9184ZM6.38322 17.3198V8.38311H9.69309H13.003V17.3198V26.2564H9.69309H6.38322V17.3198ZM52.7876 22.7744C43.4008 17.7169 44.4467 18.3392 44.2084 17.6507C43.7715 16.4195 42.7786 15.4398 41.4414 14.9367C40.2498 14.4865 39.2701 14.6586 32.5312 16.4592C29.1816 17.3462 26.4013 18.1274 26.3351 18.1803C26.2027 18.2862 26.772 20.431 26.9309 20.431C26.9971 20.431 29.7112 19.7161 32.9681 18.8423C39.4025 17.1344 39.7732 17.0417 40.4749 17.1741C41.0839 17.2933 41.8121 18.0215 41.9974 18.7099C42.249 19.6367 41.7724 20.7223 40.9515 21.1592C40.7529 21.2519 37.4298 22.1919 33.5771 23.2246L26.5734 25.1046L23.9917 25.1708C20.4436 25.2502 20.3641 25.2237 17.6368 23.6085L15.3861 22.2713V16.2209V10.1704L17.5309 9.30987L19.6889 8.4493H28.6917H37.6946L48.0876 14.6586C53.807 18.0744 58.7321 21.0401 59.0234 21.2386C60.7843 22.4302 59.9899 25.1973 57.8981 25.1973C57.342 25.1973 56.7727 24.9192 52.7876 22.7744Z" stroke="#0B2D1F" mask="url(#path-2-outside-1_6356_46792)"/>
</g>
</g>
</g>
<g id="Group 1171275276">
<rect id="Rectangle 34624852_2" x="58.4692" y="44.5872" width="7.41438" height="20.1247" fill="#62C89E"/>
<g id="Group_2">
<g id="Vector_2">
<mask id="path-4-outside-2_6356_46792" maskUnits="userSpaceOnUse" x="8.62695" y="41.7766" width="60" height="25" fill="black">
<rect fill="white" x="8.62695" y="41.7766" width="60" height="25"/>
<path d="M56.6139 44.8582C56.6139 45.7982 56.5742 46.5794 56.5345 46.5794C56.4815 46.5794 55.7534 46.1689 54.906 45.6658C52.6553 44.3286 52.5097 44.3022 49.3984 44.2227C47.8891 44.1962 46.2474 44.236 45.5722 44.3154C44.235 44.4743 30.744 48.0489 29.9629 48.4461C29.2347 48.8301 28.4933 49.5318 28.1358 50.2202C27.9107 50.6306 27.7519 50.7895 27.6195 50.7498C27.5135 50.6968 25.0642 49.3994 22.1913 47.8503C19.3183 46.2881 16.6307 44.8582 16.2335 44.6464C15.5715 44.2889 15.3862 44.2624 14.1152 44.2624C12.8707 44.2624 12.6588 44.3022 12.0631 44.6199C11.1231 45.1098 10.2493 46.1027 9.89179 47.056C9.64024 47.6915 9.60052 48.0489 9.64024 48.9625C9.6932 50.2864 10.0242 51.1073 10.8715 51.9413C11.5467 52.6033 32.6902 65.2603 33.6567 65.5648C34.2524 65.7634 35.2984 65.7766 43.5863 65.7501L52.8407 65.7104L54.6942 64.969L56.5477 64.2276L56.5875 64.9955L56.6272 65.7766H62.3069H67.9999V54.4569V43.1371H62.3069H56.6139V44.8582ZM65.6168 54.4569V63.3935H62.3069H58.997V54.4569V45.5202H62.3069H65.6168V54.4569ZM19.2124 49.0022C28.5992 54.0597 27.5533 53.4374 27.7916 54.1259C28.2285 55.3571 29.2214 56.3369 30.5586 56.84C31.7502 57.2901 32.7299 57.118 39.4688 55.3174C42.8184 54.4304 45.5987 53.6492 45.6649 53.5963C45.7973 53.4904 45.228 51.3456 45.0691 51.3456C45.0029 51.3456 42.2888 52.0605 39.0319 52.9343C32.5975 54.6422 32.2268 54.7349 31.5251 54.6025C30.9161 54.4833 30.1879 53.7552 30.0026 53.0667C29.751 52.1399 30.2276 51.0543 31.0485 50.6174C31.2471 50.5247 34.5702 49.5847 38.4229 48.552L45.4266 46.672L48.0083 46.6058C51.5564 46.5264 51.6359 46.5529 54.3632 48.1681L56.6139 49.5053V55.5557V61.6062L54.4691 62.4667L52.3111 63.3273H43.3083H34.3054L23.9124 57.118C18.193 53.7022 13.2679 50.7366 12.9766 50.538C11.2157 49.3464 12.0101 46.5794 14.1019 46.5794C14.658 46.5794 15.2273 46.8574 19.2124 49.0022Z"/>
</mask>
<path d="M56.6139 44.8582C56.6139 45.7982 56.5742 46.5794 56.5345 46.5794C56.4815 46.5794 55.7534 46.1689 54.906 45.6658C52.6553 44.3286 52.5097 44.3022 49.3984 44.2227C47.8891 44.1962 46.2474 44.236 45.5722 44.3154C44.235 44.4743 30.744 48.0489 29.9629 48.4461C29.2347 48.8301 28.4933 49.5318 28.1358 50.2202C27.9107 50.6306 27.7519 50.7895 27.6195 50.7498C27.5135 50.6968 25.0642 49.3994 22.1913 47.8503C19.3183 46.2881 16.6307 44.8582 16.2335 44.6464C15.5715 44.2889 15.3862 44.2624 14.1152 44.2624C12.8707 44.2624 12.6588 44.3022 12.0631 44.6199C11.1231 45.1098 10.2493 46.1027 9.89179 47.056C9.64024 47.6915 9.60052 48.0489 9.64024 48.9625C9.6932 50.2864 10.0242 51.1073 10.8715 51.9413C11.5467 52.6033 32.6902 65.2603 33.6567 65.5648C34.2524 65.7634 35.2984 65.7766 43.5863 65.7501L52.8407 65.7104L54.6942 64.969L56.5477 64.2276L56.5875 64.9955L56.6272 65.7766H62.3069H67.9999V54.4569V43.1371H62.3069H56.6139V44.8582ZM65.6168 54.4569V63.3935H62.3069H58.997V54.4569V45.5202H62.3069H65.6168V54.4569ZM19.2124 49.0022C28.5992 54.0597 27.5533 53.4374 27.7916 54.1259C28.2285 55.3571 29.2214 56.3369 30.5586 56.84C31.7502 57.2901 32.7299 57.118 39.4688 55.3174C42.8184 54.4304 45.5987 53.6492 45.6649 53.5963C45.7973 53.4904 45.228 51.3456 45.0691 51.3456C45.0029 51.3456 42.2888 52.0605 39.0319 52.9343C32.5975 54.6422 32.2268 54.7349 31.5251 54.6025C30.9161 54.4833 30.1879 53.7552 30.0026 53.0667C29.751 52.1399 30.2276 51.0543 31.0485 50.6174C31.2471 50.5247 34.5702 49.5847 38.4229 48.552L45.4266 46.672L48.0083 46.6058C51.5564 46.5264 51.6359 46.5529 54.3632 48.1681L56.6139 49.5053V55.5557V61.6062L54.4691 62.4667L52.3111 63.3273H43.3083H34.3054L23.9124 57.118C18.193 53.7022 13.2679 50.7366 12.9766 50.538C11.2157 49.3464 12.0101 46.5794 14.1019 46.5794C14.658 46.5794 15.2273 46.8574 19.2124 49.0022Z" fill="#0B2D1F"/>
<path d="M56.6139 44.8582C56.6139 45.7982 56.5742 46.5794 56.5345 46.5794C56.4815 46.5794 55.7534 46.1689 54.906 45.6658C52.6553 44.3286 52.5097 44.3022 49.3984 44.2227C47.8891 44.1962 46.2474 44.236 45.5722 44.3154C44.235 44.4743 30.744 48.0489 29.9629 48.4461C29.2347 48.8301 28.4933 49.5318 28.1358 50.2202C27.9107 50.6306 27.7519 50.7895 27.6195 50.7498C27.5135 50.6968 25.0642 49.3994 22.1913 47.8503C19.3183 46.2881 16.6307 44.8582 16.2335 44.6464C15.5715 44.2889 15.3862 44.2624 14.1152 44.2624C12.8707 44.2624 12.6588 44.3022 12.0631 44.6199C11.1231 45.1098 10.2493 46.1027 9.89179 47.056C9.64024 47.6915 9.60052 48.0489 9.64024 48.9625C9.6932 50.2864 10.0242 51.1073 10.8715 51.9413C11.5467 52.6033 32.6902 65.2603 33.6567 65.5648C34.2524 65.7634 35.2984 65.7766 43.5863 65.7501L52.8407 65.7104L54.6942 64.969L56.5477 64.2276L56.5875 64.9955L56.6272 65.7766H62.3069H67.9999V54.4569V43.1371H62.3069H56.6139V44.8582ZM65.6168 54.4569V63.3935H62.3069H58.997V54.4569V45.5202H62.3069H65.6168V54.4569ZM19.2124 49.0022C28.5992 54.0597 27.5533 53.4374 27.7916 54.1259C28.2285 55.3571 29.2214 56.3369 30.5586 56.84C31.7502 57.2901 32.7299 57.118 39.4688 55.3174C42.8184 54.4304 45.5987 53.6492 45.6649 53.5963C45.7973 53.4904 45.228 51.3456 45.0691 51.3456C45.0029 51.3456 42.2888 52.0605 39.0319 52.9343C32.5975 54.6422 32.2268 54.7349 31.5251 54.6025C30.9161 54.4833 30.1879 53.7552 30.0026 53.0667C29.751 52.1399 30.2276 51.0543 31.0485 50.6174C31.2471 50.5247 34.5702 49.5847 38.4229 48.552L45.4266 46.672L48.0083 46.6058C51.5564 46.5264 51.6359 46.5529 54.3632 48.1681L56.6139 49.5053V55.5557V61.6062L54.4691 62.4667L52.3111 63.3273H43.3083H34.3054L23.9124 57.118C18.193 53.7022 13.2679 50.7366 12.9766 50.538C11.2157 49.3464 12.0101 46.5794 14.1019 46.5794C14.658 46.5794 15.2273 46.8574 19.2124 49.0022Z" stroke="#0B2D1F" mask="url(#path-4-outside-2_6356_46792)"/>
</g>
</g>
</g>
<g id="Group 1171275382">
<ellipse id="Ellipse 2666" cx="36.2739" cy="27.4535" rx="11.7592" ry="11.0675" fill="#22885E"/>
<g id="Group_3">
<path id="Vector_3" d="M35.5823 39.9049C42.4588 39.9049 48.0333 34.3304 48.0333 27.4539C48.0333 20.5774 42.4588 15.0029 35.5823 15.0029C28.7058 15.0029 23.1313 20.5774 23.1313 27.4539C23.1313 34.3304 28.7058 39.9049 35.5823 39.9049Z" stroke="#0B2D1F" stroke-width="3" stroke-linecap="round" stroke-linejoin="round"/>
<path id="Vector_4" d="M39.4556 23.3037C39.205 22.869 38.8409 22.5106 38.4022 22.2669C37.9636 22.0232 37.4669 21.9034 36.9654 21.9203H34.1985C33.4647 21.9203 32.7609 22.2118 32.242 22.7307C31.7232 23.2496 31.4316 23.9534 31.4316 24.6872C31.4316 25.421 31.7232 26.1248 32.242 26.6437C32.7609 27.1626 33.4647 27.4541 34.1985 27.4541H36.9654C37.6992 27.4541 38.403 27.7456 38.9219 28.2645C39.4408 28.7834 39.7323 29.4871 39.7323 30.221C39.7323 30.9548 39.4408 31.6585 38.9219 32.1774C38.403 32.6963 37.6992 32.9878 36.9654 32.9878H34.1985C33.697 33.0047 33.2004 32.8849 32.7617 32.6412C32.3231 32.3975 31.9589 32.0391 31.7083 31.6044M35.582 20.5369V34.3713" stroke="#0B2D1F" stroke-width="2" stroke-linecap="round" stroke-linejoin="round"/>
</g>
</g>
</g>
</g>
</svg>
