<svg width="36" height="36" viewBox="0 0 36 36" fill="none" xmlns="http://www.w3.org/2000/svg">
<g id="reporting">
<g id="Group 1171274806">
<path id="Vector" d="M17.8147 20.3723C17.4974 20.0033 16.5028 18.9308 14.8246 18.4097C14.2494 18.2315 13.6519 18.135 13.0498 18.1229V8.53815C13.0498 8.45049 13.0846 8.36643 13.1466 8.30445C13.2086 8.24246 13.2927 8.20764 13.3803 8.20764H26.821C26.9087 8.20764 26.9928 8.24246 27.0548 8.30445C27.1167 8.36643 27.1516 8.45049 27.1516 8.53815V26.2204C27.1516 26.3081 27.1167 26.3921 27.0548 26.4541C26.9928 26.5161 26.9087 26.5509 26.821 26.5509H19.0794C19.2796 25.9177 19.3818 25.2576 19.3824 24.5935C19.3824 24.5935 19.3824 24.3731 19.3675 24.1547C19.2168 22.0037 17.8147 20.3723 17.8147 20.3723Z" fill="#FFA600"/>
<path id="Vector_2" d="M16.3688 21.1336C15.9181 20.6839 15.3862 20.3237 14.8014 20.0722C14.2014 19.8182 13.5566 19.6874 12.9052 19.6874C12.2537 19.6874 11.6089 19.8182 11.009 20.0722C9.83124 20.5808 8.89243 21.5204 8.38478 22.6986C8.13085 23.2981 8 23.9426 8 24.5937C8 25.2447 8.13085 25.8892 8.38478 26.4887C8.63626 27.0736 8.99646 27.6054 9.44627 28.0559C9.89508 28.5071 10.4266 28.8675 11.0118 29.1177C11.6117 29.37 12.256 29.4999 12.9068 29.4999C13.5577 29.4999 14.202 29.37 14.8019 29.1177C15.9829 28.6101 16.9245 27.6693 17.433 26.4887C17.687 25.8892 17.8178 25.2447 17.8178 24.5937C17.8178 23.9426 17.687 23.2981 17.433 22.6986C17.1815 22.1138 16.8202 21.5825 16.3688 21.1336ZM15.694 21.8057C15.8865 21.998 16.0585 22.2099 16.2071 22.4378L13.2909 24.1091V20.674C13.6858 20.709 14.0729 20.8055 14.4381 20.9598C14.9075 21.1579 15.334 21.4451 15.694 21.8057ZM14.4405 28.2269C13.4587 28.6324 12.3563 28.6324 11.3745 28.2269C10.9056 28.0293 10.4798 27.7422 10.1208 27.3817C9.76159 27.0216 9.475 26.5959 9.2766 26.1276C8.87117 25.1459 8.87117 24.0436 9.2766 23.0619C9.47401 22.5933 9.75935 22.1669 10.1172 21.8057C10.4753 21.4444 10.9009 21.157 11.3698 20.9598C11.7393 20.8035 12.1312 20.7064 12.531 20.6723V24.6935C12.5293 24.7517 12.5386 24.8098 12.5586 24.8645C12.5812 24.9173 12.6153 24.9643 12.6583 25.0023L15.3825 27.6612C15.0963 27.8926 14.7793 28.083 14.4405 28.2269ZM16.5398 26.1276C16.3894 26.4826 16.1879 26.8138 15.9419 27.1106L13.6008 24.8073L16.5616 23.115C16.945 24.0841 16.9372 25.1642 16.5398 26.1276ZM28.1886 9.874V24.8984C28.1886 25.8532 27.9499 26.5693 27.4725 27.0467C26.9951 27.5241 26.2855 27.7628 25.3435 27.7628H18.5529C18.7676 27.3822 18.9429 26.9807 19.0762 26.5645H25.2851C25.8503 26.5645 26.2757 26.42 26.5614 26.1309C26.8471 25.8419 26.9901 25.4246 26.9903 24.8789V9.90319C26.9903 9.35124 26.8473 8.92892 26.5614 8.63624C26.2755 8.34355 25.8501 8.19739 25.2851 8.19776H14.9864C14.4213 8.19776 13.9958 8.34392 13.7101 8.63624C13.4244 8.92856 13.2815 9.35087 13.2813 9.90319V18.1321C13.1579 18.1252 13.0334 18.121 12.9086 18.121C12.6324 18.121 12.3564 18.1385 12.0824 18.1734V9.874C12.0824 8.92562 12.3211 8.20951 12.7985 7.72568C13.2759 7.24185 13.9855 6.99994 14.9275 6.99994H25.3435C26.2851 6.99994 26.9948 7.24185 27.4725 7.72568C27.9503 8.20951 28.189 8.92562 28.1886 9.874ZM20.8323 15.2134C20.8307 15.1502 20.8421 15.0873 20.8658 15.0286C20.8895 14.97 20.925 14.9168 20.97 14.8724C21.0618 14.7806 21.1819 14.7347 21.3303 14.7347H24.7979C24.8627 14.7325 24.9272 14.7436 24.9876 14.7673C25.0479 14.791 25.1028 14.8268 25.1488 14.8724C25.2163 14.9403 25.262 15.0268 25.28 15.1208C25.298 15.2149 25.2874 15.3122 25.2497 15.4002C25.212 15.4882 25.1488 15.5629 25.0683 15.6147C24.9878 15.6665 24.8936 15.6931 24.7979 15.691H21.3292C21.1799 15.691 21.0598 15.6439 20.9689 15.5497C20.9249 15.5055 20.8902 15.4531 20.8667 15.3953C20.8433 15.3376 20.8316 15.2757 20.8323 15.2134ZM15.5125 16.0121C15.7145 16.0121 15.8477 15.8919 15.9121 15.6516L16.3503 14.4728H18.3089L18.757 15.6516C18.822 15.8921 18.9552 16.0123 19.1566 16.0121C19.2929 16.0121 19.3968 15.9764 19.4684 15.905C19.54 15.8335 19.5757 15.7361 19.5756 15.6127C19.5717 15.5264 19.5552 15.441 19.5268 15.3594L17.9387 11.1115C17.8285 10.8063 17.6239 10.6536 17.3248 10.6534C17.0389 10.6534 16.8408 10.8061 16.7304 11.1115L15.1432 15.3596C15.108 15.4397 15.0882 15.5256 15.0848 15.613C15.0848 15.7364 15.1221 15.8338 15.1969 15.9052C15.2704 15.9769 15.3762 16.0124 15.5125 16.0124V16.0121ZM17.3052 11.6183H17.354L18.1139 13.7908H16.555L17.3052 11.6183ZM20.9684 12.1297C20.8808 12.0388 20.8318 11.9174 20.8318 11.7911C20.8318 11.6648 20.8808 11.5434 20.9684 11.4525C21.0602 11.3616 21.1803 11.3161 21.3286 11.3161H24.7979C24.8626 11.3138 24.9271 11.3247 24.9874 11.3481C25.0477 11.3715 25.1027 11.4071 25.1488 11.4525C25.2163 11.5203 25.262 11.6068 25.28 11.7009C25.298 11.7949 25.2874 11.8922 25.2497 11.9802C25.212 12.0682 25.1488 12.1429 25.0683 12.1948C24.9878 12.2466 24.8936 12.2731 24.7979 12.271H21.3292C21.1799 12.271 21.0598 12.2239 20.9689 12.1297H20.9684ZM25.2846 18.6298C25.285 18.6934 25.2727 18.7565 25.2482 18.8153C25.2238 18.8741 25.1878 18.9274 25.1423 18.9719C25.0968 19.0165 25.0429 19.0515 24.9836 19.0747C24.9243 19.098 24.861 19.1091 24.7973 19.1073H16.3484C15.8842 18.8229 15.3869 18.5962 14.8677 18.4323C14.8908 18.3782 14.9242 18.329 14.9661 18.2877C15.0579 18.1959 15.1779 18.15 15.3263 18.15H24.7979C24.8627 18.1478 24.9272 18.1589 24.9876 18.1826C25.0479 18.2063 25.1028 18.242 25.1488 18.2877C25.1936 18.3322 25.2287 18.3854 25.2522 18.4441C25.2756 18.5027 25.2868 18.5655 25.2851 18.6286L25.2846 18.6298ZM25.1744 21.7145C25.1749 21.7782 25.1625 21.8413 25.1381 21.9001C25.1136 21.9589 25.0776 22.0121 25.0321 22.0567C24.9867 22.1013 24.9327 22.1362 24.8734 22.1595C24.8142 22.1827 24.7508 22.1938 24.6872 22.1921H18.9184C18.7755 21.8601 18.6062 21.5401 18.4119 21.2353H24.6877C24.7525 21.2331 24.8171 21.2442 24.8774 21.2679C24.9377 21.2916 24.9926 21.3273 25.0386 21.373C25.0833 21.4175 25.1185 21.4706 25.1419 21.5291C25.1653 21.5877 25.1766 21.6504 25.1749 21.7134L25.1744 21.7145Z" fill="black"/>
</g>
</g>
</svg>
