<svg width="72" height="72" viewBox="0 0 72 72" fill="none" xmlns="http://www.w3.org/2000/svg">
<g id="returned">
<g id="Group 1171275395">
<g id="Group 1171275284">
<circle id="Ellipse 2652" cx="36" cy="35.9998" r="15" fill="#22885E"/>
<g id="Group">
<g id="Vector">
<mask id="path-2-outside-1_6356_46835" maskUnits="userSpaceOnUse" x="17.9004" y="18.0742" width="36" height="36" fill="black">
<rect fill="white" x="17.9004" y="18.0742" width="36" height="36"/>
<path d="M34.688 18.8127C29.1992 19.3629 24.5481 22.1261 21.6849 26.5521C19.9345 29.2403 19.0593 31.9659 18.9217 35.2417C18.7842 38.1424 19.3093 40.7306 20.5596 43.3437C21.4098 45.1066 22.2725 46.3694 23.6104 47.7823C26.0234 50.3079 29.0117 51.9833 32.5125 52.7585C34.2254 53.1461 37.5762 53.1836 39.2892 52.8335C46.3409 51.4081 51.6922 45.9818 52.9675 38.9426C53.255 37.3672 53.2425 34.429 52.955 32.8662C51.6171 25.8645 46.2533 20.4381 39.3642 19.1003C38.1764 18.8753 35.6508 18.7127 34.688 18.8127ZM38.8641 21.6884C46.816 23.3263 51.9547 31.1282 50.2543 38.9926C48.6289 46.5195 41.3147 51.5332 33.7503 50.3079C30.7121 49.8078 28.0114 48.4199 25.7984 46.1944C19.2843 39.6928 20.3471 29.0652 28.0239 23.8515C29.6993 22.7137 32.1499 21.7885 34.313 21.5009C35.4257 21.3509 37.6513 21.4384 38.8641 21.6884Z"/>
</mask>
<path d="M34.688 18.8127C29.1992 19.3629 24.5481 22.1261 21.6849 26.5521C19.9345 29.2403 19.0593 31.9659 18.9217 35.2417C18.7842 38.1424 19.3093 40.7306 20.5596 43.3437C21.4098 45.1066 22.2725 46.3694 23.6104 47.7823C26.0234 50.3079 29.0117 51.9833 32.5125 52.7585C34.2254 53.1461 37.5762 53.1836 39.2892 52.8335C46.3409 51.4081 51.6922 45.9818 52.9675 38.9426C53.255 37.3672 53.2425 34.429 52.955 32.8662C51.6171 25.8645 46.2533 20.4381 39.3642 19.1003C38.1764 18.8753 35.6508 18.7127 34.688 18.8127ZM38.8641 21.6884C46.816 23.3263 51.9547 31.1282 50.2543 38.9926C48.6289 46.5195 41.3147 51.5332 33.7503 50.3079C30.7121 49.8078 28.0114 48.4199 25.7984 46.1944C19.2843 39.6928 20.3471 29.0652 28.0239 23.8515C29.6993 22.7137 32.1499 21.7885 34.313 21.5009C35.4257 21.3509 37.6513 21.4384 38.8641 21.6884Z" fill="#0B2D1F"/>
<path d="M34.688 18.8127C29.1992 19.3629 24.5481 22.1261 21.6849 26.5521C19.9345 29.2403 19.0593 31.9659 18.9217 35.2417C18.7842 38.1424 19.3093 40.7306 20.5596 43.3437C21.4098 45.1066 22.2725 46.3694 23.6104 47.7823C26.0234 50.3079 29.0117 51.9833 32.5125 52.7585C34.2254 53.1461 37.5762 53.1836 39.2892 52.8335C46.3409 51.4081 51.6922 45.9818 52.9675 38.9426C53.255 37.3672 53.2425 34.429 52.955 32.8662C51.6171 25.8645 46.2533 20.4381 39.3642 19.1003C38.1764 18.8753 35.6508 18.7127 34.688 18.8127ZM38.8641 21.6884C46.816 23.3263 51.9547 31.1282 50.2543 38.9926C48.6289 46.5195 41.3147 51.5332 33.7503 50.3079C30.7121 49.8078 28.0114 48.4199 25.7984 46.1944C19.2843 39.6928 20.3471 29.0652 28.0239 23.8515C29.6993 22.7137 32.1499 21.7885 34.313 21.5009C35.4257 21.3509 37.6513 21.4384 38.8641 21.6884Z" stroke="#0B2D1F" mask="url(#path-2-outside-1_6356_46835)"/>
</g>
<g id="Vector_2">
<mask id="path-3-outside-2_6356_46835" maskUnits="userSpaceOnUse" x="29.562" y="24.1196" width="13" height="24" fill="black">
<rect fill="white" x="29.562" y="24.1196" width="13" height="24"/>
<path d="M35.4132 24.8642C34.9256 25.0643 34.7005 25.5644 34.7255 26.4271L34.7505 27.2148L34.0879 27.4274C32.7125 27.865 31.4997 28.9402 30.8996 30.2155C30.5995 30.8407 30.562 31.0907 30.562 32.1785C30.562 33.3163 30.5995 33.5038 30.9621 34.2665C31.8373 36.1045 33.4252 37.0922 35.9508 37.3548C37.3512 37.5048 38.0638 37.8424 38.5765 38.6176C39.0391 39.3177 39.0891 40.0429 38.7265 40.7431C38.0263 42.0934 36.0884 42.7311 34.7505 42.0434C34.5755 41.9559 34.1129 41.6308 33.7003 41.3182C33.1001 40.8431 32.8751 40.7431 32.4375 40.7431C31.4497 40.7431 30.8871 41.6808 31.3372 42.581C31.7123 43.3562 33.2377 44.394 34.6005 44.8191C34.688 44.8441 34.7505 45.0816 34.7505 45.4192C34.7505 46.532 35.2131 47.1196 36.1009 47.1196C36.5385 47.1196 36.7135 47.0446 37.0136 46.757C37.3387 46.4195 37.3762 46.3069 37.3762 45.5693C37.3762 44.8441 37.4012 44.7441 37.6137 44.7441C37.7387 44.7441 38.2389 44.544 38.714 44.3064C39.7767 43.7813 40.752 42.7811 41.2271 41.7808C41.5022 41.1557 41.5522 40.8806 41.5522 39.8679C41.5647 38.8301 41.5147 38.5926 41.2146 37.9424C40.7645 36.9547 40.1518 36.242 39.3516 35.7169C38.3889 35.0792 37.7387 34.8667 36.4384 34.7416C35.7758 34.6916 35.0381 34.5291 34.7255 34.3915C32.65 33.4663 32.5875 31.1033 34.6255 30.0405C34.9256 29.8905 35.3382 29.8154 35.9383 29.8029C36.9761 29.8029 38.0888 30.253 38.764 30.9407C39.7892 31.991 41.3146 31.3158 41.0896 29.903C40.952 29.1028 39.7267 28.09 38.2139 27.5524L37.4387 27.2648L37.3136 26.3146C37.2136 25.6394 37.1011 25.2893 36.9261 25.1018C36.626 24.8142 35.8258 24.6767 35.4132 24.8642Z"/>
</mask>
<path d="M35.4132 24.8642C34.9256 25.0643 34.7005 25.5644 34.7255 26.4271L34.7505 27.2148L34.0879 27.4274C32.7125 27.865 31.4997 28.9402 30.8996 30.2155C30.5995 30.8407 30.562 31.0907 30.562 32.1785C30.562 33.3163 30.5995 33.5038 30.9621 34.2665C31.8373 36.1045 33.4252 37.0922 35.9508 37.3548C37.3512 37.5048 38.0638 37.8424 38.5765 38.6176C39.0391 39.3177 39.0891 40.0429 38.7265 40.7431C38.0263 42.0934 36.0884 42.7311 34.7505 42.0434C34.5755 41.9559 34.1129 41.6308 33.7003 41.3182C33.1001 40.8431 32.8751 40.7431 32.4375 40.7431C31.4497 40.7431 30.8871 41.6808 31.3372 42.581C31.7123 43.3562 33.2377 44.394 34.6005 44.8191C34.688 44.8441 34.7505 45.0816 34.7505 45.4192C34.7505 46.532 35.2131 47.1196 36.1009 47.1196C36.5385 47.1196 36.7135 47.0446 37.0136 46.757C37.3387 46.4195 37.3762 46.3069 37.3762 45.5693C37.3762 44.8441 37.4012 44.7441 37.6137 44.7441C37.7387 44.7441 38.2389 44.544 38.714 44.3064C39.7767 43.7813 40.752 42.7811 41.2271 41.7808C41.5022 41.1557 41.5522 40.8806 41.5522 39.8679C41.5647 38.8301 41.5147 38.5926 41.2146 37.9424C40.7645 36.9547 40.1518 36.242 39.3516 35.7169C38.3889 35.0792 37.7387 34.8667 36.4384 34.7416C35.7758 34.6916 35.0381 34.5291 34.7255 34.3915C32.65 33.4663 32.5875 31.1033 34.6255 30.0405C34.9256 29.8905 35.3382 29.8154 35.9383 29.8029C36.9761 29.8029 38.0888 30.253 38.764 30.9407C39.7892 31.991 41.3146 31.3158 41.0896 29.903C40.952 29.1028 39.7267 28.09 38.2139 27.5524L37.4387 27.2648L37.3136 26.3146C37.2136 25.6394 37.1011 25.2893 36.9261 25.1018C36.626 24.8142 35.8258 24.6767 35.4132 24.8642Z" fill="#0B2D1F"/>
<path d="M35.4132 24.8642C34.9256 25.0643 34.7005 25.5644 34.7255 26.4271L34.7505 27.2148L34.0879 27.4274C32.7125 27.865 31.4997 28.9402 30.8996 30.2155C30.5995 30.8407 30.562 31.0907 30.562 32.1785C30.562 33.3163 30.5995 33.5038 30.9621 34.2665C31.8373 36.1045 33.4252 37.0922 35.9508 37.3548C37.3512 37.5048 38.0638 37.8424 38.5765 38.6176C39.0391 39.3177 39.0891 40.0429 38.7265 40.7431C38.0263 42.0934 36.0884 42.7311 34.7505 42.0434C34.5755 41.9559 34.1129 41.6308 33.7003 41.3182C33.1001 40.8431 32.8751 40.7431 32.4375 40.7431C31.4497 40.7431 30.8871 41.6808 31.3372 42.581C31.7123 43.3562 33.2377 44.394 34.6005 44.8191C34.688 44.8441 34.7505 45.0816 34.7505 45.4192C34.7505 46.532 35.2131 47.1196 36.1009 47.1196C36.5385 47.1196 36.7135 47.0446 37.0136 46.757C37.3387 46.4195 37.3762 46.3069 37.3762 45.5693C37.3762 44.8441 37.4012 44.7441 37.6137 44.7441C37.7387 44.7441 38.2389 44.544 38.714 44.3064C39.7767 43.7813 40.752 42.7811 41.2271 41.7808C41.5022 41.1557 41.5522 40.8806 41.5522 39.8679C41.5647 38.8301 41.5147 38.5926 41.2146 37.9424C40.7645 36.9547 40.1518 36.242 39.3516 35.7169C38.3889 35.0792 37.7387 34.8667 36.4384 34.7416C35.7758 34.6916 35.0381 34.5291 34.7255 34.3915C32.65 33.4663 32.5875 31.1033 34.6255 30.0405C34.9256 29.8905 35.3382 29.8154 35.9383 29.8029C36.9761 29.8029 38.0888 30.253 38.764 30.9407C39.7892 31.991 41.3146 31.3158 41.0896 29.903C40.952 29.1028 39.7267 28.09 38.2139 27.5524L37.4387 27.2648L37.3136 26.3146C37.2136 25.6394 37.1011 25.2893 36.9261 25.1018C36.626 24.8142 35.8258 24.6767 35.4132 24.8642Z" stroke="#0B2D1F" stroke-width="0.6" mask="url(#path-3-outside-2_6356_46835)"/>
</g>
</g>
</g>
<g id="Group_2">
<path id="Vector_3" d="M11.0406 4.24006C10.7934 4.35715 10.4681 4.63037 10.325 4.82552C10.0518 5.18981 10.0518 5.35894 10.0128 11.9292L9.97372 18.6555L10.273 19.0979C10.4421 19.3451 10.7804 19.6573 11.0276 19.8004C11.4699 20.0607 11.6651 20.0737 18.0532 20.0737C24.5844 20.0737 24.6234 20.0737 25.0788 19.7874C26.0936 19.1499 26.3798 17.7448 25.6772 16.8211C25.0527 16.0014 24.8836 15.9754 20.5642 15.9754L16.6871 15.9624L17.4677 15.2338C17.897 14.8305 18.7817 14.1149 19.4192 13.6465C23.2833 10.7843 27.5247 9.02787 32.2475 8.36434C34.199 8.09112 37.8029 8.09112 39.7544 8.36434C52.1793 10.1207 61.859 19.8135 63.6545 32.2904C63.9277 34.1509 63.9277 37.8718 63.6545 39.7323C62.3404 48.8786 56.772 56.6848 48.6015 60.8611C42.8119 63.8275 36.0725 64.6472 29.6974 63.177C24.7275 62.0321 19.9527 59.3519 16.2707 55.631C11.3008 50.622 8.59463 44.5462 8.16528 37.3905C8.04819 35.6471 7.99615 35.2568 7.74895 34.8664C7.44971 34.3721 6.64307 33.9427 6.03159 33.9297C5.38107 33.9297 4.60045 34.3981 4.26218 34.9835C3.97595 35.504 3.96294 35.595 4.041 37.5596C4.40529 47.1612 9.41428 56.3726 17.3506 62.0581C21.3318 64.9074 25.9374 66.8069 30.8684 67.6395C32.885 67.9778 36.9312 68.1079 39.0519 67.8998C48.3933 66.989 56.7069 62.1622 62.1843 54.4731C64.9945 50.5179 66.855 45.9122 67.7137 40.7601C68.052 38.7045 68.052 33.3052 67.7137 31.2626C66.5298 24.1589 63.5374 18.2522 58.6455 13.3733C53.8056 8.53347 47.8339 5.50206 40.8213 4.31812C38.9218 4.00587 34.6284 3.92781 32.4686 4.18801C25.9504 4.94262 20.0307 7.50566 15.2299 11.656L14.1631 12.5797L14.124 9.04088C14.085 5.74926 14.072 5.47604 13.8118 5.0467C13.2393 4.07092 12.0424 3.71964 11.0406 4.24006Z" fill="#0B2D1F"/>
</g>
</g>
</g>
</svg>
