<svg width="72" height="72" viewBox="0 0 72 72" fill="none" xmlns="http://www.w3.org/2000/svg">
<g id="return-cash-advance">
<g id="Group 1171275396">
<g id="Group 1171275395">
<g id="Group 1171275284">
<circle id="Ellipse 2652" cx="40.0116" cy="24.0114" r="10.3178" fill="#22885E"/>
<g id="Group">
<g id="Vector">
<mask id="path-2-outside-1_6356_46820" maskUnits="userSpaceOnUse" x="27.249" y="11.7554" width="25" height="25" fill="black">
<rect fill="white" x="27.249" y="11.7554" width="25" height="25"/>
<path d="M39.1086 12.1886C35.3331 12.567 32.1338 14.4677 30.1643 17.5121C28.9603 19.3612 28.3583 21.236 28.2637 23.4893C28.1691 25.4845 28.5303 27.2648 29.3903 29.0622C29.9751 30.2749 30.5686 31.1435 31.4888 32.1153C33.1486 33.8525 35.2041 35.005 37.6121 35.5382C38.7904 35.8048 41.0952 35.8306 42.2734 35.5898C47.124 34.6094 50.8049 30.8769 51.6821 26.035C51.8799 24.9513 51.8713 22.9303 51.6735 21.8552C50.7533 17.0391 47.0638 13.3066 42.325 12.3864C41.508 12.2316 39.7708 12.1198 39.1086 12.1886ZM41.981 14.1667C47.4508 15.2933 50.9855 20.6598 49.8158 26.0694C48.6978 31.2467 43.6667 34.6954 38.4636 33.8525C36.3737 33.5085 34.5161 32.5539 32.9938 31.0231C28.5131 26.551 29.2441 19.2408 34.5247 15.6545C35.6771 14.8719 37.3627 14.2355 38.8506 14.0377C39.616 13.9345 41.1468 13.9947 41.981 14.1667Z"/>
</mask>
<path d="M39.1086 12.1886C35.3331 12.567 32.1338 14.4677 30.1643 17.5121C28.9603 19.3612 28.3583 21.236 28.2637 23.4893C28.1691 25.4845 28.5303 27.2648 29.3903 29.0622C29.9751 30.2749 30.5686 31.1435 31.4888 32.1153C33.1486 33.8525 35.2041 35.005 37.6121 35.5382C38.7904 35.8048 41.0952 35.8306 42.2734 35.5898C47.124 34.6094 50.8049 30.8769 51.6821 26.035C51.8799 24.9513 51.8713 22.9303 51.6735 21.8552C50.7533 17.0391 47.0638 13.3066 42.325 12.3864C41.508 12.2316 39.7708 12.1198 39.1086 12.1886ZM41.981 14.1667C47.4508 15.2933 50.9855 20.6598 49.8158 26.0694C48.6978 31.2467 43.6667 34.6954 38.4636 33.8525C36.3737 33.5085 34.5161 32.5539 32.9938 31.0231C28.5131 26.551 29.2441 19.2408 34.5247 15.6545C35.6771 14.8719 37.3627 14.2355 38.8506 14.0377C39.616 13.9345 41.1468 13.9947 41.981 14.1667Z" fill="#0B2D1F"/>
<path d="M39.1086 12.1886C35.3331 12.567 32.1338 14.4677 30.1643 17.5121C28.9603 19.3612 28.3583 21.236 28.2637 23.4893C28.1691 25.4845 28.5303 27.2648 29.3903 29.0622C29.9751 30.2749 30.5686 31.1435 31.4888 32.1153C33.1486 33.8525 35.2041 35.005 37.6121 35.5382C38.7904 35.8048 41.0952 35.8306 42.2734 35.5898C47.124 34.6094 50.8049 30.8769 51.6821 26.035C51.8799 24.9513 51.8713 22.9303 51.6735 21.8552C50.7533 17.0391 47.0638 13.3066 42.325 12.3864C41.508 12.2316 39.7708 12.1198 39.1086 12.1886ZM41.981 14.1667C47.4508 15.2933 50.9855 20.6598 49.8158 26.0694C48.6978 31.2467 43.6667 34.6954 38.4636 33.8525C36.3737 33.5085 34.5161 32.5539 32.9938 31.0231C28.5131 26.551 29.2441 19.2408 34.5247 15.6545C35.6771 14.8719 37.3627 14.2355 38.8506 14.0377C39.616 13.9345 41.1468 13.9947 41.981 14.1667Z" stroke="#0B2D1F" stroke-width="0.68785" mask="url(#path-2-outside-1_6356_46820)"/>
</g>
<g id="Vector_2">
<mask id="path-3-outside-2_6356_46820" maskUnits="userSpaceOnUse" x="35.2705" y="15.6602" width="9" height="17" fill="black">
<rect fill="white" x="35.2705" y="15.6602" width="9" height="17"/>
<path d="M39.6074 16.3518C39.272 16.4894 39.1172 16.8334 39.1344 17.4268L39.1516 17.9686L38.6958 18.1148C37.7497 18.4158 36.9155 19.1554 36.5027 20.0327C36.2963 20.4627 36.2705 20.6347 36.2705 21.3829C36.2705 22.1655 36.2963 22.2945 36.5457 22.8191C37.1477 24.0834 38.24 24.7628 39.9772 24.9434C40.9404 25.0466 41.4306 25.2788 41.7832 25.812C42.1015 26.2936 42.1359 26.7924 41.8864 27.274C41.4048 28.2029 40.0718 28.6415 39.1516 28.1685C39.0312 28.1083 38.713 27.8847 38.4292 27.6697C38.0164 27.3428 37.8615 27.274 37.5605 27.274C36.8811 27.274 36.4941 27.9191 36.8037 28.5383C37.0617 29.0715 38.111 29.7853 39.0484 30.0777C39.1086 30.0949 39.1516 30.2583 39.1516 30.4905C39.1516 31.2559 39.4698 31.6602 40.0804 31.6602C40.3814 31.6602 40.5018 31.6086 40.7082 31.4108C40.9318 31.1785 40.9576 31.1011 40.9576 30.5937C40.9576 30.0949 40.9748 30.0261 41.121 30.0261C41.207 30.0261 41.551 29.8885 41.8778 29.7251C42.6089 29.3639 43.2797 28.6759 43.6065 27.9879C43.7957 27.5579 43.8301 27.3686 43.8301 26.672C43.8387 25.9582 43.8043 25.7948 43.5979 25.3476C43.2883 24.6682 42.8669 24.178 42.3165 23.8168C41.6542 23.3782 41.207 23.2319 40.3126 23.1459C39.8568 23.1115 39.3494 22.9997 39.1344 22.9051C37.7067 22.2687 37.6637 20.6433 39.0656 19.9123C39.272 19.8091 39.5558 19.7575 39.9686 19.7489C40.6824 19.7489 41.4478 20.0585 41.9122 20.5315C42.6175 21.2539 43.6667 20.7895 43.5119 19.8177C43.4173 19.2673 42.5745 18.5706 41.5338 18.2008L41.0006 18.003L40.9146 17.3494C40.8458 16.885 40.7684 16.6442 40.648 16.5152C40.4416 16.3174 39.8912 16.2228 39.6074 16.3518Z"/>
</mask>
<path d="M39.6074 16.3518C39.272 16.4894 39.1172 16.8334 39.1344 17.4268L39.1516 17.9686L38.6958 18.1148C37.7497 18.4158 36.9155 19.1554 36.5027 20.0327C36.2963 20.4627 36.2705 20.6347 36.2705 21.3829C36.2705 22.1655 36.2963 22.2945 36.5457 22.8191C37.1477 24.0834 38.24 24.7628 39.9772 24.9434C40.9404 25.0466 41.4306 25.2788 41.7832 25.812C42.1015 26.2936 42.1359 26.7924 41.8864 27.274C41.4048 28.2029 40.0718 28.6415 39.1516 28.1685C39.0312 28.1083 38.713 27.8847 38.4292 27.6697C38.0164 27.3428 37.8615 27.274 37.5605 27.274C36.8811 27.274 36.4941 27.9191 36.8037 28.5383C37.0617 29.0715 38.111 29.7853 39.0484 30.0777C39.1086 30.0949 39.1516 30.2583 39.1516 30.4905C39.1516 31.2559 39.4698 31.6602 40.0804 31.6602C40.3814 31.6602 40.5018 31.6086 40.7082 31.4108C40.9318 31.1785 40.9576 31.1011 40.9576 30.5937C40.9576 30.0949 40.9748 30.0261 41.121 30.0261C41.207 30.0261 41.551 29.8885 41.8778 29.7251C42.6089 29.3639 43.2797 28.6759 43.6065 27.9879C43.7957 27.5579 43.8301 27.3686 43.8301 26.672C43.8387 25.9582 43.8043 25.7948 43.5979 25.3476C43.2883 24.6682 42.8669 24.178 42.3165 23.8168C41.6542 23.3782 41.207 23.2319 40.3126 23.1459C39.8568 23.1115 39.3494 22.9997 39.1344 22.9051C37.7067 22.2687 37.6637 20.6433 39.0656 19.9123C39.272 19.8091 39.5558 19.7575 39.9686 19.7489C40.6824 19.7489 41.4478 20.0585 41.9122 20.5315C42.6175 21.2539 43.6667 20.7895 43.5119 19.8177C43.4173 19.2673 42.5745 18.5706 41.5338 18.2008L41.0006 18.003L40.9146 17.3494C40.8458 16.885 40.7684 16.6442 40.648 16.5152C40.4416 16.3174 39.8912 16.2228 39.6074 16.3518Z" fill="#0B2D1F"/>
<path d="M39.6074 16.3518C39.272 16.4894 39.1172 16.8334 39.1344 17.4268L39.1516 17.9686L38.6958 18.1148C37.7497 18.4158 36.9155 19.1554 36.5027 20.0327C36.2963 20.4627 36.2705 20.6347 36.2705 21.3829C36.2705 22.1655 36.2963 22.2945 36.5457 22.8191C37.1477 24.0834 38.24 24.7628 39.9772 24.9434C40.9404 25.0466 41.4306 25.2788 41.7832 25.812C42.1015 26.2936 42.1359 26.7924 41.8864 27.274C41.4048 28.2029 40.0718 28.6415 39.1516 28.1685C39.0312 28.1083 38.713 27.8847 38.4292 27.6697C38.0164 27.3428 37.8615 27.274 37.5605 27.274C36.8811 27.274 36.4941 27.9191 36.8037 28.5383C37.0617 29.0715 38.111 29.7853 39.0484 30.0777C39.1086 30.0949 39.1516 30.2583 39.1516 30.4905C39.1516 31.2559 39.4698 31.6602 40.0804 31.6602C40.3814 31.6602 40.5018 31.6086 40.7082 31.4108C40.9318 31.1785 40.9576 31.1011 40.9576 30.5937C40.9576 30.0949 40.9748 30.0261 41.121 30.0261C41.207 30.0261 41.551 29.8885 41.8778 29.7251C42.6089 29.3639 43.2797 28.6759 43.6065 27.9879C43.7957 27.5579 43.8301 27.3686 43.8301 26.672C43.8387 25.9582 43.8043 25.7948 43.5979 25.3476C43.2883 24.6682 42.8669 24.178 42.3165 23.8168C41.6542 23.3782 41.207 23.2319 40.3126 23.1459C39.8568 23.1115 39.3494 22.9997 39.1344 22.9051C37.7067 22.2687 37.6637 20.6433 39.0656 19.9123C39.272 19.8091 39.5558 19.7575 39.9686 19.7489C40.6824 19.7489 41.4478 20.0585 41.9122 20.5315C42.6175 21.2539 43.6667 20.7895 43.5119 19.8177C43.4173 19.2673 42.5745 18.5706 41.5338 18.2008L41.0006 18.003L40.9146 17.3494C40.8458 16.885 40.7684 16.6442 40.648 16.5152C40.4416 16.3174 39.8912 16.2228 39.6074 16.3518Z" stroke="#0B2D1F" stroke-width="0.41271" mask="url(#path-3-outside-2_6356_46820)"/>
</g>
</g>
</g>
<g id="Group_2">
<path id="Vector_3" d="M22.8429 2.16516C22.6728 2.2457 22.4491 2.43364 22.3507 2.56787C22.1627 2.81845 22.1627 2.93479 22.1359 7.45412L22.109 12.0809L22.3149 12.3851C22.4312 12.5552 22.6639 12.7699 22.8339 12.8684C23.1382 13.0474 23.2724 13.0563 27.6665 13.0563C32.159 13.0563 32.1858 13.0563 32.499 12.8594C33.1971 12.4209 33.3939 11.4544 32.9107 10.819C32.4811 10.2552 32.3648 10.2373 29.3937 10.2373L26.7268 10.2284L27.2638 9.72722C27.5591 9.44979 28.1676 8.95759 28.6061 8.63542C31.264 6.6666 34.1815 5.45846 37.43 5.00205C38.7724 4.81412 41.2513 4.81412 42.5937 5.00205C51.1402 6.21019 57.7984 12.8773 59.0334 21.4596C59.2213 22.7393 59.2213 25.2988 59.0334 26.5785C58.1295 32.8698 54.2992 38.2393 48.6791 41.112C44.6968 43.1524 40.0611 43.7162 35.676 42.705C32.2574 41.9174 28.9731 40.0739 26.4404 37.5144C23.0218 34.069 21.1604 29.8897 20.8651 24.9677C20.7845 23.7685 20.7488 23.5 20.5787 23.2315C20.3729 22.8915 19.818 22.5961 19.3974 22.5872C18.95 22.5872 18.413 22.9094 18.1803 23.3121C17.9835 23.67 17.9745 23.7327 18.0282 25.084C18.2788 31.6885 21.7242 38.0245 27.1832 41.9353C29.9217 43.8952 33.0897 45.2018 36.4814 45.7745C37.8685 46.0072 40.6517 46.0967 42.1104 45.9535C48.536 45.3271 54.2545 42.0069 58.0221 36.7179C59.9551 33.9974 61.2348 30.8294 61.8255 27.2855C62.0582 25.8715 62.0582 22.1576 61.8255 20.7526C61.0111 15.8664 58.9528 11.8034 55.5879 8.44748C52.2588 5.11839 48.1511 3.03323 43.3275 2.21886C42.021 2.00407 39.0677 1.95038 37.5822 2.12936C33.0986 2.64842 29.0267 4.4114 25.7245 7.26619L24.9907 7.90158L24.9638 5.46741C24.937 3.20327 24.928 3.01533 24.749 2.72001C24.3553 2.04882 23.5319 1.80719 22.8429 2.16516Z" fill="#0B2D1F"/>
</g>
</g>
<g id="Group 1171275283">
<rect id="Rectangle 34624854" x="5" y="42.2837" width="7" height="25" fill="#62C89E"/>
<g id="Group 1171275282">
<g id="Group_3">
<g id="Vector_4">
<mask id="path-6-outside-3_6356_46820" maskUnits="userSpaceOnUse" x="3" y="40.157" width="66" height="30" fill="black">
<rect fill="white" x="3" y="40.157" width="66" height="30"/>
<path d="M5.5628 41.2375C5.0252 41.4751 4.31256 42.2127 4.11252 42.7128C4.05001 42.8879 4 47.7013 4 54.5151C4 65.7172 4.0125 66.0298 4.25005 66.4924C4.55011 67.0925 5.23774 67.6801 5.86286 67.8676C6.50048 68.0552 11.1264 68.0552 11.764 67.8676C12.3891 67.6801 13.0767 67.0925 13.3768 66.4924C13.5643 66.1423 13.6268 65.7672 13.6268 65.0546C13.6268 64.342 13.6644 64.1169 13.7894 64.1669C13.8644 64.2044 16.2148 65.2546 18.9904 66.4924C21.7659 67.7426 24.3789 68.8553 24.804 68.9679C25.9292 69.2679 27.7546 69.2179 32.2554 68.7678C34.4183 68.5553 39.0942 68.0927 42.6324 67.7426C49.1587 67.105 49.9838 66.98 51.2091 66.4424C52.2843 65.9673 66.8496 56.4154 67.1871 55.9529C67.7622 55.1902 67.9248 54.7151 67.9873 53.6774C68.0623 52.3647 67.8122 51.602 67.0621 50.7644C66.2244 49.8392 65.3368 49.4391 64.0615 49.4391H63.0363L57.1852 52.3397C50.709 55.5403 49.8088 55.8903 47.0333 56.3029L46.4956 56.3779L46.5707 55.9529C46.6957 55.3527 46.4206 54.19 45.9706 53.3399C45.2579 51.9896 43.7451 50.7769 42.3199 50.3893C42.0448 50.3143 39.3443 49.9767 36.3187 49.6266C32.8055 49.2266 30.5051 48.914 29.9675 48.7515C29.1173 48.4889 28.0921 47.9888 25.8167 46.7011C22.7411 44.9633 19.8155 44.2506 15.7898 44.2506H13.6268V43.638C13.6268 42.8628 13.5018 42.5253 12.9767 41.9377C12.2266 41.075 11.9265 41 8.81342 41C6.42547 41 6.00038 41.0375 5.5628 41.2375ZM11.4139 43.2254C11.6015 43.4255 11.6265 44.1506 11.6515 49.8517C11.689 56.1904 11.6265 62.0094 11.889 62.272C12.2266 62.597 12.9767 62.622 13.3268 62.3095C13.5518 62.1094 13.6268 56.1279 13.6268 51.277V46.226L16.2899 46.2885C19.0904 46.3635 20.0656 46.5135 21.9409 47.1637C23.2912 47.6388 23.9413 47.9513 25.5666 48.8765C27.567 50.0267 28.5047 50.4518 29.6549 50.7394C30.18 50.8769 33.1056 51.277 36.1562 51.627C42.2573 52.3272 42.5199 52.3897 43.4451 53.3149C44.0827 53.9525 44.5578 55.0277 44.5453 55.7903C44.5453 56.1154 44.5203 56.4154 44.4953 56.4405C44.4703 56.4655 41.5197 56.6655 37.944 56.878C34.3683 57.0906 31.3177 57.2906 31.1552 57.3281C30.4301 57.4782 30.155 58.3158 30.6426 58.9284C30.8552 59.2035 30.9927 59.2535 31.5303 59.2535C32.643 59.2535 46.2831 58.3908 47.4458 58.2408C50.2964 57.8907 51.6091 57.3906 58.1854 54.1025C63.2989 51.552 63.7365 51.352 64.2241 51.4145C64.8492 51.477 65.5493 51.9646 65.8369 52.5272C66.0994 53.0398 66.0244 54.1025 65.6868 54.5401C65.4493 54.8651 51.6966 63.9169 50.6089 64.467C50.2839 64.6295 49.7463 64.8421 49.4212 64.9421C49.0836 65.0421 43.8701 65.6047 37.819 66.2048C26.9044 67.2675 26.8044 67.28 25.8417 67.0925C24.8915 66.905 24.5539 66.7674 15.6272 62.7667L13.6894 61.904L13.6268 60.7538C13.5768 59.8036 13.5268 59.5786 13.3268 59.4285C12.9767 59.1785 12.3266 59.216 11.989 59.491C11.689 59.7286 11.689 59.7536 11.6515 62.6541C11.614 65.4297 11.6015 65.5797 11.3639 65.7922C11.1264 65.9798 10.8138 66.0048 8.81342 66.0048C6.75053 66.0048 6.50048 65.9798 6.23793 65.7672L5.93787 65.5297V54.5276C5.93787 43.888 5.95037 43.513 6.17542 43.2629C6.40046 43.0129 6.53799 43.0004 8.81342 43.0004C10.9638 43.0004 11.2389 43.0254 11.4139 43.2254Z"/>
</mask>
<path d="M5.5628 41.2375C5.0252 41.4751 4.31256 42.2127 4.11252 42.7128C4.05001 42.8879 4 47.7013 4 54.5151C4 65.7172 4.0125 66.0298 4.25005 66.4924C4.55011 67.0925 5.23774 67.6801 5.86286 67.8676C6.50048 68.0552 11.1264 68.0552 11.764 67.8676C12.3891 67.6801 13.0767 67.0925 13.3768 66.4924C13.5643 66.1423 13.6268 65.7672 13.6268 65.0546C13.6268 64.342 13.6644 64.1169 13.7894 64.1669C13.8644 64.2044 16.2148 65.2546 18.9904 66.4924C21.7659 67.7426 24.3789 68.8553 24.804 68.9679C25.9292 69.2679 27.7546 69.2179 32.2554 68.7678C34.4183 68.5553 39.0942 68.0927 42.6324 67.7426C49.1587 67.105 49.9838 66.98 51.2091 66.4424C52.2843 65.9673 66.8496 56.4154 67.1871 55.9529C67.7622 55.1902 67.9248 54.7151 67.9873 53.6774C68.0623 52.3647 67.8122 51.602 67.0621 50.7644C66.2244 49.8392 65.3368 49.4391 64.0615 49.4391H63.0363L57.1852 52.3397C50.709 55.5403 49.8088 55.8903 47.0333 56.3029L46.4956 56.3779L46.5707 55.9529C46.6957 55.3527 46.4206 54.19 45.9706 53.3399C45.2579 51.9896 43.7451 50.7769 42.3199 50.3893C42.0448 50.3143 39.3443 49.9767 36.3187 49.6266C32.8055 49.2266 30.5051 48.914 29.9675 48.7515C29.1173 48.4889 28.0921 47.9888 25.8167 46.7011C22.7411 44.9633 19.8155 44.2506 15.7898 44.2506H13.6268V43.638C13.6268 42.8628 13.5018 42.5253 12.9767 41.9377C12.2266 41.075 11.9265 41 8.81342 41C6.42547 41 6.00038 41.0375 5.5628 41.2375ZM11.4139 43.2254C11.6015 43.4255 11.6265 44.1506 11.6515 49.8517C11.689 56.1904 11.6265 62.0094 11.889 62.272C12.2266 62.597 12.9767 62.622 13.3268 62.3095C13.5518 62.1094 13.6268 56.1279 13.6268 51.277V46.226L16.2899 46.2885C19.0904 46.3635 20.0656 46.5135 21.9409 47.1637C23.2912 47.6388 23.9413 47.9513 25.5666 48.8765C27.567 50.0267 28.5047 50.4518 29.6549 50.7394C30.18 50.8769 33.1056 51.277 36.1562 51.627C42.2573 52.3272 42.5199 52.3897 43.4451 53.3149C44.0827 53.9525 44.5578 55.0277 44.5453 55.7903C44.5453 56.1154 44.5203 56.4154 44.4953 56.4405C44.4703 56.4655 41.5197 56.6655 37.944 56.878C34.3683 57.0906 31.3177 57.2906 31.1552 57.3281C30.4301 57.4782 30.155 58.3158 30.6426 58.9284C30.8552 59.2035 30.9927 59.2535 31.5303 59.2535C32.643 59.2535 46.2831 58.3908 47.4458 58.2408C50.2964 57.8907 51.6091 57.3906 58.1854 54.1025C63.2989 51.552 63.7365 51.352 64.2241 51.4145C64.8492 51.477 65.5493 51.9646 65.8369 52.5272C66.0994 53.0398 66.0244 54.1025 65.6868 54.5401C65.4493 54.8651 51.6966 63.9169 50.6089 64.467C50.2839 64.6295 49.7463 64.8421 49.4212 64.9421C49.0836 65.0421 43.8701 65.6047 37.819 66.2048C26.9044 67.2675 26.8044 67.28 25.8417 67.0925C24.8915 66.905 24.5539 66.7674 15.6272 62.7667L13.6894 61.904L13.6268 60.7538C13.5768 59.8036 13.5268 59.5786 13.3268 59.4285C12.9767 59.1785 12.3266 59.216 11.989 59.491C11.689 59.7286 11.689 59.7536 11.6515 62.6541C11.614 65.4297 11.6015 65.5797 11.3639 65.7922C11.1264 65.9798 10.8138 66.0048 8.81342 66.0048C6.75053 66.0048 6.50048 65.9798 6.23793 65.7672L5.93787 65.5297V54.5276C5.93787 43.888 5.95037 43.513 6.17542 43.2629C6.40046 43.0129 6.53799 43.0004 8.81342 43.0004C10.9638 43.0004 11.2389 43.0254 11.4139 43.2254Z" fill="#0B2D1F"/>
<path d="M5.5628 41.2375C5.0252 41.4751 4.31256 42.2127 4.11252 42.7128C4.05001 42.8879 4 47.7013 4 54.5151C4 65.7172 4.0125 66.0298 4.25005 66.4924C4.55011 67.0925 5.23774 67.6801 5.86286 67.8676C6.50048 68.0552 11.1264 68.0552 11.764 67.8676C12.3891 67.6801 13.0767 67.0925 13.3768 66.4924C13.5643 66.1423 13.6268 65.7672 13.6268 65.0546C13.6268 64.342 13.6644 64.1169 13.7894 64.1669C13.8644 64.2044 16.2148 65.2546 18.9904 66.4924C21.7659 67.7426 24.3789 68.8553 24.804 68.9679C25.9292 69.2679 27.7546 69.2179 32.2554 68.7678C34.4183 68.5553 39.0942 68.0927 42.6324 67.7426C49.1587 67.105 49.9838 66.98 51.2091 66.4424C52.2843 65.9673 66.8496 56.4154 67.1871 55.9529C67.7622 55.1902 67.9248 54.7151 67.9873 53.6774C68.0623 52.3647 67.8122 51.602 67.0621 50.7644C66.2244 49.8392 65.3368 49.4391 64.0615 49.4391H63.0363L57.1852 52.3397C50.709 55.5403 49.8088 55.8903 47.0333 56.3029L46.4956 56.3779L46.5707 55.9529C46.6957 55.3527 46.4206 54.19 45.9706 53.3399C45.2579 51.9896 43.7451 50.7769 42.3199 50.3893C42.0448 50.3143 39.3443 49.9767 36.3187 49.6266C32.8055 49.2266 30.5051 48.914 29.9675 48.7515C29.1173 48.4889 28.0921 47.9888 25.8167 46.7011C22.7411 44.9633 19.8155 44.2506 15.7898 44.2506H13.6268V43.638C13.6268 42.8628 13.5018 42.5253 12.9767 41.9377C12.2266 41.075 11.9265 41 8.81342 41C6.42547 41 6.00038 41.0375 5.5628 41.2375ZM11.4139 43.2254C11.6015 43.4255 11.6265 44.1506 11.6515 49.8517C11.689 56.1904 11.6265 62.0094 11.889 62.272C12.2266 62.597 12.9767 62.622 13.3268 62.3095C13.5518 62.1094 13.6268 56.1279 13.6268 51.277V46.226L16.2899 46.2885C19.0904 46.3635 20.0656 46.5135 21.9409 47.1637C23.2912 47.6388 23.9413 47.9513 25.5666 48.8765C27.567 50.0267 28.5047 50.4518 29.6549 50.7394C30.18 50.8769 33.1056 51.277 36.1562 51.627C42.2573 52.3272 42.5199 52.3897 43.4451 53.3149C44.0827 53.9525 44.5578 55.0277 44.5453 55.7903C44.5453 56.1154 44.5203 56.4154 44.4953 56.4405C44.4703 56.4655 41.5197 56.6655 37.944 56.878C34.3683 57.0906 31.3177 57.2906 31.1552 57.3281C30.4301 57.4782 30.155 58.3158 30.6426 58.9284C30.8552 59.2035 30.9927 59.2535 31.5303 59.2535C32.643 59.2535 46.2831 58.3908 47.4458 58.2408C50.2964 57.8907 51.6091 57.3906 58.1854 54.1025C63.2989 51.552 63.7365 51.352 64.2241 51.4145C64.8492 51.477 65.5493 51.9646 65.8369 52.5272C66.0994 53.0398 66.0244 54.1025 65.6868 54.5401C65.4493 54.8651 51.6966 63.9169 50.6089 64.467C50.2839 64.6295 49.7463 64.8421 49.4212 64.9421C49.0836 65.0421 43.8701 65.6047 37.819 66.2048C26.9044 67.2675 26.8044 67.28 25.8417 67.0925C24.8915 66.905 24.5539 66.7674 15.6272 62.7667L13.6894 61.904L13.6268 60.7538C13.5768 59.8036 13.5268 59.5786 13.3268 59.4285C12.9767 59.1785 12.3266 59.216 11.989 59.491C11.689 59.7286 11.689 59.7536 11.6515 62.6541C11.614 65.4297 11.6015 65.5797 11.3639 65.7922C11.1264 65.9798 10.8138 66.0048 8.81342 66.0048C6.75053 66.0048 6.50048 65.9798 6.23793 65.7672L5.93787 65.5297V54.5276C5.93787 43.888 5.95037 43.513 6.17542 43.2629C6.40046 43.0129 6.53799 43.0004 8.81342 43.0004C10.9638 43.0004 11.2389 43.0254 11.4139 43.2254Z" stroke="#0B2D1F" mask="url(#path-6-outside-3_6356_46820)"/>
</g>
</g>
</g>
</g>
</g>
</g>
</svg>
