<svg width="72" height="72" viewBox="0 0 72 72" fill="none" xmlns="http://www.w3.org/2000/svg">
<g id="travel">
<g id="Group 1171275384">
<g id="Group">
<g id="Vector">
<mask id="path-1-outside-1_6356_46763" maskUnits="userSpaceOnUse" x="9" y="3" width="55" height="66" fill="black">
<rect fill="white" x="9" y="3" width="55" height="66"/>
<path d="M26.9317 4.26279C25.7018 4.76347 24.8512 5.46444 24.3017 6.47832C24.1316 6.79125 23.5558 8.38092 23.0194 10.0081L22.038 12.9872H18.1649C15.0246 12.9872 14.161 13.0248 13.5852 13.1875C12.1721 13.588 10.9814 14.5644 10.3402 15.8536L10 16.5546V40.5249V64.4952L10.3664 65.2462C10.8243 66.1975 11.7403 67.0988 12.7478 67.5995L13.5329 68H30.0197H46.5066L47.3702 67.5995C48.43 67.0988 49.202 66.3227 49.7516 65.2087L50.1703 64.37L50.2096 59.8013L50.2488 55.2325L56.3594 37.0201L62.4569 18.8077V17.556C62.47 16.4044 62.4308 16.2417 62.0644 15.4907C61.6195 14.6019 60.8213 13.7633 59.997 13.3002C59.696 13.1374 52.8658 10.997 44.8055 8.53113C30.3207 4.10006 30.1375 4.05 28.9075 4.01245C27.8346 3.9749 27.5598 4.01244 26.9317 4.26279ZM40.8278 9.29467C60.7297 15.378 58.9764 14.8022 59.6568 15.4781C60.2849 16.0915 60.5727 16.7424 60.5727 17.5685C60.5858 17.8814 58.7016 23.7269 55.4435 33.4903L50.3012 48.9114L50.2357 32.8644L50.1703 16.805L49.8825 16.129C49.3067 14.7772 48.5478 14.0261 47.1346 13.3878L46.3757 13.0498L35.2406 12.9872L24.1054 12.9246L24.9952 10.246C25.4924 8.76896 26.042 7.35452 26.2251 7.09166C26.7747 6.29056 28.0832 5.68974 29.0515 5.78988C29.3001 5.82743 34.5994 7.40459 40.8278 9.29467ZM46.0617 14.99C46.6767 15.1527 47.5534 15.8912 47.9197 16.5421L48.2076 17.0553L48.2469 40.3371C48.273 65.6593 48.3254 64.1447 47.5664 65.096C47.3833 65.3339 46.9122 65.6843 46.5458 65.8846L45.8523 66.2476L30.3599 66.2852C12.774 66.3227 13.9254 66.3853 12.8263 65.3339C12.4599 64.9709 12.159 64.5453 12.0543 64.2323C11.9365 63.8318 11.8973 58.4244 11.8973 40.4748C11.8973 19.8967 11.9235 17.1805 12.0936 16.7799C12.4207 16.0289 12.8917 15.5407 13.6245 15.1902L14.3049 14.8648H29.9412C39.8726 14.8648 45.7607 14.9149 46.0617 14.99Z"/>
<path d="M40.8278 9.29467C60.7297 15.378 58.9764 14.8022 59.6568 15.4781C60.2849 16.0915 60.5727 16.7424 60.5727 17.5685C60.5858 17.8814 58.7016 23.7269 55.4435 33.4903L50.3012 48.9114L50.2357 32.8644L50.1703 16.805L49.8825 16.129C49.3067 14.7772 48.5478 14.0261 47.1346 13.3878L46.3757 13.0498L35.2406 12.9872L24.1054 12.9246L24.9952 10.246C25.4924 8.76896 26.042 7.35452 26.2251 7.09166C26.7747 6.29056 28.0832 5.68974 29.0515 5.78988C29.3001 5.82743 34.5994 7.40459 40.8278 9.29467Z"/>
</mask>
<path d="M26.9317 4.26279C25.7018 4.76347 24.8512 5.46444 24.3017 6.47832C24.1316 6.79125 23.5558 8.38092 23.0194 10.0081L22.038 12.9872H18.1649C15.0246 12.9872 14.161 13.0248 13.5852 13.1875C12.1721 13.588 10.9814 14.5644 10.3402 15.8536L10 16.5546V40.5249V64.4952L10.3664 65.2462C10.8243 66.1975 11.7403 67.0988 12.7478 67.5995L13.5329 68H30.0197H46.5066L47.3702 67.5995C48.43 67.0988 49.202 66.3227 49.7516 65.2087L50.1703 64.37L50.2096 59.8013L50.2488 55.2325L56.3594 37.0201L62.4569 18.8077V17.556C62.47 16.4044 62.4308 16.2417 62.0644 15.4907C61.6195 14.6019 60.8213 13.7633 59.997 13.3002C59.696 13.1374 52.8658 10.997 44.8055 8.53113C30.3207 4.10006 30.1375 4.05 28.9075 4.01245C27.8346 3.9749 27.5598 4.01244 26.9317 4.26279ZM40.8278 9.29467C60.7297 15.378 58.9764 14.8022 59.6568 15.4781C60.2849 16.0915 60.5727 16.7424 60.5727 17.5685C60.5858 17.8814 58.7016 23.7269 55.4435 33.4903L50.3012 48.9114L50.2357 32.8644L50.1703 16.805L49.8825 16.129C49.3067 14.7772 48.5478 14.0261 47.1346 13.3878L46.3757 13.0498L35.2406 12.9872L24.1054 12.9246L24.9952 10.246C25.4924 8.76896 26.042 7.35452 26.2251 7.09166C26.7747 6.29056 28.0832 5.68974 29.0515 5.78988C29.3001 5.82743 34.5994 7.40459 40.8278 9.29467ZM46.0617 14.99C46.6767 15.1527 47.5534 15.8912 47.9197 16.5421L48.2076 17.0553L48.2469 40.3371C48.273 65.6593 48.3254 64.1447 47.5664 65.096C47.3833 65.3339 46.9122 65.6843 46.5458 65.8846L45.8523 66.2476L30.3599 66.2852C12.774 66.3227 13.9254 66.3853 12.8263 65.3339C12.4599 64.9709 12.159 64.5453 12.0543 64.2323C11.9365 63.8318 11.8973 58.4244 11.8973 40.4748C11.8973 19.8967 11.9235 17.1805 12.0936 16.7799C12.4207 16.0289 12.8917 15.5407 13.6245 15.1902L14.3049 14.8648H29.9412C39.8726 14.8648 45.7607 14.9149 46.0617 14.99Z" fill="#0B2D1F"/>
<path d="M40.8278 9.29467C60.7297 15.378 58.9764 14.8022 59.6568 15.4781C60.2849 16.0915 60.5727 16.7424 60.5727 17.5685C60.5858 17.8814 58.7016 23.7269 55.4435 33.4903L50.3012 48.9114L50.2357 32.8644L50.1703 16.805L49.8825 16.129C49.3067 14.7772 48.5478 14.0261 47.1346 13.3878L46.3757 13.0498L35.2406 12.9872L24.1054 12.9246L24.9952 10.246C25.4924 8.76896 26.042 7.35452 26.2251 7.09166C26.7747 6.29056 28.0832 5.68974 29.0515 5.78988C29.3001 5.82743 34.5994 7.40459 40.8278 9.29467Z" fill="#22885E"/>
<path d="M40.8278 9.29467L40.9149 9.0076L40.9155 9.00778L40.8278 9.29467ZM59.6568 15.4781L59.4472 15.6928L59.4454 15.691L59.6568 15.4781ZM60.5727 17.5685L60.2727 17.581V17.5685H60.5727ZM55.4435 33.4903L55.1589 33.3954L55.1589 33.3953L55.4435 33.4903ZM50.3012 48.9114L50.5858 49.0063L50.0012 48.9126L50.3012 48.9114ZM50.2357 32.8644L49.9357 32.8657V32.8656L50.2357 32.8644ZM50.1703 16.805L50.4463 16.6874L50.4701 16.7431L50.4703 16.8037L50.1703 16.805ZM49.8825 16.129L50.1585 16.0115L49.8825 16.129ZM47.1346 13.3878L47.2567 13.1137L47.2581 13.1144L47.1346 13.3878ZM46.3757 13.0498L46.3774 12.7498L46.4403 12.7502L46.4978 12.7758L46.3757 13.0498ZM35.2406 12.9872L35.2423 12.6872L35.2406 12.9872ZM24.1054 12.9246L24.1037 13.2246L23.6904 13.2223L23.8207 12.8301L24.1054 12.9246ZM24.9952 10.246L24.7105 10.1514L24.7109 10.1503L24.9952 10.246ZM26.2251 7.09166L26.4725 7.26137L26.4713 7.26319L26.2251 7.09166ZM29.0515 5.78988L29.0824 5.49114L29.0963 5.49324L29.0515 5.78988ZM40.9155 9.00778C50.8634 12.0485 55.4056 13.4269 57.544 14.1292C58.6043 14.4774 59.1007 14.6675 59.3734 14.8207C59.6605 14.9821 59.7638 15.1615 59.8682 15.2653L59.4454 15.691C59.2096 15.4568 59.2769 15.4548 59.0795 15.3438C58.8676 15.2248 58.4309 15.0519 57.3568 14.6992C55.2262 13.9995 50.6941 12.6242 40.7401 9.58157L40.9155 9.00778ZM59.8664 15.2635C60.5475 15.9286 60.8727 16.6551 60.8727 17.5685H60.2727C60.2727 16.8296 60.0222 16.2543 59.4472 15.6928L59.8664 15.2635ZM60.8725 17.556C60.8742 17.5977 60.8684 17.638 60.8647 17.6613C60.8601 17.6901 60.8535 17.7224 60.8459 17.7567C60.8306 17.8256 60.8081 17.9143 60.7793 18.0205C60.7215 18.2337 60.6352 18.5291 60.5221 18.9023C60.2956 19.6494 59.9589 20.7165 59.5204 22.0775C58.6432 24.7998 57.3572 28.7032 55.7281 33.5852L55.1589 33.3953C56.7878 28.514 58.0731 24.6129 58.9493 21.8935C59.3874 20.5335 59.7229 19.4703 59.9479 18.7283C60.0604 18.3569 60.1447 18.0681 60.2002 17.8635C60.228 17.7609 60.2478 17.6823 60.2602 17.6265C60.2665 17.5984 60.2702 17.5789 60.2722 17.5667C60.275 17.5489 60.2721 17.5588 60.273 17.581L60.8725 17.556ZM55.7281 33.5852L50.5858 49.0063L50.0166 48.8165L55.1589 33.3954L55.7281 33.5852ZM50.0012 48.9126L49.9357 32.8657L50.5357 32.8632L50.6012 48.9102L50.0012 48.9126ZM49.9357 32.8656L49.8703 16.8062L50.4703 16.8037L50.5357 32.8632L49.9357 32.8656ZM49.8943 16.9225L49.6064 16.2466L50.1585 16.0115L50.4463 16.6874L49.8943 16.9225ZM49.6064 16.2466C49.3298 15.5971 49.0157 15.1065 48.6109 14.7034C48.2053 14.2995 47.6958 13.9705 47.0111 13.6612L47.2581 13.1144C47.9866 13.4435 48.5631 13.8091 49.0343 14.2783C49.5062 14.7482 49.8593 15.3091 50.1585 16.0115L49.6064 16.2466ZM47.0126 13.6618L46.2537 13.3239L46.4978 12.7758L47.2567 13.1137L47.0126 13.6618ZM46.374 13.3498L35.2389 13.2872L35.2423 12.6872L46.3774 12.7498L46.374 13.3498ZM35.2389 13.2872L24.1037 13.2246L24.1071 12.6246L35.2423 12.6872L35.2389 13.2872ZM23.8207 12.8301L24.7105 10.1514L25.2799 10.3405L24.3901 13.0192L23.8207 12.8301ZM24.7109 10.1503C24.9607 9.408 25.224 8.68068 25.4484 8.10463C25.5605 7.8168 25.6637 7.56473 25.7512 7.36655C25.8346 7.17744 25.9141 7.01333 25.979 6.92013L26.4713 7.26319C26.4446 7.30142 26.3867 7.41269 26.3 7.60887C26.2174 7.79599 26.1178 8.03913 26.0075 8.32239C25.787 8.88852 25.5268 9.60693 25.2795 10.3417L24.7109 10.1503ZM25.9778 6.92195C26.2917 6.46436 26.8056 6.0835 27.3559 5.83027C27.9063 5.577 28.5302 5.43437 29.0823 5.49147L29.0206 6.08829C28.6045 6.04525 28.09 6.15296 27.6067 6.37534C27.1233 6.59776 26.7082 6.91786 26.4725 7.26137L25.9778 6.92195ZM29.0963 5.49324C29.1506 5.50145 29.2845 5.53753 29.4539 5.58475C29.6363 5.63559 29.8893 5.70801 30.2042 5.79945C30.8342 5.9824 31.7153 6.24234 32.7828 6.56004C34.9179 7.19548 37.8003 8.06245 40.9149 9.0076L40.7407 9.58175C37.6268 8.63681 34.7455 7.77016 32.6116 7.13511C31.5446 6.81756 30.665 6.55805 30.0369 6.37565C29.7227 6.28442 29.4722 6.2127 29.2928 6.16272C29.2031 6.1377 29.1322 6.11842 29.0806 6.10496C29.0219 6.08966 29.0033 6.08601 29.0067 6.08651L29.0963 5.49324ZM26.9317 4.26279L26.7055 3.70705L26.7096 3.70543L26.9317 4.26279ZM24.3017 6.47832L24.8292 6.76424L24.8288 6.76487L24.3017 6.47832ZM23.0194 10.0081L22.4495 9.82042L22.4495 9.82028L23.0194 10.0081ZM22.038 12.9872L22.6079 13.175L22.4721 13.5872H22.038V12.9872ZM13.5852 13.1875L13.4216 12.6102L13.422 12.6101L13.5852 13.1875ZM10.3402 15.8536L9.8004 15.5917L9.80297 15.5865L10.3402 15.8536ZM10 16.5546H9.4V16.4167L9.46022 16.2926L10 16.5546ZM10 64.4952L9.46074 64.7583L9.4 64.6338V64.4952H10ZM10.3664 65.2462L10.9056 64.9832L10.907 64.986L10.3664 65.2462ZM12.7478 67.5995L13.0148 67.0621L13.0205 67.065L12.7478 67.5995ZM13.5329 68V68.6H13.3887L13.2602 68.5345L13.5329 68ZM46.5066 68L46.759 68.5443L46.6389 68.6H46.5066V68ZM47.3702 67.5995L47.6265 68.142L47.6226 68.1438L47.3702 67.5995ZM49.7516 65.2087L49.2135 64.9432L49.2148 64.9407L49.7516 65.2087ZM50.1703 64.37L50.7703 64.3752L50.7691 64.5139L50.7071 64.638L50.1703 64.37ZM50.2096 59.8013L50.8096 59.8064V59.8064L50.2096 59.8013ZM50.2488 55.2325L49.6488 55.2274L49.6497 55.1321L49.68 55.0417L50.2488 55.2325ZM56.3594 37.0201L56.9284 37.2106L56.9283 37.211L56.3594 37.0201ZM62.4569 18.8077H63.0569V18.9055L63.0259 18.9982L62.4569 18.8077ZM62.4569 17.556H61.8569L61.857 17.5492L62.4569 17.556ZM62.0644 15.4907L62.6009 15.2221L62.6036 15.2276L62.0644 15.4907ZM59.997 13.3002L60.2824 12.7723L60.2909 12.7771L59.997 13.3002ZM44.8055 8.53113L44.9811 7.95737L44.9811 7.95738L44.8055 8.53113ZM28.9075 4.01245L28.8892 4.61217L28.8865 4.61208L28.9075 4.01245ZM46.0617 14.99L46.207 14.4078L46.2152 14.4099L46.0617 14.99ZM47.9197 16.5421L48.4426 16.2478L48.443 16.2486L47.9197 16.5421ZM48.2076 17.0553L48.7309 16.7618L48.8073 16.898L48.8076 17.0543L48.2076 17.0553ZM48.2469 40.3371L48.8469 40.3361V40.3365L48.2469 40.3371ZM47.5664 65.096L47.091 64.7298L47.0974 64.7218L47.5664 65.096ZM46.5458 65.8846L46.8337 66.4112L46.8241 66.4162L46.5458 65.8846ZM45.8523 66.2476L46.1306 66.7792L46.0005 66.8472L45.8538 66.8476L45.8523 66.2476ZM30.3599 66.2852L30.3614 66.8852L30.3612 66.8852L30.3599 66.2852ZM12.8263 65.3339L12.4115 65.7675L12.404 65.7601L12.8263 65.3339ZM12.0543 64.2323L11.4853 64.4227L11.4818 64.4122L11.4787 64.4016L12.0543 64.2323ZM12.0936 16.7799L11.5413 16.5454L11.5435 16.5403L12.0936 16.7799ZM13.6245 15.1902L13.3656 14.649H13.3656L13.6245 15.1902ZM14.3049 14.8648L14.046 14.3235L14.1688 14.2648H14.3049V14.8648ZM27.1579 4.81851C26.0295 5.27785 25.2999 5.89588 24.8292 6.76424L23.7742 6.1924C24.4026 5.03299 25.374 4.24909 26.7055 3.70707L27.1579 4.81851ZM24.8288 6.76487C24.7704 6.8723 24.6008 7.29689 24.3619 7.95507C24.132 8.58868 23.8558 9.38723 23.5892 10.196L22.4495 9.82028C22.7194 9.00184 22.9994 8.19194 23.2339 7.54568C23.4595 6.92398 23.6628 6.39727 23.7745 6.19177L24.8288 6.76487ZM23.5892 10.1959L22.6079 13.175L21.4681 12.7995L22.4495 9.82042L23.5892 10.1959ZM22.038 13.5872H18.1649V12.3872H22.038V13.5872ZM18.1649 13.5872C16.5931 13.5872 15.6049 13.5967 14.9395 13.6258C14.273 13.6549 13.9685 13.7027 13.7484 13.7649L13.422 12.6101C13.7776 12.5096 14.1928 12.4572 14.8871 12.4269C15.5826 12.3965 16.5963 12.3872 18.1649 12.3872V13.5872ZM13.7489 13.7648C12.4939 14.1205 11.4413 14.987 10.8774 16.1208L9.80297 15.5865C10.5214 14.1418 11.8502 13.0556 13.4216 12.6102L13.7489 13.7648ZM10.88 16.1156L10.5398 16.8166L9.46022 16.2926L9.80042 15.5917L10.88 16.1156ZM10.6 16.5546V40.5249H9.4V16.5546H10.6ZM10.6 40.5249V64.4952H9.4V40.5249H10.6ZM10.5393 64.2321L10.9056 64.9832L9.82712 65.5093L9.46074 64.7583L10.5393 64.2321ZM10.907 64.986C11.3025 65.8075 12.1169 66.6159 13.0148 67.0621L12.4808 68.1368C11.3637 67.5816 10.3462 66.5876 9.82576 65.5065L10.907 64.986ZM13.0205 67.065L13.8056 67.4655L13.2602 68.5345L12.4751 68.1339L13.0205 67.065ZM13.5329 67.4H30.0197V68.6H13.5329V67.4ZM30.0197 67.4H46.5066V68.6H30.0197V67.4ZM46.2541 67.4557L47.1177 67.0551L47.6226 68.1438L46.759 68.5443L46.2541 67.4557ZM47.1139 67.0569C48.0432 66.6179 48.7199 65.9439 49.2135 64.9432L50.2897 65.4741C49.6842 66.7015 48.8168 67.5796 47.6265 68.142L47.1139 67.0569ZM49.2148 64.9407L49.6335 64.102L50.7071 64.638L50.2884 65.4767L49.2148 64.9407ZM49.5703 64.3649L49.6096 59.7961L50.8096 59.8064L50.7703 64.3752L49.5703 64.3649ZM49.6096 59.7961L49.6488 55.2274L50.8488 55.2377L50.8096 59.8064L49.6096 59.7961ZM49.68 55.0417L55.7906 36.8293L56.9283 37.211L50.8177 55.4234L49.68 55.0417ZM55.7905 36.8296L61.888 18.6172L63.0259 18.9982L56.9284 37.2106L55.7905 36.8296ZM61.8569 18.8077V17.556H63.0569V18.8077H61.8569ZM61.857 17.5492C61.8636 16.9639 61.8544 16.6962 61.8139 16.4873C61.7766 16.2946 61.7085 16.1296 61.5251 15.7537L62.6036 15.2276C62.7867 15.6027 62.9214 15.8946 62.992 16.259C63.0595 16.6071 63.0633 16.9965 63.0569 17.5628L61.857 17.5492ZM61.5279 15.7592C61.1352 14.9748 60.4202 14.2261 59.7031 13.8233L60.2909 12.7771C61.2225 13.3005 62.1038 14.2291 62.6009 15.2221L61.5279 15.7592ZM59.7116 13.8279C59.7383 13.8423 59.738 13.8394 59.6581 13.81C59.5961 13.7871 59.5085 13.7563 59.3947 13.7175C59.1677 13.6401 58.8481 13.5346 58.4448 13.4039C57.6389 13.1427 56.5071 12.7834 55.1314 12.3518C52.3804 11.4887 48.6592 10.3375 44.63 9.10488L44.9811 7.95738C49.0121 9.19059 52.7362 10.3426 55.4906 11.2068C56.8676 11.6389 58.0036 11.9994 58.8148 12.2623C59.2201 12.3937 59.5465 12.5014 59.7822 12.5818C59.8997 12.6219 59.9975 12.6562 60.0726 12.6838C60.1297 12.7048 60.2181 12.7376 60.2824 12.7724L59.7116 13.8279ZM44.63 9.10488C37.3836 6.88813 33.7247 5.77035 31.722 5.20138C29.729 4.63517 29.4311 4.62871 28.8892 4.61217L28.9258 3.41273C29.6139 3.43373 30.0226 3.47108 32.0499 4.04706C34.0675 4.62027 37.7426 5.74306 44.9811 7.95737L44.63 9.10488ZM28.8865 4.61208C28.3489 4.59326 28.0564 4.59571 27.8289 4.62481C27.619 4.65166 27.4465 4.70352 27.1539 4.82014L26.7096 3.70543C27.045 3.57172 27.3239 3.47963 27.6767 3.43451C28.0119 3.39163 28.3932 3.39408 28.9285 3.41281L28.8865 4.61208ZM46.2152 14.4099C46.6445 14.5235 47.0967 14.811 47.4692 15.123C47.8483 15.4405 48.2139 15.8414 48.4426 16.2478L47.3969 16.8364C47.2592 16.5918 47.0032 16.298 46.6987 16.0429C46.3875 15.7823 46.0939 15.6191 45.9082 15.57L46.2152 14.4099ZM48.443 16.2486L48.7309 16.7618L47.6843 17.3488L47.3964 16.8356L48.443 16.2486ZM48.8076 17.0543L48.8469 40.3361L47.6469 40.3382L47.6076 17.0563L48.8076 17.0543ZM48.8469 40.3365C48.8599 52.9894 48.8796 58.9552 48.8008 61.8719C48.7619 63.3115 48.699 64.0732 48.5771 64.539C48.434 65.0854 48.1672 65.3051 48.0355 65.4702L47.0974 64.7218C47.3452 64.4113 47.3564 64.4636 47.4162 64.2351C47.4971 63.926 47.5617 63.3054 47.6013 61.8394C47.6795 58.945 47.6599 53.007 47.6469 40.3378L48.8469 40.3365ZM48.0418 65.4622C47.9012 65.6447 47.687 65.83 47.489 65.9813C47.2817 66.1396 47.0469 66.2945 46.8336 66.4111L46.258 65.3581C46.4111 65.2744 46.5951 65.154 46.7607 65.0275C46.9355 64.894 47.0485 64.7852 47.0911 64.7299L48.0418 65.4622ZM46.8241 66.4162L46.1306 66.7792L45.5741 65.716L46.2676 65.353L46.8241 66.4162ZM45.8538 66.8476L30.3614 66.8852L30.3585 65.6852L45.8509 65.6476L45.8538 66.8476ZM30.3612 66.8852C21.5841 66.9039 17.4481 66.9293 15.3781 66.817C14.3571 66.7616 13.7474 66.6708 13.315 66.4805C12.8657 66.2829 12.6095 65.9568 12.4116 65.7674L13.2411 64.9003C13.5927 65.2366 13.6048 65.297 13.7982 65.3822C14.0086 65.4747 14.4163 65.5631 15.4431 65.6188C17.4686 65.7286 21.5498 65.704 30.3587 65.6852L30.3612 66.8852ZM12.404 65.7601C12.0075 65.3673 11.6327 64.8632 11.4853 64.4227L12.6233 64.042C12.6853 64.2274 12.9123 64.5745 13.2486 64.9076L12.404 65.7601ZM11.4787 64.4016C11.454 64.3177 11.4429 64.2231 11.4363 64.1578C11.4282 64.0788 11.4211 63.9811 11.4147 63.8661C11.4018 63.6354 11.3904 63.3138 11.3803 62.8898C11.3599 62.0406 11.3439 60.7619 11.3317 58.9385C11.3071 55.2906 11.2973 49.4494 11.2973 40.4748H12.4973C12.4973 49.4498 12.5071 55.2871 12.5316 58.9304C12.5439 60.7526 12.5598 62.0227 12.5799 62.861C12.59 63.2808 12.601 63.5875 12.6128 63.7993C12.6188 63.9056 12.6246 63.9827 12.63 64.0356C12.6369 64.1023 12.6399 64.0969 12.6299 64.0631L11.4787 64.4016ZM11.2973 40.4748C11.2973 30.1868 11.3038 24.3602 11.3317 21.0557C11.3456 19.405 11.3648 18.3759 11.3917 17.7324C11.405 17.4116 11.4207 17.1761 11.44 17.0027C11.4575 16.8452 11.483 16.6826 11.5413 16.5454L12.6458 17.0144C12.6616 16.9773 12.6491 16.9872 12.6326 17.1354C12.6179 17.2676 12.6036 17.4707 12.5906 17.7824C12.5647 18.4039 12.5455 19.4152 12.5316 21.0658C12.5038 24.3641 12.4973 30.1847 12.4973 40.4748H11.2973ZM11.5435 16.5403C11.9279 15.6577 12.502 15.0621 13.3656 14.649L13.8834 15.7315C13.2815 16.0194 12.9135 16.4001 12.6437 17.0195L11.5435 16.5403ZM13.3656 14.649L14.046 14.3235L14.5638 15.4061L13.8834 15.7315L13.3656 14.649ZM14.3049 14.2648H29.9412V15.4648H14.3049V14.2648ZM29.9412 14.2648C34.9076 14.2648 38.8643 14.2773 41.6176 14.2992C42.994 14.3102 44.0715 14.3235 44.8247 14.3388C45.2009 14.3465 45.4992 14.3547 45.7145 14.3635C45.8217 14.3679 45.9123 14.3726 45.9835 14.3778C46.0339 14.3814 46.1286 14.3883 46.207 14.4078L45.9164 15.5721C45.9572 15.5823 45.9706 15.58 45.8969 15.5746C45.8438 15.5708 45.7674 15.5667 45.6654 15.5625C45.4623 15.5542 45.1736 15.5462 44.8003 15.5386C44.0545 15.5234 42.9828 15.5101 41.6081 15.4992C38.8593 15.4773 34.9062 15.4648 29.9412 15.4648V14.2648Z" fill="#0B2D1F" mask="url(#path-1-outside-1_6356_46763)"/>
</g>
<g id="Vector_2">
<mask id="path-3-outside-2_6356_46763" maskUnits="userSpaceOnUse" x="17.0239" y="19.813" width="26" height="26" fill="black">
<rect fill="white" x="17.0239" y="19.813" width="26" height="26"/>
<path d="M27.532 20.7703C25.2469 21.2693 23.1326 22.4381 21.491 24.0928C19.9544 25.6425 19.0745 27.1396 18.3785 29.4379C18.0633 30.4491 18.0371 30.7905 18.0239 32.6028C18.0239 34.3232 18.0633 34.8091 18.326 35.7547C19.5342 40.2592 23.1457 43.6737 27.6896 44.6061C28.9898 44.8819 31.3274 44.8819 32.6275 44.6061C38.7211 43.3454 42.9498 37.5276 42.2407 31.3684C41.6497 26.2466 38.2483 22.2805 33.2448 20.8753C31.8921 20.4945 29.016 20.4419 27.532 20.7703ZM35.7662 24.1585C36.7381 24.7889 38.2483 26.3254 38.7868 27.2316C39.5222 28.466 39.5616 28.4004 38.0513 28.4004H36.7118L36.5673 27.967C36.2259 26.9952 34.9651 24.7232 34.2954 23.909L33.5731 23.0159L34.2954 23.3443C34.6894 23.515 35.3591 23.8827 35.7662 24.1585ZM26.2581 23.3049C26.1925 23.3968 25.9298 23.7382 25.6672 24.0666C25.0105 24.8939 24.065 26.6143 23.7104 27.573L23.4215 28.4004H22.1213H20.8212L21.0445 27.967C21.9506 26.2203 23.5528 24.6181 25.4833 23.5938C26.3895 23.0947 26.4289 23.0816 26.2581 23.3049ZM29.1079 25.9051V28.4004H27.3219H25.549L25.6278 28.0983C25.7722 27.6124 26.5996 26.1415 27.138 25.4455C27.5583 24.8677 28.9504 23.4099 29.0685 23.4099C29.0948 23.4099 29.1079 24.5262 29.1079 25.9051ZM31.8133 24.0928C32.9427 25.2748 33.7569 26.483 34.3348 27.7963L34.6106 28.4004H32.8376H31.0779V25.9708C31.0779 24.6313 31.1304 23.5413 31.1829 23.5413C31.2354 23.5413 31.5244 23.7908 31.8133 24.0928ZM22.8699 32.6685V34.9667H21.5304H20.1777L20.0858 34.599C20.0201 34.402 19.9807 33.5353 19.9807 32.6685C19.9807 31.8017 20.0201 30.935 20.0858 30.7249L20.1777 30.3703H21.5304H22.8699V32.6685ZM29.1079 32.6685V34.9667H27.0198H24.9449L24.8529 34.4677C24.7479 33.8373 24.7479 31.3027 24.8529 30.7774L24.9449 30.3703H27.0198H29.1079V32.6685ZM35.2409 30.8562C35.3723 31.4734 35.3591 34.1131 35.2409 34.599L35.149 34.9667H33.1134H31.0779V32.6685V30.3703H33.1134H35.1359L35.2409 30.8562ZM40.2314 30.9875C40.2839 31.3421 40.3364 32.0907 40.3364 32.6685C40.3364 33.2463 40.2839 33.9949 40.2314 34.3364L40.1263 34.9667H38.616C37.1058 34.9667 37.1058 34.9667 37.1977 34.6647C37.329 34.2838 37.329 31.0532 37.1977 30.6592C37.1058 30.3703 37.1058 30.3703 38.616 30.3703H40.1263L40.2314 30.9875ZM23.5134 37.2912C23.7761 38.3418 25.0237 40.4956 26.2713 42.0453C26.4551 42.2817 25.155 41.625 24.3802 41.0997C23.1063 40.233 21.7011 38.6439 21.0445 37.3569L20.8212 36.9366H22.1345H23.4346L23.5134 37.2912ZM29.1079 39.445V41.9402L28.714 41.6644C27.8603 41.0603 25.9561 38.3287 25.6278 37.2256L25.549 36.9366H27.3219H29.1079V39.445ZM34.3085 37.6589C33.8226 38.7358 32.9296 40.0491 31.9577 41.0734L31.091 41.9927L31.0779 39.4581V36.9366H32.8508H34.6237L34.3085 37.6589ZM39.2989 37.1599C38.6423 38.8934 36.1602 41.2442 34.059 42.1241L33.5731 42.3211L34.2297 41.5068C35.1884 40.3117 35.9632 38.9197 36.5805 37.2912L36.7249 36.9366H38.0513C39.2595 36.9366 39.3777 36.9629 39.2989 37.1599Z"/>
</mask>
<path d="M27.532 20.7703C25.2469 21.2693 23.1326 22.4381 21.491 24.0928C19.9544 25.6425 19.0745 27.1396 18.3785 29.4379C18.0633 30.4491 18.0371 30.7905 18.0239 32.6028C18.0239 34.3232 18.0633 34.8091 18.326 35.7547C19.5342 40.2592 23.1457 43.6737 27.6896 44.6061C28.9898 44.8819 31.3274 44.8819 32.6275 44.6061C38.7211 43.3454 42.9498 37.5276 42.2407 31.3684C41.6497 26.2466 38.2483 22.2805 33.2448 20.8753C31.8921 20.4945 29.016 20.4419 27.532 20.7703ZM35.7662 24.1585C36.7381 24.7889 38.2483 26.3254 38.7868 27.2316C39.5222 28.466 39.5616 28.4004 38.0513 28.4004H36.7118L36.5673 27.967C36.2259 26.9952 34.9651 24.7232 34.2954 23.909L33.5731 23.0159L34.2954 23.3443C34.6894 23.515 35.3591 23.8827 35.7662 24.1585ZM26.2581 23.3049C26.1925 23.3968 25.9298 23.7382 25.6672 24.0666C25.0105 24.8939 24.065 26.6143 23.7104 27.573L23.4215 28.4004H22.1213H20.8212L21.0445 27.967C21.9506 26.2203 23.5528 24.6181 25.4833 23.5938C26.3895 23.0947 26.4289 23.0816 26.2581 23.3049ZM29.1079 25.9051V28.4004H27.3219H25.549L25.6278 28.0983C25.7722 27.6124 26.5996 26.1415 27.138 25.4455C27.5583 24.8677 28.9504 23.4099 29.0685 23.4099C29.0948 23.4099 29.1079 24.5262 29.1079 25.9051ZM31.8133 24.0928C32.9427 25.2748 33.7569 26.483 34.3348 27.7963L34.6106 28.4004H32.8376H31.0779V25.9708C31.0779 24.6313 31.1304 23.5413 31.1829 23.5413C31.2354 23.5413 31.5244 23.7908 31.8133 24.0928ZM22.8699 32.6685V34.9667H21.5304H20.1777L20.0858 34.599C20.0201 34.402 19.9807 33.5353 19.9807 32.6685C19.9807 31.8017 20.0201 30.935 20.0858 30.7249L20.1777 30.3703H21.5304H22.8699V32.6685ZM29.1079 32.6685V34.9667H27.0198H24.9449L24.8529 34.4677C24.7479 33.8373 24.7479 31.3027 24.8529 30.7774L24.9449 30.3703H27.0198H29.1079V32.6685ZM35.2409 30.8562C35.3723 31.4734 35.3591 34.1131 35.2409 34.599L35.149 34.9667H33.1134H31.0779V32.6685V30.3703H33.1134H35.1359L35.2409 30.8562ZM40.2314 30.9875C40.2839 31.3421 40.3364 32.0907 40.3364 32.6685C40.3364 33.2463 40.2839 33.9949 40.2314 34.3364L40.1263 34.9667H38.616C37.1058 34.9667 37.1058 34.9667 37.1977 34.6647C37.329 34.2838 37.329 31.0532 37.1977 30.6592C37.1058 30.3703 37.1058 30.3703 38.616 30.3703H40.1263L40.2314 30.9875ZM23.5134 37.2912C23.7761 38.3418 25.0237 40.4956 26.2713 42.0453C26.4551 42.2817 25.155 41.625 24.3802 41.0997C23.1063 40.233 21.7011 38.6439 21.0445 37.3569L20.8212 36.9366H22.1345H23.4346L23.5134 37.2912ZM29.1079 39.445V41.9402L28.714 41.6644C27.8603 41.0603 25.9561 38.3287 25.6278 37.2256L25.549 36.9366H27.3219H29.1079V39.445ZM34.3085 37.6589C33.8226 38.7358 32.9296 40.0491 31.9577 41.0734L31.091 41.9927L31.0779 39.4581V36.9366H32.8508H34.6237L34.3085 37.6589ZM39.2989 37.1599C38.6423 38.8934 36.1602 41.2442 34.059 42.1241L33.5731 42.3211L34.2297 41.5068C35.1884 40.3117 35.9632 38.9197 36.5805 37.2912L36.7249 36.9366H38.0513C39.2595 36.9366 39.3777 36.9629 39.2989 37.1599Z" fill="#0B2D1F"/>
<path d="M27.532 20.7703C25.2469 21.2693 23.1326 22.4381 21.491 24.0928C19.9544 25.6425 19.0745 27.1396 18.3785 29.4379C18.0633 30.4491 18.0371 30.7905 18.0239 32.6028C18.0239 34.3232 18.0633 34.8091 18.326 35.7547C19.5342 40.2592 23.1457 43.6737 27.6896 44.6061C28.9898 44.8819 31.3274 44.8819 32.6275 44.6061C38.7211 43.3454 42.9498 37.5276 42.2407 31.3684C41.6497 26.2466 38.2483 22.2805 33.2448 20.8753C31.8921 20.4945 29.016 20.4419 27.532 20.7703ZM35.7662 24.1585C36.7381 24.7889 38.2483 26.3254 38.7868 27.2316C39.5222 28.466 39.5616 28.4004 38.0513 28.4004H36.7118L36.5673 27.967C36.2259 26.9952 34.9651 24.7232 34.2954 23.909L33.5731 23.0159L34.2954 23.3443C34.6894 23.515 35.3591 23.8827 35.7662 24.1585ZM26.2581 23.3049C26.1925 23.3968 25.9298 23.7382 25.6672 24.0666C25.0105 24.8939 24.065 26.6143 23.7104 27.573L23.4215 28.4004H22.1213H20.8212L21.0445 27.967C21.9506 26.2203 23.5528 24.6181 25.4833 23.5938C26.3895 23.0947 26.4289 23.0816 26.2581 23.3049ZM29.1079 25.9051V28.4004H27.3219H25.549L25.6278 28.0983C25.7722 27.6124 26.5996 26.1415 27.138 25.4455C27.5583 24.8677 28.9504 23.4099 29.0685 23.4099C29.0948 23.4099 29.1079 24.5262 29.1079 25.9051ZM31.8133 24.0928C32.9427 25.2748 33.7569 26.483 34.3348 27.7963L34.6106 28.4004H32.8376H31.0779V25.9708C31.0779 24.6313 31.1304 23.5413 31.1829 23.5413C31.2354 23.5413 31.5244 23.7908 31.8133 24.0928ZM22.8699 32.6685V34.9667H21.5304H20.1777L20.0858 34.599C20.0201 34.402 19.9807 33.5353 19.9807 32.6685C19.9807 31.8017 20.0201 30.935 20.0858 30.7249L20.1777 30.3703H21.5304H22.8699V32.6685ZM29.1079 32.6685V34.9667H27.0198H24.9449L24.8529 34.4677C24.7479 33.8373 24.7479 31.3027 24.8529 30.7774L24.9449 30.3703H27.0198H29.1079V32.6685ZM35.2409 30.8562C35.3723 31.4734 35.3591 34.1131 35.2409 34.599L35.149 34.9667H33.1134H31.0779V32.6685V30.3703H33.1134H35.1359L35.2409 30.8562ZM40.2314 30.9875C40.2839 31.3421 40.3364 32.0907 40.3364 32.6685C40.3364 33.2463 40.2839 33.9949 40.2314 34.3364L40.1263 34.9667H38.616C37.1058 34.9667 37.1058 34.9667 37.1977 34.6647C37.329 34.2838 37.329 31.0532 37.1977 30.6592C37.1058 30.3703 37.1058 30.3703 38.616 30.3703H40.1263L40.2314 30.9875ZM23.5134 37.2912C23.7761 38.3418 25.0237 40.4956 26.2713 42.0453C26.4551 42.2817 25.155 41.625 24.3802 41.0997C23.1063 40.233 21.7011 38.6439 21.0445 37.3569L20.8212 36.9366H22.1345H23.4346L23.5134 37.2912ZM29.1079 39.445V41.9402L28.714 41.6644C27.8603 41.0603 25.9561 38.3287 25.6278 37.2256L25.549 36.9366H27.3219H29.1079V39.445ZM34.3085 37.6589C33.8226 38.7358 32.9296 40.0491 31.9577 41.0734L31.091 41.9927L31.0779 39.4581V36.9366H32.8508H34.6237L34.3085 37.6589ZM39.2989 37.1599C38.6423 38.8934 36.1602 41.2442 34.059 42.1241L33.5731 42.3211L34.2297 41.5068C35.1884 40.3117 35.9632 38.9197 36.5805 37.2912L36.7249 36.9366H38.0513C39.2595 36.9366 39.3777 36.9629 39.2989 37.1599Z" stroke="#0B2D1F" mask="url(#path-3-outside-2_6356_46763)"/>
</g>
<g id="Vector_3">
<mask id="path-4-outside-3_6356_46763" maskUnits="userSpaceOnUse" x="16.8267" y="49.8271" width="27" height="4" fill="black">
<rect fill="white" x="16.8267" y="49.8271" width="27" height="4"/>
<path d="M18.1028 51.1593C17.7219 51.5664 17.7351 52.1048 18.1422 52.4988L18.4574 52.8271H30.1323C41.3477 52.8271 41.8336 52.814 42.1225 52.5776C42.5428 52.2362 42.5428 51.4482 42.1225 51.1068C41.8336 50.8704 41.3477 50.8572 30.1061 50.8572H18.3786L18.1028 51.1593Z"/>
</mask>
<path d="M18.1028 51.1593C17.7219 51.5664 17.7351 52.1048 18.1422 52.4988L18.4574 52.8271H30.1323C41.3477 52.8271 41.8336 52.814 42.1225 52.5776C42.5428 52.2362 42.5428 51.4482 42.1225 51.1068C41.8336 50.8704 41.3477 50.8572 30.1061 50.8572H18.3786L18.1028 51.1593Z" fill="#0B2D1F"/>
<path d="M18.1028 51.1593C17.7219 51.5664 17.7351 52.1048 18.1422 52.4988L18.4574 52.8271H30.1323C41.3477 52.8271 41.8336 52.814 42.1225 52.5776C42.5428 52.2362 42.5428 51.4482 42.1225 51.1068C41.8336 50.8704 41.3477 50.8572 30.1061 50.8572H18.3786L18.1028 51.1593Z" stroke="#0B2D1F" mask="url(#path-4-outside-3_6356_46763)"/>
</g>
<g id="Vector_4">
<mask id="path-5-outside-4_6356_46763" maskUnits="userSpaceOnUse" x="21.5903" y="57.396" width="16" height="4" fill="black">
<rect fill="white" x="21.5903" y="57.396" width="16" height="4"/>
<path d="M22.9816 58.6625C22.4826 58.9908 22.4563 60.0151 22.9291 60.2647C23.0867 60.3435 25.6738 60.396 29.7975 60.396C36.0356 60.396 36.4295 60.3829 36.6265 60.1596C36.9286 59.8313 36.9155 59.0433 36.6134 58.7807C36.3901 58.5837 35.7204 58.5574 29.745 58.5574C26.1072 58.5574 23.0604 58.6099 22.9816 58.6625Z"/>
</mask>
<path d="M22.9816 58.6625C22.4826 58.9908 22.4563 60.0151 22.9291 60.2647C23.0867 60.3435 25.6738 60.396 29.7975 60.396C36.0356 60.396 36.4295 60.3829 36.6265 60.1596C36.9286 59.8313 36.9155 59.0433 36.6134 58.7807C36.3901 58.5837 35.7204 58.5574 29.745 58.5574C26.1072 58.5574 23.0604 58.6099 22.9816 58.6625Z" fill="#0B2D1F"/>
<path d="M22.9816 58.6625C22.4826 58.9908 22.4563 60.0151 22.9291 60.2647C23.0867 60.3435 25.6738 60.396 29.7975 60.396C36.0356 60.396 36.4295 60.3829 36.6265 60.1596C36.9286 59.8313 36.9155 59.0433 36.6134 58.7807C36.3901 58.5837 35.7204 58.5574 29.745 58.5574C26.1072 58.5574 23.0604 58.6099 22.9816 58.6625Z" stroke="#0B2D1F" mask="url(#path-5-outside-4_6356_46763)"/>
</g>
</g>
</g>
</g>
</svg>
