<svg width="72" height="72" viewBox="0 0 72 72" fill="none" xmlns="http://www.w3.org/2000/svg">
<path d="M17.7399 50.83H8.80994C7.70537 50.83 6.80994 49.9346 6.80994 48.83V41.16C6.80467 40.2925 6.9705 39.4324 7.29795 38.6289C7.6254 37.8255 8.10803 37.0946 8.71825 36.4778C9.32846 35.8611 10.0543 35.3708 10.8542 35.0348C11.6541 34.6989 12.5124 34.5239 13.3799 34.52H19.4998" fill="#00317E"/>
<path d="M17.7599 33.6999C21.1123 33.6999 23.8299 30.9509 23.8299 27.5599C23.8299 24.1689 21.1123 21.4199 17.7599 21.4199C14.4076 21.4199 11.6899 24.1689 11.6899 27.5599C11.6899 30.9509 14.4076 33.6999 17.7599 33.6999Z" fill="#F8E0C7"/>
<path d="M54.26 50.83H63.19C64.2946 50.83 65.19 49.9346 65.19 48.83V41.16C65.1953 40.2925 65.0294 39.4324 64.702 38.6289C64.3746 37.8255 63.8919 37.0946 63.2817 36.4778C62.6715 35.8611 61.9457 35.3708 61.1458 35.0348C60.3459 34.6989 59.4876 34.5239 58.62 34.52H53.0002" fill="#00317E"/>
<path d="M54.82 34.2898C58.1724 34.2898 60.89 31.5408 60.89 28.1498C60.89 24.7587 58.1724 22.0098 54.82 22.0098C51.4676 22.0098 48.75 24.7587 48.75 28.1498C48.75 31.5408 51.4676 34.2898 54.82 34.2898Z" fill="#F8E0C7"/>
<path d="M36.0601 34.2498C41.1522 34.2498 45.2801 30.0727 45.2801 24.9198C45.2801 19.767 41.1522 15.5898 36.0601 15.5898C30.968 15.5898 26.8401 19.767 26.8401 24.9198C26.8401 30.0727 30.968 34.2498 36.0601 34.2498Z" fill="#F8E0C7"/>
<path d="M30.2001 34.29H41.9001C44.2605 34.29 46.5242 35.2277 48.1933 36.8968C49.8624 38.5659 50.8 40.8296 50.8 43.19V54.28C50.8 55.3846 49.9046 56.28 48.8 56.28H23.3C22.1955 56.28 21.3 55.3846 21.3 54.28V43.19C21.3 40.8296 22.2377 38.5659 23.9068 36.8968C25.5759 35.2277 27.8396 34.29 30.2001 34.29Z" fill="#4ACCFB"/>
<path d="M36.1453 52L38.6544 49.5825L36.7432 37.5901L37.7243 36.4608L39 35H33L34.5664 36.4608L35.5475 37.5901L33.6363 49.5825L36.1453 52Z" fill="#2E2E2E"/>
</svg>
