<svg width="60" height="60" viewBox="0 0 60 60" fill="none" xmlns="http://www.w3.org/2000/svg">
<g clip-path="url(#clip0_741_2503)">
<g filter="url(#filter0_d_741_2503)">
<g filter="url(#filter1_d_741_2503)">
<path d="M30.8234 17.9998H8.76458C8.3423 17.9998 8 18.3421 8 18.7643V35.3088L9.76021 34.527C9.90792 34.4614 10.0647 34.4281 10.2264 34.4281C10.388 34.4281 10.5448 34.4614 10.6925 34.527L17.3443 37.4817C17.7587 37.6657 18.0265 38.0777 18.0265 38.5311V43.376C18.0265 44.3965 17.9055 45.3315 17.6636 46.1914C17.8269 46.3007 17.9806 46.4266 18.1224 46.5684L18.7506 47.1966L19.3788 46.5684C19.9494 45.9978 20.7113 45.6837 21.524 45.6837C22.3367 45.6837 23.0985 45.9978 23.6692 46.5684C24.319 47.2181 24.6109 48.0916 24.5469 48.9431H30.8232C31.2455 48.9431 31.5878 48.6008 31.5878 48.1786V18.7643C31.5879 18.3421 31.2456 17.9998 30.8234 17.9998Z" fill="#F5F5F5"/>
<path d="M9.76021 34.527L8 35.3088V48.9431H24.5469C24.6109 48.0916 24.319 47.2181 23.6692 46.5684C23.0985 45.9978 22.3367 45.6837 21.524 45.6837C20.7113 45.6837 19.9494 45.9978 19.3788 46.5684L18.7506 47.1966L18.1224 46.5684C17.9806 46.4266 17.8269 46.3007 17.6636 46.1914C17.9055 45.3315 18.0265 44.3965 18.0265 43.376V38.5311C18.0265 38.0777 17.7587 37.6657 17.3443 37.4817L10.6925 34.527C10.5448 34.4614 10.388 34.4281 10.2264 34.4281C10.0647 34.4281 9.90792 34.4614 9.76021 34.527Z" fill="#F5F5F5"/>
<path d="M9 48.4998C9.15456 48.3823 9.83088 48.4998 10 48.4998C10.1691 48.4998 10.3454 48.3823 10.5 48.4998L11.2 48.9137V19.3691C11.2 18.6128 11.5582 17.9998 12 17.9998H8.8C8.35816 17.9998 8 18.6128 8 19.3691V48.4998L9 48.4998Z" fill="#E6E6E6"/>
<path d="M26.8685 29.6679H12.7188C12.4021 29.6679 12.1453 29.4112 12.1453 29.0944C12.1453 28.7777 12.4021 28.521 12.7188 28.521H26.8685C27.1852 28.521 27.4419 28.7777 27.4419 29.0944C27.4419 29.4112 27.1852 29.6679 26.8685 29.6679Z" fill="#D8D8D8"/>
<path d="M26.8692 31.9725H12.7195C12.4028 31.9725 12.1461 31.7159 12.1461 31.3991C12.1461 31.0824 12.4028 30.8257 12.7195 30.8257H26.8692C27.1859 30.8257 27.4426 31.0824 27.4426 31.3991C27.4426 31.7159 27.186 31.9725 26.8692 31.9725Z" fill="#D8D8D8"/>
<path d="M26.868 34.2748H12.7183C12.4016 34.2748 12.1449 34.0181 12.1449 33.7014C12.1449 33.3846 12.4016 33.1279 12.7183 33.1279H26.868C27.1847 33.1279 27.4414 33.3846 27.4414 33.7014C27.4414 34.0181 27.1847 34.2748 26.868 34.2748Z" fill="#D8D8D8"/>
<path d="M14.5294 22.8606H13.5536C13.4104 22.8606 13.294 22.7442 13.294 22.6009V22.3158C13.294 22.1727 13.4104 22.0562 13.5536 22.0562H15.1745C15.4912 22.0562 15.748 21.7995 15.748 21.4828C15.748 21.166 15.4912 20.9093 15.1745 20.9093H14.6149V20.8518C14.6149 20.535 14.3582 20.2783 14.0415 20.2783C13.7248 20.2783 13.4681 20.535 13.4681 20.8518V20.9137C12.7324 20.9583 12.1471 21.5692 12.1471 22.3158V22.6009C12.1471 23.3765 12.7781 24.0075 13.5536 24.0075H14.5294C14.6725 24.0075 14.789 24.1239 14.789 24.2671V24.5523C14.789 24.6954 14.6726 24.8119 14.5294 24.8119H12.871C12.5543 24.8119 12.2976 25.0686 12.2976 25.3854C12.2976 25.7021 12.5543 25.9588 12.871 25.9588H13.4681V26.1001C13.4681 26.4169 13.7248 26.6735 14.0415 26.6735C14.3582 26.6735 14.6149 26.4169 14.6149 26.1001V25.9545C15.3506 25.91 15.9359 25.2991 15.9359 24.5524V24.2673C15.9359 23.4916 15.305 22.8606 14.5294 22.8606Z" fill="#1B7E13"/>
</g>
<g filter="url(#filter2_d_741_2503)">
<path d="M13.4148 51.4357H11.0173C10.7433 51.4357 10.5204 51.2128 10.5204 50.9387C10.5204 50.6647 10.7433 50.4418 11.0173 50.4418H12.7937C12.3829 49.3591 12.6119 48.087 13.4824 47.2164C14.053 46.6459 14.8149 46.3317 15.6276 46.3317C16.2672 46.3317 16.8747 46.5271 17.383 46.8879C17.6248 46.0356 17.7533 45.0875 17.7533 44.0241V39.1792C17.7533 38.695 17.4681 38.2563 17.0257 38.0598L10.3739 35.1052C10.0573 34.9646 9.69599 34.9646 9.37946 35.1052L2.72765 38.0598C2.28519 38.2563 2 38.695 2 39.1792V44.0241C2 49.1824 5.01663 51.6306 9.38183 53.5677C9.69653 53.7073 10.0569 53.7073 10.3716 53.5677C11.6096 53.0182 12.7391 52.4276 13.7221 51.7458C13.6411 51.6651 13.5609 51.585 13.4824 51.5067C13.4592 51.4836 13.4372 51.4595 13.4148 51.4357Z" fill="#E01E5A"/>
<path d="M11.0173 51.4357H13.4148C13.4372 51.4595 13.4592 51.4836 13.4824 51.5067L13.7221 51.7458C14.57 51.0893 16.4893 49.1985 17.383 46.8879C16.8747 46.5271 16.2672 46.3317 15.6276 46.3317C14.8149 46.3317 14.053 46.6459 13.4824 47.2164C12.6119 48.087 12.3829 49.3591 12.7937 50.4418H11.0173C10.7433 50.4418 10.5204 50.6647 10.5204 50.9387C10.5204 51.2128 10.7433 51.4357 11.0173 51.4357Z" fill="#E01E5A"/>
<path d="M11.8449 52.8147C7.28781 50.7924 4.13852 48.2367 4.13852 42.8515V37.7936C4.13852 37.6601 4.15985 37.5301 4.19892 37.407L2.72765 38.0605C2.28519 38.257 2 38.6958 2 39.1799V44.0248C2 49.1831 5.01663 51.6313 9.38183 53.5684C9.69653 53.708 10.0569 53.708 10.3716 53.5684C10.902 53.333 11.4122 53.09 11.8998 52.8356C11.8815 52.8286 11.8629 52.8227 11.8449 52.8147Z" fill="#A21641"/>
<path d="M13.6406 42.4282H11.4952V40.2827C11.4952 40.0716 11.324 39.9004 11.1129 39.9004H8.6397C8.42861 39.9004 8.25742 40.0716 8.25742 40.2827V42.4282H6.11194C5.90084 42.4282 5.72965 42.5993 5.72965 42.8104V45.2836C5.72965 45.4947 5.90084 45.6659 6.11194 45.6659H8.25742V47.8114C8.25742 48.0225 8.42861 48.1937 8.6397 48.1937H11.1129C11.324 48.1937 11.4952 48.0225 11.4952 47.8114V45.6659H13.6406C13.8517 45.6659 14.0229 45.4947 14.0229 45.2836V42.8104C14.0229 42.5993 13.8518 42.4282 13.6406 42.4282Z" fill="white"/>
<path d="M9.60852 47.2256C9.39742 47.2256 9.22623 47.0544 9.22623 46.8433V45.0801C9.22623 44.869 9.05504 44.6978 8.84395 44.6978H7.08076C6.86966 44.6978 6.69847 44.5266 6.69847 44.3155V42.4285H6.11227C5.90117 42.4285 5.72998 42.5997 5.72998 42.8108V45.2839C5.72998 45.495 5.90117 45.6662 6.11227 45.6662H8.25774V47.8117C8.25774 48.0228 8.42893 48.194 8.64003 48.194H11.1132C11.3243 48.194 11.4955 48.0228 11.4955 47.8117V47.2255H9.60852V47.2256Z" fill="#EAF6FF"/>
</g>
</g>
<g filter="url(#filter3_d_741_2503)">
<path d="M40.3934 4C35.6681 4 31.8376 7.78995 31.8376 12.4653V15.8881C32.4095 15.3636 33.2229 15.0786 34.017 15.1836V14.7617C34.017 14.4264 34.3065 14.1615 34.642 14.1867C37.9499 14.4218 41.3163 13.3818 43.8618 11.7366C44.0994 11.5829 44.414 11.6212 44.6071 11.8265C46.7832 14.1408 46.7701 14.0513 46.7701 14.3534V15.1818C47.6405 15.0527 48.4126 15.3188 48.9491 15.8123V12.4653C48.9492 7.78995 45.1188 4 40.3934 4Z" fill="#545454"/>
<path d="M33.8403 12.4653C33.8403 8.12527 37.1415 4.55043 41.3947 4.05962C41.066 4.02164 40.7323 4 40.3933 4C35.668 4 31.8376 7.78995 31.8376 12.4653V15.8882C32.367 15.4027 33.1036 15.123 33.8403 15.1673V12.4653Z" fill="#5B5D6E"/>
<path d="M46.7589 14.8756V19.5309C46.7589 19.5814 46.7563 19.6312 46.7551 19.6815C48.42 19.9309 49.7241 18.7406 49.7241 17.2788C49.7241 15.8139 48.419 14.6294 46.7589 14.8756Z" fill="#F0A479"/>
<path d="M48.7769 15.3662C48.2509 14.9634 47.5448 14.759 46.7589 14.8755V19.5308C46.7589 19.5813 46.7563 19.6311 46.7551 19.6814C47.5434 19.7995 48.2505 19.5946 48.7769 19.1911V15.3662Z" fill="#E59770"/>
<path d="M34.036 19.5364V14.8711C32.5827 14.6791 31.0632 15.7826 31.0632 17.2785C31.0632 18.7422 32.3677 19.9377 34.0397 19.6873C34.0385 19.637 34.036 19.5868 34.036 19.5364Z" fill="#F0A479"/>
<path d="M34.036 19.2121C33.4366 18.7626 33.0658 18.0588 33.0658 17.2785C33.0658 16.5181 33.459 15.8595 34.036 15.4205V14.8711C32.5827 14.6791 31.0632 15.7826 31.0632 17.2785C31.0632 18.7422 32.3677 19.9377 34.0397 19.6874C34.0384 19.637 34.036 19.5869 34.036 19.5364V19.2121Z" fill="#E59770"/>
<path d="M40.4847 25.4444C39.1025 25.4444 37.8878 25.069 36.8942 24.4408V27.9089L40.4693 32.2751L44.0443 27.9089V24.3472C43.0316 25.0384 41.8053 25.4444 40.4847 25.4444Z" fill="#F0A479"/>
<path d="M38.9357 25.2763C38.1819 25.1087 37.4971 24.8214 36.8942 24.4402V27.9083L38.9357 30.4016V25.2763Z" fill="#E59770"/>
<path d="M53.5023 31.2348L44.0446 27.6108L40.4696 31.977L36.8945 27.6108L27.4467 31.2348C27.4467 31.2348 23.9487 32.6576 23.9487 36.6032C23.9487 40.1733 23.9487 49.1976 23.9487 52.0817C23.9487 52.7186 24.4706 53.2349 25.1143 53.2349C25.6048 53.2349 55.3366 53.2349 55.8347 53.2349C56.4784 53.2349 57.0003 52.7186 57.0003 52.0817C57.0003 49.1976 57.0003 40.1733 57.0003 36.6032C57.0004 32.6576 53.5023 31.2348 53.5023 31.2348Z" fill="#F0F0F0"/>
<path d="M25.9444 52.0815C25.9444 49.1974 25.9444 39.0833 25.9444 35.5133C25.9444 33.2246 27.1209 31.7862 28.1095 30.9805L27.4467 31.2347C27.4467 31.2347 23.9487 32.6575 23.9487 36.6031C23.9487 40.1732 23.9487 49.1975 23.9487 52.0816C23.9487 52.7185 24.4706 53.2349 25.1143 53.2349C25.1878 53.2349 25.919 53.2349 27.1099 53.2349C26.4663 53.2348 25.9444 52.7184 25.9444 52.0815Z" fill="#D8DCE5"/>
<path d="M44.6075 11.5298C44.4144 11.3244 44.0997 11.2862 43.862 11.4399C41.3167 13.0852 37.9502 14.1251 34.6423 13.89C34.3068 13.8648 34.0173 14.1298 34.0173 14.4651V19.5224C34.0173 22.7726 36.5913 25.7414 40.4849 25.7414C43.9508 25.7414 46.7705 22.9515 46.7705 19.5224V14.0569C46.7705 13.7546 46.7836 13.8442 44.6075 11.5298Z" fill="#F0A479"/>
<path d="M36.02 19.5217V13.9145C35.5612 13.9292 35.1013 13.9219 34.6424 13.8893C34.3069 13.8642 34.0174 14.1291 34.0174 14.4644V19.5217C34.0174 22.772 36.5914 25.7407 40.485 25.7407C40.7941 25.7407 41.0979 25.7175 41.3952 25.6746C38.3593 25.2368 36.02 22.6448 36.02 19.5217Z" fill="#E59770"/>
<path d="M30.6537 53.2355V37.9598C30.6537 37.5495 30.3175 37.2168 29.9027 37.2168C29.4879 37.2168 29.1517 37.5494 29.1517 37.9598V53.2355C29.6223 53.2355 30.1245 53.2355 30.6537 53.2355Z" fill="#D8DCE5"/>
<path d="M51.7987 53.2355V37.9598C51.7987 37.5495 51.4625 37.2168 51.0477 37.2168C50.6329 37.2168 50.2967 37.5494 50.2967 37.9598V53.2355C50.8259 53.2355 51.328 53.2355 51.7987 53.2355Z" fill="#D8DCE5"/>
<path d="M44.7859 34.2203L47.4593 28.9192L44.0443 27.6106L40.4693 31.9768L43.9548 34.426C44.2369 34.6244 44.6313 34.5268 44.7859 34.2203Z" fill="#D8DCE5"/>
<path d="M36.1582 34.2208L33.4848 28.9197L36.8998 27.6111L40.4748 31.9773L36.9893 34.4266C36.7071 34.6249 36.3127 34.5273 36.1582 34.2208Z" fill="#D8DCE5"/>
<path d="M44.1049 48.9522L41.8104 35.5142H40.4735H40.4692H39.1324L36.8378 48.9522C36.8137 49.1253 36.865 49.3011 36.9745 49.4204L40.1423 52.8748C40.3188 53.0673 40.6241 53.0673 40.8005 52.8748L43.9684 49.4204C44.0777 49.3011 44.129 49.1253 44.1049 48.9522Z" fill="#A21641"/>
<path d="M40.4737 31.9813V31.9783L40.4716 31.9798L40.4694 31.9783V31.9813L37.9342 33.7628L39.1326 35.5472H40.4694H40.4737H41.8105L43.0089 33.7628L40.4737 31.9813Z" fill="#A21641"/>
<path d="M38.9764 49.4204C38.8669 49.3011 38.8156 49.1253 38.8397 48.9522L41.1342 35.5142H40.4727H40.4683H39.1315L36.837 48.9522C36.8129 49.1253 36.8642 49.3011 36.9736 49.4204L40.1414 52.8748C40.3179 53.0673 40.6231 53.0673 40.7996 52.8748L41.4718 52.1419L38.9764 49.4204Z" fill="#85092F"/>
<path d="M41.4733 32.6829L40.4742 31.9809V31.9778L40.4721 31.9793L40.4699 31.9778V31.9809L37.9348 33.7623L39.1332 35.5468H40.47H40.4744H41.1359L40.0978 34.0009C40.0085 33.868 40.0421 33.6888 40.1736 33.5964L41.4733 32.6829Z" fill="#85092F"/>
</g>
</g>
<defs>
<filter id="filter0_d_741_2503" x="-2" y="14.9998" width="37.5878" height="43.6733" filterUnits="userSpaceOnUse" color-interpolation-filters="sRGB">
<feFlood flood-opacity="0" result="BackgroundImageFix"/>
<feColorMatrix in="SourceAlpha" type="matrix" values="0 0 0 0 0 0 0 0 0 0 0 0 0 0 0 0 0 0 127 0" result="hardAlpha"/>
<feOffset dy="1"/>
<feGaussianBlur stdDeviation="2"/>
<feComposite in2="hardAlpha" operator="out"/>
<feColorMatrix type="matrix" values="0 0 0 0 0 0 0 0 0 0 0 0 0 0 0 0 0 0 0.15 0"/>
<feBlend mode="normal" in2="BackgroundImageFix" result="effect1_dropShadow_741_2503"/>
<feBlend mode="normal" in="SourceGraphic" in2="effect1_dropShadow_741_2503" result="shape"/>
</filter>
<filter id="filter1_d_741_2503" x="4" y="14.9998" width="31.5878" height="38.9434" filterUnits="userSpaceOnUse" color-interpolation-filters="sRGB">
<feFlood flood-opacity="0" result="BackgroundImageFix"/>
<feColorMatrix in="SourceAlpha" type="matrix" values="0 0 0 0 0 0 0 0 0 0 0 0 0 0 0 0 0 0 127 0" result="hardAlpha"/>
<feOffset dy="1"/>
<feGaussianBlur stdDeviation="2"/>
<feComposite in2="hardAlpha" operator="out"/>
<feColorMatrix type="matrix" values="0 0 0 0 0 0 0 0 0 0 0 0 0 0 0 0 0 0 0.25 0"/>
<feBlend mode="normal" in2="BackgroundImageFix" result="effect1_dropShadow_741_2503"/>
<feBlend mode="normal" in="SourceGraphic" in2="effect1_dropShadow_741_2503" result="shape"/>
</filter>
<filter id="filter2_d_741_2503" x="-2" y="31.9998" width="23.7533" height="26.6733" filterUnits="userSpaceOnUse" color-interpolation-filters="sRGB">
<feFlood flood-opacity="0" result="BackgroundImageFix"/>
<feColorMatrix in="SourceAlpha" type="matrix" values="0 0 0 0 0 0 0 0 0 0 0 0 0 0 0 0 0 0 127 0" result="hardAlpha"/>
<feOffset dy="1"/>
<feGaussianBlur stdDeviation="2"/>
<feComposite in2="hardAlpha" operator="out"/>
<feColorMatrix type="matrix" values="0 0 0 0 0 0 0 0 0 0 0 0 0 0 0 0 0 0 0.25 0"/>
<feBlend mode="normal" in2="BackgroundImageFix" result="effect1_dropShadow_741_2503"/>
<feBlend mode="normal" in="SourceGraphic" in2="effect1_dropShadow_741_2503" result="shape"/>
</filter>
<filter id="filter3_d_741_2503" x="19.9487" y="1" width="41.0517" height="57.2356" filterUnits="userSpaceOnUse" color-interpolation-filters="sRGB">
<feFlood flood-opacity="0" result="BackgroundImageFix"/>
<feColorMatrix in="SourceAlpha" type="matrix" values="0 0 0 0 0 0 0 0 0 0 0 0 0 0 0 0 0 0 127 0" result="hardAlpha"/>
<feOffset dy="1"/>
<feGaussianBlur stdDeviation="2"/>
<feComposite in2="hardAlpha" operator="out"/>
<feColorMatrix type="matrix" values="0 0 0 0 0 0 0 0 0 0 0 0 0 0 0 0 0 0 0.25 0"/>
<feBlend mode="normal" in2="BackgroundImageFix" result="effect1_dropShadow_741_2503"/>
<feBlend mode="normal" in="SourceGraphic" in2="effect1_dropShadow_741_2503" result="shape"/>
</filter>
<clipPath id="clip0_741_2503">
<rect width="55" height="55" fill="white" transform="translate(2 2)"/>
</clipPath>
</defs>
</svg>
