<svg width="60" height="60" viewBox="0 0 60 60" fill="none" xmlns="http://www.w3.org/2000/svg">
<g filter="url(#filter0_d_740_1808)">
<path fill-rule="evenodd" clip-rule="evenodd" d="M34.4336 25.5925C34.4336 26.0481 34.0643 26.4174 33.6087 26.4174C33.1531 26.4174 32.7838 26.0481 32.7838 25.5925V23.9664C32.7838 23.828 32.7266 23.7015 32.6344 23.6093C32.5422 23.5171 32.4158 23.4599 32.2774 23.4599H28.3028C28.1644 23.4599 28.0379 23.5171 27.9457 23.6093C27.8535 23.7015 27.7963 23.828 27.7963 23.9664V25.5925C27.7963 26.0481 27.4269 26.4174 26.9714 26.4174C26.5158 26.4174 26.1465 26.0481 26.1465 25.5925V23.9664C26.1465 23.3726 26.3888 22.8333 26.7793 22.4429C27.1697 22.0525 27.7091 21.8101 28.3028 21.8101H32.2774C32.8712 21.8101 33.4105 22.0524 33.8009 22.4429C34.1913 22.8333 34.4337 23.3726 34.4337 23.9664V25.5925H34.4336Z" fill="#6B7280"/>
<path fill-rule="evenodd" clip-rule="evenodd" d="M33.9831 26.3273C33.8708 26.3847 33.7436 26.417 33.6088 26.417C33.1532 26.417 32.7839 26.0476 32.7839 25.592V23.9659C32.7839 23.8275 32.7267 23.701 32.6345 23.6088C32.5423 23.5166 32.4159 23.4594 32.2775 23.4594H28.7089C28.7754 23.4269 28.8497 23.4087 28.9279 23.4087H32.9025C33.0409 23.4087 33.1674 23.4659 33.2595 23.5581C33.3516 23.6503 33.4089 23.7767 33.4089 23.9152V25.5413C33.409 25.9095 33.6501 26.2212 33.9831 26.3273ZM27.3457 26.3273C27.2334 26.3847 27.1062 26.417 26.9714 26.417C26.5158 26.417 26.1465 26.0476 26.1465 25.592V23.9659C26.1465 23.3721 26.3888 22.8328 26.7793 22.4424C27.1697 22.052 27.7091 21.8096 28.3028 21.8096H28.4625C28.0548 21.8999 27.6898 22.1061 27.4044 22.3916C27.014 22.7819 26.7716 23.3212 26.7716 23.9151V25.5412C26.7716 25.9095 27.0127 26.2212 27.3457 26.3273Z" fill="#685E68"/>
<path fill-rule="evenodd" clip-rule="evenodd" d="M22.5469 30.1318V35.9895C22.5469 36.6738 23.1068 37.2337 23.791 37.2337H36.7875C37.4717 37.2337 38.0316 36.6738 38.0316 35.9895V30.132L22.5469 30.1318Z" fill="#E01E5A"/>
<path fill-rule="evenodd" clip-rule="evenodd" d="M22.5469 30.1318V35.9895C22.5469 36.6738 23.1068 37.2337 23.791 37.2337H24.8222C24.1379 37.2337 23.578 36.6738 23.578 35.9895V30.1318H22.5469Z" fill="#A21641"/>
<path fill-rule="evenodd" clip-rule="evenodd" d="M37.645 30.6745C37.7818 30.5879 37.912 30.4958 38.0323 30.3971C38.4799 30.0297 38.79 29.5709 38.79 28.9687V25.9358C38.79 25.5847 38.5036 25.2983 38.1526 25.2983C32.8229 25.2983 27.7572 25.2983 22.4275 25.2983C22.0764 25.2983 21.79 25.5847 21.79 25.9358V28.9687C21.79 29.5709 22.1002 30.0297 22.5477 30.397C22.668 30.4957 22.7983 30.5879 22.9351 30.6744C25.5233 32.3121 35.0756 32.3002 37.645 30.6745Z" fill="#A21641"/>
<path fill-rule="evenodd" clip-rule="evenodd" d="M23.5788 25.2983H22.4275C22.0764 25.2983 21.79 25.5847 21.79 25.9358V28.9687C21.79 29.5709 22.1002 30.0297 22.5477 30.397C22.668 30.4957 22.7983 30.5879 22.9351 30.6744C23.1167 30.7893 23.3336 30.8957 23.5788 30.9944V25.2983Z" fill="#A21641"/>
<path fill-rule="evenodd" clip-rule="evenodd" d="M28.7227 32.099C28.7227 32.9642 29.424 33.6657 30.2894 33.6657C31.1546 33.6657 31.8561 32.9642 31.8561 32.099C31.8561 31.2364 31.1574 30.5322 30.2894 30.5322C29.4214 30.5322 28.7227 31.2364 28.7227 32.099Z" fill="#BAAFB8"/>
<path fill-rule="evenodd" clip-rule="evenodd" d="M25.8506 25.2983H34.728V27.3713C34.728 27.8108 34.3684 28.1705 33.9288 28.1705H26.6499C26.2104 28.1705 25.8507 27.8108 25.8507 27.3713V25.2983H25.8506Z" fill="#A21641"/>
</g>
<g filter="url(#filter1_d_740_1808)">
<path fill-rule="evenodd" clip-rule="evenodd" d="M13.8117 39.1491C13.7757 39.1491 13.7369 39.1464 13.7009 39.1436C13.2193 39.0827 12.8788 38.6425 12.9397 38.1609L14.6061 24.9674C14.667 24.4857 15.1072 24.1425 15.5889 24.2034C16.0705 24.2643 16.411 24.7044 16.3501 25.1889L14.6837 38.3796C14.6283 38.8252 14.249 39.1491 13.8117 39.1491ZM46.189 39.1491C45.7323 39.1491 45.3475 38.7976 45.3143 38.3325L44.3509 25.1141C44.3177 24.6297 44.6803 24.2089 45.1648 24.1757C45.6492 24.1397 46.07 24.5023 46.106 24.9868L47.0666 38.2052C47.1025 38.6896 46.7399 39.1131 46.2555 39.1464C46.2333 39.1491 46.2112 39.1491 46.189 39.1491ZM34.925 16.3582H25.0784C24.5912 16.3582 24.1981 15.9651 24.1981 15.4779C24.1981 14.9934 24.5912 14.6003 25.0784 14.6003H34.925C35.4095 14.6003 35.8026 14.9934 35.8026 15.4779C35.8026 15.9651 35.4095 16.3582 34.925 16.3582Z" fill="#333333"/>
</g>
<g filter="url(#filter2_d_740_1808)">
<path fill-rule="evenodd" clip-rule="evenodd" d="M38.2632 47.8718H21.7035C21.2163 47.8718 20.8232 47.4788 20.8232 46.9943C20.8232 46.5071 21.2163 46.114 21.7035 46.114H38.2632C38.7476 46.114 39.1435 46.5071 39.1435 46.9943C39.1435 47.4788 38.7476 47.8718 38.2632 47.8718Z" fill="#333333"/>
</g>
<g filter="url(#filter3_d_740_1808)">
<g filter="url(#filter4_d_740_1808)">
<path d="M44.7612 5.28076C38.9739 5.28076 34.2812 9.97342 34.2812 15.7608C34.2812 19.6596 36.4104 23.0607 39.5691 24.8659L40.2809 24.4772L49.2573 24.3468L49.9405 24.8733C53.1064 23.0701 55.2412 19.665 55.2412 15.7608C55.2412 9.97342 50.5494 5.28076 44.7612 5.28076Z" fill="#918291"/>
</g>
<path d="M44.7611 23.7639C49.1811 23.7639 52.7643 20.1807 52.7643 15.7606C52.7643 11.3405 49.1811 7.75732 44.7611 7.75732C40.341 7.75732 36.7578 11.3405 36.7578 15.7606C36.7578 20.1807 40.341 23.7639 44.7611 23.7639Z" fill="#FDFDFD"/>
<path d="M42.9341 7.96777C39.3985 8.7965 36.7578 11.9758 36.7578 15.7604C36.7578 19.5453 39.3988 22.7247 42.9346 23.5532C40.802 21.6349 39.4605 18.8544 39.4605 15.7601C39.4605 12.6665 40.8018 9.88612 42.9341 7.96777Z" fill="#D8DCE5"/>
<path d="M49.9015 22.4277C49.9015 21.8506 49.6448 21.3032 49.2006 20.9342L46.2574 18.4904L45.6482 17.866H43.8729L43.2481 18.4904L40.3049 20.9342C39.8616 21.3032 39.604 21.8506 39.604 22.4277L39.5685 24.8665C41.0991 25.7408 42.8725 26.2411 44.7614 26.2411C46.6454 26.2411 48.413 25.7441 49.9411 24.8739L49.9015 22.4277Z" fill="#F0F0F0"/>
<path d="M46.6833 18.8441L46.2573 18.4904L45.6481 17.866H43.8728L43.248 18.4904L40.3048 20.9342C39.8615 21.3032 39.6039 21.8506 39.6039 22.4277L39.5684 24.8665C40.1897 25.2213 40.8514 25.5133 41.5442 25.7366L41.5781 23.4058C41.5781 22.8288 41.8357 22.2814 42.279 21.9124L43.0586 21.2651C43.3903 20.9897 43.8265 20.8615 44.2504 20.9401C44.4135 20.9704 44.5815 20.9862 44.7531 20.9862C45.4869 20.9862 46.1759 20.7004 46.6921 20.1827C46.9402 19.9346 47.1346 19.6462 47.2705 19.3317L46.6833 18.8441Z" fill="#D8DCE5"/>
<path d="M46.2574 15.7544V18.2436C46.2574 18.327 46.2508 18.4079 46.2376 18.4871C46.1855 18.805 46.0345 19.089 45.8165 19.3069C45.5449 19.5794 45.1684 19.7478 44.7532 19.7478C44.0052 19.7478 43.3843 19.2021 43.2679 18.4871C43.2547 18.4079 43.2481 18.327 43.2481 18.2436V15.7462L43.2795 15.6785C43.7294 15.889 44.2314 16.0071 44.7614 16.0071C45.2848 16.0071 45.781 15.8923 46.226 15.6867L46.2574 15.7544Z" fill="#FED2A4"/>
<path d="M46.8443 8.48017H42.8609L41.625 8.07398C41.4458 8.01537 41.2609 8.14911 41.2609 8.33817V11.7644L42.4501 13.0373H47.6137L48.2627 11.7644V9.89854C48.2627 9.11506 47.6278 8.48017 46.8443 8.48017Z" fill="#A79BA7"/>
<path d="M43.2481 9.92967C43.2481 9.74061 43.433 9.60686 43.6122 9.66548L44.8481 10.0717H48.2627V9.89854C48.2627 9.11506 47.6278 8.48017 46.8443 8.48017H42.8609L41.625 8.07398C41.4458 8.01537 41.2609 8.14911 41.2609 8.33817V11.7644L42.4501 13.0373H43.2481V9.92967Z" fill="#918291"/>
<path d="M48.2627 11.7644V13.9927C48.2627 15.4028 47.428 16.6189 46.226 17.1729C45.781 17.3784 45.2848 17.4932 44.7614 17.4932C44.2314 17.4932 43.7294 17.3751 43.2795 17.1646C42.0865 16.6065 41.2609 15.3962 41.2609 13.9927V11.7644H48.2627Z" fill="#FED2A4"/>
<path d="M45.2666 17.1646C44.0737 16.6065 43.2481 15.3962 43.2481 13.9927V11.7644H41.2609V13.9927C41.2609 15.3962 42.0865 16.6065 43.2795 17.1646C43.7294 17.3751 44.2314 17.4932 44.7614 17.4932C45.107 17.4932 45.4403 17.4422 45.7551 17.3491C45.5867 17.2992 45.4233 17.238 45.2666 17.1646Z" fill="#FFBD86"/>
</g>
<g filter="url(#filter5_d_740_1808)">
<g filter="url(#filter6_d_740_1808)">
<path d="M15.7612 5.28076C9.97389 5.28076 5.28125 9.97342 5.28125 15.7608C5.28125 19.6596 7.41044 23.0607 10.5691 24.8659L11.2809 24.4772L20.2573 24.3468L20.9405 24.8733C24.1064 23.0701 26.2412 19.665 26.2412 15.7608C26.2412 9.97342 21.5494 5.28076 15.7612 5.28076Z" fill="#E01E5A"/>
</g>
<path d="M15.7611 23.7639C20.1811 23.7639 23.7643 20.1807 23.7643 15.7606C23.7643 11.3405 20.1811 7.75732 15.7611 7.75732C11.341 7.75732 7.75782 11.3405 7.75782 15.7606C7.75782 20.1807 11.341 23.7639 15.7611 23.7639Z" fill="#FDFDFD"/>
<path d="M13.9341 7.96777C10.3985 8.7965 7.75782 11.9758 7.75782 15.7604C7.75782 19.5453 10.3988 22.7247 13.9346 23.5532C11.802 21.6349 10.4605 18.8544 10.4605 15.7601C10.4605 12.6665 11.8018 9.88612 13.9341 7.96777Z" fill="#D8DCE5"/>
<path d="M20.9015 22.4277C20.9015 21.8506 20.6448 21.3032 20.2006 20.9342L17.2574 18.4904L16.6482 17.866H14.8729L14.2481 18.4904L11.3049 20.9342C10.8616 21.3032 10.604 21.8506 10.604 22.4277L10.5685 24.8665C12.0991 25.7408 13.8725 26.2411 15.7614 26.2411C17.6454 26.2411 19.413 25.7441 20.9411 24.8739L20.9015 22.4277Z" fill="#F0F0F0"/>
<path d="M17.6833 18.8441L17.2573 18.4904L16.6481 17.866H14.8728L14.248 18.4904L11.3048 20.9342C10.8615 21.3032 10.6039 21.8506 10.6039 22.4277L10.5684 24.8665C11.1897 25.2213 11.8514 25.5133 12.5442 25.7366L12.5781 23.4058C12.5781 22.8288 12.8357 22.2814 13.279 21.9124L14.0586 21.2651C14.3903 20.9897 14.8265 20.8615 15.2504 20.9401C15.4135 20.9704 15.5815 20.9862 15.7531 20.9862C16.4869 20.9862 17.1759 20.7004 17.6921 20.1827C17.9402 19.9346 18.1346 19.6462 18.2705 19.3317L17.6833 18.8441Z" fill="#D8DCE5"/>
<path d="M17.2574 15.7544V18.2436C17.2574 18.327 17.2508 18.4079 17.2376 18.4871C17.1855 18.805 17.0345 19.089 16.8165 19.3069C16.5449 19.5794 16.1684 19.7478 15.7532 19.7478C15.0052 19.7478 14.3843 19.2021 14.2679 18.4871C14.2547 18.4079 14.2481 18.327 14.2481 18.2436V15.7462L14.2795 15.6785C14.7294 15.889 15.2314 16.0071 15.7614 16.0071C16.2848 16.0071 16.781 15.8923 17.226 15.6867L17.2574 15.7544Z" fill="#FED2A4"/>
<path d="M17.8443 8.48017H13.8609L12.625 8.07398C12.4458 8.01537 12.2609 8.14911 12.2609 8.33817V11.7644L13.4501 13.0373H18.6137L19.2627 11.7644V9.89854C19.2627 9.11506 18.6278 8.48017 17.8443 8.48017Z" fill="#A79BA7"/>
<path d="M14.2481 9.92967C14.2481 9.74061 14.433 9.60686 14.6122 9.66548L15.8481 10.0717H19.2627V9.89854C19.2627 9.11506 18.6278 8.48017 17.8443 8.48017H13.8609L12.625 8.07398C12.4458 8.01537 12.2609 8.14911 12.2609 8.33817V11.7644L13.4501 13.0373H14.2481V9.92967Z" fill="#918291"/>
<path d="M19.2627 11.7644V13.9927C19.2627 15.4028 18.428 16.6189 17.226 17.1729C16.781 17.3784 16.2848 17.4932 15.7614 17.4932C15.2314 17.4932 14.7294 17.3751 14.2795 17.1646C13.0865 16.6065 12.2609 15.3962 12.2609 13.9927V11.7644H19.2627Z" fill="#FED2A4"/>
<path d="M16.2666 17.1646C15.0737 16.6065 14.2481 15.3962 14.2481 13.9927V11.7644H12.2609V13.9927C12.2609 15.3962 13.0865 16.6065 14.2795 17.1646C14.7294 17.3751 15.2314 17.4932 15.7614 17.4932C16.107 17.4932 16.4403 17.4422 16.7551 17.3491C16.5867 17.2992 16.4233 17.238 16.2666 17.1646Z" fill="#FFBD86"/>
</g>
<g filter="url(#filter7_d_740_1808)">
<g filter="url(#filter8_d_740_1808)">
<path d="M13.7709 36.981C8.91633 36.981 4.98145 40.9158 4.98145 45.7713C4.98145 48.6965 6.41061 51.2873 8.60839 52.885L9.38343 52.1601L18.0475 52.2948L18.9325 52.8864C21.1315 51.2889 22.5614 48.6974 22.5614 45.7714C22.5614 40.9158 18.6265 36.981 13.7709 36.981Z" fill="#918291"/>
<path d="M13.7707 51.847C10.4201 51.847 7.6943 49.1212 7.6943 45.7706C7.6943 42.4196 10.4201 39.6934 13.7707 39.6934C17.1217 39.6934 19.848 42.4196 19.848 45.7706C19.8481 49.1212 17.1218 51.847 13.7707 51.847Z" fill="#FDFDFD"/>
<path d="M12.2462 51.6532C10.8417 50.0956 9.98595 48.0335 9.98595 45.7707C9.98595 43.5074 10.8417 41.445 12.2463 39.8872C9.63117 40.5654 7.6943 42.946 7.6943 45.7707C7.69439 48.5949 9.63117 50.9752 12.2462 51.6532Z" fill="#D8DCE5"/>
</g>
<path d="M13.7712 47.2642C16.6199 47.2642 18.9287 49.573 18.9287 52.4217L18.9332 52.8864C17.4699 53.9762 15.7372 54.5605 13.7712 54.5605C11.806 54.5605 10.0722 53.9751 8.60807 52.8854L8.61359 52.4217C8.61359 50.9973 9.19057 49.7077 10.1248 48.7744C11.0581 47.8411 12.3468 47.2642 13.7712 47.2642Z" fill="#F0F0F0"/>
<path d="M13.7712 39.6938C15.8621 39.6938 17.5568 41.3886 17.5568 43.4786C17.5568 45.5694 15.8621 47.2642 13.7712 47.2642C11.6812 47.2642 9.98641 45.5694 9.98641 43.4786C9.98641 41.3886 11.6812 39.6938 13.7712 39.6938Z" fill="#FFE5C2"/>
<path d="M10.6332 53.7479C10.6332 52.3236 11.2102 51.034 12.1444 50.1007C13.0777 49.1674 14.3664 48.5904 15.7908 48.5904C16.4011 48.5904 16.9877 48.6966 17.5311 48.8912C16.5904 47.8899 15.2537 47.2642 13.7712 47.2642C12.3468 47.2642 11.0581 47.8411 10.1248 48.7744C9.19057 49.7077 8.61359 50.9973 8.61359 52.4217L8.60807 52.8854C9.2338 53.351 9.90954 53.7245 10.6307 53.9997L10.6332 53.7479Z" fill="#D8DCE5"/>
<path d="M12.6198 43.3782C12.6198 41.8028 13.5852 40.4521 14.9545 39.8824C14.5827 39.7604 14.1837 39.6938 13.7712 39.6938C11.6812 39.6938 9.98641 41.3886 9.98641 43.4786C9.98641 45.5694 11.6812 47.2642 13.7712 47.2642C14.286 47.2642 14.7768 47.1611 15.2242 46.975C13.7124 46.4788 12.6198 45.0565 12.6198 43.3782Z" fill="#FED2A4"/>
</g>
<g filter="url(#filter9_d_740_1808)">
<g filter="url(#filter10_d_740_1808)">
<path d="M45.7709 36.981C40.9163 36.981 36.9814 40.9158 36.9814 45.7713C36.9814 48.6965 38.4106 51.2873 40.6084 52.885L41.3834 52.1601L50.0475 52.2948L50.9325 52.8864C53.1315 51.2889 54.5614 48.6974 54.5614 45.7714C54.5614 40.9158 50.6265 36.981 45.7709 36.981Z" fill="#918291"/>
<path d="M45.7707 51.847C42.4201 51.847 39.6943 49.1212 39.6943 45.7706C39.6943 42.4196 42.4201 39.6934 45.7707 39.6934C49.1217 39.6934 51.848 42.4196 51.848 45.7706C51.8481 49.1212 49.1218 51.847 45.7707 51.847Z" fill="#FDFDFD"/>
<path d="M44.2462 51.6532C42.8417 50.0956 41.986 48.0335 41.986 45.7707C41.986 43.5074 42.8417 41.445 44.2463 39.8872C41.6312 40.5654 39.6943 42.946 39.6943 45.7707C39.6944 48.5949 41.6312 50.9752 44.2462 51.6532Z" fill="#D8DCE5"/>
</g>
<path d="M45.7712 47.2642C48.6199 47.2642 50.9287 49.573 50.9287 52.4217L50.9332 52.8864C49.4699 53.9762 47.7372 54.5605 45.7712 54.5605C43.806 54.5605 42.0722 53.9751 40.6081 52.8854L40.6136 52.4217C40.6136 50.9973 41.1906 49.7077 42.1248 48.7744C43.0581 47.8411 44.3468 47.2642 45.7712 47.2642Z" fill="#F0F0F0"/>
<path d="M45.7712 39.6938C47.8621 39.6938 49.5568 41.3886 49.5568 43.4786C49.5568 45.5694 47.8621 47.2642 45.7712 47.2642C43.6812 47.2642 41.9864 45.5694 41.9864 43.4786C41.9864 41.3886 43.6812 39.6938 45.7712 39.6938Z" fill="#FFE5C2"/>
<path d="M42.6332 53.7479C42.6332 52.3236 43.2102 51.034 44.1444 50.1007C45.0777 49.1674 46.3664 48.5904 47.7908 48.5904C48.4011 48.5904 48.9877 48.6966 49.5311 48.8912C48.5904 47.8899 47.2537 47.2642 45.7712 47.2642C44.3468 47.2642 43.0581 47.8411 42.1248 48.7744C41.1906 49.7077 40.6136 50.9973 40.6136 52.4217L40.6081 52.8854C41.2338 53.351 41.9095 53.7245 42.6307 53.9997L42.6332 53.7479Z" fill="#D8DCE5"/>
<path d="M44.6198 43.3782C44.6198 41.8028 45.5852 40.4521 46.9545 39.8824C46.5827 39.7604 46.1837 39.6938 45.7712 39.6938C43.6812 39.6938 41.9864 41.3886 41.9864 43.4786C41.9864 45.5694 43.6812 47.2642 45.7712 47.2642C46.286 47.2642 46.7768 47.1611 47.2242 46.975C45.7124 46.4788 44.6198 45.0565 44.6198 43.3782Z" fill="#FED2A4"/>
</g>
<defs>
<filter id="filter0_d_740_1808" x="17.79" y="18.8096" width="25" height="23.4241" filterUnits="userSpaceOnUse" color-interpolation-filters="sRGB">
<feFlood flood-opacity="0" result="BackgroundImageFix"/>
<feColorMatrix in="SourceAlpha" type="matrix" values="0 0 0 0 0 0 0 0 0 0 0 0 0 0 0 0 0 0 127 0" result="hardAlpha"/>
<feOffset dy="1"/>
<feGaussianBlur stdDeviation="2"/>
<feComposite in2="hardAlpha" operator="out"/>
<feColorMatrix type="matrix" values="0 0 0 0 0 0 0 0 0 0 0 0 0 0 0 0 0 0 0.25 0"/>
<feBlend mode="normal" in2="BackgroundImageFix" result="effect1_dropShadow_740_1808"/>
<feBlend mode="normal" in="SourceGraphic" in2="effect1_dropShadow_740_1808" result="shape"/>
</filter>
<filter id="filter1_d_740_1808" x="8.93262" y="11.6003" width="42.1364" height="32.5488" filterUnits="userSpaceOnUse" color-interpolation-filters="sRGB">
<feFlood flood-opacity="0" result="BackgroundImageFix"/>
<feColorMatrix in="SourceAlpha" type="matrix" values="0 0 0 0 0 0 0 0 0 0 0 0 0 0 0 0 0 0 127 0" result="hardAlpha"/>
<feOffset dy="1"/>
<feGaussianBlur stdDeviation="2"/>
<feComposite in2="hardAlpha" operator="out"/>
<feColorMatrix type="matrix" values="0 0 0 0 0 0 0 0 0 0 0 0 0 0 0 0 0 0 0.25 0"/>
<feBlend mode="normal" in2="BackgroundImageFix" result="effect1_dropShadow_740_1808"/>
<feBlend mode="normal" in="SourceGraphic" in2="effect1_dropShadow_740_1808" result="shape"/>
</filter>
<filter id="filter2_d_740_1808" x="16.8232" y="43.114" width="26.3202" height="9.75781" filterUnits="userSpaceOnUse" color-interpolation-filters="sRGB">
<feFlood flood-opacity="0" result="BackgroundImageFix"/>
<feColorMatrix in="SourceAlpha" type="matrix" values="0 0 0 0 0 0 0 0 0 0 0 0 0 0 0 0 0 0 127 0" result="hardAlpha"/>
<feOffset dy="1"/>
<feGaussianBlur stdDeviation="2"/>
<feComposite in2="hardAlpha" operator="out"/>
<feColorMatrix type="matrix" values="0 0 0 0 0 0 0 0 0 0 0 0 0 0 0 0 0 0 0.25 0"/>
<feBlend mode="normal" in2="BackgroundImageFix" result="effect1_dropShadow_740_1808"/>
<feBlend mode="normal" in="SourceGraphic" in2="effect1_dropShadow_740_1808" result="shape"/>
</filter>
<filter id="filter3_d_740_1808" x="30.2812" y="2.28076" width="28.96" height="28.9604" filterUnits="userSpaceOnUse" color-interpolation-filters="sRGB">
<feFlood flood-opacity="0" result="BackgroundImageFix"/>
<feColorMatrix in="SourceAlpha" type="matrix" values="0 0 0 0 0 0 0 0 0 0 0 0 0 0 0 0 0 0 127 0" result="hardAlpha"/>
<feOffset dy="1"/>
<feGaussianBlur stdDeviation="2"/>
<feComposite in2="hardAlpha" operator="out"/>
<feColorMatrix type="matrix" values="0 0 0 0 0 0 0 0 0 0 0 0 0 0 0 0 0 0 0.25 0"/>
<feBlend mode="normal" in2="BackgroundImageFix" result="effect1_dropShadow_740_1808"/>
<feBlend mode="normal" in="SourceGraphic" in2="effect1_dropShadow_740_1808" result="shape"/>
</filter>
<filter id="filter4_d_740_1808" x="30.9963" y="2.81702" width="27.53" height="26.1625" filterUnits="userSpaceOnUse" color-interpolation-filters="sRGB">
<feFlood flood-opacity="0" result="BackgroundImageFix"/>
<feColorMatrix in="SourceAlpha" type="matrix" values="0 0 0 0 0 0 0 0 0 0 0 0 0 0 0 0 0 0 127 0" result="hardAlpha"/>
<feOffset dy="0.821248"/>
<feGaussianBlur stdDeviation="1.6425"/>
<feComposite in2="hardAlpha" operator="out"/>
<feColorMatrix type="matrix" values="0 0 0 0 0 0 0 0 0 0 0 0 0 0 0 0 0 0 0.15 0"/>
<feBlend mode="normal" in2="BackgroundImageFix" result="effect1_dropShadow_740_1808"/>
<feBlend mode="normal" in="SourceGraphic" in2="effect1_dropShadow_740_1808" result="shape"/>
</filter>
<filter id="filter5_d_740_1808" x="1.28125" y="2.28076" width="28.96" height="28.9604" filterUnits="userSpaceOnUse" color-interpolation-filters="sRGB">
<feFlood flood-opacity="0" result="BackgroundImageFix"/>
<feColorMatrix in="SourceAlpha" type="matrix" values="0 0 0 0 0 0 0 0 0 0 0 0 0 0 0 0 0 0 127 0" result="hardAlpha"/>
<feOffset dy="1"/>
<feGaussianBlur stdDeviation="2"/>
<feComposite in2="hardAlpha" operator="out"/>
<feColorMatrix type="matrix" values="0 0 0 0 0 0 0 0 0 0 0 0 0 0 0 0 0 0 0.25 0"/>
<feBlend mode="normal" in2="BackgroundImageFix" result="effect1_dropShadow_740_1808"/>
<feBlend mode="normal" in="SourceGraphic" in2="effect1_dropShadow_740_1808" result="shape"/>
</filter>
<filter id="filter6_d_740_1808" x="1.99626" y="2.81702" width="27.53" height="26.1625" filterUnits="userSpaceOnUse" color-interpolation-filters="sRGB">
<feFlood flood-opacity="0" result="BackgroundImageFix"/>
<feColorMatrix in="SourceAlpha" type="matrix" values="0 0 0 0 0 0 0 0 0 0 0 0 0 0 0 0 0 0 127 0" result="hardAlpha"/>
<feOffset dy="0.821248"/>
<feGaussianBlur stdDeviation="1.6425"/>
<feComposite in2="hardAlpha" operator="out"/>
<feColorMatrix type="matrix" values="0 0 0 0 0 0 0 0 0 0 0 0 0 0 0 0 0 0 0.15 0"/>
<feBlend mode="normal" in2="BackgroundImageFix" result="effect1_dropShadow_740_1808"/>
<feBlend mode="normal" in="SourceGraphic" in2="effect1_dropShadow_740_1808" result="shape"/>
</filter>
<filter id="filter7_d_740_1808" x="0.981445" y="33.981" width="25.58" height="25.5796" filterUnits="userSpaceOnUse" color-interpolation-filters="sRGB">
<feFlood flood-opacity="0" result="BackgroundImageFix"/>
<feColorMatrix in="SourceAlpha" type="matrix" values="0 0 0 0 0 0 0 0 0 0 0 0 0 0 0 0 0 0 127 0" result="hardAlpha"/>
<feOffset dy="1"/>
<feGaussianBlur stdDeviation="2"/>
<feComposite in2="hardAlpha" operator="out"/>
<feColorMatrix type="matrix" values="0 0 0 0 0 0 0 0 0 0 0 0 0 0 0 0 0 0 0.25 0"/>
<feBlend mode="normal" in2="BackgroundImageFix" result="effect1_dropShadow_740_1808"/>
<feBlend mode="normal" in="SourceGraphic" in2="effect1_dropShadow_740_1808" result="shape"/>
</filter>
<filter id="filter8_d_740_1808" x="1.38303" y="34.2821" width="24.7768" height="23.1024" filterUnits="userSpaceOnUse" color-interpolation-filters="sRGB">
<feFlood flood-opacity="0" result="BackgroundImageFix"/>
<feColorMatrix in="SourceAlpha" type="matrix" values="0 0 0 0 0 0 0 0 0 0 0 0 0 0 0 0 0 0 127 0" result="hardAlpha"/>
<feOffset dy="0.899604"/>
<feGaussianBlur stdDeviation="1.79921"/>
<feComposite in2="hardAlpha" operator="out"/>
<feColorMatrix type="matrix" values="0 0 0 0 0 0 0 0 0 0 0 0 0 0 0 0 0 0 0.15 0"/>
<feBlend mode="normal" in2="BackgroundImageFix" result="effect1_dropShadow_740_1808"/>
<feBlend mode="normal" in="SourceGraphic" in2="effect1_dropShadow_740_1808" result="shape"/>
</filter>
<filter id="filter9_d_740_1808" x="32.9814" y="33.981" width="25.58" height="25.5796" filterUnits="userSpaceOnUse" color-interpolation-filters="sRGB">
<feFlood flood-opacity="0" result="BackgroundImageFix"/>
<feColorMatrix in="SourceAlpha" type="matrix" values="0 0 0 0 0 0 0 0 0 0 0 0 0 0 0 0 0 0 127 0" result="hardAlpha"/>
<feOffset dy="1"/>
<feGaussianBlur stdDeviation="2"/>
<feComposite in2="hardAlpha" operator="out"/>
<feColorMatrix type="matrix" values="0 0 0 0 0 0 0 0 0 0 0 0 0 0 0 0 0 0 0.25 0"/>
<feBlend mode="normal" in2="BackgroundImageFix" result="effect1_dropShadow_740_1808"/>
<feBlend mode="normal" in="SourceGraphic" in2="effect1_dropShadow_740_1808" result="shape"/>
</filter>
<filter id="filter10_d_740_1808" x="33.383" y="34.2821" width="24.7768" height="23.1024" filterUnits="userSpaceOnUse" color-interpolation-filters="sRGB">
<feFlood flood-opacity="0" result="BackgroundImageFix"/>
<feColorMatrix in="SourceAlpha" type="matrix" values="0 0 0 0 0 0 0 0 0 0 0 0 0 0 0 0 0 0 127 0" result="hardAlpha"/>
<feOffset dy="0.899604"/>
<feGaussianBlur stdDeviation="1.79921"/>
<feComposite in2="hardAlpha" operator="out"/>
<feColorMatrix type="matrix" values="0 0 0 0 0 0 0 0 0 0 0 0 0 0 0 0 0 0 0.15 0"/>
<feBlend mode="normal" in2="BackgroundImageFix" result="effect1_dropShadow_740_1808"/>
<feBlend mode="normal" in="SourceGraphic" in2="effect1_dropShadow_740_1808" result="shape"/>
</filter>
</defs>
</svg>
