<svg width="72" height="72" viewBox="0 0 72 72" fill="none" xmlns="http://www.w3.org/2000/svg">
<path d="M8 61.5788V10.9072C8 9.88233 8.77475 9.0233 9.7942 8.91784L35.7942 6.22819C36.9739 6.10615 38 7.0316 38 8.21757V63.8202C38 64.9925 36.9962 65.9135 35.8282 65.8128L9.82822 63.5714C8.79407 63.4823 8 62.6168 8 61.5788Z" fill="#5F4F50"/>
<path d="M47.5789 8.58594H40C38.8954 8.58594 38 9.48137 38 10.5859V62.448C38 63.5526 38.8954 64.448 40 64.448H47.5789C48.6835 64.448 49.5789 63.5526 49.5789 62.448V43.7584V31.3446V10.5859C49.5789 9.48137 48.6835 8.58594 47.5789 8.58594Z" fill="#F0F0F0"/>
<ellipse cx="30.1052" cy="37.0345" rx="2.63158" ry="2.58621" fill="#FFFEFB"/>
<path d="M43.7896 36.5173H63.2632M63.2632 36.5173L59.0527 40.6553M63.2632 36.5173L59.0527 32.3794" stroke="#2E2E2E" stroke-width="3" stroke-linecap="round" stroke-linejoin="round"/>
</svg>
