<svg width="60" height="60" viewBox="0 0 60 60" fill="none" xmlns="http://www.w3.org/2000/svg">
<g filter="url(#filter0_d_741_2367)">
<path d="M31.3495 42.987C40.3691 42.987 47.681 35.6749 47.681 26.655C47.681 17.6351 40.3691 10.323 31.3495 10.323C22.3298 10.323 15.0179 17.6351 15.0179 26.655C15.0179 35.6749 22.3298 42.987 31.3495 42.987Z" fill="#E6E6E6"/>
<path d="M31.3497 9.50513C30.8987 9.50513 30.5331 9.87073 30.5331 10.3217C30.5331 10.7727 30.8987 11.1383 31.3497 11.1383C38.8045 11.1325 45.2114 16.4257 46.6124 23.7479C48.0134 31.0702 44.013 38.3547 37.0825 41.1014C30.1521 43.848 22.2477 41.2816 18.2526 34.9874C14.2575 28.6933 15.2992 20.4481 20.7342 15.3455V16.0379C20.7342 16.4889 21.0997 16.8545 21.5507 16.8545C22.0017 16.8545 22.3673 16.4889 22.3673 16.0379V13.5881C22.3673 13.1371 22.0017 12.7715 21.5507 12.7715H19.101C18.65 12.7715 18.2844 13.1371 18.2844 13.5881C18.2844 14.0391 18.65 14.4047 19.101 14.4047H19.3582C13.5058 20.1409 12.5317 29.2171 17.0336 36.0646C21.5356 42.9121 30.2543 45.6154 37.8402 42.5158C45.4261 39.4163 49.7573 31.3809 48.1763 23.34C46.5953 15.299 39.5443 9.50174 31.3497 9.50513Z" fill="#85092F"/>
<path d="M31.3498 40.5362C30.8989 40.5362 30.5333 40.1706 30.5333 39.7196V38.0864C30.5333 37.6354 30.8989 37.2698 31.3498 37.2698C31.8008 37.2698 32.1664 37.6354 32.1664 38.0864V39.7196C32.1664 40.1706 31.8008 40.5362 31.3498 40.5362Z" fill="#A21641"/>
<path d="M37.8857 38.7854C37.5937 38.7857 37.3237 38.63 37.1777 38.3771L36.3611 36.9627C36.2129 36.71 36.2115 36.3971 36.3575 36.143C36.5034 35.8889 36.7743 35.7325 37.0674 35.7332C37.3604 35.7338 37.6306 35.8914 37.7754 36.1461L38.592 37.5605C38.7378 37.813 38.7379 38.1241 38.5922 38.3767C38.4466 38.6293 38.1773 38.7851 37.8857 38.7854Z" fill="#A21641"/>
<path d="M42.665 34.003C42.5216 34.003 42.3808 33.9653 42.2567 33.8936L40.8432 33.077C40.5885 32.9322 40.4309 32.662 40.4302 32.3689C40.4296 32.0759 40.586 31.805 40.8401 31.659C41.0942 31.5131 41.407 31.5145 41.6598 31.6627L43.0733 32.4793C43.3933 32.6641 43.5493 33.0408 43.4537 33.3978C43.358 33.7548 43.0345 34.003 42.665 34.003Z" fill="#A21641"/>
<path d="M44.4174 27.4701H42.7843C42.3333 27.4701 41.9677 27.1045 41.9677 26.6535C41.9677 26.2025 42.3333 25.8369 42.7843 25.8369H44.4174C44.8684 25.8369 45.234 26.2025 45.234 26.6535C45.234 27.1045 44.8684 27.4701 44.4174 27.4701Z" fill="#A21641"/>
<path d="M41.2538 21.7543C40.8843 21.7543 40.5608 21.506 40.4651 21.149C40.3695 20.792 40.5255 20.4153 40.8456 20.2305L42.259 19.4139C42.5118 19.2657 42.8246 19.2643 43.0787 19.4103C43.3328 19.5562 43.4892 19.8271 43.4886 20.1202C43.488 20.4132 43.3304 20.6834 43.0756 20.8282L41.6621 21.6448C41.538 21.7165 41.3972 21.7543 41.2538 21.7543Z" fill="#A21641"/>
<path d="M37.0663 17.5691C36.7747 17.5688 36.5054 17.413 36.3597 17.1604C36.2141 16.9078 36.2142 16.5967 36.3599 16.3442L37.1765 14.9298C37.3214 14.6751 37.5916 14.5175 37.8846 14.5168C38.1776 14.5162 38.4485 14.6726 38.5945 14.9267C38.7404 15.1808 38.739 15.4936 38.5908 15.7464L37.7743 17.1608C37.6283 17.4137 37.3583 17.5694 37.0663 17.5691Z" fill="#A21641"/>
<path d="M31.3492 16.0376C30.8982 16.0376 30.5326 15.672 30.5326 15.221V13.5878C30.5326 13.1368 30.8982 12.7712 31.3492 12.7712C31.8002 12.7712 32.1658 13.1368 32.1658 13.5878V15.221C32.1658 15.672 31.8002 16.0376 31.3492 16.0376Z" fill="#A21641"/>
<path d="M25.6341 17.5698C25.3421 17.5701 25.0721 17.4144 24.9261 17.1615L24.1095 15.7472C23.9613 15.4944 23.96 15.1816 24.1059 14.9275C24.2518 14.6734 24.5228 14.5169 24.8158 14.5176C25.1088 14.5182 25.379 14.6758 25.5238 14.9306L26.3404 16.3449C26.4862 16.5974 26.4863 16.9086 26.3406 17.1612C26.195 17.4138 25.9257 17.5695 25.6341 17.5698Z" fill="#A21641"/>
<path d="M21.4503 21.7538C21.3069 21.7538 21.1661 21.716 21.042 21.6444L19.6285 20.8278C19.3738 20.6829 19.2162 20.4127 19.2155 20.1197C19.2149 19.8266 19.3713 19.5557 19.6254 19.4098C19.8795 19.2638 20.1923 19.2652 20.4451 19.4134L21.8586 20.23C22.1786 20.4148 22.3346 20.7915 22.239 21.1485C22.1433 21.5055 21.8199 21.7538 21.4503 21.7538Z" fill="#A21641"/>
<path d="M19.9192 27.4704H18.286C17.835 27.4704 17.4695 27.1048 17.4695 26.6538C17.4695 26.2028 17.835 25.8372 18.286 25.8372H19.9192C20.3702 25.8372 20.7358 26.2028 20.7358 26.6538C20.7358 27.1048 20.3702 27.4704 19.9192 27.4704Z" fill="#A21641"/>
<path d="M20.0376 34.0023C19.6681 34.0023 19.3446 33.7541 19.2489 33.3971C19.1533 33.0401 19.3093 32.6633 19.6293 32.4785L21.0428 31.6619C21.2956 31.5137 21.6084 31.5124 21.8625 31.6583C22.1166 31.8043 22.273 32.0752 22.2724 32.3682C22.2717 32.6612 22.1141 32.9315 21.8594 33.0763L20.4459 33.8929C20.3218 33.9646 20.181 34.0023 20.0376 34.0023Z" fill="#A21641"/>
<path d="M24.8181 38.7844C24.5265 38.7841 24.2572 38.6284 24.1115 38.3758C23.9658 38.1232 23.9659 37.812 24.1117 37.5595L24.9283 36.1452C25.0731 35.8904 25.3433 35.7328 25.6364 35.7322C25.9294 35.7315 26.2003 35.888 26.3462 36.1421C26.4922 36.3961 26.4908 36.709 26.3426 36.9618L25.526 38.3761C25.38 38.629 25.1101 38.7847 24.8181 38.7844Z" fill="#A21641"/>
<path d="M31.3494 25.8374C30.8984 25.8374 30.5328 25.4718 30.5328 25.0208V18.488C30.5328 18.037 30.8984 17.6714 31.3494 17.6714C31.8003 17.6714 32.1659 18.037 32.1659 18.488V25.0208C32.1659 25.4718 31.8003 25.8374 31.3494 25.8374Z" fill="#A21641"/>
<path d="M37.0643 27.4699H32.9814C32.5304 27.4699 32.1648 27.1043 32.1648 26.6533C32.1648 26.2023 32.5304 25.8367 32.9814 25.8367H37.0643C37.5152 25.8367 37.8808 26.2023 37.8808 26.6533C37.8808 27.1043 37.5152 27.4699 37.0643 27.4699Z" fill="#A21641"/>
<path d="M31.3505 29.1032C32.7034 29.1032 33.8002 28.0064 33.8002 26.6534C33.8002 25.3004 32.7034 24.2036 31.3505 24.2036C29.9975 24.2036 28.9008 25.3004 28.9008 26.6534C28.9008 28.0064 29.9975 29.1032 31.3505 29.1032Z" fill="#E01E5A"/>
</g>
<g filter="url(#filter1_d_741_2367)">
<g filter="url(#filter2_d_741_2367)">
<path d="M25.645 34.8999V39.3446V48.2341H16.7563H9.77226C9.43536 48.2345 9.11213 48.1008 8.8739 47.8626C8.63567 47.6243 8.50202 47.3011 8.50244 46.9641L8.50244 34.8999H25.645Z" fill="#F5F5F5"/>
<path d="M25.6449 33.6312V34.9012H8.50229V33.6312C8.50229 32.9299 9.07081 32.3613 9.77211 32.3613H24.3751C25.0764 32.3613 25.6449 32.9299 25.6449 33.6312Z" fill="#E01E5A"/>
<path d="M9.18374 32.5215V35.1779H8.50266V33.4751C8.50266 33.21 8.7785 32.6371 9.18374 32.5215Z" fill="#85092F"/>
</g>
<path d="M8.50015 34.8379V46.9718C8.50015 47.606 9.0148 48.1201 9.64977 48.1201H10.0744C9.53826 48.0229 9.13244 47.5544 9.13244 46.9909V35.6501C9.17575 35.5334 9.28802 35.4503 9.41985 35.4503H25.6295V34.857V34.8379H8.50015Z" fill="#E6E6E6"/>
<path d="M10.2047 40.6289H23.4859M10.2047 42.6723H18.5481" stroke="#8B8B8B" stroke-width="0.681109" stroke-linecap="round" stroke-linejoin="round"/>
<path d="M10.6938 37.8731C10.6938 38.0636 10.7821 38.1589 10.9586 38.1589C11.0452 38.1589 11.1116 38.1331 11.1579 38.0816C11.2051 38.0291 11.2287 37.9596 11.2287 37.8731C11.2287 37.8268 11.2217 37.7861 11.2078 37.7511C11.1946 37.7153 11.1759 37.6856 11.1514 37.662C11.1278 37.6384 11.0989 37.6205 11.0648 37.6082C11.0308 37.596 10.9936 37.5899 10.9534 37.5899C10.9123 37.5899 10.8756 37.5973 10.8433 37.6122C10.8118 37.6262 10.7847 37.6458 10.762 37.6712C10.7401 37.6965 10.7231 37.7267 10.7108 37.7616C10.6995 37.7957 10.6938 37.8329 10.6938 37.8731ZM11.019 38.4762C11.0312 38.4613 11.043 38.4469 11.0544 38.4329C11.0657 38.419 11.0762 38.405 11.0858 38.391C11.0054 38.4338 10.9141 38.4552 10.8118 38.4552C10.7497 38.4552 10.6877 38.4443 10.6256 38.4224C10.5636 38.3997 10.5072 38.3656 10.4565 38.3202C10.4067 38.2747 10.366 38.2175 10.3345 38.1484C10.3031 38.0794 10.2873 37.9976 10.2873 37.9032C10.2873 37.8167 10.3031 37.735 10.3345 37.6581C10.3669 37.5811 10.4123 37.5138 10.4709 37.4561C10.5303 37.3985 10.6011 37.353 10.6833 37.3198C10.7655 37.2857 10.8573 37.2686 10.9586 37.2686C11.0618 37.2686 11.154 37.2844 11.2353 37.3159C11.3166 37.3473 11.3852 37.3915 11.4411 37.4483C11.498 37.5051 11.5412 37.5728 11.5709 37.6515C11.6015 37.7293 11.6168 37.8154 11.6168 37.9098C11.6168 38.0348 11.598 38.1467 11.5605 38.2454C11.5229 38.3442 11.4726 38.4373 11.4097 38.5247L10.998 39.1095C10.9796 39.1348 10.9517 39.1562 10.9141 39.1737C10.8774 39.1912 10.8354 39.2 10.7882 39.2H10.4132L11.019 38.4762ZM12.8861 37.8403V39.2026C12.8861 39.2664 12.8778 39.3263 12.8612 39.3822C12.8454 39.439 12.8188 39.4884 12.7812 39.5304C12.7445 39.5732 12.6955 39.6068 12.6343 39.6313C12.574 39.6558 12.4989 39.668 12.4088 39.668C12.3756 39.668 12.345 39.6658 12.317 39.6615C12.2882 39.658 12.2585 39.6523 12.2279 39.6444L12.241 39.4307C12.2427 39.4124 12.2489 39.3988 12.2594 39.3901C12.2698 39.3813 12.2908 39.377 12.3223 39.377C12.3538 39.377 12.3795 39.3743 12.3996 39.3691C12.4197 39.3638 12.4355 39.3547 12.4468 39.3416C12.4591 39.3284 12.4674 39.3105 12.4718 39.2878C12.477 39.2659 12.4796 39.2375 12.4796 39.2026V37.8403H12.8861ZM12.928 37.4679C12.928 37.5003 12.9215 37.5309 12.9084 37.5597C12.8953 37.5877 12.8773 37.6126 12.8546 37.6345C12.8319 37.6554 12.8052 37.6725 12.7746 37.6856C12.7449 37.6978 12.713 37.7039 12.6789 37.7039C12.6457 37.7039 12.6147 37.6978 12.5858 37.6856C12.557 37.6725 12.5312 37.6554 12.5085 37.6345C12.4866 37.6126 12.4691 37.5877 12.456 37.5597C12.4438 37.5309 12.4377 37.5003 12.4377 37.4679C12.4377 37.4347 12.4438 37.4037 12.456 37.3749C12.4691 37.346 12.4866 37.3207 12.5085 37.2988C12.5312 37.277 12.557 37.2599 12.5858 37.2477C12.6147 37.2354 12.6457 37.2293 12.6789 37.2293C12.713 37.2293 12.7449 37.2354 12.7746 37.2477C12.8052 37.2599 12.8319 37.277 12.8546 37.2988C12.8773 37.3207 12.8953 37.346 12.9084 37.3749C12.9215 37.4037 12.928 37.4347 12.928 37.4679ZM14.3889 37.8403V39.2H14.1372C14.0865 39.2 14.0533 39.1772 14.0375 39.1318L14.0139 39.0531C13.9877 39.0785 13.9606 39.1016 13.9326 39.1226C13.9047 39.1427 13.8745 39.1602 13.8422 39.175C13.8107 39.189 13.7762 39.2 13.7386 39.2078C13.7019 39.2166 13.6617 39.2209 13.618 39.2209C13.5437 39.2209 13.4777 39.2083 13.42 39.1829C13.3632 39.1567 13.3151 39.1204 13.2757 39.0741C13.2364 39.0278 13.2067 38.9731 13.1866 38.9102C13.1665 38.8473 13.1564 38.7782 13.1564 38.703V37.8403H13.5629V38.703C13.5629 38.7703 13.5782 38.8223 13.6088 38.8591C13.6394 38.8958 13.6844 38.9141 13.7438 38.9141C13.7884 38.9141 13.8299 38.9049 13.8684 38.8866C13.9077 38.8674 13.9457 38.8416 13.9824 38.8092V37.8403H14.3889ZM15.04 37.9872C15.0663 37.9627 15.0934 37.94 15.1213 37.919C15.1493 37.898 15.179 37.8805 15.2105 37.8665C15.2428 37.8517 15.2774 37.8403 15.3141 37.8324C15.3517 37.8237 15.3923 37.8193 15.436 37.8193C15.5103 37.8193 15.5759 37.8324 15.6327 37.8587C15.6904 37.884 15.7389 37.9198 15.7782 37.9662C15.8175 38.0116 15.8473 38.0663 15.8674 38.1301C15.8875 38.193 15.8975 38.2616 15.8975 38.3359V39.2H15.4911V38.3359C15.4911 38.2695 15.4758 38.2179 15.4452 38.1812C15.4146 38.1436 15.3696 38.1248 15.3101 38.1248C15.2656 38.1248 15.2236 38.1344 15.1843 38.1537C15.1458 38.172 15.1082 38.1974 15.0715 38.2297V39.2H14.6651V37.8403H14.9168C14.9675 37.8403 15.0007 37.863 15.0164 37.9085L15.04 37.9872ZM17.0063 38.3569C17.0063 38.3246 17.0019 38.2931 16.9931 38.2625C16.9853 38.2319 16.9717 38.2048 16.9525 38.1812C16.9341 38.1567 16.9097 38.1371 16.8791 38.1222C16.8485 38.1073 16.8113 38.0999 16.7676 38.0999C16.6907 38.0999 16.6304 38.1222 16.5867 38.1668C16.543 38.2105 16.5141 38.2739 16.5002 38.3569H17.0063ZM16.4949 38.5929C16.508 38.7065 16.5425 38.7891 16.5985 38.8407C16.6544 38.8914 16.7265 38.9167 16.8148 38.9167C16.862 38.9167 16.9027 38.9111 16.9368 38.8997C16.9709 38.8883 17.001 38.8757 17.0272 38.8617C17.0543 38.8477 17.0788 38.835 17.1007 38.8237C17.1234 38.8123 17.147 38.8066 17.1715 38.8066C17.2038 38.8066 17.2283 38.8184 17.2449 38.842L17.3629 38.9875C17.3209 39.0356 17.2755 39.075 17.2265 39.1055C17.1784 39.1353 17.1286 39.1589 17.0771 39.1764C17.0264 39.193 16.9752 39.2043 16.9237 39.2104C16.873 39.2174 16.8244 39.2209 16.7781 39.2209C16.6828 39.2209 16.5932 39.2056 16.5093 39.175C16.4263 39.1436 16.3533 39.0972 16.2904 39.0361C16.2283 38.9749 16.1789 38.8988 16.1422 38.8079C16.1064 38.717 16.0885 38.6113 16.0885 38.4906C16.0885 38.3997 16.1038 38.3136 16.1343 38.2323C16.1658 38.151 16.2104 38.0798 16.2681 38.0186C16.3266 37.9574 16.397 37.9089 16.4792 37.8731C16.5622 37.8372 16.6557 37.8193 16.7598 37.8193C16.8498 37.8193 16.932 37.8333 17.0063 37.8613C17.0814 37.8893 17.1457 37.9299 17.199 37.9832C17.2532 38.0365 17.2951 38.1021 17.3249 38.1799C17.3555 38.2568 17.3707 38.3442 17.3707 38.4421C17.3707 38.4727 17.3694 38.4976 17.3668 38.5168C17.3642 38.5361 17.3594 38.5514 17.3524 38.5627C17.3454 38.5741 17.3358 38.582 17.3235 38.5863C17.3122 38.5907 17.2973 38.5929 17.279 38.5929H16.4949ZM19.323 38.8328C19.3668 38.8328 19.4013 38.8451 19.4266 38.8695C19.452 38.8931 19.4647 38.9246 19.4647 38.9639V39.2H18.122V39.0688C18.122 39.0435 18.1273 39.0164 18.1378 38.9875C18.1483 38.9587 18.1666 38.9325 18.1929 38.9089L18.7435 38.3543C18.7907 38.3071 18.8318 38.2621 18.8668 38.2192C18.9017 38.1764 18.9306 38.1344 18.9533 38.0934C18.976 38.0514 18.9931 38.0099 19.0044 37.9688C19.0158 37.9268 19.0215 37.8827 19.0215 37.8364C19.0215 37.7603 19.0031 37.7022 18.9664 37.662C18.9306 37.6209 18.8755 37.6004 18.8012 37.6004C18.7409 37.6004 18.6898 37.6165 18.6478 37.6489C18.6067 37.6803 18.5783 37.7197 18.5626 37.7669C18.5442 37.815 18.5202 37.8469 18.4905 37.8626C18.4608 37.8783 18.4184 37.8818 18.3633 37.8731L18.1483 37.8351C18.1623 37.7398 18.1889 37.6567 18.2283 37.5859C18.2685 37.5151 18.3178 37.4561 18.3764 37.4089C18.4358 37.3617 18.5036 37.3268 18.5796 37.3041C18.6557 37.2804 18.7374 37.2686 18.8248 37.2686C18.9192 37.2686 19.004 37.2826 19.0792 37.3106C19.1552 37.3377 19.2199 37.3757 19.2732 37.4247C19.3265 37.4736 19.3672 37.5322 19.3952 37.6004C19.424 37.6677 19.4384 37.742 19.4384 37.8233C19.4384 37.8932 19.4284 37.9579 19.4083 38.0173C19.389 38.0767 19.3624 38.1336 19.3283 38.1878C19.2942 38.2411 19.2544 38.2931 19.209 38.3438C19.1644 38.3936 19.1168 38.4443 19.0661 38.4959L18.6924 38.8787C18.7405 38.8639 18.7881 38.8525 18.8353 38.8446C18.8825 38.8368 18.9262 38.8328 18.9664 38.8328H19.323ZM21.033 38.2441C21.033 38.4111 21.0151 38.5557 20.9792 38.6781C20.9434 38.8005 20.8936 38.9019 20.8297 38.9823C20.7668 39.0627 20.6916 39.1226 20.6042 39.1619C20.5177 39.2013 20.4237 39.2209 20.3223 39.2209C20.2209 39.2209 20.127 39.2013 20.0404 39.1619C19.9548 39.1226 19.8805 39.0627 19.8176 38.9823C19.7546 38.9019 19.7052 38.8005 19.6694 38.6781C19.6344 38.5557 19.6169 38.4111 19.6169 38.2441C19.6169 38.0772 19.6344 37.9325 19.6694 37.8101C19.7052 37.6878 19.7546 37.5864 19.8176 37.506C19.8805 37.4255 19.9548 37.3661 20.0404 37.3277C20.127 37.2883 20.2209 37.2686 20.3223 37.2686C20.4237 37.2686 20.5177 37.2883 20.6042 37.3277C20.6916 37.3661 20.7668 37.4255 20.8297 37.506C20.8936 37.5864 20.9434 37.6878 20.9792 37.8101C21.0151 37.9325 21.033 38.0772 21.033 38.2441ZM20.6134 38.2441C20.6134 38.1121 20.6051 38.0042 20.5885 37.9203C20.5719 37.8355 20.5496 37.7691 20.5216 37.721C20.4945 37.6729 20.4635 37.6401 20.4285 37.6227C20.3936 37.6043 20.3582 37.5951 20.3223 37.5951C20.2865 37.5951 20.2511 37.6043 20.2161 37.6227C20.182 37.6401 20.1515 37.6729 20.1244 37.721C20.0981 37.7691 20.0767 37.8355 20.0601 37.9203C20.0444 38.0042 20.0365 38.1121 20.0365 38.2441C20.0365 38.377 20.0444 38.4854 20.0601 38.5693C20.0767 38.6532 20.0981 38.7196 20.1244 38.7686C20.1515 38.8167 20.182 38.8499 20.2161 38.8682C20.2511 38.8857 20.2865 38.8945 20.3223 38.8945C20.3582 38.8945 20.3936 38.8857 20.4285 38.8682C20.4635 38.8499 20.4945 38.8167 20.5216 38.7686C20.5496 38.7196 20.5719 38.6532 20.5885 38.5693C20.6051 38.4854 20.6134 38.377 20.6134 38.2441ZM22.3653 38.8328C22.409 38.8328 22.4435 38.8451 22.4689 38.8695C22.4942 38.8931 22.5069 38.9246 22.5069 38.9639V39.2H21.1643V39.0688C21.1643 39.0435 21.1695 39.0164 21.18 38.9875C21.1905 38.9587 21.2089 38.9325 21.2351 38.9089L21.7858 38.3543C21.833 38.3071 21.8741 38.2621 21.909 38.2192C21.944 38.1764 21.9728 38.1344 21.9956 38.0934C22.0183 38.0514 22.0353 38.0099 22.0467 37.9688C22.058 37.9268 22.0637 37.8827 22.0637 37.8364C22.0637 37.7603 22.0454 37.7022 22.0087 37.662C21.9728 37.6209 21.9178 37.6004 21.8435 37.6004C21.7831 37.6004 21.732 37.6165 21.6901 37.6489C21.649 37.6803 21.6206 37.7197 21.6048 37.7669C21.5865 37.815 21.5624 37.8469 21.5327 37.8626C21.503 37.8783 21.4606 37.8818 21.4055 37.8731L21.1905 37.8351C21.2045 37.7398 21.2312 37.6567 21.2705 37.5859C21.3107 37.5151 21.3601 37.4561 21.4187 37.4089C21.4781 37.3617 21.5458 37.3268 21.6219 37.3041C21.6979 37.2804 21.7797 37.2686 21.8671 37.2686C21.9615 37.2686 22.0462 37.2826 22.1214 37.3106C22.1975 37.3377 22.2621 37.3757 22.3155 37.4247C22.3688 37.4736 22.4094 37.5322 22.4374 37.6004C22.4662 37.6677 22.4807 37.742 22.4807 37.8233C22.4807 37.8932 22.4706 37.9579 22.4505 38.0173C22.4313 38.0767 22.4046 38.1336 22.3705 38.1878C22.3364 38.2411 22.2967 38.2931 22.2512 38.3438C22.2066 38.3936 22.159 38.4443 22.1083 38.4959L21.7346 38.8787C21.7827 38.8639 21.8303 38.8525 21.8775 38.8446C21.9248 38.8368 21.9685 38.8328 22.0087 38.8328H22.3653ZM22.7221 37.8351C22.7361 37.7398 22.7628 37.6567 22.8021 37.5859C22.8423 37.5151 22.8917 37.4561 22.9503 37.4089C23.0097 37.3617 23.0774 37.3268 23.1535 37.3041C23.2295 37.2804 23.3113 37.2686 23.3987 37.2686C23.4931 37.2686 23.577 37.2822 23.6504 37.3093C23.7238 37.3355 23.7859 37.3714 23.8366 37.4168C23.8873 37.4623 23.9257 37.5151 23.952 37.5755C23.9782 37.6349 23.9913 37.6978 23.9913 37.7643C23.9913 37.8246 23.9852 37.8779 23.9729 37.9242C23.9607 37.9697 23.9424 38.0094 23.9179 38.0435C23.8943 38.0767 23.8646 38.1052 23.8287 38.1288C23.7938 38.1515 23.7536 38.1707 23.7081 38.1864C23.9196 38.2607 24.0254 38.405 24.0254 38.6191C24.0254 38.7205 24.007 38.8088 23.9703 38.884C23.9336 38.9591 23.8842 39.0216 23.8222 39.0715C23.761 39.1213 23.6897 39.1589 23.6085 39.1842C23.5272 39.2087 23.4424 39.2209 23.3541 39.2209C23.2632 39.2209 23.1823 39.2113 23.1115 39.1921C23.0407 39.172 22.9778 39.1414 22.9227 39.1003C22.8677 39.0583 22.8191 39.005 22.7772 38.9403C22.7361 38.8757 22.7003 38.7987 22.6697 38.7096L22.8506 38.6362C22.8978 38.6178 22.9415 38.613 22.9817 38.6217C23.0219 38.6305 23.0508 38.6506 23.0683 38.6821C23.1076 38.7546 23.1491 38.8075 23.1928 38.8407C23.2374 38.873 23.2894 38.8892 23.3488 38.8892C23.3943 38.8892 23.4336 38.8818 23.4668 38.8669C23.5009 38.8512 23.5289 38.8315 23.5508 38.8079C23.5735 38.7834 23.5905 38.7559 23.6019 38.7253C23.6133 38.6947 23.6189 38.6637 23.6189 38.6322C23.6189 38.5911 23.6159 38.5544 23.6098 38.5221C23.6045 38.4889 23.5888 38.4605 23.5626 38.4369C23.5363 38.4133 23.4966 38.3954 23.4432 38.3831C23.3908 38.37 23.3174 38.3634 23.223 38.3634V38.0829C23.3025 38.0829 23.3668 38.0767 23.4157 38.0645C23.4647 38.0523 23.5022 38.0357 23.5285 38.0147C23.5556 37.9928 23.5735 37.9666 23.5822 37.936C23.591 37.9054 23.5953 37.8718 23.5953 37.8351C23.5953 37.7599 23.577 37.7022 23.5403 37.662C23.5044 37.6209 23.4494 37.6004 23.3751 37.6004C23.3148 37.6004 23.2636 37.6165 23.2217 37.6489C23.1806 37.6803 23.1522 37.7197 23.1364 37.7669C23.1181 37.815 23.094 37.8469 23.0643 37.8626C23.0346 37.8783 22.9922 37.8818 22.9372 37.8731L22.7221 37.8351Z" fill="#8B8B8B"/>
</g>
<g filter="url(#filter3_d_741_2367)">
<path d="M23.5669 49.9211C25.5752 49.9211 27.2033 48.293 27.2033 46.2846C27.2033 44.2763 25.5752 42.6482 23.5669 42.6482C21.5587 42.6482 19.9306 44.2763 19.9306 46.2846C19.9306 48.293 21.5587 49.9211 23.5669 49.9211Z" fill="#E01E5A"/>
<path d="M23.6547 44.2607V46.9544" stroke="white" stroke-width="0.976425" stroke-linecap="round" stroke-linejoin="round"/>
<ellipse cx="23.6738" cy="48.4023" rx="0.505043" ry="0.505055" fill="white"/>
</g>
<defs>
<filter id="filter0_d_741_2367" x="10.2148" y="6.50513" width="42.2852" height="42.2859" filterUnits="userSpaceOnUse" color-interpolation-filters="sRGB">
<feFlood flood-opacity="0" result="BackgroundImageFix"/>
<feColorMatrix in="SourceAlpha" type="matrix" values="0 0 0 0 0 0 0 0 0 0 0 0 0 0 0 0 0 0 127 0" result="hardAlpha"/>
<feOffset dy="1"/>
<feGaussianBlur stdDeviation="2"/>
<feComposite in2="hardAlpha" operator="out"/>
<feColorMatrix type="matrix" values="0 0 0 0 0 0 0 0 0 0 0 0 0 0 0 0 0 0 0.25 0"/>
<feBlend mode="normal" in2="BackgroundImageFix" result="effect1_dropShadow_741_2367"/>
<feBlend mode="normal" in="SourceGraphic" in2="effect1_dropShadow_741_2367" result="shape"/>
</filter>
<filter id="filter1_d_741_2367" x="4.50015" y="29.3613" width="25.1449" height="23.8728" filterUnits="userSpaceOnUse" color-interpolation-filters="sRGB">
<feFlood flood-opacity="0" result="BackgroundImageFix"/>
<feColorMatrix in="SourceAlpha" type="matrix" values="0 0 0 0 0 0 0 0 0 0 0 0 0 0 0 0 0 0 127 0" result="hardAlpha"/>
<feOffset dy="1"/>
<feGaussianBlur stdDeviation="2"/>
<feComposite in2="hardAlpha" operator="out"/>
<feColorMatrix type="matrix" values="0 0 0 0 0 0 0 0 0 0 0 0 0 0 0 0 0 0 0.25 0"/>
<feBlend mode="normal" in2="BackgroundImageFix" result="effect1_dropShadow_741_2367"/>
<feBlend mode="normal" in="SourceGraphic" in2="effect1_dropShadow_741_2367" result="shape"/>
</filter>
<filter id="filter2_d_741_2367" x="7.00385" y="31.2375" width="20.1396" height="18.8697" filterUnits="userSpaceOnUse" color-interpolation-filters="sRGB">
<feFlood flood-opacity="0" result="BackgroundImageFix"/>
<feColorMatrix in="SourceAlpha" type="matrix" values="0 0 0 0 0 0 0 0 0 0 0 0 0 0 0 0 0 0 127 0" result="hardAlpha"/>
<feOffset dy="0.37461"/>
<feGaussianBlur stdDeviation="0.74922"/>
<feComposite in2="hardAlpha" operator="out"/>
<feColorMatrix type="matrix" values="0 0 0 0 0 0 0 0 0 0 0 0 0 0 0 0 0 0 0.15 0"/>
<feBlend mode="normal" in2="BackgroundImageFix" result="effect1_dropShadow_741_2367"/>
<feBlend mode="normal" in="SourceGraphic" in2="effect1_dropShadow_741_2367" result="shape"/>
</filter>
<filter id="filter3_d_741_2367" x="15.9306" y="39.6482" width="15.2726" height="15.2729" filterUnits="userSpaceOnUse" color-interpolation-filters="sRGB">
<feFlood flood-opacity="0" result="BackgroundImageFix"/>
<feColorMatrix in="SourceAlpha" type="matrix" values="0 0 0 0 0 0 0 0 0 0 0 0 0 0 0 0 0 0 127 0" result="hardAlpha"/>
<feOffset dy="1"/>
<feGaussianBlur stdDeviation="2"/>
<feComposite in2="hardAlpha" operator="out"/>
<feColorMatrix type="matrix" values="0 0 0 0 0 0 0 0 0 0 0 0 0 0 0 0 0 0 0.25 0"/>
<feBlend mode="normal" in2="BackgroundImageFix" result="effect1_dropShadow_741_2367"/>
<feBlend mode="normal" in="SourceGraphic" in2="effect1_dropShadow_741_2367" result="shape"/>
</filter>
</defs>
</svg>
