<svg width="72" height="72" viewBox="0 0 72 72" fill="none" xmlns="http://www.w3.org/2000/svg">
<path d="M31.0222 21.2454L29.0012 31.4483L23.6117 33.4889L18.8959 30.7681C18.6713 29.181 18.2222 25.7347 18.2222 24.6464C18.2222 23.558 19.1205 21.0187 19.5696 19.885L26.3064 17.8444L31.0222 21.2454Z" fill="#FFA600"/>
<path d="M25.9591 40.6L39.6124 48.0497L40.9778 54.8222H8.89245L6.84445 51.436L13.6711 44.6635L25.9591 40.6Z" fill="#FFA600"/>
<path d="M24.0784 36.2993C18.5569 36.2993 14.0849 31.4678 14.0849 25.5249C14.0849 19.6727 18.534 15 24.0784 15C29.5544 15 34.072 19.7407 34.072 25.5703C34.0492 31.4905 29.5772 36.2993 24.0784 36.2993ZM50.5226 36.821C45.7084 36.821 41.8296 32.5793 41.8296 27.3395C41.8296 22.2359 45.7084 18.1076 50.5226 18.1076C55.2913 18.1076 59.2385 22.3039 59.2157 27.3622C59.2157 32.602 55.3141 36.821 50.5226 36.821ZM24.0784 32.3298C27.2271 32.3298 29.8966 29.381 29.8966 25.5476C29.8966 21.8503 27.2499 18.9695 24.0784 18.9695C20.8841 18.9695 18.2602 21.8049 18.2602 25.5249C18.2602 29.3356 20.907 32.3298 24.0784 32.3298ZM50.5226 32.8969C53.1009 32.8969 55.2913 30.4471 55.2913 27.3622C55.2913 24.4134 53.1237 22.009 50.5226 22.009C47.8759 22.009 45.7312 24.3681 45.7312 27.3395C45.7312 30.4471 47.9216 32.8969 50.5226 32.8969ZM63.0717 57.6667H45.3433C46.5982 56.9408 47.4424 55.285 47.2827 53.7879H63.277C63.7105 53.7879 63.893 53.5837 63.893 53.1981C63.893 48.0037 57.7783 43.0588 50.5455 43.0588C47.99 43.0588 45.4346 43.694 43.4724 44.7827C42.6966 43.6713 41.7383 42.7186 40.4834 41.902C43.3811 40.1327 46.9861 39.18 50.5455 39.18C60.1968 39.18 68 46.0303 68 53.5611C68 56.283 66.3572 57.6667 63.0717 57.6667ZM38.293 57.6667H9.86382C5.91658 57.6667 4 56.4191 4 53.7425C4 47.5047 11.8488 39.2027 24.0784 39.2027C36.308 39.2027 44.1569 47.5047 44.1569 53.7425C44.1569 56.4191 42.2403 57.6667 38.293 57.6667ZM39.0232 53.6972C39.548 53.6972 39.7533 53.5157 39.7533 53.1074C39.7533 49.6369 34.1176 43.1723 24.0784 43.1723C14.0392 43.1723 8.40356 49.6369 8.40356 53.1074C8.40356 53.5157 8.60891 53.6972 9.1565 53.6972H39.0232Z" fill="black"/>
</svg>
