<svg width="72" height="72" viewBox="0 0 72 72" fill="none" xmlns="http://www.w3.org/2000/svg">
<g id="cash-advance-created" clip-path="url(#clip0_6356_46522)">
<g id="Group 1171275383">
<g id="Group 1171275271">
<g id="Group">
<path id="Vector" d="M39.9671 13.4573C40.2609 13.6369 40.6365 14.0124 40.816 14.3062C41.1263 14.8124 41.1426 15.1389 41.1426 20.9675C41.1426 26.796 41.1263 27.1226 40.816 27.6287C40.6365 27.9226 40.2609 28.2981 39.9671 28.4777C39.4446 28.7879 39.1181 28.8042 29.3875 28.8042C19.6569 28.8042 19.3303 28.7879 18.8079 28.4777C18.514 28.2981 18.1385 27.9226 17.9589 27.6287C17.6487 27.1226 17.6324 26.796 17.6324 20.9675C17.6324 15.1389 17.6487 14.8124 17.9589 14.3062C18.1385 14.0124 18.514 13.6369 18.8079 13.4573C19.3303 13.1471 19.6569 13.1307 29.3875 13.1307C39.1181 13.1307 39.4446 13.1471 39.9671 13.4573ZM22.8569 20.9675V23.5797H29.3875H35.9181V20.9675V18.3552H29.3875H22.8569V20.9675Z" fill="#0B2D1F"/>
<path id="Vector_2" d="M39.9671 34.3552C40.7507 34.845 41.1426 35.5797 41.1426 36.6409C41.1426 37.7022 40.7507 38.4368 39.9671 38.9266C39.4773 39.2205 39.1344 39.2532 35.9834 39.2532C32.6854 39.2532 32.5222 39.2368 31.9997 38.8777C30.3834 37.8001 30.3834 35.4817 31.9997 34.4042C32.5222 34.045 32.6854 34.0287 35.9834 34.0287C39.1344 34.0287 39.4773 34.0613 39.9671 34.3552Z" fill="#0B2D1F"/>
<path id="Vector_3" d="M26.9065 34.3552C27.6902 34.845 28.082 35.5797 28.082 36.6409C28.082 37.7022 27.6902 38.4368 26.9065 38.9266C26.4167 39.2205 26.0739 39.2532 22.9228 39.2532C19.6249 39.2532 19.4616 39.2368 18.9392 38.8777C17.3228 37.8001 17.3228 35.4817 18.9392 34.4042C19.4616 34.045 19.6249 34.0287 22.9228 34.0287C26.0739 34.0287 26.4167 34.0613 26.9065 34.3552Z" fill="#0B2D1F"/>
<path id="Vector_4" d="M39.9671 44.8042C40.7507 45.294 41.1426 46.0287 41.1426 47.0899C41.1426 48.1511 40.7507 48.8858 39.9671 49.3756C39.4773 49.6695 39.1344 49.7021 35.9834 49.7021C32.6854 49.7021 32.5222 49.6858 31.9997 49.3266C30.3834 48.2491 30.3834 45.9307 31.9997 44.8532C32.5222 44.494 32.6854 44.4777 35.9834 44.4777C39.1344 44.4777 39.4773 44.5103 39.9671 44.8042Z" fill="#0B2D1F"/>
<path id="Vector_5" d="M26.9065 44.8042C27.6902 45.294 28.082 46.0287 28.082 47.0899C28.082 48.1511 27.6902 48.8858 26.9065 49.3756C26.4167 49.6695 26.0739 49.7021 22.9228 49.7021C19.6249 49.7021 19.4616 49.6858 18.9392 49.3266C17.3228 48.2491 17.3228 45.9307 18.9392 44.8532C19.4616 44.494 19.6249 44.4777 22.9228 44.4777C26.0739 44.4777 26.4167 44.5103 26.9065 44.8042Z" fill="#0B2D1F"/>
</g>
</g>
<path id="Subtract" fill-rule="evenodd" clip-rule="evenodd" d="M7.18364 54.8483V30.1224H7.18359V20.2636C7.18359 11.0377 7.19992 10.3356 7.4938 9.40486C8.24482 7.00451 10.302 4.9634 12.7183 4.26126C13.502 4.03266 15.4611 4 29.3877 4C43.3142 4 45.2734 4.03266 46.0571 4.26126C48.4734 4.9634 50.5305 7.00451 51.2816 9.40486C51.5754 10.3683 51.5918 11.5113 51.5918 45.7856C51.5918 51.1815 51.5908 55.7677 51.5881 59.6676C50.9232 60.3797 49.7325 60.7643 47.6734 60.8163H11.7042C9.57458 59.8443 7.96538 57.9485 7.37951 55.6319L7.18364 54.8483ZM-32 60.1092V57.6208C-32.0001 58.0278 -32.0001 58.4425 -32.0001 58.865C-32.0001 59.2875 -32.0001 59.7022 -32 60.1092ZM12.5714 54.0317C12.7509 54.8318 13.1754 55.4196 13.8938 55.8442C14.4313 56.17 14.7576 56.1708 28.9633 56.2032L29.0611 56.2034C37.0938 56.2034 43.9183 56.1708 44.2285 56.0891C44.9469 55.9258 45.5509 55.4523 45.9591 54.7665C46.2848 54.229 46.2856 53.8703 46.3342 33.6351L46.3346 33.4736C46.3673 22.0761 46.3346 12.3604 46.2856 11.8868C46.1713 10.8745 45.6816 10.107 44.8979 9.64979C44.3265 9.30688 44.1632 9.30688 29.3877 9.30688C14.7428 9.30688 14.4326 9.30688 13.8938 9.63346C13.1754 10.058 12.7509 10.6459 12.5714 11.446C12.3754 12.2951 12.3754 53.1826 12.5714 54.0317Z" fill="#0B2D1F"/>
<g id="Group 1171275382">
<ellipse id="Ellipse 2666" cx="49.6333" cy="56.2449" rx="11.102" ry="10.449" fill="#22885E"/>
<g id="Group_2">
<path id="Vector_6" d="M48.9797 68C55.4719 68 60.7348 62.737 60.7348 56.2448C60.7348 49.7527 55.4719 44.4897 48.9797 44.4897C42.4875 44.4897 37.2246 49.7527 37.2246 56.2448C37.2246 62.737 42.4875 68 48.9797 68Z" stroke="#0B2D1F" stroke-width="3" stroke-linecap="round" stroke-linejoin="round"/>
<path id="Vector_7" d="M52.6361 52.3266C52.3995 51.9162 52.0557 51.5778 51.6416 51.3477C51.2274 51.1177 50.7585 51.0045 50.285 51.0205H47.6728C46.98 51.0205 46.3155 51.2957 45.8257 51.7856C45.3358 52.2755 45.0605 52.9399 45.0605 53.6327C45.0605 54.3255 45.3358 54.99 45.8257 55.4799C46.3155 55.9697 46.98 56.245 47.6728 56.245H50.285C50.9778 56.245 51.6423 56.5202 52.1322 57.0101C52.6221 57.5 52.8973 58.1644 52.8973 58.8572C52.8973 59.55 52.6221 60.2145 52.1322 60.7043C51.6423 61.1942 50.9778 61.4695 50.285 61.4695H47.6728C47.1993 61.4854 46.7304 61.3723 46.3163 61.1422C45.9021 60.9121 45.5584 60.5738 45.3218 60.1633M48.9789 49.7144V62.7756" stroke="#0B2D1F" stroke-width="2" stroke-linecap="round" stroke-linejoin="round"/>
</g>
</g>
</g>
</g>
<defs>
<clipPath id="clip0_6356_46522">
<rect width="72" height="72" fill="white"/>
</clipPath>
</defs>
</svg>
