<svg width="72" height="72" viewBox="0 0 72 72" fill="none" xmlns="http://www.w3.org/2000/svg">
<g id="return">
<path id="Subtract" fill-rule="evenodd" clip-rule="evenodd" d="M58 20H47V44.3756C49.2926 41.6973 52.6981 40 56.5 40C57.0076 40 57.5082 40.0303 58 40.0891V20Z" fill="#22885E"/>
<rect id="Rectangle 34624866" x="7" y="21" width="11" height="35" fill="#22885E"/>
<g id="Group">
<path id="Vector" d="M23.6321 6.10006C22.0814 6.36268 20.4682 7.52571 19.7178 8.91386C19.08 10.0894 18.9925 10.7272 18.9925 14.1788V17.3302L13.59 17.3678L8.175 17.4053L7.33711 17.8055C6.86189 18.0306 6.28662 18.3682 6.024 18.5558C5.31117 19.1061 4.51081 20.2816 4.23568 21.207C3.98556 22.0199 3.98556 22.32 4.01057 37.427L4.04809 52.8091L4.52331 53.7595C5.29867 55.3353 6.76184 56.4858 8.46263 56.8485C8.92534 56.9485 13.9652 56.986 25.5705 56.986C43.5288 56.986 42.5033 57.0236 43.1536 56.2482C43.904 55.3728 43.6539 53.9471 42.6409 53.3844L42.1532 53.1092H30.6354H19.1175V37.1644V21.2195H32.2486H45.3797V30.874C45.3797 40.3033 45.3922 40.5535 45.6298 40.9536C46.4051 42.2167 48.331 42.1667 49.0188 40.8536C49.2439 40.4409 49.2565 39.9282 49.2565 30.824V21.2195H52.2954C55.0716 21.2195 55.3593 21.2445 55.7219 21.4697C56.6098 22.0074 56.5598 21.5447 56.6349 30.1111C56.6974 37.6646 56.6974 37.8397 56.96 38.1774C57.6228 39.0778 58.5607 39.3154 59.4987 38.8277C60.5617 38.2774 60.5116 38.7151 60.5116 29.911C60.5116 23.7457 60.4741 22.0199 60.3366 21.5197C59.9239 19.9439 58.8234 18.6308 57.2727 17.868L56.3347 17.4053L50.9197 17.3678L45.5047 17.3302V14.3539C45.5047 12.7281 45.4422 11.0523 45.3672 10.6397C45.017 8.70126 43.6539 7.11303 41.6905 6.32516L40.9401 6.02502L32.6238 6.00001C28.0467 6.00001 24.0073 6.03753 23.6321 6.10006ZM40.6275 10.1519C40.8901 10.302 41.1777 10.6397 41.3528 10.9648C41.6154 11.49 41.6279 11.6526 41.6279 14.4289V17.3427H32.2486H22.8693V14.4039C22.8693 12.1654 22.9068 11.3525 23.0444 11.0398C23.2194 10.6021 23.8697 10.0394 24.3074 9.92682C24.445 9.88931 28.0717 9.8768 32.3737 9.88931C39.9772 9.90181 40.2023 9.91432 40.6275 10.1519ZM15.2408 37.1769V53.1218L12.1518 53.0842C9.13794 53.0467 9.03789 53.0342 8.63771 52.7591C7.81233 52.1588 7.86235 53.2343 7.86235 37.1394C7.86235 22.7828 7.86235 22.5201 8.11247 22.1199C8.25003 21.8948 8.53766 21.6072 8.76277 21.4697C9.15045 21.2445 9.40056 21.2195 12.2144 21.2195H15.2408V37.1769Z" fill="#0B2D1F"/>
<path id="Vector_2" d="M53.9464 41.0537C53.3837 41.3538 49.657 45.093 49.3693 45.6308C49.0817 46.1935 49.0692 46.8563 49.3193 47.4066C49.4319 47.6317 50.4823 48.7697 51.6704 49.9453C53.4837 51.7586 53.8964 52.0963 54.2966 52.1713C56.4351 52.5715 57.5731 50.3955 56.0849 48.7447L55.8223 48.4571L57.3855 48.5196C58.6486 48.5696 59.1113 48.6447 59.8117 48.8948C61.3249 49.4575 62.3878 50.3329 63.2007 51.6711C64.7639 54.2723 64.3763 57.4612 62.2378 59.5872C59.5865 62.2509 55.3471 62.1509 52.8459 59.3621C51.8205 58.2241 51.1452 56.5358 51.1326 55.1101C51.1201 53.9596 50.2698 53.1092 49.1192 53.1092C47.9687 53.1092 47.2559 53.9471 47.2559 55.3227C47.2559 58.1741 48.7816 61.3005 51.0826 63.1263C56.3851 67.3408 64.1887 65.565 67.0775 59.4747C67.8279 57.8739 68.053 56.7359 67.9904 54.685C67.9404 53.1092 67.8904 52.7966 67.5277 51.7336C66.9524 50.0203 66.2896 48.9823 64.964 47.6692C62.8255 45.5557 60.9122 44.7679 57.6732 44.6428L55.8973 44.5678L56.285 44.0926C57.0104 43.1921 56.8603 41.8415 55.9724 41.2037C55.4847 40.8536 54.4592 40.7785 53.9464 41.0537Z" fill="#0B2D1F"/>
</g>
</g>
</svg>
