<svg width="72" height="72" viewBox="0 0 72 72" fill="none" xmlns="http://www.w3.org/2000/svg">
<g id="settings">
<g id="Group 1171275193">
<g id="Subtract">
<path fill-rule="evenodd" clip-rule="evenodd" d="M13.8219 40.2669V31.7335L7.42188 26.0447L13.8219 16.0891L20.933 18.9335L28.7552 14.6669L30.8885 6.13354H41.5552L43.6885 14.6669L50.7997 18.9335L58.6219 16.0891L65.0219 26.0447L58.6219 31.7335V40.2669L65.0219 45.9558L58.6219 55.9113L50.7997 53.0669L43.6885 57.3335L41.5552 65.1558H30.8885L28.7552 57.3335L20.933 53.0669L13.8219 55.9113L7.42188 45.9558L13.8219 40.2669ZM36.5774 46.6671C42.4684 46.6671 47.244 41.8915 47.244 36.0004C47.244 30.1094 42.4684 25.3338 36.5774 25.3338C30.6863 25.3338 25.9107 30.1094 25.9107 36.0004C25.9107 41.8915 30.6863 46.6671 36.5774 46.6671Z" fill="#2894B4"/>
<path d="M13.8219 31.7335H14.079V31.6181L13.9927 31.5414L13.8219 31.7335ZM13.8219 40.2669L13.9927 40.4591L14.079 40.3824V40.2669H13.8219ZM7.42188 26.0447L7.20557 25.9056L7.0866 26.0907L7.25104 26.2368L7.42188 26.0447ZM13.8219 16.0891L13.9174 15.8503L13.7203 15.7715L13.6056 15.95L13.8219 16.0891ZM20.933 18.9335L20.8375 19.1723L20.9499 19.2172L21.0561 19.1593L20.933 18.9335ZM28.7552 14.6669L28.8783 14.8926L28.9773 14.8386L29.0047 14.7292L28.7552 14.6669ZM30.8885 6.13354V5.8764H30.6878L30.6391 6.07118L30.8885 6.13354ZM41.5552 6.13354L41.8047 6.07118L41.756 5.8764H41.5552V6.13354ZM43.6885 14.6669L43.4391 14.7292L43.4649 14.8326L43.5562 14.8874L43.6885 14.6669ZM50.7997 18.9335L50.6674 19.154L50.7724 19.2171L50.8875 19.1752L50.7997 18.9335ZM58.6219 16.0891L58.8382 15.95L58.7271 15.7772L58.534 15.8474L58.6219 16.0891ZM65.0219 26.0447L65.1927 26.2368L65.3572 26.0907L65.2382 25.9056L65.0219 26.0447ZM58.6219 31.7335L58.451 31.5414L58.3647 31.6181V31.7335H58.6219ZM58.6219 40.2669H58.3647V40.3824L58.451 40.4591L58.6219 40.2669ZM65.0219 45.9558L65.2382 46.0948L65.3572 45.9097L65.1927 45.7636L65.0219 45.9558ZM58.6219 55.9113L58.534 56.153L58.7271 56.2232L58.8382 56.0504L58.6219 55.9113ZM50.7997 53.0669L50.8875 52.8252L50.7724 52.7834L50.6674 52.8464L50.7997 53.0669ZM43.6885 57.3335L43.5562 57.113L43.4676 57.1662L43.4405 57.2659L43.6885 57.3335ZM41.5552 65.1558V65.4129H41.7516L41.8033 65.2234L41.5552 65.1558ZM30.8885 65.1558L30.6405 65.2234L30.6921 65.4129H30.8885V65.1558ZM28.7552 57.3335L29.0033 57.2659L28.9745 57.1602L28.8783 57.1078L28.7552 57.3335ZM20.933 53.0669L21.0561 52.8411L20.9499 52.7832L20.8375 52.8281L20.933 53.0669ZM13.8219 55.9113L13.6056 56.0504L13.7203 56.2289L13.9174 56.1501L13.8219 55.9113ZM7.42188 45.9558L7.25104 45.7636L7.0866 45.9097L7.20557 46.0948L7.42188 45.9558ZM13.5647 31.7335V40.2669H14.079V31.7335H13.5647ZM7.25104 26.2368L13.651 31.9257L13.9927 31.5414L7.59271 25.8525L7.25104 26.2368ZM13.6056 15.95L7.20557 25.9056L7.63818 26.1837L14.0382 16.2282L13.6056 15.95ZM21.0285 18.6948L13.9174 15.8503L13.7264 16.3279L20.8375 19.1723L21.0285 18.6948ZM28.6321 14.4411L20.8099 18.7078L21.0561 19.1593L28.8783 14.8926L28.6321 14.4411ZM30.6391 6.07118L28.5057 14.6045L29.0047 14.7292L31.138 6.19591L30.6391 6.07118ZM41.5552 5.8764H30.8885V6.39069H41.5552V5.8764ZM43.938 14.6045L41.8047 6.07118L41.3057 6.19591L43.4391 14.7292L43.938 14.6045ZM50.932 18.713L43.8208 14.4464L43.5562 14.8874L50.6674 19.154L50.932 18.713ZM58.534 15.8474L50.7118 18.6919L50.8875 19.1752L58.7098 16.3308L58.534 15.8474ZM65.2382 25.9056L58.8382 15.95L58.4056 16.2282L64.8056 26.1837L65.2382 25.9056ZM58.7927 31.9257L65.1927 26.2368L64.851 25.8525L58.451 31.5414L58.7927 31.9257ZM58.879 40.2669V31.7335H58.3647V40.2669H58.879ZM65.1927 45.7636L58.7927 40.0747L58.451 40.4591L64.851 46.148L65.1927 45.7636ZM58.8382 56.0504L65.2382 46.0948L64.8056 45.8167L58.4056 55.7723L58.8382 56.0504ZM50.7118 53.3085L58.534 56.153L58.7098 55.6697L50.8875 52.8252L50.7118 53.3085ZM43.8208 57.554L50.932 53.2874L50.6674 52.8464L43.5562 57.113L43.8208 57.554ZM41.8033 65.2234L43.9366 57.4012L43.4405 57.2659L41.3071 65.0881L41.8033 65.2234ZM30.8885 65.4129H41.5552V64.8986H30.8885V65.4129ZM28.5071 57.4012L30.6405 65.2234L31.1366 65.0881L29.0033 57.2659L28.5071 57.4012ZM20.8099 53.2926L28.6321 57.5593L28.8783 57.1078L21.0561 52.8411L20.8099 53.2926ZM13.9174 56.1501L21.0285 53.3056L20.8375 52.8281L13.7264 55.6726L13.9174 56.1501ZM7.20557 46.0948L13.6056 56.0504L14.0382 55.7723L7.63818 45.8167L7.20557 46.0948ZM13.651 40.0747L7.25104 45.7636L7.59271 46.148L13.9927 40.4591L13.651 40.0747ZM46.9869 36.0004C46.9869 41.7495 42.3264 46.41 36.5774 46.41V46.9242C42.6104 46.9242 47.5012 42.0335 47.5012 36.0004H46.9869ZM36.5774 25.5909C42.3264 25.5909 46.9869 30.2514 46.9869 36.0004H47.5012C47.5012 29.9674 42.6104 25.0766 36.5774 25.0766V25.5909ZM26.1678 36.0004C26.1678 30.2514 30.8283 25.5909 36.5774 25.5909V25.0766C30.5443 25.0766 25.6535 29.9674 25.6535 36.0004H26.1678ZM36.5774 46.41C30.8283 46.41 26.1678 41.7495 26.1678 36.0004H25.6535C25.6535 42.0335 30.5443 46.9242 36.5774 46.9242V46.41Z" fill="#0D313B"/>
</g>
<g id="Group">
<g id="Vector">
<mask id="path-3-outside-1_6490_46199" maskUnits="userSpaceOnUse" x="22.3105" y="22.2405" width="27" height="27" fill="black">
<rect fill="white" x="22.3105" y="22.2405" width="27" height="27"/>
<path d="M36.0711 23.2405C29.0351 23.2405 23.3105 28.9651 23.3105 36.0011C23.3105 43.0371 29.0351 48.7617 36.0711 48.7617C43.1072 48.7617 48.8317 43.0371 48.8317 36.0011C48.8323 28.9651 43.1077 23.2405 36.0711 23.2405V23.2405ZM36.0711 45.7465C30.6972 45.7465 26.325 41.375 26.325 36.0009C26.325 30.6276 30.6971 26.2554 36.0711 26.2554C41.4452 26.2554 45.8172 30.6269 45.8172 36.0009C45.8172 41.375 41.4452 45.7465 36.0711 45.7465Z"/>
</mask>
<path d="M36.0711 23.2405C29.0351 23.2405 23.3105 28.9651 23.3105 36.0011C23.3105 43.0371 29.0351 48.7617 36.0711 48.7617C43.1072 48.7617 48.8317 43.0371 48.8317 36.0011C48.8323 28.9651 43.1077 23.2405 36.0711 23.2405V23.2405ZM36.0711 45.7465C30.6972 45.7465 26.325 41.375 26.325 36.0009C26.325 30.6276 30.6971 26.2554 36.0711 26.2554C41.4452 26.2554 45.8172 30.6269 45.8172 36.0009C45.8172 41.375 41.4452 45.7465 36.0711 45.7465Z" fill="#0D313B"/>
<path d="M36.0711 23.2405C29.0351 23.2405 23.3105 28.9651 23.3105 36.0011C23.3105 43.0371 29.0351 48.7617 36.0711 48.7617C43.1072 48.7617 48.8317 43.0371 48.8317 36.0011C48.8323 28.9651 43.1077 23.2405 36.0711 23.2405V23.2405ZM36.0711 45.7465C30.6972 45.7465 26.325 41.375 26.325 36.0009C26.325 30.6276 30.6971 26.2554 36.0711 26.2554C41.4452 26.2554 45.8172 30.6269 45.8172 36.0009C45.8172 41.375 41.4452 45.7465 36.0711 45.7465Z" stroke="#0D313B" stroke-width="0.822857" mask="url(#path-3-outside-1_6490_46199)"/>
</g>
<g id="Vector_2">
<mask id="path-4-outside-2_6490_46199" maskUnits="userSpaceOnUse" x="5" y="3" width="62" height="66" fill="black">
<rect fill="white" x="5" y="3" width="62" height="66"/>
<path d="M64.1683 42.7901C64.1661 42.789 64.165 42.7879 64.1639 42.7868L59.6324 39.5194C59.808 38.3474 59.8963 37.1672 59.8963 35.9997C59.8963 34.8322 59.8074 33.652 59.6324 32.4801L64.1684 29.2094C66.1544 27.7658 66.7252 25.0823 65.4987 22.973L62.0718 17.0233C60.8399 14.905 58.2293 14.0628 55.9943 15.0641L50.9009 17.3623C49.0478 15.8826 47.0029 14.7006 44.8029 13.8354L44.2378 8.27259C43.9833 5.83707 41.9478 4 39.5029 4H32.6397C30.1946 4 28.1593 5.83707 27.9042 8.27643L27.3396 13.8354C25.1402 14.7006 23.0953 15.8826 21.2416 17.3623L16.145 15.0629C13.915 14.0638 11.3022 14.9057 10.0675 17.0295L6.64611 22.968C5.41639 25.0829 5.98763 27.7662 7.97863 29.2132L12.5097 32.4801C12.3352 33.652 12.2463 34.8322 12.2463 35.9997C12.2463 37.1672 12.3352 38.3475 12.5103 39.5199L7.97534 42.7901C5.9882 44.2337 5.41705 46.9171 6.64393 49.0265L10.0708 54.9767C11.3022 57.0944 13.9134 57.9368 16.1483 56.9359L21.2417 54.6377C23.0954 56.1174 25.1398 57.2994 27.3397 58.1646L27.9049 63.7274C28.1588 66.1629 30.1943 68 32.6398 68H39.503C41.948 68 43.9834 66.1629 44.2384 63.7236L44.803 58.1646C47.0024 57.2994 49.0473 56.1174 50.901 54.6377L55.9977 56.9371C58.2294 57.9373 60.8404 57.0943 62.0752 54.9705L65.4965 49.032C66.7252 46.9171 66.1539 44.2342 64.1685 42.7901L64.1683 42.7901ZM62.8858 47.5218L59.4656 53.4603C59.0111 54.2416 58.0497 54.5533 57.2339 54.1871L51.2815 51.5015C50.7463 51.2598 50.1195 51.3504 49.6738 51.7366C47.6712 53.4708 45.394 54.7889 42.9028 55.653C42.3488 55.8452 41.9565 56.3414 41.8971 56.9249L41.238 63.4152C41.1447 64.3099 40.3984 64.985 39.5021 64.985L32.6395 64.9845C31.7437 64.9845 30.9969 64.3093 30.9047 63.4185L30.2451 56.9243C30.1857 56.3409 29.7934 55.8447 29.2393 55.6524C26.7488 54.7883 24.471 53.4702 22.4684 51.736C22.1883 51.4937 21.8371 51.3676 21.4809 51.3676C21.2703 51.3676 21.0592 51.4115 20.8608 51.501L14.9117 54.1854C14.0904 54.5538 13.1318 54.2404 12.68 53.4658L9.25371 47.5162C8.80416 46.7438 9.01699 45.7608 9.74326 45.2329L15.0355 41.4165C15.5106 41.0736 15.744 40.4863 15.6346 39.9106C15.3867 38.612 15.2611 37.2967 15.2611 35.9998C15.2611 34.7034 15.3867 33.3876 15.6351 32.0895C15.7451 31.5138 15.5112 30.9265 15.0361 30.5836L9.74766 26.7699C9.01694 26.2392 8.80467 25.2562 9.25644 24.4778L12.6767 18.5398C13.1312 17.7585 14.0925 17.4462 14.9083 17.813L20.8608 20.4986C21.3948 20.7398 22.0222 20.6492 22.4684 20.2635C24.4705 18.5293 26.7483 17.2112 29.2394 16.3472C29.7934 16.1549 30.1857 15.6587 30.2452 15.0752L30.9042 8.58488C30.9976 7.69023 31.7438 7.0151 32.6401 7.0151H39.5033C40.3991 7.0151 41.1459 7.69025 41.2381 8.58103L41.8977 15.0752C41.9572 15.6587 42.3495 16.1549 42.9035 16.3472C45.3941 17.2112 47.6718 18.5293 49.6745 20.2635C50.1196 20.6492 50.7469 20.7398 51.2821 20.4986L57.2311 17.8141C58.0524 17.4457 59.011 17.7591 59.4628 18.5337L62.8891 24.4839C63.3387 25.2563 63.1264 26.2393 62.4001 26.7672L57.1067 30.5836C56.6316 30.9265 56.3982 31.5138 56.5077 32.0895C56.7556 33.3876 56.8811 34.7034 56.8811 35.9998C56.8811 37.2961 56.7556 38.612 56.5072 39.9101C56.3971 40.4858 56.6311 41.0731 57.1062 41.416L62.3967 45.2306C63.1258 45.7624 63.3375 46.7444 62.8857 47.5216L62.8858 47.5218Z"/>
</mask>
<path d="M64.1683 42.7901C64.1661 42.789 64.165 42.7879 64.1639 42.7868L59.6324 39.5194C59.808 38.3474 59.8963 37.1672 59.8963 35.9997C59.8963 34.8322 59.8074 33.652 59.6324 32.4801L64.1684 29.2094C66.1544 27.7658 66.7252 25.0823 65.4987 22.973L62.0718 17.0233C60.8399 14.905 58.2293 14.0628 55.9943 15.0641L50.9009 17.3623C49.0478 15.8826 47.0029 14.7006 44.8029 13.8354L44.2378 8.27259C43.9833 5.83707 41.9478 4 39.5029 4H32.6397C30.1946 4 28.1593 5.83707 27.9042 8.27643L27.3396 13.8354C25.1402 14.7006 23.0953 15.8826 21.2416 17.3623L16.145 15.0629C13.915 14.0638 11.3022 14.9057 10.0675 17.0295L6.64611 22.968C5.41639 25.0829 5.98763 27.7662 7.97863 29.2132L12.5097 32.4801C12.3352 33.652 12.2463 34.8322 12.2463 35.9997C12.2463 37.1672 12.3352 38.3475 12.5103 39.5199L7.97534 42.7901C5.9882 44.2337 5.41705 46.9171 6.64393 49.0265L10.0708 54.9767C11.3022 57.0944 13.9134 57.9368 16.1483 56.9359L21.2417 54.6377C23.0954 56.1174 25.1398 57.2994 27.3397 58.1646L27.9049 63.7274C28.1588 66.1629 30.1943 68 32.6398 68H39.503C41.948 68 43.9834 66.1629 44.2384 63.7236L44.803 58.1646C47.0024 57.2994 49.0473 56.1174 50.901 54.6377L55.9977 56.9371C58.2294 57.9373 60.8404 57.0943 62.0752 54.9705L65.4965 49.032C66.7252 46.9171 66.1539 44.2342 64.1685 42.7901L64.1683 42.7901ZM62.8858 47.5218L59.4656 53.4603C59.0111 54.2416 58.0497 54.5533 57.2339 54.1871L51.2815 51.5015C50.7463 51.2598 50.1195 51.3504 49.6738 51.7366C47.6712 53.4708 45.394 54.7889 42.9028 55.653C42.3488 55.8452 41.9565 56.3414 41.8971 56.9249L41.238 63.4152C41.1447 64.3099 40.3984 64.985 39.5021 64.985L32.6395 64.9845C31.7437 64.9845 30.9969 64.3093 30.9047 63.4185L30.2451 56.9243C30.1857 56.3409 29.7934 55.8447 29.2393 55.6524C26.7488 54.7883 24.471 53.4702 22.4684 51.736C22.1883 51.4937 21.8371 51.3676 21.4809 51.3676C21.2703 51.3676 21.0592 51.4115 20.8608 51.501L14.9117 54.1854C14.0904 54.5538 13.1318 54.2404 12.68 53.4658L9.25371 47.5162C8.80416 46.7438 9.01699 45.7608 9.74326 45.2329L15.0355 41.4165C15.5106 41.0736 15.744 40.4863 15.6346 39.9106C15.3867 38.612 15.2611 37.2967 15.2611 35.9998C15.2611 34.7034 15.3867 33.3876 15.6351 32.0895C15.7451 31.5138 15.5112 30.9265 15.0361 30.5836L9.74766 26.7699C9.01694 26.2392 8.80467 25.2562 9.25644 24.4778L12.6767 18.5398C13.1312 17.7585 14.0925 17.4462 14.9083 17.813L20.8608 20.4986C21.3948 20.7398 22.0222 20.6492 22.4684 20.2635C24.4705 18.5293 26.7483 17.2112 29.2394 16.3472C29.7934 16.1549 30.1857 15.6587 30.2452 15.0752L30.9042 8.58488C30.9976 7.69023 31.7438 7.0151 32.6401 7.0151H39.5033C40.3991 7.0151 41.1459 7.69025 41.2381 8.58103L41.8977 15.0752C41.9572 15.6587 42.3495 16.1549 42.9035 16.3472C45.3941 17.2112 47.6718 18.5293 49.6745 20.2635C50.1196 20.6492 50.7469 20.7398 51.2821 20.4986L57.2311 17.8141C58.0524 17.4457 59.011 17.7591 59.4628 18.5337L62.8891 24.4839C63.3387 25.2563 63.1264 26.2393 62.4001 26.7672L57.1067 30.5836C56.6316 30.9265 56.3982 31.5138 56.5077 32.0895C56.7556 33.3876 56.8811 34.7034 56.8811 35.9998C56.8811 37.2961 56.7556 38.612 56.5072 39.9101C56.3971 40.4858 56.6311 41.0731 57.1062 41.416L62.3967 45.2306C63.1258 45.7624 63.3375 46.7444 62.8857 47.5216L62.8858 47.5218Z" fill="#0D313B"/>
<path d="M64.1683 42.7901C64.1661 42.789 64.165 42.7879 64.1639 42.7868L59.6324 39.5194C59.808 38.3474 59.8963 37.1672 59.8963 35.9997C59.8963 34.8322 59.8074 33.652 59.6324 32.4801L64.1684 29.2094C66.1544 27.7658 66.7252 25.0823 65.4987 22.973L62.0718 17.0233C60.8399 14.905 58.2293 14.0628 55.9943 15.0641L50.9009 17.3623C49.0478 15.8826 47.0029 14.7006 44.8029 13.8354L44.2378 8.27259C43.9833 5.83707 41.9478 4 39.5029 4H32.6397C30.1946 4 28.1593 5.83707 27.9042 8.27643L27.3396 13.8354C25.1402 14.7006 23.0953 15.8826 21.2416 17.3623L16.145 15.0629C13.915 14.0638 11.3022 14.9057 10.0675 17.0295L6.64611 22.968C5.41639 25.0829 5.98763 27.7662 7.97863 29.2132L12.5097 32.4801C12.3352 33.652 12.2463 34.8322 12.2463 35.9997C12.2463 37.1672 12.3352 38.3475 12.5103 39.5199L7.97534 42.7901C5.9882 44.2337 5.41705 46.9171 6.64393 49.0265L10.0708 54.9767C11.3022 57.0944 13.9134 57.9368 16.1483 56.9359L21.2417 54.6377C23.0954 56.1174 25.1398 57.2994 27.3397 58.1646L27.9049 63.7274C28.1588 66.1629 30.1943 68 32.6398 68H39.503C41.948 68 43.9834 66.1629 44.2384 63.7236L44.803 58.1646C47.0024 57.2994 49.0473 56.1174 50.901 54.6377L55.9977 56.9371C58.2294 57.9373 60.8404 57.0943 62.0752 54.9705L65.4965 49.032C66.7252 46.9171 66.1539 44.2342 64.1685 42.7901L64.1683 42.7901ZM62.8858 47.5218L59.4656 53.4603C59.0111 54.2416 58.0497 54.5533 57.2339 54.1871L51.2815 51.5015C50.7463 51.2598 50.1195 51.3504 49.6738 51.7366C47.6712 53.4708 45.394 54.7889 42.9028 55.653C42.3488 55.8452 41.9565 56.3414 41.8971 56.9249L41.238 63.4152C41.1447 64.3099 40.3984 64.985 39.5021 64.985L32.6395 64.9845C31.7437 64.9845 30.9969 64.3093 30.9047 63.4185L30.2451 56.9243C30.1857 56.3409 29.7934 55.8447 29.2393 55.6524C26.7488 54.7883 24.471 53.4702 22.4684 51.736C22.1883 51.4937 21.8371 51.3676 21.4809 51.3676C21.2703 51.3676 21.0592 51.4115 20.8608 51.501L14.9117 54.1854C14.0904 54.5538 13.1318 54.2404 12.68 53.4658L9.25371 47.5162C8.80416 46.7438 9.01699 45.7608 9.74326 45.2329L15.0355 41.4165C15.5106 41.0736 15.744 40.4863 15.6346 39.9106C15.3867 38.612 15.2611 37.2967 15.2611 35.9998C15.2611 34.7034 15.3867 33.3876 15.6351 32.0895C15.7451 31.5138 15.5112 30.9265 15.0361 30.5836L9.74766 26.7699C9.01694 26.2392 8.80467 25.2562 9.25644 24.4778L12.6767 18.5398C13.1312 17.7585 14.0925 17.4462 14.9083 17.813L20.8608 20.4986C21.3948 20.7398 22.0222 20.6492 22.4684 20.2635C24.4705 18.5293 26.7483 17.2112 29.2394 16.3472C29.7934 16.1549 30.1857 15.6587 30.2452 15.0752L30.9042 8.58488C30.9976 7.69023 31.7438 7.0151 32.6401 7.0151H39.5033C40.3991 7.0151 41.1459 7.69025 41.2381 8.58103L41.8977 15.0752C41.9572 15.6587 42.3495 16.1549 42.9035 16.3472C45.3941 17.2112 47.6718 18.5293 49.6745 20.2635C50.1196 20.6492 50.7469 20.7398 51.2821 20.4986L57.2311 17.8141C58.0524 17.4457 59.011 17.7591 59.4628 18.5337L62.8891 24.4839C63.3387 25.2563 63.1264 26.2393 62.4001 26.7672L57.1067 30.5836C56.6316 30.9265 56.3982 31.5138 56.5077 32.0895C56.7556 33.3876 56.8811 34.7034 56.8811 35.9998C56.8811 37.2961 56.7556 38.612 56.5072 39.9101C56.3971 40.4858 56.6311 41.0731 57.1062 41.416L62.3967 45.2306C63.1258 45.7624 63.3375 46.7444 62.8857 47.5216L62.8858 47.5218Z" stroke="#0D313B" stroke-width="0.822857" mask="url(#path-4-outside-2_6490_46199)"/>
</g>
</g>
</g>
</g>
</svg>
