<svg width="72" height="72" viewBox="0 0 72 72" fill="none" xmlns="http://www.w3.org/2000/svg">
<g id="travel-request">
<g id="Group 1171275286">
<g id="Group 1171275285">
<path id="Subtract" fill-rule="evenodd" clip-rule="evenodd" d="M26.5007 7.50007L30.5007 10.5001L35.8975 6.00269C45.2517 6.12602 53.5553 10.6031 58.8745 17.5001H53.5007L51.0007 21.0001H43.5007C41.9007 21.0001 42.834 26.3334 43.5007 29.0001H48.5007L51.0007 25.5001H56.5007L60.5007 33.0001L64.7751 31.8343C64.924 33.0353 65.0007 34.2587 65.0007 35.5001C65.0007 51.7925 51.7931 65.0001 35.5007 65.0001C19.3009 65.0001 6.15091 51.9422 6.00195 35.7776L9.50068 35.0001V31.5001L12.5007 27.5001L9.50068 22.5001L6.1445 32.5686C7.55926 18.2275 19.2439 6.90343 33.7433 6.05155L26.5007 7.50007ZM20.5007 16.0001L28.0007 17.5001L36.5007 13.0001L33.5007 22.5001L35.5007 31.5001L29.5007 25.5001L26.5007 27.5001V33.0001L17.5007 25.5001L19.0007 22.5001L23.5007 24.0001L26.5007 21.0001L20.5007 16.0001ZM20.5007 41.0001V47.0001L26.5007 48.0001V58.0001L29.5007 56.0001V53.0001L35.5007 48.0001V44.0001H29.5007L25.0007 41.0001H20.5007ZM41.5007 44.0001V35.0001H51.0007L55.0007 41.0001H59.5007L55.0007 47.0001V51.0001L51.0007 56.0001H46.0007V44.0001H41.5007Z" fill="#2EB67D"/>
<g id="Group">
<g id="Vector">
<mask id="path-2-outside-1_6356_46429" maskUnits="userSpaceOnUse" x="3" y="3" width="65" height="66" fill="black">
<rect fill="white" x="3" y="3" width="65" height="66"/>
<path d="M31.8165 4.0829C25.9865 4.7835 20.2065 7.22308 15.6151 10.9137C15.0271 11.3766 13.9637 12.3525 13.2381 13.0781C8.09619 18.245 4.84341 25.0758 4.10528 32.282C3.90511 34.1711 4.0052 38.5999 4.28043 40.2263C4.53065 41.665 5.19371 44.4674 5.35635 44.7301C5.45644 44.8803 5.60656 44.8677 6.44478 44.6175C6.98274 44.4674 7.44564 44.3173 7.47066 44.2797C7.50819 44.2547 7.34555 43.5166 7.13287 42.6283C6.55738 40.2763 6.2321 38.162 6.2321 36.6732V36.1103L8.05866 36.0727C9.88522 36.0352 9.88522 36.0352 10.1855 35.6849C10.4732 35.3471 10.4857 35.272 10.4857 33.2453V31.156L11.987 29.6547C13.676 27.9658 13.8386 27.653 13.4883 26.8899C13.2256 26.3019 10.4107 21.6104 10.1479 21.3101C9.98531 21.135 10.0479 20.9848 10.6734 19.9715C13.5509 15.3175 17.9171 11.4017 22.8588 9.03713L24.1599 8.4116L27.2501 9.95041C29.4394 11.0388 30.4653 11.4892 30.753 11.4767C31.0533 11.4767 31.6163 11.1639 32.7923 10.3758L34.4312 9.28735L36.4079 8.81194C39.1727 8.13636 39.2603 8.08632 39.2603 6.94785V6.35984L40.4864 6.57253C44.4898 7.29815 48.1554 8.74939 51.4582 10.9262C53.2347 12.0897 54.4108 13.028 56.0246 14.5669L57.2132 15.6928L55.4116 15.7053H53.6101L51.4707 17.8321L49.3189 19.959H46.1537H43.001L42.7008 20.2717L42.388 20.572V24.7631V28.9541L42.6882 29.3044L42.9885 29.6547L45.2905 29.6923C46.7417 29.7173 47.7551 29.6923 48.0553 29.5922C48.4557 29.4796 48.6433 29.2669 49.5191 27.9658L50.5199 26.4645H53.0721H55.6368L57.676 30.0426C59.1648 32.6573 59.8029 33.6707 60.0531 33.7958C60.3033 33.9209 60.9413 33.9709 62.5927 33.9709H64.7821V35.5973C64.7821 41.1771 63.0932 46.7193 59.9405 51.5484C57.7011 54.9639 54.5609 58.029 51.0204 60.2934C49.8068 61.0691 47.1671 62.3452 45.5782 62.9332C36.1452 66.4362 25.3234 64.6847 17.2915 58.3543C15.3149 56.8029 13.0504 54.4009 11.6117 52.3616C11.2489 51.8487 10.9361 51.3983 10.9111 51.3733C10.8861 51.3483 10.4982 51.5735 10.0353 51.8737C9.57245 52.174 9.13458 52.4617 9.07202 52.5118C8.82181 52.6744 10.9611 55.4518 12.8002 57.3534C15.0396 59.6679 17.1414 61.2943 20.1065 62.9707C21.8955 63.9966 21.958 63.7964 19.631 64.5846C16.6535 65.5854 13.5008 65.9858 11.3865 65.623C9.40981 65.2977 7.70836 64.0716 6.98274 62.4578C6.41976 61.1942 6.29465 60.4686 6.30716 58.617C6.33218 55.2391 7.48317 51.4609 9.99782 46.4816C12.2497 42.0153 15.4024 37.2863 19.1056 32.7824C19.7311 32.0193 20.2316 31.3687 20.2065 31.3187C20.1565 31.156 18.6927 29.9675 18.5551 29.9675C18.3925 29.98 16.4408 32.3571 14.6768 34.7091C2.9543 50.2974 0.627311 63.7964 9.047 67.3369C10.1104 67.7873 11.4741 68 13.2881 68C16.1781 68 18.8929 67.387 22.6211 65.9107L24.6729 65.0975L26.1241 65.5479C29.4394 66.5863 31.829 66.9366 35.5697 66.9241C38.885 66.9241 40.3738 66.7489 43.3388 65.9983C45.7408 65.3853 47.2421 64.8348 49.5816 63.6838C59.0522 59.0298 65.5578 49.7844 66.8589 39.1003C67.1091 36.9985 67.0466 32.7199 66.7213 30.7182C65.0824 20.4719 58.827 11.8645 49.6567 7.27312C46.6666 5.77184 44.202 4.95865 40.5739 4.29558C39.4855 4.09541 38.5347 4.03286 36.0075 4.00784C34.256 3.98281 32.3669 4.02035 31.8165 4.0829ZM36.5705 6.20972C37.2711 6.22223 36.9333 6.34733 35.0067 6.82274C33.5304 7.18555 33.3678 7.26061 32.0291 8.14887L30.6279 9.07466L28.9015 8.21143L27.1875 7.34819L27.6879 7.22308C29.0391 6.86027 29.7897 6.69763 30.9407 6.50997C32.3419 6.27227 34.9691 6.0721 35.6322 6.14716C35.8699 6.17218 36.2953 6.19721 36.5705 6.20972ZM59.7653 19.0582C62.1549 22.6237 63.8939 27.0775 64.4819 31.131L64.5569 31.7315L62.9055 31.694L61.2416 31.6565L59.2274 28.1284C58.1139 26.1768 57.088 24.5129 56.9629 24.4128C56.7503 24.2501 56.0997 24.2251 53.1347 24.2126C49.7818 24.2126 49.5316 24.2251 49.2438 24.4503C49.0812 24.5879 48.5307 25.3135 48.0178 26.0767L47.1045 27.4654H45.8785H44.6399V24.8381V22.2109H47.4798H50.3198L52.4466 20.0841L54.5859 17.9573H56.8003H59.0147L59.7653 19.0582ZM9.99782 25.4261L11.0988 27.2777L9.67254 28.729L8.23381 30.1802V32.0068V33.8458H7.22044H6.21959L6.29465 33.1202C6.59491 30.2928 7.15789 27.7531 7.90853 25.7014C8.54658 23.9749 8.77177 23.4494 8.83432 23.5245C8.87185 23.562 9.3973 24.4128 9.99782 25.4261Z"/>
</mask>
<path d="M31.8165 4.0829C25.9865 4.7835 20.2065 7.22308 15.6151 10.9137C15.0271 11.3766 13.9637 12.3525 13.2381 13.0781C8.09619 18.245 4.84341 25.0758 4.10528 32.282C3.90511 34.1711 4.0052 38.5999 4.28043 40.2263C4.53065 41.665 5.19371 44.4674 5.35635 44.7301C5.45644 44.8803 5.60656 44.8677 6.44478 44.6175C6.98274 44.4674 7.44564 44.3173 7.47066 44.2797C7.50819 44.2547 7.34555 43.5166 7.13287 42.6283C6.55738 40.2763 6.2321 38.162 6.2321 36.6732V36.1103L8.05866 36.0727C9.88522 36.0352 9.88522 36.0352 10.1855 35.6849C10.4732 35.3471 10.4857 35.272 10.4857 33.2453V31.156L11.987 29.6547C13.676 27.9658 13.8386 27.653 13.4883 26.8899C13.2256 26.3019 10.4107 21.6104 10.1479 21.3101C9.98531 21.135 10.0479 20.9848 10.6734 19.9715C13.5509 15.3175 17.9171 11.4017 22.8588 9.03713L24.1599 8.4116L27.2501 9.95041C29.4394 11.0388 30.4653 11.4892 30.753 11.4767C31.0533 11.4767 31.6163 11.1639 32.7923 10.3758L34.4312 9.28735L36.4079 8.81194C39.1727 8.13636 39.2603 8.08632 39.2603 6.94785V6.35984L40.4864 6.57253C44.4898 7.29815 48.1554 8.74939 51.4582 10.9262C53.2347 12.0897 54.4108 13.028 56.0246 14.5669L57.2132 15.6928L55.4116 15.7053H53.6101L51.4707 17.8321L49.3189 19.959H46.1537H43.001L42.7008 20.2717L42.388 20.572V24.7631V28.9541L42.6882 29.3044L42.9885 29.6547L45.2905 29.6923C46.7417 29.7173 47.7551 29.6923 48.0553 29.5922C48.4557 29.4796 48.6433 29.2669 49.5191 27.9658L50.5199 26.4645H53.0721H55.6368L57.676 30.0426C59.1648 32.6573 59.8029 33.6707 60.0531 33.7958C60.3033 33.9209 60.9413 33.9709 62.5927 33.9709H64.7821V35.5973C64.7821 41.1771 63.0932 46.7193 59.9405 51.5484C57.7011 54.9639 54.5609 58.029 51.0204 60.2934C49.8068 61.0691 47.1671 62.3452 45.5782 62.9332C36.1452 66.4362 25.3234 64.6847 17.2915 58.3543C15.3149 56.8029 13.0504 54.4009 11.6117 52.3616C11.2489 51.8487 10.9361 51.3983 10.9111 51.3733C10.8861 51.3483 10.4982 51.5735 10.0353 51.8737C9.57245 52.174 9.13458 52.4617 9.07202 52.5118C8.82181 52.6744 10.9611 55.4518 12.8002 57.3534C15.0396 59.6679 17.1414 61.2943 20.1065 62.9707C21.8955 63.9966 21.958 63.7964 19.631 64.5846C16.6535 65.5854 13.5008 65.9858 11.3865 65.623C9.40981 65.2977 7.70836 64.0716 6.98274 62.4578C6.41976 61.1942 6.29465 60.4686 6.30716 58.617C6.33218 55.2391 7.48317 51.4609 9.99782 46.4816C12.2497 42.0153 15.4024 37.2863 19.1056 32.7824C19.7311 32.0193 20.2316 31.3687 20.2065 31.3187C20.1565 31.156 18.6927 29.9675 18.5551 29.9675C18.3925 29.98 16.4408 32.3571 14.6768 34.7091C2.9543 50.2974 0.627311 63.7964 9.047 67.3369C10.1104 67.7873 11.4741 68 13.2881 68C16.1781 68 18.8929 67.387 22.6211 65.9107L24.6729 65.0975L26.1241 65.5479C29.4394 66.5863 31.829 66.9366 35.5697 66.9241C38.885 66.9241 40.3738 66.7489 43.3388 65.9983C45.7408 65.3853 47.2421 64.8348 49.5816 63.6838C59.0522 59.0298 65.5578 49.7844 66.8589 39.1003C67.1091 36.9985 67.0466 32.7199 66.7213 30.7182C65.0824 20.4719 58.827 11.8645 49.6567 7.27312C46.6666 5.77184 44.202 4.95865 40.5739 4.29558C39.4855 4.09541 38.5347 4.03286 36.0075 4.00784C34.256 3.98281 32.3669 4.02035 31.8165 4.0829ZM36.5705 6.20972C37.2711 6.22223 36.9333 6.34733 35.0067 6.82274C33.5304 7.18555 33.3678 7.26061 32.0291 8.14887L30.6279 9.07466L28.9015 8.21143L27.1875 7.34819L27.6879 7.22308C29.0391 6.86027 29.7897 6.69763 30.9407 6.50997C32.3419 6.27227 34.9691 6.0721 35.6322 6.14716C35.8699 6.17218 36.2953 6.19721 36.5705 6.20972ZM59.7653 19.0582C62.1549 22.6237 63.8939 27.0775 64.4819 31.131L64.5569 31.7315L62.9055 31.694L61.2416 31.6565L59.2274 28.1284C58.1139 26.1768 57.088 24.5129 56.9629 24.4128C56.7503 24.2501 56.0997 24.2251 53.1347 24.2126C49.7818 24.2126 49.5316 24.2251 49.2438 24.4503C49.0812 24.5879 48.5307 25.3135 48.0178 26.0767L47.1045 27.4654H45.8785H44.6399V24.8381V22.2109H47.4798H50.3198L52.4466 20.0841L54.5859 17.9573H56.8003H59.0147L59.7653 19.0582ZM9.99782 25.4261L11.0988 27.2777L9.67254 28.729L8.23381 30.1802V32.0068V33.8458H7.22044H6.21959L6.29465 33.1202C6.59491 30.2928 7.15789 27.7531 7.90853 25.7014C8.54658 23.9749 8.77177 23.4494 8.83432 23.5245C8.87185 23.562 9.3973 24.4128 9.99782 25.4261Z" fill="#0B2D1F"/>
<path d="M31.8165 4.0829C25.9865 4.7835 20.2065 7.22308 15.6151 10.9137C15.0271 11.3766 13.9637 12.3525 13.2381 13.0781C8.09619 18.245 4.84341 25.0758 4.10528 32.282C3.90511 34.1711 4.0052 38.5999 4.28043 40.2263C4.53065 41.665 5.19371 44.4674 5.35635 44.7301C5.45644 44.8803 5.60656 44.8677 6.44478 44.6175C6.98274 44.4674 7.44564 44.3173 7.47066 44.2797C7.50819 44.2547 7.34555 43.5166 7.13287 42.6283C6.55738 40.2763 6.2321 38.162 6.2321 36.6732V36.1103L8.05866 36.0727C9.88522 36.0352 9.88522 36.0352 10.1855 35.6849C10.4732 35.3471 10.4857 35.272 10.4857 33.2453V31.156L11.987 29.6547C13.676 27.9658 13.8386 27.653 13.4883 26.8899C13.2256 26.3019 10.4107 21.6104 10.1479 21.3101C9.98531 21.135 10.0479 20.9848 10.6734 19.9715C13.5509 15.3175 17.9171 11.4017 22.8588 9.03713L24.1599 8.4116L27.2501 9.95041C29.4394 11.0388 30.4653 11.4892 30.753 11.4767C31.0533 11.4767 31.6163 11.1639 32.7923 10.3758L34.4312 9.28735L36.4079 8.81194C39.1727 8.13636 39.2603 8.08632 39.2603 6.94785V6.35984L40.4864 6.57253C44.4898 7.29815 48.1554 8.74939 51.4582 10.9262C53.2347 12.0897 54.4108 13.028 56.0246 14.5669L57.2132 15.6928L55.4116 15.7053H53.6101L51.4707 17.8321L49.3189 19.959H46.1537H43.001L42.7008 20.2717L42.388 20.572V24.7631V28.9541L42.6882 29.3044L42.9885 29.6547L45.2905 29.6923C46.7417 29.7173 47.7551 29.6923 48.0553 29.5922C48.4557 29.4796 48.6433 29.2669 49.5191 27.9658L50.5199 26.4645H53.0721H55.6368L57.676 30.0426C59.1648 32.6573 59.8029 33.6707 60.0531 33.7958C60.3033 33.9209 60.9413 33.9709 62.5927 33.9709H64.7821V35.5973C64.7821 41.1771 63.0932 46.7193 59.9405 51.5484C57.7011 54.9639 54.5609 58.029 51.0204 60.2934C49.8068 61.0691 47.1671 62.3452 45.5782 62.9332C36.1452 66.4362 25.3234 64.6847 17.2915 58.3543C15.3149 56.8029 13.0504 54.4009 11.6117 52.3616C11.2489 51.8487 10.9361 51.3983 10.9111 51.3733C10.8861 51.3483 10.4982 51.5735 10.0353 51.8737C9.57245 52.174 9.13458 52.4617 9.07202 52.5118C8.82181 52.6744 10.9611 55.4518 12.8002 57.3534C15.0396 59.6679 17.1414 61.2943 20.1065 62.9707C21.8955 63.9966 21.958 63.7964 19.631 64.5846C16.6535 65.5854 13.5008 65.9858 11.3865 65.623C9.40981 65.2977 7.70836 64.0716 6.98274 62.4578C6.41976 61.1942 6.29465 60.4686 6.30716 58.617C6.33218 55.2391 7.48317 51.4609 9.99782 46.4816C12.2497 42.0153 15.4024 37.2863 19.1056 32.7824C19.7311 32.0193 20.2316 31.3687 20.2065 31.3187C20.1565 31.156 18.6927 29.9675 18.5551 29.9675C18.3925 29.98 16.4408 32.3571 14.6768 34.7091C2.9543 50.2974 0.627311 63.7964 9.047 67.3369C10.1104 67.7873 11.4741 68 13.2881 68C16.1781 68 18.8929 67.387 22.6211 65.9107L24.6729 65.0975L26.1241 65.5479C29.4394 66.5863 31.829 66.9366 35.5697 66.9241C38.885 66.9241 40.3738 66.7489 43.3388 65.9983C45.7408 65.3853 47.2421 64.8348 49.5816 63.6838C59.0522 59.0298 65.5578 49.7844 66.8589 39.1003C67.1091 36.9985 67.0466 32.7199 66.7213 30.7182C65.0824 20.4719 58.827 11.8645 49.6567 7.27312C46.6666 5.77184 44.202 4.95865 40.5739 4.29558C39.4855 4.09541 38.5347 4.03286 36.0075 4.00784C34.256 3.98281 32.3669 4.02035 31.8165 4.0829ZM36.5705 6.20972C37.2711 6.22223 36.9333 6.34733 35.0067 6.82274C33.5304 7.18555 33.3678 7.26061 32.0291 8.14887L30.6279 9.07466L28.9015 8.21143L27.1875 7.34819L27.6879 7.22308C29.0391 6.86027 29.7897 6.69763 30.9407 6.50997C32.3419 6.27227 34.9691 6.0721 35.6322 6.14716C35.8699 6.17218 36.2953 6.19721 36.5705 6.20972ZM59.7653 19.0582C62.1549 22.6237 63.8939 27.0775 64.4819 31.131L64.5569 31.7315L62.9055 31.694L61.2416 31.6565L59.2274 28.1284C58.1139 26.1768 57.088 24.5129 56.9629 24.4128C56.7503 24.2501 56.0997 24.2251 53.1347 24.2126C49.7818 24.2126 49.5316 24.2251 49.2438 24.4503C49.0812 24.5879 48.5307 25.3135 48.0178 26.0767L47.1045 27.4654H45.8785H44.6399V24.8381V22.2109H47.4798H50.3198L52.4466 20.0841L54.5859 17.9573H56.8003H59.0147L59.7653 19.0582ZM9.99782 25.4261L11.0988 27.2777L9.67254 28.729L8.23381 30.1802V32.0068V33.8458H7.22044H6.21959L6.29465 33.1202C6.59491 30.2928 7.15789 27.7531 7.90853 25.7014C8.54658 23.9749 8.77177 23.4494 8.83432 23.5245C8.87185 23.562 9.3973 24.4128 9.99782 25.4261Z" stroke="#0B2D1F" mask="url(#path-2-outside-1_6356_46429)"/>
</g>
<g id="Vector_2">
<mask id="path-3-outside-2_6356_46429" maskUnits="userSpaceOnUse" x="14.7402" y="9.97168" width="26" height="26" fill="black">
<rect fill="white" x="14.7402" y="9.97168" width="26" height="26"/>
<path d="M36.3203 11.5767C35.5447 11.7393 34.1435 12.3023 33.4429 12.7277C33.1051 12.9529 32.0291 13.9037 31.0658 14.8545L29.3143 16.5685L24.3226 15.0797C21.5702 14.254 19.1306 13.5784 18.8804 13.5784C18.4926 13.5784 18.3049 13.716 17.0914 14.9296C15.8528 16.1681 15.7402 16.3182 15.7402 16.7561C15.7402 17.0063 15.7903 17.3191 15.8653 17.4442C15.9279 17.5818 17.6794 18.4326 20.144 19.521C22.4335 20.5343 24.3351 21.3976 24.3726 21.4226C24.3976 21.4476 24.0849 21.8104 23.6595 22.2358L22.8963 22.999L21.0698 22.5361C20.0689 22.2858 19.0681 22.0857 18.8429 22.0857C18.5051 22.0857 18.2549 22.2733 17.0914 23.4368C15.8528 24.6754 15.7402 24.8255 15.7402 25.2634C15.7402 25.5136 15.7903 25.8264 15.8528 25.9515C15.9279 26.0766 17.179 26.8898 18.6552 27.778L21.3325 29.3794L22.9339 32.0567C23.8221 33.533 24.6353 34.784 24.7604 34.8591C24.8855 34.9216 25.1858 34.9717 25.436 34.9717C25.8364 34.9717 26.024 34.8341 27.125 33.7707C27.8005 33.1201 28.4261 32.407 28.5136 32.1943C28.6513 31.8565 28.6137 31.5813 28.1884 29.8298L27.7005 27.8406L28.4386 27.0899C28.8514 26.6771 29.2142 26.3893 29.2643 26.4394C29.3143 26.4894 30.0775 28.1909 30.9407 30.2176C33.0926 35.1969 32.9424 34.9592 33.7806 34.9717C34.181 34.9717 34.3937 34.8341 35.407 33.9583C36.9333 32.6322 37.1335 32.407 37.1335 31.9566C37.1335 31.7564 36.4579 29.3168 35.6322 26.527L34.1309 21.4727L35.8574 19.7462C36.9834 18.6202 37.734 17.7445 38.0468 17.2065C38.7224 16.0305 39.1477 14.6168 39.2228 13.2406C39.2853 12.1397 39.2853 12.0896 38.9726 11.7769C38.6723 11.4891 38.5597 11.4516 37.734 11.4641C37.2336 11.4766 36.5955 11.5267 36.3203 11.5767ZM36.8207 14.229C36.7707 14.4542 36.533 15.0672 36.2953 15.5676C35.8699 16.4559 35.6072 16.7436 30.628 21.6728C26.9623 25.3009 25.386 26.9523 25.3359 27.1775C25.2984 27.3652 25.4861 28.3911 25.7488 29.467L26.2367 31.4061L25.9364 31.7064C25.7613 31.8815 25.6112 31.9941 25.5736 31.9566C25.5486 31.9316 24.9981 31.0308 24.3601 29.9674C23.7346 28.904 23.1215 27.9282 23.0215 27.8156C22.9339 27.703 21.9956 27.0899 20.9447 26.4769C19.9063 25.8514 18.968 25.2884 18.8679 25.2133C18.7053 25.1133 18.7303 25.0507 19.0055 24.7755L19.3308 24.4502L21.0948 24.8881C23.9097 25.6012 22.9714 26.1642 29.0641 20.109C31.9541 17.219 34.5313 14.7419 34.7815 14.5918C35.2694 14.304 36.4579 13.8411 36.7332 13.8286C36.8583 13.8286 36.8833 13.9412 36.8207 14.229ZM23.3968 17.1815L27.4878 18.4075L26.8372 19.0581L26.1741 19.7086L22.9339 18.2574C21.1449 17.4692 19.4934 16.7311 19.2557 16.631C18.8429 16.4559 18.8429 16.4434 19.0556 16.2057C19.1807 16.068 19.2933 15.9554 19.2933 15.9554C19.3058 15.9554 21.1449 16.5059 23.3968 17.1815ZM32.4295 23.6745C32.467 23.8747 32.9925 25.7013 33.6055 27.7405L34.7189 31.4562L34.4562 31.7064L34.1935 31.9566L32.5921 28.2534L30.9908 24.5503L31.5913 23.9373C31.9166 23.612 32.2168 23.3367 32.2669 23.3367C32.3169 23.3367 32.3794 23.4869 32.4295 23.6745Z"/>
</mask>
<path d="M36.3203 11.5767C35.5447 11.7393 34.1435 12.3023 33.4429 12.7277C33.1051 12.9529 32.0291 13.9037 31.0658 14.8545L29.3143 16.5685L24.3226 15.0797C21.5702 14.254 19.1306 13.5784 18.8804 13.5784C18.4926 13.5784 18.3049 13.716 17.0914 14.9296C15.8528 16.1681 15.7402 16.3182 15.7402 16.7561C15.7402 17.0063 15.7903 17.3191 15.8653 17.4442C15.9279 17.5818 17.6794 18.4326 20.144 19.521C22.4335 20.5343 24.3351 21.3976 24.3726 21.4226C24.3976 21.4476 24.0849 21.8104 23.6595 22.2358L22.8963 22.999L21.0698 22.5361C20.0689 22.2858 19.0681 22.0857 18.8429 22.0857C18.5051 22.0857 18.2549 22.2733 17.0914 23.4368C15.8528 24.6754 15.7402 24.8255 15.7402 25.2634C15.7402 25.5136 15.7903 25.8264 15.8528 25.9515C15.9279 26.0766 17.179 26.8898 18.6552 27.778L21.3325 29.3794L22.9339 32.0567C23.8221 33.533 24.6353 34.784 24.7604 34.8591C24.8855 34.9216 25.1858 34.9717 25.436 34.9717C25.8364 34.9717 26.024 34.8341 27.125 33.7707C27.8005 33.1201 28.4261 32.407 28.5136 32.1943C28.6513 31.8565 28.6137 31.5813 28.1884 29.8298L27.7005 27.8406L28.4386 27.0899C28.8514 26.6771 29.2142 26.3893 29.2643 26.4394C29.3143 26.4894 30.0775 28.1909 30.9407 30.2176C33.0926 35.1969 32.9424 34.9592 33.7806 34.9717C34.181 34.9717 34.3937 34.8341 35.407 33.9583C36.9333 32.6322 37.1335 32.407 37.1335 31.9566C37.1335 31.7564 36.4579 29.3168 35.6322 26.527L34.1309 21.4727L35.8574 19.7462C36.9834 18.6202 37.734 17.7445 38.0468 17.2065C38.7224 16.0305 39.1477 14.6168 39.2228 13.2406C39.2853 12.1397 39.2853 12.0896 38.9726 11.7769C38.6723 11.4891 38.5597 11.4516 37.734 11.4641C37.2336 11.4766 36.5955 11.5267 36.3203 11.5767ZM36.8207 14.229C36.7707 14.4542 36.533 15.0672 36.2953 15.5676C35.8699 16.4559 35.6072 16.7436 30.628 21.6728C26.9623 25.3009 25.386 26.9523 25.3359 27.1775C25.2984 27.3652 25.4861 28.3911 25.7488 29.467L26.2367 31.4061L25.9364 31.7064C25.7613 31.8815 25.6112 31.9941 25.5736 31.9566C25.5486 31.9316 24.9981 31.0308 24.3601 29.9674C23.7346 28.904 23.1215 27.9282 23.0215 27.8156C22.9339 27.703 21.9956 27.0899 20.9447 26.4769C19.9063 25.8514 18.968 25.2884 18.8679 25.2133C18.7053 25.1133 18.7303 25.0507 19.0055 24.7755L19.3308 24.4502L21.0948 24.8881C23.9097 25.6012 22.9714 26.1642 29.0641 20.109C31.9541 17.219 34.5313 14.7419 34.7815 14.5918C35.2694 14.304 36.4579 13.8411 36.7332 13.8286C36.8583 13.8286 36.8833 13.9412 36.8207 14.229ZM23.3968 17.1815L27.4878 18.4075L26.8372 19.0581L26.1741 19.7086L22.9339 18.2574C21.1449 17.4692 19.4934 16.7311 19.2557 16.631C18.8429 16.4559 18.8429 16.4434 19.0556 16.2057C19.1807 16.068 19.2933 15.9554 19.2933 15.9554C19.3058 15.9554 21.1449 16.5059 23.3968 17.1815ZM32.4295 23.6745C32.467 23.8747 32.9925 25.7013 33.6055 27.7405L34.7189 31.4562L34.4562 31.7064L34.1935 31.9566L32.5921 28.2534L30.9908 24.5503L31.5913 23.9373C31.9166 23.612 32.2168 23.3367 32.2669 23.3367C32.3169 23.3367 32.3794 23.4869 32.4295 23.6745Z" fill="#0B2D1F"/>
<path d="M36.3203 11.5767C35.5447 11.7393 34.1435 12.3023 33.4429 12.7277C33.1051 12.9529 32.0291 13.9037 31.0658 14.8545L29.3143 16.5685L24.3226 15.0797C21.5702 14.254 19.1306 13.5784 18.8804 13.5784C18.4926 13.5784 18.3049 13.716 17.0914 14.9296C15.8528 16.1681 15.7402 16.3182 15.7402 16.7561C15.7402 17.0063 15.7903 17.3191 15.8653 17.4442C15.9279 17.5818 17.6794 18.4326 20.144 19.521C22.4335 20.5343 24.3351 21.3976 24.3726 21.4226C24.3976 21.4476 24.0849 21.8104 23.6595 22.2358L22.8963 22.999L21.0698 22.5361C20.0689 22.2858 19.0681 22.0857 18.8429 22.0857C18.5051 22.0857 18.2549 22.2733 17.0914 23.4368C15.8528 24.6754 15.7402 24.8255 15.7402 25.2634C15.7402 25.5136 15.7903 25.8264 15.8528 25.9515C15.9279 26.0766 17.179 26.8898 18.6552 27.778L21.3325 29.3794L22.9339 32.0567C23.8221 33.533 24.6353 34.784 24.7604 34.8591C24.8855 34.9216 25.1858 34.9717 25.436 34.9717C25.8364 34.9717 26.024 34.8341 27.125 33.7707C27.8005 33.1201 28.4261 32.407 28.5136 32.1943C28.6513 31.8565 28.6137 31.5813 28.1884 29.8298L27.7005 27.8406L28.4386 27.0899C28.8514 26.6771 29.2142 26.3893 29.2643 26.4394C29.3143 26.4894 30.0775 28.1909 30.9407 30.2176C33.0926 35.1969 32.9424 34.9592 33.7806 34.9717C34.181 34.9717 34.3937 34.8341 35.407 33.9583C36.9333 32.6322 37.1335 32.407 37.1335 31.9566C37.1335 31.7564 36.4579 29.3168 35.6322 26.527L34.1309 21.4727L35.8574 19.7462C36.9834 18.6202 37.734 17.7445 38.0468 17.2065C38.7224 16.0305 39.1477 14.6168 39.2228 13.2406C39.2853 12.1397 39.2853 12.0896 38.9726 11.7769C38.6723 11.4891 38.5597 11.4516 37.734 11.4641C37.2336 11.4766 36.5955 11.5267 36.3203 11.5767ZM36.8207 14.229C36.7707 14.4542 36.533 15.0672 36.2953 15.5676C35.8699 16.4559 35.6072 16.7436 30.628 21.6728C26.9623 25.3009 25.386 26.9523 25.3359 27.1775C25.2984 27.3652 25.4861 28.3911 25.7488 29.467L26.2367 31.4061L25.9364 31.7064C25.7613 31.8815 25.6112 31.9941 25.5736 31.9566C25.5486 31.9316 24.9981 31.0308 24.3601 29.9674C23.7346 28.904 23.1215 27.9282 23.0215 27.8156C22.9339 27.703 21.9956 27.0899 20.9447 26.4769C19.9063 25.8514 18.968 25.2884 18.8679 25.2133C18.7053 25.1133 18.7303 25.0507 19.0055 24.7755L19.3308 24.4502L21.0948 24.8881C23.9097 25.6012 22.9714 26.1642 29.0641 20.109C31.9541 17.219 34.5313 14.7419 34.7815 14.5918C35.2694 14.304 36.4579 13.8411 36.7332 13.8286C36.8583 13.8286 36.8833 13.9412 36.8207 14.229ZM23.3968 17.1815L27.4878 18.4075L26.8372 19.0581L26.1741 19.7086L22.9339 18.2574C21.1449 17.4692 19.4934 16.7311 19.2557 16.631C18.8429 16.4559 18.8429 16.4434 19.0556 16.2057C19.1807 16.068 19.2933 15.9554 19.2933 15.9554C19.3058 15.9554 21.1449 16.5059 23.3968 17.1815ZM32.4295 23.6745C32.467 23.8747 32.9925 25.7013 33.6055 27.7405L34.7189 31.4562L34.4562 31.7064L34.1935 31.9566L32.5921 28.2534L30.9908 24.5503L31.5913 23.9373C31.9166 23.612 32.2168 23.3367 32.2669 23.3367C32.3169 23.3367 32.3794 23.4869 32.4295 23.6745Z" stroke="#0B2D1F" mask="url(#path-3-outside-2_6356_46429)"/>
</g>
<g id="Vector_3">
<mask id="path-4-outside-3_6356_46429" maskUnits="userSpaceOnUse" x="39.2617" y="32.366" width="22" height="26" fill="black">
<rect fill="white" x="39.2617" y="32.366" width="22" height="26"/>
<path d="M40.5745 34.1586L40.2617 34.4589V39.1879C40.2742 42.7034 40.3118 43.967 40.4244 44.1171C40.7371 44.53 41.1124 44.6051 42.8139 44.6051H44.5154V50.6727V56.7529L44.8281 57.0532L45.1284 57.366H48.2936H51.4588L53.8984 54.9264L56.338 52.4868L56.4005 50.1973L56.4631 47.9204L58.5023 44.8678C59.7659 42.9912 60.5791 41.6651 60.6166 41.4023C60.6792 41.0645 60.6166 40.9269 60.3038 40.6016L59.9285 40.2263H57.9393H55.9626L54.4613 37.2112C53.6356 35.5473 52.8475 34.1211 52.7099 34.021C52.5097 33.8709 51.4338 33.8459 46.6672 33.8459H40.8747L40.5745 34.1586ZM52.835 39.1129C53.9985 41.4524 54.4113 42.1655 54.674 42.3031C54.8867 42.4157 55.4122 42.4782 56.1503 42.4782C56.7633 42.4782 57.2763 42.5033 57.2763 42.5408C57.2763 42.5783 56.5757 43.6668 55.7124 44.9554L54.1486 47.2949V49.3591V51.4234L52.3095 53.2625L50.4579 55.114H48.6189H46.7673V49.0964V43.0788L46.4045 42.716L46.0417 42.3531H44.2776H42.5136V39.2255V36.0978H46.9299H51.3337L52.835 39.1129Z"/>
</mask>
<path d="M40.5745 34.1586L40.2617 34.4589V39.1879C40.2742 42.7034 40.3118 43.967 40.4244 44.1171C40.7371 44.53 41.1124 44.6051 42.8139 44.6051H44.5154V50.6727V56.7529L44.8281 57.0532L45.1284 57.366H48.2936H51.4588L53.8984 54.9264L56.338 52.4868L56.4005 50.1973L56.4631 47.9204L58.5023 44.8678C59.7659 42.9912 60.5791 41.6651 60.6166 41.4023C60.6792 41.0645 60.6166 40.9269 60.3038 40.6016L59.9285 40.2263H57.9393H55.9626L54.4613 37.2112C53.6356 35.5473 52.8475 34.1211 52.7099 34.021C52.5097 33.8709 51.4338 33.8459 46.6672 33.8459H40.8747L40.5745 34.1586ZM52.835 39.1129C53.9985 41.4524 54.4113 42.1655 54.674 42.3031C54.8867 42.4157 55.4122 42.4782 56.1503 42.4782C56.7633 42.4782 57.2763 42.5033 57.2763 42.5408C57.2763 42.5783 56.5757 43.6668 55.7124 44.9554L54.1486 47.2949V49.3591V51.4234L52.3095 53.2625L50.4579 55.114H48.6189H46.7673V49.0964V43.0788L46.4045 42.716L46.0417 42.3531H44.2776H42.5136V39.2255V36.0978H46.9299H51.3337L52.835 39.1129Z" fill="#0B2D1F"/>
<path d="M40.5745 34.1586L40.2617 34.4589V39.1879C40.2742 42.7034 40.3118 43.967 40.4244 44.1171C40.7371 44.53 41.1124 44.6051 42.8139 44.6051H44.5154V50.6727V56.7529L44.8281 57.0532L45.1284 57.366H48.2936H51.4588L53.8984 54.9264L56.338 52.4868L56.4005 50.1973L56.4631 47.9204L58.5023 44.8678C59.7659 42.9912 60.5791 41.6651 60.6166 41.4023C60.6792 41.0645 60.6166 40.9269 60.3038 40.6016L59.9285 40.2263H57.9393H55.9626L54.4613 37.2112C53.6356 35.5473 52.8475 34.1211 52.7099 34.021C52.5097 33.8709 51.4338 33.8459 46.6672 33.8459H40.8747L40.5745 34.1586ZM52.835 39.1129C53.9985 41.4524 54.4113 42.1655 54.674 42.3031C54.8867 42.4157 55.4122 42.4782 56.1503 42.4782C56.7633 42.4782 57.2763 42.5033 57.2763 42.5408C57.2763 42.5783 56.5757 43.6668 55.7124 44.9554L54.1486 47.2949V49.3591V51.4234L52.3095 53.2625L50.4579 55.114H48.6189H46.7673V49.0964V43.0788L46.4045 42.716L46.0417 42.3531H44.2776H42.5136V39.2255V36.0978H46.9299H51.3337L52.835 39.1129Z" stroke="#0B2D1F" mask="url(#path-4-outside-3_6356_46429)"/>
</g>
<g id="Vector_4">
<mask id="path-5-outside-4_6356_46429" maskUnits="userSpaceOnUse" x="17.8672" y="38.6047" width="19" height="23" fill="black">
<rect fill="white" x="17.8672" y="38.6047" width="19" height="23"/>
<path d="M19.4552 39.3004C19.2675 39.4005 19.0548 39.6257 18.9923 39.8008C18.9172 39.976 18.8672 41.8901 18.8672 44.117V48.133L19.23 48.4958L19.5928 48.8586H21.9198H24.2468V54.4133V59.9681L24.6346 60.2933C25.3102 60.8688 25.5104 60.7813 28.0876 58.8671C29.3762 57.9038 30.5021 56.978 30.5897 56.8279C30.6898 56.6527 30.7398 56.0147 30.7523 55.0889V53.6377L33.292 51.6109C34.9684 50.2723 35.8692 49.4591 35.9818 49.2089C36.1069 48.9211 36.1319 48.0954 36.1069 45.8935L36.0694 42.9535L35.7191 42.6533C35.3688 42.353 35.3688 42.353 32.2161 42.353H29.0634L27.4745 40.7517L25.8732 39.1628L22.8331 39.1378C20.3059 39.1128 19.7429 39.1378 19.4552 39.3004ZM26.4362 42.9786L28.0876 44.6049H30.9775H33.88V46.4065V48.208L31.4154 50.1722C30.0517 51.2606 28.8382 52.249 28.7256 52.3866C28.5379 52.5993 28.5004 52.887 28.5004 54.1631V55.6894L27.5371 56.4025L26.5613 57.1281L26.4987 52.1739L26.4362 47.2072L26.0859 46.9069C25.7356 46.6192 25.6855 46.6067 23.4211 46.6067H21.1191V43.9794V41.3522H22.9582H24.7973L26.4362 42.9786Z"/>
</mask>
<path d="M19.4552 39.3004C19.2675 39.4005 19.0548 39.6257 18.9923 39.8008C18.9172 39.976 18.8672 41.8901 18.8672 44.117V48.133L19.23 48.4958L19.5928 48.8586H21.9198H24.2468V54.4133V59.9681L24.6346 60.2933C25.3102 60.8688 25.5104 60.7813 28.0876 58.8671C29.3762 57.9038 30.5021 56.978 30.5897 56.8279C30.6898 56.6527 30.7398 56.0147 30.7523 55.0889V53.6377L33.292 51.6109C34.9684 50.2723 35.8692 49.4591 35.9818 49.2089C36.1069 48.9211 36.1319 48.0954 36.1069 45.8935L36.0694 42.9535L35.7191 42.6533C35.3688 42.353 35.3688 42.353 32.2161 42.353H29.0634L27.4745 40.7517L25.8732 39.1628L22.8331 39.1378C20.3059 39.1128 19.7429 39.1378 19.4552 39.3004ZM26.4362 42.9786L28.0876 44.6049H30.9775H33.88V46.4065V48.208L31.4154 50.1722C30.0517 51.2606 28.8382 52.249 28.7256 52.3866C28.5379 52.5993 28.5004 52.887 28.5004 54.1631V55.6894L27.5371 56.4025L26.5613 57.1281L26.4987 52.1739L26.4362 47.2072L26.0859 46.9069C25.7356 46.6192 25.6855 46.6067 23.4211 46.6067H21.1191V43.9794V41.3522H22.9582H24.7973L26.4362 42.9786Z" fill="#0B2D1F"/>
<path d="M19.4552 39.3004C19.2675 39.4005 19.0548 39.6257 18.9923 39.8008C18.9172 39.976 18.8672 41.8901 18.8672 44.117V48.133L19.23 48.4958L19.5928 48.8586H21.9198H24.2468V54.4133V59.9681L24.6346 60.2933C25.3102 60.8688 25.5104 60.7813 28.0876 58.8671C29.3762 57.9038 30.5021 56.978 30.5897 56.8279C30.6898 56.6527 30.7398 56.0147 30.7523 55.0889V53.6377L33.292 51.6109C34.9684 50.2723 35.8692 49.4591 35.9818 49.2089C36.1069 48.9211 36.1319 48.0954 36.1069 45.8935L36.0694 42.9535L35.7191 42.6533C35.3688 42.353 35.3688 42.353 32.2161 42.353H29.0634L27.4745 40.7517L25.8732 39.1628L22.8331 39.1378C20.3059 39.1128 19.7429 39.1378 19.4552 39.3004ZM26.4362 42.9786L28.0876 44.6049H30.9775H33.88V46.4065V48.208L31.4154 50.1722C30.0517 51.2606 28.8382 52.249 28.7256 52.3866C28.5379 52.5993 28.5004 52.887 28.5004 54.1631V55.6894L27.5371 56.4025L26.5613 57.1281L26.4987 52.1739L26.4362 47.2072L26.0859 46.9069C25.7356 46.6192 25.6855 46.6067 23.4211 46.6067H21.1191V43.9794V41.3522H22.9582H24.7973L26.4362 42.9786Z" stroke="#0B2D1F" mask="url(#path-5-outside-4_6356_46429)"/>
</g>
</g>
</g>
</g>
</g>
</svg>
