<svg width="72" height="72" viewBox="0 0 72 72" fill="none" xmlns="http://www.w3.org/2000/svg">
<g id="travel-cancelation">
<g id="Group 1171275437">
<g id="Group 1171275430">
<g id="Group 1171275273">
<g id="Group">
<g id="Vector">
<mask id="path-1-outside-1_6356_46462" maskUnits="userSpaceOnUse" x="41.1738" y="44" width="25" height="25" fill="black">
<rect fill="white" x="41.1738" y="44" width="25" height="25"/>
<path d="M52.5413 44.8431C50.3084 45.1148 48.2533 45.9546 46.544 47.3032C46.0945 47.654 45.0274 48.721 44.6767 49.1706C43.4515 50.7267 42.5969 52.6781 42.2906 54.6294C42.177 55.3457 42.1375 56.7882 42.2116 57.5144C42.4388 59.7226 43.2292 61.7184 44.6026 63.5413C44.9879 64.0502 46.1291 65.1913 46.6379 65.5767C48.278 66.8117 50.0515 67.5774 52.0226 67.8886C52.7933 68.0121 54.2605 68.0368 55.0707 67.943C57.2542 67.691 59.087 66.9451 60.9148 65.5717C61.4236 65.1963 62.5648 64.0502 62.9501 63.5413C64.195 61.8864 64.9608 60.1129 65.272 58.1221C65.3955 57.3366 65.3955 55.4692 65.272 54.6837C64.9608 52.6929 64.195 50.9194 62.9501 49.2645C62.5648 48.7556 61.4236 47.6145 60.9148 47.2291C59.2648 45.9842 57.4963 45.2234 55.5301 44.9122C54.9472 44.8184 53.0946 44.7788 52.5413 44.8431ZM55.1102 47.0463C58.7807 47.5799 61.8287 50.2228 62.8414 53.7402C63.1428 54.7776 63.1873 55.1185 63.1873 56.4029C63.1873 57.6873 63.1428 58.0282 62.8414 59.0656C62.5401 60.1129 62.0016 61.1849 61.31 62.1087C60.9296 62.6175 59.991 63.5562 59.4822 63.9366C57.1406 65.6903 54.1963 66.2732 51.3804 65.547C47.7297 64.5985 44.9632 61.4961 44.4149 57.7318C44.3161 57.0451 44.3161 55.7557 44.4149 55.074C45.1707 49.8968 49.9675 46.3004 55.1102 47.0463Z"/>
<path d="M55.1102 47.0463C58.7807 47.5799 61.8287 50.2228 62.8414 53.7402C63.1428 54.7776 63.1873 55.1185 63.1873 56.4029C63.1873 57.6873 63.1428 58.0282 62.8414 59.0656C62.5401 60.1129 62.0016 61.1849 61.31 62.1087C60.9296 62.6175 59.991 63.5562 59.4822 63.9366C57.1406 65.6903 54.1963 66.2732 51.3804 65.547C47.7297 64.5985 44.9632 61.4961 44.4149 57.7318C44.3161 57.0451 44.3161 55.7557 44.4149 55.074C45.1707 49.8968 49.9675 46.3004 55.1102 47.0463Z"/>
</mask>
<path d="M52.5413 44.8431C50.3084 45.1148 48.2533 45.9546 46.544 47.3032C46.0945 47.654 45.0274 48.721 44.6767 49.1706C43.4515 50.7267 42.5969 52.6781 42.2906 54.6294C42.177 55.3457 42.1375 56.7882 42.2116 57.5144C42.4388 59.7226 43.2292 61.7184 44.6026 63.5413C44.9879 64.0502 46.1291 65.1913 46.6379 65.5767C48.278 66.8117 50.0515 67.5774 52.0226 67.8886C52.7933 68.0121 54.2605 68.0368 55.0707 67.943C57.2542 67.691 59.087 66.9451 60.9148 65.5717C61.4236 65.1963 62.5648 64.0502 62.9501 63.5413C64.195 61.8864 64.9608 60.1129 65.272 58.1221C65.3955 57.3366 65.3955 55.4692 65.272 54.6837C64.9608 52.6929 64.195 50.9194 62.9501 49.2645C62.5648 48.7556 61.4236 47.6145 60.9148 47.2291C59.2648 45.9842 57.4963 45.2234 55.5301 44.9122C54.9472 44.8184 53.0946 44.7788 52.5413 44.8431ZM55.1102 47.0463C58.7807 47.5799 61.8287 50.2228 62.8414 53.7402C63.1428 54.7776 63.1873 55.1185 63.1873 56.4029C63.1873 57.6873 63.1428 58.0282 62.8414 59.0656C62.5401 60.1129 62.0016 61.1849 61.31 62.1087C60.9296 62.6175 59.991 63.5562 59.4822 63.9366C57.1406 65.6903 54.1963 66.2732 51.3804 65.547C47.7297 64.5985 44.9632 61.4961 44.4149 57.7318C44.3161 57.0451 44.3161 55.7557 44.4149 55.074C45.1707 49.8968 49.9675 46.3004 55.1102 47.0463Z" fill="#0B2D1F"/>
<path d="M55.1102 47.0463C58.7807 47.5799 61.8287 50.2228 62.8414 53.7402C63.1428 54.7776 63.1873 55.1185 63.1873 56.4029C63.1873 57.6873 63.1428 58.0282 62.8414 59.0656C62.5401 60.1129 62.0016 61.1849 61.31 62.1087C60.9296 62.6175 59.991 63.5562 59.4822 63.9366C57.1406 65.6903 54.1963 66.2732 51.3804 65.547C47.7297 64.5985 44.9632 61.4961 44.4149 57.7318C44.3161 57.0451 44.3161 55.7557 44.4149 55.074C45.1707 49.8968 49.9675 46.3004 55.1102 47.0463Z" fill="#22885E"/>
<path d="M55.1102 47.0463L55.1532 46.7495L55.1533 46.7495L55.1102 47.0463ZM62.8414 53.7402L62.5534 53.8239L62.5532 53.8232L62.8414 53.7402ZM62.8414 59.0656L62.5531 58.9827L62.5534 58.9819L62.8414 59.0656ZM61.31 62.1087L61.0697 61.9291L61.0699 61.9289L61.31 62.1087ZM59.4822 63.9366L59.3023 63.6964L59.3025 63.6963L59.4822 63.9366ZM51.3804 65.547L51.3055 65.8375L51.305 65.8374L51.3804 65.547ZM44.4149 57.7318L44.118 57.775L44.1179 57.7745L44.4149 57.7318ZM44.4149 55.074L44.118 55.031L44.118 55.0307L44.4149 55.074ZM55.1533 46.7495C58.9388 47.2997 62.0839 50.0249 63.1297 53.6572L62.5532 53.8232C61.5735 50.4207 58.6226 47.8601 55.067 47.3432L55.1533 46.7495ZM63.1295 53.6565C63.2812 54.1787 63.373 54.5412 63.4249 54.9403C63.4764 55.3367 63.4873 55.7602 63.4873 56.4029H62.8873C62.8873 55.7612 62.8759 55.372 62.8299 55.0176C62.7841 54.6657 62.703 54.339 62.5534 53.8239L63.1295 53.6565ZM63.4873 56.4029C63.4873 57.0456 63.4764 57.4691 63.4249 57.8655C63.373 58.2646 63.2812 58.6271 63.1295 59.1493L62.5534 58.9819C62.703 58.4668 62.7841 58.1401 62.8299 57.7882C62.8759 57.4338 62.8873 57.0446 62.8873 56.4029H63.4873ZM63.1297 59.1486C62.8178 60.2326 62.2624 61.3371 61.5502 62.2885L61.0699 61.9289C61.7408 61.0327 62.2624 59.9932 62.5531 58.9827L63.1297 59.1486ZM61.5503 62.2883C61.1527 62.8202 60.1937 63.7792 59.6618 64.1768L59.3025 63.6963C59.7884 63.3331 60.7066 62.4149 61.0697 61.9291L61.5503 62.2883ZM59.662 64.1767C57.2478 65.9848 54.2099 66.5865 51.3055 65.8375L51.4553 65.2565C54.1827 65.9599 57.0333 65.3958 59.3023 63.6964L59.662 64.1767ZM51.305 65.8374C47.5362 64.8582 44.6836 61.6576 44.118 57.775L44.7117 57.6885C45.2429 61.3347 47.9231 64.3388 51.4558 65.2567L51.305 65.8374ZM44.1179 57.7745C44.0151 57.0596 44.015 55.7414 44.118 55.031L44.7118 55.117C44.6171 55.7701 44.6171 57.0306 44.7118 57.6891L44.1179 57.7745ZM44.118 55.0307C44.8975 49.6912 49.8452 45.9795 55.1532 46.7495L55.0671 47.3432C50.0899 46.6213 45.4439 50.1024 44.7117 55.1173L44.118 55.0307ZM52.5413 44.8431L52.4689 44.2474L52.4722 44.2471L52.5413 44.8431ZM46.544 47.3032L46.9157 47.7743L46.9131 47.7763L46.544 47.3032ZM44.6767 49.1706L45.1497 49.5397L45.1481 49.5417L44.6767 49.1706ZM42.2906 54.6294L42.8834 54.7224L42.8832 54.7234L42.2906 54.6294ZM42.2116 57.5144L41.6147 57.5758L41.6147 57.5753L42.2116 57.5144ZM44.6026 63.5413L44.1243 63.9036L44.1234 63.9024L44.6026 63.5413ZM46.6379 65.5767L46.277 66.056L46.2757 66.055L46.6379 65.5767ZM52.0226 67.8886L52.1162 67.296L52.1176 67.2962L52.0226 67.8886ZM55.0707 67.943L55.0016 67.347L55.0019 67.3469L55.0707 67.943ZM60.9148 65.5717L60.5544 65.092L60.5586 65.0889L60.9148 65.5717ZM62.9501 63.5413L63.4296 63.902L63.4284 63.9036L62.9501 63.5413ZM65.272 58.1221L64.6792 58.0294L64.6793 58.0289L65.272 58.1221ZM65.272 54.6837L64.6793 54.7769L64.6792 54.7764L65.272 54.6837ZM62.9501 49.2645L63.4285 48.9022L63.4296 48.9038L62.9501 49.2645ZM60.9148 47.2291L61.2762 46.7502L61.277 46.7508L60.9148 47.2291ZM55.5301 44.9122L55.4363 45.5048L55.4347 45.5046L55.5301 44.9122ZM52.6138 45.4387C50.4855 45.6976 48.5349 46.4967 46.9157 47.7743L46.1724 46.8322C47.9717 45.4125 50.1313 44.5319 52.4689 44.2474L52.6138 45.4387ZM46.9131 47.7763C46.7197 47.9272 46.3628 48.2589 45.9976 48.6241C45.6323 48.9894 45.3006 49.3463 45.1497 49.5397L44.2036 48.8015C44.4035 48.5454 44.7807 48.144 45.1491 47.7756C45.5174 47.4072 45.9188 47.03 46.175 46.8302L46.9131 47.7763ZM45.1481 49.5417C43.9861 51.0177 43.1736 52.8734 42.8834 54.7224L41.6979 54.5364C42.0202 52.4827 42.917 50.4357 44.2053 48.7994L45.1481 49.5417ZM42.8832 54.7234C42.7778 55.3881 42.7396 56.7786 42.8085 57.4535L41.6147 57.5753C41.5353 56.7979 41.5762 55.3033 41.698 54.5354L42.8832 54.7234ZM42.8084 57.453C43.0242 59.5497 43.7725 61.4424 45.0818 63.1803L44.1234 63.9024C42.686 61.9945 41.8535 59.8956 41.6147 57.5758L42.8084 57.453ZM45.0809 63.1791C45.2471 63.3986 45.6038 63.7867 45.9982 64.1811C46.3926 64.5755 46.7807 64.9322 47.0001 65.0983L46.2757 66.055C45.9863 65.8358 45.5494 65.4293 45.1497 65.0296C44.7499 64.6299 44.3434 64.193 44.1243 63.9036L45.0809 63.1791ZM46.9988 65.0974C48.5638 66.2758 50.2462 67.0007 52.1162 67.296L51.929 68.4813C49.8568 68.1541 47.9922 67.3476 46.277 66.056L46.9988 65.0974ZM52.1176 67.2962C52.8306 67.4105 54.2425 67.4349 55.0016 67.347L55.1397 68.539C54.2785 68.6388 52.7559 68.6138 51.9277 68.4811L52.1176 67.2962ZM55.0019 67.3469C57.0746 67.1078 58.8076 66.4045 60.5544 65.092L61.2752 66.0514C59.3663 67.4857 57.4337 68.2743 55.1394 68.539L55.0019 67.3469ZM60.5586 65.0889C60.774 64.93 61.1594 64.5774 61.5545 64.1823C61.9483 63.7885 62.3054 63.3989 62.4718 63.1791L63.4284 63.9036C63.2096 64.1926 62.8034 64.6305 62.403 65.0308C62.004 65.4298 61.5645 65.838 61.271 66.0545L60.5586 65.0889ZM62.4706 63.1807C63.6591 61.6008 64.3838 59.9186 64.6792 58.0294L65.8648 58.2147C65.5377 60.3073 64.731 62.1721 63.4296 63.902L62.4706 63.1807ZM64.6793 58.0289C64.7334 57.6842 64.7646 57.0594 64.7646 56.4029C64.7646 55.7464 64.7334 55.1216 64.6793 54.7769L65.8647 54.5905C65.934 55.0314 65.9646 55.733 65.9646 56.4029C65.9646 57.0728 65.934 57.7744 65.8647 58.2153L64.6793 58.0289ZM64.6792 54.7764C64.3838 52.8872 63.6591 51.205 62.4706 49.6251L63.4296 48.9038C64.731 50.6337 65.5377 52.4985 65.8648 54.5911L64.6792 54.7764ZM62.4718 49.6267C62.3056 49.4072 61.9489 49.0191 61.5545 48.6247C61.1601 48.2303 60.772 47.8736 60.5526 47.7075L61.277 46.7508C61.5664 46.9699 62.0033 47.3765 62.403 47.7762C62.8028 48.1759 63.2093 48.6128 63.4284 48.9022L62.4718 49.6267ZM60.5534 47.7081C58.9789 46.5201 57.3016 45.8001 55.4363 45.5048L55.6239 44.3196C57.691 44.6468 59.5507 45.4483 61.2762 46.7502L60.5534 47.7081ZM55.4347 45.5046C55.1893 45.4651 54.6193 45.4319 54.0111 45.4182C53.4023 45.4045 52.8403 45.4124 52.6105 45.4391L52.4722 44.2471C52.7957 44.2095 53.4366 44.205 54.0381 44.2185C54.6403 44.232 55.2879 44.2655 55.6255 44.3198L55.4347 45.5046Z" fill="#0B2D1F" mask="url(#path-1-outside-1_6356_46462)"/>
</g>
</g>
</g>
<g id="Subtract">
<mask id="path-3-outside-2_6356_46462" maskUnits="userSpaceOnUse" x="5" y="3" width="62" height="62" fill="black">
<rect fill="white" x="5" y="3" width="62" height="62"/>
<path fill-rule="evenodd" clip-rule="evenodd" d="M53.5339 5.7084C54.2761 4.98942 55.3082 4.43279 56.3867 4.17766C57.4535 3.92254 59.796 3.94573 60.8861 4.22405C63.9244 5.00101 65.3623 7.09998 65.3623 10.7645C65.3623 13.0838 64.8637 14.5565 63.6693 15.7973C63.2982 16.18 60.5382 18.8008 57.5347 21.6188C54.5428 24.4367 51.9916 26.9184 51.8756 27.1387L51.6553 27.533L55.2038 43.1303C55.3439 43.7472 55.4821 44.3573 55.6181 44.9584C55.0157 44.8618 54.3978 44.8116 53.7681 44.8116C53.4806 44.8116 53.1955 44.8221 52.9133 44.8426C52.8284 44.4698 52.7415 44.0885 52.6526 43.6985C49.2365 28.7057 48.8919 27.3839 49.3141 26.3867C49.382 26.2262 49.4698 26.0741 49.5679 25.8747C49.8926 25.2253 50.4725 24.6455 56.004 19.4386C61.4705 14.2972 62.2689 13.5477 62.563 12.6357C62.6152 12.4739 62.6515 12.3071 62.6952 12.1097C62.9387 10.9732 62.7415 9.04819 62.3009 8.17845C62.0226 7.64501 61.4079 7.13477 60.7354 6.87964C59.9932 6.58973 57.987 6.47377 57.1868 6.65931C55.9344 6.96082 55.9228 6.97242 49.9506 13.3273C45.7643 17.7687 44.106 19.4618 43.7001 19.6822C43.3986 19.8445 42.8188 20.0417 42.4013 20.1112C41.7055 20.2388 41.5084 20.2272 39.966 19.9025C39.3342 19.7761 35.9161 19.0527 31.4078 18.0985C29.2966 17.6517 26.9463 17.1543 24.5311 16.6439C16.9702 15.0436 10.6733 13.7332 10.5458 13.7332C10.4066 13.7332 10.1631 13.8955 10.0007 14.0927C9.57165 14.6029 9.57165 15.3683 10.0123 15.7973C10.1979 15.9713 15.022 18.5921 20.7623 21.6188C28.8334 25.8863 31.3035 27.2431 31.6977 27.6258C33.0197 28.9014 33.2517 31.0931 32.2312 32.6007C31.8717 33.1225 19.2547 46.76 18.7793 47.131C18.211 47.5717 17.8399 47.4673 13.8739 45.7395C11.3807 44.6494 10.0123 44.116 9.74559 44.116C9.22375 44.116 8.53956 44.7422 8.53956 45.206C8.53956 45.8206 8.84107 46.1106 11.3691 47.966C12.4207 48.7332 13.7607 49.7246 14.7794 50.4783C15.1311 50.7386 15.4446 50.9705 15.6946 51.155L17.4573 52.4654L20.3796 56.4778C21.9799 58.6695 23.4063 60.5482 23.5338 60.6409C23.9397 60.9309 24.5195 60.8613 24.8906 60.4902C25.5632 59.8176 25.54 59.7364 23.731 55.5849C22.8264 53.5207 22.0611 51.6421 22.0263 51.4217C21.9915 51.1202 22.0379 50.9231 22.2466 50.6448C22.3858 50.436 25.6908 47.3166 29.5756 43.7101C34.6896 38.9787 36.8118 37.0769 37.2409 36.8682C38.8064 36.1028 40.8358 36.5203 41.949 37.8423C42.1432 38.0671 44.3286 42.004 47.0201 46.9766C46.2863 47.5027 45.6164 48.1123 45.0244 48.7915C42.2653 43.683 40.0471 39.6385 39.9313 39.5122C39.5718 39.1063 39.0151 38.9671 38.5513 39.1643C38.3309 39.257 35.2347 42.0402 31.5238 45.4959L24.8906 51.6653L25.053 52.0364C25.1341 52.2451 25.7951 53.7642 26.5257 55.4225L27.8477 58.4376V59.5393C27.8477 60.4438 27.8013 60.7337 27.581 61.1744C27.1983 61.9514 26.6185 62.5776 25.9227 62.9602C25.4009 63.2386 25.1225 63.3081 24.2992 63.3429C23.4063 63.3893 23.2207 63.3545 22.6061 63.0762C22.2234 62.9139 21.7248 62.5776 21.4928 62.3456C21.2725 62.1137 19.9389 60.3394 18.5357 58.4144C17.1326 56.4778 15.8569 54.7499 15.7062 54.5644C15.5554 54.3788 13.6188 52.8829 11.3807 51.2478C9.15417 49.6011 7.18277 48.1399 7.02042 47.9776C6.40581 47.4094 6.06951 46.586 6.01153 45.5539C5.94195 44.1971 6.17388 43.5593 7.0784 42.6548C7.82058 41.9126 8.38881 41.6459 9.47888 41.4952C10.279 41.3908 11.0792 41.6459 14.5233 43.165L17.6776 44.545L23.8005 37.935C27.1751 34.3053 30.0047 31.2323 30.0974 31.1047C30.3294 30.7684 30.2946 30.0378 30.0278 29.6783C29.8771 29.4696 26.5373 27.6374 19.3243 23.8221C13.5608 20.7722 8.63233 18.0934 8.35402 17.8615C7.71621 17.3281 7.17117 16.238 7.0784 15.2871C6.91605 13.7448 7.82058 12.0865 9.17737 11.4603C9.30578 11.4005 9.39405 11.3424 9.4875 11.2944C10.2464 10.9047 11.3472 11.1807 37.0669 16.6323C39.4558 17.1425 41.6127 17.56 41.8563 17.56C41.9222 17.56 41.9758 17.5644 42.0289 17.5615C42.4247 17.54 42.7984 17.1148 48.0836 11.4719C50.7044 8.6655 53.1628 6.06789 53.5339 5.7084Z"/>
</mask>
<path fill-rule="evenodd" clip-rule="evenodd" d="M53.5339 5.7084C54.2761 4.98942 55.3082 4.43279 56.3867 4.17766C57.4535 3.92254 59.796 3.94573 60.8861 4.22405C63.9244 5.00101 65.3623 7.09998 65.3623 10.7645C65.3623 13.0838 64.8637 14.5565 63.6693 15.7973C63.2982 16.18 60.5382 18.8008 57.5347 21.6188C54.5428 24.4367 51.9916 26.9184 51.8756 27.1387L51.6553 27.533L55.2038 43.1303C55.3439 43.7472 55.4821 44.3573 55.6181 44.9584C55.0157 44.8618 54.3978 44.8116 53.7681 44.8116C53.4806 44.8116 53.1955 44.8221 52.9133 44.8426C52.8284 44.4698 52.7415 44.0885 52.6526 43.6985C49.2365 28.7057 48.8919 27.3839 49.3141 26.3867C49.382 26.2262 49.4698 26.0741 49.5679 25.8747C49.8926 25.2253 50.4725 24.6455 56.004 19.4386C61.4705 14.2972 62.2689 13.5477 62.563 12.6357C62.6152 12.4739 62.6515 12.3071 62.6952 12.1097C62.9387 10.9732 62.7415 9.04819 62.3009 8.17845C62.0226 7.64501 61.4079 7.13477 60.7354 6.87964C59.9932 6.58973 57.987 6.47377 57.1868 6.65931C55.9344 6.96082 55.9228 6.97242 49.9506 13.3273C45.7643 17.7687 44.106 19.4618 43.7001 19.6822C43.3986 19.8445 42.8188 20.0417 42.4013 20.1112C41.7055 20.2388 41.5084 20.2272 39.966 19.9025C39.3342 19.7761 35.9161 19.0527 31.4078 18.0985C29.2966 17.6517 26.9463 17.1543 24.5311 16.6439C16.9702 15.0436 10.6733 13.7332 10.5458 13.7332C10.4066 13.7332 10.1631 13.8955 10.0007 14.0927C9.57165 14.6029 9.57165 15.3683 10.0123 15.7973C10.1979 15.9713 15.022 18.5921 20.7623 21.6188C28.8334 25.8863 31.3035 27.2431 31.6977 27.6258C33.0197 28.9014 33.2517 31.0931 32.2312 32.6007C31.8717 33.1225 19.2547 46.76 18.7793 47.131C18.211 47.5717 17.8399 47.4673 13.8739 45.7395C11.3807 44.6494 10.0123 44.116 9.74559 44.116C9.22375 44.116 8.53956 44.7422 8.53956 45.206C8.53956 45.8206 8.84107 46.1106 11.3691 47.966C12.4207 48.7332 13.7607 49.7246 14.7794 50.4783C15.1311 50.7386 15.4446 50.9705 15.6946 51.155L17.4573 52.4654L20.3796 56.4778C21.9799 58.6695 23.4063 60.5482 23.5338 60.6409C23.9397 60.9309 24.5195 60.8613 24.8906 60.4902C25.5632 59.8176 25.54 59.7364 23.731 55.5849C22.8264 53.5207 22.0611 51.6421 22.0263 51.4217C21.9915 51.1202 22.0379 50.9231 22.2466 50.6448C22.3858 50.436 25.6908 47.3166 29.5756 43.7101C34.6896 38.9787 36.8118 37.0769 37.2409 36.8682C38.8064 36.1028 40.8358 36.5203 41.949 37.8423C42.1432 38.0671 44.3286 42.004 47.0201 46.9766C46.2863 47.5027 45.6164 48.1123 45.0244 48.7915C42.2653 43.683 40.0471 39.6385 39.9313 39.5122C39.5718 39.1063 39.0151 38.9671 38.5513 39.1643C38.3309 39.257 35.2347 42.0402 31.5238 45.4959L24.8906 51.6653L25.053 52.0364C25.1341 52.2451 25.7951 53.7642 26.5257 55.4225L27.8477 58.4376V59.5393C27.8477 60.4438 27.8013 60.7337 27.581 61.1744C27.1983 61.9514 26.6185 62.5776 25.9227 62.9602C25.4009 63.2386 25.1225 63.3081 24.2992 63.3429C23.4063 63.3893 23.2207 63.3545 22.6061 63.0762C22.2234 62.9139 21.7248 62.5776 21.4928 62.3456C21.2725 62.1137 19.9389 60.3394 18.5357 58.4144C17.1326 56.4778 15.8569 54.7499 15.7062 54.5644C15.5554 54.3788 13.6188 52.8829 11.3807 51.2478C9.15417 49.6011 7.18277 48.1399 7.02042 47.9776C6.40581 47.4094 6.06951 46.586 6.01153 45.5539C5.94195 44.1971 6.17388 43.5593 7.0784 42.6548C7.82058 41.9126 8.38881 41.6459 9.47888 41.4952C10.279 41.3908 11.0792 41.6459 14.5233 43.165L17.6776 44.545L23.8005 37.935C27.1751 34.3053 30.0047 31.2323 30.0974 31.1047C30.3294 30.7684 30.2946 30.0378 30.0278 29.6783C29.8771 29.4696 26.5373 27.6374 19.3243 23.8221C13.5608 20.7722 8.63233 18.0934 8.35402 17.8615C7.71621 17.3281 7.17117 16.238 7.0784 15.2871C6.91605 13.7448 7.82058 12.0865 9.17737 11.4603C9.30578 11.4005 9.39405 11.3424 9.4875 11.2944C10.2464 10.9047 11.3472 11.1807 37.0669 16.6323C39.4558 17.1425 41.6127 17.56 41.8563 17.56C41.9222 17.56 41.9758 17.5644 42.0289 17.5615C42.4247 17.54 42.7984 17.1148 48.0836 11.4719C50.7044 8.6655 53.1628 6.06789 53.5339 5.7084Z" fill="#0B2D1F"/>
<path d="M56.3867 4.17766L56.5478 4.85886L56.5495 4.85847L56.3867 4.17766ZM53.5339 5.7084L53.0469 5.20563V5.20563L53.5339 5.7084ZM60.8861 4.22405L61.0595 3.54587L61.0593 3.54581L60.8861 4.22405ZM63.6693 15.7973L64.1718 16.2846L64.1736 16.2828L63.6693 15.7973ZM57.5347 21.6188L57.0558 21.1083L57.0548 21.1092L57.5347 21.6188ZM51.8756 27.1387L52.4867 27.4802L52.491 27.4725L52.4951 27.4647L51.8756 27.1387ZM51.6553 27.533L51.0442 27.1915L50.9131 27.4262L50.9727 27.6883L51.6553 27.533ZM55.2038 43.1303L55.8865 42.9753L55.8864 42.975L55.2038 43.1303ZM55.6181 44.9584L55.5073 45.6496L56.5293 45.8134L56.3009 44.804L55.6181 44.9584ZM52.9133 44.8426L52.2307 44.9981L52.3643 45.5845L52.9642 45.5408L52.9133 44.8426ZM52.6526 43.6985L51.9701 43.854L51.9701 43.8541L52.6526 43.6985ZM49.3141 26.3867L49.9587 26.6596L49.9587 26.6596L49.3141 26.3867ZM49.5679 25.8747L48.9418 25.5616L48.9398 25.5657L49.5679 25.8747ZM56.004 19.4386L55.5244 18.9287L55.5242 18.9289L56.004 19.4386ZM62.563 12.6357L63.2292 12.8505V12.8505L62.563 12.6357ZM62.6952 12.1097L63.3786 12.2609L63.3796 12.2563L62.6952 12.1097ZM62.3009 8.17845L62.9253 7.86205L62.9215 7.85465L62.3009 8.17845ZM60.7354 6.87964L60.4806 7.5317L60.4871 7.53414L60.7354 6.87964ZM57.1868 6.65931L57.0287 5.97738L57.023 5.97875L57.1868 6.65931ZM49.9506 13.3273L50.46 13.8074L50.4607 13.8067L49.9506 13.3273ZM43.7001 19.6822L44.032 20.2985L44.0341 20.2974L43.7001 19.6822ZM42.4013 20.1112L42.2862 19.4207L42.2751 19.4227L42.4013 20.1112ZM39.966 19.9025L40.1103 19.2175L40.1033 19.2161L39.966 19.9025ZM31.4078 18.0985L31.5527 17.4137L31.4078 18.0985ZM24.5311 16.6439L24.3862 17.3287L24.3864 17.3288L24.5311 16.6439ZM10.0007 14.0927L10.5365 14.5432L10.5411 14.5377L10.0007 14.0927ZM10.0123 15.7973L9.5239 16.299L9.53355 16.308L10.0123 15.7973ZM20.7623 21.6188L21.0895 21L21.0887 20.9996L20.7623 21.6188ZM31.6977 27.6258L31.2102 28.1281L31.2117 28.1295L31.6977 27.6258ZM32.2312 32.6007L32.8077 32.9978L32.8109 32.993L32.2312 32.6007ZM18.7793 47.131L19.2082 47.6842L19.2099 47.6829L18.7793 47.131ZM13.8739 45.7395L13.5935 46.3808L13.5944 46.3812L13.8739 45.7395ZM11.3691 47.966L10.9549 48.5303L10.9566 48.5315L11.3691 47.966ZM14.7794 50.4783L14.363 51.041L14.7794 50.4783ZM15.6946 51.155L16.1122 50.5933L16.1103 50.5918L15.6946 51.155ZM17.4573 52.4654L18.0231 52.0533L17.9604 51.9672L17.8749 51.9037L17.4573 52.4654ZM20.3796 56.4778L19.8137 56.8899L19.8142 56.8906L20.3796 56.4778ZM23.5338 60.6409L23.1221 61.2071L23.127 61.2106L23.5338 60.6409ZM24.8906 60.4902L25.3856 60.9852L24.8906 60.4902ZM23.731 55.5849L24.3727 55.3052L24.3721 55.3039L23.731 55.5849ZM22.0263 51.4217L21.3309 51.502L21.3326 51.5165L21.3348 51.5309L22.0263 51.4217ZM22.2466 50.6448L22.8066 51.0648L22.8183 51.0492L22.829 51.0331L22.2466 50.6448ZM29.5756 43.7101L29.1002 43.1963L29.0993 43.1971L29.5756 43.7101ZM37.2409 36.8682L37.5471 37.4976L37.5483 37.497L37.2409 36.8682ZM41.949 37.8423L41.4136 38.2932L41.4193 38.2998L41.949 37.8423ZM47.0201 46.9766L47.4279 47.5455L47.9294 47.186L47.6357 46.6434L47.0201 46.9766ZM45.0244 48.7915L44.4085 49.1242L44.8885 50.0129L45.5521 49.2515L45.0244 48.7915ZM39.9313 39.5122L39.4072 39.9763L39.4152 39.9852L39.9313 39.5122ZM38.5513 39.1643L38.8229 39.8094L38.8251 39.8085L38.5513 39.1643ZM31.5238 45.4959L32.0005 46.0085L32.0008 46.0082L31.5238 45.4959ZM24.8906 51.6653L24.4139 51.1527L24.0503 51.4909L24.2493 51.9458L24.8906 51.6653ZM25.053 52.0364L25.7054 51.7826L25.7001 51.7691L25.6943 51.7558L25.053 52.0364ZM26.5257 55.4225L27.1668 55.1414L27.1663 55.1403L26.5257 55.4225ZM27.8477 58.4376H28.5477V58.2909L28.4888 58.1565L27.8477 58.4376ZM27.581 61.1744L26.9549 60.8613L26.953 60.8651L27.581 61.1744ZM25.9227 62.9602L26.2521 63.5779L26.26 63.5736L25.9227 62.9602ZM24.2992 63.3429L24.2696 62.6435L24.2629 62.6439L24.2992 63.3429ZM22.6061 63.0762L22.8949 62.4385L22.8872 62.4351L22.8795 62.4318L22.6061 63.0762ZM21.4928 62.3456L20.9853 62.8278L20.9915 62.8343L20.9979 62.8406L21.4928 62.3456ZM18.5357 58.4144L17.9689 58.8251L17.9701 58.8268L18.5357 58.4144ZM15.7062 54.5644L16.2495 54.123L16.2495 54.123L15.7062 54.5644ZM11.3807 51.2478L10.9645 51.8106L10.9678 51.813L11.3807 51.2478ZM7.02042 47.9776L7.51539 47.4826L7.50569 47.4729L7.49562 47.4636L7.02042 47.9776ZM6.01153 45.5539L5.31244 45.5898L5.31263 45.5932L6.01153 45.5539ZM7.0784 42.6548L6.58343 42.1598H6.58343L7.0784 42.6548ZM9.47888 41.4952L9.38834 40.801L9.38298 40.8018L9.47888 41.4952ZM14.5233 43.165L14.2409 43.8055L14.2428 43.8064L14.5233 43.165ZM17.6776 44.545L17.397 45.1863L17.8529 45.3858L18.1911 45.0207L17.6776 44.545ZM23.8005 37.935L23.2879 37.4584L23.287 37.4593L23.8005 37.935ZM30.0974 31.1047L30.6635 31.5164L30.6687 31.5093L30.6737 31.5021L30.0974 31.1047ZM30.0278 29.6783L29.4603 30.0882L29.4657 30.0954L30.0278 29.6783ZM19.3243 23.8221L18.9969 24.4408L18.997 24.4409L19.3243 23.8221ZM8.35402 17.8615L7.90493 18.3985L7.90589 18.3993L8.35402 17.8615ZM7.0784 15.2871L7.77512 15.2191L7.77456 15.2138L7.0784 15.2871ZM9.17737 11.4603L9.47071 12.0958L9.4727 12.0949L9.17737 11.4603ZM9.4875 11.2944L9.80727 11.9171L9.80727 11.9171L9.4875 11.2944ZM37.0669 16.6323L37.2131 15.9477L37.2121 15.9475L37.0669 16.6323ZM42.0289 17.5615L41.9909 16.8625H41.9909L42.0289 17.5615ZM48.0836 11.4719L48.5945 11.9504L48.5952 11.9496L48.0836 11.4719ZM56.2255 3.49646C55.0318 3.77884 53.885 4.39368 53.0469 5.20563L54.021 6.21117C54.6672 5.58515 55.5846 5.08673 56.5478 4.85886L56.2255 3.49646ZM61.0593 3.54581C60.433 3.38591 59.5089 3.30974 58.6348 3.30085C57.7618 3.29197 56.8414 3.34919 56.2239 3.49686L56.5495 4.85847C56.9988 4.75101 57.7831 4.69226 58.6206 4.70078C59.4569 4.70929 60.2491 4.78387 60.7129 4.90229L61.0593 3.54581ZM66.0623 10.7645C66.0623 8.84794 65.6872 7.25183 64.8412 6.01602C63.9863 4.76726 62.7062 3.96695 61.0595 3.54587L60.7127 4.90223C62.1043 5.25811 63.0623 5.89577 63.686 6.80685C64.3185 7.73088 64.6623 9.0165 64.6623 10.7645H66.0623ZM64.1736 16.2828C65.5312 14.8724 66.0623 13.202 66.0623 10.7645H64.6623C64.6623 12.9655 64.1962 14.2406 63.165 15.3119L64.1736 16.2828ZM58.0137 22.1293C61.0085 19.3195 63.7858 16.6827 64.1718 16.2846L63.1667 15.31C62.8105 15.6774 60.0679 18.2822 57.0558 21.1083L58.0137 22.1293ZM52.4951 27.4647C52.4634 27.5249 52.4339 27.5547 52.4634 27.5193C52.4789 27.5006 52.5052 27.4706 52.545 27.4272C52.6239 27.3413 52.7384 27.2218 52.8874 27.0701C53.1844 26.7677 53.6035 26.3529 54.1153 25.8542C55.1379 24.8575 56.5207 23.5355 58.0147 22.1283L57.0548 21.1092C55.5569 22.52 54.1681 23.8478 53.1381 24.8515C52.6236 25.353 52.1962 25.776 51.8887 26.089C51.7355 26.245 51.6083 26.3775 51.5137 26.4805C51.4668 26.5316 51.4235 26.5802 51.3875 26.6234C51.3654 26.65 51.3024 26.7249 51.2562 26.8127L52.4951 27.4647ZM52.2664 27.8745L52.4867 27.4802L51.2646 26.7972L51.0442 27.1915L52.2664 27.8745ZM55.8864 42.975L52.3379 27.3777L50.9727 27.6883L54.5213 43.2855L55.8864 42.975ZM56.3009 44.804C56.1649 44.2026 56.0266 43.5924 55.8865 42.9753L54.5212 43.2852C54.6612 43.902 54.7994 44.5119 54.9354 45.1129L56.3009 44.804ZM53.7681 45.5116C54.3605 45.5116 54.9414 45.5588 55.5073 45.6496L55.729 44.2672C55.09 44.1648 54.435 44.1116 53.7681 44.1116V45.5116ZM52.9642 45.5408C53.2295 45.5215 53.4976 45.5116 53.7681 45.5116V44.1116C53.4636 44.1116 53.1616 44.1227 52.8624 44.1445L52.9642 45.5408ZM51.9701 43.8541C52.059 44.244 52.1459 44.6253 52.2307 44.9981L53.5958 44.6872C53.5109 44.3144 53.424 43.933 53.3351 43.5429L51.9701 43.8541ZM48.6694 26.1138C48.3598 26.8452 48.4065 27.6493 48.8573 29.93C49.3202 32.2722 50.264 36.3663 51.9701 43.854L53.3351 43.543C51.6251 36.0379 50.6885 31.9747 50.2307 29.6585C49.7607 27.2808 49.8461 26.9254 49.9587 26.6596L48.6694 26.1138ZM48.9398 25.5657C48.8706 25.7064 48.7456 25.9338 48.6694 26.1138L49.9587 26.6596C50.0184 26.5186 50.0691 26.4417 50.196 26.1837L48.9398 25.5657ZM55.5242 18.9289C52.762 21.529 51.2247 22.9844 50.3384 23.8707C49.4585 24.7506 49.1593 25.1267 48.9418 25.5616L50.194 26.1877C50.3013 25.9733 50.4543 25.7348 51.3284 24.8607C52.196 23.993 53.7144 22.5551 56.4838 19.9483L55.5242 18.9289ZM61.8968 12.4208C61.8031 12.7114 61.6322 13.0281 60.7217 13.9627C59.8157 14.8927 58.2648 16.3513 55.5244 18.9287L56.4836 19.9485C59.2097 17.3845 60.7912 15.8977 61.7245 14.9396C62.6534 13.9861 63.0288 13.472 63.2292 12.8505L61.8968 12.4208ZM62.0117 11.9584C61.966 12.1652 61.9368 12.2969 61.8968 12.4208L63.2292 12.8505C63.2936 12.651 63.337 12.449 63.3786 12.2609L62.0117 11.9584ZM61.6765 8.49483C61.8392 8.81611 61.9874 9.41443 62.0581 10.1144C62.1279 10.8049 62.1118 11.4912 62.0107 11.963L63.3796 12.2563C63.522 11.5917 63.5292 10.7472 63.451 9.9737C63.3739 9.20959 63.2032 8.41053 62.9253 7.86207L61.6765 8.49483ZM60.4871 7.53414C61.032 7.74082 61.4962 8.14938 61.6803 8.50225L62.9215 7.85465C62.549 7.14065 61.7839 6.52871 60.9836 6.22515L60.4871 7.53414ZM57.3449 7.34122C57.6417 7.27241 58.259 7.24864 58.9405 7.2899C59.6267 7.33145 60.2191 7.42948 60.4807 7.53166L60.99 6.22762C60.5095 6.03989 59.7276 5.93499 59.0251 5.89246C58.318 5.84965 57.5321 5.86067 57.0287 5.9774L57.3449 7.34122ZM50.4607 13.8067C53.4591 10.6162 54.9309 9.05095 55.813 8.23803C56.2499 7.83544 56.5032 7.6547 56.6944 7.55379C56.8775 7.45715 57.0324 7.41649 57.3507 7.33987L57.023 5.97875C56.7151 6.05288 56.3988 6.12674 56.0409 6.31566C55.691 6.50032 55.3334 6.77619 54.8643 7.20855C53.9344 8.06552 52.4143 9.68355 49.4405 12.8479L50.4607 13.8067ZM44.0341 20.2974C44.2275 20.1924 44.4716 19.9799 44.7366 19.7329C45.0258 19.4633 45.4104 19.0836 45.907 18.5783C46.9013 17.5665 48.3669 16.028 50.46 13.8074L49.4412 12.8472C47.348 15.068 45.8913 16.5968 44.9084 17.597C44.4164 18.0977 44.0487 18.4602 43.782 18.7088C43.6484 18.8333 43.5456 18.9242 43.4685 18.9876C43.3838 19.0575 43.3556 19.0727 43.3661 19.067L44.0341 20.2974ZM42.5164 20.8017C43.0023 20.7207 43.6564 20.5007 44.032 20.2985L43.3682 19.0658C43.1408 19.1883 42.6353 19.3626 42.2862 19.4208L42.5164 20.8017ZM39.8218 20.5875C40.5813 20.7474 41.0617 20.8421 41.4427 20.874C41.8618 20.9091 42.1552 20.868 42.5275 20.7998L42.2751 19.4227C41.9517 19.482 41.7985 19.4989 41.5595 19.4789C41.2824 19.4557 40.8931 19.3823 40.1102 19.2175L39.8218 20.5875ZM31.2629 18.7834C35.7671 19.7367 39.1918 20.4615 39.8288 20.5889L40.1033 19.2161C39.4766 19.0907 36.0651 18.3687 31.5527 17.4137L31.2629 18.7834ZM24.3864 17.3288C26.8014 17.8391 29.1516 18.3365 31.2629 18.7834L31.5527 17.4137C29.4415 16.9669 27.0911 16.4694 24.6758 15.959L24.3864 17.3288ZM10.5458 14.4332C10.4816 14.4332 10.4284 14.4223 10.4656 14.4283C10.4741 14.4296 10.49 14.4323 10.5156 14.437C10.5659 14.4461 10.6402 14.4603 10.7388 14.4796C10.9353 14.518 11.2192 14.575 11.5819 14.6489C12.3068 14.7964 13.341 15.01 14.6083 15.2737C17.1426 15.8012 20.6063 16.5287 24.3862 17.3287L24.6761 15.9591C20.8951 15.1588 17.4298 14.4309 14.8936 13.9031C13.6256 13.6392 12.589 13.4251 11.8611 13.277C11.4974 13.203 11.2094 13.1451 11.0076 13.1056C10.907 13.086 10.8255 13.0704 10.7659 13.0596C10.7365 13.0542 10.709 13.0494 10.6857 13.0457C10.6743 13.0439 10.6599 13.0417 10.6448 13.0397C10.6416 13.0393 10.5975 13.0332 10.5458 13.0332V14.4332ZM10.5411 14.5377C10.5576 14.5176 10.5786 14.4956 10.6024 14.4742C10.6263 14.4528 10.6493 14.4353 10.6682 14.4227C10.6885 14.4093 10.696 14.407 10.6887 14.4099C10.6846 14.4116 10.6717 14.4166 10.6509 14.4215C10.631 14.4263 10.5946 14.4332 10.5458 14.4332V13.0332C10.2613 13.0332 10.0201 13.1729 9.89563 13.2552C9.74043 13.3579 9.58672 13.4942 9.46037 13.6477L10.5411 14.5377ZM10.5006 15.2958C10.3629 15.1617 10.3056 14.8177 10.5365 14.5432L9.46496 13.6421C8.83766 14.3881 8.78035 15.5748 9.52398 16.2989L10.5006 15.2958ZM21.0887 20.9996C18.2205 19.4872 15.5818 18.0767 13.6379 17.0229C12.6656 16.4958 11.8688 16.059 11.3045 15.7436C11.022 15.5857 10.8006 15.4599 10.6458 15.3693C10.5679 15.3236 10.5109 15.2893 10.473 15.2654C10.4091 15.2253 10.4433 15.2419 10.4911 15.2867L9.53355 16.308C9.60447 16.3745 9.69816 16.432 9.7281 16.4508C9.78402 16.486 9.85531 16.5287 9.93829 16.5773C10.1052 16.6751 10.3361 16.8062 10.6216 16.9657C11.1934 17.2853 11.9962 17.7255 12.9707 18.2537C14.9202 19.3105 17.5637 20.7236 20.4358 22.238L21.0887 20.9996ZM32.1853 27.1235C32.0183 26.9614 31.7167 26.7647 31.3177 26.5255C30.893 26.2708 30.2858 25.9269 29.4458 25.4655C27.7646 24.542 25.1245 23.1334 21.0895 21L20.4351 22.2376C24.4711 24.3716 27.1017 25.7752 28.7718 26.6926C29.6076 27.1517 30.1962 27.4854 30.5978 27.7262C30.7987 27.8467 30.9469 27.9403 31.0529 28.0122C31.1057 28.048 31.1447 28.0761 31.1726 28.0975C31.2018 28.1199 31.2118 28.1296 31.2102 28.1281L32.1853 27.1235ZM32.8109 32.993C34.0237 31.2014 33.7486 28.6319 32.1838 27.122L31.2117 28.1295C32.2909 29.1708 32.4797 30.9848 31.6515 32.2083L32.8109 32.993ZM19.2099 47.6829C19.2847 47.6245 19.4005 47.5082 19.5034 47.4037C19.6257 47.2795 19.7887 47.1108 19.9851 46.9051C20.3786 46.4933 20.9136 45.9263 21.5418 45.2563C22.7985 43.9159 24.4326 42.159 26.0625 40.3978C27.6924 38.6367 29.3191 36.8704 30.5612 35.5112C31.1821 34.8318 31.7079 34.2531 32.0903 33.8273C32.2813 33.6146 32.438 33.4383 32.5535 33.306C32.6535 33.1914 32.7568 33.0715 32.8076 32.9978L31.6547 32.2035C31.6606 32.195 31.6232 32.2428 31.4987 32.3855C31.3896 32.5104 31.238 32.6811 31.0486 32.8919C30.6703 33.3132 30.1477 33.8884 29.5278 34.5668C28.2883 35.923 26.6637 37.6871 25.035 39.4469C23.4062 41.2068 21.7744 42.9614 20.5205 44.2987C19.8934 44.9676 19.3619 45.5309 18.9729 45.938C18.7782 46.1418 18.621 46.3045 18.5061 46.4212C18.3718 46.5575 18.3332 46.5912 18.3486 46.5792L19.2099 47.6829ZM13.5944 46.3812C15.5553 47.2356 16.6932 47.7187 17.4098 47.9219C17.7737 48.0251 18.1091 48.0812 18.4296 48.0355C18.7781 47.9858 19.0219 47.8287 19.2082 47.6842L18.3503 46.5779C18.2525 46.6537 18.2368 46.6488 18.232 46.6495C18.1992 46.6542 18.0874 46.6588 17.7917 46.575C17.1892 46.4042 16.1585 45.9713 14.1535 45.0977L13.5944 46.3812ZM9.74559 44.816C9.68937 44.816 9.6709 44.8062 9.72977 44.8207C9.77424 44.8316 9.84119 44.851 9.93473 44.8816C10.121 44.9426 10.3808 45.0378 10.7191 45.1706C11.3939 45.4354 12.3499 45.8371 13.5935 46.3808L14.1544 45.0981C12.9047 44.5517 11.9299 44.1417 11.2305 43.8673C10.8817 43.7304 10.5936 43.6242 10.3704 43.5511C10.2592 43.5147 10.156 43.4838 10.0648 43.4614C9.98808 43.4424 9.8685 43.416 9.74559 43.416V44.816ZM9.23956 45.206C9.23956 45.2549 9.22494 45.2516 9.25926 45.1927C9.29007 45.1399 9.34345 45.0725 9.41744 45.0053C9.49089 44.9386 9.56965 44.8858 9.63969 44.8522C9.71352 44.8168 9.74939 44.816 9.74559 44.816V43.416C9.24014 43.416 8.77736 43.6955 8.47633 43.9688C8.31405 44.1161 8.16376 44.2922 8.04997 44.4873C7.9397 44.6763 7.83956 44.9252 7.83956 45.206H9.23956ZM11.7833 47.4017C10.5031 46.4621 9.84297 45.9585 9.49475 45.6193C9.32718 45.456 9.27564 45.3714 9.25841 45.3352C9.24908 45.3155 9.23956 45.2936 9.23956 45.206H7.83956C7.83956 45.4257 7.86773 45.6705 7.99393 45.9361C8.11224 46.185 8.29408 46.4041 8.51789 46.6221C8.95243 47.0454 9.70708 47.6145 10.9549 48.5303L11.7833 47.4017ZM15.1957 49.9156C14.1776 49.1623 12.8356 48.1693 11.7816 47.4005L10.9566 48.5315C12.0059 49.297 13.3438 50.2869 14.363 51.041L15.1957 49.9156ZM16.1103 50.5918C15.8607 50.4076 15.5476 50.1759 15.1957 49.9156L14.363 51.041C14.7146 51.3012 15.0285 51.5334 15.2789 51.7182L16.1103 50.5918ZM17.8749 51.9037L16.1122 50.5933L15.277 51.7168L17.0396 53.0272L17.8749 51.9037ZM20.9454 56.0657L18.0231 52.0533L16.8914 52.8775L19.8137 56.8899L20.9454 56.0657ZM23.9455 60.0748C24.0018 60.1158 24.0326 60.1535 24.01 60.129C24.0021 60.1203 23.9869 60.1031 23.9627 60.0744C23.9152 60.018 23.8479 59.9349 23.7613 59.8254C23.5889 59.6073 23.3519 59.2996 23.0668 58.9236C22.4972 58.1724 21.7431 57.1582 20.9449 56.065L19.8142 56.8906C20.6163 57.9891 21.3756 59.0102 21.9512 59.7694C22.2387 60.1486 22.4822 60.4649 22.6631 60.6937C22.7532 60.8076 22.8307 60.9036 22.8918 60.9762C22.9221 61.0121 22.9521 61.0468 22.9799 61.077C22.993 61.0912 23.0499 61.1545 23.1221 61.2071L23.9455 60.0748ZM24.3956 59.9952C24.2395 60.1514 24.0381 60.1409 23.9407 60.0713L23.127 61.2106C23.8413 61.7208 24.7996 61.5712 25.3856 60.9852L24.3956 59.9952ZM23.0892 55.8645C24.0111 57.98 24.431 58.9588 24.5603 59.5037C24.6192 59.7519 24.5861 59.7938 24.5941 59.7729C24.5954 59.7693 24.5924 59.7809 24.5631 59.8173C24.5294 59.8591 24.4813 59.9095 24.3956 59.9952L25.3856 60.9852C25.5375 60.8332 25.7752 60.6024 25.901 60.2747C26.0373 59.9197 26.0115 59.5557 25.9225 59.1806C25.7561 58.4789 25.2599 57.3413 24.3727 55.3052L23.0892 55.8645ZM21.3348 51.5309C21.3501 51.6279 21.3871 51.7382 21.4097 51.8047C21.4394 51.892 21.4789 52 21.5256 52.1231C21.6194 52.3704 21.7491 52.6965 21.9045 53.0768C22.2158 53.8382 22.6356 54.8293 23.0898 55.8658L24.3721 55.3039C23.9218 54.2763 23.5066 53.296 23.2004 52.547C23.0471 52.172 22.9224 51.8582 22.8346 51.6267C22.7906 51.5105 22.7574 51.4194 22.7351 51.3537C22.7057 51.2672 22.7111 51.2707 22.7177 51.3126L21.3348 51.5309ZM21.6866 50.2248C21.5502 50.4067 21.4342 50.605 21.37 50.8397C21.3051 51.0766 21.3073 51.2979 21.3309 51.502L22.7217 51.3415C22.7104 51.2441 22.7184 51.2161 22.7203 51.2094C22.7227 51.2006 22.7343 51.1612 22.8066 51.0648L21.6866 50.2248ZM29.0993 43.1971C27.1559 45.0012 25.3568 46.6843 24.0256 47.9429C23.3602 48.572 22.8102 49.0966 22.417 49.4777C22.2207 49.668 22.0611 49.8248 21.9449 49.9421C21.8871 50.0005 21.8369 50.0522 21.7971 50.0949C21.7722 50.1216 21.71 50.1877 21.6642 50.2565L22.829 51.0331C22.8006 51.0758 22.7805 51.0931 22.8213 51.0494C22.847 51.0217 22.8859 50.9815 22.9394 50.9275C23.0458 50.8201 23.1975 50.6709 23.3914 50.483C23.7784 50.1078 24.3235 49.5879 24.9874 48.9602C26.3146 47.7054 28.1104 46.0254 30.0518 44.2231L29.0993 43.1971ZM36.9346 36.2387C36.8174 36.2957 36.6925 36.3828 36.58 36.4666C36.457 36.5581 36.3085 36.6767 36.1342 36.8213C35.7852 37.1111 35.3124 37.5229 34.6987 38.0711C33.4703 39.1686 31.6572 40.8306 29.1002 43.1963L30.051 44.2239C32.608 41.8582 34.413 40.2036 35.6315 39.1152C36.2412 38.5704 36.6991 38.1719 37.0284 37.8985C37.1934 37.7616 37.3209 37.6603 37.4161 37.5895C37.5218 37.5108 37.557 37.4928 37.5471 37.4976L36.9346 36.2387ZM42.4845 37.3914C41.161 35.8197 38.7828 35.3352 36.9334 36.2393L37.5483 37.497C38.83 36.8704 40.5106 37.2208 41.4136 38.2932L42.4845 37.3914ZM47.6357 46.6434C46.2892 44.1557 45.0687 41.926 44.1601 40.2893C43.706 39.4713 43.3287 38.7995 43.0521 38.317C42.9141 38.0761 42.7994 37.8795 42.712 37.7344C42.6426 37.6191 42.5518 37.4693 42.4788 37.3847L41.4193 38.2998C41.3948 38.2715 41.4148 38.2939 41.5126 38.4564C41.5924 38.589 41.7014 38.7757 41.8375 39.0132C42.1094 39.4876 42.4831 40.1529 42.9361 40.9688C43.8416 42.5999 45.0595 44.825 46.4044 47.3098L47.6357 46.6434ZM45.5521 49.2515C46.1086 48.613 46.7383 48.04 47.4279 47.5455L46.6122 46.4077C45.8343 46.9654 45.1242 47.6116 44.4967 48.3316L45.5521 49.2515ZM39.4152 39.9852C39.3777 39.9442 39.3562 39.9094 39.3658 39.9237C39.3669 39.9253 39.3716 39.9326 39.3812 39.9481C39.3999 39.9785 39.4276 40.025 39.465 40.0895C39.5394 40.2174 39.6442 40.402 39.7774 40.6394C40.0432 41.1133 40.4163 41.7882 40.8729 42.6203C41.7859 44.284 43.0294 46.5708 44.4085 49.1242L45.6403 48.4589C44.2603 45.9038 43.0152 43.6141 42.1003 41.9468C41.6429 41.1134 41.2674 40.4341 40.9985 39.9546C40.8642 39.7152 40.7552 39.5232 40.6753 39.3858C40.6357 39.3176 40.6011 39.2593 40.5733 39.214C40.5596 39.1918 40.5449 39.1685 40.5306 39.147C40.5248 39.1384 40.492 39.088 40.4473 39.0392L39.4152 39.9852ZM38.8251 39.8085C38.9866 39.7398 39.2284 39.7744 39.4072 39.9763L40.4553 39.048C39.9151 38.4382 39.0437 38.1944 38.2775 38.52L38.8251 39.8085ZM32.0008 46.0082C33.8542 44.2823 35.553 42.7253 36.8149 41.5892C37.4462 41.0208 37.9659 40.5597 38.34 40.2362C38.5276 40.074 38.6748 39.9496 38.7794 39.8647C38.8323 39.8218 38.8692 39.7931 38.8923 39.776C38.9402 39.7407 38.899 39.7774 38.8229 39.8094L38.2796 38.5191C38.176 38.5627 38.0848 38.632 38.0613 38.6494C38.0131 38.6849 37.9572 38.7289 37.8971 38.7778C37.7757 38.8763 37.6159 39.0116 37.4242 39.1773C37.0398 39.5097 36.5122 39.9778 35.8781 40.5488C34.6091 41.6913 32.9043 43.2538 31.0467 44.9837L32.0008 46.0082ZM25.3673 52.1778L32.0005 46.0085L31.0471 44.9834L24.4139 51.1527L25.3673 52.1778ZM25.6943 51.7558L25.5319 51.3847L24.2493 51.9458L24.4116 52.3169L25.6943 51.7558ZM27.1663 55.1403C26.4308 53.4707 25.7792 51.9726 25.7054 51.7826L24.4006 52.2901C24.489 52.5176 25.1595 54.0577 25.8851 55.7048L27.1663 55.1403ZM28.4888 58.1565L27.1668 55.1414L25.8846 55.7036L27.2066 58.7187L28.4888 58.1565ZM28.5477 59.5393V58.4376H27.1477V59.5393H28.5477ZM28.2071 61.4874C28.3412 61.2192 28.435 60.9687 28.4879 60.6432C28.537 60.3415 28.5477 59.9928 28.5477 59.5393H27.1477C27.1477 59.9902 27.1353 60.2388 27.1061 60.4184C27.0807 60.5741 27.0411 60.6889 26.9549 60.8613L28.2071 61.4874ZM26.26 63.5736C27.094 63.1149 27.7694 62.3761 28.209 61.4837L26.953 60.8651C26.6272 61.5266 26.143 62.0402 25.5854 62.3469L26.26 63.5736ZM24.3287 64.0423C24.7486 64.0246 25.0798 63.9967 25.386 63.9239C25.7052 63.848 25.9646 63.7312 26.2521 63.5779L25.5933 62.3426C25.359 62.4676 25.2183 62.5247 25.0621 62.5619C24.8928 62.6022 24.6731 62.6265 24.2696 62.6436L24.3287 64.0423ZM22.3173 63.7139C22.6328 63.8567 22.9046 63.9691 23.2373 64.0225C23.5545 64.0734 23.8929 64.065 24.3355 64.042L24.2629 62.6439C23.8125 62.6673 23.6117 62.6647 23.4592 62.6402C23.3223 62.6182 23.194 62.574 22.8949 62.4385L22.3173 63.7139ZM20.9979 62.8406C21.2991 63.1418 21.875 63.5264 22.3327 63.7206L22.8795 62.4318C22.5718 62.3013 22.1505 62.0133 21.9878 61.8507L20.9979 62.8406ZM17.9701 58.8268C18.6733 59.7915 19.3596 60.7192 19.8984 61.4357C20.4189 62.1277 20.8396 62.6743 20.9853 62.8278L22.0003 61.8635C22.001 61.8642 21.9989 61.862 21.9935 61.8559C21.9884 61.8501 21.9815 61.8422 21.9727 61.8318C21.955 61.8109 21.9322 61.7833 21.9041 61.7486C21.8479 61.6792 21.7754 61.5874 21.6879 61.4748C21.5132 61.2498 21.2844 60.9494 21.0173 60.5942C20.4834 59.8843 19.8013 58.9624 19.1014 58.0021L17.9701 58.8268ZM15.1629 55.0058C15.298 55.172 16.5582 56.8781 17.9689 58.8251L19.1026 58.0037C17.7069 56.0775 16.4159 54.3278 16.2495 54.123L15.1629 55.0058ZM10.9678 51.813C12.0828 52.6277 13.1219 53.407 13.8997 54.0047C14.2889 54.3038 14.6102 54.5556 14.8418 54.7425C14.958 54.8363 15.0482 54.9111 15.1118 54.9659C15.1948 55.0375 15.1906 55.0399 15.1629 55.0058L16.2495 54.123C16.184 54.0424 16.0863 53.9576 16.0259 53.9055C15.946 53.8366 15.8426 53.7512 15.7211 53.6531C15.4773 53.4563 15.1463 53.1971 14.7528 52.8947C13.965 52.2892 12.9167 51.503 11.7936 50.6826L10.9678 51.813ZM6.52545 48.4726C6.60794 48.5551 6.81238 48.7135 7.03167 48.8814C7.27737 49.0694 7.61116 49.3207 8.00748 49.6168C8.80056 50.2094 9.85143 50.9874 10.9645 51.8106L11.7969 50.685C10.6834 49.8615 9.63535 49.0855 8.84551 48.4953C8.45036 48.2001 8.12171 47.9526 7.88253 47.7696C7.61695 47.5663 7.51408 47.4813 7.51539 47.4826L6.52545 48.4726ZM5.31263 45.5932C5.37795 46.7559 5.7642 47.7695 6.54522 48.4916L7.49562 47.4636C7.04741 47.0492 6.76107 46.4161 6.71042 45.5147L5.31263 45.5932ZM6.58343 42.1598C6.09604 42.6472 5.73424 43.1171 5.52258 43.6935C5.31277 44.2648 5.27569 44.873 5.31244 45.5898L6.71061 45.5181C6.67779 44.8781 6.72188 44.4889 6.83677 44.1761C6.94982 43.8682 7.15624 43.5669 7.57338 43.1498L6.58343 42.1598ZM9.38298 40.8018C8.80092 40.8822 8.30712 41.0002 7.84503 41.2222C7.3798 41.4458 6.98888 41.7544 6.58343 42.1598L7.57338 43.1498C7.91011 42.813 8.17439 42.6172 8.45133 42.4841C8.73141 42.3496 9.06676 42.2588 9.57477 42.1886L9.38298 40.8018ZM14.8058 42.5246C13.0892 41.7674 11.997 41.3095 11.2286 41.0564C10.4396 40.7965 9.92832 40.7306 9.38834 40.801L9.56941 42.1893C9.82959 42.1553 10.1185 42.1648 10.7906 42.3862C11.4834 42.6143 12.5133 43.0435 14.2409 43.8055L14.8058 42.5246ZM17.9582 43.9037L14.8039 42.5237L14.2428 43.8064L17.397 45.1863L17.9582 43.9037ZM23.287 37.4593L17.1641 44.0693L18.1911 45.0207L24.3141 38.4107L23.287 37.4593ZM29.5313 30.693C29.5473 30.6711 29.5285 30.6951 29.4179 30.8181C29.3269 30.9194 29.197 31.0625 29.0319 31.2435C28.702 31.605 28.235 32.1136 27.6649 32.7322C26.5249 33.9692 24.9746 35.6442 23.2879 37.4584L24.3132 38.4117C26.0011 36.5962 27.5528 34.9197 28.6944 33.6809C29.2651 33.0616 29.7339 32.5512 30.066 32.1872C30.2319 32.0054 30.3647 31.8591 30.4593 31.7538C30.5344 31.6702 30.6244 31.5702 30.6635 31.5164L29.5313 30.693ZM29.4657 30.0954C29.4719 30.1038 29.4928 30.1378 29.5132 30.206C29.5328 30.2716 29.5464 30.3508 29.5505 30.434C29.5545 30.5177 29.5482 30.592 29.5365 30.6483C29.524 30.7088 29.5108 30.7223 29.5212 30.7073L30.6737 31.5021C30.9133 31.1547 30.9654 30.7097 30.9488 30.3664C30.9318 30.0143 30.8341 29.5902 30.59 29.2612L29.4657 30.0954ZM18.997 24.4409C22.6028 26.3482 25.2374 27.7581 26.9883 28.7167C27.8644 29.1963 28.5148 29.5605 28.9535 29.8164C29.1737 29.9449 29.3339 30.0422 29.4403 30.111C29.4942 30.1458 29.5264 30.1684 29.5427 30.1806C29.5845 30.2119 29.5219 30.1734 29.4604 30.0882L30.5953 29.2685C30.5149 29.1571 30.4086 29.0799 30.3814 29.0596C30.3287 29.0202 30.2667 28.9782 30.2007 28.9355C30.0674 28.8493 29.8856 28.7394 29.6588 28.6071C29.2035 28.3415 28.5399 27.97 27.6606 27.4887C25.9006 26.5251 23.2588 25.1113 19.6516 23.2033L18.997 24.4409ZM7.90589 18.3993C7.99578 18.4742 8.16513 18.5751 8.31442 18.6627C8.49303 18.7676 8.73561 18.9059 9.03278 19.0724C9.62792 19.406 10.4532 19.8596 11.448 20.4001C13.4381 21.4816 16.1135 22.915 18.9969 24.4408L19.6517 23.2034C16.7717 21.6794 14.101 20.2484 12.1164 19.17C11.1239 18.6307 10.3047 18.1804 9.71732 17.8512C9.42326 17.6864 9.1901 17.5534 9.02341 17.4555C8.82738 17.3404 8.78183 17.3068 8.80215 17.3238L7.90589 18.3993ZM6.38171 15.3551C6.43772 15.9292 6.62624 16.5217 6.88493 17.0423C7.1418 17.5593 7.49128 18.0525 7.90493 18.3985L8.8031 17.3246C8.57895 17.1371 8.33701 16.8185 8.13871 16.4194C7.94224 16.0239 7.81185 15.5959 7.77509 15.2191L6.38171 15.3551ZM8.88403 10.8247C7.23875 11.584 6.19043 13.5381 6.38225 15.3604L7.77456 15.2138C7.64167 13.9514 8.40241 12.5889 9.47071 12.0958L8.88403 10.8247ZM9.16772 10.6717C9.10541 10.7037 9.03899 10.7422 9.00257 10.7627C8.95928 10.787 8.92279 10.8066 8.88204 10.8256L9.4727 12.0949C9.56036 12.0541 9.63221 12.0148 9.68851 11.9832C9.7517 11.9476 9.77613 11.9331 9.80727 11.9171L9.16772 10.6717ZM37.2121 15.9475C24.3572 13.2228 17.6434 11.789 14.0514 11.0859C12.2626 10.7358 11.2166 10.5603 10.5642 10.5004C9.89239 10.4386 9.52704 10.4872 9.16772 10.6717L9.80727 11.9171C9.82741 11.9068 9.88424 11.8437 10.436 11.8945C11.0072 11.947 11.9861 12.1082 13.7824 12.4598C17.3604 13.1602 24.0569 14.5902 36.9218 17.3171L37.2121 15.9475ZM41.8563 16.86C41.8839 16.86 41.8729 16.8617 41.7775 16.8481C41.6999 16.837 41.5937 16.82 41.4598 16.7969C41.1929 16.751 40.8311 16.6839 40.3992 16.6003C39.5361 16.4331 38.4041 16.2021 37.2131 15.9477L36.9207 17.3168C38.1186 17.5727 39.2595 17.8056 40.133 17.9747C40.5694 18.0592 40.9418 18.1284 41.2224 18.1767C41.3623 18.2007 41.4832 18.2203 41.5796 18.234C41.658 18.2452 41.7678 18.26 41.8563 18.26V16.86ZM41.9909 16.8625C41.9942 16.8624 41.9912 16.8627 41.9656 16.8621C41.9462 16.8616 41.9013 16.86 41.8563 16.86V18.26C41.8772 18.26 41.892 18.2606 41.9292 18.2616C41.9602 18.2624 42.0106 18.2635 42.067 18.2605L41.9909 16.8625ZM47.5727 10.9933C44.9246 13.8207 43.5196 15.3272 42.7244 16.1331C42.3216 16.5413 42.1046 16.7392 41.9764 16.8362C41.873 16.9144 41.9065 16.8671 41.9909 16.8625L42.067 18.2605C42.3492 18.2451 42.5778 18.1366 42.821 17.9527C43.0393 17.7876 43.3202 17.5225 43.721 17.1164C44.5329 16.2935 45.9574 14.766 48.5945 11.9504L47.5727 10.9933ZM53.0469 5.20563C52.6596 5.58085 50.1845 8.19665 47.572 10.9941L48.5952 11.9496C51.2243 9.13436 53.6661 6.55493 54.021 6.21117L53.0469 5.20563Z" fill="#0B2D1F" mask="url(#path-3-outside-2_6356_46462)"/>
</g>
</g>
<path id="Vector 798" d="M61 48.5L47 64" stroke="#0B2D1F" stroke-width="3"/>
</g>
</g>
</svg>
