<svg width="72" height="72" viewBox="0 0 72 72" fill="none" xmlns="http://www.w3.org/2000/svg">
<path d="M9.0264 4.24182C7.83857 4.5544 6.8633 5.11706 5.98805 5.9798C5.11281 6.86755 4.56266 7.83031 4.25007 9.06816C4.0125 9.98091 4 10.456 4 17.8956C4 25.5227 4.0125 25.7728 4.25007 26.2479C4.41261 26.573 4.67519 26.8356 5.00028 26.9981C5.46291 27.2357 5.72548 27.2482 9.62656 27.2482H13.7527V46.8787C13.7527 66.3216 13.7527 66.5216 14.0028 67.0092C14.2779 67.5594 15.0031 68.0095 15.6032 68.0095C15.8033 68.0095 17.0161 67.6219 18.304 67.1343L20.6296 66.259L22.9553 67.1343C24.2431 67.6219 25.4435 68.0095 25.631 68.0095C25.8186 68.0095 27.0189 67.6219 28.3068 67.1343L30.6324 66.259L32.958 67.1343C34.2459 67.6219 35.4462 68.0095 35.6338 68.0095C35.8213 68.0095 37.0217 67.6219 38.3095 67.1343L40.6352 66.259L42.9608 67.1343C44.2487 67.6219 45.449 68.0095 45.6366 68.0095C45.8241 68.0095 47.0245 67.6219 48.3123 67.1343L50.638 66.259L52.9636 67.1343C54.2515 67.6219 55.4643 68.0095 55.6644 68.0095C56.2645 68.0095 56.9897 67.5594 57.2648 67.0092C57.5024 66.5466 57.5149 66.284 57.5149 62.0704V57.6316L58.5777 57.144C60.3281 56.3313 61.7035 55.3435 63.2164 53.8306C65.267 51.78 66.5924 49.6044 67.3426 47.0287C69.5932 39.2765 65.9172 31.1743 58.5777 27.7358L57.5149 27.2357V18.6333C57.5149 10.4685 57.5024 9.98091 57.2648 9.06816C56.9522 7.83031 56.4146 6.89256 55.5143 5.99231C54.6141 5.09206 53.6763 4.5544 52.4385 4.24182C51.4882 3.99175 51.0256 3.99175 30.7074 4.00425C10.6268 4.00425 9.91414 4.01675 9.0264 4.24182ZM11.6771 7.89283C12.3648 8.09289 13.4026 9.13068 13.6027 9.81837C13.7152 10.1935 13.7527 12.119 13.7527 16.9203V23.4972H10.7519H7.75104V16.9203C7.75104 12.119 7.78855 10.1935 7.90108 9.81837C8.08864 9.18069 9.13893 8.10539 9.7516 7.90533C10.3518 7.71778 11.0645 7.71779 11.6771 7.89283ZM51.6882 7.89283C52.3759 8.09289 53.4137 9.13068 53.6138 9.81837C53.7263 10.206 53.7638 12.4191 53.7638 18.3457V26.348L52.5385 26.2854C47.2245 25.9854 41.9981 28.5236 38.7346 32.9623L37.9844 34.0001H30.3573C22.9803 34.0001 22.7302 34.0126 22.2551 34.2501C21.6924 34.5377 21.2548 35.2504 21.2548 35.8756C21.2548 36.5008 21.6924 37.2135 22.2551 37.5011C22.7302 37.7386 22.9803 37.7511 29.5196 37.7511H36.2965L36.2215 38.0887C36.1714 38.2888 36.0589 38.8264 35.9589 39.3141C35.8463 39.7892 35.7588 40.3518 35.7588 40.5644C35.7588 40.7645 35.7213 41.0645 35.6838 41.2146L35.6088 41.5022H29.1695C22.9803 41.5022 22.7302 41.5147 22.2551 41.7522C21.6924 42.0398 21.2548 42.7525 21.2548 43.3777C21.2548 44.0029 21.6924 44.7156 22.2551 45.0031C22.7302 45.2407 22.9803 45.2532 29.2945 45.2532H35.8588L36.1214 46.316C36.359 47.2413 36.5715 47.8914 36.9467 48.7792C37.0342 48.9917 36.6466 49.0042 29.8947 49.0042C22.9803 49.0042 22.7302 49.0167 22.2551 49.2543C21.6924 49.5419 21.2548 50.2546 21.2548 50.8798C21.2548 51.5049 21.6924 52.2176 22.2551 52.5052C22.7302 52.7428 22.9803 52.7553 30.6949 52.7553C35.8463 52.7553 38.7346 52.7053 38.8847 52.6303C39.0847 52.5177 39.2098 52.5927 39.6599 53.0929C41.673 55.2935 44.0486 56.8939 46.5868 57.7442C48.5124 58.3818 49.6252 58.5569 51.7883 58.5694H53.7638V60.9701C53.7638 62.2954 53.7388 63.3832 53.7138 63.3832C53.6888 63.3832 53.0761 63.1582 52.3384 62.8831C51.6132 62.608 50.8505 62.383 50.6505 62.383C50.4629 62.383 49.2501 62.7706 47.9747 63.2582L45.6491 64.1334L43.3234 63.2582C42.0481 62.7706 40.8477 62.383 40.6477 62.383C40.4601 62.383 39.2473 62.7706 37.9719 63.2582L35.6463 64.1334L33.3206 63.2582C32.0453 62.7706 30.845 62.383 30.6449 62.383C30.4573 62.383 29.2445 62.7706 27.9692 63.2582L25.6435 64.1334L23.3179 63.2582C22.0425 62.7706 20.8422 62.383 20.6421 62.383C20.4546 62.383 19.6919 62.608 18.9542 62.8831C18.229 63.1582 17.6038 63.3832 17.5663 63.3832C17.5288 63.3832 17.4912 51.2174 17.4787 36.3382L17.4412 9.30573L17.1662 8.61803C17.0036 8.24293 16.8786 7.89283 16.8786 7.83031C16.8786 7.7803 24.5932 7.74279 34.0208 7.74279C47.1245 7.74279 51.2881 7.7803 51.6882 7.89283ZM54.7891 30.3616C57.0772 30.9492 58.9153 32.012 60.5907 33.675C61.8536 34.9503 62.8038 36.3757 63.3915 37.9137C64.0542 39.6141 64.1917 40.3894 64.1917 42.4399C64.1917 44.4905 64.0542 45.2657 63.3915 46.9662C62.2037 50.0545 59.4404 52.8178 56.352 54.0056C54.6891 54.6558 53.8639 54.8059 51.8883 54.8059C49.9002 54.8184 48.9625 54.6558 47.2745 54.0056C44.2112 52.8178 41.4479 50.0545 40.2601 46.9662C39.5974 45.2657 39.4599 44.4905 39.4599 42.4399C39.4599 40.3894 39.5974 39.6141 40.2601 37.9137C41.4479 34.8253 44.2112 32.062 47.2745 30.8742C48.0872 30.5616 49.0375 30.3116 50.2629 30.074C51.0006 29.9365 53.8513 30.1115 54.7891 30.3616Z" fill="#0D313B"/>
<path d="M11.6771 7.89283C12.3648 8.09289 13.4026 9.13068 13.6027 9.81837C13.7152 10.1935 13.7527 12.119 13.7527 16.9203V23.4972H10.7519H7.75104V16.9203C7.75104 12.119 7.78855 10.1935 7.90108 9.81837C8.08864 9.18069 9.13893 8.10539 9.7516 7.90533C10.3518 7.71778 11.0645 7.71779 11.6771 7.89283Z" fill="#2894B4"/>
<path d="M54.7891 30.3616C57.0772 30.9492 58.9153 32.012 60.5907 33.675C61.8536 34.9503 62.8038 36.3757 63.3915 37.9137C64.0542 39.6141 64.1917 40.3894 64.1917 42.4399C64.1917 44.4905 64.0542 45.2657 63.3915 46.9662C62.2037 50.0545 59.4404 52.8178 56.352 54.0056C54.6891 54.6558 53.8639 54.8059 51.8883 54.8059C49.9002 54.8184 48.9625 54.6558 47.2745 54.0056C44.2112 52.8178 41.4479 50.0545 40.2601 46.9662C39.5974 45.2657 39.4599 44.4905 39.4599 42.4399C39.4599 40.3894 39.5974 39.6141 40.2601 37.9137C41.4479 34.8253 44.2112 32.062 47.2745 30.8742C48.0872 30.5616 49.0375 30.3116 50.2629 30.074C51.0006 29.9365 53.8513 30.1115 54.7891 30.3616Z" fill="#68D4F4"/>
<path d="M22.6114 18.8129C21.9761 19.0974 21.459 19.8604 21.459 20.4812C21.459 21.1279 21.9761 21.865 22.6409 22.1625C23.2024 22.4082 23.4978 22.4211 32.6136 22.4211C41.7294 22.4211 42.0248 22.4082 42.5863 22.1625C43.2511 21.865 43.7682 21.1279 43.7682 20.4812C43.7682 19.8346 43.2511 19.0974 42.5863 18.7999C42.0248 18.5542 41.7441 18.5413 32.584 18.5413C23.4978 18.5542 23.1433 18.5671 22.6114 18.8129Z" fill="#0D313B"/>
<path d="M22.4611 26.5731C21.9086 26.8576 21.459 27.6207 21.459 28.2415C21.459 28.8881 21.9086 29.6253 22.4868 29.9227C22.975 30.1685 23.2319 30.1814 31.1586 30.1814C39.0854 30.1814 39.3423 30.1685 39.8305 29.9227C40.4087 29.6253 40.8583 28.8881 40.8583 28.2415C40.8583 27.5948 40.4087 26.8576 39.8305 26.5602C39.3423 26.3145 39.0982 26.3015 31.133 26.3015C23.2319 26.3145 22.9236 26.3274 22.4611 26.5731Z" fill="#0D313B"/>
<path d="M59 36.8889H45V39.5556H59V36.8889Z" fill="#0D313B"/>
<path fill-rule="evenodd" clip-rule="evenodd" d="M45.4222 37.0667C45.2259 37.0667 45.0667 37.2259 45.0667 37.4222V39.0222C45.0667 39.2186 45.2259 39.3778 45.4222 39.3778H58.5778C58.7741 39.3778 58.9333 39.2186 58.9333 39.0222V37.4222C58.9333 37.2259 58.7741 37.0667 58.5778 37.0667H45.4222ZM44 37.4222C44 36.6368 44.6367 36 45.4222 36H58.5778C59.3632 36 60 36.6368 60 37.4222V39.0222C60 39.8077 59.3632 40.4444 58.5778 40.4444H45.4222C44.6367 40.4444 44 39.8077 44 39.0222V37.4222Z" fill="#0D313B"/>
<path d="M53.8778 42.2222H50.1222C50.0547 42.2222 50 42.2769 50 42.3444V43.8777C50 43.9452 50.0547 43.9999 50.1222 43.9999H53.8778C53.9453 43.9999 54 43.9452 54 43.8777V42.3444C54 42.2769 53.9453 42.2222 53.8778 42.2222Z" fill="#0D313B"/>
<path fill-rule="evenodd" clip-rule="evenodd" d="M46.0676 40.622V48.2665H57.9343V40.622H46.0676ZM44.9199 40.622C44.9199 39.6401 45.0858 39.2987 46.0676 39.2987L51.8336 39.2986H57.9343C59.0927 39.2987 59.0926 39.2986 59.0926 40.6813L59.0928 44.4838L59.0927 48.2665C59.0927 49.3233 59.0927 49.3233 57.9343 49.3233H52.1792H46.0675C44.9199 49.3233 44.9199 49.3431 44.9199 48.2862V44.4838V40.622Z" fill="#0D313B"/>
</svg>
