<svg width="72" height="72" viewBox="0 0 72 72" fill="none" xmlns="http://www.w3.org/2000/svg">
<path d="M9.0264 4.2417C7.83857 4.55428 6.8633 5.11694 5.98805 5.97968C5.11281 6.86743 4.56266 7.83019 4.25007 9.06804C4.0125 9.98079 4 10.4559 4 17.8955C4 25.5226 4.0125 25.7727 4.25007 26.2478C4.41261 26.5729 4.67519 26.8355 5.00028 26.998C5.46291 27.2356 5.72548 27.2481 9.62656 27.2481H13.7527V46.8785C13.7527 66.3214 13.7527 66.5215 14.0028 67.0091C14.2779 67.5593 15.0031 68.0094 15.6032 68.0094C15.8033 68.0094 17.0161 67.6218 18.304 67.1342L20.6296 66.2589L22.9553 67.1342C24.2431 67.6218 25.4435 68.0094 25.631 68.0094C25.8186 68.0094 27.0189 67.6218 28.3068 67.1342L30.6324 66.2589L32.958 67.1342C34.2459 67.6218 35.4462 68.0094 35.6338 68.0094C35.8213 68.0094 37.0217 67.6218 38.3095 67.1342L40.6352 66.2589L42.9608 67.1342C44.2487 67.6218 45.449 68.0094 45.6366 68.0094C45.8241 68.0094 47.0245 67.6218 48.3123 67.1342L50.638 66.2589L52.9636 67.1342C54.2515 67.6218 55.4643 68.0094 55.6644 68.0094C56.2645 68.0094 56.9897 67.5593 57.2648 67.0091C57.5024 66.5465 57.5149 66.2839 57.5149 62.0703V57.6315L58.5777 57.1439C60.3281 56.3312 61.7035 55.3434 63.2164 53.8305C65.267 51.7799 66.5924 49.6043 67.3426 47.0286C69.5932 39.2764 65.9172 31.1742 58.5777 27.7357L57.5149 27.2356V18.6332C57.5149 10.4684 57.5024 9.98079 57.2648 9.06804C56.9522 7.83019 56.4146 6.89243 55.5143 5.99218C54.6141 5.09193 53.6763 4.55428 52.4385 4.2417C51.4882 3.99163 51.0256 3.99162 30.7074 4.00413C10.6268 4.00413 9.91414 4.01663 9.0264 4.2417ZM11.6771 7.89271C12.3648 8.09277 13.4026 9.13055 13.6027 9.81824C13.7152 10.1933 13.7527 12.1189 13.7527 16.9202V23.497H10.7519H7.75104V16.9202C7.75104 12.1189 7.78855 10.1933 7.90108 9.81824C8.08864 9.18057 9.13893 8.10527 9.7516 7.90521C10.3518 7.71766 11.0645 7.71766 11.6771 7.89271ZM51.6882 7.89271C52.3759 8.09277 53.4137 9.13055 53.6138 9.81824C53.7263 10.2059 53.7638 12.419 53.7638 18.3456V26.3478L52.5385 26.2853C47.2245 25.9852 41.9981 28.5234 38.7346 32.9622L37.9844 34H30.3573C22.9803 34 22.7302 34.0125 22.2551 34.25C21.6924 34.5376 21.2548 35.2503 21.2548 35.8755C21.2548 36.5007 21.6924 37.2133 22.2551 37.5009C22.7302 37.7385 22.9803 37.751 29.5196 37.751H36.2965L36.2215 38.0886C36.1714 38.2886 36.0589 38.8263 35.9589 39.3139C35.8463 39.7891 35.7588 40.3517 35.7588 40.5643C35.7588 40.7643 35.7213 41.0644 35.6838 41.2145L35.6088 41.502H29.1695C22.9803 41.502 22.7302 41.5145 22.2551 41.7521C21.6924 42.0397 21.2548 42.7524 21.2548 43.3776C21.2548 44.0027 21.6924 44.7154 22.2551 45.003C22.7302 45.2406 22.9803 45.2531 29.2945 45.2531H35.8588L36.1214 46.3159C36.359 47.2411 36.5715 47.8913 36.9467 48.7791C37.0342 48.9916 36.6466 49.0041 29.8947 49.0041C22.9803 49.0041 22.7302 49.0166 22.2551 49.2542C21.6924 49.5418 21.2548 50.2545 21.2548 50.8796C21.2548 51.5048 21.6924 52.2175 22.2551 52.5051C22.7302 52.7427 22.9803 52.7552 30.6949 52.7552C35.8463 52.7552 38.7346 52.7052 38.8847 52.6301C39.0847 52.5176 39.2098 52.5926 39.6599 53.0928C41.673 55.2934 44.0486 56.8938 46.5868 57.744C48.5124 58.3817 49.6252 58.5568 51.7883 58.5693H53.7638V60.9699C53.7638 62.2953 53.7388 63.3831 53.7138 63.3831C53.6888 63.3831 53.0761 63.1581 52.3384 62.883C51.6132 62.6079 50.8505 62.3828 50.6505 62.3828C50.4629 62.3828 49.2501 62.7704 47.9747 63.2581L45.6491 64.1333L43.3234 63.2581C42.0481 62.7704 40.8477 62.3828 40.6477 62.3828C40.4601 62.3828 39.2473 62.7704 37.9719 63.2581L35.6463 64.1333L33.3206 63.2581C32.0453 62.7704 30.845 62.3828 30.6449 62.3828C30.4573 62.3828 29.2445 62.7704 27.9692 63.2581L25.6435 64.1333L23.3179 63.2581C22.0425 62.7704 20.8422 62.3828 20.6421 62.3828C20.4546 62.3828 19.6919 62.6079 18.9542 62.883C18.229 63.1581 17.6038 63.3831 17.5663 63.3831C17.5288 63.3831 17.4912 51.2172 17.4787 36.3381L17.4412 9.3056L17.1662 8.61791C17.0036 8.24281 16.8786 7.89271 16.8786 7.83019C16.8786 7.78018 24.5932 7.74267 34.0208 7.74267C47.1245 7.74267 51.2881 7.78018 51.6882 7.89271ZM54.7891 30.3614C57.0772 30.9491 58.9153 32.0119 60.5907 33.6749C61.8536 34.9502 62.8038 36.3756 63.3915 37.9135C64.0542 39.614 64.1917 40.3892 64.1917 42.4398C64.1917 44.4904 64.0542 45.2656 63.3915 46.9661C62.2037 50.0544 59.4404 52.8177 56.352 54.0055C54.6891 54.6557 53.8639 54.8057 51.8883 54.8057C49.9002 54.8182 48.9625 54.6557 47.2745 54.0055C44.2112 52.8177 41.4479 50.0544 40.2601 46.9661C39.5974 45.2656 39.4599 44.4904 39.4599 42.4398C39.4599 40.3892 39.5974 39.614 40.2601 37.9135C41.4479 34.8252 44.2112 32.0619 47.2745 30.8741C48.0872 30.5615 49.0375 30.3114 50.2629 30.0739C51.0006 29.9363 53.8513 30.1114 54.7891 30.3614Z" fill="#0B2D1F"/>
<path d="M11.6771 7.89271C12.3648 8.09277 13.4026 9.13055 13.6027 9.81824C13.7152 10.1933 13.7527 12.1189 13.7527 16.9202V23.497H10.7519H7.75104V16.9202C7.75104 12.1189 7.78855 10.1933 7.90108 9.81824C8.08864 9.18057 9.13893 8.10527 9.7516 7.90521C10.3518 7.71766 11.0645 7.71766 11.6771 7.89271Z" fill="#62C89E"/>
<path d="M54.7891 30.3614C57.0772 30.9491 58.9153 32.0119 60.5907 33.6749C61.8536 34.9502 62.8038 36.3756 63.3915 37.9135C64.0542 39.614 64.1917 40.3892 64.1917 42.4398C64.1917 44.4904 64.0542 45.2656 63.3915 46.9661C62.2037 50.0544 59.4404 52.8177 56.352 54.0055C54.6891 54.6557 53.8639 54.8057 51.8883 54.8057C49.9002 54.8182 48.9625 54.6557 47.2745 54.0055C44.2112 52.8177 41.4479 50.0544 40.2601 46.9661C39.5974 45.2656 39.4599 44.4904 39.4599 42.4398C39.4599 40.3892 39.5974 39.614 40.2601 37.9135C41.4479 34.8252 44.2112 32.0619 47.2745 30.8741C48.0872 30.5615 49.0375 30.3114 50.2629 30.0739C51.0006 29.9363 53.8513 30.1114 54.7891 30.3614Z" fill="#22885E"/>
<path d="M22.6114 18.8127C21.9761 19.0973 21.459 19.8603 21.459 20.4811C21.459 21.1277 21.9761 21.8649 22.6409 22.1624C23.2024 22.4081 23.4978 22.421 32.6136 22.421C41.7294 22.421 42.0248 22.4081 42.5863 22.1624C43.2511 21.8649 43.7682 21.1277 43.7682 20.4811C43.7682 19.8344 43.2511 19.0973 42.5863 18.7998C42.0248 18.5541 41.7441 18.5412 32.584 18.5412C23.4978 18.5541 23.1433 18.567 22.6114 18.8127Z" fill="#0B2D1F"/>
<path d="M22.4611 26.573C21.9086 26.8575 21.459 27.6206 21.459 28.2413C21.459 28.888 21.9086 29.6252 22.4868 29.9226C22.975 30.1683 23.2319 30.1813 31.1586 30.1813C39.0854 30.1813 39.3423 30.1683 39.8305 29.9226C40.4087 29.6252 40.8583 28.888 40.8583 28.2413C40.8583 27.5947 40.4087 26.8575 39.8305 26.5601C39.3423 26.3143 39.0982 26.3014 31.133 26.3014C23.2319 26.3143 22.9236 26.3273 22.4611 26.573Z" fill="#0B2D1F"/>
<path d="M59 36.8888H45V39.5555H59V36.8888Z" fill="#0B2D1F"/>
<path fill-rule="evenodd" clip-rule="evenodd" d="M45.4222 37.0667C45.2259 37.0667 45.0667 37.2259 45.0667 37.4222V39.0222C45.0667 39.2186 45.2259 39.3778 45.4222 39.3778H58.5778C58.7741 39.3778 58.9333 39.2186 58.9333 39.0222V37.4222C58.9333 37.2259 58.7741 37.0667 58.5778 37.0667H45.4222ZM44 37.4222C44 36.6368 44.6367 36 45.4222 36H58.5778C59.3632 36 60 36.6368 60 37.4222V39.0222C60 39.8077 59.3632 40.4444 58.5778 40.4444H45.4222C44.6367 40.4444 44 39.8077 44 39.0222V37.4222Z" fill="#0B2D1F"/>
<path d="M53.8778 42.2222H50.1222C50.0547 42.2222 50 42.2769 50 42.3444V43.8777C50 43.9452 50.0547 43.9999 50.1222 43.9999H53.8778C53.9453 43.9999 54 43.9452 54 43.8777V42.3444C54 42.2769 53.9453 42.2222 53.8778 42.2222Z" fill="#0B2D1F"/>
<path fill-rule="evenodd" clip-rule="evenodd" d="M46.0676 40.6221V48.2666H57.9343V40.6221H46.0676ZM44.9199 40.6221C44.9199 39.6403 45.0858 39.2988 46.0676 39.2988L51.8336 39.2987H57.9343C59.0927 39.2988 59.0926 39.2987 59.0926 40.6814L59.0928 44.4839L59.0927 48.2666C59.0927 49.3235 59.0927 49.3235 57.9343 49.3235H52.1792H46.0675C44.9199 49.3235 44.9199 49.3432 44.9199 48.2864V44.4839V40.6221Z" fill="#0B2D1F"/>
</svg>
