<svg version="1.1" id="Layer_1" xmlns="http://www.w3.org/2000/svg" xmlns:xlink="http://www.w3.org/1999/xlink" x="0px" y="0px"
	 width="100%" viewBox="0 0 257 282" enable-background="new 0 0 257 282" xml:space="preserve">
<path fill="#FEFEFE" opacity="1.000000" stroke="none" 
	d="
M258.000000,105.000000 
	C258.000000,164.639221 258.000000,223.778442 258.000000,282.958832 
	C172.400543,282.958832 86.801056,282.958832 1.100783,282.958832 
	C1.100783,189.110886 1.100783,95.221642 1.100783,1.166193 
	C86.666405,1.166193 172.333176,1.166193 258.000000,1.166193 
	C258.000000,35.532104 258.000000,70.016052 258.000000,105.000000 
M46.775745,23.109587 
	C36.708275,29.508772 31.586775,38.605862 31.591249,50.601875 
	C31.613192,109.433800 31.573799,168.265762 31.617895,227.097672 
	C31.632147,246.110840 44.364960,258.700775 63.335907,258.699127 
	C101.834991,258.695770 140.334076,258.694885 178.833160,258.696777 
	C198.377640,258.697723 211.061050,246.594940 211.136887,227.182083 
	C211.303528,184.517075 211.212677,141.850937 211.168427,99.185341 
	C211.159561,90.637260 208.054932,83.403740 201.884293,77.308258 
	C185.529083,61.152225 169.266022,44.901028 153.120422,28.535639 
	C146.766907,22.095654 139.229828,19.065117 130.318787,19.064909 
	C107.985985,19.064386 85.648842,18.828905 63.323551,19.238537 
	C58.020973,19.335831 52.758076,21.595701 46.775745,23.109587 
z"/>
<path fill="#1D3456" opacity="1.000000" stroke="none" 
	d="
M47.126335,22.985212 
	C52.758076,21.595701 58.020973,19.335831 63.323551,19.238537 
	C85.648842,18.828905 107.985985,19.064386 130.318787,19.064909 
	C139.229828,19.065117 146.766907,22.095654 153.120422,28.535639 
	C169.266022,44.901028 185.529083,61.152225 201.884293,77.308258 
	C208.054932,83.403740 211.159561,90.637260 211.168427,99.185341 
	C211.212677,141.850937 211.303528,184.517075 211.136887,227.182083 
	C211.061050,246.594940 198.377640,258.697723 178.833160,258.696777 
	C140.334076,258.694885 101.834991,258.695770 63.335907,258.699127 
	C44.364960,258.700775 31.632147,246.110840 31.617895,227.097672 
	C31.573799,168.265762 31.613192,109.433800 31.591249,50.601875 
	C31.586775,38.605862 36.708275,29.508772 47.126335,22.985212 
M46.013840,226.326004 
	C46.381924,238.610474 50.996601,244.048965 62.530037,244.110229 
	C101.854790,244.319168 141.181427,244.214264 180.507095,244.121857 
	C183.092819,244.115784 185.858521,243.641754 188.227676,242.643188 
	C196.073425,239.336365 196.754684,232.232712 196.764526,225.055939 
	C196.815445,187.895340 196.791641,150.734650 196.775665,113.573997 
	C196.775055,112.133644 196.588318,110.693375 196.464142,108.905045 
	C194.226547,108.905045 192.412125,108.904976 190.597702,108.905060 
	C175.600128,108.905716 160.602432,108.943863 145.605011,108.896317 
	C131.180923,108.850594 121.832397,99.490845 121.811981,85.133507 
	C121.790657,70.135963 121.813087,55.138367 121.808670,40.140793 
	C121.806694,33.438972 121.798157,33.419399 115.296021,33.414631 
	C99.131973,33.402767 82.967804,33.380726 66.803963,33.440105 
	C64.151848,33.449848 61.477962,33.700741 58.854229,34.102215 
	C51.280411,35.261124 46.707874,40.266476 46.170498,47.900826 
	C46.006943,50.224434 46.019127,52.563244 46.018822,54.895100 
	C46.011322,111.719246 46.013027,168.543396 46.013840,226.326004 
M143.717438,39.743416 
	C141.507294,38.046978 139.297150,36.350544 136.077545,33.879272 
	C136.077545,51.572609 136.033096,67.554092 136.095810,83.535164 
	C136.128464,91.856972 138.527222,94.221146 146.878891,94.251007 
	C161.544739,94.303436 176.210938,94.277931 190.876892,94.247002 
	C192.279297,94.244041 193.681122,93.972389 196.797577,93.645851 
	C179.306320,74.502869 161.347992,57.774006 143.717438,39.743416 
z"/>
<path fill="#FCFCFB" opacity="1.000000" stroke="none" 
	d="
M46.013458,225.846771 
	C46.013027,168.543396 46.011322,111.719246 46.018822,54.895100 
	C46.019127,52.563244 46.006943,50.224434 46.170498,47.900826 
	C46.707874,40.266476 51.280411,35.261124 58.854229,34.102215 
	C61.477962,33.700741 64.151848,33.449848 66.803963,33.440105 
	C82.967804,33.380726 99.131973,33.402767 115.296021,33.414631 
	C121.798157,33.419399 121.806694,33.438972 121.808670,40.140793 
	C121.813087,55.138367 121.790657,70.135963 121.811981,85.133507 
	C121.832397,99.490845 131.180923,108.850594 145.605011,108.896317 
	C160.602432,108.943863 175.600128,108.905716 190.597702,108.905060 
	C192.412125,108.904976 194.226547,108.905045 196.464142,108.905045 
	C196.588318,110.693375 196.775055,112.133644 196.775665,113.573997 
	C196.791641,150.734650 196.815445,187.895340 196.764526,225.055939 
	C196.754684,232.232712 196.073425,239.336365 188.227676,242.643188 
	C185.858521,243.641754 183.092819,244.115784 180.507095,244.121857 
	C141.181427,244.214264 101.854790,244.319168 62.530037,244.110229 
	C50.996601,244.048965 46.381924,238.610474 46.013458,225.846771 
M80.585106,131.773895 
	C66.012871,131.776627 61.546181,136.253632 61.542595,150.864716 
	C61.540672,158.692627 61.516586,166.520645 61.548931,174.348419 
	C61.597050,185.994568 67.016884,191.393158 78.763580,191.418930 
	C95.918282,191.456558 113.073120,191.429733 130.227905,191.429657 
	C141.553391,191.429611 152.879150,191.476318 164.204300,191.414261 
	C175.765137,191.350906 181.011169,186.062210 181.013214,174.630814 
	C181.014786,165.803589 181.014328,156.976379 181.014359,148.149155 
	C181.014389,136.879807 175.896042,131.783264 164.505539,131.778214 
	C136.858017,131.765930 109.210503,131.774002 80.585106,131.773895 
M104.188583,81.352913 
	C102.024200,80.662086 99.873016,79.427963 97.693146,79.375023 
	C88.542809,79.152802 79.383644,79.244370 70.228203,79.300606 
	C64.689980,79.334625 61.749630,81.747055 61.597672,86.173370 
	C61.437325,90.844139 64.569801,93.719444 70.111656,93.759598 
	C79.100494,93.824738 88.103943,93.470711 97.075073,93.874596 
	C104.192719,94.195045 108.149963,88.431824 104.188583,81.352913 
M89.463531,49.048733 
	C82.331139,49.167358 75.194061,49.167591 68.068123,49.449444 
	C63.858883,49.615929 61.697029,52.459232 61.685047,56.349468 
	C61.672413,60.453205 63.903957,63.240200 68.322906,63.602257 
	C70.138672,63.751026 71.969467,63.755299 73.793503,63.757431 
	C81.928749,63.766926 90.067398,63.891716 98.198059,63.695141 
	C103.365425,63.570202 105.996178,60.997746 106.012741,56.575489 
	C106.030319,51.881538 103.337936,49.643337 98.896660,49.318764 
	C96.088272,49.113522 93.263603,49.131096 89.463531,49.048733 
M147.739334,228.910767 
	C156.394852,228.909149 165.052902,229.032242 173.704834,228.855026 
	C178.254608,228.761810 180.988785,225.845657 181.034271,221.722382 
	C181.082657,217.335388 178.821640,214.496872 174.569839,214.386917 
	C164.091690,214.115936 153.591507,214.041321 143.120270,214.429489 
	C137.704178,214.630249 134.434174,221.075714 137.829529,225.041855 
	C139.732666,227.264938 143.746567,227.681030 147.739334,228.910767 
z"/>
<path fill="#FCFDFC" opacity="1.000000" stroke="none" 
	d="
M143.957794,40.007366 
	C161.347992,57.774006 179.306320,74.502869 196.797577,93.645851 
	C193.681122,93.972389 192.279297,94.244041 190.876892,94.247002 
	C176.210938,94.277931 161.544739,94.303436 146.878891,94.251007 
	C138.527222,94.221146 136.128464,91.856972 136.095810,83.535164 
	C136.033096,67.554092 136.077545,51.572609 136.077545,33.879272 
	C139.297150,36.350544 141.507294,38.046978 143.957794,40.007366 
z"/>
<path fill="#1A3355" opacity="1.000000" stroke="none" 
	d="
M81.074051,131.773895 
	C109.210503,131.774002 136.858017,131.765930 164.505539,131.778214 
	C175.896042,131.783264 181.014389,136.879807 181.014359,148.149155 
	C181.014328,156.976379 181.014786,165.803589 181.013214,174.630814 
	C181.011169,186.062210 175.765137,191.350906 164.204300,191.414261 
	C152.879150,191.476318 141.553391,191.429611 130.227905,191.429657 
	C113.073120,191.429733 95.918282,191.456558 78.763580,191.418930 
	C67.016884,191.393158 61.597050,185.994568 61.548931,174.348419 
	C61.516586,166.520645 61.540672,158.692627 61.542595,150.864716 
	C61.546181,136.253632 66.012871,131.776627 81.074051,131.773895 
M75.867996,161.497620 
	C75.868843,165.163818 75.983688,168.834671 75.834038,172.494720 
	C75.716743,175.363831 76.556801,176.742996 79.736549,176.733994 
	C107.566093,176.655151 135.395981,176.672226 163.225677,176.716019 
	C165.725449,176.719971 166.843704,175.913589 166.805206,173.248444 
	C166.692093,165.417755 166.682861,157.583054 166.807861,149.752731 
	C166.853363,146.902863 165.727219,145.981262 162.974838,145.987061 
	C135.311844,146.045303 107.648605,146.050781 79.985649,145.982422 
	C77.030304,145.975128 75.690727,146.916489 75.835472,150.005402 
	C75.999100,153.497192 75.869858,157.002716 75.867996,161.497620 
z"/>
<path fill="#253B59" opacity="1.000000" stroke="none" 
	d="
M104.467201,81.639359 
	C108.149963,88.431824 104.192719,94.195045 97.075073,93.874596 
	C88.103943,93.470711 79.100494,93.824738 70.111656,93.759598 
	C64.569801,93.719444 61.437325,90.844139 61.597672,86.173370 
	C61.749630,81.747055 64.689980,79.334625 70.228203,79.300606 
	C79.383644,79.244370 88.542809,79.152802 97.693146,79.375023 
	C99.873016,79.427963 102.024200,80.662086 104.467201,81.639359 
z"/>
<path fill="#223858" opacity="1.000000" stroke="none" 
	d="
M89.954880,49.048733 
	C93.263603,49.131096 96.088272,49.113522 98.896660,49.318764 
	C103.337936,49.643337 106.030319,51.881538 106.012741,56.575489 
	C105.996178,60.997746 103.365425,63.570202 98.198059,63.695141 
	C90.067398,63.891716 81.928749,63.766926 73.793503,63.757431 
	C71.969467,63.755299 70.138672,63.751026 68.322906,63.602257 
	C63.903957,63.240200 61.672413,60.453205 61.685047,56.349468 
	C61.697029,52.459232 63.858883,49.615929 68.068123,49.449444 
	C75.194061,49.167591 82.331139,49.167358 89.954880,49.048733 
z"/>
<path fill="#223858" opacity="1.000000" stroke="none" 
	d="
M147.274384,228.911026 
	C143.746567,227.681030 139.732666,227.264938 137.829529,225.041855 
	C134.434174,221.075714 137.704178,214.630249 143.120270,214.429489 
	C153.591507,214.041321 164.091690,214.115936 174.569839,214.386917 
	C178.821640,214.496872 181.082657,217.335388 181.034271,221.722382 
	C180.988785,225.845657 178.254608,228.761810 173.704834,228.855026 
	C165.052902,229.032242 156.394852,228.909149 147.274384,228.911026 
z"/>
<path fill="#FBFBFA" opacity="1.000000" stroke="none" 
	d="
M75.867981,160.999939 
	C75.869858,157.002716 75.999100,153.497192 75.835472,150.005402 
	C75.690727,146.916489 77.030304,145.975128 79.985649,145.982422 
	C107.648605,146.050781 135.311844,146.045303 162.974838,145.987061 
	C165.727219,145.981262 166.853363,146.902863 166.807861,149.752731 
	C166.682861,157.583054 166.692093,165.417755 166.805206,173.248444 
	C166.843704,175.913589 165.725449,176.719971 163.225677,176.716019 
	C135.395981,176.672226 107.566093,176.655151 79.736549,176.733994 
	C76.556801,176.742996 75.716743,175.363831 75.834038,172.494720 
	C75.983688,168.834671 75.868843,165.163818 75.867981,160.999939 
z"/>
</svg>