<svg width="11" height="36" viewBox="0 0 11 36" fill="none" xmlns="http://www.w3.org/2000/svg">
<path d="M6.25 1.5L6.25 0.75L4.75 0.75L4.75 1.5L6.25 1.5ZM6.25 35.5L6.25 34.4375L4.75 34.4375L4.75 35.5L6.25 35.5ZM6.25 32.3125L6.25 30.1875L4.75 30.1875L4.75 32.3125L6.25 32.3125ZM6.25 28.0625L6.25 25.9375L4.75 25.9375L4.75 28.0625L6.25 28.0625ZM6.25 23.8125L6.25 21.6875L4.75 21.6875L4.75 23.8125L6.25 23.8125ZM6.25 19.5625L6.25 18.5L4.75 18.5L4.75 19.5625L6.25 19.5625ZM6.25 18.5L6.25 17.4375L4.75 17.4375L4.75 18.5L6.25 18.5ZM6.25 15.3125L6.25 13.1875L4.75 13.1875L4.75 15.3125L6.25 15.3125ZM6.25 11.0625L6.25 8.9375L4.75 8.9375L4.75 11.0625L6.25 11.0625ZM6.25 6.8125L6.25 4.6875L4.75 4.6875L4.75 6.8125L6.25 6.8125ZM6.25 2.5625L6.25 1.5L4.75 1.5L4.75 2.5625L6.25 2.5625Z" fill="black"/>
<path d="M1 30.5L5.5 35L10 30.5" stroke="black"/>
</svg>
