<svg version="1.1" id="Layer_1" xmlns="http://www.w3.org/2000/svg" xmlns:xlink="http://www.w3.org/1999/xlink" x="0px" y="0px"
	 width="100%" viewBox="0 0 326 278" enable-background="new 0 0 326 278" xml:space="preserve">
<path fill="#FEFEFE" opacity="1.000000" stroke="none" 
	d="
M189.000000,279.000000 
	C126.000008,279.000000 63.500023,279.000000 1.000025,279.000000 
	C1.000017,186.333359 1.000017,93.666725 1.000008,1.000062 
	C109.666618,1.000042 218.333237,1.000042 326.999878,1.000021 
	C326.999939,93.666603 326.999939,186.333206 326.999969,278.999908 
	C281.166656,279.000000 235.333328,279.000000 189.000000,279.000000 
M289.907684,188.561798 
	C279.497223,171.734131 269.047455,154.930435 258.735413,138.042664 
	C257.671631,136.300598 256.899017,134.060196 256.887085,132.045685 
	C256.757538,110.223427 256.802948,88.400101 256.825806,66.577087 
	C256.826630,65.778336 257.085999,64.979851 257.224854,64.181244 
	C257.549988,64.551270 257.875122,64.921295 258.200226,65.291313 
	C261.948303,62.579472 266.814240,60.617691 269.232513,57.013580 
	C276.178467,46.661644 268.683533,34.157887 255.910843,34.098652 
	C234.421432,33.998981 212.931213,34.070263 191.441345,34.070496 
	C183.445114,34.070583 175.446793,33.958805 167.453217,34.105534 
	C158.862396,34.263222 153.167953,39.157700 152.164993,46.924606 
	C151.121262,55.007198 155.398743,61.251789 163.912216,63.288441 
	C167.195969,64.074005 167.020233,66.036186 167.016724,68.442581 
	C166.986084,89.432655 167.053925,110.423134 166.916336,131.412338 
	C166.902161,133.573776 166.175781,135.994934 165.043564,137.844986 
	C147.762436,166.082535 130.394592,194.267273 112.966164,222.414276 
	C105.768471,234.038605 104.938553,245.964722 111.610023,257.896606 
	C118.004875,269.333771 128.531448,273.709167 141.270416,273.701111 
	C188.414856,273.671265 235.559311,273.690918 282.703766,273.689209 
	C295.439392,273.688751 305.944855,269.209869 312.278534,257.710876 
	C318.755981,245.950851 318.079865,234.155579 310.992523,222.726318 
	C304.067871,211.559387 297.186523,200.365601 289.907684,188.561798 
M93.586655,228.244110 
	C98.302750,219.504486 102.076134,210.064590 107.936661,202.175064 
	C119.175499,187.045212 123.188606,170.890305 122.280731,152.028107 
	C120.944977,124.276016 121.934120,96.411926 121.939468,68.595543 
	C121.939903,66.335083 121.424896,64.202324 124.846230,63.336208 
	C133.333893,61.187550 137.805298,54.692837 136.712494,47.000969 
	C135.583908,39.057171 129.640366,34.148148 120.920982,34.085510 
	C112.759705,34.026875 104.597687,34.072224 96.435989,34.072403 
	C75.115646,34.072872 53.795151,34.026653 32.475044,34.097794 
	C24.102329,34.125729 18.091232,39.263035 17.117905,46.892300 
	C16.120592,54.709572 20.531151,61.492229 28.353558,63.196075 
	C31.786951,63.943924 31.957111,65.758316 31.950285,68.488800 
	C31.891979,91.807777 31.886591,115.127022 31.925547,138.446075 
	C31.960604,159.430801 31.523121,180.435364 32.285973,201.395065 
	C33.269253,228.411087 58.279221,247.849274 84.670059,243.279480 
	C89.909676,242.372192 92.971817,240.815826 92.232239,234.863663 
	C91.998863,232.985397 92.912903,230.964569 93.586655,228.244110 
z"/>
<path fill="#1B3354" opacity="1.000000" stroke="none" 
	d="
M290.096924,188.872711 
	C297.186523,200.365601 304.067871,211.559387 310.992523,222.726318 
	C318.079865,234.155579 318.755981,245.950851 312.278534,257.710876 
	C305.944855,269.209869 295.439392,273.688751 282.703766,273.689209 
	C235.559311,273.690918 188.414856,273.671265 141.270416,273.701111 
	C128.531448,273.709167 118.004875,269.333771 111.610023,257.896606 
	C104.938553,245.964722 105.768471,234.038605 112.966164,222.414276 
	C130.394592,194.267273 147.762436,166.082535 165.043564,137.844986 
	C166.175781,135.994934 166.902161,133.573776 166.916336,131.412338 
	C167.053925,110.423134 166.986084,89.432655 167.016724,68.442581 
	C167.020233,66.036186 167.195969,64.074005 163.912216,63.288441 
	C155.398743,61.251789 151.121262,55.007198 152.164993,46.924606 
	C153.167953,39.157700 158.862396,34.263222 167.453217,34.105534 
	C175.446793,33.958805 183.445114,34.070583 191.441345,34.070496 
	C212.931213,34.070263 234.421432,33.998981 255.910843,34.098652 
	C268.683533,34.157887 276.178467,46.661644 269.232513,57.013580 
	C266.814240,60.617691 261.948303,62.579472 258.200226,65.291313 
	C257.875122,64.921295 257.549988,64.551270 257.224854,64.181244 
	C257.085999,64.979851 256.826630,65.778336 256.825806,66.577087 
	C256.802948,88.400101 256.757538,110.223427 256.887085,132.045685 
	C256.899017,134.060196 257.671631,136.300598 258.735413,138.042664 
	C269.047455,154.930435 279.497223,171.734131 290.096924,188.872711 
M196.821121,81.501328 
	C196.821121,94.658615 196.069382,107.870392 197.018036,120.958916 
	C198.117844,136.133102 194.739044,149.371628 185.562424,161.565857 
	C180.545425,168.232620 176.806458,175.861176 172.203018,183.536423 
	C199.114166,183.536423 225.179779,183.536423 252.125977,183.536423 
	C245.796555,173.313538 240.236847,163.674316 234.009491,154.487686 
	C229.159515,147.332947 226.826355,140.016495 227.046280,131.210663 
	C227.565918,110.405113 227.258347,89.577423 227.119354,68.759804 
	C227.108688,67.162437 225.841263,64.214256 225.078918,64.187973 
	C215.826691,63.869026 206.559601,63.981041 196.821091,63.981041 
	C196.821091,69.919807 196.821091,75.210892 196.821121,81.501328 
z"/>
<path fill="#1A3254" opacity="1.000000" stroke="none" 
	d="
M93.444229,228.626556 
	C92.912903,230.964569 91.998863,232.985397 92.232239,234.863663 
	C92.971817,240.815826 89.909676,242.372192 84.670059,243.279480 
	C58.279221,247.849274 33.269253,228.411087 32.285973,201.395065 
	C31.523121,180.435364 31.960604,159.430801 31.925547,138.446075 
	C31.886591,115.127022 31.891979,91.807777 31.950285,68.488800 
	C31.957111,65.758316 31.786951,63.943924 28.353558,63.196075 
	C20.531151,61.492229 16.120592,54.709572 17.117905,46.892300 
	C18.091232,39.263035 24.102329,34.125729 32.475044,34.097794 
	C53.795151,34.026653 75.115646,34.072872 96.435989,34.072403 
	C104.597687,34.072224 112.759705,34.026875 120.920982,34.085510 
	C129.640366,34.148148 135.583908,39.057171 136.712494,47.000969 
	C137.805298,54.692837 133.333893,61.187550 124.846230,63.336208 
	C121.424896,64.202324 121.939903,66.335083 121.939468,68.595543 
	C121.934120,96.411926 120.944977,124.276016 122.280731,152.028107 
	C123.188606,170.890305 119.175499,187.045212 107.936661,202.175064 
	C102.076134,210.064590 98.302750,219.504486 93.444229,228.626556 
M62.212582,64.866364 
	C62.212582,79.434326 62.212582,94.002296 62.212582,108.818359 
	C72.177345,108.818359 81.722557,108.818359 91.539665,108.818359 
	C91.539665,93.803085 91.539665,79.120544 91.539665,64.203529 
	C81.757057,64.203529 72.324074,64.203529 62.212582,64.866364 
z"/>
<path fill="#FEFEFD" opacity="1.000000" stroke="none" 
	d="
M196.821106,81.001656 
	C196.821091,75.210892 196.821091,69.919807 196.821091,63.981041 
	C206.559601,63.981041 215.826691,63.869026 225.078918,64.187973 
	C225.841263,64.214256 227.108688,67.162437 227.119354,68.759804 
	C227.258347,89.577423 227.565918,110.405113 227.046280,131.210663 
	C226.826355,140.016495 229.159515,147.332947 234.009491,154.487686 
	C240.236847,163.674316 245.796555,173.313538 252.125977,183.536423 
	C225.179779,183.536423 199.114166,183.536423 172.203018,183.536423 
	C176.806458,175.861176 180.545425,168.232620 185.562424,161.565857 
	C194.739044,149.371628 198.117844,136.133102 197.018036,120.958916 
	C196.069382,107.870392 196.821121,94.658615 196.821106,81.001656 
z"/>
<path fill="#FDFCFA" opacity="1.000000" stroke="none" 
	d="
M62.551838,64.534943 
	C72.324074,64.203529 81.757057,64.203529 91.539665,64.203529 
	C91.539665,79.120544 91.539665,93.803085 91.539665,108.818359 
	C81.722557,108.818359 72.177345,108.818359 62.212582,108.818359 
	C62.212582,94.002296 62.212582,79.434326 62.551838,64.534943 
z"/>
</svg>