<svg version="1.1" id="Layer_1" xmlns="http://www.w3.org/2000/svg" xmlns:xlink="http://www.w3.org/1999/xlink" x="0px" y="0px"
	 width="100%" viewBox="0 0 320 279" enable-background="new 0 0 320 279" xml:space="preserve">
<path fill="#FEFEFE" opacity="1.000000" stroke="none" 
	d="
M190.000000,280.000000 
	C126.666679,280.000000 63.833355,280.000000 1.000025,280.000000 
	C1.000017,187.000031 1.000017,94.000053 1.000008,1.000063 
	C107.666618,1.000042 214.333237,1.000042 320.999878,1.000021 
	C320.999939,93.999939 320.999939,186.999878 320.999969,279.999908 
	C277.500000,280.000000 234.000000,280.000000 190.000000,280.000000 
M100.191231,242.447739 
	C101.005074,260.228271 113.454788,272.647675 130.890671,272.676392 
	C180.218979,272.757599 229.547714,272.777069 278.875854,272.651794 
	C290.320526,272.622742 299.629730,267.913086 305.356628,257.691101 
	C311.258545,247.156860 311.352539,236.464111 304.919617,225.990204 
	C287.417389,197.493317 269.854462,169.033340 252.488068,140.453918 
	C250.951294,137.924881 249.947113,134.636261 249.924866,131.691132 
	C249.728561,105.695175 249.805786,79.697128 249.820984,53.699707 
	C249.822021,51.932899 249.975250,50.166183 250.053146,48.496414 
	C253.530304,48.061787 256.692230,48.222191 259.358856,47.150360 
	C261.347748,46.350937 263.693115,44.152786 264.068512,42.224857 
	C264.501495,40.001209 263.511353,36.947639 262.064209,35.093533 
	C260.993591,33.721878 258.204834,33.152435 256.178528,33.145851 
	C222.015640,33.034908 187.852264,33.064907 153.689011,33.088333 
	C152.705917,33.089005 151.702652,33.278477 150.743652,33.518925 
	C146.996887,34.458317 145.001984,36.955360 145.226501,40.757225 
	C145.444000,44.440201 147.304214,47.048313 151.297836,47.523216 
	C154.058304,47.851479 156.823181,48.142620 159.654541,48.457973 
	C159.797058,49.403950 159.976822,50.041515 159.977142,50.679176 
	C159.991089,78.343071 160.031662,106.007179 159.900757,133.670471 
	C159.891266,135.677521 158.964783,137.888718 157.886215,139.650970 
	C141.381577,166.617706 124.767372,193.517349 108.211624,220.452866 
	C104.206886,226.968399 99.796165,233.357819 100.191231,242.447739 
M52.500004,33.058205 
	C44.168797,33.058205 35.837585,33.054020 27.506384,33.060196 
	C24.007601,33.062790 20.486931,32.847214 17.015720,33.163898 
	C12.870302,33.542091 10.139992,35.941410 10.134742,40.273663 
	C10.130020,44.169659 12.038849,46.958847 16.249325,47.520283 
	C18.994038,47.886272 21.748018,48.182762 24.901262,48.558453 
	C24.901262,50.641304 24.901260,52.441120 24.901262,54.240932 
	C24.901321,100.396591 24.866287,146.552307 24.953825,192.707794 
	C24.962933,197.508545 25.329893,202.372787 26.159887,207.097061 
	C30.544977,232.056778 57.501411,248.510910 81.838028,241.202209 
	C82.867638,240.892990 84.460701,240.226624 84.589699,239.510239 
	C85.506584,234.418304 86.110214,229.269989 86.887169,223.603012 
	C83.857887,224.880035 81.510918,226.149597 79.006729,226.880676 
	C59.284111,232.638519 39.900894,218.406433 39.646656,197.625488 
	C39.357227,173.967987 39.569965,150.304245 39.597191,126.643272 
	C39.598457,125.541313 39.919292,124.439713 40.104698,123.252090 
	C60.149273,123.252090 79.880058,123.252090 100.354202,123.252090 
	C100.354202,148.818176 100.354202,174.060089 100.354202,199.302002 
	C104.782127,193.973984 108.036247,188.373718 111.748108,183.095367 
	C114.288536,179.482819 115.031563,175.759354 115.018509,171.431442 
	C114.900444,132.274490 114.949356,93.117012 114.949341,53.959690 
	C114.949341,52.180332 114.949341,50.400978 114.949341,48.537468 
	C118.457710,48.106041 121.415863,47.870144 124.323929,47.352749 
	C128.075394,46.685295 129.507675,43.810863 129.722809,40.469280 
	C130.018539,35.875862 126.455833,33.085129 120.484001,33.074856 
	C98.156059,33.036449 75.828011,33.058708 52.500004,33.058205 
z"/>
<path fill="#1E3556" opacity="1.000000" stroke="none" 
	d="
M100.191284,242.002869 
	C99.796165,233.357819 104.206886,226.968399 108.211624,220.452866 
	C124.767372,193.517349 141.381577,166.617706 157.886215,139.650970 
	C158.964783,137.888718 159.891266,135.677521 159.900757,133.670471 
	C160.031662,106.007179 159.991089,78.343071 159.977142,50.679176 
	C159.976822,50.041515 159.797058,49.403950 159.654541,48.457973 
	C156.823181,48.142620 154.058304,47.851479 151.297836,47.523216 
	C147.304214,47.048313 145.444000,44.440201 145.226501,40.757225 
	C145.001984,36.955360 146.996887,34.458317 150.743652,33.518925 
	C151.702652,33.278477 152.705917,33.089005 153.689011,33.088333 
	C187.852264,33.064907 222.015640,33.034908 256.178528,33.145851 
	C258.204834,33.152435 260.993591,33.721878 262.064209,35.093533 
	C263.511353,36.947639 264.501495,40.001209 264.068512,42.224857 
	C263.693115,44.152786 261.347748,46.350937 259.358856,47.150360 
	C256.692230,48.222191 253.530304,48.061787 250.053146,48.496414 
	C249.975250,50.166183 249.822021,51.932899 249.820984,53.699707 
	C249.805786,79.697128 249.728561,105.695175 249.924866,131.691132 
	C249.947113,134.636261 250.951294,137.924881 252.488068,140.453918 
	C269.854462,169.033340 287.417389,197.493317 304.919617,225.990204 
	C311.352539,236.464111 311.258545,247.156860 305.356628,257.691101 
	C299.629730,267.913086 290.320526,272.622742 278.875854,272.651794 
	C229.547714,272.777069 180.218979,272.757599 130.890671,272.676392 
	C113.454788,272.647675 101.005074,260.228271 100.191284,242.002869 
M294.842316,243.261734 
	C294.133514,240.233749 294.104004,236.806305 292.598785,234.246658 
	C285.936920,222.918182 278.927582,211.789856 271.818665,200.733978 
	C270.960358,199.399124 268.736450,198.195526 267.141327,198.190262 
	C225.491577,198.052582 183.841202,198.052841 142.191452,198.190964 
	C140.596924,198.196243 138.371872,199.399734 137.516708,200.734360 
	C130.698425,211.375565 124.138435,222.182327 117.502838,232.940536 
	C109.459076,245.981812 120.554611,258.342163 131.813049,258.218689 
	C180.621216,257.683441 229.438614,257.992462 278.252655,257.987305 
	C287.331635,257.986359 293.141968,253.096649 294.842316,243.261734 
M235.047989,63.506763 
	C235.047226,59.840405 234.853043,56.160908 235.100937,52.511440 
	C235.341431,48.970638 233.984482,47.971897 230.518723,48.002903 
	C213.354599,48.156456 196.188354,48.064072 179.022903,48.091522 
	C177.763916,48.093536 176.505356,48.357868 174.981033,48.530285 
	C174.981033,50.742420 174.981033,52.561115 174.981033,54.379814 
	C174.981033,80.378029 175.165771,106.378799 174.806763,132.372055 
	C174.743881,136.925140 173.179535,141.879791 170.953949,145.898819 
	C165.074203,156.516602 158.445633,166.719421 152.128342,177.095474 
	C151.084152,178.810532 150.106598,180.566177 148.966248,182.530426 
	C186.589417,182.530426 223.407867,182.530426 260.723572,182.530426 
	C259.957977,181.043182 259.567078,180.149887 259.063324,179.325562 
	C252.119064,167.962173 244.936752,156.735245 238.340775,145.173630 
	C236.396378,141.765427 235.238342,137.428238 235.189011,133.498337 
	C234.900375,110.503540 235.047760,87.503273 235.047989,63.506763 
z"/>
<path fill="#1F3658" opacity="1.000000" stroke="none" 
	d="
M53.000008,33.058212 
	C75.828011,33.058708 98.156059,33.036449 120.484001,33.074856 
	C126.455833,33.085129 130.018539,35.875862 129.722809,40.469280 
	C129.507675,43.810863 128.075394,46.685295 124.323929,47.352749 
	C121.415863,47.870144 118.457710,48.106041 114.949341,48.537468 
	C114.949341,50.400978 114.949341,52.180332 114.949341,53.959690 
	C114.949356,93.117012 114.900444,132.274490 115.018509,171.431442 
	C115.031563,175.759354 114.288536,179.482819 111.748108,183.095367 
	C108.036247,188.373718 104.782127,193.973984 100.354202,199.302002 
	C100.354202,174.060089 100.354202,148.818176 100.354202,123.252090 
	C79.880058,123.252090 60.149273,123.252090 40.104698,123.252090 
	C39.919292,124.439713 39.598457,125.541313 39.597191,126.643272 
	C39.569965,150.304245 39.357227,173.967987 39.646656,197.625488 
	C39.900894,218.406433 59.284111,232.638519 79.006729,226.880676 
	C81.510918,226.149597 83.857887,224.880035 86.887169,223.603012 
	C86.110214,229.269989 85.506584,234.418304 84.589699,239.510239 
	C84.460701,240.226624 82.867638,240.892990 81.838028,241.202209 
	C57.501411,248.510910 30.544977,232.056778 26.159887,207.097061 
	C25.329893,202.372787 24.962933,197.508545 24.953825,192.707794 
	C24.866287,146.552307 24.901321,100.396591 24.901262,54.240932 
	C24.901260,52.441120 24.901262,50.641304 24.901262,48.558453 
	C21.748018,48.182762 18.994038,47.886272 16.249325,47.520283 
	C12.038849,46.958847 10.130020,44.169659 10.134742,40.273663 
	C10.139992,35.941410 12.870302,33.542091 17.015720,33.163898 
	C20.486931,32.847214 24.007601,33.062790 27.506384,33.060196 
	C35.837585,33.054020 44.168797,33.058205 53.000008,33.058212 
M53.508541,108.127968 
	C67.325943,108.127480 81.145889,107.978645 94.959206,108.215668 
	C99.179535,108.288078 100.324127,106.882736 100.275787,102.798798 
	C100.078781,86.153641 100.102997,69.503922 100.264709,52.858009 
	C100.299973,49.228016 99.370827,47.944290 95.521057,47.990204 
	C78.543045,48.192692 61.559566,48.205505 44.582039,47.983501 
	C40.576714,47.931129 39.461781,49.172050 39.501358,53.048794 
	C39.671307,69.694542 39.653976,86.343689 39.513313,102.989983 
	C39.481750,106.725166 40.400017,108.630592 44.527061,108.180054 
	C47.159225,107.892708 49.848373,108.127373 53.508541,108.127968 
z"/>
<path fill="#FEFEFE" opacity="1.000000" stroke="none" 
	d="
M294.834625,243.673553 
	C293.141968,253.096649 287.331635,257.986359 278.252655,257.987305 
	C229.438614,257.992462 180.621216,257.683441 131.813049,258.218689 
	C120.554611,258.342163 109.459076,245.981812 117.502838,232.940536 
	C124.138435,222.182327 130.698425,211.375565 137.516708,200.734360 
	C138.371872,199.399734 140.596924,198.196243 142.191452,198.190964 
	C183.841202,198.052841 225.491577,198.052582 267.141327,198.190262 
	C268.736450,198.195526 270.960358,199.399124 271.818665,200.733978 
	C278.927582,211.789856 285.936920,222.918182 292.598785,234.246658 
	C294.104004,236.806305 294.133514,240.233749 294.834625,243.673553 
z"/>
<path fill="#FEFEFD" opacity="1.000000" stroke="none" 
	d="
M235.048004,64.005806 
	C235.047760,87.503273 234.900375,110.503540 235.189011,133.498337 
	C235.238342,137.428238 236.396378,141.765427 238.340775,145.173630 
	C244.936752,156.735245 252.119064,167.962173 259.063324,179.325562 
	C259.567078,180.149887 259.957977,181.043182 260.723572,182.530426 
	C223.407867,182.530426 186.589417,182.530426 148.966248,182.530426 
	C150.106598,180.566177 151.084152,178.810532 152.128342,177.095474 
	C158.445633,166.719421 165.074203,156.516602 170.953949,145.898819 
	C173.179535,141.879791 174.743881,136.925140 174.806763,132.372055 
	C175.165771,106.378799 174.981033,80.378029 174.981033,54.379814 
	C174.981033,52.561115 174.981033,50.742420 174.981033,48.530285 
	C176.505356,48.357868 177.763916,48.093536 179.022903,48.091522 
	C196.188354,48.064072 213.354599,48.156456 230.518723,48.002903 
	C233.984482,47.971897 235.341431,48.970638 235.100937,52.511440 
	C234.853043,56.160908 235.047226,59.840405 235.048004,64.005806 
z"/>
<path fill="#FFFEFD" opacity="1.000000" stroke="none" 
	d="
M53.010254,108.127975 
	C49.848373,108.127373 47.159225,107.892708 44.527061,108.180054 
	C40.400017,108.630592 39.481750,106.725166 39.513313,102.989983 
	C39.653976,86.343689 39.671307,69.694542 39.501358,53.048794 
	C39.461781,49.172050 40.576714,47.931129 44.582039,47.983501 
	C61.559566,48.205505 78.543045,48.192692 95.521057,47.990204 
	C99.370827,47.944290 100.299973,49.228016 100.264709,52.858009 
	C100.102997,69.503922 100.078781,86.153641 100.275787,102.798798 
	C100.324127,106.882736 99.179535,108.288078 94.959206,108.215668 
	C81.145889,107.978645 67.325943,108.127480 53.010254,108.127975 
z"/>
</svg>