<svg width="72" height="72" viewBox="0 0 72 72" fill="none" xmlns="http://www.w3.org/2000/svg">
<path d="M32 34.5V31L36.5 32L40 31V34.5L42.5 36.5L39 40H33.5L30.5 36.5L32 34.5Z" fill="#68D4F4"/>
<path d="M17.002 44.5L22.502 40.5L29.002 37.5L34.502 41L39.502 40.5L43.002 37.5L54.002 42.5L55.502 49L55.002 66H17.002L16.502 55.5L17.002 44.5Z" fill="#1B6278"/>
<path d="M45.5 19.5H27L28.5 28.5L33.5 31.5L41.5 31L45.5 25V19.5Z" fill="#68D4F4"/>
<path d="M26.9994 18L46.7852 18L46.4994 12L38.9994 6L30.9994 6.5L26.9994 12.5L26.9994 18Z" fill="#1B6278"/>
<path d="M36.2931 33.3333C35.9446 33.3333 35.596 33.3149 35.2492 33.2816C34.9023 33.2466 34.5587 33.1949 34.2168 33.1265C33.875 33.0581 33.5381 32.973 33.2045 32.8713C32.871 32.7696 32.5425 32.6512 32.2206 32.5178C31.8987 32.3843 31.5835 32.2343 31.2767 32.0708C30.9698 31.9057 30.6713 31.7256 30.3811 31.5321C30.0909 31.337 29.8124 31.1302 29.5423 30.9084C29.2721 30.6866 29.0153 30.4531 28.7684 30.2063C28.5216 29.9578 28.2881 29.701 28.0663 29.4308C27.8462 29.1607 27.6377 28.8805 27.4443 28.5903C27.2508 28.3001 27.0724 27.9999 26.9073 27.6931C26.7422 27.3846 26.5937 27.0694 26.4603 26.7475C26.3269 26.424 26.2085 26.0954 26.1084 25.7619C26.0067 25.4283 25.9217 25.0898 25.8533 24.7462C25.7849 24.4044 25.7332 24.0591 25.6982 23.7123C25.6648 23.3637 25.6465 23.0152 25.6465 22.6666V18.6658H28.3081V22.6666C28.3081 22.9284 28.3215 23.1903 28.3465 23.4504C28.3715 23.7123 28.4099 23.9708 28.4616 24.2276C28.5133 24.4844 28.5766 24.7379 28.6517 24.9881C28.7284 25.2399 28.8151 25.4867 28.9152 25.7285C29.0153 25.9703 29.127 26.2072 29.2504 26.4373C29.3738 26.6691 29.5089 26.8926 29.654 27.1111C29.7991 27.3295 29.9542 27.5397 30.1209 27.7414C30.2861 27.9449 30.4612 28.1384 30.6463 28.3235C30.8314 28.5086 31.0248 28.6837 31.2283 28.8505C31.4301 29.0172 31.6402 29.1723 31.857 29.3191C32.0738 29.4642 32.299 29.5993 32.5291 29.7227C32.7593 29.8461 32.9961 29.9578 33.2379 30.0579C33.4797 30.158 33.7249 30.2463 33.975 30.3214C34.2252 30.3981 34.4787 30.4615 34.7355 30.5132C34.9923 30.5632 35.2508 30.6016 35.511 30.6282C35.7711 30.6533 36.0313 30.6666 36.2931 30.6666C36.555 30.6666 36.8151 30.6533 37.0753 30.6282C37.3355 30.6016 37.594 30.5632 37.8508 30.5132C38.1076 30.4615 38.3611 30.3981 38.6113 30.3214C38.8614 30.2463 39.1066 30.158 39.3484 30.0579C39.5902 29.9578 39.827 29.8461 40.0572 29.7227C40.2873 29.5993 40.5124 29.4642 40.7292 29.3191C40.946 29.1723 41.1562 29.0172 41.358 28.8505C41.5614 28.6837 41.7549 28.5086 41.94 28.3235C42.1251 28.1384 42.3002 27.9449 42.4653 27.7414C42.6321 27.5397 42.7872 27.3295 42.9323 27.1111C43.0774 26.8926 43.2125 26.6691 43.3359 26.4373C43.4593 26.2072 43.571 25.9703 43.6711 25.7285C43.7711 25.4867 43.8579 25.2399 43.9346 24.9881C44.0096 24.7379 44.073 24.4844 44.1247 24.2276C44.1764 23.9708 44.2148 23.7123 44.2398 23.4504C44.2648 23.1903 44.2781 22.9284 44.2781 22.6666V18.6658H46.9398V22.6666C46.9398 23.0152 46.9214 23.3637 46.8881 23.7123C46.8531 24.0591 46.8014 24.4044 46.733 24.7462C46.6646 25.0898 46.5796 25.4283 46.4778 25.7619C46.3778 26.0954 46.2594 26.424 46.1259 26.7475C45.9925 27.0694 45.8441 27.3846 45.679 27.6931C45.5139 27.9999 45.3355 28.3001 45.142 28.5903C44.9485 28.8805 44.7401 29.1607 44.5199 29.4308C44.2981 29.701 44.0647 29.9578 43.8178 30.2063C43.571 30.4531 43.3142 30.6866 43.044 30.9084C42.7739 31.1302 42.4953 31.337 42.2052 31.5321C41.915 31.7256 41.6165 31.9057 41.3096 32.0708C41.0027 32.2343 40.6876 32.3843 40.3657 32.5178C40.0438 32.6512 39.7153 32.7696 39.3817 32.8713C39.0482 32.973 38.7113 33.0581 38.3694 33.1265C38.0276 33.1949 37.684 33.2466 37.3371 33.2816C36.9902 33.3149 36.6417 33.3333 36.2931 33.3333Z" fill="#0D313B"/>
<path d="M56.2558 68H16.3309C16.1541 68 15.984 67.9666 15.8222 67.8982C15.6588 67.8315 15.5154 67.7348 15.3903 67.6097C15.2652 67.4846 15.1685 67.3395 15.1018 67.1761C15.0334 67.0127 15.0001 66.8442 15.0001 66.6658V49.3333C14.9984 48.7913 15.0351 48.2509 15.1101 47.7139C15.1852 47.1769 15.2986 46.6483 15.4503 46.128C15.6004 45.6076 15.7872 45.1006 16.0107 44.6053C16.2342 44.1117 16.491 43.6364 16.7828 43.1794C17.0747 42.7225 17.3966 42.2889 17.7501 41.8786C18.102 41.4667 18.4839 41.0831 18.8908 40.7279C19.2994 40.371 19.7297 40.0458 20.185 39.7506C20.6386 39.4571 21.1122 39.1953 21.6042 38.9685L30.97 34.1021V30.6666H33.6317V34.9143C33.6317 35.1628 33.5667 35.3946 33.4382 35.6064C33.3082 35.8198 33.1331 35.9833 32.9129 36.0967L22.8283 41.3333C22.4447 41.5051 22.0778 41.7052 21.7226 41.9303C21.369 42.1555 21.0322 42.4056 20.7153 42.6791C20.3968 42.9543 20.0999 43.2495 19.8231 43.5664C19.5479 43.8832 19.2961 44.2168 19.0676 44.5703C18.8391 44.9239 18.6373 45.2908 18.4622 45.6727C18.2871 46.0546 18.1404 46.4465 18.0219 46.8501C17.9019 47.2537 17.8135 47.6622 17.7534 48.0792C17.6917 48.4944 17.6617 48.913 17.6617 49.3333V65.3333H54.925V49.3333C54.925 48.913 54.895 48.4944 54.8333 48.0792C54.7732 47.6622 54.6849 47.2537 54.5648 46.8501C54.4464 46.4465 54.2996 46.0546 54.1245 45.6727C53.9477 45.2908 53.7476 44.9239 53.5191 44.5703C53.2907 44.2168 53.0388 43.8832 52.7637 43.5664C52.4868 43.2495 52.19 42.9543 51.8714 42.6791C51.5546 42.4056 51.2177 42.1555 50.8641 41.9303C50.5089 41.7052 50.142 41.5051 49.7584 41.3333L39.6738 36.0967C39.4537 35.9833 39.2786 35.8198 39.1485 35.6064C39.0201 35.3946 38.955 35.1628 38.955 34.9143V30.6666H41.6167V34.1021L50.9825 38.9685C51.4745 39.1953 51.9481 39.4571 52.4018 39.7506C52.857 40.0458 53.2873 40.371 53.6959 40.7279C54.1028 41.0831 54.4847 41.4667 54.8366 41.8786C55.1902 42.2889 55.512 42.7225 55.8039 43.1794C56.0957 43.6364 56.3526 44.1117 56.576 44.6053C56.7995 45.1006 56.9863 45.6076 57.1364 46.128C57.2882 46.6483 57.4016 47.1769 57.4766 47.7139C57.5517 48.2509 57.5883 48.7913 57.5867 49.3333V66.6658C57.5867 66.8442 57.5533 67.0127 57.4849 67.1761C57.4182 67.3395 57.3215 67.4846 57.1964 67.6097C57.0713 67.7348 56.9279 67.8315 56.7645 67.8982C56.6027 67.9666 56.4326 68 56.2558 68Z" fill="#0D313B"/>
<path d="M21.6543 57.3334H24.316V66.6659H21.6543V57.3334Z" fill="#0D313B"/>
<path d="M48.2734 57.3334H50.9351V66.6659H48.2734V57.3334Z" fill="#0D313B"/>
<path d="M21.6543 17.3334H50.9326V20H21.6543V17.3334Z" fill="#0D313B"/>
<path d="M48.2714 18.6658H45.6097V15.9992C45.6097 15.694 45.5947 15.3888 45.5647 15.0853C45.5347 14.7817 45.4896 14.4782 45.4313 14.1797C45.3712 13.8795 45.2979 13.5827 45.2078 13.2908C45.1194 12.999 45.0177 12.7104 44.9009 12.4286C44.7842 12.1451 44.6541 11.8699 44.509 11.5998C44.3656 11.3312 44.2088 11.0694 44.0404 10.8143C43.8703 10.5608 43.6885 10.3156 43.4951 10.0788C43.3016 9.84199 43.0965 9.61684 42.8813 9.40004C42.6662 9.18491 42.4394 8.97978 42.2043 8.78466C41.9674 8.5912 41.724 8.40942 41.4688 8.23932C41.2153 8.06921 40.9551 7.91245 40.685 7.76902C40.4165 7.62393 40.1413 7.49385 39.8595 7.37711C39.5776 7.26037 39.2908 7.15697 38.9989 7.06858C38.7054 6.9802 38.4102 6.90515 38.1117 6.84678C37.8115 6.78674 37.5113 6.74171 37.2078 6.71169C36.9026 6.68168 36.5991 6.66667 36.2939 6.66667C35.9887 6.66667 35.6852 6.68168 35.38 6.71169C35.0765 6.74171 34.7763 6.78674 34.4761 6.84678C34.1776 6.90515 33.8824 6.9802 33.5889 7.06858C33.297 7.15697 33.0102 7.26037 32.7283 7.37711C32.4465 7.49385 32.1713 7.62393 31.9028 7.76902C31.6326 7.91245 31.3725 8.06921 31.119 8.23932C30.8638 8.40942 30.6203 8.5912 30.3835 8.78466C30.1484 8.97978 29.9216 9.18491 29.7064 9.40004C29.4913 9.61684 29.2862 9.84199 29.0927 10.0788C28.8993 10.3156 28.7175 10.5608 28.5474 10.8143C28.3789 11.0694 28.2222 11.3312 28.0788 11.5998C27.9337 11.8699 27.8036 12.1451 27.6868 12.4286C27.5701 12.7104 27.4684 12.999 27.38 13.2908C27.2899 13.5827 27.2166 13.8795 27.1565 14.1797C27.0981 14.4782 27.0531 14.7817 27.0231 15.0853C26.9931 15.3888 26.9781 15.694 26.9781 15.9992V18.6658H24.3164V15.9992C24.3164 15.6073 24.3364 15.2153 24.3748 14.8234C24.4131 14.4332 24.4698 14.0446 24.5466 13.6594C24.6233 13.2741 24.7183 12.8922 24.8317 12.517C24.9468 12.1401 25.0785 11.7715 25.2286 11.408C25.3787 11.0444 25.5455 10.6892 25.7306 10.344C25.9157 9.99708 26.1175 9.66021 26.3343 9.33333C26.5528 9.00646 26.7863 8.69127 27.0348 8.38774C27.2833 8.08422 27.5468 7.79237 27.8253 7.51553C28.1021 7.23702 28.3923 6.97353 28.6958 6.72337C28.9993 6.47488 29.3129 6.2414 29.6397 6.02293C29.9649 5.80446 30.3018 5.60267 30.647 5.41755C30.9939 5.23244 31.3475 5.064 31.711 4.9139C32.0729 4.76381 32.4415 4.63039 32.8167 4.51699C33.192 4.40192 33.5722 4.30686 33.9574 4.23014C34.3427 4.15343 34.7296 4.09673 35.1198 4.05837C35.5101 4.02001 35.902 4 36.2939 4C36.6858 4 37.0777 4.02001 37.468 4.05837C37.8582 4.09673 38.2451 4.15343 38.6304 4.23014C39.0156 4.30686 39.3958 4.40192 39.7711 4.51699C40.1463 4.63039 40.5149 4.76381 40.8768 4.9139C41.2403 5.064 41.5939 5.23244 41.9408 5.41755C42.286 5.60267 42.6228 5.80446 42.9481 6.02293C43.2749 6.2414 43.5885 6.47488 43.892 6.72337C44.1955 6.97353 44.4857 7.23702 44.7625 7.51553C45.041 7.79237 45.3045 8.08422 45.553 8.38774C45.8015 8.69127 46.035 9.00646 46.2535 9.33333C46.4703 9.66021 46.672 9.99708 46.8572 10.344C47.0423 10.6892 47.209 11.0444 47.3591 11.408C47.5092 11.7715 47.641 12.1401 47.7561 12.517C47.8695 12.8922 47.9645 13.2741 48.0412 13.6594C48.118 14.0446 48.1747 14.4332 48.213 14.8234C48.2514 15.2153 48.2714 15.6073 48.2714 15.9992V18.6658Z" fill="#0D313B"/>
<path d="M29.6738 6.95516L32.2738 6.37646L34.9355 18.3773L32.3355 18.956L29.6738 6.95516Z" fill="#0D313B"/>
<path d="M37.6602 18.379L40.3185 6.37646L42.9184 6.95516L40.2601 18.956L37.6602 18.379Z" fill="#0D313B"/>
<path d="M38.9576 41.3333H33.6343C33.2674 41.3333 32.9538 41.2032 32.6937 40.9431L28.7012 36.9423L30.5823 35.0577L34.1846 38.6667H38.4072L42.0095 35.0577L43.8907 36.9423L39.8982 40.9431C39.638 41.2032 39.3245 41.3333 38.9576 41.3333Z" fill="#0D313B"/>
<path d="M34.9629 39.9991H37.6246V46.6666H34.9629V39.9991Z" fill="#0D313B"/>
<path d="M34.9629 49.3334H37.6246V52H34.9629V49.3334Z" fill="#0D313B"/>
</svg>
