<svg width="72" height="72" viewBox="0 0 72 72" fill="none" xmlns="http://www.w3.org/2000/svg">
<circle cx="11.5" cy="22.5" r="4.5" fill="#CBEDDF"/>
<circle cx="30.5" cy="12.5" r="5.5" fill="#CBEDDF"/>
<rect x="10" y="27" width="3" height="4" fill="#CBEDDF"/>
<circle cx="11.5" cy="33.54" r="1.5" fill="#22885E"/>
<rect x="27.5566" y="19.0964" width="9.98728" height="12.3444" transform="rotate(-20.4397 27.5566 19.0964)" fill="#22885E"/>
<rect x="30.5645" y="30.094" width="3.12178" height="2.46305" transform="rotate(-20.4397 30.5645 30.094)" fill="#22885E"/>
<rect x="38" y="26.1302" width="3.12178" height="2.46305" transform="rotate(-20.4397 38 26.1302)" fill="#22885E"/>
<rect x="13.8379" y="17.3481" width="11.6746" height="7.71017" transform="rotate(-27.1268 13.8379 17.3481)" fill="#22885E"/>
<path d="M5 37.4646L8.84986 34.04L10.6963 36.1158L8 40.54L5 37.4646Z" fill="#22885E"/>
<path fill-rule="evenodd" clip-rule="evenodd" d="M36.7968 43.3329C38.4817 38.5662 42.6749 34.9844 47.7905 34.1734C46.9642 30.6353 43.7898 28 40 28C35.5817 28 32 31.5817 32 36C32 39.2793 33.9731 42.0977 36.7968 43.3329Z" fill="#CBEDDF"/>
<path d="M18.332 38.4698L15.1234 34.3107L12.9668 35.9745L14.8775 40.8807L18.332 38.4698Z" fill="#22885E"/>
<path d="M30.4987 16.416C28.4471 16.416 26.7793 14.7452 26.7793 12.6936C26.7793 10.6419 28.4501 8.97412 30.4987 8.97412C32.5504 8.97412 34.2212 10.6434 34.2212 12.6936C34.2212 14.7452 32.5504 16.416 30.4987 16.416ZM30.4987 11.0107C29.5715 11.0107 28.8174 11.7663 28.8174 12.6936C28.8174 13.6208 29.5715 14.3749 30.4987 14.3749C31.426 14.3749 32.1801 13.6208 32.1801 12.6936C32.1801 11.7663 31.426 11.0107 30.4987 11.0107Z" fill="#0B2D1F"/>
<path d="M30.4987 11.0107C29.5715 11.0107 28.8174 11.7663 28.8174 12.6936C28.8174 13.6208 29.5715 14.3749 30.4987 14.3749C31.426 14.3749 32.1801 13.6208 32.1801 12.6936C32.1801 11.7663 31.426 11.0107 30.4987 11.0107Z" fill="#22885E"/>
<path d="M11.4428 25.4086C9.80138 25.4086 8.4668 24.0726 8.4668 22.4311C8.4668 20.7897 9.80138 19.4551 11.4428 19.4551C13.0843 19.4551 14.4203 20.7897 14.4203 22.4311C14.4203 24.0726 13.0843 25.4086 11.4428 25.4086ZM11.4428 21.3892C10.8676 21.3892 10.4009 21.8559 10.4009 22.4311C10.4009 23.0064 10.8676 23.4731 11.4428 23.4731C12.0181 23.4731 12.4848 23.0064 12.4848 22.4311C12.4848 21.8559 12.0181 21.3892 11.4428 21.3892Z" fill="#0B2D1F"/>
<path d="M11.4428 21.3892C10.8676 21.3892 10.4009 21.8559 10.4009 22.4311C10.4009 23.0064 10.8676 23.4731 11.4428 23.4731C12.0181 23.4731 12.4848 23.0064 12.4848 22.4311C12.4848 21.8559 12.0181 21.3892 11.4428 21.3892Z" fill="#22885E"/>
<circle cx="50.2667" cy="48.2667" r="11.5167" fill="#CBEDDF" stroke="#0B2D1F" stroke-width="1.5"/>
<path d="M53.1101 53.2996C53.6671 53.2996 54.1187 53.7512 54.1187 54.3082C54.1187 54.8649 53.6671 55.3165 53.1101 55.3165C52.553 55.3165 52.1014 54.8649 52.1014 54.3082C52.1014 53.7512 52.553 53.2996 53.1101 53.2996Z" fill="#22885E"/>
<path fill-rule="evenodd" clip-rule="evenodd" d="M53.1101 52.9996C53.8328 52.9996 54.4187 53.5855 54.4187 54.3082C54.4187 55.0307 53.8327 55.6165 53.1101 55.6165C52.3874 55.6165 51.8014 55.0307 51.8014 54.3082C51.8014 53.5855 52.3873 52.9996 53.1101 52.9996ZM54.1187 54.3082C54.1187 53.7512 53.6671 53.2996 53.1101 53.2996C52.553 53.2996 52.1014 53.7512 52.1014 54.3082C52.1014 54.8649 52.553 55.3165 53.1101 55.3165C53.6671 55.3165 54.1187 54.8649 54.1187 54.3082Z" fill="#22885E"/>
<path d="M47.5633 53.2996C48.12 53.2996 48.5716 53.7512 48.5716 54.3082C48.5716 54.8649 48.12 55.3165 47.5633 55.3165C47.0063 55.3165 46.5547 54.8649 46.5547 54.3082C46.5547 53.7512 47.0063 53.2996 47.5633 53.2996Z" fill="#22885E"/>
<path fill-rule="evenodd" clip-rule="evenodd" d="M47.5633 52.9996C48.2858 52.9996 48.8716 53.5856 48.8716 54.3082C48.8716 55.0306 48.2857 55.6165 47.5633 55.6165C46.8407 55.6165 46.2547 55.0307 46.2547 54.3082C46.2547 53.5855 46.8406 52.9996 47.5633 52.9996ZM48.5716 54.3082C48.5716 53.7512 48.12 53.2996 47.5633 53.2996C47.0063 53.2996 46.5547 53.7512 46.5547 54.3082C46.5547 54.8649 47.0063 55.3165 47.5633 55.3165C48.12 55.3165 48.5716 54.8649 48.5716 54.3082Z" fill="#22885E"/>
<path d="M54.02 50.274H46.0503V49.2654H54.02C54.2672 49.2654 54.4767 49.0882 54.5173 48.8443L55.1334 45.1486C55.1794 44.8742 55.4378 44.688 55.7136 44.7344C55.9883 44.78 56.1739 45.0399 56.1282 45.3142L55.5125 49.0099C55.3903 49.7427 54.7626 50.274 54.02 50.274Z" fill="#22885E"/>
<path fill-rule="evenodd" clip-rule="evenodd" d="M45.7503 50.574V48.9654H46.5813H46.6623H54.02C54.1207 48.9654 54.2048 48.894 54.2213 48.795L54.8375 45.0993C54.9107 44.6629 55.3226 44.3645 55.7632 44.4385C56.2012 44.5115 56.497 44.9258 56.4242 45.3635L55.8084 49.0592C55.6621 49.9368 54.9092 50.574 54.02 50.574H45.7503ZM56.1282 45.3142C56.1739 45.0399 55.9883 44.78 55.7136 44.7344C55.4378 44.688 55.1794 44.8742 55.1334 45.1486L54.5173 48.8443C54.4767 49.0882 54.2672 49.2654 54.02 49.2654H46.0503V50.274H54.02C54.7626 50.274 55.3903 49.7427 55.5125 49.0099L56.1282 45.3142Z" fill="#22885E"/>
<path d="M54.1186 51.2827C54.397 51.2827 54.6228 51.5085 54.6228 51.7868C54.6228 52.0652 54.397 52.291 54.1186 52.291H47.1615C46.4149 52.291 45.7872 51.756 45.6683 51.0192L44.6126 44.4753H42.7729C42.4945 44.4753 42.2688 44.2495 42.2688 43.9711C42.2688 43.6928 42.4945 43.4666 42.7729 43.4666H45.042C45.2896 43.4666 45.5005 43.6464 45.5396 43.8907L46.6639 50.8587C46.7034 51.1044 46.9129 51.2827 47.1615 51.2827H54.1186Z" fill="#22885E"/>
<path fill-rule="evenodd" clip-rule="evenodd" d="M46.9601 50.811C46.9762 50.9113 47.0601 50.9827 47.1615 50.9827H54.1186C54.5627 50.9827 54.9228 51.3428 54.9228 51.7868C54.9228 52.2309 54.5627 52.591 54.1186 52.591H47.1615C46.2676 52.591 45.5145 51.9491 45.3721 51.067L44.3571 44.7753H42.7729C42.3289 44.7753 41.9688 44.4152 41.9688 43.9711C41.9688 43.5274 42.3286 43.1666 42.7729 43.1666H45.042C45.4368 43.1666 45.7734 43.4533 45.8359 43.8431L45.5396 43.8907C45.5005 43.6464 45.2896 43.4666 45.042 43.4666H42.7729C42.4945 43.4666 42.2688 43.6928 42.2688 43.9711C42.2688 44.2495 42.4945 44.4753 42.7729 44.4753H44.6126L45.6683 51.0192C45.7872 51.756 46.4149 52.291 47.1615 52.291H54.1186C54.397 52.291 54.6228 52.0652 54.6228 51.7868C54.6228 51.5085 54.397 51.2827 54.1186 51.2827H47.1615C46.9129 51.2827 46.7034 51.1044 46.6639 50.8587L45.5396 43.8907M46.9601 50.811L46.6623 48.9654L45.8359 43.8431" fill="#22885E"/>
<path d="M50.5879 43.4666C50.8662 43.4666 51.0924 43.6928 51.0924 43.9711V46.9967C51.0924 47.275 50.8662 47.5008 50.5879 47.5008C50.3095 47.5008 50.0837 47.275 50.0837 46.9967V43.9711C50.0837 43.6928 50.3095 43.4666 50.5879 43.4666Z" fill="#22885E"/>
<path fill-rule="evenodd" clip-rule="evenodd" d="M50.5879 43.1666C51.0319 43.1666 51.3924 43.5271 51.3924 43.9711V46.9967C51.3924 47.441 51.0316 47.8008 50.5879 47.8008C50.1438 47.8008 49.7837 47.4407 49.7837 46.9967V43.9711C49.7837 43.5274 50.1435 43.1666 50.5879 43.1666ZM51.0924 43.9711C51.0924 43.6928 50.8662 43.4666 50.5879 43.4666C50.3095 43.4666 50.0837 43.6928 50.0837 43.9711V46.9967C50.0837 47.275 50.3095 47.5008 50.5879 47.5008C50.8662 47.5008 51.0924 47.275 51.0924 46.9967V43.9711Z" fill="#22885E"/>
<path d="M52.6041 45.4839C52.6041 45.7622 52.3779 45.988 52.0996 45.988H49.0744C48.7961 45.988 48.5699 45.7622 48.5699 45.4839C48.5699 45.2055 48.7961 44.9794 49.0744 44.9794H52.0996C52.3779 44.9794 52.6041 45.2055 52.6041 45.4839Z" fill="#22885E"/>
<path fill-rule="evenodd" clip-rule="evenodd" d="M52.9041 45.4839C52.9041 45.9282 52.5433 46.288 52.0996 46.288H49.0744C48.6307 46.288 48.2699 45.9282 48.2699 45.4839C48.2699 45.0399 48.6304 44.6794 49.0744 44.6794H52.0996C52.5436 44.6794 52.9041 45.0399 52.9041 45.4839ZM52.0996 45.988C52.3779 45.988 52.6041 45.7622 52.6041 45.4839C52.6041 45.2055 52.3779 44.9794 52.0996 44.9794H49.0744C48.7961 44.9794 48.5699 45.2055 48.5699 45.4839C48.5699 45.7622 48.7961 45.988 49.0744 45.988H52.0996Z" fill="#22885E"/>
<path d="M46.5813 48.9654H46.6623L45.8359 43.8431L45.5396 43.8907L46.5813 48.9654Z" fill="#22885E"/>
<path d="M38.5094 40H30V47H36.0352C36.2181 44.4083 37.1064 42.0113 38.5094 40Z" fill="#CBEDDF"/>
<path d="M36.1022 46.3L27.8571 47.04L26 54.04H37.3664C36.4905 52.2113 36 50.1629 36 47.9999C36 47.4245 36.0347 46.8573 36.1022 46.3Z" fill="#22885E"/>
<path d="M44.1523 35.276C41.8374 36.3417 39.8631 38.0204 38.4374 40.1043C36.5994 39.5515 35.2559 37.8435 35.2559 35.8272C35.2559 33.3646 37.2599 31.3621 39.721 31.3621C41.997 31.3621 43.88 33.0727 44.1523 35.276Z" fill="#0B2D1F"/>
<path d="M37.2423 35.8272C37.2423 34.4604 38.3542 33.3471 39.721 33.3471C41.0893 33.3471 42.2011 34.4604 42.2011 35.8272C42.2011 36.0315 42.1763 36.2301 42.1295 36.4201C41.3241 36.9686 40.5789 37.5989 39.9058 38.2991C39.8448 38.3036 39.7832 38.3059 39.721 38.3059C38.3542 38.3059 37.2423 37.194 37.2423 35.8272Z" fill="#22885E"/>
<path fill-rule="evenodd" clip-rule="evenodd" d="M4.35996 36.2415L8.41621 33.2109C8.4823 32.4734 8.7929 31.8059 9.28324 31.3037V27.3677C7.35094 26.5535 5.99224 24.6424 5.99224 22.418C5.99224 19.4574 8.40036 17.048 11.3623 17.048C11.9451 17.048 12.5082 17.1458 13.0329 17.3202L24.1562 10.3972C25.0655 7.83714 27.504 6 30.3681 6C34.008 6 36.9686 8.96058 36.9686 12.6005C36.9686 13.3301 36.8457 14.0279 36.6263 14.6861L36.7045 14.8338L36.7076 14.8397C38.6205 18.4536 42.0167 24.8698 43.9048 28.4713C45.9726 29.6722 47.4899 31.7236 47.9622 34.1472C47.3655 34.2342 46.7811 34.3589 46.2113 34.5187C45.6316 31.4496 42.927 29.1189 39.6899 29.1189C36.0289 29.1189 33.0524 32.0954 33.0524 35.7551C33.0524 38.5962 34.8462 41.0255 37.3615 41.9701C37.105 42.5068 36.8816 43.0624 36.6941 43.6343C34.8649 42.9338 33.3406 41.6117 32.3771 39.929H31.3382C30.8439 39.929 30.4421 40.3308 30.4421 40.8251V45.447H36.2322C36.1244 46.0325 36.0529 46.6307 36.0203 47.2392H28.7583C28.338 47.2366 27.9692 47.534 27.8807 47.945L26.6264 53.8014H37.2548C37.5385 54.4237 37.8665 55.0215 38.2346 55.591H25.5175C25.2466 55.591 24.9902 55.4681 24.8223 55.2579C24.6505 55.0478 24.5857 54.7715 24.6426 54.5072L26.1295 47.5697C26.3859 46.3735 27.4379 45.5039 28.6512 45.455V40.8225C28.6512 39.3435 29.8566 38.1381 31.3356 38.1381H31.6092C31.3871 37.3808 31.2616 36.5838 31.2616 35.7551C31.2616 35.6465 31.2684 35.5392 31.2752 35.4314C31.2784 35.3817 31.2815 35.332 31.284 35.2819L27.6877 20.7315L16.0199 25.064C15.4952 25.9852 14.7048 26.7333 13.7519 27.2117V31.3037C14.2409 31.8059 14.5541 32.4734 14.6202 33.2109L18.6738 36.2415C19.0346 36.5098 19.1404 37.0041 18.9197 37.3953L15.1172 44.1624C14.9559 44.4492 14.6533 44.6183 14.336 44.6183C14.262 44.6183 14.1854 44.6078 14.1114 44.5906C13.7162 44.4875 13.4426 44.132 13.4426 43.7249V38.0919L11.7376 36.5997C11.7072 36.6018 11.6772 36.606 11.6473 36.6102L11.6472 36.6102C11.6044 36.6162 11.5618 36.6221 11.5182 36.6221C11.4731 36.6221 11.4308 36.6162 11.3883 36.6102L11.3883 36.6102C11.3584 36.606 11.3285 36.6018 11.2975 36.5997L9.59384 38.0919V43.7249C9.59384 44.132 9.32025 44.4875 8.92507 44.5906C8.85105 44.6104 8.77439 44.6183 8.70038 44.6183C8.38317 44.6183 8.08051 44.4492 7.91926 44.1624L4.11677 37.3953C3.89341 37.0041 3.99914 36.5124 4.35996 36.2415ZM10.1767 33.4897C10.1767 34.2299 10.7781 34.8339 11.5209 34.8339C12.2623 34.8339 12.865 34.2325 12.865 33.4897C12.865 32.7483 12.2623 32.1469 11.5209 32.1469C10.7781 32.1469 10.1767 32.7509 10.1767 33.4897ZM30.3681 7.78824C27.7168 7.78824 25.5585 9.94655 25.5585 12.5979C25.5585 15.2492 27.7168 17.4061 30.3681 17.4061C33.0194 17.4061 35.1777 15.2492 35.1777 12.5979C35.1777 9.94655 33.0194 7.78824 30.3681 7.78824ZM39.6899 27.3294C40.2649 27.3294 40.8279 27.3888 41.3738 27.4985C40.0116 24.908 38.2692 21.6149 36.7915 18.822C36.3723 18.0297 35.9744 17.2776 35.6125 16.5933C34.4045 18.174 32.5079 19.1984 30.3707 19.1984C29.9452 19.1984 29.5315 19.1547 29.127 19.0781L32.2647 31.7782C33.6882 29.1335 36.4796 27.3294 39.6899 27.3294ZM27.2582 18.9829L27.0943 18.3234C25.1474 17.2039 23.8231 15.1262 23.7755 12.738L14.8171 18.3128C15.9842 19.2988 16.7296 20.7698 16.7296 22.4153C16.7296 22.5792 16.719 22.7431 16.7032 22.9044L27.2582 18.9829ZM14.9401 22.4153C14.9401 20.4421 13.3355 18.8349 11.3596 18.8349C9.38634 18.8349 7.77916 20.4394 7.77916 22.4153C7.77916 24.3913 9.38369 25.9958 11.3596 25.9958C13.3329 25.9958 14.9401 24.3913 14.9401 22.4153ZM11.1687 27.7761H11.1686L11.1685 27.7761C11.136 27.7737 11.1033 27.7713 11.0702 27.7695V30.4036L11.1312 30.3947C11.2587 30.376 11.386 30.3573 11.5182 30.3573C11.6715 30.3573 11.8169 30.3798 11.9663 30.4036V27.7497C11.7667 27.7721 11.5645 27.7853 11.3596 27.7853C11.295 27.7853 11.2321 27.7807 11.1687 27.7761ZM14.9268 37.012C15.1211 37.1825 15.2348 37.4284 15.2348 37.6848V40.3057L16.9768 37.2037L14.1827 35.1154C14.0188 35.3837 13.814 35.6216 13.5787 35.8291L14.9268 37.012ZM7.80163 40.3083V37.6848C7.80163 37.4257 7.91133 37.1812 8.10959 37.012L9.4577 35.8318C9.22244 35.6243 9.01758 35.3864 8.85369 35.1181L6.05833 37.2063L7.80163 40.3083Z" fill="#0B2D1F"/>
</svg>
