<svg width="72" height="72" viewBox="0 0 72 72" fill="none" xmlns="http://www.w3.org/2000/svg">
<circle cx="11.5" cy="22.5" r="4.5" fill="#62C89E"/>
<circle cx="30.5" cy="12.5" r="5.5" fill="#62C89E"/>
<path d="M47.8923 37.3157C47.9632 36.8876 48 36.4481 48 36C48 31.5817 44.4183 28 40 28C35.5817 28 32 31.5817 32 36C32 40.3248 35.4318 43.8481 39.7207 43.9952V39.9311C39.7207 38.4866 40.8917 37.3157 42.3361 37.3157H47.8923Z" fill="#62C89E"/>
<path d="M39.7207 40H30V47H39.7207V40Z" fill="#62C89E"/>
<circle cx="11.5" cy="33.54" r="1.5" fill="#22885E"/>
<path d="M5 37.4647L8.84986 34.0401L10.6963 36.1158L8 40.5401L5 37.4647Z" fill="#22885E"/>
<path d="M18.3316 38.4698L15.1229 34.3107L12.9663 35.9745L14.877 40.8807L18.3316 38.4698Z" fill="#22885E"/>
<path d="M39.7219 40.2924C37.2608 40.2924 35.2568 38.2898 35.2568 35.8272C35.2568 33.3647 37.2608 31.3621 39.7219 31.3621C42.1845 31.3621 44.187 33.3647 44.187 35.8272C44.187 38.2898 42.1845 40.2924 39.7219 40.2924ZM39.7219 33.3471C38.3551 33.3471 37.2432 34.4604 37.2432 35.8272C37.2432 37.194 38.3551 38.3059 39.7219 38.3059C41.0902 38.3059 42.202 37.194 42.202 35.8272C42.202 34.4604 41.0902 33.3471 39.7219 33.3471Z" fill="#0B2D1F"/>
<path d="M39.7219 33.3471C38.3551 33.3471 37.2432 34.4604 37.2432 35.8272C37.2432 37.194 38.3551 38.3059 39.7219 38.3059C41.0902 38.3059 42.202 37.194 42.202 35.8272C42.202 34.4604 41.0902 33.3471 39.7219 33.3471Z" fill="#22885E"/>
<path d="M30.4993 16.4159C28.4476 16.4159 26.7798 14.7451 26.7798 12.6935C26.7798 10.6418 28.4506 8.97401 30.4993 8.97401C32.5509 8.97401 34.2217 10.6433 34.2217 12.6935C34.2217 14.7451 32.5509 16.4159 30.4993 16.4159ZM30.4993 11.0106C29.572 11.0106 28.8179 11.7662 28.8179 12.6935C28.8179 13.6207 29.572 14.3748 30.4993 14.3748C31.4265 14.3748 32.1806 13.6207 32.1806 12.6935C32.1806 11.7662 31.4265 11.0106 30.4993 11.0106Z" fill="#0B2D1F"/>
<path d="M30.4993 11.0106C29.572 11.0106 28.8179 11.7662 28.8179 12.6935C28.8179 13.6207 29.572 14.3748 30.4993 14.3748C31.4265 14.3748 32.1806 13.6207 32.1806 12.6935C32.1806 11.7662 31.4265 11.0106 30.4993 11.0106Z" fill="#22885E"/>
<path d="M11.442 25.4086C9.8005 25.4086 8.46592 24.0726 8.46592 22.4311C8.46592 20.7896 9.8005 19.4551 11.442 19.4551C13.0834 19.4551 14.4194 20.7896 14.4194 22.4311C14.4194 24.0726 13.0834 25.4086 11.442 25.4086ZM11.442 21.3891C10.8667 21.3891 10.4 21.8559 10.4 22.4311C10.4 23.0063 10.8667 23.4731 11.442 23.4731C12.0172 23.4731 12.4839 23.0063 12.4839 22.4311C12.4839 21.8559 12.0172 21.3891 11.442 21.3891Z" fill="#0B2D1F"/>
<path d="M11.442 21.3891C10.8667 21.3891 10.4 21.8559 10.4 22.4311C10.4 23.0063 10.8667 23.4731 11.442 23.4731C12.0172 23.4731 12.4839 23.0063 12.4839 22.4311C12.4839 21.8559 12.0172 21.3891 11.442 21.3891Z" fill="#22885E"/>
<path fill-rule="evenodd" clip-rule="evenodd" d="M8.41621 33.2109L4.35996 36.2415C3.99914 36.5124 3.89341 37.0041 4.11677 37.3953L7.91926 44.1624C8.08051 44.4492 8.38317 44.6183 8.70038 44.6183C8.77439 44.6183 8.85105 44.6104 8.92507 44.5906C9.32025 44.4875 9.59384 44.132 9.59384 43.7249V38.0919L11.2975 36.5997C11.3285 36.6018 11.3585 36.606 11.3883 36.6102C11.4308 36.6162 11.4731 36.6221 11.5182 36.6221C11.5618 36.6221 11.6044 36.6162 11.6473 36.6102C11.6772 36.606 11.7072 36.6018 11.7376 36.5997L13.4426 38.0919V43.7249C13.4426 44.132 13.7162 44.4875 14.1114 44.5906C14.1854 44.6078 14.262 44.6183 14.336 44.6183C14.6533 44.6183 14.9559 44.4492 15.1172 44.1624L18.9197 37.3953C19.1404 37.0041 19.0346 36.5098 18.6738 36.2415L14.6202 33.2109C14.5541 32.4734 14.2409 31.8059 13.7519 31.3037V27.2117C14.7048 26.7333 15.4952 25.9852 16.0199 25.064L27.6877 20.7315L31.284 35.2819C31.2815 35.332 31.2784 35.3817 31.2752 35.4314C31.2684 35.5392 31.2616 35.6465 31.2616 35.7551C31.2616 36.5838 31.3871 37.3808 31.6092 38.1381H31.3356C29.8566 38.1381 28.6512 39.3435 28.6512 40.8225V45.455C27.4379 45.5039 26.3859 46.3735 26.1295 47.5697L24.6426 54.5072C24.5857 54.7715 24.6505 55.0478 24.8223 55.2579C24.9902 55.4681 25.2466 55.591 25.5175 55.591H39.7217V53.8014H26.6264L27.8807 47.945C27.9692 47.534 28.338 47.2366 28.7583 47.2392H39.7217V45.447H30.4421V40.8251C30.4421 40.3308 30.8439 39.929 31.3382 39.929H32.3771C33.8309 42.468 36.5615 44.1861 39.6899 44.1861C39.7005 44.1861 39.7111 44.1861 39.7217 44.1861V42.3912C39.7111 42.3913 39.7005 42.3913 39.6899 42.3913C36.0289 42.3913 33.0524 39.4149 33.0524 35.7551C33.0524 32.0954 36.0289 29.1189 39.6899 29.1189C43.3497 29.1189 46.3288 32.098 46.3261 35.7551C46.3261 36.2924 46.262 36.815 46.1409 37.3156H47.9687C48.065 36.8101 48.117 36.2894 48.117 35.7578C48.117 32.6452 46.4173 29.9304 43.9048 28.4713C42.0157 24.8678 38.6168 18.4467 36.7045 14.8338L36.6263 14.6861C36.8457 14.0279 36.9686 13.3301 36.9686 12.6005C36.9686 8.96058 34.008 6 30.3681 6C27.504 6 25.0655 7.83714 24.1562 10.3972L13.0329 17.3202C12.5082 17.1458 11.9451 17.048 11.3623 17.048C8.40036 17.048 5.99224 19.4574 5.99224 22.418C5.99224 24.6424 7.35094 26.5535 9.28324 27.3677V31.3037C8.7929 31.8059 8.4823 32.4734 8.41621 33.2109ZM11.5209 34.8339C10.7781 34.8339 10.1767 34.2299 10.1767 33.4897C10.1767 32.7509 10.7781 32.1469 11.5209 32.1469C12.2623 32.1469 12.865 32.7483 12.865 33.4897C12.865 34.2325 12.2623 34.8339 11.5209 34.8339ZM25.5585 12.5979C25.5585 9.94655 27.7168 7.78824 30.3681 7.78824C33.0194 7.78824 35.1777 9.94655 35.1777 12.5979C35.1777 15.2492 33.0194 17.4061 30.3681 17.4061C27.7168 17.4061 25.5585 15.2492 25.5585 12.5979ZM41.3738 27.4985C40.8279 27.3888 40.2649 27.3294 39.6899 27.3294C36.4796 27.3294 33.6882 29.1335 32.2647 31.7782L29.127 19.0781C29.5315 19.1547 29.9452 19.1984 30.3707 19.1984C32.5079 19.1984 34.4045 18.174 35.6125 16.5933C35.9744 17.2776 36.3723 18.0297 36.7915 18.822C38.2692 21.6149 40.0116 24.908 41.3738 27.4985ZM27.0943 18.3234L27.2582 18.9829L16.7032 22.9044C16.719 22.7431 16.7296 22.5792 16.7296 22.4153C16.7296 20.7698 15.9842 19.2988 14.8171 18.3128L23.7755 12.738C23.8231 15.1262 25.1474 17.2039 27.0943 18.3234ZM11.3596 18.8349C13.3355 18.8349 14.9401 20.4421 14.9401 22.4153C14.9401 24.3913 13.3329 25.9958 11.3596 25.9958C9.38369 25.9958 7.77916 24.3913 7.77916 22.4153C7.77916 20.4394 9.38634 18.8349 11.3596 18.8349ZM11.1686 27.7761C11.2321 27.7807 11.295 27.7853 11.3596 27.7853C11.5645 27.7853 11.7667 27.7721 11.9663 27.7497V30.4036C11.8169 30.3798 11.6715 30.3573 11.5182 30.3573C11.386 30.3573 11.2587 30.376 11.1312 30.3947C11.1109 30.3977 11.0905 30.4007 11.0702 30.4036V27.7695C11.1033 27.7713 11.1361 27.7737 11.1686 27.7761ZM15.2348 37.6848C15.2348 37.4284 15.1211 37.1825 14.9268 37.012L13.5787 35.8291C13.814 35.6216 14.0188 35.3837 14.1827 35.1154L16.9768 37.2037L15.2348 40.3057V37.6848ZM7.80163 37.6848V40.3083L6.05833 37.2063L8.85369 35.1181C9.01758 35.3864 9.22244 35.6243 9.4577 35.8318L8.10959 37.012C7.91133 37.1812 7.80163 37.4257 7.80163 37.6848Z" fill="#0B2D1F"/>
<path d="M66.0064 39.804H43.2063C43.0751 39.804 42.9454 39.8166 42.817 39.8424C42.6886 39.8682 42.5637 39.9059 42.4423 39.9561C42.3216 40.0056 42.2065 40.0677 42.0977 40.1403C41.9888 40.2129 41.8877 40.2959 41.7956 40.3887C41.7028 40.4808 41.6198 40.5819 41.5472 40.6908C41.4747 40.7996 41.4133 40.9147 41.363 41.0354C41.3128 41.1568 41.2751 41.2817 41.2493 41.4101C41.2235 41.5384 41.2109 41.6682 41.2109 41.7994V57.5585C41.2109 57.6897 41.2235 57.8195 41.2493 57.9478C41.2751 58.0762 41.3128 58.2011 41.363 58.3218C41.4133 58.4432 41.4747 58.5583 41.5472 58.6671C41.6198 58.776 41.7028 58.8764 41.7956 58.9692C41.8877 59.062 41.9888 59.1443 42.0977 59.2176C42.2065 59.2902 42.3216 59.3516 42.4423 59.4018C42.5637 59.452 42.6886 59.4897 42.817 59.5155C42.9454 59.5406 43.0751 59.5539 43.2063 59.5539H51.2045L46.9298 66.5949H50.6519L54.6064 60.082L58.5608 66.5949H62.2829L58.0082 59.5539H66.0064C66.1376 59.5539 66.2673 59.5406 66.3957 59.5155C66.5241 59.4897 66.649 59.452 66.7704 59.4018C66.8911 59.3516 67.0062 59.2902 67.115 59.2176C67.2239 59.1443 67.325 59.062 67.4171 58.9692C67.5099 58.8764 67.5929 58.776 67.6655 58.6671C67.7381 58.5583 67.7994 58.4432 67.8497 58.3218C67.8999 58.2011 67.9376 58.0762 67.9634 57.9478C67.9892 57.8195 68.0018 57.6897 68.0018 57.5585V41.7994C68.0018 41.6682 67.9892 41.5384 67.9634 41.4101C67.9376 41.2817 67.8999 41.1568 67.8497 41.0354C67.7994 40.9147 67.7381 40.7996 67.6655 40.6908C67.5929 40.5819 67.5099 40.4808 67.4171 40.3887C67.325 40.2959 67.2239 40.2129 67.115 40.1403C67.0062 40.0677 66.8911 40.0056 66.7704 39.9561C66.649 39.9059 66.5241 39.8682 66.3957 39.8424C66.2673 39.8166 66.1376 39.804 66.0064 39.804ZM50.0107 65.4548H48.9559L52.5384 59.5539H53.5933L50.0107 65.4548ZM60.2569 65.4548H59.202L55.6194 59.5539H56.6743L60.2569 65.4548ZM66.8618 57.5585C66.8618 57.615 66.8562 57.6702 66.845 57.7253C66.8346 57.7804 66.8178 57.8341 66.7969 57.8857C66.7753 57.9374 66.7487 57.9869 66.7174 58.0336C66.6867 58.0804 66.6511 58.1236 66.6113 58.1634C66.5715 58.2032 66.5283 58.2381 66.4815 58.2695C66.4348 58.3009 66.386 58.3274 66.3336 58.3483C66.282 58.3699 66.2283 58.386 66.1739 58.3971C66.1187 58.4083 66.0629 58.4139 66.0064 58.4139H43.2063C43.1498 58.4139 43.094 58.4083 43.0389 58.3971C42.9844 58.386 42.9307 58.3699 42.8791 58.3483C42.8268 58.3274 42.7779 58.3009 42.7312 58.2695C42.6844 58.2381 42.6412 58.2032 42.6014 58.1634C42.5616 58.1236 42.5261 58.0804 42.4954 58.0336C42.464 57.9869 42.4375 57.9374 42.4158 57.8857C42.3949 57.8341 42.3782 57.7804 42.3677 57.7253C42.3565 57.6702 42.3509 57.615 42.3509 57.5585V41.7994C42.3509 41.7429 42.3565 41.687 42.3677 41.6319C42.3782 41.5775 42.3949 41.5238 42.4158 41.4722C42.4375 41.4198 42.464 41.371 42.4954 41.3243C42.5261 41.2775 42.5616 41.2343 42.6014 41.1945C42.6412 41.1547 42.6844 41.1191 42.7312 41.0884C42.7779 41.057 42.8268 41.0305 42.8791 41.0089C42.9307 40.988 42.9844 40.9712 43.0389 40.9608C43.094 40.9496 43.1498 40.944 43.2063 40.944H66.0064C66.0629 40.944 66.1187 40.9496 66.1739 40.9608C66.2283 40.9712 66.282 40.988 66.3336 41.0089C66.386 41.0305 66.4348 41.057 66.4815 41.0884C66.5283 41.1191 66.5715 41.1547 66.6113 41.1945C66.6511 41.2343 66.6867 41.2775 66.7174 41.3243C66.7487 41.371 66.7753 41.4198 66.7969 41.4722C66.8178 41.5238 66.8346 41.5775 66.845 41.6319C66.8562 41.687 66.8618 41.7429 66.8618 41.7994V57.5585Z" fill="#0B2D1F"/>
<path d="M50.0107 65.4548H48.9559L52.5384 59.5539H53.5933L50.0107 65.4548Z" fill="#22885E"/>
<path d="M60.2569 65.4548H59.202L55.6194 59.5539H56.6743L60.2569 65.4548Z" fill="#22885E"/>
<path d="M66.8618 57.5585C66.8618 57.615 66.8562 57.6702 66.845 57.7253C66.8346 57.7804 66.8178 57.8341 66.7969 57.8857C66.7753 57.9374 66.7487 57.9869 66.7174 58.0336C66.6867 58.0804 66.6511 58.1236 66.6113 58.1634C66.5715 58.2032 66.5283 58.2381 66.4815 58.2695C66.4348 58.3009 66.386 58.3274 66.3336 58.3483C66.282 58.3699 66.2283 58.386 66.1739 58.3971C66.1187 58.4083 66.0629 58.4139 66.0064 58.4139H43.2063C43.1498 58.4139 43.094 58.4083 43.0389 58.3971C42.9844 58.386 42.9307 58.3699 42.8791 58.3483C42.8268 58.3274 42.7779 58.3009 42.7312 58.2695C42.6844 58.2381 42.6412 58.2032 42.6014 58.1634C42.5616 58.1236 42.5261 58.0804 42.4954 58.0336C42.464 57.9869 42.4375 57.9374 42.4158 57.8857C42.3949 57.8341 42.3782 57.7804 42.3677 57.7253C42.3565 57.6702 42.3509 57.615 42.3509 57.5585V41.7994C42.3509 41.7429 42.3565 41.687 42.3677 41.6319C42.3782 41.5775 42.3949 41.5238 42.4158 41.4722C42.4375 41.4198 42.464 41.371 42.4954 41.3243C42.5261 41.2775 42.5616 41.2343 42.6014 41.1945C42.6412 41.1547 42.6844 41.1191 42.7312 41.0884C42.7779 41.057 42.8268 41.0305 42.8791 41.0089C42.9307 40.988 42.9844 40.9712 43.0389 40.9608C43.094 40.9496 43.1498 40.944 43.2063 40.944H66.0064C66.0629 40.944 66.1187 40.9496 66.1739 40.9608C66.2283 40.9712 66.282 40.988 66.3336 41.0089C66.386 41.0305 66.4348 41.057 66.4815 41.0884C66.5283 41.1191 66.5715 41.1547 66.6113 41.1945C66.6511 41.2343 66.6867 41.2775 66.7174 41.3243C66.7487 41.371 66.7753 41.4198 66.7969 41.4722C66.8178 41.5238 66.8346 41.5775 66.845 41.6319C66.8562 41.687 66.8618 41.7429 66.8618 41.7994V57.5585Z" fill="#62C89E"/>
<path d="M45.7241 44.4641C45.7241 44.3564 45.8114 44.269 45.9191 44.269H63.39C63.4977 44.269 63.5851 44.3564 63.5851 44.4641V45.3498C63.5851 45.4575 63.4977 45.5448 63.39 45.5448H45.9191C45.8114 45.5448 45.7241 45.4575 45.7241 45.3498V44.4641Z" fill="#0B2D1F"/>
<path d="M45.6775 47.4409C45.6775 47.3331 45.7649 47.2458 45.8726 47.2458H63.3435C63.4512 47.2458 63.5386 47.3331 63.5386 47.4409V48.3265C63.5386 48.4343 63.4512 48.5216 63.3435 48.5216H45.8726C45.7649 48.5216 45.6775 48.4343 45.6775 48.3265V47.4409Z" fill="#0B2D1F"/>
<path d="M45.7223 50.4176C45.7223 50.3099 45.8096 50.2226 45.9173 50.2226H63.3883C63.496 50.2226 63.5833 50.3099 63.5833 50.4176V51.3033C63.5833 51.411 63.496 51.4984 63.3883 51.4984H45.9173C45.8096 51.4984 45.7223 51.411 45.7223 51.3033V50.4176Z" fill="#0B2D1F"/>
<path d="M45.6758 53.3944C45.6758 53.2867 45.7631 53.1993 45.8708 53.1993H63.3417C63.4495 53.1993 63.5368 53.2867 63.5368 53.3944V54.2801C63.5368 54.3878 63.4495 54.4751 63.3417 54.4751H45.8708C45.7631 54.4751 45.6758 54.3878 45.6758 54.2801V53.3944Z" fill="#0B2D1F"/>
</svg>
