<svg width="72" height="72" viewBox="0 0 72 72" fill="none" xmlns="http://www.w3.org/2000/svg">
<rect x="8.20898" y="15.2632" width="48" height="12.6316" fill="#62C89E"/>
<path d="M26.4277 46.8988C26.658 47.1291 26.9222 47.3061 27.2228 47.4297C27.5234 47.5534 27.8337 47.6164 28.1586 47.6164C28.4834 47.6164 28.7961 47.5534 29.0967 47.4297C29.3973 47.3061 29.6616 47.1291 29.8919 46.8988L39.6905 37.1002C39.9135 36.8699 40.0856 36.6057 40.2044 36.3051C40.3232 36.0069 40.3814 35.699 40.3789 35.3766C40.3741 35.0566 40.3111 34.7463 40.1874 34.4506C40.0638 34.1548 39.8868 33.893 39.6614 33.6651C39.4335 33.4397 39.1717 33.2627 38.8759 33.1391C38.5802 33.0155 38.2699 32.9524 37.9499 32.9476C37.6275 32.9452 37.3196 33.0033 37.0214 33.1221C36.7233 33.2409 36.4566 33.413 36.2263 33.6361L28.1586 41.7038L24.9926 38.5354C24.7623 38.3123 24.4956 38.1426 24.1974 38.0214C23.8993 37.9026 23.5914 37.8445 23.269 37.8493C22.949 37.8517 22.6387 37.9148 22.3429 38.0384C22.0472 38.162 21.7854 38.339 21.5575 38.5644C21.332 38.7923 21.1551 39.0541 21.0314 39.3499C20.9078 39.6456 20.8448 39.9559 20.8399 40.2759C20.8375 40.5983 20.8957 40.9062 21.0145 41.2068C21.1332 41.505 21.3054 41.7692 21.5284 41.9995L26.4277 46.8988Z" fill="#0B2D1F"/>
<path d="M66.8158 52.1579C66.8158 59.7009 60.7009 65.8158 53.1579 65.8158C45.6148 65.8158 39.5 59.7009 39.5 52.1579C39.5 44.6148 45.6148 38.5 53.1579 38.5C60.7009 38.5 66.8158 44.6148 66.8158 52.1579Z" fill="#22885E" stroke="#0B2D1F" stroke-width="3"/>
<path d="M60.7908 52.8158C60.7908 52.2369 60.3171 51.7632 59.7382 51.7632C59.1592 51.7632 58.6855 52.2369 58.6855 52.8158C58.6855 53.3948 59.1592 53.8684 59.7382 53.8684C60.3171 53.8684 60.7908 53.3948 60.7908 52.8158ZM59.2119 52.8158C59.2119 52.5263 59.4487 52.2895 59.7382 52.2895C60.0277 52.2895 60.2645 52.5263 60.2645 52.8158C60.2645 53.1053 60.0277 53.3421 59.7382 53.3421C59.4487 53.3421 59.2119 53.1053 59.2119 52.8158Z" fill="#0B2D1F"/>
<path d="M59.2119 52.8158C59.2119 52.5263 59.4487 52.2895 59.7382 52.2895C60.0277 52.2895 60.2645 52.5263 60.2645 52.8158C60.2645 53.1053 60.0277 53.3421 59.7382 53.3421C59.4487 53.3421 59.2119 53.1053 59.2119 52.8158Z" fill="#62C89E"/>
<path d="M57.4646 52.7999C57.4646 52.221 56.991 51.7473 56.412 51.7473C55.8331 51.7473 55.3594 52.221 55.3594 52.7999C55.3594 53.3789 55.8331 53.8526 56.412 53.8526C56.991 53.8526 57.4646 53.3789 57.4646 52.7999ZM55.8857 52.7999C55.8857 52.5105 56.1225 52.2736 56.412 52.2736C56.7015 52.2736 56.9383 52.5105 56.9383 52.7999C56.9383 53.0894 56.7015 53.3263 56.412 53.3263C56.1225 53.3263 55.8857 53.0894 55.8857 52.7999Z" fill="#0B2D1F"/>
<path d="M55.8857 52.7999C55.8857 52.5105 56.1225 52.2736 56.412 52.2736C56.7015 52.2736 56.9383 52.5105 56.9383 52.7999C56.9383 53.0894 56.7015 53.3263 56.412 53.3263C56.1225 53.3263 55.8857 53.0894 55.8857 52.7999Z" fill="#62C89E"/>
<path d="M54.1814 52.7999C54.1814 52.221 53.7078 51.7473 53.1288 51.7473C52.5499 51.7473 52.0762 52.221 52.0762 52.7999C52.0762 53.3789 52.5499 53.8526 53.1288 53.8526C53.7078 53.8526 54.1814 53.3789 54.1814 52.7999ZM52.6025 52.7999C52.6025 52.5105 52.8393 52.2736 53.1288 52.2736C53.4183 52.2736 53.6551 52.5105 53.6551 52.7999C53.6551 53.0894 53.4183 53.3263 53.1288 53.3263C52.8393 53.3263 52.6025 53.0894 52.6025 52.7999Z" fill="#0B2D1F"/>
<path d="M52.6025 52.7999C52.6025 52.5105 52.8393 52.2736 53.1288 52.2736C53.4183 52.2736 53.6551 52.5105 53.6551 52.7999C53.6551 53.0894 53.4183 53.3263 53.1288 53.3263C52.8393 53.3263 52.6025 53.0894 52.6025 52.7999Z" fill="#62C89E"/>
<path d="M50.8963 52.7999C50.8963 52.221 50.4226 51.7473 49.8436 51.7473C49.2647 51.7473 48.791 52.221 48.791 52.7999C48.791 53.3789 49.2647 53.8526 49.8436 53.8526C50.4226 53.8526 50.8963 53.3789 50.8963 52.7999ZM49.3173 52.7999C49.3173 52.5105 49.5542 52.2736 49.8436 52.2736C50.1331 52.2736 50.37 52.5105 50.37 52.7999C50.37 53.0894 50.1331 53.3263 49.8436 53.3263C49.5542 53.3263 49.3173 53.0894 49.3173 52.7999Z" fill="#0B2D1F"/>
<path d="M49.3173 52.7999C49.3173 52.5105 49.5542 52.2736 49.8436 52.2736C50.1331 52.2736 50.37 52.5105 50.37 52.7999C50.37 53.0894 50.1331 53.3263 49.8436 53.3263C49.5542 53.3263 49.3173 53.0894 49.3173 52.7999Z" fill="#62C89E"/>
<path d="M47.6111 52.7999C47.6111 52.221 47.1374 51.7473 46.5585 51.7473C45.9795 51.7473 45.5059 52.221 45.5059 52.7999C45.5059 53.3789 45.9795 53.8526 46.5585 53.8526C47.1374 53.8526 47.6111 53.3789 47.6111 52.7999ZM46.0322 52.7999C46.0322 52.5105 46.269 52.2736 46.5585 52.2736C46.848 52.2736 47.0848 52.5105 47.0848 52.7999C47.0848 53.0894 46.848 53.3263 46.5585 53.3263C46.269 53.3263 46.0322 53.0894 46.0322 52.7999Z" fill="#0B2D1F"/>
<path d="M46.0322 52.7999C46.0322 52.5105 46.269 52.2736 46.5585 52.2736C46.848 52.2736 47.0848 52.5105 47.0848 52.7999C47.0848 53.0894 46.848 53.3263 46.5585 53.3263C46.269 53.3263 46.0322 53.0894 46.0322 52.7999Z" fill="#62C89E"/>
<path d="M59.7368 50.7105H58.6842V49.2632C58.6842 48.9737 58.4474 48.7368 58.1579 48.7368H55C54.7105 48.7368 54.4737 48.9737 54.4737 49.2632V50.7105H53.9474V49.2632C53.9474 48.9737 53.7105 48.7368 53.4211 48.7368H52.5V47.6053C52.6579 47.5132 52.7632 47.3421 52.7632 47.1579V46.3684C53.0526 46.3684 53.2895 46.1316 53.2895 45.8421V44.5263C53.2895 44.2368 53.0526 44 52.7632 44H50.6579C50.5263 44 50.4079 44.0526 50.3158 44.1316H46.3158C46.0263 44.1316 45.7895 44.3684 45.7895 44.6579V48.8816C45.5658 48.9342 45.3947 49.1447 45.3947 49.3947V50.7105H45.2632C45.1184 50.7105 45 50.8289 45 50.9737C45 51.1184 45.1184 51.2368 45.2632 51.2368H59.7368C60.6053 51.2368 61.3158 51.9474 61.3158 52.8158C61.3158 53.6842 60.6053 54.3947 59.7368 54.3947H45.2632C45.1184 54.3947 45 54.5132 45 54.6579C45 54.8026 45.1184 54.9211 45.2632 54.9211H45.9211V58.4737C45.9211 58.6184 46.0395 58.7368 46.1842 58.7368C46.3289 58.7368 46.4474 58.6184 46.4474 58.4737V57.4211H59.6053V58.4737C59.6053 58.6184 59.7237 58.7368 59.8684 58.7368C60.0132 58.7368 60.1316 58.6184 60.1316 58.4737V54.8816C61.1053 54.6974 61.8421 53.8421 61.8421 52.8158C61.8421 51.6579 60.8947 50.7105 59.7368 50.7105ZM50.6579 44.5263H52.7632V45.8421H50.6579V44.5263ZM51.1842 47.1579V46.3684H52.2368V47.1579H51.1842ZM51.9737 47.6842V48.7368H51.4474V47.6842H51.9737ZM46.3158 44.6579H50.1316V45.7105H47.3684V48.8684H46.3158V44.6579ZM47.7632 50.7105H45.9211V49.3947H47.7632V50.7105ZM49.7368 49.2632V50.7105H48.2895V49.3947C48.2895 49.1447 48.1184 48.9474 47.8947 48.8816V46.2368H50.3158C50.4079 46.3158 50.5263 46.3684 50.6579 46.3684V47.1579C50.6579 47.3553 50.7632 47.5263 50.9211 47.6053V48.7368H50.2632C49.9737 48.7368 49.7368 48.9737 49.7368 49.2632ZM53.4211 50.7105H50.2632V49.2632H53.4211V50.7105ZM58.1579 50.7105H55V49.2632H58.1579V50.7105ZM59.6053 56.8947H46.4474V54.9211H59.6053V56.8947Z" fill="#0B2D1F"/>
<path d="M59.6053 56.8947H46.4474V54.9211H59.6053V56.8947Z" fill="#62C89E"/>
<path d="M50.6579 44.5263H52.7632V45.8421H50.6579V44.5263Z" fill="#62C89E"/>
<path d="M53.4211 50.7105H50.2632V49.2632H53.4211V50.7105Z" fill="#62C89E"/>
<path d="M58.1579 50.7105H55V49.2632H58.1579V50.7105Z" fill="#62C89E"/>
<path d="M47.7632 50.7105H45.9211V49.3947H47.7632V50.7105Z" fill="#62C89E"/>
<path fill-rule="evenodd" clip-rule="evenodd" d="M45.6453 10.8993H50.2367C50.7385 10.8993 51.2379 10.9478 51.73 11.0472C52.2221 11.1441 52.7021 11.2896 53.1651 11.4835C53.6306 11.675 54.0694 11.9126 54.4887 12.1914C54.9057 12.4702 55.2936 12.7877 55.6475 13.1417C56.0039 13.498 56.3214 13.8859 56.6002 14.3029C56.879 14.7198 57.1166 15.161 57.3081 15.6265C57.502 16.0895 57.6475 16.5671 57.7444 17.0616C57.8438 17.5537 57.8947 18.0507 57.8947 18.5549V35.7941C56.8043 35.5838 55.6782 35.4737 54.5263 35.4737C54.0106 35.4737 53.5 35.4958 52.9954 35.539V30.4965H8.8993V52.2367C8.8993 52.4185 8.91869 52.5979 8.95263 52.7749C8.989 52.9518 9.04233 53.1239 9.11021 53.2912C9.18051 53.4585 9.26536 53.6185 9.36717 53.7688C9.46656 53.9191 9.5805 54.0573 9.70898 54.1857C9.83747 54.3142 9.97564 54.4282 10.1284 54.5276C10.2787 54.6294 10.4362 54.7142 10.6035 54.7821C10.7708 54.8524 10.9429 54.9057 11.1199 54.9397C11.2993 54.976 11.4762 54.993 11.658 54.993H36.9362C37.1133 56.711 37.5364 58.356 38.1696 59.8923H11.658C11.1562 59.8923 10.6568 59.8438 10.1647 59.7444C9.67262 59.6475 9.19263 59.502 8.72961 59.3081C8.26416 59.1166 7.82538 58.879 7.406 58.6002C6.98903 58.3214 6.60116 58.0039 6.24723 57.6499C5.89087 57.2936 5.5733 56.9057 5.29452 56.4887C5.01574 56.0718 4.77817 55.6306 4.58666 55.1651C4.39272 54.7021 4.24727 54.2245 4.1503 53.73C4.05091 53.2379 4 52.7409 4 52.2367V18.5549C4 18.0507 4.05091 17.5537 4.1503 17.0616C4.24727 16.5671 4.39272 16.0895 4.58666 15.6265C4.77817 15.161 5.01574 14.7198 5.29452 14.3029C5.5733 13.8859 5.89087 13.498 6.24723 13.1417C6.60116 12.7877 6.98903 12.4702 7.406 12.1914C7.82538 11.9126 8.26416 11.675 8.72961 11.4835C9.19263 11.2896 9.67262 11.1441 10.1647 11.0472C10.6568 10.9478 11.1562 10.8993 11.658 10.8993H16.2495V8.44844C16.2495 8.1236 16.3101 7.81087 16.4361 7.51027C16.5598 7.2121 16.7367 6.94544 16.967 6.71756C17.1973 6.48726 17.4616 6.3103 17.7622 6.18666C18.0603 6.0606 18.3731 6 18.6979 6C19.0227 6 19.3355 6.0606 19.6361 6.18666C19.9367 6.3103 20.2009 6.48726 20.4312 6.71756C20.6615 6.94544 20.8385 7.2121 20.9621 7.51027C21.0857 7.81087 21.1488 8.1236 21.1488 8.44844V10.8993H28.4965V8.44844C28.4965 8.1236 28.5595 7.81087 28.6832 7.51027C28.8092 7.2121 28.9862 6.94544 29.2141 6.71756C29.4444 6.48726 29.7086 6.3103 30.0092 6.18666C30.3098 6.0606 30.6225 6 30.9474 6C31.2722 6 31.5849 6.0606 31.8855 6.18666C32.1861 6.3103 32.4504 6.48726 32.6807 6.71756C32.9085 6.94544 33.0855 7.2121 33.2116 7.51027C33.3352 7.81087 33.3982 8.1236 33.3982 8.44844V10.8993H40.746V8.44844C40.746 8.1236 40.809 7.81087 40.9326 7.51027C41.0563 7.2121 41.2332 6.94544 41.4635 6.71756C41.6938 6.48726 41.9581 6.3103 42.2587 6.18666C42.5593 6.0606 42.872 6 43.1968 6C43.5217 6 43.8344 6.0606 44.1326 6.18666C44.4332 6.3103 44.6974 6.48726 44.9277 6.71756C45.158 6.94544 45.335 7.2121 45.4586 7.51027C45.5847 7.81087 45.6453 8.1236 45.6453 8.44844V10.8993ZM8.8993 18.5549V25.5972H52.9954V18.5549C52.9954 18.3731 52.976 18.1937 52.9421 18.0167C52.9057 17.8398 52.8524 17.6677 52.7845 17.5004C52.7142 17.3331 52.6294 17.1731 52.5276 17.0228C52.4282 16.8725 52.3142 16.7343 52.1858 16.6059C52.0573 16.4774 51.9191 16.3634 51.7664 16.264C51.6161 16.1622 51.4585 16.0774 51.2912 16.0095C51.124 15.9392 50.9518 15.8859 50.7749 15.8519C50.5955 15.8156 50.4185 15.7986 50.2367 15.7986H45.6453V18.247C45.6453 18.5719 45.5847 18.8846 45.4586 19.1852C45.335 19.4858 45.158 19.75 44.9277 19.9803C44.6974 20.2106 44.4332 20.3876 44.1326 20.5112C43.8344 20.6349 43.5217 20.6979 43.1968 20.6979C42.872 20.6979 42.5593 20.6349 42.2587 20.5112C41.9581 20.3876 41.6938 20.2106 41.4635 19.9803C41.2332 19.75 41.0563 19.4858 40.9326 19.1852C40.809 18.8846 40.746 18.5719 40.746 18.247V15.7986H33.3982V18.247C33.3982 18.5719 33.3352 18.8846 33.2116 19.1852C33.0855 19.4858 32.9085 19.75 32.6807 19.9803C32.4504 20.2106 32.1861 20.3876 31.8855 20.5112C31.5849 20.6349 31.2722 20.6979 30.9474 20.6979C30.6225 20.6979 30.3098 20.6349 30.0092 20.5112C29.7086 20.3876 29.4444 20.2106 29.2141 19.9803C28.9862 19.75 28.8092 19.4858 28.6832 19.1852C28.5595 18.8846 28.4965 18.5719 28.4965 18.247V15.7986H21.1488V18.247C21.1488 18.5719 21.0857 18.8846 20.9621 19.1852C20.8385 19.4858 20.6615 19.75 20.4312 19.9803C20.2009 20.2106 19.9367 20.3876 19.6361 20.5112C19.3355 20.6349 19.0227 20.6979 18.6979 20.6979C18.3731 20.6979 18.0603 20.6349 17.7622 20.5112C17.4616 20.3876 17.1973 20.2106 16.967 19.9803C16.7367 19.75 16.5598 19.4858 16.4361 19.1852C16.3101 18.8846 16.2495 18.5719 16.2495 18.247V15.7986H11.658C11.4762 15.7986 11.2993 15.8156 11.1199 15.8519C10.9429 15.8859 10.7708 15.9392 10.6035 16.0095C10.4362 16.0774 10.2787 16.1622 10.1284 16.264C9.97564 16.3634 9.83747 16.4774 9.70898 16.6059C9.5805 16.7343 9.46656 16.8725 9.36717 17.0228C9.26536 17.1731 9.18051 17.3331 9.11021 17.5004C9.04233 17.6677 8.989 17.8398 8.95263 18.0167C8.91869 18.1937 8.8993 18.3731 8.8993 18.5549Z" fill="#0B2D1F"/>
</svg>
