<svg version="1.1" id="Layer_1" xmlns="http://www.w3.org/2000/svg" xmlns:xlink="http://www.w3.org/1999/xlink" x="0px" y="0px"
	 width="100%" viewBox="0 0 246 285" enable-background="new 0 0 246 285" xml:space="preserve">
<path fill="#FFFFFE" opacity="1.000000" stroke="none" 
	d="
M130.000000,286.000000 
	C86.666664,286.000000 43.833332,286.000000 1.000000,286.000000 
	C1.000000,191.000000 1.000000,96.000000 1.000000,1.000000 
	C83.000000,1.000000 165.000000,1.000000 247.000000,1.000000 
	C247.000000,96.000000 247.000000,191.000000 247.000000,286.000000 
	C208.166672,286.000000 169.333328,286.000000 130.000000,286.000000 
M109.499893,268.693573 
	C132.985535,268.693726 156.471191,268.689117 179.956833,268.695404 
	C200.210892,268.700836 212.733780,256.486786 212.787735,236.108994 
	C212.912109,189.138199 212.841629,142.166824 212.814026,95.195724 
	C212.808929,86.525970 210.074890,78.846329 203.877914,72.619629 
	C192.366821,61.053329 180.848923,49.493164 169.248611,38.016598 
	C163.174683,32.007465 155.705505,29.095886 147.188660,29.082762 
	C119.539062,29.040152 91.889091,28.994537 64.239777,29.093513 
	C46.218060,29.158026 33.055958,42.448250 33.048958,60.419537 
	C33.025990,119.383278 33.023560,178.347061 33.051800,237.310791 
	C33.060680,255.855057 45.989010,268.689911 64.526917,268.695099 
	C79.184570,268.699188 93.842232,268.694366 109.499893,268.693573 
z"/>
<path fill="#1C3355" opacity="1.000000" stroke="none" 
	d="
M108.999893,268.693542 
	C93.842232,268.694366 79.184570,268.699188 64.526917,268.695099 
	C45.989010,268.689911 33.060680,255.855057 33.051800,237.310791 
	C33.023560,178.347061 33.025990,119.383278 33.048958,60.419537 
	C33.055958,42.448250 46.218060,29.158026 64.239777,29.093513 
	C91.889091,28.994537 119.539062,29.040152 147.188660,29.082762 
	C155.705505,29.095886 163.174683,32.007465 169.248611,38.016598 
	C180.848923,49.493164 192.366821,61.053329 203.877914,72.619629 
	C210.074890,78.846329 212.808929,86.525970 212.814026,95.195724 
	C212.841629,142.166824 212.912109,189.138199 212.787735,236.108994 
	C212.733780,256.486786 200.210892,268.700836 179.956833,268.695404 
	C156.471191,268.689117 132.985535,268.693726 108.999893,268.693542 
M55.083252,92.499992 
	C55.083397,140.153000 55.081303,187.806015 55.085655,235.459030 
	C55.086483,244.557388 57.185368,246.675507 66.213455,246.676895 
	C103.869339,246.682693 141.525223,246.681778 179.181107,246.671402 
	C180.843399,246.670944 182.534546,246.727371 184.162216,246.456573 
	C188.145615,245.793839 190.237610,243.542465 190.229294,239.280075 
	C190.144440,195.794800 190.120529,152.309418 190.079819,108.824059 
	C190.078339,107.231453 190.079620,105.638847 190.079620,103.750618 
	C177.166306,103.750618 165.018890,103.827980 152.873001,103.724991 
	C143.908737,103.648994 138.250900,97.885536 138.212463,88.967850 
	C138.166489,78.304436 138.217194,67.640633 138.188889,56.977100 
	C138.184250,55.227760 137.988647,53.478920 137.896561,51.978317 
	C137.014740,51.648315 136.709351,51.434364 136.403580,51.433800 
	C112.246140,51.388920 88.088287,51.276909 63.931477,51.389507 
	C57.794422,51.418110 55.123566,54.614578 55.095612,61.008770 
	C55.051178,71.172325 55.083439,81.336227 55.083252,92.499992 
z"/>
<path fill="#FCFCFC" opacity="1.000000" stroke="none" 
	d="
M55.083256,91.999985 
	C55.083439,81.336227 55.051178,71.172325 55.095612,61.008770 
	C55.123566,54.614578 57.794422,51.418110 63.931477,51.389507 
	C88.088287,51.276909 112.246140,51.388920 136.403580,51.433800 
	C136.709351,51.434364 137.014740,51.648315 137.896561,51.978317 
	C137.988647,53.478920 138.184250,55.227760 138.188889,56.977100 
	C138.217194,67.640633 138.166489,78.304436 138.212463,88.967850 
	C138.250900,97.885536 143.908737,103.648994 152.873001,103.724991 
	C165.018890,103.827980 177.166306,103.750618 190.079620,103.750618 
	C190.079620,105.638847 190.078339,107.231453 190.079819,108.824059 
	C190.120529,152.309418 190.144440,195.794800 190.229294,239.280075 
	C190.237610,243.542465 188.145615,245.793839 184.162216,246.456573 
	C182.534546,246.727371 180.843399,246.670944 179.181107,246.671402 
	C141.525223,246.681778 103.869339,246.682693 66.213455,246.676895 
	C57.185368,246.675507 55.086483,244.557388 55.085655,235.459030 
	C55.081303,187.806015 55.083397,140.153000 55.083256,91.999985 
M74.849274,167.478546 
	C66.752777,186.333481 70.820778,206.555176 85.416069,220.005341 
	C98.786278,232.326538 120.491287,234.769943 137.096313,225.823135 
	C151.269592,218.186554 161.623062,200.319290 159.430420,186.685547 
	C157.892227,186.685547 156.261383,186.685547 154.630524,186.685532 
	C143.313599,186.685425 131.990219,186.463974 120.682899,186.793503 
	C116.118248,186.926529 115.100136,185.381531 115.204056,181.098389 
	C115.486549,169.455490 115.195152,157.799683 115.362694,146.152328 
	C115.413795,142.599838 114.333183,141.422653 110.739861,141.929428 
	C94.637115,144.200470 82.529617,152.066696 74.849274,167.478546 
M144.504410,171.315033 
	C154.596497,171.315033 164.688583,171.315033 174.728271,171.315033 
	C175.927917,147.261444 153.307449,125.082825 130.940613,127.454475 
	C130.940613,141.881485 130.940613,156.301147 130.940613,171.315109 
	C135.282242,171.315109 139.393875,171.315109 144.504410,171.315033 
z"/>
<path fill="#1A3254" opacity="1.000000" stroke="none" 
	d="
M75.009880,167.133728 
	C82.529617,152.066696 94.637115,144.200470 110.739861,141.929428 
	C114.333183,141.422653 115.413795,142.599838 115.362694,146.152328 
	C115.195152,157.799683 115.486549,169.455490 115.204056,181.098389 
	C115.100136,185.381531 116.118248,186.926529 120.682899,186.793503 
	C131.990219,186.463974 143.313599,186.685425 154.630524,186.685532 
	C156.261383,186.685547 157.892227,186.685547 159.430420,186.685547 
	C161.623062,200.319290 151.269592,218.186554 137.096313,225.823135 
	C120.491287,234.769943 98.786278,232.326538 85.416069,220.005341 
	C70.820778,206.555176 66.752777,186.333481 75.009880,167.133728 
z"/>
<path fill="#1A3255" opacity="1.000000" stroke="none" 
	d="
M144.004974,171.315063 
	C139.393875,171.315109 135.282242,171.315109 130.940613,171.315109 
	C130.940613,156.301147 130.940613,141.881485 130.940613,127.454475 
	C153.307449,125.082825 175.927917,147.261444 174.728271,171.315033 
	C164.688583,171.315033 154.596497,171.315033 144.004974,171.315063 
z"/>
</svg>