<svg width="72" height="72" viewBox="0 0 72 72" fill="none" xmlns="http://www.w3.org/2000/svg">
<path d="M39.5 5H24L18 9.5V13.5L44.5 13L44 8L39.5 5Z" fill="#FFCDCD"/>
<path d="M64 55.5C64 61.8513 58.6274 67 52 67C45.3726 67 40 61.8513 40 55.5C40 49.1487 45.3726 44 52 44C58.6274 44 64 49.1487 64 55.5Z" fill="#990000"/>
<path fill-rule="evenodd" clip-rule="evenodd" d="M17.8098 9L8 9.31676L9.44756 63.7878L39.2336 65.6927C36.5823 62.823 34.9476 58.8926 34.9476 54.5572C34.9476 45.77 41.6633 38.6466 49.9476 38.6466C51.0116 38.6466 52.0497 38.7641 53.051 38.9875L52.8636 9.31672L44.8775 9.64001V12.2228L31.4397 12.2228L19.4397 11.2228L17.8098 9Z" fill="#E60000"/>
<path fill-rule="evenodd" clip-rule="evenodd" d="M24.887 3.07675C22.9495 3.40174 20.9246 4.37671 19.5871 5.62668L18.6622 6.48916H14.9123C10.8249 6.48916 10.2624 6.55165 9.08742 7.13914C7.67495 7.85162 6.48749 9.38908 6.15 10.964C5.95 11.9015 5.95 61.5751 6.15 62.5126C6.34999 63.4376 6.92497 64.5376 7.58746 65.2375C8.23744 65.925 9.5249 66.65 10.4874 66.85C11.0981 66.9803 28.2565 67.0257 40.4011 66.9862C39.1803 65.9059 38.1257 64.6419 37.2807 63.2376H31.3868H11.2374L10.7624 62.9751C10.4999 62.8251 10.1749 62.5001 10.0249 62.2376L9.7624 61.7626V36.7383V11.714L10.0374 11.2265C10.5374 10.339 10.9249 10.2391 13.9623 10.2391H16.5997L16.4247 11.0765C16.3247 11.5515 16.2622 12.3765 16.2872 12.9515C16.3247 14.0514 16.5247 14.4139 17.2872 14.8139C17.7872 15.0764 44.9864 15.0764 45.4864 14.8139C46.2489 14.4139 46.4489 14.0514 46.4864 12.9515C46.5114 12.3765 46.4489 11.5515 46.3489 11.0765L46.1739 10.2391H48.8113C51.8362 10.2391 52.2362 10.339 52.7362 11.2265L53.0112 11.714V36.7383V39.1252C54.3208 39.2894 55.5811 39.6119 56.7724 40.0729C56.782 26.4087 56.7324 11.4741 56.6236 10.964C56.1736 8.85159 54.3862 7.06414 52.2862 6.62665C51.8862 6.53915 50.1363 6.48916 47.8614 6.48916H44.099L43.2615 5.68918C42.3115 4.8017 41.3615 4.18922 40.0866 3.68923C38.4491 3.02675 37.8991 2.98925 31.2868 3.00175C27.9369 3.01425 25.062 3.05175 24.887 3.07675ZM37.8741 6.92664C38.3116 7.03914 39.0241 7.30163 39.4366 7.51413C40.6865 8.17661 42.0865 9.76407 42.449 10.9515L42.524 11.239H31.3868H20.2496L20.3246 10.9515C20.5371 10.2891 21.1246 9.37658 21.8371 8.6516C22.662 7.81412 23.962 7.07664 25.0245 6.87664C25.3245 6.81415 28.1619 6.76415 31.3243 6.75165C36.0492 6.73915 37.2116 6.77665 37.8741 6.92664Z" fill="#4D0000"/>
<path d="M37.2994 22.0898C36.4619 22.3523 35.8619 23.3648 36.0244 24.2523C36.1744 25.0398 36.9244 25.7147 37.6619 25.7147C37.8369 25.7147 37.9744 25.7522 37.9744 25.8147C37.9744 25.8647 36.9869 26.8897 35.7869 28.0897L33.5995 30.2771L30.5621 27.2397C27.2747 23.9648 27.0872 23.8273 26.1372 24.0773C25.7497 24.1898 24.9497 24.9273 21.8873 27.9897C18.6624 31.2271 18.1124 31.8396 18.0374 32.2396C17.8124 33.4645 18.6249 34.4645 19.8499 34.4645C20.1374 34.4645 20.4874 34.402 20.6374 34.327C20.7874 34.252 22.1873 32.9146 23.7623 31.3646L26.5997 28.5272L29.5746 31.4896C31.1996 33.1145 32.662 34.502 32.812 34.577C33.162 34.752 34.037 34.752 34.387 34.577C34.537 34.502 36.0119 33.0895 37.6744 31.4396L40.6868 28.4397L40.7618 28.9397C41.0493 30.6771 43.4492 31.0396 44.2617 29.4646C44.4617 29.0772 44.4742 28.7022 44.4492 26.1272C44.4117 22.9398 44.3992 22.9273 43.5492 22.2898C43.2242 22.0398 43.0242 22.0273 40.4368 22.0023C38.9119 21.9899 37.4994 22.0273 37.2994 22.0898Z" fill="#4D0000"/>
<path d="M18.8362 41.2875C17.6988 42.05 17.7238 43.5499 18.8987 44.4249C19.2362 44.6874 19.3612 44.6874 27.411 44.6874C35.4608 44.6874 35.5858 44.6874 35.9233 44.4249C37.0982 43.5499 37.1232 42.05 35.9858 41.2875L35.5608 41H27.411H19.2612L18.8362 41.2875Z" fill="#4D0000"/>
<path d="M18.8953 51.2027C18.34 51.5 18 52.1757 18 53C18 53.7568 18.204 54.2162 18.782 54.7162C19.088 55 19.2013 55 26.5 55C33.7987 55 33.912 55 34.218 54.7162C34.796 54.2162 35 53.7568 35 53C35 52.1622 34.66 51.4865 34.082 51.2027C33.538 50.9324 19.4167 50.9324 18.8953 51.2027Z" fill="#4D0000"/>
<path d="M45.9455 52.689C45.9455 52.689 45.9261 52.7086 45.9195 52.7215C45.9195 52.7346 45.9195 52.7412 45.9064 52.7543C45.3324 53.7585 45 54.9128 45 56.1453C45 59.2952 47.1389 61.9495 50.0411 62.7452C50.054 62.7452 50.0606 62.7583 50.0737 62.7583C50.0933 62.7583 50.1128 62.7583 50.1324 62.7649C50.6802 62.9081 51.2542 62.9931 51.8476 62.9931C55.6234 62.9931 58.6952 59.9214 58.6952 56.1453C58.6952 55.9627 58.5517 55.8192 58.3691 55.8192H53.1519C52.9693 55.8192 52.8258 55.9627 52.8258 56.1453C52.8258 56.6867 52.3888 57.1236 51.8476 57.1236C51.3061 57.1236 50.8693 56.6867 50.8693 56.1453C50.8693 55.6041 51.3061 55.1671 51.8476 55.1671C52.0302 55.1671 52.1737 55.0238 52.1737 54.8412V49.6238C52.1737 49.4412 52.0302 49.2977 51.8476 49.2977C49.3302 49.2977 47.1389 50.6674 45.9455 52.689ZM53.4452 56.4714H58.0364C57.8669 59.7388 55.1539 62.3409 51.8476 62.3409C51.404 62.3409 50.9737 62.2953 50.5629 62.204L51.7497 57.7626C51.7823 57.7626 51.815 57.7692 51.8476 57.7692C52.6367 57.7692 53.2954 57.2083 53.4452 56.4648M51.1172 57.5931L49.9302 62.0277C47.4521 61.2192 45.652 58.8844 45.652 56.139C45.652 55.128 45.8998 54.1759 46.3303 53.328L50.3019 55.6237C50.2497 55.7867 50.2172 55.9562 50.2172 56.139C50.2172 56.778 50.5889 57.3258 51.1172 57.5931ZM51.5215 49.9565V54.5476C51.1692 54.6193 50.8628 54.8084 50.628 55.0694L46.6499 52.7737C47.6998 51.1629 49.4802 50.0674 51.5149 49.963" fill="#4D0000"/>
<path fill-rule="evenodd" clip-rule="evenodd" d="M45.9447 52.689C47.1381 50.6674 49.3294 49.2978 51.8467 49.2978C52.0293 49.2978 52.1728 49.4412 52.1728 49.6238V54.8412C52.1728 55.0238 52.0293 55.1671 51.8467 55.1671C51.3053 55.1671 50.8685 55.6041 50.8685 56.1453C50.8685 56.6868 51.3053 57.1236 51.8467 57.1236C52.388 57.1236 52.825 56.6868 52.825 56.1453C52.825 55.9627 52.9685 55.8192 53.1511 55.8192H58.3682C58.5508 55.8192 58.6943 55.9627 58.6943 56.1453C58.6943 59.9214 55.6226 62.9931 51.8467 62.9931C51.2533 62.9931 50.6793 62.9082 50.1316 62.7649C50.1119 62.7583 50.0925 62.7583 50.0728 62.7583C50.0662 62.7583 50.0613 62.755 50.0564 62.7517C50.0515 62.7485 50.0467 62.7452 50.0403 62.7452C47.1381 61.9496 44.9992 59.2952 44.9992 56.1453C44.9992 54.9128 45.3316 53.7586 45.9056 52.7543C45.9187 52.7412 45.9187 52.7346 45.9187 52.7215C45.9252 52.7087 45.9447 52.689 45.9447 52.689ZM45.7457 52.6801L45.7645 52.6431C45.7783 52.616 45.7975 52.5939 45.8034 52.5871C45.8039 52.5865 45.8046 52.5858 45.8051 52.5852C47.0299 50.5226 49.2713 49.1248 51.8467 49.1248C52.1249 49.1248 52.3458 49.3457 52.3458 49.6238V54.8412C52.3458 55.1195 52.1247 55.3401 51.8467 55.3401C51.4009 55.3401 51.0415 55.6996 51.0415 56.1453C51.0415 56.5912 51.4009 56.9506 51.8467 56.9506C52.2924 56.9506 52.652 56.5912 52.652 56.1453C52.652 55.8672 52.873 55.6462 53.1511 55.6462H58.3682C58.6464 55.6462 58.8673 55.8672 58.8673 56.1453C58.8673 60.017 55.7182 63.1661 51.8467 63.1661C51.2367 63.1661 50.648 63.0788 50.0878 62.9323L50.0846 62.9314L50.0728 62.9313C50.039 62.9313 50.0113 62.9225 49.9915 62.9133C49.988 62.9117 49.9848 62.9101 49.9819 62.9086C47.0132 62.0887 44.8262 59.371 44.8262 56.1453C44.8262 54.8882 45.1635 53.7105 45.7457 52.6855V52.6801ZM53.4444 56.4649C53.2946 57.2083 52.6359 57.7692 51.8467 57.7692C51.8305 57.7692 51.8142 57.7676 51.7978 57.7659C51.7815 57.7643 51.7652 57.7627 51.7489 57.7627L50.5621 62.204C50.5621 62.204 50.5621 62.204 50.5621 62.204C50.6183 62.2165 50.6749 62.2282 50.7318 62.2389C51.0909 62.307 51.4639 62.341 51.8467 62.341C55.0945 62.341 57.7698 59.8302 58.0242 56.6444C58.0288 56.587 58.0326 56.5293 58.0356 56.4714H53.4444V56.4649ZM53.5783 56.6444C53.3635 57.3837 52.6862 57.9273 51.8801 57.9419L50.7766 62.0713C51.1207 62.1357 51.4786 62.168 51.8467 62.168C54.999 62.168 57.5967 59.7344 57.8506 56.6444H53.5783ZM51.3477 49.9738C49.4433 50.123 47.7763 51.1412 46.7457 52.6298C46.7129 52.6773 46.6806 52.7253 46.649 52.7737L50.6271 55.0694C50.8619 54.8084 51.1684 54.6193 51.5207 54.5477V49.9565L51.5141 49.963C51.4584 49.9659 51.403 49.9695 51.3477 49.9738ZM51.3477 50.1474C49.5078 50.2957 47.8965 51.2789 46.8961 52.7166L50.5967 54.8521C50.8063 54.6503 51.0606 54.4958 51.3477 54.4123V50.1474ZM50.9144 57.6786C50.3978 57.3644 50.0433 56.796 50.0433 56.139C50.0433 55.9862 50.0638 55.8427 50.0978 55.7061L46.4034 53.5706C46.0342 54.3534 45.8241 55.2214 45.8241 56.139C45.8241 58.7428 47.4905 60.9676 49.8102 61.804L50.9144 57.6786ZM51.1164 57.5932C50.5881 57.3258 50.2163 56.7781 50.2163 56.139C50.2163 55.9562 50.2489 55.7867 50.3011 55.6238L46.3295 53.3281C46.3034 53.3796 46.2779 53.4315 46.2531 53.4837C45.8698 54.2918 45.6511 55.1894 45.6511 56.139C45.6511 58.8234 47.3722 61.1153 49.7653 61.9717C49.8196 61.9911 49.8743 62.0098 49.9293 62.0278L51.1164 57.5932Z" fill="#4D0000"/>
<path d="M52.8262 48.3195V53.5369C52.8262 53.7195 52.9697 53.863 53.1523 53.863C53.6935 53.863 54.1305 54.2998 54.1305 54.8412C54.1305 55.0238 54.2738 55.1671 54.4566 55.1671H59.6738C59.8563 55.1671 59.9998 55.0238 59.9998 54.8412C59.9998 53.4913 59.6084 52.1869 58.865 51.0652C58.7674 50.9151 58.5586 50.876 58.4151 50.9739C58.265 51.0717 58.2259 51.2737 58.3238 51.4238C58.9368 52.3498 59.2824 53.4063 59.3411 54.5152H54.7499C54.6195 53.8759 54.1174 53.3738 53.4783 53.2434V48.6522C54.5999 48.7109 55.6825 49.0696 56.6151 49.7021C56.7652 49.8065 56.9672 49.7674 57.0651 49.6173C57.1629 49.4673 57.1304 49.2652 56.9803 49.1674C55.8457 48.4043 54.5282 48 53.1523 48C52.9697 48 52.8262 48.1435 52.8262 48.3261" fill="#4D0000"/>
<path fill-rule="evenodd" clip-rule="evenodd" d="M58.3229 51.4238C58.2251 51.2738 58.2642 51.0717 58.4142 50.9739C58.5577 50.876 58.7665 50.9151 58.8641 51.0652C59.6076 52.1869 59.999 53.4913 59.999 54.8413C59.999 55.0239 59.8555 55.1671 59.6729 55.1671H54.4558C54.273 55.1671 54.1297 55.0239 54.1297 54.8413C54.1297 54.2998 53.6926 53.863 53.1514 53.863C52.9688 53.863 52.8253 53.7195 52.8253 53.5369V48.3261C52.8253 48.3239 52.8254 48.3217 52.8254 48.3196C52.8288 48.1401 52.971 48 53.1514 48C54.5274 48 55.8449 48.4043 56.9795 49.1674C57.1295 49.2653 57.1621 49.4673 57.0642 49.6173C56.9664 49.7674 56.7644 49.8065 56.6143 49.7021C55.7297 49.1022 54.7102 48.7486 53.6505 48.6637C53.593 48.659 53.5353 48.6552 53.4775 48.6522V53.2434C54.1166 53.3738 54.6187 53.8759 54.7491 54.5152H59.3403C59.3372 54.4574 59.3334 54.3997 59.3288 54.3422C59.2448 53.2965 58.904 52.3016 58.3229 51.4238ZM59.1552 54.3422C59.0716 53.3304 58.7409 52.3685 58.1787 51.5193L58.178 51.5183C58.0301 51.2915 58.0866 50.9821 58.3182 50.83C58.541 50.6793 58.858 50.7392 59.0088 50.9702C59.7708 52.1203 60.172 53.4577 60.172 54.8413C60.172 55.1196 59.9509 55.3401 59.6729 55.3401H54.4558C54.1775 55.3401 53.9567 55.1195 53.9567 54.8413C53.9567 54.3954 53.5971 54.036 53.1514 54.036C52.8733 54.036 52.6523 53.8151 52.6523 53.5369V48.3196C52.6558 48.0445 52.8755 47.827 53.1514 47.827C54.5615 47.827 55.9122 48.2414 57.0751 49.0232C57.3122 49.1787 57.3536 49.4903 57.2091 49.7118C57.0573 49.9446 56.7452 50.0032 56.5164 49.8448C55.661 49.2648 54.6755 48.9218 53.6505 48.8372V53.1079C54.2455 53.2793 54.7132 53.7471 54.8846 54.3422H59.1552Z" fill="#4D0000"/>
<path fill-rule="evenodd" clip-rule="evenodd" d="M65.864 55.5C65.864 62.8805 59.8809 68.8636 52.5004 68.8636C45.1198 68.8636 39.1367 62.8805 39.1367 55.5C39.1367 48.1195 45.1198 42.1364 52.5004 42.1364C59.8809 42.1364 65.864 48.1195 65.864 55.5ZM52.5004 66C58.2993 66 63.0004 61.299 63.0004 55.5C63.0004 49.701 58.2993 45 52.5004 45C46.7014 45 42.0004 49.701 42.0004 55.5C42.0004 61.299 46.7014 66 52.5004 66Z" fill="#4D0000"/>
</svg>
