<svg version="1.1" id="Layer_1" xmlns="http://www.w3.org/2000/svg" xmlns:xlink="http://www.w3.org/1999/xlink" x="0px" y="0px"
	 width="100%" viewBox="0 0 326 282" enable-background="new 0 0 326 282" xml:space="preserve">
<path fill="#FFFFFF" opacity="1.000000" stroke="none" 
	d="
M229.000000,283.000000 
	C152.666687,283.000000 76.833359,283.000000 1.000031,283.000000 
	C1.000020,189.000031 1.000020,95.000061 1.000010,1.000068 
	C109.666618,1.000046 218.333237,1.000046 326.999878,1.000023 
	C326.999939,94.999931 326.999939,188.999863 326.999969,282.999878 
	C294.500000,283.000000 262.000000,283.000000 229.000000,283.000000 
M131.908218,38.114258 
	C117.915222,38.099613 103.921997,38.029945 89.929321,38.089264 
	C80.269485,38.130211 74.713249,43.404129 74.081978,52.987293 
	C73.928970,55.310081 74.021675,57.649834 74.021446,59.981785 
	C74.018745,87.135391 73.984543,114.289070 74.037857,141.442581 
	C74.058464,151.939362 79.492294,157.677872 89.334892,157.682434 
	C139.144257,157.705551 188.953659,157.707016 238.763000,157.670883 
	C247.658066,157.664429 253.741333,151.883698 253.769165,143.148392 
	C253.864655,113.163124 253.857605,83.177208 253.771927,53.191872 
	C253.746811,44.401203 247.810532,38.219612 239.124222,38.128925 
	C224.469101,37.975918 209.810333,38.175560 194.205933,38.097801 
	C173.742722,38.140446 153.279495,38.183090 131.908218,38.114258 
M82.500000,277.931519 
	C144.493759,277.931854 206.487534,277.938293 268.481293,277.929871 
	C298.627075,277.925781 319.744202,250.748657 312.344757,221.507721 
	C307.204285,201.193710 289.820129,187.975555 267.691620,187.952026 
	C198.365234,187.878342 129.038712,187.901489 59.712345,187.978607 
	C55.750076,187.983017 51.681900,188.370682 47.844761,189.316956 
	C27.344425,194.372543 12.818440,212.840591 13.899072,236.158981 
	C14.803411,255.673248 30.082901,273.957153 50.115540,276.897461 
	C60.405922,278.407867 71.027878,277.659180 82.500000,277.931519 
z"/>
<path fill="#A3ADBA" opacity="1.000000" stroke="none" 
	d="
M82.000000,277.931458 
	C71.027878,277.659180 60.405922,278.407867 50.115540,276.897461 
	C30.082901,273.957153 14.803411,255.673248 13.899072,236.158981 
	C12.818440,212.840591 27.344425,194.372543 47.844761,189.316956 
	C51.681900,188.370682 55.750076,187.983017 59.712345,187.978607 
	C129.038712,187.901489 198.365234,187.878342 267.691620,187.952026 
	C289.820129,187.975555 307.204285,201.193710 312.344757,221.507721 
	C319.744202,250.748657 298.627075,277.925781 268.481293,277.929871 
	C206.487534,277.938293 144.493759,277.931854 82.000000,277.931458 
M178.030090,229.986053 
	C177.102615,223.332031 172.944748,219.848602 166.691132,218.394226 
	C159.381149,216.694138 151.627457,220.750305 149.371902,227.478027 
	C146.713547,235.407272 149.685486,243.051331 156.729050,246.401169 
	C168.045517,251.783112 178.132065,244.435898 178.030090,229.986053 
M264.951538,243.400482 
	C265.912384,241.672836 267.108459,240.033035 267.792023,238.201874 
	C270.325012,231.416412 268.096832,224.277435 262.486908,220.641281 
	C256.492340,216.755814 248.564835,217.264420 243.574142,221.854630 
	C238.564453,226.462326 237.428940,234.439316 240.748154,240.613602 
	C244.693924,247.953384 256.511017,251.174301 264.951538,243.400482 
M87.263443,226.696671 
	C83.103455,218.540756 74.154503,215.675278 66.212990,219.956238 
	C59.181633,223.746567 56.750637,234.153412 61.204151,241.398575 
	C65.372223,248.179382 75.233307,250.086044 82.395851,245.382614 
	C89.186943,240.923141 88.483025,234.193863 87.263443,226.696671 
z"/>
<path fill="#1A3355" opacity="1.000000" stroke="none" 
	d="
M195.153091,38.226902 
	C209.810333,38.175560 224.469101,37.975918 239.124222,38.128925 
	C247.810532,38.219612 253.746811,44.401203 253.771927,53.191872 
	C253.857605,83.177208 253.864655,113.163124 253.769165,143.148392 
	C253.741333,151.883698 247.658066,157.664429 238.763000,157.670883 
	C188.953659,157.707016 139.144257,157.705551 89.334892,157.682434 
	C79.492294,157.677872 74.058464,151.939362 74.037857,141.442581 
	C73.984543,114.289070 74.018745,87.135391 74.021446,59.981785 
	C74.021675,57.649834 73.928970,55.310081 74.081978,52.987293 
	C74.713249,43.404129 80.269485,38.130211 89.929321,38.089264 
	C103.921997,38.029945 117.915222,38.099613 132.518829,38.542229 
	C133.323624,40.592949 133.682297,42.215275 133.686508,43.838524 
	C133.728439,59.996117 133.702682,76.153877 133.725021,92.311546 
	C133.727432,94.052269 133.913086,95.792740 134.060730,98.346130 
	C143.100479,93.841286 151.456589,89.830162 159.651154,85.512428 
	C162.611740,83.952492 165.083908,83.815300 168.049377,85.399620 
	C174.647430,88.924652 181.370316,92.219048 188.085464,95.519676 
	C189.784302,96.354683 191.645203,96.859917 194.125488,97.771767 
	C194.125488,95.123749 194.125504,93.320305 194.125488,91.516869 
	C194.125336,75.858894 194.086731,60.200706 194.170654,44.543179 
	C194.181946,42.436058 194.810410,40.332245 195.153091,38.226902 
z"/>
<path fill="#A3ADB9" opacity="1.000000" stroke="none" 
	d="
M194.679504,38.162354 
	C194.810410,40.332245 194.181946,42.436058 194.170654,44.543179 
	C194.086731,60.200706 194.125336,75.858894 194.125488,91.516869 
	C194.125504,93.320305 194.125488,95.123749 194.125488,97.771767 
	C191.645203,96.859917 189.784302,96.354683 188.085464,95.519676 
	C181.370316,92.219048 174.647430,88.924652 168.049377,85.399620 
	C165.083908,83.815300 162.611740,83.952492 159.651154,85.512428 
	C151.456589,89.830162 143.100479,93.841286 134.060730,98.346130 
	C133.913086,95.792740 133.727432,94.052269 133.725021,92.311546 
	C133.702682,76.153877 133.728439,59.996117 133.686508,43.838524 
	C133.682297,42.215275 133.323624,40.592949 132.972870,38.597965 
	C153.279495,38.183090 173.742722,38.140446 194.679504,38.162354 
z"/>
<path fill="#FDFEFE" opacity="1.000000" stroke="none" 
	d="
M178.050751,230.420547 
	C178.132065,244.435898 168.045517,251.783112 156.729050,246.401169 
	C149.685486,243.051331 146.713547,235.407272 149.371902,227.478027 
	C151.627457,220.750305 159.381149,216.694138 166.691132,218.394226 
	C172.944748,219.848602 177.102615,223.332031 178.050751,230.420547 
z"/>
<path fill="#FDFDFE" opacity="1.000000" stroke="none" 
	d="
M264.685242,243.661682 
	C256.511017,251.174301 244.693924,247.953384 240.748154,240.613602 
	C237.428940,234.439316 238.564453,226.462326 243.574142,221.854630 
	C248.564835,217.264420 256.492340,216.755814 262.486908,220.641281 
	C268.096832,224.277435 270.325012,231.416412 267.792023,238.201874 
	C267.108459,240.033035 265.912384,241.672836 264.685242,243.661682 
z"/>
<path fill="#FDFDFE" opacity="1.000000" stroke="none" 
	d="
M87.427979,227.076355 
	C88.483025,234.193863 89.186943,240.923141 82.395851,245.382614 
	C75.233307,250.086044 65.372223,248.179382 61.204151,241.398575 
	C56.750637,234.153412 59.181633,223.746567 66.212990,219.956238 
	C74.154503,215.675278 83.103455,218.540756 87.427979,227.076355 
z"/>
</svg>