<svg version="1.1" id="Layer_1" xmlns="http://www.w3.org/2000/svg" xmlns:xlink="http://www.w3.org/1999/xlink" x="0px" y="0px"
	 width="100%" viewBox="0 0 275 282" enable-background="new 0 0 275 282" xml:space="preserve">
<path fill="#FFFFFE" opacity="1.000000" stroke="none" 
	d="
M151.000000,283.000000 
	C100.666664,283.000000 50.833332,283.000000 1.000000,283.000000 
	C1.000000,189.000000 1.000000,95.000000 1.000000,1.000000 
	C92.666664,1.000000 184.333328,1.000000 276.000000,1.000000 
	C276.000000,95.000000 276.000000,189.000000 276.000000,283.000000 
	C234.500000,283.000000 193.000000,283.000000 151.000000,283.000000 
M243.843750,193.500031 
	C243.843735,170.836426 243.720459,148.171585 243.948730,125.510277 
	C243.993835,121.030418 242.683029,119.992142 238.320862,120.001503 
	C171.829987,120.144142 105.338722,120.100861 38.847549,120.100983 
	C37.394299,120.100983 35.941048,120.100983 34.047714,120.100983 
	C34.047714,121.988052 34.047718,123.442062 34.047714,124.896080 
	C34.047668,165.057419 34.033451,205.218750 34.054893,245.380081 
	C34.062931,260.433105 43.342964,269.686218 58.353855,269.687286 
	C111.846756,269.691101 165.339645,269.688110 218.832550,269.686554 
	C234.759430,269.686096 243.818039,260.577026 243.838715,244.493393 
	C243.860123,227.828949 243.843658,211.164490 243.843750,193.500031 
M230.136658,62.087822 
	C224.563080,61.410748 219.002441,60.582779 213.411957,60.102707 
	C208.642914,59.693176 202.094193,61.474274 199.545380,58.990097 
	C197.028763,56.537304 198.793854,49.918526 198.198441,45.188049 
	C197.797714,42.004402 197.233078,38.491093 195.554886,35.891434 
	C192.056992,30.472845 185.403046,28.920668 178.613876,31.049463 
	C173.057159,32.791813 169.310257,37.961231 169.166321,44.377468 
	C169.052139,49.467022 169.143326,54.561180 169.143326,60.056835 
	C166.787613,60.056835 165.150070,60.056847 163.512543,60.056839 
	C148.679993,60.056767 133.847458,60.056648 119.014915,60.056622 
	C108.605362,60.056602 108.725876,60.054520 108.540108,49.569202 
	C108.473274,45.796524 108.338608,41.791061 107.059731,38.325497 
	C104.814606,32.241520 97.882660,29.084196 91.459740,30.347122 
	C83.855812,31.842270 79.496414,36.740463 79.213638,44.477741 
	C79.028076,49.555199 79.178581,54.644936 79.178581,60.059231 
	C71.669479,60.059231 65.018936,59.863270 58.384342,60.105145 
	C48.423176,60.468300 39.960659,63.820847 36.046860,73.850250 
	C32.171318,83.781609 34.679897,94.128395 34.002968,104.759537 
	C36.790592,104.759537 38.759129,104.759537 40.727665,104.759537 
	C81.725479,104.759537 122.723289,104.759605 163.721100,104.759529 
	C188.719757,104.759476 213.718811,104.691048 238.716675,104.831169 
	C242.546356,104.852631 244.186417,103.913521 243.926651,99.797142 
	C243.601898,94.651245 243.973801,89.465591 243.821503,84.303696 
	C243.536667,74.650421 239.984711,66.843575 230.136658,62.087822 
z"/>
<path fill="#193254" opacity="1.000000" stroke="none" 
	d="
M243.843750,194.000031 
	C243.843658,211.164490 243.860123,227.828949 243.838715,244.493393 
	C243.818039,260.577026 234.759430,269.686096 218.832550,269.686554 
	C165.339645,269.688110 111.846756,269.691101 58.353855,269.687286 
	C43.342964,269.686218 34.062931,260.433105 34.054893,245.380081 
	C34.033451,205.218750 34.047668,165.057419 34.047714,124.896080 
	C34.047718,123.442062 34.047714,121.988052 34.047714,120.100983 
	C35.941048,120.100983 37.394299,120.100983 38.847549,120.100983 
	C105.338722,120.100861 171.829987,120.144142 238.320862,120.001503 
	C242.683029,119.992142 243.993835,121.030418 243.948730,125.510277 
	C243.720459,148.171585 243.843735,170.836426 243.843750,194.000031 
z"/>
<path fill="#1C3355" opacity="1.000000" stroke="none" 
	d="
M230.494400,62.235542 
	C239.984711,66.843575 243.536667,74.650421 243.821503,84.303696 
	C243.973801,89.465591 243.601898,94.651245 243.926651,99.797142 
	C244.186417,103.913521 242.546356,104.852631 238.716675,104.831169 
	C213.718811,104.691048 188.719757,104.759476 163.721100,104.759529 
	C122.723289,104.759605 81.725479,104.759537 40.727665,104.759537 
	C38.759129,104.759537 36.790592,104.759537 34.002968,104.759537 
	C34.679897,94.128395 32.171318,83.781609 36.046860,73.850250 
	C39.960659,63.820847 48.423176,60.468300 58.384342,60.105145 
	C65.018936,59.863270 71.669479,60.059231 79.178581,60.059231 
	C79.178581,54.644936 79.028076,49.555199 79.213638,44.477741 
	C79.496414,36.740463 83.855812,31.842270 91.459740,30.347122 
	C97.882660,29.084196 104.814606,32.241520 107.059731,38.325497 
	C108.338608,41.791061 108.473274,45.796524 108.540108,49.569202 
	C108.725876,60.054520 108.605362,60.056602 119.014915,60.056622 
	C133.847458,60.056648 148.679993,60.056767 163.512543,60.056839 
	C165.150070,60.056847 166.787613,60.056835 169.143326,60.056835 
	C169.143326,54.561180 169.052139,49.467022 169.166321,44.377468 
	C169.310257,37.961231 173.057159,32.791813 178.613876,31.049463 
	C185.403046,28.920668 192.056992,30.472845 195.554886,35.891434 
	C197.233078,38.491093 197.797714,42.004402 198.198441,45.188049 
	C198.793854,49.918526 197.028763,56.537304 199.545380,58.990097 
	C202.094193,61.474274 208.642914,59.693176 213.411957,60.102707 
	C219.002441,60.582779 224.563080,61.410748 230.494400,62.235542 
z"/>
</svg>