<svg version="1.1" id="Layer_1" xmlns="http://www.w3.org/2000/svg" xmlns:xlink="http://www.w3.org/1999/xlink" x="0px" y="0px"
	 width="100%" viewBox="0 0 280 249" enable-background="new 0 0 280 249" xml:space="preserve">
<path fill="#FFFFFE" opacity="1.000000" stroke="none" 
	d="
M139.000000,250.000000 
	C92.666672,250.000000 46.833344,250.000000 1.000012,250.000000 
	C1.000008,167.000015 1.000008,84.000031 1.000004,1.000035 
	C94.333305,1.000023 187.666611,1.000023 280.999939,1.000012 
	C280.999939,83.999962 280.999939,166.999924 280.999969,249.999939 
	C233.833328,250.000000 186.666672,250.000000 139.000000,250.000000 
M160.499985,235.875778 
	C168.164337,235.875778 175.828690,235.875595 183.493042,235.875839 
	C205.320023,235.876511 227.148026,235.976059 248.972717,235.752808 
	C251.692078,235.725006 255.065323,234.655777 256.887085,232.826065 
	C258.291809,231.415176 258.519440,227.830780 257.883087,225.610397 
	C256.766663,221.715057 253.186111,221.045593 249.398682,221.048294 
	C186.250412,221.093185 123.100090,220.807663 59.955200,221.272095 
	C44.109215,221.388626 33.479473,210.954590 33.614994,195.128098 
	C34.062954,142.813812 33.785538,90.493309 33.780945,38.175194 
	C33.780796,36.509941 33.866814,34.826111 33.659248,33.182949 
	C33.045601,28.325125 30.281576,26.145590 25.454901,26.550068 
	C21.061481,26.918238 19.040644,29.648241 19.038755,35.525890 
	C19.021246,90.010040 18.874958,144.495224 19.243841,198.976883 
	C19.284857,205.034561 21.304857,211.591064 24.133034,217.016510 
	C31.127686,230.434753 43.356728,235.794449 58.029583,235.839157 
	C91.852768,235.942200 125.676476,235.874313 160.499985,235.875778 
M219.250763,105.751457 
	C226.435455,98.566513 233.728592,91.485756 240.766769,84.160042 
	C245.465363,79.269463 243.760971,72.336594 237.561829,71.677711 
	C235.136078,71.419891 231.848801,73.196259 229.942871,75.058395 
	C210.760757,93.799706 191.785400,112.752625 172.747253,131.641357 
	C171.595474,132.784103 170.404388,133.887207 168.936722,135.290726 
	C167.404388,133.865341 166.057816,132.678665 164.784485,131.417984 
	C153.301025,120.048531 141.846481,108.649826 130.348343,97.295250 
	C125.499008,92.506462 122.364632,92.481361 117.566986,97.250893 
	C106.340553,108.411545 95.166580,119.624962 83.976730,130.822372 
	C78.205086,136.597916 72.379616,142.321793 66.705528,148.191833 
	C63.590488,151.414413 63.584202,155.574799 66.360924,158.458939 
	C69.141655,161.347260 73.253380,161.344086 76.674614,158.395966 
	C77.681923,157.527939 78.581184,156.533920 79.523323,155.591003 
	C92.359184,142.744507 105.187805,129.890778 118.035988,117.056633 
	C119.772232,115.322281 121.605209,113.684769 123.473335,111.927193 
	C124.640091,112.896957 125.583870,113.577759 126.407562,114.381615 
	C138.087143,125.779831 149.763779,137.181137 161.412338,148.611038 
	C167.725311,154.805481 170.150909,154.839615 176.345978,148.652756 
	C190.489853,134.527679 204.632370,120.401260 219.250763,105.751457 
z"/>
<path fill="#203657" opacity="1.000000" stroke="none" 
	d="
M159.999969,235.875778 
	C125.676476,235.874313 91.852768,235.942200 58.029583,235.839157 
	C43.356728,235.794449 31.127686,230.434753 24.133034,217.016510 
	C21.304857,211.591064 19.284857,205.034561 19.243841,198.976883 
	C18.874958,144.495224 19.021246,90.010040 19.038755,35.525890 
	C19.040644,29.648241 21.061481,26.918238 25.454901,26.550068 
	C30.281576,26.145590 33.045601,28.325125 33.659248,33.182949 
	C33.866814,34.826111 33.780796,36.509941 33.780945,38.175194 
	C33.785538,90.493309 34.062954,142.813812 33.614994,195.128098 
	C33.479473,210.954590 44.109215,221.388626 59.955200,221.272095 
	C123.100090,220.807663 186.250412,221.093185 249.398682,221.048294 
	C253.186111,221.045593 256.766663,221.715057 257.883087,225.610397 
	C258.519440,227.830780 258.291809,231.415176 256.887085,232.826065 
	C255.065323,234.655777 251.692078,235.725006 248.972717,235.752808 
	C227.148026,235.976059 205.320023,235.876511 183.493042,235.875839 
	C175.828690,235.875595 168.164337,235.875778 159.999969,235.875778 
z"/>
<path fill="#203758" opacity="1.000000" stroke="none" 
	d="
M219.013107,106.013420 
	C204.632370,120.401260 190.489853,134.527679 176.345978,148.652756 
	C170.150909,154.839615 167.725311,154.805481 161.412338,148.611038 
	C149.763779,137.181137 138.087143,125.779831 126.407562,114.381615 
	C125.583870,113.577759 124.640091,112.896957 123.473335,111.927193 
	C121.605209,113.684769 119.772232,115.322281 118.035988,117.056633 
	C105.187805,129.890778 92.359184,142.744507 79.523323,155.591003 
	C78.581184,156.533920 77.681923,157.527939 76.674614,158.395966 
	C73.253380,161.344086 69.141655,161.347260 66.360924,158.458939 
	C63.584202,155.574799 63.590488,151.414413 66.705528,148.191833 
	C72.379616,142.321793 78.205086,136.597916 83.976730,130.822372 
	C95.166580,119.624962 106.340553,108.411545 117.566986,97.250893 
	C122.364632,92.481361 125.499008,92.506462 130.348343,97.295250 
	C141.846481,108.649826 153.301025,120.048531 164.784485,131.417984 
	C166.057816,132.678665 167.404388,133.865341 168.936722,135.290726 
	C170.404388,133.887207 171.595474,132.784103 172.747253,131.641357 
	C191.785400,112.752625 210.760757,93.799706 229.942871,75.058395 
	C231.848801,73.196259 235.136078,71.419891 237.561829,71.677711 
	C243.760971,72.336594 245.465363,79.269463 240.766769,84.160042 
	C233.728592,91.485756 226.435455,98.566513 219.013107,106.013420 
z"/>
</svg>