<svg width="72" height="72" viewBox="0 0 72 72" fill="none" xmlns="http://www.w3.org/2000/svg">
<path d="M64 12.5554H8V23.2221H64V12.5554Z" fill="#2894B4"/>
<path fill-rule="evenodd" clip-rule="evenodd" d="M9.68888 13.2667C8.90342 13.2667 8.26667 13.9034 8.26667 14.6889V21.0889C8.26667 21.8744 8.90342 22.5111 9.68888 22.5111H62.3111C63.0966 22.5111 63.7333 21.8744 63.7333 21.0889V14.6889C63.7333 13.9034 63.0966 13.2667 62.3111 13.2667H9.68888ZM4 14.6889C4 11.547 6.547 9 9.68888 9H62.3111C65.453 9 68 11.547 68 14.6889V21.0889C68 24.2308 65.453 26.7778 62.3111 26.7778H9.68888C6.547 26.7778 4 24.2308 4 21.0889V14.6889Z" fill="#0D313B"/>
<path d="M43.5111 33.8884H28.4889C28.2189 33.8884 28 34.1073 28 34.3773V40.5107C28 40.7807 28.2189 40.9995 28.4889 40.9995H43.5111C43.7811 40.9995 44 40.7807 44 40.5107V34.3773C44 34.1073 43.7811 33.8884 43.5111 33.8884Z" fill="#0D313B"/>
<path fill-rule="evenodd" clip-rule="evenodd" d="M12.2666 28.4884V59.0663H59.7332V28.4884H12.2666ZM7.67578 28.4884C7.67578 24.5611 8.33922 23.1951 12.2666 23.1951L35.3305 23.1948H59.7332C64.367 23.1952 64.3666 23.1948 64.3666 28.7257L64.3671 43.9356L64.367 59.0663C64.367 63.2939 64.367 63.2939 59.7332 63.2939H36.7127H12.2662C7.67578 63.2939 7.67578 63.373 7.67578 59.1454V43.9356V28.4884Z" fill="#0D313B"/>
</svg>
