<svg width="36" height="36" viewBox="0 0 36 36" fill="none" xmlns="http://www.w3.org/2000/svg">
<path d="M27.8672 9.51428H7.61719V13.3714H27.8672V9.51428Z" fill="#FFA600"/>
<mask id="mask0_4692_38808" style="mask-type:alpha" maskUnits="userSpaceOnUse" x="6" y="8" width="24" height="7">
<path d="M28.9602 8.22864H6.52447C6.3292 8.22864 6.1709 8.38694 6.1709 8.58221V14.3036C6.1709 14.4989 6.3292 14.6572 6.52447 14.6572H28.9602C29.1555 14.6572 29.3138 14.4989 29.3138 14.3036V8.58221C29.3138 8.38694 29.1555 8.22864 28.9602 8.22864Z" fill="white"/>
</mask>
<g mask="url(#mask0_4692_38808)">
<path fill-rule="evenodd" clip-rule="evenodd" d="M4.62793 8.58222C4.62793 7.53485 5.47699 6.68579 6.52435 6.68579H28.9601C30.0074 6.68579 30.8565 7.53476 30.8565 8.58222V14.3036C30.8565 15.351 30.0075 16.2001 28.9601 16.2001H6.52435C5.47691 16.2001 4.62793 15.3509 4.62793 14.3036V8.58222ZM7.71364 9.7715V13.1144H27.7708V9.7715H7.71364Z" fill="black"/>
</g>
<mask id="mask1_4692_38808" style="mask-type:alpha" maskUnits="userSpaceOnUse" x="7" y="13" width="21" height="15">
<path d="M27.5137 13.3713H7.97076C7.77549 13.3713 7.61719 13.5296 7.61719 13.7249V27.1607C7.61719 27.3559 7.77549 27.5142 7.97076 27.5142H27.5137C27.7089 27.5142 27.8672 27.3559 27.8672 27.1607V13.7249C27.8672 13.5296 27.7089 13.3713 27.5137 13.3713Z" fill="white"/>
</mask>
<g mask="url(#mask1_4692_38808)">
<path fill-rule="evenodd" clip-rule="evenodd" d="M6.07471 13.7249C6.07471 12.6776 6.92368 11.8284 7.97113 11.8284H27.514C28.5616 11.8284 29.4104 12.6778 29.4104 13.7249V27.1607C29.4104 28.208 28.5613 29.057 27.514 29.057H7.97113C6.92396 29.057 6.07471 28.2082 6.07471 27.1607V13.7249ZM9.16042 14.9141V25.9713H26.3247V14.9141H9.16042Z" fill="black"/>
<path d="M19.0195 17H16.198C15.5364 17 15 17.5364 15 18.1981C15 18.8598 15.5364 19.3961 16.198 19.3961H19.0195C19.6811 19.3961 20.2175 18.8598 20.2175 18.1981C20.2175 17.5364 19.6811 17 19.0195 17Z" fill="black"/>
</g>
</svg>
