<svg width="72" height="72" viewBox="0 0 72 72" fill="none" xmlns="http://www.w3.org/2000/svg">
<path d="M45 6.5H29L23.5 10.5V14.5L49.5 13.5V10.5L45 6.5Z" fill="#FFCDCD"/>
<path fill-rule="evenodd" clip-rule="evenodd" d="M22.8704 10.2772L13.0605 10.5939L14.5081 65.065L44.2942 66.9699C41.6428 64.1002 40.0081 60.1698 40.0081 55.8344C40.0081 47.0472 46.7238 39.9238 55.0081 39.9238C56.0721 39.9238 57.1102 40.0413 58.1116 40.2647L57.9241 10.5939L49.938 10.9172V13.4999L36.5003 13.4999L24.5003 12.4999L22.8704 10.2772Z" fill="#E60000"/>
<path fill-rule="evenodd" clip-rule="evenodd" d="M29.887 4.07675C27.9495 4.40174 25.9246 5.37671 24.5871 6.62668L23.6622 7.48915H19.9123C15.8249 7.48915 15.2624 7.55165 14.0874 8.13914C12.675 8.85162 11.4875 10.3891 11.15 11.964C10.95 12.9015 10.95 62.5751 11.15 63.5126C11.35 64.4376 11.925 65.5376 12.5875 66.2375C13.2374 66.925 14.5249 67.65 15.4874 67.85C16.0981 67.9803 33.2565 68.0257 45.4011 67.9862C44.1803 66.9059 43.1257 65.6419 42.2807 64.2376H36.3868H16.2374L15.7624 63.9751C15.4999 63.8251 15.1749 63.5001 15.0249 63.2376L14.7624 62.7626V37.7383V12.714L15.0374 12.2265C15.5374 11.339 15.9249 11.2391 18.9623 11.2391H21.5997L21.4247 12.0765C21.3247 12.5515 21.2622 13.3765 21.2872 13.9515C21.3247 15.0514 21.5247 15.4139 22.2872 15.8139C22.7872 16.0764 49.9864 16.0764 50.4864 15.8139C51.2489 15.4139 51.4489 15.0514 51.4864 13.9515C51.5114 13.3765 51.4489 12.5515 51.3489 12.0765L51.1739 11.2391H53.8113C56.8362 11.2391 57.2362 11.339 57.7362 12.2265L58.0112 12.714V37.7383V40.1252C59.3208 40.2894 60.5811 40.6119 61.7724 41.0729C61.782 27.4087 61.7324 12.4741 61.6236 11.964C61.1736 9.85159 59.3862 8.06414 57.2862 7.62665C56.8862 7.53915 55.1363 7.48915 52.8614 7.48915H49.099L48.2615 6.68918C47.3115 5.8017 46.3615 5.18922 45.0866 4.68923C43.4491 4.02675 42.8991 3.98925 36.2868 4.00175C32.9369 4.01425 30.062 4.05175 29.887 4.07675ZM42.8741 7.92664C43.3116 8.03914 44.0241 8.30163 44.4366 8.51413C45.6865 9.17661 47.0865 10.7641 47.449 11.9515L47.524 12.239H36.3868H25.2496L25.3246 11.9515C25.5371 11.2891 26.1246 10.3766 26.8371 9.6516C27.662 8.81412 28.962 8.07664 30.0245 7.87664C30.3245 7.81415 33.1619 7.76415 36.3243 7.75165C41.0492 7.73915 42.2116 7.77665 42.8741 7.92664Z" fill="#4D0000"/>
<path d="M42.2994 23.0898C41.4619 23.3523 40.8619 24.3648 41.0244 25.2523C41.1744 26.0398 41.9244 26.7147 42.6619 26.7147C42.8369 26.7147 42.9744 26.7522 42.9744 26.8147C42.9744 26.8647 41.9869 27.8897 40.7869 29.0897L38.5995 31.2771L35.5621 28.2397C32.2747 24.9648 32.0872 24.8273 31.1372 25.0773C30.7497 25.1898 29.9497 25.9273 26.8873 28.9897C23.6624 32.2271 23.1124 32.8396 23.0374 33.2396C22.8124 34.4645 23.6249 35.4645 24.8499 35.4645C25.1374 35.4645 25.4874 35.402 25.6374 35.327C25.7874 35.252 27.1873 33.9146 28.7623 32.3646L31.5997 29.5272L34.5746 32.4896C36.1996 34.1145 37.662 35.502 37.812 35.577C38.162 35.752 39.037 35.752 39.387 35.577C39.537 35.502 41.0119 34.0895 42.6744 32.4396L45.6868 29.4397L45.7618 29.9397C46.0493 31.6771 48.4492 32.0396 49.2617 30.4646C49.4617 30.0772 49.4742 29.7022 49.4492 27.1272C49.4117 23.9398 49.3992 23.9273 48.5492 23.2898C48.2242 23.0398 48.0242 23.0273 45.4368 23.0023C43.9119 22.9899 42.4994 23.0273 42.2994 23.0898Z" fill="#4D0000"/>
<path d="M23.8362 42.2875C22.6988 43.05 22.7238 44.5499 23.8987 45.4249C24.2362 45.6874 24.3612 45.6874 32.411 45.6874C40.4608 45.6874 40.5858 45.6874 40.9233 45.4249C42.0982 44.5499 42.1232 43.05 40.9858 42.2875L40.5608 42H32.411H24.2612L23.8362 42.2875Z" fill="#4D0000"/>
<path d="M23.8953 52.2027C23.34 52.5 23 53.1757 23 54C23 54.7568 23.204 55.2162 23.782 55.7162C24.088 56 24.2013 56 31.5 56C38.7987 56 38.912 56 39.218 55.7162C39.796 55.2162 40 54.7568 40 54C40 53.1622 39.66 52.4865 39.082 52.2027C38.538 51.9324 24.4167 51.9324 23.8953 52.2027Z" fill="#4D0000"/>
<circle cx="56.5" cy="56.5" r="11.9318" fill="#990000" stroke="#4D0000" stroke-width="2.86364"/>
<path d="M62.7194 61.3641C63.0935 61.7382 63.0935 62.3453 62.7194 62.7194C62.3453 63.0935 61.7382 63.0935 61.3641 62.7194L56.5003 57.8556L51.6359 62.7194C51.2618 63.0935 50.6547 63.0935 50.2806 62.7194C49.9065 62.3453 49.9065 61.7382 50.2806 61.3641L55.1444 56.4997L50.2806 51.6359C49.9065 51.2618 49.9065 50.6547 50.2806 50.2806C50.6547 49.9065 51.2618 49.9065 51.6359 50.2806L56.5003 55.1444L61.3641 50.2806C61.7382 49.9065 62.3453 49.9065 62.7194 50.2806C63.0935 50.6547 63.0935 51.2618 62.7194 51.6359L57.8556 56.4997L62.7194 61.3641Z" fill="#4D0000"/>
</svg>
