<svg version="1.1" id="Layer_1" xmlns="http://www.w3.org/2000/svg" xmlns:xlink="http://www.w3.org/1999/xlink" x="0px" y="0px"
	 width="100%" viewBox="0 0 261 271" enable-background="new 0 0 261 271" xml:space="preserve">
<path fill="#FEFEFE" opacity="1.000000" stroke="none" 
	d="
M139.000000,272.000000 
	C92.666679,272.000000 46.833355,272.000000 1.000025,272.000000 
	C1.000016,181.666702 1.000016,91.333397 1.000008,1.000073 
	C87.999947,1.000049 174.999893,1.000049 261.999878,1.000024 
	C261.999939,91.333260 261.999939,181.666519 261.999969,271.999878 
	C221.166672,272.000000 180.333328,272.000000 139.000000,272.000000 
M181.989487,199.511490 
	C157.175552,222.517303 116.605377,224.103531 90.586693,203.262375 
	C87.527855,200.812210 87.390755,199.180771 90.108109,196.565445 
	C95.629601,191.251282 100.861382,185.633713 106.433533,180.375336 
	C110.782928,176.270905 112.486038,171.523743 110.325348,165.970642 
	C108.152458,160.386185 103.366592,157.979599 97.651863,157.947281 
	C75.658051,157.822968 53.662628,157.810623 31.668924,157.942688 
	C25.225437,157.981369 21.212124,161.778488 21.157021,168.209885 
	C20.967161,190.369431 20.915148,212.533905 21.209047,234.691208 
	C21.282280,240.212357 23.896584,244.937363 29.677740,247.121063 
	C35.383194,249.276138 39.663479,246.978256 43.565449,243.069366 
	C49.451118,237.173248 55.505531,231.439117 61.233067,225.394363 
	C64.021263,222.451736 66.256599,222.467911 69.314812,224.905060 
	C93.859840,244.465652 121.654366,251.872635 152.542786,246.005096 
	C191.478516,238.608841 216.890686,215.314545 230.019974,178.284180 
	C232.939957,170.048553 229.113327,161.486649 222.134521,159.197388 
	C212.974060,156.192490 205.429932,159.720825 202.147156,168.766953 
	C197.930481,180.386566 191.553665,190.557892 181.989487,199.511490 
M246.216766,64.501854 
	C246.212387,60.170517 246.232056,55.838989 246.197556,51.507893 
	C246.154297,46.081711 244.147766,41.565651 239.036911,39.344170 
	C233.857193,37.092754 228.952072,38.200687 224.816391,42.161961 
	C220.731415,46.074657 216.657883,49.999382 212.593674,53.933628 
	C209.032089,57.381325 205.490372,60.849564 201.909958,64.337883 
	C200.123474,62.930210 198.806046,61.923458 197.522079,60.875690 
	C179.304947,46.009747 158.251389,38.543488 134.930313,38.371498 
	C104.980316,38.150616 79.279976,48.750069 58.972378,71.135994 
	C48.661549,82.502052 41.061638,95.556664 37.197441,110.510323 
	C35.439159,117.314537 39.409237,124.050583 45.898613,126.428780 
	C55.477592,129.939255 62.023609,126.540901 65.910934,116.039413 
	C81.535339,73.830620 128.319046,55.617126 167.821304,76.505989 
	C172.385544,78.919571 176.452362,82.273796 180.555237,85.059792 
	C173.753113,92.136330 167.729095,98.541946 161.546387,104.790558 
	C156.805420,109.582069 155.456757,114.518791 157.720016,120.164841 
	C159.741333,125.207390 163.971527,127.728378 170.529541,127.731453 
	C191.853210,127.741447 213.176880,127.739464 234.500549,127.732079 
	C243.090118,127.729111 246.188477,124.656769 246.206558,115.978180 
	C246.241623,99.152550 246.216797,82.326782 246.216766,64.501854 
z"/>
<path fill="#A4AEBA" opacity="1.000000" stroke="none" 
	d="
M182.244049,199.261749 
	C191.553665,190.557892 197.930481,180.386566 202.147156,168.766953 
	C205.429932,159.720825 212.974060,156.192490 222.134521,159.197388 
	C229.113327,161.486649 232.939957,170.048553 230.019974,178.284180 
	C216.890686,215.314545 191.478516,238.608841 152.542786,246.005096 
	C121.654366,251.872635 93.859840,244.465652 69.314812,224.905060 
	C66.256599,222.467911 64.021263,222.451736 61.233067,225.394363 
	C55.505531,231.439117 49.451118,237.173248 43.565449,243.069366 
	C39.663479,246.978256 35.383194,249.276138 29.677740,247.121063 
	C23.896584,244.937363 21.282280,240.212357 21.209047,234.691208 
	C20.915148,212.533905 20.967161,190.369431 21.157021,168.209885 
	C21.212124,161.778488 25.225437,157.981369 31.668924,157.942688 
	C53.662628,157.810623 75.658051,157.822968 97.651863,157.947281 
	C103.366592,157.979599 108.152458,160.386185 110.325348,165.970642 
	C112.486038,171.523743 110.782928,176.270905 106.433533,180.375336 
	C100.861382,185.633713 95.629601,191.251282 90.108109,196.565445 
	C87.390755,199.180771 87.527855,200.812210 90.586693,203.262375 
	C116.605377,224.103531 157.175552,222.517303 182.244049,199.261749 
z"/>
<path fill="#1B3354" opacity="1.000000" stroke="none" 
	d="
M246.216797,65.001465 
	C246.216797,82.326782 246.241623,99.152550 246.206558,115.978180 
	C246.188477,124.656769 243.090118,127.729111 234.500549,127.732079 
	C213.176880,127.739464 191.853210,127.741447 170.529541,127.731453 
	C163.971527,127.728378 159.741333,125.207390 157.720016,120.164841 
	C155.456757,114.518791 156.805420,109.582069 161.546387,104.790558 
	C167.729095,98.541946 173.753113,92.136330 180.555237,85.059792 
	C176.452362,82.273796 172.385544,78.919571 167.821304,76.505989 
	C128.319046,55.617126 81.535339,73.830620 65.910934,116.039413 
	C62.023609,126.540901 55.477592,129.939255 45.898613,126.428780 
	C39.409237,124.050583 35.439159,117.314537 37.197441,110.510323 
	C41.061638,95.556664 48.661549,82.502052 58.972378,71.135994 
	C79.279976,48.750069 104.980316,38.150616 134.930313,38.371498 
	C158.251389,38.543488 179.304947,46.009747 197.522079,60.875690 
	C198.806046,61.923458 200.123474,62.930210 201.909958,64.337883 
	C205.490372,60.849564 209.032089,57.381325 212.593674,53.933628 
	C216.657883,49.999382 220.731415,46.074657 224.816391,42.161961 
	C228.952072,38.200687 233.857193,37.092754 239.036911,39.344170 
	C244.147766,41.565651 246.154297,46.081711 246.197556,51.507893 
	C246.232056,55.838989 246.212387,60.170517 246.216797,65.001465 
z"/>
</svg>