<svg width="72" height="72" viewBox="0 0 72 72" fill="none" xmlns="http://www.w3.org/2000/svg">
<path d="M45 6.5H29L23.5 10.5V14.5L49.5 13.5V10.5L45 6.5Z" fill="#E60000"/>
<path fill-rule="evenodd" clip-rule="evenodd" d="M29.887 4.07675C27.9495 4.40174 25.9246 5.37671 24.5871 6.62668L23.6622 7.48915H19.9123C15.8249 7.48915 15.2624 7.55165 14.0874 8.13914C12.675 8.85162 11.4875 10.3891 11.15 11.964C10.95 12.9015 10.95 62.5751 11.15 63.5126C11.35 64.4376 11.925 65.5376 12.5875 66.2375C13.2374 66.925 14.5249 67.65 15.4874 67.85C16.0981 67.9803 33.2565 68.0257 45.4011 67.9862C44.1803 66.9059 43.1257 65.6419 42.2807 64.2376H36.3868H16.2374L15.7624 63.9751C15.4999 63.8251 15.1749 63.5001 15.0249 63.2376L14.7624 62.7626V37.7383V12.714L15.0374 12.2265C15.5374 11.339 15.9249 11.2391 18.9623 11.2391H21.5997L21.4247 12.0765C21.3247 12.5515 21.2622 13.3765 21.2872 13.9515C21.3247 15.0514 21.5247 15.4139 22.2872 15.8139C22.7872 16.0764 49.9864 16.0764 50.4864 15.8139C51.2489 15.4139 51.4489 15.0514 51.4864 13.9515C51.5114 13.3765 51.4489 12.5515 51.3489 12.0765L51.1739 11.2391H53.8113C56.8362 11.2391 57.2362 11.339 57.7362 12.2265L58.0112 12.714V37.7383V40.1252C59.3208 40.2894 60.5811 40.6119 61.7724 41.0729C61.782 27.4087 61.7324 12.4741 61.6236 11.964C61.1736 9.85159 59.3862 8.06414 57.2862 7.62665C56.8862 7.53915 55.1363 7.48915 52.8614 7.48915H49.099L48.2615 6.68918C47.3115 5.8017 46.3615 5.18922 45.0866 4.68923C43.4491 4.02675 42.8991 3.98925 36.2868 4.00175C32.9369 4.01425 30.062 4.05175 29.887 4.07675ZM42.8741 7.92664C43.3116 8.03914 44.0241 8.30163 44.4366 8.51413C45.6865 9.17661 47.0865 10.7641 47.449 11.9515L47.524 12.239H36.3868H25.2496L25.3246 11.9515C25.5371 11.2891 26.1246 10.3766 26.8371 9.6516C27.662 8.81412 28.962 8.07664 30.0245 7.87664C30.3245 7.81415 33.1619 7.76415 36.3243 7.75165C41.0492 7.73915 42.2116 7.77665 42.8741 7.92664Z" fill="#4D0000"/>
<path d="M42.2994 23.0899C41.4619 23.3524 40.8619 24.3649 41.0244 25.2524C41.1744 26.0399 41.9244 26.7148 42.6619 26.7148C42.8369 26.7148 42.9744 26.7523 42.9744 26.8148C42.9744 26.8648 41.9869 27.8898 40.7869 29.0898L38.5995 31.2772L35.5621 28.2398C32.2747 24.9649 32.0872 24.8274 31.1372 25.0774C30.7497 25.1899 29.9497 25.9274 26.8873 28.9898C23.6624 32.2272 23.1124 32.8397 23.0374 33.2397C22.8124 34.4646 23.6249 35.4646 24.8499 35.4646C25.1374 35.4646 25.4874 35.4021 25.6374 35.3271C25.7874 35.2521 27.1873 33.9147 28.7623 32.3647L31.5997 29.5273L34.5746 32.4897C36.1996 34.1146 37.662 35.5021 37.812 35.5771C38.162 35.7521 39.037 35.7521 39.387 35.5771C39.537 35.5021 41.0119 34.0896 42.6744 32.4397L45.6868 29.4398L45.7618 29.9398C46.0493 31.6772 48.4492 32.0397 49.2617 30.4647C49.4617 30.0773 49.4742 29.7023 49.4492 27.1273C49.4117 23.9399 49.3992 23.9274 48.5492 23.2899C48.2242 23.0399 48.0242 23.0274 45.4368 23.0024C43.9119 22.99 42.4994 23.0274 42.2994 23.0899Z" fill="#4D0000"/>
<path d="M23.8362 42.2875C22.6988 43.05 22.7238 44.5499 23.8987 45.4249C24.2362 45.6874 24.3612 45.6874 32.411 45.6874C40.4608 45.6874 40.5858 45.6874 40.9233 45.4249C42.0982 44.5499 42.1232 43.05 40.9858 42.2875L40.5608 42H32.411H24.2612L23.8362 42.2875Z" fill="#4D0000"/>
<path d="M23.8953 52.2027C23.34 52.5 23 53.1757 23 54C23 54.7568 23.204 55.2162 23.782 55.7162C24.088 56 24.2013 56 31.5 56C38.7987 56 38.912 56 39.218 55.7162C39.796 55.2162 40 54.7568 40 54C40 53.1622 39.66 52.4865 39.082 52.2027C38.538 51.9324 24.4167 51.9324 23.8953 52.2027Z" fill="#4D0000"/>
<path d="M56.5002 68.432C63.0899 68.432 68.432 63.0899 68.432 56.5002C68.432 49.9104 63.0899 44.5684 56.5002 44.5684C49.9104 44.5684 44.5684 49.9104 44.5684 56.5002C44.5684 63.0899 49.9104 68.432 56.5002 68.432Z" fill="#990000" stroke="#4D0000" stroke-width="2.86364"/>
<path d="M62.7194 61.3641C63.0935 61.7382 63.0935 62.3453 62.7194 62.7194C62.3453 63.0935 61.7382 63.0935 61.3641 62.7194L56.5003 57.8556L51.6359 62.7194C51.2618 63.0935 50.6547 63.0935 50.2806 62.7194C49.9065 62.3453 49.9065 61.7382 50.2806 61.3641L55.1444 56.4997L50.2806 51.6359C49.9065 51.2618 49.9065 50.6547 50.2806 50.2806C50.6547 49.9065 51.2618 49.9065 51.6359 50.2806L56.5003 55.1444L61.3641 50.2806C61.7382 49.9065 62.3453 49.9065 62.7194 50.2806C63.0935 50.6547 63.0935 51.2618 62.7194 51.6359L57.8556 56.4997L62.7194 61.3641Z" fill="white"/>
</svg>
