<svg width="72" height="72" viewBox="0 0 72 72" fill="none" xmlns="http://www.w3.org/2000/svg">
<path d="M43.5 6H30L23.5 10L23 14H49.5L48.5 9.5L43.5 6Z" fill="#E60000"/>
<path d="M29.887 4.07675C27.9495 4.40174 25.9246 5.37672 24.5871 6.62668L23.6622 7.48916H19.9123C15.8249 7.48916 15.2624 7.55165 14.0874 8.13914C12.675 8.85162 11.4875 10.3891 11.15 11.964C10.95 12.9015 10.95 62.5751 11.15 63.5126C11.35 64.4376 11.925 65.5376 12.5875 66.2375C13.2374 66.925 14.5249 67.65 15.4874 67.85C16.4249 68.05 56.3488 68.05 57.2862 67.85C59.4112 67.4 61.1736 65.6251 61.6236 63.5126C61.8236 62.5626 61.8236 12.9015 61.6236 11.964C61.1736 9.85159 59.3862 8.06414 57.2862 7.62666C56.8862 7.53916 55.1363 7.48916 52.8614 7.48916H49.099L48.2615 6.68918C47.3115 5.8017 46.3615 5.18922 45.0866 4.68924C43.4491 4.02675 42.8991 3.98926 36.2868 4.00175C32.9369 4.01425 30.062 4.05175 29.887 4.07675ZM42.8741 7.92665C43.3116 8.03914 44.0241 8.30164 44.4366 8.51413C45.6865 9.17661 47.0865 10.7641 47.449 11.9515L47.524 12.239H36.3868H25.2496L25.3246 11.9515C25.5371 11.2891 26.1246 10.3766 26.8371 9.6516C27.662 8.81412 28.962 8.07664 30.0245 7.87665C30.3245 7.81415 33.1619 7.76415 36.3243 7.75165C41.0492 7.73915 42.2116 7.77665 42.8741 7.92665ZM21.4247 12.0765C21.3247 12.5515 21.2622 13.3765 21.2872 13.9515C21.3247 15.0515 21.5247 15.4139 22.2872 15.8139C22.7872 16.0764 49.9864 16.0764 50.4864 15.8139C51.2489 15.4139 51.4489 15.0515 51.4864 13.9515C51.5114 13.3765 51.4489 12.5515 51.3489 12.0765L51.1739 11.2391H53.8113C56.8362 11.2391 57.2362 11.3391 57.7362 12.2265L58.0112 12.714V37.7383V62.7626L57.7487 63.2376C57.5987 63.5001 57.2737 63.8251 57.0112 63.9751L56.5362 64.2376H36.3868H16.2374L15.7624 63.9751C15.4999 63.8251 15.1749 63.5001 15.0249 63.2376L14.7624 62.7626V37.7383V12.714L15.0374 12.2265C15.5374 11.3391 15.9249 11.2391 18.9623 11.2391H21.5997L21.4247 12.0765Z" fill="#4D0000"/>
<path d="M42.3365 21.9888C41.499 22.2513 40.8991 23.2637 41.0616 24.1512C41.2115 24.9387 41.9615 25.6137 42.699 25.6137C42.874 25.6137 43.0115 25.6512 43.0115 25.7137C43.0115 25.7637 42.024 26.7886 40.8241 27.9886L38.6366 30.176L35.5992 27.1386C32.3118 23.8637 32.1243 23.7262 31.1743 23.9762C30.7868 24.0887 29.9869 24.8262 26.9244 27.8886C23.6995 31.126 23.1495 31.7385 23.0745 32.1385C22.8495 33.3635 23.662 34.3634 24.887 34.3634C25.1745 34.3634 25.5245 34.3009 25.6745 34.2259C25.8245 34.1509 27.2244 32.8135 28.7994 31.2635L31.6368 28.4261L34.6117 31.3885C36.2367 33.0135 37.6991 34.4009 37.8491 34.4759C38.1991 34.6509 39.0741 34.6509 39.4241 34.4759C39.5741 34.4009 41.049 32.9885 42.7115 31.3385L45.7239 28.3386L45.7989 28.8386C46.0864 30.576 48.4863 30.9385 49.2988 29.3636C49.4988 28.9761 49.5113 28.6011 49.4863 26.0262C49.4488 22.8387 49.4363 22.8263 48.5863 22.1888C48.2614 21.9388 48.0614 21.9263 45.4739 21.9013C43.949 21.8888 42.5365 21.9263 42.3365 21.9888Z" fill="#4D0000"/>
<path d="M27.762 40.9381C27.5245 41.038 26.6621 41.7755 25.8621 42.5755L24.3996 44.0255L23.8871 43.563C23.5996 43.313 23.2372 43.0505 23.0622 42.988C21.5247 42.4005 19.9872 44.063 20.7122 45.5254C20.9872 46.0754 22.9747 48.0754 23.5371 48.3753C24.1246 48.6753 24.6496 48.6753 25.2371 48.3753C25.4871 48.2379 26.6871 47.1379 27.8995 45.9004C29.662 44.1255 30.137 43.5755 30.2495 43.1755C30.512 42.2255 29.9245 41.113 29.037 40.8631C28.437 40.7006 28.287 40.7131 27.762 40.9381Z" fill="#4D0000"/>
<path d="M34.1233 43.1506C32.9859 43.9131 33.0109 45.4131 34.1858 46.288C34.5233 46.5505 34.6483 46.5505 42.6981 46.5505C50.7479 46.5505 50.8729 46.5505 51.2104 46.288C52.3853 45.4131 52.4103 43.9131 51.2729 43.1506L50.8479 42.8631H42.6981H34.5483L34.1233 43.1506Z" fill="#4D0000"/>
<path d="M28.3252 51.5506C28.2627 51.5756 28.0377 51.6256 27.8377 51.6756C27.6002 51.7256 26.9252 52.2881 25.9378 53.2631L24.4003 54.7755L23.9378 54.363C23.4253 53.913 22.7879 53.6131 22.3629 53.6131C21.8379 53.6131 21.0754 54.088 20.7879 54.6005C20.2004 55.6505 20.4504 56.263 22.1754 57.9629C23.5503 59.3129 23.8878 59.4879 24.8628 59.3004C25.2503 59.2254 25.6878 58.8504 27.6127 56.9505C28.8752 55.7005 30.0002 54.5005 30.1002 54.3005C30.5376 53.4756 30.2252 52.2881 29.4502 51.8506C29.0502 51.6256 28.5252 51.4881 28.3252 51.5506Z" fill="#4D0000"/>
<path d="M34.3117 53.7879C33.6992 54.0629 33.3242 54.6879 33.3242 55.4503C33.3242 56.1503 33.5492 56.5753 34.1867 57.0378C34.5242 57.3003 34.6492 57.3003 42.699 57.3003C50.7487 57.3003 50.8737 57.3003 51.2112 57.0378C51.8487 56.5753 52.0737 56.1503 52.0737 55.4503C52.0737 54.6754 51.6987 54.0504 51.0612 53.7879C50.4612 53.5379 34.8867 53.5379 34.3117 53.7879Z" fill="#4D0000"/>
</svg>
