<svg width="72" height="72" viewBox="0 0 72 72" fill="none" xmlns="http://www.w3.org/2000/svg">
<g id="unbuild-order">
<g id="Group 1171275053">
<path id="Rectangle 34624447" d="M66.1093 45.5713H39.6367V50.6137H66.1093V45.5713Z" fill="#22885E"/>
<path id="Rectangle 34624448" d="M65 52H41V68H65V52Z" fill="#62C89E"/>
<path id="Rectangle 47 (Stroke)" fill-rule="evenodd" clip-rule="evenodd" d="M40.4354 45.9076C40.0641 45.9076 39.7631 46.2086 39.7631 46.5799V49.6053C39.7631 49.9766 40.0641 50.2776 40.4354 50.2776H65.3112C65.6825 50.2776 65.9835 49.9766 65.9835 49.6053V46.5799C65.9835 46.2086 65.6825 45.9076 65.3112 45.9076H40.4354ZM37.7461 46.5799C37.7461 45.0947 38.9501 43.8906 40.4354 43.8906H65.3112C66.7964 43.8906 68.0004 45.0947 68.0004 46.5799V49.6053C68.0004 51.0906 66.7964 52.2946 65.3112 52.2946H40.4354C38.9501 52.2946 37.7461 51.0906 37.7461 49.6053V46.5799Z" fill="#0B2D1F"/>
<path id="Rectangle 48" d="M56.4223 55.6562H49.321C49.1933 55.6562 49.0898 55.7597 49.0898 55.8874V58.7867C49.0898 58.9144 49.1933 59.0178 49.321 59.0178H56.4223C56.5499 59.0178 56.6534 58.9144 56.6534 58.7867V55.8874C56.6534 55.7597 56.5499 55.6562 56.4223 55.6562Z" fill="#0B2D1F"/>
<path id="Vector (Stroke)" fill-rule="evenodd" clip-rule="evenodd" d="M41.6546 52.6303V67.0852H64.0932V52.6303H41.6546ZM39.4844 52.6303C39.4844 50.7738 39.798 50.1281 41.6546 50.1281L52.5574 50.1279H64.0932C66.2837 50.1281 66.2835 50.1279 66.2835 52.7425L66.2837 59.9326L66.2837 67.0852C66.2837 69.0837 66.2837 69.0837 64.0932 69.0837H53.2108H41.6544C39.4844 69.0837 39.4844 69.1211 39.4844 67.1226V59.9326V52.6303Z" fill="#0B2D1F"/>
<path id="Vector" d="M18.6656 31.341C18.7241 31.282 18.7881 31.2292 18.857 31.183C18.9258 31.1368 18.9984 31.0976 19.0752 31.0654C19.1519 31.0337 19.2311 31.0093 19.3123 30.9932C19.394 30.9767 19.4761 30.9689 19.559 30.9689C19.6423 30.9689 19.7244 30.9767 19.8061 30.9932C19.8874 31.0093 19.9665 31.0337 20.0433 31.0654C20.1196 31.0976 20.1926 31.1368 20.2615 31.183C20.3304 31.2292 20.3943 31.282 20.4525 31.341L22.076 32.9769V32.2344C22.076 32.0492 22.0805 31.864 22.0896 31.6788C22.0987 31.4936 22.1123 31.3088 22.1305 31.1244C22.1486 30.94 22.1713 30.756 22.1985 30.5725C22.2257 30.3893 22.2575 30.2066 22.2934 30.0251C22.3297 29.8432 22.3701 29.6625 22.4151 29.4827C22.4604 29.3029 22.5095 29.1243 22.5636 28.9469C22.6172 28.7695 22.6753 28.5934 22.738 28.4189C22.8003 28.2444 22.8672 28.0716 22.9381 27.9004C23.009 27.7292 23.0841 27.5597 23.1633 27.3922C23.2425 27.2248 23.3258 27.0593 23.4133 26.8956C23.5003 26.7322 23.5919 26.571 23.6872 26.4122C23.7825 26.2529 23.8815 26.0966 23.9846 25.9423C24.0873 25.7885 24.1941 25.6367 24.3047 25.4878C24.4148 25.3393 24.5291 25.1928 24.6466 25.0497C24.7642 24.9066 24.885 24.7663 25.0096 24.629C25.1342 24.4916 25.262 24.3572 25.3928 24.2264C25.524 24.0952 25.658 23.9674 25.7954 23.8428C25.9327 23.7186 26.073 23.5974 26.2165 23.4798C26.3597 23.3622 26.5057 23.2484 26.6546 23.1378C26.8035 23.0273 26.9549 22.9209 27.1092 22.8178C27.2634 22.715 27.4198 22.6156 27.5786 22.5204C27.7378 22.4251 27.8991 22.3339 28.0624 22.2465C28.2258 22.159 28.3912 22.0757 28.559 21.9965C28.7265 21.9173 28.896 21.8422 29.0672 21.7713C29.2384 21.7003 29.4112 21.6335 29.5857 21.5712C29.7602 21.5089 29.9363 21.4508 30.1137 21.3967C30.2911 21.3431 30.4697 21.2936 30.6491 21.2487C30.829 21.2037 31.01 21.1629 31.1915 21.127C31.3734 21.0907 31.5562 21.0589 31.7393 21.0317C31.9225 21.0045 32.1064 20.9818 32.2908 20.9636C32.4756 20.9455 32.6604 20.9319 32.8452 20.9228C33.0304 20.9137 33.2156 20.9092 33.4012 20.9092C33.5864 20.9092 33.7716 20.9137 33.9568 20.9228C34.142 20.9319 34.3268 20.9455 34.5112 20.9636C34.6956 20.9818 34.8796 21.0045 35.0627 21.0317C35.2463 21.0589 35.4286 21.0907 35.6105 21.127C35.7924 21.1629 35.9731 21.2037 36.1529 21.2487C36.3328 21.2936 36.5114 21.3431 36.6887 21.3967C36.8661 21.4508 37.0418 21.5089 37.2163 21.5712C37.3908 21.6335 37.5636 21.7003 37.7352 21.7713C37.9064 21.8422 38.0755 21.9173 38.2434 21.9965C38.4109 22.0757 38.5763 22.159 38.7396 22.2465C38.9034 22.3339 39.0642 22.4251 39.2235 22.5204C39.3823 22.6156 39.539 22.715 39.6929 22.8178C39.8471 22.9209 39.9985 23.0273 40.1474 23.1378C40.2963 23.2484 40.4424 23.3622 40.5859 23.4798C40.729 23.5974 40.8693 23.7186 41.0066 23.8428C41.144 23.9674 41.2781 24.0952 41.4092 24.2264C41.5404 24.3572 41.6679 24.4916 41.7924 24.629C41.917 24.7663 42.0379 24.9066 42.1554 25.0497C42.273 25.1928 42.3872 25.3393 42.4974 25.4878C42.6079 25.6367 42.7147 25.7885 42.8175 25.9423C42.9206 26.0966 43.0196 26.2529 43.1149 26.4122C43.2101 26.571 43.3017 26.7322 43.3892 26.8956C43.4762 27.0593 43.5595 27.2248 43.6391 27.3922C43.7183 27.5597 43.7934 27.7292 43.8643 27.9004C43.9353 28.0716 44.0017 28.2444 44.0644 28.4189C44.1267 28.5934 44.1848 28.7695 44.2385 28.9469C44.2925 29.1243 44.342 29.3029 44.387 29.4827C44.4319 29.6625 44.4724 29.8432 44.5087 30.0251C44.545 30.2066 44.5763 30.3893 44.6035 30.5725C44.6307 30.756 44.6534 30.94 44.6716 31.1244C44.6897 31.3088 44.7033 31.4936 44.7128 31.6788C44.7219 31.864 44.7264 32.0492 44.7264 32.2344C44.7264 32.4196 44.7219 32.6048 44.7128 32.79C44.7033 32.9752 44.6897 33.16 44.6716 33.3444C44.6534 33.5288 44.6307 33.7127 44.6035 33.8963C44.5763 34.0794 44.545 34.2622 44.5087 34.4437C44.4724 34.6256 44.4319 34.8063 44.387 34.9861C44.342 35.1659 44.2925 35.3445 44.2385 35.5219C44.1848 35.6993 44.1267 35.8754 44.0644 36.0499C44.0017 36.2244 43.9353 36.3972 43.8643 36.5684C43.7934 36.7396 43.7183 36.9091 43.6391 37.0766C43.5595 37.244 43.4762 37.4095 43.3892 37.5732C43.3017 37.7366 43.2101 37.8978 43.1149 38.0566C43.0196 38.2159 42.9206 38.3722 42.8175 38.5265C42.7147 38.6803 42.6079 38.8321 42.4974 38.981C42.3872 39.1295 42.273 39.2759 42.1554 39.4191C42.0379 39.5622 41.917 39.7025 41.7924 39.8398C41.6679 39.9772 41.5404 40.1116 41.4092 40.2424C41.2781 40.3736 41.144 40.5014 41.0066 40.626C40.8693 40.7502 40.729 40.8714 40.5859 40.989C40.4424 41.1066 40.2963 41.2204 40.1474 41.331C39.9985 41.4415 39.8471 41.5479 39.6929 41.651C39.539 41.7538 39.3823 41.8532 39.2235 41.9484C39.0642 42.0437 38.9034 42.1349 38.7396 42.2223C38.5763 42.3098 38.4109 42.3931 38.2434 42.4723C38.0755 42.5515 37.9064 42.6266 37.7352 42.6975C37.5636 42.7685 37.3908 42.8353 37.2163 42.8976C37.0418 42.9599 36.8661 43.018 36.6887 43.0721C36.5114 43.1257 36.3328 43.1752 36.1529 43.2201C35.9731 43.2651 35.7924 43.3059 35.6105 43.3418C35.4286 43.3781 35.2463 43.4099 35.0627 43.4371C34.8796 43.4643 34.6956 43.487 34.5112 43.5052C34.3268 43.5233 34.142 43.5369 33.9568 43.546C33.7716 43.5551 33.5864 43.5596 33.4012 43.5596C32.8258 43.5613 32.2537 43.5188 31.6849 43.4322C31.1161 43.3455 30.5575 43.216 30.0085 43.0428C29.4599 42.8699 28.9278 42.6559 28.4122 42.4009C27.8966 42.1456 27.4037 41.8523 26.933 41.5211C26.8654 41.4733 26.8031 41.4192 26.7458 41.359C26.6888 41.2988 26.6381 41.2336 26.594 41.1631C26.5494 41.093 26.5127 41.0191 26.483 40.9416C26.4533 40.864 26.4314 40.7844 26.4174 40.7027C26.4034 40.6211 26.3972 40.5386 26.3997 40.4557C26.4017 40.3727 26.4121 40.2907 26.4302 40.2098C26.4488 40.129 26.4748 40.0506 26.5086 39.9747C26.5424 39.8988 26.5832 39.827 26.6311 39.7594C26.6789 39.6917 26.733 39.629 26.7932 39.5721C26.8534 39.5152 26.9186 39.4645 26.9891 39.4199C27.0592 39.3758 27.1331 39.3386 27.2106 39.3089C27.2882 39.2792 27.3678 39.2574 27.4495 39.2434C27.5311 39.2293 27.6136 39.2236 27.6965 39.2256C27.7794 39.2281 27.8615 39.2384 27.9424 39.2566C28.0232 39.2751 28.1016 39.3011 28.1775 39.3349C28.2534 39.3688 28.3252 39.4096 28.3928 39.4574C28.7579 39.7173 29.1407 39.9471 29.5416 40.1467C29.9429 40.3464 30.3571 40.5134 30.7844 40.6479C31.2113 40.7823 31.6465 40.883 32.0899 40.949C32.5329 41.0154 32.9784 41.0468 33.4264 41.043C33.5703 41.043 33.7143 41.0393 33.8583 41.0323C34.0026 41.0253 34.1462 41.0146 34.2897 41.0006C34.4333 40.9865 34.576 40.9688 34.7187 40.9478C34.8614 40.9263 35.0033 40.902 35.1448 40.8735C35.2863 40.8455 35.4265 40.8141 35.5664 40.779C35.7062 40.744 35.8452 40.7056 35.9834 40.6636C36.1212 40.6219 36.2581 40.5765 36.3938 40.5278C36.5295 40.4796 36.664 40.4276 36.7972 40.3723C36.9305 40.3171 37.062 40.2589 37.1924 40.197C37.3227 40.1356 37.4514 40.0708 37.5785 40.0028C37.7055 39.9347 37.8309 39.8637 37.9547 39.7895C38.0784 39.7157 38.2001 39.6385 38.3201 39.5585C38.4397 39.4785 38.5577 39.3952 38.6736 39.3094C38.7891 39.2236 38.903 39.1349 39.0143 39.0433C39.1257 38.9521 39.235 38.8577 39.3419 38.7612C39.4487 38.6642 39.553 38.5648 39.6549 38.4629C39.7568 38.3611 39.8562 38.2567 39.9527 38.1499C40.0497 38.043 40.1437 37.9337 40.2353 37.8223C40.3269 37.711 40.4156 37.5975 40.5013 37.4816C40.5871 37.3657 40.6701 37.2482 40.7501 37.1281C40.8305 37.0081 40.9072 36.8864 40.9815 36.7627C41.0557 36.6393 41.1267 36.5139 41.1947 36.3869C41.2628 36.2594 41.3276 36.1307 41.389 36.0004C41.4505 35.8701 41.5091 35.7385 41.5643 35.6052C41.6192 35.472 41.6712 35.3375 41.7198 35.2018C41.7685 35.0661 41.8135 34.9292 41.8555 34.7914C41.8972 34.6532 41.9356 34.5146 41.9706 34.3748C42.0057 34.235 42.0374 34.0943 42.0655 33.9528C42.0935 33.8113 42.1183 33.6694 42.1393 33.5267C42.1604 33.3844 42.1781 33.2413 42.1921 33.0977C42.2066 32.9542 42.2169 32.8106 42.2243 32.6667C42.2313 32.5227 42.2346 32.3784 42.2346 32.2344C42.2346 32.0904 42.2313 31.9461 42.2243 31.8021C42.2169 31.6582 42.2066 31.5146 42.1921 31.3711C42.1781 31.2275 42.1604 31.0844 42.1393 30.9421C42.1183 30.7994 42.0935 30.6575 42.0655 30.516C42.0374 30.3745 42.0057 30.2338 41.9706 30.094C41.9356 29.9542 41.8972 29.8156 41.8555 29.6774C41.8135 29.5396 41.7685 29.4027 41.7198 29.267C41.6712 29.1313 41.6196 28.9968 41.5643 28.8636C41.5091 28.7303 41.4505 28.5987 41.389 28.4684C41.3276 28.3381 41.2628 28.2094 41.1947 28.0819C41.1267 27.9549 41.0557 27.8295 40.9815 27.7061C40.9072 27.5824 40.8305 27.4607 40.7501 27.3407C40.6701 27.2206 40.5871 27.1031 40.5013 26.9872C40.4156 26.8713 40.3269 26.7578 40.2353 26.6464C40.1437 26.5351 40.0497 26.4258 39.9527 26.3189C39.8562 26.2121 39.7568 26.1077 39.6549 26.0059C39.553 25.904 39.4487 25.8046 39.3419 25.7076C39.235 25.6111 39.1257 25.5166 39.0143 25.4255C38.903 25.3339 38.7891 25.2452 38.6736 25.1594C38.5577 25.0736 38.4397 24.9903 38.3201 24.9103C38.2001 24.8303 38.0784 24.7531 37.9547 24.6789C37.8309 24.6051 37.7055 24.5341 37.5785 24.466C37.4514 24.398 37.3227 24.3332 37.1924 24.2718C37.062 24.2099 36.9305 24.1517 36.7972 24.0965C36.664 24.0412 36.5295 23.9892 36.3938 23.941C36.2581 23.8923 36.1212 23.8469 35.9834 23.8052C35.8452 23.7632 35.7062 23.7248 35.5664 23.6897C35.4265 23.6547 35.2863 23.6233 35.1448 23.5953C35.0033 23.5668 34.8614 23.5425 34.7187 23.521C34.576 23.5 34.4333 23.4823 34.2897 23.4682C34.1462 23.4542 34.0026 23.4435 33.8583 23.4365C33.7143 23.4295 33.5703 23.4258 33.4264 23.4258C33.282 23.4258 33.1381 23.4295 32.9941 23.4365C32.8501 23.4435 32.7062 23.4542 32.5631 23.4682C32.4195 23.4823 32.2764 23.5 32.1337 23.521C31.9913 23.5425 31.849 23.5668 31.708 23.5953C31.5665 23.6233 31.4258 23.6547 31.286 23.6897C31.1462 23.7248 31.0072 23.7632 30.8694 23.8052C30.7312 23.8469 30.5947 23.8923 30.4585 23.941C30.3228 23.9892 30.1884 24.0412 30.0555 24.0965C29.9223 24.1517 29.7903 24.2099 29.66 24.2718C29.5296 24.3332 29.4009 24.398 29.2739 24.466C29.1468 24.5341 29.0214 24.6051 28.8977 24.6789C28.774 24.7531 28.6523 24.8303 28.5326 24.9103C28.4126 24.9903 28.2946 25.0736 28.1791 25.1594C28.0632 25.2452 27.9498 25.3339 27.838 25.4255C27.7267 25.5166 27.6178 25.6111 27.5109 25.7076C27.4041 25.8046 27.2997 25.904 27.1978 26.0059C27.096 26.1077 26.9966 26.2121 26.8996 26.3189C26.8027 26.4258 26.7086 26.5351 26.6171 26.6464C26.5259 26.7578 26.4372 26.8713 26.351 26.9872C26.2652 27.1031 26.1823 27.2206 26.1023 27.3407C26.0223 27.4607 25.9451 27.5824 25.8709 27.7061C25.7966 27.8295 25.7257 27.9549 25.658 28.0819C25.59 28.2094 25.5252 28.3381 25.4633 28.4684C25.4019 28.5987 25.3433 28.7303 25.2884 28.8636C25.2332 28.9968 25.1812 29.1313 25.1325 29.267C25.0843 29.4027 25.0389 29.5396 24.9972 29.6774C24.9552 29.8156 24.9168 29.9542 24.8817 30.094C24.8467 30.2338 24.8153 30.3745 24.7869 30.516C24.7588 30.6575 24.7341 30.7994 24.713 30.9421C24.692 31.0844 24.6743 31.2275 24.6602 31.3711C24.6462 31.5146 24.6355 31.6582 24.6285 31.8021C24.6215 31.9461 24.6177 32.0904 24.6177 32.2344V32.9769L26.2409 31.341C26.2999 31.2824 26.3634 31.23 26.4327 31.1842C26.5016 31.138 26.5742 31.0992 26.6509 31.0675C26.7276 31.0357 26.8064 31.0118 26.8881 30.9957C26.9693 30.9796 27.0514 30.9714 27.1343 30.9718C27.2172 30.9718 27.2993 30.9796 27.3806 30.9961C27.4618 31.0122 27.541 31.0361 27.6173 31.0679C27.6941 31.0996 27.7671 31.1384 27.836 31.1846C27.9048 31.2308 27.9684 31.2832 28.0274 31.3418C28.0859 31.4004 28.1383 31.4639 28.1841 31.5332C28.2303 31.6021 28.2691 31.6747 28.3008 31.7514C28.3326 31.8281 28.3569 31.9069 28.373 31.9881C28.3891 32.0694 28.3974 32.1515 28.3974 32.2344C28.3974 32.3177 28.3891 32.3998 28.373 32.4811C28.3569 32.5623 28.333 32.6411 28.3012 32.7178C28.2699 32.7946 28.2307 32.8676 28.1849 32.9365C28.1387 33.0053 28.0863 33.0693 28.0278 33.1278L24.2527 36.9029C24.1442 37.0093 24.018 37.0894 23.8753 37.1422C23.7503 37.1929 23.6204 37.2181 23.4851 37.2176H23.2462C23.1456 37.2296 23.0449 37.2296 22.9443 37.2176H22.8185C22.6803 37.157 22.5545 37.0774 22.4406 36.9784L18.6656 33.2033C18.6008 33.1443 18.5426 33.0792 18.4915 33.0082C18.4404 32.9373 18.3966 32.8614 18.3612 32.7814C18.3257 32.7009 18.2989 32.618 18.2811 32.5322C18.263 32.4464 18.2539 32.3598 18.2539 32.2723C18.2539 32.1845 18.263 32.0979 18.2811 32.0121C18.2989 31.9263 18.3257 31.8434 18.3612 31.7629C18.3966 31.6829 18.4404 31.607 18.4915 31.5361C18.5426 31.4651 18.6008 31.3999 18.6656 31.341Z" fill="#0B2D1F"/>
<path id="Subtract" fill-rule="evenodd" clip-rule="evenodd" d="M58.286 23.7256L56.2754 23.0544C55.9542 22.1089 55.5739 21.1938 55.1481 20.3135L56.089 18.4241C57.1633 16.2711 56.7436 13.6817 55.0436 11.9742L52.1315 9.05753C50.43 7.35905 47.8436 6.9333 45.6891 8.01056L43.8027 8.95298C42.924 8.52723 42.0103 8.14996 41.0649 7.8242L40.3952 5.81664C39.6437 3.53484 37.5164 2 35.1074 2H30.9937C28.5892 2 26.4589 3.53484 25.7029 5.81967L25.0286 7.83329C24.0877 8.1545 23.1741 8.5348 22.2908 8.96056L20.4044 8.01814C18.2499 6.94087 15.6666 7.3636 13.9621 9.06662L11.05 11.9817C9.34996 13.6848 8.93178 16.2757 10.0045 18.4317L10.9454 20.3211C10.5197 21.2014 10.1439 22.1165 9.81814 23.062L7.80755 23.7332C5.53484 24.4862 4 26.615 4 29.0271V33.1498C4 35.5588 5.53484 37.6876 7.81512 38.4513L9.82572 39.1225C10.1469 40.0679 10.5272 40.9846 10.953 41.8649L10.0121 43.7527C8.93936 45.9057 9.35754 48.4966 11.0575 50.2027L13.9696 53.1193C15.6711 54.8208 18.2575 55.2436 20.412 54.1663L22.2984 53.2239C23.1771 53.6496 24.0923 54.0269 25.0362 54.3527L25.7074 56.3617C26.4665 58.645 28.5923 60.1814 31.0013 60.1814H35.1195C35.4315 60.1814 35.7388 60.1555 36.0392 60.1055L36.0505 55.1735C35.852 55.4948 35.4988 55.6981 35.1074 55.6981H30.9937C30.5134 55.6981 30.0907 55.392 29.9407 54.9375L28.9104 51.8466C28.6771 51.1527 28.1195 50.6133 27.4195 50.4072C25.9892 49.989 24.6332 49.43 23.3862 48.7436C23.0529 48.5618 22.6817 48.4694 22.3105 48.4694C21.9696 48.4694 21.6287 48.5466 21.3105 48.7057L18.409 50.1557C17.9832 50.3769 17.4681 50.2875 17.1272 49.9466L14.2151 47.0345C13.8772 46.6921 13.7924 46.177 14.006 45.7497L15.4575 42.8452C15.7863 42.1861 15.7711 41.4103 15.4151 40.7664C14.7302 39.5179 14.1711 38.1603 13.753 36.7301C13.5484 36.024 13.009 35.4649 12.3166 35.2331L9.22875 34.2013C8.77572 34.0498 8.46967 33.627 8.46967 33.1452V29.0271C8.46967 28.5468 8.77572 28.1241 9.22875 27.9725L12.3166 26.9407C13.0136 26.7074 13.5484 26.1498 13.753 25.4438C14.1711 24.012 14.7302 22.6559 15.4151 21.4059C15.7681 20.762 15.7832 19.9877 15.4575 19.3271L14.0045 16.4272C13.7924 15.9969 13.8742 15.4802 14.2151 15.1423L17.1272 12.2302C17.4635 11.8939 17.9787 11.8075 18.409 12.0211L21.3105 13.4711C21.9696 13.8014 22.7438 13.7817 23.3862 13.4333C24.6332 12.7469 25.9892 12.1878 27.4195 11.7696C28.1195 11.5636 28.6816 11.0242 28.9104 10.3302L29.9407 7.23481C30.0907 6.78178 30.5134 6.47573 30.9937 6.47573H35.1119C35.5922 6.47573 36.0134 6.78178 36.1649 7.23481L37.1952 10.3257C37.427 11.0211 37.9861 11.559 38.6861 11.7651C40.1164 12.1833 41.4709 12.7423 42.7194 13.4287C43.3618 13.7817 44.1361 13.7969 44.7952 13.4681L47.6967 12.0166C48.1224 11.8045 48.6376 11.8893 48.9785 12.2272L51.8906 15.1393C52.2284 15.4802 52.3133 15.9969 52.0997 16.4226L50.6482 19.3271C50.3179 19.9877 50.3345 20.762 50.6906 21.4059C51.3754 22.6559 51.933 24.012 52.3512 25.4438C52.5572 26.1498 53.0951 26.7074 53.789 26.9407L56.8754 27.9725C57.3284 28.1241 57.6345 28.5468 57.6345 29.0271V33.1452H57.6314C57.6314 33.627 57.3254 34.0498 56.8724 34.2013L53.7845 35.2331C53.0875 35.4649 52.5527 36.024 52.3481 36.7301C51.9369 38.1366 51.3908 39.4729 50.7201 40.7042L55.6851 40.7155C55.9049 40.1938 56.1082 39.6611 56.2951 39.1179L58.3057 38.4467C60.586 37.6876 62.1208 35.5588 62.1208 33.1452V29.0271C62.1011 26.6195 60.5678 24.4862 58.286 23.7256Z" fill="#0B2D1F"/>
</g>
</g>
</svg>
