<svg width="72" height="72" viewBox="0 0 72 72" fill="none" xmlns="http://www.w3.org/2000/svg">
<path d="M66.1093 45.5713H39.6367V50.6137H66.1093V45.5713Z" fill="#22885E"/>
<path d="M65 52H41V68H65V52Z" fill="#62C89E"/>
<path fill-rule="evenodd" clip-rule="evenodd" d="M40.4354 45.9076C40.0641 45.9076 39.7631 46.2086 39.7631 46.5799V49.6053C39.7631 49.9766 40.0641 50.2776 40.4354 50.2776H65.3112C65.6825 50.2776 65.9835 49.9766 65.9835 49.6053V46.5799C65.9835 46.2086 65.6825 45.9076 65.3112 45.9076H40.4354ZM37.7461 46.5799C37.7461 45.0947 38.9501 43.8906 40.4354 43.8906H65.3112C66.7964 43.8906 68.0004 45.0947 68.0004 46.5799V49.6053C68.0004 51.0906 66.7964 52.2946 65.3112 52.2946H40.4354C38.9501 52.2946 37.7461 51.0906 37.7461 49.6053V46.5799Z" fill="#0B2D1F"/>
<path d="M56.4243 55.656H49.3229C49.1953 55.656 49.0918 55.7595 49.0918 55.8871V58.7865C49.0918 58.9141 49.1953 59.0176 49.3229 59.0176H56.4243C56.5519 59.0176 56.6554 58.9141 56.6554 58.7865V55.8871C56.6554 55.7595 56.5519 55.656 56.4243 55.656Z" fill="#0B2D1F"/>
<path fill-rule="evenodd" clip-rule="evenodd" d="M41.6526 52.6305V67.0854H64.0912V52.6305H41.6526ZM39.4824 52.6305C39.4824 50.7739 39.796 50.1282 41.6526 50.1282L52.5555 50.1281H64.0912C66.2817 50.1282 66.2815 50.1281 66.2815 52.7426L66.2818 59.9327L66.2817 67.0854C66.2817 69.0838 66.2817 69.0838 64.0912 69.0838H53.2089H41.6524C39.4824 69.0838 39.4824 69.1212 39.4824 67.1228V59.9327V52.6305Z" fill="#0B2D1F"/>
<path d="M18.6656 31.3407C18.7241 31.2817 18.7881 31.2289 18.857 31.1827C18.9258 31.1365 18.9984 31.0973 19.0752 31.0652C19.1519 31.0334 19.2311 31.0091 19.3123 30.993C19.394 30.9765 19.4761 30.9686 19.559 30.9686C19.6423 30.9686 19.7244 30.9765 19.8061 30.993C19.8874 31.0091 19.9665 31.0334 20.0433 31.0652C20.1196 31.0973 20.1926 31.1365 20.2615 31.1827C20.3304 31.2289 20.3943 31.2817 20.4525 31.3407L22.076 32.9766V32.2342C22.076 32.0489 22.0805 31.8637 22.0896 31.6785C22.0987 31.4933 22.1123 31.3085 22.1305 31.1242C22.1486 30.9398 22.1713 30.7558 22.1985 30.5722C22.2257 30.3891 22.2575 30.2064 22.2934 30.0249C22.3297 29.843 22.3701 29.6623 22.4151 29.4825C22.4604 29.3026 22.5095 29.124 22.5636 28.9466C22.6172 28.7693 22.6753 28.5931 22.738 28.4187C22.8003 28.2442 22.8672 28.0713 22.9381 27.9002C23.009 27.729 23.0841 27.5594 23.1633 27.392C23.2425 27.2245 23.3258 27.0591 23.4133 26.8953C23.5003 26.732 23.5919 26.5707 23.6872 26.4119C23.7825 26.2527 23.8815 26.0964 23.9846 25.9421C24.0873 25.7882 24.1941 25.6364 24.3047 25.4875C24.4148 25.339 24.5291 25.1926 24.6466 25.0495C24.7642 24.9063 24.885 24.7661 25.0096 24.6287C25.1342 24.4914 25.262 24.3569 25.3928 24.2261C25.524 24.095 25.658 23.9671 25.7954 23.8425C25.9327 23.7184 26.073 23.5971 26.2165 23.4795C26.3597 23.362 26.5057 23.2481 26.6546 23.1376C26.8035 23.0271 26.9549 22.9206 27.1092 22.8175C27.2634 22.7148 27.4198 22.6154 27.5786 22.5201C27.7378 22.4248 27.8991 22.3337 28.0624 22.2462C28.2258 22.1588 28.3912 22.0754 28.559 21.9962C28.7265 21.9171 28.896 21.842 29.0672 21.771C29.2384 21.7001 29.4112 21.6333 29.5857 21.571C29.7602 21.5087 29.9363 21.4505 30.1137 21.3965C30.2911 21.3429 30.4697 21.2934 30.6491 21.2484C30.829 21.2035 31.01 21.1626 31.1915 21.1267C31.3734 21.0904 31.5562 21.0587 31.7393 21.0314C31.9225 21.0042 32.1064 20.9815 32.2908 20.9634C32.4756 20.9452 32.6604 20.9316 32.8452 20.9225C33.0304 20.9135 33.2156 20.9089 33.4012 20.9089C33.5864 20.9089 33.7716 20.9135 33.9568 20.9225C34.142 20.9316 34.3268 20.9452 34.5112 20.9634C34.6956 20.9815 34.8796 21.0042 35.0627 21.0314C35.2463 21.0587 35.4286 21.0904 35.6105 21.1267C35.7924 21.1626 35.9731 21.2035 36.1529 21.2484C36.3328 21.2934 36.5114 21.3429 36.6887 21.3965C36.8661 21.4505 37.0418 21.5087 37.2163 21.571C37.3908 21.6333 37.5636 21.7001 37.7352 21.771C37.9064 21.842 38.0755 21.9171 38.2434 21.9962C38.4109 22.0754 38.5763 22.1588 38.7396 22.2462C38.9034 22.3337 39.0642 22.4248 39.2235 22.5201C39.3823 22.6154 39.539 22.7148 39.6929 22.8175C39.8471 22.9206 39.9985 23.0271 40.1474 23.1376C40.2963 23.2481 40.4424 23.362 40.5859 23.4795C40.729 23.5971 40.8693 23.7184 41.0066 23.8425C41.144 23.9671 41.2781 24.095 41.4092 24.2261C41.5404 24.3569 41.6679 24.4914 41.7924 24.6287C41.917 24.7661 42.0379 24.9063 42.1554 25.0495C42.273 25.1926 42.3872 25.339 42.4974 25.4875C42.6079 25.6364 42.7147 25.7882 42.8175 25.9421C42.9206 26.0964 43.0196 26.2527 43.1149 26.4119C43.2101 26.5707 43.3017 26.732 43.3892 26.8953C43.4762 27.0591 43.5595 27.2245 43.6391 27.392C43.7183 27.5594 43.7934 27.729 43.8643 27.9002C43.9353 28.0713 44.0017 28.2442 44.0644 28.4187C44.1267 28.5931 44.1848 28.7693 44.2385 28.9466C44.2925 29.124 44.342 29.3026 44.387 29.4825C44.4319 29.6623 44.4724 29.843 44.5087 30.0249C44.545 30.2064 44.5763 30.3891 44.6035 30.5722C44.6307 30.7558 44.6534 30.9398 44.6716 31.1242C44.6897 31.3085 44.7033 31.4933 44.7128 31.6785C44.7219 31.8637 44.7264 32.0489 44.7264 32.2342C44.7264 32.4194 44.7219 32.6046 44.7128 32.7898C44.7033 32.975 44.6897 33.1598 44.6716 33.3442C44.6534 33.5285 44.6307 33.7125 44.6035 33.8961C44.5763 34.0792 44.545 34.2619 44.5087 34.4434C44.4724 34.6253 44.4319 34.806 44.387 34.9859C44.342 35.1657 44.2925 35.3443 44.2385 35.5217C44.1848 35.699 44.1267 35.8752 44.0644 36.0497C44.0017 36.2241 43.9353 36.397 43.8643 36.5681C43.7934 36.7393 43.7183 36.9089 43.6391 37.0763C43.5595 37.2438 43.4762 37.4092 43.3892 37.573C43.3017 37.7363 43.2101 37.8976 43.1149 38.0564C43.0196 38.2156 42.9206 38.3719 42.8175 38.5262C42.7147 38.6801 42.6079 38.8319 42.4974 38.9808C42.3872 39.1293 42.273 39.2757 42.1554 39.4188C42.0379 39.562 41.917 39.7022 41.7924 39.8396C41.6679 39.9769 41.5404 40.1114 41.4092 40.2422C41.2781 40.3733 41.144 40.5012 41.0066 40.6258C40.8693 40.7499 40.729 40.8712 40.5859 40.9888C40.4424 41.1063 40.2963 41.2202 40.1474 41.3307C39.9985 41.4413 39.8471 41.5477 39.6929 41.6508C39.539 41.7535 39.3823 41.8529 39.2235 41.9482C39.0642 42.0435 38.9034 42.1346 38.7396 42.2221C38.5763 42.3095 38.4109 42.3929 38.2434 42.4721C38.0755 42.5513 37.9064 42.6263 37.7352 42.6973C37.5636 42.7682 37.3908 42.835 37.2163 42.8973C37.0418 42.9596 36.8661 43.0178 36.6887 43.0718C36.5114 43.1254 36.3328 43.1749 36.1529 43.2199C35.9731 43.2649 35.7924 43.3057 35.6105 43.3416C35.4286 43.3779 35.2463 43.4096 35.0627 43.4369C34.8796 43.4641 34.6956 43.4868 34.5112 43.5049C34.3268 43.5231 34.142 43.5367 33.9568 43.5458C33.7716 43.5548 33.5864 43.5594 33.4012 43.5594C32.8258 43.561 32.2537 43.5185 31.6849 43.4319C31.1161 43.3453 30.5575 43.2158 30.0085 43.0425C29.4599 42.8697 28.9278 42.6556 28.4122 42.4007C27.8966 42.1454 27.4037 41.8521 26.933 41.5209C26.8654 41.473 26.8031 41.419 26.7458 41.3588C26.6888 41.2985 26.6381 41.2334 26.594 41.1628C26.5494 41.0927 26.5127 41.0189 26.483 40.9413C26.4533 40.8638 26.4314 40.7842 26.4174 40.7025C26.4034 40.6208 26.3972 40.5383 26.3997 40.4554C26.4017 40.3725 26.4121 40.2904 26.4302 40.2096C26.4488 40.1287 26.4748 40.0504 26.5086 39.9745C26.5424 39.8986 26.5832 39.8268 26.6311 39.7591C26.6789 39.6915 26.733 39.6288 26.7932 39.5719C26.8534 39.5149 26.9186 39.4642 26.9891 39.4197C27.0592 39.3755 27.1331 39.3384 27.2106 39.3087C27.2882 39.279 27.3678 39.2571 27.4495 39.2431C27.5311 39.2291 27.6136 39.2233 27.6965 39.2254C27.7794 39.2279 27.8615 39.2382 27.9424 39.2563C28.0232 39.2749 28.1016 39.3009 28.1775 39.3347C28.2534 39.3685 28.3252 39.4094 28.3928 39.4572C28.7579 39.7171 29.1407 39.9468 29.5416 40.1465C29.9429 40.3461 30.3571 40.5132 30.7844 40.6476C31.2113 40.7821 31.6465 40.8828 32.0899 40.9487C32.5329 41.0152 32.9784 41.0465 33.4264 41.0428C33.5703 41.0428 33.7143 41.0391 33.8583 41.0321C34.0026 41.0251 34.1462 41.0143 34.2897 41.0003C34.4333 40.9863 34.576 40.9685 34.7187 40.9475C34.8614 40.9261 35.0033 40.9017 35.1448 40.8733C35.2863 40.8452 35.4265 40.8139 35.5664 40.7788C35.7062 40.7437 35.8452 40.7054 35.9834 40.6633C36.1212 40.6216 36.2581 40.5763 36.3938 40.5276C36.5295 40.4793 36.664 40.4274 36.7972 40.3721C36.9305 40.3168 37.062 40.2587 37.1924 40.1968C37.3227 40.1353 37.4514 40.0706 37.5785 40.0025C37.7055 39.9344 37.8309 39.8635 37.9547 39.7893C38.0784 39.7154 38.2001 39.6383 38.3201 39.5583C38.4397 39.4782 38.5577 39.3949 38.6736 39.3091C38.7891 39.2233 38.903 39.1346 39.0143 39.0431C39.1257 38.9519 39.235 38.8574 39.3419 38.7609C39.4487 38.664 39.553 38.5646 39.6549 38.4627C39.7568 38.3608 39.8562 38.2565 39.9527 38.1496C40.0497 38.0428 40.1437 37.9335 40.2353 37.8221C40.3269 37.7107 40.4156 37.5973 40.5013 37.4814C40.5871 37.3655 40.6701 37.2479 40.7501 37.1279C40.8305 37.0079 40.9072 36.8862 40.9815 36.7624C41.0557 36.6391 41.1267 36.5137 41.1947 36.3867C41.2628 36.2592 41.3276 36.1305 41.389 36.0002C41.4505 35.8698 41.5091 35.7382 41.5643 35.605C41.6192 35.4718 41.6712 35.3373 41.7198 35.2016C41.7685 35.0659 41.8135 34.9289 41.8555 34.7912C41.8972 34.653 41.9356 34.5144 41.9706 34.3745C42.0057 34.2347 42.0374 34.0941 42.0655 33.9526C42.0935 33.8111 42.1183 33.6692 42.1393 33.5265C42.1604 33.3842 42.1781 33.241 42.1921 33.0975C42.2066 32.9539 42.2169 32.8104 42.2243 32.6664C42.2313 32.5225 42.2346 32.3781 42.2346 32.2342C42.2346 32.0902 42.2313 31.9458 42.2243 31.8019C42.2169 31.6579 42.2066 31.5144 42.1921 31.3708C42.1781 31.2273 42.1604 31.0841 42.1393 30.9418C42.1183 30.7991 42.0935 30.6572 42.0655 30.5157C42.0374 30.3743 42.0057 30.2336 41.9706 30.0938C41.9356 29.9539 41.8972 29.8153 41.8555 29.6772C41.8135 29.5394 41.7685 29.4024 41.7198 29.2667C41.6712 29.131 41.6196 28.9966 41.5643 28.8633C41.5091 28.7301 41.4505 28.5985 41.389 28.4682C41.3276 28.3378 41.2628 28.2091 41.1947 28.0817C41.1267 27.9546 41.0557 27.8292 40.9815 27.7059C40.9072 27.5821 40.8305 27.4605 40.7501 27.3404C40.6701 27.2204 40.5871 27.1028 40.5013 26.9869C40.4156 26.871 40.3269 26.7576 40.2353 26.6462C40.1437 26.5348 40.0497 26.4255 39.9527 26.3187C39.8562 26.2119 39.7568 26.1075 39.6549 26.0056C39.553 25.9037 39.4487 25.8043 39.3419 25.7074C39.235 25.6109 39.1257 25.5164 39.0143 25.4252C38.903 25.3337 38.7891 25.245 38.6736 25.1592C38.5577 25.0734 38.4397 24.9901 38.3201 24.9101C38.2001 24.83 38.0784 24.7529 37.9547 24.6786C37.8309 24.6048 37.7055 24.5339 37.5785 24.4658C37.4514 24.3977 37.3227 24.333 37.1924 24.2715C37.062 24.2096 36.9305 24.1515 36.7972 24.0962C36.664 24.0409 36.5295 23.989 36.3938 23.9407C36.2581 23.892 36.1212 23.8467 35.9834 23.805C35.8452 23.7629 35.7062 23.7246 35.5664 23.6895C35.4265 23.6544 35.2863 23.6231 35.1448 23.595C35.0033 23.5666 34.8614 23.5422 34.7187 23.5208C34.576 23.4998 34.4333 23.482 34.2897 23.468C34.1462 23.454 34.0026 23.4433 33.8583 23.4362C33.7143 23.4292 33.5703 23.4255 33.4264 23.4255C33.282 23.4255 33.1381 23.4292 32.9941 23.4362C32.8501 23.4433 32.7062 23.454 32.5631 23.468C32.4195 23.482 32.2764 23.4998 32.1337 23.5208C31.9913 23.5422 31.849 23.5666 31.708 23.595C31.5665 23.6231 31.4258 23.6544 31.286 23.6895C31.1462 23.7246 31.0072 23.7629 30.8694 23.805C30.7312 23.8467 30.5947 23.892 30.4585 23.9407C30.3228 23.989 30.1884 24.0409 30.0555 24.0962C29.9223 24.1515 29.7903 24.2096 29.66 24.2715C29.5296 24.333 29.4009 24.3977 29.2739 24.4658C29.1468 24.5339 29.0214 24.6048 28.8977 24.6786C28.774 24.7529 28.6523 24.83 28.5326 24.9101C28.4126 24.9901 28.2946 25.0734 28.1791 25.1592C28.0632 25.245 27.9498 25.3337 27.838 25.4252C27.7267 25.5164 27.6178 25.6109 27.5109 25.7074C27.4041 25.8043 27.2997 25.9037 27.1978 26.0056C27.096 26.1075 26.9966 26.2119 26.8996 26.3187C26.8027 26.4255 26.7086 26.5348 26.6171 26.6462C26.5259 26.7576 26.4372 26.871 26.351 26.9869C26.2652 27.1028 26.1823 27.2204 26.1023 27.3404C26.0223 27.4605 25.9451 27.5821 25.8709 27.7059C25.7966 27.8292 25.7257 27.9546 25.658 28.0817C25.59 28.2091 25.5252 28.3378 25.4633 28.4682C25.4019 28.5985 25.3433 28.7301 25.2884 28.8633C25.2332 28.9966 25.1812 29.131 25.1325 29.2667C25.0843 29.4024 25.0389 29.5394 24.9972 29.6772C24.9552 29.8153 24.9168 29.9539 24.8817 30.0938C24.8467 30.2336 24.8153 30.3743 24.7869 30.5157C24.7588 30.6572 24.7341 30.7991 24.713 30.9418C24.692 31.0841 24.6743 31.2273 24.6602 31.3708C24.6462 31.5144 24.6355 31.6579 24.6285 31.8019C24.6215 31.9458 24.6177 32.0902 24.6177 32.2342V32.9766L26.2409 31.3407C26.2999 31.2821 26.3634 31.2298 26.4327 31.184C26.5016 31.1378 26.5742 31.099 26.6509 31.0672C26.7276 31.0355 26.8064 31.0115 26.8881 30.9955C26.9693 30.9794 27.0514 30.9711 27.1343 30.9715C27.2172 30.9715 27.2993 30.9794 27.3806 30.9959C27.4618 31.012 27.541 31.0359 27.6173 31.0676C27.6941 31.0994 27.7671 31.1382 27.836 31.1844C27.9048 31.2306 27.9684 31.283 28.0274 31.3415C28.0859 31.4001 28.1383 31.4636 28.1841 31.5329C28.2303 31.6018 28.2691 31.6744 28.3008 31.7511C28.3326 31.8279 28.3569 31.9066 28.373 31.9879C28.3891 32.0692 28.3974 32.1512 28.3974 32.2342C28.3974 32.3175 28.3891 32.3996 28.373 32.4808C28.3569 32.5621 28.333 32.6409 28.3012 32.7176C28.2699 32.7943 28.2307 32.8673 28.1849 32.9362C28.1387 33.0051 28.0863 33.069 28.0278 33.1276L24.2527 36.9027C24.1442 37.0091 24.018 37.0891 23.8753 37.1419C23.7503 37.1926 23.6204 37.2178 23.4851 37.2174H23.2462C23.1456 37.2294 23.0449 37.2294 22.9443 37.2174H22.8185C22.6803 37.1568 22.5545 37.0772 22.4406 36.9782L18.6656 33.2031C18.6008 33.1441 18.5426 33.0789 18.4915 33.008C18.4404 32.937 18.3966 32.8611 18.3612 32.7811C18.3257 32.7007 18.2989 32.6178 18.2811 32.532C18.263 32.4462 18.2539 32.3596 18.2539 32.2721C18.2539 32.1842 18.263 32.0976 18.2811 32.0118C18.2989 31.926 18.3257 31.8431 18.3612 31.7627C18.3966 31.6827 18.4404 31.6068 18.4915 31.5358C18.5426 31.4649 18.6008 31.3997 18.6656 31.3407Z" fill="#0B2D1F"/>
<path fill-rule="evenodd" clip-rule="evenodd" d="M58.286 23.7256L56.2754 23.0544C55.9542 22.1089 55.5739 21.1938 55.1481 20.3135L56.089 18.4241C57.1633 16.2711 56.7436 13.6817 55.0436 11.9742L52.1315 9.05753C50.43 7.35905 47.8436 6.9333 45.6891 8.01056L43.8027 8.95298C42.924 8.52723 42.0103 8.14996 41.0649 7.8242L40.3952 5.81664C39.6437 3.53484 37.5164 2 35.1074 2H30.9937C28.5892 2 26.4589 3.53484 25.7029 5.81967L25.0286 7.83329C24.0877 8.1545 23.1741 8.5348 22.2908 8.96056L20.4044 8.01814C18.2499 6.94087 15.6666 7.3636 13.9621 9.06662L11.05 11.9817C9.34996 13.6848 8.93178 16.2757 10.0045 18.4317L10.9454 20.3211C10.5197 21.2014 10.1439 22.1165 9.81814 23.062L7.80755 23.7332C5.53484 24.4862 4 26.615 4 29.0271V33.1498C4 35.5588 5.53484 37.6876 7.81512 38.4513L9.82572 39.1225C10.1469 40.0679 10.5272 40.9846 10.953 41.8649L10.0121 43.7527C8.93936 45.9057 9.35754 48.4966 11.0575 50.2027L13.9696 53.1193C15.6711 54.8208 18.2575 55.2436 20.412 54.1663L22.2984 53.2239C23.1771 53.6496 24.0923 54.0269 25.0362 54.3527L25.7074 56.3617C26.4665 58.645 28.5923 60.1814 31.0013 60.1814H35.1195C35.4315 60.1814 35.7388 60.1555 36.0392 60.1055L36.0505 55.1735C35.852 55.4948 35.4988 55.6981 35.1074 55.6981H30.9937C30.5134 55.6981 30.0907 55.392 29.9407 54.9375L28.9104 51.8466C28.6771 51.1527 28.1195 50.6133 27.4195 50.4072C25.9892 49.989 24.6332 49.43 23.3862 48.7436C23.0529 48.5618 22.6817 48.4694 22.3105 48.4694C21.9696 48.4694 21.6287 48.5466 21.3105 48.7057L18.409 50.1557C17.9832 50.3769 17.4681 50.2875 17.1272 49.9466L14.2151 47.0345C13.8772 46.6921 13.7924 46.177 14.006 45.7497L15.4575 42.8452C15.7863 42.1861 15.7711 41.4103 15.4151 40.7664C14.7302 39.5179 14.1711 38.1603 13.753 36.7301C13.5484 36.024 13.009 35.4649 12.3166 35.2331L9.22875 34.2013C8.77572 34.0498 8.46967 33.627 8.46967 33.1452V29.0271C8.46967 28.5468 8.77572 28.1241 9.22875 27.9725L12.3166 26.9407C13.0136 26.7074 13.5484 26.1498 13.753 25.4438C14.1711 24.012 14.7302 22.6559 15.4151 21.4059C15.7681 20.762 15.7832 19.9877 15.4575 19.3271L14.0045 16.4272C13.7924 15.9969 13.8742 15.4802 14.2151 15.1423L17.1272 12.2302C17.4635 11.8939 17.9787 11.8075 18.409 12.0211L21.3105 13.4711C21.9696 13.8014 22.7438 13.7817 23.3862 13.4333C24.6332 12.7469 25.9892 12.1878 27.4195 11.7696C28.1195 11.5636 28.6816 11.0242 28.9104 10.3302L29.9407 7.23481C30.0907 6.78178 30.5134 6.47573 30.9937 6.47573H35.1119C35.5922 6.47573 36.0134 6.78178 36.1649 7.23481L37.1952 10.3257C37.427 11.0211 37.9861 11.559 38.6861 11.7651C40.1164 12.1833 41.4709 12.7423 42.7194 13.4287C43.3618 13.7817 44.1361 13.7969 44.7952 13.4681L47.6967 12.0166C48.1224 11.8045 48.6376 11.8893 48.9785 12.2272L51.8906 15.1393C52.2284 15.4802 52.3133 15.9969 52.0997 16.4226L50.6482 19.3271C50.3179 19.9877 50.3345 20.762 50.6906 21.4059C51.3754 22.6559 51.933 24.012 52.3512 25.4438C52.5572 26.1498 53.0951 26.7074 53.789 26.9407L56.8754 27.9725C57.3284 28.1241 57.6345 28.5468 57.6345 29.0271V33.1452H57.6314C57.6314 33.627 57.3254 34.0498 56.8724 34.2013L53.7845 35.2331C53.0875 35.4649 52.5527 36.024 52.3481 36.7301C51.9369 38.1366 51.3908 39.4729 50.7201 40.7042L55.6851 40.7155C55.9049 40.1938 56.1082 39.6611 56.2951 39.1179L58.3057 38.4467C60.586 37.6876 62.1208 35.5588 62.1208 33.1452V29.0271C62.1011 26.6195 60.5678 24.4862 58.286 23.7256Z" fill="#0B2D1F"/>
</svg>
