<svg version="1.1" id="Layer_1" xmlns="http://www.w3.org/2000/svg" xmlns:xlink="http://www.w3.org/1999/xlink" x="0px" y="0px"
	 width="100%" viewBox="0 0 336 276" enable-background="new 0 0 336 276" xml:space="preserve">
<path fill="#FEFEFE" opacity="1.000000" stroke="none" 
	d="
M231.000000,277.000000 
	C154.000031,277.000000 77.500076,277.000000 1.000082,277.000000 
	C1.000055,185.000076 1.000055,93.000160 1.000027,1.000181 
	C112.999870,1.000121 224.999741,1.000121 336.999695,1.000060 
	C336.999817,92.999825 336.999817,184.999649 336.999908,276.999756 
	C301.833344,277.000000 266.666656,277.000000 231.000000,277.000000 
M287.733337,152.768555 
	C258.428986,127.406593 229.124664,102.044632 199.716202,76.592567 
	C198.527115,77.386368 197.501877,77.923729 196.649551,78.660995 
	C163.549515,107.292656 130.681366,136.199051 97.215393,164.395950 
	C89.578316,170.830612 86.201118,177.286423 87.225929,187.154861 
	C88.110329,195.671143 87.409294,195.744034 96.174850,195.744232 
	C103.082191,195.744385 109.989540,195.744278 117.332794,195.744278 
	C117.332794,221.189255 117.332794,245.761795 117.332794,270.373260 
	C172.309555,270.373260 226.819321,270.373260 281.561676,270.373260 
	C281.561676,269.032501 281.561737,268.054840 281.561676,267.077148 
	C281.560333,245.422165 281.690582,223.765778 281.456146,202.113312 
	C281.403931,197.291855 282.310822,195.183029 287.707977,195.616898 
	C294.328156,196.149063 301.025055,195.668488 307.686432,195.774002 
	C310.621094,195.820480 311.953308,194.776825 311.858582,191.703506 
	C311.709839,186.877335 312.139130,182.011703 311.670563,177.226730 
	C311.456635,175.042145 310.158478,172.499237 308.537628,170.998322 
	C301.948517,164.896683 295.043762,159.135849 287.733337,152.768555 
M36.862408,64.876747 
	C38.172859,71.054382 39.332169,77.269722 40.860023,83.393112 
	C41.581573,86.284973 41.009510,87.908340 38.376648,89.506325 
	C29.890636,94.656845 21.584274,100.103371 12.824275,105.680489 
	C14.303481,106.961380 15.311496,108.059563 16.522371,108.845001 
	C22.801926,112.918205 28.962345,117.221855 35.505348,120.826035 
	C40.030422,123.318634 41.732056,126.287666 39.961105,131.152313 
	C39.678356,131.929016 39.495651,132.748398 39.331985,133.561203 
	C37.711082,141.611038 36.103943,149.663651 34.310257,158.628357 
	C44.418514,156.563293 53.592682,155.028107 62.565151,152.711655 
	C66.989403,151.569412 69.408356,152.540207 71.346802,156.471466 
	C72.472443,158.754303 74.251312,160.715042 75.899239,163.051880 
	C83.058533,156.806458 89.725739,150.990311 96.392944,145.174164 
	C96.312973,144.758820 96.233002,144.343460 96.153030,143.928116 
	C83.142540,144.723633 70.606079,143.572708 60.863243,134.018433 
	C51.168713,124.511528 47.763569,112.867714 49.937992,99.388222 
	C53.005924,80.369766 70.099937,67.355103 91.101906,69.144295 
	C103.848755,70.230209 113.732803,76.752747 119.883759,88.102814 
	C125.835892,99.085976 126.083076,110.671051 122.474731,122.611336 
	C131.552979,114.739609 140.631226,106.867874 150.233490,98.541763 
	C145.160095,95.325668 140.936676,92.412575 136.484451,89.905884 
	C133.320969,88.124779 132.614288,85.927933 133.462479,82.525711 
	C134.949585,76.560638 136.126343,70.516235 137.350067,64.488197 
	C138.056290,61.009262 138.599854,57.497299 139.317490,53.428379 
	C128.819397,55.534592 119.165726,57.220764 109.658394,59.513718 
	C106.295181,60.324852 104.769257,59.265808 103.190453,56.752457 
	C98.854286,49.849541 94.416275,43.010223 89.975044,36.174011 
	C89.048744,34.748207 87.935280,33.444000 86.656624,31.750778 
	C82.089966,38.820511 77.977974,45.267971 73.782944,51.660938 
	C68.029854,60.428280 68.023880,60.313454 57.813129,58.103245 
	C50.269592,56.470379 42.662186,55.132557 34.293221,53.510132 
	C35.212910,57.668949 35.920746,60.869762 36.862408,64.876747 
M79.059219,126.839516 
	C80.027855,127.071869 80.998146,127.297546 81.964874,127.537628 
	C90.623634,129.687958 100.317886,125.958427 105.112602,118.629738 
	C110.642235,110.177719 110.321770,99.806213 104.292274,92.080193 
	C98.831367,85.082710 88.516678,82.086807 79.991249,85.021942 
	C70.860817,88.165367 65.182198,95.180420 64.838219,104.617737 
	C64.468254,114.768188 69.084770,122.152168 79.059219,126.839516 
z"/>
<path fill="#1B3354" opacity="1.000000" stroke="none" 
	d="
M287.994385,153.008972 
	C295.043762,159.135849 301.948517,164.896683 308.537628,170.998322 
	C310.158478,172.499237 311.456635,175.042145 311.670563,177.226730 
	C312.139130,182.011703 311.709839,186.877335 311.858582,191.703506 
	C311.953308,194.776825 310.621094,195.820480 307.686432,195.774002 
	C301.025055,195.668488 294.328156,196.149063 287.707977,195.616898 
	C282.310822,195.183029 281.403931,197.291855 281.456146,202.113312 
	C281.690582,223.765778 281.560333,245.422165 281.561676,267.077148 
	C281.561737,268.054840 281.561676,269.032501 281.561676,270.373260 
	C226.819321,270.373260 172.309555,270.373260 117.332794,270.373260 
	C117.332794,245.761795 117.332794,221.189255 117.332794,195.744278 
	C109.989540,195.744278 103.082191,195.744385 96.174850,195.744232 
	C87.409294,195.744034 88.110329,195.671143 87.225929,187.154861 
	C86.201118,177.286423 89.578316,170.830612 97.215393,164.395950 
	C130.681366,136.199051 163.549515,107.292656 196.649551,78.660995 
	C197.501877,77.923729 198.527115,77.386368 199.716202,76.592567 
	C229.124664,102.044632 258.428986,127.406593 287.994385,153.008972 
M218.038971,165.405991 
	C205.730789,165.404358 193.422531,165.423904 181.114456,165.384796 
	C178.366486,165.376053 176.206863,165.618317 176.236618,169.284256 
	C176.340591,182.090576 176.183334,194.900085 176.434875,207.702316 
	C176.458939,208.927155 178.620621,211.131454 179.823303,211.154678 
	C192.791885,211.405075 205.768936,211.401474 218.737579,211.151337 
	C219.917007,211.128601 222.036316,208.932800 222.059692,207.714294 
	C222.305389,194.911850 222.306900,182.101196 222.071243,169.298401 
	C222.047134,167.988678 220.041595,166.715424 218.038971,165.405991 
z"/>
<path fill="#1E3556" opacity="1.000000" stroke="none" 
	d="
M36.745495,64.473663 
	C35.920746,60.869762 35.212910,57.668949 34.293221,53.510132 
	C42.662186,55.132557 50.269592,56.470379 57.813129,58.103245 
	C68.023880,60.313454 68.029854,60.428280 73.782944,51.660938 
	C77.977974,45.267971 82.089966,38.820511 86.656624,31.750778 
	C87.935280,33.444000 89.048744,34.748207 89.975044,36.174011 
	C94.416275,43.010223 98.854286,49.849541 103.190453,56.752457 
	C104.769257,59.265808 106.295181,60.324852 109.658394,59.513718 
	C119.165726,57.220764 128.819397,55.534592 139.317490,53.428379 
	C138.599854,57.497299 138.056290,61.009262 137.350067,64.488197 
	C136.126343,70.516235 134.949585,76.560638 133.462479,82.525711 
	C132.614288,85.927933 133.320969,88.124779 136.484451,89.905884 
	C140.936676,92.412575 145.160095,95.325668 150.233490,98.541763 
	C140.631226,106.867874 131.552979,114.739609 122.474731,122.611336 
	C126.083076,110.671051 125.835892,99.085976 119.883759,88.102814 
	C113.732803,76.752747 103.848755,70.230209 91.101906,69.144295 
	C70.099937,67.355103 53.005924,80.369766 49.937992,99.388222 
	C47.763569,112.867714 51.168713,124.511528 60.863243,134.018433 
	C70.606079,143.572708 83.142540,144.723633 96.153030,143.928116 
	C96.233002,144.343460 96.312973,144.758820 96.392944,145.174164 
	C89.725739,150.990311 83.058533,156.806458 75.899239,163.051880 
	C74.251312,160.715042 72.472443,158.754303 71.346802,156.471466 
	C69.408356,152.540207 66.989403,151.569412 62.565151,152.711655 
	C53.592682,155.028107 44.418514,156.563293 34.310257,158.628357 
	C36.103943,149.663651 37.711082,141.611038 39.331985,133.561203 
	C39.495651,132.748398 39.678356,131.929016 39.961105,131.152313 
	C41.732056,126.287666 40.030422,123.318634 35.505348,120.826035 
	C28.962345,117.221855 22.801926,112.918205 16.522371,108.845001 
	C15.311496,108.059563 14.303481,106.961380 12.824275,105.680489 
	C21.584274,100.103371 29.890636,94.656845 38.376648,89.506325 
	C41.009510,87.908340 41.581573,86.284973 40.860023,83.393112 
	C39.332169,77.269722 38.172859,71.054382 36.745495,64.473663 
z"/>
<path fill="#1C3355" opacity="1.000000" stroke="none" 
	d="
M78.691223,126.691788 
	C69.084770,122.152168 64.468254,114.768188 64.838219,104.617737 
	C65.182198,95.180420 70.860817,88.165367 79.991249,85.021942 
	C88.516678,82.086807 98.831367,85.082710 104.292274,92.080193 
	C110.321770,99.806213 110.642235,110.177719 105.112602,118.629738 
	C100.317886,125.958427 90.623634,129.687958 81.964874,127.537628 
	C80.998146,127.297546 80.027855,127.071869 78.691223,126.691788 
z"/>
<path fill="#FBFCFB" opacity="1.000000" stroke="none" 
	d="
M218.497223,165.415619 
	C220.041595,166.715424 222.047134,167.988678 222.071243,169.298401 
	C222.306900,182.101196 222.305389,194.911850 222.059692,207.714294 
	C222.036316,208.932800 219.917007,211.128601 218.737579,211.151337 
	C205.768936,211.401474 192.791885,211.405075 179.823303,211.154678 
	C178.620621,211.131454 176.458939,208.927155 176.434875,207.702316 
	C176.183334,194.900085 176.340591,182.090576 176.236618,169.284256 
	C176.206863,165.618317 178.366486,165.376053 181.114456,165.384796 
	C193.422531,165.423904 205.730789,165.404358 218.497223,165.415619 
z"/>
</svg>