<svg version="1.1" id="Layer_1" xmlns="http://www.w3.org/2000/svg" xmlns:xlink="http://www.w3.org/1999/xlink" x="0px" y="0px"
	 width="100%" viewBox="0 0 324 265" enable-background="new 0 0 324 265" xml:space="preserve">
<path fill="#FEFEFE" opacity="1.000000" stroke="none" 
	d="
M225.000000,266.000000 
	C150.031616,266.000000 75.563240,266.000000 1.047432,266.000000 
	C1.047432,177.735809 1.047432,89.471573 1.047432,1.103671 
	C108.884964,1.103671 216.770050,1.103671 324.827576,1.103671 
	C324.827576,89.333054 324.827576,177.666504 324.827576,266.000000 
	C291.805023,266.000000 258.652527,266.000000 225.000000,266.000000 
M298.261414,256.862549 
	C306.253326,256.769043 310.537231,254.405518 311.965851,249.301514 
	C314.299377,240.964447 309.275848,234.880417 299.952362,234.879089 
	C208.629486,234.866135 117.306602,234.871048 25.983721,234.872192 
	C25.150602,234.872208 24.314005,234.844116 23.484907,234.906830 
	C15.239717,235.530487 10.691083,243.639664 14.574829,250.926239 
	C17.307884,256.053894 22.074339,256.893524 27.348101,256.891357 
	C117.337776,256.853943 207.327469,256.862854 298.261414,256.862549 
M145.500000,211.930405 
	C168.474838,211.930237 191.449677,211.948456 214.424484,211.921967 
	C225.413635,211.909302 231.630020,205.113815 230.855743,194.069580 
	C229.207703,170.561783 209.973892,152.353378 186.296997,152.094910 
	C171.981018,151.938614 157.659836,152.221558 143.344727,152.029556 
	C117.990608,151.689484 98.108780,170.360092 96.604355,193.255478 
	C95.846725,204.785583 101.465637,211.863510 113.034470,211.919083 
	C123.522751,211.969467 134.011475,211.930161 145.500000,211.930405 
M201.033020,100.400276 
	C201.715744,79.868141 184.223206,59.413437 158.520477,62.744961 
	C136.211929,65.636536 121.606911,87.476524 127.837387,109.198448 
	C133.130692,127.653030 149.441025,138.738358 168.219528,136.644180 
	C185.932053,134.668900 199.718445,119.795418 201.033020,100.400276 
M119.501678,126.848625 
	C113.806847,125.264175 108.161736,122.570648 102.407425,122.312637 
	C87.797806,121.657593 73.138824,122.022583 58.500423,122.111961 
	C42.641262,122.208778 29.835506,133.896881 28.182863,149.608139 
	C27.166569,159.269806 32.178833,166.010849 41.995060,166.441956 
	C56.769314,167.090820 71.581718,166.949554 86.377281,166.910355 
	C87.819824,166.906540 89.551781,165.534302 90.643890,164.336395 
	C94.100456,160.545029 97.064796,156.283218 100.678322,152.661087 
	C108.469360,144.851501 118.302963,140.565765 130.043747,137.443146 
	C126.274376,133.588364 123.186890,130.430908 119.501678,126.848625 
M263.413422,122.095207 
	C250.247360,122.095650 237.076309,121.871620 223.916748,122.164276 
	C212.434235,122.419624 202.985107,126.681320 197.192993,137.730728 
	C214.347351,141.628265 227.839630,150.320831 237.378876,164.871506 
	C238.064941,165.917984 239.780701,166.891434 241.013260,166.886002 
	C255.997635,166.819992 270.984711,166.692444 285.962982,166.284164 
	C290.892639,166.149780 294.922607,163.084152 296.076355,158.589691 
	C297.226959,154.107315 297.461456,148.901093 296.382782,144.425491 
	C292.952637,130.192810 280.827484,122.084259 263.413422,122.095207 
M74.866936,105.844154 
	C79.627876,105.818306 84.547813,106.561668 89.118813,105.616875 
	C101.016518,103.157715 109.711182,92.789482 111.617599,79.919342 
	C113.167183,69.458199 106.631874,56.875759 96.816002,51.421787 
	C85.617531,45.199600 72.685631,46.116592 63.226616,53.967804 
	C54.963142,60.826687 50.950855,69.738304 52.365921,80.395241 
	C54.081100,93.312317 61.616833,101.729149 74.866936,105.844154 
M276.536346,78.257126 
	C277.943512,58.432163 257.356781,41.669838 236.710678,49.111351 
	C222.690842,54.164543 214.635605,68.853317 217.737762,83.013664 
	C220.903564,97.464493 234.064484,107.581749 248.601761,106.739883 
	C263.143829,105.897758 275.206879,93.917061 276.536346,78.257126 
z"/>
<path fill="#1B3354" opacity="1.000000" stroke="none" 
	d="
M297.789307,256.862061 
	C207.327469,256.862854 117.337776,256.853943 27.348101,256.891357 
	C22.074339,256.893524 17.307884,256.053894 14.574829,250.926239 
	C10.691083,243.639664 15.239717,235.530487 23.484907,234.906830 
	C24.314005,234.844116 25.150602,234.872208 25.983721,234.872192 
	C117.306602,234.871048 208.629486,234.866135 299.952362,234.879089 
	C309.275848,234.880417 314.299377,240.964447 311.965851,249.301514 
	C310.537231,254.405518 306.253326,256.769043 297.789307,256.862061 
z"/>
<path fill="#1B3354" opacity="1.000000" stroke="none" 
	d="
M145.000000,211.930389 
	C134.011475,211.930161 123.522751,211.969467 113.034470,211.919083 
	C101.465637,211.863510 95.846725,204.785583 96.604355,193.255478 
	C98.108780,170.360092 117.990608,151.689484 143.344727,152.029556 
	C157.659836,152.221558 171.981018,151.938614 186.296997,152.094910 
	C209.973892,152.353378 229.207703,170.561783 230.855743,194.069580 
	C231.630020,205.113815 225.413635,211.909302 214.424484,211.921967 
	C191.449677,211.948456 168.474838,211.930237 145.000000,211.930389 
M165.500061,174.287094 
	C157.683914,174.287247 149.866440,174.195969 142.051941,174.309402 
	C130.928467,174.470856 122.370529,180.438705 120.602119,189.233032 
	C149.371857,189.233032 178.104172,189.233032 207.494553,189.233032 
	C204.142944,181.400421 199.217163,176.067719 191.353928,175.165955 
	C183.143677,174.224365 174.790649,174.527939 165.500061,174.287094 
z"/>
<path fill="#1C3355" opacity="1.000000" stroke="none" 
	d="
M201.002136,100.855103 
	C199.718445,119.795418 185.932053,134.668900 168.219528,136.644180 
	C149.441025,138.738358 133.130692,127.653030 127.837387,109.198448 
	C121.606911,87.476524 136.211929,65.636536 158.520477,62.744961 
	C184.223206,59.413437 201.715744,79.868141 201.002136,100.855103 
M178.921448,97.847214 
	C178.410019,96.280731 178.043045,94.648163 177.361862,93.159363 
	C174.579010,87.077118 169.782852,84.174355 163.095078,84.430977 
	C156.490204,84.684425 151.144409,88.115097 149.488556,94.150864 
	C147.850891,100.120361 148.221619,106.020012 153.295456,110.668739 
	C157.903763,114.890945 163.225250,116.086708 168.950455,113.795387 
	C175.614304,111.128403 178.971619,105.932243 178.921448,97.847214 
z"/>
<path fill="#1B3354" opacity="1.000000" stroke="none" 
	d="
M119.800537,127.061050 
	C123.186890,130.430908 126.274376,133.588364 130.043747,137.443146 
	C118.302963,140.565765 108.469360,144.851501 100.678322,152.661087 
	C97.064796,156.283218 94.100456,160.545029 90.643890,164.336395 
	C89.551781,165.534302 87.819824,166.906540 86.377281,166.910355 
	C71.581718,166.949554 56.769314,167.090820 41.995060,166.441956 
	C32.178833,166.010849 27.166569,159.269806 28.182863,149.608139 
	C29.835506,133.896881 42.641262,122.208778 58.500423,122.111961 
	C73.138824,122.022583 87.797806,121.657593 102.407425,122.312637 
	C108.161736,122.570648 113.806847,125.264175 119.800537,127.061050 
z"/>
<path fill="#1B3354" opacity="1.000000" stroke="none" 
	d="
M263.897705,122.095184 
	C280.827484,122.084259 292.952637,130.192810 296.382782,144.425491 
	C297.461456,148.901093 297.226959,154.107315 296.076355,158.589691 
	C294.922607,163.084152 290.892639,166.149780 285.962982,166.284164 
	C270.984711,166.692444 255.997635,166.819992 241.013260,166.886002 
	C239.780701,166.891434 238.064941,165.917984 237.378876,164.871506 
	C227.839630,150.320831 214.347351,141.628265 197.192993,137.730728 
	C202.985107,126.681320 212.434235,122.419624 223.916748,122.164276 
	C237.076309,121.871620 250.247360,122.095650 263.897705,122.095184 
z"/>
<path fill="#1B3355" opacity="1.000000" stroke="none" 
	d="
M74.466064,105.765091 
	C61.616833,101.729149 54.081100,93.312317 52.365921,80.395241 
	C50.950855,69.738304 54.963142,60.826687 63.226616,53.967804 
	C72.685631,46.116592 85.617531,45.199600 96.816002,51.421787 
	C106.631874,56.875759 113.167183,69.458199 111.617599,79.919342 
	C109.711182,92.789482 101.016518,103.157715 89.118813,105.616875 
	C84.547813,106.561668 79.627876,105.818306 74.466064,105.765091 
z"/>
<path fill="#1B3354" opacity="1.000000" stroke="none" 
	d="
M276.489136,78.673431 
	C275.206879,93.917061 263.143829,105.897758 248.601761,106.739883 
	C234.064484,107.581749 220.903564,97.464493 217.737762,83.013664 
	C214.635605,68.853317 222.690842,54.164543 236.710678,49.111351 
	C257.356781,41.669838 277.943512,58.432163 276.489136,78.673431 
z"/>
<path fill="#F5F5F4" opacity="1.000000" stroke="none" 
	d="
M166.000046,174.287140 
	C174.790649,174.527939 183.143677,174.224365 191.353928,175.165955 
	C199.217163,176.067719 204.142944,181.400421 207.494553,189.233032 
	C178.104172,189.233032 149.371857,189.233032 120.602119,189.233032 
	C122.370529,180.438705 130.928467,174.470856 142.051941,174.309402 
	C149.866440,174.195969 157.683914,174.287247 166.000046,174.287140 
z"/>
<path fill="#FBFBF9" opacity="1.000000" stroke="none" 
	d="
M178.945969,98.262497 
	C178.971619,105.932243 175.614304,111.128403 168.950455,113.795387 
	C163.225250,116.086708 157.903763,114.890945 153.295456,110.668739 
	C148.221619,106.020012 147.850891,100.120361 149.488556,94.150864 
	C151.144409,88.115097 156.490204,84.684425 163.095078,84.430977 
	C169.782852,84.174355 174.579010,87.077118 177.361862,93.159363 
	C178.043045,94.648163 178.410019,96.280731 178.945969,98.262497 
z"/>
</svg>