<svg width="72" height="72" viewBox="0 0 72 72" fill="none" xmlns="http://www.w3.org/2000/svg">
<path d="M5 48.7144V34.5L61 34L66 37.5L67.5 42L65 46.5L61 48.7144H5Z" fill="#CDF1FB"/>
<path d="M64 41.5C64 39.3 62.2 37.5 60 37.5C57.8 37.5 56 39.3 56 41.5C56 43.7 57.8 45.5 60 45.5C62.2 45.5 64 43.7 64 41.5ZM58 41.5C58 40.4 58.9 39.5 60 39.5C61.1 39.5 62 40.4 62 41.5C62 42.6 61.1 43.5 60 43.5C58.9 43.5 58 42.6 58 41.5Z" fill="#0D313B"/>
<path d="M58 41.5C58 40.4 58.9 39.5 60 39.5C61.1 39.5 62 40.4 62 41.5C62 42.6 61.1 43.5 60 43.5C58.9 43.5 58 42.6 58 41.5Z" fill="#2894B4"/>
<path d="M51.4395 41C51.4395 38.8 49.6395 37 47.4395 37C45.2395 37 43.4395 38.8 43.4395 41C43.4395 43.2 45.2395 45 47.4395 45C49.6395 45 51.4395 43.2 51.4395 41ZM45.4395 41C45.4395 39.9 46.3395 39 47.4395 39C48.5395 39 49.4395 39.9 49.4395 41C49.4395 42.1 48.5395 43 47.4395 43C46.3395 43 45.4395 42.1 45.4395 41Z" fill="#0D313B"/>
<path d="M45.4395 41C45.4395 39.9 46.3395 39 47.4395 39C48.5395 39 49.4395 39.9 49.4395 41C49.4395 42.1 48.5395 43 47.4395 43C46.3395 43 45.4395 42.1 45.4395 41Z" fill="#2894B4"/>
<path d="M38.9609 41C38.9609 38.8 37.1609 37 34.9609 37C32.7609 37 30.9609 38.8 30.9609 41C30.9609 43.2 32.7609 45 34.9609 45C37.1609 45 38.9609 43.2 38.9609 41ZM32.9609 41C32.9609 39.9 33.8609 39 34.9609 39C36.0609 39 36.9609 39.9 36.9609 41C36.9609 42.1 36.0609 43 34.9609 43C33.8609 43 32.9609 42.1 32.9609 41Z" fill="#0D313B"/>
<path d="M32.9609 41C32.9609 39.9 33.8609 39 34.9609 39C36.0609 39 36.9609 39.9 36.9609 41C36.9609 42.1 36.0609 43 34.9609 43C33.8609 43 32.9609 42.1 32.9609 41Z" fill="#2894B4"/>
<path d="M26.4805 41C26.4805 38.8 24.6805 37 22.4805 37C20.2805 37 18.4805 38.8 18.4805 41C18.4805 43.2 20.2805 45 22.4805 45C24.6805 45 26.4805 43.2 26.4805 41ZM20.4805 41C20.4805 39.9 21.3805 39 22.4805 39C23.5805 39 24.4805 39.9 24.4805 41C24.4805 42.1 23.5805 43 22.4805 43C21.3805 43 20.4805 42.1 20.4805 41Z" fill="#0D313B"/>
<path d="M20.4805 41C20.4805 39.9 21.3805 39 22.4805 39C23.5805 39 24.4805 39.9 24.4805 41C24.4805 42.1 23.5805 43 22.4805 43C21.3805 43 20.4805 42.1 20.4805 41Z" fill="#2894B4"/>
<path d="M14 41C14 38.8 12.2 37 10 37C7.8 37 6 38.8 6 41C6 43.2 7.8 45 10 45C12.2 45 14 43.2 14 41ZM8 41C8 39.9 8.9 39 10 39C11.1 39 12 39.9 12 41C12 42.1 11.1 43 10 43C8.9 43 8 42.1 8 41Z" fill="#0D313B"/>
<path d="M8 41C8 39.9 8.9 39 10 39C11.1 39 12 39.9 12 41C12 42.1 11.1 43 10 43C8.9 43 8 42.1 8 41Z" fill="#2894B4"/>
<path d="M60 33.5H56V28C56 26.9 55.1 26 54 26H42C40.9 26 40 26.9 40 28V33.5H38V28C38 26.9 37.1 26 36 26H32.5V21.7C33.1 21.35 33.5 20.7 33.5 20V17C34.6 17 35.5 16.1 35.5 15V10C35.5 8.9 34.6 8 33.5 8H25.5C25 8 24.55 8.2 24.2 8.5H9C7.9 8.5 7 9.4 7 10.5V26.55C6.15 26.75 5.5 27.55 5.5 28.5V33.5H5C4.45 33.5 4 33.95 4 34.5C4 35.05 4.45 35.5 5 35.5H60C63.3 35.5 66 38.2 66 41.5C66 44.8 63.3 47.5 60 47.5H5C4.45 47.5 4 47.95 4 48.5C4 49.05 4.45 49.5 5 49.5H7.5V63C7.5 63.55 7.95 64 8.5 64C9.05 64 9.5 63.55 9.5 63V59H59.5V63C59.5 63.55 59.95 64 60.5 64C61.05 64 61.5 63.55 61.5 63V49.35C65.2 48.65 68 45.4 68 41.5C68 37.1 64.4 33.5 60 33.5ZM25.5 10H33.5V15H25.5V10ZM27.5 20V17H31.5V20H27.5ZM30.5 22V26H28.5V22H30.5ZM9 10.5H23.5V14.5H13V26.5H9V10.5ZM14.5 33.5H7.5V28.5H14.5V33.5ZM22 28V33.5H16.5V28.5C16.5 27.55 15.85 26.8 15 26.55V16.5H24.2C24.55 16.8 25 17 25.5 17V20C25.5 20.75 25.9 21.4 26.5 21.7V26H24C22.9 26 22 26.9 22 28ZM36 33.5H24V28H36V33.5ZM54 33.5H42V28H54V33.5ZM59.5 57H9.5V49.5H59.5V57Z" fill="#0D313B"/>
<path d="M59.5 57H9.5V49.5H59.5V57Z" fill="#68D4F4"/>
<path d="M25.5 10H33.5V15H25.5V10Z" fill="#68D4F4"/>
<path d="M36 33.5H24V28H36V33.5Z" fill="#68D4F4"/>
<path d="M54 33.5H42V28H54V33.5Z" fill="#68D4F4"/>
<path d="M14.5 33.5H7.5V28.5H14.5V33.5Z" fill="#68D4F4"/>
<path d="M9 10.5H23.5V14.5H13V26.5H9V10.5Z" fill="#CDF1FB"/>
<path d="M27.5 20V17H31.5V20H27.5Z" fill="#CDF1FB"/>
<path d="M30.5 22V26H28.5V22H30.5Z" fill="#CDF1FB"/>
</svg>
