<svg width="72" height="72" viewBox="0 0 72 72" fill="none" xmlns="http://www.w3.org/2000/svg">
<rect width="8.04897" height="9.29769" transform="matrix(0.999988 -0.00479664 0.00517916 0.999987 55.3984 9.77979)" fill="#22885E"/>
<path d="M20.5 9L15 13.5L14.5 50L42 50.5V60L49 63L52.5 58.5L54 18L56.5 9H20.5Z" fill="#CBEDDF"/>
<rect width="34.3319" height="9.29769" transform="matrix(0.999988 -0.00479664 0.00517916 0.999987 6.58789 51.6648)" fill="#22885E"/>
<path d="M59.4125 19.0959H55.4129V15.2512C55.4129 14.2301 55.8392 13.2531 56.5892 12.532C57.3332 11.811 58.35 11.4072 59.4125 11.4072C60.4749 11.4072 61.4917 11.811 62.2364 12.532C62.9865 13.2531 63.4068 14.2301 63.4068 15.2512C63.4068 16.2671 62.9865 17.2442 62.2364 17.9653C61.4917 18.6863 60.4749 19.0901 59.4125 19.0901V19.0959ZM50.8221 56.2063C50.8221 57.2273 50.4018 58.2044 49.6517 58.9254C48.9017 59.6465 47.885 60.0503 46.8285 60.0503C45.7713 60.0503 44.7545 59.6465 44.0045 58.9254C43.2485 58.2044 42.8342 57.2273 42.8342 56.2063C42.8342 55.1903 43.2485 54.2133 44.0045 53.4922C44.7545 52.7711 45.7713 52.3673 46.8285 52.3673C47.646 52.3673 48.402 51.947 48.8111 51.2641C49.2254 50.582 49.2254 49.7405 48.8111 49.0634C48.402 48.3813 47.646 47.9609 46.8285 47.9609H17.2107V15.2461C17.2107 14.2301 17.637 13.2531 18.3811 12.532C19.1311 11.8167 20.1478 11.4072 21.2051 11.4072H51.8276C51.1975 12.5537 50.8566 13.8314 50.8393 15.1315V15.1913L50.8221 56.2063ZM8.58065 56.2063C8.58065 55.1903 9.00698 54.2133 9.757 53.4922C10.501 52.7769 11.5178 52.3673 12.5802 52.3673H39.2377C37.9137 54.7699 37.9137 57.6535 39.2377 60.0561H12.5862C11.5298 60.0561 10.5123 59.6516 9.76224 58.9363C9.01223 58.221 8.58664 57.249 8.58065 56.2279V56.2063ZM59.4125 7H21.2051C18.955 7.00577 16.7904 7.85735 15.1884 9.38096C13.5805 10.8995 12.6657 12.9632 12.6319 15.1315V47.9717H12.1434C11.9786 47.9768 11.819 47.9933 11.6601 48.0258C8.8309 48.3207 6.33659 49.9431 5.0014 52.3616C3.6662 54.7757 3.6662 57.6751 5.0014 60.0885C6.33659 62.5077 8.8309 64.1294 11.6601 64.4243C11.819 64.4575 11.9786 64.4733 12.1434 64.4791H46.8338C49.1123 64.4733 51.2882 63.6052 52.8961 62.0541C54.504 60.5089 55.4129 58.4178 55.4129 56.2279V23.5023H59.4125C62.4807 23.5023 65.3152 21.9297 66.8497 19.3742C68.3834 16.8238 68.3834 13.6785 66.8497 11.1231C65.3152 8.57337 62.4807 7 59.4125 7Z" fill="#0B2D1F"/>
<path d="M20.207 38.7288C20.207 38.1607 20.6675 37.7002 21.2356 37.7002H25.2917C25.8598 37.7002 26.3203 38.1607 26.3203 38.7288V41.0781C26.3203 41.6461 25.8598 42.1066 25.2917 42.1066H21.2356C20.6675 42.1066 20.207 41.6461 20.207 41.0781V38.7288Z" fill="#0B2D1F"/>
<path d="M30.1367 38.7288C30.1367 38.1607 30.5972 37.7002 31.1653 37.7002H45.9195C46.4875 37.7002 46.948 38.1607 46.948 38.7288V41.0781C46.948 41.6461 46.4875 42.1066 45.9195 42.1066H31.1653C30.5972 42.1066 30.1367 41.6461 30.1367 41.0781V38.7288Z" fill="#0B2D1F"/>
<path d="M20.207 29.9152C20.207 29.3471 20.6675 28.8866 21.2356 28.8866H25.2917C25.8598 28.8866 26.3203 29.3471 26.3203 29.9152V32.2645C26.3203 32.8325 25.8598 33.293 25.2917 33.293H21.2356C20.6675 33.293 20.207 32.8325 20.207 32.2645V29.9152Z" fill="#0B2D1F"/>
<path d="M30.1367 29.9152C30.1367 29.3471 30.5972 28.8866 31.1653 28.8866H45.9195C46.4875 28.8866 46.948 29.3471 46.948 29.9152V32.2645C46.948 32.8325 46.4875 33.293 45.9195 33.293H31.1653C30.5972 33.293 30.1367 32.8325 30.1367 32.2645V29.9152Z" fill="#0B2D1F"/>
<path d="M20.207 21.1014C20.207 20.5334 20.6675 20.0729 21.2356 20.0729H25.2917C25.8598 20.0729 26.3203 20.5334 26.3203 21.1014V23.4515C26.3203 24.0195 25.8598 24.48 25.2917 24.48H21.2356C20.6675 24.48 20.207 24.0195 20.207 23.4515V21.1014Z" fill="#0B2D1F"/>
<path d="M30.1367 21.1014C30.1367 20.5334 30.5972 20.0729 31.1653 20.0729H45.9195C46.4875 20.0729 46.948 20.5334 46.948 21.1014V23.4515C46.948 24.0195 46.4875 24.48 45.9195 24.48H31.1653C30.5972 24.48 30.1367 24.0195 30.1367 23.4515V21.1014Z" fill="#0B2D1F"/>
</svg>
