<svg width="36" height="36" viewBox="0 0 36 36" fill="none" xmlns="http://www.w3.org/2000/svg">
<rect width="2.91056" height="3.36211" transform="matrix(0.999988 -0.00479664 0.00517916 0.999987 25.2715 8.7195)" fill="#FFA600"/>
<rect width="12.4146" height="3.36211" transform="matrix(0.999988 -0.00479664 0.00517916 0.999987 7.62109 23.8654)" fill="#FFA600"/>
<path d="M26.7231 12.0882H25.2768V10.698C25.2768 10.3288 25.431 9.97545 25.7022 9.71471C25.9712 9.45396 26.3389 9.30795 26.7231 9.30795C27.1073 9.30795 27.4749 9.45396 27.7443 9.71471C28.0155 9.97545 28.1675 10.3288 28.1675 10.698C28.1675 11.0654 28.0155 11.4187 27.7443 11.6794C27.4749 11.9401 27.1073 12.0862 26.7231 12.0862V12.0882ZM23.6168 25.5076C23.6168 25.8768 23.4648 26.2302 23.1935 26.4909C22.9223 26.7516 22.5547 26.8977 22.1726 26.8977C21.7903 26.8977 21.4227 26.7516 21.1515 26.4909C20.8781 26.2302 20.7283 25.8768 20.7283 25.5076C20.7283 25.1402 20.8781 24.7869 21.1515 24.5262C21.4227 24.2655 21.7903 24.1194 22.1726 24.1194C22.4682 24.1194 22.7416 23.9674 22.8896 23.7205C23.0394 23.4738 23.0394 23.1696 22.8896 22.9247C22.7416 22.6781 22.4682 22.526 22.1726 22.526H11.4626V10.6961C11.4626 10.3288 11.6168 9.97545 11.8858 9.71471C12.1571 9.45605 12.5247 9.30795 12.907 9.30795H23.9804C23.7525 9.72253 23.6292 10.1846 23.623 10.6547V10.6763L23.6168 25.5076ZM8.34194 25.5076C8.34194 25.1402 8.49611 24.7869 8.76732 24.5262C9.03636 24.2675 9.40403 24.1194 9.78822 24.1194H19.4277C18.949 24.9882 18.949 26.0309 19.4277 26.8997H9.79039C9.40836 26.8997 9.04043 26.7535 8.76921 26.4948C8.498 26.2361 8.34411 25.8847 8.34194 25.5155V25.5076ZM26.7231 7.71429H12.907C12.0934 7.71637 11.3106 8.02431 10.7314 8.57526C10.1499 9.12438 9.81911 9.87063 9.80692 10.6547V22.53H9.63026C9.57066 22.5318 9.51295 22.5378 9.45551 22.5495C8.43244 22.6562 7.53047 23.2428 7.04766 24.1174C6.56484 24.9903 6.56484 26.0388 7.04766 26.9115C7.53047 27.7863 8.43244 28.3727 9.45551 28.4793C9.51295 28.4913 9.57066 28.497 9.63026 28.4991H22.1745C22.9985 28.497 23.7853 28.1831 24.3667 27.6223C24.9482 27.0635 25.2768 26.3073 25.2768 25.5155V13.6816H26.7231C27.8326 13.6816 28.8576 13.113 29.4124 12.1889C29.9671 11.2666 29.9671 10.1293 29.4124 9.20521C28.8576 8.28323 27.8326 7.71429 26.7231 7.71429Z" fill="black"/>
<path d="M12.5459 19.6124C12.5459 19.1724 12.9026 18.8157 13.3426 18.8157H13.9598C14.3998 18.8157 14.7565 19.1724 14.7565 19.6124V19.6124C14.7565 20.0524 14.3998 20.4091 13.9598 20.4091H13.3426C12.9026 20.4091 12.5459 20.0524 12.5459 19.6124V19.6124Z" fill="black"/>
<path d="M16.1367 19.6124C16.1367 19.1724 16.4934 18.8157 16.9334 18.8157H21.4191C21.8591 18.8157 22.2158 19.1724 22.2158 19.6124V19.6124C22.2158 20.0524 21.8591 20.4091 21.4191 20.4091H16.9334C16.4934 20.4091 16.1367 20.0524 16.1367 19.6124V19.6124Z" fill="black"/>
<path d="M12.5459 16.4253C12.5459 15.9853 12.9026 15.6286 13.3426 15.6286H13.9598C14.3998 15.6286 14.7565 15.9853 14.7565 16.4253V16.4253C14.7565 16.8653 14.3998 17.222 13.9598 17.222H13.3426C12.9026 17.222 12.5459 16.8653 12.5459 16.4253V16.4253Z" fill="black"/>
<path d="M16.1367 16.4253C16.1367 15.9853 16.4934 15.6286 16.9334 15.6286H21.4191C21.8591 15.6286 22.2158 15.9853 22.2158 16.4253V16.4253C22.2158 16.8653 21.8591 17.222 21.4191 17.222H16.9334C16.4934 17.222 16.1367 16.8653 16.1367 16.4253V16.4253Z" fill="black"/>
<path d="M12.5459 13.2384C12.5459 12.7983 12.9027 12.4415 13.3427 12.4415H13.9597C14.3997 12.4415 14.7565 12.7983 14.7565 13.2384V13.2384C14.7565 13.6785 14.3997 14.0352 13.9597 14.0352H13.3427C12.9027 14.0352 12.5459 13.6785 12.5459 13.2384V13.2384Z" fill="black"/>
<path d="M16.1367 13.2384C16.1367 12.7983 16.4935 12.4415 16.9335 12.4415H21.419C21.8591 12.4415 22.2158 12.7983 22.2158 13.2384V13.2384C22.2158 13.6785 21.8591 14.0352 21.419 14.0352H16.9335C16.4935 14.0352 16.1367 13.6785 16.1367 13.2384V13.2384Z" fill="black"/>
</svg>
