<svg width="72" height="72" viewBox="0 0 72 72" fill="none" xmlns="http://www.w3.org/2000/svg">
<path d="M20 16V11.5L7 11V25.5H12V16H20Z" fill="#2894B4"/>
<path d="M26.5 16.5H22L21.5 19.5L22.5 20.5V25H26V20.5L26.5 19.5V16.5Z" fill="#2894B4"/>
<path d="M39 31H5V42H33L39 31Z" fill="#2894B4"/>
<circle cx="51.5" cy="46.5" r="15.5" fill="#CDF1FB"/>
<path d="M7.95117 42.395H33.2351L33.8359 48.716H7.95117V42.395Z" fill="#68D4F4"/>
<path d="M6.37109 25.8025H12.5454L12.6921 30.5432H6.37109V25.8025Z" fill="#68D4F4"/>
<path d="M20.5918 10.7902H27.5379L27.7029 15.5309H20.5918V10.7902Z" fill="#68D4F4"/>
<path d="M19.8027 25.8025H29.8359L30.0743 30.5432H19.8027V25.8025Z" fill="#68D4F4"/>
<path d="M34.0254 25.8025H44.0586V29.7531L41.5316 30.5432H34.0254V25.8025Z" fill="#68D4F4"/>
<path d="M55.1397 37.748L55.2881 37.9531C55.4036 38.1128 55.6156 38.1654 55.8065 38.0966C56.0896 37.9627 56.3987 37.9114 56.6847 37.8759C56.8865 37.8701 57.0523 37.7164 57.084 37.5186L57.1214 37.2855L57.7075 37.3801L57.6485 37.6313C57.6162 37.827 57.7254 38.0258 57.9152 38.0945C58.1985 38.2012 58.4531 38.3641 58.6811 38.58C58.8403 38.7055 59.0581 38.7219 59.2178 38.6064L59.4223 38.4584L59.768 38.9363L59.5634 39.0842C59.4038 39.1997 59.3499 39.4101 59.4209 39.6028C59.5547 39.8869 59.6053 40.1939 59.6408 40.4799C59.6482 40.6839 59.8013 40.8477 59.9985 40.8798L60.2316 40.9172L60.1396 41.5056L59.9049 41.466C59.7093 41.4361 59.5105 41.5453 59.4406 41.7335C59.3351 42.0184 59.1737 42.2727 58.9562 42.4985C58.8316 42.6579 58.8159 42.8778 58.9302 43.0358L59.0457 43.1954L58.5689 43.5403L58.421 43.3357C58.3067 43.1778 58.0947 43.1217 57.9026 43.1923C57.6223 43.3266 57.312 43.3763 57.0256 43.4112C56.8221 43.4182 56.6584 43.5713 56.6267 43.769L56.5905 44.0038L56.0016 43.9088L56.0406 43.6745C56.0702 43.4783 55.9622 43.2811 55.7727 43.2096C55.4897 43.1019 55.2332 42.9412 55.0081 42.7257C54.8477 42.5986 54.629 42.5845 54.471 42.6988L54.2664 42.8468L53.9376 42.3922L54.1422 42.2442C54.3002 42.13 54.3541 41.9162 54.2847 41.7257C54.1493 41.4428 54.0991 41.1329 54.0632 40.8464C54.0557 40.6458 53.9011 40.4798 53.7055 40.4465L53.4708 40.4103L53.566 39.8229L53.7991 39.8603C54.0582 39.8823 54.2157 39.7684 54.3026 39.5991C54.4093 39.3158 54.5713 39.0611 54.787 38.834C54.9116 38.6747 54.9285 38.4564 54.813 38.2968L54.6646 38.0917L55.1397 37.748ZM53.7144 38.2606L53.9281 38.5561C53.8237 38.7 53.7452 38.8285 53.6567 38.9956L53.3059 38.9369C53.0706 38.9011 52.8661 39.049 52.8292 39.2817L52.6036 40.6905C52.5661 40.927 52.7293 41.1527 52.9493 41.1684L53.3027 41.2251C53.3143 41.3882 53.3688 41.5581 53.4218 41.7259L53.1269 41.9392C52.945 42.0707 52.9026 42.3447 53.0333 42.5254L53.8722 43.6851C54.0041 43.8675 54.2764 43.9112 54.4582 43.7796L54.7532 43.5663C54.8971 43.6707 55.0238 43.7514 55.1927 43.8377L55.1348 44.1896C55.1173 44.3078 55.1582 44.4158 55.2236 44.5062C55.2902 44.5982 55.4027 44.6544 55.4965 44.6896L56.9051 44.9162C57.1389 44.9557 57.3434 44.8077 57.3818 44.5713L57.4374 44.222C57.6011 44.2067 57.7688 44.1537 57.9382 44.0996L58.152 44.395C58.2839 44.5774 58.5578 44.6199 58.738 44.4896L59.896 43.6519C60.0768 43.5211 60.1216 43.2481 59.9896 43.0657L59.7759 42.7702C59.8787 42.6275 59.961 42.4996 60.0473 42.3341L60.3986 42.389C60.6346 42.4269 60.8375 42.2801 60.8754 42.0441L61.1004 40.6358C61.1378 40.4027 60.973 40.1748 60.7548 40.1579L60.4034 40.103C60.3881 39.9393 60.3368 39.7704 60.2828 39.6L60.5999 39.3706C60.7822 39.2387 60.8258 38.9674 60.6939 38.785L59.8561 37.627C59.7242 37.4446 59.4509 37.3983 59.2685 37.5302L58.9736 37.7435C58.8308 37.6407 58.7029 37.5585 58.5358 37.4733L58.5924 37.1208C58.6107 37.0037 58.5663 36.8956 58.5013 36.8058C58.436 36.7155 58.3245 36.6559 58.2303 36.6202L56.8222 36.3933C56.5869 36.3574 56.3845 36.5038 56.3449 36.7385L56.2887 37.0916C56.1273 37.1054 55.9563 37.1573 55.7885 37.2103L55.5748 36.9148C55.4444 36.7346 55.1689 36.6899 54.9887 36.8202L53.8307 37.6579C53.6278 37.8047 53.5664 38.056 53.7144 38.2606Z" fill="#0D313B"/>
<path d="M55.1397 37.748L55.2881 37.9531C55.4036 38.1128 55.6156 38.1654 55.8065 38.0966C56.0896 37.9627 56.3987 37.9114 56.6847 37.8759C56.8865 37.8701 57.0523 37.7164 57.084 37.5186L57.1214 37.2855L57.7075 37.3801L57.6485 37.6313C57.6162 37.827 57.7254 38.0258 57.9152 38.0945C58.1985 38.2012 58.4531 38.3641 58.6811 38.58C58.8403 38.7055 59.0581 38.7219 59.2178 38.6064L59.4223 38.4584L59.768 38.9363L59.5634 39.0842C59.4038 39.1997 59.3499 39.4101 59.4209 39.6028C59.5547 39.8869 59.6053 40.1939 59.6408 40.4799C59.6482 40.6839 59.8013 40.8477 59.9985 40.8798L60.2316 40.9172L60.1396 41.5056L59.9049 41.466C59.7093 41.4361 59.5105 41.5453 59.4406 41.7335C59.3351 42.0184 59.1737 42.2727 58.9562 42.4985C58.8316 42.6579 58.8159 42.8778 58.9302 43.0358L59.0457 43.1954L58.5689 43.5403L58.421 43.3357C58.3067 43.1778 58.0947 43.1217 57.9026 43.1923C57.6223 43.3266 57.312 43.3763 57.0256 43.4112C56.8221 43.4182 56.6584 43.5713 56.6267 43.769L56.5905 44.0038L56.0016 43.9088L56.0406 43.6745C56.0702 43.4783 55.9622 43.2811 55.7727 43.2096C55.4897 43.1019 55.2332 42.9412 55.0081 42.7257C54.8477 42.5986 54.629 42.5845 54.471 42.6988L54.2664 42.8468L53.9376 42.3922L54.1422 42.2442C54.3002 42.13 54.3541 41.9162 54.2847 41.7257C54.1493 41.4428 54.0991 41.1329 54.0632 40.8464C54.0557 40.6458 53.9011 40.4798 53.7055 40.4465L53.4708 40.4103L53.566 39.8229L53.7991 39.8603C54.0582 39.8823 54.2157 39.7684 54.3026 39.5991C54.4093 39.3158 54.5713 39.0611 54.787 38.834C54.9116 38.6747 54.9285 38.4564 54.813 38.2968L54.6646 38.0917L55.1397 37.748Z" fill="#2894B4"/>
<path d="M53.1765 45.7814L53.8356 45.3046L54.8871 46.7581L54.228 47.2349C54.0683 47.3504 54.016 47.563 54.0854 47.7535C54.316 48.3138 54.4486 48.8765 54.4943 49.465C54.5013 49.6685 54.6548 49.8327 54.852 49.8649L55.674 49.9973L55.3915 51.7571L54.5707 51.6263C54.373 51.5946 54.1763 51.7022 54.106 51.8933C53.8794 52.438 53.5561 52.9472 53.1846 53.3908C53.0596 53.5495 53.0427 53.7678 53.1586 53.928L53.6346 54.586L52.1833 55.6359L51.7073 54.9779C51.5914 54.8177 51.3794 54.765 51.1889 54.8344C50.6291 55.0645 50.0666 55.1962 49.4783 55.2409C49.2748 55.2479 49.111 55.401 49.0793 55.5988L48.9466 56.4193L47.1868 56.1368L47.3183 55.3146C47.3501 55.1169 47.2415 54.9201 47.0504 54.8498C46.5058 54.6222 45.9964 54.2974 45.5529 53.9259C45.3937 53.8004 45.1754 53.7835 45.0157 53.8989L44.3588 54.3741L43.3074 52.9206L43.9643 52.4454C44.1239 52.3299 44.1766 52.1179 44.1072 51.9274C43.8763 51.3666 43.7437 50.8038 43.698 50.2154C43.6909 50.0119 43.538 49.8472 43.3403 49.8155L42.5183 49.683L42.7995 47.9216L43.6219 48.0546C43.8197 48.0863 44.0159 47.9782 44.0863 47.7871C44.3128 47.2423 44.6367 46.7328 45.0081 46.2902C45.1332 46.1304 45.1495 45.9126 45.0341 45.7529L44.5564 45.0927L46.0077 44.0428L46.4853 44.7031C46.6008 44.8627 46.8134 44.915 47.0038 44.8465C47.5631 44.6159 48.1257 44.4842 48.714 44.4395C48.9175 44.4324 49.0816 44.2799 49.1133 44.0822L49.2444 43.2594L51.0054 43.5436L50.8739 44.3657C50.8427 44.5631 50.9507 44.7602 51.1418 44.8306C51.6864 45.0581 52.1958 45.3829 52.6398 45.7551C52.799 45.8806 53.0168 45.8969 53.1765 45.7814ZM53.6818 44.3764L52.9323 44.9186C52.5575 44.6374 52.1732 44.3944 51.7446 44.186L51.8886 43.2855C51.9277 43.0512 51.7793 42.8461 51.5445 42.8098L48.9224 42.387C48.6881 42.3479 48.4835 42.4959 48.4473 42.7307L48.3038 43.6308C47.8542 43.6782 47.3922 43.8064 46.9472 43.9535L46.4046 43.2035C46.2727 43.0211 45.9987 42.9786 45.8163 43.1105L43.6838 44.6532C43.5036 44.7835 43.4582 45.057 43.5902 45.2394L44.1492 46.0122C43.8702 46.3888 43.626 46.7715 43.4187 47.1993L42.5183 47.0543C42.2836 47.0146 42.079 47.1626 42.0416 47.3991L41.6242 50.0207C41.5851 50.255 41.7335 50.4601 41.9683 50.4964L42.8687 50.6414C42.916 51.0909 43.043 51.5547 43.1927 51.9987L42.466 52.5244C42.2858 52.6548 42.2416 52.9299 42.3736 53.1123L43.9187 55.2482C44.049 55.4284 44.3245 55.4731 44.5047 55.3427L45.2536 54.801C45.629 55.0817 46.0133 55.3247 46.4414 55.5335L46.2979 56.4337C46.2588 56.668 46.4232 56.8952 46.6432 56.9109L49.2625 57.3333C49.4984 57.3712 49.703 57.2232 49.7392 56.9884L49.8663 56.0656C50.3153 56.0186 50.7777 55.891 51.2229 55.7429L51.7494 56.4708C51.8798 56.6509 52.1553 56.6956 52.3355 56.5653L54.4697 55.0214C54.6504 54.8907 54.7113 54.6398 54.5633 54.4352L54.0207 53.6852C54.3015 53.3098 54.5439 52.9259 54.7518 52.4977L55.6518 52.6421C55.8865 52.6818 56.091 52.5338 56.1285 52.2973L56.5474 49.6779C56.5849 49.4414 56.4205 49.2141 56.2022 49.2006L55.3018 49.0556C55.2528 48.6038 55.1275 48.1422 54.9773 47.6977L55.7263 47.1559C55.9087 47.024 55.9506 46.7505 55.8187 46.5681L54.274 44.4327C54.137 44.2912 53.8636 44.2449 53.6818 44.3764Z" fill="#0D313B"/>
<path d="M53.1765 45.7814L53.8356 45.3046L54.8871 46.7581L54.228 47.2349C54.0683 47.3504 54.016 47.563 54.0854 47.7535C54.316 48.3138 54.4486 48.8765 54.4943 49.465C54.5013 49.6685 54.6548 49.8327 54.852 49.8649L55.674 49.9973L55.3915 51.7571L54.5707 51.6263C54.373 51.5946 54.1763 51.7022 54.106 51.8933C53.8794 52.438 53.5561 52.9472 53.1846 53.3908C53.0596 53.5495 53.0427 53.7678 53.1586 53.928L53.6346 54.586L52.1833 55.6359L51.7073 54.9779C51.5914 54.8177 51.3794 54.765 51.1889 54.8344C50.6291 55.0645 50.0666 55.1962 49.4783 55.2409C49.2748 55.2479 49.111 55.401 49.0793 55.5988L48.9466 56.4193L47.1868 56.1368L47.3183 55.3146C47.3501 55.1169 47.2415 54.9201 47.0504 54.8498C46.5058 54.6222 45.9964 54.2974 45.5529 53.9259C45.3937 53.8004 45.1754 53.7835 45.0157 53.8989L44.3588 54.3741L43.3074 52.9206L43.9643 52.4454C44.1239 52.3299 44.1766 52.1179 44.1072 51.9274C43.8763 51.3666 43.7437 50.8038 43.698 50.2154C43.6909 50.0119 43.538 49.8472 43.3403 49.8155L42.5183 49.683L42.7995 47.9216L43.6219 48.0546C43.8197 48.0863 44.0159 47.9782 44.0863 47.7871C44.3128 47.2423 44.6367 46.7328 45.0081 46.2902C45.1332 46.1304 45.1495 45.9126 45.0341 45.7529L44.5564 45.0927L46.0077 44.0428L46.4853 44.7031C46.6008 44.8627 46.8134 44.915 47.0038 44.8465C47.5631 44.6159 48.1257 44.4842 48.714 44.4395C48.9175 44.4324 49.0816 44.2799 49.1133 44.0822L49.2444 43.2594L51.0054 43.5436L50.8739 44.3657C50.8427 44.5631 50.9507 44.7602 51.1418 44.8306C51.6864 45.0581 52.1958 45.3829 52.6398 45.7551C52.799 45.8806 53.0168 45.8969 53.1765 45.7814Z" fill="#2894B4"/>
<path d="M51.3685 48.2C52.2716 49.4484 51.9903 51.2099 50.7436 52.1118C49.4952 53.0148 47.7342 52.7307 46.8311 51.4823C45.9268 50.2323 46.2081 48.4708 47.4565 47.5677C48.7032 46.6659 50.4642 46.95 51.3685 48.2ZM46.1271 51.9916C47.3101 53.6269 49.5797 53.9932 51.2128 52.8118C52.8476 51.6292 53.21 49.359 52.027 47.7236C50.8425 46.0861 48.5732 45.7204 46.9384 46.903C45.3053 48.0844 44.9425 50.354 46.1271 51.9916Z" fill="#0D313B"/>
<path d="M57.4455 41.4334C57.0514 41.7207 56.4979 41.6338 56.2097 41.2384C55.9233 40.8455 56.0102 40.292 56.4044 40.0047C56.8003 39.7161 57.3538 39.803 57.6402 40.1959C57.9284 40.5913 57.8415 41.1448 57.4455 41.4334ZM55.8653 39.2651C55.0529 39.8572 54.8781 40.9677 55.4689 41.7783C56.0618 42.592 57.1708 42.7633 57.9832 42.1712C58.7975 41.5778 58.974 40.4697 58.3811 39.656C57.7903 38.8454 56.6549 38.6897 55.8653 39.2651Z" fill="#0D313B"/>
<path d="M32.5085 36.1214C32.5085 34.3832 31.0863 32.9609 29.348 32.9609C27.6097 32.9609 26.1875 34.3832 26.1875 36.1214C26.1875 37.8597 27.6097 39.2819 29.348 39.2819C31.0863 39.2819 32.5085 37.8597 32.5085 36.1214ZM27.7677 36.1214C27.7677 35.2523 28.4789 34.5412 29.348 34.5412C30.2171 34.5412 30.9282 35.2523 30.9282 36.1214C30.9282 36.9906 30.2171 37.7017 29.348 37.7017C28.4789 37.7017 27.7677 36.9906 27.7677 36.1214Z" fill="#0D313B"/>
<path d="M27.7677 36.1214C27.7677 35.2523 28.4789 34.5412 29.348 34.5412C30.2171 34.5412 30.9282 35.2523 30.9282 36.1214C30.9282 36.9906 30.2171 37.7017 29.348 37.7017C28.4789 37.7017 27.7677 36.9906 27.7677 36.1214Z" fill="#68D4F4"/>
<path d="M22.5202 36.0741C22.5202 34.3358 21.098 32.9136 19.3597 32.9136C17.6214 32.9136 16.1992 34.3358 16.1992 36.0741C16.1992 37.8123 17.6214 39.2346 19.3597 39.2346C21.098 39.2346 22.5202 37.8123 22.5202 36.0741ZM17.7795 36.0741C17.7795 35.2049 18.4906 34.4938 19.3597 34.4938C20.2288 34.4938 20.94 35.2049 20.94 36.0741C20.94 36.9432 20.2288 37.6543 19.3597 37.6543C18.4906 37.6543 17.7795 36.9432 17.7795 36.0741Z" fill="#0D313B"/>
<path d="M17.7795 36.0741C17.7795 35.2049 18.4906 34.4938 19.3597 34.4938C20.2288 34.4938 20.94 35.2049 20.94 36.0741C20.94 36.9432 20.2288 37.6543 19.3597 37.6543C18.4906 37.6543 17.7795 36.9432 17.7795 36.0741Z" fill="#68D4F4"/>
<path d="M12.6608 36.0741C12.6608 34.3358 11.2386 32.9136 9.50034 32.9136C7.76207 32.9136 6.33984 34.3358 6.33984 36.0741C6.33984 37.8123 7.76207 39.2346 9.50034 39.2346C11.2386 39.2346 12.6608 37.8123 12.6608 36.0741ZM7.92009 36.0741C7.92009 35.2049 8.6312 34.4938 9.50034 34.4938C10.3695 34.4938 11.0806 35.2049 11.0806 36.0741C11.0806 36.9432 10.3695 37.6543 9.50034 37.6543C8.6312 37.6543 7.92009 36.9432 7.92009 36.0741Z" fill="#0D313B"/>
<path d="M7.92009 36.0741C7.92009 35.2049 8.6312 34.4938 9.50034 34.4938C10.3695 34.4938 11.0806 35.2049 11.0806 36.0741C11.0806 36.9432 10.3695 37.6543 9.50034 37.6543C8.6312 37.6543 7.92009 36.9432 7.92009 36.0741Z" fill="#68D4F4"/>
<path fill-rule="evenodd" clip-rule="evenodd" d="M51.803 60.9383C59.6441 60.9383 66.0005 54.5818 66.0005 46.7407C66.0005 38.8997 59.6441 32.5432 51.803 32.5432C43.9619 32.5432 37.6055 38.8997 37.6055 46.7407C37.6055 54.5818 43.9619 60.9383 51.803 60.9383ZM68.0005 46.7407C68.0005 55.6864 60.7486 62.9383 51.803 62.9383C42.8574 62.9383 35.6055 55.6864 35.6055 46.7407C35.6055 37.7951 42.8574 30.5432 51.803 30.5432C60.7486 30.5432 68.0005 37.7951 68.0005 46.7407Z" fill="#0D313B"/>
<path fill-rule="evenodd" clip-rule="evenodd" d="M45.0864 29.3752V25.8025C45.0864 24.9333 44.3753 24.2222 43.5062 24.2222H34.0247C33.1556 24.2222 32.4444 24.9333 32.4444 25.8025V30.1481H30.8642V25.8025C30.8642 24.9333 30.1531 24.2222 29.284 24.2222H26.5185V20.8247C26.9926 20.5481 27.3086 20.0346 27.3086 19.4815V17.1111C28.1778 17.1111 28.8889 16.4 28.8889 15.5309V11.5802C28.8889 10.7111 28.1778 10 27.3086 10H20.9877C20.5926 10 20.237 10.158 19.9605 10.3951H7.95062C7.08148 10.3951 6.37037 11.1062 6.37037 11.9753V24.6568C5.69877 24.8148 5.18519 25.4469 5.18519 26.1975V30.1481H4.79012C4.35556 30.1481 4 30.5037 4 30.9383C4 31.3728 4.35556 31.7284 4.79012 31.7284H39.8323C40.7255 31.1048 41.6879 30.5734 42.7056 30.1481H34.0247V25.8025H43.5062V29.8397C44.0209 29.6577 44.5482 29.5024 45.0864 29.3752ZM33.559 41.2099H4.79012C4.35556 41.2099 4 41.5654 4 42C4 42.4346 4.35556 42.7901 4.79012 42.7901H6.76543V53.4568C6.76543 53.8914 7.12099 54.2469 7.55556 54.2469C7.99012 54.2469 8.34568 53.8914 8.34568 53.4568V50.2963H34.4154C34.2014 49.783 34.0143 49.2557 33.8559 48.716H8.34568V42.7901H33.3146C33.3692 42.2548 33.4511 41.7276 33.559 41.2099ZM27.3086 11.5802H20.9877V15.5309H27.3086V11.5802ZM22.5679 17.1111V19.4815H25.7284V17.1111H22.5679ZM24.9383 24.2222V21.0617H23.358V24.2222H24.9383ZM19.4074 11.9753H7.95062V24.6173H11.1111V15.1358H19.4074V11.9753ZM6.76543 30.1481H12.2963V26.1975H6.76543V30.1481ZM18.2222 30.1481V25.8025C18.2222 24.9333 18.9333 24.2222 19.8025 24.2222H21.7778V20.8247C21.3037 20.5877 20.9877 20.0741 20.9877 19.4815V17.1111C20.5926 17.1111 20.237 16.9531 19.9605 16.716H12.6914V24.6568C13.363 24.8543 13.8765 25.4469 13.8765 26.1975V30.1481H18.2222ZM19.8025 30.1481H29.284V25.8025H19.8025V30.1481Z" fill="#0D313B"/>
</svg>
