<svg width="72" height="72" viewBox="0 0 72 72" fill="none" xmlns="http://www.w3.org/2000/svg">
<path d="M48.2619 9H9C7.89543 9 7 9.89543 7 11V61.8687C7 62.9733 7.89543 63.8687 9 63.8687L29.5 63.8687L48.2619 63.8687C49.3664 63.8687 50.2619 62.9733 50.2619 61.8687V35.5V10.9953C50.2619 9.89069 49.3664 9 48.2619 9Z" fill="#F0F0F0"/>
<path d="M13.2422 18.3103V9H19.449V18.3103L16.3456 15.7711L13.2422 18.3103Z" fill="#AE0909" stroke="#AE0909" stroke-width="3" stroke-linecap="round" stroke-linejoin="round"/>
<path d="M24.6211 18.3105L43.2417 18.3105" stroke="#2E2E2E" stroke-width="3" stroke-linecap="round" stroke-linejoin="round"/>
<path d="M13.2422 24.5171L43.242 24.5171" stroke="#2E2E2E" stroke-width="3" stroke-linecap="round" stroke-linejoin="round"/>
<path d="M13.2422 30.7241L43.242 30.7241" stroke="#2E2E2E" stroke-width="3" stroke-linecap="round" stroke-linejoin="round"/>
<path d="M13 37H20" stroke="#2E2E2E" stroke-width="3" stroke-linecap="round" stroke-linejoin="round"/>
<path d="M57.4535 37.6071C58.2728 37.3495 58.7535 37.5256 59.1732 38.2466C61.2621 41.8362 63.3502 45.4261 65.4373 49.0166C65.5836 49.2678 65.73 49.5188 65.8766 49.7694V50.3917C65.649 50.8614 65.2625 51.1536 64.8137 51.3999C63.9976 51.8482 63.2006 52.3321 62.3895 52.79C61.6507 53.2065 61.2001 53.1318 60.6106 52.5214C59.4217 50.475 58.2328 48.4285 57.0439 46.382C56.0234 44.6326 54.9983 42.8863 53.9687 41.1429C53.6155 40.1766 53.7634 39.7637 54.6574 39.2389C55.5874 38.6933 56.5195 38.1494 57.4535 37.6071ZM62.2525 50.3953C62.5054 50.3922 62.747 50.2896 62.9249 50.1097C63.1028 49.9297 63.2026 49.687 63.2029 49.434C63.1976 49.1806 63.095 48.939 62.9163 48.7592C62.7377 48.5795 62.4967 48.4754 62.2433 48.4685C61.7199 48.4635 61.2465 48.9465 61.2661 49.4649C61.2768 49.718 61.386 49.9568 61.5702 50.1306C61.7544 50.3043 61.9992 50.3993 62.2525 50.3953Z" fill="#155BC8"/>
<path d="M25.4945 52.1495C24.8336 52.7836 24.3493 52.8223 23.5736 52.3006C22.7184 51.7253 21.869 51.1409 21.006 50.5773C20.6942 50.3734 20.5249 50.0767 20.3564 49.7694V49.1472C22.8387 45.4882 25.3185 41.8275 27.7959 38.1651C28.2001 37.5643 28.6862 37.2821 29.4017 37.4341C30.4486 38.1305 31.5015 38.8128 32.5333 39.5279C33.176 39.9735 33.2389 40.5644 32.7964 41.4074C31.9771 42.6008 31.1523 43.7907 30.3385 44.9887C28.7211 47.3732 27.1064 49.7602 25.4945 52.1495ZM24.9847 49.0247C24.9874 48.4808 24.5891 48.0766 24.0457 48.0711C23.7927 48.0648 23.5474 48.1581 23.3625 48.331C23.1777 48.5038 23.0681 48.7423 23.0575 48.9952C23.042 49.4927 23.4972 49.9715 23.9979 49.9856C24.1267 49.9908 24.2552 49.9697 24.3755 49.9236C24.4959 49.8775 24.6056 49.8074 24.6979 49.7174C24.7903 49.6275 24.8633 49.5197 24.9126 49.4006C24.9619 49.2815 24.9865 49.1536 24.9847 49.0247Z" fill="#00317E"/>
<path d="M39.3496 63.1396L39.6107 62.708L40.3717 61.7005C40.3884 61.6432 40.4224 61.5782 40.4738 61.5004C41.0864 60.5718 40.5033 59.1972 39.6503 59.0151C39.2673 59.1615 39.0419 59.4746 38.8194 59.7837C38.7852 59.8312 38.751 59.8787 38.7163 59.9255C38.288 60.5036 37.8647 61.0876 37.4801 61.6948C36.9252 62.5701 37.1687 63.4722 37.8724 64.1154C37.9018 64.1424 37.9366 64.163 37.9714 64.1836C38.037 64.2224 38.1026 64.2612 38.1323 64.343C38.5857 64.1791 38.8674 63.8282 39.1251 63.4454C39.2224 63.3004 39.2902 63.2001 39.3496 63.1396Z" fill="#EEC29F"/>
<path d="M40.7757 63.9977C41.4117 64.5051 42.0479 65.0126 42.7601 65.416H43.6491C43.6891 65.3945 43.7292 65.3732 43.7693 65.3519C44.2102 65.118 44.6493 64.8851 44.8107 64.3486C43.8799 64.6181 43.2167 64.1442 42.5562 63.5825C41.9303 63.0504 41.2681 62.5579 40.5962 62.0846C40.4032 61.9486 40.3276 61.8512 40.3717 61.7002L39.6107 62.7077L39.3496 63.1394C39.4843 63.0024 39.5755 63.0709 39.8692 63.2915C39.8894 63.3066 39.9105 63.3225 39.9326 63.339C40.2179 63.5527 40.4968 63.7752 40.7757 63.9977Z" fill="#F8E0C7"/>
<path d="M44.8103 64.3485C43.8794 64.618 43.2171 64.1441 42.5558 63.5824C41.9317 63.049 41.2676 62.5578 40.5958 62.0844C40.3295 61.8969 40.2867 61.7827 40.4733 61.5C41.086 60.5714 40.5029 59.1959 39.6499 59.0147C39.5389 58.8814 39.3891 58.85 39.2248 58.8354C38.7908 58.8011 38.3547 58.8671 37.9503 59.0284C38.0937 58.652 38.3704 58.3602 38.5912 58.0347C39.2466 57.0689 38.837 55.7361 37.786 55.3679C37.4455 55.1922 37.1032 55.1803 36.7218 55.2518C36.0868 55.3701 35.7659 55.8531 35.3826 56.2727C35.3826 56.0361 35.3899 55.7989 35.3799 55.5622C35.3526 54.9204 34.8742 54.3159 34.3207 54.214C33.8478 53.808 33.0462 53.8954 32.4854 54.3897C31.9916 54.8244 31.7326 55.4366 31.2924 55.9104C31.2924 55.7038 31.2997 55.4967 31.2924 55.29C31.2776 54.9727 31.1685 54.6671 30.9791 54.4121C30.7897 54.1571 30.5286 53.9644 30.2291 53.8585C30.1012 53.7124 29.9296 53.6974 29.7494 53.6764C29.0416 53.6022 28.4935 53.904 28.0197 54.3892C27.113 53.9386 26.4694 53.1835 25.8021 52.4584C25.7033 52.3509 25.6314 52.2199 25.4976 52.1475C27.1119 49.7602 28.7269 47.3734 30.3425 44.9871C31.1554 43.7891 31.9811 42.5992 32.8004 41.4058C33.6298 41.9811 34.5811 42.2342 35.5565 42.3616C36.3977 42.4691 37.1806 42.7372 37.9658 43.0212C37.8187 43.2169 37.5943 43.3043 37.3972 43.4308C36.8055 43.8109 36.1646 44.1027 35.7409 44.7254C34.8619 46.0176 33.9274 47.2721 33.0257 48.5489C32.6211 49.1215 32.7681 49.8033 33.3935 50.0905C34.7964 50.7351 36.1842 50.6996 37.5333 49.9044C38.3982 49.3937 38.9298 48.562 39.5612 47.8251C39.939 47.3841 40.1984 46.8128 40.8097 46.6171C41.4014 46.4277 42.005 46.2848 42.5849 46.0709C43.0669 45.8947 43.4238 46.0017 43.7684 46.3617C44.0415 46.6489 44.3601 46.8956 44.661 47.1551C45.6451 47.9999 46.6301 48.8435 47.616 49.6859C48.5327 50.4738 49.4449 51.2672 50.3639 52.0528C51.4904 53.0205 52.6115 54 53.7663 54.9359C54.145 55.2422 54.4063 55.7211 54.9434 55.8198C54.9521 56.0784 55.181 56.1776 55.3267 56.3306C55.8729 56.9045 56.0072 57.7416 55.6548 58.4822C55.0135 58.6397 54.3744 58.6383 53.841 58.2145C52.3794 57.0534 50.941 55.8626 49.4922 54.6846C49.3802 54.5936 49.2314 54.4334 49.1121 54.5303C48.8035 54.7793 48.4562 55.0351 48.2764 55.3701C48.1458 55.6141 48.5759 55.6938 48.7316 55.8708C48.8327 55.9779 48.943 56.076 49.0612 56.164C50.1923 57.0789 51.3525 57.9578 52.4431 58.9223C52.4504 58.9961 52.4618 59.068 52.5405 59.1044V59.1012C52.7048 59.7061 52.846 60.3102 52.4609 60.891C52.4099 60.8241 52.3494 60.8181 52.2665 60.8359C51.6516 60.9724 51.1099 60.8327 50.6124 60.4353C49.3834 59.4517 48.1394 58.484 46.8986 57.5131C45.9191 56.7466 45.9232 56.7566 45.0046 57.484C44.8326 57.6205 44.8262 57.6861 44.985 57.8081C45.4279 58.1494 45.8717 58.4908 46.311 58.8363C47.0252 59.4003 47.7771 59.9173 48.4503 60.5327L48.5413 60.6174L48.5377 60.6124C48.5377 60.688 48.5514 60.7571 48.6287 60.7945V60.7913C48.7935 61.3962 48.9346 61.9998 48.5468 62.5792C48.4867 62.4932 48.4062 62.4855 48.3119 62.5105C47.7061 62.6712 47.1776 62.5105 46.7033 62.1218C45.4143 61.0679 44.1257 60.0135 42.8375 58.9587C42.6504 58.8044 42.5189 58.7516 42.3195 58.9587C41.36 59.9656 41.4224 59.5905 42.4197 60.4472C43.1784 61.099 44.0037 61.6716 44.7142 62.3812L44.8053 62.4836V62.4795C44.9887 63.1013 45.1403 63.7244 44.8103 64.3485Z" fill="#F8E0C7"/>
<path d="M54.9455 55.8199C54.4084 55.7206 54.1471 55.2422 53.7666 54.9359C52.61 54.0001 51.4907 53.0205 50.3573 52.0537C49.4383 51.2681 48.5261 50.4747 47.6094 49.6868C46.6253 48.842 45.6403 47.9984 44.6544 47.156C44.3526 46.8966 44.0358 46.6499 43.7618 46.3627C43.419 46.0026 43.0622 45.8956 42.5783 46.0718C41.9975 46.2844 41.3921 46.4273 40.8031 46.618C40.1932 46.8137 39.9324 47.385 39.5546 47.826C38.9278 48.5616 38.3957 49.3937 37.5295 49.9039C36.1804 50.6991 34.7925 50.7346 33.3897 50.0901C32.7643 49.8029 32.6159 49.121 33.0219 48.5484C33.9236 47.2739 34.8581 46.0176 35.737 44.7249C36.1608 44.1022 36.8026 43.8105 37.3934 43.4304C37.5905 43.3034 37.8149 43.216 37.9619 43.0207C38.8472 42.607 39.6329 42.0239 40.4745 41.5364C41.15 41.1445 41.774 40.6411 42.5446 40.4476C43.5979 40.1836 44.6171 40.3566 45.6207 40.7512C46.6244 41.1459 47.644 41.4945 48.6609 41.8523C49.3313 42.0881 50.0182 42.104 50.7119 41.9565C51.8075 41.723 52.8922 41.4477 53.9691 41.1427C54.9945 42.8887 56.0195 44.6351 57.0443 46.3818C58.2366 48.4258 59.4246 50.4723 60.6083 52.5212C59.8009 53.4479 58.8928 54.2559 57.809 54.8485C56.9123 55.3387 55.9651 55.6879 54.9455 55.8199Z" fill="#EEC29F"/>
<path d="M48.4509 60.5323C47.7772 59.9169 47.0252 59.3998 46.3115 58.8358C45.8723 58.4895 45.4285 58.149 44.9856 57.8076C44.8267 57.6856 44.8331 57.6192 45.0052 57.4835C45.9237 56.7552 45.9196 56.7461 46.8992 57.5126C48.14 58.4835 49.3826 59.4512 50.6129 60.4349C51.1104 60.8322 51.6521 60.9702 52.2671 60.8354C52.3499 60.8177 52.4104 60.8236 52.4614 60.8905C51.9371 61.9752 50.4586 62.1741 49.5938 61.4554C49.2952 61.2078 49.0476 60.8714 48.6297 60.7899V60.7931C48.6371 60.7569 48.6321 60.7194 48.6156 60.6864C48.5991 60.6534 48.572 60.6269 48.5387 60.611L48.5423 60.616L48.4509 60.5323Z" fill="#F8E0C7"/>
<path d="M52.4466 58.9227C51.3542 57.9581 50.1957 57.0792 49.0646 56.1643C48.9465 56.0764 48.8362 55.9783 48.7351 55.8712C48.5803 55.6941 48.1502 55.6144 48.2799 55.3705C48.462 55.0355 48.807 54.7787 49.1156 54.5307C49.2349 54.4337 49.3837 54.5935 49.4957 54.685C50.9445 55.863 52.3829 57.0519 53.8444 58.2149C54.3779 58.6386 55.017 58.64 55.6583 58.4825C55.5503 58.7212 55.3935 58.9346 55.1979 59.109C55.0023 59.2833 54.7723 59.4147 54.5228 59.4946C54.2733 59.5745 54.0097 59.6012 53.7493 59.5729C53.4888 59.5446 53.2371 59.4621 53.0106 59.3305C52.8599 59.2417 52.7347 59.1029 52.5422 59.1029V59.1061C52.5496 59.0692 52.5441 59.0309 52.5268 58.9975C52.5094 58.9641 52.4811 58.9377 52.4466 58.9227Z" fill="#F8E0C7"/>
<path d="M44.7144 62.3807C44.0039 61.6711 43.1787 61.0985 42.4199 60.4466C41.4226 59.59 41.3603 59.9651 42.3198 58.9582C42.5178 58.7502 42.6507 58.803 42.8378 58.9582C44.1232 60.0167 45.4118 61.071 46.7036 62.1212C47.1779 62.5086 47.705 62.6706 48.3122 62.51C48.4064 62.4849 48.487 62.4927 48.547 62.5787C48.0432 63.6074 46.7564 63.8018 45.9371 63.3038C45.536 63.0598 45.237 62.6797 44.8055 62.4799V62.484L44.7144 62.3807Z" fill="#F8E0C7"/>
<path d="M37.7851 55.3677C38.8361 55.7364 39.2458 57.0691 38.5903 58.035C38.3696 58.3605 38.0928 58.6522 37.9494 59.0282C37.1115 60.0219 36.3486 61.0688 35.7318 62.2167L35.6458 62.3078L35.6503 62.3037C35.3627 62.6437 35.0841 62.9937 34.6599 63.1781C34.6305 63.1275 34.5954 63.0804 34.5552 63.0379C33.5151 62.1644 33.3981 61.2791 34.1719 60.1957C34.7796 59.3459 35.3627 58.4779 35.9844 57.6386C36.5607 56.8629 36.9867 55.9671 37.7851 55.3677Z" fill="#EEC29F"/>
<path d="M34.3201 54.2144C34.8736 54.3163 35.352 54.9208 35.3793 55.5626C35.3893 55.7993 35.3793 56.0364 35.382 56.2731C34.4539 57.8453 33.3337 59.2882 32.2973 60.7848C32.1056 60.8613 31.9709 61.0511 31.7465 61.0634C30.7133 60.5222 30.4169 59.341 31.0783 58.3961C31.8976 57.2272 32.7051 56.0524 33.5404 54.8962C33.7388 54.619 33.9487 54.3127 34.3201 54.2144Z" fill="#EEC29F"/>
<path d="M32.2971 60.7847C33.3358 59.288 34.4537 57.8451 35.3818 56.2729C35.766 55.8533 36.086 55.3703 36.721 55.252C37.1029 55.1805 37.4447 55.1924 37.7852 55.368C36.9868 55.9671 36.5594 56.8629 35.9845 57.6389C35.3627 58.4783 34.7796 59.3463 34.172 60.1961C33.3982 61.2794 33.5152 62.1647 34.5552 63.0382C34.5954 63.0808 34.6305 63.1278 34.6599 63.1784C33.9403 63.4188 33.2762 63.315 32.7254 62.7888C32.141 62.2298 32.0545 61.5352 32.2971 60.7847Z" fill="#EEC29F"/>
<path d="M34.3199 54.2144C33.9485 54.3127 33.74 54.619 33.5402 54.8971C32.7049 56.0533 31.8961 57.2281 31.0781 58.397C30.4168 59.3419 30.714 60.5231 31.7463 61.0643C30.7764 61.6465 29.3457 60.875 29.2429 59.7275C29.1951 59.2022 29.3535 58.7452 29.607 58.305L29.602 58.3087C29.6343 58.2777 29.6662 58.2463 29.698 58.2149C30.3118 57.5078 30.846 56.7354 31.2912 55.9117C31.7313 55.4383 31.9903 54.8257 32.4842 54.391C33.0454 53.8962 33.847 53.8093 34.3199 54.2144Z" fill="#EEC29F"/>
<path d="M31.2914 55.9108C30.8463 56.7345 30.312 57.5069 29.6983 58.214L29.6023 58.3078L29.6073 58.3041L29.3569 58.3078C28.4889 57.9232 28.0706 56.9031 28.4798 56.0929C28.9058 55.2499 29.3779 54.3924 30.2281 53.8589C30.5276 53.9648 30.7887 54.1575 30.9781 54.4125C31.1675 54.6675 31.2766 54.9731 31.2914 55.2904C31.2987 55.4971 31.2914 55.7042 31.2914 55.9108Z" fill="#EEC29F"/>
<path d="M35.732 62.2165C36.3487 61.0686 37.1116 60.0217 37.9496 59.028C38.3541 58.8671 38.7901 58.8012 39.2241 58.8355C39.3884 58.85 39.5381 58.881 39.6492 59.0148C39.2072 59.1841 38.9751 59.5751 38.7152 59.9252C38.2869 60.5033 37.8636 61.0872 37.4789 61.6944C36.9241 62.5698 37.1676 63.4696 37.8713 64.1151C37.956 64.1925 38.087 64.217 38.1312 64.3427C37.0583 64.8293 35.7119 64.0646 35.6569 62.6585C35.6523 62.5406 35.6518 62.4227 35.6496 62.3044L35.645 62.3085L35.732 62.2165Z" fill="#EEC29F"/>
<path d="M30.2266 53.8585C29.3764 54.392 28.9066 55.2495 28.4783 56.0925C28.0686 56.9027 28.4874 57.9228 29.3554 58.3074C28.9198 58.646 28.4451 58.5914 27.9794 58.4094C26.9043 57.9915 26.5096 56.7389 27.1196 55.7575C27.4073 55.2941 27.7955 54.8972 28.0163 54.392C28.491 53.9063 29.0391 53.605 29.746 53.6792C29.9271 53.6974 30.0974 53.7124 30.2266 53.8585Z" fill="#EEC29F"/>
<path d="M62.2521 50.3951C61.9989 50.3991 61.7541 50.3041 61.5698 50.1303C61.3856 49.9565 61.2765 49.7177 61.2657 49.4647C61.2461 48.9462 61.7209 48.4633 62.243 48.4683C62.4963 48.4751 62.7373 48.5792 62.916 48.759C63.0946 48.9387 63.1972 49.1804 63.2025 49.4337C63.2023 49.6867 63.1024 49.9295 62.9245 50.1094C62.7467 50.2893 62.5051 50.392 62.2521 50.3951Z" fill="white"/>
<path d="M24.9845 49.0246C24.9863 49.1535 24.9618 49.2814 24.9125 49.4005C24.8632 49.5196 24.7901 49.6274 24.6978 49.7173C24.6054 49.8072 24.4957 49.8774 24.3754 49.9235C24.255 49.9696 24.1265 49.9907 23.9977 49.9855C23.497 49.9705 23.0418 49.4916 23.0596 48.9941C23.0702 48.7413 23.1798 48.5028 23.3646 48.33C23.5495 48.1571 23.7948 48.0638 24.0478 48.0701C24.5894 48.0765 24.9873 48.4807 24.9845 49.0246Z" fill="white"/>
</svg>
