<svg width="72" height="72" viewBox="0 0 72 72" fill="none" xmlns="http://www.w3.org/2000/svg">
<path d="M7 63.9655V9C7 7.89543 7.89543 7 9 7H43.1771L53.5517 16.4496V42.5V63.9655C53.5517 65.0701 52.6563 65.9655 51.5517 65.9655H44L9 65.9655C7.89543 65.9655 7 65.0701 7 63.9655Z" fill="#F0F0F0"/>
<g filter="url(#filter0_d_424_880)">
<path d="M43 16.5V7.5L53 16.5H43Z" fill="#F0F0F0"/>
<path d="M43 16.5V7.5L53 16.5H43Z" stroke="#F0F0F0" stroke-linejoin="round"/>
</g>
<path d="M24 22.5171H46.5" stroke="#2E2E2E" stroke-width="3" stroke-linecap="round"/>
<path d="M15 29.5171H46" stroke="#2E2E2E" stroke-width="3" stroke-linecap="round"/>
<path d="M15 36.5171H46" stroke="#2E2E2E" stroke-width="3" stroke-linecap="round"/>
<path d="M15 43.5171H34" stroke="#2E2E2E" stroke-width="3" stroke-linecap="round"/>
<path d="M15 50.5171H34" stroke="#2E2E2E" stroke-width="3" stroke-linecap="round"/>
<path d="M15 57.5171H34" stroke="#2E2E2E" stroke-width="3" stroke-linecap="round"/>
<path d="M16.0825 14.26V12.833" stroke="#489C51" stroke-width="2" stroke-linecap="round"/>
<path d="M16.0825 23.7731V22.3462" stroke="#489C51" stroke-width="2" stroke-linecap="round"/>
<path d="M13.9895 21.2992C14.6201 21.9298 16.2541 22.8113 17.769 21.3247C17.7859 21.3081 17.8017 21.2901 17.8155 21.2709C18.2809 20.6226 18.6175 19.1952 16.3678 18.4453" stroke="#489C51" stroke-width="2" stroke-linecap="round"/>
<path d="M18.46 15.4967C17.8293 14.8661 16.1954 13.9846 14.6805 15.4712C14.6636 15.4878 14.6478 15.5058 14.634 15.525C14.1686 16.1733 13.8319 17.6007 16.0817 18.3506" stroke="#489C51" stroke-width="2" stroke-linecap="round"/>
<path d="M64.956 48.0601H38.044C37.4674 48.0601 37 48.5275 37 49.1041V67.316C37 67.8926 37.4674 68.36 38.044 68.36H52.08H64.956C65.5326 68.36 66 67.8926 66 67.316V60.53V49.1041C66 48.5275 65.5326 48.0601 64.956 48.0601Z" fill="#B8763C"/>
<path d="M46.5701 48.06V45.044C46.5701 44.4674 47.0375 44 47.6141 44H54.8061C55.3827 44 55.8501 44.4674 55.8501 45.044V48.06" stroke="#B8753E" stroke-width="1.566" stroke-linecap="round" stroke-linejoin="round"/>
<path d="M54.5771 59.08H56.3309H58.0846C60.8996 59.08 62.1972 58.3501 63.6816 57.0509C65.1661 55.7516 66 53.9894 66 52.152V49.1041C66 48.5275 65.5326 48.0601 64.956 48.0601H38.044C37.4674 48.0601 37 48.5275 37 49.1041V52.152C37 53.9894 37.8339 55.7516 39.3184 57.0509C40.8028 58.3501 41.8532 59.08 44.9154 59.08H48.02" fill="#763D08"/>
<path d="M52.776 57.3403H49.064C48.4874 57.3403 48.02 57.8077 48.02 58.3843V59.7763C48.02 60.3529 48.4874 60.8203 49.064 60.8203H52.776C53.3526 60.8203 53.82 60.3529 53.82 59.7763V58.3843C53.82 57.8077 53.3526 57.3403 52.776 57.3403Z" stroke="#8F5B30" stroke-width="1.566" stroke-linecap="round" stroke-linejoin="round"/>
<defs>
<filter id="filter0_d_424_880" x="38.5" y="7" width="19" height="18" filterUnits="userSpaceOnUse" color-interpolation-filters="sRGB">
<feFlood flood-opacity="0" result="BackgroundImageFix"/>
<feColorMatrix in="SourceAlpha" type="matrix" values="0 0 0 0 0 0 0 0 0 0 0 0 0 0 0 0 0 0 127 0" result="hardAlpha"/>
<feOffset dy="4"/>
<feGaussianBlur stdDeviation="2"/>
<feComposite in2="hardAlpha" operator="out"/>
<feColorMatrix type="matrix" values="0 0 0 0 0 0 0 0 0 0 0 0 0 0 0 0 0 0 0.25 0"/>
<feBlend mode="normal" in2="BackgroundImageFix" result="effect1_dropShadow_424_880"/>
<feBlend mode="normal" in="SourceGraphic" in2="effect1_dropShadow_424_880" result="shape"/>
</filter>
</defs>
</svg>
