<svg width="72" height="72" viewBox="0 0 72 72" fill="none" xmlns="http://www.w3.org/2000/svg">
<path d="M8 65.0557V7.9443C8 7.42278 8.42278 7 8.9443 7H52.0557C52.5772 7 53 7.42278 53 7.9443V36.1457V65.0557C53 65.5772 52.5772 66 52.0557 66H33.993H8.9443C8.42278 66 8 65.5772 8 65.0557Z" fill="#F0F0F0"/>
<path d="M13 29.1239L15.4405 31.5644C15.8457 31.9696 16.5077 31.9521 16.8909 31.5263L20.9646 27" stroke="#188316" stroke-width="3" stroke-linecap="round"/>
<path d="M13 40.1239L15.4405 42.5644C15.8457 42.9696 16.5077 42.9521 16.8909 42.5263L20.9646 38" stroke="#188316" stroke-width="3" stroke-linecap="round"/>
<path d="M13 52.1239L15.4405 54.5644C15.8457 54.9696 16.5077 54.9521 16.8909 54.5263L20.9646 50" stroke="#188316" stroke-width="3" stroke-linecap="round"/>
<path d="M63.956 47.0601H37.044C36.4674 47.0601 36 47.5275 36 48.1041V66.316C36 66.8926 36.4674 67.36 37.044 67.36H51.08H63.956C64.5326 67.36 65 66.8926 65 66.316V59.53V48.1041C65 47.5275 64.5326 47.0601 63.956 47.0601Z" fill="#B8763C"/>
<path d="M45.5698 47.06V44.044C45.5698 43.4674 46.0372 43 46.6138 43H53.8058C54.3824 43 54.8498 43.4674 54.8498 44.044V47.06" stroke="#B8753E" stroke-width="1.566" stroke-linecap="round" stroke-linejoin="round"/>
<path d="M53.5771 58.08H55.3309H57.0846C59.8996 58.08 61.1972 57.3501 62.6816 56.0509C64.1661 54.7516 65 52.9894 65 51.152V48.1041C65 47.5275 64.5326 47.0601 63.956 47.0601H37.044C36.4674 47.0601 36 47.5275 36 48.1041V51.152C36 52.9894 36.8339 54.7516 38.3184 56.0509C39.8028 57.3501 40.8532 58.08 43.9154 58.08H47.02" fill="#763D08"/>
<path d="M51.776 56.3403H48.064C47.4874 56.3403 47.02 56.8077 47.02 57.3843V58.7763C47.02 59.3529 47.4874 59.8203 48.064 59.8203H51.776C52.3526 59.8203 52.82 59.3529 52.82 58.7763V57.3843C52.82 56.8077 52.3526 56.3403 51.776 56.3403Z" stroke="#8F5B30" stroke-width="1.566" stroke-linecap="round" stroke-linejoin="round"/>
<path d="M17 16.5H42.5M26 29.5H42.5M26 42H42.5M26 53.5H32" stroke="#2E2E2E" stroke-width="3" stroke-linecap="round"/>
</svg>
