<svg width="72" height="72" viewBox="0 0 72 72" fill="none" xmlns="http://www.w3.org/2000/svg">
<path d="M8 11C8 9.89543 8.89543 9 10 9H48.4138C49.5184 9 50.4138 9.89543 50.4138 11V53.4828H44.1379C43.0334 53.4828 42.1379 54.3782 42.1379 55.4828V62.7931H10C8.89543 62.7931 8 61.8977 8 60.7931V11Z" fill="#F0F0F0"/>
<g filter="url(#filter0_d_424_1053)">
<path d="M42 55.5V62.9L50.5 53.5H44C42.8954 53.5 42 54.3954 42 55.5Z" fill="#F0F0F0"/>
</g>
<path d="M38.8866 41.7632L37.7082 45.0036C37.4361 45.7519 38.181 46.4679 38.918 46.1664L42.0927 44.8677C42.2415 44.8068 42.3717 44.7079 42.4703 44.5808L61.8183 19.6383C62.1325 19.2333 62.0539 18.6495 61.6438 18.3419L59.2484 16.5454C58.8456 16.2433 58.2746 16.3222 57.9688 16.7223L39.0198 41.5197C38.9633 41.5936 38.9184 41.6758 38.8866 41.7632Z" fill="#D3A895"/>
<path d="M55.8152 19.5L59.6152 22.5L43.6152 43L40.1152 40L55.8152 19.5Z" fill="#1A302E"/>
<path d="M15 31.7773H41.6666" stroke="#2E2E2E" stroke-width="3" stroke-linecap="round"/>
<path d="M15.5552 39.5552H35.1152" stroke="#2E2E2E" stroke-width="3" stroke-linecap="round"/>
<path d="M15 47.8887H31.6666" stroke="#2E2E2E" stroke-width="3" stroke-linecap="round"/>
<path d="M42.3236 14H21.9444H16.0097C15.4521 14 15 14.4521 15 15.0097V24.1014C15 24.659 15.4521 25.1111 16.0097 25.1111H42.3236C42.8812 25.1111 43.3333 24.659 43.3333 24.1014V15.0097C43.3333 14.4521 42.8812 14 42.3236 14Z" fill="#B5B5B5"/>
<path d="M15 55.6665H31.6666" stroke="#2E2E2E" stroke-width="3" stroke-linecap="round"/>
<defs>
<filter id="filter0_d_424_1053" x="38" y="53.5" width="16.5" height="17.3999" filterUnits="userSpaceOnUse" color-interpolation-filters="sRGB">
<feFlood flood-opacity="0" result="BackgroundImageFix"/>
<feColorMatrix in="SourceAlpha" type="matrix" values="0 0 0 0 0 0 0 0 0 0 0 0 0 0 0 0 0 0 127 0" result="hardAlpha"/>
<feOffset dy="4"/>
<feGaussianBlur stdDeviation="2"/>
<feComposite in2="hardAlpha" operator="out"/>
<feColorMatrix type="matrix" values="0 0 0 0 0 0 0 0 0 0 0 0 0 0 0 0 0 0 0.25 0"/>
<feBlend mode="normal" in2="BackgroundImageFix" result="effect1_dropShadow_424_1053"/>
<feBlend mode="normal" in="SourceGraphic" in2="effect1_dropShadow_424_1053" result="shape"/>
</filter>
</defs>
</svg>
