<svg width="72" height="72" viewBox="0 0 72 72" fill="none" xmlns="http://www.w3.org/2000/svg">
<path d="M7 63.9655V9C7 7.89543 7.89543 7 9 7H43.1771L53.5517 16.4496V42.5V63.9655C53.5517 65.0701 52.6563 65.9655 51.5517 65.9655H44L9 65.9655C7.89543 65.9655 7 65.0701 7 63.9655Z" fill="#F0F0F0"/>
<g filter="url(#filter0_d_424_772)">
<path d="M43 16.5V7.5L53 16.5H43Z" fill="#F0F0F0"/>
<path d="M43 16.5V7.5L53 16.5H43Z" stroke="#F0F0F0" stroke-linejoin="round"/>
</g>
<path d="M25 21.5171H47.5" stroke="#2E2E2E" stroke-width="3" stroke-linecap="round"/>
<path d="M16 28.5171H47" stroke="#2E2E2E" stroke-width="3" stroke-linecap="round"/>
<path d="M16 35.5171H47" stroke="#2E2E2E" stroke-width="3" stroke-linecap="round"/>
<path d="M16 42.5171H35" stroke="#2E2E2E" stroke-width="3" stroke-linecap="round"/>
<path d="M16 49.5171H35" stroke="#2E2E2E" stroke-width="3" stroke-linecap="round"/>
<path d="M16 56.5171H35" stroke="#2E2E2E" stroke-width="3" stroke-linecap="round"/>
<path d="M17.0823 13.26V11.833" stroke="#489C51" stroke-width="2" stroke-linecap="round"/>
<path d="M17.0823 22.7731V21.3462" stroke="#489C51" stroke-width="2" stroke-linecap="round"/>
<path d="M14.9893 20.2992C15.6199 20.9298 17.2538 21.8113 18.7687 20.3247C18.7856 20.3081 18.8014 20.2901 18.8152 20.2709C19.2807 19.6226 19.6173 18.1952 17.3675 17.4453" stroke="#489C51" stroke-width="2" stroke-linecap="round"/>
<path d="M19.4597 14.4967C18.8291 13.8661 17.1951 12.9846 15.6802 14.4712C15.6634 14.4878 15.6475 14.5058 15.6337 14.525C15.1683 15.1733 14.8317 16.6007 17.0815 17.3506" stroke="#489C51" stroke-width="2" stroke-linecap="round"/>
<path d="M61 55.2002L57.5 50.3003L53.5 55.3003L49.5 50.3003L45.5 55.3003L42 50.2002" stroke="#F9980B" stroke-width="2" stroke-linecap="round" stroke-linejoin="round"/>
<path d="M53 68V68C53 67.3597 52.7456 66.7456 52.2929 66.2929L52.25 66.25C51.7698 65.7698 51.5 65.1185 51.5 64.4393V64" stroke="#303030" stroke-width="2"/>
<path d="M50 67.5V68C50 68.8284 50.6716 69.5 51.5 69.5V69.5C52.3284 69.5 53 68.8284 53 68V67.5" stroke="#303030" stroke-width="2" stroke-linecap="round"/>
<path d="M41 47H62C62.5523 47 63 47.4477 63 48V49C63 49.5523 62.5523 50 62 50H41C40.4477 50 40 49.5523 40 49V48C40 47.4477 40.4477 47 41 47Z" fill="#F9980B"/>
<path d="M41 55.5996H62C62.5523 55.5996 63 56.0473 63 56.5996V57.5996C63 58.1519 62.5523 58.5996 62 58.5996H41C40.4477 58.5996 40 58.1519 40 57.5996V56.5996C40 56.0473 40.4477 55.5996 41 55.5996Z" fill="#F9980B"/>
<path d="M53.5 64.7002H51.5H49.5V58.7002H53.5V64.7002Z" fill="#F9980B"/>
<defs>
<filter id="filter0_d_424_772" x="38.5" y="7" width="19" height="18" filterUnits="userSpaceOnUse" color-interpolation-filters="sRGB">
<feFlood flood-opacity="0" result="BackgroundImageFix"/>
<feColorMatrix in="SourceAlpha" type="matrix" values="0 0 0 0 0 0 0 0 0 0 0 0 0 0 0 0 0 0 127 0" result="hardAlpha"/>
<feOffset dy="4"/>
<feGaussianBlur stdDeviation="2"/>
<feComposite in2="hardAlpha" operator="out"/>
<feColorMatrix type="matrix" values="0 0 0 0 0 0 0 0 0 0 0 0 0 0 0 0 0 0 0.25 0"/>
<feBlend mode="normal" in2="BackgroundImageFix" result="effect1_dropShadow_424_772"/>
<feBlend mode="normal" in="SourceGraphic" in2="effect1_dropShadow_424_772" result="shape"/>
</filter>
</defs>
</svg>
