<svg width="72" height="72" viewBox="0 0 72 72" fill="none" xmlns="http://www.w3.org/2000/svg">
<path d="M18.6261 4.2278C14.426 5.31546 11.068 9.42857 10.1951 14.5543C10.0103 15.6295 10 16.6796 10 37.2452C10 58.4983 10 58.8233 10.2054 59.8735C10.8626 63.174 12.9267 66.0619 15.5248 67.2996C17.0755 68.0372 15.874 67.9997 36.3097 67.9997C54.5889 67.9997 55.051 67.9872 55.8725 67.7496C59.0457 66.8245 61.613 63.7115 62.373 59.8735C62.5681 58.8358 62.5783 58.4733 62.5783 40.3331C62.5783 22.318 62.5783 21.8429 62.3832 21.3928C62.0854 20.6927 48.6533 4.42783 48.1809 4.1778C47.842 4.01527 46.1681 3.99027 33.65 4.00277C20.413 4.00277 19.4477 4.02777 18.6261 4.2278ZM45.018 13.9042C45.018 19.0175 45.0385 19.205 45.7574 20.9928C46.5584 22.9931 48.1604 24.5433 50.0088 25.1184C50.7277 25.3434 51.159 25.3684 54.4862 25.3684H58.1626V41.4833C58.1626 51.7473 58.1215 57.8357 58.0599 58.2607C57.7313 60.3736 56.3141 62.0988 54.5684 62.4989C53.829 62.6739 18.7596 62.6739 17.9997 62.4989C16.2642 62.0988 14.8471 60.3736 14.5185 58.2482C14.4568 57.8232 14.4158 50.3596 14.4158 37.1576C14.4158 19.1175 14.4363 16.6171 14.5801 15.7795C15.1141 12.6165 17.0447 10.2412 19.6222 9.56609C20.2076 9.41607 22.2409 9.39106 32.6744 9.37856L45.018 9.36606V13.9042ZM54.7532 19.9801C54.6197 20.0051 53.7571 19.9926 52.8226 19.9676C50.9947 19.9176 50.6044 19.7801 50.091 19.0925C49.5467 18.3674 49.4954 18.0798 49.4543 15.5545L49.4235 13.1791L52.2064 16.5546C54.5478 19.405 54.9483 19.9426 54.7532 19.9801Z" fill="#0D313B"/>
<path d="M54.7532 19.9801C54.6197 20.0051 53.7571 19.9926 52.8226 19.9676C50.9947 19.9176 50.6044 19.7801 50.091 19.0925C49.5467 18.3674 49.4954 18.0798 49.4543 15.5545L49.4235 13.1791L52.2064 16.5546C54.5478 19.405 54.9483 19.9426 54.7532 19.9801Z" fill="#CDF1FB"/>
<path d="M25.9773 35.9103L23.9719 38.1114L22.833 36.8614L21.7024 35.6204L20.4232 37.0244L19.144 38.4285L21.0009 40.4666C22.1315 41.7166 22.9898 42.5771 23.1961 42.6858C23.6005 42.9032 24.269 42.9213 24.6982 42.7311C24.9045 42.6315 25.9196 41.5807 27.7929 39.5336L30.5741 36.4809L29.3197 35.1041C28.6265 34.3432 28.0405 33.7182 28.0158 33.7182C27.991 33.7182 27.0749 34.7055 25.9773 35.9103Z" fill="#0D313B"/>
<path d="M25.9773 22.1942L23.9719 24.3954L22.833 23.1453L21.7024 21.9043L20.4232 23.3084L19.144 24.7124L21.0009 26.7505C22.1315 28.0005 22.9898 28.8611 23.1961 28.9698C23.6005 29.1871 24.269 29.2053 24.6982 29.015C24.9045 28.9154 25.9196 27.8647 27.7929 25.8175L30.5741 22.7649L29.3197 21.388C28.6265 20.6271 28.0405 20.0021 28.0158 20.0021C27.991 20.0021 27.0749 20.9895 25.9773 22.1942Z" fill="#0D313B"/>
<path d="M25.9773 49.6263L23.9719 51.8275L22.833 50.5774L21.7024 49.3365L20.4232 50.7405L19.144 52.1445L21.0009 54.1826C22.1315 55.4327 22.9898 56.2932 23.1961 56.4019C23.6005 56.6193 24.269 56.6374 24.6982 56.4472C24.9045 56.3475 25.9196 55.2968 27.7929 53.2496L30.5741 50.197L29.3197 48.8202C28.6265 48.0593 28.0405 47.4343 28.0158 47.4343C27.991 47.4343 27.0749 48.4216 25.9773 49.6263Z" fill="#0D313B"/>
<path d="M35.1462 38.2902V40.5762H44.2903H53.4344V38.2902V36.0042H44.2903H35.1462V38.2902Z" fill="#0D313B"/>
<path d="M35.1462 52.0063V54.2923H44.2903H53.4344V52.0063V49.7203H44.2903H35.1462V52.0063Z" fill="#0D313B"/>
<path d="M35.1462 24.5742V26.8602H39.7183H44.2903V24.5742V22.2881H39.7183H35.1462V24.5742Z" fill="#0D313B"/>
</svg>
