<svg width="72" height="72" viewBox="0 0 72 72" fill="none" xmlns="http://www.w3.org/2000/svg">
<path d="M16.6726 5.1969C12.5664 5.95128 9.32389 8.77405 8.47432 12.3147C8.2761 13.142 8.24778 15.4537 8.24778 32.792V52.3201H6.12387H4V55.6662C4 59.3165 4.12742 60.2288 4.80706 61.616C6.06723 64.1955 8.64422 66.1542 11.915 67.0059C12.6514 67.2006 14.3221 67.2249 33.0973 67.2614C47.9504 67.2857 53.7133 67.2616 54.3363 67.1641C55.4832 66.9696 56.9557 66.288 57.7203 65.5825C58.4706 64.9009 59.1221 63.8304 59.3486 62.93C59.4618 62.4675 59.5043 57.9657 59.5043 47.3925V32.4878H63.752H68V21.2332C68 13.3124 67.9574 9.79608 67.844 9.34591C67.3203 7.25314 65.3662 5.5741 62.931 5.1239C62.3928 5.02658 56.0213 4.99006 39.9221 5.00222C20.7221 5.01442 17.5221 5.03874 16.6726 5.1969ZM55.4549 8.96872C55.3982 9.16339 55.3133 21.2454 55.2707 35.8337C55.1859 61.6646 55.1715 62.3704 54.9168 62.7473C54.591 63.2099 53.7414 63.6355 53.1469 63.6355C52.4246 63.6355 51.6176 63.2099 51.2918 62.6624C51.023 62.2121 51.0086 61.9566 51.0086 57.2478V52.3201H31.7522H12.4955V32.9744C12.4955 19.2256 12.5381 13.4584 12.6514 12.996C12.9062 11.9376 13.4725 11.0736 14.393 10.2828C15.299 9.5041 16.1912 9.06608 17.3805 8.81055C17.9328 8.70106 22.3362 8.66454 36.8354 8.65238L55.568 8.64023L55.4549 8.96872ZM62.6194 8.88357C62.9874 9.04173 63.285 9.29723 63.4688 9.61357C63.752 10.0759 63.752 10.3071 63.752 19.4691V28.8377H61.6282H59.5043V19.4691C59.5043 10.3193 59.5043 10.0759 59.7875 9.61357C60.3114 8.72538 61.5434 8.40904 62.6194 8.88357ZM46.8035 59.523C46.8318 61.4822 46.9026 63.2099 46.9592 63.3557L47.0723 63.6355H30.5768C19.0229 63.6355 13.8406 63.5992 13.3168 63.5017C11.5186 63.1733 9.8053 62.0539 8.98405 60.6424C8.41768 59.6813 8.24778 58.8905 8.24778 57.3086V55.9704H27.4901H46.7469L46.8035 59.523Z" fill="#0B2D1F"/>
<path d="M46.8035 59.523C46.8318 61.4822 46.9026 63.2099 46.9592 63.3557L47.0723 63.6355H30.5768C19.0229 63.6355 13.8406 63.5992 13.3168 63.5017C11.5186 63.1733 9.8053 62.0539 8.98405 60.6424C8.41768 59.6813 8.24778 58.8905 8.24778 57.3086V55.9704H27.4901H46.7469L46.8035 59.523Z" fill="#62C89E"/>
<path d="M62.6194 8.88357C62.9874 9.04173 63.285 9.29723 63.4688 9.61357C63.752 10.0759 63.752 10.3071 63.752 19.4691V28.8377H61.6282H59.5043V19.4691C59.5043 10.3193 59.5043 10.0759 59.7875 9.61357C60.3114 8.72538 61.5434 8.40904 62.6194 8.88357Z" fill="#22885E"/>
<path d="M31.3285 13.6149V14.8315L30.4789 15.2209C27.1654 16.7296 26.4434 20.3797 29.0064 22.5942C29.7 23.1904 30.592 23.5798 33.5373 24.5896C35.8734 25.3803 36.4683 25.6846 36.7656 26.2078C37.091 26.804 37.0488 27.0717 36.5533 27.5585C35.4205 28.6657 32.4613 28.5317 30.7904 27.3029L30.2099 26.8769L28.6379 28.1181L27.0664 29.347L27.3922 29.651C27.9019 30.1256 29.5019 31.0139 30.4082 31.3302L31.2578 31.6222L31.3 32.8389L31.3426 34.0678H33.4523H35.5762V32.9851V31.9021L36.2416 31.7683C38.9035 31.1841 40.9851 29.2129 41.1974 27.0597C41.3814 25.1859 40.2064 23.4094 38.0966 22.3385C37.7282 22.1561 36.369 21.6331 35.0522 21.1829C31.9797 20.112 31.9512 20.0998 31.7674 19.7592C31.5691 19.3821 31.7533 18.9806 32.3053 18.5792C33.1691 17.9584 34.7974 18.0195 36.4258 18.7249L37.2611 19.0901L38.6062 17.7272L39.9514 16.3646L39.5974 16.1091C39.0736 15.7441 37.3461 15.0262 36.3974 14.7829L35.5762 14.5881V13.4931V12.4102H33.4523H31.3285V13.6149Z" fill="#0B2D1F"/>
<path d="M16.7437 39.6657V41.4908H33.8766H51.0093V39.6657V37.8406H33.8766H16.7437V39.6657Z" fill="#0B2D1F"/>
<path d="M16.7437 46.9678V48.793H33.8766H51.0093V46.9678V45.1429H33.8766H16.7437V46.9678Z" fill="#0B2D1F"/>
</svg>