<svg width="72" height="72" viewBox="0 0 72 72" fill="none" xmlns="http://www.w3.org/2000/svg">
<rect x="19" y="26" width="28" height="7" fill="#CBEDDF"/>
<path d="M29.3372 8.17663C17.3756 9.7326 7.6911 18.0032 4.75073 29.1702C4.1001 31.6239 4 32.4856 4 35.9926C4 39.4277 4.1001 40.3253 4.70068 42.6354C7.07801 51.8754 14.2225 59.4159 23.5316 62.4799C26.2968 63.4016 29.7001 64 32.1024 64H33.216V62.1448V60.2896H32.2901C30.9638 60.2896 28.7241 59.9904 27.0725 59.5834C19.8029 57.824 13.8346 53.2159 10.4438 46.7527C7.81623 41.7736 7.11554 35.7891 8.49189 30.3073C9.58045 25.9865 11.9453 21.9888 15.261 18.8171C20.1157 14.1731 26.3969 11.6955 33.2786 11.6955C42.9756 11.6955 51.7591 16.9738 56.0633 25.388C56.8391 26.8961 57.6774 29.1702 58.0403 30.7023C58.2154 31.4204 58.2154 31.4563 58.0153 31.3007C57.9026 31.205 57.1769 30.6065 56.4137 29.9722C55.6379 29.3378 54.9623 28.8112 54.8997 28.8112C54.7746 28.8112 52.4223 31.4204 52.4223 31.5521C52.4223 31.6598 60.7304 38.5659 60.868 38.5659C60.9932 38.5659 68 30.6424 68 30.4988C68 30.3073 65.1097 28.0452 65.0096 28.1648C64.9595 28.2247 64.3089 28.9668 63.5582 29.8046C62.8199 30.6424 62.1943 31.3247 62.1818 31.3007C62.1693 31.2768 62.0317 30.7023 61.869 30.0081C60.2174 22.4796 55.15 15.8128 48.0555 11.7793C44.7148 9.8882 40.9611 8.66736 36.9322 8.16466C35.0929 7.93725 31.1515 7.94922 29.3372 8.17663Z" fill="#0B2D1F"/>
<path d="M22.7188 48.9807V34.6211H43.361V48.9807H22.7188ZM46.5024 32.2269H19.5775V26.2442H46.5024V32.2269ZM45.7552 50.1778V34.6211H47.6995C48.017 34.6211 48.3215 34.495 48.546 34.2705C48.7705 34.046 48.8966 33.7415 48.8966 33.424V25.0471C48.8966 24.7296 48.7705 24.4251 48.546 24.2006C48.3215 23.9761 48.017 23.85 47.6995 23.85H18.3804C18.0629 23.85 17.7584 23.9761 17.5339 24.2006C17.3094 24.4251 17.1833 24.7296 17.1833 25.0471V33.424C17.1833 33.7415 17.3094 34.046 17.5339 34.2705C17.7584 34.495 18.0629 34.6211 18.3804 34.6211H20.3246V50.1778C20.3246 50.4953 20.4507 50.7998 20.6752 51.0243C20.8997 51.2488 21.2042 51.3749 21.5217 51.3749H44.5581C44.8756 51.3749 45.1801 51.2488 45.4046 51.0243C45.6291 50.7998 45.7552 50.4953 45.7552 50.1778ZM36.1813 38.5096H29.8986C29.5811 38.5096 29.2766 38.6357 29.0521 38.8602C28.8276 39.0847 28.7015 39.3892 28.7015 39.7067C28.7015 40.0242 28.8276 40.3287 29.0521 40.5532C29.2766 40.7777 29.5811 40.9038 29.8986 40.9038H36.1813C36.4987 40.9038 36.8032 40.7777 37.0277 40.5532C37.2522 40.3287 37.3784 40.0242 37.3784 39.7067C37.3784 39.3892 37.2522 39.0847 37.0277 38.8602C36.8032 38.6357 36.4987 38.5096 36.1813 38.5096Z" fill="#0B2D1F" stroke="#0B2D1F" stroke-width="0.3"/>
</svg>
