<svg width="72" height="72" viewBox="0 0 72 72" fill="none" xmlns="http://www.w3.org/2000/svg">
<path d="M26.7972 11.8219L25.375 15.3774V16.7997H47.4194V13.9552L44.575 11.1108L41.0194 10.3997L40.3083 8.97743L39.5972 6.8441L36.0417 5.42188L33.1972 6.8441L32.4861 9.68854L29.6417 10.3997L26.7972 11.8219Z" fill="#22885E"/>
<path fill-rule="evenodd" clip-rule="evenodd" d="M36.03 5.14026L39.8035 6.64966L40.5466 8.8788L41.1933 10.1722L44.7018 10.8739L47.6766 13.8487V17.0568H25.1179V15.3279L26.5948 11.6356L29.552 10.1571L32.2741 9.47652L32.9765 6.66701L36.03 5.14026ZM36.0534 5.70353L33.4181 7.02122L32.6982 9.90061L29.7315 10.6423L26.9997 12.0082L25.6322 15.427V16.5425H47.1624V14.0617L44.4483 11.3477L40.8458 10.6272L40.0702 9.0761L39.3911 7.03858L36.0534 5.70353Z" fill="#0B2D1F"/>
<path d="M21.937 23.1356H29.0481V30.2467H21.937V23.1356Z" fill="#22885E"/>
<path d="M21.937 35.9359H29.0481V43.047H21.937V35.9359Z" fill="#22885E"/>
<path d="M21.9343 48.7361H29.0454V57.2694H21.9343V48.7361Z" fill="#22885E"/>
<path d="M25.5719 15.6376H46.5254C46.2815 14.8047 45.8303 14.0609 45.2316 13.4624C44.3104 12.5412 43.0345 11.965 41.639 11.965H40.4477C39.6634 11.965 39.0304 11.3312 39.0304 10.5477V9.83907C39.0304 9.01518 38.6936 8.26238 38.1489 7.71689C37.6041 7.17212 36.8513 6.83538 36.0267 6.83538C35.2028 6.83538 34.45 7.17212 33.9045 7.71689C33.3597 8.26167 33.023 9.01445 33.023 9.83907V10.5477C33.023 11.3319 32.3892 11.965 31.6057 11.965H30.4586C29.0585 11.965 27.7872 12.5367 26.8659 13.4624C26.2688 14.0603 25.8168 14.8093 25.5728 15.6376H25.5719ZM48.1461 18.4722H23.9512C23.167 18.4722 22.5339 17.8384 22.5339 17.0549C22.5339 14.8751 23.4244 12.8906 24.8597 11.4554C26.2464 10.0688 28.138 9.19188 30.2288 9.13422C30.3882 7.80522 30.9995 6.61397 31.899 5.71437C32.9579 4.65552 34.4149 4 36.0229 4C37.6309 4 39.0879 4.65552 40.1467 5.71437C41.0462 6.61383 41.6576 7.80972 41.817 9.13422C43.9257 9.18286 45.8347 10.0644 47.2303 11.46C48.6655 12.8953 49.5561 14.8753 49.5561 17.0595C49.565 17.8393 48.9312 18.4723 48.147 18.4723L48.1461 18.4722Z" fill="#0B2D1F"/>
<path d="M46.8961 11.7157C46.1584 11.7157 47.4222 12.5074 47.4222 13.2443C47.4222 13.982 47.1244 14.3819 47.8613 14.3819H54.9091C55.2758 14.3819 55.6095 14.5319 55.8509 14.7733C56.0923 15.0147 56.2423 15.3484 56.2423 15.7151V63.9996C56.2423 64.3664 56.0923 64.7 55.8509 64.9414C55.6095 65.1828 55.2758 65.3328 54.9091 65.3328H18.0002C17.6334 65.3328 17.2998 65.1829 17.0584 64.9414C16.8169 64.7 16.667 64.3664 16.667 63.9996L16.6663 15.7151C16.6663 15.3484 16.8162 15.0148 17.0577 14.7733C17.2991 14.5319 17.6327 14.3819 17.9995 14.3819H23.9556C24.6932 14.3819 24.6667 13.6267 24.6667 12.8897C24.6667 12.1521 26.741 11.7157 26.004 11.7157L18.0002 11.715C16.9 11.715 15.8999 12.1647 15.1748 12.8897C14.4498 13.6147 14 14.6149 14 15.7152V63.9997C14 65.0998 14.4498 66.1 15.1748 66.8251C15.8998 67.5501 16.9 67.9999 18.0002 67.9999H54.9055C56.0057 67.9999 57.0059 67.5501 57.731 66.8251C58.4559 66.1001 58.9057 65.0999 58.9057 63.9997V15.7152C58.9057 14.615 58.4559 13.6148 57.731 12.8897C57.006 12.1647 56.0057 11.715 54.9055 11.715L46.8961 11.7157Z" fill="#0B2D1F"/>
<path fill-rule="evenodd" clip-rule="evenodd" d="M25.7268 11.9728C25.2853 12.1739 24.6667 12.4869 24.6667 12.8897C24.6667 12.9145 24.6668 12.9393 24.6668 12.9641C24.6677 13.6766 24.6685 14.382 23.9556 14.382H17.9995C17.6328 14.382 17.2992 14.5319 17.0577 14.7733C16.8163 15.0148 16.6664 15.3484 16.6664 15.7151L16.6671 63.9996C16.6671 64.3664 16.817 64.7 17.0584 64.9414C17.2999 65.1829 17.6335 65.3328 18.0002 65.3328H54.9092C55.2759 65.3328 55.6095 65.1828 55.851 64.9414C56.0924 64.7 56.2423 64.3664 56.2423 63.9996V15.7151C56.2423 15.3484 56.0924 15.0147 55.851 14.7733C55.6095 14.5319 55.2759 14.382 54.9092 14.382H47.8614C47.3119 14.382 47.3377 14.1596 47.3864 13.7406C47.403 13.5977 47.4223 13.4319 47.4223 13.2443C47.4223 12.8993 47.1452 12.5422 46.9263 12.2601C46.6776 11.9396 46.5039 11.7157 46.8962 11.7157L54.9056 11.715C56.0058 11.715 57.006 12.1647 57.731 12.8897C58.456 13.6148 58.9058 14.615 58.9058 15.7152V63.9997C58.9058 65.0999 58.456 66.1001 57.731 66.8251C57.0059 67.5501 56.0058 67.9999 54.9056 67.9999H18.0003C16.9 67.9999 15.8998 67.5501 15.1748 66.8251C14.4498 66.1 14.0001 65.0998 14.0001 63.9997V15.7152C14.0001 14.6149 14.4498 13.6147 15.1748 12.8897C15.8999 12.1647 16.9001 11.715 18.0003 11.715L26.0041 11.7157C26.2416 11.7157 26.1871 11.761 26.0041 11.8472C26.0041 11.8472 26.0041 11.8472 26.0041 11.8472C25.985 11.8561 25.9645 11.8656 25.9429 11.8754C25.9138 11.8886 25.8826 11.9026 25.8496 11.9174C25.8108 11.9348 25.7697 11.9533 25.7268 11.9728ZM26.0041 11.4585L18.0003 11.4578C16.8286 11.4578 15.764 11.9371 14.993 12.7079C14.2222 13.4788 13.7429 14.5435 13.7429 15.7152V63.9997C13.7429 65.1713 14.2222 66.236 14.993 67.0069C15.7638 67.7778 16.8286 68.257 18.0003 68.257H54.9056C56.0772 68.257 57.1419 67.7778 57.9128 67.0069C58.6837 66.2361 59.1629 65.1714 59.1629 63.9997V15.7152C59.1629 14.5435 58.6837 13.4789 57.9129 12.7079C57.142 11.9371 56.0773 11.4578 54.9056 11.4578L46.8962 11.4585C46.7946 11.4585 46.6698 11.4696 46.5683 11.5346C46.5101 11.5719 46.459 11.6274 46.4305 11.7019C46.4033 11.7733 46.4047 11.8416 46.4137 11.8945C46.4304 11.9913 46.481 12.0799 46.522 12.1438C46.5667 12.2136 46.6232 12.2884 46.679 12.3607C46.6939 12.38 46.7088 12.3993 46.7238 12.4186C46.8266 12.5512 46.9311 12.6859 47.016 12.8271C47.1143 12.9906 47.1651 13.1296 47.1651 13.2443C47.1651 13.4122 47.1483 13.5622 47.1318 13.7036C47.131 13.7107 47.1302 13.7179 47.1293 13.7251C47.1147 13.8504 47.0982 13.9914 47.1094 14.1133C47.1227 14.2582 47.1786 14.4179 47.3421 14.5238C47.4826 14.6148 47.6653 14.6391 47.8614 14.6391H54.9092C55.2045 14.6391 55.4736 14.7596 55.6691 14.9551C55.8646 15.1506 55.9852 15.4198 55.9852 15.7151V63.9996C55.9852 64.295 55.8647 64.5641 55.6691 64.7596C55.4736 64.9551 55.2045 65.0756 54.9092 65.0756H18.0002C17.7049 65.0756 17.4358 64.9551 17.2403 64.7596C17.0448 64.5641 16.9242 64.295 16.9242 63.9996L16.9235 15.7151C16.9235 15.4198 17.0441 15.1507 17.2396 14.9551C17.4351 14.7596 17.7042 14.6391 17.9995 14.6391H23.9556C24.1857 14.6391 24.3836 14.5792 24.5402 14.4519C24.6938 14.327 24.7817 14.1581 24.8338 13.9871C24.9255 13.6861 24.9247 13.3053 24.924 12.9736C24.9239 12.9453 24.9239 12.9173 24.9239 12.8897C24.9239 12.8292 24.9701 12.7302 25.1388 12.5968C25.2976 12.4712 25.5117 12.3577 25.7215 12.2586C25.8035 12.2199 25.8814 12.185 25.9537 12.1526C25.973 12.1439 25.9919 12.1354 26.0104 12.1271C26.0928 12.09 26.1758 12.052 26.2346 12.0181C26.2594 12.0038 26.3061 11.9758 26.344 11.9345C26.362 11.9148 26.4031 11.8655 26.4159 11.7896C26.4321 11.6925 26.394 11.6063 26.3371 11.5511C26.292 11.5075 26.2426 11.4895 26.2194 11.4821C26.1918 11.4733 26.1654 11.4687 26.1445 11.4659C26.1026 11.4603 26.0543 11.4585 26.0041 11.4585C26.0041 11.4585 26.0041 11.4585 26.0041 11.4585Z" fill="#0B2D1F"/>
<path d="M21.6673 22H29.0883C29.4551 22 29.7549 22.2999 29.7549 22.6666V30.0877C29.7549 30.4544 29.4551 30.7542 29.0883 30.7542L21.6673 30.7549C21.3005 30.7549 21.0007 30.4551 21.0007 30.0884L21 22.6666C21 22.2956 21.3006 22 21.6673 22V22ZM28.4216 23.3332H22.3338V29.421H28.4216V23.3332Z" fill="#0B2D1F"/>
<path fill-rule="evenodd" clip-rule="evenodd" d="M21.6673 22C21.6657 22 21.6641 22 21.6625 22C21.298 22.0026 21 22.2972 21 22.6666L21.0007 30.0884C21.0007 30.4551 21.3005 30.7549 21.6673 30.7549L29.0883 30.7542C29.4551 30.7542 29.7549 30.4544 29.7549 30.0877V22.6666C29.7549 22.2999 29.4551 22 29.0883 22L21.6673 22ZM22.3338 23.3332H28.4216V29.421H22.3338V23.3332Z" fill="#0B2D1F"/>
<path d="M23.6829 25.905C23.4246 25.6467 22.9994 25.6467 22.7411 25.905C22.4828 26.1634 22.4828 26.5885 22.7411 26.8468L24.1869 28.2926C24.4452 28.5509 24.8703 28.5509 25.1287 28.2926C25.387 28.0343 25.387 27.6091 25.1287 27.3508L23.6829 25.905Z" fill="#0B2D1F"/>
<path d="M24.1832 27.3515C23.9249 27.6098 23.9249 28.035 24.1832 28.2933C24.4416 28.5516 24.8667 28.5516 25.125 28.2933L28.0123 25.406C28.2706 25.1477 28.2706 24.7226 28.0123 24.4643C27.754 24.2059 27.3288 24.2059 27.0705 24.4643L24.1832 27.3515Z" fill="#0B2D1F"/>
<path fill-rule="evenodd" clip-rule="evenodd" d="M24.1832 28.2933C23.9249 28.035 23.9249 27.6098 24.1832 27.3515L27.0705 24.4643C27.3288 24.2059 27.754 24.2059 28.0123 24.4643C28.2706 24.7226 28.2706 25.1477 28.0123 25.406L25.125 28.2933C24.8667 28.5516 24.4416 28.5516 24.1832 28.2933Z" fill="#0B2D1F"/>
<path d="M21.6693 35.2803H29.0903C29.4571 35.2803 29.7569 35.5801 29.7569 35.9468V43.3679C29.7569 43.7346 29.457 44.0345 29.0903 44.0345L21.6693 44.0352C21.3025 44.0352 21.0027 43.7353 21.0027 43.3686V35.9476C21.002 35.5808 21.3025 35.2803 21.6693 35.2803V35.2803ZM28.4236 36.6141H22.3358V42.7019H28.4236V36.6141Z" fill="#0B2D1F"/>
<path d="M23.6829 39.1887C23.4246 38.9304 22.9994 38.9304 22.7411 39.1887C22.4828 39.4471 22.4828 39.8722 22.7411 40.1305L24.1869 41.5763C24.4452 41.8346 24.8703 41.8346 25.1287 41.5763C25.387 41.318 25.387 40.8928 25.1287 40.6345L23.6829 39.1887Z" fill="#0B2D1F"/>
<path d="M24.1832 40.6304C23.9249 40.8887 23.9249 41.3139 24.1832 41.5722C24.4416 41.8305 24.8667 41.8305 25.125 41.5722L28.0123 38.685C28.2706 38.4267 28.2706 38.0015 28.0123 37.7432C27.754 37.4849 27.3288 37.4849 27.0705 37.7432L24.1832 40.6304Z" fill="#0B2D1F"/>
<path fill-rule="evenodd" clip-rule="evenodd" d="M24.1832 41.5722C23.9249 41.3139 23.9249 40.8887 24.1832 40.6304L27.0705 37.7432C27.3288 37.4849 27.754 37.4849 28.0123 37.7432C28.2706 38.0015 28.2706 38.4267 28.0123 38.685L25.125 41.5722C24.8667 41.8305 24.4416 41.8305 24.1832 41.5722Z" fill="#0B2D1F"/>
<path d="M21.6693 48.564H29.0903C29.4571 48.564 29.7569 48.8638 29.7569 49.2305V56.6516C29.7569 57.0183 29.457 57.3182 29.0903 57.3182H21.6693C21.3025 57.3182 21.0027 57.0183 21.0027 56.6516V49.2305C21.002 48.8596 21.3025 48.564 21.6693 48.564V48.564ZM28.4236 49.8971H22.3358V55.9849H28.4236V49.8971Z" fill="#0B2D1F"/>
<path fill-rule="evenodd" clip-rule="evenodd" d="M21.0027 49.2305V56.6516C21.0027 57.0183 21.3025 57.3182 21.6693 57.3182H29.0903C29.457 57.3182 29.7569 57.0183 29.7569 56.6516V49.2305C29.7569 48.8638 29.4571 48.564 29.0903 48.564H21.6693C21.3025 48.564 21.002 48.8596 21.0027 49.2305ZM22.3358 49.8971H28.4236V55.9849H22.3358V49.8971Z" fill="#0B2D1F"/>
<path d="M23.6829 52.469C23.4246 52.2107 22.9994 52.2107 22.7411 52.469C22.4828 52.7273 22.4828 53.1525 22.7411 53.4108L24.1869 54.8566C24.4452 55.1149 24.8703 55.1149 25.1287 54.8566C25.387 54.5982 25.387 54.1731 25.1287 53.9148L23.6829 52.469Z" fill="#0B2D1F"/>
<path fill-rule="evenodd" clip-rule="evenodd" d="M22.7411 52.469C22.9994 52.2107 23.4246 52.2107 23.6829 52.469L25.1287 53.9148C25.387 54.1731 25.387 54.5982 25.1287 54.8566C24.8703 55.1149 24.4452 55.1149 24.1869 54.8566L22.7411 53.4108C22.4828 53.1525 22.4828 52.7273 22.7411 52.469Z" fill="#0B2D1F"/>
<path d="M24.1832 53.9141C23.9249 54.1724 23.9249 54.5976 24.1832 54.8559C24.4416 55.1142 24.8667 55.1142 25.125 54.8559L28.0123 51.9687C28.2706 51.7103 28.2706 51.2852 28.0123 51.0269C27.754 50.7685 27.3288 50.7685 27.0705 51.0269L24.1832 53.9141Z" fill="#0B2D1F"/>
<path fill-rule="evenodd" clip-rule="evenodd" d="M24.1832 54.8559C23.9249 54.5976 23.9249 54.1724 24.1832 53.9141L27.0705 51.0269C27.3288 50.7685 27.754 50.7685 28.0123 51.0269C28.2706 51.2852 28.2706 51.7103 28.0123 51.9687L25.125 54.8559C24.8667 55.1142 24.4416 55.1142 24.1832 54.8559Z" fill="#0B2D1F"/>
<path d="M33.0723 25.8005C32.7056 25.8005 32.4058 26.1004 32.4058 26.4671C32.4058 26.8338 32.7056 27.1337 33.0723 27.1337H51.3025C51.6692 27.1337 51.969 26.8338 51.969 26.4671C51.969 26.1004 51.6692 25.8005 51.3025 25.8005H33.0723Z" fill="#0B2D1F"/>
<path fill-rule="evenodd" clip-rule="evenodd" d="M31.8059 26.4671C31.8059 25.769 32.3744 25.2005 33.0725 25.2005H51.3026C52.0007 25.2005 52.5692 25.769 52.5692 26.4671C52.5692 27.1651 52.0007 27.7336 51.3026 27.7336H33.0725C32.3744 27.7336 31.8059 27.1652 31.8059 26.4671ZM32.4059 26.4671C32.4059 26.1004 32.7057 25.8005 33.0725 25.8005H51.3026C51.6693 25.8005 51.9692 26.1003 51.9692 26.4671C51.9692 26.8338 51.6693 27.1336 51.3026 27.1336H33.0725C32.7058 27.1336 32.4059 26.8338 32.4059 26.4671Z" fill="#0B2D1F"/>
<path d="M33.0723 39.0828C32.7056 39.0828 32.4058 39.3826 32.4058 39.7493C32.4058 40.1161 32.7056 40.4159 33.0723 40.4159H51.3025C51.6692 40.4159 51.969 40.116 51.969 39.7493C51.969 39.3826 51.6692 39.0828 51.3025 39.0828H33.0723Z" fill="#0B2D1F"/>
<path fill-rule="evenodd" clip-rule="evenodd" d="M31.8059 39.7494C31.8059 39.0513 32.3744 38.4828 33.0725 38.4828H51.3026C52.0007 38.4828 52.5692 39.0513 52.5692 39.7494C52.5692 40.4474 52.0007 41.0159 51.3026 41.0159H33.0725C32.3744 41.0159 31.8059 40.4475 31.8059 39.7494ZM32.4059 39.7494C32.4059 39.3827 32.7057 39.0828 33.0725 39.0828H51.3026C51.6693 39.0828 51.9692 39.3826 51.9692 39.7494C51.9692 40.1161 51.6693 40.4159 51.3026 40.4159H33.0725C32.7058 40.4159 32.4059 40.1161 32.4059 39.7494Z" fill="#0B2D1F"/>
<path d="M33.0723 52.363C32.7056 52.363 32.4058 52.6629 32.4058 53.0296C32.4058 53.3963 32.7056 53.6962 33.0723 53.6962H51.3025C51.6692 53.6962 51.969 53.3963 51.969 53.0296C51.969 52.6629 51.6692 52.363 51.3025 52.363H33.0723Z" fill="#0B2D1F"/>
<path fill-rule="evenodd" clip-rule="evenodd" d="M31.8059 53.0296C31.8059 52.3316 32.3744 51.7631 33.0725 51.7631H51.3026C52.0007 51.7631 52.5692 52.3315 52.5692 53.0296C52.5692 53.7277 52.0007 54.2962 51.3026 54.2962H33.0725C32.3744 54.2962 31.8059 53.7277 31.8059 53.0296ZM32.4059 53.0296C32.4059 52.6629 32.7057 52.3631 33.0725 52.3631H51.3026C51.6693 52.3631 51.9692 52.6629 51.9692 53.0296C51.9692 53.3963 51.6693 53.6962 51.3026 53.6962H33.0725C32.7058 53.6962 32.4059 53.3963 32.4059 53.0296Z" fill="#0B2D1F"/>
</svg>
