<svg width="72" height="72" viewBox="0 0 72 72" fill="none" xmlns="http://www.w3.org/2000/svg">
<path d="M43.5 6.5H29L23.5 14H49.5L43.5 6.5Z" fill="#E60000"/>
<path d="M29.887 4.07675C27.9495 4.40174 25.9246 5.37672 24.5871 6.62668L23.6622 7.48916H19.9123C15.8249 7.48916 15.2624 7.55166 14.0874 8.13914C12.675 8.85162 11.4875 10.3891 11.15 11.964C10.95 12.9015 10.95 62.5751 11.15 63.5126C11.35 64.4376 11.925 65.5376 12.5875 66.2375C13.2374 66.925 14.5249 67.65 15.4874 67.85C16.4249 68.05 56.3488 68.05 57.2862 67.85C59.4112 67.4 61.1736 65.6251 61.6236 63.5126C61.8236 62.5626 61.8236 12.9015 61.6236 11.964C61.1736 9.85159 59.3862 8.06414 57.2862 7.62666C56.8862 7.53916 55.1363 7.48916 52.8614 7.48916H49.099L48.2615 6.68918C47.3115 5.8017 46.3615 5.18922 45.0866 4.68924C43.4491 4.02675 42.8991 3.98926 36.2868 4.00175C32.9369 4.01425 30.062 4.05175 29.887 4.07675ZM42.8741 7.92665C43.3116 8.03914 44.0241 8.30164 44.4366 8.51413C45.6865 9.17661 47.0865 10.7641 47.449 11.9515L47.524 12.239H36.3868H25.2496L25.3246 11.9515C25.5371 11.2891 26.1246 10.3766 26.8371 9.6516C27.662 8.81412 28.962 8.07664 30.0245 7.87665C30.3245 7.81415 33.1619 7.76415 36.3243 7.75165C41.0492 7.73915 42.2116 7.77665 42.8741 7.92665ZM21.4247 12.0765C21.3247 12.5515 21.2622 13.3765 21.2872 13.9515C21.3247 15.0515 21.5247 15.4139 22.2872 15.8139C22.7872 16.0764 49.9864 16.0764 50.4864 15.8139C51.2489 15.4139 51.4489 15.0515 51.4864 13.9515C51.5114 13.3765 51.4489 12.5515 51.3489 12.0765L51.1739 11.2391H53.8113C56.8362 11.2391 57.2362 11.3391 57.7362 12.2265L58.0112 12.714V37.7383V62.7626L57.7487 63.2376C57.5987 63.5001 57.2737 63.8251 57.0112 63.9751L56.5362 64.2376H36.3868H16.2374L15.7624 63.9751C15.4999 63.8251 15.1749 63.5001 15.0249 63.2376L14.7624 62.7626V37.7383V12.714L15.0374 12.2265C15.5374 11.3391 15.9249 11.2391 18.9623 11.2391H21.5997L21.4247 12.0765Z" fill="#4D0000"/>
<path d="M27.7625 41.9381C27.525 42.038 26.6625 42.7755 25.8626 43.5755L24.4001 45.0255L23.8876 44.563C23.6001 44.313 23.2376 44.0505 23.0626 43.988C21.5252 43.4005 19.9877 45.063 20.7127 46.5254C20.9877 47.0754 22.9752 49.0754 23.5376 49.3753C24.1251 49.6753 24.6501 49.6753 25.2376 49.3753C25.4876 49.2379 26.6875 48.1379 27.9 46.9004C29.6625 45.1255 30.1375 44.5755 30.25 44.1755C30.5124 43.2255 29.925 42.113 29.0375 41.8631C28.4375 41.7006 28.2875 41.7131 27.7625 41.9381Z" fill="#4D0000"/>
<path d="M34.1238 44.1506C32.9864 44.9131 33.0114 46.4131 34.1863 47.288C34.5238 47.5505 34.6488 47.5505 42.6986 47.5505C50.7484 47.5505 50.8734 47.5505 51.2109 47.288C52.3858 46.4131 52.4108 44.9131 51.2733 44.1506L50.8484 43.8631H42.6986H34.5488L34.1238 44.1506Z" fill="#4D0000"/>
<path d="M28.3247 52.5505C28.2622 52.5755 28.0372 52.6255 27.8372 52.6755C27.5997 52.7255 26.9248 53.288 25.9373 54.2629L24.3998 55.7754L23.9373 55.3629C23.4249 54.9129 22.7874 54.6129 22.3624 54.6129C21.8374 54.6129 21.0749 55.0879 20.7874 55.6004C20.1999 56.6504 20.4499 57.2629 22.1749 58.9628C23.5498 60.3128 23.8873 60.4878 24.8623 60.3003C25.2498 60.2253 25.6873 59.8503 27.6122 57.9503C28.8747 56.7004 29.9997 55.5004 30.0997 55.3004C30.5372 54.4754 30.2247 53.288 29.4497 52.8505C29.0497 52.6255 28.5247 52.488 28.3247 52.5505Z" fill="#4D0000"/>
<path d="M34.3124 54.7879C33.6999 55.0629 33.325 55.6879 33.325 56.4503C33.325 57.1503 33.5499 57.5753 34.1874 58.0378C34.5249 58.3003 34.6499 58.3003 42.6997 58.3003C50.7495 58.3003 50.8745 58.3003 51.212 58.0378C51.8494 57.5753 52.0744 57.1503 52.0744 56.4503C52.0744 55.6754 51.6994 55.0504 51.062 54.7879C50.462 54.5379 34.8874 54.5379 34.3124 54.7879Z" fill="#4D0000"/>
<path d="M45.8 18.5092H44.4458V17.8516C44.4458 17.7385 44.426 17.6298 44.3854 17.5256C44.3448 17.4214 44.2865 17.3293 44.2115 17.2495C44.1365 17.1697 44.05 17.1076 43.9521 17.0643C43.8542 17.0211 43.7521 17 43.6458 17C43.5396 17 43.4375 17.0211 43.3396 17.0643C43.2417 17.1076 43.1552 17.1697 43.0802 17.2495C43.0052 17.3293 42.9479 17.4214 42.9073 17.5256C42.8667 17.6298 42.8458 17.7385 42.8458 17.8516V18.5092H40.0156V17.8516C40.0156 17.7385 39.9958 17.6298 39.9552 17.5256C39.9146 17.4214 39.8563 17.3293 39.7813 17.2495C39.7063 17.1697 39.6198 17.1076 39.5219 17.0643C39.424 17.0211 39.3219 17 39.2156 17C39.1094 17 39.0073 17.0211 38.9094 17.0643C38.8115 17.1076 38.725 17.1697 38.65 17.2495C38.575 17.3293 38.5167 17.4214 38.476 17.5256C38.4354 17.6298 38.4156 17.7385 38.4156 17.8516V18.5092H35.5844V17.8516C35.5844 17.7385 35.5646 17.6298 35.524 17.5256C35.4833 17.4214 35.425 17.3293 35.35 17.2495C35.275 17.1697 35.1885 17.1076 35.0906 17.0643C34.9927 17.0211 34.8906 17 34.7844 17C34.6781 17 34.576 17.0211 34.4781 17.0643C34.3802 17.1076 34.2938 17.1697 34.2188 17.2495C34.1438 17.3293 34.0854 17.4214 34.0448 17.5256C34.0042 17.6298 33.9844 17.7385 33.9844 17.8516V18.5092H31.1542V17.8516C31.1542 17.7385 31.1333 17.6298 31.0927 17.5256C31.0521 17.4214 30.9948 17.3293 30.9198 17.2495C30.8448 17.1697 30.7583 17.1076 30.6604 17.0643C30.5625 17.0211 30.4604 17 30.3542 17C30.2479 17 30.1458 17.0211 30.0479 17.0643C29.95 17.1076 29.8635 17.1697 29.7885 17.2495C29.7135 17.3293 29.6552 17.4214 29.6146 17.5256C29.574 17.6298 29.5542 17.7385 29.5542 17.8516V18.5092H28.2C27.9896 18.5103 27.7823 18.5314 27.576 18.5757C27.3698 18.619 27.1698 18.6844 26.976 18.7698C26.7823 18.8551 26.5979 18.9605 26.4229 19.0847C26.2479 19.2089 26.0865 19.3508 25.9385 19.5083C25.7896 19.6668 25.6573 19.8387 25.5406 20.025C25.424 20.2113 25.325 20.4076 25.2448 20.6138C25.1635 20.8201 25.1031 21.033 25.0625 21.2525C25.0208 21.4721 25 21.6939 25 21.9167V35.5481C25 35.7721 25.0208 35.9927 25.0625 36.2123C25.1031 36.4319 25.1635 36.6448 25.2448 36.851C25.325 37.0584 25.424 37.2546 25.5406 37.4398C25.6573 37.6261 25.7896 37.798 25.9385 37.9566C26.0865 38.1151 26.2479 38.2559 26.4229 38.3801C26.5979 38.5043 26.7823 38.6097 26.976 38.6951C27.1698 38.7816 27.3698 38.8459 27.576 38.8891C27.7823 38.9335 27.9896 38.9556 28.2 38.9556H45.8C46.0104 38.9556 46.2177 38.9335 46.424 38.8891C46.6302 38.8459 46.8302 38.7816 47.024 38.6951C47.2177 38.6097 47.4021 38.5043 47.5771 38.3801C47.7521 38.2559 47.9135 38.1151 48.0615 37.9566C48.2104 37.798 48.3427 37.6261 48.4594 37.4398C48.576 37.2546 48.675 37.0584 48.7552 36.851C48.8365 36.6448 48.8969 36.4319 48.9375 36.2123C48.9792 35.9927 49 35.7721 49 35.5481V21.9167C49 21.6939 48.9792 21.4721 48.9375 21.2525C48.8969 21.033 48.8365 20.8201 48.7552 20.6138C48.675 20.4076 48.576 20.2113 48.4594 20.025C48.3427 19.8387 48.2104 19.6668 48.0615 19.5083C47.9135 19.3508 47.7521 19.2089 47.5771 19.0847C47.4021 18.9605 47.2177 18.8551 47.024 18.7698C46.8302 18.6844 46.6302 18.619 46.424 18.5757C46.2177 18.5314 46.0104 18.5103 45.8 18.5092ZM47.4 35.5481C47.4 35.6601 47.3896 35.771 47.3688 35.8807C47.3479 35.9894 47.3177 36.0959 47.2781 36.2001C47.2375 36.3032 47.1885 36.4008 47.1302 36.494C47.0719 36.5871 47.0052 36.6736 46.9313 36.7523C46.8563 36.831 46.776 36.902 46.6885 36.9641C46.601 37.0262 46.5094 37.0783 46.4125 37.1216C46.3146 37.1648 46.2146 37.197 46.1125 37.2192C46.0094 37.2402 45.9052 37.2513 45.8 37.2513H28.2C28.0948 37.2513 27.9906 37.2402 27.8875 37.2192C27.7854 37.197 27.6854 37.1648 27.5875 37.1216C27.4906 37.0783 27.399 37.0262 27.3115 36.9641C27.224 36.902 27.1438 36.831 27.0688 36.7523C26.9948 36.6736 26.9281 36.5871 26.8698 36.494C26.8115 36.4008 26.7625 36.3032 26.7219 36.2001C26.6823 36.0959 26.6521 35.9894 26.6312 35.8807C26.6104 35.771 26.6 35.6601 26.6 35.5481V24.9074H47.4V35.5481ZM47.4 23.203H26.6V21.9167C26.6 21.8058 26.6104 21.695 26.6312 21.5852C26.6521 21.4754 26.6823 21.369 26.7219 21.2658C26.7625 21.1627 26.8115 21.064 26.8698 20.9709C26.9281 20.8777 26.9948 20.7923 27.0688 20.7125C27.1438 20.6338 27.224 20.5628 27.3115 20.5007C27.399 20.4386 27.4906 20.3865 27.5875 20.3432C27.6854 20.3011 27.7854 20.2678 27.8875 20.2468C27.9906 20.2246 28.0948 20.2135 28.2 20.2135H29.5542V20.8711C29.5542 20.9842 29.574 21.0928 29.6146 21.1971C29.6552 21.3024 29.7135 21.3945 29.7885 21.4743C29.8635 21.5541 29.95 21.6151 30.0479 21.6584C30.1458 21.7016 30.2479 21.7238 30.3542 21.7238C30.4604 21.7238 30.5625 21.7016 30.6604 21.6584C30.7583 21.6151 30.8448 21.5541 30.9198 21.4743C30.9948 21.3945 31.0521 21.3024 31.0927 21.1971C31.1333 21.0928 31.1542 20.9842 31.1542 20.8711V20.2135H33.9844V20.8711C33.9844 20.9842 34.0042 21.0928 34.0448 21.1971C34.0854 21.3024 34.1438 21.3945 34.2188 21.4743C34.2938 21.5541 34.3802 21.6151 34.4781 21.6584C34.576 21.7016 34.6781 21.7238 34.7844 21.7238C34.8906 21.7238 34.9927 21.7016 35.0906 21.6584C35.1885 21.6151 35.275 21.5541 35.35 21.4743C35.425 21.3945 35.4833 21.3024 35.524 21.1971C35.5646 21.0928 35.5844 20.9842 35.5844 20.8711V20.2135H38.4156V20.8711C38.4156 20.9842 38.4354 21.0928 38.476 21.1971C38.5167 21.3024 38.575 21.3945 38.65 21.4743C38.725 21.5541 38.8115 21.6151 38.9094 21.6584C39.0073 21.7016 39.1094 21.7238 39.2156 21.7238C39.3219 21.7238 39.424 21.7016 39.5219 21.6584C39.6198 21.6151 39.7063 21.5541 39.7813 21.4743C39.8563 21.3945 39.9146 21.3024 39.9552 21.1971C39.9958 21.0928 40.0156 20.9842 40.0156 20.8711V20.2135H42.8458V20.8711C42.8458 20.9842 42.8667 21.0928 42.9073 21.1971C42.9479 21.3024 43.0052 21.3945 43.0802 21.4743C43.1552 21.5541 43.2417 21.6151 43.3396 21.6584C43.4375 21.7016 43.5396 21.7238 43.6458 21.7238C43.7521 21.7238 43.8542 21.7016 43.9521 21.6584C44.05 21.6151 44.1365 21.5541 44.2115 21.4743C44.2865 21.3945 44.3448 21.3024 44.3854 21.1971C44.426 21.0928 44.4458 20.9842 44.4458 20.8711V20.2135H45.8C45.9052 20.2135 46.0094 20.2246 46.1125 20.2468C46.2146 20.2678 46.3146 20.3011 46.4125 20.3432C46.5094 20.3865 46.601 20.4386 46.6885 20.5007C46.776 20.5628 46.8563 20.6338 46.9313 20.7125C47.0052 20.7923 47.0719 20.8777 47.1302 20.9709C47.1885 21.064 47.2375 21.1627 47.2781 21.2658C47.3177 21.369 47.3479 21.4754 47.3688 21.5852C47.3896 21.695 47.4 21.8058 47.4 21.9167V23.203Z" fill="#4D0000"/>
<path d="M35.2726 35.8871C34.9169 35.8871 34.6001 35.826 34.3222 35.7037C34.0459 35.5798 33.8276 35.4099 33.6672 35.194C33.5084 34.9764 33.4266 34.7256 33.4219 34.4413H34.4604C34.4667 34.5604 34.5056 34.6652 34.5771 34.7557C34.6501 34.8446 34.747 34.9137 34.8677 34.9629C34.9883 35.0122 35.1241 35.0368 35.275 35.0368C35.4322 35.0368 35.5711 35.009 35.6918 34.9534C35.8125 34.8978 35.907 34.8208 35.9752 34.7224C36.0435 34.6239 36.0777 34.5104 36.0777 34.3818C36.0777 34.2516 36.0411 34.1364 35.9681 34.0364C35.8966 33.9348 35.7934 33.8554 35.6584 33.7982C35.5251 33.7411 35.3663 33.7125 35.1821 33.7125H34.7271V32.955H35.1821C35.3377 32.955 35.475 32.928 35.5941 32.8741C35.7148 32.8201 35.8085 32.7454 35.8752 32.6502C35.9419 32.5533 35.9752 32.4406 35.9752 32.3119C35.9752 32.1897 35.9459 32.0825 35.8871 31.9904C35.8299 31.8967 35.749 31.8237 35.6442 31.7713C35.5409 31.7189 35.4203 31.6927 35.2821 31.6927C35.1424 31.6927 35.0145 31.7181 34.8986 31.7689C34.7827 31.8181 34.6898 31.8888 34.62 31.9809C34.5501 32.073 34.5128 32.1809 34.508 32.3048H33.5195C33.5243 32.0237 33.6045 31.776 33.7601 31.5616C33.9157 31.3473 34.1253 31.1798 34.3889 31.0591C34.6541 30.9368 34.9534 30.8757 35.2869 30.8757C35.6235 30.8757 35.9181 30.9368 36.1705 31.0591C36.423 31.1813 36.6191 31.3465 36.7589 31.5545C36.9002 31.7609 36.9701 31.9928 36.9685 32.25C36.9701 32.5231 36.8851 32.751 36.7136 32.9336C36.5437 33.1162 36.3222 33.2321 36.0491 33.2814V33.3195C36.4079 33.3655 36.6811 33.4902 36.8684 33.6934C37.0574 33.8951 37.1511 34.1476 37.1495 34.4508C37.1511 34.7287 37.0709 34.9757 36.9089 35.1916C36.7485 35.4076 36.527 35.5775 36.2444 35.7013C35.9617 35.8252 35.6378 35.8871 35.2726 35.8871Z" fill="#4D0000"/>
<path d="M39.8035 35.9276C39.3938 35.926 39.0413 35.8252 38.7459 35.6251C38.4522 35.425 38.2259 35.1352 38.0671 34.7557C37.9099 34.3762 37.8321 33.9197 37.8337 33.3862C37.8337 32.8542 37.9123 32.4009 38.0695 32.0261C38.2283 31.6514 38.4546 31.3663 38.7483 31.171C39.0437 30.9741 39.3954 30.8757 39.8035 30.8757C40.2116 30.8757 40.5625 30.9741 40.8563 31.171C41.1516 31.3679 41.3787 31.6537 41.5375 32.0285C41.6963 32.4017 41.7749 32.8542 41.7733 33.3862C41.7733 33.9213 41.6939 34.3786 41.5351 34.7581C41.3779 35.1376 41.1524 35.4274 40.8586 35.6275C40.5649 35.8276 40.2132 35.9276 39.8035 35.9276ZM39.8035 35.0725C40.083 35.0725 40.3061 34.932 40.4728 34.6509C40.6395 34.3699 40.7221 33.9483 40.7205 33.3862C40.7205 33.0162 40.6824 32.7081 40.6062 32.462C40.5315 32.2159 40.4251 32.0309 40.287 31.907C40.1504 31.7832 39.9893 31.7212 39.8035 31.7212C39.5256 31.7212 39.3033 31.8602 39.1366 32.1381C38.9698 32.4159 38.8857 32.832 38.8841 33.3862C38.8841 33.7609 38.9214 34.0737 38.996 34.3246C39.0722 34.5739 39.1794 34.7613 39.3176 34.8867C39.4557 35.0106 39.6177 35.0725 39.8035 35.0725Z" fill="#4D0000"/>
<path d="M33.5229 26.5513H34.1924L34.8995 28.2764H34.9296L35.6367 26.5513H36.3061V29.1189H35.7796V27.4477H35.7583L35.0938 29.1063H34.7353L34.0708 27.4415H34.0495V29.1189H33.5229V26.5513Z" fill="#4D0000"/>
<path d="M39.1128 27.8351C39.1128 28.1151 39.0597 28.3533 38.9536 28.5497C38.8483 28.7461 38.7045 28.8961 38.5223 28.9998C38.341 29.1026 38.137 29.154 37.9105 29.154C37.6824 29.154 37.4776 29.1022 37.2962 28.9985C37.1149 28.8949 36.9715 28.7449 36.8662 28.5485C36.7609 28.352 36.7082 28.1143 36.7082 27.8351C36.7082 27.5551 36.7609 27.3169 36.8662 27.1205C36.9715 26.9241 37.1149 26.7745 37.2962 26.6717C37.4776 26.5681 37.6824 26.5162 37.9105 26.5162C38.137 26.5162 38.341 26.5681 38.5223 26.6717C38.7045 26.7745 38.8483 26.9241 38.9536 27.1205C39.0597 27.3169 39.1128 27.5551 39.1128 27.8351ZM38.5624 27.8351C38.5624 27.6537 38.5353 27.5008 38.481 27.3763C38.4275 27.2517 38.3518 27.1573 38.254 27.0929C38.1563 27.0286 38.0417 26.9964 37.9105 26.9964C37.7793 26.9964 37.6648 27.0286 37.567 27.0929C37.4692 27.1573 37.3932 27.2517 37.3389 27.3763C37.2854 27.5008 37.2586 27.6537 37.2586 27.8351C37.2586 28.0165 37.2854 28.1694 37.3389 28.294C37.3932 28.4185 37.4692 28.5129 37.567 28.5773C37.6648 28.6416 37.7793 28.6738 37.9105 28.6738C38.0417 28.6738 38.1563 28.6416 38.254 28.5773C38.3518 28.5129 38.4275 28.4185 38.481 28.294C38.5353 28.1694 38.5624 28.0165 38.5624 27.8351Z" fill="#4D0000"/>
<path d="M41.6625 26.5513V29.1189H41.1936L40.0766 27.5029H40.0578V29.1189H39.5149V26.5513H39.9913L41.0996 28.1661H41.1222V26.5513H41.6625Z" fill="#4D0000"/>
</svg>
