<svg width="72" height="72" viewBox="0 0 72 72" fill="none" xmlns="http://www.w3.org/2000/svg">
<path d="M4 34.65C4.25 33.22 4.51 31.8 4.74 30.36C5.51 25.51 6.27 20.66 7.04 15.81C7.21 14.72 7.64 14.44 8.73 14.64C10.93 15.04 12.61 16.96 12.61 19.2C12.61 21.72 12.52 24.24 12.48 26.76C12.48 26.99 12.48 27.21 12.48 27.46C13.01 27.61 13.54 27.71 14.04 27.9C15.59 28.5 16.69 29.58 17.4 31.08C18.3 32.98 19.22 34.87 20.11 36.77C20.63 37.88 21.36 38.83 22.33 39.59C25.58 42.13 27.3 45.44 27.34 49.59C27.34 49.69 27.36 49.79 27.37 50C27.75 49.83 28.07 49.67 28.4 49.53C29.11 49.23 29.64 49.39 29.97 50.06C31.02 52.21 32.05 54.37 33.06 56.54C33.39 57.25 33.19 57.79 32.47 58.14C27.69 60.43 22.9 62.71 18.11 64.98C17.39 65.32 16.85 65.12 16.51 64.4C15.48 62.27 14.46 60.13 13.46 57.98C13.13 57.27 13.32 56.74 14.04 56.39C14.41 56.21 14.57 55.98 14.57 55.58C14.58 55.04 14.64 54.5 14.66 53.96C14.7 53.04 14.35 52.27 13.76 51.57C11.45 48.78 9.15 45.98 6.84 43.19C5.31 41.35 4.42 39.23 4.11 36.86C4.09 36.72 4.04 36.56 4 36.4C4 35.82 4 35.24 4 34.65ZM9.04 17.02C8.27 21.89 7.51 26.68 6.75 31.46C6.54 32.82 6.19 34.17 6.18 35.53C6.16 37.89 6.98 40.01 8.5 41.84C10.81 44.63 13.11 47.43 15.43 50.22C16.36 51.34 16.86 52.6 16.82 54.06C16.81 54.37 16.79 54.68 16.77 55C16.87 54.99 16.93 55 16.99 54.97C19.58 53.74 22.18 52.51 24.76 51.26C24.93 51.18 25.09 50.89 25.11 50.69C25.47 46.94 24.18 43.86 21.25 41.51C19.83 40.36 18.74 38.99 17.98 37.33C17.1 35.4 16.19 33.48 15.21 31.6C14.45 30.14 12.6 29.35 11.25 29.8C11.35 30.03 11.46 30.25 11.56 30.47C12.78 33.02 13.99 35.57 15.21 38.13C15.3 38.32 15.4 38.51 15.45 38.7C15.61 39.25 15.43 39.69 14.94 39.98C14.47 40.25 13.9 40.09 13.57 39.62C13.45 39.45 13.36 39.26 13.27 39.07C11.83 36.05 10.39 33.02 8.96 30C8.38 28.78 8.54 28.36 9.82 27.89C10.16 27.76 10.31 27.6 10.31 27.22C10.31 26.22 10.35 25.22 10.38 24.22C10.42 22.68 10.47 21.14 10.49 19.6C10.51 18.51 10.11 17.63 9.04 17.02ZM18.04 62.64C22.28 60.62 26.44 58.64 30.64 56.64C30.67 56.63 30.69 56.61 30.72 56.6C29.95 54.98 29.22 53.45 28.47 51.88C24.23 53.9 20.04 55.9 15.8 57.92C16.56 59.52 17.28 61.06 18.04 62.64Z" fill="#0D313B" stroke="#0D313B" stroke-miterlimit="10"/>
<path d="M18.04 62.64C22.28 60.62 26.44 58.64 30.64 56.64L30.72 56.6C29.95 54.98 29.22 53.45 28.47 51.88C24.23 53.9 20.04 55.9 15.8 57.92C16.56 59.52 17.28 61.06 18.04 62.64Z" fill="#68D4F4" stroke="#0D313B" stroke-miterlimit="10"/>
<path d="M59.43 27.54C59.43 25.98 59.44 24.51 59.43 23.03C59.42 21.72 59.35 20.41 59.38 19.1C59.43 16.81 61.41 14.75 63.68 14.57C64.31 14.52 64.77 14.89 64.9 15.64C65.23 17.63 65.55 19.62 65.86 21.62C66.55 25.96 67.25 30.29 67.9 34.63C68.19 36.58 67.78 38.47 66.94 40.21C66.33 41.47 65.53 42.66 64.66 43.76C62.57 46.4 60.42 49.01 58.22 51.57C57.04 52.95 57.33 54.48 57.49 56.02C57.5 56.16 57.77 56.29 57.94 56.39C58.67 56.8 58.87 57.29 58.52 58.04C57.52 60.17 56.51 62.29 55.49 64.41C55.13 65.16 54.6 65.34 53.84 64.99C49.07 62.73 44.3 60.46 39.53 58.17C38.78 57.81 38.59 57.27 38.94 56.52C39.94 54.39 40.95 52.27 41.97 50.16C42.33 49.41 42.86 49.24 43.62 49.57C43.92 49.7 44.22 49.85 44.59 50.02C44.65 49.23 44.67 48.5 44.78 47.77C45.26 44.48 46.86 41.83 49.45 39.79C50.55 38.92 51.39 37.87 51.98 36.59C52.7 35.02 53.51 33.49 54.19 31.91C55.22 29.53 56.81 27.91 59.43 27.54ZM55.18 55.05C55.21 54.93 55.22 54.89 55.22 54.85C55.22 54.75 55.21 54.64 55.2 54.54C55.04 52.92 55.49 51.5 56.53 50.25C57.66 48.89 58.79 47.53 59.91 46.16C61.35 44.4 62.86 42.71 64.17 40.86C65.42 39.09 66.07 37.03 65.75 34.84C65.04 29.96 64.23 25.1 63.47 20.23C63.3 19.18 63.12 18.13 62.94 17.03C61.87 17.64 61.47 18.53 61.5 19.62C61.55 22.14 61.63 24.66 61.68 27.18C61.69 27.57 61.81 27.77 62.19 27.9C63.46 28.35 63.61 28.78 63.03 30.01C61.6 33.01 60.17 36.02 58.74 39.02C58.74 39.03 58.73 39.04 58.73 39.05C58.64 39.25 58.54 39.45 58.42 39.63C58.09 40.11 57.62 40.2 57.1 40C56.63 39.82 56.39 39.26 56.54 38.75C56.6 38.53 56.71 38.32 56.8 38.12C58.03 35.53 59.27 32.94 60.5 30.35C60.59 30.15 60.67 29.95 60.76 29.73C58.88 29.49 57.37 30.33 56.53 32.05C55.67 33.83 54.81 35.61 53.99 37.4C53.25 39.02 52.19 40.37 50.79 41.48C48.19 43.55 46.86 46.26 46.81 49.59C46.79 50.6 46.93 51.44 48.1 51.69C48.32 51.74 48.51 51.88 48.72 51.98C50.85 53 52.99 54.01 55.18 55.05ZM56.2 57.92C51.93 55.89 47.74 53.89 43.53 51.88C42.77 53.49 42.04 55.02 41.28 56.6C45.52 58.62 49.72 60.62 53.95 62.63C54.7 61.07 55.44 59.53 56.2 57.92Z" fill="#0D313B" stroke="#0D313B" stroke-miterlimit="10"/>
<path d="M56.2 57.92C51.93 55.89 47.74 53.89 43.53 51.88C42.77 53.49 42.04 55.02 41.28 56.6C45.52 58.62 49.72 60.62 53.95 62.63C54.7 61.07 55.44 59.53 56.2 57.92Z" fill="#68D4F4" stroke="#0D313B" stroke-miterlimit="10"/>
<path d="M49.5699 20.57C49.5699 23.23 49.5699 25.9 49.5699 28.56C49.5699 29.66 49.4099 29.88 48.3499 30.22C44.4699 31.47 40.5999 32.73 36.7099 33.95C36.2699 34.09 35.7099 34.08 35.2699 33.95C31.3599 32.73 27.4699 31.46 23.5799 30.2C22.6099 29.89 22.4299 29.65 22.4299 28.62C22.4299 23.23 22.4299 17.83 22.4299 12.44C22.4299 11.42 22.6099 11.18 23.5899 10.87C27.5099 9.59999 31.4199 8.32999 35.3399 7.08999C35.7399 6.95999 36.2599 6.95999 36.6599 7.08999C40.5999 8.32999 44.5399 9.61999 48.4699 10.89C49.3699 11.18 49.5599 11.43 49.5599 12.38C49.5699 15.12 49.5699 17.85 49.5699 20.57ZM34.8499 31.56C34.8799 31.41 34.9099 31.31 34.9099 31.21C34.9099 26.54 34.9099 21.88 34.9199 17.21C34.9199 16.81 34.6899 16.74 34.3999 16.65C32.3599 16 30.3199 15.34 28.2899 14.68C27.0899 14.29 25.8799 13.91 24.6399 13.52C24.6199 13.69 24.5899 13.81 24.5899 13.93C24.5899 18.55 24.5899 23.18 24.5799 27.8C24.5799 28.2 24.7399 28.33 25.0899 28.44C28.0399 29.38 30.9899 30.33 33.9399 31.28C34.2299 31.38 34.5199 31.46 34.8499 31.56ZM37.0799 31.57C37.3699 31.49 37.5499 31.45 37.7299 31.4C40.7599 30.43 43.7799 29.44 46.8199 28.49C47.2799 28.35 47.4199 28.15 47.4199 27.67C47.3999 23.17 47.4099 18.67 47.4099 14.17C47.4099 13.97 47.3899 13.78 47.3799 13.54C47.1399 13.61 46.9599 13.66 46.7799 13.71C43.7499 14.69 40.7299 15.68 37.6899 16.63C37.1899 16.79 37.0699 17.01 37.0699 17.5C37.0899 21.96 37.0799 26.41 37.0799 30.87C37.0799 31.07 37.0799 31.27 37.0799 31.57ZM44.7499 12.09C44.7499 12.04 44.7599 12 44.7599 11.95C41.9199 11.03 39.0799 10.11 36.2299 9.19999C36.0399 9.13999 35.7799 9.19999 35.5699 9.26999C34.2799 9.66999 32.9999 10.09 31.7099 10.51C30.2199 10.99 28.7299 11.47 27.0899 12C27.3899 12.12 27.5599 12.2 27.7299 12.26C29.5699 12.85 31.4599 13.33 33.2299 14.07C35.1299 14.86 36.8799 14.83 38.7799 14.06C40.7199 13.27 42.7599 12.73 44.7499 12.09Z" fill="#0D313B" stroke="#0D313B" stroke-miterlimit="10"/>
<path d="M44.7501 12.09L44.7601 11.95C41.9201 11.03 39.0801 10.11 36.2301 9.20002C36.0401 9.14002 35.7801 9.20002 35.5701 9.27002C34.2801 9.67002 33.0001 10.09 31.7101 10.51C30.2201 10.99 28.7301 11.47 27.0901 12C27.3901 12.12 27.5601 12.2 27.7301 12.26C29.5701 12.85 31.4601 13.33 33.2301 14.07C35.1301 14.86 36.8801 14.83 38.7801 14.06C40.7201 13.27 42.7601 12.73 44.7501 12.09Z" fill="#CDF1FB" stroke="#0D313B" stroke-miterlimit="10"/>
<path d="M37.0801 31.57C37.3701 31.49 37.5501 31.45 37.7301 31.4C40.7601 30.43 43.7801 29.44 46.8201 28.49C47.2801 28.35 47.4201 28.15 47.4201 27.67C47.4001 23.17 47.4101 18.67 47.4101 14.17C47.4101 13.97 47.3901 13.78 47.3801 13.54C47.1401 13.61 46.9601 13.66 46.7801 13.71C43.7501 14.69 40.7301 15.68 37.6901 16.63C37.1901 16.79 37.0701 17.01 37.0701 17.5C37.0901 21.96 37.0801 26.41 37.0801 30.87C37.0801 31.07 37.0801 31.27 37.0801 31.57Z" fill="#2894B4" stroke="#0D313B" stroke-miterlimit="10"/>
<path d="M34.8501 31.56C34.8801 31.41 34.9101 31.31 34.9101 31.21C34.9101 26.54 34.9101 21.88 34.9201 17.21C34.9201 16.81 34.6901 16.74 34.4001 16.65C32.3601 16 30.3201 15.34 28.2901 14.68C27.0901 14.29 25.8801 13.91 24.6401 13.52C24.6201 13.69 24.5901 13.81 24.5901 13.93C24.5901 18.55 24.5901 23.18 24.5801 27.8C24.5801 28.2 24.7401 28.33 25.0901 28.44C28.0401 29.38 30.9901 30.33 33.9401 31.28C34.2301 31.38 34.5201 31.46 34.8501 31.56Z" fill="#68D4F4" stroke="#0D313B" stroke-miterlimit="10"/>
</svg>