<svg width="72" height="72" viewBox="0 0 72 72" fill="none" xmlns="http://www.w3.org/2000/svg">
<path fill-rule="evenodd" clip-rule="evenodd" d="M22.7174 4.25333C22.4317 4.40421 22.1522 4.69173 21.9986 4.99288C21.7524 5.47529 21.7472 5.71268 21.7472 16.256V27.0263L21.4659 26.9448C20.7603 26.7404 18.912 26.727 17.9969 26.9199C14.896 27.5733 12.322 30.1474 11.6694 33.2476C11.344 34.7938 11.4884 36.2855 12.6096 42.9623C13.1662 46.2771 13.6216 49.0411 13.6216 49.1046C13.6216 49.1679 12.6801 49.2467 11.5277 49.2796C9.80412 49.3288 9.30296 49.3867 8.69379 49.6071C6.6369 50.3513 5.1638 51.8058 4.39462 53.8516C4.11635 54.5919 4.07447 54.9285 4.02472 56.8211C3.97234 58.8119 3.98647 58.9906 4.23398 59.4759C4.54938 60.0941 5.24531 60.4995 5.99111 60.4995H6.49614V63.5047C6.49614 66.2699 6.51627 66.5493 6.74778 67.0032C6.9098 67.3208 7.17531 67.5863 7.49296 67.7484C7.98324 67.9985 8.16776 68 37.2483 68C66.3288 68 66.5133 67.9985 67.0036 67.7484C67.3212 67.5863 67.5867 67.3208 67.7488 67.0032C67.9984 66.5138 68.0004 66.3173 68.0004 42.247C68.0004 20.2802 67.9815 17.9463 67.8009 17.584C67.5256 17.0323 55.0479 4.5366 54.4732 4.2372C54.0219 4.00206 53.5932 3.99568 38.5971 4.00106C23.4991 4.00643 23.1753 4.01168 22.7174 4.25333ZM51.7493 13.2512C51.7493 18.5221 51.76 18.7776 52.0009 19.2499C52.1629 19.5675 52.4284 19.833 52.7461 19.995C53.2184 20.2359 53.4739 20.2467 58.7448 20.2467H64.2501V42.2482V64.2497H48.4991H32.748V62.3746V60.4995H33.253C33.9988 60.4995 34.6947 60.0941 35.0101 59.4759C35.258 58.99 35.2716 58.8145 35.2169 56.8211C35.1683 55.0517 35.1124 54.5599 34.8901 53.9465C34.1443 51.8884 32.69 50.4155 30.6452 49.6477C29.9091 49.3715 29.5621 49.3276 27.7164 49.2771C26.5622 49.2456 25.6225 49.1681 25.6225 49.1046C25.6225 49.0411 26.0779 46.2771 26.6345 42.9623C27.7557 36.2855 27.9001 34.7938 27.5747 33.2476C27.3441 32.1521 26.5792 30.5307 25.9436 29.79L25.4975 29.2701V18.5079V7.74582H38.6234H51.7493V13.2512ZM58.5622 13.4962L61.5605 16.4964H58.53H55.4995V13.4962C55.4995 11.8461 55.514 10.496 55.5318 10.496C55.5495 10.496 56.9133 11.8461 58.5622 13.4962ZM47.7191 25.5048C47.1913 25.7834 46.7489 26.521 46.7489 27.1222C46.7489 27.7425 47.1911 28.4626 47.7457 28.7457C48.2175 28.9863 48.4738 28.9973 53.6244 28.9973C58.775 28.9973 59.0313 28.9863 59.5031 28.7457C60.0577 28.4626 60.4999 27.7425 60.4999 27.1222C60.4999 26.5019 60.0577 25.7817 59.5031 25.4987C59.0305 25.2577 58.781 25.2473 53.5982 25.2525C48.4573 25.2578 48.1632 25.2704 47.7191 25.5048ZM21.5424 30.9797C22.4815 31.4418 23.1457 32.127 23.6055 33.1076C23.909 33.755 23.9332 33.9279 23.9147 35.3102C23.898 36.5536 23.7152 37.8698 22.8471 42.9983L21.7998 49.1862H19.6221H17.4443L16.397 42.9983C15.5289 37.8698 15.3461 36.5536 15.3294 35.3102C15.3109 33.9325 15.3358 33.7535 15.6344 33.1168C16.7205 30.8014 19.2913 29.8714 21.5424 30.9797ZM32.7181 33.0053C32.1903 33.284 31.7479 34.0215 31.7479 34.6227C31.7479 35.243 32.19 35.9632 32.7447 36.2462C33.2297 36.4936 33.456 36.4978 46.1239 36.4978C58.7918 36.4978 59.018 36.4936 59.5031 36.2462C60.0577 35.9632 60.4999 35.243 60.4999 34.6227C60.4999 34.0024 60.0577 33.2822 59.5031 32.9992C59.0179 32.7517 58.7974 32.7477 46.0976 32.7531C33.4889 32.7584 33.1745 32.7644 32.7181 33.0053ZM32.7181 40.5058C32.1903 40.7845 31.7479 41.522 31.7479 42.1232C31.7479 42.7435 32.19 43.4637 32.7447 43.7467C33.2297 43.9941 33.456 43.9983 46.1239 43.9983C58.7918 43.9983 59.018 43.9941 59.5031 43.7467C60.0577 43.4637 60.4999 42.7435 60.4999 42.1232C60.4999 41.5029 60.0577 40.7827 59.5031 40.4997C59.0179 40.2522 58.7974 40.2482 46.0976 40.2536C33.4889 40.2589 33.1745 40.265 32.7181 40.5058ZM45.2189 48.0064C44.6912 48.285 44.2488 49.0226 44.2488 49.6237C44.2488 50.244 44.6909 50.9642 45.2456 51.2472C45.7216 51.4901 45.9709 51.4989 52.3743 51.4989C58.7778 51.4989 59.027 51.4901 59.5031 51.2472C60.0577 50.9642 60.4999 50.244 60.4999 49.6237C60.4999 49.0034 60.0577 48.2833 59.5031 48.0002C59.0265 47.7571 58.7836 47.7487 52.3481 47.7541C45.9625 47.7595 45.667 47.7698 45.2189 48.0064ZM29.4357 53.206C30.6223 53.6103 31.4979 54.8853 31.4979 56.2089V56.7492H19.6221H7.74623V56.2089C7.74623 55.372 8.09838 54.5153 8.68279 53.931C9.63186 52.9818 9.18308 53.0198 19.5685 53.0088C27.8761 53 28.8906 53.0202 29.4357 53.206ZM45.2189 55.5069C44.6912 55.7855 44.2488 56.5231 44.2488 57.1242C44.2488 57.7445 44.6909 58.4647 45.2456 58.7477C45.7216 58.9906 45.9709 58.9994 52.3743 58.9994C58.7778 58.9994 59.027 58.9906 59.5031 58.7477C60.0577 58.4647 60.4999 57.7445 60.4999 57.1242C60.4999 56.504 60.0577 55.7838 59.5031 55.5008C59.0265 55.2576 58.7836 55.2492 52.3481 55.2546C45.9625 55.26 45.667 55.2704 45.2189 55.5069ZM28.9977 62.3746V64.2497H19.6221H10.2464V62.3746V60.4995H19.6221H28.9977V62.3746Z" fill="#0B2D1F"/>
<path d="M28.9977 62.3746V64.2497H19.6221H10.2464V62.3746V60.4995H19.6221H28.9977V62.3746Z" fill="#62C89E"/>
<path d="M29.4357 53.206C30.6223 53.6103 31.4979 54.8853 31.4979 56.2089V56.7492H19.6221H7.74623V56.2089C7.74623 55.372 8.09838 54.5153 8.68279 53.931C9.63186 52.9818 9.18308 53.0198 19.5685 53.0088C27.8761 53 28.8906 53.0202 29.4357 53.206Z" fill="#22885E"/>
<path d="M21.5424 30.9797C22.4815 31.4418 23.1457 32.127 23.6055 33.1076C23.909 33.755 23.9332 33.9279 23.9147 35.3102C23.898 36.5536 23.7152 37.8698 22.8471 42.9983L21.7998 49.1862H19.6221H17.4443L16.397 42.9983C15.5289 37.8698 15.3461 36.5536 15.3294 35.3102C15.3109 33.9325 15.3358 33.7535 15.6344 33.1168C16.7205 30.8014 19.2913 29.8714 21.5424 30.9797Z" fill="#62C89E"/>
<path d="M58.5622 13.4962L61.5605 16.4964H58.53H55.4995V13.4962C55.4995 11.8461 55.514 10.496 55.5318 10.496C55.5495 10.496 56.9133 11.8461 58.5622 13.4962Z" fill="#22885E"/>
<path d="M36.1136 25.1592L30.2636 19.3092C29.9121 18.9577 29.9121 18.3879 30.2636 18.0364L31.5364 16.7636C31.8878 16.4121 32.4577 16.4121 32.8092 16.7636L36.75 20.7044L45.1908 12.2636C45.5423 11.9121 46.1122 11.9121 46.4636 12.2636L47.7364 13.5364C48.0879 13.8878 48.0879 14.4577 47.7364 14.8092L37.3864 25.1592C37.0349 25.5107 36.4651 25.5107 36.1136 25.1592V25.1592Z" fill="#0B2D1F"/>
</svg>
