<svg width="36" height="36" viewBox="0 0 36 36" fill="none" xmlns="http://www.w3.org/2000/svg">
<path d="M26 14.1L25 13.1L26 11.6V10L25 9.70002L27.6 6.90002L29.4 10L28.4 10.3V11.1L27.6 12.6L26 14.1Z" fill="#FFA600"/>
<path d="M21.0999 11.1L13.8999 14.7V15.2H22.5999V11.9L21.0999 11.1Z" fill="#FFA600"/>
<path d="M17.1998 8.5L10.2998 14.9H13.3998L19.2998 11.8V9.3L17.1998 8.5Z" fill="#FFA600"/>
<path d="M26.1001 14.5C26.3001 14.5 26.9001 14.1 27.3001 13.6C28.0001 12.8 28.5001 11.9 28.6001 10.9C28.7001 10.3 28.7001 10.3 29.0001 10.3C29.4001 10.3 29.6001 10.2 29.7001 9.9C29.9001 9.6 29.8001 9.5 28.8001 8.2C28.3001 7.5 27.8001 6.9 27.8001 6.9C27.6001 6.7 27.2001 6.6 26.9001 6.7C26.8001 6.7 26.7001 6.8 26.7001 6.8C26.6001 6.9 24.7001 9.4 24.6001 9.5C24.5001 9.8 24.6001 10.1 24.9001 10.3C25.0001 10.4 25.1001 10.4 25.4001 10.4H25.7001V10.6C25.7001 10.9 25.6001 11.4 25.4001 11.7C25.2001 12 24.9001 12.3 24.5001 12.6C24.2001 12.8 24.1001 12.9 24.1001 13.2C24.3001 13.3 25.9001 14.5 26.1001 14.5ZM25.6001 12.7C26.2001 12.1 26.5001 11.2 26.5001 10.4C26.5001 9.8 26.4001 9.7 25.9001 9.7C25.7001 9.7 25.5001 9.7 25.5001 9.7C25.5001 9.7 25.9001 9.2 26.3001 8.6C26.9001 7.8 27.1001 7.5 27.2001 7.5C27.3001 7.5 27.5001 7.8 28.1001 8.6L29.0001 9.6H28.6001C28.1001 9.6 28.0001 9.7 28.0001 10C28.0001 10.7 27.7001 11.6 27.4001 12.2C27.2001 12.6 26.6001 13.3 26.3001 13.5L26.2001 13.6L25.8001 13.3L25.4001 13L25.6001 12.7Z" fill="black"/>
<path d="M29.3001 20.3C29.1001 20 28.6001 19.8 28.2001 19.7H27.9001V18.5C27.9001 17.8 27.9001 17.2 27.8001 17C27.7001 16.5 27.4001 16 27.1001 15.7C26.7001 15.3 26.2001 15.1 25.8001 15C25.6001 15 25.0001 14.9 24.3001 14.9H23.1001V13.6C23.1001 12.3 23.1001 12.2 23.0001 12C22.8001 11.6 22.5001 11.3 22.1001 11C21.8001 10.8 21.7001 10.8 21.3001 10.8C20.9001 10.8 20.9001 10.8 20.3001 11C20.0001 11.1 19.8001 11.2 19.8001 11.2C19.8001 11.2 19.8001 10.9 19.8001 10.5C19.8001 9.69998 19.7001 9.39998 19.5001 8.99998C19.2001 8.49998 18.6001 8.19998 18.0001 8.09998C17.8001 8.09998 17.6001 8.09998 17.4001 8.09998C17.3001 8.09998 17.1001 8.19998 17.0001 8.29998C16.9001 8.39998 15.2001 9.89998 13.2001 11.6L9.6001 14.8H9.3001C8.3001 14.8 7.4001 15.4 7.0001 16.3C6.9001 16.5 6.8001 16.8 6.8001 17C6.7001 17.4 6.7001 27.3 6.8001 27.7C7.0001 28.6 7.7001 29.4 8.6001 29.7C8.8001 29.8 9.2001 29.8 17.4001 29.8C25.6001 29.8 25.9001 29.8 26.2001 29.7C27.0001 29.4 27.6001 28.9 27.9001 28C28.0001 27.7 28.0001 27.6 28.0001 26.3V24.9H28.3001C28.6001 24.9 29.1001 24.6 29.4001 24.3C29.5001 24.2 29.7001 23.9 29.7001 23.8L29.8001 23.5V22.3V21.1L29.7001 20.8C29.6001 20.7 29.4001 20.4 29.3001 20.3ZM20.7001 11.7C21.1001 11.5 21.3001 11.5 21.6001 11.6C21.7001 11.6 21.9001 11.7 22.0001 11.8C22.3001 12.1 22.3001 12.1 22.3001 13.6V14.9H18.2001H14.1001L17.1001 13.4C19.0001 12.5 20.5001 11.8 20.7001 11.7ZM13.9001 12C15.8001 10.3 17.3001 9.09998 17.4001 8.99998C17.6001 8.89998 17.7001 8.89997 17.9001 8.89997C18.0001 8.89997 18.2001 8.99998 18.3001 8.99998C18.5001 9.09998 18.7001 9.29998 18.8001 9.49998C19.0001 9.69998 19.0001 9.89998 19.0001 10.7V11.7L15.8001 13.3L12.6001 14.9H11.7001H10.8001L13.9001 12ZM27.2001 26.3V27.6L27.0001 28C26.8001 28.4 26.5001 28.7 26.1001 28.9L25.7001 29.1H17.2001H8.9001L8.6001 29C8.2001 28.8 7.9001 28.5 7.7001 28.1L7.5001 27.7V22.4V17.1L7.6001 16.8C7.7001 16.6 7.8001 16.4 7.9001 16.3C8.1001 16.1 8.5001 15.8 8.8001 15.8C8.9001 15.8 12.4001 15.8 17.4001 15.8H25.8001L26.2001 16C26.6001 16.2 26.9001 16.5 27.1001 16.9L27.2001 17.2V18.5V19.8H25.1001H23.0001L22.7001 19.9C22.2001 20.1 21.9001 20.5 21.7001 21.2C21.6001 21.6 21.6001 23.1 21.7001 23.5C21.9001 24.2 22.2001 24.6 22.7001 24.8L23.0001 24.9H25.1001H27.2001V26.3ZM29.0001 23.5C28.9001 23.8 28.5001 24.1 28.3001 24.2C28.0001 24.3 23.4001 24.3 23.1001 24.2C22.8001 24.1 22.6001 23.9 22.5001 23.5C22.4001 23.2 22.4001 23.1 22.4001 22.4C22.4001 21.7 22.4001 21.6 22.5001 21.3C22.6001 20.9 22.8001 20.7 23.1001 20.6C23.3001 20.5 28.1001 20.5 28.3001 20.6C28.6001 20.7 28.9001 21.1 29.0001 21.3C29.1001 21.5 29.1001 23.2 29.0001 23.5Z" fill="black"/>
<path d="M25.3001 21.1C25.0001 20.9 24.5001 20.9 24.2001 21C23.8001 21.1 23.4001 21.4 23.2001 21.8C23.1001 22 23.1001 22.1 23.1001 22.4C23.1001 22.8 23.1001 22.8 23.3001 23.1C23.5001 23.4 23.6001 23.6 24.0001 23.8C24.2001 23.9 24.3001 23.9 24.6001 23.9C24.9001 23.9 25.0001 23.9 25.2001 23.8C25.5001 23.6 25.7001 23.5 25.9001 23.1C26.0001 22.8 26.1001 22.8 26.1001 22.4C26.1001 22.1 26.1001 22 26.0001 21.8C25.8001 21.4 25.6001 21.2 25.3001 21.1ZM25.1001 22.9C24.8001 23.2 24.4001 23.2 24.1001 22.9C23.5001 22.3 24.2001 21.4 24.9001 21.7C25.4001 21.9 25.5001 22.5 25.1001 22.9Z" fill="black"/>
</svg>
