<svg width="72" height="72" viewBox="0 0 72 72" fill="none" xmlns="http://www.w3.org/2000/svg">
<ellipse cx="24.885" cy="21.9851" rx="6.64522" ry="8.1194" fill="#62C89E"/>
<path fill-rule="evenodd" clip-rule="evenodd" d="M35.5047 22.1602C35.5047 28.4618 30.8196 33.5849 25.035 33.5849C19.2504 33.5849 14.5892 28.4859 14.5653 22.2083C14.5653 16.0269 19.2982 11 25.035 11C30.8435 11 35.5047 15.9547 35.5047 22.1602ZM18.9396 22.1842C18.9396 26.2491 21.7363 29.3758 25.035 29.3758C28.3576 29.3758 31.1304 26.2009 31.1304 22.1602C31.1304 18.2156 28.3815 15.2091 25.035 15.2091C21.7124 15.2091 18.9396 18.2637 18.9396 22.1842ZM37.0083 56.2421H10.1432C6.00789 56.2421 4 54.9192 4 52.081C4 45.4667 12.2228 36.6636 25.035 36.6636C29.0178 36.6636 32.5548 37.5143 35.5383 38.8855C34.71 40.0075 34.055 41.2668 33.6131 42.6233C31.2459 41.5631 28.3727 40.8727 25.035 40.8727C14.5175 40.8727 8.61336 47.7276 8.61336 51.4076C8.61336 51.8405 8.82849 52.0329 9.37827 52.0329H34.0717C34.7703 53.6268 35.774 55.0548 37.0083 56.2421Z" fill="#0B2D1F"/>
<mask id="path-3-outside-1_6295_46167" maskUnits="userSpaceOnUse" x="35.7959" y="33" width="33" height="31" fill="black">
<rect fill="white" x="35.7959" y="33" width="33" height="31"/>
<path d="M67.6591 56.5356C67.2949 56.1692 66.6576 56.0776 66.2024 56.3524C65.1099 56.9021 63.8353 56.9937 62.6518 56.5356C62.2876 56.444 62.0145 56.2608 61.6503 55.986C63.3801 53.6042 64.2905 50.7643 64.2905 47.8328C64.2905 43.9853 62.7428 40.5958 60.2847 38.0308C57.8265 35.5573 54.367 34 50.5432 34C46.7195 34 43.2599 35.4657 40.8017 38.0308C38.3436 40.5042 36.7959 43.9853 36.7959 47.8328C36.7959 51.6804 38.2526 55.1615 40.7107 57.6349C43.1688 60.1083 46.6284 61.6657 50.4522 61.6657C51.9088 61.6657 53.3655 61.3909 54.7311 60.9328C55.8236 61.8489 57.0982 62.4902 58.4638 62.765C59.0101 62.8566 59.6474 62.9482 60.1936 62.9482C63.4711 62.9482 66.4755 61.0244 67.8411 57.9097C68.1143 57.4517 68.0232 56.9021 67.6591 56.5356ZM59.7384 51.9552C59.9205 50.4895 60.7399 49.207 62.0145 48.4741C62.4697 48.1993 62.7428 47.6496 62.6518 47.1C62.5607 46.5503 62.1055 46.1839 61.5593 46.0007C60.5578 45.8175 59.4653 45.8175 58.3728 46.0923C55.0953 46.8252 52.5461 49.3902 51.8178 52.5965C51.3626 54.8867 51.7268 57.1769 53.0013 59.1007C53.1834 59.3755 53.4565 59.7419 53.6386 60.0167C52.7282 60.2916 51.9088 60.3832 50.9984 60.4748V58.6426C50.9984 58.2762 50.7253 58.0014 50.3611 58.0014C49.997 58.0014 49.7238 58.2762 49.7238 58.6426V60.4748C46.9015 60.2916 44.1703 59.1007 42.0763 57.1769L43.3509 55.8944C43.624 55.6195 43.624 55.2531 43.3509 54.9783C43.0778 54.7035 42.7136 54.7035 42.4405 54.9783L41.1659 56.2608C39.254 54.1538 38.0705 51.4056 37.9794 48.4741H39.8003C40.1644 48.4741 40.4376 48.1993 40.4376 47.8328C40.4376 47.4664 40.1644 47.1916 39.8003 47.1916H37.9794C38.1615 44.1685 39.3451 41.4203 41.1659 39.4049L42.4405 40.6874C42.5315 40.779 42.7136 40.8706 42.8957 40.8706C43.0778 40.8706 43.2599 40.779 43.3509 40.6874C43.624 40.4126 43.624 40.0461 43.3509 39.7713L42.0763 38.4888C44.1703 36.565 46.9015 35.3741 49.8149 35.2825V37.1147C49.8149 37.4811 50.088 37.7559 50.4522 37.7559C50.8163 37.7559 51.0895 37.4811 51.0895 37.1147V35.2825C54.0938 35.4657 56.8251 36.6566 58.828 38.4888L57.5534 39.7713C57.2803 40.0461 57.2803 40.4126 57.5534 40.6874C57.6445 40.779 57.8265 40.8706 58.0086 40.8706C58.1907 40.8706 58.3728 40.779 58.4638 40.6874L59.7384 39.4049C61.7413 41.6035 63.0159 44.6266 63.0159 47.8328C63.0159 50.4895 62.1966 52.9629 60.7399 55.0699C60.0116 54.2454 59.6474 53.1461 59.7384 51.9552ZM51.0895 40.8706V48.8405C51.0895 49.1154 50.9074 49.2986 50.6342 49.3902L43.0778 52.1384C42.9867 52.1384 42.8957 52.1384 42.8957 52.1384C42.6226 52.1384 42.4405 51.9552 42.3494 51.6804C42.2584 51.314 42.4405 50.9475 42.7136 50.8559L49.8149 48.2909V40.8706C49.8149 40.5042 50.088 40.2294 50.4522 40.2294C50.8163 40.2294 51.0895 40.5958 51.0895 40.8706Z"/>
</mask>
<path d="M67.6591 56.5356C67.2949 56.1692 66.6576 56.0776 66.2024 56.3524C65.1099 56.9021 63.8353 56.9937 62.6518 56.5356C62.2876 56.444 62.0145 56.2608 61.6503 55.986C63.3801 53.6042 64.2905 50.7643 64.2905 47.8328C64.2905 43.9853 62.7428 40.5958 60.2847 38.0308C57.8265 35.5573 54.367 34 50.5432 34C46.7195 34 43.2599 35.4657 40.8017 38.0308C38.3436 40.5042 36.7959 43.9853 36.7959 47.8328C36.7959 51.6804 38.2526 55.1615 40.7107 57.6349C43.1688 60.1083 46.6284 61.6657 50.4522 61.6657C51.9088 61.6657 53.3655 61.3909 54.7311 60.9328C55.8236 61.8489 57.0982 62.4902 58.4638 62.765C59.0101 62.8566 59.6474 62.9482 60.1936 62.9482C63.4711 62.9482 66.4755 61.0244 67.8411 57.9097C68.1143 57.4517 68.0232 56.9021 67.6591 56.5356ZM59.7384 51.9552C59.9205 50.4895 60.7399 49.207 62.0145 48.4741C62.4697 48.1993 62.7428 47.6496 62.6518 47.1C62.5607 46.5503 62.1055 46.1839 61.5593 46.0007C60.5578 45.8175 59.4653 45.8175 58.3728 46.0923C55.0953 46.8252 52.5461 49.3902 51.8178 52.5965C51.3626 54.8867 51.7268 57.1769 53.0013 59.1007C53.1834 59.3755 53.4565 59.7419 53.6386 60.0167C52.7282 60.2916 51.9088 60.3832 50.9984 60.4748V58.6426C50.9984 58.2762 50.7253 58.0014 50.3611 58.0014C49.997 58.0014 49.7238 58.2762 49.7238 58.6426V60.4748C46.9015 60.2916 44.1703 59.1007 42.0763 57.1769L43.3509 55.8944C43.624 55.6195 43.624 55.2531 43.3509 54.9783C43.0778 54.7035 42.7136 54.7035 42.4405 54.9783L41.1659 56.2608C39.254 54.1538 38.0705 51.4056 37.9794 48.4741H39.8003C40.1644 48.4741 40.4376 48.1993 40.4376 47.8328C40.4376 47.4664 40.1644 47.1916 39.8003 47.1916H37.9794C38.1615 44.1685 39.3451 41.4203 41.1659 39.4049L42.4405 40.6874C42.5315 40.779 42.7136 40.8706 42.8957 40.8706C43.0778 40.8706 43.2599 40.779 43.3509 40.6874C43.624 40.4126 43.624 40.0461 43.3509 39.7713L42.0763 38.4888C44.1703 36.565 46.9015 35.3741 49.8149 35.2825V37.1147C49.8149 37.4811 50.088 37.7559 50.4522 37.7559C50.8163 37.7559 51.0895 37.4811 51.0895 37.1147V35.2825C54.0938 35.4657 56.8251 36.6566 58.828 38.4888L57.5534 39.7713C57.2803 40.0461 57.2803 40.4126 57.5534 40.6874C57.6445 40.779 57.8265 40.8706 58.0086 40.8706C58.1907 40.8706 58.3728 40.779 58.4638 40.6874L59.7384 39.4049C61.7413 41.6035 63.0159 44.6266 63.0159 47.8328C63.0159 50.4895 62.1966 52.9629 60.7399 55.0699C60.0116 54.2454 59.6474 53.1461 59.7384 51.9552ZM51.0895 40.8706V48.8405C51.0895 49.1154 50.9074 49.2986 50.6342 49.3902L43.0778 52.1384C42.9867 52.1384 42.8957 52.1384 42.8957 52.1384C42.6226 52.1384 42.4405 51.9552 42.3494 51.6804C42.2584 51.314 42.4405 50.9475 42.7136 50.8559L49.8149 48.2909V40.8706C49.8149 40.5042 50.088 40.2294 50.4522 40.2294C50.8163 40.2294 51.0895 40.5958 51.0895 40.8706Z" fill="#0B2D1F"/>
<path d="M67.6591 56.5356C67.2949 56.1692 66.6576 56.0776 66.2024 56.3524C65.1099 56.9021 63.8353 56.9937 62.6518 56.5356C62.2876 56.444 62.0145 56.2608 61.6503 55.986C63.3801 53.6042 64.2905 50.7643 64.2905 47.8328C64.2905 43.9853 62.7428 40.5958 60.2847 38.0308C57.8265 35.5573 54.367 34 50.5432 34C46.7195 34 43.2599 35.4657 40.8017 38.0308C38.3436 40.5042 36.7959 43.9853 36.7959 47.8328C36.7959 51.6804 38.2526 55.1615 40.7107 57.6349C43.1688 60.1083 46.6284 61.6657 50.4522 61.6657C51.9088 61.6657 53.3655 61.3909 54.7311 60.9328C55.8236 61.8489 57.0982 62.4902 58.4638 62.765C59.0101 62.8566 59.6474 62.9482 60.1936 62.9482C63.4711 62.9482 66.4755 61.0244 67.8411 57.9097C68.1143 57.4517 68.0232 56.9021 67.6591 56.5356ZM59.7384 51.9552C59.9205 50.4895 60.7399 49.207 62.0145 48.4741C62.4697 48.1993 62.7428 47.6496 62.6518 47.1C62.5607 46.5503 62.1055 46.1839 61.5593 46.0007C60.5578 45.8175 59.4653 45.8175 58.3728 46.0923C55.0953 46.8252 52.5461 49.3902 51.8178 52.5965C51.3626 54.8867 51.7268 57.1769 53.0013 59.1007C53.1834 59.3755 53.4565 59.7419 53.6386 60.0167C52.7282 60.2916 51.9088 60.3832 50.9984 60.4748V58.6426C50.9984 58.2762 50.7253 58.0014 50.3611 58.0014C49.997 58.0014 49.7238 58.2762 49.7238 58.6426V60.4748C46.9015 60.2916 44.1703 59.1007 42.0763 57.1769L43.3509 55.8944C43.624 55.6195 43.624 55.2531 43.3509 54.9783C43.0778 54.7035 42.7136 54.7035 42.4405 54.9783L41.1659 56.2608C39.254 54.1538 38.0705 51.4056 37.9794 48.4741H39.8003C40.1644 48.4741 40.4376 48.1993 40.4376 47.8328C40.4376 47.4664 40.1644 47.1916 39.8003 47.1916H37.9794C38.1615 44.1685 39.3451 41.4203 41.1659 39.4049L42.4405 40.6874C42.5315 40.779 42.7136 40.8706 42.8957 40.8706C43.0778 40.8706 43.2599 40.779 43.3509 40.6874C43.624 40.4126 43.624 40.0461 43.3509 39.7713L42.0763 38.4888C44.1703 36.565 46.9015 35.3741 49.8149 35.2825V37.1147C49.8149 37.4811 50.088 37.7559 50.4522 37.7559C50.8163 37.7559 51.0895 37.4811 51.0895 37.1147V35.2825C54.0938 35.4657 56.8251 36.6566 58.828 38.4888L57.5534 39.7713C57.2803 40.0461 57.2803 40.4126 57.5534 40.6874C57.6445 40.779 57.8265 40.8706 58.0086 40.8706C58.1907 40.8706 58.3728 40.779 58.4638 40.6874L59.7384 39.4049C61.7413 41.6035 63.0159 44.6266 63.0159 47.8328C63.0159 50.4895 62.1966 52.9629 60.7399 55.0699C60.0116 54.2454 59.6474 53.1461 59.7384 51.9552ZM51.0895 40.8706V48.8405C51.0895 49.1154 50.9074 49.2986 50.6342 49.3902L43.0778 52.1384C42.9867 52.1384 42.8957 52.1384 42.8957 52.1384C42.6226 52.1384 42.4405 51.9552 42.3494 51.6804C42.2584 51.314 42.4405 50.9475 42.7136 50.8559L49.8149 48.2909V40.8706C49.8149 40.5042 50.088 40.2294 50.4522 40.2294C50.8163 40.2294 51.0895 40.5958 51.0895 40.8706Z" stroke="#0B2D1F" stroke-width="0.490597" mask="url(#path-3-outside-1_6295_46167)"/>
<mask id="path-4-outside-2_6295_46167" maskUnits="userSpaceOnUse" x="51.9559" y="46.2837" width="16" height="16" fill="black">
<rect fill="white" x="51.9559" y="46.2837" width="16" height="16"/>
<path d="M60.1938 61.7578C59.7385 61.7578 59.1923 61.6662 58.7371 61.5746C58.1908 61.483 57.6446 61.2998 57.0983 61.0249C56.279 60.6585 55.6417 60.1088 55.0044 59.4676L54.6402 59.1012C54.4581 58.9179 54.276 58.6431 54.094 58.4599C53.5477 57.727 53.1835 56.8109 53.0925 55.8949C52.9104 54.9788 52.9104 53.9711 53.0925 52.9634C53.6387 50.3068 55.8237 48.1082 58.646 47.4669C59.1923 47.3753 59.7385 47.2837 60.2848 47.2837C60.649 47.2837 61.0131 47.2837 61.3773 47.3753C59.7385 48.383 58.646 50.0319 58.464 51.9557C58.3729 52.6886 58.464 53.4214 58.646 54.1543C58.8281 54.6123 59.1013 55.3452 59.6475 55.9865C60.0117 56.4445 60.3758 56.8109 60.831 57.0858C61.3773 57.4522 61.8325 57.6354 62.1056 57.727C62.3788 57.8186 63.1071 58.0935 64.1086 58.0935C64.3817 58.0935 64.5638 58.0935 64.8369 58.0019C65.4742 57.9102 66.1115 57.727 66.6577 57.4522C65.6563 60.1088 63.0161 61.7578 60.1938 61.7578Z"/>
</mask>
<path d="M60.1938 61.7578C59.7385 61.7578 59.1923 61.6662 58.7371 61.5746C58.1908 61.483 57.6446 61.2998 57.0983 61.0249C56.279 60.6585 55.6417 60.1088 55.0044 59.4676L54.6402 59.1012C54.4581 58.9179 54.276 58.6431 54.094 58.4599C53.5477 57.727 53.1835 56.8109 53.0925 55.8949C52.9104 54.9788 52.9104 53.9711 53.0925 52.9634C53.6387 50.3068 55.8237 48.1082 58.646 47.4669C59.1923 47.3753 59.7385 47.2837 60.2848 47.2837C60.649 47.2837 61.0131 47.2837 61.3773 47.3753C59.7385 48.383 58.646 50.0319 58.464 51.9557C58.3729 52.6886 58.464 53.4214 58.646 54.1543C58.8281 54.6123 59.1013 55.3452 59.6475 55.9865C60.0117 56.4445 60.3758 56.8109 60.831 57.0858C61.3773 57.4522 61.8325 57.6354 62.1056 57.727C62.3788 57.8186 63.1071 58.0935 64.1086 58.0935C64.3817 58.0935 64.5638 58.0935 64.8369 58.0019C65.4742 57.9102 66.1115 57.727 66.6577 57.4522C65.6563 60.1088 63.0161 61.7578 60.1938 61.7578Z" fill="#22885E"/>
<path d="M60.1938 61.7578C59.7385 61.7578 59.1923 61.6662 58.7371 61.5746C58.1908 61.483 57.6446 61.2998 57.0983 61.0249C56.279 60.6585 55.6417 60.1088 55.0044 59.4676L54.6402 59.1012C54.4581 58.9179 54.276 58.6431 54.094 58.4599C53.5477 57.727 53.1835 56.8109 53.0925 55.8949C52.9104 54.9788 52.9104 53.9711 53.0925 52.9634C53.6387 50.3068 55.8237 48.1082 58.646 47.4669C59.1923 47.3753 59.7385 47.2837 60.2848 47.2837C60.649 47.2837 61.0131 47.2837 61.3773 47.3753C59.7385 48.383 58.646 50.0319 58.464 51.9557C58.3729 52.6886 58.464 53.4214 58.646 54.1543C58.8281 54.6123 59.1013 55.3452 59.6475 55.9865C60.0117 56.4445 60.3758 56.8109 60.831 57.0858C61.3773 57.4522 61.8325 57.6354 62.1056 57.727C62.3788 57.8186 63.1071 58.0935 64.1086 58.0935C64.3817 58.0935 64.5638 58.0935 64.8369 58.0019C65.4742 57.9102 66.1115 57.727 66.6577 57.4522C65.6563 60.1088 63.0161 61.7578 60.1938 61.7578Z" stroke="#0B2D1F" stroke-width="0.490597" mask="url(#path-4-outside-2_6295_46167)"/>
<circle cx="51" cy="60" r="3.6" fill="#62C89E" stroke="#0B2D1F" stroke-width="1.2"/>
<circle cx="51" cy="60" r="3.6" fill="#62C89E" stroke="#0B2D1F" stroke-width="1.2"/>
<path d="M52.037 59.0144C51.9052 59.0557 51.8108 59.215 51.8363 59.3547C51.8599 59.4786 51.9779 59.5848 52.094 59.5848C52.1215 59.5848 52.1432 59.5907 52.1432 59.6005C52.1432 59.6084 51.9878 59.7697 51.799 59.9585L51.4547 60.3027L50.9768 59.8248C50.4595 59.3094 50.43 59.2878 50.2805 59.3271C50.2195 59.3448 50.0936 59.4609 49.6117 59.9428C49.1042 60.4522 49.0177 60.5486 49.0059 60.6115C48.9705 60.8043 49.0983 60.9616 49.2911 60.9616C49.3363 60.9616 49.3914 60.9518 49.415 60.94C49.4386 60.9282 49.6589 60.7177 49.9068 60.4738L50.3532 60.0273L50.8214 60.4935C51.0771 60.7492 51.3072 60.9675 51.3308 60.9793C51.3859 61.0069 51.5236 61.0069 51.5787 60.9793C51.6023 60.9675 51.8344 60.7453 52.096 60.4856L52.57 60.0136L52.5818 60.0923C52.627 60.3657 53.0047 60.4227 53.1325 60.1749C53.164 60.1139 53.166 60.0549 53.162 59.6497C53.1561 59.1481 53.1542 59.1462 53.0204 59.0458C52.9693 59.0065 52.9378 59.0045 52.5307 59.0006C52.2907 58.9986 52.0684 59.0045 52.037 59.0144Z" fill="#0B2D1F"/>
</svg>
