<svg width="72" height="72" viewBox="0 0 72 72" fill="none" xmlns="http://www.w3.org/2000/svg">
<ellipse cx="25.0149" cy="21.9851" rx="6.68657" ry="8.1194" fill="#62C89E"/>
<mask id="path-2-outside-1_6295_46138" maskUnits="userSpaceOnUse" x="35.906" y="32.564" width="30" height="28" fill="black">
<rect fill="white" x="35.906" y="32.564" width="30" height="28"/>
<path d="M64.826 53.8245C64.4965 53.495 63.92 53.4127 63.5082 53.6598C62.5199 54.1539 61.3669 54.2363 60.2962 53.8245C59.9667 53.7421 59.7197 53.5774 59.3902 53.3303C60.9551 51.189 61.7787 48.6358 61.7787 46.0003C61.7787 42.5412 60.3785 39.4939 58.1548 37.1878C55.9311 34.9641 52.8014 33.564 49.3423 33.564C45.8832 33.564 42.7535 34.8817 40.5298 37.1878C38.3061 39.4115 36.906 42.5412 36.906 46.0003C36.906 49.4594 38.2238 52.5891 40.4475 54.8128C42.6712 57.0365 45.8009 58.4366 49.26 58.4366C50.5777 58.4366 51.8955 58.1895 53.1309 57.7777C54.1192 58.6013 55.2722 59.1779 56.5076 59.4249C57.0018 59.5073 57.5783 59.5897 58.0725 59.5897C61.0374 59.5897 63.7553 57.8601 64.9907 55.0599C65.2378 54.6481 65.1554 54.1539 64.826 53.8245ZM57.6607 49.7065C57.8254 48.3887 58.5666 47.2357 59.7197 46.5768C60.1315 46.3297 60.3785 45.8356 60.2962 45.3414C60.2138 44.8473 59.802 44.5178 59.3079 44.3531C58.4019 44.1884 57.4136 44.1884 56.4253 44.4355C53.4603 45.0943 51.1542 47.4004 50.4954 50.283C50.0836 52.342 50.413 54.401 51.566 56.1305C51.7308 56.3776 51.9778 56.7071 52.1426 56.9541C51.319 57.2012 50.5777 57.2836 49.7541 57.3659V55.7187C49.7541 55.3893 49.5071 55.1422 49.1776 55.1422C48.8482 55.1422 48.6011 55.3893 48.6011 55.7187V57.3659C46.0479 57.2012 43.5771 56.1305 41.6829 54.401L42.8359 53.248C43.083 53.0009 43.083 52.6714 42.8359 52.4244C42.5888 52.1773 42.2594 52.1773 42.0123 52.4244L40.8593 53.5774C39.1297 51.6831 38.059 49.2123 37.9767 46.5768H39.6239C39.9533 46.5768 40.2004 46.3297 40.2004 46.0003C40.2004 45.6709 39.9533 45.4238 39.6239 45.4238H37.9767C38.1414 42.7059 39.2121 40.2351 40.8593 38.4232L42.0123 39.5762C42.0947 39.6586 42.2594 39.7409 42.4241 39.7409C42.5888 39.7409 42.7535 39.6586 42.8359 39.5762C43.083 39.3291 43.083 38.9997 42.8359 38.7526L41.6829 37.5996C43.5771 35.87 46.0479 34.7994 48.6835 34.717V36.3642C48.6835 36.6936 48.9305 36.9407 49.26 36.9407C49.5894 36.9407 49.8365 36.6936 49.8365 36.3642V34.717C52.5544 34.8817 55.0252 35.9524 56.8371 37.5996L55.684 38.7526C55.437 38.9997 55.437 39.3291 55.684 39.5762C55.7664 39.6586 55.9311 39.7409 56.0958 39.7409C56.2606 39.7409 56.4253 39.6586 56.5076 39.5762L57.6607 38.4232C59.4726 40.3998 60.6256 43.1177 60.6256 46.0003C60.6256 48.3887 59.8844 50.6124 58.5666 52.5067C57.9077 51.7655 57.5783 50.7772 57.6607 49.7065ZM49.8365 39.7409V46.9062C49.8365 47.1533 49.6718 47.318 49.4247 47.4004L42.5888 49.8712C42.5065 49.8712 42.4241 49.8712 42.4241 49.8712C42.177 49.8712 42.0123 49.7065 41.93 49.4594C41.8476 49.13 42.0123 48.8005 42.2594 48.7182L48.6835 46.4121V39.7409C48.6835 39.4115 48.9305 39.1644 49.26 39.1644C49.5894 39.1644 49.8365 39.4939 49.8365 39.7409Z"/>
</mask>
<path d="M64.826 53.8245C64.4965 53.495 63.92 53.4127 63.5082 53.6598C62.5199 54.1539 61.3669 54.2363 60.2962 53.8245C59.9667 53.7421 59.7197 53.5774 59.3902 53.3303C60.9551 51.189 61.7787 48.6358 61.7787 46.0003C61.7787 42.5412 60.3785 39.4939 58.1548 37.1878C55.9311 34.9641 52.8014 33.564 49.3423 33.564C45.8832 33.564 42.7535 34.8817 40.5298 37.1878C38.3061 39.4115 36.906 42.5412 36.906 46.0003C36.906 49.4594 38.2238 52.5891 40.4475 54.8128C42.6712 57.0365 45.8009 58.4366 49.26 58.4366C50.5777 58.4366 51.8955 58.1895 53.1309 57.7777C54.1192 58.6013 55.2722 59.1779 56.5076 59.4249C57.0018 59.5073 57.5783 59.5897 58.0725 59.5897C61.0374 59.5897 63.7553 57.8601 64.9907 55.0599C65.2378 54.6481 65.1554 54.1539 64.826 53.8245ZM57.6607 49.7065C57.8254 48.3887 58.5666 47.2357 59.7197 46.5768C60.1315 46.3297 60.3785 45.8356 60.2962 45.3414C60.2138 44.8473 59.802 44.5178 59.3079 44.3531C58.4019 44.1884 57.4136 44.1884 56.4253 44.4355C53.4603 45.0943 51.1542 47.4004 50.4954 50.283C50.0836 52.342 50.413 54.401 51.566 56.1305C51.7308 56.3776 51.9778 56.7071 52.1426 56.9541C51.319 57.2012 50.5777 57.2836 49.7541 57.3659V55.7187C49.7541 55.3893 49.5071 55.1422 49.1776 55.1422C48.8482 55.1422 48.6011 55.3893 48.6011 55.7187V57.3659C46.0479 57.2012 43.5771 56.1305 41.6829 54.401L42.8359 53.248C43.083 53.0009 43.083 52.6714 42.8359 52.4244C42.5888 52.1773 42.2594 52.1773 42.0123 52.4244L40.8593 53.5774C39.1297 51.6831 38.059 49.2123 37.9767 46.5768H39.6239C39.9533 46.5768 40.2004 46.3297 40.2004 46.0003C40.2004 45.6709 39.9533 45.4238 39.6239 45.4238H37.9767C38.1414 42.7059 39.2121 40.2351 40.8593 38.4232L42.0123 39.5762C42.0947 39.6586 42.2594 39.7409 42.4241 39.7409C42.5888 39.7409 42.7535 39.6586 42.8359 39.5762C43.083 39.3291 43.083 38.9997 42.8359 38.7526L41.6829 37.5996C43.5771 35.87 46.0479 34.7994 48.6835 34.717V36.3642C48.6835 36.6936 48.9305 36.9407 49.26 36.9407C49.5894 36.9407 49.8365 36.6936 49.8365 36.3642V34.717C52.5544 34.8817 55.0252 35.9524 56.8371 37.5996L55.684 38.7526C55.437 38.9997 55.437 39.3291 55.684 39.5762C55.7664 39.6586 55.9311 39.7409 56.0958 39.7409C56.2606 39.7409 56.4253 39.6586 56.5076 39.5762L57.6607 38.4232C59.4726 40.3998 60.6256 43.1177 60.6256 46.0003C60.6256 48.3887 59.8844 50.6124 58.5666 52.5067C57.9077 51.7655 57.5783 50.7772 57.6607 49.7065ZM49.8365 39.7409V46.9062C49.8365 47.1533 49.6718 47.318 49.4247 47.4004L42.5888 49.8712C42.5065 49.8712 42.4241 49.8712 42.4241 49.8712C42.177 49.8712 42.0123 49.7065 41.93 49.4594C41.8476 49.13 42.0123 48.8005 42.2594 48.7182L48.6835 46.4121V39.7409C48.6835 39.4115 48.9305 39.1644 49.26 39.1644C49.5894 39.1644 49.8365 39.4939 49.8365 39.7409Z" fill="#0B2D1F"/>
<path d="M64.826 53.8245C64.4965 53.495 63.92 53.4127 63.5082 53.6598C62.5199 54.1539 61.3669 54.2363 60.2962 53.8245C59.9667 53.7421 59.7197 53.5774 59.3902 53.3303C60.9551 51.189 61.7787 48.6358 61.7787 46.0003C61.7787 42.5412 60.3785 39.4939 58.1548 37.1878C55.9311 34.9641 52.8014 33.564 49.3423 33.564C45.8832 33.564 42.7535 34.8817 40.5298 37.1878C38.3061 39.4115 36.906 42.5412 36.906 46.0003C36.906 49.4594 38.2238 52.5891 40.4475 54.8128C42.6712 57.0365 45.8009 58.4366 49.26 58.4366C50.5777 58.4366 51.8955 58.1895 53.1309 57.7777C54.1192 58.6013 55.2722 59.1779 56.5076 59.4249C57.0018 59.5073 57.5783 59.5897 58.0725 59.5897C61.0374 59.5897 63.7553 57.8601 64.9907 55.0599C65.2378 54.6481 65.1554 54.1539 64.826 53.8245ZM57.6607 49.7065C57.8254 48.3887 58.5666 47.2357 59.7197 46.5768C60.1315 46.3297 60.3785 45.8356 60.2962 45.3414C60.2138 44.8473 59.802 44.5178 59.3079 44.3531C58.4019 44.1884 57.4136 44.1884 56.4253 44.4355C53.4603 45.0943 51.1542 47.4004 50.4954 50.283C50.0836 52.342 50.413 54.401 51.566 56.1305C51.7308 56.3776 51.9778 56.7071 52.1426 56.9541C51.319 57.2012 50.5777 57.2836 49.7541 57.3659V55.7187C49.7541 55.3893 49.5071 55.1422 49.1776 55.1422C48.8482 55.1422 48.6011 55.3893 48.6011 55.7187V57.3659C46.0479 57.2012 43.5771 56.1305 41.6829 54.401L42.8359 53.248C43.083 53.0009 43.083 52.6714 42.8359 52.4244C42.5888 52.1773 42.2594 52.1773 42.0123 52.4244L40.8593 53.5774C39.1297 51.6831 38.059 49.2123 37.9767 46.5768H39.6239C39.9533 46.5768 40.2004 46.3297 40.2004 46.0003C40.2004 45.6709 39.9533 45.4238 39.6239 45.4238H37.9767C38.1414 42.7059 39.2121 40.2351 40.8593 38.4232L42.0123 39.5762C42.0947 39.6586 42.2594 39.7409 42.4241 39.7409C42.5888 39.7409 42.7535 39.6586 42.8359 39.5762C43.083 39.3291 43.083 38.9997 42.8359 38.7526L41.6829 37.5996C43.5771 35.87 46.0479 34.7994 48.6835 34.717V36.3642C48.6835 36.6936 48.9305 36.9407 49.26 36.9407C49.5894 36.9407 49.8365 36.6936 49.8365 36.3642V34.717C52.5544 34.8817 55.0252 35.9524 56.8371 37.5996L55.684 38.7526C55.437 38.9997 55.437 39.3291 55.684 39.5762C55.7664 39.6586 55.9311 39.7409 56.0958 39.7409C56.2606 39.7409 56.4253 39.6586 56.5076 39.5762L57.6607 38.4232C59.4726 40.3998 60.6256 43.1177 60.6256 46.0003C60.6256 48.3887 59.8844 50.6124 58.5666 52.5067C57.9077 51.7655 57.5783 50.7772 57.6607 49.7065ZM49.8365 39.7409V46.9062C49.8365 47.1533 49.6718 47.318 49.4247 47.4004L42.5888 49.8712C42.5065 49.8712 42.4241 49.8712 42.4241 49.8712C42.177 49.8712 42.0123 49.7065 41.93 49.4594C41.8476 49.13 42.0123 48.8005 42.2594 48.7182L48.6835 46.4121V39.7409C48.6835 39.4115 48.9305 39.1644 49.26 39.1644C49.5894 39.1644 49.8365 39.4939 49.8365 39.7409Z" stroke="#0B2D1F" mask="url(#path-2-outside-1_6295_46138)"/>
<path fill-rule="evenodd" clip-rule="evenodd" d="M35.7007 22.1602C35.7007 28.4618 30.9865 33.5849 25.1659 33.5849C19.3453 33.5849 14.6551 28.4859 14.631 22.2083C14.631 16.0269 19.3934 11 25.1659 11C31.0105 11 35.7007 15.9547 35.7007 22.1602ZM19.0326 22.1842C19.0326 26.2491 21.8467 29.3758 25.1659 29.3758C28.5091 29.3758 31.2992 26.2009 31.2992 22.1602C31.2992 18.2156 28.5332 15.2091 25.1659 15.2091C21.8226 15.2091 19.0326 18.2637 19.0326 22.1842ZM37.2138 56.2421H10.1814C6.02038 56.2421 4 54.9192 4 52.081C4 45.4667 12.2739 36.6636 25.1659 36.6636C29.1735 36.6636 32.7325 37.5143 35.7345 38.8855C34.9011 40.0075 34.242 41.2668 33.7974 42.6233C31.4154 41.5631 28.5244 40.8727 25.1659 40.8727C14.5829 40.8727 8.64206 47.7276 8.64206 51.4076C8.64206 51.8405 8.85853 52.0329 9.41173 52.0329H34.2588C34.9618 53.6268 35.9717 55.0548 37.2138 56.2421Z" fill="#0B2D1F"/>
<circle cx="58.9253" cy="51.5971" r="8.07463" fill="#62C89E" stroke="#0B2D1F" stroke-width="2"/>
<path d="M60.5648 50.0306C60.2799 50.1199 60.0758 50.4642 60.1311 50.7661C60.1821 51.034 60.4372 51.2636 60.6881 51.2636C60.7476 51.2636 60.7943 51.2763 60.7943 51.2976C60.7943 51.3146 60.4585 51.6633 60.0503 52.0714L59.3062 52.8155L58.273 51.7823C57.1548 50.6683 57.091 50.6216 56.7679 50.7066C56.6361 50.7449 56.364 50.9957 55.3223 52.0374C54.2253 53.1386 54.0382 53.347 54.0127 53.483C53.9362 53.8997 54.2126 54.2398 54.6292 54.2398C54.727 54.2398 54.8461 54.2186 54.8971 54.1931C54.9481 54.1676 55.4243 53.7126 55.9601 53.1854L56.9252 52.2202L57.9371 53.2279C58.4899 53.7806 58.9873 54.2526 59.0384 54.2781C59.1574 54.3376 59.455 54.3376 59.5741 54.2781C59.6251 54.2526 60.1268 53.7721 60.6923 53.2109L61.717 52.1905L61.7425 52.3606C61.8403 52.9515 62.6566 53.0749 62.933 52.5391C63.001 52.4073 63.0053 52.2798 62.9968 51.4039C62.984 50.3197 62.9798 50.3154 62.6906 50.0986C62.5801 50.0136 62.5121 50.0093 61.632 50.0008C61.1132 49.9966 60.6328 50.0093 60.5648 50.0306Z" fill="#0B2D1F"/>
</svg>
