<svg width="72" height="72" viewBox="0 0 72 72" fill="none" xmlns="http://www.w3.org/2000/svg">
<path d="M67.3008 51.9351C66.5539 51.1882 65.2468 51.0015 64.3132 51.5617C62.0724 52.682 59.4582 52.8688 57.0308 51.9351C56.2839 51.7484 55.7237 51.3749 54.9768 50.8147C58.5246 45.9598 60.3919 40.1712 60.3919 34.1959C60.3919 26.3534 57.2175 19.4444 52.1759 14.216C47.1342 9.17438 40.0385 6 32.1959 6C24.3534 6 17.2577 8.98765 12.216 14.216C7.17438 19.2577 4 26.3534 4 34.1959C4 42.0385 6.98765 49.1342 12.0293 54.1758C17.071 59.2175 24.1666 62.3919 32.0092 62.3919C34.9969 62.3919 37.9845 61.8317 40.7854 60.8981C43.0262 62.7653 45.6404 64.0724 48.4413 64.6326C49.5617 64.8194 50.8688 65.0061 51.9891 65.0061C58.7113 65.0061 64.8734 61.0848 67.6743 54.736C68.2345 53.8024 68.0477 52.682 67.3008 51.9351ZM51.0555 42.5987C51.4289 39.6111 53.1095 36.9969 55.7237 35.503C56.6573 34.9429 57.2175 33.8225 57.0308 32.7021C56.8441 31.5818 55.9104 30.8348 54.79 30.4614C52.736 30.0879 50.4953 30.0879 48.2546 30.6481C41.5324 32.1419 36.304 37.3703 34.8101 43.9058C33.8765 48.574 34.6234 53.2422 37.2376 57.1635C37.6111 57.7237 38.1712 58.4706 38.5447 59.0308C36.6774 59.591 34.9969 59.7777 33.1296 59.9644V56.2299C33.1296 55.4829 32.5694 54.9228 31.8225 54.9228C31.0756 54.9228 30.5154 55.4829 30.5154 56.2299V59.9644C24.7268 59.591 19.125 57.1635 14.8302 53.2422L17.4444 50.628C18.0046 50.0678 18.0046 49.3209 17.4444 48.7607C16.8842 48.2006 16.1373 48.2006 15.5771 48.7607L12.9629 51.3749C9.04166 47.0802 6.61419 41.4783 6.42747 35.503H10.162C10.9089 35.503 11.4691 34.9429 11.4691 34.1959C11.4691 33.449 10.9089 32.8888 10.162 32.8888H6.42747C6.80092 26.7268 9.22839 21.125 12.9629 17.017L15.5771 19.6312C15.7639 19.8179 16.1373 20.0046 16.5108 20.0046C16.8842 20.0046 17.2577 19.8179 17.4444 19.6312C18.0046 19.071 18.0046 18.3241 17.4444 17.7639L14.8302 15.1497C19.125 11.2284 24.7268 8.80092 30.7021 8.61419V12.3488C30.7021 13.0957 31.2623 13.6559 32.0092 13.6559C32.7561 13.6559 33.3163 13.0957 33.3163 12.3488V8.61419C39.4783 8.98765 45.0802 11.4151 49.1882 15.1497L46.574 17.7639C46.0138 18.3241 46.0138 19.071 46.574 19.6312C46.7607 19.8179 47.1342 20.0046 47.5077 20.0046C47.8811 20.0046 48.2546 19.8179 48.4413 19.6312L51.0555 17.017C55.1635 21.4984 57.7777 27.6605 57.7777 34.1959C57.7777 39.6111 56.0971 44.6527 53.1095 48.9475C51.6157 47.2669 50.8688 45.0262 51.0555 42.5987ZM33.3163 20.0046V36.25C33.3163 36.8101 32.9429 37.1836 32.3827 37.3703L16.8842 42.9722C16.6975 42.9722 16.5108 42.9722 16.5108 42.9722C15.9506 42.9722 15.5771 42.5987 15.3904 42.0385C15.2037 41.2916 15.5771 40.5447 16.1373 40.358L30.7021 35.1296V20.0046C30.7021 19.2577 31.2623 18.6975 32.0092 18.6975C32.7561 18.6975 33.3163 19.4444 33.3163 20.0046Z" fill="#0B2D1F"/>
<path d="M51.9893 62.5792C51.0557 62.5792 49.9353 62.3925 49.0016 62.2058C47.8813 62.019 46.7609 61.6456 45.6405 61.0854C43.96 60.3385 42.6529 59.2181 41.3458 57.911L40.5989 57.1641C40.2254 56.7906 39.852 56.2305 39.4785 55.857C38.3581 54.3632 37.6112 52.4959 37.4245 50.6286C37.051 48.7613 37.051 46.7073 37.4245 44.6533C38.5449 39.2382 43.0263 34.7567 48.8149 33.4496C49.9353 33.2629 51.0557 33.0762 52.176 33.0762C52.9229 33.0762 53.6698 33.0762 54.4168 33.2629C51.0557 35.3169 48.8149 38.678 48.4415 42.5993C48.2547 44.0931 48.4415 45.587 48.8149 47.0808C49.1884 48.0144 49.7486 49.5082 50.8689 50.8153C51.6158 51.749 52.3628 52.4959 53.2964 53.0561C54.4168 53.803 55.3504 54.1764 55.9106 54.3632C56.4708 54.5499 57.9646 55.1101 60.0186 55.1101C60.5788 55.1101 60.9522 55.1101 61.5124 54.9234C62.8195 54.7366 64.1266 54.3632 65.247 53.803C63.193 59.2181 57.7779 62.5792 51.9893 62.5792Z" fill="#22885E"/>
</svg>
