<svg width="72" height="72" viewBox="0 0 72 72" fill="none" xmlns="http://www.w3.org/2000/svg">
<circle cx="57.5" cy="56.5" r="11.5" fill="#68D4F4"/>
<path d="M43.5 5H28.5L23 13H50.5L43.5 5Z" fill="#2894B4"/>
<path fill-rule="evenodd" clip-rule="evenodd" d="M29.887 4.07675C27.9495 4.40174 25.9246 5.37671 24.5871 6.62668L23.6622 7.48915H19.9123C15.8249 7.48915 15.2624 7.55165 14.0874 8.13914C12.675 8.85162 11.4875 10.3891 11.15 11.964C10.95 12.9015 10.95 62.5751 11.15 63.5126C11.35 64.4376 11.925 65.5376 12.5875 66.2375C13.2374 66.925 14.5249 67.65 15.4874 67.85C16.0981 67.9803 33.2565 68.0257 45.4011 67.9862C44.1803 66.9059 43.1257 65.6419 42.2807 64.2376H36.3868H16.2374L15.7624 63.9751C15.4999 63.8251 15.1749 63.5001 15.0249 63.2376L14.7624 62.7626V37.7383V12.714L15.0374 12.2265C15.5374 11.339 15.9249 11.2391 18.9623 11.2391H21.5997L21.4247 12.0765C21.3247 12.5515 21.2622 13.3765 21.2872 13.9515C21.3247 15.0514 21.5247 15.4139 22.2872 15.8139C22.7872 16.0764 49.9864 16.0764 50.4864 15.8139C51.2489 15.4139 51.4489 15.0514 51.4864 13.9515C51.5114 13.3765 51.4489 12.5515 51.3489 12.0765L51.1739 11.2391H53.8113C56.8362 11.2391 57.2362 11.339 57.7362 12.2265L58.0112 12.714V37.7383V40.1252C59.3208 40.2894 60.5811 40.6119 61.7724 41.0729C61.782 27.4087 61.7324 12.4741 61.6236 11.964C61.1736 9.85159 59.3862 8.06414 57.2862 7.62665C56.8862 7.53915 55.1363 7.48915 52.8614 7.48915H49.099L48.2615 6.68918C47.3115 5.8017 46.3615 5.18922 45.0866 4.68923C43.4491 4.02675 42.8991 3.98925 36.2868 4.00175C32.9369 4.01425 30.062 4.05175 29.887 4.07675ZM42.8741 7.92664C43.3116 8.03914 44.0241 8.30163 44.4366 8.51413C45.6865 9.17661 47.0865 10.7641 47.449 11.9515L47.524 12.239H36.3868H25.2496L25.3246 11.9515C25.5371 11.2891 26.1246 10.3766 26.8371 9.6516C27.662 8.81412 28.962 8.07664 30.0245 7.87664C30.3245 7.81415 33.1619 7.76415 36.3243 7.75165C41.0492 7.73915 42.2116 7.77665 42.8741 7.92664Z" fill="#0D313B"/>
<path d="M23.8362 42.2876C22.6988 43.0501 22.7238 44.55 23.8987 45.425C24.2362 45.6875 24.3612 45.6875 32.411 45.6875C40.4608 45.6875 40.5858 45.6875 40.9233 45.425C42.0982 44.55 42.1232 43.0501 40.9858 42.2876L40.5608 42.0001H32.411H24.2612L23.8362 42.2876Z" fill="#0D313B"/>
<path d="M24.1551 32.3119C22.5839 33.139 22.6184 34.7661 24.2415 35.7153C24.7077 36 24.8803 36 36 36C47.1197 36 47.2923 36 47.7585 35.7153C49.3816 34.7661 49.4161 33.139 47.8449 32.3119L47.2578 32H36H24.7422L24.1551 32.3119Z" fill="#0D313B"/>
<path d="M24.1551 22.3119C22.5839 23.139 22.6184 24.7661 24.2415 25.7153C24.7077 26 24.8803 26 36 26C47.1197 26 47.2923 26 47.7585 25.7153C49.3816 24.7661 49.4161 23.139 47.8449 22.3119L47.2578 22H36H24.7422L24.1551 22.3119Z" fill="#0D313B"/>
<path d="M23.8953 52.2027C23.34 52.5 23 53.1757 23 54C23 54.7568 23.204 55.2162 23.782 55.7162C24.088 56 24.2013 56 31.5 56C38.7987 56 38.912 56 39.218 55.7162C39.796 55.2162 40 54.7568 40 54C40 53.1622 39.66 52.4865 39.082 52.2027C38.538 51.9324 24.4167 51.9324 23.8953 52.2027Z" fill="#0D313B"/>
<mask id="path-8-outside-1_6295_46114" maskUnits="userSpaceOnUse" x="44" y="43" width="27" height="27" fill="black">
<rect fill="white" x="44" y="43" width="27" height="27"/>
<path d="M57.5 67C63.299 67 68 62.299 68 56.5C68 50.701 63.299 46 57.5 46C51.701 46 47 50.701 47 56.5C47 62.299 51.701 67 57.5 67Z"/>
</mask>
<path d="M57.5 67C63.299 67 68 62.299 68 56.5C68 50.701 63.299 46 57.5 46C51.701 46 47 50.701 47 56.5C47 62.299 51.701 67 57.5 67Z" stroke="#0D313B" stroke-width="5.72727" mask="url(#path-8-outside-1_6295_46114)"/>
<mask id="path-9-outside-2_6295_46114" maskUnits="userSpaceOnUse" x="50" y="49" width="16" height="15" fill="black">
<rect fill="white" x="50" y="49" width="16" height="15"/>
<path d="M64.9462 60.1203C64.7816 59.9557 64.4937 59.9146 64.288 60.038C63.7943 60.2848 63.2184 60.3259 62.6835 60.1203C62.519 60.0791 62.3956 59.9968 62.231 59.8734C63.0127 58.8038 63.4241 57.5285 63.4241 56.212C63.4241 54.4842 62.7247 52.962 61.6139 51.8101C60.5032 50.6994 58.9399 50 57.212 50C55.4842 50 53.9209 50.6582 52.8101 51.8101C51.6994 52.9209 51 54.4842 51 56.212C51 57.9399 51.6582 59.5032 52.769 60.6139C53.8797 61.7247 55.443 62.4241 57.1709 62.4241C57.8291 62.4241 58.4873 62.3006 59.1044 62.0949C59.5981 62.5063 60.1741 62.7943 60.7911 62.9177C61.038 62.9589 61.3259 63 61.5728 63C63.0538 63 64.4114 62.1361 65.0285 60.7373C65.1519 60.5316 65.1108 60.2848 64.9462 60.1203ZM61.3671 58.0633C61.4494 57.4051 61.8196 56.8291 62.3956 56.5C62.6013 56.3766 62.7247 56.1297 62.6835 55.8829C62.6424 55.6361 62.4367 55.4715 62.1899 55.3892C61.7373 55.307 61.2437 55.307 60.75 55.4304C59.269 55.7595 58.1171 56.9114 57.788 58.3513C57.5823 59.3797 57.7468 60.4082 58.3228 61.2722C58.4051 61.3956 58.5285 61.5601 58.6108 61.6835C58.1994 61.807 57.8291 61.8481 57.4177 61.8892V61.0665C57.4177 60.9019 57.2943 60.7785 57.1297 60.7785C56.9652 60.7785 56.8418 60.9019 56.8418 61.0665V61.8892C55.5665 61.807 54.3323 61.2722 53.3861 60.4082L53.962 59.8323C54.0854 59.7089 54.0854 59.5443 53.962 59.4209C53.8386 59.2975 53.6741 59.2975 53.5506 59.4209L52.9747 59.9968C52.1108 59.0506 51.5759 57.8165 51.5348 56.5H52.3576C52.5222 56.5 52.6456 56.3766 52.6456 56.212C52.6456 56.0475 52.5222 55.9241 52.3576 55.9241H51.5348C51.6171 54.5665 52.1519 53.3323 52.9747 52.4272L53.5506 53.0032C53.5918 53.0443 53.6741 53.0854 53.7563 53.0854C53.8386 53.0854 53.9209 53.0443 53.962 53.0032C54.0854 52.8797 54.0854 52.7152 53.962 52.5918L53.3861 52.0158C54.3323 51.1519 55.5665 50.6171 56.8829 50.5759V51.3987C56.8829 51.5633 57.0063 51.6867 57.1709 51.6867C57.3354 51.6867 57.4589 51.5633 57.4589 51.3987V50.5759C58.8165 50.6582 60.0506 51.193 60.9557 52.0158L60.3797 52.5918C60.2563 52.7152 60.2563 52.8797 60.3797 53.0032C60.4209 53.0443 60.5032 53.0854 60.5854 53.0854C60.6677 53.0854 60.75 53.0443 60.7911 53.0032L61.3671 52.4272C62.2722 53.4146 62.8481 54.7722 62.8481 56.212C62.8481 57.4051 62.4778 58.5158 61.8196 59.462C61.4905 59.0918 61.3259 58.5981 61.3671 58.0633ZM57.4589 53.0854V56.6646C57.4589 56.788 57.3766 56.8703 57.2532 56.9114L53.8386 58.1456C53.7975 58.1456 53.7563 58.1456 53.7563 58.1456C53.6329 58.1456 53.5506 58.0633 53.5095 57.9399C53.4684 57.7753 53.5506 57.6108 53.6741 57.5696L56.8829 56.4177V53.0854C56.8829 52.9209 57.0063 52.7975 57.1709 52.7975C57.3354 52.7975 57.4589 52.962 57.4589 53.0854Z"/>
</mask>
<path d="M64.9462 60.1203C64.7816 59.9557 64.4937 59.9146 64.288 60.038C63.7943 60.2848 63.2184 60.3259 62.6835 60.1203C62.519 60.0791 62.3956 59.9968 62.231 59.8734C63.0127 58.8038 63.4241 57.5285 63.4241 56.212C63.4241 54.4842 62.7247 52.962 61.6139 51.8101C60.5032 50.6994 58.9399 50 57.212 50C55.4842 50 53.9209 50.6582 52.8101 51.8101C51.6994 52.9209 51 54.4842 51 56.212C51 57.9399 51.6582 59.5032 52.769 60.6139C53.8797 61.7247 55.443 62.4241 57.1709 62.4241C57.8291 62.4241 58.4873 62.3006 59.1044 62.0949C59.5981 62.5063 60.1741 62.7943 60.7911 62.9177C61.038 62.9589 61.3259 63 61.5728 63C63.0538 63 64.4114 62.1361 65.0285 60.7373C65.1519 60.5316 65.1108 60.2848 64.9462 60.1203ZM61.3671 58.0633C61.4494 57.4051 61.8196 56.8291 62.3956 56.5C62.6013 56.3766 62.7247 56.1297 62.6835 55.8829C62.6424 55.6361 62.4367 55.4715 62.1899 55.3892C61.7373 55.307 61.2437 55.307 60.75 55.4304C59.269 55.7595 58.1171 56.9114 57.788 58.3513C57.5823 59.3797 57.7468 60.4082 58.3228 61.2722C58.4051 61.3956 58.5285 61.5601 58.6108 61.6835C58.1994 61.807 57.8291 61.8481 57.4177 61.8892V61.0665C57.4177 60.9019 57.2943 60.7785 57.1297 60.7785C56.9652 60.7785 56.8418 60.9019 56.8418 61.0665V61.8892C55.5665 61.807 54.3323 61.2722 53.3861 60.4082L53.962 59.8323C54.0854 59.7089 54.0854 59.5443 53.962 59.4209C53.8386 59.2975 53.6741 59.2975 53.5506 59.4209L52.9747 59.9968C52.1108 59.0506 51.5759 57.8165 51.5348 56.5H52.3576C52.5222 56.5 52.6456 56.3766 52.6456 56.212C52.6456 56.0475 52.5222 55.9241 52.3576 55.9241H51.5348C51.6171 54.5665 52.1519 53.3323 52.9747 52.4272L53.5506 53.0032C53.5918 53.0443 53.6741 53.0854 53.7563 53.0854C53.8386 53.0854 53.9209 53.0443 53.962 53.0032C54.0854 52.8797 54.0854 52.7152 53.962 52.5918L53.3861 52.0158C54.3323 51.1519 55.5665 50.6171 56.8829 50.5759V51.3987C56.8829 51.5633 57.0063 51.6867 57.1709 51.6867C57.3354 51.6867 57.4589 51.5633 57.4589 51.3987V50.5759C58.8165 50.6582 60.0506 51.193 60.9557 52.0158L60.3797 52.5918C60.2563 52.7152 60.2563 52.8797 60.3797 53.0032C60.4209 53.0443 60.5032 53.0854 60.5854 53.0854C60.6677 53.0854 60.75 53.0443 60.7911 53.0032L61.3671 52.4272C62.2722 53.4146 62.8481 54.7722 62.8481 56.212C62.8481 57.4051 62.4778 58.5158 61.8196 59.462C61.4905 59.0918 61.3259 58.5981 61.3671 58.0633ZM57.4589 53.0854V56.6646C57.4589 56.788 57.3766 56.8703 57.2532 56.9114L53.8386 58.1456C53.7975 58.1456 53.7563 58.1456 53.7563 58.1456C53.6329 58.1456 53.5506 58.0633 53.5095 57.9399C53.4684 57.7753 53.5506 57.6108 53.6741 57.5696L56.8829 56.4177V53.0854C56.8829 52.9209 57.0063 52.7975 57.1709 52.7975C57.3354 52.7975 57.4589 52.962 57.4589 53.0854Z" fill="#0D313B"/>
<path d="M64.9462 60.1203C64.7816 59.9557 64.4937 59.9146 64.288 60.038C63.7943 60.2848 63.2184 60.3259 62.6835 60.1203C62.519 60.0791 62.3956 59.9968 62.231 59.8734C63.0127 58.8038 63.4241 57.5285 63.4241 56.212C63.4241 54.4842 62.7247 52.962 61.6139 51.8101C60.5032 50.6994 58.9399 50 57.212 50C55.4842 50 53.9209 50.6582 52.8101 51.8101C51.6994 52.9209 51 54.4842 51 56.212C51 57.9399 51.6582 59.5032 52.769 60.6139C53.8797 61.7247 55.443 62.4241 57.1709 62.4241C57.8291 62.4241 58.4873 62.3006 59.1044 62.0949C59.5981 62.5063 60.1741 62.7943 60.7911 62.9177C61.038 62.9589 61.3259 63 61.5728 63C63.0538 63 64.4114 62.1361 65.0285 60.7373C65.1519 60.5316 65.1108 60.2848 64.9462 60.1203ZM61.3671 58.0633C61.4494 57.4051 61.8196 56.8291 62.3956 56.5C62.6013 56.3766 62.7247 56.1297 62.6835 55.8829C62.6424 55.6361 62.4367 55.4715 62.1899 55.3892C61.7373 55.307 61.2437 55.307 60.75 55.4304C59.269 55.7595 58.1171 56.9114 57.788 58.3513C57.5823 59.3797 57.7468 60.4082 58.3228 61.2722C58.4051 61.3956 58.5285 61.5601 58.6108 61.6835C58.1994 61.807 57.8291 61.8481 57.4177 61.8892V61.0665C57.4177 60.9019 57.2943 60.7785 57.1297 60.7785C56.9652 60.7785 56.8418 60.9019 56.8418 61.0665V61.8892C55.5665 61.807 54.3323 61.2722 53.3861 60.4082L53.962 59.8323C54.0854 59.7089 54.0854 59.5443 53.962 59.4209C53.8386 59.2975 53.6741 59.2975 53.5506 59.4209L52.9747 59.9968C52.1108 59.0506 51.5759 57.8165 51.5348 56.5H52.3576C52.5222 56.5 52.6456 56.3766 52.6456 56.212C52.6456 56.0475 52.5222 55.9241 52.3576 55.9241H51.5348C51.6171 54.5665 52.1519 53.3323 52.9747 52.4272L53.5506 53.0032C53.5918 53.0443 53.6741 53.0854 53.7563 53.0854C53.8386 53.0854 53.9209 53.0443 53.962 53.0032C54.0854 52.8797 54.0854 52.7152 53.962 52.5918L53.3861 52.0158C54.3323 51.1519 55.5665 50.6171 56.8829 50.5759V51.3987C56.8829 51.5633 57.0063 51.6867 57.1709 51.6867C57.3354 51.6867 57.4589 51.5633 57.4589 51.3987V50.5759C58.8165 50.6582 60.0506 51.193 60.9557 52.0158L60.3797 52.5918C60.2563 52.7152 60.2563 52.8797 60.3797 53.0032C60.4209 53.0443 60.5032 53.0854 60.5854 53.0854C60.6677 53.0854 60.75 53.0443 60.7911 53.0032L61.3671 52.4272C62.2722 53.4146 62.8481 54.7722 62.8481 56.212C62.8481 57.4051 62.4778 58.5158 61.8196 59.462C61.4905 59.0918 61.3259 58.5981 61.3671 58.0633ZM57.4589 53.0854V56.6646C57.4589 56.788 57.3766 56.8703 57.2532 56.9114L53.8386 58.1456C53.7975 58.1456 53.7563 58.1456 53.7563 58.1456C53.6329 58.1456 53.5506 58.0633 53.5095 57.9399C53.4684 57.7753 53.5506 57.6108 53.6741 57.5696L56.8829 56.4177V53.0854C56.8829 52.9209 57.0063 52.7975 57.1709 52.7975C57.3354 52.7975 57.4589 52.962 57.4589 53.0854Z" stroke="#0D313B" stroke-width="0.6" mask="url(#path-9-outside-2_6295_46114)"/>
<mask id="path-10-outside-3_6295_46114" maskUnits="userSpaceOnUse" x="57.3022" y="54.9653" width="8" height="8" fill="black">
<rect fill="white" x="57.3022" y="54.9653" width="8" height="8"/>
<path d="M61.5728 62.4653C61.3671 62.4653 61.1203 62.4242 60.9146 62.3831C60.6678 62.3419 60.4209 62.2596 60.1741 62.1362C59.8038 61.9717 59.5159 61.7248 59.2279 61.4369L59.0633 61.2723C58.981 61.19 58.8988 61.0666 58.8165 60.9843C58.5697 60.6552 58.4051 60.2438 58.364 59.8324C58.2817 59.421 58.2817 58.9685 58.364 58.516C58.6108 57.3229 59.5981 56.3356 60.8734 56.0476C61.1203 56.0065 61.3671 55.9653 61.614 55.9653C61.7785 55.9653 61.9431 55.9653 62.1076 56.0065C61.3671 56.459 60.8734 57.1995 60.7912 58.0634C60.75 58.3925 60.7912 58.7217 60.8734 59.0508C60.9557 59.2565 61.0791 59.5856 61.326 59.8736C61.4905 60.0793 61.6551 60.2438 61.8608 60.3672C62.1076 60.5318 62.3133 60.6141 62.4367 60.6552C62.5602 60.6963 62.8893 60.8198 63.3418 60.8198C63.4652 60.8198 63.5475 60.8198 63.6709 60.7786C63.9589 60.7375 64.2469 60.6552 64.4937 60.5318C64.0412 61.7248 62.8481 62.4653 61.5728 62.4653Z"/>
</mask>
<path d="M61.5728 62.4653C61.3671 62.4653 61.1203 62.4242 60.9146 62.3831C60.6678 62.3419 60.4209 62.2596 60.1741 62.1362C59.8038 61.9717 59.5159 61.7248 59.2279 61.4369L59.0633 61.2723C58.981 61.19 58.8988 61.0666 58.8165 60.9843C58.5697 60.6552 58.4051 60.2438 58.364 59.8324C58.2817 59.421 58.2817 58.9685 58.364 58.516C58.6108 57.3229 59.5981 56.3356 60.8734 56.0476C61.1203 56.0065 61.3671 55.9653 61.614 55.9653C61.7785 55.9653 61.9431 55.9653 62.1076 56.0065C61.3671 56.459 60.8734 57.1995 60.7912 58.0634C60.75 58.3925 60.7912 58.7217 60.8734 59.0508C60.9557 59.2565 61.0791 59.5856 61.326 59.8736C61.4905 60.0793 61.6551 60.2438 61.8608 60.3672C62.1076 60.5318 62.3133 60.6141 62.4367 60.6552C62.5602 60.6963 62.8893 60.8198 63.3418 60.8198C63.4652 60.8198 63.5475 60.8198 63.6709 60.7786C63.9589 60.7375 64.2469 60.6552 64.4937 60.5318C64.0412 61.7248 62.8481 62.4653 61.5728 62.4653Z" fill="#2894B4"/>
<path d="M61.5728 62.4653C61.3671 62.4653 61.1203 62.4242 60.9146 62.3831C60.6678 62.3419 60.4209 62.2596 60.1741 62.1362C59.8038 61.9717 59.5159 61.7248 59.2279 61.4369L59.0633 61.2723C58.981 61.19 58.8988 61.0666 58.8165 60.9843C58.5697 60.6552 58.4051 60.2438 58.364 59.8324C58.2817 59.421 58.2817 58.9685 58.364 58.516C58.6108 57.3229 59.5981 56.3356 60.8734 56.0476C61.1203 56.0065 61.3671 55.9653 61.614 55.9653C61.7785 55.9653 61.9431 55.9653 62.1076 56.0065C61.3671 56.459 60.8734 57.1995 60.7912 58.0634C60.75 58.3925 60.7912 58.7217 60.8734 59.0508C60.9557 59.2565 61.0791 59.5856 61.326 59.8736C61.4905 60.0793 61.6551 60.2438 61.8608 60.3672C62.1076 60.5318 62.3133 60.6141 62.4367 60.6552C62.5602 60.6963 62.8893 60.8198 63.3418 60.8198C63.4652 60.8198 63.5475 60.8198 63.6709 60.7786C63.9589 60.7375 64.2469 60.6552 64.4937 60.5318C64.0412 61.7248 62.8481 62.4653 61.5728 62.4653Z" stroke="#0D313B" stroke-width="0.6" mask="url(#path-10-outside-3_6295_46114)"/>
</svg>
