<svg width="72" height="72" viewBox="0 0 72 72" fill="none" xmlns="http://www.w3.org/2000/svg">
<mask id="path-1-outside-1_6295_46239" maskUnits="userSpaceOnUse" x="3" y="7" width="60" height="56" fill="black">
<rect fill="white" x="3" y="7" width="60" height="56"/>
<path d="M61.467 49.7017C60.789 49.0237 59.6023 48.8542 58.7547 49.3627C56.7205 50.3798 54.3472 50.5493 52.1435 49.7017C51.4654 49.5322 50.9568 49.1932 50.2788 48.6846C53.4996 44.2771 55.1948 39.022 55.1948 33.5974C55.1948 26.4776 52.313 20.2054 47.736 15.4588C43.159 10.8818 36.7172 8 29.5974 8C22.4776 8 16.0359 10.7123 11.4588 15.4588C6.88183 20.0359 4 26.4776 4 33.5974C4 40.7172 6.71231 47.159 11.2893 51.736C15.8663 56.313 22.3081 59.1948 29.4279 59.1948C32.1402 59.1948 34.8525 58.6863 37.3953 57.8387C39.4295 59.5339 41.8028 60.7205 44.3456 61.2291C45.3627 61.3986 46.5493 61.5681 47.5665 61.5681C53.6691 61.5681 59.2633 58.0082 61.8061 52.2445C62.3146 51.3969 62.1451 50.3798 61.467 49.7017ZM46.7189 41.2258C47.0579 38.5135 48.5836 36.1402 50.9568 34.7841C51.8044 34.2755 52.313 33.2584 52.1435 32.2413C51.974 31.2241 51.1264 30.5461 50.1092 30.207C48.2445 29.868 46.2103 29.868 44.1761 30.3765C38.0734 31.7327 33.3268 36.4792 31.9707 42.4124C31.1231 46.6504 31.8012 50.8884 34.1744 54.4483C34.5135 54.9568 35.022 55.6349 35.3611 56.1435C33.6659 56.652 32.1402 56.8216 30.445 56.9911V53.6007C30.445 52.9226 29.9365 52.4141 29.2584 52.4141C28.5803 52.4141 28.0717 52.9226 28.0717 53.6007V56.9911C22.8166 56.652 17.7311 54.4483 13.8321 50.8884L16.2054 48.5151C16.7139 48.0066 16.7139 47.3285 16.2054 46.8199C15.6968 46.3114 15.0188 46.3114 14.5102 46.8199L12.1369 49.1932C8.57702 45.2942 6.37327 40.2087 6.20375 34.7841H9.59414C10.2722 34.7841 10.7808 34.2755 10.7808 33.5974C10.7808 32.9193 10.2722 32.4108 9.59414 32.4108H6.20375C6.54279 26.8166 8.74654 21.7311 12.1369 18.0016L14.5102 20.3749C14.6797 20.5444 15.0188 20.7139 15.3578 20.7139C15.6968 20.7139 16.0359 20.5444 16.2054 20.3749C16.7139 19.8664 16.7139 19.1883 16.2054 18.6797L13.8321 16.3064C17.7311 12.7465 22.8166 10.5428 28.2413 10.3733V13.7637C28.2413 14.4417 28.7498 14.9503 29.4279 14.9503C30.106 14.9503 30.6145 14.4417 30.6145 13.7637V10.3733C36.2087 10.7123 41.2942 12.9161 45.0237 16.3064L42.6504 18.6797C42.1418 19.1883 42.1418 19.8664 42.6504 20.3749C42.8199 20.5444 43.159 20.7139 43.498 20.7139C43.837 20.7139 44.1761 20.5444 44.3456 20.3749L46.7189 18.0016C50.4483 22.0701 52.8216 27.6642 52.8216 33.5974C52.8216 38.5135 51.2959 43.0905 48.5836 46.9894C47.2274 45.4638 46.5493 43.4295 46.7189 41.2258ZM30.6145 20.7139V35.4621C30.6145 35.9707 30.2755 36.3097 29.7669 36.4792L15.6968 41.5648C15.5273 41.5648 15.3578 41.5648 15.3578 41.5648C14.8492 41.5648 14.5102 41.2258 14.3407 40.7172C14.1712 40.0391 14.5102 39.3611 15.0188 39.1916L28.2413 34.445V20.7139C28.2413 20.0359 28.7498 19.5273 29.4279 19.5273C30.106 19.5273 30.6145 20.2054 30.6145 20.7139Z"/>
</mask>
<path d="M61.467 49.7017C60.789 49.0237 59.6023 48.8542 58.7547 49.3627C56.7205 50.3798 54.3472 50.5493 52.1435 49.7017C51.4654 49.5322 50.9568 49.1932 50.2788 48.6846C53.4996 44.2771 55.1948 39.022 55.1948 33.5974C55.1948 26.4776 52.313 20.2054 47.736 15.4588C43.159 10.8818 36.7172 8 29.5974 8C22.4776 8 16.0359 10.7123 11.4588 15.4588C6.88183 20.0359 4 26.4776 4 33.5974C4 40.7172 6.71231 47.159 11.2893 51.736C15.8663 56.313 22.3081 59.1948 29.4279 59.1948C32.1402 59.1948 34.8525 58.6863 37.3953 57.8387C39.4295 59.5339 41.8028 60.7205 44.3456 61.2291C45.3627 61.3986 46.5493 61.5681 47.5665 61.5681C53.6691 61.5681 59.2633 58.0082 61.8061 52.2445C62.3146 51.3969 62.1451 50.3798 61.467 49.7017ZM46.7189 41.2258C47.0579 38.5135 48.5836 36.1402 50.9568 34.7841C51.8044 34.2755 52.313 33.2584 52.1435 32.2413C51.974 31.2241 51.1264 30.5461 50.1092 30.207C48.2445 29.868 46.2103 29.868 44.1761 30.3765C38.0734 31.7327 33.3268 36.4792 31.9707 42.4124C31.1231 46.6504 31.8012 50.8884 34.1744 54.4483C34.5135 54.9568 35.022 55.6349 35.3611 56.1435C33.6659 56.652 32.1402 56.8216 30.445 56.9911V53.6007C30.445 52.9226 29.9365 52.4141 29.2584 52.4141C28.5803 52.4141 28.0717 52.9226 28.0717 53.6007V56.9911C22.8166 56.652 17.7311 54.4483 13.8321 50.8884L16.2054 48.5151C16.7139 48.0066 16.7139 47.3285 16.2054 46.8199C15.6968 46.3114 15.0188 46.3114 14.5102 46.8199L12.1369 49.1932C8.57702 45.2942 6.37327 40.2087 6.20375 34.7841H9.59414C10.2722 34.7841 10.7808 34.2755 10.7808 33.5974C10.7808 32.9193 10.2722 32.4108 9.59414 32.4108H6.20375C6.54279 26.8166 8.74654 21.7311 12.1369 18.0016L14.5102 20.3749C14.6797 20.5444 15.0188 20.7139 15.3578 20.7139C15.6968 20.7139 16.0359 20.5444 16.2054 20.3749C16.7139 19.8664 16.7139 19.1883 16.2054 18.6797L13.8321 16.3064C17.7311 12.7465 22.8166 10.5428 28.2413 10.3733V13.7637C28.2413 14.4417 28.7498 14.9503 29.4279 14.9503C30.106 14.9503 30.6145 14.4417 30.6145 13.7637V10.3733C36.2087 10.7123 41.2942 12.9161 45.0237 16.3064L42.6504 18.6797C42.1418 19.1883 42.1418 19.8664 42.6504 20.3749C42.8199 20.5444 43.159 20.7139 43.498 20.7139C43.837 20.7139 44.1761 20.5444 44.3456 20.3749L46.7189 18.0016C50.4483 22.0701 52.8216 27.6642 52.8216 33.5974C52.8216 38.5135 51.2959 43.0905 48.5836 46.9894C47.2274 45.4638 46.5493 43.4295 46.7189 41.2258ZM30.6145 20.7139V35.4621C30.6145 35.9707 30.2755 36.3097 29.7669 36.4792L15.6968 41.5648C15.5273 41.5648 15.3578 41.5648 15.3578 41.5648C14.8492 41.5648 14.5102 41.2258 14.3407 40.7172C14.1712 40.0391 14.5102 39.3611 15.0188 39.1916L28.2413 34.445V20.7139C28.2413 20.0359 28.7498 19.5273 29.4279 19.5273C30.106 19.5273 30.6145 20.2054 30.6145 20.7139Z" fill="#4D0000"/>
<path d="M61.467 49.7017C60.789 49.0237 59.6023 48.8542 58.7547 49.3627C56.7205 50.3798 54.3472 50.5493 52.1435 49.7017C51.4654 49.5322 50.9568 49.1932 50.2788 48.6846C53.4996 44.2771 55.1948 39.022 55.1948 33.5974C55.1948 26.4776 52.313 20.2054 47.736 15.4588C43.159 10.8818 36.7172 8 29.5974 8C22.4776 8 16.0359 10.7123 11.4588 15.4588C6.88183 20.0359 4 26.4776 4 33.5974C4 40.7172 6.71231 47.159 11.2893 51.736C15.8663 56.313 22.3081 59.1948 29.4279 59.1948C32.1402 59.1948 34.8525 58.6863 37.3953 57.8387C39.4295 59.5339 41.8028 60.7205 44.3456 61.2291C45.3627 61.3986 46.5493 61.5681 47.5665 61.5681C53.6691 61.5681 59.2633 58.0082 61.8061 52.2445C62.3146 51.3969 62.1451 50.3798 61.467 49.7017ZM46.7189 41.2258C47.0579 38.5135 48.5836 36.1402 50.9568 34.7841C51.8044 34.2755 52.313 33.2584 52.1435 32.2413C51.974 31.2241 51.1264 30.5461 50.1092 30.207C48.2445 29.868 46.2103 29.868 44.1761 30.3765C38.0734 31.7327 33.3268 36.4792 31.9707 42.4124C31.1231 46.6504 31.8012 50.8884 34.1744 54.4483C34.5135 54.9568 35.022 55.6349 35.3611 56.1435C33.6659 56.652 32.1402 56.8216 30.445 56.9911V53.6007C30.445 52.9226 29.9365 52.4141 29.2584 52.4141C28.5803 52.4141 28.0717 52.9226 28.0717 53.6007V56.9911C22.8166 56.652 17.7311 54.4483 13.8321 50.8884L16.2054 48.5151C16.7139 48.0066 16.7139 47.3285 16.2054 46.8199C15.6968 46.3114 15.0188 46.3114 14.5102 46.8199L12.1369 49.1932C8.57702 45.2942 6.37327 40.2087 6.20375 34.7841H9.59414C10.2722 34.7841 10.7808 34.2755 10.7808 33.5974C10.7808 32.9193 10.2722 32.4108 9.59414 32.4108H6.20375C6.54279 26.8166 8.74654 21.7311 12.1369 18.0016L14.5102 20.3749C14.6797 20.5444 15.0188 20.7139 15.3578 20.7139C15.6968 20.7139 16.0359 20.5444 16.2054 20.3749C16.7139 19.8664 16.7139 19.1883 16.2054 18.6797L13.8321 16.3064C17.7311 12.7465 22.8166 10.5428 28.2413 10.3733V13.7637C28.2413 14.4417 28.7498 14.9503 29.4279 14.9503C30.106 14.9503 30.6145 14.4417 30.6145 13.7637V10.3733C36.2087 10.7123 41.2942 12.9161 45.0237 16.3064L42.6504 18.6797C42.1418 19.1883 42.1418 19.8664 42.6504 20.3749C42.8199 20.5444 43.159 20.7139 43.498 20.7139C43.837 20.7139 44.1761 20.5444 44.3456 20.3749L46.7189 18.0016C50.4483 22.0701 52.8216 27.6642 52.8216 33.5974C52.8216 38.5135 51.2959 43.0905 48.5836 46.9894C47.2274 45.4638 46.5493 43.4295 46.7189 41.2258ZM30.6145 20.7139V35.4621C30.6145 35.9707 30.2755 36.3097 29.7669 36.4792L15.6968 41.5648C15.5273 41.5648 15.3578 41.5648 15.3578 41.5648C14.8492 41.5648 14.5102 41.2258 14.3407 40.7172C14.1712 40.0391 14.5102 39.3611 15.0188 39.1916L28.2413 34.445V20.7139C28.2413 20.0359 28.7498 19.5273 29.4279 19.5273C30.106 19.5273 30.6145 20.2054 30.6145 20.7139Z" stroke="#4D0000" mask="url(#path-1-outside-1_6295_46239)"/>
<circle cx="49.3219" cy="45.1171" r="17.6781" fill="#E60000" stroke="#4D0000" stroke-width="2"/>
<path d="M54.7741 39.9339C54.0458 40.1621 53.524 41.0426 53.6653 41.8144C53.7958 42.4992 54.448 43.0862 55.0893 43.0862C55.2415 43.0862 55.3611 43.1188 55.3611 43.1732C55.3611 43.2166 54.5023 44.108 53.4588 45.1515L51.5565 47.0538L48.9151 44.4124C46.0563 41.5644 45.8932 41.4448 45.0671 41.6622C44.7301 41.7601 44.0344 42.4014 41.3713 45.0646C38.5668 47.8799 38.0885 48.4125 38.0233 48.7604C37.8276 49.8257 38.5342 50.6953 39.5994 50.6953C39.8495 50.6953 40.1538 50.6409 40.2843 50.5757C40.4147 50.5105 41.6321 49.3474 43.0018 47.9995L45.4693 45.532L48.0564 48.1082C49.4695 49.5213 50.7413 50.7279 50.8717 50.7931C51.1761 50.9453 51.937 50.9453 52.2413 50.7931C52.3718 50.7279 53.6545 49.4996 55.1002 48.0647L57.7199 45.4559L57.7851 45.8907C58.0351 47.4016 60.1222 47.7169 60.8287 46.3472C61.0026 46.0103 61.0135 45.6842 60.9918 43.4449C60.9592 40.673 60.9483 40.6622 60.2091 40.1078C59.9265 39.8904 59.7526 39.8795 57.5025 39.8578C56.1763 39.8469 54.948 39.8795 54.7741 39.9339Z" fill="#4D0000"/>
</svg>
