<svg width="72" height="72" viewBox="0 0 72 72" fill="none" xmlns="http://www.w3.org/2000/svg">
<path d="M67.3008 49.9351C66.5539 49.1882 65.2468 49.0015 64.3132 49.5617C62.0724 50.682 59.4582 50.8688 57.0308 49.9351C56.2839 49.7484 55.7237 49.3749 54.9768 48.8147C58.5246 43.9598 60.3919 38.1712 60.3919 32.1959C60.3919 24.3534 57.2175 17.4444 52.1759 12.216C47.1342 7.17438 40.0385 4 32.1959 4C24.3534 4 17.2577 6.98765 12.216 12.216C7.17438 17.2577 4 24.3534 4 32.1959C4 40.0385 6.98765 47.1342 12.0293 52.1758C17.071 57.2175 24.1666 60.3919 32.0092 60.3919C34.9969 60.3919 37.9845 59.8317 40.7854 58.8981C43.0262 60.7653 45.6404 62.0724 48.4413 62.6326C49.5617 62.8194 50.8688 63.0061 51.9891 63.0061C58.7113 63.0061 64.8734 59.0848 67.6743 52.736C68.2345 51.8024 68.0477 50.682 67.3008 49.9351ZM51.0555 40.5987C51.4289 37.6111 53.1095 34.9969 55.7237 33.503C56.6573 32.9429 57.2175 31.8225 57.0308 30.7021C56.8441 29.5818 55.9104 28.8348 54.79 28.4614C52.736 28.0879 50.4953 28.0879 48.2546 28.6481C41.5324 30.1419 36.304 35.3703 34.8101 41.9058C33.8765 46.574 34.6234 51.2422 37.2376 55.1635C37.6111 55.7237 38.1712 56.4706 38.5447 57.0308C36.6774 57.591 34.9969 57.7777 33.1296 57.9644V54.2299C33.1296 53.4829 32.5694 52.9228 31.8225 52.9228C31.0756 52.9228 30.5154 53.4829 30.5154 54.2299V57.9644C24.7268 57.591 19.125 55.1635 14.8302 51.2422L17.4444 48.628C18.0046 48.0678 18.0046 47.3209 17.4444 46.7607C16.8842 46.2006 16.1373 46.2006 15.5771 46.7607L12.9629 49.3749C9.04166 45.0802 6.61419 39.4783 6.42747 33.503H10.162C10.9089 33.503 11.4691 32.9429 11.4691 32.1959C11.4691 31.449 10.9089 30.8888 10.162 30.8888H6.42747C6.80092 24.7268 9.22839 19.125 12.9629 15.017L15.5771 17.6312C15.7639 17.8179 16.1373 18.0046 16.5108 18.0046C16.8842 18.0046 17.2577 17.8179 17.4444 17.6312C18.0046 17.071 18.0046 16.3241 17.4444 15.7639L14.8302 13.1497C19.125 9.22839 24.7268 6.80092 30.7021 6.61419V10.3488C30.7021 11.0957 31.2623 11.6559 32.0092 11.6559C32.7561 11.6559 33.3163 11.0957 33.3163 10.3488V6.61419C39.4783 6.98765 45.0802 9.41512 49.1882 13.1497L46.574 15.7639C46.0138 16.3241 46.0138 17.071 46.574 17.6312C46.7607 17.8179 47.1342 18.0046 47.5077 18.0046C47.8811 18.0046 48.2546 17.8179 48.4413 17.6312L51.0555 15.017C55.1635 19.4984 57.7777 25.6605 57.7777 32.1959C57.7777 37.6111 56.0971 42.6527 53.1095 46.9475C51.6157 45.2669 50.8688 43.0262 51.0555 40.5987ZM33.3163 18.0046V34.25C33.3163 34.8101 32.9429 35.1836 32.3827 35.3703L16.8842 40.9722C16.6975 40.9722 16.5108 40.9722 16.5108 40.9722C15.9506 40.9722 15.5771 40.5987 15.3904 40.0385C15.2037 39.2916 15.5771 38.5447 16.1373 38.358L30.7021 33.1296V18.0046C30.7021 17.2577 31.2623 16.6975 32.0092 16.6975C32.7561 16.6975 33.3163 17.4444 33.3163 18.0046Z" fill="#0B2D1F"/>
<path d="M51.9893 60.5792C51.0557 60.5792 49.9353 60.3925 49.0016 60.2058C47.8813 60.019 46.7609 59.6456 45.6405 59.0854C43.96 58.3385 42.6529 57.2181 41.3458 55.911L40.5989 55.1641C40.2254 54.7906 39.852 54.2305 39.4785 53.857C38.3581 52.3632 37.6112 50.4959 37.4245 48.6286C37.051 46.7613 37.051 44.7073 37.4245 42.6533C38.5449 37.2382 43.0263 32.7567 48.8149 31.4496C49.9353 31.2629 51.0557 31.0762 52.176 31.0762C52.9229 31.0762 53.6698 31.0762 54.4168 31.2629C51.0557 33.3169 48.8149 36.678 48.4415 40.5993C48.2547 42.0931 48.4415 43.587 48.8149 45.0808C49.1884 46.0144 49.7486 47.5082 50.8689 48.8153C51.6158 49.749 52.3628 50.4959 53.2964 51.0561C54.4168 51.803 55.3504 52.1764 55.9106 52.3632C56.4708 52.5499 57.9646 53.1101 60.0186 53.1101C60.5788 53.1101 60.9522 53.1101 61.5124 52.9234C62.8195 52.7366 64.1266 52.3632 65.247 51.803C63.193 57.2181 57.7779 60.5792 51.9893 60.5792Z" fill="#22885E"/>
<circle cx="36.0746" cy="58.0746" r="8.07463" fill="#62C89E" stroke="#0B2D1F" stroke-width="2"/>
<path d="M35.8017 52.8874C35.6268 52.9407 35.364 53.0898 35.2108 53.2283C34.6965 53.6968 34.6418 53.9843 34.6418 56.4756C34.6418 59.0735 34.6965 59.3291 35.3968 59.7761C36.1737 60.2872 37.3008 59.9891 37.7387 59.1694C37.9136 58.8393 37.9247 58.5199 37.9029 56.3264C37.8699 54.0269 37.859 53.8457 37.6402 53.569C37.1697 52.9515 36.4692 52.6854 35.8017 52.8874Z" fill="#0B2D1F"/>
<path d="M35.7365 61.2033C34.8065 61.5653 34.3906 62.5979 34.8502 63.4284C35.463 64.5679 37.1481 64.5679 37.7281 63.4284C38.3847 62.1614 37.0606 60.6923 35.7365 61.2033Z" fill="#0B2D1F"/>
</svg>
