<svg width="72" height="72" viewBox="0 0 72 72" fill="none" xmlns="http://www.w3.org/2000/svg">
<path d="M22.7608 4.25006C21.2855 4.78769 20.1727 5.78793 19.46 7.23827L19.0599 8.06347L18.9974 21.1916L18.9349 34.3072L17.8847 34.4697C16.6219 34.6698 14.6089 35.3199 13.3461 35.9576C8.56995 38.3457 5.09413 42.9843 4.19391 48.198C3.94385 49.6483 3.93135 52.474 4.18141 54.0119C5.31918 60.976 11.1081 66.7399 18.0722 67.8277C19.16 68.0027 21.9231 68.0152 41.5028 67.9902L63.6955 67.9527L64.5708 67.5276C65.721 66.965 66.7088 65.9772 67.2714 64.827L67.6965 63.9517L67.734 40.9463C67.7465 28.2933 67.734 17.8033 67.6965 17.6282C67.609 17.3032 55.4936 5.03775 54.5809 4.36259L54.0933 4H38.7646C23.9486 4.0125 23.411 4.0125 22.7608 4.25006ZM51.5051 13.4022C51.5051 18.741 51.5177 19.0911 51.7427 19.4287C51.8677 19.6162 52.1428 19.8913 52.3303 20.0163C52.6679 20.2414 53.018 20.2539 58.3568 20.2539H64.0081L63.9831 41.5339L63.9456 62.8265L63.6705 63.2641C63.5205 63.5016 63.2079 63.8142 62.9829 63.9517C62.5828 64.2018 62.3202 64.2018 47.1041 64.2393L31.6504 64.2643L32.6507 63.3016C35.0762 60.9385 36.8392 57.7503 37.4393 54.612C37.5518 54.0369 37.6644 53.4492 37.7019 53.2867L37.7519 53.0116H47.7918C57.4066 53.0116 57.8317 52.9991 58.1817 52.7741C58.7569 52.3865 59.0069 51.9114 59.0069 51.1362C59.0069 50.3985 58.7694 49.9109 58.2443 49.5358C57.9692 49.3358 57.069 49.3233 47.8293 49.2608L37.7019 49.1982L37.5393 48.198C37.2268 46.2976 36.3641 43.972 35.3763 42.3716L35.0012 41.759H46.4164C57.3815 41.759 57.8317 41.7465 58.1817 41.5214C58.7569 41.1338 59.0069 40.6587 59.0069 39.8835C59.0069 39.1083 58.7569 38.6332 58.1817 38.2456C57.8317 38.0206 57.344 38.0081 44.7285 38.0081H31.6379L30.7127 37.3454C28.7873 35.9576 26.0366 34.8073 23.8611 34.4697L22.8108 34.3072V21.7542V9.18874L23.0859 8.75113C23.386 8.26351 23.7486 8.00095 24.3112 7.86342C24.5237 7.81341 30.7252 7.7759 38.102 7.7634L51.5051 7.75089V13.4022ZM58.2568 13.5648L61.195 16.503H58.2192H55.256V13.5648C55.256 11.9519 55.2685 10.6266 55.2936 10.6266C55.3061 10.6266 56.6439 11.9519 58.2568 13.5648ZM22.3107 38.1831C24.8113 38.3832 27.6245 39.6585 29.7125 41.5589C31.3879 43.0843 32.9007 45.6099 33.5259 47.8854C33.7759 48.7981 33.8134 49.2483 33.8134 51.1362C33.8134 53.6868 33.6134 54.6495 32.6757 56.625C31.3504 59.4257 29.2249 61.5637 26.4367 62.9015C20.6978 65.6396 13.9337 63.8392 10.1828 58.5755C9.43266 57.5377 8.58246 55.6998 8.21987 54.387C7.96981 53.4618 7.9323 53.0367 7.9323 51.1362C7.9323 48.5981 8.13235 47.6354 9.04507 45.6849C9.78274 44.1345 10.4829 43.1343 11.6707 41.934C13.8837 39.7335 16.7219 38.3957 19.7226 38.1456C20.3227 38.0956 20.9479 38.0706 21.1229 38.0831C21.298 38.1081 21.8356 38.1456 22.3107 38.1831Z" fill="#0B2D1F"/>
<path d="M22.3107 38.1831C24.8113 38.3832 27.6245 39.6585 29.7125 41.5589C31.3879 43.0843 32.9007 45.6099 33.5259 47.8854C33.7759 48.7981 33.8134 49.2483 33.8134 51.1362C33.8134 53.6868 33.6134 54.6495 32.6757 56.625C31.3504 59.4257 29.2249 61.5637 26.4367 62.9015C20.6978 65.6396 13.9337 63.8392 10.1828 58.5755C9.43266 57.5377 8.58246 55.6998 8.21987 54.387C7.96981 53.4618 7.9323 53.0367 7.9323 51.1362C7.9323 48.5981 8.13235 47.6354 9.04507 45.6849C9.78274 44.1345 10.4829 43.1343 11.6707 41.934C13.8837 39.7335 16.7219 38.3957 19.7226 38.1456C20.3227 38.0956 20.9479 38.0706 21.1229 38.0831C21.298 38.1081 21.8356 38.1456 22.3107 38.1831Z" fill="#22885E"/>
<path d="M58.2568 13.5648L61.195 16.503H58.2192H55.256V13.5648C55.256 11.9519 55.2685 10.6266 55.2936 10.6266C55.3061 10.6266 56.6439 11.9519 58.2568 13.5648Z" fill="#62C89E"/>
<path d="M28.5747 26.993C27.9996 27.3806 27.7495 27.8557 27.7495 28.6309C27.7495 29.4061 27.9996 29.8812 28.5747 30.2688C28.9248 30.4938 29.4374 30.5063 43.3782 30.5063C57.319 30.5063 57.8317 30.4938 58.1817 30.2688C58.7569 29.8812 59.0069 29.4061 59.0069 28.6309C59.0069 27.8557 58.7569 27.3806 58.1817 26.993C57.8317 26.768 57.319 26.7555 43.3782 26.7555C29.4374 26.7555 28.9248 26.768 28.5747 26.993Z" fill="#0B2D1F"/>
<path d="M31.3101 56.0127C31.0823 55.7848 30.6835 55.7278 30.3987 55.8987C29.7152 56.2405 28.9177 56.2975 28.1772 56.0127C27.9494 55.9557 27.7785 55.8418 27.5506 55.6709C28.6329 54.1899 29.2025 52.4241 29.2025 50.6013C29.2025 48.2089 28.2342 46.1013 26.6962 44.5063C25.1582 42.9684 22.9937 42 20.6013 42C18.2089 42 16.0443 42.9114 14.5063 44.5063C12.9684 46.0443 12 48.2089 12 50.6013C12 52.9937 12.9114 55.1582 14.4494 56.6962C15.9873 58.2342 18.1519 59.2025 20.5443 59.2025C21.4557 59.2025 22.3671 59.0316 23.2215 58.7468C23.9051 59.3165 24.7025 59.7152 25.557 59.8861C25.8987 59.943 26.2975 60 26.6392 60C28.6899 60 30.5696 58.8038 31.4241 56.8671C31.5949 56.5823 31.538 56.2405 31.3101 56.0127ZM26.3544 53.1646C26.4684 52.2532 26.981 51.4557 27.7785 51C28.0633 50.8291 28.2342 50.4873 28.1772 50.1456C28.1203 49.8038 27.8354 49.5759 27.4937 49.462C26.8671 49.3481 26.1835 49.3481 25.5 49.519C23.4494 49.9747 21.8544 51.5696 21.3987 53.5633C21.1139 54.9873 21.3418 56.4114 22.1392 57.6076C22.2532 57.7785 22.4241 58.0063 22.538 58.1772C21.9684 58.3481 21.4557 58.4051 20.8861 58.462V57.3228C20.8861 57.0949 20.7152 56.9241 20.4873 56.9241C20.2595 56.9241 20.0886 57.0949 20.0886 57.3228V58.462C18.3228 58.3481 16.6139 57.6076 15.3038 56.4114L16.1013 55.6139C16.2722 55.443 16.2722 55.2152 16.1013 55.0443C15.9304 54.8734 15.7025 54.8734 15.5316 55.0443L14.7342 55.8418C13.538 54.5316 12.7975 52.8228 12.7405 51H13.8797C14.1076 51 14.2785 50.8291 14.2785 50.6013C14.2785 50.3734 14.1076 50.2025 13.8797 50.2025H12.7405C12.8544 48.3228 13.5949 46.6139 14.7342 45.3608L15.5316 46.1582C15.5886 46.2152 15.7025 46.2722 15.8165 46.2722C15.9304 46.2722 16.0443 46.2152 16.1013 46.1582C16.2722 45.9873 16.2722 45.7595 16.1013 45.5886L15.3038 44.7911C16.6139 43.5949 18.3228 42.8544 20.1456 42.7975V43.9367C20.1456 44.1646 20.3165 44.3354 20.5443 44.3354C20.7722 44.3354 20.943 44.1646 20.943 43.9367V42.7975C22.8228 42.9114 24.5316 43.6519 25.7848 44.7911L24.9873 45.5886C24.8165 45.7595 24.8165 45.9873 24.9873 46.1582C25.0443 46.2152 25.1582 46.2722 25.2722 46.2722C25.3861 46.2722 25.5 46.2152 25.557 46.1582L26.3544 45.3608C27.6076 46.7278 28.4051 48.6076 28.4051 50.6013C28.4051 52.2532 27.8924 53.7911 26.981 55.1013C26.5253 54.5886 26.2975 53.9051 26.3544 53.1646ZM20.943 46.2722V51.2278C20.943 51.3987 20.8291 51.5127 20.6582 51.5696L15.9304 53.2785C15.8734 53.2785 15.8165 53.2785 15.8165 53.2785C15.6456 53.2785 15.5316 53.1646 15.4747 52.9937C15.4177 52.7658 15.5316 52.538 15.7025 52.481L20.1456 50.8861V46.2722C20.1456 46.0443 20.3165 45.8734 20.5443 45.8734C20.7722 45.8734 20.943 46.1013 20.943 46.2722Z" fill="#0B2D1F"/>
<path d="M26.6393 59.2598C26.3545 59.2598 26.0127 59.2028 25.7279 59.1458C25.3862 59.0889 25.0444 58.975 24.7026 58.8041C24.19 58.5762 23.7912 58.2344 23.3925 57.8357L23.1646 57.6079C23.0507 57.4939 22.9368 57.3231 22.8229 57.2091C22.4811 56.7534 22.2532 56.1838 22.1963 55.6142C22.0824 55.0446 22.0824 54.418 22.1963 53.7914C22.5381 52.1395 23.9051 50.7724 25.671 50.3737C26.0127 50.3167 26.3545 50.2598 26.6963 50.2598C26.9241 50.2598 27.152 50.2598 27.3798 50.3167C26.3545 50.9433 25.671 51.9686 25.557 53.1648C25.5001 53.6205 25.557 54.0762 25.671 54.5319C25.7849 54.8167 25.9558 55.2724 26.2975 55.6712C26.5254 55.956 26.7532 56.1838 27.0381 56.3547C27.3798 56.5826 27.6646 56.6965 27.8355 56.7534C28.0064 56.8104 28.4621 56.9813 29.0887 56.9813C29.2596 56.9813 29.3735 56.9813 29.5444 56.9243C29.9431 56.8674 30.3419 56.7534 30.6836 56.5826C30.057 58.2344 28.4051 59.2598 26.6393 59.2598Z" fill="#62C89E"/>
</svg>
