<svg width="72" height="72" viewBox="0 0 72 72" fill="none" xmlns="http://www.w3.org/2000/svg">
<path d="M22.7608 4.25006C21.2855 4.78769 20.1727 5.78793 19.46 7.23827L19.0599 8.06347L18.9974 21.1916L18.9349 34.3072L17.8847 34.4697C16.6219 34.6698 14.6089 35.3199 13.3461 35.9576C8.56995 38.3457 5.09413 42.9843 4.19391 48.198C3.94385 49.6483 3.93135 52.474 4.18141 54.0119C5.31918 60.976 11.1081 66.7399 18.0722 67.8277C19.16 68.0027 21.9231 68.0152 41.5028 67.9902L63.6955 67.9527L64.5708 67.5276C65.721 66.965 66.7088 65.9772 67.2714 64.827L67.6965 63.9517L67.734 40.9463C67.7465 28.2933 67.734 17.8033 67.6965 17.6282C67.609 17.3032 55.4936 5.03775 54.5809 4.36259L54.0933 4H38.7646C23.9486 4.0125 23.411 4.0125 22.7608 4.25006ZM51.5051 13.4022C51.5051 18.741 51.5177 19.0911 51.7427 19.4287C51.8677 19.6162 52.1428 19.8913 52.3303 20.0163C52.6679 20.2414 53.018 20.2539 58.3568 20.2539H64.0081L63.9831 41.5339L63.9456 62.8265L63.6705 63.2641C63.5205 63.5016 63.2079 63.8142 62.9829 63.9517C62.5828 64.2018 62.3202 64.2018 47.1041 64.2393L31.6504 64.2643L32.6507 63.3016C35.0762 60.9385 36.8392 57.7503 37.4393 54.612C37.5518 54.0369 37.6644 53.4492 37.7019 53.2867L37.7519 53.0116H47.7918C57.4066 53.0116 57.8317 52.9991 58.1817 52.7741C58.7569 52.3865 59.0069 51.9114 59.0069 51.1362C59.0069 50.3985 58.7694 49.9109 58.2443 49.5358C57.9692 49.3358 57.069 49.3233 47.8293 49.2608L37.7019 49.1982L37.5393 48.198C37.2268 46.2976 36.3641 43.972 35.3763 42.3716L35.0012 41.759H46.4164C57.3815 41.759 57.8317 41.7465 58.1817 41.5214C58.7569 41.1338 59.0069 40.6587 59.0069 39.8835C59.0069 39.1083 58.7569 38.6332 58.1817 38.2456C57.8317 38.0206 57.344 38.0081 44.7285 38.0081H31.6379L30.7127 37.3454C28.7873 35.9576 26.0366 34.8073 23.8611 34.4697L22.8108 34.3072V21.7542V9.18874L23.0859 8.75113C23.386 8.26351 23.7486 8.00095 24.3112 7.86342C24.5237 7.81341 30.7252 7.7759 38.102 7.7634L51.5051 7.75089V13.4022ZM58.2568 13.5648L61.195 16.503H58.2192H55.256V13.5648C55.256 11.9519 55.2685 10.6266 55.2936 10.6266C55.3061 10.6266 56.6439 11.9519 58.2568 13.5648ZM22.3107 38.1831C24.8113 38.3832 27.6245 39.6585 29.7125 41.5589C31.3879 43.0843 32.9007 45.6099 33.5259 47.8854C33.7759 48.7981 33.8134 49.2483 33.8134 51.1362C33.8134 53.6868 33.6134 54.6495 32.6757 56.625C31.3504 59.4257 29.2249 61.5637 26.4367 62.9015C20.6978 65.6396 13.9337 63.8392 10.1828 58.5755C9.43266 57.5377 8.58246 55.6998 8.21987 54.387C7.96981 53.4618 7.9323 53.0367 7.9323 51.1362C7.9323 48.5981 8.13235 47.6354 9.04507 45.6849C9.78274 44.1345 10.4829 43.1343 11.6707 41.934C13.8837 39.7335 16.7219 38.3957 19.7226 38.1456C20.3227 38.0956 20.9479 38.0706 21.1229 38.0831C21.298 38.1081 21.8356 38.1456 22.3107 38.1831Z" fill="#0B2D1F"/>
<path d="M22.3107 38.1831C24.8113 38.3832 27.6245 39.6585 29.7125 41.5589C31.3879 43.0843 32.9007 45.6099 33.5259 47.8854C33.7759 48.7981 33.8134 49.2483 33.8134 51.1362C33.8134 53.6868 33.6134 54.6495 32.6757 56.625C31.3504 59.4257 29.2249 61.5637 26.4367 62.9015C20.6978 65.6396 13.9337 63.8392 10.1828 58.5755C9.43266 57.5377 8.58246 55.6998 8.21987 54.387C7.96981 53.4618 7.9323 53.0367 7.9323 51.1362C7.9323 48.5981 8.13235 47.6354 9.04507 45.6849C9.78274 44.1345 10.4829 43.1343 11.6707 41.934C13.8837 39.7335 16.7219 38.3957 19.7226 38.1456C20.3227 38.0956 20.9479 38.0706 21.1229 38.0831C21.298 38.1081 21.8356 38.1456 22.3107 38.1831Z" fill="#22885E"/>
<path d="M58.2568 13.5648L61.195 16.503H58.2192H55.256V13.5648C55.256 11.9519 55.2685 10.6266 55.2936 10.6266C55.3061 10.6266 56.6439 11.9519 58.2568 13.5648Z" fill="#62C89E"/>
<path d="M28.5747 26.993C27.9996 27.3806 27.7495 27.8557 27.7495 28.6309C27.7495 29.4061 27.9996 29.8812 28.5747 30.2688C28.9248 30.4938 29.4374 30.5063 43.3782 30.5063C57.319 30.5063 57.8317 30.4938 58.1817 30.2688C58.7569 29.8812 59.0069 29.4061 59.0069 28.6309C59.0069 27.8557 58.7569 27.3806 58.1817 26.993C57.8317 26.768 57.319 26.7555 43.3782 26.7555C29.4374 26.7555 28.9248 26.768 28.5747 26.993Z" fill="#0B2D1F"/>
<path d="M14.1963 43.8722C13.6211 44.2598 13.3711 44.7349 13.3711 45.5101C13.3711 45.9477 13.4461 46.3228 13.5711 46.5103C13.6837 46.6853 14.7464 47.7981 15.9217 48.9734L18.0597 51.1364L15.9217 53.2869C14.7464 54.4747 13.6837 55.5875 13.5711 55.7625C13.2836 56.2001 13.3086 57.3504 13.6086 57.813C13.9962 58.3881 14.4713 58.6382 15.2465 58.6382C15.6841 58.6382 16.0592 58.5632 16.2468 58.4381C16.4218 58.3256 17.5346 57.2629 18.7224 56.0876L20.8729 53.9496L23.0359 56.0876C24.2112 57.2629 25.3239 58.3256 25.499 58.4381C25.6865 58.5632 26.0616 58.6382 26.4992 58.6382C27.2744 58.6382 27.7495 58.3881 28.1371 57.813C28.4372 57.3504 28.4622 56.2001 28.1746 55.7625C28.0621 55.5875 26.9993 54.4747 25.824 53.2869L23.686 51.1364L25.824 48.9734C26.9993 47.7981 28.0621 46.6853 28.1746 46.5103C28.2996 46.3228 28.3746 45.9477 28.3746 45.5101C28.3746 44.7349 28.1246 44.2598 27.5495 43.8722C27.0868 43.5721 25.9366 43.5471 25.499 43.8347C25.3239 43.9472 24.2112 45.0099 23.0359 46.1852L20.8729 48.3232L18.7224 46.1852C17.5346 45.0099 16.4218 43.9472 16.2468 43.8347C15.8092 43.5471 14.6589 43.5721 14.1963 43.8722Z" fill="#0B2D1F"/>
</svg>
