<svg width="72" height="72" viewBox="0 0 72 72" fill="none" xmlns="http://www.w3.org/2000/svg">
<path fill-rule="evenodd" clip-rule="evenodd" d="M13.8227 40.2666V31.7333L7.42273 26.0444L13.8227 16.0889L20.9338 18.9333L28.7561 14.6666L30.8894 6.1333H41.5561L43.6894 14.6666L50.8005 18.9333L58.6227 16.0889L65.0227 26.0444L58.6227 31.7333V40.2666L65.0227 45.9555L58.6227 55.9111L50.8005 53.0666L43.6894 57.3333L41.5561 65.1555H30.8894L28.7561 57.3333L20.9338 53.0666L13.8227 55.9111L7.42273 45.9555L13.8227 40.2666ZM36.5782 46.6669C42.4692 46.6669 47.2449 41.8912 47.2449 36.0002C47.2449 30.1092 42.4692 25.3335 36.5782 25.3335C30.6872 25.3335 25.9115 30.1092 25.9115 36.0002C25.9115 41.8912 30.6872 46.6669 36.5782 46.6669Z" fill="#2894B4"/>
<path d="M13.8227 31.7333H14.0799V31.6178L13.9936 31.5411L13.8227 31.7333ZM13.8227 40.2666L13.9936 40.4588L14.0799 40.3821V40.2666H13.8227ZM7.42273 26.0444L7.20643 25.9054L7.08745 26.0904L7.25189 26.2366L7.42273 26.0444ZM13.8227 16.0889L13.9182 15.8501L13.7212 15.7713L13.6064 15.9498L13.8227 16.0889ZM20.9338 18.9333L20.8383 19.1721L20.9507 19.217L21.057 19.159L20.9338 18.9333ZM28.7561 14.6666L28.8792 14.8924L28.9782 14.8384L29.0055 14.729L28.7561 14.6666ZM30.8894 6.1333V5.87616H30.6886L30.6399 6.07093L30.8894 6.1333ZM41.5561 6.1333L41.8055 6.07093L41.7568 5.87616H41.5561V6.1333ZM43.6894 14.6666L43.4399 14.729L43.4658 14.8323L43.5571 14.8871L43.6894 14.6666ZM50.8005 18.9333L50.6682 19.1538L50.7733 19.2168L50.8884 19.175L50.8005 18.9333ZM58.6227 16.0889L58.839 15.9498L58.7279 15.777L58.5349 15.8472L58.6227 16.0889ZM65.0227 26.0444L65.1936 26.2366L65.358 26.0904L65.239 25.9054L65.0227 26.0444ZM58.6227 31.7333L58.4519 31.5411L58.3656 31.6178V31.7333H58.6227ZM58.6227 40.2666H58.3656V40.3821L58.4519 40.4588L58.6227 40.2666ZM65.0227 45.9555L65.239 46.0946L65.358 45.9095L65.1936 45.7633L65.0227 45.9555ZM58.6227 55.9111L58.5349 56.1527L58.7279 56.223L58.839 56.0501L58.6227 55.9111ZM50.8005 53.0666L50.8884 52.825L50.7733 52.7831L50.6682 52.8461L50.8005 53.0666ZM43.6894 57.3333L43.5571 57.1128L43.4685 57.166L43.4413 57.2656L43.6894 57.3333ZM41.5561 65.1555V65.4127H41.7525L41.8041 65.2232L41.5561 65.1555ZM30.8894 65.1555L30.6413 65.2232L30.693 65.4127H30.8894V65.1555ZM28.7561 57.3333L29.0041 57.2656L28.9753 57.16L28.8792 57.1076L28.7561 57.3333ZM20.9338 53.0666L21.057 52.8409L20.9507 52.7829L20.8383 52.8279L20.9338 53.0666ZM13.8227 55.9111L13.6064 56.0501L13.7212 56.2286L13.9182 56.1498L13.8227 55.9111ZM7.42273 45.9555L7.25189 45.7633L7.08745 45.9095L7.20643 46.0946L7.42273 45.9555ZM13.5656 31.7333V40.2666H14.0799V31.7333H13.5656ZM7.25189 26.2366L13.6519 31.9255L13.9936 31.5411L7.59357 25.8522L7.25189 26.2366ZM13.6064 15.9498L7.20643 25.9054L7.63903 26.1835L14.039 16.2279L13.6064 15.9498ZM21.0293 18.6945L13.9182 15.8501L13.7272 16.3276L20.8383 19.1721L21.0293 18.6945ZM28.6329 14.4409L20.8107 18.7076L21.057 19.159L28.8792 14.8924L28.6329 14.4409ZM30.6399 6.07093L28.5066 14.6043L29.0055 14.729L31.1389 6.19567L30.6399 6.07093ZM41.5561 5.87616H30.8894V6.39044H41.5561V5.87616ZM43.9389 14.6043L41.8055 6.07093L41.3066 6.19567L43.4399 14.729L43.9389 14.6043ZM50.9328 18.7128L43.8217 14.4461L43.5571 14.8871L50.6682 19.1538L50.9328 18.7128ZM58.5349 15.8472L50.7126 18.6916L50.8884 19.175L58.7106 16.3305L58.5349 15.8472ZM65.239 25.9054L58.839 15.9498L58.4064 16.2279L64.8064 26.1835L65.239 25.9054ZM58.7936 31.9255L65.1936 26.2366L64.8519 25.8522L58.4519 31.5411L58.7936 31.9255ZM58.8799 40.2666V31.7333H58.3656V40.2666H58.8799ZM65.1936 45.7633L58.7936 40.0744L58.4519 40.4588L64.8519 46.1477L65.1936 45.7633ZM58.839 56.0501L65.239 46.0946L64.8064 45.8165L58.4064 55.772L58.839 56.0501ZM50.7126 53.3083L58.5349 56.1527L58.7106 55.6694L50.8884 52.825L50.7126 53.3083ZM43.8217 57.5538L50.9328 53.2871L50.6682 52.8461L43.5571 57.1128L43.8217 57.5538ZM41.8041 65.2232L43.9375 57.401L43.4413 57.2656L41.308 65.0879L41.8041 65.2232ZM30.8894 65.4127H41.5561V64.8984H30.8894V65.4127ZM28.508 57.401L30.6413 65.2232L31.1375 65.0879L29.0041 57.2656L28.508 57.401ZM20.8107 53.2924L28.6329 57.559L28.8792 57.1076L21.057 52.8409L20.8107 53.2924ZM13.9182 56.1498L21.0293 53.3054L20.8383 52.8279L13.7272 55.6723L13.9182 56.1498ZM7.20643 46.0946L13.6064 56.0501L14.039 55.772L7.63903 45.8165L7.20643 46.0946ZM13.6519 40.0744L7.25189 45.7633L7.59357 46.1477L13.9936 40.4588L13.6519 40.0744ZM46.9877 36.0002C46.9877 41.7492 42.3272 46.4097 36.5782 46.4097V46.924C42.6113 46.924 47.502 42.0332 47.502 36.0002H46.9877ZM36.5782 25.5907C42.3272 25.5907 46.9877 30.2512 46.9877 36.0002H47.502C47.502 29.9671 42.6113 25.0764 36.5782 25.0764V25.5907ZM26.1687 36.0002C26.1687 30.2512 30.8292 25.5907 36.5782 25.5907V25.0764C30.5452 25.0764 25.6544 29.9671 25.6544 36.0002H26.1687ZM36.5782 46.4097C30.8292 46.4097 26.1687 41.7492 26.1687 36.0002H25.6544C25.6544 42.0332 30.5452 46.924 36.5782 46.924V46.4097Z" fill="#0D313B"/>
<mask id="path-3-outside-1_6295_46221" maskUnits="userSpaceOnUse" x="22.3099" y="22.2407" width="27" height="27" fill="black">
<rect fill="white" x="22.3099" y="22.2407" width="27" height="27"/>
<path d="M36.0705 23.2407C29.0345 23.2407 23.3099 28.9653 23.3099 36.0013C23.3099 43.0373 29.0345 48.7619 36.0705 48.7619C43.1065 48.7619 48.8311 43.0373 48.8311 36.0013C48.8317 28.9653 43.1071 23.2407 36.0705 23.2407V23.2407ZM36.0705 45.7467C30.6966 45.7467 26.3244 41.3752 26.3244 36.0012C26.3244 30.6278 30.6965 26.2557 36.0705 26.2557C41.4446 26.2557 45.8166 30.6271 45.8166 36.0012C45.8166 41.3752 41.4446 45.7467 36.0705 45.7467Z"/>
</mask>
<path d="M36.0705 23.2407C29.0345 23.2407 23.3099 28.9653 23.3099 36.0013C23.3099 43.0373 29.0345 48.7619 36.0705 48.7619C43.1065 48.7619 48.8311 43.0373 48.8311 36.0013C48.8317 28.9653 43.1071 23.2407 36.0705 23.2407V23.2407ZM36.0705 45.7467C30.6966 45.7467 26.3244 41.3752 26.3244 36.0012C26.3244 30.6278 30.6965 26.2557 36.0705 26.2557C41.4446 26.2557 45.8166 30.6271 45.8166 36.0012C45.8166 41.3752 41.4446 45.7467 36.0705 45.7467Z" fill="#0D313B"/>
<path d="M36.0705 23.2407C29.0345 23.2407 23.3099 28.9653 23.3099 36.0013C23.3099 43.0373 29.0345 48.7619 36.0705 48.7619C43.1065 48.7619 48.8311 43.0373 48.8311 36.0013C48.8317 28.9653 43.1071 23.2407 36.0705 23.2407V23.2407ZM36.0705 45.7467C30.6966 45.7467 26.3244 41.3752 26.3244 36.0012C26.3244 30.6278 30.6965 26.2557 36.0705 26.2557C41.4446 26.2557 45.8166 30.6271 45.8166 36.0012C45.8166 41.3752 41.4446 45.7467 36.0705 45.7467Z" stroke="#0D313B" stroke-width="0.822857" mask="url(#path-3-outside-1_6295_46221)"/>
<mask id="path-4-outside-2_6295_46221" maskUnits="userSpaceOnUse" x="5" y="3" width="62" height="66" fill="black">
<rect fill="white" x="5" y="3" width="62" height="66"/>
<path d="M64.1683 42.7901C64.1661 42.789 64.165 42.7879 64.1639 42.7868L59.6324 39.5194C59.808 38.3474 59.8963 37.1672 59.8963 35.9997C59.8963 34.8322 59.8074 33.652 59.6324 32.4801L64.1684 29.2094C66.1544 27.7658 66.7252 25.0823 65.4987 22.973L62.0718 17.0233C60.8399 14.905 58.2293 14.0628 55.9943 15.0641L50.9009 17.3623C49.0478 15.8826 47.0029 14.7006 44.8029 13.8354L44.2378 8.27259C43.9833 5.83707 41.9478 4 39.5029 4H32.6397C30.1946 4 28.1593 5.83707 27.9042 8.27643L27.3396 13.8354C25.1402 14.7006 23.0953 15.8826 21.2416 17.3623L16.145 15.0629C13.915 14.0638 11.3022 14.9057 10.0675 17.0295L6.64611 22.968C5.41639 25.0829 5.98763 27.7662 7.97863 29.2132L12.5097 32.4801C12.3352 33.652 12.2463 34.8322 12.2463 35.9997C12.2463 37.1672 12.3352 38.3475 12.5103 39.5199L7.97534 42.7901C5.9882 44.2337 5.41705 46.9171 6.64393 49.0265L10.0708 54.9767C11.3022 57.0944 13.9134 57.9368 16.1483 56.9359L21.2417 54.6377C23.0954 56.1174 25.1398 57.2994 27.3397 58.1646L27.9049 63.7274C28.1588 66.1629 30.1943 68 32.6398 68H39.503C41.948 68 43.9834 66.1629 44.2384 63.7236L44.803 58.1646C47.0024 57.2994 49.0473 56.1174 50.901 54.6377L55.9977 56.9371C58.2294 57.9373 60.8404 57.0943 62.0752 54.9705L65.4965 49.032C66.7252 46.9171 66.1539 44.2342 64.1685 42.7901L64.1683 42.7901ZM62.8858 47.5218L59.4656 53.4603C59.0111 54.2416 58.0497 54.5533 57.2339 54.1871L51.2815 51.5015C50.7463 51.2598 50.1195 51.3504 49.6738 51.7366C47.6712 53.4708 45.394 54.7889 42.9028 55.653C42.3488 55.8452 41.9565 56.3414 41.8971 56.9249L41.238 63.4152C41.1447 64.3099 40.3984 64.985 39.5021 64.985L32.6395 64.9845C31.7437 64.9845 30.9969 64.3093 30.9047 63.4185L30.2451 56.9243C30.1857 56.3409 29.7934 55.8447 29.2393 55.6524C26.7488 54.7883 24.471 53.4702 22.4684 51.736C22.1883 51.4937 21.8371 51.3676 21.4809 51.3676C21.2703 51.3676 21.0592 51.4115 20.8608 51.501L14.9117 54.1854C14.0904 54.5538 13.1318 54.2404 12.68 53.4658L9.25371 47.5162C8.80416 46.7438 9.01699 45.7608 9.74326 45.2329L15.0355 41.4165C15.5106 41.0736 15.744 40.4863 15.6346 39.9106C15.3867 38.612 15.2611 37.2967 15.2611 35.9998C15.2611 34.7034 15.3867 33.3876 15.6351 32.0895C15.7451 31.5138 15.5112 30.9265 15.0361 30.5836L9.74766 26.7699C9.01694 26.2392 8.80467 25.2562 9.25644 24.4778L12.6767 18.5398C13.1312 17.7585 14.0925 17.4462 14.9083 17.813L20.8608 20.4986C21.3948 20.7398 22.0222 20.6492 22.4684 20.2635C24.4705 18.5293 26.7483 17.2112 29.2394 16.3472C29.7934 16.1549 30.1857 15.6587 30.2452 15.0752L30.9042 8.58488C30.9976 7.69023 31.7438 7.0151 32.6401 7.0151H39.5033C40.3991 7.0151 41.1459 7.69025 41.2381 8.58103L41.8977 15.0752C41.9572 15.6587 42.3495 16.1549 42.9035 16.3472C45.3941 17.2112 47.6718 18.5293 49.6745 20.2635C50.1196 20.6492 50.7469 20.7398 51.2821 20.4986L57.2311 17.8141C58.0524 17.4457 59.011 17.7591 59.4628 18.5337L62.8891 24.4839C63.3387 25.2563 63.1264 26.2393 62.4001 26.7672L57.1067 30.5836C56.6316 30.9265 56.3982 31.5138 56.5077 32.0895C56.7556 33.3876 56.8811 34.7034 56.8811 35.9998C56.8811 37.2961 56.7556 38.612 56.5072 39.9101C56.3971 40.4858 56.6311 41.0731 57.1062 41.416L62.3967 45.2306C63.1258 45.7624 63.3375 46.7444 62.8857 47.5216L62.8858 47.5218Z"/>
</mask>
<path d="M64.1683 42.7901C64.1661 42.789 64.165 42.7879 64.1639 42.7868L59.6324 39.5194C59.808 38.3474 59.8963 37.1672 59.8963 35.9997C59.8963 34.8322 59.8074 33.652 59.6324 32.4801L64.1684 29.2094C66.1544 27.7658 66.7252 25.0823 65.4987 22.973L62.0718 17.0233C60.8399 14.905 58.2293 14.0628 55.9943 15.0641L50.9009 17.3623C49.0478 15.8826 47.0029 14.7006 44.8029 13.8354L44.2378 8.27259C43.9833 5.83707 41.9478 4 39.5029 4H32.6397C30.1946 4 28.1593 5.83707 27.9042 8.27643L27.3396 13.8354C25.1402 14.7006 23.0953 15.8826 21.2416 17.3623L16.145 15.0629C13.915 14.0638 11.3022 14.9057 10.0675 17.0295L6.64611 22.968C5.41639 25.0829 5.98763 27.7662 7.97863 29.2132L12.5097 32.4801C12.3352 33.652 12.2463 34.8322 12.2463 35.9997C12.2463 37.1672 12.3352 38.3475 12.5103 39.5199L7.97534 42.7901C5.9882 44.2337 5.41705 46.9171 6.64393 49.0265L10.0708 54.9767C11.3022 57.0944 13.9134 57.9368 16.1483 56.9359L21.2417 54.6377C23.0954 56.1174 25.1398 57.2994 27.3397 58.1646L27.9049 63.7274C28.1588 66.1629 30.1943 68 32.6398 68H39.503C41.948 68 43.9834 66.1629 44.2384 63.7236L44.803 58.1646C47.0024 57.2994 49.0473 56.1174 50.901 54.6377L55.9977 56.9371C58.2294 57.9373 60.8404 57.0943 62.0752 54.9705L65.4965 49.032C66.7252 46.9171 66.1539 44.2342 64.1685 42.7901L64.1683 42.7901ZM62.8858 47.5218L59.4656 53.4603C59.0111 54.2416 58.0497 54.5533 57.2339 54.1871L51.2815 51.5015C50.7463 51.2598 50.1195 51.3504 49.6738 51.7366C47.6712 53.4708 45.394 54.7889 42.9028 55.653C42.3488 55.8452 41.9565 56.3414 41.8971 56.9249L41.238 63.4152C41.1447 64.3099 40.3984 64.985 39.5021 64.985L32.6395 64.9845C31.7437 64.9845 30.9969 64.3093 30.9047 63.4185L30.2451 56.9243C30.1857 56.3409 29.7934 55.8447 29.2393 55.6524C26.7488 54.7883 24.471 53.4702 22.4684 51.736C22.1883 51.4937 21.8371 51.3676 21.4809 51.3676C21.2703 51.3676 21.0592 51.4115 20.8608 51.501L14.9117 54.1854C14.0904 54.5538 13.1318 54.2404 12.68 53.4658L9.25371 47.5162C8.80416 46.7438 9.01699 45.7608 9.74326 45.2329L15.0355 41.4165C15.5106 41.0736 15.744 40.4863 15.6346 39.9106C15.3867 38.612 15.2611 37.2967 15.2611 35.9998C15.2611 34.7034 15.3867 33.3876 15.6351 32.0895C15.7451 31.5138 15.5112 30.9265 15.0361 30.5836L9.74766 26.7699C9.01694 26.2392 8.80467 25.2562 9.25644 24.4778L12.6767 18.5398C13.1312 17.7585 14.0925 17.4462 14.9083 17.813L20.8608 20.4986C21.3948 20.7398 22.0222 20.6492 22.4684 20.2635C24.4705 18.5293 26.7483 17.2112 29.2394 16.3472C29.7934 16.1549 30.1857 15.6587 30.2452 15.0752L30.9042 8.58488C30.9976 7.69023 31.7438 7.0151 32.6401 7.0151H39.5033C40.3991 7.0151 41.1459 7.69025 41.2381 8.58103L41.8977 15.0752C41.9572 15.6587 42.3495 16.1549 42.9035 16.3472C45.3941 17.2112 47.6718 18.5293 49.6745 20.2635C50.1196 20.6492 50.7469 20.7398 51.2821 20.4986L57.2311 17.8141C58.0524 17.4457 59.011 17.7591 59.4628 18.5337L62.8891 24.4839C63.3387 25.2563 63.1264 26.2393 62.4001 26.7672L57.1067 30.5836C56.6316 30.9265 56.3982 31.5138 56.5077 32.0895C56.7556 33.3876 56.8811 34.7034 56.8811 35.9998C56.8811 37.2961 56.7556 38.612 56.5072 39.9101C56.3971 40.4858 56.6311 41.0731 57.1062 41.416L62.3967 45.2306C63.1258 45.7624 63.3375 46.7444 62.8857 47.5216L62.8858 47.5218Z" fill="#0D313B"/>
<path d="M64.1683 42.7901C64.1661 42.789 64.165 42.7879 64.1639 42.7868L59.6324 39.5194C59.808 38.3474 59.8963 37.1672 59.8963 35.9997C59.8963 34.8322 59.8074 33.652 59.6324 32.4801L64.1684 29.2094C66.1544 27.7658 66.7252 25.0823 65.4987 22.973L62.0718 17.0233C60.8399 14.905 58.2293 14.0628 55.9943 15.0641L50.9009 17.3623C49.0478 15.8826 47.0029 14.7006 44.8029 13.8354L44.2378 8.27259C43.9833 5.83707 41.9478 4 39.5029 4H32.6397C30.1946 4 28.1593 5.83707 27.9042 8.27643L27.3396 13.8354C25.1402 14.7006 23.0953 15.8826 21.2416 17.3623L16.145 15.0629C13.915 14.0638 11.3022 14.9057 10.0675 17.0295L6.64611 22.968C5.41639 25.0829 5.98763 27.7662 7.97863 29.2132L12.5097 32.4801C12.3352 33.652 12.2463 34.8322 12.2463 35.9997C12.2463 37.1672 12.3352 38.3475 12.5103 39.5199L7.97534 42.7901C5.9882 44.2337 5.41705 46.9171 6.64393 49.0265L10.0708 54.9767C11.3022 57.0944 13.9134 57.9368 16.1483 56.9359L21.2417 54.6377C23.0954 56.1174 25.1398 57.2994 27.3397 58.1646L27.9049 63.7274C28.1588 66.1629 30.1943 68 32.6398 68H39.503C41.948 68 43.9834 66.1629 44.2384 63.7236L44.803 58.1646C47.0024 57.2994 49.0473 56.1174 50.901 54.6377L55.9977 56.9371C58.2294 57.9373 60.8404 57.0943 62.0752 54.9705L65.4965 49.032C66.7252 46.9171 66.1539 44.2342 64.1685 42.7901L64.1683 42.7901ZM62.8858 47.5218L59.4656 53.4603C59.0111 54.2416 58.0497 54.5533 57.2339 54.1871L51.2815 51.5015C50.7463 51.2598 50.1195 51.3504 49.6738 51.7366C47.6712 53.4708 45.394 54.7889 42.9028 55.653C42.3488 55.8452 41.9565 56.3414 41.8971 56.9249L41.238 63.4152C41.1447 64.3099 40.3984 64.985 39.5021 64.985L32.6395 64.9845C31.7437 64.9845 30.9969 64.3093 30.9047 63.4185L30.2451 56.9243C30.1857 56.3409 29.7934 55.8447 29.2393 55.6524C26.7488 54.7883 24.471 53.4702 22.4684 51.736C22.1883 51.4937 21.8371 51.3676 21.4809 51.3676C21.2703 51.3676 21.0592 51.4115 20.8608 51.501L14.9117 54.1854C14.0904 54.5538 13.1318 54.2404 12.68 53.4658L9.25371 47.5162C8.80416 46.7438 9.01699 45.7608 9.74326 45.2329L15.0355 41.4165C15.5106 41.0736 15.744 40.4863 15.6346 39.9106C15.3867 38.612 15.2611 37.2967 15.2611 35.9998C15.2611 34.7034 15.3867 33.3876 15.6351 32.0895C15.7451 31.5138 15.5112 30.9265 15.0361 30.5836L9.74766 26.7699C9.01694 26.2392 8.80467 25.2562 9.25644 24.4778L12.6767 18.5398C13.1312 17.7585 14.0925 17.4462 14.9083 17.813L20.8608 20.4986C21.3948 20.7398 22.0222 20.6492 22.4684 20.2635C24.4705 18.5293 26.7483 17.2112 29.2394 16.3472C29.7934 16.1549 30.1857 15.6587 30.2452 15.0752L30.9042 8.58488C30.9976 7.69023 31.7438 7.0151 32.6401 7.0151H39.5033C40.3991 7.0151 41.1459 7.69025 41.2381 8.58103L41.8977 15.0752C41.9572 15.6587 42.3495 16.1549 42.9035 16.3472C45.3941 17.2112 47.6718 18.5293 49.6745 20.2635C50.1196 20.6492 50.7469 20.7398 51.2821 20.4986L57.2311 17.8141C58.0524 17.4457 59.011 17.7591 59.4628 18.5337L62.8891 24.4839C63.3387 25.2563 63.1264 26.2393 62.4001 26.7672L57.1067 30.5836C56.6316 30.9265 56.3982 31.5138 56.5077 32.0895C56.7556 33.3876 56.8811 34.7034 56.8811 35.9998C56.8811 37.2961 56.7556 38.612 56.5072 39.9101C56.3971 40.4858 56.6311 41.0731 57.1062 41.416L62.3967 45.2306C63.1258 45.7624 63.3375 46.7444 62.8857 47.5216L62.8858 47.5218Z" stroke="#0D313B" stroke-width="0.822857" mask="url(#path-4-outside-2_6295_46221)"/>
</svg>
