<svg width="72" height="72" viewBox="0 0 72 72" fill="none" xmlns="http://www.w3.org/2000/svg">
<path d="M36.1054 7.00273C28.9059 7.01227 21.9743 9.73417 16.692 14.626C11.4097 19.5178 8.16456 26.2204 7.6033 33.3979H4.21094L8.61017 38.8969L13.0094 33.3979H9.80897C10.3427 27.0123 13.1813 21.0389 17.7953 16.5922C22.4092 12.1454 28.4832 9.52904 34.8843 9.23117C41.2853 8.93329 47.5761 10.9742 52.5831 14.9733C57.59 18.9723 60.9712 24.6563 62.0956 30.9647L64.2623 30.5812C63.0943 23.966 59.6303 17.9746 54.4799 13.6618C49.3296 9.34889 42.8231 6.99088 36.1054 7.00273V7.00273Z" fill="#0B2D1F"/>
<path d="M63.601 32.2981L59.2017 37.7971H62.4022C61.8683 44.1826 59.0297 50.1559 54.4158 54.6025C49.8019 59.0492 43.728 61.6655 37.327 61.9634C30.9261 62.2612 24.6354 60.2203 19.6285 56.2214C14.6216 52.2225 11.2404 46.5387 10.1158 40.2303L7.94922 40.6137C9.16943 47.4639 12.8457 53.634 18.289 57.968C23.7324 62.302 30.5694 64.5025 37.5188 64.157C44.4683 63.8115 51.0533 60.9439 56.04 56.0914C61.0267 51.2388 64.0728 44.7345 64.6076 37.7971H68L63.601 32.2981Z" fill="#0B2D1F"/>
<path d="M8.39924 38.8959L12.7985 33.3969H9.59803C10.1317 27.0112 12.9703 21.0377 17.5842 16.5909C22.1981 12.1441 28.2722 9.5277 34.6733 9.22982C41.0744 8.93194 47.3652 10.9729 52.3722 14.972C57.3791 18.9711 60.7602 24.6552 61.8846 30.9637L64.0512 30.5803C62.8314 23.7298 59.1553 17.5592 53.7118 13.2248C48.2683 8.89044 41.4311 6.68981 34.4813 7.03529C27.5315 7.38077 20.9463 10.2487 15.9595 15.1015C10.9727 19.9544 7.92676 26.4592 7.39236 33.3969H4L8.39924 38.8959Z" fill="#0B2D1F"/>
<path d="M58.9898 37.7961H62.1903C61.6564 44.1817 58.8178 50.1549 54.2039 54.6016C49.59 59.0482 43.516 61.6645 37.1151 61.9624C30.7142 62.2603 24.4235 60.2194 19.4165 56.2204C14.4096 52.2215 11.0285 46.5377 9.90393 40.2293L7.7373 40.6127C8.95734 47.4631 12.6335 53.6334 18.0769 57.9676C23.5204 62.3018 30.3575 64.5024 37.3071 64.1569C44.2567 63.8114 50.8418 60.9436 55.8286 56.0909C60.8153 51.2383 63.8613 44.7337 64.3959 37.7961H67.7883L63.3891 32.2971L58.9898 37.7961Z" fill="#0B2D1F"/>
<path d="M33.0933 14.7003C32.6545 14.7003 32.2807 15.019 32.21 15.4525L31.5033 19.7886C30.1197 20.1531 28.7917 20.7039 27.5397 21.4329L23.9504 18.8703C23.5957 18.616 23.1058 18.6549 22.7959 18.9648L19.3115 22.4474C19.0043 22.7546 18.962 23.2384 19.2118 23.5948L21.7446 27.2121C21.0103 28.4659 20.4545 29.8015 20.0864 31.1932L15.7467 31.9156C15.3159 31.9873 14.998 32.361 14.998 32.799V37.7246C14.998 38.159 15.309 38.5301 15.7362 38.6062L20.0794 39.3758C20.4439 40.7658 20.9963 42.0996 21.7289 43.3552L19.1646 46.941C18.9103 47.2965 18.9501 47.7856 19.2591 48.0954L22.7417 51.578C23.0489 51.8861 23.5345 51.9258 23.8891 51.6777L27.5064 49.1484C28.7558 49.8819 30.0896 50.4359 31.4858 50.8049L32.21 55.1481C32.2825 55.5789 32.6554 55.8967 33.0933 55.8967H38.019C38.4534 55.8967 38.8245 55.5858 38.9006 55.1586L39.672 50.8154C41.0808 50.4464 42.4271 49.8865 43.6899 49.1449L47.3019 51.676C47.6584 51.9259 48.1422 51.8835 48.4494 51.5763L51.9303 48.0937C52.241 47.7829 52.2818 47.293 52.0247 46.9375L49.4552 43.3692C50.1922 42.1082 50.7489 40.7669 51.1152 39.3671L55.4531 38.6062C55.8821 38.5319 56.1948 38.1599 56.1948 37.7246V32.799C56.1948 32.3601 55.8761 31.9864 55.4426 31.9156L51.1099 31.2072C50.7409 29.8047 50.1809 28.4625 49.4429 27.2051L51.9757 23.5983C52.2256 23.2419 52.1832 22.7572 51.876 22.4491L48.3917 18.9683C48.0818 18.6575 47.5919 18.6186 47.2355 18.8738L43.6671 21.4399C42.4062 20.7028 41.0631 20.1453 39.6615 19.7782L38.9024 15.4402C38.8271 15.013 38.4534 14.7003 38.019 14.7003H33.0933ZM35.5964 25.4472C41.0371 25.4472 45.4478 29.8588 45.4478 35.2968C45.4478 40.7365 41.0371 45.1498 35.5964 45.1498C30.1558 45.1498 25.745 40.7365 25.745 35.2968C25.745 29.8588 30.1558 25.4472 35.5964 25.4472Z" fill="#22885E" stroke="#0B2D1F" stroke-width="2.74951"/>
</svg>
