<svg width="72" height="72" viewBox="0 0 72 72" fill="none" xmlns="http://www.w3.org/2000/svg">
<mask id="path-1-outside-1_5710_43305" maskUnits="userSpaceOnUse" x="4.0752" y="46.8586" width="64" height="19" fill="black">
<rect fill="white" x="4.0752" y="46.8586" width="64" height="19"/>
<path d="M61.3439 47.8586L65.5887 49.534C65.986 49.6926 66.3258 49.962 66.5649 50.3082C66.804 50.6544 66.9317 51.0616 66.9317 51.4783C66.9317 51.8949 66.804 52.3021 66.5649 52.6483C66.3258 52.9945 65.986 53.2639 65.5887 53.4225L36.814 64.7674C36.2947 64.9743 35.7122 64.9743 35.1929 64.7674L6.41821 53.4225C6.02088 53.2639 5.68109 52.9945 5.44197 52.6483C5.20285 52.3021 5.0752 51.8949 5.0752 51.4783C5.0752 51.0616 5.20285 50.6544 5.44197 50.3082C5.68109 49.962 6.02088 49.6926 6.41821 49.534L10.663 47.8586L35.1929 49.534L61.3439 47.8586Z"/>
</mask>
<path d="M61.3439 47.8586L65.5887 49.534C65.986 49.6926 66.3258 49.962 66.5649 50.3082C66.804 50.6544 66.9317 51.0616 66.9317 51.4783C66.9317 51.8949 66.804 52.3021 66.5649 52.6483C66.3258 52.9945 65.986 53.2639 65.5887 53.4225L36.814 64.7674C36.2947 64.9743 35.7122 64.9743 35.1929 64.7674L6.41821 53.4225C6.02088 53.2639 5.68109 52.9945 5.44197 52.6483C5.20285 52.3021 5.0752 51.8949 5.0752 51.4783C5.0752 51.0616 5.20285 50.6544 5.44197 50.3082C5.68109 49.962 6.02088 49.6926 6.41821 49.534L10.663 47.8586L35.1929 49.534L61.3439 47.8586Z" fill="#FFA600"/>
<path d="M61.3439 47.8586L65.5887 49.534C65.986 49.6926 66.3258 49.962 66.5649 50.3082C66.804 50.6544 66.9317 51.0616 66.9317 51.4783C66.9317 51.8949 66.804 52.3021 66.5649 52.6483C66.3258 52.9945 65.986 53.2639 65.5887 53.4225L36.814 64.7674C36.2947 64.9743 35.7122 64.9743 35.1929 64.7674L6.41821 53.4225C6.02088 53.2639 5.68109 52.9945 5.44197 52.6483C5.20285 52.3021 5.0752 51.8949 5.0752 51.4783C5.0752 51.0616 5.20285 50.6544 5.44197 50.3082C5.68109 49.962 6.02088 49.6926 6.41821 49.534L10.663 47.8586L35.1929 49.534L61.3439 47.8586Z" stroke="black" mask="url(#path-1-outside-1_5710_43305)"/>
<mask id="path-2-outside-2_5710_43305" maskUnits="userSpaceOnUse" x="4.07617" y="38.86" width="64" height="20" fill="black">
<rect fill="white" x="4.07617" y="38.86" width="64" height="20"/>
<path fill-rule="evenodd" clip-rule="evenodd" d="M10.6681 39.86H10.6638L6.41915 41.5877C6.02183 41.7512 5.68205 42.0291 5.44294 42.3861C5.20383 42.7431 5.07617 43.1631 5.07617 43.5927C5.07617 44.0224 5.20383 44.4423 5.44294 44.7993C5.68205 45.1563 6.02183 45.4342 6.41915 45.5977L35.1931 57.2972C35.7124 57.5105 36.2949 57.5105 36.8142 57.2972L65.5881 45.5977C65.9854 45.4342 66.3252 45.1563 66.5643 44.7993C66.8034 44.4423 66.9311 44.0224 66.9311 43.5927C66.9311 43.1631 66.8034 42.7431 66.5643 42.3861C66.3252 42.0291 65.9854 41.7512 65.5881 41.5877L61.3435 39.86H61.3386L36.8139 49.8317C36.2946 50.045 35.7121 50.045 35.1928 49.8317L10.6681 39.86Z"/>
</mask>
<path fill-rule="evenodd" clip-rule="evenodd" d="M10.6681 39.86H10.6638L6.41915 41.5877C6.02183 41.7512 5.68205 42.0291 5.44294 42.3861C5.20383 42.7431 5.07617 43.1631 5.07617 43.5927C5.07617 44.0224 5.20383 44.4423 5.44294 44.7993C5.68205 45.1563 6.02183 45.4342 6.41915 45.5977L35.1931 57.2972C35.7124 57.5105 36.2949 57.5105 36.8142 57.2972L65.5881 45.5977C65.9854 45.4342 66.3252 45.1563 66.5643 44.7993C66.8034 44.4423 66.9311 44.0224 66.9311 43.5927C66.9311 43.1631 66.8034 42.7431 66.5643 42.3861C66.3252 42.0291 65.9854 41.7512 65.5881 41.5877L61.3435 39.86H61.3386L36.8139 49.8317C36.2946 50.045 35.7121 50.045 35.1928 49.8317L10.6681 39.86Z" fill="#FFA600"/>
<path d="M10.6638 39.86V39.36H10.5659L10.4753 39.3969L10.6638 39.86ZM10.6681 39.86L10.8564 39.3968L10.7658 39.36H10.6681V39.86ZM6.41915 41.5877L6.23065 41.1246L6.22885 41.1253L6.41915 41.5877ZM5.44294 42.3861L5.02752 42.1078L5.02752 42.1078L5.44294 42.3861ZM5.44294 44.7993L5.85836 44.5211L5.85836 44.5211L5.44294 44.7993ZM6.41915 45.5977L6.22885 46.0601L6.23082 46.0609L6.41915 45.5977ZM35.1931 57.2972L35.3831 56.8347L35.3814 56.834L35.1931 57.2972ZM36.8142 57.2972L36.6258 56.834L36.6242 56.8347L36.8142 57.2972ZM65.5881 45.5977L65.7764 46.0609L65.7784 46.0601L65.5881 45.5977ZM66.5643 44.7993L66.1489 44.5211L66.1489 44.5211L66.5643 44.7993ZM66.5643 42.3861L66.9797 42.1078L66.9797 42.1078L66.5643 42.3861ZM65.5881 41.5877L65.7784 41.1253L65.7766 41.1246L65.5881 41.5877ZM61.3435 39.86L61.532 39.3969L61.4413 39.36H61.3435V39.86ZM61.3386 39.86V39.36H61.2408L61.1503 39.3968L61.3386 39.86ZM36.8139 49.8317L36.6255 49.3685L36.6239 49.3692L36.8139 49.8317ZM35.1928 49.8317L35.3828 49.3692L35.3811 49.3685L35.1928 49.8317ZM10.6638 40.36H10.6681V39.36H10.6638V40.36ZM6.60765 42.0508L10.8523 40.3231L10.4753 39.3969L6.23065 41.1246L6.60765 42.0508ZM5.85836 42.6644C6.04233 42.3897 6.30375 42.1759 6.60945 42.0501L6.22885 41.1253C5.7399 41.3266 5.32177 41.6685 5.02752 42.1078L5.85836 42.6644ZM5.57617 43.5927C5.57617 43.2621 5.67439 42.939 5.85836 42.6644L5.02752 42.1078C4.73327 42.5471 4.57617 43.064 4.57617 43.5927H5.57617ZM5.85836 44.5211C5.67439 44.2464 5.57617 43.9233 5.57617 43.5927H4.57617C4.57617 44.1215 4.73327 44.6383 5.02752 45.0776L5.85836 44.5211ZM6.60945 45.1354C6.30375 45.0095 6.04233 44.7957 5.85836 44.5211L5.02752 45.0776C5.32177 45.5169 5.7399 45.8589 6.22885 46.0601L6.60945 45.1354ZM35.3814 56.834L6.60748 45.1345L6.23082 46.0609L35.0048 57.7603L35.3814 56.834ZM36.6242 56.8347C36.2266 56.998 35.7807 56.998 35.3831 56.8347L35.0031 57.7596C35.6441 58.023 36.3631 58.023 37.0042 57.7596L36.6242 56.8347ZM65.3998 45.1345L36.6258 56.834L37.0025 57.7603L65.7764 46.0609L65.3998 45.1345ZM66.1489 44.5211C65.9649 44.7957 65.7035 45.0095 65.3978 45.1354L65.7784 46.0601C66.2674 45.8589 66.6855 45.5169 66.9797 45.0776L66.1489 44.5211ZM66.4311 43.5927C66.4311 43.9233 66.3329 44.2464 66.1489 44.5211L66.9797 45.0776C67.274 44.6383 67.4311 44.1215 67.4311 43.5927H66.4311ZM66.1489 42.6644C66.3329 42.939 66.4311 43.2621 66.4311 43.5927H67.4311C67.4311 43.064 67.274 42.5471 66.9797 42.1078L66.1489 42.6644ZM65.3978 42.0501C65.7035 42.1759 65.9649 42.3897 66.1489 42.6644L66.9797 42.1078C66.6855 41.6685 66.2674 41.3266 65.7784 41.1253L65.3978 42.0501ZM61.155 40.3231L65.3996 42.0508L65.7766 41.1246L61.532 39.3969L61.155 40.3231ZM61.3386 40.36H61.3435V39.36H61.3386V40.36ZM37.0022 50.2949L61.5269 40.3232L61.1503 39.3968L36.6255 49.3685L37.0022 50.2949ZM35.0028 50.2942C35.6438 50.5575 36.3628 50.5575 37.0039 50.2942L36.6239 49.3692C36.2263 49.5325 35.7804 49.5325 35.3828 49.3692L35.0028 50.2942ZM10.4797 40.3232L35.0045 50.2949L35.3811 49.3685L10.8564 39.3968L10.4797 40.3232Z" fill="black" mask="url(#path-2-outside-2_5710_43305)"/>
<mask id="path-4-outside-3_5710_43305" maskUnits="userSpaceOnUse" x="3" y="28.2667" width="66" height="39" fill="black">
<rect fill="white" x="3" y="28.2667" width="66" height="39"/>
<path fill-rule="evenodd" clip-rule="evenodd" d="M58 31.4724C58 31.9068 58.2632 32.2979 58.6657 32.4614L65.1822 35.1087C65.3837 35.1918 65.5559 35.3329 65.6771 35.514C65.7983 35.6952 65.8631 35.9082 65.8631 36.1262C65.8631 36.3441 65.7983 36.5571 65.6771 36.7383C65.5559 36.9194 65.3837 37.0605 65.1822 37.1436L36.4104 48.8441C36.1489 48.9507 35.856 48.9507 35.5945 48.8441L6.82377 37.1457C6.62229 37.0626 6.45003 36.9215 6.32882 36.7404C6.20761 36.5593 6.1429 36.3462 6.1429 36.1283C6.1429 35.9103 6.20761 35.6973 6.32882 35.5162C6.45003 35.335 6.62229 35.194 6.82377 35.1109L16.1449 31.3216C16.2747 31.2688 16.3928 31.191 16.4924 31.0925C16.5921 30.9941 16.6714 30.877 16.7258 30.7479C16.7803 30.6188 16.8087 30.4803 16.8096 30.3402C16.8105 30.2001 16.7837 30.0612 16.7309 29.9314C16.6781 29.8017 16.6003 29.6836 16.5019 29.5839C16.4034 29.4842 16.2863 29.4049 16.1572 29.3505C16.0281 29.2961 15.8896 29.2676 15.7495 29.2667C15.6094 29.2659 15.4705 29.2926 15.3408 29.3454L6.01323 33.141C5.41965 33.3846 4.9119 33.7992 4.55455 34.332C4.1972 34.8649 4.0064 35.492 4.0064 36.1336C4.0064 36.7752 4.1972 37.4023 4.55455 37.9352C4.9119 38.4681 5.41965 38.8827 6.01323 39.1262V39.1262C6.67815 39.3965 6.67416 40.3397 6.01003 40.6118V40.6118C5.41645 40.8554 4.9087 41.2699 4.55135 41.8028C4.194 42.3357 4.0032 42.9628 4.0032 43.6044C4.0032 44.246 4.194 44.8731 4.55135 45.406C4.9087 45.9389 5.41645 46.3535 6.01003 46.597V46.597C6.67495 46.8673 6.67096 47.8104 6.00683 48.0826V48.0826C5.41325 48.3262 4.9055 48.7407 4.54815 49.2736C4.19081 49.8065 4 50.4336 4 51.0752C4 51.7168 4.19081 52.3439 4.54815 52.8768C4.9055 53.4097 5.41325 53.8242 6.00683 54.0678L34.7893 65.7491C35.5666 66.0683 36.4383 66.0683 37.2156 65.7491L65.9927 54.0497C66.5864 53.8063 67.0942 53.3919 67.4517 52.8591C67.8091 52.3263 68 51.6992 68 51.0576C68 50.416 67.8091 49.7889 67.4517 49.2561C67.0942 48.7233 66.5864 48.3089 65.9927 48.0656V48.0656C65.3266 47.795 65.3274 46.8514 65.9927 46.5789V46.5789C66.5864 46.3355 67.0942 45.9211 67.4517 45.3883C67.8091 44.8555 68 44.2284 68 43.5868C68 42.9452 67.8091 42.3181 67.4517 41.7853C67.0942 41.2525 66.5864 40.8381 65.9927 40.5948V40.5948C65.3281 40.3268 65.3295 39.385 65.9927 39.1134V39.1134C66.589 38.8758 67.0996 38.4635 67.4574 37.9306C67.8152 37.3977 68.0035 36.7691 67.9977 36.1272C68.0045 35.4838 67.8163 34.8534 67.4578 34.319C67.0993 33.7847 66.5874 33.3714 65.9895 33.1336L59.4694 30.4835C58.7675 30.1982 58 30.7147 58 31.4724V31.4724ZM65.6771 50.4492C65.5559 50.2681 65.3837 50.127 65.1822 50.0439L62.4758 48.9385C61.7502 48.6421 60.9373 48.6415 60.2113 48.9368L37.2188 58.2879C36.4415 58.6071 35.5698 58.6071 34.7925 58.2879L11.799 48.936C11.0742 48.6412 10.2628 48.6412 9.538 48.9362L6.82377 50.0407C6.62238 50.124 6.45023 50.2652 6.32911 50.4465C6.20799 50.6277 6.14334 50.8407 6.14334 51.0587C6.14334 51.2766 6.20799 51.4897 6.32911 51.6709C6.45023 51.8521 6.62238 51.9933 6.82377 52.0766L35.5945 63.775C35.856 63.8816 36.1489 63.8816 36.4104 63.775L65.1822 52.0788C65.3837 51.9957 65.5559 51.8546 65.6771 51.6735C65.7983 51.4923 65.8631 51.2793 65.8631 51.0613C65.8631 50.8434 65.7983 50.6303 65.6771 50.4492ZM65.6771 42.9838C65.5559 42.8026 65.3837 42.6616 65.1822 42.5784L62.4758 41.473C61.7502 41.1767 60.9373 41.176 60.2113 41.4713L37.2188 50.8224C36.4415 51.1417 35.5698 51.1417 34.7925 50.8224L11.799 41.4705C11.0742 41.1757 10.2628 41.1758 9.538 41.4707L6.82377 42.5752C6.62238 42.6586 6.45023 42.7998 6.32911 42.981C6.20799 43.1622 6.14334 43.3753 6.14334 43.5932C6.14334 43.8112 6.20799 44.0242 6.32911 44.2054C6.45023 44.3866 6.62238 44.5278 6.82377 44.6112L35.5945 56.3096C35.856 56.4162 36.1489 56.4162 36.4104 56.3096L65.1822 44.6133C65.3837 44.5302 65.5559 44.3891 65.6771 44.208C65.7983 44.0269 65.8631 43.8138 65.8631 43.5959C65.8631 43.3779 65.7983 43.1649 65.6771 42.9838Z"/>
</mask>
<path fill-rule="evenodd" clip-rule="evenodd" d="M58 31.4724C58 31.9068 58.2632 32.2979 58.6657 32.4614L65.1822 35.1087C65.3837 35.1918 65.5559 35.3329 65.6771 35.514C65.7983 35.6952 65.8631 35.9082 65.8631 36.1262C65.8631 36.3441 65.7983 36.5571 65.6771 36.7383C65.5559 36.9194 65.3837 37.0605 65.1822 37.1436L36.4104 48.8441C36.1489 48.9507 35.856 48.9507 35.5945 48.8441L6.82377 37.1457C6.62229 37.0626 6.45003 36.9215 6.32882 36.7404C6.20761 36.5593 6.1429 36.3462 6.1429 36.1283C6.1429 35.9103 6.20761 35.6973 6.32882 35.5162C6.45003 35.335 6.62229 35.194 6.82377 35.1109L16.1449 31.3216C16.2747 31.2688 16.3928 31.191 16.4924 31.0925C16.5921 30.9941 16.6714 30.877 16.7258 30.7479C16.7803 30.6188 16.8087 30.4803 16.8096 30.3402C16.8105 30.2001 16.7837 30.0612 16.7309 29.9314C16.6781 29.8017 16.6003 29.6836 16.5019 29.5839C16.4034 29.4842 16.2863 29.4049 16.1572 29.3505C16.0281 29.2961 15.8896 29.2676 15.7495 29.2667C15.6094 29.2659 15.4705 29.2926 15.3408 29.3454L6.01323 33.141C5.41965 33.3846 4.9119 33.7992 4.55455 34.332C4.1972 34.8649 4.0064 35.492 4.0064 36.1336C4.0064 36.7752 4.1972 37.4023 4.55455 37.9352C4.9119 38.4681 5.41965 38.8827 6.01323 39.1262V39.1262C6.67815 39.3965 6.67416 40.3397 6.01003 40.6118V40.6118C5.41645 40.8554 4.9087 41.2699 4.55135 41.8028C4.194 42.3357 4.0032 42.9628 4.0032 43.6044C4.0032 44.246 4.194 44.8731 4.55135 45.406C4.9087 45.9389 5.41645 46.3535 6.01003 46.597V46.597C6.67495 46.8673 6.67096 47.8104 6.00683 48.0826V48.0826C5.41325 48.3262 4.9055 48.7407 4.54815 49.2736C4.19081 49.8065 4 50.4336 4 51.0752C4 51.7168 4.19081 52.3439 4.54815 52.8768C4.9055 53.4097 5.41325 53.8242 6.00683 54.0678L34.7893 65.7491C35.5666 66.0683 36.4383 66.0683 37.2156 65.7491L65.9927 54.0497C66.5864 53.8063 67.0942 53.3919 67.4517 52.8591C67.8091 52.3263 68 51.6992 68 51.0576C68 50.416 67.8091 49.7889 67.4517 49.2561C67.0942 48.7233 66.5864 48.3089 65.9927 48.0656V48.0656C65.3266 47.795 65.3274 46.8514 65.9927 46.5789V46.5789C66.5864 46.3355 67.0942 45.9211 67.4517 45.3883C67.8091 44.8555 68 44.2284 68 43.5868C68 42.9452 67.8091 42.3181 67.4517 41.7853C67.0942 41.2525 66.5864 40.8381 65.9927 40.5948V40.5948C65.3281 40.3268 65.3295 39.385 65.9927 39.1134V39.1134C66.589 38.8758 67.0996 38.4635 67.4574 37.9306C67.8152 37.3977 68.0035 36.7691 67.9977 36.1272C68.0045 35.4838 67.8163 34.8534 67.4578 34.319C67.0993 33.7847 66.5874 33.3714 65.9895 33.1336L59.4694 30.4835C58.7675 30.1982 58 30.7147 58 31.4724V31.4724ZM65.6771 50.4492C65.5559 50.2681 65.3837 50.127 65.1822 50.0439L62.4758 48.9385C61.7502 48.6421 60.9373 48.6415 60.2113 48.9368L37.2188 58.2879C36.4415 58.6071 35.5698 58.6071 34.7925 58.2879L11.799 48.936C11.0742 48.6412 10.2628 48.6412 9.538 48.9362L6.82377 50.0407C6.62238 50.124 6.45023 50.2652 6.32911 50.4465C6.20799 50.6277 6.14334 50.8407 6.14334 51.0587C6.14334 51.2766 6.20799 51.4897 6.32911 51.6709C6.45023 51.8521 6.62238 51.9933 6.82377 52.0766L35.5945 63.775C35.856 63.8816 36.1489 63.8816 36.4104 63.775L65.1822 52.0788C65.3837 51.9957 65.5559 51.8546 65.6771 51.6735C65.7983 51.4923 65.8631 51.2793 65.8631 51.0613C65.8631 50.8434 65.7983 50.6303 65.6771 50.4492ZM65.6771 42.9838C65.5559 42.8026 65.3837 42.6616 65.1822 42.5784L62.4758 41.473C61.7502 41.1767 60.9373 41.176 60.2113 41.4713L37.2188 50.8224C36.4415 51.1417 35.5698 51.1417 34.7925 50.8224L11.799 41.4705C11.0742 41.1757 10.2628 41.1758 9.538 41.4707L6.82377 42.5752C6.62238 42.6586 6.45023 42.7998 6.32911 42.981C6.20799 43.1622 6.14334 43.3753 6.14334 43.5932C6.14334 43.8112 6.20799 44.0242 6.32911 44.2054C6.45023 44.3866 6.62238 44.5278 6.82377 44.6112L35.5945 56.3096C35.856 56.4162 36.1489 56.4162 36.4104 56.3096L65.1822 44.6133C65.3837 44.5302 65.5559 44.3891 65.6771 44.208C65.7983 44.0269 65.8631 43.8138 65.8631 43.5959C65.8631 43.3779 65.7983 43.1649 65.6771 42.9838Z" fill="black"/>
<path d="M65.1822 35.1087L65.3729 34.6465L65.3704 34.6455L65.1822 35.1087ZM65.1822 37.1436L65.3705 37.6068L65.3729 37.6058L65.1822 37.1436ZM36.4104 48.8441L36.222 48.3809L36.2216 48.3811L36.4104 48.8441ZM35.5945 48.8441L35.7833 48.3811L35.7828 48.3809L35.5945 48.8441ZM6.82377 37.1457L6.63308 37.6079L6.63544 37.6089L6.82377 37.1457ZM6.82377 35.1109L6.63547 34.6477L6.63308 34.6486L6.82377 35.1109ZM16.1449 31.3216L16.3332 31.7848L16.3334 31.7847L16.1449 31.3216ZM16.8096 30.3402L17.3096 30.3433L16.8096 30.3402ZM16.1572 29.3505L16.3515 28.8898L16.3515 28.8898L16.1572 29.3505ZM15.3408 29.3454L15.1523 28.8823L15.1523 28.8823L15.3408 29.3454ZM6.01323 33.141L5.82477 32.6779L5.82344 32.6785L6.01323 33.141ZM4.55455 34.332L4.13928 34.0536L4.13928 34.0536L4.55455 34.332ZM4.55455 37.9352L4.13928 38.2137L4.13928 38.2137L4.55455 37.9352ZM4.55135 41.8028L4.96662 42.0813L4.96662 42.0813L4.55135 41.8028ZM4.55135 45.406L4.96662 45.1275L4.96662 45.1275L4.55135 45.406ZM4.54815 49.2736L4.96342 49.5521L4.96342 49.5521L4.54815 49.2736ZM4.54815 52.8768L4.96342 52.5983L4.96342 52.5983L4.54815 52.8768ZM6.00683 54.0678L5.81704 54.5304L5.81881 54.5311L6.00683 54.0678ZM34.7893 65.7491L34.9793 65.2866L34.9773 65.2858L34.7893 65.7491ZM37.2156 65.7491L37.0273 65.2859L37.0256 65.2866L37.2156 65.7491ZM65.9927 54.0497L66.181 54.5128L66.1823 54.5123L65.9927 54.0497ZM67.9977 36.1272L67.4977 36.122L67.4977 36.1318L67.9977 36.1272ZM65.9895 33.1336L65.8013 33.5968L65.8048 33.5982L65.9895 33.1336ZM65.1822 50.0439L65.3729 49.5817L65.3713 49.581L65.1822 50.0439ZM37.2188 58.2879L37.0304 57.8247L37.0288 57.8254L37.2188 58.2879ZM34.7925 58.2879L34.9825 57.8254L34.9809 57.8247L34.7925 58.2879ZM6.82377 50.0407L6.6353 49.5776L6.63258 49.5787L6.82377 50.0407ZM6.82377 52.0766L6.63258 52.5387L6.63544 52.5398L6.82377 52.0766ZM35.5945 63.775L35.7833 63.312L35.7828 63.3118L35.5945 63.775ZM36.4104 63.775L36.2221 63.3118L36.2216 63.312L36.4104 63.775ZM65.1822 52.0788L65.3705 52.542L65.3729 52.541L65.1822 52.0788ZM65.1822 42.5784L65.3729 42.1162L65.3713 42.1156L65.1822 42.5784ZM37.2188 50.8224L37.0304 50.3593L37.0288 50.3599L37.2188 50.8224ZM34.7925 50.8224L34.9825 50.3599L34.9809 50.3593L34.7925 50.8224ZM6.82377 42.5752L6.6353 42.1121L6.63258 42.1132L6.82377 42.5752ZM6.82377 44.6112L6.63258 45.0732L6.63544 45.0744L6.82377 44.6112ZM35.5945 56.3096L35.7833 55.8466L35.7828 55.8464L35.5945 56.3096ZM36.4104 56.3096L36.2221 55.8464L36.2216 55.8466L36.4104 56.3096ZM65.1822 44.6133L65.3705 45.0765L65.3729 45.0755L65.1822 44.6133ZM11.799 48.936L11.6106 49.3991L11.799 48.936ZM9.538 48.9362L9.34954 48.4731L9.538 48.9362ZM62.4758 48.9385L62.6649 48.4756L62.4758 48.9385ZM9.538 41.4707L9.34954 41.0076L9.538 41.4707ZM59.4694 30.4835L59.2812 30.9467L59.4694 30.4835ZM62.4758 41.473L62.6649 41.0102L62.4758 41.473ZM60.2113 41.4713L60.3996 41.9345L60.2113 41.4713ZM58.6657 32.4614L58.8539 31.9982L58.6657 32.4614ZM58.4775 32.9247L64.994 35.572L65.3704 34.6455L58.8539 31.9982L58.4775 32.9247ZM64.9915 35.5709C65.1014 35.6163 65.1955 35.6933 65.2616 35.7921L66.0927 35.236C65.9164 34.9725 65.6659 34.7674 65.3729 34.6465L64.9915 35.5709ZM65.2616 35.7921C65.3277 35.891 65.3631 36.0072 65.3631 36.1262H66.3631C66.3631 35.8092 66.269 35.4994 66.0927 35.236L65.2616 35.7921ZM65.3631 36.1262C65.3631 36.2451 65.3277 36.3614 65.2616 36.4602L66.0927 37.0164C66.269 36.7529 66.3631 36.4431 66.3631 36.1262H65.3631ZM65.2616 36.4602C65.1954 36.559 65.1014 36.636 64.9915 36.6814L65.3729 37.6058C65.6659 37.4849 65.9164 37.2798 66.0927 37.0164L65.2616 36.4602ZM64.9938 36.6804L36.222 48.3809L36.5987 49.3073L65.3705 37.6068L64.9938 36.6804ZM36.2216 48.3811C36.0811 48.4384 35.9238 48.4384 35.7833 48.3811L35.4057 49.3071C35.7882 49.4631 36.2166 49.4631 36.5992 49.3071L36.2216 48.3811ZM35.7828 48.3809L7.0121 36.6826L6.63544 37.6089L35.4062 49.3073L35.7828 48.3809ZM7.01446 36.6835C6.90451 36.6382 6.81051 36.5612 6.74436 36.4623L5.91328 37.0185C6.08956 37.2819 6.34007 37.4871 6.63308 37.6079L7.01446 36.6835ZM6.74436 36.4623C6.67821 36.3635 6.6429 36.2472 6.6429 36.1283H5.6429C5.6429 36.4453 5.737 36.7551 5.91328 37.0185L6.74436 36.4623ZM6.6429 36.1283C6.6429 36.0094 6.67821 35.8931 6.74436 35.7943L5.91328 35.2381C5.737 35.5015 5.6429 35.8113 5.6429 36.1283H6.6429ZM6.74436 35.7943C6.81051 35.6954 6.90451 35.6184 7.01446 35.5731L6.63308 34.6486C6.34008 34.7695 6.08956 34.9747 5.91328 35.2381L6.74436 35.7943ZM7.01206 35.574L16.3332 31.7848L15.9566 30.8584L6.63547 34.6477L7.01206 35.574ZM16.3334 31.7847C16.5239 31.7072 16.6974 31.5929 16.8438 31.4483L16.1411 30.7368C16.0881 30.7891 16.0254 30.8304 15.9565 30.8585L16.3334 31.7847ZM16.8438 31.4483C16.9902 31.3037 17.1066 31.1317 17.1866 30.9421L16.2651 30.5537C16.2362 30.6223 16.1941 30.6845 16.1411 30.7368L16.8438 31.4483ZM17.1866 30.9421C17.2665 30.7525 17.3083 30.549 17.3096 30.3433L16.3096 30.337C16.3091 30.4115 16.294 30.4851 16.2651 30.5537L17.1866 30.9421ZM17.3096 30.3433C17.3109 30.1375 17.2716 29.9336 17.1941 29.743L16.2678 30.1199C16.2959 30.1888 16.3101 30.2626 16.3096 30.337L17.3096 30.3433ZM17.1941 29.743C17.1165 29.5524 17.0022 29.379 16.8576 29.2326L16.1461 29.9352C16.1984 29.9882 16.2398 30.0509 16.2678 30.1199L17.1941 29.743ZM16.8576 29.2326C16.713 29.0862 16.541 28.9697 16.3515 28.8898L15.963 29.8112C16.0316 29.8401 16.0938 29.8823 16.1461 29.9352L16.8576 29.2326ZM16.3515 28.8898C16.1619 28.8098 15.9584 28.768 15.7526 28.7668L15.7464 29.7667C15.8208 29.7672 15.8944 29.7823 15.963 29.8112L16.3515 28.8898ZM15.7526 28.7668C15.5469 28.7655 15.3429 28.8047 15.1523 28.8823L15.5292 29.8085C15.5982 29.7805 15.672 29.7663 15.7464 29.7667L15.7526 28.7668ZM15.1523 28.8823L5.82478 32.6779L6.20169 33.6042L15.5292 29.8085L15.1523 28.8823ZM5.82344 32.6785C5.13811 32.9597 4.55187 33.4383 4.13928 34.0536L4.96982 34.6105C5.27193 34.16 5.7012 33.8095 6.20303 33.6036L5.82344 32.6785ZM4.13928 34.0536C3.7267 34.6688 3.5064 35.3928 3.5064 36.1336H4.5064C4.5064 35.5912 4.66771 35.061 4.96982 34.6105L4.13928 34.0536ZM3.5064 36.1336C3.5064 36.8744 3.7267 37.5985 4.13928 38.2137L4.96982 37.6567C4.66771 37.2062 4.5064 36.6761 4.5064 36.1336H3.5064ZM4.13928 38.2137C4.55187 38.8289 5.1381 39.3076 5.82344 39.5888L6.20303 38.6636C5.7012 38.4577 5.27193 38.1072 4.96982 37.6567L4.13928 38.2137ZM5.82024 40.1493C5.13491 40.4304 4.54867 40.9091 4.13608 41.5243L4.96662 42.0813C5.26873 41.6308 5.698 41.2803 6.19983 41.0744L5.82024 40.1493ZM4.13608 41.5243C3.7235 42.1396 3.5032 42.8636 3.5032 43.6044H4.5032C4.5032 43.062 4.66451 42.5318 4.96662 42.0813L4.13608 41.5243ZM3.5032 43.6044C3.5032 44.3452 3.7235 45.0692 4.13608 45.6845L4.96662 45.1275C4.66451 44.677 4.5032 44.1468 4.5032 43.6044H3.5032ZM4.13608 45.6845C4.54867 46.2997 5.13491 46.7784 5.82024 47.0596L6.19983 46.1344C5.698 45.9285 5.26873 45.578 4.96662 45.1275L4.13608 45.6845ZM5.81704 47.62C5.1317 47.9012 4.54547 48.3799 4.13289 48.9951L4.96342 49.5521C5.26554 49.1016 5.6948 48.7511 6.19663 48.5452L5.81704 47.62ZM4.13289 48.9951C3.7203 49.6104 3.5 50.3344 3.5 51.0752H4.5C4.5 50.5328 4.66131 50.0026 4.96342 49.5521L4.13289 48.9951ZM3.5 51.0752C3.5 51.816 3.7203 52.54 4.13289 53.1553L4.96342 52.5983C4.66131 52.1478 4.5 51.6176 4.5 51.0752H3.5ZM4.13289 53.1553C4.54547 53.7705 5.13171 54.2492 5.81704 54.5304L6.19663 53.6052C5.6948 53.3993 5.26553 53.0488 4.96342 52.5983L4.13289 53.1553ZM5.81881 54.5311L34.6013 66.2124L34.9773 65.2858L6.19486 53.6045L5.81881 54.5311ZM34.5993 66.2116C35.4983 66.5808 36.5066 66.5808 37.4055 66.2116L37.0256 65.2866C36.3701 65.5558 35.6348 65.5558 34.9793 65.2866L34.5993 66.2116ZM37.4039 66.2123L66.181 54.5128L65.8044 53.5865L37.0273 65.2859L37.4039 66.2123ZM66.1823 54.5123C66.8678 54.2314 67.4542 53.7528 67.8669 53.1377L67.0365 52.5805C66.7343 53.031 66.305 53.3813 65.8031 53.587L66.1823 54.5123ZM67.8669 53.1377C68.2796 52.5225 68.5 51.7984 68.5 51.0576H67.5C67.5 51.6 67.3387 52.1301 67.0365 52.5805L67.8669 53.1377ZM68.5 51.0576C68.5 50.3168 68.2796 49.5927 67.8669 48.9776L67.0365 49.5347C67.3387 49.9851 67.5 50.5152 67.5 51.0576H68.5ZM67.8669 48.9776C67.4542 48.3624 66.8678 47.8839 66.1823 47.6029L65.8031 48.5282C66.305 48.7339 66.7343 49.0843 67.0365 49.5347L67.8669 48.9776ZM66.1823 47.0415C66.8678 46.7606 67.4542 46.2821 67.8669 45.6669L67.0365 45.1098C66.7343 45.5602 66.305 45.9105 65.8031 46.1162L66.1823 47.0415ZM67.8669 45.6669C68.2796 45.0517 68.5 44.3276 68.5 43.5868H67.5C67.5 44.1292 67.3387 44.6593 67.0365 45.1098L67.8669 45.6669ZM68.5 43.5868C68.5 42.846 68.2796 42.122 67.8669 41.5068L67.0365 42.0639C67.3387 42.5143 67.5 43.0444 67.5 43.5868H68.5ZM67.8669 41.5068C67.4542 40.8916 66.8678 40.4131 66.1823 40.1321L65.8031 41.0574C66.305 41.2631 66.7343 41.6135 67.0365 42.0639L67.8669 41.5068ZM66.1778 39.5779C66.8677 39.303 67.4585 38.8259 67.8725 38.2093L67.0423 37.6519C66.7407 38.1011 66.3103 38.4486 65.8076 38.6489L66.1778 39.5779ZM67.8725 38.2093C68.2865 37.5927 68.5044 36.8654 68.4977 36.1227L67.4977 36.1318C67.5026 36.6728 67.3439 37.2027 67.0423 37.6519L67.8725 38.2093ZM68.4977 36.1325C68.5055 35.3881 68.2878 34.6587 67.873 34.0405L67.0426 34.5976C67.3448 35.0481 67.5035 35.5795 67.4978 36.122L68.4977 36.1325ZM67.873 34.0405C67.4583 33.4222 66.8661 32.9441 66.1743 32.669L65.8048 33.5982C66.3088 33.7987 66.7404 34.1471 67.0426 34.5976L67.873 34.0405ZM66.1778 32.6704L59.6577 30.0203L59.2812 30.9467L65.8013 33.5968L66.1778 32.6704ZM64.9915 50.5061C65.1014 50.5515 65.1955 50.6285 65.2616 50.7273L66.0927 50.1711C65.9164 49.9077 65.6659 49.7026 65.3729 49.5817L64.9915 50.5061ZM62.2868 49.4014L64.9931 50.5068L65.3713 49.581L62.6649 48.4756L62.2868 49.4014ZM37.4071 58.7511L60.3996 49.4L60.0229 48.4736L37.0304 57.8247L37.4071 58.7511ZM34.6025 58.7504C35.5015 59.1196 36.5098 59.1196 37.4087 58.7504L37.0288 57.8254C36.3733 58.0946 35.638 58.0946 34.9825 57.8254L34.6025 58.7504ZM11.6106 49.3991L34.6041 58.7511L34.9809 57.8247L11.9874 48.4728L11.6106 49.3991ZM7.01223 50.5038L9.72646 49.3993L9.34954 48.4731L6.63531 49.5776L7.01223 50.5038ZM6.7448 50.7243C6.81094 50.6253 6.90496 50.5482 7.01496 50.5027L6.63258 49.5787C6.33979 49.6999 6.08951 49.9052 5.91342 50.1686L6.7448 50.7243ZM6.64334 51.0587C6.64334 50.9396 6.67865 50.8233 6.7448 50.7243L5.91342 50.1686C5.73733 50.432 5.64334 50.7418 5.64334 51.0587H6.64334ZM6.7448 51.393C6.67865 51.2941 6.64334 51.1777 6.64334 51.0587H5.64334C5.64334 51.3755 5.73733 51.6853 5.91342 51.9487L6.7448 51.393ZM7.01496 51.6146C6.90497 51.5691 6.81095 51.492 6.7448 51.393L5.91342 51.9487C6.08951 52.2122 6.33978 52.4175 6.63258 52.5386L7.01496 51.6146ZM35.7828 63.3118L7.0121 51.6135L6.63544 52.5398L35.4062 64.2382L35.7828 63.3118ZM36.2216 63.312C36.0811 63.3693 35.9238 63.3693 35.7833 63.312L35.4057 64.238C35.7882 64.394 36.2166 64.394 36.5992 64.238L36.2216 63.312ZM64.9939 51.6156L36.2221 63.3118L36.5987 64.2382L65.3705 52.542L64.9939 51.6156ZM65.2616 51.3954C65.1954 51.4942 65.1014 51.5712 64.9915 51.6166L65.3729 52.541C65.6659 52.4201 65.9164 52.2149 66.0927 51.9515L65.2616 51.3954ZM65.3631 51.0613C65.3631 51.1803 65.3277 51.2965 65.2616 51.3954L66.0927 51.9515C66.269 51.6881 66.3631 51.3783 66.3631 51.0613H65.3631ZM65.2616 50.7273C65.3277 50.8261 65.3631 50.9424 65.3631 51.0613H66.3631C66.3631 50.7444 66.269 50.4346 66.0927 50.1711L65.2616 50.7273ZM64.9915 43.0407C65.1014 43.086 65.1955 43.163 65.2616 43.2618L66.0927 42.7057C65.9164 42.4423 65.6659 42.2371 65.3729 42.1162L64.9915 43.0407ZM62.2868 41.9359L64.9931 43.0413L65.3713 42.1156L62.6649 41.0102L62.2868 41.9359ZM37.4071 51.2856L60.3996 41.9345L60.0229 41.0082L37.0304 50.3593L37.4071 51.2856ZM34.6025 51.2849C35.5015 51.6542 36.5098 51.6542 37.4087 51.2849L37.0288 50.3599C36.3733 50.6292 35.638 50.6292 34.9825 50.3599L34.6025 51.2849ZM11.6106 41.9337L34.6041 51.2856L34.9809 50.3593L11.9874 41.0074L11.6106 41.9337ZM7.01223 43.0384L9.72646 41.9339L9.34954 41.0076L6.63531 42.1121L7.01223 43.0384ZM6.7448 43.2589C6.81095 43.1599 6.90496 43.0828 7.01495 43.0373L6.63258 42.1132C6.33979 42.2344 6.08951 42.4397 5.91342 42.7031L6.7448 43.2589ZM6.64334 43.5932C6.64334 43.4742 6.67865 43.3578 6.7448 43.2589L5.91342 42.7031C5.73733 42.9666 5.64334 43.2763 5.64334 43.5932H6.64334ZM6.7448 43.9276C6.67865 43.8286 6.64334 43.7123 6.64334 43.5932H5.64334C5.64334 43.9101 5.73733 44.2198 5.91342 44.4833L6.7448 43.9276ZM7.01495 44.1492C6.90497 44.1037 6.81095 44.0265 6.7448 43.9276L5.91342 44.4833C6.08951 44.7467 6.33978 44.952 6.63258 45.0732L7.01495 44.1492ZM35.7828 55.8464L7.0121 44.148L6.63544 45.0744L35.4062 56.7727L35.7828 55.8464ZM36.2216 55.8466C36.0811 55.9038 35.9238 55.9038 35.7833 55.8466L35.4057 56.7725C35.7882 56.9285 36.2166 56.9285 36.5992 56.7725L36.2216 55.8466ZM64.9939 44.1501L36.2221 55.8464L36.5987 56.7727L65.3705 45.0765L64.9939 44.1501ZM65.2616 43.9299C65.1954 44.0288 65.1014 44.1058 64.9915 44.1511L65.3729 45.0755C65.6659 44.9546 65.9164 44.7495 66.0927 44.4861L65.2616 43.9299ZM65.3631 43.5959C65.3631 43.7148 65.3277 43.8311 65.2616 43.9299L66.0927 44.4861C66.269 44.2227 66.3631 43.9128 66.3631 43.5959H65.3631ZM65.2616 43.2618C65.3277 43.3607 65.3631 43.4769 65.3631 43.5959H66.3631C66.3631 43.2789 66.269 42.9691 66.0927 42.7057L65.2616 43.2618ZM11.9874 48.4728C11.1417 48.1289 10.1951 48.129 9.34954 48.4731L9.72646 49.3993C10.3305 49.1535 11.0066 49.1535 11.6106 49.3991L11.9874 48.4728ZM62.6649 48.4756C61.8183 48.1298 60.87 48.1291 60.0229 48.4736L60.3996 49.4C61.0047 49.1539 61.6821 49.1544 62.2868 49.4014L62.6649 48.4756ZM11.9874 41.0074C11.1417 40.6634 10.1951 40.6635 9.34954 41.0076L9.72646 41.9339C10.3305 41.6881 11.0066 41.688 11.6106 41.9337L11.9874 41.0074ZM59.6577 30.0203C58.6269 29.6013 57.5 30.3598 57.5 31.4724H58.5C58.5 31.0696 58.908 30.795 59.2812 30.9467L59.6577 30.0203ZM66.1808 47.6023C65.9328 47.5016 65.9285 47.1455 66.1822 47.0416L65.8032 46.1162C64.7262 46.5573 64.7203 48.0885 65.8046 48.5288L66.1808 47.6023ZM62.6649 41.0102C61.8183 40.6644 60.87 40.6637 60.0229 41.0082L60.3996 41.9345C61.0047 41.6884 61.6821 41.6889 62.2868 41.9359L62.6649 41.0102ZM58.8539 31.9982C58.6399 31.9113 58.5 31.7034 58.5 31.4724H57.5C57.5 32.1103 57.8865 32.6846 58.4775 32.9247L58.8539 31.9982ZM5.82177 47.0602C6.06449 47.1589 6.07405 47.5147 5.81722 47.62L6.19645 48.5453C7.26787 48.1062 7.28541 46.5756 6.1983 46.1338L5.82177 47.0602ZM66.1797 40.131C65.9367 40.0331 65.9287 39.6799 66.1822 39.5761L65.8032 38.6507C64.7303 39.0902 64.7194 40.6205 65.8058 41.0585L66.1797 40.131ZM5.82496 39.5894C6.06769 39.6881 6.07725 40.0439 5.82042 40.1492L6.19965 41.0745C7.27107 40.6354 7.2886 39.1049 6.2015 38.663L5.82496 39.5894Z" fill="black" mask="url(#path-4-outside-3_5710_43305)"/>
<path d="M10 20.4806V19.7982C10.3503 18.9518 10.9897 18.6366 11.8921 18.6835C12.7946 18.7304 13.6736 18.6939 14.5773 18.6939V15.7652C14.1957 15.7652 13.8546 15.7822 13.5147 15.7652C12.6448 15.7118 12.025 15.062 12.0536 14.2534C12.0822 13.4447 12.7047 12.8743 13.5655 12.8496C13.9014 12.8405 14.2387 12.8496 14.6177 12.8496C14.6177 11.4354 14.6177 10.0902 14.6177 8.74497C14.6177 7.55865 15.1672 7 16.3353 7H43.0764C44.1989 7 44.7614 7.56126 44.7627 8.67075C44.7627 10.5225 44.7627 12.3738 44.7627 14.2247V14.7573C46.466 14.7573 48.0925 14.7769 49.719 14.7482C50.0418 14.7316 50.3642 14.7873 50.6627 14.9112C50.9612 15.0351 51.2283 15.2241 51.4444 15.4644C54.0489 18.173 56.6702 20.8556 59.2734 23.5603C59.5599 23.8572 59.7604 24.2375 60 24.5787V35.4001C59.6614 36.2557 59.0194 36.5942 58.117 36.533C57.6638 36.5018 57.2054 36.5395 56.751 36.5226C56.4736 36.5135 56.3251 36.5903 56.2131 36.8755C55.2547 39.3067 53.1139 40.7822 50.5771 40.7939C48.0404 40.8056 45.8892 39.325 44.8956 36.8612C44.7901 36.6007 44.6625 36.5239 44.3994 36.5239C39.9892 36.5291 35.5782 36.5291 31.1663 36.5239C30.9058 36.5239 30.7756 36.5877 30.6649 36.8547C29.6687 39.3289 27.5396 40.7991 24.9898 40.7939C22.4401 40.7887 20.3019 39.3068 19.3226 36.839C19.221 36.5786 19.0999 36.494 18.829 36.4992C18.0321 36.5161 17.2338 36.507 16.4369 36.4992C15.1346 36.4992 14.6138 35.9705 14.6138 34.6578V21.6187C13.6553 21.6187 12.7633 21.5901 11.8726 21.6265C10.9819 21.663 10.3308 21.3439 10 20.4806ZM17.5737 18.6939H18.3824C20.6118 18.6939 22.8412 18.6861 25.0706 18.6939C26.1124 18.6939 26.7843 19.4753 26.6085 20.4285C26.4783 21.1616 25.8741 21.6109 24.9911 21.6122C22.7136 21.6122 20.4334 21.6122 18.1558 21.6122C17.9683 21.6122 17.7795 21.6278 17.5763 21.6356V33.5379H19.053C19.0921 33.4168 19.1286 33.3113 19.1598 33.2033C19.9151 30.5168 22.2278 28.7314 24.9716 28.7158C26.2992 28.7003 27.5942 29.127 28.6526 29.9286C29.7109 30.7302 30.4725 31.8612 30.8173 33.1434C30.9241 33.5236 31.0959 33.5991 31.4567 33.5978C34.7278 33.5848 37.999 33.59 41.2702 33.5887C41.4278 33.5887 41.5853 33.5718 41.7911 33.5601V9.95213H17.5789V12.8444H23.3556C24.3478 12.8444 25.3414 12.8287 26.3324 12.8574C26.6877 12.8635 27.0275 13.0041 27.2832 13.2508C27.5388 13.4976 27.6914 13.8321 27.7102 14.1869C27.7438 14.5472 27.6391 14.9067 27.4173 15.1926C27.1956 15.4784 26.8733 15.6692 26.516 15.7262C26.3071 15.7583 26.0958 15.7723 25.8845 15.7678C23.3139 15.7678 20.7424 15.7678 18.1701 15.7678H17.5737V18.6939ZM57.0609 26.377H44.7692V32.8738C45.9556 30.1391 47.9076 28.626 50.8246 28.7588C53.8861 28.8994 55.6988 30.6978 56.5322 33.5666H57.0531L57.0609 26.377ZM54.9773 23.4041C54.961 23.3559 54.9396 23.3096 54.9135 23.266C53.1772 21.4672 51.4362 19.6715 49.6903 17.8787C49.5781 17.7681 49.4296 17.702 49.2723 17.6925C47.8256 17.6795 46.3775 17.6925 44.9307 17.6925C44.8721 17.7027 44.8154 17.7221 44.7627 17.7498V23.4054L54.9773 23.4041ZM21.8958 34.6891C21.8808 35.3062 22.0497 35.9139 22.3809 36.4348C22.7121 36.9558 23.1907 37.3665 23.7558 37.6149C24.321 37.8632 24.9472 37.938 25.5549 37.8296C26.1627 37.7213 26.7245 37.4347 27.169 37.0064C27.6135 36.578 27.9207 36.0272 28.0514 35.4239C28.1822 34.8206 28.1307 34.192 27.9034 33.6181C27.6761 33.0441 27.2834 32.5507 26.775 32.2004C26.2667 31.8502 25.6657 31.6589 25.0484 31.651C24.6416 31.642 24.237 31.7136 23.8579 31.8617C23.4788 32.0098 23.1328 32.2314 22.8397 32.5138C22.5467 32.7962 22.3124 33.1338 22.1504 33.5071C21.9884 33.8805 21.9019 34.2822 21.8958 34.6891V34.6891ZM50.5524 37.8626C51.1671 37.8623 51.7679 37.6797 52.2787 37.3377C52.7896 36.9958 53.1874 36.5099 53.422 35.9417C53.6565 35.3735 53.7171 34.7485 53.5962 34.1458C53.4752 33.5431 53.1782 32.9898 52.7426 32.5561C52.307 32.1223 51.7525 31.8276 51.1493 31.7092C50.5461 31.5908 49.9213 31.654 49.3541 31.8909C48.7869 32.1278 48.3027 32.5277 47.9629 33.04C47.6231 33.5522 47.443 34.1538 47.4453 34.7685C47.4439 35.1763 47.5234 35.5804 47.6793 35.9572C47.8351 36.3341 48.0641 36.6763 48.3531 36.9641C48.642 37.2518 48.9852 37.4794 49.3627 37.6336C49.7402 37.7879 50.1446 37.8657 50.5524 37.8626V37.8626Z" fill="black"/>
<path d="M17.5737 18.6939V15.7731H18.1636C20.736 15.7731 23.3074 15.7731 25.878 15.7731C26.0893 15.7775 26.3006 15.7636 26.5096 15.7314C26.869 15.6759 27.1936 15.485 27.4169 15.1978C27.6401 14.9107 27.7451 14.549 27.7102 14.187C27.6916 13.8332 27.5399 13.4996 27.2856 13.253C27.0312 13.0064 26.6931 12.8651 26.339 12.8574C25.348 12.8288 24.3544 12.8457 23.3621 12.8444H17.5789V9.95215H41.7885V33.5692C41.5853 33.5809 41.4278 33.5978 41.2676 33.5978C37.9964 33.5978 34.7253 33.5978 31.4541 33.607C31.0934 33.607 30.9215 33.5327 30.8147 33.1525C30.4699 31.8703 29.7084 30.7394 28.65 29.9378C27.5916 29.1361 26.2966 28.7095 24.969 28.7249C22.2253 28.7406 19.9125 30.5259 19.1572 33.2124C19.126 33.3205 19.0895 33.4259 19.0504 33.5471H17.5763V21.6448C17.7795 21.637 17.967 21.6213 18.1558 21.6213C20.4347 21.6213 22.7136 21.6213 24.9912 21.6213C25.8741 21.6213 26.4744 21.1708 26.6085 20.4376C26.7843 19.4831 26.1124 18.7083 25.0706 18.7031C22.8412 18.6913 20.6118 18.7031 18.3824 18.7031L17.5737 18.6939Z" fill="#FFA600"/>
<path d="M57.0612 26.3719V33.5615H56.5403C55.7069 30.6966 53.8942 28.8943 50.8327 28.7537C47.9157 28.6235 45.9637 30.1367 44.7773 32.8687V26.3719H57.0612Z" fill="#FFA600"/>
</svg>
