<svg width="72" height="72" viewBox="0 0 72 72" fill="none" xmlns="http://www.w3.org/2000/svg">
<g id="forecasted-inventor">
<g id="Group 1171275582">
<g id="Group">
<path id="Vector" d="M30.0705 52.786C28.7196 54.026 27.092 54.2024 25.3673 54.1892C20.4794 54.1522 15.5915 54.1776 10.7035 54.1754C7.27049 54.1744 5.00206 51.8964 5.001 48.4518C4.99994 43.3026 4.99942 38.1533 5.001 33.004C5.00206 29.5731 7.28158 27.3052 10.7262 27.3031C12.4789 27.3021 14.231 27.3031 15.8855 27.3031C15.5978 21.2332 15.7741 15.1838 15.7746 9.13764C15.7746 6.40253 18.1386 4.05543 20.8764 4.03484C27.0139 3.98839 33.1525 3.98839 39.29 4.03484C42.0298 4.05596 44.3674 6.39725 44.3922 9.13976C44.4419 14.6617 44.4139 20.1842 44.3975 25.7067C44.3959 26.2198 44.2444 26.7324 44.1531 27.3031C44.9027 27.3031 45.6603 27.2936 46.4178 27.3052C47.8337 27.3263 49.2659 27.2329 50.6617 27.415C53.2791 27.7566 55.1453 29.9976 55.1574 32.6699C55.1775 37.2405 55.1696 41.8117 55.1595 46.3824C55.1569 47.4995 55.206 48.6313 55.0487 49.7304C54.6902 52.2327 52.4957 54.1448 49.9628 54.1607C44.4778 54.195 38.9928 54.1813 33.5077 54.1649C32.2128 54.1612 31.0862 53.637 30.0705 52.786ZM35.5117 7.60036C35.4827 7.70278 35.4642 7.73762 35.4642 7.77193C35.4605 9.46917 35.4652 11.1664 35.4552 12.8637C35.4425 14.998 33.9121 16.5358 31.7894 16.5516C30.6517 16.5601 29.5136 16.5601 28.3759 16.5516C26.2521 16.5358 24.7206 14.9969 24.7096 12.8647C24.7011 11.3163 24.708 9.7685 24.708 8.22013C24.708 8.02269 24.708 7.82578 24.708 7.6484C24.5982 7.61937 24.5633 7.60248 24.5285 7.60248C23.4653 7.59931 22.402 7.59456 21.3388 7.59667C20.0402 7.59931 19.3349 8.30407 19.3344 9.60538C19.3322 14.828 19.3322 20.0512 19.3344 25.2738C19.3349 26.5978 20.0444 27.3021 21.379 27.3021C27.1802 27.3036 32.9809 27.3036 38.7821 27.3021C40.142 27.3015 40.8304 26.6015 40.8315 25.2221C40.8331 22.9653 40.832 20.7079 40.832 18.4511C40.832 15.4668 40.8357 12.482 40.8299 9.49768C40.8278 8.44713 40.1404 7.64048 39.1633 7.60881C37.9538 7.5708 36.7428 7.60036 35.5117 7.60036ZM24.7069 30.8887C24.7069 32.105 24.7159 33.2574 24.7048 34.4104C24.6847 36.5009 23.1438 38.035 21.048 38.0504C19.649 38.0604 18.25 38.0546 16.8511 38.0514C16.3289 38.0498 15.8005 38.0852 15.2868 38.016C13.464 37.7716 12.1859 36.2877 12.169 34.4294C12.1584 33.2617 12.1669 32.0934 12.1669 30.8866C11.6163 30.8866 11.1348 30.8861 10.6528 30.8866C9.27392 30.8892 8.58394 31.5723 8.58394 32.9439C8.58236 38.129 8.58289 43.3142 8.58394 48.4999C8.58394 49.9052 9.27181 50.593 10.6761 50.5936C15.8427 50.5946 21.0094 50.5946 26.1761 50.5936C27.621 50.5936 28.2904 49.9199 28.2904 48.4661C28.2909 43.4298 28.2909 38.394 28.2904 33.3577C28.2904 33.1154 28.2978 32.8726 28.2867 32.6303C28.2423 31.6769 27.5212 30.9325 26.5752 30.8934C25.9813 30.8686 25.3848 30.8887 24.7069 30.8887ZM35.4568 30.8861C34.8866 30.8861 34.3862 30.8845 33.8857 30.8866C32.5839 30.8913 31.8749 31.5919 31.8744 32.889C31.8723 38.1301 31.8717 43.3712 31.8744 48.6128C31.8749 49.8645 32.6024 50.5914 33.8551 50.592C39.0962 50.5946 44.3373 50.5946 49.579 50.592C50.8697 50.5914 51.5771 49.8761 51.5792 48.5759C51.5824 46.7667 51.5803 44.9576 51.5803 43.1479C51.5803 39.6974 51.5835 36.2465 51.5782 32.796C51.5766 31.811 50.9827 31.0217 50.0852 30.9225C49.4106 30.848 48.7211 30.9077 47.9974 30.9077C47.9974 32.0876 48.0037 33.2215 47.9958 34.356C47.9815 36.5162 46.4485 38.0419 44.2803 38.0509C42.5831 38.0583 40.8858 38.0572 39.1886 38.0509C36.9899 38.0424 35.4674 36.5162 35.4573 34.3159C35.4526 33.1988 35.4568 32.0818 35.4568 30.8861ZM28.3374 7.60881C28.3374 9.38365 28.3374 11.1548 28.3374 12.9333C29.5167 12.9333 30.6787 12.9333 31.8316 12.9333C31.8316 11.1368 31.8316 9.3789 31.8316 7.60881C30.6544 7.60881 29.5194 7.60881 28.3374 7.60881ZM21.0854 34.4437C21.0854 33.24 21.0854 32.0781 21.0854 30.9293C19.2879 30.9293 17.5294 30.9293 15.7789 30.9293C15.7789 32.1214 15.7789 33.2701 15.7789 34.4437C17.5526 34.4437 19.2979 34.4437 21.0854 34.4437ZM39.0751 30.8961C39.0751 32.1076 39.0751 33.2691 39.0751 34.4294C40.869 34.4294 42.6269 34.4294 44.369 34.4294C44.369 33.2273 44.369 32.0654 44.369 30.8961C42.5921 30.8961 40.8605 30.8961 39.0751 30.8961Z" fill="#4D0000"/>
</g>
<g id="Group 1171275581">
<g id="Vector_2">
<path d="M48.5119 38.8816C45.4237 39.5683 43.0904 40.873 40.8601 43.1907C39.0072 45.1134 37.9435 47.019 37.2229 49.6972C36.7082 51.6371 36.7082 54.9677 37.2229 56.9076C37.9607 59.6029 39.1616 61.7489 41.0831 63.6888C46.7791 69.44 56.2323 69.44 61.9454 63.6717C63.8669 61.7489 65.0679 59.6029 65.8056 56.9076C66.3203 54.9677 66.3203 51.6371 65.8056 49.6972C65.0507 46.8817 63.8326 44.7872 61.7738 42.813C59.6293 40.7357 57.2788 39.4481 54.5681 38.8987C52.9726 38.5726 49.953 38.5554 48.5119 38.8816ZM54.3279 42.0576C58.394 43.0876 61.6881 46.3838 62.7689 50.4697C63.1635 51.9462 63.1635 54.6586 62.7861 56.1179C61.4136 61.2854 56.7813 64.8906 51.5143 64.8906C46.2472 64.8906 41.6321 61.2854 40.2425 56.1179C39.865 54.6586 39.865 51.9462 40.2596 50.4697C41.8895 44.2894 48.2374 40.4953 54.3279 42.0576Z" fill="#4D0000"/>
<path d="M54.3279 42.0576C58.394 43.0876 61.6881 46.3838 62.7689 50.4697C63.1635 51.9462 63.1635 54.6586 62.7861 56.1179C61.4136 61.2854 56.7813 64.8906 51.5143 64.8906C46.2472 64.8906 41.6321 61.2854 40.2425 56.1179C39.865 54.6586 39.865 51.9462 40.2596 50.4697C41.8895 44.2894 48.2374 40.4953 54.3279 42.0576Z" fill="#E60000"/>
</g>
<path id="Vector_3" d="M49.3153 60.403H53.9549M49.3153 60.403V56.5367M49.3153 60.403H45.1397C45.0167 60.403 44.8987 60.3542 44.8117 60.2671C44.7247 60.1801 44.6758 60.0621 44.6758 59.9391V57.0007C44.6758 56.8776 44.7247 56.7596 44.8117 56.6726C44.8987 56.5856 45.0167 56.5367 45.1397 56.5367H49.3153M53.9549 60.403V51.1239M53.9549 60.403H58.1305C58.2535 60.403 58.3715 60.3542 58.4586 60.2671C58.5456 60.1801 58.5944 60.0621 58.5944 59.9391V46.9483C58.5944 46.8253 58.5456 46.7073 58.4586 46.6203C58.3715 46.5333 58.2535 46.4844 58.1305 46.4844H54.4188C54.2958 46.4844 54.1778 46.5333 54.0908 46.6203C54.0038 46.7073 53.9549 46.8253 53.9549 46.9483V51.1239M49.3153 56.5367V51.5879C49.3153 51.4648 49.3642 51.3468 49.4512 51.2598C49.5382 51.1728 49.6562 51.1239 49.7793 51.1239H53.9549" stroke="#4D0000" stroke-width="1.60513"/>
</g>
</g>
</g>
</svg>
