<svg width="72" height="72" viewBox="0 0 72 72" fill="none" xmlns="http://www.w3.org/2000/svg">
<g id="interwarehouse-transfer-request">
<g id="Group 1171275612">
<g id="Vector">
<path d="M61.6 24.12V58.2005H55.1999V32.6002H16.8001V58.2005H10.4V24.12L36.0001 13.88L61.6 24.12ZM68 64.6002V19.8001L36.0001 7L4 19.8001V64.6002H23.2001V39.0003H48.8002V64.6002H68Z" fill="#0B2D1F"/>
<path d="M61.6 24.12V58.2005H55.1999V32.6002H16.8001V58.2005H10.4V24.12L36.0001 13.88L61.6 24.12Z" fill="#22885E"/>
</g>
<g id="Group 1171275362">
<g id="Group">
<g id="Vector_2">
<mask id="path-2-outside-1_6476_46221" maskUnits="userSpaceOnUse" x="26" y="45" width="20" height="11" fill="black">
<rect fill="white" x="26" y="45" width="20" height="11"/>
<path d="M36.578 48.1102C37.0597 48.1114 37.5377 48.159 38.0099 48.252C38.4831 48.3438 38.9421 48.4809 39.388 48.6621C39.8339 48.8434 40.2583 49.0651 40.6613 49.3274C41.0642 49.5897 41.4386 49.8877 41.7831 50.2215H38.7061V52.3329H44.028C44.1687 52.3329 44.3046 52.3055 44.4345 52.253C44.5657 52.1994 44.6801 52.1231 44.7803 52.0241C44.8804 51.9252 44.9567 51.8107 45.0115 51.6808C45.0652 51.552 45.0926 51.4173 45.0926 51.2778V46H42.9634V48.4487C42.6224 48.1424 42.26 47.8622 41.8785 47.6071C41.4958 47.3531 41.0976 47.1266 40.6815 46.9299C40.2667 46.7332 39.8399 46.5663 39.3999 46.4304C38.9612 46.2945 38.5141 46.1907 38.0587 46.118C37.6045 46.0465 37.1467 46.0072 36.6865 46.0012C36.2263 45.994 35.7685 46.0215 35.3119 46.0799C34.8553 46.1395 34.4059 46.2313 33.9624 46.3553C33.5201 46.4793 33.0873 46.6342 32.6677 46.819C32.2468 47.005 31.8415 47.2196 31.4528 47.464C31.0642 47.7072 30.6946 47.9778 30.3441 48.2747C29.9948 48.5715 29.6681 48.891 29.3653 49.2356C29.0613 49.5789 28.7847 49.9426 28.5344 50.3252C28.284 50.7079 28.0635 51.1073 27.8715 51.5222C27.6796 51.9371 27.5186 52.3639 27.3887 52.8014C27.2587 53.2401 27.161 53.6848 27.0954 54.1367C27.031 54.5885 26.9988 55.0427 27 55.4993H29.1281C29.1281 55.2573 29.1412 55.0165 29.165 54.7757C29.1889 54.5348 29.2246 54.2952 29.2723 54.058C29.3212 53.8207 29.3796 53.5871 29.4512 53.3558C29.5215 53.1245 29.6038 52.8968 29.6979 52.6727C29.7909 52.4497 29.8958 52.2315 30.0103 52.0181C30.1259 51.8047 30.2511 51.5973 30.387 51.397C30.5217 51.1955 30.6672 51.0012 30.8222 50.814C30.9772 50.6269 31.1405 50.448 31.3134 50.2776C31.485 50.1059 31.6662 49.9437 31.8546 49.79C32.043 49.6374 32.2385 49.4931 32.4412 49.3584C32.6438 49.2237 32.8525 49.0997 33.0682 48.9852C33.2828 48.872 33.5034 48.7683 33.7287 48.6753C33.954 48.5823 34.1829 48.5012 34.4166 48.4309C34.6503 48.3605 34.8863 48.3009 35.1248 48.2544C35.3644 48.2067 35.6052 48.171 35.8484 48.1471C36.0904 48.1233 36.3336 48.1114 36.578 48.1102Z"/>
</mask>
<path d="M36.578 48.1102C37.0597 48.1114 37.5377 48.159 38.0099 48.252C38.4831 48.3438 38.9421 48.4809 39.388 48.6621C39.8339 48.8434 40.2583 49.0651 40.6613 49.3274C41.0642 49.5897 41.4386 49.8877 41.7831 50.2215H38.7061V52.3329H44.028C44.1687 52.3329 44.3046 52.3055 44.4345 52.253C44.5657 52.1994 44.6801 52.1231 44.7803 52.0241C44.8804 51.9252 44.9567 51.8107 45.0115 51.6808C45.0652 51.552 45.0926 51.4173 45.0926 51.2778V46H42.9634V48.4487C42.6224 48.1424 42.26 47.8622 41.8785 47.6071C41.4958 47.3531 41.0976 47.1266 40.6815 46.9299C40.2667 46.7332 39.8399 46.5663 39.3999 46.4304C38.9612 46.2945 38.5141 46.1907 38.0587 46.118C37.6045 46.0465 37.1467 46.0072 36.6865 46.0012C36.2263 45.994 35.7685 46.0215 35.3119 46.0799C34.8553 46.1395 34.4059 46.2313 33.9624 46.3553C33.5201 46.4793 33.0873 46.6342 32.6677 46.819C32.2468 47.005 31.8415 47.2196 31.4528 47.464C31.0642 47.7072 30.6946 47.9778 30.3441 48.2747C29.9948 48.5715 29.6681 48.891 29.3653 49.2356C29.0613 49.5789 28.7847 49.9426 28.5344 50.3252C28.284 50.7079 28.0635 51.1073 27.8715 51.5222C27.6796 51.9371 27.5186 52.3639 27.3887 52.8014C27.2587 53.2401 27.161 53.6848 27.0954 54.1367C27.031 54.5885 26.9988 55.0427 27 55.4993H29.1281C29.1281 55.2573 29.1412 55.0165 29.165 54.7757C29.1889 54.5348 29.2246 54.2952 29.2723 54.058C29.3212 53.8207 29.3796 53.5871 29.4512 53.3558C29.5215 53.1245 29.6038 52.8968 29.6979 52.6727C29.7909 52.4497 29.8958 52.2315 30.0103 52.0181C30.1259 51.8047 30.2511 51.5973 30.387 51.397C30.5217 51.1955 30.6672 51.0012 30.8222 50.814C30.9772 50.6269 31.1405 50.448 31.3134 50.2776C31.485 50.1059 31.6662 49.9437 31.8546 49.79C32.043 49.6374 32.2385 49.4931 32.4412 49.3584C32.6438 49.2237 32.8525 49.0997 33.0682 48.9852C33.2828 48.872 33.5034 48.7683 33.7287 48.6753C33.954 48.5823 34.1829 48.5012 34.4166 48.4309C34.6503 48.3605 34.8863 48.3009 35.1248 48.2544C35.3644 48.2067 35.6052 48.171 35.8484 48.1471C36.0904 48.1233 36.3336 48.1114 36.578 48.1102Z" fill="#0B2D1F"/>
<path d="M36.578 48.1102C37.0597 48.1114 37.5377 48.159 38.0099 48.252C38.4831 48.3438 38.9421 48.4809 39.388 48.6621C39.8339 48.8434 40.2583 49.0651 40.6613 49.3274C41.0642 49.5897 41.4386 49.8877 41.7831 50.2215H38.7061V52.3329H44.028C44.1687 52.3329 44.3046 52.3055 44.4345 52.253C44.5657 52.1994 44.6801 52.1231 44.7803 52.0241C44.8804 51.9252 44.9567 51.8107 45.0115 51.6808C45.0652 51.552 45.0926 51.4173 45.0926 51.2778V46H42.9634V48.4487C42.6224 48.1424 42.26 47.8622 41.8785 47.6071C41.4958 47.3531 41.0976 47.1266 40.6815 46.9299C40.2667 46.7332 39.8399 46.5663 39.3999 46.4304C38.9612 46.2945 38.5141 46.1907 38.0587 46.118C37.6045 46.0465 37.1467 46.0072 36.6865 46.0012C36.2263 45.994 35.7685 46.0215 35.3119 46.0799C34.8553 46.1395 34.4059 46.2313 33.9624 46.3553C33.5201 46.4793 33.0873 46.6342 32.6677 46.819C32.2468 47.005 31.8415 47.2196 31.4528 47.464C31.0642 47.7072 30.6946 47.9778 30.3441 48.2747C29.9948 48.5715 29.6681 48.891 29.3653 49.2356C29.0613 49.5789 28.7847 49.9426 28.5344 50.3252C28.284 50.7079 28.0635 51.1073 27.8715 51.5222C27.6796 51.9371 27.5186 52.3639 27.3887 52.8014C27.2587 53.2401 27.161 53.6848 27.0954 54.1367C27.031 54.5885 26.9988 55.0427 27 55.4993H29.1281C29.1281 55.2573 29.1412 55.0165 29.165 54.7757C29.1889 54.5348 29.2246 54.2952 29.2723 54.058C29.3212 53.8207 29.3796 53.5871 29.4512 53.3558C29.5215 53.1245 29.6038 52.8968 29.6979 52.6727C29.7909 52.4497 29.8958 52.2315 30.0103 52.0181C30.1259 51.8047 30.2511 51.5973 30.387 51.397C30.5217 51.1955 30.6672 51.0012 30.8222 50.814C30.9772 50.6269 31.1405 50.448 31.3134 50.2776C31.485 50.1059 31.6662 49.9437 31.8546 49.79C32.043 49.6374 32.2385 49.4931 32.4412 49.3584C32.6438 49.2237 32.8525 49.0997 33.0682 48.9852C33.2828 48.872 33.5034 48.7683 33.7287 48.6753C33.954 48.5823 34.1829 48.5012 34.4166 48.4309C34.6503 48.3605 34.8863 48.3009 35.1248 48.2544C35.3644 48.2067 35.6052 48.171 35.8484 48.1471C36.0904 48.1233 36.3336 48.1114 36.578 48.1102Z" stroke="#0B2D1F" stroke-width="0.8" mask="url(#path-2-outside-1_6476_46221)"/>
</g>
</g>
<g id="Vector_3">
<mask id="path-3-outside-2_6476_46221" maskUnits="userSpaceOnUse" x="27.0625" y="54.5" width="20" height="11" fill="black">
<rect fill="white" x="27.0625" y="54.5" width="20" height="11"/>
<path d="M44.0258 55.5C44.0258 55.8612 43.9996 56.2213 43.9472 56.5789C43.8935 56.9366 43.8148 57.2895 43.7099 57.6352C43.6038 57.9821 43.4739 58.3183 43.3189 58.6462C43.1639 58.9728 42.9851 59.2876 42.7836 59.5892C42.5821 59.8896 42.3592 60.1757 42.116 60.444C41.8716 60.7134 41.6093 60.9626 41.3291 61.1927C41.0478 61.424 40.7509 61.6326 40.4398 61.8198C40.1274 62.0081 39.8031 62.1715 39.4669 62.3121C39.1319 62.4516 38.7862 62.5673 38.4333 62.6567C38.0804 62.7473 37.7228 62.8105 37.3603 62.8486C36.9967 62.8868 36.6331 62.8975 36.2695 62.882C35.9047 62.8677 35.5435 62.826 35.1858 62.758C34.827 62.6901 34.4765 62.5959 34.1319 62.4779C33.7874 62.3586 33.4536 62.2156 33.1305 62.0475C32.8074 61.8794 32.4986 61.6898 32.2041 61.4764C31.9097 61.2642 31.6319 61.0305 31.3708 60.7778H34.4478V58.6664H29.1259C28.9853 58.6664 28.8493 58.6939 28.7194 58.7475C28.5883 58.8012 28.4738 58.8775 28.3737 58.9764C28.2735 59.0754 28.1972 59.1886 28.1424 59.3186C28.0887 59.4473 28.0625 59.582 28.0625 59.7227V65.0005H30.1905V62.5506C30.5315 62.857 30.8939 63.1383 31.2754 63.3923C31.6581 63.6462 32.0563 63.8727 32.4724 64.0694C32.8873 64.2673 33.3141 64.433 33.754 64.5689C34.1927 64.7049 34.6398 64.8098 35.0952 64.8813C35.5494 64.9528 36.0072 64.9922 36.4674 64.9981C36.9276 65.0053 37.3854 64.9791 37.842 64.9194C38.2986 64.8598 38.748 64.768 39.1915 64.6441C39.6338 64.5201 40.0666 64.3663 40.4863 64.1803C40.9071 63.9943 41.3124 63.7797 41.7011 63.5353C42.0909 63.2921 42.4593 63.0215 42.8098 62.7246C43.1591 62.4278 43.4858 62.1083 43.7898 61.7649C44.0926 61.4204 44.3692 61.058 44.6196 60.6741C44.8699 60.2914 45.0905 59.892 45.2824 59.4771C45.4744 59.0622 45.6353 58.6354 45.7652 58.1979C45.8952 57.7604 45.993 57.3145 46.0585 56.8627C46.1229 56.4108 46.1551 55.9566 46.1539 55.5H44.0258Z"/>
</mask>
<path d="M44.0258 55.5C44.0258 55.8612 43.9996 56.2213 43.9472 56.5789C43.8935 56.9366 43.8148 57.2895 43.7099 57.6352C43.6038 57.9821 43.4739 58.3183 43.3189 58.6462C43.1639 58.9728 42.9851 59.2876 42.7836 59.5892C42.5821 59.8896 42.3592 60.1757 42.116 60.444C41.8716 60.7134 41.6093 60.9626 41.3291 61.1927C41.0478 61.424 40.7509 61.6326 40.4398 61.8198C40.1274 62.0081 39.8031 62.1715 39.4669 62.3121C39.1319 62.4516 38.7862 62.5673 38.4333 62.6567C38.0804 62.7473 37.7228 62.8105 37.3603 62.8486C36.9967 62.8868 36.6331 62.8975 36.2695 62.882C35.9047 62.8677 35.5435 62.826 35.1858 62.758C34.827 62.6901 34.4765 62.5959 34.1319 62.4779C33.7874 62.3586 33.4536 62.2156 33.1305 62.0475C32.8074 61.8794 32.4986 61.6898 32.2041 61.4764C31.9097 61.2642 31.6319 61.0305 31.3708 60.7778H34.4478V58.6664H29.1259C28.9853 58.6664 28.8493 58.6939 28.7194 58.7475C28.5883 58.8012 28.4738 58.8775 28.3737 58.9764C28.2735 59.0754 28.1972 59.1886 28.1424 59.3186C28.0887 59.4473 28.0625 59.582 28.0625 59.7227V65.0005H30.1905V62.5506C30.5315 62.857 30.8939 63.1383 31.2754 63.3923C31.6581 63.6462 32.0563 63.8727 32.4724 64.0694C32.8873 64.2673 33.3141 64.433 33.754 64.5689C34.1927 64.7049 34.6398 64.8098 35.0952 64.8813C35.5494 64.9528 36.0072 64.9922 36.4674 64.9981C36.9276 65.0053 37.3854 64.9791 37.842 64.9194C38.2986 64.8598 38.748 64.768 39.1915 64.6441C39.6338 64.5201 40.0666 64.3663 40.4863 64.1803C40.9071 63.9943 41.3124 63.7797 41.7011 63.5353C42.0909 63.2921 42.4593 63.0215 42.8098 62.7246C43.1591 62.4278 43.4858 62.1083 43.7898 61.7649C44.0926 61.4204 44.3692 61.058 44.6196 60.6741C44.8699 60.2914 45.0905 59.892 45.2824 59.4771C45.4744 59.0622 45.6353 58.6354 45.7652 58.1979C45.8952 57.7604 45.993 57.3145 46.0585 56.8627C46.1229 56.4108 46.1551 55.9566 46.1539 55.5H44.0258Z" fill="#0B2D1F"/>
<path d="M44.0258 55.5C44.0258 55.8612 43.9996 56.2213 43.9472 56.5789C43.8935 56.9366 43.8148 57.2895 43.7099 57.6352C43.6038 57.9821 43.4739 58.3183 43.3189 58.6462C43.1639 58.9728 42.9851 59.2876 42.7836 59.5892C42.5821 59.8896 42.3592 60.1757 42.116 60.444C41.8716 60.7134 41.6093 60.9626 41.3291 61.1927C41.0478 61.424 40.7509 61.6326 40.4398 61.8198C40.1274 62.0081 39.8031 62.1715 39.4669 62.3121C39.1319 62.4516 38.7862 62.5673 38.4333 62.6567C38.0804 62.7473 37.7228 62.8105 37.3603 62.8486C36.9967 62.8868 36.6331 62.8975 36.2695 62.882C35.9047 62.8677 35.5435 62.826 35.1858 62.758C34.827 62.6901 34.4765 62.5959 34.1319 62.4779C33.7874 62.3586 33.4536 62.2156 33.1305 62.0475C32.8074 61.8794 32.4986 61.6898 32.2041 61.4764C31.9097 61.2642 31.6319 61.0305 31.3708 60.7778H34.4478V58.6664H29.1259C28.9853 58.6664 28.8493 58.6939 28.7194 58.7475C28.5883 58.8012 28.4738 58.8775 28.3737 58.9764C28.2735 59.0754 28.1972 59.1886 28.1424 59.3186C28.0887 59.4473 28.0625 59.582 28.0625 59.7227V65.0005H30.1905V62.5506C30.5315 62.857 30.8939 63.1383 31.2754 63.3923C31.6581 63.6462 32.0563 63.8727 32.4724 64.0694C32.8873 64.2673 33.3141 64.433 33.754 64.5689C34.1927 64.7049 34.6398 64.8098 35.0952 64.8813C35.5494 64.9528 36.0072 64.9922 36.4674 64.9981C36.9276 65.0053 37.3854 64.9791 37.842 64.9194C38.2986 64.8598 38.748 64.768 39.1915 64.6441C39.6338 64.5201 40.0666 64.3663 40.4863 64.1803C40.9071 63.9943 41.3124 63.7797 41.7011 63.5353C42.0909 63.2921 42.4593 63.0215 42.8098 62.7246C43.1591 62.4278 43.4858 62.1083 43.7898 61.7649C44.0926 61.4204 44.3692 61.058 44.6196 60.6741C44.8699 60.2914 45.0905 59.892 45.2824 59.4771C45.4744 59.0622 45.6353 58.6354 45.7652 58.1979C45.8952 57.7604 45.993 57.3145 46.0585 56.8627C46.1229 56.4108 46.1551 55.9566 46.1539 55.5H44.0258Z" stroke="#0B2D1F" stroke-width="0.8" mask="url(#path-3-outside-2_6476_46221)"/>
</g>
</g>
</g>
</g>
</svg>
