<svg width="72" height="72" viewBox="0 0 72 72" fill="none" xmlns="http://www.w3.org/2000/svg">
<g id="inventory-report">
<g id="Group">
<g id="Vector">
<path d="M29.887 4.07675C27.9495 4.40174 25.9246 5.37672 24.5871 6.62668L23.6622 7.48916H19.9123C15.8249 7.48916 15.2624 7.55166 14.0874 8.13914C12.675 8.85162 11.4875 10.3891 11.15 11.964C10.95 12.9015 10.95 62.5751 11.15 63.5126C11.35 64.4376 11.925 65.5376 12.5875 66.2375C13.2374 66.925 14.5249 67.65 15.4874 67.85C16.4249 68.05 56.3488 68.05 57.2862 67.85C59.4112 67.4 61.1736 65.6251 61.6236 63.5126C61.8236 62.5626 61.8236 12.9015 61.6236 11.964C61.1736 9.85159 59.3862 8.06414 57.2862 7.62666C56.8862 7.53916 55.1363 7.48916 52.8614 7.48916H49.099L48.2615 6.68918C47.3115 5.8017 46.3615 5.18922 45.0866 4.68924C43.4491 4.02675 42.8991 3.98926 36.2868 4.00175C32.9369 4.01425 30.062 4.05175 29.887 4.07675ZM42.8741 7.92665C43.3116 8.03914 44.0241 8.30164 44.4366 8.51413C45.6865 9.17661 47.0865 10.7641 47.449 11.9515L47.524 12.239H36.3868H25.2496L25.3246 11.9515C25.5371 11.2891 26.1246 10.3766 26.8371 9.6516C27.662 8.81412 28.962 8.07664 30.0245 7.87665C30.3245 7.81415 33.1619 7.76415 36.3243 7.75165C41.0492 7.73915 42.2116 7.77665 42.8741 7.92665ZM21.4247 12.0765C21.3247 12.5515 21.2622 13.3765 21.2872 13.9515C21.3247 15.0515 21.5247 15.4139 22.2872 15.8139C22.7872 16.0764 49.9864 16.0764 50.4864 15.8139C51.2489 15.4139 51.4489 15.0515 51.4864 13.9515C51.5114 13.3765 51.4489 12.5515 51.3489 12.0765L51.1739 11.2391H53.8113C56.8362 11.2391 57.2362 11.3391 57.7362 12.2265L58.0112 12.714V37.7383V62.7626L57.7487 63.2376C57.5987 63.5001 57.2737 63.8251 57.0112 63.9751L56.5362 64.2376H36.3868H16.2374L15.7624 63.9751C15.4999 63.8251 15.1749 63.5001 15.0249 63.2376L14.7624 62.7626V37.7383V12.714L15.0374 12.2265C15.5374 11.3391 15.9249 11.2391 18.9623 11.2391H21.5997L21.4247 12.0765Z" fill="#4D0000"/>
<path d="M42.8741 7.92665C43.3116 8.03914 44.0241 8.30164 44.4366 8.51413C45.6865 9.17661 47.0865 10.7641 47.449 11.9515L47.524 12.239H36.3868H25.2496L25.3246 11.9515C25.5371 11.2891 26.1246 10.3766 26.8371 9.6516C27.662 8.81412 28.962 8.07664 30.0245 7.87665C30.3245 7.81415 33.1619 7.76415 36.3243 7.75165C41.0492 7.73915 42.2116 7.77665 42.8741 7.92665Z" fill="#E60000"/>
</g>
</g>
<g id="Group 1171275232">
<g id="products">
<g id="Group 159054">
<path id="Rectangle 34624447" d="M46.5 19.3333H25.5V23.3332H46.5V19.3333Z" fill="#E60000"/>
<path id="Rectangle 47 (Stroke)" fill-rule="evenodd" clip-rule="evenodd" d="M26.1333 19.6C25.8388 19.6 25.6 19.8388 25.6 20.1333V22.5333C25.6 22.8279 25.8388 23.0667 26.1333 23.0667H45.8667C46.1612 23.0667 46.4 22.8279 46.4 22.5333V20.1333C46.4 19.8388 46.1612 19.6 45.8667 19.6H26.1333ZM24 20.1333C24 18.9551 24.9551 18 26.1333 18H45.8667C47.0449 18 48 18.9551 48 20.1333V22.5333C48 23.7115 47.0449 24.6667 45.8667 24.6667H26.1333C24.9551 24.6667 24 23.7115 24 22.5333V20.1333Z" fill="#4D0000"/>
<g id="Rectangle 46">
<path id="Vector (Stroke)" fill-rule="evenodd" clip-rule="evenodd" d="M27.0995 24.9331V36.3998H44.8995V24.9331H27.0995ZM25.3779 24.9331C25.3779 23.4603 25.6267 22.9481 27.0995 22.9481L35.7484 22.948H44.8995C46.6372 22.9481 46.637 22.948 46.637 25.0221L46.6372 30.7258L46.6372 36.3998C46.6372 37.9851 46.6372 37.9851 44.8995 37.9851H36.2668H27.0993C25.3779 37.9851 25.3779 38.0148 25.3779 36.4295V30.7258V24.9331Z" fill="#4D0000"/>
</g>
<path id="Rectangle 48" d="M38.8167 27.3331H33.1833C33.0821 27.3331 33 27.4152 33 27.5165V29.8165C33 29.9177 33.0821 29.9998 33.1833 29.9998H38.8167C38.9179 29.9998 39 29.9177 39 29.8165V27.5165C39 27.4152 38.9179 27.3331 38.8167 27.3331Z" fill="#4D0000"/>
</g>
</g>
</g>
<path id="Vector_2" d="M42.2994 45.0899C41.4619 45.3524 40.8619 46.3649 41.0244 47.2523C41.1744 48.0398 41.9244 48.7148 42.6619 48.7148C42.8369 48.7148 42.9744 48.7523 42.9744 48.8148C42.9744 48.8648 41.9869 49.8898 40.7869 51.0897L38.5995 53.2772L35.5621 50.2398C32.2747 46.9649 32.0872 46.8274 31.1372 47.0774C30.7497 47.1899 29.9497 47.9273 26.8873 50.9897C23.6624 54.2272 23.1124 54.8396 23.0374 55.2396C22.8124 56.4646 23.6249 57.4646 24.8499 57.4646C25.1374 57.4646 25.4874 57.4021 25.6374 57.3271C25.7874 57.2521 27.1873 55.9146 28.7623 54.3647L31.5997 51.5272L34.5746 54.4897C36.1996 56.1146 37.662 57.5021 37.812 57.5771C38.162 57.7521 39.037 57.7521 39.387 57.5771C39.537 57.5021 41.0119 56.0896 42.6744 54.4397L45.6868 51.4397L45.7618 51.9397C46.0493 53.6772 48.4492 54.0397 49.2617 52.4647C49.4617 52.0772 49.4742 51.7022 49.4492 49.1273C49.4117 45.9399 49.3992 45.9274 48.5492 45.2899C48.2242 45.0399 48.0242 45.0274 45.4368 45.0024C43.9119 44.9899 42.4994 45.0274 42.2994 45.0899Z" fill="#4D0000"/>
</g>
</svg>
