<svg width="72" height="72" viewBox="0 0 72 72" fill="none" xmlns="http://www.w3.org/2000/svg">
<g id="inventory">
<g id="Group 1171275615">
<g id="Group 1171275613">
<g id="Vector">
<path d="M61.6 24.12V58.2005H55.1999V32.6002H16.8001V58.2005H10.4V24.12L36.0001 13.88L61.6 24.12ZM68 64.6002V19.8001L36.0001 7L4 19.8001V64.6002H23.2001V39.0003H48.8002V64.6002H68Z" fill="#0B2D1F"/>
<path d="M61.6 24.12V58.2005H55.1999V32.6002H16.8001V58.2005H10.4V24.12L36.0001 13.88L61.6 24.12Z" fill="#2EB67D"/>
</g>
</g>
<g id="Group 1171275614">
<rect id="Rectangle 34624705" x="26.3066" y="43.1973" width="8.27182" height="8.27182" fill="#2EB67D"/>
<g id="Group">
<g id="Vector_2">
<mask id="path-3-outside-1_6476_46229" maskUnits="userSpaceOnUse" x="25" y="42.2861" width="11" height="11" fill="black">
<rect fill="white" x="25" y="42.2861" width="11" height="11"/>
<path d="M26.6346 43.0729C26.4063 43.1774 26.2128 43.3631 26.1006 43.5875L26 43.7887V47.6427V51.4968L26.1006 51.698C26.2128 51.9224 26.4063 52.1081 26.6346 52.2126C26.7855 52.2823 26.9828 52.2861 30.6473 52.2861H34.4974L34.6986 52.1855C34.923 52.0733 35.1088 51.8798 35.2132 51.6515C35.2829 51.5006 35.2868 51.3033 35.2868 47.6427C35.2868 43.9822 35.2829 43.7849 35.2132 43.634C35.1088 43.4057 34.923 43.2122 34.6986 43.1L34.4974 42.9994H30.6473C26.9828 42.9994 26.7855 43.0032 26.6346 43.0729ZM34.4084 43.7075C34.4664 43.7423 34.5438 43.8197 34.5787 43.8777C34.6444 43.9745 34.6483 44.2105 34.6483 47.6427C34.6483 51.075 34.6444 51.311 34.5787 51.4078C34.5438 51.4658 34.4664 51.5432 34.4084 51.578C34.3117 51.6438 34.0756 51.6477 30.6434 51.6477C27.2111 51.6477 26.9751 51.6438 26.8784 51.578C26.8203 51.5432 26.7429 51.4658 26.7081 51.4078C26.6423 51.311 26.6385 51.0672 26.6269 47.7782C26.6191 45.8434 26.6269 44.1834 26.6385 44.0944C26.6656 43.8932 26.8126 43.7114 26.979 43.661C27.0525 43.6378 28.5848 43.6262 30.7014 43.6301C34.0717 43.6378 34.3117 43.6417 34.4084 43.7075Z"/>
</mask>
<path d="M26.6346 43.0729C26.4063 43.1774 26.2128 43.3631 26.1006 43.5875L26 43.7887V47.6427V51.4968L26.1006 51.698C26.2128 51.9224 26.4063 52.1081 26.6346 52.2126C26.7855 52.2823 26.9828 52.2861 30.6473 52.2861H34.4974L34.6986 52.1855C34.923 52.0733 35.1088 51.8798 35.2132 51.6515C35.2829 51.5006 35.2868 51.3033 35.2868 47.6427C35.2868 43.9822 35.2829 43.7849 35.2132 43.634C35.1088 43.4057 34.923 43.2122 34.6986 43.1L34.4974 42.9994H30.6473C26.9828 42.9994 26.7855 43.0032 26.6346 43.0729ZM34.4084 43.7075C34.4664 43.7423 34.5438 43.8197 34.5787 43.8777C34.6444 43.9745 34.6483 44.2105 34.6483 47.6427C34.6483 51.075 34.6444 51.311 34.5787 51.4078C34.5438 51.4658 34.4664 51.5432 34.4084 51.578C34.3117 51.6438 34.0756 51.6477 30.6434 51.6477C27.2111 51.6477 26.9751 51.6438 26.8784 51.578C26.8203 51.5432 26.7429 51.4658 26.7081 51.4078C26.6423 51.311 26.6385 51.0672 26.6269 47.7782C26.6191 45.8434 26.6269 44.1834 26.6385 44.0944C26.6656 43.8932 26.8126 43.7114 26.979 43.661C27.0525 43.6378 28.5848 43.6262 30.7014 43.6301C34.0717 43.6378 34.3117 43.6417 34.4084 43.7075Z" fill="#0B2D1F"/>
<path d="M26.6346 43.0729C26.4063 43.1774 26.2128 43.3631 26.1006 43.5875L26 43.7887V47.6427V51.4968L26.1006 51.698C26.2128 51.9224 26.4063 52.1081 26.6346 52.2126C26.7855 52.2823 26.9828 52.2861 30.6473 52.2861H34.4974L34.6986 52.1855C34.923 52.0733 35.1088 51.8798 35.2132 51.6515C35.2829 51.5006 35.2868 51.3033 35.2868 47.6427C35.2868 43.9822 35.2829 43.7849 35.2132 43.634C35.1088 43.4057 34.923 43.2122 34.6986 43.1L34.4974 42.9994H30.6473C26.9828 42.9994 26.7855 43.0032 26.6346 43.0729ZM34.4084 43.7075C34.4664 43.7423 34.5438 43.8197 34.5787 43.8777C34.6444 43.9745 34.6483 44.2105 34.6483 47.6427C34.6483 51.075 34.6444 51.311 34.5787 51.4078C34.5438 51.4658 34.4664 51.5432 34.4084 51.578C34.3117 51.6438 34.0756 51.6477 30.6434 51.6477C27.2111 51.6477 26.9751 51.6438 26.8784 51.578C26.8203 51.5432 26.7429 51.4658 26.7081 51.4078C26.6423 51.311 26.6385 51.0672 26.6269 47.7782C26.6191 45.8434 26.6269 44.1834 26.6385 44.0944C26.6656 43.8932 26.8126 43.7114 26.979 43.661C27.0525 43.6378 28.5848 43.6262 30.7014 43.6301C34.0717 43.6378 34.3117 43.6417 34.4084 43.7075Z" stroke="#0B2D1F" stroke-width="0.306364" mask="url(#path-3-outside-1_6476_46229)"/>
</g>
<g id="Vector_3">
<mask id="path-4-outside-2_6476_46229" maskUnits="userSpaceOnUse" x="36.0293" y="42.2861" width="11" height="11" fill="black">
<rect fill="white" x="36.0293" y="42.2861" width="11" height="11"/>
<path d="M37.6639 43.0729C37.4356 43.1774 37.2421 43.3631 37.1299 43.5875L37.0293 43.7887V47.6427V51.4968L37.1299 51.698C37.2421 51.9224 37.4356 52.1081 37.6639 52.2126C37.8148 52.2823 38.0121 52.2861 41.6766 52.2861H45.5267L45.7279 52.1855C45.9523 52.0733 46.1381 51.8798 46.2425 51.6515C46.3122 51.5006 46.3161 51.3033 46.3161 47.6427C46.3161 43.9822 46.3122 43.7849 46.2425 43.634C46.1381 43.4057 45.9523 43.2122 45.7279 43.1L45.5267 42.9994H41.6766C38.0121 42.9994 37.8148 43.0032 37.6639 43.0729ZM45.4377 43.7075C45.4957 43.7423 45.5731 43.8197 45.6079 43.8777C45.6737 43.9745 45.6776 44.2105 45.6776 47.6427C45.6776 51.075 45.6737 51.311 45.6079 51.4078C45.5731 51.4658 45.4957 51.5432 45.4377 51.578C45.341 51.6438 45.1049 51.6477 41.6727 51.6477C38.2404 51.6477 38.0044 51.6438 37.9077 51.578C37.8496 51.5432 37.7722 51.4658 37.7374 51.4078C37.6716 51.311 37.6678 51.0672 37.6562 47.7782C37.6484 45.8434 37.6562 44.1834 37.6678 44.0944C37.6948 43.8932 37.8419 43.7114 38.0083 43.661C38.0818 43.6378 39.6141 43.6262 41.7307 43.6301C45.101 43.6378 45.341 43.6417 45.4377 43.7075Z"/>
</mask>
<path d="M37.6639 43.0729C37.4356 43.1774 37.2421 43.3631 37.1299 43.5875L37.0293 43.7887V47.6427V51.4968L37.1299 51.698C37.2421 51.9224 37.4356 52.1081 37.6639 52.2126C37.8148 52.2823 38.0121 52.2861 41.6766 52.2861H45.5267L45.7279 52.1855C45.9523 52.0733 46.1381 51.8798 46.2425 51.6515C46.3122 51.5006 46.3161 51.3033 46.3161 47.6427C46.3161 43.9822 46.3122 43.7849 46.2425 43.634C46.1381 43.4057 45.9523 43.2122 45.7279 43.1L45.5267 42.9994H41.6766C38.0121 42.9994 37.8148 43.0032 37.6639 43.0729ZM45.4377 43.7075C45.4957 43.7423 45.5731 43.8197 45.6079 43.8777C45.6737 43.9745 45.6776 44.2105 45.6776 47.6427C45.6776 51.075 45.6737 51.311 45.6079 51.4078C45.5731 51.4658 45.4957 51.5432 45.4377 51.578C45.341 51.6438 45.1049 51.6477 41.6727 51.6477C38.2404 51.6477 38.0044 51.6438 37.9077 51.578C37.8496 51.5432 37.7722 51.4658 37.7374 51.4078C37.6716 51.311 37.6678 51.0672 37.6562 47.7782C37.6484 45.8434 37.6562 44.1834 37.6678 44.0944C37.6948 43.8932 37.8419 43.7114 38.0083 43.661C38.0818 43.6378 39.6141 43.6262 41.7307 43.6301C45.101 43.6378 45.341 43.6417 45.4377 43.7075Z" fill="#0B2D1F"/>
<path d="M37.6639 43.0729C37.4356 43.1774 37.2421 43.3631 37.1299 43.5875L37.0293 43.7887V47.6427V51.4968L37.1299 51.698C37.2421 51.9224 37.4356 52.1081 37.6639 52.2126C37.8148 52.2823 38.0121 52.2861 41.6766 52.2861H45.5267L45.7279 52.1855C45.9523 52.0733 46.1381 51.8798 46.2425 51.6515C46.3122 51.5006 46.3161 51.3033 46.3161 47.6427C46.3161 43.9822 46.3122 43.7849 46.2425 43.634C46.1381 43.4057 45.9523 43.2122 45.7279 43.1L45.5267 42.9994H41.6766C38.0121 42.9994 37.8148 43.0032 37.6639 43.0729ZM45.4377 43.7075C45.4957 43.7423 45.5731 43.8197 45.6079 43.8777C45.6737 43.9745 45.6776 44.2105 45.6776 47.6427C45.6776 51.075 45.6737 51.311 45.6079 51.4078C45.5731 51.4658 45.4957 51.5432 45.4377 51.578C45.341 51.6438 45.1049 51.6477 41.6727 51.6477C38.2404 51.6477 38.0044 51.6438 37.9077 51.578C37.8496 51.5432 37.7722 51.4658 37.7374 51.4078C37.6716 51.311 37.6678 51.0672 37.6562 47.7782C37.6484 45.8434 37.6562 44.1834 37.6678 44.0944C37.6948 43.8932 37.8419 43.7114 38.0083 43.661C38.0818 43.6378 39.6141 43.6262 41.7307 43.6301C45.101 43.6378 45.341 43.6417 45.4377 43.7075Z" stroke="#0B2D1F" stroke-width="0.306364" mask="url(#path-4-outside-2_6476_46229)"/>
</g>
<g id="Vector_4">
<mask id="path-5-outside-3_6476_46229" maskUnits="userSpaceOnUse" x="25" y="52.7021" width="11" height="11" fill="black">
<rect fill="white" x="25" y="52.7021" width="11" height="11"/>
<path d="M26.6346 53.4889C26.4063 53.5934 26.2128 53.7791 26.1006 54.0035L26 54.2048V58.0588V61.9128L26.1006 62.114C26.2128 62.3384 26.4063 62.5242 26.6346 62.6286C26.7855 62.6983 26.9828 62.7021 30.6473 62.7021H34.4974L34.6986 62.6015C34.923 62.4893 35.1088 62.2959 35.2132 62.0676C35.2829 61.9166 35.2868 61.7193 35.2868 58.0588C35.2868 54.3982 35.2829 54.2009 35.2132 54.05C35.1088 53.8217 34.923 53.6282 34.6986 53.516L34.4974 53.4154H30.6473C26.9828 53.4154 26.7855 53.4192 26.6346 53.4889ZM34.4084 54.1235C34.4664 54.1583 34.5438 54.2357 34.5787 54.2938C34.6444 54.3905 34.6483 54.6265 34.6483 58.0588C34.6483 61.491 34.6444 61.727 34.5787 61.8238C34.5438 61.8818 34.4664 61.9592 34.4084 61.994C34.3117 62.0598 34.0756 62.0637 30.6434 62.0637C27.2111 62.0637 26.9751 62.0598 26.8784 61.994C26.8203 61.9592 26.7429 61.8818 26.7081 61.8238C26.6423 61.727 26.6385 61.4833 26.6269 58.1942C26.6191 56.2595 26.6269 54.5994 26.6385 54.5104C26.6656 54.3092 26.8126 54.1274 26.979 54.0771C27.0525 54.0538 28.5848 54.0422 30.7014 54.0461C34.0717 54.0538 34.3117 54.0577 34.4084 54.1235Z"/>
</mask>
<path d="M26.6346 53.4889C26.4063 53.5934 26.2128 53.7791 26.1006 54.0035L26 54.2048V58.0588V61.9128L26.1006 62.114C26.2128 62.3384 26.4063 62.5242 26.6346 62.6286C26.7855 62.6983 26.9828 62.7021 30.6473 62.7021H34.4974L34.6986 62.6015C34.923 62.4893 35.1088 62.2959 35.2132 62.0676C35.2829 61.9166 35.2868 61.7193 35.2868 58.0588C35.2868 54.3982 35.2829 54.2009 35.2132 54.05C35.1088 53.8217 34.923 53.6282 34.6986 53.516L34.4974 53.4154H30.6473C26.9828 53.4154 26.7855 53.4192 26.6346 53.4889ZM34.4084 54.1235C34.4664 54.1583 34.5438 54.2357 34.5787 54.2938C34.6444 54.3905 34.6483 54.6265 34.6483 58.0588C34.6483 61.491 34.6444 61.727 34.5787 61.8238C34.5438 61.8818 34.4664 61.9592 34.4084 61.994C34.3117 62.0598 34.0756 62.0637 30.6434 62.0637C27.2111 62.0637 26.9751 62.0598 26.8784 61.994C26.8203 61.9592 26.7429 61.8818 26.7081 61.8238C26.6423 61.727 26.6385 61.4833 26.6269 58.1942C26.6191 56.2595 26.6269 54.5994 26.6385 54.5104C26.6656 54.3092 26.8126 54.1274 26.979 54.0771C27.0525 54.0538 28.5848 54.0422 30.7014 54.0461C34.0717 54.0538 34.3117 54.0577 34.4084 54.1235Z" fill="#0B2D1F"/>
<path d="M26.6346 53.4889C26.4063 53.5934 26.2128 53.7791 26.1006 54.0035L26 54.2048V58.0588V61.9128L26.1006 62.114C26.2128 62.3384 26.4063 62.5242 26.6346 62.6286C26.7855 62.6983 26.9828 62.7021 30.6473 62.7021H34.4974L34.6986 62.6015C34.923 62.4893 35.1088 62.2959 35.2132 62.0676C35.2829 61.9166 35.2868 61.7193 35.2868 58.0588C35.2868 54.3982 35.2829 54.2009 35.2132 54.05C35.1088 53.8217 34.923 53.6282 34.6986 53.516L34.4974 53.4154H30.6473C26.9828 53.4154 26.7855 53.4192 26.6346 53.4889ZM34.4084 54.1235C34.4664 54.1583 34.5438 54.2357 34.5787 54.2938C34.6444 54.3905 34.6483 54.6265 34.6483 58.0588C34.6483 61.491 34.6444 61.727 34.5787 61.8238C34.5438 61.8818 34.4664 61.9592 34.4084 61.994C34.3117 62.0598 34.0756 62.0637 30.6434 62.0637C27.2111 62.0637 26.9751 62.0598 26.8784 61.994C26.8203 61.9592 26.7429 61.8818 26.7081 61.8238C26.6423 61.727 26.6385 61.4833 26.6269 58.1942C26.6191 56.2595 26.6269 54.5994 26.6385 54.5104C26.6656 54.3092 26.8126 54.1274 26.979 54.0771C27.0525 54.0538 28.5848 54.0422 30.7014 54.0461C34.0717 54.0538 34.3117 54.0577 34.4084 54.1235Z" stroke="#0B2D1F" stroke-width="0.306364" mask="url(#path-5-outside-3_6476_46229)"/>
</g>
<g id="products">
<g id="Group 159054">
<g id="Rectangle 34624447">
<mask id="path-6-outside-4_6476_46229" maskUnits="userSpaceOnUse" x="35.7988" y="53.0283" width="11" height="4" fill="black">
<rect fill="white" x="35.7988" y="53.0283" width="11" height="4"/>
<path d="M46.4565 54.0283H36.7988V55.8679H46.4565V54.0283Z"/>
</mask>
<path d="M46.4565 54.0283H36.7988V55.8679H46.4565V54.0283Z" fill="#2EB67D"/>
<path d="M46.4565 54.0283H36.7988V55.8679H46.4565V54.0283Z" stroke="#0B2D1F" stroke-width="0.364115" mask="url(#path-6-outside-4_6476_46229)"/>
</g>
<g id="Rectangle 47 (Stroke)">
<mask id="path-7-outside-5_6476_46229" maskUnits="userSpaceOnUse" x="35.1094" y="52.415" width="13" height="5" fill="black">
<rect fill="white" x="35.1094" y="52.415" width="13" height="5"/>
<path fill-rule="evenodd" clip-rule="evenodd" d="M37.0905 54.1509C36.955 54.1509 36.8452 54.2607 36.8452 54.3961V55.4999C36.8452 55.6353 36.955 55.7451 37.0905 55.7451H46.1656C46.301 55.7451 46.4108 55.6353 46.4108 55.4999V54.3961C46.4108 54.2607 46.301 54.1509 46.1656 54.1509H37.0905ZM36.1094 54.3961C36.1094 53.8543 36.5486 53.415 37.0905 53.415H46.1656C46.7074 53.415 47.1467 53.8543 47.1467 54.3961V55.4999C47.1467 56.0417 46.7074 56.481 46.1656 56.481H37.0905C36.5486 56.481 36.1094 56.0417 36.1094 55.4999V54.3961Z"/>
</mask>
<path fill-rule="evenodd" clip-rule="evenodd" d="M37.0905 54.1509C36.955 54.1509 36.8452 54.2607 36.8452 54.3961V55.4999C36.8452 55.6353 36.955 55.7451 37.0905 55.7451H46.1656C46.301 55.7451 46.4108 55.6353 46.4108 55.4999V54.3961C46.4108 54.2607 46.301 54.1509 46.1656 54.1509H37.0905ZM36.1094 54.3961C36.1094 53.8543 36.5486 53.415 37.0905 53.415H46.1656C46.7074 53.415 47.1467 53.8543 47.1467 54.3961V55.4999C47.1467 56.0417 46.7074 56.481 46.1656 56.481H37.0905C36.5486 56.481 36.1094 56.0417 36.1094 55.4999V54.3961Z" fill="#0B2D1F"/>
<path fill-rule="evenodd" clip-rule="evenodd" d="M37.0905 54.1509C36.955 54.1509 36.8452 54.2607 36.8452 54.3961V55.4999C36.8452 55.6353 36.955 55.7451 37.0905 55.7451H46.1656C46.301 55.7451 46.4108 55.6353 46.4108 55.4999V54.3961C46.4108 54.2607 46.301 54.1509 46.1656 54.1509H37.0905ZM36.1094 54.3961C36.1094 53.8543 36.5486 53.415 37.0905 53.415H46.1656C46.7074 53.415 47.1467 53.8543 47.1467 54.3961V55.4999C47.1467 56.0417 46.7074 56.481 46.1656 56.481H37.0905C36.5486 56.481 36.1094 56.0417 36.1094 55.4999V54.3961Z" stroke="#0B2D1F" stroke-width="0.364115" mask="url(#path-7-outside-5_6476_46229)"/>
</g>
<g id="Rectangle 48">
<mask id="path-8-outside-6_6476_46229" maskUnits="userSpaceOnUse" x="39.248" y="56.707" width="4" height="3" fill="black">
<rect fill="white" x="39.248" y="56.707" width="4" height="3"/>
<path d="M42.9231 57.707H40.3324C40.2858 57.707 40.248 57.7448 40.248 57.7913V58.8491C40.248 58.8956 40.2858 58.9334 40.3324 58.9334H42.9231C42.9696 58.9334 43.0074 58.8956 43.0074 58.8491V57.7913C43.0074 57.7448 42.9696 57.707 42.9231 57.707Z"/>
</mask>
<path d="M42.9231 57.707H40.3324C40.2858 57.707 40.248 57.7448 40.248 57.7913V58.8491C40.248 58.8956 40.2858 58.9334 40.3324 58.9334H42.9231C42.9696 58.9334 43.0074 58.8956 43.0074 58.8491V57.7913C43.0074 57.7448 42.9696 57.707 42.9231 57.707Z" fill="#0B2D1F"/>
<path d="M42.9231 57.707H40.3324C40.2858 57.707 40.248 57.7448 40.248 57.7913V58.8491C40.248 58.8956 40.2858 58.9334 40.3324 58.9334H42.9231C42.9696 58.9334 43.0074 58.8956 43.0074 58.8491V57.7913C43.0074 57.7448 42.9696 57.707 42.9231 57.707Z" stroke="#0B2D1F" stroke-width="0.364115" mask="url(#path-8-outside-6_6476_46229)"/>
</g>
<g id="Rectangle 46">
<g id="Vector (Stroke)">
<mask id="path-9-outside-7_6476_46229" maskUnits="userSpaceOnUse" x="35.7441" y="54.6904" width="11" height="9" fill="black">
<rect fill="white" x="35.7441" y="54.6904" width="11" height="9"/>
<path fill-rule="evenodd" clip-rule="evenodd" d="M37.5359 56.6034V61.8767H45.7218V56.6034H37.5359ZM36.7441 56.6034C36.7441 55.926 36.8586 55.6905 37.5359 55.6905L41.5134 55.6904H45.7218C46.521 55.6905 46.5209 55.6904 46.5209 56.6443L46.521 59.2673L46.521 61.8767C46.521 62.6058 46.521 62.6058 45.7218 62.6058H41.7518H37.5358C36.7441 62.6058 36.7441 62.6195 36.7441 61.8904V59.2673V56.6034Z"/>
</mask>
<path fill-rule="evenodd" clip-rule="evenodd" d="M37.5359 56.6034V61.8767H45.7218V56.6034H37.5359ZM36.7441 56.6034C36.7441 55.926 36.8586 55.6905 37.5359 55.6905L41.5134 55.6904H45.7218C46.521 55.6905 46.5209 55.6904 46.5209 56.6443L46.521 59.2673L46.521 61.8767C46.521 62.6058 46.521 62.6058 45.7218 62.6058H41.7518H37.5358C36.7441 62.6058 36.7441 62.6195 36.7441 61.8904V59.2673V56.6034Z" fill="#0B2D1F"/>
<path fill-rule="evenodd" clip-rule="evenodd" d="M37.5359 56.6034V61.8767H45.7218V56.6034H37.5359ZM36.7441 56.6034C36.7441 55.926 36.8586 55.6905 37.5359 55.6905L41.5134 55.6904H45.7218C46.521 55.6905 46.5209 55.6904 46.5209 56.6443L46.521 59.2673L46.521 61.8767C46.521 62.6058 46.521 62.6058 45.7218 62.6058H41.7518H37.5358C36.7441 62.6058 36.7441 62.6195 36.7441 61.8904V59.2673V56.6034Z" stroke="#0B2D1F" stroke-width="0.364115" mask="url(#path-9-outside-7_6476_46229)"/>
</g>
</g>
</g>
</g>
</g>
</g>
</g>
</g>
</svg>
