<svg width="72" height="72" viewBox="0 0 72 72" fill="none" xmlns="http://www.w3.org/2000/svg">
<path fill-rule="evenodd" clip-rule="evenodd" d="M35.5 65.5C51.5 50 58 42.9264 58 30.5C58 18.0736 47.9264 8 35.5 8C23.0736 8 13 18.0736 13 30.5C13 40.2241 18.5112 46.3641 27.3773 56.2419C29.8412 58.9869 32.5642 62.0205 35.5 65.5ZM36.5 33C40.0899 33 43 30.0899 43 26.5C43 22.9101 40.0899 20 36.5 20C32.9101 20 30 22.9101 30 26.5C30 30.0899 32.9101 33 36.5 33Z" fill="#2894B4"/>
<path d="M56.5717 29.1429C56.5717 23.687 54.4044 18.4546 50.5465 14.5967C46.6886 10.7388 41.4562 8.57143 36.0003 8.57143C30.5444 8.57143 25.312 10.7388 21.4541 14.5967C17.5962 18.4546 15.4289 23.687 15.4289 29.1429C15.4289 37.5817 22.1808 48.5806 36.0003 61.7554C49.8197 48.5806 56.5717 37.5817 56.5717 29.1429ZM36.0003 68C19.2368 52.7634 10.8574 39.808 10.8574 29.1429C10.8574 22.4746 13.5064 16.0794 18.2216 11.3642C22.9368 6.64897 29.332 4 36.0003 4C42.6686 4 49.0638 6.64897 53.779 11.3642C58.4942 16.0794 61.1431 22.4746 61.1431 29.1429C61.1431 39.808 52.7637 52.7634 36.0003 68Z" fill="#0D313B"/>
<path d="M36 31.4285C37.2124 31.4285 38.3752 30.9469 39.2325 30.0896C40.0898 29.2323 40.5714 28.0695 40.5714 26.8571C40.5714 25.6447 40.0898 24.4819 39.2325 23.6246C38.3752 22.7673 37.2124 22.2857 36 22.2857C34.7876 22.2857 33.6248 22.7673 32.7675 23.6246C31.9102 24.4819 31.4286 25.6447 31.4286 26.8571C31.4286 28.0695 31.9102 29.2323 32.7675 30.0896C33.6248 30.9469 34.7876 31.4285 36 31.4285ZM36 35.9999C33.5752 35.9999 31.2496 35.0367 29.535 33.3221C27.8204 31.6074 26.8571 29.2819 26.8571 26.8571C26.8571 24.4323 27.8204 22.1067 29.535 20.3921C31.2496 18.6775 33.5752 17.7142 36 17.7142C38.4248 17.7142 40.7504 18.6775 42.465 20.3921C44.1796 22.1067 45.1429 24.4323 45.1429 26.8571C45.1429 29.2819 44.1796 31.6074 42.465 33.3221C40.7504 35.0367 38.4248 35.9999 36 35.9999ZM60.6857 49.7142L68 67.9999H47.4286V63.4285H24.5714V67.9999H4L11.3143 49.7142H60.6857ZM55.7623 49.7142H16.2377L10.752 63.4285H61.248L55.7623 49.7142Z" fill="#0D313B"/>
</svg>
