<svg width="72" height="72" viewBox="0 0 72 72" fill="none" xmlns="http://www.w3.org/2000/svg">
<path d="M42.7799 42.6257H25.5443C24.4015 42.6257 23.3055 42.1718 22.4975 41.3636C21.6893 40.5555 21.2354 39.4596 21.2354 38.3168V34.0079C21.2354 32.8651 21.6893 31.7691 22.4975 30.9611C23.3055 30.1529 24.4015 29.699 25.5443 29.699H42.7799C43.9227 29.699 45.0186 30.1529 45.8267 30.9611C46.6349 31.7691 47.0888 32.8651 47.0888 34.0079V38.3168C47.0888 39.4596 46.6349 40.5555 45.8267 41.3636C45.0186 42.1718 43.9227 42.6257 42.7799 42.6257ZM25.5443 34.0079V38.3168H42.7799V34.0079H25.5443Z" fill="#0B2D1F"/>
<path d="M25.5443 34.0079V38.3168H42.7799V34.0079H25.5443Z" fill="#CBEDDF"/>
<path d="M60.0157 6H8.3089C7.16611 6 6.07012 6.45397 5.26205 7.26205C4.45397 8.07012 4 9.16611 4 10.3089V18.9267C4 20.0695 4.45397 21.1654 5.26205 21.9735C6.07012 22.7817 7.16611 23.2356 8.3089 23.2356V57.7068C8.3089 58.8496 8.76287 59.9456 9.57095 60.7536C10.379 61.5618 11.475 62.0157 12.6178 62.0157H47.9643L60.0157 54.7947C61.1585 54.7947 62.2545 54.3406 63.0625 53.5326C63.8707 52.7245 64.3246 51.6286 64.3246 50.4858L63.0625 43.2316L60.0157 40.4712V23.2356C61.1585 23.2356 62.2545 22.7817 63.0625 21.9735C63.8707 21.1654 64.3246 20.0695 64.3246 18.9267V10.3089C64.3246 9.16611 63.8707 8.07012 63.0625 7.26205C62.2545 6.45397 61.1585 6 60.0157 6ZM60.0157 51.7148L49.1761 57.7068H12.6178V23.2356H55.7068V38.5861L60.0157 43.2316V51.7148ZM60.0157 18.9267H8.3089V10.3089H60.0157V18.9267Z" fill="#0B2D1F"/>
<path d="M60.0157 18.9267H8.3089V10.3089H60.0157V18.9267Z" fill="#62C89E"/>
<path fill-rule="evenodd" clip-rule="evenodd" d="M52.1394 33.2953C43.3798 33.2953 36.2783 40.3968 36.2783 49.1564C36.2783 57.9159 43.3798 65.0174 52.1394 65.0174C60.899 65.0174 68.0005 57.9159 68.0005 49.1564C68.0005 40.3968 60.899 33.2953 52.1394 33.2953ZM59.0144 46.4743C59.1411 46.3297 59.2374 46.1611 59.298 45.9787C59.3584 45.7961 59.3817 45.6034 59.3666 45.4116C59.3515 45.22 59.2982 45.0333 59.2099 44.8625C59.1216 44.6918 59 44.5403 58.8523 44.4172C58.7045 44.2942 58.5338 44.2019 58.3499 44.1458C58.1659 44.0898 57.9727 44.0709 57.7815 44.0907C57.5901 44.1104 57.4049 44.1681 57.2361 44.2605C57.0676 44.3529 56.9192 44.4781 56.7996 44.6288L50.5995 52.0676L47.3912 48.8578C47.1192 48.5953 46.755 48.4498 46.3769 48.4532C45.9989 48.4564 45.6373 48.608 45.3698 48.8755C45.1025 49.1428 44.9509 49.5044 44.9476 49.8825C44.9443 50.2605 45.0896 50.6247 45.3523 50.8967L49.6781 55.2225C49.8197 55.364 49.9894 55.4745 50.1761 55.547C50.3629 55.6194 50.5627 55.652 50.7628 55.643C50.9629 55.6338 51.1588 55.5832 51.3383 55.4942C51.5177 55.4052 51.6766 55.2797 51.8049 55.1258L59.0144 46.4743Z" fill="#0B2D1F"/>
</svg>
