<svg width="72" height="72" viewBox="0 0 72 72" fill="none" xmlns="http://www.w3.org/2000/svg">
<path d="M64 12.5554H8V23.2222H64V12.5554Z" fill="#2894B4"/>
<path fill-rule="evenodd" clip-rule="evenodd" d="M9.68888 13.2667C8.90342 13.2667 8.26667 13.9035 8.26667 14.689V21.089C8.26667 21.8745 8.90342 22.5113 9.68888 22.5113H62.3111C63.0966 22.5113 63.7333 21.8745 63.7333 21.089V14.689C63.7333 13.9035 63.0966 13.2667 62.3111 13.2667H9.68888ZM4 14.689C4 11.547 6.547 9 9.68888 9H62.3111C65.453 9 68 11.547 68 14.689V21.089C68 24.231 65.453 26.778 62.3111 26.778H9.68888C6.547 26.778 4 24.231 4 21.089V14.689Z" fill="#0D313B"/>
<path d="M43.5111 33.8888H28.4889C28.2189 33.8888 28 34.1077 28 34.3777V40.5111C28 40.7811 28.2189 41 28.4889 41H43.5111C43.7811 41 44 40.7811 44 40.5111V34.3777C44 34.1077 43.7811 33.8888 43.5111 33.8888Z" fill="#0D313B"/>
<path fill-rule="evenodd" clip-rule="evenodd" d="M12.2656 27.4886V58.0669H59.7323V27.4886H12.2656ZM7.6748 27.4886C7.6748 23.5612 8.33824 22.1952 12.2656 22.1952L35.3295 22.1949H59.7323C64.3661 22.1953 64.3656 22.1949 64.3656 27.7259L64.3662 42.9359L64.3661 58.0669C64.3661 62.2945 64.3661 62.2945 59.7323 62.2945H36.7118H12.2652C7.6748 62.2945 7.6748 62.3736 7.6748 58.146V42.9359V27.4886Z" fill="#0D313B"/>
</svg>
