<svg width="72" height="72" viewBox="0 0 72 72" fill="none" xmlns="http://www.w3.org/2000/svg">
<g id="product-moves">
<g id="Group">
<path id="Rectangle 34624447" d="M62 9H6V19.6668H62V9Z" fill="#E60000"/>
<path id="Rectangle 34624448" d="M43 30H24V41H43V30Z" fill="#E60000"/>
<path id="Vector" d="M42.3997 42.2667H25.3331C24.2015 42.2667 23.1163 41.8172 22.3161 41.0169C21.5159 40.2168 21.0664 39.1316 21.0664 38V33.7333C21.0664 32.6017 21.5159 31.5165 22.3161 30.7164C23.1163 29.9161 24.2015 29.4667 25.3331 29.4667H42.3997C43.5313 29.4667 44.6165 29.9161 45.4167 30.7164C46.2169 31.5165 46.6664 32.6017 46.6664 33.7333V38C46.6664 39.1316 46.2169 40.2168 45.4167 41.0169C44.6165 41.8172 43.5313 42.2667 42.3997 42.2667ZM25.3331 33.7333V38H42.3997V33.7333H25.3331Z" fill="#4D0000"/>
<path id="Vector_2" d="M59.4667 6H8.26667C7.13508 6 6.04983 6.44952 5.24968 7.24968C4.44952 8.04983 4 9.13508 4 10.2667V18.8C4 19.9316 4.44952 21.0168 5.24968 21.8169C6.04983 22.6172 7.13508 23.0667 8.26667 23.0667V57.2C8.26667 58.3316 8.71619 59.4168 9.51635 60.2169C10.3165 61.0172 11.4017 61.4667 12.5333 61.4667H48.0667L48.6667 51.8C49.7983 51.8 49.7332 51.0668 50.5333 50.2667C51.3335 49.4665 50.5333 48.8649 50.5333 47.7333L59.4667 44.1333V23.0667C60.5983 23.0667 61.6835 22.6172 62.4836 21.8169C63.2839 21.0168 63.7333 19.9316 63.7333 18.8V10.2667C63.7333 9.13508 63.2839 8.04983 62.4836 7.24968C61.6835 6.44952 60.5983 6 59.4667 6ZM48.0667 47.7333V57.2H12.5333V23.0667H55.2V44.1333L48.0667 47.7333ZM59.4667 18.8H8.26667V10.2667H59.4667V18.8Z" fill="#4D0000"/>
<path id="Vector_3" d="M43.7324 53.6C43.7324 56.818 45.0107 59.9041 47.2862 62.1796C49.5616 64.4551 52.6478 65.7333 55.8658 65.7333C59.0838 65.7333 62.1699 64.4551 64.4454 62.1796C66.7208 59.9041 67.9991 56.818 67.9991 53.6C67.9991 50.382 66.7208 47.2959 64.4454 45.0204C62.1699 42.7449 59.0838 41.4667 55.8658 41.4667C52.6478 41.4667 49.5616 42.7449 47.2862 45.0204C45.0107 47.2959 43.7324 50.382 43.7324 53.6ZM62.2183 54.5437L62.2102 54.5517L56.8175 59.9444C56.6932 60.0732 56.5444 60.1759 56.3799 60.2465C56.2155 60.3172 56.0386 60.3544 55.8596 60.3559C55.6806 60.3575 55.5031 60.3233 55.3374 60.2556C55.1716 60.1877 55.0211 60.0877 54.8946 59.9611C54.768 59.8345 54.6679 59.684 54.6 59.5183C54.5323 59.3527 54.4982 59.1751 54.4998 58.9961C54.5014 58.8171 54.5384 58.6401 54.6091 58.4757C54.6798 58.3112 54.7826 58.1624 54.9112 58.0381L58.0039 54.9455H50.4732C50.1156 54.9455 49.7727 54.8035 49.5199 54.5505C49.2671 54.2977 49.125 53.9548 49.125 53.5973C49.125 53.2397 49.2671 52.8968 49.5199 52.644C49.7727 52.3912 50.1156 52.2492 50.4732 52.2492H58.0039L54.9112 49.1565C54.7826 49.0321 54.6798 48.8833 54.6091 48.7189C54.5386 48.5544 54.5014 48.3775 54.4998 48.1985C54.4982 48.0195 54.5323 47.842 54.6 47.6763C54.6679 47.5107 54.768 47.3601 54.8946 47.2335C55.0211 47.1069 55.1716 47.0068 55.3374 46.9391C55.5031 46.8712 55.6806 46.8372 55.8596 46.8387C56.0386 46.8403 56.2155 46.8775 56.3799 46.9481C56.5444 47.0188 56.6932 47.1215 56.8175 47.2503L62.2102 52.6428C62.4615 52.8929 62.6039 53.232 62.6066 53.5865V53.6053C62.605 53.9569 62.4655 54.2939 62.2183 54.5437Z" fill="#4D0000"/>
<g id="Vector_4">
<mask id="path-6-inside-1_6365_46940" fill="white">
<path d="M43.7324 53.6C43.7324 56.818 45.0107 59.9041 47.2862 62.1796C49.5616 64.4551 52.6478 65.7333 55.8658 65.7333C59.0838 65.7333 62.1699 64.4551 64.4454 62.1796C66.7208 59.9041 67.9991 56.818 67.9991 53.6C67.9991 50.382 66.7208 47.2959 64.4454 45.0204C62.1699 42.7449 59.0838 41.4667 55.8658 41.4667C52.6478 41.4667 49.5616 42.7449 47.2862 45.0204C45.0107 47.2959 43.7324 50.382 43.7324 53.6ZM62.2183 54.5437L62.2102 54.5517L56.8175 59.9444C56.6932 60.0732 56.5444 60.1759 56.3799 60.2465C56.2155 60.3172 56.0386 60.3544 55.8596 60.3559C55.6806 60.3575 55.5031 60.3233 55.3374 60.2556C55.1716 60.1877 55.0211 60.0877 54.8946 59.9611C54.768 59.8345 54.6679 59.684 54.6 59.5183C54.5323 59.3527 54.4982 59.1751 54.4998 58.9961C54.5014 58.8171 54.5384 58.6401 54.6091 58.4757C54.6798 58.3112 54.7826 58.1624 54.9112 58.0381L58.0039 54.9455H50.4732C50.1156 54.9455 49.7727 54.8035 49.5199 54.5505C49.2671 54.2977 49.125 53.9548 49.125 53.5973C49.125 53.2397 49.2671 52.8968 49.5199 52.644C49.7727 52.3912 50.1156 52.2492 50.4732 52.2492H58.0039L54.9112 49.1565C54.7826 49.0321 54.6798 48.8833 54.6091 48.7189C54.5386 48.5544 54.5014 48.3775 54.4998 48.1985C54.4982 48.0195 54.5323 47.842 54.6 47.6763C54.6679 47.5107 54.768 47.3601 54.8946 47.2335C55.0211 47.1069 55.1716 47.0068 55.3374 46.9391C55.5031 46.8712 55.6806 46.8372 55.8596 46.8387C56.0386 46.8403 56.2155 46.8775 56.3799 46.9481C56.5444 47.0188 56.6932 47.1215 56.8175 47.2503L62.2102 52.6428C62.4615 52.8929 62.6039 53.232 62.6066 53.5865V53.6053C62.605 53.9569 62.4655 54.2939 62.2183 54.5437Z"/>
</mask>
<path d="M43.7324 53.6C43.7324 56.818 45.0107 59.9041 47.2862 62.1796C49.5616 64.4551 52.6478 65.7333 55.8658 65.7333C59.0838 65.7333 62.1699 64.4551 64.4454 62.1796C66.7208 59.9041 67.9991 56.818 67.9991 53.6C67.9991 50.382 66.7208 47.2959 64.4454 45.0204C62.1699 42.7449 59.0838 41.4667 55.8658 41.4667C52.6478 41.4667 49.5616 42.7449 47.2862 45.0204C45.0107 47.2959 43.7324 50.382 43.7324 53.6ZM62.2183 54.5437L62.2102 54.5517L56.8175 59.9444C56.6932 60.0732 56.5444 60.1759 56.3799 60.2465C56.2155 60.3172 56.0386 60.3544 55.8596 60.3559C55.6806 60.3575 55.5031 60.3233 55.3374 60.2556C55.1716 60.1877 55.0211 60.0877 54.8946 59.9611C54.768 59.8345 54.6679 59.684 54.6 59.5183C54.5323 59.3527 54.4982 59.1751 54.4998 58.9961C54.5014 58.8171 54.5384 58.6401 54.6091 58.4757C54.6798 58.3112 54.7826 58.1624 54.9112 58.0381L58.0039 54.9455H50.4732C50.1156 54.9455 49.7727 54.8035 49.5199 54.5505C49.2671 54.2977 49.125 53.9548 49.125 53.5973C49.125 53.2397 49.2671 52.8968 49.5199 52.644C49.7727 52.3912 50.1156 52.2492 50.4732 52.2492H58.0039L54.9112 49.1565C54.7826 49.0321 54.6798 48.8833 54.6091 48.7189C54.5386 48.5544 54.5014 48.3775 54.4998 48.1985C54.4982 48.0195 54.5323 47.842 54.6 47.6763C54.6679 47.5107 54.768 47.3601 54.8946 47.2335C55.0211 47.1069 55.1716 47.0068 55.3374 46.9391C55.5031 46.8712 55.6806 46.8372 55.8596 46.8387C56.0386 46.8403 56.2155 46.8775 56.3799 46.9481C56.5444 47.0188 56.6932 47.1215 56.8175 47.2503L62.2102 52.6428C62.4615 52.8929 62.6039 53.232 62.6066 53.5865V53.6053C62.605 53.9569 62.4655 54.2939 62.2183 54.5437Z" fill="#E60000" stroke="#4D0000" stroke-width="4" mask="url(#path-6-inside-1_6365_46940)"/>
</g>
</g>
</g>
</svg>
