<svg width="72" height="72" viewBox="0 0 72 72" fill="none" xmlns="http://www.w3.org/2000/svg">
<g id="replenishment 2">
<g id="Group">
<g id="Vector">
<path d="M55.2385 67.9863C54.3636 67.9863 53.4891 67.9863 52.6141 67.9863C52.4995 67.9479 52.3883 67.8912 52.2709 67.8739C47.1678 67.1219 43.4793 64.4151 41.272 59.7698C40.6991 58.5639 40.4059 57.2249 39.9565 55.8638C28.0559 55.8638 16.028 55.8638 4 55.8638C4 38.5759 4 21.2879 4 4C21.2774 4 38.5547 4 55.8693 4C55.8693 16.083 55.8693 28.0754 55.8693 40.085C56.1002 40.1367 56.2988 40.1901 56.5001 40.2257C62.7358 41.3249 67.4428 46.576 67.9579 53.0096C68.4558 59.2286 64.4886 65.225 58.5071 67.2181C57.4491 67.5702 56.3294 67.7349 55.2385 67.9863ZM37.5952 7.77921C37.5952 13.413 37.5952 19.0012 37.5952 24.591C31.9542 24.591 26.3816 24.591 20.7406 24.591C20.7406 18.9739 20.7406 13.3857 20.7406 7.79256C16.3762 7.79256 12.0796 7.79256 7.79701 7.79256C7.79701 22.5873 7.79701 37.3382 7.79701 52.0918C18.5873 52.0918 29.3292 52.0918 40.1117 52.0918C40.575 49.0029 41.8761 46.3323 44.0728 44.1245C46.2873 41.8989 48.9745 40.5856 52.0829 40.11C52.0829 29.3231 52.0829 18.5656 52.0829 7.77866C47.2707 7.77921 42.4891 7.77921 37.5952 7.77921ZM64.236 54.037C64.2544 48.3838 59.6736 43.7602 54.037 43.7418C48.3827 43.724 43.7591 48.3037 43.7418 53.9397C43.7246 59.5918 48.307 64.2188 53.9397 64.2366C59.5918 64.2538 64.2177 59.6714 64.236 54.037ZM33.8249 20.8424C33.8249 16.4574 33.8249 12.1208 33.8249 7.79813C30.6937 7.79813 27.6059 7.79813 24.5276 7.79813C24.5276 12.1698 24.5276 16.4919 24.5276 20.8424C27.6326 20.8424 30.7054 20.8424 33.8249 20.8424Z" fill="#4D0000"/>
<path d="M64.236 54.037C64.2544 48.3838 59.6736 43.7602 54.037 43.7418C48.3827 43.724 43.7591 48.3037 43.7418 53.9397C43.7246 59.5918 48.307 64.2188 53.9397 64.2366C59.5918 64.2538 64.2177 59.6714 64.236 54.037Z" fill="#E60000"/>
<path d="M33.8249 20.8424V7.79813H24.5276V20.8424H33.8249Z" fill="#FFCDCD"/>
</g>
<path id="Vector_2" d="M12.8032 46.9948C12.1841 45.9034 11.5912 44.8576 10.957 43.739C11.6323 43.3557 12.2937 42.9803 12.9551 42.6048C13.7316 42.1642 14.5032 41.7137 15.2903 41.2926C15.446 41.2091 15.708 41.1574 15.8443 41.2319C17.3173 42.038 18.7747 42.8718 20.2933 43.7306C19.673 44.8281 19.0751 45.8861 18.4509 46.9909C17.6316 46.5281 16.855 46.0547 16.0434 45.6525C15.8171 45.5402 15.4405 45.5435 15.2135 45.6559C14.4142 46.0514 13.6504 46.5164 12.8032 46.9948Z" fill="#4D0000"/>
<path id="Vector_3" d="M47.3506 53.9602C49.53 51.7808 51.7478 49.563 53.9172 47.3936C54.7255 48.208 55.5821 49.0713 56.4832 49.9791C55.8691 50.5582 55.1521 51.234 54.4356 51.9099C54.4718 51.9699 54.5079 52.03 54.5441 52.0901C56.377 52.0901 58.2104 52.0901 60.0778 52.0901C60.0778 53.36 60.0778 54.5588 60.0778 55.8281C58.256 55.8281 56.4187 55.8281 54.484 55.8281C55.275 56.5835 55.9831 57.2594 56.6534 57.8996C55.66 58.897 54.7978 59.762 53.9773 60.5853C51.7778 58.3869 49.5495 56.1591 47.3506 53.9602Z" fill="#4D0000"/>
</g>
<path id="LOW" d="M20.4191 35.6295H22.7448V37H18.6437V29.7115H20.4191V35.6295ZM27.0386 37.0727C26.3534 37.0727 25.7235 36.9135 25.149 36.5951C24.5814 36.2767 24.1281 35.8337 23.7889 35.2661C23.4567 34.6916 23.2905 34.0479 23.2905 33.335C23.2905 32.622 23.4567 31.9818 23.7889 31.4142C24.1281 30.8466 24.5814 30.4037 25.149 30.0853C25.7235 29.7669 26.3534 29.6077 27.0386 29.6077C27.7239 29.6077 28.3503 29.7669 28.9178 30.0853C29.4923 30.4037 29.9423 30.8466 30.2676 31.4142C30.5998 31.9818 30.7659 32.622 30.7659 33.335C30.7659 34.0479 30.5998 34.6916 30.2676 35.2661C29.9353 35.8337 29.4854 36.2767 28.9178 36.5951C28.3503 36.9135 27.7239 37.0727 27.0386 37.0727ZM27.0386 35.453C27.62 35.453 28.0838 35.2592 28.4299 34.8716C28.7829 34.484 28.9594 33.9718 28.9594 33.335C28.9594 32.6913 28.7829 32.1791 28.4299 31.7984C28.0838 31.4108 27.62 31.2169 27.0386 31.2169C26.4503 31.2169 25.9796 31.4073 25.6266 31.788C25.2805 32.1687 25.1075 32.6843 25.1075 33.335C25.1075 33.9787 25.2805 34.4944 25.6266 34.882C25.9796 35.2627 26.4503 35.453 27.0386 35.453ZM41.7831 29.7115L39.8831 37H37.734L36.5711 32.2033L35.3668 37H33.2176L31.3695 29.7115H33.2695L34.3181 35.0169L35.6159 29.7115H37.5679L38.8138 35.0169L39.8728 29.7115H41.7831Z" fill="#4D0000"/>
</g>
</svg>
