<svg width="72" height="72" viewBox="0 0 72 72" fill="none" xmlns="http://www.w3.org/2000/svg">
<mask id="path-1-outside-1_5688_43432" maskUnits="userSpaceOnUse" x="31.8623" y="7" width="37" height="57" fill="black">
<rect fill="white" x="31.8623" y="7" width="37" height="57"/>
<path d="M64.2347 8H56.7054C54.6298 8 52.9407 9.6891 52.9407 11.7647V49.4118C52.9407 49.7456 53.0724 50.0643 53.3083 50.299L63.7152 60.7059H36.627C35.9355 60.7059 35.3721 60.1437 35.3721 59.451V51.9216C35.3721 51.2289 35.9355 50.6667 36.627 50.6667H49.176C49.8687 50.6667 50.4309 50.1057 50.4309 49.4118C50.4309 48.7178 49.8687 48.1569 49.176 48.1569H36.627C34.5514 48.1569 32.8623 49.846 32.8623 51.9216V59.451C32.8623 61.5266 34.5514 63.2157 36.627 63.2157H66.7445C67.2515 63.2157 67.7095 62.9107 67.9041 62.4414C68.0986 61.9721 67.9906 61.4325 67.6317 61.0736L55.4505 48.8922V11.7647C55.4505 11.0733 56.0139 10.5098 56.7054 10.5098H64.2347C64.9262 10.5098 65.4896 11.0733 65.4896 11.7647V13.0196H61.7249C61.0322 13.0196 60.47 13.5818 60.47 14.2745C60.47 14.9672 61.0322 15.5294 61.7249 15.5294H65.4896V18.0392H64.2347C63.542 18.0392 62.9798 18.6002 62.9798 19.2941C62.9798 19.9881 63.542 20.549 64.2347 20.549H65.4896V23.0588H61.7249C61.0322 23.0588 60.47 23.6198 60.47 24.3137C60.47 25.0077 61.0322 25.5686 61.7249 25.5686H65.4896V28.0784H64.2347C63.542 28.0784 62.9798 28.6394 62.9798 29.3333C62.9798 30.0273 63.542 30.5882 64.2347 30.5882H65.4896V33.098H61.7249C61.0322 33.098 60.47 33.659 60.47 34.3529C60.47 35.0469 61.0322 35.6078 61.7249 35.6078H65.4896V38.1176H64.2347C63.542 38.1176 62.9798 38.6786 62.9798 39.3726C62.9798 40.0665 63.542 40.6275 64.2347 40.6275H65.4896V43.1373H61.7249C61.0322 43.1373 60.47 43.6982 60.47 44.3922C60.47 45.0861 61.0322 45.6471 61.7249 45.6471H65.4896V55.6863C65.4896 56.3802 66.0518 56.9412 66.7445 56.9412C67.4372 56.9412 67.9994 56.3802 67.9994 55.6863V11.7647C67.9994 9.6891 66.3103 8 64.2347 8Z"/>
</mask>
<path d="M64.2347 8H56.7054C54.6298 8 52.9407 9.6891 52.9407 11.7647V49.4118C52.9407 49.7456 53.0724 50.0643 53.3083 50.299L63.7152 60.7059H36.627C35.9355 60.7059 35.3721 60.1437 35.3721 59.451V51.9216C35.3721 51.2289 35.9355 50.6667 36.627 50.6667H49.176C49.8687 50.6667 50.4309 50.1057 50.4309 49.4118C50.4309 48.7178 49.8687 48.1569 49.176 48.1569H36.627C34.5514 48.1569 32.8623 49.846 32.8623 51.9216V59.451C32.8623 61.5266 34.5514 63.2157 36.627 63.2157H66.7445C67.2515 63.2157 67.7095 62.9107 67.9041 62.4414C68.0986 61.9721 67.9906 61.4325 67.6317 61.0736L55.4505 48.8922V11.7647C55.4505 11.0733 56.0139 10.5098 56.7054 10.5098H64.2347C64.9262 10.5098 65.4896 11.0733 65.4896 11.7647V13.0196H61.7249C61.0322 13.0196 60.47 13.5818 60.47 14.2745C60.47 14.9672 61.0322 15.5294 61.7249 15.5294H65.4896V18.0392H64.2347C63.542 18.0392 62.9798 18.6002 62.9798 19.2941C62.9798 19.9881 63.542 20.549 64.2347 20.549H65.4896V23.0588H61.7249C61.0322 23.0588 60.47 23.6198 60.47 24.3137C60.47 25.0077 61.0322 25.5686 61.7249 25.5686H65.4896V28.0784H64.2347C63.542 28.0784 62.9798 28.6394 62.9798 29.3333C62.9798 30.0273 63.542 30.5882 64.2347 30.5882H65.4896V33.098H61.7249C61.0322 33.098 60.47 33.659 60.47 34.3529C60.47 35.0469 61.0322 35.6078 61.7249 35.6078H65.4896V38.1176H64.2347C63.542 38.1176 62.9798 38.6786 62.9798 39.3726C62.9798 40.0665 63.542 40.6275 64.2347 40.6275H65.4896V43.1373H61.7249C61.0322 43.1373 60.47 43.6982 60.47 44.3922C60.47 45.0861 61.0322 45.6471 61.7249 45.6471H65.4896V55.6863C65.4896 56.3802 66.0518 56.9412 66.7445 56.9412C67.4372 56.9412 67.9994 56.3802 67.9994 55.6863V11.7647C67.9994 9.6891 66.3103 8 64.2347 8Z" fill="black"/>
<path d="M64.2347 8H56.7054C54.6298 8 52.9407 9.6891 52.9407 11.7647V49.4118C52.9407 49.7456 53.0724 50.0643 53.3083 50.299L63.7152 60.7059H36.627C35.9355 60.7059 35.3721 60.1437 35.3721 59.451V51.9216C35.3721 51.2289 35.9355 50.6667 36.627 50.6667H49.176C49.8687 50.6667 50.4309 50.1057 50.4309 49.4118C50.4309 48.7178 49.8687 48.1569 49.176 48.1569H36.627C34.5514 48.1569 32.8623 49.846 32.8623 51.9216V59.451C32.8623 61.5266 34.5514 63.2157 36.627 63.2157H66.7445C67.2515 63.2157 67.7095 62.9107 67.9041 62.4414C68.0986 61.9721 67.9906 61.4325 67.6317 61.0736L55.4505 48.8922V11.7647C55.4505 11.0733 56.0139 10.5098 56.7054 10.5098H64.2347C64.9262 10.5098 65.4896 11.0733 65.4896 11.7647V13.0196H61.7249C61.0322 13.0196 60.47 13.5818 60.47 14.2745C60.47 14.9672 61.0322 15.5294 61.7249 15.5294H65.4896V18.0392H64.2347C63.542 18.0392 62.9798 18.6002 62.9798 19.2941C62.9798 19.9881 63.542 20.549 64.2347 20.549H65.4896V23.0588H61.7249C61.0322 23.0588 60.47 23.6198 60.47 24.3137C60.47 25.0077 61.0322 25.5686 61.7249 25.5686H65.4896V28.0784H64.2347C63.542 28.0784 62.9798 28.6394 62.9798 29.3333C62.9798 30.0273 63.542 30.5882 64.2347 30.5882H65.4896V33.098H61.7249C61.0322 33.098 60.47 33.659 60.47 34.3529C60.47 35.0469 61.0322 35.6078 61.7249 35.6078H65.4896V38.1176H64.2347C63.542 38.1176 62.9798 38.6786 62.9798 39.3726C62.9798 40.0665 63.542 40.6275 64.2347 40.6275H65.4896V43.1373H61.7249C61.0322 43.1373 60.47 43.6982 60.47 44.3922C60.47 45.0861 61.0322 45.6471 61.7249 45.6471H65.4896V55.6863C65.4896 56.3802 66.0518 56.9412 66.7445 56.9412C67.4372 56.9412 67.9994 56.3802 67.9994 55.6863V11.7647C67.9994 9.6891 66.3103 8 64.2347 8Z" stroke="black" stroke-width="1.00392" mask="url(#path-1-outside-1_5688_43432)"/>
<path d="M46.7681 10.5343H6.85156V18.1374H46.7681V10.5343Z" fill="#FFA600"/>
<path fill-rule="evenodd" clip-rule="evenodd" d="M8.055 11.0413C7.49513 11.0413 7.04126 11.4951 7.04126 12.055V16.6169C7.04126 17.1768 7.49513 17.6307 8.055 17.6307H45.5639C46.1237 17.6307 46.5776 17.1768 46.5776 16.6169V12.055C46.5776 11.4951 46.1237 11.0413 45.5639 11.0413H8.055ZM4 12.055C4 9.8155 5.81549 8 8.055 8H45.5639C47.8034 8 49.6189 9.8155 49.6189 12.055V16.6169C49.6189 18.8565 47.8034 20.6719 45.5639 20.6719H8.055C5.81549 20.6719 4 18.8565 4 16.6169V12.055Z" fill="black"/>
<path d="M32.1637 25.7404H21.4559C21.2634 25.7404 21.1074 25.8965 21.1074 26.0889V30.4608C21.1074 30.6532 21.2634 30.8092 21.4559 30.8092H32.1637C32.3561 30.8092 32.5121 30.6532 32.5121 30.4608V26.0889C32.5121 25.8965 32.3561 25.7404 32.1637 25.7404Z" fill="black"/>
<path fill-rule="evenodd" clip-rule="evenodd" d="M9.89241 21.1784V42.9743H43.7264V21.1784H9.89241ZM6.62012 21.1784C6.62012 18.379 7.09301 17.4054 9.89241 17.4054L26.3322 17.4052H43.7264C47.0293 17.4054 47.029 17.4052 47.029 21.3476L47.0294 32.1891L47.0293 42.9743C47.0293 45.9877 47.0293 45.9877 43.7264 45.9877H27.3175H9.89213C6.62012 45.9877 6.62012 46.0441 6.62012 43.0307V32.1891V21.1784Z" fill="black"/>
</svg>
