<svg width="72" height="72" viewBox="0 0 72 72" fill="none" xmlns="http://www.w3.org/2000/svg">
<g id="unit-of-measure">
<g id="Group 1171275543">
<g id="products">
<g id="Group 159054">
<path id="Rectangle 34624447" d="M62.0605 11.2549H26.5371V18.0212H62.0605V11.2549Z" fill="#36C5F0"/>
<path id="Rectangle 47 (Stroke)" fill-rule="evenodd" clip-rule="evenodd" d="M27.6087 11.7066C27.1105 11.7066 26.7066 12.1105 26.7066 12.6087V16.6686C26.7066 17.1668 27.1105 17.5707 27.6087 17.5707H60.9895C61.4877 17.5707 61.8917 17.1668 61.8917 16.6686V12.6087C61.8917 12.1105 61.4877 11.7066 60.9895 11.7066H27.6087ZM24 12.6087C24 10.6157 25.6157 9 27.6087 9H60.9895C62.9825 9 64.5982 10.6157 64.5982 12.6087V16.6686C64.5982 18.6616 62.9825 20.2773 60.9895 20.2773H27.6087C25.6157 20.2773 24 18.6616 24 16.6686V12.6087Z" fill="#0D313B"/>
<path id="Rectangle 48" d="M49.064 24.7881H39.5347C39.3635 24.7881 39.2246 24.9269 39.2246 25.0982V28.9889C39.2246 29.1602 39.3635 29.299 39.5347 29.299H49.064C49.2353 29.299 49.3742 29.1602 49.3742 28.9889V25.0982C49.3742 24.9269 49.2353 24.7881 49.064 24.7881Z" fill="#0D313B"/>
<g id="Rectangle 46">
<path id="Vector (Stroke)" fill-rule="evenodd" clip-rule="evenodd" d="M29.2442 20.7281V40.1251H59.3545V20.7281H29.2442ZM26.332 20.7281C26.332 18.2368 26.7529 17.3703 29.2442 17.3703L43.8747 17.3701H59.3545C62.294 17.3703 62.2937 17.3701 62.2937 20.8786L62.294 30.5269L62.294 40.1251C62.294 42.8068 62.294 42.8068 59.3545 42.8068H44.7515H29.2439C26.332 42.8068 26.332 42.857 26.332 40.1753V30.5269V20.7281Z" fill="#0D313B"/>
</g>
</g>
</g>
<g id="Group 1171275542">
<g id="Group 1000001464">
<rect id="Rectangle 34624515" x="5.52539" y="9" width="7.61905" height="39.619" fill="#2894B4"/>
<g id="Group 1000001343">
<g id="Group">
<g id="Vector">
<mask id="path-6-outside-1_6461_47161" maskUnits="userSpaceOnUse" x="66" y="47.2598" width="3" height="17" fill="black">
<rect fill="white" x="66" y="47.2598" width="3" height="17"/>
<path d="M67.4952 63.5458C67.6571 63.4697 67.8381 63.3363 67.8952 63.222C67.9714 63.0982 68 60.8124 68 55.879V48.7264L67.7619 48.4979C67.6095 48.336 67.4286 48.2598 67.1905 48.2598C66.9524 48.2598 66.7714 48.336 66.619 48.4979L66.3809 48.7264V55.898C66.3809 63.7458 66.3523 63.3744 66.9333 63.5744C67.1238 63.6411 67.2857 63.6316 67.4952 63.5458Z"/>
</mask>
<path d="M67.4952 63.5458C67.6571 63.4697 67.8381 63.3363 67.8952 63.222C67.9714 63.0982 68 60.8124 68 55.879V48.7264L67.7619 48.4979C67.6095 48.336 67.4286 48.2598 67.1905 48.2598C66.9524 48.2598 66.7714 48.336 66.619 48.4979L66.3809 48.7264V55.898C66.3809 63.7458 66.3523 63.3744 66.9333 63.5744C67.1238 63.6411 67.2857 63.6316 67.4952 63.5458Z" fill="#0D313B"/>
<path d="M67.4952 63.5458C67.6571 63.4697 67.8381 63.3363 67.8952 63.222C67.9714 63.0982 68 60.8124 68 55.879V48.7264L67.7619 48.4979C67.6095 48.336 67.4286 48.2598 67.1905 48.2598C66.9524 48.2598 66.7714 48.336 66.619 48.4979L66.3809 48.7264V55.898C66.3809 63.7458 66.3523 63.3744 66.9333 63.5744C67.1238 63.6411 67.2857 63.6316 67.4952 63.5458Z" stroke="#0D313B" stroke-width="0.308571" mask="url(#path-6-outside-1_6461_47161)"/>
</g>
<g id="Vector_2">
<mask id="path-7-outside-2_6461_47161" maskUnits="userSpaceOnUse" x="18.8574" y="46.9102" width="3" height="17" fill="black">
<rect fill="white" x="18.8574" y="46.9102" width="3" height="17"/>
<path d="M20.3526 63.1962C20.5146 63.12 20.6955 62.9867 20.7527 62.8724C20.8288 62.7486 20.8574 60.4628 20.8574 55.5294V48.3768L20.6193 48.1483C20.4669 47.9863 20.286 47.9102 20.0479 47.9102C19.8098 47.9102 19.6288 47.9863 19.4764 48.1483L19.2383 48.3768V55.5484C19.2383 63.3962 19.2098 63.0248 19.7907 63.2248C19.9812 63.2915 20.1431 63.282 20.3526 63.1962Z"/>
</mask>
<path d="M20.3526 63.1962C20.5146 63.12 20.6955 62.9867 20.7527 62.8724C20.8288 62.7486 20.8574 60.4628 20.8574 55.5294V48.3768L20.6193 48.1483C20.4669 47.9863 20.286 47.9102 20.0479 47.9102C19.8098 47.9102 19.6288 47.9863 19.4764 48.1483L19.2383 48.3768V55.5484C19.2383 63.3962 19.2098 63.0248 19.7907 63.2248C19.9812 63.2915 20.1431 63.282 20.3526 63.1962Z" fill="#0D313B"/>
<path d="M20.3526 63.1962C20.5146 63.12 20.6955 62.9867 20.7527 62.8724C20.8288 62.7486 20.8574 60.4628 20.8574 55.5294V48.3768L20.6193 48.1483C20.4669 47.9863 20.286 47.9102 20.0479 47.9102C19.8098 47.9102 19.6288 47.9863 19.4764 48.1483L19.2383 48.3768V55.5484C19.2383 63.3962 19.2098 63.0248 19.7907 63.2248C19.9812 63.2915 20.1431 63.282 20.3526 63.1962Z" stroke="#0D313B" stroke-width="0.308571" mask="url(#path-7-outside-2_6461_47161)"/>
</g>
<g id="Vector_3">
<mask id="path-8-outside-3_6461_47161" maskUnits="userSpaceOnUse" x="21.7539" y="48.7041" width="44" height="13" fill="black">
<rect fill="white" x="21.7539" y="48.7041" width="44" height="13"/>
<path d="M60.6517 60.8758C60.9946 60.5806 64.6708 55.7614 64.7375 55.5233C64.8232 55.1804 64.6232 54.8661 62.9089 52.6566C60.6422 49.7231 60.6136 49.7041 60.2803 49.7041C59.5088 49.7041 59.4326 49.9708 59.4326 52.5232V54.5614H43.6227L27.8128 54.5614V52.5232C27.8128 49.9708 27.7366 49.7041 26.9652 49.7041C26.6318 49.7041 26.6033 49.7231 24.3365 52.6566C22.6222 54.8661 22.4222 55.1804 22.5079 55.5233C22.5746 55.7614 26.2509 60.5806 26.5937 60.8758C26.8604 61.1044 27.1842 61.0758 27.4985 60.8091L27.7652 60.5806L27.7938 58.3805L27.8223 56.1804L43.6227 56.1804H59.4231L59.4517 58.3805L59.4802 60.5806L59.7469 60.8091C60.0612 61.0758 60.385 61.1044 60.6517 60.8758ZM60.9755 54.0375L61.0041 52.7423L61.8708 53.8661C62.347 54.4852 62.7946 55.0757 62.8613 55.1899C62.9756 55.3709 62.8994 55.4947 61.9946 56.6662L61.0041 57.9424L60.9755 56.6376C60.966 55.9138 60.966 54.7423 60.9755 54.0375ZM25.2413 56.6471C24.708 55.9709 24.2889 55.3614 24.3175 55.2947C24.3556 55.1899 25.9937 53.028 26.2033 52.8089C26.2509 52.7518 26.289 53.7994 26.289 55.3042C26.289 56.7328 26.2699 57.8948 26.2414 57.8948C26.2223 57.8948 25.7652 57.3329 25.2413 56.6471Z"/>
<path d="M25.2413 56.6471C24.708 55.9709 24.2889 55.3614 24.3175 55.2947C24.3556 55.1899 25.9937 53.028 26.2033 52.8089C26.2509 52.7518 26.289 53.7994 26.289 55.3042C26.289 56.7328 26.2699 57.8948 26.2414 57.8948C26.2223 57.8948 25.7652 57.3329 25.2413 56.6471Z"/>
<path d="M60.9755 54.0375L61.0041 52.7423L61.8708 53.8661C62.347 54.4852 62.7946 55.0757 62.8613 55.1899C62.9756 55.3709 62.8994 55.4947 61.9946 56.6662L61.0041 57.9424L60.9755 56.6376C60.966 55.9138 60.966 54.7423 60.9755 54.0375Z"/>
</mask>
<path d="M60.6517 60.8758C60.9946 60.5806 64.6708 55.7614 64.7375 55.5233C64.8232 55.1804 64.6232 54.8661 62.9089 52.6566C60.6422 49.7231 60.6136 49.7041 60.2803 49.7041C59.5088 49.7041 59.4326 49.9708 59.4326 52.5232V54.5614H43.6227L27.8128 54.5614V52.5232C27.8128 49.9708 27.7366 49.7041 26.9652 49.7041C26.6318 49.7041 26.6033 49.7231 24.3365 52.6566C22.6222 54.8661 22.4222 55.1804 22.5079 55.5233C22.5746 55.7614 26.2509 60.5806 26.5937 60.8758C26.8604 61.1044 27.1842 61.0758 27.4985 60.8091L27.7652 60.5806L27.7938 58.3805L27.8223 56.1804L43.6227 56.1804H59.4231L59.4517 58.3805L59.4802 60.5806L59.7469 60.8091C60.0612 61.0758 60.385 61.1044 60.6517 60.8758ZM60.9755 54.0375L61.0041 52.7423L61.8708 53.8661C62.347 54.4852 62.7946 55.0757 62.8613 55.1899C62.9756 55.3709 62.8994 55.4947 61.9946 56.6662L61.0041 57.9424L60.9755 56.6376C60.966 55.9138 60.966 54.7423 60.9755 54.0375ZM25.2413 56.6471C24.708 55.9709 24.2889 55.3614 24.3175 55.2947C24.3556 55.1899 25.9937 53.028 26.2033 52.8089C26.2509 52.7518 26.289 53.7994 26.289 55.3042C26.289 56.7328 26.2699 57.8948 26.2414 57.8948C26.2223 57.8948 25.7652 57.3329 25.2413 56.6471Z" fill="#0D313B"/>
<path d="M25.2413 56.6471C24.708 55.9709 24.2889 55.3614 24.3175 55.2947C24.3556 55.1899 25.9937 53.028 26.2033 52.8089C26.2509 52.7518 26.289 53.7994 26.289 55.3042C26.289 56.7328 26.2699 57.8948 26.2414 57.8948C26.2223 57.8948 25.7652 57.3329 25.2413 56.6471Z" fill="#2894B4"/>
<path d="M60.9755 54.0375L61.0041 52.7423L61.8708 53.8661C62.347 54.4852 62.7946 55.0757 62.8613 55.1899C62.9756 55.3709 62.8994 55.4947 61.9946 56.6662L61.0041 57.9424L60.9755 56.6376C60.966 55.9138 60.966 54.7423 60.9755 54.0375Z" fill="#2894B4"/>
<path d="M60.9755 54.0375L60.8984 54.0365L60.8984 54.0358L60.9755 54.0375ZM61.0041 52.7423L60.927 52.7406L60.9318 52.5222L61.0652 52.6952L61.0041 52.7423ZM61.8708 53.8661L61.9319 53.819L61.9319 53.8191L61.8708 53.8661ZM62.8613 55.1899L62.796 55.2312L62.7946 55.2288L62.8613 55.1899ZM61.9946 56.6662L62.0556 56.7133L62.0555 56.7135L61.9946 56.6662ZM61.0041 57.9424L61.065 57.9897L60.9317 58.1615L60.927 57.9441L61.0041 57.9424ZM60.9755 56.6376L60.8984 56.6393L60.8984 56.6386L60.9755 56.6376ZM25.2413 56.6471L25.3019 56.5993L25.3026 56.6003L25.2413 56.6471ZM24.3175 55.2947L24.3901 55.3211L24.3884 55.3251L24.3175 55.2947ZM26.2033 52.8089L26.2627 52.8584L26.259 52.8623L26.2033 52.8089ZM60.8984 54.0358L60.927 52.7406L61.0812 52.744L61.0526 54.0392L60.8984 54.0358ZM61.0652 52.6952L61.9319 53.819L61.8097 53.9132L60.943 52.7894L61.0652 52.6952ZM61.9319 53.8191C62.1701 54.1287 62.4013 54.4313 62.5813 54.671C62.7594 54.9081 62.8917 55.089 62.9279 55.1511L62.7946 55.2288C62.7642 55.1766 62.6393 55.0051 62.4579 54.7637C62.2784 54.5247 62.0477 54.2226 61.8096 53.9131L61.9319 53.8191ZM62.9265 55.1488C62.9601 55.202 62.9855 55.2608 62.9781 55.3394C62.9713 55.4123 62.9369 55.4934 62.8765 55.5958C62.7556 55.801 62.5065 56.1296 62.0556 56.7133L61.9335 56.619C62.3875 56.0313 62.6289 55.7122 62.7436 55.5175C62.8011 55.4199 62.8209 55.3629 62.8245 55.325C62.8275 55.2929 62.8196 55.2684 62.7961 55.2311L62.9265 55.1488ZM62.0555 56.7135L61.065 57.9897L60.9431 57.8951L61.9336 56.6189L62.0555 56.7135ZM60.927 57.9441L60.8984 56.6393L61.0526 56.6359L61.0812 57.9407L60.927 57.9441ZM60.8984 56.6386C60.8889 55.9141 60.8889 54.742 60.8984 54.0365L61.0527 54.0386C61.0431 54.7427 61.0431 55.9134 61.0527 56.6366L60.8984 56.6386ZM25.1808 56.6949C24.9133 56.3558 24.6741 56.033 24.505 55.7859C24.4206 55.6626 24.3528 55.5569 24.3076 55.477C24.2852 55.4374 24.2672 55.402 24.2555 55.3729C24.2497 55.3585 24.2445 55.3433 24.2416 55.3283C24.2393 55.3165 24.2353 55.2908 24.2466 55.2643L24.3884 55.3251C24.3962 55.307 24.3921 55.2938 24.393 55.2986C24.3933 55.3002 24.3947 55.3055 24.3987 55.3155C24.4066 55.3352 24.4208 55.3637 24.4419 55.4011C24.484 55.4754 24.5489 55.5768 24.6324 55.6988C24.799 55.9422 25.036 56.2622 25.3019 56.5994L25.1808 56.6949ZM24.245 55.2683C24.2489 55.2577 24.255 55.2469 24.2592 55.2398C24.2643 55.2312 24.2707 55.221 24.2781 55.2097C24.2929 55.187 24.3131 55.1575 24.3377 55.1225C24.3871 55.0522 24.4554 54.9578 24.5366 54.8472C24.6991 54.626 24.9142 54.3387 25.1346 54.0481C25.355 53.7574 25.5808 53.463 25.7648 53.2275C25.9472 52.994 26.0918 52.8139 26.1475 52.7556L26.259 52.8623C26.21 52.9135 26.0712 53.0858 25.8864 53.3225C25.703 53.5573 25.4777 53.851 25.2576 54.1413C25.0375 54.4316 24.8228 54.7182 24.6609 54.9386C24.5799 55.0488 24.5124 55.1422 24.464 55.2111C24.4398 55.2456 24.4207 55.2735 24.4072 55.2941C24.4005 55.3045 24.3955 55.3124 24.3921 55.3181C24.3878 55.3254 24.3885 55.3252 24.39 55.3211L24.245 55.2683ZM26.144 52.7596C26.1533 52.7484 26.1822 52.7213 26.2257 52.7318C26.2595 52.7399 26.275 52.7658 26.2785 52.7718C26.2884 52.7886 26.2932 52.8088 26.296 52.8219C26.3027 52.8529 26.3084 52.899 26.3136 52.9562C26.324 53.072 26.3333 53.2464 26.3411 53.4682C26.3566 53.9123 26.3661 54.5513 26.3661 55.3042H26.2118C26.2118 54.5523 26.2023 53.9152 26.1869 53.4736C26.1792 53.2525 26.17 53.0816 26.1599 52.97C26.1548 52.9136 26.1497 52.8754 26.1452 52.8542C26.1424 52.8411 26.1415 52.8433 26.1456 52.8502C26.1463 52.8513 26.1589 52.8744 26.1897 52.8818C26.2303 52.8915 26.2562 52.8659 26.2625 52.8583L26.144 52.7596ZM26.3661 55.3042C26.3661 56.0188 26.3614 56.6669 26.353 57.1366C26.3488 57.3713 26.3438 57.562 26.3379 57.6943C26.335 57.7602 26.3318 57.8128 26.3284 57.8493C26.3267 57.8672 26.3248 57.8834 26.3223 57.896C26.3212 57.9017 26.3193 57.9105 26.3159 57.9194C26.3143 57.9234 26.3106 57.9323 26.3034 57.9415C26.2973 57.9493 26.277 57.9719 26.2414 57.9719V57.8176C26.2066 57.8176 26.1872 57.8397 26.182 57.8464C26.1756 57.8544 26.1728 57.8616 26.1721 57.8634C26.1704 57.8678 26.1702 57.8699 26.1709 57.8668C26.1718 57.8617 26.1732 57.8515 26.1748 57.8348C26.1779 57.8022 26.1809 57.7528 26.1838 57.6875C26.1895 57.5573 26.1946 57.3682 26.1987 57.1339C26.2071 56.6654 26.2118 56.0183 26.2118 55.3042H26.3661ZM26.2414 57.9719C26.2212 57.9719 26.2067 57.964 26.2038 57.9624C26.1984 57.9595 26.1942 57.9565 26.1919 57.9548C26.187 57.9511 26.1828 57.9472 26.1797 57.9443C26.1732 57.9382 26.1656 57.9302 26.1576 57.9215C26.1412 57.9036 26.1189 57.8781 26.0919 57.8461C26.0376 57.782 25.9618 57.6898 25.8706 57.5765C25.688 57.3497 25.4423 57.0373 25.18 56.694L25.3026 56.6003C25.5642 56.9427 25.809 57.2541 25.9907 57.4797C26.0816 57.5926 26.1565 57.6837 26.2096 57.7464C26.2362 57.7778 26.2569 57.8015 26.2712 57.8171C26.2785 57.825 26.2832 57.8299 26.2858 57.8323C26.2872 57.8337 26.2867 57.833 26.2847 57.8315C26.2838 57.8308 26.2809 57.8287 26.2765 57.8263C26.2746 57.8253 26.2609 57.8176 26.2414 57.8176V57.9719ZM60.6517 60.8758L60.7524 60.9927L60.7521 60.9929L60.6517 60.8758ZM64.7375 55.5233L64.8873 55.5607L64.8861 55.5649L64.7375 55.5233ZM62.9089 52.6566L62.787 52.7511L62.7868 52.7509L62.9089 52.6566ZM59.4326 54.5614H59.5869V54.7156H59.4326V54.5614ZM27.8128 54.5614V54.7156H27.6585V54.5614H27.8128ZM24.3365 52.6566L24.4586 52.7509L24.4584 52.7511L24.3365 52.6566ZM22.5079 55.5233L22.3593 55.5649L22.3583 55.5607L22.5079 55.5233ZM26.5937 60.8758L26.4933 60.9929L26.4931 60.9927L26.5937 60.8758ZM27.4985 60.8091L27.5989 60.9263L27.5983 60.9268L27.4985 60.8091ZM27.7652 60.5806L27.9195 60.5826L27.9186 60.6523L27.8656 60.6977L27.7652 60.5806ZM27.7938 58.3805L27.948 58.3825L27.7938 58.3805ZM27.8223 56.1804L27.6681 56.1784L27.6701 56.0262H27.8223V56.1804ZM59.4231 56.1804V56.0262H59.5754L59.5774 56.1784L59.4231 56.1804ZM59.4517 58.3805L59.2974 58.3825L59.4517 58.3805ZM59.4802 60.5806L59.3798 60.6977L59.3269 60.6523L59.326 60.5826L59.4802 60.5806ZM59.7469 60.8091L59.6471 60.9268L59.6465 60.9263L59.7469 60.8091ZM60.551 60.7589C60.5819 60.7323 60.6676 60.6366 60.8043 60.4722C60.9367 60.313 61.1078 60.1007 61.3045 59.8526C61.6976 59.3565 62.1908 58.7198 62.6755 58.0845C63.1603 57.4492 63.6362 56.8161 63.9948 56.3273C64.1742 56.0827 64.3237 55.8751 64.4301 55.7216C64.4834 55.6447 64.5251 55.5826 64.5541 55.5369C64.5686 55.5139 64.5791 55.4964 64.5859 55.484C64.595 55.4676 64.5923 55.4698 64.5889 55.4817L64.8861 55.5649C64.8786 55.5916 64.8646 55.6177 64.8559 55.6335C64.8449 55.6533 64.8309 55.6765 64.8148 55.7019C64.7824 55.753 64.7379 55.8192 64.6837 55.8974C64.5749 56.0543 64.4236 56.2645 64.2436 56.5098C63.8834 57.0007 63.4063 57.6355 62.9208 58.2717C62.4353 58.9079 61.941 59.5462 61.5463 60.0442C61.349 60.2931 61.1762 60.5076 61.0416 60.6695C60.9114 60.826 60.8072 60.9455 60.7524 60.9927L60.551 60.7589ZM64.5878 55.4859C64.603 55.4251 64.6062 55.3694 64.5812 55.2856C64.5539 55.1942 64.4926 55.0681 64.3681 54.8729C64.1193 54.4827 63.646 53.8582 62.787 52.7511L63.0308 52.562C63.8862 53.6644 64.37 54.3019 64.6283 54.707C64.7574 54.9094 64.8372 55.0643 64.8769 55.1973C64.9188 55.3379 64.9149 55.4501 64.8872 55.5607L64.5878 55.4859ZM62.7868 52.7509C61.6512 51.2813 61.082 50.5493 60.7546 50.1831C60.5894 49.9985 60.4982 49.9216 60.4374 49.8875C60.3891 49.8604 60.3592 49.8584 60.2803 49.8584V49.5498C60.368 49.5498 60.4667 49.5502 60.5883 49.6183C60.6974 49.6795 60.8176 49.7907 60.9846 49.9775C61.3215 50.3542 61.8998 51.0984 63.031 52.5622L62.7868 52.7509ZM60.2803 49.8584C60.0899 49.8584 59.976 49.8764 59.8979 49.9202C59.829 49.9589 59.7658 50.0309 59.715 50.2007C59.6629 50.3748 59.6298 50.6317 59.6107 51.0136C59.5917 51.3933 59.5869 51.885 59.5869 52.5232H59.2783C59.2783 51.8852 59.2831 51.3864 59.3025 50.9982C59.3218 50.6123 59.356 50.324 59.4193 50.1122C59.484 49.8964 59.5845 49.7422 59.7469 49.6511C59.9 49.5652 60.0849 49.5498 60.2803 49.5498V49.8584ZM59.5869 52.5232V54.5614H59.2783V52.5232H59.5869ZM59.4326 54.7156H43.6227V54.4071H59.4326V54.7156ZM43.6227 54.7156L27.8128 54.7156V54.4071L43.6227 54.4071V54.7156ZM27.6585 54.5614V52.5232H27.9671V54.5614H27.6585ZM27.6585 52.5232C27.6585 51.885 27.6538 51.3933 27.6348 51.0136C27.6157 50.6317 27.5826 50.3748 27.5305 50.2007C27.4796 50.0309 27.4165 49.9589 27.3476 49.9202C27.2694 49.8764 27.1555 49.8584 26.9652 49.8584V49.5498C27.1606 49.5498 27.3455 49.5652 27.4986 49.6511C27.661 49.7422 27.7615 49.8964 27.8261 50.1122C27.8895 50.324 27.9237 50.6123 27.943 50.9982C27.9624 51.3864 27.9671 51.8852 27.9671 52.5232H27.6585ZM26.9652 49.8584C26.8863 49.8584 26.8563 49.8604 26.808 49.8875C26.7472 49.9216 26.656 49.9985 26.4909 50.1831C26.1635 50.5493 25.5942 51.2813 24.4586 52.7509L24.2145 52.5622C25.3456 51.0984 25.924 50.3542 26.2609 49.9775C26.4279 49.7907 26.548 49.6795 26.6572 49.6183C26.7788 49.5502 26.8774 49.5498 26.9652 49.5498V49.8584ZM24.4584 52.7511C23.5995 53.8582 23.1262 54.4827 22.8773 54.8729C22.7528 55.0681 22.6915 55.1942 22.6643 55.2856C22.6392 55.3694 22.6424 55.4251 22.6576 55.4859L22.3583 55.5607C22.3306 55.4501 22.3266 55.3379 22.3686 55.1973C22.4083 55.0643 22.4881 54.9094 22.6171 54.707C22.8754 54.3019 23.3593 53.6644 24.2146 52.562L24.4584 52.7511ZM22.6565 55.4817C22.6532 55.4698 22.6504 55.4676 22.6595 55.484C22.6664 55.4964 22.6768 55.5139 22.6914 55.5369C22.7204 55.5826 22.762 55.6447 22.8154 55.7216C22.9218 55.8751 23.0713 56.0827 23.2507 56.3273C23.6093 56.8161 24.0851 57.4492 24.5699 58.0845C25.0547 58.7198 25.5478 59.3565 25.941 59.8526C26.1376 60.1007 26.3088 60.313 26.4411 60.4722C26.5779 60.6366 26.6636 60.7323 26.6944 60.7589L26.4931 60.9927C26.4382 60.9455 26.334 60.826 26.2039 60.6695C26.0693 60.5076 25.8964 60.2931 25.6991 60.0442C25.3045 59.5462 24.8101 58.9079 24.3246 58.2717C23.8391 57.6355 23.362 57.0007 23.0019 56.5098C22.8219 56.2645 22.6705 56.0543 22.5618 55.8974C22.5075 55.8192 22.463 55.753 22.4307 55.7019C22.4146 55.6765 22.4006 55.6533 22.3896 55.6335C22.3808 55.6177 22.3668 55.5916 22.3594 55.5649L22.6565 55.4817ZM26.6942 60.7587C26.7997 60.8491 26.9077 60.8828 27.0164 60.8744C27.1286 60.8657 27.2584 60.8105 27.3987 60.6915L27.5983 60.9268C27.4243 61.0744 27.2351 61.1669 27.0402 61.182C26.8417 61.1974 26.6545 61.1311 26.4933 60.9929L26.6942 60.7587ZM27.3981 60.692L27.6648 60.4634L27.8656 60.6977L27.5989 60.9263L27.3981 60.692ZM27.6109 60.5785L27.6395 58.3785L27.948 58.3825L27.9195 60.5826L27.6109 60.5785ZM27.6395 58.3785L27.6681 56.1784L27.9766 56.1825L27.948 58.3825L27.6395 58.3785ZM27.8223 56.0262L43.6227 56.0262V56.3347L27.8223 56.3347V56.0262ZM43.6227 56.0262H59.4231V56.3347H43.6227V56.0262ZM59.5774 56.1784L59.6059 58.3785L59.2974 58.3825L59.2688 56.1825L59.5774 56.1784ZM59.6059 58.3785L59.6345 60.5785L59.326 60.5826L59.2974 58.3825L59.6059 58.3785ZM59.5807 60.4634L59.8473 60.692L59.6465 60.9263L59.3798 60.6977L59.5807 60.4634ZM59.8467 60.6915C59.987 60.8105 60.1169 60.8657 60.2291 60.8744C60.3377 60.8828 60.4458 60.8491 60.5513 60.7587L60.7521 60.9929C60.591 61.1311 60.4038 61.1974 60.2052 61.182C60.0103 61.1669 59.8211 61.0744 59.6471 60.9268L59.8467 60.6915Z" fill="#0D313B" mask="url(#path-8-outside-3_6461_47161)"/>
</g>
<g id="Vector_4">
<mask id="path-10-outside-4_6461_47161" maskUnits="userSpaceOnUse" x="3" y="8" width="11" height="43" fill="black">
<rect fill="white" x="3" y="8" width="11" height="43"/>
<path d="M13.4854 9.43043C13.3101 8.99204 13.4057 9.00001 8.79863 9.00001C5.90526 9.00001 4.49445 9.02392 4.38286 9.08769C3.97635 9.3029 4.00026 8.25076 4.00026 29.405C4.00026 50.5593 3.97635 49.5072 4.38286 49.7224C4.49445 49.7861 5.91324 49.81 8.81457 49.81H13.0789L13.3021 49.6187L13.5253 49.4274L13.5412 29.5086C13.5492 18.3975 13.5253 9.52608 13.4854 9.43043ZM11.3971 12.4274C10.4964 12.4354 10.3529 12.4912 10.2094 12.8897C10.1457 13.081 10.1537 13.1846 10.2493 13.368C10.4087 13.6788 10.7275 13.7824 11.5406 13.7824H12.2101V15.1375V16.4925H10.7435C9.30876 16.4925 9.26093 16.5004 9.05369 16.6838C8.76675 16.9229 8.74284 17.3693 9.00587 17.6323C9.17326 17.7997 9.25296 17.8076 10.6957 17.8316L12.2101 17.8555V19.2025V20.5416L11.3732 20.5735C10.6399 20.5974 10.5203 20.6213 10.3609 20.7727C10.0979 21.0358 10.1218 21.4821 10.4087 21.7213C10.608 21.8966 10.6957 21.9126 11.421 21.9126H12.2101V23.2676V24.6226H10.7993C9.53991 24.6226 9.34861 24.6385 9.12543 24.774C8.71893 25.0291 8.70298 25.5711 9.09355 25.874C9.18123 25.9457 9.66744 25.9696 10.7196 25.9776H12.2101V27.3326V28.6877H11.5964C10.7196 28.6877 10.4007 28.7913 10.2413 29.134C10.1138 29.3811 10.1138 29.4289 10.2413 29.676C10.4007 30.0188 10.7196 30.1224 11.5964 30.1224H12.2101L12.2101 31.4774V32.8324H10.7116C9.31673 32.8324 9.19717 32.8404 9.03775 32.9918C8.66313 33.3426 8.75081 33.8766 9.22108 34.0679C9.42035 34.1556 9.8428 34.1874 10.8551 34.1874H12.2101V35.5425V36.8975H11.421C10.6957 36.8975 10.608 36.9134 10.4087 37.0888C10.1218 37.3279 10.0979 37.7743 10.3609 38.0373C10.5203 38.1887 10.6399 38.2127 11.3732 38.2366L12.2101 38.2685V39.6155V40.9626H10.7435C9.30876 40.9626 9.26093 40.9705 9.05369 41.1538C8.74284 41.4169 8.74284 41.8632 9.05369 42.1263C9.26093 42.3096 9.30876 42.3176 10.7435 42.3176H12.2101V43.6726V45.0276H11.5406C10.7275 45.0276 10.4087 45.1312 10.2493 45.4421C10.1537 45.6254 10.1457 45.729 10.2094 45.9203C10.3529 46.3189 10.4964 46.3747 11.3971 46.3826H12.2101V47.4188V48.455L8.8066 48.4391L5.39514 48.4152L5.39514 29.405L5.39514 10.3949L8.8066 10.371L12.2101 10.355V11.3912V12.4274H11.3971Z"/>
</mask>
<path d="M13.4854 9.43043C13.3101 8.99204 13.4057 9.00001 8.79863 9.00001C5.90526 9.00001 4.49445 9.02392 4.38286 9.08769C3.97635 9.3029 4.00026 8.25076 4.00026 29.405C4.00026 50.5593 3.97635 49.5072 4.38286 49.7224C4.49445 49.7861 5.91324 49.81 8.81457 49.81H13.0789L13.3021 49.6187L13.5253 49.4274L13.5412 29.5086C13.5492 18.3975 13.5253 9.52608 13.4854 9.43043ZM11.3971 12.4274C10.4964 12.4354 10.3529 12.4912 10.2094 12.8897C10.1457 13.081 10.1537 13.1846 10.2493 13.368C10.4087 13.6788 10.7275 13.7824 11.5406 13.7824H12.2101V15.1375V16.4925H10.7435C9.30876 16.4925 9.26093 16.5004 9.05369 16.6838C8.76675 16.9229 8.74284 17.3693 9.00587 17.6323C9.17326 17.7997 9.25296 17.8076 10.6957 17.8316L12.2101 17.8555V19.2025V20.5416L11.3732 20.5735C10.6399 20.5974 10.5203 20.6213 10.3609 20.7727C10.0979 21.0358 10.1218 21.4821 10.4087 21.7213C10.608 21.8966 10.6957 21.9126 11.421 21.9126H12.2101V23.2676V24.6226H10.7993C9.53991 24.6226 9.34861 24.6385 9.12543 24.774C8.71893 25.0291 8.70298 25.5711 9.09355 25.874C9.18123 25.9457 9.66744 25.9696 10.7196 25.9776H12.2101V27.3326V28.6877H11.5964C10.7196 28.6877 10.4007 28.7913 10.2413 29.134C10.1138 29.3811 10.1138 29.4289 10.2413 29.676C10.4007 30.0188 10.7196 30.1224 11.5964 30.1224H12.2101L12.2101 31.4774V32.8324H10.7116C9.31673 32.8324 9.19717 32.8404 9.03775 32.9918C8.66313 33.3426 8.75081 33.8766 9.22108 34.0679C9.42035 34.1556 9.8428 34.1874 10.8551 34.1874H12.2101V35.5425V36.8975H11.421C10.6957 36.8975 10.608 36.9134 10.4087 37.0888C10.1218 37.3279 10.0979 37.7743 10.3609 38.0373C10.5203 38.1887 10.6399 38.2127 11.3732 38.2366L12.2101 38.2685V39.6155V40.9626H10.7435C9.30876 40.9626 9.26093 40.9705 9.05369 41.1538C8.74284 41.4169 8.74284 41.8632 9.05369 42.1263C9.26093 42.3096 9.30876 42.3176 10.7435 42.3176H12.2101V43.6726V45.0276H11.5406C10.7275 45.0276 10.4087 45.1312 10.2493 45.4421C10.1537 45.6254 10.1457 45.729 10.2094 45.9203C10.3529 46.3189 10.4964 46.3747 11.3971 46.3826H12.2101V47.4188V48.455L8.8066 48.4391L5.39514 48.4152L5.39514 29.405L5.39514 10.3949L8.8066 10.371L12.2101 10.355V11.3912V12.4274H11.3971Z" fill="#0D313B"/>
<path d="M13.4854 9.43043C13.3101 8.99204 13.4057 9.00001 8.79863 9.00001C5.90526 9.00001 4.49445 9.02392 4.38286 9.08769C3.97635 9.3029 4.00026 8.25076 4.00026 29.405C4.00026 50.5593 3.97635 49.5072 4.38286 49.7224C4.49445 49.7861 5.91324 49.81 8.81457 49.81H13.0789L13.3021 49.6187L13.5253 49.4274L13.5412 29.5086C13.5492 18.3975 13.5253 9.52608 13.4854 9.43043ZM11.3971 12.4274C10.4964 12.4354 10.3529 12.4912 10.2094 12.8897C10.1457 13.081 10.1537 13.1846 10.2493 13.368C10.4087 13.6788 10.7275 13.7824 11.5406 13.7824H12.2101V15.1375V16.4925H10.7435C9.30876 16.4925 9.26093 16.5004 9.05369 16.6838C8.76675 16.9229 8.74284 17.3693 9.00587 17.6323C9.17326 17.7997 9.25296 17.8076 10.6957 17.8316L12.2101 17.8555V19.2025V20.5416L11.3732 20.5735C10.6399 20.5974 10.5203 20.6213 10.3609 20.7727C10.0979 21.0358 10.1218 21.4821 10.4087 21.7213C10.608 21.8966 10.6957 21.9126 11.421 21.9126H12.2101V23.2676V24.6226H10.7993C9.53991 24.6226 9.34861 24.6385 9.12543 24.774C8.71893 25.0291 8.70298 25.5711 9.09355 25.874C9.18123 25.9457 9.66744 25.9696 10.7196 25.9776H12.2101V27.3326V28.6877H11.5964C10.7196 28.6877 10.4007 28.7913 10.2413 29.134C10.1138 29.3811 10.1138 29.4289 10.2413 29.676C10.4007 30.0188 10.7196 30.1224 11.5964 30.1224H12.2101L12.2101 31.4774V32.8324H10.7116C9.31673 32.8324 9.19717 32.8404 9.03775 32.9918C8.66313 33.3426 8.75081 33.8766 9.22108 34.0679C9.42035 34.1556 9.8428 34.1874 10.8551 34.1874H12.2101V35.5425V36.8975H11.421C10.6957 36.8975 10.608 36.9134 10.4087 37.0888C10.1218 37.3279 10.0979 37.7743 10.3609 38.0373C10.5203 38.1887 10.6399 38.2127 11.3732 38.2366L12.2101 38.2685V39.6155V40.9626H10.7435C9.30876 40.9626 9.26093 40.9705 9.05369 41.1538C8.74284 41.4169 8.74284 41.8632 9.05369 42.1263C9.26093 42.3096 9.30876 42.3176 10.7435 42.3176H12.2101V43.6726V45.0276H11.5406C10.7275 45.0276 10.4087 45.1312 10.2493 45.4421C10.1537 45.6254 10.1457 45.729 10.2094 45.9203C10.3529 46.3189 10.4964 46.3747 11.3971 46.3826H12.2101V47.4188V48.455L8.8066 48.4391L5.39514 48.4152L5.39514 29.405L5.39514 10.3949L8.8066 10.371L12.2101 10.355V11.3912V12.4274H11.3971Z" stroke="#0D313B" stroke-width="0.411429" mask="url(#path-10-outside-4_6461_47161)"/>
</g>
</g>
</g>
</g>
</g>
</g>
</g>
</svg>
