<svg width="72" height="72" viewBox="0 0 72 72" fill="none" xmlns="http://www.w3.org/2000/svg">
<path d="M29.887 4.07675C27.9495 4.40174 25.9246 5.37672 24.5871 6.62668L23.6622 7.48916H19.9123C15.8249 7.48916 15.2624 7.55166 14.0874 8.13914C12.675 8.85162 11.4875 10.3891 11.15 11.964C10.95 12.9015 10.95 62.5751 11.15 63.5126C11.35 64.4376 11.925 65.5376 12.5875 66.2375C13.2374 66.925 14.5249 67.65 15.4874 67.85C16.4249 68.05 56.3488 68.05 57.2862 67.85C59.4112 67.4 61.1736 65.6251 61.6236 63.5126C61.8236 62.5626 61.8236 12.9015 61.6236 11.964C61.1736 9.85159 59.3862 8.06414 57.2862 7.62666C56.8862 7.53916 55.1363 7.48916 52.8614 7.48916H49.099L48.2615 6.68918C47.3115 5.8017 46.3615 5.18922 45.0866 4.68924C43.4491 4.02675 42.8991 3.98926 36.2868 4.00175C32.9369 4.01425 30.062 4.05175 29.887 4.07675ZM42.8741 7.92665C43.3116 8.03914 44.0241 8.30164 44.4366 8.51413C45.6865 9.17661 47.0865 10.7641 47.449 11.9515L47.524 12.239H36.3868H25.2496L25.3246 11.9515C25.5371 11.2891 26.1246 10.3766 26.8371 9.6516C27.662 8.81412 28.962 8.07664 30.0245 7.87665C30.3245 7.81415 33.1619 7.76415 36.3243 7.75165C41.0492 7.73915 42.2116 7.77665 42.8741 7.92665ZM21.4247 12.0765C21.3247 12.5515 21.2622 13.3765 21.2872 13.9515C21.3247 15.0515 21.5247 15.4139 22.2872 15.8139C22.7872 16.0764 49.9864 16.0764 50.4864 15.8139C51.2489 15.4139 51.4489 15.0515 51.4864 13.9515C51.5114 13.3765 51.4489 12.5515 51.3489 12.0765L51.1739 11.2391H53.8113C56.8362 11.2391 57.2362 11.3391 57.7362 12.2265L58.0112 12.714V37.7383V62.7626L57.7487 63.2376C57.5987 63.5001 57.2737 63.8251 57.0112 63.9751L56.5362 64.2376H36.3868H16.2374L15.7624 63.9751C15.4999 63.8251 15.1749 63.5001 15.0249 63.2376L14.7624 62.7626V37.7383V12.714L15.0374 12.2265C15.5374 11.3391 15.9249 11.2391 18.9623 11.2391H21.5997L21.4247 12.0765Z" fill="#0B2D1F"/>
<path d="M42.8741 7.92665C43.3116 8.03914 44.0241 8.30164 44.4366 8.51413C45.6865 9.17661 47.0865 10.7641 47.449 11.9515L47.524 12.239H36.3868H25.2496L25.3246 11.9515C25.5371 11.2891 26.1246 10.3766 26.8371 9.6516C27.662 8.81412 28.962 8.07664 30.0245 7.87665C30.3245 7.81415 33.1619 7.76415 36.3243 7.75165C41.0492 7.73915 42.2116 7.77665 42.8741 7.92665Z" fill="#22885E"/>
<path d="M27.762 40.9381C27.5245 41.038 26.6621 41.7755 25.8621 42.5755L24.3996 44.0255L23.8871 43.563C23.5996 43.313 23.2372 43.0505 23.0622 42.988C21.5247 42.4005 19.9872 44.063 20.7122 45.5254C20.9872 46.0754 22.9747 48.0754 23.5371 48.3753C24.1246 48.6753 24.6496 48.6753 25.2371 48.3753C25.4871 48.2379 26.6871 47.1379 27.8995 45.9004C29.662 44.1255 30.137 43.5755 30.2495 43.1755C30.512 42.2255 29.9245 41.113 29.037 40.8631C28.437 40.7006 28.287 40.7131 27.762 40.9381Z" fill="#0B2D1F"/>
<path d="M33.8362 42.2876C32.6988 43.0501 32.7238 44.55 33.8987 45.425C34.2362 45.6875 34.3612 45.6875 42.411 45.6875C50.4608 45.6875 50.5858 45.6875 50.9233 45.425C52.0982 44.55 52.1232 43.0501 50.9858 42.2876L50.5608 42.0001H42.411H34.2612L33.8362 42.2876Z" fill="#0B2D1F"/>
<path d="M28.3252 51.5506C28.2627 51.5756 28.0377 51.6256 27.8377 51.6756C27.6002 51.7256 26.9252 52.2881 25.9378 53.2631L24.4003 54.7755L23.9378 54.363C23.4253 53.913 22.7879 53.6131 22.3629 53.6131C21.8379 53.6131 21.0754 54.088 20.7879 54.6005C20.2004 55.6505 20.4504 56.263 22.1754 57.9629C23.5503 59.3129 23.8878 59.4879 24.8628 59.3004C25.2503 59.2254 25.6878 58.8504 27.6127 56.9505C28.8752 55.7005 30.0002 54.5005 30.1002 54.3005C30.5376 53.4756 30.2252 52.2881 29.4502 51.8506C29.0502 51.6256 28.5252 51.4881 28.3252 51.5506Z" fill="#0B2D1F"/>
<path d="M34.0246 52.9246C33.4121 53.1996 33.0371 53.8246 33.0371 54.5871C33.0371 55.287 33.2621 55.712 33.8996 56.1745C34.2371 56.437 34.3621 56.437 42.4119 56.437C50.4616 56.437 50.5866 56.437 50.9241 56.1745C51.5616 55.712 51.7866 55.287 51.7866 54.5871C51.7866 53.8121 51.4116 53.1871 50.7741 52.9246C50.1741 52.6746 34.5996 52.6746 34.0246 52.9246Z" fill="#0B2D1F"/>
<mask id="path-6-outside-1_6356_46184" maskUnits="userSpaceOnUse" x="24" y="19.0522" width="25" height="20" fill="black">
<rect fill="white" x="24" y="19.0522" width="25" height="20"/>
<path d="M36.862 20.0795C35.0063 20.412 32.9395 21.4499 31.1557 22.9462C30.63 23.3865 29.6639 24.375 29.2506 24.8872C28.4687 25.8667 27.6555 27.2866 27.2736 28.347C26.8287 29.5826 26.6131 30.8272 26.5996 32.1886L26.5951 33.0873L26.2177 33.6489C25.4538 34.7812 25 36.0303 25 36.9694C25.0045 37.6164 25.4313 38.0522 26.0649 38.0522C26.3749 38.0522 26.6265 37.9444 26.8287 37.7332C27.0085 37.54 27.0938 37.3378 27.1343 36.9963C27.1882 36.5605 27.3679 35.9989 27.6105 35.5406C27.9385 34.9025 27.8352 34.9564 28.617 35.0238C30.0998 35.1541 31.7218 35.3204 32.616 35.4372C33.4562 35.545 33.7033 35.5585 34.8625 35.5585C36.242 35.554 36.7227 35.5046 37.6888 35.262C40.8475 34.4712 43.9792 32.0943 45.781 29.1108C46.7605 27.4933 47.4569 25.5657 47.7984 23.5393C48.0231 22.2183 48.0545 21.5667 47.9197 21.2657C47.8164 21.0321 47.5154 20.7759 47.2727 20.713C47.1694 20.6861 45.8933 20.5737 44.433 20.4614C42.9772 20.3491 41.0182 20.1963 40.0881 20.1244C38.1471 19.9717 37.5315 19.9627 36.862 20.0795ZM40.9508 22.3486C44.9767 22.6586 45.7181 22.7215 45.7361 22.7395C45.7675 22.7664 45.5428 23.9032 45.4036 24.4379C44.8329 26.6216 43.804 28.4997 42.3527 30.0139C40.8609 31.5731 38.9334 32.7323 37.0642 33.1951C35.887 33.4872 34.6648 33.5186 32.8631 33.2985C32.234 33.2176 31.295 33.1142 30.7737 33.0648C30.257 33.0154 29.8122 32.966 29.7897 32.9615C29.7044 32.9345 30.8591 32.0404 31.7218 31.4562C33.3663 30.3599 35.5815 29.1872 37.5135 28.3964C37.8865 28.2436 38.3133 28.0684 38.4661 28.0055C38.9873 27.7898 39.2254 27.4259 39.1895 26.8912C39.167 26.5452 39.0232 26.2981 38.7087 26.0779C38.5335 25.9566 38.4841 25.9431 38.1516 25.9431C37.8011 25.9431 37.7472 25.9611 37.0912 26.2262C34.6783 27.2102 32.616 28.2661 30.7917 29.4478C30.293 29.7713 29.4348 30.3914 29.1203 30.652C29.0034 30.7508 28.8956 30.8182 28.8821 30.8047C28.8641 30.7913 28.8956 30.5846 28.9495 30.3464C29.5157 27.7808 31.2141 25.4039 33.6494 23.7864C34.3368 23.3281 34.7817 23.0809 35.4062 22.8024C36.4801 22.3261 37.4506 22.0835 38.0976 22.1329C38.2234 22.1419 39.504 22.2407 40.9508 22.3486Z"/>
<path d="M40.9508 22.3486C44.9767 22.6586 45.7181 22.7215 45.7361 22.7395C45.7675 22.7664 45.5428 23.9032 45.4036 24.4379C44.8329 26.6216 43.804 28.4997 42.3527 30.0139C40.8609 31.5731 38.9334 32.7323 37.0642 33.1951C35.887 33.4872 34.6648 33.5186 32.8631 33.2985C32.234 33.2176 31.295 33.1142 30.7737 33.0648C30.257 33.0154 29.8122 32.966 29.7897 32.9615C29.7044 32.9345 30.8591 32.0404 31.7218 31.4562C33.3663 30.3599 35.5815 29.1872 37.5135 28.3964C37.8865 28.2436 38.3133 28.0684 38.4661 28.0055C38.9873 27.7898 39.2254 27.4259 39.1895 26.8912C39.167 26.5452 39.0232 26.2981 38.7087 26.0779C38.5335 25.9566 38.4841 25.9431 38.1516 25.9431C37.8011 25.9431 37.7472 25.9611 37.0912 26.2262C34.6783 27.2102 32.616 28.2661 30.7917 29.4478C30.293 29.7713 29.4348 30.3914 29.1203 30.652C29.0034 30.7508 28.8956 30.8182 28.8821 30.8047C28.8641 30.7913 28.8956 30.5846 28.9495 30.3464C29.5157 27.7808 31.2141 25.4039 33.6494 23.7864C34.3368 23.3281 34.7817 23.0809 35.4062 22.8024C36.4801 22.3261 37.4506 22.0835 38.0976 22.1329C38.2234 22.1419 39.504 22.2407 40.9508 22.3486Z"/>
</mask>
<path d="M36.862 20.0795C35.0063 20.412 32.9395 21.4499 31.1557 22.9462C30.63 23.3865 29.6639 24.375 29.2506 24.8872C28.4687 25.8667 27.6555 27.2866 27.2736 28.347C26.8287 29.5826 26.6131 30.8272 26.5996 32.1886L26.5951 33.0873L26.2177 33.6489C25.4538 34.7812 25 36.0303 25 36.9694C25.0045 37.6164 25.4313 38.0522 26.0649 38.0522C26.3749 38.0522 26.6265 37.9444 26.8287 37.7332C27.0085 37.54 27.0938 37.3378 27.1343 36.9963C27.1882 36.5605 27.3679 35.9989 27.6105 35.5406C27.9385 34.9025 27.8352 34.9564 28.617 35.0238C30.0998 35.1541 31.7218 35.3204 32.616 35.4372C33.4562 35.545 33.7033 35.5585 34.8625 35.5585C36.242 35.554 36.7227 35.5046 37.6888 35.262C40.8475 34.4712 43.9792 32.0943 45.781 29.1108C46.7605 27.4933 47.4569 25.5657 47.7984 23.5393C48.0231 22.2183 48.0545 21.5667 47.9197 21.2657C47.8164 21.0321 47.5154 20.7759 47.2727 20.713C47.1694 20.6861 45.8933 20.5737 44.433 20.4614C42.9772 20.3491 41.0182 20.1963 40.0881 20.1244C38.1471 19.9717 37.5315 19.9627 36.862 20.0795ZM40.9508 22.3486C44.9767 22.6586 45.7181 22.7215 45.7361 22.7395C45.7675 22.7664 45.5428 23.9032 45.4036 24.4379C44.8329 26.6216 43.804 28.4997 42.3527 30.0139C40.8609 31.5731 38.9334 32.7323 37.0642 33.1951C35.887 33.4872 34.6648 33.5186 32.8631 33.2985C32.234 33.2176 31.295 33.1142 30.7737 33.0648C30.257 33.0154 29.8122 32.966 29.7897 32.9615C29.7044 32.9345 30.8591 32.0404 31.7218 31.4562C33.3663 30.3599 35.5815 29.1872 37.5135 28.3964C37.8865 28.2436 38.3133 28.0684 38.4661 28.0055C38.9873 27.7898 39.2254 27.4259 39.1895 26.8912C39.167 26.5452 39.0232 26.2981 38.7087 26.0779C38.5335 25.9566 38.4841 25.9431 38.1516 25.9431C37.8011 25.9431 37.7472 25.9611 37.0912 26.2262C34.6783 27.2102 32.616 28.2661 30.7917 29.4478C30.293 29.7713 29.4348 30.3914 29.1203 30.652C29.0034 30.7508 28.8956 30.8182 28.8821 30.8047C28.8641 30.7913 28.8956 30.5846 28.9495 30.3464C29.5157 27.7808 31.2141 25.4039 33.6494 23.7864C34.3368 23.3281 34.7817 23.0809 35.4062 22.8024C36.4801 22.3261 37.4506 22.0835 38.0976 22.1329C38.2234 22.1419 39.504 22.2407 40.9508 22.3486Z" fill="#0B2D1F"/>
<path d="M40.9508 22.3486C44.9767 22.6586 45.7181 22.7215 45.7361 22.7395C45.7675 22.7664 45.5428 23.9032 45.4036 24.4379C44.8329 26.6216 43.804 28.4997 42.3527 30.0139C40.8609 31.5731 38.9334 32.7323 37.0642 33.1951C35.887 33.4872 34.6648 33.5186 32.8631 33.2985C32.234 33.2176 31.295 33.1142 30.7737 33.0648C30.257 33.0154 29.8122 32.966 29.7897 32.9615C29.7044 32.9345 30.8591 32.0404 31.7218 31.4562C33.3663 30.3599 35.5815 29.1872 37.5135 28.3964C37.8865 28.2436 38.3133 28.0684 38.4661 28.0055C38.9873 27.7898 39.2254 27.4259 39.1895 26.8912C39.167 26.5452 39.0232 26.2981 38.7087 26.0779C38.5335 25.9566 38.4841 25.9431 38.1516 25.9431C37.8011 25.9431 37.7472 25.9611 37.0912 26.2262C34.6783 27.2102 32.616 28.2661 30.7917 29.4478C30.293 29.7713 29.4348 30.3914 29.1203 30.652C29.0034 30.7508 28.8956 30.8182 28.8821 30.8047C28.8641 30.7913 28.8956 30.5846 28.9495 30.3464C29.5157 27.7808 31.2141 25.4039 33.6494 23.7864C34.3368 23.3281 34.7817 23.0809 35.4062 22.8024C36.4801 22.3261 37.4506 22.0835 38.0976 22.1329C38.2234 22.1419 39.504 22.2407 40.9508 22.3486Z" fill="#CBEDDF"/>
<path d="M40.9508 22.3486L40.9694 22.0992L40.97 22.0993L40.9508 22.3486ZM45.7361 22.7395L45.5734 22.9293L45.5661 22.923L45.5593 22.9162L45.7361 22.7395ZM45.4036 24.4379L45.6455 24.5009L45.6454 24.5011L45.4036 24.4379ZM42.3527 30.0139L42.172 29.8411L42.1722 29.8409L42.3527 30.0139ZM37.0642 33.1951L37.004 32.9525L37.0041 32.9524L37.0642 33.1951ZM32.8631 33.2985L32.8328 33.5466L32.8312 33.5464L32.8631 33.2985ZM30.7737 33.0648L30.7501 33.3137L30.7499 33.3137L30.7737 33.0648ZM29.7897 32.9615L29.7407 33.2066L29.7274 33.2039L29.7145 33.1999L29.7897 32.9615ZM31.7218 31.4562L31.5816 31.2492L31.5831 31.2482L31.7218 31.4562ZM37.5135 28.3964L37.6083 28.6277L37.6082 28.6278L37.5135 28.3964ZM38.4661 28.0055L38.5617 28.2365L38.5613 28.2367L38.4661 28.0055ZM39.1895 26.8912L38.94 26.9079L38.94 26.9074L39.1895 26.8912ZM38.7087 26.0779L38.851 25.8724L38.8521 25.8731L38.7087 26.0779ZM37.0912 26.2262L36.9968 25.9947L36.9975 25.9944L37.0912 26.2262ZM30.7917 29.4478L30.6557 29.2381L30.6558 29.238L30.7917 29.4478ZM29.1203 30.652L28.9588 30.4611L28.9607 30.4595L29.1203 30.652ZM28.8821 30.8047L29.0321 30.6047L29.0463 30.6154L29.0589 30.628L28.8821 30.8047ZM28.9495 30.3464L29.1936 30.4003L29.1933 30.4016L28.9495 30.3464ZM33.6494 23.7864L33.7881 23.9944L33.7877 23.9946L33.6494 23.7864ZM35.4062 22.8024L35.3044 22.5741L35.3049 22.5738L35.4062 22.8024ZM38.0976 22.1329L38.0798 22.3823L38.0786 22.3822L38.0976 22.1329ZM40.97 22.0993C42.9828 22.2543 44.1753 22.3476 44.8669 22.4044C45.2123 22.4327 45.4343 22.4521 45.5714 22.4656C45.6395 22.4723 45.6894 22.4778 45.724 22.4825C45.7407 22.4847 45.7582 22.4874 45.774 22.4907C45.7814 22.4922 45.794 22.495 45.8082 22.4995C45.8153 22.5017 45.8273 22.5059 45.8413 22.5125C45.8516 22.5173 45.8824 22.5323 45.9128 22.5627L45.5593 22.9162C45.5891 22.9461 45.6191 22.9605 45.6281 22.9647C45.6408 22.9707 45.6511 22.9742 45.6561 22.9758C45.6662 22.979 45.6732 22.9804 45.6732 22.9804C45.6742 22.9806 45.67 22.9797 45.6568 22.978C45.6317 22.9746 45.5893 22.9698 45.5225 22.9632C45.3897 22.9501 45.1713 22.9311 44.8259 22.9027C44.1359 22.846 42.9447 22.7528 40.9316 22.5978L40.97 22.0993ZM45.8988 22.5497C45.9442 22.5886 45.9635 22.6331 45.9707 22.6518C45.9792 22.674 45.983 22.6931 45.9849 22.7041C45.9885 22.7262 45.989 22.7454 45.989 22.7559C45.9891 22.7787 45.9873 22.8026 45.9853 22.8227C45.9812 22.8648 45.9735 22.9193 45.9639 22.9802C45.9444 23.1032 45.9142 23.2679 45.8791 23.4465C45.8091 23.8031 45.717 24.2265 45.6455 24.5009L45.1616 24.3749C45.2294 24.1145 45.3193 23.7023 45.3885 23.3501C45.4231 23.1742 45.4519 23.0163 45.47 22.9019C45.4792 22.844 45.485 22.8011 45.4877 22.7738C45.4891 22.7592 45.489 22.7554 45.489 22.7583C45.489 22.7589 45.489 22.7701 45.4917 22.7863C45.493 22.7943 45.4962 22.8109 45.504 22.8312C45.5105 22.8481 45.5289 22.8912 45.5734 22.9293L45.8988 22.5497ZM45.6454 24.5011C45.0648 26.7229 44.0161 28.6397 42.5332 30.1869L42.1722 29.8409C43.5919 28.3597 44.601 26.5202 45.1617 24.3747L45.6454 24.5011ZM42.5333 30.1868C41.0129 31.7759 39.0448 32.9623 37.1243 33.4378L37.0041 32.9524C38.8219 32.5024 40.709 31.3702 42.172 29.8411L42.5333 30.1868ZM37.1244 33.4378C35.9069 33.7398 34.6515 33.7689 32.8328 33.5466L32.8934 33.0503C34.6782 33.2684 35.867 33.2345 37.004 32.9525L37.1244 33.4378ZM32.8312 33.5464C32.205 33.4659 31.2687 33.3629 30.7501 33.3137L30.7973 32.8159C31.3212 32.8656 32.263 32.9692 32.895 33.0505L32.8312 33.5464ZM30.7499 33.3137C30.4906 33.2889 30.2492 33.2641 30.0698 33.2449C29.9801 33.2353 29.9057 33.2271 29.852 33.2209C29.8076 33.2159 29.7598 33.2104 29.7407 33.2066L29.8388 32.7163C29.8309 32.7148 29.8471 32.7171 29.9086 32.7242C29.9608 32.7301 30.0341 32.7382 30.123 32.7477C30.3008 32.7667 30.5402 32.7913 30.7975 32.8159L30.7499 33.3137ZM29.7145 33.1999C29.6799 33.1889 29.6358 33.1669 29.5984 33.1241C29.5599 33.08 29.5422 33.0297 29.537 32.9855C29.5282 32.9101 29.5553 32.8532 29.5631 32.8371C29.5832 32.7958 29.6118 32.7629 29.6262 32.7467C29.6618 32.7067 29.7128 32.6591 29.769 32.6095C29.8845 32.5077 30.0525 32.3715 30.2468 32.2204C30.6365 31.9175 31.1452 31.5447 31.5816 31.2492L31.862 31.6633C31.4357 31.9519 30.9357 32.3182 30.5537 32.6152C30.3622 32.764 30.2036 32.8929 30.0996 32.9846C30.0461 33.0318 30.0141 33.063 29.9995 33.0793C29.9889 33.0913 30.0005 33.0809 30.0127 33.056C30.0165 33.0481 30.0419 32.9977 30.0336 32.9274C30.0287 32.8857 30.0119 32.8374 29.9749 32.7951C29.939 32.754 29.8969 32.7331 29.865 32.7231L29.7145 33.1999ZM31.5831 31.2482C33.242 30.1423 35.472 28.9619 37.4188 28.165L37.6082 28.6278C35.6909 29.4125 33.4906 30.5775 31.8605 31.6643L31.5831 31.2482ZM37.4188 28.165C37.7916 28.0123 38.2183 27.8371 38.3709 27.7743L38.5613 28.2367C38.4083 28.2996 37.9813 28.4749 37.6083 28.6277L37.4188 28.165ZM38.3705 27.7745C38.598 27.6803 38.7416 27.5632 38.8271 27.4316C38.9118 27.3015 38.9552 27.1334 38.94 26.9079L39.4389 26.8744C39.4597 27.1836 39.402 27.4649 39.2463 27.7043C39.0915 27.9423 38.8554 28.115 38.5617 28.2365L38.3705 27.7745ZM38.94 26.9074C38.9309 26.7664 38.8981 26.6575 38.8432 26.5642C38.7876 26.4699 38.7012 26.3778 38.5653 26.2827L38.8521 25.8731C39.0307 25.9982 39.1735 26.1397 39.274 26.3105C39.3752 26.4823 39.4256 26.6699 39.439 26.875L38.94 26.9074ZM38.5664 26.2835C38.4823 26.2252 38.458 26.2148 38.4297 26.2079C38.3883 26.1977 38.3237 26.1931 38.1516 26.1931V25.6931C38.3119 25.6931 38.4383 25.6952 38.5485 25.7222C38.6718 25.7523 38.7599 25.8093 38.851 25.8724L38.5664 26.2835ZM38.1516 26.1931C37.982 26.1931 37.9077 26.1978 37.8011 26.2266C37.6799 26.2593 37.5192 26.3228 37.1848 26.458L36.9975 25.9944C37.3191 25.8644 37.5133 25.7864 37.6707 25.7439C37.8427 25.6974 37.9706 25.6931 38.1516 25.6931V26.1931ZM37.1856 26.4577C34.7846 27.4368 32.7365 28.4858 30.9276 29.6576L30.6558 29.238C32.4954 28.0463 34.5721 26.9835 36.9968 25.9947L37.1856 26.4577ZM30.9278 29.6575C30.4345 29.9775 29.5847 30.5918 29.2798 30.8445L28.9607 30.4595C29.2849 30.1909 30.1515 29.5651 30.6557 29.2381L30.9278 29.6575ZM29.2817 30.8428C29.2168 30.8978 29.1515 30.9465 29.0966 30.9814C29.0705 30.998 29.0393 31.0163 29.0076 31.03C28.9933 31.0362 28.9662 31.0471 28.9326 31.0527C28.9157 31.0555 28.8862 31.0589 28.8504 31.0538C28.8139 31.0486 28.7559 31.0321 28.7053 30.9815L29.0589 30.628C29.01 30.5791 28.9544 30.5636 28.9211 30.5588C28.8884 30.5542 28.8627 30.5574 28.8502 30.5595C28.8256 30.5636 28.81 30.5707 28.8095 30.5709C28.8056 30.5726 28.8111 30.5705 28.8282 30.5596C28.8599 30.5394 28.9069 30.505 28.9588 30.4611L29.2817 30.8428ZM28.7321 31.0047C28.6683 30.9569 28.6471 30.8946 28.6413 30.8765C28.6331 30.851 28.6302 30.8288 28.6289 30.8163C28.6263 30.7903 28.6269 30.7656 28.6278 30.7483C28.6297 30.7114 28.6349 30.6676 28.6416 30.6231C28.6551 30.532 28.6778 30.4144 28.7057 30.2912L29.1933 30.4016C29.1673 30.5166 29.1473 30.6214 29.1361 30.6966C29.1304 30.7351 29.1278 30.7605 29.1272 30.7736C29.1268 30.7812 29.1275 30.7768 29.1263 30.7656C29.1258 30.7605 29.124 30.7444 29.1173 30.7234C29.113 30.71 29.0937 30.6509 29.0321 30.6047L28.7321 31.0047ZM28.7054 30.2926C29.287 27.6567 31.0281 25.2273 33.5111 23.5781L33.7877 23.9946C31.4 25.5805 29.7443 27.9049 29.1936 30.4003L28.7054 30.2926ZM33.5107 23.5784C34.2081 23.1134 34.6652 22.8592 35.3044 22.5741L35.5081 23.0307C34.8981 23.3027 34.4656 23.5427 33.7881 23.9944L33.5107 23.5784ZM35.3049 22.5738C36.3901 22.0925 37.4069 21.8294 38.1167 21.8836L38.0786 22.3822C37.4943 22.3375 36.5701 22.5597 35.5076 23.0309L35.3049 22.5738ZM38.1154 21.8835C38.2415 21.8925 39.5244 21.9915 40.9694 22.0992L40.9322 22.5979C39.4836 22.4899 38.2054 22.3912 38.0798 22.3823L38.1154 21.8835ZM36.862 20.0795L36.7738 19.5873L36.7761 19.5869L36.862 20.0795ZM31.1557 22.9462L31.477 23.3292L31.4767 23.3295L31.1557 22.9462ZM29.2506 24.8872L28.8598 24.5753L28.8615 24.5732L29.2506 24.8872ZM27.2736 28.347L26.8031 28.1776L26.8031 28.1775L27.2736 28.347ZM26.5996 32.1886L26.0996 32.1861L26.0996 32.1837L26.5996 32.1886ZM26.5951 33.0873L27.0951 33.0898L27.0943 33.2408L27.0101 33.3662L26.5951 33.0873ZM26.2177 33.6489L26.6327 33.9278L26.6322 33.9285L26.2177 33.6489ZM25 36.9694L24.5 36.9729V36.9694H25ZM26.8287 37.7332L27.1949 38.0738L27.1899 38.079L26.8287 37.7332ZM27.1343 36.9963L26.6377 36.9375L26.638 36.935L27.1343 36.9963ZM27.6105 35.5406L28.0553 35.7692L28.0524 35.7745L27.6105 35.5406ZM28.617 35.0238L28.66 34.5257L28.6608 34.5258L28.617 35.0238ZM32.616 35.4372L32.5523 35.9331L32.5512 35.933L32.616 35.4372ZM34.8625 35.5585L34.8642 36.0585H34.8625V35.5585ZM37.6888 35.262L37.567 34.777L37.5673 34.7769L37.6888 35.262ZM45.781 29.1108L45.353 28.8523L45.3533 28.8518L45.781 29.1108ZM47.7984 23.5393L47.3054 23.4562L47.3055 23.4554L47.7984 23.5393ZM47.9197 21.2657L47.4634 21.47L47.4625 21.468L47.9197 21.2657ZM47.2727 20.713L47.1472 21.197L47.1465 21.1968L47.2727 20.713ZM44.433 20.4614L44.3947 20.9599L44.3946 20.9599L44.433 20.4614ZM40.0881 20.1244L40.0496 20.6229L40.0489 20.6229L40.0881 20.1244ZM36.9502 20.5717C35.1983 20.8856 33.2094 21.8761 31.477 23.3292L30.8343 22.5631C32.6695 21.0238 34.8143 19.9384 36.7738 19.5873L36.9502 20.5717ZM31.4767 23.3295C30.9764 23.7485 30.033 24.7138 29.6397 25.2012L28.8615 24.5732C29.2948 24.0362 30.2835 23.0244 30.8346 22.5628L31.4767 23.3295ZM29.6413 25.1991C28.8894 26.1411 28.1052 27.5136 27.744 28.5164L26.8031 28.1775C27.2058 27.0596 28.048 25.5923 28.8598 24.5753L29.6413 25.1991ZM27.744 28.5163C27.3192 29.6963 27.1125 30.8851 27.0995 32.1936L26.0996 32.1837C26.1136 30.7693 26.3383 29.4689 26.8031 28.1776L27.744 28.5163ZM27.0996 32.1911L27.0951 33.0898L26.0951 33.0848L26.0996 32.1861L27.0996 32.1911ZM27.0101 33.3662L26.6327 33.9278L25.8027 33.37L26.1801 32.8084L27.0101 33.3662ZM26.6322 33.9285C25.9012 35.0121 25.5 36.1642 25.5 36.9694H24.5C24.5 35.8964 25.0065 34.5503 25.8032 33.3693L26.6322 33.9285ZM25.5 36.9659C25.5015 37.1786 25.5703 37.3186 25.6533 37.4031C25.7352 37.4865 25.8664 37.5522 26.0649 37.5522V38.5522C25.6298 38.5522 25.2309 38.4001 24.9398 38.1038C24.6499 37.8086 24.503 37.4072 24.5 36.9729L25.5 36.9659ZM26.0649 37.5522C26.2427 37.5522 26.3625 37.4972 26.4676 37.3874L27.1899 38.079C26.8906 38.3916 26.5072 38.5522 26.0649 38.5522V37.5522ZM26.4626 37.3927C26.5525 37.296 26.6064 37.2025 26.6377 36.9375L27.6308 37.0551C27.5813 37.4731 27.4644 37.784 27.1948 38.0738L26.4626 37.3927ZM26.638 36.935C26.7002 36.4326 26.9006 35.8129 27.1686 35.3066L28.0524 35.7745C27.8352 36.1848 27.6762 36.6884 27.6305 37.0577L26.638 36.935ZM27.1659 35.312C27.2358 35.1758 27.3069 35.0279 27.3641 34.9297C27.4255 34.8242 27.5277 34.6689 27.7156 34.5727C27.8949 34.4808 28.0782 34.4817 28.1977 34.4869C28.3168 34.492 28.4868 34.5108 28.66 34.5257L28.5741 35.522C28.3564 35.5032 28.2461 35.4899 28.1544 35.486C28.0631 35.482 28.1052 35.4967 28.1716 35.4626C28.2466 35.4242 28.2643 35.3709 28.2284 35.4326C28.1882 35.5017 28.1493 35.5863 28.0552 35.7692L27.1659 35.312ZM28.6608 34.5258C30.146 34.6563 31.7762 34.8232 32.6807 34.9414L32.5512 35.933C31.6674 35.8175 30.0536 35.652 28.5732 35.5219L28.6608 34.5258ZM32.6796 34.9413C33.4927 35.0456 33.7175 35.0585 34.8625 35.0585V36.0585C33.6891 36.0585 33.4196 36.0445 32.5523 35.9331L32.6796 34.9413ZM34.8609 35.0585C36.2147 35.0541 36.6524 35.0067 37.567 34.777L37.8106 35.7469C36.793 36.0025 36.2692 36.0539 34.8642 36.0585L34.8609 35.0585ZM37.5673 34.7769C40.5888 34.0205 43.6144 31.7311 45.353 28.8523L46.209 29.3693C44.344 32.4574 41.1062 34.9218 37.8102 35.747L37.5673 34.7769ZM45.3533 28.8518C46.2972 27.2931 46.9734 25.4262 47.3054 23.4562L48.2915 23.6223C47.9405 25.7052 47.2238 27.6934 46.2087 29.3698L45.3533 28.8518ZM47.3055 23.4554C47.4169 22.8004 47.477 22.3301 47.4946 21.9939C47.513 21.6399 47.479 21.5049 47.4634 21.47L48.3761 21.0614C48.4953 21.3276 48.5129 21.6688 48.4932 22.0461C48.4726 22.4412 48.4046 22.9571 48.2913 23.6231L47.3055 23.4554ZM47.4625 21.468C47.4506 21.441 47.4063 21.3759 47.324 21.3057C47.2413 21.2352 47.1718 21.2034 47.1472 21.197L47.3982 20.229C47.6163 20.2856 47.8187 20.4133 47.973 20.545C48.1277 20.6769 48.2856 20.8568 48.377 21.0634L47.4625 21.468ZM47.1465 21.1968C47.1726 21.2037 47.1784 21.2026 47.1198 21.1953C47.0771 21.1901 47.0169 21.1834 46.9398 21.1755C46.7862 21.1598 46.574 21.14 46.3177 21.1173C45.8056 21.072 45.1235 21.016 44.3947 20.9599L44.4714 19.9629C45.2029 20.0192 45.8889 20.0755 46.4058 20.1212C46.664 20.144 46.8814 20.1643 47.0417 20.1807C47.1216 20.1889 47.1895 20.1964 47.2421 20.2028C47.2788 20.2074 47.347 20.2157 47.3989 20.2292L47.1465 21.1968ZM44.3946 20.9599C42.9395 20.8477 40.9783 20.6947 40.0496 20.6229L40.1267 19.6259C41.0581 19.6979 43.015 19.8505 44.4715 19.9629L44.3946 20.9599ZM40.0489 20.6229C38.0988 20.4694 37.5455 20.4678 36.948 20.5721L36.7761 19.5869C37.5175 19.4576 38.1953 19.4739 40.1274 19.626L40.0489 20.6229Z" fill="#0B2D1F" mask="url(#path-6-outside-1_6356_46184)"/>
</svg>
