<svg width="22" height="22" viewBox="0 0 22 22" fill="none" xmlns="http://www.w3.org/2000/svg">
<path fill-rule="evenodd" clip-rule="evenodd" d="M11.3144 14.3001L14.7715 8.01435L14.143 6.12863L11.3144 4.24292L8.80011 5.34292L7.54297 7.70006L9.1144 11.4715L11.3144 14.3001ZM11.1573 8.80006C11.7648 8.80006 12.2573 8.30758 12.2573 7.70006C12.2573 7.09255 11.7648 6.60006 11.1573 6.60006C10.5497 6.60006 10.0573 7.09255 10.0573 7.70006C10.0573 8.30758 10.5497 8.80006 11.1573 8.80006Z" fill="#FFA600"/>
<path d="M14.7715 8.01435L15.2096 8.25531L15.315 8.06369L15.2459 7.85623L14.7715 8.01435ZM11.3144 14.3001L10.9197 14.607L11.3863 15.2069L11.7525 14.541L11.3144 14.3001ZM14.143 6.12863L14.6173 5.97052L14.5631 5.80777L14.4203 5.71261L14.143 6.12863ZM11.3144 4.24292L11.5917 3.82689L11.3644 3.6753L11.114 3.78484L11.3144 4.24292ZM8.80011 5.34292L8.5997 4.88484L8.44064 4.95443L8.35894 5.10763L8.80011 5.34292ZM7.54297 7.70006L7.10179 7.46477L6.99034 7.67375L7.08143 7.89237L7.54297 7.70006ZM9.1144 11.4715L8.65286 11.6638L8.67861 11.7256L8.71972 11.7785L9.1144 11.4715ZM14.3334 7.77339L10.8763 14.0591L11.7525 14.541L15.2096 8.25531L14.3334 7.77339ZM13.6686 6.28675L14.2972 8.17246L15.2459 7.85623L14.6173 5.97052L13.6686 6.28675ZM11.037 4.65895L13.8656 6.54466L14.4203 5.71261L11.5917 3.82689L11.037 4.65895ZM9.00052 5.801L11.5148 4.701L11.114 3.78484L8.5997 4.88484L9.00052 5.801ZM7.98415 7.93536L9.24129 5.57821L8.35894 5.10763L7.10179 7.46477L7.98415 7.93536ZM9.57594 11.2792L8.00451 7.50776L7.08143 7.89237L8.65286 11.6638L9.57594 11.2792ZM11.7091 13.9931L9.50907 11.1645L8.71972 11.7785L10.9197 14.607L11.7091 13.9931ZM11.7573 7.70006C11.7573 8.03143 11.4886 8.30006 11.1573 8.30006V9.30006C12.0409 9.30006 12.7573 8.58372 12.7573 7.70006H11.7573ZM11.1573 7.10006C11.4886 7.10006 11.7573 7.36869 11.7573 7.70006H12.7573C12.7573 6.81641 12.0409 6.10006 11.1573 6.10006V7.10006ZM10.5573 7.70006C10.5573 7.36869 10.8259 7.10006 11.1573 7.10006V6.10006C10.2736 6.10006 9.55726 6.81641 9.55726 7.70006H10.5573ZM11.1573 8.30006C10.8259 8.30006 10.5573 8.03143 10.5573 7.70006H9.55726C9.55726 8.58372 10.2736 9.30006 11.1573 9.30006V8.30006Z" fill="#FFA600"/>
<path d="M10.6867 4.11635C10.2527 4.17718 9.77715 4.32371 9.41221 4.50341C8.93391 4.74671 8.41968 5.18077 8.07132 5.64248C7.46032 6.4553 7.17832 7.58331 7.36632 8.47078C7.56538 9.41078 8.25656 10.9341 9.35138 12.8473C9.51174 13.1266 9.63615 13.3588 9.63062 13.3643C9.62509 13.3699 9.40115 13.4058 9.13021 13.4473C8.32015 13.5634 7.64556 13.7569 7.16173 14.0085C6.89908 14.1467 6.5922 14.4509 6.53137 14.6333C6.19961 15.6148 7.51838 16.306 10.0979 16.505C10.6425 16.5465 12.2682 16.5216 12.7326 16.4636C14.7868 16.2037 15.8291 15.6922 15.8291 14.9402C15.8291 14.6665 15.7655 14.5255 15.5416 14.3043C15.113 13.8813 14.2615 13.5827 13.0119 13.4196C12.8377 13.3975 12.6912 13.3726 12.6829 13.3671C12.6773 13.3588 12.8073 13.1127 12.9759 12.8197C13.9325 11.136 14.5905 9.74255 14.8449 8.85231C14.9886 8.3519 15.0108 8.19707 14.9914 7.73813C14.9527 6.74283 14.5325 5.83601 13.7832 5.131C13.269 4.64718 12.6386 4.31818 11.9364 4.17165C11.6295 4.10529 10.9687 4.07765 10.6867 4.11635ZM11.7788 4.98447C12.9013 5.225 13.7943 6.08207 14.0901 7.20178C14.173 7.51419 14.1924 8.05054 14.1316 8.32978C13.9132 9.31125 13.0174 11.1608 11.6627 13.4251C11.4885 13.7154 11.3226 13.9753 11.2922 14.003C11.2231 14.0638 11.0904 14.0638 11.0213 14.003C10.966 13.9532 10.5098 13.2012 10.1117 12.5073C9.08874 10.7157 8.40032 9.23937 8.19573 8.38784C8.13214 8.11413 8.12662 7.69389 8.18744 7.37872C8.4252 6.11801 9.43709 5.15036 10.731 4.94577C10.9549 4.91259 11.5438 4.93194 11.7788 4.98447ZM10.2527 14.3679C10.5043 14.7577 10.9079 14.9457 11.3282 14.8711C11.6544 14.8103 11.8811 14.6527 12.0691 14.3541L12.1852 14.1716L12.4506 14.191C13.0589 14.238 13.9795 14.4204 14.4053 14.5808C14.6403 14.6693 14.9002 14.8075 14.9638 14.8766C15.0108 14.9292 15.0108 14.9319 14.9444 14.9844C14.5408 15.3052 13.4763 15.5733 12.2377 15.6701C11.7567 15.7088 10.5568 15.7088 10.0757 15.6701C8.83715 15.5733 7.77273 15.3052 7.36908 14.9844C7.30273 14.9319 7.30273 14.9292 7.34973 14.8766C7.41332 14.8075 7.6732 14.6693 7.90544 14.5808C8.36991 14.4066 9.43985 14.202 9.98727 14.1854L10.131 14.1799L10.2527 14.3679Z" fill="black"/>
<path d="M10.8029 6.17333C10.062 6.36133 9.56987 7.0221 9.61687 7.76857C9.6694 8.59522 10.3274 9.21729 11.1568 9.21729C11.9862 9.21729 12.6442 8.59522 12.6968 7.76857C12.7299 7.22116 12.4728 6.70139 12.0194 6.40281C11.7429 6.22033 11.5522 6.15951 11.2259 6.14569C11.0518 6.14016 10.8969 6.14845 10.8029 6.17333ZM11.4333 7.0221C11.5853 7.09122 11.7236 7.2184 11.801 7.36493C11.8867 7.52251 11.8839 7.84322 11.801 8.00358C11.6849 8.22199 11.3946 8.40169 11.1568 8.40169C10.919 8.40169 10.6288 8.22199 10.5126 8.00358C10.4297 7.84322 10.4269 7.52251 10.5126 7.36493C10.6426 7.12163 10.8942 6.96404 11.1568 6.96404C11.2508 6.96404 11.3559 6.98616 11.4333 7.0221Z" fill="black"/>
<path d="M5.22086 14.0583C4.79786 14.2795 4.39421 14.6582 4.22833 14.9955C4.04033 15.3771 4.03756 15.7586 4.22556 16.1401C4.33615 16.3668 4.72045 16.7649 5.01904 16.9585C5.97563 17.5805 7.6621 18.0256 9.70523 18.1943C10.2582 18.2413 12.0442 18.2385 12.6082 18.1943C14.6458 18.0284 16.335 17.5833 17.2944 16.9585C17.593 16.7649 17.9773 16.3668 18.0878 16.1401C18.356 15.5927 18.2399 15.0398 17.7533 14.5532C17.5211 14.3209 17.1783 14.0749 16.9737 13.9975C16.8078 13.9339 16.6751 13.9643 16.5451 14.0942C16.4124 14.2242 16.3848 14.3569 16.4511 14.5283C16.4926 14.6389 16.5285 14.672 16.7718 14.8296C17.1893 15.1006 17.405 15.3494 17.405 15.5623C17.405 15.8471 17.0179 16.2092 16.4014 16.5023C14.6292 17.3455 11.3115 17.6469 8.48046 17.2184C6.68616 16.9474 5.27063 16.3585 4.96374 15.7586C4.81721 15.4683 4.99139 15.1863 5.54157 14.8296C5.78486 14.672 5.8208 14.6389 5.86227 14.5283C5.94522 14.3126 5.84845 14.0859 5.63557 13.9975C5.5001 13.9394 5.42821 13.9505 5.22086 14.0583Z" fill="black"/>
</svg>
