<svg width="72" height="72" viewBox="0 0 72 72" fill="none" xmlns="http://www.w3.org/2000/svg">
<path d="M27.8273 4.07257C25.9986 4.37933 24.0872 5.29961 22.8248 6.47944L21.9517 7.29353H18.4122C14.5542 7.29353 14.0232 7.35252 12.9142 7.90704C11.581 8.57955 10.4601 10.0308 10.1416 11.5173C9.95281 12.4022 9.95281 59.2889 10.1416 60.1738C10.3304 61.0469 10.8731 62.0851 11.4984 62.7459C12.1119 63.3948 13.3271 64.0791 14.2356 64.2678C15.1205 64.4566 52.8045 64.4566 53.6894 64.2678C55.6951 63.8431 57.3586 62.1677 57.7834 60.1738C57.9722 59.2771 57.9722 12.4022 57.7834 11.5173C57.3586 9.52342 55.6715 7.83626 53.6894 7.42331C53.3118 7.34072 51.66 7.29353 49.5127 7.29353H45.9614L45.1709 6.53843C44.2743 5.70075 43.3776 5.12263 42.1741 4.6507C40.6286 4.02538 40.1094 3.98999 33.8681 4.00179C30.7061 4.01358 27.9925 4.04898 27.8273 4.07257ZM40.0858 7.70647C40.4988 7.81266 41.1713 8.06042 41.5606 8.26099C42.7405 8.88631 44.0619 10.3847 44.404 11.5055L44.4748 11.7769H33.9625H23.4501L23.5209 11.5055C23.7215 10.8802 24.276 10.019 24.9485 9.33465C25.7272 8.54416 26.9543 7.84805 27.9571 7.65928C28.2403 7.60029 30.9185 7.55309 33.9035 7.54129C38.3633 7.5295 39.4605 7.56489 40.0858 7.70647ZM19.8398 11.6235C19.7455 12.0719 19.6865 12.8506 19.7101 13.3933C19.7455 14.4315 19.9342 14.7737 20.6539 15.1512C21.1259 15.399 46.7991 15.399 47.271 15.1512C47.9907 14.7737 48.1795 14.4315 48.2149 13.3933C48.2385 12.8506 48.1795 12.0719 48.0851 11.6235L47.9199 10.833H50.4094C53.2646 10.833 53.6422 10.9274 54.1141 11.7651L54.3737 12.2252V35.8456V59.4659L54.1259 59.9142C53.9843 60.162 53.6776 60.4688 53.4298 60.6103L52.9814 60.8581H33.9625H14.9435L14.4952 60.6103C14.2474 60.4688 13.9407 60.162 13.7991 59.9142L13.5513 59.4659V35.8456V12.2252L13.8109 11.7651C14.2828 10.9274 14.6486 10.833 17.5156 10.833H20.005L19.8398 11.6235Z" fill="#4D0000"/>
<path d="M40.0858 7.70647C40.4988 7.81266 41.1713 8.06042 41.5606 8.26099C42.7405 8.88631 44.0619 10.3847 44.404 11.5055L44.4748 11.7769H33.9625H23.4501L23.5209 11.5055C23.7215 10.8802 24.276 10.019 24.9485 9.33465C25.7272 8.54416 26.9543 7.84805 27.9571 7.65928C28.2403 7.60029 30.9185 7.55309 33.9035 7.54129C38.3633 7.5295 39.4605 7.56489 40.0858 7.70647Z" fill="#E60000"/>
<path d="M26.3531 48.8827C26.2941 48.9063 26.0817 48.9535 25.8929 49.0007C25.6688 49.0479 25.0317 49.5788 24.0996 50.4991L22.6484 51.9267L22.2119 51.5374C21.7281 51.1126 21.1264 50.8295 20.7253 50.8295C20.2297 50.8295 19.51 51.2778 19.2387 51.7615C18.6841 52.7526 18.9201 53.3307 20.5483 54.9353C21.8461 56.2095 22.1647 56.3747 23.0849 56.1977C23.4507 56.1269 23.8636 55.773 25.6806 53.9796C26.8722 52.7998 27.9341 51.6671 28.0284 51.4784C28.4414 50.6997 28.1464 49.5788 27.4149 49.1659C27.0374 48.9535 26.5419 48.8237 26.3531 48.8827Z" fill="#4D0000"/>
<path d="M31.7329 50.1798C31.1547 50.4393 30.8008 51.0293 30.8008 51.749C30.8008 52.4097 31.0132 52.8108 31.6149 53.2474C31.9334 53.4951 32.0514 53.4951 39.6496 53.4951C47.2477 53.4951 47.3657 53.4951 47.6842 53.2474C48.286 52.8108 48.4983 52.4097 48.4983 51.749C48.4983 51.0175 48.1444 50.4275 47.5427 50.1798C46.9763 49.9438 32.2756 49.9438 31.7329 50.1798Z" fill="#4D0000"/>
<path d="M33.5806 20.0464C32.0377 20.0464 30.6649 21.0183 30.1547 22.4761H22.6468V24.9058H25.0158L21.432 33.4098C20.861 35.8396 22.6468 37.0544 25.684 37.0544C28.7211 37.0544 30.6163 35.8396 29.936 33.4098L26.3522 24.9058H30.1425C30.5434 25.9385 31.3331 26.7281 32.3657 27.129V40.699H21.432V43.1287H45.7292V40.699H34.7954V27.1169C35.8281 26.7281 36.6177 25.9385 37.0065 24.9058H40.809L37.2251 33.4098C36.6542 35.8396 38.44 37.0544 41.4772 37.0544C44.5143 37.0544 46.4095 35.8396 45.7292 33.4098L42.1453 24.9058H44.5143V22.4761H37.0186C36.4962 21.0183 35.1234 20.0464 33.5806 20.0464ZM33.5806 22.4761C33.9028 22.4761 34.2118 22.6041 34.4396 22.8319C34.6674 23.0598 34.7954 23.3688 34.7954 23.691C34.7954 24.0132 34.6674 24.3222 34.4396 24.55C34.2118 24.7778 33.9028 24.9058 33.5806 24.9058C33.2584 24.9058 32.9494 24.7778 32.7215 24.55C32.4937 24.3222 32.3657 24.0132 32.3657 23.691C32.3657 23.3688 32.4937 23.0598 32.7215 22.8319C32.9494 22.6041 33.2584 22.4761 33.5806 22.4761M25.684 28.8541L27.5063 33.4098H23.8617L25.684 28.8541ZM41.4772 28.8541L43.2994 33.4098H39.6549L41.4772 28.8541Z" fill="#4D0000"/>
<path d="M51.0135 67.9916C44.8147 68.237 39.5218 63.123 39.2702 56.6569C39.0281 50.354 44.0119 44.8265 50.1532 44.5958C56.5545 44.3578 61.9145 49.3319 62.1554 55.733C62.4034 62.3476 57.5035 67.7388 51.0135 67.9916ZM59.6413 56.3023C59.6423 53.8838 58.7066 51.5635 57.0394 49.8502C55.3722 48.1369 53.1096 47.1704 50.7475 47.1627C45.8033 47.1553 41.7818 51.2411 41.7746 56.279C41.7674 61.3169 45.8021 65.4309 50.7224 65.426C53.0856 65.4215 55.3509 64.4593 57.0233 62.7496C58.6957 61.04 59.6391 58.722 59.6473 56.3023H59.6413Z" fill="#4D0000"/>
<path d="M59.6413 56.3023C59.6423 53.8838 58.7066 51.5635 57.0394 49.8502C55.3722 48.1369 53.1096 47.1704 50.7475 47.1627C45.8033 47.1553 41.7818 51.2411 41.7746 56.279C41.7674 61.3169 45.8021 65.4309 50.7224 65.426C53.0856 65.4215 55.3509 64.4593 57.0233 62.7496C58.6957 61.04 59.6391 58.722 59.6473 56.3023H59.6413Z" fill="#FFCDCD"/>
<path d="M51.8091 61.2615C51.8091 61.6185 51.8222 61.9388 51.8091 62.2578C51.7719 62.994 51.265 63.5068 50.6191 63.4921C49.9733 63.4774 49.4951 62.9621 49.4784 62.2185C49.4724 61.9302 49.4784 61.6431 49.4784 61.2873C48.9631 61.2873 48.4898 61.3081 48.0176 61.2873C47.1788 61.2419 46.6564 60.5192 46.8876 59.7401C47.0398 59.2272 47.452 58.9168 48.0476 58.9106C49.0949 58.8984 50.1422 58.9106 51.1907 58.9106C51.325 58.9178 51.4597 58.9096 51.5922 58.8861C51.9241 58.8076 52.1206 58.5904 52.0979 58.2333C52.0997 58.1557 52.086 58.0785 52.0578 58.0064C52.0296 57.9344 51.9874 57.8689 51.9337 57.8141C51.88 57.7592 51.816 57.7161 51.7456 57.6874C51.6751 57.6586 51.5997 57.6448 51.5239 57.6469C51.0158 57.626 50.5065 57.6469 49.9984 57.6358C48.334 57.6199 47.0722 56.4947 46.8565 54.8347C46.648 53.285 47.6066 51.8445 49.1644 51.4126C49.4352 51.3378 49.4915 51.2176 49.4796 50.9734C49.4676 50.7133 49.47 50.4528 49.4868 50.193C49.5032 49.9154 49.6156 49.6528 49.8037 49.4521C49.9918 49.2514 50.2434 49.1257 50.5137 49.0974C50.7917 49.061 51.0729 49.133 51.3013 49.2992C51.5298 49.4654 51.6888 49.7135 51.7468 49.9943C51.8246 50.3943 51.8115 50.8139 51.8438 51.2985C52.3028 51.2985 52.7737 51.2985 53.2458 51.2985C54.0727 51.3047 54.6047 51.7721 54.6071 52.4899C54.6095 53.2077 54.0774 53.6752 53.253 53.6825C52.2045 53.6825 51.1572 53.6825 50.1087 53.6825C49.5275 53.6825 49.186 53.9647 49.174 54.4371C49.162 54.9095 49.5167 55.2297 50.1171 55.2346C50.5664 55.2346 51.0158 55.2346 51.464 55.2346C53.0217 55.2604 54.2584 56.372 54.4262 57.8812C54.5975 59.4309 53.6425 60.8075 52.1266 61.194C52.0403 61.2198 51.9529 61.2333 51.8091 61.2615Z" fill="#4D0000"/>
</svg>
