<svg width="72" height="72" viewBox="0 0 72 72" fill="none" xmlns="http://www.w3.org/2000/svg">
<rect x="12" y="12" width="48" height="13" fill="#22885E"/>
<path fill-rule="evenodd" clip-rule="evenodd" d="M51.1875 9.5625H58.5C59.5443 9.5625 60.5458 9.97734 61.2842 10.7158C62.0227 11.4542 62.4375 12.4557 62.4375 13.5V58.5C62.4375 59.5443 62.0227 60.5458 61.2842 61.2842C60.5458 62.0227 59.5443 62.4375 58.5 62.4375H13.5C12.4557 62.4375 11.4542 62.0227 10.7158 61.2842C9.97734 60.5458 9.5625 59.5443 9.5625 58.5V13.5C9.5625 12.4557 9.97734 11.4542 10.7158 10.7158C11.4542 9.97734 12.4557 9.5625 13.5 9.5625H20.8125V6.75C20.8125 6.30245 20.9903 5.87322 21.3068 5.55676C21.6232 5.24029 22.0524 5.0625 22.5 5.0625C22.9476 5.0625 23.3768 5.24029 23.6932 5.55676C24.0097 5.87322 24.1875 6.30245 24.1875 6.75V9.5625H47.8125V6.75C47.8125 6.30245 47.9903 5.87322 48.3068 5.55676C48.6232 5.24029 49.0524 5.0625 49.5 5.0625C49.9476 5.0625 50.3768 5.24029 50.6932 5.55676C51.0097 5.87322 51.1875 6.30245 51.1875 6.75V9.5625ZM20.8125 12.9375H13.5C13.3508 12.9375 13.2077 12.9968 13.1023 13.1023C12.9968 13.2077 12.9375 13.3508 12.9375 13.5V23.0625H59.0625V13.5C59.0625 13.3508 59.0032 13.2077 58.8977 13.1023C58.7923 12.9968 58.6492 12.9375 58.5 12.9375H51.1875V15.75C51.1875 16.1976 51.0097 16.6268 50.6932 16.9432C50.3768 17.2597 49.9476 17.4375 49.5 17.4375C49.0524 17.4375 48.6232 17.2597 48.3068 16.9432C47.9903 16.6268 47.8125 16.1976 47.8125 15.75V12.9375H24.1875V15.75C24.1875 16.1976 24.0097 16.6268 23.6932 16.9432C23.3768 17.2597 22.9476 17.4375 22.5 17.4375C22.0524 17.4375 21.6232 17.2597 21.3068 16.9432C20.9903 16.6268 20.8125 16.1976 20.8125 15.75V12.9375ZM13.5 59.0625H58.5C58.6492 59.0625 58.7923 59.0032 58.8977 58.8977C59.0032 58.7923 59.0625 58.6492 59.0625 58.5V26.4375H12.9375V58.5C12.9375 58.6492 12.9968 58.7923 13.1023 58.8977C13.2077 59.0032 13.3508 59.0625 13.5 59.0625Z" fill="#0B2D1F"/>
<path d="M36 31C33.6266 31 31.3066 31.7038 29.3332 33.0224C27.3598 34.3409 25.8217 36.2151 24.9135 38.4078C24.0052 40.6005 23.7676 43.0133 24.2306 45.3411C24.6936 47.6689 25.8365 49.807 27.5147 51.4853C29.193 53.1635 31.3311 54.3064 33.6589 54.7694C35.9867 55.2324 38.3995 54.9948 40.5922 54.0865C42.7849 53.1783 44.6591 51.6402 45.9776 49.6668C47.2962 47.6935 48 45.3734 48 43C47.9971 39.8183 46.7318 36.7678 44.482 34.518C42.2322 32.2682 39.1817 31.0029 36 31ZM36 52.3333C34.154 52.3333 32.3495 51.7859 30.8147 50.7604C29.2798 49.7348 28.0835 48.2772 27.3771 46.5717C26.6707 44.8663 26.4859 42.9896 26.846 41.1792C27.2061 39.3687 28.0951 37.7056 29.4003 36.4003C30.7056 35.095 32.3687 34.2061 34.1792 33.846C35.9896 33.4859 37.8663 33.6707 39.5717 34.3771C41.2772 35.0835 42.7348 36.2798 43.7604 37.8147C44.7859 39.3495 45.3333 41.154 45.3333 43C45.3304 45.4744 44.3461 47.8467 42.5964 49.5964C40.8467 51.3461 38.4745 52.3304 36 52.3333ZM40.8889 45.2222C40.886 46.1643 40.5104 47.067 39.8443 47.7331C39.1781 48.3993 38.2754 48.7748 37.3333 48.7778V49.2222C37.3333 49.5758 37.1929 49.915 36.9428 50.165C36.6928 50.4151 36.3536 50.5556 36 50.5556C35.6464 50.5556 35.3072 50.4151 35.0572 50.165C34.8071 49.915 34.6667 49.5758 34.6667 49.2222V48.7778H33.3333C32.9797 48.7778 32.6406 48.6373 32.3905 48.3872C32.1405 48.1372 32 47.7981 32 47.4444C32 47.0908 32.1405 46.7517 32.3905 46.5016C32.6406 46.2516 32.9797 46.1111 33.3333 46.1111H37.3333C37.5691 46.1111 37.7952 46.0175 37.9619 45.8508C38.1286 45.6841 38.2222 45.458 38.2222 45.2222C38.2222 44.9865 38.1286 44.7604 37.9619 44.5937C37.7952 44.427 37.5691 44.3333 37.3333 44.3333H34.6667C33.7237 44.3333 32.8193 43.9587 32.1525 43.2919C31.4857 42.6251 31.1111 41.7208 31.1111 40.7778C31.1111 39.8348 31.4857 38.9304 32.1525 38.2636C32.8193 37.5968 33.7237 37.2222 34.6667 37.2222V36.7778C34.6667 36.4242 34.8071 36.085 35.0572 35.835C35.3072 35.5849 35.6464 35.4444 36 35.4444C36.3536 35.4444 36.6928 35.5849 36.9428 35.835C37.1929 36.085 37.3333 36.4242 37.3333 36.7778V37.2222H38.6667C39.0203 37.2222 39.3594 37.3627 39.6095 37.6127C39.8595 37.8628 40 38.2019 40 38.5556C40 38.9092 39.8595 39.2483 39.6095 39.4984C39.3594 39.7484 39.0203 39.8889 38.6667 39.8889H34.6667C34.4309 39.8889 34.2048 39.9825 34.0381 40.1492C33.8714 40.3159 33.7778 40.542 33.7778 40.7778C33.7778 41.0135 33.8714 41.2396 34.0381 41.4063C34.2048 41.573 34.4309 41.6667 34.6667 41.6667H37.3333C38.2754 41.6696 39.1781 42.0451 39.8443 42.7113C40.5104 43.3775 40.886 44.2801 40.8889 45.2222Z" fill="#0B2D1F"/>
</svg>
