<svg width="72" height="72" viewBox="0 0 72 72" fill="none" xmlns="http://www.w3.org/2000/svg">
<rect x="10" y="11" width="53" height="15" fill="#22885E"/>
<path fill-rule="evenodd" clip-rule="evenodd" d="M53.4314 9.01961H61.5882C62.7531 9.01961 63.8703 9.48235 64.694 10.306C65.5176 11.1297 65.9804 12.2469 65.9804 13.4118V63.6078C65.9804 64.7727 65.5176 65.8899 64.694 66.7136C63.8703 67.5373 62.7531 68 61.5882 68H11.3922C10.2273 68 9.11012 67.5373 8.28643 66.7136C7.46274 65.8899 7 64.7727 7 63.6078V13.4118C7 12.2469 7.46274 11.1297 8.28643 10.306C9.11012 9.48235 10.2273 9.01961 11.3922 9.01961H19.549V5.88235C19.549 5.38312 19.7473 4.90434 20.1003 4.55133C20.4534 4.19832 20.9321 4 21.4314 4C21.9306 4 22.4094 4.19832 22.7624 4.55133C23.1154 4.90434 23.3137 5.38312 23.3137 5.88235V9.01961H49.6667V5.88235C49.6667 5.38312 49.865 4.90434 50.218 4.55133C50.571 4.19832 51.0498 4 51.549 4C52.0482 4 52.527 4.19832 52.88 4.55133C53.2331 4.90434 53.4314 5.38312 53.4314 5.88235V9.01961ZM19.549 12.7843H11.3922C11.2257 12.7843 11.0662 12.8504 10.9485 12.9681C10.8308 13.0858 10.7647 13.2454 10.7647 13.4118V24.0784H62.2157V13.4118C62.2157 13.2454 62.1496 13.0858 62.0319 12.9681C61.9142 12.8504 61.7546 12.7843 61.5882 12.7843H53.4314V15.9216C53.4314 16.4208 53.2331 16.8996 52.88 17.2526C52.527 17.6056 52.0482 17.8039 51.549 17.8039C51.0498 17.8039 50.571 17.6056 50.218 17.2526C49.865 16.8996 49.6667 16.4208 49.6667 15.9216V12.7843H23.3137V15.9216C23.3137 16.4208 23.1154 16.8996 22.7624 17.2526C22.4094 17.6056 21.9306 17.8039 21.4314 17.8039C20.9321 17.8039 20.4534 17.6056 20.1003 17.2526C19.7473 16.8996 19.549 16.4208 19.549 15.9216V12.7843ZM11.3922 64.2353H61.5882C61.7546 64.2353 61.9142 64.1692 62.0319 64.0515C62.1496 63.9338 62.2157 63.7743 62.2157 63.6078V27.8431H10.7647V63.6078C10.7647 63.7743 10.8308 63.9338 10.9485 64.0515C11.0662 64.1692 11.2257 64.2353 11.3922 64.2353Z" fill="#0B2D1F"/>
<mask id="path-3-outside-1_6356_46220" maskUnits="userSpaceOnUse" x="19.875" y="33.5881" width="33" height="26" fill="black">
<rect fill="white" x="19.875" y="33.5881" width="33" height="26"/>
<path d="M21.4398 34.1885C20.9557 34.4536 20.875 34.8916 20.875 37.2892C20.8865 41.2891 21.4744 43.9057 22.8922 46.188C23.6415 47.3868 25.1054 48.724 26.3157 49.3234C27.8718 50.0957 28.8171 50.3032 30.9034 50.3147C31.8832 50.3262 32.9783 50.2801 33.3356 50.234L33.9811 50.1418L34.2808 50.891C34.9609 52.574 35.3989 54.8678 35.3989 56.7006C35.3989 57.8648 35.4105 57.8994 35.7332 58.2337C36.2058 58.7063 36.8974 58.7063 37.37 58.2337C37.6928 57.8994 37.7043 57.8648 37.7043 56.7006C37.7043 54.8217 38.1308 52.6201 38.8224 50.868L39.1221 50.1418L39.7676 50.234C40.125 50.2801 41.22 50.3262 42.1998 50.3147C43.6522 50.3032 44.1594 50.257 44.9087 50.0496C46.4302 49.6461 47.6175 48.9776 48.7241 47.9286C51.1908 45.6002 52.2167 42.4533 52.2283 37.2316C52.2283 34.834 52.1476 34.4421 51.6173 34.177C51.0525 33.8773 48.7702 34.1193 46.4994 34.6957C42.3727 35.7562 39.3873 37.9002 37.9349 40.8511C37.1626 42.4187 36.9781 43.3294 36.9666 45.5425C36.9666 46.7298 37.0127 47.6981 37.1049 48.113C37.2548 48.747 37.2432 48.8047 36.932 49.577C36.7591 50.015 36.5862 50.3838 36.5516 50.3838C36.517 50.3838 36.3441 50.015 36.1712 49.577C35.86 48.8047 35.8485 48.747 35.9868 48.113C36.079 47.7096 36.1367 46.6952 36.1367 45.5425C36.1367 43.9518 36.0906 43.4907 35.8831 42.73C34.788 38.7532 31.572 35.9636 26.6039 34.6957C24.3561 34.1193 21.9585 33.8888 21.4398 34.1885ZM25.0247 36.6322C26.3964 36.8973 27.9871 37.4506 29.1744 38.0615C32.1253 39.5716 33.6814 41.7963 33.9581 44.9085L34.0272 45.7154L33.6468 45.2544C31.6527 42.8106 28.1024 40.1249 26.869 40.1249C26.3618 40.1249 25.8316 40.6666 25.8316 41.1853C25.8316 41.7386 26.0621 42.0038 27.0073 42.5225C28.8401 43.5368 31.1801 45.6347 32.3789 47.3523L32.863 48.0554L31.987 48.1361C30.4308 48.2859 28.8286 48.0208 27.503 47.3984C24.6328 46.0497 23.0651 42.5686 23.0651 37.5313V36.3095L23.6184 36.3786C23.9181 36.4247 24.5521 36.54 25.0247 36.6322ZM50.0381 37.5313C50.0381 41.7847 48.8509 45.1276 46.7645 46.6952C45.3006 47.8018 43.2027 48.332 41.1163 48.1361L40.2402 48.0554L40.7244 47.3523C41.8886 45.6924 44.1825 43.606 45.8884 42.6608C46.9374 42.0844 47.2717 41.7386 47.2717 41.2199C47.2717 40.6666 46.7645 40.1249 46.2343 40.1249C44.9893 40.1249 41.4621 42.7991 39.4564 45.2544L39.076 45.7154L39.1567 44.8509C39.5602 40.2632 42.9721 37.4391 49.3465 36.4017C50.0842 36.2749 50.0381 36.2172 50.0381 37.5313Z"/>
</mask>
<path d="M21.4398 34.1885C20.9557 34.4536 20.875 34.8916 20.875 37.2892C20.8865 41.2891 21.4744 43.9057 22.8922 46.188C23.6415 47.3868 25.1054 48.724 26.3157 49.3234C27.8718 50.0957 28.8171 50.3032 30.9034 50.3147C31.8832 50.3262 32.9783 50.2801 33.3356 50.234L33.9811 50.1418L34.2808 50.891C34.9609 52.574 35.3989 54.8678 35.3989 56.7006C35.3989 57.8648 35.4105 57.8994 35.7332 58.2337C36.2058 58.7063 36.8974 58.7063 37.37 58.2337C37.6928 57.8994 37.7043 57.8648 37.7043 56.7006C37.7043 54.8217 38.1308 52.6201 38.8224 50.868L39.1221 50.1418L39.7676 50.234C40.125 50.2801 41.22 50.3262 42.1998 50.3147C43.6522 50.3032 44.1594 50.257 44.9087 50.0496C46.4302 49.6461 47.6175 48.9776 48.7241 47.9286C51.1908 45.6002 52.2167 42.4533 52.2283 37.2316C52.2283 34.834 52.1476 34.4421 51.6173 34.177C51.0525 33.8773 48.7702 34.1193 46.4994 34.6957C42.3727 35.7562 39.3873 37.9002 37.9349 40.8511C37.1626 42.4187 36.9781 43.3294 36.9666 45.5425C36.9666 46.7298 37.0127 47.6981 37.1049 48.113C37.2548 48.747 37.2432 48.8047 36.932 49.577C36.7591 50.015 36.5862 50.3838 36.5516 50.3838C36.517 50.3838 36.3441 50.015 36.1712 49.577C35.86 48.8047 35.8485 48.747 35.9868 48.113C36.079 47.7096 36.1367 46.6952 36.1367 45.5425C36.1367 43.9518 36.0906 43.4907 35.8831 42.73C34.788 38.7532 31.572 35.9636 26.6039 34.6957C24.3561 34.1193 21.9585 33.8888 21.4398 34.1885ZM25.0247 36.6322C26.3964 36.8973 27.9871 37.4506 29.1744 38.0615C32.1253 39.5716 33.6814 41.7963 33.9581 44.9085L34.0272 45.7154L33.6468 45.2544C31.6527 42.8106 28.1024 40.1249 26.869 40.1249C26.3618 40.1249 25.8316 40.6666 25.8316 41.1853C25.8316 41.7386 26.0621 42.0038 27.0073 42.5225C28.8401 43.5368 31.1801 45.6347 32.3789 47.3523L32.863 48.0554L31.987 48.1361C30.4308 48.2859 28.8286 48.0208 27.503 47.3984C24.6328 46.0497 23.0651 42.5686 23.0651 37.5313V36.3095L23.6184 36.3786C23.9181 36.4247 24.5521 36.54 25.0247 36.6322ZM50.0381 37.5313C50.0381 41.7847 48.8509 45.1276 46.7645 46.6952C45.3006 47.8018 43.2027 48.332 41.1163 48.1361L40.2402 48.0554L40.7244 47.3523C41.8886 45.6924 44.1825 43.606 45.8884 42.6608C46.9374 42.0844 47.2717 41.7386 47.2717 41.2199C47.2717 40.6666 46.7645 40.1249 46.2343 40.1249C44.9893 40.1249 41.4621 42.7991 39.4564 45.2544L39.076 45.7154L39.1567 44.8509C39.5602 40.2632 42.9721 37.4391 49.3465 36.4017C50.0842 36.2749 50.0381 36.2172 50.0381 37.5313Z" fill="#0B2D1F"/>
<path d="M21.4398 34.1885C20.9557 34.4536 20.875 34.8916 20.875 37.2892C20.8865 41.2891 21.4744 43.9057 22.8922 46.188C23.6415 47.3868 25.1054 48.724 26.3157 49.3234C27.8718 50.0957 28.8171 50.3032 30.9034 50.3147C31.8832 50.3262 32.9783 50.2801 33.3356 50.234L33.9811 50.1418L34.2808 50.891C34.9609 52.574 35.3989 54.8678 35.3989 56.7006C35.3989 57.8648 35.4105 57.8994 35.7332 58.2337C36.2058 58.7063 36.8974 58.7063 37.37 58.2337C37.6928 57.8994 37.7043 57.8648 37.7043 56.7006C37.7043 54.8217 38.1308 52.6201 38.8224 50.868L39.1221 50.1418L39.7676 50.234C40.125 50.2801 41.22 50.3262 42.1998 50.3147C43.6522 50.3032 44.1594 50.257 44.9087 50.0496C46.4302 49.6461 47.6175 48.9776 48.7241 47.9286C51.1908 45.6002 52.2167 42.4533 52.2283 37.2316C52.2283 34.834 52.1476 34.4421 51.6173 34.177C51.0525 33.8773 48.7702 34.1193 46.4994 34.6957C42.3727 35.7562 39.3873 37.9002 37.9349 40.8511C37.1626 42.4187 36.9781 43.3294 36.9666 45.5425C36.9666 46.7298 37.0127 47.6981 37.1049 48.113C37.2548 48.747 37.2432 48.8047 36.932 49.577C36.7591 50.015 36.5862 50.3838 36.5516 50.3838C36.517 50.3838 36.3441 50.015 36.1712 49.577C35.86 48.8047 35.8485 48.747 35.9868 48.113C36.079 47.7096 36.1367 46.6952 36.1367 45.5425C36.1367 43.9518 36.0906 43.4907 35.8831 42.73C34.788 38.7532 31.572 35.9636 26.6039 34.6957C24.3561 34.1193 21.9585 33.8888 21.4398 34.1885ZM25.0247 36.6322C26.3964 36.8973 27.9871 37.4506 29.1744 38.0615C32.1253 39.5716 33.6814 41.7963 33.9581 44.9085L34.0272 45.7154L33.6468 45.2544C31.6527 42.8106 28.1024 40.1249 26.869 40.1249C26.3618 40.1249 25.8316 40.6666 25.8316 41.1853C25.8316 41.7386 26.0621 42.0038 27.0073 42.5225C28.8401 43.5368 31.1801 45.6347 32.3789 47.3523L32.863 48.0554L31.987 48.1361C30.4308 48.2859 28.8286 48.0208 27.503 47.3984C24.6328 46.0497 23.0651 42.5686 23.0651 37.5313V36.3095L23.6184 36.3786C23.9181 36.4247 24.5521 36.54 25.0247 36.6322ZM50.0381 37.5313C50.0381 41.7847 48.8509 45.1276 46.7645 46.6952C45.3006 47.8018 43.2027 48.332 41.1163 48.1361L40.2402 48.0554L40.7244 47.3523C41.8886 45.6924 44.1825 43.606 45.8884 42.6608C46.9374 42.0844 47.2717 41.7386 47.2717 41.2199C47.2717 40.6666 46.7645 40.1249 46.2343 40.1249C44.9893 40.1249 41.4621 42.7991 39.4564 45.2544L39.076 45.7154L39.1567 44.8509C39.5602 40.2632 42.9721 37.4391 49.3465 36.4017C50.0842 36.2749 50.0381 36.2172 50.0381 37.5313Z" stroke="#0B2D1F" stroke-width="0.630689" mask="url(#path-3-outside-1_6356_46220)"/>
</svg>
