<svg width="36" height="36" viewBox="0 0 36 36" fill="none" xmlns="http://www.w3.org/2000/svg">
<g id="dashboard">
<rect id="Rectangle 34624436" x="7.20001" y="11.3142" width="9.25714" height="5.14286" fill="#FFA600"/>
<rect id="Rectangle 34624435" x="21.0857" y="12.3428" width="7.2" height="11.3143" fill="#FFA600"/>
<path id="rectangles.group" d="M8.18455 17.6563H15.6445C16.9839 17.6563 17.6576 16.9907 17.6576 15.6594V12.2825C17.6576 10.9513 16.9839 10.2856 15.6445 10.2856H8.18455C6.84517 10.2856 6.17142 10.9513 6.17142 12.2825V15.6594C6.17142 16.9907 6.84517 17.6563 8.18455 17.6563ZM22.0897 24.4831H27.3011C28.6405 24.4831 29.3143 23.8256 29.3143 22.4862V13.5002C29.3143 12.1689 28.6405 11.5114 27.3011 11.5114H22.0897C20.7585 11.5114 20.0847 12.1689 20.0847 13.5002V22.4862C20.0847 23.8256 20.7585 24.4831 22.0897 24.4831ZM8.37936 16.1302C7.9329 16.1302 7.6975 15.8948 7.6975 15.4321V12.5098C7.6975 12.039 7.9329 11.8117 8.37936 11.8117H15.4415C15.8961 11.8117 16.1315 12.039 16.1315 12.5098V15.4321C16.1315 15.8948 15.8961 16.1302 15.4415 16.1302H8.37936ZM22.2846 22.9651C21.8462 22.9651 21.6027 22.7297 21.6027 22.267V13.7274C21.6027 13.2566 21.8462 13.0293 22.2846 13.0293H27.0982C27.5528 13.0293 27.7882 13.2566 27.7882 13.7274V22.267C27.7882 22.7297 27.5528 22.9651 27.0982 22.9651H22.2846ZM10.222 25.5302H16.5536C17.8849 25.5302 18.5668 24.8727 18.5668 23.5333V21.2442C18.5668 19.9129 17.8849 19.2554 16.5536 19.2554H10.222C8.88265 19.2554 8.2089 19.9129 8.2089 21.2442V23.5333C8.2089 24.8727 8.88265 25.5302 10.222 25.5302ZM10.4168 24.0123C9.97039 24.0123 9.73498 23.7769 9.73498 23.3142V21.4715C9.73498 21.0088 9.97039 20.7815 10.4168 20.7815H16.3507C16.7972 20.7815 17.0407 21.0088 17.0407 21.4715V23.3142C17.0407 23.7769 16.7972 24.0123 16.3507 24.0123H10.4168Z" fill="black"/>
</g>
</svg>
