<svg width="72" height="72" viewBox="0 0 72 72" fill="none" xmlns="http://www.w3.org/2000/svg">
<path d="M24.5 11L7 6.5V25.5L10.5 22.5L28 43L29 66H43.5V42L61 22.5L66 25.5L65.5 6L47.5 11L51.5 16L35 34.5C30 28.3333 20 15.8 20 15C20 14.2 23 12 24.5 11Z" fill="#2894B4"/>
<path d="M4.81469 4.2375C4.01443 4.7625 3.98942 4.9 4.00193 8C4.00193 9.55 4.07695 14.3875 4.16448 18.75C4.30202 25.6625 4.35204 26.7375 4.52709 27.0875C4.77717 27.5625 5.32735 27.975 5.85252 28.075C6.69029 28.25 7.0404 28.05 9.2411 26.2375C10.4165 25.2875 11.3918 24.5 11.4293 24.5C11.4668 24.5 14.8929 28.75 19.0567 33.95L26.6216 43.4V55.1125C26.6216 66.3625 26.6342 66.825 26.8592 67.175C26.9843 67.3625 27.2594 67.6375 27.4469 67.7625C27.797 67.9875 28.1846 68 35.9996 68C43.8146 68 44.2023 67.9875 44.5524 67.7625C44.7399 67.6375 45.015 67.3625 45.1401 67.175C45.3651 66.825 45.3776 66.3625 45.3776 55.1125V43.4L52.9425 33.95C57.1064 28.75 60.545 24.5 60.5825 24.5C60.62 24.5 61.5453 25.25 62.6456 26.15C63.746 27.0625 64.8213 27.8875 65.0464 27.9875C65.5716 28.2 66.3843 28.1 66.872 27.7625C67.6848 27.175 67.6597 27.475 67.8348 18.75C67.9223 14.3875 67.9974 9.55 67.9974 8C68.0099 5.45 67.9848 5.15 67.7723 4.825C67.4097 4.275 66.897 4 66.2218 4C65.359 4 45.9153 8.575 45.4902 8.8875C44.84 9.35 44.5524 10.5375 44.9025 11.3125C44.99 11.5 45.9903 12.425 47.1532 13.3875L49.2539 15.125L44.2898 21.3375C41.5639 24.7625 38.6005 28.475 37.7127 29.5875C36.8124 30.7125 36.0497 31.625 36.0121 31.625C35.9121 31.625 35.3369 30.9 27.6595 21.275L22.7454 15.125L24.8461 13.3875C26.009 12.425 27.0093 11.5 27.0968 11.3125C27.4469 10.5375 27.1593 9.35 26.4966 8.875C26.059 8.5625 6.66528 4 5.77749 4C5.40237 4 5.03976 4.0875 4.81469 4.2375ZM14.4678 9.8875C18.0189 10.725 20.9448 11.4125 20.9698 11.4375C20.9949 11.4625 20.4447 11.9375 19.7445 12.5125C19.0442 13.0875 18.394 13.7125 18.294 13.9C18.0439 14.3875 18.0689 15.3625 18.3565 15.8125C18.8442 16.6125 34.6492 36.3125 34.9743 36.525C35.437 36.825 36.5623 36.825 37.025 36.525C37.3501 36.3125 53.1551 16.6125 53.6428 15.8125C53.9429 15.325 53.9554 14.35 53.6678 13.85C53.5427 13.65 52.88 13.025 52.2048 12.4625C51.5171 11.9125 51.0169 11.4375 51.0795 11.4125C51.6546 11.225 64.0586 8.375 64.0961 8.425C64.1711 8.5 63.896 21.9 63.821 21.975C63.796 22 63.2959 21.625 62.7207 21.15C62.1455 20.6625 61.4828 20.15 61.2452 20.0125C60.7325 19.7 59.8948 19.675 59.3696 19.9375C59.1445 20.0625 55.8185 24.1 50.5293 30.725C45.8653 36.55 41.964 41.45 41.839 41.625C41.6389 41.9125 41.6264 42.75 41.6264 53.0875V64.25H35.9996H30.3728V53.0875C30.3728 42.75 30.3603 41.9125 30.1603 41.625C30.0352 41.45 26.134 36.55 21.47 30.725C16.1808 24.1 12.8548 20.0625 12.6297 19.9375C12.1045 19.675 11.2667 19.7 10.7541 20.0125C10.5165 20.15 9.85379 20.6625 9.27861 21.15C8.70343 21.625 8.20327 22 8.17826 21.975C8.12824 21.925 7.86566 11.15 7.86566 9.2125C7.86566 8.75 7.89067 8.375 7.92818 8.375C7.96569 8.375 10.9041 9.05 14.4678 9.8875Z" fill="#0D313B"/>
</svg>
