<svg width="72" height="72" viewBox="0 0 72 72" fill="none" xmlns="http://www.w3.org/2000/svg">
<path d="M25.626 4.07152C23.8179 4.37482 21.9282 5.2847 20.68 6.45121L19.8168 7.25611H16.3172C12.5027 7.25611 11.9778 7.31443 10.8813 7.86269C9.56313 8.52761 8.45494 9.96242 8.13998 11.4322C7.95334 12.3071 7.95334 58.6644 8.13998 59.5393C8.32662 60.4025 8.86322 61.429 9.48147 62.0823C10.0881 62.7238 11.2896 63.4004 12.1878 63.5871C13.0627 63.7737 50.3211 63.7737 51.196 63.5871C53.1791 63.1671 54.8239 61.5107 55.2438 59.5393C55.4305 58.6527 55.4305 12.3071 55.2438 11.4322C54.8239 9.46082 53.1558 7.7927 51.196 7.38442C50.8227 7.30277 49.1896 7.25611 47.0666 7.25611H43.5553L42.7738 6.50954C41.8872 5.68131 41.0007 5.10972 39.8108 4.64312C38.2827 4.02486 37.7694 3.98987 31.5986 4.00153C28.4723 4.0132 25.7893 4.04819 25.626 4.07152ZM37.7461 7.66439C38.1544 7.76937 38.8193 8.01434 39.2042 8.21265C40.3708 8.8309 41.6773 10.3124 42.0155 11.4206L42.0855 11.6889H31.6919H21.2983L21.3682 11.4206C21.5666 10.8023 22.1148 9.95076 22.7797 9.27418C23.5496 8.49261 24.7628 7.80437 25.7543 7.61773C26.0343 7.5594 28.6823 7.51274 31.6336 7.50108C36.043 7.48941 37.1279 7.52441 37.7461 7.66439ZM17.7287 11.5372C17.6354 11.9805 17.5771 12.7504 17.6004 13.287C17.6354 14.3135 17.822 14.6518 18.5336 15.0251C19.0002 15.2701 44.3836 15.2701 44.8502 15.0251C45.5617 14.6518 45.7484 14.3135 45.7834 13.287C45.8067 12.7504 45.7484 11.9805 45.6551 11.5372L45.4918 10.7556H47.9531C50.7761 10.7556 51.1493 10.849 51.616 11.6772L51.8726 12.1321V35.4857V58.8394L51.6276 59.2826C51.4876 59.5276 51.1843 59.8309 50.9394 59.9709L50.4961 60.2158H31.6919H12.8877L12.4444 59.9709C12.1995 59.8309 11.8962 59.5276 11.7562 59.2826L11.5112 58.8394V35.4857V12.1321L11.7678 11.6772C12.2344 10.849 12.5961 10.7556 15.4307 10.7556H17.892L17.7287 11.5372Z" fill="#4D0000"/>
<path d="M37.7461 7.66439C38.1544 7.76937 38.8193 8.01434 39.2042 8.21265C40.3708 8.8309 41.6773 10.3124 42.0155 11.4206L42.0855 11.6889H31.6919H21.2983L21.3682 11.4206C21.5666 10.8023 22.1148 9.95076 22.7797 9.27418C23.5496 8.49261 24.7628 7.80437 25.7543 7.61773C26.0343 7.5594 28.6823 7.51274 31.6336 7.50108C36.043 7.48941 37.1279 7.52441 37.7461 7.66439Z" fill="#E60000"/>
<path d="M24.1681 48.3757C24.1098 48.399 23.8998 48.4457 23.7132 48.4923C23.4916 48.539 22.8616 49.0639 21.9401 49.9738L20.5053 51.3853L20.0737 51.0003C19.5954 50.5804 19.0005 50.3004 18.6039 50.3004C18.1139 50.3004 17.4024 50.7437 17.1341 51.222C16.5858 52.2018 16.8191 52.7734 18.4289 54.3599C19.7121 55.6197 20.027 55.783 20.9369 55.608C21.2985 55.5381 21.7068 55.1881 23.5032 53.415C24.6814 52.2485 25.7313 51.1286 25.8246 50.942C26.2329 50.1721 25.9412 49.0639 25.218 48.6556C24.8447 48.4457 24.3548 48.3173 24.1681 48.3757Z" fill="#4D0000"/>
<path d="M29.488 49.6581C28.9164 49.9148 28.5664 50.498 28.5664 51.2096C28.5664 51.8628 28.7764 52.2595 29.3713 52.6911C29.6863 52.936 29.8029 52.936 37.3153 52.936C44.8276 52.936 44.9443 52.936 45.2592 52.6911C45.8541 52.2595 46.0641 51.8628 46.0641 51.2096C46.0641 50.4864 45.7142 49.9031 45.1192 49.6581C44.5593 49.4248 30.0245 49.4248 29.488 49.6581Z" fill="#4D0000"/>
<path d="M51.2472 67.9911C44.6799 68.2511 39.0724 62.8331 38.8058 55.9827C38.5494 49.3051 43.8294 43.4491 50.3357 43.2047C57.1175 42.9526 62.7961 48.2223 63.0513 55.0039C63.3141 62.0116 58.123 67.7233 51.2472 67.9911ZM60.3878 55.607C60.3888 53.0447 59.3975 50.5865 57.6313 48.7714C55.865 46.9563 53.4678 45.9324 50.9654 45.9241C45.7273 45.9163 41.4668 50.245 41.4592 55.5823C41.4515 60.9197 45.726 65.2782 50.9387 65.273C53.4424 65.2682 55.8424 64.2488 57.6142 62.4376C59.386 60.6263 60.3855 58.1706 60.3942 55.607H60.3878Z" fill="#4D0000"/>
<path d="M60.3878 55.607C60.3888 53.0447 59.3975 50.5865 57.6313 48.7714C55.865 46.9563 53.4678 45.9324 50.9654 45.9241C45.7273 45.9163 41.4668 50.245 41.4592 55.5823C41.4515 60.9197 45.726 65.2782 50.9387 65.273C53.4424 65.2682 55.8424 64.2488 57.6142 62.4376C59.386 60.6263 60.3855 58.1706 60.3942 55.607H60.3878Z" fill="#FFCDCD"/>
<path d="M52.0915 60.861C52.0915 61.2393 52.1054 61.5786 52.0915 61.9166C52.0521 62.6965 51.5151 63.2399 50.8308 63.2243C50.1465 63.2087 49.64 62.6627 49.6222 61.875C49.6159 61.5695 49.6222 61.2653 49.6222 60.8883C49.0763 60.8883 48.5749 60.9104 48.0747 60.8883C47.186 60.8402 46.6325 60.0746 46.8775 59.2492C47.0387 58.7058 47.4754 58.3769 48.1064 58.3705C49.216 58.3575 50.3255 58.3705 51.4364 58.3705C51.5786 58.3781 51.7213 58.3694 51.8617 58.3445C52.2133 58.2613 52.4215 58.0312 52.3974 57.6529C52.3993 57.5707 52.3849 57.4889 52.355 57.4125C52.3251 57.3362 52.2804 57.2668 52.2235 57.2087C52.1666 57.1506 52.0988 57.1049 52.0242 57.0745C51.9495 57.044 51.8696 57.0294 51.7893 57.0316C51.251 57.0095 50.7115 57.0316 50.1732 57.0199C48.4098 57.003 47.073 55.811 46.8445 54.0522C46.6236 52.4104 47.6392 50.8844 49.2896 50.4268C49.5765 50.3475 49.6362 50.2201 49.6235 49.9614C49.6108 49.6859 49.6133 49.4099 49.6311 49.1347C49.6486 48.8405 49.7676 48.5623 49.9669 48.3497C50.1662 48.1371 50.4328 48.0039 50.7191 47.9739C51.0136 47.9353 51.3115 48.0117 51.5535 48.1877C51.7956 48.3638 51.9641 48.6267 52.0254 48.9241C52.108 49.3479 52.094 49.7924 52.1283 50.3059C52.6145 50.3059 53.1134 50.3059 53.6136 50.3059C54.4896 50.3124 55.0533 50.8077 55.0558 51.5681C55.0583 52.3285 54.4947 52.8238 53.6212 52.8316C52.5104 52.8316 51.4008 52.8316 50.29 52.8316C49.6743 52.8316 49.3125 53.1306 49.2998 53.631C49.2871 54.1315 49.6628 54.4708 50.2989 54.476C50.775 54.476 51.251 54.476 51.7258 54.476C53.3762 54.5033 54.6864 55.681 54.8641 57.2798C55.0456 58.9216 54.0338 60.3801 52.4279 60.7896C52.3365 60.8169 52.2438 60.8312 52.0915 60.861Z" fill="#4D0000"/>
<path d="M34.1 19.1071C33.7839 19.3 33.7143 19.4875 33.7143 20.1357V20.7143H32.4125C30.9875 20.7143 30.7571 20.7464 30.1304 21.0357C29.0804 21.5286 27.9554 22.5946 27.3071 23.7196L27.0607 24.1429H26.1018H25.1429V23.9929C25.1429 23.7946 24.9661 23.5214 24.7571 23.3929C24.5911 23.2911 24.4839 23.2857 22.5714 23.2857C20.6589 23.2857 20.5518 23.2911 20.3857 23.3929C20.2893 23.4518 20.1661 23.575 20.1071 23.6714C20.0054 23.8429 20 23.95 20 28.4286C20 32.9071 20.0054 33.0143 20.1071 33.1857C20.1661 33.2821 20.2893 33.4054 20.3857 33.4643C20.5518 33.5661 20.6589 33.5714 22.5714 33.5714C24.4839 33.5714 24.5911 33.5661 24.7571 33.4643C25.0732 33.2714 25.1429 33.0839 25.1429 32.4304V31.8571H26.2571H27.3714L27.7946 32.2107C28.6464 32.9179 29.0911 33.1857 29.7768 33.4161C30.1304 33.5339 30.2429 33.5393 31.9357 33.5607L33.7143 33.5768V34.0429L33.7089 34.5089L33.2429 34.7339C32.2946 35.1839 31.6571 35.9982 31.2982 37.225C31.1321 37.7982 31.1 39.2875 31.2339 40.4393L31.3304 41.2857H25.9464C20.6696 41.2857 20.5571 41.2857 20.3857 41.3929C20.1286 41.5536 20 41.7946 20 42.1429C20 42.4911 20.1286 42.7321 20.3857 42.8929C20.5625 43 20.6804 43 32 43C43.3196 43 43.4375 43 43.6143 42.8929C43.8714 42.7321 44 42.4911 44 42.1429C44 41.7946 43.8714 41.5536 43.6143 41.3929C43.4429 41.2911 43.3357 41.2857 40.625 41.2857H37.8125L37.9036 40.4982C38.0214 39.4589 38.0268 38.1679 37.9143 37.5839C37.7375 36.6571 37.2821 35.7839 36.6821 35.2321C36.5 35.0714 36.1893 34.8679 35.9054 34.7339L35.4339 34.5089L35.4286 34.0482V33.5821L36.1143 33.5607C36.7679 33.5446 36.8054 33.5339 37.1321 33.3625C37.55 33.1321 37.9571 32.6982 38.0964 32.3232C38.1554 32.1732 38.4821 30.7804 38.8304 29.2321C39.4036 26.6661 39.4518 26.3875 39.4304 26.0286C39.3768 25.2946 38.9268 24.6357 38.2732 24.3196C38.0375 24.2071 37.8661 24.1696 37.5071 24.1536C37.2446 24.1429 37.0357 24.1161 37.0357 24.1054C37.0357 24.0143 37.6036 23.3071 37.9464 22.9643C38.4554 22.45 38.9 22.1339 39.6982 21.7161C40.4482 21.3196 40.5714 21.1804 40.5714 20.7196C40.5714 20.1786 40.2554 19.8571 39.7143 19.8571C39.4679 19.8571 39.3339 19.9 38.9 20.1196C37.5607 20.7946 36.4786 21.7321 35.6911 22.9L35.4286 23.2964V21.4268C35.4286 19.6589 35.4232 19.5518 35.3214 19.3857C35.1607 19.1286 34.9196 19 34.5714 19C34.3732 19 34.2179 19.0321 34.1 19.1071ZM33.7143 23.2857V24.1429H33.1411C32.6589 24.1429 32.5357 24.1589 32.3857 24.25C31.8768 24.5607 31.8554 25.4071 32.3589 25.7339C32.4929 25.8196 32.7125 25.8304 34.9839 25.8571C37.4482 25.8839 37.4643 25.8839 37.5768 26.0018L37.6946 26.1196L37.0893 28.8679C36.6446 30.8768 36.4571 31.6429 36.3821 31.7232C36.2857 31.8304 36.2107 31.8304 33.4839 31.8304C30.9232 31.8304 30.6607 31.8196 30.3661 31.7339C29.9482 31.6054 29.6321 31.4071 28.9679 30.8661C28.6732 30.6196 28.3357 30.3571 28.2232 30.2821L28.0196 30.1429H26.5839H25.1429V28V25.8571H26.5625C28.3357 25.8571 28.3143 25.8625 28.6196 25.1179C28.85 24.5393 29.0857 24.1857 29.5571 23.6821C30.1893 23.0018 30.8429 22.5732 31.3839 22.4768C31.5018 22.4607 32.075 22.4393 32.6589 22.4339L33.7143 22.4286V23.2857ZM23.4286 28.4286V31.8571H22.5714H21.7143V28.4286V25H22.5714H23.4286V28.4286ZM35.1393 36.3036C35.5946 36.5286 35.9643 37.0643 36.1518 37.7768C36.2911 38.3125 36.2375 39.8446 36.0393 41.0821L36.0071 41.2857H34.5714H33.1357L33.1089 41.1089C33.0929 41.0179 33.05 40.6964 33.0179 40.4018C32.9857 40.1071 32.9482 39.8018 32.9375 39.7161L32.9161 39.5714H33.575C34.1696 39.5714 34.25 39.5607 34.4107 39.4482C34.9357 39.1 34.9357 38.3286 34.4107 37.9804C34.25 37.8679 34.1696 37.8571 33.6018 37.8571H32.975L33.0286 37.6536C33.1893 37.075 33.5643 36.5446 33.9768 36.3304C34.3036 36.1589 34.8125 36.1482 35.1393 36.3036Z" fill="#4D0000"/>
</svg>
