<svg width="72" height="72" viewBox="0 0 72 72" fill="none" xmlns="http://www.w3.org/2000/svg">
<path d="M29.887 4.07675C27.9495 4.40174 25.9246 5.37672 24.5871 6.62668L23.6622 7.48916H19.9123C15.8249 7.48916 15.2624 7.55166 14.0874 8.13914C12.675 8.85162 11.4875 10.3891 11.15 11.964C10.95 12.9015 10.95 62.5751 11.15 63.5126C11.35 64.4376 11.925 65.5376 12.5875 66.2375C13.2374 66.925 14.5249 67.65 15.4874 67.85C16.4249 68.05 56.3488 68.05 57.2862 67.85C59.4112 67.4 61.1736 65.6251 61.6236 63.5126C61.8236 62.5626 61.8236 12.9015 61.6236 11.964C61.1736 9.85159 59.3862 8.06414 57.2862 7.62666C56.8862 7.53916 55.1363 7.48916 52.8614 7.48916H49.099L48.2615 6.68918C47.3115 5.8017 46.3615 5.18922 45.0866 4.68924C43.4491 4.02675 42.8991 3.98926 36.2868 4.00175C32.9369 4.01425 30.062 4.05175 29.887 4.07675ZM42.8741 7.92665C43.3116 8.03914 44.0241 8.30164 44.4366 8.51413C45.6865 9.17661 47.0865 10.7641 47.449 11.9515L47.524 12.239H36.3868H25.2496L25.3246 11.9515C25.5371 11.2891 26.1246 10.3766 26.8371 9.6516C27.662 8.81412 28.962 8.07664 30.0245 7.87665C30.3245 7.81415 33.1619 7.76415 36.3243 7.75165C41.0492 7.73915 42.2116 7.77665 42.8741 7.92665ZM21.4247 12.0765C21.3247 12.5515 21.2622 13.3765 21.2872 13.9515C21.3247 15.0515 21.5247 15.4139 22.2872 15.8139C22.7872 16.0764 49.9864 16.0764 50.4864 15.8139C51.2489 15.4139 51.4489 15.0515 51.4864 13.9515C51.5114 13.3765 51.4489 12.5515 51.3489 12.0765L51.1739 11.2391H53.8113C56.8362 11.2391 57.2362 11.3391 57.7362 12.2265L58.0112 12.714V37.7383V62.7626L57.7487 63.2376C57.5987 63.5001 57.2737 63.8251 57.0112 63.9751L56.5362 64.2376H36.3868H16.2374L15.7624 63.9751C15.4999 63.8251 15.1749 63.5001 15.0249 63.2376L14.7624 62.7626V37.7383V12.714L15.0374 12.2265C15.5374 11.3391 15.9249 11.2391 18.9623 11.2391H21.5997L21.4247 12.0765Z" fill="#4D0000"/>
<path d="M42.8741 7.92665C43.3116 8.03914 44.0241 8.30164 44.4366 8.51413C45.6865 9.17661 47.0865 10.7641 47.449 11.9515L47.524 12.239H36.3868H25.2496L25.3246 11.9515C25.5371 11.2891 26.1246 10.3766 26.8371 9.6516C27.662 8.81412 28.962 8.07664 30.0245 7.87665C30.3245 7.81415 33.1619 7.76415 36.3243 7.75165C41.0492 7.73915 42.2116 7.77665 42.8741 7.92665Z" fill="#E60000"/>
<path d="M28.3252 51.5506C28.2627 51.5756 28.0377 51.6256 27.8377 51.6756C27.6002 51.7256 26.9252 52.2881 25.9378 53.2631L24.4003 54.7755L23.9378 54.363C23.4253 53.913 22.7879 53.6131 22.3629 53.6131C21.8379 53.6131 21.0754 54.088 20.7879 54.6005C20.2004 55.6505 20.4504 56.263 22.1754 57.9629C23.5503 59.3129 23.8878 59.4879 24.8628 59.3004C25.2503 59.2254 25.6878 58.8504 27.6127 56.9505C28.8752 55.7005 30.0002 54.5005 30.1002 54.3005C30.5376 53.4756 30.2252 52.2881 29.4502 51.8506C29.0502 51.6256 28.5252 51.4881 28.3252 51.5506Z" fill="#4D0000"/>
<path d="M34.0246 52.9246C33.4121 53.1996 33.0371 53.8246 33.0371 54.5871C33.0371 55.287 33.2621 55.712 33.8996 56.1745C34.2371 56.437 34.3621 56.437 42.4119 56.437C50.4616 56.437 50.5866 56.437 50.9241 56.1745C51.5616 55.712 51.7866 55.287 51.7866 54.5871C51.7866 53.8121 51.4116 53.1871 50.7741 52.9246C50.1741 52.6746 34.5996 52.6746 34.0246 52.9246Z" fill="#4D0000"/>
<mask id="path-4-outside-1_6356_46275" maskUnits="userSpaceOnUse" x="26" y="17.6953" width="22" height="32" fill="black">
<rect fill="white" x="26" y="17.6953" width="22" height="32"/>
<path d="M28.5255 19.134C28.2065 19.3022 27.9165 19.7198 27.8585 20.0795C27.8353 20.2419 27.8585 20.5957 27.9165 20.9843C28.4037 24.1572 30.4455 26.9472 33.3457 28.3973C33.9606 28.7048 34.6972 28.989 35.2483 29.1282L35.6659 29.2326V32.9913C35.6659 35.0563 35.6543 36.75 35.6427 36.75C35.6311 36.75 35.3759 36.634 35.0742 36.489C34.239 36.0946 33.6647 35.9727 32.6497 35.9727C31.6462 35.9727 31.0661 36.0946 30.2309 36.489C29.5754 36.7964 29.2738 37.0052 28.7575 37.4925C28.2065 38.0087 27.8701 38.4727 27.5394 39.1572C27.1102 40.0505 27 40.5493 27 41.5934C27 42.6549 27.116 43.2117 27.5394 44.0876C28.0267 45.0969 28.6647 45.7987 29.7552 46.5296C31.2401 47.5215 32.9339 48.2059 34.7262 48.5307C35.7007 48.7106 37.6206 48.7512 38.6879 48.612C40.6195 48.3683 42.5568 47.6491 44.1984 46.5644C45.3063 45.8335 45.9733 45.1085 46.4606 44.0876C46.8782 43.2233 47 42.6491 47 41.6224C47 40.6131 46.8782 40.0331 46.4896 39.2094C46.1763 38.5482 45.9675 38.2407 45.4803 37.7303C45.0104 37.2256 44.5232 36.8602 43.9606 36.576C42.3422 35.7639 40.4629 35.7407 38.891 36.5064L38.3341 36.7848V33.0029V29.221L38.5313 29.1862C39.3608 29.0296 40.9037 28.3335 41.855 27.6897C42.609 27.185 43.7749 26.0482 44.2912 25.3231C45.2483 23.9832 45.8399 22.5389 46.0835 20.9843C46.1995 20.2129 46.1647 19.9113 45.9153 19.54C45.5383 18.989 44.9698 18.8788 43.7691 19.1224C41.1241 19.656 38.7343 21.2744 37.3074 23.4959C37.1566 23.7338 37.0174 23.9252 37 23.9252C36.9826 23.9252 36.8434 23.7338 36.6926 23.4959C36.0545 22.5041 35.1032 21.5064 34.094 20.7813C32.3422 19.5226 29.4304 18.6584 28.5255 19.134ZM29.9872 20.0215C31.652 20.3347 33.2993 21.1874 34.529 22.3649C35.9617 23.7396 36.8144 25.2767 37.2436 27.2662C37.3654 27.8289 37.3712 27.9913 37.3886 32.5853L37.4118 37.3301H37.0058H36.594V33.0145C36.594 28.0319 36.652 28.4669 36.0023 28.3393C34.1462 27.9797 32.174 26.8022 30.9153 25.3057C29.7436 23.9078 28.9896 22.1966 28.7865 20.4971C28.7169 19.9229 28.9664 19.8243 29.9872 20.0215ZM45.1265 20.0505C45.2367 20.1607 45.2483 20.2187 45.2135 20.4971C44.8654 23.4611 42.9165 26.2106 40.2193 27.5563C39.6044 27.8579 38.4095 28.2987 38.3341 28.2523C38.3109 28.2349 38.2761 28.0377 38.2529 27.8057C38.2007 27.2314 37.9803 26.286 37.7309 25.5841L37.5278 25.0041L37.7599 24.569C38.1427 23.8614 38.6125 23.2465 39.2912 22.5679C40.5905 21.2686 42.1276 20.4275 43.891 20.0447C44.5986 19.8939 44.9698 19.8939 45.1265 20.0505ZM33.3109 36.9124L33.5313 36.953L33.5255 37.6201C33.5197 38.3219 33.5719 38.6294 33.8097 39.1746C33.9548 39.5168 34.0534 39.5922 34.355 39.5922C34.5058 39.5922 34.587 39.5516 34.6798 39.4356C34.8248 39.25 34.8132 39.1746 34.5986 38.5772C34.4884 38.2697 34.4478 38.0551 34.4478 37.6897V37.214L34.7494 37.3649C34.9118 37.4461 35.2193 37.6317 35.4281 37.7709C35.9849 38.1421 36.3677 38.2581 37 38.2581C37.6323 38.2581 38.0151 38.1421 38.5719 37.7709C38.7807 37.6317 39.0882 37.4461 39.2506 37.3649L39.5522 37.214V37.6723C39.5522 38.4495 39.3028 39.047 38.7517 39.569C38.0325 40.2593 36.9826 40.4623 36.0545 40.0853C35.5731 39.8939 35.3585 39.8939 35.2077 40.0911C35.0394 40.3057 35.051 40.5493 35.2367 40.7233C35.3179 40.7987 35.5847 40.9263 35.8283 41.0133C37.7193 41.6572 39.7436 40.6421 40.3411 38.757C40.4629 38.3567 40.4861 38.1943 40.4745 37.6201L40.4629 36.953L40.9211 36.9008C42.8179 36.6746 44.8364 37.8463 45.6659 39.6618C45.9791 40.3463 46.0719 40.7987 46.0719 41.6224C46.0777 43.3683 45.3353 44.6618 43.7111 45.7465C41.6578 47.1212 39.4884 47.7767 37 47.7767C34.9292 47.7767 33.1021 47.3243 31.3213 46.373C29.3782 45.3347 28.4675 44.3196 28.0267 42.7187C27.8875 42.2082 27.8875 40.9843 28.0325 40.4623C28.4559 38.9136 29.6044 37.6665 31.0835 37.1444C31.7448 36.9066 32.7193 36.808 33.3109 36.9124Z"/>
<path d="M33.3109 36.9124L33.5313 36.953L33.5255 37.6201C33.5197 38.3219 33.5719 38.6294 33.8097 39.1746C33.9548 39.5168 34.0534 39.5922 34.355 39.5922C34.5058 39.5922 34.587 39.5516 34.6798 39.4356C34.8248 39.25 34.8132 39.1746 34.5986 38.5772C34.4884 38.2697 34.4478 38.0551 34.4478 37.6897V37.214L34.7494 37.3649C34.9118 37.4461 35.2193 37.6317 35.4281 37.7709C35.9849 38.1421 36.3677 38.2581 37 38.2581C37.6323 38.2581 38.0151 38.1421 38.5719 37.7709C38.7807 37.6317 39.0882 37.4461 39.2506 37.3649L39.5522 37.214V37.6723C39.5522 38.4495 39.3028 39.047 38.7517 39.569C38.0325 40.2593 36.9826 40.4623 36.0545 40.0853C35.5731 39.8939 35.3585 39.8939 35.2077 40.0911C35.0394 40.3057 35.051 40.5493 35.2367 40.7233C35.3179 40.7987 35.5847 40.9263 35.8283 41.0133C37.7193 41.6572 39.7436 40.6421 40.3411 38.757C40.4629 38.3567 40.4861 38.1943 40.4745 37.6201L40.4629 36.953L40.9211 36.9008C42.8179 36.6746 44.8364 37.8463 45.6659 39.6618C45.9791 40.3463 46.0719 40.7987 46.0719 41.6224C46.0777 43.3683 45.3353 44.6618 43.7111 45.7465C41.6578 47.1212 39.4884 47.7767 37 47.7767C34.9292 47.7767 33.1021 47.3243 31.3213 46.373C29.3782 45.3347 28.4675 44.3196 28.0267 42.7187C27.8875 42.2082 27.8875 40.9843 28.0325 40.4623C28.4559 38.9136 29.6044 37.6665 31.0835 37.1444C31.7448 36.9066 32.7193 36.808 33.3109 36.9124Z"/>
<path d="M45.1265 20.0505C45.2367 20.1607 45.2483 20.2187 45.2135 20.4971C44.8654 23.4611 42.9165 26.2106 40.2193 27.5563C39.6044 27.8579 38.4095 28.2987 38.3341 28.2523C38.3109 28.2349 38.2761 28.0377 38.2529 27.8057C38.2007 27.2314 37.9803 26.286 37.7309 25.5841L37.5278 25.0041L37.7599 24.569C38.1427 23.8614 38.6125 23.2465 39.2912 22.5679C40.5905 21.2686 42.1276 20.4275 43.891 20.0447C44.5986 19.8939 44.9698 19.8939 45.1265 20.0505Z"/>
<path d="M29.9872 20.0215C31.652 20.3347 33.2993 21.1874 34.529 22.3649C35.9617 23.7396 36.8144 25.2767 37.2436 27.2662C37.3654 27.8289 37.3712 27.9913 37.3886 32.5853L37.4118 37.3301H37.0058H36.594V33.0145C36.594 28.0319 36.652 28.4669 36.0023 28.3393C34.1462 27.9797 32.174 26.8022 30.9153 25.3057C29.7436 23.9078 28.9896 22.1966 28.7865 20.4971C28.7169 19.9229 28.9664 19.8243 29.9872 20.0215Z"/>
</mask>
<path d="M28.5255 19.134C28.2065 19.3022 27.9165 19.7198 27.8585 20.0795C27.8353 20.2419 27.8585 20.5957 27.9165 20.9843C28.4037 24.1572 30.4455 26.9472 33.3457 28.3973C33.9606 28.7048 34.6972 28.989 35.2483 29.1282L35.6659 29.2326V32.9913C35.6659 35.0563 35.6543 36.75 35.6427 36.75C35.6311 36.75 35.3759 36.634 35.0742 36.489C34.239 36.0946 33.6647 35.9727 32.6497 35.9727C31.6462 35.9727 31.0661 36.0946 30.2309 36.489C29.5754 36.7964 29.2738 37.0052 28.7575 37.4925C28.2065 38.0087 27.8701 38.4727 27.5394 39.1572C27.1102 40.0505 27 40.5493 27 41.5934C27 42.6549 27.116 43.2117 27.5394 44.0876C28.0267 45.0969 28.6647 45.7987 29.7552 46.5296C31.2401 47.5215 32.9339 48.2059 34.7262 48.5307C35.7007 48.7106 37.6206 48.7512 38.6879 48.612C40.6195 48.3683 42.5568 47.6491 44.1984 46.5644C45.3063 45.8335 45.9733 45.1085 46.4606 44.0876C46.8782 43.2233 47 42.6491 47 41.6224C47 40.6131 46.8782 40.0331 46.4896 39.2094C46.1763 38.5482 45.9675 38.2407 45.4803 37.7303C45.0104 37.2256 44.5232 36.8602 43.9606 36.576C42.3422 35.7639 40.4629 35.7407 38.891 36.5064L38.3341 36.7848V33.0029V29.221L38.5313 29.1862C39.3608 29.0296 40.9037 28.3335 41.855 27.6897C42.609 27.185 43.7749 26.0482 44.2912 25.3231C45.2483 23.9832 45.8399 22.5389 46.0835 20.9843C46.1995 20.2129 46.1647 19.9113 45.9153 19.54C45.5383 18.989 44.9698 18.8788 43.7691 19.1224C41.1241 19.656 38.7343 21.2744 37.3074 23.4959C37.1566 23.7338 37.0174 23.9252 37 23.9252C36.9826 23.9252 36.8434 23.7338 36.6926 23.4959C36.0545 22.5041 35.1032 21.5064 34.094 20.7813C32.3422 19.5226 29.4304 18.6584 28.5255 19.134ZM29.9872 20.0215C31.652 20.3347 33.2993 21.1874 34.529 22.3649C35.9617 23.7396 36.8144 25.2767 37.2436 27.2662C37.3654 27.8289 37.3712 27.9913 37.3886 32.5853L37.4118 37.3301H37.0058H36.594V33.0145C36.594 28.0319 36.652 28.4669 36.0023 28.3393C34.1462 27.9797 32.174 26.8022 30.9153 25.3057C29.7436 23.9078 28.9896 22.1966 28.7865 20.4971C28.7169 19.9229 28.9664 19.8243 29.9872 20.0215ZM45.1265 20.0505C45.2367 20.1607 45.2483 20.2187 45.2135 20.4971C44.8654 23.4611 42.9165 26.2106 40.2193 27.5563C39.6044 27.8579 38.4095 28.2987 38.3341 28.2523C38.3109 28.2349 38.2761 28.0377 38.2529 27.8057C38.2007 27.2314 37.9803 26.286 37.7309 25.5841L37.5278 25.0041L37.7599 24.569C38.1427 23.8614 38.6125 23.2465 39.2912 22.5679C40.5905 21.2686 42.1276 20.4275 43.891 20.0447C44.5986 19.8939 44.9698 19.8939 45.1265 20.0505ZM33.3109 36.9124L33.5313 36.953L33.5255 37.6201C33.5197 38.3219 33.5719 38.6294 33.8097 39.1746C33.9548 39.5168 34.0534 39.5922 34.355 39.5922C34.5058 39.5922 34.587 39.5516 34.6798 39.4356C34.8248 39.25 34.8132 39.1746 34.5986 38.5772C34.4884 38.2697 34.4478 38.0551 34.4478 37.6897V37.214L34.7494 37.3649C34.9118 37.4461 35.2193 37.6317 35.4281 37.7709C35.9849 38.1421 36.3677 38.2581 37 38.2581C37.6323 38.2581 38.0151 38.1421 38.5719 37.7709C38.7807 37.6317 39.0882 37.4461 39.2506 37.3649L39.5522 37.214V37.6723C39.5522 38.4495 39.3028 39.047 38.7517 39.569C38.0325 40.2593 36.9826 40.4623 36.0545 40.0853C35.5731 39.8939 35.3585 39.8939 35.2077 40.0911C35.0394 40.3057 35.051 40.5493 35.2367 40.7233C35.3179 40.7987 35.5847 40.9263 35.8283 41.0133C37.7193 41.6572 39.7436 40.6421 40.3411 38.757C40.4629 38.3567 40.4861 38.1943 40.4745 37.6201L40.4629 36.953L40.9211 36.9008C42.8179 36.6746 44.8364 37.8463 45.6659 39.6618C45.9791 40.3463 46.0719 40.7987 46.0719 41.6224C46.0777 43.3683 45.3353 44.6618 43.7111 45.7465C41.6578 47.1212 39.4884 47.7767 37 47.7767C34.9292 47.7767 33.1021 47.3243 31.3213 46.373C29.3782 45.3347 28.4675 44.3196 28.0267 42.7187C27.8875 42.2082 27.8875 40.9843 28.0325 40.4623C28.4559 38.9136 29.6044 37.6665 31.0835 37.1444C31.7448 36.9066 32.7193 36.808 33.3109 36.9124Z" fill="#4D0000"/>
<path d="M33.3109 36.9124L33.5313 36.953L33.5255 37.6201C33.5197 38.3219 33.5719 38.6294 33.8097 39.1746C33.9548 39.5168 34.0534 39.5922 34.355 39.5922C34.5058 39.5922 34.587 39.5516 34.6798 39.4356C34.8248 39.25 34.8132 39.1746 34.5986 38.5772C34.4884 38.2697 34.4478 38.0551 34.4478 37.6897V37.214L34.7494 37.3649C34.9118 37.4461 35.2193 37.6317 35.4281 37.7709C35.9849 38.1421 36.3677 38.2581 37 38.2581C37.6323 38.2581 38.0151 38.1421 38.5719 37.7709C38.7807 37.6317 39.0882 37.4461 39.2506 37.3649L39.5522 37.214V37.6723C39.5522 38.4495 39.3028 39.047 38.7517 39.569C38.0325 40.2593 36.9826 40.4623 36.0545 40.0853C35.5731 39.8939 35.3585 39.8939 35.2077 40.0911C35.0394 40.3057 35.051 40.5493 35.2367 40.7233C35.3179 40.7987 35.5847 40.9263 35.8283 41.0133C37.7193 41.6572 39.7436 40.6421 40.3411 38.757C40.4629 38.3567 40.4861 38.1943 40.4745 37.6201L40.4629 36.953L40.9211 36.9008C42.8179 36.6746 44.8364 37.8463 45.6659 39.6618C45.9791 40.3463 46.0719 40.7987 46.0719 41.6224C46.0777 43.3683 45.3353 44.6618 43.7111 45.7465C41.6578 47.1212 39.4884 47.7767 37 47.7767C34.9292 47.7767 33.1021 47.3243 31.3213 46.373C29.3782 45.3347 28.4675 44.3196 28.0267 42.7187C27.8875 42.2082 27.8875 40.9843 28.0325 40.4623C28.4559 38.9136 29.6044 37.6665 31.0835 37.1444C31.7448 36.9066 32.7193 36.808 33.3109 36.9124Z" fill="#FFCDCD"/>
<path d="M45.1265 20.0505C45.2367 20.1607 45.2483 20.2187 45.2135 20.4971C44.8654 23.4611 42.9165 26.2106 40.2193 27.5563C39.6044 27.8579 38.4095 28.2987 38.3341 28.2523C38.3109 28.2349 38.2761 28.0377 38.2529 27.8057C38.2007 27.2314 37.9803 26.286 37.7309 25.5841L37.5278 25.0041L37.7599 24.569C38.1427 23.8614 38.6125 23.2465 39.2912 22.5679C40.5905 21.2686 42.1276 20.4275 43.891 20.0447C44.5986 19.8939 44.9698 19.8939 45.1265 20.0505Z" fill="#FFCDCD"/>
<path d="M29.9872 20.0215C31.652 20.3347 33.2993 21.1874 34.529 22.3649C35.9617 23.7396 36.8144 25.2767 37.2436 27.2662C37.3654 27.8289 37.3712 27.9913 37.3886 32.5853L37.4118 37.3301H37.0058H36.594V33.0145C36.594 28.0319 36.652 28.4669 36.0023 28.3393C34.1462 27.9797 32.174 26.8022 30.9153 25.3057C29.7436 23.9078 28.9896 22.1966 28.7865 20.4971C28.7169 19.9229 28.9664 19.8243 29.9872 20.0215Z" fill="#FFCDCD"/>
<path d="M29.9872 20.0215L29.941 20.2672L29.9398 20.2669L29.9872 20.0215ZM34.529 22.3649L34.7019 22.1843L34.7021 22.1845L34.529 22.3649ZM37.2436 27.2662L36.9993 27.3191L36.9992 27.319L37.2436 27.2662ZM37.3886 32.5853L37.1386 32.5865L37.1386 32.5862L37.3886 32.5853ZM37.4118 37.3301L37.6618 37.3288L37.6631 37.5801H37.4118V37.3301ZM36.594 37.3301V37.5801H36.344V37.3301H36.594ZM36.0023 28.3393L36.0499 28.0939L36.0505 28.094L36.0023 28.3393ZM30.9153 25.3057L30.724 25.4666L30.7237 25.4663L30.9153 25.3057ZM28.7865 20.4971L29.0347 20.467L29.0348 20.4675L28.7865 20.4971ZM45.2135 20.4971L44.9652 20.468L44.9654 20.4661L45.2135 20.4971ZM40.2193 27.5563L40.3309 27.78L40.3294 27.7807L40.2193 27.5563ZM38.3341 28.2523L38.2031 28.4652L38.1933 28.4592L38.1841 28.4523L38.3341 28.2523ZM38.2529 27.8057L38.0041 27.8306L38.0039 27.8283L38.2529 27.8057ZM37.7309 25.5841L37.4953 25.6678L37.4949 25.6667L37.7309 25.5841ZM37.5278 25.0041L37.2919 25.0867L37.2557 24.9832L37.3073 24.8864L37.5278 25.0041ZM37.7599 24.569L37.5393 24.4514L37.54 24.4501L37.7599 24.569ZM43.891 20.0447L43.8379 19.8004L43.8388 19.8002L43.891 20.0447ZM33.3109 36.9124L33.3544 36.6662L33.3562 36.6666L33.3109 36.9124ZM33.5313 36.953L33.5766 36.7072L33.7831 36.7452L33.7813 36.9552L33.5313 36.953ZM33.5255 37.6201L33.2755 37.618L33.2755 37.6179L33.5255 37.6201ZM33.8097 39.1746L34.0389 39.0746L34.0399 39.0771L33.8097 39.1746ZM34.6798 39.4356L34.8768 39.5895L34.875 39.5918L34.6798 39.4356ZM34.5986 38.5772L34.3633 38.6617L34.3633 38.6615L34.5986 38.5772ZM34.4478 37.214H34.1978V36.8095L34.5596 36.9904L34.4478 37.214ZM35.4281 37.7709L35.2894 37.9789L35.2894 37.9789L35.4281 37.7709ZM38.5719 37.7709L38.7106 37.9789L38.7106 37.9789L38.5719 37.7709ZM39.2506 37.3649L39.3624 37.5885L39.3624 37.5885L39.2506 37.3649ZM39.5522 37.214L39.4404 36.9904L39.8022 36.8095V37.214H39.5522ZM38.7517 39.569L38.5786 39.3887L38.5798 39.3875L38.7517 39.569ZM36.0545 40.0853L36.1469 39.853L36.1486 39.8537L36.0545 40.0853ZM35.2077 40.0911L35.4063 40.2429L35.4044 40.2453L35.2077 40.0911ZM35.2367 40.7233L35.0665 40.9065L35.0657 40.9057L35.2367 40.7233ZM35.8283 41.0133L35.7477 41.25L35.7442 41.2488L35.8283 41.0133ZM40.3411 38.757L40.5803 38.8298L40.5794 38.8325L40.3411 38.757ZM40.4745 37.6201L40.2245 37.6251L40.2245 37.6244L40.4745 37.6201ZM40.4629 36.953L40.2129 36.9574L40.209 36.7303L40.4346 36.7046L40.4629 36.953ZM40.9211 36.9008L40.9507 37.1491L40.9494 37.1492L40.9211 36.9008ZM45.6659 39.6618L45.4386 39.7659L45.4385 39.7657L45.6659 39.6618ZM46.0719 41.6224L45.8219 41.6232V41.6224H46.0719ZM43.7111 45.7465L43.5721 45.5388L43.5723 45.5386L43.7111 45.7465ZM31.3213 46.373L31.2035 46.5935L31.2035 46.5935L31.3213 46.373ZM28.0267 42.7187L27.7857 42.7851L27.7855 42.7845L28.0267 42.7187ZM28.0325 40.4623L28.2736 40.5282L28.2734 40.5292L28.0325 40.4623ZM31.0835 37.1444L31.1681 37.3797L31.1667 37.3802L31.0835 37.1444ZM30.0335 19.7758C31.7465 20.0981 33.4377 20.9737 34.7019 22.1843L34.3561 22.5454C33.161 21.401 31.5575 20.5713 29.941 20.2672L30.0335 19.7758ZM34.7021 22.1845C36.1716 23.5945 37.0485 25.1764 37.488 27.2135L36.9992 27.319C36.5803 25.377 35.7518 23.8847 34.3559 22.5452L34.7021 22.1845ZM37.488 27.2134C37.617 27.8094 37.6213 28.0105 37.6386 32.5843L37.1386 32.5862C37.1212 27.9722 37.1139 27.8484 36.9993 27.3191L37.488 27.2134ZM37.6386 32.5841L37.6618 37.3288L37.1618 37.3313L37.1386 32.5865L37.6386 32.5841ZM37.4118 37.5801H37.0058V37.0801H37.4118V37.5801ZM37.0058 37.5801H36.594V37.0801H37.0058V37.5801ZM36.344 37.3301V33.0145H36.844V37.3301H36.344ZM36.344 33.0145C36.344 31.7672 36.3476 30.8624 36.3429 30.2017C36.3382 29.5372 36.3249 29.1354 36.2937 28.8875C36.2604 28.623 36.2145 28.621 36.234 28.6335C36.2358 28.6347 36.227 28.628 36.1734 28.6191C36.1379 28.6132 36.0346 28.6005 35.9541 28.5846L36.0505 28.094C36.1324 28.1101 36.1694 28.1116 36.2552 28.1259C36.3227 28.1371 36.416 28.1563 36.5036 28.2124C36.695 28.335 36.7564 28.5596 36.7898 28.8251C36.8253 29.1072 36.8382 29.5388 36.8429 30.1981C36.8476 30.8612 36.844 31.7705 36.844 33.0145H36.344ZM35.9548 28.5848C34.0402 28.2138 32.018 27.0052 30.724 25.4666L31.1066 25.1448C32.33 26.5993 34.2521 27.7456 36.0499 28.0939L35.9548 28.5848ZM30.7237 25.4663C29.5227 24.0333 28.7474 22.2773 28.5383 20.5268L29.0348 20.4675C29.2317 22.116 29.9646 23.7822 31.1069 25.1451L30.7237 25.4663ZM28.5384 20.5272C28.5195 20.372 28.5167 20.213 28.5645 20.0723C28.6182 19.9144 28.7287 19.7998 28.8859 19.7376C29.0271 19.6816 29.1952 19.672 29.3735 19.6822C29.5559 19.6927 29.7757 19.726 30.0347 19.776L29.9398 20.2669C29.6883 20.2183 29.4941 20.19 29.3448 20.1814C29.1914 20.1726 29.1101 20.1866 29.07 20.2024C29.0459 20.212 29.0433 20.2174 29.0379 20.2333C29.0267 20.2664 29.0187 20.3351 29.0347 20.467L28.5384 20.5272ZM45.3032 19.8737C45.3724 19.9429 45.4434 20.0281 45.4697 20.1628C45.491 20.2716 45.4781 20.3957 45.4615 20.5281L44.9654 20.4661C44.9739 20.3979 44.9787 20.3501 44.9803 20.3141C44.9819 20.2781 44.9799 20.2632 44.979 20.2587C44.9787 20.257 44.9787 20.2576 44.9793 20.2594C44.9801 20.2611 44.9807 20.262 44.9803 20.2615C44.9788 20.2591 44.9724 20.2499 44.9497 20.2272L45.3032 19.8737ZM45.4618 20.5263C45.1037 23.5754 43.1023 26.3972 40.3309 27.78L40.1076 27.3326C42.7306 26.0239 44.6271 23.3469 44.9652 20.468L45.4618 20.5263ZM40.3294 27.7807C40.0114 27.9367 39.5502 28.1257 39.161 28.2693C38.966 28.3413 38.7849 28.4035 38.6456 28.4451C38.5767 28.4657 38.5129 28.4828 38.4605 28.4933C38.435 28.4984 38.4051 28.5033 38.3754 28.5051C38.3606 28.5059 38.3396 28.5064 38.3158 28.5036C38.2962 28.5014 38.2507 28.4946 38.2031 28.4652L38.4651 28.0394C38.4222 28.013 38.3836 28.0081 38.373 28.0069C38.3582 28.0052 38.3483 28.0058 38.3465 28.0059C38.3429 28.0061 38.347 28.0061 38.3626 28.0029C38.3924 27.997 38.4391 27.985 38.5024 27.966C38.6276 27.9286 38.7978 27.8704 38.9878 27.8003C39.3685 27.6597 39.8123 27.4775 40.1092 27.3318L40.3294 27.7807ZM38.1841 28.4523C38.1473 28.4247 38.1264 28.3936 38.1176 28.3795C38.107 28.3625 38.0998 28.347 38.0951 28.3361C38.0858 28.3143 38.079 28.2926 38.0742 28.2753C38.0642 28.2398 38.0553 28.1974 38.0475 28.1538C38.0315 28.0652 38.0162 27.9511 38.0041 27.8306L38.5017 27.7808C38.5128 27.8923 38.5265 27.9929 38.5395 28.0652C38.5462 28.102 38.5518 28.1268 38.5556 28.1403C38.5577 28.1476 38.5576 28.146 38.5547 28.1392C38.5533 28.1358 38.5491 28.1265 38.5416 28.1145C38.5359 28.1053 38.518 28.0778 38.4841 28.0523L38.1841 28.4523ZM38.0039 27.8283C37.954 27.2794 37.7394 26.3547 37.4953 25.6678L37.9664 25.5004C38.2212 26.2172 38.4474 27.1835 38.5019 27.7831L38.0039 27.8283ZM37.4949 25.6667L37.2919 25.0867L37.7638 24.9215L37.9668 25.5015L37.4949 25.6667ZM37.3073 24.8864L37.5393 24.4514L37.9804 24.6867L37.7484 25.1217L37.3073 24.8864ZM37.54 24.4501C37.9362 23.7177 38.4217 23.0838 39.1144 22.3911L39.468 22.7446C38.8033 23.4093 38.3492 24.0051 37.9797 24.688L37.54 24.4501ZM39.1144 22.3911C40.4472 21.0583 42.0271 20.1935 43.8379 19.8004L43.944 20.289C42.2282 20.6615 40.7338 21.4788 39.468 22.7446L39.1144 22.3911ZM43.8388 19.8002C44.1976 19.7237 44.4882 19.6815 44.7162 19.6823C44.9371 19.6831 45.1535 19.724 45.3032 19.8737L44.9497 20.2272C44.9427 20.2203 44.8953 20.1829 44.7144 20.1823C44.5408 20.1817 44.292 20.2148 43.9431 20.2892L43.8388 19.8002ZM33.3562 36.6666L33.5766 36.7072L33.486 37.1989L33.2656 37.1583L33.3562 36.6666ZM33.7813 36.9552L33.7755 37.6222L33.2755 37.6179L33.2813 36.9508L33.7813 36.9552ZM33.7755 37.6221C33.7727 37.9683 33.7844 38.2021 33.8223 38.4116C33.8597 38.6186 33.9245 38.8123 34.0389 39.0747L33.5806 39.2745C33.4572 38.9917 33.377 38.759 33.3303 38.5005C33.284 38.2446 33.2726 37.9738 33.2755 37.618L33.7755 37.6221ZM34.0399 39.0771C34.112 39.2471 34.1521 39.2952 34.1756 39.3133C34.1886 39.3232 34.2186 39.3422 34.355 39.3422V39.8422C34.1898 39.8422 34.0196 39.8236 33.8716 39.7102C33.7343 39.605 33.6525 39.4444 33.5796 39.2721L34.0399 39.0771ZM34.355 39.3422C34.4084 39.3422 34.4251 39.3349 34.4299 39.3326C34.435 39.3301 34.4511 39.3214 34.4846 39.2794L34.875 39.5918C34.8158 39.6659 34.7448 39.7355 34.6484 39.7823C34.5517 39.8293 34.4523 39.8422 34.355 39.8422V39.3422ZM34.4828 39.2817C34.515 39.2405 34.5222 39.2253 34.5244 39.2194C34.5245 39.2191 34.528 39.2132 34.5253 39.1855C34.5175 39.107 34.4752 38.9732 34.3633 38.6617L34.8339 38.4926C34.9366 38.7786 35.0075 38.9812 35.0228 39.1361C35.0317 39.2252 35.0244 39.3103 34.9925 39.395C34.9629 39.4741 34.9171 39.5379 34.8768 39.5895L34.4828 39.2817ZM34.3633 38.6615C34.2433 38.327 34.1978 38.0838 34.1978 37.6897H34.6978C34.6978 38.0264 34.7335 38.2125 34.8339 38.4928L34.3633 38.6615ZM34.1978 37.6897V37.214H34.6978V37.6897H34.1978ZM34.5596 36.9904L34.8612 37.1412L34.6376 37.5885L34.336 37.4377L34.5596 36.9904ZM34.8612 37.1412C35.0368 37.229 35.3538 37.4209 35.5667 37.5629L35.2894 37.9789C35.0847 37.8424 34.7869 37.6631 34.6376 37.5885L34.8612 37.1412ZM35.5667 37.5629C35.8333 37.7406 36.046 37.8489 36.2595 37.9148C36.4725 37.9806 36.6996 38.0081 37 38.0081V38.5081C36.6682 38.5081 36.3878 38.4777 36.112 38.3926C35.8369 38.3077 35.5797 38.1724 35.2894 37.9789L35.5667 37.5629ZM37 38.0081C37.3004 38.0081 37.5275 37.9806 37.7405 37.9148C37.954 37.8489 38.1667 37.7406 38.4333 37.5629L38.7106 37.9789C38.4203 38.1724 38.1631 38.3077 37.888 38.3926C37.6122 38.4777 37.3318 38.5081 37 38.5081V38.0081ZM38.4333 37.5629C38.6462 37.4209 38.9632 37.229 39.1388 37.1412L39.3624 37.5885C39.2131 37.6631 38.9153 37.8424 38.7106 37.9789L38.4333 37.5629ZM39.1388 37.1412L39.4404 36.9904L39.664 37.4377L39.3624 37.5885L39.1388 37.1412ZM39.8022 37.214V37.6723H39.3022V37.214H39.8022ZM39.8022 37.6723C39.8022 38.5153 39.5266 39.1793 38.9237 39.7505L38.5798 39.3875C39.079 38.9146 39.3022 38.3837 39.3022 37.6723H39.8022ZM38.9248 39.7494C38.1345 40.5079 36.9799 40.7311 35.9604 40.3169L36.1486 39.8537C36.9853 40.1935 37.9305 40.0107 38.5786 39.3887L38.9248 39.7494ZM35.9622 40.3176C35.7244 40.223 35.5892 40.192 35.5085 40.1924C35.4738 40.1926 35.4572 40.1988 35.4489 40.2031C35.4402 40.2074 35.4262 40.2169 35.4062 40.2429L35.0091 39.9392C35.0646 39.8667 35.1339 39.8021 35.2229 39.757C35.3123 39.7118 35.4078 39.693 35.5057 39.6924C35.6904 39.6914 35.9032 39.7561 36.1469 39.853L35.9622 40.3176ZM35.4044 40.2453C35.3504 40.3142 35.3374 40.3714 35.3392 40.4108C35.3409 40.4485 35.3571 40.4936 35.4076 40.5409L35.0657 40.9057C34.9306 40.7791 34.8481 40.6153 34.8397 40.434C34.8314 40.2545 34.8967 40.0826 35.0109 39.9369L35.4044 40.2453ZM35.4068 40.5401C35.4057 40.5392 35.4089 40.5421 35.4187 40.549C35.428 40.5555 35.4406 40.5637 35.4569 40.5733C35.4895 40.5927 35.5316 40.6151 35.5809 40.6392C35.6797 40.6872 35.7989 40.7374 35.9124 40.7779L35.7442 41.2488C35.6141 41.2023 35.478 41.1451 35.3622 41.0888C35.2563 41.0373 35.1377 40.9725 35.0665 40.9065L35.4068 40.5401ZM35.9089 40.7767C37.6689 41.376 39.5482 40.4312 40.1027 38.6814L40.5794 38.8325C39.939 40.853 37.7696 41.9384 35.7477 41.25L35.9089 40.7767ZM40.1019 38.6842C40.1614 38.4887 40.1926 38.3645 40.2096 38.2239C40.2269 38.0801 40.2303 37.9108 40.2245 37.6251L40.7244 37.615C40.7303 37.9036 40.7278 38.1027 40.706 38.2837C40.6838 38.4679 40.6425 38.625 40.5802 38.8298L40.1019 38.6842ZM40.2245 37.6244L40.2129 36.9574L40.7128 36.9487L40.7244 37.6157L40.2245 37.6244ZM40.4346 36.7046L40.8928 36.6524L40.9494 37.1492L40.4912 37.2014L40.4346 36.7046ZM40.8915 36.6526C42.9022 36.4128 45.0212 37.6492 45.8933 39.558L45.4385 39.7657C44.6516 38.0434 42.7335 36.9364 40.9507 37.1491L40.8915 36.6526ZM45.8932 39.5578C46.2229 40.2782 46.3219 40.7666 46.3219 41.6224H45.8219C45.8219 40.8309 45.7354 40.4144 45.4386 39.7659L45.8932 39.5578ZM46.3219 41.6216C46.3249 42.5321 46.1324 43.3363 45.7197 44.0567C45.3079 44.7755 44.6854 45.3965 43.85 45.9544L43.5723 45.5386C44.361 45.0119 44.9218 44.4437 45.2858 43.8082C45.649 43.1742 45.8247 42.4587 45.8219 41.6232L46.3219 41.6216ZM43.8502 45.9543C41.7553 47.3568 39.5375 48.0267 37 48.0267V47.5267C39.4393 47.5267 41.5602 46.8857 43.5721 45.5388L43.8502 45.9543ZM37 48.0267C34.8891 48.0267 33.0214 47.5646 31.2035 46.5935L31.4391 46.1525C33.1828 47.0839 34.9693 47.5267 37 47.5267V48.0267ZM31.2035 46.5935C30.2178 46.0668 29.477 45.5372 28.9249 44.9241C28.3699 44.3079 28.015 43.6179 27.7857 42.7851L28.2677 42.6523C28.4792 43.4204 28.8001 44.0384 29.2964 44.5895C29.7956 45.1438 30.4817 45.6409 31.4392 46.1525L31.2035 46.5935ZM27.7855 42.7845C27.7068 42.4958 27.6723 42.0348 27.673 41.5944C27.6737 41.154 27.7098 40.6899 27.7916 40.3954L28.2734 40.5292C28.2102 40.7567 28.1737 41.1656 28.173 41.5953C28.1723 42.025 28.2074 42.4311 28.2679 42.6529L27.7855 42.7845ZM27.7913 40.3964C28.2358 38.7706 29.442 37.4587 31.0003 36.9087L31.1667 37.3802C29.7668 37.8743 28.676 39.0566 28.2736 40.5282L27.7913 40.3964ZM30.9989 36.9092C31.6953 36.6587 32.714 36.5532 33.3544 36.6662L33.2675 37.1586C32.7245 37.0628 31.7943 37.1545 31.1681 37.3797L30.9989 36.9092ZM28.5255 19.134L28.2923 18.6917L28.2929 18.6914L28.5255 19.134ZM27.8585 20.0795L27.3634 20.0088L27.3648 19.9999L27.8585 20.0795ZM27.9165 20.9843L27.4223 21.0602L27.422 21.0582L27.9165 20.9843ZM35.2483 29.1282L35.127 29.6133L35.1258 29.613L35.2483 29.1282ZM35.6659 29.2326L35.7872 28.7475L36.1659 28.8422V29.2326H35.6659ZM35.0742 36.489L35.2878 36.0369L35.2909 36.0384L35.0742 36.489ZM30.2309 36.489L30.4444 36.9411L30.4432 36.9417L30.2309 36.489ZM28.7575 37.4925L29.1007 37.8561L29.0994 37.8574L28.7575 37.4925ZM27.5394 39.1572L27.0888 38.9406L27.0892 38.9397L27.5394 39.1572ZM27.5394 44.0876L27.9896 43.87L27.9897 43.8702L27.5394 44.0876ZM29.7552 46.5296L29.4775 46.9454L29.4769 46.9449L29.7552 46.5296ZM34.7262 48.5307L34.8154 48.0388L34.8169 48.039L34.7262 48.5307ZM38.6879 48.612L38.6233 48.1162L38.6254 48.1159L38.6879 48.612ZM44.1984 46.5644L43.9227 46.1472L43.923 46.147L44.1984 46.5644ZM46.4606 44.0876L46.0093 43.8722L46.0104 43.8701L46.4606 44.0876ZM46.4896 39.2094L46.9414 38.9954L46.9418 38.996L46.4896 39.2094ZM45.4803 37.7303L45.1186 38.0755L45.1143 38.071L45.4803 37.7303ZM43.9606 36.576L44.1848 36.1291L44.186 36.1297L43.9606 36.576ZM38.891 36.5064L38.6673 36.0592L38.672 36.0569L38.891 36.5064ZM38.3341 36.7848L38.5577 37.232L37.8341 37.5938V36.7848H38.3341ZM38.3341 29.221H37.8341V28.8015L38.2472 28.7286L38.3341 29.221ZM38.5313 29.1862L38.6241 29.6776L38.6182 29.6786L38.5313 29.1862ZM41.855 27.6897L41.5747 27.2756L41.5769 27.2741L41.855 27.6897ZM44.2912 25.3231L43.8839 25.0331L43.8843 25.0325L44.2912 25.3231ZM46.0835 20.9843L46.578 21.0587L46.5775 21.0618L46.0835 20.9843ZM45.9153 19.54L46.328 19.2577L46.3303 19.2612L45.9153 19.54ZM43.7691 19.1224L43.8686 19.6124L43.868 19.6125L43.7691 19.1224ZM37.3074 23.4959L36.8852 23.2282L36.8867 23.2257L37.3074 23.4959ZM36.6926 23.4959L37.1131 23.2254L37.1148 23.2282L36.6926 23.4959ZM34.094 20.7813L33.8022 21.1874L33.8022 21.1874L34.094 20.7813ZM28.7587 19.5763C28.6872 19.614 28.5906 19.698 28.5033 19.8223C28.4165 19.9459 28.3664 20.0704 28.3521 20.1591L27.3648 19.9999C27.4085 19.7289 27.5324 19.4648 27.6849 19.2476C27.8369 19.0312 28.0449 18.8222 28.2923 18.6917L28.7587 19.5763ZM28.3534 20.1502C28.3417 20.2324 28.3528 20.5204 28.411 20.9105L27.422 21.0582C27.3642 20.671 27.3288 20.2514 27.3635 20.0088L28.3534 20.1502ZM28.4107 20.9085C28.873 23.9193 30.8126 26.5718 33.5693 27.9501L33.1221 28.8446C30.0783 27.3227 27.9344 24.3951 27.4223 21.0602L28.4107 20.9085ZM33.5693 27.9501C34.1592 28.2451 34.8618 28.5149 35.3707 28.6434L35.1258 29.613C34.5326 29.4631 33.7619 29.1644 33.1221 28.8446L33.5693 27.9501ZM35.3695 28.6431L35.7872 28.7475L35.5446 29.7177L35.127 29.6133L35.3695 28.6431ZM36.1659 29.2326V32.9913H35.1659V29.2326H36.1659ZM36.1659 32.9913C36.1659 34.0246 36.163 34.9654 36.1586 35.6482C36.1565 35.9894 36.1539 36.2672 36.1512 36.4602C36.1498 36.5563 36.1483 36.6334 36.1468 36.6874C36.1461 36.7136 36.1452 36.7384 36.1441 36.7584C36.1436 36.7669 36.1427 36.7829 36.1407 36.8002C36.1401 36.8061 36.1376 36.8288 36.1315 36.8564C36.1293 36.8663 36.1209 36.905 36.1007 36.9509C36.0915 36.9719 36.067 37.0246 36.0185 37.0798C35.9729 37.1318 35.8475 37.25 35.6427 37.25V36.25C35.438 36.25 35.3126 36.3682 35.2671 36.42C35.2187 36.4751 35.1944 36.5277 35.1853 36.5485C35.1652 36.594 35.157 36.6321 35.155 36.6411C35.1492 36.6671 35.1471 36.6874 35.1468 36.69C35.1456 36.7008 35.1454 36.7069 35.1456 36.7026C35.146 36.6968 35.1465 36.6831 35.1472 36.659C35.1485 36.6123 35.1499 36.5409 35.1513 36.446C35.154 36.2569 35.1565 35.9821 35.1587 35.6418C35.163 34.9616 35.1659 34.023 35.1659 32.9913H36.1659ZM35.6427 37.25C35.5694 37.25 35.5115 37.2326 35.511 37.2325C35.4948 37.2282 35.4819 37.2238 35.4755 37.2216C35.4617 37.2169 35.4496 37.2121 35.4423 37.2093C35.4266 37.203 35.409 37.1955 35.3923 37.1883C35.3577 37.1732 35.3119 37.1527 35.2591 37.1285C35.1529 37.0799 35.0108 37.0133 34.8576 36.9396L35.2909 36.0384C35.4393 36.1097 35.5756 36.1736 35.6753 36.2192C35.7255 36.2422 35.7646 36.2597 35.7905 36.271C35.804 36.2768 35.8107 36.2796 35.8123 36.2802C35.8137 36.2808 35.8086 36.2787 35.7999 36.2757C35.7961 36.2744 35.7853 36.2707 35.7708 36.2668C35.7635 36.2649 35.7507 36.2616 35.7344 36.2585C35.722 36.2562 35.6875 36.25 35.6427 36.25V37.25ZM34.8607 36.9411C34.0988 36.5813 33.5986 36.4727 32.6497 36.4727V35.4727C33.7309 35.4727 34.3791 35.6078 35.2877 36.0369L34.8607 36.9411ZM32.6497 36.4727C31.7123 36.4727 31.2063 36.5813 30.4444 36.9411L30.0174 36.0369C30.926 35.6078 31.58 35.4727 32.6497 35.4727V36.4727ZM30.4432 36.9417C29.8368 37.2261 29.5792 37.4045 29.1007 37.8561L28.4143 37.1288C28.9684 36.6059 29.314 36.3668 30.0185 36.0363L30.4432 36.9417ZM29.0994 37.8574C28.5948 38.33 28.2945 38.7436 27.9897 39.3747L27.0892 38.9397C27.4456 38.2019 27.8182 37.6874 28.4157 37.1276L29.0994 37.8574ZM27.9901 39.3738C27.7839 39.803 27.6666 40.1123 27.5969 40.4268C27.527 40.7427 27.5 41.0873 27.5 41.5934H26.5C26.5 41.0554 26.5281 40.6285 26.6206 40.2107C26.7134 39.7914 26.8658 39.4047 27.0888 38.9406L27.9901 39.3738ZM27.5 41.5934C27.5 42.1073 27.5283 42.4725 27.5998 42.8051C27.6707 43.1351 27.7887 43.4543 27.9896 43.87L27.0893 44.3052C26.8668 43.845 26.715 43.4478 26.6221 43.0151C26.5297 42.5849 26.5 42.141 26.5 41.5934H27.5ZM27.9897 43.8702C28.4319 44.7862 29.0038 45.4241 30.0336 46.1142L29.4769 46.9449C28.3256 46.1734 27.6214 45.4075 27.0892 44.305L27.9897 43.8702ZM30.0329 46.1138C31.4603 47.0672 33.0898 47.726 34.8154 48.0388L34.6371 49.0227C32.778 48.6858 31.02 47.9757 29.4775 46.9454L30.0329 46.1138ZM34.8169 48.039C35.7365 48.2087 37.6038 48.2491 38.6233 48.1162L38.7526 49.1078C37.6375 49.2532 35.6649 49.2124 34.6355 49.0224L34.8169 48.039ZM38.6254 48.1159C40.4801 47.882 42.3447 47.19 43.9227 46.1472L44.474 46.9815C42.769 48.1082 40.7589 48.8547 38.7505 49.108L38.6254 48.1159ZM43.923 46.147C44.9698 45.4565 45.5682 44.7964 46.0093 43.8722L46.9118 44.303C46.3784 45.4205 45.6427 46.2106 44.4737 46.9818L43.923 46.147ZM46.0104 43.8701C46.3921 43.0801 46.5 42.5813 46.5 41.6224H47.5C47.5 42.7168 47.3643 43.3665 46.9108 44.3051L46.0104 43.8701ZM46.5 41.6224C46.5 40.6783 46.391 40.1723 46.0374 39.4228L46.9418 38.996C47.3653 39.8938 47.5 40.5479 47.5 41.6224H46.5ZM46.0377 39.4234C45.7462 38.8081 45.5672 38.5455 45.1186 38.0755L45.842 37.385C46.3678 37.936 46.6065 38.2882 46.9414 38.9954L46.0377 39.4234ZM45.1143 38.071C44.683 37.6077 44.2429 37.2788 43.7351 37.0223L44.186 36.1297C44.8035 36.4417 45.3379 36.8436 45.8462 37.3896L45.1143 38.071ZM43.7363 37.0229C42.2523 36.2782 40.5368 36.2609 39.1099 36.9559L38.672 36.0569C40.3889 35.2206 42.4322 35.2497 44.1848 36.1291L43.7363 37.0229ZM39.1146 36.9536L38.5577 37.232L38.1105 36.3376L38.6673 36.0592L39.1146 36.9536ZM37.8341 36.7848V33.0029H38.8341V36.7848H37.8341ZM37.8341 33.0029V29.221H38.8341V33.0029H37.8341ZM38.2472 28.7286L38.4444 28.6938L38.6182 29.6786L38.421 29.7134L38.2472 28.7286ZM38.4386 28.6949C38.7953 28.6275 39.3461 28.4333 39.9421 28.1648C40.5319 27.8991 41.1288 27.5774 41.5747 27.2756L42.1352 28.1038C41.6299 28.4458 40.9797 28.7941 40.3529 29.0765C39.7323 29.3561 39.0968 29.5883 38.6241 29.6775L38.4386 28.6949ZM41.5769 27.2741C42.2803 26.8034 43.4025 25.7092 43.8839 25.0331L44.6985 25.6131C44.1474 26.3871 42.9378 27.5667 42.1331 28.1052L41.5769 27.2741ZM43.8843 25.0325C44.7974 23.7541 45.3583 22.3825 45.5896 20.9069L46.5775 21.0618C46.3215 22.6953 45.6991 24.2123 44.6981 25.6137L43.8843 25.0325ZM45.5891 20.91C45.6461 20.5309 45.657 20.3181 45.6398 20.1699C45.6253 20.0452 45.5895 19.9516 45.5003 19.8189L46.3303 19.2612C46.4906 19.4997 46.5968 19.7425 46.6331 20.0543C46.6666 20.3425 46.637 20.6663 46.578 21.0587L45.5891 20.91ZM45.5027 19.8224C45.3842 19.6492 45.2589 19.5635 45.0557 19.524C44.8161 19.4774 44.4532 19.4938 43.8686 19.6124L43.6697 18.6324C44.2857 18.5074 44.8075 18.457 45.2465 18.5424C45.722 18.6348 46.0694 18.8798 46.328 19.2577L45.5027 19.8224ZM43.868 19.6125C41.3525 20.12 39.0802 21.6611 37.7281 23.7662L36.8867 23.2257C38.3885 20.8877 40.8958 19.192 43.6703 18.6323L43.868 19.6125ZM37.7297 23.7637C37.6501 23.8892 37.5721 24.0048 37.5095 24.0918C37.479 24.1343 37.4479 24.1757 37.42 24.2096C37.4072 24.2251 37.3872 24.2487 37.3635 24.2721C37.3527 24.2828 37.3297 24.3049 37.2983 24.3277C37.2826 24.3391 37.2544 24.3583 37.2164 24.3763C37.1845 24.3915 37.1062 24.4252 37 24.4252V23.4252C36.9442 23.4252 36.8981 23.4346 36.8658 23.4437C36.8329 23.4529 36.8065 23.464 36.7876 23.4729C36.7511 23.4902 36.7247 23.5083 36.711 23.5183C36.6836 23.5382 36.6656 23.5559 36.6606 23.5608C36.6484 23.5729 36.6433 23.5796 36.6483 23.5735C36.6561 23.5641 36.6726 23.5428 36.6978 23.5077C36.7469 23.4395 36.8139 23.3405 36.8852 23.2282L37.7297 23.7637ZM37 24.4252C36.8938 24.4252 36.8155 24.3915 36.7836 24.3763C36.7456 24.3583 36.7174 24.3391 36.7017 24.3277C36.6703 24.3049 36.6473 24.2828 36.6365 24.2721C36.6128 24.2487 36.5928 24.2251 36.58 24.2096C36.5521 24.1757 36.521 24.1343 36.4905 24.0918C36.4279 24.0048 36.3499 23.8892 36.2703 23.7637L37.1148 23.2282C37.1861 23.3405 37.2531 23.4395 37.3022 23.5077C37.3274 23.5428 37.3439 23.5641 37.3517 23.5735C37.3567 23.5796 37.3516 23.5729 37.3394 23.5608C37.3344 23.5559 37.3164 23.5382 37.289 23.5183C37.2753 23.5083 37.2489 23.4902 37.2124 23.4729C37.1935 23.464 37.1671 23.4529 37.1342 23.4437C37.1019 23.4346 37.0558 23.4252 37 23.4252V24.4252ZM36.2721 23.7664C35.6692 22.8293 34.7623 21.8771 33.8022 21.1874L34.3857 20.3753C35.4442 21.1357 36.4398 22.1788 37.1131 23.2254L36.2721 23.7664ZM33.8022 21.1874C32.9803 20.5968 31.8676 20.088 30.8502 19.7867C30.3428 19.6364 29.8748 19.5425 29.4916 19.5122C29.0876 19.4802 28.8548 19.5258 28.7582 19.5766L28.2929 18.6914C28.6487 18.5044 29.1192 18.4796 29.5704 18.5153C30.0424 18.5526 30.5815 18.6642 31.1342 18.8279C32.2368 19.1544 33.4559 19.7071 34.3857 20.3753L33.8022 21.1874Z" fill="#4D0000" mask="url(#path-4-outside-1_6356_46275)"/>
</svg>
