<svg width="72" height="72" viewBox="0 0 72 72" fill="none" xmlns="http://www.w3.org/2000/svg">
<path d="M29.887 4.07675C27.9495 4.40174 25.9246 5.37672 24.5871 6.62668L23.6622 7.48916H19.9123C15.8249 7.48916 15.2624 7.55166 14.0874 8.13914C12.675 8.85162 11.4875 10.3891 11.15 11.964C10.95 12.9015 10.95 62.5751 11.15 63.5126C11.35 64.4376 11.925 65.5376 12.5875 66.2375C13.2374 66.925 14.5249 67.65 15.4874 67.85C16.4249 68.05 56.3488 68.05 57.2862 67.85C59.4112 67.4 61.1736 65.6251 61.6236 63.5126C61.8236 62.5626 61.8236 12.9015 61.6236 11.964C61.1736 9.85159 59.3862 8.06414 57.2862 7.62666C56.8862 7.53916 55.1363 7.48916 52.8614 7.48916H49.099L48.2615 6.68918C47.3115 5.8017 46.3615 5.18922 45.0866 4.68924C43.4491 4.02675 42.8991 3.98926 36.2868 4.00175C32.9369 4.01425 30.062 4.05175 29.887 4.07675ZM42.8741 7.92665C43.3116 8.03914 44.0241 8.30164 44.4366 8.51413C45.6865 9.17661 47.0865 10.7641 47.449 11.9515L47.524 12.239H36.3868H25.2496L25.3246 11.9515C25.5371 11.2891 26.1246 10.3766 26.8371 9.6516C27.662 8.81412 28.962 8.07664 30.0245 7.87665C30.3245 7.81415 33.1619 7.76415 36.3243 7.75165C41.0492 7.73915 42.2116 7.77665 42.8741 7.92665ZM21.4247 12.0765C21.3247 12.5515 21.2622 13.3765 21.2872 13.9515C21.3247 15.0515 21.5247 15.4139 22.2872 15.8139C22.7872 16.0764 49.9864 16.0764 50.4864 15.8139C51.2489 15.4139 51.4489 15.0515 51.4864 13.9515C51.5114 13.3765 51.4489 12.5515 51.3489 12.0765L51.1739 11.2391H53.8113C56.8362 11.2391 57.2362 11.3391 57.7362 12.2265L58.0112 12.714V37.7383V62.7626L57.7487 63.2376C57.5987 63.5001 57.2737 63.8251 57.0112 63.9751L56.5362 64.2376H36.3868H16.2374L15.7624 63.9751C15.4999 63.8251 15.1749 63.5001 15.0249 63.2376L14.7624 62.7626V37.7383V12.714L15.0374 12.2265C15.5374 11.3391 15.9249 11.2391 18.9623 11.2391H21.5997L21.4247 12.0765Z" fill="#4D0000"/>
<path d="M42.8741 7.92665C43.3116 8.03914 44.0241 8.30164 44.4366 8.51413C45.6865 9.17661 47.0865 10.7641 47.449 11.9515L47.524 12.239H36.3868H25.2496L25.3246 11.9515C25.5371 11.2891 26.1246 10.3766 26.8371 9.6516C27.662 8.81412 28.962 8.07664 30.0245 7.87665C30.3245 7.81415 33.1619 7.76415 36.3243 7.75165C41.0492 7.73915 42.2116 7.77665 42.8741 7.92665Z" fill="#E60000"/>
<path d="M28.3252 51.5506C28.2627 51.5756 28.0377 51.6256 27.8377 51.6756C27.6002 51.7256 26.9252 52.2881 25.9378 53.2631L24.4003 54.7755L23.9378 54.363C23.4253 53.913 22.7879 53.6131 22.3629 53.6131C21.8379 53.6131 21.0754 54.088 20.7879 54.6005C20.2004 55.6505 20.4504 56.263 22.1754 57.9629C23.5503 59.3129 23.8878 59.4879 24.8628 59.3004C25.2503 59.2254 25.6878 58.8504 27.6127 56.9505C28.8752 55.7005 30.0002 54.5005 30.1002 54.3005C30.5376 53.4756 30.2252 52.2881 29.4502 51.8506C29.0502 51.6256 28.5252 51.4881 28.3252 51.5506Z" fill="#4D0000"/>
<path d="M34.0246 52.9246C33.4121 53.1996 33.0371 53.8246 33.0371 54.5871C33.0371 55.287 33.2621 55.712 33.8996 56.1745C34.2371 56.437 34.3621 56.437 42.4119 56.437C50.4616 56.437 50.5866 56.437 50.9241 56.1745C51.5616 55.712 51.7866 55.287 51.7866 54.5871C51.7866 53.8121 51.4116 53.1871 50.7741 52.9246C50.1741 52.6746 34.5996 52.6746 34.0246 52.9246Z" fill="#4D0000"/>
<mask id="path-4-outside-1_6356_46283" maskUnits="userSpaceOnUse" x="27" y="19.106" width="20" height="29" fill="black">
<rect fill="white" x="27" y="19.106" width="20" height="29"/>
<path d="M29.8 20.1218C29.6994 20.1854 29.5724 20.323 29.5141 20.4236C29.4082 20.5983 29.4029 20.6883 29.4029 22.3295C29.4082 24.1507 29.4347 24.4524 29.6676 25.2677C30.2288 27.1948 31.7588 28.7989 33.6753 29.4713C34.2894 29.683 34.8347 29.7836 35.6712 29.826L36.3647 29.863V30.3818V30.9007L32.4894 30.9165L28.6088 30.9324L28.4076 31.0595C28.2965 31.123 28.1641 31.2713 28.1059 31.3877C28.0053 31.5783 28 31.7054 28 33.8813C28 36.1577 28.0053 36.1736 28.1218 36.3801C28.3018 36.703 28.5188 36.8036 29.0959 36.8248C29.5459 36.846 29.5935 36.8565 29.6147 36.9624C29.6306 37.0207 30.0118 39.1913 30.4671 41.7854C30.9171 44.3742 31.3247 46.5713 31.3724 46.6718C31.42 46.7671 31.5418 46.9048 31.6476 46.9789L31.8382 47.106H37H42.1618L42.3524 46.9789C42.4582 46.9048 42.58 46.7671 42.6276 46.6718C42.6753 46.5713 43.0829 44.3742 43.5329 41.7854C43.9882 39.1913 44.3694 37.0207 44.3853 36.9624C44.4065 36.8565 44.4541 36.846 44.9041 36.8248C45.4812 36.8036 45.6982 36.703 45.8782 36.3801C45.9947 36.1736 46 36.1577 46 33.8813C46 31.7054 45.9947 31.5783 45.8941 31.3877C45.8359 31.2713 45.7035 31.123 45.5924 31.0595L45.3912 30.9324L41.7541 30.9165L38.1118 30.9007V30.1383V29.3707H38.7259C40.2612 29.3707 41.5582 28.8465 42.5906 27.8142C43.0988 27.3007 43.3688 26.9301 43.6547 26.3424C44.0835 25.4583 44.2212 24.5583 44.1894 22.7795C44.1735 21.7313 44.1682 21.6571 44.0518 21.4718C43.84 21.133 43.6018 21.0589 42.7388 21.0589C41.8971 21.0589 41.1876 21.1277 40.7376 21.2442C39.6259 21.5354 38.5035 22.303 37.8153 23.2454C37.6829 23.4254 37.5665 23.5789 37.5559 23.5895C37.5506 23.5948 37.4394 23.4307 37.3176 23.2189C36.4812 21.8001 35.2582 20.7942 33.7653 20.2965C33.0612 20.0583 32.5424 20.0001 31.2029 20.0001C30.0171 20.0001 29.9694 20.0054 29.8 20.1218ZM32.7329 21.8265C34.2206 22.1336 35.5335 23.2665 36.1053 24.733C36.3435 25.3418 36.4176 25.9136 36.4176 27.0836V28.116L35.7453 28.0842C34.9671 28.0524 34.4218 27.9307 33.8288 27.6501C32.5688 27.0518 31.6424 25.9295 31.2718 24.5636C31.1818 24.2248 31.1606 23.9495 31.1394 22.9171L31.1129 21.6783L31.7165 21.7101C32.05 21.726 32.5053 21.7789 32.7329 21.8265ZM42.4424 23.743C42.4159 24.5213 42.3947 24.7489 42.2941 25.056C41.8176 26.5754 40.42 27.6183 38.8688 27.6236H38.4824V27.0783C38.4876 25.5007 38.7629 24.7013 39.5941 23.8595C40.2506 23.1977 41.1453 22.8218 42.0771 22.8113L42.4635 22.806L42.4424 23.743ZM44.2529 33.8707V35.0883H37H29.7471V33.8707V32.653H37H44.2529V33.8707ZM42.6118 36.9095C42.6118 36.9836 41.2088 45.0413 41.1559 45.2954L41.1294 45.4118H37H32.8706L32.8441 45.2954C32.7912 45.0413 31.3882 36.9836 31.3882 36.9095C31.3882 36.846 32.1771 36.8354 37 36.8354C41.8229 36.8354 42.6118 36.846 42.6118 36.9095Z"/>
<path d="M44.2529 33.8707V35.0883H37H29.7471V33.8707V32.653H37H44.2529V33.8707Z"/>
<path d="M42.6118 36.9095C42.6118 36.9836 41.2088 45.0413 41.1559 45.2954L41.1294 45.4118H37H32.8706L32.8441 45.2954C32.7912 45.0413 31.3882 36.9836 31.3882 36.9095C31.3882 36.846 32.1771 36.8354 37 36.8354C41.8229 36.8354 42.6118 36.846 42.6118 36.9095Z"/>
<path d="M32.7329 21.8265C34.2206 22.1336 35.5335 23.2665 36.1053 24.733C36.3435 25.3418 36.4176 25.9136 36.4176 27.0836V28.116L35.7453 28.0842C34.9671 28.0524 34.4218 27.9307 33.8288 27.6501C32.5688 27.0518 31.6424 25.9295 31.2718 24.5636C31.1818 24.2248 31.1606 23.9495 31.1394 22.9171L31.1129 21.6783L31.7165 21.7101C32.05 21.726 32.5053 21.7789 32.7329 21.8265Z"/>
<path d="M42.4424 23.743C42.4159 24.5213 42.3947 24.7489 42.2941 25.056C41.8176 26.5754 40.42 27.6183 38.8688 27.6236H38.4824V27.0783C38.4876 25.5007 38.7629 24.7013 39.5941 23.8595C40.2506 23.1977 41.1453 22.8218 42.0771 22.8113L42.4635 22.806L42.4424 23.743Z"/>
</mask>
<path d="M29.8 20.1218C29.6994 20.1854 29.5724 20.323 29.5141 20.4236C29.4082 20.5983 29.4029 20.6883 29.4029 22.3295C29.4082 24.1507 29.4347 24.4524 29.6676 25.2677C30.2288 27.1948 31.7588 28.7989 33.6753 29.4713C34.2894 29.683 34.8347 29.7836 35.6712 29.826L36.3647 29.863V30.3818V30.9007L32.4894 30.9165L28.6088 30.9324L28.4076 31.0595C28.2965 31.123 28.1641 31.2713 28.1059 31.3877C28.0053 31.5783 28 31.7054 28 33.8813C28 36.1577 28.0053 36.1736 28.1218 36.3801C28.3018 36.703 28.5188 36.8036 29.0959 36.8248C29.5459 36.846 29.5935 36.8565 29.6147 36.9624C29.6306 37.0207 30.0118 39.1913 30.4671 41.7854C30.9171 44.3742 31.3247 46.5713 31.3724 46.6718C31.42 46.7671 31.5418 46.9048 31.6476 46.9789L31.8382 47.106H37H42.1618L42.3524 46.9789C42.4582 46.9048 42.58 46.7671 42.6276 46.6718C42.6753 46.5713 43.0829 44.3742 43.5329 41.7854C43.9882 39.1913 44.3694 37.0207 44.3853 36.9624C44.4065 36.8565 44.4541 36.846 44.9041 36.8248C45.4812 36.8036 45.6982 36.703 45.8782 36.3801C45.9947 36.1736 46 36.1577 46 33.8813C46 31.7054 45.9947 31.5783 45.8941 31.3877C45.8359 31.2713 45.7035 31.123 45.5924 31.0595L45.3912 30.9324L41.7541 30.9165L38.1118 30.9007V30.1383V29.3707H38.7259C40.2612 29.3707 41.5582 28.8465 42.5906 27.8142C43.0988 27.3007 43.3688 26.9301 43.6547 26.3424C44.0835 25.4583 44.2212 24.5583 44.1894 22.7795C44.1735 21.7313 44.1682 21.6571 44.0518 21.4718C43.84 21.133 43.6018 21.0589 42.7388 21.0589C41.8971 21.0589 41.1876 21.1277 40.7376 21.2442C39.6259 21.5354 38.5035 22.303 37.8153 23.2454C37.6829 23.4254 37.5665 23.5789 37.5559 23.5895C37.5506 23.5948 37.4394 23.4307 37.3176 23.2189C36.4812 21.8001 35.2582 20.7942 33.7653 20.2965C33.0612 20.0583 32.5424 20.0001 31.2029 20.0001C30.0171 20.0001 29.9694 20.0054 29.8 20.1218ZM32.7329 21.8265C34.2206 22.1336 35.5335 23.2665 36.1053 24.733C36.3435 25.3418 36.4176 25.9136 36.4176 27.0836V28.116L35.7453 28.0842C34.9671 28.0524 34.4218 27.9307 33.8288 27.6501C32.5688 27.0518 31.6424 25.9295 31.2718 24.5636C31.1818 24.2248 31.1606 23.9495 31.1394 22.9171L31.1129 21.6783L31.7165 21.7101C32.05 21.726 32.5053 21.7789 32.7329 21.8265ZM42.4424 23.743C42.4159 24.5213 42.3947 24.7489 42.2941 25.056C41.8176 26.5754 40.42 27.6183 38.8688 27.6236H38.4824V27.0783C38.4876 25.5007 38.7629 24.7013 39.5941 23.8595C40.2506 23.1977 41.1453 22.8218 42.0771 22.8113L42.4635 22.806L42.4424 23.743ZM44.2529 33.8707V35.0883H37H29.7471V33.8707V32.653H37H44.2529V33.8707ZM42.6118 36.9095C42.6118 36.9836 41.2088 45.0413 41.1559 45.2954L41.1294 45.4118H37H32.8706L32.8441 45.2954C32.7912 45.0413 31.3882 36.9836 31.3882 36.9095C31.3882 36.846 32.1771 36.8354 37 36.8354C41.8229 36.8354 42.6118 36.846 42.6118 36.9095Z" fill="#4D0000"/>
<path d="M44.2529 33.8707V35.0883H37H29.7471V33.8707V32.653H37H44.2529V33.8707Z" fill="#FFCDCD"/>
<path d="M42.6118 36.9095C42.6118 36.9836 41.2088 45.0413 41.1559 45.2954L41.1294 45.4118H37H32.8706L32.8441 45.2954C32.7912 45.0413 31.3882 36.9836 31.3882 36.9095C31.3882 36.846 32.1771 36.8354 37 36.8354C41.8229 36.8354 42.6118 36.846 42.6118 36.9095Z" fill="#FFCDCD"/>
<path d="M32.7329 21.8265C34.2206 22.1336 35.5335 23.2665 36.1053 24.733C36.3435 25.3418 36.4176 25.9136 36.4176 27.0836V28.116L35.7453 28.0842C34.9671 28.0524 34.4218 27.9307 33.8288 27.6501C32.5688 27.0518 31.6424 25.9295 31.2718 24.5636C31.1818 24.2248 31.1606 23.9495 31.1394 22.9171L31.1129 21.6783L31.7165 21.7101C32.05 21.726 32.5053 21.7789 32.7329 21.8265Z" fill="#FFCDCD"/>
<path d="M42.4424 23.743C42.4159 24.5213 42.3947 24.7489 42.2941 25.056C41.8176 26.5754 40.42 27.6183 38.8688 27.6236H38.4824V27.0783C38.4876 25.5007 38.7629 24.7013 39.5941 23.8595C40.2506 23.1977 41.1453 22.8218 42.0771 22.8113L42.4635 22.806L42.4424 23.743Z" fill="#FFCDCD"/>
<path d="M32.7329 21.8265L32.6875 22.0469L32.6868 22.0468L32.7329 21.8265ZM36.1053 24.733L35.8958 24.815L35.8957 24.8147L36.1053 24.733ZM36.4176 28.116H36.6426V28.3518L36.407 28.3407L36.4176 28.116ZM35.7453 28.0842L35.7545 27.8594L35.7559 27.8594L35.7453 28.0842ZM33.8288 27.6501L33.7326 27.8535L33.7323 27.8533L33.8288 27.6501ZM31.2718 24.5636L31.0546 24.6225L31.0543 24.6214L31.2718 24.5636ZM31.1394 22.9171L31.3644 22.9123L31.3644 22.9125L31.1394 22.9171ZM31.1129 21.6783L30.888 21.6831L30.8828 21.4409L31.1248 21.4536L31.1129 21.6783ZM31.7165 21.7101L31.7058 21.9348L31.7046 21.9348L31.7165 21.7101ZM42.4424 23.743L42.6673 23.7481L42.6672 23.7507L42.4424 23.743ZM42.2941 25.056L42.0794 24.9886L42.0803 24.9859L42.2941 25.056ZM38.8688 27.6236L38.8696 27.8486H38.8688V27.6236ZM38.4824 27.6236V27.8486H38.2574V27.6236H38.4824ZM38.4824 27.0783L38.2574 27.0783L38.2574 27.0776L38.4824 27.0783ZM39.5941 23.8595L39.434 23.7014L39.4344 23.701L39.5941 23.8595ZM42.0771 22.8113L42.0801 23.0362L42.0796 23.0362L42.0771 22.8113ZM42.4635 22.806L42.4604 22.581L42.6937 22.5778L42.6885 22.811L42.4635 22.806ZM44.2529 35.0883H44.4779V35.3133H44.2529V35.0883ZM29.7471 35.0883V35.3133H29.5221V35.0883H29.7471ZM29.7471 32.653H29.5221V32.428H29.7471V32.653ZM44.2529 32.653V32.428H44.4779V32.653H44.2529ZM41.1559 45.2954L41.3762 45.3413L41.3753 45.3452L41.1559 45.2954ZM41.1294 45.4118L41.3488 45.4617L41.309 45.6368H41.1294V45.4118ZM32.8706 45.4118V45.6368H32.691L32.6512 45.4617L32.8706 45.4118ZM32.8441 45.2954L32.6247 45.3452L32.6238 45.3413L32.8441 45.2954ZM32.7784 21.6062C34.3441 21.9294 35.7167 23.1171 36.3149 24.6513L35.8957 24.8147C35.3503 23.416 34.0971 22.3378 32.6875 22.0469L32.7784 21.6062ZM36.3148 24.651C36.5685 25.2993 36.6426 25.9048 36.6426 27.0836H36.1926C36.1926 25.9224 36.1186 25.3843 35.8958 24.815L36.3148 24.651ZM36.6426 27.0836V28.116H36.1926V27.0836H36.6426ZM36.407 28.3407L35.7347 28.3089L35.7559 27.8594L36.4283 27.8912L36.407 28.3407ZM35.7361 28.309C34.9339 28.2763 34.3579 28.1494 33.7326 27.8535L33.9251 27.4467C34.4856 27.712 35.0002 27.8286 35.7545 27.8594L35.7361 28.309ZM33.7323 27.8533C32.4115 27.2262 31.442 26.0503 31.0546 24.6225L31.4889 24.5047C31.8427 25.8087 32.7261 26.8775 33.9253 27.4468L33.7323 27.8533ZM31.0543 24.6214C30.9562 24.252 30.9355 23.9493 30.9145 22.9217L31.3644 22.9125C31.3856 23.9497 31.4073 24.1976 31.4892 24.5058L31.0543 24.6214ZM30.9145 22.9219L30.888 21.6831L31.3379 21.6735L31.3644 22.9123L30.9145 22.9219ZM31.1248 21.4536L31.7283 21.4854L31.7046 21.9348L31.1011 21.903L31.1248 21.4536ZM31.7272 21.4853C32.0686 21.5016 32.5364 21.5555 32.779 21.6063L32.6868 22.0468C32.4742 22.0023 32.0314 21.9503 31.7058 21.9348L31.7272 21.4853ZM42.6672 23.7507C42.6409 24.5256 42.6199 24.7842 42.5079 25.126L42.0803 24.9859C42.1695 24.7136 42.1909 24.5169 42.2175 23.7354L42.6672 23.7507ZM42.5088 25.1233C42.0038 26.7336 40.5216 27.843 38.8696 27.8486L38.8681 27.3986C40.3184 27.3937 41.6315 26.4171 42.0794 24.9886L42.5088 25.1233ZM38.8688 27.8486H38.4824V27.3986H38.8688V27.8486ZM38.2574 27.6236V27.0783H38.7074V27.6236H38.2574ZM38.2574 27.0776C38.26 26.278 38.3308 25.6555 38.5158 25.1195C38.7025 24.5788 39.0003 24.1406 39.434 23.7014L39.7542 24.0176C39.3568 24.4201 39.1013 24.8025 38.9412 25.2664C38.7795 25.7349 38.71 26.301 38.7074 27.0791L38.2574 27.0776ZM39.4344 23.701C40.1328 22.997 41.0841 22.5975 42.0745 22.5863L42.0796 23.0362C41.2065 23.0462 40.3684 23.3985 39.7539 24.0179L39.4344 23.701ZM42.074 22.5863L42.4604 22.581L42.4666 23.0309L42.0801 23.0362L42.074 22.5863ZM42.6885 22.811L42.6673 23.7481L42.2174 23.7379L42.2386 22.8009L42.6885 22.811ZM44.4779 33.8707V35.0883H44.0279V33.8707H44.4779ZM44.2529 35.3133H37V34.8633H44.2529V35.3133ZM37 35.3133H29.7471V34.8633H37V35.3133ZM29.5221 35.0883V33.8707H29.9721V35.0883H29.5221ZM29.5221 33.8707V32.653H29.9721V33.8707H29.5221ZM29.7471 32.428H37V32.878H29.7471V32.428ZM37 32.428H44.2529V32.878H37V32.428ZM44.4779 32.653V33.8707H44.0279V32.653H44.4779ZM42.8368 36.9095C42.8368 36.9241 42.8352 36.9368 42.8352 36.9373C42.8347 36.9414 42.8342 36.9455 42.8337 36.9489C42.8328 36.9557 42.8316 36.9641 42.8302 36.9732C42.8273 36.9918 42.8232 37.0175 42.8181 37.0493C42.8077 37.1131 42.7925 37.204 42.7732 37.3181C42.7347 37.5464 42.6797 37.8685 42.6135 38.2534C42.4811 39.0234 42.304 40.0457 42.1254 41.0735C41.7687 43.1249 41.4036 45.2093 41.3762 45.3413L40.9356 45.2495C40.9611 45.1273 41.3239 43.0559 41.682 40.9964C41.8607 39.9687 42.0377 38.9468 42.17 38.1772C42.2361 37.7924 42.2911 37.4708 42.3295 37.2432C42.3487 37.1294 42.3637 37.0394 42.3739 36.9769C42.379 36.9456 42.3828 36.9217 42.3853 36.9054C42.3866 36.8972 42.3873 36.8918 42.3878 36.8886C42.3893 36.877 42.3868 36.8919 42.3868 36.9095H42.8368ZM41.3753 45.3452L41.3488 45.4617L40.91 45.362L40.9365 45.2455L41.3753 45.3452ZM41.1294 45.6368H37V45.1868H41.1294V45.6368ZM37 45.6368H32.8706V45.1868H37V45.6368ZM32.6512 45.4617L32.6247 45.3452L33.0635 45.2455L33.09 45.362L32.6512 45.4617ZM32.6238 45.3413C32.5964 45.2093 32.2313 43.1249 31.8746 41.0735C31.696 40.0457 31.5189 39.0234 31.3865 38.2534C31.3203 37.8685 31.2653 37.5464 31.2268 37.3181C31.2075 37.204 31.1923 37.1131 31.1819 37.0493C31.1768 37.0175 31.1727 36.9918 31.1698 36.9732C31.1684 36.9641 31.1672 36.9557 31.1663 36.9489C31.1658 36.9455 31.1653 36.9414 31.1648 36.9373C31.1648 36.9368 31.1632 36.9241 31.1632 36.9095H31.6132C31.6132 36.8919 31.6107 36.877 31.6122 36.8886C31.6127 36.8918 31.6134 36.8972 31.6147 36.9054C31.6172 36.9217 31.621 36.9456 31.6261 36.9769C31.6363 37.0394 31.6513 37.1294 31.6705 37.2432C31.7089 37.4708 31.7639 37.7924 31.83 38.1772C31.9623 38.9468 32.1393 39.9687 32.318 40.9964C32.6761 43.0559 33.0389 45.1273 33.0644 45.2495L32.6238 45.3413ZM31.1632 36.9095C31.1632 36.7705 31.273 36.7095 31.2956 36.698C31.3301 36.6803 31.3649 36.672 31.3863 36.6677C31.4332 36.658 31.4959 36.6517 31.5719 36.6466C31.7279 36.6362 31.9827 36.6289 32.3825 36.6236C33.1844 36.613 34.5891 36.6104 37 36.6104V37.0604C34.588 37.0604 33.1867 37.063 32.3885 37.0736C31.9883 37.0789 31.7444 37.0861 31.6018 37.0956C31.5285 37.1005 31.4918 37.1054 31.4768 37.1085C31.4672 37.1104 31.4803 37.109 31.501 37.0984C31.5096 37.094 31.6132 37.0406 31.6132 36.9095H31.1632ZM37 36.6104C39.4109 36.6104 40.8156 36.613 41.6175 36.6236C42.0173 36.6289 42.2721 36.6362 42.4281 36.6466C42.5041 36.6517 42.5668 36.658 42.6137 36.6677C42.6351 36.672 42.6699 36.6803 42.7044 36.698C42.727 36.7095 42.8368 36.7705 42.8368 36.9095H42.3868C42.3868 37.0406 42.4904 37.094 42.499 37.0984C42.5197 37.109 42.5328 37.1104 42.5232 37.1085C42.5082 37.1054 42.4715 37.1005 42.3982 37.0956C42.2556 37.0861 42.0117 37.0789 41.6115 37.0736C40.8133 37.063 39.412 37.0604 37 37.0604V36.6104ZM29.8 20.1218L30.0549 20.4927L30.0477 20.4976L30.0403 20.5023L29.8 20.1218ZM29.5141 20.4236L29.9036 20.6491L29.899 20.6568L29.5141 20.4236ZM29.4029 22.3295L28.9529 22.3308V22.3295H29.4029ZM29.6676 25.2677L29.2356 25.3935L29.235 25.3913L29.6676 25.2677ZM33.6753 29.4713L33.5286 29.8967L33.5263 29.8959L33.6753 29.4713ZM35.6712 29.826L35.6939 29.3765L35.6952 29.3766L35.6712 29.826ZM36.3647 29.863L36.3887 29.4137L36.8147 29.4364V29.863H36.3647ZM36.3647 30.9007H36.8147V31.3488L36.3666 31.3507L36.3647 30.9007ZM32.4894 30.9165L32.4913 31.3665L32.4913 31.3665L32.4894 30.9165ZM28.6088 30.9324L28.3685 30.552L28.4778 30.483L28.607 30.4824L28.6088 30.9324ZM28.4076 31.0595L28.6479 31.44L28.6395 31.4453L28.6309 31.4502L28.4076 31.0595ZM28.1059 31.3877L28.5085 31.589L28.5039 31.5978L28.1059 31.3877ZM28.1218 36.3801L28.5137 36.159L28.5148 36.161L28.1218 36.3801ZM29.0959 36.8248L29.1124 36.3751L29.117 36.3753L29.0959 36.8248ZM29.6147 36.9624L29.1806 37.0808L29.1765 37.0659L29.1734 37.0507L29.6147 36.9624ZM30.4671 41.7854L30.9103 41.7076L30.9104 41.7083L30.4671 41.7854ZM31.3724 46.6718L30.9698 46.8731L30.9657 46.8645L31.3724 46.6718ZM31.6476 46.9789L31.398 47.3534L31.3896 47.3476L31.6476 46.9789ZM31.8382 47.106V47.556H31.702L31.5886 47.4804L31.8382 47.106ZM42.1618 47.106L42.4114 47.4804L42.298 47.556H42.1618V47.106ZM42.3524 46.9789L42.6105 47.3476L42.602 47.3533L42.3524 46.9789ZM42.6276 46.6718L43.0344 46.8645L43.0301 46.8731L42.6276 46.6718ZM43.5329 41.7854L43.0896 41.7083L43.0897 41.7076L43.5329 41.7854ZM44.3853 36.9624L44.8266 37.0507L44.8235 37.0659L44.8194 37.0808L44.3853 36.9624ZM44.9041 36.8248L44.883 36.3753L44.8876 36.3751L44.9041 36.8248ZM45.8782 36.3801L45.4852 36.161L45.4863 36.159L45.8782 36.3801ZM45.8941 31.3877L45.496 31.5978L45.4916 31.589L45.8941 31.3877ZM45.5924 31.0595L45.3691 31.4502L45.3605 31.4453L45.3521 31.44L45.5924 31.0595ZM45.3912 30.9324L45.3931 30.4824L45.5223 30.483L45.6315 30.552L45.3912 30.9324ZM41.7541 30.9165L41.7561 30.4666L41.7561 30.4666L41.7541 30.9165ZM38.1118 30.9007L38.1098 31.3507L37.6618 31.3487V30.9007H38.1118ZM38.1118 29.3707H37.6618V28.9207H38.1118V29.3707ZM42.5906 27.8142L42.9104 28.1307L42.9088 28.1324L42.5906 27.8142ZM43.6547 26.3424L44.0596 26.5388L44.0594 26.5393L43.6547 26.3424ZM44.1894 22.7795L43.7395 22.7875L43.7395 22.7863L44.1894 22.7795ZM44.0518 21.4718L43.6708 21.7113L43.6702 21.7103L44.0518 21.4718ZM40.7376 21.2442L40.6236 20.8089L40.6249 20.8085L40.7376 21.2442ZM37.8153 23.2454L38.1787 23.5108L38.1778 23.5119L37.8153 23.2454ZM37.3176 23.2189L37.7053 22.9903L37.7078 22.9946L37.3176 23.2189ZM33.7653 20.2965L33.623 20.7235L33.6211 20.7228L33.7653 20.2965ZM30.0403 20.5023C30.0404 20.5022 30.0381 20.5037 30.0335 20.5072C30.0289 20.5107 30.0231 20.5154 30.0161 20.5215C30.0019 20.5338 29.9857 20.5494 29.9691 20.567C29.9329 20.6055 29.9103 20.6375 29.9036 20.6491L29.1247 20.1981C29.2156 20.041 29.3916 19.8475 29.5597 19.7414L30.0403 20.5023ZM29.899 20.6568C29.8847 20.6804 29.8876 20.6774 29.8873 20.6785C29.8834 20.6937 29.8748 20.7373 29.8681 20.8528C29.8545 21.0857 29.8529 21.5013 29.8529 22.3295H28.9529C28.9529 21.5165 28.9541 21.0665 28.9696 20.8004C28.9774 20.6664 28.99 20.5523 29.0168 20.4501C29.0473 20.3339 29.0906 20.2541 29.1293 20.1904L29.899 20.6568ZM29.8529 22.3282C29.8582 24.1445 29.8857 24.3928 30.1003 25.1441L29.235 25.3913C28.9837 24.5121 28.9583 24.1568 28.9529 22.3308L29.8529 22.3282ZM30.0997 25.1419C30.6197 26.9274 32.0428 28.4216 33.8243 29.0466L33.5263 29.8959C31.4749 29.1762 29.838 27.4621 29.2356 25.3935L30.0997 25.1419ZM33.822 29.0458C34.3885 29.2412 34.8908 29.3359 35.6939 29.3765L35.6484 30.2754C34.7786 30.2313 34.1903 30.1249 33.5286 29.8967L33.822 29.0458ZM35.6952 29.3766L36.3887 29.4137L36.3407 30.3124L35.6472 30.2753L35.6952 29.3766ZM36.8147 29.863V30.3818H35.9147V29.863H36.8147ZM36.8147 30.3818V30.9007H35.9147V30.3818H36.8147ZM36.3666 31.3507L32.4913 31.3665L32.4876 30.4665L36.3629 30.4507L36.3666 31.3507ZM32.4913 31.3665L28.6107 31.3824L28.607 30.4824L32.4876 30.4665L32.4913 31.3665ZM28.8491 31.3129L28.6479 31.44L28.1674 30.679L28.3685 30.552L28.8491 31.3129ZM28.6309 31.4502C28.6334 31.4488 28.6272 31.4521 28.6135 31.4638C28.6006 31.4748 28.5854 31.4895 28.5696 31.5068C28.5349 31.5449 28.5142 31.5773 28.5084 31.589L27.7034 31.1865C27.7558 31.0817 27.8304 30.9817 27.9043 30.9007C27.9768 30.821 28.0738 30.732 28.1844 30.6688L28.6309 31.4502ZM28.5039 31.5978C28.4935 31.6174 28.4922 31.6201 28.488 31.6406C28.4806 31.6776 28.4715 31.7506 28.4648 31.9091C28.4514 32.2245 28.45 32.7877 28.45 33.8813H27.55C27.55 32.7989 27.5512 32.2106 27.5656 31.8709C27.5728 31.7018 27.5839 31.5714 27.6058 31.4629C27.6309 31.338 27.668 31.2533 27.7079 31.1777L28.5039 31.5978ZM28.45 33.8813C28.45 35.0267 28.4515 35.5844 28.4666 35.8842C28.4742 36.0348 28.4843 36.0905 28.4896 36.1113C28.4908 36.1161 28.4872 36.1121 28.5137 36.159L27.7298 36.6012C27.6981 36.5449 27.6501 36.4614 27.6176 36.334C27.5892 36.2227 27.5761 36.0934 27.5678 35.9296C27.5512 35.6008 27.55 35.0123 27.55 33.8813H28.45ZM28.5148 36.161C28.5727 36.2648 28.609 36.2889 28.6472 36.3064C28.7114 36.3358 28.8349 36.3649 29.1124 36.3751L29.0794 37.2745C28.7798 37.2635 28.5063 37.2317 28.2726 37.1248C28.0131 37.0059 27.8508 36.8183 27.7287 36.5992L28.5148 36.161ZM29.117 36.3753C29.3181 36.3847 29.5019 36.393 29.63 36.4265C29.7072 36.4467 29.8259 36.49 29.9237 36.5995C30.02 36.7074 30.0462 36.8256 30.056 36.8742L29.1734 37.0507C29.1736 37.0514 29.1745 37.0559 29.1764 37.063C29.1784 37.0701 29.1818 37.0812 29.1873 37.0949C29.1989 37.1238 29.2189 37.1616 29.2523 37.1989C29.3211 37.276 29.3959 37.2955 29.4022 37.2972C29.4065 37.2983 29.3902 37.294 29.3268 37.2888C29.2677 37.2839 29.1878 37.2796 29.0747 37.2743L29.117 36.3753ZM30.0488 36.844C30.0574 36.8755 30.07 36.9452 30.0798 36.9988C30.0929 37.0698 30.111 37.1703 30.1335 37.2966C30.1787 37.5493 30.2422 37.9076 30.3193 38.3448C30.4735 39.2192 30.6826 40.4106 30.9103 41.7076L30.0238 41.8632C29.7962 40.566 29.5871 39.3751 29.4329 38.5011C29.3559 38.0641 29.2926 37.7066 29.2476 37.455C29.2251 37.329 29.2072 37.2301 29.1946 37.1611C29.1788 37.0748 29.176 37.0639 29.1806 37.0808L30.0488 36.844ZM30.9104 41.7083C31.1352 43.0015 31.3493 44.1963 31.5131 45.0797C31.595 45.5216 31.664 45.8843 31.7154 46.142C31.7411 46.2711 31.762 46.3716 31.7775 46.4417C31.7854 46.4771 31.7912 46.5016 31.7951 46.5169C31.8036 46.55 31.7981 46.5195 31.779 46.4792L30.9657 46.8645C30.9406 46.8116 30.9264 46.7522 30.9234 46.7407C30.9159 46.7115 30.9076 46.676 30.8989 46.6366C30.8813 46.5572 30.859 46.4493 30.8328 46.3179C30.7802 46.0544 30.7103 45.6872 30.6281 45.2437C30.4636 44.3562 30.2489 43.1581 30.0237 41.8624L30.9104 41.7083ZM31.7748 46.4706C31.773 46.4668 31.7754 46.4723 31.7858 46.4867C31.7954 46.5 31.8083 46.5162 31.8238 46.5336C31.8572 46.571 31.8886 46.5983 31.9057 46.6102L31.3896 47.3476C31.2313 47.2367 31.0555 47.0444 30.9699 46.8731L31.7748 46.4706ZM31.8973 46.6045L32.0879 46.7315L31.5886 47.4804L31.398 47.3533L31.8973 46.6045ZM31.8382 46.656H37V47.556H31.8382V46.656ZM37 46.656H42.1618V47.556H37V46.656ZM41.9121 46.7315L42.1027 46.6045L42.602 47.3533L42.4114 47.4804L41.9121 46.7315ZM42.0943 46.6102C42.1114 46.5983 42.1428 46.571 42.1762 46.5336C42.1917 46.5162 42.2046 46.5 42.2142 46.4867C42.2246 46.4723 42.227 46.4668 42.2252 46.4706L43.0301 46.8731C42.9445 47.0444 42.7687 47.2367 42.6104 47.3476L42.0943 46.6102ZM42.221 46.4792C42.2019 46.5195 42.1964 46.55 42.2049 46.5169C42.2088 46.5016 42.2146 46.4771 42.2225 46.4417C42.238 46.3716 42.2589 46.2711 42.2846 46.142C42.336 45.8843 42.405 45.5216 42.4869 45.0797C42.6507 44.1963 42.8648 43.0015 43.0896 41.7083L43.9763 41.8624C43.7511 43.1581 43.5364 44.3562 43.3719 45.2437C43.2897 45.6872 43.2198 46.0544 43.1672 46.3179C43.141 46.4493 43.1187 46.5572 43.1011 46.6366C43.0924 46.676 43.0841 46.7115 43.0766 46.7407C43.0736 46.7522 43.0594 46.8116 43.0343 46.8645L42.221 46.4792ZM43.0897 41.7076C43.3174 40.4106 43.5265 39.2192 43.6807 38.3448C43.7578 37.9076 43.8213 37.5493 43.8665 37.2966C43.889 37.1703 43.9071 37.0698 43.9202 36.9988C43.93 36.9452 43.9426 36.8755 43.9512 36.844L44.8194 37.0808C44.824 37.0639 44.8212 37.0748 44.8054 37.1611C44.7928 37.2301 44.7749 37.329 44.7524 37.455C44.7074 37.7066 44.6441 38.0641 44.5671 38.5011C44.4129 39.3751 44.2038 40.566 43.9762 41.8632L43.0897 41.7076ZM43.944 36.8742C43.9538 36.8256 43.98 36.7074 44.0763 36.5995C44.1741 36.49 44.2928 36.4467 44.37 36.4265C44.4981 36.393 44.6819 36.3847 44.883 36.3753L44.9253 37.2743C44.8122 37.2796 44.7323 37.2839 44.6732 37.2888C44.6098 37.294 44.5935 37.2983 44.5978 37.2972C44.6041 37.2955 44.6789 37.276 44.7477 37.1989C44.7811 37.1616 44.8011 37.1238 44.8127 37.0949C44.8182 37.0812 44.8216 37.0701 44.8236 37.063C44.8255 37.0559 44.8264 37.0514 44.8266 37.0507L43.944 36.8742ZM44.8876 36.3751C45.1651 36.3649 45.2886 36.3358 45.3528 36.3064C45.391 36.2889 45.4273 36.2648 45.4852 36.161L46.2713 36.5992C46.1492 36.8183 45.9869 37.0059 45.7274 37.1248C45.4937 37.2317 45.2202 37.2635 44.9206 37.2745L44.8876 36.3751ZM45.4863 36.159C45.5128 36.1121 45.5092 36.1161 45.5104 36.1113C45.5157 36.0905 45.5258 36.0348 45.5334 35.8842C45.5485 35.5844 45.55 35.0267 45.55 33.8813H46.45C46.45 35.0123 46.4488 35.6008 46.4322 35.9296C46.4239 36.0934 46.4108 36.2227 46.3824 36.334C46.3499 36.4614 46.3019 36.5449 46.2702 36.6012L45.4863 36.159ZM45.55 33.8813C45.55 32.7877 45.5486 32.2245 45.5352 31.9091C45.5285 31.7506 45.5194 31.6776 45.512 31.6406C45.5078 31.6201 45.5065 31.6174 45.4961 31.5978L46.2921 31.1777C46.332 31.2533 46.3691 31.338 46.3942 31.4629C46.4161 31.5714 46.4272 31.7018 46.4344 31.8709C46.4488 32.2106 46.45 32.7989 46.45 33.8813H45.55ZM45.4916 31.589C45.4858 31.5773 45.4651 31.5449 45.4304 31.5068C45.4146 31.4895 45.3994 31.4748 45.3865 31.4638C45.3728 31.4521 45.3666 31.4488 45.3691 31.4502L45.8156 30.6688C45.9262 30.732 46.0231 30.821 46.0957 30.9007C46.1696 30.9817 46.2442 31.0817 46.2966 31.1865L45.4916 31.589ZM45.3521 31.44L45.1509 31.3129L45.6315 30.552L45.8326 30.679L45.3521 31.44ZM45.3892 31.3824L41.7522 31.3665L41.7561 30.4666L45.3931 30.4824L45.3892 31.3824ZM41.7522 31.3665L38.1098 31.3507L38.1137 30.4507L41.7561 30.4666L41.7522 31.3665ZM37.6618 30.9007V30.1383H38.5618V30.9007H37.6618ZM37.6618 30.1383V29.3707H38.5618V30.1383H37.6618ZM38.1118 28.9207H38.7259V29.8207H38.1118V28.9207ZM38.7259 28.9207C40.1481 28.9207 41.3288 28.4396 42.2724 27.496L42.9088 28.1324C41.7877 29.2535 40.3743 29.8207 38.7259 29.8207V28.9207ZM42.2707 27.4976C42.7489 27.0145 42.9883 26.6835 43.2501 26.1456L44.0594 26.5393C43.7493 27.1766 43.4488 27.5868 42.9104 28.1307L42.2707 27.4976ZM43.2498 26.146C43.6322 25.3577 43.7708 24.543 43.7395 22.7875L44.6393 22.7715C44.6715 24.5737 44.5349 25.559 44.0596 26.5388L43.2498 26.146ZM43.7395 22.7863C43.7314 22.251 43.726 21.9961 43.7107 21.8484C43.7037 21.7808 43.6966 21.7589 43.695 21.7543C43.6944 21.7527 43.6932 21.747 43.6708 21.7113L44.4328 21.2324C44.4686 21.2893 44.5117 21.3624 44.5453 21.4595C44.578 21.5537 44.595 21.6506 44.6059 21.7558C44.6264 21.9534 44.6316 22.2597 44.6394 22.7727L43.7395 22.7863ZM43.6702 21.7103C43.6084 21.6115 43.5753 21.5898 43.5047 21.5676C43.3854 21.5302 43.1759 21.5089 42.7388 21.5089V20.6089C43.1647 20.6089 43.5058 20.6247 43.7743 20.709C44.0914 20.8086 44.2834 20.9933 44.4334 21.2333L43.6702 21.7103ZM42.7388 21.5089C41.9124 21.5089 41.2467 21.5773 40.8504 21.6798L40.6249 20.8085C41.1286 20.6782 41.8817 20.6089 42.7388 20.6089V21.5089ZM40.8517 21.6795C39.8415 21.9441 38.8067 22.6509 38.1787 23.5108L37.4519 22.98C38.2004 21.9551 39.4103 21.1267 40.6236 20.8089L40.8517 21.6795ZM38.1778 23.5119C38.1106 23.6034 38.0473 23.6883 37.999 23.7522C37.975 23.784 37.9541 23.8114 37.9381 23.8321C37.9302 23.8423 37.9225 23.852 37.9158 23.8604C37.9126 23.8645 37.9084 23.8696 37.9039 23.8749C37.9028 23.8763 37.8903 23.8915 37.8741 23.9077L37.2377 23.2713C37.2282 23.2807 37.2215 23.2883 37.2197 23.2904C37.2169 23.2935 37.215 23.2959 37.2142 23.2968C37.2127 23.2986 37.2122 23.2992 37.2134 23.2977C37.2157 23.2949 37.2199 23.2896 37.2265 23.2811C37.2394 23.2644 37.2579 23.2401 37.2808 23.2097C37.3266 23.1492 37.3876 23.0674 37.4528 22.9788L38.1778 23.5119ZM37.8741 23.9077C37.662 24.1197 37.4074 24.0161 37.3746 24.0017C37.3134 23.9749 37.273 23.9405 37.2625 23.9316C37.2337 23.9072 37.2136 23.8838 37.2081 23.8774C37.1921 23.8589 37.1783 23.8402 37.1698 23.8285C37.1504 23.8019 37.1276 23.7682 37.1037 23.7318C37.0552 23.6575 36.9925 23.5562 36.9275 23.4432L37.7078 22.9946C37.7645 23.0933 37.8183 23.18 37.8571 23.2394C37.877 23.2698 37.8906 23.2894 37.8973 23.2987C37.9019 23.305 37.8985 23.2999 37.8901 23.2901C37.8884 23.2881 37.8714 23.2679 37.8448 23.2454C37.8355 23.2375 37.7961 23.2038 37.7356 23.1773C37.705 23.1639 37.6402 23.1393 37.554 23.1396C37.455 23.14 37.3346 23.1744 37.2377 23.2713L37.8741 23.9077ZM36.93 23.4474C36.1459 22.1175 35.0078 21.1851 33.623 20.7235L33.9076 19.8696C35.5087 20.4033 36.8164 21.4827 37.7053 22.9904L36.93 23.4474ZM33.6211 20.7228C32.9872 20.5083 32.5271 20.4501 31.2029 20.4501V19.5501C32.5576 19.5501 33.1351 19.6083 33.9095 19.8703L33.6211 20.7228ZM31.2029 20.4501C30.5985 20.4501 30.316 20.4519 30.1596 20.4656C30.0868 20.4719 30.0713 20.4789 30.0765 20.477C30.0865 20.4734 30.0909 20.468 30.0549 20.4927L29.5451 19.751C29.5938 19.7175 29.6677 19.6677 29.7713 19.6303C29.8702 19.5947 29.9725 19.5785 30.081 19.569C30.2873 19.5509 30.6215 19.5501 31.2029 19.5501V20.4501Z" fill="#4D0000" mask="url(#path-4-outside-1_6356_46283)"/>
</svg>
