<svg width="36" height="36" viewBox="0 0 36 36" fill="none" xmlns="http://www.w3.org/2000/svg">
<path d="M21.1331 1.33336C21.3601 1.32736 21.5438 1.41436 21.7118 1.54669C22.0098 1.78002 22.2694 2.05836 22.5564 2.30469C22.8741 2.57769 23.2111 2.82902 23.6384 2.88636C24.0723 2.94625 24.5124 2.94546 24.9461 2.88402C25.3521 2.82502 25.6861 2.59669 25.9961 2.33969C26.1774 2.18969 26.3578 2.03969 26.5851 1.96469C26.8851 1.86469 27.1604 1.90436 27.4021 2.12402C28.2278 2.87336 29.0134 3.66469 29.8074 4.44636C31.0354 5.65502 32.2477 6.87947 33.4441 8.11969C33.5774 8.25802 33.7068 8.39969 33.8358 8.54202C34.1208 8.85636 34.1564 9.23369 33.9464 9.60169C33.8108 9.83969 33.6111 10.028 33.4588 10.2534C33.2101 10.62 33.0588 11.0137 33.0741 11.4637C33.0811 11.6717 33.0741 11.8797 33.0784 12.0877C33.0861 12.7037 33.4291 13.1544 33.8184 13.5824C34.0518 13.8384 34.2978 14.0824 34.4968 14.368C34.7524 14.7347 34.7128 15.1587 34.4168 15.4584C33.7904 16.0917 33.1734 16.7344 32.5501 17.369C29.4168 20.55 26.2501 23.7 23.0928 26.8574C21.515 28.434 19.9339 30.0067 18.3494 31.5754C17.3711 32.542 16.4004 33.5187 15.3958 34.4594C15.1554 34.6847 14.8518 34.726 14.5541 34.5827C14.2911 34.4567 14.0788 34.2617 13.8688 34.065C13.5188 33.7377 13.1808 33.3954 12.7288 33.2027C12.5932 33.1401 12.4483 33.1003 12.2998 33.085C11.8844 33.0537 11.4664 33.0324 11.0548 33.0997C10.6604 33.1637 10.3421 33.397 10.0334 33.635C9.85178 33.7754 9.67778 33.9254 9.45878 34.0057C9.14378 34.1214 8.85278 34.089 8.59778 33.8557C7.75511 33.0854 6.94744 32.279 6.13678 31.4754C4.85611 30.2064 3.57811 28.9347 2.33678 27.6254C2.23444 27.5174 2.12444 27.4107 2.04811 27.285C1.83878 26.9387 1.90844 26.6027 2.12044 26.281C2.25811 26.0717 2.43878 25.8964 2.57544 25.6854C2.80144 25.3364 2.94044 24.9667 2.93311 24.5454C2.92844 24.332 2.92611 24.1187 2.92611 23.9054C2.92611 23.2877 2.58278 22.8367 2.19478 22.4087C1.96144 22.152 1.70911 21.9137 1.51711 21.622C1.24678 21.2117 1.27511 20.847 1.61711 20.4977C2.48178 19.6128 3.34844 18.7292 4.21711 17.847C7.44267 14.5788 10.6851 11.326 13.9444 8.08869C15.5524 6.48313 17.1652 4.88213 18.7828 3.28569C19.3438 2.73036 19.9161 2.18569 20.4781 1.63202C20.6644 1.44902 20.8708 1.32302 21.1331 1.33336ZM22.1771 20.8184C22.6214 20.5674 23.0148 20.64 23.3874 20.98C23.833 21.3865 24.2654 21.8061 24.6848 22.239C24.7848 22.3414 24.8311 22.335 24.9288 22.2374C27.2763 19.884 29.626 17.5329 31.9778 15.184C32.0754 15.0864 32.2311 14.995 32.2488 14.884C32.2681 14.759 32.1154 14.6444 32.0281 14.5314C31.1664 13.3944 30.9304 12.119 31.1764 10.7354C31.2644 10.241 31.4864 9.79869 31.7194 9.36202C31.7708 9.26569 31.7591 9.21036 31.6811 9.13236C30.0871 7.53502 28.4961 5.93502 26.9081 4.33236C26.8108 4.23236 26.7414 4.22902 26.6278 4.29136C25.9611 4.66036 25.2581 4.88836 24.4871 4.90436C23.7161 4.92036 22.9801 4.82036 22.2851 4.47436C21.9214 4.29302 21.5881 4.06402 21.2624 3.82436C21.1484 3.74069 21.0831 3.75269 20.9898 3.85202C20.8078 4.04669 20.6094 4.22569 20.4208 4.41402C18.2688 6.56269 16.1173 8.71191 13.9664 10.8617C13.8611 10.967 13.6794 11.0727 13.6754 11.1837C13.6708 11.3117 13.8638 11.408 13.9711 11.517C14.3471 11.9024 14.7491 12.2627 15.0784 12.6924C15.3118 12.9964 15.4191 13.3174 15.2451 13.6877C14.8544 14.3544 14.2761 14.4594 13.6784 13.9704C13.6618 13.957 13.6454 13.9434 13.6294 13.9294C13.1894 13.5487 12.7891 13.126 12.3758 12.718C12.2684 12.612 12.2181 12.6044 12.1068 12.7157C9.39855 15.4312 6.68744 18.1442 3.97344 20.8547C3.72478 21.1034 3.72244 21.105 3.93044 21.388C4.29444 21.8854 4.61644 22.4084 4.76378 23.0127C5.06178 24.244 4.97244 25.4354 4.32411 26.5507C4.23944 26.696 4.25744 26.7807 4.37478 26.8987C5.95278 28.4807 7.52778 30.0661 9.09978 31.655C9.19111 31.7474 9.25411 31.7597 9.36944 31.6974C9.96444 31.3757 10.5861 31.1377 11.2718 31.0937C12.0924 31.0414 12.8878 31.1177 13.6418 31.4764C14.0538 31.672 14.4238 31.9317 14.7884 32.1997C14.8708 32.26 14.9201 32.2584 14.9834 32.1814C15.0408 32.112 15.1104 32.052 15.1744 31.988C17.8787 29.2834 20.5839 26.5798 23.2901 23.8774C23.3901 23.7774 23.3854 23.7317 23.2901 23.634C22.8744 23.213 22.4454 22.8044 22.0568 22.3564C21.9454 22.2277 21.8281 22.103 21.7704 21.9367C21.6308 21.535 21.7708 21.1474 22.1774 20.819L22.1771 20.8184Z" fill="black"/>
<path d="M22.178 20.8191C21.7713 21.1474 21.6313 21.5351 21.771 21.9368C21.8287 22.1034 21.946 22.2278 22.0573 22.3564C22.445 22.8044 22.874 23.2131 23.2907 23.6341C23.387 23.7318 23.3923 23.7768 23.2907 23.8774C20.5827 26.5785 17.8772 29.2821 15.1743 31.9881C15.1103 32.0521 15.041 32.1121 14.9833 32.1814C14.92 32.2584 14.8707 32.2601 14.7883 32.1998C14.4237 31.9331 14.055 31.6721 13.6417 31.4764C12.8877 31.1178 12.0923 31.0431 11.2717 31.0938C10.586 31.1378 9.96434 31.3758 9.36934 31.6974C9.254 31.7598 9.191 31.7474 9.09967 31.6551C7.52745 30.0671 5.95167 28.4821 4.37234 26.9001C4.25434 26.7821 4.237 26.6974 4.32167 26.5521C4.97 25.4368 5.05934 24.2454 4.76134 23.0141C4.61534 22.4098 4.29467 21.8868 3.928 21.3894C3.72 21.1051 3.72234 21.1034 3.971 20.8561C6.68212 18.145 9.39323 15.432 12.1043 12.7171C12.2157 12.6058 12.266 12.6134 12.3733 12.7194C12.7867 13.1274 13.187 13.5501 13.627 13.9308C13.643 13.9448 13.6593 13.9584 13.676 13.9718C14.276 14.4608 14.853 14.3564 15.2427 13.6891C15.8467 14.3113 16.4504 14.9335 17.054 15.5558C17.0335 15.5721 17.012 15.5873 16.9897 15.6011C16.4987 15.8731 16.3403 16.6044 16.7427 17.0291C16.9947 17.2958 17.2373 17.5718 17.4943 17.8341C17.971 18.3211 18.447 18.8094 18.9663 19.2511C19.256 19.4974 19.587 19.5664 19.946 19.3981C20.1307 19.3101 20.2878 19.1732 20.4003 19.0024C20.542 19.1451 20.6847 19.2871 20.8253 19.4311C21.2753 19.8931 21.7262 20.3558 22.178 20.8191ZM13.8337 18.0668C13.5943 18.0668 13.4367 18.1278 13.2737 18.2728C13.1901 18.3474 13.1076 18.4231 13.026 18.4998C11.785 19.6708 10.587 20.8854 9.385 22.0958C8.867 22.6174 8.34567 23.1368 7.863 23.6924C7.55434 24.0478 7.59967 24.5858 7.95267 24.9354C8.286 25.2644 8.87634 25.3021 9.199 24.9928C9.642 24.5694 10.0907 24.1521 10.5273 23.7218C11.8783 22.3884 13.2337 21.0611 14.529 19.6734C14.8217 19.3598 14.8833 19.0128 14.706 18.6308C14.5317 18.2544 14.2167 18.0824 13.8337 18.0668ZM10.781 27.4044C10.8067 27.7764 10.998 28.0711 11.3587 28.2474C11.7123 28.4191 12.0513 28.3644 12.3387 28.1081C13.3129 27.238 14.2358 26.3121 15.1027 25.3351C15.433 24.9631 15.3953 24.4538 15.0287 24.0854C14.662 23.7171 14.147 23.6781 13.7787 24.0084C12.8077 24.8818 11.883 25.8053 11.0083 26.7751C10.8553 26.9448 10.7847 27.1471 10.781 27.4044Z" fill="#FDA500"/>
<path d="M13.8334 18.0667C14.2167 18.084 14.5317 18.256 14.7057 18.6306C14.8831 19.0126 14.8214 19.3597 14.5287 19.6733C13.2334 21.061 11.8781 22.3893 10.5287 23.7217C10.0901 24.1503 9.6414 24.5666 9.20007 24.991C8.8774 25.2997 8.2864 25.2627 7.95374 24.9337C7.60074 24.584 7.5554 24.046 7.86407 23.6906C8.34674 23.135 8.86807 22.6157 9.38607 22.094C10.5881 20.8837 11.7861 19.669 13.0271 18.498C13.1084 18.4213 13.191 18.3457 13.2747 18.271C13.4361 18.126 13.5937 18.0667 13.8334 18.0667Z" fill="black"/>
<path d="M10.7808 27.4045C10.7844 27.1471 10.8551 26.9448 11.0081 26.7758C11.8828 25.806 12.8075 24.8825 13.7784 24.0091C14.1451 23.6788 14.6614 23.7181 15.0284 24.0861C15.3954 24.4541 15.4328 24.9638 15.1024 25.3358C14.2355 26.3128 13.3127 27.2387 12.3384 28.1088C12.0511 28.3651 11.7121 28.4198 11.3584 28.2481C10.9978 28.0721 10.8064 27.7765 10.7808 27.4045Z" fill="black"/>
<path d="M17.0562 15.5547C17.2132 15.5067 17.3665 15.4471 17.5362 15.4591C17.7395 15.4732 17.9318 15.5568 18.0808 15.6957C18.8355 16.3704 19.5495 17.0857 20.2335 17.8317C20.5608 18.1884 20.6202 18.5731 20.4002 19.0024C20.2886 19.1723 20.1329 19.3087 19.9498 19.3971C19.5908 19.5654 19.2598 19.4971 18.9702 19.2501C18.4508 18.8084 17.9748 18.3201 17.4982 17.8331C17.2412 17.5707 16.9982 17.2947 16.7465 17.0281C16.3425 16.6034 16.5002 15.8721 16.9918 15.6001C17.0142 15.5863 17.0356 15.5711 17.0562 15.5547Z" fill="black"/>
<path d="M19.8153 10.9112C19.821 10.6662 19.8373 10.4222 19.9287 10.1899C19.987 10.0405 19.9713 9.91786 19.8673 9.77786C19.4163 9.16986 19.6487 8.41586 20.339 8.21286C20.4926 8.16418 20.6563 8.15651 20.8139 8.1906C20.9714 8.22469 21.1172 8.29935 21.237 8.40719C21.393 8.54053 21.5303 8.54486 21.7007 8.47186C21.9414 8.36512 22.2097 8.337 22.4673 8.39153C22.842 8.47119 23.0477 8.72486 23.1417 9.08119C23.2367 9.44419 23.1237 9.74086 22.8543 9.98819C22.6077 10.2142 22.2877 10.3245 22.018 10.5142C21.7963 10.6702 21.718 10.8749 21.7883 11.1359C21.8587 11.3969 22.029 11.5025 22.294 11.4409C22.694 11.3485 23.065 11.1719 23.4427 11.0155C23.796 10.8692 24.1427 10.6945 24.521 10.6289C25.5627 10.4489 26.4397 10.7665 27.073 11.6125C27.6877 12.4335 27.864 13.3549 27.51 14.3459C27.4593 14.4879 27.4717 14.5985 27.5677 14.7269C28.0493 15.3695 27.7737 16.1689 27.0223 16.3382C26.741 16.4015 26.4957 16.3049 26.2663 16.1615C26.1503 16.0889 26.0593 16.0852 25.9363 16.1545C25.5117 16.3945 25.0577 16.5602 24.5697 16.6169C24.1847 16.6615 23.7697 16.3775 23.6163 15.9782C23.454 15.5525 23.5547 15.1899 23.9063 14.9299C24.0843 14.7982 24.2863 14.7182 24.4967 14.6572C24.9757 14.5182 25.333 14.2149 25.5967 13.8045C25.8687 13.3799 25.6777 12.7875 25.221 12.5712C25.1705 12.5476 25.1158 12.5343 25.0601 12.5321C25.0045 12.5299 24.9489 12.5387 24.8967 12.5582C24.551 12.6669 24.222 12.8169 23.8887 12.9582C23.3327 13.1915 22.7707 13.3865 22.1553 13.4135C21.422 13.4469 20.875 13.1335 20.4103 12.6089C19.9803 12.1205 19.8147 11.5459 19.8153 10.9112Z" fill="black"/>
</svg>
