<svg width="36" height="36" viewBox="0 0 36 36" fill="none" xmlns="http://www.w3.org/2000/svg">
<path d="M10.2998 9H12.8998V10.3H23.3998V9H25.4998L25.9998 27.8H10.2998V9Z" fill="#FFA600"/>
<path d="M26.2 28H10V8.70001H13.1V10H23.1V8.70001H25.7L26.2 28ZM10.5 27.5H25.7L25.2 9.30001H23.7V10.6H12.6V9.30001H10.5V27.5Z" fill="#FFA600"/>
<path d="M15.6001 6.20001C14.9001 6.30001 14.2001 6.70001 13.7001 7.10001L13.4001 7.40001H12.0001C10.5001 7.40001 10.3001 7.40001 9.9001 7.60001C9.3001 7.90001 8.9001 8.50001 8.8001 9.10001C8.7001 9.40001 8.7001 27.4 8.8001 27.7C8.9001 28 9.1001 28.4 9.3001 28.7C9.5001 28.9 10.0001 29.2 10.3001 29.3C10.6001 29.4 25.1001 29.4 25.4001 29.3C26.2001 29.1 26.8001 28.5 27.0001 27.7C27.1001 27.4 27.1001 9.40001 27.0001 9.10001C26.8001 8.30001 26.2001 7.70001 25.4001 7.50001C25.3001 7.50001 24.6001 7.50001 23.8001 7.50001H22.4001L22.1001 7.20001C21.8001 6.90001 21.4001 6.70001 21.0001 6.50001C20.4001 6.30001 20.2001 6.20001 17.8001 6.30001C16.7001 6.20001 15.6001 6.20001 15.6001 6.20001ZM20.3001 7.60001C20.5001 7.60001 20.7001 7.70001 20.9001 7.80001C21.4001 8.00001 21.9001 8.60001 22.0001 9.00001V9.10001H18.0001H14.0001V9.00001C14.1001 8.80001 14.3001 8.40001 14.5001 8.20001C14.8001 7.90001 15.3001 7.60001 15.7001 7.60001C15.8001 7.60001 16.8001 7.60001 18.0001 7.60001C19.6001 7.50001 20.0001 7.50001 20.3001 7.60001ZM12.5001 9.10001C12.5001 9.30001 12.4001 9.60001 12.5001 9.80001C12.5001 10.2 12.6001 10.3 12.9001 10.5C13.1001 10.6 22.9001 10.6 23.1001 10.5C23.4001 10.4 23.4001 10.2 23.5001 9.80001C23.5001 9.60001 23.5001 9.30001 23.5001 9.10001L23.4001 8.80001H24.4001C25.5001 8.80001 25.6001 8.80001 25.8001 9.20001L25.9001 9.40001V18.4V27.4L25.8001 27.6C25.7001 27.7 25.6001 27.8 25.5001 27.9L25.2001 28H17.9001H10.6001L10.4001 27.9C10.3001 27.8 10.2001 27.7 10.1001 27.6L10.0001 27.4V18.4V9.40001L10.1001 9.20001C10.3001 8.90001 10.4001 8.80001 11.5001 8.80001H12.5001V9.10001Z" fill="black"/>
<path d="M20.1002 12.7C19.8002 12.8 19.6002 13.2 19.6002 13.5C19.7002 13.8 19.9002 14 20.2002 14C20.3002 14 20.3002 14 20.3002 14C20.3002 14 19.9002 14.4 19.5002 14.8L18.7002 15.6L17.6002 14.5C16.4002 13.3 16.3002 13.3 16.0002 13.4C15.9002 13.4 15.6002 13.7 14.5002 14.8C13.3002 16 13.1002 16.2 13.1002 16.3C13.0002 16.7 13.3002 17.1 13.8002 17.1C13.9002 17.1 14.0002 17.1 14.1002 17.1C14.2002 17.1 14.7002 16.6 15.2002 16L16.2002 15L17.3002 16.1C17.9002 16.7 18.4002 17.2 18.5002 17.2C18.6002 17.3 18.9002 17.3 19.1002 17.2C19.2002 17.2 19.7002 16.7 20.3002 16.1L21.4002 15V15.2C21.5002 15.8 22.4002 16 22.7002 15.4C22.8002 15.3 22.8002 15.1 22.8002 14.2C22.8002 13 22.8002 13 22.5002 12.8C22.4002 12.7 22.3002 12.7 21.4002 12.7C20.7002 12.6 20.1002 12.7 20.1002 12.7Z" fill="black"/>
<path d="M14.8001 19.5C14.7001 19.5 14.4001 19.8 14.1001 20.1L13.6001 20.6L13.4001 20.4C13.3001 20.3 13.2001 20.2 13.1001 20.2C12.5001 20 12.0001 20.6 12.3001 21.1C12.4001 21.3 13.1001 22 13.3001 22.1C13.5001 22.2 13.7001 22.2 13.9001 22.1C14.0001 22.1 14.4001 21.7 14.9001 21.2C15.5001 20.6 15.7001 20.4 15.7001 20.2C15.8001 19.9 15.6001 19.5 15.3001 19.4C15.0001 19.4 15.0001 19.4 14.8001 19.5Z" fill="black"/>
<path d="M17.0998 20.3C16.6998 20.6 16.6998 21.1 17.0998 21.4C17.1998 21.5 17.2998 21.5 20.1998 21.5C23.0998 21.5 23.1998 21.5 23.2998 21.4C23.6998 21.1 23.6998 20.5 23.2998 20.3L23.0998 20.2H20.1998H17.2998L17.0998 20.3Z" fill="black"/>
<path d="M15 23.4C15 23.4 14.9 23.4 14.8 23.4C14.7 23.4 14.5 23.6 14.1 24L13.5 24.5L13.3 24.4C13.1 24.2 12.9 24.1 12.7 24.1C12.5 24.1 12.2 24.3 12.1 24.5C11.9 24.9 12 25.1 12.6 25.7C13.1 26.2 13.2 26.3 13.6 26.2C13.7 26.2 13.9 26 14.6 25.4C15.1 24.9 15.5 24.5 15.5 24.4C15.7 24.1 15.5 23.7 15.3 23.5C15.3 23.4 15.1 23.3 15 23.4Z" fill="black"/>
<path d="M17.1998 24.2C16.9998 24.3 16.7998 24.5 16.7998 24.8C16.7998 25.1 16.8998 25.2 17.0998 25.4C17.1998 25.5 17.2998 25.5 20.1998 25.5C23.0998 25.5 23.1998 25.5 23.2998 25.4C23.4998 25.2 23.5998 25.1 23.5998 24.8C23.5998 24.5 23.4998 24.3 23.1998 24.2C22.9998 24.1 17.3998 24.1 17.1998 24.2Z" fill="black"/>
</svg>
