<svg width="36" height="36" viewBox="0 0 36 36" fill="none" xmlns="http://www.w3.org/2000/svg">
<path fill-rule="evenodd" clip-rule="evenodd" d="M10.0002 19.8V16.7L7.7002 14.6L10.0002 11L12.6002 12L15.4002 10.5L16.2002 7.40002H20.1002L20.9002 10.5L23.5002 12L26.3002 11L28.6002 14.6L26.3002 16.7V19.8L28.6002 21.9L26.3002 25.5L23.5002 24.5L20.8002 26L20.0002 28.8H16.1002L15.4002 26L12.6002 24.5L10.0002 25.5L7.7002 21.9L10.0002 19.8ZM18.3002 22.1C20.4002 22.1 22.2002 20.4 22.2002 18.2C22.2002 16.1 20.5002 14.3 18.3002 14.3C16.2002 14.3 14.4002 16 14.4002 18.2C14.4002 20.4 16.1002 22.1 18.3002 22.1Z" fill="#FFA600"/>
<path d="M18.1001 13.2C15.3001 13.2 13.1001 15.5 13.1001 18.2C13.1001 21 15.4001 23.2 18.1001 23.2C20.8001 23.2 23.1001 20.9 23.1001 18.2C23.1001 15.5 20.8001 13.2 18.1001 13.2ZM21.2001 18.3C21.2001 20 19.8001 21.4 18.1001 21.4C16.4001 21.4 15.0001 20 15.0001 18.3C15.0001 16.6 16.4001 15.2 18.1001 15.2C19.8001 15.2 21.2001 16.5 21.2001 18.3Z" fill="black"/>
<path d="M22.4002 18.3C22.4002 16 20.6002 14.2 18.3002 14.2C16.0002 14.2 14.2002 16 14.2002 18.3C14.2002 20.6 16.0002 22.4 18.3002 22.4C20.5002 22.4 22.4002 20.5 22.4002 18.3ZM14.7002 18.3C14.7002 16.3 16.3002 14.7 18.3002 14.7C20.3002 14.7 21.9002 16.3 21.9002 18.3C21.9002 20.3 20.3002 21.9 18.3002 21.9C16.3002 21.9 14.7002 20.2 14.7002 18.3Z" fill="black"/>
<path d="M28.5002 20.4L27.1002 19.4C27.1002 19 27.2002 18.7 27.2002 18.3C27.2002 17.9 27.2002 17.6 27.1002 17.2L28.5002 16.2C29.4002 15.6 29.6002 14.4 29.1002 13.4L27.9002 11.2C27.3002 10.3 26.2002 9.90001 25.2002 10.3L23.5002 11C22.9002 10.6 22.3002 10.2 21.6002 9.90001L21.4002 8.10001C21.3002 7.00001 20.4002 6.20001 19.3002 6.20001H16.8002C15.7002 6.20001 14.8002 7.00001 14.7002 8.10001L14.5002 10C13.8002 10.3 13.2002 10.6 12.6002 11.1L11.0002 10.3C10.0002 9.90001 8.80024 10.2 8.30024 11.2L7.10024 13.3C6.50024 14.2 6.80024 15.5 7.70024 16.1L9.10024 17.1C9.10024 17.5 9.00024 17.8 9.00024 18.2C9.00024 18.6 9.00024 18.9 9.10024 19.3L7.70024 20.3C6.80024 20.9 6.60024 22.1 7.10024 23.1L8.30024 25.3C8.90024 26.2 10.0002 26.6 11.0002 26.2L12.6002 25.5C13.2002 25.9 13.8002 26.3 14.5002 26.6L14.7002 28.4C14.8002 29.5 15.7002 30.3 16.8002 30.3H19.3002C20.4002 30.3 21.3002 29.5 21.4002 28.4L21.6002 26.6C22.3002 26.3 22.9002 26 23.5002 25.5L25.1002 26.2C26.1002 26.7 27.3002 26.3 27.8002 25.3L29.0002 23.2C29.6002 22.2 29.4002 21 28.5002 20.4ZM15.7002 25C14.8002 24.7 14.1002 24.3 13.4002 23.7C13.2002 23.5 13.0002 23.5 12.8002 23.5C12.7002 23.5 12.5002 23.5 12.4002 23.6L10.2002 24.6C10.1002 24.6 10.0002 24.6 9.90024 24.5L8.70024 22.3C8.60024 22.2 8.70024 22.1 8.80024 22L10.7002 20.6C11.0002 20.4 11.1002 20 11.1002 19.6C11.0002 19.1 11.0002 18.7 11.0002 18.3C11.0002 17.9 11.0002 17.4 11.1002 17C11.2002 16.6 11.0002 16.3 10.7002 16L8.80024 14.6C8.70024 14.5 8.70024 14.4 8.70024 14.3L9.90024 12.2C10.0002 12.1 10.1002 12.1 10.2002 12.1L12.4002 13.1C12.7002 13.3 13.1002 13.2 13.4002 13C14.1002 12.4 14.9002 12 15.7002 11.7C16.0002 11.6 16.3002 11.3 16.3002 10.9L16.5002 8.60001C16.5002 8.50001 16.6002 8.40001 16.7002 8.40001H19.2002C19.3002 8.40001 19.4002 8.50001 19.4002 8.60001L19.6002 10.9C19.6002 11.3 19.9002 11.6 20.2002 11.7C21.1002 12 21.8002 12.4 22.5002 13C22.8002 13.2 23.2002 13.3 23.5002 13.1L25.7002 12.1C25.8002 12.1 25.9002 12.1 26.0002 12.2L27.2002 14.4C27.3002 14.5 27.2002 14.6 27.1002 14.7L25.4002 16C25.1002 16.2 25.0002 16.6 25.0002 17C25.1002 17.4 25.1002 17.9 25.1002 18.3C25.1002 18.7 25.1002 19.2 25.0002 19.6C24.9002 20 25.1002 20.3 25.4002 20.6L27.3002 22C27.4002 22.1 27.4002 22.2 27.4002 22.3L26.2002 24.4C26.1002 24.5 26.0002 24.5 25.9002 24.5L23.7002 23.5C23.4002 23.3 23.0002 23.4 22.7002 23.6C22.0002 24.2 21.2002 24.6 20.4002 24.9C20.1002 25 19.8002 25.3 19.8002 25.7L19.6002 28C19.6002 28.1 19.5002 28.2 19.4002 28.2H16.9002C16.8002 28.2 16.7002 28.1 16.7002 28L16.5002 25.7C16.3002 25.4 16.1002 25.1 15.7002 25Z" fill="black"/>
</svg>
