<svg width="36" height="36" viewBox="0 0 36 36" fill="none" xmlns="http://www.w3.org/2000/svg">
<path d="M23.9213 17.4356C26.6193 17.4356 28.8065 15.2484 28.8065 12.5504C28.8065 9.85244 26.6193 7.66528 23.9213 7.66528C21.2233 7.66528 19.0361 9.85244 19.0361 12.5504C19.0361 15.2484 21.2233 17.4356 23.9213 17.4356Z" fill="#FFA600"/>
<mask id="mask0_4679_40422" style="mask-type:alpha" maskUnits="userSpaceOnUse" x="5" y="6" width="25" height="25">
<path d="M30 6.01196H5V30.012H30V6.01196Z" fill="white"/>
<path d="M23.1608 7.02879C22.0309 7.17794 20.892 7.7474 20.0694 8.56545C19.6401 8.99933 19.1339 9.7315 18.9486 10.1925L18.822 10.5043H14.1126H9.40324L9.27669 10.6128L9.15014 10.7213L9.12302 13.3155C9.10495 14.7392 9.09139 17.0532 9.08687 18.4588C9.08687 19.8643 9.06879 21.6993 9.05071 22.5354L9.02359 24.063H7.62705H6.2305L6.11751 24.176L6 24.2935L6.01808 25.4551C6.03616 26.5081 6.0452 26.6437 6.14011 26.933C6.38868 27.7058 6.93103 28.3385 7.64512 28.6866C7.87562 28.7995 8.19651 28.9216 8.35922 28.9532C8.59423 28.9984 9.93203 29.012 14.8448 29.012C20.7157 29.012 21.0502 29.0074 21.3304 28.9306C22.162 28.6956 22.8354 28.1442 23.206 27.3985C23.554 26.6889 23.545 26.8471 23.545 21.9569V17.6452H23.8749C25.2398 17.6407 26.5641 17.0758 27.5719 16.0679C28.6702 14.9742 29.2125 13.5641 29.1357 12.041C29.0046 9.60947 27.2601 7.58922 24.8602 7.09207C24.4399 7.00619 23.5721 6.97004 23.1608 7.02879ZM24.589 7.81972C26.5279 8.14965 28.0239 9.6637 28.3357 11.6026C28.4261 12.1449 28.3719 13.0488 28.2273 13.555C27.7979 15.0103 26.7177 16.1538 25.3167 16.6329C24.7201 16.8362 24.3133 16.8905 23.6128 16.8634C22.9077 16.8362 22.4919 16.7368 21.8863 16.4476C20.6118 15.8464 19.7259 14.7527 19.3779 13.3652C19.2423 12.8319 19.2333 11.8737 19.3599 11.3404C19.6536 10.0704 20.4265 9.01289 21.5338 8.3711C22.4693 7.83328 23.5314 7.63893 24.589 7.81972ZM18.5644 11.5077C18.4424 12.2353 18.5599 13.4059 18.822 14.1064C18.8853 14.2691 18.935 14.4092 18.935 14.4183C18.935 14.4273 18.1305 14.4363 17.1453 14.4363C15.3194 14.4363 15.238 14.4454 15.1069 14.6126C15.0346 14.7075 15.0346 14.9335 15.1069 15.0284C15.238 15.2001 15.3103 15.2047 17.3667 15.2047H19.3734L19.5497 15.4623C19.7983 15.8284 20.3858 16.4024 20.8016 16.6871C21.24 16.9899 21.8727 17.2927 22.3699 17.4328L22.7541 17.5458L22.7676 21.9208C22.7721 24.9398 22.7631 26.3725 22.7269 26.5398C22.6501 26.9239 22.4015 27.3623 22.1078 27.6425C20.9553 28.7453 19.1113 28.3205 18.5192 26.8245C18.4288 26.594 18.4198 26.4674 18.3972 25.4053C18.3701 24.2438 18.3701 24.2348 18.2616 24.1489C18.1622 24.0676 18.0221 24.063 13.977 24.063H9.79644L9.82356 18.9876C9.83712 16.199 9.86423 13.32 9.87779 12.5924L9.90491 11.2726H14.2573H18.6051L18.5644 11.5077ZM17.6379 25.6991C17.6605 26.6934 17.6921 26.8697 17.9497 27.3849C18.0989 27.6787 18.3384 28.0041 18.5237 28.1623L18.6412 28.2662H13.6697C9.40324 28.2662 8.65751 28.2572 8.43605 28.1984C7.69484 28.0041 7.11181 27.4617 6.87228 26.7431C6.79093 26.4991 6.77737 26.3499 6.77737 25.6223V24.7862H12.1963H17.6153L17.6379 25.6991Z" fill="black"/>
</mask>
<g mask="url(#mask0_4679_40422)">
<path d="M23.1608 7.02879C22.0309 7.17794 20.892 7.7474 20.0694 8.56545C19.6401 8.99933 19.1339 9.7315 18.9486 10.1925L18.822 10.5043H14.1126H9.40324L9.27669 10.6128L9.15014 10.7213L9.12302 13.3155C9.10495 14.7392 9.09139 17.0532 9.08687 18.4588C9.08687 19.8643 9.06879 21.6993 9.05071 22.5354L9.02359 24.063H7.62705H6.2305L6.11751 24.176L6 24.2935L6.01808 25.4551C6.03616 26.5081 6.0452 26.6437 6.14011 26.933C6.38868 27.7058 6.93103 28.3385 7.64512 28.6866C7.87562 28.7995 8.19651 28.9216 8.35922 28.9532C8.59423 28.9984 9.93203 29.012 14.8448 29.012C20.7157 29.012 21.0502 29.0074 21.3304 28.9306C22.162 28.6956 22.8354 28.1442 23.206 27.3985C23.554 26.6889 23.545 26.8471 23.545 21.9569V17.6452H23.8749C25.2398 17.6407 26.5641 17.0758 27.5719 16.0679C28.6702 14.9742 29.2125 13.5641 29.1357 12.041C29.0046 9.60947 27.2601 7.58922 24.8602 7.09207C24.4399 7.00619 23.5721 6.97004 23.1608 7.02879ZM24.589 7.81972C26.5279 8.14965 28.0239 9.6637 28.3357 11.6026C28.4261 12.1449 28.3719 13.0488 28.2273 13.555C27.7979 15.0103 26.7177 16.1538 25.3167 16.6329C24.7201 16.8362 24.3133 16.8905 23.6128 16.8634C22.9077 16.8362 22.4919 16.7368 21.8863 16.4476C20.6118 15.8464 19.7259 14.7527 19.3779 13.3652C19.2423 12.8319 19.2333 11.8737 19.3599 11.3404C19.6536 10.0704 20.4265 9.01289 21.5338 8.3711C22.4693 7.83328 23.5314 7.63893 24.589 7.81972ZM18.5644 11.5077C18.4424 12.2353 18.5599 13.4059 18.822 14.1064C18.8853 14.2691 18.935 14.4092 18.935 14.4183C18.935 14.4273 18.1305 14.4363 17.1453 14.4363C15.3194 14.4363 15.238 14.4454 15.1069 14.6126C15.0346 14.7075 15.0346 14.9335 15.1069 15.0284C15.238 15.2001 15.3103 15.2047 17.3667 15.2047H19.3734L19.5497 15.4623C19.7983 15.8284 20.3858 16.4024 20.8016 16.6871C21.24 16.9899 21.8727 17.2927 22.3699 17.4328L22.7541 17.5458L22.7676 21.9208C22.7721 24.9398 22.7631 26.3725 22.7269 26.5398C22.6501 26.9239 22.4015 27.3623 22.1078 27.6425C20.9553 28.7453 19.1113 28.3205 18.5192 26.8245C18.4288 26.594 18.4198 26.4674 18.3972 25.4053C18.3701 24.2438 18.3701 24.2348 18.2616 24.1489C18.1622 24.0676 18.0221 24.063 13.977 24.063H9.79644L9.82356 18.9876C9.83712 16.199 9.86423 13.32 9.87779 12.5924L9.90491 11.2726H14.2573H18.6051L18.5644 11.5077ZM17.6379 25.6991C17.6605 26.6934 17.6921 26.8697 17.9497 27.3849C18.0989 27.6787 18.3384 28.0041 18.5237 28.1623L18.6412 28.2662H13.6697C9.40324 28.2662 8.65751 28.2572 8.43605 28.1984C7.69484 28.0041 7.11181 27.4617 6.87228 26.7431C6.79093 26.4991 6.77737 26.3499 6.77737 25.6223V24.7862H12.1963H17.6153L17.6379 25.6991Z" fill="black"/>
<path d="M23.1608 7.02879C22.0309 7.17794 20.892 7.7474 20.0694 8.56545C19.6401 8.99933 19.1339 9.7315 18.9486 10.1925L18.822 10.5043H14.1126H9.40324L9.27669 10.6128L9.15014 10.7213L9.12302 13.3155C9.10495 14.7392 9.09139 17.0532 9.08687 18.4588C9.08687 19.8643 9.06879 21.6993 9.05071 22.5354L9.02359 24.063H7.62705H6.2305L6.11751 24.176L6 24.2935L6.01808 25.4551C6.03616 26.5081 6.0452 26.6437 6.14011 26.933C6.38868 27.7058 6.93103 28.3385 7.64512 28.6866C7.87562 28.7995 8.19651 28.9216 8.35922 28.9532C8.59423 28.9984 9.93203 29.012 14.8448 29.012C20.7157 29.012 21.0502 29.0074 21.3304 28.9306C22.162 28.6956 22.8354 28.1442 23.206 27.3985C23.554 26.6889 23.545 26.8471 23.545 21.9569V17.6452H23.8749C25.2398 17.6407 26.5641 17.0758 27.5719 16.0679C28.6702 14.9742 29.2125 13.5641 29.1357 12.041C29.0046 9.60947 27.2601 7.58922 24.8602 7.09207C24.4399 7.00619 23.5721 6.97004 23.1608 7.02879ZM24.589 7.81972C26.5279 8.14965 28.0239 9.6637 28.3357 11.6026C28.4261 12.1449 28.3719 13.0488 28.2273 13.555C27.7979 15.0103 26.7177 16.1538 25.3167 16.6329C24.7201 16.8362 24.3133 16.8905 23.6128 16.8634C22.9077 16.8362 22.4919 16.7368 21.8863 16.4476C20.6118 15.8464 19.7259 14.7527 19.3779 13.3652C19.2423 12.8319 19.2333 11.8737 19.3599 11.3404C19.6536 10.0704 20.4265 9.01289 21.5338 8.3711C22.4693 7.83328 23.5314 7.63893 24.589 7.81972ZM18.5644 11.5077C18.4424 12.2353 18.5599 13.4059 18.822 14.1064C18.8853 14.2691 18.935 14.4092 18.935 14.4183C18.935 14.4273 18.1305 14.4363 17.1453 14.4363C15.3194 14.4363 15.238 14.4454 15.1069 14.6126C15.0346 14.7075 15.0346 14.9335 15.1069 15.0284C15.238 15.2001 15.3103 15.2047 17.3667 15.2047H19.3734L19.5497 15.4623C19.7983 15.8284 20.3858 16.4024 20.8016 16.6871C21.24 16.9899 21.8727 17.2927 22.3699 17.4328L22.7541 17.5458L22.7676 21.9208C22.7721 24.9398 22.7631 26.3725 22.7269 26.5398C22.6501 26.9239 22.4015 27.3623 22.1078 27.6425C20.9553 28.7453 19.1113 28.3205 18.5192 26.8245C18.4288 26.594 18.4198 26.4674 18.3972 25.4053C18.3701 24.2438 18.3701 24.2348 18.2616 24.1489C18.1622 24.0676 18.0221 24.063 13.977 24.063H9.79644L9.82356 18.9876C9.83712 16.199 9.86423 13.32 9.87779 12.5924L9.90491 11.2726H14.2573H18.6051L18.5644 11.5077ZM17.6379 25.6991C17.6605 26.6934 17.6921 26.8697 17.9497 27.3849C18.0989 27.6787 18.3384 28.0041 18.5237 28.1623L18.6412 28.2662H13.6697C9.40324 28.2662 8.65751 28.2572 8.43605 28.1984C7.69484 28.0041 7.11181 27.4617 6.87228 26.7431C6.79093 26.4991 6.77737 26.3499 6.77737 25.6223V24.7862H12.1963H17.6153L17.6379 25.6991Z" stroke="black" stroke-width="0.102857"/>
</g>
<path d="M23.5225 8.94514C23.4321 9.03553 23.4095 9.0988 23.4095 9.29767V9.54172L23.1202 9.68635C22.7948 9.84453 22.5236 10.1202 22.3609 10.4501C22.2751 10.6309 22.257 10.7348 22.257 11.1145C22.257 11.5213 22.2705 11.589 22.3835 11.806C22.6502 12.3167 23.0795 12.6014 23.6897 12.6783C24.0964 12.728 24.232 12.7867 24.4128 12.9766C24.9009 13.4918 24.5348 14.346 23.8162 14.355C23.3778 14.355 23.0343 14.0522 22.9756 13.6093C22.9349 13.3246 22.7993 13.1709 22.5824 13.1709C22.3519 13.1709 22.2344 13.32 22.2344 13.6138C22.2344 14.1426 22.6276 14.7302 23.1428 14.9652L23.4095 15.0872V15.3629C23.4095 15.5934 23.4275 15.6567 23.5134 15.738C23.658 15.8736 23.8795 15.8691 24.0196 15.7245C24.1145 15.6341 24.1326 15.5708 24.1326 15.3448C24.1326 15.0872 24.1371 15.0736 24.2591 15.051C24.4761 15.0013 24.8422 14.7618 25.0094 14.5584C25.2806 14.224 25.371 13.9709 25.3755 13.5325C25.3755 13.1845 25.3619 13.1167 25.2263 12.8455C24.9732 12.3257 24.5213 12.0229 23.8976 11.9551C23.5179 11.9099 23.3326 11.8331 23.1654 11.6342C22.8264 11.2275 22.9575 10.5993 23.4321 10.3688C23.9654 10.1111 24.5303 10.423 24.6297 11.0286C24.684 11.3495 24.7879 11.4715 25.0184 11.4715C25.145 11.4715 25.2083 11.4399 25.2896 11.345C25.4207 11.1958 25.4297 11.0151 25.3122 10.6445C25.1721 10.188 24.8693 9.85809 24.4173 9.65923L24.1326 9.5372V9.29315C24.1326 9.00389 23.997 8.83215 23.771 8.83215C23.6852 8.83215 23.5902 8.87283 23.5225 8.94514Z" fill="black"/>
<path d="M12.7302 13.7132C12.1788 13.8533 11.8218 14.2917 11.8218 14.8431C11.8218 15.9097 13.1731 16.4023 13.8963 15.6023C13.9867 15.5029 14.0906 15.3538 14.1268 15.2679C14.2217 15.0374 14.2081 14.59 14.0951 14.364C13.9912 14.1425 13.7064 13.8668 13.494 13.781C13.2906 13.6951 12.9336 13.6634 12.7302 13.7132ZM13.2364 14.5041C13.6341 14.7075 13.4398 15.2498 12.9697 15.2498C12.7754 15.2498 12.563 15.0374 12.563 14.8431C12.563 14.6487 12.7754 14.4363 12.9697 14.4363C13.0466 14.4363 13.1686 14.4679 13.2364 14.5041Z" fill="black"/>
<path d="M12.7516 16.9718C12.1867 17.0847 11.7302 17.7039 11.8161 18.2463C11.8613 18.522 12.0601 18.8609 12.2635 19.0101C12.4488 19.1457 12.8149 19.2722 13.0138 19.2722C13.4251 19.2722 13.9086 18.9604 14.0985 18.5762C14.2069 18.3457 14.2205 17.9118 14.1211 17.6768C13.9086 17.1661 13.3121 16.8588 12.7516 16.9718ZM13.2352 17.7582C13.3075 17.7943 13.3889 17.8802 13.416 17.9525C13.5923 18.3773 13.0273 18.7028 12.6929 18.3728C12.3404 18.0158 12.7788 17.5186 13.2352 17.7582Z" fill="black"/>
<path d="M15.1615 17.8486C15.0214 17.9842 15.0168 18.1785 15.1434 18.3412L15.2338 18.4587H17.9003H20.5669L20.6753 18.3458C20.7477 18.278 20.7883 18.183 20.7883 18.0972C20.7883 18.0113 20.7477 17.9164 20.6753 17.8486L20.5669 17.7356H17.9184H15.2699L15.1615 17.8486Z" fill="black"/>
<path d="M12.5632 20.2802C12.4773 20.3074 12.3011 20.4339 12.17 20.5605C11.7678 20.9537 11.7 21.4418 11.9802 21.9344C12.1836 22.2869 12.6039 22.5265 13.0242 22.5265C13.2954 22.5265 13.6524 22.3683 13.8603 22.1559C14.0999 21.9118 14.1902 21.6949 14.1902 21.3649C14.1857 20.7006 13.6886 20.217 13.0152 20.226C12.8525 20.2305 12.6491 20.2531 12.5632 20.2802ZM13.2366 21.0124C13.3089 21.0486 13.3903 21.1344 13.4174 21.2068C13.5937 21.6316 13.0287 21.957 12.6943 21.6271C12.4909 21.4237 12.527 21.1525 12.7801 21.0169C12.9383 20.9311 13.0784 20.9265 13.2366 21.0124Z" fill="black"/>
<path d="M15.3192 21.0213C15.0615 21.1162 14.9666 21.4236 15.1339 21.6269L15.2197 21.7354L17.832 21.749C19.6444 21.758 20.485 21.7444 20.5664 21.7128C20.7969 21.6179 20.8511 21.3377 20.6794 21.1388L20.5709 21.0123L17.9767 21.0032C16.553 20.9987 15.3553 21.0078 15.3192 21.0213Z" fill="black"/>
</svg>
