<svg width="72" height="72" viewBox="0 0 72 72" fill="none" xmlns="http://www.w3.org/2000/svg">
<path d="M49.5 27.5L49 22.5L61.5 22L61 28.5L56.5 31H53L49.5 27.5Z" fill="#68D4F4"/>
<path d="M30.5 31.5L30 26.5L42.5 26L42 32.5L37.5 35H34L30.5 31.5Z" fill="#68D4F4"/>
<path d="M11.5 27.5L11 22.5L23.5 22L23 28.5L18.5 31H15L11.5 27.5Z" fill="#68D4F4"/>
<path d="M16.5 37L14 34L15 33V30.5H20V32.5L21.5 34L19.5 36.5L16.5 37Z" fill="#68D4F4"/>
<path d="M35.5 40.5L33 37.5L34 36.5V34H39V36L40.5 37.5L38.5 40L35.5 40.5Z" fill="#68D4F4"/>
<path d="M54.5 37.5L52 34.5L53 33.5V31H58V33L59.5 34.5L57.5 37L54.5 37.5Z" fill="#68D4F4"/>
<path d="M24.5 17L24.5 21.5L11 22L11.5 15.5L16 13L19.5 13L24.5 17Z" fill="#1B6278"/>
<path d="M44 21L44 25.5L29 26L29.5556 19.5L34.5556 17L38.4444 17L44 21Z" fill="#1B6278"/>
<path d="M63 18L63 22.5L49 21.5L48.5556 16.5L53.5 13.5L57.5 13L63 18Z" fill="#1B6278"/>
<path d="M17.562 32.0598C17.3237 32.0598 17.0853 32.0472 16.8481 32.0244C16.6109 32.0005 16.376 31.9651 16.1422 31.9184C15.9084 31.8716 15.678 31.8134 15.4499 31.7439C15.2218 31.6743 14.9971 31.5933 14.777 31.5021C14.5569 31.4108 14.3413 31.3082 14.1315 31.1964C13.9216 31.0835 13.7175 30.9604 13.5191 30.8281C13.3206 30.6946 13.1302 30.5532 12.9454 30.4015C12.7606 30.2498 12.585 30.0902 12.4162 29.9214C12.2474 29.7515 12.0878 29.5758 11.9361 29.3911C11.7855 29.2063 11.643 29.0147 11.5107 28.8163C11.3784 28.6178 11.2564 28.4125 11.1434 28.2027C11.0305 27.9917 10.929 27.7762 10.8378 27.556C10.7466 27.3348 10.6656 27.1101 10.5972 26.882C10.5276 26.6539 10.4694 26.4224 10.4227 26.1875C10.3759 25.9537 10.3406 25.7176 10.3166 25.4804C10.2938 25.242 10.2812 25.0037 10.2812 24.7653V22.0293H12.1014V24.7653C12.1014 24.9444 12.1106 25.1234 12.1277 25.3013C12.1448 25.4804 12.171 25.6571 12.2064 25.8328C12.2417 26.0084 12.2851 26.1818 12.3364 26.3528C12.3888 26.5251 12.4482 26.6938 12.5166 26.8592C12.585 27.0246 12.6614 27.1865 12.7458 27.3439C12.8302 27.5024 12.9226 27.6553 13.0218 27.8047C13.121 27.9541 13.2271 28.0978 13.3411 28.2358C13.4541 28.3749 13.5738 28.5072 13.7004 28.6338C13.827 28.7604 13.9593 28.8801 14.0984 28.9942C14.2364 29.1082 14.3801 29.2143 14.5284 29.3147C14.6766 29.4139 14.8306 29.5063 14.988 29.5907C15.1454 29.675 15.3073 29.7515 15.4727 29.8199C15.6381 29.8883 15.8057 29.9488 15.9768 30.0001C16.1479 30.0525 16.3212 30.0959 16.4968 30.1312C16.6725 30.1654 16.8492 30.1917 17.0272 30.2099C17.2051 30.227 17.383 30.2362 17.562 30.2362C17.7411 30.2362 17.919 30.227 18.0969 30.2099C18.2748 30.1917 18.4516 30.1654 18.6273 30.1312C18.8029 30.0959 18.9762 30.0525 19.1473 30.0001C19.3184 29.9488 19.486 29.8883 19.6514 29.8199C19.8168 29.7515 19.9787 29.675 20.1361 29.5907C20.2935 29.5063 20.4474 29.4139 20.5957 29.3147C20.744 29.2143 20.8877 29.1082 21.0257 28.9942C21.1648 28.8801 21.2971 28.7604 21.4237 28.6338C21.5503 28.5072 21.67 28.3749 21.7829 28.2358C21.897 28.0978 22.0031 27.9541 22.1023 27.8047C22.2015 27.6553 22.2939 27.5024 22.3783 27.3439C22.4627 27.1865 22.5391 27.0246 22.6075 26.8592C22.6759 26.6938 22.7352 26.5251 22.7877 26.3528C22.839 26.1818 22.8824 26.0084 22.9177 25.8328C22.9531 25.6571 22.9793 25.4804 22.9964 25.3013C23.0135 25.1234 23.0226 24.9444 23.0226 24.7653V22.0293H24.8428V24.7653C24.8428 25.0037 24.8303 25.242 24.8075 25.4804C24.7835 25.7176 24.7482 25.9537 24.7014 26.1875C24.6547 26.4224 24.5965 26.6539 24.5269 26.882C24.4585 27.1101 24.3775 27.3348 24.2863 27.556C24.1951 27.7762 24.0935 27.9917 23.9806 28.2027C23.8677 28.4125 23.7457 28.6178 23.6134 28.8163C23.4811 29.0147 23.3386 29.2063 23.188 29.3911C23.0363 29.5758 22.8767 29.7515 22.7079 29.9214C22.5391 30.0902 22.3634 30.2498 22.1787 30.4015C21.9939 30.5532 21.8035 30.6946 21.605 30.8281C21.4066 30.9604 21.2024 31.0835 20.9926 31.1964C20.7827 31.3082 20.5672 31.4108 20.3471 31.5021C20.127 31.5933 19.9023 31.6743 19.6742 31.7439C19.4461 31.8134 19.2157 31.8716 18.9819 31.9184C18.7481 31.9651 18.5132 32.0005 18.276 32.0244C18.0388 32.0472 17.8004 32.0598 17.562 32.0598Z" fill="#0D313B"/>
<path d="M31.2131 55.7668H3.91014C3.78925 55.7668 3.67292 55.744 3.56229 55.6972C3.45053 55.6516 3.35244 55.5854 3.26691 55.4999C3.18137 55.4144 3.11523 55.3151 3.06961 55.2034C3.02285 55.0916 3.00004 54.9764 3.00004 54.8544V43.0014C2.9989 42.6308 3.02399 42.2613 3.07531 41.894C3.12663 41.5268 3.20418 41.1653 3.30797 40.8094C3.41061 40.4536 3.53834 40.1069 3.69117 39.7682C3.84399 39.4306 4.01962 39.1056 4.21921 38.7931C4.41879 38.4806 4.6389 38.1841 4.88068 37.9035C5.12132 37.6218 5.38249 37.3595 5.66077 37.1166C5.94018 36.8725 6.23443 36.6501 6.54578 36.4483C6.85599 36.2475 7.17988 36.0685 7.51632 35.9134L13.9212 32.5855V30.2361H15.7414V33.1409C15.7414 33.3108 15.697 33.4693 15.6091 33.6142C15.5202 33.7602 15.4004 33.8719 15.2499 33.9495L8.35343 37.5306C8.09112 37.648 7.84022 37.7849 7.59729 37.9389C7.35551 38.0928 7.12514 38.2639 6.90845 38.4509C6.69062 38.6391 6.48761 38.841 6.29829 39.0577C6.11011 39.2744 5.9379 39.5024 5.78166 39.7442C5.62541 39.986 5.48741 40.2369 5.36766 40.4981C5.24791 40.7593 5.14755 41.0273 5.06658 41.3033C4.98446 41.5793 4.92402 41.8587 4.88296 42.1438C4.84076 42.4278 4.82024 42.714 4.82024 43.0014V53.9432H30.303V43.0014C30.303 42.714 30.2825 42.4278 30.2403 42.1438C30.1992 41.8587 30.1388 41.5793 30.0567 41.3033C29.9757 41.0273 29.8753 40.7593 29.7556 40.4981C29.6347 40.2369 29.4978 39.986 29.3416 39.7442C29.1854 39.5024 29.0131 39.2744 28.825 39.0577C28.6356 38.841 28.4326 38.6391 28.2148 38.4509C27.9981 38.2639 27.7677 38.0928 27.526 37.9389C27.283 37.7849 27.0321 37.648 26.7698 37.5306L19.8734 33.9495C19.7228 33.8719 19.6031 33.7602 19.5141 33.6142C19.4263 33.4693 19.3818 33.3108 19.3818 33.1409V30.2361H21.202V32.5855L27.6069 35.9134C27.9434 36.0685 28.2673 36.2475 28.5775 36.4483C28.8888 36.6501 29.1831 36.8725 29.4625 37.1166C29.7408 37.3595 30.0019 37.6218 30.2426 37.9035C30.4844 38.1841 30.7045 38.4806 30.9041 38.7931C31.1036 39.1056 31.2793 39.4306 31.4321 39.7682C31.5849 40.1069 31.7127 40.4536 31.8153 40.8094C31.9191 41.1653 31.9966 41.5268 32.048 41.894C32.0993 42.2613 32.1244 42.6308 32.1232 43.0014V54.8544C32.1232 54.9764 32.1004 55.0916 32.0537 55.2034C32.008 55.3151 31.9419 55.4144 31.8564 55.4999C31.7708 55.5854 31.6727 55.6516 31.561 55.6972C31.4503 55.744 31.334 55.7668 31.2131 55.7668Z" fill="#0D313B"/>
<path d="M7.55078 48.4724H9.37098V54.8545H7.55078V48.4724Z" fill="#0D313B"/>
<path d="M25.7539 48.4724H27.5741V54.8545H25.7539V48.4724Z" fill="#0D313B"/>
<path d="M7.55078 21.1182H27.573V22.9418H7.55078V21.1182Z" fill="#0D313B"/>
<path d="M25.7529 22.0293H23.9327V20.2057C23.9327 19.997 23.9224 19.7883 23.9019 19.5807C23.8814 19.3732 23.8506 19.1656 23.8107 18.9615C23.7696 18.7562 23.7194 18.5532 23.6578 18.3536C23.5974 18.154 23.5278 17.9567 23.448 17.764C23.3682 17.5701 23.2792 17.3819 23.18 17.1971C23.0819 17.0135 22.9747 16.8345 22.8595 16.66C22.7432 16.4866 22.6189 16.319 22.4866 16.157C22.3543 15.9951 22.214 15.8411 22.0669 15.6929C21.9197 15.5457 21.7646 15.4055 21.6038 15.272C21.4419 15.1397 21.2754 15.0154 21.1009 14.8991C20.9275 14.7828 20.7496 14.6756 20.5649 14.5775C20.3812 14.4783 20.1931 14.3893 20.0003 14.3095C19.8076 14.2296 19.6114 14.1589 19.4118 14.0985C19.2111 14.038 19.0093 13.9867 18.8051 13.9468C18.5998 13.9057 18.3945 13.8749 18.187 13.8544C17.9783 13.8339 17.7707 13.8236 17.562 13.8236C17.3533 13.8236 17.1457 13.8339 16.937 13.8544C16.7294 13.8749 16.5242 13.9057 16.3189 13.9468C16.1147 13.9867 15.9129 14.038 15.7121 14.0985C15.5126 14.1589 15.3164 14.2296 15.1237 14.3095C14.9309 14.3893 14.7427 14.4783 14.5591 14.5775C14.3744 14.6756 14.1964 14.7828 14.0231 14.8991C13.8486 15.0154 13.6821 15.1397 13.5201 15.272C13.3593 15.4055 13.2042 15.5457 13.0571 15.6929C12.91 15.8411 12.7697 15.9951 12.6374 16.157C12.5051 16.319 12.3808 16.4866 12.2645 16.66C12.1493 16.8345 12.0421 17.0135 11.944 17.1971C11.8448 17.3819 11.7558 17.5701 11.676 17.764C11.5962 17.9567 11.5266 18.154 11.4661 18.3536C11.4046 18.5532 11.3544 18.7562 11.3133 18.9615C11.2734 19.1656 11.2426 19.3732 11.2221 19.5807C11.2016 19.7883 11.1913 19.997 11.1913 20.2057V22.0293H9.37109V20.2057C9.37109 19.9377 9.38478 19.6697 9.41101 19.4017C9.43724 19.1348 9.47602 18.8691 9.52848 18.6056C9.58094 18.3422 9.64595 18.081 9.7235 17.8244C9.80219 17.5667 9.89229 17.3146 9.99493 17.066C10.0976 16.8174 10.2116 16.5744 10.3382 16.3384C10.4648 16.1012 10.6028 15.8708 10.7511 15.6472C10.9005 15.4237 11.0601 15.2082 11.2301 15.0006C11.4 14.793 11.5802 14.5934 11.7707 14.4041C11.96 14.2137 12.1584 14.0335 12.366 13.8624C12.5735 13.6925 12.788 13.5328 13.0115 13.3834C13.2339 13.234 13.4643 13.096 13.7003 12.9694C13.9376 12.8428 14.1793 12.7276 14.428 12.625C14.6754 12.5223 14.9275 12.4311 15.1841 12.3535C15.4407 12.2749 15.7007 12.2098 15.9642 12.1574C16.2276 12.1049 16.4922 12.0661 16.7591 12.0399C17.026 12.0137 17.294 12 17.562 12C17.83 12 18.098 12.0137 18.3649 12.0399C18.6318 12.0661 18.8963 12.1049 19.1598 12.1574C19.4232 12.2098 19.6833 12.2749 19.9399 12.3535C20.1965 12.4311 20.4485 12.5223 20.696 12.625C20.9446 12.7276 21.1864 12.8428 21.4236 12.9694C21.6597 13.096 21.8901 13.234 22.1125 13.3834C22.336 13.5328 22.5504 13.6925 22.758 13.8624C22.9656 14.0335 23.164 14.2137 23.3533 14.4041C23.5438 14.5934 23.724 14.793 23.8939 15.0006C24.0638 15.2082 24.2235 15.4237 24.3729 15.6472C24.5212 15.8708 24.6592 16.1012 24.7858 16.3384C24.9124 16.5744 25.0264 16.8174 25.129 17.066C25.2317 17.3146 25.3218 17.5667 25.4005 17.8244C25.478 18.081 25.543 18.3422 25.5955 18.6056C25.648 18.8691 25.6867 19.1348 25.713 19.4017C25.7392 19.6697 25.7529 19.9377 25.7529 20.2057V22.0293Z" fill="#0D313B"/>
<path d="M13.0332 14.021L14.8112 13.6252L16.6314 21.8321L14.8534 22.2279L13.0332 14.021Z" fill="#0D313B"/>
<path d="M18.4941 21.8332L20.3121 13.6252L22.0901 14.021L20.2721 22.2279L18.4941 21.8332Z" fill="#0D313B"/>
<path d="M19.3831 37.5306H15.7427C15.4918 37.5306 15.2774 37.4417 15.0994 37.2638L12.3691 34.5278L13.6556 33.239L16.119 35.707H19.0067L21.4701 33.239L22.7566 34.5278L20.0263 37.2638C19.8484 37.4417 19.634 37.5306 19.3831 37.5306Z" fill="#0D313B"/>
<path d="M16.6523 36.6184H18.4725V41.178H16.6523V36.6184Z" fill="#0D313B"/>
<path d="M16.6523 43.0015H18.4725V44.8251H16.6523V43.0015Z" fill="#0D313B"/>
<path d="M55.562 32.0598C55.3237 32.0598 55.0853 32.0472 54.8481 32.0244C54.6109 32.0005 54.376 31.9651 54.1422 31.9184C53.9084 31.8716 53.678 31.8134 53.4499 31.7439C53.2218 31.6743 52.9971 31.5933 52.777 31.5021C52.5569 31.4108 52.3413 31.3082 52.1315 31.1964C51.9216 31.0835 51.7175 30.9604 51.5191 30.8281C51.3206 30.6946 51.1302 30.5532 50.9454 30.4015C50.7606 30.2498 50.585 30.0902 50.4162 29.9214C50.2474 29.7515 50.0878 29.5758 49.9361 29.3911C49.7855 29.2063 49.643 29.0147 49.5107 28.8163C49.3784 28.6178 49.2564 28.4125 49.1434 28.2027C49.0305 27.9917 48.929 27.7762 48.8378 27.556C48.7466 27.3348 48.6656 27.1101 48.5972 26.882C48.5276 26.6539 48.4694 26.4224 48.4227 26.1875C48.3759 25.9537 48.3406 25.7176 48.3166 25.4804C48.2938 25.242 48.2812 25.0037 48.2812 24.7653V22.0293H50.1014V24.7653C50.1014 24.9444 50.1106 25.1234 50.1277 25.3013C50.1448 25.4804 50.171 25.6571 50.2064 25.8328C50.2417 26.0084 50.2851 26.1818 50.3364 26.3528C50.3888 26.5251 50.4482 26.6938 50.5166 26.8592C50.585 27.0246 50.6614 27.1865 50.7458 27.3439C50.8302 27.5024 50.9226 27.6553 51.0218 27.8047C51.121 27.9541 51.2271 28.0978 51.3411 28.2358C51.4541 28.3749 51.5738 28.5072 51.7004 28.6338C51.827 28.7604 51.9593 28.8801 52.0984 28.9942C52.2364 29.1082 52.3801 29.2143 52.5284 29.3147C52.6766 29.4139 52.8306 29.5063 52.988 29.5907C53.1454 29.675 53.3073 29.7515 53.4727 29.8199C53.6381 29.8883 53.8057 29.9488 53.9768 30.0001C54.1479 30.0525 54.3212 30.0959 54.4968 30.1312C54.6725 30.1654 54.8492 30.1917 55.0272 30.2099C55.2051 30.227 55.383 30.2362 55.562 30.2362C55.7411 30.2362 55.919 30.227 56.0969 30.2099C56.2748 30.1917 56.4516 30.1654 56.6273 30.1312C56.8029 30.0959 56.9762 30.0525 57.1473 30.0001C57.3184 29.9488 57.486 29.8883 57.6514 29.8199C57.8168 29.7515 57.9787 29.675 58.1361 29.5907C58.2935 29.5063 58.4474 29.4139 58.5957 29.3147C58.744 29.2143 58.8877 29.1082 59.0257 28.9942C59.1648 28.8801 59.2971 28.7604 59.4237 28.6338C59.5503 28.5072 59.67 28.3749 59.7829 28.2358C59.897 28.0978 60.0031 27.9541 60.1023 27.8047C60.2015 27.6553 60.2939 27.5024 60.3783 27.3439C60.4627 27.1865 60.5391 27.0246 60.6075 26.8592C60.6759 26.6938 60.7352 26.5251 60.7877 26.3528C60.839 26.1818 60.8824 26.0084 60.9177 25.8328C60.9531 25.6571 60.9793 25.4804 60.9964 25.3013C61.0135 25.1234 61.0226 24.9444 61.0226 24.7653V22.0293H62.8428V24.7653C62.8428 25.0037 62.8303 25.242 62.8075 25.4804C62.7835 25.7176 62.7482 25.9537 62.7014 26.1875C62.6547 26.4224 62.5965 26.6539 62.5269 26.882C62.4585 27.1101 62.3775 27.3348 62.2863 27.556C62.1951 27.7762 62.0935 27.9917 61.9806 28.2027C61.8677 28.4125 61.7457 28.6178 61.6134 28.8163C61.4811 29.0147 61.3386 29.2063 61.188 29.3911C61.0363 29.5758 60.8767 29.7515 60.7079 29.9214C60.5391 30.0902 60.3634 30.2498 60.1787 30.4015C59.9939 30.5532 59.8035 30.6946 59.605 30.8281C59.4066 30.9604 59.2024 31.0835 58.9926 31.1964C58.7827 31.3082 58.5672 31.4108 58.3471 31.5021C58.127 31.5933 57.9023 31.6743 57.6742 31.7439C57.4461 31.8134 57.2157 31.8716 56.9819 31.9184C56.7481 31.9651 56.5132 32.0005 56.276 32.0244C56.0388 32.0472 55.8004 32.0598 55.562 32.0598Z" fill="#0D313B"/>
<path d="M69.2131 55.7668H41.9101C41.7892 55.7668 41.6729 55.744 41.5623 55.6972C41.4505 55.6516 41.3524 55.5854 41.2669 55.4999C41.1814 55.4144 41.1152 55.3151 41.0696 55.2034C41.0228 55.0916 41 54.9764 41 54.8544V43.0014C40.9989 42.6308 41.024 42.2613 41.0753 41.894C41.1266 41.5268 41.2042 41.1653 41.308 40.8094C41.4106 40.4536 41.5383 40.1069 41.6912 39.7682C41.844 39.4306 42.0196 39.1056 42.2192 38.7931C42.4188 38.4806 42.6389 38.1841 42.8807 37.9035C43.1213 37.6218 43.3825 37.3595 43.6608 37.1166C43.9402 36.8725 44.2344 36.6501 44.5458 36.4483C44.856 36.2475 45.1799 36.0685 45.5163 35.9134L51.9212 32.5855V30.2361H53.7414V33.1409C53.7414 33.3108 53.697 33.4693 53.6091 33.6142C53.5202 33.7602 53.4004 33.8719 53.2499 33.9495L46.3534 37.5306C46.0911 37.648 45.8402 37.7849 45.5973 37.9389C45.3555 38.0928 45.1251 38.2639 44.9084 38.4509C44.6906 38.6391 44.4876 38.841 44.2983 39.0577C44.1101 39.2744 43.9379 39.5024 43.7817 39.7442C43.6254 39.986 43.4874 40.2369 43.3677 40.4981C43.2479 40.7593 43.1476 41.0273 43.0666 41.3033C42.9845 41.5793 42.924 41.8587 42.883 42.1438C42.8408 42.4278 42.8202 42.714 42.8202 43.0014V53.9432H68.303V43.0014C68.303 42.714 68.2825 42.4278 68.2403 42.1438C68.1992 41.8587 68.1388 41.5793 68.0567 41.3033C67.9757 41.0273 67.8753 40.7593 67.7556 40.4981C67.6347 40.2369 67.4978 39.986 67.3416 39.7442C67.1854 39.5024 67.0131 39.2744 66.825 39.0577C66.6356 38.841 66.4326 38.6391 66.2148 38.4509C65.9981 38.2639 65.7677 38.0928 65.526 37.9389C65.283 37.7849 65.0321 37.648 64.7698 37.5306L57.8734 33.9495C57.7228 33.8719 57.6031 33.7602 57.5141 33.6142C57.4263 33.4693 57.3818 33.3108 57.3818 33.1409V30.2361H59.202V32.5855L65.6069 35.9134C65.9434 36.0685 66.2673 36.2475 66.5775 36.4483C66.8888 36.6501 67.1831 36.8725 67.4625 37.1166C67.7408 37.3595 68.0019 37.6218 68.2426 37.9035C68.4844 38.1841 68.7045 38.4806 68.9041 38.7931C69.1036 39.1056 69.2793 39.4306 69.4321 39.7682C69.5849 40.1069 69.7127 40.4536 69.8153 40.8094C69.9191 41.1653 69.9966 41.5268 70.048 41.894C70.0993 42.2613 70.1244 42.6308 70.1232 43.0014V54.8544C70.1232 54.9764 70.1004 55.0916 70.0537 55.2034C70.008 55.3151 69.9419 55.4144 69.8564 55.4999C69.7708 55.5854 69.6727 55.6516 69.561 55.6972C69.4503 55.744 69.334 55.7668 69.2131 55.7668Z" fill="#0D313B"/>
<path d="M45.5508 48.4724H47.371V54.8545H45.5508V48.4724Z" fill="#0D313B"/>
<path d="M63.752 48.4724H65.5722V54.8545H63.752V48.4724Z" fill="#0D313B"/>
<path d="M45.5508 21.1182H65.573V22.9418H45.5508V21.1182Z" fill="#0D313B"/>
<path d="M63.7509 22.0293H61.9307V20.2057C61.9307 19.997 61.9205 19.7883 61.8999 19.5807C61.8794 19.3732 61.8486 19.1656 61.8087 18.9615C61.7676 18.7562 61.7175 18.5532 61.6559 18.3536C61.5954 18.154 61.5259 17.9567 61.446 17.764C61.3662 17.5701 61.2772 17.3819 61.178 17.1971C61.0799 17.0135 60.9727 16.8345 60.8575 16.66C60.7412 16.4866 60.6169 16.319 60.4846 16.157C60.3523 15.9951 60.212 15.8411 60.0649 15.6929C59.9178 15.5457 59.7627 15.4055 59.6019 15.272C59.4399 15.1397 59.2734 15.0154 59.0989 14.8991C58.9256 14.7828 58.7477 14.6756 58.5629 14.5775C58.3793 14.4783 58.1911 14.3893 57.9984 14.3095C57.8056 14.2296 57.6095 14.1589 57.4099 14.0985C57.2092 14.038 57.0073 13.9867 56.8032 13.9468C56.5979 13.9057 56.3926 13.8749 56.185 13.8544C55.9763 13.8339 55.7687 13.8236 55.56 13.8236C55.3513 13.8236 55.1438 13.8339 54.9351 13.8544C54.7275 13.8749 54.5222 13.9057 54.3169 13.9468C54.1128 13.9867 53.9109 14.038 53.7102 14.0985C53.5106 14.1589 53.3144 14.2296 53.1217 14.3095C52.929 14.3893 52.7408 14.4783 52.5572 14.5775C52.3724 14.6756 52.1945 14.7828 52.0211 14.8991C51.8466 15.0154 51.6801 15.1397 51.5182 15.272C51.3574 15.4055 51.2023 15.5457 51.0552 15.6929C50.908 15.8411 50.7678 15.9951 50.6355 16.157C50.5032 16.319 50.3789 16.4866 50.2625 16.66C50.1473 16.8345 50.0401 17.0135 49.9421 17.1971C49.8428 17.3819 49.7539 17.5701 49.674 17.764C49.5942 17.9567 49.5246 18.154 49.4642 18.3536C49.4026 18.5532 49.3524 18.7562 49.3114 18.9615C49.2715 19.1656 49.2407 19.3732 49.2201 19.5807C49.1996 19.7883 49.1893 19.997 49.1893 20.2057V22.0293H47.3691V20.2057C47.3691 19.9377 47.3828 19.6697 47.4091 19.4017C47.4353 19.1348 47.4741 18.8691 47.5265 18.6056C47.579 18.3422 47.644 18.081 47.7215 17.8244C47.8002 17.5667 47.8903 17.3146 47.993 17.066C48.0956 16.8174 48.2097 16.5744 48.3363 16.3384C48.4629 16.1012 48.6009 15.8708 48.7491 15.6472C48.8985 15.4237 49.0582 15.2082 49.2281 15.0006C49.398 14.793 49.5782 14.5934 49.7687 14.4041C49.958 14.2137 50.1565 14.0335 50.364 13.8624C50.5716 13.6925 50.786 13.5328 51.0095 13.3834C51.2319 13.234 51.4623 13.096 51.6984 12.9694C51.9356 12.8428 52.1774 12.7276 52.426 12.625C52.6735 12.5223 52.9255 12.4311 53.1821 12.3535C53.4388 12.2749 53.6988 12.2098 53.9622 12.1574C54.2257 12.1049 54.4903 12.0661 54.7571 12.0399C55.024 12.0137 55.292 12 55.56 12C55.828 12 56.0961 12.0137 56.3629 12.0399C56.6298 12.0661 56.8944 12.1049 57.1578 12.1574C57.4213 12.2098 57.6813 12.2749 57.9379 12.3535C58.1945 12.4311 58.4466 12.5223 58.6941 12.625C58.9427 12.7276 59.1845 12.8428 59.4217 12.9694C59.6578 13.096 59.8881 13.234 60.1105 13.3834C60.3341 13.5328 60.5485 13.6925 60.756 13.8624C60.9636 14.0335 61.1621 14.2137 61.3514 14.4041C61.5418 14.5934 61.722 14.793 61.892 15.0006C62.0619 15.2082 62.2216 15.4237 62.371 15.6472C62.5192 15.8708 62.6572 16.1012 62.7838 16.3384C62.9104 16.5744 63.0244 16.8174 63.1271 17.066C63.2297 17.3146 63.3198 17.5667 63.3985 17.8244C63.4761 18.081 63.5411 18.3422 63.5935 18.6056C63.646 18.8691 63.6848 19.1348 63.711 19.4017C63.7372 19.6697 63.7509 19.9377 63.7509 20.2057V22.0293Z" fill="#0D313B"/>
<path d="M51.0332 14.021L52.8112 13.6252L54.6314 21.8321L52.8534 22.2279L51.0332 14.021Z" fill="#0D313B"/>
<path d="M56.4941 21.8332L58.3121 13.6252L60.0901 14.021L58.2721 22.2279L56.4941 21.8332Z" fill="#0D313B"/>
<path d="M57.3811 37.5306H53.7407C53.4898 37.5306 53.2754 37.4417 53.0975 37.2638L50.3672 34.5278L51.6536 33.239L54.1171 35.707H57.0048L59.4682 33.239L60.7546 34.5278L58.0243 37.2638C57.8464 37.4417 57.632 37.5306 57.3811 37.5306Z" fill="#0D313B"/>
<path d="M54.6523 36.6184H56.4725V41.178H54.6523V36.6184Z" fill="#0D313B"/>
<path d="M54.6523 43.0015H56.4725V44.8251H54.6523V43.0015Z" fill="#0D313B"/>
<path d="M23.1466 43.1154L26.9078 40.3799L31.3529 38.3284L35.1141 40.7219L38.5334 40.3799L40.9269 38.3284L48.4494 41.7477L49.4751 46.1927L49.1332 57.8183H23.1466L22.8047 50.6378L23.1466 43.1154Z" fill="#1B6278"/>
<path d="M36.3394 35.479C36.101 35.479 35.8627 35.4664 35.6255 35.4436C35.3882 35.4197 35.1533 35.3843 34.9195 35.3376C34.6857 35.2908 34.4553 35.2326 34.2272 35.1631C33.9991 35.0935 33.7745 35.0125 33.5543 34.9213C33.3342 34.83 33.1187 34.7274 32.9088 34.6156C32.699 34.5027 32.4948 34.3796 32.2964 34.2473C32.098 34.1138 31.9075 33.9724 31.7227 33.8207C31.538 33.669 31.3624 33.5094 31.1936 33.3406C31.0248 33.1706 30.8651 32.995 30.7134 32.8103C30.5629 32.6255 30.4203 32.4339 30.288 32.2355C30.1557 32.037 30.0337 31.8317 29.9208 31.6219C29.8079 31.4109 29.7064 31.1953 29.6151 30.9752C29.5239 30.754 29.4429 30.5293 29.3745 30.3012C29.3049 30.0731 29.2468 29.8416 29.2 29.6067C29.1533 29.3729 29.1179 29.1368 29.0939 28.8996C29.0711 28.6612 29.0586 28.4228 29.0586 28.1845V25.4485H30.8788V28.1845C30.8788 28.3635 30.8879 28.5426 30.905 28.7205C30.9221 28.8996 30.9484 29.0763 30.9837 29.252C31.0191 29.4276 31.0624 29.601 31.1137 29.772C31.1662 29.9442 31.2255 30.113 31.2939 30.2784C31.3624 30.4438 31.4388 30.6057 31.5232 30.7631C31.6076 30.9216 31.6999 31.0745 31.7992 31.2239C31.8984 31.3733 32.0044 31.517 32.1185 31.655C32.2314 31.7941 32.3511 31.9264 32.4777 32.053C32.6043 32.1796 32.7366 32.2993 32.8758 32.4134C33.0138 32.5274 33.1575 32.6335 33.3057 32.7338C33.454 32.8331 33.608 32.9254 33.7653 33.0098C33.9227 33.0942 34.0847 33.1706 34.25 33.2391C34.4154 33.3075 34.5831 33.3679 34.7541 33.4193C34.9252 33.4717 35.0986 33.5151 35.2742 33.5504C35.4498 33.5846 35.6266 33.6109 35.8045 33.6291C35.9824 33.6462 36.1603 33.6553 36.3394 33.6553C36.5184 33.6553 36.6964 33.6462 36.8743 33.6291C37.0522 33.6109 37.229 33.5846 37.4046 33.5504C37.5802 33.5151 37.7536 33.4717 37.9247 33.4193C38.0957 33.3679 38.2634 33.3075 38.4287 33.2391C38.5941 33.1706 38.7561 33.0942 38.9134 33.0098C39.0708 32.9254 39.2248 32.8331 39.3731 32.7338C39.5213 32.6335 39.665 32.5274 39.803 32.4134C39.9422 32.2993 40.0744 32.1796 40.201 32.053C40.3276 31.9264 40.4474 31.7941 40.5603 31.655C40.6743 31.517 40.7804 31.3733 40.8796 31.2239C40.9788 31.0745 41.0712 30.9216 41.1556 30.7631C41.24 30.6057 41.3164 30.4438 41.3849 30.2784C41.4533 30.113 41.5126 29.9442 41.565 29.772C41.6164 29.601 41.6597 29.4276 41.6951 29.252C41.7304 29.0763 41.7566 28.8996 41.7738 28.7205C41.7909 28.5426 41.8 28.3635 41.8 28.1845V25.4485H43.6202V28.1845C43.6202 28.4228 43.6076 28.6612 43.5848 28.8996C43.5609 29.1368 43.5255 29.3729 43.4788 29.6067C43.432 29.8416 43.3738 30.0731 43.3043 30.3012C43.2358 30.5293 43.1549 30.754 43.0636 30.9752C42.9724 31.1953 42.8709 31.4109 42.758 31.6219C42.6451 31.8317 42.523 32.037 42.3908 32.2355C42.2585 32.4339 42.1159 32.6255 41.9654 32.8103C41.8137 32.995 41.654 33.1706 41.4852 33.3406C41.3164 33.5094 41.1408 33.669 40.956 33.8207C40.7713 33.9724 40.5808 34.1138 40.3824 34.2473C40.1839 34.3796 39.9798 34.5027 39.7699 34.6156C39.5601 34.7274 39.3445 34.83 39.1244 34.9213C38.9043 35.0125 38.6796 35.0935 38.4516 35.1631C38.2235 35.2326 37.9931 35.2908 37.7593 35.3376C37.5255 35.3843 37.2905 35.4197 37.0533 35.4436C36.8161 35.4664 36.5777 35.479 36.3394 35.479Z" fill="#0D313B"/>
<path d="M49.9905 59.186H22.6875C22.5666 59.186 22.4503 59.1631 22.3396 59.1164C22.2279 59.0708 22.1298 59.0046 22.0443 58.9191C21.9587 58.8336 21.8926 58.7343 21.8469 58.6226C21.8002 58.5108 21.7774 58.3956 21.7774 58.2736V46.4206C21.7762 46.05 21.8013 45.6804 21.8527 45.3132C21.904 44.946 21.9815 44.5845 22.0853 44.2286C22.188 43.8728 22.3157 43.5261 22.4685 43.1874C22.6213 42.8498 22.797 42.5248 22.9965 42.2123C23.1961 41.8998 23.4162 41.6032 23.658 41.3227C23.8987 41.041 24.1598 40.7787 24.4381 40.5358C24.7175 40.2917 25.0118 40.0693 25.3231 39.8674C25.6333 39.6667 25.9572 39.4877 26.2937 39.3326L32.6986 36.0047V33.6553H34.5188V36.5601C34.5188 36.73 34.4743 36.8885 34.3865 37.0334C34.2975 37.1793 34.1778 37.2911 34.0272 37.3687L27.1308 40.9498C26.8685 41.0672 26.6176 41.2041 26.3746 41.358C26.1329 41.512 25.9025 41.6831 25.6858 41.8701C25.468 42.0583 25.265 42.2602 25.0756 42.4769C24.8875 42.6935 24.7152 42.9216 24.559 43.1634C24.4028 43.4052 24.2648 43.6561 24.145 43.9173C24.0253 44.1784 23.9249 44.4465 23.8439 44.7224C23.7618 44.9984 23.7014 45.2779 23.6603 45.563C23.6181 45.847 23.5976 46.1332 23.5976 46.4206V57.3623H49.0804V46.4206C49.0804 46.1332 49.0598 45.847 49.0176 45.563C48.9766 45.2779 48.9161 44.9984 48.834 44.7224C48.753 44.4465 48.6527 44.1784 48.5329 43.9173C48.412 43.6561 48.2752 43.4052 48.1189 43.1634C47.9627 42.9216 47.7905 42.6935 47.6023 42.4769C47.413 42.2602 47.21 42.0583 46.9922 41.8701C46.7755 41.6831 46.5451 41.512 46.3033 41.358C46.0604 41.2041 45.8095 41.0672 45.5472 40.9498L38.6507 37.3687C38.5002 37.2911 38.3804 37.1793 38.2915 37.0334C38.2037 36.8885 38.1592 36.73 38.1592 36.5601V33.6553H39.9794V36.0047L46.3843 39.3326C46.7207 39.4877 47.0446 39.6667 47.3548 39.8674C47.6662 40.0693 47.9604 40.2917 48.2398 40.5358C48.5181 40.7787 48.7793 41.041 49.0199 41.3227C49.2617 41.6032 49.4818 41.8998 49.6814 42.2123C49.881 42.5248 50.0566 42.8498 50.2094 43.1874C50.3623 43.5261 50.49 43.8728 50.5926 44.2286C50.6964 44.5845 50.774 44.946 50.8253 45.3132C50.8766 45.6804 50.9017 46.05 50.9006 46.4206V58.2736C50.9006 58.3956 50.8778 58.5108 50.831 58.6226C50.7854 58.7343 50.7192 58.8336 50.6337 58.9191C50.5482 59.0046 50.4501 59.0708 50.3383 59.1164C50.2277 59.1631 50.1114 59.186 49.9905 59.186Z" fill="#0D313B"/>
<path d="M26.3281 51.8916H28.1483V58.2737H26.3281V51.8916Z" fill="#0D313B"/>
<path d="M44.5312 51.8916H46.3514V58.2737H44.5312V51.8916Z" fill="#0D313B"/>
<path d="M26.3281 24.5374H46.3503V26.361H26.3281V24.5374Z" fill="#0D313B"/>
<path d="M44.5302 25.4485H42.71V23.6249C42.71 23.4162 42.6998 23.2075 42.6792 22.9999C42.6587 22.7924 42.6279 22.5848 42.588 22.3807C42.5469 22.1754 42.4968 21.9724 42.4352 21.7728C42.3747 21.5732 42.3052 21.3759 42.2253 21.1832C42.1455 20.9893 42.0565 20.8011 41.9573 20.6163C41.8592 20.4327 41.752 20.2537 41.6368 20.0792C41.5205 19.9058 41.3962 19.7382 41.2639 19.5762C41.1316 19.4143 40.9913 19.2603 40.8442 19.112C40.6971 18.9649 40.542 18.8246 40.3812 18.6912C40.2192 18.5589 40.0527 18.4346 39.8782 18.3183C39.7049 18.202 39.527 18.0947 39.3422 17.9967C39.1586 17.8974 38.9704 17.8085 38.7777 17.7287C38.5849 17.6488 38.3888 17.5781 38.1892 17.5177C37.9885 17.4572 37.7866 17.4059 37.5825 17.366C37.3772 17.3249 37.1719 17.2941 36.9643 17.2736C36.7556 17.2531 36.548 17.2428 36.3393 17.2428C36.1306 17.2428 35.9231 17.2531 35.7144 17.2736C35.5068 17.2941 35.3015 17.3249 35.0962 17.366C34.8921 17.4059 34.6902 17.4572 34.4895 17.5177C34.2899 17.5781 34.0937 17.6488 33.901 17.7287C33.7083 17.8085 33.5201 17.8974 33.3365 17.9967C33.1517 18.0947 32.9738 18.202 32.8004 18.3183C32.6259 18.4346 32.4594 18.5589 32.2975 18.6912C32.1367 18.8246 31.9816 18.9649 31.8345 19.112C31.6873 19.2603 31.5471 19.4143 31.4148 19.5762C31.2825 19.7382 31.1582 19.9058 31.0418 20.0792C30.9266 20.2537 30.8194 20.4327 30.7214 20.6163C30.6221 20.8011 30.5332 20.9893 30.4533 21.1832C30.3735 21.3759 30.3039 21.5732 30.2435 21.7728C30.1819 21.9724 30.1317 22.1754 30.0907 22.3807C30.0508 22.5848 30.02 22.7924 29.9994 22.9999C29.9789 23.2075 29.9686 23.4162 29.9686 23.6249V25.4485H28.1484V23.6249C28.1484 23.3569 28.1621 23.0889 28.1884 22.8209C28.2146 22.554 28.2534 22.2883 28.3058 22.0248C28.3583 21.7614 28.4233 21.5002 28.5008 21.2436C28.5795 20.9859 28.6696 20.7338 28.7723 20.4852C28.8749 20.2366 28.989 19.9936 29.1156 19.7576C29.2422 19.5203 29.3802 19.29 29.5284 19.0664C29.6778 18.8429 29.8375 18.6273 30.0074 18.4198C30.1773 18.2122 30.3575 18.0126 30.548 17.8233C30.7373 17.6329 30.9358 17.4527 31.1433 17.2816C31.3509 17.1117 31.5653 16.952 31.7888 16.8026C32.0112 16.6532 32.2416 16.5152 32.4777 16.3886C32.7149 16.262 32.9567 16.1468 33.2053 16.0442C33.4528 15.9415 33.7048 15.8503 33.9614 15.7727C34.218 15.694 34.4781 15.629 34.7415 15.5766C35.005 15.5241 35.2696 15.4853 35.5364 15.4591C35.8033 15.4329 36.0713 15.4192 36.3393 15.4192C36.6073 15.4192 36.8754 15.4329 37.1422 15.4591C37.4091 15.4853 37.6737 15.5241 37.9371 15.5766C38.2006 15.629 38.4606 15.694 38.7172 15.7727C38.9738 15.8503 39.2259 15.9415 39.4734 16.0442C39.722 16.1468 39.9638 16.262 40.201 16.3886C40.4371 16.5152 40.6674 16.6532 40.8898 16.8026C41.1134 16.952 41.3278 17.1117 41.5353 17.2816C41.7429 17.4527 41.9413 17.6329 42.1307 17.8233C42.3211 18.0126 42.5013 18.2122 42.6713 18.4198C42.8412 18.6273 43.0009 18.8429 43.1503 19.0664C43.2985 19.29 43.4365 19.5203 43.5631 19.7576C43.6897 19.9936 43.8037 20.2366 43.9064 20.4852C44.009 20.7338 44.0991 20.9859 44.1778 21.2436C44.2554 21.5002 44.3204 21.7614 44.3728 22.0248C44.4253 22.2883 44.4641 22.554 44.4903 22.8209C44.5165 23.0889 44.5302 23.3569 44.5302 23.6249V25.4485Z" fill="#0D313B"/>
<path d="M31.8125 17.4402L33.5905 17.0444L35.4107 25.2513L33.6327 25.647L31.8125 17.4402Z" fill="#0D313B"/>
<path d="M37.2734 25.2524L39.0914 17.0444L40.8694 17.4402L39.0514 25.647L37.2734 25.2524Z" fill="#0D313B"/>
<path d="M38.1604 40.9498H34.52C34.2691 40.9498 34.0547 40.8609 33.8768 40.6829L31.1465 37.9469L32.4329 36.6582L34.8964 39.1262H37.7841L40.2475 36.6582L41.5339 37.9469L38.8036 40.6829C38.6257 40.8609 38.4113 40.9498 38.1604 40.9498Z" fill="#0D313B"/>
<path d="M35.4297 40.0376H37.2499V44.5972H35.4297V40.0376Z" fill="#0D313B"/>
<path d="M35.4297 46.4207H37.2499V48.2443H35.4297V46.4207Z" fill="#0D313B"/>
</svg>
