<svg width="72" height="72" viewBox="0 0 72 72" fill="none" xmlns="http://www.w3.org/2000/svg">
<g id="all-timesheet">
<g id="Group 1171275700">
<g id="Group 1171275697">
<g id="Group">
<g id="Vector">
<mask id="path-1-outside-1_6721_46673" maskUnits="userSpaceOnUse" x="7" y="7" width="58" height="58" fill="black">
<rect fill="white" x="7" y="7" width="58" height="58"/>
<path d="M62.3843 50.0533L56.7821 50.1487V9.18986C56.7821 9.03278 56.7513 8.88157 56.6911 8.73476C56.6309 8.58943 56.5458 8.4617 56.4342 8.35013C56.3226 8.23856 56.1935 8.15341 56.0481 8.09175C55.9028 8.03156 55.7516 8.0022 55.5945 8.0022C55.5284 8.0022 55.4638 8.0022 55.3978 8.0022C55.3346 7.99927 55.2715 7.99927 55.2084 8.0022H12.5921C12.2897 8.00367 11.9902 8.03303 11.6951 8.09322C11.3986 8.15341 11.1108 8.2415 10.8319 8.35894C10.553 8.47492 10.2887 8.61732 10.0377 8.78615C9.78664 8.95497 9.55469 9.14582 9.34182 9.36016C9.12895 9.57449 8.9381 9.80791 8.77074 10.059C8.60339 10.3115 8.46245 10.5772 8.34794 10.8561C8.23197 11.135 8.14535 11.4228 8.08663 11.7193C8.02937 12.0159 8.00001 12.3154 8.00001 12.6178V21.112C7.99855 21.4438 8.11452 21.7271 8.35088 21.962C8.59017 22.1895 8.87498 22.3026 9.20529 22.2996L14.8074 22.2057V63.1939C14.8074 63.351 14.8382 63.5022 14.8984 63.6475C14.9586 63.7928 15.0438 63.922 15.1553 64.0336C15.2669 64.1452 15.3961 64.2303 15.5414 64.2905C15.6868 64.3507 15.838 64.3815 15.9951 64.3815C16.1169 64.3801 16.2358 64.3595 16.3518 64.3214C16.4663 64.3595 16.5823 64.3801 16.7027 64.3815H58.9974C59.2999 64.3801 59.5994 64.3492 59.8944 64.2891C60.191 64.2303 60.4787 64.1408 60.7577 64.0248C61.0366 63.9088 61.3008 63.7664 61.5519 63.5976C61.8029 63.4288 62.0349 63.2365 62.2477 63.0236C62.4606 62.8092 62.6515 62.5758 62.8188 62.3248C62.9862 62.0723 63.1271 61.8066 63.2416 61.5276C63.3576 61.2487 63.4442 60.9595 63.5029 60.6644C63.5602 60.3679 63.5895 60.0684 63.5895 59.766V51.2409C63.591 50.9092 63.475 50.6258 63.2387 50.3924C62.9979 50.1678 62.7131 50.0548 62.3843 50.0533ZM16.6014 10.3775H54.4054V59.7366C54.4098 60.5338 54.608 61.281 54.9999 61.9754H17.1842V12.6178C17.1842 11.8206 16.9889 11.0748 16.6014 10.3775ZM14.8191 19.8289L10.3885 19.9067V12.6178C10.3885 12.4724 10.4018 12.3286 10.4311 12.1847C10.459 12.0423 10.5016 11.9043 10.5559 11.7692C10.6117 11.6356 10.6807 11.5079 10.7614 11.3861C10.8422 11.2657 10.9332 11.1527 11.0374 11.0499C11.1402 10.9471 11.2518 10.8561 11.3721 10.7754C11.494 10.6932 11.6217 10.6256 11.7553 10.5698C11.8904 10.5141 12.0284 10.4715 12.1708 10.4436C12.3146 10.4157 12.4585 10.401 12.6038 10.401C12.7492 10.401 12.8931 10.4157 13.0369 10.4436C13.1793 10.4715 13.3173 10.5141 13.4524 10.5698C13.586 10.6256 13.7137 10.6932 13.8355 10.7754C13.9559 10.8561 14.0675 10.9471 14.1703 11.0499C14.273 11.1527 14.3655 11.2657 14.4463 11.3861C14.527 11.5079 14.596 11.6356 14.6518 11.7692C14.7061 11.9043 14.7487 12.0423 14.7766 12.1847C14.8059 12.3286 14.8191 12.4724 14.8191 12.6178V19.8289ZM61.2128 59.7366C61.2128 59.8819 61.1995 60.0258 61.1702 60.1682C61.1423 60.3106 61.0997 60.4501 61.0439 60.5837C60.9896 60.7187 60.9206 60.8465 60.8399 60.9668C60.7591 61.0887 60.6666 61.2003 60.5639 61.303C60.4611 61.4058 60.3495 61.4983 60.2292 61.579C60.1073 61.6598 59.9796 61.7273 59.846 61.7831C59.7109 61.8389 59.5729 61.8814 59.4305 61.9093C59.2867 61.9372 59.1428 61.9519 58.9974 61.9519C58.8521 61.9519 58.7082 61.9372 58.5658 61.9093C58.422 61.8814 58.284 61.8389 58.1504 61.7831C58.0153 61.7273 57.8876 61.6598 57.7672 61.579C57.6454 61.4983 57.5338 61.4058 57.431 61.303C57.3283 61.2003 57.2358 61.0887 57.155 60.9668C57.0743 60.8465 57.0068 60.7187 56.951 60.5837C56.8952 60.4501 56.8526 60.3106 56.8247 60.1682C56.7954 60.0258 56.7821 59.8819 56.7821 59.7366V52.524L61.2128 52.4477V59.7366Z"/>
<path d="M16.6014 10.3775H54.4054V59.7366C54.4098 60.5338 54.608 61.281 54.9999 61.9754H17.1842V12.6178C17.1842 11.8206 16.9889 11.0748 16.6014 10.3775Z"/>
</mask>
<path d="M62.3843 50.0533L56.7821 50.1487V9.18986C56.7821 9.03278 56.7513 8.88157 56.6911 8.73476C56.6309 8.58943 56.5458 8.4617 56.4342 8.35013C56.3226 8.23856 56.1935 8.15341 56.0481 8.09175C55.9028 8.03156 55.7516 8.0022 55.5945 8.0022C55.5284 8.0022 55.4638 8.0022 55.3978 8.0022C55.3346 7.99927 55.2715 7.99927 55.2084 8.0022H12.5921C12.2897 8.00367 11.9902 8.03303 11.6951 8.09322C11.3986 8.15341 11.1108 8.2415 10.8319 8.35894C10.553 8.47492 10.2887 8.61732 10.0377 8.78615C9.78664 8.95497 9.55469 9.14582 9.34182 9.36016C9.12895 9.57449 8.9381 9.80791 8.77074 10.059C8.60339 10.3115 8.46245 10.5772 8.34794 10.8561C8.23197 11.135 8.14535 11.4228 8.08663 11.7193C8.02937 12.0159 8.00001 12.3154 8.00001 12.6178V21.112C7.99855 21.4438 8.11452 21.7271 8.35088 21.962C8.59017 22.1895 8.87498 22.3026 9.20529 22.2996L14.8074 22.2057V63.1939C14.8074 63.351 14.8382 63.5022 14.8984 63.6475C14.9586 63.7928 15.0438 63.922 15.1553 64.0336C15.2669 64.1452 15.3961 64.2303 15.5414 64.2905C15.6868 64.3507 15.838 64.3815 15.9951 64.3815C16.1169 64.3801 16.2358 64.3595 16.3518 64.3214C16.4663 64.3595 16.5823 64.3801 16.7027 64.3815H58.9974C59.2999 64.3801 59.5994 64.3492 59.8944 64.2891C60.191 64.2303 60.4787 64.1408 60.7577 64.0248C61.0366 63.9088 61.3008 63.7664 61.5519 63.5976C61.8029 63.4288 62.0349 63.2365 62.2477 63.0236C62.4606 62.8092 62.6515 62.5758 62.8188 62.3248C62.9862 62.0723 63.1271 61.8066 63.2416 61.5276C63.3576 61.2487 63.4442 60.9595 63.5029 60.6644C63.5602 60.3679 63.5895 60.0684 63.5895 59.766V51.2409C63.591 50.9092 63.475 50.6258 63.2387 50.3924C62.9979 50.1678 62.7131 50.0548 62.3843 50.0533ZM16.6014 10.3775H54.4054V59.7366C54.4098 60.5338 54.608 61.281 54.9999 61.9754H17.1842V12.6178C17.1842 11.8206 16.9889 11.0748 16.6014 10.3775ZM14.8191 19.8289L10.3885 19.9067V12.6178C10.3885 12.4724 10.4018 12.3286 10.4311 12.1847C10.459 12.0423 10.5016 11.9043 10.5559 11.7692C10.6117 11.6356 10.6807 11.5079 10.7614 11.3861C10.8422 11.2657 10.9332 11.1527 11.0374 11.0499C11.1402 10.9471 11.2518 10.8561 11.3721 10.7754C11.494 10.6932 11.6217 10.6256 11.7553 10.5698C11.8904 10.5141 12.0284 10.4715 12.1708 10.4436C12.3146 10.4157 12.4585 10.401 12.6038 10.401C12.7492 10.401 12.8931 10.4157 13.0369 10.4436C13.1793 10.4715 13.3173 10.5141 13.4524 10.5698C13.586 10.6256 13.7137 10.6932 13.8355 10.7754C13.9559 10.8561 14.0675 10.9471 14.1703 11.0499C14.273 11.1527 14.3655 11.2657 14.4463 11.3861C14.527 11.5079 14.596 11.6356 14.6518 11.7692C14.7061 11.9043 14.7487 12.0423 14.7766 12.1847C14.8059 12.3286 14.8191 12.4724 14.8191 12.6178V19.8289ZM61.2128 59.7366C61.2128 59.8819 61.1995 60.0258 61.1702 60.1682C61.1423 60.3106 61.0997 60.4501 61.0439 60.5837C60.9896 60.7187 60.9206 60.8465 60.8399 60.9668C60.7591 61.0887 60.6666 61.2003 60.5639 61.303C60.4611 61.4058 60.3495 61.4983 60.2292 61.579C60.1073 61.6598 59.9796 61.7273 59.846 61.7831C59.7109 61.8389 59.5729 61.8814 59.4305 61.9093C59.2867 61.9372 59.1428 61.9519 58.9974 61.9519C58.8521 61.9519 58.7082 61.9372 58.5658 61.9093C58.422 61.8814 58.284 61.8389 58.1504 61.7831C58.0153 61.7273 57.8876 61.6598 57.7672 61.579C57.6454 61.4983 57.5338 61.4058 57.431 61.303C57.3283 61.2003 57.2358 61.0887 57.155 60.9668C57.0743 60.8465 57.0068 60.7187 56.951 60.5837C56.8952 60.4501 56.8526 60.3106 56.8247 60.1682C56.7954 60.0258 56.7821 59.8819 56.7821 59.7366V52.524L61.2128 52.4477V59.7366Z" fill="#0B2D1F"/>
<path d="M16.6014 10.3775H54.4054V59.7366C54.4098 60.5338 54.608 61.281 54.9999 61.9754H17.1842V12.6178C17.1842 11.8206 16.9889 11.0748 16.6014 10.3775Z" fill="#2EB67D"/>
<path d="M62.3843 50.0533L56.7821 50.1487V9.18986C56.7821 9.03278 56.7513 8.88157 56.6911 8.73476C56.6309 8.58943 56.5458 8.4617 56.4342 8.35013C56.3226 8.23856 56.1935 8.15341 56.0481 8.09175C55.9028 8.03156 55.7516 8.0022 55.5945 8.0022C55.5284 8.0022 55.4638 8.0022 55.3978 8.0022C55.3346 7.99927 55.2715 7.99927 55.2084 8.0022H12.5921C12.2897 8.00367 11.9902 8.03303 11.6951 8.09322C11.3986 8.15341 11.1108 8.2415 10.8319 8.35894C10.553 8.47492 10.2887 8.61732 10.0377 8.78615C9.78664 8.95497 9.55469 9.14582 9.34182 9.36016C9.12895 9.57449 8.9381 9.80791 8.77074 10.059C8.60339 10.3115 8.46245 10.5772 8.34794 10.8561C8.23197 11.135 8.14535 11.4228 8.08663 11.7193C8.02937 12.0159 8.00001 12.3154 8.00001 12.6178V21.112C7.99855 21.4438 8.11452 21.7271 8.35088 21.962C8.59017 22.1895 8.87498 22.3026 9.20529 22.2996L14.8074 22.2057V63.1939C14.8074 63.351 14.8382 63.5022 14.8984 63.6475C14.9586 63.7928 15.0438 63.922 15.1553 64.0336C15.2669 64.1452 15.3961 64.2303 15.5414 64.2905C15.6868 64.3507 15.838 64.3815 15.9951 64.3815C16.1169 64.3801 16.2358 64.3595 16.3518 64.3214C16.4663 64.3595 16.5823 64.3801 16.7027 64.3815H58.9974C59.2999 64.3801 59.5994 64.3492 59.8944 64.2891C60.191 64.2303 60.4787 64.1408 60.7577 64.0248C61.0366 63.9088 61.3008 63.7664 61.5519 63.5976C61.8029 63.4288 62.0349 63.2365 62.2477 63.0236C62.4606 62.8092 62.6515 62.5758 62.8188 62.3248C62.9862 62.0723 63.1271 61.8066 63.2416 61.5276C63.3576 61.2487 63.4442 60.9595 63.5029 60.6644C63.5602 60.3679 63.5895 60.0684 63.5895 59.766V51.2409C63.591 50.9092 63.475 50.6258 63.2387 50.3924C62.9979 50.1678 62.7131 50.0548 62.3843 50.0533ZM16.6014 10.3775H54.4054V59.7366C54.4098 60.5338 54.608 61.281 54.9999 61.9754H17.1842V12.6178C17.1842 11.8206 16.9889 11.0748 16.6014 10.3775ZM14.8191 19.8289L10.3885 19.9067V12.6178C10.3885 12.4724 10.4018 12.3286 10.4311 12.1847C10.459 12.0423 10.5016 11.9043 10.5559 11.7692C10.6117 11.6356 10.6807 11.5079 10.7614 11.3861C10.8422 11.2657 10.9332 11.1527 11.0374 11.0499C11.1402 10.9471 11.2518 10.8561 11.3721 10.7754C11.494 10.6932 11.6217 10.6256 11.7553 10.5698C11.8904 10.5141 12.0284 10.4715 12.1708 10.4436C12.3146 10.4157 12.4585 10.401 12.6038 10.401C12.7492 10.401 12.8931 10.4157 13.0369 10.4436C13.1793 10.4715 13.3173 10.5141 13.4524 10.5698C13.586 10.6256 13.7137 10.6932 13.8355 10.7754C13.9559 10.8561 14.0675 10.9471 14.1703 11.0499C14.273 11.1527 14.3655 11.2657 14.4463 11.3861C14.527 11.5079 14.596 11.6356 14.6518 11.7692C14.7061 11.9043 14.7487 12.0423 14.7766 12.1847C14.8059 12.3286 14.8191 12.4724 14.8191 12.6178V19.8289ZM61.2128 59.7366C61.2128 59.8819 61.1995 60.0258 61.1702 60.1682C61.1423 60.3106 61.0997 60.4501 61.0439 60.5837C60.9896 60.7187 60.9206 60.8465 60.8399 60.9668C60.7591 61.0887 60.6666 61.2003 60.5639 61.303C60.4611 61.4058 60.3495 61.4983 60.2292 61.579C60.1073 61.6598 59.9796 61.7273 59.846 61.7831C59.7109 61.8389 59.5729 61.8814 59.4305 61.9093C59.2867 61.9372 59.1428 61.9519 58.9974 61.9519C58.8521 61.9519 58.7082 61.9372 58.5658 61.9093C58.422 61.8814 58.284 61.8389 58.1504 61.7831C58.0153 61.7273 57.8876 61.6598 57.7672 61.579C57.6454 61.4983 57.5338 61.4058 57.431 61.303C57.3283 61.2003 57.2358 61.0887 57.155 60.9668C57.0743 60.8465 57.0068 60.7187 56.951 60.5837C56.8952 60.4501 56.8526 60.3106 56.8247 60.1682C56.7954 60.0258 56.7821 59.8819 56.7821 59.7366V52.524L61.2128 52.4477V59.7366Z" stroke="#0B2D1F" mask="url(#path-1-outside-1_6721_46673)"/>
<path d="M16.6014 10.3775H54.4054V59.7366C54.4098 60.5338 54.608 61.281 54.9999 61.9754H17.1842V12.6178C17.1842 11.8206 16.9889 11.0748 16.6014 10.3775Z" stroke="#0B2D1F" mask="url(#path-1-outside-1_6721_46673)"/>
</g>
</g>
<g id="Vector_2">
<mask id="path-2-outside-2_6721_46673" maskUnits="userSpaceOnUse" x="23.8398" y="14.6714" width="24" height="24" fill="black">
<rect fill="white" x="23.8398" y="14.6714" width="24" height="24"/>
<path d="M35.7402 37.4721C36.0969 37.4721 36.4522 37.4544 36.8075 37.4192C37.1627 37.384 37.5165 37.3326 37.8659 37.2621C38.2168 37.1931 38.5618 37.1065 38.9038 37.0023C39.2459 36.8995 39.5806 36.7791 39.9109 36.6426C40.2413 36.5061 40.5628 36.3534 40.8784 36.1846C41.1926 36.0157 41.4994 35.8337 41.7959 35.6355C42.0925 35.4359 42.3787 35.2245 42.6547 34.9969C42.9307 34.7708 43.195 34.5315 43.4475 34.279C43.7 34.0265 43.9393 33.7623 44.1654 33.4863C44.3929 33.2103 44.6043 32.924 44.8025 32.6275C45.0007 32.3309 45.1842 32.0241 45.353 31.7099C45.5219 31.3943 45.6731 31.0728 45.8096 30.7425C45.9476 30.4136 46.0665 30.0774 46.1707 29.7354C46.275 29.3933 46.3616 29.0483 46.4306 28.6975C46.4996 28.3481 46.5524 27.9957 46.5877 27.6405C46.6229 27.2852 46.6405 26.9285 46.6405 26.5717C46.6405 26.215 46.6229 25.8582 46.5877 25.503C46.5524 25.1477 46.4996 24.7954 46.4306 24.4445C46.3616 24.0951 46.275 23.7486 46.1707 23.4066C46.0665 23.066 45.9476 22.7298 45.8096 22.3995C45.6731 22.0707 45.5219 21.7477 45.353 21.4335C45.1842 21.1179 45.0007 20.8125 44.8025 20.516C44.6043 20.218 44.3929 19.9317 44.1654 19.6557C43.9393 19.3797 43.7 19.1155 43.4475 18.8629C43.195 18.6119 42.9307 18.3711 42.6547 18.1451C42.3787 17.919 42.0925 17.7061 41.7959 17.5079C41.4994 17.3097 41.1926 17.1262 40.8784 16.9574C40.5628 16.79 40.2413 16.6374 39.9109 16.5008C39.5806 16.3643 39.2459 16.2439 38.9038 16.1397C38.5618 16.0369 38.2168 15.9503 37.8659 15.8799C37.5165 15.8109 37.1627 15.758 36.8075 15.7228C36.4522 15.689 36.0969 15.6714 35.7402 15.6714C35.382 15.6714 35.0267 15.689 34.6714 15.7228C34.3162 15.758 33.9638 15.8109 33.613 15.8799C33.2636 15.9503 32.9171 16.0369 32.575 16.1397C32.233 16.2439 31.8983 16.3643 31.568 16.5008C31.2376 16.6374 30.9161 16.79 30.6005 16.9574C30.2863 17.1262 29.981 17.3097 29.683 17.5079C29.3864 17.7061 29.1002 17.919 28.8242 18.1451C28.5482 18.3711 28.2839 18.6119 28.0314 18.8629C27.7789 19.1155 27.5396 19.3797 27.3135 19.6557C27.0874 19.9317 26.8746 20.218 26.6764 20.516C26.4782 20.8125 26.2947 21.1179 26.1259 21.4335C25.9585 21.7477 25.8058 22.0707 25.6693 22.3995C25.5328 22.7298 25.4124 23.066 25.3082 23.4066C25.2054 23.7486 25.1188 24.0951 25.0483 24.4445C24.9793 24.7954 24.9265 25.1477 24.8912 25.503C24.856 25.8582 24.8398 26.215 24.8398 26.5717C24.8398 26.9285 24.8575 27.2837 24.8927 27.639C24.9279 27.9943 24.9808 28.3466 25.0512 28.6975C25.1202 29.0469 25.2069 29.3933 25.3111 29.7339C25.4153 30.076 25.5357 30.4107 25.6722 30.741C25.8088 31.0713 25.9614 31.3928 26.1303 31.707C26.2976 32.0226 26.4811 32.328 26.6793 32.6245C26.8775 32.9211 27.0904 33.2074 27.3165 33.4833C27.544 33.7593 27.7833 34.0236 28.0358 34.2761C28.2883 34.5286 28.5511 34.7679 28.8271 34.994C29.1031 35.2201 29.3894 35.4329 29.6859 35.6311C29.9825 35.8293 30.2893 36.0128 30.6034 36.1816C30.9176 36.349 31.2406 36.5017 31.5694 36.6397C31.8997 36.7762 32.2359 36.8966 32.5765 36.9993C32.9186 37.1036 33.2636 37.1902 33.6144 37.2607C33.9638 37.3297 34.3162 37.3825 34.6714 37.4177C35.0267 37.453 35.382 37.4721 35.7402 37.4721ZM35.7402 18.0467C36.0191 18.0467 36.2966 18.0614 36.5755 18.0878C36.853 18.1157 37.129 18.1568 37.402 18.2111C37.6766 18.2654 37.9467 18.333 38.2139 18.4137C38.481 18.4945 38.7438 18.5884 39.0022 18.6956C39.2591 18.8028 39.5116 18.9217 39.7583 19.0538C40.0034 19.1859 40.2427 19.3283 40.4761 19.4839C40.7081 19.6381 40.9312 19.8054 41.147 19.9816C41.3628 20.1592 41.5698 20.3457 41.7666 20.5439C41.9648 20.7406 42.1512 20.9476 42.3288 21.1634C42.5065 21.3792 42.6724 21.6038 42.828 21.8358C42.9821 22.0677 43.126 22.307 43.2566 22.5536C43.3888 22.7988 43.5077 23.0513 43.6149 23.3097C43.722 23.5666 43.816 23.8294 43.8967 24.0966C43.9775 24.3638 44.045 24.6339 44.1008 24.9084C44.1551 25.1829 44.1962 25.4575 44.2226 25.7364C44.2505 26.0139 44.2637 26.2928 44.2637 26.5717C44.2637 26.8507 44.2505 27.1296 44.2226 27.4071C44.1962 27.6845 44.1551 27.9605 44.1008 28.235C44.045 28.5081 43.9775 28.7782 43.8967 29.0454C43.816 29.3126 43.722 29.5754 43.6149 29.8338C43.5077 30.0921 43.3888 30.3432 43.2566 30.5898C43.126 30.8364 42.9821 31.0757 42.828 31.3077C42.6724 31.5396 42.5065 31.7628 42.3288 31.9786C42.1512 32.1944 41.9648 32.4014 41.7666 32.5996C41.5698 32.7963 41.3628 32.9842 41.147 33.1604C40.9312 33.338 40.7081 33.5039 40.4761 33.6595C40.2427 33.8137 40.0034 33.9575 39.7583 34.0897C39.5116 34.2203 39.2591 34.3407 39.0022 34.4464C38.7438 34.5536 38.481 34.6475 38.2139 34.7283C37.9467 34.8105 37.6766 34.878 37.402 34.9323C37.129 34.9866 36.853 35.0277 36.5755 35.0542C36.2966 35.0821 36.0191 35.0953 35.7402 35.0953C35.4598 35.0953 35.1823 35.0821 34.9034 35.0542C34.6259 35.0277 34.3499 34.9866 34.0769 34.9323C33.8023 34.878 33.5322 34.8105 33.265 34.7283C32.9978 34.6475 32.7351 34.5536 32.4782 34.4464C32.2198 34.3407 31.9673 34.2203 31.7206 34.0897C31.4755 33.9575 31.2362 33.8137 31.0042 33.6595C30.7723 33.5039 30.5477 33.338 30.3319 33.1604C30.116 32.9842 29.9091 32.7963 29.7123 32.5996C29.5141 32.4014 29.3277 32.1944 29.1501 31.9786C28.9724 31.7628 28.8065 31.5396 28.6524 31.3077C28.4968 31.0757 28.3529 30.8364 28.2223 30.5898C28.0901 30.3432 27.9712 30.0921 27.864 29.8338C27.7569 29.5754 27.6629 29.3126 27.5822 29.0454C27.5014 28.7782 27.4339 28.5081 27.3796 28.235C27.3253 27.9605 27.2842 27.6845 27.2563 27.4071C27.2284 27.1296 27.2152 26.8507 27.2152 26.5717C27.2152 26.2928 27.2298 26.0139 27.2563 25.7364C27.2842 25.4589 27.3253 25.1829 27.3796 24.9084C27.4339 24.6354 27.5029 24.3652 27.5836 24.098C27.6644 23.8309 27.7583 23.5681 27.8655 23.3097C27.9727 23.0528 28.0916 22.8003 28.2237 22.5536C28.3558 22.3085 28.4982 22.0692 28.6539 21.8372C28.8095 21.6053 28.9754 21.3807 29.1515 21.1649C29.3292 20.9491 29.5156 20.7435 29.7138 20.5453C29.9105 20.3486 30.1175 20.1607 30.3333 19.9845C30.5491 19.8069 30.7737 19.641 31.0057 19.4854C31.2376 19.3298 31.4769 19.1874 31.7221 19.0553C31.9687 18.9231 32.2212 18.8042 32.4782 18.6971C32.7365 18.5914 32.9993 18.4959 33.265 18.4152C33.5322 18.3344 33.8038 18.2669 34.0769 18.2126C34.3514 18.1568 34.6259 18.1157 34.9049 18.0893C35.1823 18.0614 35.4598 18.0467 35.7402 18.0467Z"/>
</mask>
<path d="M35.7402 37.4721C36.0969 37.4721 36.4522 37.4544 36.8075 37.4192C37.1627 37.384 37.5165 37.3326 37.8659 37.2621C38.2168 37.1931 38.5618 37.1065 38.9038 37.0023C39.2459 36.8995 39.5806 36.7791 39.9109 36.6426C40.2413 36.5061 40.5628 36.3534 40.8784 36.1846C41.1926 36.0157 41.4994 35.8337 41.7959 35.6355C42.0925 35.4359 42.3787 35.2245 42.6547 34.9969C42.9307 34.7708 43.195 34.5315 43.4475 34.279C43.7 34.0265 43.9393 33.7623 44.1654 33.4863C44.3929 33.2103 44.6043 32.924 44.8025 32.6275C45.0007 32.3309 45.1842 32.0241 45.353 31.7099C45.5219 31.3943 45.6731 31.0728 45.8096 30.7425C45.9476 30.4136 46.0665 30.0774 46.1707 29.7354C46.275 29.3933 46.3616 29.0483 46.4306 28.6975C46.4996 28.3481 46.5524 27.9957 46.5877 27.6405C46.6229 27.2852 46.6405 26.9285 46.6405 26.5717C46.6405 26.215 46.6229 25.8582 46.5877 25.503C46.5524 25.1477 46.4996 24.7954 46.4306 24.4445C46.3616 24.0951 46.275 23.7486 46.1707 23.4066C46.0665 23.066 45.9476 22.7298 45.8096 22.3995C45.6731 22.0707 45.5219 21.7477 45.353 21.4335C45.1842 21.1179 45.0007 20.8125 44.8025 20.516C44.6043 20.218 44.3929 19.9317 44.1654 19.6557C43.9393 19.3797 43.7 19.1155 43.4475 18.8629C43.195 18.6119 42.9307 18.3711 42.6547 18.1451C42.3787 17.919 42.0925 17.7061 41.7959 17.5079C41.4994 17.3097 41.1926 17.1262 40.8784 16.9574C40.5628 16.79 40.2413 16.6374 39.9109 16.5008C39.5806 16.3643 39.2459 16.2439 38.9038 16.1397C38.5618 16.0369 38.2168 15.9503 37.8659 15.8799C37.5165 15.8109 37.1627 15.758 36.8075 15.7228C36.4522 15.689 36.0969 15.6714 35.7402 15.6714C35.382 15.6714 35.0267 15.689 34.6714 15.7228C34.3162 15.758 33.9638 15.8109 33.613 15.8799C33.2636 15.9503 32.9171 16.0369 32.575 16.1397C32.233 16.2439 31.8983 16.3643 31.568 16.5008C31.2376 16.6374 30.9161 16.79 30.6005 16.9574C30.2863 17.1262 29.981 17.3097 29.683 17.5079C29.3864 17.7061 29.1002 17.919 28.8242 18.1451C28.5482 18.3711 28.2839 18.6119 28.0314 18.8629C27.7789 19.1155 27.5396 19.3797 27.3135 19.6557C27.0874 19.9317 26.8746 20.218 26.6764 20.516C26.4782 20.8125 26.2947 21.1179 26.1259 21.4335C25.9585 21.7477 25.8058 22.0707 25.6693 22.3995C25.5328 22.7298 25.4124 23.066 25.3082 23.4066C25.2054 23.7486 25.1188 24.0951 25.0483 24.4445C24.9793 24.7954 24.9265 25.1477 24.8912 25.503C24.856 25.8582 24.8398 26.215 24.8398 26.5717C24.8398 26.9285 24.8575 27.2837 24.8927 27.639C24.9279 27.9943 24.9808 28.3466 25.0512 28.6975C25.1202 29.0469 25.2069 29.3933 25.3111 29.7339C25.4153 30.076 25.5357 30.4107 25.6722 30.741C25.8088 31.0713 25.9614 31.3928 26.1303 31.707C26.2976 32.0226 26.4811 32.328 26.6793 32.6245C26.8775 32.9211 27.0904 33.2074 27.3165 33.4833C27.544 33.7593 27.7833 34.0236 28.0358 34.2761C28.2883 34.5286 28.5511 34.7679 28.8271 34.994C29.1031 35.2201 29.3894 35.4329 29.6859 35.6311C29.9825 35.8293 30.2893 36.0128 30.6034 36.1816C30.9176 36.349 31.2406 36.5017 31.5694 36.6397C31.8997 36.7762 32.2359 36.8966 32.5765 36.9993C32.9186 37.1036 33.2636 37.1902 33.6144 37.2607C33.9638 37.3297 34.3162 37.3825 34.6714 37.4177C35.0267 37.453 35.382 37.4721 35.7402 37.4721ZM35.7402 18.0467C36.0191 18.0467 36.2966 18.0614 36.5755 18.0878C36.853 18.1157 37.129 18.1568 37.402 18.2111C37.6766 18.2654 37.9467 18.333 38.2139 18.4137C38.481 18.4945 38.7438 18.5884 39.0022 18.6956C39.2591 18.8028 39.5116 18.9217 39.7583 19.0538C40.0034 19.1859 40.2427 19.3283 40.4761 19.4839C40.7081 19.6381 40.9312 19.8054 41.147 19.9816C41.3628 20.1592 41.5698 20.3457 41.7666 20.5439C41.9648 20.7406 42.1512 20.9476 42.3288 21.1634C42.5065 21.3792 42.6724 21.6038 42.828 21.8358C42.9821 22.0677 43.126 22.307 43.2566 22.5536C43.3888 22.7988 43.5077 23.0513 43.6149 23.3097C43.722 23.5666 43.816 23.8294 43.8967 24.0966C43.9775 24.3638 44.045 24.6339 44.1008 24.9084C44.1551 25.1829 44.1962 25.4575 44.2226 25.7364C44.2505 26.0139 44.2637 26.2928 44.2637 26.5717C44.2637 26.8507 44.2505 27.1296 44.2226 27.4071C44.1962 27.6845 44.1551 27.9605 44.1008 28.235C44.045 28.5081 43.9775 28.7782 43.8967 29.0454C43.816 29.3126 43.722 29.5754 43.6149 29.8338C43.5077 30.0921 43.3888 30.3432 43.2566 30.5898C43.126 30.8364 42.9821 31.0757 42.828 31.3077C42.6724 31.5396 42.5065 31.7628 42.3288 31.9786C42.1512 32.1944 41.9648 32.4014 41.7666 32.5996C41.5698 32.7963 41.3628 32.9842 41.147 33.1604C40.9312 33.338 40.7081 33.5039 40.4761 33.6595C40.2427 33.8137 40.0034 33.9575 39.7583 34.0897C39.5116 34.2203 39.2591 34.3407 39.0022 34.4464C38.7438 34.5536 38.481 34.6475 38.2139 34.7283C37.9467 34.8105 37.6766 34.878 37.402 34.9323C37.129 34.9866 36.853 35.0277 36.5755 35.0542C36.2966 35.0821 36.0191 35.0953 35.7402 35.0953C35.4598 35.0953 35.1823 35.0821 34.9034 35.0542C34.6259 35.0277 34.3499 34.9866 34.0769 34.9323C33.8023 34.878 33.5322 34.8105 33.265 34.7283C32.9978 34.6475 32.7351 34.5536 32.4782 34.4464C32.2198 34.3407 31.9673 34.2203 31.7206 34.0897C31.4755 33.9575 31.2362 33.8137 31.0042 33.6595C30.7723 33.5039 30.5477 33.338 30.3319 33.1604C30.116 32.9842 29.9091 32.7963 29.7123 32.5996C29.5141 32.4014 29.3277 32.1944 29.1501 31.9786C28.9724 31.7628 28.8065 31.5396 28.6524 31.3077C28.4968 31.0757 28.3529 30.8364 28.2223 30.5898C28.0901 30.3432 27.9712 30.0921 27.864 29.8338C27.7569 29.5754 27.6629 29.3126 27.5822 29.0454C27.5014 28.7782 27.4339 28.5081 27.3796 28.235C27.3253 27.9605 27.2842 27.6845 27.2563 27.4071C27.2284 27.1296 27.2152 26.8507 27.2152 26.5717C27.2152 26.2928 27.2298 26.0139 27.2563 25.7364C27.2842 25.4589 27.3253 25.1829 27.3796 24.9084C27.4339 24.6354 27.5029 24.3652 27.5836 24.098C27.6644 23.8309 27.7583 23.5681 27.8655 23.3097C27.9727 23.0528 28.0916 22.8003 28.2237 22.5536C28.3558 22.3085 28.4982 22.0692 28.6539 21.8372C28.8095 21.6053 28.9754 21.3807 29.1515 21.1649C29.3292 20.9491 29.5156 20.7435 29.7138 20.5453C29.9105 20.3486 30.1175 20.1607 30.3333 19.9845C30.5491 19.8069 30.7737 19.641 31.0057 19.4854C31.2376 19.3298 31.4769 19.1874 31.7221 19.0553C31.9687 18.9231 32.2212 18.8042 32.4782 18.6971C32.7365 18.5914 32.9993 18.4959 33.265 18.4152C33.5322 18.3344 33.8038 18.2669 34.0769 18.2126C34.3514 18.1568 34.6259 18.1157 34.9049 18.0893C35.1823 18.0614 35.4598 18.0467 35.7402 18.0467Z" fill="#0B2D1F"/>
<path d="M35.7402 37.4721C36.0969 37.4721 36.4522 37.4544 36.8075 37.4192C37.1627 37.384 37.5165 37.3326 37.8659 37.2621C38.2168 37.1931 38.5618 37.1065 38.9038 37.0023C39.2459 36.8995 39.5806 36.7791 39.9109 36.6426C40.2413 36.5061 40.5628 36.3534 40.8784 36.1846C41.1926 36.0157 41.4994 35.8337 41.7959 35.6355C42.0925 35.4359 42.3787 35.2245 42.6547 34.9969C42.9307 34.7708 43.195 34.5315 43.4475 34.279C43.7 34.0265 43.9393 33.7623 44.1654 33.4863C44.3929 33.2103 44.6043 32.924 44.8025 32.6275C45.0007 32.3309 45.1842 32.0241 45.353 31.7099C45.5219 31.3943 45.6731 31.0728 45.8096 30.7425C45.9476 30.4136 46.0665 30.0774 46.1707 29.7354C46.275 29.3933 46.3616 29.0483 46.4306 28.6975C46.4996 28.3481 46.5524 27.9957 46.5877 27.6405C46.6229 27.2852 46.6405 26.9285 46.6405 26.5717C46.6405 26.215 46.6229 25.8582 46.5877 25.503C46.5524 25.1477 46.4996 24.7954 46.4306 24.4445C46.3616 24.0951 46.275 23.7486 46.1707 23.4066C46.0665 23.066 45.9476 22.7298 45.8096 22.3995C45.6731 22.0707 45.5219 21.7477 45.353 21.4335C45.1842 21.1179 45.0007 20.8125 44.8025 20.516C44.6043 20.218 44.3929 19.9317 44.1654 19.6557C43.9393 19.3797 43.7 19.1155 43.4475 18.8629C43.195 18.6119 42.9307 18.3711 42.6547 18.1451C42.3787 17.919 42.0925 17.7061 41.7959 17.5079C41.4994 17.3097 41.1926 17.1262 40.8784 16.9574C40.5628 16.79 40.2413 16.6374 39.9109 16.5008C39.5806 16.3643 39.2459 16.2439 38.9038 16.1397C38.5618 16.0369 38.2168 15.9503 37.8659 15.8799C37.5165 15.8109 37.1627 15.758 36.8075 15.7228C36.4522 15.689 36.0969 15.6714 35.7402 15.6714C35.382 15.6714 35.0267 15.689 34.6714 15.7228C34.3162 15.758 33.9638 15.8109 33.613 15.8799C33.2636 15.9503 32.9171 16.0369 32.575 16.1397C32.233 16.2439 31.8983 16.3643 31.568 16.5008C31.2376 16.6374 30.9161 16.79 30.6005 16.9574C30.2863 17.1262 29.981 17.3097 29.683 17.5079C29.3864 17.7061 29.1002 17.919 28.8242 18.1451C28.5482 18.3711 28.2839 18.6119 28.0314 18.8629C27.7789 19.1155 27.5396 19.3797 27.3135 19.6557C27.0874 19.9317 26.8746 20.218 26.6764 20.516C26.4782 20.8125 26.2947 21.1179 26.1259 21.4335C25.9585 21.7477 25.8058 22.0707 25.6693 22.3995C25.5328 22.7298 25.4124 23.066 25.3082 23.4066C25.2054 23.7486 25.1188 24.0951 25.0483 24.4445C24.9793 24.7954 24.9265 25.1477 24.8912 25.503C24.856 25.8582 24.8398 26.215 24.8398 26.5717C24.8398 26.9285 24.8575 27.2837 24.8927 27.639C24.9279 27.9943 24.9808 28.3466 25.0512 28.6975C25.1202 29.0469 25.2069 29.3933 25.3111 29.7339C25.4153 30.076 25.5357 30.4107 25.6722 30.741C25.8088 31.0713 25.9614 31.3928 26.1303 31.707C26.2976 32.0226 26.4811 32.328 26.6793 32.6245C26.8775 32.9211 27.0904 33.2074 27.3165 33.4833C27.544 33.7593 27.7833 34.0236 28.0358 34.2761C28.2883 34.5286 28.5511 34.7679 28.8271 34.994C29.1031 35.2201 29.3894 35.4329 29.6859 35.6311C29.9825 35.8293 30.2893 36.0128 30.6034 36.1816C30.9176 36.349 31.2406 36.5017 31.5694 36.6397C31.8997 36.7762 32.2359 36.8966 32.5765 36.9993C32.9186 37.1036 33.2636 37.1902 33.6144 37.2607C33.9638 37.3297 34.3162 37.3825 34.6714 37.4177C35.0267 37.453 35.382 37.4721 35.7402 37.4721ZM35.7402 18.0467C36.0191 18.0467 36.2966 18.0614 36.5755 18.0878C36.853 18.1157 37.129 18.1568 37.402 18.2111C37.6766 18.2654 37.9467 18.333 38.2139 18.4137C38.481 18.4945 38.7438 18.5884 39.0022 18.6956C39.2591 18.8028 39.5116 18.9217 39.7583 19.0538C40.0034 19.1859 40.2427 19.3283 40.4761 19.4839C40.7081 19.6381 40.9312 19.8054 41.147 19.9816C41.3628 20.1592 41.5698 20.3457 41.7666 20.5439C41.9648 20.7406 42.1512 20.9476 42.3288 21.1634C42.5065 21.3792 42.6724 21.6038 42.828 21.8358C42.9821 22.0677 43.126 22.307 43.2566 22.5536C43.3888 22.7988 43.5077 23.0513 43.6149 23.3097C43.722 23.5666 43.816 23.8294 43.8967 24.0966C43.9775 24.3638 44.045 24.6339 44.1008 24.9084C44.1551 25.1829 44.1962 25.4575 44.2226 25.7364C44.2505 26.0139 44.2637 26.2928 44.2637 26.5717C44.2637 26.8507 44.2505 27.1296 44.2226 27.4071C44.1962 27.6845 44.1551 27.9605 44.1008 28.235C44.045 28.5081 43.9775 28.7782 43.8967 29.0454C43.816 29.3126 43.722 29.5754 43.6149 29.8338C43.5077 30.0921 43.3888 30.3432 43.2566 30.5898C43.126 30.8364 42.9821 31.0757 42.828 31.3077C42.6724 31.5396 42.5065 31.7628 42.3288 31.9786C42.1512 32.1944 41.9648 32.4014 41.7666 32.5996C41.5698 32.7963 41.3628 32.9842 41.147 33.1604C40.9312 33.338 40.7081 33.5039 40.4761 33.6595C40.2427 33.8137 40.0034 33.9575 39.7583 34.0897C39.5116 34.2203 39.2591 34.3407 39.0022 34.4464C38.7438 34.5536 38.481 34.6475 38.2139 34.7283C37.9467 34.8105 37.6766 34.878 37.402 34.9323C37.129 34.9866 36.853 35.0277 36.5755 35.0542C36.2966 35.0821 36.0191 35.0953 35.7402 35.0953C35.4598 35.0953 35.1823 35.0821 34.9034 35.0542C34.6259 35.0277 34.3499 34.9866 34.0769 34.9323C33.8023 34.878 33.5322 34.8105 33.265 34.7283C32.9978 34.6475 32.7351 34.5536 32.4782 34.4464C32.2198 34.3407 31.9673 34.2203 31.7206 34.0897C31.4755 33.9575 31.2362 33.8137 31.0042 33.6595C30.7723 33.5039 30.5477 33.338 30.3319 33.1604C30.116 32.9842 29.9091 32.7963 29.7123 32.5996C29.5141 32.4014 29.3277 32.1944 29.1501 31.9786C28.9724 31.7628 28.8065 31.5396 28.6524 31.3077C28.4968 31.0757 28.3529 30.8364 28.2223 30.5898C28.0901 30.3432 27.9712 30.0921 27.864 29.8338C27.7569 29.5754 27.6629 29.3126 27.5822 29.0454C27.5014 28.7782 27.4339 28.5081 27.3796 28.235C27.3253 27.9605 27.2842 27.6845 27.2563 27.4071C27.2284 27.1296 27.2152 26.8507 27.2152 26.5717C27.2152 26.2928 27.2298 26.0139 27.2563 25.7364C27.2842 25.4589 27.3253 25.1829 27.3796 24.9084C27.4339 24.6354 27.5029 24.3652 27.5836 24.098C27.6644 23.8309 27.7583 23.5681 27.8655 23.3097C27.9727 23.0528 28.0916 22.8003 28.2237 22.5536C28.3558 22.3085 28.4982 22.0692 28.6539 21.8372C28.8095 21.6053 28.9754 21.3807 29.1515 21.1649C29.3292 20.9491 29.5156 20.7435 29.7138 20.5453C29.9105 20.3486 30.1175 20.1607 30.3333 19.9845C30.5491 19.8069 30.7737 19.641 31.0057 19.4854C31.2376 19.3298 31.4769 19.1874 31.7221 19.0553C31.9687 18.9231 32.2212 18.8042 32.4782 18.6971C32.7365 18.5914 32.9993 18.4959 33.265 18.4152C33.5322 18.3344 33.8038 18.2669 34.0769 18.2126C34.3514 18.1568 34.6259 18.1157 34.9049 18.0893C35.1823 18.0614 35.4598 18.0467 35.7402 18.0467Z" stroke="#0B2D1F" mask="url(#path-2-outside-2_6721_46673)"/>
</g>
<g id="Vector_3">
<mask id="path-3-outside-3_6721_46673" maskUnits="userSpaceOnUse" x="20.668" y="40.0305" width="30" height="4" fill="black">
<rect fill="white" x="20.668" y="40.0305" width="30" height="4"/>
<path d="M22.8556 43.4058H48.6186C48.7757 43.4058 48.9284 43.3765 49.0737 43.3163C49.219 43.2561 49.3468 43.1695 49.4583 43.0579C49.5699 42.9463 49.6565 42.8186 49.7167 42.6733C49.7769 42.5265 49.8063 42.3753 49.8063 42.2182C49.8063 42.0611 49.7769 41.9084 49.7167 41.7631C49.6565 41.6177 49.5699 41.49 49.4583 41.3784C49.3468 41.2669 49.219 41.1803 49.0737 41.1201C48.9284 41.0599 48.7757 41.0305 48.6186 41.0305H22.8556C22.6985 41.0305 22.5459 41.0599 22.4005 41.1201C22.2552 41.1803 22.1275 41.2669 22.0159 41.3784C21.9043 41.49 21.8177 41.6177 21.7575 41.7631C21.6973 41.9084 21.668 42.0611 21.668 42.2182C21.668 42.3753 21.6973 42.5265 21.7575 42.6733C21.8177 42.8186 21.9043 42.9463 22.0159 43.0579C22.1275 43.1695 22.2552 43.2561 22.4005 43.3163C22.5459 43.3765 22.6985 43.4058 22.8556 43.4058Z"/>
</mask>
<path d="M22.8556 43.4058H48.6186C48.7757 43.4058 48.9284 43.3765 49.0737 43.3163C49.219 43.2561 49.3468 43.1695 49.4583 43.0579C49.5699 42.9463 49.6565 42.8186 49.7167 42.6733C49.7769 42.5265 49.8063 42.3753 49.8063 42.2182C49.8063 42.0611 49.7769 41.9084 49.7167 41.7631C49.6565 41.6177 49.5699 41.49 49.4583 41.3784C49.3468 41.2669 49.219 41.1803 49.0737 41.1201C48.9284 41.0599 48.7757 41.0305 48.6186 41.0305H22.8556C22.6985 41.0305 22.5459 41.0599 22.4005 41.1201C22.2552 41.1803 22.1275 41.2669 22.0159 41.3784C21.9043 41.49 21.8177 41.6177 21.7575 41.7631C21.6973 41.9084 21.668 42.0611 21.668 42.2182C21.668 42.3753 21.6973 42.5265 21.7575 42.6733C21.8177 42.8186 21.9043 42.9463 22.0159 43.0579C22.1275 43.1695 22.2552 43.2561 22.4005 43.3163C22.5459 43.3765 22.6985 43.4058 22.8556 43.4058Z" fill="#0B2D1F"/>
<path d="M22.8556 43.4058H48.6186C48.7757 43.4058 48.9284 43.3765 49.0737 43.3163C49.219 43.2561 49.3468 43.1695 49.4583 43.0579C49.5699 42.9463 49.6565 42.8186 49.7167 42.6733C49.7769 42.5265 49.8063 42.3753 49.8063 42.2182C49.8063 42.0611 49.7769 41.9084 49.7167 41.7631C49.6565 41.6177 49.5699 41.49 49.4583 41.3784C49.3468 41.2669 49.219 41.1803 49.0737 41.1201C48.9284 41.0599 48.7757 41.0305 48.6186 41.0305H22.8556C22.6985 41.0305 22.5459 41.0599 22.4005 41.1201C22.2552 41.1803 22.1275 41.2669 22.0159 41.3784C21.9043 41.49 21.8177 41.6177 21.7575 41.7631C21.6973 41.9084 21.668 42.0611 21.668 42.2182C21.668 42.3753 21.6973 42.5265 21.7575 42.6733C21.8177 42.8186 21.9043 42.9463 22.0159 43.0579C22.1275 43.1695 22.2552 43.2561 22.4005 43.3163C22.5459 43.3765 22.6985 43.4058 22.8556 43.4058Z" stroke="#0B2D1F" mask="url(#path-3-outside-3_6721_46673)"/>
</g>
<g id="Vector_4">
<mask id="path-4-outside-4_6721_46673" maskUnits="userSpaceOnUse" x="22.6641" y="46.3916" width="26" height="4" fill="black">
<rect fill="white" x="22.6641" y="46.3916" width="26" height="4"/>
<path d="M46.6245 49.7684C46.7816 49.7684 46.9328 49.7376 47.0781 49.6774C47.2235 49.6172 47.3527 49.532 47.4642 49.4205C47.5758 49.3089 47.661 49.1797 47.7211 49.0344C47.7813 48.889 47.8122 48.7378 47.8122 48.5807C47.8122 48.4222 47.7813 48.271 47.7211 48.1256C47.661 47.9803 47.5758 47.8511 47.4642 47.7395C47.3527 47.628 47.2235 47.5428 47.0781 47.4826C46.9328 47.4224 46.7816 47.3916 46.6245 47.3916H24.8532C24.6946 47.3916 24.5434 47.4224 24.3981 47.4826C24.2528 47.5428 24.1236 47.628 24.012 47.7395C23.9004 47.8511 23.8153 47.9803 23.7551 48.1256C23.6949 48.271 23.6641 48.4222 23.6641 48.5807C23.6641 48.7378 23.6949 48.889 23.7551 49.0344C23.8153 49.1797 23.9004 49.3089 24.012 49.4205C24.1236 49.532 24.2528 49.6172 24.3981 49.6774C24.5434 49.7376 24.6946 49.7684 24.8532 49.7684H46.6245Z"/>
</mask>
<path d="M46.6245 49.7684C46.7816 49.7684 46.9328 49.7376 47.0781 49.6774C47.2235 49.6172 47.3527 49.532 47.4642 49.4205C47.5758 49.3089 47.661 49.1797 47.7211 49.0344C47.7813 48.889 47.8122 48.7378 47.8122 48.5807C47.8122 48.4222 47.7813 48.271 47.7211 48.1256C47.661 47.9803 47.5758 47.8511 47.4642 47.7395C47.3527 47.628 47.2235 47.5428 47.0781 47.4826C46.9328 47.4224 46.7816 47.3916 46.6245 47.3916H24.8532C24.6946 47.3916 24.5434 47.4224 24.3981 47.4826C24.2528 47.5428 24.1236 47.628 24.012 47.7395C23.9004 47.8511 23.8153 47.9803 23.7551 48.1256C23.6949 48.271 23.6641 48.4222 23.6641 48.5807C23.6641 48.7378 23.6949 48.889 23.7551 49.0344C23.8153 49.1797 23.9004 49.3089 24.012 49.4205C24.1236 49.532 24.2528 49.6172 24.3981 49.6774C24.5434 49.7376 24.6946 49.7684 24.8532 49.7684H46.6245Z" fill="#0B2D1F"/>
<path d="M46.6245 49.7684C46.7816 49.7684 46.9328 49.7376 47.0781 49.6774C47.2235 49.6172 47.3527 49.532 47.4642 49.4205C47.5758 49.3089 47.661 49.1797 47.7211 49.0344C47.7813 48.889 47.8122 48.7378 47.8122 48.5807C47.8122 48.4222 47.7813 48.271 47.7211 48.1256C47.661 47.9803 47.5758 47.8511 47.4642 47.7395C47.3527 47.628 47.2235 47.5428 47.0781 47.4826C46.9328 47.4224 46.7816 47.3916 46.6245 47.3916H24.8532C24.6946 47.3916 24.5434 47.4224 24.3981 47.4826C24.2528 47.5428 24.1236 47.628 24.012 47.7395C23.9004 47.8511 23.8153 47.9803 23.7551 48.1256C23.6949 48.271 23.6641 48.4222 23.6641 48.5807C23.6641 48.7378 23.6949 48.889 23.7551 49.0344C23.8153 49.1797 23.9004 49.3089 24.012 49.4205C24.1236 49.532 24.2528 49.6172 24.3981 49.6774C24.5434 49.7376 24.6946 49.7684 24.8532 49.7684H46.6245Z" stroke="#0B2D1F" mask="url(#path-4-outside-4_6721_46673)"/>
</g>
<g id="Vector_5">
<mask id="path-5-outside-5_6721_46673" maskUnits="userSpaceOnUse" x="20.7812" y="53.3062" width="30" height="4" fill="black">
<rect fill="white" x="20.7812" y="53.3062" width="30" height="4"/>
<path d="M48.7319 54.3062H22.9689C22.8118 54.3062 22.6591 54.337 22.5138 54.3972C22.3685 54.4574 22.2408 54.5425 22.1292 54.6541C22.0176 54.7657 21.931 54.8948 21.8708 55.0402C21.8106 55.1855 21.7812 55.3367 21.7812 55.4953C21.7812 55.6524 21.8106 55.8036 21.8708 55.9489C21.931 56.0942 22.0176 56.2234 22.1292 56.335C22.2408 56.4466 22.3685 56.5317 22.5138 56.5919C22.6591 56.6521 22.8118 56.6829 22.9689 56.6829H48.7319C48.889 56.6829 49.0416 56.6521 49.187 56.5919C49.3323 56.5317 49.46 56.4466 49.5716 56.335C49.6832 56.2234 49.7698 56.0942 49.83 55.9489C49.8902 55.8036 49.9195 55.6524 49.9195 55.4953C49.9195 55.3367 49.8902 55.1855 49.83 55.0402C49.7698 54.8948 49.6832 54.7657 49.5716 54.6541C49.46 54.5425 49.3323 54.4574 49.187 54.3972C49.0416 54.337 48.889 54.3062 48.7319 54.3062Z"/>
</mask>
<path d="M48.7319 54.3062H22.9689C22.8118 54.3062 22.6591 54.337 22.5138 54.3972C22.3685 54.4574 22.2408 54.5425 22.1292 54.6541C22.0176 54.7657 21.931 54.8948 21.8708 55.0402C21.8106 55.1855 21.7812 55.3367 21.7812 55.4953C21.7812 55.6524 21.8106 55.8036 21.8708 55.9489C21.931 56.0942 22.0176 56.2234 22.1292 56.335C22.2408 56.4466 22.3685 56.5317 22.5138 56.5919C22.6591 56.6521 22.8118 56.6829 22.9689 56.6829H48.7319C48.889 56.6829 49.0416 56.6521 49.187 56.5919C49.3323 56.5317 49.46 56.4466 49.5716 56.335C49.6832 56.2234 49.7698 56.0942 49.83 55.9489C49.8902 55.8036 49.9195 55.6524 49.9195 55.4953C49.9195 55.3367 49.8902 55.1855 49.83 55.0402C49.7698 54.8948 49.6832 54.7657 49.5716 54.6541C49.46 54.5425 49.3323 54.4574 49.187 54.3972C49.0416 54.337 48.889 54.3062 48.7319 54.3062Z" fill="#0B2D1F"/>
<path d="M48.7319 54.3062H22.9689C22.8118 54.3062 22.6591 54.337 22.5138 54.3972C22.3685 54.4574 22.2408 54.5425 22.1292 54.6541C22.0176 54.7657 21.931 54.8948 21.8708 55.0402C21.8106 55.1855 21.7812 55.3367 21.7812 55.4953C21.7812 55.6524 21.8106 55.8036 21.8708 55.9489C21.931 56.0942 22.0176 56.2234 22.1292 56.335C22.2408 56.4466 22.3685 56.5317 22.5138 56.5919C22.6591 56.6521 22.8118 56.6829 22.9689 56.6829H48.7319C48.889 56.6829 49.0416 56.6521 49.187 56.5919C49.3323 56.5317 49.46 56.4466 49.5716 56.335C49.6832 56.2234 49.7698 56.0942 49.83 55.9489C49.8902 55.8036 49.9195 55.6524 49.9195 55.4953C49.9195 55.3367 49.8902 55.1855 49.83 55.0402C49.7698 54.8948 49.6832 54.7657 49.5716 54.6541C49.46 54.5425 49.3323 54.4574 49.187 54.3972C49.0416 54.337 48.889 54.3062 48.7319 54.3062Z" stroke="#0B2D1F" mask="url(#path-5-outside-5_6721_46673)"/>
</g>
<g id="Vector_6">
<mask id="path-6-outside-6_6721_46673" maskUnits="userSpaceOnUse" x="33.7656" y="19.6731" width="7" height="11" fill="black">
<rect fill="white" x="33.7656" y="19.6731" width="7" height="11"/>
<path d="M38.1275 29.756C38.2435 29.8617 38.3756 29.9424 38.5224 29.9967C38.6692 30.0511 38.8219 30.0745 38.979 30.0687C39.136 30.0628 39.2858 30.0261 39.4282 29.9615C39.5706 29.8954 39.6954 29.8059 39.8025 29.6899C39.9097 29.5754 39.9904 29.4433 40.0448 29.2965C40.1006 29.1497 40.124 28.997 40.1196 28.8399C40.1138 28.6828 40.0785 28.5331 40.0125 28.3907C39.9479 28.2468 39.8583 28.122 39.7438 28.0149L37.1424 25.597V21.8608C37.1424 21.7037 37.1116 21.551 37.0514 21.4057C36.9912 21.2603 36.9046 21.1326 36.793 21.021C36.6829 20.9095 36.5537 20.8228 36.4084 20.7626C36.263 20.7025 36.1118 20.6731 35.9533 20.6731C35.7962 20.6731 35.645 20.7025 35.4997 20.7626C35.3528 20.8228 35.2251 20.9095 35.1136 21.021C35.002 21.1326 34.9168 21.2603 34.8566 21.4057C34.7965 21.551 34.7656 21.7037 34.7656 21.8608V26.1137C34.7656 26.4602 34.8919 26.7523 35.1459 26.9872L38.1275 29.756Z"/>
</mask>
<path d="M38.1275 29.756C38.2435 29.8617 38.3756 29.9424 38.5224 29.9967C38.6692 30.0511 38.8219 30.0745 38.979 30.0687C39.136 30.0628 39.2858 30.0261 39.4282 29.9615C39.5706 29.8954 39.6954 29.8059 39.8025 29.6899C39.9097 29.5754 39.9904 29.4433 40.0448 29.2965C40.1006 29.1497 40.124 28.997 40.1196 28.8399C40.1138 28.6828 40.0785 28.5331 40.0125 28.3907C39.9479 28.2468 39.8583 28.122 39.7438 28.0149L37.1424 25.597V21.8608C37.1424 21.7037 37.1116 21.551 37.0514 21.4057C36.9912 21.2603 36.9046 21.1326 36.793 21.021C36.6829 20.9095 36.5537 20.8228 36.4084 20.7626C36.263 20.7025 36.1118 20.6731 35.9533 20.6731C35.7962 20.6731 35.645 20.7025 35.4997 20.7626C35.3528 20.8228 35.2251 20.9095 35.1136 21.021C35.002 21.1326 34.9168 21.2603 34.8566 21.4057C34.7965 21.551 34.7656 21.7037 34.7656 21.8608V26.1137C34.7656 26.4602 34.8919 26.7523 35.1459 26.9872L38.1275 29.756Z" fill="#0B2D1F"/>
<path d="M38.1275 29.756C38.2435 29.8617 38.3756 29.9424 38.5224 29.9967C38.6692 30.0511 38.8219 30.0745 38.979 30.0687C39.136 30.0628 39.2858 30.0261 39.4282 29.9615C39.5706 29.8954 39.6954 29.8059 39.8025 29.6899C39.9097 29.5754 39.9904 29.4433 40.0448 29.2965C40.1006 29.1497 40.124 28.997 40.1196 28.8399C40.1138 28.6828 40.0785 28.5331 40.0125 28.3907C39.9479 28.2468 39.8583 28.122 39.7438 28.0149L37.1424 25.597V21.8608C37.1424 21.7037 37.1116 21.551 37.0514 21.4057C36.9912 21.2603 36.9046 21.1326 36.793 21.021C36.6829 20.9095 36.5537 20.8228 36.4084 20.7626C36.263 20.7025 36.1118 20.6731 35.9533 20.6731C35.7962 20.6731 35.645 20.7025 35.4997 20.7626C35.3528 20.8228 35.2251 20.9095 35.1136 21.021C35.002 21.1326 34.9168 21.2603 34.8566 21.4057C34.7965 21.551 34.7656 21.7037 34.7656 21.8608V26.1137C34.7656 26.4602 34.8919 26.7523 35.1459 26.9872L38.1275 29.756Z" stroke="#0B2D1F" mask="url(#path-6-outside-6_6721_46673)"/>
</g>
</g>
</g>
</g>
</svg>
