<svg width="72" height="72" viewBox="0 0 72 72" fill="none" xmlns="http://www.w3.org/2000/svg">
<g id="attendance">
<g id="Group 1171275527">
<path id="Vector 846" d="M29.2431 48.1212L31.6674 44.7273H33.1219L35.5462 47.6364V48.6061L33.6068 51.0303L35.5462 64.6061H28.2734L30.6977 51.0303L29.2431 48.1212Z" fill="#990000"/>
<g id="Group 1171275526">
<g id="Ellipse 2616">
<mask id="path-2-outside-1_6721_46466" maskUnits="userSpaceOnUse" x="46.6367" y="48.5454" width="22" height="22" fill="black">
<rect fill="white" x="46.6367" y="48.5454" width="22" height="22"/>
<path d="M66.0913 59.2727C66.0913 64.0926 62.1839 68 57.364 68C52.5441 68 48.6367 64.0926 48.6367 59.2727C48.6367 54.4527 52.5441 50.5454 57.364 50.5454C62.1839 50.5454 66.0913 54.4527 66.0913 59.2727Z"/>
</mask>
<path d="M66.0913 59.2727C66.0913 64.0926 62.1839 68 57.364 68C52.5441 68 48.6367 64.0926 48.6367 59.2727C48.6367 54.4527 52.5441 50.5454 57.364 50.5454C62.1839 50.5454 66.0913 54.4527 66.0913 59.2727Z" fill="#FF3333"/>
<path d="M66.0913 59.2727C66.0913 64.0926 62.1839 68 57.364 68C52.5441 68 48.6367 64.0926 48.6367 59.2727C48.6367 54.4527 52.5441 50.5454 57.364 50.5454C62.1839 50.5454 66.0913 54.4527 66.0913 59.2727Z" stroke="#4D0000" stroke-width="3.41053" mask="url(#path-2-outside-1_6721_46466)"/>
</g>
<path id="Vector" d="M56.0489 62.9991L52.668 59.6182C52.4648 59.4151 52.4648 59.0857 52.668 58.8826L53.4035 58.147C53.6067 57.9438 53.936 57.9438 54.1391 58.147L56.4167 60.4245L61.295 55.5463C61.4981 55.3431 61.8275 55.3431 62.0306 55.5463L62.7662 56.2819C62.9693 56.485 62.9693 56.8143 62.7662 57.0175L56.7845 62.9992C56.5814 63.2023 56.252 63.2023 56.0489 62.9991V62.9991Z" fill="#4D0000"/>
</g>
<g id="Group">
<path id="Vector_2" d="M33.9597 4.00124C34.8751 4.23847 35.8228 4.39248 36.7009 4.72659C39.5675 5.81709 41.5957 7.80807 42.8191 10.6287C42.916 10.8535 43.1731 11.0945 43.4041 11.1616C45.8025 11.8621 47.2134 13.6667 47.2432 16.1769C47.2644 17.9356 47.2569 19.6943 47.2408 21.453C47.237 21.8517 47.3463 22.1262 47.6482 22.4169C49.0206 23.7384 49.5646 25.358 49.0815 27.2185C48.5759 29.1611 47.2979 30.377 45.3442 30.885C45.1156 30.9446 44.7865 31.0937 44.7294 31.2725C43.9929 33.5852 42.4565 35.324 40.7536 36.9561C39.9177 37.7572 39.1117 38.5906 38.2919 39.4091C37.3207 40.3791 36.1817 41.015 34.7832 41.0349C33.0667 41.0597 31.3502 41.0573 29.635 41.0324C28.3544 41.0138 27.2602 40.4884 26.3597 39.6053C24.9426 38.2155 23.5515 36.7971 22.1629 35.3775C21.0898 34.2807 20.3321 32.9828 19.8415 31.5334C19.7074 31.1384 19.4975 30.9546 19.0777 30.8552C17.1376 30.3944 15.8782 29.1673 15.3665 27.2533C14.8709 25.3965 15.3975 23.7707 16.7625 22.4405C17.0755 22.1349 17.2047 21.853 17.1985 21.4269C17.165 19.2534 17.1314 17.0761 17.776 14.9647C19.3845 9.70341 22.8187 6.23938 28.0725 4.61853C29.0524 4.31672 30.0895 4.20121 31.1006 4C32.0557 4.00124 33.0071 4.00124 33.9597 4.00124ZM21.2748 23.0341C21.2748 25.0673 21.1916 27.0111 21.2984 28.945C21.4053 30.8639 22.2387 32.5431 23.554 33.9379C24.8879 35.3514 26.2902 36.7015 27.6614 38.0814C28.342 38.767 29.1642 39.065 30.1256 39.0539C31.4496 39.0377 32.7761 39.0141 34.0988 39.0601C35.28 39.1011 36.2227 38.6924 37.0337 37.8503C38.0671 36.7772 39.1179 35.719 40.1947 34.6906C42.3236 32.6562 43.3358 30.1808 43.2588 27.2397C43.2265 26.0187 43.2352 24.7966 43.2625 23.5769C43.2725 23.1236 43.1495 22.9397 42.675 22.8478C40.735 22.4703 39.1353 21.4953 37.9032 19.9427C37.5765 19.5304 37.2933 19.0832 36.9791 18.6373C36.4599 19.0348 35.9979 19.4173 35.5085 19.7601C32.1886 22.0827 28.4786 23.0962 24.4495 23.0379C23.3975 23.0205 22.3442 23.0341 21.2748 23.0341ZM19.2454 21.0233C21.3183 21.0233 23.323 21.0519 25.3263 21.0171C29.471 20.9475 33.0717 19.4956 36.1146 16.6737C36.5456 16.2738 36.9729 15.8701 37.4921 15.3832C39.0744 18.6759 41.0269 21.3909 45.2411 21.0307C45.2411 19.4372 45.256 17.8275 45.2374 16.2191C45.215 14.2902 44.0463 13.0755 42.1124 13.0221C41.5932 13.0085 41.4243 12.8234 41.2765 12.3614C40.1748 8.93584 37.8907 6.69645 34.3112 6.1661C29.9653 5.52273 26.1051 6.74365 22.9652 9.89965C19.8912 12.9911 18.9113 16.8029 19.2454 21.0233ZM19.1621 28.7798C19.1621 26.9366 19.1621 25.1332 19.1621 23.3111C18.0182 23.6614 17.2333 24.7457 17.1997 25.9517C17.1637 27.2223 17.935 28.3525 19.1621 28.7798ZM45.2572 28.7785C46.5117 28.3736 47.3327 27.1254 47.2358 25.8374C47.1451 24.6264 46.2683 23.5024 45.2572 23.3484C45.2572 25.1468 45.2572 26.9391 45.2572 28.7785Z" fill="#4D0000"/>
</g>
<path id="Subtract" fill-rule="evenodd" clip-rule="evenodd" d="M5.24844 64.5689C5.16629 65.0628 5.08365 65.5596 5 66.0607H47.3507C46.5463 65.4943 45.8236 64.8194 45.2041 64.0573H37.0904C36.8399 62.2993 36.5895 60.5486 36.3391 58.798L36.3377 58.7886C36.2498 58.1749 36.1641 57.5608 36.0784 56.9467C35.8639 55.4098 35.6494 53.873 35.4 52.3413C35.2857 51.642 35.3168 51.0508 35.7999 50.5018C35.9629 50.317 36.0952 50.1049 36.2395 49.8736C36.3085 49.7629 36.3802 49.6479 36.4594 49.5293C36.7688 49.8958 37.0702 50.253 37.3725 50.6115C37.8131 51.1337 38.2558 51.6585 38.7286 52.2183C39.4801 49.2076 40.2029 46.3149 40.9432 43.3527C41.4335 43.5162 41.9162 43.6763 42.3939 43.8347C43.3125 44.1394 44.2121 44.4377 45.1102 44.7425C45.5339 44.8866 45.9592 45.0271 46.3844 45.1677C47.5098 45.5396 48.6355 45.9116 49.7343 46.3497C50.1822 46.5282 50.6061 46.7306 51.005 46.9563C51.8008 46.7668 52.6311 46.6665 53.4848 46.6665C53.6505 46.6665 53.8152 46.6703 53.979 46.6778C52.9419 45.7088 51.6715 44.9325 50.159 44.3637C48.2979 43.6648 46.4044 43.0498 44.5113 42.4349C43.8069 42.2061 43.1026 41.9773 42.4001 41.7442L42.3486 41.7272C41.3206 41.3868 41.314 41.3846 41.2077 40.2836C41.2045 40.2454 41.189 40.2083 41.1703 40.1635C41.1605 40.1399 41.1497 40.1141 41.1394 40.0849H39.2615C39.3344 41.854 38.8871 43.5008 38.4285 45.1894C38.1845 46.0877 37.9374 46.9978 37.7636 47.9445C37.4684 47.5927 37.1726 47.2635 36.8856 46.9438C36.2714 46.2601 35.6969 45.6205 35.2534 44.9002C34.2821 43.3229 32.9793 42.7577 31.2255 43.0819C30.951 43.1328 30.6244 43.2508 30.4517 43.4508C29.6901 44.3306 28.947 45.226 28.2037 46.1216C27.8768 46.5156 27.5498 46.9096 27.2212 47.3023C27.1242 47.4183 27.0184 47.5277 26.8845 47.6663C26.8161 47.737 26.7404 47.8153 26.6548 47.906C26.4885 46.9312 26.2332 45.9961 25.9811 45.0727C25.531 43.4241 25.0912 41.8132 25.1867 40.0824H23.2777C23.2706 40.1343 23.2601 40.1831 23.2502 40.2293C23.2309 40.319 23.2137 40.399 23.2268 40.4736C23.3473 41.1555 23.0281 41.435 22.3922 41.6362C19.887 42.4274 17.3955 43.2595 14.9102 44.1103C10.6786 45.5598 8.05788 48.4574 7.22945 52.8766C6.85308 54.8856 6.52134 56.9027 6.18956 58.92C6.05163 59.7586 5.91369 60.5973 5.77254 61.4354C5.59666 62.4755 5.42366 63.5155 5.24844 64.5689ZM23.3233 43.4346C23.3767 43.4223 23.437 43.4085 23.5075 43.3912C24.2341 46.3 24.9545 49.1828 25.7159 52.2257C26.1982 51.6509 26.6548 51.1075 27.112 50.5632C27.3977 50.2232 27.6836 49.8829 27.9764 49.5343C28.0847 49.6956 28.1907 49.852 28.2944 50.005C28.5698 50.4114 28.8292 50.7942 29.0755 51.1849C29.1439 51.293 29.1501 51.4644 29.1314 51.5998C28.5464 55.7357 27.9552 59.8717 27.3578 64.0486H16.3099C16.4868 62.262 16.6628 60.4925 16.8395 58.7157C16.9556 57.5478 17.0721 56.3767 17.1893 55.1954L17.1207 55.1882C16.4896 55.1214 15.8985 55.0588 15.2356 54.9893C15.2201 55.0783 15.2036 55.1631 15.1877 55.2453C15.1551 55.4131 15.1247 55.5698 15.1089 55.7283C15.0678 56.1462 15.0265 56.5642 14.9852 56.9821C14.7721 59.1387 14.559 61.2949 14.3687 63.4537C14.3252 63.9456 14.1687 64.1194 13.657 64.112C12.3561 64.0922 11.0546 64.095 9.75335 64.0978C9.17115 64.0991 8.589 64.1003 8.00696 64.0996C7.88645 64.0996 7.76595 64.0909 7.62437 64.0807C7.55145 64.0755 7.47293 64.0699 7.38595 64.0648C7.4517 63.6554 7.51623 63.25 7.5803 62.8475C7.71953 61.9729 7.8566 61.1117 7.99951 60.2518C8.16617 59.2467 8.33537 58.2419 8.50459 57.237C8.7099 56.0178 8.91524 54.7984 9.11609 53.5783C9.73959 49.7988 11.861 47.28 15.479 46.0404C17.3155 45.4111 19.1586 44.7995 21.0015 44.188C21.69 43.9595 22.3785 43.7311 23.0666 43.5017C23.142 43.4763 23.2196 43.4585 23.3233 43.4346ZM35.03 63.8788C35.0338 63.9307 35.038 63.9889 35.0435 64.0561H35.0175C33.1265 64.0561 31.3037 64.0561 29.401 64.0573C29.4084 63.9797 29.4146 63.9061 29.4206 63.8352C29.4325 63.6928 29.4436 63.5615 29.4618 63.4314C29.5534 62.7899 29.6448 62.1484 29.7363 61.5069C30.2143 58.1538 30.6924 54.8003 31.1845 51.4495C31.2504 51.0061 31.1696 50.6595 30.9075 50.2981C30.642 49.9325 30.394 49.5548 30.146 49.1772C29.9509 48.8801 29.7559 48.5832 29.5525 48.2922C29.3712 48.0326 29.3476 47.8476 29.5736 47.5905C29.967 47.1413 30.3467 46.6804 30.7263 46.2195C30.9387 45.9616 31.1511 45.7038 31.3659 45.448C31.8155 44.9114 32.6228 44.9089 33.065 45.438C33.2065 45.6076 33.3489 45.7765 33.4914 45.9454C33.949 46.4881 34.407 47.0312 34.8361 47.5967C34.9528 47.7495 34.9678 48.0997 34.8721 48.2711C34.5728 48.8114 34.2486 49.3566 33.84 49.8162C33.1867 50.5502 33.2227 51.3389 33.3593 52.2344C33.7864 55.0272 34.1831 57.8241 34.5798 60.621C34.7207 61.6141 34.8615 62.6073 35.0038 63.6003C35.0157 63.682 35.0218 63.7655 35.03 63.8788Z" fill="#4D0000"/>
</g>
</g>
</svg>
