<svg width="72" height="72" viewBox="0 0 72 72" fill="none" xmlns="http://www.w3.org/2000/svg">
<g id="my-timesheets-lines">
<g id="Group 1171275701">
<ellipse id="Ellipse 2772" cx="36" cy="36.5" rx="30" ry="28.5" fill="#2EB67D"/>
<g id="Group 90">
<path id="Vector" d="M35.6867 66.6814C31.0912 66.7141 26.7213 65.7214 22.5427 63.8738C18.6674 62.1629 15.2528 59.8032 12.3344 56.7694C9.38738 53.7208 7.12316 50.0795 5.69234 46.088C5.00113 44.168 4.49169 42.2058 4.22927 40.1896C3.96813 38.1837 3.94701 36.1624 4.08079 34.1453C4.33231 30.3478 5.39344 26.7594 7.08245 23.3493C8.29848 20.8915 9.86844 18.6605 11.7354 16.6322C14.0317 14.136 16.6315 12.008 19.5979 10.3228C22.8262 8.48914 26.2901 7.27887 29.9426 6.57868C32.035 6.16778 34.1643 5.97474 36.2965 6.00264C40.3242 6.07306 44.2232 6.75405 47.9597 8.26642C51.6126 9.74018 54.9882 11.8258 57.9406 14.4338C61.883 17.9045 64.6608 22.1331 66.4421 27.0075C67.1813 29.0326 67.6176 31.1318 67.8333 33.276C67.9686 34.5696 68.0216 35.8702 67.992 37.1706C67.8998 40.6477 67.2178 44.0067 65.8928 47.2363C65.6752 47.7674 65.464 48.3008 65.2592 48.8363C65.1875 49.0283 65.1146 49.0565 64.9488 48.9213C63.9754 48.1264 62.9821 47.3592 61.8562 46.7766C61.6477 46.6691 61.6942 46.5245 61.764 46.36C62.3784 44.9059 62.9002 43.4222 63.2482 41.8798C63.4902 40.7915 63.656 39.6875 63.7443 38.576C63.7589 38.3925 63.6733 38.3571 63.5216 38.361C63.2152 38.3632 62.9099 38.324 62.6141 38.2446C61.7179 38.02 61.2264 37.385 61.2061 36.4715C61.1888 35.7408 61.3885 35.1237 62.0586 34.7328C62.4645 34.5035 62.9283 34.3976 63.3936 34.4275C63.7059 34.4421 63.7834 34.3277 63.7627 34.0435C63.656 32.5757 63.3672 31.1429 62.9678 29.7277C62.5238 28.1739 61.9522 26.6594 61.259 25.1997C61.1707 25.0114 61.0894 24.9781 60.907 25.083C60.2826 25.4421 59.627 25.5722 58.923 25.3149C57.451 24.779 57.1131 23.0037 58.2965 21.9962C58.4656 21.8469 58.6482 21.7134 58.8418 21.5974C59.0376 21.4842 59.0837 21.3946 58.9307 21.1974C57.415 19.2454 55.7619 17.4213 53.7606 15.9352C53.1942 15.5141 52.6086 15.1122 52.0422 14.6949C51.8688 14.5669 51.7606 14.5854 51.6352 14.7653C51.2429 15.3298 50.775 15.8002 50.0512 15.9467C48.6782 16.2251 47.3349 14.8658 47.6736 13.535C47.7262 13.297 47.8162 13.0685 47.9405 12.8586C48.0864 12.6288 48.0126 12.5296 47.7811 12.4278C46.3258 11.7951 44.8203 11.2843 43.2805 10.9008C41.7498 10.5156 40.1914 10.2515 38.6192 10.111C38.1558 10.0694 38.1558 10.0713 38.1322 10.5123C38.0426 12.1565 36.449 13.039 34.9672 12.2627C34.312 11.9197 34.0931 11.3232 34.0144 10.6492C34.004 10.5628 34.0067 10.4745 34.0034 10.3875C33.9957 10.1705 33.8907 10.0847 33.663 10.0956C32.7837 10.1385 31.917 10.2761 31.0517 10.4156C28.7118 10.7996 26.4794 11.5382 24.2942 12.4285C24.0499 12.5283 24.048 12.6205 24.1664 12.8278C24.759 13.9037 24.5043 15.0302 23.5526 15.6178C22.5562 16.2334 21.2864 15.9339 20.5682 14.9138C20.2987 14.5298 20.3006 14.5342 19.9192 14.7902C17.3138 16.5306 15.0278 18.7072 13.1619 21.2243C13.0218 21.4131 13.0339 21.5046 13.2362 21.6243C13.6387 21.8598 13.9901 22.1568 14.232 22.5606C14.5085 23.0214 14.5744 23.5042 14.3939 24.0149C13.9581 25.2458 12.6397 25.7877 11.4019 25.243C10.8656 25.0075 10.8707 25.0101 10.6218 25.528C9.40572 28.0616 8.68633 30.7333 8.33689 33.5064C8.31065 33.7182 8.29849 33.9314 8.27289 34.1434C8.24855 34.3392 8.31448 34.4333 8.52888 34.4222C8.87562 34.4056 9.22252 34.4515 9.55292 34.5581C10.4771 34.8491 10.9731 35.7414 10.7882 36.7706C10.6154 37.7306 9.89212 38.2907 8.74009 38.356C8.22167 38.3848 8.21337 38.3859 8.27801 38.8947C8.65689 41.8517 9.43706 44.6966 10.7376 47.3968C10.8458 47.6222 10.9475 47.6483 11.16 47.5325C11.944 47.1062 12.7382 47.0558 13.519 47.5383C13.7805 47.6971 14.0003 47.9162 14.1602 48.177C14.32 48.4376 14.4154 48.733 14.4384 49.0381C14.4613 49.343 14.4112 49.6493 14.2922 49.9309C14.1731 50.2128 13.9886 50.4622 13.7539 50.6584C13.5906 50.8 13.4123 50.923 13.2221 51.0258C13.0198 51.1322 13.0083 51.2267 13.1402 51.4053C13.8672 52.3877 14.6626 53.3176 15.5205 54.1882C16.8894 55.5821 18.3678 56.8474 20.0152 57.9187C20.2386 58.0635 20.3486 58.0584 20.4984 57.828C20.8242 57.3262 21.2549 56.9237 21.8515 56.7502C22.6803 56.5094 23.3688 56.7936 23.9475 57.371C24.5261 57.9483 24.6726 58.6402 24.3648 59.4069C24.3283 59.4971 24.2899 59.5867 24.247 59.6746C24.035 60.1019 24.035 60.0994 24.4941 60.2978C26.9606 61.3634 29.547 62.0042 32.2037 62.3933C32.6715 62.4611 33.1438 62.5008 33.6117 62.5642C33.9003 62.6032 34.0091 62.4771 34.0059 62.209C33.9981 61.848 34.0722 61.4899 34.2229 61.1618C34.5474 60.4667 35.2931 60.0898 36.1947 60.1546C37.4109 60.2421 38.0822 60.9494 38.1322 62.187C38.1475 62.575 38.1488 62.5878 38.5296 62.5629C40.1202 62.4598 41.6754 62.1456 43.2202 61.7781C43.4763 61.7142 43.7374 61.6502 43.9947 61.5861C44.1629 61.54 44.2738 61.5784 44.3486 61.7454C44.8523 62.8618 45.548 63.8642 46.2802 64.8419C46.4256 65.0341 46.4133 65.1267 46.1579 65.1958C44.3659 65.6792 42.5846 66.1885 40.7384 66.412C39.0619 66.6106 37.3746 66.7005 35.6867 66.6814Z" fill="#0B2D1F"/>
<path id="Vector_2" d="M38.1385 23.837C38.1385 26.6532 38.1417 29.4692 38.1328 32.2854C38.1328 32.5297 38.2096 32.6694 38.4201 32.7974C38.9718 33.1393 39.4504 33.5873 39.8281 34.1151C39.9805 34.3238 40.1481 34.3916 40.3965 34.391C42.895 34.3841 45.3937 34.3841 47.8923 34.391C49.1264 34.3942 50.3609 34.4122 51.5942 34.4383C51.9689 34.4479 52.3426 34.482 52.713 34.5409C53.9584 34.7329 54.4814 35.4183 54.3507 36.6612C54.2598 37.5276 53.849 37.9905 52.9786 38.1863C52.3693 38.3239 51.7464 38.3534 51.1224 38.3553C47.5576 38.3642 43.9923 38.3662 40.4265 38.361C40.1302 38.361 39.9504 38.4436 39.7757 38.6926C37.7142 41.6366 33.4971 41.0748 32.0513 38.3002C31.1553 36.5849 31.3805 34.1337 33.6584 32.7321C33.9041 32.5804 33.9784 32.4121 33.9784 32.1438C33.9702 28.901 33.9702 25.6582 33.9784 22.4154C33.9835 20.1754 34.0053 17.9308 34.0213 15.6889C34.0184 15.2518 34.0507 14.8151 34.1179 14.3831C34.2581 13.5511 34.8129 13.034 35.6603 12.9393C35.935 12.9025 36.2139 12.9089 36.4867 12.9585C37.4862 13.1614 38.008 13.7828 38.0776 14.7831C38.1629 16.0153 38.1294 17.2479 38.136 18.4799C38.1448 20.2644 38.1385 22.0506 38.1385 23.837Z" fill="#0B2D1F"/>
<path id="Vector_3" d="M35.9942 52.9542H41.4446C42.2549 52.9542 43.0586 53.0419 43.8631 53.1194C44.128 53.1443 44.0723 53.2902 44.0334 53.4443C43.863 54.1221 43.6565 54.7917 43.5592 55.4854C43.5054 55.8694 43.4459 56.2534 43.4152 56.6374C43.3973 56.8544 43.2955 56.9267 43.095 56.9205C43.0163 56.9205 42.9371 56.9205 42.8584 56.9205C39.3434 56.9205 35.8285 56.9389 32.3134 56.909C31.2203 56.8998 30.1232 56.9293 29.0302 56.8294C28.0062 56.7362 27.2382 56.0373 27.1941 55.1085C27.1434 54.0915 27.8166 53.2454 28.8344 53.068C29.5165 52.949 30.2085 52.9485 30.8997 52.9485H35.9942V52.9542Z" fill="#0B2D1F"/>
<path id="Vector_4" d="M35.9983 47.9347C37.2142 47.9347 38.4252 47.94 39.6386 47.9304C39.746 47.9235 39.8537 47.941 39.9534 47.9815C40.053 48.0219 40.1425 48.0842 40.2146 48.164C40.4706 48.4341 40.7618 48.6671 40.9775 48.973C41.4146 49.5931 41.3335 50.2114 40.9937 50.8379C40.6684 51.437 40.2089 51.7941 39.4793 51.8248C37.0332 51.9274 34.587 51.8511 32.1415 51.8818C31.9463 51.8818 31.8036 51.8314 31.6865 51.6739C31.4996 51.4235 31.2839 51.1944 31.1047 50.9397C30.567 50.1755 30.6226 49.3653 31.2615 48.6805C31.474 48.452 31.7198 48.2536 31.9438 48.0354C32.057 47.9251 32.1934 47.9355 32.3278 47.9355L35.9983 47.9347Z" fill="#0B2D1F"/>
</g>
<g id="Group 1171275677">
<circle id="Ellipse 2770" cx="55.5" cy="14.5" r="11.4336" fill="#97DBBE" stroke="#0B2D1F" stroke-width="2.13281"/>
<path id="Vector_5" d="M54.0108 14.5674C53.5514 14.3856 53.1222 14.1299 52.7387 13.8093C51.021 12.3595 50.8078 9.6976 52.2825 7.98566C53.0719 7.06975 54.0668 6.58435 55.2563 6.50865C57.2943 6.37642 59.2139 7.77145 59.625 9.91766C59.9448 11.5873 59.1541 13.3367 57.6659 14.2294C57.4443 14.3582 57.2142 14.4706 56.9777 14.5661C57.4842 14.6768 57.9482 14.7866 58.392 14.9694C60.2566 15.7479 61.4721 17.1108 61.9258 19.1455C62.0739 19.8101 62.0233 20.4545 61.5624 20.9967C61.3916 21.2027 61.1802 21.3678 60.9427 21.4805C60.7054 21.5935 60.4474 21.6516 60.1865 21.6509C57.055 21.6649 53.9235 21.6808 50.7926 21.6443C49.7704 21.6324 49.0328 20.8985 49.0016 19.8511C48.9771 19.0317 49.2421 18.2836 49.6274 17.5834C50.5476 15.9084 51.9901 14.9995 53.7858 14.6168C53.8478 14.6045 53.9095 14.5899 54.0108 14.5674ZM55.4874 18.9974H58.9051C59.1127 18.9974 59.1199 18.9845 59.0165 18.8052C58.6819 18.2234 58.217 17.7838 57.6115 17.5212C56.3803 16.9869 55.114 16.9922 53.845 17.3391C53.4574 17.4408 53.0928 17.6217 52.7726 17.8713C52.4522 18.121 52.1825 18.4345 51.9787 18.7937C51.9471 18.8483 51.8808 18.9074 51.9243 18.9722C51.9576 19.0228 52.0336 18.9974 52.0931 18.9974C53.2238 18.998 54.3554 18.998 55.4879 18.9974H55.4874ZM55.493 12.1739C56.3613 12.1739 57.0453 11.5093 57.0461 10.6642C57.0461 9.83039 56.3444 9.14356 55.4934 9.14488C54.6424 9.14621 53.9415 9.82686 53.9412 10.6629C53.9407 11.4992 54.6277 12.1739 55.4934 12.1739H55.493Z" fill="#0B2D1F"/>
</g>
<g id="Group 1171275678">
<circle id="Ellipse 2770_2" cx="55.5" cy="57.5" r="11.4336" fill="#97DBBE" stroke="#0B2D1F" stroke-width="2.13281"/>
</g>
<path id="Vector_6" d="M58.9412 54.0509C58.4665 54.1998 58.1263 54.7737 58.2184 55.2769C58.3035 55.7233 58.7287 56.106 59.1468 56.106C59.246 56.106 59.3239 56.1272 59.3239 56.1627C59.3239 56.191 58.7641 56.7721 58.0838 57.4524L56.8437 58.6925L55.1217 56.9705C53.258 55.1139 53.1517 55.0359 52.6132 55.1777C52.3935 55.2414 51.94 55.6595 50.2038 57.3957C48.3755 59.231 48.0637 59.5783 48.0212 59.805C47.8937 60.4995 48.3543 61.0664 49.0487 61.0664C49.2117 61.0664 49.4101 61.031 49.4952 60.9885C49.5802 60.9459 50.3739 60.1877 51.2668 59.309L52.8754 57.7004L54.5619 59.3799C55.4831 60.3011 56.3122 61.0877 56.3973 61.1302C56.5957 61.2294 57.0917 61.2294 57.2901 61.1302C57.3752 61.0877 58.2114 60.2869 59.1538 59.3515L60.8616 57.6508L60.9042 57.9343C61.0671 58.9192 62.4277 59.1248 62.8883 58.2319C63.0017 58.0122 63.0088 57.7996 62.9946 56.3398C62.9734 54.5328 62.9663 54.5257 62.4844 54.1643C62.3002 54.0226 62.1868 54.0155 60.7199 54.0013C59.8554 53.9943 59.0546 54.0155 58.9412 54.0509Z" fill="#0B2D1F"/>
</g>
</g>
</svg>
