<svg width="72" height="72" viewBox="0 0 72 72" fill="none" xmlns="http://www.w3.org/2000/svg">
<g id="my-timesheets">
<ellipse id="Ellipse 2772" cx="36" cy="34.5" rx="30" ry="28.5" fill="#2EB67D"/>
<g id="Group 90">
<path id="Vector" d="M35.6867 64.6814C31.0912 64.7141 26.7213 63.7214 22.5427 61.8738C18.6674 60.1629 15.2528 57.8032 12.3344 54.7694C9.38738 51.7208 7.12316 48.0795 5.69234 44.088C5.00113 42.168 4.49169 40.2058 4.22927 38.1896C3.96813 36.1837 3.94701 34.1624 4.08079 32.1453C4.33231 28.3478 5.39344 24.7594 7.08245 21.3493C8.29848 18.8915 9.86844 16.6605 11.7354 14.6322C14.0317 12.136 16.6315 10.008 19.5979 8.32282C22.8262 6.48914 26.2901 5.27887 29.9426 4.57868C32.035 4.16778 34.1643 3.97474 36.2965 4.00264C40.3242 4.07306 44.2232 4.75405 47.9597 6.26642C51.6126 7.74018 54.9882 9.82578 57.9406 12.4338C61.883 15.9045 64.6608 20.1331 66.4421 25.0075C67.1813 27.0326 67.6176 29.1318 67.8333 31.276C67.9686 32.5696 68.0216 33.8702 67.992 35.1706C67.8998 38.6477 67.2178 42.0067 65.8928 45.2363C65.6752 45.7674 65.464 46.3008 65.2592 46.8363C65.1875 47.0283 65.1146 47.0565 64.9488 46.9213C63.9754 46.1264 62.9821 45.3592 61.8562 44.7766C61.6477 44.6691 61.6942 44.5245 61.764 44.36C62.3784 42.9059 62.9002 41.4222 63.2482 39.8798C63.4902 38.7915 63.656 37.6875 63.7443 36.576C63.7589 36.3925 63.6733 36.3571 63.5216 36.361C63.2152 36.3632 62.9099 36.324 62.6141 36.2446C61.7179 36.02 61.2264 35.385 61.2061 34.4715C61.1888 33.7408 61.3885 33.1237 62.0586 32.7328C62.4645 32.5035 62.9283 32.3976 63.3936 32.4275C63.7059 32.4421 63.7834 32.3277 63.7627 32.0435C63.656 30.5757 63.3672 29.1429 62.9678 27.7277C62.5238 26.1739 61.9522 24.6594 61.259 23.1997C61.1707 23.0114 61.0894 22.9781 60.907 23.083C60.2826 23.4421 59.627 23.5722 58.923 23.3149C57.451 22.779 57.1131 21.0037 58.2965 19.9962C58.4656 19.8469 58.6482 19.7134 58.8418 19.5974C59.0376 19.4842 59.0837 19.3946 58.9307 19.1974C57.415 17.2454 55.7619 15.4213 53.7606 13.9352C53.1942 13.5141 52.6086 13.1122 52.0422 12.6949C51.8688 12.5669 51.7606 12.5854 51.6352 12.7653C51.2429 13.3298 50.775 13.8002 50.0512 13.9467C48.6782 14.2251 47.3349 12.8658 47.6736 11.535C47.7262 11.297 47.8162 11.0685 47.9405 10.8586C48.0864 10.6288 48.0126 10.5296 47.7811 10.4278C46.3258 9.79511 44.8203 9.28432 43.2805 8.90076C41.7498 8.51559 40.1914 8.25152 38.6192 8.11096C38.1558 8.06936 38.1558 8.07128 38.1322 8.51226C38.0426 10.1565 36.449 11.039 34.9672 10.2627C34.312 9.91968 34.0931 9.32317 34.0144 8.64922C34.004 8.56282 34.0067 8.4745 34.0034 8.38746C33.9957 8.1705 33.8907 8.08472 33.663 8.0956C32.7837 8.13848 31.917 8.2761 31.0517 8.41564C28.7118 8.79964 26.4794 9.53821 24.2942 10.4285C24.0499 10.5283 24.048 10.6205 24.1664 10.8278C24.759 11.9037 24.5043 13.0302 23.5526 13.6178C22.5562 14.2334 21.2864 13.9339 20.5682 12.9138C20.2987 12.5298 20.3006 12.5342 19.9192 12.7902C17.3138 14.5306 15.0278 16.7072 13.1619 19.2243C13.0218 19.4131 13.0339 19.5046 13.2362 19.6243C13.6387 19.8598 13.9901 20.1568 14.232 20.5606C14.5085 21.0214 14.5744 21.5042 14.3939 22.0149C13.9581 23.2458 12.6397 23.7877 11.4019 23.243C10.8656 23.0075 10.8707 23.0101 10.6218 23.528C9.40572 26.0616 8.68633 28.7333 8.33689 31.5064C8.31065 31.7182 8.29849 31.9314 8.27289 32.1434C8.24855 32.3392 8.31448 32.4333 8.52888 32.4222C8.87562 32.4056 9.22252 32.4515 9.55292 32.5581C10.4771 32.8491 10.9731 33.7414 10.7882 34.7706C10.6154 35.7306 9.89212 36.2907 8.74009 36.356C8.22167 36.3848 8.21337 36.3859 8.27801 36.8947C8.65689 39.8517 9.43706 42.6966 10.7376 45.3968C10.8458 45.6222 10.9475 45.6483 11.16 45.5325C11.944 45.1062 12.7382 45.0558 13.519 45.5383C13.7805 45.6971 14.0003 45.9162 14.1602 46.177C14.32 46.4376 14.4154 46.733 14.4384 47.0381C14.4613 47.343 14.4112 47.6493 14.2922 47.9309C14.1731 48.2128 13.9886 48.4622 13.7539 48.6584C13.5906 48.8 13.4123 48.923 13.2221 49.0258C13.0198 49.1322 13.0083 49.2267 13.1402 49.4053C13.8672 50.3877 14.6626 51.3176 15.5205 52.1882C16.8894 53.5821 18.3678 54.8474 20.0152 55.9187C20.2386 56.0635 20.3486 56.0584 20.4984 55.828C20.8242 55.3262 21.2549 54.9237 21.8515 54.7502C22.6803 54.5094 23.3688 54.7936 23.9475 55.371C24.5261 55.9483 24.6726 56.6402 24.3648 57.4069C24.3283 57.4971 24.2899 57.5867 24.247 57.6746C24.035 58.1019 24.035 58.0994 24.4941 58.2978C26.9606 59.3634 29.547 60.0042 32.2037 60.3933C32.6715 60.4611 33.1438 60.5008 33.6117 60.5642C33.9003 60.6032 34.0091 60.4771 34.0059 60.209C33.9981 59.848 34.0722 59.4899 34.2229 59.1618C34.5474 58.4667 35.2931 58.0898 36.1947 58.1546C37.4109 58.2421 38.0822 58.9494 38.1322 60.187C38.1475 60.575 38.1488 60.5878 38.5296 60.5629C40.1202 60.4598 41.6754 60.1456 43.2202 59.7781C43.4763 59.7142 43.7374 59.6502 43.9947 59.5861C44.1629 59.54 44.2738 59.5784 44.3486 59.7454C44.8523 60.8618 45.548 61.8642 46.2802 62.8419C46.4256 63.0341 46.4133 63.1267 46.1579 63.1958C44.3659 63.6792 42.5846 64.1885 40.7384 64.412C39.0619 64.6106 37.3746 64.7005 35.6867 64.6814Z" fill="#0B2D1F"/>
<path id="Vector_2" d="M38.1385 21.837C38.1385 24.6532 38.1417 27.4692 38.1328 30.2854C38.1328 30.5297 38.2096 30.6694 38.4201 30.7974C38.9718 31.1393 39.4504 31.5873 39.8281 32.1151C39.9805 32.3238 40.1481 32.3916 40.3965 32.391C42.895 32.3841 45.3937 32.3841 47.8923 32.391C49.1264 32.3942 50.3609 32.4122 51.5942 32.4383C51.9689 32.4479 52.3426 32.482 52.713 32.5409C53.9584 32.7329 54.4814 33.4183 54.3507 34.6612C54.2598 35.5276 53.849 35.9905 52.9786 36.1863C52.3693 36.3239 51.7464 36.3534 51.1224 36.3553C47.5576 36.3642 43.9923 36.3662 40.4265 36.361C40.1302 36.361 39.9504 36.4436 39.7757 36.6926C37.7142 39.6366 33.4971 39.0748 32.0513 36.3002C31.1553 34.5849 31.3805 32.1337 33.6584 30.7321C33.9041 30.5804 33.9784 30.4121 33.9784 30.1438C33.9702 26.901 33.9702 23.6582 33.9784 20.4154C33.9835 18.1754 34.0053 15.9308 34.0213 13.6889C34.0184 13.2518 34.0507 12.8151 34.1179 12.3831C34.2581 11.5511 34.8129 11.034 35.6603 10.9393C35.935 10.9025 36.2139 10.9089 36.4867 10.9585C37.4862 11.1614 38.008 11.7828 38.0776 12.7831C38.1629 14.0153 38.1294 15.2479 38.136 16.4799C38.1448 18.2644 38.1385 20.0506 38.1385 21.837Z" fill="#0B2D1F"/>
<path id="Vector_3" d="M35.9942 50.9542H41.4446C42.2549 50.9542 43.0586 51.0419 43.8631 51.1194C44.128 51.1443 44.0723 51.2902 44.0334 51.4443C43.863 52.1221 43.6565 52.7917 43.5592 53.4854C43.5054 53.8694 43.4459 54.2534 43.4152 54.6374C43.3973 54.8544 43.2955 54.9267 43.095 54.9205C43.0163 54.9205 42.9371 54.9205 42.8584 54.9205C39.3434 54.9205 35.8285 54.9389 32.3134 54.909C31.2203 54.8998 30.1232 54.9293 29.0302 54.8294C28.0062 54.7362 27.2382 54.0373 27.1941 53.1085C27.1434 52.0915 27.8166 51.2454 28.8344 51.068C29.5165 50.949 30.2085 50.9485 30.8997 50.9485H35.9942V50.9542Z" fill="#0B2D1F"/>
<path id="Vector_4" d="M35.9983 45.9347C37.2142 45.9347 38.4252 45.94 39.6386 45.9304C39.746 45.9235 39.8537 45.941 39.9534 45.9815C40.053 46.0219 40.1425 46.0842 40.2146 46.164C40.4706 46.4341 40.7618 46.6671 40.9775 46.973C41.4146 47.5931 41.3335 48.2114 40.9937 48.8379C40.6684 49.437 40.2089 49.7941 39.4793 49.8248C37.0332 49.9274 34.587 49.8511 32.1415 49.8818C31.9463 49.8818 31.8036 49.8314 31.6865 49.6739C31.4996 49.4235 31.2839 49.1944 31.1047 48.9397C30.567 48.1755 30.6226 47.3653 31.2615 46.6805C31.474 46.452 31.7198 46.2536 31.9438 46.0354C32.057 45.9251 32.1934 45.9355 32.3278 45.9355L35.9983 45.9347Z" fill="#0B2D1F"/>
</g>
<g id="Group 1171275677">
<circle id="Ellipse 2770" cx="55.5" cy="55" r="11.4336" fill="#97DBBE" stroke="#0B2D1F" stroke-width="2.13281"/>
<path id="Vector_5" d="M54.0108 55.0674C53.5514 54.8856 53.1222 54.6299 52.7387 54.3093C51.021 52.8595 50.8078 50.1976 52.2825 48.4857C53.0719 47.5697 54.0668 47.0844 55.2563 47.0087C57.2943 46.8764 59.2139 48.2715 59.625 50.4177C59.9448 52.0873 59.1541 53.8367 57.6659 54.7294C57.4443 54.8582 57.2142 54.9706 56.9777 55.0661C57.4842 55.1768 57.9482 55.2866 58.392 55.4694C60.2566 56.2479 61.4721 57.6108 61.9258 59.6455C62.0739 60.3101 62.0233 60.9545 61.5624 61.4967C61.3916 61.7027 61.1802 61.8678 60.9427 61.9805C60.7054 62.0935 60.4474 62.1516 60.1865 62.1509C57.055 62.1649 53.9235 62.1808 50.7926 62.1443C49.7704 62.1324 49.0328 61.3985 49.0016 60.3511C48.9771 59.5317 49.2421 58.7836 49.6274 58.0834C50.5476 56.4084 51.9901 55.4995 53.7858 55.1168C53.8478 55.1045 53.9095 55.0899 54.0108 55.0674ZM55.4874 59.4974H58.9051C59.1127 59.4974 59.1199 59.4845 59.0165 59.3052C58.6819 58.7234 58.217 58.2838 57.6115 58.0212C56.3803 57.4869 55.114 57.4922 53.845 57.8391C53.4574 57.9408 53.0928 58.1217 52.7726 58.3713C52.4522 58.621 52.1825 58.9345 51.9787 59.2937C51.9471 59.3483 51.8808 59.4074 51.9243 59.4722C51.9576 59.5228 52.0336 59.4974 52.0931 59.4974C53.2238 59.498 54.3554 59.498 55.4879 59.4974H55.4874ZM55.493 52.6739C56.3613 52.6739 57.0453 52.0093 57.0461 51.1642C57.0461 50.3304 56.3444 49.6436 55.4934 49.6449C54.6424 49.6462 53.9415 50.3269 53.9412 51.1629C53.9407 51.9992 54.6277 52.6739 55.4934 52.6739H55.493Z" fill="#0B2D1F"/>
</g>
</g>
</svg>
