<svg width="72" height="72" viewBox="0 0 72 72" fill="none" xmlns="http://www.w3.org/2000/svg">
<g id="project">
<rect id="Rectangle 34624787" x="7" y="19" width="50" height="37" fill="#36C5F0"/>
<rect id="Rectangle 34624788" x="7" y="10" width="8" height="14" fill="#36C5F0"/>
<path id="Vector" d="M10.8571 6C7.09714 6 4 9.09714 4 12.8571V52.4762C4.00299 52.593 4.01493 52.7095 4.03571 52.8244C4.22325 56.4224 7.21618 59.3334 10.8571 59.3334H53.5238C57.2838 59.3334 60.381 56.2362 60.381 52.4762V22C60.381 18.24 57.2838 15.1429 53.5238 15.1429H17.7143V9.80953C17.7143 7.73167 15.9826 6 13.9048 6H10.8571ZM10.8571 10.5714H13.1429V17.0536C13.1026 17.299 13.1026 17.5493 13.1429 17.7947V45.6191H10.8571C10.0486 45.6191 9.29445 45.8241 8.57143 46.0863V12.8571C8.57143 11.5672 9.56724 10.5714 10.8571 10.5714ZM17.7143 19.7143H53.5238C54.8137 19.7143 55.8095 20.7101 55.8095 22V52.4762C55.8095 53.7661 54.8137 54.7619 53.5238 54.7619H10.8571C9.56724 54.7619 8.57143 53.7661 8.57143 52.4762C8.57143 51.1863 9.56724 50.1905 10.8571 50.1905H13.9048C15.9826 50.1905 17.7143 48.4588 17.7143 46.381V19.7143ZM63.4286 23.1816V52.4762C63.4286 57.9376 58.9851 62.381 53.5238 62.381H12.0387C12.985 65.0355 15.5002 66.9524 18.4762 66.9524H53.5238C61.5055 66.9524 68 60.4579 68 52.4762V29.6191C68 26.6431 66.083 24.1294 63.4286 23.1816ZM47.3839 25.7887C47.3023 25.7913 47.2208 25.7982 47.1399 25.8095H41.3333C41.0305 25.8053 40.7297 25.8612 40.4487 25.9742C40.1676 26.0871 39.9118 26.2548 39.6961 26.4675C39.4804 26.6801 39.3091 26.9336 39.1922 27.213C39.0753 27.4924 39.0151 27.7923 39.0151 28.0953C39.0151 28.3982 39.0753 28.6981 39.1922 28.9775C39.3091 29.257 39.4804 29.5104 39.6961 29.7231C39.9118 29.9357 40.1676 30.1034 40.4487 30.2164C40.7297 30.3293 41.0305 30.3853 41.3333 30.381H41.9107L38.2857 34.006L33.8065 29.5268C33.3779 29.0983 32.7966 28.8576 32.1905 28.8576C31.5844 28.8576 31.0031 29.0983 30.5744 29.5268L24.4792 35.622C24.2598 35.8327 24.0847 36.0849 23.964 36.3641C23.8434 36.6432 23.7796 36.9437 23.7766 37.2477C23.7735 37.5518 23.8311 37.8535 23.946 38.135C24.061 38.4166 24.2309 38.6724 24.446 38.8874C24.661 39.1024 24.9168 39.2724 25.1983 39.3873C25.4799 39.5023 25.7815 39.5599 26.0856 39.5568C26.3897 39.5537 26.6901 39.49 26.9693 39.3693C27.2484 39.2487 27.5007 39.0736 27.7113 38.8542L32.1905 34.375L36.6696 38.8542C37.0983 39.2827 37.6796 39.5234 38.2857 39.5234C38.8918 39.5234 39.4731 39.2827 39.9018 38.8542L45.1429 33.6131V34.1905C45.1386 34.4934 45.1945 34.7941 45.3075 35.0752C45.4204 35.3562 45.5881 35.6121 45.8008 35.8278C46.0135 36.0435 46.2669 36.2147 46.5463 36.3317C46.8258 36.4486 47.1257 36.5088 47.4286 36.5088C47.7315 36.5088 48.0314 36.4486 48.3108 36.3317C48.5903 36.2147 48.8437 36.0435 49.0564 35.8278C49.269 35.6121 49.4367 35.3562 49.5497 35.0752C49.6626 34.7941 49.7186 34.4934 49.7143 34.1905V28.3601C49.7556 28.0331 49.7257 27.701 49.6266 27.3866C49.5275 27.0722 49.3616 26.783 49.1402 26.5387C48.9188 26.2945 48.6473 26.101 48.3441 25.9715C48.041 25.8421 47.7134 25.7797 47.3839 25.7887ZM26.0952 44.0953C25.7924 44.091 25.4916 44.1469 25.2106 44.2599C24.9295 44.3728 24.6737 44.5405 24.458 44.7532C24.2423 44.9659 24.071 45.2193 23.9541 45.4987C23.8372 45.7782 23.777 46.0781 23.777 46.381C23.777 46.6839 23.8372 46.9838 23.9541 47.2632C24.071 47.5427 24.2423 47.7961 24.458 48.0088C24.6737 48.2215 24.9295 48.3891 25.2106 48.5021C25.4916 48.615 25.7924 48.671 26.0952 48.6667H47.4286C47.7315 48.671 48.0322 48.615 48.3132 48.5021C48.5943 48.3891 48.8501 48.2215 49.0658 48.0088C49.2815 47.7961 49.4528 47.5427 49.5697 47.2632C49.6866 46.9838 49.7468 46.6839 49.7468 46.381C49.7468 46.0781 49.6866 45.7782 49.5697 45.4987C49.4528 45.2193 49.2815 44.9659 49.0658 44.7532C48.8501 44.5405 48.5943 44.3728 48.3132 44.2599C48.0322 44.1469 47.7315 44.091 47.4286 44.0953H26.0952Z" fill="#0D313B"/>
</g>
</svg>
