<svg width="72" height="72" viewBox="0 0 72 72" fill="none" xmlns="http://www.w3.org/2000/svg">
<g id="reporting-by-project">
<g id="Group 1171275694">
<g id="Group">
<g id="Vector">
<path d="M29.887 4.07675C27.9495 4.40174 25.9246 5.37672 24.5871 6.62668L23.6622 7.48916H19.9123C15.8249 7.48916 15.2624 7.55166 14.0874 8.13914C12.675 8.85162 11.4875 10.3891 11.15 11.964C10.95 12.9015 10.95 62.5751 11.15 63.5126C11.35 64.4376 11.925 65.5376 12.5875 66.2375C13.2374 66.925 14.5249 67.65 15.4874 67.85C16.4249 68.05 56.3488 68.05 57.2862 67.85C59.4112 67.4 61.1736 65.6251 61.6236 63.5126C61.8236 62.5626 61.8236 12.9015 61.6236 11.964C61.1736 9.85159 59.3862 8.06414 57.2862 7.62666C56.8862 7.53916 55.1363 7.48916 52.8614 7.48916H49.099L48.2615 6.68918C47.3115 5.8017 46.3615 5.18922 45.0866 4.68924C43.4491 4.02675 42.8991 3.98926 36.2868 4.00175C32.9369 4.01425 30.062 4.05175 29.887 4.07675ZM42.8741 7.92665C43.3116 8.03914 44.0241 8.30164 44.4366 8.51413C45.6865 9.17661 47.0865 10.7641 47.449 11.9515L47.524 12.239H36.3868H25.2496L25.3246 11.9515C25.5371 11.2891 26.1246 10.3766 26.8371 9.6516C27.662 8.81412 28.962 8.07664 30.0245 7.87665C30.3245 7.81415 33.1619 7.76415 36.3243 7.75165C41.0492 7.73915 42.2116 7.77665 42.8741 7.92665ZM21.4247 12.0765C21.3247 12.5515 21.2622 13.3765 21.2872 13.9515C21.3247 15.0515 21.5247 15.4139 22.2872 15.8139C22.7872 16.0764 49.9864 16.0764 50.4864 15.8139C51.2489 15.4139 51.4489 15.0515 51.4864 13.9515C51.5114 13.3765 51.4489 12.5515 51.3489 12.0765L51.1739 11.2391H53.8113C56.8362 11.2391 57.2362 11.3391 57.7362 12.2265L58.0112 12.714V37.7383V62.7626L57.7487 63.2376C57.5987 63.5001 57.2737 63.8251 57.0112 63.9751L56.5362 64.2376H36.3868H16.2374L15.7624 63.9751C15.4999 63.8251 15.1749 63.5001 15.0249 63.2376L14.7624 62.7626V37.7383V12.714L15.0374 12.2265C15.5374 11.3391 15.9249 11.2391 18.9623 11.2391H21.5997L21.4247 12.0765Z" fill="#4D0000"/>
<path d="M42.8741 7.92665C43.3116 8.03914 44.0241 8.30164 44.4366 8.51413C45.6865 9.17661 47.0865 10.7641 47.449 11.9515L47.524 12.239H36.3868H25.2496L25.3246 11.9515C25.5371 11.2891 26.1246 10.3766 26.8371 9.6516C27.662 8.81412 28.962 8.07664 30.0245 7.87665C30.3245 7.81415 33.1619 7.76415 36.3243 7.75165C41.0492 7.73915 42.2116 7.77665 42.8741 7.92665Z" fill="#E60000"/>
</g>
</g>
<g id="Group 1171275550">
<g id="Vector_2">
<path d="M24.1071 22C22.4034 22 21 23.4034 21 25.1071V43.0595C21.0014 43.1125 21.0068 43.1652 21.0162 43.2173C21.1012 44.8477 22.4573 46.1667 24.1071 46.1667H43.4405C45.1442 46.1667 46.5476 44.7633 46.5476 43.0595V29.25C46.5476 27.5463 45.1442 26.1429 43.4405 26.1429H27.2143V23.7262C27.2143 22.7847 26.4296 22 25.4881 22H24.1071ZM24.1071 24.0714H25.1429V27.0087C25.1246 27.1198 25.1246 27.2333 25.1429 27.3445V39.9524H24.1071C23.7408 39.9524 23.399 40.0453 23.0714 40.1641V25.1071C23.0714 24.5227 23.5227 24.0714 24.1071 24.0714ZM27.2143 28.2143H43.4405C44.025 28.2143 44.4762 28.6655 44.4762 29.25V43.0595C44.4762 43.644 44.025 44.0953 43.4405 44.0953H24.1071C23.5227 44.0953 23.0714 43.644 23.0714 43.0595C23.0714 42.4751 23.5227 42.0238 24.1071 42.0238H25.4881C26.4296 42.0238 27.2143 41.2392 27.2143 40.2976V28.2143ZM47.9286 29.7854V43.0595C47.9286 45.5342 45.9151 47.5476 43.4405 47.5476H24.6425C25.0713 48.7504 26.211 49.6191 27.5595 49.6191H43.4405C47.0572 49.6191 50 46.6763 50 43.0595V32.7024C50 31.3539 49.1314 30.2149 47.9286 29.7854Z" fill="#4D0000"/>
<path d="M27.2143 28.2143H43.4405C44.025 28.2143 44.4762 28.6655 44.4762 29.25V43.0595C44.4762 43.644 44.025 44.0953 43.4405 44.0953H24.1071C23.5227 44.0953 23.0714 43.644 23.0714 43.0595C23.0714 42.4751 23.5227 42.0238 24.1071 42.0238H25.4881C26.4296 42.0238 27.2143 41.2392 27.2143 40.2976V28.2143Z" fill="#E60000"/>
<path d="M24.1071 24.0714H25.1429V27.0087C25.1246 27.1198 25.1246 27.2333 25.1429 27.3445V39.9524H24.1071C23.7408 39.9524 23.399 40.0453 23.0714 40.1641V25.1071C23.0714 24.5227 23.5227 24.0714 24.1071 24.0714Z" fill="#E60000"/>
</g>
<g id="Group 1171275549">
<g id="Vector_3">
<mask id="path-3-outside-1_6721_46592" maskUnits="userSpaceOnUse" x="32.0898" y="37.7185" width="11" height="3" fill="black">
<rect fill="white" x="32.0898" y="37.7185" width="11" height="3"/>
<path d="M37.6931 39.3829C36.3382 39.3829 34.9826 39.3829 33.6277 39.3829C33.5378 39.3829 33.4474 39.3858 33.3587 39.376C33.1772 39.3551 33.0966 39.242 33.0902 39.0652C33.0833 38.8837 33.172 38.7736 33.343 38.737C33.4294 38.7185 33.5216 38.726 33.6109 38.726C36.33 38.7254 39.0498 38.7254 41.7689 38.726C41.8675 38.726 41.9922 38.6988 42.0577 38.7481C42.1591 38.8234 42.2652 38.9458 42.2861 39.0629C42.3145 39.2229 42.2136 39.3562 42.0275 39.3754C41.9388 39.3847 41.8484 39.3829 41.7585 39.3829C40.4036 39.3829 39.0486 39.3829 37.6931 39.3829Z"/>
</mask>
<path d="M37.6931 39.3829C36.3382 39.3829 34.9826 39.3829 33.6277 39.3829C33.5378 39.3829 33.4474 39.3858 33.3587 39.376C33.1772 39.3551 33.0966 39.242 33.0902 39.0652C33.0833 38.8837 33.172 38.7736 33.343 38.737C33.4294 38.7185 33.5216 38.726 33.6109 38.726C36.33 38.7254 39.0498 38.7254 41.7689 38.726C41.8675 38.726 41.9922 38.6988 42.0577 38.7481C42.1591 38.8234 42.2652 38.9458 42.2861 39.0629C42.3145 39.2229 42.2136 39.3562 42.0275 39.3754C41.9388 39.3847 41.8484 39.3829 41.7585 39.3829C40.4036 39.3829 39.0486 39.3829 37.6931 39.3829Z" fill="#4D0000"/>
<path d="M37.6931 39.3829C36.3382 39.3829 34.9826 39.3829 33.6277 39.3829C33.5378 39.3829 33.4474 39.3858 33.3587 39.376C33.1772 39.3551 33.0966 39.242 33.0902 39.0652C33.0833 38.8837 33.172 38.7736 33.343 38.737C33.4294 38.7185 33.5216 38.726 33.6109 38.726C36.33 38.7254 39.0498 38.7254 41.7689 38.726C41.8675 38.726 41.9922 38.6988 42.0577 38.7481C42.1591 38.8234 42.2652 38.9458 42.2861 39.0629C42.3145 39.2229 42.2136 39.3562 42.0275 39.3754C41.9388 39.3847 41.8484 39.3829 41.7585 39.3829C40.4036 39.3829 39.0486 39.3829 37.6931 39.3829Z" stroke="#4D0000" stroke-width="0.725" mask="url(#path-3-outside-1_6721_46592)"/>
</g>
<g id="Vector_4">
<mask id="path-4-outside-2_6721_46592" maskUnits="userSpaceOnUse" x="32.0938" y="30.7769" width="11" height="2" fill="black">
<rect fill="white" x="32.0938" y="30.7769" width="11" height="2"/>
<path d="M37.7023 32.3826C36.3467 32.3826 34.9918 32.3826 33.6363 32.3826C33.5464 32.3826 33.438 32.4104 33.3713 32.3698C33.2635 32.3037 33.1319 32.2057 33.1029 32.0967C33.0571 31.9251 33.1898 31.8179 33.3609 31.7871C33.4305 31.775 33.5041 31.7802 33.576 31.7802C36.3224 31.7802 39.0688 31.7796 41.8158 31.7808C41.9045 31.7808 42.0193 31.7616 42.0767 31.808C42.1701 31.8828 42.2791 32.0034 42.282 32.1072C42.2843 32.1924 42.1561 32.3066 42.0593 32.3617C41.9834 32.4052 41.8668 32.3826 41.7683 32.3826C40.4127 32.3832 39.0578 32.3826 37.7023 32.3826Z"/>
</mask>
<path d="M37.7023 32.3826C36.3467 32.3826 34.9918 32.3826 33.6363 32.3826C33.5464 32.3826 33.438 32.4104 33.3713 32.3698C33.2635 32.3037 33.1319 32.2057 33.1029 32.0967C33.0571 31.9251 33.1898 31.8179 33.3609 31.7871C33.4305 31.775 33.5041 31.7802 33.576 31.7802C36.3224 31.7802 39.0688 31.7796 41.8158 31.7808C41.9045 31.7808 42.0193 31.7616 42.0767 31.808C42.1701 31.8828 42.2791 32.0034 42.282 32.1072C42.2843 32.1924 42.1561 32.3066 42.0593 32.3617C41.9834 32.4052 41.8668 32.3826 41.7683 32.3826C40.4127 32.3832 39.0578 32.3826 37.7023 32.3826Z" fill="#4D0000"/>
<path d="M37.7023 32.3826C36.3467 32.3826 34.9918 32.3826 33.6363 32.3826C33.5464 32.3826 33.438 32.4104 33.3713 32.3698C33.2635 32.3037 33.1319 32.2057 33.1029 32.0967C33.0571 31.9251 33.1898 31.8179 33.3609 31.7871C33.4305 31.775 33.5041 31.7802 33.576 31.7802C36.3224 31.7802 39.0688 31.7796 41.8158 31.7808C41.9045 31.7808 42.0193 31.7616 42.0767 31.808C42.1701 31.8828 42.2791 32.0034 42.282 32.1072C42.2843 32.1924 42.1561 32.3066 42.0593 32.3617C41.9834 32.4052 41.8668 32.3826 41.7683 32.3826C40.4127 32.3832 39.0578 32.3826 37.7023 32.3826Z" stroke="#4D0000" stroke-width="0.725" mask="url(#path-4-outside-2_6721_46592)"/>
</g>
<g id="Vector_5">
<mask id="path-5-outside-3_6721_46592" maskUnits="userSpaceOnUse" x="32.1094" y="34.2935" width="11" height="2" fill="black">
<rect fill="white" x="32.1094" y="34.2935" width="11" height="2"/>
<path d="M37.6741 35.9029C36.3278 35.9029 34.981 35.9029 33.6348 35.9023C33.5362 35.9023 33.4185 35.9266 33.3437 35.8826C33.2428 35.8223 33.113 35.7092 33.1095 35.6141C33.1054 35.5173 33.2254 35.3984 33.3176 35.3208C33.3675 35.279 33.4724 35.2976 33.5524 35.2976C36.3168 35.2964 39.0818 35.2964 41.8462 35.2976C41.9262 35.2976 42.0282 35.2831 42.081 35.3248C42.1703 35.3955 42.2914 35.5121 42.2833 35.5985C42.2735 35.7011 42.1564 35.8159 42.0566 35.8797C41.9847 35.926 41.8647 35.9023 41.7667 35.9023C40.4025 35.9034 39.0383 35.9029 37.6741 35.9029Z"/>
</mask>
<path d="M37.6741 35.9029C36.3278 35.9029 34.981 35.9029 33.6348 35.9023C33.5362 35.9023 33.4185 35.9266 33.3437 35.8826C33.2428 35.8223 33.113 35.7092 33.1095 35.6141C33.1054 35.5173 33.2254 35.3984 33.3176 35.3208C33.3675 35.279 33.4724 35.2976 33.5524 35.2976C36.3168 35.2964 39.0818 35.2964 41.8462 35.2976C41.9262 35.2976 42.0282 35.2831 42.081 35.3248C42.1703 35.3955 42.2914 35.5121 42.2833 35.5985C42.2735 35.7011 42.1564 35.8159 42.0566 35.8797C41.9847 35.926 41.8647 35.9023 41.7667 35.9023C40.4025 35.9034 39.0383 35.9029 37.6741 35.9029Z" fill="#4D0000"/>
<path d="M37.6741 35.9029C36.3278 35.9029 34.981 35.9029 33.6348 35.9023C33.5362 35.9023 33.4185 35.9266 33.3437 35.8826C33.2428 35.8223 33.113 35.7092 33.1095 35.6141C33.1054 35.5173 33.2254 35.3984 33.3176 35.3208C33.3675 35.279 33.4724 35.2976 33.5524 35.2976C36.3168 35.2964 39.0818 35.2964 41.8462 35.2976C41.9262 35.2976 42.0282 35.2831 42.081 35.3248C42.1703 35.3955 42.2914 35.5121 42.2833 35.5985C42.2735 35.7011 42.1564 35.8159 42.0566 35.8797C41.9847 35.926 41.8647 35.9023 41.7667 35.9023C40.4025 35.9034 39.0383 35.9029 37.6741 35.9029Z" stroke="#4D0000" stroke-width="0.725" mask="url(#path-5-outside-3_6721_46592)"/>
</g>
<g id="Vector_6">
<mask id="path-6-outside-4_6721_46592" maskUnits="userSpaceOnUse" x="28.1562" y="37.0042" width="4" height="4" fill="black">
<rect fill="white" x="28.1562" y="37.0042" width="4" height="4"/>
<path d="M29.9876 39.2491C30.3743 38.9204 30.7616 38.5916 31.1471 38.2617C31.208 38.2096 31.2579 38.1441 31.3205 38.0936C31.4573 37.9835 31.6307 37.9608 31.7217 38.1069C31.7849 38.2084 31.8005 38.431 31.7327 38.5064C31.2753 39.0189 30.7923 39.5094 30.3117 39.9999C30.1592 40.1559 29.9922 40.135 29.8397 39.9831C29.6559 39.7993 29.471 39.6173 29.2889 39.4317C29.1359 39.2752 29.1023 39.0932 29.2571 38.9302C29.4263 38.7528 29.5991 38.827 29.7429 38.9853C29.8542 39.1082 29.9586 39.2381 30.0664 39.3651C30.0403 39.3268 30.0142 39.288 29.9876 39.2491Z"/>
</mask>
<path d="M29.9876 39.2491C30.3743 38.9204 30.7616 38.5916 31.1471 38.2617C31.208 38.2096 31.2579 38.1441 31.3205 38.0936C31.4573 37.9835 31.6307 37.9608 31.7217 38.1069C31.7849 38.2084 31.8005 38.431 31.7327 38.5064C31.2753 39.0189 30.7923 39.5094 30.3117 39.9999C30.1592 40.1559 29.9922 40.135 29.8397 39.9831C29.6559 39.7993 29.471 39.6173 29.2889 39.4317C29.1359 39.2752 29.1023 39.0932 29.2571 38.9302C29.4263 38.7528 29.5991 38.827 29.7429 38.9853C29.8542 39.1082 29.9586 39.2381 30.0664 39.3651C30.0403 39.3268 30.0142 39.288 29.9876 39.2491Z" fill="#4D0000"/>
<path d="M29.9876 39.2491C30.3743 38.9204 30.7616 38.5916 31.1471 38.2617C31.208 38.2096 31.2579 38.1441 31.3205 38.0936C31.4573 37.9835 31.6307 37.9608 31.7217 38.1069C31.7849 38.2084 31.8005 38.431 31.7327 38.5064C31.2753 39.0189 30.7923 39.5094 30.3117 39.9999C30.1592 40.1559 29.9922 40.135 29.8397 39.9831C29.6559 39.7993 29.471 39.6173 29.2889 39.4317C29.1359 39.2752 29.1023 39.0932 29.2571 38.9302C29.4263 38.7528 29.5991 38.827 29.7429 38.9853C29.8542 39.1082 29.9586 39.2381 30.0664 39.3651C30.0403 39.3268 30.0142 39.288 29.9876 39.2491Z" stroke="#4D0000" stroke-width="0.725" mask="url(#path-6-outside-4_6721_46592)"/>
</g>
<g id="Vector_7">
<mask id="path-7-outside-5_6721_46592" maskUnits="userSpaceOnUse" x="28.1602" y="30.0625" width="5" height="4" fill="black">
<rect fill="white" x="28.1602" y="30.0625" width="5" height="4"/>
<path d="M30.0455 32.4192C30.467 31.9971 30.8346 31.6313 31.1987 31.2625C31.3524 31.1066 31.5095 30.9651 31.7269 31.1506C31.884 31.2851 31.8388 31.4724 31.6173 31.7014C31.2074 32.1258 30.8039 32.5554 30.3917 32.9775C30.1499 33.2251 30.0235 33.2262 29.7852 32.981C29.5927 32.7833 29.4072 32.578 29.2321 32.3647C29.1179 32.2255 29.144 32.0731 29.2797 31.9588C29.4182 31.8417 29.5684 31.8632 29.6884 31.9901C29.8113 32.1194 29.918 32.2638 30.0455 32.4192Z"/>
</mask>
<path d="M30.0455 32.4192C30.467 31.9971 30.8346 31.6313 31.1987 31.2625C31.3524 31.1066 31.5095 30.9651 31.7269 31.1506C31.884 31.2851 31.8388 31.4724 31.6173 31.7014C31.2074 32.1258 30.8039 32.5554 30.3917 32.9775C30.1499 33.2251 30.0235 33.2262 29.7852 32.981C29.5927 32.7833 29.4072 32.578 29.2321 32.3647C29.1179 32.2255 29.144 32.0731 29.2797 31.9588C29.4182 31.8417 29.5684 31.8632 29.6884 31.9901C29.8113 32.1194 29.918 32.2638 30.0455 32.4192Z" fill="#4D0000"/>
<path d="M30.0455 32.4192C30.467 31.9971 30.8346 31.6313 31.1987 31.2625C31.3524 31.1066 31.5095 30.9651 31.7269 31.1506C31.884 31.2851 31.8388 31.4724 31.6173 31.7014C31.2074 32.1258 30.8039 32.5554 30.3917 32.9775C30.1499 33.2251 30.0235 33.2262 29.7852 32.981C29.5927 32.7833 29.4072 32.578 29.2321 32.3647C29.1179 32.2255 29.144 32.0731 29.2797 31.9588C29.4182 31.8417 29.5684 31.8632 29.6884 31.9901C29.8113 32.1194 29.918 32.2638 30.0455 32.4192Z" stroke="#4D0000" stroke-width="0.725" mask="url(#path-7-outside-5_6721_46592)"/>
</g>
<g id="Vector_8">
<mask id="path-8-outside-6_6721_46592" maskUnits="userSpaceOnUse" x="28.1641" y="33.5234" width="5" height="4" fill="black">
<rect fill="white" x="28.1641" y="33.5234" width="5" height="4"/>
<path d="M30.0685 35.933C30.4819 35.4929 30.8489 35.1027 31.2153 34.7114C31.3614 34.5554 31.5272 34.4331 31.7226 34.6122C31.9128 34.7862 31.8206 34.9937 31.6861 35.1381C31.2164 35.6425 30.7329 36.1347 30.2378 36.6142C30.1839 36.6664 29.9815 36.6478 29.9119 36.5875C29.6899 36.3951 29.5003 36.166 29.2945 35.9544C29.1571 35.8135 29.106 35.6587 29.2516 35.5045C29.407 35.3399 29.5751 35.3799 29.7195 35.5324C29.8302 35.6506 29.9317 35.7759 30.0685 35.933Z"/>
</mask>
<path d="M30.0685 35.933C30.4819 35.4929 30.8489 35.1027 31.2153 34.7114C31.3614 34.5554 31.5272 34.4331 31.7226 34.6122C31.9128 34.7862 31.8206 34.9937 31.6861 35.1381C31.2164 35.6425 30.7329 36.1347 30.2378 36.6142C30.1839 36.6664 29.9815 36.6478 29.9119 36.5875C29.6899 36.3951 29.5003 36.166 29.2945 35.9544C29.1571 35.8135 29.106 35.6587 29.2516 35.5045C29.407 35.3399 29.5751 35.3799 29.7195 35.5324C29.8302 35.6506 29.9317 35.7759 30.0685 35.933Z" fill="#4D0000"/>
<path d="M30.0685 35.933C30.4819 35.4929 30.8489 35.1027 31.2153 34.7114C31.3614 34.5554 31.5272 34.4331 31.7226 34.6122C31.9128 34.7862 31.8206 34.9937 31.6861 35.1381C31.2164 35.6425 30.7329 36.1347 30.2378 36.6142C30.1839 36.6664 29.9815 36.6478 29.9119 36.5875C29.6899 36.3951 29.5003 36.166 29.2945 35.9544C29.1571 35.8135 29.106 35.6587 29.2516 35.5045C29.407 35.3399 29.5751 35.3799 29.7195 35.5324C29.8302 35.6506 29.9317 35.7759 30.0685 35.933Z" stroke="#4D0000" stroke-width="0.725" mask="url(#path-8-outside-6_6721_46592)"/>
</g>
</g>
</g>
</g>
</g>
</svg>
