<svg width="72" height="72" viewBox="0 0 72 72" fill="none" xmlns="http://www.w3.org/2000/svg">
<g id="reporting-by-task">
<g id="Group 1171275693">
<g id="Group">
<g id="Vector">
<path d="M29.887 4.07675C27.9495 4.40174 25.9246 5.37672 24.5871 6.62668L23.6622 7.48916H19.9123C15.8249 7.48916 15.2624 7.55166 14.0874 8.13914C12.675 8.85162 11.4875 10.3891 11.15 11.964C10.95 12.9015 10.95 62.5751 11.15 63.5126C11.35 64.4376 11.925 65.5376 12.5875 66.2375C13.2374 66.925 14.5249 67.65 15.4874 67.85C16.4249 68.05 56.3488 68.05 57.2862 67.85C59.4112 67.4 61.1736 65.6251 61.6236 63.5126C61.8236 62.5626 61.8236 12.9015 61.6236 11.964C61.1736 9.85159 59.3862 8.06414 57.2862 7.62666C56.8862 7.53916 55.1363 7.48916 52.8614 7.48916H49.099L48.2615 6.68918C47.3115 5.8017 46.3615 5.18922 45.0866 4.68924C43.4491 4.02675 42.8991 3.98926 36.2868 4.00175C32.9369 4.01425 30.062 4.05175 29.887 4.07675ZM42.8741 7.92665C43.3116 8.03914 44.0241 8.30164 44.4366 8.51413C45.6865 9.17661 47.0865 10.7641 47.449 11.9515L47.524 12.239H36.3868H25.2496L25.3246 11.9515C25.5371 11.2891 26.1246 10.3766 26.8371 9.6516C27.662 8.81412 28.962 8.07664 30.0245 7.87665C30.3245 7.81415 33.1619 7.76415 36.3243 7.75165C41.0492 7.73915 42.2116 7.77665 42.8741 7.92665ZM21.4247 12.0765C21.3247 12.5515 21.2622 13.3765 21.2872 13.9515C21.3247 15.0515 21.5247 15.4139 22.2872 15.8139C22.7872 16.0764 49.9864 16.0764 50.4864 15.8139C51.2489 15.4139 51.4489 15.0515 51.4864 13.9515C51.5114 13.3765 51.4489 12.5515 51.3489 12.0765L51.1739 11.2391H53.8113C56.8362 11.2391 57.2362 11.3391 57.7362 12.2265L58.0112 12.714V37.7383V62.7626L57.7487 63.2376C57.5987 63.5001 57.2737 63.8251 57.0112 63.9751L56.5362 64.2376H36.3868H16.2374L15.7624 63.9751C15.4999 63.8251 15.1749 63.5001 15.0249 63.2376L14.7624 62.7626V37.7383V12.714L15.0374 12.2265C15.5374 11.3391 15.9249 11.2391 18.9623 11.2391H21.5997L21.4247 12.0765Z" fill="#4D0000"/>
<path d="M42.8741 7.92665C43.3116 8.03914 44.0241 8.30164 44.4366 8.51413C45.6865 9.17661 47.0865 10.7641 47.449 11.9515L47.524 12.239H36.3868H25.2496L25.3246 11.9515C25.5371 11.2891 26.1246 10.3766 26.8371 9.6516C27.662 8.81412 28.962 8.07664 30.0245 7.87665C30.3245 7.81415 33.1619 7.76415 36.3243 7.75165C41.0492 7.73915 42.2116 7.77665 42.8741 7.92665Z" fill="#E60000"/>
</g>
</g>
<g id="Group_2">
<path id="Vector_2" d="M26.609 23.3293L23.1501 28.1436C21.3426 25.8955 21.2888 25.8118 21.2527 25.7757C20.9654 25.4937 20.5036 25.4937 20.2155 25.7757C19.9282 26.0718 19.9282 26.5397 20.2155 26.8332C20.3415 26.9777 21.5171 28.4494 22.5446 29.7713C22.7094 29.9687 22.9553 30.0885 23.2135 30.0947C23.4744 30.0736 23.7167 29.9475 23.8815 29.7413L27.856 24.2141C28.108 23.8748 28.0331 23.398 27.6947 23.1495C27.3554 22.8975 26.876 22.9724 26.6275 23.3117L26.609 23.3293Z" fill="#4D0000"/>
</g>
<path id="Vector_3" d="M26.609 32.2256L23.1501 37.0338C21.3426 34.783 21.2888 34.702 21.2527 34.6658C20.9654 34.3838 20.5036 34.3838 20.2155 34.6658C19.9282 34.9602 19.9282 35.4308 20.2155 35.7242C20.3415 35.8679 21.5171 37.3396 22.5446 38.6588C22.7094 38.8597 22.9553 38.9761 23.2135 38.9858C23.477 38.9672 23.7229 38.8386 23.8903 38.6315L27.856 33.1042C28.108 32.7623 28.0331 32.2855 27.6947 32.037C27.3554 31.7885 26.876 31.8599 26.6275 32.1992L26.609 32.2256Z" fill="#4D0000"/>
<path id="Vector_4" d="M26.609 41.1166L23.1501 45.9212C21.3426 43.6731 21.2888 43.5921 21.2527 43.5568C20.9654 43.2713 20.5036 43.2713 20.2155 43.5568C19.9282 43.8503 19.9282 44.3182 20.2155 44.6117C20.3415 44.7553 21.5171 46.2305 22.5446 47.5489C22.7094 47.7498 22.9553 47.867 23.2135 47.8732C23.477 47.8547 23.7229 47.726 23.8903 47.5225L27.856 41.9943C28.108 41.6533 28.0331 41.1765 27.6947 40.928C27.3554 40.676 26.876 40.7509 26.6275 41.0893L26.609 41.1166Z" fill="#4D0000"/>
<g id="Group_3">
<path id="Vector_5" d="M26.609 50.0066L23.1501 54.8121C21.3426 52.5605 21.2888 52.4795 21.2527 52.4468C20.9654 52.1622 20.5036 52.1622 20.2155 52.4468C19.9282 52.7403 19.9282 53.2083 20.2155 53.5017C20.3415 53.6462 21.5171 55.1179 22.5446 56.4398C22.7094 56.6372 22.9553 56.7544 23.2135 56.7632C23.4796 56.7456 23.7255 56.6196 23.8903 56.4125L27.856 50.8914C28.108 50.5521 28.0331 50.0727 27.6947 49.8242C27.3554 49.5757 26.876 49.6506 26.6275 49.9864L26.609 50.0066Z" fill="#4D0000"/>
</g>
<g id="Group_4">
<path id="Vector_6" d="M29.9088 27.3584H51.2476C51.6644 27.3584 52.0029 27.0191 52.0002 26.6032C52.0002 26.1863 51.6644 25.8506 51.2476 25.8506H29.9088C29.492 25.8506 29.1562 26.189 29.1562 26.6058C29.1562 27.0191 29.4955 27.3584 29.9088 27.3584Z" fill="#4D0000"/>
</g>
<g id="Group_5">
<path id="Vector_7" d="M51.2464 34.9118H29.9076C29.4907 34.9091 29.1523 35.2475 29.1523 35.6644C29.1523 36.0812 29.4907 36.4196 29.9076 36.4196H51.2464C51.6632 36.4196 52.0016 36.0812 51.9989 35.6644C51.9989 35.2475 51.6632 34.9118 51.2464 34.9118Z" fill="#4D0000"/>
</g>
<g id="Group_6">
<path id="Vector_8" d="M51.2464 43.9728H29.9076C29.4907 43.9701 29.1523 44.3086 29.1523 44.7227C29.1523 45.1396 29.4907 45.478 29.9076 45.4806H51.2464C51.6632 45.478 52.0016 45.1396 51.9989 44.7227C51.9989 44.3086 51.6632 43.9728 51.2464 43.9728Z" fill="#4D0000"/>
</g>
<g id="Group_7">
<path id="Vector_9" d="M51.2476 53.0312H29.9088C29.492 53.0312 29.1562 53.3705 29.1562 53.7865C29.1562 54.2033 29.4955 54.5426 29.9088 54.5426H51.2476C51.6644 54.5426 52.0029 54.2033 52.0002 53.7838C52.0002 53.3705 51.6644 53.0312 51.2476 53.0312Z" fill="#4D0000"/>
</g>
</g>
</g>
</svg>
