<svg width="72" height="72" viewBox="0 0 72 72" fill="none" xmlns="http://www.w3.org/2000/svg">
<g id="reporting-by-employee">
<g id="Group 1171275695">
<g id="Group">
<g id="Vector">
<path d="M29.887 4.07675C27.9495 4.40174 25.9246 5.37672 24.5871 6.62668L23.6622 7.48916H19.9123C15.8249 7.48916 15.2624 7.55166 14.0874 8.13914C12.675 8.85162 11.4875 10.3891 11.15 11.964C10.95 12.9015 10.95 62.5751 11.15 63.5126C11.35 64.4376 11.925 65.5376 12.5875 66.2375C13.2374 66.925 14.5249 67.65 15.4874 67.85C16.4249 68.05 56.3488 68.05 57.2862 67.85C59.4112 67.4 61.1736 65.6251 61.6236 63.5126C61.8236 62.5626 61.8236 12.9015 61.6236 11.964C61.1736 9.85159 59.3862 8.06414 57.2862 7.62666C56.8862 7.53916 55.1363 7.48916 52.8614 7.48916H49.099L48.2615 6.68918C47.3115 5.8017 46.3615 5.18922 45.0866 4.68924C43.4491 4.02675 42.8991 3.98926 36.2868 4.00175C32.9369 4.01425 30.062 4.05175 29.887 4.07675ZM42.8741 7.92665C43.3116 8.03914 44.0241 8.30164 44.4366 8.51413C45.6865 9.17661 47.0865 10.7641 47.449 11.9515L47.524 12.239H36.3868H25.2496L25.3246 11.9515C25.5371 11.2891 26.1246 10.3766 26.8371 9.6516C27.662 8.81412 28.962 8.07664 30.0245 7.87665C30.3245 7.81415 33.1619 7.76415 36.3243 7.75165C41.0492 7.73915 42.2116 7.77665 42.8741 7.92665ZM21.4247 12.0765C21.3247 12.5515 21.2622 13.3765 21.2872 13.9515C21.3247 15.0515 21.5247 15.4139 22.2872 15.8139C22.7872 16.0764 49.9864 16.0764 50.4864 15.8139C51.2489 15.4139 51.4489 15.0515 51.4864 13.9515C51.5114 13.3765 51.4489 12.5515 51.3489 12.0765L51.1739 11.2391H53.8113C56.8362 11.2391 57.2362 11.3391 57.7362 12.2265L58.0112 12.714V37.7383V62.7626L57.7487 63.2376C57.5987 63.5001 57.2737 63.8251 57.0112 63.9751L56.5362 64.2376H36.3868H16.2374L15.7624 63.9751C15.4999 63.8251 15.1749 63.5001 15.0249 63.2376L14.7624 62.7626V37.7383V12.714L15.0374 12.2265C15.5374 11.3391 15.9249 11.2391 18.9623 11.2391H21.5997L21.4247 12.0765Z" fill="#4D0000"/>
<path d="M42.8741 7.92665C43.3116 8.03914 44.0241 8.30164 44.4366 8.51413C45.6865 9.17661 47.0865 10.7641 47.449 11.9515L47.524 12.239H36.3868H25.2496L25.3246 11.9515C25.5371 11.2891 26.1246 10.3766 26.8371 9.6516C27.662 8.81412 28.962 8.07664 30.0245 7.87665C30.3245 7.81415 33.1619 7.76415 36.3243 7.75165C41.0492 7.73915 42.2116 7.77665 42.8741 7.92665Z" fill="#E60000"/>
</g>
<path id="Vector_2" d="M24.2884 45.3119C22.5359 46.139 22.5744 47.7661 24.3847 48.7153C24.9047 49 25.0973 49 37.5 49C49.9027 49 50.0953 49 50.6153 48.7153C52.4256 47.7661 52.4641 46.139 50.7116 45.3119L50.0568 45H37.5H24.9432L24.2884 45.3119Z" fill="#4D0000"/>
<path id="Vector_3" d="M24.2884 54.3119C22.5359 55.139 22.5744 56.7661 24.3847 57.7153C24.9047 58 25.0973 58 37.5 58C49.9027 58 50.0953 58 50.6153 57.7153C52.4256 56.7661 52.4641 55.139 50.7116 54.3119L50.0568 54H37.5H24.9432L24.2884 54.3119Z" fill="#4D0000"/>
</g>
<g id="Group 1171275672">
<g id="Group 1171275670">
<path id="Vector_4" d="M37.5 30.8752C34.6773 30.8752 29.0417 32.2927 29.0417 35.1045V38.1254C29.0417 38.7924 29.583 39.3338 30.25 39.3338H44.75C45.417 39.3338 45.9583 38.7924 45.9583 38.1254V35.1045C45.9583 32.2927 40.3227 30.8752 37.5 30.8752ZM27.7106 32.1473C25.8002 32.4422 23 33.7621 23 35.3523V38.1254C23 38.7924 23.5413 39.3338 24.2083 39.3338H26.625V35.1045C26.625 33.9433 27.0424 32.969 27.7106 32.1473ZM47.2894 32.1473C47.9576 32.969 48.375 33.9433 48.375 35.1045V39.3338H50.7917C51.4587 39.3338 52 38.7924 52 38.1254V35.3523C52 33.7621 49.1998 32.4422 47.2894 32.1473Z" fill="#E60000"/>
<path id="Vector (Stroke)" fill-rule="evenodd" clip-rule="evenodd" d="M25.181 32.9677C23.9827 33.5631 23 34.4103 23 35.3524V38.1255C23 38.7925 23.5413 39.3338 24.2083 39.3338H26.625V35.1046C26.625 34.8204 26.65 34.5475 26.6975 34.2853C26.8443 33.4757 27.2059 32.768 27.7106 32.1474C26.932 32.2675 26.0055 32.558 25.181 32.9677ZM48.3025 34.2853C48.35 34.5475 48.375 34.8204 48.375 35.1046V39.3338H50.7917C51.4587 39.3338 52 38.7925 52 38.1255V35.3524C52 34.4103 51.0173 33.5631 49.819 32.9677C48.9945 32.558 48.068 32.2675 47.2894 32.1474C47.7941 32.768 48.1557 33.4757 48.3025 34.2853ZM37.5 21.8125C36.8591 21.8125 36.2444 22.0672 35.7912 22.5204C35.3379 22.9736 35.0833 23.5883 35.0833 24.2293C35.0833 24.8702 35.3379 25.4849 35.7912 25.9382C36.2444 26.3914 36.8591 26.646 37.5 26.646C38.1409 26.646 38.7556 26.3914 39.2088 25.9382C39.6621 25.4849 39.9167 24.8702 39.9167 24.2293C39.9167 23.5883 39.6621 22.9736 39.2088 22.5204C38.7556 22.0672 38.1409 21.8125 37.5 21.8125ZM28.4375 25.4376C28.117 25.4376 27.8097 25.5649 27.5831 25.7916C27.3565 26.0182 27.2292 26.3255 27.2292 26.646C27.2292 26.8047 27.2604 26.9618 27.3211 27.1084C27.3819 27.255 27.4709 27.3882 27.5831 27.5004C27.8097 27.7271 28.117 27.8544 28.4375 27.8544C28.5962 27.8544 28.7533 27.8231 28.8999 27.7624C29.0465 27.7017 29.1797 27.6127 29.2919 27.5004C29.4041 27.3882 29.4931 27.255 29.5539 27.1084C29.6146 26.9618 29.6458 26.8047 29.6458 26.646C29.6458 26.4873 29.6146 26.3302 29.5539 26.1836C29.4931 26.037 29.4041 25.9038 29.2919 25.7916C29.1797 25.6794 29.0465 25.5903 28.8999 25.5296C28.7533 25.4689 28.5962 25.4376 28.4375 25.4376ZM46.5625 25.4376C46.242 25.4376 45.9347 25.5649 45.7081 25.7916C45.4815 26.0182 45.3542 26.3255 45.3542 26.646C45.3542 26.8047 45.3854 26.9618 45.4461 27.1084C45.5069 27.255 45.5959 27.3882 45.7081 27.5004C45.9347 27.7271 46.242 27.8544 46.5625 27.8544C46.7212 27.8544 46.8783 27.8231 47.0249 27.7624C47.1715 27.7017 47.3047 27.6127 47.4169 27.5004C47.5291 27.3882 47.6181 27.255 47.6789 27.1084C47.7396 26.9618 47.7708 26.8047 47.7708 26.646C47.7708 26.3255 47.6435 26.0182 47.4169 25.7916C47.1903 25.5649 46.883 25.4376 46.5625 25.4376ZM31.1956 34.5895C30.8584 34.9007 30.8542 35.0675 30.8542 35.1046V37.5213H44.1458V35.1046C44.1458 35.0675 44.1416 34.9007 43.8044 34.5895C43.455 34.267 42.8839 33.9266 42.1136 33.618C40.5701 32.9996 38.6846 32.6878 37.5 32.6878C36.3154 32.6878 34.4299 32.9996 32.8864 33.618C32.1161 33.9266 31.545 34.267 31.1956 34.5895ZM34.5095 21.2387C35.3027 20.4456 36.3784 20 37.5 20C38.6216 20 39.6974 20.4456 40.4905 21.2387C41.2836 22.0319 41.7292 23.1076 41.7292 24.2293C41.7292 25.3509 41.2836 26.4267 40.4905 27.2198C39.6974 28.013 38.6216 28.4586 37.5 28.4586C36.3784 28.4586 35.3027 28.013 34.5095 27.2198C33.7164 26.4267 33.2708 25.3509 33.2708 24.2293C33.2708 23.1076 33.7164 22.0319 34.5095 21.2387ZM26.3014 24.5099C26.868 23.9434 27.6363 23.6251 28.4375 23.6251C28.8342 23.6251 29.227 23.7032 29.5935 23.855C29.96 24.0069 30.293 24.2294 30.5736 24.5099C30.8541 24.7904 31.0766 25.1234 31.2284 25.49C31.3802 25.8565 31.4583 26.2493 31.4583 26.646C31.4583 27.0427 31.3802 27.4355 31.2284 27.8021C31.0766 28.1686 30.8541 28.5016 30.5736 28.7821C30.293 29.0626 29.96 29.2851 29.5935 29.437C29.227 29.5888 28.8342 29.6669 28.4375 29.6669C27.6363 29.6669 26.868 29.3486 26.3014 28.7821C26.0209 28.5016 25.7984 28.1686 25.6466 27.8021C25.4948 27.4355 25.4167 27.0427 25.4167 26.646C25.4167 25.8448 25.7349 25.0764 26.3014 24.5099ZM44.4264 24.5099C44.993 23.9434 45.7613 23.6251 46.5625 23.6251C47.3637 23.6251 48.132 23.9434 48.6986 24.5099C49.2651 25.0764 49.5833 25.8448 49.5833 26.646C49.5833 27.0427 49.5052 27.4355 49.3534 27.8021C49.2016 28.1686 48.9791 28.5016 48.6986 28.7821C48.418 29.0626 48.085 29.2851 47.7185 29.437C47.352 29.5888 46.9592 29.6669 46.5625 29.6669C45.7613 29.6669 44.993 29.3486 44.4264 28.7821C44.1459 28.5016 43.9234 28.1686 43.7716 27.8021C43.6198 27.4355 43.5417 27.0427 43.5417 26.646C43.5417 25.8448 43.8599 25.0764 44.4264 24.5099ZM29.0417 35.1046C29.0417 32.2927 34.6773 30.8753 37.5 30.8753C40.3227 30.8753 45.9583 32.2927 45.9583 35.1046V38.1255C45.9583 38.7925 45.417 39.3338 44.75 39.3338H30.25C29.583 39.3338 29.0417 38.7925 29.0417 38.1255V35.1046Z" fill="#4D0000"/>
</g>
</g>
</g>
</g>
</svg>
