<svg width="72" height="72" viewBox="0 0 72 72" fill="none" xmlns="http://www.w3.org/2000/svg">
<g id="task">
<rect id="Rectangle 34624992" x="15" y="10.5" width="43" height="55" fill="#36C5F0"/>
<rect id="Rectangle 34624991" x="24" y="4.5" width="25" height="8" fill="#2894B4"/>
<g id="Group 41">
<path id="Vector" d="M23.8124 3.7375C23.1625 4.0375 22.2999 4.97499 22.1375 5.57497C22.0625 5.84998 21.9999 6.32497 21.9999 6.64998V7.24997H19.9124C17.65 7.24997 16.9625 7.36246 15.8126 7.93745C14.45 8.59995 13.35 9.71245 12.675 11.1374C11.975 12.5874 12.0001 11.2624 12.0001 37.5747C12.0001 59.5245 12.0251 61.8995 12.2001 62.512C12.9001 64.8369 14.6625 66.5995 16.9875 67.2995C17.5999 67.4745 19.5251 67.4995 36.2873 67.4995C56.9497 67.4995 55.6372 67.5494 57.2372 66.6619C58.8247 65.7745 60.1372 64.0369 60.5622 62.2369C60.7247 61.5369 60.7497 58.3621 60.7497 37.1747C60.7497 10.3875 60.8121 12.4874 59.9746 10.8125C59.4746 9.83745 58.1622 8.52496 57.1871 8.02496C55.8497 7.34997 55.2871 7.24997 52.9747 7.24997H50.8748V6.77497C50.8748 5.51248 50.1247 4.2625 49.0622 3.7625C48.4998 3.5 48.4748 3.5 36.4124 3.5C24.9625 3.5 24.2875 3.5125 23.8124 3.7375ZM46.9998 9.12496V11H36.4374H25.875V9.12496V7.24997H36.4374H46.9998V9.12496ZM21.9999 11.5874C21.9999 12.5125 22.2249 13.1 22.7875 13.725C23.7999 14.825 22.7375 14.7499 36.2998 14.7499C45.3873 14.7499 48.4123 14.7125 48.7998 14.5998C49.5497 14.3749 50.4372 13.4499 50.6748 12.6125C50.7873 12.2499 50.8748 11.7374 50.8748 11.4624V10.9624L52.7247 11.0374C54.7247 11.1 55.1746 11.225 55.9247 11.8749C56.1497 12.0874 56.4746 12.525 56.6247 12.8499L56.9122 13.4374L56.8871 37.2497C56.8622 54.6371 56.8247 61.187 56.7247 61.5496C56.5122 62.2369 55.6122 63.187 54.8998 63.4621C54.3372 63.6745 53.4247 63.687 36.2499 63.687H18.1875L17.6 63.387C16.9251 63.0621 16.3376 62.4496 16.05 61.7745C15.8625 61.3496 15.85 59.112 15.8625 37.4997C15.875 20.7873 15.9251 13.5624 16.0251 13.2499C16.1625 12.8 16.65 12.0624 17 11.7749C17.7126 11.1874 18.4251 11.0374 20.475 11.0125L21.9999 11V11.5874Z" fill="#0D313B"/>
<path id="Vector_2" d="M29.6229 21.075C29.373 21.175 28.2229 22.2251 26.9354 23.5124L24.673 25.75L24.1229 25.175C23.4231 24.4625 23.0231 24.25 22.3605 24.25C21.7855 24.25 21.0104 24.6251 20.748 25.0376C20.473 25.5 20.373 26.15 20.5106 26.6875C20.6231 27.075 20.973 27.5124 22.048 28.6C22.8104 29.3875 23.5855 30.1 23.773 30.2C24.2104 30.4249 25.1605 30.4249 25.598 30.2C25.998 29.975 31.9104 24.05 32.1104 23.6625C32.3229 23.25 32.273 22.3625 32.0229 21.875C31.773 21.4 30.9104 20.875 30.373 20.875C30.198 20.8875 29.8605 20.975 29.6229 21.075Z" fill="#0D313B"/>
<path id="Vector_3" d="M35.7126 25.2375C35.1875 25.7249 35.1875 25.7375 35.1875 26.6249C35.1875 27.5124 35.1875 27.5249 35.7126 28.0124L36.2376 28.4999H43.5875C50.7 28.4999 50.9499 28.4874 51.3499 28.25C52.5499 27.5124 52.5499 25.7375 51.3499 24.9999C50.9499 24.7625 50.7 24.75 43.5875 24.75H36.2376L35.7126 25.2375Z" fill="#0D313B"/>
<path id="Vector_4" d="M29.6232 34.512C29.4481 34.5746 28.2857 35.6621 27.0357 36.8996L24.7608 39.1746L24.0857 38.537C23.2733 37.7621 22.6358 37.5496 21.8483 37.7496C20.5358 38.112 20.0233 39.6871 20.8483 40.837C21.2733 41.4245 23.4107 43.4495 23.8357 43.6744C24.2982 43.8996 24.9483 43.937 25.4608 43.7495C25.8608 43.5996 31.7982 37.737 32.0731 37.2245C32.3481 36.6996 32.2982 35.737 31.9606 35.2372C31.4731 34.4996 30.4606 34.1871 29.6232 34.512Z" fill="#0D313B"/>
<path id="Vector_5" d="M35.7126 37.7373C35.1875 38.2246 35.1875 38.2373 35.1875 39.1246C35.1875 40.0122 35.1875 40.0246 35.7126 40.5122L36.2376 40.9997H43.5875C50.7 40.9997 50.9499 40.9872 51.3499 40.7498C52.5499 40.0122 52.5499 38.2373 51.3499 37.4997C50.9499 37.2622 50.7 37.2498 43.5875 37.2498H36.2376L35.7126 37.7373Z" fill="#0D313B"/>
<path id="Vector_6" d="M29.6232 47.0123C29.4481 47.0748 28.2857 48.1624 27.0357 49.3998L24.7608 51.6748L24.0857 51.0372C23.2733 50.2624 22.6358 50.0499 21.8483 50.2499C20.5358 50.6123 20.0233 52.1873 20.8483 53.3372C21.2733 53.9248 23.4107 55.9497 23.8357 56.1747C24.2982 56.3998 24.9483 56.4372 25.4608 56.2497C25.8608 56.0998 31.7982 50.2372 32.0731 49.7248C32.3481 49.1998 32.2982 48.2372 31.9606 47.7374C31.4731 46.9998 30.4606 46.6873 29.6232 47.0123Z" fill="#0D313B"/>
<path id="Vector_7" d="M35.7126 50.2373C35.1875 50.7246 35.1875 50.7373 35.1875 51.6246C35.1875 52.5122 35.1875 52.5246 35.7126 53.0122L36.2376 53.4997H43.6374C50.7249 53.4997 51.0499 53.4872 51.4249 53.2622C52.5875 52.5371 52.5875 50.7122 51.4249 49.9872C51.0499 49.7622 50.7249 49.7498 43.6374 49.7498H36.2376L35.7126 50.2373Z" fill="#0D313B"/>
</g>
</g>
</svg>
