<?xml version="1.0" encoding="UTF-8" standalone="no"?> <svg xmlns="http://www.w3.org/2000/svg" viewBox="0 0 512 512"><g id="outline"><path d="M488,160a8,8,0,0,0,8-8V24a8,8,0,0,0-8-8H261.557a151.153,151.153,0,0,0-59.876,12.29l-70.223,30.1A32.105,32.105,0,0,0,143.9,120h.209a7.982,7.982,0,0,0,2.978-.572L221.7,97.042a7.985,7.985,0,0,1,4.6,0l24.566,7.369A32,32,0,0,0,256,168H88a8,8,0,0,0-8,8V352H24a8,8,0,0,0-8,8V488a8,8,0,0,0,8,8H228.985a151.427,151.427,0,0,0,55.092-10.335l99.975-38.879h0A32.607,32.607,0,0,0,394.727,440H424a8,8,0,0,0,8-8V351.158a80.027,80.027,0,0,0,0-156.807V176a8,8,0,0,0-8-8h-6.736a90.556,90.556,0,0,0,9.933-8ZM432,32h48V144H432ZM80,480H32V368H80ZM240,136a16.019,16.019,0,0,1,16-16h48a8,8,0,0,0,2.3-15.662L230.9,81.716a23.956,23.956,0,0,0-13.792,0L142.96,103.96a16.106,16.106,0,0,1-5.2-30.868L207.984,43a135.233,135.233,0,0,1,53.573-11H416V148.588A73.408,73.408,0,0,1,366.059,168H359.78a73.628,73.628,0,0,1-27.461-5.288l-25.348-10.14A8,8,0,0,0,304,152H256A16.019,16.019,0,0,1,240,136Zm96.336,144a79.829,79.829,0,0,0,3.077,16H288V280ZM288,264V248h51.908a79.664,79.664,0,0,0-3.422,16Zm58.274,48A80.317,80.317,0,0,0,384,346.1v22.687q-.25.048-.5.1l-.1.021a39.986,39.986,0,0,0-24.72,16.975L288,407.629V312ZM288,232V216h71.626c-.063.063-.131.122-.194.186A80.48,80.48,0,0,0,347.13,232Zm0-32V184H416v8.754A79.738,79.738,0,0,0,382.671,200Zm-64-16h48v16H224Zm0,32h48v16H224Zm0,32h48v16H224Zm0,32h48v16H224Zm0,32h48v36.305A31.793,31.793,0,0,0,256,344H224ZM96,184H208v16H96Zm0,32H208v16H96Zm0,32H208v16H96Zm0,32H208v16H151.92a8,8,0,0,0-8,8A23.7,23.7,0,0,1,120,327.92a8,8,0,0,0-8,8v1.2a103.165,103.165,0,0,0-10.743,5.6L96,345.87Zm112,32v30.558A102.89,102.89,0,0,0,155.156,328h-.769c-.844,0-1.687.022-2.53.043A40.367,40.367,0,0,0,159.1,312ZM385.534,426.353a8.1,8.1,0,0,0-.923,1.115,16.748,16.748,0,0,1-6.359,4.406h0l-99.975,38.879A135.47,135.47,0,0,1,228.985,480H96V364.529l13.489-8.092a87.169,87.169,0,0,1,12.655-6.252,7.968,7.968,0,0,0,1.467-.566A87.277,87.277,0,0,1,154.387,344h.769a86.991,86.991,0,0,1,48.406,14.656A8,8,0,0,0,208,360h48a16,16,0,0,1,0,32H208a8,8,0,0,0-1.569,15.845l7.939,1.588.04.007,63.946,12.789.07.015,8,1.6a8.008,8.008,0,0,0,3.922-.2l76.818-23.636a16.85,16.85,0,0,1,18.363,26.343ZM416,424H404.029a32.766,32.766,0,0,0-20.214-38.58,24.183,24.183,0,0,1,2.976-.876A26.029,26.029,0,0,1,392,384a8,8,0,0,0,8-8V351.158a80.8,80.8,0,0,0,16,1.6Zm6.105-214.955a8,8,0,0,0,1.895.235c.029,0,.057,0,.087,0a63.989,63.989,0,0,1-.068,126.965H424a8.008,8.008,0,0,0-1.831.219q-3.057.291-6.169.3a64.07,64.07,0,0,1-20.868-3.478,7.951,7.951,0,0,0-.972-.334,64.328,64.328,0,0,1-35.748-32.222c-.1-.217-.2-.43-.319-.637a64.233,64.233,0,0,1,.559-55.772,8.039,8.039,0,0,0,.736-1.462A64.417,64.417,0,0,1,387.5,215.437a7.862,7.862,0,0,0,1.224-.613A63.789,63.789,0,0,1,416,208.754C418.052,208.754,420.088,208.855,422.105,209.045Z"/><path d="M386.343,302.411a8,8,0,0,0,11.314,0l56-56A8,8,0,0,0,442.343,235.1l-56,56A8,8,0,0,0,386.343,302.411Z"/><circle cx="400" cy="248" r="8"/><circle cx="440" cy="288" r="8"/></g></svg>