<?xml version="1.0" encoding="iso-8859-1"?>
<!-- Generator: Adobe Illustrator 24.1.0, SVG Export Plug-In . SVG Version: 6.00 Build 0)  -->
<svg version="1.1" xmlns="http://www.w3.org/2000/svg" xmlns:xlink="http://www.w3.org/1999/xlink" x="0px" y="0px"
	 viewBox="0 0 512 512" style="enable-background:new 0 0 512 512;" xml:space="preserve">
<g id="_x33_06_x2C__Food_x2C__Food_Stall_x2C__Food_Vendor_x2C__Holidays">
	<g>
		<g>
			<path style="fill:#3F4751;" d="M361,263.5c-2.762,0-5-2.238-5-5v-105c0-2.761,2.238-5,5-5s5,2.239,5,5v105
				C366,261.262,363.762,263.5,361,263.5z"/>
			<path style="fill:#3F4751;" d="M116,263.5c-2.761,0-5-2.238-5-5v-105c0-2.761,2.239-5,5-5s5,2.239,5,5v105
				C121,261.262,118.761,263.5,116,263.5z"/>
			<polygon style="fill:#FFD400;" points="308.5,233.5 308.5,258.5 243.5,258.5 243.5,233.5 258.5,233.5 			"/>
			<polygon style="fill:#F88F19;" points="323.5,208.5 323.5,233.5 308.5,233.5 258.5,233.5 258.5,208.5 			"/>
			<rect x="153.5" y="188.5" style="fill:#07CC66;" width="35" height="70"/>
			<path style="fill:#A85120;" d="M378.5,258.5v38.667c-14.4,0-265.398,0-280,0V258.5C147.156,258.5,346.736,258.5,378.5,258.5z"/>
			<path style="fill:#C86D36;" d="M98.5,293.5c14.592,0,265.599,0,280,0c0,17.462,0,113.924,0,130c-0.109,0-269.669,0-280,0
				C98.5,409.082,98.5,307.537,98.5,293.5z"/>
			<path style="fill:#3F4751;" d="M178.5,373.5c27.61,0,50,22.39,50,50s-22.39,50-50,50s-50-22.39-50-50S150.89,373.5,178.5,373.5z"
				/>
			<rect x="243.5" y="323.5" style="fill:#E9EFFF;" width="25" height="45"/>
			<rect x="268.5" y="323.5" style="fill:#9BD8F9;" width="80" height="45"/>
			<circle style="fill:#3256C1;" cx="48.5" cy="353.5" r="20"/>
			<circle style="fill:#3256C1;" cx="443.5" cy="138.5" r="30"/>
			<circle style="fill:#33383F;" cx="178.5" cy="423.5" r="25"/>
			<rect x="408.5" y="423.5" style="fill:#3F4751;" width="25" height="50"/>
			<path style="fill:#33383F;" d="M451,398.5c6.9,0,12.5,5.6,12.5,12.5c0,3.45-1.4,6.58-3.66,8.84c-2.26,2.26-5.39,3.66-8.84,3.66
				h-17.5h-25h-30v-25H451z"/>
			<path style="fill:#E80054;" d="M378.5,82.5V136c0,9.67-7.83,17.5-17.5,17.5s-17.5-7.83-17.5-17.5V58.5h11
				C367.75,58.5,378.5,69.25,378.5,82.5z"/>
			<path style="fill:#E80054;" d="M308.5,58.5V136c0,9.67-7.83,17.5-17.5,17.5s-17.5-7.83-17.5-17.5V58.5H308.5z"/>
			<path style="fill:#E80054;" d="M238.5,58.5V136c0,9.67-7.83,17.5-17.5,17.5s-17.5-7.83-17.5-17.5V58.5H238.5z"/>
			<path style="fill:#E80054;" d="M168.5,58.5V136c0,9.67-7.83,17.5-17.5,17.5s-17.5-7.83-17.5-17.5V58.5H168.5z"/>
			<path style="fill:#FF4155;" d="M343.5,58.5V136c0,9.67-7.83,17.5-17.5,17.5s-17.5-7.83-17.5-17.5V58.5H343.5z"/>
			<path style="fill:#FF4155;" d="M273.5,58.5V136c0,9.67-7.83,17.5-17.5,17.5c-9.67,0-17.5-7.83-17.5-17.5V58.5H273.5z"/>
			<path style="fill:#FF4155;" d="M203.5,58.5V136c0,9.67-7.83,17.5-17.5,17.5s-17.5-7.83-17.5-17.5V58.5H203.5z"/>
			<path style="fill:#FF4155;" d="M133.5,58.5V136c0,9.67-7.83,17.5-17.5,17.5s-17.5-7.83-17.5-17.5V82.5c0-13.25,10.75-24,24-24
				H133.5z"/>
			<circle style="fill:#9BD8F9;" cx="446" cy="316" r="7.5"/>
			<circle style="fill:#9BD8F9;" cx="441" cy="41" r="7.5"/>
			<circle style="fill:#9BD8F9;" cx="406" cy="201" r="7.5"/>
			<circle style="fill:#9BD8F9;" cx="71" cy="171" r="7.5"/>
			<circle style="fill:#9BD8F9;" cx="46" cy="286" r="7.5"/>
			<circle style="fill:#9BD8F9;" cx="41" cy="56" r="7.5"/>
			<path style="fill:#33383F;" d="M478.5,468.5h-20h-25h-380c-2.761,0-5,2.238-5,5s2.239,5,5,5h380h25h20c2.762,0,5-2.238,5-5
				S481.262,468.5,478.5,468.5z"/>
			<path style="fill:#A85120;" d="M198.5,318.5h-100v10h100c2.761,0,5-2.238,5-5S201.261,318.5,198.5,318.5z"/>
			<path style="fill:#A85120;" d="M153.5,348.5h-55v10h55c2.761,0,5-2.238,5-5S156.261,348.5,153.5,348.5z"/>
		</g>
	</g>
</g>
<g id="Layer_1">
</g>
</svg>
