<svg width="72" height="72" viewBox="0 0 72 72" fill="none" xmlns="http://www.w3.org/2000/svg">
<g id="survey">
<g id="Group 1171275687">
<g id="Group">
<g id="Vector">
<path fill-rule="evenodd" clip-rule="evenodd" d="M10 12.1867C10 7.665 13.6733 4 18.2033 4H54.0067C58.5383 4 62.2117 7.665 62.2117 12.1867V59.815C62.2117 64.335 58.5383 68 54.0067 68H18.2033C13.6733 68 10 64.335 10 59.815V12.1867ZM18.2033 8.465C16.145 8.465 14.475 10.1317 14.475 12.1867V59.815C14.475 61.87 16.145 63.535 18.2033 63.535H54.0067C56.0667 63.535 57.7367 61.87 57.7367 59.815V12.1867C57.7367 10.1317 56.0667 8.465 54.0067 8.465H50H22H21.405H18.2033Z" fill="#0B2D1F"/>
<path d="M18.2033 8.465C16.145 8.465 14.475 10.1317 14.475 12.1867V59.815C14.475 61.87 16.145 63.535 18.2033 63.535H54.0067C56.0667 63.535 57.7367 61.87 57.7367 59.815V12.1867C57.7367 10.1317 56.0667 8.465 54.0067 8.465H50L49 13L46 16L39 17H30L26 16L23 12.5L22 8.465H21.405H18.2033Z" fill="#2EB67D"/>
</g>
</g>
<g id="Group_2">
<path id="Vector_2" fill-rule="evenodd" clip-rule="evenodd" d="M21.9297 6.23333C21.9297 5 22.9314 4 24.168 4H48.0364C49.2714 4 50.273 5 50.273 6.23333V9.21C50.273 13.73 46.5997 17.395 42.0697 17.395H30.1347C25.603 17.395 21.9297 13.73 21.9297 9.21V6.23333ZM26.4047 8.465V9.21C26.4047 11.265 28.0747 12.93 30.1347 12.93H42.0697C44.128 12.93 45.798 11.265 45.798 9.21V8.465H26.4047Z" fill="#0B2D1F"/>
</g>
<g id="Group 1171275686">
<g id="Group_3">
<g id="Vector_3">
<mask id="path-3-outside-1_6721_46465" maskUnits="userSpaceOnUse" x="16.6992" y="20.21" width="29" height="13" fill="black">
<rect fill="white" x="16.6992" y="20.21" width="29" height="13"/>
<path d="M23.3168 22.5377C25.6612 22.5377 27.5738 24.4487 27.5738 26.7931C27.5738 29.1329 25.6612 31.0454 23.3168 31.0454C20.9771 31.0454 19.066 29.1329 19.066 26.7931C19.066 24.4487 20.9771 22.5377 23.3168 22.5377ZM43.8839 26.7931C43.8839 28.432 42.5581 29.7182 40.9542 29.7182H28.1196C28.6654 28.8592 28.9785 27.8451 28.9785 26.7931C28.9785 25.7 28.6654 24.7224 28.1196 23.8634H40.9542C42.5581 23.8634 43.8839 25.1937 43.8839 26.7931ZM23.3168 32.4502C24.6836 32.4502 25.9333 31.9439 26.9079 31.1245H40.9542C43.3381 31.1245 45.2506 29.1724 45.2506 26.8326C45.2506 24.4487 43.2985 22.5377 40.9542 22.5377H26.9079C25.9333 21.7182 24.6836 21.2104 23.3168 21.2104C20.2366 21.1709 17.6992 23.7083 17.6992 26.7931C17.6992 29.8733 20.2366 32.4502 23.3168 32.4502Z"/>
</mask>
<path d="M23.3168 22.5377C25.6612 22.5377 27.5738 24.4487 27.5738 26.7931C27.5738 29.1329 25.6612 31.0454 23.3168 31.0454C20.9771 31.0454 19.066 29.1329 19.066 26.7931C19.066 24.4487 20.9771 22.5377 23.3168 22.5377ZM43.8839 26.7931C43.8839 28.432 42.5581 29.7182 40.9542 29.7182H28.1196C28.6654 28.8592 28.9785 27.8451 28.9785 26.7931C28.9785 25.7 28.6654 24.7224 28.1196 23.8634H40.9542C42.5581 23.8634 43.8839 25.1937 43.8839 26.7931ZM23.3168 32.4502C24.6836 32.4502 25.9333 31.9439 26.9079 31.1245H40.9542C43.3381 31.1245 45.2506 29.1724 45.2506 26.8326C45.2506 24.4487 43.2985 22.5377 40.9542 22.5377H26.9079C25.9333 21.7182 24.6836 21.2104 23.3168 21.2104C20.2366 21.1709 17.6992 23.7083 17.6992 26.7931C17.6992 29.8733 20.2366 32.4502 23.3168 32.4502Z" fill="#0B2D1F"/>
<path d="M23.3168 22.5377C25.6612 22.5377 27.5738 24.4487 27.5738 26.7931C27.5738 29.1329 25.6612 31.0454 23.3168 31.0454C20.9771 31.0454 19.066 29.1329 19.066 26.7931C19.066 24.4487 20.9771 22.5377 23.3168 22.5377ZM43.8839 26.7931C43.8839 28.432 42.5581 29.7182 40.9542 29.7182H28.1196C28.6654 28.8592 28.9785 27.8451 28.9785 26.7931C28.9785 25.7 28.6654 24.7224 28.1196 23.8634H40.9542C42.5581 23.8634 43.8839 25.1937 43.8839 26.7931ZM23.3168 32.4502C24.6836 32.4502 25.9333 31.9439 26.9079 31.1245H40.9542C43.3381 31.1245 45.2506 29.1724 45.2506 26.8326C45.2506 24.4487 43.2985 22.5377 40.9542 22.5377H26.9079C25.9333 21.7182 24.6836 21.2104 23.3168 21.2104C20.2366 21.1709 17.6992 23.7083 17.6992 26.7931C17.6992 29.8733 20.2366 32.4502 23.3168 32.4502Z" stroke="#0B2D1F" stroke-width="0.8" mask="url(#path-3-outside-1_6721_46465)"/>
</g>
</g>
<g id="Group_4">
<g id="Vector_4">
<mask id="path-4-outside-2_6721_46465" maskUnits="userSpaceOnUse" x="16.6992" y="32.9705" width="39" height="13" fill="black">
<rect fill="white" x="16.6992" y="32.9705" width="39" height="13"/>
<path d="M50.4791 42.5178H28.1196C28.6654 41.6588 28.9785 40.6447 28.9785 39.5926C28.9785 38.4995 28.6654 37.522 28.1196 36.666H50.4791C52.118 36.666 53.4057 37.9917 53.4057 39.5926C53.4057 41.2316 52.0784 42.5178 50.4791 42.5178ZM19.066 39.5926C19.066 37.2483 20.9771 35.3357 23.3168 35.3357C25.6612 35.3357 27.5738 37.2483 27.5738 39.5926C27.5738 41.9324 25.6612 43.8435 23.3168 43.8435C20.9771 43.8435 19.066 41.9324 19.066 39.5926ZM50.4791 35.2977H26.9079C25.9333 34.4767 24.6836 33.9705 23.3168 33.9705C20.2366 33.9705 17.6992 36.4684 17.6992 39.5926C17.6992 42.7124 20.2366 45.2103 23.3168 45.2103C24.6836 45.2103 25.9333 44.7025 26.9079 43.883H50.4791C52.8584 43.883 54.771 41.9324 54.771 39.5926C54.771 37.2118 52.8584 35.2977 50.4791 35.2977Z"/>
</mask>
<path d="M50.4791 42.5178H28.1196C28.6654 41.6588 28.9785 40.6447 28.9785 39.5926C28.9785 38.4995 28.6654 37.522 28.1196 36.666H50.4791C52.118 36.666 53.4057 37.9917 53.4057 39.5926C53.4057 41.2316 52.0784 42.5178 50.4791 42.5178ZM19.066 39.5926C19.066 37.2483 20.9771 35.3357 23.3168 35.3357C25.6612 35.3357 27.5738 37.2483 27.5738 39.5926C27.5738 41.9324 25.6612 43.8435 23.3168 43.8435C20.9771 43.8435 19.066 41.9324 19.066 39.5926ZM50.4791 35.2977H26.9079C25.9333 34.4767 24.6836 33.9705 23.3168 33.9705C20.2366 33.9705 17.6992 36.4684 17.6992 39.5926C17.6992 42.7124 20.2366 45.2103 23.3168 45.2103C24.6836 45.2103 25.9333 44.7025 26.9079 43.883H50.4791C52.8584 43.883 54.771 41.9324 54.771 39.5926C54.771 37.2118 52.8584 35.2977 50.4791 35.2977Z" fill="#0B2D1F"/>
<path d="M50.4791 42.5178H28.1196C28.6654 41.6588 28.9785 40.6447 28.9785 39.5926C28.9785 38.4995 28.6654 37.522 28.1196 36.666H50.4791C52.118 36.666 53.4057 37.9917 53.4057 39.5926C53.4057 41.2316 52.0784 42.5178 50.4791 42.5178ZM19.066 39.5926C19.066 37.2483 20.9771 35.3357 23.3168 35.3357C25.6612 35.3357 27.5738 37.2483 27.5738 39.5926C27.5738 41.9324 25.6612 43.8435 23.3168 43.8435C20.9771 43.8435 19.066 41.9324 19.066 39.5926ZM50.4791 35.2977H26.9079C25.9333 34.4767 24.6836 33.9705 23.3168 33.9705C20.2366 33.9705 17.6992 36.4684 17.6992 39.5926C17.6992 42.7124 20.2366 45.2103 23.3168 45.2103C24.6836 45.2103 25.9333 44.7025 26.9079 43.883H50.4791C52.8584 43.883 54.771 41.9324 54.771 39.5926C54.771 37.2118 52.8584 35.2977 50.4791 35.2977Z" stroke="#0B2D1F" stroke-width="0.8" mask="url(#path-4-outside-2_6721_46465)"/>
</g>
</g>
<g id="Vector_5">
<mask id="path-5-outside-3_6721_46465" maskUnits="userSpaceOnUse" x="19.8125" y="36.7275" width="7" height="6" fill="black">
<rect fill="white" x="19.8125" y="36.7275" width="7" height="6"/>
<path d="M24.5286 37.9522L22.8106 39.9044L21.9911 39.0849C21.7175 38.8112 21.2903 38.8112 21.0166 39.0849C20.7445 39.3586 20.7445 39.7858 21.0166 40.0594L22.3834 41.4247C22.4974 41.5433 22.695 41.6193 22.8501 41.6193H22.8897C23.0843 41.6193 23.2424 41.5433 23.3959 41.3852L25.5822 38.8872C25.8163 38.6151 25.8163 38.1864 25.5031 37.9142C25.193 37.6406 24.7627 37.6801 24.5286 37.9522Z"/>
</mask>
<path d="M24.5286 37.9522L22.8106 39.9044L21.9911 39.0849C21.7175 38.8112 21.2903 38.8112 21.0166 39.0849C20.7445 39.3586 20.7445 39.7858 21.0166 40.0594L22.3834 41.4247C22.4974 41.5433 22.695 41.6193 22.8501 41.6193H22.8897C23.0843 41.6193 23.2424 41.5433 23.3959 41.3852L25.5822 38.8872C25.8163 38.6151 25.8163 38.1864 25.5031 37.9142C25.193 37.6406 24.7627 37.6801 24.5286 37.9522Z" fill="#0B2D1F"/>
<path d="M24.5286 37.9522L22.8106 39.9044L21.9911 39.0849C21.7175 38.8112 21.2903 38.8112 21.0166 39.0849C20.7445 39.3586 20.7445 39.7858 21.0166 40.0594L22.3834 41.4247C22.4974 41.5433 22.695 41.6193 22.8501 41.6193H22.8897C23.0843 41.6193 23.2424 41.5433 23.3959 41.3852L25.5822 38.8872C25.8163 38.6151 25.8163 38.1864 25.5031 37.9142C25.193 37.6406 24.7627 37.6801 24.5286 37.9522Z" stroke="#0B2D1F" stroke-width="0.8" mask="url(#path-5-outside-3_6721_46465)"/>
</g>
<g id="Group_5">
<g id="Vector_6">
<mask id="path-6-outside-4_6721_46465" maskUnits="userSpaceOnUse" x="16.6992" y="45.7339" width="33" height="13" fill="black">
<rect fill="white" x="16.6992" y="45.7339" width="33" height="13"/>
<path d="M44.3521 55.3177H28.1196C28.6654 54.4587 28.9785 53.4446 28.9785 52.391C28.9785 51.2994 28.6654 50.3219 28.1196 49.4659H44.3917C46.0306 49.4659 47.3198 50.7916 47.3198 52.391C47.3198 53.9904 45.991 55.3177 44.3521 55.3177ZM19.066 52.391C19.066 50.0482 20.9771 48.1356 23.3168 48.1356C25.6612 48.1356 27.5738 50.0482 27.5738 52.391C27.5738 54.7323 25.6612 56.6434 23.3168 56.6434C20.9771 56.6434 19.066 54.7323 19.066 52.391ZM44.3521 48.0611H26.9079C25.9333 47.2402 24.6836 46.7339 23.3168 46.7339C20.1971 46.7339 17.6992 49.2683 17.6992 52.3515C17.6992 55.4363 20.2366 58.0102 23.3168 58.0102C24.6836 58.0102 25.9333 57.5024 26.9079 56.6829H44.3521C46.7345 56.6829 48.6425 54.7323 48.6425 52.391C48.6866 50.0117 46.7345 48.0611 44.3521 48.0611Z"/>
</mask>
<path d="M44.3521 55.3177H28.1196C28.6654 54.4587 28.9785 53.4446 28.9785 52.391C28.9785 51.2994 28.6654 50.3219 28.1196 49.4659H44.3917C46.0306 49.4659 47.3198 50.7916 47.3198 52.391C47.3198 53.9904 45.991 55.3177 44.3521 55.3177ZM19.066 52.391C19.066 50.0482 20.9771 48.1356 23.3168 48.1356C25.6612 48.1356 27.5738 50.0482 27.5738 52.391C27.5738 54.7323 25.6612 56.6434 23.3168 56.6434C20.9771 56.6434 19.066 54.7323 19.066 52.391ZM44.3521 48.0611H26.9079C25.9333 47.2402 24.6836 46.7339 23.3168 46.7339C20.1971 46.7339 17.6992 49.2683 17.6992 52.3515C17.6992 55.4363 20.2366 58.0102 23.3168 58.0102C24.6836 58.0102 25.9333 57.5024 26.9079 56.6829H44.3521C46.7345 56.6829 48.6425 54.7323 48.6425 52.391C48.6866 50.0117 46.7345 48.0611 44.3521 48.0611Z" fill="#0B2D1F"/>
<path d="M44.3521 55.3177H28.1196C28.6654 54.4587 28.9785 53.4446 28.9785 52.391C28.9785 51.2994 28.6654 50.3219 28.1196 49.4659H44.3917C46.0306 49.4659 47.3198 50.7916 47.3198 52.391C47.3198 53.9904 45.991 55.3177 44.3521 55.3177ZM19.066 52.391C19.066 50.0482 20.9771 48.1356 23.3168 48.1356C25.6612 48.1356 27.5738 50.0482 27.5738 52.391C27.5738 54.7323 25.6612 56.6434 23.3168 56.6434C20.9771 56.6434 19.066 54.7323 19.066 52.391ZM44.3521 48.0611H26.9079C25.9333 47.2402 24.6836 46.7339 23.3168 46.7339C20.1971 46.7339 17.6992 49.2683 17.6992 52.3515C17.6992 55.4363 20.2366 58.0102 23.3168 58.0102C24.6836 58.0102 25.9333 57.5024 26.9079 56.6829H44.3521C46.7345 56.6829 48.6425 54.7323 48.6425 52.391C48.6866 50.0117 46.7345 48.0611 44.3521 48.0611Z" stroke="#0B2D1F" stroke-width="0.8" mask="url(#path-6-outside-4_6721_46465)"/>
</g>
</g>
<g id="Vector_7">
<mask id="path-7-outside-5_6721_46465" maskUnits="userSpaceOnUse" x="20.2031" y="49.2744" width="6" height="6" fill="black">
<rect fill="white" x="20.2031" y="49.2744" width="6" height="6"/>
<path d="M25.232 50.4797C24.9599 50.206 24.5311 50.206 24.2575 50.4797L23.3194 51.4131L22.3859 50.4797C22.1123 50.206 21.6805 50.206 21.4084 50.4797C21.1347 50.7518 21.1347 51.1805 21.4084 51.4527L22.3464 52.3907L21.4084 53.3257C21.1347 53.5994 21.1347 54.0296 21.4084 54.3033C21.527 54.4188 21.72 54.4979 21.8782 54.4979C22.0332 54.4979 22.2278 54.4188 22.3464 54.3033L23.2845 53.3652L24.2179 54.3033C24.3365 54.4188 24.5311 54.4979 24.6862 54.4979C24.8443 54.4979 25.0374 54.4188 25.156 54.3033C25.4296 54.0296 25.4296 53.5994 25.156 53.3257L24.2179 52.3907L25.156 51.4527C25.5057 51.1805 25.5057 50.7518 25.232 50.4797Z"/>
</mask>
<path d="M25.232 50.4797C24.9599 50.206 24.5311 50.206 24.2575 50.4797L23.3194 51.4131L22.3859 50.4797C22.1123 50.206 21.6805 50.206 21.4084 50.4797C21.1347 50.7518 21.1347 51.1805 21.4084 51.4527L22.3464 52.3907L21.4084 53.3257C21.1347 53.5994 21.1347 54.0296 21.4084 54.3033C21.527 54.4188 21.72 54.4979 21.8782 54.4979C22.0332 54.4979 22.2278 54.4188 22.3464 54.3033L23.2845 53.3652L24.2179 54.3033C24.3365 54.4188 24.5311 54.4979 24.6862 54.4979C24.8443 54.4979 25.0374 54.4188 25.156 54.3033C25.4296 54.0296 25.4296 53.5994 25.156 53.3257L24.2179 52.3907L25.156 51.4527C25.5057 51.1805 25.5057 50.7518 25.232 50.4797Z" fill="#0B2D1F"/>
<path d="M25.232 50.4797C24.9599 50.206 24.5311 50.206 24.2575 50.4797L23.3194 51.4131L22.3859 50.4797C22.1123 50.206 21.6805 50.206 21.4084 50.4797C21.1347 50.7518 21.1347 51.1805 21.4084 51.4527L22.3464 52.3907L21.4084 53.3257C21.1347 53.5994 21.1347 54.0296 21.4084 54.3033C21.527 54.4188 21.72 54.4979 21.8782 54.4979C22.0332 54.4979 22.2278 54.4188 22.3464 54.3033L23.2845 53.3652L24.2179 54.3033C24.3365 54.4188 24.5311 54.4979 24.6862 54.4979C24.8443 54.4979 25.0374 54.4188 25.156 54.3033C25.4296 54.0296 25.4296 53.5994 25.156 53.3257L24.2179 52.3907L25.156 51.4527C25.5057 51.1805 25.5057 50.7518 25.232 50.4797Z" stroke="#0B2D1F" stroke-width="0.8" mask="url(#path-7-outside-5_6721_46465)"/>
</g>
<g id="Vector_8">
<mask id="path-8-outside-6_6721_46465" maskUnits="userSpaceOnUse" x="20.1641" y="23.6753" width="6" height="6" fill="black">
<rect fill="white" x="20.1641" y="23.6753" width="6" height="6"/>
<path d="M21.4476 28.7042C21.5662 28.8197 21.7593 28.8988 21.9143 28.8988C22.0725 28.8988 22.2671 28.8197 22.3856 28.7042L23.3191 27.7676L24.2572 28.7042C24.3727 28.8197 24.5704 28.8988 24.7254 28.8988C24.8836 28.8988 25.0766 28.8197 25.1952 28.7042C25.4689 28.432 25.4689 28.0003 25.1952 27.7281L24.2572 26.7931L25.1952 25.8551C25.4689 25.5814 25.4689 25.1542 25.1952 24.8805C24.92 24.6069 24.4913 24.6069 24.2176 24.8805L23.2842 25.8155L22.3461 24.8805C22.0725 24.6069 21.6407 24.6069 21.3716 24.8805C21.0949 25.1542 21.0949 25.5814 21.3716 25.8551L22.3066 26.7931L21.3716 27.7281C21.1739 28.0003 21.1739 28.432 21.4476 28.7042Z"/>
</mask>
<path d="M21.4476 28.7042C21.5662 28.8197 21.7593 28.8988 21.9143 28.8988C22.0725 28.8988 22.2671 28.8197 22.3856 28.7042L23.3191 27.7676L24.2572 28.7042C24.3727 28.8197 24.5704 28.8988 24.7254 28.8988C24.8836 28.8988 25.0766 28.8197 25.1952 28.7042C25.4689 28.432 25.4689 28.0003 25.1952 27.7281L24.2572 26.7931L25.1952 25.8551C25.4689 25.5814 25.4689 25.1542 25.1952 24.8805C24.92 24.6069 24.4913 24.6069 24.2176 24.8805L23.2842 25.8155L22.3461 24.8805C22.0725 24.6069 21.6407 24.6069 21.3716 24.8805C21.0949 25.1542 21.0949 25.5814 21.3716 25.8551L22.3066 26.7931L21.3716 27.7281C21.1739 28.0003 21.1739 28.432 21.4476 28.7042Z" fill="#0B2D1F"/>
<path d="M21.4476 28.7042C21.5662 28.8197 21.7593 28.8988 21.9143 28.8988C22.0725 28.8988 22.2671 28.8197 22.3856 28.7042L23.3191 27.7676L24.2572 28.7042C24.3727 28.8197 24.5704 28.8988 24.7254 28.8988C24.8836 28.8988 25.0766 28.8197 25.1952 28.7042C25.4689 28.432 25.4689 28.0003 25.1952 27.7281L24.2572 26.7931L25.1952 25.8551C25.4689 25.5814 25.4689 25.1542 25.1952 24.8805C24.92 24.6069 24.4913 24.6069 24.2176 24.8805L23.2842 25.8155L22.3461 24.8805C22.0725 24.6069 21.6407 24.6069 21.3716 24.8805C21.0949 25.1542 21.0949 25.5814 21.3716 25.8551L22.3066 26.7931L21.3716 27.7281C21.1739 28.0003 21.1739 28.432 21.4476 28.7042Z" stroke="#0B2D1F" stroke-width="0.8" mask="url(#path-8-outside-6_6721_46465)"/>
</g>
</g>
</g>
</g>
</svg>
