<svg width="72" height="72" viewBox="0 0 72 72" fill="none" xmlns="http://www.w3.org/2000/svg">
<path d="M43.9306 4.29029C43.4377 4.46283 37.6699 7.75341 28.9073 12.8557L14.6851 21.1376H12.1463C10.7537 21.1376 9.25014 21.1992 8.80646 21.2731C6.69901 21.6059 4.94897 23.0848 4.24649 25.1429C4 25.8454 4 26.1659 4 44.1223C4 60.0083 4.02465 62.4608 4.18486 63.0031C4.73946 64.8517 6.25534 66.3676 8.10398 66.9222C8.64625 67.0824 11.8875 67.1071 34.1205 67.1071C61.6036 67.1071 59.8905 67.144 61.2709 66.4539C62.035 66.0595 63.1195 64.9873 63.5509 64.1862C64.2287 62.9661 64.2657 62.5471 64.2657 57.3463V52.5644L64.8572 52.2687C65.5351 51.9236 66.3361 51.0979 66.7552 50.3214L67.0386 49.7915V44.1839V38.5764L66.7428 37.9725C66.3608 37.2207 65.4611 36.3087 64.7833 36.0006L64.2657 35.7665V30.9354C64.2657 26.856 64.241 26.0056 64.0685 25.4387C63.4399 23.3066 61.7515 21.7291 59.7057 21.3471L59.0155 21.2115L54.8253 13.8909C50.3885 6.1266 49.9449 5.47342 48.7001 4.75861C47.2705 3.95753 45.4342 3.77267 43.9306 4.29029ZM46.987 7.28508C47.3444 7.45762 47.7388 7.75341 47.8744 7.9506L48.1085 8.28335L37.0783 14.7166L26.0358 21.1376L23.4107 21.1129L20.7857 21.0759L32.4198 14.2976C38.8284 10.5633 44.325 7.396 44.6454 7.24811C45.4342 6.86606 46.186 6.87838 46.987 7.28508ZM50.3023 12.0546C50.6473 12.6708 50.9062 13.2254 50.8569 13.2747C50.8076 13.324 47.7635 15.111 44.0785 17.2554L37.3988 21.1376L34.7737 21.1129L32.1486 21.0759L40.8496 15.9983C45.6314 13.2131 49.5628 10.9207 49.5998 10.9207C49.6368 10.9207 49.9449 11.426 50.3023 12.0546ZM53.9749 18.5002C54.7637 19.8928 55.3922 21.0513 55.3675 21.0883C55.3306 21.1129 52.6562 21.1252 49.4149 21.1129L43.5239 21.0759L47.8867 18.5248C50.2899 17.1199 52.3111 15.9737 52.3851 15.9614C52.459 15.9614 53.1738 17.1075 53.9749 18.5002ZM59.6564 24.4281C60.3096 24.7732 60.9751 25.5497 61.1599 26.1782C61.2585 26.4986 61.3078 28.0761 61.3078 31.1079V35.557H56.4028C51.9167 35.557 51.3991 35.5816 50.5364 35.8034C47.5786 36.5552 45.2493 38.8722 44.4113 41.904C44.0662 43.1364 44.0415 45.0836 44.3496 46.2791C45.1014 49.1629 47.3075 51.4922 50.2653 52.4782C50.9678 52.7123 51.3745 52.737 56.1686 52.774L61.3078 52.8233V57.3463C61.3078 61.8446 61.3078 61.8693 61.0121 62.4978C60.6793 63.2003 59.9768 63.8535 59.336 64.026C59.0648 64.1 49.7846 64.1493 34.0096 64.1493C10.0142 64.1493 9.10225 64.1369 8.6216 63.9151C8.35047 63.7918 7.95609 63.4961 7.73425 63.2742C6.8962 62.3869 6.95782 63.7918 6.95782 44.147V26.3631L7.27825 25.7222C7.64798 24.9704 8.41209 24.3788 9.21316 24.2186C9.49662 24.1693 20.8473 24.1324 34.4409 24.1447L59.1511 24.157L59.6564 24.4281ZM63.403 38.6996C64.1301 39.0817 64.1424 39.168 64.1424 44.1839C64.1424 49.2492 64.1424 49.2862 63.3537 49.6559C62.9839 49.8285 62.2938 49.8531 57.7708 49.8531C54.9362 49.8531 52.2865 49.7915 51.8798 49.7299C51.4731 49.6682 50.7583 49.4218 50.2776 49.1876C46.7899 47.4622 46.0504 42.9392 48.7987 40.1786C49.5382 39.4391 50.3516 38.9708 51.3622 38.6996C52.3481 38.4408 62.8977 38.4408 63.403 38.6996Z" fill="#0B2D1F"/>
<path d="M46.987 7.28508C47.3444 7.45762 47.7388 7.75341 47.8744 7.9506L48.1085 8.28335L37.0783 14.7166L26.0358 21.1376L23.4107 21.1129L20.7857 21.0759L32.4198 14.2976C38.8284 10.5633 44.325 7.396 44.6454 7.24811C45.4342 6.86606 46.186 6.87838 46.987 7.28508Z" fill="#22885E"/>
<path d="M53.9749 18.5002C54.7637 19.8928 55.3922 21.0513 55.3675 21.0883C55.3306 21.1129 52.6562 21.1252 49.4149 21.1129L43.5239 21.0759L47.8867 18.5248C50.2899 17.1199 52.3111 15.9737 52.3851 15.9614C52.459 15.9614 53.1738 17.1075 53.9749 18.5002Z" fill="#22885E"/>
<path d="M50.3023 12.0546C50.6473 12.6708 50.9062 13.2254 50.8569 13.2747C50.8076 13.324 47.7635 15.111 44.0785 17.2554L37.3988 21.1376L34.7737 21.1129L32.1486 21.0759L40.8496 15.9983C45.6314 13.2131 49.5628 10.9207 49.5998 10.9207C49.6368 10.9207 49.9449 11.426 50.3023 12.0546Z" fill="#62C89E"/>
<path d="M51.7814 41.399C50.2902 41.9536 49.5384 43.4941 49.982 45.084C50.1299 45.6139 50.8201 46.452 51.3377 46.7108C52.8166 47.4749 54.616 46.9449 55.3185 45.5153C56.0579 44.0364 55.528 42.2987 54.123 41.5715C53.4821 41.2511 52.3976 41.1648 51.7814 41.399Z" fill="#0B2D1F"/>
<mask id="path-3-outside-1_6295_46587" maskUnits="userSpaceOnUse" x="1" y="45.3726" width="26" height="26" fill="black">
<rect fill="white" x="1" y="45.3726" width="26" height="26"/>
<path d="M13.8137 68C19.2337 68 23.6274 63.6062 23.6274 58.1863C23.6274 52.7663 19.2337 48.3726 13.8137 48.3726C8.39375 48.3726 4 52.7663 4 58.1863C4 63.6062 8.39375 68 13.8137 68Z"/>
</mask>
<path d="M13.8137 68C19.2337 68 23.6274 63.6062 23.6274 58.1863C23.6274 52.7663 19.2337 48.3726 13.8137 48.3726C8.39375 48.3726 4 52.7663 4 58.1863C4 63.6062 8.39375 68 13.8137 68Z" fill="#22885E"/>
<path d="M13.8137 68C19.2337 68 23.6274 63.6062 23.6274 58.1863C23.6274 52.7663 19.2337 48.3726 13.8137 48.3726C8.39375 48.3726 4 52.7663 4 58.1863C4 63.6062 8.39375 68 13.8137 68Z" stroke="#0B2D1F" stroke-width="4.90909" mask="url(#path-3-outside-1_6295_46587)"/>
<path d="M12.5558 51.4984V52.4409C11.7216 52.6821 11.0338 53.2188 10.5896 53.9832C10.1545 54.7272 9.98535 55.6427 10.1297 56.4973C10.2582 57.2414 10.5716 57.8659 11.2255 58.2718C11.7666 58.6145 12.4048 58.734 13.0158 58.8829C13.3608 58.9663 13.7126 59.0632 14.0305 59.2256C14.1748 59.3 14.3168 59.3902 14.4409 59.4984C14.6483 59.6788 14.8693 59.9516 14.7746 60.2425C14.6776 60.5559 14.3033 60.725 14.0012 60.7589C13.4803 60.813 13.0113 60.5559 12.6753 60.1726C12.4093 59.8186 12.053 59.5255 11.6111 59.424C11.2413 59.3406 10.8647 59.4127 10.5536 59.6247C10.2244 59.8412 10.0034 60.1884 9.938 60.5807C9.85908 61.0339 10.0034 61.4736 10.274 61.8367C10.8647 62.6213 11.6291 63.1242 12.5558 63.3789V64.0734C12.5558 65.857 15.2684 65.848 15.2684 64.114V63.3587C15.9741 63.1444 16.5897 62.7747 17.0993 62.2358C17.8028 61.5029 18.1838 60.5311 18.0508 59.5165C17.8614 58.0441 16.7047 57.0271 15.3338 56.628C14.8602 56.486 13.4352 56.3439 13.1894 55.8862C13.1646 55.8366 13.1534 55.787 13.1534 55.7284C13.1534 55.5502 13.1872 55.3586 13.336 55.2458C13.5863 55.0519 14.0598 55.1196 14.3416 55.1895C14.6212 55.2639 14.973 55.4082 15.1962 55.5953C15.6923 56.017 16.3732 56.1613 16.9324 55.7712C17.2977 55.5164 17.5051 55.097 17.5142 54.6573C17.5277 54.1162 17.2436 53.6382 16.8558 53.2797L16.849 53.2774L16.8445 53.2729C16.371 52.8693 15.8569 52.6122 15.2661 52.4544V51.6043C15.2684 49.8974 12.5558 49.9876 12.5558 51.4984Z" fill="#0B2D1F"/>
</svg>
