<svg width="72" height="72" viewBox="0 0 72 72" fill="none" xmlns="http://www.w3.org/2000/svg">
<path d="M28.1521 47.4393C27.7558 47.5002 27.1767 47.6984 26.8718 47.8813C26.3079 48.2166 26.2927 48.2166 25.5001 47.9422C24.8142 47.7136 24.5704 47.6984 23.8693 47.8355C23.412 47.927 22.7719 48.2013 22.4213 48.4147C21.8574 48.7957 21.7659 48.811 21.2325 48.6281C20.3637 48.3385 19.0834 48.3995 18.2756 48.75C16.9801 49.3292 16.0809 50.5333 16.4009 51.2344C16.5686 51.6002 30.1335 60.9127 31.0785 61.3242C32.1911 61.7967 33.5171 62.0558 34.9041 62.0558C36.2149 62.0558 37.236 61.9034 42.5096 60.9127C44.7196 60.5012 45.5731 60.4097 45.878 60.5164C46.1066 60.5926 47.1278 61.1718 48.1337 61.812L49.9474 62.9703L49.3682 64.9212C48.6824 67.177 48.6519 67.4361 49.1091 67.7561C49.3987 67.9695 50.237 68 55.1905 68C60.7689 68 60.9213 67.9848 61.1956 67.6952C61.4395 67.4208 61.6529 66.0034 62.5216 58.9618C63.0856 54.3284 63.5428 50.2894 63.5581 49.9846C63.5581 48.9482 63.5733 48.9482 58.8942 48.9482C56.4098 48.9482 54.5808 49.0091 54.4132 49.1006C54.2455 49.192 54.0017 49.695 53.7883 50.3961C53.6054 51.0362 53.392 51.5849 53.331 51.6154C53.2091 51.7069 52.0203 50.8533 51.2125 50.0913C49.292 48.2775 45.8475 47.363 43.165 47.9422C42.5553 48.0642 41.4884 48.4147 40.8025 48.7043C39.1869 49.4054 38.3182 49.5578 36.032 49.5578H34.1573L32.3435 48.5671C31.3528 48.0184 30.3012 47.5459 30.0116 47.485C28.9904 47.3173 28.8685 47.3173 28.1521 47.4393ZM30.3012 49.5578L30.8194 49.8017L30.4231 50.076C30.0268 50.3199 29.9963 50.3199 29.0819 49.8017C28.2741 49.3444 28.1978 49.2682 28.5179 49.2225C29.0361 49.1311 29.722 49.253 30.3012 49.5578ZM26.6889 50.579C27.7711 51.1582 28.6551 51.6459 28.6551 51.6916C28.6398 51.7374 28.5484 51.8898 28.4265 52.0574C28.2283 52.3165 28.1369 52.286 26.567 51.463C23.7169 49.9389 23.534 49.8169 23.8693 49.695C24.4332 49.4664 24.7533 49.5731 26.6889 50.579ZM47.4783 50.0151C48.5452 50.3809 49.2311 50.8076 50.5723 51.9507C51.1058 52.408 51.8374 52.9262 52.2184 53.1091C52.5842 53.2767 52.8738 53.5054 52.8281 53.6121C52.7976 53.7035 52.2641 55.4258 51.6545 57.4224C51.0448 59.4343 50.5418 61.0804 50.5114 61.1109C50.4961 61.1413 49.6731 60.6384 48.6824 60.0135C46.0304 58.3217 46.3047 58.3521 40.6959 59.3886C36.5502 60.1659 35.8948 60.2421 34.5993 60.1811C33.8067 60.1506 32.8008 59.9982 32.374 59.8611C31.8406 59.6934 29.5239 58.1997 25.1648 55.2124C21.6288 52.789 18.7177 50.7467 18.7024 50.6857C18.6567 50.4571 19.7083 50.1675 20.1961 50.2742C20.8667 50.3961 27.7558 54.1303 27.8473 54.4199C28.1216 55.1667 28.0454 55.1667 33.0446 55.1057C35.6204 55.0752 37.7695 55.06 37.8152 55.0448C38.0134 55.0448 38.2115 54.3436 38.1048 54.0541C37.8305 53.3225 37.6933 53.292 33.6543 53.292C31.5815 53.292 29.8744 53.2615 29.8744 53.231C29.8744 53.0024 30.6212 52.1489 31.0632 51.8288C31.5815 51.4782 31.7034 51.463 35.4223 51.3716C39.5375 51.2801 39.4308 51.2953 41.8847 50.2589C42.4181 50.0303 43.1345 49.7864 43.485 49.7102C44.4453 49.4969 46.4419 49.6493 47.4783 50.0151ZM60.7231 58.4284C60.2049 62.6502 59.7629 66.1101 59.7629 66.1253C59.7477 66.1558 57.7511 66.171 55.3124 66.171C51.8221 66.171 50.8924 66.1253 50.9534 65.9729C50.9838 65.8814 52.0355 62.4673 53.2701 58.3979C54.5046 54.3284 55.541 50.96 55.5868 50.8838C55.6173 50.8229 57.0042 50.7771 58.6503 50.7771H61.6681L60.7231 58.4284Z" fill="#0B2D1F"/>
<path d="M60.7231 58.4284C60.2049 62.6502 59.7629 66.1101 59.7629 66.1253C59.7477 66.1558 57.7511 66.171 55.3124 66.171C51.8221 66.171 50.8924 66.1253 50.9534 65.9729C50.9838 65.8814 52.0355 62.4673 53.2701 58.3979C54.5046 54.3284 55.541 50.96 55.5868 50.8838C55.6173 50.8229 57.0042 50.7771 58.6503 50.7771H61.6681L60.7231 58.4284Z" fill="#22885E"/>
<path d="M43.4055 24.5607C43.8018 24.4998 44.381 24.3016 44.6858 24.1187C45.2497 23.7834 45.265 23.7834 46.0575 24.0578C46.7434 24.2864 46.9872 24.3016 47.6884 24.1645C48.1456 24.073 48.7857 23.7987 49.1363 23.5853C49.7002 23.2043 49.7917 23.189 50.3251 23.3719C51.1939 23.6615 52.4742 23.6005 53.282 23.25C54.5775 22.6708 55.4767 21.4667 55.1567 20.7656C54.989 20.3998 41.4241 11.0873 40.4791 10.6758C39.3665 10.2033 38.0405 9.94417 36.6535 9.94417C35.3428 9.94418 34.3216 10.0966 29.048 11.0873C26.838 11.4988 25.9845 11.5903 25.6797 11.4836C25.451 11.4074 24.4299 10.8282 23.4239 10.188L21.6102 9.02969L22.1894 7.07878C22.8752 4.82304 22.9057 4.56394 22.4485 4.24387C22.1589 4.03049 21.3206 4 16.3671 4C10.7887 4 10.6363 4.01525 10.362 4.30483C10.1181 4.57918 9.90474 5.99664 9.03598 13.0382C8.47205 17.6716 8.0148 21.7106 7.99956 22.0154C7.99956 23.0518 7.98432 23.0518 12.6634 23.0518C15.1478 23.0518 16.9768 22.9909 17.1444 22.8994C17.3121 22.808 17.556 22.305 17.7693 21.6039C17.9522 20.9638 18.1656 20.4151 18.2266 20.3846C18.3485 20.2931 19.5374 21.1467 20.3452 21.9087C22.2656 23.7225 25.7101 24.637 28.3926 24.0578C29.0023 23.9358 30.0692 23.5853 30.7551 23.2957C32.3707 22.5946 33.2394 22.4422 35.5257 22.4422L37.4004 22.4422L39.2141 23.4329C40.2048 23.9816 41.2564 24.4541 41.546 24.515C42.5672 24.6827 42.6891 24.6827 43.4055 24.5607ZM41.2564 22.4422L40.7382 22.1983L41.1345 21.924C41.5308 21.6801 41.5613 21.6801 42.4758 22.1983C43.2836 22.6556 43.3598 22.7318 43.0397 22.7775C42.5215 22.8689 41.8356 22.747 41.2564 22.4422ZM44.8687 21.421C43.7865 20.8418 42.9025 20.3541 42.9025 20.3084C42.9178 20.2626 43.0092 20.1102 43.1312 19.9426C43.3293 19.6835 43.4207 19.714 44.9906 20.537C47.8408 22.0611 48.0237 22.1831 47.6884 22.305C47.1244 22.5336 46.8043 22.4269 44.8687 21.421ZM24.0793 21.9849C23.0124 21.6191 22.3265 21.1924 20.9853 20.0493C20.4518 19.592 19.7203 19.0738 19.3392 18.8909C18.9734 18.7233 18.6838 18.4946 18.7296 18.388C18.76 18.2965 19.2935 16.5742 19.9031 14.5776C20.5128 12.5657 21.0158 10.9196 21.0463 10.8891C21.0615 10.8587 21.8845 11.3616 22.8752 11.9865C25.5273 13.6783 25.2529 13.6479 30.8618 12.6114C35.0074 11.8341 35.6628 11.7579 36.9584 11.8189C37.7509 11.8494 38.7568 12.0018 39.1836 12.1389C39.7171 12.3066 42.0338 13.8003 46.3928 16.7876C49.9288 19.211 52.84 21.2533 52.8552 21.3143C52.9009 21.5429 51.8493 21.8325 51.3615 21.7258C50.6909 21.6039 43.8018 17.8697 43.7103 17.5802C43.436 16.8333 43.5122 16.8333 38.513 16.8943C35.9372 16.9248 33.7881 16.94 33.7424 16.9553C33.5443 16.9553 33.3461 17.6564 33.4528 17.9459C33.7272 18.6775 33.8643 18.708 37.9033 18.708C39.9762 18.708 41.6832 18.7385 41.6832 18.769C41.6832 18.9976 40.9364 19.8511 40.4944 20.1712C39.9762 20.5218 39.8542 20.537 36.1353 20.6284C32.0201 20.7199 32.1268 20.7047 29.6729 21.7411C29.1395 21.9697 28.4231 22.2136 28.0726 22.2898C27.1124 22.5031 25.1157 22.3507 24.0793 21.9849ZM10.8345 13.5716C11.3527 9.34976 11.7947 5.88995 11.7947 5.8747C11.8099 5.84422 13.8066 5.82898 16.2452 5.82898C19.7355 5.82898 20.6652 5.8747 20.6043 6.02712C20.5738 6.11857 19.5221 9.53266 18.2876 13.6021C17.053 17.6716 16.0166 21.04 15.9708 21.1162C15.9404 21.1771 14.5534 21.2229 12.9073 21.2229L9.8895 21.2229L10.8345 13.5716Z" fill="#0B2D1F"/>
<path d="M10.8345 13.5716C11.3527 9.34976 11.7947 5.88995 11.7947 5.8747C11.8099 5.84422 13.8066 5.82898 16.2452 5.82898C19.7355 5.82898 20.6652 5.8747 20.6043 6.02712C20.5738 6.11857 19.5221 9.53266 18.2876 13.6021C17.053 17.6716 16.0166 21.04 15.9708 21.1162C15.9404 21.1771 14.5534 21.2229 12.9073 21.2229L9.8895 21.2229L10.8345 13.5716Z" fill="#22885E"/>
<mask id="path-3-inside-1_6295_46494" fill="white">
<path d="M35.9974 24C29.3721 24 24 29.3721 24 35.9974C24 42.6228 29.3721 47.9948 35.9974 47.9948C42.6228 47.9948 47.9948 42.6228 47.9948 35.9974C47.9948 29.3721 42.6228 24 35.9974 24ZM36.5946 41.814L36.6 42.6629C36.6 42.7808 36.5035 42.8798 36.3857 42.8798H35.6252C35.5073 42.8798 35.4109 42.7834 35.4109 42.6656V41.8247C33.0329 41.648 31.9135 40.2929 31.793 38.82C31.7822 38.6941 31.8813 38.587 32.0072 38.587H33.2444C33.3489 38.587 33.4399 38.662 33.456 38.7638C33.5926 39.6127 34.254 40.2474 35.4404 40.4054V36.5839L34.7789 36.4152C33.3783 36.0804 32.0447 35.2074 32.0447 33.3971C32.0447 31.4448 33.5283 30.395 35.4243 30.2103V29.3265C35.4243 29.2087 35.5207 29.1123 35.6386 29.1123H36.3911C36.5089 29.1123 36.6053 29.2087 36.6053 29.3265V30.2022C38.4397 30.387 39.8162 31.4582 39.9769 33.1266C39.9903 33.2525 39.8912 33.3623 39.7627 33.3623H38.5602C38.4531 33.3623 38.3621 33.2819 38.3487 33.1775C38.2416 32.3955 37.6149 31.7581 36.5946 31.6189V35.2154L37.2748 35.3734C39.0102 35.8019 40.1911 36.6321 40.1911 38.4906C40.1911 40.5071 38.6915 41.6319 36.5946 41.814ZM33.7104 33.2739C33.7104 33.9541 34.1308 34.4817 35.036 34.8084C35.1619 34.8593 35.2877 34.8994 35.4377 34.9423V31.6216C34.4495 31.7474 33.7104 32.3018 33.7104 33.2739ZM36.8303 36.8945C36.7553 36.8785 36.6803 36.8597 36.5946 36.8356V40.4161C37.7354 40.3143 38.5228 39.6877 38.5228 38.6379C38.5228 37.8158 38.097 37.2802 36.8303 36.8945Z"/>
</mask>
<path d="M35.9974 24C29.3721 24 24 29.3721 24 35.9974C24 42.6228 29.3721 47.9948 35.9974 47.9948C42.6228 47.9948 47.9948 42.6228 47.9948 35.9974C47.9948 29.3721 42.6228 24 35.9974 24ZM36.5946 41.814L36.6 42.6629C36.6 42.7808 36.5035 42.8798 36.3857 42.8798H35.6252C35.5073 42.8798 35.4109 42.7834 35.4109 42.6656V41.8247C33.0329 41.648 31.9135 40.2929 31.793 38.82C31.7822 38.6941 31.8813 38.587 32.0072 38.587H33.2444C33.3489 38.587 33.4399 38.662 33.456 38.7638C33.5926 39.6127 34.254 40.2474 35.4404 40.4054V36.5839L34.7789 36.4152C33.3783 36.0804 32.0447 35.2074 32.0447 33.3971C32.0447 31.4448 33.5283 30.395 35.4243 30.2103V29.3265C35.4243 29.2087 35.5207 29.1123 35.6386 29.1123H36.3911C36.5089 29.1123 36.6053 29.2087 36.6053 29.3265V30.2022C38.4397 30.387 39.8162 31.4582 39.9769 33.1266C39.9903 33.2525 39.8912 33.3623 39.7627 33.3623H38.5602C38.4531 33.3623 38.3621 33.2819 38.3487 33.1775C38.2416 32.3955 37.6149 31.7581 36.5946 31.6189V35.2154L37.2748 35.3734C39.0102 35.8019 40.1911 36.6321 40.1911 38.4906C40.1911 40.5071 38.6915 41.6319 36.5946 41.814ZM33.7104 33.2739C33.7104 33.9541 34.1308 34.4817 35.036 34.8084C35.1619 34.8593 35.2877 34.8994 35.4377 34.9423V31.6216C34.4495 31.7474 33.7104 32.3018 33.7104 33.2739ZM36.8303 36.8945C36.7553 36.8785 36.6803 36.8597 36.5946 36.8356V40.4161C37.7354 40.3143 38.5228 39.6877 38.5228 38.6379C38.5228 37.8158 38.097 37.2802 36.8303 36.8945Z" fill="#22885E" stroke="#0B2D1F" stroke-width="3" mask="url(#path-3-inside-1_6295_46494)"/>
</svg>
