<svg width="72" height="72" viewBox="0 0 72 72" fill="none" xmlns="http://www.w3.org/2000/svg">
<g clip-path="url(#clip0_6295_46390)">
<path d="M33.0322 68H38.9678C41.5924 68 43.7729 66.3445 44.2978 63.841L45.2669 59.6013C45.3476 59.0763 45.4688 58.8745 45.5899 58.7937L50.0315 61.4183C52.212 62.7104 54.877 62.4278 56.694 60.6107L60.7722 56.4921C62.7104 54.5539 62.9931 51.9293 61.5798 49.7893L58.7533 45.3073C58.7533 45.2265 58.7937 45.1861 58.7937 45.3476L63.8814 44.0959C66.3445 43.4902 68.0404 41.3502 68.0404 38.7256V33.2341C68.0404 30.6095 66.3849 28.4694 63.8814 27.8637L58.7937 26.6524C58.7937 26.6524 58.7937 26.6524 58.7533 26.6524L61.5798 22.2107C62.9931 19.9899 62.7104 17.4057 60.7722 15.5079L56.694 11.3489C54.877 9.53186 52.212 9.24921 50.0315 10.5413L45.3476 13.3274C45.3073 13.3274 45.2669 13.3274 45.388 13.2871L44.2978 8.11861C43.7729 5.61514 41.6328 4 38.9678 4H33.0322C30.4076 4 28.2675 5.61514 27.7022 8.11861L26.5716 13.2871C26.612 13.2871 26.612 13.2871 26.612 13.3274L22.0088 10.5413C19.8284 9.24921 17.1634 9.53186 15.3464 11.3489L11.2278 15.5079C9.32997 17.4057 9.0877 20.0303 10.4202 22.2107L13.2871 26.6927C13.2467 26.7331 13.2467 26.7735 13.2063 26.6524L8.11861 27.8637C5.61514 28.4694 4 30.6095 4 33.2341V38.7256C4 41.3502 5.61514 43.4902 8.11861 44.0959L13.2063 45.3476C13.2467 45.3073 13.2467 45.3073 13.2467 45.3073L10.4202 49.7893C9.04732 51.9293 9.32997 54.5539 11.2278 56.4921L15.3464 60.6107C17.1634 62.4278 19.788 62.7104 21.9685 61.4183L26.4505 58.7937C26.5312 58.7937 26.6927 58.8341 26.7735 59.6013L27.7022 63.841C28.2675 66.3445 30.4076 68 33.0322 68ZM33.8398 61.7817C33.4851 61.7817 33.4766 61.7432 33.4013 61.4036C33.3994 61.3952 33.3975 61.3867 33.3956 61.3779L31.6189 53.9886C29.5192 53.5445 27.7022 52.6158 26.2486 51.8082L19.8284 55.7249C19.465 55.8864 19.4246 55.9268 19.142 55.6442L16.1136 52.6965C15.8309 52.4139 15.8713 52.4139 16.0732 52.0505L19.9495 45.711C19.465 44.4593 18.294 42.5615 17.8498 40.3003L10.5817 38.564C10.1779 38.4833 10.1779 38.4833 10.1779 38.0795V33.8801C10.1779 33.4763 10.1779 33.4763 10.5817 33.3956L17.8498 31.6593C18.294 29.4385 19.465 27.5407 19.9495 26.289L16.0732 19.9091C15.8713 19.5457 15.8309 19.5457 16.1136 19.3035L19.142 16.3155C19.4246 16.0328 19.465 16.0732 19.8284 16.2751L26.2486 20.1514C27.7022 19.3438 29.5192 18.4151 31.6189 17.971L33.3956 10.6221C33.4763 10.2183 33.4763 10.2183 33.8398 10.2183H38.1603C38.564 10.2183 38.564 10.2183 38.6448 10.6221L40.4215 17.971C42.4808 18.4151 44.3382 19.3438 45.7918 20.1514L52.212 16.2751C52.5754 16.0732 52.6158 16.0328 52.858 16.3155L55.9268 19.3035C56.1691 19.5457 56.1691 19.5457 55.9672 19.9091L52.0909 26.289C52.535 27.5407 53.7464 29.4385 54.1502 31.6593L61.4587 33.3956C61.4666 33.3973 61.4743 33.3991 61.4819 33.4007C61.8238 33.4765 61.8625 33.4851 61.8625 33.8801V38.0795C61.8625 38.4745 61.8238 38.4831 61.4819 38.5589C61.4743 38.5606 61.4666 38.5623 61.4587 38.564L54.1502 40.3003C53.7464 42.5615 52.535 44.4593 52.0909 45.711L55.9672 52.0505C56.1691 52.4139 56.1691 52.4139 55.9268 52.6965L52.858 55.6442C52.6158 55.9268 52.5754 55.8864 52.212 55.7249L45.7918 51.8082C44.3382 52.6158 42.4808 53.5445 40.4215 53.9886L38.6448 61.3779C38.643 61.3858 38.6413 61.3935 38.6397 61.4011C38.5638 61.7431 38.5553 61.7817 38.1603 61.7817H33.8398ZM36.0202 48.1741C42.6423 48.1741 48.0934 42.6826 48.0934 35.9798C48.0934 29.3577 42.6423 23.9066 36.0202 23.9066C29.277 23.9066 23.8662 29.3173 23.8662 35.9798C23.8662 42.6423 29.277 48.1741 36.0202 48.1741ZM36.0202 41.7943C32.8303 41.7943 30.2057 39.2101 30.2057 35.9798C30.2057 32.8303 32.8303 30.2057 36.0202 30.2057C39.1697 30.2057 41.7539 32.8303 41.7539 35.9798C41.7539 39.1697 39.1697 41.7943 36.0202 41.7943Z" fill="#0D313B"/>
<path fill-rule="evenodd" clip-rule="evenodd" d="M33.8398 61.7817C33.4851 61.7817 33.4766 61.7432 33.4013 61.4036L33.3956 61.3779L31.6189 53.9886C29.5192 53.5445 27.7022 52.6158 26.2486 51.8082L19.8284 55.7249C19.465 55.8864 19.4246 55.9268 19.142 55.6442L16.1136 52.6965C15.8309 52.4139 15.8713 52.4139 16.0732 52.0505L19.9495 45.711C19.465 44.4593 18.294 42.5615 17.8498 40.3003L10.5817 38.564C10.1779 38.4833 10.1779 38.4833 10.1779 38.0795V33.8801C10.1779 33.4763 10.1779 33.4763 10.5817 33.3956L17.8498 31.6593C18.294 29.4385 19.465 27.5407 19.9495 26.289L16.0732 19.9091C15.8713 19.5457 15.8309 19.5457 16.1136 19.3035L19.142 16.3155C19.4246 16.0328 19.465 16.0732 19.8284 16.2751L26.2486 20.1514C27.7022 19.3438 29.5192 18.4151 31.6189 17.971L33.3956 10.6221C33.4763 10.2183 33.4763 10.2183 33.8398 10.2183H38.1603C38.564 10.2183 38.564 10.2183 38.6448 10.6221L40.4215 17.971C42.4808 18.4151 44.3382 19.3438 45.7918 20.1514L52.212 16.2751C52.5754 16.0732 52.6158 16.0328 52.858 16.3155L55.9268 19.3035C56.1691 19.5457 56.1691 19.5457 55.9672 19.9091L52.0909 26.289C52.535 27.5407 53.7464 29.4385 54.1502 31.6593L61.4587 33.3956L61.4819 33.4007C61.8238 33.4765 61.8625 33.4851 61.8625 33.8801V38.0795C61.8625 38.4745 61.8238 38.4831 61.4819 38.5589L61.4587 38.564L54.1502 40.3003C53.7464 42.5615 52.535 44.4593 52.0909 45.711L55.9672 52.0505C56.1691 52.4139 56.1691 52.4139 55.9268 52.6965L52.858 55.6442C52.6158 55.9268 52.5754 55.8864 52.212 55.7249L45.7918 51.8082C44.3382 52.6158 42.4808 53.5445 40.4215 53.9886L38.6448 61.3779L38.6397 61.4011C38.5638 61.7431 38.5553 61.7817 38.1603 61.7817H33.8398ZM48.0934 35.9798C48.0934 42.6826 42.6423 48.1741 36.0202 48.1741C29.277 48.1741 23.8662 42.6423 23.8662 35.9798C23.8662 29.3173 29.277 23.9066 36.0202 23.9066C42.6423 23.9066 48.0934 29.3577 48.0934 35.9798Z" fill="#2894B4"/>
</g>
<defs>
<clipPath id="clip0_6295_46390">
<rect width="72" height="72" fill="white"/>
</clipPath>
</defs>
</svg>
