<svg width="72" height="72" viewBox="0 0 72 72" fill="none" xmlns="http://www.w3.org/2000/svg">
<path d="M28.1521 47.4393C27.7558 47.5002 27.1767 47.6984 26.8718 47.8813C26.3079 48.2166 26.2927 48.2166 25.5001 47.9422C24.8142 47.7136 24.5704 47.6984 23.8693 47.8355C23.412 47.927 22.7719 48.2013 22.4213 48.4147C21.8574 48.7957 21.7659 48.811 21.2325 48.6281C20.3637 48.3385 19.0834 48.3995 18.2756 48.75C16.9801 49.3292 16.0809 50.5333 16.4009 51.2344C16.5686 51.6002 30.1335 60.9127 31.0785 61.3242C32.1911 61.7967 33.5171 62.0558 34.9041 62.0558C36.2149 62.0558 37.236 61.9034 42.5096 60.9127C44.7196 60.5012 45.5731 60.4097 45.878 60.5164C46.1066 60.5926 47.1278 61.1718 48.1337 61.812L49.9474 62.9703L49.3682 64.9212C48.6824 67.177 48.6519 67.4361 49.1091 67.7561C49.3987 67.9695 50.237 68 55.1905 68C60.7689 68 60.9213 67.9848 61.1956 67.6952C61.4395 67.4208 61.6529 66.0034 62.5216 58.9618C63.0856 54.3284 63.5428 50.2894 63.5581 49.9846C63.5581 48.9482 63.5733 48.9482 58.8942 48.9482C56.4098 48.9482 54.5808 49.0091 54.4132 49.1006C54.2455 49.192 54.0017 49.695 53.7883 50.3961C53.6054 51.0362 53.392 51.5849 53.331 51.6154C53.2091 51.7069 52.0203 50.8533 51.2125 50.0913C49.292 48.2775 45.8475 47.363 43.165 47.9422C42.5553 48.0642 41.4884 48.4147 40.8025 48.7043C39.1869 49.4054 38.3182 49.5578 36.032 49.5578H34.1573L32.3435 48.5671C31.3528 48.0184 30.3012 47.5459 30.0116 47.485C28.9904 47.3173 28.8685 47.3173 28.1521 47.4393ZM30.3012 49.5578L30.8194 49.8017L30.4231 50.076C30.0268 50.3199 29.9963 50.3199 29.0819 49.8017C28.2741 49.3444 28.1978 49.2682 28.5179 49.2225C29.0361 49.1311 29.722 49.253 30.3012 49.5578ZM26.6889 50.579C27.7711 51.1582 28.6551 51.6459 28.6551 51.6916C28.6398 51.7374 28.5484 51.8898 28.4265 52.0574C28.2283 52.3165 28.1369 52.286 26.567 51.463C23.7169 49.9389 23.534 49.8169 23.8693 49.695C24.4332 49.4664 24.7533 49.5731 26.6889 50.579ZM47.4783 50.0151C48.5452 50.3809 49.2311 50.8076 50.5723 51.9507C51.1058 52.408 51.8374 52.9262 52.2184 53.1091C52.5842 53.2767 52.8738 53.5054 52.8281 53.6121C52.7976 53.7035 52.2641 55.4258 51.6545 57.4224C51.0448 59.4343 50.5418 61.0804 50.5114 61.1109C50.4961 61.1413 49.6731 60.6384 48.6824 60.0135C46.0304 58.3217 46.3047 58.3521 40.6959 59.3886C36.5502 60.1659 35.8948 60.2421 34.5993 60.1811C33.8067 60.1506 32.8008 59.9982 32.374 59.8611C31.8406 59.6934 29.5239 58.1997 25.1648 55.2124C21.6288 52.789 18.7177 50.7467 18.7024 50.6857C18.6567 50.4571 19.7083 50.1675 20.1961 50.2742C20.8667 50.3961 27.7558 54.1303 27.8473 54.4199C28.1216 55.1667 28.0454 55.1667 33.0446 55.1057C35.6204 55.0752 37.7695 55.06 37.8152 55.0448C38.0134 55.0448 38.2115 54.3436 38.1048 54.0541C37.8305 53.3225 37.6933 53.292 33.6543 53.292C31.5815 53.292 29.8744 53.2615 29.8744 53.231C29.8744 53.0024 30.6212 52.1489 31.0632 51.8288C31.5815 51.4782 31.7034 51.463 35.4223 51.3716C39.5375 51.2801 39.4308 51.2953 41.8847 50.2589C42.4181 50.0303 43.1345 49.7864 43.485 49.7102C44.4453 49.4969 46.4419 49.6493 47.4783 50.0151ZM60.7231 58.4284C60.2049 62.6502 59.7629 66.1101 59.7629 66.1253C59.7477 66.1558 57.7511 66.171 55.3124 66.171C51.8221 66.171 50.8924 66.1253 50.9534 65.9729C50.9838 65.8814 52.0355 62.4673 53.2701 58.3979C54.5046 54.3284 55.541 50.96 55.5868 50.8838C55.6173 50.8229 57.0042 50.7771 58.6503 50.7771H61.6681L60.7231 58.4284Z" fill="#0D313B"/>
<path d="M60.7231 58.4284C60.2049 62.6502 59.7629 66.1101 59.7629 66.1253C59.7477 66.1558 57.7511 66.171 55.3124 66.171C51.8221 66.171 50.8924 66.1253 50.9534 65.9729C50.9838 65.8814 52.0355 62.4673 53.2701 58.3979C54.5046 54.3284 55.541 50.96 55.5868 50.8838C55.6173 50.8229 57.0042 50.7771 58.6503 50.7771H61.6681L60.7231 58.4284Z" fill="#2894B4"/>
<path d="M43.4055 24.5607C43.8018 24.4998 44.381 24.3016 44.6858 24.1187C45.2497 23.7834 45.265 23.7834 46.0575 24.0578C46.7434 24.2864 46.9872 24.3016 47.6884 24.1645C48.1456 24.073 48.7857 23.7987 49.1363 23.5853C49.7002 23.2043 49.7917 23.189 50.3251 23.3719C51.1939 23.6615 52.4742 23.6005 53.282 23.25C54.5775 22.6708 55.4767 21.4667 55.1567 20.7656C54.989 20.3998 41.4241 11.0873 40.4791 10.6758C39.3665 10.2033 38.0405 9.94417 36.6535 9.94417C35.3428 9.94418 34.3216 10.0966 29.048 11.0873C26.838 11.4988 25.9845 11.5903 25.6797 11.4836C25.451 11.4074 24.4299 10.8282 23.4239 10.188L21.6102 9.02969L22.1894 7.07878C22.8752 4.82304 22.9057 4.56394 22.4485 4.24387C22.1589 4.03049 21.3206 4 16.3671 4C10.7887 4 10.6363 4.01525 10.362 4.30483C10.1181 4.57918 9.90474 5.99664 9.03598 13.0382C8.47205 17.6716 8.0148 21.7106 7.99956 22.0154C7.99956 23.0518 7.98432 23.0518 12.6634 23.0518C15.1478 23.0518 16.9768 22.9909 17.1444 22.8994C17.3121 22.808 17.556 22.305 17.7693 21.6039C17.9522 20.9638 18.1656 20.4151 18.2266 20.3846C18.3485 20.2931 19.5374 21.1467 20.3452 21.9087C22.2656 23.7225 25.7101 24.637 28.3926 24.0578C29.0023 23.9358 30.0692 23.5853 30.7551 23.2957C32.3707 22.5946 33.2394 22.4422 35.5257 22.4422L37.4004 22.4422L39.2141 23.4329C40.2048 23.9816 41.2564 24.4541 41.546 24.515C42.5672 24.6827 42.6891 24.6827 43.4055 24.5607ZM41.2564 22.4422L40.7382 22.1983L41.1345 21.924C41.5308 21.6801 41.5613 21.6801 42.4758 22.1983C43.2836 22.6556 43.3598 22.7318 43.0397 22.7775C42.5215 22.8689 41.8356 22.747 41.2564 22.4422ZM44.8687 21.421C43.7865 20.8418 42.9025 20.3541 42.9025 20.3084C42.9178 20.2626 43.0092 20.1102 43.1312 19.9426C43.3293 19.6835 43.4207 19.714 44.9906 20.537C47.8408 22.0611 48.0237 22.1831 47.6884 22.305C47.1244 22.5336 46.8043 22.4269 44.8687 21.421ZM24.0793 21.9849C23.0124 21.6191 22.3265 21.1924 20.9853 20.0493C20.4518 19.592 19.7203 19.0738 19.3392 18.8909C18.9734 18.7233 18.6838 18.4946 18.7296 18.388C18.76 18.2965 19.2935 16.5742 19.9031 14.5776C20.5128 12.5657 21.0158 10.9196 21.0463 10.8891C21.0615 10.8587 21.8845 11.3616 22.8752 11.9865C25.5273 13.6783 25.2529 13.6479 30.8618 12.6114C35.0074 11.8341 35.6628 11.7579 36.9584 11.8189C37.7509 11.8494 38.7568 12.0018 39.1836 12.1389C39.7171 12.3066 42.0338 13.8003 46.3928 16.7876C49.9288 19.211 52.84 21.2533 52.8552 21.3143C52.9009 21.5429 51.8493 21.8325 51.3615 21.7258C50.6909 21.6039 43.8018 17.8697 43.7103 17.5802C43.436 16.8333 43.5122 16.8333 38.513 16.8943C35.9372 16.9248 33.7881 16.94 33.7424 16.9553C33.5443 16.9553 33.3461 17.6564 33.4528 17.9459C33.7272 18.6775 33.8643 18.708 37.9033 18.708C39.9762 18.708 41.6832 18.7385 41.6832 18.769C41.6832 18.9976 40.9364 19.8511 40.4944 20.1712C39.9762 20.5218 39.8542 20.537 36.1353 20.6284C32.0201 20.7199 32.1268 20.7047 29.6729 21.7411C29.1395 21.9697 28.4231 22.2136 28.0726 22.2898C27.1124 22.5031 25.1157 22.3507 24.0793 21.9849ZM10.8345 13.5716C11.3527 9.34976 11.7947 5.88995 11.7947 5.8747C11.8099 5.84422 13.8066 5.82898 16.2452 5.82898C19.7355 5.82898 20.6652 5.8747 20.6043 6.02712C20.5738 6.11857 19.5221 9.53266 18.2876 13.6021C17.053 17.6716 16.0166 21.04 15.9708 21.1162C15.9404 21.1771 14.5534 21.2229 12.9073 21.2229L9.8895 21.2229L10.8345 13.5716Z" fill="#0D313B"/>
<path d="M10.8345 13.5716C11.3527 9.34976 11.7947 5.88995 11.7947 5.8747C11.8099 5.84422 13.8066 5.82898 16.2452 5.82898C19.7355 5.82898 20.6652 5.8747 20.6043 6.02712C20.5738 6.11857 19.5221 9.53266 18.2876 13.6021C17.053 17.6716 16.0166 21.04 15.9708 21.1162C15.9404 21.1771 14.5534 21.2229 12.9073 21.2229L9.8895 21.2229L10.8345 13.5716Z" fill="#2894B4"/>
<mask id="path-3-outside-1_6295_46462" maskUnits="userSpaceOnUse" x="25" y="25.0869" width="22" height="22" fill="black">
<rect fill="white" x="25" y="25.0869" width="22" height="22"/>
<path d="M31.8882 26.0785C31.4252 26.2472 31.0759 26.5612 30.8523 27.0164L30.7267 27.2754L30.7071 31.3957L30.6874 35.5122L30.3578 35.5632C29.9615 35.626 29.3297 35.83 28.9333 36.0301C27.4343 36.7797 26.3434 38.2355 26.0609 39.8719C25.9824 40.3271 25.9785 41.214 26.0569 41.6966C26.414 43.8824 28.2309 45.6914 30.4167 46.0328C30.7581 46.0878 31.6253 46.0917 37.7705 46.0838L44.7359 46.0721L45.0106 45.9386C45.3716 45.7621 45.6817 45.4521 45.8582 45.091L45.9917 44.8163L46.0034 37.5959C46.0074 33.6246 46.0034 30.3323 45.9917 30.2773C45.9642 30.1753 42.1617 26.3257 41.8752 26.1138L41.7222 26H36.9112C32.261 26.0039 32.0923 26.0039 31.8882 26.0785ZM40.9099 28.951C40.9099 30.6266 40.9138 30.7365 40.9844 30.8424C41.0237 30.9013 41.11 30.9876 41.1689 31.0268C41.2748 31.0975 41.3847 31.1014 43.0603 31.1014H44.834L44.8262 37.7803L44.8144 44.4632L44.7281 44.6005C44.681 44.6751 44.5829 44.7732 44.5123 44.8163C44.387 44.8946 44.3047 44.8948 39.5656 44.9065C39.5533 44.9065 39.5409 44.9066 39.5286 44.9066L34.6783 44.9144L34.9922 44.6123C35.7535 43.8706 36.3068 42.87 36.4952 41.885C36.5305 41.7045 36.5658 41.52 36.5776 41.469L36.5933 41.3827H39.7444C42.7621 41.3827 42.8955 41.3788 43.0054 41.3081C43.1859 41.1865 43.2644 41.0374 43.2644 40.7941C43.2644 40.5625 43.1898 40.4095 43.025 40.2918C42.9387 40.229 42.6561 40.2251 39.7562 40.2055L36.5776 40.1858L36.5266 39.8719C36.4285 39.2754 36.1577 38.5455 35.8477 38.0432L35.73 37.851H39.3127C42.7542 37.851 42.8955 37.847 43.0054 37.7764C43.1859 37.6547 43.2644 37.5056 43.2644 37.2623C43.2644 37.019 43.1859 36.8699 43.0054 36.7483C42.8955 36.6776 42.7425 36.6737 38.783 36.6737H34.6744L34.384 36.4657C33.7797 36.0301 32.9164 35.6691 32.2336 35.5632L31.9039 35.5122V31.5723V27.6285L31.9903 27.4912C32.0844 27.3381 32.1982 27.2557 32.3748 27.2126C32.4415 27.1969 34.3879 27.1851 36.7032 27.1812L40.9099 27.1772V28.951ZM43.0289 29.002L43.9511 29.9242H43.0171H42.0871V29.002C42.0871 28.4958 42.091 28.0798 42.0989 28.0798C42.1028 28.0798 42.5227 28.4958 43.0289 29.002ZM31.747 36.7286C32.5318 36.7914 33.4147 37.1917 34.0701 37.7882C34.5959 38.2669 35.0707 39.0596 35.2669 39.7738C35.3454 40.0603 35.3572 40.2015 35.3572 40.7941C35.3572 41.5946 35.2944 41.8968 35.0001 42.5168C34.5841 43.3958 33.917 44.0668 33.0419 44.4867C31.2407 45.3461 29.1178 44.781 27.9405 43.1289C27.7051 42.8032 27.4382 42.2264 27.3244 41.8144C27.246 41.524 27.2342 41.3905 27.2342 40.7941C27.2342 39.9975 27.297 39.6953 27.5834 39.0831C27.815 38.5965 28.0347 38.2826 28.4075 37.9059C29.1021 37.2152 29.9929 36.7954 30.9347 36.7169C31.123 36.7012 31.3192 36.6933 31.3742 36.6973C31.4291 36.7051 31.5978 36.7169 31.747 36.7286Z"/>
<path d="M40.9099 28.951C40.9099 30.6266 40.9138 30.7365 40.9844 30.8424C41.0237 30.9013 41.11 30.9876 41.1689 31.0268C41.2748 31.0975 41.3847 31.1014 43.0603 31.1014H44.834L44.8262 37.7803L44.8144 44.4632L44.7281 44.6005C44.681 44.6751 44.5829 44.7732 44.5123 44.8163C44.387 44.8946 44.3047 44.8948 39.5656 44.9065L39.5286 44.9066L34.6783 44.9144L34.9922 44.6123C35.7535 43.8706 36.3068 42.87 36.4952 41.885C36.5305 41.7045 36.5658 41.52 36.5776 41.469L36.5933 41.3827H39.7444C42.7621 41.3827 42.8955 41.3788 43.0054 41.3081C43.1859 41.1865 43.2644 41.0374 43.2644 40.7941C43.2644 40.5625 43.1898 40.4095 43.025 40.2918C42.9387 40.229 42.6561 40.2251 39.7562 40.2055L36.5776 40.1858L36.5266 39.8719C36.4285 39.2754 36.1577 38.5455 35.8477 38.0432L35.73 37.851H39.3127C42.7542 37.851 42.8955 37.847 43.0054 37.7764C43.1859 37.6547 43.2644 37.5056 43.2644 37.2623C43.2644 37.019 43.1859 36.8699 43.0054 36.7483C42.8955 36.6776 42.7425 36.6737 38.783 36.6737H34.6744L34.384 36.4657C33.7797 36.0301 32.9164 35.6691 32.2336 35.5632L31.9039 35.5122V31.5723V27.6285L31.9903 27.4912C32.0844 27.3381 32.1982 27.2557 32.3748 27.2126C32.4415 27.1969 34.3879 27.1851 36.7032 27.1812L40.9099 27.1772V28.951Z"/>
</mask>
<path d="M31.8882 26.0785C31.4252 26.2472 31.0759 26.5612 30.8523 27.0164L30.7267 27.2754L30.7071 31.3957L30.6874 35.5122L30.3578 35.5632C29.9615 35.626 29.3297 35.83 28.9333 36.0301C27.4343 36.7797 26.3434 38.2355 26.0609 39.8719C25.9824 40.3271 25.9785 41.214 26.0569 41.6966C26.414 43.8824 28.2309 45.6914 30.4167 46.0328C30.7581 46.0878 31.6253 46.0917 37.7705 46.0838L44.7359 46.0721L45.0106 45.9386C45.3716 45.7621 45.6817 45.4521 45.8582 45.091L45.9917 44.8163L46.0034 37.5959C46.0074 33.6246 46.0034 30.3323 45.9917 30.2773C45.9642 30.1753 42.1617 26.3257 41.8752 26.1138L41.7222 26H36.9112C32.261 26.0039 32.0923 26.0039 31.8882 26.0785ZM40.9099 28.951C40.9099 30.6266 40.9138 30.7365 40.9844 30.8424C41.0237 30.9013 41.11 30.9876 41.1689 31.0268C41.2748 31.0975 41.3847 31.1014 43.0603 31.1014H44.834L44.8262 37.7803L44.8144 44.4632L44.7281 44.6005C44.681 44.6751 44.5829 44.7732 44.5123 44.8163C44.387 44.8946 44.3047 44.8948 39.5656 44.9065C39.5533 44.9065 39.5409 44.9066 39.5286 44.9066L34.6783 44.9144L34.9922 44.6123C35.7535 43.8706 36.3068 42.87 36.4952 41.885C36.5305 41.7045 36.5658 41.52 36.5776 41.469L36.5933 41.3827H39.7444C42.7621 41.3827 42.8955 41.3788 43.0054 41.3081C43.1859 41.1865 43.2644 41.0374 43.2644 40.7941C43.2644 40.5625 43.1898 40.4095 43.025 40.2918C42.9387 40.229 42.6561 40.2251 39.7562 40.2055L36.5776 40.1858L36.5266 39.8719C36.4285 39.2754 36.1577 38.5455 35.8477 38.0432L35.73 37.851H39.3127C42.7542 37.851 42.8955 37.847 43.0054 37.7764C43.1859 37.6547 43.2644 37.5056 43.2644 37.2623C43.2644 37.019 43.1859 36.8699 43.0054 36.7483C42.8955 36.6776 42.7425 36.6737 38.783 36.6737H34.6744L34.384 36.4657C33.7797 36.0301 32.9164 35.6691 32.2336 35.5632L31.9039 35.5122V31.5723V27.6285L31.9903 27.4912C32.0844 27.3381 32.1982 27.2557 32.3748 27.2126C32.4415 27.1969 34.3879 27.1851 36.7032 27.1812L40.9099 27.1772V28.951ZM43.0289 29.002L43.9511 29.9242H43.0171H42.0871V29.002C42.0871 28.4958 42.091 28.0798 42.0989 28.0798C42.1028 28.0798 42.5227 28.4958 43.0289 29.002ZM31.747 36.7286C32.5318 36.7914 33.4147 37.1917 34.0701 37.7882C34.5959 38.2669 35.0707 39.0596 35.2669 39.7738C35.3454 40.0603 35.3572 40.2015 35.3572 40.7941C35.3572 41.5946 35.2944 41.8968 35.0001 42.5168C34.5841 43.3958 33.917 44.0668 33.0419 44.4867C31.2407 45.3461 29.1178 44.781 27.9405 43.1289C27.7051 42.8032 27.4382 42.2264 27.3244 41.8144C27.246 41.524 27.2342 41.3905 27.2342 40.7941C27.2342 39.9975 27.297 39.6953 27.5834 39.0831C27.815 38.5965 28.0347 38.2826 28.4075 37.9059C29.1021 37.2152 29.9929 36.7954 30.9347 36.7169C31.123 36.7012 31.3192 36.6933 31.3742 36.6973C31.4291 36.7051 31.5978 36.7169 31.747 36.7286Z" fill="#0D313B"/>
<path d="M40.9099 28.951C40.9099 30.6266 40.9138 30.7365 40.9844 30.8424C41.0237 30.9013 41.11 30.9876 41.1689 31.0268C41.2748 31.0975 41.3847 31.1014 43.0603 31.1014H44.834L44.8262 37.7803L44.8144 44.4632L44.7281 44.6005C44.681 44.6751 44.5829 44.7732 44.5123 44.8163C44.387 44.8946 44.3047 44.8948 39.5656 44.9065L39.5286 44.9066L34.6783 44.9144L34.9922 44.6123C35.7535 43.8706 36.3068 42.87 36.4952 41.885C36.5305 41.7045 36.5658 41.52 36.5776 41.469L36.5933 41.3827H39.7444C42.7621 41.3827 42.8955 41.3788 43.0054 41.3081C43.1859 41.1865 43.2644 41.0374 43.2644 40.7941C43.2644 40.5625 43.1898 40.4095 43.025 40.2918C42.9387 40.229 42.6561 40.2251 39.7562 40.2055L36.5776 40.1858L36.5266 39.8719C36.4285 39.2754 36.1577 38.5455 35.8477 38.0432L35.73 37.851H39.3127C42.7542 37.851 42.8955 37.847 43.0054 37.7764C43.1859 37.6547 43.2644 37.5056 43.2644 37.2623C43.2644 37.019 43.1859 36.8699 43.0054 36.7483C42.8955 36.6776 42.7425 36.6737 38.783 36.6737H34.6744L34.384 36.4657C33.7797 36.0301 32.9164 35.6691 32.2336 35.5632L31.9039 35.5122V31.5723V27.6285L31.9903 27.4912C32.0844 27.3381 32.1982 27.2557 32.3748 27.2126C32.4415 27.1969 34.3879 27.1851 36.7032 27.1812L40.9099 27.1772V28.951Z" fill="#2894B4"/>
<path d="M40.9844 30.8424L40.9189 30.8861L40.9844 30.8424ZM41.1689 31.0268L41.1252 31.0924L41.1252 31.0924L41.1689 31.0268ZM44.834 31.1014V31.0227H44.9129L44.9128 31.1015L44.834 31.1014ZM44.8262 37.7803L44.9049 37.7804L44.9049 37.7805L44.8262 37.7803ZM44.8144 44.4632L44.8932 44.4633L44.8931 44.4859L44.8811 44.5051L44.8144 44.4632ZM44.7281 44.6005L44.7947 44.6424L44.7947 44.6426L44.7281 44.6005ZM44.5123 44.8163L44.4705 44.7496L44.4712 44.7491L44.5123 44.8163ZM34.6783 44.9144L34.6784 44.9932L34.4826 44.9935L34.6237 44.8577L34.6783 44.9144ZM34.9922 44.6123L35.0472 44.6687L35.0468 44.669L34.9922 44.6123ZM36.4952 41.885L36.4179 41.8702L36.4179 41.8699L36.4952 41.885ZM36.5776 41.469L36.6552 41.4831L36.6543 41.4867L36.5776 41.469ZM36.5933 41.3827L36.5158 41.3686L36.5276 41.304H36.5933V41.3827ZM43.0054 41.3081L43.0494 41.3735L43.048 41.3744L43.0054 41.3081ZM43.025 40.2918L42.9792 40.3559L42.9787 40.3555L43.025 40.2918ZM39.7562 40.2055L39.7567 40.1267L39.7567 40.1267L39.7562 40.2055ZM36.5776 40.1858L36.5771 40.2646L36.5106 40.2642L36.4999 40.1985L36.5776 40.1858ZM36.5266 39.8719L36.6043 39.8591L36.6043 39.8593L36.5266 39.8719ZM35.8477 38.0432L35.7807 38.0846L35.7806 38.0844L35.8477 38.0432ZM35.73 37.851L35.6628 37.8921L35.5895 37.7722H35.73V37.851ZM43.0054 37.7764L43.0494 37.8417L43.048 37.8426L43.0054 37.7764ZM43.0054 36.7483L43.048 36.682L43.0494 36.683L43.0054 36.7483ZM34.6744 36.6737V36.7524H34.6491L34.6285 36.7377L34.6744 36.6737ZM34.384 36.4657L34.3382 36.5297L34.338 36.5296L34.384 36.4657ZM32.2336 35.5632L32.2456 35.4854L32.2456 35.4854L32.2336 35.5632ZM31.9039 35.5122L31.8919 35.59L31.8252 35.5797V35.5122H31.9039ZM31.9039 27.6285H31.8252V27.6058L31.8373 27.5866L31.9039 27.6285ZM31.9903 27.4912L32.0573 27.5324L32.0569 27.5331L31.9903 27.4912ZM32.3748 27.2126L32.3561 27.1361L32.3568 27.1359L32.3748 27.2126ZM36.7032 27.1812L36.703 27.1024L36.7031 27.1024L36.7032 27.1812ZM40.9099 27.1772L40.9098 27.0985L40.9886 27.0984V27.1772H40.9099ZM40.9886 28.951C40.9886 29.7897 40.9896 30.234 40.9993 30.4822C41.0092 30.7331 41.0282 30.7661 41.0499 30.7987L40.9189 30.8861C40.87 30.8127 40.8518 30.7379 40.842 30.4884C40.8321 30.2363 40.8311 29.7879 40.8311 28.951H40.9886ZM41.0499 30.7987C41.0834 30.8489 41.1623 30.9279 41.2125 30.9613L41.1252 31.0924C41.0577 31.0474 40.9639 30.9536 40.9189 30.8861L41.0499 30.7987ZM41.2125 30.9613C41.2451 30.9831 41.2782 31.0021 41.5291 31.0119C41.7773 31.0217 42.2216 31.0227 43.0603 31.0227V31.1801C42.2234 31.1801 41.775 31.1792 41.5229 31.1693C41.2734 31.1595 41.1986 31.1413 41.1252 31.0924L41.2125 30.9613ZM43.0603 31.0227H44.834V31.1801H43.0603V31.0227ZM44.9128 31.1015L44.9049 37.7804L44.7474 37.7802L44.7553 31.1013L44.9128 31.1015ZM44.9049 37.7805L44.8932 44.4633L44.7357 44.463L44.7474 37.7802L44.9049 37.7805ZM44.8811 44.5051L44.7947 44.6424L44.6614 44.5586L44.7477 44.4213L44.8811 44.5051ZM44.7947 44.6426C44.7415 44.7267 44.6349 44.8336 44.5533 44.8835L44.4712 44.7491C44.5308 44.7127 44.6204 44.6235 44.6615 44.5585L44.7947 44.6426ZM39.5287 44.9853L34.6784 44.9932L34.6782 44.8357L39.5284 44.8279L39.5287 44.9853ZM34.6237 44.8577L34.9376 44.5555L35.0468 44.669L34.7329 44.9712L34.6237 44.8577ZM34.9373 44.5559C35.6879 43.8247 36.2327 42.8382 36.4179 41.8702L36.5725 41.8998C36.3809 42.9017 35.8192 43.9166 35.0472 44.6687L34.9373 44.5559ZM36.4179 41.8699C36.4529 41.691 36.4887 41.5041 36.5009 41.4513L36.6543 41.4867C36.643 41.536 36.6081 41.718 36.5725 41.9001L36.4179 41.8699ZM36.5001 41.4549L36.5158 41.3686L36.6708 41.3968L36.6551 41.4831L36.5001 41.4549ZM36.5933 41.304H39.7444V41.4614H36.5933V41.304ZM39.7444 41.304C41.2538 41.304 42.0404 41.303 42.4635 41.2932C42.6758 41.2883 42.793 41.2812 42.8632 41.2716C42.9296 41.2625 42.947 41.252 42.9628 41.2419L43.048 41.3744C43.0088 41.3995 42.9683 41.4161 42.8846 41.4276C42.8045 41.4386 42.6792 41.4457 42.4671 41.4506C42.0417 41.4605 41.2527 41.4614 39.7444 41.4614V41.304ZM42.9614 41.2428C43.0433 41.1876 43.0976 41.1293 43.1324 41.061C43.1674 40.9923 43.1856 40.9074 43.1856 40.7941H43.3431C43.3431 40.9241 43.3221 41.0354 43.2727 41.1324C43.2231 41.2299 43.1479 41.307 43.0494 41.3734L42.9614 41.2428ZM43.1856 40.7941C43.1856 40.6867 43.1683 40.6029 43.1355 40.5343C43.1029 40.4662 43.0526 40.4083 42.9792 40.3559L43.0708 40.2277C43.1622 40.293 43.2316 40.3705 43.2775 40.4662C43.3231 40.5615 43.3431 40.6699 43.3431 40.7941H43.1856ZM42.9787 40.3555C42.9749 40.3527 42.9591 40.3421 42.8768 40.3328C42.7966 40.3237 42.6657 40.3168 42.4437 40.3111C42.0007 40.2999 41.2061 40.294 39.7556 40.2842L39.7567 40.1267C41.2062 40.1365 42.0028 40.1424 42.4477 40.1537C42.6696 40.1594 42.8068 40.1664 42.8945 40.1763C42.9801 40.186 43.0319 40.1995 43.0713 40.2281L42.9787 40.3555ZM39.7557 40.2842L36.5771 40.2646L36.5781 40.1071L39.7567 40.1267L39.7557 40.2842ZM36.4999 40.1985L36.4489 39.8845L36.6043 39.8593L36.6553 40.1732L36.4999 40.1985ZM36.4489 39.8847C36.3524 39.2981 36.0852 38.5779 35.7807 38.0846L35.9147 38.0019C36.2303 38.5131 36.5046 39.2528 36.6043 39.8591L36.4489 39.8847ZM35.7806 38.0844L35.6628 37.8921L35.7971 37.8098L35.9149 38.0021L35.7806 38.0844ZM35.73 37.7722H39.3127V37.9297H35.73V37.7722ZM39.3127 37.7722C41.034 37.7722 41.9286 37.7712 42.4068 37.7614C42.6466 37.7565 42.7783 37.7494 42.8562 37.7397C42.9308 37.7304 42.948 37.7197 42.9628 37.7102L43.048 37.8426C43.0078 37.8685 42.9661 37.8847 42.8758 37.896C42.7887 37.9068 42.6494 37.914 42.41 37.9189C41.9298 37.9287 41.033 37.9297 39.3127 37.9297V37.7722ZM42.9614 37.7111C43.0433 37.6559 43.0976 37.5976 43.1324 37.5293C43.1674 37.4606 43.1856 37.3756 43.1856 37.2623H43.3431C43.3431 37.3924 43.3221 37.5036 43.2727 37.6007C43.2231 37.6982 43.1479 37.7753 43.0494 37.8417L42.9614 37.7111ZM43.1856 37.2623C43.1856 37.1491 43.1674 37.0641 43.1324 36.9954C43.0976 36.9271 43.0433 36.8688 42.9614 36.8136L43.0494 36.683C43.1479 36.7494 43.2231 36.8265 43.2727 36.924C43.3221 37.021 43.3431 37.1323 43.3431 37.2623H43.1856ZM42.9628 36.8145C42.9492 36.8057 42.9321 36.7946 42.8473 36.7851C42.7598 36.7752 42.6101 36.7681 42.3364 36.7632C41.7903 36.7534 40.7632 36.7524 38.783 36.7524V36.595C40.7623 36.595 41.7914 36.5959 42.3392 36.6058C42.6124 36.6107 42.769 36.6178 42.8649 36.6286C42.9633 36.6396 43.0066 36.6555 43.048 36.682L42.9628 36.8145ZM38.783 36.7524H34.6744V36.595H38.783V36.7524ZM34.6285 36.7377L34.3382 36.5297L34.4298 36.4017L34.7202 36.6097L34.6285 36.7377ZM34.338 36.5296C33.743 36.1008 32.8912 35.7449 32.2215 35.641L32.2456 35.4854C32.9415 35.5933 33.8163 35.9595 34.43 36.4019L34.338 36.5296ZM32.2215 35.641L31.8919 35.59L31.916 35.4343L32.2456 35.4854L32.2215 35.641ZM31.8252 35.5122V31.5723H31.9827V35.5122H31.8252ZM31.8252 31.5723V27.6285H31.9827V31.5723H31.8252ZM31.8373 27.5866L31.9236 27.4493L32.0569 27.5331L31.9706 27.6704L31.8373 27.5866ZM31.9232 27.4499C32.0284 27.279 32.1597 27.1841 32.3561 27.1361L32.3935 27.2891C32.2368 27.3274 32.1405 27.3973 32.0573 27.5324L31.9232 27.4499ZM32.3568 27.1359C32.3653 27.1339 32.3747 27.1331 32.3799 27.1326C32.3869 27.1321 32.3953 27.1315 32.405 27.131C32.4243 27.13 32.4505 27.1291 32.4828 27.1282C32.5474 27.1263 32.6384 27.1245 32.7525 27.1229C32.9809 27.1195 33.303 27.1164 33.6953 27.1137C34.4798 27.1083 35.5453 27.1044 36.703 27.1024L36.7033 27.2599C35.5458 27.2619 34.4805 27.2658 33.6963 27.2712C33.3042 27.2739 32.9826 27.277 32.7549 27.2803C32.641 27.282 32.5508 27.2838 32.4873 27.2856C32.4554 27.2865 32.4306 27.2874 32.413 27.2883C32.4042 27.2888 32.3977 27.2892 32.3932 27.2896C32.3869 27.2901 32.3885 27.2902 32.3929 27.2892L32.3568 27.1359ZM36.7031 27.1024L40.9098 27.0985L40.9099 27.256L36.7033 27.2599L36.7031 27.1024ZM40.9886 27.1772V28.951H40.8311V27.1772H40.9886ZM44.554 44.8831C44.5356 44.8946 44.5143 44.9069 44.4821 44.9172C44.4516 44.927 44.4139 44.9342 44.3618 44.9401C44.2581 44.9517 44.0844 44.9595 43.7705 44.9651C43.1411 44.9764 41.9349 44.9794 39.5658 44.9852L39.5654 44.8278C41.9354 44.8219 43.1399 44.8189 43.7677 44.8077C44.0824 44.802 44.249 44.7943 44.3441 44.7836C44.3914 44.7782 44.4176 44.7725 44.4341 44.7672C44.4489 44.7625 44.4576 44.7576 44.4705 44.7496L44.554 44.8831ZM31.8882 26.0785L31.9423 26.2264L31.9422 26.2264L31.8882 26.0785ZM30.8523 27.0164L30.7106 26.9477L30.7109 26.9469L30.8523 27.0164ZM30.7267 27.2754L30.5692 27.2746L30.5694 27.2388L30.585 27.2066L30.7267 27.2754ZM30.7071 31.3957L30.8645 31.3965L30.8645 31.3965L30.7071 31.3957ZM30.6874 35.5122L30.8449 35.5129L30.8443 35.6472L30.7115 35.6678L30.6874 35.5122ZM30.3578 35.5632L30.3332 35.4076L30.3337 35.4075L30.3578 35.5632ZM28.9333 36.0301L29.0043 36.1707L29.0038 36.171L28.9333 36.0301ZM26.0609 39.8719L25.9057 39.8451L25.9057 39.8451L26.0609 39.8719ZM26.0569 41.6966L25.9015 41.722L25.9015 41.7219L26.0569 41.6966ZM30.4167 46.0328L30.441 45.8772L30.4417 45.8773L30.4167 46.0328ZM37.7705 46.0838L37.7708 46.2413L37.7707 46.2413L37.7705 46.0838ZM44.7359 46.0721L44.8047 46.2137L44.7723 46.2295L44.7362 46.2295L44.7359 46.0721ZM45.0106 45.9386L45.0798 46.0801L45.0794 46.0803L45.0106 45.9386ZM45.8582 45.091L45.9999 45.1598L45.9997 45.1602L45.8582 45.091ZM45.9917 44.8163L46.1491 44.8166L46.1491 44.8527L46.1333 44.8851L45.9917 44.8163ZM46.0034 37.5959L46.1609 37.596L46.1609 37.5961L46.0034 37.5959ZM45.9917 30.2773L46.1439 30.2363L46.1456 30.2443L45.9917 30.2773ZM41.8752 26.1138L41.7816 26.2404L41.7812 26.2402L41.8752 26.1138ZM41.7222 26V25.8425H41.7743L41.8161 25.8736L41.7222 26ZM36.9112 26L36.911 25.8425H36.9112V26ZM43.0289 29.002L42.9176 29.1133L42.9176 29.1133L43.0289 29.002ZM43.9511 29.9242L44.0625 29.8128L44.3313 30.0816H43.9511V29.9242ZM42.0871 29.9242V30.0816H41.9296V29.9242H42.0871ZM31.747 36.7286L31.7594 36.5717L31.7595 36.5717L31.747 36.7286ZM34.0701 37.7882L34.1761 37.6717L34.1761 37.6717L34.0701 37.7882ZM35.2669 39.7738L35.4188 39.7321L35.4188 39.7322L35.2669 39.7738ZM35.0001 42.5168L34.8577 42.4494L34.8578 42.4492L35.0001 42.5168ZM33.0419 44.4867L33.1101 44.6287L33.1098 44.6288L33.0419 44.4867ZM27.9405 43.1289L28.0682 43.0367L28.0688 43.0376L27.9405 43.1289ZM27.3244 41.8144L27.1726 41.8563L27.1724 41.8554L27.3244 41.8144ZM27.5834 39.0831L27.4408 39.0164L27.4412 39.0155L27.5834 39.0831ZM28.4075 37.9059L28.2956 37.7951L28.2965 37.7942L28.4075 37.9059ZM30.9347 36.7169L30.9216 36.5599L30.9347 36.7169ZM31.3742 36.6973L31.3854 36.5398L31.3964 36.5414L31.3742 36.6973ZM31.9422 26.2264C31.5179 26.381 31.1997 26.6664 30.9936 27.0858L30.7109 26.9469C30.9522 26.4559 31.3324 26.1134 31.8343 25.9305L31.9422 26.2264ZM30.994 27.0851L30.8684 27.3441L30.585 27.2066L30.7106 26.9477L30.994 27.0851ZM30.8842 27.2761L30.8645 31.3965L30.5496 31.395L30.5692 27.2746L30.8842 27.2761ZM30.8645 31.3965L30.8449 35.5129L30.53 35.5114L30.5496 31.395L30.8645 31.3965ZM30.7115 35.6678L30.3819 35.7188L30.3337 35.4075L30.6634 35.3565L30.7115 35.6678ZM30.3825 35.7187C30.0029 35.7788 29.3867 35.9777 29.0043 36.1707L28.8624 35.8896C29.2727 35.6824 29.9201 35.4731 30.3332 35.4076L30.3825 35.7187ZM29.0038 36.171C27.5488 36.8985 26.4899 38.3124 26.216 39.8987L25.9057 39.8451C26.1969 38.1586 27.3198 36.6608 28.8629 35.8893L29.0038 36.171ZM26.2161 39.8987C26.1406 40.3363 26.1366 41.2055 26.2124 41.6714L25.9015 41.7219C25.8203 41.2224 25.8242 40.3179 25.9057 39.8451L26.2161 39.8987ZM26.2124 41.6712C26.5585 43.7901 28.3227 45.5464 30.441 45.8772L30.3924 46.1884C28.1391 45.8365 26.2695 43.9747 25.9015 41.722L26.2124 41.6712ZM30.4417 45.8773C30.5976 45.9024 30.8854 45.9175 31.9182 45.9244C32.9451 45.9313 34.6974 45.9303 37.7703 45.9264L37.7707 46.2413C34.6984 46.2452 32.9445 46.2462 31.9161 46.2394C30.8936 46.2325 30.5771 46.2182 30.3917 46.1883L30.4417 45.8773ZM37.7703 45.9264L44.7357 45.9146L44.7362 46.2295L37.7708 46.2413L37.7703 45.9264ZM44.6671 45.9304L44.9418 45.797L45.0794 46.0803L44.8047 46.2137L44.6671 45.9304ZM44.9414 45.7972C45.271 45.636 45.5556 45.3514 45.7168 45.0218L45.9997 45.1602C45.8077 45.5527 45.4723 45.8881 45.0798 46.0801L44.9414 45.7972ZM45.7166 45.0222L45.85 44.7475L46.1333 44.8851L45.9999 45.1598L45.7166 45.0222ZM45.8342 44.8161L45.846 37.5956L46.1609 37.5961L46.1491 44.8166L45.8342 44.8161ZM45.8459 37.5957C45.8479 35.6102 45.8479 33.7944 45.846 32.4682C45.845 31.8051 45.8435 31.2645 45.8415 30.8864C45.8406 30.6973 45.8395 30.5491 45.8382 30.4466C45.8376 30.3952 45.837 30.3559 45.8363 30.3287C45.836 30.3151 45.8357 30.3052 45.8354 30.2989C45.8348 30.2847 45.8346 30.296 45.8377 30.3103L46.1456 30.2443C46.1495 30.2621 46.15 30.2831 46.1501 30.2849C46.1505 30.2945 46.1509 30.3067 46.1512 30.3212C46.1519 30.3502 46.1526 30.3911 46.1532 30.4428C46.1544 30.5464 46.1555 30.6954 46.1565 30.8848C46.1585 31.2635 46.1599 31.8045 46.1609 32.4678C46.1629 33.7943 46.1629 35.6103 46.1609 37.596L45.8459 37.5957ZM45.8396 30.3183C45.844 30.3346 45.8501 30.3459 45.8516 30.3488C45.8539 30.3531 45.8558 30.356 45.8563 30.3567C45.8572 30.3581 45.8568 30.3574 45.854 30.3538C45.8486 30.3468 45.8392 30.3356 45.8252 30.3194C45.7975 30.2875 45.7565 30.2423 45.7032 30.185C45.5971 30.0706 45.446 29.9119 45.2638 29.7228C44.8996 29.3449 44.4132 28.848 43.9185 28.3475C43.4239 27.8469 42.9213 27.3432 42.5247 26.9514C42.3264 26.7555 42.1549 26.5881 42.0244 26.4632C41.8895 26.3342 41.8074 26.2595 41.7816 26.2404L41.9689 25.9872C42.0147 26.0211 42.114 26.113 42.2421 26.2356C42.3744 26.3621 42.5472 26.531 42.7461 26.7274C43.1439 27.1202 43.6474 27.625 44.1426 28.1261C44.6378 28.6272 45.1251 29.1251 45.4906 29.5043C45.6732 29.6938 45.8259 29.8542 45.9341 29.9707C45.988 30.0288 46.0318 30.077 46.0629 30.1128C46.0783 30.1305 46.0919 30.1467 46.1025 30.1602C46.1077 30.1669 46.1136 30.1748 46.119 30.183C46.1207 30.1855 46.1359 30.2073 46.1437 30.2364L45.8396 30.3183ZM41.7812 26.2402L41.6282 26.1264L41.8161 25.8736L41.9692 25.9874L41.7812 26.2402ZM41.7222 26.1575H36.9112V25.8425H41.7222V26.1575ZM36.9113 26.1575C34.5854 26.1594 33.3823 26.1604 32.7348 26.1702C32.0783 26.1801 32.0143 26.2001 31.9423 26.2264L31.8342 25.9306C31.9662 25.8823 32.0886 25.865 32.73 25.8553C33.3805 25.8455 34.5868 25.8445 36.911 25.8425L36.9113 26.1575ZM43.1403 28.8906L44.0625 29.8128L43.8397 30.0355L42.9176 29.1133L43.1403 28.8906ZM43.9511 30.0816H43.0171V29.7667H43.9511V30.0816ZM43.0171 30.0816H42.0871V29.7667H43.0171V30.0816ZM41.9296 29.9242V29.002H42.2446V29.9242H41.9296ZM41.9296 29.002C41.9296 28.7486 41.9306 28.5174 41.9326 28.3492C41.9336 28.2653 41.9348 28.1963 41.9363 28.1478C41.9371 28.1239 41.938 28.1032 41.939 28.0878C41.9395 28.0807 41.9403 28.0712 41.9416 28.062C41.9421 28.0585 41.9436 28.0482 41.9472 28.0363C41.9486 28.0315 41.9531 28.0164 41.9634 27.9993C41.9665 27.994 42.0073 27.9223 42.0989 27.9223V28.2373C42.1902 28.2373 42.2308 28.1658 42.2337 28.1609C42.2437 28.1442 42.248 28.1297 42.2492 28.1257C42.2522 28.1154 42.2533 28.1075 42.2533 28.1072C42.2537 28.1044 42.2536 28.1043 42.2532 28.1096C42.2526 28.1189 42.2519 28.1347 42.2511 28.1576C42.2497 28.203 42.2485 28.2695 42.2475 28.3529C42.2456 28.5193 42.2446 28.7492 42.2446 29.002H41.9296ZM42.0989 27.9223C42.1342 27.9223 42.1599 27.9346 42.1639 27.9364C42.1727 27.9403 42.1793 27.9443 42.1823 27.9462C42.1888 27.9502 42.1935 27.9538 42.1952 27.9552C42.1993 27.9583 42.2025 27.961 42.2037 27.9621C42.2066 27.9646 42.2095 27.9673 42.2116 27.9692C42.2161 27.9733 42.2218 27.9789 42.2284 27.9852C42.2418 27.9981 42.2609 28.0167 42.285 28.0403C42.3331 28.0875 42.402 28.1555 42.4864 28.2392C42.6554 28.4067 42.887 28.6374 43.1403 28.8906L42.9176 29.1133C42.6646 28.8604 42.4332 28.63 42.2647 28.4629C42.1804 28.3793 42.1119 28.3118 42.0644 28.2651C42.0406 28.2418 42.0223 28.224 42.01 28.2121C42.0038 28.2061 41.9996 28.2022 41.9973 28.2C41.9959 28.1987 41.9961 28.199 41.9973 28.2C41.9975 28.2002 42 28.2024 42.0035 28.2051C42.005 28.2062 42.0095 28.2096 42.0158 28.2136C42.0188 28.2154 42.0253 28.2193 42.034 28.2233C42.0379 28.2251 42.0636 28.2373 42.0989 28.2373V27.9223ZM31.7595 36.5717C32.583 36.6375 33.498 37.0545 34.1761 37.6717L33.9641 37.9046C33.3315 37.3289 32.4806 36.9453 31.7344 36.8856L31.7595 36.5717ZM34.1761 37.6717C34.7253 38.1718 35.2152 38.991 35.4188 39.7321L35.1151 39.8155C34.9263 39.1282 34.4665 38.3621 33.964 37.9046L34.1761 37.6717ZM35.4188 39.7322C35.5032 40.04 35.5147 40.1989 35.5147 40.7941H35.1997C35.1997 40.2042 35.1877 40.0805 35.1151 39.8154L35.4188 39.7322ZM35.5147 40.7941C35.5147 41.1971 35.4991 41.4858 35.4432 41.7551C35.3871 42.0259 35.2918 42.2694 35.1424 42.5843L34.8578 42.4492C35.0027 42.1442 35.086 41.9265 35.1348 41.6911C35.1839 41.4542 35.1997 41.1916 35.1997 40.7941H35.5147ZM35.1424 42.5841C34.7111 43.4957 34.0178 44.1932 33.1101 44.6287L32.9738 44.3447C33.8163 43.9405 34.4572 43.2958 34.8577 42.4494L35.1424 42.5841ZM33.1098 44.6288C31.2379 45.522 29.0328 44.9331 27.8123 43.2203L28.0688 43.0376C29.2028 44.6289 31.2436 45.1702 32.9741 44.3446L33.1098 44.6288ZM27.8129 43.2212C27.5651 42.8785 27.2908 42.2841 27.1726 41.8563L27.4762 41.7724C27.5857 42.1687 27.845 42.728 28.0682 43.0367L27.8129 43.2212ZM27.1724 41.8554C27.0883 41.5442 27.0767 41.3936 27.0767 40.7941H27.3917C27.3917 41.3875 27.4036 41.5037 27.4765 41.7733L27.1724 41.8554ZM27.0767 40.7941C27.0767 40.393 27.0923 40.1055 27.1471 39.8379C27.2022 39.5688 27.2953 39.3274 27.4408 39.0164L27.7261 39.1499C27.5851 39.451 27.5036 39.6668 27.4557 39.901C27.4074 40.1367 27.3917 40.3986 27.3917 40.7941H27.0767ZM27.4412 39.0155C27.6802 38.5132 27.9101 38.1846 28.2956 37.7951L28.5194 38.0167C28.1593 38.3806 27.9497 38.6799 27.7256 39.1508L27.4412 39.0155ZM28.2965 37.7942C29.0162 37.0785 29.9413 36.6416 30.9216 36.5599L30.9477 36.8738C30.0445 36.9491 29.188 37.3519 28.5185 38.0176L28.2965 37.7942ZM30.9216 36.5599C31.1083 36.5444 31.3164 36.5352 31.3854 36.5402L31.363 36.8543C31.322 36.8514 31.1377 36.858 30.9477 36.8738L30.9216 36.5599ZM31.3964 36.5414C31.4448 36.5483 31.6039 36.5594 31.7594 36.5717L31.7346 36.8856C31.5917 36.8744 31.4134 36.8619 31.3519 36.8532L31.3964 36.5414ZM39.566 45.064L39.529 45.0641L39.5282 44.7491L39.5652 44.749L39.566 45.064ZM39.566 45.064C39.5537 45.064 39.5413 45.064 39.529 45.0641L39.5282 44.7491C39.5406 44.7491 39.5529 44.7491 39.5652 44.749L39.566 45.064Z" fill="#0D313B" mask="url(#path-3-outside-1_6295_46462)"/>
<mask id="path-5-outside-2_6295_46462" maskUnits="userSpaceOnUse" x="32.4541" y="32.3188" width="11" height="3" fill="black">
<rect fill="white" x="32.4541" y="32.3188" width="11" height="3"/>
<path d="M33.7131 33.2162C33.5326 33.3378 33.4541 33.4869 33.4541 33.7302C33.4541 33.9735 33.5326 34.1226 33.7131 34.2443C33.823 34.3149 33.9839 34.3188 38.3593 34.3188C42.7347 34.3188 42.8956 34.3149 43.0055 34.2443C43.186 34.1226 43.2645 33.9735 43.2645 33.7302C43.2645 33.4869 43.186 33.3378 43.0055 33.2162C42.8956 33.1455 42.7347 33.1416 38.3593 33.1416C33.9839 33.1416 33.823 33.1455 33.7131 33.2162Z"/>
</mask>
<path d="M33.7131 33.2162C33.5326 33.3378 33.4541 33.4869 33.4541 33.7302C33.4541 33.9735 33.5326 34.1226 33.7131 34.2443C33.823 34.3149 33.9839 34.3188 38.3593 34.3188C42.7347 34.3188 42.8956 34.3149 43.0055 34.2443C43.186 34.1226 43.2645 33.9735 43.2645 33.7302C43.2645 33.4869 43.186 33.3378 43.0055 33.2162C42.8956 33.1455 42.7347 33.1416 38.3593 33.1416C33.9839 33.1416 33.823 33.1455 33.7131 33.2162Z" fill="#0D313B"/>
<path d="M33.7131 33.2162C33.5326 33.3378 33.4541 33.4869 33.4541 33.7302C33.4541 33.9735 33.5326 34.1226 33.7131 34.2443C33.823 34.3149 33.9839 34.3188 38.3593 34.3188C42.7347 34.3188 42.8956 34.3149 43.0055 34.2443C43.186 34.1226 43.2645 33.9735 43.2645 33.7302C43.2645 33.4869 43.186 33.3378 43.0055 33.2162C42.8956 33.1455 42.7347 33.1416 38.3593 33.1416C33.9839 33.1416 33.823 33.1455 33.7131 33.2162Z" stroke="#0D313B" stroke-width="0.314963" mask="url(#path-5-outside-2_6295_46462)"/>
<mask id="path-6-outside-3_6295_46462" maskUnits="userSpaceOnUse" x="27.7061" y="38.0688" width="7" height="6" fill="black">
<rect fill="white" x="27.7061" y="38.0688" width="7" height="6"/>
<path d="M32.9049 39.2075C32.85 39.2428 32.281 39.7961 31.6413 40.4357L30.4719 41.5973L30.0913 41.2206C29.6008 40.7379 29.5615 40.7144 29.2947 40.7144C28.918 40.7144 28.7061 40.9263 28.7061 41.3069C28.7061 41.4874 28.7257 41.5541 28.8199 41.6797C28.9533 41.8563 30.0128 42.908 30.158 43.0061C30.2169 43.0453 30.3346 43.0688 30.4759 43.0688C30.6564 43.0688 30.7231 43.0492 30.8486 42.955C31.0292 42.8216 33.6505 40.1885 33.7447 40.0472C33.7839 39.9884 33.8075 39.8707 33.8075 39.7333C33.8075 39.49 33.729 39.3409 33.5485 39.2192C33.4033 39.1251 33.0422 39.1172 32.9049 39.2075Z"/>
</mask>
<path d="M32.9049 39.2075C32.85 39.2428 32.281 39.7961 31.6413 40.4357L30.4719 41.5973L30.0913 41.2206C29.6008 40.7379 29.5615 40.7144 29.2947 40.7144C28.918 40.7144 28.7061 40.9263 28.7061 41.3069C28.7061 41.4874 28.7257 41.5541 28.8199 41.6797C28.9533 41.8563 30.0128 42.908 30.158 43.0061C30.2169 43.0453 30.3346 43.0688 30.4759 43.0688C30.6564 43.0688 30.7231 43.0492 30.8486 42.955C31.0292 42.8216 33.6505 40.1885 33.7447 40.0472C33.7839 39.9884 33.8075 39.8707 33.8075 39.7333C33.8075 39.49 33.729 39.3409 33.5485 39.2192C33.4033 39.1251 33.0422 39.1172 32.9049 39.2075Z" fill="#0D313B"/>
<path d="M32.9049 39.2075C32.85 39.2428 32.281 39.7961 31.6413 40.4357L30.4719 41.5973L30.0913 41.2206C29.6008 40.7379 29.5615 40.7144 29.2947 40.7144C28.918 40.7144 28.7061 40.9263 28.7061 41.3069C28.7061 41.4874 28.7257 41.5541 28.8199 41.6797C28.9533 41.8563 30.0128 42.908 30.158 43.0061C30.2169 43.0453 30.3346 43.0688 30.4759 43.0688C30.6564 43.0688 30.7231 43.0492 30.8486 42.955C31.0292 42.8216 33.6505 40.1885 33.7447 40.0472C33.7839 39.9884 33.8075 39.8707 33.8075 39.7333C33.8075 39.49 33.729 39.3409 33.5485 39.2192C33.4033 39.1251 33.0422 39.1172 32.9049 39.2075Z" stroke="#0D313B" stroke-width="0.314963" mask="url(#path-6-outside-3_6295_46462)"/>
</svg>
