<svg width="72" height="72" viewBox="0 0 72 72" fill="none" xmlns="http://www.w3.org/2000/svg">
<path d="M28.1521 47.4393C27.7558 47.5002 27.1767 47.6984 26.8718 47.8813C26.3079 48.2166 26.2927 48.2166 25.5001 47.9422C24.8142 47.7136 24.5704 47.6984 23.8693 47.8355C23.412 47.927 22.7719 48.2013 22.4213 48.4147C21.8574 48.7957 21.7659 48.811 21.2325 48.6281C20.3637 48.3385 19.0834 48.3995 18.2756 48.75C16.9801 49.3292 16.0809 50.5333 16.4009 51.2344C16.5686 51.6002 30.1335 60.9127 31.0785 61.3242C32.1911 61.7967 33.5171 62.0558 34.9041 62.0558C36.2149 62.0558 37.236 61.9034 42.5096 60.9127C44.7196 60.5012 45.5731 60.4097 45.878 60.5164C46.1066 60.5926 47.1278 61.1718 48.1337 61.812L49.9474 62.9703L49.3682 64.9212C48.6824 67.177 48.6519 67.4361 49.1091 67.7561C49.3987 67.9695 50.237 68 55.1905 68C60.7689 68 60.9213 67.9848 61.1956 67.6952C61.4395 67.4208 61.6529 66.0034 62.5216 58.9618C63.0856 54.3284 63.5428 50.2894 63.5581 49.9846C63.5581 48.9482 63.5733 48.9482 58.8942 48.9482C56.4098 48.9482 54.5808 49.0091 54.4132 49.1006C54.2455 49.192 54.0017 49.695 53.7883 50.3961C53.6054 51.0362 53.392 51.5849 53.331 51.6154C53.2091 51.7069 52.0203 50.8533 51.2125 50.0913C49.292 48.2775 45.8475 47.363 43.165 47.9422C42.5553 48.0642 41.4884 48.4147 40.8025 48.7043C39.1869 49.4054 38.3182 49.5578 36.032 49.5578H34.1573L32.3435 48.5671C31.3528 48.0184 30.3012 47.5459 30.0116 47.485C28.9904 47.3173 28.8685 47.3173 28.1521 47.4393ZM30.3012 49.5578L30.8194 49.8017L30.4231 50.076C30.0268 50.3199 29.9963 50.3199 29.0819 49.8017C28.2741 49.3444 28.1978 49.2682 28.5179 49.2225C29.0361 49.1311 29.722 49.253 30.3012 49.5578ZM26.6889 50.579C27.7711 51.1582 28.6551 51.6459 28.6551 51.6916C28.6398 51.7374 28.5484 51.8898 28.4265 52.0574C28.2283 52.3165 28.1369 52.286 26.567 51.463C23.7169 49.9389 23.534 49.8169 23.8693 49.695C24.4332 49.4664 24.7533 49.5731 26.6889 50.579ZM47.4783 50.0151C48.5452 50.3809 49.2311 50.8076 50.5723 51.9507C51.1058 52.408 51.8374 52.9262 52.2184 53.1091C52.5842 53.2767 52.8738 53.5054 52.8281 53.6121C52.7976 53.7035 52.2641 55.4258 51.6545 57.4224C51.0448 59.4343 50.5418 61.0804 50.5114 61.1109C50.4961 61.1413 49.6731 60.6384 48.6824 60.0135C46.0304 58.3217 46.3047 58.3521 40.6959 59.3886C36.5502 60.1659 35.8948 60.2421 34.5993 60.1811C33.8067 60.1506 32.8008 59.9982 32.374 59.8611C31.8406 59.6934 29.5239 58.1997 25.1648 55.2124C21.6288 52.789 18.7177 50.7467 18.7024 50.6857C18.6567 50.4571 19.7083 50.1675 20.1961 50.2742C20.8667 50.3961 27.7558 54.1303 27.8473 54.4199C28.1216 55.1667 28.0454 55.1667 33.0446 55.1057C35.6204 55.0752 37.7695 55.06 37.8152 55.0448C38.0134 55.0448 38.2115 54.3436 38.1048 54.0541C37.8305 53.3225 37.6933 53.292 33.6543 53.292C31.5815 53.292 29.8744 53.2615 29.8744 53.231C29.8744 53.0024 30.6212 52.1489 31.0632 51.8288C31.5815 51.4782 31.7034 51.463 35.4223 51.3716C39.5375 51.2801 39.4308 51.2953 41.8847 50.2589C42.4181 50.0303 43.1345 49.7864 43.485 49.7102C44.4453 49.4969 46.4419 49.6493 47.4783 50.0151ZM60.7231 58.4284C60.2049 62.6502 59.7629 66.1101 59.7629 66.1253C59.7477 66.1558 57.7511 66.171 55.3124 66.171C51.8221 66.171 50.8924 66.1253 50.9534 65.9729C50.9838 65.8814 52.0355 62.4673 53.2701 58.3979C54.5046 54.3284 55.541 50.96 55.5868 50.8838C55.6173 50.8229 57.0042 50.7771 58.6503 50.7771H61.6681L60.7231 58.4284Z" fill="#0D313B"/>
<path d="M60.7231 58.4284C60.2049 62.6502 59.7629 66.1101 59.7629 66.1253C59.7477 66.1558 57.7511 66.171 55.3124 66.171C51.8221 66.171 50.8924 66.1253 50.9534 65.9729C50.9838 65.8814 52.0355 62.4673 53.2701 58.3979C54.5046 54.3284 55.541 50.96 55.5868 50.8838C55.6173 50.8229 57.0042 50.7771 58.6503 50.7771H61.6681L60.7231 58.4284Z" fill="#2894B4"/>
<path d="M43.4055 24.5607C43.8018 24.4998 44.381 24.3016 44.6858 24.1187C45.2497 23.7834 45.265 23.7834 46.0575 24.0578C46.7434 24.2864 46.9872 24.3016 47.6884 24.1645C48.1456 24.073 48.7857 23.7987 49.1363 23.5853C49.7002 23.2043 49.7917 23.189 50.3251 23.3719C51.1939 23.6615 52.4742 23.6005 53.282 23.25C54.5775 22.6708 55.4767 21.4667 55.1567 20.7656C54.989 20.3998 41.4241 11.0873 40.4791 10.6758C39.3665 10.2033 38.0405 9.94417 36.6535 9.94417C35.3428 9.94418 34.3216 10.0966 29.048 11.0873C26.838 11.4988 25.9845 11.5903 25.6797 11.4836C25.451 11.4074 24.4299 10.8282 23.4239 10.188L21.6102 9.02969L22.1894 7.07878C22.8752 4.82304 22.9057 4.56394 22.4485 4.24387C22.1589 4.03049 21.3206 4 16.3671 4C10.7887 4 10.6363 4.01525 10.362 4.30483C10.1181 4.57918 9.90474 5.99664 9.03598 13.0382C8.47205 17.6716 8.0148 21.7106 7.99956 22.0154C7.99956 23.0518 7.98432 23.0518 12.6634 23.0518C15.1478 23.0518 16.9768 22.9909 17.1444 22.8994C17.3121 22.808 17.556 22.305 17.7693 21.6039C17.9522 20.9638 18.1656 20.4151 18.2266 20.3846C18.3485 20.2931 19.5374 21.1467 20.3452 21.9087C22.2656 23.7225 25.7101 24.637 28.3926 24.0578C29.0023 23.9358 30.0692 23.5853 30.7551 23.2957C32.3707 22.5946 33.2394 22.4422 35.5257 22.4422L37.4004 22.4422L39.2141 23.4329C40.2048 23.9816 41.2564 24.4541 41.546 24.515C42.5672 24.6827 42.6891 24.6827 43.4055 24.5607ZM41.2564 22.4422L40.7382 22.1983L41.1345 21.924C41.5308 21.6801 41.5613 21.6801 42.4758 22.1983C43.2836 22.6556 43.3598 22.7318 43.0397 22.7775C42.5215 22.8689 41.8356 22.747 41.2564 22.4422ZM44.8687 21.421C43.7865 20.8418 42.9025 20.3541 42.9025 20.3084C42.9178 20.2626 43.0092 20.1102 43.1312 19.9426C43.3293 19.6835 43.4207 19.714 44.9906 20.537C47.8408 22.0611 48.0237 22.1831 47.6884 22.305C47.1244 22.5336 46.8043 22.4269 44.8687 21.421ZM24.0793 21.9849C23.0124 21.6191 22.3265 21.1924 20.9853 20.0493C20.4518 19.592 19.7203 19.0738 19.3392 18.8909C18.9734 18.7233 18.6838 18.4946 18.7296 18.388C18.76 18.2965 19.2935 16.5742 19.9031 14.5776C20.5128 12.5657 21.0158 10.9196 21.0463 10.8891C21.0615 10.8587 21.8845 11.3616 22.8752 11.9865C25.5273 13.6783 25.2529 13.6479 30.8618 12.6114C35.0074 11.8341 35.6628 11.7579 36.9584 11.8189C37.7509 11.8494 38.7568 12.0018 39.1836 12.1389C39.7171 12.3066 42.0338 13.8003 46.3928 16.7876C49.9288 19.211 52.84 21.2533 52.8552 21.3143C52.9009 21.5429 51.8493 21.8325 51.3615 21.7258C50.6909 21.6039 43.8018 17.8697 43.7103 17.5802C43.436 16.8333 43.5122 16.8333 38.513 16.8943C35.9372 16.9248 33.7881 16.94 33.7424 16.9553C33.5443 16.9553 33.3461 17.6564 33.4528 17.9459C33.7272 18.6775 33.8643 18.708 37.9033 18.708C39.9762 18.708 41.6832 18.7385 41.6832 18.769C41.6832 18.9976 40.9364 19.8511 40.4944 20.1712C39.9762 20.5218 39.8542 20.537 36.1353 20.6284C32.0201 20.7199 32.1268 20.7047 29.6729 21.7411C29.1395 21.9697 28.4231 22.2136 28.0726 22.2898C27.1124 22.5031 25.1157 22.3507 24.0793 21.9849ZM10.8345 13.5716C11.3527 9.34976 11.7947 5.88995 11.7947 5.8747C11.8099 5.84422 13.8066 5.82898 16.2452 5.82898C19.7355 5.82898 20.6652 5.8747 20.6043 6.02712C20.5738 6.11857 19.5221 9.53266 18.2876 13.6021C17.053 17.6716 16.0166 21.04 15.9708 21.1162C15.9404 21.1771 14.5534 21.2229 12.9073 21.2229L9.8895 21.2229L10.8345 13.5716Z" fill="#0D313B"/>
<path d="M10.8345 13.5716C11.3527 9.34976 11.7947 5.88995 11.7947 5.8747C11.8099 5.84422 13.8066 5.82898 16.2452 5.82898C19.7355 5.82898 20.6652 5.8747 20.6043 6.02712C20.5738 6.11857 19.5221 9.53266 18.2876 13.6021C17.053 17.6716 16.0166 21.04 15.9708 21.1162C15.9404 21.1771 14.5534 21.2229 12.9073 21.2229L9.8895 21.2229L10.8345 13.5716Z" fill="#2894B4"/>
<path d="M42.2406 45.7692H32.0736C31.9374 45.7692 31.8022 45.756 31.6692 45.7285C31.5363 45.7022 31.4066 45.6626 31.2802 45.6109C31.1549 45.5582 31.0352 45.4945 30.922 45.4186C30.8088 45.3428 30.7044 45.2571 30.6077 45.1604C30.5121 45.0637 30.4264 44.9593 30.3505 44.8461C30.2747 44.7318 30.211 44.6131 30.1582 44.4868C30.1066 44.3604 30.067 44.2307 30.0407 44.0978C30.0132 43.9637 30 43.8285 30 43.6923V27.0769C30 26.9407 30.0132 26.8055 30.0407 26.6714C30.067 26.5385 30.1066 26.4088 30.1582 26.2824C30.211 26.156 30.2747 26.0374 30.3505 25.9231C30.4264 25.8099 30.5121 25.7055 30.6077 25.6088C30.7044 25.5121 30.8088 25.4264 30.922 25.3505C31.0352 25.2747 31.1549 25.211 31.2802 25.1582C31.4066 25.1066 31.5363 25.067 31.6692 25.0407C31.8022 25.0132 31.9374 25 32.0736 25H43.1329C43.2681 25 43.4033 25.0132 43.5362 25.0407C43.6703 25.067 43.8 25.1066 43.9252 25.1582C44.0516 25.211 44.1703 25.2747 44.2835 25.3505C44.3967 25.4264 44.5022 25.5121 44.5978 25.6088C44.6945 25.7055 44.7802 25.8099 44.856 25.9231C44.9318 26.0374 44.9956 26.156 45.0472 26.2824C45.1 26.4088 45.1395 26.5385 45.1659 26.6714C45.1923 26.8055 45.2055 26.9407 45.2055 27.0769V36.7692C45.2055 36.8615 45.1879 36.9494 45.1538 37.034C45.1186 37.1187 45.0681 37.1934 45.0033 37.2582C44.9384 37.3241 44.8637 37.3736 44.7791 37.4088C44.6945 37.4439 44.6066 37.4615 44.5143 37.4615C44.423 37.4615 44.3351 37.4439 44.2505 37.4088C44.1659 37.3736 44.0912 37.3241 44.0263 37.2582C43.9615 37.1934 43.911 37.1187 43.8758 37.034C43.8406 36.9494 43.823 36.8615 43.823 36.7692V36.0769V27.0769C43.823 26.9846 43.8055 26.8967 43.7703 26.8121C43.7351 26.7275 43.6857 26.6527 43.6208 26.5879C43.556 26.5231 43.4813 26.4725 43.3967 26.4374C43.3121 26.4022 43.2241 26.3846 43.1329 26.3846H32.0736C31.9824 26.3846 31.8934 26.4022 31.8088 26.4374C31.7242 26.4725 31.6494 26.5231 31.5846 26.5879C31.5209 26.6527 31.4703 26.7275 31.4352 26.8121C31.4 26.8967 31.3824 26.9846 31.3824 27.0769V43.6923C31.3824 43.7835 31.4 43.8725 31.4352 43.9571C31.4703 44.0417 31.5209 44.1164 31.5846 44.1813C31.6494 44.2461 31.7242 44.2967 31.8088 44.3318C31.8934 44.367 31.9824 44.3846 32.0736 44.3846H41.0139H42.2406C42.3329 44.3846 42.4209 44.4022 42.5055 44.4373C42.5901 44.4725 42.6648 44.5219 42.7296 44.5879C42.7945 44.6527 42.8439 44.7274 42.8791 44.812C42.9143 44.8967 42.9318 44.9846 42.9318 45.0769C42.9318 45.1692 42.9143 45.2571 42.8791 45.3417C42.8439 45.4263 42.7945 45.5011 42.7296 45.5659C42.6648 45.6318 42.5901 45.6813 42.5055 45.7164C42.4209 45.7516 42.3329 45.7692 42.2406 45.7692Z" fill="#0D313B"/>
<path d="M43.823 36.0769V27.0769C43.823 26.9846 43.8055 26.8967 43.7703 26.8121C43.7351 26.7275 43.6857 26.6527 43.6208 26.5879C43.556 26.5231 43.4813 26.4725 43.3967 26.4374C43.3121 26.4022 43.2241 26.3846 43.1329 26.3846H32.0736C31.9824 26.3846 31.8934 26.4022 31.8088 26.4374C31.7242 26.4725 31.6494 26.5231 31.5846 26.5879C31.5209 26.6527 31.4703 26.7275 31.4352 26.8121C31.4 26.8967 31.3824 26.9846 31.3824 27.0769V43.6923C31.3824 43.7835 31.4 43.8725 31.4352 43.9571C31.4703 44.0417 31.5209 44.1164 31.5846 44.1813C31.6494 44.2461 31.7242 44.2967 31.8088 44.3318C31.8934 44.367 31.9824 44.3846 32.0736 44.3846H41.0139L39.5664 38.5944L40.0699 38.0909L40.5734 36.5804L43.823 36.0769Z" fill="#2894B4"/>
<path d="M44.3437 42.5187C44.1525 42.5187 43.9899 42.4505 43.8547 42.3154L42.7371 41.1956C42.6723 41.1308 42.6239 41.056 42.5888 40.9714C42.5547 40.8868 42.5371 40.7989 42.5371 40.7077C42.5371 40.6154 42.5547 40.5275 42.5899 40.4428C42.625 40.3593 42.6756 40.2846 42.7393 40.2198C42.8041 40.1549 42.8789 40.1055 42.9635 40.0703C43.047 40.0351 43.1349 40.0176 43.2261 40.0165C43.3173 40.0165 43.4052 40.034 43.4899 40.0681C43.5745 40.1033 43.6492 40.1527 43.714 40.2165L44.3437 40.8472L45.9283 39.2593C45.9931 39.1945 46.0679 39.145 46.1525 39.1099C46.2371 39.0747 46.325 39.0571 46.4173 39.0571C46.5085 39.0571 46.5964 39.0747 46.6811 39.1099C46.7657 39.145 46.8404 39.1945 46.9052 39.2604C46.9701 39.3253 47.0195 39.4 47.0547 39.4846C47.0898 39.5692 47.1074 39.6571 47.1074 39.7494C47.1074 39.8406 47.0898 39.9297 47.0547 40.0143C47.0206 40.0989 46.9701 40.1736 46.9052 40.2384L44.8316 42.3154C44.6975 42.4505 44.5349 42.5187 44.3437 42.5187Z" fill="#0D313B"/>
<path d="M44.5139 47.1536C44.4524 47.1536 44.3908 47.1448 44.3304 47.1283C44.2776 47.114 39.0293 45.5788 39.0293 38.4492C39.0293 38.258 39.0974 38.0942 39.2326 37.958C39.3678 37.8184 39.5315 37.7514 39.7249 37.7569H39.7271C39.8645 37.7503 39.9776 37.6953 40.0667 37.5909C40.2601 37.3668 40.3436 37.1074 40.3172 36.8129C40.3106 36.7173 40.3238 36.625 40.3568 36.5349C40.3886 36.4448 40.4381 36.3646 40.5029 36.2953C40.5678 36.225 40.6447 36.1712 40.7326 36.1338C40.8194 36.0953 40.9117 36.0767 41.0073 36.0767H48.0216C48.1172 36.0767 48.2084 36.0953 48.2963 36.1338C48.3842 36.1712 48.46 36.225 48.526 36.2953C48.5908 36.3646 48.6403 36.4448 48.6721 36.5349C48.704 36.625 48.7172 36.7173 48.7117 36.8129C48.6853 37.1074 48.7688 37.3668 48.9622 37.5909C49.0513 37.6953 49.1644 37.7503 49.3018 37.7569H49.3084C49.4007 37.7569 49.4886 37.7745 49.5732 37.8096C49.6578 37.8448 49.7326 37.8953 49.7974 37.9602C49.8622 38.025 49.9117 38.0997 49.9469 38.1843C49.982 38.2701 49.9996 38.358 49.9996 38.4492C49.9996 45.5788 44.7513 47.114 44.6985 47.1283C44.6381 47.1448 44.5765 47.1536 44.5139 47.1536ZM40.4227 38.9997C40.6381 43.9184 43.7271 45.425 44.5161 45.7305C45.326 45.4228 48.393 43.9371 48.6062 38.9997C48.3578 38.892 48.1414 38.7404 47.9578 38.5426C47.6699 38.2338 47.4809 37.8734 47.3908 37.4613H41.6381C41.5469 37.8734 41.3579 38.2338 41.0711 38.5426C40.8875 38.7404 40.6711 38.892 40.4227 38.9997Z" fill="#0D313B"/>
<path d="M42.0072 30.4124H33.7127C33.6215 30.4124 33.5325 30.3949 33.4479 30.3597C33.3632 30.3245 33.2885 30.2751 33.2237 30.2091C33.1588 30.1443 33.1094 30.0696 33.0742 29.985C33.0391 29.9004 33.0215 29.8124 33.0215 29.7201C33.0215 29.6278 33.0391 29.5399 33.0742 29.4553C33.1094 29.3707 33.1588 29.296 33.2237 29.2311C33.2885 29.1652 33.3632 29.1157 33.4479 29.0806C33.5325 29.0454 33.6215 29.0278 33.7127 29.0278H42.0072C42.0984 29.0278 42.1863 29.0454 42.2709 29.0806C42.3555 29.1157 42.4303 29.1652 42.4951 29.2311C42.5599 29.296 42.6105 29.3707 42.6456 29.4553C42.6808 29.5399 42.6984 29.6278 42.6984 29.7201C42.6984 29.8124 42.6808 29.9004 42.6456 29.985C42.6105 30.0696 42.5599 30.1443 42.4951 30.2091C42.4303 30.2751 42.3555 30.3245 42.2709 30.3597C42.1863 30.3949 42.0984 30.4124 42.0072 30.4124Z" fill="#0D313B"/>
<path d="M42.0072 33.182H33.7127C33.6215 33.182 33.5325 33.1644 33.4479 33.1292C33.3632 33.0941 33.2885 33.0446 33.2237 32.9787C33.1588 32.9138 33.1094 32.8391 33.0742 32.7545C33.0391 32.6699 33.0215 32.582 33.0215 32.4897C33.0215 32.3974 33.0391 32.3095 33.0742 32.2248C33.1094 32.1402 33.1588 32.0655 33.2237 32.0007C33.2885 31.9347 33.3632 31.8853 33.4479 31.8501C33.5325 31.8149 33.6215 31.7974 33.7127 31.7974H42.0072C42.0984 31.7974 42.1863 31.8149 42.2709 31.8501C42.3555 31.8853 42.4303 31.9347 42.4951 32.0007C42.5599 32.0655 42.6105 32.1402 42.6456 32.2248C42.6808 32.3095 42.6984 32.3974 42.6984 32.4897C42.6984 32.582 42.6808 32.6699 42.6456 32.7545C42.6105 32.8391 42.5599 32.9138 42.4951 32.9787C42.4303 33.0446 42.3555 33.0941 42.2709 33.1292C42.1863 33.1644 42.0984 33.182 42.0072 33.182Z" fill="#0D313B"/>
<path d="M38.5511 35.951H33.7127C33.6215 35.951 33.5325 35.9334 33.4479 35.8983C33.3632 35.8631 33.2885 35.8137 33.2237 35.7477C33.1588 35.6829 33.1094 35.6082 33.0742 35.5235C33.0391 35.4389 33.0215 35.351 33.0215 35.2587C33.0215 35.1664 33.0391 35.0785 33.0742 34.9939C33.1094 34.9093 33.1588 34.8345 33.2237 34.7697C33.2885 34.7038 33.3632 34.6543 33.4479 34.6192C33.5325 34.584 33.6215 34.5664 33.7127 34.5664H38.5511C38.6424 34.5664 38.7303 34.584 38.8149 34.6192C38.8995 34.6543 38.9742 34.7038 39.0391 34.7697C39.1039 34.8345 39.1544 34.9093 39.1896 34.9939C39.2248 35.0785 39.2423 35.1664 39.2423 35.2587C39.2423 35.351 39.2248 35.4389 39.1896 35.5235C39.1544 35.6082 39.1039 35.6829 39.0391 35.7477C38.9742 35.8137 38.8995 35.8631 38.8149 35.8983C38.7303 35.9334 38.6424 35.951 38.5511 35.951Z" fill="#0D313B"/>
<path d="M37.1687 38.7201H33.7127C33.6215 38.7201 33.5325 38.7025 33.4479 38.6673C33.3632 38.6321 33.2885 38.5827 33.2237 38.5168C33.1588 38.4519 33.1094 38.3772 33.0742 38.2926C33.0391 38.208 33.0215 38.1201 33.0215 38.0278C33.0215 37.9354 33.0391 37.8475 33.0742 37.7629C33.1094 37.6783 33.1588 37.6036 33.2237 37.5387C33.2885 37.4728 33.3632 37.4234 33.4479 37.3882C33.5325 37.353 33.6215 37.3354 33.7127 37.3354H37.1687C37.2599 37.3354 37.3478 37.353 37.4325 37.3882C37.5182 37.4234 37.5929 37.4728 37.6577 37.5387C37.7226 37.6036 37.772 37.6783 37.8072 37.7629C37.8424 37.8475 37.8599 37.9354 37.8599 38.0278C37.8599 38.1201 37.8424 38.208 37.8072 38.2926C37.772 38.3772 37.7226 38.4519 37.6577 38.5168C37.5929 38.5827 37.5182 38.6321 37.4325 38.6673C37.3478 38.7025 37.2599 38.7201 37.1687 38.7201Z" fill="#0D313B"/>
</svg>
