<svg width="72" height="72" viewBox="0 0 72 72" fill="none" xmlns="http://www.w3.org/2000/svg">
<g id="payment-method">
<g id="Group 1171275127">
<g id="Group">
<g id="Vector">
<path d="M44.4952 4.29463C43.9953 4.46961 38.146 7.80671 29.2595 12.9811L14.8362 21.3801H12.2615C10.8492 21.3801 9.32437 21.4426 8.87443 21.5176C6.73718 21.8551 4.96239 23.3549 4.24997 25.4421C4 26.1546 4 26.4795 4 44.6899C4 60.8005 4.025 63.2877 4.18748 63.8376C4.74991 65.7124 6.28723 67.2497 8.16201 67.8122C8.71195 67.9747 11.9991 67.9996 34.5464 67.9996C62.4181 67.9996 60.6808 68.0371 62.0807 67.3372C62.8556 66.9373 63.9555 65.8499 64.3929 65.0375C65.0803 63.8001 65.1178 63.3752 65.1178 58.1008V53.2514L65.7178 52.9514C66.4052 52.6015 67.2176 51.7641 67.6425 50.9766L67.93 50.4392V44.7524V39.0655L67.63 38.4531C67.2426 37.6907 66.3302 36.7658 65.6428 36.4534L65.1178 36.2159V31.3165C65.1178 27.1794 65.0928 26.317 64.9178 25.7421C64.2804 23.5799 62.5681 21.9801 60.4934 21.5926L59.7934 21.4551L55.5439 14.031C51.0445 6.15691 50.5945 5.49448 49.3322 4.76957C47.8823 3.95716 46.0201 3.76969 44.4952 4.29463ZM47.5949 7.33177C47.9573 7.50675 48.3573 7.80671 48.4948 8.00669L48.7322 8.34415L37.5461 14.8684L26.3474 21.3801L23.6852 21.3551L21.023 21.3176L32.8216 14.4434C39.3209 10.6564 44.8952 7.44426 45.2202 7.29427C46.0201 6.90682 46.7825 6.91932 47.5949 7.33177ZM50.957 12.1687C51.3069 12.7936 51.5694 13.3561 51.5194 13.4061C51.4694 13.456 48.3823 15.2683 44.6452 17.4431L37.871 21.3801L35.2088 21.3551L32.5466 21.3176L41.3706 16.1682C46.22 13.3436 50.2071 11.0188 50.2446 11.0188C50.2821 11.0188 50.5945 11.5313 50.957 12.1687ZM54.6815 18.7054C55.4815 20.1178 56.1189 21.2926 56.0939 21.3301C56.0564 21.3551 53.3442 21.3676 50.0571 21.3551L44.0828 21.3176L48.5073 18.7304C50.9445 17.3056 52.9942 16.1432 53.0692 16.1307C53.1442 16.1307 53.8691 17.2931 54.6815 18.7054ZM60.4434 24.7172C61.1058 25.0672 61.7807 25.8546 61.9682 26.492C62.0682 26.817 62.1182 28.4168 62.1182 31.4914V36.0034H57.1438C52.5943 36.0034 52.0694 36.0284 51.1945 36.2534C48.1948 37.0158 45.8326 39.3655 44.9827 42.4402C44.6327 43.69 44.6077 45.6648 44.9202 46.8771C45.6826 49.8018 47.9198 52.164 50.9195 53.1639C51.6319 53.4014 52.0444 53.4264 56.9063 53.4639L62.1182 53.5139V58.1008C62.1182 62.6628 62.1182 62.6878 61.8182 63.3252C61.4808 64.0376 60.7683 64.7 60.1184 64.875C59.8434 64.95 50.432 65 34.4339 65C10.0993 65 9.17439 64.9875 8.68695 64.7625C8.41198 64.6375 8.01203 64.3376 7.78706 64.1126C6.93716 63.2127 6.99965 64.6375 6.99965 44.7149V26.6795L7.32461 26.0296C7.69957 25.2672 8.47447 24.6672 9.28688 24.5048C9.57435 24.4548 21.0855 24.4173 34.8714 24.4298L59.9309 24.4423L60.4434 24.7172ZM64.2429 39.1905C64.9803 39.578 64.9928 39.6655 64.9928 44.7524C64.9928 49.8893 64.9928 49.9268 64.1929 50.3017C63.818 50.4767 63.1181 50.5017 58.5311 50.5017C55.6564 50.5017 52.9692 50.4392 52.5568 50.3767C52.1443 50.3142 51.4194 50.0643 50.932 49.8268C47.3949 48.077 46.645 43.49 49.4322 40.6904C50.1821 39.9404 51.007 39.4655 52.0319 39.1905C53.0317 38.9281 63.7305 38.9281 64.2429 39.1905Z" fill="#0D313B"/>
<path d="M64.2429 39.1905C64.9803 39.578 64.9928 39.6655 64.9928 44.7524C64.9928 49.8893 64.9928 49.9268 64.1929 50.3017C63.818 50.4767 63.1181 50.5017 58.5311 50.5017C55.6564 50.5017 52.9692 50.4392 52.5568 50.3767C52.1443 50.3142 51.4194 50.0643 50.932 49.8268C47.3949 48.077 46.645 43.49 49.4322 40.6904C50.1821 39.9404 51.007 39.4655 52.0319 39.1905C53.0317 38.9281 63.7305 38.9281 64.2429 39.1905Z" fill="#2894B4"/>
<path d="M54.6815 18.7054C55.4815 20.1178 56.1189 21.2926 56.0939 21.3301C56.0564 21.3551 53.3442 21.3676 50.0571 21.3551L44.0828 21.3176L48.5073 18.7304C50.9445 17.3056 52.9942 16.1432 53.0692 16.1307C53.1442 16.1307 53.8691 17.2931 54.6815 18.7054Z" fill="#68D4F4"/>
<path d="M50.957 12.1687C51.3069 12.7936 51.5694 13.3561 51.5194 13.4061C51.4694 13.456 48.3823 15.2683 44.6452 17.4431L37.871 21.3801L35.2088 21.3551L32.5466 21.3176L41.3706 16.1682C46.22 13.3436 50.2071 11.0188 50.2446 11.0188C50.2821 11.0188 50.5945 11.5313 50.957 12.1687Z" fill="#2894B4"/>
<path d="M47.5949 7.33177C47.9573 7.50675 48.3573 7.80671 48.4948 8.00669L48.7322 8.34415L37.5461 14.8684L26.3474 21.3801L23.6852 21.3551L21.023 21.3176L32.8216 14.4434C39.3209 10.6564 44.8952 7.44426 45.2202 7.29427C46.0201 6.90682 46.7825 6.91932 47.5949 7.33177Z" fill="#68D4F4"/>
</g>
<path id="Vector_2" d="M52.4571 41.9278C50.9447 42.4903 50.1823 44.0526 50.6323 45.6649C50.7823 46.2023 51.4822 47.0522 52.0071 47.3147C53.5069 48.0896 55.3317 47.5522 56.0441 46.1024C56.794 44.6025 56.2566 42.8402 54.8318 42.1028C54.1819 41.7779 53.082 41.6904 52.4571 41.9278Z" fill="#0D313B"/>
</g>
</g>
</g>
</svg>
