<svg width="72" height="72" viewBox="0 0 72 72" fill="none" xmlns="http://www.w3.org/2000/svg">
<g id="pos-config">
<g id="Group 1171275123">
<g id="Subtract">
<mask id="path-1-outside-1_5883_47353" maskUnits="userSpaceOnUse" x="9" y="16" width="47" height="44" fill="black">
<rect fill="white" x="9" y="16" width="47" height="44"/>
<path fill-rule="evenodd" clip-rule="evenodd" d="M39.0004 22.6H22.2267L22.18 22.3853C22.1627 22.3161 22.0705 21.9011 21.9431 21.3275C21.8644 20.9731 21.7723 20.558 21.676 20.1267C21.424 18.9973 21.172 17.9613 21.1253 17.8307C21.0693 17.6907 20.864 17.4573 20.668 17.2893L20.3133 17H15.6C11.1387 17 10.868 17.0093 10.616 17.1773C10.1867 17.4667 10 17.8213 10 18.4C10 18.9787 10.1867 19.3333 10.616 19.6227C10.868 19.7907 11.12 19.8 14.76 19.8H18.6333L21.1347 31.0747C22.5067 37.272 23.6267 42.3773 23.6267 42.4333C23.6267 42.48 23.412 42.648 23.1507 42.8067C22.5253 43.1707 21.9187 43.8707 21.5547 44.6267C21.3027 45.1493 21.256 45.364 21.2187 46.176C21.1907 46.9133 21.2093 47.2307 21.34 47.6227C21.7693 48.9573 22.7587 49.9653 24.0653 50.4227C24.4853 50.5627 24.8587 50.6 25.9507 50.6093H27.3133L26.828 50.7867C25.0733 51.412 24 52.9427 24 54.8C24 57.2173 25.7827 59 28.2 59C30.6173 59 32.4 57.2173 32.4 54.8C32.4 52.9427 31.3267 51.412 29.572 50.7867C29.096 50.6187 29.1987 50.6093 38.0933 50.6093C46.988 50.6093 47.0907 50.6187 46.6147 50.7867C44.86 51.412 43.7867 52.9427 43.7867 54.8C43.7867 57.2173 45.5693 59 47.9867 59C50.404 59 52.1867 57.2173 52.1867 54.8C52.1867 52.9333 51.1133 51.412 49.3493 50.7867L48.8733 50.6093H50.0867C51.1133 50.6 51.3373 50.572 51.5707 50.4227C52 50.1333 52.1867 49.7787 52.1867 49.2C52.1867 48.6493 52.0093 48.2853 51.6173 48.0053C51.412 47.856 50.404 47.8467 38.2333 47.8L25.0733 47.7533L24.7467 47.548C23.86 46.9973 23.8693 45.7 24.7653 45.2147C25.0547 45.056 25.764 45.0467 38.196 45.0187L51.328 45L51.7107 44.6453L52.0933 44.3L54.94 34.3413C55.0792 33.8548 55.2132 33.3857 55.3419 32.934C54.3191 33.4095 53.2146 33.739 52.0553 33.8957L49.6947 42.1533L38.1307 42.172L26.5667 42.2L24.7187 33.8653C23.7013 29.292 22.88 25.512 22.88 25.4653C22.88 25.428 29.9827 25.4 38.6533 25.4C38.8953 25.4 39.1337 25.4 39.3688 25.4C39.1361 24.5045 39.0087 23.5664 39.0004 22.6ZM29.5067 54.8C29.5067 54.324 29.292 53.9413 28.8907 53.6707C28.7227 53.568 28.452 53.4933 28.2 53.4933C27.4533 53.4933 26.8933 54.0533 26.8933 54.8C26.8933 55.5467 27.4533 56.1067 28.2 56.1067C28.9467 56.1067 29.5067 55.5467 29.5067 54.8ZM49.2933 54.8C49.2933 54.324 49.0787 53.9413 48.6773 53.6707C48.5093 53.568 48.2387 53.4933 47.9867 53.4933C47.24 53.4933 46.68 54.0533 46.68 54.8C46.68 55.5467 47.24 56.1067 47.9867 56.1067C48.7333 56.1067 49.2933 55.5467 49.2933 54.8Z"/>
</mask>
<path fill-rule="evenodd" clip-rule="evenodd" d="M39.0004 22.6H22.2267L22.18 22.3853C22.1627 22.3161 22.0705 21.9011 21.9431 21.3275C21.8644 20.9731 21.7723 20.558 21.676 20.1267C21.424 18.9973 21.172 17.9613 21.1253 17.8307C21.0693 17.6907 20.864 17.4573 20.668 17.2893L20.3133 17H15.6C11.1387 17 10.868 17.0093 10.616 17.1773C10.1867 17.4667 10 17.8213 10 18.4C10 18.9787 10.1867 19.3333 10.616 19.6227C10.868 19.7907 11.12 19.8 14.76 19.8H18.6333L21.1347 31.0747C22.5067 37.272 23.6267 42.3773 23.6267 42.4333C23.6267 42.48 23.412 42.648 23.1507 42.8067C22.5253 43.1707 21.9187 43.8707 21.5547 44.6267C21.3027 45.1493 21.256 45.364 21.2187 46.176C21.1907 46.9133 21.2093 47.2307 21.34 47.6227C21.7693 48.9573 22.7587 49.9653 24.0653 50.4227C24.4853 50.5627 24.8587 50.6 25.9507 50.6093H27.3133L26.828 50.7867C25.0733 51.412 24 52.9427 24 54.8C24 57.2173 25.7827 59 28.2 59C30.6173 59 32.4 57.2173 32.4 54.8C32.4 52.9427 31.3267 51.412 29.572 50.7867C29.096 50.6187 29.1987 50.6093 38.0933 50.6093C46.988 50.6093 47.0907 50.6187 46.6147 50.7867C44.86 51.412 43.7867 52.9427 43.7867 54.8C43.7867 57.2173 45.5693 59 47.9867 59C50.404 59 52.1867 57.2173 52.1867 54.8C52.1867 52.9333 51.1133 51.412 49.3493 50.7867L48.8733 50.6093H50.0867C51.1133 50.6 51.3373 50.572 51.5707 50.4227C52 50.1333 52.1867 49.7787 52.1867 49.2C52.1867 48.6493 52.0093 48.2853 51.6173 48.0053C51.412 47.856 50.404 47.8467 38.2333 47.8L25.0733 47.7533L24.7467 47.548C23.86 46.9973 23.8693 45.7 24.7653 45.2147C25.0547 45.056 25.764 45.0467 38.196 45.0187L51.328 45L51.7107 44.6453L52.0933 44.3L54.94 34.3413C55.0792 33.8548 55.2132 33.3857 55.3419 32.934C54.3191 33.4095 53.2146 33.739 52.0553 33.8957L49.6947 42.1533L38.1307 42.172L26.5667 42.2L24.7187 33.8653C23.7013 29.292 22.88 25.512 22.88 25.4653C22.88 25.428 29.9827 25.4 38.6533 25.4C38.8953 25.4 39.1337 25.4 39.3688 25.4C39.1361 24.5045 39.0087 23.5664 39.0004 22.6ZM29.5067 54.8C29.5067 54.324 29.292 53.9413 28.8907 53.6707C28.7227 53.568 28.452 53.4933 28.2 53.4933C27.4533 53.4933 26.8933 54.0533 26.8933 54.8C26.8933 55.5467 27.4533 56.1067 28.2 56.1067C28.9467 56.1067 29.5067 55.5467 29.5067 54.8ZM49.2933 54.8C49.2933 54.324 49.0787 53.9413 48.6773 53.6707C48.5093 53.568 48.2387 53.4933 47.9867 53.4933C47.24 53.4933 46.68 54.0533 46.68 54.8C46.68 55.5467 47.24 56.1067 47.9867 56.1067C48.7333 56.1067 49.2933 55.5467 49.2933 54.8Z" fill="#0D313B"/>
<path d="M39.0004 22.6L39.2244 22.5981L39.2225 22.376H39.0004V22.6ZM22.2267 22.6L22.0078 22.6476L22.0461 22.824H22.2267V22.6ZM22.18 22.3853L22.399 22.3377L22.3973 22.331L22.18 22.3853ZM21.9431 21.3275L22.1618 21.279V21.279L21.9431 21.3275ZM21.676 20.1267L21.8946 20.0779V20.0779L21.676 20.1267ZM21.1253 17.8307L21.3364 17.7553L21.3333 17.7475L21.1253 17.8307ZM20.668 17.2893L20.8138 17.1192L20.8096 17.1158L20.668 17.2893ZM20.3133 17L20.4549 16.8264L20.3931 16.776H20.3133V17ZM10.616 17.1773L10.4917 16.991L10.4908 16.9916L10.616 17.1773ZM10.616 19.6227L10.4908 19.8084L10.4917 19.809L10.616 19.6227ZM18.6333 19.8L18.852 19.7515L18.8131 19.576H18.6333V19.8ZM21.1347 31.0747L21.3534 31.0262L21.3533 31.0262L21.1347 31.0747ZM23.1507 42.8067L23.2634 43.0003L23.2669 42.9981L23.1507 42.8067ZM21.5547 44.6267L21.7564 44.7239L21.7565 44.7238L21.5547 44.6267ZM21.2187 46.176L20.9949 46.1657L20.9948 46.1675L21.2187 46.176ZM21.34 47.6227L21.5533 47.5541L21.5525 47.5518L21.34 47.6227ZM24.0653 50.4227L23.9913 50.6341L23.9945 50.6352L24.0653 50.4227ZM25.9507 50.6093L25.9488 50.8333H25.9507V50.6093ZM27.3133 50.6093L27.3902 50.8197L27.3133 50.3853V50.6093ZM26.828 50.7867L26.9032 50.9977L26.9049 50.9971L26.828 50.7867ZM29.572 50.7867L29.6472 50.5757L29.6465 50.5754L29.572 50.7867ZM46.6147 50.7867L46.5401 50.5754L46.5395 50.5757L46.6147 50.7867ZM49.3493 50.7867L49.2711 50.9966L49.2745 50.9978L49.3493 50.7867ZM48.8733 50.6093V50.3853L48.7951 50.8192L48.8733 50.6093ZM50.0867 50.6093V50.8333L50.0887 50.8333L50.0867 50.6093ZM51.5707 50.4227L51.6914 50.6114L51.6958 50.6084L51.5707 50.4227ZM51.6173 48.0053L51.4856 48.1865L51.4871 48.1876L51.6173 48.0053ZM38.2333 47.8L38.2342 47.576H38.2341L38.2333 47.8ZM25.0733 47.7533L24.9541 47.943L25.0084 47.9771L25.0725 47.9773L25.0733 47.7533ZM24.7467 47.548L24.8659 47.3584L24.8648 47.3577L24.7467 47.548ZM24.7653 45.2147L24.872 45.4116L24.873 45.4111L24.7653 45.2147ZM38.196 45.0187L38.1957 44.7947H38.1955L38.196 45.0187ZM51.328 45L51.3283 45.224L51.416 45.2239L51.4803 45.1643L51.328 45ZM51.7107 44.6453L51.5606 44.479L51.5584 44.481L51.7107 44.6453ZM52.0933 44.3L52.2434 44.4663L52.2911 44.4233L52.3087 44.3616L52.0933 44.3ZM54.94 34.3413L54.7246 34.2797L54.7246 34.2798L54.94 34.3413ZM55.3419 32.934L55.5574 32.9954L55.6916 32.5245L55.2475 32.7309L55.3419 32.934ZM52.0553 33.8957L52.0253 33.6737L51.8802 33.6934L51.8399 33.8341L52.0553 33.8957ZM49.6947 42.1533L49.695 42.3773L49.8637 42.3771L49.91 42.2149L49.6947 42.1533ZM38.1307 42.172L38.1303 41.948H38.1301L38.1307 42.172ZM26.5667 42.2L26.348 42.2485L26.387 42.4244L26.5672 42.424L26.5667 42.2ZM24.7187 33.8653L24.9374 33.8168L24.9373 33.8167L24.7187 33.8653ZM39.3688 25.4L39.3688 25.624L39.6584 25.6241L39.5856 25.3437L39.3688 25.4ZM28.8907 53.6707L29.016 53.4848L29.0075 53.4795L28.8907 53.6707ZM48.6773 53.6707L48.8027 53.4848L48.7941 53.4795L48.6773 53.6707ZM39.0004 22.376H22.2267V22.824H39.0004V22.376ZM22.4456 22.5524L22.3989 22.3377L21.9611 22.4329L22.0078 22.6476L22.4456 22.5524ZM22.3973 22.331C22.381 22.2656 22.2899 21.8557 22.1618 21.279L21.7245 21.3761C21.8512 21.9465 21.9444 22.3666 21.9627 22.4397L22.3973 22.331ZM22.1618 21.279C22.0831 20.9245 21.9909 20.5094 21.8946 20.0779L21.4574 20.1755C21.5536 20.6067 21.6458 21.0216 21.7245 21.3761L22.1618 21.279ZM21.8946 20.0779C21.7684 19.5121 21.6421 18.9695 21.5414 18.5517C21.4429 18.1429 21.3648 17.8351 21.3363 17.7553L20.9144 17.906C20.9326 17.9569 21.0037 18.2325 21.1059 18.6566C21.2059 19.0718 21.3316 19.6119 21.4574 20.1755L21.8946 20.0779ZM21.3333 17.7475C21.291 17.6418 21.2054 17.5255 21.1194 17.4249C21.029 17.3192 20.9204 17.2107 20.8138 17.1193L20.5222 17.4594C20.6116 17.536 20.7037 17.6282 20.7789 17.7161C20.8586 17.8092 20.9036 17.8795 20.9174 17.9139L21.3333 17.7475ZM20.8096 17.1158L20.4549 16.8264L20.1717 17.1736L20.5264 17.4629L20.8096 17.1158ZM20.3133 16.776H15.6V17.224H20.3133V16.776ZM15.6 16.776C13.3717 16.776 12.1834 16.7783 11.5215 16.8018C10.871 16.8249 10.6776 16.8671 10.4917 16.991L10.7403 17.3637C10.8064 17.3196 10.8744 17.2731 11.5375 17.2495C12.1892 17.2264 13.367 17.224 15.6 17.224V16.776ZM10.4908 16.9916C10.2525 17.1522 10.0688 17.3399 9.94736 17.5786C9.82651 17.8161 9.776 18.0869 9.776 18.4H10.224C10.224 18.1345 10.2668 17.9386 10.3466 17.7818C10.4258 17.6261 10.5501 17.4918 10.7412 17.3631L10.4908 16.9916ZM9.776 18.4C9.776 18.7131 9.82651 18.9839 9.94736 19.2214C10.0688 19.4601 10.2525 19.6478 10.4908 19.8084L10.7412 19.4369C10.5501 19.3082 10.4258 19.1739 10.3466 19.0182C10.2668 18.8614 10.224 18.6655 10.224 18.4H9.776ZM10.4917 19.809C10.6741 19.9306 10.857 19.9747 11.408 19.9981C11.9635 20.0217 12.9428 20.024 14.76 20.024V19.576C12.9372 19.576 11.9705 19.5736 11.427 19.5505C10.879 19.5273 10.8099 19.4827 10.7403 19.4363L10.4917 19.809ZM14.76 20.024H18.6333V19.576H14.76V20.024ZM18.4146 19.8485L20.916 31.1232L21.3533 31.0262L18.852 19.7515L18.4146 19.8485ZM20.916 31.1231C21.6019 34.2217 22.2249 37.0472 22.6764 39.105C22.9021 40.1339 23.0849 40.9708 23.2113 41.5539C23.2745 41.8454 23.3235 42.0733 23.3567 42.2298C23.3734 42.3082 23.3859 42.3682 23.3942 42.4093C23.3984 42.4299 23.4014 42.445 23.4033 42.4548C23.4042 42.4599 23.4047 42.4624 23.4048 42.4632C23.4064 42.4728 23.4027 42.4547 23.4027 42.4333H23.8507C23.8507 42.4169 23.8487 42.4033 23.8486 42.4023C23.848 42.3978 23.8474 42.3938 23.8469 42.3909C23.8459 42.385 23.8448 42.3784 23.8436 42.372C23.8411 42.3589 23.8376 42.3413 23.8333 42.32C23.8245 42.2771 23.8117 42.2156 23.795 42.1369C23.7616 41.9793 23.7124 41.7507 23.6491 41.459C23.5226 40.8754 23.3397 40.0381 23.114 39.009C22.6624 36.9508 22.0394 34.125 21.3534 31.0262L20.916 31.1231ZM23.4027 42.4333C23.4027 42.3954 23.413 42.3677 23.4182 42.3555C23.424 42.342 23.4297 42.3332 23.4318 42.3302C23.4358 42.3243 23.4363 42.3248 23.4288 42.3325C23.4144 42.3472 23.3881 42.3707 23.3485 42.4017C23.2706 42.4627 23.1593 42.5394 23.0344 42.6152L23.2669 42.9981C23.4034 42.9153 23.53 42.8286 23.6248 42.7543C23.6716 42.7177 23.7152 42.6804 23.7493 42.6455C23.7659 42.6285 23.7853 42.6069 23.8021 42.5823C23.8123 42.5673 23.8507 42.5112 23.8507 42.4333H23.4027ZM23.038 42.6131C22.3668 43.0038 21.7323 43.7414 21.3528 44.5295L21.7565 44.7238C22.105 44 22.6839 43.3376 23.2634 43.0003L23.038 42.6131ZM21.3529 44.5294C21.2239 44.7969 21.1406 44.9996 21.0873 45.2453C21.035 45.4862 21.0136 45.7598 20.9949 46.1657L21.4424 46.1863C21.4611 45.7802 21.4817 45.5405 21.5251 45.3403C21.5674 45.1451 21.6334 44.9791 21.7564 44.7239L21.3529 44.5294ZM20.9948 46.1675C20.9667 46.9095 20.9833 47.261 21.1275 47.6935L21.5525 47.5518C21.4353 47.2003 21.4147 46.9172 21.4425 46.1845L20.9948 46.1675ZM21.1268 47.6913C21.5776 49.0928 22.6185 50.1536 23.9913 50.6341L24.1393 50.2112C22.8988 49.7771 21.9611 48.8218 21.5532 47.5541L21.1268 47.6913ZM23.9945 50.6352C24.4517 50.7876 24.8576 50.824 25.9488 50.8333L25.9526 50.3853C24.8598 50.376 24.5189 50.3377 24.1362 50.2102L23.9945 50.6352ZM25.9507 50.8333H27.3133V50.3853H25.9507V50.8333ZM27.2365 50.3989L26.7511 50.5763L26.9049 50.9971L27.3902 50.8197L27.2365 50.3989ZM26.7528 50.5757C24.9086 51.2329 23.776 52.8483 23.776 54.8H24.224C24.224 53.037 25.2381 51.5911 26.9032 50.9977L26.7528 50.5757ZM23.776 54.8C23.776 57.341 25.659 59.224 28.2 59.224V58.776C25.9064 58.776 24.224 57.0936 24.224 54.8H23.776ZM28.2 59.224C30.741 59.224 32.624 57.341 32.624 54.8H32.176C32.176 57.0936 30.4936 58.776 28.2 58.776V59.224ZM32.624 54.8C32.624 52.8483 31.4914 51.2329 29.6472 50.5757L29.4968 50.9977C31.1619 51.5911 32.176 53.037 32.176 54.8H32.624ZM29.6465 50.5754C29.6167 50.5649 29.5932 50.5564 29.5748 50.549C29.5533 50.5405 29.5514 50.5383 29.5579 50.5425C29.5602 50.5439 29.5798 50.5562 29.5996 50.5817C29.6211 50.6094 29.6592 50.6765 29.6361 50.7646C29.6158 50.8422 29.5618 50.8787 29.5469 50.8879C29.5366 50.8943 29.5283 50.898 29.524 50.8998C29.5194 50.9017 29.5166 50.9025 29.5162 50.9026C29.5158 50.9028 29.5198 50.9016 29.5304 50.8997C29.5406 50.8978 29.5545 50.8957 29.5729 50.8935C29.61 50.889 29.6605 50.8845 29.7278 50.8803C29.8623 50.8718 30.055 50.8648 30.3235 50.8589C31.3984 50.8357 33.6443 50.8333 38.0933 50.8333V50.3853C33.6477 50.3853 31.3949 50.3877 30.3138 50.4111C30.0434 50.4169 29.8435 50.4241 29.6997 50.4332C29.5646 50.4417 29.4569 50.4527 29.3875 50.4735C29.3686 50.4792 29.3397 50.4892 29.3105 50.5074C29.2849 50.5232 29.2249 50.5665 29.2027 50.6512C29.1778 50.7464 29.2182 50.8209 29.2456 50.8562C29.2713 50.8894 29.3005 50.9095 29.3154 50.9192C29.3473 50.9397 29.3833 50.9549 29.4083 50.9649C29.4363 50.9762 29.4678 50.9874 29.4974 50.9979L29.6465 50.5754ZM38.0933 50.8333C42.5423 50.8333 44.7883 50.8357 45.8632 50.8589C46.1317 50.8648 46.3244 50.8718 46.4589 50.8803C46.5261 50.8845 46.5767 50.889 46.6138 50.8935C46.6322 50.8957 46.6461 50.8978 46.6563 50.8997C46.6668 50.9016 46.6709 50.9028 46.6705 50.9026C46.6701 50.9025 46.6673 50.9017 46.6627 50.8998C46.6584 50.898 46.6501 50.8943 46.6398 50.8879C46.6249 50.8786 46.5708 50.8422 46.5505 50.7646C46.5275 50.6765 46.5656 50.6094 46.5871 50.5817C46.6068 50.5562 46.6265 50.5439 46.6288 50.5425C46.6353 50.5383 46.6333 50.5405 46.6119 50.549C46.5935 50.5564 46.5699 50.5649 46.5401 50.5754L46.6892 50.9979C46.7189 50.9874 46.7504 50.9762 46.7784 50.9649C46.8034 50.9549 46.8393 50.9397 46.8712 50.9192C46.8862 50.9095 46.9154 50.8894 46.9411 50.8562C46.9685 50.8209 47.0088 50.7464 46.984 50.6512C46.9618 50.5665 46.9017 50.5232 46.8762 50.5074C46.8469 50.4892 46.8181 50.4792 46.7992 50.4735C46.7297 50.4527 46.6221 50.4417 46.487 50.4332C46.3432 50.4241 46.1433 50.4169 45.8728 50.4111C44.7917 50.3877 42.539 50.3853 38.0933 50.3853V50.8333ZM46.5395 50.5757C44.6952 51.2329 43.5627 52.8483 43.5627 54.8H44.0107C44.0107 53.037 45.0248 51.5911 46.6899 50.9977L46.5395 50.5757ZM43.5627 54.8C43.5627 57.341 45.4456 59.224 47.9867 59.224V58.776C45.693 58.776 44.0107 57.0936 44.0107 54.8H43.5627ZM47.9867 59.224C50.5277 59.224 52.4107 57.341 52.4107 54.8H51.9627C51.9627 57.0936 50.2803 58.776 47.9867 58.776V59.224ZM52.4107 54.8C52.4107 52.8385 51.2776 51.2326 49.4242 50.5755L49.2745 50.9978C50.9491 51.5914 51.9627 53.0282 51.9627 54.8H52.4107ZM49.4275 50.5768L48.9515 50.3994L48.7951 50.8192L49.2711 50.9966L49.4275 50.5768ZM48.8733 50.8333H50.0867V50.3853H48.8733V50.8333ZM50.0887 50.8333C51.0922 50.8242 51.3921 50.8029 51.6914 50.6113L51.4499 50.234C51.2826 50.3411 51.1345 50.3758 50.0846 50.3853L50.0887 50.8333ZM51.6958 50.6084C51.9341 50.4478 52.1178 50.2601 52.2393 50.0214C52.3602 49.7839 52.4107 49.5131 52.4107 49.2H51.9627C51.9627 49.4655 51.9198 49.6614 51.84 49.8182C51.7608 49.9739 51.6365 50.1082 51.4455 50.2369L51.6958 50.6084ZM52.4107 49.2C52.4107 48.9008 52.3625 48.6371 52.251 48.4044C52.1388 48.1702 51.9692 47.9814 51.7475 47.8231L51.4871 48.1876C51.6575 48.3093 51.7725 48.4424 51.847 48.5979C51.9222 48.7549 51.9627 48.9485 51.9627 49.2H52.4107ZM51.7491 47.8242C51.6866 47.7788 51.6131 47.7538 51.5277 47.7362C51.4422 47.7185 51.3268 47.7049 51.1671 47.6934C50.8463 47.6703 50.3147 47.6536 49.4157 47.6402C47.6151 47.6133 44.3187 47.5993 38.2342 47.576L38.2325 48.024C44.3186 48.0473 47.6116 48.0613 49.409 48.0881C50.3089 48.1016 50.8285 48.1181 51.1348 48.1402C51.2886 48.1513 51.3808 48.1633 51.4372 48.1749C51.4938 48.1866 51.4967 48.1946 51.4856 48.1865L51.7491 47.8242ZM38.2341 47.576L25.0741 47.5293L25.0725 47.9773L38.2325 48.024L38.2341 47.576ZM25.1925 47.5637L24.8659 47.3584L24.6275 47.7376L24.9541 47.943L25.1925 47.5637ZM24.8648 47.3577C24.1131 46.8908 24.1386 45.8089 24.872 45.4116L24.6586 45.0177C23.6001 45.5911 23.6069 47.1038 24.6285 47.7383L24.8648 47.3577ZM24.873 45.4111C24.9008 45.3959 24.9581 45.3676 25.2552 45.3444C25.5486 45.3214 26.0462 45.3045 26.9304 45.2916C28.6962 45.266 31.9796 45.2567 38.1965 45.2427L38.1955 44.7947C31.9804 44.8087 28.6932 44.818 26.9239 44.8437C26.0407 44.8565 25.5297 44.8735 25.2202 44.8977C24.9144 44.9217 24.7745 44.9541 24.6576 45.0183L24.873 45.4111ZM38.1963 45.2427L51.3283 45.224L51.3277 44.776L38.1957 44.7947L38.1963 45.2427ZM51.4803 45.1643L51.8629 44.8096L51.5584 44.481L51.1757 44.8357L51.4803 45.1643ZM51.8607 44.8116L52.2434 44.4663L51.9433 44.1337L51.5606 44.479L51.8607 44.8116ZM52.3087 44.3616L55.1554 34.4029L54.7246 34.2798L51.878 44.2384L52.3087 44.3616ZM55.1554 34.403C55.2946 33.9163 55.4286 33.4472 55.5574 32.9954L55.1265 32.8726C54.9978 33.3242 54.8638 33.7932 54.7246 34.2797L55.1554 34.403ZM55.2475 32.7309C54.2447 33.197 53.1619 33.5201 52.0253 33.6737L52.0853 34.1177C53.2673 33.9579 54.3934 33.622 55.4364 33.1372L55.2475 32.7309ZM51.8399 33.8341L49.4793 42.0918L49.91 42.2149L52.2707 33.9573L51.8399 33.8341ZM49.6943 41.9293L38.1303 41.948L38.131 42.396L49.695 42.3773L49.6943 41.9293ZM38.1301 41.948L26.5661 41.976L26.5672 42.424L38.1312 42.396L38.1301 41.948ZM26.7854 42.1515L24.9374 33.8168L24.5 33.9138L26.348 42.2485L26.7854 42.1515ZM24.9373 33.8167C24.4287 31.5303 23.9691 29.4422 23.6367 27.92C23.4705 27.1589 23.3361 26.5394 23.2432 26.1073C23.1968 25.8913 23.1608 25.7224 23.1365 25.6062C23.1243 25.548 23.1152 25.5036 23.1091 25.4732C23.1061 25.4579 23.104 25.4471 23.1027 25.4402C23.1021 25.4366 23.1019 25.4353 23.1019 25.4355C23.1019 25.4355 23.1022 25.4373 23.1025 25.44C23.1027 25.4413 23.103 25.4439 23.1032 25.4472C23.1035 25.4498 23.104 25.4566 23.104 25.4653H22.656C22.656 25.4805 22.6576 25.4928 22.6578 25.4943C22.6583 25.4986 22.6589 25.5024 22.6593 25.505C22.6601 25.5102 22.6611 25.5158 22.662 25.5209C22.664 25.5313 22.6666 25.5449 22.6698 25.561C22.6763 25.5934 22.6858 25.6394 22.698 25.698C22.7226 25.8153 22.7588 25.9851 22.8052 26.2014C22.8982 26.6342 23.0327 27.2543 23.199 28.0156C23.5316 29.5384 23.9913 31.627 24.5 33.914L24.9373 33.8167ZM23.104 25.4653C23.104 25.5832 23.0192 25.6415 23.0053 25.6508C22.981 25.6671 22.9593 25.6746 22.9527 25.6768C22.9364 25.6823 22.9236 25.6843 22.9223 25.6845C22.9163 25.6855 22.9139 25.6855 22.9193 25.6851C22.9282 25.6843 22.9448 25.6834 22.9712 25.6823C23.0229 25.6801 23.1015 25.6779 23.2067 25.6758C23.4166 25.6714 23.727 25.6673 24.1275 25.6634C24.9282 25.6555 26.0865 25.6485 27.5161 25.6427C30.3752 25.631 34.3182 25.624 38.6533 25.624V25.176C34.3178 25.176 30.3741 25.183 27.5143 25.1947C26.0844 25.2005 24.9251 25.2075 24.1231 25.2154C23.7222 25.2193 23.4099 25.2235 23.1975 25.2279C23.0916 25.23 23.0091 25.2323 22.9526 25.2346C22.9248 25.2358 22.9005 25.2371 22.8819 25.2386C22.8736 25.2393 22.861 25.2405 22.8481 25.2427C22.8433 25.2435 22.8279 25.2461 22.8099 25.2521C22.8024 25.2547 22.7801 25.2624 22.7553 25.279C22.741 25.2886 22.656 25.3472 22.656 25.4653H23.104ZM38.6533 25.624C38.8953 25.624 39.1337 25.624 39.3688 25.624L39.3688 25.176C39.1337 25.176 38.8953 25.176 38.6533 25.176V25.624ZM39.5856 25.3437C39.3575 24.4658 39.2325 23.546 39.2244 22.5981L38.7764 22.6019C38.7848 23.5869 38.9147 24.5432 39.152 25.4564L39.5856 25.3437ZM28.7654 53.8564C29.1089 54.088 29.2827 54.403 29.2827 54.8H29.7307C29.7307 54.245 29.4751 53.7946 29.0159 53.485L28.7654 53.8564ZM28.2 53.7173C28.4165 53.7173 28.6456 53.7834 28.7739 53.8618L29.0075 53.4795C28.7997 53.3526 28.4875 53.2693 28.2 53.2693V53.7173ZM27.1173 54.8C27.1173 54.177 27.577 53.7173 28.2 53.7173V53.2693C27.3296 53.2693 26.6693 53.9296 26.6693 54.8H27.1173ZM28.2 55.8827C27.577 55.8827 27.1173 55.423 27.1173 54.8H26.6693C26.6693 55.6704 27.3296 56.3307 28.2 56.3307V55.8827ZM29.2827 54.8C29.2827 55.423 28.823 55.8827 28.2 55.8827V56.3307C29.0704 56.3307 29.7307 55.6704 29.7307 54.8H29.2827ZM48.5521 53.8564C48.8956 54.088 49.0693 54.403 49.0693 54.8H49.5173C49.5173 54.245 49.2618 53.7946 48.8026 53.485L48.5521 53.8564ZM47.9867 53.7173C48.2032 53.7173 48.4323 53.7834 48.5605 53.8618L48.7941 53.4795C48.5864 53.3526 48.2741 53.2693 47.9867 53.2693V53.7173ZM46.904 54.8C46.904 54.177 47.3637 53.7173 47.9867 53.7173V53.2693C47.1163 53.2693 46.456 53.9296 46.456 54.8H46.904ZM47.9867 55.8827C47.3637 55.8827 46.904 55.423 46.904 54.8H46.456C46.456 55.6704 47.1163 56.3307 47.9867 56.3307V55.8827ZM49.0693 54.8C49.0693 55.423 48.6096 55.8827 47.9867 55.8827V56.3307C48.857 56.3307 49.5173 55.6704 49.5173 54.8H49.0693Z" fill="#0D313B" mask="url(#path-1-outside-1_5883_47353)"/>
</g>
</g>
<g id="Vector">
<mask id="path-3-outside-2_5883_47353" maskUnits="userSpaceOnUse" x="57.4375" y="18.917" width="6" height="12" fill="black">
<rect fill="white" x="57.4375" y="18.917" width="6" height="12"/>
<path d="M61.4565 20.1409C61.8322 20.2452 62.1745 20.5458 62.3498 20.9173C62.4375 21.1093 62.4375 21.1135 62.4375 25.0122V28.9152L62.3457 29.1114C62.2204 29.3869 61.9449 29.6665 61.6694 29.8001L61.4357 29.917H60.2043H58.9729L58.7391 29.8001C58.4636 29.6665 58.1881 29.3869 58.0629 29.1114L57.971 28.9152V25.0122V21.1093L58.0629 20.9131C58.1881 20.6376 58.4636 20.3579 58.7391 20.2244L58.9729 20.1075L60.1208 20.0991C60.9431 20.0908 61.323 20.1033 61.4565 20.1409ZM59.0897 21.1135C59.0271 21.1594 58.952 21.2638 58.9228 21.3431C58.8518 21.5476 58.8518 28.4769 58.9228 28.6814C58.952 28.7607 59.0271 28.8651 59.0897 28.911C59.2025 28.9945 59.2609 28.9987 60.2043 28.9987C61.1518 28.9987 61.2061 28.9945 61.3188 28.911C61.5442 28.7399 61.5442 28.8025 61.5317 24.9246C61.5317 24.9216 61.5317 24.9186 61.5317 24.9156C61.5192 21.3639 61.5191 21.343 61.4315 21.2262C61.2854 21.0258 61.1477 21.005 60.1333 21.0175C59.2692 21.0258 59.2025 21.03 59.0897 21.1135Z"/>
<path d="M59.0897 21.1135C59.0271 21.1594 58.952 21.2638 58.9228 21.3431C58.8518 21.5476 58.8518 28.4769 58.9228 28.6814C58.952 28.7607 59.0271 28.8651 59.0897 28.911C59.2025 28.9945 59.2609 28.9987 60.2043 28.9987C61.1518 28.9987 61.2061 28.9945 61.3188 28.911C61.5442 28.7399 61.5442 28.8025 61.5317 24.9246L61.5317 24.9156C61.5192 21.3639 61.5191 21.343 61.4315 21.2262C61.2854 21.0258 61.1477 21.005 60.1333 21.0175C59.2692 21.0258 59.2025 21.03 59.0897 21.1135Z"/>
</mask>
<path d="M61.4565 20.1409C61.8322 20.2452 62.1745 20.5458 62.3498 20.9173C62.4375 21.1093 62.4375 21.1135 62.4375 25.0122V28.9152L62.3457 29.1114C62.2204 29.3869 61.9449 29.6665 61.6694 29.8001L61.4357 29.917H60.2043H58.9729L58.7391 29.8001C58.4636 29.6665 58.1881 29.3869 58.0629 29.1114L57.971 28.9152V25.0122V21.1093L58.0629 20.9131C58.1881 20.6376 58.4636 20.3579 58.7391 20.2244L58.9729 20.1075L60.1208 20.0991C60.9431 20.0908 61.323 20.1033 61.4565 20.1409ZM59.0897 21.1135C59.0271 21.1594 58.952 21.2638 58.9228 21.3431C58.8518 21.5476 58.8518 28.4769 58.9228 28.6814C58.952 28.7607 59.0271 28.8651 59.0897 28.911C59.2025 28.9945 59.2609 28.9987 60.2043 28.9987C61.1518 28.9987 61.2061 28.9945 61.3188 28.911C61.5442 28.7399 61.5442 28.8025 61.5317 24.9246C61.5317 24.9216 61.5317 24.9186 61.5317 24.9156C61.5192 21.3639 61.5191 21.343 61.4315 21.2262C61.2854 21.0258 61.1477 21.005 60.1333 21.0175C59.2692 21.0258 59.2025 21.03 59.0897 21.1135Z" fill="#0D313B"/>
<path d="M59.0897 21.1135C59.0271 21.1594 58.952 21.2638 58.9228 21.3431C58.8518 21.5476 58.8518 28.4769 58.9228 28.6814C58.952 28.7607 59.0271 28.8651 59.0897 28.911C59.2025 28.9945 59.2609 28.9987 60.2043 28.9987C61.1518 28.9987 61.2061 28.9945 61.3188 28.911C61.5442 28.7399 61.5442 28.8025 61.5317 24.9246L61.5317 24.9156C61.5192 21.3639 61.5191 21.343 61.4315 21.2262C61.2854 21.0258 61.1477 21.005 60.1333 21.0175C59.2692 21.0258 59.2025 21.03 59.0897 21.1135Z" fill="#CBEDDF"/>
<path d="M59.0897 21.1135L59.2376 21.3151L59.2386 21.3144L59.0897 21.1135ZM58.9228 21.3431L58.6881 21.2566L58.6866 21.2611L58.9228 21.3431ZM58.9228 28.6814L58.6865 28.7634L58.6882 28.7678L58.9228 28.6814ZM59.0897 28.911L59.2386 28.7101L59.2376 28.7094L59.0897 28.911ZM61.3188 28.911L61.4676 29.1119L61.47 29.1101L61.3188 28.911ZM61.4315 21.2262L61.2295 21.3735L61.2315 21.3762L61.4315 21.2262ZM60.1333 21.0175L60.1357 21.2675L60.1364 21.2675L60.1333 21.0175ZM58.9419 20.9119C58.8819 20.9559 58.8298 21.0159 58.7913 21.069C58.752 21.1233 58.7129 21.1895 58.6882 21.2566L59.1574 21.4295C59.1618 21.4173 59.175 21.3917 59.1961 21.3625C59.2059 21.349 59.2157 21.3372 59.2242 21.3281C59.2332 21.3184 59.238 21.3148 59.2376 21.3151L58.9419 20.9119ZM58.6866 21.2611C58.6736 21.2986 58.6694 21.3397 58.6678 21.3545C58.6651 21.3791 58.6628 21.4086 58.6608 21.4413C58.6567 21.5072 58.653 21.5952 58.6496 21.7008C58.6429 21.9126 58.6373 22.2026 58.6329 22.544C58.624 23.227 58.6196 24.1199 58.6196 25.0122C58.6196 25.9046 58.624 26.7975 58.6329 27.4805C58.6373 27.8218 58.6429 28.1119 58.6496 28.3237C58.653 28.4293 58.6567 28.5173 58.6608 28.5831C58.6628 28.6158 58.6651 28.6454 58.6678 28.67C58.6694 28.6847 58.6736 28.7259 58.6866 28.7634L59.159 28.5995C59.1675 28.6241 59.1674 28.6394 59.1649 28.6159C59.1634 28.6023 59.1617 28.5813 59.1598 28.5519C59.1562 28.4937 59.1527 28.4116 59.1494 28.3078C59.1428 28.1007 59.1373 27.8143 59.1328 27.474C59.124 26.7939 59.1196 25.9033 59.1196 25.0122C59.1196 24.1212 59.124 23.2306 59.1328 22.5505C59.1373 22.2102 59.1428 21.9238 59.1494 21.7167C59.1527 21.6128 59.1562 21.5308 59.1598 21.4726C59.1617 21.4432 59.1634 21.4222 59.1649 21.4086C59.1674 21.3851 59.1675 21.4003 59.159 21.425L58.6866 21.2611ZM58.6882 28.7678C58.7129 28.835 58.752 28.9012 58.7913 28.9555C58.8298 29.0086 58.8819 29.0686 58.9419 29.1126L59.2376 28.7094C59.238 28.7097 59.2332 28.706 59.2242 28.6964C59.2157 28.6873 59.2059 28.6755 59.1961 28.662C59.175 28.6328 59.1618 28.6072 59.1574 28.595L58.6882 28.7678ZM58.9409 29.1119C58.979 29.1401 59.0278 29.1729 59.0991 29.1969C59.1638 29.2187 59.2349 29.229 59.316 29.2354C59.475 29.2478 59.7382 29.2487 60.2043 29.2487V28.7487C59.727 28.7487 59.4893 28.7474 59.355 28.7369C59.2895 28.7318 59.2658 28.7254 59.2585 28.723C59.2576 28.7227 59.2569 28.7237 59.2386 28.7101L58.9409 29.1119ZM60.2043 29.2487C60.6724 29.2487 60.9357 29.2478 61.0942 29.2354C61.175 29.229 61.246 29.2186 61.3107 29.1966C61.3818 29.1725 61.4304 29.1395 61.4676 29.1119L61.17 28.7101C61.1509 28.7243 61.1504 28.723 61.15 28.7232C61.1432 28.7255 61.1203 28.7318 61.055 28.7369C60.9213 28.7474 60.6837 28.7487 60.2043 28.7487V29.2487ZM61.47 29.1101C61.5228 29.07 61.6208 29.0049 61.6811 28.8541C61.7296 28.7327 61.7509 28.565 61.7641 28.3214C61.7912 27.8216 61.7879 26.8572 61.7817 24.9238L61.2817 24.9254C61.288 26.8698 61.2909 27.8131 61.2648 28.2943C61.2514 28.5411 61.2312 28.6323 61.2168 28.6684C61.2141 28.6752 61.2275 28.6665 61.1676 28.7119L61.47 29.1101ZM61.6335 21.0789C61.5868 21.0149 61.5279 20.9473 61.4394 20.8936C61.3528 20.841 61.2558 20.8125 61.1475 20.7951C60.9419 20.7623 60.629 20.7613 60.1302 20.7675L60.1364 21.2675C60.652 21.2611 60.9151 21.2643 61.0685 21.2889C61.1397 21.3002 61.1679 21.3137 61.1799 21.321C61.1901 21.3272 61.2032 21.3373 61.2295 21.3735L61.6335 21.0789ZM60.1309 20.7675C59.7046 20.7716 59.4588 20.7746 59.3073 20.7883C59.2296 20.7953 59.1607 20.8063 59.0975 20.8281C59.0286 20.8518 58.9801 20.8836 58.9409 20.9126L59.2386 21.3144C59.2557 21.3017 59.2579 21.3016 59.2602 21.3008C59.2682 21.2981 59.2912 21.2918 59.3522 21.2863C59.4783 21.2749 59.698 21.2717 60.1357 21.2675L60.1309 20.7675ZM61.7817 24.9147C61.7754 23.1411 61.7723 22.2437 61.7596 21.7761C61.7534 21.5458 61.7447 21.4044 61.7288 21.3107C61.7204 21.2609 61.7084 21.2144 61.6884 21.17C61.6678 21.1242 61.6436 21.0923 61.6315 21.0762L61.2315 21.3762C61.2413 21.3893 61.2362 21.3836 61.2325 21.3752C61.2293 21.3681 61.2318 21.3701 61.2359 21.3942C61.245 21.4483 61.2535 21.556 61.2598 21.7896C61.2723 22.2495 61.2754 23.1384 61.2817 24.9165L61.7817 24.9147ZM61.4565 20.1409L61.3212 20.6222L61.3227 20.6226L61.4565 20.1409ZM62.3498 20.9173L62.8047 20.7096L62.802 20.7039L62.3498 20.9173ZM62.4375 28.9152L62.8903 29.1271L62.9375 29.0264V28.9152H62.4375ZM62.3457 29.1114L61.8928 28.8994L61.8905 28.9045L62.3457 29.1114ZM61.6694 29.8001L61.4513 29.3502L61.4458 29.3529L61.6694 29.8001ZM61.4357 29.917V30.417H61.5537L61.6593 30.3642L61.4357 29.917ZM58.9729 29.917L58.7493 30.3642L58.8548 30.417H58.9729V29.917ZM58.7391 29.8001L58.9627 29.3529L58.9572 29.3502L58.7391 29.8001ZM58.0629 29.1114L58.5181 28.9044L58.5157 28.8994L58.0629 29.1114ZM57.971 28.9152H57.471V29.0264L57.5182 29.1271L57.971 28.9152ZM57.971 21.1093L57.5182 20.8973L57.471 20.9981V21.1093H57.971ZM58.0629 20.9131L58.5158 21.1251L58.5181 21.12L58.0629 20.9131ZM58.7391 20.2244L58.9573 20.6743L58.9627 20.6716L58.7391 20.2244ZM58.9729 20.1075L58.9692 19.6075L58.8531 19.6083L58.7493 19.6603L58.9729 20.1075ZM60.1208 20.0991L60.1244 20.5991L60.1259 20.5991L60.1208 20.0991ZM61.3227 20.6226C61.5469 20.6849 61.7791 20.8795 61.8977 21.1307L62.802 20.7039C62.5699 20.2121 62.1176 19.8056 61.5904 19.6591L61.3227 20.6226ZM61.895 21.1249C61.9052 21.1474 61.902 21.1352 61.9053 21.159C61.9131 21.2148 61.9212 21.3282 61.9267 21.5854C61.9375 22.0909 61.9375 23.0589 61.9375 25.0122H62.9375C62.9375 23.0669 62.9375 22.0834 62.9264 21.5641C62.921 21.3089 62.9126 21.1416 62.8957 21.0208C62.8744 20.868 62.8383 20.7832 62.8047 20.7097L61.895 21.1249ZM61.9375 25.0122V28.9152H62.9375V25.0122H61.9375ZM61.9847 28.7032L61.8928 28.8994L62.7985 29.3233L62.8903 29.1271L61.9847 28.7032ZM61.8905 28.9045C61.8146 29.0714 61.6242 29.2664 61.4513 29.3502L61.8876 30.25C62.2656 30.0667 62.6263 29.7023 62.8008 29.3183L61.8905 28.9045ZM61.4458 29.3529L61.2121 29.4698L61.6593 30.3642L61.893 30.2473L61.4458 29.3529ZM61.4357 29.417H60.2043V30.417H61.4357V29.417ZM60.2043 29.417H58.9729V30.417H60.2043V29.417ZM59.1965 29.4698L58.9627 29.3529L58.5155 30.2473L58.7493 30.3642L59.1965 29.4698ZM58.9572 29.3502C58.7843 29.2664 58.5939 29.0714 58.5181 28.9045L57.6077 29.3183C57.7823 29.7023 58.1429 30.0667 58.521 30.25L58.9572 29.3502ZM58.5157 28.8994L58.4239 28.7032L57.5182 29.1271L57.61 29.3233L58.5157 28.8994ZM58.471 28.9152V25.0122H57.471V28.9152H58.471ZM58.471 25.0122V21.1093H57.471V25.0122H58.471ZM58.4239 21.3213L58.5157 21.1251L57.61 20.7012L57.5182 20.8973L58.4239 21.3213ZM58.5181 21.12C58.5939 20.9531 58.7843 20.7581 58.9572 20.6743L58.521 19.7745C58.1429 19.9578 57.7823 20.3222 57.6077 20.7062L58.5181 21.12ZM58.9627 20.6716L59.1965 20.5547L58.7493 19.6603L58.5155 19.7772L58.9627 20.6716ZM58.9765 20.6075L60.1244 20.5991L60.1172 19.5992L58.9692 19.6075L58.9765 20.6075ZM60.1259 20.5991C60.5354 20.595 60.8275 20.5961 61.0311 20.6025C61.2544 20.6096 61.3223 20.6225 61.3212 20.6222L61.5919 19.6596C61.4573 19.6217 61.2684 19.6096 61.0628 19.603C60.8375 19.5959 60.5285 19.595 60.1157 19.5992L60.1259 20.5991ZM62.0317 24.9228L62.0317 24.9139L61.0317 24.9174L61.0317 24.9263L62.0317 24.9228ZM62.0317 24.9228C62.0317 24.9192 62.0317 24.9175 62.0317 24.9139L61.0317 24.9174C61.0317 24.9197 61.0317 24.924 61.0317 24.9263L62.0317 24.9228Z" fill="#0D313B" mask="url(#path-3-outside-2_5883_47353)"/>
</g>
<g id="Vector_2">
<mask id="path-5-outside-3_5883_47353" maskUnits="userSpaceOnUse" x="48.9727" y="15.917" width="7" height="15" fill="black">
<rect fill="white" x="48.9727" y="15.917" width="7" height="15"/>
<path d="M54.0702 16.6236C54.4834 16.7739 54.8007 17.1161 54.9134 17.5461C54.9718 17.7715 54.9802 18.3684 54.9676 23.3483L54.9551 28.9001L54.8466 29.1297C54.7047 29.4386 54.5293 29.6306 54.258 29.7808L54.0368 29.9019L52.8179 29.9144C52.0707 29.9228 51.5364 29.9102 51.4404 29.8852C51.1941 29.8184 50.9019 29.6139 50.7433 29.3926C50.4511 28.9919 50.4678 29.33 50.4678 23.244C50.4678 17.1579 50.4511 17.496 50.7433 17.0953C50.9019 16.8782 51.1899 16.6737 51.4279 16.6069C51.6616 16.5401 53.8782 16.5568 54.0702 16.6236ZM51.5823 17.567C51.5197 17.6171 51.4529 17.7256 51.4279 17.8091C51.3694 18.0178 51.3694 28.4659 51.4279 28.6747C51.5155 28.9836 51.5155 28.9836 52.7219 28.9836C53.9282 28.9836 53.9282 28.9836 54.0159 28.6747C54.0743 28.4659 54.0743 18.0178 54.0159 17.8091C53.9909 17.7256 53.9241 17.6171 53.8615 17.567C53.7613 17.4877 53.6987 17.4835 52.7219 17.4835C51.7451 17.4835 51.6825 17.4877 51.5823 17.567Z"/>
<path d="M51.5823 17.567C51.5197 17.6171 51.4529 17.7256 51.4279 17.8091C51.3694 18.0178 51.3694 28.4659 51.4279 28.6747C51.5155 28.9836 51.5155 28.9836 52.7219 28.9836C53.9282 28.9836 53.9282 28.9836 54.0159 28.6747C54.0743 28.4659 54.0743 18.0178 54.0159 17.8091C53.9909 17.7256 53.9241 17.6171 53.8615 17.567C53.7613 17.4877 53.6987 17.4835 52.7219 17.4835C51.7451 17.4835 51.6825 17.4877 51.5823 17.567Z"/>
</mask>
<path d="M54.0702 16.6236C54.4834 16.7739 54.8007 17.1161 54.9134 17.5461C54.9718 17.7715 54.9802 18.3684 54.9676 23.3483L54.9551 28.9001L54.8466 29.1297C54.7047 29.4386 54.5293 29.6306 54.258 29.7808L54.0368 29.9019L52.8179 29.9144C52.0707 29.9228 51.5364 29.9102 51.4404 29.8852C51.1941 29.8184 50.9019 29.6139 50.7433 29.3926C50.4511 28.9919 50.4678 29.33 50.4678 23.244C50.4678 17.1579 50.4511 17.496 50.7433 17.0953C50.9019 16.8782 51.1899 16.6737 51.4279 16.6069C51.6616 16.5401 53.8782 16.5568 54.0702 16.6236ZM51.5823 17.567C51.5197 17.6171 51.4529 17.7256 51.4279 17.8091C51.3694 18.0178 51.3694 28.4659 51.4279 28.6747C51.5155 28.9836 51.5155 28.9836 52.7219 28.9836C53.9282 28.9836 53.9282 28.9836 54.0159 28.6747C54.0743 28.4659 54.0743 18.0178 54.0159 17.8091C53.9909 17.7256 53.9241 17.6171 53.8615 17.567C53.7613 17.4877 53.6987 17.4835 52.7219 17.4835C51.7451 17.4835 51.6825 17.4877 51.5823 17.567Z" fill="#0D313B"/>
<path d="M51.5823 17.567C51.5197 17.6171 51.4529 17.7256 51.4279 17.8091C51.3694 18.0178 51.3694 28.4659 51.4279 28.6747C51.5155 28.9836 51.5155 28.9836 52.7219 28.9836C53.9282 28.9836 53.9282 28.9836 54.0159 28.6747C54.0743 28.4659 54.0743 18.0178 54.0159 17.8091C53.9909 17.7256 53.9241 17.6171 53.8615 17.567C53.7613 17.4877 53.6987 17.4835 52.7219 17.4835C51.7451 17.4835 51.6825 17.4877 51.5823 17.567Z" fill="#68D4F4"/>
<path d="M51.5823 17.567L51.4271 17.371L51.4261 17.3717L51.5823 17.567ZM51.4279 17.8091L51.1884 17.7372L51.1871 17.7417L51.4279 17.8091ZM51.4279 28.6747L51.1871 28.7421L51.1874 28.7429L51.4279 28.6747ZM54.0159 28.6747L54.2564 28.7429L54.2566 28.7421L54.0159 28.6747ZM54.0159 17.8091L54.2567 17.7417L54.2554 17.7372L54.0159 17.8091ZM53.8615 17.567L54.0176 17.3717L54.0166 17.371L53.8615 17.567ZM51.4261 17.3717C51.365 17.4206 51.3153 17.4854 51.2796 17.5421C51.2428 17.6004 51.2089 17.6691 51.1884 17.7372L51.6673 17.8809C51.6719 17.8656 51.6839 17.8383 51.7024 17.8089C51.7111 17.7951 51.7197 17.7834 51.7272 17.7744C51.7352 17.7649 51.7393 17.7615 51.7385 17.7622L51.4261 17.3717ZM51.1871 17.7417C51.18 17.7671 51.1775 17.7916 51.1766 17.7994C51.1752 17.8125 51.1741 17.8269 51.1731 17.8415C51.1711 17.8711 51.1694 17.9092 51.1678 17.9541C51.1645 18.0445 51.1615 18.1693 51.1587 18.3228C51.1532 18.6303 51.1487 19.0574 51.145 19.5637C51.1377 20.5767 51.134 21.9094 51.134 23.2419C51.134 24.5743 51.1377 25.9071 51.145 26.92C51.1487 27.4264 51.1532 27.8535 51.1587 28.1609C51.1615 28.3144 51.1645 28.4393 51.1678 28.5296C51.1694 28.5746 51.1711 28.6127 51.1731 28.6422C51.1741 28.6568 51.1752 28.6713 51.1766 28.6843C51.1775 28.6921 51.18 28.7166 51.1871 28.7421L51.6686 28.6073C51.6739 28.6262 51.6746 28.6392 51.6737 28.6306C51.6734 28.6273 51.6728 28.6205 51.672 28.6092C51.6705 28.587 51.669 28.5545 51.6674 28.5115C51.6643 28.4257 51.6614 28.3045 51.6586 28.1519C51.6532 27.8472 51.6486 27.4222 51.645 26.9164C51.6377 25.9051 51.634 24.5736 51.634 23.2419C51.634 21.9101 51.6377 20.5786 51.645 19.5673C51.6486 19.0615 51.6532 18.6365 51.6586 18.3318C51.6614 18.1792 51.6643 18.058 51.6674 17.9723C51.669 17.9292 51.6705 17.8968 51.672 17.8745C51.6728 17.8632 51.6734 17.8565 51.6737 17.8531C51.6746 17.8446 51.6739 17.8576 51.6686 17.8765L51.1871 17.7417ZM51.1874 28.7429C51.2052 28.8057 51.2321 28.9124 51.2943 28.999C51.3714 29.1065 51.4791 29.1599 51.5973 29.1881C51.7058 29.214 51.8446 29.2238 52.016 29.2286C52.1914 29.2336 52.4218 29.2336 52.7219 29.2336V28.7336C52.4187 28.7336 52.1968 28.7335 52.0301 28.7288C51.8595 28.724 51.7667 28.7145 51.7134 28.7018C51.6698 28.6914 51.6857 28.6869 51.7005 28.7075C51.7033 28.7113 51.7007 28.7093 51.6941 28.6912C51.6871 28.6718 51.68 28.6475 51.6684 28.6064L51.1874 28.7429ZM52.7219 29.2336C53.0219 29.2336 53.2523 29.2336 53.4277 29.2286C53.5992 29.2238 53.738 29.214 53.8465 29.1881C53.9646 29.1599 54.0723 29.1065 54.1495 28.999C54.2116 28.9124 54.2386 28.8057 54.2564 28.7429L53.7754 28.6064C53.7637 28.6475 53.7567 28.6718 53.7497 28.6912C53.7431 28.7093 53.7405 28.7113 53.7433 28.7075C53.7581 28.6869 53.7739 28.6914 53.7304 28.7018C53.677 28.7145 53.5842 28.724 53.4136 28.7288C53.247 28.7335 53.025 28.7336 52.7219 28.7336V29.2336ZM54.2566 28.7421C54.2638 28.7166 54.2663 28.6921 54.2672 28.6843C54.2686 28.6713 54.2697 28.6568 54.2707 28.6422C54.2726 28.6127 54.2744 28.5746 54.276 28.5296C54.2793 28.4393 54.2823 28.3144 54.285 28.1609C54.2905 27.8535 54.2951 27.4264 54.2988 26.92C54.3061 25.9071 54.3097 24.5743 54.3097 23.2419C54.3097 21.9094 54.3061 20.5767 54.2988 19.5637C54.2951 19.0574 54.2905 18.6303 54.285 18.3228C54.2823 18.1693 54.2793 18.0445 54.276 17.9541C54.2744 17.9092 54.2726 17.8711 54.2707 17.8415C54.2697 17.8269 54.2686 17.8125 54.2672 17.7994C54.2663 17.7916 54.2638 17.7671 54.2566 17.7417L53.7752 17.8765C53.7699 17.8576 53.7691 17.8446 53.77 17.8531C53.7704 17.8565 53.771 17.8632 53.7718 17.8745C53.7732 17.8968 53.7748 17.9292 53.7763 17.9723C53.7795 18.058 53.7824 18.1792 53.7851 18.3318C53.7906 18.6365 53.7951 19.0615 53.7988 19.5673C53.8061 20.5786 53.8097 21.9101 53.8097 23.2419C53.8097 24.5736 53.8061 25.9051 53.7988 26.9164C53.7951 27.4222 53.7906 27.8472 53.7851 28.1519C53.7824 28.3045 53.7795 28.4257 53.7763 28.5115C53.7748 28.5545 53.7732 28.587 53.7718 28.6092C53.771 28.6205 53.7704 28.6273 53.77 28.6306C53.7691 28.6392 53.7699 28.6262 53.7752 28.6073L54.2566 28.7421ZM54.2554 17.7372C54.2349 17.6691 54.201 17.6004 54.1642 17.5421C54.1285 17.4854 54.0787 17.4206 54.0176 17.3717L53.7053 17.7622C53.7045 17.7615 53.7086 17.7649 53.7165 17.7744C53.724 17.7834 53.7326 17.7951 53.7413 17.8089C53.7599 17.8383 53.7719 17.8656 53.7764 17.8809L54.2554 17.7372ZM54.0166 17.371C53.9786 17.3409 53.9297 17.3069 53.8564 17.2829C53.792 17.2618 53.7201 17.2521 53.6386 17.2461C53.4768 17.2343 53.2051 17.2335 52.7219 17.2335V17.7335C53.2155 17.7335 53.4635 17.7347 53.6022 17.7448C53.6709 17.7498 53.6946 17.756 53.7006 17.758C53.7017 17.7584 53.7001 17.7579 53.6978 17.7566C53.6965 17.7558 53.698 17.7565 53.7063 17.763L54.0166 17.371ZM52.7219 17.2335C52.2387 17.2335 51.967 17.2343 51.8052 17.2461C51.7236 17.2521 51.6518 17.2618 51.5874 17.2829C51.514 17.3069 51.4651 17.3409 51.4271 17.371L51.7375 17.763C51.7457 17.7565 51.7472 17.7558 51.7459 17.7566C51.7437 17.7579 51.742 17.7584 51.7431 17.758C51.7492 17.756 51.7729 17.7498 51.8416 17.7448C51.9803 17.7347 52.2283 17.7335 52.7219 17.7335V17.2335ZM54.0702 16.6236L54.2411 16.1536L54.2344 16.1513L54.0702 16.6236ZM54.9134 17.5461L55.3974 17.4206L55.397 17.4193L54.9134 17.5461ZM54.9676 23.3483L54.4676 23.3471L54.4676 23.3472L54.9676 23.3483ZM54.9551 28.9001L55.4071 29.1138L55.4549 29.0128L55.4551 28.9012L54.9551 28.9001ZM54.8466 29.1297L54.3945 28.916L54.3922 28.9209L54.8466 29.1297ZM54.258 29.7808L54.498 30.2195L54.5003 30.2182L54.258 29.7808ZM54.0368 29.9019L54.0419 30.4019L54.167 30.4006L54.2768 30.3405L54.0368 29.9019ZM52.8179 29.9144L52.8128 29.4144L52.8123 29.4144L52.8179 29.9144ZM51.4404 29.8852L51.3095 30.3678L51.3142 30.369L51.4404 29.8852ZM50.7433 29.3926L51.1496 29.1013L51.1473 29.098L50.7433 29.3926ZM50.7433 17.0953L50.3396 16.8003L50.3393 16.8007L50.7433 17.0953ZM51.4279 16.6069L51.563 17.0883L51.5652 17.0876L51.4279 16.6069ZM53.8993 17.0935C54.1606 17.1885 54.3592 17.404 54.4297 17.6729L55.397 17.4193C55.2421 16.8283 54.8063 16.3592 54.241 16.1537L53.8993 17.0935ZM54.4294 17.6716C54.4394 17.7102 54.459 17.8404 54.4671 18.6692C54.4749 19.4653 54.4739 20.8559 54.4676 23.3471L55.4676 23.3496C55.4739 20.8608 55.475 19.4631 55.4671 18.6594C55.4595 17.8884 55.4458 17.6074 55.3974 17.4206L54.4294 17.6716ZM54.4676 23.3472L54.4551 28.8989L55.4551 28.9012L55.4676 23.3494L54.4676 23.3472ZM54.5031 28.6864L54.3945 28.916L55.2986 29.3433L55.4071 29.1138L54.5031 28.6864ZM54.3922 28.9209C54.2913 29.1406 54.1867 29.2488 54.0158 29.3434L54.5003 30.2182C54.8719 30.0124 55.118 29.7365 55.3009 29.3384L54.3922 28.9209ZM54.018 29.3422L53.7968 29.4633L54.2768 30.3405L54.498 30.2195L54.018 29.3422ZM54.0316 29.4019L52.8128 29.4144L52.823 30.4144L54.0419 30.4019L54.0316 29.4019ZM52.8123 29.4144C52.4422 29.4186 52.1276 29.4175 51.8959 29.4124C51.7796 29.4099 51.6876 29.4064 51.6213 29.4024C51.536 29.3972 51.5349 29.3931 51.5666 29.4014L51.3142 30.369C51.3938 30.3898 51.4956 30.3966 51.5608 30.4006C51.6451 30.4057 51.7513 30.4095 51.874 30.4122C52.1202 30.4176 52.4464 30.4186 52.8235 30.4144L52.8123 29.4144ZM51.5713 29.4026C51.4408 29.3673 51.2441 29.2331 51.1496 29.1013L50.3369 29.684C50.5597 29.9947 50.9474 30.2696 51.3095 30.3678L51.5713 29.4026ZM51.1473 29.098C51.0414 28.9528 51.0596 28.9856 51.0518 28.962C51.0362 28.9149 51.0117 28.7924 50.9955 28.428C50.9638 27.7164 50.9678 26.2972 50.9678 23.244H49.9678C49.9678 26.2768 49.9635 27.7316 49.9965 28.4725C50.0126 28.8345 50.0387 29.083 50.1022 29.2754C50.1734 29.4913 50.2991 29.6321 50.3393 29.6872L51.1473 29.098ZM50.9678 23.244C50.9678 20.1907 50.9638 18.7716 50.9955 18.0599C51.0117 17.6955 51.0362 17.573 51.0518 17.5259C51.0596 17.5024 51.0414 17.5351 51.1473 17.3899L50.3393 16.8007C50.2991 16.8558 50.1734 16.9966 50.1022 17.2125C50.0387 17.4049 50.0126 17.6534 49.9965 18.0154C49.9635 18.7563 49.9678 20.2111 49.9678 23.244H50.9678ZM51.147 17.3903C51.2447 17.2565 51.4412 17.1225 51.563 17.0883L51.2927 16.1255C50.9387 16.2249 50.5591 16.4999 50.3396 16.8003L51.147 17.3903ZM51.5652 17.0876C51.5354 17.0962 51.5421 17.091 51.6354 17.0845C51.7089 17.0794 51.8077 17.075 51.9263 17.0717C52.1624 17.0652 52.4613 17.0631 52.7612 17.0651C53.0612 17.0672 53.3575 17.0734 53.5884 17.083C53.7044 17.0878 53.7997 17.0933 53.869 17.0992C53.9039 17.1021 53.9276 17.1048 53.9418 17.1068C53.9662 17.1102 53.9439 17.109 53.9059 17.0958L54.2344 16.1513C54.1725 16.1298 54.1103 16.1206 54.0811 16.1165C54.0416 16.111 53.9977 16.1065 53.9532 16.1027C53.8636 16.0952 53.7524 16.0889 53.6299 16.0838C53.384 16.0736 53.0755 16.0673 52.7681 16.0652C52.4607 16.063 52.1496 16.0651 51.8984 16.0721C51.7733 16.0756 51.6591 16.0804 51.5659 16.0869C51.4925 16.092 51.3788 16.1009 51.2905 16.1261L51.5652 17.0876Z" fill="#0D313B" mask="url(#path-5-outside-3_5883_47353)"/>
</g>
<g id="Vector_3">
<mask id="path-7-outside-4_5883_47353" maskUnits="userSpaceOnUse" x="42.4648" y="11.917" width="6" height="19" fill="black">
<rect fill="white" x="42.4648" y="11.917" width="6" height="19"/>
<path d="M46.5507 13.0488C46.918 13.1657 47.2102 13.4454 47.3897 13.8461C47.4607 14.0047 47.4648 14.3846 47.4648 21.4641V28.9152L47.3563 29.1489C47.2186 29.437 46.989 29.6791 46.7135 29.8126C46.5048 29.917 46.5006 29.917 45.2316 29.917C43.9793 29.917 43.9543 29.917 43.7623 29.8168C43.4868 29.6832 43.2405 29.4286 43.1111 29.1531L42.9984 28.9152V21.4641V14.0131L43.1069 13.7793C43.2447 13.4913 43.4743 13.2492 43.7498 13.1156C43.9543 13.0113 43.9752 13.0113 45.169 13.0029C46.0748 12.9946 46.4213 13.0071 46.5507 13.0488ZM44.1463 13.9797C43.9042 14.1216 43.9167 13.6457 43.9167 21.4641C43.9167 27.379 43.9251 28.6898 43.971 28.7774C44.092 29.0028 44.1797 29.0195 45.2316 29.0195C46.2835 29.0195 46.3712 29.0028 46.4922 28.7774C46.5382 28.6898 46.5465 27.379 46.5465 21.4641C46.5465 13.6165 46.5632 14.1007 46.3169 13.9713C46.2376 13.9254 45.9872 13.9129 45.24 13.9087C44.4009 13.9087 44.2465 13.9171 44.1463 13.9797Z"/>
<path d="M44.1463 13.9797C43.9042 14.1216 43.9167 13.6457 43.9167 21.4641C43.9167 27.379 43.9251 28.6898 43.971 28.7774C44.092 29.0028 44.1797 29.0195 45.2316 29.0195C46.2835 29.0195 46.3712 29.0028 46.4922 28.7774C46.5382 28.6898 46.5465 27.379 46.5465 21.4641C46.5465 13.6165 46.5632 14.1007 46.3169 13.9713C46.2376 13.9254 45.9872 13.9129 45.24 13.9087C44.4009 13.9087 44.2465 13.9171 44.1463 13.9797Z"/>
</mask>
<path d="M46.5507 13.0488C46.918 13.1657 47.2102 13.4454 47.3897 13.8461C47.4607 14.0047 47.4648 14.3846 47.4648 21.4641V28.9152L47.3563 29.1489C47.2186 29.437 46.989 29.6791 46.7135 29.8126C46.5048 29.917 46.5006 29.917 45.2316 29.917C43.9793 29.917 43.9543 29.917 43.7623 29.8168C43.4868 29.6832 43.2405 29.4286 43.1111 29.1531L42.9984 28.9152V21.4641V14.0131L43.1069 13.7793C43.2447 13.4913 43.4743 13.2492 43.7498 13.1156C43.9543 13.0113 43.9752 13.0113 45.169 13.0029C46.0748 12.9946 46.4213 13.0071 46.5507 13.0488ZM44.1463 13.9797C43.9042 14.1216 43.9167 13.6457 43.9167 21.4641C43.9167 27.379 43.9251 28.6898 43.971 28.7774C44.092 29.0028 44.1797 29.0195 45.2316 29.0195C46.2835 29.0195 46.3712 29.0028 46.4922 28.7774C46.5382 28.6898 46.5465 27.379 46.5465 21.4641C46.5465 13.6165 46.5632 14.1007 46.3169 13.9713C46.2376 13.9254 45.9872 13.9129 45.24 13.9087C44.4009 13.9087 44.2465 13.9171 44.1463 13.9797Z" fill="#0D313B"/>
<path d="M44.1463 13.9797C43.9042 14.1216 43.9167 13.6457 43.9167 21.4641C43.9167 27.379 43.9251 28.6898 43.971 28.7774C44.092 29.0028 44.1797 29.0195 45.2316 29.0195C46.2835 29.0195 46.3712 29.0028 46.4922 28.7774C46.5382 28.6898 46.5465 27.379 46.5465 21.4641C46.5465 13.6165 46.5632 14.1007 46.3169 13.9713C46.2376 13.9254 45.9872 13.9129 45.24 13.9087C44.4009 13.9087 44.2465 13.9171 44.1463 13.9797Z" fill="#2894B4"/>
<path d="M44.1463 13.9797L44.2728 14.1954L44.2788 14.1917L44.1463 13.9797ZM43.971 28.7774L43.7495 28.8934L43.7507 28.8957L43.971 28.7774ZM46.4922 28.7774L46.7125 28.8957L46.7137 28.8934L46.4922 28.7774ZM46.3169 13.9713L46.1916 14.1879L46.2006 14.1926L46.3169 13.9713ZM45.24 13.9087L45.2414 13.6587H45.24V13.9087ZM44.0199 13.764C44.0165 13.766 44.0138 13.7673 43.9973 13.7751C43.9845 13.7811 43.9549 13.7948 43.9244 13.816C43.8478 13.8691 43.8008 13.9424 43.7714 14.0297C43.7455 14.1066 43.7299 14.204 43.7184 14.325C43.7066 14.4494 43.6977 14.6146 43.6908 14.8355C43.6636 15.7167 43.6667 17.5585 43.6667 21.4641H44.1667C44.1667 17.5514 44.1636 15.722 44.1906 14.851C44.1973 14.6338 44.2058 14.481 44.2161 14.3724C44.2268 14.2604 44.2383 14.21 44.2452 14.1894C44.2487 14.1791 44.2404 14.2053 44.2095 14.2267C44.2018 14.2321 44.1967 14.2338 44.2103 14.2274C44.2203 14.2227 44.2458 14.2111 44.2727 14.1954L44.0199 13.764ZM43.6667 21.4641C43.6667 24.4213 43.6688 26.2287 43.6766 27.3078C43.6806 27.847 43.6859 28.2065 43.6933 28.4375C43.6969 28.5525 43.7012 28.639 43.7063 28.7013C43.7089 28.7321 43.712 28.7609 43.7161 28.786C43.7186 28.8013 43.7259 28.8483 43.7495 28.8934L44.1924 28.6614C44.2104 28.6956 44.2122 28.7221 44.2096 28.7056C44.2085 28.6991 44.2067 28.6849 44.2046 28.66C44.2005 28.6106 44.1966 28.5342 44.193 28.4216C44.1859 28.1973 44.1805 27.843 44.1766 27.3042C44.1688 26.2273 44.1667 24.4219 44.1667 21.4641H43.6667ZM43.7507 28.8957C43.7847 28.959 43.8324 29.0397 43.9152 29.1057C43.9997 29.1732 44.0981 29.208 44.2051 29.2285C44.403 29.2665 44.7177 29.2695 45.2316 29.2695V28.7695C44.6936 28.7695 44.4386 28.7642 44.2994 28.7375C44.2686 28.7316 44.2502 28.7257 44.2397 28.7214C44.2301 28.7175 44.2272 28.7151 44.2271 28.7149C44.2265 28.7145 44.2178 28.7086 44.1912 28.6591L43.7507 28.8957ZM45.2316 29.2695C45.7455 29.2695 46.0603 29.2665 46.2581 29.2285C46.3652 29.208 46.4635 29.1732 46.5481 29.1057C46.6309 29.0397 46.6785 28.959 46.7125 28.8957L46.272 28.6591C46.2455 28.7086 46.2368 28.7145 46.2362 28.7149C46.236 28.7151 46.2331 28.7175 46.2235 28.7214C46.213 28.7257 46.1947 28.7316 46.1639 28.7375C46.0247 28.7642 45.7696 28.7695 45.2316 28.7695V29.2695ZM46.7137 28.8934C46.7373 28.8483 46.7447 28.8013 46.7472 28.786C46.7513 28.7609 46.7543 28.7321 46.7569 28.7013C46.7621 28.639 46.7663 28.5525 46.77 28.4375C46.7773 28.2065 46.7827 27.847 46.7866 27.3078C46.7944 26.2287 46.7965 24.4213 46.7965 21.4641H46.2965C46.2965 24.4219 46.2944 26.2273 46.2866 27.3042C46.2827 27.843 46.2774 28.1973 46.2702 28.4216C46.2666 28.5342 46.2627 28.6106 46.2586 28.66C46.2565 28.6849 46.2547 28.6991 46.2537 28.7056C46.251 28.7221 46.2529 28.6956 46.2708 28.6614L46.7137 28.8934ZM46.7965 21.4641C46.7965 17.544 46.8007 15.6969 46.774 14.8158C46.7672 14.595 46.7585 14.43 46.7467 14.3061C46.7352 14.1858 46.7196 14.0883 46.6929 14.0112C46.6623 13.9229 46.6123 13.8481 46.5302 13.7967C46.4982 13.7767 46.4672 13.7643 46.4546 13.7592C46.4381 13.7524 46.4358 13.7514 46.4332 13.75L46.2006 14.1926C46.2288 14.2074 46.2553 14.2178 46.2655 14.222C46.2798 14.2279 46.2737 14.226 46.2648 14.2205C46.229 14.198 46.218 14.1679 46.2205 14.175C46.2268 14.1933 46.2383 14.2419 46.2489 14.3535C46.2592 14.4614 46.2676 14.6138 46.2742 14.831C46.3006 15.7021 46.2965 17.5366 46.2965 21.4641H46.7965ZM46.4422 13.755C46.3827 13.7205 46.3162 13.7053 46.2613 13.6961C46.2019 13.6863 46.1294 13.6797 46.043 13.6748C45.8698 13.665 45.6143 13.6608 45.2414 13.6587L45.2386 14.1587C45.6128 14.1608 45.8561 14.165 46.0148 14.174C46.0943 14.1785 46.146 14.1839 46.1793 14.1894C46.2169 14.1956 46.2115 14.1992 46.1917 14.1877L46.4422 13.755ZM45.24 13.6587C44.8232 13.6587 44.5659 13.6607 44.4002 13.6712C44.2368 13.6816 44.1196 13.7015 44.0138 13.7677L44.2788 14.1917C44.2796 14.1912 44.2799 14.191 44.281 14.1906C44.2825 14.19 44.2873 14.1882 44.2975 14.1858C44.3198 14.1807 44.3592 14.1748 44.4319 14.1702C44.5783 14.1609 44.8177 14.1587 45.24 14.1587V13.6587ZM46.5507 13.0488L46.3972 13.5247L46.3991 13.5253L46.5507 13.0488ZM47.3897 13.8461L47.8461 13.6419L47.846 13.6417L47.3897 13.8461ZM47.4648 28.9152L47.9183 29.1257L47.9648 29.0256V28.9152H47.4648ZM47.3563 29.1489L47.8074 29.3647L47.8098 29.3595L47.3563 29.1489ZM46.7135 29.8126L46.4953 29.3627L46.4899 29.3654L46.7135 29.8126ZM43.7623 29.8168L43.9936 29.3735L43.987 29.3701L43.9804 29.3669L43.7623 29.8168ZM43.1111 29.1531L43.5637 28.9405L43.563 28.9391L43.1111 29.1531ZM42.9984 28.9152H42.4984V29.0276L42.5465 29.1292L42.9984 28.9152ZM42.9984 14.0131L42.5449 13.8025L42.4984 13.9027V14.0131H42.9984ZM43.1069 13.7793L42.6558 13.5636L42.6534 13.5688L43.1069 13.7793ZM43.7498 13.1156L43.9679 13.5656L43.977 13.561L43.7498 13.1156ZM45.169 13.0029L45.1725 13.5029L45.1736 13.5029L45.169 13.0029ZM46.3991 13.5253C46.6093 13.5922 46.8022 13.7576 46.9334 14.0505L47.846 13.6417C47.6182 13.1331 47.2267 12.7392 46.7023 12.5724L46.3991 13.5253ZM46.9333 14.0503C46.9113 14.0012 46.9223 13.9757 46.9323 14.1385C46.9418 14.2924 46.9489 14.5639 46.9539 15.0647C46.9638 16.0613 46.9648 17.9228 46.9648 21.4641H47.9648C47.9648 17.9259 47.9638 16.0577 47.9539 15.0548C47.9489 14.5559 47.9417 14.2602 47.9304 14.0771C47.9197 13.9027 47.9036 13.7703 47.8461 13.6419L46.9333 14.0503ZM46.9648 21.4641V28.9152H47.9648V21.4641H46.9648ZM47.0113 28.7046L46.9028 28.9384L47.8098 29.3595L47.9183 29.1257L47.0113 28.7046ZM46.9052 28.9332C46.8113 29.1295 46.6589 29.2834 46.4953 29.3627L46.9316 30.2625C47.319 30.0747 47.6258 29.7444 47.8074 29.3647L46.9052 28.9332ZM46.4899 29.3654C46.4338 29.3935 46.4317 29.3932 46.4304 29.3935C46.4297 29.3937 46.4101 29.3999 46.3351 29.4052C46.1719 29.4166 45.8783 29.417 45.2316 29.417V30.417C45.8539 30.417 46.1969 30.4173 46.4052 30.4027C46.516 30.3949 46.6158 30.3815 46.7143 30.3524C46.8121 30.3234 46.8888 30.284 46.9371 30.2598L46.4899 29.3654ZM45.2316 29.417C44.5939 29.417 44.2981 29.4167 44.1328 29.4056C44.0555 29.4004 44.0352 29.3943 44.0351 29.3943C44.0351 29.3943 44.0354 29.3943 44.0357 29.3944C44.0358 29.3945 44.035 29.3942 44.0328 29.3932C44.0267 29.3905 44.0173 29.3859 43.9936 29.3735L43.531 30.2601C43.5812 30.2863 43.6572 30.3261 43.7584 30.3552C43.8562 30.3834 43.9564 30.396 44.0659 30.4033C44.2742 30.4173 44.617 30.417 45.2316 30.417V29.417ZM43.9804 29.3669C43.8113 29.2849 43.646 29.1159 43.5637 28.9405L42.6585 29.3657C42.835 29.7414 43.1623 30.0816 43.5441 30.2667L43.9804 29.3669ZM43.563 28.9391L43.4503 28.7011L42.5465 29.1292L42.6592 29.3671L43.563 28.9391ZM43.4984 28.9152V21.4641H42.4984V28.9152H43.4984ZM43.4984 21.4641V14.0131H42.4984V21.4641H43.4984ZM43.4519 14.2236L43.5604 13.9899L42.6534 13.5688L42.5449 13.8025L43.4519 14.2236ZM43.558 13.995C43.6519 13.7987 43.8043 13.6448 43.9679 13.5655L43.5316 12.6657C43.1442 12.8535 42.8375 13.1839 42.6559 13.5636L43.558 13.995ZM43.977 13.561C44.028 13.535 44.0319 13.5346 44.0335 13.5341C44.0355 13.5335 44.0556 13.5274 44.1274 13.5217C44.2846 13.5094 44.5634 13.5072 45.1725 13.5029L45.1655 12.5029C44.5808 12.507 44.2522 12.5089 44.0494 12.5248C43.9412 12.5332 43.8431 12.5472 43.7463 12.5762C43.6492 12.6053 43.5738 12.6441 43.5225 12.6702L43.977 13.561ZM45.1736 13.5029C45.6259 13.4987 45.9297 13.4999 46.1341 13.5068C46.3592 13.5144 46.4092 13.5286 46.3972 13.5247L46.7042 12.573C46.5628 12.5273 46.3748 12.5144 46.1679 12.5074C45.9403 12.4997 45.6179 12.4988 45.1644 12.5029L45.1736 13.5029Z" fill="#0D313B" mask="url(#path-7-outside-4_5883_47353)"/>
</g>
</g>
</svg>
