<svg width="72" height="72" viewBox="0 0 72 72" fill="none" xmlns="http://www.w3.org/2000/svg">
<g id="product-bundle">
<g id="Group">
<g id="Vector">
<path d="M18.8709 33.7657C18.8709 25.5545 18.8522 17.4381 18.8802 9.32368C18.8913 6.21261 21.1167 4.02071 24.2296 4.01327C32.0669 3.99466 39.9041 3.99652 47.7413 4.01327C50.9528 4.02071 53.1261 6.24051 53.1261 9.50416C53.128 17.5498 53.1094 25.5954 53.1019 33.641C53.1019 33.6596 53.1205 33.6782 53.1633 33.7657C53.3792 33.7657 53.6304 33.7657 53.8797 33.7657C56.7861 33.7657 59.6944 33.7601 62.6007 33.7675C65.7453 33.775 67.9781 35.9613 67.9856 39.1096C68.0042 46.9691 68.006 54.8305 67.9837 62.6901C67.9744 65.7788 65.7881 67.9744 62.7068 67.9819C54.8231 68.0042 46.9393 68.0116 39.0556 67.9595C38.1643 67.954 37.2805 67.5241 36.3855 67.3157C36.1473 67.2599 35.8757 67.2469 35.6394 67.3008C34.7239 67.5111 33.8178 67.954 32.9042 67.9595C25.0446 68.0135 17.1832 68.0042 9.32367 67.9837C6.20329 67.9763 4.02071 65.7807 4.01327 62.651C3.99466 54.8138 3.99652 46.9766 4.01327 39.1393C4.02071 35.9538 6.24609 33.7731 9.43717 33.7657C12.3212 33.7601 15.2053 33.7638 18.0875 33.7638C18.3406 33.7657 18.5936 33.7657 18.8709 33.7657ZM36.0115 8.47334C32.199 8.47334 28.3864 8.47334 24.5739 8.47334C23.4984 8.47334 23.3384 8.63894 23.3384 9.73674C23.3384 17.3395 23.3365 24.9423 23.3384 32.5432C23.3384 33.574 23.5319 33.7657 24.5515 33.7657C32.1766 33.7657 39.8036 33.7657 47.4287 33.7657C48.4651 33.7657 48.6642 33.5759 48.6642 32.5655C48.6661 24.9404 48.6661 17.3135 48.6642 9.68836C48.6642 8.6501 48.4874 8.47334 47.4492 8.47334C43.6366 8.47148 39.8241 8.47334 36.0115 8.47334ZM33.7675 50.8598C33.7675 47.0249 33.7694 43.1882 33.7675 39.3533C33.7675 38.4472 33.5591 38.2332 32.6716 38.2332C24.9776 38.2313 17.2818 38.2313 9.58788 38.2332C8.66498 38.2332 8.47706 38.4155 8.47706 39.3273C8.47519 47.0212 8.47519 54.717 8.47706 62.411C8.47706 63.3618 8.63149 63.5237 9.56369 63.5237C17.2576 63.5255 24.9534 63.5255 32.6474 63.5237C33.5926 63.5237 33.7694 63.3376 33.7694 62.3663C33.7675 58.5314 33.7675 54.6966 33.7675 50.8598ZM50.8579 38.2313C47.0454 38.2313 43.2328 38.2313 39.4203 38.2313C38.4192 38.2313 38.2332 38.4137 38.2332 39.3998C38.2313 47.0473 38.2313 54.6965 38.2332 62.344C38.2332 63.3543 38.3969 63.5237 39.4017 63.5237C47.0491 63.5255 54.6984 63.5255 62.3458 63.5237C63.3841 63.5237 63.5255 63.386 63.5255 62.3626C63.5274 54.7152 63.5274 47.0659 63.5255 39.4184C63.5255 38.3839 63.3636 38.2313 62.2956 38.2313C58.483 38.2313 54.6705 38.2313 50.8579 38.2313Z" fill="#0D313B"/>
<path d="M36.0115 8.47334H24.5739C23.4984 8.47334 23.3384 8.63894 23.3384 9.73674C23.3384 17.3395 23.3365 24.9423 23.3384 32.5432C23.3384 33.574 23.5319 33.7657 24.5515 33.7657H47.4287C48.4651 33.7657 48.6642 33.5759 48.6642 32.5655C48.6661 24.9404 48.6661 17.3135 48.6642 9.68836C48.6642 8.6501 48.4874 8.47334 47.4492 8.47334C43.6366 8.47148 39.8241 8.47334 36.0115 8.47334Z" fill="#2894B4"/>
</g>
<path id="Vector_2" d="M32.2966 15.8636C34.7676 15.8636 37.1977 15.8636 39.6947 15.8636C39.7115 15.5715 39.7226 15.2793 39.745 14.9854C39.825 13.9062 40.6437 13.054 41.6931 12.9553C42.8467 12.8474 43.9631 13.5117 44.0748 14.6132C44.2125 15.9641 44.1957 17.3484 44.0729 18.703C43.9855 19.6631 43.0272 20.3534 42.0206 20.3572C38.0015 20.3739 33.9805 20.3795 29.9615 20.3534C28.7557 20.346 27.8607 19.3933 27.8142 18.1355C27.777 17.1382 27.7733 16.1371 27.8161 15.1398C27.8719 13.8094 28.8432 12.9125 30.1178 12.9442C31.344 12.9739 32.2185 13.8987 32.2687 15.2161C32.2724 15.4207 32.2855 15.6236 32.2966 15.8636Z" fill="#0D313B"/>
<path id="Vector_3" d="M17.4358 45.6197C19.8901 45.6197 22.3201 45.6197 24.8395 45.6197C24.8395 45.3368 24.8246 45.0652 24.8413 44.7954C24.9195 43.6175 25.8777 42.7095 27.0425 42.6984C28.2297 42.6854 29.2437 43.6157 29.2884 44.8196C29.3275 45.8876 29.3275 46.9593 29.2884 48.0274C29.2456 49.1791 28.3283 50.1039 27.1709 50.1114C23.1258 50.1355 19.0825 50.1374 15.0374 50.1095C13.8707 50.102 12.9906 49.1754 12.9534 48.0032C12.9199 46.9817 12.9255 45.9583 12.9478 44.9349C12.9757 43.6808 13.8782 42.7468 15.0709 42.7002C16.2617 42.6537 17.2386 43.5171 17.3856 44.7544C17.4153 45.028 17.4172 45.3033 17.4358 45.6197Z" fill="#0D313B"/>
<path id="Vector_4" d="M47.1602 45.6257C49.6666 45.6257 52.0948 45.6257 54.5397 45.6257C54.5881 45.2034 54.5993 44.8108 54.6811 44.4312C54.9193 43.3278 55.9315 42.604 57.0479 42.7082C58.1197 42.8087 59.0016 43.6888 59.0407 44.7791C59.0798 45.8695 59.0798 46.9654 59.0407 48.0558C58.9998 49.1927 58.116 50.1026 56.9791 50.11C52.9116 50.1379 48.8441 50.1379 44.7748 50.11C43.6584 50.1026 42.7523 49.1666 42.7095 48.0465C42.6685 46.9785 42.6722 45.9067 42.7057 44.8387C42.7448 43.6255 43.7384 42.6989 44.9311 42.7008C46.1182 42.7026 47.0895 43.6385 47.1546 44.8498C47.1714 45.0806 47.1602 45.3113 47.1602 45.6257Z" fill="#0D313B"/>
</g>
</g>
</svg>
