<svg width="72" height="72" viewBox="0 0 72 72" fill="none" xmlns="http://www.w3.org/2000/svg">
<g id="z-report">
<g id="Group">
<g id="Vector">
<mask id="path-1-outside-1_5883_47321" maskUnits="userSpaceOnUse" x="11" y="3" width="51" height="66" fill="black">
<rect fill="white" x="11" y="3" width="51" height="66"/>
<path d="M13.8747 4.26246C13.1998 4.59991 12.6124 5.18733 12.275 5.87473L12 6.43714V35.9953V65.5535L12.2875 66.1409C12.6499 66.8658 13.4998 67.6407 14.1622 67.8406C14.8746 68.0531 57.7433 68.0531 58.4557 67.8406C59.1181 67.6407 59.968 66.8658 60.3304 66.1409L60.6179 65.5535V40.8696V16.1857L60.3304 15.6233C60.1305 15.2234 58.4682 13.4736 54.6438 9.67417C50.0444 5.08734 49.1696 4.27496 48.7321 4.14998C48.3447 4.0375 43.8328 4 31.2972 4C14.6746 4.0125 14.3622 4.0125 13.8747 4.26246ZM46.3075 10.9615C46.3075 15.3858 46.3325 15.8608 46.5449 16.3107C46.8824 17.0606 47.3698 17.573 48.0822 17.923L48.7321 18.2479H52.1441H59.5L59 18C60 17 59.9249 17.4124 59.5 17L59 16.1857L58.0466 16.1766L52.4941 16.1232C49.1571 16.1232 48.8696 16.0732 48.5821 15.4358C48.4697 15.2109 48.4322 13.8861 48.4322 10.8365V6.56213L53.4064 11.5364L58.0466 16.1766L58.3682 16.4982V40.8696V65.2285L58.0807 65.516L57.7933 65.8034H36.3089H14.8246L14.5371 65.516L14.2497 65.2285L14.2247 36.1453C14.1997 12.9737 14.2247 6.99956 14.3497 6.7496C14.4371 6.58712 14.6496 6.37465 14.8121 6.28717C15.0621 6.16218 18.4616 6.12469 30.7223 6.12469H46.3075V10.9615Z"/>
<path d="M58.0466 16.1766L52.4941 16.1232C49.1571 16.1232 48.8696 16.0732 48.5821 15.4358C48.4697 15.2109 48.4322 13.8861 48.4322 10.8365V6.56213L53.4064 11.5364L58.0466 16.1766Z"/>
</mask>
<path d="M13.8747 4.26246C13.1998 4.59991 12.6124 5.18733 12.275 5.87473L12 6.43714V35.9953V65.5535L12.2875 66.1409C12.6499 66.8658 13.4998 67.6407 14.1622 67.8406C14.8746 68.0531 57.7433 68.0531 58.4557 67.8406C59.1181 67.6407 59.968 66.8658 60.3304 66.1409L60.6179 65.5535V40.8696V16.1857L60.3304 15.6233C60.1305 15.2234 58.4682 13.4736 54.6438 9.67417C50.0444 5.08734 49.1696 4.27496 48.7321 4.14998C48.3447 4.0375 43.8328 4 31.2972 4C14.6746 4.0125 14.3622 4.0125 13.8747 4.26246ZM46.3075 10.9615C46.3075 15.3858 46.3325 15.8608 46.5449 16.3107C46.8824 17.0606 47.3698 17.573 48.0822 17.923L48.7321 18.2479H52.1441H59.5L59 18C60 17 59.9249 17.4124 59.5 17L59 16.1857L58.0466 16.1766L52.4941 16.1232C49.1571 16.1232 48.8696 16.0732 48.5821 15.4358C48.4697 15.2109 48.4322 13.8861 48.4322 10.8365V6.56213L53.4064 11.5364L58.0466 16.1766L58.3682 16.4982V40.8696V65.2285L58.0807 65.516L57.7933 65.8034H36.3089H14.8246L14.5371 65.516L14.2497 65.2285L14.2247 36.1453C14.1997 12.9737 14.2247 6.99956 14.3497 6.7496C14.4371 6.58712 14.6496 6.37465 14.8121 6.28717C15.0621 6.16218 18.4616 6.12469 30.7223 6.12469H46.3075V10.9615Z" fill="#4D0000"/>
<path d="M58.0466 16.1766L52.4941 16.1232C49.1571 16.1232 48.8696 16.0732 48.5821 15.4358C48.4697 15.2109 48.4322 13.8861 48.4322 10.8365V6.56213L53.4064 11.5364L58.0466 16.1766Z" fill="#990000"/>
<path d="M52.4941 16.1232V15.9232L52.496 15.9232L52.4941 16.1232ZM48.5821 15.4358L48.7612 15.3463L48.7645 15.3536L48.5821 15.4358ZM48.4322 6.56213H48.2322V6.07928L48.5736 6.4207L48.4322 6.56213ZM58.0466 16.1766L58.188 16.0351L58.5341 16.3812L58.0447 16.3765L58.0466 16.1766ZM52.4941 16.3232C50.8345 16.3232 49.9064 16.3115 49.3599 16.2155C49.0822 16.1668 48.878 16.0927 48.7215 15.9691C48.5636 15.8445 48.4756 15.6861 48.3998 15.518L48.7645 15.3536C48.8324 15.5043 48.8881 15.5911 48.9693 15.6551C49.0518 15.7203 49.1819 15.7782 49.4291 15.8216C49.9324 15.9099 50.8166 15.9232 52.4941 15.9232V16.3232ZM48.4033 15.5253C48.3761 15.4709 48.3592 15.4025 48.3467 15.3351C48.3335 15.2633 48.3221 15.1748 48.3121 15.07C48.2922 14.8603 48.2768 14.5734 48.2651 14.2017C48.2415 13.4577 48.2322 12.3614 48.2322 10.8365H48.6322C48.6322 12.3612 48.6415 13.452 48.6649 14.1891C48.6765 14.5579 48.6916 14.835 48.7104 15.0322C48.7197 15.1309 48.7298 15.2066 48.7401 15.2623C48.7452 15.29 48.7501 15.311 48.7544 15.3261C48.7589 15.3421 48.7616 15.3475 48.761 15.3464L48.4033 15.5253ZM48.2322 10.8365V6.56213H48.6322V10.8365H48.2322ZM48.5736 6.4207L53.5479 11.395L53.265 11.6778L48.2907 6.70355L48.5736 6.4207ZM58.0447 16.3765L52.4921 16.3232L52.496 15.9232L58.0485 15.9766L58.0447 16.3765ZM53.5479 11.395L58.188 16.0351L57.9052 16.318L53.265 11.6778L53.5479 11.395ZM13.8747 4.26246L14.0573 4.61841L14.0536 4.62023L13.8747 4.26246ZM12.275 5.87473L11.9156 5.69904L11.9159 5.69846L12.275 5.87473ZM12 6.43714H11.6V6.3446L11.6406 6.26146L12 6.43714ZM12 65.5535L11.6407 65.7293L11.6 65.6461V65.5535H12ZM12.2875 66.1409L11.9297 66.3198L11.9282 66.3167L12.2875 66.1409ZM14.1622 67.8406L14.0479 68.224L14.0466 68.2236L14.1622 67.8406ZM58.4557 67.8406L58.5713 68.2236L58.57 68.224L58.4557 67.8406ZM60.3304 66.1409L60.6897 66.3167L60.6882 66.3198L60.3304 66.1409ZM60.6179 65.5535H61.0179V65.6461L60.9772 65.7293L60.6179 65.5535ZM60.6179 16.1857L60.9741 16.0037L61.0179 16.0894V16.1857H60.6179ZM60.3304 15.6233L59.9742 15.8054L59.9727 15.8022L60.3304 15.6233ZM54.6438 9.67417L54.3618 9.95794L54.3613 9.95739L54.6438 9.67417ZM48.7321 4.14998L48.6222 4.53459L48.6206 4.53412L48.7321 4.14998ZM31.2972 4L31.2969 3.6H31.2972V4ZM46.5449 16.3107L46.9067 16.1399L46.9097 16.1465L46.5449 16.3107ZM48.0822 17.923L48.2586 17.5639L48.2611 17.5652L48.0822 17.923ZM48.7321 18.2479V18.6479H48.6377L48.5532 18.6057L48.7321 18.2479ZM59.5 18.2479L59.6777 17.8895L59.5 18.6479V18.2479ZM59 18L58.8223 18.3584L58.3233 18.111L58.7172 17.7172L59 18ZM59.5 17L59.2214 17.287L59.1854 17.2521L59.1591 17.2093L59.5 17ZM59 16.1857L59.0038 15.7857L59.2251 15.7879L59.3409 15.9764L59 16.1857ZM58.3682 16.4982L58.6511 16.2153L58.7682 16.3325V16.4982H58.3682ZM58.3682 65.2285H58.7682V65.3942L58.6511 65.5114L58.3682 65.2285ZM57.7933 65.8034L58.0761 66.0863L57.959 66.2034H57.7933V65.8034ZM14.8246 65.8034V66.2034H14.6589L14.5417 66.0863L14.8246 65.8034ZM14.5371 65.516L14.82 65.2331H14.82L14.5371 65.516ZM14.2497 65.2285L13.9668 65.5114L13.8498 65.3944L13.8497 65.2289L14.2497 65.2285ZM14.2247 36.1453L14.6247 36.1449V36.1449L14.2247 36.1453ZM14.3497 6.7496L13.9917 6.57063L13.9975 6.55996L14.3497 6.7496ZM14.8121 6.28717L14.6224 5.93482L14.6332 5.9294L14.8121 6.28717ZM46.3075 6.12469V5.72469H46.7075V6.12469H46.3075ZM58.0466 16.1766L57.7637 16.4594L57.0715 15.7672L58.0504 15.7766L58.0466 16.1766ZM14.0536 4.62023C13.4566 4.91874 12.9327 5.44259 12.634 6.05099L11.9159 5.69846C12.2921 4.93206 12.943 4.28109 13.6958 3.90469L14.0536 4.62023ZM12.6343 6.05041L12.3594 6.61283L11.6406 6.26146L11.9156 5.69904L12.6343 6.05041ZM12.4 6.43714V35.9953H11.6V6.43714H12.4ZM12.4 35.9953V65.5535H11.6V35.9953H12.4ZM12.3593 65.3777L12.6467 65.9651L11.9282 66.3167L11.6407 65.7293L12.3593 65.3777ZM12.6452 65.962C12.7993 66.2701 13.0679 66.6069 13.3813 66.8915C13.6981 67.1793 14.0249 67.3814 14.2778 67.4577L14.0466 68.2236C13.637 68.0999 13.2077 67.8146 12.8434 67.4837C12.4757 67.1497 12.1381 66.7366 11.9297 66.3198L12.6452 65.962ZM14.2765 67.4573C14.2463 67.4483 14.2315 67.4489 14.2669 67.4525C14.2905 67.455 14.3257 67.4577 14.3743 67.4607C14.4707 67.4666 14.607 67.4724 14.7823 67.4782C15.1322 67.4897 15.627 67.5005 16.2472 67.5104C17.487 67.5303 19.2212 67.5469 21.286 67.5602C25.4151 67.5867 30.8618 67.6 36.3089 67.6C41.7561 67.6 47.2028 67.5867 51.3319 67.5602C53.3966 67.5469 55.1309 67.5303 56.3707 67.5104C56.9909 67.5005 57.4856 67.4897 57.8355 67.4782C58.0108 67.4724 58.1471 67.4666 58.2436 67.4607C58.2921 67.4577 58.3274 67.455 58.351 67.4525C58.3864 67.4489 58.3716 67.4483 58.3414 67.4573L58.57 68.224C58.5176 68.2396 58.4599 68.2456 58.4325 68.2484C58.3933 68.2524 58.3458 68.2559 58.2923 68.2592C58.1848 68.2658 58.0398 68.2719 57.8618 68.2778C57.5052 68.2895 57.0051 68.3003 56.3836 68.3103C55.1399 68.3303 53.4026 68.3469 51.337 68.3602C47.2056 68.3867 41.7571 68.4 36.3089 68.4C30.8608 68.4 25.4122 68.3867 21.2808 68.3602C19.2153 68.3469 17.478 68.3303 16.2343 68.3103C15.6128 68.3003 15.1127 68.2895 14.756 68.2778C14.5781 68.2719 14.4331 68.2658 14.3255 68.2592C14.272 68.2559 14.2246 68.2524 14.1854 68.2484C14.158 68.2456 14.1003 68.2396 14.0479 68.224L14.2765 67.4573ZM58.3401 67.4577C58.593 67.3814 58.9198 67.1793 59.2366 66.8915C59.55 66.6069 59.8186 66.2701 59.9727 65.962L60.6882 66.3198C60.4798 66.7366 60.1422 67.1497 59.7745 67.4837C59.4101 67.8146 58.9808 68.0999 58.5713 68.2236L58.3401 67.4577ZM59.9711 65.9651L60.2586 65.3777L60.9772 65.7293L60.6897 66.3167L59.9711 65.9651ZM60.2179 65.5535V40.8696H61.0179V65.5535H60.2179ZM60.2179 40.8696V16.1857H61.0179V40.8696H60.2179ZM60.2617 16.3678L59.9742 15.8053L60.6866 15.4413L60.9741 16.0037L60.2617 16.3678ZM59.9727 15.8022C59.9495 15.756 59.8447 15.61 59.5938 15.3221C59.3559 15.0492 59.0146 14.6792 58.5569 14.1997C57.6421 13.2414 56.2735 11.8571 54.3618 9.95794L54.9257 9.3904C56.8384 11.2907 58.2132 12.681 59.1356 13.6474C59.5965 14.1302 59.9473 14.5102 60.1969 14.7965C60.4334 15.0679 60.6113 15.2907 60.6882 15.4444L59.9727 15.8022ZM54.3613 9.95739C52.0603 7.66262 50.6968 6.31791 49.8542 5.53125C49.4322 5.13717 49.1495 4.89134 48.95 4.73809C48.7465 4.58184 48.658 4.54481 48.6222 4.53459L48.842 3.76537C49.025 3.81764 49.2099 3.92902 49.4372 4.10358C49.6684 4.28115 49.974 4.54852 50.4002 4.94651C51.2543 5.744 52.6279 7.09889 54.9262 9.39094L54.3613 9.95739ZM48.6206 4.53412C48.6229 4.5348 48.558 4.52303 48.3604 4.51043C48.1824 4.49908 47.9308 4.48854 47.5958 4.47893C46.9266 4.45971 45.9379 4.4445 44.5668 4.43279C41.8254 4.40937 37.5651 4.4 31.2972 4.4V3.6C37.5649 3.6 41.8284 3.60938 44.5736 3.63282C45.9459 3.64455 46.9412 3.65981 47.6188 3.67925C47.9572 3.68897 48.2195 3.69982 48.4113 3.71205C48.5836 3.72303 48.7444 3.73704 48.8436 3.76584L48.6206 4.53412ZM31.2975 4.4C22.9841 4.40625 18.7544 4.40939 16.5412 4.44214C15.4311 4.45857 14.8429 4.48235 14.5044 4.51582C14.1857 4.54732 14.1255 4.58339 14.0573 4.61839L13.6922 3.90653C13.8677 3.81656 14.0293 3.75889 14.4257 3.7197C14.8023 3.68246 15.4226 3.65861 16.5294 3.64223C18.7499 3.60937 22.9877 3.60625 31.2969 3.6L31.2975 4.4ZM46.7075 10.9615C46.7075 13.1775 46.7138 14.3916 46.7461 15.1085C46.7783 15.8231 46.8354 15.9889 46.9066 16.1399L46.1832 16.4815C46.0421 16.1825 45.9804 15.8859 45.9469 15.1445C45.9136 14.4053 45.9075 13.1698 45.9075 10.9615H46.7075ZM46.9097 16.1465C47.2106 16.8153 47.6334 17.2568 48.2586 17.5639L47.9059 18.282C47.1063 17.8892 46.5541 17.3059 46.1802 16.4748L46.9097 16.1465ZM48.2611 17.5652L48.911 17.8901L48.5532 18.6057L47.9033 18.2807L48.2611 17.5652ZM48.7321 17.8479H52.1441V18.6479H48.7321V17.8479ZM52.1441 17.8479H59.5V18.6479H52.1441V17.8479ZM59.3223 18.6063L58.8223 18.3584L59.1777 17.6416L59.6777 17.8895L59.3223 18.6063ZM58.7172 17.7172C58.9758 17.4586 59.1665 17.2897 59.3 17.1757C59.3742 17.1123 59.4086 17.0844 59.4483 17.0501C59.4911 17.0132 59.4788 17.0196 59.4602 17.0453C59.4482 17.0619 59.4146 17.1117 59.4016 17.1886C59.3864 17.279 59.4065 17.3638 59.443 17.429C59.4729 17.4825 59.5077 17.5121 59.5144 17.5178C59.523 17.5252 59.5271 17.5274 59.5161 17.5199C59.4734 17.4907 59.3573 17.419 59.2214 17.287L59.7786 16.713C59.8551 16.7873 59.9078 16.8186 59.9674 16.8593C59.982 16.8693 60.0075 16.887 60.0331 16.9088C60.0567 16.9289 60.104 16.9719 60.1414 17.0389C60.1855 17.1178 60.2083 17.2162 60.1906 17.3214C60.1751 17.4132 60.1338 17.4791 60.1085 17.5141C60.0633 17.5765 60.0022 17.6288 59.9711 17.6557C59.9368 17.6852 59.8722 17.739 59.8195 17.7841C59.6991 17.8868 59.5242 18.0414 59.2828 18.2828L58.7172 17.7172ZM59.1591 17.2093L58.6591 16.395L59.3409 15.9764L59.8409 16.7907L59.1591 17.2093ZM58.7682 16.4982V40.8696H57.9682V16.4982H58.7682ZM58.7682 40.8696V65.2285H57.9682V40.8696H58.7682ZM58.6511 65.5114L58.3636 65.7988L57.7979 65.2331L58.0854 64.9457L58.6511 65.5114ZM58.3636 65.7988L58.0761 66.0863L57.5104 65.5206L57.7979 65.2331L58.3636 65.7988ZM57.7933 66.2034H36.3089V65.4034H57.7933V66.2034ZM36.3089 66.2034H14.8246V65.4034H36.3089V66.2034ZM14.5417 66.0863L14.2543 65.7988L14.82 65.2331L15.1074 65.5206L14.5417 66.0863ZM14.2543 65.7988L13.9668 65.5114L14.5325 64.9457L14.82 65.2331L14.2543 65.7988ZM13.8497 65.2289L13.8247 36.1456L14.6247 36.1449L14.6497 65.2282L13.8497 65.2289ZM13.8247 36.1457C13.8122 24.5601 13.8122 17.2726 13.8309 12.8501C13.8403 10.6393 13.8544 9.14222 13.874 8.18146C13.8838 7.70166 13.895 7.35186 13.908 7.11243C13.9144 6.99332 13.9216 6.89628 13.9298 6.82201C13.934 6.78519 13.9389 6.74846 13.9454 6.71476C13.9498 6.69175 13.9615 6.6314 13.9919 6.57071L14.7074 6.92848C14.73 6.88342 14.7341 6.84987 14.7311 6.86554C14.7301 6.87052 14.7279 6.88436 14.7249 6.91068C14.7191 6.9627 14.7129 7.04227 14.7068 7.1557C14.6946 7.38133 14.6835 7.72029 14.6738 8.19778C14.6543 9.15158 14.6403 10.6431 14.6309 12.8535C14.6122 17.2735 14.6122 24.5588 14.6247 36.1449L13.8247 36.1457ZM13.9975 6.55996C14.066 6.43262 14.1695 6.30786 14.2699 6.20742C14.3704 6.10698 14.4951 6.00354 14.6224 5.93498L15.0017 6.63935C14.9666 6.65828 14.9039 6.70482 14.8356 6.77311C14.7673 6.84139 14.7208 6.90409 14.7018 6.93924L13.9975 6.55996ZM14.6332 5.9294C14.7065 5.89275 14.7865 5.87791 14.8296 5.8705C14.8857 5.86088 14.9525 5.85294 15.0279 5.84599C15.1793 5.83203 15.3888 5.81999 15.6639 5.80935C16.2153 5.78803 17.0516 5.77158 18.259 5.75908C20.6751 5.73406 24.5922 5.72469 30.7223 5.72469V6.52469C24.5916 6.52469 20.6786 6.53407 18.2673 6.55904C17.061 6.57153 16.2342 6.58789 15.6948 6.60875C15.4244 6.61921 15.2316 6.6306 15.1013 6.64261C15.0359 6.64865 14.992 6.65433 14.9649 6.65899C14.9248 6.66586 14.9489 6.66597 14.991 6.64494L14.6332 5.9294ZM30.7223 5.72469H46.3075V6.52469H30.7223V5.72469ZM46.7075 6.12469V10.9615H45.9075V6.12469H46.7075ZM58.3294 15.8937L58.6511 16.2153L58.0854 16.781L57.7637 16.4594L58.3294 15.8937ZM58.9962 16.5857L58.0428 16.5765L58.0504 15.7766L59.0038 15.7857L58.9962 16.5857Z" fill="#4D0000" mask="url(#path-1-outside-1_5883_47321)"/>
</g>
<g id="Vector_2">
<mask id="path-3-outside-2_5883_47321" maskUnits="userSpaceOnUse" x="18.7305" y="11.2495" width="13" height="18" fill="black">
<rect fill="white" x="18.7305" y="11.2495" width="13" height="18"/>
<path d="M24.9974 11.7238C24.6225 11.7988 24.185 12.2487 24.185 12.5612C24.185 12.7987 24.085 12.8611 23.4726 12.9861C21.9853 13.2736 20.5855 14.2234 20.0231 15.3108C19.7107 15.9232 19.6857 17.2105 19.9731 17.8979C20.4356 18.9977 21.9853 20.1476 23.6601 20.635L24.185 20.785V22.8222V24.8469L23.7226 24.7219C22.7352 24.4594 21.9353 23.8095 21.9353 23.2971C21.9353 23.1471 21.7979 22.8597 21.6354 22.6597C21.2354 22.1973 20.3981 22.1723 20.0481 22.6097C19.6857 23.0471 19.6482 23.4096 19.8607 24.147C20.2231 25.4093 21.4604 26.4217 23.1852 26.8591C24.0475 27.0716 24.1225 27.1216 24.21 27.4715C24.485 28.5088 26.0097 28.5088 26.2847 27.4715C26.3722 27.1216 26.4597 27.0716 27.2721 26.8591C28.4594 26.5591 29.0968 26.2217 29.8217 25.4968C30.859 24.4594 31.059 23.0971 30.3716 21.7473C29.8717 20.7725 28.8468 20.0101 27.2346 19.4227L26.3097 19.0852V17.1105C26.3097 14.8608 26.2722 14.9108 27.3096 15.3858C28.0594 15.7232 28.4094 16.0732 28.5594 16.6481C28.8343 17.6604 29.7467 17.9479 30.4591 17.2355C30.809 16.8981 30.834 16.8106 30.7591 16.2981C30.5466 14.7234 29.0468 13.3736 27.0471 12.9861C26.4097 12.8611 26.3097 12.7987 26.3097 12.5612C26.3097 12.0738 25.5848 11.6113 24.9974 11.7238ZM24.185 16.7481C24.185 18.5478 24.1975 18.5228 23.3726 18.1354C22.1228 17.573 21.6229 16.6731 22.1978 16.0357C22.5228 15.6857 23.6101 15.1233 23.9725 15.1233C24.16 15.1233 24.185 15.2858 24.185 16.7481ZM27.497 21.9848C28.2344 22.3972 28.6469 23.0222 28.5094 23.5346C28.4094 23.9345 27.697 24.4469 26.8846 24.6844L26.3097 24.8594V23.1721V21.4849L26.5972 21.5599C26.7471 21.6099 27.1596 21.7973 27.497 21.9848Z"/>
</mask>
<path d="M24.9974 11.7238C24.6225 11.7988 24.185 12.2487 24.185 12.5612C24.185 12.7987 24.085 12.8611 23.4726 12.9861C21.9853 13.2736 20.5855 14.2234 20.0231 15.3108C19.7107 15.9232 19.6857 17.2105 19.9731 17.8979C20.4356 18.9977 21.9853 20.1476 23.6601 20.635L24.185 20.785V22.8222V24.8469L23.7226 24.7219C22.7352 24.4594 21.9353 23.8095 21.9353 23.2971C21.9353 23.1471 21.7979 22.8597 21.6354 22.6597C21.2354 22.1973 20.3981 22.1723 20.0481 22.6097C19.6857 23.0471 19.6482 23.4096 19.8607 24.147C20.2231 25.4093 21.4604 26.4217 23.1852 26.8591C24.0475 27.0716 24.1225 27.1216 24.21 27.4715C24.485 28.5088 26.0097 28.5088 26.2847 27.4715C26.3722 27.1216 26.4597 27.0716 27.2721 26.8591C28.4594 26.5591 29.0968 26.2217 29.8217 25.4968C30.859 24.4594 31.059 23.0971 30.3716 21.7473C29.8717 20.7725 28.8468 20.0101 27.2346 19.4227L26.3097 19.0852V17.1105C26.3097 14.8608 26.2722 14.9108 27.3096 15.3858C28.0594 15.7232 28.4094 16.0732 28.5594 16.6481C28.8343 17.6604 29.7467 17.9479 30.4591 17.2355C30.809 16.8981 30.834 16.8106 30.7591 16.2981C30.5466 14.7234 29.0468 13.3736 27.0471 12.9861C26.4097 12.8611 26.3097 12.7987 26.3097 12.5612C26.3097 12.0738 25.5848 11.6113 24.9974 11.7238ZM24.185 16.7481C24.185 18.5478 24.1975 18.5228 23.3726 18.1354C22.1228 17.573 21.6229 16.6731 22.1978 16.0357C22.5228 15.6857 23.6101 15.1233 23.9725 15.1233C24.16 15.1233 24.185 15.2858 24.185 16.7481ZM27.497 21.9848C28.2344 22.3972 28.6469 23.0222 28.5094 23.5346C28.4094 23.9345 27.697 24.4469 26.8846 24.6844L26.3097 24.8594V23.1721V21.4849L26.5972 21.5599C26.7471 21.6099 27.1596 21.7973 27.497 21.9848Z" fill="#4D0000"/>
<path d="M24.9974 11.7238C24.6225 11.7988 24.185 12.2487 24.185 12.5612C24.185 12.7987 24.085 12.8611 23.4726 12.9861C21.9853 13.2736 20.5855 14.2234 20.0231 15.3108C19.7107 15.9232 19.6857 17.2105 19.9731 17.8979C20.4356 18.9977 21.9853 20.1476 23.6601 20.635L24.185 20.785V22.8222V24.8469L23.7226 24.7219C22.7352 24.4594 21.9353 23.8095 21.9353 23.2971C21.9353 23.1471 21.7979 22.8597 21.6354 22.6597C21.2354 22.1973 20.3981 22.1723 20.0481 22.6097C19.6857 23.0471 19.6482 23.4096 19.8607 24.147C20.2231 25.4093 21.4604 26.4217 23.1852 26.8591C24.0475 27.0716 24.1225 27.1216 24.21 27.4715C24.485 28.5088 26.0097 28.5088 26.2847 27.4715C26.3722 27.1216 26.4597 27.0716 27.2721 26.8591C28.4594 26.5591 29.0968 26.2217 29.8217 25.4968C30.859 24.4594 31.059 23.0971 30.3716 21.7473C29.8717 20.7725 28.8468 20.0101 27.2346 19.4227L26.3097 19.0852V17.1105C26.3097 14.8608 26.2722 14.9108 27.3096 15.3858C28.0594 15.7232 28.4094 16.0732 28.5594 16.6481C28.8343 17.6604 29.7467 17.9479 30.4591 17.2355C30.809 16.8981 30.834 16.8106 30.7591 16.2981C30.5466 14.7234 29.0468 13.3736 27.0471 12.9861C26.4097 12.8611 26.3097 12.7987 26.3097 12.5612C26.3097 12.0738 25.5848 11.6113 24.9974 11.7238ZM24.185 16.7481C24.185 18.5478 24.1975 18.5228 23.3726 18.1354C22.1228 17.573 21.6229 16.6731 22.1978 16.0357C22.5228 15.6857 23.6101 15.1233 23.9725 15.1233C24.16 15.1233 24.185 15.2858 24.185 16.7481ZM27.497 21.9848C28.2344 22.3972 28.6469 23.0222 28.5094 23.5346C28.4094 23.9345 27.697 24.4469 26.8846 24.6844L26.3097 24.8594V23.1721V21.4849L26.5972 21.5599C26.7471 21.6099 27.1596 21.7973 27.497 21.9848Z" stroke="#4D0000" stroke-width="0.8" mask="url(#path-3-outside-2_5883_47321)"/>
</g>
<g id="Vector_3">
<mask id="path-4-outside-3_5883_47321" maskUnits="userSpaceOnUse" x="32.0469" y="13.1084" width="13" height="4" fill="black">
<rect fill="white" x="32.0469" y="13.1084" width="13" height="4"/>
<path d="M33.598 13.9986C32.7481 14.3361 32.9231 15.8359 33.8354 16.0608C33.9979 16.0983 36.2226 16.1233 38.7847 16.0983L43.459 16.0608L43.759 15.7109C44.1714 15.2235 44.1464 14.6985 43.6965 14.2361L43.334 13.8737L38.5972 13.8862C35.9976 13.8862 33.748 13.9362 33.598 13.9986Z"/>
</mask>
<path d="M33.598 13.9986C32.7481 14.3361 32.9231 15.8359 33.8354 16.0608C33.9979 16.0983 36.2226 16.1233 38.7847 16.0983L43.459 16.0608L43.759 15.7109C44.1714 15.2235 44.1464 14.6985 43.6965 14.2361L43.334 13.8737L38.5972 13.8862C35.9976 13.8862 33.748 13.9362 33.598 13.9986Z" fill="#4D0000"/>
<path d="M33.598 13.9986C32.7481 14.3361 32.9231 15.8359 33.8354 16.0608C33.9979 16.0983 36.2226 16.1233 38.7847 16.0983L43.459 16.0608L43.759 15.7109C44.1714 15.2235 44.1464 14.6985 43.6965 14.2361L43.334 13.8737L38.5972 13.8862C35.9976 13.8862 33.748 13.9362 33.598 13.9986Z" stroke="#4D0000" stroke-width="0.8" mask="url(#path-4-outside-3_5883_47321)"/>
</g>
<g id="Vector_4">
<mask id="path-5-outside-4_5883_47321" maskUnits="userSpaceOnUse" x="32.043" y="21.8721" width="18" height="4" fill="black">
<rect fill="white" x="32.043" y="21.8721" width="18" height="4"/>
<path d="M33.3855 23.0098C32.9481 23.3598 32.9231 24.1972 33.348 24.5971L33.6355 24.8721H41.3344H49.0457L49.2957 24.5471C49.6581 24.0847 49.6332 23.4348 49.2457 23.0598L48.9458 22.7474H41.3344C33.823 22.7474 33.7105 22.7474 33.3855 23.0098Z"/>
</mask>
<path d="M33.3855 23.0098C32.9481 23.3598 32.9231 24.1972 33.348 24.5971L33.6355 24.8721H41.3344H49.0457L49.2957 24.5471C49.6581 24.0847 49.6332 23.4348 49.2457 23.0598L48.9458 22.7474H41.3344C33.823 22.7474 33.7105 22.7474 33.3855 23.0098Z" fill="#4D0000"/>
<path d="M33.3855 23.0098C32.9481 23.3598 32.9231 24.1972 33.348 24.5971L33.6355 24.8721H41.3344H49.0457L49.2957 24.5471C49.6581 24.0847 49.6332 23.4348 49.2457 23.0598L48.9458 22.7474H41.3344C33.823 22.7474 33.7105 22.7474 33.3855 23.0098Z" stroke="#4D0000" stroke-width="0.8" mask="url(#path-5-outside-4_5883_47321)"/>
</g>
<g id="Vector_5">
<mask id="path-6-outside-5_5883_47321" maskUnits="userSpaceOnUse" x="20.9375" y="30.2573" width="31" height="31" fill="black">
<rect fill="white" x="20.9375" y="30.2573" width="31" height="31"/>
<path d="M33.6858 31.8083C32.636 32.0082 30.8362 32.6081 29.8739 33.0831C25.0746 35.4827 21.95 40.5445 21.9375 45.9312C21.925 52.7927 26.8993 58.7918 33.6358 60.0541C35.0356 60.3166 37.5727 60.3291 38.96 60.0666C43.3469 59.2417 47.2213 56.3047 49.2335 52.2678C50.3959 49.9556 50.9083 46.8186 50.5583 44.119C49.7459 37.8824 44.9841 32.8831 38.8225 31.8083C37.5352 31.5833 34.9481 31.5833 33.6858 31.8083ZM38.7476 34.0454C42.0471 34.7578 44.9092 36.77 46.6589 39.6196C47.9087 41.6568 48.4836 43.8315 48.4211 46.3061C48.3961 47.156 48.3337 47.8934 48.2837 47.9434C48.2337 47.9934 45.759 47.3685 42.7845 46.5561C39.8099 45.7437 37.2728 45.0563 37.1603 45.0188C37.0353 44.9938 35.1856 42.9941 33.0484 40.5945C28.599 35.5827 28.849 36.1576 30.6487 35.2203C33.2609 33.858 36.023 33.458 38.7476 34.0454ZM30.9362 41.5818L34.3482 45.4188L29.4239 47.056L24.4996 48.7058L24.3997 48.3808C24.1997 47.7684 24.1497 45.0313 24.3122 44.019C24.5121 42.7692 25.1621 40.9444 25.7995 39.8696C26.3619 38.9322 27.2617 37.7449 27.4242 37.7449C27.4742 37.7449 29.0615 39.4696 30.9362 41.5818ZM42.4345 48.7558C45.2841 49.5307 47.6463 50.1806 47.6713 50.2056C47.6962 50.2306 47.4963 50.7055 47.2088 51.2804C45.909 53.905 43.5594 56.0797 40.8098 57.2045C39.1475 57.8794 38.3101 58.0419 36.3104 58.0419C34.8106 58.0419 34.3107 57.9919 33.4358 57.767C32.586 57.5295 31.2862 57.0671 31.0862 56.9171C31.0612 56.9046 32.3485 54.7174 33.9358 52.0553C36.1354 48.4058 36.8978 47.256 37.0478 47.2935C37.1603 47.331 39.5849 47.9809 42.4345 48.7558ZM31.5486 51.7053C30.3613 53.6801 29.3239 55.4048 29.2365 55.5423C29.099 55.7547 28.999 55.6923 28.0241 54.7424C26.9743 53.7425 25.9869 52.4552 25.4495 51.3929C25.2995 51.0929 25.187 50.8305 25.212 50.818C25.387 50.718 33.6358 48.0309 33.6608 48.0559C33.6858 48.0809 32.7359 49.7181 31.5486 51.7053Z"/>
<path d="M38.7476 34.0454C42.0471 34.7578 44.9092 36.77 46.6589 39.6196C47.9087 41.6568 48.4836 43.8315 48.4211 46.3061C48.3961 47.156 48.3337 47.8934 48.2837 47.9434C48.2337 47.9934 45.759 47.3685 42.7845 46.5561C39.8099 45.7437 37.2728 45.0563 37.1603 45.0188C37.0353 44.9938 35.1856 42.9941 33.0484 40.5945C28.599 35.5827 28.849 36.1576 30.6487 35.2203C33.2609 33.858 36.023 33.458 38.7476 34.0454Z"/>
<path d="M30.9362 41.5818L34.3482 45.4188L29.4239 47.056L24.4996 48.7058L24.3997 48.3808C24.1997 47.7684 24.1497 45.0313 24.3122 44.019C24.5121 42.7692 25.1621 40.9444 25.7995 39.8696C26.3619 38.9322 27.2617 37.7449 27.4242 37.7449C27.4742 37.7449 29.0615 39.4696 30.9362 41.5818Z"/>
<path d="M42.4345 48.7558C45.2841 49.5307 47.6463 50.1806 47.6713 50.2056C47.6962 50.2306 47.4963 50.7055 47.2088 51.2804C45.909 53.905 43.5594 56.0797 40.8098 57.2045C39.1475 57.8794 38.3101 58.0419 36.3104 58.0419C34.8106 58.0419 34.3107 57.9919 33.4358 57.767C32.586 57.5295 31.2862 57.0671 31.0862 56.9171C31.0612 56.9046 32.3485 54.7174 33.9358 52.0553C36.1354 48.4058 36.8978 47.256 37.0478 47.2935C37.1603 47.331 39.5849 47.9809 42.4345 48.7558Z"/>
<path d="M31.5486 51.7053C30.3613 53.6801 29.3239 55.4048 29.2365 55.5423C29.099 55.7547 28.999 55.6923 28.0241 54.7424C26.9743 53.7425 25.9869 52.4552 25.4495 51.3929C25.2995 51.0929 25.187 50.8305 25.212 50.818C25.387 50.718 33.6358 48.0309 33.6608 48.0559C33.6858 48.0809 32.7359 49.7181 31.5486 51.7053Z"/>
</mask>
<path d="M33.6858 31.8083C32.636 32.0082 30.8362 32.6081 29.8739 33.0831C25.0746 35.4827 21.95 40.5445 21.9375 45.9312C21.925 52.7927 26.8993 58.7918 33.6358 60.0541C35.0356 60.3166 37.5727 60.3291 38.96 60.0666C43.3469 59.2417 47.2213 56.3047 49.2335 52.2678C50.3959 49.9556 50.9083 46.8186 50.5583 44.119C49.7459 37.8824 44.9841 32.8831 38.8225 31.8083C37.5352 31.5833 34.9481 31.5833 33.6858 31.8083ZM38.7476 34.0454C42.0471 34.7578 44.9092 36.77 46.6589 39.6196C47.9087 41.6568 48.4836 43.8315 48.4211 46.3061C48.3961 47.156 48.3337 47.8934 48.2837 47.9434C48.2337 47.9934 45.759 47.3685 42.7845 46.5561C39.8099 45.7437 37.2728 45.0563 37.1603 45.0188C37.0353 44.9938 35.1856 42.9941 33.0484 40.5945C28.599 35.5827 28.849 36.1576 30.6487 35.2203C33.2609 33.858 36.023 33.458 38.7476 34.0454ZM30.9362 41.5818L34.3482 45.4188L29.4239 47.056L24.4996 48.7058L24.3997 48.3808C24.1997 47.7684 24.1497 45.0313 24.3122 44.019C24.5121 42.7692 25.1621 40.9444 25.7995 39.8696C26.3619 38.9322 27.2617 37.7449 27.4242 37.7449C27.4742 37.7449 29.0615 39.4696 30.9362 41.5818ZM42.4345 48.7558C45.2841 49.5307 47.6463 50.1806 47.6713 50.2056C47.6962 50.2306 47.4963 50.7055 47.2088 51.2804C45.909 53.905 43.5594 56.0797 40.8098 57.2045C39.1475 57.8794 38.3101 58.0419 36.3104 58.0419C34.8106 58.0419 34.3107 57.9919 33.4358 57.767C32.586 57.5295 31.2862 57.0671 31.0862 56.9171C31.0612 56.9046 32.3485 54.7174 33.9358 52.0553C36.1354 48.4058 36.8978 47.256 37.0478 47.2935C37.1603 47.331 39.5849 47.9809 42.4345 48.7558ZM31.5486 51.7053C30.3613 53.6801 29.3239 55.4048 29.2365 55.5423C29.099 55.7547 28.999 55.6923 28.0241 54.7424C26.9743 53.7425 25.9869 52.4552 25.4495 51.3929C25.2995 51.0929 25.187 50.8305 25.212 50.818C25.387 50.718 33.6358 48.0309 33.6608 48.0559C33.6858 48.0809 32.7359 49.7181 31.5486 51.7053Z" fill="#4D0000"/>
<path d="M38.7476 34.0454C42.0471 34.7578 44.9092 36.77 46.6589 39.6196C47.9087 41.6568 48.4836 43.8315 48.4211 46.3061C48.3961 47.156 48.3337 47.8934 48.2837 47.9434C48.2337 47.9934 45.759 47.3685 42.7845 46.5561C39.8099 45.7437 37.2728 45.0563 37.1603 45.0188C37.0353 44.9938 35.1856 42.9941 33.0484 40.5945C28.599 35.5827 28.849 36.1576 30.6487 35.2203C33.2609 33.858 36.023 33.458 38.7476 34.0454Z" fill="#990000"/>
<path d="M30.9362 41.5818L34.3482 45.4188L29.4239 47.056L24.4996 48.7058L24.3997 48.3808C24.1997 47.7684 24.1497 45.0313 24.3122 44.019C24.5121 42.7692 25.1621 40.9444 25.7995 39.8696C26.3619 38.9322 27.2617 37.7449 27.4242 37.7449C27.4742 37.7449 29.0615 39.4696 30.9362 41.5818Z" fill="#990000"/>
<path d="M42.4345 48.7558C45.2841 49.5307 47.6463 50.1806 47.6713 50.2056C47.6962 50.2306 47.4963 50.7055 47.2088 51.2804C45.909 53.905 43.5594 56.0797 40.8098 57.2045C39.1475 57.8794 38.3101 58.0419 36.3104 58.0419C34.8106 58.0419 34.3107 57.9919 33.4358 57.767C32.586 57.5295 31.2862 57.0671 31.0862 56.9171C31.0612 56.9046 32.3485 54.7174 33.9358 52.0553C36.1354 48.4058 36.8978 47.256 37.0478 47.2935C37.1603 47.331 39.5849 47.9809 42.4345 48.7558Z" fill="#FF8080"/>
<path d="M31.5486 51.7053C30.3613 53.6801 29.3239 55.4048 29.2365 55.5423C29.099 55.7547 28.999 55.6923 28.0241 54.7424C26.9743 53.7425 25.9869 52.4552 25.4495 51.3929C25.2995 51.0929 25.187 50.8305 25.212 50.818C25.387 50.718 33.6358 48.0309 33.6608 48.0559C33.6858 48.0809 32.7359 49.7181 31.5486 51.7053Z" fill="#E60000"/>
<path d="M38.7476 34.0454L38.7897 33.8499L38.7898 33.8499L38.7476 34.0454ZM46.6589 39.6196L46.8293 39.515L46.8294 39.515L46.6589 39.6196ZM48.4211 46.3061L48.6211 46.3112L48.6211 46.312L48.4211 46.3061ZM37.1603 45.0188L37.1995 44.8227L37.2117 44.8251L37.2235 44.8291L37.1603 45.0188ZM33.0484 40.5945L32.899 40.7275L32.8988 40.7272L33.0484 40.5945ZM30.6487 35.2203L30.7412 35.3976L30.7411 35.3976L30.6487 35.2203ZM30.9362 41.5818L30.7867 41.7147L30.7866 41.7146L30.9362 41.5818ZM34.3482 45.4188L34.4977 45.2859L34.6994 45.5128L34.4113 45.6085L34.3482 45.4188ZM29.4239 47.056L29.3604 46.8664L29.3608 46.8662L29.4239 47.056ZM24.4996 48.7058L24.5632 48.8954L24.3688 48.9605L24.3085 48.7646L24.4996 48.7058ZM24.3997 48.3808L24.5898 48.3187L24.5908 48.322L24.3997 48.3808ZM24.3122 44.019L24.5097 44.0506L24.5096 44.0507L24.3122 44.019ZM25.7995 39.8696L25.6274 39.7676L25.628 39.7667L25.7995 39.8696ZM47.2088 51.2804L47.0296 51.1916L47.0299 51.191L47.2088 51.2804ZM40.8098 57.2045L40.8855 57.3896L40.885 57.3898L40.8098 57.2045ZM33.4358 57.767L33.386 57.9607L33.382 57.9596L33.4358 57.767ZM31.0862 56.9171L31.1756 56.7382L31.1918 56.7463L31.2062 56.7571L31.0862 56.9171ZM33.9358 52.0553L33.764 51.9529L33.7645 51.952L33.9358 52.0553ZM37.0478 47.2935L37.0963 47.0995L37.1038 47.1013L37.1111 47.1038L37.0478 47.2935ZM31.5486 51.7053L31.7203 51.8079L31.72 51.8084L31.5486 51.7053ZM29.2365 55.5423L29.4052 55.6497L29.4044 55.6509L29.2365 55.5423ZM28.0241 54.7424L28.1621 54.5976L28.1637 54.5992L28.0241 54.7424ZM25.4495 51.3929L25.271 51.4832L25.2706 51.4823L25.4495 51.3929ZM25.212 50.818L25.3114 50.9919L25.3015 50.9969L25.212 50.818ZM38.7898 33.8499C42.1418 34.5737 45.0506 36.6182 46.8293 39.515L46.4885 39.7243C44.7677 36.9219 41.9523 34.942 38.7053 34.2409L38.7898 33.8499ZM46.8294 39.515C48.1001 41.5863 48.6845 43.7992 48.6211 46.3112L48.2212 46.3011C48.2828 43.8638 47.7174 41.7274 46.4884 39.7242L46.8294 39.515ZM48.6211 46.312C48.6085 46.7397 48.5864 47.1403 48.5611 47.4415C48.5484 47.5917 48.5347 47.7199 48.5206 47.8154C48.5135 47.8626 48.5058 47.9059 48.4971 47.9413C48.4928 47.9588 48.4873 47.9786 48.4799 47.9978C48.4751 48.0102 48.4598 48.0501 48.4251 48.0848L48.1422 47.802C48.1255 47.8187 48.1165 47.8343 48.1131 47.8405C48.109 47.8478 48.107 47.853 48.1065 47.8544C48.1055 47.8569 48.1064 47.8549 48.1087 47.8458C48.1131 47.828 48.1186 47.7988 48.1249 47.7566C48.1373 47.6732 48.1501 47.5546 48.1625 47.4079C48.1871 47.1155 48.2088 46.7224 48.2212 46.3003L48.6211 46.312ZM48.4251 48.0848C48.3838 48.1261 48.3372 48.1372 48.3247 48.1401C48.3059 48.1444 48.2897 48.1456 48.2802 48.1459C48.2607 48.1468 48.2418 48.1454 48.2276 48.1441C48.1978 48.1413 48.1608 48.1356 48.1201 48.1284C48.0372 48.1137 47.9213 48.0894 47.7777 48.0571C47.4897 47.9923 47.0808 47.893 46.5818 47.7671C45.5835 47.5151 44.2199 47.1555 42.7318 46.749L42.8372 46.3632C44.3236 46.7691 45.6846 47.1281 46.6797 47.3792C47.1775 47.5048 47.5825 47.6032 47.8655 47.6668C48.0075 47.6988 48.1163 47.7215 48.19 47.7345C48.2275 47.7412 48.2517 47.7446 48.2651 47.7459C48.2725 47.7466 48.2707 47.746 48.2636 47.7463C48.2604 47.7464 48.2493 47.747 48.2344 47.7504C48.2258 47.7524 48.1819 47.7623 48.1422 47.802L48.4251 48.0848ZM42.7318 46.749C39.7646 45.9387 37.2165 45.2484 37.097 45.2086L37.2235 44.8291C37.2235 44.8291 37.2266 44.8301 37.2347 44.8325C37.242 44.8346 37.2519 44.8375 37.2643 44.8411C37.2892 44.8482 37.3232 44.8577 37.366 44.8697C37.4515 44.8935 37.5712 44.9265 37.7212 44.9677C38.0211 45.0501 38.4416 45.1649 38.9517 45.3039C39.9717 45.582 41.3498 45.957 42.8372 46.3632L42.7318 46.749ZM37.1211 45.2149C37.0781 45.2063 37.0457 45.1855 37.0364 45.1796C37.0209 45.1698 37.0059 45.1585 36.9927 45.1481C36.9659 45.1268 36.9343 45.0989 36.8995 45.0667C36.8293 45.0017 36.7358 44.9095 36.6229 44.7946C36.3966 44.5641 36.0854 44.2352 35.7123 43.8332C34.9659 43.0289 33.9682 41.9279 32.899 40.7275L33.1977 40.4615C34.2658 41.6606 35.2615 42.7594 36.0055 43.5611C36.3777 43.9621 36.6859 44.2878 36.9083 44.5143C37.0198 44.6278 37.108 44.7147 37.1712 44.7732C37.2032 44.8027 37.2262 44.8227 37.2413 44.8347C37.249 44.8408 37.2518 44.8425 37.2508 44.8419C37.2502 44.8415 37.2464 44.8392 37.2402 44.8362C37.2353 44.8338 37.2207 44.8269 37.1995 44.8227L37.1211 45.2149ZM32.8988 40.7272C31.7887 39.4768 30.9672 38.5697 30.3919 37.9029C29.8224 37.2428 29.4712 36.7929 29.3226 36.4612C29.2463 36.2908 29.2106 36.1246 29.2496 35.964C29.2891 35.8013 29.3955 35.6836 29.5183 35.591C29.6388 35.5 29.7949 35.4186 29.9644 35.3353C30.1395 35.2492 30.334 35.1587 30.5564 35.0429L30.7411 35.3976C30.5136 35.5162 30.3065 35.6128 30.1409 35.6942C29.9697 35.7784 29.8457 35.845 29.7592 35.9103C29.6749 35.9739 29.6474 36.0206 29.6383 36.0583C29.6287 36.0981 29.6297 36.1682 29.6877 36.2977C29.8078 36.5659 30.1159 36.9706 30.6947 37.6416C31.2677 38.3058 32.0835 39.2063 33.198 40.4617L32.8988 40.7272ZM30.5563 35.0429C33.2073 33.6603 36.0168 33.2521 38.7897 33.8499L38.7054 34.2409C36.0291 33.6639 33.3145 34.0556 30.7412 35.3976L30.5563 35.0429ZM31.0857 41.4489L34.4977 45.2859L34.1987 45.5517L30.7867 41.7147L31.0857 41.4489ZM34.4113 45.6085L29.487 47.2458L29.3608 46.8662L34.2851 45.229L34.4113 45.6085ZM29.4875 47.2457L24.5632 48.8954L24.4361 48.5161L29.3604 46.8664L29.4875 47.2457ZM24.3085 48.7646L24.2085 48.4396L24.5908 48.322L24.6908 48.647L24.3085 48.7646ZM24.2095 48.4429C24.1514 48.2648 24.1096 47.957 24.0795 47.6001C24.0488 47.2361 24.0287 46.8005 24.02 46.3537C24.0028 45.465 24.0304 44.5123 24.1147 43.9873L24.5096 44.0507C24.4314 44.538 24.4028 45.46 24.42 46.346C24.4285 46.7867 24.4483 47.2134 24.4781 47.5665C24.5085 47.9266 24.5479 48.1906 24.5898 48.3187L24.2095 48.4429ZM24.1147 43.9874C24.3185 42.7136 24.9767 40.8649 25.6274 39.7676L25.9715 39.9716C25.3474 41.024 24.7058 42.8247 24.5097 44.0506L24.1147 43.9874ZM25.628 39.7667C25.9134 39.2909 26.2832 38.7537 26.6028 38.3345C26.7623 38.1252 26.9118 37.942 27.0338 37.8096C27.0943 37.7439 27.1518 37.6865 27.203 37.6439C27.2283 37.6229 27.2566 37.6016 27.2863 37.5847C27.3106 37.5708 27.3609 37.5449 27.4242 37.5449V37.9449C27.4672 37.9449 27.4914 37.9282 27.4844 37.9322C27.4828 37.9331 27.4746 37.9383 27.4587 37.9515C27.4273 37.9776 27.3835 38.0203 27.328 38.0805C27.218 38.2 27.0769 38.3723 26.9209 38.577C26.6092 38.9858 26.2479 39.5108 25.971 39.9725L25.628 39.7667ZM27.4242 37.5449C27.4804 37.5449 27.5209 37.5692 27.5238 37.5708C27.5364 37.5776 27.5462 37.5847 27.5518 37.5888C27.5637 37.5974 27.5749 37.6071 27.584 37.6151C27.6029 37.6319 27.6265 37.6545 27.6532 37.6809C27.7073 37.7344 27.7824 37.8118 27.8754 37.9096C28.0617 38.1055 28.3243 38.3882 28.6434 38.7361C29.2816 39.4323 30.1478 40.3923 31.0858 41.4491L30.7866 41.7146C29.8498 40.6591 28.9851 39.7007 28.3485 39.0064C28.0301 38.6592 27.7694 38.3786 27.5855 38.1852C27.4933 38.0883 27.4216 38.0144 27.3719 37.9653C27.3468 37.9404 27.3293 37.9239 27.3186 37.9144C27.3128 37.9093 27.3121 37.909 27.3149 37.911C27.316 37.9118 27.3221 37.9163 27.3315 37.9215C27.3363 37.9241 27.3453 37.9288 27.3574 37.9332C27.3675 37.9369 27.3918 37.9449 27.4242 37.9449V37.5449ZM42.487 48.5628C43.9119 48.9503 45.2151 49.3065 46.1654 49.5691C46.6404 49.7004 47.0276 49.8083 47.2978 49.8851C47.4328 49.9234 47.5393 49.9542 47.6132 49.9762C47.6499 49.9872 47.6799 49.9964 47.7017 50.0035C47.7123 50.007 47.723 50.0106 47.7324 50.0142C47.7368 50.0158 47.7437 50.0185 47.7512 50.0219C47.7549 50.0236 47.7612 50.0266 47.7687 50.0308C47.7725 50.0329 47.7925 50.044 47.8127 50.0641L47.5298 50.347C47.5496 50.3668 47.5689 50.3773 47.5718 50.3789C47.5783 50.3826 47.5834 50.385 47.5855 50.386C47.59 50.388 47.5927 50.389 47.5918 50.3886C47.5906 50.3882 47.5863 50.3867 47.5776 50.3838C47.5606 50.3783 47.5345 50.3702 47.4987 50.3595C47.4275 50.3382 47.3231 50.3081 47.1885 50.2698C46.9198 50.1935 46.5336 50.0858 46.0588 49.9547C45.1094 49.6923 43.8067 49.3362 42.382 48.9488L42.487 48.5628ZM47.8127 50.0641C47.8521 50.1035 47.8644 50.1476 47.8687 50.1682C47.8735 50.1911 47.8736 50.2105 47.8732 50.2219C47.8725 50.2449 47.8685 50.2654 47.8657 50.2784C47.8595 50.3062 47.8497 50.3377 47.839 50.3686C47.817 50.4322 47.7832 50.5168 47.7411 50.6154C47.6564 50.8135 47.5328 51.0797 47.3877 51.3698L47.0299 51.191C47.1723 50.9062 47.2924 50.6474 47.3733 50.4582C47.414 50.363 47.4435 50.2883 47.461 50.2378C47.47 50.2117 47.4739 50.1974 47.475 50.1923C47.4758 50.1888 47.4739 50.1959 47.4734 50.209C47.4732 50.2154 47.4731 50.2306 47.4772 50.2503C47.4808 50.2675 47.492 50.3092 47.5298 50.347L47.8127 50.0641ZM47.388 51.3692C46.0663 54.0381 43.6794 56.2467 40.8855 57.3896L40.734 57.0194C43.4393 55.9127 45.7518 53.7719 47.0296 51.1916L47.388 51.3692ZM40.885 57.3898C40.0484 57.7295 39.4094 57.9444 38.7235 58.0729C38.0384 58.2012 37.3147 58.2419 36.3104 58.2419V57.8419C37.3058 57.8419 38.0007 57.8013 38.6498 57.6797C39.298 57.5583 39.9089 57.3545 40.7345 57.0192L40.885 57.3898ZM36.3104 58.2419C34.8028 58.2419 34.284 58.1916 33.386 57.9607L33.4856 57.5733C34.3374 57.7923 34.8185 57.8419 36.3104 57.8419V58.2419ZM33.382 57.9596C32.9514 57.8393 32.4093 57.6627 31.9496 57.4974C31.7197 57.4147 31.5086 57.3342 31.3411 57.2643C31.1832 57.1984 31.0398 57.1323 30.9662 57.0771L31.2062 56.7571C31.2325 56.7768 31.3266 56.8248 31.4952 56.8952C31.6543 56.9616 31.8587 57.0396 32.085 57.121C32.5377 57.2838 33.0704 57.4572 33.4897 57.5743L33.382 57.9596ZM30.9967 57.096C30.9022 57.0487 30.8889 56.9578 30.8868 56.9359C30.8839 56.9068 30.8882 56.8839 30.8897 56.8763C30.8934 56.8579 30.8989 56.8433 30.9008 56.8382C30.9058 56.8251 30.912 56.8121 30.9168 56.8022C30.9272 56.7807 30.9423 56.7521 30.9605 56.7184C30.9975 56.6502 31.0529 56.5518 31.124 56.4273C31.2666 56.1778 31.4752 55.8193 31.7339 55.3786C32.2513 54.4969 32.9702 53.2841 33.764 51.9529L34.1075 52.1577C33.314 53.4886 32.5956 54.7005 32.0789 55.581C31.8204 56.0214 31.6127 56.3784 31.4713 56.6258C31.4005 56.7497 31.347 56.8449 31.3122 56.9091C31.2945 56.9417 31.2829 56.9639 31.2765 56.9772C31.2728 56.9846 31.273 56.9849 31.2745 56.9809C31.2747 56.9805 31.2791 56.9695 31.2822 56.9536C31.2835 56.9472 31.2877 56.9253 31.2849 56.8968C31.2828 56.8757 31.2697 56.7852 31.1756 56.7382L30.9967 57.096ZM33.7645 51.952C34.8643 50.1274 35.6065 48.9246 36.0931 48.1821C36.3359 47.8117 36.5182 47.5511 36.6511 47.384C36.7168 47.3014 36.776 47.2345 36.8286 47.1879C36.8546 47.1649 36.8862 47.1403 36.9221 47.1222C36.9547 47.1057 37.0192 47.0802 37.0963 47.0995L36.9993 47.4875C37.0577 47.5021 37.0986 47.4812 37.1025 47.4792C37.1097 47.4755 37.1074 47.4754 37.0939 47.4874C37.0675 47.5107 37.0253 47.5561 36.9641 47.633C36.8432 47.785 36.6692 48.0329 36.4277 48.4014C35.9457 49.1368 35.2069 50.3337 34.1071 52.1585L33.7645 51.952ZM37.1111 47.1038C37.111 47.1037 37.1139 47.1047 37.1217 47.107C37.1288 47.1091 37.1383 47.1118 37.1503 47.1152C37.1742 47.122 37.2069 47.1312 37.248 47.1426C37.3302 47.1653 37.445 47.1967 37.5887 47.2358C37.8762 47.3141 38.2787 47.423 38.767 47.555C39.7433 47.8191 41.062 48.1753 42.487 48.5628L42.382 48.9488C39.5404 48.176 37.1042 47.5231 36.9846 47.4832L37.1111 47.1038ZM31.72 51.8084C30.5342 53.7805 29.4945 55.5093 29.4052 55.6497L29.0677 55.4349C29.1534 55.3003 30.1883 53.5796 31.3772 51.6023L31.72 51.8084ZM29.4044 55.6509C29.3696 55.7046 29.2987 55.8088 29.167 55.8363C29.0389 55.863 28.9227 55.8033 28.8345 55.7454C28.6502 55.6243 28.3645 55.3533 27.8846 54.8856L28.1637 54.5992C28.6586 55.0813 28.9103 55.3166 29.0541 55.4111C29.13 55.4609 29.1255 55.4363 29.0852 55.4447C29.0414 55.4539 29.0345 55.4862 29.0685 55.4336L29.4044 55.6509ZM27.8862 54.8872C26.8231 53.8748 25.8206 52.5696 25.271 51.4832L25.628 51.3026C26.1532 52.3409 27.1255 53.6103 28.1621 54.5976L27.8862 54.8872ZM25.2706 51.4823C25.1945 51.3301 25.1267 51.1851 25.0806 51.0748C25.058 51.0205 25.0384 50.9697 25.026 50.9287C25.0203 50.9098 25.0131 50.8832 25.0101 50.8556C25.0087 50.843 25.0066 50.8167 25.0125 50.7856C25.0176 50.7589 25.0385 50.6811 25.1226 50.6391L25.3015 50.9969C25.3825 50.9564 25.4013 50.8822 25.4054 50.8607C25.4103 50.835 25.4081 50.8159 25.4077 50.8123C25.4067 50.8026 25.4053 50.801 25.409 50.8131C25.4153 50.8342 25.4286 50.8701 25.4497 50.9205C25.4911 51.0195 25.5545 51.1557 25.6284 51.3034L25.2706 51.4823ZM25.1128 50.6443C25.1341 50.6322 25.1631 50.621 25.1795 50.6146C25.2024 50.6058 25.2322 50.5948 25.2679 50.582C25.3393 50.5563 25.438 50.5219 25.5595 50.4803C25.8027 50.3971 26.14 50.2838 26.5393 50.1509C27.3382 49.8852 28.3868 49.5406 29.4306 49.1999C30.4744 48.8593 31.5137 48.5225 32.2937 48.2724C32.6836 48.1474 33.0091 48.0439 33.2382 47.9724C33.3525 47.9367 33.4436 47.9087 33.5069 47.8899C33.5382 47.8806 33.5643 47.8731 33.5834 47.8681C33.5925 47.8656 33.6029 47.863 33.6125 47.861C33.6166 47.8601 33.6257 47.8582 33.6365 47.857C33.6411 47.8565 33.6534 47.8552 33.6689 47.8559C33.6771 47.8564 33.6975 47.8592 33.7096 47.8619C33.7288 47.8677 33.7764 47.8926 33.8022 47.9145L33.5194 48.1973C33.5451 48.219 33.5926 48.2438 33.6116 48.2497C33.6235 48.2523 33.6435 48.255 33.6514 48.2555C33.6662 48.2562 33.6775 48.2549 33.681 48.2545C33.6858 48.254 33.6895 48.2534 33.6912 48.2531C33.693 48.2528 33.6943 48.2525 33.6948 48.2524C33.6958 48.2522 33.6936 48.2526 33.6863 48.2546C33.6728 48.2582 33.6511 48.2644 33.6206 48.2734C33.5602 48.2913 33.4713 48.3186 33.3574 48.3542C33.1298 48.4252 32.8055 48.5284 32.4158 48.6533C31.6367 48.9031 30.5981 49.2397 29.5547 49.5802C28.5113 49.9207 27.4634 50.2651 26.6656 50.5305C26.2666 50.6632 25.9306 50.7761 25.6891 50.8588C25.5682 50.9002 25.4717 50.9338 25.4031 50.9584C25.3687 50.9708 25.3423 50.9806 25.3237 50.9877C25.2986 50.9974 25.3009 50.9975 25.3113 50.9916L25.1128 50.6443ZM33.8022 47.9145C33.8405 47.9528 33.853 47.9956 33.8575 48.0183C33.8621 48.0421 33.8615 48.0617 33.8608 48.0723C33.8593 48.0935 33.8548 48.1102 33.8528 48.1173C33.8482 48.1335 33.8423 48.1481 33.8384 48.1572C33.8298 48.1776 33.8178 48.2023 33.8043 48.2289C33.7767 48.2832 33.7356 48.3595 33.6833 48.4541C33.5782 48.6438 33.424 48.9143 33.2324 49.245C32.849 49.9069 32.3143 50.8138 31.7203 51.8079L31.3769 51.6028C31.9703 50.6096 32.5041 49.7043 32.8863 49.0445C33.0774 48.7145 33.2302 48.4467 33.3333 48.2603C33.3851 48.1668 33.4233 48.0956 33.4476 48.0479C33.46 48.0234 33.467 48.0084 33.4701 48.0011C33.4721 47.9964 33.4702 48.0001 33.4679 48.0085C33.467 48.0117 33.4631 48.0253 33.4618 48.0442C33.4611 48.0536 33.4604 48.0722 33.4649 48.0952C33.4692 48.1171 33.4815 48.1594 33.5194 48.1973L33.8022 47.9145ZM33.6858 31.8083L33.611 31.4153L33.6156 31.4145L33.6858 31.8083ZM29.8739 33.0831L29.695 32.7253L29.6968 32.7244L29.8739 33.0831ZM21.9375 45.9312L21.5375 45.9305L21.5375 45.9303L21.9375 45.9312ZM33.6358 60.0541L33.7095 59.661L33.7095 59.661L33.6358 60.0541ZM38.96 60.0666L38.8857 59.6736L38.8861 59.6735L38.96 60.0666ZM49.2335 52.2678L48.8755 52.0893L48.8761 52.0881L49.2335 52.2678ZM50.5583 44.119L50.955 44.0673L50.955 44.0675L50.5583 44.119ZM38.8225 31.8083L38.7538 32.2023L38.7537 32.2023L38.8225 31.8083ZM33.7606 32.2012C32.7458 32.3945 30.9804 32.983 30.0509 33.4418L29.6968 32.7244C30.692 32.2333 32.5261 31.622 33.611 31.4153L33.7606 32.2012ZM30.0527 33.4408C25.3895 35.7725 22.3497 40.6956 22.3375 45.9321L21.5375 45.9303C21.5504 40.3933 24.7596 35.193 29.695 32.7253L30.0527 33.4408ZM22.3375 45.9319C22.3254 52.6006 27.1624 58.4341 33.7095 59.661L33.5621 60.4473C26.6362 59.1495 21.5247 52.9848 21.5375 45.9305L22.3375 45.9319ZM33.7095 59.661C35.0625 59.9147 37.5494 59.9264 38.8857 59.6736L39.0344 60.4596C37.5961 60.7318 35.0087 60.7185 33.5621 60.4473L33.7095 59.661ZM38.8861 59.6735C43.1487 58.872 46.9187 56.0152 48.8755 52.0893L49.5915 52.4462C47.524 56.5941 43.545 59.6115 39.0339 60.4597L38.8861 59.6735ZM48.8761 52.0881C50.0008 49.8508 50.5018 46.7947 50.1616 44.1704L50.955 44.0675C51.3147 46.8424 50.7909 50.0604 49.5909 52.4474L48.8761 52.0881ZM50.1617 44.1706C49.3717 38.106 44.7414 33.2468 38.7538 32.2023L38.8913 31.4142C45.2269 32.5194 50.1202 37.6587 50.955 44.0673L50.1617 44.1706ZM38.7537 32.2023C38.1434 32.0956 37.2013 32.0395 36.2448 32.0395C35.288 32.0395 34.3529 32.0957 33.756 32.2021L33.6156 31.4145C34.281 31.2959 35.2706 31.2395 36.2448 31.2395C37.2193 31.2395 38.2144 31.2959 38.8914 31.4142L38.7537 32.2023Z" fill="#4D0000" mask="url(#path-6-outside-5_5883_47321)"/>
</g>
</g>
</g>
</svg>
