<svg width="72" height="72" viewBox="0 0 72 72" fill="none" xmlns="http://www.w3.org/2000/svg">
<g id="pricelist">
<g id="Group">
<g id="Vector">
<path d="M52.2445 68C37.7881 68 23.3318 68 8.87542 68C8.84042 67.9783 8.80709 67.9467 8.76876 67.9367C5.50255 67.1051 4.00109 65.1704 4.00109 61.7925C4.00109 54.8368 4.00109 47.8794 4.00109 40.9237C4.00109 32.2182 3.99776 23.5111 4.00276 14.8056C4.00442 11.7894 5.97249 9.46803 8.93041 9.06808C9.89361 8.9381 10.8851 9.01309 11.8633 9.00976C13.8181 9.00309 15.7728 9.00809 17.7342 9.00809C17.7825 8.85145 17.8275 8.73646 17.8525 8.61647C18.4208 5.86018 20.6305 4.02378 23.4351 4.01211C26.768 3.99878 30.1008 3.99211 33.432 4.01544C35.9967 4.03377 38.1747 5.7702 38.8163 8.24653C38.878 8.48483 38.9246 8.72813 38.988 9.00642C39.2413 9.00642 39.4679 9.00642 39.6929 9.00642C42.0259 9.00642 44.3589 9.00642 46.6902 9.00642C50.3931 9.00809 52.7427 11.3511 52.7427 15.0506C52.7444 21.2364 52.7427 27.4222 52.7427 33.6081C52.7427 33.853 52.7427 34.098 52.7427 34.3363C53.0577 34.3913 53.3027 34.4379 53.5476 34.4763C61.2999 35.7328 67.0258 42.0002 67.7057 49.9808C68.3439 57.4531 63.4863 64.7154 56.1839 67.1118C54.9124 67.5317 53.561 67.7117 52.2445 68ZM17.6809 12.7576C15.0529 12.7576 12.4316 12.7542 9.81029 12.7592C8.51713 12.7626 7.75224 13.5258 7.75224 14.8206C7.75057 30.6085 7.75057 46.398 7.75224 62.1858C7.75224 63.4806 8.51713 64.2488 9.80862 64.2488C19.7656 64.2522 29.7209 64.2505 39.6779 64.2488C39.8245 64.2488 39.9712 64.2188 40.1978 64.1939C38.6347 62.864 37.3465 61.4259 36.3783 59.7261C36.1583 59.3395 35.9034 59.2412 35.4901 59.2429C32.3455 59.2579 29.1993 59.2545 26.0547 59.2495C24.8449 59.2479 23.9983 58.4663 24 57.3731C24.0017 56.2816 24.8499 55.5051 26.0614 55.5034C28.6444 55.4984 31.2274 55.5017 33.8103 55.5017C34.037 55.5017 34.2636 55.5017 34.4502 55.5017C34.2569 53.8153 34.0703 52.1755 33.8803 50.5024C31.3073 50.5024 28.706 50.5057 26.1047 50.5007C24.8466 50.4991 23.9917 49.7242 24.0033 48.6077C24.0133 47.5161 24.8582 46.7546 26.0797 46.7529C28.6827 46.7496 31.2873 46.7512 33.8903 46.7512C34.117 46.7512 34.3419 46.7512 34.4152 46.7512C35.1935 45.0298 35.9234 43.4117 36.6733 41.7519C36.5 41.7519 36.28 41.7519 36.06 41.7519C32.7271 41.7519 29.3943 41.7486 26.0614 41.7553C25.4448 41.7569 24.9032 41.592 24.4949 41.1237C23.985 40.5421 23.8434 39.8639 24.16 39.149C24.5066 38.3674 25.1449 38.0008 25.9997 38.0008C30.5408 38.0024 35.0818 38.0108 39.6212 37.9858C39.9995 37.9841 40.4394 37.8425 40.7444 37.6208C42.5325 36.3194 44.4772 35.3561 46.6152 34.7996C47.3918 34.5979 48.1867 34.4729 48.9749 34.313C48.9833 34.1963 48.9966 34.1146 48.9966 34.033C48.9982 27.5972 49.0016 21.1598 48.9949 14.724C48.9932 13.5491 48.205 12.7642 47.0318 12.7576C44.9905 12.7459 42.9491 12.7542 40.9077 12.7542C40.2878 12.7542 39.6679 12.7542 39.0346 12.7542C39.0179 12.8942 39.003 12.9742 38.9996 13.0525C38.943 14.6157 38.278 15.2539 36.6999 15.2539C34.3669 15.2539 32.0339 15.2539 29.7009 15.2539C26.3897 15.2539 23.0768 15.2572 19.7656 15.2522C18.8307 15.2506 18.1342 14.804 17.8792 14.0024C17.7609 13.6375 17.7525 13.2342 17.6809 12.7576ZM50.8913 38.0058C43.664 37.9958 37.7631 43.87 37.7465 51.089C37.7315 58.318 43.5957 64.2255 50.8147 64.2505C58.0687 64.2755 63.9879 58.3813 63.9912 51.134C63.9962 43.9083 58.1153 38.0141 50.8913 38.0058ZM35.2418 11.4861C35.2418 10.7845 35.2735 10.1413 35.2351 9.50136C35.1768 8.53983 34.4052 7.77493 33.4337 7.76826C30.0642 7.74826 26.693 7.74993 23.3234 7.76659C22.4252 7.77159 21.6453 8.42984 21.5437 9.30805C21.462 10.018 21.527 10.7445 21.527 11.4861C26.1047 11.4861 30.6341 11.4861 35.2418 11.4861Z" fill="#0D313B"/>
<path d="M50.8913 38.0058C43.664 37.9958 37.7631 43.87 37.7465 51.089C37.7315 58.318 43.5957 64.2255 50.8147 64.2505C58.0687 64.2755 63.9879 58.3813 63.9912 51.134C63.9962 43.9083 58.1153 38.0141 50.8913 38.0058Z" fill="#2894B4"/>
</g>
<path id="Vector_2" d="M34.6287 24.2563C31.7991 24.2563 28.9695 24.258 26.1399 24.2563C24.8667 24.2547 24.0135 23.5148 24.0002 22.4049C23.9852 21.2717 24.8484 20.5085 26.1566 20.5085C31.8358 20.5068 37.5167 20.5052 43.1959 20.5102C44.6974 20.5118 45.6572 21.8316 45.0856 23.1165C44.7373 23.8964 44.0958 24.2597 43.2425 24.258C40.3713 24.2547 37.5 24.2563 34.6287 24.2563Z" fill="#0D313B"/>
<path id="Vector_3" d="M34.5536 33.0046C31.7456 33.0046 28.936 33.0063 26.1281 33.003C24.8599 33.0013 24.0067 32.2497 24 31.1399C23.9934 30.0284 24.8483 29.2568 26.1064 29.2552C31.7856 29.2535 37.4665 29.2535 43.1457 29.2552C44.4006 29.2552 45.2555 30.035 45.2421 31.1482C45.2288 32.2397 44.3872 32.9996 43.1674 33.0013C40.2961 33.008 37.4249 33.0046 34.5536 33.0046Z" fill="#0D313B"/>
<path id="Vector_4" d="M15.9094 24.2563C15.0995 24.2563 14.288 24.2646 13.4781 24.2546C12.3282 24.2413 11.495 23.4398 11.5 22.3716C11.505 21.3067 12.3432 20.5168 13.4981 20.5102C15.0779 20.5018 16.656 20.5018 18.2358 20.5102C19.3989 20.5152 20.2322 21.2934 20.2455 22.3616C20.2572 23.4547 19.4139 24.2463 18.2158 24.2563C17.4459 24.2613 16.6776 24.2563 15.9094 24.2563Z" fill="#0D313B"/>
<path id="Vector_5" d="M15.8678 29.255C16.6777 29.255 17.4892 29.245 18.2991 29.2566C19.4106 29.2733 20.2338 30.0632 20.2438 31.108C20.2555 32.1779 19.4223 32.9911 18.2758 32.9994C16.676 33.0111 15.0762 33.0111 13.4764 32.9994C12.3283 32.9911 11.4934 32.1846 11.5 31.1147C11.5067 30.0499 12.3449 29.265 13.4998 29.2533C14.2897 29.25 15.0795 29.255 15.8678 29.255Z" fill="#0D313B"/>
<path id="Vector_6" d="M15.8852 38.0054C16.6951 38.0054 17.5066 37.9954 18.3165 38.0071C19.4247 38.0254 20.2446 38.827 20.2479 39.8735C20.2512 40.92 19.433 41.7382 18.3282 41.7499C16.6867 41.7665 15.0453 41.7665 13.4038 41.7499C12.309 41.7382 11.4891 40.8983 11.5041 39.8551C11.5174 38.8386 12.329 38.0337 13.3922 38.0104C14.2221 37.9904 15.0536 38.0054 15.8852 38.0054Z" fill="#0D313B"/>
<path id="Vector_7" d="M15.8936 46.7551C16.7035 46.7551 17.515 46.7434 18.3249 46.7584C19.4298 46.7784 20.2497 47.5866 20.248 48.6315C20.2463 49.678 19.4281 50.4895 18.3199 50.4995C16.6785 50.5145 15.0371 50.5179 13.3956 50.4979C12.3041 50.4845 11.4859 49.638 11.5042 48.5948C11.5225 47.5783 12.3341 46.78 13.4006 46.7584C14.2305 46.7417 15.062 46.7551 15.8936 46.7551Z" fill="#0D313B"/>
<path id="Vector_8" d="M15.865 55.5013C16.6749 55.5013 17.4864 55.493 18.2963 55.503C19.4112 55.518 20.2327 56.3045 20.2477 57.3494C20.2627 58.4192 19.4295 59.2375 18.2847 59.2474C16.6849 59.2591 15.0851 59.2591 13.4853 59.2474C12.3338 59.2408 11.5006 58.4376 11.5039 57.3694C11.5072 56.3045 12.3438 55.5146 13.497 55.503C14.2852 55.4946 15.0751 55.5013 15.865 55.5013Z" fill="#0D313B"/>
<path id="Vector_9" d="M49.5018 59.3266C48.4837 58.8717 47.5388 58.5067 46.6522 58.0351C45.9323 57.6518 45.7574 56.9019 46.1223 56.287C46.5006 55.6504 47.2222 55.5238 47.9737 55.9337C48.437 56.1854 48.9236 56.397 49.5202 56.6836C49.5202 54.8522 49.5285 53.1924 49.5052 51.5327C49.5035 51.401 49.3202 51.2377 49.1819 51.1477C48.8869 50.9544 48.5636 50.8044 48.2603 50.6261C46.8105 49.7779 46.194 48.4914 46.3806 46.8466C46.5673 45.2135 47.4071 44.002 48.9519 43.3721C49.3869 43.1938 49.5468 43.0005 49.5385 42.5239C49.5235 41.6773 50.0784 41.1191 50.81 41.1341C51.5282 41.1491 52.0082 41.6657 52.0115 42.5139C52.0132 42.9038 52.1732 43.0072 52.5064 43.1505C53.1647 43.4354 53.8246 43.7654 54.3862 44.2037C54.9678 44.6586 54.9644 45.4118 54.5228 45.9284C54.0579 46.4717 53.3596 46.515 52.7381 46.0451C52.5464 45.9001 52.3448 45.7685 52.0282 45.5468C52.0282 46.9233 52.0065 48.1615 52.0548 49.3963C52.0615 49.5546 52.4015 49.7579 52.6231 49.8379C54.1012 50.3812 55.1627 51.3327 55.6193 52.8658C56.3242 55.2355 54.9728 57.8735 52.5781 58.7867C52.1615 58.945 52.0015 59.1266 52.0132 59.5799C52.0382 60.5598 51.5582 61.1213 50.785 61.1213C50.0218 61.1197 49.5585 60.5514 49.5252 59.5782C49.5152 59.4382 49.4985 59.2949 49.5018 59.3266ZM52.0665 52.3276C52.0665 53.6907 52.0665 54.9405 52.0665 56.297C52.943 55.6554 53.3513 54.9022 53.2713 53.9073C53.2113 53.1591 52.8081 52.6675 52.0665 52.3276ZM49.4785 45.9284C48.9219 46.4867 48.747 47.0549 48.8936 47.6849C48.9536 47.9448 49.2019 48.1598 49.3652 48.3948C49.4035 48.3614 49.4402 48.3298 49.4785 48.2964C49.4785 47.5482 49.4785 46.8 49.4785 45.9284Z" fill="#0D313B"/>
</g>
</g>
</svg>
