<svg width="360" height="360" viewBox="0 0 360 360" fill="none" xmlns="http://www.w3.org/2000/svg">
<path d="M313.668 139.393C318.034 140.599 322.402 141.804 326.771 143.006C332.671 144.613 334.341 147.403 332.771 153.339C326.158 178.173 319.528 203.003 312.881 227.829C303.405 263.365 293.943 298.909 284.494 334.463C283.754 337.259 281.828 338.749 279.494 339.999H275.781C267.071 336.956 258.078 334.923 249.181 332.546C243.148 330.933 237.241 328.769 230.988 328.036C230.488 327.263 229.654 327.116 228.861 326.906C205.438 320.626 182.001 314.436 158.604 307.999C153.938 306.719 148.604 306.666 145.254 302.199C145.12 298.989 145.536 295.779 146.484 292.709C147.468 289.353 148.694 286.043 149.018 282.509C149.629 282.564 150.237 282.654 150.838 282.779C174.894 289.243 198.924 295.809 223.018 302.113C229.761 303.879 236.298 306.636 243.391 306.953C243.618 308.349 244.914 308.286 245.801 308.536C249.858 309.703 253.944 310.769 258.041 311.796C264.888 313.509 267.608 311.933 269.404 305.153C275.166 283.45 280.912 261.743 286.641 240.029C293.476 214.329 300.338 188.635 307.224 162.946C309.334 155.099 311.121 147.139 313.668 139.393Z" fill="#00183D"/>
<path d="M82.1535 36.8067C82.1201 32.9033 82.1801 28.9967 82.0135 25.1C81.9201 22.9 83.2401 21.5367 84.3635 20H177.587C179.423 21.24 180.22 22.8833 180.113 25.19C179.937 29.0733 180.03 32.97 180.01 36.8567L172.01 36.9567H162.073L99.9268 36.89H89.9735L82.1535 36.8067Z" fill="#00317E"/>
<path d="M82.1533 36.8066L89.9566 36.9233C90.1333 40.96 89.8799 44.98 90.4933 49.04C91.7966 57.6833 99.0866 65.1266 107.663 66.2866C116.427 67.47 125.217 66.7566 133.997 66.8C140.697 66.83 147.407 67.3533 154.117 66.32C162.417 65.04 169.297 59.05 171.353 50.9333C172.523 46.31 171.763 41.6 172 36.9633L180 36.8633L191.897 36.8966C197.173 39.76 199.063 44.06 198.837 50.17C198.407 61.7633 198.717 73.3833 198.72 84.99C195.133 84.11 191.503 83.3766 187.973 82.3233C184.187 81.19 181.127 81.96 178.64 85.06L78.6133 85.1066C77.6799 85.1066 76.7466 85.0766 75.8166 85.1066C72.5933 85.2366 71.3399 86.4866 71.2999 89.6966C71.2599 92.9066 71.2766 96.1533 71.2999 99.38C71.3333 103.333 72.3633 104.333 76.3333 104.333C96.3177 104.333 116.302 104.333 136.287 104.333C148.607 104.333 160.928 104.364 173.25 104.427C173.266 105.047 173.222 105.668 173.12 106.28C168.873 122.233 164.66 138.2 160.287 154.117C159.453 157.15 159.287 160.42 157.52 163.167C156.28 163.19 155.04 163.237 153.8 163.237C128.358 163.237 102.913 163.237 77.4666 163.237C73.4199 163.237 71.3599 164.943 71.3433 168.197C71.3433 171.303 73.3433 172.987 77.2666 172.99C103.227 172.99 129.187 172.99 155.147 172.99C153.697 178.657 152.333 184.323 150.75 189.937C150.267 191.657 150.377 193.663 148.887 195.03C134.4 195.061 119.913 195.091 105.427 195.12C95.9066 195.137 86.3833 195.093 76.8633 195.14C73.1199 195.16 71.0299 197.353 71.3599 200.697C71.6299 203.467 73.6933 204.88 77.5699 204.883C100.543 204.906 123.517 204.921 146.49 204.93C145.157 212.453 142.807 219.717 140.78 227.06L76.8066 227C76.5999 227 76.3899 227 76.1866 227C73.1166 227.24 71.3066 229.087 71.3366 231.943C71.3666 234.8 73.2099 236.563 76.3366 236.737C77.5766 236.807 78.8199 236.737 80.0633 236.753L137.813 236.873C137.75 237.803 137.833 238.77 137.6 239.653C135.063 249.257 132.54 258.863 129.88 268.43C128.403 273.743 130.36 277.24 135.66 278.727C140.117 279.973 144.71 280.727 149.02 282.5C148.687 286.03 147.47 289.343 146.487 292.7C145.538 295.77 145.122 298.98 145.257 302.19C115.843 302.233 86.4333 302.347 57.0199 302.277C49.7699 302.277 46.2133 297.483 46.2266 290.7C46.3599 209.871 46.3888 129.041 46.3133 48.21C46.3133 41.83 47.8866 39.4466 53.6466 36.9933L82.1533 36.8066ZM89.3899 268.633C93.5233 268.633 97.6599 268.667 101.793 268.633C105.403 268.593 107.34 266.873 107.357 263.807C107.373 260.74 105.453 258.93 101.86 258.913C93.491 258.867 85.121 258.867 76.7499 258.913C73.1966 258.937 71.2799 260.783 71.3366 263.893C71.3866 266.82 73.2966 268.58 76.6699 268.627C80.9166 268.667 85.1533 268.633 89.3899 268.633ZM89.0233 141.15C93.3566 141.15 97.6899 141.197 102.023 141.133C105.407 141.087 107.3 139.33 107.34 136.387C107.387 133.273 105.483 131.447 101.92 131.423C93.5533 131.374 85.1866 131.374 76.8199 131.423C73.3066 131.44 71.3366 133.283 71.3199 136.357C71.3199 139.357 73.2966 141.103 76.9233 141.14C80.9633 141.183 84.9999 141.15 89.0233 141.15Z" fill="#B8D3FF"/>
<path d="M295.044 111.237C294.117 110.151 292.71 110.551 291.577 110.237C272.847 105.091 254.09 100.051 235.334 95.0005C228.827 93.3605 222.287 91.8505 216 89.4805C210.107 88.5272 204.424 86.7539 198.737 85.0039C195.15 84.1239 191.52 83.3905 187.99 82.3372C184.204 81.2039 181.144 81.9739 178.657 85.0739C176.844 91.5372 175.587 98.1605 173.23 104.471C173.246 105.091 173.203 105.712 173.1 106.324C168.854 122.277 164.64 138.244 160.267 154.161C159.434 157.194 159.267 160.464 157.5 163.211C157.41 166.654 156.084 169.794 155.13 173.024C153.68 178.691 152.317 184.357 150.734 189.971C150.25 191.691 150.36 193.697 148.87 195.064C148.83 198.547 147.807 201.794 146.474 204.964C145.14 212.487 142.79 219.751 140.764 227.094C139.92 230.427 139.497 233.861 137.8 236.917C137.737 237.847 137.82 238.814 137.587 239.697C135.05 249.301 132.527 258.907 129.867 268.474C128.39 273.787 130.347 277.284 135.647 278.771C140.104 280.017 144.697 280.771 149.007 282.544C149.618 282.598 150.226 282.688 150.827 282.814C174.884 289.277 198.914 295.844 223.007 302.147C229.75 303.914 236.287 306.671 243.38 306.987C246.734 305.907 248.104 303.224 248.94 300.081C256.365 272.249 263.787 244.424 271.207 216.604C279.894 183.979 288.57 151.349 297.237 118.714C298.027 115.741 296.49 113.517 295.044 111.237ZM287.764 139.171C285.324 148.171 282.994 157.217 280.487 166.207C279.297 170.481 278.177 170.921 273.937 169.777C247.139 162.551 220.338 155.343 193.534 148.154C189.044 146.947 188.22 145.771 189.37 141.347C191.704 132.414 194.077 123.501 196.45 114.584C197.017 112.464 197.927 110.664 200.584 110.584C205.614 111.894 210.714 113.181 215.794 114.554C238.598 120.714 261.407 126.884 284.22 133.064C287.92 134.064 288.75 135.524 287.764 139.171Z" fill="#0053D6"/>
<path d="M245.973 240.504C252.93 218.759 241.888 195.793 221.31 189.21C200.732 182.627 178.41 194.919 171.454 216.665C164.497 238.411 175.539 261.376 196.117 267.959C216.695 274.542 239.017 262.25 245.973 240.504Z" fill="#B8D3FF"/>
<path d="M190.874 222.207C197.267 204.16 214.244 193.137 231.541 194.343C228.761 192.368 225.724 190.783 222.514 189.633C202.181 182.347 179.514 193.887 171.881 215.407C164.247 236.927 174.567 260.28 194.907 267.567C198.117 268.721 201.471 269.427 204.874 269.667C190.704 259.59 184.481 240.257 190.874 222.207Z" fill="#B8D3FF"/>
<path d="M204.08 241.701C202.807 241.241 201.765 240.299 201.18 239.077L193.847 224.634C193.214 223.303 193.106 221.782 193.545 220.375C193.985 218.968 194.939 217.778 196.217 217.044C196.829 216.691 197.508 216.468 198.211 216.391C198.913 216.313 199.624 216.381 200.299 216.592C200.974 216.802 201.598 217.15 202.131 217.613C202.665 218.077 203.097 218.645 203.4 219.284L208.514 229.191L225.434 221.411C226.073 221.111 226.768 220.946 227.475 220.928C228.181 220.909 228.884 221.037 229.538 221.303C230.193 221.569 230.785 221.968 231.278 222.474C231.772 222.98 232.155 223.583 232.404 224.244C232.937 225.619 232.93 227.144 232.386 228.514C231.843 229.885 230.801 230.999 229.47 231.634L207.977 241.514C206.753 242.086 205.353 242.153 204.08 241.701V241.701Z" fill="#0053D6"/>
<path d="M243.39 306.98C246.743 305.9 248.113 303.216 248.95 300.073C256.367 272.246 263.786 244.423 271.206 216.603C279.893 183.979 288.57 151.349 297.236 118.713C298.026 115.74 296.49 113.516 295.043 111.236C300.983 112.783 306.966 114.18 312.85 115.926C316.646 117.053 318.066 120.646 317.136 125.013C316.106 129.84 314.193 134.446 313.676 139.393C311.12 147.14 309.343 155.1 307.223 162.973C300.345 188.662 293.484 214.356 286.64 240.056C280.862 261.761 275.116 283.469 269.403 305.18C267.606 311.96 264.886 313.536 258.04 311.823C253.943 310.796 249.856 309.73 245.8 308.563C244.913 308.31 243.616 308.376 243.39 306.98Z" fill="#0053D6"/>
<path d="M235.333 95.0004C228.826 93.3604 222.286 91.8504 215.999 89.4804C216.039 76.3971 215.859 63.3071 216.219 50.2304C216.386 44.2304 214.736 39.7204 209.303 36.9271C216.389 36.4871 223.396 36.3571 229.063 41.7838C233.043 45.5938 235.426 50.1371 235.419 55.7671C235.402 68.836 235.373 81.9138 235.333 95.0004Z" fill="#00317E"/>
<path d="M209.297 36.9131C214.731 39.7065 216.381 44.2031 216.214 50.2165C215.854 63.2931 216.034 76.3831 215.994 89.4665C210.101 88.5131 204.417 86.7398 198.731 84.9898C198.731 73.3831 198.417 61.7631 198.847 50.1698C199.074 44.0598 197.181 39.7598 191.907 36.8965L209.297 36.9131Z" fill="#B8D3FF"/>
<path d="M53.6666 37.0157C47.8999 39.469 46.3333 41.8524 46.3333 48.2324C46.3333 129.063 46.3044 209.893 46.2466 290.722C46.2466 297.506 49.7899 302.282 57.0399 302.299C86.4533 302.369 115.863 302.256 145.277 302.212C148.607 306.666 153.943 306.732 158.603 307.999C181.987 314.422 205.437 320.612 228.86 326.892C229.647 327.102 230.487 327.249 230.987 328.022C226.487 333.062 220.89 335.086 214.147 335.072C158.76 334.952 103.371 334.91 47.9799 334.946C34.8199 334.946 26.6733 326.776 26.6699 313.566C26.6699 228.399 26.6699 143.231 26.6699 58.0624C26.6699 44.9157 34.6999 36.8524 47.7533 36.8457C49.7233 36.859 51.6866 36.959 53.6666 37.0157Z" fill="#00317E"/>
<path d="M99.91 36.9102L162.057 36.9768C162.057 39.7868 161.867 42.6135 162.093 45.4035C162.667 52.5768 156.45 57.0002 150.74 56.9335C137.597 56.7502 124.447 56.6502 111.31 56.9768C105.353 57.1235 99.2466 51.4135 99.8533 45.3368C100.133 42.5535 99.9066 39.7202 99.91 36.9102Z" fill="#B8D3FF"/>
<path d="M99.9102 36.9102C99.9102 39.7202 100.134 42.5535 99.8535 45.3368C99.2469 51.4135 105.354 57.1235 111.31 56.9768C124.447 56.6435 137.597 56.7502 150.74 56.9335C156.45 57.0135 162.674 52.5768 162.094 45.4035C161.867 42.6135 162.057 39.7868 162.057 36.9768H171.994C171.757 41.6435 172.517 46.3102 171.347 50.9468C169.29 59.0635 162.41 65.0535 154.11 66.3335C147.4 67.3668 140.69 66.8435 133.99 66.8135C125.217 66.7702 116.427 67.4802 107.657 66.3002C99.0802 65.1402 91.7902 57.6968 90.4869 49.0535C89.8735 44.9935 90.1269 40.9735 89.9502 36.9368L99.9102 36.9102Z" fill="#00317E"/>
<path d="M178.667 85.0527C176.854 91.5161 175.597 98.1394 173.24 104.449C160.916 104.416 148.595 104.385 136.277 104.356C116.293 104.341 96.3116 104.333 76.3338 104.333C72.3738 104.333 71.3571 103.303 71.3338 99.3661C71.3138 96.1394 71.3004 92.9094 71.3338 89.6827C71.3671 86.4561 72.6271 85.2227 75.8504 85.0927C76.7804 85.0561 77.7138 85.0927 78.6471 85.0927L178.667 85.0527Z" fill="#00317E"/>
<path d="M157.51 163.189C157.42 166.633 156.093 169.773 155.14 173.003C129.18 173.003 103.22 173.003 77.2597 173.003C73.333 173.016 71.333 171.333 71.333 168.226C71.3497 164.973 73.4097 163.269 77.4563 163.266C102.901 163.266 128.345 163.266 153.79 163.266C155.03 163.259 156.27 163.213 157.51 163.189Z" fill="#00317E"/>
<path d="M148.88 195.043C148.84 198.526 147.816 201.773 146.483 204.943C123.51 204.93 100.536 204.914 77.563 204.896C73.6896 204.896 71.623 203.48 71.353 200.71C71.0196 197.376 73.113 195.173 76.8563 195.153C86.3763 195.106 95.8996 195.153 105.42 195.133C119.906 195.113 134.393 195.083 148.88 195.043Z" fill="#00317E"/>
<path d="M140.773 227.073C139.93 230.406 139.507 233.836 137.81 236.896L80.0601 236.776C78.8168 236.776 77.5735 236.83 76.3335 236.76C73.2101 236.586 71.3668 234.79 71.3335 231.966C71.3001 229.143 73.1135 227.263 76.1835 227.023C76.3868 227.006 76.5968 227.023 76.8035 227.023L140.773 227.073Z" fill="#00317E"/>
<path d="M89.3903 268.634C85.1536 268.634 80.9169 268.678 76.6803 268.634C73.2969 268.588 71.3869 266.828 71.3469 263.901C71.2903 260.791 73.2069 258.944 76.7603 258.921C85.1314 258.87 93.5014 258.87 101.87 258.921C105.464 258.921 107.384 260.724 107.367 263.814C107.35 266.904 105.414 268.601 101.804 268.641C97.6669 268.668 93.5236 268.634 89.3903 268.634Z" fill="#00317E"/>
<path d="M89.0231 141.15C84.9931 141.15 80.9631 141.183 76.9364 141.15C73.3097 141.113 71.3197 139.373 71.3331 136.367C71.3497 133.293 73.3331 131.45 76.8331 131.433C85.1997 131.387 93.5664 131.387 101.933 131.433C105.496 131.457 107.4 133.283 107.353 136.397C107.313 139.34 105.42 141.097 102.036 141.143C97.6997 141.197 93.3597 141.15 89.0231 141.15Z" fill="#00317E"/>
<path d="M200.583 110.586C205.613 111.896 210.713 113.183 215.793 114.556C238.597 120.714 261.406 126.883 284.219 133.063C287.919 134.063 288.749 135.523 287.763 139.169C285.323 148.169 282.993 157.216 280.486 166.206C279.296 170.479 278.176 170.919 273.936 169.776C247.138 162.549 220.337 155.341 193.533 148.153C189.043 146.946 188.219 145.769 189.369 141.346C191.703 132.413 194.076 123.499 196.449 114.583C197.016 112.463 197.926 110.666 200.583 110.586Z" fill="#B8D3FF"/>
</svg>
