<svg width="72" height="72" viewBox="0 0 72 72" fill="none" xmlns="http://www.w3.org/2000/svg">
<g id="product-combo">
<path id="Vector 809" d="M49 42V33.5L41.5 32.5L38 37L38.5 54.5L39.5 60L45.5 61.5H64L67.5 56L66.5 38L65 33.5L57 34V41.5L49 42Z" fill="#2894B4"/>
<path id="Union" fill-rule="evenodd" clip-rule="evenodd" d="M29.4265 62.9939C27.9322 62.9939 26.438 62.9945 24.9437 62.995C21.2076 62.9963 17.4715 62.9976 13.7354 62.9907C6.66596 62.9778 2.00564 58.3252 2.00242 51.2819C1.99919 40.7362 1.99919 30.1906 2.00242 19.6449C2.00564 12.6563 6.66595 8.00694 13.6677 8.00372L13.6709 8.00372C24.253 8.0005 34.8319 7.99728 45.414 8.00372C52.1839 8.00694 56.9311 12.637 56.9634 19.4064C56.982 23.271 56.993 27.1356 56.9976 31.0002C58.7512 31.0004 60.5049 31.0011 62.2588 31.0021C66.1976 31.004 68.9597 33.6978 68.9784 37.6364C69.0084 43.8658 69.0047 50.0952 68.9803 56.3246C68.9653 60.2857 66.2539 62.9739 62.2982 62.9927C60.2669 63.0025 58.2356 63.0003 56.2048 62.9981C55.122 62.9969 54.0394 62.9958 52.957 62.9964C52.0877 62.9964 51.2183 62.9967 50.349 62.997C48.1752 62.9978 46.0014 62.9986 43.8276 62.9945C43.6765 62.9943 43.5274 62.9904 43.3802 62.9829C43.5047 62.9892 43.6306 62.993 43.7579 62.9942C40.8421 63.0031 37.9264 62.9999 35.0113 62.9968H35.0091H35.0086C33.1476 62.9948 31.2869 62.9928 29.4265 62.9939ZM37.001 55.6945C29.0732 55.7011 21.1466 55.6973 13.2201 55.6832C10.6725 55.6799 9.30047 54.1366 9.29725 51.3721C9.29242 44.2519 9.29303 37.13 9.29364 30.0076V30.0074L9.29364 29.9909C9.29384 27.6141 9.29404 25.2373 9.29404 22.8604C9.29404 22.4926 9.29195 22.1248 9.28986 21.757C9.28509 20.9166 9.28031 20.0761 9.30047 19.2357C9.35522 16.8965 10.8303 15.3789 13.1556 15.3145C14.3187 15.2819 15.4817 15.293 16.6447 15.3041C17.092 15.3084 17.5393 15.3127 17.9867 15.3145C18.0567 15.3145 18.1281 15.3382 18.2378 15.3747C18.2997 15.3953 18.3737 15.4199 18.4665 15.4466V16.7128C18.4665 17.6424 18.4648 18.5722 18.4631 19.5022V19.5025V19.5027C18.459 21.6735 18.455 23.8449 18.473 26.0148C18.4955 28.4861 20.0254 29.9843 22.4924 29.9908C27.1624 30.0004 31.8324 30.0004 36.5024 29.9908C38.992 29.9843 40.467 28.5248 40.4896 26.0051C40.5078 24.0536 40.5044 22.1009 40.5009 20.1484V20.1483C40.4989 18.9997 40.4968 17.8512 40.4992 16.7032C40.4992 16.4026 40.5164 16.1021 40.5344 15.7864L40.5344 15.7862C40.5423 15.6484 40.5503 15.5077 40.5572 15.3628C41.1759 15.3628 41.7856 15.3505 42.3883 15.3384C43.7623 15.3107 45.1 15.2838 46.4253 15.4047C48.5348 15.5883 49.6621 17.1253 49.6588 19.4773C49.6557 23.3179 49.6486 27.1592 49.6402 31.0005C47.6903 31.0009 45.7403 31.0015 43.7901 31.0021H43.7882C39.7145 31.004 37.003 33.7091 37.0012 37.7752C36.9993 43.7483 36.9993 49.7214 37.001 55.6945ZM33.0949 15.3886H25.9192V22.6027H33.0949V15.3886ZM59.4198 35.53C59.4244 35.4499 59.4291 35.368 59.433 35.2838C59.793 35.2838 60.1477 35.2766 60.4984 35.2696C61.2978 35.2535 62.0761 35.2378 62.8472 35.3081C64.0746 35.415 64.7304 36.3092 64.7285 37.6777C64.7259 40.9095 64.7184 44.1424 64.7109 47.3748C64.708 48.6647 64.705 49.9546 64.7023 51.2444C64.701 51.8634 64.7008 52.4825 64.7007 53.1016C64.7004 54.2165 64.7002 55.3315 64.6929 56.4465C64.6836 57.8674 63.846 58.741 62.4293 58.7429C56.1276 58.7541 49.8277 58.7541 43.5278 58.7429C42.0456 58.741 41.2473 57.8431 41.2454 56.2346C41.2426 52.092 41.243 47.9482 41.2433 43.8042C41.2434 42.4182 41.2436 41.0321 41.2436 39.646C41.2436 39.432 41.2423 39.218 41.2411 39.004C41.2383 38.515 41.2356 38.0261 41.2473 37.5371C41.2792 36.1761 42.1374 35.2931 43.4903 35.2557C44.167 35.2367 44.8437 35.2432 45.5203 35.2496C45.7806 35.2521 46.0408 35.2546 46.3011 35.2557C46.3418 35.2557 46.3834 35.2695 46.4472 35.2907C46.4832 35.3027 46.5263 35.317 46.5803 35.3325V36.0692C46.5803 36.6102 46.5793 37.1512 46.5783 37.6924C46.5759 38.9554 46.5735 40.2188 46.584 41.4813C46.5972 42.9191 47.4872 43.7908 48.9226 43.7946C51.6397 43.8002 54.3568 43.8002 57.0739 43.7946C58.5223 43.7908 59.3806 42.9416 59.3937 41.4757C59.4043 40.3403 59.4023 39.2042 59.4003 38.0683C59.3991 37.3999 59.3979 36.7317 59.3993 36.0636C59.3993 35.8887 59.4093 35.7138 59.4198 35.53ZM50.9164 35.2988H55.0913V39.4961H50.9164V35.2988Z" fill="#0D313B"/>
</g>
</svg>
