<svg width="72" height="72" viewBox="0 0 72 72" fill="none" xmlns="http://www.w3.org/2000/svg">
<g id="product">
<g id="products">
<g id="Group 159054">
<path id="Rectangle 34624447" d="M64 12.5557H8V23.2223H64V12.5557Z" fill="#2894B4"/>
<path id="Rectangle 47 (Stroke)" fill-rule="evenodd" clip-rule="evenodd" d="M9.68888 13.2667C8.90342 13.2667 8.26667 13.9034 8.26667 14.6889V21.0889C8.26667 21.8744 8.90342 22.5111 9.68888 22.5111H62.3111C63.0966 22.5111 63.7333 21.8744 63.7333 21.0889V14.6889C63.7333 13.9034 63.0966 13.2667 62.3111 13.2667H9.68888ZM4 14.6889C4 11.547 6.547 9 9.68888 9H62.3111C65.453 9 68 11.547 68 14.6889V21.0889C68 24.2308 65.453 26.7778 62.3111 26.7778H9.68888C6.547 26.7778 4 24.2308 4 21.0889V14.6889Z" fill="#0D313B"/>
<path id="Rectangle 48" d="M43.5111 33.8887H28.4889C28.2189 33.8887 28 34.1076 28 34.3776V40.5109C28 40.7809 28.2189 40.9998 28.4889 40.9998H43.5111C43.7811 40.9998 44 40.7809 44 40.5109V34.3776C44 34.1076 43.7811 33.8887 43.5111 33.8887Z" fill="#0D313B"/>
<g id="Rectangle 46">
<path id="Vector (Stroke)" fill-rule="evenodd" clip-rule="evenodd" d="M12.2666 27.4879V58.0658H59.7332V27.4879H12.2666ZM7.67578 27.4879C7.67578 23.5606 8.33921 22.1946 12.2666 22.1946L35.3305 22.1943H59.7332C64.367 22.1947 64.3666 22.1943 64.3666 27.7252L64.3672 42.9351L64.367 58.0658C64.367 62.2934 64.367 62.2934 59.7332 62.2934H36.7127H12.2662C7.67578 62.2934 7.67578 62.3725 7.67578 58.145V42.9351V27.4879Z" fill="#0D313B"/>
</g>
</g>
</g>
</g>
</svg>
