<svg width="72" height="72" viewBox="0 0 72 72" fill="none" xmlns="http://www.w3.org/2000/svg">
<g id="generate-voucher">
<g id="Group">
<path id="Vector" d="M67.5612 18.3987C67.1942 18.2248 66.5566 17.9931 66.1413 17.8867C65.3106 17.655 32.3819 17.5488 31.6671 17.7613C31.3774 17.8578 30.9137 18.2442 29.9575 19.2004L28.6534 20.5045L27.3205 19.1715C25.9971 17.8481 25.9779 17.8289 25.321 17.7322C24.9636 17.6839 20.559 17.6453 15.5458 17.655C6.77506 17.6742 6.36936 17.6936 5.27786 18.0703L4.1284 18.4664L1.69425 20.9005L1.31754 22.0307C0.989121 22.9966 0.921505 23.6052 0.902187 26.503C0.873209 28.3479 0.902186 30.1542 0.950483 30.5115C1.09537 31.4099 1.55902 31.8542 2.44768 31.9508C4.64035 32.1922 6.21482 33.6701 6.36936 35.6214C6.47562 37.0799 5.83811 38.4708 4.67898 39.2629C4.10908 39.6396 3.47157 39.8521 2.24484 40.0549C1.49141 40.1708 1.08571 40.596 0.950483 41.4073C0.902186 41.7647 0.873209 43.571 0.902187 45.4159C0.921505 48.3137 0.989121 48.9222 1.31754 49.8881L1.69425 51.0184L4.1284 53.4525L5.27786 53.8485C6.36936 54.2252 6.77506 54.2446 15.5458 54.2638C20.559 54.2735 24.9636 54.2349 25.321 54.1866C25.9779 54.0899 25.9971 54.0707 27.3205 52.7473L28.6534 51.4143L29.9575 52.7183C30.9137 53.6746 31.3774 54.061 31.6671 54.1576C32.1597 54.3026 44.0697 54.1382 44.0697 54.1382V51.3951C44.0697 51.3951 41.2396 51.2888 38.1582 51.2791L32.5752 51.2598L29.1847 47.9853L28.6534 47.9949L28.1222 47.9853L24.7125 51.2791L15.6038 51.2694C9.36376 51.2694 6.33072 51.1921 5.98299 51.057C5.25855 50.7575 4.32158 49.7819 4.08011 49.0575C3.9642 48.7291 3.87726 47.2319 3.87726 45.5898C3.88692 42.779 3.88692 42.7016 4.25398 42.6243C5.49036 42.3538 6.94892 41.3397 7.87622 40.1226C9.51831 37.9589 9.73082 35.0611 8.41714 32.6462C7.66371 31.2746 5.96368 29.8644 4.44715 29.3717L3.87726 29.1882V26.3097C3.87726 24.687 3.9642 23.1897 4.08011 22.8613C4.32158 22.137 5.25855 21.1614 5.98299 20.8619C6.33072 20.7266 9.36376 20.6494 15.6038 20.6494L24.7125 20.6397L28.1222 23.9336L28.6534 23.9239L29.1847 23.9336L32.5847 20.6494H49.0443C60.5968 20.6494 65.6487 20.717 66.006 20.8619C66.7305 21.1612 67.6675 22.137 67.9089 22.8613C68.0248 23.1897 68.1118 24.687 68.1118 26.3097V29.1882L67.5419 29.3717C65.9481 29.8837 64.2867 31.294 63.5043 32.7911C61.9395 35.7469 62.7895 39.456 65.4845 41.4942C66.2282 42.0448 67.088 42.4795 67.7351 42.6243C68.1022 42.7016 68.1022 42.779 68.1118 45.5898C68.1118 47.2319 68.0248 48.7291 67.9089 49.0575C67.6675 49.7819 66.7305 50.7575 65.9963 51.0473C65.6679 51.1826 63.8038 51.2694 60.6838 51.2791C58.0371 51.2791 55.7189 51.3371 55.545 51.3951H44.0697V54.1382C44.0697 54.1382 58.1724 54.2735 60.7997 54.2541C65.1657 54.2349 65.6681 54.1962 66.7112 53.8485L67.8606 53.4525L70.2948 51.0184L70.6812 49.8786C71.0097 48.8933 71.0676 48.3137 71.0965 45.4062C71.1159 43.571 71.0868 41.7647 71.0289 41.417C70.913 40.6635 70.5267 40.1999 69.9085 40.084C69.6863 40.0357 69.1551 39.9294 68.7204 39.8424C65.7356 39.2532 64.5958 35.6406 66.6629 33.3417C67.4067 32.5014 68.0731 32.1633 69.3482 31.9894C70.0727 31.8832 70.3141 31.7769 70.6715 31.4196L71.1062 30.9849L71.0965 27.0922C71.0772 23.5761 71.0386 23.0738 70.6909 22.0499C70.3045 20.9488 70.2466 20.8522 69.2613 19.809C68.4499 18.959 68.0636 18.6498 67.5612 18.3987Z" fill="#0D313B"/>
<g id="Vector_2">
<path fill-rule="evenodd" clip-rule="evenodd" d="M8.41773 32.6459C9.73141 35.0608 9.51891 37.9586 7.87681 40.1222C6.94952 41.3393 5.49096 42.3535 4.25457 42.6239C3.88778 42.7013 3.88751 42.7785 3.87787 45.5833L3.87785 45.5894C3.87785 47.2315 3.96479 48.7287 4.0807 49.0572C4.32218 49.7815 5.25914 50.7571 5.98358 51.0566C6.33132 51.1918 9.36435 51.2691 15.6043 51.2691L24.7131 51.2788L28.1227 47.9849L28.654 47.9946L29.1853 47.9849L32.5758 51.2594L38.1588 51.2788C41.2402 51.2885 44.0703 51.3947 44.0703 51.3947H55.5456C55.7195 51.3367 58.0377 51.2788 60.6844 51.2788C63.8044 51.2691 65.6685 51.1822 65.9969 51.0469C66.7311 50.7571 67.6681 49.7815 67.9095 49.0572C68.0254 48.7287 68.1124 47.2315 68.1124 45.5894V45.5833C68.1028 42.7785 68.1025 42.7013 67.7357 42.6239C67.0886 42.4791 66.2288 42.0444 65.4851 41.4938C62.7901 39.4557 61.9401 35.7465 63.5049 32.7907C64.2873 31.2936 65.9487 29.8834 67.5425 29.3714L68.1124 29.1878V26.3094C68.1124 24.6866 68.0254 23.1894 67.9095 22.861C67.6681 22.1366 66.7311 21.1609 66.0066 20.8615C65.6493 20.7167 60.5974 20.649 49.0449 20.649H32.5853L29.1853 23.9332L28.654 23.9235L28.1227 23.9332L24.7131 20.6394L15.6043 20.649C9.36435 20.649 6.33132 20.7262 5.98358 20.8615C5.25914 21.161 4.32218 22.1366 4.0807 22.861C3.96479 23.1894 3.87785 24.6866 3.87785 26.3094V29.1878L4.44775 29.3714C5.96427 29.864 7.66431 31.2742 8.41773 32.6459ZM4.07766 29.0423L4.50901 29.1812C5.2968 29.4371 6.12318 29.9276 6.84618 30.525C7.56909 31.1223 8.20107 31.8364 8.59286 32.5497C9.94363 35.0328 9.72615 38.016 8.03598 40.243C7.08679 41.4889 5.58991 42.5364 4.29727 42.8192L4.29574 42.8195C4.20691 42.8382 4.19928 42.848 4.19608 42.8522C4.19592 42.8523 4.19624 42.8519 4.19608 42.8522C4.18429 42.8663 4.15355 42.9198 4.13048 43.1062C4.0853 43.4711 4.08252 44.1757 4.07766 45.5897C4.07766 46.4075 4.09933 47.1882 4.13528 47.8043C4.15327 48.1124 4.17474 48.3776 4.19861 48.5848C4.22323 48.7985 4.24862 48.9325 4.26912 48.9906L4.27025 48.994C4.37785 49.3167 4.65046 49.7167 4.99557 50.0782C5.33919 50.4382 5.73096 50.7353 6.05732 50.8709C6.0754 50.8775 6.1364 50.8912 6.26415 50.9061C6.38728 50.9205 6.5545 50.9344 6.76819 50.9474C7.19519 50.9735 7.79898 50.9957 8.58894 51.0138C10.1683 51.05 12.4848 51.0692 15.6043 51.0692L24.6324 51.0789L28.0435 47.7837L28.6541 47.7947L29.2645 47.7837L32.6567 51.06L38.1594 51.0789C39.702 51.0838 41.1815 51.1128 42.2752 51.1407C42.822 51.1545 43.2725 51.1681 43.5864 51.1782C43.7434 51.1833 43.8662 51.1875 43.9497 51.1904L44.045 51.1938L44.0739 51.1949H55.5213C55.5409 51.1907 55.5606 51.1879 55.5766 51.1857C55.6083 51.1815 55.6469 51.1776 55.6911 51.1739C55.7798 51.1665 55.8976 51.1593 56.0401 51.1525C56.3257 51.1388 56.7162 51.1261 57.183 51.1152C58.117 51.0934 59.3597 51.0789 60.6844 51.0789C62.2429 51.0741 63.4855 51.05 64.3787 51.0103C64.8256 50.9904 65.1826 50.9669 65.447 50.94C65.5792 50.9267 65.6861 50.9127 65.7683 50.8984C65.854 50.8836 65.9011 50.8703 65.921 50.8621L65.9237 50.8611C66.254 50.7307 66.6484 50.4361 66.9939 50.0766C67.3399 49.7166 67.6124 49.3166 67.72 48.994L67.7211 48.9906C67.7417 48.9325 67.7671 48.7985 67.7917 48.5847C67.8155 48.3776 67.837 48.1124 67.855 47.8043C67.8909 47.1883 67.9126 46.4078 67.9126 45.5901C67.9077 44.1758 67.9049 43.4711 67.8597 43.1062C67.8367 42.9198 67.8065 42.8668 67.7946 42.8527C67.7914 42.8485 67.7833 42.8382 67.6946 42.8195L67.692 42.819C67.0086 42.666 66.1235 42.215 65.3662 41.6544L65.3646 41.6532C62.5932 39.5574 61.7167 35.7419 63.328 32.6978C64.1346 31.155 65.8369 29.7095 67.4813 29.1812M67.4813 29.1812L67.9126 29.0423V26.3094C67.9126 25.5012 67.8909 24.7251 67.855 24.1116C67.837 23.8045 67.8155 23.5398 67.7917 23.333C67.7671 23.1196 67.7417 22.9856 67.7211 22.9275L67.72 22.9242C67.6124 22.6014 67.3398 22.2014 66.9947 21.8398C66.6507 21.4795 66.2584 21.1821 65.9317 21.0467C65.9321 21.0468 65.9317 21.0468 65.9304 21.0464C65.9249 21.0451 65.9035 21.0399 65.8561 21.0331C65.8023 21.0255 65.7285 21.0177 65.633 21.01C65.4423 20.9945 65.1737 20.9801 64.8226 20.9668C64.1208 20.9402 63.0969 20.9183 61.7214 20.9008C58.971 20.8657 54.821 20.8489 49.0449 20.8489H32.6661L29.2645 24.1344L28.6541 24.1234L28.0435 24.1344L24.6324 20.8392L15.6045 20.8489C12.485 20.8489 10.1683 20.8681 8.58894 20.9043C7.79898 20.9224 7.19519 20.9446 6.76819 20.9707C6.5545 20.9838 6.38728 20.9976 6.26415 21.012C6.1362 21.0271 6.07521 21.0408 6.05724 21.0473C5.7309 21.183 5.33916 21.4799 4.99557 21.8398C4.65046 22.2014 4.37785 22.6014 4.27025 22.9242L4.26912 22.9275C4.24862 22.9856 4.22323 23.1196 4.19859 23.333C4.17474 23.5398 4.15326 23.8045 4.13528 24.1116C4.09932 24.7251 4.07766 25.5012 4.07766 26.3094V29.0423M44.0691 54.3377H44.0709H44.0726L44.0787 54.3378L46.3132 54.3585C47.6763 54.3709 49.5214 54.3872 51.4485 54.4029C55.3015 54.4343 59.4861 54.4633 60.8018 54.4536C65.1557 54.4344 65.6948 54.3978 66.775 54.0377L66.7768 54.0371L67.9699 53.626L70.4697 51.1263L70.8713 49.9413C71.211 48.9221 71.2681 48.3121 71.297 45.4078C71.3067 44.4888 71.3042 43.5765 71.2921 42.85C71.2802 42.1343 71.2588 41.5782 71.2268 41.3849C71.1648 40.9829 71.0281 40.6419 70.8107 40.3826C70.5916 40.1214 70.2993 39.9541 69.9487 39.8878C69.7228 39.8387 69.192 39.7326 68.7603 39.6462C65.9358 39.0887 64.843 35.6649 66.8121 33.475L66.8132 33.4738C67.1736 33.0666 67.5068 32.7905 67.8969 32.5937C68.2886 32.3961 68.75 32.2724 69.3758 32.187L69.3778 32.1867C69.7428 32.1332 70.0063 32.0773 70.2274 31.9818C70.4544 31.8836 70.6247 31.7493 70.8134 31.5604L71.3068 31.067L71.297 27.0913C71.2776 23.5833 71.2408 23.0457 70.8806 21.9853L70.8801 21.9834C70.688 21.4365 70.5701 21.1149 70.3698 20.8001C70.1716 20.4886 69.8962 20.1892 69.4072 19.6714L69.4063 19.6706C68.5905 18.816 68.1849 18.4866 67.6511 18.2196L67.6474 18.2178C67.2693 18.0388 66.621 17.803 66.1932 17.6933C66.145 17.6803 66.0686 17.6724 65.9881 17.666C65.8981 17.6587 65.7795 17.6517 65.635 17.645C65.3459 17.6314 64.9475 17.6184 64.4564 17.606C63.4738 17.5814 62.1156 17.559 60.5078 17.5394C57.292 17.5001 53.0751 17.4718 48.862 17.4572C44.649 17.4427 40.4394 17.4422 37.2381 17.4584C35.6375 17.4666 34.2883 17.479 33.3167 17.496C32.831 17.5044 32.4386 17.5141 32.1559 17.525C32.0147 17.5305 31.8993 17.5363 31.8128 17.5426C31.7364 17.5481 31.6584 17.5551 31.6108 17.5694L31.6045 17.5713C31.4213 17.6323 31.2086 17.7748 30.9343 18.0051C30.6558 18.2391 30.2958 18.5798 29.8168 19.0589L28.654 20.2215L27.4366 19.004C26.7986 18.3661 26.4538 18.0213 26.1884 17.8295C25.895 17.6175 25.685 17.5834 25.3507 17.5342L25.3484 17.5339C25.2443 17.5198 24.886 17.5085 24.3522 17.4983C23.8096 17.488 23.068 17.479 22.1815 17.4718C20.4083 17.4572 18.0531 17.45 15.546 17.4548C11.1628 17.4645 8.86366 17.474 7.52457 17.5286C6.1768 17.5835 5.78224 17.6848 5.21327 17.8811L4.02032 18.2921L1.5202 20.7923L1.12896 21.9659C1.12903 21.9658 1.12888 21.9662 1.12896 21.9659C0.788983 22.9661 0.722285 23.6064 0.702978 26.5003C0.688474 27.4244 0.688473 28.3388 0.698155 29.0673C0.707748 29.7892 0.726912 30.3444 0.753064 30.5379L0.753749 30.543C0.830558 31.0193 0.996118 31.4007 1.28234 31.6756C1.56891 31.9509 1.95387 32.0977 2.42668 32.1491C4.5406 32.382 6.02475 33.797 6.17072 35.6361C6.2719 37.0279 5.6635 38.3475 4.56813 39.0967C4.0335 39.4498 3.42892 39.6563 2.21393 39.8573C1.80596 39.9202 1.47204 40.0704 1.22203 40.3319C0.973248 40.592 0.825819 40.9431 0.753983 41.374L0.75297 41.3802C0.726818 41.5737 0.707748 42.1289 0.698155 42.8507C0.688473 43.5793 0.688474 44.4937 0.702978 45.4178C0.722285 48.3117 0.788765 48.9513 1.12874 49.9515C1.12867 49.9512 1.12881 49.9516 1.12874 49.9515L1.5202 51.1259L4.02032 53.626L5.21327 54.037C5.78224 54.2333 6.1768 54.3346 7.52457 54.3895C8.86366 54.4441 11.1628 54.4536 15.5458 54.4633C18.053 54.4682 20.4083 54.4609 22.1815 54.4464C23.068 54.4391 23.8096 54.4301 24.3522 54.4197C24.886 54.4097 25.2443 54.3984 25.3484 54.3842L25.3507 54.384C25.685 54.3347 25.895 54.3006 26.1884 54.0886C26.4538 53.8969 26.7986 53.552 27.4366 52.9141L28.654 51.6965L29.8168 52.8593C30.2958 53.3383 30.6558 53.679 30.9343 53.913C31.2086 54.1434 31.4213 54.2858 31.6045 54.3468L31.6114 54.349C31.6458 54.3592 31.6884 54.3647 31.7255 54.3686C31.7668 54.3731 31.8178 54.3768 31.8764 54.3803C31.994 54.3873 32.1499 54.3931 32.3371 54.3978C32.712 54.4072 33.2193 54.4126 33.8127 54.4152C34.9996 54.4201 36.5355 54.4131 38.0553 54.4017C39.5752 54.3903 41.0796 54.3743 42.204 54.3611C42.7663 54.3545 43.2335 54.3487 43.5602 54.3444L44.0644 54.3378L44.0691 54.3377ZM28.654 51.4139L27.3211 52.747C25.9977 54.0703 25.9785 54.0896 25.3216 54.1863C24.9642 54.2345 20.5596 54.2731 15.5464 54.2635C6.77565 54.2442 6.36995 54.2249 5.27845 53.8482L4.129 53.4521L1.69484 51.018L1.31813 49.8878C0.989713 48.9219 0.922097 48.3133 0.902779 45.4155C0.873801 43.5706 0.902778 41.7643 0.951075 41.407C1.08631 40.5956 1.492 40.1705 2.24543 40.0546C3.47216 39.8517 4.10967 39.6393 4.67958 39.2626C5.8387 38.4704 6.47621 37.0795 6.36996 35.621C6.21542 33.6697 4.64094 32.1919 2.44828 31.9504C1.55961 31.8539 1.09596 31.4095 0.951075 30.5112C0.902778 30.1538 0.873801 28.3475 0.902779 26.5026C0.922097 23.6048 0.989713 22.9963 1.31813 22.0304L1.69484 20.9001L4.129 18.466L5.27845 18.07C6.36995 17.6933 6.77565 17.6739 15.5464 17.6547C20.5596 17.645 24.9642 17.6836 25.3216 17.7319C25.9785 17.8286 25.9977 17.8478 27.3211 19.1711L28.654 20.5042L29.9581 19.2001C30.9143 18.2439 31.378 17.8575 31.6677 17.7609C32.3825 17.5484 65.3112 17.6547 66.1419 17.8864C66.5572 17.9928 67.1948 18.2245 67.5618 18.3984C68.0642 18.6495 68.4505 18.9587 69.2619 19.8086C70.2472 20.8518 70.3051 20.9484 70.6915 22.0496C71.0392 23.0734 71.0778 23.5758 71.0971 27.0918L71.1068 30.9846L70.6721 31.4192C70.3147 31.7766 70.0733 31.8828 69.3488 31.989C68.0737 32.1629 67.4073 32.501 66.6635 33.3413C64.5964 35.6403 65.7362 39.2529 68.721 39.8421C69.1557 39.9291 69.6869 40.0353 69.9091 40.0836C70.5273 40.1995 70.9136 40.6631 71.0295 41.4166C71.0874 41.7643 71.1165 43.5706 71.0971 45.4058C71.0682 48.3133 71.0103 48.893 70.6818 49.8782L70.2954 51.018L67.8612 53.4521L66.7118 53.8482C65.6687 54.1958 65.1663 54.2345 60.8003 54.2538C58.173 54.2731 44.0703 54.1379 44.0703 54.1379C44.0703 54.1379 32.1603 54.3022 31.6677 54.1572C31.378 54.0607 30.9143 53.6743 29.9581 52.7179L28.654 51.4139Z" fill="#0D313B"/>
<path d="M4.07766 29.0423L4.50901 29.1812C5.2968 29.4371 6.12318 29.9276 6.84618 30.525C7.56909 31.1223 8.20107 31.8364 8.59286 32.5497C9.94363 35.0328 9.72615 38.016 8.03598 40.243C7.08679 41.4889 5.58991 42.5364 4.29727 42.8192L4.29574 42.8195C4.20691 42.8382 4.19928 42.848 4.19608 42.8522C4.18429 42.8663 4.15355 42.9198 4.13048 43.1062C4.0853 43.4711 4.08252 44.1757 4.07766 45.5897C4.07766 46.4075 4.09933 47.1882 4.13528 47.8043C4.15327 48.1124 4.17474 48.3776 4.19861 48.5848C4.22323 48.7985 4.24862 48.9325 4.26912 48.9906L4.27025 48.994C4.37785 49.3167 4.65046 49.7167 4.99557 50.0782C5.33919 50.4382 5.73096 50.7353 6.05732 50.8709C6.0754 50.8775 6.1364 50.8912 6.26415 50.9061C6.38728 50.9205 6.5545 50.9344 6.76819 50.9474C7.19519 50.9735 7.79898 50.9957 8.58894 51.0138C10.1683 51.05 12.4848 51.0692 15.6043 51.0692L24.6324 51.0789L28.0435 47.7837L28.6541 47.7947L29.2645 47.7837L32.6567 51.06L38.1594 51.0789C39.702 51.0838 41.1815 51.1128 42.2752 51.1407C42.822 51.1545 43.2725 51.1681 43.5864 51.1782C43.7434 51.1833 43.8662 51.1875 43.9497 51.1904L44.045 51.1938L44.0739 51.1949H55.5213C55.5409 51.1907 55.5606 51.1879 55.5766 51.1857C55.6083 51.1815 55.6469 51.1776 55.6911 51.1739C55.7798 51.1665 55.8976 51.1593 56.0401 51.1525C56.3257 51.1388 56.7162 51.1261 57.183 51.1152C58.117 51.0934 59.3597 51.0789 60.6844 51.0789C62.2429 51.0741 63.4855 51.05 64.3787 51.0103C64.8256 50.9904 65.1826 50.9669 65.447 50.94C65.5792 50.9267 65.6861 50.9127 65.7683 50.8984C65.854 50.8836 65.9011 50.8703 65.921 50.8621L65.9237 50.8611C66.254 50.7307 66.6484 50.4361 66.9939 50.0766C67.3399 49.7166 67.6124 49.3166 67.72 48.994L67.7211 48.9906C67.7417 48.9325 67.7671 48.7985 67.7917 48.5847C67.8155 48.3776 67.837 48.1124 67.855 47.8043C67.8909 47.1883 67.9126 46.4078 67.9126 45.5901C67.9077 44.1758 67.9049 43.4711 67.8597 43.1062C67.8367 42.9198 67.8065 42.8668 67.7946 42.8527C67.7914 42.8485 67.7833 42.8382 67.6946 42.8195L67.692 42.819C67.0086 42.666 66.1235 42.215 65.3662 41.6544L65.3646 41.6532C62.5932 39.5574 61.7167 35.7419 63.328 32.6978C64.1346 31.155 65.8369 29.7095 67.4813 29.1812L67.9126 29.0423V26.3094C67.9126 25.5012 67.8909 24.7251 67.855 24.1116C67.837 23.8045 67.8155 23.5398 67.7917 23.333C67.7671 23.1196 67.7417 22.9856 67.7211 22.9275L67.72 22.9242C67.6124 22.6014 67.3398 22.2014 66.9947 21.8398C66.6507 21.4795 66.2584 21.1821 65.9317 21.0467C65.9321 21.0468 65.9317 21.0468 65.9304 21.0464C65.9249 21.0451 65.9035 21.0399 65.8561 21.0331C65.8023 21.0255 65.7285 21.0177 65.633 21.01C65.4423 20.9945 65.1737 20.9801 64.8226 20.9668C64.1208 20.9402 63.0969 20.9183 61.7214 20.9008C58.971 20.8657 54.821 20.8489 49.0449 20.8489H32.6661L29.2645 24.1344L28.6541 24.1234L28.0435 24.1344L24.6324 20.8392L15.6045 20.8489C12.485 20.8489 10.1683 20.8681 8.58894 20.9043C7.79898 20.9224 7.19519 20.9446 6.76819 20.9707C6.5545 20.9838 6.38728 20.9976 6.26415 21.012C6.1362 21.0271 6.07521 21.0408 6.05724 21.0473C5.7309 21.183 5.33916 21.4799 4.99557 21.8398C4.65046 22.2014 4.37785 22.6014 4.27025 22.9242L4.26912 22.9275C4.24862 22.9856 4.22323 23.1196 4.19859 23.333C4.17474 23.5398 4.15326 23.8045 4.13528 24.1116C4.09932 24.7251 4.07766 25.5012 4.07766 26.3094V29.0423Z" fill="#2894B4"/>
</g>
<path id="Vector_3" d="M51.9907 28.0191C51.6817 27.9418 50.9475 28.1542 50.7061 28.3958C50.4742 28.6276 42.2928 43.1262 42.1769 43.4933C41.9256 44.3434 42.6212 45.2513 43.5291 45.2513C43.9735 45.2513 44.1763 45.1644 44.4855 44.8554C44.7075 44.6332 46.7457 41.1654 49.0157 37.1375C53.6039 29.014 53.4783 29.2942 52.6765 28.4923C52.4544 28.2702 52.1452 28.0577 51.9907 28.0191Z" fill="#0D313B"/>
<path id="Vector_4" fill-rule="evenodd" clip-rule="evenodd" d="M41.9861 43.4363C41.6955 44.42 42.4945 45.4508 43.53 45.4508C43.7639 45.4508 43.9558 45.4282 44.1358 45.3533C44.3156 45.2783 44.4653 45.1585 44.6276 44.9962C44.6544 44.9694 44.6837 44.9307 44.7112 44.8924C44.7411 44.8507 44.7771 44.7976 44.8187 44.7345C44.9017 44.6081 45.0095 44.4367 45.1389 44.2264C45.3977 43.8054 45.7451 43.2239 46.1558 42.5243C46.9776 41.125 48.0552 39.2501 49.1906 37.2353C49.3113 37.0215 49.4288 36.8135 49.5431 36.6111C51.5966 32.9761 52.6281 31.1501 53.0523 30.1467C53.2738 29.6223 53.3529 29.2735 53.2828 28.9907C53.2468 28.8451 53.1751 28.7318 53.0916 28.6321C53.0313 28.5602 52.9575 28.4875 52.8846 28.4159C52.8624 28.3941 52.8404 28.3723 52.8187 28.3508C52.6983 28.2304 52.5561 28.1141 52.4225 28.0221C52.2954 27.9344 52.1545 27.8534 52.04 27.8249C51.9295 27.7972 51.7984 27.7984 51.6725 27.8124C51.5431 27.8267 51.4032 27.8562 51.2679 27.8957C51.0076 27.9716 50.7231 28.0966 50.5656 28.2541C50.5487 28.271 50.5344 28.291 50.5274 28.3009C50.5178 28.3146 50.5067 28.3309 50.4949 28.3491C50.4711 28.3857 50.4404 28.4348 50.4037 28.4949C50.3301 28.6156 50.2296 28.7845 50.1064 28.9946C49.8597 29.4147 49.5203 30.0023 49.1194 30.7012C48.3177 32.0993 47.2695 33.9452 46.2249 35.7952C45.1803 37.6452 44.1393 39.4995 43.3521 40.9146C42.9586 41.622 42.6282 42.22 42.3925 42.6527C42.2747 42.8691 42.1802 43.0448 42.1132 43.1725C42.0797 43.2364 42.0526 43.2891 42.0327 43.3295C42.0158 43.3634 41.9965 43.4036 41.9872 43.4328L41.9861 43.4363Z" fill="#0D313B"/>
<path id="Vector_5" d="M56.4381 38.4357C55.5397 38.1362 54.7574 38.1458 53.7431 38.4453C52.9511 38.6771 51.4538 40.2129 51.2027 41.0437C50.9032 42.0386 50.9032 42.6954 51.222 43.6324C51.7533 45.2455 53.2795 46.4432 54.9119 46.5495C56.1386 46.6171 57.1626 46.2307 58.0802 45.3131C58.9302 44.4438 59.2876 43.6807 59.3456 42.5601C59.3939 41.43 59.0558 40.5896 58.1285 39.5851C57.3943 38.793 57.2688 38.7061 56.4381 38.4357ZM56.4187 42.1062C56.467 42.2705 56.4187 42.6084 56.3125 42.8693C56.1483 43.2653 56.0517 43.362 55.6556 43.5262C54.3807 44.0477 53.3181 42.4636 54.284 41.4977C54.9602 40.8215 56.129 41.1596 56.4187 42.1062Z" fill="#0D313B"/>
<path id="Vector_6" fill-rule="evenodd" clip-rule="evenodd" d="M51.2032 41.0442C50.9037 42.0391 50.9037 42.696 51.2224 43.6329C51.7538 45.246 53.28 46.4437 54.9124 46.55C56.139 46.6176 57.163 46.2312 58.0806 45.3136C58.9306 44.4443 59.2881 43.6812 59.346 42.5607C59.3943 41.4306 59.0562 40.5901 58.1289 39.5857C57.3948 38.7935 57.2693 38.7066 56.4385 38.4362C55.5402 38.1367 54.7578 38.1464 53.7435 38.4459C52.9515 38.6776 51.4543 40.2134 51.2032 41.0442ZM53.6871 38.2542C53.4553 38.3221 53.1909 38.478 52.9289 38.6723C52.6632 38.8694 52.386 39.1164 52.1277 39.3808C51.8693 39.6454 51.627 39.9303 51.432 40.2046C51.2391 40.4758 51.084 40.7483 51.012 40.9863C50.8588 41.4954 50.7788 41.9292 50.7813 42.3615C50.7839 42.7941 50.8691 43.2141 51.0331 43.6964C51.5892 45.3836 53.1831 46.6377 54.8995 46.7494L54.9015 46.7496C56.1861 46.8204 57.2651 46.4119 58.222 45.455L58.2236 45.4534C58.6592 45.0078 58.9767 44.5813 59.1919 44.1151C59.4075 43.648 59.5156 43.1512 59.5456 42.571L59.5457 42.5693C59.5709 41.9806 59.4955 41.4585 59.2885 40.9507C59.0822 40.4446 58.7497 39.9636 58.2758 39.4501C57.9119 39.0574 57.6815 38.8197 57.4325 38.6502C57.1794 38.4779 56.9154 38.3813 56.5011 38.2464C55.5585 37.9324 54.7339 37.9452 53.6871 38.2542ZM56.1283 42.7939C56.0476 42.9885 55.9946 43.0795 55.9303 43.1439C55.8659 43.2082 55.7748 43.2612 55.5802 43.3419C54.4996 43.7836 53.6201 42.4453 54.4259 41.6396C54.9826 41.0828 55.9763 41.345 56.2279 42.1639C56.2396 42.2052 56.2442 42.2963 56.2263 42.4243C56.2091 42.5468 56.1745 42.6801 56.1283 42.7939ZM56.4192 42.1068C56.4675 42.271 56.4192 42.6089 56.3129 42.8698C56.1487 43.2658 56.0522 43.3625 55.6561 43.5267C54.3811 44.0482 53.3186 42.4641 54.2844 41.4982C54.9607 40.822 56.1295 41.1601 56.4192 42.1068Z" fill="#0D313B"/>
<path id="Vector_7" d="M43.6745 25.3659C42.4285 24.7766 40.9603 24.8153 39.8011 25.4914C38.9994 25.9454 38.159 27.0176 37.8886 27.9256C36.9227 31.1905 40.0619 34.1559 43.2881 33.0354C44.2831 32.678 45.4422 31.5383 45.7803 30.5625C46.0797 29.7029 46.0797 28.5437 45.79 27.6938C45.4711 26.7954 44.5632 25.7909 43.6745 25.3659ZM43.0756 29.0364C43.1239 29.8768 42.6217 30.3597 41.7813 30.3115C41.2693 30.2825 41.1245 30.2149 40.8734 29.8671C40.1489 28.8722 41.0376 27.5586 42.1966 27.9063C42.8149 28.0802 43.037 28.3795 43.0756 29.0364Z" fill="#0D313B"/>
<path id="Vector_8" fill-rule="evenodd" clip-rule="evenodd" d="M43.7569 25.1858C42.4551 24.5703 40.9176 24.6082 39.6985 25.3188C39.2689 25.5622 38.84 25.9637 38.4854 26.4154C38.1302 26.8679 37.8382 27.385 37.6941 27.8691C36.6812 31.2925 39.9732 34.3977 43.3506 33.2247L43.3527 33.224C43.8855 33.0325 44.4481 32.6385 44.918 32.1734C45.3876 31.7089 45.7835 31.1549 45.9659 30.6287C46.28 29.7267 46.28 28.5218 45.976 27.6299L45.9752 27.6274C45.8048 27.1473 45.4816 26.6493 45.0909 26.2187C44.7 25.7878 44.2299 25.412 43.7569 25.1858ZM39.7981 25.4919C40.9573 24.8158 42.4255 24.7771 43.6715 25.3664C44.5602 25.7914 45.4681 26.7959 45.787 27.6943C46.0767 28.5442 46.0767 29.7034 45.7773 30.563C45.4392 31.5387 44.2801 32.6785 43.2851 33.0359C40.0589 34.1564 36.9197 31.191 37.8856 27.9261C38.156 27.0181 38.9965 25.9459 39.7981 25.4919ZM41.7895 30.1125C41.5342 30.0981 41.4061 30.0746 41.3138 30.0297C41.2277 29.9878 41.1524 29.9172 41.0322 29.7507C40.4094 28.8954 41.1781 27.8107 42.1362 28.0983L42.1394 28.0992C42.4278 28.1803 42.5913 28.2819 42.6922 28.4127C42.7943 28.5453 42.8548 28.7374 42.8731 29.0487C42.8949 29.4272 42.792 29.6956 42.6189 29.8649C42.4451 30.0349 42.1704 30.1344 41.7895 30.1125ZM43.0726 29.0369C43.1209 29.8773 42.6188 30.3602 41.7783 30.3119C41.2663 30.283 41.1215 30.2154 40.8704 29.8676C40.1459 28.8727 41.0346 27.5591 42.1936 27.9068C42.8119 28.0807 43.034 28.38 43.0726 29.0369Z" fill="#0D313B"/>
<path id="Vector_9" d="M28.6529 26.8604C28.1893 26.8604 28.0057 26.9472 27.6484 27.3047C27.2717 27.6814 27.2041 27.865 27.1751 28.4928C27.1172 29.4394 27.2137 29.7292 27.7064 30.2219C28.257 30.7531 29.0586 30.7241 29.6382 30.1445C29.9859 29.7968 30.0342 29.6325 30.0439 28.7149C30.0342 27.7973 29.9956 27.6428 29.6286 27.2756C29.3002 26.9472 29.0972 26.8604 28.6529 26.8604Z" fill="#0D313B"/>
<path id="Vector_10" fill-rule="evenodd" clip-rule="evenodd" d="M27.5683 30.3653C28.2052 30.9798 29.1316 30.934 29.7802 30.2854C29.9635 30.1022 30.0902 29.9452 30.1607 29.6978C30.226 29.4683 30.2396 29.1702 30.2445 28.7167V28.7124C30.2397 28.2606 30.2286 27.9637 30.1631 27.7338C30.0923 27.4855 29.9623 27.3259 29.7705 27.1341C29.5995 26.963 29.4452 26.8382 29.2632 26.7608C29.0803 26.6828 28.8877 26.6602 28.6536 26.6602C28.4107 26.6602 28.2161 26.6825 28.03 26.7657C27.8467 26.8478 27.6903 26.9806 27.5078 27.163C27.3136 27.3573 27.1791 27.5207 27.0961 27.7309C27.0154 27.9358 26.9908 28.1678 26.9763 28.4818C26.9472 28.9563 26.9541 29.2969 27.0442 29.5865C27.1368 29.8845 27.3107 30.1078 27.5657 30.3627L27.5683 30.3653ZM27.1758 28.4924C27.2048 27.8646 27.2724 27.6811 27.6491 27.3044C28.0064 26.9469 28.19 26.86 28.6536 26.86C29.0979 26.86 29.3009 26.9469 29.6293 27.2753C29.9963 27.6425 30.0349 27.797 30.0446 28.7146C30.0349 29.6322 29.9866 29.7964 29.6389 30.1442C29.0593 30.7237 28.2577 30.7528 27.7071 30.2215C27.2144 29.7289 27.1179 29.4391 27.1758 28.4924Z" fill="#0D313B"/>
<path id="Vector_11" d="M28.6555 34.0078C28.1918 34.0078 28.0082 34.0948 27.6412 34.4618C27.2451 34.8579 27.1968 35.0028 27.1679 35.8238C27.1292 36.925 27.3804 37.5239 28.0276 37.8426C28.6167 38.1421 29.0805 38.0454 29.6311 37.4948C30.0464 37.0795 30.0657 36.983 30.0464 35.9397C30.027 34.9351 29.9787 34.7709 29.6214 34.4136C29.3026 34.0948 29.0997 34.0078 28.6555 34.0078Z" fill="#0D313B"/>
<path id="Vector_12" fill-rule="evenodd" clip-rule="evenodd" d="M26.9688 35.8163C26.949 36.3798 27.002 36.8383 27.1572 37.2042C27.3156 37.5777 27.5753 37.8416 27.9387 38.0209C28.2604 38.184 28.5707 38.2503 28.8863 38.1824C29.1975 38.1154 29.484 37.9246 29.7729 37.6357C29.9827 37.426 30.1264 37.2654 30.1956 37.003C30.2585 36.7635 30.2562 36.4457 30.2468 35.9355C30.2373 35.4391 30.221 35.1199 30.1536 34.8796C30.081 34.6199 29.9517 34.4603 29.7632 34.2717C29.5966 34.105 29.4446 33.9827 29.2637 33.9066C29.0823 33.8301 28.89 33.8076 28.6561 33.8076C28.4131 33.8076 28.2181 33.8299 28.0305 33.9147C27.8462 33.9978 27.6874 34.1332 27.5006 34.32C27.2984 34.5222 27.1595 34.6841 27.0787 34.9175C27.002 35.139 26.9831 35.4113 26.9688 35.8163ZM27.6418 34.4614C28.0088 34.0943 28.1924 34.0073 28.6561 34.0073C29.1003 34.0073 29.3032 34.0943 29.622 34.4131C29.9793 34.7704 30.0276 34.9346 30.047 35.9393C30.0663 36.9825 30.047 37.079 29.6317 37.4943C29.0811 38.0449 28.6174 38.1416 28.0282 37.8421C27.381 37.5234 27.1298 36.9245 27.1685 35.8233C27.1974 35.0023 27.2457 34.8574 27.6418 34.4614Z" fill="#0D313B"/>
<path id="Vector_13" d="M22.1262 28.6762C21.6626 28.425 15.0556 28.3864 14.4277 28.6279C13.8578 28.8501 13.5101 29.3716 13.5197 29.9995C13.5197 30.3666 13.6163 30.579 13.9641 30.9268L14.3988 31.3615H22.049L22.4836 30.9268C22.841 30.5694 22.9183 30.3955 22.9086 29.9802C22.8796 29.3716 22.6382 28.9563 22.1262 28.6762Z" fill="#0D313B"/>
<path id="Vector_14" fill-rule="evenodd" clip-rule="evenodd" d="M22.2181 28.5001C22.1588 28.468 22.0778 28.4487 22.0041 28.4349C21.9229 28.4194 21.822 28.4056 21.7063 28.393C21.4745 28.3678 21.1716 28.3464 20.8228 28.3288C20.1245 28.2934 19.2323 28.2725 18.3365 28.267C17.4404 28.2617 16.5382 28.2716 15.8195 28.2981C15.4605 28.3114 15.1452 28.3289 14.8987 28.3508C14.7755 28.3618 14.6674 28.3741 14.5785 28.3879C14.4934 28.4013 14.4129 28.4178 14.3527 28.4409C13.7036 28.6939 13.3063 29.292 13.3166 30.0006C13.3167 30.2027 13.3437 30.3788 13.4277 30.5556C13.5097 30.7286 13.6395 30.8877 13.8195 31.0676L14.3126 31.5608H22.1284L22.6215 31.0676C22.8035 30.8856 22.9344 30.7315 23.0128 30.5566C23.0933 30.3769 23.1101 30.1949 23.105 29.975L23.1049 29.9702C23.0893 29.6418 23.0154 29.3519 22.8668 29.1023C22.7177 28.8519 22.5 28.6544 22.2181 28.5001ZM13.5164 29.9991C13.5068 29.3712 13.8545 28.8496 14.4244 28.6275C15.0523 28.3859 21.6593 28.4245 22.1229 28.6757C22.6348 28.9559 22.8763 29.3712 22.9053 29.9797C22.915 30.395 22.8377 30.5689 22.4803 30.9264L22.0457 31.3611H14.3954L13.9607 30.9264C13.613 30.5786 13.5164 30.3661 13.5164 29.9991Z" fill="#0D313B"/>
<path id="Vector_15" d="M29.0127 41.2231C28.2979 41.0106 27.5059 41.4936 27.2643 42.2567C27.0807 42.8652 27.1387 44.0824 27.3802 44.517C27.8826 45.4249 28.887 45.5795 29.6018 44.8647C30.0076 44.4591 30.0462 44.3431 30.0462 43.2033C30.0365 42.1698 29.9882 41.9283 29.7081 41.6481C29.515 41.4742 29.2058 41.2811 29.0127 41.2231Z" fill="#0D313B"/>
<path id="Vector_16" fill-rule="evenodd" clip-rule="evenodd" d="M29.0701 41.0318C28.2333 40.783 27.3428 41.3479 27.0744 42.1966L27.0735 42.1991C26.9723 42.5347 26.9417 43.0171 26.9639 43.4621C26.9752 43.6871 27.0002 43.9089 27.0389 44.1049C27.0771 44.2977 27.1309 44.4788 27.2061 44.6141C27.4827 45.1141 27.9084 45.4233 28.3811 45.4969C28.8548 45.5707 29.3467 45.4031 29.7437 45.0061C29.9506 44.7993 30.0946 44.6375 30.1695 44.3618C30.2384 44.1084 30.2466 43.7645 30.2466 43.2035V43.2016C30.2417 42.6884 30.2277 42.3491 30.1745 42.1013C30.1172 41.8352 30.0143 41.6712 29.85 41.507L29.8426 41.4995C29.7353 41.4031 29.5994 41.3045 29.4656 41.2222C29.3341 41.1412 29.191 41.0679 29.0701 41.0318ZM29.7086 41.6482C29.5155 41.4744 29.2063 41.2812 29.0132 41.2233C28.2984 41.0108 27.5064 41.4937 27.2648 42.2568" fill="#0D313B"/>
<path id="Vector_17" d="M14.4953 34.4717L14.0026 34.9643C13.3168 35.6501 13.3168 36.2683 14.0026 36.9541L14.4953 37.4467H21.9522L22.4449 36.9541C23.1307 36.2683 23.1307 35.6501 22.4449 34.9643L21.9522 34.4717H14.4953Z" fill="#0D313B"/>
<path id="Vector_18" fill-rule="evenodd" clip-rule="evenodd" d="M14.4091 34.2715L13.858 34.8226C13.497 35.1836 13.2852 35.5576 13.2852 35.9588C13.2852 36.3601 13.497 36.7341 13.858 37.0951L14.4091 37.6462H22.0318L22.5829 37.0951C22.9439 36.7341 23.1558 36.3601 23.1558 35.9588C23.1558 35.5576 22.9439 35.1836 22.5829 34.8226L22.0318 34.2715H14.4091ZM14.492 34.4713H21.9489L22.4415 34.964C23.1274 35.6497 23.1274 36.268 22.4415 36.9537L21.9489 37.4463H14.492L13.9993 36.9537C13.3135 36.268 13.3135 35.6497 13.9993 34.964L14.492 34.4713Z" fill="#0D313B"/>
<path id="Vector_19" d="M18.2239 40.5567H14.3988L13.9641 40.9914C13.2396 41.7159 13.3942 42.7205 14.3118 43.2323C14.8527 43.5222 21.6047 43.5318 22.1359 43.2323C23.0341 42.7205 23.1694 41.6773 22.4449 40.9528C22.049 40.5567 21.962 40.547 18.2239 40.5567Z" fill="#0D313B"/>
<path id="Vector_20" fill-rule="evenodd" clip-rule="evenodd" d="M14.3127 40.3565L13.8195 40.8498C13.4183 41.251 13.2477 41.7451 13.3214 42.2217C13.3951 42.6975 13.7073 43.1253 14.2112 43.4065L14.2142 43.4081C14.2761 43.4414 14.3596 43.4627 14.4405 43.4789C14.5272 43.4964 14.6338 43.512 14.7553 43.5259C14.9988 43.5541 15.3137 43.5773 15.6742 43.5959C16.396 43.6331 17.3108 43.6521 18.224 43.6528C19.1372 43.6533 20.0516 43.6356 20.7723 43.5986C21.1323 43.5801 21.4466 43.5569 21.6895 43.5282C21.8107 43.514 21.9169 43.4981 22.0036 43.4802C22.0839 43.4635 22.1683 43.4412 22.2307 43.406C22.7284 43.1224 23.0291 42.6816 23.0938 42.1984C23.1584 41.7152 22.9847 41.2129 22.583 40.811C22.4826 40.7106 22.3814 40.6131 22.2245 40.5407C22.0717 40.4701 21.8803 40.4294 21.6031 40.4033C21.0524 40.3514 20.0829 40.3518 18.2202 40.3565C18.2202 40.3565 18.2204 40.3565 18.2202 40.3565H14.3127ZM14.3955 40.5563H18.2206C21.9587 40.5466 22.0457 40.5563 22.4417 40.9524C23.1662 41.6769 23.0309 42.7201 22.1326 43.232M14.3955 40.5563L13.9608 40.991L14.3955 40.5563ZM13.9608 40.991C13.2364 41.7155 13.3909 42.7201 14.3085 43.232L13.9608 40.991Z" fill="#0D313B"/>
</g>
</g>
</svg>
