<svg width="72" height="72" viewBox="0 0 72 72" fill="none" xmlns="http://www.w3.org/2000/svg">
<g id="card">
<g id="Group">
<g id="Vector">
<path d="M36.0348 12.0084C42.9781 12.0084 49.9214 11.985 56.8647 12.0163C62.2487 12.0417 66.6448 15.6454 67.7599 20.9043C67.9204 21.6633 67.983 22.4557 67.9849 23.2324C68.0006 31.4963 68.0064 39.7601 67.9908 48.0221C67.9791 54.3941 63.1408 59.2714 56.759 59.2832C42.9213 59.3086 29.0836 59.3066 15.2459 59.2832C8.86608 59.2714 4.02201 54.3921 4.01027 48.0279C3.99658 39.7641 3.99658 31.5002 4.01027 23.2383C4.02201 16.9171 8.87 12.0437 15.2029 12.0163C22.1482 11.985 29.0915 12.0084 36.0348 12.0084ZM62.4268 28.7632C44.7623 28.7632 27.1957 28.7632 9.57822 28.7632C9.57822 29.0605 9.57822 29.3012 9.57822 29.5418C9.57822 35.6067 9.57627 41.6716 9.57822 47.7364C9.58018 51.434 11.8672 53.7231 15.5707 53.725C29.1912 53.7289 42.8118 53.7289 56.4343 53.725C60.1397 53.725 62.4248 51.438 62.4268 47.7364C62.4287 41.6716 62.4268 35.6067 62.4268 29.5418C62.4268 29.2992 62.4268 29.0586 62.4268 28.7632ZM62.4209 23.1013C62.3974 22.7746 62.4013 22.485 62.3505 22.2072C61.8242 19.3626 59.5958 17.5803 56.5399 17.5784C42.8489 17.5744 29.158 17.5744 15.469 17.5842C14.8879 17.5842 14.2893 17.6273 13.7278 17.7642C11.2881 18.359 9.38845 20.8553 9.65648 23.1033C27.2153 23.1013 44.7819 23.1013 62.4209 23.1013Z" fill="#0D313B"/>
<path d="M62.4209 23.1013C62.3974 22.7746 62.4013 22.485 62.3505 22.2072C61.8242 19.3626 59.5958 17.5803 56.5399 17.5784C42.8489 17.5744 29.158 17.5744 15.469 17.5842C14.8879 17.5842 14.2893 17.6273 13.7278 17.7642C11.2881 18.359 9.38845 20.8553 9.65648 23.1033C27.2153 23.1013 44.7819 23.1013 62.4209 23.1013Z" fill="#2894B4"/>
</g>
<path id="Vector_2" d="M20.6546 50.9366C18.8703 50.9366 17.088 50.9425 15.3038 50.9346C13.5606 50.9268 12.3613 49.7882 12.3633 48.1663C12.3652 46.5581 13.5763 45.396 15.3136 45.3882C18.9055 45.3745 22.4975 45.3745 26.0875 45.3882C27.8092 45.3941 29.0476 46.5855 29.0456 48.1741C29.0417 49.7667 27.8013 50.9268 26.0777 50.9346C24.27 50.9425 22.4623 50.9366 20.6546 50.9366Z" fill="#0D313B"/>
</g>
</g>
</svg>
