<svg width="72" height="72" viewBox="0 0 72 72" fill="none" xmlns="http://www.w3.org/2000/svg">
<g id="orders-reporting">
<g id="Group">
<g id="Vector">
<path d="M29.887 8.07675C27.9495 8.40174 25.9246 9.37672 24.5871 10.6267L23.6622 11.4892H19.9123C15.8249 11.4892 15.2624 11.5517 14.0874 12.1391C12.675 12.8516 11.4875 14.3891 11.15 15.964C10.95 16.9015 10.95 66.5751 11.15 67.5126C11.35 68.4376 11.925 69.5376 12.5875 70.2375C13.2374 70.925 14.5249 71.65 15.4874 71.85C16.4249 72.05 56.3488 72.05 57.2862 71.85C59.4112 71.4 61.1736 69.6251 61.6236 67.5126C61.8236 66.5626 61.8236 16.9015 61.6236 15.964C61.1736 13.8516 59.3862 12.0641 57.2862 11.6267C56.8862 11.5392 55.1363 11.4892 52.8614 11.4892H49.099L48.2615 10.6892C47.3115 9.8017 46.3615 9.18922 45.0866 8.68924C43.4491 8.02675 42.8991 7.98926 36.2868 8.00175C32.9369 8.01425 30.062 8.05175 29.887 8.07675ZM42.8741 11.9266C43.3116 12.0391 44.0241 12.3016 44.4366 12.5141C45.6865 13.1766 47.0865 14.7641 47.449 15.9515L47.524 16.239H36.3868H25.2496L25.3246 15.9515C25.5371 15.2891 26.1246 14.3766 26.8371 13.6516C27.662 12.8141 28.962 12.0766 30.0245 11.8766C30.3245 11.8141 33.1619 11.7642 36.3243 11.7517C41.0492 11.7392 42.2116 11.7767 42.8741 11.9266ZM21.4247 16.0765C21.3247 16.5515 21.2622 17.3765 21.2872 17.9515C21.3247 19.0515 21.5247 19.4139 22.2872 19.8139C22.7872 20.0764 49.9864 20.0764 50.4864 19.8139C51.2489 19.4139 51.4489 19.0515 51.4864 17.9515C51.5114 17.3765 51.4489 16.5515 51.3489 16.0765L51.1739 15.2391H53.8113C56.8362 15.2391 57.2362 15.3391 57.7362 16.2265L58.0112 16.714V41.7383V66.7626L57.7487 67.2376C57.5987 67.5001 57.2737 67.8251 57.0112 67.9751L56.5362 68.2376H36.3868H16.2374L15.7624 67.9751C15.4999 67.8251 15.1749 67.5001 15.0249 67.2376L14.7624 66.7626V41.7383V16.714L15.0374 16.2265C15.5374 15.3391 15.9249 15.2391 18.9623 15.2391H21.5997L21.4247 16.0765Z" fill="#4D0000"/>
<path d="M42.8741 11.9266C43.3116 12.0391 44.0241 12.3016 44.4366 12.5141C45.6865 13.1766 47.0865 14.7641 47.449 15.9515L47.524 16.239H36.3868H25.2496L25.3246 15.9515C25.5371 15.2891 26.1246 14.3766 26.8371 13.6516C27.662 12.8141 28.962 12.0766 30.0245 11.8766C30.3245 11.8141 33.1619 11.7642 36.3243 11.7517C41.0492 11.7392 42.2116 11.7767 42.8741 11.9266Z" fill="#E60000"/>
</g>
<path id="Vector_2" d="M42.3346 25.989C41.4971 26.2515 40.8971 27.264 41.0596 28.1515C41.2096 28.9389 41.9596 29.6139 42.6971 29.6139C42.872 29.6139 43.0095 29.6514 43.0095 29.7139C43.0095 29.7639 42.0221 30.7889 40.8221 31.9889L38.6347 34.1763L35.5972 31.1389C32.3098 27.864 32.1223 27.7265 31.1724 27.9765C30.7849 28.089 29.9849 28.8264 26.9225 31.8889C23.6976 35.1263 23.1476 35.7388 23.0726 36.1387C22.8476 37.3637 23.6601 38.3637 24.885 38.3637C25.1725 38.3637 25.5225 38.3012 25.6725 38.2262C25.8225 38.1512 27.2225 36.8137 28.7974 35.2638L31.6349 32.4263L34.6098 35.3888C36.2347 37.0137 37.6972 38.4012 37.8472 38.4762C38.1972 38.6512 39.0722 38.6512 39.4221 38.4762C39.5721 38.4012 41.0471 36.9887 42.7096 35.3388L45.722 32.3388L45.797 32.8388C46.0845 34.5763 48.4844 34.9388 49.2969 33.3638C49.4969 32.9763 49.5094 32.6013 49.4844 30.0264C49.4469 26.839 49.4344 26.8265 48.5844 26.189C48.2594 25.939 48.0594 25.9265 45.472 25.9015C43.947 25.889 42.5346 25.9265 42.3346 25.989Z" fill="#4D0000"/>
<path id="Vector_3" d="M27.762 44.9383C27.5245 45.0383 26.6621 45.7758 25.8621 46.5758L24.3996 48.0257L23.8871 47.5632C23.5996 47.3132 23.2372 47.0507 23.0622 46.9882C21.5247 46.4008 19.9872 48.0632 20.7122 49.5257C20.9872 50.0757 22.9747 52.0756 23.5371 52.3756C24.1246 52.6756 24.6496 52.6756 25.2371 52.3756C25.4871 52.2381 26.6871 51.1381 27.8995 49.9007C29.662 48.1257 30.137 47.5757 30.2495 47.1757C30.512 46.2258 29.9245 45.1133 29.037 44.8633C28.437 44.7008 28.287 44.7133 27.762 44.9383Z" fill="#4D0000"/>
<path id="Vector_4" d="M34.1253 47.1509C32.9878 47.9134 33.0128 49.4133 34.1878 50.2883C34.5253 50.5508 34.6503 50.5508 42.7001 50.5508C50.7498 50.5508 50.8748 50.5508 51.2123 50.2883C52.3873 49.4133 52.4123 47.9134 51.2748 47.1509L50.8498 46.8634H42.7001H34.5503L34.1253 47.1509Z" fill="#4D0000"/>
<path id="Vector_5" d="M28.3233 55.5509C28.2608 55.5759 28.0358 55.6259 27.8358 55.6759C27.5983 55.7258 26.9233 56.2883 25.9358 57.2633L24.3984 58.7758L23.9359 58.3633C23.4234 57.9133 22.7859 57.6133 22.3609 57.6133C21.8359 57.6133 21.0735 58.0883 20.786 58.6008C20.1985 59.6507 20.4485 60.2632 22.1734 61.9632C23.5484 63.3131 23.8859 63.4881 24.8608 63.3006C25.2483 63.2256 25.6858 62.8507 27.6108 60.9507C28.8732 59.7007 29.9982 58.5008 30.0982 58.3008C30.5357 57.4758 30.2232 56.2883 29.4482 55.8508C29.0482 55.6259 28.5232 55.4884 28.3233 55.5509Z" fill="#4D0000"/>
<path id="Vector_6" d="M34.3117 57.7884C33.6992 58.0634 33.3242 58.6884 33.3242 59.4508C33.3242 60.1508 33.5492 60.5758 34.1867 61.0383C34.5242 61.3008 34.6492 61.3008 42.699 61.3008C50.7487 61.3008 50.8737 61.3008 51.2112 61.0383C51.8487 60.5758 52.0737 60.1508 52.0737 59.4508C52.0737 58.6759 51.6987 58.0509 51.0612 57.7884C50.4612 57.5384 34.8867 57.5384 34.3117 57.7884Z" fill="#4D0000"/>
</g>
</g>
</svg>
