<svg width="72" height="72" viewBox="0 0 72 72" fill="none" xmlns="http://www.w3.org/2000/svg">
<g id="promotions-report">
<g id="Group">
<g id="Vector">
<path d="M29.887 4.07675C27.9495 4.40174 25.9246 5.37672 24.5871 6.62668L23.6622 7.48916H19.9123C15.8249 7.48916 15.2624 7.55166 14.0874 8.13914C12.675 8.85162 11.4875 10.3891 11.15 11.964C10.95 12.9015 10.95 62.5751 11.15 63.5126C11.35 64.4376 11.925 65.5376 12.5875 66.2375C13.2374 66.925 14.5249 67.65 15.4874 67.85C16.4249 68.05 56.3488 68.05 57.2862 67.85C59.4112 67.4 61.1736 65.6251 61.6236 63.5126C61.8236 62.5626 61.8236 12.9015 61.6236 11.964C61.1736 9.85159 59.3862 8.06414 57.2862 7.62666C56.8862 7.53916 55.1363 7.48916 52.8614 7.48916H49.099L48.2615 6.68918C47.3115 5.8017 46.3615 5.18922 45.0866 4.68924C43.4491 4.02675 42.8991 3.98926 36.2868 4.00175C32.9369 4.01425 30.062 4.05175 29.887 4.07675ZM42.8741 7.92665C43.3116 8.03914 44.0241 8.30164 44.4366 8.51413C45.6865 9.17661 47.0865 10.7641 47.449 11.9515L47.524 12.239H36.3868H25.2496L25.3246 11.9515C25.5371 11.2891 26.1246 10.3766 26.8371 9.6516C27.662 8.81412 28.962 8.07664 30.0245 7.87665C30.3245 7.81415 33.1619 7.76415 36.3243 7.75165C41.0492 7.73915 42.2116 7.77665 42.8741 7.92665ZM21.4247 12.0765C21.3247 12.5515 21.2622 13.3765 21.2872 13.9515C21.3247 15.0515 21.5247 15.4139 22.2872 15.8139C22.7872 16.0764 49.9864 16.0764 50.4864 15.8139C51.2489 15.4139 51.4489 15.0515 51.4864 13.9515C51.5114 13.3765 51.4489 12.5515 51.3489 12.0765L51.1739 11.2391H53.8113C56.8362 11.2391 57.2362 11.3391 57.7362 12.2265L58.0112 12.714V37.7383V62.7626L57.7487 63.2376C57.5987 63.5001 57.2737 63.8251 57.0112 63.9751L56.5362 64.2376H36.3868H16.2374L15.7624 63.9751C15.4999 63.8251 15.1749 63.5001 15.0249 63.2376L14.7624 62.7626V37.7383V12.714L15.0374 12.2265C15.5374 11.3391 15.9249 11.2391 18.9623 11.2391H21.5997L21.4247 12.0765Z" fill="#4D0000"/>
<path d="M42.8741 7.92665C43.3116 8.03914 44.0241 8.30164 44.4366 8.51413C45.6865 9.17661 47.0865 10.7641 47.449 11.9515L47.524 12.239H36.3868H25.2496L25.3246 11.9515C25.5371 11.2891 26.1246 10.3766 26.8371 9.6516C27.662 8.81412 28.962 8.07664 30.0245 7.87665C30.3245 7.81415 33.1619 7.76415 36.3243 7.75165C41.0492 7.73915 42.2116 7.77665 42.8741 7.92665Z" fill="#E60000"/>
</g>
<path id="Vector_2" d="M42.3385 19.989C41.501 20.2515 40.901 21.264 41.0635 22.1515C41.2135 22.9389 41.9635 23.6139 42.701 23.6139C42.876 23.6139 43.0134 23.6514 43.0134 23.7139C43.0134 23.7639 42.026 24.7889 40.826 25.9889L38.6386 28.1763L35.6012 25.1389C32.3137 21.864 32.1262 21.7265 31.1763 21.9765C30.7888 22.089 29.9888 22.8264 26.9264 25.8889C23.7015 29.1263 23.1515 29.7388 23.0765 30.1387C22.8515 31.3637 23.664 32.3637 24.8889 32.3637C25.1764 32.3637 25.5264 32.3012 25.6764 32.2262C25.8264 32.1512 27.2264 30.8137 28.8013 29.2638L31.6388 26.4263L34.6137 29.3888C36.2386 31.0137 37.7011 32.4012 37.8511 32.4762C38.2011 32.6512 39.0761 32.6512 39.426 32.4762C39.576 32.4012 41.051 30.9887 42.7135 29.3388L45.7259 26.3388L45.8009 26.8388C46.0884 28.5763 48.4883 28.9388 49.3008 27.3638C49.5008 26.9763 49.5133 26.6013 49.4883 24.0264C49.4508 20.839 49.4383 20.8265 48.5883 20.189C48.2633 19.939 48.0633 19.9265 45.4759 19.9015C43.9509 19.889 42.5385 19.9265 42.3385 19.989Z" fill="#4D0000"/>
</g>
<g id="Group_2">
<path id="Vector_3" d="M32.582 53.6634C32.2758 53.6559 32.0439 53.5184 31.9008 53.2472C31.7577 52.9753 31.7758 52.7054 31.9458 52.4498C31.9927 52.3791 32.0539 52.3166 32.1145 52.256C34.498 49.8713 36.8828 47.4877 39.2651 45.1017C39.5094 44.8567 39.78 44.7236 40.1275 44.8299C40.6599 44.993 40.8574 45.6223 40.5143 46.0597C40.4618 46.1272 40.3987 46.1866 40.3381 46.2472C37.9764 48.6095 35.6136 50.9705 33.2525 53.334C33.0644 53.5228 32.8676 53.6784 32.582 53.6634Z" fill="#4D0000"/>
<path id="Vector_4" d="M32.582 53.6634C32.2758 53.6559 32.0439 53.5184 31.9008 53.2472C31.7577 52.9753 31.7758 52.7054 31.9458 52.4498C31.9927 52.3791 32.0539 52.3166 32.1145 52.256C34.498 49.8713 36.8828 47.4877 39.2651 45.1017C39.5094 44.8567 39.78 44.7236 40.1275 44.8299C40.6599 44.993 40.8574 45.6223 40.5143 46.0597C40.4618 46.1272 40.3987 46.1866 40.3381 46.2472C37.9764 48.6095 35.6136 50.9705 33.2525 53.334C33.0644 53.5228 32.8676 53.6784 32.582 53.6634Z" fill="#4D0000"/>
<path id="Vector_5" d="M33.3558 44.7808C34.2163 44.7808 34.9238 45.4876 34.9231 46.3462C34.9225 47.2011 34.2076 47.9155 33.3533 47.9142C32.4959 47.913 31.7884 47.2024 31.7891 46.3437C31.7897 45.4826 32.4927 44.7808 33.3558 44.7808Z" fill="#4D0000"/>
<path id="Vector_6" d="M40.6776 52.1119C40.6732 52.9806 39.977 53.668 39.1071 53.663C38.2397 53.6587 37.5485 52.9594 37.5547 52.0926C37.561 51.2245 38.2603 50.5333 39.1265 50.5396C39.9957 50.5458 40.6819 51.2414 40.6776 52.1119Z" fill="#4D0000"/>
<path id="Vector_7" d="M40.6776 52.1119C40.6732 52.9806 39.977 53.668 39.1071 53.663C38.2397 53.6587 37.5485 52.9594 37.5547 52.0926C37.561 51.2245 38.2603 50.5333 39.1265 50.5396C39.9957 50.5458 40.6819 51.2414 40.6776 52.1119Z" fill="#4D0000"/>
</g>
</g>
</svg>
