<svg width="72" height="72" viewBox="0 0 72 72" fill="none" xmlns="http://www.w3.org/2000/svg">
<g id="sales-detail">
<path id="Vector 411" d="M28 46H21.5V55.5H50V34.5H42V43H35.5V38H29L28 46Z" stroke="#4D0000"/>
<g id="Group">
<g id="Vector">
<mask id="path-2-outside-1_5883_47381" maskUnits="userSpaceOnUse" x="10" y="3" width="53" height="66" fill="black">
<rect fill="white" x="10" y="3" width="53" height="66"/>
<path d="M16.3379 9.35172L11 14.6897V41.0759C11 67.269 11 67.4483 11.2759 67.7241C11.5517 68 11.731 68 36.2138 68H60.8897L61.1793 67.6828L61.4828 67.3655V35.9586C61.4828 4.73104 61.4828 4.55173 61.2069 4.27586C60.931 4 60.7517 4 41.3034 4H21.6897L16.3379 9.35172ZM59.4138 35.931V65.931H36.2414H13.069V41.0345V16.1379H17.8138H22.5724L22.8483 15.7793C23.1241 15.4207 23.1379 15.2552 23.1379 10.7448V6.06897L37.1103 6.02759C44.7793 6.01379 52.9448 5.98621 55.2483 5.95862L59.4138 5.93103V35.931ZM21.069 10.8276V14.069H17.8H14.5172L17.7586 10.8276C19.5379 9.04828 21.0138 7.58621 21.0276 7.58621C21.0552 7.58621 21.069 9.04828 21.069 10.8276Z"/>
<path d="M21.069 10.8276V14.069H17.8H14.5172L17.7586 10.8276C19.5379 9.04828 21.0138 7.58621 21.0276 7.58621C21.0552 7.58621 21.069 9.04828 21.069 10.8276Z"/>
</mask>
<path d="M16.3379 9.35172L11 14.6897V41.0759C11 67.269 11 67.4483 11.2759 67.7241C11.5517 68 11.731 68 36.2138 68H60.8897L61.1793 67.6828L61.4828 67.3655V35.9586C61.4828 4.73104 61.4828 4.55173 61.2069 4.27586C60.931 4 60.7517 4 41.3034 4H21.6897L16.3379 9.35172ZM59.4138 35.931V65.931H36.2414H13.069V41.0345V16.1379H17.8138H22.5724L22.8483 15.7793C23.1241 15.4207 23.1379 15.2552 23.1379 10.7448V6.06897L37.1103 6.02759C44.7793 6.01379 52.9448 5.98621 55.2483 5.95862L59.4138 5.93103V35.931ZM21.069 10.8276V14.069H17.8H14.5172L17.7586 10.8276C19.5379 9.04828 21.0138 7.58621 21.0276 7.58621C21.0552 7.58621 21.069 9.04828 21.069 10.8276Z" fill="#4D0000"/>
<path d="M21.069 10.8276V14.069H17.8H14.5172L17.7586 10.8276C19.5379 9.04828 21.0138 7.58621 21.0276 7.58621C21.0552 7.58621 21.069 9.04828 21.069 10.8276Z" fill="#E60000"/>
<path d="M21.069 14.069H21.369V14.369H21.069V14.069ZM14.5172 14.069V14.369H13.793L14.3051 13.8568L14.5172 14.069ZM17.7586 10.8276L17.9708 11.0397L17.7586 10.8276ZM21.369 10.8276V14.069H20.769V10.8276H21.369ZM21.069 14.369H17.8V13.769H21.069V14.369ZM17.8 14.369H14.5172V13.769H17.8V14.369ZM14.3051 13.8568L17.5465 10.6155L17.9708 11.0397L14.7294 14.2811L14.3051 13.8568ZM17.5465 10.6155C18.4364 9.72556 19.2505 8.9149 19.844 8.3266C20.1407 8.0325 20.3825 7.7937 20.5511 7.62828C20.6354 7.54567 20.7019 7.48081 20.7481 7.43635C20.771 7.41431 20.79 7.39623 20.804 7.38321C20.8107 7.37703 20.8183 7.37006 20.8255 7.36385C20.8285 7.36122 20.8351 7.35549 20.8433 7.34924C20.8467 7.34659 20.856 7.33955 20.8684 7.33183C20.8743 7.32816 20.8868 7.32058 20.9037 7.31297C20.9112 7.30954 20.9603 7.28621 21.0276 7.28621V7.88621C21.0948 7.88621 21.1437 7.86292 21.1511 7.85958C21.1677 7.85205 21.18 7.84462 21.1856 7.84113C21.1974 7.83376 21.2059 7.82726 21.2085 7.82531C21.2121 7.82251 21.2148 7.82032 21.216 7.81931C21.2174 7.81816 21.2183 7.81736 21.2186 7.81706C21.2193 7.8165 21.2176 7.81796 21.2123 7.82291C21.2023 7.83218 21.1864 7.84725 21.1642 7.86866C21.1201 7.91111 21.0551 7.97438 20.9713 8.05664C20.8037 8.22096 20.5628 8.45889 20.2664 8.75272C19.6736 9.34027 18.8602 10.1503 17.9708 11.0397L17.5465 10.6155ZM21.0276 7.28621C21.2022 7.28621 21.2801 7.42294 21.2863 7.4333C21.306 7.4662 21.3149 7.49553 21.3178 7.50529C21.3249 7.52933 21.3281 7.55076 21.3295 7.55999C21.3328 7.58261 21.3349 7.60826 21.3366 7.63173C21.34 7.68105 21.3429 7.74973 21.3455 7.83305C21.3508 8.00093 21.3551 8.24165 21.3586 8.53614C21.3655 9.12574 21.369 9.93739 21.369 10.8276H20.769C20.769 9.93847 20.7655 9.12944 20.7586 8.54317C20.7552 8.24973 20.7509 8.01373 20.7458 7.85186C20.7433 7.77031 20.7406 7.71087 20.738 7.67329C20.7366 7.6533 20.7357 7.64581 20.7357 7.64613C20.7358 7.64675 20.7362 7.64932 20.7369 7.65326C20.7376 7.65662 20.7393 7.66482 20.7425 7.67562C20.7445 7.68256 20.7526 7.70977 20.7714 7.74125C20.7767 7.75019 20.8538 7.88621 21.0276 7.88621V7.28621ZM16.3379 9.35172L15.9137 8.92746L16.3379 9.35172ZM11 14.6897H10.4V14.4411L10.5757 14.2654L11 14.6897ZM60.8897 68L61.3327 68.4046L61.1543 68.6H60.8897V68ZM61.1793 67.6828L60.7361 67.2781L60.7457 67.268L61.1793 67.6828ZM61.4828 67.3655H62.0828V67.6063L61.9163 67.7803L61.4828 67.3655ZM21.6897 4L21.2654 3.57574L21.4411 3.4H21.6897V4ZM59.4138 65.931H60.0138V66.531H59.4138V65.931ZM13.069 65.931V66.531H12.469V65.931H13.069ZM13.069 16.1379H12.469V15.5379H13.069V16.1379ZM22.5724 16.1379L23.048 16.5038L22.8679 16.7379H22.5724V16.1379ZM22.8483 15.7793L23.3239 16.1451L23.3238 16.1451L22.8483 15.7793ZM23.1379 6.06897H22.5379V5.47074L23.1362 5.46897L23.1379 6.06897ZM37.1103 6.02759L37.1086 5.42759H37.1093L37.1103 6.02759ZM55.2483 5.95862L55.2411 5.35866L55.2443 5.35863L55.2483 5.95862ZM59.4138 5.93103L59.4098 5.33105L60.0138 5.32705V5.93103H59.4138ZM16.7622 9.77599L11.4243 15.1139L10.5757 14.2654L15.9137 8.92746L16.7622 9.77599ZM11.6 14.6897V41.0759H10.4V14.6897H11.6ZM11.6 41.0759C11.6 54.1748 11.6 60.7634 11.6345 64.1128C11.6517 65.7941 11.6777 66.6384 11.7143 67.0775C11.7331 67.303 11.7518 67.3775 11.7562 67.3913C11.7563 67.3914 11.7543 67.3851 11.7494 67.3746C11.7443 67.3636 11.737 67.3502 11.7274 67.3357C11.7078 67.3061 11.6883 67.2881 11.7001 67.2999L10.8516 68.1484C10.8289 68.1257 10.7771 68.074 10.7272 67.9987C10.6763 67.9219 10.6402 67.841 10.6134 67.7572C10.565 67.606 10.5384 67.4166 10.5185 67.1773C10.4775 66.6867 10.4517 65.7973 10.4345 64.1251C10.4 60.7677 10.4 54.1701 10.4 41.0759H11.6ZM11.7001 67.2999C11.7122 67.3119 11.6957 67.294 11.6682 67.2754C11.6386 67.2555 11.616 67.2473 11.6124 67.246C11.6123 67.246 11.6304 67.2519 11.6799 67.2601C11.7286 67.2682 11.7986 67.2771 11.8988 67.286C12.3097 67.3223 13.0993 67.3483 14.6738 67.3656C17.8092 67.4 23.9699 67.4 36.2138 67.4V68.6C23.9749 68.6 17.8046 68.6 14.6607 68.5655C13.0955 68.5483 12.2584 68.5225 11.793 68.4813C11.5656 68.4612 11.3818 68.4341 11.2325 68.3843C11.0365 68.3189 10.9266 68.2234 10.8516 68.1484L11.7001 67.2999ZM36.2138 67.4H60.8897V68.6H36.2138V67.4ZM60.4466 67.5954L60.7362 67.2782L61.6224 68.0873L61.3327 68.4046L60.4466 67.5954ZM60.7457 67.268L61.0492 66.9508L61.9163 67.7803L61.6129 68.0975L60.7457 67.268ZM60.8828 67.3655V35.9586H62.0828V67.3655H60.8828ZM60.8828 35.9586C60.8828 20.3428 60.8828 12.4949 60.8483 8.51554C60.831 6.52006 60.8051 5.51537 60.7679 4.99401C60.7488 4.72616 60.729 4.62836 60.7211 4.60063C60.7194 4.59489 60.7256 4.61866 60.7476 4.65353C60.7699 4.68895 60.7936 4.71105 60.7826 4.70013L61.6312 3.8516C61.6547 3.87516 61.7107 3.93098 61.7633 4.0146C61.8156 4.09764 61.8501 4.18405 61.8748 4.27061C61.9197 4.42746 61.9452 4.6329 61.9649 4.90858C62.0052 5.47429 62.031 6.51788 62.0483 8.50515C62.0828 12.4913 62.0828 20.3468 62.0828 35.9586H60.8828ZM60.7826 4.70013C60.7788 4.69632 60.8157 4.72992 60.8565 4.74549C60.8609 4.74717 60.8173 4.73085 60.6511 4.71292C60.3245 4.67766 59.6969 4.65174 58.4366 4.63443C55.9316 4.60002 51.0307 4.6 41.3034 4.6V3.4C51.0245 3.4 55.9374 3.39999 58.4531 3.43454C59.7031 3.45171 60.3876 3.47751 60.7799 3.51984C60.9732 3.5407 61.1408 3.56964 61.2838 3.62413C61.4632 3.69249 61.566 3.78644 61.6312 3.8516L60.7826 4.70013ZM41.3034 4.6H21.6897V3.4H41.3034V4.6ZM22.1139 4.42426L16.7622 9.77599L15.9137 8.92746L21.2654 3.57574L22.1139 4.42426ZM60.0138 35.931V65.931H58.8138V35.931H60.0138ZM59.4138 66.531H36.2414V65.331H59.4138V66.531ZM36.2414 66.531H13.069V65.331H36.2414V66.531ZM12.469 65.931V41.0345H13.669V65.931H12.469ZM12.469 41.0345V16.1379H13.669V41.0345H12.469ZM13.069 15.5379H17.8138V16.7379H13.069V15.5379ZM17.8138 15.5379H22.5724V16.7379H17.8138V15.5379ZM22.0968 15.7721L22.3727 15.4135L23.3238 16.1451L23.048 16.5038L22.0968 15.7721ZM22.3727 15.4135C22.4191 15.3531 22.4235 15.3431 22.4343 15.3065C22.4542 15.2386 22.4791 15.1 22.4976 14.784C22.5342 14.1563 22.5379 13.0106 22.5379 10.7448H23.7379C23.7379 12.9894 23.7348 14.1816 23.6955 14.8539C23.676 15.188 23.6458 15.4398 23.5856 15.6448C23.5162 15.881 23.4154 16.0262 23.3239 16.1451L22.3727 15.4135ZM22.5379 10.7448V6.06897H23.7379V10.7448H22.5379ZM23.1362 5.46897L37.1086 5.42759L37.1121 6.62759L23.1397 6.66896L23.1362 5.46897ZM37.1093 5.42759C44.7796 5.41379 52.9414 5.38621 55.2411 5.35867L55.2555 6.55858C52.9482 6.58621 44.779 6.6138 37.1114 6.62759L37.1093 5.42759ZM55.2443 5.35863L59.4098 5.33105L59.4178 6.53102L55.2523 6.55861L55.2443 5.35863ZM60.0138 5.93103V35.931H58.8138V5.93103H60.0138Z" fill="#4D0000" mask="url(#path-2-outside-1_5883_47381)"/>
</g>
<g id="Vector_2">
<mask id="path-4-outside-2_5883_47381" maskUnits="userSpaceOnUse" x="19" y="14.4561" width="34" height="20" fill="black">
<rect fill="white" x="19" y="14.4561" width="34" height="20"/>
<path d="M45.4871 16.3588C45.1285 16.814 45.1147 17.2554 45.4596 17.6691C45.6802 17.945 45.8871 18.014 46.7147 18.0691L47.694 18.1381L42.9078 22.0002C40.2733 24.1243 38.0389 25.9174 37.9285 25.9726C37.7906 26.0554 37.0458 25.5312 35.3906 24.2071C34.1078 23.1864 32.8802 22.3036 32.6733 22.2623C32.2182 22.1657 32.5078 21.945 25.4733 27.545C22.632 29.8209 20.2182 31.8209 20.1078 32.0278C19.694 32.7588 20.5492 33.7105 21.3492 33.3933C21.5285 33.3243 24.1078 31.3381 27.0596 28.9795C30.0251 26.6209 32.4802 24.6898 32.5216 24.6898C32.5768 24.6898 33.6527 25.5312 34.9354 26.5519C36.2182 27.5864 37.4044 28.4554 37.5699 28.4967C37.7216 28.5381 38.0113 28.4967 38.2044 28.3864C38.3975 28.2898 40.9216 26.2898 43.8182 23.9588C46.7147 21.6278 49.1147 19.7381 49.1423 19.7519C49.1699 19.7795 49.1009 20.1381 48.9906 20.5519C48.7147 21.6002 48.7285 21.8898 49.1285 22.276C49.5285 22.6898 50.0113 22.7174 50.4389 22.3726C50.6871 22.1657 50.8527 21.6554 51.2802 19.7795C51.9009 17.0898 51.9285 16.6622 51.5423 16.276C51.2802 16.014 51.0871 16.0002 48.5216 16.0002H45.763L45.4871 16.3588Z"/>
</mask>
<path d="M45.4871 16.3588C45.1285 16.814 45.1147 17.2554 45.4596 17.6691C45.6802 17.945 45.8871 18.014 46.7147 18.0691L47.694 18.1381L42.9078 22.0002C40.2733 24.1243 38.0389 25.9174 37.9285 25.9726C37.7906 26.0554 37.0458 25.5312 35.3906 24.2071C34.1078 23.1864 32.8802 22.3036 32.6733 22.2623C32.2182 22.1657 32.5078 21.945 25.4733 27.545C22.632 29.8209 20.2182 31.8209 20.1078 32.0278C19.694 32.7588 20.5492 33.7105 21.3492 33.3933C21.5285 33.3243 24.1078 31.3381 27.0596 28.9795C30.0251 26.6209 32.4802 24.6898 32.5216 24.6898C32.5768 24.6898 33.6527 25.5312 34.9354 26.5519C36.2182 27.5864 37.4044 28.4554 37.5699 28.4967C37.7216 28.5381 38.0113 28.4967 38.2044 28.3864C38.3975 28.2898 40.9216 26.2898 43.8182 23.9588C46.7147 21.6278 49.1147 19.7381 49.1423 19.7519C49.1699 19.7795 49.1009 20.1381 48.9906 20.5519C48.7147 21.6002 48.7285 21.8898 49.1285 22.276C49.5285 22.6898 50.0113 22.7174 50.4389 22.3726C50.6871 22.1657 50.8527 21.6554 51.2802 19.7795C51.9009 17.0898 51.9285 16.6622 51.5423 16.276C51.2802 16.014 51.0871 16.0002 48.5216 16.0002H45.763L45.4871 16.3588Z" fill="#4D0000"/>
<path d="M45.4871 16.3588C45.1285 16.814 45.1147 17.2554 45.4596 17.6691C45.6802 17.945 45.8871 18.014 46.7147 18.0691L47.694 18.1381L42.9078 22.0002C40.2733 24.1243 38.0389 25.9174 37.9285 25.9726C37.7906 26.0554 37.0458 25.5312 35.3906 24.2071C34.1078 23.1864 32.8802 22.3036 32.6733 22.2623C32.2182 22.1657 32.5078 21.945 25.4733 27.545C22.632 29.8209 20.2182 31.8209 20.1078 32.0278C19.694 32.7588 20.5492 33.7105 21.3492 33.3933C21.5285 33.3243 24.1078 31.3381 27.0596 28.9795C30.0251 26.6209 32.4802 24.6898 32.5216 24.6898C32.5768 24.6898 33.6527 25.5312 34.9354 26.5519C36.2182 27.5864 37.4044 28.4554 37.5699 28.4967C37.7216 28.5381 38.0113 28.4967 38.2044 28.3864C38.3975 28.2898 40.9216 26.2898 43.8182 23.9588C46.7147 21.6278 49.1147 19.7381 49.1423 19.7519C49.1699 19.7795 49.1009 20.1381 48.9906 20.5519C48.7147 21.6002 48.7285 21.8898 49.1285 22.276C49.5285 22.6898 50.0113 22.7174 50.4389 22.3726C50.6871 22.1657 50.8527 21.6554 51.2802 19.7795C51.9009 17.0898 51.9285 16.6622 51.5423 16.276C51.2802 16.014 51.0871 16.0002 48.5216 16.0002H45.763L45.4871 16.3588Z" stroke="#4D0000" stroke-width="1.2" mask="url(#path-4-outside-2_5883_47381)"/>
</g>
<g id="Vector_3">
<mask id="path-5-outside-3_5883_47381" maskUnits="userSpaceOnUse" x="19.5156" y="31.6895" width="32" height="26" fill="black">
<rect fill="white" x="19.5156" y="31.6895" width="32" height="26"/>
<path d="M41.9639 33.5722L41.6191 33.917V37.7239V41.517H39.1363H36.6536V39.6826C36.6536 37.0067 37.0949 37.2412 32.1708 37.2412H28.1156L27.8398 37.5998C27.5639 37.9446 27.5501 38.1377 27.5501 41.5998V45.2412H24.4329C22.6673 45.2412 21.2191 45.2963 21.0673 45.3791C20.5708 45.6412 20.5156 46.2481 20.5156 50.9653C20.5156 55.6826 20.5708 56.2895 21.0673 56.5515C21.2329 56.6343 26.5846 56.6895 35.688 56.6895H50.0467L50.3777 56.3446L50.7225 56.0136V44.9929C50.7225 34.3446 50.7087 33.9446 50.4605 33.6412L50.1984 33.3101L46.2536 33.2688L42.3087 33.2274L41.9639 33.5722ZM48.6536 44.9653V54.6205H46.1708H43.688V44.9653V35.3101H46.1708H48.6536V44.9653ZM34.5846 46.8963V54.6205H32.1018H29.6191V46.8963V39.1722H32.1018H34.5846V46.8963ZM41.6191 49.1032V54.6205H39.1363H36.6536V49.1032V43.586H39.1363H41.6191V49.1032ZM27.5501 50.9653V54.6205H25.0673H22.5846V50.9653V47.3101H25.0673H27.5501V50.9653Z"/>
</mask>
<path d="M41.9639 33.5722L41.6191 33.917V37.7239V41.517H39.1363H36.6536V39.6826C36.6536 37.0067 37.0949 37.2412 32.1708 37.2412H28.1156L27.8398 37.5998C27.5639 37.9446 27.5501 38.1377 27.5501 41.5998V45.2412H24.4329C22.6673 45.2412 21.2191 45.2963 21.0673 45.3791C20.5708 45.6412 20.5156 46.2481 20.5156 50.9653C20.5156 55.6826 20.5708 56.2895 21.0673 56.5515C21.2329 56.6343 26.5846 56.6895 35.688 56.6895H50.0467L50.3777 56.3446L50.7225 56.0136V44.9929C50.7225 34.3446 50.7087 33.9446 50.4605 33.6412L50.1984 33.3101L46.2536 33.2688L42.3087 33.2274L41.9639 33.5722ZM48.6536 44.9653V54.6205H46.1708H43.688V44.9653V35.3101H46.1708H48.6536V44.9653ZM34.5846 46.8963V54.6205H32.1018H29.6191V46.8963V39.1722H32.1018H34.5846V46.8963ZM41.6191 49.1032V54.6205H39.1363H36.6536V49.1032V43.586H39.1363H41.6191V49.1032ZM27.5501 50.9653V54.6205H25.0673H22.5846V50.9653V47.3101H25.0673H27.5501V50.9653Z" fill="#4D0000"/>
<path d="M41.9639 33.5722L41.6191 33.917V37.7239V41.517H39.1363H36.6536V39.6826C36.6536 37.0067 37.0949 37.2412 32.1708 37.2412H28.1156L27.8398 37.5998C27.5639 37.9446 27.5501 38.1377 27.5501 41.5998V45.2412H24.4329C22.6673 45.2412 21.2191 45.2963 21.0673 45.3791C20.5708 45.6412 20.5156 46.2481 20.5156 50.9653C20.5156 55.6826 20.5708 56.2895 21.0673 56.5515C21.2329 56.6343 26.5846 56.6895 35.688 56.6895H50.0467L50.3777 56.3446L50.7225 56.0136V44.9929C50.7225 34.3446 50.7087 33.9446 50.4605 33.6412L50.1984 33.3101L46.2536 33.2688L42.3087 33.2274L41.9639 33.5722ZM48.6536 44.9653V54.6205H46.1708H43.688V44.9653V35.3101H46.1708H48.6536V44.9653ZM34.5846 46.8963V54.6205H32.1018H29.6191V46.8963V39.1722H32.1018H34.5846V46.8963ZM41.6191 49.1032V54.6205H39.1363H36.6536V49.1032V43.586H39.1363H41.6191V49.1032ZM27.5501 50.9653V54.6205H25.0673H22.5846V50.9653V47.3101H25.0673H27.5501V50.9653Z" stroke="#4D0000" stroke-width="1.2" mask="url(#path-5-outside-3_5883_47381)"/>
</g>
</g>
</g>
</svg>
