<svg width="72" height="72" viewBox="0 0 72 72" fill="none" xmlns="http://www.w3.org/2000/svg">
<g id="voucher-report">
<g id="Group">
<g id="Vector">
<path d="M29.887 4.07675C27.9495 4.40174 25.9246 5.37672 24.5871 6.62668L23.6622 7.48916H19.9123C15.8249 7.48916 15.2624 7.55166 14.0874 8.13914C12.675 8.85162 11.4875 10.3891 11.15 11.964C10.95 12.9015 10.95 62.5751 11.15 63.5126C11.35 64.4376 11.925 65.5376 12.5875 66.2375C13.2374 66.925 14.5249 67.65 15.4874 67.85C16.4249 68.05 56.3488 68.05 57.2862 67.85C59.4112 67.4 61.1736 65.6251 61.6236 63.5126C61.8236 62.5626 61.8236 12.9015 61.6236 11.964C61.1736 9.85159 59.3862 8.06414 57.2862 7.62666C56.8862 7.53916 55.1363 7.48916 52.8614 7.48916H49.099L48.2615 6.68918C47.3115 5.8017 46.3615 5.18922 45.0866 4.68924C43.4491 4.02675 42.8991 3.98926 36.2868 4.00175C32.9369 4.01425 30.062 4.05175 29.887 4.07675ZM42.8741 7.92665C43.3116 8.03914 44.0241 8.30164 44.4366 8.51413C45.6865 9.17661 47.0865 10.7641 47.449 11.9515L47.524 12.239H36.3868H25.2496L25.3246 11.9515C25.5371 11.2891 26.1246 10.3766 26.8371 9.6516C27.662 8.81412 28.962 8.07664 30.0245 7.87665C30.3245 7.81415 33.1619 7.76415 36.3243 7.75165C41.0492 7.73915 42.2116 7.77665 42.8741 7.92665ZM21.4247 12.0765C21.3247 12.5515 21.2622 13.3765 21.2872 13.9515C21.3247 15.0515 21.5247 15.4139 22.2872 15.8139C22.7872 16.0764 49.9864 16.0764 50.4864 15.8139C51.2489 15.4139 51.4489 15.0515 51.4864 13.9515C51.5114 13.3765 51.4489 12.5515 51.3489 12.0765L51.1739 11.2391H53.8113C56.8362 11.2391 57.2362 11.3391 57.7362 12.2265L58.0112 12.714V37.7383V62.7626L57.7487 63.2376C57.5987 63.5001 57.2737 63.8251 57.0112 63.9751L56.5362 64.2376H36.3868H16.2374L15.7624 63.9751C15.4999 63.8251 15.1749 63.5001 15.0249 63.2376L14.7624 62.7626V37.7383V12.714L15.0374 12.2265C15.5374 11.3391 15.9249 11.2391 18.9623 11.2391H21.5997L21.4247 12.0765Z" fill="#4D0000"/>
<path d="M42.8741 7.92665C43.3116 8.03914 44.0241 8.30164 44.4366 8.51413C45.6865 9.17661 47.0865 10.7641 47.449 11.9515L47.524 12.239H36.3868H25.2496L25.3246 11.9515C25.5371 11.2891 26.1246 10.3766 26.8371 9.6516C27.662 8.81412 28.962 8.07664 30.0245 7.87665C30.3245 7.81415 33.1619 7.76415 36.3243 7.75165C41.0492 7.73915 42.2116 7.77665 42.8741 7.92665Z" fill="#E60000"/>
</g>
<path id="Vector_2" d="M42.3346 21.989C41.4971 22.2515 40.8971 23.264 41.0596 24.1515C41.2096 24.9389 41.9596 25.6139 42.6971 25.6139C42.872 25.6139 43.0095 25.6514 43.0095 25.7139C43.0095 25.7639 42.0221 26.7889 40.8221 27.9889L38.6347 30.1763L35.5972 27.1389C32.3098 23.864 32.1223 23.7265 31.1724 23.9765C30.7849 24.089 29.9849 24.8264 26.9225 27.8889C23.6976 31.1263 23.1476 31.7388 23.0726 32.1387C22.8476 33.3637 23.6601 34.3637 24.885 34.3637C25.1725 34.3637 25.5225 34.3012 25.6725 34.2262C25.8225 34.1512 27.2225 32.8137 28.7974 31.2638L31.6349 28.4263L34.6098 31.3888C36.2347 33.0137 37.6972 34.4012 37.8472 34.4762C38.1972 34.6512 39.0722 34.6512 39.4221 34.4762C39.5721 34.4012 41.0471 32.9887 42.7096 31.3388L45.722 28.3388L45.797 28.8388C46.0845 30.5763 48.4844 30.9388 49.2969 29.3638C49.4969 28.9763 49.5094 28.6013 49.4844 26.0264C49.4469 22.839 49.4344 22.8265 48.5844 22.189C48.2594 21.939 48.0594 21.9265 45.472 21.9015C43.947 21.889 42.5346 21.9265 42.3346 21.989Z" fill="#4D0000"/>
</g>
<g id="Group_2">
<path id="Vector_3" d="M51.3022 43.4317C51.1359 43.3529 50.847 43.2479 50.6588 43.1997C50.2823 43.0947 35.3604 43.0465 35.0365 43.1428C34.9052 43.1866 34.6951 43.3617 34.2618 43.795L33.6708 44.386L33.0668 43.7819C32.4671 43.1822 32.4584 43.1735 32.1607 43.1297C31.9987 43.1078 30.0027 43.0903 27.731 43.0947C23.7564 43.1034 23.5726 43.1122 23.078 43.2829L22.5571 43.4624L21.454 44.5654L21.2833 45.0776C21.1345 45.5153 21.1038 45.791 21.0951 47.1042C21.082 47.9403 21.0951 48.7588 21.117 48.9207C21.1826 49.3278 21.3927 49.5292 21.7954 49.573C22.7891 49.6823 23.5026 50.3521 23.5726 51.2363C23.6207 51.8972 23.3318 52.5275 22.8066 52.8865C22.5483 53.0572 22.2594 53.1535 21.7035 53.2454C21.3621 53.2979 21.1782 53.4906 21.117 53.8583C21.0951 54.0202 21.082 54.8387 21.0951 55.6748C21.1038 56.9879 21.1345 57.2637 21.2833 57.7014L21.454 58.2136L22.5571 59.3166L23.078 59.4961C23.5726 59.6668 23.7564 59.6756 27.731 59.6843C30.0027 59.6887 31.9987 59.6712 32.1607 59.6493C32.4584 59.6055 32.4671 59.5968 33.0668 58.9971L33.6708 58.393L34.2618 58.9839C34.6951 59.4173 34.9052 59.5924 35.0365 59.6361C35.2597 59.7018 40.6568 59.6274 40.6568 59.6274V58.3843C40.6568 58.3843 39.3743 58.3361 37.978 58.3318L35.448 58.323L33.9116 56.8391L33.6708 56.8435L33.4301 56.8391L31.8849 58.3318L27.7572 58.3274C24.9295 58.3274 23.5551 58.2923 23.3975 58.2311C23.0692 58.0954 22.6446 57.6533 22.5352 57.325C22.4827 57.1762 22.4433 56.4977 22.4433 55.7536C22.4476 54.4798 22.4476 54.4448 22.614 54.4097C23.1743 54.2872 23.8352 53.8276 24.2554 53.2761C24.9996 52.2956 25.0959 50.9824 24.5006 49.8881C24.1591 49.2665 23.3887 48.6275 22.7015 48.4042L22.4433 48.321V47.0166C22.4433 46.2813 22.4827 45.6028 22.5352 45.454C22.6446 45.1257 23.0692 44.6836 23.3975 44.5479C23.5551 44.4866 24.9295 44.4516 27.7572 44.4516L31.8849 44.4472L33.4301 45.9399L33.6708 45.9355L33.9116 45.9399L35.4523 44.4516H42.9111C48.1462 44.4516 50.4355 44.4823 50.5975 44.5479C50.9258 44.6836 51.3504 45.1257 51.4598 45.454C51.5123 45.6028 51.5517 46.2813 51.5517 47.0166V48.321L51.2935 48.4042C50.5712 48.6362 49.8184 49.2753 49.4638 49.9537C48.7547 51.2932 49.1399 52.974 50.3611 53.8976C50.6982 54.1471 51.0878 54.3441 51.381 54.4097C51.5474 54.4448 51.5474 54.4798 51.5517 55.7536C51.5517 56.4977 51.5123 57.1762 51.4598 57.325C51.3504 57.6533 50.9258 58.0954 50.5931 58.2267C50.4443 58.288 49.5995 58.3274 48.1857 58.3318C46.9863 58.3318 45.9358 58.358 45.857 58.3843H40.6568V59.6274C40.6568 59.6274 47.0476 59.6887 48.2382 59.6799C50.2167 59.6712 50.4443 59.6536 50.917 59.4961L51.4379 59.3166L52.541 58.2136L52.7161 57.6971C52.8649 57.2506 52.8912 56.9879 52.9043 55.6704C52.9131 54.8387 52.8999 54.0202 52.8736 53.8626C52.8211 53.5212 52.6461 53.3111 52.3659 53.2586C52.2652 53.2367 52.0245 53.1885 51.8275 53.1491C50.4749 52.8821 49.9584 51.245 50.8951 50.2032C51.2322 49.8225 51.5342 49.6692 52.112 49.5904C52.4403 49.5423 52.5497 49.4942 52.7117 49.3322L52.9087 49.1353L52.9043 47.3712C52.8955 45.7779 52.878 45.5503 52.7205 45.0863C52.5454 44.5873 52.5191 44.5435 52.0726 44.0708C51.705 43.6856 51.5299 43.5455 51.3022 43.4317Z" fill="#4D0000"/>
<g id="Vector_4">
<path fill-rule="evenodd" clip-rule="evenodd" d="M24.5013 49.8878C25.0966 50.9822 25.0003 52.2953 24.2561 53.2758C23.8359 53.8273 23.175 54.2869 22.6147 54.4095C22.4485 54.4445 22.4483 54.4795 22.444 55.7506L22.444 55.7533C22.444 56.4974 22.4834 57.1759 22.5359 57.3248C22.6453 57.653 23.0699 58.0951 23.3982 58.2308C23.5558 58.2921 24.9302 58.3271 27.7579 58.3271L31.8856 58.3315L33.4308 56.8388L33.6715 56.8432L33.9123 56.8388L35.4487 58.3227L37.9787 58.3315C39.375 58.3359 40.6575 58.384 40.6575 58.384H45.8577C45.9365 58.3578 46.987 58.3315 48.1864 58.3315C49.6002 58.3271 50.445 58.2877 50.5938 58.2264C50.9265 58.0951 51.3511 57.653 51.4605 57.3248C51.513 57.1759 51.5524 56.4974 51.5524 55.7533V55.7506C51.5481 54.4795 51.5479 54.4445 51.3817 54.4095C51.0885 54.3438 50.6989 54.1469 50.3618 53.8974C49.1406 52.9738 48.7554 51.2929 49.4645 49.9535C49.8191 49.275 50.5719 48.636 51.2942 48.404L51.5524 48.3208V47.0164C51.5524 46.281 51.513 45.6025 51.4605 45.4537C51.3511 45.1255 50.9265 44.6833 50.5982 44.5476C50.4363 44.482 48.1469 44.4514 42.9118 44.4514H35.453L33.9123 45.9396L33.6715 45.9352L33.4308 45.9396L31.8856 44.447L27.7579 44.4514C24.9302 44.4514 23.5558 44.4863 23.3982 44.5476C23.0699 44.6834 22.6453 45.1255 22.5359 45.4537C22.4834 45.6025 22.444 46.281 22.444 47.0164V48.3208L22.7022 48.404C23.3894 48.6272 24.1598 49.2663 24.5013 49.8878ZM22.5345 48.2548L22.73 48.3178C23.087 48.4338 23.4615 48.656 23.7891 48.9267C24.1167 49.1974 24.4031 49.521 24.5806 49.8443C25.1927 50.9695 25.0942 52.3213 24.3283 53.3305C23.8981 53.8951 23.2198 54.3698 22.634 54.498C22.5938 54.5064 22.5896 54.511 22.5882 54.5129C22.5881 54.513 22.5882 54.5128 22.5882 54.5129C22.5828 54.5193 22.5689 54.5436 22.5584 54.628C22.538 54.7934 22.5367 55.1127 22.5345 55.7534C22.5345 56.124 22.5443 56.4778 22.5606 56.757C22.5688 56.8966 22.5785 57.0168 22.5893 57.1107C22.6005 57.2076 22.612 57.2683 22.6213 57.2946L22.6218 57.2961C22.6705 57.4424 22.7941 57.6236 22.9505 57.7874C23.1062 57.9506 23.2837 58.0852 23.4316 58.1467C23.4398 58.1496 23.4674 58.1559 23.5253 58.1626C23.5811 58.1691 23.6569 58.1754 23.7537 58.1813C23.9472 58.1932 24.2209 58.2032 24.5788 58.2114C25.2946 58.2278 26.3443 58.2365 27.7579 58.2365L31.8491 58.2409L33.3949 56.7477L33.6715 56.7527L33.9482 56.7477L35.4854 58.2323L37.979 58.2409C38.678 58.2431 39.3485 58.2563 39.8441 58.2689C40.0919 58.2752 40.296 58.2813 40.4383 58.2859C40.5094 58.2882 40.565 58.2901 40.6029 58.2915L40.6461 58.293L40.6592 58.2935H45.8467C45.8556 58.2916 45.8644 58.2903 45.8717 58.2893C45.8861 58.2874 45.9036 58.2857 45.9236 58.284C45.9638 58.2806 46.0172 58.2774 46.0818 58.2743C46.2112 58.2681 46.3881 58.2623 46.5997 58.2574C47.0229 58.2475 47.5861 58.2409 48.1864 58.2409C48.8926 58.2387 49.4557 58.2278 49.8604 58.2099C50.063 58.2008 50.2248 58.1902 50.3446 58.178C50.4045 58.1719 50.453 58.1656 50.4902 58.1591C50.529 58.1524 50.5503 58.1464 50.5594 58.1427L50.5606 58.1422C50.7103 58.0831 50.889 57.9496 51.0456 57.7867C51.2024 57.6236 51.3259 57.4423 51.3746 57.2961L51.3751 57.2946C51.3844 57.2683 51.3959 57.2076 51.4071 57.1107C51.4179 57.0168 51.4276 56.8966 51.4358 56.757C51.4521 56.4779 51.4619 56.1241 51.4619 55.7536C51.4597 55.1127 51.4584 54.7934 51.4379 54.628C51.4275 54.5436 51.4138 54.5195 51.4084 54.5131C51.407 54.5113 51.4033 54.5066 51.3631 54.4981L51.3619 54.4979C51.0522 54.4286 50.6511 54.2241 50.308 53.9701C49.0521 53.0204 48.6542 51.2908 49.3844 49.9114C49.7498 49.2122 50.5213 48.5572 51.2664 48.3178M51.2664 48.3178L51.4619 48.2548V47.0164C51.4619 46.6502 51.4521 46.2985 51.4358 46.0204C51.4276 45.8813 51.4179 45.7614 51.4071 45.6676C51.3959 45.5709 51.3844 45.5102 51.3751 45.4839L51.3746 45.4823C51.3259 45.3361 51.2023 45.1548 51.0459 44.991C50.89 44.8277 50.7123 44.6929 50.5642 44.6316C50.5648 44.6317 50.5644 44.6316 50.5642 44.6316C50.5617 44.631 50.5514 44.6285 50.53 44.6254C50.5056 44.6219 50.4721 44.6184 50.4289 44.6149C50.3425 44.6079 50.2208 44.6014 50.0616 44.5954C49.7436 44.5833 49.2796 44.5734 48.6563 44.5654C47.4099 44.5495 45.5293 44.5419 42.9118 44.5419H35.4896L33.9482 46.0308L33.6715 46.0258L33.3949 46.0308L31.8491 44.5375L27.758 44.5419C26.3444 44.5419 25.2946 44.5506 24.5788 44.567C24.2209 44.5753 23.9472 44.5853 23.7537 44.5971C23.6569 44.603 23.5811 44.6093 23.5253 44.6158C23.4674 44.6227 23.4397 44.6289 23.4316 44.6318C23.2837 44.6933 23.1062 44.8279 22.9505 44.991C22.7941 45.1548 22.6705 45.3361 22.6218 45.4823L22.6213 45.4839C22.612 45.5102 22.6005 45.5709 22.5893 45.6676C22.5785 45.7614 22.5688 45.8813 22.5606 46.0204C22.5443 46.2985 22.5345 46.6502 22.5345 47.0164V48.2548M40.657 59.7177H40.6586L40.6613 59.7177L41.6739 59.7271C42.2916 59.7327 43.1277 59.7401 44.001 59.7472C45.7471 59.7614 47.6434 59.7746 48.2396 59.7702C50.2126 59.7615 50.4569 59.7449 50.9464 59.5817L51.4878 59.3952L52.6207 58.2624L52.8027 57.7254C52.9566 57.2636 52.9824 56.9871 52.9956 55.671C52.9999 55.2545 52.9988 54.8411 52.9934 54.5119C52.9879 54.1876 52.9782 53.9356 52.9637 53.848C52.9356 53.6658 52.8737 53.5113 52.7752 53.3938C52.6759 53.2754 52.5435 53.1996 52.3846 53.1696C52.2822 53.1473 52.0416 53.0992 51.846 53.0601C50.5661 52.8074 50.0709 51.2559 50.9632 50.2636C51.1265 50.079 51.278 49.9534 51.4548 49.8642C51.6323 49.7747 51.8414 49.7186 52.125 49.6799C52.2904 49.6556 52.4107 49.6302 52.5109 49.5869C52.6137 49.5424 52.6909 49.4815 52.7764 49.396L53 49.1723L52.9956 47.3707C52.9868 45.781 52.9701 45.5374 52.8069 45.0569C52.7198 44.809 52.6661 44.6625 52.5754 44.5198C52.4856 44.3786 52.3608 44.243 52.1392 44.0083C51.7695 43.621 51.5853 43.4714 51.3434 43.3505L51.3417 43.3496C51.1704 43.2685 50.8766 43.1616 50.6827 43.1119C50.6609 43.1061 50.6263 43.1025 50.5898 43.0995C50.549 43.0963 50.4952 43.0931 50.4298 43.09C50.2988 43.0839 50.1182 43.078 49.8957 43.0724C49.4504 43.0612 48.8349 43.0511 48.1063 43.0422C46.649 43.0244 44.7381 43.0115 42.8289 43.005C40.9198 42.9984 39.0122 42.9981 37.5614 43.0055C36.8361 43.0092 36.2248 43.0148 35.7844 43.0225C35.5644 43.0264 35.3865 43.0307 35.2584 43.0357C35.1944 43.0382 35.1421 43.0408 35.103 43.0437C35.0683 43.0462 35.033 43.0493 35.0114 43.0558L35.0085 43.0566C34.9255 43.0843 34.8291 43.1488 34.7049 43.2532C34.5786 43.3593 34.4155 43.5137 34.1984 43.7307L33.6715 44.2576L33.1198 43.7059C32.8307 43.4168 32.6744 43.2606 32.5542 43.1737C32.4212 43.0776 32.3261 43.0621 32.1746 43.0398L32.1735 43.0397C32.1264 43.0333 31.964 43.0282 31.7221 43.0235C31.4762 43.0189 31.1402 43.0148 30.7384 43.0115C29.9349 43.005 28.8676 43.0017 27.7315 43.0039C25.7452 43.0083 24.7033 43.0126 24.0965 43.0373C23.4858 43.0622 23.307 43.1081 23.0491 43.1971L22.5085 43.3833L21.3756 44.5163L21.1983 45.0481C21.1983 45.0481 21.1982 45.0482 21.1983 45.0481C21.0442 45.5014 21.014 45.7915 21.0052 47.1029C20.9987 47.5217 20.9987 47.936 21.0031 48.2662C21.0074 48.5933 21.0161 48.8449 21.0279 48.9326L21.0283 48.9349C21.0631 49.1507 21.1381 49.3236 21.2678 49.4481C21.3976 49.5729 21.5721 49.6394 21.7864 49.6627C22.7443 49.7683 23.4169 50.4095 23.483 51.2429C23.5289 51.8736 23.2532 52.4716 22.7568 52.8111C22.5145 52.9711 22.2405 53.0647 21.6899 53.1557C21.5051 53.1843 21.3538 53.2523 21.2405 53.3708C21.1277 53.4887 21.0609 53.6478 21.0284 53.8431L21.0279 53.8459C21.016 53.9336 21.0074 54.1851 21.0031 54.5122C20.9987 54.8424 20.9987 55.2568 21.0052 55.6755C21.014 56.9869 21.0441 57.2768 21.1982 57.73C21.1981 57.7299 21.1982 57.7301 21.1982 57.73L21.3756 58.2622L22.5085 59.3952L23.0491 59.5814C23.307 59.6704 23.4858 59.7163 24.0965 59.7411C24.7033 59.7659 25.7452 59.7702 27.7314 59.7746C28.8675 59.7768 29.9349 59.7735 30.7384 59.7669C31.1402 59.7636 31.4762 59.7595 31.7221 59.7549C31.964 59.7503 32.1264 59.7452 32.1735 59.7388L32.1746 59.7386C32.3261 59.7163 32.4212 59.7009 32.5542 59.6048C32.6744 59.5179 32.8307 59.3616 33.1198 59.0726L33.6715 58.5208L34.1984 59.0477C34.4155 59.2648 34.5786 59.4192 34.7049 59.5252C34.8291 59.6296 34.9255 59.6942 35.0085 59.7218L35.0117 59.7228C35.0273 59.7274 35.0466 59.7299 35.0634 59.7317C35.0821 59.7337 35.1052 59.7354 35.1318 59.737C35.185 59.7402 35.2557 59.7428 35.3405 59.7449C35.5104 59.7492 35.7403 59.7516 36.0092 59.7528C36.5471 59.755 37.2431 59.7519 37.9318 59.7467C38.6205 59.7415 39.3023 59.7343 39.8118 59.7283C40.0666 59.7253 40.2783 59.7227 40.4264 59.7207L40.6549 59.7177L40.657 59.7177ZM33.6715 58.3927L33.0675 58.9968C32.4678 59.5965 32.4591 59.6052 32.1614 59.6491C31.9994 59.6709 30.0034 59.6884 27.7317 59.684C23.7571 59.6753 23.5733 59.6665 23.0787 59.4958L22.5578 59.3164L21.4547 58.2133L21.284 57.7011C21.1352 57.2634 21.1045 56.9877 21.0958 55.6745C21.0827 54.8385 21.0958 54.0199 21.1177 53.858C21.179 53.4903 21.3628 53.2977 21.7042 53.2451C22.2601 53.1532 22.549 53.0569 22.8073 52.8862C23.3325 52.5273 23.6214 51.897 23.5733 51.236C23.5033 50.3518 22.7898 49.6821 21.7961 49.5727C21.3934 49.5289 21.1833 49.3276 21.1177 48.9205C21.0958 48.7585 21.0827 47.94 21.0958 47.104C21.1045 45.7908 21.1352 45.515 21.284 45.0773L21.4547 44.5651L22.5578 43.4621L23.0787 43.2826C23.5733 43.1119 23.7571 43.1031 27.7317 43.0944C30.0034 43.09 31.9994 43.1075 32.1614 43.1294C32.4591 43.1732 32.4678 43.1819 33.0675 43.7816L33.6715 44.3857L34.2625 43.7947C34.6958 43.3614 34.9059 43.1863 35.0372 43.1426C35.3611 43.0463 50.283 43.0944 50.6595 43.1994C50.8477 43.2476 51.1366 43.3526 51.3029 43.4314C51.5306 43.5452 51.7057 43.6853 52.0733 44.0705C52.5198 44.5433 52.5461 44.587 52.7212 45.086C52.8787 45.55 52.8962 45.7776 52.905 47.371L52.9094 49.135L52.7124 49.332C52.5504 49.4939 52.441 49.542 52.1127 49.5902C51.5349 49.669 51.2329 49.8222 50.8958 50.203C49.9591 51.2448 50.4756 52.8818 51.8282 53.1488C52.0252 53.1883 52.2659 53.2364 52.3666 53.2583C52.6468 53.3108 52.8218 53.5209 52.8743 53.8624C52.9006 54.0199 52.9138 54.8385 52.905 55.6701C52.8919 56.9877 52.8656 57.2503 52.7168 57.6968L52.5417 58.2133L51.4386 59.3164L50.9177 59.4958C50.445 59.6534 50.2174 59.6709 48.2389 59.6796C47.0483 59.6884 40.6575 59.6271 40.6575 59.6271C40.6575 59.6271 35.2604 59.7016 35.0372 59.6359C34.9059 59.5921 34.6958 59.417 34.2625 58.9837L33.6715 58.3927Z" fill="#4D0000"/>
<path d="M22.5345 48.2548L22.73 48.3178C23.087 48.4338 23.4615 48.656 23.7891 48.9267C24.1167 49.1974 24.4031 49.521 24.5806 49.8443C25.1927 50.9695 25.0942 52.3213 24.3283 53.3305C23.8981 53.8951 23.2198 54.3698 22.634 54.498C22.5938 54.5064 22.5896 54.511 22.5882 54.5129C22.5828 54.5193 22.5689 54.5436 22.5584 54.628C22.538 54.7934 22.5367 55.1127 22.5345 55.7534C22.5345 56.124 22.5443 56.4778 22.5606 56.757C22.5688 56.8966 22.5785 57.0168 22.5893 57.1107C22.6005 57.2076 22.612 57.2683 22.6213 57.2946L22.6218 57.2961C22.6705 57.4424 22.7941 57.6236 22.9505 57.7874C23.1062 57.9506 23.2837 58.0852 23.4316 58.1467C23.4398 58.1496 23.4674 58.1559 23.5253 58.1626C23.5811 58.1691 23.6569 58.1754 23.7537 58.1813C23.9472 58.1932 24.2209 58.2032 24.5788 58.2114C25.2946 58.2278 26.3443 58.2365 27.7579 58.2365L31.8491 58.2409L33.3949 56.7477L33.6715 56.7527L33.9482 56.7477L35.4854 58.2323L37.979 58.2409C38.678 58.2431 39.3485 58.2563 39.8441 58.2689C40.0919 58.2752 40.296 58.2813 40.4383 58.2859L40.6029 58.2915L40.6461 58.293L40.6592 58.2935H45.8467C45.8556 58.2916 45.8644 58.2903 45.8717 58.2893C45.8861 58.2874 45.9036 58.2857 45.9236 58.284C45.9638 58.2806 46.0172 58.2774 46.0818 58.2743C46.2112 58.2681 46.3881 58.2623 46.5997 58.2574C47.0229 58.2475 47.5861 58.2409 48.1864 58.2409C48.8926 58.2387 49.4557 58.2278 49.8604 58.2099C50.063 58.2008 50.2248 58.1902 50.3446 58.178C50.4045 58.1719 50.453 58.1656 50.4902 58.1591C50.529 58.1524 50.5503 58.1464 50.5594 58.1427L50.5606 58.1422C50.7103 58.0831 50.889 57.9496 51.0456 57.7867C51.2024 57.6236 51.3259 57.4423 51.3746 57.2961L51.3751 57.2946C51.3844 57.2683 51.3959 57.2076 51.4071 57.1107C51.4179 57.0168 51.4276 56.8966 51.4358 56.757C51.4521 56.4779 51.4619 56.1241 51.4619 55.7536C51.4597 55.1127 51.4584 54.7934 51.4379 54.628C51.4275 54.5436 51.4138 54.5195 51.4084 54.5131C51.407 54.5113 51.4033 54.5066 51.3631 54.4981L51.3619 54.4979C51.0522 54.4286 50.6511 54.2241 50.308 53.9701C49.0521 53.0204 48.6542 51.2908 49.3844 49.9114C49.7498 49.2122 50.5213 48.5572 51.2664 48.3178L51.4619 48.2548V47.0164C51.4619 46.6502 51.4521 46.2985 51.4358 46.0204C51.4276 45.8813 51.4179 45.7614 51.4071 45.6676C51.3959 45.5709 51.3844 45.5102 51.3751 45.4839L51.3746 45.4823C51.3259 45.3361 51.2023 45.1548 51.0459 44.991C50.89 44.8277 50.7123 44.6929 50.5642 44.6316C50.5648 44.6317 50.5644 44.6316 50.5642 44.6316C50.5617 44.631 50.5514 44.6285 50.53 44.6254C50.5056 44.6219 50.4721 44.6184 50.4289 44.6149C50.3425 44.6079 50.2208 44.6014 50.0616 44.5954C49.7436 44.5833 49.2796 44.5734 48.6563 44.5654C47.4099 44.5495 45.5293 44.5419 42.9118 44.5419H35.4896L33.9482 46.0308L33.6715 46.0258L33.3949 46.0308L31.8491 44.5375L27.758 44.5419C26.3444 44.5419 25.2946 44.5506 24.5788 44.567C24.2209 44.5753 23.9472 44.5853 23.7537 44.5971C23.6569 44.603 23.5811 44.6093 23.5253 44.6158C23.4674 44.6227 23.4397 44.6289 23.4316 44.6318C23.2837 44.6933 23.1062 44.8279 22.9505 44.991C22.7941 45.1548 22.6705 45.3361 22.6218 45.4823L22.6213 45.4839C22.612 45.5102 22.6005 45.5709 22.5893 45.6676C22.5785 45.7614 22.5688 45.8813 22.5606 46.0204C22.5443 46.2985 22.5345 46.6502 22.5345 47.0164V48.2548Z" fill="#FF8080"/>
</g>
<path id="Vector_5" d="M44.2481 47.7915C44.108 47.7565 43.7753 47.8528 43.6659 47.9622C43.5609 48.0673 39.8534 54.6374 39.8008 54.8038C39.687 55.189 40.0022 55.6004 40.4136 55.6004C40.615 55.6004 40.7069 55.5611 40.847 55.421C40.9476 55.3203 41.8712 53.7489 42.8999 51.9236C44.9791 48.2424 44.9222 48.3693 44.5588 48.006C44.4582 47.9053 44.3181 47.809 44.2481 47.7915Z" fill="#4D0000"/>
<path id="Vector_6" fill-rule="evenodd" clip-rule="evenodd" d="M39.7109 54.7778C39.5792 55.2236 39.9413 55.6907 40.4106 55.6907C40.5166 55.6907 40.6035 55.6805 40.6851 55.6465C40.7666 55.6126 40.8344 55.5583 40.9079 55.4847C40.9201 55.4726 40.9334 55.455 40.9459 55.4377C40.9594 55.4188 40.9757 55.3947 40.9945 55.3661C41.0322 55.3088 41.081 55.2312 41.1397 55.1359C41.2569 54.9451 41.4143 54.6816 41.6005 54.3646C41.9729 53.7304 42.4612 52.8808 42.9757 51.9678C43.0304 51.8709 43.0837 51.7767 43.1355 51.685C44.066 50.0377 44.5335 49.2103 44.7257 48.7556C44.8261 48.5179 44.8619 48.3598 44.8301 48.2317C44.8138 48.1657 44.7813 48.1144 44.7435 48.0692C44.7162 48.0366 44.6827 48.0037 44.6497 47.9712C44.6396 47.9613 44.6296 47.9515 44.6198 47.9417C44.5653 47.8872 44.5008 47.8344 44.4403 47.7928C44.3827 47.753 44.3188 47.7163 44.267 47.7034C44.2169 47.6909 44.1574 47.6914 44.1004 47.6977C44.0418 47.7042 43.9784 47.7176 43.9171 47.7355C43.7991 47.7699 43.6702 47.8265 43.5988 47.8979C43.5911 47.9056 43.5847 47.9146 43.5815 47.9191C43.5771 47.9253 43.5721 47.9327 43.5668 47.941C43.556 47.9575 43.5421 47.9798 43.5254 48.007C43.4921 48.0617 43.4465 48.1382 43.3907 48.2334C43.2789 48.4238 43.1251 48.6901 42.9434 49.0068C42.5801 49.6404 42.1051 50.4769 41.6318 51.3152C41.1584 52.1536 40.6867 52.9939 40.3299 53.6351C40.1516 53.9557 40.0019 54.2267 39.8951 54.4228C39.8417 54.5208 39.7989 54.6004 39.7685 54.6583C39.7534 54.6873 39.741 54.7112 39.732 54.7294C39.7244 54.7448 39.7156 54.763 39.7114 54.7762L39.7109 54.7778Z" fill="#4D0000"/>
<path id="Vector_7" d="M46.2622 52.5117C45.8551 52.376 45.5006 52.3804 45.041 52.5161C44.6821 52.6211 44.0036 53.3171 43.8898 53.6936C43.7541 54.1444 43.7541 54.4421 43.8985 54.8667C44.1393 55.5977 44.8309 56.1404 45.5706 56.1886C46.1265 56.2192 46.5905 56.0441 47.0064 55.6283C47.3915 55.2344 47.5535 54.8886 47.5798 54.3808C47.6017 53.8687 47.4485 53.4878 47.0282 53.0326C46.6955 52.6737 46.6387 52.6343 46.2622 52.5117ZM46.2535 54.1751C46.2753 54.2495 46.2535 54.4027 46.2053 54.5209C46.1309 54.7003 46.0871 54.7441 45.9077 54.8185C45.3299 55.0549 44.8484 54.337 45.2861 53.8993C45.5925 53.5929 46.1222 53.7461 46.2535 54.1751Z" fill="#4D0000"/>
<path id="Vector_8" fill-rule="evenodd" clip-rule="evenodd" d="M43.8904 53.6933C43.7547 54.1441 43.7547 54.4418 43.8991 54.8664C44.1399 55.5973 44.8315 56.1401 45.5713 56.1883C46.1271 56.2189 46.5912 56.0438 47.007 55.628C47.3922 55.2341 47.5542 54.8883 47.5804 54.3805C47.6023 53.8684 47.4491 53.4875 47.0289 53.0323C46.6962 52.6734 46.6393 52.634 46.2629 52.5114C45.8558 52.3757 45.5012 52.3801 45.0416 52.5158C44.6827 52.6208 44.0042 53.3168 43.8904 53.6933ZM45.016 52.429C44.911 52.4597 44.7912 52.5304 44.6725 52.6184C44.552 52.7077 44.4264 52.8197 44.3094 52.9395C44.1923 53.0594 44.0825 53.1885 43.9941 53.3128C43.9067 53.4357 43.8364 53.5592 43.8038 53.6671C43.7343 53.8977 43.6981 54.0943 43.6992 54.2902C43.7004 54.4863 43.739 54.6766 43.8133 54.8951C44.0653 55.6597 44.7877 56.228 45.5654 56.2786L45.5663 56.2787C46.1485 56.3108 46.6374 56.1257 47.0711 55.6921L47.0718 55.6913C47.2692 55.4894 47.4131 55.2962 47.5106 55.0849C47.6083 54.8732 47.6573 54.6481 47.6709 54.3852L47.6709 54.3844C47.6823 54.1176 47.6481 53.881 47.5543 53.6509C47.4609 53.4216 47.3102 53.2036 47.0954 52.9709C46.9305 52.7929 46.8261 52.6852 46.7133 52.6084C46.5986 52.5303 46.479 52.4866 46.2912 52.4254C45.8641 52.2831 45.4904 52.2889 45.016 52.429ZM46.1223 54.4861C46.0857 54.5743 46.0617 54.6156 46.0326 54.6448C46.0034 54.6739 45.9621 54.6979 45.8739 54.7345C45.3842 54.9346 44.9857 54.3282 45.3508 53.9631C45.6031 53.7108 46.0534 53.8296 46.1674 54.2007C46.1727 54.2194 46.1748 54.2607 46.1667 54.3187C46.1589 54.3742 46.1432 54.4346 46.1223 54.4861ZM46.2541 54.1748C46.276 54.2492 46.2541 54.4023 46.2059 54.5206C46.1315 54.7 46.0878 54.7438 45.9083 54.8182C45.3305 55.0546 44.849 54.3367 45.2867 53.899C45.5932 53.5926 46.1228 53.7458 46.2541 54.1748Z" fill="#4D0000"/>
<path id="Vector_9" d="M40.4759 46.5889C39.9112 46.3218 39.2459 46.3394 38.7206 46.6457C38.3573 46.8515 37.9765 47.3373 37.8539 47.7488C37.4162 49.2283 38.8388 50.5721 40.3008 50.0644C40.7517 49.9024 41.2769 49.3859 41.4301 48.9438C41.5658 48.5542 41.5658 48.0289 41.4345 47.6438C41.29 47.2367 40.8786 46.7815 40.4759 46.5889ZM40.2045 48.2522C40.2264 48.633 39.9988 48.8519 39.618 48.83C39.386 48.8169 39.3203 48.7862 39.2065 48.6286C38.8782 48.1778 39.2809 47.5825 39.8062 47.7401C40.0863 47.8189 40.187 47.9545 40.2045 48.2522Z" fill="#4D0000"/>
<path id="Vector_10" fill-rule="evenodd" clip-rule="evenodd" d="M40.5154 46.5072C39.9255 46.2283 39.2288 46.2454 38.6763 46.5675C38.4817 46.6778 38.2873 46.8597 38.1266 47.0644C37.9656 47.2694 37.8333 47.5038 37.768 47.7232C37.309 49.2745 38.8008 50.6816 40.3313 50.1501L40.3322 50.1498C40.5737 50.063 40.8286 49.8844 41.0416 49.6737C41.2544 49.4632 41.4338 49.2122 41.5164 48.9737C41.6588 48.5649 41.6588 48.0189 41.521 47.6147L41.5206 47.6136C41.4434 47.3961 41.297 47.1704 41.1199 46.9753C40.9428 46.78 40.7298 46.6097 40.5154 46.5072ZM38.7215 46.6459C39.2468 46.3395 39.9121 46.322 40.4767 46.589C40.8795 46.7816 41.2909 47.2368 41.4354 47.6439C41.5667 48.0291 41.5667 48.5544 41.431 48.9439C41.2778 49.3861 40.7525 49.9026 40.3016 50.0645C38.8396 50.5723 37.4171 49.2285 37.8548 47.749C37.9773 47.3375 38.3582 46.8517 38.7215 46.6459ZM39.6239 48.7398C39.5082 48.7333 39.4501 48.7226 39.4083 48.7022C39.3693 48.6833 39.3352 48.6513 39.2807 48.5758C38.9985 48.1882 39.3468 47.6967 39.781 47.827L39.7825 47.8274C39.9131 47.8642 39.9872 47.9102 40.0329 47.9695C40.0792 48.0296 40.1066 48.1166 40.1149 48.2577C40.1248 48.4292 40.0782 48.5508 39.9997 48.6276C39.921 48.7046 39.7965 48.7497 39.6239 48.7398ZM40.2053 48.2523C40.2272 48.6332 39.9997 48.852 39.6188 48.8302C39.3868 48.8171 39.3212 48.7864 39.2074 48.6288C38.8791 48.1779 39.2818 47.5827 39.807 47.7402C40.0872 47.819 40.1879 47.9547 40.2053 48.2523Z" fill="#4D0000"/>
<path id="Vector_11" d="M33.6725 47.2656C33.4625 47.2656 33.3793 47.305 33.2173 47.467C33.0466 47.6377 33.016 47.7209 33.0029 48.0054C32.9766 48.4344 33.0204 48.5657 33.2436 48.7889C33.4931 49.0297 33.8564 49.0165 34.119 48.7539C34.2766 48.5963 34.2985 48.5219 34.3029 48.106C34.2985 47.6902 34.281 47.6202 34.1147 47.4538C33.9659 47.305 33.8739 47.2656 33.6725 47.2656Z" fill="#4D0000"/>
<path id="Vector_12" fill-rule="evenodd" clip-rule="evenodd" d="M33.1776 48.8543C33.4662 49.1328 33.886 49.112 34.1799 48.8181C34.263 48.7351 34.3204 48.6639 34.3523 48.5518C34.3819 48.4478 34.3881 48.3128 34.3903 48.1073V48.1053C34.3882 47.9005 34.3831 47.766 34.3534 47.6618C34.3214 47.5493 34.2624 47.477 34.1755 47.3901C34.098 47.3125 34.0281 47.256 33.9456 47.2209C33.8628 47.1855 33.7755 47.1753 33.6694 47.1753C33.5593 47.1753 33.4711 47.1854 33.3868 47.2231C33.3037 47.2603 33.2328 47.3205 33.1501 47.4032C33.0621 47.4912 33.0012 47.5653 32.9636 47.6605C32.927 47.7534 32.9159 47.8585 32.9093 48.0008C32.8961 48.2158 32.8992 48.3702 32.9401 48.5014C32.9821 48.6364 33.0609 48.7376 33.1764 48.8532L33.1776 48.8543ZM32.9997 48.0056C33.0128 47.7211 33.0435 47.6379 33.2142 47.4672C33.3761 47.3052 33.4593 47.2659 33.6694 47.2659C33.8707 47.2659 33.9627 47.3052 34.1115 47.4541C34.2779 47.6204 34.2953 47.6905 34.2997 48.1063C34.2953 48.5221 34.2735 48.5965 34.1159 48.7541C33.8533 49.0167 33.49 49.0299 33.2405 48.7892C33.0172 48.5659 32.9735 48.4346 32.9997 48.0056Z" fill="#4D0000"/>
<path id="Vector_13" d="M33.6719 50.5049C33.4618 50.5049 33.3786 50.5443 33.2123 50.7106C33.0328 50.8901 33.0109 50.9557 32.9978 51.3278C32.9803 51.8268 33.0941 52.0982 33.3874 52.2427C33.6544 52.3784 33.8645 52.3346 34.114 52.085C34.3022 51.8969 34.311 51.8531 34.3022 51.3803C34.2935 50.9251 34.2716 50.8507 34.1096 50.6888C33.9652 50.5443 33.8732 50.5049 33.6719 50.5049Z" fill="#4D0000"/>
<path id="Vector_14" fill-rule="evenodd" clip-rule="evenodd" d="M32.908 51.3248C32.8991 51.5802 32.9231 51.7879 32.9934 51.9538C33.0652 52.123 33.1829 52.2426 33.3476 52.3238C33.4934 52.3977 33.634 52.4278 33.777 52.397C33.918 52.3667 34.0478 52.2802 34.1787 52.1493C34.2738 52.0543 34.339 51.9815 34.3703 51.8626C34.3988 51.754 34.3978 51.61 34.3935 51.3788C34.3892 51.1539 34.3818 51.0092 34.3513 50.9003C34.3184 50.7827 34.2598 50.7103 34.1743 50.6249C34.0988 50.5493 34.03 50.4939 33.948 50.4594C33.8658 50.4247 33.7786 50.4146 33.6727 50.4146C33.5625 50.4146 33.4742 50.4247 33.3891 50.4631C33.3056 50.5007 33.2337 50.5621 33.149 50.6467C33.0574 50.7383 32.9945 50.8117 32.9578 50.9175C32.9231 51.0179 32.9145 51.1413 32.908 51.3248ZM33.213 50.7108C33.3793 50.5445 33.4625 50.5051 33.6727 50.5051C33.874 50.5051 33.9659 50.5445 34.1104 50.6889C34.2723 50.8509 34.2942 50.9253 34.3029 51.3805C34.3117 51.8533 34.3029 51.897 34.1147 52.0852C33.8652 52.3347 33.6551 52.3785 33.3881 52.2428C33.0948 52.0984 32.981 51.827 32.9985 51.328C33.0116 50.9559 33.0335 50.8903 33.213 50.7108Z" fill="#4D0000"/>
<path id="Vector_15" d="M30.7127 48.089C30.5026 47.9751 27.5086 47.9576 27.224 48.0671C26.9658 48.1678 26.8082 48.4041 26.8126 48.6887C26.8126 48.855 26.8564 48.9513 27.0139 49.1089L27.2109 49.3059H30.6777L30.8747 49.1089C31.0366 48.9469 31.0716 48.8681 31.0673 48.6799C31.0541 48.4041 30.9447 48.2159 30.7127 48.089Z" fill="#4D0000"/>
<path id="Vector_16" fill-rule="evenodd" clip-rule="evenodd" d="M30.7565 48.0091C30.7296 47.9945 30.693 47.9858 30.6596 47.9795C30.6228 47.9725 30.577 47.9662 30.5246 47.9606C30.4196 47.9491 30.2823 47.9394 30.1242 47.9314C29.8078 47.9154 29.4035 47.906 28.9975 47.9035C28.5915 47.901 28.1827 47.9055 27.857 47.9175C27.6943 47.9236 27.5514 47.9315 27.4397 47.9414C27.3839 47.9464 27.3349 47.952 27.2946 47.9583C27.256 47.9643 27.2196 47.9718 27.1923 47.9823C26.8981 48.0969 26.7181 48.3679 26.7227 48.689C26.7228 48.7806 26.735 48.8604 26.7731 48.9406C26.8103 49.0189 26.8691 49.091 26.9506 49.1726L27.1741 49.3961H30.7159L30.9394 49.1726C31.0218 49.0901 31.0811 49.0203 31.1166 48.941C31.1532 48.8596 31.1608 48.7771 31.1585 48.6775L31.1584 48.6753C31.1513 48.5264 31.1179 48.3951 31.0505 48.282C30.9829 48.1685 30.8843 48.079 30.7565 48.0091ZM26.8133 48.6884C26.8089 48.4038 26.9665 48.1675 27.2247 48.0668C27.5093 47.9573 30.5033 47.9748 30.7134 48.0887C30.9454 48.2156 31.0548 48.4038 31.068 48.6796C31.0723 48.8678 31.0373 48.9466 30.8754 49.1086L30.6784 49.3056H27.2116L27.0146 49.1086C26.8571 48.951 26.8133 48.8547 26.8133 48.6884Z" fill="#4D0000"/>
<path id="Vector_17" d="M33.8334 53.7747C33.5095 53.6784 33.1506 53.8973 33.0412 54.2431C32.958 54.5189 32.9842 55.0704 33.0937 55.2674C33.3213 55.6788 33.7765 55.7489 34.1004 55.4249C34.2843 55.2411 34.3018 55.1886 34.3018 54.6721C34.2974 54.2037 34.2755 54.0943 34.1486 53.9673C34.0611 53.8885 33.9209 53.801 33.8334 53.7747Z" fill="#4D0000"/>
<path id="Vector_18" fill-rule="evenodd" clip-rule="evenodd" d="M33.8599 53.6879C33.4807 53.5752 33.0772 53.8312 32.9555 54.2158L32.9551 54.2169C32.9093 54.369 32.8954 54.5876 32.9054 54.7892C32.9106 54.8912 32.9219 54.9917 32.9394 55.0806C32.9568 55.1679 32.9811 55.25 33.0152 55.3113C33.1406 55.5379 33.3335 55.678 33.5477 55.7113C33.7623 55.7448 33.9853 55.6688 34.1652 55.4889C34.2589 55.3952 34.3242 55.3219 34.3581 55.197C34.3893 55.0821 34.393 54.9263 34.393 54.672V54.6712C34.3908 54.4386 34.3845 54.2849 34.3604 54.1726C34.3344 54.052 34.2878 53.9777 34.2133 53.9033L34.21 53.8999C34.1613 53.8562 34.0998 53.8115 34.0391 53.7742C33.9795 53.7375 33.9147 53.7043 33.8599 53.6879ZM34.1493 53.9673C34.0617 53.8885 33.9216 53.801 33.8341 53.7747C33.5102 53.6784 33.1513 53.8973 33.0418 54.2431" fill="#4D0000"/>
<path id="Vector_19" d="M27.2532 50.7153L27.03 50.9386C26.7192 51.2493 26.7192 51.5295 27.03 51.8402L27.2532 52.0635H30.6324L30.8556 51.8402C31.1664 51.5295 31.1664 51.2493 30.8556 50.9386L30.6324 50.7153H27.2532Z" fill="#4D0000"/>
<path id="Vector_20" fill-rule="evenodd" clip-rule="evenodd" d="M27.2164 50.6245L26.9666 50.8743C26.803 51.0378 26.707 51.2073 26.707 51.3891C26.707 51.571 26.803 51.7405 26.9666 51.904L27.2164 52.1538H30.6706L30.9204 51.904C31.084 51.7405 31.18 51.571 31.18 51.3891C31.18 51.2073 31.084 51.0378 30.9204 50.8743L30.6706 50.6245H27.2164ZM27.2539 50.7151H30.6331L30.8563 50.9383C31.1671 51.2491 31.1671 51.5292 30.8563 51.84L30.6331 52.0632H27.2539L27.0307 51.84C26.7199 51.5292 26.7199 51.2491 27.0307 50.9383L27.2539 50.7151Z" fill="#4D0000"/>
<path id="Vector_21" d="M28.9457 53.4726H27.2124L27.0154 53.6696C26.6871 53.9979 26.7571 54.4531 27.1729 54.6851C27.418 54.8164 30.4778 54.8208 30.7185 54.6851C31.1255 54.4531 31.1868 53.9804 30.8585 53.6521C30.6791 53.4726 30.6397 53.4682 28.9457 53.4726Z" fill="#4D0000"/>
<path id="Vector_22" fill-rule="evenodd" clip-rule="evenodd" d="M27.1716 53.3822L26.9481 53.6058C26.7663 53.7876 26.689 54.0115 26.7224 54.2275C26.7558 54.4431 26.8973 54.637 27.1256 54.7644L27.127 54.7651C27.1551 54.7802 27.1929 54.7899 27.2295 54.7972C27.2688 54.8051 27.3172 54.8122 27.3722 54.8185C27.4826 54.8313 27.6252 54.8418 27.7886 54.8502C28.1157 54.8671 28.5303 54.8757 28.9441 54.876C29.3579 54.8762 29.7722 54.8682 30.0988 54.8514C30.262 54.8431 30.4044 54.8325 30.5145 54.8196C30.5694 54.8131 30.6175 54.8059 30.6569 54.7978C30.6932 54.7902 30.7315 54.7801 30.7597 54.7642C30.9853 54.6356 31.1216 54.4359 31.1509 54.2169C31.1801 53.998 31.1014 53.7703 30.9194 53.5882C30.8739 53.5427 30.828 53.4985 30.7569 53.4657C30.6877 53.4337 30.601 53.4153 30.4754 53.4035C30.2258 53.3799 29.7864 53.3801 28.9424 53.3822C28.9424 53.3822 28.9424 53.3822 28.9424 53.3822H27.1716ZM27.2092 53.4728H28.9426C30.6365 53.4684 30.6759 53.4728 30.8554 53.6523C31.1837 53.9806 31.1223 54.4533 30.7153 54.6853M27.2092 53.4728L27.0122 53.6698L27.2092 53.4728ZM27.0122 53.6698C26.6839 53.9981 26.7539 54.4533 27.1697 54.6853L27.0122 53.6698Z" fill="#4D0000"/>
</g>
</g>
</svg>
