<svg width="72" height="72" viewBox="0 0 72 72" fill="none" xmlns="http://www.w3.org/2000/svg">
<g id="product-variant">
<g id="Group">
<path id="Vector" d="M59.4527 31.7182C57.9965 31.7182 56.647 31.7182 55.2113 31.7182C55.2113 28.8881 55.2113 26.0898 55.2113 23.2035C54.8777 23.2035 54.6303 23.2035 54.3829 23.2035C50.5182 23.2035 46.6517 23.2054 42.787 23.2035C41.0702 23.2035 40.2418 22.3788 40.2399 20.6658C40.2361 16.848 40.238 13.0282 40.238 9.2104C40.238 8.93301 40.238 8.65563 40.238 8.27891C39.9381 8.27891 39.6889 8.27891 39.4415 8.27891C29.9072 8.27891 20.371 8.27891 10.8368 8.27891C9.05436 8.27891 8.27654 9.06047 8.27466 10.8466C8.27466 27.5967 8.27279 44.3487 8.27466 61.0988C8.27466 62.9749 9.02437 63.7115 10.9267 63.7134C17.5559 63.7134 24.187 63.7134 30.8162 63.7134C31.0917 63.7134 31.3691 63.7134 31.6952 63.7134C31.6952 65.1472 31.6952 66.5135 31.6952 67.9492C31.4328 67.9604 31.1835 67.9829 30.9324 67.9829C24.2095 67.9848 17.4847 67.9904 10.7618 67.9829C7.38815 67.9792 4.83169 66.0206 4.15883 62.9168C4.03513 62.3508 4.00702 61.7548 4.00702 61.1719C3.99952 44.3975 3.99765 27.623 4.00327 10.8504C4.00514 6.74952 6.74154 4.015 10.8311 4.01313C21.2332 4.00751 31.6352 4.01688 42.0373 4.00001C42.9707 3.99813 43.6866 4.30177 44.3426 4.96525C49.0507 9.73332 53.7738 14.4845 58.5081 19.2264C59.1641 19.8842 59.4734 20.6096 59.464 21.5411C59.4378 24.6804 59.4546 27.8198 59.4546 30.9591C59.4527 31.1859 59.4527 31.4183 59.4527 31.7182ZM51.9708 18.9002C49.478 16.4356 47.0134 13.9991 44.5919 11.6076C44.5919 13.9616 44.5919 16.4244 44.5919 18.9002C47.0846 18.9002 49.5249 18.9002 51.9708 18.9002Z" fill="#0D313B"/>
<g id="Vector_2">
<path d="M51.9567 67.985C48.9129 67.985 45.8691 67.9887 42.8254 67.9831C38.7114 67.9756 35.9994 65.2692 35.9975 61.1721C35.9956 55.0377 35.9956 48.9033 35.9975 42.7689C35.9994 38.7037 38.7114 35.9992 42.786 35.9973C48.9448 35.9954 55.1017 35.9935 61.2604 35.9973C65.2001 35.9992 67.9627 38.6924 67.9815 42.6302C68.0114 48.8583 68.0077 55.0864 67.9833 61.3146C67.9683 65.2748 65.2563 67.9625 61.2998 67.9812C58.1848 67.9962 55.0698 67.9831 51.9567 67.985ZM58.4341 40.278C58.4209 40.5554 58.4003 40.8066 58.4003 41.0577C58.3966 42.8608 58.4116 44.6657 58.3947 46.4687C58.3816 47.9343 57.5232 48.7834 56.0744 48.7871C53.3567 48.7927 50.6391 48.7927 47.9214 48.7871C46.4858 48.7834 45.5955 47.9118 45.5824 46.4743C45.5674 44.6713 45.5786 42.8664 45.5786 41.0634C45.5786 40.8141 45.5786 40.5629 45.5786 40.3268C45.4287 40.2837 45.3631 40.2499 45.2994 40.2499C44.3622 40.2462 43.4251 40.2237 42.488 40.2499C41.1348 40.2874 40.2764 41.1702 40.2445 42.5309C40.2277 43.2337 40.2408 43.9366 40.2408 44.6394C40.2408 50.1684 40.2389 55.6974 40.2427 61.2246C40.2445 62.8327 41.043 63.7305 42.5255 63.7323C48.8267 63.7436 55.1279 63.7436 61.431 63.7323C62.8479 63.7305 63.6857 62.8571 63.6951 61.4364C63.7063 59.7027 63.7007 57.969 63.7044 56.2354C63.7138 51.7147 63.7269 47.1921 63.7307 42.6715C63.7325 41.3033 63.0766 40.4092 61.8489 40.3024C60.7394 40.2012 59.6148 40.278 58.4341 40.278ZM54.0914 40.293C52.6595 40.293 51.2932 40.293 49.9156 40.293C49.9156 41.7175 49.9156 43.1025 49.9156 44.4895C51.3401 44.4895 52.7045 44.4895 54.0914 44.4895C54.0914 43.0857 54.0914 41.7362 54.0914 40.293Z" fill="#0D313B"/>
<path d="M58.4341 40.278C58.4209 40.5554 58.4003 40.8066 58.4003 41.0577C58.3966 42.8608 58.4116 44.6657 58.3947 46.4687C58.3816 47.9343 57.5232 48.7834 56.0744 48.7871C53.3567 48.7927 50.6391 48.7927 47.9214 48.7871C46.4858 48.7834 45.5955 47.9118 45.5824 46.4743C45.5674 44.6713 45.5786 42.8664 45.5786 41.0634V40.3268C45.4287 40.2837 45.3631 40.2499 45.2994 40.2499C44.3622 40.2462 43.4251 40.2237 42.488 40.2499C41.1348 40.2874 40.2764 41.1702 40.2445 42.5309C40.2277 43.2337 40.2408 43.9366 40.2408 44.6394C40.2408 50.1684 40.2389 55.6974 40.2427 61.2246C40.2445 62.8327 41.043 63.7305 42.5255 63.7323C48.8267 63.7436 55.1279 63.7436 61.431 63.7323C62.8479 63.7305 63.6857 62.8571 63.6951 61.4364C63.7063 59.7027 63.7007 57.969 63.7044 56.2354C63.7138 51.7147 63.7269 47.1921 63.7307 42.6715C63.7325 41.3033 63.0766 40.4092 61.8489 40.3024C60.7394 40.2012 59.6148 40.278 58.4341 40.278Z" fill="#2894B4"/>
</g>
<path id="Vector_3" d="M35.9668 19.002C35.9668 20.4151 35.9668 21.7646 35.9668 23.159C31.0151 23.159 26.0896 23.159 21.1172 23.159C21.1172 21.7833 21.1172 20.417 21.1172 19.002C26.0558 19.002 30.9813 19.002 35.9668 19.002Z" fill="#0D313B"/>
<path id="Vector_4" d="M21.125 31.7803C24.643 31.7803 28.1234 31.7803 31.662 31.7803C31.662 33.1635 31.662 34.5279 31.662 35.9448C28.1703 35.9448 24.6748 35.9448 21.125 35.9448C21.125 34.5916 21.125 33.2272 21.125 31.7803Z" fill="#0D313B"/>
<path id="Vector_5" d="M21.0977 48.7407C21.0977 47.3519 21.0977 46.0006 21.0977 44.5986C24.6156 44.5986 28.1111 44.5986 31.6646 44.5986C31.6646 45.9593 31.6646 47.3257 31.6646 48.7407C28.1673 48.7407 24.6718 48.7407 21.0977 48.7407Z" fill="#0D313B"/>
<path id="Vector_6" d="M12.5859 18.9863C13.9916 18.9863 15.3411 18.9863 16.7449 18.9863C16.7449 20.3845 16.7449 21.7508 16.7449 23.1603C15.3673 23.1603 13.9972 23.1603 12.5859 23.1603C12.5859 21.7677 12.5859 20.3826 12.5859 18.9863Z" fill="#0D313B"/>
<path id="Vector_7" d="M12.5703 35.9602C12.5703 34.5245 12.5703 33.1769 12.5703 31.7881C13.976 31.7881 15.3442 31.7881 16.7536 31.7881C16.7536 33.1938 16.7536 34.5582 16.7536 35.9602C15.3442 35.9602 13.976 35.9602 12.5703 35.9602Z" fill="#0D313B"/>
<path id="Vector_8" d="M12.5859 44.5742C13.9748 44.5742 15.3242 44.5742 16.7355 44.5742C16.7355 45.9574 16.7355 47.3237 16.7355 48.7388C15.3823 48.7388 14.0122 48.7388 12.5859 48.7388C12.5859 47.3893 12.5859 46.0249 12.5859 44.5742Z" fill="#0D313B"/>
</g>
</g>
</svg>
