<svg width="72" height="72" viewBox="0 0 72 72" fill="none" xmlns="http://www.w3.org/2000/svg">
<g id="sales-summary">
<ellipse id="Ellipse 2549" cx="39" cy="25.5" rx="2" ry="1.5" fill="#E60000"/>
<circle id="Ellipse 2548" cx="31.5" cy="18.5" r="1.5" fill="#E60000"/>
<g id="Group 1171275016">
<g id="Group">
<g id="Vector">
<mask id="path-3-outside-1_5883_47305" maskUnits="userSpaceOnUse" x="10" y="3" width="51" height="66" fill="black">
<rect fill="white" x="10" y="3" width="51" height="66"/>
<path d="M20.725 4.15C20.6125 4.2375 18.3875 6.55 15.7625 9.3L11 14.275V40.8625V67.4625L11.2875 67.725L11.575 68H35.4875H59.3875L59.6875 67.6875L60 67.3875V35.9625V4.5375L59.7125 4.275L59.425 4H40.175C24.9625 4 20.875 4.0375 20.725 4.15ZM58 36.0625V66.125H35.5H13V40.9375V15.75H17.3C21.45 15.75 21.6 15.7375 21.925 15.4875L22.25 15.2375V10.6125V6H40.125H58V36.0625ZM20.2125 13.7125C20.1875 13.7375 18.8625 13.7375 17.275 13.725L14.3875 13.6875L17.2875 10.6375L20.1875 7.575L20.225 10.625C20.2375 12.2875 20.2375 13.6875 20.2125 13.7125Z"/>
<path d="M20.2125 13.7125C20.1875 13.7375 18.8625 13.7375 17.275 13.725L14.3875 13.6875L17.2875 10.6375L20.1875 7.575L20.225 10.625C20.2375 12.2875 20.2375 13.6875 20.2125 13.7125Z"/>
</mask>
<path d="M20.725 4.15C20.6125 4.2375 18.3875 6.55 15.7625 9.3L11 14.275V40.8625V67.4625L11.2875 67.725L11.575 68H35.4875H59.3875L59.6875 67.6875L60 67.3875V35.9625V4.5375L59.7125 4.275L59.425 4H40.175C24.9625 4 20.875 4.0375 20.725 4.15ZM58 36.0625V66.125H35.5H13V40.9375V15.75H17.3C21.45 15.75 21.6 15.7375 21.925 15.4875L22.25 15.2375V10.6125V6H40.125H58V36.0625ZM20.2125 13.7125C20.1875 13.7375 18.8625 13.7375 17.275 13.725L14.3875 13.6875L17.2875 10.6375L20.1875 7.575L20.225 10.625C20.2375 12.2875 20.2375 13.6875 20.2125 13.7125Z" fill="#4D0000"/>
<path d="M20.2125 13.7125C20.1875 13.7375 18.8625 13.7375 17.275 13.725L14.3875 13.6875L17.2875 10.6375L20.1875 7.575L20.225 10.625C20.2375 12.2875 20.2375 13.6875 20.2125 13.7125Z" fill="#E60000"/>
<path d="M17.275 13.725L17.2726 14.025L17.2711 14.025L17.275 13.725ZM14.3875 13.6875L14.3836 13.9875L13.6968 13.9786L14.1701 13.4808L14.3875 13.6875ZM17.2875 10.6375L17.5053 10.8438L17.5049 10.8442L17.2875 10.6375ZM20.1875 7.575L19.9697 7.36872L20.4784 6.83151L20.4875 7.57131L20.1875 7.575ZM20.225 10.625L20.525 10.6213L20.525 10.6227L20.225 10.625ZM20.4246 13.9246C20.3763 13.973 20.324 13.9915 20.3146 13.995C20.2959 14.0019 20.2801 14.0057 20.2716 14.0076C20.254 14.0115 20.238 14.0136 20.2284 14.0148C20.2076 14.0173 20.184 14.0189 20.1612 14.0202C20.1142 14.0229 20.05 14.025 19.9727 14.0267C19.8173 14.0301 19.5975 14.032 19.3306 14.0328C18.7962 14.0344 18.0668 14.0312 17.2726 14.025L17.2774 13.425C18.0707 13.4313 18.7976 13.4344 19.3288 13.4328C19.5947 13.432 19.81 13.4301 19.9597 13.4268C20.035 13.4252 20.0908 13.4233 20.1272 13.4212C20.1461 13.4201 20.1551 13.4193 20.1572 13.419C20.1591 13.4188 20.1522 13.4195 20.1411 13.422C20.1359 13.4231 20.1228 13.4262 20.1061 13.4323C20.0988 13.4351 20.0479 13.4528 20.0004 13.5004L20.4246 13.9246ZM17.2711 14.025L14.3836 13.9875L14.3914 13.3875L17.2789 13.425L17.2711 14.025ZM14.1701 13.4808L17.0701 10.4308L17.5049 10.8442L14.6049 13.8942L14.1701 13.4808ZM17.0697 10.4312L19.9697 7.36872L20.4053 7.78128L17.5053 10.8438L17.0697 10.4312ZM20.4875 7.57131L20.525 10.6213L19.925 10.6287L19.8875 7.57869L20.4875 7.57131ZM20.525 10.6227C20.5312 11.4544 20.5344 12.2212 20.5328 12.7836C20.532 13.0646 20.5301 13.296 20.5267 13.4595C20.525 13.5408 20.5229 13.608 20.5203 13.657C20.519 13.6808 20.5174 13.7049 20.515 13.7259C20.5139 13.7356 20.5119 13.7514 20.5082 13.7688C20.5064 13.7771 20.5028 13.7928 20.4961 13.8114C20.4932 13.8194 20.4749 13.8744 20.4246 13.9246L20.0004 13.5004C19.9509 13.5498 19.9333 13.6033 19.9312 13.6093C19.9253 13.6257 19.9224 13.6387 19.9214 13.6435C19.9191 13.654 19.9186 13.6604 19.9188 13.658C19.9192 13.6549 19.9201 13.6448 19.9212 13.6247C19.9233 13.5858 19.9252 13.5266 19.9268 13.4471C19.9301 13.2891 19.932 13.062 19.9328 12.782C19.9344 12.2225 19.9313 11.4581 19.925 10.6273L20.525 10.6227ZM20.725 4.15L20.3566 3.67632L20.365 3.67L20.725 4.15ZM15.7625 9.3L16.1965 9.71429L16.1959 9.7149L15.7625 9.3ZM11 14.275H10.4V14.0341L10.5666 13.8601L11 14.275ZM11 67.4625L10.5954 67.9056L10.4 67.7271V67.4625H11ZM11.2875 67.725L11.6922 67.2818L11.7022 67.2914L11.2875 67.725ZM11.575 68V68.6H11.3342L11.1603 68.4336L11.575 68ZM59.3875 68L59.8203 68.4155L59.6432 68.6H59.3875V68ZM59.6875 67.6875L59.2547 67.272L59.2631 67.2631L59.272 67.2547L59.6875 67.6875ZM60 67.3875H60.6V67.6432L60.4155 67.8203L60 67.3875ZM60 4.5375L60.4046 4.09441L60.6 4.27285V4.5375H60ZM59.7125 4.275L59.3078 4.71821L59.2978 4.70859L59.7125 4.275ZM59.425 4V3.4H59.6658L59.8397 3.56641L59.425 4ZM58 66.125H58.6V66.725H58V66.125ZM13 66.125V66.725H12.4V66.125H13ZM13 15.75H12.4V15.15H13V15.75ZM21.925 15.4875L22.2908 15.9631L21.925 15.4875ZM22.25 15.2375H22.85V15.5329L22.6158 15.7131L22.25 15.2375ZM22.25 6H21.65V5.4H22.25V6ZM58 6V5.4H58.6V6H58ZM21.0934 4.62361C21.1177 4.60471 21.1065 4.61247 21.0121 4.70721C20.9376 4.7819 20.833 4.88835 20.7008 5.02387C20.4367 5.29457 20.067 5.67669 19.6181 6.14279C18.7205 7.07473 17.5087 8.33966 16.1965 9.71428L15.3285 8.88572C16.6413 7.51033 17.8545 6.24401 18.7538 5.31033C19.2033 4.84362 19.575 4.45934 19.8418 4.18589C19.975 4.04934 20.0832 3.93929 20.1622 3.86002C20.2212 3.8008 20.3042 3.71716 20.3566 3.67638L21.0934 4.62361ZM16.1959 9.7149L11.4334 14.6899L10.5666 13.8601L15.3291 8.88509L16.1959 9.7149ZM11.6 14.275V40.8625H10.4V14.275H11.6ZM11.6 40.8625V67.4625H10.4V40.8625H11.6ZM11.4046 67.0194L11.6921 67.2819L10.8829 68.1681L10.5954 67.9056L11.4046 67.0194ZM11.7022 67.2914L11.9897 67.5664L11.1603 68.4336L10.8728 68.1586L11.7022 67.2914ZM11.575 67.4H35.4875V68.6H11.575V67.4ZM35.4875 67.4H59.3875V68.6H35.4875V67.4ZM58.9547 67.5845L59.2547 67.272L60.1203 68.103L59.8203 68.4155L58.9547 67.5845ZM59.272 67.2547L59.5845 66.9547L60.4155 67.8203L60.103 68.1203L59.272 67.2547ZM59.4 67.3875V35.9625H60.6V67.3875H59.4ZM59.4 35.9625V4.5375H60.6V35.9625H59.4ZM59.5954 4.98059L59.3079 4.71809L60.1171 3.83191L60.4046 4.09441L59.5954 4.98059ZM59.2978 4.70859L59.0103 4.43359L59.8397 3.56641L60.1272 3.84141L59.2978 4.70859ZM59.425 4.6H40.175V3.4H59.425V4.6ZM40.175 4.6C32.5685 4.6 27.7458 4.60938 24.8063 4.63279C23.3358 4.6445 22.3411 4.65971 21.7061 4.67883C21.3875 4.68842 21.167 4.6988 21.0251 4.70954C20.9529 4.71501 20.9117 4.71981 20.8924 4.72277C20.882 4.72437 20.889 4.72379 20.9059 4.71928C20.9145 4.71697 20.9335 4.71159 20.9582 4.70169C20.9788 4.69345 21.0288 4.67215 21.085 4.63L20.365 3.67C20.4688 3.59212 20.5754 3.5655 20.5957 3.56005C20.6378 3.54881 20.6781 3.54163 20.7097 3.53677C20.7742 3.52683 20.851 3.51929 20.9346 3.51296C21.1043 3.50011 21.3467 3.48911 21.67 3.47937C22.3191 3.45982 23.3251 3.44455 24.7968 3.43283C27.7417 3.40937 32.569 3.4 40.175 3.4V4.6ZM58.6 36.0625V66.125H57.4V36.0625H58.6ZM58 66.725H35.5V65.525H58V66.725ZM35.5 66.725H13V65.525H35.5V66.725ZM12.4 66.125V40.9375H13.6V66.125H12.4ZM12.4 40.9375V15.75H13.6V40.9375H12.4ZM13 15.15H17.3V16.35H13V15.15ZM17.3 15.15C19.3855 15.15 20.4375 15.1466 21.0124 15.1135C21.3021 15.0968 21.4246 15.0744 21.4809 15.058C21.5053 15.0508 21.5077 15.0515 21.5592 15.0119L22.2908 15.9631C22.1798 16.0485 22.0416 16.1445 21.8168 16.21C21.6238 16.2663 21.3885 16.2938 21.0814 16.3115C20.4625 16.3471 19.3645 16.35 17.3 16.35V15.15ZM21.5592 15.0119L21.8842 14.7619L22.6158 15.7131L22.2908 15.9631L21.5592 15.0119ZM21.65 15.2375V10.6125H22.85V15.2375H21.65ZM21.65 10.6125V6H22.85V10.6125H21.65ZM22.25 5.4H40.125V6.6H22.25V5.4ZM40.125 5.4H58V6.6H40.125V5.4ZM58.6 6V36.0625H57.4V6H58.6Z" fill="#4D0000" mask="url(#path-3-outside-1_5883_47305)"/>
</g>
<g id="Vector_2">
<mask id="path-5-outside-2_5883_47305" maskUnits="userSpaceOnUse" x="22.1484" y="8.65967" width="27" height="27" fill="black">
<rect fill="white" x="22.1484" y="8.65967" width="27" height="27"/>
<path d="M33.7512 10.0001C32.1012 10.2376 29.9137 11.0876 28.5012 12.0376C27.6762 12.6001 26.0512 14.2001 25.4262 15.0751C22.7387 18.8251 22.4012 23.9876 24.5637 28.0876C26.9262 32.5626 31.4887 35.0376 36.6012 34.6126C41.6887 34.1876 45.9012 30.6001 47.4012 25.4251C47.6512 24.5501 47.6887 24.1751 47.6762 22.1876C47.6762 20.1001 47.6512 19.8626 47.3262 18.8251C45.7262 13.5876 41.3262 10.1626 35.9512 9.9501C35.1887 9.9126 34.2012 9.9376 33.7512 10.0001ZM37.8762 12.1251C40.8637 12.8501 43.3887 14.8876 44.7512 17.6876C45.6262 19.4876 45.8012 20.2376 45.8012 22.2501C45.8012 24.2626 45.5637 25.3001 44.6762 27.0001C42.4262 31.3751 37.5387 33.5501 32.7637 32.3126C28.3762 31.1751 25.1262 26.9376 25.1262 22.3376C25.1262 17.4876 28.3012 13.3626 33.0012 12.1376C34.3137 11.7876 36.4512 11.7876 37.8762 12.1251Z"/>
<path d="M37.8762 12.1251C40.8637 12.8501 43.3887 14.8876 44.7512 17.6876C45.6262 19.4876 45.8012 20.2376 45.8012 22.2501C45.8012 24.2626 45.5637 25.3001 44.6762 27.0001C42.4262 31.3751 37.5387 33.5501 32.7637 32.3126C28.3762 31.1751 25.1262 26.9376 25.1262 22.3376C25.1262 17.4876 28.3012 13.3626 33.0012 12.1376C34.3137 11.7876 36.4512 11.7876 37.8762 12.1251Z"/>
</mask>
<path d="M33.7512 10.0001C32.1012 10.2376 29.9137 11.0876 28.5012 12.0376C27.6762 12.6001 26.0512 14.2001 25.4262 15.0751C22.7387 18.8251 22.4012 23.9876 24.5637 28.0876C26.9262 32.5626 31.4887 35.0376 36.6012 34.6126C41.6887 34.1876 45.9012 30.6001 47.4012 25.4251C47.6512 24.5501 47.6887 24.1751 47.6762 22.1876C47.6762 20.1001 47.6512 19.8626 47.3262 18.8251C45.7262 13.5876 41.3262 10.1626 35.9512 9.9501C35.1887 9.9126 34.2012 9.9376 33.7512 10.0001ZM37.8762 12.1251C40.8637 12.8501 43.3887 14.8876 44.7512 17.6876C45.6262 19.4876 45.8012 20.2376 45.8012 22.2501C45.8012 24.2626 45.5637 25.3001 44.6762 27.0001C42.4262 31.3751 37.5387 33.5501 32.7637 32.3126C28.3762 31.1751 25.1262 26.9376 25.1262 22.3376C25.1262 17.4876 28.3012 13.3626 33.0012 12.1376C34.3137 11.7876 36.4512 11.7876 37.8762 12.1251Z" fill="#4D0000"/>
<path d="M37.8762 12.1251C40.8637 12.8501 43.3887 14.8876 44.7512 17.6876C45.6262 19.4876 45.8012 20.2376 45.8012 22.2501C45.8012 24.2626 45.5637 25.3001 44.6762 27.0001C42.4262 31.3751 37.5387 33.5501 32.7637 32.3126C28.3762 31.1751 25.1262 26.9376 25.1262 22.3376C25.1262 17.4876 28.3012 13.3626 33.0012 12.1376C34.3137 11.7876 36.4512 11.7876 37.8762 12.1251Z" fill="#FF8080"/>
<path d="M37.8762 12.1251L37.9454 11.8332L37.947 11.8336L37.8762 12.1251ZM44.7512 17.6876L45.021 17.5563L45.021 17.5564L44.7512 17.6876ZM44.6762 27.0001L44.4094 26.8629L44.4103 26.8613L44.6762 27.0001ZM32.7637 32.3126L32.6885 32.603L32.6884 32.603L32.7637 32.3126ZM33.0012 12.1376L33.0785 12.4275L33.0769 12.4279L33.0012 12.1376ZM37.947 11.8336C41.0222 12.5798 43.6197 14.6767 45.021 17.5563L44.4815 17.8189C43.1577 15.0985 40.7053 13.1203 37.8055 12.4166L37.947 11.8336ZM45.021 17.5564C45.4614 18.4622 45.7358 19.1241 45.8967 19.8218C46.0576 20.5194 46.1012 21.2372 46.1012 22.2501H45.5012C45.5012 21.2505 45.4574 20.587 45.312 19.9566C45.1667 19.3261 44.9161 18.713 44.4814 17.8188L45.021 17.5564ZM46.1012 22.2501C46.1012 23.2673 46.0414 24.0557 45.8636 24.811C45.6855 25.5674 45.3926 26.2762 44.9422 27.1389L44.4103 26.8613C44.8474 26.0239 45.117 25.364 45.2795 24.6735C45.4423 23.982 45.5012 23.2453 45.5012 22.2501H46.1012ZM44.943 27.1373C42.6284 31.6379 37.5984 33.8755 32.6885 32.603L32.839 32.0222C37.4791 33.2247 42.224 31.1123 44.4095 26.8629L44.943 27.1373ZM32.6884 32.603C28.1663 31.4306 24.8262 27.0718 24.8262 22.3376H25.4262C25.4262 26.8034 28.5862 30.9196 32.839 32.0222L32.6884 32.603ZM24.8262 22.3376C24.8262 17.3515 28.093 13.1068 32.9256 11.8473L33.0769 12.4279C28.5095 13.6183 25.4262 17.6237 25.4262 22.3376H24.8262ZM32.9239 11.8477C34.2891 11.4837 36.4772 11.4854 37.9454 11.8332L37.8071 12.417C36.4253 12.0898 34.3384 12.0915 33.0785 12.4275L32.9239 11.8477ZM33.7512 10.0001L33.6658 9.40621L33.6687 9.4058L33.7512 10.0001ZM28.5012 12.0376L28.1632 11.5418L28.1664 11.5397L28.5012 12.0376ZM25.4262 15.0751L25.9145 15.4238L25.9139 15.4246L25.4262 15.0751ZM24.5637 28.0876L24.0331 28.3677L24.033 28.3675L24.5637 28.0876ZM36.6012 34.6126L36.6512 35.2105L36.6509 35.2105L36.6012 34.6126ZM47.4012 25.4251L47.9782 25.5899L47.9775 25.5921L47.4012 25.4251ZM47.6762 22.1876L47.0762 22.1914V22.1876H47.6762ZM47.3262 18.8251L46.7537 19.0045L46.7524 19.0004L47.3262 18.8251ZM35.9512 9.9501L35.9275 10.5497L35.9218 10.5494L35.9512 9.9501ZM33.8367 10.594C32.2783 10.8183 30.1757 11.6345 28.8361 12.5355L28.1664 11.5397C29.6518 10.5407 31.9242 9.65689 33.6658 9.40622L33.8367 10.594ZM28.8392 12.5333C28.4727 12.7832 27.8913 13.2929 27.3102 13.8663C26.7303 14.4384 26.1968 15.0286 25.9145 15.4238L24.938 14.7264C25.2807 14.2466 25.8722 13.5993 26.4673 13.0121C27.0612 12.4261 27.7047 11.8545 28.1632 11.5419L28.8392 12.5333ZM25.9139 15.4246C23.3601 18.9881 23.037 23.9068 25.0944 27.8077L24.033 28.3675C21.7655 24.0684 22.1174 18.6621 24.9385 14.7256L25.9139 15.4246ZM25.0943 27.8075C27.3427 32.0662 31.6746 34.4201 36.5515 34.0147L36.6509 35.2105C31.3029 35.6551 26.5098 33.059 24.0331 28.3677L25.0943 27.8075ZM36.5513 34.0147C41.3728 33.6119 45.389 30.2123 46.825 25.2581L47.9775 25.5921C46.4135 30.9879 42.0046 34.7633 36.6512 35.2105L36.5513 34.0147ZM46.8243 25.2603C47.0495 24.472 47.0887 24.169 47.0762 22.1914L48.2762 22.1838C48.2888 24.1812 48.2529 24.6282 47.9782 25.5899L46.8243 25.2603ZM47.0762 22.1876C47.0762 21.1342 47.0693 20.5873 47.0263 20.1748C46.9858 19.7856 46.9129 19.5127 46.7537 19.0045L47.8988 18.6457C48.0646 19.175 48.1667 19.5396 48.2199 20.0504C48.2707 20.5379 48.2762 21.1535 48.2762 22.1876H47.0762ZM46.7524 19.0004C45.2254 14.0019 41.0424 10.7518 35.9275 10.5496L35.9749 9.35056C41.6101 9.57335 46.2271 13.1733 47.9001 18.6498L46.7524 19.0004ZM35.9218 10.5494C35.178 10.5128 34.2319 10.5391 33.8338 10.5944L33.6687 9.4058C34.1706 9.33609 35.1994 9.3124 35.9807 9.35082L35.9218 10.5494Z" fill="#4D0000" mask="url(#path-5-outside-2_5883_47305)"/>
</g>
<g id="Vector_3">
<mask id="path-7-outside-3_5883_47305" maskUnits="userSpaceOnUse" x="27.8906" y="14.7437" width="8" height="8" fill="black">
<rect fill="white" x="27.8906" y="14.7437" width="8" height="8"/>
<path d="M31.1232 15.7377C30.1482 16.0502 29.2732 16.8627 28.9982 17.6877C28.9107 17.9502 28.8732 18.5252 28.8982 19.0002C28.9482 20.0127 29.3357 20.6877 30.2232 21.3127C30.6857 21.6252 30.8982 21.6877 31.6982 21.7252C32.5107 21.7752 32.7107 21.7377 33.3232 21.4377C35.5232 20.3627 35.5232 17.1127 33.3232 15.9752C32.7857 15.7002 31.6232 15.5752 31.1232 15.7377ZM32.6982 18.0502C33.1482 18.5002 33.2107 18.7252 32.9857 19.1627C32.4857 20.1377 31.2607 20.0752 30.8732 19.0502C30.6357 18.4502 31.2232 17.6252 31.8857 17.6252C32.1607 17.6252 32.3982 17.7502 32.6982 18.0502Z"/>
</mask>
<path d="M31.1232 15.7377C30.1482 16.0502 29.2732 16.8627 28.9982 17.6877C28.9107 17.9502 28.8732 18.5252 28.8982 19.0002C28.9482 20.0127 29.3357 20.6877 30.2232 21.3127C30.6857 21.6252 30.8982 21.6877 31.6982 21.7252C32.5107 21.7752 32.7107 21.7377 33.3232 21.4377C35.5232 20.3627 35.5232 17.1127 33.3232 15.9752C32.7857 15.7002 31.6232 15.5752 31.1232 15.7377ZM32.6982 18.0502C33.1482 18.5002 33.2107 18.7252 32.9857 19.1627C32.4857 20.1377 31.2607 20.0752 30.8732 19.0502C30.6357 18.4502 31.2232 17.6252 31.8857 17.6252C32.1607 17.6252 32.3982 17.7502 32.6982 18.0502Z" fill="#4D0000"/>
<path d="M31.1232 15.7377C30.1482 16.0502 29.2732 16.8627 28.9982 17.6877C28.9107 17.9502 28.8732 18.5252 28.8982 19.0002C28.9482 20.0127 29.3357 20.6877 30.2232 21.3127C30.6857 21.6252 30.8982 21.6877 31.6982 21.7252C32.5107 21.7752 32.7107 21.7377 33.3232 21.4377C35.5232 20.3627 35.5232 17.1127 33.3232 15.9752C32.7857 15.7002 31.6232 15.5752 31.1232 15.7377ZM32.6982 18.0502C33.1482 18.5002 33.2107 18.7252 32.9857 19.1627C32.4857 20.1377 31.2607 20.0752 30.8732 19.0502C30.6357 18.4502 31.2232 17.6252 31.8857 17.6252C32.1607 17.6252 32.3982 17.7502 32.6982 18.0502Z" stroke="#4D0000" stroke-width="0.6" mask="url(#path-7-outside-3_5883_47305)"/>
</g>
<g id="Vector_4">
<mask id="path-8-outside-4_5883_47305" maskUnits="userSpaceOnUse" x="29.875" y="16.875" width="11" height="11" fill="black">
<rect fill="white" x="29.875" y="16.875" width="11" height="11"/>
<path d="M38.6875 17.75C38.55 17.8 36.7375 19.5625 34.6625 21.65C31.075 25.25 30.875 25.475 30.875 25.9C30.875 26.5 31.2625 26.875 31.8625 26.875C32.275 26.875 32.5625 26.6125 36.1375 23.0375C38.3875 20.8 40.0125 19.075 40.0625 18.9C40.1625 18.475 39.925 17.9375 39.55 17.7625C39.1875 17.6 39.0375 17.6 38.6875 17.75Z"/>
</mask>
<path d="M38.6875 17.75C38.55 17.8 36.7375 19.5625 34.6625 21.65C31.075 25.25 30.875 25.475 30.875 25.9C30.875 26.5 31.2625 26.875 31.8625 26.875C32.275 26.875 32.5625 26.6125 36.1375 23.0375C38.3875 20.8 40.0125 19.075 40.0625 18.9C40.1625 18.475 39.925 17.9375 39.55 17.7625C39.1875 17.6 39.0375 17.6 38.6875 17.75Z" fill="#4D0000"/>
<path d="M38.6875 17.75C38.55 17.8 36.7375 19.5625 34.6625 21.65C31.075 25.25 30.875 25.475 30.875 25.9C30.875 26.5 31.2625 26.875 31.8625 26.875C32.275 26.875 32.5625 26.6125 36.1375 23.0375C38.3875 20.8 40.0125 19.075 40.0625 18.9C40.1625 18.475 39.925 17.9375 39.55 17.7625C39.1875 17.6 39.0375 17.6 38.6875 17.75Z" stroke="#4D0000" stroke-width="0.6" mask="url(#path-8-outside-4_5883_47305)"/>
</g>
<g id="Vector_5">
<mask id="path-9-outside-5_5883_47305" maskUnits="userSpaceOnUse" x="34.9961" y="21.875" width="8" height="8" fill="black">
<rect fill="white" x="34.9961" y="21.875" width="8" height="8"/>
<path d="M38.2507 22.8625C37.3757 23.15 36.6007 23.8 36.2007 24.5875C35.9007 25.175 35.9382 26.5375 36.2632 27.2125C36.7757 28.2875 37.8132 28.875 39.1382 28.875C40.0257 28.8625 40.7007 28.55 41.3382 27.825C42.9882 25.95 41.7632 22.9625 39.2882 22.8C38.8882 22.775 38.4257 22.8 38.2507 22.8625ZM39.8007 25.075C40.3757 25.6625 40.1757 26.55 39.3882 26.8625C38.5757 27.2125 37.6632 26.3125 38.0007 25.5C38.3257 24.7 39.2132 24.5 39.8007 25.075Z"/>
</mask>
<path d="M38.2507 22.8625C37.3757 23.15 36.6007 23.8 36.2007 24.5875C35.9007 25.175 35.9382 26.5375 36.2632 27.2125C36.7757 28.2875 37.8132 28.875 39.1382 28.875C40.0257 28.8625 40.7007 28.55 41.3382 27.825C42.9882 25.95 41.7632 22.9625 39.2882 22.8C38.8882 22.775 38.4257 22.8 38.2507 22.8625ZM39.8007 25.075C40.3757 25.6625 40.1757 26.55 39.3882 26.8625C38.5757 27.2125 37.6632 26.3125 38.0007 25.5C38.3257 24.7 39.2132 24.5 39.8007 25.075Z" fill="#4D0000"/>
<path d="M38.2507 22.8625C37.3757 23.15 36.6007 23.8 36.2007 24.5875C35.9007 25.175 35.9382 26.5375 36.2632 27.2125C36.7757 28.2875 37.8132 28.875 39.1382 28.875C40.0257 28.8625 40.7007 28.55 41.3382 27.825C42.9882 25.95 41.7632 22.9625 39.2882 22.8C38.8882 22.775 38.4257 22.8 38.2507 22.8625ZM39.8007 25.075C40.3757 25.6625 40.1757 26.55 39.3882 26.8625C38.5757 27.2125 37.6632 26.3125 38.0007 25.5C38.3257 24.7 39.2132 24.5 39.8007 25.075Z" stroke="#4D0000" stroke-width="0.6" mask="url(#path-9-outside-5_5883_47305)"/>
</g>
<g id="Vector_6">
<mask id="path-10-outside-6_5883_47305" maskUnits="userSpaceOnUse" x="18.75" y="39.25" width="33" height="4" fill="black">
<rect fill="white" x="18.75" y="39.25" width="33" height="4"/>
<path d="M20.0625 40.5625C19.8625 40.75 19.75 41.0125 19.75 41.25C19.75 41.4875 19.8625 41.75 20.0625 41.9375L20.3625 42.25H35.5C50.4625 42.25 50.625 42.25 50.875 42C51.2625 41.6125 51.2125 40.8375 50.8 40.5125C50.4625 40.25 50.45 40.25 35.4125 40.25H20.3625L20.0625 40.5625Z"/>
</mask>
<path d="M20.0625 40.5625C19.8625 40.75 19.75 41.0125 19.75 41.25C19.75 41.4875 19.8625 41.75 20.0625 41.9375L20.3625 42.25H35.5C50.4625 42.25 50.625 42.25 50.875 42C51.2625 41.6125 51.2125 40.8375 50.8 40.5125C50.4625 40.25 50.45 40.25 35.4125 40.25H20.3625L20.0625 40.5625Z" fill="#4D0000"/>
<path d="M20.0625 40.5625C19.8625 40.75 19.75 41.0125 19.75 41.25C19.75 41.4875 19.8625 41.75 20.0625 41.9375L20.3625 42.25H35.5C50.4625 42.25 50.625 42.25 50.875 42C51.2625 41.6125 51.2125 40.8375 50.8 40.5125C50.4625 40.25 50.45 40.25 35.4125 40.25H20.3625L20.0625 40.5625Z" stroke="#4D0000" stroke-width="1.2" mask="url(#path-10-outside-6_5883_47305)"/>
</g>
<g id="Vector_7">
<mask id="path-11-outside-7_5883_47305" maskUnits="userSpaceOnUse" x="18.75" y="47.25" width="33" height="4" fill="black">
<rect fill="white" x="18.75" y="47.25" width="33" height="4"/>
<path d="M20.0625 48.5625C19.8625 48.75 19.75 49.0125 19.75 49.25C19.75 49.4875 19.8625 49.75 20.0625 49.9375L20.3625 50.25H35.475H50.5875L50.85 49.9625C51.25 49.5375 51.225 48.85 50.8 48.5125C50.4625 48.25 50.45 48.25 35.4125 48.25H20.3625L20.0625 48.5625Z"/>
</mask>
<path d="M20.0625 48.5625C19.8625 48.75 19.75 49.0125 19.75 49.25C19.75 49.4875 19.8625 49.75 20.0625 49.9375L20.3625 50.25H35.475H50.5875L50.85 49.9625C51.25 49.5375 51.225 48.85 50.8 48.5125C50.4625 48.25 50.45 48.25 35.4125 48.25H20.3625L20.0625 48.5625Z" fill="#4D0000"/>
<path d="M20.0625 48.5625C19.8625 48.75 19.75 49.0125 19.75 49.25C19.75 49.4875 19.8625 49.75 20.0625 49.9375L20.3625 50.25H35.475H50.5875L50.85 49.9625C51.25 49.5375 51.225 48.85 50.8 48.5125C50.4625 48.25 50.45 48.25 35.4125 48.25H20.3625L20.0625 48.5625Z" stroke="#4D0000" stroke-width="1.2" mask="url(#path-11-outside-7_5883_47305)"/>
</g>
<g id="Vector_8">
<mask id="path-12-outside-8_5883_47305" maskUnits="userSpaceOnUse" x="18.75" y="55.25" width="33" height="4" fill="black">
<rect fill="white" x="18.75" y="55.25" width="33" height="4"/>
<path d="M20 56.65C19.8625 56.8 19.75 57.0875 19.75 57.3125C19.75 57.5375 19.8625 57.825 20 57.975L20.2625 58.25H35.5H50.7375L50.925 57.975C51.175 57.6125 51.175 57.0125 50.925 56.65L50.7375 56.375H35.5H20.2625L20 56.65Z"/>
</mask>
<path d="M20 56.65C19.8625 56.8 19.75 57.0875 19.75 57.3125C19.75 57.5375 19.8625 57.825 20 57.975L20.2625 58.25H35.5H50.7375L50.925 57.975C51.175 57.6125 51.175 57.0125 50.925 56.65L50.7375 56.375H35.5H20.2625L20 56.65Z" fill="#4D0000"/>
<path d="M20 56.65C19.8625 56.8 19.75 57.0875 19.75 57.3125C19.75 57.5375 19.8625 57.825 20 57.975L20.2625 58.25H35.5H50.7375L50.925 57.975C51.175 57.6125 51.175 57.0125 50.925 56.65L50.7375 56.375H35.5H20.2625L20 56.65Z" stroke="#4D0000" stroke-width="1.2" mask="url(#path-12-outside-8_5883_47305)"/>
</g>
</g>
</g>
</g>
</svg>
