<svg width="72" height="72" viewBox="0 0 72 72" fill="none" xmlns="http://www.w3.org/2000/svg">
<g id="point-of-sale">
<g id="Group">
<g id="Vector">
<path d="M12.5658 4.16429C10.4761 4.58504 8.77905 5.5107 7.18019 7.10956C5.53925 8.7505 4.64165 10.4195 4.2209 12.5934C3.92637 14.1782 3.92637 57.684 4.2209 59.2689C4.64165 61.4428 5.53925 63.1118 7.18019 64.7527C8.3583 65.9308 9.34005 66.59 10.7566 67.165C12.65 67.9224 12.6079 67.9224 28.0215 67.8663C43.8698 67.8242 42.7618 67.8943 44.9077 66.8424C47.1237 65.7625 48.7506 64.1356 49.8165 61.9477C50.6159 60.2787 50.8543 59.2408 50.9665 56.9968L51.0507 55.1455H56.6747C61.2189 55.1455 62.4671 55.1034 63.1123 54.9351C65.4825 54.318 67.1515 52.649 67.7686 50.2788C68.0771 49.0726 68.0771 22.7896 67.7686 21.5835C67.1515 19.2132 65.4825 17.5442 63.1123 16.9271C62.4671 16.7588 61.2189 16.7168 56.6747 16.7168H51.0507L50.9665 14.7813C50.8684 12.6214 50.5878 11.3732 49.8305 9.87251C48.7506 7.74069 47.1237 6.09975 45.062 5.08995C42.7618 3.95391 43.982 4.03807 27.8672 4.01002C16.3386 3.98197 13.3092 4.01002 12.5658 4.16429ZM41.6118 8.5261C42.5935 8.7505 43.8979 9.43773 44.5991 10.0969C45.2303 10.686 45.9175 11.822 46.226 12.7617C46.5206 13.6172 46.5206 13.7154 46.5206 35.9171C46.5206 57.9365 46.5206 58.217 46.2401 59.1286C45.6791 60.9519 43.9259 62.6629 42.0606 63.238C41.3173 63.4764 40.2093 63.4904 27.4464 63.4904H13.6317L12.7201 63.1538C10.8407 62.4666 9.53641 61.1903 8.77905 59.2829L8.44245 58.4414L8.40037 36.4921C8.37232 21.2749 8.4144 14.2764 8.51257 13.6593C8.73697 12.3269 9.28395 11.3031 10.3358 10.2512C11.3176 9.26943 12.1871 8.77855 13.4214 8.49805C13.9964 8.37182 17.4746 8.31572 27.4184 8.31572C38.919 8.30169 40.7703 8.32975 41.6118 8.5261ZM62.7476 21.5694C63.0421 21.8079 63.3507 22.2146 63.4489 22.4811C63.5611 22.7896 63.6172 24.0659 63.6172 26.2117L63.6312 29.4796H57.3199H51.0086V25.2721V21.0505L56.6046 21.0926L62.2006 21.1347L62.7476 21.5694ZM63.6031 41.4991C63.5611 48.9184 63.547 49.1989 63.2806 49.6757C63.1123 49.9702 62.7336 50.2928 62.3689 50.4751C61.7518 50.7977 61.6677 50.7977 56.3802 50.7977H51.0086V42.3125V33.8274H57.3199H63.6452L63.6031 41.4991Z" fill="#0B2D1F"/>
<path d="M63.6031 41.4991C63.5611 48.9184 63.547 49.1989 63.2806 49.6757C63.1123 49.9702 62.7336 50.2928 62.3689 50.4751C61.7518 50.7977 61.6677 50.7977 56.3802 50.7977H51.0086V42.3125V33.8274H57.3199H63.6452L63.6031 41.4991Z" fill="#62C89E"/>
<path d="M62.7476 21.5694C63.0421 21.8079 63.3507 22.2146 63.4489 22.4811C63.5611 22.7896 63.6172 24.0659 63.6172 26.2117L63.6312 29.4796H57.3199H51.0086V25.2721V21.0505L56.6046 21.0926L62.2006 21.1347L62.7476 21.5694Z" fill="#22885E"/>
</g>
<g id="Vector_2">
<path d="M15.5236 12.6353C14.8083 12.8597 14.2753 13.2104 13.6582 13.9116C12.5643 15.1318 12.5783 14.9635 12.5783 23.1682C12.5783 31.5692 12.5362 31.2887 13.8265 32.579C15.1729 33.9114 14.2753 33.8413 27.7394 33.7992L39.4363 33.7571L40.0254 33.4345C40.951 32.9437 41.5681 32.3266 41.9889 31.471L42.3816 30.6716V23.1682V15.6647L41.9889 14.8653C41.7645 14.4165 41.3157 13.8134 40.9651 13.5049C39.7729 12.467 40.4041 12.5091 27.4589 12.5231C21.0915 12.5231 15.7199 12.5792 15.5236 12.6353ZM38.104 23.1682V29.4795H27.515H16.9261V23.1682V16.8569H27.515H38.104V23.1682Z" fill="#0B2D1F"/>
<path d="M38.104 23.1682V29.4795H27.515H16.9261V23.1682V16.8569H27.515H38.104V23.1682Z" fill="#62C89E"/>
</g>
<path id="Vector_3" d="M12.5781 42.3124V44.4863H15.8039H19.0297V42.3124V40.1385H15.8039H12.5781V42.3124Z" fill="#0B2D1F"/>
<path id="Vector_4" d="M24.2188 42.3124V44.4863H27.5146H30.8105V42.3124V40.1385H27.5146H24.2188V42.3124Z" fill="#0B2D1F"/>
<path id="Vector_5" d="M36 42.3124V44.4863H39.2258H42.4515V42.3124V40.1385H39.2258H36V42.3124Z" fill="#0B2D1F"/>
<path id="Vector_6" d="M12.5781 52.9716V55.1455H15.8039H19.0297V52.9716V50.7977H15.8039H12.5781V52.9716Z" fill="#0B2D1F"/>
<path id="Vector_7" d="M24.2188 52.9716V55.1455H27.5146H30.8105V52.9716V50.7977H27.5146H24.2188V52.9716Z" fill="#0B2D1F"/>
<path id="Vector_8" d="M36 52.9716V55.1455H39.2258H42.4515V52.9716V50.7977H39.2258H36V52.9716Z" fill="#0B2D1F"/>
</g>
</g>
</svg>
