<svg width="72" height="72" viewBox="0 0 72 72" fill="none" xmlns="http://www.w3.org/2000/svg">
<g id="orders">
<g id="Group 1171275119">
<circle id="Ellipse 2577" cx="41.5" cy="17.5" r="10.5" fill="#22885E"/>
<g id="Group">
<path id="Vector" d="M39.7225 4.10737C37.6591 4.45753 35.2955 5.4705 33.6447 6.72108C31.1561 8.59695 29.3677 11.2482 28.5298 14.2996C28.2047 15.4501 28.1797 15.7252 28.1797 17.8637C28.1797 20.0022 28.2047 20.2773 28.5298 21.4279C29.8555 26.2676 33.5697 29.9818 38.4344 31.3325C39.585 31.6576 39.8351 31.6826 42.0486 31.6826C44.2621 31.6826 44.5122 31.6576 45.6753 31.3325C50.54 29.9818 54.2793 26.2426 55.5924 21.3904C55.8925 20.2899 55.9175 19.9647 55.9175 17.8637C55.9175 15.7628 55.8925 15.4376 55.5924 14.3371C54.1667 9.09718 49.9523 5.17036 44.6373 4.1574C43.6493 3.96981 40.723 3.9448 39.7225 4.10737ZM43.4868 7.98416C47.5011 8.62196 50.7276 11.5233 51.7531 15.4251C52.1158 16.8132 52.1158 18.9142 51.7531 20.3024C50.9027 23.5664 48.4265 26.2176 45.2251 27.3056C39.7851 29.1564 33.8323 25.9175 32.3441 20.2899C31.9814 18.9267 31.9814 16.8132 32.3441 15.4376C33.6572 10.4728 38.547 7.20881 43.4868 7.98416Z" fill="#0B2D1F"/>
<path id="Vector_2" d="M46.0531 12.537C45.853 12.6245 44.4399 14.0127 42.9392 15.6134C40.7382 17.9395 40.1629 18.4772 40.0629 18.3397C38.7623 16.5889 37.8619 15.8635 37.0115 15.8635C36.4487 15.8635 35.5983 16.3763 35.3357 16.864C35.0981 17.3267 35.0355 18.1646 35.2231 18.6398C35.2857 18.8024 36.1235 19.8654 37.099 21.0034C38.3496 22.4916 38.9624 23.1294 39.25 23.2294C39.7877 23.417 40.5381 23.4045 41.0258 23.1919C41.5886 22.9668 48.3542 15.7885 48.6543 15.0882C49.3797 13.4874 47.6914 11.8242 46.0531 12.537Z" fill="#0B2D1F"/>
<path id="Vector_3" d="M7.9844 8.96004C7.3341 9.28519 7.05898 9.7479 7.00895 10.5733C6.94642 11.4237 7.20905 11.9614 7.87185 12.3616C8.25953 12.5992 8.50965 12.6117 11.5736 12.6117C13.3744 12.6117 14.8501 12.6367 14.8501 12.6617C14.8501 12.6868 16.7385 20.6905 19.0395 30.445C21.3406 40.1995 23.2164 48.2157 23.2039 48.2657C23.1789 48.3157 22.0159 49.2412 20.6027 50.3292C19.1896 51.4047 17.8014 52.5177 17.5013 52.8053C15.6504 54.5811 15.8881 57.8451 18.0015 59.5209C18.9895 60.2963 19.4897 60.3838 22.7537 60.3838H25.605L25.48 60.6839C25.2674 61.2592 25.2049 62.4473 25.3549 63.2601C25.6926 65.1485 26.8556 66.6617 28.5939 67.4996C29.5319 67.9373 29.5694 67.9498 31.1076 67.9498C32.6458 67.9498 32.6833 67.9373 33.6213 67.4996C35.3596 66.6617 36.5226 65.1485 36.8603 63.2601C37.0103 62.4473 36.9478 61.2592 36.7352 60.6839L36.6101 60.3838H41.75H46.8899L46.8149 60.6589C46.7648 60.8215 46.7023 61.3718 46.6523 61.8845C46.4522 64.5357 48.0404 66.8993 50.6291 67.7622C51.3044 67.9873 51.6421 68.0248 52.7426 67.9873C53.9431 67.9498 54.1307 67.8998 54.9936 67.4871C56.1817 66.9118 57.2072 65.8738 57.7824 64.6733C58.1576 63.8729 58.1826 63.7479 58.1826 62.3847C58.1826 61.5969 58.1326 60.8215 58.0826 60.6589L57.9825 60.3838H60.5212C62.6847 60.3838 63.1224 60.3463 63.4851 60.1587C64.1354 59.8336 64.4105 59.3708 64.4605 58.5455C64.523 57.6951 64.2604 57.1573 63.5976 56.7571C63.1849 56.507 62.9223 56.507 41.9001 56.507C20.6528 56.507 20.6027 56.507 20.3526 56.2569C20.1775 56.0818 20.1275 55.9318 20.2026 55.8192C20.2526 55.7066 21.6157 54.6186 23.229 53.3806L26.1553 51.1295L43.3007 51.1045L60.4336 51.067L61.1465 50.7794C62.0344 50.4167 62.9848 49.5288 63.435 48.6284C63.9103 47.6904 63.9478 46.9276 64.1354 36.0476C64.2979 26.243 64.2979 26.2305 63.6852 25.1675C63.285 24.4922 62.372 23.6668 61.6467 23.3417C60.8213 22.979 59.6458 22.9665 59.1581 23.3167C57.7449 24.3547 58.02 26.3431 59.6583 26.8683C59.9084 26.9434 60.171 27.1059 60.2336 27.2185C60.3711 27.4936 60.021 46.4774 59.8709 46.8526L59.7458 47.1277L43.4008 47.1027L27.0432 47.0652L24.0793 34.2467C22.4411 27.1935 21.103 21.3658 21.103 21.2907C21.103 21.2032 21.6657 21.2407 22.8038 21.4033C24.4045 21.6284 24.517 21.6284 25.0548 21.4283C25.8427 21.1282 26.2303 20.5279 26.2303 19.615C26.2303 18.7896 25.9302 18.2268 25.3299 17.9142C25.1048 17.8016 23.8542 17.539 22.5411 17.3389C21.2405 17.1388 20.1275 16.9387 20.09 16.8887C20.04 16.8387 19.6023 15.2254 19.1145 13.312C18.6018 11.3361 18.1141 9.67287 17.9765 9.48528C17.4638 8.75994 17.2762 8.73493 12.6366 8.73493C8.85981 8.73493 8.35958 8.75994 7.9844 8.96004ZM32.0955 60.734C33.2586 61.5969 33.2461 62.935 32.0705 63.8104C31.5828 64.1731 30.6324 64.1731 30.1446 63.8104C29.0566 62.9975 28.9441 61.797 29.882 60.9216C30.5073 60.3338 31.4578 60.2588 32.0955 60.734ZM53.1553 60.5589C54.4559 61.0966 54.731 62.7474 53.6555 63.6228C53.0302 64.1481 52.3924 64.2231 51.6796 63.8854C50.2664 63.1976 50.2414 61.3468 51.6546 60.6464C52.2674 60.3338 52.5925 60.3213 53.1553 60.5589Z" fill="#0B2D1F"/>
</g>
</g>
</g>
</svg>
