<svg width="240" height="240" viewBox="0 0 240 240" fill="none" xmlns="http://www.w3.org/2000/svg">
<path d="M209.111 92.9287C212.022 93.7332 214.934 94.5361 217.847 95.3376C221.78 96.4087 222.894 98.2687 221.847 102.226C217.438 118.782 213.018 135.335 208.587 151.886C202.27 175.577 195.962 199.273 189.662 222.975C189.169 224.84 187.885 225.833 186.329 226.666H183.854C178.047 224.638 172.051 223.282 166.12 221.698C162.098 220.622 158.16 219.18 153.991 218.691C153.658 218.175 153.102 218.078 152.574 217.938C136.958 213.751 121.334 209.624 105.736 205.333C102.625 204.48 99.0691 204.444 96.8358 201.466C96.7461 199.326 97.0234 197.186 97.6558 195.14C98.3114 192.902 99.1291 190.695 99.3447 188.34C99.7523 188.376 100.157 188.436 100.558 188.52C116.596 192.829 132.616 197.206 148.678 201.409C153.174 202.586 157.531 204.424 162.26 204.635C162.411 205.566 163.276 205.524 163.867 205.691C166.571 206.469 169.296 207.18 172.027 207.864C176.591 209.006 178.405 207.955 179.602 203.435C183.444 188.967 187.274 174.495 191.094 160.02C195.651 142.886 200.225 125.757 204.816 108.631C206.222 103.4 207.414 98.0932 209.111 92.9287Z" fill="#00183D"/>
<path d="M54.7688 24.5375C54.7466 21.9352 54.7866 19.3308 54.6755 16.733C54.6133 15.2663 55.4933 14.3575 56.2422 13.333H118.391C119.615 14.1597 120.147 15.2552 120.075 16.793C119.958 19.3819 120.02 21.9797 120.007 24.5708L114.673 24.6375H108.049L66.6177 24.593H59.9822L54.7688 24.5375Z" fill="#00317E"/>
<path d="M54.7685 24.5381L59.9707 24.6159C60.0885 27.307 59.9196 29.987 60.3285 32.6936C61.1974 38.4559 66.0574 43.4181 71.7752 44.1914C77.6174 44.9803 83.4774 44.5048 89.3307 44.5336C93.7974 44.5536 98.2707 44.9025 102.744 44.2136C108.277 43.3603 112.864 39.367 114.235 33.9559C115.015 30.8736 114.509 27.7336 114.666 24.6425L120 24.5759L127.931 24.5981C131.449 26.507 132.709 29.3736 132.557 33.447C132.271 41.1759 132.477 48.9225 132.48 56.6603C130.089 56.0736 127.669 55.5848 125.315 54.8825C122.791 54.127 120.751 54.6403 119.093 56.707L52.4085 56.7381C51.7863 56.7381 51.1641 56.7181 50.5441 56.7381C48.3952 56.8248 47.5596 57.6581 47.533 59.7981C47.5063 61.9381 47.5174 64.1025 47.533 66.2536C47.5552 68.8892 48.2419 69.5559 50.8885 69.5559C64.2115 69.5559 77.5344 69.5559 90.8574 69.5559C99.0707 69.5559 107.285 69.5766 115.5 69.6181C115.51 70.0318 115.481 70.4455 115.413 70.8536C112.582 81.4892 109.773 92.1336 106.857 102.745C106.302 104.767 106.191 106.947 105.013 108.778C104.186 108.794 103.36 108.825 102.533 108.825C85.5715 108.825 68.6085 108.825 51.6441 108.825C48.9463 108.825 47.573 109.963 47.5619 112.131C47.5619 114.203 48.8952 115.325 51.5107 115.327C68.8174 115.327 86.1241 115.327 103.431 115.327C102.464 119.105 101.555 122.883 100.5 126.625C100.177 127.771 100.251 129.109 99.2574 130.02C89.5996 130.041 79.9418 130.061 70.2841 130.08C63.9374 130.091 57.5885 130.063 51.2419 130.094C48.7463 130.107 47.353 131.569 47.573 133.798C47.753 135.645 49.1285 136.587 51.713 136.589C67.0285 136.604 82.3441 136.614 97.6596 136.62C96.7707 141.636 95.2041 146.478 93.853 151.374L51.2041 151.334C51.0663 151.334 50.9263 151.334 50.7907 151.334C48.7441 151.494 47.5374 152.725 47.5574 154.629C47.5774 156.534 48.8063 157.709 50.8907 157.825C51.7174 157.871 52.5463 157.825 53.3752 157.836L91.8752 157.916C91.833 158.536 91.8885 159.18 91.733 159.769C90.0418 166.171 88.3596 172.576 86.5863 178.954C85.6018 182.496 86.9063 184.827 90.4396 185.818C93.4107 186.649 96.473 187.151 99.3463 188.334C99.1241 190.687 98.313 192.896 97.6574 195.134C97.025 197.18 96.7477 199.32 96.8374 201.46C77.2285 201.489 57.6218 201.565 38.013 201.518C33.1796 201.518 30.8085 198.323 30.8174 193.8C30.9063 139.914 30.9256 86.0277 30.8752 32.1403C30.8752 27.887 31.9241 26.2981 35.7641 24.6625L54.7685 24.5381ZM59.593 179.089C62.3485 179.089 65.1063 179.111 67.8619 179.089C70.2685 179.063 71.5596 177.916 71.5707 175.871C71.5818 173.827 70.3018 172.62 67.9063 172.609C62.327 172.578 56.747 172.578 51.1663 172.609C48.7974 172.625 47.5196 173.856 47.5574 175.929C47.5907 177.88 48.8641 179.054 51.113 179.085C53.9441 179.111 56.7685 179.089 59.593 179.089ZM59.3485 94.1003C62.2374 94.1003 65.1263 94.1314 68.0152 94.0892C70.2707 94.0581 71.533 92.887 71.5596 90.9248C71.5907 88.8492 70.3218 87.6314 67.9463 87.6159C62.3685 87.5833 56.7907 87.5833 51.213 87.6159C48.8707 87.627 47.5574 88.8559 47.5463 90.9048C47.5463 92.9048 48.8641 94.0692 51.2819 94.0936C53.9752 94.1225 56.6663 94.1003 59.3485 94.1003Z" fill="#B8D3FF"/>
<path d="M196.696 74.1575C196.078 73.433 195.14 73.6997 194.385 73.4908C181.898 70.0597 169.393 66.6997 156.889 63.333C152.551 62.2397 148.191 61.233 144 59.653C140.071 59.0175 136.282 57.8353 132.491 56.6686C130.1 56.0819 127.68 55.593 125.327 54.8908C122.802 54.1353 120.762 54.6486 119.105 56.7153C117.896 61.0241 117.058 65.4397 115.487 69.6464C115.497 70.06 115.468 70.4738 115.4 70.8819C112.569 81.5175 109.76 92.1619 106.845 102.773C106.289 104.795 106.178 106.975 105 108.806C104.94 111.102 104.056 113.195 103.42 115.349C102.453 119.126 101.545 122.904 100.489 126.646C100.167 127.793 100.24 129.131 99.2468 130.042C99.2201 132.364 98.5379 134.529 97.649 136.642C96.7601 141.657 95.1935 146.5 93.8424 151.395C93.2801 153.617 92.9979 155.906 91.8668 157.944C91.8246 158.564 91.8801 159.209 91.7246 159.797C90.0335 166.2 88.3513 172.604 86.5779 178.982C85.5935 182.524 86.8979 184.855 90.4313 185.846C93.4024 186.677 96.4646 187.18 99.3379 188.362C99.7455 188.398 100.151 188.458 100.551 188.542C116.589 192.851 132.609 197.229 148.671 201.431C153.167 202.609 157.525 204.446 162.253 204.657C164.489 203.937 165.402 202.149 165.96 200.053C170.91 181.499 175.858 162.949 180.805 144.402C186.596 122.652 192.38 100.899 198.158 79.1419C198.685 77.1597 197.66 75.6775 196.696 74.1575ZM191.842 92.7797C190.216 98.7797 188.662 104.811 186.991 110.804C186.198 113.653 185.451 113.946 182.625 113.184C164.759 108.366 146.892 103.561 129.022 98.7686C126.029 97.9641 125.48 97.1797 126.247 94.2308C127.802 88.2753 129.385 82.333 130.967 76.3886C131.345 74.9753 131.951 73.7753 133.722 73.7219C137.076 74.5953 140.476 75.453 143.862 76.3686C159.065 80.4753 174.271 84.5886 189.48 88.7086C191.947 89.3753 192.5 90.3486 191.842 92.7797Z" fill="#0053D6"/>
<path d="M163.982 160.337C168.62 145.84 161.259 130.53 147.54 126.141C133.821 121.752 118.941 129.947 114.303 144.444C109.665 158.941 117.026 174.251 130.745 178.64C144.464 183.029 159.345 174.834 163.982 160.337Z" fill="#B8D3FF"/>
<path d="M127.249 148.137C131.511 136.106 142.829 128.757 154.36 129.562C152.507 128.245 150.482 127.188 148.342 126.422C134.787 121.564 119.676 129.257 114.587 143.604C109.498 157.951 116.378 173.52 129.938 178.377C132.078 179.147 134.314 179.618 136.582 179.777C127.136 173.06 122.987 160.171 127.249 148.137Z" fill="#B8D3FF"/>
<path d="M136.054 161.134C135.205 160.827 134.51 160.199 134.12 159.385L129.231 149.756C128.809 148.868 128.737 147.854 129.03 146.916C129.323 145.978 129.959 145.185 130.811 144.696C131.22 144.46 131.672 144.312 132.141 144.26C132.609 144.208 133.083 144.254 133.533 144.394C133.983 144.534 134.399 144.766 134.754 145.075C135.11 145.384 135.398 145.763 135.6 146.189L139.009 152.794L150.289 147.607C150.716 147.407 151.179 147.297 151.65 147.285C152.121 147.273 152.589 147.358 153.026 147.535C153.462 147.713 153.857 147.978 154.186 148.316C154.515 148.653 154.77 149.055 154.936 149.496C155.291 150.412 155.287 151.429 154.924 152.343C154.562 153.256 153.867 153.999 152.98 154.422L138.651 161.009C137.836 161.391 136.902 161.435 136.054 161.134Z" fill="#0053D6"/>
<path d="M162.26 204.654C164.495 203.934 165.409 202.145 165.966 200.049C170.912 181.498 175.858 162.949 180.804 144.403C186.595 122.653 192.38 100.9 198.158 79.1427C198.684 77.1604 197.66 75.6782 196.695 74.1582C200.655 75.1893 204.644 76.1204 208.566 77.2849C211.098 78.036 212.044 80.4315 211.424 83.3427C210.738 86.5604 209.462 89.6315 209.118 92.9293C207.413 98.0938 206.229 103.4 204.815 108.649C200.23 125.775 195.656 142.905 191.093 160.038C187.241 174.508 183.411 188.98 179.602 203.454C178.404 207.974 176.591 209.025 172.026 207.883C169.295 207.198 166.571 206.487 163.866 205.709C163.275 205.54 162.411 205.585 162.26 204.654Z" fill="#0053D6"/>
<path d="M156.889 63.333C152.551 62.2396 148.191 61.233 144 59.653C144.026 50.9307 143.906 42.2041 144.146 33.4863C144.257 29.4863 143.157 26.4796 139.535 24.6174C144.26 24.3241 148.931 24.2374 152.708 27.8552C155.362 30.3952 156.951 33.4241 156.946 37.1774C156.934 45.89 156.915 54.6085 156.889 63.333Z" fill="#00317E"/>
<path d="M139.531 24.6088C143.154 26.471 144.254 29.4688 144.142 33.4777C143.902 42.1954 144.022 50.9221 143.996 59.6443C140.067 59.0088 136.278 57.8265 132.487 56.6599C132.487 48.9221 132.278 41.1754 132.565 33.4465C132.716 29.3732 131.454 26.5065 127.938 24.5977L139.531 24.6088Z" fill="#B8D3FF"/>
<path d="M35.7776 24.6778C31.9331 26.3133 30.8887 27.9022 30.8887 32.1556C30.8887 86.043 30.8694 139.93 30.8309 193.816C30.8309 198.338 33.1931 201.522 38.0265 201.533C57.6353 201.58 77.242 201.504 96.8509 201.476C99.0709 204.444 102.629 204.489 105.735 205.333C121.324 209.616 136.958 213.742 152.573 217.929C153.098 218.069 153.658 218.167 153.991 218.682C150.991 222.042 147.26 223.391 142.764 223.382C105.84 223.302 68.9139 223.274 31.9865 223.298C23.2131 223.298 17.782 217.851 17.7798 209.044C17.7798 152.267 17.7798 95.4882 17.7798 38.7089C17.7798 29.9445 23.1331 24.5689 31.8353 24.5645C33.1487 24.5733 34.4576 24.64 35.7776 24.6778Z" fill="#00317E"/>
<path d="M66.6066 24.6064L108.038 24.6509C108.038 26.5242 107.911 28.4087 108.062 30.2687C108.444 35.0509 104.3 37.9998 100.493 37.9553C91.7311 37.8331 82.9644 37.7664 74.2066 37.9842C70.2355 38.082 66.1644 34.2753 66.5689 30.2242C66.7555 28.3687 66.6044 26.4798 66.6066 24.6064Z" fill="#B8D3FF"/>
<path d="M66.6068 24.6064C66.6068 26.4798 66.7557 28.3687 66.569 30.2242C66.1646 34.2753 70.2357 38.082 74.2068 37.9842C82.9646 37.762 91.7312 37.8331 100.493 37.9553C104.3 38.0087 108.449 35.0509 108.062 30.2687C107.911 28.4087 108.038 26.5242 108.038 24.6509H114.662C114.505 27.762 115.011 30.8731 114.231 33.9642C112.86 39.3753 108.273 43.3687 102.74 44.222C98.2668 44.9109 93.7935 44.562 89.3268 44.542C83.4779 44.5131 77.6179 44.9864 71.7712 44.1998C66.0535 43.4264 61.1935 38.4642 60.3246 32.702C59.9157 29.9953 60.0846 27.3153 59.9668 24.6242L66.6068 24.6064Z" fill="#00317E"/>
<path d="M119.111 56.7021C117.902 61.011 117.064 65.4266 115.493 69.6333C107.277 69.611 99.0629 69.5903 90.8511 69.571C77.5281 69.5607 64.2074 69.5555 50.8889 69.5555C48.2489 69.5555 47.5711 68.8688 47.5555 66.2444C47.5422 64.0933 47.5333 61.9399 47.5555 59.7888C47.5777 57.6377 48.4178 56.8155 50.5666 56.7288C51.1866 56.7044 51.8089 56.7288 52.4311 56.7288L119.111 56.7021Z" fill="#00317E"/>
<path d="M105.007 108.793C104.947 111.089 104.062 113.182 103.427 115.335C86.1201 115.335 68.8134 115.335 51.5068 115.335C48.889 115.344 47.5557 114.222 47.5557 112.151C47.5668 109.982 48.9401 108.846 51.6379 108.844C68.6008 108.844 85.5638 108.844 102.527 108.844C103.353 108.84 104.18 108.809 105.007 108.793Z" fill="#00317E"/>
<path d="M99.2534 130.029C99.2267 132.352 98.5445 134.516 97.6556 136.629C82.3401 136.62 67.0245 136.61 51.709 136.598C49.1267 136.598 47.749 135.654 47.569 133.807C47.3467 131.585 48.7423 130.116 51.2379 130.103C57.5845 130.072 63.9334 130.103 70.2801 130.089C79.9379 130.076 89.5956 130.056 99.2534 130.029Z" fill="#00317E"/>
<path d="M93.8493 151.382C93.2871 153.604 93.0049 155.891 91.8737 157.931L53.3737 157.851C52.5449 157.851 51.716 157.886 50.8893 157.84C48.8071 157.724 47.5782 156.526 47.556 154.644C47.5337 152.762 48.7426 151.509 50.7893 151.349C50.9249 151.338 51.0649 151.349 51.2026 151.349L93.8493 151.382Z" fill="#00317E"/>
<path d="M59.5932 179.089C56.7687 179.089 53.9443 179.118 51.1198 179.089C48.8643 179.058 47.591 177.885 47.5643 175.933C47.5265 173.86 48.8043 172.629 51.1732 172.613C56.7539 172.579 62.3339 172.579 67.9132 172.613C70.3087 172.613 71.5887 173.816 71.5776 175.876C71.5665 177.936 70.2754 179.067 67.8687 179.093C65.111 179.111 62.3487 179.089 59.5932 179.089Z" fill="#00317E"/>
<path d="M59.349 94.0997C56.6624 94.0997 53.9757 94.122 51.2913 94.0997C48.8735 94.0753 47.5468 92.9153 47.5557 90.9109C47.5668 88.862 48.889 87.6331 51.2224 87.622C56.8002 87.5909 62.3779 87.5909 67.9557 87.622C70.3313 87.6375 71.6002 88.8553 71.569 90.9309C71.5424 92.8931 70.2802 94.0642 68.0246 94.0953C65.1335 94.1309 62.2402 94.0997 59.349 94.0997Z" fill="#00317E"/>
<path d="M133.722 73.7246C137.075 74.5979 140.475 75.4557 143.862 76.3713C159.065 80.4765 174.271 84.5891 189.48 88.7091C191.946 89.3757 192.5 90.3491 191.842 92.7802C190.215 98.7802 188.662 104.811 186.991 110.805C186.198 113.653 185.451 113.947 182.624 113.185C164.759 108.367 146.892 103.562 129.022 98.7691C126.029 97.9646 125.48 97.1802 126.246 94.2313C127.802 88.2757 129.384 82.3335 130.966 76.3891C131.344 74.9757 131.951 73.7779 133.722 73.7246Z" fill="#B8D3FF"/>
</svg>
