<svg width="72" height="72" viewBox="0 0 72 72" fill="none" xmlns="http://www.w3.org/2000/svg">
<g id="attendance-change-request">
<g id="Group 1171275529">
<g id="Ellipse 2615">
<mask id="path-1-outside-1_6358_46337" maskUnits="userSpaceOnUse" x="47.3086" y="48.2769" width="22" height="22" fill="black">
<rect fill="white" x="47.3086" y="48.2769" width="22" height="22"/>
<path d="M67.0317 59.1384C67.0317 64.0325 63.0642 67.9999 58.1701 67.9999C53.276 67.9999 49.3086 64.0325 49.3086 59.1384C49.3086 54.2443 53.276 50.2769 58.1701 50.2769C63.0642 50.2769 67.0317 54.2443 67.0317 59.1384Z"/>
</mask>
<path d="M67.0317 59.1384C67.0317 64.0325 63.0642 67.9999 58.1701 67.9999C53.276 67.9999 49.3086 64.0325 49.3086 59.1384C49.3086 54.2443 53.276 50.2769 58.1701 50.2769C63.0642 50.2769 67.0317 54.2443 67.0317 59.1384Z" fill="#22885E"/>
<path d="M67.0317 59.1384C67.0317 64.0325 63.0642 67.9999 58.1701 67.9999C53.276 67.9999 49.3086 64.0325 49.3086 59.1384C49.3086 54.2443 53.276 50.2769 58.1701 50.2769C63.0642 50.2769 67.0317 54.2443 67.0317 59.1384Z" stroke="#0B2D1F" stroke-width="3.41053" mask="url(#path-1-outside-1_6358_46337)"/>
</g>
<g id="Group 1171275362">
<g id="Group">
<path id="Vector" d="M58.2097 55.3089C58.4593 55.3095 58.707 55.3342 58.9517 55.3824C59.1969 55.43 59.4348 55.501 59.6658 55.5949C59.8969 55.6888 60.1169 55.8037 60.3257 55.9397C60.5345 56.0756 60.7285 56.23 60.907 56.403H59.3125V57.4972H62.0704C62.1433 57.4972 62.2137 57.483 62.2811 57.4558C62.349 57.428 62.4083 57.3884 62.4602 57.3372C62.5121 57.2859 62.5517 57.2266 62.5801 57.1592C62.6079 57.0925 62.6221 57.0227 62.6221 56.9504V54.2153H61.5187V55.4843C61.342 55.3255 61.1542 55.1804 60.9565 55.0481C60.7582 54.9166 60.5518 54.7992 60.3362 54.6972C60.1212 54.5953 59.9 54.5088 59.672 54.4384C59.4447 54.3679 59.213 54.3142 58.977 54.2765C58.7416 54.2394 58.5044 54.219 58.2659 54.2159C58.0274 54.2122 57.7902 54.2265 57.5535 54.2567C57.3169 54.2876 57.084 54.3352 56.8542 54.3994C56.625 54.4637 56.4007 54.544 56.1832 54.6398C55.9651 54.7362 55.7551 54.8474 55.5537 54.974C55.3522 55.1 55.1607 55.2403 54.9791 55.3941C54.7981 55.548 54.6288 55.7135 54.4719 55.8921C54.3143 56.07 54.171 56.2585 54.0412 56.4568C53.9115 56.6551 53.7972 56.8621 53.6977 57.0771C53.5983 57.2921 53.5149 57.5132 53.4475 57.74C53.3802 57.9673 53.3295 58.1978 53.2955 58.4319C53.2622 58.6661 53.2455 58.9015 53.2461 59.1381H54.3489C54.3489 59.0127 54.3557 58.8879 54.3681 58.7631C54.3804 58.6383 54.399 58.5141 54.4237 58.3912C54.449 58.2682 54.4793 58.1471 54.5163 58.0273C54.5528 57.9074 54.5954 57.7894 54.6442 57.6733C54.6924 57.5577 54.7468 57.4447 54.8061 57.3341C54.866 57.2235 54.9309 57.116 55.0013 57.0122C55.0711 56.9078 55.1465 56.8071 55.2268 56.7101C55.3071 56.6131 55.3918 56.5204 55.4814 56.4321C55.5703 56.3431 55.6642 56.2591 55.7619 56.1794C55.8595 56.1003 55.9608 56.0255 56.0658 55.9557C56.1709 55.8859 56.279 55.8217 56.3908 55.7623C56.502 55.7037 56.6163 55.6499 56.7331 55.6017C56.8498 55.5535 56.9685 55.5115 57.0896 55.4751C57.2106 55.4386 57.333 55.4077 57.4565 55.3836C57.5807 55.3589 57.7055 55.3404 57.8316 55.328C57.957 55.3157 58.083 55.3095 58.2097 55.3089Z" fill="#0B2D1F"/>
</g>
<path id="Vector_2" d="M62.0694 59.1379C62.0694 59.3251 62.0559 59.5117 62.0287 59.6971C62.0009 59.8824 61.9601 60.0653 61.9057 60.2445C61.8507 60.4242 61.7834 60.5985 61.7031 60.7684C61.6228 60.9376 61.5301 61.1007 61.4257 61.2571C61.3213 61.4127 61.2057 61.561 61.0797 61.7C60.9531 61.8397 60.8171 61.9688 60.6719 62.088C60.5261 62.2079 60.3723 62.316 60.2111 62.413C60.0492 62.5106 59.8811 62.5952 59.7069 62.6681C59.5333 62.7404 59.3541 62.8004 59.1713 62.8467C58.9884 62.8937 58.803 62.9264 58.6152 62.9462C58.4268 62.9659 58.2384 62.9715 58.0499 62.9635C57.8609 62.956 57.6737 62.9344 57.4883 62.8992C57.3024 62.864 57.1207 62.8152 56.9422 62.754C56.7636 62.6922 56.5906 62.6181 56.4232 62.531C56.2558 62.4439 56.0958 62.3456 55.9432 62.2351C55.7906 62.1251 55.6466 62.004 55.5113 61.873H57.1059V60.7789H54.348C54.2751 60.7789 54.2046 60.7931 54.1373 60.8209C54.0693 60.8487 54.01 60.8882 53.9581 60.9395C53.9062 60.9908 53.8667 61.0495 53.8383 61.1168C53.8105 61.1835 53.7969 61.2533 53.7969 61.3262V64.0613H54.8997V62.7917C55.0764 62.9505 55.2642 63.0963 55.4619 63.2279C55.6602 63.3595 55.8666 63.4769 56.0822 63.5788C56.2972 63.6814 56.5184 63.7672 56.7463 63.8377C56.9737 63.9081 57.2054 63.9625 57.4414 63.9995C57.6768 64.0366 57.914 64.057 58.1525 64.0601C58.391 64.0638 58.6282 64.0502 58.8648 64.0193C59.1015 63.9884 59.3344 63.9409 59.5642 63.8766C59.7934 63.8123 60.0177 63.7326 60.2351 63.6363C60.4532 63.5399 60.6633 63.4287 60.8647 63.302C61.0667 63.176 61.2576 63.0357 61.4393 62.8819C61.6203 62.7281 61.7896 62.5625 61.9471 62.3846C62.104 62.206 62.2474 62.0182 62.3771 61.8193C62.5069 61.6209 62.6212 61.414 62.7206 61.199C62.8201 60.984 62.9035 60.7628 62.9708 60.5361C63.0382 60.3093 63.0888 60.0783 63.1228 59.8441C63.1562 59.61 63.1729 59.3746 63.1723 59.1379H62.0694Z" fill="#0B2D1F"/>
</g>
<g id="Group 1171275528">
<path id="Vector 846" d="M29.6135 48.7999L32.0751 45.3538H33.552L36.0135 48.3076V49.2922L34.0443 51.7538L36.0135 65.5384H28.6289L31.0904 51.7538L29.6135 48.7999Z" fill="#22885E"/>
<g id="Group_2">
<path id="Vector_3" d="M34.4048 4.00126C35.3343 4.24214 36.2965 4.39852 37.1882 4.73777C40.0989 5.84505 42.1583 7.86666 43.4005 10.7307C43.4989 10.959 43.76 11.2036 43.9945 11.2717C46.4298 11.983 47.8625 13.8155 47.8927 16.3642C47.9142 18.15 47.9066 19.9358 47.8902 21.7215C47.8864 22.1264 47.9974 22.4051 48.3039 22.7002C49.6974 24.042 50.2498 25.6866 49.7592 27.5758C49.2459 29.5482 47.9482 30.7828 45.9644 31.2986C45.7324 31.3592 45.3982 31.5105 45.3402 31.6921C44.5923 34.0404 43.0323 35.806 41.3033 37.4631C40.4545 38.2765 39.636 39.1228 38.8037 39.9538C37.8175 40.9388 36.661 41.5845 35.241 41.6047C33.4981 41.6299 31.7552 41.6274 30.0135 41.6021C28.7133 41.5832 27.6022 41.0498 26.6879 40.1531C25.249 38.7419 23.8365 37.3017 22.4265 35.8602C21.3369 34.7466 20.5676 33.4287 20.0695 31.957C19.9332 31.5559 19.7201 31.3693 19.2938 31.2684C17.3239 30.8005 16.0451 29.5545 15.5256 27.6111C15.0224 25.7257 15.5571 24.0748 16.9431 22.7242C17.2609 22.4139 17.392 22.1276 17.3857 21.6951C17.3517 19.4881 17.3176 17.2773 17.9722 15.1333C19.6054 9.79116 23.0924 6.27384 28.427 4.62805C29.4221 4.32159 30.4751 4.2043 31.5017 4C32.4715 4.00126 33.4375 4.00126 34.4048 4.00126ZM21.5248 23.327C21.5248 25.3915 21.4403 27.3651 21.5488 29.3287C21.6572 31.2772 22.5034 32.9823 23.839 34.3985C25.1935 35.8337 26.6173 37.2046 28.0096 38.6057C28.7007 39.3018 29.5356 39.6045 30.5117 39.5932C31.8561 39.5768 33.203 39.5528 34.5461 39.5995C35.7454 39.6411 36.7026 39.2262 37.5261 38.3711C38.5754 37.2815 39.6423 36.207 40.7358 35.1628C42.8973 33.097 43.9252 30.5836 43.847 27.5972C43.8142 26.3575 43.823 25.1165 43.8508 23.8781C43.8609 23.4178 43.736 23.2311 43.2542 23.1378C41.2843 22.7544 39.66 21.7644 38.4089 20.188C38.0773 19.7693 37.7897 19.3153 37.4707 18.8625C36.9435 19.2661 36.4744 19.6545 35.9775 20.0026C32.6064 22.3609 28.8394 23.39 24.7483 23.3308C23.6801 23.3131 22.6106 23.327 21.5248 23.327ZM19.4641 21.2852C21.5689 21.2852 23.6044 21.3142 25.6386 21.2789C29.8471 21.2083 33.5031 19.734 36.5929 16.8687C37.0305 16.4626 37.4644 16.0527 37.9915 15.5584C39.5982 18.9016 41.5807 21.6585 45.8598 21.2928C45.8598 19.6747 45.8749 18.0403 45.856 16.4071C45.8333 14.4485 44.6465 13.2152 42.683 13.1609C42.1558 13.1471 41.9843 12.9591 41.8342 12.49C40.7156 9.01177 38.3963 6.73794 34.7617 6.19943C30.349 5.54616 26.4294 6.78586 23.2412 9.99042C20.1199 13.1294 19.1249 16.9998 19.4641 21.2852ZM19.3796 29.161C19.3796 27.2895 19.3796 25.4583 19.3796 23.6082C18.2181 23.9638 17.4211 25.0648 17.387 26.2894C17.3504 27.5795 18.1336 28.7272 19.3796 29.161ZM45.8762 29.1597C47.1499 28.7486 47.9835 27.4812 47.8852 26.1734C47.7931 24.9438 46.9027 23.8024 45.8762 23.646C45.8762 25.4722 45.8762 27.292 45.8762 29.1597Z" fill="#0B2D1F"/>
</g>
<path id="Subtract" fill-rule="evenodd" clip-rule="evenodd" d="M5.25228 65.5006C5.16886 66.0021 5.08494 66.5066 5 67.0155H48.0024C47.1855 66.4403 46.4517 65.755 45.8226 64.9812H37.5841C37.3293 63.1929 37.0746 61.4122 36.8198 59.6315C36.7305 59.0083 36.6435 58.3848 36.5565 57.7613C36.3387 56.2007 36.1209 54.6402 35.8677 53.0849C35.7516 52.3749 35.7832 51.7746 36.2738 51.2172C36.4392 51.0295 36.5736 50.8141 36.7201 50.5793C36.7901 50.4669 36.863 50.3501 36.9434 50.2297C37.2578 50.6021 37.564 50.9651 37.8713 51.3294C38.3184 51.8594 38.7677 52.392 39.2475 52.9601C40.0105 49.9031 40.7445 46.9659 41.4961 43.958C41.994 44.1241 42.4841 44.2867 42.9691 44.4475C43.9019 44.7568 44.8154 45.0598 45.7273 45.3693C46.1575 45.5156 46.5893 45.6583 47.0212 45.801C48.1638 46.1786 49.3068 46.5563 50.4225 47.0012C50.8773 47.1825 51.3077 47.3879 51.7127 47.6171C52.5208 47.4247 53.3639 47.3228 54.2308 47.3228C54.3989 47.3228 54.5662 47.3267 54.7325 47.3342C53.6794 46.3503 52.3895 45.5621 50.8538 44.9846C48.964 44.275 47.0414 43.6505 45.1191 43.0261C44.4039 42.7938 43.6888 42.5615 42.9755 42.3249L42.9232 42.3075C41.8793 41.9619 41.8727 41.9597 41.7648 40.8418C41.7615 40.803 41.7457 40.7653 41.7268 40.7198C41.7168 40.6958 41.7059 40.6696 41.6954 40.64H39.7886C39.8626 42.4363 39.4085 44.1084 38.9428 45.8231C38.6951 46.7351 38.4441 47.6593 38.2676 48.6205C37.9679 48.2633 37.6676 47.929 37.3761 47.6045C36.7525 46.9102 36.1692 46.2608 35.7188 45.5294C34.7326 43.9278 33.4097 43.3539 31.629 43.6831C31.3503 43.7348 31.0186 43.8546 30.8433 44.0577C30.0699 44.951 29.3154 45.8602 28.5607 46.7696C28.2287 47.1696 27.8967 47.5697 27.5631 47.9685C27.4645 48.0862 27.3572 48.1973 27.2212 48.338C27.1518 48.4098 27.0749 48.4893 26.988 48.5814C26.8191 47.5917 26.5599 46.6421 26.3039 45.7046C25.8469 44.0306 25.4003 42.3949 25.4973 40.6375H23.5589C23.5517 40.6902 23.541 40.7397 23.5309 40.7866C23.5114 40.8777 23.4939 40.9589 23.5072 41.0347C23.6296 41.7271 23.3054 42.0108 22.6597 42.2151C20.116 43.0185 17.5862 43.8634 15.0626 44.7273C10.7659 46.1991 8.10493 49.1413 7.26375 53.6285C6.88159 55.6684 6.54474 57.7165 6.20786 59.7648C6.06781 60.6164 5.92775 61.4679 5.78443 62.319C5.60585 63.375 5.43019 64.431 5.25228 65.5006ZM23.6052 44.0412C23.6594 44.0288 23.7207 44.0147 23.7923 43.9971C24.53 46.9507 25.2615 49.8778 26.0346 52.9676C26.5245 52.3838 26.9881 51.832 27.4525 51.2792C27.7424 50.9341 28.0327 50.5886 28.3298 50.2347C28.4399 50.3986 28.5475 50.5573 28.6527 50.7127C28.9324 51.1253 29.1958 51.5141 29.4459 51.9108C29.5153 52.0205 29.5216 52.1945 29.5027 52.332C28.9087 56.5316 28.3084 60.7312 27.7018 64.9724H16.4839C16.6635 63.1583 16.8422 61.3615 17.0216 59.5574C17.1395 58.3715 17.2578 57.1824 17.3768 55.983L17.307 55.9756C16.6663 55.9078 16.0661 55.8442 15.3931 55.7737C15.3773 55.864 15.3606 55.9502 15.3444 56.0336C15.3114 56.204 15.2805 56.3632 15.2644 56.524C15.2227 56.9484 15.1807 57.3727 15.1388 57.797C14.9224 59.9868 14.7061 62.1762 14.5128 64.3683C14.4686 64.8677 14.3097 65.0443 13.7902 65.0367C12.4692 65.0167 11.1477 65.0195 9.82643 65.0224C9.23529 65.0236 8.64419 65.0249 8.05322 65.0241C7.93086 65.0241 7.8085 65.0153 7.66474 65.005C7.5907 64.9997 7.51098 64.9939 7.42265 64.9888C7.48942 64.5731 7.55494 64.1615 7.61999 63.7528C7.76136 62.8647 7.90055 61.9903 8.04565 61.1171C8.21488 60.0966 8.38669 59.0764 8.55851 58.056C8.76698 56.818 8.97547 55.5799 9.17942 54.341C9.81251 50.5033 11.9665 47.9458 15.6402 46.6871C17.505 46.0481 19.3764 45.4271 21.2477 44.8062C21.9468 44.5742 22.6459 44.3423 23.3445 44.1094C23.4211 44.0836 23.4999 44.0654 23.6052 44.0412ZM35.492 64.7999C35.4959 64.8527 35.5002 64.9118 35.5057 64.98H35.4712C33.554 64.98 31.7057 64.98 29.7764 64.9812C29.7839 64.9024 29.7902 64.8276 29.7963 64.7556C29.8084 64.6111 29.8196 64.4778 29.8382 64.3456C29.9311 63.6943 30.024 63.043 30.1168 62.3916C30.6022 58.9869 31.0877 55.5818 31.5874 52.1794C31.6542 51.7292 31.5722 51.3773 31.3061 51.0103C31.0365 50.6391 30.7846 50.2555 30.5329 49.8722C30.3348 49.5705 30.1368 49.269 29.9302 48.9736C29.7461 48.71 29.7221 48.5221 29.9517 48.261C30.3511 47.805 30.7366 47.337 31.122 46.869C31.3377 46.6071 31.5534 46.3453 31.7715 46.0856C32.228 45.5408 33.0478 45.5382 33.4967 46.0755C33.6404 46.2476 33.7851 46.4192 33.9297 46.5907C34.3944 47.1418 34.8594 47.6932 35.2951 48.2673C35.4137 48.4225 35.4288 48.7781 35.3317 48.9521C35.0278 49.5007 34.6986 50.0544 34.2837 50.521C33.6203 51.2663 33.6569 52.0672 33.7956 52.9764C34.2293 55.8122 34.6321 58.6521 35.0349 61.492C35.1779 62.5004 35.321 63.5089 35.4654 64.5171C35.4775 64.6001 35.4836 64.6849 35.492 64.7999Z" fill="#0B2D1F"/>
</g>
</g>
</g>
</svg>
