<svg width="36" height="36" viewBox="0 0 36 36" fill="none" xmlns="http://www.w3.org/2000/svg">
<g id="cash-advance">
<path id="Vector" d="M15.6343 6.78864C15.5314 6.8915 15.5314 6.94293 15.48 7.14864C15.4286 7.66293 15.5314 7.92007 15.84 7.92007C16.0972 7.92007 16.2 7.81721 16.2 7.30293C16.2 6.8915 16.2 6.84007 16.0972 6.73721C15.9429 6.63436 15.7886 6.63436 15.6343 6.78864ZM12.4457 7.6115C12.2914 7.76578 12.2914 7.92007 12.4457 8.22864C12.7029 8.64007 12.7543 8.6915 13.0114 8.6915C13.1143 8.6915 13.2686 8.53721 13.2686 8.38293C13.2686 8.22864 12.96 7.66293 12.8057 7.56007C12.7543 7.50864 12.5486 7.50864 12.4457 7.6115ZM18.8743 7.6115C18.72 7.66293 18.4114 8.22864 18.4114 8.43435C18.4114 8.64007 18.5657 8.79436 18.8229 8.74293C18.9772 8.74293 19.0286 8.6915 19.2343 8.28007C19.44 7.92007 19.44 7.81721 19.2857 7.6115C19.1829 7.56007 19.0286 7.50864 18.8743 7.6115ZM15.1714 9.46293C13.7314 9.7715 12.6 10.6972 12.1372 12.0344C11.9314 12.5486 11.88 13.0115 11.9314 13.6286C11.9829 14.6572 12.3943 15.5829 13.2172 16.3544C13.5772 16.7144 13.8857 16.9201 14.4 17.1258C15.3257 17.5372 16.5086 17.5372 17.4343 17.1258C18.5657 16.6629 19.44 15.7372 19.8 14.5544C19.9029 14.1944 19.9029 14.0915 19.9029 13.4229C19.9029 12.8058 19.9029 12.6515 19.8 12.3429C19.3886 10.9544 18.36 9.92578 17.0229 9.51436C16.4572 9.4115 15.6343 9.36007 15.1714 9.46293ZM16.0972 11.4172C16.1486 11.4686 16.2 11.5715 16.2 11.6229C16.2 11.7258 16.2514 11.7258 16.4572 11.7772C16.6114 11.7772 16.7657 11.8286 16.8172 11.8801C16.92 11.9829 16.92 12.2401 16.8172 12.3944C16.7143 12.4972 16.6629 12.4972 16.2 12.4972C15.7372 12.4972 15.6857 12.5486 15.6343 12.6001C15.5314 12.7544 15.5314 12.8572 15.6857 12.9601C15.7886 13.0115 15.8914 13.0629 15.9943 13.0629C16.1486 13.0629 16.2514 13.1144 16.4057 13.1658C17.1257 13.5258 17.0743 14.5544 16.4057 14.9144C16.2514 14.9658 16.2514 15.0172 16.2514 15.1201C16.2514 15.3258 16.0972 15.4801 15.9429 15.4801C15.7372 15.4801 15.6343 15.3772 15.5829 15.1715C15.5829 15.0686 15.5314 15.0172 15.3257 15.0172C15.1714 15.0172 15.12 15.0172 14.9657 14.8629C14.8629 14.7601 14.8114 14.7086 14.8629 14.5544C14.9143 14.2972 14.9657 14.2972 15.5314 14.2458C16.0457 14.2458 16.0457 14.1944 16.1486 14.0915C16.2514 13.9886 16.2514 13.9372 16.1486 13.8344C16.0972 13.7315 16.0457 13.7315 15.7886 13.6801C15.1714 13.6286 14.8114 13.2686 14.8114 12.6515C14.8114 12.2915 14.9657 11.9829 15.2743 11.8286C15.4286 11.7258 15.48 11.6744 15.48 11.5715C15.5829 11.3658 15.8914 11.2115 16.0972 11.4172ZM10.2343 9.92578C10.0286 10.0286 9.97716 10.3372 10.1314 10.4915C10.3372 10.6972 10.6972 10.8515 10.8514 10.8515C11.16 10.8515 11.3143 10.4915 11.1086 10.2858C11.0057 10.1829 10.5943 9.92578 10.44 9.87436C10.3886 9.87436 10.2857 9.87435 10.2343 9.92578ZM21.2914 9.87436C21.1372 9.92578 20.6743 10.2344 20.6229 10.2858C20.52 10.3886 20.5714 10.6458 20.6743 10.7486C20.8286 10.9029 21.0343 10.8515 21.2914 10.6972C21.6514 10.4915 21.7543 10.3886 21.7543 10.2344C21.7543 10.0801 21.6514 9.92578 21.5486 9.92578C21.5486 9.92578 21.4972 9.92578 21.4457 9.92578C21.3943 9.87435 21.3429 9.87436 21.2914 9.87436ZM9.25716 13.1658C9.10287 13.3715 9.1543 13.5772 9.36001 13.6801C9.5143 13.7829 10.08 13.7829 10.2343 13.6801C10.4914 13.5772 10.4914 13.3201 10.3372 13.1144C10.2343 13.0115 10.1829 13.0115 9.82287 13.0115C9.36001 13.0629 9.36001 13.0629 9.25716 13.1658ZM21.4457 13.1658C21.2914 13.3715 21.3429 13.5772 21.5486 13.6801C21.7029 13.7829 22.2686 13.7829 22.4229 13.6801C22.68 13.5772 22.68 13.3201 22.5257 13.1144C22.4229 13.0115 22.3714 13.0115 22.0114 13.0115C21.5486 13.0629 21.4972 13.0629 21.4457 13.1658ZM10.44 16.0972C10.08 16.3029 10.0286 16.4058 10.0286 16.6115C10.0286 16.7658 10.1829 16.9715 10.3886 16.9715C10.5429 16.9715 11.1086 16.6115 11.16 16.5086C11.2629 16.3029 11.1086 15.9429 10.8514 15.9429C10.8 15.9429 10.5943 16.0458 10.44 16.0972ZM20.6743 16.0458C20.5714 16.1486 20.52 16.3544 20.6229 16.5086C20.6743 16.6115 21.2914 16.9715 21.3943 16.9715C21.6514 16.9715 21.8057 16.6629 21.7029 16.4572C21.6514 16.3544 21.0343 15.9944 20.9314 15.9944C20.8286 15.9429 20.7257 15.9944 20.6743 16.0458ZM28.9543 25.0458C28.9029 25.2515 28.6457 25.5086 26.64 27.5144C26.5372 27.6172 24.4286 29.7258 24.1714 29.8801C23.9657 29.9829 23.76 30.0344 23.5029 30.0344C23.2972 30.0344 23.0914 29.9829 22.8857 29.8801C22.7314 29.7772 22.1657 29.2629 21.8572 28.9544C21.0343 28.1315 20.88 27.9772 20.88 27.4115C20.88 27.1544 20.9829 26.8458 21.1372 26.6401L24.84 22.8344C24.5829 22.6286 24.1714 22.2686 23.6057 21.8058C22.0629 20.5201 21.9086 20.4172 21.2914 20.2629C21.0343 20.2115 20.8286 20.1601 20.3657 20.1601C19.6972 20.1601 19.3886 20.2115 18.6172 20.4686C18.36 20.5715 18 20.6229 17.7943 20.6744C17.5886 20.7258 16.6629 20.7258 15.84 20.7258C14.0914 20.7258 14.04 20.7258 13.7829 20.9829C13.5772 21.1372 13.4743 21.3944 13.4229 21.6001C13.4229 21.8058 13.4229 21.8572 13.4743 21.8572C13.6286 21.9086 15.84 21.9086 16.6629 21.9086C19.9543 21.9086 19.9543 21.9086 20.16 22.0629C20.2629 22.1658 20.3657 22.3201 20.3657 22.4744C20.3657 22.6286 20.3143 22.8344 20.16 22.9372L19.9543 23.1429H13.1143L12.8572 23.0401C12.5486 22.8858 12.24 22.5258 12.1886 22.2172C12.3429 22.0629 12.3429 21.7544 12.3429 21.6001V21.3944L11.0057 20.1601C10.3372 19.5429 9.56573 18.8744 9.41144 18.7715C9.1543 18.6686 8.7943 18.6172 8.58859 18.7201C8.28001 18.8229 8.22859 18.9258 8.17716 18.9772C8.17716 18.9772 8.17716 18.9772 8.17716 19.0286C8.38287 19.3886 12.7029 23.6058 13.0629 23.8629C13.3714 24.0686 13.68 24.1201 14.2457 24.2744C15.7886 24.5829 16.6629 24.6344 18.4629 24.6344C18.7714 24.6344 19.0286 24.6344 19.2343 24.6344C19.8 24.6344 19.9543 24.6344 20.2114 24.7372C20.88 24.9429 21.3429 25.2001 21.9086 25.7144L22.0114 25.8172L21.1372 26.7429L21.0857 26.5886C20.7772 26.2801 20.4172 26.0744 20.0572 25.9201L19.7486 25.8172H18.4629C17.7429 25.8172 16.8172 25.8172 16.5086 25.7658C15.2229 25.6629 13.68 25.4058 13.1143 25.2001C12.4457 24.9429 12.2914 24.7886 9.72001 22.2686L9.5143 22.1144C7.25144 19.8515 6.9943 19.5944 6.94287 19.1829C6.94287 19.1315 6.94287 19.0286 6.94287 18.9772C6.94287 18.2572 7.50858 17.6915 8.38287 17.4858C8.53716 17.4344 8.74287 17.4344 8.89716 17.4344C9.30859 17.4344 9.72001 17.5372 10.0286 17.6915C10.2857 17.7944 11.5714 18.9772 11.6743 19.1315L12.9086 20.2629L12.96 20.2115C13.2172 19.9544 13.6286 19.6972 14.04 19.6458C14.2457 19.5429 15.3257 19.5429 15.9429 19.5429C17.64 19.5429 17.7943 19.5429 18.4629 19.2858C19.3886 18.9772 20.2114 18.8744 20.9829 18.9772C21.7543 19.0801 22.4743 19.2858 22.9886 19.6458C23.0914 19.7486 23.9143 20.3658 24.6343 20.9829L25.92 22.0629C26.2286 21.9601 26.7943 21.9601 27.0514 22.1144C27.3086 22.2686 28.8 23.7601 28.9029 24.0172C29.0572 24.3258 29.0572 24.7372 28.9543 25.0458Z" fill="black"/>
<path id="Vector_2" d="M23.5028 29.0573C23.4357 29.0573 23.3697 29.038 23.3179 28.9954C23.1503 28.8578 22.8894 28.5902 22.6285 28.2859C22.4201 28.0774 22.144 27.8013 22.0195 27.6495C21.9767 27.5972 21.96 27.5307 21.96 27.463C21.96 27.4116 21.96 27.3602 22.0114 27.3087L24.9428 24.3259C25.393 23.8756 25.8433 23.4254 26.3408 23.0699C26.3681 23.0504 26.4008 23.0402 26.4342 23.0402C26.5339 23.0402 26.6304 23.0746 26.7043 23.1414C27.0446 23.4489 27.6775 24.0873 27.9214 24.4034C27.9594 24.4526 27.9771 24.4946 27.9771 24.5568C27.9771 24.6282 27.9531 24.7162 27.9058 24.7697C27.6071 25.1078 26.7635 25.9555 25.92 26.8459L25.8685 26.8973C24.5644 28.2015 24.0173 28.7485 23.7769 28.9607C23.7015 29.0273 23.6034 29.0573 23.5028 29.0573Z" fill="#FFA600"/>
</g>
</svg>
