<svg width="72" height="72" viewBox="0 0 72 72" fill="none" xmlns="http://www.w3.org/2000/svg">
<g id="check-in-out">
<g id="Group 1171275360">
<rect id="Rectangle 34624894" x="23.7422" y="5" width="23.8406" height="28.3346" rx="1" fill="#22885E" stroke="#0B2D1F" stroke-width="2"/>
<g id="Group 1171275198">
<path id="Vector" d="M33.7922 46.5791V26.7019L35.8792 29.3089L37.3474 28.1348L33.5875 23.4337C33.4957 23.3278 33.3851 23.2455 33.2557 23.1867C33.1287 23.1278 32.9946 23.0996 32.8534 23.0996C32.7122 23.0996 32.5781 23.1278 32.4487 23.1867C32.3216 23.2455 32.2111 23.3278 32.1193 23.4337L28.3594 28.1348L29.8276 29.3089L31.9122 26.7019V46.5791H33.7922Z" fill="#0B2D1F"/>
<path id="Vector_2" d="M39.8421 23.1088L39.788 42.986L37.7081 40.3733L36.2367 41.5434L39.9838 46.2547C40.0752 46.3608 40.1856 46.4434 40.3148 46.5026C40.4417 46.5618 40.5758 46.5904 40.7169 46.5908C40.8581 46.5912 40.9923 46.5633 41.1219 46.5048C41.2491 46.4463 41.3599 46.3643 41.4519 46.2587L45.2247 41.5679L43.7597 40.3898L41.6679 42.9911L41.7221 23.114L39.8421 23.1088Z" fill="#0B2D1F"/>
<g id="person.3">
<path d="M36.7506 59.0173C39.0582 59.0173 40.9272 56.9863 40.9272 54.488C40.9272 52.0278 39.0678 50.0635 36.7506 50.0635C34.4621 50.0635 32.5741 52.0564 32.5741 54.507C32.5836 56.9958 34.443 59.0173 36.7506 59.0173ZM36.7506 57.3486C35.4347 57.3486 34.3191 56.109 34.3191 54.4975C34.3191 52.9432 35.4252 51.7322 36.7506 51.7322C38.0856 51.7322 39.1822 52.9241 39.1822 54.488C39.1822 56.0899 38.0761 57.3486 36.7506 57.3486ZM30.81 67.9998H42.6913C44.3409 67.9998 45.1324 67.4754 45.1324 66.3502C45.1324 63.7279 41.8617 60.2379 36.7506 60.2379C31.6396 60.2379 28.3594 63.7279 28.3594 66.3502C28.3594 67.4754 29.1604 67.9998 30.81 67.9998ZM30.5049 66.3311C30.2856 66.3311 30.1997 66.2548 30.1997 66.0832C30.1997 64.6242 32.555 61.9066 36.7506 61.9066C40.9463 61.9066 43.3016 64.6242 43.3016 66.0832C43.3016 66.2548 43.2157 66.3311 42.9869 66.3311H30.5049Z" fill="#0B2D1F"/>
<path d="M30.5049 66.3311C30.2856 66.3311 30.1997 66.2548 30.1997 66.0832C30.1997 64.6242 32.555 61.9066 36.7506 61.9066C40.9463 61.9066 43.3016 64.6242 43.3016 66.0832C43.3016 66.2548 43.2157 66.3311 42.9869 66.3311H30.5049Z" fill="#22885E"/>
<path d="M32.5741 54.507H32.3983L32.3983 54.5077L32.5741 54.507ZM36.7506 59.1931C39.1686 59.1931 41.103 57.0696 41.103 54.488H40.7514C40.7514 56.903 38.9479 58.8415 36.7506 58.8415V59.1931ZM41.103 54.488C41.103 51.9402 39.1742 49.8877 36.7506 49.8877V50.2393C38.9614 50.2393 40.7514 52.1153 40.7514 54.488H41.103ZM36.7506 49.8877C34.3553 49.8877 32.3983 51.9693 32.3983 54.507H32.7499C32.7499 52.1435 34.5689 50.2393 36.7506 50.2393V49.8877ZM32.3983 54.5077C32.4081 57.0794 34.3328 59.1931 36.7506 59.1931V58.8415C34.5533 58.8415 32.7591 56.9123 32.7499 54.5064L32.3983 54.5077ZM36.7506 57.1728C35.5545 57.1728 34.4949 56.0363 34.4949 54.4975H34.1433C34.1433 56.1817 35.315 57.5244 36.7506 57.5244V57.1728ZM34.4949 54.4975C34.4949 53.0204 35.5411 51.908 36.7506 51.908V51.5564C35.3094 51.5564 34.1433 52.866 34.1433 54.4975H34.4949ZM36.7506 51.908C37.9705 51.908 39.0064 53.0021 39.0064 54.488H39.358C39.358 52.8461 38.2008 51.5564 36.7506 51.5564V51.908ZM39.0064 54.488C39.0064 56.0189 37.9548 57.1728 36.7506 57.1728V57.5244C38.1973 57.5244 39.358 56.161 39.358 54.488H39.0064ZM30.81 68.1756H42.6913V67.824H30.81V68.1756ZM42.6913 68.1756C43.5285 68.1756 44.1812 68.0437 44.6286 67.7428C45.0897 67.4327 45.3082 66.9602 45.3082 66.3502H44.9566C44.9566 66.8653 44.7793 67.2177 44.4323 67.4511C44.0716 67.6937 43.5037 67.824 42.6913 67.824V68.1756ZM45.3082 66.3502C45.3082 64.9706 44.4529 63.397 42.97 62.175C41.4819 60.9488 39.347 60.0621 36.7506 60.0621V60.4137C39.2654 60.4137 41.3213 61.272 42.7464 62.4464C44.1765 63.6249 44.9566 65.1075 44.9566 66.3502H45.3082ZM36.7506 60.0621C34.1543 60.0621 32.017 60.9488 30.5267 62.1749C29.0414 63.3968 28.1836 64.9704 28.1836 66.3502H28.5352C28.5352 65.1077 29.3174 63.6251 30.7501 62.4464C32.1776 61.272 34.2359 60.4137 36.7506 60.4137V60.0621ZM28.1836 66.3502C28.1836 66.961 28.405 67.4333 28.8684 67.7431C29.318 68.0437 29.9727 68.1756 30.81 68.1756V67.824C29.9976 67.824 29.4271 67.6937 29.0638 67.4508C28.7142 67.2171 28.5352 66.8645 28.5352 66.3502H28.1836ZM30.5049 66.1553C30.4083 66.1553 30.3833 66.137 30.3823 66.1362C30.3822 66.1361 30.3824 66.1362 30.3826 66.1365C30.3828 66.1367 30.383 66.1369 30.3831 66.1371C30.3833 66.1374 30.3827 66.1366 30.3816 66.1338C30.3793 66.1275 30.3755 66.1123 30.3755 66.0832H30.0239C30.0239 66.1965 30.0528 66.3198 30.1578 66.4068C30.2545 66.487 30.3821 66.5069 30.5049 66.5069V66.1553ZM30.3755 66.0832C30.3755 65.7621 30.5067 65.351 30.7825 64.908C31.0568 64.4675 31.4676 64.0062 32.0094 63.5868C33.092 62.7488 34.6919 62.0824 36.7506 62.0824V61.7308C34.6138 61.7308 32.9382 62.4232 31.7942 63.3088C31.2227 63.7511 30.7825 64.2428 30.4841 64.7222C30.1871 65.1991 30.0239 65.6747 30.0239 66.0832H30.3755ZM36.7506 62.0824C38.8094 62.0824 40.4093 62.7488 41.4919 63.5868C42.0337 64.0062 42.4445 64.4675 42.7188 64.908C42.9946 65.351 43.1258 65.7621 43.1258 66.0832H43.4774C43.4774 65.6747 43.3142 65.1991 43.0172 64.7222C42.7188 64.2428 42.2786 63.7511 41.7071 63.3088C40.5631 62.4232 38.8875 61.7308 36.7506 61.7308V62.0824ZM43.1258 66.0832C43.1258 66.1124 43.122 66.1272 43.1198 66.1331C43.1188 66.1357 43.1183 66.1363 43.1186 66.1358C43.119 66.1352 43.1195 66.1348 43.1194 66.1349C43.1173 66.1366 43.0895 66.1553 42.9869 66.1553V66.5069C43.1131 66.5069 43.2427 66.4875 43.3407 66.4081C43.4483 66.321 43.4774 66.1967 43.4774 66.0832H43.1258ZM42.9869 66.1553H30.5049V66.5069H42.9869V66.1553Z" fill="#0B2D1F"/>
</g>
</g>
<path id="Line 6" d="M16 33.2109H24.988" stroke="#0B2D1F" stroke-width="2"/>
<path id="Line 7" d="M46.3359 33.2109H55.324" stroke="#0B2D1F" stroke-width="2"/>
</g>
</g>
</svg>
