<svg width="72" height="72" viewBox="0 0 72 72" fill="none" xmlns="http://www.w3.org/2000/svg">
<g id="generate-working-calendar">
<g id="Group 1171275359">
<g id="Group 1171275196">
<g id="Group 1171275195">
<g id="Group 1171275194">
<g id="Group 1171274914">
<g id="Group 1171274859">
<path id="Vector 314" d="M7.43359 22.8746V13.7207H50.9148V22.8746H7.43359Z" fill="#22885E" stroke="#22885E" stroke-width="0.56446"/>
<g id="Vector">
<path d="M11.5625 34.8143H15.535V30.8418H11.5625V34.8143Z" fill="#0B2D1F"/>
<path d="M19.5076 34.8143H23.4801V30.8418H19.5076V34.8143Z" fill="#0B2D1F"/>
<path d="M27.4528 34.8143H31.4253V30.8418H27.4528V34.8143Z" fill="#0B2D1F"/>
<path d="M35.3973 34.8143H39.3698V30.8418H35.3973V34.8143Z" fill="#0B2D1F"/>
<path d="M43.3424 34.8143H47.3149V30.8418H43.3424V34.8143Z" fill="#0B2D1F"/>
<path d="M11.5625 42.7591H15.535V38.7866H11.5625V42.7591Z" fill="#0B2D1F"/>
<path d="M19.5076 42.7591H23.4801V38.7866H19.5076V42.7591Z" fill="#0B2D1F"/>
<path d="M27.4528 42.7591H31.4253V38.7866H27.4528V42.7591Z" fill="#0B2D1F"/>
<path d="M35.3973 42.7591H39.3698V38.7866H35.3973V42.7591Z" fill="#0B2D1F"/>
<path d="M43.3424 42.7591H47.3149V38.7866H43.3424V42.7591Z" fill="#0B2D1F"/>
<path d="M11.5625 50.7043H15.535V46.7318H11.5625V50.7043Z" fill="#0B2D1F"/>
<path d="M19.5076 50.7043H23.4801V46.7318H19.5076V50.7043Z" fill="#0B2D1F"/>
<path d="M27.4528 50.7043H31.4253V46.7318H27.4528V50.7043Z" fill="#0B2D1F"/>
<path d="M35.3973 50.7043H39.3698V46.7318H35.3973V50.7043Z" fill="#0B2D1F"/>
</g>
</g>
<path id="Subtract" fill-rule="evenodd" clip-rule="evenodd" d="M12.3572 11.9726V9.9863V8.00005H14.3434H16.3297V9.9863V11.9726H29.4389H42.5482V9.9863V8.00005H44.5344H46.5207V9.9863V11.9726H47.9905C48.8843 11.9726 49.7185 12.0321 50.1456 12.1215C52.3801 12.5883 54.2472 14.4554 54.714 16.6899C54.8299 17.2431 54.8843 27.4544 54.8772 37.0757C53.3912 37.1224 52.0147 37.6964 50.8727 38.6475L50.8904 26.6708H29.4389H7.9874L8.00726 40.1078L8.03706 53.5547L8.3052 53.942C8.45417 54.1506 8.74217 54.4386 8.95073 54.5776L9.31819 54.8259H29.4389H44.87C43.6925 56.0624 42.804 57.4461 42.2921 58.8292C30.4863 58.9013 9.4904 58.858 8.73224 58.6991C6.49771 58.2323 4.63063 56.3653 4.16387 54.1307C3.94538 53.088 3.94538 17.7327 4.16387 16.6899C4.63063 14.4554 6.49771 12.5883 8.73224 12.1215C9.15929 12.0321 9.99351 11.9726 10.8973 11.9726H12.3572ZM12.3572 19.9176V17.9313V15.9451L10.9966 15.955C10.2418 15.955 9.48702 16.0046 9.31819 16.0543C8.89114 16.1735 8.21582 16.8786 8.08671 17.3156C8.03706 17.5241 7.9874 18.8053 7.9874 20.1857V22.6983H29.4488H50.9004L50.8706 19.9871L50.8408 17.2659L50.5726 16.8786C50.4237 16.67 50.1357 16.382 49.9271 16.243C49.5894 16.0046 49.4703 15.9947 48.0402 15.9649L46.5207 15.9252V17.9214V19.9176H44.5344H42.5482V17.9313V15.9451H29.4389H16.3297V17.9313V19.9176H14.3434H12.3572Z" fill="#0B2D1F"/>
</g>
</g>
</g>
</g>
<g id="Group 1171275215">
<g id="Group 1171275111">
<g id="Ellipse 2574">
<mask id="path-4-inside-1_6230_46500" fill="white">
<path d="M57.1706 63.1386C63.1523 63.1386 68.0014 58.2895 68.0014 52.3078C68.0014 46.3262 63.1523 41.4771 57.1706 41.4771C51.1889 41.4771 46.3398 46.3262 46.3398 52.3078C46.3398 58.2895 51.1889 63.1386 57.1706 63.1386Z"/>
</mask>
<path d="M57.1706 63.1386C63.1523 63.1386 68.0014 58.2895 68.0014 52.3078C68.0014 46.3262 63.1523 41.4771 57.1706 41.4771C51.1889 41.4771 46.3398 46.3262 46.3398 52.3078C46.3398 58.2895 51.1889 63.1386 57.1706 63.1386Z" stroke="#0B2D1F" stroke-width="4.15265" mask="url(#path-4-inside-1_6230_46500)"/>
</g>
</g>
<g id="Group">
<path id="Vector_2" d="M60.8626 51.0483H59.9378C59.8848 51.0483 59.8321 51.0535 59.7801 51.0639C59.7279 51.0742 59.6774 51.0894 59.6283 51.1099C59.5792 51.1303 59.5324 51.1551 59.4884 51.1846C59.4442 51.2141 59.4034 51.2474 59.3656 51.2852C59.3281 51.3227 59.2945 51.3635 59.2651 51.4075C59.2356 51.4517 59.2105 51.4982 59.1903 51.5473C59.1699 51.5962 59.1547 51.6469 59.1443 51.6988C59.134 51.7508 59.1288 51.8033 59.1288 51.8566V56.0124C59.1288 56.0654 59.134 56.1182 59.1443 56.1702C59.1547 56.2221 59.1699 56.2728 59.1903 56.3217C59.2105 56.3708 59.2356 56.4173 59.2651 56.4615C59.2945 56.5055 59.3281 56.5463 59.3656 56.5838C59.4034 56.6213 59.4442 56.6549 59.4884 56.6844C59.5324 56.7139 59.5792 56.7387 59.6283 56.7591C59.6774 56.7793 59.7279 56.7948 59.7801 56.8051C59.8321 56.8155 59.8848 56.8207 59.9378 56.8207H60.8626C60.9159 56.8207 60.9684 56.8155 61.0206 56.8051C61.0728 56.7948 61.1232 56.7793 61.1724 56.7591C61.2215 56.7387 61.268 56.7139 61.3122 56.6844C61.3564 56.6549 61.3973 56.6213 61.435 56.5838C61.4725 56.5463 61.5061 56.5055 61.5356 56.4615C61.5651 56.4173 61.5899 56.3708 61.6103 56.3217C61.6308 56.2728 61.646 56.2221 61.6564 56.1702C61.6667 56.1182 61.6719 56.0654 61.6719 56.0124V51.8566C61.6719 51.8033 61.6667 51.7508 61.6564 51.6988C61.646 51.6469 61.6308 51.5962 61.6103 51.5473C61.5899 51.4982 61.5651 51.4517 61.5356 51.4075C61.5061 51.3635 61.4725 51.3227 61.435 51.2852C61.3973 51.2474 61.3564 51.2141 61.3122 51.1846C61.268 51.1551 61.2215 51.1303 61.1724 51.1099C61.1232 51.0894 61.0728 51.0742 61.0206 51.0639C60.9684 51.0535 60.9159 51.0483 60.8626 51.0483Z" fill="#22885E"/>
</g>
<g id="Group_2">
<path id="Vector_3" d="M57.6243 48.7388H56.6995C56.6463 48.7388 56.5938 48.7439 56.5415 48.7543C56.4896 48.7646 56.4389 48.7799 56.3898 48.8003C56.3407 48.8205 56.2941 48.8455 56.2499 48.875C56.2057 48.9045 56.1648 48.9379 56.1274 48.9753C56.0896 49.0128 56.0563 49.0537 56.0268 49.0979C55.997 49.1421 55.9722 49.1886 55.9518 49.2375C55.9316 49.2866 55.9161 49.337 55.9058 49.3893C55.8954 49.4412 55.8903 49.4937 55.8903 49.5467V56.0117C55.8903 56.0647 55.8954 56.1174 55.9058 56.1694C55.9161 56.2214 55.9316 56.272 55.9518 56.3209C55.9722 56.37 55.997 56.4166 56.0268 56.4608C56.0563 56.5047 56.0896 56.5456 56.1274 56.5831C56.1648 56.6206 56.2057 56.6542 56.2499 56.6837C56.2941 56.7131 56.3407 56.7379 56.3898 56.7584C56.4389 56.7785 56.4896 56.7941 56.5415 56.8044C56.5938 56.8147 56.6463 56.8199 56.6995 56.8199H57.6243C57.6773 56.8199 57.7301 56.8147 57.7823 56.8044C57.8343 56.7941 57.885 56.7785 57.9341 56.7584C57.9832 56.7379 58.0297 56.7131 58.074 56.6837C58.1182 56.6542 58.159 56.6206 58.1965 56.5831C58.234 56.5456 58.2676 56.5047 58.2971 56.4608C58.3268 56.4166 58.3516 56.37 58.3721 56.3209C58.3922 56.272 58.4077 56.2214 58.4181 56.1694C58.4284 56.1174 58.4336 56.0647 58.4336 56.0117V49.5467C58.4336 49.4937 58.4284 49.4412 58.4181 49.3893C58.4077 49.337 58.3922 49.2866 58.3721 49.2375C58.3516 49.1886 58.3268 49.1421 58.2971 49.0979C58.2676 49.0537 58.234 49.0128 58.1965 48.9753C58.159 48.9379 58.1182 48.9045 58.074 48.875C58.0297 48.8455 57.9832 48.8205 57.9341 48.8003C57.885 48.7799 57.8343 48.7646 57.7823 48.7543C57.7301 48.7439 57.6773 48.7388 57.6243 48.7388Z" fill="#22885E"/>
</g>
<g id="Group_3">
<path id="Vector_4" d="M54.39 46.8921H53.4651C53.4121 46.8921 53.3594 46.8973 53.3074 46.9076C53.2552 46.9179 53.2048 46.9332 53.1557 46.9536C53.1065 46.9738 53.0597 46.9986 53.0158 47.0281C52.9716 47.0576 52.9307 47.0912 52.893 47.1287C52.8555 47.1661 52.8219 47.207 52.7924 47.2512C52.7629 47.2952 52.7379 47.342 52.7177 47.3908C52.6973 47.44 52.682 47.4904 52.6717 47.5426C52.6613 47.5946 52.6562 47.647 52.6562 47.7V56.0121C52.6562 56.0651 52.6613 56.1178 52.6717 56.1698C52.682 56.2217 52.6973 56.2724 52.7177 56.3213C52.7379 56.3704 52.7629 56.417 52.7924 56.4612C52.8219 56.5051 52.8555 56.546 52.893 56.5835C52.9307 56.6209 52.9716 56.6546 53.0158 56.684C53.0597 56.7135 53.1065 56.7383 53.1557 56.7588C53.2048 56.7789 53.2552 56.7944 53.3074 56.8048C53.3594 56.8151 53.4121 56.8203 53.4651 56.8203H54.39C54.4432 56.8203 54.4957 56.8151 54.5479 56.8048C54.6002 56.7944 54.6506 56.7789 54.6997 56.7588C54.7488 56.7383 54.7954 56.7135 54.8396 56.684C54.8838 56.6546 54.9246 56.6209 54.9624 56.5835C54.9999 56.546 55.0335 56.5051 55.063 56.4612C55.0924 56.417 55.1173 56.3704 55.1377 56.3213C55.1581 56.2724 55.1734 56.2217 55.1837 56.1698C55.194 56.1178 55.1992 56.0651 55.1992 56.0121V47.7C55.1992 47.647 55.194 47.5946 55.1837 47.5426C55.1734 47.4904 55.1581 47.44 55.1377 47.3908C55.1173 47.342 55.0924 47.2952 55.063 47.2512C55.0335 47.207 54.9999 47.1661 54.9624 47.1287C54.9246 47.0912 54.8838 47.0576 54.8396 47.0281C54.7954 46.9986 54.7488 46.9738 54.6997 46.9536C54.6506 46.9332 54.6002 46.9179 54.5479 46.9076C54.4957 46.8973 54.4432 46.8921 54.39 46.8921Z" fill="#22885E"/>
</g>
</g>
</g>
</g>
</svg>
