<svg width="72" height="72" viewBox="0 0 72 72" fill="none" xmlns="http://www.w3.org/2000/svg">
<path d="M43.5 5.5H28.5L23 13H49.5L43.5 5.5Z" fill="#E60000"/>
<path d="M29.887 4.07675C27.9495 4.40174 25.9246 5.37672 24.5871 6.62668L23.6622 7.48916H19.9123C15.8249 7.48916 15.2624 7.55165 14.0874 8.13914C12.675 8.85162 11.4875 10.3891 11.15 11.964C10.95 12.9015 10.95 62.5751 11.15 63.5126C11.35 64.4376 11.925 65.5376 12.5875 66.2375C13.2374 66.925 14.5249 67.65 15.4874 67.85C16.4249 68.05 56.3488 68.05 57.2862 67.85C59.4112 67.4 61.1736 65.6251 61.6236 63.5126C61.8236 62.5626 61.8236 12.9015 61.6236 11.964C61.1736 9.85159 59.3862 8.06414 57.2862 7.62666C56.8862 7.53916 55.1363 7.48916 52.8614 7.48916H49.099L48.2615 6.68918C47.3115 5.8017 46.3615 5.18922 45.0866 4.68924C43.4491 4.02675 42.8991 3.98926 36.2868 4.00175C32.9369 4.01425 30.062 4.05175 29.887 4.07675ZM42.8741 7.92665C43.3116 8.03914 44.0241 8.30164 44.4366 8.51413C45.6865 9.17661 47.0865 10.7641 47.449 11.9515L47.524 12.239H36.3868H25.2496L25.3246 11.9515C25.5371 11.2891 26.1246 10.3766 26.8371 9.6516C27.662 8.81412 28.962 8.07664 30.0245 7.87665C30.3245 7.81415 33.1619 7.76415 36.3243 7.75165C41.0492 7.73915 42.2116 7.77665 42.8741 7.92665ZM21.4247 12.0765C21.3247 12.5515 21.2622 13.3765 21.2872 13.9515C21.3247 15.0515 21.5247 15.4139 22.2872 15.8139C22.7872 16.0764 49.9864 16.0764 50.4864 15.8139C51.2489 15.4139 51.4489 15.0515 51.4864 13.9515C51.5114 13.3765 51.4489 12.5515 51.3489 12.0765L51.1739 11.2391H53.8113C56.8362 11.2391 57.2362 11.3391 57.7362 12.2265L58.0112 12.714V37.7383V62.7626L57.7487 63.2376C57.5987 63.5001 57.2737 63.8251 57.0112 63.9751L56.5362 64.2376H36.3868H16.2374L15.7624 63.9751C15.4999 63.8251 15.1749 63.5001 15.0249 63.2376L14.7624 62.7626V37.7383V12.714L15.0374 12.2265C15.5374 11.3391 15.9249 11.2391 18.9623 11.2391H21.5997L21.4247 12.0765Z" fill="#4D0000"/>
<path d="M42.3369 21.9887C41.4994 22.2512 40.8994 23.2637 41.0619 24.1512C41.2119 24.9386 41.9619 25.6136 42.6994 25.6136C42.8744 25.6136 43.0119 25.6511 43.0119 25.7136C43.0119 25.7636 42.0244 26.7886 40.8244 27.9885L38.637 30.176L35.5996 27.1386C32.3122 23.8637 32.1247 23.7262 31.1747 23.9762C30.7872 24.0887 29.9872 24.8261 26.9248 27.8886C23.6999 31.126 23.1499 31.7384 23.0749 32.1384C22.8499 33.3634 23.6624 34.3634 24.8874 34.3634C25.1749 34.3634 25.5248 34.3009 25.6748 34.2259C25.8248 34.1509 27.2248 32.8134 28.7998 31.2635L31.6372 28.426L34.6121 31.3885C36.237 33.0134 37.6995 34.4009 37.8495 34.4759C38.1995 34.6509 39.0745 34.6509 39.4245 34.4759C39.5745 34.4009 41.0494 32.9884 42.7119 31.3385L45.7243 28.3385L45.7993 28.8385C46.0868 30.576 48.4867 30.9385 49.2992 29.3635C49.4992 28.976 49.5117 28.601 49.4867 26.0261C49.4492 22.8387 49.4367 22.8262 48.5867 22.1887C48.2617 21.9387 48.0617 21.9262 45.4743 21.9012C43.9493 21.8887 42.5369 21.9262 42.3369 21.9887Z" fill="#4D0000"/>
<path d="M27.7625 40.9381C27.525 41.038 26.6625 41.7755 25.8626 42.5755L24.4001 44.0255L23.8876 43.563C23.6001 43.313 23.2376 43.0505 23.0626 42.988C21.5252 42.4005 19.9877 44.063 20.7127 45.5254C20.9877 46.0754 22.9752 48.0754 23.5376 48.3753C24.1251 48.6753 24.6501 48.6753 25.2376 48.3753C25.4876 48.2379 26.6875 47.1379 27.9 45.9004C29.6625 44.1255 30.1375 43.5755 30.25 43.1755C30.5124 42.2255 29.925 41.113 29.0375 40.8631C28.4375 40.7006 28.2875 40.7131 27.7625 40.9381Z" fill="#4D0000"/>
<path d="M34.1237 43.1506C32.9862 43.9131 33.0112 45.4131 34.1862 46.288C34.5237 46.5505 34.6487 46.5505 42.6985 46.5505C50.7482 46.5505 50.8732 46.5505 51.2107 46.288C52.3857 45.4131 52.4107 43.9131 51.2732 43.1506L50.8482 42.8631H42.6985H34.5487L34.1237 43.1506Z" fill="#4D0000"/>
<path d="M28.3246 51.5505C28.2621 51.5755 28.0371 51.6255 27.8371 51.6755C27.5996 51.7255 26.9246 52.288 25.9372 53.2629L24.3997 54.7754L23.9372 54.3629C23.4247 53.9129 22.7872 53.6129 22.3623 53.6129C21.8373 53.6129 21.0748 54.0879 20.7873 54.6004C20.1998 55.6504 20.4498 56.2629 22.1748 57.9628C23.5497 59.3128 23.8872 59.4878 24.8622 59.3003C25.2497 59.2253 25.6872 58.8503 27.6121 56.9503C28.8746 55.7004 29.9995 54.5004 30.0995 54.3004C30.537 53.4754 30.2245 52.288 29.4496 51.8505C29.0496 51.6255 28.5246 51.488 28.3246 51.5505Z" fill="#4D0000"/>
<path d="M34.3124 53.7879C33.6999 54.0629 33.325 54.6879 33.325 55.4503C33.325 56.1503 33.5499 56.5753 34.1874 57.0378C34.5249 57.3003 34.6499 57.3003 42.6997 57.3003C50.7495 57.3003 50.8745 57.3003 51.212 57.0378C51.8494 56.5753 52.0744 56.1503 52.0744 55.4503C52.0744 54.6754 51.6994 54.0504 51.062 53.7879C50.462 53.5379 34.8874 53.5379 34.3124 53.7879Z" fill="#4D0000"/>
</svg>
