<svg width="36" height="36" viewBox="0 0 36 36" fill="none" xmlns="http://www.w3.org/2000/svg">
<g id="manage-overtimes">
<g id="Group 1171274792">
<path id="Subtract" fill-rule="evenodd" clip-rule="evenodd" d="M18.859 26.6783C17.9835 26.9342 17.0599 27.0717 16.1073 27.0717C10.6685 27.0717 6.17145 22.5746 6.17145 17.1358C6.17145 11.697 10.6589 7.19995 16.0977 7.19995C21.5461 7.19995 26.0528 11.697 26.0528 17.1358C26.0528 17.246 26.0509 17.3559 26.0473 17.4653C25.464 17.2853 24.8443 17.1883 24.2019 17.1883C24.1557 17.1883 24.1096 17.1888 24.0636 17.1898C24.0637 17.1718 24.0637 17.1538 24.0637 17.1358C24.0541 12.7252 20.5083 9.18905 16.0977 9.18905C11.6967 9.18905 8.17015 12.7252 8.17015 17.1358C8.17015 21.5464 11.6967 25.0922 16.1073 25.0922C16.8001 25.0922 17.4717 25.0047 18.1117 24.8402C18.2629 25.4987 18.518 26.1174 18.859 26.6783ZM16.0977 18.3466H11.2643C10.8319 18.3466 10.4956 18.0103 10.4956 17.5778C10.4956 17.1454 10.8319 16.8091 11.2643 16.8091H15.3386V11.2935C15.3386 10.861 15.6749 10.5247 16.0977 10.5247C16.5397 10.5247 16.876 10.861 16.876 11.2935V17.5778C16.876 18.0103 16.5397 18.3466 16.0977 18.3466Z" fill="#1C1C1E"/>
<path id="Subtract_2" fill-rule="evenodd" clip-rule="evenodd" d="M20.7937 22.3006L21.0777 21.7326L20.5097 20.5965L21.3617 19.7445L22.4978 20.3125L23.0658 20.0285L23.6339 18.8924H25.054L25.338 20.0285L25.622 20.3125L26.7581 19.7445L27.8942 20.8805L27.3261 21.7326V22.3006L28.7462 22.8687V24.2888L27.6101 24.5728L27.3261 25.1408L27.8942 25.9929L27.0421 27.129L25.906 26.5609L25.338 26.8449L25.054 27.981H23.3498L23.0658 26.8449L22.7818 26.5609L21.3617 27.129L20.5097 26.2769L21.0777 24.8568L20.7937 24.5728L19.6576 24.0047V22.8687L20.7937 22.3006ZM24.2019 24.5728C24.8294 24.5728 25.338 24.0641 25.338 23.4367C25.338 22.8093 24.8294 22.3006 24.2019 22.3006C23.5745 22.3006 23.0659 22.8093 23.0659 23.4367C23.0659 24.0641 23.5745 24.5728 24.2019 24.5728Z" fill="#FFA600"/>
<path id="gearshape" d="M23.7248 28.5397H24.6791C25.0693 28.5397 25.3748 28.2952 25.4689 27.9192L25.6569 27.0965L25.7791 27.0495L26.4984 27.4961C26.8275 27.7029 27.2176 27.6465 27.495 27.3691L28.1531 26.711C28.4352 26.4289 28.4822 26.0435 28.2754 25.7191L27.8288 24.9998L27.8758 24.887L28.6985 24.6943C29.0698 24.6002 29.3143 24.2947 29.3143 23.9045V22.9784C29.3143 22.5882 29.0745 22.2827 28.6985 22.1886L27.8805 21.9912L27.8335 21.869L28.2801 21.1544C28.4869 20.83 28.4399 20.4446 28.1578 20.1578L27.4997 19.4997C27.227 19.2223 26.8369 19.1706 26.5078 19.3727L25.7885 19.8146L25.6569 19.7676L25.4689 18.9402C25.3748 18.5642 25.0693 18.3244 24.6791 18.3244H23.7248C23.3299 18.3244 23.0243 18.5642 22.935 18.9402L22.747 19.7676L22.6154 19.8146L21.8961 19.3727C21.5623 19.1706 21.1768 19.2223 20.9042 19.4997L20.2413 20.1578C19.964 20.4446 19.9123 20.83 20.1191 21.1544L20.5657 21.869L20.5187 21.9912L19.7054 22.1886C19.3294 22.2827 19.0896 22.5882 19.0896 22.9784V23.9045C19.0896 24.2947 19.3341 24.6002 19.7054 24.6943L20.5281 24.887L20.5704 24.9998L20.1238 25.7191C19.917 26.0435 19.9687 26.4289 20.246 26.711L20.9089 27.3691C21.1815 27.6465 21.5717 27.7029 21.9008 27.4961L22.6201 27.0495L22.747 27.0965L22.935 27.9192C23.0243 28.2952 23.3299 28.5397 23.7248 28.5397ZM23.847 27.6747C23.7671 27.6747 23.7248 27.6418 23.7154 27.5713L23.4333 26.4148C23.1372 26.3443 22.8504 26.2221 22.6201 26.0764L21.6046 26.7016C21.5435 26.7392 21.4871 26.7345 21.4307 26.6781L20.9371 26.1845C20.8807 26.1328 20.8807 26.0764 20.9183 26.0153L21.5435 24.9998C21.4119 24.7742 21.2897 24.4921 21.2192 24.196L20.058 23.9186C19.9875 23.9092 19.9499 23.8669 19.9499 23.787V23.0912C19.9499 23.0066 19.9828 22.9737 20.058 22.9549L21.2145 22.6822C21.285 22.3673 21.4213 22.0758 21.5388 21.8643L20.9136 20.8582C20.876 20.7924 20.876 20.736 20.9277 20.6796L21.426 20.1907C21.4824 20.139 21.5341 20.1296 21.6046 20.1719L22.6107 20.7877C22.8222 20.6561 23.1372 20.5245 23.438 20.4493L23.7154 19.2928C23.7248 19.2223 23.7671 19.1847 23.847 19.1847H24.5569C24.6368 19.1847 24.6744 19.2176 24.6885 19.2928L24.9706 20.454C25.2761 20.5292 25.5535 20.6561 25.7885 20.7877L26.7946 20.1719C26.8651 20.1343 26.9168 20.139 26.9732 20.1954L27.4715 20.6843C27.5279 20.736 27.5279 20.7924 27.4856 20.8582L26.8651 21.8643C26.9779 22.0758 27.1189 22.3673 27.1894 22.6822L28.3459 22.9549C28.4211 22.9737 28.4493 23.0066 28.4493 23.0912V23.787C28.4493 23.8669 28.4164 23.9092 28.3459 23.9186L27.1847 24.196C27.1142 24.4921 26.9873 24.7789 26.8557 24.9998L27.4809 26.0106C27.5185 26.0764 27.5185 26.1281 27.4621 26.1798L26.9685 26.6781C26.9121 26.7345 26.8557 26.7392 26.7946 26.7016L25.7838 26.0764C25.5488 26.2221 25.2808 26.3396 24.9706 26.4148L24.6885 27.5713C24.6744 27.6418 24.6368 27.6747 24.5569 27.6747H23.847ZM24.2043 25.2161C25.1821 25.2161 25.986 24.4122 25.986 23.4297C25.986 22.4566 25.1821 21.6527 24.2043 21.6527C23.2218 21.6527 22.4132 22.4566 22.4132 23.4297C22.4132 24.4122 23.2218 25.2161 24.2043 25.2161ZM24.2043 24.4028C23.6684 24.4028 23.2312 23.9656 23.2312 23.4297C23.2312 22.9032 23.6731 22.466 24.2043 22.466C24.7261 22.466 25.1633 22.9032 25.1633 23.4297C25.1633 23.9609 24.7261 24.4028 24.2043 24.4028Z" fill="#1C1C1E"/>
</g>
</g>
</svg>
