<svg width="36" height="36" viewBox="0 0 36 36" fill="none" xmlns="http://www.w3.org/2000/svg">
<g id="manage-cash-advance">
<path id="Rectangle 34624696" d="M11.8286 17.7428C11.8286 14.4764 14.4765 11.8285 17.7428 11.8285H18.2571C21.5235 11.8285 24.1714 14.4764 24.1714 17.7428C24.1714 21.0091 21.5235 23.6571 18.2571 23.6571H17.7428C14.4765 23.6571 11.8286 21.0091 11.8286 17.7428Z" fill="#FFA600"/>
<g id="Group 1171274843">
<path id="Vector" d="M18.736 17.4296V15.2523C19.0115 15.3364 19.3279 15.5276 19.3347 15.9775C19.3381 16.261 19.5609 16.4868 19.8687 16.4819C20.1596 16.4769 20.3909 16.2462 20.3875 15.9643C20.3739 15.048 19.719 14.3722 18.736 14.2074V13.6306C18.736 13.3487 18.5013 13.1196 18.2104 13.1196C17.9179 13.1196 17.6832 13.3487 17.6832 13.6306V14.2338C16.8685 14.42 16.1269 14.9804 15.979 15.9182C15.8871 16.767 16.1269 17.8218 17.6832 18.252V20.4523C17.1916 20.3039 16.8957 19.9249 16.8532 19.3596C16.8328 19.0777 16.576 18.8668 16.2902 18.8865C15.9994 18.9063 15.7817 19.1519 15.8038 19.4321C15.8854 20.5297 16.6202 21.311 17.6832 21.4989V22.1268C17.6832 22.4086 17.9179 22.6361 18.2104 22.6361C18.5013 22.6361 18.736 22.4086 18.736 22.1268V21.4972C19.8432 21.3159 20.5797 20.5742 20.5814 19.5672C20.5814 18.9113 20.3245 17.8152 18.736 17.4296ZM17.6832 17.1708C17.0488 16.9054 16.9773 16.4753 17.0233 16.0501C17.0811 15.6842 17.3498 15.4386 17.6832 15.3051V17.1708ZM18.736 20.4506V18.4976C19.4112 18.7398 19.5286 19.1618 19.5286 19.5672C19.5286 20.0666 19.1663 20.3353 18.736 20.4506Z" fill="black"/>
<path id="Vector_2" d="M18.2104 11.0806C14.3428 11.0806 11.1963 14.1297 11.1963 17.8776C11.1963 21.6255 14.3428 24.6746 18.2104 24.6746C22.0763 24.6746 25.2228 21.6255 25.2228 17.8776C25.2228 14.1297 22.0763 11.0806 18.2104 11.0806ZM18.2104 23.6544C14.9228 23.6544 12.2491 21.0635 12.2491 17.8776C12.2491 14.6934 14.9228 12.1025 18.2104 12.1025C21.4964 12.1025 24.17 14.6934 24.17 17.8776C24.17 21.0635 21.4964 23.6544 18.2104 23.6544Z" fill="black"/>
<g id="Group">
<path id="Vector_3" d="M29.3013 15.4516H27.4254C27.2042 14.6489 26.8726 13.8825 26.4355 13.1672L27.7621 12.0217C27.8693 11.9294 27.9322 11.8009 27.939 11.6608C27.9441 11.524 27.8914 11.3888 27.7927 11.2883L25.1157 8.57544C24.9201 8.37601 24.5969 8.36448 24.386 8.54742L22.9097 9.81815C22.2192 9.44072 21.4844 9.15065 20.7191 8.95287V7.13495C20.7191 6.85312 20.4827 6.62402 20.1918 6.62402H16.3208C16.03 6.62402 15.7935 6.85312 15.7935 7.13495V8.95287C15.0214 9.1523 14.2815 9.44567 13.5859 9.82804L12.113 8.55731C11.9021 8.37601 11.5772 8.3892 11.3817 8.58698L8.70799 11.3015C8.61104 11.4004 8.55832 11.5355 8.56342 11.674C8.56852 11.8124 8.63315 11.9426 8.7386 12.0349L10.0686 13.182C9.63663 13.894 9.30667 14.6555 9.08727 15.4516H7.21128C6.92044 15.4516 6.68573 15.6806 6.68573 15.9625V19.7137C6.68573 19.9955 6.92044 20.2246 7.21128 20.2246H9.08727C9.29647 20.9861 9.60601 21.7145 10.0125 22.4018L8.67057 23.5588C8.56512 23.6511 8.50049 23.7813 8.49539 23.9181C8.48858 24.0549 8.53961 24.1901 8.63825 24.2906L11.2932 27.0216C11.4888 27.2227 11.8137 27.2359 12.0263 27.0529L13.4873 25.7921C14.2118 26.2008 14.984 26.514 15.7935 26.7233V28.5412C15.7935 28.823 16.03 29.0521 16.3208 29.0521H20.1918C20.4827 29.0521 20.7191 28.823 20.7191 28.5412V26.7233C21.379 26.5519 22.0185 26.3113 22.6291 26.0031L24.1411 27.3067C24.3503 27.4864 24.6683 27.4782 24.8656 27.2853L27.592 24.6137C27.6941 24.5148 27.7485 24.378 27.7434 24.2379C27.74 24.0994 27.6771 23.9676 27.5682 23.8736L26.2756 22.7595C26.7927 21.9733 27.1787 21.1229 27.427 20.2246H29.3013C29.5922 20.2246 29.8286 19.9955 29.8286 19.7137V15.9625C29.8286 15.6806 29.5922 15.4516 29.3013 15.4516ZM28.7741 19.2028H27.0121C26.7654 19.2028 26.5511 19.3709 26.4984 19.6049C26.2569 20.6663 25.8045 21.6585 25.1531 22.5502C24.9983 22.7628 25.0323 23.0545 25.233 23.2276L26.4525 24.2791L24.4676 26.2223L23.0526 25.0026C22.8842 24.8559 22.6376 24.8312 22.442 24.94C21.6987 25.352 20.9045 25.6487 20.0796 25.8251C19.8381 25.8761 19.6646 26.0838 19.6646 26.3228V28.0319H16.848V26.3228C16.848 26.0838 16.6763 25.8761 16.4347 25.8251C15.4653 25.6174 14.5503 25.2482 13.7135 24.7307C13.5145 24.6071 13.2559 24.6268 13.0808 24.7785L11.7082 25.9602L9.77609 23.9725L11.0398 22.8831C11.2337 22.7166 11.2728 22.4381 11.135 22.2271C10.601 21.4162 10.2251 20.5345 10.0142 19.6049C9.96148 19.3709 9.74718 19.2028 9.50056 19.2028H7.73853V16.4718H9.50056C9.74718 16.4718 9.96148 16.3053 10.0142 16.0713C10.2336 15.1054 10.6299 14.1957 11.1895 13.365C11.334 13.154 11.2949 12.8722 11.0993 12.7041L9.84753 11.6229L11.7932 9.64839L13.1726 10.8384C13.3478 10.9883 13.6029 11.0098 13.8019 10.8911C14.6149 10.4 15.4993 10.0505 16.4347 9.85111C16.6763 9.80002 16.848 9.59235 16.848 9.35337V7.64588H19.6646V9.35337C19.6646 9.59235 19.8364 9.80002 20.0796 9.85111C21.0065 10.0489 21.8875 10.3967 22.6954 10.8812C22.8944 11.0015 23.1495 10.9785 23.323 10.8285L24.7058 9.63685L26.6549 11.6113L25.4031 12.6909C25.2075 12.859 25.1684 13.1408 25.313 13.3518C25.8793 14.1858 26.2773 15.1005 26.4984 16.0713C26.5511 16.3053 26.7654 16.4718 27.0121 16.4718H28.7741V19.2028Z" fill="black"/>
</g>
<g id="Group_2">
<path id="Vector_4" d="M7.97164 6.20377C8.06008 6.3076 8.21146 6.38671 8.35262 6.39496C8.35262 6.39496 9.33739 6.45429 9.34759 6.45429C9.62483 6.45429 9.85614 6.24497 9.87314 5.97468C9.88335 5.81975 9.81532 5.6813 9.70987 5.58077C12.2237 3.94085 15.1371 3.07722 18.2105 3.07722C21.6954 3.07722 24.9797 4.18643 27.7061 6.28618C27.9357 6.46088 28.2657 6.42297 28.4476 6.20377C28.6279 5.98292 28.5905 5.66153 28.3626 5.48682C25.4474 3.24203 21.937 2.05701 18.2105 2.05701C14.8956 2.05701 11.7559 2.99975 9.05165 4.78471C9.01764 4.56715 8.84926 4.3875 8.61455 4.35454C8.32201 4.30839 8.05838 4.50617 8.01757 4.78635L7.86449 5.81316C7.84408 5.94995 7.8832 6.09499 7.97164 6.20377Z" fill="black"/>
</g>
<g id="Group_3">
<path id="Vector_5" d="M28.4474 29.5534C28.3624 29.4512 28.1991 29.3688 28.0664 29.3605L27.1038 29.3061C26.8214 29.2962 26.5629 29.5023 26.5459 29.7841C26.5374 29.939 26.602 30.0758 26.7092 30.1764C24.1954 31.8179 21.2819 32.6816 18.2103 32.6816C14.7219 32.6816 11.4376 31.5707 8.71296 29.4709C8.48505 29.2962 8.15339 29.3325 7.97141 29.5534C7.79112 29.7726 7.82854 30.0956 8.05645 30.2703C10.9716 32.5151 14.4821 33.7018 18.2103 33.7018C21.5234 33.7018 24.6631 32.759 27.3691 30.9724C27.4014 31.19 27.5698 31.3696 27.8045 31.4026C27.8317 31.4075 27.8555 31.4075 27.881 31.4075C28.1396 31.4075 28.3641 31.2246 28.4015 30.9708L28.5546 29.944C28.575 29.8055 28.5358 29.6621 28.4474 29.5534Z" fill="black"/>
</g>
</g>
</g>
</svg>
