<svg width="72" height="72" viewBox="0 0 72 72" fill="none" xmlns="http://www.w3.org/2000/svg">
<g id="my-attendance-change-request">
<g id="Group 1171275529">
<g id="Ellipse 2615">
<mask id="path-1-outside-1_6358_46284" maskUnits="userSpaceOnUse" x="47.3086" y="48.2769" width="22" height="22" fill="black">
<rect fill="white" x="47.3086" y="48.2769" width="22" height="22"/>
<path d="M67.0317 59.1384C67.0317 64.0325 63.0642 67.9999 58.1701 67.9999C53.276 67.9999 49.3086 64.0325 49.3086 59.1384C49.3086 54.2443 53.276 50.2769 58.1701 50.2769C63.0642 50.2769 67.0317 54.2443 67.0317 59.1384Z"/>
</mask>
<path d="M67.0317 59.1384C67.0317 64.0325 63.0642 67.9999 58.1701 67.9999C53.276 67.9999 49.3086 64.0325 49.3086 59.1384C49.3086 54.2443 53.276 50.2769 58.1701 50.2769C63.0642 50.2769 67.0317 54.2443 67.0317 59.1384Z" fill="#22885E"/>
<path d="M67.0317 59.1384C67.0317 64.0325 63.0642 67.9999 58.1701 67.9999C53.276 67.9999 49.3086 64.0325 49.3086 59.1384C49.3086 54.2443 53.276 50.2769 58.1701 50.2769C63.0642 50.2769 67.0317 54.2443 67.0317 59.1384Z" stroke="#0B2D1F" stroke-width="3.41053" mask="url(#path-1-outside-1_6358_46284)"/>
</g>
<g id="Group 1171275362">
<g id="Group">
<path id="Vector" d="M58.2097 55.3089C58.4593 55.3095 58.707 55.3342 58.9517 55.3824C59.1969 55.43 59.4348 55.501 59.6658 55.5949C59.8969 55.6888 60.1169 55.8037 60.3257 55.9397C60.5345 56.0756 60.7285 56.23 60.907 56.403H59.3125V57.4972H62.0704C62.1433 57.4972 62.2137 57.483 62.2811 57.4558C62.349 57.428 62.4083 57.3884 62.4602 57.3372C62.5121 57.2859 62.5517 57.2266 62.5801 57.1592C62.6079 57.0925 62.6221 57.0227 62.6221 56.9504V54.2153H61.5187V55.4843C61.342 55.3255 61.1542 55.1804 60.9565 55.0481C60.7582 54.9166 60.5518 54.7992 60.3362 54.6972C60.1212 54.5953 59.9 54.5088 59.672 54.4384C59.4447 54.3679 59.213 54.3142 58.977 54.2765C58.7416 54.2394 58.5044 54.219 58.2659 54.2159C58.0274 54.2122 57.7902 54.2265 57.5535 54.2567C57.3169 54.2876 57.084 54.3352 56.8542 54.3994C56.625 54.4637 56.4007 54.544 56.1832 54.6398C55.9651 54.7362 55.7551 54.8474 55.5537 54.974C55.3522 55.1 55.1607 55.2403 54.9791 55.3941C54.7981 55.548 54.6288 55.7135 54.4719 55.8921C54.3143 56.07 54.171 56.2585 54.0412 56.4568C53.9115 56.6551 53.7972 56.8621 53.6977 57.0771C53.5983 57.2921 53.5149 57.5132 53.4475 57.74C53.3802 57.9673 53.3295 58.1978 53.2955 58.4319C53.2622 58.6661 53.2455 58.9015 53.2461 59.1381H54.3489C54.3489 59.0127 54.3557 58.8879 54.3681 58.7631C54.3804 58.6383 54.399 58.5141 54.4237 58.3912C54.449 58.2682 54.4793 58.1471 54.5163 58.0273C54.5528 57.9074 54.5954 57.7894 54.6442 57.6733C54.6924 57.5577 54.7468 57.4447 54.8061 57.3341C54.866 57.2235 54.9309 57.116 55.0013 57.0122C55.0711 56.9078 55.1465 56.8071 55.2268 56.7101C55.3071 56.6131 55.3918 56.5204 55.4814 56.4321C55.5703 56.3431 55.6642 56.2591 55.7619 56.1794C55.8595 56.1003 55.9608 56.0255 56.0658 55.9557C56.1709 55.8859 56.279 55.8217 56.3908 55.7623C56.502 55.7037 56.6163 55.6499 56.7331 55.6017C56.8498 55.5535 56.9685 55.5115 57.0896 55.4751C57.2106 55.4386 57.333 55.4077 57.4565 55.3836C57.5807 55.3589 57.7055 55.3404 57.8316 55.328C57.957 55.3157 58.083 55.3095 58.2097 55.3089Z" fill="#0B2D1F"/>
</g>
<path id="Vector_2" d="M62.0694 59.1382C62.0694 59.3254 62.0559 59.512 62.0287 59.6973C62.0009 59.8827 61.9601 60.0655 61.9057 60.2447C61.8507 60.4245 61.7834 60.5987 61.7031 60.7686C61.6228 60.9379 61.5301 61.101 61.4257 61.2573C61.3213 61.413 61.2057 61.5613 61.0797 61.7003C60.9531 61.8399 60.8171 61.969 60.6719 62.0883C60.5261 62.2081 60.3723 62.3162 60.2111 62.4132C60.0492 62.5108 59.8811 62.5955 59.7069 62.6684C59.5333 62.7407 59.3541 62.8006 59.1713 62.8469C58.9884 62.8939 58.803 62.9266 58.6152 62.9464C58.4268 62.9662 58.2384 62.9717 58.0499 62.9637C57.8609 62.9563 57.6737 62.9347 57.4883 62.8995C57.3024 62.8642 57.1207 62.8154 56.9422 62.7543C56.7636 62.6925 56.5906 62.6183 56.4232 62.5312C56.2558 62.4441 56.0958 62.3459 55.9432 62.2353C55.7906 62.1253 55.6466 62.0042 55.5113 61.8733H57.1059V60.7791H54.348C54.2751 60.7791 54.2046 60.7933 54.1373 60.8211C54.0693 60.8489 54.01 60.8885 53.9581 60.9397C53.9062 60.991 53.8667 61.0497 53.8383 61.1171C53.8105 61.1838 53.7969 61.2536 53.7969 61.3265V64.0616H54.8997V62.792C55.0764 62.9507 55.2642 63.0965 55.4619 63.2281C55.6602 63.3597 55.8666 63.4771 56.0822 63.5791C56.2972 63.6816 56.5184 63.7675 56.7463 63.8379C56.9737 63.9084 57.2054 63.9627 57.4414 63.9998C57.6768 64.0369 57.914 64.0572 58.1525 64.0603C58.391 64.064 58.6282 64.0504 58.8648 64.0196C59.1015 63.9887 59.3344 63.9411 59.5642 63.8768C59.7934 63.8126 60.0177 63.7329 60.2351 63.6365C60.4532 63.5401 60.6633 63.4289 60.8647 63.3023C61.0667 63.1762 61.2576 63.036 61.4393 62.8822C61.6203 62.7283 61.7896 62.5627 61.9471 62.3848C62.104 62.2063 62.2474 62.0184 62.3771 61.8195C62.5069 61.6212 62.6212 61.4142 62.7206 61.1992C62.8201 60.9842 62.9035 60.763 62.9708 60.5363C63.0382 60.3096 63.0888 60.0785 63.1228 59.8443C63.1562 59.6102 63.1729 59.3748 63.1723 59.1382H62.0694Z" fill="#0B2D1F"/>
</g>
<g id="Group 1171275528">
<path id="Vector 846" d="M29.6135 48.8002L32.0751 45.354H33.552L36.0135 48.3079V49.2925L34.0443 51.754L36.0135 65.5386H28.6289L31.0904 51.754L29.6135 48.8002Z" fill="#22885E"/>
<g id="Group_2">
<path id="Vector_3" d="M34.4048 4.00126C35.3343 4.24214 36.2965 4.39852 37.1882 4.73777C40.0989 5.84505 42.1583 7.86666 43.4005 10.7307C43.4989 10.959 43.76 11.2036 43.9945 11.2717C46.4298 11.983 47.8625 13.8155 47.8927 16.3642C47.9142 18.15 47.9066 19.9358 47.8902 21.7215C47.8864 22.1264 47.9974 22.4051 48.3039 22.7002C49.6974 24.042 50.2498 25.6866 49.7592 27.5758C49.2459 29.5482 47.9482 30.7828 45.9644 31.2986C45.7324 31.3592 45.3982 31.5105 45.3402 31.6921C44.5923 34.0404 43.0323 35.806 41.3033 37.4631C40.4545 38.2765 39.636 39.1228 38.8037 39.9538C37.8175 40.9388 36.661 41.5845 35.241 41.6047C33.4981 41.6299 31.7552 41.6274 30.0135 41.6021C28.7133 41.5832 27.6022 41.0498 26.6879 40.1531C25.249 38.7419 23.8365 37.3017 22.4265 35.8602C21.3369 34.7466 20.5676 33.4287 20.0695 31.957C19.9332 31.5559 19.7201 31.3693 19.2938 31.2684C17.3239 30.8005 16.0451 29.5545 15.5256 27.6111C15.0224 25.7257 15.5571 24.0748 16.9431 22.7242C17.2609 22.4139 17.392 22.1276 17.3857 21.6951C17.3517 19.4881 17.3176 17.2773 17.9722 15.1333C19.6054 9.79116 23.0924 6.27384 28.427 4.62805C29.4221 4.32159 30.4751 4.2043 31.5017 4C32.4715 4.00126 33.4375 4.00126 34.4048 4.00126ZM21.5248 23.327C21.5248 25.3915 21.4403 27.3651 21.5488 29.3287C21.6572 31.2772 22.5034 32.9823 23.839 34.3985C25.1935 35.8337 26.6173 37.2046 28.0096 38.6057C28.7007 39.3018 29.5356 39.6045 30.5117 39.5932C31.8561 39.5768 33.203 39.5528 34.5461 39.5995C35.7454 39.6411 36.7026 39.2262 37.5261 38.3711C38.5754 37.2815 39.6423 36.207 40.7358 35.1628C42.8973 33.097 43.9252 30.5836 43.847 27.5972C43.8142 26.3575 43.823 25.1165 43.8508 23.8781C43.8609 23.4178 43.736 23.2311 43.2542 23.1378C41.2843 22.7544 39.66 21.7644 38.4089 20.188C38.0773 19.7693 37.7897 19.3153 37.4707 18.8625C36.9435 19.2661 36.4744 19.6545 35.9775 20.0026C32.6064 22.3609 28.8394 23.39 24.7483 23.3308C23.6801 23.3131 22.6106 23.327 21.5248 23.327ZM19.4641 21.2852C21.5689 21.2852 23.6044 21.3142 25.6386 21.2789C29.8471 21.2083 33.5031 19.734 36.5929 16.8687C37.0305 16.4626 37.4644 16.0527 37.9915 15.5584C39.5982 18.9016 41.5807 21.6585 45.8598 21.2928C45.8598 19.6747 45.8749 18.0403 45.856 16.4071C45.8333 14.4485 44.6465 13.2152 42.683 13.1609C42.1558 13.1471 41.9843 12.9591 41.8342 12.49C40.7156 9.01177 38.3963 6.73794 34.7617 6.19943C30.349 5.54616 26.4294 6.78586 23.2412 9.99042C20.1199 13.1294 19.1249 16.9998 19.4641 21.2852ZM19.3796 29.161C19.3796 27.2895 19.3796 25.4583 19.3796 23.6082C18.2181 23.9638 17.4211 25.0648 17.387 26.2894C17.3504 27.5795 18.1336 28.7272 19.3796 29.161ZM45.8762 29.1597C47.1499 28.7486 47.9835 27.4812 47.8852 26.1734C47.7931 24.9438 46.9027 23.8024 45.8762 23.646C45.8762 25.4722 45.8762 27.292 45.8762 29.1597Z" fill="#0B2D1F"/>
</g>
<path id="Subtract" fill-rule="evenodd" clip-rule="evenodd" d="M5.25228 65.5008C5.16886 66.0024 5.08494 66.5068 5 67.0157H48.0024C47.1855 66.4405 46.4517 65.7553 45.8226 64.9815H37.5841C37.3293 63.1932 37.0746 61.4125 36.8198 59.6317C36.7305 59.0085 36.6435 58.385 36.5565 57.7616C36.3387 56.201 36.1209 54.6405 35.8677 53.0851C35.7516 52.3751 35.7832 51.7748 36.2738 51.2174C36.4392 51.0297 36.5736 50.8144 36.7201 50.5795C36.7901 50.4671 36.863 50.3503 36.9434 50.2299C37.2578 50.6024 37.564 50.9654 37.8713 51.3296C38.3184 51.8596 38.7677 52.3922 39.2475 52.9603C40.0105 49.9033 40.7445 46.9661 41.4961 43.9583C41.994 44.1244 42.4841 44.2869 42.9691 44.4477C43.9019 44.7571 44.8154 45.06 45.7273 45.3695C46.1575 45.5158 46.5893 45.6585 47.0212 45.8012C48.1638 46.1789 49.3068 46.5566 50.4225 47.0014C50.8773 47.1827 51.3077 47.3881 51.7127 47.6173C52.5208 47.4249 53.3639 47.3231 54.2308 47.3231C54.3989 47.3231 54.5662 47.3269 54.7325 47.3345C53.6794 46.3506 52.3895 45.5624 50.8538 44.9848C48.964 44.2752 47.0414 43.6507 45.1191 43.0263C44.4039 42.794 43.6888 42.5617 42.9755 42.3251L42.9232 42.3078C41.8793 41.9621 41.8727 41.9599 41.7648 40.842C41.7615 40.8032 41.7457 40.7655 41.7268 40.72C41.7168 40.696 41.7059 40.6699 41.6954 40.6402H39.7886C39.8626 42.4365 39.4085 44.1087 38.9428 45.8233C38.6951 46.7354 38.4441 47.6595 38.2676 48.6207C37.9679 48.2636 37.6676 47.9292 37.3761 47.6047C36.7525 46.9104 36.1692 46.261 35.7188 45.5297C34.7326 43.928 33.4097 43.3542 31.629 43.6833C31.3503 43.7351 31.0186 43.8549 30.8433 44.0579C30.0699 44.9513 29.3154 45.8605 28.5607 46.7699C28.2287 47.1699 27.8967 47.5699 27.5631 47.9687C27.4645 48.0864 27.3572 48.1975 27.2212 48.3382C27.1518 48.4101 27.0749 48.4896 26.988 48.5816C26.8191 47.5919 26.5599 46.6423 26.3039 45.7048C25.8469 44.0308 25.4003 42.3951 25.4973 40.6377H23.5589C23.5517 40.6904 23.541 40.7399 23.5309 40.7868C23.5114 40.8779 23.4939 40.9592 23.5072 41.0349C23.6296 41.7273 23.3054 42.0111 22.6597 42.2154C20.116 43.0187 17.5862 43.8637 15.0626 44.7276C10.7659 46.1993 8.10493 49.1416 7.26375 53.6287C6.88159 55.6686 6.54474 57.7168 6.20786 59.7651C6.06781 60.6166 5.92775 61.4682 5.78443 62.3192C5.60585 63.3752 5.43019 64.4313 5.25228 65.5008ZM23.6052 44.0415C23.6594 44.029 23.7207 44.0149 23.7923 43.9974C24.53 46.951 25.2615 49.8781 26.0346 52.9679C26.5245 52.384 26.9881 51.8322 27.4525 51.2794C27.7424 50.9343 28.0327 50.5888 28.3298 50.235C28.4399 50.3988 28.5475 50.5576 28.6527 50.7129C28.9324 51.1256 29.1958 51.5143 29.4459 51.911C29.5153 52.0207 29.5216 52.1948 29.5027 52.3322C28.9087 56.5318 28.3084 60.7314 27.7018 64.9727H16.4839C16.6635 63.1585 16.8422 61.3618 17.0216 59.5576C17.1395 58.3717 17.2578 57.1827 17.3768 55.9832L17.307 55.9759C16.6663 55.908 16.0661 55.8445 15.3931 55.7739C15.3773 55.8643 15.3606 55.9504 15.3444 56.0338C15.3114 56.2043 15.2805 56.3634 15.2644 56.5243C15.2227 56.9486 15.1807 57.3729 15.1388 57.7973C14.9224 59.987 14.7061 62.1765 14.5128 64.3686C14.4686 64.868 14.3097 65.0445 13.7902 65.037C12.4692 65.0169 11.1477 65.0198 9.82643 65.0226C9.23529 65.0239 8.64419 65.0251 8.05322 65.0244C7.93086 65.0244 7.8085 65.0156 7.66474 65.0052C7.5907 64.9999 7.51098 64.9942 7.42265 64.989C7.48942 64.5733 7.55494 64.1618 7.61999 63.7531C7.76136 62.865 7.90055 61.9906 8.04565 61.1174C8.21488 60.0968 8.38669 59.0766 8.55851 58.0563C8.76698 56.8183 8.97547 55.5801 9.17942 54.3412C9.81251 50.5036 11.9665 47.946 15.6402 46.6874C17.505 46.0484 19.3764 45.4274 21.2477 44.8064C21.9468 44.5745 22.6459 44.3425 23.3445 44.1096C23.4211 44.0838 23.4999 44.0657 23.6052 44.0415ZM35.492 64.8001C35.4959 64.8529 35.5002 64.912 35.5057 64.9802H35.4712C33.554 64.9802 31.7057 64.9802 29.7764 64.9815C29.7839 64.9027 29.7902 64.8279 29.7963 64.7559C29.8084 64.6113 29.8196 64.478 29.8382 64.3459C29.9311 63.6946 30.024 63.0432 30.1168 62.3919C30.6022 58.9871 31.0877 55.5821 31.5874 52.1797C31.6542 51.7294 31.5722 51.3776 31.3061 51.0106C31.0365 50.6393 30.7846 50.2558 30.5329 49.8724C30.3348 49.5708 30.1368 49.2692 29.9302 48.9738C29.7461 48.7102 29.7221 48.5223 29.9517 48.2613C30.3511 47.8052 30.7366 47.3372 31.122 46.8692C31.3377 46.6074 31.5534 46.3455 31.7715 46.0858C32.228 45.541 33.0478 45.5385 33.4967 46.0757C33.6404 46.2479 33.7851 46.4194 33.9297 46.591C34.3944 47.142 34.8594 47.6934 35.2951 48.2676C35.4137 48.4227 35.4288 48.7784 35.3317 48.9524C35.0278 49.501 34.6986 50.0546 34.2837 50.5212C33.6203 51.2666 33.6569 52.0674 33.7956 52.9767C34.2293 55.8124 34.6321 58.6523 35.0349 61.4923C35.1779 62.5007 35.321 63.5091 35.4654 64.5174C35.4775 64.6004 35.4836 64.6852 35.492 64.8001Z" fill="#0B2D1F"/>
</g>
</g>
</g>
</svg>
