<svg width="72" height="72" viewBox="0 0 72 72" fill="none" xmlns="http://www.w3.org/2000/svg">
<g id="my-attendance">
<g id="Group 1171275527">
<path id="Vector 846" d="M29.2431 48.121L31.6674 44.7271H33.1219L35.5462 47.6361V48.6058L33.6068 51.0301L35.5462 64.6058H28.2734L30.6977 51.0301L29.2431 48.121Z" fill="#22885E"/>
<g id="Group 1171275526">
<g id="Ellipse 2616">
<mask id="path-2-outside-1_6358_46298" maskUnits="userSpaceOnUse" x="46.6367" y="48.5454" width="22" height="22" fill="black">
<rect fill="white" x="46.6367" y="48.5454" width="22" height="22"/>
<path d="M66.0913 59.2727C66.0913 64.0926 62.1839 68 57.364 68C52.5441 68 48.6367 64.0926 48.6367 59.2727C48.6367 54.4527 52.5441 50.5454 57.364 50.5454C62.1839 50.5454 66.0913 54.4527 66.0913 59.2727Z"/>
</mask>
<path d="M66.0913 59.2727C66.0913 64.0926 62.1839 68 57.364 68C52.5441 68 48.6367 64.0926 48.6367 59.2727C48.6367 54.4527 52.5441 50.5454 57.364 50.5454C62.1839 50.5454 66.0913 54.4527 66.0913 59.2727Z" fill="#22885E"/>
<path d="M66.0913 59.2727C66.0913 64.0926 62.1839 68 57.364 68C52.5441 68 48.6367 64.0926 48.6367 59.2727C48.6367 54.4527 52.5441 50.5454 57.364 50.5454C62.1839 50.5454 66.0913 54.4527 66.0913 59.2727Z" stroke="#0B2D1F" stroke-width="3.41053" mask="url(#path-2-outside-1_6358_46298)"/>
</g>
<path id="Vector" d="M56.0489 62.9993L52.668 59.6183C52.4648 59.4152 52.4648 59.0859 52.668 58.8827L53.4035 58.1471C53.6067 57.944 53.936 57.944 54.1391 58.1471L56.4167 60.4247L61.295 55.5464C61.4981 55.3433 61.8275 55.3433 62.0306 55.5464L62.7662 56.282C62.9693 56.4851 62.9693 56.8144 62.7662 57.0176L56.7845 62.9993C56.5814 63.2024 56.252 63.2024 56.0489 62.9993Z" fill="#0B2D1F"/>
</g>
<g id="Group">
<path id="Vector_2" d="M33.9597 4.00124C34.8751 4.23847 35.8228 4.39248 36.7009 4.72659C39.5675 5.81709 41.5957 7.80807 42.8191 10.6287C42.916 10.8535 43.1731 11.0945 43.4041 11.1616C45.8025 11.8621 47.2134 13.6667 47.2432 16.1769C47.2644 17.9356 47.2569 19.6943 47.2408 21.453C47.237 21.8517 47.3463 22.1262 47.6482 22.4169C49.0206 23.7384 49.5646 25.358 49.0815 27.2185C48.5759 29.1611 47.2979 30.377 45.3442 30.885C45.1156 30.9446 44.7865 31.0937 44.7294 31.2725C43.9929 33.5852 42.4565 35.324 40.7536 36.9561C39.9177 37.7572 39.1117 38.5906 38.2919 39.4091C37.3207 40.3791 36.1817 41.015 34.7832 41.0349C33.0667 41.0597 31.3502 41.0573 29.635 41.0324C28.3544 41.0138 27.2602 40.4884 26.3597 39.6053C24.9426 38.2155 23.5515 36.7971 22.1629 35.3775C21.0898 34.2807 20.3321 32.9828 19.8415 31.5334C19.7074 31.1384 19.4975 30.9546 19.0777 30.8552C17.1376 30.3944 15.8782 29.1673 15.3665 27.2533C14.8709 25.3965 15.3975 23.7707 16.7625 22.4405C17.0755 22.1349 17.2047 21.853 17.1985 21.4269C17.165 19.2534 17.1314 17.0761 17.776 14.9647C19.3845 9.70341 22.8187 6.23938 28.0725 4.61853C29.0524 4.31672 30.0895 4.20121 31.1006 4C32.0557 4.00124 33.0071 4.00124 33.9597 4.00124ZM21.2748 23.0341C21.2748 25.0673 21.1916 27.0111 21.2984 28.945C21.4053 30.8639 22.2387 32.5431 23.554 33.9379C24.8879 35.3514 26.2902 36.7015 27.6614 38.0814C28.342 38.767 29.1642 39.065 30.1256 39.0539C31.4496 39.0377 32.7761 39.0141 34.0988 39.0601C35.28 39.1011 36.2227 38.6924 37.0337 37.8503C38.0671 36.7772 39.1179 35.719 40.1947 34.6906C42.3236 32.6562 43.3358 30.1808 43.2588 27.2397C43.2265 26.0187 43.2352 24.7966 43.2625 23.5769C43.2725 23.1236 43.1495 22.9397 42.675 22.8478C40.735 22.4703 39.1353 21.4953 37.9032 19.9427C37.5765 19.5304 37.2933 19.0832 36.9791 18.6373C36.4599 19.0348 35.9979 19.4173 35.5085 19.7601C32.1886 22.0827 28.4786 23.0962 24.4495 23.0379C23.3975 23.0205 22.3442 23.0341 21.2748 23.0341ZM19.2454 21.0233C21.3183 21.0233 23.323 21.0519 25.3264 21.0171C29.471 20.9475 33.0717 19.4956 36.1146 16.6737C36.5456 16.2738 36.9729 15.8701 37.4921 15.3832C39.0744 18.6759 41.0269 21.3909 45.2411 21.0307C45.2411 19.4372 45.256 17.8275 45.2374 16.2191C45.215 14.2902 44.0463 13.0755 42.1124 13.0221C41.5932 13.0085 41.4243 12.8234 41.2765 12.3614C40.1748 8.93584 37.8907 6.69645 34.3112 6.1661C29.9653 5.52273 26.1051 6.74365 22.9652 9.89965C19.8912 12.9911 18.9113 16.8029 19.2454 21.0233ZM19.1621 28.7798C19.1621 26.9366 19.1621 25.1332 19.1621 23.3111C18.0182 23.6614 17.2333 24.7457 17.1997 25.9517C17.1637 27.2223 17.935 28.3525 19.1621 28.7798ZM45.2572 28.7785C46.5117 28.3736 47.3327 27.1254 47.2358 25.8374C47.1451 24.6264 46.2683 23.5024 45.2572 23.3484C45.2572 25.1468 45.2572 26.9391 45.2572 28.7785Z" fill="#0B2D1F"/>
</g>
<path id="Subtract" fill-rule="evenodd" clip-rule="evenodd" d="M5.24844 64.5691C5.16629 65.0629 5.08365 65.5597 5 66.0609H47.3507C46.5463 65.4944 45.8236 64.8195 45.2041 64.0575H37.0904C36.8399 62.2994 36.5895 60.5488 36.3391 58.7981L36.3377 58.7888C36.2498 58.175 36.1641 57.5609 36.0784 56.9469C35.8639 55.4099 35.6494 53.8731 35.4 52.3414C35.2857 51.6421 35.3168 51.0509 35.7999 50.5019C35.9629 50.3171 36.0952 50.105 36.2395 49.8737C36.3085 49.763 36.3802 49.648 36.4594 49.5294C36.7688 49.8959 37.0702 50.2532 37.3725 50.6116C37.8131 51.1339 38.2558 51.6587 38.7286 52.2184C39.4801 49.2077 40.2029 46.315 40.9432 43.3528C41.4335 43.5164 41.9162 43.6765 42.3939 43.8349C43.3125 44.1395 44.2121 44.4378 45.1102 44.7426C45.5339 44.8867 45.9592 45.0272 46.3844 45.1678C47.5098 45.5397 48.6355 45.9117 49.7343 46.3498C50.1822 46.5284 50.6061 46.7307 51.005 46.9564C51.8008 46.767 52.6311 46.6667 53.4848 46.6667C53.6505 46.6667 53.8152 46.6704 53.979 46.6779C52.9419 45.7089 51.6715 44.9326 50.159 44.3638C48.2979 43.665 46.4044 43.0499 44.5113 42.435C43.8069 42.2062 43.1026 41.9774 42.4001 41.7444L42.3486 41.7273C41.3206 41.3869 41.314 41.3847 41.2077 40.2837C41.2045 40.2455 41.189 40.2084 41.1703 40.1636C41.1605 40.14 41.1497 40.1142 41.1394 40.085H39.2615C39.3344 41.8541 38.8871 43.5009 38.4285 45.1896C38.1845 46.0878 37.9374 46.9979 37.7636 47.9446C37.4684 47.5929 37.1726 47.2636 36.8856 46.944C36.2714 46.2602 35.6969 45.6206 35.2534 44.9004C34.2821 43.323 32.9793 42.7579 31.2255 43.082C30.951 43.1329 30.6244 43.2509 30.4517 43.4509C29.6901 44.3307 28.947 45.2261 28.2037 46.1217C27.8768 46.5157 27.5498 46.9097 27.2212 47.3025C27.1242 47.4184 27.0184 47.5278 26.8845 47.6664C26.8161 47.7371 26.7404 47.8154 26.6548 47.9061C26.4885 46.9314 26.2332 45.9962 25.9811 45.0729C25.531 43.4242 25.0912 41.8133 25.1867 40.0825H23.2777C23.2706 40.1344 23.2601 40.1832 23.2502 40.2294C23.2309 40.3191 23.2137 40.3991 23.2268 40.4738C23.3473 41.1556 23.0281 41.4351 22.3922 41.6363C19.887 42.4275 17.3955 43.2596 14.9102 44.1104C10.6786 45.5599 8.05788 48.4575 7.22945 52.8767C6.85308 54.8857 6.52134 56.9028 6.18956 58.9201C6.05163 59.7587 5.91369 60.5974 5.77254 61.4355C5.59666 62.4756 5.42366 63.5157 5.24844 64.5691ZM23.3233 43.4347C23.3767 43.4225 23.437 43.4086 23.5075 43.3913C24.2341 46.3001 24.9545 49.1829 25.7159 52.2259C26.1982 51.651 26.6548 51.1076 27.112 50.5633C27.3977 50.2233 27.6836 49.883 27.9764 49.5344C28.0847 49.6958 28.1907 49.8521 28.2944 50.0051C28.5698 50.4115 28.8292 50.7944 29.0755 51.185C29.1439 51.2931 29.1501 51.4645 29.1314 51.5999C28.5464 55.7358 27.9552 59.8718 27.3578 64.0488H16.3099C16.4868 62.2621 16.6628 60.4927 16.8395 58.7158C16.9556 57.5479 17.0721 56.3768 17.1893 55.1956L17.1207 55.1883C16.4896 55.1215 15.8985 55.0589 15.2356 54.9894C15.2201 55.0784 15.2036 55.1632 15.1877 55.2454C15.1551 55.4132 15.1247 55.57 15.1089 55.7284C15.0678 56.1464 15.0265 56.5643 14.9852 56.9822C14.7721 59.1388 14.559 61.295 14.3687 63.4538C14.3252 63.9457 14.1687 64.1196 13.657 64.1121C12.3561 64.0924 11.0546 64.0952 9.75335 64.098C9.17115 64.0992 8.589 64.1005 8.00696 64.0997C7.88645 64.0997 7.76595 64.091 7.62437 64.0809C7.55145 64.0756 7.47293 64.07 7.38595 64.0649C7.4517 63.6555 7.51623 63.2501 7.5803 62.8477C7.71953 61.973 7.8566 61.1119 7.99951 60.2519C8.16617 59.2468 8.33537 58.242 8.50459 57.2372C8.7099 56.0179 8.91524 54.7986 9.11609 53.5784C9.73959 49.7989 11.861 47.2801 15.479 46.0405C17.3155 45.4112 19.1586 44.7996 21.0015 44.1881C21.69 43.9596 22.3785 43.7312 23.0666 43.5018C23.142 43.4764 23.2196 43.4586 23.3233 43.4347ZM35.03 63.8789C35.0338 63.9308 35.038 63.989 35.0435 64.0562H35.0175C33.1265 64.0562 31.3037 64.0562 29.401 64.0575C29.4084 63.9798 29.4146 63.9062 29.4206 63.8353C29.4325 63.6929 29.4436 63.5617 29.4618 63.4315C29.5534 62.79 29.6448 62.1485 29.7363 61.507C30.2143 58.1539 30.6924 54.8004 31.1845 51.4496C31.2504 51.0062 31.1696 50.6597 30.9075 50.2982C30.642 49.9326 30.394 49.5549 30.146 49.1773C29.9509 48.8803 29.7559 48.5833 29.5525 48.2923C29.3712 48.0328 29.3476 47.8477 29.5736 47.5906C29.967 47.1414 30.3467 46.6805 30.7263 46.2196C30.9387 45.9618 31.1511 45.7039 31.3659 45.4481C31.8155 44.9115 32.6228 44.9091 33.065 45.4382C33.2065 45.6077 33.3489 45.7766 33.4914 45.9455C33.949 46.4883 34.407 47.0313 34.8361 47.5968C34.9528 47.7496 34.9678 48.0998 34.8721 48.2712C34.5728 48.8115 34.2486 49.3568 33.84 49.8163C33.1867 50.5504 33.2227 51.3391 33.3593 52.2346C33.7864 55.0274 34.1831 57.8242 34.5798 60.6211C34.7207 61.6143 34.8615 62.6074 35.0038 63.6004C35.0157 63.6821 35.0218 63.7656 35.03 63.8789Z" fill="#0B2D1F"/>
</g>
</g>
</svg>
