<svg width="36" height="36" viewBox="0 0 36 36" fill="none" xmlns="http://www.w3.org/2000/svg">
<g id="my-cash-advance">
<g id="Group 1171274849">
<path id="Rectangle 34624694" d="M19.5428 23.4925C19.5428 22.1359 20.6426 21.0361 21.9992 21.0361H26.8579C28.2145 21.0361 29.3143 22.1359 29.3143 23.4925C29.3143 24.8492 28.2145 25.9489 26.8579 25.9489H21.9992C20.6426 25.9489 19.5428 24.8492 19.5428 23.4925Z" fill="#FFA600"/>
<path id="Rectangle 34624665" d="M10.3583 13.6481L22.7647 4.34146L27.3207 11.1837L21.8571 15.0317L11.5714 15.0317L10.3583 13.6481Z" fill="#FFA600"/>
<g id="Group 1171274844">
<g id="Group">
<path id="Vector" d="M9.5246 30.7829H26.1171C27.6765 30.7829 28.9547 29.568 28.9547 28.0867V26.0128C29.4858 25.657 29.8286 25.0644 29.8286 24.4124V22.3385C29.8286 21.6876 29.4858 21.0951 28.9547 20.7393V15.7027C28.9547 15.4362 28.9246 15.1684 28.8304 14.9019C28.6433 13.9251 27.8322 13.1838 26.8026 13.066C26.5854 13.0065 26.367 12.9767 26.1171 12.9767H25.7115L27.9578 11.3466C28.175 11.1991 28.2064 10.9028 28.0507 10.7244L22.9355 4.29559C22.7798 4.08855 22.4684 4.05881 22.28 4.20635L10.0545 13.0065H9.5246C9.30613 13.0065 9.05627 13.0362 8.83779 13.0945C7.80822 13.2135 6.96698 13.9548 6.81003 14.9317C6.71712 15.1684 6.68573 15.4362 6.68573 15.7027V28.0867C6.68573 29.568 7.96391 30.7829 9.5246 30.7829ZM27.8008 28.0867C27.8008 28.9755 27.0525 29.687 26.1171 29.687H9.5246C8.58793 29.687 7.83961 28.9755 7.83961 28.0867V17.1543C8.21377 17.3613 8.61932 17.5101 9.08766 17.5101H26.5226C26.9897 17.5101 27.4267 17.3911 27.7694 17.1543V20.3836H27.7393H22.2499C20.5034 20.3836 19.0997 21.7162 19.0997 23.376C19.0997 25.0347 20.5034 26.3685 22.2499 26.3685H27.7694H27.8008V28.0867ZM28.8304 22.3385V24.4124C28.8304 24.9466 28.3621 25.3905 27.8008 25.3905H22.2499C21.0646 25.3905 20.128 24.4719 20.128 23.376C20.128 22.2504 21.096 21.3616 22.2499 21.3616H27.7694C28.3621 21.3616 28.8304 21.8054 28.8304 22.3385ZM22.4684 5.21415L27.0211 10.9326L24.1207 13.0065L24.0893 13.0362L21.5945 14.8436H19.224C19.6609 14.7841 20.0664 14.6354 20.4406 14.3689C21.0332 13.9548 21.376 13.4206 21.5003 12.74C21.6259 12.0582 21.4702 11.4359 21.0332 10.8731C20.5963 10.3103 20.0351 9.98426 19.3181 9.86528C18.5999 9.74748 17.9458 9.89503 17.3531 10.3103C16.7605 10.7244 16.4165 11.2586 16.2922 11.9392C16.1679 12.621 16.3236 13.2433 16.7605 13.8061C17.1962 14.3689 17.7587 14.6949 18.4756 14.8139C18.507 14.8139 18.5384 14.8139 18.5685 14.8139H13.6718L12.8305 13.7763L14.0158 12.9172L13.5475 12.3247L11.7068 13.6288L12.6435 14.8139H11.3954C11.3954 14.7841 11.3954 14.7841 11.3954 14.7544C11.3954 14.6354 11.364 14.5473 11.3012 14.4581L10.6785 13.6585L22.4684 5.21415ZM18.5999 14.0726C18.1015 13.9834 17.6959 13.7763 17.3833 13.3623C17.0719 12.9767 16.979 12.5317 17.0405 12.0582C17.1347 11.5834 17.3531 11.1991 17.7888 10.9028C18.1329 10.666 18.4756 10.5768 18.8498 10.5768C18.9427 10.5768 19.0683 10.5768 19.1612 10.6066C19.6609 10.6946 20.0665 10.9028 20.3778 11.3169C20.6905 11.7024 20.7834 12.1474 20.7206 12.621C20.6277 13.0945 20.4092 13.48 19.9723 13.7763C19.5667 14.0428 19.0997 14.1618 18.5999 14.0726ZM9.11904 14.0428H9.80459L10.4286 14.8436H9.49321C9.24335 14.8436 9.02488 15.0507 9.02488 15.2874C9.02488 15.5242 9.24335 15.7324 9.49321 15.7324H26.1171C26.367 15.7324 26.5854 15.5242 26.5854 15.2874C26.5854 15.0507 26.367 14.8436 26.1171 14.8436H23.1225L24.2149 14.0428H26.4913C27.2082 14.0428 27.8008 14.6056 27.8008 15.2874C27.8008 15.9692 27.2082 16.532 26.4913 16.532H9.11904C8.40085 16.532 7.80822 15.9692 7.80822 15.2874C7.80822 14.6056 8.40085 14.0428 9.11904 14.0428Z" fill="black"/>
</g>
<path id="Vector_2" d="M22.4056 21.9242C21.5631 21.9242 20.8776 22.5762 20.8776 23.3758C20.8776 24.1754 21.5631 24.8274 22.4056 24.8274C23.2481 24.8274 23.9336 24.1754 23.9336 23.3758C23.9336 22.5762 23.2481 21.9242 22.4056 21.9242ZM22.4056 24.0862C22.0001 24.0862 21.6573 23.7613 21.6573 23.3758C21.6573 22.9903 22.0001 22.6643 22.4056 22.6643C22.8112 22.6643 23.1539 22.9903 23.1539 23.3758C23.1539 23.7613 22.8425 24.0862 22.4056 24.0862Z" fill="black"/>
<path id="Vector_3" d="M21.9998 7.16905L22.9038 8.29584L23.5278 7.82109L22.1555 6.13269L20.3462 7.43558L20.8145 8.02812L21.9998 7.16905Z" fill="black"/>
<path id="Vector_4" d="M24.1835 12.2654L25.9928 10.9328L24.6506 9.24316L24.0278 9.68817L24.9004 10.8138L23.7151 11.6728L24.1835 12.2654Z" fill="black"/>
</g>
</g>
</g>
</svg>
