<svg width="72" height="72" viewBox="0 0 72 72" fill="none" xmlns="http://www.w3.org/2000/svg">
<g id="my-working-calendar">
<g id="Group 1171275195">
<g id="Group 1171275194">
<g id="Group 1171274914">
<g id="Group 1171274859">
<path id="Vector 314" d="M7.21484 24.9266V16.356H47.9254V24.9266H7.21484Z" fill="#22885E" stroke="#22885E" stroke-width="0.56446"/>
<g id="Vector">
<path d="M11.082 36.1056H14.8014V32.3862H11.082V36.1056Z" fill="#0B2D1F"/>
<path d="M18.5209 36.1056H22.2403V32.3862H18.5209V36.1056Z" fill="#0B2D1F"/>
<path d="M25.9597 36.1056H29.6791V32.3862H25.9597V36.1056Z" fill="#0B2D1F"/>
<path d="M33.3981 36.1056H37.1175V32.3862H33.3981V36.1056Z" fill="#0B2D1F"/>
<path d="M40.8369 36.1056H44.5563V32.3862H40.8369V36.1056Z" fill="#0B2D1F"/>
<path d="M11.082 43.5442H14.8014V39.8248H11.082V43.5442Z" fill="#0B2D1F"/>
<path d="M18.5209 43.5442H22.2403V39.8248H18.5209V43.5442Z" fill="#0B2D1F"/>
<path d="M25.9597 43.5442H29.6791V39.8248H25.9597V43.5442Z" fill="#0B2D1F"/>
<path d="M33.3981 43.5442H37.1175V39.8248H33.3981V43.5442Z" fill="#0B2D1F"/>
<path d="M40.8369 43.5442H44.5563V39.8248H40.8369V43.5442Z" fill="#0B2D1F"/>
<path d="M11.082 50.9831H14.8014V47.2637H11.082V50.9831Z" fill="#0B2D1F"/>
<path d="M18.5209 50.9831H22.2403V47.2637H18.5209V50.9831Z" fill="#0B2D1F"/>
<path d="M25.9597 50.9831H29.6791V47.2637H25.9597V50.9831Z" fill="#0B2D1F"/>
<path d="M33.3981 50.9831H37.1175V47.2637H33.3981V50.9831Z" fill="#0B2D1F"/>
</g>
</g>
<path id="Subtract" fill-rule="evenodd" clip-rule="evenodd" d="M11.8246 14.7193V12.8596V10.9999H13.6843H15.544V12.8596V14.7193H27.8179H40.0919V12.8596V10.9999H41.9515H43.8112V12.8596V14.7193H45.1874C46.0243 14.7193 46.8053 14.7751 47.2052 14.8588C49.2973 15.2958 51.0454 17.0439 51.4824 19.1361C51.591 19.6541 51.6419 29.2148 51.6353 38.2231C50.244 38.2668 48.9552 38.8042 47.886 39.6947L47.9025 28.481H27.8179H7.73332L7.75192 41.0618L7.77981 53.6518L8.03087 54.0145C8.17035 54.2097 8.44 54.4794 8.63527 54.6096L8.97931 54.842H27.8179H42.266C41.1635 55.9997 40.3315 57.2953 39.8522 58.5902C28.7987 58.6578 9.14055 58.6172 8.4307 58.4684C6.33856 58.0314 4.59045 56.2833 4.15342 54.1912C3.94886 53.2148 3.94886 20.1124 4.15342 19.1361C4.59045 17.0439 6.33856 15.2958 8.4307 14.8588C8.83053 14.7751 9.6116 14.7193 10.4578 14.7193H11.8246ZM11.8246 22.1581V20.2984V18.4387L10.5507 18.448C9.84406 18.448 9.13738 18.4945 8.97931 18.541C8.57948 18.6526 7.94718 19.3127 7.8263 19.7219C7.77981 19.9171 7.73332 21.1166 7.73332 22.4091V24.7616H27.8272H47.9118L47.8839 22.2231L47.856 19.6754L47.605 19.3127C47.4655 19.1175 47.1959 18.8478 47.0006 18.7176C46.6844 18.4945 46.5729 18.4852 45.2339 18.4573L43.8112 18.4201V20.2891V22.1581H41.9515H40.0919V20.2984V18.4387H27.8179H15.544V20.2984V22.1581H13.6843H11.8246Z" fill="#0B2D1F"/>
</g>
</g>
<g id="Group">
<g id="Vector_2">
<mask id="path-4-outside-1_6230_46405" maskUnits="userSpaceOnUse" x="43.9258" y="40.5078" width="25" height="22" fill="black">
<rect fill="white" x="43.9258" y="40.5078" width="25" height="22"/>
<path d="M65.4372 44.9583H63.0726C62.8166 44.5325 62.36 44.241 61.834 44.2225V44.187C61.834 42.7094 60.6325 41.5078 59.1533 41.5078H53.7732C52.294 41.5078 51.0925 42.7094 51.0925 44.187V44.2225C50.5665 44.241 50.1099 44.5325 49.8539 44.9567H47.4893C46.0764 44.9583 44.9258 46.1074 44.9258 47.5202V49.9295C44.9258 50.801 45.117 51.6123 45.4965 52.345V58.8125C45.4965 60.375 46.769 61.6475 48.333 61.6475H64.5935C66.1575 61.6475 67.43 60.375 67.43 58.8125V52.345C67.8094 51.6123 68.0007 50.801 68.0007 49.9295V47.5202C68.0007 46.1074 66.85 44.9583 65.4372 44.9583ZM52.6303 44.7716V44.187C52.6303 43.5577 53.1424 43.0456 53.7732 43.0456H59.1533C59.7841 43.0456 60.2962 43.5577 60.2962 44.187V44.7716C60.2962 44.8349 60.3024 44.8966 60.3147 44.9583H52.6118C52.6241 44.8966 52.6303 44.8349 52.6303 44.7716ZM46.4651 47.5202C46.4651 46.9542 46.9248 46.4945 47.4893 46.4945H65.4356C66.0017 46.4945 66.4613 46.9542 66.4613 47.5202V49.9295C66.4613 50.6051 66.304 51.2237 65.9924 51.7712L65.9539 51.8391C65.2089 52.9481 63.8562 53.6299 62.1703 53.6299H58.8417V53.4571C58.8417 52.8602 58.3558 52.3743 57.7589 52.3743H55.1676C54.5707 52.3743 54.0848 52.8602 54.0848 53.4571V53.6299H50.7562C49.0703 53.6299 47.7176 52.9481 46.9711 51.8391L46.934 51.7712C46.6225 51.2237 46.4651 50.6051 46.4651 49.9295V47.5202ZM57.5599 53.6561V56.2705H55.3666V53.6561H57.5599ZM64.5935 60.1097H48.333C47.6158 60.1097 47.0343 59.5282 47.0343 58.8125V53.7394C48.0122 54.4797 49.2955 54.9101 50.7562 54.9101H54.0848V56.4695C54.0848 57.0664 54.5707 57.5523 55.1676 57.5523H57.7589C58.3558 57.5523 58.8417 57.0664 58.8417 56.4695V54.9101H62.1703C63.6325 54.9101 64.9143 54.4797 65.8922 53.7394V58.8125C65.8922 59.5282 65.3091 60.1097 64.5935 60.1097Z"/>
<path d="M46.4651 47.5202C46.4651 46.9542 46.9248 46.4945 47.4893 46.4945H65.4356C66.0017 46.4945 66.4613 46.9542 66.4613 47.5202V49.9295C66.4613 50.6051 66.304 51.2237 65.9924 51.7712L65.9539 51.8391C65.2089 52.9481 63.8562 53.6299 62.1703 53.6299H58.8417V53.4571C58.8417 52.8602 58.3558 52.3743 57.7589 52.3743H55.1676C54.5707 52.3743 54.0848 52.8602 54.0848 53.4571V53.6299H50.7562C49.0703 53.6299 47.7176 52.9481 46.9711 51.8391L46.934 51.7712C46.6225 51.2237 46.4651 50.6051 46.4651 49.9295V47.5202Z"/>
</mask>
<path d="M65.4372 44.9583H63.0726C62.8166 44.5325 62.36 44.241 61.834 44.2225V44.187C61.834 42.7094 60.6325 41.5078 59.1533 41.5078H53.7732C52.294 41.5078 51.0925 42.7094 51.0925 44.187V44.2225C50.5665 44.241 50.1099 44.5325 49.8539 44.9567H47.4893C46.0764 44.9583 44.9258 46.1074 44.9258 47.5202V49.9295C44.9258 50.801 45.117 51.6123 45.4965 52.345V58.8125C45.4965 60.375 46.769 61.6475 48.333 61.6475H64.5935C66.1575 61.6475 67.43 60.375 67.43 58.8125V52.345C67.8094 51.6123 68.0007 50.801 68.0007 49.9295V47.5202C68.0007 46.1074 66.85 44.9583 65.4372 44.9583ZM52.6303 44.7716V44.187C52.6303 43.5577 53.1424 43.0456 53.7732 43.0456H59.1533C59.7841 43.0456 60.2962 43.5577 60.2962 44.187V44.7716C60.2962 44.8349 60.3024 44.8966 60.3147 44.9583H52.6118C52.6241 44.8966 52.6303 44.8349 52.6303 44.7716ZM46.4651 47.5202C46.4651 46.9542 46.9248 46.4945 47.4893 46.4945H65.4356C66.0017 46.4945 66.4613 46.9542 66.4613 47.5202V49.9295C66.4613 50.6051 66.304 51.2237 65.9924 51.7712L65.9539 51.8391C65.2089 52.9481 63.8562 53.6299 62.1703 53.6299H58.8417V53.4571C58.8417 52.8602 58.3558 52.3743 57.7589 52.3743H55.1676C54.5707 52.3743 54.0848 52.8602 54.0848 53.4571V53.6299H50.7562C49.0703 53.6299 47.7176 52.9481 46.9711 51.8391L46.934 51.7712C46.6225 51.2237 46.4651 50.6051 46.4651 49.9295V47.5202ZM57.5599 53.6561V56.2705H55.3666V53.6561H57.5599ZM64.5935 60.1097H48.333C47.6158 60.1097 47.0343 59.5282 47.0343 58.8125V53.7394C48.0122 54.4797 49.2955 54.9101 50.7562 54.9101H54.0848V56.4695C54.0848 57.0664 54.5707 57.5523 55.1676 57.5523H57.7589C58.3558 57.5523 58.8417 57.0664 58.8417 56.4695V54.9101H62.1703C63.6325 54.9101 64.9143 54.4797 65.8922 53.7394V58.8125C65.8922 59.5282 65.3091 60.1097 64.5935 60.1097Z" fill="#0B2D1F"/>
<path d="M46.4651 47.5202C46.4651 46.9542 46.9248 46.4945 47.4893 46.4945H65.4356C66.0017 46.4945 66.4613 46.9542 66.4613 47.5202V49.9295C66.4613 50.6051 66.304 51.2237 65.9924 51.7712L65.9539 51.8391C65.2089 52.9481 63.8562 53.6299 62.1703 53.6299H58.8417V53.4571C58.8417 52.8602 58.3558 52.3743 57.7589 52.3743H55.1676C54.5707 52.3743 54.0848 52.8602 54.0848 53.4571V53.6299H50.7562C49.0703 53.6299 47.7176 52.9481 46.9711 51.8391L46.934 51.7712C46.6225 51.2237 46.4651 50.6051 46.4651 49.9295V47.5202Z" fill="#22885E"/>
<path d="M65.9924 51.7712L65.8186 51.6723L65.8186 51.6724L65.9924 51.7712ZM65.9539 51.8391L66.1199 51.9506L66.1241 51.9444L66.1278 51.9379L65.9539 51.8391ZM58.8417 53.6299H58.6417V53.8299H58.8417V53.6299ZM54.0848 53.6299V53.8299H54.2848V53.6299H54.0848ZM46.9711 51.8391L46.7955 51.9349L46.7999 51.943L46.8051 51.9508L46.9711 51.8391ZM46.934 51.7712L47.1096 51.6754L47.1079 51.6723L46.934 51.7712ZM46.6651 47.5202C46.6651 47.0644 47.0354 46.6945 47.4893 46.6945V46.2945C46.8141 46.2945 46.2651 46.8439 46.2651 47.5202H46.6651ZM47.4893 46.6945H65.4356V46.2945H47.4893V46.6945ZM65.4356 46.6945C65.8912 46.6945 66.2613 47.0646 66.2613 47.5202H66.6613C66.6613 46.8437 66.1122 46.2945 65.4356 46.2945V46.6945ZM66.2613 47.5202V49.9295H66.6613V47.5202H66.2613ZM66.2613 49.9295C66.2613 50.5731 66.1118 51.1571 65.8186 51.6723L66.1663 51.8701C66.4963 51.2902 66.6613 50.6372 66.6613 49.9295H66.2613ZM65.8186 51.6724L65.78 51.7403L66.1278 51.9379L66.1663 51.87L65.8186 51.6724ZM65.7879 51.7276C65.0867 52.7714 63.8024 53.4299 62.1703 53.4299V53.8299C63.9099 53.8299 65.3311 53.1248 66.1199 51.9506L65.7879 51.7276ZM62.1703 53.4299H58.8417V53.8299H62.1703V53.4299ZM59.0417 53.6299V53.4571H58.6417V53.6299H59.0417ZM59.0417 53.4571C59.0417 52.7497 58.4663 52.1743 57.7589 52.1743V52.5743C58.2454 52.5743 58.6417 52.9706 58.6417 53.4571H59.0417ZM57.7589 52.1743H55.1676V52.5743H57.7589V52.1743ZM55.1676 52.1743C54.4602 52.1743 53.8848 52.7497 53.8848 53.4571H54.2848C54.2848 52.9706 54.6811 52.5743 55.1676 52.5743V52.1743ZM53.8848 53.4571V53.6299H54.2848V53.4571H53.8848ZM54.0848 53.4299H50.7562V53.8299H54.0848V53.4299ZM50.7562 53.4299C49.1241 53.4299 47.8398 52.7714 47.137 51.7274L46.8051 51.9508C47.5954 53.1248 49.0165 53.8299 50.7562 53.8299V53.4299ZM47.1466 51.7433L47.1096 51.6754L46.7585 51.867L46.7955 51.9349L47.1466 51.7433ZM47.1079 51.6723C46.8147 51.1571 46.6651 50.5731 46.6651 49.9295H46.2651C46.2651 50.6372 46.4302 51.2902 46.7602 51.8701L47.1079 51.6723ZM46.6651 49.9295V47.5202H46.2651V49.9295H46.6651ZM63.0726 44.9583L62.7298 45.1644L62.8464 45.3583H63.0726V44.9583ZM61.834 44.2225H61.434V44.6087L61.82 44.6223L61.834 44.2225ZM51.0925 44.2225L51.1065 44.6223L51.4925 44.6087V44.2225H51.0925ZM49.8539 44.9567V45.3567H50.0797L50.1963 45.1634L49.8539 44.9567ZM47.4893 44.9567V44.5567L47.4889 44.5567L47.4893 44.9567ZM45.4965 52.345H45.8965V52.2476L45.8517 52.1611L45.4965 52.345ZM67.43 52.345L67.0748 52.1611L67.03 52.2476V52.345H67.43ZM60.3147 44.9583V45.3583H60.8026L60.707 44.8798L60.3147 44.9583ZM52.6118 44.9583L52.2195 44.8798L52.1238 45.3583H52.6118V44.9583ZM57.5599 53.6561H57.9599V53.2561H57.5599V53.6561ZM57.5599 56.2705V56.6705H57.9599V56.2705H57.5599ZM55.3666 56.2705H54.9666V56.6705H55.3666V56.2705ZM55.3666 53.6561V53.2561H54.9666V53.6561H55.3666ZM47.0343 53.7394L47.2757 53.4205L46.6343 52.9348V53.7394H47.0343ZM54.0848 54.9101H54.4848V54.5101H54.0848V54.9101ZM58.8417 54.9101V54.5101H58.4417V54.9101H58.8417ZM65.8922 53.7394H66.2922V52.9348L65.6507 53.4205L65.8922 53.7394ZM65.4372 44.5583H63.0726V45.3583H65.4372V44.5583ZM63.4154 44.7521C63.0936 44.217 62.5169 43.8463 61.8481 43.8228L61.82 44.6223C62.2031 44.6357 62.5396 44.8481 62.7298 45.1644L63.4154 44.7521ZM62.234 44.2225V44.187H61.434V44.2225H62.234ZM62.234 44.187C62.234 42.4883 60.8532 41.1078 59.1533 41.1078V41.9078C60.4117 41.9078 61.434 42.9304 61.434 44.187H62.234ZM59.1533 41.1078H53.7732V41.9078H59.1533V41.1078ZM53.7732 41.1078C52.0733 41.1078 50.6925 42.4883 50.6925 44.187H51.4925C51.4925 42.9304 52.5148 41.9078 53.7732 41.9078V41.1078ZM50.6925 44.187V44.2225H51.4925V44.187H50.6925ZM51.0784 43.8228C50.4098 43.8463 49.8333 44.2168 49.5114 44.75L50.1963 45.1634C50.3866 44.8483 50.7232 44.6358 51.1065 44.6223L51.0784 43.8228ZM49.8539 44.5567H47.4893V45.3567H49.8539V44.5567ZM47.4889 44.5567C45.8558 44.5585 44.5258 45.8861 44.5258 47.5202H45.3258C45.3258 46.3287 46.2971 45.358 47.4898 45.3567L47.4889 44.5567ZM44.5258 47.5202V49.9295H45.3258V47.5202H44.5258ZM44.5258 49.9295C44.5258 50.8611 44.7307 51.7361 45.1413 52.529L45.8517 52.1611C45.5034 51.4886 45.3258 50.7409 45.3258 49.9295H44.5258ZM45.0965 52.345V58.8125H45.8965V52.345H45.0965ZM45.0965 58.8125C45.0965 60.596 46.5482 62.0475 48.333 62.0475V61.2475C46.9898 61.2475 45.8965 60.1539 45.8965 58.8125H45.0965ZM48.333 62.0475H64.5935V61.2475H48.333V62.0475ZM64.5935 62.0475C66.3783 62.0475 67.83 60.596 67.83 58.8125H67.03C67.03 60.1539 65.9367 61.2475 64.5935 61.2475V62.0475ZM67.83 58.8125V52.345H67.03V58.8125H67.83ZM67.7852 52.529C68.1958 51.7361 68.4007 50.8611 68.4007 49.9295H67.6007C67.6007 50.7409 67.4231 51.4886 67.0748 52.1611L67.7852 52.529ZM68.4007 49.9295V47.5202H67.6007V49.9295H68.4007ZM68.4007 47.5202C68.4007 45.8861 67.0706 44.5583 65.4372 44.5583V45.3583C66.6294 45.3583 67.6007 46.3286 67.6007 47.5202H68.4007ZM53.0303 44.7716V44.187H52.2303V44.7716H53.0303ZM53.0303 44.187C53.0303 43.779 53.3629 43.4456 53.7732 43.4456V42.6456C52.9218 42.6456 52.2303 43.3365 52.2303 44.187H53.0303ZM53.7732 43.4456H59.1533V42.6456H53.7732V43.4456ZM59.1533 43.4456C59.5636 43.4456 59.8962 43.779 59.8962 44.187H60.6962C60.6962 43.3365 60.0047 42.6456 59.1533 42.6456V43.4456ZM59.8962 44.187V44.7716H60.6962V44.187H59.8962ZM59.8962 44.7716C59.8962 44.8614 59.905 44.9494 59.9225 45.0367L60.707 44.8798C60.6997 44.8438 60.6962 44.8083 60.6962 44.7716H59.8962ZM60.3147 44.5583H52.6118V45.3583H60.3147V44.5583ZM53.004 45.0367C53.0215 44.9494 53.0303 44.8614 53.0303 44.7716H52.2303C52.2303 44.8083 52.2267 44.8438 52.2195 44.8798L53.004 45.0367ZM57.1599 53.6561V56.2705H57.9599V53.6561H57.1599ZM57.5599 55.8705H55.3666V56.6705H57.5599V55.8705ZM55.7666 56.2705V53.6561H54.9666V56.2705H55.7666ZM55.3666 54.0561H57.5599V53.2561H55.3666V54.0561ZM64.5935 59.7097H48.333V60.5097H64.5935V59.7097ZM48.333 59.7097C47.8364 59.7097 47.4343 59.3069 47.4343 58.8125H46.6343C46.6343 59.7494 47.3952 60.5097 48.333 60.5097V59.7097ZM47.4343 58.8125V53.7394H46.6343V58.8125H47.4343ZM46.7929 54.0583C47.8466 54.8561 49.2166 55.3101 50.7562 55.3101V54.5101C49.3744 54.5101 48.1778 54.1034 47.2757 53.4205L46.7929 54.0583ZM50.7562 55.3101H54.0848V54.5101H50.7562V55.3101ZM53.6848 54.9101V56.4695H54.4848V54.9101H53.6848ZM53.6848 56.4695C53.6848 57.2873 54.3498 57.9523 55.1676 57.9523V57.1523C54.7916 57.1523 54.4848 56.8455 54.4848 56.4695H53.6848ZM55.1676 57.9523H57.7589V57.1523H55.1676V57.9523ZM57.7589 57.9523C58.5767 57.9523 59.2417 57.2873 59.2417 56.4695H58.4417C58.4417 56.8455 58.1349 57.1523 57.7589 57.1523V57.9523ZM59.2417 56.4695V54.9101H58.4417V56.4695H59.2417ZM58.8417 55.3101H62.1703V54.5101H58.8417V55.3101ZM62.1703 55.3101C63.7114 55.3101 65.0799 54.856 66.1336 54.0583L65.6507 53.4205C64.7486 54.1035 63.5536 54.5101 62.1703 54.5101V55.3101ZM65.4922 53.7394V58.8125H66.2922V53.7394H65.4922ZM65.4922 58.8125C65.4922 59.3066 65.0889 59.7097 64.5935 59.7097V60.5097C65.5294 60.5097 66.2922 59.7497 66.2922 58.8125H65.4922Z" fill="#0B2D1F" mask="url(#path-4-outside-1_6230_46405)"/>
</g>
</g>
</g>
</g>
</svg>
