<svg width="36" height="36" viewBox="0 0 36 36" fill="none" xmlns="http://www.w3.org/2000/svg">
<g id="payroll">
<rect id="Rectangle 34624670" x="13.8857" y="17.4858" width="8.22857" height="7.71429" fill="#FFA600"/>
<g id="Group">
<path id="Vector" d="M25.9482 10.9961L22.1697 7.21756C21.8153 6.86338 21.3336 6.66406 20.8339 6.66406H11.3878C10.3449 6.66406 9.49847 7.51045 9.49847 8.55334V27.4462C9.49847 28.4891 10.3449 29.3354 11.3878 29.3354H24.6125C25.6554 29.3354 26.5018 28.4891 26.5018 27.4462V12.3319C26.5018 11.8322 26.3024 11.3505 25.9483 10.9962L25.9482 10.9961ZM20.834 8.55334L24.6126 12.3319H20.834V8.55334ZM24.6126 27.4462H11.3879V8.55334H18.945V12.3319C18.945 13.3748 19.7914 14.2212 20.8343 14.2212H24.6128L24.6126 27.4462Z" fill="black"/>
</g>
<path id="Vector_2" d="M13.2769 17.0555V25.5572H22.723V17.0555H13.2769ZM14.2214 18.0001H18.9447V18.9448H14.2214V18.0001ZM14.2214 19.8893H18.9447V20.8341H14.2214V19.8893ZM19.889 20.8341V19.8893H21.7783V20.8341H19.889ZM21.7783 21.7786V22.7233H19.889V21.7786H21.7783ZM14.2211 21.7786H18.9444V22.7233H14.2211V21.7786ZM14.2211 24.6126V23.6679H18.9444V24.6126H14.2211ZM19.8887 24.6126V23.6679H21.778V24.6126H19.8887ZM21.778 18.945H19.8887V18.0003H21.778V18.945Z" fill="black"/>
<path id="Vector_3" d="M15.6384 14.2213H14.6937C14.434 14.2213 14.2213 14.4339 14.2213 14.6937C14.2213 14.9534 14.434 15.166 14.6937 15.166H15.1661V15.6384C15.1661 15.8981 15.3785 16.1106 15.6384 16.1106C15.8982 16.1106 16.1106 15.8981 16.1106 15.6384V15.0791C16.6595 14.8834 17.0553 14.363 17.0553 13.7489C17.0553 12.9687 16.4195 12.332 15.6384 12.332C15.3785 12.332 15.166 12.1196 15.166 11.8596C15.166 11.5999 15.3785 11.3874 15.6384 11.3874H16.5831C16.8427 11.3874 17.0553 11.1748 17.0553 10.9151C17.0553 10.6553 16.8427 10.4427 16.5829 10.4427H16.1106V9.97035C16.1106 9.7106 15.8981 9.49817 15.6384 9.49817C15.3785 9.49817 15.166 9.7106 15.166 9.97035V10.5297C14.6172 10.7253 14.2213 11.2457 14.2213 11.8596C14.2213 12.6419 14.8571 13.2767 15.6384 13.2767C15.8982 13.2767 16.1106 13.4892 16.1106 13.7489C16.1106 14.0089 15.8982 14.2213 15.6384 14.2213H15.6384Z" fill="black"/>
</g>
</svg>
