<svg width="72" height="72" viewBox="0 0 72 72" fill="none" xmlns="http://www.w3.org/2000/svg">
<g id="working-schedule-exchange-to-approve">
<g id="Group 1171275221">
<g id="Group 1171275204">
<g id="Group 1171275201">
<g id="Group 1171275195">
<g id="Group 1171275194">
<g id="Group 1171274914">
<g id="Group 1171274859">
<path id="Vector 314" d="M7.36328 24.5818V15.6079H49.9891V24.5818H7.36328Z" fill="#22885E" stroke="#22885E" stroke-width="0.56446"/>
<g id="Vector">
<path d="M11.4141 36.2869H15.3084V32.3926H11.4141V36.2869Z" fill="#0B2D1F"/>
<path d="M19.2029 36.2869H23.0972V32.3926H19.2029V36.2869Z" fill="#0B2D1F"/>
<path d="M26.9917 36.2869H30.8861V32.3926H26.9917V36.2869Z" fill="#0B2D1F"/>
<path d="M34.78 36.2869H38.6744V32.3926H34.78V36.2869Z" fill="#0B2D1F"/>
<path d="M42.5688 36.2869H46.4632V32.3926H42.5688V36.2869Z" fill="#0B2D1F"/>
<path d="M11.4141 44.0755H15.3084V40.1811H11.4141V44.0755Z" fill="#0B2D1F"/>
<path d="M19.2029 44.0755H23.0972V40.1811H19.2029V44.0755Z" fill="#0B2D1F"/>
<path d="M26.9917 44.0755H30.8861V40.1811H26.9917V44.0755Z" fill="#0B2D1F"/>
<path d="M34.78 44.0755H38.6744V40.1811H34.78V44.0755Z" fill="#0B2D1F"/>
<path d="M42.5688 44.0755H46.4632V40.1811H42.5688V44.0755Z" fill="#0B2D1F"/>
<path d="M11.4141 51.8643H15.3084V47.97H11.4141V51.8643Z" fill="#0B2D1F"/>
<path d="M19.2029 51.8643H23.0972V47.97H19.2029V51.8643Z" fill="#0B2D1F"/>
<path d="M26.9917 51.8643H30.8861V47.97H26.9917V51.8643Z" fill="#0B2D1F"/>
<path d="M34.78 51.8643H38.6744V47.97H34.78V51.8643Z" fill="#0B2D1F"/>
</g>
</g>
<path id="Subtract" fill-rule="evenodd" clip-rule="evenodd" d="M12.1927 13.8944V11.9472V10H14.1399H16.0871V11.9472V13.8944H28.9385H41.7898V11.9472V10H43.737H45.6842V11.9472V13.8944H47.1251C48.0013 13.8944 48.8192 13.9528 49.2378 14.0404C51.4284 14.498 53.2587 16.3283 53.7163 18.5189C53.8299 19.0613 53.8833 29.0714 53.8763 38.5034C52.4196 38.5492 51.0701 39.1119 49.9506 40.0443L49.968 28.3035H28.9385H7.90896L7.92843 41.4761L7.95764 54.6585L8.22051 55.0382C8.36654 55.2427 8.64889 55.525 8.85334 55.6613L9.21357 55.9047H28.9385H44.066C42.9117 57.1169 42.0407 58.4734 41.5388 59.8292C29.9653 59.8999 9.38239 59.8574 8.63915 59.7017C6.44858 59.2441 4.61823 57.4138 4.16064 55.2232C3.94645 54.2009 3.94645 19.5412 4.16064 18.5189C4.61823 16.3283 6.44858 14.498 8.63915 14.0404C9.05779 13.9528 9.87561 13.8944 10.7616 13.8944H12.1927ZM12.1927 21.6831V19.7359V17.7887L10.8589 17.7985C10.119 17.7985 9.37908 17.8471 9.21357 17.8958C8.79492 18.0126 8.13288 18.7039 8.00632 19.1323C7.95764 19.3367 7.90896 20.5927 7.90896 21.9459V24.4091H28.9482H49.9777L49.9485 21.7512L49.9193 19.0836L49.6564 18.7039C49.5104 18.4994 49.2281 18.2171 49.0236 18.0808C48.6926 17.8471 48.5758 17.8374 47.1738 17.8082L45.6842 17.7692V19.7262V21.6831H43.737H41.7898V19.7359V17.7887H28.9385H16.0871V19.7359V21.6831H14.1399H12.1927Z" fill="#0B2D1F"/>
</g>
</g>
</g>
</g>
<g id="Group 1171275202">
<g id="Group 1171275092">
<g id="Group 1171275090">
<g id="Ellipse 2542">
<mask id="path-4-outside-1_6230_46474" maskUnits="userSpaceOnUse" x="45.0938" y="13.0088" width="26" height="26" fill="black">
<rect fill="white" x="45.0938" y="13.0088" width="26" height="26"/>
<path d="M58.0462 35.9138C63.5428 35.9138 67.9987 31.4579 67.9987 25.9613C67.9987 20.4647 63.5428 16.0088 58.0462 16.0088C52.5496 16.0088 48.0938 20.4647 48.0938 25.9613C48.0938 31.4579 52.5496 35.9138 58.0462 35.9138Z"/>
</mask>
<path d="M58.0462 35.9138C63.5428 35.9138 67.9987 31.4579 67.9987 25.9613C67.9987 20.4647 63.5428 16.0088 58.0462 16.0088C52.5496 16.0088 48.0938 20.4647 48.0938 25.9613C48.0938 31.4579 52.5496 35.9138 58.0462 35.9138Z" fill="#22885E"/>
<path d="M58.0462 35.9138C63.5428 35.9138 67.9987 31.4579 67.9987 25.9613C67.9987 20.4647 63.5428 16.0088 58.0462 16.0088C52.5496 16.0088 48.0938 20.4647 48.0938 25.9613C48.0938 31.4579 52.5496 35.9138 58.0462 35.9138Z" stroke="#0B2D1F" stroke-width="4.90909" mask="url(#path-4-outside-1_6230_46474)"/>
</g>
</g>
</g>
<g id="Group">
<path id="Vector_2" d="M50.0032 29.007L53.5851 32.6126L53.5875 29.9107L59.8863 29.9163L59.8879 28.1149L53.5891 28.1093L53.5915 25.4074L50.0032 29.007ZM62.5971 22.7131L56.2983 22.7075L56.2967 24.5089L62.5955 24.5145L62.5931 27.2168L66.1814 23.6172L62.5995 20.0112L62.5971 22.7131Z" fill="#0B2D1F"/>
</g>
</g>
<g id="Group 1171275203">
<g id="Group 1171275092_2">
<g id="Group 1171275090_2">
<g id="Ellipse 2542_2">
<mask id="path-6-outside-2_6230_46474" maskUnits="userSpaceOnUse" x="45.0938" y="39.0691" width="26" height="26" fill="black">
<rect fill="white" x="45.0938" y="39.0691" width="26" height="26"/>
<path d="M58.0462 61.9741C63.5428 61.9741 67.9987 57.5182 67.9987 52.0216C67.9987 46.525 63.5428 42.0691 58.0462 42.0691C52.5496 42.0691 48.0938 46.525 48.0938 52.0216C48.0938 57.5182 52.5496 61.9741 58.0462 61.9741Z"/>
</mask>
<path d="M58.0462 61.9741C63.5428 61.9741 67.9987 57.5182 67.9987 52.0216C67.9987 46.525 63.5428 42.0691 58.0462 42.0691C52.5496 42.0691 48.0938 46.525 48.0938 52.0216C48.0938 57.5182 52.5496 61.9741 58.0462 61.9741Z" fill="#22885E"/>
<path d="M58.0462 61.9741C63.5428 61.9741 67.9987 57.5182 67.9987 52.0216C67.9987 46.525 63.5428 42.0691 58.0462 42.0691C52.5496 42.0691 48.0938 46.525 48.0938 52.0216C48.0938 57.5182 52.5496 61.9741 58.0462 61.9741Z" stroke="#0B2D1F" stroke-width="4.90909" mask="url(#path-6-outside-2_6230_46474)"/>
</g>
</g>
</g>
</g>
</g>
<path id="Vector_3" d="M56.19 56.8738L52.2816 52.9654C52.0468 52.7305 52.0468 52.3498 52.2816 52.115L53.1319 51.2646C53.3667 51.0298 53.7475 51.0298 53.9823 51.2646L56.6152 53.8975L62.2546 48.2581C62.4894 48.0233 62.8701 48.0233 63.1049 48.2581L63.9553 49.1085C64.1901 49.3433 64.1901 49.724 63.9553 49.9589L57.0404 56.8738C56.8055 57.1086 56.4248 57.1086 56.19 56.8738Z" fill="#0B2D1F"/>
</g>
</g>
</svg>
