<svg width="72" height="72" viewBox="0 0 72 72" fill="none" xmlns="http://www.w3.org/2000/svg">
<g id="working-times">
<g id="Group 1171275189">
<g id="Group">
<g id="Vector">
<path fill-rule="evenodd" clip-rule="evenodd" d="M43.7819 40.3245H35.133C34.1825 40.3245 33.4043 41.1027 33.4043 42.0532V52.4309C33.4043 53.3814 34.1825 54.1596 35.133 54.1596V62.8086C35.133 65.6811 37.4519 68 40.3245 68H61.0798C63.9523 68 66.2713 65.6811 66.2713 62.8086V54.1596C67.2218 54.1596 68 53.3814 68 52.4309V42.0532C68 41.1027 67.2218 40.3245 66.2713 40.3245H57.6223V35.133C57.6223 34.1825 56.8441 33.4043 55.8936 33.4043H45.5107C44.5601 33.4043 43.7819 34.1825 43.7819 35.133V40.3245ZM45.5107 54.1596H38.5957V62.8086C38.5957 63.7643 39.3739 64.5425 40.3245 64.5425H61.0798C62.0304 64.5425 62.8086 63.7643 62.8086 62.8086V54.1596H55.8936V55.8936C55.8936 56.8441 55.1154 57.6223 54.1596 57.6223H47.2447C46.2941 57.6223 45.5107 56.8441 45.5107 55.8936V54.1596ZM30.1505 59.1422C17.3703 57.5335 7.45748 46.6179 7.45748 33.4043C7.45748 19.0834 19.0834 7.45748 33.4043 7.45748C47.7252 7.45748 59.3511 19.0834 59.3511 33.4043C59.3511 34.3548 60.1293 35.133 61.0798 35.133C62.0304 35.133 62.8086 34.3548 62.8086 33.4043C62.8086 17.1771 49.6315 4 33.4043 4C17.1771 4 4 17.1771 4 33.4043C4 48.3832 15.2238 60.7717 29.7222 62.584C30.6728 62.7093 31.5345 62.0304 31.6599 61.0798C31.78 60.1293 31.1063 59.2623 30.1505 59.1422ZM48.9734 54.1596V50.7021H52.4309V54.1596H48.9734ZM18.7178 45.636L16.2788 48.0751C15.605 48.7488 15.605 49.8352 16.2788 50.5141C16.9525 51.1879 18.0441 51.1879 18.7178 50.5141L21.1568 48.0751C21.8306 47.3961 21.8306 46.3098 21.1568 45.636C20.4831 44.9571 19.3915 44.9571 18.7178 45.636ZM55.8936 50.7021H64.5425V43.7819H36.8618V50.7021H45.5107V48.9734C45.5107 48.0229 46.2941 47.2447 47.2447 47.2447H54.1596C55.1154 47.2447 55.8936 48.0229 55.8936 48.9734V50.7021ZM47.2447 40.3245V36.8618H54.1596V40.3245H47.2447ZM31.6755 28.5105C30.2027 29.0276 29.0276 30.2027 28.5105 31.6755H19.5639C18.6134 31.6755 17.8352 32.4537 17.8352 33.4043C17.8352 34.3548 18.6134 35.133 19.5639 35.133H28.5105C29.2208 37.1386 31.1376 38.5957 33.4043 38.5957C36.2768 38.5957 38.5957 36.2768 38.5957 33.4043C38.5957 31.1376 37.1386 29.2156 35.133 28.5105V19.5639C35.133 18.6133 34.3548 17.8352 33.4043 17.8352C32.4537 17.8352 31.6755 18.6133 31.6755 19.5639V28.5105ZM14.3777 31.6755H10.915C9.96442 31.6755 9.18623 32.4537 9.18623 33.4043C9.18623 34.3548 9.96442 35.133 10.915 35.133H14.3777C15.3282 35.133 16.1064 34.3548 16.1064 33.4043C16.1064 32.4537 15.3282 31.6755 14.3777 31.6755ZM33.4043 31.6755C34.3548 31.6755 35.133 32.4537 35.133 33.4043C35.133 34.3548 34.3548 35.133 33.4043 35.133C32.4537 35.133 31.6755 34.3548 31.6755 33.4043C31.6755 32.4537 32.4537 31.6755 33.4043 31.6755ZM21.1777 18.7178L18.7387 16.2788C18.0597 15.605 16.9734 15.605 16.2997 16.2788C15.6207 16.9525 15.6207 18.0441 16.2997 18.7178L18.7387 21.1568C19.4124 21.8306 20.4988 21.8306 21.1777 21.1568C21.8515 20.4831 21.8515 19.3915 21.1777 18.7178ZM48.0907 16.2788L45.6517 18.7178C44.978 19.3915 44.978 20.4831 45.6517 21.1568C46.3254 21.8306 47.417 21.8306 48.0907 21.1568L50.5298 18.7178C51.2035 18.0441 51.2035 16.9525 50.5298 16.2788C49.856 15.605 48.7645 15.605 48.0907 16.2788ZM31.6755 10.915V14.3777C31.6755 15.3282 32.4537 16.1064 33.4043 16.1064C34.3548 16.1064 35.133 15.3282 35.133 14.3777V10.915C35.133 9.96442 34.3548 9.18622 33.4043 9.18622C32.4537 9.18622 31.6755 9.96442 31.6755 10.915Z" fill="#0D313B"/>
<path d="M45.5107 54.1596H38.5957V62.8086C38.5957 63.7643 39.3739 64.5425 40.3245 64.5425H61.0798C62.0304 64.5425 62.8086 63.7643 62.8086 62.8086V54.1596H55.8936V55.8936C55.8936 56.8441 55.1154 57.6223 54.1596 57.6223H47.2447C46.2941 57.6223 45.5107 56.8441 45.5107 55.8936V54.1596Z" fill="#2894B4"/>
<path d="M55.8936 50.7021H64.5425V43.7819H36.8618V50.7021H45.5107V48.9734C45.5107 48.0229 46.2941 47.2447 47.2447 47.2447H54.1596C55.1154 47.2447 55.8936 48.0229 55.8936 48.9734V50.7021Z" fill="#68D4F4"/>
<path d="M47.2447 40.3245V36.8618H54.1596V40.3245H47.2447Z" fill="#2894B4"/>
</g>
</g>
</g>
</g>
</svg>
