<svg width="72" height="72" viewBox="0 0 72 72" fill="none" xmlns="http://www.w3.org/2000/svg">
<g id="approval">
<g id="Group 1171275273">
<circle id="Ellipse 2648" cx="36" cy="36" r="28" fill="#2EB67D"/>
<g id="Group">
<path id="Vector" d="M32.6114 4.08678C26.4491 4.83661 20.7777 7.15427 16.0606 10.8762C14.8199 11.8441 11.8751 14.7889 10.9072 16.0295C7.52613 20.324 5.16757 25.7092 4.32231 31.0943C4.00874 33.0712 3.89967 37.0521 4.10417 39.0562C4.7313 45.1502 6.91263 50.6581 10.7027 55.6888C11.7661 57.093 14.9154 60.2423 16.3196 61.3057C20.8459 64.714 25.7402 66.8272 31.1799 67.6861C33.3067 68.0269 37.3558 68.0951 39.5916 67.836C45.6175 67.1407 50.6755 65.0821 55.7198 61.2921C57.124 60.2559 60.2733 57.093 61.3367 55.6888C64.7723 51.1216 66.8855 46.2273 67.7444 40.7331C68.0852 38.5654 68.0852 33.412 67.7444 31.2443C66.8855 25.7501 64.7723 20.8557 61.3367 16.2886C60.2733 14.8843 57.124 11.7351 55.7198 10.6717C51.1663 7.23606 46.2856 5.13654 40.8595 4.27764C39.2508 4.01861 34.1383 3.90955 32.6114 4.08678ZM39.7007 10.1672C49.8302 11.6396 58.242 18.9334 61.0368 28.6403C61.8684 31.5033 61.9911 32.444 61.9911 35.9887C61.9911 39.5333 61.8684 40.474 61.0368 43.337C60.2052 46.2273 58.7191 49.1857 56.8105 51.7351C55.7607 53.1394 53.1704 55.7297 51.7662 56.7794C45.304 61.6193 37.1785 63.228 29.4076 61.2239C19.3326 58.6063 11.6979 50.0446 10.1846 39.656C9.91195 37.761 9.91195 34.2027 10.1846 32.3213C12.2705 18.0336 25.5084 8.1086 39.7007 10.1672Z" fill="#0B2D1F"/>
<path id="Vector_2" d="M46.3805 25.4366C46.0806 25.5593 43.3403 28.2042 38.9367 32.5941L31.9838 39.5471L29.0117 36.4796C26.2851 33.6438 25.9851 33.3848 25.3307 33.1803C24.0356 32.7713 22.6995 33.2212 21.9224 34.3255C21.5816 34.8027 21.4998 35.0753 21.4589 35.8252C21.418 36.5886 21.4589 36.834 21.7315 37.3112C21.9088 37.6248 23.872 39.7788 26.1078 42.1101C29.148 45.273 30.3069 46.3773 30.7159 46.5409C31.4657 46.8409 32.6382 46.8272 33.2653 46.5C34.0288 46.1047 50.1433 29.9083 50.4023 29.2812C50.9886 27.8497 50.2524 25.9819 48.8754 25.4093C48.3028 25.1639 46.9804 25.1776 46.3805 25.4366Z" fill="#0B2D1F"/>
</g>
</g>
</g>
</svg>
