<svg width="72" height="72" viewBox="0 0 72 72" fill="none" xmlns="http://www.w3.org/2000/svg">
<g id="generate-allocation">
<g id="Group 1171275627">
<path id="Vector" d="M26.7324 13.1479C23.6856 13.1479 20.6825 13.1383 17.668 13.1707C17.4623 13.1707 17.1843 13.4697 17.0681 13.6963C15.7694 16.2575 13.7165 17.6723 10.8372 17.7047C7.39808 17.7408 4.59114 15.2025 4.06556 11.6911C3.59329 8.53773 5.7223 5.25485 8.85297 4.30655C10.4117 3.81981 12.094 3.91518 13.5877 4.57497C15.0814 5.23476 16.2849 6.41413 16.9748 7.89411C17.23 8.43871 17.5099 8.59486 18.0793 8.59105C21.6632 8.5663 25.249 8.57582 28.8329 8.57962C30.4763 8.57962 31.3885 9.48984 31.3923 11.1351C31.3923 13.2526 31.3923 15.3694 31.3923 17.4857C31.3923 18.9805 30.4249 20.0202 29.0785 20.0012C27.7646 19.9802 26.841 18.95 26.8334 17.4857C26.8334 16.107 26.8334 14.7265 26.82 13.3478C26.799 13.2779 26.7696 13.2107 26.7324 13.1479ZM10.881 8.57772C10.4278 8.57168 9.98307 8.70054 9.60329 8.94793C9.22351 9.19531 8.92587 9.55004 8.74823 9.96701C8.57059 10.384 8.52097 10.8444 8.60567 11.2896C8.69038 11.7349 8.90558 12.1449 9.22392 12.4675C9.54226 12.7901 9.94935 13.0108 10.3934 13.1015C10.8375 13.1921 11.2986 13.1487 11.7179 12.9767C12.1372 12.8047 12.4959 12.5118 12.7484 12.1354C13.0009 11.759 13.1357 11.316 13.1357 10.8628C13.1314 10.2633 12.8934 9.68922 12.4724 9.26249C12.0513 8.83577 11.4804 8.5901 10.881 8.57772V8.57772Z" fill="#0B2D1F"/>
<path id="Vector_2" d="M26.8184 58.8488C26.8184 57.2759 26.805 55.783 26.8184 54.2901C26.8148 53.7261 27.0199 53.1807 27.3944 52.7588C27.7688 52.337 28.286 52.0685 28.8464 52.005C29.97 51.8832 31.2116 52.6068 31.2649 53.7379C31.3868 56.3905 31.3773 59.0564 31.2516 61.709C31.2002 62.7829 30.1376 63.4228 28.9531 63.4228C25.2968 63.4228 21.6406 63.438 17.9862 63.4094C17.453 63.4094 17.2112 63.5694 16.9865 64.0473C16.2951 65.5657 15.0654 66.774 13.5352 67.4387C12.0049 68.1034 10.2825 68.1774 8.70085 67.6463C7.13111 67.1098 5.80916 66.0224 4.98009 64.5856C4.15101 63.1488 3.87107 61.4601 4.19216 59.8327C4.51324 58.2052 5.41358 56.7494 6.72623 55.7351C8.03889 54.7208 9.67481 54.2169 11.3307 54.3168C13.9834 54.53 15.8743 55.9316 17.0607 58.3156C17.1731 58.5403 17.4568 58.8336 17.6625 58.8355C20.6827 58.8583 23.6953 58.8488 26.8184 58.8488ZM13.1303 61.1472C13.1329 60.6942 13.0008 60.2507 12.7508 59.8729C12.5008 59.4951 12.1442 59.2002 11.7262 59.0255C11.3082 58.8509 10.8477 58.8044 10.4033 58.892C9.95882 58.9796 9.55042 59.1973 9.22996 59.5175C8.90949 59.8376 8.69143 60.2458 8.60346 60.6902C8.5155 61.1346 8.5616 61.5951 8.73592 62.0132C8.91023 62.4313 9.2049 62.7882 9.58247 63.0385C9.96005 63.2888 10.4035 63.4212 10.8565 63.419C11.4571 63.412 12.0311 63.1705 12.456 62.746C12.8808 62.3216 13.1228 61.7477 13.1303 61.1472Z" fill="#0B2D1F"/>
<path id="Vector_3" d="M45.0707 13.1476C45.0707 14.6405 45.0707 16.0401 45.0707 17.4397C45.0707 18.9631 44.1433 19.9932 42.8008 20.0009C41.4583 20.0085 40.5156 18.9669 40.5156 17.4606C40.5156 15.3431 40.5156 13.2263 40.5156 11.11C40.5156 9.49716 41.4259 8.58123 43.0255 8.57933C46.6322 8.57933 50.2409 8.566 53.8495 8.59075C54.3885 8.59075 54.6684 8.46126 54.9121 7.93951C55.5601 6.52255 56.6791 5.37395 58.0787 4.68928C59.4783 4.0046 61.072 3.82618 62.5884 4.18438C64.1032 4.53567 65.4535 5.39148 66.4178 6.61133C67.382 7.83118 67.9029 9.34259 67.895 10.8975C67.887 12.4524 67.3506 13.9584 66.3739 15.1683C65.3972 16.3782 64.0381 17.2201 62.5198 17.5558C61.0119 17.895 59.4332 17.7057 58.0482 17.0196C56.6632 16.3336 55.556 15.1924 54.9121 13.7874C54.6684 13.2637 54.3885 13.1304 53.8495 13.1342C50.9531 13.1609 48.0605 13.1476 45.0707 13.1476ZM58.7588 10.7559C58.738 11.2083 58.8521 11.6567 59.0866 12.0442C59.3211 12.4317 59.6655 12.7407 60.076 12.9321C60.4865 13.1234 60.9446 13.1885 61.3922 13.119C61.8398 13.0495 62.2566 12.8486 62.5897 12.5417C62.9229 12.2349 63.1573 11.836 63.2633 11.3956C63.3693 10.9553 63.342 10.4934 63.1849 10.0686C63.0279 9.64377 62.7481 9.27522 62.3811 9.00972C62.0142 8.74422 61.5766 8.59376 61.124 8.57742C60.5236 8.56066 59.9403 8.77899 59.4986 9.18589C59.0568 9.5928 58.7913 10.1561 58.7588 10.7559Z" fill="#0B2D1F"/>
<path id="Vector_4" d="M45.0667 58.8319H54.4568C55.011 58.0111 55.447 57.179 56.0564 56.4992C57.0283 55.4095 58.3312 54.6691 59.7648 54.3918C61.1985 54.1145 62.6835 54.3157 63.9916 54.9644C66.6196 56.2364 68.2268 59.1537 67.8288 61.9262C67.3718 65.1348 65.1514 67.3932 61.9407 67.9207C59.1757 68.3758 56.2278 66.8315 54.9634 64.1751C54.6644 63.5448 54.333 63.3982 53.6894 63.4039C50.1512 63.4363 46.6149 63.421 43.0786 63.4172C41.4238 63.4172 40.5097 62.5127 40.5078 60.8732C40.5078 58.7557 40.5078 56.6388 40.5078 54.5226C40.5078 53.0164 41.46 51.9843 42.8082 51.9957C44.1241 52.0071 45.0591 53.0373 45.0648 54.4959C45.0724 55.9184 45.0667 57.3409 45.0667 58.8319ZM61.0628 63.4172C61.5159 63.4137 61.9577 63.2757 62.3321 63.0205C62.7065 62.7654 62.9966 62.4047 63.1656 61.9844C63.3345 61.564 63.3747 61.1029 63.281 60.6596C63.1873 60.2164 62.9639 59.811 62.6393 59.4949C62.3147 59.1789 61.9034 58.9665 61.4578 58.8847C61.0121 58.8029 60.5522 58.8554 60.1365 59.0356C59.7208 59.2158 59.3681 59.5154 59.123 59.8965C58.878 60.2777 58.7519 60.723 58.7605 61.176C58.7759 61.7749 59.0242 62.3443 59.4526 62.7632C59.8811 63.182 60.456 63.4173 61.0552 63.4191L61.0628 63.4172Z" fill="#0B2D1F"/>
<path id="Vector_5" d="M10.8789 8.57764C11.332 8.58074 11.7739 8.71844 12.1485 8.97325C12.5231 9.22807 12.8136 9.58849 12.9829 10.0087C13.1522 10.429 13.1928 10.89 13.0994 11.3334C13.0061 11.7767 12.7831 12.1823 12.4587 12.4986C12.1343 12.8149 11.7232 13.0277 11.2777 13.1098C10.8321 13.192 10.3722 13.1398 9.9563 12.96C9.54043 12.7802 9.18741 12.4808 8.94209 12.0999C8.69676 11.719 8.57021 11.2738 8.57851 10.8208C8.59245 10.2204 8.84107 9.64929 9.27108 9.22998C9.7011 8.81066 10.2783 8.57648 10.8789 8.57764V8.57764Z" fill="#2EB67D"/>
<path id="Vector_6" d="M13.1328 61.1474C13.1301 61.6004 12.9927 62.0425 12.7382 62.4173C12.4837 62.7921 12.1235 63.0828 11.7034 63.2525C11.2833 63.4222 10.8222 63.4631 10.3788 63.3702C9.93535 63.2772 9.52955 63.0545 9.21296 62.7304C8.89636 62.4063 8.68326 61.9954 8.60073 61.5499C8.5182 61.1045 8.56997 60.6445 8.74945 60.2285C8.92893 59.8125 9.22803 59.4592 9.60874 59.2136C9.98946 58.968 10.4346 58.8411 10.8876 58.849C11.4879 58.8629 12.0589 59.1112 12.4785 59.5407C12.8981 59.9703 13.1329 60.5469 13.1328 61.1474V61.1474Z" fill="#2EB67D"/>
<path id="Vector_7" d="M58.7597 10.7559C58.7816 10.3037 58.9373 9.86813 59.2071 9.50455C59.4768 9.14096 59.8485 8.86571 60.275 8.7137C60.7015 8.5617 61.1635 8.53979 61.6024 8.65077C62.0414 8.76175 62.4374 9.00061 62.7404 9.33704C63.0433 9.67348 63.2395 10.0923 63.3041 10.5404C63.3686 10.9885 63.2986 11.4457 63.1028 11.854C62.9071 12.2622 62.5945 12.6031 62.2047 12.8334C61.815 13.0637 61.3655 13.1731 60.9135 13.1476C60.3132 13.1093 59.7518 12.8376 59.3492 12.3906C58.9467 11.9436 58.7351 11.3568 58.7597 10.7559V10.7559Z" fill="#2EB67D"/>
<path id="Vector_8" d="M61.0578 63.4191C60.6046 63.4251 60.1598 63.2962 59.7801 63.0489C59.4003 62.8015 59.1027 62.4467 58.925 62.0298C58.7474 61.6128 58.6977 61.1524 58.7824 60.7072C58.8671 60.2619 59.0824 59.8519 59.4007 59.5293C59.719 59.2067 60.1261 58.986 60.5702 58.8953C61.0143 58.8046 61.4753 58.8481 61.8947 59.0201C62.314 59.1921 62.6727 59.485 62.9252 59.8614C63.1776 60.2378 63.3125 60.6808 63.3125 61.134C63.3082 61.7334 63.0702 62.3076 62.6491 62.7343C62.2281 63.161 61.6572 63.4067 61.0578 63.4191V63.4191Z" fill="#2EB67D"/>
</g>
<g id="person.2">
<mask id="path-9-outside-1_6500_46103" maskUnits="userSpaceOnUse" x="21" y="20" width="29" height="31" fill="black">
<rect fill="white" x="21" y="20" width="29" height="31"/>
<path d="M35.5 35.4328C31.7875 35.4328 28.7807 32.1589 28.7807 28.1318C28.7807 24.1663 31.7722 21 35.5 21C39.1818 21 42.2193 24.2124 42.2193 28.1626C42.204 32.1742 39.1972 35.4328 35.5 35.4328ZM35.5 32.7429C37.617 32.7429 39.4119 30.7448 39.4119 28.1472C39.4119 25.6418 37.6324 23.6898 35.5 23.6898C33.3523 23.6898 31.5881 25.6111 31.5881 28.1318C31.5881 30.7141 33.3676 32.7429 35.5 32.7429ZM45.0574 49.9116H25.9426C23.2886 49.9116 22 49.0663 22 47.2526C22 43.0257 27.2773 37.4002 35.5 37.4002C43.7227 37.4002 49 43.0257 49 47.2526C49 49.0663 47.7114 49.9116 45.0574 49.9116ZM45.5483 47.2218C45.9011 47.2218 46.0392 47.0989 46.0392 46.8222C46.0392 44.4705 42.25 40.09 35.5 40.09C28.75 40.09 24.9608 44.4705 24.9608 46.8222C24.9608 47.0989 25.0989 47.2218 25.467 47.2218H45.5483Z"/>
<path d="M35.5 32.7429C37.617 32.7429 39.4119 30.7448 39.4119 28.1472C39.4119 25.6418 37.6324 23.6898 35.5 23.6898C33.3523 23.6898 31.5881 25.6111 31.5881 28.1318C31.5881 30.7141 33.3676 32.7429 35.5 32.7429Z"/>
</mask>
<path d="M35.5 35.4328C31.7875 35.4328 28.7807 32.1589 28.7807 28.1318C28.7807 24.1663 31.7722 21 35.5 21C39.1818 21 42.2193 24.2124 42.2193 28.1626C42.204 32.1742 39.1972 35.4328 35.5 35.4328ZM35.5 32.7429C37.617 32.7429 39.4119 30.7448 39.4119 28.1472C39.4119 25.6418 37.6324 23.6898 35.5 23.6898C33.3523 23.6898 31.5881 25.6111 31.5881 28.1318C31.5881 30.7141 33.3676 32.7429 35.5 32.7429ZM45.0574 49.9116H25.9426C23.2886 49.9116 22 49.0663 22 47.2526C22 43.0257 27.2773 37.4002 35.5 37.4002C43.7227 37.4002 49 43.0257 49 47.2526C49 49.0663 47.7114 49.9116 45.0574 49.9116ZM45.5483 47.2218C45.9011 47.2218 46.0392 47.0989 46.0392 46.8222C46.0392 44.4705 42.25 40.09 35.5 40.09C28.75 40.09 24.9608 44.4705 24.9608 46.8222C24.9608 47.0989 25.0989 47.2218 25.467 47.2218H45.5483Z" fill="#0B2D1F"/>
<path d="M35.5 32.7429C37.617 32.7429 39.4119 30.7448 39.4119 28.1472C39.4119 25.6418 37.6324 23.6898 35.5 23.6898C33.3523 23.6898 31.5881 25.6111 31.5881 28.1318C31.5881 30.7141 33.3676 32.7429 35.5 32.7429Z" fill="#2EB67D"/>
<path d="M35.5 32.4429C37.4121 32.4429 39.1119 30.6213 39.1119 28.1472H39.7119C39.7119 30.8683 37.822 33.0429 35.5 33.0429V32.4429ZM39.1119 28.1472C39.1119 25.773 37.4342 23.9898 35.5 23.9898V23.3898C37.8306 23.3898 39.7119 25.5107 39.7119 28.1472H39.1119ZM35.5 23.9898C33.5493 23.9898 31.8881 25.7436 31.8881 28.1318H31.2881C31.2881 25.4786 33.1553 23.3898 35.5 23.3898V23.9898ZM31.8881 28.1318C31.8881 30.5934 33.575 32.4429 35.5 32.4429V33.0429C33.1602 33.0429 31.2881 30.8347 31.2881 28.1318H31.8881ZM42.2193 28.1626H42.8193L42.8193 28.1649L42.2193 28.1626ZM35.5 36.0328C31.4099 36.0328 28.1807 32.442 28.1807 28.1318H29.3807C29.3807 31.8757 32.1651 34.8328 35.5 34.8328V36.0328ZM28.1807 28.1318C28.1807 23.8686 31.4081 20.4 35.5 20.4V21.6C32.1362 21.6 29.3807 24.464 29.3807 28.1318H28.1807ZM35.5 20.4C39.5474 20.4 42.8193 23.9163 42.8193 28.1626H41.6193C41.6193 24.5085 38.8163 21.6 35.5 21.6V20.4ZM42.8193 28.1649C42.8029 32.4592 39.5735 36.0328 35.5 36.0328V34.8328C38.8208 34.8328 41.6051 31.8893 41.6193 28.1603L42.8193 28.1649ZM45.0574 50.5116H25.9426V49.3116H45.0574V50.5116ZM25.9426 50.5116C24.573 50.5116 23.4434 50.2975 22.6421 49.7607C21.7941 49.1926 21.4 48.3235 21.4 47.2526H22.6C22.6 47.9953 22.8502 48.4557 23.31 48.7637C23.8166 49.1031 24.6582 49.3116 25.9426 49.3116V50.5116ZM21.4 47.2526C21.4 44.9054 22.8479 42.2871 25.2848 40.2783C27.7392 38.2552 31.2491 36.8002 35.5 36.8002V38.0002C31.5282 38.0002 28.288 39.3579 26.0481 41.2043C23.7908 43.065 22.6 45.3729 22.6 47.2526H21.4ZM35.5 36.8002C39.7509 36.8002 43.2608 38.2552 45.7152 40.2783C48.1521 42.2871 49.6 44.9054 49.6 47.2526H48.4C48.4 45.3729 47.2092 43.065 44.9519 41.2043C42.7119 39.3579 39.4718 38.0002 35.5 38.0002V36.8002ZM49.6 47.2526C49.6 48.3235 49.2059 49.1926 48.3579 49.7607C47.5566 50.2975 46.427 50.5116 45.0574 50.5116V49.3116C46.3418 49.3116 47.1834 49.1031 47.69 48.7637C48.1498 48.4557 48.4 47.9953 48.4 47.2526H49.6ZM45.5483 46.6218C45.6047 46.6218 45.6268 46.6166 45.6265 46.6167C45.6242 46.6172 45.5875 46.627 45.5426 46.6643C45.4941 46.7046 45.4637 46.7542 45.4487 46.7951C45.436 46.8297 45.4392 46.8445 45.4392 46.8222H46.6392C46.6392 47.054 46.5794 47.363 46.3095 47.5872C46.0676 47.7882 45.7697 47.8218 45.5483 47.8218V46.6218ZM45.4392 46.8222C45.4392 46.3831 45.2568 45.7784 44.8321 45.0949C44.4125 44.4197 43.778 43.7036 42.9331 43.0483C41.2469 41.7405 38.7414 40.69 35.5 40.69V39.49C39.0086 39.49 41.7727 40.6297 43.6686 42.1001C44.6147 42.8339 45.3494 43.6538 45.8513 44.4615C46.3479 45.2607 46.6392 46.0854 46.6392 46.8222H45.4392ZM35.5 40.69C32.2586 40.69 29.7531 41.7405 28.0669 43.0483C27.222 43.7036 26.5875 44.4197 26.1679 45.0949C25.7432 45.7784 25.5608 46.3831 25.5608 46.8222H24.3608C24.3608 46.0854 24.6521 45.2607 25.1487 44.4615C25.6506 43.6538 26.3853 42.8339 27.3314 42.1001C29.2273 40.6297 31.9914 39.49 35.5 39.49V40.69ZM25.5608 46.8222C25.5608 46.8447 25.5641 46.8288 25.5507 46.7928C25.5348 46.7499 25.503 46.6997 25.4538 46.6598C25.409 46.6234 25.3737 46.6151 25.3753 46.6155C25.3787 46.6163 25.4053 46.6218 25.467 46.6218V47.8218C25.2426 47.8218 24.9421 47.7898 24.6979 47.5917C24.4211 47.3672 24.3608 47.0546 24.3608 46.8222H25.5608ZM25.467 46.6218H45.5483V47.8218H25.467V46.6218Z" fill="#0B2D1F" mask="url(#path-9-outside-1_6500_46103)"/>
</g>
</g>
</svg>
