<svg width="72" height="72" viewBox="0 0 72 72" fill="none" xmlns="http://www.w3.org/2000/svg">
<g id="leave-movement">
<g id="Group 1171275506">
<g id="Group">
<g id="Vector">
<mask id="path-1-outside-1_6490_47340" maskUnits="userSpaceOnUse" x="9" y="2" width="51" height="60" fill="black">
<rect fill="white" x="9" y="2" width="51" height="60"/>
<path d="M58.0668 25.0335L53.5843 20.551C53.0671 20.0338 52.3774 20.0338 51.8602 20.551C51.343 21.0682 51.343 21.7578 51.8602 22.275L54.2739 24.6887H44.4468V5.20684C44.4468 4.86203 44.2744 4.51722 44.102 4.34481C43.9296 4.1724 43.5847 4 43.2399 4C42.5503 4 12.8965 4 12.0344 4C11.5172 4.17241 11 4.51722 11 5.20684V46.4119C11 46.9291 11.3448 47.2739 11.6896 47.4463L34.792 60.3768C35.1368 60.5492 35.6541 60.5492 35.9989 60.3768C36.3437 60.2044 36.5161 59.8595 36.5161 59.3423V47.6187H43.4123C43.7571 47.6187 44.102 47.4463 44.2744 47.2739C44.4468 47.1015 44.6192 46.7567 44.6192 46.4119V27.1024H54.4463L52.0326 29.5161C51.5154 30.0333 51.5154 30.7229 52.0326 31.2402C52.5499 31.7574 53.2395 31.7574 53.7567 31.2402L58.2392 26.7576C58.4117 26.2404 58.4117 25.3783 58.0668 25.0335ZM29.4474 33.1366C28.9302 33.9986 27.7234 34.3435 26.8614 33.8262C25.9993 33.309 25.6545 32.1022 26.1717 31.2402C26.6889 30.3781 27.8958 30.0333 28.7578 30.5505C29.6199 31.2401 29.9647 32.2746 29.4474 33.1366ZM42.2055 45.205H36.8609V18.1373C36.8609 17.6201 36.6885 17.2753 36.1713 17.1029L17.0342 6.41368H42.2055V45.205Z"/>
</mask>
<path d="M58.0668 25.0335L53.5843 20.551C53.0671 20.0338 52.3774 20.0338 51.8602 20.551C51.343 21.0682 51.343 21.7578 51.8602 22.275L54.2739 24.6887H44.4468V5.20684C44.4468 4.86203 44.2744 4.51722 44.102 4.34481C43.9296 4.1724 43.5847 4 43.2399 4C42.5503 4 12.8965 4 12.0344 4C11.5172 4.17241 11 4.51722 11 5.20684V46.4119C11 46.9291 11.3448 47.2739 11.6896 47.4463L34.792 60.3768C35.1368 60.5492 35.6541 60.5492 35.9989 60.3768C36.3437 60.2044 36.5161 59.8595 36.5161 59.3423V47.6187H43.4123C43.7571 47.6187 44.102 47.4463 44.2744 47.2739C44.4468 47.1015 44.6192 46.7567 44.6192 46.4119V27.1024H54.4463L52.0326 29.5161C51.5154 30.0333 51.5154 30.7229 52.0326 31.2402C52.5499 31.7574 53.2395 31.7574 53.7567 31.2402L58.2392 26.7576C58.4117 26.2404 58.4117 25.3783 58.0668 25.0335ZM29.4474 33.1366C28.9302 33.9986 27.7234 34.3435 26.8614 33.8262C25.9993 33.309 25.6545 32.1022 26.1717 31.2402C26.6889 30.3781 27.8958 30.0333 28.7578 30.5505C29.6199 31.2401 29.9647 32.2746 29.4474 33.1366ZM42.2055 45.205H36.8609V18.1373C36.8609 17.6201 36.6885 17.2753 36.1713 17.1029L17.0342 6.41368H42.2055V45.205Z" fill="#0B2D1F"/>
<path d="M58.0668 25.0335L53.5843 20.551C53.0671 20.0338 52.3774 20.0338 51.8602 20.551C51.343 21.0682 51.343 21.7578 51.8602 22.275L54.2739 24.6887H44.4468V5.20684C44.4468 4.86203 44.2744 4.51722 44.102 4.34481C43.9296 4.1724 43.5847 4 43.2399 4C42.5503 4 12.8965 4 12.0344 4C11.5172 4.17241 11 4.51722 11 5.20684V46.4119C11 46.9291 11.3448 47.2739 11.6896 47.4463L34.792 60.3768C35.1368 60.5492 35.6541 60.5492 35.9989 60.3768C36.3437 60.2044 36.5161 59.8595 36.5161 59.3423V47.6187H43.4123C43.7571 47.6187 44.102 47.4463 44.2744 47.2739C44.4468 47.1015 44.6192 46.7567 44.6192 46.4119V27.1024H54.4463L52.0326 29.5161C51.5154 30.0333 51.5154 30.7229 52.0326 31.2402C52.5499 31.7574 53.2395 31.7574 53.7567 31.2402L58.2392 26.7576C58.4117 26.2404 58.4117 25.3783 58.0668 25.0335ZM29.4474 33.1366C28.9302 33.9986 27.7234 34.3435 26.8614 33.8262C25.9993 33.309 25.6545 32.1022 26.1717 31.2402C26.6889 30.3781 27.8958 30.0333 28.7578 30.5505C29.6199 31.2401 29.9647 32.2746 29.4474 33.1366ZM42.2055 45.205H36.8609V18.1373C36.8609 17.6201 36.6885 17.2753 36.1713 17.1029L17.0342 6.41368H42.2055V45.205Z" stroke="#0B2D1F" stroke-width="2.69391" mask="url(#path-1-outside-1_6490_47340)"/>
</g>
<path id="Vector_2" d="M13.4141 45.8939V7.2749L34.62 18.6537V57.4451L13.4141 45.8939ZM27.7238 28.136C26.3445 28.136 24.9653 28.9981 24.1032 30.2049C23.586 31.2393 23.4136 32.2738 23.7584 33.3082C24.1032 34.3426 24.7929 35.2047 25.6549 35.7219C26.3445 36.0667 27.0341 36.2391 27.7238 36.2391C29.103 36.2391 30.4823 35.3771 31.3443 34.1702C31.8615 33.1358 32.0339 32.1014 31.6891 31.0669C31.3443 30.0325 30.6547 29.1705 29.7926 28.6533C29.2754 28.3084 28.4134 28.136 27.7238 28.136Z" fill="#2EB67D"/>
</g>
<g id="Group_2">
<path id="Vector 59" d="M40.9141 42.8223H44.1011V44.4158H57.1681V42.8223H59.7177L60.3551 66.0878H40.9141V42.8223Z" fill="#2EB67D" stroke="#2EB67D" stroke-width="0.522122"/>
<path id="Vector_3" d="M47.4648 39.3509C46.5964 39.4965 45.6889 39.9335 45.0895 40.4937L44.6749 40.8803H42.9943C41.1624 40.8803 40.9103 40.9083 40.3837 41.1716C39.7507 41.4909 39.2185 42.1799 39.0672 42.8858C38.9776 43.306 38.9776 65.5687 39.0672 65.9888C39.1569 66.4034 39.4146 66.8964 39.7115 67.2101C40.0028 67.5182 40.5798 67.8431 41.0112 67.9328C41.4313 68.0224 59.3244 68.0224 59.7446 67.9328C60.6969 67.7311 61.4868 66.9356 61.6885 65.9888C61.7781 65.5631 61.7781 43.306 61.6885 42.8858C61.4868 41.9391 60.6857 41.138 59.7446 40.9419C59.5653 40.9027 58.781 40.8803 57.7614 40.8803H56.0752L55.6998 40.5217C55.2741 40.124 54.8483 39.8495 54.2769 39.6254C53.543 39.3285 53.2965 39.3117 50.333 39.3173C48.8317 39.3229 47.5432 39.3397 47.4648 39.3509ZM53.2853 41.0763C53.4814 41.1268 53.8007 41.2444 53.9856 41.3396C54.5458 41.6365 55.1732 42.348 55.3357 42.8802L55.3693 43.0091H50.3779H45.3864L45.42 42.8802C45.5152 42.5833 45.7785 42.1743 46.0979 41.8494C46.4676 41.4741 47.0502 41.1436 47.5264 41.0539C47.6608 41.0259 48.9325 41.0035 50.3498 40.9979C52.4674 40.9923 52.9884 41.0091 53.2853 41.0763ZM43.6721 42.9362C43.6273 43.1491 43.5993 43.5189 43.6105 43.7765C43.6273 44.2695 43.717 44.432 44.0587 44.6113C44.2828 44.7289 56.4729 44.7289 56.697 44.6113C57.0387 44.432 57.1284 44.2695 57.1452 43.7765C57.1564 43.5189 57.1284 43.1491 57.0836 42.9362L57.0051 42.5609H58.1872C59.5429 42.5609 59.7221 42.6057 59.9462 43.0035L60.0695 43.2219V54.4373V65.6527L59.9518 65.8656C59.8846 65.9832 59.739 66.1289 59.6213 66.1961L59.4084 66.3138H50.3779H41.3473L41.1344 66.1961C41.0168 66.1289 40.8711 65.9832 40.8039 65.8656L40.6862 65.6527V54.4373V43.2219L40.8095 43.0035C41.0336 42.6057 41.2072 42.5609 42.5685 42.5609H43.7506L43.6721 42.9362Z" fill="#0B2D1F"/>
<path id="Vector_4" d="M53.048 47.3789C52.6727 47.4965 52.4038 47.9503 52.4766 48.348C52.5439 48.701 52.88 49.0035 53.2105 49.0035C53.2889 49.0035 53.3506 49.0203 53.3506 49.0483C53.3506 49.0707 52.908 49.5301 52.3702 50.0679L51.3898 51.0482L50.0285 49.6869C48.5552 48.2192 48.4711 48.1576 48.0454 48.2696C47.8717 48.32 47.5132 48.6505 46.1407 50.0231C44.6953 51.474 44.4488 51.7485 44.4152 51.9278C44.3144 52.4768 44.6785 52.9249 45.2275 52.9249C45.3564 52.9249 45.5132 52.8969 45.5805 52.8633C45.6477 52.8297 46.2751 52.2303 46.981 51.5356L48.2526 50.2639L49.5859 51.5916C50.3142 52.3199 50.9697 52.9417 51.0369 52.9754C51.1937 53.0538 51.5859 53.0538 51.7428 52.9754C51.81 52.9417 52.471 52.3087 53.2161 51.5692L54.5662 50.2247L54.5998 50.4488C54.7287 51.2275 55.8043 51.39 56.1684 50.6841C56.258 50.5104 56.2636 50.3424 56.2524 49.1883C56.2356 47.7598 56.23 47.7542 55.8491 47.4685C55.7034 47.3565 55.6138 47.3509 54.4542 47.3397C53.7707 47.334 53.1377 47.3509 53.048 47.3789Z" fill="#0B2D1F"/>
<path id="Vector_5" d="M46.5159 55.8716C46.4094 55.9164 46.0229 56.2469 45.6644 56.6055L45.0089 57.2553L44.7792 57.048C44.6504 56.936 44.4879 56.8183 44.4095 56.7903C43.7204 56.527 43.0314 57.2721 43.3563 57.9275C43.4795 58.174 44.3703 59.0704 44.6224 59.2048C44.8857 59.3393 45.121 59.3393 45.3843 59.2048C45.4963 59.1432 46.0341 58.6502 46.5775 58.0956C47.3674 57.3001 47.5803 57.0536 47.6307 56.8744C47.7483 56.4486 47.485 55.95 47.0873 55.838C46.8184 55.7651 46.7512 55.7707 46.5159 55.8716Z" fill="#0B2D1F"/>
<path id="Vector_6" d="M49.367 56.8629C48.8572 57.2047 48.8684 57.8769 49.395 58.2691C49.5462 58.3867 49.6023 58.3867 53.21 58.3867C56.8178 58.3867 56.8738 58.3867 57.025 58.2691C57.5516 57.8769 57.5628 57.2047 57.053 56.8629L56.8626 56.7341H53.21H49.5574L49.367 56.8629Z" fill="#0B2D1F"/>
<path id="Vector_7" d="M46.764 60.6275C46.736 60.6387 46.6352 60.6611 46.5456 60.6836C46.4391 60.706 46.1366 60.9581 45.694 61.395L45.005 62.0729L44.7977 61.888C44.568 61.6863 44.2823 61.5519 44.0918 61.5519C43.8565 61.5519 43.5148 61.7648 43.386 61.9944C43.1227 62.465 43.2347 62.7395 44.0078 63.5014C44.624 64.1064 44.7753 64.1849 45.2123 64.1008C45.3859 64.0672 45.582 63.8992 46.4447 63.0476C47.0105 62.4874 47.5147 61.9496 47.5595 61.86C47.7556 61.4903 47.6156 60.9581 47.2682 60.762C47.089 60.6611 46.8537 60.5995 46.764 60.6275Z" fill="#0B2D1F"/>
<path id="Vector_8" d="M49.4504 61.6304C49.1759 61.7536 49.0078 62.0338 49.0078 62.3755C49.0078 62.6892 49.1087 62.8797 49.3944 63.0869C49.5456 63.2046 49.6016 63.2046 53.2094 63.2046C56.8171 63.2046 56.8732 63.2046 57.0244 63.0869C57.3101 62.8797 57.411 62.6892 57.411 62.3755C57.411 62.0282 57.2429 61.748 56.9572 61.6304C56.6883 61.5184 49.7081 61.5184 49.4504 61.6304Z" fill="#0B2D1F"/>
</g>
</g>
</g>
</svg>
