<svg width="72" height="72" viewBox="0 0 72 72" fill="none" xmlns="http://www.w3.org/2000/svg">
<g id="leave-by-type">
<g id="Group">
<g id="Group 1171275563">
<g id="Vector">
<mask id="path-1-outside-1_6490_47530" maskUnits="userSpaceOnUse" x="9" y="3" width="55" height="65" fill="black">
<rect fill="white" x="9" y="3" width="55" height="65"/>
<path d="M62.249 27.3493L57.2729 22.3733C56.6987 21.7991 55.9331 21.7991 55.359 22.3733C54.7848 22.9474 54.7848 23.713 55.359 24.2871L58.0384 26.9666H47.1293V5.33971C47.1293 4.95694 46.9379 4.57416 46.7465 4.38277C46.5551 4.19139 46.1724 4 45.7896 4C45.024 4 12.1053 4 11.1483 4C10.5742 4.19139 10 4.57416 10 5.33971V51.0815C10 51.6556 10.3828 52.0384 10.7656 52.2298L36.4116 66.5839C36.7943 66.7753 37.3685 66.7753 37.7513 66.5839C38.1341 66.3925 38.3254 66.0097 38.3254 65.4356V52.4212H45.981C46.3637 52.4212 46.7465 52.2298 46.9379 52.0384C47.1293 51.847 47.3207 51.4642 47.3207 51.0815V29.646H58.2298L55.5504 32.3254C54.9762 32.8996 54.9762 33.6652 55.5504 34.2393C56.1245 34.8135 56.8901 34.8135 57.4642 34.2393L62.4403 29.2632C62.6317 28.6891 62.6317 27.7321 62.249 27.3493ZM30.4785 36.3446C29.9044 37.3015 28.5646 37.6843 27.6077 37.1101C26.6508 36.536 26.268 35.1963 26.8422 34.2393C27.4163 33.2824 28.756 32.8996 29.713 33.4738C30.6699 34.2393 31.0527 35.3876 30.4785 36.3446ZM44.6412 49.7418H38.7082V19.6938C38.7082 19.1197 38.5168 18.7369 37.9427 18.5455L16.6986 6.67943H44.6412V49.7418Z"/>
</mask>
<path d="M62.249 27.3493L57.2729 22.3733C56.6987 21.7991 55.9331 21.7991 55.359 22.3733C54.7848 22.9474 54.7848 23.713 55.359 24.2871L58.0384 26.9666H47.1293V5.33971C47.1293 4.95694 46.9379 4.57416 46.7465 4.38277C46.5551 4.19139 46.1724 4 45.7896 4C45.024 4 12.1053 4 11.1483 4C10.5742 4.19139 10 4.57416 10 5.33971V51.0815C10 51.6556 10.3828 52.0384 10.7656 52.2298L36.4116 66.5839C36.7943 66.7753 37.3685 66.7753 37.7513 66.5839C38.1341 66.3925 38.3254 66.0097 38.3254 65.4356V52.4212H45.981C46.3637 52.4212 46.7465 52.2298 46.9379 52.0384C47.1293 51.847 47.3207 51.4642 47.3207 51.0815V29.646H58.2298L55.5504 32.3254C54.9762 32.8996 54.9762 33.6652 55.5504 34.2393C56.1245 34.8135 56.8901 34.8135 57.4642 34.2393L62.4403 29.2632C62.6317 28.6891 62.6317 27.7321 62.249 27.3493ZM30.4785 36.3446C29.9044 37.3015 28.5646 37.6843 27.6077 37.1101C26.6508 36.536 26.268 35.1963 26.8422 34.2393C27.4163 33.2824 28.756 32.8996 29.713 33.4738C30.6699 34.2393 31.0527 35.3876 30.4785 36.3446ZM44.6412 49.7418H38.7082V19.6938C38.7082 19.1197 38.5168 18.7369 37.9427 18.5455L16.6986 6.67943H44.6412V49.7418Z" fill="#4D0000"/>
<path d="M62.249 27.3493L57.2729 22.3733C56.6987 21.7991 55.9331 21.7991 55.359 22.3733C54.7848 22.9474 54.7848 23.713 55.359 24.2871L58.0384 26.9666H47.1293V5.33971C47.1293 4.95694 46.9379 4.57416 46.7465 4.38277C46.5551 4.19139 46.1724 4 45.7896 4C45.024 4 12.1053 4 11.1483 4C10.5742 4.19139 10 4.57416 10 5.33971V51.0815C10 51.6556 10.3828 52.0384 10.7656 52.2298L36.4116 66.5839C36.7943 66.7753 37.3685 66.7753 37.7513 66.5839C38.1341 66.3925 38.3254 66.0097 38.3254 65.4356V52.4212H45.981C46.3637 52.4212 46.7465 52.2298 46.9379 52.0384C47.1293 51.847 47.3207 51.4642 47.3207 51.0815V29.646H58.2298L55.5504 32.3254C54.9762 32.8996 54.9762 33.6652 55.5504 34.2393C56.1245 34.8135 56.8901 34.8135 57.4642 34.2393L62.4403 29.2632C62.6317 28.6891 62.6317 27.7321 62.249 27.3493ZM30.4785 36.3446C29.9044 37.3015 28.5646 37.6843 27.6077 37.1101C26.6508 36.536 26.268 35.1963 26.8422 34.2393C27.4163 33.2824 28.756 32.8996 29.713 33.4738C30.6699 34.2393 31.0527 35.3876 30.4785 36.3446ZM44.6412 49.7418H38.7082V19.6938C38.7082 19.1197 38.5168 18.7369 37.9427 18.5455L16.6986 6.67943H44.6412V49.7418Z" stroke="#4D0000" stroke-width="1.9146" mask="url(#path-1-outside-1_6490_47530)"/>
</g>
<path id="Vector_2" d="M12.6797 50.5072V7.63623L36.2204 20.2678V63.3302L12.6797 50.5072ZM28.5649 30.7942C27.0338 30.7942 25.5027 31.7511 24.5457 33.0908C23.9716 34.2392 23.7802 35.3875 24.163 36.5358C24.5457 37.6842 25.3113 38.6411 26.2682 39.2153C27.0338 39.598 27.7993 39.7894 28.5649 39.7894C30.096 39.7894 31.6271 38.8325 32.584 37.4928C33.1582 36.3444 33.3496 35.1961 32.9668 34.0478C32.584 32.8995 31.8185 31.9425 30.8615 31.3684C30.2874 30.9856 29.3304 30.7942 28.5649 30.7942Z" fill="#BE1A2E"/>
</g>
<g id="Group 1171275273">
<circle id="Ellipse 2648" cx="49.166" cy="54.2593" r="12.0254" fill="#BE1A2E"/>
<g id="Group_2">
<path id="Vector_3" d="M47.7099 40.5534C45.0633 40.8755 42.6275 41.8708 40.6016 43.4693C40.0688 43.885 38.8041 45.1498 38.3884 45.6826C36.9363 47.527 35.9233 49.8398 35.5603 52.1526C35.4256 53.0016 35.3788 54.7113 35.4666 55.5721C35.736 58.1893 36.6728 60.5548 38.3005 62.7154C38.7572 63.3185 40.1098 64.6711 40.7129 65.1278C42.6568 66.5916 44.7588 67.4991 47.0951 67.868C48.0085 68.0144 49.7475 68.0437 50.7077 67.9324C53.2958 67.6338 55.468 66.7497 57.6345 65.1219C58.2376 64.6769 59.5901 63.3185 60.0468 62.7154C61.5223 60.7539 62.4299 58.6519 62.7988 56.2922C62.9452 55.3613 62.9452 53.148 62.7988 52.217C62.4299 49.8574 61.5223 47.7553 60.0468 45.7938C59.5901 45.1908 58.2376 43.8382 57.6345 43.3815C55.6788 41.906 53.5827 41.0043 51.2523 40.6354C50.5614 40.5241 48.3657 40.4773 47.7099 40.5534ZM50.7546 43.1648C55.105 43.7972 58.7177 46.9297 59.918 51.0987C60.2752 52.3283 60.3279 52.7323 60.3279 54.2546C60.3279 55.777 60.2752 56.181 59.918 57.4106C59.5608 58.6519 58.9226 59.9225 58.1029 61.0174C57.652 61.6205 56.5395 62.733 55.9365 63.1838C53.1611 65.2624 49.6714 65.9534 46.3339 65.0926C42.0069 63.9684 38.728 60.2914 38.078 55.8297C37.9609 55.0158 37.9609 53.4876 38.078 52.6796C38.9739 46.5433 44.6593 42.2807 50.7546 43.1648Z" fill="#4D0000"/>
</g>
</g>
<g id="Group_3">
<g id="Vector_4">
<mask id="path-5-outside-2_6490_47530" maskUnits="userSpaceOnUse" x="40.7656" y="45.9615" width="9" height="8" fill="black">
<rect fill="white" x="40.7656" y="45.9615" width="9" height="8"/>
<path d="M45.0183 46.9045C44.9722 46.9435 42.0288 52.0821 41.8196 52.4899C41.7416 52.6424 41.7487 52.7559 41.8373 52.8693L41.9083 52.9615H45.1886C47.2631 52.9615 48.4937 52.9474 48.5362 52.9261C48.5717 52.9084 48.6178 52.841 48.6391 52.7807C48.671 52.6885 48.6639 52.6424 48.6107 52.5218C48.4901 52.2523 45.4474 46.9506 45.3907 46.9045C45.3588 46.8832 45.2737 46.862 45.2027 46.862C45.1318 46.862 45.0503 46.8832 45.0183 46.9045ZM46.522 50.0784C47.2418 51.3374 47.8199 52.3764 47.8163 52.3835C47.8093 52.3906 46.6283 52.3906 45.1921 52.3871L42.5821 52.3764L43.8835 50.082C44.5999 48.8195 45.1921 47.784 45.2027 47.784C45.2134 47.784 45.8056 48.816 46.522 50.0784Z"/>
</mask>
<path d="M45.0183 46.9045C44.9722 46.9435 42.0288 52.0821 41.8196 52.4899C41.7416 52.6424 41.7487 52.7559 41.8373 52.8693L41.9083 52.9615H45.1886C47.2631 52.9615 48.4937 52.9474 48.5362 52.9261C48.5717 52.9084 48.6178 52.841 48.6391 52.7807C48.671 52.6885 48.6639 52.6424 48.6107 52.5218C48.4901 52.2523 45.4474 46.9506 45.3907 46.9045C45.3588 46.8832 45.2737 46.862 45.2027 46.862C45.1318 46.862 45.0503 46.8832 45.0183 46.9045ZM46.522 50.0784C47.2418 51.3374 47.8199 52.3764 47.8163 52.3835C47.8093 52.3906 46.6283 52.3906 45.1921 52.3871L42.5821 52.3764L43.8835 50.082C44.5999 48.8195 45.1921 47.784 45.2027 47.784C45.2134 47.784 45.8056 48.816 46.522 50.0784Z" fill="#4D0000"/>
<path d="M45.0183 46.9045C44.9722 46.9435 42.0288 52.0821 41.8196 52.4899C41.7416 52.6424 41.7487 52.7559 41.8373 52.8693L41.9083 52.9615H45.1886C47.2631 52.9615 48.4937 52.9474 48.5362 52.9261C48.5717 52.9084 48.6178 52.841 48.6391 52.7807C48.671 52.6885 48.6639 52.6424 48.6107 52.5218C48.4901 52.2523 45.4474 46.9506 45.3907 46.9045C45.3588 46.8832 45.2737 46.862 45.2027 46.862C45.1318 46.862 45.0503 46.8832 45.0183 46.9045ZM46.522 50.0784C47.2418 51.3374 47.8199 52.3764 47.8163 52.3835C47.8093 52.3906 46.6283 52.3906 45.1921 52.3871L42.5821 52.3764L43.8835 50.082C44.5999 48.8195 45.1921 47.784 45.2027 47.784C45.2134 47.784 45.8056 48.816 46.522 50.0784Z" stroke="#4D0000" mask="url(#path-5-outside-2_6490_47530)"/>
</g>
<g id="Vector_5">
<mask id="path-6-outside-3_6490_47530" maskUnits="userSpaceOnUse" x="49.0234" y="45.9615" width="8" height="8" fill="black">
<rect fill="white" x="49.0234" y="45.9615" width="8" height="8"/>
<path d="M50.7043 47.362C50.4525 47.4613 50.1937 47.7202 50.0979 47.979C50.027 48.1705 50.0234 48.2379 50.0234 50.1245C50.0234 52.0111 50.027 52.0785 50.0979 52.27C50.1972 52.5324 50.4525 52.7878 50.715 52.8871C50.9065 52.958 50.9738 52.9615 52.8605 52.9615C54.7471 52.9615 54.8144 52.958 55.0059 52.8871C55.2684 52.7878 55.5237 52.5324 55.623 52.27C55.6939 52.0785 55.6975 52.0111 55.6975 50.1245C55.6975 48.2379 55.6939 48.1705 55.623 47.979C55.5237 47.7166 55.2684 47.4613 55.0059 47.362C54.8144 47.2911 54.7506 47.2875 52.8498 47.2911C50.9703 47.2911 50.8852 47.2946 50.7043 47.362ZM54.6478 47.8904C54.8215 47.9294 54.9492 48.0216 55.0414 48.1776C55.1088 48.2947 55.1123 48.362 55.1123 50.1245C55.1123 51.887 55.1088 51.9544 55.0414 52.0714C54.9492 52.2275 54.8215 52.3197 54.6478 52.3587C54.4669 52.4012 51.254 52.4012 51.0731 52.3587C50.8994 52.3197 50.7717 52.2275 50.6795 52.0714C50.6121 51.9544 50.6086 51.887 50.6086 50.1245C50.6086 48.362 50.6121 48.2947 50.6795 48.1776C50.7682 48.0287 50.8994 47.9259 51.0554 47.8904C51.2221 47.8514 54.4775 47.8478 54.6478 47.8904Z"/>
</mask>
<path d="M50.7043 47.362C50.4525 47.4613 50.1937 47.7202 50.0979 47.979C50.027 48.1705 50.0234 48.2379 50.0234 50.1245C50.0234 52.0111 50.027 52.0785 50.0979 52.27C50.1972 52.5324 50.4525 52.7878 50.715 52.8871C50.9065 52.958 50.9738 52.9615 52.8605 52.9615C54.7471 52.9615 54.8144 52.958 55.0059 52.8871C55.2684 52.7878 55.5237 52.5324 55.623 52.27C55.6939 52.0785 55.6975 52.0111 55.6975 50.1245C55.6975 48.2379 55.6939 48.1705 55.623 47.979C55.5237 47.7166 55.2684 47.4613 55.0059 47.362C54.8144 47.2911 54.7506 47.2875 52.8498 47.2911C50.9703 47.2911 50.8852 47.2946 50.7043 47.362ZM54.6478 47.8904C54.8215 47.9294 54.9492 48.0216 55.0414 48.1776C55.1088 48.2947 55.1123 48.362 55.1123 50.1245C55.1123 51.887 55.1088 51.9544 55.0414 52.0714C54.9492 52.2275 54.8215 52.3197 54.6478 52.3587C54.4669 52.4012 51.254 52.4012 51.0731 52.3587C50.8994 52.3197 50.7717 52.2275 50.6795 52.0714C50.6121 51.9544 50.6086 51.887 50.6086 50.1245C50.6086 48.362 50.6121 48.2947 50.6795 48.1776C50.7682 48.0287 50.8994 47.9259 51.0554 47.8904C51.2221 47.8514 54.4775 47.8478 54.6478 47.8904Z" fill="#4D0000"/>
<path d="M50.7043 47.362C50.4525 47.4613 50.1937 47.7202 50.0979 47.979C50.027 48.1705 50.0234 48.2379 50.0234 50.1245C50.0234 52.0111 50.027 52.0785 50.0979 52.27C50.1972 52.5324 50.4525 52.7878 50.715 52.8871C50.9065 52.958 50.9738 52.9615 52.8605 52.9615C54.7471 52.9615 54.8144 52.958 55.0059 52.8871C55.2684 52.7878 55.5237 52.5324 55.623 52.27C55.6939 52.0785 55.6975 52.0111 55.6975 50.1245C55.6975 48.2379 55.6939 48.1705 55.623 47.979C55.5237 47.7166 55.2684 47.4613 55.0059 47.362C54.8144 47.2911 54.7506 47.2875 52.8498 47.2911C50.9703 47.2911 50.8852 47.2946 50.7043 47.362ZM54.6478 47.8904C54.8215 47.9294 54.9492 48.0216 55.0414 48.1776C55.1088 48.2947 55.1123 48.362 55.1123 50.1245C55.1123 51.887 55.1088 51.9544 55.0414 52.0714C54.9492 52.2275 54.8215 52.3197 54.6478 52.3587C54.4669 52.4012 51.254 52.4012 51.0731 52.3587C50.8994 52.3197 50.7717 52.2275 50.6795 52.0714C50.6121 51.9544 50.6086 51.887 50.6086 50.1245C50.6086 48.362 50.6121 48.2947 50.6795 48.1776C50.7682 48.0287 50.8994 47.9259 51.0554 47.8904C51.2221 47.8514 54.4775 47.8478 54.6478 47.8904Z" stroke="#4D0000" mask="url(#path-6-outside-3_6490_47530)"/>
</g>
<g id="Vector_6">
<mask id="path-7-outside-4_6490_47530" maskUnits="userSpaceOnUse" x="48.5078" y="54.3416" width="9" height="9" fill="black">
<rect fill="white" x="48.5078" y="54.3416" width="9" height="9"/>
<path d="M52.5186 55.671C52.437 55.6958 52.3023 55.7668 52.2172 55.8271C52.1321 55.8838 51.5186 56.4831 50.8519 57.1534C49.4866 58.5258 49.5078 58.4974 49.5078 59.0081C49.5078 59.4762 49.5078 59.4762 50.9405 60.9089C52.3839 62.3522 52.3697 62.3415 52.8591 62.3415C53.3591 62.3415 53.3378 62.3557 54.7776 60.9124C56.2209 59.4655 56.2103 59.4797 56.2103 58.9903C56.2103 58.5009 56.2209 58.5151 54.7776 57.0683C53.7563 56.0434 53.4796 55.788 53.3378 55.7242C53.1215 55.6285 52.7243 55.6001 52.5186 55.671ZM53.047 56.2739C53.1108 56.3023 53.696 56.8626 54.3733 57.5399C55.6641 58.8414 55.6748 58.852 55.6074 59.1215C55.5826 59.2315 53.2314 61.6181 53.0647 61.7068C52.9406 61.7706 52.7739 61.7706 52.6534 61.7068C52.5363 61.6429 50.1887 59.2882 50.132 59.1783C50.0788 59.0719 50.0823 58.8981 50.1426 58.7846C50.2171 58.6499 52.5754 56.3058 52.6817 56.2632C52.8094 56.2136 52.9158 56.2171 53.047 56.2739Z"/>
</mask>
<path d="M52.5186 55.671C52.437 55.6958 52.3023 55.7668 52.2172 55.8271C52.1321 55.8838 51.5186 56.4831 50.8519 57.1534C49.4866 58.5258 49.5078 58.4974 49.5078 59.0081C49.5078 59.4762 49.5078 59.4762 50.9405 60.9089C52.3839 62.3522 52.3697 62.3415 52.8591 62.3415C53.3591 62.3415 53.3378 62.3557 54.7776 60.9124C56.2209 59.4655 56.2103 59.4797 56.2103 58.9903C56.2103 58.5009 56.2209 58.5151 54.7776 57.0683C53.7563 56.0434 53.4796 55.788 53.3378 55.7242C53.1215 55.6285 52.7243 55.6001 52.5186 55.671ZM53.047 56.2739C53.1108 56.3023 53.696 56.8626 54.3733 57.5399C55.6641 58.8414 55.6748 58.852 55.6074 59.1215C55.5826 59.2315 53.2314 61.6181 53.0647 61.7068C52.9406 61.7706 52.7739 61.7706 52.6534 61.7068C52.5363 61.6429 50.1887 59.2882 50.132 59.1783C50.0788 59.0719 50.0823 58.8981 50.1426 58.7846C50.2171 58.6499 52.5754 56.3058 52.6817 56.2632C52.8094 56.2136 52.9158 56.2171 53.047 56.2739Z" fill="#4D0000"/>
<path d="M52.5186 55.671C52.437 55.6958 52.3023 55.7668 52.2172 55.8271C52.1321 55.8838 51.5186 56.4831 50.8519 57.1534C49.4866 58.5258 49.5078 58.4974 49.5078 59.0081C49.5078 59.4762 49.5078 59.4762 50.9405 60.9089C52.3839 62.3522 52.3697 62.3415 52.8591 62.3415C53.3591 62.3415 53.3378 62.3557 54.7776 60.9124C56.2209 59.4655 56.2103 59.4797 56.2103 58.9903C56.2103 58.5009 56.2209 58.5151 54.7776 57.0683C53.7563 56.0434 53.4796 55.788 53.3378 55.7242C53.1215 55.6285 52.7243 55.6001 52.5186 55.671ZM53.047 56.2739C53.1108 56.3023 53.696 56.8626 54.3733 57.5399C55.6641 58.8414 55.6748 58.852 55.6074 59.1215C55.5826 59.2315 53.2314 61.6181 53.0647 61.7068C52.9406 61.7706 52.7739 61.7706 52.6534 61.7068C52.5363 61.6429 50.1887 59.2882 50.132 59.1783C50.0788 59.0719 50.0823 58.8981 50.1426 58.7846C50.2171 58.6499 52.5754 56.3058 52.6817 56.2632C52.8094 56.2136 52.9158 56.2171 53.047 56.2739Z" stroke="#4D0000" mask="url(#path-7-outside-4_6490_47530)"/>
</g>
<g id="Vector_7">
<mask id="path-8-outside-5_6490_47530" maskUnits="userSpaceOnUse" x="41.1016" y="54.8549" width="8" height="8" fill="black">
<rect fill="white" x="41.1016" y="54.8549" width="8" height="8"/>
<path d="M44.4776 55.6985C43.3676 55.9822 42.5661 56.7305 42.2044 57.8298C42.1122 58.11 42.1051 58.1703 42.1016 58.7341C42.1016 59.2235 42.1157 59.3796 42.1689 59.5675C42.4385 60.4931 43.0591 61.2236 43.9066 61.6066C44.3854 61.8229 44.5556 61.8549 45.2223 61.8549C45.7861 61.8513 45.8464 61.8442 46.1266 61.752C47.2401 61.3868 48.0167 60.5427 48.2685 59.4292C48.3501 59.0675 48.343 58.3902 48.2543 58.0072C47.9884 56.8936 47.0628 55.9681 45.9493 55.7021C45.5521 55.6099 44.8393 55.6063 44.4776 55.6985ZM45.7152 56.273C46.5557 56.4362 47.3075 57.1064 47.6089 57.9682C47.694 58.2128 47.7047 58.2873 47.7047 58.7519C47.7047 59.2271 47.6976 59.2874 47.6054 59.5498C47.2046 60.681 46.1337 61.3726 44.9492 61.2626C43.9173 61.1669 43.0449 60.4186 42.7576 59.3867C42.6725 59.0675 42.6619 58.5214 42.7399 58.1916C43.0555 56.8546 44.3641 56.0106 45.7152 56.273Z"/>
</mask>
<path d="M44.4776 55.6985C43.3676 55.9822 42.5661 56.7305 42.2044 57.8298C42.1122 58.11 42.1051 58.1703 42.1016 58.7341C42.1016 59.2235 42.1157 59.3796 42.1689 59.5675C42.4385 60.4931 43.0591 61.2236 43.9066 61.6066C44.3854 61.8229 44.5556 61.8549 45.2223 61.8549C45.7861 61.8513 45.8464 61.8442 46.1266 61.752C47.2401 61.3868 48.0167 60.5427 48.2685 59.4292C48.3501 59.0675 48.343 58.3902 48.2543 58.0072C47.9884 56.8936 47.0628 55.9681 45.9493 55.7021C45.5521 55.6099 44.8393 55.6063 44.4776 55.6985ZM45.7152 56.273C46.5557 56.4362 47.3075 57.1064 47.6089 57.9682C47.694 58.2128 47.7047 58.2873 47.7047 58.7519C47.7047 59.2271 47.6976 59.2874 47.6054 59.5498C47.2046 60.681 46.1337 61.3726 44.9492 61.2626C43.9173 61.1669 43.0449 60.4186 42.7576 59.3867C42.6725 59.0675 42.6619 58.5214 42.7399 58.1916C43.0555 56.8546 44.3641 56.0106 45.7152 56.273Z" fill="#4D0000"/>
<path d="M44.4776 55.6985C43.3676 55.9822 42.5661 56.7305 42.2044 57.8298C42.1122 58.11 42.1051 58.1703 42.1016 58.7341C42.1016 59.2235 42.1157 59.3796 42.1689 59.5675C42.4385 60.4931 43.0591 61.2236 43.9066 61.6066C44.3854 61.8229 44.5556 61.8549 45.2223 61.8549C45.7861 61.8513 45.8464 61.8442 46.1266 61.752C47.2401 61.3868 48.0167 60.5427 48.2685 59.4292C48.3501 59.0675 48.343 58.3902 48.2543 58.0072C47.9884 56.8936 47.0628 55.9681 45.9493 55.7021C45.5521 55.6099 44.8393 55.6063 44.4776 55.6985ZM45.7152 56.273C46.5557 56.4362 47.3075 57.1064 47.6089 57.9682C47.694 58.2128 47.7047 58.2873 47.7047 58.7519C47.7047 59.2271 47.6976 59.2874 47.6054 59.5498C47.2046 60.681 46.1337 61.3726 44.9492 61.2626C43.9173 61.1669 43.0449 60.4186 42.7576 59.3867C42.6725 59.0675 42.6619 58.5214 42.7399 58.1916C43.0555 56.8546 44.3641 56.0106 45.7152 56.273Z" stroke="#4D0000" mask="url(#path-8-outside-5_6490_47530)"/>
</g>
</g>
</g>
</g>
</svg>
