<svg width="72" height="72" viewBox="0 0 72 72" fill="none" xmlns="http://www.w3.org/2000/svg">
<g id="leave-by-employee">
<g id="Vector 846">
<path d="M17 14.5L12.5 20.5L13.5 28L19 31L26 30C26.6667 27.6667 28 22.7 28 21.5C28 20.3 26.6667 18 26 17L22.5 13.5L17 14.5Z" fill="#BE1A2E"/>
<path d="M5.5 43L2.5 51L24 53.5H38L36.5 47L30.5 40.5L25 38L13.5 38.5L5.5 43Z" fill="#BE1A2E"/>
</g>
<g id="my-leaves">
<g id="Group 1171274798">
<g id="Group 1171275503">
<path id="Rectangle 34624673" d="M68.4223 46.1409H50.2969V64.2663H68.4223V46.1409Z" fill="#BE1A2E"/>
<path id="Vector" d="M57.965 60.1412C58.4138 60.59 59.1388 60.59 59.5876 60.1412L63.719 56.0098C63.8258 55.9032 63.9104 55.7768 63.9682 55.6375C64.026 55.4985 64.0556 55.3493 64.0556 55.1984C64.0556 55.0478 64.026 54.8986 63.9682 54.7593C63.9104 54.62 63.8258 54.4936 63.719 54.387L59.5876 50.2556C59.3723 50.0405 59.0805 49.9195 58.7762 49.9195C58.4719 49.9195 58.1801 50.0405 57.965 50.2556C57.7497 50.4709 57.629 50.7627 57.629 51.067C57.629 51.3713 57.7497 51.6631 57.965 51.8784L60.1285 54.0533H50.1508C49.518 54.0533 49 54.5713 49 55.2041C49 55.8372 49.518 56.3551 50.1508 56.3551H60.1285L57.965 58.5186C57.5162 58.9674 57.5276 59.704 57.965 60.1412ZM67.4132 44.8469H51.3018C50.6913 44.8469 50.1058 45.0892 49.6743 45.521C49.2425 45.9527 49 46.5379 49 47.1485V50.6009C49 51.234 49.518 51.7517 50.1508 51.7517C50.7839 51.7517 51.3018 51.234 51.3018 50.6009V48.2993C51.3018 47.6662 51.8196 47.1485 52.4526 47.1485H66.2624C66.8952 47.1485 67.4132 47.6662 67.4132 48.2993V62.1091C67.4132 62.7422 66.8952 63.2599 66.2624 63.2599H52.4526C51.8196 63.2599 51.3018 62.7422 51.3018 62.1091V59.8075C51.3018 59.1744 50.7839 58.6567 50.1508 58.6567C49.518 58.6567 49 59.1744 49 59.8075V63.2599C49 64.5258 50.0359 65.5615 51.3018 65.5615H67.4132C68.6791 65.5615 69.7148 64.5258 69.7148 63.2599V47.1485C69.7148 45.8826 68.6791 44.8469 67.4132 44.8469Z" fill="#4D0000" stroke="#4D0000" stroke-width="0.536544"/>
</g>
</g>
</g>
<path id="Subtract" fill-rule="evenodd" clip-rule="evenodd" d="M20.0784 33.4657C14.5569 33.4657 10.0849 28.5965 10.0849 22.6071C10.0849 16.7092 14.534 12 20.0784 12C25.5544 12 30.072 16.7778 30.072 22.6528C30.0492 28.6194 25.5772 33.4657 20.0784 33.4657ZM46.5226 33.9915C41.7084 33.9915 37.8296 29.7166 37.8296 24.4359C37.8296 19.2924 41.7084 15.1318 46.5226 15.1318C51.2913 15.1318 55.2385 19.361 55.2157 24.4588C55.2157 29.7395 51.3141 33.9915 46.5226 33.9915ZM20.0784 29.4652C23.2271 29.4652 25.8966 26.4934 25.8966 22.63C25.8966 18.9038 23.2499 16.0005 20.0784 16.0005C16.8841 16.0005 14.2602 18.8581 14.2602 22.6071C14.2602 26.4476 16.9069 29.4652 20.0784 29.4652ZM46.5226 30.0367C49.1009 30.0367 51.2913 27.5678 51.2913 24.4588C51.2913 21.487 49.1237 19.0638 46.5226 19.0638C43.8759 19.0638 41.7312 21.4413 41.7312 24.4359C41.7312 27.5678 43.9216 30.0367 46.5226 30.0367ZM60.5711 42.4087C57.3926 38.8209 52.2972 36.369 46.5455 36.369C42.9861 36.369 39.3811 37.3291 36.4834 39.1122C37.7383 39.9351 38.6966 40.8953 39.4724 42.0154C41.4346 40.9181 43.99 40.278 46.5455 40.278C49.4694 40.278 52.2106 41.0925 54.4389 42.4087H60.5711ZM44.138 55C44.2378 54.314 44.8325 53.7824 45.545 53.7824H45.7227V51.0909H43.2827C43.4424 52.5997 42.5982 54.2685 41.3433 55H44.138ZM5.86382 55C1.91658 55 0 53.7427 0 51.0452C0 44.7586 7.84884 36.3918 20.0784 36.3918C32.308 36.3918 40.1569 44.7586 40.1569 51.0452C40.1569 53.7427 38.2403 55 34.293 55H5.86382ZM35.0232 50.9995C35.548 50.9995 35.7533 50.8166 35.7533 50.4051C35.7533 46.9075 30.1176 40.3923 20.0784 40.3923C10.0392 40.3923 4.40356 46.9075 4.40356 50.4051C4.40356 50.8166 4.60891 50.9995 5.1565 50.9995H35.0232Z" fill="#4D0000"/>
</g>
</svg>
