<svg width="72" height="72" viewBox="0 0 72 72" fill="none" xmlns="http://www.w3.org/2000/svg">
<g id="leave-balance-report">
<g id="Group 1171275505">
<g id="Group">
<path id="Vector 59" d="M13.0781 11.2981H19.8692V14.6157H47.7129V11.2981H53.1458L54.504 59.7345H13.0781V11.2981Z" fill="#BE1A2E" stroke="#BE1A2E" stroke-width="0.491144"/>
<path id="Vector" d="M27.0371 4.07134C25.1868 4.37458 23.253 5.28429 21.9757 6.45058L21.0924 7.25533H17.5112C13.6078 7.25533 13.0706 7.31365 11.9485 7.8618C10.5996 8.5266 9.46555 9.96114 9.14325 11.4307C8.95225 12.3054 8.95225 58.6541 9.14325 59.5288C9.33424 60.3919 9.88335 61.4182 10.516 62.0713C11.1368 62.7128 12.3663 63.3893 13.2855 63.5759C14.1807 63.7625 52.3081 63.7625 53.2034 63.5759C55.2328 63.156 56.9159 61.4999 57.3456 59.5288C57.5366 58.6424 57.5366 12.3054 57.3456 11.4307C56.9159 9.45964 55.2089 7.79183 53.2034 7.38363C52.8214 7.30198 51.1502 7.25533 48.9777 7.25533H45.3846L44.5848 6.5089C43.6776 5.68083 42.7703 5.10934 41.5527 4.64282C39.989 4.02468 39.4637 3.9897 33.1489 4.00136C29.9498 4.01302 27.2042 4.04801 27.0371 4.07134ZM39.4398 7.66354C39.8576 7.7685 40.5381 8.01342 40.932 8.2117C42.1257 8.82983 43.4627 10.311 43.8089 11.419L43.8805 11.6873H33.2444H22.6084L22.68 11.419C22.883 10.8009 23.444 9.94948 24.1244 9.27303C24.9123 8.49161 26.1537 7.80349 27.1684 7.61688C27.4549 7.55857 30.1646 7.51192 33.1848 7.50026C37.697 7.48859 38.8072 7.52358 39.4398 7.66354ZM18.9556 11.5356C18.8601 11.9788 18.8004 12.7486 18.8243 13.2851C18.8601 14.3114 19.0511 14.6497 19.7793 15.0229C20.2568 15.2678 46.2321 15.2678 46.7096 15.0229C47.4378 14.6497 47.6288 14.3114 47.6646 13.2851C47.6884 12.7486 47.6288 11.9788 47.5333 11.5356L47.3661 10.7542H49.8849C52.7737 10.7542 53.1557 10.8475 53.6332 11.6756L53.8958 12.1305V35.4797V58.829L53.6451 59.2722C53.5019 59.5171 53.1915 59.8204 52.9408 59.9603L52.4872 60.2053H33.2444H14.0017L13.5481 59.9603C13.2974 59.8204 12.987 59.5171 12.8438 59.2722L12.5931 58.829V35.4797V12.1305L12.8557 11.6756C13.3332 10.8475 13.7033 10.7542 16.604 10.7542H19.1227L18.9556 11.5356Z" fill="#4D0000"/>
<path id="Vector_2" d="M25.0107 38.465C24.7839 38.5583 23.9602 39.2464 23.1962 39.9928L21.7996 41.3457L21.3102 40.9142C21.0356 40.6809 20.6894 40.436 20.5223 40.3777C19.054 39.8295 17.5858 41.3807 18.2781 42.7453C18.5407 43.2585 20.4388 45.1245 20.9759 45.4044C21.537 45.6844 22.0383 45.6844 22.5994 45.4044C22.8381 45.2762 23.9841 44.2498 25.142 43.0952C26.8252 41.439 27.2788 40.9259 27.3862 40.5526C27.6369 39.6663 27.0758 38.6283 26.2283 38.395C25.6553 38.2434 25.5121 38.255 25.0107 38.465Z" fill="#4D0000"/>
<path id="Vector_3" d="M31.0877 40.529C30.0014 41.2404 30.0252 42.64 31.1473 43.4564C31.4696 43.7013 31.589 43.7013 39.2766 43.7013C46.9641 43.7013 47.0835 43.7013 47.4058 43.4564C48.5279 42.64 48.5518 41.2404 47.4655 40.529L47.0596 40.2607H39.2766H31.4935L31.0877 40.529Z" fill="#4D0000"/>
<path id="Vector_4" d="M25.5493 48.3671C25.4897 48.3904 25.2748 48.4371 25.0838 48.4838C24.857 48.5304 24.2124 49.0552 23.2693 49.9649L21.8011 51.3762L21.3594 50.9913C20.87 50.5714 20.2612 50.2915 19.8553 50.2915C19.3539 50.2915 18.6258 50.7347 18.3512 51.2129C17.7902 52.1926 18.0289 52.7641 19.6762 54.3502C20.9893 55.6098 21.3116 55.7731 22.2427 55.5982C22.6128 55.5282 23.0306 55.1783 24.8689 53.4055C26.0746 52.2392 27.1489 51.1196 27.2444 50.933C27.6622 50.1632 27.3638 49.0552 26.6237 48.647C26.2417 48.4371 25.7403 48.3088 25.5493 48.3671Z" fill="#4D0000"/>
<path id="Vector_5" d="M31.2634 50.4548C30.6784 50.7113 30.3203 51.2945 30.3203 52.0059C30.3203 52.6591 30.5352 53.0556 31.144 53.4871C31.4663 53.7321 31.5857 53.7321 39.2732 53.7321C46.9608 53.7321 47.0801 53.7321 47.4024 53.4871C48.0112 53.0556 48.2261 52.6591 48.2261 52.0059C48.2261 51.2828 47.868 50.6997 47.2592 50.4548C46.6862 50.2215 31.8125 50.2215 31.2634 50.4548Z" fill="#4D0000"/>
</g>
<path id="Vector_6" d="M35.2069 33.6323C35.2069 34.1183 35.2257 34.5542 35.2069 34.9884C35.1539 35.9905 34.4308 36.6886 33.5095 36.6685C32.5881 36.6485 31.9061 35.9471 31.8821 34.935C31.8736 34.5425 31.8821 34.1517 31.8821 33.6674C31.1471 33.6674 30.4719 33.6957 29.7984 33.6674C28.6018 33.6056 27.8565 32.6219 28.1865 31.5613C28.4035 30.8632 28.9916 30.4407 29.8411 30.4324C31.3351 30.4157 32.8291 30.4324 34.3248 30.4324C34.5164 30.4422 34.7085 30.431 34.8975 30.399C35.371 30.2921 35.6513 29.9965 35.6188 29.5105C35.6214 29.4048 35.602 29.2997 35.5617 29.2016C35.5215 29.1035 35.4612 29.0144 35.3846 28.9397C35.3081 28.8651 35.2168 28.8064 35.1163 28.7673C35.0158 28.7282 34.9082 28.7094 34.8 28.7121C34.0753 28.6838 33.3488 28.7121 32.624 28.6971C30.2497 28.6754 28.4497 27.1439 28.142 24.8843C27.8446 22.7749 29.2121 20.8142 31.4343 20.2263C31.8206 20.1244 31.9009 19.9608 31.8838 19.6284C31.8667 19.2745 31.8702 18.9198 31.8941 18.5662C31.9176 18.1883 32.0779 17.8308 32.3462 17.5576C32.6145 17.2845 32.9735 17.1133 33.359 17.0748C33.7556 17.0253 34.1567 17.1233 34.4826 17.3496C34.8085 17.5758 35.0353 17.9135 35.118 18.2957C35.2291 18.8401 35.2103 19.4113 35.2564 20.071C35.9111 20.071 36.5829 20.071 37.2564 20.071C38.4359 20.0794 39.1948 20.7157 39.1983 21.6927C39.2017 22.6697 38.4427 23.306 37.2667 23.316C35.771 23.316 34.277 23.316 32.7813 23.316C31.9522 23.316 31.465 23.7001 31.4479 24.3431C31.4308 24.9861 31.9368 25.422 32.7932 25.4287C33.4342 25.4287 34.0753 25.4287 34.7146 25.4287C36.9367 25.4638 38.7008 26.9769 38.9401 29.0311C39.1846 31.1405 37.8222 33.0143 35.6598 33.5404C35.5368 33.5755 35.412 33.5939 35.2069 33.6323Z" fill="#4D0000"/>
<g id="Group 1171275503">
<path id="Rectangle 34624673" d="M61.9161 45.6132H40.5312V66.5068H61.9161V45.6132Z" fill="#BE1A2E"/>
<path id="Vector_7" d="M49.5772 61.7515C50.1067 62.2688 50.9621 62.2688 51.4916 61.7515L56.3659 56.9891C56.492 56.8663 56.5917 56.7205 56.6599 56.5599C56.7281 56.3997 56.763 56.2277 56.763 56.0538C56.763 55.8801 56.7281 55.7081 56.6599 55.5476C56.5917 55.3871 56.492 55.2413 56.3659 55.1184L51.4916 50.3561C51.2376 50.1082 50.8933 49.9687 50.5343 49.9687C50.1752 49.9687 49.8309 50.1082 49.5772 50.3561C49.3232 50.6042 49.1807 50.9406 49.1807 51.2914C49.1807 51.6422 49.3232 51.9786 49.5772 52.2267L52.1298 54.7338H40.3577C39.6111 54.7338 39 55.3308 39 56.0603C39 56.7901 39.6111 57.3872 40.3577 57.3872H52.1298L49.5772 59.8811C49.0477 60.3984 49.0611 61.2475 49.5772 61.7515ZM60.7245 44.1213H41.7158C40.9954 44.1213 40.3047 44.4006 39.7955 44.8983C39.2861 45.396 39 46.0706 39 46.7744V50.7541C39 51.4839 39.6111 52.0807 40.3577 52.0807C41.1047 52.0807 41.7158 51.4839 41.7158 50.7541V48.101C41.7158 47.3712 42.3266 46.7744 43.0735 46.7744H59.3667C60.1133 46.7744 60.7245 47.3712 60.7245 48.101V64.0199C60.7245 64.7497 60.1133 65.3465 59.3667 65.3465H43.0735C42.3266 65.3465 41.7158 64.7497 41.7158 64.0199V61.3668C41.7158 60.6371 41.1047 60.0403 40.3577 60.0403C39.6111 60.0403 39 60.6371 39 61.3668V65.3465C39 66.8057 40.2222 67.9996 41.7158 67.9996H60.7245C62.218 67.9996 63.4399 66.8057 63.4399 65.3465V46.7744C63.4399 45.3152 62.218 44.1213 60.7245 44.1213Z" fill="#4D0000" stroke="#4D0000" stroke-width="0.63303"/>
</g>
</g>
</g>
</svg>
