<svg width="72" height="72" viewBox="0 0 72 72" fill="none" xmlns="http://www.w3.org/2000/svg">
<g id="leave-count">
<g id="Group 1171275510">
<g id="Group 1171275508">
<g id="Group 1171275506">
<g id="Group">
<g id="Vector">
<mask id="path-1-outside-1_6490_47362" maskUnits="userSpaceOnUse" x="6" y="2" width="55" height="65" fill="black">
<rect fill="white" x="6" y="2" width="55" height="65"/>
<path d="M58.6889 26.6522L53.8614 21.8247C53.3044 21.2677 52.5617 21.2677 52.0047 21.8247C51.4476 22.3817 51.4476 23.1244 52.0047 23.6814L54.6041 26.2808H44.0207V5.29971C44.0207 4.92837 43.835 4.55702 43.6494 4.37135C43.4637 4.18567 43.0923 4 42.721 4C41.9783 4 10.0424 4 9.11404 4C8.55702 4.18567 8 4.55702 8 5.29971V49.6757C8 50.2327 8.37135 50.6041 8.74269 50.7898L33.623 64.7153C33.9943 64.901 34.5513 64.901 34.9227 64.7153C35.294 64.5296 35.4797 64.1583 35.4797 63.6012V50.9754H42.9067C43.278 50.9754 43.6493 50.7898 43.835 50.6041C44.0207 50.4184 44.2064 50.0471 44.2064 49.6757V28.8803H54.7898L52.1903 31.4797C51.6333 32.0367 51.6333 32.7794 52.1903 33.3364C52.7474 33.8935 53.4901 33.8935 54.0471 33.3364L58.8746 28.5089C59.0603 27.9519 59.0603 27.0235 58.6889 26.6522ZM27.8671 35.3789C27.3101 36.3072 26.0103 36.6786 25.082 36.1215C24.1536 35.5645 23.7823 34.2648 24.3393 33.3364C24.8963 32.4081 26.196 32.0367 27.1244 32.5937C28.0528 33.3364 28.4241 34.4505 27.8671 35.3789ZM41.6069 48.376H35.8511V19.2252C35.8511 18.6682 35.6654 18.2969 35.1084 18.1112L14.4986 6.59943H41.6069V48.376Z"/>
</mask>
<path d="M58.6889 26.6522L53.8614 21.8247C53.3044 21.2677 52.5617 21.2677 52.0047 21.8247C51.4476 22.3817 51.4476 23.1244 52.0047 23.6814L54.6041 26.2808H44.0207V5.29971C44.0207 4.92837 43.835 4.55702 43.6494 4.37135C43.4637 4.18567 43.0923 4 42.721 4C41.9783 4 10.0424 4 9.11404 4C8.55702 4.18567 8 4.55702 8 5.29971V49.6757C8 50.2327 8.37135 50.6041 8.74269 50.7898L33.623 64.7153C33.9943 64.901 34.5513 64.901 34.9227 64.7153C35.294 64.5296 35.4797 64.1583 35.4797 63.6012V50.9754H42.9067C43.278 50.9754 43.6493 50.7898 43.835 50.6041C44.0207 50.4184 44.2064 50.0471 44.2064 49.6757V28.8803H54.7898L52.1903 31.4797C51.6333 32.0367 51.6333 32.7794 52.1903 33.3364C52.7474 33.8935 53.4901 33.8935 54.0471 33.3364L58.8746 28.5089C59.0603 27.9519 59.0603 27.0235 58.6889 26.6522ZM27.8671 35.3789C27.3101 36.3072 26.0103 36.6786 25.082 36.1215C24.1536 35.5645 23.7823 34.2648 24.3393 33.3364C24.8963 32.4081 26.196 32.0367 27.1244 32.5937C28.0528 33.3364 28.4241 34.4505 27.8671 35.3789ZM41.6069 48.376H35.8511V19.2252C35.8511 18.6682 35.6654 18.2969 35.1084 18.1112L14.4986 6.59943H41.6069V48.376Z" fill="#0B2D1F"/>
<path d="M58.6889 26.6522L53.8614 21.8247C53.3044 21.2677 52.5617 21.2677 52.0047 21.8247C51.4476 22.3817 51.4476 23.1244 52.0047 23.6814L54.6041 26.2808H44.0207V5.29971C44.0207 4.92837 43.835 4.55702 43.6494 4.37135C43.4637 4.18567 43.0923 4 42.721 4C41.9783 4 10.0424 4 9.11404 4C8.55702 4.18567 8 4.55702 8 5.29971V49.6757C8 50.2327 8.37135 50.6041 8.74269 50.7898L33.623 64.7153C33.9943 64.901 34.5513 64.901 34.9227 64.7153C35.294 64.5296 35.4797 64.1583 35.4797 63.6012V50.9754H42.9067C43.278 50.9754 43.6493 50.7898 43.835 50.6041C44.0207 50.4184 44.2064 50.0471 44.2064 49.6757V28.8803H54.7898L52.1903 31.4797C51.6333 32.0367 51.6333 32.7794 52.1903 33.3364C52.7474 33.8935 53.4901 33.8935 54.0471 33.3364L58.8746 28.5089C59.0603 27.9519 59.0603 27.0235 58.6889 26.6522ZM27.8671 35.3789C27.3101 36.3072 26.0103 36.6786 25.082 36.1215C24.1536 35.5645 23.7823 34.2648 24.3393 33.3364C24.8963 32.4081 26.196 32.0367 27.1244 32.5937C28.0528 33.3364 28.4241 34.4505 27.8671 35.3789ZM41.6069 48.376H35.8511V19.2252C35.8511 18.6682 35.6654 18.2969 35.1084 18.1112L14.4986 6.59943H41.6069V48.376Z" stroke="#0B2D1F" stroke-width="2.69391" mask="url(#path-1-outside-1_6490_47362)"/>
</g>
<path id="Vector_2" d="M10.6016 49.118V7.5271L33.4394 19.7816V61.5581L10.6016 49.118ZM26.0125 29.9936C24.5271 29.9936 23.0417 30.922 22.1133 32.2217C21.5563 33.3357 21.3706 34.4498 21.742 35.5638C22.1133 36.6779 22.856 37.6062 23.7844 38.1633C24.5271 38.5346 25.2698 38.7203 26.0125 38.7203C27.4979 38.7203 28.9833 37.7919 29.9116 36.4922C30.4686 35.3782 30.6543 34.2641 30.283 33.1501C29.9116 32.036 29.1689 31.1077 28.2406 30.5506C27.6835 30.1793 26.7552 29.9936 26.0125 29.9936Z" fill="#2EB67D"/>
</g>
</g>
</g>
<g id="Group 1171275509">
<rect id="Rectangle 34624905" x="39.9973" y="44.2544" width="22.7171" height="22.7171" rx="2.4" fill="#2EB67D" stroke="#0B2D1F" stroke-width="2.05714"/>
<text id="1" fill="#0B2D1F" xml:space="preserve" style="white-space: pre" font-family="Poppins" font-size="10" font-weight="bold" letter-spacing="0em"><tspan x="43" y="55.0431">1</tspan></text>
<text id="2" fill="#0B2D1F" xml:space="preserve" style="white-space: pre" font-family="Poppins" font-size="10" font-weight="bold" letter-spacing="0em"><tspan x="48" y="59.0431">2</tspan></text>
<text id="3" fill="#0B2D1F" xml:space="preserve" style="white-space: pre" font-family="Poppins" font-size="10" font-weight="bold" letter-spacing="0em"><tspan x="55" y="64.0431">3</tspan></text>
</g>
</g>
</g>
</svg>
