<svg width="72" height="72" viewBox="0 0 72 72" fill="none" xmlns="http://www.w3.org/2000/svg">
<g id="leave-type">
<g id="Group">
<g id="Vector 831">
<path d="M5.42188 53.7776V6.84424L27.4663 18.222V64.4442L23.9108 67.2887L5.42188 53.7776Z" fill="#36C5F0"/>
<path d="M35.9997 38.8442V32.4442L50.2219 31.022V24.622C55.1997 27.9405 65.2974 34.7198 65.8663 35.2887C66.4352 35.8576 56.1478 43.1109 50.933 46.6665V39.5553L35.9997 38.8442Z" fill="#36C5F0"/>
</g>
<path id="Vector" d="M8.79317 4.06707C6.91713 4.46729 5.69145 5.28024 4.79095 6.73104C3.99051 8.03176 4.05305 6.18074 4.00302 30.6943C3.99051 45.7276 4.01553 53.1567 4.10307 53.5819C4.27817 54.4199 4.76594 55.458 5.31625 56.1208C5.89156 56.8212 21.7253 67.4021 22.6758 67.7147C24.6519 68.3776 26.8657 67.8648 28.354 66.389C29.6172 65.1133 29.9924 64.0627 29.9924 61.7489V60.1481H34.4699C39.335 60.1355 40.3106 60.073 41.4112 59.6478C42.837 59.11 44.1002 57.7592 44.613 56.2334C44.8631 55.4955 44.8756 55.2203 44.8756 48.4291V41.3877H46.7516H48.6277V44.1642C48.6277 45.8026 48.6902 47.1534 48.7653 47.441C49.0279 48.4041 50.0159 48.9544 51.004 48.6792C51.3667 48.5792 57.7202 43.9766 66.0373 37.7857C67.4756 36.7101 67.8133 35.9722 67.313 34.9716C67.0504 34.4589 67.5631 34.8591 58.8208 28.4055C53.8681 24.7535 51.1791 22.8525 50.9164 22.8024C49.9284 22.6148 49.0154 23.1651 48.7527 24.1031C48.6902 24.3533 48.6277 25.8166 48.6277 27.3424V30.1315H46.7516H44.8756L44.8506 19.1504L44.8131 8.18185L44.3628 7.24383C43.5749 5.61793 42.0741 4.42977 40.3856 4.1171C39.7353 3.99203 9.36848 3.95451 8.79317 4.06707ZM40.198 7.94421C40.4231 8.05677 40.7483 8.35694 40.8984 8.60708L41.1861 9.05733L41.2236 19.5881L41.2486 30.1065L38.1344 30.1565C34.695 30.194 34.7075 30.194 34.0696 31.057C33.8195 31.3947 33.807 31.5573 33.807 35.7596C33.807 39.9619 33.8195 40.1245 34.0696 40.4622C34.7075 41.3252 34.695 41.3252 38.1344 41.3627L41.2611 41.4002L41.2236 48.2665L41.1861 55.1203L40.7983 55.608C40.173 56.3835 40.0354 56.4085 34.7575 56.371L30.0549 56.3334L29.9924 37.1228L29.9298 17.9247L29.4546 16.9742C28.5791 15.1982 28.4165 15.0857 20.6247 11.1835L13.7959 7.75661H26.7781C38.4596 7.7441 39.8103 7.76912 40.198 7.94421ZM16.7976 13.4097C24.4268 17.2494 25.5899 17.8747 25.9276 18.2874L26.3028 18.7752L26.3404 40.2996C26.3654 52.1436 26.3404 62.1367 26.3028 62.5119C26.2278 63.0622 26.1277 63.2748 25.7525 63.6875C25.3398 64.1253 25.2022 64.2003 24.5894 64.2503L23.914 64.3004L16.0222 59.0474C9.34347 54.595 8.11779 53.732 7.9427 53.3568C7.74259 52.9566 7.73008 51.2181 7.73008 31.0445C7.73008 19.0128 7.7676 9.11986 7.81763 9.08234C7.85515 9.03231 7.93019 8.99479 7.96771 8.99479C8.00523 9.0073 11.9824 10.9834 16.7976 13.4097ZM57.445 32.02C60.159 34.0211 62.3853 35.7096 62.3853 35.7596C62.3853 35.8596 52.5924 43.1387 52.4548 43.1387C52.4298 43.1387 52.3797 42.1631 52.3547 40.975C52.3172 38.9864 52.2922 38.7988 52.0421 38.4361C51.4542 37.6231 51.6043 37.6356 44.2002 37.6356H37.4965V35.7596V33.8835H44.2002C51.6043 33.8835 51.4542 33.896 52.0421 33.0831C52.2922 32.7204 52.3172 32.5328 52.3547 30.5317C52.3797 29.356 52.4173 28.3805 52.4548 28.3805C52.4798 28.3805 54.731 30.0189 57.445 32.02Z" fill="#0D313B"/>
<path id="Vector_2" d="M20.2585 30.2564C19.7207 30.3815 19.1329 30.9443 18.9703 31.5071C18.8952 31.7822 18.8577 33.4582 18.8827 36.0346C18.9202 39.9367 18.9327 40.1369 19.1829 40.462C19.6456 41.0874 20.0584 41.3125 20.7337 41.3125C21.4091 41.3125 21.8218 41.0874 22.2846 40.462C22.5347 40.1243 22.5472 39.9618 22.5472 35.7594C22.5472 31.5571 22.5347 31.3945 22.2846 31.0568C21.7593 30.3439 21.0714 30.0813 20.2585 30.2564Z" fill="#0D313B"/>
</g>
</g>
</svg>
