<svg width="72" height="72" viewBox="0 0 72 72" fill="none" xmlns="http://www.w3.org/2000/svg">
<g id="leave-structure">
<g id="Group 1171275525">
<g id="Group 1171275563">
<g id="Vector">
<mask id="path-1-outside-1_6490_47544" maskUnits="userSpaceOnUse" x="8" y="3" width="52" height="61" fill="black">
<rect fill="white" x="8" y="3" width="52" height="61"/>
<path d="M57.8715 25.84L53.217 21.1856C52.68 20.6485 51.9639 20.6485 51.4269 21.1856C50.8898 21.7226 50.8898 22.4387 51.4269 22.9757L53.9331 25.482H43.7292V5.25311C43.7292 4.89508 43.5502 4.53705 43.3711 4.35803C43.1921 4.17901 42.8341 4 42.4761 4C41.76 4 10.9692 4 10.0741 4C9.53705 4.17902 9 4.53705 9 5.25311V48.038C9 48.5751 9.35803 48.9331 9.71606 49.1121L33.7043 62.5383C34.0623 62.7174 34.5993 62.7174 34.9574 62.5383C35.3154 62.3593 35.4944 62.0013 35.4944 61.4642V49.2911H42.6551C43.0131 49.2911 43.3711 49.1121 43.5502 48.9331C43.7292 48.7541 43.9082 48.396 43.9082 48.038V27.9882H54.1121L51.6059 30.4944C51.0688 31.0315 51.0688 31.7475 51.6059 32.2846C52.1429 32.8216 52.859 32.8216 53.396 32.2846L58.0505 27.6302C58.2295 27.0931 58.2295 26.198 57.8715 25.84ZM28.1547 34.2538C27.6177 35.1488 26.3646 35.5069 25.4695 34.9698C24.5744 34.4328 24.2164 33.1797 24.7534 32.2846C25.2905 31.3895 26.5436 31.0315 27.4387 31.5685C28.3338 32.2846 28.6918 33.3587 28.1547 34.2538ZM41.402 46.7849H35.8525V18.6793C35.8525 18.1423 35.6734 17.7843 35.1364 17.6052L15.2656 6.50623H41.402V46.7849Z"/>
</mask>
<path d="M57.8715 25.84L53.217 21.1856C52.68 20.6485 51.9639 20.6485 51.4269 21.1856C50.8898 21.7226 50.8898 22.4387 51.4269 22.9757L53.9331 25.482H43.7292V5.25311C43.7292 4.89508 43.5502 4.53705 43.3711 4.35803C43.1921 4.17901 42.8341 4 42.4761 4C41.76 4 10.9692 4 10.0741 4C9.53705 4.17902 9 4.53705 9 5.25311V48.038C9 48.5751 9.35803 48.9331 9.71606 49.1121L33.7043 62.5383C34.0623 62.7174 34.5993 62.7174 34.9574 62.5383C35.3154 62.3593 35.4944 62.0013 35.4944 61.4642V49.2911H42.6551C43.0131 49.2911 43.3711 49.1121 43.5502 48.9331C43.7292 48.7541 43.9082 48.396 43.9082 48.038V27.9882H54.1121L51.6059 30.4944C51.0688 31.0315 51.0688 31.7475 51.6059 32.2846C52.1429 32.8216 52.859 32.8216 53.396 32.2846L58.0505 27.6302C58.2295 27.0931 58.2295 26.198 57.8715 25.84ZM28.1547 34.2538C27.6177 35.1488 26.3646 35.5069 25.4695 34.9698C24.5744 34.4328 24.2164 33.1797 24.7534 32.2846C25.2905 31.3895 26.5436 31.0315 27.4387 31.5685C28.3338 32.2846 28.6918 33.3587 28.1547 34.2538ZM41.402 46.7849H35.8525V18.6793C35.8525 18.1423 35.6734 17.7843 35.1364 17.6052L15.2656 6.50623H41.402V46.7849Z" fill="#0D313B"/>
<path d="M57.8715 25.84L53.217 21.1856C52.68 20.6485 51.9639 20.6485 51.4269 21.1856C50.8898 21.7226 50.8898 22.4387 51.4269 22.9757L53.9331 25.482H43.7292V5.25311C43.7292 4.89508 43.5502 4.53705 43.3711 4.35803C43.1921 4.17901 42.8341 4 42.4761 4C41.76 4 10.9692 4 10.0741 4C9.53705 4.17902 9 4.53705 9 5.25311V48.038C9 48.5751 9.35803 48.9331 9.71606 49.1121L33.7043 62.5383C34.0623 62.7174 34.5993 62.7174 34.9574 62.5383C35.3154 62.3593 35.4944 62.0013 35.4944 61.4642V49.2911H42.6551C43.0131 49.2911 43.3711 49.1121 43.5502 48.9331C43.7292 48.7541 43.9082 48.396 43.9082 48.038V27.9882H54.1121L51.6059 30.4944C51.0688 31.0315 51.0688 31.7475 51.6059 32.2846C52.1429 32.8216 52.859 32.8216 53.396 32.2846L58.0505 27.6302C58.2295 27.0931 58.2295 26.198 57.8715 25.84ZM28.1547 34.2538C27.6177 35.1488 26.3646 35.5069 25.4695 34.9698C24.5744 34.4328 24.2164 33.1797 24.7534 32.2846C25.2905 31.3895 26.5436 31.0315 27.4387 31.5685C28.3338 32.2846 28.6918 33.3587 28.1547 34.2538ZM41.402 46.7849H35.8525V18.6793C35.8525 18.1423 35.6734 17.7843 35.1364 17.6052L15.2656 6.50623H41.402V46.7849Z" stroke="#0D313B" stroke-width="1.84583" mask="url(#path-1-outside-1_6490_47544)"/>
</g>
<path id="Vector_2" d="M11.5078 47.5005V7.40088L33.5268 19.216V59.4946L11.5078 47.5005ZM26.3662 29.0619C24.934 29.0619 23.5019 29.9569 22.6068 31.2101C22.0698 32.2841 21.8908 33.3582 22.2488 34.4323C22.6068 35.5064 23.3229 36.4015 24.218 36.9386C24.934 37.2966 25.6501 37.4756 26.3662 37.4756C27.7983 37.4756 29.2304 36.5805 30.1255 35.3274C30.6626 34.2533 30.8416 33.1792 30.4835 32.1051C30.1255 31.031 29.4094 30.136 28.5144 29.5989C27.9773 29.2409 27.0822 29.0619 26.3662 29.0619Z" fill="#2894B4"/>
</g>
<g id="Group 1171275509">
<rect id="Rectangle 34624905" x="37.0833" y="41.1013" width="25.8701" height="25.8701" rx="2.4" fill="#36C5F0" stroke="#0D313B" stroke-width="2.05714"/>
</g>
<g id="Group">
<g id="Vector_3">
<mask id="path-4-outside-2_6490_47544" maskUnits="userSpaceOnUse" x="39.5625" y="45.2773" width="21" height="16" fill="black">
<rect fill="white" x="39.5625" y="45.2773" width="21" height="16"/>
<path d="M48.067 45.7324C47.8088 45.7961 47.6665 45.9121 47.5393 46.1479C47.4719 46.2714 47.4681 46.3987 47.4681 48.3974V50.5159L47.5804 50.6955C47.659 50.8265 47.7489 50.9051 47.8799 50.9725C48.0595 51.0661 48.0895 51.0698 48.9167 51.081L49.77 51.096V51.8409V52.5857H46.48C44.2343 52.5857 43.1563 52.5969 43.0777 52.6269C42.8532 52.7055 42.8457 52.7391 42.8457 53.8732V54.8988L41.996 54.9138C41.0678 54.9287 40.978 54.9475 40.7721 55.1533C40.5588 55.3667 40.5625 55.3217 40.5625 57.6124V59.7234L40.6486 59.8881C40.7085 59.9966 40.7983 60.0902 40.9181 60.1651L41.0977 60.2773H43.2162H45.3347L45.4919 60.195C45.679 60.0939 45.8175 59.9218 45.8737 59.7159C45.9261 59.5175 45.9298 55.6923 45.8774 55.5014C45.8175 55.2918 45.6865 55.1234 45.5031 55.0186C45.3384 54.9287 45.3085 54.925 44.4851 54.9138L43.6317 54.8988V54.1352V53.3717H46.7009H49.77V54.1352V54.8988L48.9167 54.9138C48.0895 54.925 48.0595 54.9287 47.8799 55.0223C47.7489 55.0897 47.659 55.1683 47.5804 55.2993L47.4681 55.4789V57.5974C47.4681 59.6935 47.4681 59.7159 47.5468 59.8656C47.6403 60.0378 47.7152 60.1089 47.8986 60.2062C48.0221 60.2736 48.1494 60.2773 50.1443 60.2773C52.1393 60.2773 52.2665 60.2736 52.3901 60.2062C52.5735 60.1089 52.6483 60.0378 52.7419 59.8656C52.8205 59.7159 52.8205 59.6935 52.8205 57.5974V55.4789L52.7082 55.2993C52.6296 55.1683 52.5398 55.0897 52.4088 55.0223C52.2291 54.9287 52.1992 54.925 51.372 54.9138L50.5186 54.8988V54.1352V53.3717H53.5878H56.657V54.1352V54.8988L55.8073 54.9138C54.9801 54.925 54.9502 54.9287 54.7855 55.0186C54.6021 55.1234 54.4711 55.2918 54.4112 55.5014C54.3588 55.6923 54.3626 59.5175 54.415 59.7159C54.4711 59.9218 54.6096 60.0939 54.7967 60.195L54.9539 60.2773H57.0724H59.1909L59.3706 60.1651C59.4903 60.0902 59.5802 59.9966 59.6401 59.8881L59.7261 59.7234V57.6124C59.7261 55.741 59.7187 55.4864 59.6663 55.3816C59.5802 55.2095 59.4679 55.0972 59.2957 55.0073C59.1572 54.9325 59.0749 54.925 58.2964 54.9138L57.443 54.8988V53.8732C57.443 52.7391 57.4355 52.7055 57.2109 52.6269C57.1323 52.5969 56.0544 52.5857 53.8086 52.5857H50.5186V51.8221V51.0586L51.372 51.0436C52.1992 51.0324 52.2291 51.0286 52.4088 50.9351C52.5398 50.8677 52.6296 50.7891 52.7082 50.6581L52.8205 50.4784V48.3787C52.8205 46.3987 52.8167 46.2714 52.7494 46.1479C52.6521 45.9645 52.5809 45.8896 52.4088 45.7961C52.2628 45.7175 52.2254 45.7175 50.2192 45.71C49.0963 45.7062 48.1306 45.7175 48.067 45.7324ZM52.0532 48.3974V50.31L51.3533 50.2876C50.964 50.2763 50.1069 50.2539 49.4444 50.2426L48.2354 50.2202V48.3525V46.4848H50.1443H52.0532V48.3974ZM44.238 55.7297H45.1288V57.6199V59.51H43.22H41.3111V57.5937V55.6811L42.3292 55.7035C42.8868 55.7185 43.7477 55.7297 44.238 55.7297ZM51.1624 55.7297H52.0532V57.6199V59.51H50.1443H48.2354V57.5937V55.6811L49.2535 55.7035C49.8112 55.7185 50.6721 55.7297 51.1624 55.7297ZM58.9776 57.5637V59.4352H58.4461C58.1504 59.4352 57.2933 59.4464 56.5372 59.4614L55.1598 59.4838V57.5899V55.6923H57.0687H58.9776V57.5637Z"/>
</mask>
<path d="M48.067 45.7324C47.8088 45.7961 47.6665 45.9121 47.5393 46.1479C47.4719 46.2714 47.4681 46.3987 47.4681 48.3974V50.5159L47.5804 50.6955C47.659 50.8265 47.7489 50.9051 47.8799 50.9725C48.0595 51.0661 48.0895 51.0698 48.9167 51.081L49.77 51.096V51.8409V52.5857H46.48C44.2343 52.5857 43.1563 52.5969 43.0777 52.6269C42.8532 52.7055 42.8457 52.7391 42.8457 53.8732V54.8988L41.996 54.9138C41.0678 54.9287 40.978 54.9475 40.7721 55.1533C40.5588 55.3667 40.5625 55.3217 40.5625 57.6124V59.7234L40.6486 59.8881C40.7085 59.9966 40.7983 60.0902 40.9181 60.1651L41.0977 60.2773H43.2162H45.3347L45.4919 60.195C45.679 60.0939 45.8175 59.9218 45.8737 59.7159C45.9261 59.5175 45.9298 55.6923 45.8774 55.5014C45.8175 55.2918 45.6865 55.1234 45.5031 55.0186C45.3384 54.9287 45.3085 54.925 44.4851 54.9138L43.6317 54.8988V54.1352V53.3717H46.7009H49.77V54.1352V54.8988L48.9167 54.9138C48.0895 54.925 48.0595 54.9287 47.8799 55.0223C47.7489 55.0897 47.659 55.1683 47.5804 55.2993L47.4681 55.4789V57.5974C47.4681 59.6935 47.4681 59.7159 47.5468 59.8656C47.6403 60.0378 47.7152 60.1089 47.8986 60.2062C48.0221 60.2736 48.1494 60.2773 50.1443 60.2773C52.1393 60.2773 52.2665 60.2736 52.3901 60.2062C52.5735 60.1089 52.6483 60.0378 52.7419 59.8656C52.8205 59.7159 52.8205 59.6935 52.8205 57.5974V55.4789L52.7082 55.2993C52.6296 55.1683 52.5398 55.0897 52.4088 55.0223C52.2291 54.9287 52.1992 54.925 51.372 54.9138L50.5186 54.8988V54.1352V53.3717H53.5878H56.657V54.1352V54.8988L55.8073 54.9138C54.9801 54.925 54.9502 54.9287 54.7855 55.0186C54.6021 55.1234 54.4711 55.2918 54.4112 55.5014C54.3588 55.6923 54.3626 59.5175 54.415 59.7159C54.4711 59.9218 54.6096 60.0939 54.7967 60.195L54.9539 60.2773H57.0724H59.1909L59.3706 60.1651C59.4903 60.0902 59.5802 59.9966 59.6401 59.8881L59.7261 59.7234V57.6124C59.7261 55.741 59.7187 55.4864 59.6663 55.3816C59.5802 55.2095 59.4679 55.0972 59.2957 55.0073C59.1572 54.9325 59.0749 54.925 58.2964 54.9138L57.443 54.8988V53.8732C57.443 52.7391 57.4355 52.7055 57.2109 52.6269C57.1323 52.5969 56.0544 52.5857 53.8086 52.5857H50.5186V51.8221V51.0586L51.372 51.0436C52.1992 51.0324 52.2291 51.0286 52.4088 50.9351C52.5398 50.8677 52.6296 50.7891 52.7082 50.6581L52.8205 50.4784V48.3787C52.8205 46.3987 52.8167 46.2714 52.7494 46.1479C52.6521 45.9645 52.5809 45.8896 52.4088 45.7961C52.2628 45.7175 52.2254 45.7175 50.2192 45.71C49.0963 45.7062 48.1306 45.7175 48.067 45.7324ZM52.0532 48.3974V50.31L51.3533 50.2876C50.964 50.2763 50.1069 50.2539 49.4444 50.2426L48.2354 50.2202V48.3525V46.4848H50.1443H52.0532V48.3974ZM44.238 55.7297H45.1288V57.6199V59.51H43.22H41.3111V57.5937V55.6811L42.3292 55.7035C42.8868 55.7185 43.7477 55.7297 44.238 55.7297ZM51.1624 55.7297H52.0532V57.6199V59.51H50.1443H48.2354V57.5937V55.6811L49.2535 55.7035C49.8112 55.7185 50.6721 55.7297 51.1624 55.7297ZM58.9776 57.5637V59.4352H58.4461C58.1504 59.4352 57.2933 59.4464 56.5372 59.4614L55.1598 59.4838V57.5899V55.6923H57.0687H58.9776V57.5637Z" fill="#0D313B"/>
<path d="M48.067 45.7324C47.8088 45.7961 47.6665 45.9121 47.5393 46.1479C47.4719 46.2714 47.4681 46.3987 47.4681 48.3974V50.5159L47.5804 50.6955C47.659 50.8265 47.7489 50.9051 47.8799 50.9725C48.0595 51.0661 48.0895 51.0698 48.9167 51.081L49.77 51.096V51.8409V52.5857H46.48C44.2343 52.5857 43.1563 52.5969 43.0777 52.6269C42.8532 52.7055 42.8457 52.7391 42.8457 53.8732V54.8988L41.996 54.9138C41.0678 54.9287 40.978 54.9475 40.7721 55.1533C40.5588 55.3667 40.5625 55.3217 40.5625 57.6124V59.7234L40.6486 59.8881C40.7085 59.9966 40.7983 60.0902 40.9181 60.1651L41.0977 60.2773H43.2162H45.3347L45.4919 60.195C45.679 60.0939 45.8175 59.9218 45.8737 59.7159C45.9261 59.5175 45.9298 55.6923 45.8774 55.5014C45.8175 55.2918 45.6865 55.1234 45.5031 55.0186C45.3384 54.9287 45.3085 54.925 44.4851 54.9138L43.6317 54.8988V54.1352V53.3717H46.7009H49.77V54.1352V54.8988L48.9167 54.9138C48.0895 54.925 48.0595 54.9287 47.8799 55.0223C47.7489 55.0897 47.659 55.1683 47.5804 55.2993L47.4681 55.4789V57.5974C47.4681 59.6935 47.4681 59.7159 47.5468 59.8656C47.6403 60.0378 47.7152 60.1089 47.8986 60.2062C48.0221 60.2736 48.1494 60.2773 50.1443 60.2773C52.1393 60.2773 52.2665 60.2736 52.3901 60.2062C52.5735 60.1089 52.6483 60.0378 52.7419 59.8656C52.8205 59.7159 52.8205 59.6935 52.8205 57.5974V55.4789L52.7082 55.2993C52.6296 55.1683 52.5398 55.0897 52.4088 55.0223C52.2291 54.9287 52.1992 54.925 51.372 54.9138L50.5186 54.8988V54.1352V53.3717H53.5878H56.657V54.1352V54.8988L55.8073 54.9138C54.9801 54.925 54.9502 54.9287 54.7855 55.0186C54.6021 55.1234 54.4711 55.2918 54.4112 55.5014C54.3588 55.6923 54.3626 59.5175 54.415 59.7159C54.4711 59.9218 54.6096 60.0939 54.7967 60.195L54.9539 60.2773H57.0724H59.1909L59.3706 60.1651C59.4903 60.0902 59.5802 59.9966 59.6401 59.8881L59.7261 59.7234V57.6124C59.7261 55.741 59.7187 55.4864 59.6663 55.3816C59.5802 55.2095 59.4679 55.0972 59.2957 55.0073C59.1572 54.9325 59.0749 54.925 58.2964 54.9138L57.443 54.8988V53.8732C57.443 52.7391 57.4355 52.7055 57.2109 52.6269C57.1323 52.5969 56.0544 52.5857 53.8086 52.5857H50.5186V51.8221V51.0586L51.372 51.0436C52.1992 51.0324 52.2291 51.0286 52.4088 50.9351C52.5398 50.8677 52.6296 50.7891 52.7082 50.6581L52.8205 50.4784V48.3787C52.8205 46.3987 52.8167 46.2714 52.7494 46.1479C52.6521 45.9645 52.5809 45.8896 52.4088 45.7961C52.2628 45.7175 52.2254 45.7175 50.2192 45.71C49.0963 45.7062 48.1306 45.7175 48.067 45.7324ZM52.0532 48.3974V50.31L51.3533 50.2876C50.964 50.2763 50.1069 50.2539 49.4444 50.2426L48.2354 50.2202V48.3525V46.4848H50.1443H52.0532V48.3974ZM44.238 55.7297H45.1288V57.6199V59.51H43.22H41.3111V57.5937V55.6811L42.3292 55.7035C42.8868 55.7185 43.7477 55.7297 44.238 55.7297ZM51.1624 55.7297H52.0532V57.6199V59.51H50.1443H48.2354V57.5937V55.6811L49.2535 55.7035C49.8112 55.7185 50.6721 55.7297 51.1624 55.7297ZM58.9776 57.5637V59.4352H58.4461C58.1504 59.4352 57.2933 59.4464 56.5372 59.4614L55.1598 59.4838V57.5899V55.6923H57.0687H58.9776V57.5637Z" stroke="#0D313B" stroke-width="0.6" mask="url(#path-4-outside-2_6490_47544)"/>
</g>
</g>
</g>
</g>
</svg>
