<svg width="72" height="72" viewBox="0 0 72 72" fill="none" xmlns="http://www.w3.org/2000/svg">
<g id="leaves">
<g id="Group">
<path id="Vector 59" d="M11.9609 11.2556H18.557V14.5536H45.6009V11.2556H50.8777L52.1969 59.4069H11.9609V11.2556Z" fill="#2EB67D" stroke="#2EB67D" stroke-width="0.944262"/>
<path id="Vector" d="M25.519 4.07061C23.7219 4.37207 21.8436 5.27642 20.603 6.43586L19.7451 7.23587H16.2668C12.4754 7.23587 11.9537 7.29384 10.8638 7.83877C9.55364 8.49965 8.45218 9.92575 8.13913 11.3866C7.95362 12.2562 7.95362 58.3321 8.13913 59.2016C8.32464 60.0596 8.85798 61.0799 9.47248 61.7292C10.0754 62.3669 11.2696 63.0394 12.1624 63.2249C13.0319 63.4104 50.0642 63.4104 50.9338 63.2249C52.9048 62.8075 54.5396 61.1611 54.957 59.2016C55.1425 58.3205 55.1425 12.2562 54.957 11.3866C54.5396 9.4272 52.8816 7.76921 50.9338 7.3634C50.5628 7.28225 48.9396 7.23587 46.8294 7.23587H43.3395L42.5627 6.49383C41.6815 5.67063 40.8004 5.10251 39.6177 4.63874C38.0989 4.02424 37.5887 3.98946 31.4553 4.00105C28.348 4.01264 25.6814 4.04743 25.519 4.07061ZM37.5655 7.64167C37.9713 7.74602 38.6322 7.9895 39.0148 8.1866C40.1743 8.8011 41.4728 10.2736 41.8091 11.375L41.8786 11.6417H31.5481H21.2175L21.2871 11.375C21.4842 10.7605 22.0291 9.91416 22.69 9.24168C23.4552 8.46487 24.661 7.7808 25.6466 7.59529C25.9248 7.53732 28.5567 7.49094 31.4901 7.47935C35.8728 7.46775 36.951 7.50254 37.5655 7.64167ZM17.6697 11.491C17.5769 11.9316 17.5189 12.6968 17.5421 13.2301C17.5769 14.2504 17.7624 14.5867 18.4697 14.9577C18.9335 15.2012 44.1627 15.2012 44.6265 14.9577C45.3337 14.5867 45.5192 14.2504 45.554 13.2301C45.5772 12.6968 45.5192 11.9316 45.4265 11.491L45.2642 10.7142H47.7106C50.5164 10.7142 50.8874 10.8069 51.3512 11.6301L51.6063 12.0823V35.2941V58.506L51.3628 58.9466C51.2237 59.1901 50.9222 59.4915 50.6787 59.6306L50.2381 59.8741H31.5481H12.858L12.4174 59.6306C12.174 59.4915 11.8725 59.1901 11.7334 58.9466L11.4899 58.506V35.2941V12.0823L11.745 11.6301C12.2087 10.8069 12.5682 10.7142 15.3856 10.7142H17.832L17.6697 11.491Z" fill="#0B2D1F"/>
<path id="Vector_2" d="M23.5466 36.4076C23.3263 36.5003 22.5263 37.1844 21.7843 37.9264L20.4278 39.2714L19.9524 38.8424C19.6857 38.6105 19.3495 38.367 19.1872 38.309C17.7611 37.7641 16.335 39.3062 17.0074 40.6627C17.2625 41.1728 19.106 43.0279 19.6277 43.3062C20.1727 43.5845 20.6596 43.5845 21.2046 43.3062C21.4365 43.1787 22.5495 42.1584 23.6742 41.0105C25.309 39.3641 25.7496 38.854 25.8539 38.483C26.0974 37.6018 25.5524 36.5699 24.7293 36.338C24.1727 36.1873 24.0336 36.1989 23.5466 36.4076Z" fill="#0B2D1F"/>
<path id="Vector_3" d="M29.4475 38.4594C28.3924 39.1666 28.4156 40.558 29.5055 41.3696C29.8186 41.613 29.9345 41.613 37.4012 41.613C44.868 41.613 44.9839 41.613 45.297 41.3696C46.3868 40.558 46.41 39.1666 45.355 38.4594L44.9607 38.1927H37.4012H29.8417L29.4475 38.4594Z" fill="#0B2D1F"/>
<path id="Vector_4" d="M23.5466 24.578C23.3263 24.6707 22.5263 25.3548 21.7843 26.0968L20.4278 27.4418L19.9524 27.0128C19.6857 26.7809 19.3495 26.5374 19.1872 26.4794C17.7611 25.9345 16.335 27.4766 17.0074 28.8331C17.2625 29.3432 19.106 31.1983 19.6277 31.4766C20.1727 31.7549 20.6596 31.7549 21.2046 31.4766C21.4365 31.3491 22.5495 30.3288 23.6742 29.1809C25.309 27.5345 25.7496 27.0244 25.8539 26.6534C26.0974 25.7722 25.5524 24.7403 24.7293 24.5084C24.1727 24.3577 24.0336 24.3693 23.5466 24.578Z" fill="#0B2D1F"/>
<path id="Vector_5" d="M29.4475 26.6298C28.3924 27.337 28.4156 28.7284 29.5055 29.54C29.8186 29.7834 29.9345 29.7834 37.4012 29.7834C44.868 29.7834 44.9839 29.7834 45.297 29.54C46.3868 28.7284 46.41 27.337 45.355 26.6298L44.9607 26.3631H37.4012H29.8417L29.4475 26.6298Z" fill="#0B2D1F"/>
<path id="Vector_6" d="M24.0691 48.1064C24.0112 48.1296 23.8025 48.176 23.6169 48.2224C23.3967 48.2688 22.7706 48.7905 21.8546 49.6949L20.4285 51.0978L19.9995 50.7152C19.5242 50.2978 18.9328 50.0195 18.5386 50.0195C18.0517 50.0195 17.3444 50.4601 17.0777 50.9355C16.5328 51.9094 16.7647 52.4775 18.3647 54.0543C19.6401 55.3065 19.9531 55.4688 20.8575 55.2949C21.2169 55.2254 21.6227 54.8775 23.4083 53.1152C24.5793 51.9558 25.6228 50.8427 25.7155 50.6572C26.1213 49.892 25.8315 48.7905 25.1126 48.3847C24.7416 48.176 24.2546 48.0485 24.0691 48.1064Z" fill="#0B2D1F"/>
<path id="Vector_7" d="M29.6269 50.1812C29.0588 50.4363 28.7109 51.016 28.7109 51.7232C28.7109 52.3725 28.9196 52.7667 29.5109 53.1957C29.824 53.4392 29.9399 53.4392 37.4067 53.4392C44.8734 53.4392 44.9894 53.4392 45.3024 53.1957C45.8937 52.7667 46.1024 52.3725 46.1024 51.7232C46.1024 51.0044 45.7546 50.4247 45.1633 50.1812C44.6068 49.9493 30.1602 49.9493 29.6269 50.1812Z" fill="#0B2D1F"/>
<g id="Group 1171275273">
<circle id="Ellipse 2648" cx="52.5277" cy="55.9437" r="10.5511" fill="#2EB67D"/>
<g id="Group_2">
<path id="Vector_8" d="M51.2503 43.9186C48.9282 44.2011 46.791 45.0745 45.0135 46.477C44.546 46.8417 43.4363 47.9514 43.0716 48.4189C41.7975 50.0372 40.9087 52.0664 40.5902 54.0957C40.472 54.8406 40.4309 56.3407 40.508 57.0959C40.7443 59.3923 41.5663 61.4678 42.9945 63.3635C43.3952 63.8927 44.5819 65.0794 45.1111 65.4801C46.8167 66.7645 48.661 67.5608 50.7108 67.8844C51.5123 68.0129 53.0381 68.0386 53.8806 67.9409C56.1513 67.6789 58.0573 66.9032 59.9581 65.475C60.4873 65.0846 61.674 63.8927 62.0747 63.3635C63.3693 61.6425 64.1656 59.7982 64.4893 57.7278C64.6177 56.911 64.6177 54.9691 64.4893 54.1522C64.1656 52.0819 63.3693 50.2375 62.0747 48.5165C61.674 47.9874 60.4873 46.8006 59.9581 46.3999C58.2422 45.1053 56.4031 44.3141 54.3584 43.9905C53.7522 43.8929 51.8257 43.8518 51.2503 43.9186ZM53.9217 46.2098C57.7388 46.7647 60.9085 49.5132 61.9617 53.171C62.2751 54.2498 62.3213 54.6043 62.3213 55.94C62.3213 57.2757 62.2751 57.6302 61.9617 58.7091C61.6483 59.7982 61.0883 60.913 60.3691 61.8737C59.9735 62.4029 58.9974 63.379 58.4683 63.7745C56.0332 65.5983 52.9713 66.2045 50.043 65.4493C46.2465 64.4629 43.3695 61.2367 42.7993 57.322C42.6965 56.6079 42.6965 55.267 42.7993 54.5581C43.5853 49.1741 48.5737 45.4341 53.9217 46.2098Z" fill="#0B2D1F"/>
</g>
<g id="Group_3">
<g id="Vector_9">
<mask id="path-11-outside-1_6490_47306" maskUnits="userSpaceOnUse" x="46.8906" y="48.4509" width="14" height="16" fill="black">
<rect fill="white" x="46.8906" y="48.4509" width="14" height="16"/>
<path d="M59.8763 54.8072L58.7348 53.6657C58.6031 53.534 58.4275 53.534 58.2958 53.6657C58.1641 53.7974 58.1641 53.973 58.2958 54.1047L58.9104 54.7194H56.4079V49.7583C56.4079 49.6704 56.364 49.5826 56.3201 49.5387C56.2762 49.4948 56.1884 49.4509 56.1006 49.4509C55.925 49.4509 48.3736 49.4509 48.154 49.4509C48.0223 49.4948 47.8906 49.5826 47.8906 49.7583V60.2512C47.8906 60.3829 47.9784 60.4707 48.0662 60.5146L53.9493 63.8074C54.0371 63.8513 54.1688 63.8513 54.2567 63.8074C54.3445 63.7635 54.3884 63.6757 54.3884 63.544V60.5585H56.1445C56.2323 60.5585 56.3201 60.5146 56.364 60.4707C56.4079 60.4268 56.4518 60.339 56.4518 60.2512V55.334H58.9543L58.3397 55.9487C58.208 56.0804 58.208 56.256 58.3397 56.3877C58.4714 56.5194 58.647 56.5194 58.7787 56.3877L59.9202 55.2462C59.9641 55.1145 59.9641 54.895 59.8763 54.8072ZM52.5883 56.8706C52.4566 57.0902 52.1493 57.178 51.9298 57.0463C51.7102 56.9145 51.6224 56.6072 51.7541 56.3877C51.8859 56.1682 52.1932 56.0804 52.4127 56.2121C52.6322 56.3877 52.72 56.6511 52.5883 56.8706ZM55.8372 59.9439H54.4762V53.051C54.4762 52.9193 54.4323 52.8315 54.3006 52.7876L49.4273 50.0656H55.8372V59.9439Z"/>
</mask>
<path d="M59.8763 54.8072L58.7348 53.6657C58.6031 53.534 58.4275 53.534 58.2958 53.6657C58.1641 53.7974 58.1641 53.973 58.2958 54.1047L58.9104 54.7194H56.4079V49.7583C56.4079 49.6704 56.364 49.5826 56.3201 49.5387C56.2762 49.4948 56.1884 49.4509 56.1006 49.4509C55.925 49.4509 48.3736 49.4509 48.154 49.4509C48.0223 49.4948 47.8906 49.5826 47.8906 49.7583V60.2512C47.8906 60.3829 47.9784 60.4707 48.0662 60.5146L53.9493 63.8074C54.0371 63.8513 54.1688 63.8513 54.2567 63.8074C54.3445 63.7635 54.3884 63.6757 54.3884 63.544V60.5585H56.1445C56.2323 60.5585 56.3201 60.5146 56.364 60.4707C56.4079 60.4268 56.4518 60.339 56.4518 60.2512V55.334H58.9543L58.3397 55.9487C58.208 56.0804 58.208 56.256 58.3397 56.3877C58.4714 56.5194 58.647 56.5194 58.7787 56.3877L59.9202 55.2462C59.9641 55.1145 59.9641 54.895 59.8763 54.8072ZM52.5883 56.8706C52.4566 57.0902 52.1493 57.178 51.9298 57.0463C51.7102 56.9145 51.6224 56.6072 51.7541 56.3877C51.8859 56.1682 52.1932 56.0804 52.4127 56.2121C52.6322 56.3877 52.72 56.6511 52.5883 56.8706ZM55.8372 59.9439H54.4762V53.051C54.4762 52.9193 54.4323 52.8315 54.3006 52.7876L49.4273 50.0656H55.8372V59.9439Z" fill="#0B2D1F"/>
<path d="M59.8763 54.8072L58.7348 53.6657C58.6031 53.534 58.4275 53.534 58.2958 53.6657C58.1641 53.7974 58.1641 53.973 58.2958 54.1047L58.9104 54.7194H56.4079V49.7583C56.4079 49.6704 56.364 49.5826 56.3201 49.5387C56.2762 49.4948 56.1884 49.4509 56.1006 49.4509C55.925 49.4509 48.3736 49.4509 48.154 49.4509C48.0223 49.4948 47.8906 49.5826 47.8906 49.7583V60.2512C47.8906 60.3829 47.9784 60.4707 48.0662 60.5146L53.9493 63.8074C54.0371 63.8513 54.1688 63.8513 54.2567 63.8074C54.3445 63.7635 54.3884 63.6757 54.3884 63.544V60.5585H56.1445C56.2323 60.5585 56.3201 60.5146 56.364 60.4707C56.4079 60.4268 56.4518 60.339 56.4518 60.2512V55.334H58.9543L58.3397 55.9487C58.208 56.0804 58.208 56.256 58.3397 56.3877C58.4714 56.5194 58.647 56.5194 58.7787 56.3877L59.9202 55.2462C59.9641 55.1145 59.9641 54.895 59.8763 54.8072ZM52.5883 56.8706C52.4566 57.0902 52.1493 57.178 51.9298 57.0463C51.7102 56.9145 51.6224 56.6072 51.7541 56.3877C51.8859 56.1682 52.1932 56.0804 52.4127 56.2121C52.6322 56.3877 52.72 56.6511 52.5883 56.8706ZM55.8372 59.9439H54.4762V53.051C54.4762 52.9193 54.4323 52.8315 54.3006 52.7876L49.4273 50.0656H55.8372V59.9439Z" stroke="#0B2D1F" stroke-width="0.918033" mask="url(#path-11-outside-1_6490_47306)"/>
</g>
<path id="Vector_10" d="M48.5078 60.1198V50.2854L53.908 53.183V63.0614L48.5078 60.1198ZM52.1518 55.5977C51.8006 55.5977 51.4494 55.8173 51.2298 56.1246C51.0981 56.388 51.0542 56.6514 51.142 56.9148C51.2298 57.1783 51.4055 57.3978 51.625 57.5295C51.8006 57.6173 51.9762 57.6612 52.1518 57.6612C52.503 57.6612 52.8543 57.4417 53.0738 57.1344C53.2055 56.8709 53.2494 56.6075 53.1616 56.3441C53.0738 56.0807 52.8982 55.8612 52.6787 55.7295C52.5469 55.6416 52.3274 55.5977 52.1518 55.5977Z" fill="#2EB67D"/>
</g>
</g>
</g>
</g>
</svg>
