<svg width="72" height="72" viewBox="0 0 72 72" fill="none" xmlns="http://www.w3.org/2000/svg">
<g id="leave-balance">
<g id="Group 1171275508">
<g id="Group 1171275506">
<g id="Group">
<g id="Vector">
<mask id="path-1-outside-1_6490_47353" maskUnits="userSpaceOnUse" x="8" y="2" width="53" height="63" fill="black">
<rect fill="white" x="8" y="2" width="53" height="63"/>
<path d="M59.1049 25.9443L54.4282 21.2677C53.8886 20.728 53.1691 20.728 52.6295 21.2677C52.0899 21.8073 52.0899 22.5268 52.6295 23.0664L55.1477 25.5846H44.8951V5.2591C44.8951 4.89935 44.7152 4.53961 44.5353 4.35974C44.3554 4.17987 43.9957 4 43.636 4C42.9165 4 11.9786 4 11.0792 4C10.5396 4.17987 10 4.53961 10 5.2591V48.2484C10 48.788 10.3597 49.1477 10.7195 49.3276L34.8223 62.8179C35.182 62.9978 35.7216 62.9978 36.0814 62.8179C36.4411 62.6381 36.621 62.2783 36.621 61.7387V49.5075H43.8158C44.1756 49.5075 44.5353 49.3276 44.7152 49.1477C44.8951 48.9678 45.0749 48.6081 45.0749 48.2484V28.1028H55.3276L52.8094 30.621C52.2698 31.1606 52.2698 31.8801 52.8094 32.4197C53.349 32.9593 54.0685 32.9593 54.6081 32.4197L59.2848 27.743C59.4646 27.2034 59.4646 26.304 59.1049 25.9443ZM29.2462 34.3983C28.7066 35.2976 27.4475 35.6574 26.5482 35.1178C25.6488 34.5781 25.2891 33.319 25.8287 32.4197C26.3683 31.5203 27.6274 31.1606 28.5268 31.7002C29.4261 32.4197 29.7859 33.4989 29.2462 34.3983ZM42.5567 46.9893H36.9807V18.7495C36.9807 18.2098 36.8008 17.8501 36.2612 17.6702L16.2955 6.5182H42.5567V46.9893Z"/>
</mask>
<path d="M59.1049 25.9443L54.4282 21.2677C53.8886 20.728 53.1691 20.728 52.6295 21.2677C52.0899 21.8073 52.0899 22.5268 52.6295 23.0664L55.1477 25.5846H44.8951V5.2591C44.8951 4.89935 44.7152 4.53961 44.5353 4.35974C44.3554 4.17987 43.9957 4 43.636 4C42.9165 4 11.9786 4 11.0792 4C10.5396 4.17987 10 4.53961 10 5.2591V48.2484C10 48.788 10.3597 49.1477 10.7195 49.3276L34.8223 62.8179C35.182 62.9978 35.7216 62.9978 36.0814 62.8179C36.4411 62.6381 36.621 62.2783 36.621 61.7387V49.5075H43.8158C44.1756 49.5075 44.5353 49.3276 44.7152 49.1477C44.8951 48.9678 45.0749 48.6081 45.0749 48.2484V28.1028H55.3276L52.8094 30.621C52.2698 31.1606 52.2698 31.8801 52.8094 32.4197C53.349 32.9593 54.0685 32.9593 54.6081 32.4197L59.2848 27.743C59.4646 27.2034 59.4646 26.304 59.1049 25.9443ZM29.2462 34.3983C28.7066 35.2976 27.4475 35.6574 26.5482 35.1178C25.6488 34.5781 25.2891 33.319 25.8287 32.4197C26.3683 31.5203 27.6274 31.1606 28.5268 31.7002C29.4261 32.4197 29.7859 33.4989 29.2462 34.3983ZM42.5567 46.9893H36.9807V18.7495C36.9807 18.2098 36.8008 17.8501 36.2612 17.6702L16.2955 6.5182H42.5567V46.9893Z" fill="#0B2D1F"/>
<path d="M59.1049 25.9443L54.4282 21.2677C53.8886 20.728 53.1691 20.728 52.6295 21.2677C52.0899 21.8073 52.0899 22.5268 52.6295 23.0664L55.1477 25.5846H44.8951V5.2591C44.8951 4.89935 44.7152 4.53961 44.5353 4.35974C44.3554 4.17987 43.9957 4 43.636 4C42.9165 4 11.9786 4 11.0792 4C10.5396 4.17987 10 4.53961 10 5.2591V48.2484C10 48.788 10.3597 49.1477 10.7195 49.3276L34.8223 62.8179C35.182 62.9978 35.7216 62.9978 36.0814 62.8179C36.4411 62.6381 36.621 62.2783 36.621 61.7387V49.5075H43.8158C44.1756 49.5075 44.5353 49.3276 44.7152 49.1477C44.8951 48.9678 45.0749 48.6081 45.0749 48.2484V28.1028H55.3276L52.8094 30.621C52.2698 31.1606 52.2698 31.8801 52.8094 32.4197C53.349 32.9593 54.0685 32.9593 54.6081 32.4197L59.2848 27.743C59.4646 27.2034 59.4646 26.304 59.1049 25.9443ZM29.2462 34.3983C28.7066 35.2976 27.4475 35.6574 26.5482 35.1178C25.6488 34.5781 25.2891 33.319 25.8287 32.4197C26.3683 31.5203 27.6274 31.1606 28.5268 31.7002C29.4261 32.4197 29.7859 33.4989 29.2462 34.3983ZM42.5567 46.9893H36.9807V18.7495C36.9807 18.2098 36.8008 17.8501 36.2612 17.6702L16.2955 6.5182H42.5567V46.9893Z" stroke="#0B2D1F" stroke-width="2.69391" mask="url(#path-1-outside-1_6490_47353)"/>
</g>
<path id="Vector_2" d="M12.5156 47.7082V7.41699L34.6398 19.2885V59.7596L12.5156 47.7082ZM27.4449 29.1814C26.006 29.1814 24.567 30.0808 23.6676 31.3399C23.128 32.4191 22.9482 33.4983 23.3079 34.5776C23.6677 35.6568 24.3871 36.5562 25.2865 37.0958C26.006 37.4555 26.7255 37.6354 27.4449 37.6354C28.8839 37.6354 30.3229 36.736 31.2222 35.4769C31.7619 34.3977 31.9417 33.3185 31.582 32.2392C31.2222 31.16 30.5028 30.2607 29.6034 29.721C29.0638 29.3613 28.1644 29.1814 27.4449 29.1814Z" fill="#2EB67D"/>
</g>
</g>
<g id="Group 1171275507">
<rect id="Rectangle 34624904" x="41.2969" y="41.917" width="19.8227" height="25.0392" fill="#2EB67D"/>
<path id="Vector_3" d="M44.4274 53.3936H56.9471C57.2238 53.3936 57.4891 53.2837 57.6848 53.0881C57.8804 52.8924 57.9904 52.627 57.9904 52.3503V46.0905C57.9904 45.8138 57.8804 45.5485 57.6848 45.3528C57.4891 45.1571 57.2238 45.0472 56.9471 45.0472H44.4274C44.1507 45.0472 43.8854 45.1571 43.6897 45.3528C43.4941 45.5485 43.3841 45.8138 43.3841 46.0905V52.3503C43.3841 52.627 43.4941 52.8924 43.6897 53.0881C43.8854 53.2837 44.1507 53.3936 44.4274 53.3936ZM45.4707 47.1338H55.9038V51.307H45.4707V47.1338ZM60.077 40.874H41.2975C40.7441 40.874 40.2134 41.0939 39.8221 41.4852C39.4308 41.8765 39.2109 42.4072 39.2109 42.9606V65.9132C39.2109 66.4667 39.4308 66.9974 39.8221 67.3887C40.2134 67.78 40.7441 67.9999 41.2975 67.9999H60.077C60.6304 67.9999 61.1611 67.78 61.5524 67.3887C61.9437 66.9974 62.1636 66.4667 62.1636 65.9132V42.9606C62.1636 42.4072 61.9437 41.8765 61.5524 41.4852C61.1611 41.0939 60.6304 40.874 60.077 40.874ZM60.077 65.9132H41.2975V42.9606H60.077V65.9132ZM52.2522 57.0452C52.2522 57.3547 52.1604 57.6573 51.9885 57.9146C51.8165 58.172 51.5721 58.3726 51.2861 58.491C51.0002 58.6095 50.6855 58.6405 50.3819 58.5801C50.0784 58.5197 49.7995 58.3706 49.5807 58.1518C49.3618 57.9329 49.2128 57.6541 49.1524 57.3505C49.092 57.0469 49.123 56.7323 49.2414 56.4463C49.3599 56.1604 49.5605 55.9159 49.8178 55.744C50.0752 55.572 50.3777 55.4802 50.6873 55.4802C51.1023 55.4802 51.5004 55.6451 51.7938 55.9386C52.0873 56.2321 52.2522 56.6301 52.2522 57.0452ZM52.2522 62.2617C52.2522 62.5712 52.1604 62.8738 51.9885 63.1311C51.8165 63.3885 51.5721 63.5891 51.2861 63.7075C51.0002 63.826 50.6855 63.857 50.3819 63.7966C50.0784 63.7362 49.7995 63.5871 49.5807 63.3683C49.3618 63.1494 49.2128 62.8706 49.1524 62.567C49.092 62.2634 49.123 61.9488 49.2414 61.6628C49.3599 61.3769 49.5605 61.1324 49.8178 60.9605C50.0752 60.7885 50.3777 60.6967 50.6873 60.6967C51.1023 60.6967 51.5004 60.8616 51.7938 61.1551C52.0873 61.4486 52.2522 61.8466 52.2522 62.2617ZM47.0357 57.0452C47.0357 57.3547 46.9439 57.6573 46.772 57.9146C46.6 58.172 46.3556 58.3726 46.0696 58.491C45.7837 58.6095 45.469 58.6405 45.1654 58.5801C44.8619 58.5197 44.583 58.3706 44.3642 58.1518C44.1453 57.9329 43.9962 57.6541 43.9359 57.3505C43.8755 57.0469 43.9065 56.7323 44.0249 56.4463C44.1434 56.1604 44.3439 55.9159 44.6013 55.744C44.8587 55.572 45.1612 55.4802 45.4707 55.4802C45.8858 55.4802 46.2838 55.6451 46.5773 55.9386C46.8708 56.2321 47.0357 56.6301 47.0357 57.0452ZM47.0357 62.2617C47.0357 62.5712 46.9439 62.8738 46.772 63.1311C46.6 63.3885 46.3556 63.5891 46.0696 63.7075C45.7837 63.826 45.469 63.857 45.1654 63.7966C44.8619 63.7362 44.583 63.5871 44.3642 63.3683C44.1453 63.1494 43.9962 62.8706 43.9359 62.567C43.8755 62.2634 43.9065 61.9488 44.0249 61.6628C44.1434 61.3769 44.3439 61.1324 44.6013 60.9605C44.8587 60.7885 45.1612 60.6967 45.4707 60.6967C45.8858 60.6967 46.2838 60.8616 46.5773 61.1551C46.8708 61.4486 47.0357 61.8466 47.0357 62.2617ZM57.4687 57.0452C57.4687 57.3547 57.3769 57.6573 57.205 57.9146C57.033 58.172 56.7886 58.3726 56.5026 58.491C56.2167 58.6095 55.902 58.6405 55.5984 58.5801C55.2949 58.5197 55.016 58.3706 54.7972 58.1518C54.5783 57.9329 54.4293 57.6541 54.3689 57.3505C54.3085 57.0469 54.3395 56.7323 54.4579 56.4463C54.5764 56.1604 54.777 55.9159 55.0343 55.744C55.2917 55.572 55.5942 55.4802 55.9038 55.4802C56.3188 55.4802 56.7169 55.6451 57.0103 55.9386C57.3038 56.2321 57.4687 56.6301 57.4687 57.0452ZM57.4687 62.2617C57.4687 62.5712 57.3769 62.8738 57.205 63.1311C57.033 63.3885 56.7886 63.5891 56.5026 63.7075C56.2167 63.826 55.902 63.857 55.5984 63.7966C55.2949 63.7362 55.016 63.5871 54.7972 63.3683C54.5783 63.1494 54.4293 62.8706 54.3689 62.567C54.3085 62.2634 54.3395 61.9488 54.4579 61.6628C54.5764 61.3769 54.777 61.1324 55.0343 60.9605C55.2917 60.7885 55.5942 60.6967 55.9038 60.6967C56.3188 60.6967 56.7169 60.8616 57.0103 61.1551C57.3038 61.4486 57.4687 61.8466 57.4687 62.2617Z" fill="#0B2D1F"/>
</g>
</g>
</g>
</svg>
