<svg width="72" height="72" viewBox="0 0 72 72" fill="none" xmlns="http://www.w3.org/2000/svg">
<g id="my-leave-request">
<g id="Group 1171275624">
<path id="Ellipse 2732" d="M67.8554 37.2048C67.8554 35.6954 67.5581 34.2007 66.9805 32.8062C66.4029 31.4117 65.5562 30.1446 64.4889 29.0772C63.4216 28.0099 62.1545 27.1633 60.7599 26.5856C59.3654 26.008 57.8707 25.7107 56.3613 25.7107C54.8519 25.7107 53.3572 26.008 51.9627 26.5856C50.5682 27.1633 49.3011 28.0099 48.2337 29.0772C47.1664 30.1446 46.3198 31.4117 45.7421 32.8062C45.1645 34.2007 44.8672 35.6954 44.8672 37.2048L56.3613 37.2048H67.8554Z" fill="#2EB67D"/>
<ellipse id="Ellipse 2731" cx="55.7195" cy="13.5781" rx="7.02419" ry="7.02419" fill="#2EB67D"/>
<g id="Group 1171275622">
<g id="Group 1171275554">
<g id="Group 1171275562">
<g id="Vector">
<mask id="path-3-outside-1_6498_46095" maskUnits="userSpaceOnUse" x="2" y="2" width="38" height="68" fill="black">
<rect fill="white" x="2" y="2" width="38" height="68"/>
<path d="M37.8238 27.4325V5.36689C37.8238 4.97635 37.6495 4.58581 37.4752 4.39054C37.3008 4.19527 36.9521 4 36.6034 4C35.906 4 5.91784 4 5.0461 4C4.52305 4.19527 4 4.58581 4 5.36689V52.0366C4 52.6224 4.3487 53.013 4.6974 53.2082L28.0603 67.8535C28.409 68.0488 28.932 68.0488 29.2807 67.8535C29.6294 67.6583 29.8038 67.2677 29.8038 66.6819V53.4035H36.7778C37.1264 53.4035 37.4752 53.2082 37.6495 53.013C37.8238 52.8177 37.9982 52.4272 37.9982 52.0366L37.8238 27.4325ZM22.6554 37.0008C22.1324 37.9771 20.9119 38.3677 20.0402 37.7819C19.1684 37.196 18.8197 35.8291 19.3428 34.8528C19.8658 33.8764 21.0863 33.4859 21.958 34.0717C22.8298 34.8528 23.1785 36.0244 22.6554 37.0008ZM35.5573 50.6697H30.1525V20.0122C30.1525 19.4264 29.9781 19.0359 29.4551 18.8406L10.1022 6.73379H35.5573V50.6697Z"/>
</mask>
<path d="M37.8238 27.4325V5.36689C37.8238 4.97635 37.6495 4.58581 37.4752 4.39054C37.3008 4.19527 36.9521 4 36.6034 4C35.906 4 5.91784 4 5.0461 4C4.52305 4.19527 4 4.58581 4 5.36689V52.0366C4 52.6224 4.3487 53.013 4.6974 53.2082L28.0603 67.8535C28.409 68.0488 28.932 68.0488 29.2807 67.8535C29.6294 67.6583 29.8038 67.2677 29.8038 66.6819V53.4035H36.7778C37.1264 53.4035 37.4752 53.2082 37.6495 53.013C37.8238 52.8177 37.9982 52.4272 37.9982 52.0366L37.8238 27.4325ZM22.6554 37.0008C22.1324 37.9771 20.9119 38.3677 20.0402 37.7819C19.1684 37.196 18.8197 35.8291 19.3428 34.8528C19.8658 33.8764 21.0863 33.4859 21.958 34.0717C22.8298 34.8528 23.1785 36.0244 22.6554 37.0008ZM35.5573 50.6697H30.1525V20.0122C30.1525 19.4264 29.9781 19.0359 29.4551 18.8406L10.1022 6.73379H35.5573V50.6697Z" fill="#0B2D1F"/>
<path d="M37.8238 27.4325V5.36689C37.8238 4.97635 37.6495 4.58581 37.4752 4.39054C37.3008 4.19527 36.9521 4 36.6034 4C35.906 4 5.91784 4 5.0461 4C4.52305 4.19527 4 4.58581 4 5.36689V52.0366C4 52.6224 4.3487 53.013 4.6974 53.2082L28.0603 67.8535C28.409 68.0488 28.932 68.0488 29.2807 67.8535C29.6294 67.6583 29.8038 67.2677 29.8038 66.6819V53.4035H36.7778C37.1264 53.4035 37.4752 53.2082 37.6495 53.013C37.8238 52.8177 37.9982 52.4272 37.9982 52.0366L37.8238 27.4325ZM22.6554 37.0008C22.1324 37.9771 20.9119 38.3677 20.0402 37.7819C19.1684 37.196 18.8197 35.8291 19.3428 34.8528C19.8658 33.8764 21.0863 33.4859 21.958 34.0717C22.8298 34.8528 23.1785 36.0244 22.6554 37.0008ZM35.5573 50.6697H30.1525V20.0122C30.1525 19.4264 29.9781 19.0359 29.4551 18.8406L10.1022 6.73379H35.5573V50.6697Z" stroke="#0B2D1F" stroke-width="2.01343" mask="url(#path-3-outside-1_6498_46095)"/>
</g>
<path id="Vector_2" d="M6.4375 51.4506V7.70996L27.8825 20.5978V64.5338L6.4375 51.4506ZM20.9085 31.3377C19.5137 31.3377 18.1189 32.3141 17.2472 33.681C16.7241 34.8526 16.5498 36.0242 16.8985 37.1959C17.2472 38.3675 17.9446 39.3438 18.8163 39.9296C19.5137 40.3202 20.2111 40.5155 20.9085 40.5155C22.3033 40.5155 23.6981 39.5391 24.5699 38.1722C25.0929 37.0006 25.2673 35.829 24.9186 34.6573C24.5699 33.4857 23.8725 32.5094 23.0007 31.9235C22.4777 31.533 21.6059 31.3377 20.9085 31.3377Z" fill="#2EB67D"/>
</g>
</g>
</g>
<g id="Icon">
<path d="M62.6053 13.7768C62.6053 17.6388 59.4745 20.7696 55.6125 20.7696C51.7504 20.7696 48.6196 17.6388 48.6196 13.7768C48.6196 9.91473 51.7504 6.78394 55.6125 6.78394C59.4745 6.78394 62.6053 9.91473 62.6053 13.7768Z" stroke="#0B2D1F" stroke-width="3.83138" stroke-linecap="round" stroke-linejoin="round"/>
<path d="M55.6125 26.0142C48.8539 26.0142 43.375 31.4931 43.375 38.2517H67.8499C67.8499 31.4931 62.371 26.0142 55.6125 26.0142Z" stroke="#0B2D1F" stroke-width="3.83138" stroke-linecap="round" stroke-linejoin="round"/>
</g>
<path id="Icon_2" fill-rule="evenodd" clip-rule="evenodd" d="M64.5611 56.7826C65.1222 57.3437 65.1222 58.2534 64.5611 58.8145L55.9405 67.4351C55.3794 67.9962 54.4697 67.9962 53.9086 67.4351L45.288 58.8145C44.7269 58.2534 44.7269 57.3437 45.288 56.7826C45.8491 56.2215 46.7588 56.2215 47.3199 56.7826L53.4878 62.9505L53.4878 46.3044C53.4878 45.5109 54.131 44.8677 54.9245 44.8677C55.7181 44.8677 56.3613 45.5109 56.3613 46.3044L56.3613 62.9505L62.5292 56.7826C63.0903 56.2215 64 56.2215 64.5611 56.7826Z" fill="#0B2D1F" stroke="#0B2D1F" stroke-width="1.27713" stroke-linecap="round" stroke-linejoin="round"/>
</g>
</g>
</svg>
