<svg width="72" height="72" viewBox="0 0 72 72" fill="none" xmlns="http://www.w3.org/2000/svg">
<g id="my-leave-count">
<g id="Group 1171275536">
<g id="my-leaves">
<g id="Group 1171274798">
<path id="Ellipse 2497" d="M29.0846 30.3661C33.61 30.3661 37.2786 26.364 37.2786 21.4272C37.2786 16.4904 33.61 12.4883 29.0846 12.4883C24.5592 12.4883 20.8906 16.4904 20.8906 21.4272C20.8906 26.364 24.5592 30.3661 29.0846 30.3661Z" fill="#2EB67D"/>
<path id="Subtract" fill-rule="evenodd" clip-rule="evenodd" d="M40.7711 20.9173C40.7711 28.227 35.3029 34.1975 28.5514 34.1975C21.7998 34.1975 16.3594 28.2548 16.3313 20.9732C16.3035 13.803 21.8276 8 28.5514 8C35.3029 8 40.7711 13.7194 40.7711 20.9173ZM21.4371 20.9732C21.4371 25.6603 24.7012 29.315 28.5514 29.315C32.4293 29.315 35.6657 25.6044 35.6657 20.9173C35.6657 16.3419 32.4571 12.8824 28.5514 12.8824C24.6734 12.8824 21.409 16.3975 21.4371 20.9732ZM28.5514 42.3161C31.3873 42.3161 33.9359 42.7405 36.1785 43.4458V38.3773C33.8326 37.774 31.2817 37.4336 28.5514 37.4336C13.5973 37.4336 4 47.6447 4 55.3172C4 58.6092 6.31564 60.1435 11.1422 60.1435H36.1785V55.2613H10.2773C9.60775 55.2613 9.35663 55.0381 9.35663 54.5358C9.35663 50.2674 16.2477 42.3161 28.5514 42.3161Z" fill="#0B2D1F"/>
</g>
</g>
<g id="Group 1171275509">
<rect id="Rectangle 34624905" x="39.4585" y="35.4361" width="27.4716" height="27.4716" rx="2.4918" fill="#2EB67D" stroke="#0B2D1F" stroke-width="2.13583"/>
<text id="1" fill="#0B2D1F" xml:space="preserve" style="white-space: pre" font-family="Poppins" font-size="10.3825" font-weight="bold" letter-spacing="0em"><tspan x="43.2109" y="46.7592">1</tspan></text>
<text id="2" fill="#0B2D1F" xml:space="preserve" style="white-space: pre" font-family="Poppins" font-size="10.3825" font-weight="bold" letter-spacing="0em"><tspan x="50" y="53.4652">2</tspan></text>
<text id="3" fill="#0B2D1F" xml:space="preserve" style="white-space: pre" font-family="Poppins" font-size="10.3825" font-weight="bold" letter-spacing="0em"><tspan x="58" y="58.4652">3</tspan></text>
</g>
</g>
</g>
</svg>
