<svg width="72" height="72" viewBox="0 0 72 72" fill="none" xmlns="http://www.w3.org/2000/svg">
<g id="my-leave-balance">
<g id="Group 1171275536">
<g id="my-leaves">
<g id="Group 1171274798">
<path id="Ellipse 2497" d="M26.0464 28.6603C30.0244 28.6603 33.2491 25.1424 33.2491 20.8028C33.2491 16.4632 30.0244 12.9453 26.0464 12.9453C22.0685 12.9453 18.8438 16.4632 18.8438 20.8028C18.8438 25.1424 22.0685 28.6603 26.0464 28.6603Z" fill="#2EB67D"/>
<path id="Subtract" fill-rule="evenodd" clip-rule="evenodd" d="M36.3226 20.3546C36.3226 26.78 31.5159 32.0282 25.5812 32.0282C19.6464 32.0282 14.8642 26.8044 14.8395 20.4037C14.8151 14.101 19.6708 9 25.5812 9C31.5159 9 36.3226 14.0274 36.3226 20.3546ZM19.3275 20.4037C19.3275 24.5238 22.1968 27.7363 25.5812 27.7363C28.99 27.7363 31.8348 24.4746 31.8348 20.3546C31.8348 16.3328 29.0144 13.2917 25.5812 13.2917C22.1724 13.2917 19.3029 16.3816 19.3275 20.4037ZM25.5812 39.1646C28.0741 39.1646 30.3144 39.5376 32.2857 40.1576V35.7023C30.2236 35.172 27.9813 34.8728 25.5812 34.8728C12.4363 34.8728 4 43.8486 4 50.5928C4 53.4866 6.0355 54.8353 10.2781 54.8353H32.2857V50.5437H9.5179C8.92933 50.5437 8.7086 50.3475 8.7086 49.906C8.7086 46.1539 14.766 39.1646 25.5812 39.1646Z" fill="#0B2D1F"/>
</g>
<g id="my-leaves_2">
<g id="Group 1171274798_2">
<g id="Group 1171275503">
<path id="Rectangle 34624673" d="M60.5702 32.1416H36.5703V56.1415H60.5702V32.1416Z" fill="#2EB67D"/>
<path id="Vector" d="M46.73 50.6799C47.3243 51.2742 48.2842 51.2742 48.8785 50.6799L54.3489 45.2095C54.4903 45.0684 54.6023 44.901 54.6788 44.7166C54.7553 44.5325 54.7945 44.3349 54.7945 44.1351C54.7945 43.9357 54.7553 43.7381 54.6788 43.5537C54.6023 43.3693 54.4903 43.2019 54.3489 43.0608L48.8785 37.5904C48.5934 37.3056 48.2071 37.1454 47.8041 37.1454C47.4011 37.1454 47.0148 37.3056 46.73 37.5904C46.445 37.8754 46.285 38.2618 46.285 38.6647C46.285 39.0677 46.445 39.4541 46.73 39.7391L49.5947 42.6189H36.3832C35.5452 42.6189 34.8594 43.3047 34.8594 44.1427C34.8594 44.9809 35.5452 45.6668 36.3832 45.6668H49.5947L46.73 48.5315C46.1357 49.1258 46.1508 50.101 46.73 50.6799ZM59.2404 30.4287H37.9072C37.0988 30.4287 36.3236 30.7495 35.7522 31.3212C35.1805 31.8929 34.8594 32.6678 34.8594 33.4763V38.0476C34.8594 38.8858 35.5452 39.5714 36.3832 39.5714C37.2214 39.5714 37.9072 38.8858 37.9072 38.0476V35C37.9072 34.1618 38.5928 33.4763 39.431 33.4763H57.7166C58.5545 33.4763 59.2404 34.1618 59.2404 35V53.2856C59.2404 54.1239 58.5545 54.8094 57.7166 54.8094H39.431C38.5928 54.8094 37.9072 54.1239 37.9072 53.2856V50.2381C37.9072 49.3998 37.2214 48.7143 36.3832 48.7143C35.5452 48.7143 34.8594 49.3998 34.8594 50.2381V54.8094C34.8594 56.4856 36.2311 57.857 37.9072 57.857H59.2404C60.9166 57.857 62.2879 56.4856 62.2879 54.8094V33.4763C62.2879 31.8001 60.9166 30.4287 59.2404 30.4287Z" fill="#0B2D1F" stroke="#0B2D1F" stroke-width="0.650774"/>
</g>
</g>
</g>
</g>
<g id="Group 1171275507">
<rect id="Rectangle 34624904" x="52.4141" y="42.7788" width="14.8052" height="18.7013" fill="#2EB67D"/>
<path id="Vector_2" d="M54.7555 51.3506H64.1061C64.3128 51.3506 64.511 51.2686 64.6571 51.1224C64.8033 50.9763 64.8853 50.7781 64.8853 50.5714V45.8961C64.8853 45.6894 64.8033 45.4912 64.6571 45.3451C64.511 45.199 64.3128 45.1169 64.1061 45.1169H54.7555C54.5488 45.1169 54.3506 45.199 54.2045 45.3451C54.0584 45.4912 53.9763 45.6894 53.9763 45.8961V50.5714C53.9763 50.7781 54.0584 50.9763 54.2045 51.1224C54.3506 51.2686 54.5488 51.3506 54.7555 51.3506ZM55.5347 46.6753H63.3269V49.7922H55.5347V46.6753ZM66.4438 42H52.4178C52.0045 42 51.6081 42.1642 51.3158 42.4565C51.0236 42.7487 50.8594 43.1451 50.8594 43.5584V60.7013C50.8594 61.1146 51.0236 61.511 51.3158 61.8033C51.6081 62.0955 52.0045 62.2597 52.4178 62.2597H66.4438C66.8571 62.2597 67.2535 62.0955 67.5458 61.8033C67.838 61.511 68.0022 61.1146 68.0022 60.7013V43.5584C68.0022 43.1451 67.838 42.7487 67.5458 42.4565C67.2535 42.1642 66.8571 42 66.4438 42ZM66.4438 60.7013H52.4178V43.5584H66.4438V60.7013ZM60.5996 54.0779C60.5996 54.3091 60.5311 54.5351 60.4027 54.7273C60.2742 54.9195 60.0917 55.0693 59.8781 55.1578C59.6645 55.2462 59.4295 55.2694 59.2028 55.2243C58.976 55.1792 58.7678 55.0679 58.6043 54.9044C58.4409 54.7409 58.3295 54.5327 58.2844 54.3059C58.2393 54.0792 58.2625 53.8442 58.3509 53.6306C58.4394 53.4171 58.5892 53.2345 58.7814 53.1061C58.9736 52.9776 59.1996 52.9091 59.4308 52.9091C59.7408 52.9091 60.0381 53.0322 60.2573 53.2514C60.4765 53.4706 60.5996 53.7679 60.5996 54.0779ZM60.5996 57.974C60.5996 58.2052 60.5311 58.4312 60.4027 58.6234C60.2742 58.8156 60.0917 58.9654 59.8781 59.0539C59.6645 59.1423 59.4295 59.1655 59.2028 59.1204C58.976 59.0753 58.7678 58.964 58.6043 58.8005C58.4409 58.637 58.3295 58.4288 58.2844 58.2021C58.2393 57.9753 58.2625 57.7403 58.3509 57.5267C58.4394 57.3132 58.5892 57.1306 58.7814 57.0022C58.9736 56.8737 59.1996 56.8052 59.4308 56.8052C59.7408 56.8052 60.0381 56.9283 60.2573 57.1475C60.4765 57.3667 60.5996 57.664 60.5996 57.974ZM56.7035 54.0779C56.7035 54.3091 56.635 54.5351 56.5065 54.7273C56.3781 54.9195 56.1956 55.0693 55.982 55.1578C55.7684 55.2462 55.5334 55.2694 55.3067 55.2243C55.0799 55.1792 54.8717 55.0679 54.7082 54.9044C54.5447 54.7409 54.4334 54.5327 54.3883 54.3059C54.3432 54.0792 54.3664 53.8442 54.4548 53.6306C54.5433 53.4171 54.6931 53.2345 54.8853 53.1061C55.0775 52.9776 55.3035 52.9091 55.5347 52.9091C55.8447 52.9091 56.142 53.0322 56.3612 53.2514C56.5804 53.4706 56.7035 53.7679 56.7035 54.0779ZM56.7035 57.974C56.7035 58.2052 56.635 58.4312 56.5065 58.6234C56.3781 58.8156 56.1956 58.9654 55.982 59.0539C55.7684 59.1423 55.5334 59.1655 55.3067 59.1204C55.0799 59.0753 54.8717 58.964 54.7082 58.8005C54.5447 58.637 54.4334 58.4288 54.3883 58.2021C54.3432 57.9753 54.3664 57.7403 54.4548 57.5267C54.5433 57.3132 54.6931 57.1306 54.8853 57.0022C55.0775 56.8737 55.3035 56.8052 55.5347 56.8052C55.8447 56.8052 56.142 56.9283 56.3612 57.1475C56.5804 57.3667 56.7035 57.664 56.7035 57.974ZM64.4957 54.0779C64.4957 54.3091 64.4272 54.5351 64.2988 54.7273C64.1703 54.9195 63.9878 55.0693 63.7742 55.1578C63.5606 55.2462 63.3256 55.2694 63.0989 55.2243C62.8721 55.1792 62.6639 55.0679 62.5004 54.9044C62.337 54.7409 62.2256 54.5327 62.1805 54.3059C62.1354 54.0792 62.1586 53.8442 62.247 53.6306C62.3355 53.4171 62.4853 53.2345 62.6775 53.1061C62.8698 52.9776 63.0957 52.9091 63.3269 52.9091C63.6369 52.9091 63.9342 53.0322 64.1534 53.2514C64.3726 53.4706 64.4957 53.7679 64.4957 54.0779ZM64.4957 57.974C64.4957 58.2052 64.4272 58.4312 64.2988 58.6234C64.1703 58.8156 63.9878 58.9654 63.7742 59.0539C63.5606 59.1423 63.3256 59.1655 63.0989 59.1204C62.8721 59.0753 62.6639 58.964 62.5004 58.8005C62.337 58.637 62.2256 58.4288 62.1805 58.2021C62.1354 57.9753 62.1586 57.7403 62.247 57.5267C62.3355 57.3132 62.4853 57.1306 62.6775 57.0022C62.8698 56.8737 63.0957 56.8052 63.3269 56.8052C63.6369 56.8052 63.9342 56.9283 64.1534 57.1475C64.3726 57.3667 64.4957 57.664 64.4957 57.974Z" fill="#0B2D1F"/>
</g>
</g>
</g>
</svg>
