<svg width="72" height="72" viewBox="0 0 72 72" fill="none" xmlns="http://www.w3.org/2000/svg">
<g id="reporting">
<g id="Group">
<path id="Vector 59" d="M15.2656 11.8223H22.3767V15.3778H51.5323V11.8223H57.2212L58.6434 63.7334H15.2656V11.8223Z" fill="#BE1A2E" stroke="#BE1A2E" stroke-width="1.02857"/>
<path id="Vector" d="M29.887 4.07675C27.9495 4.40174 25.9246 5.37672 24.5871 6.62668L23.6622 7.48916H19.9123C15.8249 7.48916 15.2624 7.55165 14.0874 8.13914C12.675 8.85162 11.4875 10.3891 11.15 11.964C10.95 12.9015 10.95 62.5751 11.15 63.5126C11.35 64.4376 11.925 65.5376 12.5875 66.2375C13.2374 66.925 14.5249 67.65 15.4874 67.85C16.4249 68.05 56.3488 68.05 57.2862 67.85C59.4112 67.4 61.1736 65.6251 61.6236 63.5126C61.8236 62.5626 61.8236 12.9015 61.6236 11.964C61.1736 9.85159 59.3862 8.06414 57.2862 7.62666C56.8862 7.53916 55.1363 7.48916 52.8614 7.48916H49.099L48.2615 6.68918C47.3115 5.8017 46.3615 5.18922 45.0866 4.68924C43.4491 4.02675 42.8991 3.98926 36.2868 4.00175C32.9369 4.01425 30.062 4.05175 29.887 4.07675ZM42.8741 7.92665C43.3116 8.03914 44.0241 8.30164 44.4366 8.51413C45.6865 9.17661 47.0865 10.7641 47.449 11.9515L47.524 12.239H36.3868H25.2496L25.3246 11.9515C25.5371 11.2891 26.1246 10.3766 26.8371 9.6516C27.662 8.81412 28.962 8.07664 30.0245 7.87665C30.3245 7.81415 33.1619 7.76415 36.3243 7.75165C41.0492 7.73915 42.2116 7.77665 42.8741 7.92665ZM21.4247 12.0765C21.3247 12.5515 21.2622 13.3765 21.2872 13.9515C21.3247 15.0515 21.5247 15.4139 22.2872 15.8139C22.7872 16.0764 49.9864 16.0764 50.4864 15.8139C51.2489 15.4139 51.4489 15.0515 51.4864 13.9515C51.5114 13.3765 51.4489 12.5515 51.3489 12.0765L51.1739 11.2391H53.8113C56.8362 11.2391 57.2362 11.3391 57.7362 12.2265L58.0112 12.714V37.7383V62.7626L57.7487 63.2376C57.5987 63.5001 57.2737 63.8251 57.0112 63.9751L56.5362 64.2376H36.3868H16.2374L15.7624 63.9751C15.4999 63.8251 15.1749 63.5001 15.0249 63.2376L14.7624 62.7626V37.7383V12.714L15.0374 12.2265C15.5374 11.3391 15.9249 11.2391 18.9623 11.2391H21.5997L21.4247 12.0765Z" fill="#4D0000"/>
<path id="Vector_2" d="M42.3385 21.9888C41.501 22.2513 40.901 23.2637 41.0635 24.1512C41.2135 24.9387 41.9635 25.6137 42.701 25.6137C42.876 25.6137 43.0134 25.6512 43.0134 25.7137C43.0134 25.7637 42.026 26.7886 40.826 27.9886L38.6386 30.176L35.6012 27.1386C32.3137 23.8637 32.1262 23.7262 31.1763 23.9762C30.7888 24.0887 29.9888 24.8262 26.9264 27.8886C23.7015 31.126 23.1515 31.7385 23.0765 32.1385C22.8515 33.3635 23.664 34.3634 24.8889 34.3634C25.1764 34.3634 25.5264 34.3009 25.6764 34.2259C25.8264 34.1509 27.2264 32.8135 28.8013 31.2635L31.6388 28.4261L34.6137 31.3885C36.2386 33.0135 37.7011 34.4009 37.8511 34.4759C38.2011 34.6509 39.0761 34.6509 39.426 34.4759C39.576 34.4009 41.051 32.9885 42.7135 31.3385L45.7259 28.3386L45.8009 28.8386C46.0884 30.576 48.4883 30.9385 49.3008 29.3636C49.5008 28.9761 49.5133 28.6011 49.4883 26.0262C49.4508 22.8387 49.4383 22.8263 48.5883 22.1888C48.2633 21.9388 48.0633 21.9263 45.4759 21.9013C43.9509 21.8888 42.5385 21.9263 42.3385 21.9888Z" fill="#4D0000"/>
<path id="Vector_3" d="M27.7659 40.9381C27.5284 41.038 26.666 41.7755 25.866 42.5755L24.4035 44.0255L23.891 43.563C23.6036 43.313 23.2411 43.0505 23.0661 42.988C21.5286 42.4005 19.9912 44.063 20.7161 45.5254C20.9911 46.0754 22.9786 48.0754 23.5411 48.3753C24.1285 48.6753 24.6535 48.6753 25.241 48.3753C25.491 48.2379 26.691 47.1379 27.9034 45.9004C29.6659 44.1255 30.1409 43.5755 30.2534 43.1755C30.5159 42.2255 29.9284 41.113 29.0409 40.8631C28.4409 40.7006 28.2909 40.7131 27.7659 40.9381Z" fill="#4D0000"/>
<path id="Vector_4" d="M34.1253 43.1506C32.9878 43.9131 33.0128 45.4131 34.1878 46.288C34.5253 46.5505 34.6503 46.5505 42.7001 46.5505C50.7498 46.5505 50.8748 46.5505 51.2123 46.288C52.3873 45.4131 52.4123 43.9131 51.2748 43.1506L50.8498 42.8631H42.7001H34.5503L34.1253 43.1506Z" fill="#4D0000"/>
<path id="Vector_5" d="M28.3233 51.5506C28.2608 51.5756 28.0358 51.6256 27.8358 51.6756C27.5983 51.7256 26.9233 52.2881 25.9358 53.2631L24.3984 54.7755L23.9359 54.363C23.4234 53.913 22.7859 53.6131 22.3609 53.6131C21.8359 53.6131 21.0735 54.088 20.786 54.6005C20.1985 55.6505 20.4485 56.263 22.1734 57.9629C23.5484 59.3129 23.8859 59.4879 24.8608 59.3004C25.2483 59.2254 25.6858 58.8504 27.6108 56.9505C28.8732 55.7005 29.9982 54.5005 30.0982 54.3005C30.5357 53.4756 30.2232 52.2881 29.4482 51.8506C29.0482 51.6256 28.5232 51.4881 28.3233 51.5506Z" fill="#4D0000"/>
<path id="Vector_6" d="M34.3156 53.7879C33.7031 54.0629 33.3281 54.6879 33.3281 55.4503C33.3281 56.1503 33.5531 56.5753 34.1906 57.0378C34.5281 57.3003 34.6531 57.3003 42.7029 57.3003C50.7526 57.3003 50.8776 57.3003 51.2151 57.0378C51.8526 56.5753 52.0776 56.1503 52.0776 55.4503C52.0776 54.6754 51.7026 54.0504 51.0651 53.7879C50.4652 53.5379 34.8906 53.5379 34.3156 53.7879Z" fill="#4D0000"/>
</g>
</g>
</svg>
