<?xml version="1.0"?>
<svg xmlns="http://www.w3.org/2000/svg" id="line" viewBox="0 0 64 64" width="512" height="512"><path d="M59.19,19.81A13,13,0,0,0,40.81,38.19l8.48,8.49a1,1,0,0,0,1.42,0l8.48-8.49A13,13,0,0,0,59.19,19.81ZM50,33a4,4,0,1,1,4-4A4,4,0,0,1,50,33ZM23.24,45h-2a2,2,0,0,0-2,1.7L17.36,59.55a3,3,0,0,0,3,3.45H59.56a3,3,0,0,0,2.94-3.59l-.72-3.61a1,1,0,0,0-1-.8H54a1,1,0,0,1,0-2h6a1,1,0,0,0,1-1.2l-1.73-8.64a1,1,0,0,0-1.69-.51l-.79.79a1,1,0,0,0-.13,1.24A2.67,2.67,0,0,1,57,46c0,2.66-3.5,4-7,4s-7-1.33-7-4a2.67,2.67,0,0,1,.36-1.32,1,1,0,0,0-.13-1.24l-3.84-3.83a15,15,0,0,1-2.87-17.17A1,1,0,0,0,35.63,21H25.72a3,3,0,0,0-3,2.55l-2,13.15a2,2,0,0,0,2,2.3h1a1,1,0,0,1,1,1.12l-.5,4A1,1,0,0,1,23.24,45ZM33,39.06h4a1,1,0,0,1,0,2H33A1,1,0,0,1,33,39.06ZM25.87,57H38a1,1,0,0,1,0,2H25.87A1,1,0,0,1,25.87,57ZM52,29a2,2,0,1,1-2-2A2,2,0,0,1,52,29Z" style="fill:#c4a2fc"/><path d="M33,25a1,1,0,0,1,0,2H25.87a1,1,0,0,1,0-2ZM10,43h8a1,1,0,0,0,0-2H10A1,1,0,0,0,10,43ZM36,15H30a1,1,0,0,0,0,2h6A1,1,0,0,0,36,15ZM14,10a4,4,0,1,1,4,4A4,4,0,0,1,14,10Zm2,0a2,2,0,1,0,2-2A2,2,0,0,0,16,10Zm8,41H4.44A3,3,0,0,1,1.5,47.41L9,9.84A9,9,0,0,1,26.93,9H40.36a3,3,0,0,1,2.94,2.41l.48,2.39a1,1,0,0,1-2,.4l-.48-2.4a1,1,0,0,0-1-.8H26.93c-.53,4.85-4.13,6.39-8.22,11a1,1,0,0,1-1.42,0c-5.22-5.36-6.1-5.76-7.15-7.64L3.46,47.8a1,1,0,0,0,1,1.2H24A1,1,0,0,1,24,51ZM13.05,15,18,19.9,23,15a7,7,0,1,0-9.9,0ZM46,45H31.17a1,1,0,0,1-1-1.08l.64-7.67a3,3,0,0,0-3-3.25H19.27a1,1,0,0,1-1-1.12L19,26.12a1,1,0,0,0-2-.24l-.72,5.75a3,3,0,0,0,3,3.37h8.56a1,1,0,0,1,1,1.08l-.64,7.67a3,3,0,0,0,3,3.25H46A1,1,0,0,0,46,45Z" style="fill:#151a6a"/></svg>
