<svg height="512pt" viewBox="-6 0 512 512" width="512pt" xmlns="http://www.w3.org/2000/svg"><path d="m0 261.621094c0-138.085938 111.78125-250.0625 249.792969-250.378906 137.996093-.316407 250.886719 112.234374 250.964843 250.234374.027344 44.347657-11.488281 86-31.691406 122.136719-4.78125 8.542969-14.785156 12.667969-24.269531 10.253907-40-10.175782-83.296875-15.742188-128.5-15.742188-87.945313 0-168.667969 21.058594-231.914063 56.179688-5.914062 3.285156-13.339843 2.148437-17.933593-2.820313-41.242188-44.632813-66.449219-104.300781-66.449219-169.863281zm0 0" fill="#7dc3db"/><path d="m66.425781 431.457031v-257.722656c0-11.289063 9.152344-20.441406 20.441407-20.441406h327.023437c11.289063 0 20.441406 9.152343 20.441406 20.441406v154.011719c0 100.128906-79.945312 182.699218-180.0625 184.222656-1.292969.019531-2.589843.03125-3.890625.03125-72.730468 0-138.207031-31.023438-183.953125-80.542969zm0 0" fill="#ffa655"/><path d="m90.953125 454.691406v-280.957031c0-11.289063 9.152344-20.441406 20.441406-20.441406h302.496094c11.289063 0 20.441406 9.152343 20.441406 20.441406v170.46875c0 76.53125-52.1875 143.78125-126.703125 161.21875-18.386718 4.300781-37.550781 6.578125-57.25 6.578125-60.574218 0-116.121094-21.511719-159.425781-57.308594zm0 0" fill="#fdcb6b"/><path d="m183.953125 199.28125c0 8.464844-6.863281 15.328125-15.332031 15.328125h-20.4375c-8.464844 0-15.328125-6.863281-15.328125-15.328125s6.863281-15.328125 15.328125-15.328125h20.4375c8.46875 0 15.332031 6.863281 15.332031 15.328125zm168.621094-15.328125h-20.4375c-8.46875 0-15.332031 6.863281-15.332031 15.328125s6.863281 15.328125 15.332031 15.328125h20.4375c8.464843 0 15.328125-6.863281 15.328125-15.328125s-6.863282-15.328125-15.328125-15.328125zm0 0" fill="#fcb30b"/><path d="m352.574219 102.195312v112.414063h-20.4375v-112.414063c0-45.082031-36.675781-81.757812-81.757813-81.757812-45.082031 0-81.757812 36.675781-81.757812 81.757812v112.414063h-20.4375v-112.414063c0-56.351562 45.84375-102.195312 102.195312-102.195312 56.351563 0 102.195313 45.84375 102.195313 102.195312zm0 0" fill="#fc6930"/><path d="m305.566406 505.882812v-220.460937c0-3.707031 3.003906-6.714844 6.710938-6.714844 1.78125 0 3.488281.710938 4.746094 1.96875l13.726562 13.726563c2.621094 2.621094 6.871094 2.621094 9.492188 0l13.726562-13.726563c1.261719-1.257812 2.96875-1.96875 4.75-1.96875h5.382812c1.78125 0 3.488282.710938 4.746094 1.96875l13.726563 13.726563c2.621093 2.621094 6.871093 2.621094 9.492187 0l13.726563-13.726563c1.257812-1.257812 2.96875-1.96875 4.746093-1.96875h5.386719c1.78125 0 3.488281.710938 4.746094 1.96875l13.726563 13.726563c2.621093 2.621094 6.871093 2.621094 9.492187 0l13.726563-13.726563c1.257812-1.257812 2.964843-1.96875 4.746093-1.96875 3.707031 0 6.714844 3.007813 6.714844 6.714844v98.15625c-34.175781 61.15625-93.25 106.5-163.511719 122.304687zm0 0" fill="#fff2b4"/><path d="m336.222656 496.894531v-200.570312c1.46875-.160157 2.894532-.796875 4.019532-1.921875l13.726562-13.726563c1.261719-1.257812 2.96875-1.96875 4.75-1.96875h5.382812c1.78125 0 3.488282.710938 4.746094 1.96875l13.726563 13.726563c2.621093 2.621094 6.871093 2.621094 9.492187 0l13.726563-13.726563c1.257812-1.257812 2.96875-1.96875 4.746093-1.96875h5.386719c1.78125 0 3.488281.710938 4.746094 1.96875l13.726563 13.726563c2.621093 2.621094 6.871093 2.621094 9.492187 0l13.726563-13.726563c1.257812-1.257812 2.964843-1.96875 4.746093-1.96875 3.707031 0 6.714844 3.007813 6.714844 6.714844v98.15625c-29.078125 52.035156-76.171875 92.628906-132.855469 113.316406zm0 0" fill="#fff5f5"/><path d="m377.101562 459.878906c0 5.644532-4.574218 10.222656-10.21875 10.222656-5.644531 0-10.21875-4.578124-10.21875-10.222656 0-5.644531 4.574219-10.21875 10.21875-10.21875 5.644532 0 10.21875 4.574219 10.21875 10.21875zm-40.878906-10.21875c-5.644531 0-10.21875 4.574219-10.21875 10.21875 0 5.644532 4.574219 10.222656 10.21875 10.222656 5.644532 0 10.21875-4.578124 10.21875-10.222656 0-5.644531-4.574218-10.21875-10.21875-10.21875zm-5.109375-61.316406h30.660157c2.820312 0 5.109374-2.289062 5.109374-5.109375v-10.21875c0-2.824219-2.289062-5.113281-5.109374-5.113281h-30.660157c-2.820312 0-5.109375 2.289062-5.109375 5.113281v10.21875c0 2.820313 2.289063 5.109375 5.109375 5.109375zm91.976563-61.316406h-91.976563c-2.820312 0-5.109375 2.285156-5.109375 5.109375v10.21875c0 2.820312 2.289063 5.109375 5.109375 5.109375h91.976563c2.820312 0 5.109375-2.289063 5.109375-5.109375v-10.21875c0-2.824219-2.289063-5.109375-5.109375-5.109375zm0 81.753906h-91.976563c-2.820312 0-5.109375 2.289062-5.109375 5.109375v10.222656c0 2.820313 2.289063 5.109375 5.109375 5.109375h91.976563c2.820312 0 5.109375-2.289062 5.109375-5.109375v-10.222656c0-2.820313-2.289063-5.109375-5.109375-5.109375zm-25.550782 40.878906c-5.640624 0-10.21875 4.574219-10.21875 10.21875 0 3.488282 1.75 6.566406 4.417969 8.410156 5.328125-3.652343 10.503907-7.503906 15.527344-11.546874-1.328125-4.109376-5.175781-7.082032-9.726563-7.082032zm0 0" fill="#ffdf8e"/></svg>