<svg width="72" height="72" viewBox="0 0 72 72" fill="none" xmlns="http://www.w3.org/2000/svg">
<g id="catering-order">
<g id="Group">
<g id="Vector">
<path d="M35.5656 67.9999C34.6189 67.2246 33.6856 66.4343 32.7189 65.6873C32.4793 65.5026 32.1349 65.3662 31.8355 65.3629C29.2783 65.3379 26.7211 65.3629 24.1622 65.3446C20.6883 65.3196 18.0096 63.1135 17.4106 59.7893C17.3225 59.3018 17.3191 58.796 17.3191 58.2985C17.3141 42.5776 17.3125 26.8584 17.3175 11.1375C17.3191 6.90819 20.1276 4.11141 24.3602 4.11141C32.1582 4.10974 39.9563 4.10475 47.7527 4.11307C51.1967 4.1164 53.8953 6.36081 54.4726 9.69333C54.5641 10.2207 54.5592 10.7698 54.5592 11.3088C54.5641 23.2647 54.5625 35.2221 54.5625 47.1779C54.5625 47.4441 54.5625 47.7103 54.5625 47.9782C54.9468 48.0481 55.2746 48.0897 55.594 48.1695C57.2378 48.5805 58.5172 50.0762 58.5306 51.7782C58.5672 56.7263 58.5455 61.676 58.5572 66.624C58.5588 67.3012 58.1446 67.6655 57.6504 67.9966C57.4009 67.9966 57.1513 67.9966 56.9017 67.9966C56.1347 67.6622 55.8885 67.0716 55.8918 66.2497C55.9151 61.6327 55.9035 57.0158 55.9035 52.3988C55.9035 51.329 55.426 50.7084 54.5974 50.6918C53.7522 50.6735 53.2564 51.3091 53.2531 52.4155C53.2514 53.1226 53.2581 53.8297 53.2498 54.5368C53.2448 55.0642 53.0801 55.5167 52.6042 55.8095C51.6775 56.3769 50.6061 55.738 50.5778 54.5684C50.5462 53.279 50.5861 51.9895 50.5578 50.7001C50.5395 49.815 49.8707 49.2709 49.0255 49.3957C48.3783 49.4906 47.9291 50.028 47.9224 50.7717C47.9091 52.081 47.934 53.3921 47.9074 54.7015C47.8925 55.4585 47.3035 56.0109 46.5931 56.0142C45.881 56.0175 45.3136 55.4701 45.277 54.7115C45.2537 54.234 45.267 53.7548 45.267 53.2773C45.2654 51.9879 45.287 50.6985 45.2554 49.409C45.2354 48.5855 44.6714 48.0398 43.9327 48.0364C43.194 48.0314 42.6516 48.5755 42.59 49.3941C42.5751 49.6004 42.5834 49.81 42.5834 50.018C42.5817 51.5769 42.5934 53.1375 42.5717 54.6965C42.5618 55.4186 42.066 55.936 41.3971 56.0075C40.7449 56.0774 40.106 55.6249 39.9679 54.966C39.9214 54.7447 39.933 54.5101 39.933 54.2822C39.9313 49.7069 39.9313 45.1315 39.9313 40.5562C39.9313 39.3383 39.4538 38.6927 38.5721 38.716C37.7135 38.7377 37.2793 39.3533 37.2793 40.5528C37.2793 46.0632 37.281 51.5753 37.2776 57.0856C37.276 58.4433 36.474 59.009 35.1946 58.5647C33.5475 57.9941 31.902 57.4151 30.2549 56.8461C29.4563 56.5699 28.8906 56.7296 28.5712 57.3036C28.2534 57.8743 28.4131 58.4333 29.057 58.9873C31.531 61.117 34.0083 63.2432 36.4824 65.3745C37.6021 66.3395 37.5422 67.2196 36.3143 67.9966C36.0648 67.9999 35.8152 67.9999 35.5656 67.9999ZM26.5663 6.76345C25.6895 6.76345 24.861 6.74847 24.0341 6.76677C21.6482 6.82001 19.9712 8.52038 19.9695 10.9062C19.9645 26.7918 19.9645 42.6758 19.9695 58.5614C19.9695 60.9473 21.6582 62.6326 24.0557 62.6609C25.5947 62.6792 27.1337 62.6659 28.671 62.6626C28.8058 62.6626 28.9405 62.641 29.2051 62.6177C28.3948 61.9205 27.6611 61.3199 26.9623 60.6827C25.6163 59.4549 25.3102 57.5282 26.1853 55.9576C27.0721 54.3654 28.9023 53.615 30.6708 54.1474C31.4461 54.3804 32.2048 54.6632 32.9702 54.9261C33.4876 55.1041 34.0034 55.2855 34.5524 55.4768C34.5524 50.7267 34.5524 46.0815 34.5524 41.388C34.2612 41.388 34.015 41.388 33.7688 41.388C30.6076 41.388 27.4481 41.3897 24.287 41.3864C23.3137 41.3847 22.7513 40.9721 22.6465 40.2068C22.55 39.5063 22.956 38.9972 23.8344 38.706C23.871 38.6944 23.8993 38.6578 23.9592 38.6112C23.9592 38.3217 23.9592 38.0106 23.9592 37.6995C23.9625 31.4487 27.9988 26.6321 34.1464 25.564C34.5274 25.4974 34.6123 25.3327 34.604 24.9867C34.594 24.574 34.594 24.1498 34.6739 23.7471C34.792 23.1449 35.341 22.7439 35.9383 22.7439C36.5339 22.7439 37.0813 23.1482 37.2028 23.7488C37.2793 24.1315 37.2993 24.5358 37.2693 24.9251C37.2344 25.3876 37.4207 25.5157 37.855 25.579C43.0027 26.3343 47.2286 30.6934 47.7993 35.8361C47.9041 36.7777 47.9157 37.7278 47.9706 38.6645C48.9523 39.0055 49.3549 39.5296 49.2168 40.2683C49.0771 41.0237 48.538 41.383 47.5248 41.3864C46.1738 41.3897 44.8211 41.3864 43.4702 41.3864C43.1907 41.3864 42.9095 41.3864 42.6283 41.3864C42.6283 42.8305 42.6283 44.1698 42.6283 45.5125C42.7331 45.5192 42.7963 45.5375 42.8529 45.5242C44.5533 45.1382 45.9625 45.5957 47.1005 46.9334C47.202 47.0515 47.5347 47.0814 47.7061 47.0149C48.8841 46.5557 50.0221 46.6039 51.1351 47.1929C51.3814 47.3227 51.6126 47.4807 51.9088 47.6604C51.9088 47.4125 51.9088 47.2478 51.9088 47.0848C51.9088 35.0458 51.9088 23.0084 51.9088 10.9694C51.9088 10.8447 51.9088 10.7199 51.9038 10.5951C51.8372 8.98291 50.7741 7.51547 49.2517 7.00636C47.9607 6.57378 46.6313 6.80005 45.262 6.77842C45.262 7.2659 45.2753 7.68018 45.2604 8.09279C45.1772 10.3106 43.5534 12.0542 41.4287 12.0775C37.7701 12.1191 34.1098 12.1141 30.4512 12.0792C28.5529 12.0609 26.954 10.5968 26.6894 8.71504C26.6046 8.10444 26.6096 7.47886 26.5663 6.76345ZM45.2471 38.706C45.4617 34.5932 44.0991 31.3339 40.537 29.3158C37.1129 27.3758 33.644 27.5938 30.4496 29.8881C27.4814 32.0194 26.3966 35.0657 26.6429 38.6445C26.756 38.6711 26.8159 38.6994 26.8758 38.6994C29.4114 38.7027 31.9469 38.711 34.4842 38.6927C34.6539 38.6911 34.8985 38.5214 34.9816 38.3633C35.7586 36.8892 36.9582 36.059 38.627 36.0706C40.2658 36.0806 41.4587 36.8892 42.2107 38.3533C42.2889 38.5047 42.4902 38.6844 42.6416 38.6894C43.4868 38.7227 44.337 38.706 45.2471 38.706ZM29.2949 6.7884C29.2949 7.17939 29.2916 7.50881 29.2949 7.83824C29.3065 8.95629 29.7741 9.43379 30.8888 9.44377C31.9702 9.45375 33.05 9.44543 34.1315 9.44543C36.4175 9.44543 38.7051 9.44876 40.9912 9.44377C41.8164 9.44211 42.3987 9.12932 42.5035 8.51373C42.5967 7.96136 42.5235 7.37904 42.5235 6.7884C38.1178 6.7884 33.7604 6.7884 29.2949 6.7884Z" fill="#0B2D1F"/>
<path d="M45.2471 38.706C45.4617 34.5932 44.0991 31.3339 40.537 29.3158C37.1129 27.3758 33.644 27.5938 30.4496 29.8881C27.4814 32.0194 26.3966 35.0657 26.6429 38.6445C26.756 38.6711 26.8159 38.6994 26.8758 38.6994C29.4114 38.7027 31.9469 38.711 34.4842 38.6927C34.6539 38.6911 34.8985 38.5214 34.9816 38.3633C35.7586 36.8892 36.9582 36.059 38.627 36.0706C40.2658 36.0806 41.4587 36.8892 42.2107 38.3533C42.2889 38.5047 42.4902 38.6844 42.6416 38.6894C43.4868 38.7227 44.337 38.706 45.2471 38.706Z" fill="#62C89E"/>
<path d="M29.2949 6.7884C29.2949 7.17939 29.2916 7.50881 29.2949 7.83824C29.3065 8.95629 29.7741 9.43379 30.8888 9.44377C31.9702 9.45375 33.05 9.44543 34.1315 9.44543C36.4175 9.44543 38.7051 9.44876 40.9912 9.44377C41.8164 9.44211 42.3987 9.12932 42.5035 8.51373C42.5967 7.96136 42.5235 7.37904 42.5235 6.7884H29.2949Z" fill="#22885E"/>
</g>
</g>
</g>
</svg>
