<svg width="72" height="72" viewBox="0 0 72 72" fill="none" xmlns="http://www.w3.org/2000/svg">
<g id="menu-planner">
<g id="Group">
<g id="Vector">
<path d="M18.1914 8.5728C18.1914 7.55185 18.1838 6.62614 18.1933 5.70042C18.2047 4.68519 18.8352 3.99757 19.7266 4.00519C20.6028 4.01281 21.2047 4.66042 21.2219 5.65471C21.239 6.60137 21.2257 7.54804 21.2257 8.5328C25.8142 8.5328 30.3247 8.5328 34.9419 8.5328C34.9419 7.84709 34.9399 7.16709 34.9419 6.48709C34.9419 6.15375 34.9247 5.81852 34.9552 5.48709C35.0371 4.59947 35.6695 3.99947 36.4866 4.00519C37.3076 4.0109 37.938 4.60519 37.9952 5.50614C38.0409 6.21661 38.0104 6.93471 38.0123 7.64709C38.0142 7.92709 38.0123 8.20899 38.0123 8.52899C42.5895 8.52899 47.1037 8.52899 51.7266 8.52899C51.7266 7.66232 51.7171 6.78994 51.7323 5.91947C51.738 5.58995 51.7475 5.24328 51.8542 4.93852C52.079 4.29661 52.799 3.91376 53.4599 4.01662C54.1837 4.129 54.7304 4.72328 54.7514 5.50423C54.7799 6.49852 54.759 7.4928 54.759 8.56899C56.4294 8.56899 58.0409 8.55756 59.6504 8.5747C60.4104 8.58232 61.1818 8.56518 61.9247 8.6928C64.7875 9.17851 66.8161 11.5423 66.9285 14.4528C66.9323 14.5709 66.938 14.6909 66.938 14.809C66.938 30.449 66.9418 46.0908 66.9361 61.7308C66.9342 64.4261 65.698 66.388 63.239 67.4813C62.5018 67.8089 61.6294 67.9765 60.8199 67.9765C44.5837 68.0051 28.3476 68.0051 12.1114 67.9899C8.71332 67.986 6.08475 65.3937 6.02761 61.9956C5.97618 58.9023 6.01237 55.807 6.01237 52.7118C6.01237 40.1651 6.02189 27.6204 6.00285 15.0737C5.99904 12.6356 6.90189 10.7309 8.9857 9.43566C9.95712 8.83185 11.0352 8.56899 12.18 8.57089C14.1533 8.5747 16.1266 8.5728 18.1914 8.5728ZM9.04856 26.8832C9.04856 27.1918 9.04856 27.428 9.04856 27.6642C9.04856 38.9461 9.04856 50.2299 9.04856 61.5118C9.04856 63.7346 10.2657 64.9651 12.4847 64.9651C28.4809 64.967 44.4752 64.967 60.4713 64.9651C62.6923 64.9651 63.9056 63.7384 63.9056 61.5099C63.9075 50.228 63.9056 38.9442 63.9056 27.6623C63.9056 27.4109 63.9056 27.1575 63.9056 26.8832C45.5895 26.8832 27.3647 26.8832 9.04856 26.8832ZM9.05617 23.769C27.38 23.769 45.6218 23.769 63.9056 23.769C63.9056 20.7899 63.9094 17.8642 63.9037 14.9385C63.8999 12.8642 62.6523 11.6204 60.559 11.609C58.8447 11.5995 57.1323 11.6052 55.418 11.609C55.2123 11.609 55.0066 11.6357 54.7609 11.6528C54.7609 12.5899 54.7647 13.4699 54.7609 14.348C54.7552 15.5004 54.1818 16.1766 53.2218 16.169C52.2809 16.1614 51.738 15.5195 51.7285 14.388C51.7209 13.4909 51.7266 12.5937 51.7266 11.6699C47.1133 11.6699 42.5876 11.6699 38.0104 11.6699C38.0104 12.6566 38.0276 13.5823 38.0047 14.508C37.9799 15.5156 37.3914 16.1499 36.5152 16.169C35.6009 16.188 34.9723 15.5461 34.9476 14.5156C34.9247 13.5728 34.9419 12.6261 34.9419 11.6757C30.3209 11.6757 25.7952 11.6757 21.2238 11.6757C21.2238 12.6928 21.2885 13.6509 21.1952 14.5918C21.1514 15.0395 20.919 15.6356 20.5762 15.8452C20.1781 16.089 19.5323 16.1137 19.0562 15.9899C18.4657 15.8375 18.2009 15.2661 18.1952 14.6433C18.1857 13.6528 18.1933 12.6623 18.1933 11.6414C15.9857 11.6414 13.8695 11.5633 11.7628 11.668C10.2619 11.7423 9.09617 12.9823 9.07141 14.4299C9.02189 17.5233 9.05617 20.6166 9.05617 23.769Z" fill="#0D313B"/>
<path d="M9.05617 23.769H63.9056C63.9056 20.7899 63.9094 17.8642 63.9037 14.9385C63.8999 12.8642 62.6523 11.6204 60.559 11.609C58.8447 11.5995 57.1323 11.6052 55.418 11.609C55.2123 11.609 55.0066 11.6357 54.7609 11.6528C54.7609 12.5899 54.7647 13.4699 54.7609 14.348C54.7552 15.5004 54.1818 16.1766 53.2218 16.169C52.2809 16.1614 51.738 15.5195 51.7285 14.388C51.7209 13.4909 51.7266 12.5937 51.7266 11.6699H38.0104C38.0104 12.6566 38.0276 13.5823 38.0047 14.508C37.9799 15.5156 37.3914 16.1499 36.5152 16.169C35.6009 16.188 34.9723 15.5461 34.9476 14.5156C34.9247 13.5728 34.9419 12.6261 34.9419 11.6757H21.2238C21.2238 12.6928 21.2885 13.6509 21.1952 14.5918C21.1514 15.0395 20.919 15.6356 20.5762 15.8452C20.1781 16.089 19.5323 16.1137 19.0562 15.9899C18.4657 15.8375 18.2009 15.2661 18.1952 14.6433C18.1857 13.6528 18.1933 12.6623 18.1933 11.6414C15.9857 11.6414 13.8695 11.5633 11.7628 11.668C10.2619 11.7423 9.09617 12.9823 9.07141 14.4299C9.02189 17.5233 9.05617 20.6166 9.05617 23.769Z" fill="#2894B4"/>
</g>
<path id="Vector_2" d="M36.4847 44.1838C35.4867 44.1838 34.4866 44.199 33.4886 44.18C31.7171 44.1476 30.4409 42.9724 30.3895 41.2105C30.3305 39.1438 30.3324 37.0714 30.3876 35.0048C30.4352 33.2238 31.7476 32.02 33.5419 32.0086C35.4924 31.9971 37.4428 31.9971 39.3933 32.0086C41.2504 32.0181 42.5419 33.2657 42.5762 35.1305C42.6104 37.1038 42.6085 39.079 42.5762 41.0524C42.5457 42.9286 41.2847 44.1533 39.4105 44.1819C38.4352 44.1971 37.46 44.1838 36.4847 44.1838ZM33.4886 41.1076C35.5228 41.1076 37.4866 41.1076 39.4657 41.1076C39.4657 39.0828 39.4657 37.1 39.4657 35.079C37.4581 35.079 35.4962 35.079 33.4886 35.079C33.4886 37.1 33.4886 39.0828 33.4886 41.1076Z" fill="#0D313B"/>
<path id="Vector_3" d="M36.139 60.1838C35.1409 60.1838 34.1409 60.199 33.1429 60.18C31.3714 60.1476 30.0952 58.9724 30.0438 57.2105C29.9848 55.1438 29.9867 53.0714 30.0419 51.0048C30.0895 49.2238 31.4019 48.02 33.1962 48.0086C35.1467 47.9971 37.0971 47.9971 39.0476 48.0086C40.9047 48.0181 42.1962 49.2657 42.2305 51.1305C42.2647 53.1038 42.2628 55.079 42.2305 57.0524C42.2 58.9286 40.939 60.1533 39.0647 60.1819C38.0895 60.1971 37.1143 60.1838 36.139 60.1838ZM33.1429 57.1076C35.1771 57.1076 37.1409 57.1076 39.12 57.1076C39.12 55.0828 39.12 53.1 39.12 51.079C37.1124 51.079 35.1505 51.079 33.1429 51.079C33.1429 53.1 33.1429 55.0828 33.1429 57.1076Z" fill="#0D313B"/>
<path id="Vector_4" d="M19.139 60.1838C18.1409 60.1838 17.1409 60.199 16.1429 60.18C14.3714 60.1476 13.0952 58.9724 13.0438 57.2105C12.9848 55.1438 12.9867 53.0714 13.0419 51.0048C13.0895 49.2238 14.4019 48.02 16.1962 48.0086C18.1467 47.9971 20.0971 47.9971 22.0476 48.0086C23.9047 48.0181 25.1962 49.2657 25.2305 51.1305C25.2647 53.1038 25.2628 55.079 25.2305 57.0524C25.2 58.9286 23.939 60.1533 22.0647 60.1819C21.0895 60.1971 20.1143 60.1838 19.139 60.1838ZM16.1429 57.1076C18.1771 57.1076 20.1409 57.1076 22.12 57.1076C22.12 55.0828 22.12 53.1 22.12 51.079C20.1124 51.079 18.1505 51.079 16.1429 51.079C16.1429 53.1 16.1429 55.0828 16.1429 57.1076Z" fill="#0D313B"/>
<path id="Vector_5" d="M53.139 44.1838C52.1409 44.1838 51.1409 44.199 50.1429 44.18C48.3714 44.1476 47.0952 42.9724 47.0438 41.2105C46.9848 39.1438 46.9867 37.0714 47.0419 35.0048C47.0895 33.2238 48.4019 32.02 50.1962 32.0086C52.1467 31.9971 54.0971 31.9971 56.0476 32.0086C57.9047 32.0181 59.1962 33.2657 59.2305 35.1305C59.2647 37.1038 59.2628 39.079 59.2305 41.0524C59.2 42.9286 57.939 44.1533 56.0647 44.1819C55.0895 44.1971 54.1143 44.1838 53.139 44.1838ZM50.1429 41.1076C52.1771 41.1076 54.1409 41.1076 56.12 41.1076C56.12 39.0828 56.12 37.1 56.12 35.079C54.1124 35.079 52.1505 35.079 50.1429 35.079C50.1429 37.1 50.1429 39.0828 50.1429 41.1076Z" fill="#0D313B"/>
<path id="Vector_6" d="M52.7933 60.1838C51.7952 60.1838 50.7952 60.199 49.7971 60.18C48.0257 60.1476 46.7495 58.9724 46.6981 57.2105C46.6391 55.1438 46.641 53.0714 46.6962 51.0048C46.7438 49.2238 48.0562 48.02 49.8505 48.0086C51.801 47.9971 53.7514 47.9971 55.7019 48.0086C57.559 48.0181 58.8505 49.2657 58.8848 51.1305C58.919 53.1038 58.9171 55.079 58.8848 57.0524C58.8543 58.9286 57.5933 60.1533 55.719 60.1819C54.7438 60.1971 53.7686 60.1838 52.7933 60.1838ZM49.7971 57.1076C51.8314 57.1076 53.7952 57.1076 55.7743 57.1076C55.7743 55.0828 55.7743 53.1 55.7743 51.079C53.7667 51.079 51.8048 51.079 49.7971 51.079C49.7971 53.1 49.7971 55.0828 49.7971 57.1076Z" fill="#0D313B"/>
<path id="Vector_7" d="M19.5762 38.4332C21.22 36.5856 22.8657 34.7437 24.5 32.8923C24.9 32.439 25.3571 32.1323 25.9838 32.2104C27.1876 32.359 27.7342 33.7209 26.959 34.698C26.3971 35.4028 25.7685 36.0561 25.1685 36.7304C23.8123 38.258 22.4581 39.7913 21.0943 41.3132C20.2257 42.2809 19.5438 42.3418 18.5019 41.5666C17.6447 40.9285 16.7857 40.2923 15.9362 39.6428C15.1114 39.0123 14.919 38.1285 15.4314 37.4123C15.9704 36.6618 16.8866 36.5742 17.7514 37.197C18.3095 37.599 18.8619 38.0123 19.4162 38.418C19.4352 38.4294 19.4657 38.4237 19.5762 38.4332Z" fill="#0D313B"/>
<path id="Vector (Stroke)" fill-rule="evenodd" clip-rule="evenodd" d="M19.8244 39.0569L19.5246 39.031C19.494 39.0284 19.4765 39.0276 19.4554 39.0267C19.4482 39.0264 19.4406 39.026 19.4319 39.0256L19.4305 39.0255C19.4174 39.0249 19.378 39.0229 19.3342 39.0156C19.2809 39.0066 19.197 38.9862 19.1075 38.9325L19.0839 38.9184L19.0618 38.9022C18.8549 38.7507 18.6506 38.6 18.4474 38.45C18.0984 38.1925 17.7524 37.9372 17.4008 37.6839L17.4007 37.6839C17.0583 37.4372 16.7544 37.3656 16.5252 37.3871C16.3066 37.4075 16.0952 37.5169 15.9191 37.7618C15.7578 37.9875 15.7198 38.2138 15.7679 38.4286C15.8181 38.6529 15.9757 38.9177 16.3006 39.1661L16.3006 39.1661C17.0279 39.7222 17.7621 40.2683 18.4997 40.8171C18.6198 40.9064 18.7399 40.9958 18.8602 41.0853C19.3419 41.4437 19.6206 41.514 19.8057 41.4962C19.9893 41.4786 20.2475 41.3582 20.6475 40.9127C21.6531 39.7905 22.6532 38.6626 23.6538 37.5339C24.009 37.1333 24.3642 36.7326 24.7198 36.332L24.7203 36.3315C24.908 36.1206 25.0937 35.9167 25.2766 35.7159C25.699 35.2522 26.1065 34.8047 26.4893 34.3247C26.9853 33.6989 26.6294 32.8946 25.9103 32.8059L25.9096 32.8058C25.5673 32.7631 25.2906 32.9031 24.9499 33.2893L24.9498 33.2894C23.7392 34.6608 22.522 36.0274 21.305 37.3937C20.878 37.8731 20.4511 38.3525 20.0244 38.8321L19.8244 39.0569ZM26.959 34.698C26.5632 35.1944 26.1344 35.6652 25.7058 36.1359C25.5258 36.3335 25.3459 36.531 25.1685 36.7304C24.8135 37.1303 24.4587 37.5305 24.1037 37.9309C23.1027 39.0599 22.1011 40.1897 21.0943 41.3132C20.2257 42.2809 19.5438 42.3418 18.5019 41.5666C18.382 41.4773 18.262 41.3881 18.1421 41.2989C17.4046 40.7502 16.6668 40.2014 15.9362 39.6428C15.1114 39.0123 14.919 38.1285 15.4314 37.4123C15.9704 36.6618 16.8866 36.5742 17.7514 37.197C18.1053 37.4519 18.457 37.7114 18.8082 37.9706C19.0109 38.1201 19.2134 38.2696 19.4162 38.418C19.4276 38.4249 19.4432 38.4255 19.4777 38.4271C19.5007 38.4281 19.532 38.4294 19.5762 38.4332C20.0033 37.9531 20.4306 37.4734 20.8577 36.9938C22.0745 35.6277 23.2903 34.2626 24.5 32.8923C24.9 32.439 25.3571 32.1323 25.9838 32.2104C27.1876 32.359 27.7342 33.7209 26.959 34.698Z" fill="#0D313B"/>
</g>
</g>
</svg>
