<svg width="72" height="72" viewBox="0 0 72 72" fill="none" xmlns="http://www.w3.org/2000/svg">
<g id="reporting">
<g id="Group">
<path id="Vector 548" d="M43.5 6.5H29L23.5 14H49.5L43.5 6.5Z" fill="#E60000"/>
<path id="Vector" d="M29.887 4.07675C27.9495 4.40174 25.9246 5.37672 24.5871 6.62668L23.6622 7.48916H19.9123C15.8249 7.48916 15.2624 7.55166 14.0874 8.13914C12.675 8.85162 11.4875 10.3891 11.15 11.964C10.95 12.9015 10.95 62.5751 11.15 63.5126C11.35 64.4376 11.925 65.5376 12.5875 66.2375C13.2374 66.925 14.5249 67.65 15.4874 67.85C16.4249 68.05 56.3488 68.05 57.2862 67.85C59.4112 67.4 61.1736 65.6251 61.6236 63.5126C61.8236 62.5626 61.8236 12.9015 61.6236 11.964C61.1736 9.85159 59.3862 8.06414 57.2862 7.62666C56.8862 7.53916 55.1363 7.48916 52.8614 7.48916H49.099L48.2615 6.68918C47.3115 5.8017 46.3615 5.18922 45.0866 4.68924C43.4491 4.02675 42.8991 3.98926 36.2868 4.00175C32.9369 4.01425 30.062 4.05175 29.887 4.07675ZM42.8741 7.92665C43.3116 8.03914 44.0241 8.30164 44.4366 8.51413C45.6865 9.17661 47.0865 10.7641 47.449 11.9515L47.524 12.239H36.3868H25.2496L25.3246 11.9515C25.5371 11.2891 26.1246 10.3766 26.8371 9.6516C27.662 8.81412 28.962 8.07664 30.0245 7.87665C30.3245 7.81415 33.1619 7.76415 36.3243 7.75165C41.0492 7.73915 42.2116 7.77665 42.8741 7.92665ZM21.4247 12.0765C21.3247 12.5515 21.2622 13.3765 21.2872 13.9515C21.3247 15.0515 21.5247 15.4139 22.2872 15.8139C22.7872 16.0764 49.9864 16.0764 50.4864 15.8139C51.2489 15.4139 51.4489 15.0515 51.4864 13.9515C51.5114 13.3765 51.4489 12.5515 51.3489 12.0765L51.1739 11.2391H53.8113C56.8362 11.2391 57.2362 11.3391 57.7362 12.2265L58.0112 12.714V37.7383V62.7626L57.7487 63.2376C57.5987 63.5001 57.2737 63.8251 57.0112 63.9751L56.5362 64.2376H36.3868H16.2374L15.7624 63.9751C15.4999 63.8251 15.1749 63.5001 15.0249 63.2376L14.7624 62.7626V37.7383V12.714L15.0374 12.2265C15.5374 11.3391 15.9249 11.2391 18.9623 11.2391H21.5997L21.4247 12.0765Z" fill="#4D0000"/>
<path id="Vector_2" d="M42.3365 21.989C41.499 22.2515 40.8991 23.264 41.0616 24.1515C41.2115 24.9389 41.9615 25.6139 42.699 25.6139C42.874 25.6139 43.0115 25.6514 43.0115 25.7139C43.0115 25.7639 42.024 26.7889 40.8241 27.9889L38.6366 30.1763L35.5992 27.1389C32.3118 23.864 32.1243 23.7265 31.1743 23.9765C30.7868 24.089 29.9869 24.8264 26.9244 27.8889C23.6995 31.1263 23.1495 31.7388 23.0745 32.1387C22.8495 33.3637 23.662 34.3637 24.887 34.3637C25.1745 34.3637 25.5245 34.3012 25.6745 34.2262C25.8245 34.1512 27.2244 32.8137 28.7994 31.2638L31.6368 28.4263L34.6117 31.3888C36.2367 33.0137 37.6991 34.4012 37.8491 34.4762C38.1991 34.6512 39.0741 34.6512 39.4241 34.4762C39.5741 34.4012 41.049 32.9887 42.7115 31.3388L45.7239 28.3388L45.7989 28.8388C46.0864 30.5763 48.4863 30.9388 49.2988 29.3638C49.4988 28.9763 49.5113 28.6013 49.4863 26.0264C49.4488 22.839 49.4363 22.8265 48.5863 22.189C48.2614 21.939 48.0614 21.9265 45.4739 21.9015C43.949 21.889 42.5365 21.9265 42.3365 21.989Z" fill="#4D0000"/>
<path id="Vector_3" d="M27.762 40.9383C27.5245 41.0383 26.6621 41.7758 25.8621 42.5758L24.3996 44.0257L23.8871 43.5632C23.5996 43.3132 23.2372 43.0507 23.0622 42.9882C21.5247 42.4008 19.9872 44.0632 20.7122 45.5257C20.9872 46.0757 22.9747 48.0756 23.5371 48.3756C24.1246 48.6756 24.6496 48.6756 25.2371 48.3756C25.4871 48.2381 26.6871 47.1381 27.8995 45.9007C29.662 44.1257 30.137 43.5757 30.2495 43.1757C30.512 42.2258 29.9245 41.1133 29.037 40.8633C28.437 40.7008 28.287 40.7133 27.762 40.9383Z" fill="#4D0000"/>
<path id="Vector_4" d="M34.1233 43.1509C32.9859 43.9134 33.0109 45.4133 34.1858 46.2883C34.5233 46.5508 34.6483 46.5508 42.6981 46.5508C50.7479 46.5508 50.8729 46.5508 51.2104 46.2883C52.3853 45.4133 52.4103 43.9134 51.2729 43.1509L50.8479 42.8634H42.6981H34.5483L34.1233 43.1509Z" fill="#4D0000"/>
<path id="Vector_5" d="M28.3242 51.5509C28.2617 51.5759 28.0367 51.6259 27.8367 51.6759C27.5992 51.7258 26.9243 52.2883 25.9368 53.2633L24.3993 54.7758L23.9368 54.3633C23.4244 53.9133 22.7869 53.6133 22.3619 53.6133C21.8369 53.6133 21.0744 54.0883 20.7869 54.6008C20.1995 55.6507 20.4494 56.2632 22.1744 57.9632C23.5494 59.3131 23.8869 59.4881 24.8618 59.3006C25.2493 59.2256 25.6868 58.8507 27.6117 56.9507C28.8742 55.7007 29.9992 54.5008 30.0992 54.3008C30.5367 53.4758 30.2242 52.2883 29.4492 51.8508C29.0492 51.6259 28.5242 51.4884 28.3242 51.5509Z" fill="#4D0000"/>
<path id="Vector_6" d="M34.3127 53.7884C33.7002 54.0634 33.3252 54.6884 33.3252 55.4508C33.3252 56.1508 33.5502 56.5758 34.1877 57.0383C34.5252 57.3008 34.6502 57.3008 42.6999 57.3008C50.7497 57.3008 50.8747 57.3008 51.2122 57.0383C51.8497 56.5758 52.0747 56.1508 52.0747 55.4508C52.0747 54.6759 51.6997 54.0509 51.0622 53.7884C50.4622 53.5384 34.8877 53.5384 34.3127 53.7884Z" fill="#4D0000"/>
</g>
</g>
</svg>
