<svg width="72" height="72" viewBox="0 0 72 72" fill="none" xmlns="http://www.w3.org/2000/svg">
<path d="M26.4848 21.6069H41.1167" stroke="black" stroke-width="2.89655" stroke-linecap="round"/>
<path d="M26.4848 27.4597H34.2885" stroke="black" stroke-width="2.89655" stroke-linecap="round"/>
<path d="M26.4848 46.969H34.2885" stroke="black" stroke-width="2.89655" stroke-linecap="round"/>
<path d="M26.4853 40.9971L41.2198 40.859" stroke="black" stroke-width="2.89655" stroke-linecap="round"/>
<path d="M17.1154 20.4339C18.6587 20.4339 19.9097 19.168 19.9097 17.6063C19.9097 16.0447 18.6587 14.7787 17.1154 14.7787C15.5722 14.7787 14.3211 16.0447 14.3211 17.6063C14.3211 19.168 15.5722 20.4339 17.1154 20.4339Z" stroke="black" stroke-width="2" stroke-linecap="round" stroke-linejoin="round"/>
<path d="M15.5257 20.6315H19.0717C19.787 20.6315 20.4731 20.9156 20.979 21.4215C21.4848 21.9273 21.769 22.6134 21.769 23.3288V26.4823C21.769 26.9317 21.4047 27.2959 20.9554 27.2959H13.642C13.1927 27.2959 12.8284 26.9317 12.8284 26.4823V23.3288C12.8284 22.6134 13.1126 21.9273 13.6184 21.4215C14.1243 20.9156 14.8104 20.6315 15.5257 20.6315Z" stroke="black" stroke-width="2" stroke-linecap="round" stroke-linejoin="round"/>
<path d="M17.1154 39.9431C18.6587 39.9431 19.9097 38.6771 19.9097 37.1155C19.9097 35.5538 18.6587 34.2878 17.1154 34.2878C15.5722 34.2878 14.3211 35.5538 14.3211 37.1155C14.3211 38.6771 15.5722 39.9431 17.1154 39.9431Z" stroke="black" stroke-width="2" stroke-linecap="round" stroke-linejoin="round"/>
<path d="M15.5257 40.1959H19.0717C19.787 40.1959 20.4731 40.4801 20.979 40.9859C21.4848 41.4918 21.769 42.1779 21.769 42.8932V46.0468C21.769 46.4961 21.4047 46.8604 20.9554 46.8604H13.642C13.1927 46.8604 12.8284 46.4961 12.8284 46.0468V42.8932C12.8284 42.1779 13.1126 41.4918 13.6184 40.9859C14.1243 40.4801 14.8104 40.1959 15.5257 40.1959Z" stroke="black" stroke-width="2" stroke-linecap="round" stroke-linejoin="round"/>
<path d="M39.1656 59.6837H8C6.89543 59.6837 6 58.7883 6 57.6837V7.99993C6 6.89537 6.89543 5.99993 8 5.99993H43.1445M43.1445 5.99993V13.2914C43.1445 14.3959 44.0399 15.2914 45.1445 15.2914H52.1492M43.1445 5.99993L52.1492 15.2914M52.1492 15.2914V39.6533" stroke="black" stroke-width="2.89655" stroke-linecap="round" stroke-linejoin="round"/>
<path d="M58.9041 60.3672C62.5672 56.7041 62.5672 50.7649 58.904 47.1018C55.2408 43.4386 49.3017 43.4385 45.6386 47.1017C41.9754 50.7648 41.9755 56.704 45.6386 60.3672C49.3018 64.0303 55.241 64.0304 58.9041 60.3672Z" stroke="black" stroke-width="3" stroke-linecap="round" stroke-linejoin="round"/>
<path d="M47.8497 53.7345H56.6933" stroke="black" stroke-width="3" stroke-linecap="round" stroke-linejoin="round"/>
<path d="M52.2712 49.313V58.1566" stroke="black" stroke-width="3" stroke-linecap="round" stroke-linejoin="round"/>
</svg>
