<svg width="72" height="72" viewBox="0 0 72 72" fill="none" xmlns="http://www.w3.org/2000/svg">
<path d="M6 61.5889V11.8537C6 10.8288 6.77475 9.96979 7.7942 9.86433L33.277 7.22819C34.4566 7.10615 35.4828 8.0316 35.4828 9.21757V63.7857C35.4828 64.958 34.479 65.879 33.311 65.7783L7.82822 63.5815C6.79407 63.4924 6 62.6269 6 61.5889Z" stroke="black" stroke-width="3" stroke-linejoin="round"/>
<path d="M35.4826 9.54138H44.8619C45.9665 9.54138 46.8619 10.4368 46.8619 11.5414L46.8619 16.5001M35.4826 64.4403H44.8619C45.9665 64.4403 46.8619 63.5449 46.8619 62.4403L46.8619 56.5001" stroke="black" stroke-width="3" stroke-linecap="round" stroke-linejoin="round"/>
<ellipse cx="27.724" cy="37.4995" rx="2.58621" ry="2.54162" stroke="black" stroke-width="3" stroke-linejoin="round"/>
<g clip-path="url(#clip0_59_89)">
<path d="M54.0606 29.5519C55.0435 30.4266 55.6555 31.6581 55.6555 33.0224C55.6555 35.6763 53.3397 37.8277 50.4831 37.8277C47.6264 37.8277 45.3106 35.6763 45.3106 33.0224C45.3106 31.6581 45.9226 30.4266 46.9055 29.5519" stroke="black" stroke-width="3" stroke-linejoin="round"/>
<path d="M47.2008 38.345H53.7654C55.0897 38.345 56.3599 38.8523 57.2963 39.7552C58.2328 40.6582 58.7589 41.8829 58.7589 43.1599V49.2415C58.7589 49.7938 58.3112 50.2415 57.7589 50.2415H43.2072C42.6549 50.2415 42.2072 49.7938 42.2072 49.2415V43.1599C42.2072 41.8829 42.7333 40.6582 43.6698 39.7552C44.6063 38.8523 45.8764 38.345 47.2008 38.345Z" stroke="black" stroke-width="3" stroke-linecap="round" stroke-linejoin="round"/>
<path d="M40.4178 24.647L50.5201 22.3805L60.5482 24.5873L50.5201 27.8055L40.4178 24.647Z" stroke="black" stroke-width="3" stroke-linejoin="round"/>
<path d="M46.0097 27.6092L46.0098 29.9712L50.7629 31.7734L54.9568 29.9711L54.9568 27.6092" stroke="black" stroke-width="2" stroke-linecap="round" stroke-linejoin="round"/>
<circle cx="58.7589" cy="33.1726" r="1.55172" stroke="black" stroke-width="2" stroke-linejoin="round"/>
<path d="M58.7589 31.6208V24.8967" stroke="black" stroke-width="2" stroke-linecap="round" stroke-linejoin="round"/>
</g>
<defs>
<clipPath id="clip0_59_89">
<rect width="31.0345" height="31.0345" fill="white" transform="translate(34.9658 20.7588)"/>
</clipPath>
</defs>
</svg>
