<svg width="72" height="72" viewBox="0 0 72 72" fill="none" xmlns="http://www.w3.org/2000/svg">
<g clip-path="url(#clip0_40_328)">
<path d="M43.5651 21.9689C45.6434 23.8185 46.9375 26.4226 46.9375 29.3076C46.9375 34.9195 42.0406 39.4689 36 39.4689C29.9594 39.4689 25.0625 34.9195 25.0625 29.3076C25.0625 26.4226 26.3566 23.8185 28.4349 21.9689" stroke="black" stroke-width="3"/>
<path d="M29.0593 40.5626H42.9407C45.7412 40.5626 48.427 41.6353 50.4072 43.5447C52.3875 45.4541 53.5 48.0438 53.5 50.7441V63.7189C53.5 64.8234 52.6046 65.7189 51.5 65.7189H20.5C19.3954 65.7189 18.5 64.8234 18.5 63.7189V50.7441C18.5 48.0438 19.6125 45.4541 21.5928 43.5447C23.573 41.6353 26.2588 40.5626 29.0593 40.5626Z" stroke="black" stroke-width="3" stroke-linecap="round" stroke-linejoin="round"/>
<path d="M14.7162 11.5969L36.0782 6.80428L57.2836 11.4708L36.0782 18.276L14.7162 11.5969Z" stroke="black" stroke-width="3" stroke-linejoin="round"/>
<path d="M26.5407 15.6733L26.541 20.6678L36.5917 24.4787L45.4599 20.6677L45.4599 15.6733" stroke="black" stroke-width="3" stroke-linecap="round" stroke-linejoin="round"/>
<circle cx="53.5" cy="29.6251" r="2.28125" stroke="black" stroke-width="2"/>
<path d="M53.5 26.3439V12.1251" stroke="black" stroke-width="2" stroke-linecap="round"/>
</g>
<defs>
<clipPath id="clip0_40_328">
<rect width="72" height="72" fill="white"/>
</clipPath>
</defs>
</svg>
