<svg width="72" height="72" viewBox="0 0 72 72" fill="none" xmlns="http://www.w3.org/2000/svg">
<path d="M42.8981 5.99997V13.4396C42.8981 14.5442 43.7935 15.4396 44.8981 15.4396H51.3583M42.8981 5.99997H10C8.89543 5.99997 8 6.8954 8 7.99997V58.5402C8 59.6447 8.89543 60.5402 10 60.5402H34.4407M42.8981 5.99997L51.3583 15.4396M51.3583 15.4396L51.3583 31.9323" stroke="black" stroke-width="3.05881" stroke-linecap="round" stroke-linejoin="round"/>
<path d="M15.1186 20.8475H44.58" stroke="black" stroke-width="3.05881" stroke-linecap="round"/>
<path d="M15.1186 27.9662H44.58" stroke="black" stroke-width="3.05881" stroke-linecap="round"/>
<path d="M15.1186 35.0848H32.4068" stroke="black" stroke-width="3.05881" stroke-linecap="round"/>
<path d="M15.1186 42.2035H32.4068" stroke="black" stroke-width="3.05881" stroke-linecap="round"/>
<path d="M15.1186 49.3221H32.4068" stroke="black" stroke-width="3.05881" stroke-linecap="round"/>
<g clip-path="url(#clip0_59_107)">
<path d="M52.899 43.9916C53.8491 44.8371 54.4407 46.0276 54.4407 47.3464C54.4407 49.9119 52.2021 51.9916 49.4407 51.9916C46.6793 51.9916 44.4407 49.9119 44.4407 47.3464C44.4407 46.0276 45.0323 44.8371 45.9824 43.9916" stroke="black" stroke-width="3"/>
<path d="M46.2678 52.4916H52.6136C53.8938 52.4916 55.1216 52.9819 56.0268 53.8548C56.9321 54.7277 57.4407 55.9115 57.4407 57.146V62.9916C57.4407 63.5439 56.993 63.9916 56.4407 63.9916H42.4407C41.8884 63.9916 41.4407 63.5439 41.4407 62.9916V57.146C41.4407 55.9115 41.9492 54.7277 42.8545 53.8548C43.7598 52.9819 44.9876 52.4916 46.2678 52.4916Z" stroke="black" stroke-width="3" stroke-linecap="round" stroke-linejoin="round"/>
<path d="M39.7109 39.2501L49.4764 37.0592L59.1703 39.1925L49.4764 42.3034L39.7109 39.2501Z" stroke="black" stroke-width="3" stroke-linejoin="round"/>
<path d="M45.1164 42.1137L45.1165 44.3969L49.7112 46.139L53.7653 44.3968L53.7653 42.1136" stroke="black" stroke-width="2" stroke-linecap="round" stroke-linejoin="round"/>
<circle cx="57.4407" cy="47.4916" r="1.5" stroke="black" stroke-width="2"/>
<path d="M57.4407 45.9916V39.4916" stroke="black" stroke-width="2" stroke-linecap="round"/>
</g>
<defs>
<clipPath id="clip0_59_107">
<rect width="30.5085" height="30.5085" fill="white" transform="translate(34.4407 35.4916)"/>
</clipPath>
</defs>
</svg>
