<svg width="72" height="72" viewBox="0 0 72 72" fill="none" xmlns="http://www.w3.org/2000/svg">
<g id="bill">
<g id="Group 120">
<g id="Vector">
<path d="M9.02639 4.24167C7.83855 4.55422 6.86329 5.11679 5.98804 5.9794C5.11281 6.86703 4.56266 7.82966 4.25006 9.06731C4.0125 9.97993 4 10.455 4 17.8935C4 25.5195 4.0125 25.7694 4.25006 26.2445C4.41261 26.5696 4.67518 26.8321 5.00027 26.9947C5.46291 27.2322 5.72547 27.2447 9.62655 27.2447H13.7526V46.8722C13.7526 66.3122 13.7526 66.5124 14.0027 66.9998C14.2779 67.55 15.003 68 15.6032 68C15.8032 68 17.0161 67.6124 18.304 67.1249L20.6296 66.2497L22.9552 67.1249C24.2432 67.6124 25.4435 68 25.631 68C25.8185 68 27.0188 67.6124 28.3067 67.1249L30.6323 66.2497L32.958 67.1249C34.2459 67.6124 35.4462 68 35.6337 68C35.8212 68 37.0215 67.6124 38.3095 67.1249L40.6351 66.2497L42.9607 67.1249C44.2486 67.6124 45.4489 68 45.6366 68C45.8241 68 47.0244 67.6124 48.3122 67.1249L50.6378 66.2497L52.9636 67.1249C54.2514 67.6124 55.4642 68 55.6642 68C56.2644 68 56.9897 67.55 57.2647 66.9998C57.5023 66.5373 57.5148 66.2748 57.5148 62.0617V57.6236L58.5775 57.1362C60.3281 56.3235 61.7034 55.3358 63.2164 53.8232C65.2669 51.7729 66.5922 49.5976 67.3424 47.0223C69.5932 39.2713 65.9172 31.1702 58.5775 27.7322L57.5148 27.2322V18.6311C57.5148 10.4675 57.5023 9.97993 57.2647 9.06731C56.9521 7.82966 56.4145 6.89202 55.5141 5.99191C54.614 5.09179 53.6762 4.55422 52.4383 4.24167C51.4881 3.99165 51.0255 3.99165 30.7073 4.00416C10.6269 4.00416 9.91413 4.01665 9.02639 4.24167ZM11.6771 7.89216C12.3648 8.09218 13.4025 9.12982 13.6027 9.81741C13.7152 10.1925 13.7526 12.1177 13.7526 16.9184V23.4942H10.7518H7.75103V16.9184C7.75103 12.1177 7.78855 10.1925 7.90108 9.81741C8.08863 9.17982 9.13892 8.10469 9.75159 7.90465C10.3517 7.71713 11.0645 7.71713 11.6771 7.89216ZM51.6882 7.89216C52.3759 8.09218 53.4137 9.12982 53.6137 9.81741C53.7262 10.205 53.7637 12.4178 53.7637 18.3435V26.3445L52.5385 26.282C47.2244 25.982 41.998 28.5199 38.7347 32.958L37.9844 33.9956H30.3572C22.9803 33.9956 22.7302 34.008 22.255 34.2456C21.6924 34.5331 21.2547 35.2458 21.2547 35.8708C21.2547 36.4958 21.6924 37.2085 22.255 37.496C22.7302 37.7336 22.9803 37.7461 29.5195 37.7461H36.2964L36.2214 38.0836C36.1713 38.2836 36.0588 38.8213 35.9588 39.3087C35.8463 39.7838 35.7588 40.3465 35.7588 40.5589C35.7588 40.7589 35.7212 41.059 35.6838 41.2091L35.6087 41.4965H29.1694C22.9803 41.4965 22.7302 41.509 22.255 41.7466C21.6924 42.0341 21.2547 42.7468 21.2547 43.3718C21.2547 43.9968 21.6924 44.7095 22.255 44.997C22.7302 45.2345 22.9803 45.247 29.2945 45.247H35.8588L36.1214 46.3096C36.359 47.2347 36.5715 47.8849 36.9467 48.7724C37.0342 48.985 36.6465 48.9975 29.8947 48.9975C22.9803 48.9975 22.7302 49.01 22.255 49.2476C21.6924 49.535 21.2547 50.2477 21.2547 50.8728C21.2547 51.4978 21.6924 52.2105 22.255 52.498C22.7302 52.7355 22.9803 52.748 30.6948 52.748C35.8463 52.748 38.7347 52.6979 38.8846 52.6231C39.0847 52.5104 39.2097 52.5855 39.6598 53.0855C41.6729 55.2859 44.0486 56.8861 46.5868 57.7362C48.5122 58.3737 49.625 58.5487 51.7882 58.5612H53.7637V60.9615C53.7637 62.2868 53.7388 63.3744 53.7137 63.3744C53.6887 63.3744 53.0761 63.1493 52.3383 62.8743C51.6132 62.5993 50.8505 62.3743 50.6503 62.3743C50.4628 62.3743 49.25 62.7619 47.9746 63.2493L45.649 64.1246L43.3233 63.2493C42.0479 62.7619 40.8476 62.3743 40.6476 62.3743C40.4601 62.3743 39.2473 62.7619 37.9719 63.2493L35.6462 64.1246L33.3206 63.2493C32.0452 62.7619 30.8449 62.3743 30.6449 62.3743C30.4572 62.3743 29.2444 62.7619 27.9691 63.2493L25.6435 64.1246L23.3179 63.2493C22.0425 62.7619 20.8422 62.3743 20.6421 62.3743C20.4545 62.3743 19.6918 62.5993 18.9541 62.8743C18.2289 63.1493 17.6038 63.3744 17.5662 63.3744C17.5288 63.3744 17.4912 51.2103 17.4787 36.3333L17.4413 9.30485L17.1661 8.61725C17.0037 8.2422 16.8785 7.89216 16.8785 7.82966C16.8785 7.77965 24.5932 7.74213 34.0207 7.74213C47.1244 7.74213 51.2881 7.77965 51.6882 7.89216ZM54.789 30.3575C57.0772 30.9451 58.9151 32.0079 60.5906 33.6705C61.8535 34.9457 62.8037 36.3709 63.3914 37.9086C64.0541 39.6088 64.1916 40.3839 64.1916 42.4342C64.1916 44.4844 64.0541 45.2595 63.3914 46.9597C62.2036 50.0476 59.4404 52.8106 56.3519 53.9982C54.689 54.6482 53.8638 54.7983 51.8882 54.7983C49.9002 54.8107 48.9625 54.6482 47.2745 53.9982C44.2111 52.8106 41.4478 50.0476 40.2599 46.9597C39.5974 45.2595 39.4598 44.4844 39.4598 42.4342C39.4598 40.3839 39.5974 39.6088 40.2599 37.9086C41.4478 34.8207 44.2111 32.0578 47.2745 30.8701C48.0871 30.5577 49.0374 30.3076 50.2628 30.0701C51.0004 29.9325 53.8513 30.1075 54.789 30.3575Z" fill="#0B2D1F"/>
<path d="M51.6882 7.89216C52.3759 8.09218 53.4137 9.12982 53.6137 9.81741C53.7262 10.205 53.7637 12.4178 53.7637 18.3435V26.3445L52.5385 26.282C47.2244 25.982 41.998 28.5199 38.7347 32.958L37.9844 33.9956H30.3572C22.9803 33.9956 22.7302 34.008 22.255 34.2456C21.6924 34.5331 21.2547 35.2458 21.2547 35.8708C21.2547 36.4958 21.6924 37.2085 22.255 37.496C22.7302 37.7336 22.9803 37.7461 29.5195 37.7461H36.2964L36.2214 38.0836C36.1713 38.2836 36.0588 38.8213 35.9588 39.3087C35.8463 39.7838 35.7588 40.3465 35.7588 40.5589C35.7588 40.7589 35.7212 41.059 35.6838 41.2091L35.6087 41.4965H29.1694C22.9803 41.4965 22.7302 41.509 22.255 41.7466C21.6924 42.0341 21.2547 42.7468 21.2547 43.3718C21.2547 43.9968 21.6924 44.7095 22.255 44.997C22.7302 45.2345 22.9803 45.247 29.2945 45.247H35.8588L36.1214 46.3096C36.359 47.2347 36.5715 47.8849 36.9467 48.7724C37.0342 48.985 36.6465 48.9975 29.8947 48.9975C22.9803 48.9975 22.7302 49.01 22.255 49.2476C21.6924 49.535 21.2547 50.2477 21.2547 50.8728C21.2547 51.4978 21.6924 52.2105 22.255 52.498C22.7302 52.7355 22.9803 52.748 30.6948 52.748C35.8463 52.748 38.7347 52.6979 38.8846 52.6231C39.0847 52.5104 39.2097 52.5855 39.6598 53.0855C41.6729 55.2859 44.0486 56.8861 46.5868 57.7362C48.5122 58.3737 49.625 58.5487 51.7882 58.5612H53.7637V60.9615C53.7637 62.2868 53.7388 63.3744 53.7137 63.3744C53.6887 63.3744 53.0761 63.1493 52.3383 62.8743C51.6132 62.5993 50.8505 62.3743 50.6503 62.3743C50.4628 62.3743 49.25 62.7619 47.9746 63.2493L45.649 64.1246L43.3233 63.2493C42.0479 62.7619 40.8476 62.3743 40.6476 62.3743C40.4601 62.3743 39.2473 62.7619 37.9719 63.2493L35.6462 64.1246L33.3206 63.2493C32.0452 62.7619 30.8449 62.3743 30.6449 62.3743C30.4572 62.3743 29.2444 62.7619 27.9691 63.2493L25.6435 64.1246L23.3179 63.2493C22.0425 62.7619 20.8422 62.3743 20.6421 62.3743C20.4545 62.3743 19.6918 62.5993 18.9541 62.8743C18.2289 63.1493 17.6038 63.3744 17.5662 63.3744C17.5288 63.3744 17.4912 51.2103 17.4787 36.3333L17.4413 9.30485L17.1661 8.61725C17.0037 8.2422 16.8785 7.89216 16.8785 7.82966C16.8785 7.77965 24.5932 7.74213 34.0207 7.74213C47.1244 7.74213 51.2881 7.77965 51.6882 7.89216Z" fill="#22885E"/>
</g>
<path id="Vector_2" d="M22.6134 18.8107C21.9781 19.0951 21.4609 19.8581 21.4609 20.4788C21.4609 21.1252 21.9781 21.8624 22.6429 22.1598C23.2043 22.4054 23.4998 22.4183 32.6155 22.4183C41.7313 22.4183 42.0268 22.4054 42.5883 22.1598C43.2531 21.8624 43.7702 21.1252 43.7702 20.4788C43.7702 19.8322 43.2531 19.0951 42.5883 18.7977C42.0268 18.552 41.746 18.5391 32.586 18.5391C23.4998 18.552 23.1453 18.565 22.6134 18.8107Z" fill="#0B2D1F"/>
<path id="Vector_3" d="M22.463 26.57C21.9105 26.8544 21.4609 27.6173 21.4609 28.2381C21.4609 28.8845 21.9105 29.6217 22.4888 29.9191C22.9769 30.1647 23.2339 30.1776 31.1606 30.1776C39.0873 30.1776 39.3443 30.1647 39.8324 29.9191C40.4107 29.6217 40.8603 28.8845 40.8603 28.2381C40.8603 27.5914 40.4107 26.8544 39.8324 26.557C39.3443 26.3113 39.1001 26.2983 31.1348 26.2983C23.2339 26.3113 22.9256 26.3243 22.463 26.57Z" fill="#0B2D1F"/>
<path id="Vector_4" d="M51.0128 33.3332C50.5127 33.5958 50.0125 34.2709 50.0125 34.6959C50.0125 34.9084 49.8624 35.0709 49.4624 35.3085C48.7371 35.7335 47.8119 36.7337 47.4743 37.4712C47.2493 37.9463 47.1992 38.2963 47.1992 39.309C47.1992 40.4091 47.2368 40.6467 47.5368 41.2717C48.0495 42.3844 48.7371 42.9595 50.6376 43.9221C51.5629 44.3972 52.4256 44.8597 52.5507 44.9722C52.6757 45.0848 52.7632 45.3348 52.7632 45.5722C52.7632 46.2473 52.4507 46.3724 50.7627 46.3724C49.1123 46.3724 48.6371 46.535 48.1619 47.2475C47.7619 47.8476 47.8119 48.9602 48.2746 49.4478C48.6621 49.8729 49.1623 50.1229 49.5999 50.1229C49.8875 50.1354 50 50.2229 50.2 50.648C50.3376 50.9354 50.6002 51.2855 50.7752 51.4106C51.2504 51.7606 52.1006 51.8107 52.6382 51.5355C53.1384 51.273 53.6386 50.5979 53.6386 50.1728C53.6386 49.9604 53.7885 49.7978 54.1886 49.5603C54.9139 49.1352 55.839 48.1351 56.1766 47.3976C56.4018 46.9224 56.4518 46.5724 56.4518 45.5598C56.4518 44.4596 56.4142 44.2222 56.1142 43.597C55.5891 42.4719 54.8888 41.8718 52.9883 40.9217C52.0755 40.4717 51.2253 40.009 51.1128 39.8966C50.9879 39.7966 50.8877 39.5341 50.8877 39.2965C50.8877 38.6214 51.2003 38.4963 52.8883 38.4963C54.5387 38.4963 55.0139 38.3338 55.489 37.6212C55.8891 37.0212 55.839 35.9085 55.3765 35.4209C54.9888 34.9959 54.4888 34.7458 54.051 34.7458C53.7635 34.7333 53.651 34.6458 53.4509 34.2208C53.3134 33.9333 53.0509 33.5833 52.8758 33.4582C52.4007 33.1081 51.5504 33.0582 51.0128 33.3332Z" fill="#0B2D1F"/>
</g>
</g>
</svg>
