<svg width="72" height="72" viewBox="0 0 72 72" fill="none" xmlns="http://www.w3.org/2000/svg">
<g id="gantt-chart">
<g id="Group 1171275623">
<g id="Group">
<g id="Vector">
<path d="M29.887 4.07675C27.9495 4.40174 25.9246 5.37672 24.5871 6.62668L23.6622 7.48916H19.9123C15.8249 7.48916 15.2624 7.55166 14.0874 8.13914C12.675 8.85162 11.4875 10.3891 11.15 11.964C10.95 12.9015 10.95 62.5751 11.15 63.5126C11.35 64.4376 11.925 65.5376 12.5875 66.2375C13.2374 66.925 14.5249 67.65 15.4874 67.85C16.4249 68.05 56.3488 68.05 57.2862 67.85C59.4112 67.4 61.1736 65.6251 61.6236 63.5126C61.8236 62.5626 61.8236 12.9015 61.6236 11.964C61.1736 9.85159 59.3862 8.06414 57.2862 7.62666C56.8862 7.53916 55.1363 7.48916 52.8614 7.48916H49.099L48.2615 6.68918C47.3115 5.8017 46.3615 5.18922 45.0866 4.68924C43.4491 4.02675 42.8991 3.98926 36.2868 4.00175C32.9369 4.01425 30.062 4.05175 29.887 4.07675ZM42.8741 7.92665C43.3116 8.03914 44.0241 8.30164 44.4366 8.51413C45.6865 9.17661 47.0865 10.7641 47.449 11.9515L47.524 12.239H36.3868H25.2496L25.3246 11.9515C25.5371 11.2891 26.1246 10.3766 26.8371 9.6516C27.662 8.81412 28.962 8.07664 30.0245 7.87665C30.3245 7.81415 33.1619 7.76415 36.3243 7.75165C41.0492 7.73915 42.2116 7.77665 42.8741 7.92665ZM21.4247 12.0765C21.3247 12.5515 21.2622 13.3765 21.2872 13.9515C21.3247 15.0515 21.5247 15.4139 22.2872 15.8139C22.7872 16.0764 49.9864 16.0764 50.4864 15.8139C51.2489 15.4139 51.4489 15.0515 51.4864 13.9515C51.5114 13.3765 51.4489 12.5515 51.3489 12.0765L51.1739 11.2391H53.8113C56.8362 11.2391 57.2362 11.3391 57.7362 12.2265L58.0112 12.714V37.7383V62.7626L57.7487 63.2376C57.5987 63.5001 57.2737 63.8251 57.0112 63.9751L56.5362 64.2376H36.3868H16.2374L15.7624 63.9751C15.4999 63.8251 15.1749 63.5001 15.0249 63.2376L14.7624 62.7626V37.7383V12.714L15.0374 12.2265C15.5374 11.3391 15.9249 11.2391 18.9623 11.2391H21.5997L21.4247 12.0765Z" fill="#4D0000"/>
<path d="M21.4247 12.0765C21.3247 12.5515 21.2622 13.3765 21.2872 13.9515C21.3247 15.0515 21.5247 15.4139 22.2872 15.8139C22.7872 16.0764 49.9864 16.0764 50.4864 15.8139C51.2489 15.4139 51.4489 15.0515 51.4864 13.9515C51.5114 13.3765 51.4489 12.5515 51.3489 12.0765L51.1739 11.2391H53.8113C56.8362 11.2391 57.2362 11.3391 57.7362 12.2265L58.0112 12.714V37.7383V62.7626L57.7487 63.2376C57.5987 63.5001 57.2737 63.8251 57.0112 63.9751L56.5362 64.2376H36.3868H16.2374L15.7624 63.9751C15.4999 63.8251 15.1749 63.5001 15.0249 63.2376L14.7624 62.7626V37.7383V12.714L15.0374 12.2265C15.5374 11.3391 15.9249 11.2391 18.9623 11.2391H21.5997L21.4247 12.0765Z" fill="#BE1A2E"/>
</g>
</g>
</g>
<path id="Vector_2" d="M25.6 33.75C25.1624 33.75 24.7427 33.9278 24.4333 34.2443C24.1238 34.5607 23.95 34.9899 23.95 35.4375C23.95 35.8851 24.1238 36.3143 24.4333 36.6307C24.7427 36.9472 25.1624 37.125 25.6 37.125H32.2C32.6376 37.125 33.0573 36.9472 33.3667 36.6307C33.6762 36.3143 33.85 35.8851 33.85 35.4375C33.85 34.9899 33.6762 34.5607 33.3667 34.2443C33.0573 33.9278 32.6376 33.75 32.2 33.75H25.6ZM33.85 40.5C33.85 40.0524 34.0238 39.6232 34.3333 39.3068C34.6427 38.9903 35.0624 38.8125 35.5 38.8125H42.1C42.5376 38.8125 42.9573 38.9903 43.2667 39.3068C43.5762 39.6232 43.75 40.0524 43.75 40.5C43.75 40.9476 43.5762 41.3768 43.2667 41.6932C42.9573 42.0097 42.5376 42.1875 42.1 42.1875H35.5C35.0624 42.1875 34.6427 42.0097 34.3333 41.6932C34.0238 41.3768 33.85 40.9476 33.85 40.5ZM40.45 43.875C40.0124 43.875 39.5927 44.0528 39.2833 44.3693C38.9738 44.6857 38.8 45.1149 38.8 45.5625C38.8 46.0101 38.9738 46.4393 39.2833 46.7557C39.5927 47.0722 40.0124 47.25 40.45 47.25H45.4C45.8376 47.25 46.2573 47.0722 46.5667 46.7557C46.8762 46.4393 47.05 46.0101 47.05 45.5625C47.05 45.1149 46.8762 44.6857 46.5667 44.3693C46.2573 44.0528 45.8376 43.875 45.4 43.875H40.45ZM24.3625 27C22.9403 27 21.5763 27.5778 20.5706 28.6063C19.565 29.6349 19 31.0298 19 32.4844V48.5156C19 49.9702 19.565 51.3651 20.5706 52.3937C21.5763 53.4222 22.9403 54 24.3625 54H46.6375C47.3417 54 48.039 53.8581 48.6896 53.5825C49.3402 53.3069 49.9314 52.9029 50.4294 52.3937C50.9273 51.8844 51.3223 51.2798 51.5918 50.6144C51.8613 49.949 52 49.2358 52 48.5156V32.4844C52 31.7642 51.8613 31.051 51.5918 30.3856C51.3223 29.7202 50.9273 29.1156 50.4294 28.6063C49.9314 28.0971 49.3402 27.6931 48.6896 27.4175C48.039 27.1419 47.3417 27 46.6375 27H24.3625ZM28.9 29.5312V32.0625H31.375V29.5312H39.625V37.125H42.1V29.5312H46.6375C48.2314 29.5312 49.525 30.8542 49.525 32.4844V48.5156C49.525 49.2988 49.2208 50.05 48.6793 50.6038C48.1378 51.1576 47.4033 51.4688 46.6375 51.4688H42.1V48.9375H40.45C40.1645 48.9375 39.889 48.9004 39.625 48.8312V51.4688H31.375V38.8125H28.9V51.4688H24.3625C23.5967 51.4688 22.8622 51.1576 22.3207 50.6038C21.7792 50.05 21.475 49.2988 21.475 48.5156V32.4844C21.475 30.8542 22.7686 29.5312 24.3625 29.5312H28.9Z" fill="#4D0000" stroke="#4D0000" stroke-width="0.3"/>
</g>
</svg>
