<svg width="72" height="72" viewBox="0 0 72 72" fill="none" xmlns="http://www.w3.org/2000/svg">
<g id="group-of-product">
<g id="Group 1171275546">
<g id="products">
<g id="Group 159054">
<path id="Rectangle 34624447" d="M32.8712 38.6206H5.92383V43.7534H32.8712V38.6206Z" fill="#68D4F4"/>
<path id="Rectangle 47 (Stroke)" fill-rule="evenodd" clip-rule="evenodd" d="M6.73751 38.9628C6.35954 38.9628 6.05314 39.2692 6.05314 39.6472V42.7269C6.05314 43.1048 6.35954 43.4112 6.73751 43.4112H32.0595C32.4375 43.4112 32.7439 43.1048 32.7439 42.7269V39.6472C32.7439 39.2692 32.4375 38.9628 32.0595 38.9628H6.73751ZM4 39.6472C4 38.1353 5.22562 36.9097 6.73751 36.9097H32.0595C33.5714 36.9097 34.797 38.1353 34.797 39.6472V42.7269C34.797 44.2388 33.5714 45.4644 32.0595 45.4644H6.73751C5.22562 45.4644 4 44.2388 4 42.7269V39.6472Z" fill="#0D313B"/>
<path id="Rectangle 48" d="M23.0128 48.8862H15.7841C15.6542 48.8862 15.5488 48.9916 15.5488 49.1215V52.0729C15.5488 52.2028 15.6542 52.3081 15.7841 52.3081H23.0128C23.1427 52.3081 23.2481 52.2028 23.2481 52.0729V49.1215C23.2481 48.9916 23.1427 48.8862 23.0128 48.8862Z" fill="#0D313B"/>
<g id="Rectangle 46">
<path id="Vector (Stroke)" fill-rule="evenodd" clip-rule="evenodd" d="M7.97863 45.8066V60.5207H30.8197V45.8066H7.97863ZM5.76953 45.8066C5.76953 43.9167 6.08878 43.2594 7.97863 43.2594L19.0771 43.2593H30.8197C33.0495 43.2594 33.0493 43.2593 33.0493 45.9207L33.0496 53.2398L33.0495 60.5207C33.0495 62.5551 33.0495 62.5551 30.8197 62.5551H19.7422H7.97845C5.76953 62.5551 5.76953 62.5931 5.76953 60.5588V53.2398V45.8066Z" fill="#0D313B"/>
</g>
</g>
</g>
<g id="products_2">
<g id="Group 159054_2">
<path id="Rectangle 34624447_2" d="M66.0743 38.6206H39.127V43.7534H66.0743V38.6206Z" fill="#68D4F4"/>
<path id="Rectangle 47 (Stroke)_2" fill-rule="evenodd" clip-rule="evenodd" d="M39.9406 38.9628C39.5627 38.9628 39.2563 39.2692 39.2563 39.6472V42.7269C39.2563 43.1048 39.5627 43.4112 39.9406 43.4112H65.2626C65.6406 43.4112 65.947 43.1048 65.947 42.7269V39.6472C65.947 39.2692 65.6406 38.9628 65.2626 38.9628H39.9406ZM37.2031 39.6472C37.2031 38.1353 38.4287 36.9097 39.9406 36.9097H65.2626C66.7745 36.9097 68.0001 38.1353 68.0001 39.6472V42.7269C68.0001 44.2388 66.7745 45.4644 65.2626 45.4644H39.9406C38.4287 45.4644 37.2031 44.2388 37.2031 42.7269V39.6472Z" fill="#0D313B"/>
<path id="Rectangle 48_2" d="M56.2159 48.8862H48.9872C48.8573 48.8862 48.752 48.9916 48.752 49.1215V52.0729C48.752 52.2028 48.8573 52.3081 48.9872 52.3081H56.2159C56.3459 52.3081 56.4512 52.2028 56.4512 52.0729V49.1215C56.4512 48.9916 56.3459 48.8862 56.2159 48.8862Z" fill="#0D313B"/>
<g id="Rectangle 46_2">
<path id="Vector (Stroke)_2" fill-rule="evenodd" clip-rule="evenodd" d="M41.1818 45.8066V60.5207H64.0229V45.8066H41.1818ZM38.9727 45.8066C38.9727 43.9167 39.2919 43.2594 41.1818 43.2594L52.2802 43.2593H64.0229C66.2527 43.2594 66.2524 43.2593 66.2524 45.9207L66.2527 53.2398L66.2527 60.5207C66.2527 62.5551 66.2527 62.5551 64.0229 62.5551H52.9453H41.1816C38.9727 62.5551 38.9727 62.5931 38.9727 60.5588V53.2398V45.8066Z" fill="#0D313B"/>
</g>
</g>
</g>
<g id="products_3">
<g id="Group 159054_3">
<path id="Rectangle 34624447_3" d="M48.2696 10.7109H21.3223V15.8438H48.2696V10.7109Z" fill="#68D4F4"/>
<path id="Rectangle 47 (Stroke)_3" fill-rule="evenodd" clip-rule="evenodd" d="M22.1359 11.0531C21.758 11.0531 21.4516 11.3595 21.4516 11.7375V14.8172C21.4516 15.1952 21.758 15.5016 22.1359 15.5016H47.4579C47.8359 15.5016 48.1423 15.1952 48.1423 14.8172V11.7375C48.1423 11.3595 47.8359 11.0531 47.4579 11.0531H22.1359ZM19.3984 11.7375C19.3984 10.2256 20.6241 9 22.1359 9H47.4579C48.9698 9 50.1954 10.2256 50.1954 11.7375V14.8172C50.1954 16.3291 48.9698 17.5547 47.4579 17.5547H22.1359C20.6241 17.5547 19.3984 16.3291 19.3984 14.8172V11.7375Z" fill="#0D313B"/>
<path id="Rectangle 48_3" d="M38.4113 20.9763H31.1825C31.0526 20.9763 30.9473 21.0816 30.9473 21.2116V24.163C30.9473 24.2929 31.0526 24.3982 31.1825 24.3982H38.4113C38.5412 24.3982 38.6465 24.2929 38.6465 24.163V21.2116C38.6465 21.0816 38.5412 20.9763 38.4113 20.9763Z" fill="#0D313B"/>
<g id="Rectangle 46_3">
<path id="Vector (Stroke)_3" fill-rule="evenodd" clip-rule="evenodd" d="M23.3771 17.8967V32.6108H46.2182V17.8967H23.3771ZM21.168 17.8967C21.168 16.0068 21.4872 15.3495 23.3771 15.3495L34.4755 15.3494H46.2182C48.448 15.3495 48.4477 15.3494 48.4477 18.0108L48.448 25.3299L48.448 32.6108C48.448 34.6452 48.448 34.6452 46.2182 34.6452H35.1406H23.3769C21.168 34.6452 21.168 34.6832 21.168 32.6489V25.3299V17.8967Z" fill="#0D313B"/>
</g>
</g>
</g>
</g>
</g>
</svg>
