<svg width="72" height="72" viewBox="0 0 72 72" fill="none" xmlns="http://www.w3.org/2000/svg">
<g id="material-request">
<g id="Group 159087">
<rect id="Rectangle 43" width="6.3225" height="16.637" transform="matrix(0.999989 -0.00476036 0.00521863 0.999986 6.39258 41.0649)" fill="#22885E"/>
</g>
<g id="Group 1171275164">
<g id="Group">
<g id="Vector">
<mask id="path-2-outside-1_6485_47322" maskUnits="userSpaceOnUse" x="3" y="37.6255" width="66" height="26" fill="black">
<rect fill="white" x="3" y="37.6255" width="66" height="26"/>
<path d="M66.879 40.5278C65.4422 39.0034 63.1486 38.8513 61.5358 40.1707L52.0767 47.482C52.0817 47.3923 52.0817 47.3026 52.0817 47.213C52.0432 45.0321 50.2526 43.2595 48.0882 43.2595H37.5863C36.9811 43.2595 36.4094 42.9248 36.059 42.366C35.9818 42.2443 35.8779 42.145 35.7622 42.057C31.4619 38.816 25.6845 38.3917 20.737 40.4925L18.9079 41.2691H15.2346V39.6663C15.2346 39.0915 14.745 38.6255 14.1431 38.6255H5.09143C4.48788 38.6255 4 39.0915 4 39.6663V58.9357C4 59.5105 4.48788 59.9765 5.09143 59.9765H14.1431C14.745 59.9765 15.2329 59.5105 15.2329 58.9357V57.2816H18.9699L31.9011 61.2046C34.8334 62.2406 37.2912 62.7594 39.7491 62.7594C41.7207 62.7594 43.6906 62.4264 45.9053 61.7603C46.1082 61.6994 46.3144 61.6354 46.5223 61.5681C46.9699 61.4032 47.4058 61.2078 47.8267 60.9837C48.172 60.7995 48.5006 60.5849 48.8074 60.3448L66.8739 46.2586C66.9343 46.2122 66.9879 46.1609 67.0366 46.1033C68.3795 44.4972 68.3107 42.0489 66.879 40.5278ZM13.0534 57.8933H6.18119V40.7087H13.0534V57.8933ZM65.3969 44.723L48.5459 57.8612C47.0739 59.0077 45.3487 59.8228 43.4995 60.2359C39.8362 61.0541 36.8168 60.7242 32.6338 59.2431C32.617 59.2367 32.6002 59.2319 32.5852 59.2271L19.4695 55.248C19.3622 55.2144 19.2516 55.1984 19.1392 55.1984H15.2346V43.354H19.1392C19.2918 43.354 19.4427 43.3219 19.5818 43.2627L21.6222 42.3964C25.7901 40.6254 30.523 41.0898 34.3187 43.6342C35.0799 44.7086 36.2853 45.3427 37.5863 45.3427H48.0882C49.069 45.3427 49.8821 46.1978 49.9006 47.2482C49.9106 47.8278 49.6927 48.3787 49.3004 48.7582C49.1075 48.9455 48.8829 49.0816 48.6431 49.1569C48.333 49.2049 48.0178 49.2289 47.6992 49.2289H36.0187C35.4185 49.2289 34.9206 49.6853 34.9122 50.2569C34.9038 50.8382 35.3951 51.3121 36.002 51.3121H48.1804C48.509 51.3121 48.8309 51.2705 49.1411 51.1904C50.5008 50.9551 51.785 50.3882 52.9116 49.5171L62.919 41.7815C62.9204 41.7804 62.9218 41.7792 62.9232 41.7781C62.9314 41.7716 62.9386 41.766 62.9458 41.7591C63.6499 41.1779 64.6223 41.2467 65.2577 41.9224C65.9602 42.6686 66.0155 43.9032 65.3969 44.723Z"/>
<path d="M65.3969 44.723L48.5459 57.8612C47.0739 59.0077 45.3487 59.8228 43.4995 60.2359C39.8362 61.0541 36.8168 60.7242 32.6338 59.2431C32.617 59.2367 32.6002 59.2319 32.5852 59.2271L19.4695 55.248C19.3622 55.2144 19.2516 55.1984 19.1392 55.1984H15.2346V43.354H19.1392C19.2918 43.354 19.4427 43.3219 19.5818 43.2627L21.6222 42.3964C25.7901 40.6254 30.523 41.0898 34.3187 43.6342C35.0799 44.7086 36.2853 45.3427 37.5863 45.3427H48.0882C49.069 45.3427 49.8821 46.1978 49.9006 47.2482C49.9106 47.8278 49.6927 48.3787 49.3004 48.7582C49.1075 48.9455 48.8829 49.0816 48.6431 49.1569C48.333 49.2049 48.0178 49.2289 47.6992 49.2289H36.0187C35.4185 49.2289 34.9206 49.6853 34.9122 50.2569C34.9038 50.8382 35.3951 51.3121 36.002 51.3121H48.1804C48.509 51.3121 48.8309 51.2705 49.1411 51.1904C50.5008 50.9551 51.785 50.3882 52.9116 49.5171L62.919 41.7815L62.9232 41.7781C62.9314 41.7716 62.9386 41.766 62.9458 41.7591C63.6499 41.1779 64.6223 41.2467 65.2577 41.9224C65.9602 42.6686 66.0155 43.9032 65.3969 44.723Z"/>
</mask>
<path d="M66.879 40.5278C65.4422 39.0034 63.1486 38.8513 61.5358 40.1707L52.0767 47.482C52.0817 47.3923 52.0817 47.3026 52.0817 47.213C52.0432 45.0321 50.2526 43.2595 48.0882 43.2595H37.5863C36.9811 43.2595 36.4094 42.9248 36.059 42.366C35.9818 42.2443 35.8779 42.145 35.7622 42.057C31.4619 38.816 25.6845 38.3917 20.737 40.4925L18.9079 41.2691H15.2346V39.6663C15.2346 39.0915 14.745 38.6255 14.1431 38.6255H5.09143C4.48788 38.6255 4 39.0915 4 39.6663V58.9357C4 59.5105 4.48788 59.9765 5.09143 59.9765H14.1431C14.745 59.9765 15.2329 59.5105 15.2329 58.9357V57.2816H18.9699L31.9011 61.2046C34.8334 62.2406 37.2912 62.7594 39.7491 62.7594C41.7207 62.7594 43.6906 62.4264 45.9053 61.7603C46.1082 61.6994 46.3144 61.6354 46.5223 61.5681C46.9699 61.4032 47.4058 61.2078 47.8267 60.9837C48.172 60.7995 48.5006 60.5849 48.8074 60.3448L66.8739 46.2586C66.9343 46.2122 66.9879 46.1609 67.0366 46.1033C68.3795 44.4972 68.3107 42.0489 66.879 40.5278ZM13.0534 57.8933H6.18119V40.7087H13.0534V57.8933ZM65.3969 44.723L48.5459 57.8612C47.0739 59.0077 45.3487 59.8228 43.4995 60.2359C39.8362 61.0541 36.8168 60.7242 32.6338 59.2431C32.617 59.2367 32.6002 59.2319 32.5852 59.2271L19.4695 55.248C19.3622 55.2144 19.2516 55.1984 19.1392 55.1984H15.2346V43.354H19.1392C19.2918 43.354 19.4427 43.3219 19.5818 43.2627L21.6222 42.3964C25.7901 40.6254 30.523 41.0898 34.3187 43.6342C35.0799 44.7086 36.2853 45.3427 37.5863 45.3427H48.0882C49.069 45.3427 49.8821 46.1978 49.9006 47.2482C49.9106 47.8278 49.6927 48.3787 49.3004 48.7582C49.1075 48.9455 48.8829 49.0816 48.6431 49.1569C48.333 49.2049 48.0178 49.2289 47.6992 49.2289H36.0187C35.4185 49.2289 34.9206 49.6853 34.9122 50.2569C34.9038 50.8382 35.3951 51.3121 36.002 51.3121H48.1804C48.509 51.3121 48.8309 51.2705 49.1411 51.1904C50.5008 50.9551 51.785 50.3882 52.9116 49.5171L62.919 41.7815C62.9204 41.7804 62.9218 41.7792 62.9232 41.7781C62.9314 41.7716 62.9386 41.766 62.9458 41.7591C63.6499 41.1779 64.6223 41.2467 65.2577 41.9224C65.9602 42.6686 66.0155 43.9032 65.3969 44.723Z" fill="#0B2D1F"/>
<path d="M65.3969 44.723L48.5459 57.8612C47.0739 59.0077 45.3487 59.8228 43.4995 60.2359C39.8362 61.0541 36.8168 60.7242 32.6338 59.2431C32.617 59.2367 32.6002 59.2319 32.5852 59.2271L19.4695 55.248C19.3622 55.2144 19.2516 55.1984 19.1392 55.1984H15.2346V43.354H19.1392C19.2918 43.354 19.4427 43.3219 19.5818 43.2627L21.6222 42.3964C25.7901 40.6254 30.523 41.0898 34.3187 43.6342C35.0799 44.7086 36.2853 45.3427 37.5863 45.3427H48.0882C49.069 45.3427 49.8821 46.1978 49.9006 47.2482C49.9106 47.8278 49.6927 48.3787 49.3004 48.7582C49.1075 48.9455 48.8829 49.0816 48.6431 49.1569C48.333 49.2049 48.0178 49.2289 47.6992 49.2289H36.0187C35.4185 49.2289 34.9206 49.6853 34.9122 50.2569C34.9038 50.8382 35.3951 51.3121 36.002 51.3121H48.1804C48.509 51.3121 48.8309 51.2705 49.1411 51.1904C50.5008 50.9551 51.785 50.3882 52.9116 49.5171L62.919 41.7815L62.9232 41.7781C62.9314 41.7716 62.9386 41.766 62.9458 41.7591C63.6499 41.1779 64.6223 41.2467 65.2577 41.9224C65.9602 42.6686 66.0155 43.9032 65.3969 44.723Z" fill="#62C89E"/>
<path d="M65.3969 44.723L65.4786 44.8279L65.4925 44.8171L65.503 44.8031L65.3969 44.723ZM48.5459 57.8612L48.6276 57.9661L48.6276 57.9661L48.5459 57.8612ZM43.4995 60.2359L43.5285 60.3656H43.5285L43.4995 60.2359ZM32.6338 59.2431L32.5863 59.3673L32.5894 59.3684L32.6338 59.2431ZM32.5852 59.2271L32.6255 59.1004L32.6238 59.0999L32.5852 59.2271ZM19.4695 55.248L19.4298 55.3749L19.4309 55.3752L19.4695 55.248ZM15.2346 55.1984H15.1016V55.3313H15.2346V55.1984ZM15.2346 43.354V43.221H15.1016V43.354H15.2346ZM19.5818 43.2627L19.5299 43.1403L19.5298 43.1404L19.5818 43.2627ZM21.6222 42.3964L21.6742 42.5188L21.6742 42.5188L21.6222 42.3964ZM34.3187 43.6342L34.4272 43.5573L34.4131 43.5374L34.3927 43.5237L34.3187 43.6342ZM49.9006 47.2482L50.0335 47.2459V47.2459L49.9006 47.2482ZM49.3004 48.7582L49.2079 48.6626L49.2077 48.6628L49.3004 48.7582ZM48.6431 49.1569L48.6635 49.2882L48.6734 49.2867L48.683 49.2837L48.6431 49.1569ZM34.9122 50.2569L34.7793 50.255V50.255L34.9122 50.2569ZM49.1411 51.1904L49.1183 51.059L49.1078 51.0617L49.1411 51.1904ZM52.9116 49.5171L52.8303 49.412L52.8303 49.412L52.9116 49.5171ZM62.9458 41.7591L62.8609 41.6563L62.854 41.663L62.9458 41.7591ZM65.2577 41.9224L65.1609 42.0135L65.1609 42.0136L65.2577 41.9224ZM65.3152 44.6182L48.4642 57.7564L48.6276 57.9661L65.4786 44.8279L65.3152 44.6182ZM48.4642 57.7563C47.0078 58.8907 45.3006 59.6973 43.4705 60.1061L43.5285 60.3656C45.3968 59.9482 47.14 59.1247 48.6276 57.9661L48.4642 57.7563ZM43.4705 60.1061C39.8375 60.9176 36.844 60.5929 32.6782 59.1178L32.5894 59.3684C36.7895 60.8556 39.835 61.1906 43.5285 60.3656L43.4705 60.1061ZM32.6812 59.1189C32.6598 59.1107 32.6358 59.1037 32.6255 59.1004L32.5448 59.3538C32.5647 59.3601 32.5743 59.3627 32.5863 59.3673L32.6812 59.1189ZM32.6238 59.0999L19.5081 55.1208L19.4309 55.3752L32.5466 59.3543L32.6238 59.0999ZM19.5093 55.1211C19.3884 55.0833 19.2643 55.0654 19.1392 55.0654V55.3313C19.2388 55.3313 19.336 55.3455 19.4298 55.3749L19.5093 55.1211ZM19.1392 55.0654H15.2346V55.3313H19.1392V55.0654ZM15.3675 55.1984V43.354H15.1016V55.1984H15.3675ZM15.2346 43.4869H19.1392V43.221H15.2346V43.4869ZM19.1392 43.4869C19.3103 43.4869 19.4789 43.451 19.6339 43.385L19.5298 43.1404C19.4065 43.1929 19.2733 43.221 19.1392 43.221V43.4869ZM19.6338 43.3851L21.6742 42.5188L21.5702 42.274L19.5299 43.1403L19.6338 43.3851ZM21.6742 42.5188C25.8002 40.7656 30.4858 41.2249 34.2447 43.7446L34.3927 43.5237C30.5602 40.9547 25.78 40.4853 21.5702 42.2741L21.6742 42.5188ZM34.2102 43.711C34.9957 44.8198 36.2411 45.4757 37.5863 45.4757V45.2098C36.3295 45.2098 35.164 44.5974 34.4272 43.5573L34.2102 43.711ZM37.5863 45.4757H48.0882V45.2098H37.5863V45.4757ZM48.0882 45.4757C48.9882 45.4757 49.7503 46.2641 49.7676 47.2505L50.0335 47.2459C50.0139 46.1315 49.1498 45.2098 48.0882 45.2098V45.4757ZM49.7676 47.2505C49.7771 47.7961 49.5718 48.3106 49.2079 48.6626L49.3928 48.8537C49.8135 48.4467 50.0441 47.8595 50.0335 47.2459L49.7676 47.2505ZM49.2077 48.6628C49.0288 48.8366 48.8219 48.9614 48.6033 49.03L48.683 49.2837C48.9438 49.2018 49.1863 49.0544 49.393 48.8535L49.2077 48.6628ZM48.6228 49.0255C48.3195 49.0725 48.0111 49.096 47.6992 49.096V49.3619C48.0245 49.3619 48.3465 49.3373 48.6635 49.2882L48.6228 49.0255ZM47.6992 49.096H36.0187V49.3619H47.6992V49.096ZM36.0187 49.096C35.3538 49.096 34.7888 49.603 34.7793 50.255L35.0451 50.2589C35.0523 49.7676 35.4832 49.3619 36.0187 49.3619V49.096ZM34.7793 50.255C34.7697 50.9164 35.327 51.4451 36.002 51.4451V51.1792C35.4631 51.1792 35.0379 50.76 35.0451 50.2588L34.7793 50.255ZM36.002 51.4451H48.1804V51.1792H36.002V51.4451ZM48.1804 51.4451C48.5203 51.4451 48.8534 51.402 49.1743 51.3192L49.1078 51.0617C48.8085 51.139 48.4977 51.1792 48.1804 51.1792V51.4451ZM49.1638 51.3214C50.5452 51.0823 51.8495 50.5064 52.993 49.6223L52.8303 49.412C51.7205 50.2701 50.4563 50.8278 49.1184 51.0594L49.1638 51.3214ZM52.9929 49.6223L63.0003 41.8867L62.8377 41.6764L52.8303 49.412L52.9929 49.6223ZM63.0304 41.8617C63.6791 41.3262 64.5722 41.3875 65.1609 42.0135L65.3546 41.8314C64.6724 41.1059 63.6208 41.0296 62.8611 41.6566L63.0304 41.8617ZM65.1609 42.0136C65.818 42.7115 65.8713 43.8737 65.2908 44.6429L65.503 44.8031C66.1598 43.9327 66.1024 42.6257 65.3545 41.8313L65.1609 42.0136ZM63.0058 41.8824C63.0133 41.8764 63.0253 41.867 63.0376 41.8553L62.854 41.663C62.852 41.6649 62.8496 41.6669 62.8407 41.6739L63.0058 41.8824ZM66.879 40.5278L67.0726 40.3455L67.0725 40.3454L66.879 40.5278ZM61.5358 40.1707L61.6985 40.3811L61.7042 40.3765L61.5358 40.1707ZM52.0767 47.482L51.8112 47.4671L51.7786 48.0484L52.2393 47.6923L52.0767 47.482ZM52.0817 47.213H52.3477L52.3476 47.2083L52.0817 47.213ZM36.059 42.366L36.2842 42.2247L36.2836 42.2237L36.059 42.366ZM35.7622 42.057L35.9233 41.8454L35.9222 41.8446L35.7622 42.057ZM20.737 40.4925L20.8409 40.7373L20.8409 40.7373L20.737 40.4925ZM18.9079 41.2691V41.535H18.962L19.0118 41.5139L18.9079 41.2691ZM15.2346 41.2691H14.9687V41.535H15.2346V41.2691ZM15.2329 57.2816V57.0157H14.967V57.2816H15.2329ZM18.9699 57.2816L19.0471 57.0271L19.0094 57.0157H18.9699V57.2816ZM31.9011 61.2046L31.9898 60.9537L31.9783 60.9502L31.9011 61.2046ZM45.9053 61.7603L45.8289 61.5056L45.8288 61.5056L45.9053 61.7603ZM46.5223 61.5681L46.6042 61.8213L46.6142 61.8176L46.5223 61.5681ZM47.8267 60.9837L47.9517 61.2183L47.9518 61.2183L47.8267 60.9837ZM48.8074 60.3448L48.644 60.1351L48.6435 60.1354L48.8074 60.3448ZM66.8739 46.2586L66.7118 46.0479L66.7104 46.0489L66.8739 46.2586ZM67.0366 46.1033L67.2398 46.2747L67.2405 46.2739L67.0366 46.1033ZM13.0534 57.8933V58.1591H13.3193V57.8933H13.0534ZM6.18119 57.8933H5.9153V58.1591H6.18119V57.8933ZM6.18119 40.7087V40.4428H5.9153V40.7087H6.18119ZM13.0534 40.7087H13.3193V40.4428H13.0534V40.7087ZM62.919 41.7815L62.7534 41.5735L63.0842 41.9898L62.919 41.7815ZM62.9232 41.7781L63.0885 41.9864L62.7582 41.5697L62.9232 41.7781ZM67.0725 40.3454C65.5405 38.7201 63.0891 38.5565 61.3674 39.9649L61.7042 40.3765C63.2082 39.1461 65.3438 39.2867 66.6855 40.7101L67.0725 40.3454ZM61.3732 39.9603L51.9141 47.2716L52.2393 47.6923L61.6984 40.3811L61.3732 39.9603ZM52.3422 47.4969C52.3477 47.3985 52.3476 47.3014 52.3476 47.213H51.8159C51.8159 47.3039 51.8158 47.3861 51.8112 47.4671L52.3422 47.4969ZM52.3476 47.2083C52.3065 44.8843 50.3995 42.9936 48.0882 42.9936V43.5254C50.1057 43.5254 51.7799 45.1799 51.8159 47.2177L52.3476 47.2083ZM48.0882 42.9936H37.5863V43.5254H48.0882V42.9936ZM37.5863 42.9936C37.0821 42.9936 36.5913 42.7144 36.2842 42.2247L35.8337 42.5072C36.2274 43.1352 36.88 43.5254 37.5863 43.5254V42.9936ZM36.2836 42.2237C36.1837 42.0661 36.0536 41.9446 35.9233 41.8454L35.6012 42.2685C35.7022 42.3455 35.78 42.4225 35.8344 42.5083L36.2836 42.2237ZM35.9222 41.8446C31.5375 38.5401 25.6577 38.1142 20.6331 40.2478L20.8409 40.7373C25.7113 38.6692 31.3863 39.092 35.6022 42.2693L35.9222 41.8446ZM20.6331 40.2478L18.804 41.0244L19.0118 41.5139L20.8409 40.7373L20.6331 40.2478ZM18.9079 41.0032H15.2346V41.535H18.9079V41.0032ZM15.5004 41.2691V39.6663H14.9687V41.2691H15.5004ZM15.5004 39.6663C15.5004 38.9327 14.8797 38.3596 14.1431 38.3596V38.8914C14.6103 38.8914 14.9687 39.2502 14.9687 39.6663H15.5004ZM14.1431 38.3596H5.09143V38.8914H14.1431V38.3596ZM5.09143 38.3596C4.35295 38.3596 3.73411 38.933 3.73411 39.6663H4.26589C4.26589 39.2499 4.6228 38.8914 5.09143 38.8914V38.3596ZM3.73411 39.6663V58.9357H4.26589V39.6663H3.73411ZM3.73411 58.9357C3.73411 59.669 4.35295 60.2424 5.09143 60.2424V59.7106C4.6228 59.7106 4.26589 59.352 4.26589 58.9357H3.73411ZM5.09143 60.2424H14.1431V59.7106H5.09143V60.2424ZM14.1431 60.2424C14.8802 60.2424 15.4988 59.6687 15.4988 58.9357H14.967C14.967 59.3523 14.6098 59.7106 14.1431 59.7106V60.2424ZM15.4988 58.9357V57.2816H14.967V58.9357H15.4988ZM15.2329 57.5475H18.9699V57.0157H15.2329V57.5475ZM18.8927 57.536L31.8239 61.4591L31.9783 60.9502L19.0471 57.0271L18.8927 57.536ZM31.8125 61.4553C34.7627 62.4977 37.2516 63.0253 39.7491 63.0253V62.4935C37.3309 62.4935 34.9041 61.9836 31.9897 60.9539L31.8125 61.4553ZM39.7491 63.0253C41.7522 63.0253 43.7483 62.6867 45.9819 62.0149L45.8288 61.5056C43.6329 62.1661 41.6892 62.4935 39.7491 62.4935V63.0253ZM45.9817 62.0149C46.1863 61.9536 46.3943 61.889 46.6041 61.8211L46.4405 61.3151C46.2345 61.3817 46.0301 61.4452 45.8289 61.5056L45.9817 62.0149ZM46.6142 61.8176C47.0732 61.6485 47.5202 61.4482 47.9517 61.2183L47.7016 60.749C47.2915 60.9675 46.8667 61.1579 46.4304 61.3186L46.6142 61.8176ZM47.9518 61.2183C48.311 61.0268 48.6525 60.8037 48.9714 60.5541L48.6435 60.1354C48.3487 60.3662 48.0331 60.5723 47.7016 60.749L47.9518 61.2183ZM48.9709 60.5544L67.0374 46.4683L66.7104 46.0489L48.644 60.1351L48.9709 60.5544ZM67.0361 46.4694C67.1114 46.4114 67.1788 46.347 67.2398 46.2747L66.8333 45.9319C66.7971 45.9748 66.7572 46.0129 66.7118 46.0479L67.0361 46.4694ZM67.2405 46.2739C68.6694 44.565 68.597 41.9651 67.0726 40.3455L66.6853 40.71C68.0245 42.1328 68.0895 44.4295 66.8326 45.9327L67.2405 46.2739ZM13.0534 57.6274H6.18119V58.1591H13.0534V57.6274ZM6.44708 57.8933V40.7087H5.9153V57.8933H6.44708ZM6.18119 40.9746H13.0534V40.4428H6.18119V40.9746ZM12.7875 40.7087V57.8933H13.3193V40.7087H12.7875ZM63.0842 41.9898L63.0885 41.9864L62.758 41.5698L62.7537 41.5732L63.0842 41.9898ZM63.0845 41.9896C63.0857 41.9886 63.0869 41.9877 63.0883 41.9866L62.7582 41.5697C62.7568 41.5708 62.7551 41.5721 62.7534 41.5735L63.0845 41.9896Z" fill="#0B2D1F" mask="url(#path-2-outside-1_6485_47322)"/>
</g>
</g>
<g id="Group 1000001370">
<path id="Vector 57" d="M35.6035 34.2839V18.4814H57.727V34.2839H35.6035Z" fill="#22885E" stroke="#22885E" stroke-width="1.42222"/>
<g id="Group 159057">
<g id="Vector_2">
<path d="M59.3077 9H34.0238C33.1856 9 32.3817 9.33298 31.789 9.92569C31.1963 10.5184 30.8633 11.3223 30.8633 12.1605V15.321C30.8666 15.8725 31.0142 16.4136 31.2914 16.8904C31.5687 17.3673 31.9659 17.7632 32.4435 18.039V34.2839C32.4435 35.1222 32.7765 35.926 33.3692 36.5188C33.9619 37.1115 34.7658 37.4444 35.604 37.4444H57.7275C58.5657 37.4444 59.3696 37.1115 59.9623 36.5188C60.555 35.926 60.888 35.1222 60.888 34.2839V18.039C61.3656 17.7632 61.7628 17.3673 62.0401 16.8904C62.3173 16.4136 62.4649 15.8725 62.4682 15.321V12.1605C62.4682 11.3223 62.1352 10.5184 61.5425 9.92569C60.9498 9.33298 60.1459 9 59.3077 9ZM34.0238 12.1605H46.6657H59.3077V15.321H34.0238V12.1605ZM35.604 34.2839V18.4815H57.7275V34.2839H35.604Z" fill="#0B2D1F"/>
<path d="M59.3077 12.1605V15.321H34.0238V12.1605H46.6657H59.3077Z" fill="#CBEDDF"/>
</g>
<path id="Vector_3" d="M40.3457 21.6421H52.9877V24.8026H40.3457V21.6421Z" fill="#0B2D1F"/>
</g>
</g>
</g>
</g>
</svg>
