<svg width="72" height="72" viewBox="0 0 72 72" fill="none" xmlns="http://www.w3.org/2000/svg">
<g id="purchase-request">
<g id="Group 1171274825">
<path id="Rectangle 34624657" d="M19.6445 18.7998H65.1556V45.822H25.3334L19.6445 18.7998Z" fill="#22885E"/>
<g id="Group">
<path id="Vector" d="M54.5617 61.4896C52.8517 61.4896 51.3583 60.0919 51.3583 58.4861C51.3583 56.885 52.8517 55.4811 54.5617 55.4811C56.2667 55.4811 57.7617 56.885 57.7617 58.4861C57.7617 60.0919 56.2667 61.4896 54.5617 61.4896ZM27.8917 61.4896C26.1867 61.4896 24.6933 60.0919 24.6933 58.4861C24.6933 56.885 26.1867 55.4811 27.8917 55.4811C29.6017 55.4811 31.09 56.885 31.09 58.4861C31.09 60.0919 29.6017 61.4896 27.8917 61.4896ZM20.6417 18.8214H63.3067V44.6662H25.1183L20.6417 18.8214ZM65.8633 51.4744H16.8V48.6682H65.2267C66.505 48.6682 67.3583 47.8684 67.3583 46.6679V16.8149C67.3583 15.6145 66.505 14.8132 65.2267 14.8132H20L18.7217 7.59955C18.505 6.60257 17.6533 6 16.585 6H6.13667C4.85167 6 4 6.79977 4 8.00022C4 9.20535 4.85167 10.0067 6.13667 10.0067H14.665L20.8517 44.6662H14.665C13.3867 44.6662 12.5333 45.4675 12.5333 46.6679V53.4809C12.5333 54.6813 13.3867 55.4811 14.665 55.4811H21.0683C20.6417 56.4843 20.215 57.4829 20.215 58.4861C20.215 62.2956 23.625 65.4963 27.6817 65.4963C31.7333 65.4963 35.1467 62.2956 35.1467 58.4861C35.1467 57.4829 34.9317 56.4843 34.295 55.4811H47.7333C47.3067 56.4843 46.88 57.4829 46.88 58.4861C46.88 62.2956 50.295 65.4963 54.3467 65.4963C58.4033 65.4963 61.8117 62.2956 61.8117 58.4861C61.8117 57.4829 61.5967 56.4843 60.96 55.4811H65.8633C67.1467 55.4811 68 54.6813 68 53.4809C68 52.2757 67.1467 51.4744 65.8633 51.4744Z" fill="#0B2D1F"/>
</g>
<path id="Vector_2" d="M42.1872 38.6531L35.7839 32.6462H37.4939C38.7722 32.6462 39.6255 31.8402 39.6255 30.6397V24.0287H44.7505V30.6397C44.7505 31.8402 45.5972 32.6462 46.8805 32.6462H48.5855L42.1872 38.6531ZM53.7055 28.638H49.0172V21.825C49.0172 20.6246 48.1589 19.8232 46.8805 19.8232H37.4939C36.2155 19.8232 35.3589 20.6246 35.3589 21.825V28.4361H30.6655C29.8122 28.4361 28.9605 28.8352 28.7439 29.6365C28.3189 30.4425 28.5339 31.2423 29.1705 31.8402L40.6939 42.6598C41.1189 43.0605 41.5455 43.264 42.1872 43.264C42.8305 43.264 43.2505 43.0605 43.6822 42.6598L55.1989 31.8402C55.8405 31.2423 56.0505 30.4425 55.6255 29.6365C55.4155 29.0386 54.5622 28.638 53.7055 28.638Z" fill="#0B2D1F"/>
</g>
</g>
</svg>
