<svg width="72" height="72" viewBox="0 0 72 72" fill="none" xmlns="http://www.w3.org/2000/svg">
<g id="purchase-tender">
<path id="Rectangle 34624772" d="M46 33L47.5 32L49 33V45H46V33Z" fill="#22885E"/>
<rect id="Rectangle 34624771" x="9" y="46" width="13" height="21" fill="#22885E"/>
<circle id="Ellipse 2605" cx="47.5" cy="19.5" r="7.5" fill="#22885E"/>
<path id="Vector" d="M52.0362 4.00082C51.4032 3.98446 50.7884 4.2128 50.3195 4.63833L47.7007 6.9863C47.636 7.04265 47.5532 7.07369 47.4674 7.07369C47.3816 7.07369 47.2987 7.04265 47.234 6.9863L44.6152 4.63833C44.3001 4.34929 43.9141 4.14892 43.4963 4.05764C43.0786 3.96636 42.6441 3.98743 42.2372 4.1187C41.8302 4.24998 41.4653 4.48676 41.1797 4.80494C40.894 5.12313 40.6978 5.51133 40.611 5.93003L39.8402 9.35509C39.8176 9.43231 39.7684 9.49901 39.7012 9.54328C39.634 9.58754 39.5533 9.6065 39.4735 9.59677L35.9359 9.19676C35.4988 9.14621 35.0561 9.21298 34.6533 9.3902C34.2506 9.56742 33.9023 9.84869 33.6442 10.2051C33.3908 10.5519 33.2358 10.9608 33.1958 11.3884C33.1559 11.8161 33.2323 12.2466 33.4171 12.6343L34.9005 15.7969C34.9312 15.8639 34.9344 15.9402 34.9095 16.0095C34.8846 16.0788 34.8335 16.1356 34.7671 16.1677L31.665 17.874C31.2825 18.0814 30.9631 18.3882 30.7405 18.762C30.5179 19.1359 30.4004 19.5629 30.4004 19.998C30.4004 20.4331 30.5179 20.8601 30.7405 21.234C30.9631 21.6078 31.2825 21.9146 31.665 22.122L34.7671 23.8283C34.8333 23.8606 34.8842 23.9174 34.9091 23.9867C34.934 24.0559 34.9309 24.1321 34.9005 24.1991L33.4171 27.3596C33.2322 27.7469 33.1555 28.1769 33.1951 28.6042C33.2347 29.0315 33.3892 29.4401 33.6421 29.7867C33.9003 30.1437 34.2488 30.4255 34.652 30.6031C35.0551 30.7807 35.4983 30.8477 35.9359 30.7972L39.4735 30.3951C39.5539 30.3834 39.6358 30.4018 39.7035 30.4468C39.7712 30.4918 39.8198 30.5602 39.8402 30.6388L40.5402 34.0452C40.6252 34.4676 40.8216 34.8596 41.1092 35.1805C41.3968 35.5014 41.765 35.7396 42.1756 35.8702C42.4311 35.9541 42.6983 35.9969 42.9673 35.9973C43.4271 35.9981 43.8778 35.8688 44.2673 35.6244V44.5329H38.5068L39.511 43.7974C39.911 43.5042 40.2488 43.1345 40.5049 42.7097C40.761 42.285 40.9303 41.8136 41.0029 41.323C41.0756 40.8324 41.0502 40.3322 40.9282 39.8515C40.8062 39.3707 40.5901 38.919 40.2922 38.5223C39.7012 37.7441 38.831 37.2257 37.8653 37.0765C36.8995 36.9273 35.9135 37.1588 35.1151 37.7223L25.5774 44.5329H9.06669C8.78378 44.5329 8.51247 44.6453 8.31243 44.8453C8.11238 45.0453 8 45.3167 8 45.5996V66.9333C8 67.2162 8.11238 67.4875 8.31243 67.6876C8.51247 67.8876 8.78378 68 9.06669 68H50.1341C50.8193 67.9996 51.4912 67.8106 52.0762 67.4538C52.6611 67.0969 53.1366 66.586 53.4505 65.9769C53.7644 65.3678 53.9046 64.6841 53.8558 64.0006C53.807 63.3171 53.571 62.6603 53.1737 62.102C53.6061 61.8324 53.9788 61.4773 54.2688 61.0583C54.5587 60.6393 54.7599 60.1654 54.8598 59.6658C54.9597 59.1662 54.9563 58.6514 54.8498 58.1531C54.7433 57.6548 54.5359 57.1836 54.2404 56.7685C54.7203 56.4697 55.126 56.0658 55.427 55.5873C55.728 55.1087 55.9164 54.5681 55.978 54.0062C56.0396 53.4442 55.9728 52.8756 55.7826 52.3433C55.5924 51.8109 55.2838 51.3287 54.88 50.933C55.4097 50.414 55.7729 49.7489 55.9231 49.0227C56.0734 48.2965 56.004 47.5419 55.7237 46.8553C55.4434 46.1687 54.965 45.5811 54.3494 45.1675C53.7339 44.7539 53.0091 44.5329 52.2675 44.5329H50.6674V35.6035C50.974 35.8014 51.3208 35.9283 51.6827 35.9752C52.0445 36.022 52.4123 35.9876 52.7591 35.8744C53.1697 35.7435 53.5377 35.5054 53.8253 35.1845C54.1128 34.8636 54.3094 34.4717 54.3946 34.0493L55.0946 30.643C55.1153 30.5647 55.1642 30.4968 55.2318 30.4522C55.2994 30.4076 55.3811 30.3895 55.4613 30.4013L58.9988 30.8013C59.436 30.8527 59.879 30.7863 60.2819 30.609C60.6848 30.4317 61.033 30.15 61.2905 29.793C61.544 29.4462 61.6989 29.0373 61.7389 28.6097C61.7789 28.182 61.7024 27.7515 61.5176 27.3638L60.0343 24.2012C60.0036 24.1343 60.0003 24.0579 60.0253 23.9886C60.0502 23.9193 60.1013 23.8625 60.1676 23.8304L63.2697 22.1241C63.6522 21.9167 63.9716 21.6099 64.1942 21.2361C64.4168 20.8622 64.5343 20.4352 64.5343 20.0001C64.5343 19.565 64.4168 19.138 64.1942 18.7641C63.9716 18.3903 63.6522 18.0835 63.2697 17.8761L60.1676 16.1698C60.1015 16.1375 60.0505 16.0807 60.0257 16.0115C60.0008 15.9422 60.0038 15.866 60.0343 15.799L61.5176 12.6385C61.7025 12.2513 61.7792 11.8212 61.7396 11.3939C61.7 10.9666 61.5456 10.558 61.2926 10.2114C61.0342 9.85464 60.6856 9.57307 60.2826 9.3955C59.8795 9.21794 59.4364 9.15079 58.9988 9.20092L55.4613 9.60302C55.3808 9.61474 55.2989 9.59633 55.2313 9.55134C55.1636 9.50635 55.1149 9.43795 55.0946 9.35926L54.3946 5.95294C54.3096 5.5305 54.1131 5.13848 53.8255 4.81757C53.538 4.49666 53.1698 4.25854 52.7591 4.12791C52.5259 4.04963 52.2822 4.00679 52.0362 4.00082ZM42.9715 6.13211C43.011 6.13133 43.0503 6.1387 43.0868 6.15375C43.1234 6.16881 43.1564 6.19123 43.184 6.21962L45.8028 8.578C46.2583 8.98863 46.8499 9.21589 47.4632 9.21589C48.0765 9.21589 48.6681 8.98863 49.1236 8.578L51.7424 6.21962C51.7889 6.17866 51.8454 6.15073 51.9061 6.13865C51.9668 6.12658 52.0297 6.13079 52.0883 6.15086C52.1412 6.16544 52.1891 6.19436 52.2266 6.23444C52.2641 6.27452 52.2898 6.32419 52.3008 6.37795L53.0029 9.78635C53.1291 10.388 53.4767 10.9204 53.9767 11.278C54.4767 11.6357 55.0928 11.7926 55.7029 11.7176L59.2384 11.3155C59.2992 11.3054 59.3617 11.3127 59.4185 11.3367C59.4753 11.3607 59.5241 11.4003 59.5593 11.451C59.5897 11.4898 59.6084 11.5365 59.6132 11.5856C59.618 11.6346 59.6086 11.6841 59.5863 11.7281L58.1051 14.8927C57.8477 15.4505 57.8115 16.0851 58.0036 16.6685C58.1958 17.252 58.6021 17.7408 59.1405 18.0365L62.2426 19.7428C62.2905 19.7661 62.3309 19.8023 62.3591 19.8475C62.3874 19.8926 62.4024 19.9448 62.4024 19.998C62.4024 20.0513 62.3874 20.1034 62.3591 20.1486C62.3309 20.1937 62.2905 20.23 62.2426 20.2532L59.1405 21.9595C58.6017 22.2554 58.1952 22.7446 58.0031 23.3285C57.8109 23.9123 57.8473 24.5474 58.1051 25.1054L59.5863 28.268C59.6084 28.312 59.6176 28.3614 59.6128 28.4104C59.608 28.4594 59.5894 28.5061 59.5593 28.5451C59.5232 28.5947 59.4742 28.6335 59.4177 28.6574C59.3611 28.6813 59.2992 28.6892 59.2384 28.6805L55.7029 28.2784C55.0931 28.204 54.4775 28.3612 53.978 28.7188C53.4784 29.0764 53.1312 29.6084 53.005 30.2097L52.305 33.6243C52.2936 33.6777 52.2677 33.7269 52.2303 33.7666C52.1928 33.8063 52.1451 33.8349 52.0925 33.8493C52.034 33.8701 51.9709 33.8746 51.9101 33.8625C51.8492 33.8504 51.7927 33.8221 51.7466 33.7806L50.3153 32.491L49.1299 31.4243C48.6743 31.0136 48.0828 30.7864 47.4695 30.7864C46.8561 30.7864 46.2646 31.0136 45.809 31.4243L44.6215 32.491L43.1881 33.7785C43.142 33.82 43.0855 33.8484 43.0247 33.8605C42.9638 33.8726 42.9008 33.868 42.8423 33.8472C42.7894 33.8327 42.7415 33.8037 42.704 33.7637C42.6665 33.7236 42.6408 33.6739 42.6298 33.6202L41.9277 30.2118C41.8138 29.6589 41.5117 29.1626 41.0729 28.8074C40.6342 28.4522 40.0859 28.2601 39.5214 28.2638C39.4246 28.2641 39.328 28.2697 39.2318 28.2805L35.6942 28.6826C35.6334 28.6927 35.571 28.6854 35.5142 28.6614C35.4574 28.6374 35.4086 28.5978 35.3734 28.5471C35.3433 28.5081 35.325 28.4613 35.3206 28.4122C35.3162 28.3632 35.3258 28.3138 35.3484 28.2701L36.8297 25.1054C37.087 24.5476 37.1233 23.913 36.9311 23.3296C36.739 22.7461 36.3327 22.2573 35.7942 21.9616L32.69 20.2553C32.6421 20.232 32.6018 20.1958 32.5735 20.1506C32.5453 20.1055 32.5303 20.0533 32.5303 20.0001C32.5303 19.9469 32.5453 19.8947 32.5735 19.8496C32.6018 19.8044 32.6421 19.7681 32.69 19.7449L35.7942 18.0386C36.333 17.7427 36.7395 17.2535 36.9317 16.6696C37.1238 16.0858 37.0874 15.4507 36.8297 14.8927L35.3505 11.7281C35.3281 11.6842 35.3186 11.6349 35.3231 11.5859C35.3275 11.5369 35.3456 11.4901 35.3755 11.451C35.4109 11.4006 35.4598 11.3612 35.5165 11.3373C35.5732 11.3133 35.6355 11.3058 35.6963 11.3155L39.2339 11.7176C39.8399 11.7929 40.4521 11.6382 40.9497 11.2841C41.4472 10.9301 41.794 10.4023 41.9214 9.8051L42.6923 6.37795C42.7022 6.31058 42.7357 6.24892 42.7869 6.20392C42.838 6.15891 42.9034 6.13347 42.9715 6.13211ZM47.2174 11.4697C44.9797 11.5395 42.8591 12.4859 41.3127 14.1049C39.7664 15.7238 38.9181 17.8856 38.9509 20.1241C38.9837 22.3626 39.8949 24.4986 41.488 26.0715C43.0812 27.6445 45.2286 28.5283 47.4674 28.5326C49.7298 28.53 51.8989 27.6301 53.4986 26.0303C55.0984 24.4306 55.9983 22.2615 56.0009 19.9991C56.0008 18.8574 55.7716 17.7274 55.327 16.6759C54.8824 15.6244 54.2312 14.6729 53.4122 13.8775C52.5932 13.0822 51.6229 12.4593 50.5588 12.0457C49.4948 11.6321 48.3585 11.4363 47.2174 11.4697ZM46.4007 13.6948V14.8615C45.7788 15.0813 45.2401 15.4879 44.8582 16.0257C44.4763 16.5635 44.27 17.2061 44.2673 17.8657C44.2673 20.1175 46.0702 20.6797 47.1465 21.0157C48.3508 21.3912 48.5341 21.5372 48.5341 22.1324C48.5341 22.4153 48.4217 22.6866 48.2216 22.8867C48.0216 23.0867 47.7503 23.1991 47.4674 23.1991C47.1845 23.1991 46.9132 23.0867 46.7131 22.8867C46.5131 22.6866 46.4007 22.4153 46.4007 22.1324H44.2673C44.27 22.792 44.4763 23.4346 44.8582 23.9724C45.2401 24.5102 45.7788 24.9168 46.4007 25.1367V26.3033C44.9098 26.0528 43.5559 25.2821 42.5795 24.1279C41.6031 22.9737 41.0673 21.5108 41.0673 19.9991C41.0673 18.4873 41.6031 17.0244 42.5795 15.8702C43.5559 14.716 44.9098 13.9453 46.4007 13.6948ZM48.5341 13.6948C50.0249 13.9453 51.3788 14.716 52.3552 15.8702C53.3317 17.0244 53.8675 18.4873 53.8675 19.9991C53.8675 21.5108 53.3317 22.9737 52.3552 24.1279C51.3788 25.2821 50.0249 26.0528 48.5341 26.3033V25.1367C49.1559 24.9168 49.6946 24.5102 50.0765 23.9724C50.4584 23.4346 50.6648 22.792 50.6674 22.1324C50.6674 19.8775 48.8634 19.3153 47.7882 18.9782C46.5818 18.6038 46.4007 18.4588 46.4007 17.8657C46.4007 17.5828 46.5131 17.3115 46.7131 17.1114C46.9132 16.9114 47.1845 16.799 47.4674 16.799C47.7503 16.799 48.0216 16.9114 48.2216 17.1114C48.4217 17.3115 48.5341 17.5828 48.5341 17.8657H50.6674C50.6648 17.2061 50.4584 16.5635 50.0765 16.0257C49.6946 15.4879 49.1559 15.0813 48.5341 14.8615V13.6948ZM47.4632 32.9264C47.5501 32.925 47.6346 32.9554 47.7007 33.0118L48.5341 33.7597V44.5329H46.4007V33.7597L47.234 33.0118C47.298 32.9573 47.3791 32.927 47.4632 32.9264ZM37.2672 39.1598C37.5221 39.1563 37.7742 39.2127 38.0033 39.3246C38.2324 39.4364 38.432 39.6005 38.586 39.8036C38.7143 39.9745 38.8075 40.1692 38.86 40.3764C38.9126 40.5836 38.9234 40.7992 38.892 41.0106C38.8607 41.222 38.7876 41.4251 38.6771 41.6081C38.5666 41.7911 38.4209 41.9503 38.2485 42.0766L34.6213 44.7433C34.4419 44.8766 34.3088 45.0629 34.241 45.2759C34.1731 45.4889 34.1739 45.7178 34.2432 45.9303C34.3125 46.1428 34.4469 46.3282 34.6272 46.4603C34.8076 46.5923 35.0249 46.6644 35.2484 46.6662H52.2675C52.6918 46.6662 53.0988 46.8348 53.3988 47.1349C53.6989 47.4349 53.8675 47.8419 53.8675 48.2663C53.8675 48.6906 53.6989 49.0976 53.3988 49.3977C53.0988 49.6977 52.6918 49.8663 52.2675 49.8663C51.9846 49.8663 51.7132 49.9787 51.5132 50.1787C51.3132 50.3788 51.2008 50.6501 51.2008 50.933C51.2008 51.2159 51.3132 51.4872 51.5132 51.6873C51.7132 51.8873 51.9846 51.9997 52.2675 51.9997C52.6918 51.9997 53.0988 52.1683 53.3988 52.4683C53.6989 52.7684 53.8675 53.1754 53.8675 53.5997C53.8675 54.0241 53.6989 54.431 53.3988 54.7311C53.0988 55.0312 52.6918 55.1997 52.2675 55.1997H51.2008C50.9179 55.1997 50.6465 55.3121 50.4465 55.5122C50.2465 55.7122 50.1341 55.9835 50.1341 56.2664C50.1341 56.5493 50.2465 56.8207 50.4465 57.0207C50.6465 57.2207 50.9179 57.3331 51.2008 57.3331C51.6251 57.3331 52.0321 57.5017 52.3322 57.8018C52.6322 58.1018 52.8008 58.5088 52.8008 58.9332C52.8008 59.3575 52.6322 59.7645 52.3322 60.0645C52.0321 60.3646 51.6251 60.5332 51.2008 60.5332H50.1341C49.8512 60.5332 49.5799 60.6456 49.3798 60.8456C49.1798 61.0457 49.0674 61.317 49.0674 61.5999C49.0674 61.8828 49.1798 62.1541 49.3798 62.3541C49.5799 62.5542 49.8512 62.6666 50.1341 62.6666C50.5584 62.6666 50.9654 62.8351 51.2655 63.1352C51.5655 63.4353 51.7341 63.8422 51.7341 64.2666C51.7341 64.6909 51.5655 65.0979 51.2655 65.398C50.9654 65.6981 50.5584 65.8666 50.1341 65.8666H22.9336V46.6662H25.9212C26.143 46.6662 26.3593 46.597 26.5399 46.4683L36.3526 39.4578C36.6205 39.2685 36.9393 39.1647 37.2672 39.1598ZM10.1334 46.6662H20.8002V65.8666H10.1334V46.6662Z" fill="#0B2D1F"/>
</g>
</svg>
