<svg width="72" height="72" viewBox="0 0 72 72" fill="none" xmlns="http://www.w3.org/2000/svg">
<g id="request-for-quotation">
<path id="Rectangle 34624770" d="M14 15C14 13.3431 15.3431 12 17 12H24.169C24.7128 12 25.2463 12.1478 25.7125 12.4275L26.71 13.026C27.2248 13.3349 27.8204 13.4822 28.4199 13.4489L36.5 13H44.941C45.2836 13 45.5968 12.8064 45.75 12.5C45.9032 12.1936 46.2164 12 46.559 12H55C56.6569 12 58 13.3431 58 15V64C58 65.6569 56.6569 67 55 67H17C15.3431 67 14 65.6569 14 64V15Z" fill="#22885E"/>
<g id="Vector">
<path d="M28.8595 4C27.7859 4 26.7562 4.4265 25.9971 5.18567C25.2379 5.94484 24.8114 6.9745 24.8114 8.04813V10.7538H16.84C15.8216 10.7538 14.8449 11.1584 14.1247 11.8785C13.4046 12.5987 13 13.5754 13 14.5938V54.2114C13 54.4184 13.0822 54.6169 13.2286 54.7633C13.375 54.9096 13.5735 54.9919 13.7805 54.9919C13.9875 54.9919 14.186 54.9096 14.3324 54.7633C14.4787 54.6169 14.561 54.4184 14.561 54.2114V14.5938C14.561 13.9894 14.8011 13.4097 15.2285 12.9823C15.6559 12.5549 16.2356 12.3148 16.84 12.3148H24.8114V13.2202C24.8141 13.4263 24.8972 13.6233 25.043 13.7691C25.1888 13.9149 25.3857 13.998 25.5919 14.0006H45.843C46.0491 13.998 46.2461 13.9149 46.3919 13.7691C46.5376 13.6233 46.6207 13.4263 46.6234 13.2202V12.3148H54.5948C55.1993 12.3148 55.7789 12.5549 56.2063 12.9823C56.6337 13.4097 56.8739 13.9894 56.8739 14.5938V64.16C56.8739 64.7644 56.6337 65.3441 56.2063 65.7715C55.7789 66.1989 55.1993 66.439 54.5948 66.439H16.84C16.2356 66.439 15.6559 66.1989 15.2285 65.7715C14.8011 65.3441 14.561 64.7644 14.561 64.16V52.5776C14.561 52.3706 14.4787 52.172 14.3324 52.0257C14.186 51.8793 13.9875 51.7971 13.7805 51.7971C13.5735 51.7971 13.375 51.8793 13.2286 52.0257C13.0822 52.172 13 52.3706 13 52.5776V64.16C13 65.1784 13.4046 66.1551 14.1247 66.8753C14.8449 67.5954 15.8216 68 16.84 68H54.5948C55.6133 68 56.59 67.5954 57.3101 66.8753C58.0303 66.1551 58.4348 65.1784 58.4348 64.16V14.5938C58.4348 13.5754 58.0303 12.5987 57.3101 11.8785C56.59 11.1584 55.6133 10.7538 54.5948 10.7538H46.6234V8.04813C46.6234 6.9745 46.1969 5.94484 45.4378 5.18567C44.6786 4.4265 43.6489 4 42.5753 4H28.8595ZM28.8595 5.56098H42.5753C42.9037 5.55823 43.2293 5.62053 43.5335 5.74429C43.8377 5.86805 44.1143 6.05082 44.3475 6.28205C44.5806 6.51327 44.7657 6.78838 44.892 7.09151C45.0183 7.39463 45.0833 7.71975 45.0833 8.04813V12.4397H26.3516V8.04813C26.3515 7.71975 26.4166 7.39463 26.5429 7.09151C26.6691 6.78838 26.8542 6.51327 27.0874 6.28205C27.3205 6.05082 27.5972 5.86805 27.9013 5.74429C28.2055 5.62053 28.5312 5.55823 28.8595 5.56098ZM23.2296 23.5122C23.0272 23.5176 22.835 23.6026 22.6948 23.7487C22.5546 23.8948 22.4775 24.0902 22.4803 24.2927V25.0524C21.6882 25.2608 20.9974 25.7472 20.5341 26.4227C20.0708 27.0983 19.8659 27.9179 19.9567 28.732C20.0476 29.5461 20.4282 30.3003 21.0291 30.8571C21.6299 31.4138 22.411 31.7359 23.2296 31.7646C23.4729 31.7646 23.7137 31.8125 23.9385 31.9056C24.1632 31.9986 24.3674 32.1351 24.5394 32.3071C24.7114 32.4791 24.8479 32.6833 24.941 32.908C25.034 33.1328 25.082 33.3737 25.082 33.6169C25.082 33.8602 25.034 34.101 24.941 34.3258C24.8479 34.5505 24.7114 34.7547 24.5394 34.9267C24.3674 35.0987 24.1632 35.2352 23.9385 35.3283C23.7137 35.4214 23.4729 35.4693 23.2296 35.4693C22.741 35.4638 22.2741 35.2666 21.9295 34.9201C21.5849 34.5736 21.3903 34.1056 21.3876 33.6169C21.3876 33.4099 21.3054 33.2114 21.159 33.065C21.0127 32.9187 20.8142 32.8364 20.6072 32.8364C20.4002 32.8364 20.2016 32.9187 20.0553 33.065C19.9089 33.2114 19.8267 33.4099 19.8267 33.6169C19.8279 34.3873 20.0898 35.1347 20.5697 35.7374C21.0497 36.3401 21.7193 36.7628 22.4699 36.9366V37.8211C22.4699 38.0281 22.5522 38.2267 22.6985 38.373C22.8449 38.5194 23.0434 38.6016 23.2504 38.6016C23.4574 38.6016 23.6559 38.5194 23.8023 38.373C23.9487 38.2267 24.0309 38.0281 24.0309 37.8211V36.9366C24.8446 36.7419 25.5585 36.2552 26.037 35.5689C26.5154 34.8825 26.7251 34.0443 26.6262 33.2135C26.5274 32.3827 26.1268 31.6172 25.5006 31.0623C24.8744 30.5074 24.0663 30.2018 23.2296 30.2036C22.8607 30.2056 22.4996 30.0981 22.1919 29.8947C21.8842 29.6913 21.6438 29.4011 21.5012 29.0609C21.3586 28.7207 21.3203 28.3458 21.391 27.9838C21.4617 27.6218 21.6382 27.2889 21.8983 27.0274C22.1584 26.7658 22.4903 26.5874 22.8519 26.5146C23.2136 26.4419 23.5886 26.4782 23.9296 26.6189C24.2706 26.7595 24.5621 26.9983 24.7673 27.3048C24.9724 27.6114 25.082 27.9719 25.082 28.3408C25.082 28.5478 25.1642 28.7463 25.3106 28.8927C25.4569 29.0391 25.6555 29.1213 25.8624 29.1213C26.0694 29.1213 26.268 29.0391 26.4143 28.8927C26.5607 28.7463 26.6429 28.5478 26.6429 28.3408C26.6422 27.5718 26.3818 26.8255 25.9039 26.223C25.4261 25.6205 24.7587 25.197 24.0101 25.0211V24.2615C23.9995 24.0608 23.913 23.8717 23.768 23.7325C23.623 23.5933 23.4305 23.5146 23.2296 23.5122ZM30.8784 26.6341C30.0251 26.6341 29.3278 26.9776 29.3278 27.4146C29.3278 27.8517 30.0251 28.1951 30.8784 28.1951H49.6101C50.4634 28.1951 51.1607 27.8413 51.1607 27.4146C51.1607 26.988 50.4634 26.6341 49.6101 26.6341H30.8784ZM30.8784 30.4117C30.0146 30.4117 29.3278 30.7551 29.3278 31.1922C29.3278 31.6293 30.0146 31.9727 30.8784 31.9727H47.1646C48.0179 31.9727 48.7151 31.6189 48.7151 31.1922C48.7151 30.7551 48.0179 30.4117 47.1646 30.4117H30.8784ZM31.1386 33.9187C30.2852 33.9187 29.588 34.2621 29.588 34.6992C29.588 35.1363 30.2852 35.4797 31.1386 35.4797H41.6179C42.4816 35.4797 43.1685 35.1259 43.1685 34.6992C43.1685 34.2725 42.4816 33.9187 41.6179 33.9187H31.1386ZM23.2296 43.7528C23.0272 43.7583 22.835 43.8433 22.6948 43.9893C22.5546 44.1354 22.4775 44.3309 22.4803 44.5333V45.293C21.6608 45.4774 20.9381 45.9575 20.4504 46.6415C19.9627 47.3254 19.7444 48.1652 19.8371 49C19.9299 49.8349 20.3273 50.6062 20.9532 51.1665C21.5791 51.7267 22.3896 52.0364 23.2296 52.0364C23.725 52.0364 24.2001 52.2332 24.5505 52.5835C24.9008 52.9338 25.0976 53.409 25.0976 53.9044C25.0976 54.3998 24.9008 54.8749 24.5505 55.2252C24.2001 55.5756 23.725 55.7724 23.2296 55.7724C22.741 55.7669 22.2741 55.5697 21.9295 55.2232C21.5849 54.8767 21.3903 54.4086 21.3876 53.92C21.3876 53.713 21.3054 53.5145 21.159 53.3681C21.0127 53.2217 20.8142 53.1395 20.6072 53.1395C20.4002 53.1395 20.2016 53.2217 20.0553 53.3681C19.9089 53.5145 19.8267 53.713 19.8267 53.92C19.8298 54.69 20.0924 55.4364 20.572 56.0387C21.0516 56.6411 21.7202 57.0642 22.4699 57.2397V58.1242C22.4699 58.3312 22.5522 58.5297 22.6985 58.6761C22.8449 58.8225 23.0434 58.9047 23.2504 58.9047C23.4574 58.9047 23.6559 58.8225 23.8023 58.6761C23.9487 58.5297 24.0309 58.3312 24.0309 58.1242V57.2397C24.8821 57.0808 25.6412 56.6043 26.1543 55.9067C26.6673 55.2092 26.8961 54.3427 26.7942 53.4827C26.6924 52.6228 26.2675 51.8338 25.6056 51.2754C24.9438 50.717 24.0944 50.431 23.2296 50.4754C22.8607 50.4775 22.4996 50.37 22.1919 50.1666C21.8842 49.9632 21.6438 49.673 21.5012 49.3328C21.3586 48.9926 21.3203 48.6177 21.391 48.2557C21.4617 47.8937 21.6382 47.5608 21.8983 47.2992C22.1584 47.0377 22.4903 46.8592 22.8519 46.7865C23.2136 46.7138 23.5886 46.7501 23.9296 46.8907C24.2706 47.0314 24.5621 47.2702 24.7673 47.5767C24.9724 47.8833 25.082 48.2438 25.082 48.6127C25.082 48.8197 25.1642 49.0182 25.3106 49.1646C25.4569 49.3109 25.6555 49.3932 25.8624 49.3932C26.0694 49.3932 26.268 49.3109 26.4143 49.1646C26.5607 49.0182 26.6429 48.8197 26.6429 48.6127C26.6422 47.8437 26.3818 47.0974 25.9039 46.4949C25.4261 45.8924 24.7587 45.4688 24.0101 45.293V44.5333C24.0074 44.3254 23.9228 44.1269 23.7748 43.9808C23.6268 43.8347 23.4272 43.7528 23.2192 43.7528H23.2296ZM30.8784 46.8748C30.0251 46.8748 29.3278 47.2182 29.3278 47.6553C29.3278 48.0924 30.0251 48.4358 30.8784 48.4358H49.6101C50.4634 48.4358 51.1607 48.082 51.1607 47.6553C51.1607 47.2286 50.4634 46.8748 49.6101 46.8748H30.8784ZM30.8784 50.6524C30.0146 50.6524 29.3278 50.9958 29.3278 51.4328C29.3278 51.8699 30.0146 52.2133 30.8784 52.2133H47.1646C48.0179 52.2133 48.7151 51.8595 48.7151 51.4328C48.7151 51.0062 48.0179 50.6524 47.1646 50.6524H30.8784ZM31.149 54.2322C30.2956 54.2322 29.5984 54.5756 29.5984 55.0127C29.5984 55.4498 30.2956 55.7932 31.149 55.7932H41.6179C42.4816 55.7932 43.1685 55.4393 43.1685 55.0127C43.1685 54.586 42.4816 54.2322 41.6179 54.2322H31.149Z" fill="#0B2D1F"/>
<path d="M28.8595 5.56098H42.5753C42.9037 5.55823 43.2293 5.62053 43.5335 5.74429C43.8377 5.86805 44.1143 6.05082 44.3475 6.28205C44.5806 6.51327 44.7657 6.78838 44.892 7.09151C45.0183 7.39463 45.0833 7.71975 45.0833 8.04813V12.4397H26.3516V8.04813C26.3515 7.71975 26.4166 7.39463 26.5429 7.09151C26.6691 6.78838 26.8542 6.51327 27.0874 6.28205C27.3205 6.05082 27.5972 5.86805 27.9013 5.74429C28.2055 5.62053 28.5312 5.55823 28.8595 5.56098Z" fill="#62C89E"/>
<path d="M24.8114 10.7538V11.2741H25.3317V10.7538H24.8114ZM13 14.5938H12.4797H13ZM13 54.2114H13.5203H13ZM14.561 14.5938H14.0407H14.561ZM24.8114 12.3148H25.3317V11.7945H24.8114V12.3148ZM24.8114 13.2202H24.291L24.2911 13.227L24.8114 13.2202ZM25.5919 14.0006L25.5851 14.521H25.5919V14.0006ZM45.843 14.0006V14.521L45.8498 14.5209L45.843 14.0006ZM46.6234 13.2202L47.1438 13.227V13.2202H46.6234ZM46.6234 12.3148V11.7945H46.1031V12.3148H46.6234ZM56.8739 14.5938H57.3942H56.8739ZM54.5948 66.439V66.9593V66.439ZM14.561 52.5776H15.0813H14.561ZM13 64.16H12.4797H13ZM16.84 68V67.4797V68ZM54.5948 68V67.4797V68ZM54.5948 10.7538V10.2335V10.7538ZM46.6234 10.7538H46.1031V11.2741H46.6234V10.7538ZM28.8595 5.56098L28.8552 6.0813H28.8595V5.56098ZM42.5753 5.56098V6.08132L42.5797 6.08128L42.5753 5.56098ZM45.0833 8.04813L44.563 8.04811V8.04813H45.0833ZM45.0833 12.4397V12.96H45.6036V12.4397H45.0833ZM26.3516 12.4397H25.8312V12.96H26.3516V12.4397ZM26.3516 8.04813H26.8719V8.04811L26.3516 8.04813ZM23.2296 23.5122L23.2357 22.9919L23.2257 22.9918L23.2156 22.9921L23.2296 23.5122ZM22.4803 24.2927H23.0007L23.0006 24.2855L22.4803 24.2927ZM22.4803 25.0524L22.6128 25.5555L23.0007 25.4535V25.0524H22.4803ZM23.2296 31.7646L23.2114 32.2846L23.2205 32.2849H23.2296V31.7646ZM23.2296 35.4693L23.2238 35.9896H23.2296V35.4693ZM21.3876 33.6169H20.8673L20.8673 33.6198L21.3876 33.6169ZM19.8267 33.6169H19.3063L19.3063 33.6178L19.8267 33.6169ZM22.4699 36.9366H22.9903V36.523L22.5873 36.4297L22.4699 36.9366ZM24.0309 36.9366L23.9099 36.4305L23.5106 36.526V36.9366H24.0309ZM23.2296 30.2036L23.2285 29.6833L23.2267 29.6833L23.2296 30.2036ZM25.082 28.3408H25.6023V28.3408L25.082 28.3408ZM26.6429 28.3408H27.1633L27.1633 28.3403L26.6429 28.3408ZM24.0101 25.0211H23.4898V25.4334L23.8911 25.5277L24.0101 25.0211ZM24.0101 24.2615H24.5304V24.2478L24.5297 24.2341L24.0101 24.2615ZM23.2296 43.7528L23.2436 44.273L23.2296 43.2325V43.7528ZM22.4803 44.5333H23.0007L23.0006 44.5261L22.4803 44.5333ZM22.4803 45.293L22.5946 45.8006L23.0007 45.7093V45.293H22.4803ZM23.2296 52.0364V51.5161V52.0364ZM25.0976 53.9044H25.6179H25.0976ZM23.2296 55.7724L23.2238 56.2927H23.2296V55.7724ZM21.3876 53.92H20.8673L20.8673 53.9229L21.3876 53.92ZM19.8267 53.92H19.3063L19.3064 53.9221L19.8267 53.92ZM22.4699 57.2397H22.9903V56.8271L22.5885 56.733L22.4699 57.2397ZM24.0309 57.2397L23.9354 56.7282L23.5106 56.8075V57.2397H24.0309ZM23.2296 50.4754L23.2325 50.9958L23.2444 50.9957L23.2563 50.9951L23.2296 50.4754ZM25.082 48.6127H25.6023V48.6127L25.082 48.6127ZM26.6429 48.6127H27.1633L27.1633 48.6122L26.6429 48.6127ZM24.0101 45.293H23.4898V45.7053L23.8911 45.7995L24.0101 45.293ZM24.0101 44.5333H24.5305L24.5304 44.5265L24.0101 44.5333ZM23.2192 43.7528L23.2191 43.2325L23.2192 44.2732V43.7528ZM28.8595 3.47967C27.6479 3.47967 26.4859 3.96099 25.6291 4.81774L26.365 5.5536C27.0266 4.892 27.9239 4.52033 28.8595 4.52033V3.47967ZM25.6291 4.81774C24.7724 5.6745 24.2911 6.8365 24.2911 8.04813H25.3317C25.3317 7.1125 25.7034 6.21519 26.365 5.5536L25.6291 4.81774ZM24.2911 8.04813V10.7538H25.3317V8.04813H24.2911ZM24.8114 10.2335H16.84V11.2741H24.8114V10.2335ZM16.84 10.2335C15.6836 10.2335 14.5745 10.6929 13.7568 11.5106L14.4926 12.2465C15.1152 11.6239 15.9596 11.2741 16.84 11.2741V10.2335ZM13.7568 11.5106C12.9391 12.3283 12.4797 13.4374 12.4797 14.5938H13.5203C13.5203 13.7134 13.8701 12.869 14.4926 12.2465L13.7568 11.5106ZM12.4797 14.5938V54.2114H13.5203V14.5938H12.4797ZM12.4797 54.2114C12.4797 54.5564 12.6167 54.8872 12.8607 55.1312L13.5965 54.3953C13.5477 54.3465 13.5203 54.2804 13.5203 54.2114H12.4797ZM12.8607 55.1312C13.1046 55.3751 13.4355 55.5122 13.7805 55.5122V54.4715C13.7115 54.4715 13.6453 54.4441 13.5965 54.3953L12.8607 55.1312ZM13.7805 55.5122C14.1255 55.5122 14.4564 55.3751 14.7003 55.1312L13.9645 54.3953C13.9157 54.4441 13.8495 54.4715 13.7805 54.4715V55.5122ZM14.7003 55.1312C14.9443 54.8872 15.0813 54.5564 15.0813 54.2114H14.0407C14.0407 54.2804 14.0132 54.3465 13.9645 54.3953L14.7003 55.1312ZM15.0813 54.2114V14.5938H14.0407V54.2114H15.0813ZM15.0813 14.5938C15.0813 14.1274 15.2666 13.6801 15.5964 13.3502L14.8606 12.6144C14.3356 13.1394 14.0407 13.8514 14.0407 14.5938H15.0813ZM15.5964 13.3502C15.9262 13.0204 16.3736 12.8351 16.84 12.8351V11.7945C16.0976 11.7945 15.3855 12.0894 14.8606 12.6144L15.5964 13.3502ZM16.84 12.8351H24.8114V11.7945H16.84V12.8351ZM24.2911 12.3148V13.2202H25.3317V12.3148H24.2911ZM24.2911 13.227C24.2956 13.5688 24.4333 13.8953 24.675 14.137L25.4109 13.4011C25.361 13.3513 25.3326 13.2839 25.3317 13.2134L24.2911 13.227ZM24.675 14.137C24.9168 14.3787 25.2433 14.5165 25.5851 14.5209L25.5987 13.4804C25.5282 13.4794 25.4608 13.451 25.4109 13.4011L24.675 14.137ZM25.5919 14.521H45.843V13.4803H25.5919V14.521ZM45.8498 14.5209C46.1915 14.5165 46.5181 14.3787 46.7598 14.137L46.0239 13.4011C45.9741 13.451 45.9067 13.4794 45.8362 13.4804L45.8498 14.5209ZM46.7598 14.137C47.0015 13.8953 47.1392 13.5688 47.1437 13.227L46.1032 13.2134C46.1022 13.2839 46.0738 13.3513 46.0239 13.4011L46.7598 14.137ZM47.1438 13.2202V12.3148H46.1031V13.2202H47.1438ZM46.6234 12.8351H54.5948V11.7945H46.6234V12.8351ZM54.5948 12.8351C55.0613 12.8351 55.5086 13.0204 55.8384 13.3502L56.5743 12.6144C56.0493 12.0894 55.3373 11.7945 54.5948 11.7945V12.8351ZM55.8384 13.3502C56.1682 13.6801 56.3535 14.1274 56.3535 14.5938H57.3942C57.3942 13.8514 57.0992 13.1394 56.5743 12.6144L55.8384 13.3502ZM56.3535 14.5938V64.16H57.3942V14.5938H56.3535ZM56.3535 64.16C56.3535 64.6264 56.1682 65.0738 55.8384 65.4036L56.5743 66.1394C57.0992 65.6145 57.3942 64.9024 57.3942 64.16H56.3535ZM55.8384 65.4036C55.5086 65.7334 55.0613 65.9187 54.5948 65.9187V66.9593C55.3373 66.9593 56.0493 66.6644 56.5743 66.1394L55.8384 65.4036ZM54.5948 65.9187H16.84V66.9593H54.5948V65.9187ZM16.84 65.9187C16.3736 65.9187 15.9262 65.7334 15.5964 65.4036L14.8606 66.1394C15.3855 66.6644 16.0976 66.9593 16.84 66.9593V65.9187ZM15.5964 65.4036C15.2666 65.0738 15.0813 64.6264 15.0813 64.16H14.0407C14.0407 64.9024 14.3356 65.6145 14.8606 66.1394L15.5964 65.4036ZM15.0813 64.16V52.5776H14.0407V64.16H15.0813ZM15.0813 52.5776C15.0813 52.2326 14.9443 51.9017 14.7003 51.6577L13.9645 52.3936C14.0132 52.4424 14.0407 52.5086 14.0407 52.5776H15.0813ZM14.7003 51.6577C14.4563 51.4138 14.1255 51.2767 13.7805 51.2767V52.3174C13.8495 52.3174 13.9157 52.3448 13.9645 52.3936L14.7003 51.6577ZM13.7805 51.2767C13.4355 51.2767 13.1046 51.4138 12.8607 51.6577L13.5965 52.3936C13.6453 52.3448 13.7115 52.3174 13.7805 52.3174V51.2767ZM12.8607 51.6577C12.6167 51.9017 12.4797 52.2326 12.4797 52.5776H13.5203C13.5203 52.5086 13.5477 52.4424 13.5965 52.3936L12.8607 51.6577ZM12.4797 52.5776V64.16H13.5203V52.5776H12.4797ZM12.4797 64.16C12.4797 65.3164 12.9391 66.4255 13.7568 67.2432L14.4926 66.5074C13.8701 65.8848 13.5203 65.0404 13.5203 64.16H12.4797ZM13.7568 67.2432C14.5745 68.0609 15.6836 68.5203 16.84 68.5203V67.4797C15.9596 67.4797 15.1152 67.1299 14.4926 66.5074L13.7568 67.2432ZM16.84 68.5203H54.5948V67.4797H16.84V68.5203ZM54.5948 68.5203C55.7513 68.5203 56.8603 68.0609 57.678 67.2432L56.9422 66.5074C56.3196 67.1299 55.4753 67.4797 54.5948 67.4797V68.5203ZM57.678 67.2432C58.4958 66.4255 58.9552 65.3164 58.9552 64.16H57.9145C57.9145 65.0404 57.5648 65.8848 56.9422 66.5074L57.678 67.2432ZM58.9552 64.16V14.5938H57.9145V64.16H58.9552ZM58.9552 14.5938C58.9552 13.4374 58.4958 12.3283 57.678 11.5106L56.9422 12.2465C57.5648 12.869 57.9145 13.7134 57.9145 14.5938H58.9552ZM57.678 11.5106C56.8603 10.6929 55.7513 10.2335 54.5948 10.2335V11.2741C55.4753 11.2741 56.3196 11.6239 56.9422 12.2465L57.678 11.5106ZM54.5948 10.2335H46.6234V11.2741H54.5948V10.2335ZM47.1438 10.7538V8.04813H46.1031V10.7538H47.1438ZM47.1438 8.04813C47.1438 6.8365 46.6624 5.6745 45.8057 4.81774L45.0698 5.5536C45.7314 6.21519 46.1031 7.1125 46.1031 8.04813H47.1438ZM45.8057 4.81774C44.9489 3.96099 43.7869 3.47967 42.5753 3.47967V4.52033C43.5109 4.52033 44.4083 4.892 45.0698 5.5536L45.8057 4.81774ZM42.5753 3.47967H28.8595V4.52033H42.5753V3.47967ZM28.8595 6.0813H42.5753V5.04065H28.8595V6.0813ZM42.5797 6.08128C42.8393 6.07911 43.0969 6.12838 43.3374 6.22625L43.7296 5.26234C43.3618 5.11268 42.968 5.03735 42.571 5.04067L42.5797 6.08128ZM43.3374 6.22625C43.5779 6.32412 43.7967 6.46865 43.9811 6.6515L44.7139 5.91259C44.4319 5.63299 44.0974 5.41199 43.7296 5.26234L43.3374 6.22625ZM43.9811 6.6515C44.1655 6.83435 44.3118 7.05191 44.4117 7.29162L45.3723 6.89139C45.2196 6.52486 44.9958 6.19219 44.7139 5.91259L43.9811 6.6515ZM44.4117 7.29162C44.5115 7.53132 44.563 7.78843 44.563 8.04811L45.6036 8.04815C45.6036 7.65107 45.525 7.25793 45.3723 6.89139L44.4117 7.29162ZM44.563 8.04813V12.4397H45.6036V8.04813H44.563ZM45.0833 11.9193H26.3516V12.96H45.0833V11.9193ZM26.8719 12.4397V8.04813H25.8312V12.4397H26.8719ZM26.8719 8.04811C26.8719 7.78843 26.9233 7.53132 27.0232 7.29162L26.0625 6.89139C25.9098 7.25793 25.8312 7.65107 25.8312 8.04815L26.8719 8.04811ZM27.0232 7.29162C27.123 7.05191 27.2694 6.83436 27.4538 6.6515L26.721 5.91259C26.439 6.19219 26.2153 6.52486 26.0625 6.89139L27.0232 7.29162ZM27.4538 6.6515C27.6381 6.46865 27.8569 6.32412 28.0974 6.22625L27.7052 5.26234C27.3374 5.41199 27.0029 5.63299 26.721 5.91259L27.4538 6.6515ZM28.0974 6.22625C28.338 6.12838 28.5955 6.07911 28.8552 6.08128L28.8639 5.04067C28.4668 5.03735 28.073 5.11268 27.7052 5.26234L28.0974 6.22625ZM23.2156 22.9921C22.8764 23.0012 22.5544 23.1436 22.3195 23.3883L23.0702 24.109C23.1157 24.0617 23.178 24.0341 23.2436 24.0323L23.2156 22.9921ZM22.3195 23.3883C22.0845 23.6331 21.9553 23.9606 21.9601 24.2999L23.0006 24.2855C22.9997 24.2198 23.0247 24.1564 23.0702 24.109L22.3195 23.3883ZM21.96 24.2927V25.0524H23.0007V24.2927H21.96ZM22.3479 24.5492C21.435 24.7894 20.6389 25.3499 20.105 26.1285L20.9632 26.717C21.3559 26.1445 21.9413 25.7322 22.6128 25.5555L22.3479 24.5492ZM20.105 26.1285C19.571 26.907 19.3349 27.8515 19.4396 28.7897L20.4738 28.6743C20.3968 27.9843 20.5705 27.2896 20.9632 26.717L20.105 26.1285ZM19.4396 28.7897C19.5443 29.7279 19.983 30.5971 20.6754 31.2387L21.3827 30.4754C20.8734 30.0035 20.5509 29.3642 20.4738 28.6743L19.4396 28.7897ZM20.6754 31.2387C21.3679 31.8803 22.268 32.2515 23.2114 32.2846L23.2478 31.2445C22.554 31.2203 21.892 30.9473 21.3827 30.4754L20.6754 31.2387ZM23.2296 32.2849C23.4045 32.2849 23.5777 32.3193 23.7393 32.3863L24.1376 31.4248C23.8497 31.3056 23.5412 31.2442 23.2296 31.2442V32.2849ZM23.7393 32.3863C23.901 32.4532 24.0478 32.5513 24.1715 32.675L24.9073 31.9392C24.687 31.7188 24.4255 31.5441 24.1376 31.4248L23.7393 32.3863ZM24.1715 32.675C24.2952 32.7987 24.3933 32.9456 24.4602 33.1072L25.4217 32.7089C25.3024 32.4211 25.1277 32.1595 24.9073 31.9392L24.1715 32.675ZM24.4602 33.1072C24.5272 33.2688 24.5616 33.442 24.5616 33.6169H25.6023C25.6023 33.3053 25.5409 32.9968 25.4217 32.7089L24.4602 33.1072ZM24.5616 33.6169C24.5616 33.7918 24.5272 33.965 24.4602 34.1267L25.4217 34.5249C25.5409 34.237 25.6023 33.9285 25.6023 33.6169H24.5616ZM24.4602 34.1267C24.3933 34.2883 24.2952 34.4351 24.1715 34.5588L24.9073 35.2947C25.1277 35.0743 25.3024 34.8128 25.4217 34.5249L24.4602 34.1267ZM24.1715 34.5588C24.0478 34.6825 23.901 34.7806 23.7393 34.8475L24.1376 35.809C24.4255 35.6897 24.687 35.515 24.9073 35.2947L24.1715 34.5588ZM23.7393 34.8475C23.5777 34.9145 23.4045 34.9489 23.2296 34.9489V35.9896C23.5412 35.9896 23.8497 35.9282 24.1376 35.809L23.7393 34.8475ZM23.2354 34.949C22.8833 34.945 22.5468 34.8029 22.2985 34.5532L21.5605 35.287C22.0013 35.7303 22.5987 35.9826 23.2238 35.9896L23.2354 34.949ZM22.2985 34.5532C22.0502 34.3035 21.9099 33.9662 21.908 33.614L20.8673 33.6198C20.8708 34.2449 21.1197 34.8437 21.5605 35.287L22.2985 34.5532ZM21.908 33.6169C21.908 33.2719 21.7709 32.941 21.527 32.6971L20.7911 33.4329C20.8399 33.4817 20.8673 33.5479 20.8673 33.6169H21.908ZM21.527 32.6971C21.283 32.4531 20.9522 32.3161 20.6072 32.3161V33.3567C20.6762 33.3567 20.7423 33.3842 20.7911 33.4329L21.527 32.6971ZM20.6072 32.3161C20.2622 32.3161 19.9313 32.4531 19.6873 32.6971L20.4232 33.4329C20.472 33.3842 20.5382 33.3567 20.6072 33.3567V32.3161ZM19.6873 32.6971C19.4434 32.941 19.3063 33.2719 19.3063 33.6169H20.347C20.347 33.5479 20.3744 33.4817 20.4232 33.4329L19.6873 32.6971ZM19.3063 33.6178C19.3078 34.5057 19.6096 35.3669 20.1627 36.0615L20.9768 35.4133C20.57 34.9025 20.3481 34.269 20.347 33.616L19.3063 33.6178ZM20.1627 36.0615C20.7158 36.7561 21.4875 37.2432 22.3525 37.4435L22.5873 36.4297C21.9512 36.2824 21.3835 35.9241 20.9768 35.4133L20.1627 36.0615ZM21.9496 36.9366V37.8211H22.9903V36.9366H21.9496ZM21.9496 37.8211C21.9496 38.1661 22.0866 38.497 22.3306 38.741L23.0665 38.0051C23.0177 37.9563 22.9903 37.8901 22.9903 37.8211H21.9496ZM22.3306 38.741C22.5746 38.9849 22.9054 39.1219 23.2504 39.1219V38.0813C23.1814 38.0813 23.1152 38.0539 23.0665 38.0051L22.3306 38.741ZM23.2504 39.1219C23.5954 39.1219 23.9263 38.9849 24.1702 38.741L23.4344 38.0051C23.3856 38.0539 23.3194 38.0813 23.2504 38.0813V39.1219ZM24.1702 38.741C24.4142 38.497 24.5512 38.1661 24.5512 37.8211H23.5106C23.5106 37.8901 23.4832 37.9563 23.4344 38.0051L24.1702 38.741ZM24.5512 37.8211V36.9366H23.5106V37.8211H24.5512ZM24.152 37.4426C25.0897 37.2183 25.9124 36.6574 26.4638 35.8664L25.6101 35.2713C25.2046 35.853 24.5995 36.2656 23.9099 36.4305L24.152 37.4426ZM26.4638 35.8664C27.0152 35.0754 27.2569 34.1095 27.1429 33.152L26.1096 33.275C26.1934 33.9792 26.0156 34.6896 25.6101 35.2713L26.4638 35.8664ZM27.1429 33.152C27.029 32.1946 26.5673 31.3123 25.8457 30.6729L25.1555 31.4517C25.6863 31.922 26.0258 32.5709 26.1096 33.275L27.1429 33.152ZM25.8457 30.6729C25.1241 30.0334 24.1927 29.6812 23.2285 29.6833L23.2307 30.7239C23.9398 30.7224 24.6248 30.9814 25.1555 31.4517L25.8457 30.6729ZM23.2267 29.6833C22.9609 29.6847 22.7006 29.6073 22.4788 29.4607L21.9049 30.3288C22.2986 30.589 22.7606 30.7265 23.2325 30.7239L23.2267 29.6833ZM22.4788 29.4607C22.2571 29.3141 22.0839 29.1049 21.9811 28.8598L21.0214 29.262C21.2038 29.6973 21.5113 30.0685 21.9049 30.3288L22.4788 29.4607ZM21.9811 28.8598C21.8784 28.6146 21.8507 28.3444 21.9016 28.0836L20.8803 27.8841C20.7898 28.3472 20.8389 28.8268 21.0214 29.262L21.9811 28.8598ZM21.9016 28.0836C21.9526 27.8227 22.0798 27.5828 22.2673 27.3943L21.5294 26.6605C21.1966 26.9951 20.9707 27.421 20.8803 27.8841L21.9016 28.0836ZM22.2673 27.3943C22.4547 27.2058 22.6939 27.0772 22.9545 27.0247L22.7494 26.0045C22.2867 26.0976 21.8621 26.3259 21.5294 26.6605L22.2673 27.3943ZM22.9545 27.0247C23.2151 26.9723 23.4854 26.9985 23.7312 27.0999L24.1281 26.1379C23.6918 25.9579 23.212 25.9115 22.7494 26.0045L22.9545 27.0247ZM23.7312 27.0999C23.9769 27.2013 24.187 27.3733 24.3349 27.5942L25.1997 27.0155C24.9373 26.6233 24.5643 26.3178 24.1281 26.1379L23.7312 27.0999ZM24.3349 27.5942C24.4827 27.8151 24.5616 28.075 24.5616 28.3408L25.6023 28.3408C25.6023 27.8689 25.4622 27.4076 25.1997 27.0155L24.3349 27.5942ZM24.5616 28.3408C24.5616 28.6858 24.6987 29.0167 24.9426 29.2606L25.6785 28.5248C25.6297 28.476 25.6023 28.4098 25.6023 28.3408H24.5616ZM24.9426 29.2606C25.1866 29.5046 25.5175 29.6416 25.8624 29.6416V28.601C25.7934 28.601 25.7273 28.5736 25.6785 28.5248L24.9426 29.2606ZM25.8624 29.6416C26.2074 29.6416 26.5383 29.5046 26.7823 29.2606L26.0464 28.5248C25.9976 28.5736 25.9314 28.601 25.8624 28.601V29.6416ZM26.7823 29.2606C27.0262 29.0167 27.1633 28.6858 27.1633 28.3408H26.1226C26.1226 28.4098 26.0952 28.476 26.0464 28.5248L26.7823 29.2606ZM27.1633 28.3403C27.1624 27.4541 26.8623 26.5941 26.3116 25.8997L25.4963 26.5463C25.9013 27.057 26.122 27.6895 26.1226 28.3413L27.1633 28.3403ZM26.3116 25.8997C25.7609 25.2053 24.9918 24.7172 24.1291 24.5146L23.8911 25.5277C24.5256 25.6767 25.0912 26.0357 25.4963 26.5463L26.3116 25.8997ZM24.5304 25.0211V24.2615H23.4898V25.0211H24.5304ZM24.5297 24.2341C24.5122 23.9014 24.3687 23.5879 24.1283 23.3571L23.4077 24.1078C23.4573 24.1555 23.4869 24.2202 23.4905 24.2888L24.5297 24.2341ZM24.1283 23.3571C23.888 23.1264 23.5689 22.9958 23.2357 22.9919L23.2235 24.0325C23.2922 24.0333 23.3581 24.0602 23.4077 24.1078L24.1283 23.3571ZM30.8784 26.1138C30.3892 26.1138 29.9183 26.2111 29.5504 26.3951C29.2112 26.5647 28.8075 26.8949 28.8075 27.4146H29.8481C29.8481 27.4973 29.7931 27.4372 30.0158 27.3259C30.2098 27.2289 30.5143 27.1545 30.8784 27.1545V26.1138ZM28.8075 27.4146C28.8075 27.9344 29.2112 28.2646 29.5504 28.4342C29.9183 28.6181 30.3892 28.7154 30.8784 28.7154V27.6748C30.5143 27.6748 30.2098 27.6004 30.0158 27.5034C29.7931 27.392 29.8481 27.3319 29.8481 27.4146H28.8075ZM30.8784 28.7154H49.6101V27.6748H30.8784V28.7154ZM49.6101 28.7154C50.1018 28.7154 50.5728 28.6146 50.9398 28.4294C51.2745 28.2605 51.681 27.931 51.681 27.4146H50.6404C50.6404 27.3249 50.6983 27.3856 50.471 27.5003C50.276 27.5987 49.9717 27.6748 49.6101 27.6748V28.7154ZM51.681 27.4146C51.681 26.8982 51.2745 26.5687 50.9398 26.3999C50.5728 26.2147 50.1018 26.1138 49.6101 26.1138V27.1545C49.9717 27.1545 50.276 27.2306 50.471 27.3289C50.6983 27.4436 50.6404 27.5044 50.6404 27.4146H51.681ZM49.6101 26.1138H30.8784V27.1545H49.6101V26.1138ZM30.8784 29.8914C30.3848 29.8914 29.9133 29.9884 29.5456 30.1731C29.2043 30.3445 28.8075 30.6754 28.8075 31.1922H29.8481C29.8481 31.2719 29.7947 31.2125 30.0128 31.103C30.2044 31.0067 30.5082 30.932 30.8784 30.932V29.8914ZM28.8075 31.1922C28.8075 31.7089 29.2043 32.0398 29.5456 32.2113C29.9133 32.396 30.3848 32.493 30.8784 32.493V31.4524C30.5082 31.4524 30.2044 31.3777 30.0128 31.2814C29.7947 31.1719 29.8481 31.1125 29.8481 31.1922H28.8075ZM30.8784 32.493H47.1646V31.4524H30.8784V32.493ZM47.1646 32.493C47.6563 32.493 48.1273 32.3922 48.4943 32.207C48.8289 32.0381 49.2355 31.7086 49.2355 31.1922H48.1948C48.1948 31.1025 48.2528 31.1632 48.0255 31.2779C47.8305 31.3763 47.5262 31.4524 47.1646 31.4524V32.493ZM49.2355 31.1922C49.2355 30.6724 48.8318 30.3423 48.4926 30.1727C48.1246 29.9887 47.6538 29.8914 47.1646 29.8914V30.932C47.5287 30.932 47.8332 31.0064 48.0272 31.1034C48.2499 31.2148 48.1948 31.2749 48.1948 31.1922H49.2355ZM47.1646 29.8914H30.8784V30.932H47.1646V29.8914ZM31.1386 33.3984C30.6493 33.3984 30.1785 33.4957 29.8106 33.6796C29.4713 33.8493 29.0677 34.1794 29.0677 34.6992H30.1083C30.1083 34.7819 30.0533 34.7218 30.276 34.6104C30.47 34.5134 30.7744 34.439 31.1386 34.439V33.3984ZM29.0677 34.6992C29.0677 35.219 29.4713 35.5491 29.8106 35.7187C30.1785 35.9027 30.6493 36 31.1386 36V34.9593C30.7744 34.9593 30.47 34.8849 30.276 34.7879C30.0533 34.6766 30.1083 34.6165 30.1083 34.6992H29.0677ZM31.1386 36H41.6179V34.9593H31.1386V36ZM41.6179 36C42.114 36 42.5856 35.8995 42.9524 35.7135C43.2891 35.5428 43.6888 35.2126 43.6888 34.6992H42.6482C42.6482 34.6124 42.7044 34.6725 42.4818 34.7853C42.2892 34.883 41.9856 34.9593 41.6179 34.9593V36ZM43.6888 34.6992C43.6888 34.1858 43.2891 33.8556 42.9524 33.6849C42.5856 33.4989 42.114 33.3984 41.6179 33.3984V34.439C41.9856 34.439 42.2892 34.5154 42.4818 34.613C42.7044 34.7259 42.6482 34.7859 42.6482 34.6992H43.6888ZM41.6179 33.3984H31.1386V34.439H41.6179V33.3984ZM23.2156 43.2327C22.8764 43.2418 22.5545 43.3842 22.3195 43.629L23.0702 44.3497C23.1156 44.3023 23.178 44.2747 23.2436 44.273L23.2156 43.2327ZM22.3195 43.629C22.0845 43.8738 21.9553 44.2013 21.9601 44.5406L23.0006 44.5261C22.9997 44.4604 23.0247 44.3971 23.0702 44.3497L22.3195 43.629ZM21.96 44.5333V45.293H23.0007V44.5333H21.96ZM22.3661 44.7854C21.4217 44.9979 20.5887 45.5512 20.0267 46.3394L20.8741 46.9435C21.2874 46.3638 21.9 45.9569 22.5946 45.8006L22.3661 44.7854ZM20.0267 46.3394C19.4647 47.1276 19.2131 48.0954 19.32 49.0575L20.3543 48.9426C20.2757 48.235 20.4607 47.5232 20.8741 46.9435L20.0267 46.3394ZM19.32 49.0575C19.4269 50.0196 19.8848 50.9086 20.6062 51.5542L21.3002 50.7787C20.7697 50.3039 20.4329 49.6502 20.3543 48.9426L19.32 49.0575ZM20.6062 51.5542C21.3275 52.1998 22.2615 52.5567 23.2296 52.5567V51.5161C22.5176 51.5161 21.8307 51.2536 21.3002 50.7787L20.6062 51.5542ZM23.2296 52.5567C23.587 52.5567 23.9298 52.6987 24.1825 52.9515L24.9184 52.2156C24.4705 51.7677 23.863 51.5161 23.2296 51.5161V52.5567ZM24.1825 52.9515C24.4353 53.2042 24.5772 53.547 24.5772 53.9044H25.6179C25.6179 53.271 25.3663 52.6635 24.9184 52.2156L24.1825 52.9515ZM24.5772 53.9044C24.5772 54.2618 24.4353 54.6046 24.1825 54.8573L24.9184 55.5932C25.3663 55.1453 25.6179 54.5378 25.6179 53.9044H24.5772ZM24.1825 54.8573C23.9298 55.11 23.587 55.252 23.2296 55.252V56.2927C23.863 56.2927 24.4705 56.0411 24.9184 55.5932L24.1825 54.8573ZM23.2354 55.2521C22.8833 55.2481 22.5468 55.106 22.2985 54.8563L21.5605 55.5901C22.0013 56.0333 22.5987 56.2857 23.2238 56.2926L23.2354 55.2521ZM22.2985 54.8563C22.0502 54.6066 21.9099 54.2693 21.908 53.9171L20.8673 53.9229C20.8708 54.548 21.1197 55.1468 21.5605 55.5901L22.2985 54.8563ZM21.908 53.92C21.908 53.575 21.7709 53.2441 21.527 53.0002L20.7911 53.736C20.8399 53.7848 20.8673 53.851 20.8673 53.92H21.908ZM21.527 53.0002C21.283 52.7562 20.9522 52.6192 20.6072 52.6192V53.6598C20.6762 53.6598 20.7423 53.6872 20.7911 53.736L21.527 53.0002ZM20.6072 52.6192C20.2622 52.6192 19.9313 52.7562 19.6873 53.0002L20.4232 53.736C20.472 53.6872 20.5382 53.6598 20.6072 53.6598V52.6192ZM19.6873 53.0002C19.4434 53.2441 19.3063 53.575 19.3063 53.92H20.347C20.347 53.851 20.3744 53.7848 20.4232 53.736L19.6873 53.0002ZM19.3064 53.9221C19.31 54.8091 19.6124 55.6689 20.1649 56.3628L20.979 55.7146C20.5723 55.2038 20.3496 54.5708 20.347 53.9179L19.3064 53.9221ZM20.1649 56.3628C20.7174 57.0567 21.4877 57.5441 22.3513 57.7463L22.5885 56.733C21.9528 56.5842 21.3858 56.2254 20.979 55.7146L20.1649 56.3628ZM21.9496 57.2397V58.1242H22.9903V57.2397H21.9496ZM21.9496 58.1242C21.9496 58.4692 22.0866 58.8001 22.3306 59.044L23.0665 58.3082C23.0177 58.2594 22.9903 58.1932 22.9903 58.1242H21.9496ZM22.3306 59.044C22.5746 59.288 22.9054 59.425 23.2504 59.425V58.3844C23.1814 58.3844 23.1152 58.357 23.0665 58.3082L22.3306 59.044ZM23.2504 59.425C23.5954 59.425 23.9263 59.288 24.1702 59.044L23.4344 58.3082C23.3856 58.357 23.3194 58.3844 23.2504 58.3844V59.425ZM24.1702 59.044C24.4142 58.8001 24.5512 58.4692 24.5512 58.1242H23.5106C23.5106 58.1932 23.4832 58.2594 23.4344 58.3082L24.1702 59.044ZM24.5512 58.1242V57.2397H23.5106V58.1242H24.5512ZM24.1264 57.7512C25.1074 57.5681 25.9821 57.0189 26.5734 56.215L25.7351 55.5984C25.3002 56.1897 24.6569 56.5935 23.9354 56.7282L24.1264 57.7512ZM26.5734 56.215C27.1647 55.4111 27.4284 54.4126 27.311 53.4215L26.2775 53.544C26.3639 54.2728 26.17 55.0072 25.7351 55.5984L26.5734 56.215ZM27.311 53.4215C27.1936 52.4305 26.7039 51.5212 25.9411 50.8777L25.2701 51.6731C25.8311 52.1463 26.1912 52.8151 26.2775 53.544L27.311 53.4215ZM25.9411 50.8777C25.1784 50.2342 24.1996 49.9046 23.2029 49.9558L23.2563 50.9951C23.9893 50.9575 24.7091 51.1998 25.2701 51.6731L25.9411 50.8777ZM23.2267 49.9551C22.9609 49.9566 22.7006 49.8791 22.4788 49.7325L21.9049 50.6006C22.2986 50.8609 22.7606 50.9984 23.2325 50.9958L23.2267 49.9551ZM22.4788 49.7325C22.2571 49.5859 22.0839 49.3768 21.9811 49.1316L21.0214 49.5339C21.2038 49.9691 21.5113 50.3404 21.9049 50.6006L22.4788 49.7325ZM21.9811 49.1316C21.8784 48.8865 21.8507 48.6163 21.9016 48.3554L20.8803 48.156C20.7898 48.6191 20.8389 49.0987 21.0214 49.5339L21.9811 49.1316ZM21.9016 48.3554C21.9526 48.0945 22.0798 47.8546 22.2673 47.6661L21.5294 46.9323C21.1966 47.267 20.9707 47.6928 20.8803 48.156L21.9016 48.3554ZM22.2673 47.6661C22.4547 47.4776 22.6939 47.349 22.9545 47.2966L22.7494 46.2764C22.2867 46.3694 21.8621 46.5977 21.5294 46.9323L22.2673 47.6661ZM22.9545 47.2966C23.2151 47.2442 23.4854 47.2704 23.7312 47.3717L24.1281 46.4097C23.6918 46.2298 23.212 46.1834 22.7494 46.2764L22.9545 47.2966ZM23.7312 47.3717C23.9769 47.4731 24.187 47.6452 24.3349 47.8661L25.1997 47.2873C24.9373 46.8951 24.5643 46.5897 24.1281 46.4097L23.7312 47.3717ZM24.3349 47.8661C24.4827 48.087 24.5616 48.3469 24.5616 48.6127L25.6023 48.6127C25.6023 48.1408 25.4622 47.6795 25.1997 47.2873L24.3349 47.8661ZM24.5616 48.6127C24.5616 48.9577 24.6987 49.2885 24.9426 49.5325L25.6785 48.7966C25.6297 48.7479 25.6023 48.6817 25.6023 48.6127H24.5616ZM24.9426 49.5325C25.1866 49.7764 25.5175 49.9135 25.8624 49.9135V48.8728C25.7934 48.8728 25.7273 48.8454 25.6785 48.7966L24.9426 49.5325ZM25.8624 49.9135C26.2074 49.9135 26.5383 49.7764 26.7823 49.5325L26.0464 48.7966C25.9976 48.8454 25.9314 48.8728 25.8624 48.8728V49.9135ZM26.7823 49.5325C27.0262 49.2885 27.1633 48.9577 27.1633 48.6127H26.1226C26.1226 48.6817 26.0952 48.7479 26.0464 48.7966L26.7823 49.5325ZM27.1633 48.6122C27.1624 47.7259 26.8623 46.8659 26.3116 46.1716L25.4963 46.8182C25.9013 47.3289 26.122 47.9614 26.1226 48.6132L27.1633 48.6122ZM26.3116 46.1716C25.7609 45.4772 24.9918 44.9891 24.1291 44.7865L23.8911 45.7995C24.5256 45.9486 25.0912 46.3075 25.4963 46.8182L26.3116 46.1716ZM24.5304 45.293V44.5333H23.4898V45.293H24.5304ZM24.5304 44.5265C24.5258 44.1817 24.3857 43.8526 24.1403 43.6104L23.4093 44.3512C23.46 44.4011 23.4889 44.469 23.4898 44.5402L24.5304 44.5265ZM24.1403 43.6104C23.8949 43.3683 23.5639 43.2325 23.2191 43.2325L23.2192 44.2732C23.2904 44.2732 23.3587 44.3012 23.4093 44.3512L24.1403 43.6104ZM23.2192 44.2732H23.2296V43.2325H23.2192V44.2732ZM30.8784 46.3545C30.3892 46.3545 29.9183 46.4518 29.5504 46.6357C29.2112 46.8054 28.8075 47.1355 28.8075 47.6553H29.8481C29.8481 47.738 29.7931 47.6779 30.0158 47.5665C30.2098 47.4695 30.5143 47.3951 30.8784 47.3951V46.3545ZM28.8075 47.6553C28.8075 48.1751 29.2112 48.5052 29.5504 48.6748C29.9183 48.8588 30.3892 48.9561 30.8784 48.9561V47.9154C30.5143 47.9154 30.2098 47.841 30.0158 47.744C29.7931 47.6327 29.8481 47.5726 29.8481 47.6553H28.8075ZM30.8784 48.9561H49.6101V47.9154H30.8784V48.9561ZM49.6101 48.9561C50.1018 48.9561 50.5728 48.8553 50.9398 48.6701C51.2745 48.5012 51.681 48.1717 51.681 47.6553H50.6404C50.6404 47.5656 50.6983 47.6263 50.471 47.741C50.276 47.8394 49.9717 47.9154 49.6101 47.9154V48.9561ZM51.681 47.6553C51.681 47.1389 51.2745 46.8094 50.9398 46.6405C50.5728 46.4553 50.1018 46.3545 49.6101 46.3545V47.3951C49.9717 47.3951 50.276 47.4712 50.471 47.5696C50.6983 47.6843 50.6404 47.745 50.6404 47.6553H51.681ZM49.6101 46.3545H30.8784V47.3951H49.6101V46.3545ZM30.8784 50.132C30.3848 50.132 29.9133 50.229 29.5456 50.4137C29.2043 50.5852 28.8075 50.9161 28.8075 51.4328H29.8481C29.8481 51.5125 29.7947 51.4532 30.0128 51.3437C30.2044 51.2474 30.5082 51.1727 30.8784 51.1727V50.132ZM28.8075 51.4328C28.8075 51.9496 29.2043 52.2805 29.5456 52.452C29.9133 52.6367 30.3848 52.7337 30.8784 52.7337V51.693C30.5082 51.693 30.2044 51.6183 30.0128 51.522C29.7947 51.4125 29.8481 51.3532 29.8481 51.4328H28.8075ZM30.8784 52.7337H47.1646V51.693H30.8784V52.7337ZM47.1646 52.7337C47.6563 52.7337 48.1273 52.6328 48.4943 52.4476C48.8289 52.2787 49.2355 51.9492 49.2355 51.4328H48.1948C48.1948 51.3431 48.2528 51.4039 48.0255 51.5186C47.8305 51.6169 47.5262 51.693 47.1646 51.693V52.7337ZM49.2355 51.4328C49.2355 50.9164 48.8289 50.5869 48.4943 50.4181C48.1273 50.2329 47.6563 50.132 47.1646 50.132V51.1727C47.5262 51.1727 47.8305 51.2488 48.0255 51.3471C48.2528 51.4618 48.1948 51.5226 48.1948 51.4328H49.2355ZM47.1646 50.132H30.8784V51.1727H47.1646V50.132ZM31.149 53.7119C30.6597 53.7119 30.1889 53.8092 29.821 53.9931C29.4817 54.1628 29.0781 54.4929 29.0781 55.0127H30.1187C30.1187 55.0954 30.0637 55.0353 30.2864 54.9239C30.4804 54.8269 30.7848 54.7525 31.149 54.7525V53.7119ZM29.0781 55.0127C29.0781 55.5325 29.4817 55.8626 29.821 56.0322C30.1889 56.2162 30.6597 56.3135 31.149 56.3135V55.2728C30.7848 55.2728 30.4804 55.1984 30.2864 55.1014C30.0637 54.9901 30.1187 54.93 30.1187 55.0127H29.0781ZM31.149 56.3135H41.6179V55.2728H31.149V56.3135ZM41.6179 56.3135C42.114 56.3135 42.5856 56.213 42.9524 56.027C43.2891 55.8563 43.6888 55.5261 43.6888 55.0127H42.6482C42.6482 54.9259 42.7044 54.986 42.4818 55.0988C42.2892 55.1965 41.9856 55.2728 41.6179 55.2728V56.3135ZM43.6888 55.0127C43.6888 54.4993 43.2891 54.1691 42.9524 53.9983C42.5856 53.8124 42.114 53.7119 41.6179 53.7119V54.7525C41.9856 54.7525 42.2892 54.8289 42.4818 54.9265C42.7044 55.0394 42.6482 55.0994 42.6482 55.0127H43.6888ZM41.6179 53.7119H31.149V54.7525H41.6179V53.7119Z" fill="#0B2D1F"/>
</g>
</g>
</svg>
