<svg width="72" height="72" viewBox="0 0 72 72" fill="none" xmlns="http://www.w3.org/2000/svg">
<g id="scurve">
<g id="Group 1171275623">
<g id="Group">
<g id="Vector">
<path d="M29.887 4.07675C27.9495 4.40174 25.9246 5.37672 24.5871 6.62668L23.6622 7.48916H19.9123C15.8249 7.48916 15.2624 7.55166 14.0874 8.13914C12.675 8.85162 11.4875 10.3891 11.15 11.964C10.95 12.9015 10.95 62.5751 11.15 63.5126C11.35 64.4376 11.925 65.5376 12.5875 66.2375C13.2374 66.925 14.5249 67.65 15.4874 67.85C16.4249 68.05 56.3488 68.05 57.2862 67.85C59.4112 67.4 61.1736 65.6251 61.6236 63.5126C61.8236 62.5626 61.8236 12.9015 61.6236 11.964C61.1736 9.85159 59.3862 8.06414 57.2862 7.62666C56.8862 7.53916 55.1363 7.48916 52.8614 7.48916H49.099L48.2615 6.68918C47.3115 5.8017 46.3615 5.18922 45.0866 4.68924C43.4491 4.02675 42.8991 3.98926 36.2868 4.00175C32.9369 4.01425 30.062 4.05175 29.887 4.07675ZM42.8741 7.92665C43.3116 8.03914 44.0241 8.30164 44.4366 8.51413C45.6865 9.17661 47.0865 10.7641 47.449 11.9515L47.524 12.239H36.3868H25.2496L25.3246 11.9515C25.5371 11.2891 26.1246 10.3766 26.8371 9.6516C27.662 8.81412 28.962 8.07664 30.0245 7.87665C30.3245 7.81415 33.1619 7.76415 36.3243 7.75165C41.0492 7.73915 42.2116 7.77665 42.8741 7.92665ZM21.4247 12.0765C21.3247 12.5515 21.2622 13.3765 21.2872 13.9515C21.3247 15.0515 21.5247 15.4139 22.2872 15.8139C22.7872 16.0764 49.9864 16.0764 50.4864 15.8139C51.2489 15.4139 51.4489 15.0515 51.4864 13.9515C51.5114 13.3765 51.4489 12.5515 51.3489 12.0765L51.1739 11.2391H53.8113C56.8362 11.2391 57.2362 11.3391 57.7362 12.2265L58.0112 12.714V37.7383V62.7626L57.7487 63.2376C57.5987 63.5001 57.2737 63.8251 57.0112 63.9751L56.5362 64.2376H36.3868H16.2374L15.7624 63.9751C15.4999 63.8251 15.1749 63.5001 15.0249 63.2376L14.7624 62.7626V37.7383V12.714L15.0374 12.2265C15.5374 11.3391 15.9249 11.2391 18.9623 11.2391H21.5997L21.4247 12.0765Z" fill="#4D0000"/>
<path d="M21.4247 12.0765C21.3247 12.5515 21.2622 13.3765 21.2872 13.9515C21.3247 15.0515 21.5247 15.4139 22.2872 15.8139C22.7872 16.0764 49.9864 16.0764 50.4864 15.8139C51.2489 15.4139 51.4489 15.0515 51.4864 13.9515C51.5114 13.3765 51.4489 12.5515 51.3489 12.0765L51.1739 11.2391H53.8113C56.8362 11.2391 57.2362 11.3391 57.7362 12.2265L58.0112 12.714V37.7383V62.7626L57.7487 63.2376C57.5987 63.5001 57.2737 63.8251 57.0112 63.9751L56.5362 64.2376H36.3868H16.2374L15.7624 63.9751C15.4999 63.8251 15.1749 63.5001 15.0249 63.2376L14.7624 62.7626V37.7383V12.714L15.0374 12.2265C15.5374 11.3391 15.9249 11.2391 18.9623 11.2391H21.5997L21.4247 12.0765Z" fill="#BE1A2E"/>
</g>
</g>
<g id="Group 1171274935">
<g id="Group 1171274948">
<g id="Group_2">
<g id="Vector_2">
<mask id="path-2-outside-1_6486_46412" maskUnits="userSpaceOnUse" x="25.9023" y="31.5054" width="26" height="19" fill="black">
<rect fill="white" x="25.9023" y="31.5054" width="26" height="19"/>
<path d="M50.6177 36.7847L47.1629 32.7031C47.0455 32.5646 46.8812 32.4915 46.7081 32.5075C46.5382 32.5229 46.3827 32.6231 46.2864 32.7803C46.2864 32.7803 43.755 36.9176 43.6307 37.1229C43.4552 37.411 43.5226 37.8028 43.78 37.9984C43.8775 38.0721 43.988 38.1069 44.0968 38.1069C44.2773 38.1069 44.4553 38.0102 44.5641 37.8313C44.6434 37.7012 45.6892 35.9913 46.4445 34.7575C46.7369 36.9781 47.0592 41.6485 44.9626 43.4808C43.4801 44.7752 40.9575 44.4384 37.4658 42.4773C35.1881 41.1968 33.1327 41.0221 31.3566 41.9568C28.0186 43.7119 26.9597 48.7371 26.9166 48.9501C26.8472 49.2897 27.0378 49.6265 27.3414 49.7037C27.3833 49.7149 27.4257 49.7197 27.467 49.7197C27.7244 49.7197 27.9574 49.5221 28.0174 49.2305C28.0267 49.1846 29.002 44.5838 31.842 43.0932C33.287 42.336 35.0075 42.5065 36.9579 43.6019C40.8738 45.8017 43.8013 46.0954 45.6586 44.4718C48.0557 42.3778 47.9201 37.6894 47.6271 35.0866L49.7968 37.6504C50.0111 37.9037 50.3684 37.9141 50.5946 37.6754C50.8214 37.4367 50.8314 37.038 50.6177 36.7847Z"/>
</mask>
<path d="M50.6177 36.7847L47.1629 32.7031C47.0455 32.5646 46.8812 32.4915 46.7081 32.5075C46.5382 32.5229 46.3827 32.6231 46.2864 32.7803C46.2864 32.7803 43.755 36.9176 43.6307 37.1229C43.4552 37.411 43.5226 37.8028 43.78 37.9984C43.8775 38.0721 43.988 38.1069 44.0968 38.1069C44.2773 38.1069 44.4553 38.0102 44.5641 37.8313C44.6434 37.7012 45.6892 35.9913 46.4445 34.7575C46.7369 36.9781 47.0592 41.6485 44.9626 43.4808C43.4801 44.7752 40.9575 44.4384 37.4658 42.4773C35.1881 41.1968 33.1327 41.0221 31.3566 41.9568C28.0186 43.7119 26.9597 48.7371 26.9166 48.9501C26.8472 49.2897 27.0378 49.6265 27.3414 49.7037C27.3833 49.7149 27.4257 49.7197 27.467 49.7197C27.7244 49.7197 27.9574 49.5221 28.0174 49.2305C28.0267 49.1846 29.002 44.5838 31.842 43.0932C33.287 42.336 35.0075 42.5065 36.9579 43.6019C40.8738 45.8017 43.8013 46.0954 45.6586 44.4718C48.0557 42.3778 47.9201 37.6894 47.6271 35.0866L49.7968 37.6504C50.0111 37.9037 50.3684 37.9141 50.5946 37.6754C50.8214 37.4367 50.8314 37.038 50.6177 36.7847Z" fill="#4D0000"/>
<path d="M50.6177 36.7847L47.1629 32.7031C47.0455 32.5646 46.8812 32.4915 46.7081 32.5075C46.5382 32.5229 46.3827 32.6231 46.2864 32.7803C46.2864 32.7803 43.755 36.9176 43.6307 37.1229C43.4552 37.411 43.5226 37.8028 43.78 37.9984C43.8775 38.0721 43.988 38.1069 44.0968 38.1069C44.2773 38.1069 44.4553 38.0102 44.5641 37.8313C44.6434 37.7012 45.6892 35.9913 46.4445 34.7575C46.7369 36.9781 47.0592 41.6485 44.9626 43.4808C43.4801 44.7752 40.9575 44.4384 37.4658 42.4773C35.1881 41.1968 33.1327 41.0221 31.3566 41.9568C28.0186 43.7119 26.9597 48.7371 26.9166 48.9501C26.8472 49.2897 27.0378 49.6265 27.3414 49.7037C27.3833 49.7149 27.4257 49.7197 27.467 49.7197C27.7244 49.7197 27.9574 49.5221 28.0174 49.2305C28.0267 49.1846 29.002 44.5838 31.842 43.0932C33.287 42.336 35.0075 42.5065 36.9579 43.6019C40.8738 45.8017 43.8013 46.0954 45.6586 44.4718C48.0557 42.3778 47.9201 37.6894 47.6271 35.0866L49.7968 37.6504C50.0111 37.9037 50.3684 37.9141 50.5946 37.6754C50.8214 37.4367 50.8314 37.038 50.6177 36.7847Z" stroke="#4D0000" stroke-width="0.906667" mask="url(#path-2-outside-1_6486_46412)"/>
</g>
</g>
<g id="Subtract">
<mask id="path-3-outside-2_6486_46412" maskUnits="userSpaceOnUse" x="18" y="25" width="36" height="28" fill="black">
<rect fill="white" x="18" y="25" width="36" height="28"/>
<path fill-rule="evenodd" clip-rule="evenodd" d="M22.1836 44.783H24.0437C25.1074 44.783 25.1074 42.9293 24.0437 42.9293H22.1836V39.1472H24.0437C25.1074 39.1472 25.1074 37.3672 24.0437 37.3672H22.1836V33.5113H24.0437C25.1074 33.5113 25.1074 31.7313 24.0437 31.7313H22.1836V28.6906L22.5818 28.9876C23.446 29.6553 24.3103 28.1724 23.5122 27.5046L22.0503 26.3177C21.6522 25.9469 21.2532 25.8732 20.7879 26.2439L19.326 27.5046C18.7275 28.0239 18.9941 29.1361 19.7913 29.1361C20.0196 29.1361 20.199 28.972 20.4556 28.7374C20.4976 28.699 20.5417 28.6587 20.5884 28.6169V49.4552C20.5884 49.9734 20.9212 50.3442 21.3856 50.3442H50.6244L50.3587 50.7149C49.694 51.7534 51.0897 52.6434 51.6211 51.8282L52.7511 50.1219C53.083 49.6775 53.083 49.232 52.7511 48.7875L51.6211 47.0823C51.4225 46.7105 50.8902 46.6368 50.5582 46.9338C50.2263 47.2298 50.1592 47.749 50.3587 48.1197L50.6244 48.5652H48.5471V48.579H27.2467V48.4662C27.0706 48.5071 26.8891 48.5402 26.7017 48.5652H22.1836V44.783Z"/>
</mask>
<path fill-rule="evenodd" clip-rule="evenodd" d="M22.1836 44.783H24.0437C25.1074 44.783 25.1074 42.9293 24.0437 42.9293H22.1836V39.1472H24.0437C25.1074 39.1472 25.1074 37.3672 24.0437 37.3672H22.1836V33.5113H24.0437C25.1074 33.5113 25.1074 31.7313 24.0437 31.7313H22.1836V28.6906L22.5818 28.9876C23.446 29.6553 24.3103 28.1724 23.5122 27.5046L22.0503 26.3177C21.6522 25.9469 21.2532 25.8732 20.7879 26.2439L19.326 27.5046C18.7275 28.0239 18.9941 29.1361 19.7913 29.1361C20.0196 29.1361 20.199 28.972 20.4556 28.7374C20.4976 28.699 20.5417 28.6587 20.5884 28.6169V49.4552C20.5884 49.9734 20.9212 50.3442 21.3856 50.3442H50.6244L50.3587 50.7149C49.694 51.7534 51.0897 52.6434 51.6211 51.8282L52.7511 50.1219C53.083 49.6775 53.083 49.232 52.7511 48.7875L51.6211 47.0823C51.4225 46.7105 50.8902 46.6368 50.5582 46.9338C50.2263 47.2298 50.1592 47.749 50.3587 48.1197L50.6244 48.5652H48.5471V48.579H27.2467V48.4662C27.0706 48.5071 26.8891 48.5402 26.7017 48.5652H22.1836V44.783Z" fill="#4D0000"/>
<path d="M22.1836 44.783V44.3297H21.7303V44.783H22.1836ZM22.1836 42.9293H21.7303V43.3827H22.1836V42.9293ZM22.1836 39.1472V38.6938H21.7303V39.1472H22.1836ZM22.1836 37.3672H21.7303V37.8205H22.1836V37.3672ZM22.1836 33.5113V33.0579H21.7303V33.5113H22.1836ZM22.1836 31.7313H21.7303V32.1846H22.1836V31.7313ZM22.1836 28.6906L22.4547 28.3272L21.7303 27.7869V28.6906H22.1836ZM22.5818 28.9876L22.859 28.6288L22.8528 28.6242L22.5818 28.9876ZM23.5122 27.5046L23.8032 27.1569L23.798 27.1527L23.5122 27.5046ZM22.0503 26.3177L21.7414 26.6494L21.7526 26.6599L21.7646 26.6696L22.0503 26.3177ZM20.7879 26.2439L20.5054 25.8894L20.4985 25.8949L20.4919 25.9006L20.7879 26.2439ZM19.326 27.5046L19.03 27.1613L19.029 27.1622L19.326 27.5046ZM20.4556 28.7374L20.1496 28.4029L20.1496 28.4029L20.4556 28.7374ZM20.5884 28.6169H21.0418V27.6029L20.2861 28.279L20.5884 28.6169ZM50.6244 50.3442L50.9929 50.6083L51.5071 49.8909H50.6244V50.3442ZM50.3587 50.7149L49.9902 50.4508L49.9833 50.4605L49.9769 50.4705L50.3587 50.7149ZM51.6211 51.8282L51.2431 51.5778L51.2413 51.5806L51.6211 51.8282ZM52.7511 50.1219L52.3878 49.8507L52.3802 49.861L52.3731 49.8716L52.7511 50.1219ZM52.7511 48.7875L52.3732 49.0379L52.3802 49.0485L52.3878 49.0587L52.7511 48.7875ZM51.6211 47.0823L51.2213 47.2959L51.2314 47.3148L51.2432 47.3327L51.6211 47.0823ZM50.5582 46.9338L50.8599 47.2721L50.8605 47.2716L50.5582 46.9338ZM50.3587 48.1197L49.9595 48.3346L49.9643 48.3434L49.9694 48.352L50.3587 48.1197ZM50.6244 48.5652V49.0186H51.4227L51.0138 48.333L50.6244 48.5652ZM48.5471 48.5652V48.1119H48.0937V48.5652H48.5471ZM48.5471 48.579V49.0324H49.0004V48.579H48.5471ZM27.2467 48.579H26.7933V49.0324H27.2467V48.579ZM27.2467 48.4662H27.7V47.8956L27.1441 48.0247L27.2467 48.4662ZM26.7017 48.5652V49.0186H26.7318L26.7617 49.0146L26.7017 48.5652ZM22.1836 48.5652H21.7303V49.0186H22.1836V48.5652ZM24.0437 44.3297H22.1836V45.2364H24.0437V44.3297ZM24.0437 43.3827C24.1609 43.3827 24.2301 43.4266 24.282 43.4945C24.3435 43.5748 24.3882 43.7044 24.3882 43.8562C24.3882 44.008 24.3435 44.1376 24.282 44.2179C24.2301 44.2858 24.1609 44.3297 24.0437 44.3297V45.2364C24.4584 45.2364 24.788 45.0486 25.0021 44.7689C25.2065 44.5017 25.2948 44.1678 25.2948 43.8562C25.2948 43.5446 25.2065 43.2107 25.0021 42.9435C24.788 42.6638 24.4584 42.476 24.0437 42.476V43.3827ZM22.1836 43.3827H24.0437V42.476H22.1836V43.3827ZM21.7303 39.1472V42.9293H22.637V39.1472H21.7303ZM24.0437 38.6938H22.1836V39.6005H24.0437V38.6938ZM24.0437 37.8205C24.1682 37.8205 24.2384 37.8662 24.2875 37.9278C24.3458 38.001 24.3882 38.1188 24.3882 38.2572C24.3882 38.3956 24.3458 38.5133 24.2875 38.5865C24.2384 38.6481 24.1682 38.6938 24.0437 38.6938V39.6005C24.451 39.6005 24.7797 39.4237 24.9966 39.1516C25.2042 38.891 25.2948 38.5638 25.2948 38.2572C25.2948 37.9506 25.2042 37.6233 24.9966 37.3628C24.7797 37.0906 24.451 36.9139 24.0437 36.9139V37.8205ZM22.1836 37.8205H24.0437V36.9139H22.1836V37.8205ZM21.7303 33.5113V37.3672H22.637V33.5113H21.7303ZM24.0437 33.0579H22.1836V33.9646H24.0437V33.0579ZM24.0437 32.1846C24.1682 32.1846 24.2384 32.2303 24.2875 32.2919C24.3458 32.3651 24.3882 32.4829 24.3882 32.6213C24.3882 32.7597 24.3458 32.8774 24.2875 32.9506C24.2384 33.0122 24.1682 33.0579 24.0437 33.0579V33.9646C24.451 33.9646 24.7797 33.7878 24.9966 33.5157C25.2042 33.2551 25.2948 32.9279 25.2948 32.6213C25.2948 32.3147 25.2042 31.9874 24.9966 31.7269C24.7797 31.4548 24.451 31.278 24.0437 31.278V32.1846ZM22.1836 32.1846H24.0437V31.278H22.1836V32.1846ZM21.7303 28.6906V31.7313H22.637V28.6906H21.7303ZM22.8528 28.6242L22.4547 28.3272L21.9126 29.054L22.3107 29.351L22.8528 28.6242ZM23.2213 27.8523C23.3991 28.0011 23.428 28.2718 23.2825 28.5122C23.2143 28.625 23.1333 28.6798 23.0768 28.6964C23.0391 28.7074 22.9715 28.7159 22.8589 28.6289L22.3046 29.3463C22.6241 29.5932 22.9886 29.6667 23.3312 29.5666C23.6548 29.472 23.9021 29.2396 24.0582 28.9816C24.3614 28.4806 24.4234 27.6759 23.8031 27.157L23.2213 27.8523ZM21.7646 26.6696L23.2265 27.8566L23.798 27.1527L22.3361 25.9657L21.7646 26.6696ZM21.0705 26.5984C21.2418 26.4619 21.3456 26.4491 21.4042 26.4543C21.4728 26.4604 21.5815 26.5005 21.7414 26.6494L22.3593 25.9859C22.121 25.764 21.8312 25.582 21.4844 25.5512C21.1276 25.5195 20.7993 25.6552 20.5054 25.8894L21.0705 26.5984ZM19.6221 27.8479L21.084 26.5872L20.4919 25.9006L19.03 27.1613L19.6221 27.8479ZM19.7913 28.6828C19.6465 28.6828 19.5255 28.5938 19.4733 28.3982C19.4189 28.1942 19.4757 27.975 19.6231 27.8471L19.029 27.1622C18.5779 27.5535 18.4687 28.15 18.5973 28.6319C18.7281 29.1223 19.1389 29.5894 19.7913 29.5894V28.6828ZM20.1496 28.4029C20.0131 28.5277 19.9318 28.6006 19.8613 28.6476C19.8302 28.6684 19.8113 28.6768 19.8018 28.6802C19.7941 28.683 19.792 28.6828 19.7913 28.6828V29.5894C20.0246 29.5894 20.2136 29.5024 20.3644 29.4019C20.5048 29.3082 20.6415 29.1818 20.7615 29.072L20.1496 28.4029ZM20.2861 28.279C20.2373 28.3227 20.1915 28.3646 20.1496 28.4029L20.7615 29.072C20.8037 29.0334 20.8461 28.9946 20.8907 28.9547L20.2861 28.279ZM21.0418 49.4552V28.6169H20.1351V49.4552H21.0418ZM21.3856 49.8909C21.2167 49.8909 21.0418 49.7707 21.0418 49.4552H20.1351C20.1351 50.1762 20.6258 50.7975 21.3856 50.7975V49.8909ZM50.6244 49.8909H21.3856V50.7975H50.6244V49.8909ZM50.7272 50.979L50.9929 50.6083L50.256 50.0801L49.9902 50.4508L50.7272 50.979ZM51.2413 51.5806C51.1864 51.6648 51.1279 51.6878 51.0715 51.6922C51.0012 51.6976 50.9048 51.673 50.8142 51.6047C50.7256 51.5379 50.665 51.446 50.6444 51.3482C50.6254 51.2581 50.6325 51.128 50.7405 50.9593L49.9769 50.4705C49.7525 50.8211 49.6848 51.1917 49.7572 51.5351C49.8279 51.8707 50.0249 52.1451 50.2685 52.3287C50.5101 52.5108 50.8208 52.6208 51.1409 52.5962C51.4748 52.5706 51.79 52.3991 52.0009 52.0757L51.2413 51.5806ZM52.3731 49.8716L51.2431 51.5778L51.9991 52.0785L53.129 50.3723L52.3731 49.8716ZM52.3878 49.0587C52.5099 49.2222 52.5467 49.3519 52.5467 49.4547C52.5467 49.5576 52.5099 49.6872 52.3878 49.8507L53.1143 50.3932C53.3242 50.1122 53.4534 49.7969 53.4534 49.4547C53.4534 49.1126 53.3242 48.7972 53.1143 48.5162L52.3878 49.0587ZM51.2432 47.3327L52.3732 49.0379L53.129 48.5371L51.999 46.8318L51.2432 47.3327ZM50.8605 47.2716C50.9211 47.2174 51.0015 47.1957 51.0771 47.2062C51.1522 47.2167 51.199 47.2542 51.2213 47.2959L52.0209 46.8686C51.6672 46.2065 50.7797 46.1272 50.2559 46.5959L50.8605 47.2716ZM50.7579 47.9049C50.6507 47.7056 50.6956 47.4187 50.8599 47.2721L50.2565 46.5954C49.757 47.0408 49.6677 47.7924 49.9595 48.3346L50.7579 47.9049ZM51.0138 48.333L50.7481 47.8875L49.9694 48.352L50.2351 48.7974L51.0138 48.333ZM48.5471 49.0186H50.6244V48.1119H48.5471V49.0186ZM48.0937 48.5652V48.579H49.0004V48.5652H48.0937ZM48.5471 48.1257H27.2467V49.0324H48.5471V48.1257ZM27.7 48.579V48.4662H26.7933V48.579H27.7ZM26.7617 49.0146C26.963 48.9877 27.1588 48.952 27.3492 48.9078L27.1441 48.0247C26.9825 48.0622 26.8151 48.0928 26.6418 48.1159L26.7617 49.0146ZM22.1836 49.0186H26.7017V48.1119H22.1836V49.0186ZM21.7303 44.783V48.5652H22.637V44.783H21.7303Z" fill="#4D0000" mask="url(#path-3-outside-2_6486_46412)"/>
</g>
</g>
</g>
</g>
</g>
</svg>
