<svg width="72" height="72" viewBox="0 0 72 72" fill="none" xmlns="http://www.w3.org/2000/svg">
<path d="M14.9909 4.10292C14.4027 4.25308 13.3266 4.87879 12.9886 5.27924C12.8134 5.49199 12.5256 5.94249 12.3379 6.29289L12 6.93111V36.0264V65.1218L12.3379 65.76C12.8384 66.711 13.2139 67.099 14.0899 67.5746L14.8782 68H35.9645H57.0509L57.8392 67.5746C58.7152 67.099 59.0906 66.711 59.5912 65.76L59.9291 65.1218L59.9666 43.5349C59.979 31.659 59.9666 21.7478 59.9291 21.5101C59.8666 21.1346 58.6651 19.8832 51.507 12.7002C46.6891 7.86967 42.985 4.26561 42.7597 4.1655C42.4218 4.01532 40.1693 3.9903 28.869 4.00281C21.4482 4.01532 15.2037 4.05286 14.9909 4.10292ZM39.9941 14.5272L40.0317 21.072L40.4571 21.8605C40.9326 22.7365 41.3206 23.1118 42.2717 23.6125L42.9099 23.9502L49.4547 23.9878L55.987 24.0254V44.0355V64.0581H35.9645H15.9419V36.0264V7.99481H27.9555H39.9565L39.9941 14.5272ZM48.6038 15.4406L53.1715 20.0083H48.5662H43.9736V15.4406C43.9736 12.9254 43.9861 10.8731 44.011 10.8731C44.0237 10.8731 46.0885 12.9254 48.6038 15.4406Z" fill="#0B2D1F"/>
<path d="M48.6038 15.4406L53.1715 20.0083H48.5662H43.9736V15.4406C43.9736 12.9254 43.9861 10.8731 44.011 10.8731C44.0237 10.8731 46.0885 12.9254 48.6038 15.4406Z" fill="#62C89E"/>
<path d="M25.6594 11.208C24.9998 11.5111 24.8126 11.9479 24.8126 13.1691V14.0963L24.349 14.2479C22.9762 14.6936 21.5499 15.8347 21.0417 16.8955C20.1234 18.8122 20.4534 20.6219 22.0044 22.1909C23.1098 23.3141 24.1796 23.7599 26.1319 23.9203C26.9076 23.9827 27.2553 24.0541 27.6475 24.2323C29.5463 25.0971 29.5463 27.0138 27.6475 27.8874C26.5956 28.3688 25.4455 28.2707 24.358 27.6199C23.4041 27.0405 22.7622 27.085 22.2006 27.7536C21.7103 28.3242 21.8084 29.1621 22.4235 29.7327C22.7979 30.0803 23.8319 30.6152 24.4292 30.7757L24.7948 30.8738L24.8305 31.9346C24.8572 33.0847 24.9284 33.2719 25.4722 33.673C25.8199 33.9315 26.658 33.9315 27.0057 33.673C27.5494 33.2719 27.6207 33.0847 27.6475 31.9435L27.6831 30.8915L28.1379 30.74C29.5374 30.2855 30.9191 29.18 31.4363 28.0923C32.3545 26.1757 32.0246 24.3661 30.4734 22.7971C29.3591 21.6738 28.3071 21.228 26.3459 21.0677C25.5703 21.0053 25.2226 20.9339 24.8305 20.7555C22.9316 19.8909 22.9316 17.9743 24.8305 17.1007C25.8823 16.6192 27.0324 16.7173 28.1199 17.368C28.5835 17.6533 28.8777 17.7691 29.1183 17.7691C30.5001 17.7781 31.0886 16.2091 30.0633 15.2642C29.6711 14.8987 28.7975 14.444 28.1199 14.2389L27.6831 14.1141L27.6475 13.0533C27.6207 11.9034 27.5494 11.7162 27.0235 11.3239C26.7204 11.101 26.0161 11.0386 25.6594 11.208Z" fill="#0B2D1F"/>
<path d="M41.1569 32.1975C40.3184 32.5604 39.8428 33.5241 40.018 34.4626C40.1307 35.0508 40.7564 35.7391 41.3195 35.9016C41.62 35.9893 43.3219 36.0268 46.25 36.0018C50.5299 35.9642 50.7302 35.9517 51.0555 35.7015C51.7188 35.2135 51.919 34.813 51.919 34.0245C51.919 33.2362 51.7188 32.8357 51.0555 32.3477C50.7302 32.0973 50.5425 32.0849 46.1249 32.0599C42.4958 32.0348 41.4572 32.0599 41.1569 32.1975Z" fill="#0B2D1F"/>
<path d="M21.1353 48.2153C20.2969 48.5783 19.8214 49.5418 19.9966 50.4804C20.1092 51.0685 20.7348 51.7568 21.298 51.9196C21.6108 52.0196 26.3161 52.0447 36.2398 52.0196C50.6311 51.9821 50.7187 51.9821 51.0566 51.7193C51.7198 51.2313 51.9201 50.8308 51.9201 50.0424C51.9201 49.254 51.7198 48.8535 51.0566 48.3655C50.7187 48.1028 50.6436 48.1028 36.1146 48.0776C24.1638 48.0527 21.4356 48.0777 21.1353 48.2153Z" fill="#0B2D1F"/>
<path d="M21.7085 39.7021C20.8701 40.0651 20.3946 41.0286 20.5698 41.9672C20.6824 42.5553 21.308 43.2437 21.8712 43.4064C22.184 43.5064 26.8893 43.5315 36.813 43.5064C51.2044 43.4689 51.2919 43.4689 51.6298 43.2061C52.293 42.7181 52.4933 42.3176 52.4933 41.5293C52.4933 40.7408 52.293 40.3403 51.6298 39.8523C51.2919 39.5896 51.2169 39.5896 36.6879 39.5645C24.737 39.5395 22.0088 39.5645 21.7085 39.7021Z" fill="#0B2D1F"/>
<path d="M21.1353 56.2246C20.2969 56.5875 19.8214 57.5512 19.9966 58.4897C20.1092 59.0779 20.7348 59.766 21.298 59.9287C21.6108 60.0289 26.3161 60.0539 36.2398 60.0289C50.6311 59.9913 50.7187 59.9913 51.0566 59.7286C51.7198 59.2404 51.9201 58.8401 51.9201 58.0516C51.9201 57.2633 51.7198 56.8628 51.0566 56.3748C50.7187 56.1119 50.6436 56.112 36.1146 56.087C24.1638 56.0619 21.4356 56.087 21.1353 56.2246Z" fill="#0B2D1F"/>
</svg>
