<svg width="72" height="72" viewBox="0 0 72 72" fill="none" xmlns="http://www.w3.org/2000/svg">
<g id="invoice-approval-matrix">
<g id="Group 1171275573">
<path id="Subtract" fill-rule="evenodd" clip-rule="evenodd" d="M35.6881 6.7041H11.8008V58.9858H32.987C32.1164 57.0615 31.6318 54.9253 31.6318 52.6759C31.6318 44.2127 38.4925 37.352 46.9557 37.352C48.4348 37.352 49.865 37.5616 51.2182 37.9526L51.012 20.2252L36.5895 19.7745L35.6881 6.7041Z" fill="#36C5F0"/>
<path id="Vector" d="M22.3118 10.4973C21.7172 10.7705 21.5484 11.1642 21.5484 12.2651V13.1009L21.1306 13.2375C19.8931 13.6393 18.6074 14.6679 18.1493 15.6241C17.3216 17.3518 17.619 18.9831 19.0171 20.3974C20.0136 21.4098 20.9779 21.8117 22.7377 21.9563C23.4369 22.0126 23.7503 22.0769 24.1038 22.2375C25.8155 23.0171 25.8155 24.7448 24.1038 25.5322C23.1557 25.9662 22.119 25.8778 21.1387 25.2911C20.2788 24.7688 19.7002 24.8089 19.1939 25.4117C18.752 25.926 18.8404 26.6813 19.3949 27.1956C19.7323 27.509 20.6645 27.9911 21.2029 28.1358L21.5324 28.2242L21.5646 29.1804C21.5887 30.2171 21.6528 30.3858 22.1431 30.7474C22.4565 30.9805 23.2119 30.9805 23.5253 30.7474C24.0154 30.3858 24.0797 30.2171 24.1038 29.1885L24.136 28.2402L24.5459 28.1036C25.8074 27.6939 27.0529 26.6974 27.5191 25.717C28.3468 23.9893 28.0494 22.3581 26.6511 20.9438C25.6467 19.9312 24.6985 19.5294 22.9305 19.3849C22.2315 19.3287 21.9181 19.2643 21.5646 19.1035C19.8529 18.3241 19.8529 16.5965 21.5646 15.809C22.5127 15.375 23.5494 15.4634 24.5297 16.05C24.9475 16.3071 25.2128 16.4116 25.4297 16.4116C26.6752 16.4196 27.2057 15.0054 26.2815 14.1536C25.928 13.8242 25.1405 13.4143 24.5297 13.2294L24.136 13.1169L24.1038 12.1607C24.0797 11.1241 24.0154 10.9554 23.5413 10.6017C23.2682 10.4008 22.6333 10.3446 22.3118 10.4973Z" fill="#0D313B"/>
<path id="Vector_2" d="M36.2818 29.4175C35.5259 29.7446 35.0973 30.6132 35.2552 31.4592C35.3567 31.9894 35.9208 32.6099 36.4283 32.7564C36.6992 32.8354 38.2333 32.8692 40.8728 32.8467C44.7307 32.8128 44.9112 32.8016 45.2045 32.576C45.8024 32.1361 45.9828 31.7751 45.9828 31.0644C45.9828 30.3538 45.8024 29.9928 45.2045 29.5529C44.9112 29.3272 44.7421 29.3159 40.76 29.2934C37.4887 29.2708 36.5525 29.2934 36.2818 29.4175Z" fill="#0D313B"/>
<path id="Subtract_2" fill-rule="evenodd" clip-rule="evenodd" d="M10.8912 5.15312C11.1958 4.79215 12.1658 4.22813 12.696 4.09277C12.8878 4.04765 18.5167 4.01381 25.2058 4.00253C35.392 3.99125 37.4224 4.01381 37.727 4.14918C37.9301 4.23942 41.2691 7.48816 45.612 11.8424C52.0643 18.3172 53.1473 19.4452 53.2037 19.7837C53.2365 19.9917 53.248 28.4125 53.2384 38.6943C52.1085 38.1859 50.9058 37.8105 49.6503 37.5879V22.0511L37.8625 21.9833L37.2871 21.6789C36.4299 21.2276 36.0801 20.8892 35.6515 20.0996L35.268 19.3888L35.2002 7.60095H13.5533V58.1369H32.6352C33.1215 59.4117 33.7731 60.6048 34.5639 61.6901H12.5945L11.8839 61.3066C11.0942 60.878 10.7557 60.5283 10.3046 59.671L10 59.0957V6.64213L10.3046 6.06683C10.4738 5.75098 10.7332 5.3449 10.8912 5.15312ZM31.7295 50.9516C31.6661 51.5177 31.6336 52.0931 31.6336 52.6761C31.6336 53.295 31.6703 53.9054 31.7416 54.5052C22.8703 54.5272 18.6621 54.5046 18.3812 54.4146C17.8736 54.268 17.3096 53.6476 17.2081 53.1175C17.0502 52.2714 17.4788 51.4028 18.2346 51.0757C18.5052 50.9517 20.9633 50.929 31.7295 50.9516ZM34.5096 43.7369C33.7294 44.8215 33.0873 46.0123 32.6094 47.2833C32.3723 47.2839 32.1306 47.2846 31.8842 47.2852L31.8499 47.2853C22.9046 47.3079 18.6632 47.2853 18.3812 47.1952C17.8736 47.0485 17.3096 46.428 17.2081 45.8979C17.0502 45.0518 17.4788 44.1833 18.2346 43.8561C18.5053 43.732 20.9644 43.7095 31.7371 43.732L31.7565 43.7321C32.7469 43.7338 33.6627 43.7354 34.5096 43.7369ZM46.4646 37.3599C43.7266 37.4464 41.1699 38.2512 38.9765 39.592C37.2715 39.5986 35.1199 39.6042 32.4 39.6113L32.3668 39.6113C23.4216 39.634 19.1802 39.6113 18.8982 39.5212C18.3905 39.3745 17.8266 38.7541 17.7251 38.2239C17.5672 37.3779 17.9958 36.5093 18.7515 36.1821C19.0223 36.0581 21.4814 36.0356 32.2541 36.0581L32.2741 36.0581C45.3507 36.0807 45.4184 36.0808 45.7228 36.3175C46.1729 36.6487 46.3865 36.9352 46.4646 37.3599ZM47.1124 18.43L42.995 14.3127C40.7276 12.0455 38.8664 10.1955 38.855 10.1955C38.8325 10.1955 38.8213 12.0455 38.8213 14.3127V18.43H47.1124Z" fill="#0D313B"/>
<path id="Ellipse 2704" d="M62.2807 52.676C62.2807 61.1392 55.4199 67.9999 46.9568 67.9999C38.4936 67.9999 31.6328 61.1392 31.6328 52.676C31.6328 44.2128 38.4936 37.3521 46.9568 37.3521C55.4199 37.3521 62.2807 44.2128 62.2807 52.676ZM35.018 52.676C35.018 59.2696 40.3632 64.6148 46.9568 64.6148C53.5504 64.6148 58.8955 59.2696 58.8955 52.676C58.8955 46.0824 53.5504 40.7372 46.9568 40.7372C40.3632 40.7372 35.018 46.0824 35.018 52.676Z" fill="#0D313B"/>
<g id="Vector_3">
<mask id="path-6-outside-1_6490_47030" maskUnits="userSpaceOnUse" x="38.7461" y="46.54" width="17" height="13" fill="black">
<rect fill="white" x="38.7461" y="46.54" width="17" height="13"/>
<path d="M51.8053 47.4501C51.6475 47.5515 50.0133 49.1406 48.1763 50.9777L44.8177 54.3137L43.7245 53.2317C42.3157 51.8455 42.203 51.7779 41.4366 51.7779C40.3547 51.7779 39.7461 52.3865 39.7461 53.4797C39.7461 53.9981 39.8024 54.1897 40.0729 54.5504C40.4561 55.0575 43.4991 58.078 43.9161 58.3597C44.0852 58.4724 44.4233 58.54 44.829 58.54C45.3474 58.54 45.539 58.4837 45.8997 58.2132C46.4181 57.83 53.9467 50.2677 54.2171 49.8619C54.3298 49.6929 54.3975 49.3548 54.3975 48.9603C54.3975 48.2615 54.1721 47.8333 53.6536 47.4839C53.2366 47.2134 52.1998 47.1909 51.8053 47.4501Z"/>
</mask>
<path d="M51.8053 47.4501C51.6475 47.5515 50.0133 49.1406 48.1763 50.9777L44.8177 54.3137L43.7245 53.2317C42.3157 51.8455 42.203 51.7779 41.4366 51.7779C40.3547 51.7779 39.7461 52.3865 39.7461 53.4797C39.7461 53.9981 39.8024 54.1897 40.0729 54.5504C40.4561 55.0575 43.4991 58.078 43.9161 58.3597C44.0852 58.4724 44.4233 58.54 44.829 58.54C45.3474 58.54 45.539 58.4837 45.8997 58.2132C46.4181 57.83 53.9467 50.2677 54.2171 49.8619C54.3298 49.6929 54.3975 49.3548 54.3975 48.9603C54.3975 48.2615 54.1721 47.8333 53.6536 47.4839C53.2366 47.2134 52.1998 47.1909 51.8053 47.4501Z" fill="#0D313B"/>
<path d="M51.8053 47.4501C51.6475 47.5515 50.0133 49.1406 48.1763 50.9777L44.8177 54.3137L43.7245 53.2317C42.3157 51.8455 42.203 51.7779 41.4366 51.7779C40.3547 51.7779 39.7461 52.3865 39.7461 53.4797C39.7461 53.9981 39.8024 54.1897 40.0729 54.5504C40.4561 55.0575 43.4991 58.078 43.9161 58.3597C44.0852 58.4724 44.4233 58.54 44.829 58.54C45.3474 58.54 45.539 58.4837 45.8997 58.2132C46.4181 57.83 53.9467 50.2677 54.2171 49.8619C54.3298 49.6929 54.3975 49.3548 54.3975 48.9603C54.3975 48.2615 54.1721 47.8333 53.6536 47.4839C53.2366 47.2134 52.1998 47.1909 51.8053 47.4501Z" stroke="#0D313B" stroke-width="0.901408" mask="url(#path-6-outside-1_6490_47030)"/>
</g>
</g>
</g>
</svg>
