<svg width="60" height="18" viewBox="0 0 60 18" fill="none" xmlns="http://www.w3.org/2000/svg">
<g id="xendit_white_logo copy">
<mask id="mask0" mask-type="alpha" maskUnits="userSpaceOnUse" x="0" y="0" width="60" height="18">
<rect id="Rectangle 14" width="60" height="18" fill="#C4C4C4"/>
</mask>
<g mask="url(#mask0)">
<g id="xendit_icon_blue_red">
<mask id="mask1" mask-type="alpha" maskUnits="userSpaceOnUse" x="0" y="0" width="19" height="18">
<rect id="Mask" width="18.4282" height="18" fill="white"/>
</mask>
<g mask="url(#mask1)">
<g id="xendit_icon_blue_red_2">
<path id="Fill-1_1_" d="M10.7805 13.3177L12.4743 16.1792L13.2927 15.6842L13.58 14.7365L11.7615 11.6606L10.7805 13.3177Z" fill="#D24D57"/>
<path id="Fill-2_1_" d="M5.29799 1.9857L4.49854 2.66335L6.64488 6.28717L7.6232 4.63276L5.66385 1.32129L5.29799 1.9857Z" fill="#D24D57"/>
<path id="Fill-3_1_" d="M7.14093 10.8423L4.7561 14.8738L5.05421 15.9459L5.78592 16.4515L9.22495 10.6359L10.206 8.97617L14.0109 2.53323L13.3794 1.67558L13.1653 1.37646L12.2385 2.21558L7.14093 10.8423Z" fill="#D24D57"/>
<path id="Fill-4_1_" d="M5.22213 0.569336L4.2411 2.23169H4.24381L1.23567 7.32992L1.23296 7.32728L0.254639 8.98698L5.22213 17.4046L6.20316 15.7476L2.21399 8.98963L6.20316 2.23169H9.05682L10.0379 0.569336H5.22213Z" fill="#4573FF"/>
<path id="Fill-5_1_" d="M12.2275 2.23434L16.2139 8.98963L12.2275 15.7449H9.37383L8.39551 17.4046H13.2085L14.1896 15.7449L17.195 10.6493L18.176 8.99228L17.1977 7.32198L14.1868 2.23169L13.2112 0.569336L12.2275 2.23434Z" fill="#4573FF"/>
</g>
</g>
</g>
<g id="xendit_logotype">
<path id="Fill 1" fill-rule="evenodd" clip-rule="evenodd" d="M26.5996 5.97119L24.7822 8.56013L22.9582 5.97119H21.5068L24.0407 9.44663L21.3767 13.087H22.822L24.7819 10.3448L26.7229 13.087H28.1682L25.5044 9.44663L28.0383 5.97119H26.5996Z" fill="#4573FF"/>
<path id="Fill 2" fill-rule="evenodd" clip-rule="evenodd" d="M32.1031 6.90398C32.6335 6.90398 33.0457 7.07102 33.3282 7.40024C33.6012 7.7183 33.7462 8.18036 33.7593 8.77436H30.2424C30.3112 8.20214 30.5012 7.74656 30.8075 7.41878C31.1268 7.07732 31.5626 6.90398 32.1031 6.90398ZM32.1161 5.84424C31.1418 5.84424 30.354 6.18732 29.7748 6.86358C29.1994 7.53552 28.9077 8.45118 28.9077 9.58554C28.9077 10.7138 29.2225 11.6098 29.8433 12.2483C30.4653 12.8885 31.3238 13.2131 32.3947 13.2131C32.8783 13.2131 33.2975 13.1773 33.6414 13.1067C33.9849 13.0361 34.3536 12.9182 34.7377 12.7564L34.7933 12.733V11.6008L34.6649 11.6545C33.9325 11.9605 33.182 12.1154 32.4336 12.1154C31.7381 12.1154 31.193 11.9122 30.8136 11.5115C30.4467 11.124 30.2436 10.5514 30.2097 9.80856H35.0978V9.054C35.0978 8.09928 34.8283 7.31808 34.2972 6.73218C33.763 6.14286 33.0292 5.84424 32.1161 5.84424Z" fill="#4573FF"/>
<path id="Fill 5" fill-rule="evenodd" clip-rule="evenodd" d="M40.1949 5.84424C39.6952 5.84424 39.2348 5.94198 38.8266 6.13476C38.4654 6.30558 38.1713 6.54084 37.95 6.83604L37.7906 5.97078H36.7468V13.0864H38.0066V9.35784C38.0066 8.48106 38.1735 7.84728 38.5025 7.47378C38.8281 7.10406 39.354 6.9165 40.0654 6.9165C40.5976 6.9165 40.991 7.04736 41.2352 7.30512C41.481 7.5654 41.6058 7.97058 41.6058 8.50986V13.0864H42.8655V8.47188C42.8655 7.56468 42.638 6.8922 42.1892 6.47352C41.7416 6.05592 41.0706 5.84424 40.1949 5.84424Z" fill="#4573FF"/>
<path id="Fill 7" fill-rule="evenodd" clip-rule="evenodd" d="M47.6649 12.1536C47.047 12.1536 46.5925 11.9445 46.2754 11.5139C45.956 11.0803 45.794 10.4233 45.794 9.56054C45.794 8.70968 45.9575 8.0444 46.28 7.58306C46.5993 7.12604 47.0481 6.9041 47.652 6.9041C48.3528 6.9041 48.8678 7.10426 49.1826 7.49918C49.5029 7.90076 49.6652 8.58998 49.6652 9.54776V9.76934C49.6652 10.6128 49.5056 11.229 49.1909 11.601C48.8804 11.9677 48.367 12.1536 47.6649 12.1536ZM49.6654 5.97732L49.6916 6.46764L49.7201 6.78264C49.1949 6.15984 48.4585 5.84448 47.5288 5.84448C46.5794 5.84448 45.8272 6.17514 45.2929 6.82746C44.7637 7.47366 44.4954 8.38896 44.4954 9.5478C44.4954 10.707 44.7628 11.6162 45.2902 12.2498C45.8222 12.8891 46.5754 13.2133 47.5288 13.2133C48.4904 13.2133 49.2362 12.8834 49.748 12.2323L49.879 13.0868H50.925V3.06006H49.6652L49.6654 5.97732Z" fill="#4573FF"/>
<path id="Fill 10" fill-rule="evenodd" clip-rule="evenodd" d="M53.6577 3.39551C53.4527 3.39551 53.2788 3.46013 53.1407 3.58775C53.0012 3.71681 52.9307 3.91661 52.9307 4.18157C52.9307 4.44167 53.0009 4.64129 53.1395 4.77413C53.2777 4.90679 53.452 4.97411 53.6577 4.97411C53.8539 4.97411 54.0257 4.90715 54.1681 4.77539C54.3119 4.64219 54.3847 4.44239 54.3847 4.18157C54.3847 3.92039 54.3117 3.72167 54.1676 3.59045C54.0251 3.46103 53.8535 3.39551 53.6577 3.39551Z" fill="#4573FF"/>
<path id="Fill 12" fill-rule="evenodd" clip-rule="evenodd" d="M53.0212 13.0868H54.281V5.97119H53.0212V13.0868Z" fill="#4573FF"/>
<path id="Fill 14" fill-rule="evenodd" clip-rule="evenodd" d="M59.7089 12.0433C59.6094 12.0717 59.4716 12.0994 59.2993 12.1263C59.1277 12.1527 58.9473 12.1664 58.763 12.1664C58.4333 12.1664 58.1825 12.0665 57.9962 11.8611C57.8095 11.6557 57.7148 11.3521 57.7148 10.9591V6.96747H59.7751V5.97117H57.7148V4.36377H56.9321L56.4713 5.86893L55.438 6.31245V6.96747H56.455V11.0034C56.455 12.4697 57.1793 13.2133 58.6075 13.2133C58.7917 13.2133 59.0027 13.1947 59.2344 13.1582C59.4721 13.1208 59.6488 13.0738 59.7747 13.0146L59.8269 12.9901V12.0096L59.7089 12.0433Z" fill="#4573FF"/>
</g>
</g>
</g>
</svg>
