<svg width="72" height="72" viewBox="0 0 72 72" fill="none" xmlns="http://www.w3.org/2000/svg">
<g id="bills" clip-path="url(#clip0_5978_45060)">
<g id="Group 120">
<g id="Vector">
<path d="M6.24224 0.959036C4.93162 1.30389 3.85555 1.92461 2.88983 2.87639C1.92413 3.85576 1.3171 4.91789 0.972201 6.28348C0.710077 7.29043 0.696289 7.81464 0.696289 16.0219C0.696289 24.4363 0.710077 24.712 0.972201 25.2362C1.15155 25.5949 1.44126 25.8846 1.79995 26.0639C2.31042 26.326 2.60012 26.3398 6.90444 26.3398H11.457V47.9961C11.457 69.4456 11.457 69.6664 11.7329 70.2042C12.0366 70.8112 12.8367 71.3078 13.4989 71.3078C13.7195 71.3078 15.0579 70.8801 16.4788 70.3422L19.0448 69.3765L21.6108 70.3422C23.0319 70.8801 24.3563 71.3078 24.5632 71.3078C24.7701 71.3078 26.0945 70.8801 27.5155 70.3422L30.0815 69.3765L32.6476 70.3422C34.0686 70.8801 35.393 71.3078 35.5999 71.3078C35.8068 71.3078 37.1312 70.8801 38.5523 70.3422L41.1183 69.3765L43.6843 70.3422C45.1052 70.8801 46.4296 71.3078 46.6367 71.3078C46.8436 71.3078 48.168 70.8801 49.589 70.3422L52.1549 69.3765L54.7211 70.3422C56.1421 70.8801 57.4802 71.3078 57.7009 71.3078C58.3631 71.3078 59.1633 70.8112 59.4668 70.2042C59.729 69.6939 59.7427 69.4042 59.7427 64.7556V59.8588L60.9153 59.321C62.8468 58.4243 64.3643 57.3345 66.0337 55.6656C68.2962 53.4034 69.7585 51.0032 70.5863 48.1617C73.0696 39.6095 69.0137 30.6711 60.9153 26.8776L59.7427 26.326V16.8358C59.7427 7.82841 59.729 7.29043 59.4668 6.28348C59.1219 4.91789 58.5287 3.88334 57.5353 2.89019C56.5421 1.89702 55.5074 1.30389 54.1415 0.959036C53.0931 0.683165 52.5827 0.683165 30.1643 0.696968C8.00816 0.696968 7.22175 0.710754 6.24224 0.959036ZM9.16696 4.98686C9.92572 5.20755 11.0707 6.35244 11.2916 7.11111C11.4157 7.52493 11.457 9.64913 11.457 14.9461V22.2016H8.14603H4.83506V14.9461C4.83506 9.64913 4.87645 7.52493 5.00061 7.11111C5.20755 6.40762 6.3664 5.22135 7.04241 5.00064C7.7046 4.79373 8.49099 4.79373 9.16696 4.98686ZM53.3139 4.98686C54.0727 5.20755 55.2177 6.35244 55.4384 7.11111C55.5625 7.53871 55.604 9.98027 55.604 16.5185V25.3466L54.252 25.2775C48.3887 24.9466 42.6221 27.7468 39.0214 32.6436L38.1936 33.7884H29.778C21.6385 33.7884 21.3626 33.8022 20.8383 34.0643C20.2176 34.3815 19.7345 35.1679 19.7345 35.8575C19.7345 36.5472 20.2176 37.3335 20.8383 37.6507C21.3626 37.9128 21.6385 37.9266 28.8536 37.9266H36.3311L36.2483 38.299C36.193 38.5197 36.0689 39.113 35.9586 39.6508C35.8345 40.175 35.7379 40.7958 35.7379 41.0302C35.7379 41.2509 35.6964 41.582 35.6551 41.7476L35.5723 42.0648H28.4674C21.6385 42.0648 21.3626 42.0785 20.8383 42.3407C20.2176 42.6578 19.7345 43.4442 19.7345 44.1338C19.7345 44.8235 20.2176 45.6098 20.8383 45.927C21.3626 46.1892 21.6385 46.2029 28.6054 46.2029H35.8483L36.138 47.3753C36.4001 48.3961 36.6346 49.1134 37.0486 50.0927C37.1451 50.3273 36.7174 50.3411 29.2676 50.3411C21.6385 50.3411 21.3626 50.3548 20.8383 50.617C20.2176 50.9342 19.7345 51.7205 19.7345 52.4102C19.7345 53.0998 20.2176 53.8862 20.8383 54.2033C21.3626 54.4655 21.6385 54.4792 30.1505 54.4792C35.8345 54.4792 39.0214 54.424 39.1868 54.3414C39.4076 54.2171 39.5455 54.2999 40.0421 54.8517C42.2633 57.2794 44.8846 59.0451 47.6852 59.9831C49.8096 60.6865 51.0375 60.8796 53.4243 60.8933H55.604V63.5417C55.604 65.004 55.5764 66.2041 55.5487 66.2041C55.5212 66.2041 54.8452 65.9557 54.0312 65.6523C53.2311 65.3489 52.3896 65.1005 52.1687 65.1005C51.9618 65.1005 50.6237 65.5282 49.2165 66.066L46.6505 67.0317L44.0843 66.066C42.6771 65.5282 41.3527 65.1005 41.1321 65.1005C40.9252 65.1005 39.587 65.5282 38.1798 66.066L35.6137 67.0317L33.0477 66.066C31.6405 65.5282 30.3161 65.1005 30.0954 65.1005C29.8883 65.1005 28.5502 65.5282 27.143 66.066L24.577 67.0317L22.011 66.066C20.6038 65.5282 19.2794 65.1005 19.0586 65.1005C18.8517 65.1005 18.0101 65.3489 17.1961 65.6523C16.396 65.9557 15.7063 66.2041 15.6648 66.2041C15.6235 66.2041 15.582 52.7826 15.5682 36.3678L15.5269 6.54557L15.2233 5.7869C15.0441 5.37308 14.906 4.98686 14.906 4.91789C14.906 4.86271 23.4182 4.82132 33.8202 4.82132C48.2783 4.82132 52.8724 4.86272 53.3139 4.98686ZM56.7352 29.7744C59.2599 30.4227 61.2878 31.5953 63.1365 33.4298C64.5299 34.8368 65.5784 36.4093 66.2268 38.1059C66.9581 39.9819 67.1097 40.8371 67.1097 43.0993C67.1097 45.3615 66.9581 46.2167 66.2268 48.0927C64.9162 51.4997 61.8674 54.5483 58.4597 55.8587C56.6249 56.5759 55.7143 56.7414 53.5346 56.7414C51.3411 56.7552 50.3064 56.5759 48.4439 55.8587C45.0639 54.5483 42.0149 51.4997 40.7043 48.0927C39.9733 46.2167 39.8214 45.3615 39.8214 43.0993C39.8214 40.8371 39.9733 39.9819 40.7043 38.1059C42.0149 34.6989 45.0639 31.6504 48.4439 30.3399C49.3406 29.9952 50.389 29.7193 51.7411 29.4572C52.555 29.3054 55.7005 29.4985 56.7352 29.7744Z" fill="#0B2D1F"/>
<path d="M56.7352 29.7744C59.2599 30.4227 61.2878 31.5953 63.1365 33.4298C64.5299 34.8368 65.5784 36.4093 66.2268 38.1059C66.9581 39.9819 67.1097 40.8371 67.1097 43.0993C67.1097 45.3615 66.9581 46.2167 66.2268 48.0927C64.9162 51.4997 61.8674 54.5483 58.4597 55.8587C56.6249 56.5759 55.7143 56.7414 53.5346 56.7414C51.3411 56.7552 50.3064 56.5759 48.4439 55.8587C45.0639 54.5483 42.0149 51.4997 40.7043 48.0927C39.9733 46.2167 39.8214 45.3615 39.8214 43.0993C39.8214 40.8371 39.9733 39.9819 40.7043 38.1059C42.0149 34.6989 45.0639 31.6504 48.4439 30.3399C49.3406 29.9952 50.389 29.7193 51.7411 29.4572C52.555 29.3054 55.7005 29.4985 56.7352 29.7744Z" fill="#62C89E"/>
<path d="M9.16696 4.98686C9.92572 5.20755 11.0707 6.35244 11.2916 7.11111C11.4157 7.52493 11.457 9.64913 11.457 14.9461V22.2016H8.14603H4.83506V14.9461C4.83506 9.64913 4.87645 7.52493 5.00061 7.11111C5.20755 6.40762 6.3664 5.22135 7.04241 5.00064C7.7046 4.79373 8.49099 4.79373 9.16696 4.98686Z" fill="#22885E"/>
</g>
<path id="Vector_2" d="M21.2335 17.0341C20.5325 17.3479 19.9619 18.1897 19.9619 18.8746C19.9619 19.5879 20.5325 20.4012 21.266 20.7294C21.8855 21.0003 22.2115 21.0146 32.2695 21.0146C42.3276 21.0146 42.6536 21.0003 43.2731 20.7294C44.0066 20.4012 44.5772 19.5879 44.5772 18.8746C44.5772 18.1611 44.0066 17.3479 43.2731 17.0198C42.6536 16.7487 42.3438 16.7344 32.237 16.7344C22.2115 16.7487 21.8203 16.763 21.2335 17.0341Z" fill="#0B2D1F"/>
<path id="Vector_3" d="M21.0676 25.5951C20.458 25.909 19.9619 26.7508 19.9619 27.4356C19.9619 28.1489 20.458 28.9623 21.096 29.2904C21.6346 29.5614 21.9181 29.5757 30.6642 29.5757C39.4103 29.5757 39.6938 29.5614 40.2324 29.2904C40.8704 28.9623 41.3665 28.1489 41.3665 27.4356C41.3665 26.7222 40.8704 25.909 40.2324 25.5808C39.6938 25.3097 39.4244 25.2954 30.6358 25.2954C21.9181 25.3097 21.5779 25.324 21.0676 25.5951Z" fill="#0B2D1F"/>
<path id="Vector_4" d="M52.5677 33.0575C52.0158 33.3472 51.4639 34.0921 51.4639 34.5611C51.4639 34.7955 51.2983 34.9748 50.857 35.2369C50.0567 35.7059 49.0358 36.8095 48.6633 37.6232C48.4151 38.1474 48.3599 38.5337 48.3599 39.651C48.3599 40.8649 48.4013 41.127 48.7324 41.8166C49.298 43.0443 50.0567 43.6788 52.1537 44.7409C53.1746 45.2651 54.1265 45.7754 54.2645 45.8995C54.4024 46.0238 54.499 46.2997 54.499 46.5616C54.499 47.3065 54.1542 47.4445 52.2917 47.4445C50.4707 47.4445 49.9464 47.6239 49.4221 48.4101C48.9807 49.0722 49.0358 50.2998 49.5464 50.8378C49.974 51.3068 50.5258 51.5827 51.0086 51.5827C51.3261 51.5965 51.4502 51.693 51.6708 52.162C51.8227 52.4792 52.1124 52.8654 52.3055 53.0034C52.8298 53.3896 53.7679 53.4449 54.3611 53.1413C54.913 52.8516 55.4648 52.1068 55.4648 51.6378C55.4648 51.4034 55.6302 51.224 56.0718 50.9619C56.872 50.4929 57.8928 49.3893 58.2653 48.5756C58.5136 48.0514 58.5689 47.6652 58.5689 46.5478C58.5689 45.334 58.5274 45.072 58.1964 44.3822C57.617 43.1408 56.8443 42.4787 54.7474 41.4304C53.7402 40.9339 52.8021 40.4234 52.678 40.2993C52.5401 40.189 52.4296 39.8993 52.4296 39.6372C52.4296 38.8923 52.7746 38.7543 54.637 38.7543C56.458 38.7543 56.9824 38.575 57.5065 37.7888C57.948 37.1267 57.8928 35.899 57.3824 35.361C56.9546 34.892 56.403 34.6161 55.9199 34.6161C55.6027 34.6024 55.4786 34.5058 55.2577 34.0368C55.1061 33.7196 54.8164 33.3334 54.6233 33.1954C54.099 32.8092 53.1608 32.7541 52.5677 33.0575Z" fill="#0B2D1F"/>
</g>
</g>
<defs>
<clipPath id="clip0_5978_45060">
<rect width="72" height="72" fill="white"/>
</clipPath>
</defs>
</svg>
