<svg width="72" height="72" viewBox="0 0 72 72" fill="none" xmlns="http://www.w3.org/2000/svg">
<g id="other-expense">
<g id="Group">
<g id="Vector">
<path d="M31.8314 62.2671C32.3981 62.5907 32.6139 63.3064 32.2731 63.892L31.3947 65.4091C31.0557 65.993 30.3126 66.1694 29.7578 65.8457C29.2081 65.5273 28.9804 64.8012 29.3212 64.2156L30.1996 62.6986C30.5112 62.1592 31.2252 61.9143 31.8314 62.2671ZM28.4719 59.3168C29.0266 59.6473 29.2424 60.363 28.9016 60.9486C28.3189 61.9569 27.7361 62.9669 27.1534 63.9769C27.1522 63.9789 27.1511 63.9808 27.15 63.9828C26.811 64.5615 26.073 64.7379 25.513 64.4143C24.9566 64.0907 24.7305 63.3681 25.0713 62.7842L26.8281 59.7552C27.1448 59.2038 27.876 58.9761 28.4719 59.3168ZM19.9807 56.459C20.5474 56.7895 20.7581 57.5001 20.4173 58.0788L19.9807 58.8408C19.6417 59.4264 18.9054 59.6079 18.3437 59.2843C17.7821 58.959 17.5664 58.2381 17.902 57.6474L18.3437 56.8922C18.6554 56.3409 19.3643 56.108 19.9807 56.459ZM25.1038 56.3751C25.6706 56.6987 25.8761 57.4145 25.5353 58.0001C24.6398 59.5565 23.6826 61.1986 22.9001 62.5513C22.5662 63.1352 21.8402 63.3064 21.2735 62.9828C20.7067 62.6523 20.4909 61.9435 20.8317 61.3579C21.7443 59.7723 22.5268 58.4264 23.4617 56.8066C23.7785 56.2553 24.4874 56.0173 25.1038 56.3751ZM21.7888 40.6188L27.9325 41.8465C27.4222 42.6238 26.924 43.4937 26.4873 44.3858C26.0404 45.2898 25.6603 46.1991 25.4274 47.0501C25.2237 47.812 25.0422 48.7213 25.3538 49.5568C25.7219 50.5328 26.5901 51.0739 27.638 51.0397C28.5558 51.0157 29.5027 50.6133 30.3588 50.1133C31.9341 49.1921 33.6001 47.6922 34.8809 46.0912L51.764 55.8067C52.3581 56.1474 52.5345 56.8631 52.2057 57.4248C51.8821 57.9881 51.1578 58.2038 50.5671 57.8631C46.6802 55.6252 40.6616 52.1698 38.9561 51.1869C37.8055 50.5157 36.8021 52.2503 37.9579 52.9198L47.2915 58.2843C47.8822 58.6251 48.0466 59.3511 47.7281 59.9093C47.3994 60.4658 46.6751 60.6815 46.0843 60.3459C43.4218 58.8066 40.7575 57.2775 38.0949 55.7433C36.9374 55.0789 35.946 56.8169 37.1017 57.483C39.2558 58.721 41.4201 59.9589 43.5741 61.2038C44.1632 61.5445 44.3276 62.2602 44.0056 62.8236C43.682 63.3801 42.956 63.6009 42.367 63.2551C40.5879 62.2328 38.8089 61.2157 37.0452 60.1918C35.8894 59.5274 34.8929 61.2603 36.0418 61.9315C37.0521 62.5171 38.0777 63.0958 39.0863 63.6814C39.6804 64.017 39.8448 64.7499 39.5229 65.3012C39.2044 65.8577 38.4733 66.0786 37.8791 65.7379C36.7165 65.0684 35.5658 64.4091 34.4049 63.7379C34.5744 62.488 34.0077 61.2157 32.8399 60.5394C32.28 60.2158 31.6618 60.0737 31.0557 60.113C30.9821 59.0908 30.4204 58.1354 29.4684 57.5908C28.9136 57.2724 28.3006 57.1251 27.6945 57.1645C27.6209 56.1474 27.0541 55.1868 26.1021 54.6423C24.6792 53.817 22.871 54.204 21.9087 55.5327C21.6639 55.2091 21.3591 54.942 20.9841 54.7262C19.7495 54.0173 18.253 54.216 17.2667 55.0961L14.5699 53.079L21.7888 40.6188ZM50.8958 39.1137C52.9675 42.6614 54.9627 46.1444 57.0042 49.7083C57.0348 49.7616 57.0654 49.8151 57.096 49.8685C55.7536 51.216 53.9009 53.0567 52.841 54.1184L35.1138 43.92C34.6703 43.6649 34.0984 43.783 33.8039 44.2094C32.6532 45.8412 30.8519 47.5055 29.3554 48.3805C28.6123 48.812 27.9496 49.0329 27.6089 49.0397C27.3777 49.0449 27.2579 49.0397 27.1962 48.7555C27.174 48.675 27.174 48.199 27.3537 47.5792C27.5352 46.9148 27.864 46.1015 28.2732 45.2779C29.0883 43.6238 30.3297 41.7728 30.9187 41.1821C31.804 40.2951 33.6566 39.6804 36.0932 39.403C38.5298 39.1239 41.3636 39.2215 43.7283 39.641C46.3395 40.1017 48.3463 39.8739 49.7127 39.5109C50.115 39.403 50.5054 39.2832 50.8958 39.1137ZM16.3661 33.9717C17.89 34.8467 20.6279 36.4203 20.9327 36.6018C21.3026 36.8124 21.4258 37.261 21.2118 37.636C18.1331 42.9475 12.1607 53.2554 11.9792 53.567C11.7806 53.9197 11.3268 54.0618 10.9484 53.841C10.9484 53.841 7.90399 52.0842 6.38007 51.216C6.03932 51.0157 5.88693 50.562 6.10268 50.187C6.27733 49.8736 12.2686 39.5674 15.3284 34.2491C15.5442 33.8809 16.0031 33.7611 16.3661 33.9717ZM57.3802 32.7782C57.5498 33.0728 62.9794 42.4423 65.7738 47.2727C65.9211 47.5278 65.7961 47.9542 65.4228 48.1699C63.892 49.0449 61.1318 50.6407 60.8493 50.8C60.4623 51.0226 60.0377 50.9147 59.8904 50.6647C59.7261 50.3856 54.3307 40.9715 51.4917 36.1634C51.3445 35.9134 51.4575 35.4939 51.8496 35.2662C53.3735 34.3912 56.4231 32.6413 56.4231 32.6413C56.858 32.3861 57.2433 32.5385 57.3802 32.7782ZM55.4197 30.9084L50.8513 33.5385C49.5705 34.2782 49.0209 35.886 49.764 37.1582L49.8822 37.3689C47.8086 38.1068 45.6494 37.9305 44.0724 37.6634C41.4937 37.2096 38.5195 37.1137 35.8672 37.4134C33.8553 37.6308 30.6584 38.2781 29.2424 40.0623L22.8487 38.79L22.9395 38.6308C23.6929 37.3226 23.2734 35.648 21.931 34.8741L17.3695 32.2491C16.0424 31.482 14.3541 31.9478 13.6007 33.256L4.37328 49.187C3.60275 50.5157 4.07363 52.192 5.38181 52.942L9.94503 55.5738C11.2601 56.3289 12.8576 55.8341 13.5494 54.8118L16.1212 56.7381C15.2942 58.2723 15.8558 60.1524 17.3404 61.0103C17.7821 61.2603 18.2359 61.3921 18.7119 61.4263C18.4961 62.6986 19.092 64.0273 20.2701 64.7105C21.2169 65.255 22.3334 65.2601 23.2563 64.8184C23.5696 65.4262 23.9549 65.8183 24.5148 66.142C25.4617 66.6865 26.5781 66.6984 27.5027 66.2498C27.7733 66.7943 28.1996 67.2549 28.7595 67.5786C30.2732 68.4535 32.2457 67.9193 33.1241 66.4091L33.6053 65.5735C34.6994 66.2104 35.7987 66.8406 36.8928 67.4707C38.4236 68.3628 40.3773 67.8234 41.2506 66.3063C41.4715 65.9314 41.5965 65.5444 41.653 65.1351C43.1444 65.8115 44.9063 65.255 45.7333 63.8287C45.9833 63.392 46.1254 62.9314 46.1528 62.4537C47.4388 62.6814 48.7538 62.1078 49.4455 60.9264C49.6613 60.5445 49.8034 60.1473 49.8531 59.7432C51.3564 60.4195 53.1013 59.8579 53.9283 58.4316C54.632 57.2843 54.3135 56.0001 54.1389 55.6423L58.1508 51.6407C58.899 52.942 60.5771 53.2605 61.8459 52.5276L66.4193 49.8976C67.7001 49.1647 68.2446 47.5569 67.5015 46.283C64.7019 41.4475 61.8921 36.624 59.1028 31.7834C58.4281 30.6071 56.8135 30.1071 55.4197 30.9084ZM30.9358 16.9996C30.0403 16.9996 29.5934 18.0783 30.2287 18.7102L32.6926 21.1707C33.6789 22.1536 35.0898 20.7324 34.1035 19.7495L33.3501 18.9995H40.8996C42.2369 18.9995 42.2369 16.9996 40.8996 16.9996H30.9358ZM37.7096 12.2155L38.4904 12.9997H30.9358C29.6037 12.9997 29.6037 14.9997 30.9358 14.9997H40.8996C41.79 14.9997 42.2369 13.9261 41.6085 13.2942L39.1137 10.8012C38.1685 9.8577 36.773 11.2772 37.7096 12.2155ZM55.8666 7.49989C55.3803 7.49989 54.8632 7.82351 54.8632 8.49986V9.4536C52.9146 9.89708 51.4301 11.6025 51.4301 13.6983C51.4301 15.1692 52.1715 16.0168 53.0619 16.4483C53.9505 16.8866 54.9043 16.9534 55.7656 17.039C56.6268 17.1297 57.3974 17.2445 57.7997 17.4431C57.8054 17.4463 57.8111 17.4494 57.8168 17.4526C58.0552 17.5848 58.31 17.7261 58.31 18.3917C58.31 19.669 57.2672 20.7375 55.906 20.7495C54.7622 20.7272 53.8666 20.0218 53.4865 18.7718C53.0499 17.5116 51.2195 18.0955 51.5825 19.3745C52.2229 21.3693 53.5601 22.2888 54.8632 22.6244V23.4994C54.8632 24.8572 56.858 24.8059 56.858 23.4994V22.6296C58.8203 22.1929 60.3048 20.4653 60.3048 18.3917C60.3048 16.9363 59.5617 16.0853 58.673 15.6469C57.7826 15.2103 56.8306 15.1469 55.9693 15.0562C55.108 14.9654 54.3375 14.8456 53.9403 14.6521C53.6458 14.5048 53.4249 14.3113 53.4249 13.6983C53.4249 12.397 54.4677 11.3799 55.8272 11.3628C57.0515 11.4142 57.8443 12.0563 58.2467 13.3233C58.673 14.5562 60.4914 14.0339 60.1507 12.7206C59.6576 11.159 58.6097 9.91934 56.858 9.47586V8.49986C56.858 7.84064 56.3546 7.49989 55.8666 7.49989ZM15.9688 7.49989C15.4757 7.49989 14.9654 7.82351 14.9654 8.49986V9.4536C13.01 9.89708 11.5255 11.6025 11.5255 13.6983C11.5255 15.1692 12.2686 16.0168 13.1641 16.4483C14.0528 16.8866 15.0048 16.9534 15.8609 17.039C16.7222 17.1297 17.4996 17.2445 17.8951 17.4431C18.14 17.5784 18.4122 17.7102 18.4122 18.3917C18.4122 19.669 17.3626 20.7375 16.0031 20.7495C14.8644 20.7272 13.9689 20.0218 13.5888 18.7718C13.1521 17.5116 11.3217 18.0955 11.6847 19.3745C12.3251 21.3693 13.6624 22.2888 14.9654 22.6244V23.4994C14.9654 24.8572 16.9602 24.8059 16.9602 23.4994V22.6296C18.9156 22.1929 20.407 20.4653 20.407 18.3917C20.407 16.9363 19.6639 16.0853 18.7735 15.6469C17.878 15.2103 16.9328 15.1469 16.0716 15.0562C15.2103 14.9654 14.438 14.8456 14.0357 14.6521C13.7411 14.5048 13.5203 14.3113 13.5203 13.6983C13.5203 12.397 14.5699 11.3799 15.9294 11.3628C17.1537 11.4142 17.9465 12.0563 18.3437 13.3233C18.7684 14.5562 20.5937 14.0339 20.2529 12.7206C19.7598 11.159 18.7067 9.91934 16.9602 9.47586V8.49986C16.9602 7.84064 16.4568 7.49989 15.9688 7.49989ZM55.8614 5.99994C61.3527 5.99994 65.8406 10.4656 65.8406 15.9945C65.8406 21.5286 61.3356 25.9993 55.8614 25.9993C50.3924 25.9993 45.8977 21.5286 45.8977 15.9945C45.8977 10.4656 50.3753 5.99994 55.8614 5.99994ZM15.9637 5.99994C21.4498 5.99994 25.9428 10.4656 25.9428 15.9945C25.9428 21.5286 21.4378 25.9993 15.9637 25.9993C10.4947 25.9993 5.9948 21.5286 5.9948 15.9945C5.9948 10.4656 10.4775 5.99994 15.9637 5.99994ZM55.8614 4C49.2589 4 43.9029 9.37997 43.9029 15.9945C43.9029 22.6073 49.2418 27.9941 55.8614 27.9941C62.4811 27.9941 67.8371 22.6073 67.8371 15.9945C67.8371 9.37997 62.464 4 55.8614 4ZM15.9637 4C9.36114 4 4 9.37997 4 15.9945C4 22.6073 9.34402 27.9941 15.9637 27.9941C22.5833 27.9941 27.9376 22.6073 27.9376 15.9945C27.9376 9.37997 22.5662 4 15.9637 4Z" fill="#0B2D1F"/>
<path d="M57.3802 32.7782C57.5498 33.0728 62.9794 42.4423 65.7738 47.2727C65.9211 47.5278 65.7961 47.9542 65.4228 48.1699C63.892 49.0449 61.1318 50.6407 60.8493 50.8C60.4623 51.0226 60.0377 50.9147 59.8904 50.6647C59.7261 50.3856 54.3307 40.9715 51.4917 36.1634C51.3445 35.9134 51.4575 35.4939 51.8496 35.2662C53.3735 34.3912 56.4231 32.6413 56.4231 32.6413C56.858 32.3861 57.2433 32.5385 57.3802 32.7782Z" fill="#22885E"/>
<path d="M16.3661 33.9717C17.89 34.8467 20.6279 36.4203 20.9327 36.6018C21.3026 36.8124 21.4258 37.261 21.2118 37.636C18.1331 42.9475 12.1607 53.2554 11.9792 53.567C11.7806 53.9197 11.3268 54.0618 10.9484 53.841C10.9484 53.841 7.90399 52.0842 6.38007 51.216C6.03932 51.0157 5.88693 50.562 6.10268 50.187C6.27733 49.8736 12.2686 39.5674 15.3284 34.2491C15.5442 33.8809 16.0031 33.7611 16.3661 33.9717Z" fill="#22885E"/>
</g>
</g>
</g>
</svg>
