<svg width="72" height="72" viewBox="0 0 72 72" fill="none" xmlns="http://www.w3.org/2000/svg">
<g id="payment-voucher">
<g id="Group">
<g id="Vector">
<mask id="path-1-outside-1_5978_45093" maskUnits="userSpaceOnUse" x="1" y="3" width="69" height="66" fill="black">
<rect fill="white" x="1" y="3" width="69" height="66"/>
<path d="M51.0429 4.16879C46.0782 5.08815 41.7046 8.50302 39.6032 13.0998L39.0908 14.2163H25.3923H11.6934L11.3913 14.5184C11.0893 14.8204 11.0761 14.873 10.9973 18.5638C10.9579 20.6126 10.8791 29.3073 10.8397 37.8837L10.7609 53.487H6.8207C2.5653 53.487 2.21066 53.5396 2.03994 54.1963C2.00052 54.3668 1.98739 56.0613 2.01368 57.9658C2.06619 61.3281 2.06619 61.4593 2.40768 62.313C2.89363 63.5869 3.51096 64.5721 4.41719 65.4914C5.37597 66.4766 6.43984 67.1333 7.83203 67.6323L8.88276 68H27.4672H46.052L46.9713 67.6979C49.5851 66.8312 51.5683 64.8872 52.5271 62.2604L52.8817 61.3016L52.9209 48.1546L52.9474 35.0074L54.6941 34.9287C55.968 34.8761 56.7694 34.7709 57.7413 34.5084C63.5596 32.9716 68.0253 28.099 69.0627 22.1625C69.3387 20.5336 69.2335 17.1847 68.8658 15.7923C67.7624 11.6683 65.3458 8.37167 61.8259 6.19143C60.5255 5.39025 59.1729 4.8255 57.5574 4.40519C55.9419 3.9849 52.6979 3.86672 51.0429 4.16879ZM56.3227 6.54604C60.355 7.37348 63.7434 9.97401 65.5558 13.6252C68.104 18.7607 67.1321 24.7498 63.0736 28.8083C57.899 33.983 49.6769 33.996 44.4758 28.8475C42.8341 27.2189 41.6651 25.1962 40.9692 22.8058C40.7063 21.9127 40.6671 21.4663 40.6671 19.5356C40.6671 17.605 40.7063 17.1452 40.9692 16.1864C42.3087 11.2611 46.3015 7.51795 51.2398 6.53292C52.4614 6.28336 55.1144 6.29649 56.3227 6.54604ZM38.4475 16.8036C38.2636 17.6573 38.211 20.2449 38.3554 21.335C38.5262 22.6484 38.9334 24.29 39.288 25.078L39.5375 25.6429H34.1656H28.8071L28.4655 26.0502C28.0322 26.5622 28.0322 26.9564 28.4655 27.4684L28.8071 27.8756H34.7567H40.7063L41.2974 28.7031C43.2019 31.3692 46.262 33.5101 49.4404 34.4032L50.7147 34.7579V47.1825C50.7147 55.2338 50.6621 59.8964 50.57 60.448C50.0841 63.4687 47.4311 65.7147 44.3445 65.7278C41.3238 65.7278 38.6575 63.5082 38.119 60.5267C38.0402 60.0933 37.9746 58.4909 37.9746 56.9544C37.9746 54.4063 37.9482 54.1437 37.7251 53.8678L37.4756 53.5527L25.2345 53.5132L13.0068 53.487L13.0725 48.588C13.1251 45.9086 13.1907 37.5686 13.2302 30.0691L13.3089 16.449H25.9177H38.5262L38.4475 16.8036ZM35.768 58.5699C35.8075 60.9996 35.8468 61.3937 36.1227 62.1553C36.4904 63.2192 37.2653 64.5326 37.9615 65.2814L38.4736 65.846L24.0132 65.8065C24.0038 65.8065 23.9944 65.8065 23.985 65.8064C9.60503 65.7673 9.53891 65.7671 8.72513 65.4914C7.64814 65.1237 6.76816 64.5457 5.95385 63.679C4.61421 62.2604 4.22018 60.9865 4.22018 57.9132V55.851H19.9678H35.7155L35.768 58.5699Z"/>
<path d="M56.3227 6.54604C60.355 7.37348 63.7434 9.97401 65.5558 13.6252C68.104 18.7607 67.1321 24.7498 63.0736 28.8083C57.899 33.983 49.6769 33.996 44.4758 28.8475C42.8341 27.2189 41.6651 25.1962 40.9692 22.8058C40.7063 21.9127 40.6671 21.4663 40.6671 19.5356C40.6671 17.605 40.7063 17.1452 40.9692 16.1864C42.3087 11.2611 46.3015 7.51795 51.2398 6.53292C52.4614 6.28336 55.1144 6.29649 56.3227 6.54604Z"/>
<path d="M35.768 58.5699C35.8075 60.9996 35.8468 61.3937 36.1227 62.1553C36.4904 63.2192 37.2653 64.5326 37.9615 65.2814L38.4736 65.846L24.0132 65.8065L23.985 65.8064C9.60503 65.7673 9.53891 65.7671 8.72513 65.4914C7.64814 65.1237 6.76816 64.5457 5.95385 63.679C4.61421 62.2604 4.22018 60.9865 4.22018 57.9132V55.851H19.9678H35.7155L35.768 58.5699Z"/>
</mask>
<path d="M51.0429 4.16879C46.0782 5.08815 41.7046 8.50302 39.6032 13.0998L39.0908 14.2163H25.3923H11.6934L11.3913 14.5184C11.0893 14.8204 11.0761 14.873 10.9973 18.5638C10.9579 20.6126 10.8791 29.3073 10.8397 37.8837L10.7609 53.487H6.8207C2.5653 53.487 2.21066 53.5396 2.03994 54.1963C2.00052 54.3668 1.98739 56.0613 2.01368 57.9658C2.06619 61.3281 2.06619 61.4593 2.40768 62.313C2.89363 63.5869 3.51096 64.5721 4.41719 65.4914C5.37597 66.4766 6.43984 67.1333 7.83203 67.6323L8.88276 68H27.4672H46.052L46.9713 67.6979C49.5851 66.8312 51.5683 64.8872 52.5271 62.2604L52.8817 61.3016L52.9209 48.1546L52.9474 35.0074L54.6941 34.9287C55.968 34.8761 56.7694 34.7709 57.7413 34.5084C63.5596 32.9716 68.0253 28.099 69.0627 22.1625C69.3387 20.5336 69.2335 17.1847 68.8658 15.7923C67.7624 11.6683 65.3458 8.37167 61.8259 6.19143C60.5255 5.39025 59.1729 4.8255 57.5574 4.40519C55.9419 3.9849 52.6979 3.86672 51.0429 4.16879ZM56.3227 6.54604C60.355 7.37348 63.7434 9.97401 65.5558 13.6252C68.104 18.7607 67.1321 24.7498 63.0736 28.8083C57.899 33.983 49.6769 33.996 44.4758 28.8475C42.8341 27.2189 41.6651 25.1962 40.9692 22.8058C40.7063 21.9127 40.6671 21.4663 40.6671 19.5356C40.6671 17.605 40.7063 17.1452 40.9692 16.1864C42.3087 11.2611 46.3015 7.51795 51.2398 6.53292C52.4614 6.28336 55.1144 6.29649 56.3227 6.54604ZM38.4475 16.8036C38.2636 17.6573 38.211 20.2449 38.3554 21.335C38.5262 22.6484 38.9334 24.29 39.288 25.078L39.5375 25.6429H34.1656H28.8071L28.4655 26.0502C28.0322 26.5622 28.0322 26.9564 28.4655 27.4684L28.8071 27.8756H34.7567H40.7063L41.2974 28.7031C43.2019 31.3692 46.262 33.5101 49.4404 34.4032L50.7147 34.7579V47.1825C50.7147 55.2338 50.6621 59.8964 50.57 60.448C50.0841 63.4687 47.4311 65.7147 44.3445 65.7278C41.3238 65.7278 38.6575 63.5082 38.119 60.5267C38.0402 60.0933 37.9746 58.4909 37.9746 56.9544C37.9746 54.4063 37.9482 54.1437 37.7251 53.8678L37.4756 53.5527L25.2345 53.5132L13.0068 53.487L13.0725 48.588C13.1251 45.9086 13.1907 37.5686 13.2302 30.0691L13.3089 16.449H25.9177H38.5262L38.4475 16.8036ZM35.768 58.5699C35.8075 60.9996 35.8468 61.3937 36.1227 62.1553C36.4904 63.2192 37.2653 64.5326 37.9615 65.2814L38.4736 65.846L24.0132 65.8065C24.0038 65.8065 23.9944 65.8065 23.985 65.8064C9.60503 65.7673 9.53891 65.7671 8.72513 65.4914C7.64814 65.1237 6.76816 64.5457 5.95385 63.679C4.61421 62.2604 4.22018 60.9865 4.22018 57.9132V55.851H19.9678H35.7155L35.768 58.5699Z" fill="#0B2D1F"/>
<path d="M56.3227 6.54604C60.355 7.37348 63.7434 9.97401 65.5558 13.6252C68.104 18.7607 67.1321 24.7498 63.0736 28.8083C57.899 33.983 49.6769 33.996 44.4758 28.8475C42.8341 27.2189 41.6651 25.1962 40.9692 22.8058C40.7063 21.9127 40.6671 21.4663 40.6671 19.5356C40.6671 17.605 40.7063 17.1452 40.9692 16.1864C42.3087 11.2611 46.3015 7.51795 51.2398 6.53292C52.4614 6.28336 55.1144 6.29649 56.3227 6.54604Z" fill="#22885E"/>
<path d="M35.768 58.5699C35.8075 60.9996 35.8468 61.3937 36.1227 62.1553C36.4904 63.2192 37.2653 64.5326 37.9615 65.2814L38.4736 65.846L24.0132 65.8065L23.985 65.8064C9.60503 65.7673 9.53891 65.7671 8.72513 65.4914C7.64814 65.1237 6.76816 64.5457 5.95385 63.679C4.61421 62.2604 4.22018 60.9865 4.22018 57.9132V55.851H19.9678H35.7155L35.768 58.5699Z" fill="#62C89E"/>
<path d="M56.3227 6.54604L56.2721 6.79088L56.2724 6.79094L56.3227 6.54604ZM65.5558 13.6252L65.7798 13.5141L65.7798 13.5141L65.5558 13.6252ZM44.4758 28.8475L44.2997 29.025L44.2999 29.0252L44.4758 28.8475ZM40.9692 22.8058L41.2092 22.7359L41.209 22.7352L40.9692 22.8058ZM40.9692 16.1864L41.2103 16.2525L41.2104 16.252L40.9692 16.1864ZM51.2398 6.53292L51.2887 6.77809L51.2898 6.77786L51.2398 6.53292ZM35.768 58.5699L36.018 58.5659L36.018 58.5651L35.768 58.5699ZM36.1227 62.1553L36.359 62.0736L36.3577 62.0701L36.1227 62.1553ZM37.9615 65.2814L38.1467 65.1134L38.1446 65.1111L37.9615 65.2814ZM38.4736 65.846L38.4729 66.096L39.0392 66.0976L38.6588 65.6781L38.4736 65.846ZM8.72513 65.4914L8.64435 65.728L8.6449 65.7282L8.72513 65.4914ZM5.95385 63.679L6.13605 63.5078L6.13561 63.5073L5.95385 63.679ZM4.22018 55.851V55.601H3.97018V55.851H4.22018ZM35.7155 55.851L35.9654 55.8462L35.9607 55.601H35.7155V55.851ZM56.2724 6.79094C60.2301 7.60305 63.554 10.1548 65.3319 13.7364L65.7798 13.5141C63.9328 9.79326 60.4799 7.14391 56.3729 6.30115L56.2724 6.79094ZM65.3319 13.7364C67.8324 18.7759 66.8792 24.6491 62.8969 28.6315L63.2504 28.9851C67.385 24.8505 68.3755 18.7455 65.7798 13.5141L65.3319 13.7364ZM62.8969 28.6315C57.8197 33.7087 49.7552 33.7218 44.6516 28.6698L44.2999 29.0252C49.5986 34.2703 57.9783 34.2572 63.2504 28.9851L62.8969 28.6315ZM44.6518 28.67C43.0429 27.0739 41.8943 25.0893 41.2092 22.7359L40.7291 22.8757C41.4358 25.3031 42.6254 27.364 44.2997 29.025L44.6518 28.67ZM41.209 22.7352C40.9569 21.8787 40.9171 21.4628 40.9171 19.5356H40.4171C40.4171 21.4697 40.4557 21.9467 40.7293 22.8764L41.209 22.7352ZM40.9171 19.5356C40.9171 17.6099 40.9566 17.1777 41.2103 16.2525L40.7281 16.1203C40.456 17.1127 40.4171 17.6001 40.4171 19.5356H40.9171ZM41.2104 16.252C42.5254 11.4171 46.4446 7.74435 51.2887 6.77809L51.1909 6.28775C46.1585 7.29156 42.092 11.1052 40.7279 16.1208L41.2104 16.252ZM51.2898 6.77786C51.8753 6.65826 52.8236 6.59905 53.7854 6.60231C54.7471 6.60558 55.6926 6.67119 56.2721 6.79088L56.3733 6.30121C55.7445 6.17134 54.7594 6.10561 53.7871 6.10231C52.815 6.09901 51.826 6.15801 51.1898 6.28797L51.2898 6.77786ZM35.5181 58.574C35.5575 60.9962 35.5951 61.433 35.8876 62.2404L36.3577 62.0701C36.0984 61.3544 36.0576 61.0029 36.018 58.5659L35.5181 58.574ZM35.8864 62.2369C36.2645 63.3309 37.0565 64.6752 37.7784 65.4516L38.1446 65.1111C37.4741 64.39 36.7163 63.1075 36.359 62.0736L35.8864 62.2369ZM37.7763 65.4493L38.2884 66.014L38.6588 65.6781L38.1467 65.1134L37.7763 65.4493ZM38.4743 65.596L24.0139 65.5565L24.0125 66.0565L38.4729 66.096L38.4743 65.596ZM8.80591 65.2548C7.76976 64.901 6.92404 64.3465 6.13605 63.5078L5.77166 63.8501C6.61228 64.7449 7.52652 65.3463 8.64435 65.728L8.80591 65.2548ZM6.13561 63.5073C5.48608 62.8195 5.0763 62.1792 4.82396 61.3443C4.56888 60.5003 4.47018 59.4434 4.47018 57.9132H3.97018C3.97018 59.4563 4.06849 60.5729 4.34534 61.4889C4.62492 62.4139 5.08198 63.1198 5.77209 63.8506L6.13561 63.5073ZM4.47018 57.9132V55.851H3.97018V57.9132H4.47018ZM4.22018 56.101H19.9678V55.601H4.22018V56.101ZM19.9678 56.101H35.7155V55.601H19.9678V56.101ZM35.4655 55.8558L35.5181 58.5748L36.018 58.5651L35.9654 55.8462L35.4655 55.8558ZM23.9857 65.5564C16.794 65.5369 13.1857 65.527 11.2729 65.4877C10.315 65.468 9.7915 65.441 9.45896 65.403C9.13752 65.3664 8.99918 65.3203 8.80536 65.2546L8.6449 65.7282C8.85798 65.8004 9.03306 65.8577 9.40227 65.8998C9.76038 65.9407 10.3048 65.9679 11.2626 65.9876C13.1812 66.0271 16.796 66.0369 23.9843 66.0564L23.9857 65.5564ZM51.0429 4.16879L50.9531 3.67691L50.9518 3.67715L51.0429 4.16879ZM39.6032 13.0998L40.0576 13.3084L40.0579 13.3077L39.6032 13.0998ZM39.0908 14.2163V14.7163H39.4115L39.5452 14.4248L39.0908 14.2163ZM11.6934 14.2163V13.7163H11.4863L11.3399 13.8627L11.6934 14.2163ZM11.3913 14.5184L11.0378 14.1648L11.0378 14.1648L11.3913 14.5184ZM10.9973 18.5638L10.4974 18.5531L10.4974 18.5542L10.9973 18.5638ZM10.8397 37.8837L11.3397 37.8862L11.3397 37.886L10.8397 37.8837ZM10.7609 53.487V53.987H11.2584L11.2609 53.4896L10.7609 53.487ZM2.03994 54.1963L1.55584 54.0705L1.55278 54.0837L2.03994 54.1963ZM2.01368 57.9658L1.51373 57.9727L1.51374 57.9736L2.01368 57.9658ZM2.40768 62.313L2.8749 62.1347L2.87191 62.1273L2.40768 62.313ZM4.41719 65.4914L4.77553 65.1427L4.77326 65.1404L4.41719 65.4914ZM7.83203 67.6323L7.66332 68.103L7.66687 68.1042L7.83203 67.6323ZM8.88276 68L8.71761 68.4719L8.7978 68.5H8.88276V68ZM46.052 68V68.5H46.1321L46.2081 68.475L46.052 68ZM46.9713 67.6979L47.1274 68.1729L47.1287 68.1725L46.9713 67.6979ZM52.5271 62.2604L52.0581 62.0869L52.0574 62.089L52.5271 62.2604ZM52.8817 61.3016L53.3507 61.4751L53.3814 61.3918L53.3817 61.3031L52.8817 61.3016ZM52.9209 48.1546L53.4209 48.1561L53.4209 48.1556L52.9209 48.1546ZM52.9474 35.0074L52.9248 34.5079L52.4483 34.5294L52.4474 35.0064L52.9474 35.0074ZM54.6941 34.9287L54.6735 34.4291L54.6716 34.4292L54.6941 34.9287ZM57.7413 34.5084L57.6136 34.025L57.6108 34.0257L57.7413 34.5084ZM69.0627 22.1625L69.5553 22.2485L69.5557 22.246L69.0627 22.1625ZM68.8658 15.7923L69.3492 15.6646L69.3488 15.6631L68.8658 15.7923ZM61.8259 6.19143L62.0891 5.76636L62.0881 5.76574L61.8259 6.19143ZM57.5574 4.40519L57.6833 3.9213L57.6833 3.92129L57.5574 4.40519ZM38.4475 16.8036L37.9593 16.6953L37.9587 16.6984L38.4475 16.8036ZM38.3554 21.335L38.8512 21.2705L38.8511 21.2693L38.3554 21.335ZM39.288 25.078L39.7454 24.876L39.744 24.8728L39.288 25.078ZM39.5375 25.6429V26.1429H40.3049L39.9949 25.4409L39.5375 25.6429ZM28.8071 25.6429V25.1429H28.5739L28.424 25.3216L28.8071 25.6429ZM28.4655 26.0502L28.8472 26.3732L28.8486 26.3715L28.4655 26.0502ZM28.4655 27.4684L28.8486 27.1471L28.8472 27.1454L28.4655 27.4684ZM28.8071 27.8756L28.424 28.197L28.5739 28.3756H28.8071V27.8756ZM40.7063 27.8756L41.1132 27.585L40.9636 27.3756H40.7063V27.8756ZM41.2974 28.7031L40.8905 28.9938L40.8905 28.9938L41.2974 28.7031ZM49.4404 34.4032L49.3052 34.8846L49.3064 34.8849L49.4404 34.4032ZM50.7147 34.7579H51.2147V34.378L50.8487 34.2762L50.7147 34.7579ZM50.57 60.448L50.0768 60.3657L50.0764 60.3686L50.57 60.448ZM44.3445 65.7278V66.2278L44.3466 66.2278L44.3445 65.7278ZM38.119 60.5267L38.611 60.4378L38.6109 60.4373L38.119 60.5267ZM37.7251 53.8678L37.3331 54.1782L37.3363 54.1822L37.7251 53.8678ZM37.4756 53.5527L37.8676 53.2423L37.7181 53.0535L37.4772 53.0527L37.4756 53.5527ZM25.2345 53.5132L25.2362 53.0132L25.2356 53.0132L25.2345 53.5132ZM13.0068 53.487L12.5069 53.4803L12.5001 53.986L13.0058 53.987L13.0068 53.487ZM13.0725 48.588L12.5726 48.5782L12.5725 48.5813L13.0725 48.588ZM13.2302 30.0691L12.7302 30.0662L12.7302 30.0665L13.2302 30.0691ZM13.3089 16.449V15.949H12.8118L12.8089 16.4461L13.3089 16.449ZM38.5262 16.449L39.0143 16.5573L39.1493 15.949H38.5262V16.449ZM24.0132 65.8065L24.0118 66.3065L24.0146 65.3065L24.0132 65.8065ZM23.985 65.8064L23.9864 65.3064L23.9836 66.3064L23.985 65.8064ZM50.9518 3.67715C45.8267 4.62623 41.3175 8.14715 39.1484 12.8919L40.0579 13.3077C42.0917 8.85888 46.3297 5.55008 51.1339 4.66043L50.9518 3.67715ZM39.1487 12.8913L38.6364 14.0078L39.5452 14.4248L40.0576 13.3084L39.1487 12.8913ZM39.0908 13.7163H25.3923V14.7163H39.0908V13.7163ZM25.3923 13.7163H11.6934V14.7163H25.3923V13.7163ZM11.3399 13.8627L11.0378 14.1648L11.7449 14.8719L12.047 14.5699L11.3399 13.8627ZM11.0378 14.1648C10.9567 14.2459 10.8389 14.3629 10.7537 14.5623C10.6776 14.7401 10.6397 14.953 10.6131 15.2209C10.5597 15.7579 10.5366 16.7202 10.4974 18.5531L11.4972 18.5745C11.5369 16.7166 11.5597 15.8072 11.6082 15.3197C11.6324 15.0753 11.6593 14.9878 11.6731 14.9555C11.6778 14.9447 11.6749 14.9419 11.7449 14.8719L11.0378 14.1648ZM10.4974 18.5542C10.4579 20.6072 10.3791 29.3054 10.3397 37.8814L11.3397 37.886C11.3791 29.3091 11.4579 20.618 11.4972 18.5734L10.4974 18.5542ZM10.3397 37.8812L10.2609 53.4845L11.2609 53.4896L11.3397 37.8862L10.3397 37.8812ZM10.7609 52.987H6.8207V53.987H10.7609V52.987ZM6.8207 52.987C4.71284 52.987 3.51319 52.9988 2.82519 53.1008C2.48148 53.1518 2.18069 53.2352 1.95153 53.4154C1.69926 53.6137 1.60846 53.8688 1.55602 54.0705L2.52385 54.3221C2.5409 54.2565 2.55329 54.2271 2.56084 54.2129C2.56536 54.2045 2.56657 54.2039 2.56955 54.2015C2.58789 54.1871 2.67373 54.1342 2.97194 54.09C3.56779 54.0016 4.67317 53.987 6.8207 53.987V52.987ZM1.55278 54.0837C1.53681 54.1528 1.5309 54.2409 1.52736 54.2985C1.52282 54.3723 1.51899 54.4658 1.51573 54.5745C1.50921 54.7924 1.50466 55.084 1.50218 55.4272C1.49723 56.1143 1.50055 57.0177 1.51373 57.9727L2.51363 57.9589C2.50053 57.0094 2.49726 56.1133 2.50216 55.4344C2.50461 55.0946 2.50908 54.8116 2.51529 54.6044C2.5184 54.5004 2.52185 54.4187 2.52547 54.3598C2.53009 54.2846 2.53321 54.2825 2.52709 54.3089L1.55278 54.0837ZM1.51374 57.9736C1.53981 59.643 1.55296 60.5411 1.60424 61.1239C1.65908 61.7473 1.76108 62.0428 1.94344 62.4987L2.87191 62.1273C2.71279 61.7295 2.64405 61.5325 2.60039 61.0363C2.55317 60.4995 2.54006 59.6509 2.51362 57.958L1.51374 57.9736ZM1.94051 62.4912C2.44903 63.8242 3.10231 64.8698 4.06112 65.8424L4.77326 65.1404C3.91961 64.2744 3.33823 63.3495 2.87484 62.1348L1.94051 62.4912ZM4.05886 65.8401C5.07687 66.8862 6.20823 67.5814 7.66332 68.103L8.00073 67.1616C6.67144 66.6852 5.67507 66.067 4.77552 65.1427L4.05886 65.8401ZM7.66687 68.1042L8.71761 68.4719L9.04792 67.5281L7.99718 67.1604L7.66687 68.1042ZM8.88276 68.5H27.4672V67.5H8.88276V68.5ZM27.4672 68.5H46.052V67.5H27.4672V68.5ZM46.2081 68.475L47.1274 68.1729L46.8152 67.2229L45.896 67.525L46.2081 68.475ZM47.1287 68.1725C49.8904 67.2567 51.9867 65.1991 52.9968 62.4318L52.0574 62.089C51.1498 64.5754 49.2798 66.4057 46.814 67.2233L47.1287 68.1725ZM52.996 62.4339L53.3507 61.4751L52.4128 61.1282L52.0581 62.0869L52.996 62.4339ZM53.3817 61.3031L53.4209 48.1561L52.4209 48.1531L52.3817 61.3001L53.3817 61.3031ZM53.4209 48.1556L53.4474 35.0084L52.4474 35.0064L52.4209 48.1536L53.4209 48.1556ZM52.9699 35.5069L54.7166 35.4282L54.6716 34.4292L52.9248 34.5079L52.9699 35.5069ZM54.7147 35.4282C56.0136 35.3746 56.8539 35.2661 57.8717 34.9911L57.6108 34.0257C56.685 34.2758 55.9225 34.3775 54.6735 34.4291L54.7147 35.4282ZM57.8689 34.9918C63.8766 33.405 68.4843 28.3768 69.5553 22.2485L68.5702 22.0764C67.5662 27.8212 63.2426 32.5382 57.6136 34.025L57.8689 34.9918ZM69.5557 22.246C69.7019 21.3833 69.7435 20.1004 69.7054 18.8732C69.6674 17.6502 69.5482 16.418 69.3492 15.6646L68.3824 15.92C68.5511 16.559 68.6684 17.6975 68.7059 18.9043C68.7433 20.1068 68.6996 21.3128 68.5698 22.079L69.5557 22.246ZM69.3488 15.6631C68.2136 11.4204 65.7211 8.01596 62.0891 5.76637L61.5626 6.6165C64.9706 8.72739 67.3111 11.9162 68.3828 15.9215L69.3488 15.6631ZM62.0881 5.76574C60.7414 4.936 59.342 4.35287 57.6833 3.9213L57.4315 4.88908C59.0037 5.29813 60.3096 5.84451 61.5636 6.61712L62.0881 5.76574ZM57.6833 3.92129C56.8242 3.69781 55.5677 3.5613 54.3331 3.51644C53.0983 3.47157 51.8323 3.51645 50.9531 3.67691L51.1326 4.66066C51.9085 4.51906 53.092 4.472 54.2968 4.51578C55.5018 4.55956 56.6751 4.69228 57.4315 4.88908L57.6833 3.92129ZM37.9587 16.6984C37.8554 17.1777 37.7965 18.0821 37.7784 18.9705C37.7602 19.8661 37.7824 20.8165 37.8597 21.4006L38.8511 21.2693C38.784 20.7633 38.7603 19.8749 38.7782 18.9908C38.7963 18.0994 38.8556 17.2833 38.9362 16.9089L37.9587 16.6984ZM37.8596 21.3994C38.0336 22.7376 38.4494 24.4329 38.8321 25.2832L39.744 24.8728C39.4174 24.1472 39.0188 22.5592 38.8512 21.2705L37.8596 21.3994ZM38.8306 25.28L39.0801 25.8449L39.9949 25.4409L39.7454 24.876L38.8306 25.28ZM39.5375 25.1429H34.1656V26.1429H39.5375V25.1429ZM34.1656 25.1429H28.8071V26.1429H34.1656V25.1429ZM28.424 25.3216L28.0824 25.7288L28.8486 26.3715L29.1902 25.9643L28.424 25.3216ZM28.0839 25.7272C27.8329 26.0237 27.6405 26.3625 27.6405 26.7593C27.6405 27.1561 27.8329 27.4948 28.0839 27.7914L28.8472 27.1454C28.6648 26.9299 28.6405 26.8156 28.6405 26.7593C28.6405 26.703 28.6648 26.5886 28.8472 26.3732L28.0839 25.7272ZM28.0824 27.7898L28.424 28.197L29.1902 27.5543L28.8486 27.1471L28.0824 27.7898ZM28.8071 28.3756H34.7567V27.3756H28.8071V28.3756ZM34.7567 28.3756H40.7063V27.3756H34.7567V28.3756ZM40.2994 28.1663L40.8905 28.9938L41.7042 28.4125L41.1132 27.585L40.2994 28.1663ZM40.8905 28.9938C42.8618 31.7534 46.0182 33.961 49.3052 34.8846L49.5757 33.9219C46.5058 33.0592 43.5419 30.985 41.7042 28.4125L40.8905 28.9938ZM49.3064 34.8849L50.5806 35.2396L50.8487 34.2762L49.5745 33.9215L49.3064 34.8849ZM50.2147 34.7579V47.1825H51.2147V34.7579H50.2147ZM50.2147 47.1825C50.2147 51.2074 50.2015 54.3838 50.1769 56.6221C50.1646 57.7416 50.1494 58.6245 50.1317 59.2608C50.1133 59.9176 50.0928 60.2702 50.0768 60.3657L51.0632 60.5303C51.0933 60.35 51.1138 59.9129 51.1313 59.2887C51.1493 58.6441 51.1645 57.7547 51.1768 56.6331C51.2015 54.3895 51.2147 51.2089 51.2147 47.1825H50.2147ZM50.0764 60.3686C49.6299 63.1437 47.1884 65.2158 44.3424 65.2278L44.3466 66.2278C47.6738 66.2137 50.5382 63.7937 51.0637 60.5274L50.0764 60.3686ZM44.3445 65.2278C41.5651 65.2278 39.1064 63.1808 38.611 60.4378L37.6269 60.6156C38.2085 63.8356 41.0825 66.2278 44.3445 66.2278V65.2278ZM38.6109 60.4373C38.5789 60.2614 38.5434 59.7889 38.5169 59.134C38.4909 58.4942 38.4746 57.7163 38.4746 56.9544H37.4746C37.4746 57.7291 37.4911 58.5206 37.5177 59.1745C37.5436 59.8133 37.5803 60.3587 37.627 60.6161L38.6109 60.4373ZM38.4746 56.9544C38.4746 55.6892 38.4684 54.9621 38.4318 54.518C38.4134 54.2941 38.3852 54.1106 38.3333 53.9524C38.2763 53.7785 38.1982 53.6577 38.1139 53.5535L37.3363 54.1822C37.3636 54.2159 37.3724 54.2314 37.3831 54.264C37.3989 54.3123 37.4191 54.4053 37.4352 54.6001C37.4676 54.9934 37.4746 55.6716 37.4746 56.9544H38.4746ZM38.1171 53.5575L37.8676 53.2423L37.0836 53.863L37.3331 54.1782L38.1171 53.5575ZM37.4772 53.0527L25.2362 53.0132L25.2329 54.0132L37.474 54.0527L37.4772 53.0527ZM25.2356 53.0132L13.0079 52.987L13.0058 53.987L25.2335 54.0132L25.2356 53.0132ZM13.5068 53.4937L13.5724 48.5947L12.5725 48.5813L12.5069 53.4803L13.5068 53.4937ZM13.5724 48.5978C13.625 45.914 13.6907 37.5701 13.7302 30.0718L12.7302 30.0665C12.6907 37.5671 12.6251 45.9031 12.5726 48.5782L13.5724 48.5978ZM13.7302 30.072L13.8089 16.4519L12.8089 16.4461L12.7302 30.0662L13.7302 30.072ZM13.3089 16.949H25.9177V15.949H13.3089V16.949ZM25.9177 16.949H38.5262V15.949H25.9177V16.949ZM38.038 16.3407L37.9593 16.6953L38.9356 16.912L39.0143 16.5573L38.038 16.3407ZM24.0146 65.3065L23.9864 65.3064L23.9836 66.3064L24.0118 66.3065L24.0146 65.3065ZM24.0146 65.3065C24.0099 65.3065 24.0053 65.3065 24.0006 65.3065C23.9959 65.3065 23.9911 65.3065 23.9864 65.3064L23.9837 66.3064C23.9883 66.3064 23.9929 66.3065 23.9977 66.3065C24.0023 66.3065 24.0071 66.3065 24.0118 66.3065L24.0146 65.3065Z" fill="#0B2D1F" mask="url(#path-1-outside-1_5978_45093)"/>
</g>
<path id="Vector_2" d="M20.8356 23.7122C18.6947 24.7366 18.1301 27.3373 19.6796 29.0577C20.4679 29.9377 21.3346 30.2924 22.5429 30.2137C23.5937 30.148 24.303 29.8326 24.9202 29.1628C25.6295 28.4143 25.8264 27.915 25.8264 26.825C25.8264 25.7349 25.6295 25.2359 24.9202 24.4871C24.2766 23.7909 23.5937 23.5022 22.4772 23.4496C21.6367 23.4101 21.3872 23.4496 20.8356 23.7122ZM23.0945 25.9844C23.7645 26.4047 23.6199 27.403 22.858 27.7837C22.346 28.0332 21.8731 27.9414 21.4003 27.5212C21.0851 27.2452 21.0851 26.4047 21.4003 26.129C21.9388 25.6428 22.4772 25.5905 23.0945 25.9844Z" fill="#0B2D1F"/>
<path id="Vector_3" d="M21.2937 32.9848C18.8507 33.7333 17.9709 36.833 19.7046 38.6193C20.3744 39.3021 21.0703 39.6042 22.1212 39.6701C23.2113 39.7357 23.9862 39.4729 24.735 38.8031C25.5491 38.0677 25.812 37.4371 25.825 36.2814C25.825 35.4408 25.7725 35.2044 25.4704 34.679C25.0106 33.9171 24.3147 33.3264 23.5398 33.0635C22.9223 32.8535 21.8453 32.814 21.2937 32.9848ZM23.1982 35.5591C23.7498 36.0976 23.5923 36.8986 22.8566 37.2797C21.7009 37.8708 20.5188 36.3601 21.4906 35.5196C21.9768 35.1123 22.7779 35.1257 23.1982 35.5591Z" fill="#0B2D1F"/>
<path id="Vector_4" d="M28.7814 35.2704C28.0591 35.6381 27.9673 36.689 28.6109 37.201C28.9522 37.4639 29.0838 37.4639 36.7014 37.4375L44.4373 37.3979L44.6868 37.0828C44.9363 36.7807 45.0153 36.111 44.8576 35.6907C44.6342 35.1127 44.4504 35.0996 36.5701 35.0996C30.8172 35.0996 29.0312 35.1391 28.7814 35.2704Z" fill="#0B2D1F"/>
<path id="Vector_5" d="M20.9797 42.586C20.1525 42.9142 19.4168 43.6234 19.0491 44.4771C18.826 45.0025 18.7865 45.3046 18.826 46.0008C18.9047 46.9726 19.1411 47.5111 19.7848 48.1678C20.4412 48.8245 20.9797 49.0479 21.978 49.1266C23.147 49.2053 23.9086 48.9823 24.6574 48.3256C25.3797 47.695 25.7605 46.9726 25.8526 46.0664C26.1151 43.5317 23.4357 41.6272 20.9797 42.586ZM23.1862 45.0156C23.6199 45.4228 23.633 45.9877 23.2127 46.4867C22.4377 47.3929 20.8092 46.5523 21.19 45.4359C21.4659 44.6479 22.5429 44.4245 23.1862 45.0156Z" fill="#0B2D1F"/>
<path id="Vector_6" d="M28.6104 44.9496C28.4265 45.0942 28.2427 45.3832 28.1901 45.5932C28.0983 46.0266 28.387 46.7097 28.7155 46.841C28.8337 46.8805 32.4063 46.9197 36.6483 46.9197H44.3711L44.6471 46.6176C45.0804 46.1579 45.0412 45.3173 44.5945 44.9629C44.2529 44.687 44.1347 44.687 36.5961 44.687C29.1358 44.687 28.9389 44.687 28.6104 44.9496Z" fill="#0B2D1F"/>
</g>
<g id="Group 1171275130">
<g id="Group 1171275129">
<g id="Group_2">
<g id="Vector_7">
<path d="M59.8191 11.5336L44.8973 15.7309C44.7727 15.7664 44.6528 15.8133 44.5373 15.8721C44.4223 15.9308 44.3135 16.0003 44.2119 16.0804C44.1103 16.1605 44.0175 16.2497 43.9337 16.348C43.8493 16.4465 43.7753 16.5519 43.7124 16.6648C43.6489 16.7774 43.5974 16.8955 43.5573 17.0183C43.5172 17.1416 43.4895 17.2673 43.474 17.3957C43.4586 17.5242 43.456 17.6533 43.4659 17.782C43.4755 17.9114 43.498 18.0381 43.5331 18.1629L45.6244 25.598C45.6595 25.7228 45.7064 25.8426 45.7655 25.9575C45.8243 26.073 45.8937 26.1813 45.9738 26.2829C46.054 26.3845 46.1433 26.4777 46.2416 26.5616C46.3399 26.6455 46.4454 26.7194 46.5584 26.7828C46.6708 26.8459 46.7891 26.8979 46.9124 26.9379C47.0352 26.978 47.1608 27.0058 47.2893 27.0212C47.4178 27.0366 47.5469 27.0392 47.6756 27.0293C47.8048 27.0193 47.9315 26.9968 48.0563 26.9617L62.9781 22.7645C63.1024 22.7295 63.2223 22.6826 63.3378 22.6238C63.4528 22.5652 63.5616 22.4957 63.6632 22.4155C63.7648 22.3354 63.8576 22.2462 63.9419 22.1478C64.0258 22.0495 64.0996 21.9435 64.1632 21.831C64.2261 21.718 64.278 21.5998 64.3182 21.477C64.3583 21.3542 64.386 21.2281 64.4014 21.0996C64.4168 20.9711 64.4196 20.8425 64.4095 20.7133C64.3996 20.5846 64.3771 20.4578 64.342 20.3331L62.2507 12.898C62.2156 12.7732 62.1687 12.6533 62.1099 12.5378C62.0513 12.4228 61.9817 12.314 61.9016 12.2124C61.8215 12.1108 61.7323 12.0181 61.6338 11.9337C61.5356 11.8498 61.4296 11.776 61.3172 11.713C61.2041 11.6495 61.086 11.5981 60.9632 11.5579C60.8399 11.5179 60.7143 11.4901 60.5858 11.4747C60.4573 11.4593 60.3282 11.4567 60.1995 11.4666C60.0703 11.4766 59.9436 11.4991 59.8191 11.5336ZM47.7053 25.7138C47.6624 25.7259 47.6193 25.7333 47.575 25.7368C47.5308 25.7403 47.4869 25.7395 47.4427 25.734C47.3987 25.7291 47.3556 25.7196 47.3133 25.7057C47.2715 25.6917 47.2308 25.6742 47.1921 25.6525C47.1533 25.6308 47.1173 25.6057 47.0834 25.5768C47.0502 25.5483 47.0196 25.5164 46.9919 25.4816C46.9648 25.4466 46.9407 25.4097 46.9206 25.3701C46.9005 25.3305 46.8842 25.2894 46.8723 25.247L44.781 17.8119C44.7689 17.769 44.7613 17.7253 44.758 17.6816C44.7545 17.6373 44.7556 17.5928 44.7607 17.5493C44.7662 17.5052 44.7756 17.462 44.789 17.4198C44.8029 17.3775 44.8205 17.3373 44.8423 17.2986C44.864 17.2599 44.8896 17.2238 44.9181 17.1905C44.947 17.1566 44.9789 17.126 45.0137 17.0984C45.0487 17.0712 45.0855 17.0471 45.1251 17.027C45.1647 17.007 45.2055 16.9913 45.2483 16.9787L60.1701 12.7815C60.2127 12.7701 60.2562 12.762 60.3004 12.7585C60.3442 12.7551 60.3887 12.7563 60.4327 12.7613C60.4764 12.7669 60.5195 12.7763 60.5618 12.7902C60.604 12.8036 60.6442 12.8212 60.6829 12.8429C60.7216 12.8646 60.7576 12.8898 60.7915 12.9186C60.8249 12.9476 60.856 12.9794 60.8832 13.0144C60.9107 13.0487 60.9344 13.0862 60.9545 13.1258C60.9744 13.1649 60.9907 13.2061 61.0028 13.249L63.0941 20.6841C63.1061 20.7265 63.1136 20.7701 63.1171 20.8144C63.1206 20.8586 63.1198 20.9025 63.1144 20.9466C63.1094 20.9906 63.0995 21.0339 63.0859 21.0756C63.0721 21.1179 63.0544 21.1581 63.0327 21.1968C63.011 21.2356 62.9859 21.2716 62.957 21.3055C62.9281 21.3393 62.8962 21.3699 62.8618 21.3969C62.8269 21.4246 62.7894 21.4483 62.7503 21.4683C62.7107 21.4883 62.6696 21.5047 62.6271 21.5166L47.7053 25.7138Z" fill="#0B2D1F"/>
<path d="M47.7053 25.7138C47.6624 25.7259 47.6193 25.7333 47.575 25.7368C47.5308 25.7403 47.4869 25.7395 47.4427 25.734C47.3987 25.7291 47.3556 25.7196 47.3133 25.7057C47.2715 25.6917 47.2308 25.6742 47.1921 25.6525C47.1533 25.6308 47.1173 25.6057 47.0834 25.5768C47.0502 25.5483 47.0196 25.5164 46.9919 25.4816C46.9648 25.4466 46.9407 25.4097 46.9206 25.3701C46.9005 25.3305 46.8842 25.2894 46.8723 25.247L44.781 17.8119C44.7689 17.769 44.7613 17.7253 44.758 17.6816C44.7545 17.6373 44.7556 17.5928 44.7607 17.5493C44.7662 17.5052 44.7756 17.462 44.789 17.4198C44.8029 17.3775 44.8205 17.3373 44.8423 17.2986C44.864 17.2599 44.8896 17.2238 44.9181 17.1905C44.947 17.1566 44.9789 17.126 45.0137 17.0984C45.0487 17.0712 45.0855 17.0471 45.1251 17.027C45.1647 17.007 45.2055 16.9913 45.2483 16.9787L60.1701 12.7815C60.2127 12.7701 60.2562 12.762 60.3004 12.7585C60.3442 12.7551 60.3887 12.7563 60.4327 12.7613C60.4764 12.7669 60.5195 12.7763 60.5618 12.7902C60.604 12.8036 60.6442 12.8212 60.6829 12.8429C60.7216 12.8646 60.7576 12.8898 60.7915 12.9186C60.8249 12.9476 60.856 12.9794 60.8832 13.0144C60.9107 13.0487 60.9344 13.0862 60.9545 13.1258C60.9744 13.1649 60.9907 13.2061 61.0028 13.249L63.0941 20.6841C63.1061 20.7265 63.1136 20.7701 63.1171 20.8144C63.1206 20.8586 63.1198 20.9025 63.1144 20.9466C63.1094 20.9906 63.0995 21.0339 63.0859 21.0756C63.0721 21.1179 63.0544 21.1581 63.0327 21.1968C63.011 21.2356 62.9859 21.2716 62.957 21.3055C62.9281 21.3393 62.8962 21.3699 62.8618 21.3969C62.8269 21.4246 62.7894 21.4483 62.7503 21.4683C62.7107 21.4883 62.6696 21.5047 62.6271 21.5166L47.7053 25.7138Z" fill="#62C89E"/>
</g>
</g>
<g id="Group_3">
<path id="Vector_8" d="M54.8546 12.9301C54.8131 12.9417 54.7739 12.9575 54.7361 12.9765C54.6979 12.9957 54.6623 13.0189 54.6291 13.045C54.5955 13.0713 54.5648 13.1005 54.5371 13.133C54.5094 13.1655 54.4855 13.2001 54.4643 13.2371C54.4438 13.2744 54.4267 13.3129 54.4134 13.3535C54.4001 13.394 54.3913 13.4354 54.3864 13.4779C54.3813 13.5198 54.3801 13.5622 54.3837 13.6049C54.3871 13.647 54.3946 13.6886 54.4061 13.7295L57.2141 23.7125C57.2257 23.7534 57.2409 23.7928 57.2601 23.8311C57.2797 23.8687 57.3023 23.9044 57.3286 23.938C57.3548 23.9712 57.3844 24.0018 57.4164 24.0296C57.4489 24.0573 57.4837 24.0817 57.5205 24.1024C57.558 24.1234 57.597 24.1403 57.6369 24.1533C57.6775 24.1666 57.7189 24.1754 57.7614 24.1808C57.8034 24.1859 57.8456 24.1866 57.8883 24.183C57.9306 24.1801 57.9722 24.1726 58.0136 24.1609C58.0545 24.1494 58.0939 24.1341 58.1315 24.1146C58.1698 24.0954 58.2055 24.0728 58.2386 24.0466C58.2721 24.0198 58.3029 23.9907 58.3305 23.9581C58.3584 23.9261 58.3823 23.8915 58.4033 23.854C58.424 23.8172 58.4409 23.7782 58.4542 23.7377C58.467 23.6973 58.4764 23.6557 58.4814 23.6138C58.4863 23.5714 58.4871 23.5291 58.4841 23.4868C58.4805 23.4441 58.473 23.4026 58.4615 23.3616L55.6535 13.3787C55.6425 13.3376 55.6267 13.2983 55.6077 13.2606C55.5885 13.2223 55.5653 13.1867 55.5392 13.1536C55.5129 13.12 55.4837 13.0892 55.4512 13.0616C55.4187 13.0339 55.3841 13.0099 55.3471 12.9888C55.3098 12.9683 55.2713 12.9512 55.2307 12.9379C55.1902 12.9246 55.1488 12.9157 55.1064 12.9108C55.0644 12.9058 55.022 12.9045 54.9794 12.9081C54.9372 12.9116 54.8955 12.9186 54.8546 12.9301Z" fill="#0B2D1F"/>
</g>
<path id="Vector_9" d="M60.7034 19.3643L59.4555 19.7153C59.4146 19.7268 59.3752 19.7421 59.3376 19.7616C59.2993 19.7808 59.2636 19.8035 59.2306 19.8301C59.197 19.8564 59.1663 19.8856 59.1386 19.9181C59.1109 19.9506 59.087 19.9852 59.0658 20.0222C59.0452 20.059 59.0282 20.098 59.0149 20.1385C59.0016 20.1791 58.9927 20.2205 58.9877 20.2624C58.9828 20.3049 58.9816 20.3473 58.985 20.3894C58.9886 20.4321 58.9956 20.4738 59.0071 20.5147C59.0186 20.5557 59.0344 20.5949 59.0536 20.6332C59.0726 20.6709 59.0958 20.7065 59.1221 20.7401C59.1484 20.7738 59.1774 20.804 59.2099 20.8317C59.2424 20.8594 59.2771 20.8838 59.314 20.9045C59.3515 20.9255 59.3899 20.9425 59.4304 20.9554C59.4709 20.9687 59.5125 20.978 59.5549 20.9829C59.5968 20.988 59.6391 20.9887 59.6819 20.9856C59.7241 20.9822 59.7656 20.9747 59.8066 20.9632L61.0544 20.6122C61.0954 20.6006 61.1352 20.5852 61.173 20.5662C61.2111 20.5465 61.2468 20.5239 61.2805 20.4976C61.3136 20.4714 61.3443 20.4423 61.372 20.4097C61.3997 20.3772 61.4241 20.3425 61.4448 20.3056C61.4658 20.2682 61.4829 20.2297 61.4962 20.1891C61.509 20.1487 61.5183 20.1072 61.5232 20.0647C61.5283 20.0228 61.5294 19.9799 61.5259 19.9377C61.5225 19.8956 61.5154 19.8534 61.5038 19.8125C61.4923 19.7715 61.4765 19.7323 61.4574 19.694C61.4383 19.6562 61.4152 19.6207 61.3889 19.587C61.3626 19.5534 61.3331 19.5233 61.3011 19.4955C61.2686 19.4678 61.2338 19.4434 61.1965 19.4229C61.1595 19.4017 61.1205 19.3848 61.08 19.3715C61.0395 19.3586 60.998 19.3493 60.9561 19.3443C60.9137 19.3394 60.8714 19.3386 60.8287 19.3422C60.7864 19.3452 60.7444 19.3528 60.7034 19.3643Z" fill="#0B2D1F"/>
<path id="Vector_10" d="M60.0013 16.8687L58.7534 17.2197C58.7125 17.2312 58.6731 17.2465 58.6355 17.266C58.5972 17.2852 58.5616 17.3084 58.5285 17.3345C58.4948 17.3608 58.4641 17.39 58.4364 17.4225C58.4088 17.455 58.3848 17.4896 58.3637 17.5266C58.3431 17.5639 58.3261 17.6024 58.3128 17.6429C58.2995 17.6835 58.2906 17.7249 58.2856 17.7668C58.2806 17.8093 58.2794 17.8517 58.283 17.8943C58.2865 17.9365 58.2934 17.9782 58.305 18.0191C58.3165 18.0601 58.3324 18.0998 58.3514 18.1376C58.3705 18.1753 58.3936 18.2109 58.4199 18.2445C58.4462 18.2782 58.4752 18.3084 58.5077 18.3361C58.5402 18.3638 58.575 18.3882 58.6118 18.4089C58.6493 18.4299 58.6878 18.4469 58.7282 18.4598C58.7688 18.4731 58.8103 18.4824 58.8527 18.4873C58.8947 18.4924 58.9369 18.4931 58.9797 18.49C59.0219 18.4866 59.0635 18.4791 59.1044 18.4676L60.3523 18.1166C60.3932 18.105 60.4331 18.0896 60.4708 18.0706C60.5085 18.0511 60.5447 18.0283 60.5778 18.0021C60.6115 17.9758 60.642 17.9462 60.6692 17.9138C60.6971 17.8818 60.7215 17.847 60.742 17.8097C60.7632 17.7727 60.7801 17.7337 60.7934 17.6932C60.8062 17.6528 60.8157 17.6117 60.8206 17.5693C60.8255 17.5269 60.8262 17.4846 60.8233 17.4423C60.8198 17.4001 60.8122 17.3581 60.8007 17.3171C60.7892 17.2762 60.7739 17.2368 60.7549 17.199C60.7352 17.1609 60.7125 17.1252 60.6862 17.0916C60.6601 17.0584 60.6304 17.0278 60.5984 17C60.5659 16.9723 60.5313 16.9484 60.4938 16.9274C60.457 16.9067 60.418 16.8898 60.3775 16.8765C60.3374 16.863 60.296 16.8542 60.2536 16.8493C60.2116 16.8442 60.1687 16.8432 60.1266 16.8466C60.0843 16.8496 60.0422 16.8572 60.0013 16.8687Z" fill="#0B2D1F"/>
<path id="Vector_11" d="M59.2986 14.3734L58.0508 14.7244C58.0098 14.7359 57.9706 14.7516 57.9328 14.7707C57.8952 14.7902 57.8595 14.8129 57.8258 14.8392C57.7922 14.8655 57.7621 14.895 57.7344 14.9275C57.7066 14.9595 57.6827 14.9941 57.6617 15.0316C57.641 15.0684 57.6241 15.1074 57.6108 15.148C57.5978 15.1879 57.5884 15.2295 57.5835 15.2719C57.5785 15.3138 57.5778 15.3561 57.5809 15.3989C57.5843 15.441 57.5918 15.4826 57.6033 15.5235C57.6148 15.5645 57.6302 15.6043 57.6493 15.6421C57.6688 15.6797 57.6915 15.7154 57.7178 15.7491C57.7439 15.7822 57.7736 15.8128 57.8056 15.8406C57.8381 15.8683 57.8728 15.8927 57.9097 15.9134C57.947 15.9339 57.9855 15.951 58.0261 15.9643C58.0666 15.9776 58.1076 15.9866 58.1501 15.992C58.1925 15.9969 58.2348 15.9976 58.2771 15.9947C58.3193 15.9912 58.3608 15.9838 58.4018 15.9722L59.6496 15.6212C59.6906 15.6097 59.7304 15.5943 59.7682 15.5753C59.8059 15.5557 59.842 15.5329 59.8752 15.5068C59.9088 15.4805 59.9394 15.4508 59.9667 15.4189C59.9944 15.3864 60.0188 15.3517 60.0394 15.3144C60.0605 15.2774 60.0774 15.2384 60.0908 15.1978C60.1037 15.1579 60.1131 15.1164 60.118 15.0739C60.123 15.032 60.1236 14.9892 60.1207 14.9469C60.1172 14.9048 60.1096 14.8627 60.0981 14.8218C60.0866 14.7808 60.0713 14.7415 60.0522 14.7037C60.0326 14.6656 60.0099 14.6299 59.9837 14.5967C59.9575 14.5631 59.9278 14.5325 59.8958 14.5047C59.8633 14.477 59.8287 14.4531 59.7912 14.4321C59.7543 14.4114 59.7154 14.3945 59.6748 14.3812C59.6348 14.3677 59.5933 14.3588 59.5509 14.3539C59.509 14.3489 59.4661 14.3478 59.4239 14.3513C59.3818 14.3547 59.3396 14.3618 59.2986 14.3734Z" fill="#0B2D1F"/>
<path id="Vector_12" d="M48.0853 18.0659C48.0234 18.0833 47.9655 18.1095 47.9115 18.1437C47.8576 18.1783 47.8099 18.2201 47.7683 18.2686C47.7262 18.3173 47.6929 18.3708 47.6669 18.4297C47.6413 18.4885 47.6248 18.5494 47.6169 18.6131C47.6096 18.6768 47.6112 18.7405 47.6226 18.8035C47.634 18.8666 47.6541 18.9267 47.6828 18.9839C47.712 19.0409 47.7487 19.0926 47.7931 19.1385C47.8377 19.1849 47.8876 19.224 47.9437 19.255L53.0601 22.125C53.0971 22.1462 53.1361 22.1631 53.1765 22.1759C53.217 22.1892 53.2585 22.1981 53.3004 22.2031C53.3429 22.2085 53.3852 22.2092 53.4274 22.2058C53.47 22.2022 53.5117 22.1952 53.5527 22.1837C53.5936 22.1722 53.6328 22.1564 53.6706 22.1374C53.7087 22.1177 53.7445 22.095 53.7776 22.0689C53.8112 22.0426 53.8418 22.013 53.8691 21.9811C53.8968 21.9486 53.9212 21.9138 53.9419 21.877C53.9629 21.8395 53.98 21.801 53.9928 21.7606C54.0061 21.72 54.015 21.6786 54.0205 21.6366C54.0254 21.5942 54.0262 21.5519 54.0227 21.5097C54.0196 21.4669 54.0121 21.4254 54.0006 21.3844C53.9891 21.3435 53.9738 21.3041 53.9548 21.2663C53.9351 21.2282 53.9124 21.1925 53.8863 21.1593C53.86 21.1257 53.8304 21.0951 53.7983 21.0673C53.766 21.0401 53.7312 21.0157 53.6942 20.9945L48.5778 18.1246C48.5029 18.0825 48.4224 18.0563 48.3374 18.046C48.252 18.0358 48.1676 18.0427 48.0853 18.0659Z" fill="#0B2D1F"/>
<path id="Vector_13" d="M49.2981 21.8994C49.216 21.9235 49.1417 21.9623 49.0754 22.0162C49.0069 22.0681 48.9505 22.1313 48.9059 22.2049C48.8875 22.2421 48.8714 22.2803 48.8572 22.3196C48.8432 22.3614 48.8352 22.4041 48.8328 22.4479C48.8248 22.4886 48.8227 22.5297 48.8269 22.5711C48.8282 22.6149 48.836 22.6574 48.8497 22.6988C48.859 22.7393 48.8741 22.7782 48.8952 22.8138C48.9129 22.8541 48.9366 22.89 48.9662 22.9222C48.9897 22.9572 49.0182 22.9875 49.0522 23.0127C49.0836 23.0423 49.1183 23.0683 49.1552 23.091C49.2317 23.1311 49.3123 23.1557 49.3983 23.1642C49.4615 23.1722 49.5248 23.1707 49.588 23.1597C49.6512 23.1488 49.7113 23.1287 49.7684 23.1C49.8256 23.0713 49.8775 23.0352 49.924 22.991C49.9705 22.9469 50.0092 22.8976 50.0414 22.8418C50.1244 22.6843 50.1433 22.5196 50.0976 22.3478C50.0848 22.3062 50.0688 22.266 50.0499 22.2271C50.032 22.1895 50.0093 22.1554 49.9807 22.125C49.9558 22.0889 49.9268 22.0566 49.893 22.0282C49.8595 22.0045 49.8259 21.9803 49.7921 21.9556C49.6348 21.8715 49.4701 21.8526 49.2981 21.8994Z" fill="#0B2D1F"/>
<path id="Vector_14" d="M51.9888 17.1026C51.927 17.1205 51.8692 17.1468 51.8152 17.1814C51.7613 17.2161 51.7137 17.2579 51.6721 17.3064C51.6306 17.3554 51.5968 17.4091 51.5713 17.4678C51.5456 17.5261 51.5287 17.5876 51.5213 17.6513C51.5135 17.715 51.5155 17.7781 51.5264 17.8413C51.5373 17.9045 51.5574 17.9646 51.5866 18.0216C51.6153 18.0788 51.6519 18.1305 51.696 18.177C51.7402 18.2236 51.7901 18.2626 51.8458 18.2943C52.1418 18.4604 52.5659 18.3411 52.7315 18.0452C52.752 18.0078 52.769 17.9689 52.7816 17.928C52.7945 17.8875 52.8033 17.8461 52.8082 17.8037C52.8131 17.7613 52.8139 17.719 52.8103 17.6764C52.8073 17.6341 52.7997 17.592 52.7882 17.5511C52.7767 17.5101 52.7614 17.4708 52.7417 17.4326C52.7227 17.3949 52.6999 17.3587 52.6736 17.325C52.6474 17.2919 52.6181 17.2607 52.5861 17.2329C52.5541 17.2051 52.5194 17.1806 52.4824 17.1595C52.4445 17.1428 52.4059 17.1268 52.3677 17.1107C52.326 17.0972 52.2836 17.0886 52.2398 17.0862C52.1991 17.0782 52.158 17.0761 52.1171 17.0802C52.0736 17.0846 52.0311 17.0923 51.9888 17.1026Z" fill="#0B2D1F"/>
</g>
</g>
</g>
</svg>
