<svg width="72" height="72" viewBox="0 0 72 72" fill="none" xmlns="http://www.w3.org/2000/svg">
<g id="vendor-deposit">
<g id="Group 1171275112">
<path id="Subtract" fill-rule="evenodd" clip-rule="evenodd" d="M38.7628 52.729H10.5117V60.6035H40.2432C39.2637 58.5954 38.7141 56.3391 38.7141 53.9545C38.7141 53.5419 38.7305 53.1332 38.7628 52.729Z" fill="#62C89E"/>
<path id="Rectangle 34624750" d="M11.0517 8.25429L47.3908 7.71191L52.2722 24.5255L27.8653 25.0679L5.62793 24.5255L11.0517 8.25429Z" fill="#62C89E"/>
<g id="Group 1171275110">
<g id="Ellipse 2574">
<mask id="path-3-inside-1_5978_45116" fill="white">
<path d="M54.9838 66.8309C62.1729 66.8309 68.0008 61.003 68.0008 53.8139C68.0008 46.6248 62.1729 40.7969 54.9838 40.7969C47.7947 40.7969 41.9668 46.6248 41.9668 53.8139C41.9668 61.003 47.7947 66.8309 54.9838 66.8309Z"/>
</mask>
<path d="M54.9838 66.8309C62.1729 66.8309 68.0008 61.003 68.0008 53.8139C68.0008 46.6248 62.1729 40.7969 54.9838 40.7969C47.7947 40.7969 41.9668 46.6248 41.9668 53.8139C41.9668 61.003 47.7947 66.8309 54.9838 66.8309Z" fill="#22885E" stroke="#0B2D1F" stroke-width="5" mask="url(#path-3-inside-1_5978_45116)"/>
</g>
</g>
<path id="Subtract_2" fill-rule="evenodd" clip-rule="evenodd" d="M39.1221 49.8119H37.7718V48.0847C37.7718 45.4886 36.5919 43.1449 34.7956 41.5426C35.4174 40.493 35.8506 39.2547 35.8506 37.9021C35.8506 34.1953 32.8107 31.1102 29.0294 31.1102C25.3119 31.1102 22.2109 34.1315 22.2109 37.9021C22.2109 39.2547 22.5856 40.493 23.2658 41.5426C21.4695 43.1449 20.287 45.4275 20.287 48.021V49.7482H10.6226V28.0836C10.9308 28.1473 11.1806 28.1473 11.4889 28.1473C13.0407 28.1473 14.5288 27.6531 15.8282 26.7895C17.0664 27.6531 18.5545 28.1473 20.1063 28.1473H20.4146C21.9026 28.1473 23.3907 27.7142 24.629 26.8506C25.8699 27.6531 27.358 28.1473 28.846 28.1473H29.2818C30.7699 28.1473 32.2526 27.7142 33.4962 26.8506C34.7319 27.6531 36.1588 28.1473 37.7107 28.1473H38.0162C39.5681 28.1473 41.0561 27.6531 42.2944 26.7895C43.538 27.6531 45.0208 28.1473 46.6337 28.1473C46.7878 28.1473 46.9273 28.1314 47.0668 28.1155C47.2064 28.0995 47.3459 28.0836 47.5 28.0836V39.8447C48.5761 39.3747 49.7195 39.0304 50.9119 38.8301V26.6646C52.1475 25.801 53.0776 24.568 53.6356 23.0853C54.2574 21.4165 54.1963 19.5033 53.4549 17.6512L51.7144 13.3305C51.1617 11.9726 50.7232 10.4899 50.415 9.01245C49.9819 6.66876 47.9331 5 45.5788 5H12.48C10.1257 5 8.0796 6.66876 7.64647 9.01245C7.39934 10.4899 6.96621 11.9115 6.34441 13.3305L4.61188 17.6512C3.86519 19.4395 3.80142 21.4165 4.42322 23.0853C4.98124 24.568 5.91128 25.801 7.14956 26.6646V61.844C7.14956 62.8325 7.95471 63.5765 8.8874 63.5765H42.9507C41.9433 62.5594 41.0839 61.3954 40.4076 60.1194H10.6226V53.269H38.7111C38.7113 52.0781 38.8536 50.9204 39.1221 49.8119ZM29.0294 44.625C27.9187 44.625 26.8637 44.3832 25.9337 43.8889C24.6901 44.8748 23.8238 46.3575 23.8238 48.021V49.7482H34.2376V48.021C34.2376 46.2964 33.3687 44.8137 32.1331 43.8889C31.203 44.3832 30.1481 44.625 29.0294 44.625ZM25.745 37.9021C25.745 39.6852 27.2331 41.1679 29.0294 41.1679C30.8257 41.1679 32.3138 39.6852 32.3138 37.9021C32.3138 36.1085 30.8257 34.6257 29.0294 34.6257C27.2331 34.6257 25.745 36.1085 25.745 37.9021ZM9.62878 14.6299L7.83247 19.009C7.46312 19.9975 7.39934 21.0472 7.77136 21.9745C8.32938 23.5795 9.81744 24.6265 11.5526 24.6265C12.6687 24.6265 13.7821 24.1322 14.5288 23.2686C14.837 22.8993 15.3312 22.6548 15.8282 22.6548C16.3251 22.6548 16.822 22.8993 17.1276 23.2686C17.8769 24.1322 18.9265 24.6265 20.1063 24.6265H20.4146C21.5306 24.6265 22.5856 24.1322 23.3269 23.3297C23.6989 22.9604 24.1321 22.7744 24.629 22.7744C25.1232 22.8355 25.6201 22.9604 25.9337 23.3297C26.6751 24.1934 27.73 24.6265 28.846 24.6265H29.2818C30.3926 24.6265 31.4475 24.1322 32.1942 23.3297C32.5662 22.9604 32.9356 22.7744 33.4962 22.7744C33.9905 22.7744 34.4874 22.9604 34.7956 23.3297C35.537 24.1322 36.5919 24.6265 37.7107 24.6265H38.0162C39.1349 24.6265 40.2536 24.1322 40.995 23.2686C41.3033 22.8993 41.7975 22.6548 42.2944 22.6548C42.7913 22.6548 43.2856 22.8993 43.5938 23.2686C44.3405 24.1322 45.4592 24.6265 46.5726 24.6265C48.3104 24.6265 49.7932 23.5795 50.3512 21.9745C50.7232 21.1109 50.6648 19.9975 50.2316 19.009L48.43 14.6299C47.7524 13.0223 47.2555 11.3588 46.942 9.62628C46.8224 9.01245 46.2644 8.52086 45.5788 8.52086H12.48C11.7971 8.52086 11.2444 8.95134 11.1168 9.62628C10.8113 11.3588 10.3144 13.0223 9.62878 14.6299Z" fill="#0B2D1F"/>
</g>
<path id="Vector" d="M56.6592 52.0977C55.7505 51.7762 54.7506 51.3915 54.214 50.9688C54.1786 50.9409 54.1128 50.7764 54.1583 50.5309C54.1811 50.4119 54.2824 50.0196 54.662 49.9057C55.0696 49.7816 55.5961 49.9917 56.039 50.2449C56.6035 50.5688 57.3198 50.4549 57.7628 49.974C58.3905 49.2931 58.2007 48.2022 57.378 47.7744C57.1047 47.6326 56.8111 47.4985 56.5022 47.3846C56.482 46.6176 55.8542 46 55.0797 46C54.3583 46 53.7635 46.5391 53.6698 47.2352C52.4827 47.6605 51.6043 48.7059 51.3613 50.0019C51.1234 51.2649 51.5436 52.4926 52.4574 53.2089C53.3154 53.8847 54.5279 54.3631 55.71 54.7808C56.4162 55.0314 56.4871 55.5376 56.4238 55.9173C56.3529 56.34 55.9884 57.0614 55.0721 57.0665C54.1229 57.0715 53.8976 57.0386 53.2041 56.583C52.5459 56.1527 51.6626 56.3375 51.2322 56.9956C50.8019 57.6537 50.9867 58.5346 51.6448 58.9649C52.4118 59.4661 53.0142 59.7116 53.6799 59.8255C53.7989 60.4938 54.3811 61 55.0797 61C55.8365 61 56.4541 60.4077 56.4997 59.6635C57.9045 59.1573 58.9727 57.9322 59.2309 56.3881C59.5524 54.4796 58.5171 52.7533 56.6592 52.0977Z" fill="#0B2D1F"/>
</g>
</svg>
