<svg width="72" height="72" viewBox="0 0 72 72" fill="none" xmlns="http://www.w3.org/2000/svg">
<g id="vendors">
<path id="Vector 676" d="M39.5 5.5H24L19 13H43.5L39.5 5.5Z" fill="#2894B4"/>
<g id="Group 1171275204">
<g id="Group">
<path id="Subtract" fill-rule="evenodd" clip-rule="evenodd" d="M40.0091 64.1899C28.5576 64.2309 11.8068 64.1889 11.2213 64.064C10.3159 63.8758 9.10477 63.1938 8.49333 62.5471C7.87013 61.8887 7.32924 60.8539 7.1411 59.9838C6.95297 59.1019 6.95297 12.3736 7.1411 11.4917C7.45858 10.0101 8.57564 8.56384 9.90435 7.89361C11.0096 7.34096 11.5388 7.28217 15.3838 7.28217H18.9114L19.7815 6.47083C21.0396 5.29498 22.9445 4.37782 24.7671 4.0721C24.9317 4.04858 27.6362 4.0133 30.7874 4.00154C37.0077 3.98979 37.5251 4.02506 39.0654 4.64826C40.2648 5.1186 41.1584 5.69477 42.0521 6.52962L42.8399 7.28217H46.3792C48.5193 7.28217 50.1655 7.3292 50.5417 7.41151C52.5172 7.82306 54.1986 9.50452 54.6219 11.4917C54.7264 11.9815 54.7729 26.6079 54.7613 39.671C53.6397 39.2654 52.4541 38.9935 51.2237 38.8744V35.7377V12.1972L50.965 11.7386C50.4947 10.9038 50.1184 10.8097 47.2729 10.8097H44.7918L44.9564 11.5975C45.0505 12.0444 45.1093 12.8204 45.0858 13.3613C45.0505 14.3961 44.8624 14.7371 44.1451 15.1133C43.6748 15.3603 18.0883 15.3603 17.6179 15.1133C16.9007 14.7371 16.7125 14.3961 16.6772 13.3613C16.6537 12.8204 16.7125 12.0444 16.8066 11.5975L16.9712 10.8097H14.4902C11.6328 10.8097 11.2683 10.9038 10.798 11.7386L10.5393 12.1972V35.7377V59.2783L10.7862 59.7251C10.9273 59.972 11.2331 60.2777 11.48 60.4188L11.9268 60.6658H30.8815H37.1651C37.9265 61.9847 38.8884 63.1733 40.0091 64.1899ZM38.454 8.24636C38.066 8.04647 37.3957 7.79954 36.9842 7.69371C36.361 7.55261 35.2674 7.51734 30.8227 7.52909C27.8478 7.54086 25.1786 7.58789 24.8964 7.64668C23.897 7.83482 22.6741 8.52857 21.898 9.31639C21.2278 9.99838 20.6751 10.8568 20.4752 11.48L20.4047 11.7504H30.8815H41.3583L41.2878 11.48C40.9468 10.3629 39.6298 8.86956 38.454 8.24636Z" fill="#0D313B"/>
</g>
<path id="Vector" d="M22.7432 32.5137C22.5198 32.6078 21.7085 33.3015 20.9559 34.0541L19.5802 35.4181L19.0981 34.983C18.8276 34.7478 18.4866 34.5009 18.322 34.4421C16.8757 33.8895 15.4294 35.4533 16.1114 36.8291C16.3701 37.3465 18.2397 39.2278 18.7688 39.51C19.3215 39.7922 19.8153 39.7922 20.368 39.51C20.6032 39.3807 21.732 38.3459 22.8726 37.1818C24.5305 35.5121 24.9773 34.9948 25.0832 34.6185C25.3301 33.7248 24.7774 32.6783 23.9426 32.4432C23.3782 32.2903 23.2371 32.3021 22.7432 32.5137Z" fill="#0D313B"/>
<path id="Vector_2" d="M28.7241 34.5947C27.6541 35.3119 27.6776 36.7229 28.7829 37.546C29.1004 37.793 29.218 37.793 36.7905 37.793C44.3629 37.793 44.4805 37.793 44.798 37.546C45.9033 36.7229 45.9268 35.3119 44.8568 34.5947L44.457 34.3242H36.7905H29.1239L28.7241 34.5947Z" fill="#0D313B"/>
<path id="Vector_3" d="M22.7432 22.2842C22.5198 22.3783 21.7085 23.072 20.9559 23.8246L19.5802 25.1886L19.0981 24.7535C18.8276 24.5183 18.4866 24.2714 18.322 24.2126C16.8757 23.66 15.4294 25.2239 16.1114 26.5996C16.3701 27.117 18.2397 28.9983 18.7688 29.2805C19.3215 29.5627 19.8153 29.5627 20.368 29.2805C20.6032 29.1512 21.732 28.1164 22.8726 26.9524C24.5305 25.2826 24.9773 24.7653 25.0832 24.389C25.3301 23.4954 24.7774 22.4488 23.9426 22.2137C23.3782 22.0608 23.2371 22.0726 22.7432 22.2842Z" fill="#0D313B"/>
<path id="Vector_4" d="M28.7241 24.3657C27.6541 25.0829 27.6776 26.4939 28.7829 27.317C29.1004 27.564 29.218 27.564 36.7905 27.564C44.3629 27.564 44.4805 27.564 44.798 27.317C45.9033 26.4939 45.9268 25.0829 44.8568 24.3657L44.457 24.0952H36.7905H29.1239L28.7241 24.3657Z" fill="#0D313B"/>
<path id="Vector_5" d="M22.8257 43.0868C22.7669 43.1104 22.5552 43.1574 22.3671 43.2044C22.1437 43.2515 21.5087 43.7806 20.5798 44.6978L19.1335 46.1205L18.6985 45.7325C18.2164 45.3092 17.6167 45.027 17.2169 45.027C16.723 45.027 16.0058 45.4738 15.7353 45.9559C15.1827 46.9436 15.4178 47.5198 17.0405 49.1189C18.3339 50.3889 18.6514 50.5535 19.5686 50.3771C19.9331 50.3066 20.3446 49.9538 22.1555 48.1665C23.3431 46.9907 24.4013 45.8618 24.4954 45.6737C24.9069 44.8976 24.613 43.7806 23.884 43.369C23.5077 43.1574 23.0138 43.028 22.8257 43.0868Z" fill="#0D313B"/>
<g id="Group 1171275111">
<g id="Ellipse 2574">
<mask id="path-8-inside-1_5978_45035" fill="white">
<path d="M51.6997 68C59.2418 68 65.3559 61.8859 65.3559 54.3437C65.3559 46.8016 59.2418 40.6875 51.6997 40.6875C44.1576 40.6875 38.0435 46.8016 38.0435 54.3437C38.0435 61.8859 44.1576 68 51.6997 68Z"/>
</mask>
<path d="M51.6997 68C59.2418 68 65.3559 61.8859 65.3559 54.3437C65.3559 46.8016 59.2418 40.6875 51.6997 40.6875C44.1576 40.6875 38.0435 46.8016 38.0435 54.3437C38.0435 61.8859 44.1576 68 51.6997 68Z" fill="#68D4F4" stroke="#0D313B" stroke-width="5.57617" mask="url(#path-8-inside-1_5978_45035)"/>
</g>
</g>
<g id="Group 1000001393">
<rect id="Rectangle 34624449" x="46.8154" y="48.0649" width="10.7981" height="4.35905" fill="#2894B4"/>
<rect id="Rectangle 34624450" x="46.4004" y="50.4424" width="11.6287" height="1.58511" fill="#2894B4"/>
<rect id="Rectangle 34624451" x="46.8154" y="59.1606" width="10.7981" height="2.37766" fill="#2894B4"/>
<g id="Group_2">
<path id="Vector_6" d="M56.9979 58.5847H54.4549V58.1489C54.4549 57.494 54.1446 56.9018 53.672 56.4976C53.8355 56.2322 53.9493 55.9197 53.9493 55.5785C53.9493 54.6423 53.15 53.8638 52.1554 53.8638C51.1771 53.8638 50.3611 54.6268 50.3611 55.5785C50.3611 55.9197 50.4598 56.2322 50.6384 56.4976C50.1658 56.9018 49.8555 57.4781 49.8555 58.1333V58.5691H47.3125V53.1C47.3937 53.1155 47.4593 53.1155 47.5405 53.1155C47.9487 53.1155 48.3402 52.991 48.6823 52.7731C49.0077 52.991 49.3992 53.1155 49.8074 53.1155H49.8885C50.28 53.1155 50.6715 53.0066 50.9969 52.7887C51.3239 52.991 51.7154 53.1155 52.1073 53.1155H52.2211C52.6125 53.1155 53.0028 53.0066 53.3298 52.7887C53.6552 52.991 54.0304 53.1155 54.4386 53.1155H54.5197C54.9275 53.1155 55.319 52.991 55.6448 52.7731C55.9719 52.991 56.3617 53.1155 56.7862 53.1155C56.8674 53.1155 56.9334 53.1 57.0146 53.1V58.5847H56.9979ZM51.3406 57.0894C51.5849 57.2143 51.8626 57.2761 52.1554 57.2761C52.4494 57.2761 52.7267 57.2143 52.9714 57.0894C53.2968 57.3232 53.5247 57.6975 53.5247 58.1333V58.5691H50.7856V58.1333C50.7856 57.7131 51.0136 57.3388 51.3406 57.0894ZM52.1554 56.403C51.6828 56.403 51.2909 56.0287 51.2909 55.5785C51.2909 55.1256 51.6828 54.7513 52.1554 54.7513C52.6276 54.7513 53.0195 55.1256 53.0195 55.5785C53.0195 56.0287 52.6276 56.403 52.1554 56.403ZM47.3125 61.187V59.4578H56.9979V61.187H47.3125ZM46.5789 50.809L47.0515 49.7035C47.2314 49.2981 47.3619 48.8779 47.443 48.4409C47.4761 48.2701 47.6216 48.1612 47.8015 48.1612H56.5089C56.6888 48.1612 56.836 48.2857 56.8674 48.4409C56.9497 48.8779 57.0802 49.2981 57.2588 49.7035L57.7331 50.809C57.8469 51.0584 57.862 51.3393 57.7645 51.5572C57.6177 51.963 57.2274 52.2268 56.7699 52.2268C56.4771 52.2268 56.1831 52.1023 55.987 51.884C55.9058 51.791 55.7753 51.7292 55.6448 51.7292C55.5143 51.7292 55.3838 51.791 55.3027 51.884C55.1074 52.1023 54.8138 52.2268 54.5197 52.2268H54.4386C54.1446 52.2268 53.8669 52.1023 53.672 51.9C53.5908 51.8066 53.4603 51.7595 53.3298 51.7595C53.183 51.7595 53.0852 51.8066 52.9877 51.9C52.7911 52.1023 52.5138 52.2268 52.2211 52.2268H52.1073C51.8133 52.2268 51.5356 52.1179 51.3406 51.9C51.2583 51.8066 51.1278 51.7751 50.9969 51.7595C50.8664 51.7595 50.7526 51.8066 50.6552 51.9C50.4598 52.1023 50.1825 52.2268 49.8885 52.2268H49.8074C49.497 52.2268 49.2206 52.1023 49.0244 51.884C48.9433 51.791 48.8128 51.7292 48.6823 51.7292C48.5518 51.7292 48.4213 51.791 48.3402 51.884C48.1436 52.1023 47.8512 52.2268 47.5572 52.2268C47.1009 52.2268 46.7094 51.963 46.5622 51.5572C46.4647 51.3237 46.4815 51.0584 46.5789 50.809ZM58.5805 50.4666L58.1229 49.3755C57.9774 49.0327 57.862 48.6588 57.7812 48.2857C57.667 47.6939 57.1284 47.2725 56.5089 47.2725H47.8015C47.182 47.2725 46.6434 47.6939 46.5296 48.2857C46.4647 48.6588 46.351 49.0172 46.1874 49.3755L45.7311 50.4666C45.5346 50.9179 45.5183 51.4167 45.6818 51.8381C45.8286 52.2124 46.0733 52.5237 46.3987 52.7416V61.6227C46.3987 61.8722 46.6103 62.0597 46.8562 62.0597H57.4554C57.7164 62.0597 57.9117 61.8578 57.9117 61.6227V52.7416C58.2371 52.5237 58.4818 52.2124 58.6286 51.8381C58.7921 51.4167 58.7758 50.9339 58.5805 50.4666Z" fill="#0D313B"/>
</g>
</g>
</g>
<path id="Subtract_2" fill-rule="evenodd" clip-rule="evenodd" d="M37.3091 45H36.853H29.1864L28.7866 45.2704C27.7166 45.9877 27.7401 47.3987 28.8454 48.2218C29.1459 48.4555 29.2673 48.468 35.6966 48.4687C36.0867 47.236 36.6319 46.0721 37.3091 45Z" fill="#0D313B"/>
</g>
</svg>
