<svg width="72" height="72" viewBox="0 0 72 72" fill="none" xmlns="http://www.w3.org/2000/svg">
<g id="vendors-refunds">
<g id="Group 1171275112">
<path id="Subtract" fill-rule="evenodd" clip-rule="evenodd" d="M38.7628 52.729H10.5117V60.6035H40.2432C39.2637 58.5954 38.7141 56.3391 38.7141 53.9545C38.7141 53.5419 38.7305 53.1332 38.7628 52.729Z" fill="#62C89E"/>
<path id="Rectangle 34624750" d="M11.0517 8.25429L47.3908 7.71191L52.2722 24.5255L27.8653 25.0679L5.62793 24.5255L11.0517 8.25429Z" fill="#62C89E"/>
<g id="Group 1171275110">
<g id="Ellipse 2574">
<mask id="path-3-inside-1_5978_45143" fill="white">
<path d="M54.9838 66.8309C62.1729 66.8309 68.0008 61.003 68.0008 53.8139C68.0008 46.6248 62.1729 40.7969 54.9838 40.7969C47.7947 40.7969 41.9668 46.6248 41.9668 53.8139C41.9668 61.003 47.7947 66.8309 54.9838 66.8309Z"/>
</mask>
<path d="M54.9838 66.8309C62.1729 66.8309 68.0008 61.003 68.0008 53.8139C68.0008 46.6248 62.1729 40.7969 54.9838 40.7969C47.7947 40.7969 41.9668 46.6248 41.9668 53.8139C41.9668 61.003 47.7947 66.8309 54.9838 66.8309Z" fill="#22885E" stroke="#0B2D1F" stroke-width="5" mask="url(#path-3-inside-1_5978_45143)"/>
</g>
</g>
<path id="Subtract_2" fill-rule="evenodd" clip-rule="evenodd" d="M39.1221 49.8119H37.7718V48.0847C37.7718 45.4886 36.5919 43.1449 34.7956 41.5426C35.4174 40.493 35.8506 39.2547 35.8506 37.9021C35.8506 34.1953 32.8107 31.1102 29.0294 31.1102C25.3119 31.1102 22.2109 34.1315 22.2109 37.9021C22.2109 39.2547 22.5856 40.493 23.2658 41.5426C21.4695 43.1449 20.287 45.4275 20.287 48.021V49.7482H10.6226V28.0836C10.9308 28.1473 11.1806 28.1473 11.4889 28.1473C13.0407 28.1473 14.5288 27.6531 15.8282 26.7895C17.0664 27.6531 18.5545 28.1473 20.1063 28.1473H20.4146C21.9026 28.1473 23.3907 27.7142 24.629 26.8506C25.8699 27.6531 27.358 28.1473 28.846 28.1473H29.2818C30.7699 28.1473 32.2526 27.7142 33.4962 26.8506C34.7319 27.6531 36.1588 28.1473 37.7107 28.1473H38.0162C39.5681 28.1473 41.0561 27.6531 42.2944 26.7895C43.538 27.6531 45.0208 28.1473 46.6337 28.1473C46.7878 28.1473 46.9273 28.1314 47.0668 28.1155C47.2064 28.0995 47.3459 28.0836 47.5 28.0836V39.8447C48.5761 39.3747 49.7195 39.0304 50.9119 38.8301V26.6646C52.1475 25.801 53.0776 24.568 53.6356 23.0853C54.2574 21.4165 54.1963 19.5033 53.4549 17.6512L51.7144 13.3305C51.1617 11.9726 50.7232 10.4899 50.415 9.01245C49.9819 6.66876 47.9331 5 45.5788 5H12.48C10.1257 5 8.0796 6.66876 7.64647 9.01245C7.39934 10.4899 6.96621 11.9115 6.34441 13.3305L4.61188 17.6512C3.86519 19.4395 3.80142 21.4165 4.42322 23.0853C4.98124 24.568 5.91128 25.801 7.14956 26.6646V61.844C7.14956 62.8325 7.95471 63.5765 8.8874 63.5765H42.9507C41.9433 62.5594 41.0839 61.3954 40.4076 60.1194H10.6226V53.269H38.7111C38.7113 52.0781 38.8536 50.9204 39.1221 49.8119ZM29.0294 44.625C27.9187 44.625 26.8637 44.3832 25.9337 43.8889C24.6901 44.8748 23.8238 46.3575 23.8238 48.021V49.7482H34.2376V48.021C34.2376 46.2964 33.3687 44.8137 32.1331 43.8889C31.203 44.3832 30.1481 44.625 29.0294 44.625ZM25.745 37.9021C25.745 39.6852 27.2331 41.1679 29.0294 41.1679C30.8257 41.1679 32.3138 39.6852 32.3138 37.9021C32.3138 36.1085 30.8257 34.6257 29.0294 34.6257C27.2331 34.6257 25.745 36.1085 25.745 37.9021ZM9.62878 14.6299L7.83247 19.009C7.46312 19.9975 7.39934 21.0472 7.77136 21.9745C8.32938 23.5795 9.81744 24.6265 11.5526 24.6265C12.6687 24.6265 13.7821 24.1322 14.5288 23.2686C14.837 22.8993 15.3312 22.6548 15.8282 22.6548C16.3251 22.6548 16.822 22.8993 17.1276 23.2686C17.8769 24.1322 18.9265 24.6265 20.1063 24.6265H20.4146C21.5306 24.6265 22.5856 24.1322 23.3269 23.3297C23.6989 22.9604 24.1321 22.7744 24.629 22.7744C25.1232 22.8355 25.6201 22.9604 25.9337 23.3297C26.6751 24.1934 27.73 24.6265 28.846 24.6265H29.2818C30.3926 24.6265 31.4475 24.1322 32.1942 23.3297C32.5662 22.9604 32.9356 22.7744 33.4962 22.7744C33.9905 22.7744 34.4874 22.9604 34.7956 23.3297C35.537 24.1322 36.5919 24.6265 37.7107 24.6265H38.0162C39.1349 24.6265 40.2536 24.1322 40.995 23.2686C41.3033 22.8993 41.7975 22.6548 42.2944 22.6548C42.7913 22.6548 43.2856 22.8993 43.5938 23.2686C44.3405 24.1322 45.4592 24.6265 46.5726 24.6265C48.3104 24.6265 49.7932 23.5795 50.3512 21.9745C50.7232 21.1109 50.6648 19.9975 50.2316 19.009L48.43 14.6299C47.7524 13.0223 47.2555 11.3588 46.942 9.62628C46.8224 9.01245 46.2644 8.52086 45.5788 8.52086H12.48C11.7971 8.52086 11.2444 8.95134 11.1168 9.62628C10.8113 11.3588 10.3144 13.0223 9.62878 14.6299Z" fill="#0B2D1F"/>
</g>
<g id="Group">
<g id="Vector">
<path d="M62.5035 50.5235C62.643 50.3086 62.8569 50.171 63.0881 50.1214C63.3192 50.0726 63.5704 50.1118 63.7853 50.2512C64.0002 50.3907 64.1387 50.6037 64.1874 50.8358C64.2361 51.0669 64.197 51.3181 64.0575 51.533L62.4224 54.0469C62.2829 54.2618 62.0699 54.4003 61.8378 54.449C61.6067 54.4977 61.3555 54.4586 61.1406 54.3191L58.6286 52.683C58.4137 52.5435 58.2762 52.3296 58.2265 52.0985C58.1778 51.8664 58.217 51.6161 58.3564 51.4003C58.4958 51.1854 58.7088 51.0478 58.9409 50.9982C59.1721 50.9494 59.4233 50.9886 59.6382 51.128L60.2838 51.5493C60.1759 51.2847 60.0498 51.0306 59.9075 50.788C59.6315 50.3181 59.2915 49.8893 58.8999 49.5129C58.3574 48.9914 57.7155 48.5721 57.0049 48.2866C56.3229 48.0115 55.5741 47.8606 54.79 47.8606C53.9848 47.8606 53.2178 48.0201 52.5206 48.3085C51.7966 48.6094 51.1433 49.0507 50.596 49.5989C50.0478 50.1462 49.6065 50.8004 49.3066 51.5244C49.0182 52.2226 48.8587 52.9896 48.8587 53.7947C48.8587 54.6009 49.0182 55.3678 49.3066 56.066C49.6065 56.79 50.0478 57.4433 50.5951 57.9916C51.1433 58.5398 51.7966 58.9811 52.5196 59.281C53.2169 59.5694 53.9839 59.7289 54.789 59.7289C55.4547 59.7289 56.0918 59.621 56.684 59.4233C57.3 59.216 57.8712 58.9113 58.3755 58.5274C58.8884 58.1377 59.3373 57.6649 59.7003 57.13C60.0575 56.6047 60.3325 56.0173 60.5073 55.3888C60.5751 55.1424 60.7366 54.9457 60.9429 54.8291C61.1492 54.7117 61.4004 54.6735 61.6468 54.7413C61.8932 54.81 62.089 54.9715 62.2055 55.1778C62.323 55.3841 62.3612 55.6353 62.2934 55.8817C62.0651 56.706 61.7031 57.4767 61.2332 58.1673C60.7566 58.8684 60.1683 59.4892 59.493 60.0021C58.8263 60.5083 58.0765 60.9104 57.2685 61.1826C56.4872 61.4462 55.6534 61.5885 54.789 61.5885C53.7355 61.5885 52.7298 61.3784 51.8109 60.9973C50.8558 60.6009 49.9981 60.0231 49.2808 59.3048C48.5635 58.5876 47.9857 57.7289 47.5893 56.7738C47.2092 55.8549 47 54.8482 47 53.7947C47 52.7412 47.2092 51.7346 47.5903 50.8148C47.9857 49.8596 48.5645 49.001 49.2818 48.2827C49.9981 47.5654 50.8568 46.9866 51.8119 46.5912C52.7307 46.2101 53.7365 46 54.789 46C55.8148 46 56.7957 46.2006 57.6945 46.5626C58.6267 46.9389 59.471 47.4909 60.1845 48.1767C60.6821 48.6552 61.1167 49.1997 61.4749 49.7966C61.7261 50.2169 61.9391 50.6629 62.1091 51.13L62.5035 50.5235ZM63.2027 50.6629C63.1091 50.683 63.0231 50.7384 62.9677 50.8253L62.2552 51.9189C62.2199 51.9733 62.1654 52.0163 62.0967 52.0345C61.9496 52.0746 61.7977 51.9886 61.7576 51.8415C61.5828 51.2169 61.3259 50.6257 61.0002 50.0803C60.6687 49.5263 60.2647 49.0201 59.8015 48.575C59.1386 47.9379 58.3545 47.425 57.4891 47.0764C56.6553 46.7402 55.7451 46.5549 54.789 46.5549C53.8072 46.5549 52.873 46.7507 52.0211 47.1032C51.1385 47.469 50.341 48.0077 49.6734 48.6753C49.0048 49.3439 48.4671 50.1414 48.1013 51.0259C47.7488 51.8769 47.554 52.8129 47.554 53.7947C47.554 54.7776 47.7488 55.7126 48.1013 56.5646C48.4671 57.449 49.0048 58.2456 49.6734 58.9142C50.341 59.5837 51.1385 60.1215 52.022 60.4873C52.873 60.8407 53.8081 61.0346 54.79 61.0346C55.5961 61.0346 56.3717 60.9028 57.0947 60.6592C57.8454 60.4061 58.5417 60.0327 59.1606 59.5627C59.7872 59.0871 60.3345 58.5102 60.7776 57.8588C61.2122 57.2179 61.5484 56.5025 61.7605 55.7356C61.7882 55.6362 61.7729 55.535 61.7251 55.4519C61.6783 55.3688 61.599 55.3029 61.4997 55.2761C61.4004 55.2484 61.2991 55.2637 61.216 55.3115C61.1329 55.3583 61.067 55.4376 61.0403 55.5369C60.8493 56.2236 60.5484 56.8655 60.1578 57.4414C59.7604 58.0259 59.2714 58.5417 58.7098 58.9686C58.1558 59.3889 57.5331 59.7222 56.8597 59.9476C56.2083 60.1664 55.512 60.2848 54.79 60.2848C53.9132 60.2848 53.0755 60.11 52.3105 59.7929C51.5149 59.4634 50.8004 58.982 50.2035 58.3841C49.6075 57.7872 49.1261 57.0727 48.7966 56.2771C48.4795 55.5111 48.3047 54.6735 48.3047 53.7957C48.3047 52.9189 48.4795 52.0813 48.7966 51.3153C49.1261 50.5196 49.6075 49.8043 50.2035 49.2073C50.8004 48.6103 51.5149 48.129 52.3105 47.7985C53.0755 47.4814 53.9132 47.3066 54.79 47.3066C55.6448 47.3066 56.4614 47.4728 57.2112 47.7746C57.9877 48.0869 58.6897 48.5454 59.2829 49.1156C59.7098 49.5263 60.0813 49.9953 60.3832 50.5101C60.6812 51.0153 60.9113 51.5636 61.0632 52.1443C61.0823 52.2169 61.0728 52.2971 61.0279 52.3649C60.9448 52.4929 60.7738 52.5292 60.6458 52.4461L59.3364 51.5932C59.2504 51.5368 59.1491 51.5206 59.0555 51.5416C58.961 51.5607 58.875 51.6161 58.8196 51.703C58.7633 51.789 58.747 51.8912 58.7681 51.9848C58.7872 52.0784 58.8426 52.1644 58.9295 52.2207L61.4414 53.8568C61.5274 53.9132 61.6286 53.9294 61.7232 53.9084C61.8168 53.8893 61.9028 53.833 61.9582 53.747L63.5943 51.2331C63.6497 51.1472 63.6659 51.0459 63.6459 50.9523C63.6258 50.8577 63.5704 50.7718 63.4844 50.7164C63.3985 50.6591 63.2972 50.6428 63.2027 50.6629Z" fill="#0B2D1F"/>
<path d="M63.2027 50.6629C63.1091 50.683 63.0231 50.7384 62.9677 50.8253L62.2552 51.9189C62.2199 51.9733 62.1654 52.0163 62.0967 52.0345C61.9496 52.0746 61.7977 51.9886 61.7576 51.8415C61.5828 51.2169 61.3259 50.6257 61.0002 50.0803C60.6687 49.5263 60.2647 49.0201 59.8015 48.575C59.1386 47.9379 58.3545 47.425 57.4891 47.0764C56.6553 46.7402 55.7451 46.5549 54.789 46.5549C53.8072 46.5549 52.873 46.7507 52.0211 47.1032C51.1385 47.469 50.341 48.0077 49.6734 48.6753C49.0048 49.3439 48.4671 50.1414 48.1013 51.0259C47.7488 51.8769 47.554 52.8129 47.554 53.7947C47.554 54.7776 47.7488 55.7126 48.1013 56.5646C48.4671 57.449 49.0048 58.2456 49.6734 58.9142C50.341 59.5837 51.1385 60.1215 52.022 60.4873C52.873 60.8407 53.8081 61.0346 54.79 61.0346C55.5961 61.0346 56.3717 60.9028 57.0947 60.6592C57.8454 60.4061 58.5417 60.0327 59.1606 59.5627C59.7872 59.0871 60.3345 58.5102 60.7776 57.8588C61.2122 57.2179 61.5484 56.5025 61.7605 55.7356C61.7882 55.6362 61.7729 55.535 61.7251 55.4519C61.6783 55.3688 61.599 55.3029 61.4997 55.2761C61.4004 55.2484 61.2991 55.2637 61.216 55.3115C61.1329 55.3583 61.067 55.4376 61.0403 55.5369C60.8493 56.2236 60.5484 56.8655 60.1578 57.4414C59.7604 58.0259 59.2714 58.5417 58.7098 58.9686C58.1558 59.3889 57.5331 59.7222 56.8597 59.9476C56.2083 60.1664 55.512 60.2848 54.79 60.2848C53.9132 60.2848 53.0755 60.11 52.3105 59.7929C51.5149 59.4634 50.8004 58.982 50.2035 58.3841C49.6075 57.7872 49.1261 57.0727 48.7966 56.2771C48.4795 55.5111 48.3047 54.6735 48.3047 53.7957C48.3047 52.9189 48.4795 52.0813 48.7966 51.3153C49.1261 50.5196 49.6075 49.8043 50.2035 49.2073C50.8004 48.6103 51.5149 48.129 52.3105 47.7985C53.0755 47.4814 53.9132 47.3066 54.79 47.3066C55.6448 47.3066 56.4614 47.4728 57.2112 47.7746C57.9877 48.0869 58.6897 48.5454 59.2829 49.1156C59.7098 49.5263 60.0813 49.9953 60.3832 50.5101C60.6812 51.0153 60.9113 51.5636 61.0632 52.1443C61.0823 52.2169 61.0728 52.2971 61.0279 52.3649C60.9448 52.4929 60.7738 52.5292 60.6458 52.4461L59.3364 51.5932C59.2504 51.5368 59.1491 51.5206 59.0555 51.5416C58.961 51.5607 58.875 51.6161 58.8196 51.703C58.7633 51.789 58.747 51.8912 58.7681 51.9848C58.7872 52.0784 58.8426 52.1644 58.9295 52.2207L61.4414 53.8568C61.5274 53.9132 61.6286 53.9294 61.7232 53.9084C61.8168 53.8893 61.9028 53.833 61.9582 53.747L63.5943 51.2331C63.6497 51.1472 63.6659 51.0459 63.6459 50.9523C63.6258 50.8577 63.5704 50.7718 63.4844 50.7164C63.3985 50.6591 63.2972 50.6428 63.2027 50.6629Z" fill="#0B2D1F"/>
</g>
</g>
<path id="Vector_2" d="M55.0574 53.434H53.9516C53.7517 53.4277 53.5913 53.3465 53.4684 53.1924C53.2998 52.9862 53.2165 52.753 53.2185 52.4885C53.2185 51.97 53.5517 51.5285 53.9516 51.5285H55.7905C55.8758 51.5285 55.9591 51.5118 56.0383 51.4785C56.1153 51.4472 56.1861 51.4014 56.2465 51.341C56.3069 51.2806 56.3527 51.2119 56.3861 51.1328C56.4173 51.0557 56.434 50.9724 56.434 50.8891C56.434 50.8037 56.4173 50.7225 56.3861 50.6434C56.3527 50.5643 56.3069 50.4955 56.2465 50.4351C56.1861 50.3768 56.1153 50.3289 56.0383 50.2977C55.9591 50.2644 55.8758 50.2477 55.7905 50.2477H55.147V49.5959C55.147 49.5105 55.1324 49.4293 55.0991 49.3522C55.0657 49.2731 55.0199 49.2044 54.9595 49.144C54.8991 49.0836 54.8304 49.0378 54.7513 49.0044C54.6721 48.9732 54.5888 48.9565 54.5035 48.9565C54.4202 48.9565 54.3369 48.9732 54.2577 49.0044C54.1786 49.0378 54.1099 49.0836 54.0495 49.144C53.9891 49.2044 53.9433 49.2731 53.9099 49.3522C53.8766 49.4293 53.862 49.5105 53.862 49.5959V50.2352C53.5871 50.2644 53.3289 50.3393 53.0853 50.4664C52.8416 50.5934 52.6292 50.76 52.4501 50.9662C52.271 51.1744 52.1356 51.4056 52.0461 51.6659C51.9565 51.9241 51.919 52.1886 51.9315 52.4614C51.9253 53.0466 52.1127 53.5631 52.4917 54.0108C52.6708 54.2295 52.8874 54.4003 53.1436 54.5231C53.3976 54.646 53.6684 54.7085 53.9516 54.7147H55.0574C55.4573 54.7147 55.7905 55.1562 55.7905 55.6748C55.7967 55.9434 55.7134 56.1829 55.5406 56.3912C55.4135 56.5494 55.249 56.6307 55.0449 56.6327H53.2185C53.1332 56.6327 53.0499 56.6494 52.9707 56.6827C52.8937 56.714 52.8229 56.7598 52.7625 56.8202C52.7021 56.8806 52.6563 56.9493 52.6229 57.0284C52.5917 57.1076 52.575 57.1888 52.575 57.2742C52.575 57.3575 52.5917 57.4387 52.6229 57.5178C52.6563 57.5969 52.7021 57.6657 52.7625 57.7261C52.8229 57.7865 52.8937 57.8323 52.9707 57.8635C53.0499 57.8968 53.1332 57.9135 53.2185 57.9135H53.862V58.5528C53.862 58.6382 53.8766 58.7194 53.9099 58.7965C53.9433 58.8756 53.9891 58.9443 54.0495 59.0047C54.1099 59.0651 54.1786 59.1109 54.2577 59.1443C54.3369 59.1755 54.4202 59.1922 54.5035 59.1922C54.5888 59.1922 54.6721 59.1755 54.7513 59.1443C54.8304 59.1109 54.8991 59.0651 54.9595 59.0047C55.0199 58.9443 55.0657 58.8756 55.0991 58.7965C55.1324 58.7194 55.147 58.6382 55.147 58.5528V57.9135C55.703 57.8823 56.1591 57.6573 56.5173 57.2346C56.8963 56.7868 57.0837 56.2704 57.0775 55.6873C57.0858 55.5477 57.0795 55.4082 57.0608 55.2687C57.04 55.1292 57.0067 54.9938 56.9608 54.8626C56.915 54.7293 56.8546 54.6044 56.7838 54.4836C56.713 54.3628 56.6297 54.2503 56.536 54.1462C56.4423 54.04 56.3382 53.9463 56.2257 53.863C56.1133 53.7776 55.9945 53.7047 55.8675 53.6443C55.7405 53.5839 55.6093 53.536 55.4739 53.5006C55.3365 53.4652 55.199 53.4423 55.0574 53.434Z" fill="#0B2D1F"/>
</g>
</svg>
