<svg width="72" height="72" viewBox="0 0 72 72" fill="none" xmlns="http://www.w3.org/2000/svg">
<ellipse cx="12.3112" cy="23.4835" rx="1.33023" ry="1.33017" fill="#7E8180"/>
<path d="M9.82069 13.853H18.1071H60.8639C61.871 13.853 62.6873 14.6694 62.6873 15.6764V60.4478C62.6873 61.4548 61.871 62.2712 60.8639 62.2712H9.82069C8.81367 62.2712 7.99731 61.4548 7.99731 60.4478V15.6764C7.99731 14.6694 8.81367 13.853 9.82069 13.853Z" fill="#F0F0F0"/>
<rect x="14.3523" y="30.4014" width="6.355" height="6.35498" rx="0.794374" fill="#2E2E2E"/>
<rect x="23.0903" y="30.4014" width="6.355" height="6.35498" rx="0.794374" fill="#2E2E2E"/>
<rect x="31.8286" y="30.4014" width="6.355" height="6.35498" rx="0.794374" fill="#2E2E2E"/>
<rect x="40.5667" y="30.4014" width="6.355" height="6.35498" rx="0.794374" fill="#2E2E2E"/>
<rect x="49.3047" y="30.4014" width="6.355" height="6.35498" rx="0.794374" fill="#2E2E2E"/>
<rect x="14.3523" y="39.9336" width="6.355" height="6.35498" rx="0.794374" fill="#2E2E2E"/>
<rect x="23.0903" y="39.9336" width="6.355" height="6.35498" rx="0.794374" fill="#FA4654"/>
<rect x="31.8286" y="39.9336" width="6.355" height="6.35498" rx="0.794374" fill="#2E2E2E"/>
<rect x="40.5667" y="39.9336" width="6.355" height="6.35498" rx="0.794374" fill="#2E2E2E"/>
<rect x="49.3047" y="39.9336" width="6.355" height="6.35498" rx="0.794374" fill="#2E2E2E"/>
<rect x="14.3523" y="48.9897" width="6.355" height="6.35498" rx="0.794374" fill="#2E2E2E"/>
<rect x="23.0903" y="48.9897" width="6.355" height="6.35498" rx="0.794374" fill="#2E2E2E"/>
<rect x="31.8286" y="48.9897" width="6.355" height="6.35498" rx="0.794374" fill="#FA4654"/>
<rect x="40.5667" y="48.9897" width="6.355" height="6.35498" rx="0.794374" fill="#2E2E2E"/>
<rect x="49.3047" y="48.9897" width="6.355" height="6.35498" rx="0.794374" fill="#C5A7F7"/>
<circle cx="54.6187" cy="53.6195" r="10.6195" fill="#F0F0F0"/>
<path d="M51.3274 53.0882L53.7679 55.5288C54.1731 55.9339 54.8351 55.9165 55.2183 55.4906L59.292 50.9644" stroke="#00D63C" stroke-width="3" stroke-linecap="round"/>
<path d="M7.99976 15.6198C7.99976 14.6146 8.8146 13.7998 9.81976 13.7998H60.8698C61.8749 13.7998 62.6898 14.6146 62.6898 15.6198V23.7998H7.99976V15.6198Z" fill="#FA4654"/>
<rect x="18.1086" y="8" width="6.38511" height="9.57722" rx="3.19255" fill="#DADADA"/>
<rect x="46.8425" y="8" width="6.38511" height="9.57722" rx="3.19255" fill="#DADADA"/>
</svg>
