<svg width="72" height="72" viewBox="0 0 72 72" fill="none" xmlns="http://www.w3.org/2000/svg">
<g id="analytic-account">
<g id="Group 1171275100">
<g id="Group">
<g id="Vector">
<path d="M35.8854 33.0492C35.7911 32.9606 35.7098 32.8875 35.6326 32.8103C34.3682 31.5466 33.1078 30.2789 31.8344 29.025C31.7206 28.9129 31.5231 28.8308 31.3639 28.8292C29.993 28.8137 28.622 28.8259 27.2511 28.8194C24.1908 28.804 21.7049 26.761 21.1109 23.7592C21.0304 23.3545 21.0077 22.9327 21.0069 22.5183C20.9995 18.4454 20.9971 14.3732 21.0044 10.3003C21.0093 7.16032 23.0799 4.67691 26.1719 4.09913C26.5482 4.02843 26.9391 4.00568 27.3226 4.00568C33.0306 3.99999 38.7377 3.99755 44.4456 4.00324C47.5653 4.00649 50.0715 6.05676 50.6615 9.0887C50.7387 9.48445 50.7614 9.89564 50.7622 10.2995C50.7695 14.3822 50.7736 18.4649 50.7639 22.5475C50.7565 25.6233 48.725 28.1059 45.728 28.7065C45.3135 28.7894 44.8812 28.8105 44.457 28.8154C43.1064 28.8284 41.7558 28.8137 40.4052 28.8292C40.2459 28.8308 40.0493 28.9137 39.9355 29.0258C38.6621 30.2805 37.4017 31.5474 36.1373 32.8111C36.0601 32.8883 35.9788 32.9614 35.8854 33.0492ZM35.8837 29.6004C36.915 28.5578 37.8958 27.572 38.8677 26.5774C39.0213 26.4205 39.1741 26.3531 39.3967 26.3547C41.0821 26.3645 42.7684 26.362 44.4538 26.3596C46.6592 26.3563 48.3032 24.7181 48.3048 22.5069C48.3089 18.4445 48.3105 14.383 48.304 10.3206C48.3008 8.12329 46.6601 6.49396 44.4668 6.49396C38.7491 6.49315 33.0322 6.49315 27.3145 6.49396C25.1001 6.49396 23.4643 8.12247 23.4626 10.3369C23.4594 14.3887 23.4594 18.4405 23.4626 22.4923C23.4643 24.7197 25.105 26.3563 27.3308 26.3588C28.6204 26.3604 29.9101 26.358 31.1997 26.3596C31.6865 26.3604 32.2301 26.2328 32.6454 26.4075C33.0712 26.5863 33.3784 27.0568 33.7278 27.4087C34.4356 28.1214 35.1369 28.8397 35.8837 29.6004Z" fill="#0D313B"/>
<path d="M35.8837 29.6004C36.915 28.5578 37.8958 27.572 38.8677 26.5774C39.0213 26.4205 39.1741 26.3531 39.3967 26.3547C41.0821 26.3645 42.7684 26.362 44.4538 26.3596C46.6592 26.3563 48.3032 24.7181 48.3048 22.5069C48.3089 18.4445 48.3105 14.383 48.304 10.3206C48.3008 8.12329 46.6601 6.49396 44.4668 6.49396C38.7491 6.49315 33.0322 6.49315 27.3145 6.49396C25.1001 6.49396 23.4643 8.12247 23.4626 10.3369C23.4594 14.3887 23.4594 18.4405 23.4626 22.4923C23.4643 24.7197 25.105 26.3563 27.3308 26.3588C28.6204 26.3604 29.9101 26.358 31.1997 26.3596C31.6865 26.3604 32.2301 26.2328 32.6454 26.4075C33.0712 26.5863 33.3784 27.0568 33.7278 27.4087C34.4356 28.1214 35.1369 28.8397 35.8837 29.6004Z" fill="#2894B4"/>
</g>
<path id="Vector_2" d="M34.06 13.4508C35.2838 14.669 36.5133 15.8936 37.7591 17.1337C39.5209 15.3711 41.2843 13.6061 43.0282 11.8613C43.619 12.4537 44.1895 13.025 44.7347 13.5727C42.4114 15.8961 40.0605 18.247 37.7071 20.6004C36.5085 19.4074 35.2789 18.1828 34.0575 16.9679C32.2884 18.737 30.5258 20.5004 28.7966 22.2297C28.1708 21.6137 27.5898 21.0425 27.025 20.4858C29.3418 18.1674 31.6887 15.8213 34.06 13.4508Z" fill="#0D313B"/>
</g>
<g id="Group_2">
<g id="Vector_3">
<path d="M45.6599 68.0001H25.7667C25.7082 67.979 25.6513 67.9473 25.5903 67.9376C23.458 67.6068 21.788 65.8182 21.6596 63.6696C21.5629 62.0533 21.8116 60.4686 22.3309 58.9409C23.575 55.2784 25.917 52.5406 29.3569 50.7569C29.5942 50.6342 29.8355 50.5212 30.0858 50.4066C30.3524 50.2847 30.4044 49.9337 30.1915 49.7321C30.1898 49.7305 30.1874 49.7281 30.1874 49.7281C29.8583 49.4144 29.5048 49.1194 29.2204 48.7684C27.3407 46.4515 26.698 43.8275 27.5195 40.9484C28.3874 37.9075 30.4141 35.9426 33.4453 35.0389C33.9572 34.8861 34.4968 34.8228 35.0242 34.7212C35.0494 34.7163 35.0754 34.7139 35.1006 34.7139H36.3195C36.348 34.7139 36.3756 34.7163 36.4032 34.722C36.4943 34.7407 36.5853 34.7626 36.6771 34.774C38.9647 35.056 40.8646 36.0775 42.3135 37.8588C45.3129 41.5457 44.7587 46.814 41.0881 49.8532C40.9816 49.941 40.8776 50.0304 40.7703 50.1206C40.8045 50.158 40.815 50.1775 40.8313 50.1848C41.0084 50.2644 41.1872 50.3416 41.3652 50.4204C44.2386 51.7011 46.4506 53.7132 47.9971 56.451C49.1421 58.4777 49.6987 60.6621 49.7873 62.9878C49.8621 64.9511 48.8536 66.7308 47.0658 67.5491C46.6229 67.7539 46.1305 67.853 45.6599 68.0001ZM35.7133 65.4452C38.768 65.4452 41.8227 65.4314 44.8766 65.4509C46.4433 65.4607 47.3583 64.2962 47.2169 63.0414C47.1227 62.2044 47.0699 61.3544 46.8732 60.5402C46.2385 57.9097 44.8083 55.7789 42.6581 54.1366C41.0873 52.9372 39.3222 52.1952 37.3621 51.9165C35.1518 51.6028 33.0235 51.8881 30.9911 52.8088C28.6792 53.8571 26.8971 55.501 25.6537 57.7098C24.668 59.461 24.1902 61.3544 24.2024 63.3665C24.2056 63.8378 24.3673 64.2555 24.6591 64.6236C25.1426 65.2356 25.7976 65.446 26.5492 65.446C29.6047 65.4436 32.6594 65.4452 35.7133 65.4452ZM35.7044 37.2728C32.4108 37.2915 29.7275 39.983 29.7372 43.2579C29.747 46.558 32.4603 49.2454 35.7548 49.2169C39.0345 49.1885 41.6975 46.5068 41.6894 43.24C41.6805 39.9586 38.9679 37.2542 35.7044 37.2728Z" fill="#0D313B"/>
<path d="M35.7044 37.2728C32.4108 37.2915 29.7275 39.983 29.7372 43.2579C29.747 46.558 32.4603 49.2454 35.7548 49.2169C39.0345 49.1885 41.6975 46.5068 41.6894 43.24C41.6805 39.9586 38.9679 37.2542 35.7044 37.2728Z" fill="#68D4F4"/>
</g>
</g>
</g>
</g>
</svg>
