<svg width="72" height="72" viewBox="0 0 72 72" fill="none" xmlns="http://www.w3.org/2000/svg">
<g id="asset-construction-in-progress">
<g id="Group">
<g id="Vector">
<path d="M34.1176 63.4651C35.9794 63.4651 37.842 63.4651 39.7232 63.4651C39.7232 56.1364 39.7232 48.8368 39.7232 41.4975C39.3719 41.4975 39.0152 41.4975 38.6295 41.4975C38.6295 41.1117 38.6295 40.763 38.6295 40.3764C37.2506 40.3764 35.9008 40.3764 34.5334 40.3764C34.5334 38.369 34.5334 36.4004 34.5334 34.408C35.8894 34.408 37.2312 34.408 38.6092 34.408C38.6092 34.0275 38.6092 33.67 38.6092 33.2939C41.3555 33.2939 44.0655 33.2939 46.8118 33.2939C46.8118 33.64 46.8118 33.9975 46.8118 34.4001C46.9751 34.4001 47.1031 34.4001 47.2303 34.4001C50.8496 34.4001 54.469 34.4027 58.0874 34.3948C58.3408 34.3939 58.5138 34.4716 58.6895 34.649C60.4744 36.4525 62.2682 38.248 64.0593 40.0462C64.1423 40.1301 64.2226 40.2175 64.3533 40.3552C62.676 40.3552 61.0641 40.3552 59.4222 40.3552C59.4222 41.4463 59.4222 42.5003 59.4222 43.5782C58.7495 43.5782 58.1059 43.5782 57.4324 43.5782C57.4324 42.5242 57.4324 41.4701 57.4324 40.3914C53.8907 40.3914 50.3791 40.3914 46.8374 40.3914C46.8374 40.7454 46.8374 41.0932 46.8374 41.4798C46.4525 41.4798 46.095 41.4798 45.7234 41.4798C45.7234 48.8183 45.7234 56.1179 45.7234 63.4413C47.2974 63.4413 48.8669 63.4413 50.4612 63.4413C50.4612 59.1572 50.4612 54.8802 50.4612 50.5547C50.5901 50.5547 50.6951 50.5547 50.8002 50.5547C52.3009 50.5547 53.8016 50.5485 55.3023 50.5635C55.4656 50.5653 55.666 50.6491 55.7825 50.7639C56.7227 51.6811 57.6416 52.6186 58.5809 53.5358C58.6912 53.6435 58.8793 53.7185 59.0337 53.7238C59.6499 53.745 60.267 53.7326 60.9202 53.7326C60.9202 50.9766 60.9202 48.2365 60.9202 45.4761C63.2993 45.4761 65.6421 45.4761 68 45.4761C68 52.1278 68 58.7662 68 65.4514C56.705 65.4514 45.4109 65.4514 34.1176 65.4514C34.1176 64.7893 34.1176 64.1272 34.1176 63.4651ZM52.4704 63.4413C57.0043 63.4413 61.5081 63.4413 66.0049 63.4413C66.0049 58.0979 66.0049 52.7775 66.0049 47.4597C64.9695 47.4597 63.9587 47.4597 62.9135 47.4597C62.9135 50.2157 62.9135 52.9549 62.9135 55.6924C62.8482 55.7047 62.8164 55.7162 62.7855 55.7162C61.2301 55.7171 59.6755 55.7215 58.1201 55.71C57.9983 55.7092 57.8517 55.6235 57.7599 55.5335C56.8171 54.6039 55.8858 53.6647 54.9456 52.7325C54.8644 52.6521 54.7532 52.5515 54.6543 52.5489C53.9305 52.533 53.2066 52.54 52.4695 52.54C52.4704 56.1851 52.4704 59.7905 52.4704 63.4179C52.4704 63.4257 52.4704 63.4335 52.4704 63.4413ZM40.6333 35.2678C40.6333 36.6705 40.6333 38.0715 40.6333 39.476C42.0369 39.476 43.43 39.476 44.8177 39.476C44.8177 38.0609 44.8177 36.6679 44.8177 35.2678C43.4158 35.2678 42.0387 35.2678 40.6333 35.2678ZM43.693 63.4528C43.693 61.9141 43.693 60.4108 43.693 58.9145C43.0292 58.9145 42.3936 58.9145 41.7492 58.9145C41.7492 60.4355 41.7492 61.9388 41.7492 63.4528C42.4077 63.4528 43.0433 63.4528 43.693 63.4528ZM43.7001 50.4161C43.7001 48.9066 43.7001 47.4253 43.7001 45.9431C43.0354 45.9431 42.3909 45.9431 41.7553 45.9431C41.7553 47.4473 41.7553 48.9286 41.7553 50.4161C42.4104 50.4161 43.038 50.4161 43.7001 50.4161ZM43.7071 52.4323C43.0318 52.4323 42.3883 52.4323 41.7447 52.4323C41.7447 53.9304 41.7447 55.4046 41.7447 56.8921C42.4051 56.8921 43.0495 56.8921 43.7071 56.8921C43.7071 55.3993 43.7071 53.926 43.7071 52.4323ZM41.7527 41.4984C41.7527 42.322 41.7527 43.1191 41.7527 43.9075C42.4209 43.9075 43.0654 43.9075 43.7027 43.9075C43.7027 43.0918 43.7027 42.3017 43.7027 41.4984C43.0486 41.4984 42.413 41.4984 41.7527 41.4984ZM50.1196 38.3699C49.4513 37.7007 48.8395 37.0872 48.2243 36.4772C48.181 36.4348 48.1139 36.3925 48.0565 36.3916C47.654 36.3845 47.2514 36.388 46.8516 36.388C46.8516 37.074 46.8516 37.7175 46.8516 38.3707C47.9268 38.3699 48.979 38.3699 50.1196 38.3699ZM36.5223 36.3942C36.5223 37.0695 36.5223 37.714 36.5223 38.354C37.2312 38.354 37.918 38.354 38.5924 38.354C38.5924 37.6831 38.5924 37.0395 38.5924 36.3942C37.8941 36.3942 37.2223 36.3942 36.5223 36.3942ZM59.4839 38.3628C58.8439 37.7343 58.2057 37.1075 57.6089 36.5213C57.0131 37.1154 56.3854 37.7404 55.7613 38.3628C56.9875 38.3628 58.2392 38.3628 59.4839 38.3628ZM51.0853 36.4022C51.0861 36.403 51.087 36.4038 51.0878 36.4047C51.7023 37.0191 52.3202 37.637 52.8685 38.1862C53.4564 37.5983 54.0735 36.9821 54.6534 36.4022C53.4988 36.4022 52.27 36.4022 51.0853 36.4022Z" fill="#0B2D1F"/>
<path d="M52.4704 63.4413H66.0049V47.4597H62.9135V55.6924C62.8482 55.7047 62.8164 55.7162 62.7855 55.7162C61.2301 55.7171 59.6755 55.7215 58.1201 55.71C57.9983 55.7092 57.8517 55.6235 57.7599 55.5335C56.8171 54.6039 55.8858 53.6647 54.9456 52.7325C54.8644 52.6521 54.7532 52.5515 54.6543 52.5489C53.9305 52.533 53.2066 52.54 52.4695 52.54C52.4704 56.1851 52.4704 59.7905 52.4704 63.4179V63.4413Z" fill="#62C89E"/>
<path d="M43.693 63.4528V58.9145H41.7492V63.4528H43.693Z" fill="#22885E"/>
<path d="M43.7071 52.4323H41.7447V56.8921H43.7071V52.4323Z" fill="#22885E"/>
<path d="M43.7001 50.4161V45.9431H41.7553V50.4161H43.7001Z" fill="#22885E"/>
<path d="M41.7527 41.4984V43.9075H43.7027V41.4984H41.7527Z" fill="#22885E"/>
<path d="M40.6333 35.2678V39.476H44.8177V35.2678H40.6333Z" fill="#62C89E"/>
<path d="M36.5223 36.3942V38.354H38.5924V36.3942H36.5223Z" fill="#22885E"/>
<path d="M50.1196 38.3699C49.4513 37.7007 48.8395 37.0872 48.2243 36.4772C48.181 36.4348 48.1139 36.3925 48.0565 36.3916C47.654 36.3845 47.2514 36.388 46.8516 36.388V38.3707C47.9268 38.3699 48.979 38.3699 50.1196 38.3699Z" fill="#22885E"/>
<path d="M51.0853 36.4022L51.0878 36.4047C51.7023 37.0191 52.3202 37.637 52.8685 38.1862C53.4564 37.5983 54.0735 36.9821 54.6534 36.4022H51.0853Z" fill="#22885E"/>
<path d="M59.4839 38.3628L57.6089 36.5213C57.0131 37.1154 56.3854 37.7404 55.7613 38.3628H59.4839Z" fill="#22885E"/>
</g>
<path id="Vector_2" d="M55.5864 58.4487C56.2388 58.4487 56.8735 58.4487 57.532 58.4487C57.532 59.4692 57.532 60.4862 57.532 61.5252C56.8894 61.5252 56.2467 61.5252 55.5864 61.5252C55.5864 60.5065 55.5864 59.4966 55.5864 58.4487Z" fill="#0B2D1F"/>
<path id="Vector_3" d="M63.6213 61.5319C62.9672 61.5319 62.3316 61.5319 61.6783 61.5319C61.6783 60.5009 61.6783 59.4839 61.6783 58.4502C62.3263 58.4502 62.9619 58.4502 63.6213 58.4502C63.6213 59.4663 63.6213 60.4832 63.6213 61.5319Z" fill="#0B2D1F"/>
<path id="Vector_4" d="M20.5213 38.1338C11.8067 38.4707 4.36567 31.4492 4.01189 22.5712C3.6716 13.9172 10.678 6.32797 19.3117 6.01126C28.311 5.68444 35.8463 12.5139 36.185 21.3026C36.5337 30.3845 29.6452 37.7867 20.5213 38.1338ZM32.6506 22.0843C32.6519 18.7636 31.3365 15.5779 28.9927 13.2255C26.6489 10.8732 23.468 9.5462 20.1473 9.5355C13.1965 9.52539 7.54288 15.1352 7.53277 22.0523C7.52266 28.9694 13.1948 34.618 20.1119 34.6112C23.4342 34.605 26.6189 33.2839 28.9701 30.9365C31.3212 28.5892 32.6474 25.4066 32.659 22.0843H32.6506Z" fill="#0B2D1F"/>
<path id="Vector_5" d="M58.1253 24.5421C58.7334 24.0047 59.1782 23.5903 59.6414 23.2028C60.4753 22.5121 61.5215 22.5627 62.1835 23.3073C62.8456 24.0519 62.7799 25.1149 61.9814 25.8342C60.5214 27.164 59.0434 28.4768 57.5474 29.7729C56.7927 30.4282 55.8931 30.4198 55.1384 29.7594C53.647 28.46 52.1684 27.1477 50.7028 25.8224C49.9077 25.1031 49.8352 24.0334 50.4905 23.2955C51.1459 22.5576 52.1752 22.4801 53.0276 23.1776C53.5128 23.5768 53.9743 24.0047 54.4865 24.4545C54.528 24.3702 54.5581 24.2807 54.5758 24.1883C54.5758 22.3184 54.6263 20.4451 54.5657 18.5768C54.4797 15.969 52.6283 14.1968 50.0172 14.185C47.1971 14.1648 44.377 14.185 41.5553 14.1749C41.2407 14.1822 40.9263 14.1528 40.6186 14.0873C39.7763 13.8851 39.2709 13.1254 39.3366 12.2342C39.3612 11.831 39.5311 11.4505 39.8148 11.163C40.0986 10.8755 40.4769 10.7007 40.8797 10.6709C41.5721 10.6237 42.2679 10.6456 42.9619 10.6439C45.2985 10.6439 47.6351 10.6321 49.9717 10.6439C54.6263 10.6709 58.0579 14.062 58.1236 18.7099C58.1489 20.371 58.1236 22.0303 58.1236 23.6914L58.1253 24.5421Z" fill="#0B2D1F"/>
<path id="Vector_6" d="M11.2264 50.9573C10.6183 51.4947 10.1718 51.9125 9.71024 52.305C8.86792 52.9991 7.83693 52.9401 7.16982 52.1804C6.5027 51.4206 6.59199 50.3694 7.38882 49.6534C8.85444 48.3271 10.3313 47.0131 11.8194 45.7114C12.5488 45.0729 13.4451 45.0594 14.1779 45.6929C15.6839 47.0046 17.1771 48.3321 18.6573 49.6753C19.4508 50.3964 19.4996 51.4796 18.8392 52.2023C18.1789 52.925 17.126 52.989 16.2955 52.2865C15.8322 51.894 15.3841 51.4829 14.8484 51.0079C14.8155 51.1844 14.793 51.3627 14.781 51.5419C14.781 53.2434 14.7658 54.9465 14.781 56.648C14.8062 59.4243 16.6341 61.2774 19.412 61.3026C22.2759 61.3296 25.1398 61.3026 28.0036 61.3128C29.0767 61.3128 29.7792 61.7828 29.9999 62.615C30.0709 62.8635 30.085 63.1248 30.0411 63.3794C29.9972 63.6341 29.8965 63.8756 29.7465 64.0861C29.5965 64.2965 29.4009 64.4704 29.1744 64.5948C28.948 64.7193 28.6963 64.7911 28.4383 64.805C27.4528 64.8623 26.4605 64.8353 25.4716 64.8353C23.3456 64.8353 21.2179 64.869 19.0936 64.8168C15.2089 64.7208 12.067 62.0826 11.4033 58.2669C11.1792 56.9765 11.2736 55.6288 11.2483 54.3064C11.2096 53.2467 11.2264 52.1854 11.2264 50.9573Z" fill="#0B2D1F"/>
<path id="Vector_7" d="M21.6403 28.8938C21.6403 29.384 21.6588 29.8237 21.6403 30.2617C21.5881 31.2725 20.8755 31.9767 19.9675 31.9564C19.0594 31.9362 18.3873 31.2287 18.3637 30.2078C18.3553 29.8119 18.3637 29.4177 18.3637 28.9292C17.6393 28.9292 16.9739 28.9578 16.3101 28.9292C15.1309 28.8668 14.3964 27.8746 14.7215 26.8048C14.9355 26.1007 15.515 25.6745 16.3522 25.666C17.8246 25.6492 19.297 25.666 20.771 25.666C20.9598 25.6759 21.1491 25.6646 21.3354 25.6323C21.802 25.5245 22.0783 25.2263 22.0463 24.7361C22.0488 24.6295 22.0297 24.5235 21.99 24.4246C21.9504 24.3256 21.891 24.2358 21.8155 24.1604C21.74 24.0851 21.6501 24.0259 21.551 23.9865C21.452 23.947 21.3459 23.9281 21.2394 23.9309C20.5251 23.9022 19.8091 23.9309 19.0948 23.9157C16.7549 23.8938 14.981 22.349 14.6777 20.0697C14.3846 17.942 15.7323 15.9643 17.9223 15.3713C18.303 15.2685 18.3822 15.1034 18.3654 14.7682C18.3485 14.4111 18.3519 14.0534 18.3755 13.6967C18.3987 13.3155 18.5566 12.9549 18.821 12.6794C19.0855 12.4038 19.4393 12.2312 19.8192 12.1924C20.21 12.1424 20.6053 12.2413 20.9265 12.4695C21.2477 12.6977 21.4712 13.0384 21.5527 13.4238C21.6622 13.973 21.6437 14.5492 21.6892 15.2146C22.3344 15.2146 22.9964 15.2146 23.6602 15.2146C24.8226 15.223 25.5705 15.8649 25.5739 16.8504C25.5773 17.8359 24.8293 18.4777 23.6703 18.4878C22.1962 18.4878 20.7239 18.4878 19.2498 18.4878C18.4328 18.4878 17.9526 18.8753 17.9358 19.5239C17.919 20.1725 18.4176 20.6121 19.2616 20.6189C19.8933 20.6189 20.5251 20.6189 21.1551 20.6189C23.3451 20.6543 25.0837 22.1805 25.3195 24.2526C25.5604 26.3803 24.2178 28.2705 22.0867 28.8011C21.9654 28.8365 21.8425 28.855 21.6403 28.8938Z" fill="#0B2D1F"/>
</g>
</g>
</svg>
