<svg width="72" height="72" viewBox="0 0 72 72" fill="none" xmlns="http://www.w3.org/2000/svg">
<g id="cash-flow">
<g id="Group 1171275135">
<g id="Vector">
<path d="M18.0063 68C17.1897 67.7117 16.3114 67.5317 15.5681 67.1134C13.2166 65.7885 12.0251 63.7153 12.0117 61.0155C11.9901 56.4759 12.0051 51.9346 12.0051 47.3949C12.0051 35.2942 12.0017 23.1952 12.0067 11.0944C12.0084 7.68638 14.0982 4.96493 17.3146 4.20165C17.8946 4.06333 18.5095 4.01334 19.1078 4.01167C26.6056 4 34.1033 4.00834 41.5994 4C43.5943 3.99834 45.2875 4.67995 46.7323 6.05151C50.582 9.70956 54.4351 13.3643 58.3081 16.9973C59.9713 18.5572 60.7629 20.4321 60.7596 22.7152C60.7412 35.3975 60.7212 48.0816 60.7679 60.7639C60.7829 64.8736 57.8065 67.5684 54.91 67.91C54.855 67.9167 54.8034 67.9683 54.7517 67.9983C42.5043 68 30.2553 68 18.0063 68ZM41.2544 7.75471C40.9445 7.75471 40.7378 7.75471 40.5295 7.75471C33.4267 7.75471 26.3239 7.75471 19.2195 7.75471C17.028 7.75471 15.7564 9.01628 15.7564 11.1944C15.7548 27.7332 15.7548 44.2735 15.7564 60.8122C15.7564 62.9871 17.0297 64.2503 19.2212 64.2503C30.6569 64.252 42.0927 64.252 53.5285 64.2503C55.745 64.2503 57.0015 62.9854 57.0015 60.7572C57.0032 48.3215 57.0015 35.8858 57.0015 23.4501C57.0015 23.2302 57.0015 23.0102 57.0015 22.7535C56.6916 22.7535 56.4649 22.7535 56.2383 22.7535C52.8219 22.7535 49.4055 22.7552 45.9891 22.7535C43.0576 22.7519 41.2528 20.9353 41.2528 17.9889C41.2511 14.8225 41.2528 11.6561 41.2528 8.48965C41.2544 8.26634 41.2544 8.04135 41.2544 7.75471ZM54.9634 19.0038C51.5886 15.8124 48.3505 12.7493 45.0441 9.6229C45.0225 9.82288 45.0058 9.90121 45.0058 9.97787C45.0041 12.7027 45.0008 15.4291 45.0058 18.1539C45.0075 18.8022 45.2108 18.9988 45.8724 19.0022C47.4956 19.0072 49.1172 19.0038 50.7404 19.0038C52.0869 19.0038 53.4335 19.0038 54.9634 19.0038Z" fill="#4D0000"/>
<path d="M54.9634 19.0038C51.5886 15.8124 48.3505 12.7493 45.0441 9.6229C45.0225 9.82288 45.0058 9.90121 45.0058 9.97787C45.0041 12.7027 45.0008 15.4291 45.0058 18.1539C45.0075 18.8022 45.2108 18.9988 45.8724 19.0022C47.4956 19.0072 49.1172 19.0038 50.7404 19.0038H54.9634Z" fill="#FF8080"/>
</g>
</g>
<path id="Vector_2" d="M35.5008 46.543C31.5018 46.543 28.25 43.2912 28.25 39.2923C28.25 35.2933 31.5018 32.0415 35.5008 32.0415C39.4997 32.0415 42.7515 35.2933 42.7515 39.2923C42.7515 43.2912 39.4997 46.543 35.5008 46.543ZM35.5008 33.8548C32.5025 33.8548 30.0633 36.294 30.0633 39.2923C30.0633 42.2905 32.5025 44.7305 35.5008 44.7305C38.499 44.7305 40.9382 42.2905 40.9382 39.2923C40.9382 36.294 38.499 33.8548 35.5008 33.8548Z" fill="#4D0000"/>
<path id="Vector_3" d="M35.5 44.126C34.9997 44.126 34.5938 43.7201 34.5938 43.2197V42.3135C34.5938 41.8131 34.9997 41.4072 35.5 41.4072C36.0003 41.4072 36.4062 41.8131 36.4062 42.3135V43.2197C36.4062 43.7201 36.0003 44.126 35.5 44.126Z" fill="#4D0000"/>
<path id="Vector_4" d="M35.5 37.1772C34.9997 37.1772 34.5938 36.7713 34.5938 36.271V35.3647C34.5938 34.8644 34.9997 34.4585 35.5 34.4585C36.0003 34.4585 36.4062 34.8644 36.4062 35.3647V36.271C36.4062 36.7713 36.0003 37.1772 35.5 37.1772Z" fill="#4D0000"/>
<path id="Vector_5" d="M35.65 42.917H33.989C33.4887 42.917 33.082 42.5111 33.082 42.0107C33.082 41.5104 33.4887 41.1045 33.989 41.1045H35.65C35.9005 41.1045 36.1031 40.9019 36.1031 40.6514C36.1031 40.4016 35.9005 40.1982 35.65 40.1982H35.3484C34.0987 40.1982 33.082 39.1823 33.082 37.9326C33.082 36.6829 34.0987 35.667 35.3484 35.667H37.0094C37.5097 35.667 37.9164 36.0729 37.9164 36.5732C37.9164 37.0736 37.5097 37.4795 37.0094 37.4795H35.3484C35.0979 37.4795 34.8953 37.6828 34.8953 37.9326C34.8953 38.1824 35.0979 38.3857 35.3484 38.3857H35.65C36.8997 38.3857 37.9164 39.4024 37.9164 40.6514C37.9164 41.9011 36.8997 42.917 35.65 42.917Z" fill="#4D0000"/>
<path id="Vector_6" d="M35.5 52.6377C34.9997 52.6377 34.5938 52.2318 34.5938 51.7314C34.5938 51.2311 34.9997 50.8252 35.5 50.8252C41.8445 50.8252 47.0063 45.6641 47.0063 39.3188C47.0063 38.8185 47.4122 38.4126 47.9126 38.4126C48.4129 38.4126 48.8188 38.8185 48.8188 39.3188C48.8188 46.6633 42.8444 52.6377 35.5 52.6377Z" fill="#4D0000"/>
<g id="Group">
<path id="Vector_7" d="M47.2005 36.1142C46.825 36.1142 46.4739 35.8796 46.3452 35.505C44.7452 30.9044 40.3884 27.8125 35.503 27.8125C32.8817 27.8125 30.4288 28.67 28.4099 30.2944C28.0192 30.6089 27.4488 30.5472 27.1358 30.1558C26.822 29.7666 26.8837 29.1962 27.2736 28.8832C29.6177 26.9969 32.4636 26 35.503 26C41.1598 26 46.2043 29.5801 48.0572 34.9102C48.2217 35.3839 47.9711 35.8987 47.499 36.0632C47.4 36.0974 47.2995 36.1142 47.2005 36.1142Z" fill="#4D0000"/>
</g>
<path id="Vector_8" d="M31.3672 51.9201C31.2682 51.9201 31.1669 51.9033 31.0679 51.8691C25.7545 50.0086 22.1836 44.9633 22.1836 39.3164C22.1836 36.625 22.9787 34.0502 24.482 31.8661C24.766 31.4533 25.3288 31.349 25.7423 31.6353C26.1543 31.9186 26.2579 32.4837 25.9738 32.8957C24.68 34.7737 23.9961 36.9936 23.9961 39.3164C23.9961 44.1956 27.0789 48.5533 31.6672 50.1594C32.1394 50.3246 32.3884 50.841 32.2232 51.3147C32.0922 51.6871 31.7419 51.9201 31.3672 51.9201Z" fill="#4D0000"/>
<path id="Vector_9" d="M37.2755 55.0017C37.0433 55.0017 36.811 54.9134 36.6351 54.7359L34.2697 52.3721C34.0999 52.2023 34.0039 51.9723 34.0039 51.7316C34.0039 51.4917 34.0999 51.261 34.2697 51.0912L36.6351 48.7265C36.9892 48.3724 37.5626 48.3724 37.9168 48.7265C38.2709 49.0807 38.2709 49.6549 37.9168 50.009L36.1941 51.7331L37.9168 53.4565C38.2709 53.8107 38.2709 54.3841 37.9168 54.7382C37.7393 54.9134 37.5071 55.0017 37.2755 55.0017Z" fill="#4D0000"/>
<path id="Vector_10" d="M26.2493 36.0875C25.8487 36.0875 25.4832 35.8202 25.3743 35.4158L24.6911 32.8662L22.1415 33.5485C21.6571 33.678 21.1606 33.3916 21.0311 32.9081C20.9016 32.4245 21.188 31.9272 21.6716 31.7977L25.097 30.8793C25.3293 30.8191 25.5761 30.8488 25.7847 30.9699C25.9926 31.091 26.1449 31.289 26.2082 31.5197L27.1251 34.9452C27.2545 35.4288 26.9682 35.9269 26.4831 36.0563C26.4046 36.0776 26.3262 36.0875 26.2493 36.0875Z" fill="#4D0000"/>
<path id="Vector_11" d="M47.3217 36.7945C47.1679 36.7945 47.0125 36.7556 46.8686 36.6726L43.7965 34.8997C43.3631 34.6499 43.2154 34.0948 43.4652 33.6622C43.7165 33.2289 44.2717 33.0811 44.7027 33.3317L46.9889 34.6507L48.3087 32.3645C48.5592 31.9304 49.1152 31.7834 49.5462 32.0332C49.9803 32.2838 50.1273 32.8382 49.8775 33.2708L48.1046 36.3413C47.9393 36.6315 47.6347 36.7945 47.3217 36.7945Z" fill="#4D0000"/>
</g>
</svg>
