<svg width="72" height="72" viewBox="0 0 72 72" fill="none" xmlns="http://www.w3.org/2000/svg">
<g id="chart-of-account">
<g id="dashboard (3) 1">
<g id="Group">
<g id="Vector">
<path d="M61.9996 68C44.6669 68 27.3342 68 10.0015 68C9.90819 67.9633 9.81652 67.91 9.71986 67.89C7.0233 67.3517 5.23503 65.7718 4.32673 63.1868C4.19174 62.8002 4.10841 62.3952 4.00008 62.0002C4.00008 44.6675 4.00008 27.3349 4.00008 10.0022C4.03341 9.92885 4.08507 9.85885 4.10007 9.78052C4.77005 6.27732 7.47995 4.00574 11.0465 4.00407C27.6859 3.99741 44.3252 3.99741 60.9646 4.01574C61.7229 4.0174 62.5079 4.13407 63.2312 4.35906C66.1894 5.27402 67.996 7.91392 67.9977 11.2221C67.9993 27.7148 67.9977 44.2092 67.9977 60.702C67.9977 60.9519 67.9977 61.2019 67.9877 61.4519C67.871 64.3718 65.7711 66.9934 62.9495 67.745C62.6345 67.83 62.3162 67.915 61.9996 68ZM7.7516 17.7769C7.7516 18.0352 7.7516 18.2419 7.7516 18.4469C7.7516 32.568 7.7516 46.6891 7.7516 60.8119C7.7516 62.9869 9.02655 64.2518 11.2148 64.2518C27.7309 64.2518 44.2486 64.2518 60.7646 64.2518C62.9879 64.2518 64.2478 62.9935 64.2478 60.7703C64.2495 46.6691 64.2478 32.5697 64.2478 18.4685C64.2478 18.2469 64.2478 18.0252 64.2478 17.7786C45.411 17.7769 26.6457 17.7769 7.79403 17.7769C7.77989 17.7769 7.76575 17.7769 7.7516 17.7769ZM49.2217 7.75226C48.9684 7.75226 48.7634 7.75226 48.5584 7.75226C36.1055 7.75226 23.6527 7.75226 11.1981 7.75226C11.0531 7.75226 10.9065 7.74893 10.7615 7.7556C9.47487 7.80726 8.20159 8.61557 7.96493 9.86052C7.70994 11.2021 7.7616 12.6021 7.67994 13.9704C21.6327 13.9704 35.4122 13.9704 49.2217 13.9704C49.2217 11.9054 49.2217 9.87218 49.2217 7.75226ZM64.2495 13.977C64.2495 12.9721 64.2528 12.0371 64.2495 11.1021C64.2411 9.05555 62.9412 7.75726 60.8879 7.75393C58.4747 7.7506 56.0598 7.75226 53.6465 7.75393C53.4449 7.75393 53.2449 7.77226 53.0449 7.78226C53.0449 9.87552 53.0449 11.9221 53.0449 13.977C56.7848 13.977 60.4813 13.977 64.2495 13.977Z" fill="#0D313B"/>
<path d="M49.2217 7.75226H48.5584H11.1981C11.0531 7.75226 10.9065 7.74893 10.7615 7.7556C9.47487 7.80726 8.20159 8.61557 7.96493 9.86052C7.70994 11.2021 7.7616 12.6021 7.67994 13.9704H49.2217V7.75226Z" fill="#2894B4"/>
<path d="M64.2495 13.977C64.2495 12.9721 64.2528 12.0371 64.2495 11.1021C64.2411 9.05555 62.9412 7.75726 60.8879 7.75393C58.4747 7.7506 56.0598 7.75226 53.6465 7.75393C53.4449 7.75393 53.2449 7.77226 53.0449 7.78226V13.977H64.2495Z" fill="#68D4F4"/>
</g>
<g id="Vector_2">
<path d="M27.2179 35.4149C28.8141 36.254 30.101 37.3827 31.0757 38.8546C32.1549 40.4847 32.7115 42.2802 32.7525 44.2324C32.7751 45.3201 32.1154 45.9953 31.0291 45.9967C25.4691 46.001 19.9091 46.001 14.3491 45.9967C13.267 45.9953 12.5918 45.3158 12.637 44.2253C12.791 40.4833 14.4889 37.6426 17.6814 35.6904C17.8297 35.6 17.9809 35.5152 18.1687 35.405C18.0713 35.2567 17.9893 35.1296 17.9032 35.0038C17.2378 34.0305 16.8578 32.9556 16.8776 31.7774C16.8988 30.5471 16.8395 29.2842 17.1008 28.0976C17.7082 25.336 20.4741 23.4685 23.2499 23.7708C26.1711 24.0901 28.4186 26.4618 28.509 29.3435C28.5358 30.208 28.5288 31.074 28.5104 31.9385C28.485 33.077 28.1629 33.919 27.2179 35.4149ZM16.0399 42.7929C20.4967 42.7929 24.9167 42.7929 29.341 42.7929C28.8607 39.9112 25.8886 37.5465 22.7484 37.5239C19.5658 37.4999 16.5612 39.8477 16.0399 42.7929ZM25.3702 30.6219C25.3589 30.6219 25.349 30.6205 25.3377 30.6205C25.3377 30.2504 25.3476 29.8803 25.3363 29.5102C25.2897 28.0524 24.1087 26.9167 22.6622 26.9294C21.2426 26.9421 20.0828 28.0792 20.0475 29.5145C20.0291 30.2532 20.0306 30.9949 20.0461 31.7337C20.0743 33.0926 21.0971 34.2001 22.4292 34.3328C23.7612 34.4656 24.9874 33.5912 25.26 32.2493C25.3688 31.7209 25.3391 31.1644 25.3702 30.6219Z" fill="#0D313B"/>
<path d="M16.0399 42.7929H29.341C28.8607 39.9112 25.8886 37.5465 22.7484 37.5239C19.5658 37.4999 16.5612 39.8477 16.0399 42.7929Z" fill="#68D4F4"/>
<path d="M25.3702 30.6219C25.3589 30.6219 25.349 30.6205 25.3377 30.6205C25.3377 30.2504 25.3476 29.8803 25.3363 29.5102C25.2897 28.0524 24.1087 26.9167 22.6622 26.9294C21.2426 26.9421 20.0828 28.0792 20.0475 29.5145C20.0291 30.2532 20.0306 30.9949 20.0461 31.7337C20.0743 33.0926 21.0971 34.2001 22.4292 34.3328C23.7612 34.4656 24.9874 33.5912 25.26 32.2493C25.3688 31.7209 25.3391 31.1644 25.3702 30.6219Z" fill="#2894B4"/>
</g>
<path id="Vector_3" d="M22.9331 57.7494C20.3315 57.7494 17.7316 57.7511 15.1301 57.7494C13.8618 57.7478 13.0085 56.9978 13.0001 55.8878C12.9918 54.7762 13.8484 54.0029 15.1034 54.0012C20.3665 53.9996 25.6313 53.9996 30.8945 54.0012C32.1511 54.0012 33.0044 54.7779 32.9927 55.8928C32.9811 56.9845 32.1394 57.7461 30.9195 57.7478C28.2596 57.7528 25.5963 57.7494 22.9331 57.7494Z" fill="#0D313B"/>
<path id="Vector_4" d="M47.9331 42.7494C45.3315 42.7494 42.7316 42.7511 40.1301 42.7494C38.8618 42.7478 38.0085 41.9978 38.0001 40.8878C37.9918 39.7762 38.8484 39.0029 40.1034 39.0012C45.3665 38.9996 50.6313 38.9996 55.8945 39.0012C57.1511 39.0012 58.0044 39.7779 57.9927 40.8928C57.9811 41.9845 57.1394 42.7461 55.9195 42.7478C53.2596 42.7528 50.5963 42.7494 47.9331 42.7494Z" fill="#0D313B"/>
<path id="Vector_5" d="M47.9331 27.7494C45.3315 27.7494 42.7316 27.7511 40.1301 27.7494C38.8618 27.7478 38.0085 26.9978 38.0001 25.8878C37.9918 24.7762 38.8484 24.0029 40.1034 24.0012C45.3665 23.9996 50.6313 23.9996 55.8945 24.0012C57.1511 24.0012 58.0044 24.7779 57.9927 25.8928C57.9811 26.9845 57.1394 27.7461 55.9195 27.7478C53.2596 27.7528 50.5963 27.7494 47.9331 27.7494Z" fill="#0D313B"/>
<path id="Vector_6" d="M48.0059 54.0033C50.6275 54.0033 53.2491 54.0017 55.8706 54.0033C57.1456 54.005 57.9956 54.7466 58.0056 55.8583C58.0172 56.9732 57.1623 57.7499 55.9073 57.7515C50.6225 57.7549 45.3377 57.7565 40.0529 57.7499C38.553 57.7482 37.593 56.4182 38.1696 55.1383C38.5213 54.36 39.1613 54 40.0162 54C42.6795 54.005 45.3427 54.0033 48.0059 54.0033Z" fill="#0D313B"/>
</g>
</g>
</g>
</svg>
