<svg width="72" height="72" viewBox="0 0 72 72" fill="none" xmlns="http://www.w3.org/2000/svg">
<g id="financial-ratio">
<g id="Group 1171275135">
<g id="Vector">
<path d="M18.0063 68C17.1897 67.7117 16.3114 67.5317 15.5681 67.1134C13.2166 65.7885 12.0251 63.7153 12.0117 61.0155C11.9901 56.4759 12.0051 51.9346 12.0051 47.3949C12.0051 35.2942 12.0017 23.1952 12.0067 11.0944C12.0084 7.68638 14.0982 4.96493 17.3146 4.20165C17.8946 4.06333 18.5095 4.01334 19.1078 4.01167C26.6056 4 34.1033 4.00834 41.5994 4C43.5943 3.99834 45.2875 4.67995 46.7323 6.05151C50.582 9.70956 54.4351 13.3643 58.3081 16.9973C59.9713 18.5572 60.7629 20.4321 60.7596 22.7152C60.7412 35.3975 60.7212 48.0816 60.7679 60.7639C60.7829 64.8736 57.8065 67.5684 54.91 67.91C54.855 67.9167 54.8034 67.9683 54.7517 67.9983C42.5043 68 30.2553 68 18.0063 68ZM41.2544 7.75471C40.9445 7.75471 40.7378 7.75471 40.5295 7.75471C33.4267 7.75471 26.3239 7.75471 19.2195 7.75471C17.028 7.75471 15.7564 9.01628 15.7564 11.1944C15.7548 27.7332 15.7548 44.2735 15.7564 60.8122C15.7564 62.9871 17.0297 64.2503 19.2212 64.2503C30.6569 64.252 42.0927 64.252 53.5285 64.2503C55.745 64.2503 57.0015 62.9854 57.0015 60.7572C57.0032 48.3215 57.0015 35.8858 57.0015 23.4501C57.0015 23.2302 57.0015 23.0102 57.0015 22.7535C56.6916 22.7535 56.4649 22.7535 56.2383 22.7535C52.8219 22.7535 49.4055 22.7552 45.9891 22.7535C43.0576 22.7519 41.2528 20.9353 41.2528 17.9889C41.2511 14.8225 41.2528 11.6561 41.2528 8.48965C41.2544 8.26634 41.2544 8.04135 41.2544 7.75471ZM54.9634 19.0038C51.5886 15.8124 48.3505 12.7493 45.0441 9.6229C45.0225 9.82288 45.0058 9.90121 45.0058 9.97787C45.0041 12.7027 45.0008 15.4291 45.0058 18.1539C45.0075 18.8022 45.2108 18.9988 45.8724 19.0022C47.4956 19.0072 49.1172 19.0038 50.7404 19.0038C52.0869 19.0038 53.4335 19.0038 54.9634 19.0038Z" fill="#4D0000"/>
<path d="M54.9634 19.0038C51.5886 15.8124 48.3505 12.7493 45.0441 9.6229C45.0225 9.82288 45.0058 9.90121 45.0058 9.97787C45.0041 12.7027 45.0008 15.4291 45.0058 18.1539C45.0075 18.8022 45.2108 18.9988 45.8724 19.0022C47.4956 19.0072 49.1172 19.0038 50.7404 19.0038H54.9634Z" fill="#FF8080"/>
</g>
</g>
<path id="Vector_2" d="M27.262 44.1849C27.0245 44.2849 26.1621 45.0224 25.3621 45.8223L23.8996 47.2723L23.3871 46.8098C23.0996 46.5598 22.7372 46.2973 22.5622 46.2348C21.0247 45.6473 19.4872 47.3098 20.2122 48.7723C20.4872 49.3222 22.4747 51.3222 23.0371 51.6222C23.6246 51.9222 24.1496 51.9222 24.7371 51.6222C24.9871 51.4847 26.1871 50.3847 27.3995 49.1472C29.162 47.3723 29.637 46.8223 29.7495 46.4223C30.012 45.4723 29.4245 44.3599 28.537 44.1099C27.937 43.9474 27.787 43.9599 27.262 44.1849Z" fill="#4D0000"/>
<path id="Vector_3" d="M33.6487 46.2876C32.5113 47.0501 32.5363 48.55 33.7112 49.425C34.0487 49.6875 34.1737 49.6875 42.2235 49.6875C50.2733 49.6875 50.3983 49.6875 50.7358 49.425C51.9107 48.55 51.9357 47.0501 50.7983 46.2876L50.3733 46.0001H42.2235H34.0737L33.6487 46.2876Z" fill="#4D0000"/>
<path id="Vector_4" d="M27.8233 53.8619C27.7608 53.8869 27.5358 53.9369 27.3358 53.9869C27.0983 54.0369 26.4233 54.5994 25.4358 55.5743L23.8984 57.0868L23.4359 56.6743C22.9234 56.2243 22.2859 55.9243 21.8609 55.9243C21.3359 55.9243 20.5735 56.3993 20.286 56.9118C19.6985 57.9618 19.9485 58.5743 21.6734 60.2742C23.0484 61.6242 23.3859 61.7992 24.3608 61.6117C24.7483 61.5367 25.1858 61.1617 27.1108 59.2617C28.3732 58.0118 29.4982 56.8118 29.5982 56.6118C30.0357 55.7868 29.7232 54.5994 28.9482 54.1619C28.5482 53.9369 28.0232 53.7994 27.8233 53.8619Z" fill="#4D0000"/>
<path id="Vector_5" d="M33.7843 56.0994C33.1719 56.3744 32.7969 56.9994 32.7969 57.7619C32.7969 58.4618 33.0219 58.8868 33.6594 59.3493C33.9968 59.6118 34.1218 59.6118 42.1716 59.6118C50.2214 59.6118 50.3464 59.6118 50.6839 59.3493C51.3214 58.8868 51.5464 58.4618 51.5464 57.7619C51.5464 56.9869 51.1714 56.3619 50.5339 56.0994C49.9339 55.8494 34.3593 55.8494 33.7843 56.0994Z" fill="#4D0000"/>
<path id="Vector_6" d="M38.4013 39.3323C38.3595 40.4603 37.9835 40.9779 37.2173 40.9993C36.4174 41.0217 36.017 40.5184 35.9212 39.3344C35.1672 39.1123 34.5294 38.665 33.9496 38.1209C33.3872 37.592 33.3189 36.8452 33.7937 36.3225C34.2624 35.8059 35.0276 35.7947 35.5952 36.3194C36.0679 36.7555 36.5621 37.0856 37.2519 37.0398C38.119 36.9817 38.8221 36.404 38.8394 35.6857C38.8577 34.951 38.1618 34.358 37.2743 34.2633C36.6497 34.197 36.0017 34.1186 35.422 33.8944C33.916 33.3106 32.999 31.935 33 30.4209C33.001 28.9089 33.9598 27.5344 35.476 26.9403C35.8071 26.8109 35.9049 26.6601 35.8907 26.3107C35.858 25.5618 36.3808 25.0156 37.0787 25.0003C37.7848 24.9851 38.3146 25.4935 38.3136 26.2577C38.3126 26.6612 38.4349 26.8507 38.8302 26.9842C39.5852 27.2399 40.2618 27.6536 40.7305 28.3281C41.0362 28.7693 41.0362 29.236 40.758 29.6914C40.4982 30.1153 40.005 30.3486 39.5058 30.209C39.2306 30.1316 38.9566 29.9461 38.7548 29.7393C38.1832 29.1514 37.0522 28.8854 36.3196 29.2258C35.8132 29.4611 35.4586 29.829 35.4505 30.4199C35.4423 31.0303 35.799 31.4307 36.3278 31.6406C36.6487 31.7679 37.0176 31.7965 37.3681 31.827C39.0004 31.9717 40.2669 32.6911 40.9679 34.2062C41.8248 36.0596 40.9282 38.2024 38.9739 39.0919C38.7895 39.1744 38.5999 39.2488 38.4013 39.3323Z" fill="#4D0000"/>
</g>
</svg>
