<svg width="72" height="72" viewBox="0 0 72 72" fill="none" xmlns="http://www.w3.org/2000/svg">
<g id="general-ledger">
<path id="Vector 673" d="M58 10.5H38.5L32 16V46.5H58V10.5Z" fill="#FF8080"/>
<g id="Group 1171275208">
<rect id="Rectangle 34624802" x="7.87878" y="12.8789" width="23.2727" height="32" fill="#E60000"/>
<path id="Subtract" fill-rule="evenodd" clip-rule="evenodd" d="M4 10.4578V47.6692C4.51555 48.7778 5.40118 49.1625 6.59227 49.1075C7.45657 49.0673 8.3232 49.0765 9.21515 49.086L9.21612 49.0861C9.61309 49.0903 10.0151 49.0946 10.4241 49.0946C10.4276 49.167 10.4317 49.237 10.4356 49.3056L10.4357 49.3056L10.4357 49.3056L10.4357 49.3057L10.4357 49.3057C10.4447 49.4605 10.4532 49.6072 10.4532 49.754C10.4546 50.2644 10.4542 50.7752 10.4538 51.286C10.4533 51.9671 10.4527 52.6482 10.4564 53.3288C10.4645 54.7704 11.2322 55.5478 12.6576 55.5478C21.9289 55.5487 31.1997 55.5491 40.4705 55.549C39.8727 54.323 39.4317 53.0064 39.1736 51.6255H14.361V51.6226C14.361 50.7897 14.361 49.9905 14.3626 49.0946H15.203L21.2056 49.0947H21.2056H21.2057H21.2058H21.2058H21.2059H21.206C27.1083 49.0949 33.0105 49.0951 38.9127 49.0936C38.9103 48.9819 38.9091 48.8699 38.9091 48.7576C38.9091 47.5281 39.0521 46.3321 39.3224 45.1852H33.761C33.7572 45.1126 33.7521 45.0403 33.747 44.9684C33.737 44.8272 33.7271 44.687 33.7271 44.5468C33.7267 42.6136 33.7261 40.6804 33.7255 38.7472V38.7433C33.7234 32.2966 33.7213 25.8498 33.7287 19.403C33.7336 15.5567 36.4115 12.8868 40.2466 12.8836C43.7675 12.8801 47.2877 12.8808 50.8076 12.8814H50.8081H50.8082H50.8083H50.8084H50.8085H50.8086H50.8088C52.2162 12.8817 53.6236 12.882 55.0309 12.882H55.679V33.2924C57.0448 33.4017 58.3608 33.6879 59.604 34.1281C59.6038 31.4591 59.604 28.7901 59.6043 26.1211C59.6044 24.1538 59.6046 22.1866 59.6046 20.2192V19.3869H62.1354V35.2913C63.6141 36.1399 64.9397 37.225 66.0606 38.4949C66.0607 31.566 66.0603 24.6371 66.0594 17.7077C66.0578 16.229 65.3014 15.4662 63.8259 15.4597C62.8718 15.4552 61.9177 15.4562 60.9282 15.4572H60.9281H60.9274H60.9267H60.926C60.4933 15.4576 60.0538 15.4581 59.6046 15.4581V14.6726C59.6046 14.2955 59.6049 13.9184 59.6053 13.5413V13.5383C59.606 12.7851 59.6067 12.032 59.6046 11.2788C59.5981 9.75474 58.8515 9.00324 57.3371 9.00324C55.327 9.00267 53.3166 9.00331 51.3062 9.00395C47.6206 9.00512 43.9349 9.00629 40.2498 9.00001C36.8608 8.99516 34.102 10.2913 31.9768 12.9337C31.9457 12.9718 31.9196 13.0131 31.8868 13.0648L31.8868 13.0649C31.8668 13.0964 31.8444 13.1319 31.8168 13.1729C30.7243 11.7426 29.4379 10.6646 27.867 9.93898C26.6226 9.36364 25.3168 9.01941 23.9495 9.01456C20.0408 9.00293 16.1313 9.00306 12.2221 9.00318C10.1525 9.00324 8.08301 9.00331 6.0137 9.00163C4.98261 9.00163 4.39757 9.59475 4 10.4578ZM29.8304 45.0019C29.8253 45.0555 29.8197 45.1149 29.8144 45.1836H7.9272V12.882H8.47345C10.0075 12.882 11.5417 12.8813 13.076 12.8807H13.0761H13.0763H13.0765H13.0767H13.0768H13.077H13.0775H13.0777H13.0779H13.0781H13.0783H13.0784C16.5314 12.8794 19.9847 12.878 23.4372 12.8836C27.1171 12.8884 29.8274 15.5195 29.8387 19.1881C29.8589 25.4667 29.8546 31.7452 29.8503 38.0238V38.0253C29.8487 40.2681 29.8472 42.5109 29.8468 44.7537C29.8468 44.8302 29.8395 44.9067 29.8304 45.0019L29.8304 45.0019Z" fill="#4D0000"/>
<path id="Vector" d="M18.7265 38.2416C16.8097 38.2416 14.893 38.2448 12.9763 38.2416C11.6898 38.24 10.8026 37.4561 10.788 36.3216C10.7735 35.1629 11.6688 34.3645 12.9957 34.3645C16.8889 34.3629 20.7822 34.3645 24.6755 34.3645C25.5498 34.3645 26.193 34.7524 26.5437 35.5523C26.875 36.3103 26.7748 37.078 26.1574 37.6032C25.7615 37.9394 25.17 38.1963 24.6561 38.2141C22.6828 38.282 20.703 38.2416 18.7265 38.2416Z" fill="#4D0000"/>
<path id="Vector_2" d="M18.7863 18.701C20.8032 18.701 22.8201 18.6881 24.8371 18.7075C25.6952 18.7155 26.3999 19.2877 26.6277 20.0796C26.8669 20.907 26.5696 21.7991 25.8148 22.2322C25.4641 22.4326 25.0197 22.5587 24.6157 22.5619C20.703 22.5862 16.7904 22.5846 12.8777 22.5716C11.6624 22.5684 10.7735 21.7038 10.788 20.6064C10.8042 19.4881 11.6672 18.7058 12.9165 18.701C14.8736 18.6929 16.8291 18.6994 18.7863 18.6994C18.7863 18.6978 18.7863 18.6994 18.7863 18.701Z" fill="#4D0000"/>
<path id="Vector_3" d="M18.72 30.3892C16.7031 30.3892 14.6862 30.4021 12.6692 30.3828C11.7836 30.3747 11.0741 29.7783 10.8624 28.9557C10.6475 28.1153 10.9723 27.2313 11.7303 26.8257C12.0713 26.643 12.4931 26.5315 12.8793 26.5283C16.792 26.5073 20.7046 26.5089 24.6173 26.5186C25.8342 26.5218 26.7247 27.3768 26.7134 28.4773C26.7037 29.5909 25.8326 30.386 24.5882 30.3908C22.6311 30.3989 20.6755 30.3925 18.7184 30.3925C18.72 30.3925 18.72 30.3908 18.72 30.3892Z" fill="#4D0000"/>
<path id="Vector_4" d="M44.9681 18.701C46.985 18.701 49.002 18.6881 51.0189 18.7075C51.8771 18.7155 52.5817 19.2877 52.8096 20.0796C53.0488 20.907 52.7514 21.7991 51.9967 22.2322C51.646 22.4326 51.2015 22.5587 50.7975 22.5619C46.8848 22.5862 42.9722 22.5846 39.0595 22.5716C37.8442 22.5684 36.9553 21.7038 36.9699 20.6064C36.986 19.4881 37.849 18.7058 39.0983 18.701C41.0555 18.6929 43.011 18.6994 44.9681 18.6994C44.9681 18.6978 44.9681 18.6994 44.9681 18.701Z" fill="#4D0000"/>
<path id="Vector_5" d="M44.9019 30.3892C42.8849 30.3892 40.868 30.4021 38.8511 30.3828C37.9654 30.3747 37.2559 29.7783 37.0442 28.9557C36.8293 28.1153 37.1541 27.2313 37.9121 26.8257C38.2531 26.643 38.6749 26.5315 39.0612 26.5283C42.9738 26.5073 46.8865 26.5089 50.7991 26.5186C52.0161 26.5218 52.9065 27.3768 52.8952 28.4773C52.8855 29.5909 52.0144 30.386 50.77 30.3908C48.8129 30.3989 46.8574 30.3925 44.9002 30.3925C44.9019 30.3925 44.9019 30.3908 44.9019 30.3892Z" fill="#4D0000"/>
<g id="Vector_6">
<path d="M54.7805 62.9275C47.4317 63.2184 41.1568 57.1557 40.8585 49.49C40.5715 42.0177 46.4799 35.4648 53.7605 35.1914C61.3494 34.9092 67.7038 40.8061 67.9893 48.3947C68.2834 56.2364 62.4745 62.6278 54.7805 62.9275ZM65.0089 49.0696C65.01 46.2024 63.9007 43.4516 61.9243 41.4205C59.9478 39.3894 57.2654 38.2436 54.4651 38.2344C48.6037 38.2256 43.8361 43.0694 43.8276 49.042C43.8191 55.0145 48.6023 59.8917 54.4353 59.8859C57.2369 59.8806 59.9225 58.7398 61.9052 56.713C63.8878 54.6862 65.0062 51.9382 65.016 49.0696H65.0089Z" fill="#4D0000"/>
<path d="M65.0089 49.0696C65.01 46.2024 63.9007 43.4516 61.9243 41.4205C59.9478 39.3894 57.2654 38.2436 54.4651 38.2344C48.6037 38.2256 43.8361 43.0694 43.8276 49.042C43.8191 55.0145 48.6023 59.8917 54.4353 59.8859C57.2369 59.8806 59.9225 58.7398 61.9052 56.713C63.8878 54.6862 65.0062 51.9382 65.016 49.0696H65.0089Z" fill="#E60000"/>
</g>
<path id="Vector_7" d="M55.1639 54.6573C55.1639 55.0579 55.1787 55.4172 55.1639 55.7751C55.1222 56.601 54.5535 57.1764 53.8289 57.1599C53.1043 57.1434 52.5679 56.5652 52.5491 55.731C52.5424 55.4076 52.5491 55.0854 52.5491 54.6863C51.971 54.6863 51.44 54.7097 50.9103 54.6863C49.9692 54.6353 49.3831 53.8245 49.6425 52.9504C49.8133 52.375 50.2757 52.0268 50.9439 52.0199C52.1189 52.0061 53.2939 52.0199 54.4702 52.0199C54.6209 52.028 54.7719 52.0188 54.9206 51.9924C55.293 51.9043 55.5134 51.6606 55.4879 51.2601C55.4899 51.173 55.4746 51.0864 55.443 51.0055C55.4113 50.9246 55.3639 50.8512 55.3037 50.7897C55.2435 50.7281 55.1717 50.6798 55.0926 50.6475C55.0136 50.6153 54.929 50.5998 54.8439 50.6021C54.2739 50.5787 53.7026 50.6021 53.1325 50.5897C51.2652 50.5718 49.8496 49.3095 49.6076 47.447C49.3736 45.7085 50.4492 44.0924 52.1968 43.6079C52.5007 43.5239 52.5639 43.389 52.5504 43.1151C52.537 42.8233 52.5397 42.531 52.5585 42.2396C52.577 41.9281 52.703 41.6335 52.9141 41.4083C53.1251 41.1831 53.4074 41.0421 53.7106 41.0104C54.0225 40.9695 54.338 41.0504 54.5943 41.2368C54.8506 41.4232 55.029 41.7016 55.094 42.0166C55.1814 42.4654 55.1666 42.9361 55.2029 43.4799C55.7178 43.4799 56.2461 43.4799 56.7758 43.4799C57.7034 43.4867 58.3003 44.0112 58.303 44.8165C58.3057 45.6218 57.7088 46.1462 56.7839 46.1545C55.6075 46.1545 54.4326 46.1545 53.2562 46.1545C52.6042 46.1545 52.221 46.4711 52.2076 47.001C52.1942 47.531 52.5921 47.8903 53.2656 47.8958C53.7698 47.8958 54.2739 47.8958 54.7767 47.8958C56.5244 47.9247 57.9118 49.1718 58.1 50.865C58.2923 52.6036 57.2208 54.148 55.5202 54.5816C55.4234 54.6105 55.3252 54.6257 55.1639 54.6573Z" fill="#4D0000"/>
</g>
</g>
</svg>
