<svg width="72" height="72" viewBox="0 0 72 72" fill="none" xmlns="http://www.w3.org/2000/svg">
<g id="journal-entries">
<g id="Group">
<g id="Vector">
<path d="M28.6833 4C26.8817 4 25.3467 5.17333 24.765 6.78333H17.8433C17.7017 6.745 17.555 6.72833 17.4083 6.73833C17.365 6.75 17.32 6.76667 17.2767 6.78333H9.18C6.88833 6.78333 5 8.66833 5 10.9567V59.6517C5 61.94 6.88833 63.8267 9.18 63.8267H34.255C34.255 66.1133 36.1433 68 38.435 68H63.51C65.8017 68 67.69 66.1133 67.69 63.8267V31.8267C67.69 29.5383 65.8017 27.6517 63.51 27.6517H52.365V10.9567C52.365 8.66833 50.4767 6.78333 48.1867 6.78333H32.6017C32.0183 5.17333 30.485 4 28.6833 4ZM28.6833 6.78333C29.38 6.78333 29.9133 7.26167 30.0333 7.91333C30 8.08667 30 8.26167 30.0333 8.435C29.9133 9.08667 29.38 9.565 28.6833 9.565C27.9433 9.565 27.355 9.02667 27.29 8.305C27.29 8.26167 27.29 8.21667 27.29 8.17333C27.29 7.39167 27.9 6.78333 28.6833 6.78333ZM9.18 9.565H16.145V13.7383C16.145 16.0267 18.0333 17.9133 20.325 17.9133H37.0417C39.3333 17.9133 41.22 16.0267 41.22 13.7383V9.565H48.1867C48.975 9.565 49.58 10.1683 49.58 10.9567V27.6517H38.435C36.1433 27.6517 34.255 29.5383 34.255 31.8267V61.0433H9.18C8.39167 61.0433 7.78667 60.44 7.78667 59.6517V10.9567C7.78667 10.1683 8.39167 9.565 9.18 9.565ZM18.9317 9.565H24.765C25.3467 11.1733 26.8817 12.3483 28.6833 12.3483C30.485 12.3483 32.0183 11.1733 32.6017 9.565H38.435V13.7383C38.435 14.5267 37.83 15.13 37.0417 15.13H20.325C19.535 15.13 18.9317 14.5267 18.9317 13.7383V9.565ZM20.325 23.4783V31.8267H17.5383V27.6517H14.7517V31.8267H11.9667V34.6083H31.47V31.8267H28.6833V26.2617H25.8967V31.8267H23.11V23.4783H20.325ZM38.435 30.435H63.51C64.2983 30.435 64.9033 31.0383 64.9033 31.8267V63.8267C64.9033 64.6133 64.2983 65.2167 63.51 65.2167H38.435C37.645 65.2167 37.0417 64.6133 37.0417 63.8267V62.695C37.08 62.5117 37.08 62.315 37.0417 62.13V31.8267C37.0417 31.0383 37.645 30.435 38.435 30.435ZM40.96 33.2167C40.295 33.3417 39.8167 33.93 39.8283 34.6083V40.1733C39.8283 40.94 40.4533 41.565 41.22 41.565H60.7233C61.4917 41.565 62.1167 40.94 62.1167 40.1733V34.6083C62.1167 33.8417 61.4917 33.2167 60.7233 33.2167H41.22C41.1767 33.2167 41.1333 33.2167 41.09 33.2167C41.0467 33.2167 41.0033 33.2167 40.96 33.2167ZM42.6133 36H59.3317V38.7833H42.6133V36ZM41.22 44.3483C40.4533 44.3483 39.8283 44.9733 39.8283 45.7383V47.13C39.8283 47.8967 40.4533 48.5217 41.22 48.5217H44.0067C44.775 48.5217 45.4 47.8967 45.4 47.13V45.7383C45.4 44.9733 44.775 44.3483 44.0067 44.3483H41.22ZM49.58 44.3483C48.8117 44.3483 48.1867 44.9733 48.1867 45.7383V47.13C48.1867 47.8967 48.8117 48.5217 49.58 48.5217H52.365C53.1333 48.5217 53.7583 47.8967 53.7583 47.13V45.7383C53.7583 44.9733 53.1333 44.3483 52.365 44.3483H49.58ZM57.9383 44.3483C57.17 44.3483 56.545 44.9733 56.545 45.7383V47.13C56.545 47.8967 57.17 48.5217 57.9383 48.5217H60.7233C61.4917 48.5217 62.1167 47.8967 62.1167 47.13V45.7383C62.1167 44.9733 61.4917 44.3483 60.7233 44.3483H57.9383ZM41.22 51.305C40.4533 51.305 39.8283 51.93 39.8283 52.695V54.0867C39.8283 54.8533 40.4533 55.4783 41.22 55.4783H44.0067C44.775 55.4783 45.4 54.8533 45.4 54.0867V52.695C45.4 51.93 44.775 51.305 44.0067 51.305H41.22ZM49.58 51.305C48.8117 51.305 48.1867 51.93 48.1867 52.695V54.0867C48.1867 54.8533 48.8117 55.4783 49.58 55.4783H52.365C53.1333 55.4783 53.7583 54.8533 53.7583 54.0867V52.695C53.7583 51.93 53.1333 51.305 52.365 51.305H49.58ZM57.9383 51.305C57.17 51.305 56.545 51.93 56.545 52.695V54.0867C56.545 54.8533 57.17 55.4783 57.9383 55.4783H60.7233C61.4917 55.4783 62.1167 54.8533 62.1167 54.0867V52.695C62.1167 51.93 61.4917 51.305 60.7233 51.305H57.9383ZM41.22 58.2617C40.4533 58.2617 39.8283 58.8867 39.8283 59.6517V61.0433C39.8283 61.81 40.4533 62.435 41.22 62.435H44.0067C44.775 62.435 45.4 61.81 45.4 61.0433V59.6517C45.4 58.8867 44.775 58.2617 44.0067 58.2617H41.22ZM49.58 58.2617C48.8117 58.2617 48.1867 58.8867 48.1867 59.6517V61.0433C48.1867 61.81 48.8117 62.435 49.58 62.435H52.365C53.1333 62.435 53.7583 61.81 53.7583 61.0433V59.6517C53.7583 58.8867 53.1333 58.2617 52.365 58.2617H49.58ZM57.9383 58.2617C57.17 58.2617 56.545 58.8867 56.545 59.6517V61.0433C56.545 61.81 57.17 62.435 57.9383 62.435H60.7233C61.4917 62.435 62.1167 61.81 62.1167 61.0433V59.6517C62.1167 58.8867 61.4917 58.2617 60.7233 58.2617H57.9383Z" fill="#0B2D1F"/>
<path d="M42.6133 36H59.3317V38.7833H42.6133V36Z" fill="#22885E"/>
<path fill-rule="evenodd" clip-rule="evenodd" d="M38.435 30.435H63.51C64.2983 30.435 64.9033 31.0383 64.9033 31.8267V63.8267C64.9033 64.6133 64.2983 65.2167 63.51 65.2167H38.435C37.645 65.2167 37.0417 64.6133 37.0417 63.8267V62.695C37.08 62.5117 37.08 62.315 37.0417 62.13V31.8267C37.0417 31.0383 37.645 30.435 38.435 30.435ZM39.8283 34.6083C39.8167 33.93 40.295 33.3417 40.96 33.2167H41.09H41.22H60.7233C61.4917 33.2167 62.1167 33.8417 62.1167 34.6083V40.1733C62.1167 40.94 61.4917 41.565 60.7233 41.565H41.22C40.4533 41.565 39.8283 40.94 39.8283 40.1733V34.6083ZM39.8283 45.7383C39.8283 44.9733 40.4533 44.3483 41.22 44.3483H44.0067C44.775 44.3483 45.4 44.9733 45.4 45.7383V47.13C45.4 47.8967 44.775 48.5217 44.0067 48.5217H41.22C40.4533 48.5217 39.8283 47.8967 39.8283 47.13V45.7383ZM48.1867 45.7383C48.1867 44.9733 48.8117 44.3483 49.58 44.3483H52.365C53.1333 44.3483 53.7583 44.9733 53.7583 45.7383V47.13C53.7583 47.8967 53.1333 48.5217 52.365 48.5217H49.58C48.8117 48.5217 48.1867 47.8967 48.1867 47.13V45.7383ZM56.545 45.7383C56.545 44.9733 57.17 44.3483 57.9383 44.3483H60.7233C61.4917 44.3483 62.1167 44.9733 62.1167 45.7383V47.13C62.1167 47.8967 61.4917 48.5217 60.7233 48.5217H57.9383C57.17 48.5217 56.545 47.8967 56.545 47.13V45.7383ZM39.8283 52.695C39.8283 51.93 40.4533 51.305 41.22 51.305H44.0067C44.775 51.305 45.4 51.93 45.4 52.695V54.0867C45.4 54.8533 44.775 55.4783 44.0067 55.4783H41.22C40.4533 55.4783 39.8283 54.8533 39.8283 54.0867V52.695ZM48.1867 52.695C48.1867 51.93 48.8117 51.305 49.58 51.305H52.365C53.1333 51.305 53.7583 51.93 53.7583 52.695V54.0867C53.7583 54.8533 53.1333 55.4783 52.365 55.4783H49.58C48.8117 55.4783 48.1867 54.8533 48.1867 54.0867V52.695ZM56.545 52.695C56.545 51.93 57.17 51.305 57.9383 51.305H60.7233C61.4917 51.305 62.1167 51.93 62.1167 52.695V54.0867C62.1167 54.8533 61.4917 55.4783 60.7233 55.4783H57.9383C57.17 55.4783 56.545 54.8533 56.545 54.0867V52.695ZM39.8283 59.6517C39.8283 58.8867 40.4533 58.2617 41.22 58.2617H44.0067C44.775 58.2617 45.4 58.8867 45.4 59.6517V61.0433C45.4 61.81 44.775 62.435 44.0067 62.435H41.22C40.4533 62.435 39.8283 61.81 39.8283 61.0433V59.6517ZM48.1867 59.6517C48.1867 58.8867 48.8117 58.2617 49.58 58.2617H52.365C53.1333 58.2617 53.7583 58.8867 53.7583 59.6517V61.0433C53.7583 61.81 53.1333 62.435 52.365 62.435H49.58C48.8117 62.435 48.1867 61.81 48.1867 61.0433V59.6517ZM56.545 59.6517C56.545 58.8867 57.17 58.2617 57.9383 58.2617H60.7233C61.4917 58.2617 62.1167 58.8867 62.1167 59.6517V61.0433C62.1167 61.81 61.4917 62.435 60.7233 62.435H57.9383C57.17 62.435 56.545 61.81 56.545 61.0433V59.6517Z" fill="#62C89E"/>
<path d="M18.9317 9.565H24.765C25.3467 11.1733 26.8817 12.3483 28.6833 12.3483C30.485 12.3483 32.0183 11.1733 32.6017 9.565H38.435V13.7383C38.435 14.5267 37.83 15.13 37.0417 15.13H20.325C19.535 15.13 18.9317 14.5267 18.9317 13.7383V9.565Z" fill="#22885E"/>
<path d="M28.6833 6.78333C29.38 6.78333 29.9133 7.26167 30.0333 7.91333C30 8.08667 30 8.26167 30.0333 8.435C29.9133 9.08667 29.38 9.565 28.6833 9.565C27.9433 9.565 27.355 9.02667 27.29 8.305V8.17333C27.29 7.39167 27.9 6.78333 28.6833 6.78333Z" fill="#62C89E"/>
</g>
</g>
<path id="Vector_2" d="M22.5131 55.2675C22.4627 56.6276 22.0093 57.2518 21.0854 57.2776C20.1209 57.3046 19.638 56.6976 19.5225 55.27C18.6133 55.0021 17.8442 54.4627 17.1451 53.8066C16.4669 53.169 16.3846 52.2684 16.9571 51.6381C17.5223 51.0151 18.445 51.0016 19.1294 51.6344C19.6995 52.1602 20.2954 52.5583 21.1272 52.503C22.1728 52.433 23.0205 51.7363 23.0414 50.8701C23.0635 49.9843 22.2244 49.2692 21.1542 49.1549C20.401 49.0751 19.6196 48.9805 18.9205 48.7102C17.1046 48.0062 15.9988 46.3475 16 44.5217C16.0012 42.6984 17.1574 41.0409 18.9856 40.3246C19.3849 40.1686 19.5029 39.9867 19.4857 39.5653C19.4464 38.6623 20.0767 38.0037 20.9183 37.9853C21.7698 37.9668 22.4087 38.5799 22.4074 39.5014C22.4062 39.988 22.5536 40.2165 23.0304 40.3775C23.9408 40.6858 24.7566 41.1847 25.3218 41.998C25.6904 42.5301 25.6904 43.0928 25.355 43.642C25.0417 44.1531 24.447 44.4345 23.8449 44.2661C23.5132 44.1728 23.1827 43.9491 22.9394 43.6997C22.2502 42.9908 20.8864 42.6701 20.003 43.0805C19.3923 43.3643 18.9647 43.8079 18.9549 44.5205C18.9451 45.2564 19.3751 45.7393 20.0128 45.9924C20.3998 46.146 20.8446 46.1804 21.2672 46.2172C23.2355 46.3917 24.7628 47.2591 25.6081 49.0861C26.6414 51.3211 25.5601 53.9049 23.2036 54.9775C22.9812 55.0771 22.7527 55.1667 22.5131 55.2675Z" fill="#0B2D1F"/>
</g>
</svg>
