<svg width="72" height="72" viewBox="0 0 72 72" fill="none" xmlns="http://www.w3.org/2000/svg">
<g id="profit-and-loss">
<g id="Group">
<g id="Vector">
<path d="M11.6165 18.9996C9.7299 18.9996 7.93995 18.9996 6 18.9996C9.7749 13.9647 13.4831 9.01987 17.248 4C21.0029 9.00654 24.7062 13.9431 28.4844 18.9813C26.5628 18.9813 24.7478 18.9813 22.9012 18.9813C22.9012 21.1062 22.9012 23.1578 22.9012 25.2094C22.9479 25.2561 22.9946 25.3028 23.0412 25.3511C23.1312 25.1961 23.1962 25.0195 23.3145 24.8911C26.6711 21.1679 30.851 19.2146 35.8692 19.1346C38.4725 19.0929 41.0774 19.1096 43.6807 19.1313C52.8104 19.2096 60.2769 26.6527 60.3502 35.7875C60.3936 41.204 60.3602 46.6206 60.3619 52.0371C60.3619 52.2854 60.3619 52.5321 60.3619 52.8421C62.1985 52.8421 63.9985 52.8421 65.9834 52.8421C62.1935 57.9536 58.4986 62.9351 54.7437 68C50.9988 62.9518 47.3006 57.9653 43.524 52.8721C45.4556 52.8721 47.2539 52.8721 49.0805 52.8721C49.0805 50.7988 49.0805 48.7905 49.0805 46.9005C48.6022 47.3272 48.0589 47.7955 47.5322 48.2838C44.3757 51.2071 40.6441 52.7737 36.3475 52.8471C33.1426 52.9021 29.9227 52.9604 26.7311 52.7321C19.398 52.2054 12.9632 46.0939 11.8715 38.7908C11.7115 37.7241 11.6349 36.6358 11.6299 35.5575C11.6049 30.3076 11.6182 25.0578 11.6182 19.8079C11.6165 19.5596 11.6165 19.3129 11.6165 18.9996ZM37.8875 48.9238C43.1274 48.3905 49.0855 43.5056 49.1055 36.0258C49.1255 28.6127 43.2507 23.6212 37.8642 23.0578C37.8642 24.2678 37.8525 25.4728 37.8808 26.6761C37.8842 26.8177 38.0908 26.9811 38.2375 27.0877C38.8525 27.5411 39.5525 27.9027 40.0891 28.4327C41.1157 29.4477 41.5941 30.7293 41.6024 32.2076C40.3258 32.2076 39.1075 32.2076 37.9042 32.2076C37.8525 32.0109 37.8208 31.8476 37.7675 31.6909C37.4708 30.801 36.6275 30.2593 35.7426 30.3843C34.8559 30.5093 34.1526 31.286 34.1159 32.1776C34.0793 33.0826 34.7509 33.9109 35.6759 34.0875C35.8792 34.1259 36.0909 34.1175 36.2975 34.1275C39.6475 34.2825 42.1507 37.4641 41.5091 40.7607C41.1008 42.8557 39.8291 44.234 37.8842 45.0573C37.8875 46.3465 37.8875 47.6324 37.8875 48.9216V48.9238ZM30.421 39.7757C31.6377 39.7757 32.856 39.7757 34.0693 39.7757C34.1209 39.9557 34.1609 40.1174 34.2126 40.2757C34.4809 41.1024 35.2142 41.639 36.0392 41.6157C36.8659 41.5924 37.5892 41.0107 37.8092 40.1907C38.1192 39.0274 37.2425 37.9241 35.9492 37.8708C33.9609 37.7891 32.376 36.9575 31.281 35.2909C29.4027 32.4343 30.5094 28.6427 33.6243 27.1394C33.8076 27.0511 34.0859 26.8827 34.0893 26.7444C34.1259 25.5094 34.1109 24.2745 34.1109 23.0278C27.3844 23.9745 22.3862 30.1493 22.8896 36.7841C23.3645 43.0473 28.8261 48.9622 34.1159 48.8938C34.1159 47.8555 34.0826 46.8139 34.1293 45.7772C34.1526 45.2489 33.9993 44.9856 33.5026 44.7523C31.5677 43.8406 30.256 41.6857 30.421 39.7757ZM50.9705 56.617C52.2705 58.3686 53.4888 60.0085 54.7437 61.7002C56.0154 59.9835 57.2287 58.3452 58.537 56.577C57.777 56.577 57.2053 56.577 56.6103 56.577C56.6103 56.2636 56.6103 56.0153 56.6103 55.7653C56.6087 49.0988 56.6453 42.4323 56.5937 35.7658C56.5637 31.8926 54.9837 28.6694 52.0971 26.0994C50.7488 24.8978 49.2005 24.0295 47.3339 23.4528C47.5056 23.6495 47.5772 23.7428 47.6606 23.8245C51.1538 27.2561 52.8721 31.4209 52.8638 36.3158C52.8521 42.8357 52.8604 49.3572 52.8604 55.877C52.8604 56.1153 52.8604 56.3536 52.8604 56.6153C52.4855 56.6153 52.2155 56.6153 51.9455 56.6153C51.6645 56.617 51.3834 56.617 50.9733 56.617H50.9705ZM24.6512 48.5305C24.5045 48.3505 24.4695 48.2988 24.4245 48.2555C20.8346 44.7839 19.1013 40.5424 19.1113 35.5575C19.1247 29.0377 19.1147 22.5178 19.1147 15.998C19.1147 15.758 19.1147 15.518 19.1147 15.2297C19.7613 15.2297 20.313 15.2297 20.9829 15.2297C19.7063 13.5281 18.4963 11.9165 17.2447 10.2482C15.9714 11.9481 14.7681 13.5531 13.4765 15.2764C14.2031 15.2764 14.7731 15.2764 15.3648 15.2764C15.3648 15.5947 15.3648 15.843 15.3648 16.093C15.3648 22.7178 15.3481 29.341 15.3714 35.9658C15.3848 39.6157 16.7081 42.749 19.293 45.3289C20.7729 46.8089 22.5196 47.8589 24.6512 48.5305Z" fill="#4D0000"/>
<path d="M37.8875 48.9238C43.1274 48.3905 49.0855 43.5056 49.1055 36.0258C49.1255 28.6127 43.2507 23.6212 37.8642 23.0578C37.8642 24.2678 37.8525 25.4728 37.8808 26.6761C37.8842 26.8177 38.0908 26.9811 38.2375 27.0877C38.8525 27.5411 39.5525 27.9027 40.0891 28.4327C41.1157 29.4477 41.5941 30.7293 41.6024 32.2076H37.9042C37.8525 32.0109 37.8208 31.8476 37.7675 31.6909C37.4708 30.801 36.6275 30.2593 35.7426 30.3843C34.8559 30.5093 34.1526 31.286 34.1159 32.1776C34.0793 33.0826 34.7509 33.9109 35.6759 34.0875C35.8792 34.1259 36.0909 34.1175 36.2975 34.1275C39.6475 34.2825 42.1507 37.4641 41.5091 40.7607C41.1008 42.8557 39.8291 44.234 37.8842 45.0573C37.8875 46.3465 37.8875 47.6324 37.8875 48.9216V48.9238Z" fill="#E60000"/>
<path d="M30.421 39.7757H34.0693C34.1209 39.9557 34.1609 40.1174 34.2126 40.2757C34.4809 41.1024 35.2142 41.639 36.0392 41.6157C36.8659 41.5924 37.5892 41.0107 37.8092 40.1907C38.1192 39.0274 37.2425 37.9241 35.9492 37.8708C33.9609 37.7891 32.376 36.9575 31.281 35.2909C29.4027 32.4343 30.5094 28.6427 33.6243 27.1394C33.8076 27.0511 34.0859 26.8827 34.0893 26.7444C34.1259 25.5094 34.1109 24.2745 34.1109 23.0278C27.3844 23.9745 22.3862 30.1493 22.8896 36.7841C23.3645 43.0473 28.8261 48.9622 34.1159 48.8938C34.1159 47.8555 34.0826 46.8139 34.1293 45.7772C34.1526 45.2489 33.9993 44.9856 33.5026 44.7523C31.5677 43.8406 30.256 41.6857 30.421 39.7757Z" fill="#E60000"/>
</g>
</g>
</g>
</svg>
