<svg width="72" height="72" viewBox="0 0 72 72" fill="none" xmlns="http://www.w3.org/2000/svg">
<g id="recurring-journal-entries">
<g id="Group 1171275102">
<g id="Vector">
<path d="M16.7907 10.3905C16.7907 9.29831 16.7847 8.32615 16.7927 7.35398C16.8087 5.44966 18.1189 4.05342 19.9132 4.01941C21.7635 3.98541 23.1397 5.33364 23.1978 7.27197C23.2278 8.26814 23.2038 9.26631 23.2038 10.3265C31.7312 10.3265 40.2106 10.3265 48.7881 10.3265C48.7881 9.27631 48.7601 8.23213 48.7941 7.19395C48.8441 5.73771 49.6723 4.62152 50.9725 4.17944C52.1887 3.76537 53.6029 4.06542 54.3611 5.1056C54.7911 5.6957 55.0652 6.48183 55.1632 7.21396C55.2972 8.21813 55.1972 9.2523 55.1972 10.3905C56.1534 10.3905 57.0715 10.3265 57.9777 10.4065C59.1399 10.5105 60.3381 10.5825 61.4363 10.9306C65.2889 12.1528 67.8614 15.6814 67.9794 19.7141C67.9854 19.8881 67.9874 20.0641 67.9874 20.2382C67.9874 32.8863 67.9954 45.5365 67.9834 58.1846C67.9794 62.8574 65.1029 66.6261 60.7101 67.7043C59.872 67.9103 58.9818 67.9843 58.1137 67.9863C43.3652 68.0023 28.6167 68.0023 13.8682 67.9963C8.8293 67.9943 4.96264 64.7778 4.1125 59.8969C4.01048 59.3108 4.00648 58.7027 4.00648 58.1046C4.00048 45.5065 3.99648 32.9063 4.00448 20.3082C4.00848 14.5292 8.15319 10.4045 13.9402 10.3905C14.8603 10.3885 15.7805 10.3905 16.7907 10.3905ZM61.6103 29.6458C44.4814 29.6458 27.4705 29.6458 10.3756 29.6458C10.3756 29.9898 10.3756 30.2839 10.3756 30.5799C10.3756 39.6555 10.3756 48.733 10.3756 57.8086C10.3756 60.395 11.6018 61.6232 14.1882 61.6232C28.7147 61.6232 43.2432 61.6232 57.7696 61.6232C60.4021 61.6232 61.6083 60.409 61.6083 57.7606C61.6083 48.709 61.6083 39.6575 61.6083 30.6059C61.6103 30.3099 61.6103 30.0138 61.6103 29.6458ZM61.6103 23.1747C61.6103 22.2425 61.6103 21.3964 61.6103 20.5482C61.6063 18.0478 60.3721 16.8036 57.8937 16.8036C43.2972 16.8036 28.7007 16.8036 14.1042 16.8036C13.8542 16.8036 13.6041 16.7956 13.3541 16.8136C11.9998 16.9076 10.6936 17.8798 10.5296 19.198C10.3676 20.4902 10.4936 21.8184 10.4936 23.1727C27.4683 23.1747 44.461 23.1747 61.5614 23.1747C61.5777 23.1747 61.594 23.1747 61.6103 23.1747Z" fill="#0D313B"/>
<path d="M61.6103 23.1747V20.5482C61.6063 18.0478 60.3721 16.8036 57.8937 16.8036H14.1042C13.8542 16.8036 13.6041 16.7956 13.3541 16.8136C11.9998 16.9076 10.6936 17.8798 10.5296 19.198C10.3676 20.4902 10.4936 21.8184 10.4936 23.1727C27.4683 23.1747 44.461 23.1747 61.5614 23.1747H61.6103Z" fill="#2894B4"/>
</g>
<path id="Vector_2" d="M25.3635 34.2384C25.0572 34.3673 23.9449 35.3184 22.9132 36.3501L21.0271 38.2201L20.3662 37.6236C19.9954 37.3012 19.5279 36.9627 19.3023 36.8821C17.3195 36.1244 15.3367 38.2684 16.2716 40.1545C16.6263 40.8638 19.1894 43.4431 19.9148 43.83C20.6725 44.2168 21.3495 44.2168 22.1072 43.83C22.4296 43.6526 23.9771 42.234 25.5408 40.6381C27.8138 38.349 28.4263 37.6398 28.5714 37.1239C28.91 35.8988 28.1523 34.4641 27.0078 34.1416C26.234 33.9321 26.0405 33.9482 25.3635 34.2384Z" fill="#0D313B"/>
<path id="Vector_3" d="M33.1976 35.9786C31.7306 36.9619 31.7629 38.8963 33.2782 40.0248C33.7134 40.3633 33.8746 40.3633 44.2561 40.3633C54.6376 40.3633 54.7988 40.3633 55.234 40.0248C56.7494 38.8963 56.7816 36.9619 55.3146 35.9786L54.7666 35.6078H44.2561H33.7457L33.1976 35.9786Z" fill="#0D313B"/>
<path id="Vector_4" d="M26.0893 47.9246C26.0087 47.9569 25.7186 48.0213 25.4606 48.0858C25.1544 48.1503 24.2839 48.8757 23.0104 50.1331L21.0276 52.0837L20.4311 51.5517C19.7702 50.9714 18.948 50.5845 18.3999 50.5845C17.7229 50.5845 16.7396 51.197 16.3688 51.858C15.6111 53.2121 15.9335 54.002 18.1581 56.1943C19.9314 57.9353 20.3666 58.161 21.624 57.9192C22.1237 57.8225 22.688 57.3389 25.1705 54.8886C26.7986 53.2766 28.2495 51.729 28.3784 51.4711C28.9426 50.4072 28.5396 48.8757 27.5402 48.3115C27.0243 48.0213 26.3473 47.844 26.0893 47.9246Z" fill="#0D313B"/>
<path id="Vector_5" d="M33.4395 49.6968C32.6496 50.0514 32.166 50.8574 32.166 51.8408C32.166 52.7435 32.4562 53.2916 33.2783 53.888C33.7136 54.2266 33.8748 54.2266 44.2562 54.2266C54.6377 54.2266 54.7989 54.2266 55.2342 53.888C56.0563 53.2916 56.3465 52.7435 56.3465 51.8408C56.3465 50.8413 55.8629 50.0353 55.0407 49.6968C54.267 49.3744 34.1811 49.3744 33.4395 49.6968Z" fill="#0D313B"/>
</g>
</g>
</svg>
