<svg width="72" height="72" viewBox="0 0 72 72" fill="none" xmlns="http://www.w3.org/2000/svg">
<g id="trial-balance">
<g id="Group">
<g id="Vector">
<path d="M60.3884 60.5702C44.1324 60.5702 27.8765 60.5702 11.6205 60.5702C11.6205 44.3142 11.6205 28.0582 11.6205 11.8022C27.8663 11.8022 44.1121 11.8022 60.3884 11.8022C60.3884 28.1001 60.3884 44.3358 60.3884 60.5702ZM57.4966 26.1939C43.1507 26.1939 28.8328 26.1939 14.5199 26.1939C14.5199 36.7158 14.5199 47.1958 14.5199 57.6771C28.8645 57.6771 43.1723 57.6771 57.4966 57.6771C57.4966 47.1666 57.4966 36.6853 57.4966 26.1939ZM48.8721 23.2462C48.8721 20.376 48.8721 17.5325 48.8721 14.6978C37.3926 14.6978 25.9575 14.6978 14.5148 14.6978C14.5148 17.563 14.5148 20.3963 14.5148 23.2462C25.9829 23.2462 37.4205 23.2462 48.8721 23.2462ZM57.4852 23.2449C57.4852 20.3735 57.4852 17.5312 57.4852 14.6902C55.5789 14.6902 53.712 14.6902 51.8312 14.6902C51.8312 17.5591 51.8312 20.4014 51.8312 23.2449C53.7387 23.2449 55.6043 23.2449 57.4852 23.2449Z" fill="#4D0000"/>
<path d="M48.8721 23.2462V14.6978H14.5148V23.2462H48.8721Z" fill="#FF8080"/>
<path d="M57.4852 23.2449V14.6902H51.8312V23.2449H57.4852Z" fill="#E60000"/>
</g>
<path id="Vector_2" d="M53.2091 31.8885C53.2091 32.8702 53.2091 33.7706 53.2091 34.7358C52.0064 34.7358 50.8126 34.7358 49.5718 34.7358C49.6404 34.9555 49.6798 35.1066 49.7344 35.2527C50.6894 37.8054 51.6534 40.3543 52.597 42.912C52.7214 43.2486 52.8802 43.3857 53.2459 43.3565C53.6866 43.321 54.1324 43.3476 54.5667 43.3476C55.1992 45.3911 53.9432 48.8455 52.0306 50.3707C49.7179 52.216 46.2978 52.4472 43.7133 50.9105C41.0489 49.3255 40.0557 46.3982 40.3567 43.3476C40.852 43.3476 41.3562 43.3667 41.8566 43.3362C42.0039 43.3273 42.2274 43.2067 42.2744 43.0835C43.3082 40.3746 44.3217 37.6568 45.3364 34.9415C45.3516 34.8996 45.344 34.8488 45.3491 34.7561C44.3775 34.7561 43.4136 34.7561 42.4497 34.7561C41.7677 34.7561 41.0832 34.7383 40.4025 34.7688C40.245 34.7764 40.0164 34.9072 39.9516 35.0444C39.469 36.0642 38.7286 36.8033 37.7037 37.2745C37.5831 37.3304 37.4484 37.5171 37.4472 37.6441C37.4357 42.3583 37.4383 47.0725 37.4408 51.7881C37.4408 51.8325 37.4637 51.8757 37.4865 51.9608C38.3971 51.9608 39.3115 51.9608 40.2628 51.9608C40.2628 52.9272 40.2628 53.8531 40.2628 54.8094C37.4243 54.8094 34.5935 54.8094 31.7347 54.8094C31.7347 53.8759 31.7347 52.9615 31.7347 51.9874C32.6631 51.9874 33.5889 51.9874 34.5452 51.9874C34.5567 51.7754 34.5706 51.6217 34.5706 51.468C34.5719 46.9278 34.5668 42.3888 34.5795 37.8486C34.5808 37.498 34.483 37.3329 34.1528 37.1831C33.2105 36.7551 32.5348 36.0363 32.084 35.099C32.0167 34.958 31.8427 34.7713 31.7157 34.7701C30.0355 34.7485 28.354 34.7548 26.6255 34.7548C26.6852 34.9466 26.7246 35.0952 26.7792 35.24C27.7342 37.7927 28.7007 40.3403 29.6392 42.8993C29.7738 43.2651 29.9542 43.3845 30.3276 43.3553C30.7657 43.3222 31.2077 43.3476 31.6877 43.3476C31.8414 46.2902 31.242 48.9077 28.6969 50.6273C26.1251 52.3646 23.3667 52.4332 20.706 50.8483C17.9082 49.182 17.2174 46.4668 17.366 43.3476C17.8892 43.3476 18.3921 43.3705 18.8912 43.3337C19.0487 43.3222 19.2798 43.1851 19.3319 43.0492C20.3581 40.3708 21.3626 37.6847 22.3697 34.9999C22.3913 34.9428 22.3939 34.878 22.4142 34.7675C21.2115 34.7675 20.0317 34.7675 18.8176 34.7675C18.8176 33.7947 18.8176 32.8702 18.8176 31.8897C19.0208 31.8897 19.2075 31.8897 19.3929 31.8897C23.4251 31.8897 27.4574 31.8859 31.4883 31.8973C31.8185 31.8986 31.9735 31.7996 32.1221 31.4922C32.9018 29.8844 34.2163 29.0538 35.9956 29.0513C37.7748 29.0487 39.0944 29.873 39.8767 31.4795C40.0354 31.8059 40.2043 31.8999 40.551 31.8986C44.5668 31.8859 48.5825 31.891 52.5995 31.891C52.7887 31.8885 52.9754 31.8885 53.2091 31.8885ZM20.527 46.2407C20.9766 47.8955 22.8308 49.1592 24.6418 49.0893C26.4617 49.0182 28.2422 47.7139 28.5051 46.2407C25.8572 46.2407 23.2118 46.2407 20.527 46.2407ZM51.4641 46.2483C48.8035 46.2483 46.1505 46.2483 43.4898 46.2483C43.8568 47.8117 45.6679 49.0944 47.4776 49.0944C49.2899 49.0944 51.1162 47.8028 51.4641 46.2483ZM26.7512 43.3299C26.0045 41.3398 25.2844 39.4195 24.5287 37.4028C23.7693 39.431 23.0479 41.3601 22.3113 43.3299C23.8239 43.3299 25.2476 43.3299 26.7512 43.3299ZM47.4789 37.4015C46.7143 39.4424 45.9943 41.3652 45.2615 43.3235C46.7601 43.3235 48.1964 43.3235 49.6976 43.3235C48.9622 41.3601 48.2422 39.4373 47.4789 37.4015ZM36.0006 31.8973C35.198 31.8986 34.5859 32.5057 34.5757 33.3096C34.5668 34.0792 35.212 34.7409 35.9854 34.7523C36.7563 34.7637 37.4243 34.116 37.4332 33.3477C37.4434 32.5234 36.8236 31.8961 36.0006 31.8973Z" fill="#4D0000"/>
<path id="Vector_3" d="M23.1178 20.372C23.1178 19.4284 23.1178 18.5166 23.1178 17.5679C24.0576 17.5679 24.9783 17.5679 25.9359 17.5679C25.9359 18.4962 25.9359 19.4208 25.9359 20.372C25.0037 20.372 24.0919 20.372 23.1178 20.372Z" fill="#4D0000"/>
<path id="Vector_4" d="M17.3799 17.5581C18.3172 17.5581 19.2265 17.5581 20.1777 17.5581C20.1777 18.4877 20.1777 19.4085 20.1777 20.3661C19.2557 20.3661 18.3337 20.3661 17.3799 20.3661C17.3799 19.4428 17.3799 18.5309 17.3799 17.5581Z" fill="#4D0000"/>
<path id="Vector_5" d="M31.6826 17.5679C31.6826 18.5204 31.6826 19.4322 31.6826 20.372C30.7454 20.372 29.8335 20.372 28.881 20.372C28.881 19.4525 28.881 18.528 28.881 17.5679C29.7967 17.5679 30.72 17.5679 31.6826 17.5679Z" fill="#4D0000"/>
</g>
</g>
</svg>
