<svg width="72" height="72" viewBox="0 0 72 72" fill="none" xmlns="http://www.w3.org/2000/svg">
<g id="bank-transfer">
<g id="Group 1171275122">
<g id="Group 1171275121">
<g id="Group">
<g id="Vector">
<path d="M6.59612 52.0729L14.6673 45.1062V52.0024C14.6673 54.9439 17.059 57.3356 20.0005 57.3356H51.9995C54.941 57.3356 57.3327 54.9439 57.3327 52.0024V45.6024H59.4663C60.0538 45.6024 60.5332 46.0808 60.5332 46.6683V59.4683C60.5332 60.0558 60.0538 60.5351 59.4663 60.5351H23.2C22.6125 60.5351 22.1332 61.0145 22.1332 61.602V64.5355C22.1332 65.0644 21.8414 65.514 21.3502 65.7393C20.846 65.9725 20.2962 65.8931 19.8755 65.5309L6.59612 54.0647C6.30039 53.8066 6.13366 53.4523 6.13366 53.0683C6.13366 52.6852 6.30039 52.3309 6.59612 52.0729ZM55.2 20.0024V52.0024C55.2 53.7689 53.766 55.202 51.9995 55.202H20.0005C18.234 55.202 16.8 53.7689 16.8 52.0024V20.0024C16.8 18.236 18.234 16.8029 20.0005 16.8029H51.9995C53.766 16.8029 55.2 18.236 55.2 20.0024ZM12.5337 26.4024C11.9462 26.4024 11.4668 25.9231 11.4668 25.3356V12.5356C11.4668 11.9481 11.9462 11.4698 12.5337 11.4698H48.8C49.3875 11.4698 49.8668 10.9904 49.8668 10.4029V7.46941C49.8668 6.94046 50.1586 6.48991 50.6498 6.26562C51.154 6.03638 51.7038 6.11081 52.1245 6.47403L65.4039 17.9402C65.6996 18.1983 65.8663 18.5525 65.8663 18.9356C65.8663 19.3197 65.6996 19.673 65.4039 19.932L57.3327 26.8986V20.0024C57.3327 17.061 54.941 14.6693 51.9995 14.6693H20.0005C17.059 14.6693 14.6673 17.061 14.6673 20.0024V26.4024H12.5337ZM18.4831 67.1475C19.1381 67.7102 19.9419 68.0059 20.7627 68.0059C21.2589 68.0059 21.763 67.8977 22.2374 67.6764C23.4918 67.1058 24.2668 65.902 24.2668 64.5355V62.6688H59.4663C61.2328 62.6688 62.6658 61.2348 62.6658 59.4683V46.6683C62.6658 44.9018 61.2328 43.4688 59.4663 43.4688H57.3327V29.7151L66.7992 21.5446C67.5624 20.8857 68 19.932 68 18.9356C68 17.9402 67.5624 16.9855 66.7952 16.3236L53.5169 4.85641C52.4659 3.95233 51.0289 3.74393 49.7626 4.32746C48.5082 4.89809 47.7332 6.10287 47.7332 7.46941V9.33611H12.5337C10.7672 9.33611 9.33416 10.7691 9.33416 12.5356V25.3356C9.33416 27.1021 10.7672 28.5361 12.5337 28.5361H14.6673V42.2898L5.20081 50.4603C4.43765 51.1182 4 52.0729 4 53.0683C4 54.0647 4.43765 55.0184 5.20081 55.6813L18.4831 67.1475Z" fill="#0B2D1F"/>
<path d="M12.5337 26.4024C11.9462 26.4024 11.4668 25.9231 11.4668 25.3356V12.5356C11.4668 11.9481 11.9462 11.4698 12.5337 11.4698H48.8C49.3875 11.4698 49.8668 10.9904 49.8668 10.4029V7.46941C49.8668 6.94046 50.1586 6.48991 50.6498 6.26562C51.154 6.03638 51.7038 6.11081 52.1245 6.47403L65.4039 17.9402C65.6996 18.1983 65.8663 18.5525 65.8663 18.9356C65.8663 19.3197 65.6996 19.673 65.4039 19.932L57.3327 26.8986V20.0024C57.3327 17.061 54.941 14.6693 51.9995 14.6693H20.0005C17.059 14.6693 14.6673 17.061 14.6673 20.0024V26.4024H12.5337Z" fill="#22885E"/>
<path d="M6.59612 52.0729L14.6673 45.1062V52.0024C14.6673 54.9439 17.059 57.3356 20.0005 57.3356H51.9995C54.941 57.3356 57.3327 54.9439 57.3327 52.0024V45.6024H59.4663C60.0538 45.6024 60.5332 46.0808 60.5332 46.6683V59.4683C60.5332 60.0558 60.0538 60.5351 59.4663 60.5351H23.2C22.6125 60.5351 22.1332 61.0145 22.1332 61.602V64.5355C22.1332 65.0644 21.8414 65.514 21.3502 65.7393C20.846 65.9725 20.2962 65.8931 19.8755 65.5309L6.59612 54.0647C6.30039 53.8066 6.13366 53.4523 6.13366 53.0683C6.13366 52.6852 6.30039 52.3309 6.59612 52.0729Z" fill="#22885E"/>
</g>
</g>
<g id="Vector_2">
<path d="M47.7285 33.8692H24.2622V31.7356H47.7285V33.8692ZM48.7953 49.8687H23.1953V48.8019C23.1953 48.2144 23.6747 47.7351 24.2622 47.7351H47.7285C48.316 47.7351 48.7953 48.2144 48.7953 48.8019V49.8687ZM27.4617 45.6024H25.329V36.0019H27.4617V45.6024ZM32.7958 45.6024H29.5953V36.0019H32.7958V45.6024ZM37.0622 45.6024H34.9285V36.0019H37.0622V45.6024ZM42.3953 45.6024H39.1948V36.0019H42.3953V45.6024ZM44.529 45.6024V36.0019H46.6617V45.6024H44.529ZM35.9953 22.1649L49.2538 29.6019H22.7368L35.9953 22.1649ZM51.0114 28.1441L36.9371 20.2485C36.3575 19.923 35.6331 19.923 35.0535 20.2485L20.9793 28.1441C20.2042 28.5728 19.8331 29.4402 20.0583 30.2986C20.2826 31.161 21.0289 31.7356 21.9201 31.7356H22.1285V33.8692C22.1285 34.6522 22.5622 35.336 23.1953 35.7062V45.7979C21.9578 46.2395 21.0627 47.4145 21.0627 48.8019V49.8687C21.0627 51.0438 22.0203 52.0024 23.1953 52.0024H48.7953C49.9703 52.0024 50.928 51.0438 50.928 49.8687V48.8019C50.928 47.4145 50.0328 46.2395 48.7953 45.7979V35.7062C49.4285 35.336 49.8622 34.6522 49.8622 33.8692V31.7356H50.0706C50.9617 31.7356 51.708 31.161 51.9323 30.2986C52.1576 29.4402 51.7864 28.5728 51.0114 28.1441Z" fill="#0B2D1F"/>
<path d="M48.7953 49.8687H23.1953V48.8019C23.1953 48.2144 23.6747 47.7351 24.2622 47.7351H47.7285C48.316 47.7351 48.7953 48.2144 48.7953 48.8019V49.8687Z" fill="#22885E"/>
<path d="M35.9953 22.1649L49.2538 29.6019H22.7368L35.9953 22.1649Z" fill="#22885E"/>
</g>
</g>
<g id="Vector_3">
<mask id="path-3-inside-1_5978_45400" fill="white">
<path d="M36.731 25.9426C36.2924 25.7874 35.8099 25.6018 35.551 25.3978C35.5339 25.3844 35.5021 25.305 35.5241 25.1865C35.5351 25.1291 35.584 24.9397 35.7672 24.8848C35.9639 24.8249 36.2179 24.9263 36.4317 25.0484C36.7041 25.2048 37.0498 25.1498 37.2635 24.9177C37.5665 24.5892 37.4748 24.0627 37.0779 23.8563C36.9459 23.7879 36.8042 23.7231 36.6552 23.6682C36.6454 23.298 36.3425 23 35.9687 23C35.6206 23 35.3336 23.2602 35.2884 23.5961C34.7155 23.8013 34.2916 24.3058 34.1744 24.9312C34.0596 25.5407 34.2623 26.1331 34.7033 26.4788C35.1174 26.8049 35.7025 27.0358 36.2729 27.2374C36.6137 27.3583 36.6479 27.6026 36.6174 27.7858C36.5832 27.9898 36.4073 28.3379 35.9651 28.3404C35.507 28.3428 35.3983 28.3269 35.0636 28.1071C34.746 27.8994 34.3197 27.9886 34.1121 28.3062C33.9044 28.6237 33.9936 29.0488 34.3112 29.2565C34.6813 29.4983 34.972 29.6168 35.2933 29.6718C35.3507 29.9943 35.6316 30.2386 35.9687 30.2386C36.334 30.2386 36.632 29.9527 36.654 29.5936C37.3319 29.3493 37.8474 28.7581 37.972 28.013C38.1271 27.092 37.6275 26.2589 36.731 25.9426Z"/>
</mask>
<path d="M36.731 25.9426C36.2924 25.7874 35.8099 25.6018 35.551 25.3978C35.5339 25.3844 35.5021 25.305 35.5241 25.1865C35.5351 25.1291 35.584 24.9397 35.7672 24.8848C35.9639 24.8249 36.2179 24.9263 36.4317 25.0484C36.7041 25.2048 37.0498 25.1498 37.2635 24.9177C37.5665 24.5892 37.4748 24.0627 37.0779 23.8563C36.9459 23.7879 36.8042 23.7231 36.6552 23.6682C36.6454 23.298 36.3425 23 35.9687 23C35.6206 23 35.3336 23.2602 35.2884 23.5961C34.7155 23.8013 34.2916 24.3058 34.1744 24.9312C34.0596 25.5407 34.2623 26.1331 34.7033 26.4788C35.1174 26.8049 35.7025 27.0358 36.2729 27.2374C36.6137 27.3583 36.6479 27.6026 36.6174 27.7858C36.5832 27.9898 36.4073 28.3379 35.9651 28.3404C35.507 28.3428 35.3983 28.3269 35.0636 28.1071C34.746 27.8994 34.3197 27.9886 34.1121 28.3062C33.9044 28.6237 33.9936 29.0488 34.3112 29.2565C34.6813 29.4983 34.972 29.6168 35.2933 29.6718C35.3507 29.9943 35.6316 30.2386 35.9687 30.2386C36.334 30.2386 36.632 29.9527 36.654 29.5936C37.3319 29.3493 37.8474 28.7581 37.972 28.013C38.1271 27.092 37.6275 26.2589 36.731 25.9426Z" fill="#0B2D1F" stroke="#0B2D1F" stroke-width="0.732895" mask="url(#path-3-inside-1_5978_45400)"/>
</g>
</g>
</g>
</svg>
