<svg width="72" height="72" viewBox="0 0 72 72" fill="none" xmlns="http://www.w3.org/2000/svg">
<g id="currency">
<g id="Group">
<g id="Vector">
<path d="M21.9016 55.1709C21.5513 55.2266 21.2288 55.3913 20.9805 55.6465L16.2129 60.442C15.5911 61.0615 15.5865 62.08 16.2013 62.7041C16.2059 62.711 16.2129 62.7157 16.2129 62.7157L20.9805 67.5158C21.5977 68.1469 22.6022 68.1654 23.2286 67.546C23.8597 66.9312 23.8759 65.9196 23.2611 65.2886C23.2495 65.2723 23.2333 65.2561 23.217 65.2445L21.1568 63.1936H53.8855C54.7671 63.2052 55.4886 62.4999 55.5002 61.6183C55.5118 60.732 54.8112 60.0105 53.9319 59.9943C53.9203 59.9943 53.9041 59.9943 53.8855 59.9943H21.1568L23.217 57.9202C23.8597 57.317 23.8875 56.3008 23.289 55.6651C22.934 55.2846 22.4143 55.1013 21.9016 55.1709ZM35.4366 25.5905C34.6177 25.6833 34.0029 26.3863 34.0191 27.2169V28.0915C31.6991 28.4836 30.0449 30.5508 30.0449 32.8128C30.0449 35.5388 32.5853 37.6083 35.6106 37.6083C37.3831 37.6083 37.9933 38.3925 37.9933 39.2114C37.9933 40.2392 37.5919 40.8076 36.4064 40.8076H31.6364C30.7571 40.796 30.0402 41.499 30.0286 42.3876C30.017 43.2669 30.7177 43.9953 31.597 44.0046C31.6086 44.0046 31.6202 44.0046 31.6364 44.0046H34.0191V44.8074C34.0075 45.6866 34.7081 46.4151 35.5874 46.4267C36.4621 46.4383 37.1859 45.733 37.1975 44.8514C37.1975 44.8352 37.1975 44.8236 37.1975 44.8074V43.9327C39.5176 43.5337 41.1694 41.4711 41.1694 39.2114C41.1694 36.4831 38.636 34.409 35.6106 34.4159C33.8381 34.4159 33.2303 33.6318 33.2303 32.8128C33.2303 31.7781 33.6247 31.2166 34.8149 31.2166H39.5848C40.4595 31.2282 41.181 30.5229 41.1926 29.6367C41.2089 28.7551 40.5036 28.0289 39.6289 28.0173C39.6127 28.0173 39.5964 28.0173 39.5848 28.0173H37.1975V27.2169C37.2184 26.3353 36.5201 25.6021 35.6454 25.5859C35.5782 25.5859 35.5039 25.5859 35.4366 25.5905ZM45.0996 23.2218H61.0382V48.8001H45.0996C48.9717 45.8815 51.5052 41.2438 51.5052 36.0121C51.5052 30.7781 48.9717 26.1358 45.0996 23.2218ZM35.6106 23.2218C42.6496 23.2218 48.3267 28.9267 48.3267 36.0121C48.3267 43.0975 42.6496 48.8001 35.6106 48.8001C28.567 48.8001 22.8945 43.0975 22.8945 36.0121C22.8945 28.9267 28.567 23.2218 35.6106 23.2218ZM10.1785 23.2218H26.124C22.2449 26.1358 19.7161 30.7781 19.7161 36.0121C19.7161 41.2438 22.2449 45.8815 26.124 48.8001H10.1785V23.2218ZM8.44076 20.0225C7.62179 20.1037 6.99539 20.795 7.00003 21.6187V50.4033C7.00003 51.2849 7.71227 51.9994 8.59157 51.9994H62.6297C63.509 51.9994 64.2212 51.2849 64.2212 50.4033V21.6187C64.2212 20.7394 63.509 20.0225 62.6297 20.0225H8.59157C8.54285 20.0225 8.4918 20.0225 8.44076 20.0225ZM48.9485 4.00731C48.0738 4.09083 47.4358 4.875 47.5193 5.75661C47.5541 6.1371 47.7281 6.48974 47.9996 6.75655L50.0644 8.83065H17.3288C17.2847 8.83065 17.2337 8.83065 17.1826 8.83065C16.3033 8.87009 15.6259 9.61946 15.6653 10.5011C15.7048 11.3873 16.4495 12.0694 17.3288 12.03H50.0644L47.9996 14.0739C47.3685 14.6818 47.3384 15.7003 47.9439 16.3359C48.5518 16.9786 49.5587 16.9995 50.1943 16.3916C50.2059 16.3823 50.2245 16.3638 50.2338 16.3475L55.0038 11.552C55.6302 10.9326 55.6371 9.92107 55.0154 9.29002C55.0154 9.29002 55.0107 9.28538 55.0038 9.27842L50.2338 4.48292C49.902 4.13723 49.4287 3.96091 48.9485 4.00731Z" fill="#0D313B"/>
<path fill-rule="evenodd" clip-rule="evenodd" d="M35.6106 23.2218C42.6496 23.2218 48.3267 28.9267 48.3267 36.0121C48.3267 43.0975 42.6496 48.8001 35.6106 48.8001C28.567 48.8001 22.8945 43.0975 22.8945 36.0121C22.8945 28.9267 28.567 23.2218 35.6106 23.2218ZM34.0191 27.2169C34.0029 26.3863 34.6177 25.6833 35.4366 25.5905C35.5039 25.5859 35.5782 25.5859 35.6454 25.5859C36.5201 25.6021 37.2184 26.3353 37.1975 27.2169V28.0173H39.5848H39.6289C40.5036 28.0289 41.2089 28.7551 41.1926 29.6367C41.181 30.5229 40.4595 31.2282 39.5848 31.2166H34.8149C33.6247 31.2166 33.2303 31.7781 33.2303 32.8128C33.2303 33.6318 33.8381 34.4159 35.6106 34.4159C38.636 34.409 41.1694 36.4831 41.1694 39.2114C41.1694 41.4711 39.5176 43.5337 37.1975 43.9327V44.8074V44.8514C37.1859 45.733 36.4621 46.4383 35.5874 46.4267C34.7081 46.4151 34.0075 45.6866 34.0191 44.8074V44.0046H31.6364H31.597C30.7177 43.9953 30.017 43.2669 30.0286 42.3876C30.0402 41.499 30.7571 40.796 31.6364 40.8076H36.4064C37.5919 40.8076 37.9933 40.2392 37.9933 39.2114C37.9933 38.3925 37.3831 37.6083 35.6106 37.6083C32.5853 37.6083 30.0449 35.5388 30.0449 32.8128C30.0449 30.5508 31.6991 28.4836 34.0191 28.0915V27.2169Z" fill="#2894B4"/>
</g>
</g>
</g>
</svg>
