<svg width="72" height="72" viewBox="0 0 72 72" fill="none" xmlns="http://www.w3.org/2000/svg">
<g id="customer-taxes-to-pay">
<ellipse id="Ellipse 2636" cx="41.5" cy="21" rx="5.5" ry="6" fill="#62C89E"/>
<ellipse id="Ellipse 2635" cx="54.5" cy="49" rx="13.5" ry="14" fill="#62C89E"/>
<g id="Group 1171275150">
<g id="Group 6">
<path id="Vector 85" d="M25.8721 15.6295L24.2358 23.89L19.8723 25.5421L16.0543 23.3393C15.8725 22.0543 15.5089 19.2641 15.5089 18.383C15.5089 17.5019 16.2361 15.4459 16.5997 14.5281L22.054 12.876L25.8721 15.6295Z" fill="#22885E"/>
</g>
<g id="Group 1171275149">
<path id="Subtract" fill-rule="evenodd" clip-rule="evenodd" d="M12.165 19.094C12.165 23.9055 15.7856 27.8172 20.256 27.8172C24.7079 27.8172 28.3286 23.9239 28.3471 19.1307C28.3471 14.411 24.6895 10.5728 20.256 10.5728C15.7671 10.5728 12.165 14.3559 12.165 19.094ZM34.6278 20.5632C34.6278 24.8054 37.7682 28.2396 41.6659 28.2396C45.5452 28.2396 48.704 24.8238 48.704 20.5815C48.7225 16.4862 45.5267 13.0887 41.6659 13.0887C37.7682 13.0887 34.6278 16.4311 34.6278 20.5632ZM24.9666 19.1123C24.9666 22.216 22.8052 24.6034 20.256 24.6034C17.6883 24.6034 15.5455 22.1792 15.5455 19.094C15.5455 16.0822 17.6698 13.7866 20.256 13.7866C22.8237 13.7866 24.9666 16.1189 24.9666 19.1123ZM45.5267 20.5815C45.5267 23.0791 43.7533 25.0625 41.6659 25.0625C39.56 25.0625 37.7866 23.0791 37.7866 20.5632C37.7866 18.1574 39.5231 16.2474 41.6659 16.2474C43.7718 16.2474 45.5267 18.1941 45.5267 20.5815ZM52.7123 34.6483C50.1239 31.9595 46.1483 30.1495 41.6844 30.1495C38.8026 30.1495 35.8839 30.9209 33.5379 32.3533C34.5539 33.0144 35.3298 33.7857 35.9578 34.6856C37.5465 33.8041 39.6154 33.2899 41.6844 33.2899C44.4199 33.2899 46.9578 34.1635 48.8859 35.5233C50.0909 35.0627 51.375 34.7624 52.7123 34.6483ZM40.2639 45.1168C40.5553 44.0111 40.9773 42.9585 41.5124 41.9764H39.0428C39.1721 43.1885 38.4886 44.5291 37.4726 45.1168H40.2639ZM8.7475 45.1168H31.7645C34.9603 45.1168 36.512 44.1067 36.512 41.9397C36.512 36.8894 30.1574 30.1679 20.256 30.1679C10.3546 30.1679 4 36.8894 4 41.9397C4 44.1067 5.55171 45.1168 8.7475 45.1168ZM32.9468 41.4255C32.9468 41.756 32.7805 41.903 32.3557 41.903H8.17484C7.73149 41.903 7.56524 41.756 7.56524 41.4255C7.56524 38.6157 12.128 33.3817 20.256 33.3817C28.384 33.3817 32.9468 38.6157 32.9468 41.4255Z" fill="#0B2D1F"/>
<circle id="Ellipse 2587" cx="54.6016" cy="48.728" r="13.9392" stroke="#0B2D1F" stroke-width="2.67518"/>
</g>
</g>
<g id="Group 1171274965">
<g id="Group">
<path id="Vector" d="M60.7267 41.3638H48.9442L48.3623 42.4547V57.4375H59.7812L59.9994 56.492V55.7646V54.8191V53.1463V51.2553V49.5824V42.6729L60.7267 41.3638Z" fill="#22885E"/>
</g>
<g id="Group_2">
<path id="Vector_2" d="M54.0359 43.9824C53.8904 43.9824 53.8177 44.0552 53.2358 45.5825C52.5812 47.2553 52.5812 47.2553 52.7994 47.4008C52.9449 47.5463 53.0904 47.5463 53.2358 47.4008C53.3086 47.3281 53.3813 47.2553 53.454 47.0372L53.5268 46.7462H54.0359H54.545L54.6177 47.0372C54.7632 47.3281 54.8359 47.4735 55.0541 47.4735C55.1996 47.4735 55.1996 47.4735 55.2723 47.4008C55.3451 47.3281 55.4178 47.2553 55.345 47.1099C55.345 47.0372 54.3268 44.2733 54.2541 44.1279C54.1813 44.0552 54.0359 43.9824 53.9631 43.9824C54.1086 43.9824 54.0359 43.9824 54.0359 43.9824ZM54.3268 46.0189C54.3268 46.0916 54.3268 46.0916 54.1086 46.0916C53.9631 46.0916 53.8904 46.0916 53.8904 46.0916C53.8904 46.0916 53.9631 45.9462 54.0359 45.728L54.1813 45.4371L54.2541 45.728C54.2541 45.8007 54.3268 46.0189 54.3268 46.0189Z" fill="#0B2D1F"/>
</g>
<g id="Group_3">
<path id="Vector_3" d="M50.0339 44.0545C49.8884 44.1273 49.8157 44.4182 49.9611 44.5637C50.0339 44.7091 50.1793 44.7091 50.6157 44.7091H50.9794V46.0183V47.3275L51.1248 47.4729C51.1976 47.5457 51.2703 47.6184 51.343 47.6184C51.4158 47.6184 51.4885 47.6184 51.5612 47.4729L51.7067 47.3275V46.0183V44.7091H52.0703C52.5067 44.7091 52.5795 44.7091 52.7249 44.5637C52.7977 44.4182 52.7249 44.1273 52.6522 44.0545C52.434 43.9818 50.1066 43.9818 50.0339 44.0545Z" fill="#0B2D1F"/>
</g>
<g id="Group_4">
<path id="Vector_4" d="M56.0746 44.0545C56.0019 44.0545 56.0019 44.1273 55.9292 44.2C55.7837 44.3455 55.8564 44.4909 56.1474 45.1455L56.4383 45.8001L56.1474 46.4547C55.8564 46.9638 55.8564 47.1093 55.8564 47.2547C55.8564 47.4729 56.0019 47.6184 56.2201 47.6184C56.4383 47.6184 56.511 47.5457 56.7292 47.1093L56.9474 46.7456L57.1656 47.182C57.3111 47.4002 57.3838 47.6184 57.4565 47.6184C57.602 47.6911 57.8202 47.6911 57.8929 47.5457C58.1111 47.4002 58.0384 47.3275 57.6747 46.6002L57.3838 45.9456L57.6747 45.291C57.8202 44.9273 57.9657 44.6364 57.9657 44.5637C57.9657 44.4182 57.8929 44.2727 57.7475 44.2C57.4565 44.0545 57.3111 44.2 57.0929 44.7091L56.9474 45.0728L56.6565 44.4909C56.511 44.1273 56.4383 44.0545 56.3656 44.0545C56.2201 43.9818 56.1474 43.9818 56.0746 44.0545Z" fill="#0B2D1F"/>
</g>
<g id="Group_5">
<path id="Vector_5" d="M60.3644 57.801H48V42.891C48 42.0182 48.2909 41.5819 48.5819 41.3637C49.0182 41 49.6001 41 49.7456 41H61.3099C61.6735 41 62.0372 41.1455 62.3281 41.4364C62.91 42.091 63.0554 43.3274 62.9827 44.2002V44.5639H60.3644V57.801ZM48.7273 57.0737H59.5643V44.2002C59.5643 43.9093 59.4916 42.6001 60.0007 41.7273H49.6728C49.4546 41.7273 49.2364 41.7273 49.0182 41.8728C48.8728 42.091 48.7273 42.3819 48.7273 42.891V57.0737ZM60.3644 43.8365H62.2554C62.2554 43.1092 62.1099 42.3092 61.7463 41.9455C61.4554 41.6546 61.0917 41.6546 60.8008 41.9455C60.5098 42.3092 60.3644 43.1092 60.3644 43.8365Z" fill="#0B2D1F"/>
</g>
<g id="Group_6">
<path id="Vector_6" d="M51.7827 49.2915C50.8372 49.7279 50.7644 51.037 51.7099 51.5462C52.0009 51.6916 52.51 51.6916 52.8009 51.5462C53.601 51.1098 53.6737 50.0188 52.9464 49.4369C52.7282 49.2915 52.6555 49.2915 52.3645 49.2188C52.0736 49.2188 51.8554 49.2188 51.7827 49.2915Z" fill="#0B2D1F"/>
</g>
<g id="Group_7">
<path id="Vector_7" d="M55.6376 49.2916C55.5649 49.3643 54.6921 50.3098 53.7466 51.5462C51.3465 54.4555 51.4919 54.31 51.4919 54.601C51.4919 54.8192 51.4919 54.8919 51.6374 55.0374C51.7829 55.1828 51.8556 55.1828 52.0738 55.1828C52.3647 55.1828 52.3647 55.1828 52.6556 54.8919C53.0193 54.5282 56.365 50.3098 56.4377 50.1643C56.5104 50.0916 56.5104 49.9461 56.5104 49.8734C56.5104 49.3643 56.0013 49.0734 55.6376 49.2916Z" fill="#0B2D1F"/>
</g>
<g id="Group_8">
<path id="Vector_8" d="M55.3471 52.8554C54.4016 53.2918 54.3289 54.601 55.2744 55.1101C55.5653 55.2556 56.0745 55.2556 56.3654 55.1101C57.1654 54.6737 57.2382 53.5828 56.5108 53.0009C56.2926 52.8554 56.2199 52.8554 55.929 52.7827C55.6381 52.7827 55.4199 52.7827 55.3471 52.8554Z" fill="#0B2D1F"/>
</g>
</g>
</g>
</svg>
