<svg width="72" height="72" viewBox="0 0 72 72" fill="none" xmlns="http://www.w3.org/2000/svg">
<g id="customer-deposit">
<ellipse id="Ellipse 2632" cx="43" cy="20" rx="5" ry="6" fill="#62C89E"/>
<g id="Group 1171275211">
<g id="Group 1171275210">
<g id="Group 1171275150">
<g id="Group 6">
<path id="Vector 85" d="M26.5391 15.2103L24.853 23.7222L20.3567 25.4246L16.4225 23.1548C16.2352 21.8307 15.8605 18.9556 15.8605 18.0476C15.8605 17.1397 16.6099 15.0212 16.9846 14.0754L22.6049 12.373L26.5391 15.2103Z" fill="#22885E"/>
</g>
<g id="Group 1171275149">
<path id="Subtract" fill-rule="evenodd" clip-rule="evenodd" d="M12.4134 18.7805C12.4134 23.7385 16.1442 27.7692 20.7507 27.7692C25.3381 27.7692 29.0689 23.7574 29.0879 18.8184C29.0879 13.955 25.319 10 20.7507 10C16.1252 10 12.4134 13.8982 12.4134 18.7805ZM35.5598 20.2944C35.5598 24.6657 38.7957 28.2044 42.8121 28.2044C46.8094 28.2044 50.0643 24.6847 50.0643 20.3133C50.0834 16.0934 46.7904 12.5925 42.8121 12.5925C38.7957 12.5925 35.5598 16.0366 35.5598 20.2944ZM25.6046 18.7994C25.6046 21.9975 23.3775 24.4576 20.7507 24.4576C18.1048 24.4576 15.8968 21.9597 15.8968 18.7805C15.8968 15.6771 18.0858 13.3116 20.7507 13.3116C23.3965 13.3116 25.6046 15.7149 25.6046 18.7994ZM46.7904 20.3133C46.7904 22.8869 44.963 24.9307 42.8121 24.9307C40.6421 24.9307 38.8147 22.8869 38.8147 20.2944C38.8147 17.8154 40.604 15.8474 42.8121 15.8474C44.982 15.8474 46.7904 17.8533 46.7904 20.3133ZM54.1944 34.8079C51.5273 32.0375 47.4308 30.1725 42.8311 30.1725C39.8617 30.1725 36.8542 30.9673 34.4367 32.4433C35.4836 33.1246 36.2831 33.9194 36.9303 34.8466C38.5673 33.9383 40.6992 33.4084 42.8311 33.4084C45.6496 33.4084 48.2646 34.3085 50.2513 35.7095C51.493 35.2349 52.8163 34.9255 54.1944 34.8079ZM41.3664 45.5952C41.6667 44.4559 42.1016 43.3712 42.653 42.3593H40.1091C40.2424 43.6082 39.5381 44.9896 38.4912 45.5952H41.3664ZM4 42.3214C4 44.5544 5.59893 45.5952 8.89196 45.5952H32.6094C35.9024 45.5952 37.5013 44.5544 37.5013 42.3214C37.5013 37.1174 30.9534 30.1914 20.7507 30.1914C10.548 30.1914 4 37.1174 4 42.3214ZM33.8276 41.7915C33.8276 42.1322 33.6563 42.2836 33.2185 42.2836H8.30188C7.84504 42.2836 7.67373 42.1322 7.67373 41.7915C7.67373 38.8962 12.3753 33.503 20.7507 33.503C29.126 33.503 33.8276 38.8962 33.8276 41.7915Z" fill="#0B2D1F"/>
</g>
</g>
<g id="Group 1171275209">
<g id="Group 1171275110">
<g id="Ellipse 2574">
<mask id="path-4-inside-1_5978_45241" fill="white">
<path d="M54.5748 61.6233C61.99 61.6233 68.0013 55.6121 68.0013 48.1969C68.0013 40.7817 61.99 34.7705 54.5748 34.7705C47.1596 34.7705 41.1484 40.7817 41.1484 48.1969C41.1484 55.6121 47.1596 61.6233 54.5748 61.6233Z"/>
</mask>
<path d="M54.5748 61.6233C61.99 61.6233 68.0013 55.6121 68.0013 48.1969C68.0013 40.7817 61.99 34.7705 54.5748 34.7705C47.1596 34.7705 41.1484 40.7817 41.1484 48.1969C41.1484 55.6121 47.1596 61.6233 54.5748 61.6233Z" fill="#22885E" stroke="#0B2D1F" stroke-width="5" mask="url(#path-4-inside-1_5978_45241)"/>
</g>
</g>
<path id="Vector" d="M56.302 46.4267C55.3647 46.0951 54.3334 45.6983 53.7799 45.2623C53.7434 45.2335 53.6755 45.0638 53.7225 44.8106C53.746 44.6879 53.8504 44.2832 54.2421 44.1657C54.6624 44.0378 55.2055 44.2545 55.6624 44.5156C56.2446 44.8498 56.9834 44.7323 57.4403 44.2362C58.0878 43.5339 57.892 42.4086 57.0435 41.9674C56.7615 41.8212 56.4587 41.6828 56.1401 41.5653C56.1193 40.7742 55.4718 40.1372 54.6729 40.1372C53.9288 40.1372 53.3152 40.6933 53.2186 41.4113C51.9941 41.8499 51.0882 42.9282 50.8375 44.2649C50.5921 45.5677 51.0255 46.834 51.968 47.5728C52.8531 48.2699 54.1037 48.7634 55.3229 49.1942C56.0514 49.4526 56.1245 49.9748 56.0592 50.3664C55.9861 50.8024 55.6101 51.5465 54.665 51.5517C53.686 51.557 53.4536 51.523 52.7382 51.0531C52.0594 50.6092 51.1482 50.7998 50.7044 51.4786C50.2606 52.1575 50.4511 53.066 51.13 53.5099C51.921 54.0268 52.5424 54.2801 53.2291 54.3975C53.3518 55.0868 53.9523 55.609 54.6729 55.609C55.4535 55.609 56.0905 54.998 56.1375 54.2305C57.5865 53.7083 58.6883 52.4447 58.9546 50.852C59.2862 48.8835 58.2184 47.1029 56.302 46.4267Z" fill="#0B2D1F"/>
</g>
</g>
</g>
</g>
</svg>
