<svg width="72" height="72" viewBox="0 0 72 72" fill="none" xmlns="http://www.w3.org/2000/svg">
<g id="customer-multi-receipt">
<ellipse id="Ellipse 2633" cx="43" cy="21" rx="5" ry="6" fill="#62C89E"/>
<g id="Group 1171275212">
<g id="Group 1171275150">
<g id="Group 6">
<path id="Vector 85" d="M26.6025 15.226L24.9115 23.7627L20.4022 25.4701L16.4565 23.1936C16.2686 21.8657 15.8928 18.9821 15.8928 18.0715C15.8928 17.161 16.6443 15.0363 17.0201 14.0877L22.6568 12.3804L26.6025 15.226Z" fill="#22885E"/>
</g>
<g id="Group 1171275149">
<path id="Subtract" fill-rule="evenodd" clip-rule="evenodd" d="M12.438 18.8062C12.438 23.7786 16.1797 27.8211 20.7996 27.8211C25.4004 27.8211 29.1421 23.7976 29.1612 18.8441C29.1612 13.9666 25.3813 10 20.7996 10C16.1606 10 12.438 13.9096 12.438 18.8062ZM35.652 20.3245C35.652 24.7086 38.8974 28.2576 42.9255 28.2576C46.9345 28.2576 50.1989 24.7276 50.1989 20.3435C50.218 16.1112 46.9154 12.6001 42.9255 12.6001C38.8974 12.6001 35.652 16.0542 35.652 20.3245ZM25.6677 18.8252C25.6677 22.0326 23.4341 24.4998 20.7996 24.4998C18.146 24.4998 15.9315 21.9946 15.9315 18.8062C15.9315 15.6936 18.1269 13.3213 20.7996 13.3213C23.4532 13.3213 25.6677 15.7316 25.6677 18.8252ZM46.9154 20.3435C46.9154 22.9246 45.0827 24.9743 42.9255 24.9743C40.7492 24.9743 38.9165 22.9246 38.9165 20.3245C38.9165 17.8383 40.711 15.8645 42.9255 15.8645C45.1018 15.8645 46.9154 17.8762 46.9154 20.3435ZM54.3412 34.8805C51.6662 32.1019 47.5577 30.2314 42.9446 30.2314C39.9664 30.2314 36.9501 31.0285 34.5257 32.5089C35.5756 33.1921 36.3774 33.9892 37.0265 34.9192C38.6683 34.0082 40.8064 33.4768 42.9446 33.4768C45.7715 33.4768 48.3943 34.3797 50.3869 35.7849C51.6321 35.3089 52.9592 34.9985 54.3412 34.8805ZM41.4768 45.6992C41.7779 44.5566 42.214 43.4687 42.767 42.4538H40.2146C40.3483 43.7064 39.6419 45.0919 38.5919 45.6992H41.4768ZM4 42.4158C4 44.6553 5.6036 45.6992 8.90625 45.6992H32.693C35.9956 45.6992 37.5992 44.6553 37.5992 42.4158C37.5992 37.1967 31.0321 30.2504 20.7996 30.2504C10.5671 30.2504 4 37.1967 4 42.4158ZM33.9148 41.8844C33.9148 42.2261 33.743 42.3779 33.3039 42.3779H8.31444C7.85627 42.3779 7.68446 42.2261 7.68446 41.8844C7.68446 38.9807 12.3998 33.5717 20.7996 33.5717C29.1994 33.5717 33.9148 38.9807 33.9148 41.8844Z" fill="#0B2D1F"/>
</g>
</g>
<g id="Group 1171275210">
<g id="Group 1171275110">
<g id="Ellipse 2574">
<mask id="path-4-inside-1_5978_45308" fill="white">
<path d="M54.3401 61.5274C61.8834 61.5274 67.9985 55.4123 67.9985 47.8689C67.9985 40.3255 61.8834 34.2104 54.3401 34.2104C46.7967 34.2104 40.6816 40.3255 40.6816 47.8689C40.6816 55.4123 46.7967 61.5274 54.3401 61.5274Z"/>
</mask>
<path d="M54.3401 61.5274C61.8834 61.5274 67.9985 55.4123 67.9985 47.8689C67.9985 40.3255 61.8834 34.2104 54.3401 34.2104C46.7967 34.2104 40.6816 40.3255 40.6816 47.8689C40.6816 55.4123 46.7967 61.5274 54.3401 61.5274Z" fill="#62C89E" stroke="#0B2D1F" stroke-width="5" mask="url(#path-4-inside-1_5978_45308)"/>
</g>
</g>
</g>
<g id="Group 1171275160">
<g id="Group">
<path id="Vector" d="M48.9323 40.4682C48.4826 40.614 48.098 41.0078 47.9647 41.4606C47.9212 41.6126 47.915 42.2422 47.915 47.6044V53.5807L48.0081 53.7699C48.1849 54.1203 48.5074 54.3188 48.9075 54.3157C49.137 54.3157 49.1587 54.3064 50.0612 53.9218C50.5667 53.7047 50.9978 53.528 51.0133 53.528C51.0319 53.528 51.5033 53.7482 52.0615 54.018L53.0788 54.5049H53.3672H53.6556L54.7566 53.9466L55.8576 53.3915L56.7104 53.8226L57.5602 54.2568H57.8331C58.0409 54.2537 58.1371 54.2382 58.2456 54.1885C58.4534 54.0955 58.6302 53.9218 58.7387 53.7078L58.8318 53.5187V47.5734C58.8318 42.2391 58.8256 41.6126 58.7821 41.4606C58.6488 41.0047 58.2828 40.6295 57.8176 40.4744C57.6253 40.4093 57.5974 40.4093 53.3672 40.4124C49.3262 40.4124 49.0998 40.4155 48.9323 40.4682ZM57.5571 41.4792C57.6936 41.5599 57.7742 41.6715 57.8083 41.8235C57.8269 41.8948 57.8393 44.3139 57.8393 47.5889V53.2364L57.0206 52.824C56.422 52.5231 56.1553 52.4053 56.0282 52.3867C55.6901 52.3339 55.5847 52.3712 54.4341 52.9573L53.3672 53.4969L52.3562 53.0131C51.2645 52.4921 51.1125 52.4425 50.8334 52.5014C50.7497 52.52 50.2907 52.703 49.8131 52.9077C49.3355 53.1124 48.9354 53.2799 48.9261 53.2799C48.9168 53.2799 48.9106 50.6933 48.9137 47.5331C48.923 41.8514 48.923 41.7894 48.985 41.6839C49.0625 41.5537 49.1773 41.4637 49.3137 41.4327C49.3727 41.4172 51.2273 41.411 53.4354 41.411C57.3927 41.4172 57.4548 41.4172 57.5571 41.4792Z" fill="#0B2D1F"/>
<path id="Vector_2" d="M50.6169 43.448C50.468 43.5411 50.3936 43.6806 50.3936 43.8822C50.3936 44.0838 50.468 44.2234 50.6169 44.3164C50.7161 44.3753 50.7781 44.3784 53.3708 44.3784C55.9636 44.3784 56.0256 44.3753 56.1248 44.3164C56.2737 44.2234 56.3481 44.0838 56.3481 43.8822C56.3481 43.6806 56.2737 43.5411 56.1248 43.448C56.0256 43.3891 55.9636 43.386 53.3708 43.386C50.7781 43.386 50.7161 43.3891 50.6169 43.448Z" fill="#0B2D1F"/>
<path id="Vector_3" d="M50.6169 45.9295C50.468 46.0225 50.3936 46.1621 50.3936 46.3636C50.3936 46.5652 50.468 46.7048 50.6169 46.7978C50.7161 46.8568 50.7781 46.8599 53.3708 46.8599C55.9636 46.8599 56.0256 46.8568 56.1248 46.7978C56.2737 46.7048 56.3481 46.5652 56.3481 46.3636C56.3481 46.1621 56.2737 46.0225 56.1248 45.9295C56.0256 45.8705 55.9636 45.8674 53.3708 45.8674C50.7781 45.8674 50.7161 45.8705 50.6169 45.9295Z" fill="#0B2D1F"/>
<path id="Vector_4" d="M50.6169 48.4104C50.468 48.5035 50.3936 48.643 50.3936 48.8446C50.3936 49.0462 50.468 49.1858 50.6169 49.2788C50.7161 49.3377 50.7781 49.3408 52.2854 49.3408C53.7926 49.3408 53.8547 49.3377 53.9539 49.2788C54.1028 49.1858 54.1772 49.0462 54.1772 48.8446C54.1772 48.643 54.1028 48.5035 53.9539 48.4104C53.8547 48.3515 53.7926 48.3484 52.2854 48.3484C50.7781 48.3484 50.7161 48.3515 50.6169 48.4104Z" fill="#0B2D1F"/>
</g>
<path id="Vector 543" d="M60.5097 42.9302H51.2725V55.5264L53.3718 54.6867L55.8911 55.9463L58.4103 54.6867L60.5097 55.5264V42.9302Z" fill="#22885E"/>
<g id="Group_2">
<path id="Vector_5" d="M51.4528 42.1474C51.0031 42.2932 50.6185 42.687 50.4852 43.1398C50.4417 43.2918 50.4355 43.9214 50.4355 49.2836V55.2599L50.5286 55.4491C50.7054 55.7995 51.0279 55.998 51.428 55.9949C51.6575 55.9949 51.6792 55.9856 52.5817 55.601C53.0872 55.3839 53.5183 55.2072 53.5338 55.2072C53.5524 55.2072 54.0238 55.4274 54.582 55.6972L55.5993 56.1841H55.8877H56.1761L57.2771 55.6258L58.3781 55.0707L59.231 55.5018L60.0807 55.936H60.3536C60.5614 55.9329 60.6576 55.9174 60.7661 55.8677C60.9739 55.7747 61.1507 55.601 61.2592 55.387L61.3523 55.1979V49.2526C61.3523 43.9183 61.3461 43.2918 61.3027 43.1398C61.1693 42.6839 60.8033 42.3087 60.3381 42.1536C60.1459 42.0885 60.1179 42.0885 55.8877 42.0916C51.8467 42.0916 51.6203 42.0947 51.4528 42.1474ZM60.0776 43.1584C60.2141 43.2391 60.2947 43.3507 60.3288 43.5027C60.3474 43.574 60.3598 45.9931 60.3598 49.2681V54.9156L59.5411 54.5032C58.9425 54.2023 58.6758 54.0845 58.5487 54.0659C58.2106 54.0131 58.1052 54.0504 56.9546 54.6365L55.8877 55.1761L54.8767 54.6923C53.785 54.1713 53.633 54.1217 53.3539 54.1806C53.2702 54.1992 52.8112 54.3822 52.3336 54.5869C51.856 54.7916 51.4559 54.9591 51.4466 54.9591C51.4373 54.9591 51.4311 52.3725 51.4342 49.2123C51.4435 43.5306 51.4435 43.4686 51.5055 43.3631C51.583 43.2329 51.6978 43.1429 51.8343 43.1119C51.8932 43.0964 53.7478 43.0902 55.9559 43.0902C59.9133 43.0964 59.9753 43.0964 60.0776 43.1584Z" fill="#0B2D1F"/>
<path id="Vector_6" d="M53.1374 45.1272C52.9885 45.2203 52.9141 45.3598 52.9141 45.5614C52.9141 45.763 52.9885 45.9026 53.1374 45.9956C53.2366 46.0545 53.2986 46.0576 55.8914 46.0576C58.4841 46.0576 58.5461 46.0545 58.6453 45.9956C58.7942 45.9026 58.8686 45.763 58.8686 45.5614C58.8686 45.3598 58.7942 45.2203 58.6453 45.1272C58.5461 45.0683 58.4841 45.0652 55.8914 45.0652C53.2986 45.0652 53.2366 45.0683 53.1374 45.1272Z" fill="#0B2D1F"/>
<path id="Vector_7" d="M53.1374 47.6087C52.9885 47.7017 52.9141 47.8413 52.9141 48.0428C52.9141 48.2444 52.9885 48.384 53.1374 48.477C53.2366 48.536 53.2986 48.5391 55.8914 48.5391C58.4841 48.5391 58.5461 48.536 58.6453 48.477C58.7942 48.384 58.8686 48.2444 58.8686 48.0428C58.8686 47.8413 58.7942 47.7017 58.6453 47.6087C58.5461 47.5497 58.4841 47.5466 55.8914 47.5466C53.2986 47.5466 53.2366 47.5497 53.1374 47.6087Z" fill="#0B2D1F"/>
<path id="Vector_8" d="M53.1374 50.0896C52.9885 50.1827 52.9141 50.3222 52.9141 50.5238C52.9141 50.7254 52.9885 50.865 53.1374 50.958C53.2366 51.0169 53.2986 51.02 54.8059 51.02C56.3131 51.02 56.3752 51.0169 56.4744 50.958C56.6233 50.865 56.6977 50.7254 56.6977 50.5238C56.6977 50.3222 56.6233 50.1827 56.4744 50.0896C56.3752 50.0307 56.3131 50.0276 54.8059 50.0276C53.2986 50.0276 53.2366 50.0307 53.1374 50.0896Z" fill="#0B2D1F"/>
</g>
</g>
</g>
</g>
</svg>
