<svg width="72" height="72" viewBox="0 0 72 72" fill="none" xmlns="http://www.w3.org/2000/svg">
<g id="customer-statement">
<g id="Group 1171275100">
<g id="Group">
<g id="Vector">
<path d="M35.8854 33.0492C35.7911 32.9606 35.7098 32.8875 35.6326 32.8103C34.3682 31.5466 33.1078 30.2789 31.8344 29.025C31.7206 28.9129 31.5231 28.8308 31.3639 28.8292C29.993 28.8137 28.622 28.8259 27.2511 28.8194C24.1908 28.804 21.7049 26.761 21.1109 23.7592C21.0304 23.3545 21.0077 22.9327 21.0069 22.5183C20.9995 18.4454 20.9971 14.3732 21.0044 10.3003C21.0093 7.16032 23.0799 4.67691 26.1719 4.09913C26.5482 4.02843 26.9391 4.00568 27.3226 4.00568C33.0306 3.99999 38.7377 3.99755 44.4456 4.00324C47.5653 4.00649 50.0715 6.05676 50.6615 9.0887C50.7387 9.48445 50.7614 9.89564 50.7622 10.2995C50.7695 14.3822 50.7736 18.4649 50.7639 22.5475C50.7565 25.6233 48.725 28.1059 45.728 28.7065C45.3135 28.7894 44.8812 28.8105 44.457 28.8154C43.1064 28.8284 41.7558 28.8137 40.4052 28.8292C40.2459 28.8308 40.0493 28.9137 39.9355 29.0258C38.6621 30.2805 37.4017 31.5474 36.1373 32.8111C36.0601 32.8883 35.9788 32.9614 35.8854 33.0492ZM35.8837 29.6004C36.915 28.5578 37.8958 27.572 38.8677 26.5774C39.0213 26.4205 39.1741 26.3531 39.3967 26.3547C41.0821 26.3645 42.7684 26.362 44.4538 26.3596C46.6592 26.3563 48.3032 24.7181 48.3048 22.5069C48.3089 18.4445 48.3105 14.383 48.304 10.3206C48.3008 8.12329 46.6601 6.49396 44.4668 6.49396C38.7491 6.49315 33.0322 6.49315 27.3145 6.49396C25.1001 6.49396 23.4643 8.12247 23.4626 10.3369C23.4594 14.3887 23.4594 18.4405 23.4626 22.4923C23.4643 24.7197 25.105 26.3563 27.3308 26.3588C28.6204 26.3604 29.9101 26.358 31.1997 26.3596C31.6865 26.3604 32.2301 26.2328 32.6454 26.4075C33.0712 26.5863 33.3784 27.0568 33.7278 27.4087C34.4356 28.1214 35.1369 28.8397 35.8837 29.6004Z" fill="#4D0000"/>
<path d="M35.8837 29.6004C36.915 28.5578 37.8958 27.572 38.8677 26.5774C39.0213 26.4205 39.1741 26.3531 39.3967 26.3547C41.0821 26.3645 42.7684 26.362 44.4538 26.3596C46.6592 26.3563 48.3032 24.7181 48.3048 22.5069C48.3089 18.4445 48.3105 14.383 48.304 10.3206C48.3008 8.12329 46.6601 6.49396 44.4668 6.49396C38.7491 6.49315 33.0322 6.49315 27.3145 6.49396C25.1001 6.49396 23.4643 8.12247 23.4626 10.3369C23.4594 14.3887 23.4594 18.4405 23.4626 22.4923C23.4643 24.7197 25.105 26.3563 27.3308 26.3588C28.6204 26.3604 29.9101 26.358 31.1997 26.3596C31.6865 26.3604 32.2301 26.2328 32.6454 26.4075C33.0712 26.5863 33.3784 27.0568 33.7278 27.4087C34.4356 28.1214 35.1369 28.8397 35.8837 29.6004Z" fill="#E60000"/>
</g>
</g>
<g id="Group_2">
<g id="Vector_2">
<path d="M45.6595 68.0001H25.7662C25.7077 67.979 25.6508 67.9473 25.5899 67.9376C23.4575 67.6068 21.7876 65.8182 21.6592 63.6696C21.5625 62.0533 21.8112 60.4686 22.3304 58.9409C23.5746 55.2784 25.9166 52.5406 29.3565 50.7569C29.5937 50.6342 29.8351 50.5212 30.0854 50.4066C30.3519 50.2847 30.4039 49.9337 30.191 49.7321C30.1894 49.7305 30.187 49.7281 30.187 49.7281C29.8578 49.4144 29.5043 49.1194 29.2199 48.7684C27.3403 46.4515 26.6975 43.8275 27.5191 40.9484C28.387 37.9075 30.4137 35.9426 33.4448 35.0389C33.9568 34.8861 34.4964 34.8228 35.0238 34.7212C35.0489 34.7163 35.075 34.7139 35.1001 34.7139H36.3191C36.3475 34.7139 36.3752 34.7163 36.4028 34.722C36.4938 34.7407 36.5848 34.7626 36.6767 34.774C38.9642 35.056 40.8641 36.0775 42.3131 37.8588C45.3125 41.5457 44.7583 46.814 41.0876 49.8532C40.9812 49.941 40.8771 50.0304 40.7699 50.1206C40.804 50.158 40.8146 50.1775 40.8308 50.1848C41.008 50.2644 41.1868 50.3416 41.3647 50.4204C44.2382 51.7011 46.4502 53.7132 47.9966 56.451C49.1416 58.4777 49.6983 60.6621 49.7869 62.9878C49.8616 64.9511 48.8531 66.7308 47.0654 67.5491C46.6225 67.7539 46.13 67.853 45.6595 68.0001ZM35.7129 65.4452C38.7676 65.4452 41.8222 65.4314 44.8761 65.4509C46.4429 65.4607 47.3579 64.2962 47.2165 63.0414C47.1222 62.2044 47.0694 61.3544 46.8728 60.5402C46.2381 57.9097 44.8079 55.7789 42.6576 54.1366C41.0868 52.9372 39.3218 52.1952 37.3617 51.9165C35.1513 51.6028 33.0231 51.8881 30.9907 52.8088C28.6787 53.8571 26.8966 55.501 25.6533 57.7098C24.6676 59.461 24.1897 61.3544 24.2019 63.3665C24.2052 63.8378 24.3669 64.2555 24.6586 64.6236C25.1421 65.2356 25.7971 65.446 26.5488 65.446C29.6043 65.4436 32.659 65.4452 35.7129 65.4452ZM35.7039 37.2728C32.4103 37.2915 29.727 39.983 29.7368 43.2579C29.7465 46.558 32.4599 49.2454 35.7543 49.2169C39.0341 49.1885 41.6971 46.5068 41.689 43.24C41.68 39.9586 38.9675 37.2542 35.7039 37.2728Z" fill="#4D0000"/>
<path d="M35.7039 37.2728C32.4103 37.2915 29.727 39.983 29.7368 43.2579C29.7465 46.558 32.4599 49.2454 35.7543 49.2169C39.0341 49.1885 41.6971 46.5068 41.689 43.24C41.68 39.9586 38.9675 37.2542 35.7039 37.2728Z" fill="#FF8080"/>
</g>
</g>
</g>
<path id="Vector_3" d="M36.7261 22.5408C36.6895 23.5277 36.3606 23.9807 35.6901 23.9994C34.9903 24.019 34.6399 23.5786 34.5561 22.5426C33.8963 22.3482 33.3382 21.9568 32.8309 21.4808C32.3388 21.018 32.2791 20.3645 32.6945 19.9072C33.1046 19.4552 33.7742 19.4453 34.2708 19.9045C34.6845 20.2861 35.1169 20.5749 35.7204 20.5348C36.4791 20.484 37.0943 19.9785 37.1095 19.35C37.1255 18.7071 36.5166 18.1883 35.74 18.1054C35.1935 18.0474 34.6265 17.9788 34.1192 17.7826C32.8015 17.2718 31.9991 16.0682 32 14.7433C32.0009 13.4203 32.8398 12.2176 34.1665 11.6978C34.4562 11.5846 34.5418 11.4526 34.5293 11.1468C34.5008 10.4915 34.9582 10.0137 35.5689 10.0003C36.1867 9.98692 36.6503 10.4318 36.6494 11.1005C36.6485 11.4535 36.7555 11.6193 37.1014 11.7361C37.7621 11.9599 38.3541 12.3219 38.7642 12.9121C39.0316 13.2981 39.0316 13.7065 38.7882 14.105C38.5609 14.4759 38.1294 14.68 37.6925 14.5579C37.4518 14.4901 37.212 14.3279 37.0355 14.1469C36.5353 13.6325 35.5457 13.3998 34.9047 13.6975C34.4616 13.9035 34.1513 14.2253 34.1442 14.7424C34.137 15.2765 34.4491 15.6269 34.9118 15.8105C35.1926 15.922 35.5154 15.9469 35.8221 15.9737C37.2503 16.1003 38.3585 16.7297 38.9719 18.0554C39.7217 19.6772 38.9371 21.5521 37.2271 22.3304C37.0658 22.4026 36.8999 22.4677 36.7261 22.5408Z" fill="#4D0000"/>
</g>
</svg>
