<svg width="72" height="72" viewBox="0 0 72 72" fill="none" xmlns="http://www.w3.org/2000/svg">
<g id="customer-credit-note">
<ellipse id="Ellipse 2674" cx="54" cy="48.5" rx="12" ry="12.5" fill="#62C89E"/>
<ellipse id="Ellipse 2631" cx="41.5" cy="20" rx="4.5" ry="5" fill="#62C89E"/>
<g id="Group 1171275150">
<g id="Group 6">
<path id="Vector 85" d="M25.8545 15.0516L24.2198 23.3039L19.8607 24.9544L16.0464 22.7538C15.8648 21.4701 15.5016 18.6826 15.5016 17.8023C15.5016 16.9221 16.2281 14.8682 16.5913 13.9513L22.0403 12.3008L25.8545 15.0516Z" fill="#22885E"/>
</g>
<g id="Group 1171275149">
<path id="Subtract" fill-rule="evenodd" clip-rule="evenodd" d="M12.1578 18.5128C12.1578 23.3196 15.7749 27.2274 20.2409 27.2274C24.6884 27.2274 28.3055 23.3379 28.3239 18.5495C28.3239 13.8344 24.67 10 20.2409 10C15.7565 10 12.1578 13.7794 12.1578 18.5128ZM34.5984 19.9805C34.5984 24.2186 37.7357 27.6494 41.6296 27.6494C45.505 27.6494 48.6607 24.2369 48.6607 19.9989C48.6792 15.9076 45.4866 12.5135 41.6296 12.5135C37.7357 12.5135 34.5984 15.8525 34.5984 19.9805ZM24.9468 18.5311C24.9468 21.6317 22.7876 24.0167 20.2409 24.0167C17.6757 24.0167 15.535 21.595 15.535 18.5128C15.535 15.504 17.6573 13.2106 20.2409 13.2106C22.8061 13.2106 24.9468 15.5406 24.9468 18.5311ZM45.4866 19.9989C45.4866 22.494 43.7149 24.4754 41.6296 24.4754C39.5258 24.4754 37.7542 22.494 37.7542 19.9805C37.7542 17.5771 39.4889 15.6691 41.6296 15.6691C43.7334 15.6691 45.4866 17.6138 45.4866 19.9989ZM52.665 34.0517C50.0792 31.3656 46.1075 29.5574 41.648 29.5574C38.7691 29.5574 35.8533 30.3279 33.5096 31.759C34.5246 32.4194 35.2997 33.19 35.9272 34.089C37.5142 33.2083 39.5811 32.6946 41.648 32.6946C44.3808 32.6946 46.9163 33.5674 48.8424 34.9258C50.0462 34.4657 51.3291 34.1657 52.665 34.0517ZM40.2289 44.5098C40.52 43.4053 40.9416 42.3537 41.4762 41.3725H39.0091C39.1382 42.5834 38.4554 43.9227 37.4404 44.5098H40.2289ZM4.00098 41.3359C4.00098 43.5007 5.55115 44.5098 8.74377 44.5098H31.738C34.9306 44.5098 36.4808 43.5007 36.4808 41.3359C36.4808 36.2906 30.1325 29.5757 20.2409 29.5757C10.3493 29.5757 4.00098 36.2906 4.00098 41.3359ZM32.9191 40.8222C32.9191 41.1524 32.753 41.2992 32.3285 41.2992H8.17168C7.72877 41.2992 7.56268 41.1524 7.56268 40.8222C7.56268 38.0151 12.1209 32.7864 20.2409 32.7864C28.3608 32.7864 32.9191 38.0151 32.9191 40.8222Z" fill="#0B2D1F"/>
<circle id="Ellipse 2587" cx="53.8813" cy="48.1176" r="12.6176" stroke="#0B2D1F" stroke-width="3"/>
</g>
</g>
<g id="Group 1171275226">
<g id="Group">
<g id="Vector">
<mask id="path-6-outside-1_5978_45256" maskUnits="userSpaceOnUse" x="47" y="40" width="13" height="16" fill="black">
<rect fill="white" x="47" y="40" width="13" height="16"/>
<path d="M58.3353 45.7195C58.3353 45.8709 58.4616 45.9975 58.613 45.9975C58.773 45.9975 58.8993 45.8709 58.8993 45.7195V42.0789C58.8993 41.784 58.773 41.5141 58.5797 41.3204C58.3859 41.1267 58.1165 41 57.8219 41H49.0774C48.7828 41 48.5134 41.1267 48.3197 41.3204C48.1177 41.5141 48 41.784 48 42.0789V54.3067C48 54.6016 48.1177 54.8714 48.3197 55.0651C48.5134 55.2675 48.7828 55.3855 49.0774 55.3855H57.8219C58.1165 55.3855 58.3859 55.2675 58.5797 55.0651C58.773 54.8714 58.8993 54.6016 58.8993 54.3067V51.492C58.8993 51.332 58.773 51.2057 58.613 51.2057C58.4616 51.2057 58.3353 51.332 58.3353 51.492V54.3067C58.3353 54.4502 58.2765 54.5765 58.1839 54.669C58.0914 54.762 57.9651 54.8208 57.8219 54.8208H49.0774C48.9342 54.8208 48.8079 54.762 48.7154 54.669C48.6228 54.5765 48.564 54.4502 48.564 54.3067V42.0789C48.564 41.9354 48.6228 41.8091 48.7154 41.7165C48.8079 41.6236 48.9342 41.5647 49.0774 41.5647H57.8219C57.9651 41.5647 58.0914 41.6236 58.1839 41.7165C58.2765 41.8091 58.3353 41.9354 58.3353 42.0789V45.7195Z"/>
</mask>
<path d="M58.3353 45.7195C58.3353 45.8709 58.4616 45.9975 58.613 45.9975C58.773 45.9975 58.8993 45.8709 58.8993 45.7195V42.0789C58.8993 41.784 58.773 41.5141 58.5797 41.3204C58.3859 41.1267 58.1165 41 57.8219 41H49.0774C48.7828 41 48.5134 41.1267 48.3197 41.3204C48.1177 41.5141 48 41.784 48 42.0789V54.3067C48 54.6016 48.1177 54.8714 48.3197 55.0651C48.5134 55.2675 48.7828 55.3855 49.0774 55.3855H57.8219C58.1165 55.3855 58.3859 55.2675 58.5797 55.0651C58.773 54.8714 58.8993 54.6016 58.8993 54.3067V51.492C58.8993 51.332 58.773 51.2057 58.613 51.2057C58.4616 51.2057 58.3353 51.332 58.3353 51.492V54.3067C58.3353 54.4502 58.2765 54.5765 58.1839 54.669C58.0914 54.762 57.9651 54.8208 57.8219 54.8208H49.0774C48.9342 54.8208 48.8079 54.762 48.7154 54.669C48.6228 54.5765 48.564 54.4502 48.564 54.3067V42.0789C48.564 41.9354 48.6228 41.8091 48.7154 41.7165C48.8079 41.6236 48.9342 41.5647 49.0774 41.5647H57.8219C57.9651 41.5647 58.0914 41.6236 58.1839 41.7165C58.2765 41.8091 58.3353 41.9354 58.3353 42.0789V45.7195Z" fill="#0B2D1F"/>
<path d="M58.3353 45.7195C58.3353 45.8709 58.4616 45.9975 58.613 45.9975C58.773 45.9975 58.8993 45.8709 58.8993 45.7195V42.0789C58.8993 41.784 58.773 41.5141 58.5797 41.3204C58.3859 41.1267 58.1165 41 57.8219 41H49.0774C48.7828 41 48.5134 41.1267 48.3197 41.3204C48.1177 41.5141 48 41.784 48 42.0789V54.3067C48 54.6016 48.1177 54.8714 48.3197 55.0651C48.5134 55.2675 48.7828 55.3855 49.0774 55.3855H57.8219C58.1165 55.3855 58.3859 55.2675 58.5797 55.0651C58.773 54.8714 58.8993 54.6016 58.8993 54.3067V51.492C58.8993 51.332 58.773 51.2057 58.613 51.2057C58.4616 51.2057 58.3353 51.332 58.3353 51.492V54.3067C58.3353 54.4502 58.2765 54.5765 58.1839 54.669C58.0914 54.762 57.9651 54.8208 57.8219 54.8208H49.0774C48.9342 54.8208 48.8079 54.762 48.7154 54.669C48.6228 54.5765 48.564 54.4502 48.564 54.3067V42.0789C48.564 41.9354 48.6228 41.8091 48.7154 41.7165C48.8079 41.6236 48.9342 41.5647 49.0774 41.5647H57.8219C57.9651 41.5647 58.0914 41.6236 58.1839 41.7165C58.2765 41.8091 58.3353 41.9354 58.3353 42.0789V45.7195Z" stroke="#0B2D1F" stroke-width="0.639357" mask="url(#path-6-outside-1_5978_45256)"/>
</g>
</g>
<g id="Vector_2">
<mask id="path-7-outside-2_5978_45256" maskUnits="userSpaceOnUse" x="55.1328" y="41.9395" width="7" height="13" fill="black">
<rect fill="white" x="55.1328" y="41.9395" width="7" height="13"/>
<path d="M59.5386 42.9551L61.2388 43.5194C61.3902 43.57 61.4659 43.73 61.4239 43.8736L61.4153 43.8818L58.3938 53.051C58.3773 53.1012 58.3435 53.1435 58.3098 53.1773L56.8959 54.4836L56.7108 54.2812L56.8959 54.4918C56.7865 54.593 56.6096 54.5844 56.5002 54.475C56.4582 54.4244 56.4327 54.3656 56.4245 54.2981L56.1382 52.4356C56.13 52.3851 56.13 52.3427 56.1468 52.2925L59.1684 43.132C59.2189 42.9802 59.3786 42.9045 59.5217 42.9551H59.5386ZM60.8011 43.9661L59.6143 43.57L56.7022 52.4188L56.9042 53.7165L57.889 52.8063L60.8011 43.9661Z"/>
<path d="M60.8011 43.9661L59.6143 43.57L56.7022 52.4188L56.9042 53.7165L57.889 52.8063L60.8011 43.9661Z"/>
</mask>
<path d="M59.5386 42.9551L61.2388 43.5194C61.3902 43.57 61.4659 43.73 61.4239 43.8736L61.4153 43.8818L58.3938 53.051C58.3773 53.1012 58.3435 53.1435 58.3098 53.1773L56.8959 54.4836L56.7108 54.2812L56.8959 54.4918C56.7865 54.593 56.6096 54.5844 56.5002 54.475C56.4582 54.4244 56.4327 54.3656 56.4245 54.2981L56.1382 52.4356C56.13 52.3851 56.13 52.3427 56.1468 52.2925L59.1684 43.132C59.2189 42.9802 59.3786 42.9045 59.5217 42.9551H59.5386ZM60.8011 43.9661L59.6143 43.57L56.7022 52.4188L56.9042 53.7165L57.889 52.8063L60.8011 43.9661Z" fill="#0B2D1F"/>
<path d="M60.8011 43.9661L59.6143 43.57L56.7022 52.4188L56.9042 53.7165L57.889 52.8063L60.8011 43.9661Z" fill="#22885E"/>
<path d="M60.8011 43.9661L60.877 43.9911L60.9019 43.9155L60.8264 43.8903L60.8011 43.9661ZM59.6143 43.57L59.6396 43.4942L59.5635 43.4688L59.5384 43.545L59.6143 43.57ZM56.7022 52.4188L56.6263 52.3938L56.6203 52.4121L56.6232 52.4311L56.7022 52.4188ZM56.9042 53.7165L56.8252 53.7288L56.8483 53.877L56.9584 53.7752L56.9042 53.7165ZM57.889 52.8063L57.9432 52.865L57.9584 52.8509L57.9649 52.8313L57.889 52.8063ZM61.1625 43.4956L61.0782 43.7654L61.2308 43.8131L61.3151 43.5433L61.1625 43.4956ZM58.4206 52.9757L58.1598 52.8827L58.1061 53.0333L58.3669 53.1263L58.4206 52.9757ZM59.1445 43.2082L59.4135 43.2925L59.4613 43.14L59.1923 43.0557L59.1445 43.2082ZM60.8264 43.8903L59.6396 43.4942L59.589 43.6458L60.7758 44.0419L60.8264 43.8903ZM59.5384 43.545L56.6263 52.3938L56.7781 52.4438L59.6902 43.595L59.5384 43.545ZM56.6232 52.4311L56.8252 53.7288L56.9831 53.7042L56.7812 52.4065L56.6232 52.4311ZM56.9584 53.7752L57.9432 52.865L57.8347 52.7476L56.8499 53.6578L56.9584 53.7752ZM57.9649 52.8313L60.877 43.9911L60.7252 43.9411L57.8131 52.7813L57.9649 52.8313ZM59.5386 42.9551L59.589 42.8034L59.5644 42.7952H59.5386V42.9551ZM61.2388 43.5194L61.2895 43.3678L61.2891 43.3677L61.2388 43.5194ZM61.4239 43.8736L61.5344 43.9891L61.5653 43.9595L61.5773 43.9184L61.4239 43.8736ZM61.4153 43.8818L61.3048 43.7663L61.276 43.7939L61.2635 43.8318L61.4153 43.8818ZM58.3938 53.051L58.242 53.0009L58.2419 53.0011L58.3938 53.051ZM58.3098 53.1773L58.4184 53.2947L58.4228 53.2903L58.3098 53.1773ZM56.8959 54.4836L56.778 54.5915L56.8864 54.71L57.0044 54.601L56.8959 54.4836ZM56.7108 54.2812L56.8287 54.1734L56.5908 54.3868L56.7108 54.2812ZM56.8959 54.4918L57.0044 54.6092L57.1189 54.5034L57.016 54.3863L56.8959 54.4918ZM56.5002 54.475L56.3772 54.577L56.3819 54.5828L56.3872 54.588L56.5002 54.475ZM56.4245 54.2981L56.5832 54.2787L56.5825 54.2738L56.4245 54.2981ZM56.1382 52.4356L56.2962 52.4114L56.296 52.4099L56.1382 52.4356ZM56.1468 52.2925L56.2983 52.3434L56.2986 52.3426L56.1468 52.2925ZM59.1684 43.132L59.0167 43.0814L59.0166 43.0819L59.1684 43.132ZM59.5217 42.9551L59.4685 43.1058L59.4943 43.1149H59.5217V42.9551ZM59.4882 43.1068L61.1884 43.6711L61.2891 43.3677L59.589 42.8034L59.4882 43.1068ZM61.1881 43.671C61.2546 43.6932 61.2894 43.7641 61.2705 43.8287L61.5773 43.9184C61.6424 43.696 61.5258 43.4468 61.2895 43.3678L61.1881 43.671ZM61.3134 43.7581L61.3048 43.7663L61.5258 43.9973L61.5344 43.9891L61.3134 43.7581ZM61.2635 43.8318L58.242 53.0009L58.5456 53.101L61.5671 43.9318L61.2635 43.8318ZM58.2419 53.0011C58.2367 53.0169 58.2229 53.0382 58.1968 53.0642L58.4228 53.2903C58.4642 53.2489 58.5178 53.1854 58.5456 53.1008L58.2419 53.0011ZM58.2014 53.0599L56.7875 54.3662L57.0044 54.601L58.4183 53.2947L58.2014 53.0599ZM57.0139 54.3757L56.8287 54.1734L56.5929 54.3891L56.778 54.5915L57.0139 54.3757ZM56.5908 54.3868L56.7759 54.5974L57.016 54.3863L56.8309 54.1757L56.5908 54.3868ZM56.7874 54.3745C56.7464 54.4125 56.6672 54.416 56.6132 54.362L56.3872 54.588C56.552 54.7529 56.8267 54.7736 57.0044 54.6092L56.7874 54.3745ZM56.6232 54.3729C56.601 54.3462 56.5877 54.3161 56.5832 54.2787L56.2658 54.3175C56.2778 54.415 56.3154 54.5026 56.3772 54.577L56.6232 54.3729ZM56.5825 54.2738L56.2962 52.4114L55.9802 52.4599L56.2665 54.3224L56.5825 54.2738ZM56.296 52.4099C56.2906 52.3769 56.292 52.3622 56.2983 52.3434L55.9953 52.2416C55.9679 52.3232 55.9693 52.3932 55.9804 52.4614L56.296 52.4099ZM56.2986 52.3426L59.3201 43.182L59.0166 43.0819L55.995 52.2424L56.2986 52.3426ZM59.32 43.1825C59.3426 43.1147 59.4104 43.0853 59.4685 43.1058L59.575 42.8044C59.3467 42.7237 59.0953 42.8456 59.0167 43.0814L59.32 43.1825ZM59.5217 43.1149H59.5386V42.7952H59.5217V43.1149Z" fill="#0B2D1F" mask="url(#path-7-outside-2_5978_45256)"/>
</g>
<path id="Vector_3" d="M58.0502 53.1943C58.2016 53.2449 58.3616 53.1689 58.4036 53.0175C58.4541 52.8739 58.3784 52.7139 58.2267 52.6633L56.51 52.0986C56.3668 52.048 56.2068 52.1241 56.1562 52.2758C56.106 52.419 56.19 52.579 56.3331 52.6296L58.0502 53.1943Z" fill="#0B2D1F"/>
<g id="Group_2">
<g id="Vector_4">
<mask id="path-10-outside-3_5978_45256" maskUnits="userSpaceOnUse" x="58.1562" y="40.2212" width="5" height="5" fill="black">
<rect fill="white" x="58.1562" y="40.2212" width="5" height="5"/>
<path d="M59.7907 43.0392L60.9775 43.4353L61.3646 42.2474L60.1778 41.8595L59.7907 43.0392ZM61.0614 44.0506L59.3612 43.4859H59.353C59.2016 43.4353 59.1255 43.2753 59.1679 43.1322L59.7319 41.4215L59.7401 41.4128C59.7821 41.2697 59.9421 41.1854 60.0935 41.236L61.7937 41.8007H61.8023C61.9537 41.8513 62.0294 42.0113 61.9874 42.1545L61.4234 43.8651L61.4148 43.8738C61.3728 44.0255 61.2128 44.1012 61.0614 44.0506Z"/>
<path d="M59.7907 43.0392L60.9775 43.4353L61.3646 42.2474L60.1778 41.8595L59.7907 43.0392Z"/>
</mask>
<path d="M59.7907 43.0392L60.9775 43.4353L61.3646 42.2474L60.1778 41.8595L59.7907 43.0392ZM61.0614 44.0506L59.3612 43.4859H59.353C59.2016 43.4353 59.1255 43.2753 59.1679 43.1322L59.7319 41.4215L59.7401 41.4128C59.7821 41.2697 59.9421 41.1854 60.0935 41.236L61.7937 41.8007H61.8023C61.9537 41.8513 62.0294 42.0113 61.9874 42.1545L61.4234 43.8651L61.4148 43.8738C61.3728 44.0255 61.2128 44.1012 61.0614 44.0506Z" fill="#0B2D1F"/>
<path d="M59.7907 43.0392L60.9775 43.4353L61.3646 42.2474L60.1778 41.8595L59.7907 43.0392Z" fill="#22885E"/>
<path d="M59.7907 43.0392L59.7147 43.0143L59.69 43.0899L59.7654 43.115L59.7907 43.0392ZM60.9775 43.4353L60.9522 43.5111L61.0285 43.5366L61.0535 43.4601L60.9775 43.4353ZM61.3646 42.2474L61.4406 42.2722L61.4653 42.1962L61.3894 42.1714L61.3646 42.2474ZM60.1778 41.8595L60.2026 41.7836L60.1267 41.7588L60.1019 41.8346L60.1778 41.8595ZM59.7654 43.115L60.9522 43.5111L61.0028 43.3595L59.816 42.9634L59.7654 43.115ZM61.0535 43.4601L61.4406 42.2722L61.2886 42.2226L60.9015 43.4106L61.0535 43.4601ZM61.3894 42.1714L60.2026 41.7836L60.153 41.9355L61.3398 42.3234L61.3894 42.1714ZM60.1019 41.8346L59.7147 43.0143L59.8666 43.0641L60.2537 41.8845L60.1019 41.8346ZM61.0614 44.0506L61.1121 43.899L61.1118 43.899L61.0614 44.0506ZM59.3612 43.4859L59.4116 43.3342L59.3871 43.3261H59.3612V43.4859ZM59.353 43.4859L59.3023 43.6375L59.327 43.6457H59.353V43.4859ZM59.1679 43.1322L59.016 43.0821L59.0146 43.0868L59.1679 43.1322ZM59.7319 41.4215L59.6163 41.311L59.5914 41.3371L59.58 41.3714L59.7319 41.4215ZM59.7401 41.4128L59.8556 41.5233L59.8825 41.4952L59.8935 41.4578L59.7401 41.4128ZM60.0935 41.236L60.0428 41.3876L60.0431 41.3877L60.0935 41.236ZM61.7937 41.8007L61.7433 41.9524L61.7678 41.9605H61.7937V41.8007ZM61.8023 41.8007L61.8529 41.6491L61.8283 41.6409H61.8023V41.8007ZM61.9874 42.1545L62.1393 42.2045L62.1408 42.1994L61.9874 42.1545ZM61.4234 43.8651L61.5365 43.9782L61.5633 43.9513L61.5752 43.9152L61.4234 43.8651ZM61.4148 43.8738L61.3018 43.7607L61.272 43.7905L61.2608 43.8312L61.4148 43.8738ZM61.1118 43.899L59.4116 43.3342L59.3108 43.6376L61.011 44.2023L61.1118 43.899ZM59.3612 43.3261H59.353V43.6457H59.3612V43.3261ZM59.4036 43.3343C59.3367 43.3119 59.3024 43.2409 59.3211 43.1775L59.0146 43.0868C58.9487 43.3097 59.0665 43.5587 59.3023 43.6375L59.4036 43.3343ZM59.3197 43.1822L59.8837 41.4715L59.58 41.3714L59.0161 43.0821L59.3197 43.1822ZM59.8474 41.5319L59.8556 41.5233L59.6246 41.3024L59.6163 41.311L59.8474 41.5319ZM59.8935 41.4578C59.909 41.4048 59.9742 41.3646 60.0428 41.3876L60.1441 41.0844C59.91 41.0061 59.6551 41.1346 59.5867 41.3679L59.8935 41.4578ZM60.0431 41.3877L61.7433 41.9524L61.8441 41.649L60.1439 41.0843L60.0431 41.3877ZM61.7937 41.9605H61.8023V41.6409H61.7937V41.9605ZM61.7516 41.9523C61.8182 41.9745 61.8528 42.0454 61.834 42.1095L62.1408 42.1994C62.206 41.9772 62.0892 41.728 61.8529 41.6491L61.7516 41.9523ZM61.8356 42.1044L61.2716 43.8151L61.5752 43.9152L62.1392 42.2045L61.8356 42.1044ZM61.3104 43.7521L61.3018 43.7607L61.5278 43.9868L61.5365 43.9782L61.3104 43.7521ZM61.2608 43.8312C61.2458 43.8852 61.1862 43.9238 61.1121 43.899L61.0108 44.2022C61.2395 44.2787 61.4999 44.1658 61.5689 43.9164L61.2608 43.8312Z" fill="#0B2D1F" mask="url(#path-10-outside-3_5978_45256)"/>
</g>
</g>
<rect id="Rectangle 34624813" x="51.1973" y="44.1968" width="4.79517" height="1.59839" fill="#0B2D1F"/>
<rect id="Rectangle 34624814" x="51.1973" y="47.3936" width="4.79517" height="1.59839" fill="#0B2D1F"/>
<rect id="Rectangle 34624815" x="51.1973" y="50.5903" width="4.79517" height="1.59839" fill="#0B2D1F"/>
</g>
</g>
</svg>
