<svg width="72" height="72" viewBox="0 0 72 72" fill="none" xmlns="http://www.w3.org/2000/svg">
<g id="invoice">
<g id="Group 83">
<g id="Vector">
<path d="M19.2224 4.2024C15.5861 4.97774 12.7146 7.87892 11.9623 11.5179C11.7868 12.3683 11.7617 14.7441 11.7617 32.564V52.6346H9.88083H8V56.0737C8 59.8253 8.11284 60.763 8.7147 62.1887C9.83067 64.8399 12.1128 66.853 15.0093 67.7283C15.6613 67.9285 17.1409 67.9535 33.7675 67.991C46.9209 68.016 52.0243 67.9911 52.5761 67.891C53.5917 67.691 54.8957 66.9905 55.5728 66.2654C56.2372 65.5649 56.8142 64.4646 57.0148 63.5393C57.115 63.0639 57.1527 58.4371 57.1527 47.5701V32.2514H60.9143H64.6762V20.6842C64.6762 12.5434 64.6385 8.92934 64.538 8.46666C64.0743 6.31576 62.3438 4.59008 60.1873 4.12738C59.7106 4.02735 54.0682 3.98982 39.8113 4.00232C22.8085 4.01485 19.9747 4.03984 19.2224 4.2024ZM53.5666 8.079C53.5165 8.27908 53.4412 20.6967 53.4036 35.6903C53.3285 62.2387 53.3157 62.9641 53.0901 63.3515C52.8017 63.8269 52.0493 64.2643 51.5228 64.2643C50.8832 64.2643 50.1685 63.8269 49.88 63.2642C49.642 62.8014 49.6292 62.5388 49.6292 57.6992V52.6346H32.5763H15.5233V32.7515C15.5233 18.6208 15.561 12.6934 15.6613 12.2181C15.8871 11.1303 16.3885 10.2423 17.2036 9.42955C18.006 8.62924 18.7961 8.17906 19.8493 7.91643C20.3384 7.8039 24.2379 7.76637 37.0778 7.75387L53.6668 7.74138L53.5666 8.079ZM59.9113 7.99148C60.2371 8.15403 60.5007 8.41663 60.6635 8.74176C60.9143 9.21697 60.9143 9.45456 60.9143 18.871V28.4999H59.0335H57.1527V18.871C57.1527 9.46706 57.1527 9.21697 57.4035 8.74176C57.8674 7.82889 58.9584 7.50377 59.9113 7.99148ZM45.9053 60.0376C45.9304 62.0512 45.993 63.8269 46.0432 63.9767L46.1433 64.2643H31.5355C21.3037 64.2643 16.7145 64.227 16.2506 64.1268C14.6582 63.7892 13.141 62.6388 12.4137 61.1881C11.9121 60.2002 11.7617 59.3875 11.7617 57.7617V56.3863H28.802H45.8551L45.9053 60.0376Z" fill="#0B2D1F"/>
<path d="M45.9053 60.0376C45.9304 62.0512 45.993 63.8269 46.0432 63.9767L46.1433 64.2643H31.5355C21.3037 64.2643 16.7145 64.227 16.2506 64.1268C14.6582 63.7892 13.141 62.6388 12.4137 61.1881C11.9121 60.2002 11.7617 59.3875 11.7617 57.7617V56.3863H28.802H45.8551L45.9053 60.0376Z" fill="#62C89E"/>
<path d="M59.9113 7.99148C60.2371 8.15403 60.5007 8.41663 60.6635 8.74176C60.9143 9.21697 60.9143 9.45456 60.9143 18.871V28.4999H59.0335H57.1527V18.871C57.1527 9.46706 57.1527 9.21697 57.4035 8.74176C57.8674 7.82889 58.9584 7.50377 59.9113 7.99148Z" fill="#22885E"/>
</g>
<path id="Vector_2" d="M32.2011 12.8538V14.1043L31.4487 14.5045C28.5145 16.0551 27.875 19.8065 30.1448 22.0826C30.759 22.6953 31.5489 23.0956 34.1571 24.1334C36.226 24.9461 36.7528 25.2589 37.016 25.7966C37.3042 26.4093 37.2668 26.6844 36.828 27.1848C35.8248 28.3228 33.2043 28.185 31.7246 26.9221L31.2105 26.4843L29.8184 27.7599L28.4268 29.023L28.7152 29.3354C29.1667 29.8232 30.5836 30.7362 31.3861 31.0613L32.1385 31.3614L32.1759 32.6118L32.2136 33.8749H34.0819H35.9627V32.7621V31.649L36.552 31.5115C38.9093 30.9111 40.7527 28.8852 40.9407 26.6721C41.1037 24.7463 40.0631 22.9205 38.1948 21.8198C37.8684 21.6324 36.6648 21.0948 35.4987 20.6321C32.7778 19.5314 32.7526 19.5189 32.5898 19.1688C32.4142 18.7812 32.5773 18.3686 33.0661 17.956C33.8311 17.318 35.2731 17.3808 36.7151 18.1059L37.4548 18.4811L38.646 17.0804L39.8372 15.68L39.5238 15.4174C39.0599 15.0423 37.5301 14.3044 36.69 14.0543L35.9627 13.8541V12.7287V11.6157H34.0819H32.2011V12.8538Z" fill="#0B2D1F"/>
<path id="Vector_3" d="M19.2861 39.6288V41.5046H34.4585H49.6306V39.6288V37.7529H34.4585H19.2861V39.6288Z" fill="#0B2D1F"/>
<path id="Vector_4" d="M19.2861 47.1335V49.0093H34.4585H49.6306V47.1335V45.2578H34.4585H19.2861V47.1335Z" fill="#0B2D1F"/>
</g>
</g>
</svg>
