<svg width="72" height="72" viewBox="0 0 72 72" fill="none" xmlns="http://www.w3.org/2000/svg">
<g id="other-income">
<g id="Group">
<g id="Vector">
<path d="M36.5591 4.15764C36.0457 4.2579 35.144 4.45843 34.5555 4.60882C33.6288 4.85948 33.466 4.94721 33.203 5.33573C32.9901 5.64905 32.9275 5.88717 32.9651 6.1629C33.0026 6.36342 33.7665 7.85483 34.6556 9.47157L36.2836 12.4043L35.7075 12.68C34.9687 13.0184 34.2674 13.7453 33.9043 14.5474C33.466 15.5249 33.5035 16.8534 34.0045 17.8435L34.3927 18.583L34.0045 18.8085C33.203 19.2723 31.5876 20.6258 30.6484 21.6034C27.2171 25.2128 25.0257 30.1382 24.8253 34.7503L24.7502 36.3921L23.9362 36.6679C21.6195 37.4198 20.0792 38.4099 17.0863 41.0293L14.9574 42.9092L14.5191 42.5458C14.1685 42.2575 13.9681 42.1823 13.4672 42.1823H12.841L8.42052 46.6064L4 51.0305V51.7073V52.3966L11.8017 60.192L19.5908 68H20.2795H20.9558L25.3763 63.5759L29.7968 59.1518V58.5502C29.7968 58.1492 29.7092 57.8359 29.5464 57.5852L29.2834 57.2343L39.0386 57.1967L48.7938 57.1591L49.8457 56.6327C50.8475 56.1314 51.2983 55.7303 59.0624 48.4487C68.6298 39.4878 67.9911 40.2397 67.9911 37.7332C67.9911 36.3295 67.9661 36.1665 67.653 35.5274C67.2022 34.6375 66.3507 33.7978 65.424 33.3467C64.8104 33.0459 64.4848 32.9707 63.5331 32.9331C61.9928 32.8579 61.5169 33.0333 59.3004 34.4871C58.3111 35.1389 57.472 35.6652 57.447 35.6652C57.4094 35.6652 57.3468 35.0887 57.3093 34.3744C57.0338 29.9753 54.7797 25.0374 51.411 21.5282C50.4844 20.5631 48.0925 18.6206 47.8295 18.6206C47.7669 18.6206 47.9047 18.2822 48.1176 17.856C48.4557 17.1918 48.5058 16.9537 48.5183 16.1265C48.5183 15.3996 48.4432 15.0236 48.2303 14.5474C47.8671 13.7453 47.1658 13.0184 46.427 12.68L45.851 12.3917L47.4789 9.4841C48.368 7.8799 49.1319 6.38848 49.1695 6.1629C49.2571 5.57385 48.7813 4.94721 48.08 4.73415C45.9386 4.10751 45.4127 4.04484 41.3803 4.00724C38.425 3.98218 37.2729 4.01978 36.5591 4.15764ZM44.3858 6.66421C45.1372 6.76447 45.7758 6.87727 45.8009 6.8898C45.8134 6.91487 45.2248 8.03029 44.486 9.35877L43.146 11.7901H41.0673H38.9885L37.6736 9.43397C36.9598 8.13055 36.3587 7.02766 36.3337 6.97753C36.2836 6.83967 38.1119 6.56395 39.6272 6.47622C41.4179 6.37596 42.6827 6.42609 44.3858 6.66421ZM44.3232 14.7228C45.7383 15.1364 46.2016 15.7631 45.7633 16.6153C45.4502 17.2169 45.1121 17.3171 44.1103 17.0539C43.5969 16.9161 42.5825 16.8033 41.5557 16.7657C40.1281 16.7156 39.6272 16.7532 38.4625 16.9913C36.9223 17.2921 36.6968 17.2545 36.3587 16.6028C35.9204 15.7505 36.4213 15.1239 37.8114 14.7479C39.2014 14.3719 39.2139 14.3719 41.3803 14.422C42.9958 14.4471 43.5718 14.5098 44.3232 14.7228ZM43.3965 19.6232C48.2678 20.8639 52.7635 26.0024 54.3038 32.0808C54.5543 33.0835 54.6294 33.7728 54.6795 35.4146L54.7421 37.4825L51.7617 39.4376L48.7688 41.3927L48.2052 40.8914C47.8922 40.6157 47.3286 40.2397 46.953 40.0643C46.3143 39.7635 46.1139 39.7384 44.2981 39.7008L42.3195 39.6507V38.9864V38.3222L42.9958 37.9337C44.2105 37.2569 44.8116 36.154 44.8241 34.6626C44.8241 33.6349 44.5361 32.8203 43.8974 32.0683C43.4842 31.5795 42.1693 30.9028 41.6433 30.9028C41.0172 30.9028 40.341 30.6646 40.1281 30.3638C39.5896 29.5993 40.1156 28.5215 41.0297 28.5215C41.4805 28.5215 41.6809 28.6092 42.4949 29.1983C42.6952 29.3361 43.0208 29.4239 43.3589 29.4239C43.7847 29.4113 43.9475 29.3361 44.2355 29.0228C44.9869 28.1831 44.4609 27.0301 42.9958 26.3157L42.3195 25.9899V25.0123C42.3195 24.135 42.2945 24.0097 41.994 23.7089C41.731 23.4457 41.5431 23.383 41.0673 23.383C40.5914 23.383 40.4036 23.4457 40.1406 23.7089C39.84 24.0097 39.815 24.135 39.815 25.0123V25.9899L39.1388 26.3784C37.9241 27.0552 37.323 28.1581 37.3105 29.662C37.3105 30.4766 37.3605 30.7273 37.6987 31.379C37.899 31.8051 38.2622 32.2939 38.4751 32.4819C39.0135 32.9331 40.0404 33.4093 40.5038 33.4093C41.1299 33.4093 41.7936 33.6474 42.0065 33.9482C42.307 34.3869 42.2444 35.0762 41.8687 35.4647C41.3052 36.0162 40.391 35.8658 39.6898 35.1013C38.713 34.0234 37.1852 34.4621 37.1852 35.8031C37.1852 36.2417 37.2729 36.4047 37.8239 36.9937C38.187 37.3572 38.7756 37.8209 39.1388 37.9963L39.815 38.3222V39.0115V39.7008L39.4143 39.6131C39.1889 39.563 38.3874 39.1118 37.6235 38.6105C34.831 36.7431 32.1636 35.9159 28.9453 35.9159H27.3799L27.4551 34.625C27.718 30.0129 30.6484 24.6238 34.4428 21.7663C35.6575 20.8389 37.4357 19.949 38.688 19.6232C40.0028 19.2848 42.0691 19.2848 43.3965 19.6232ZM64.4096 35.8407C65.3864 36.4047 65.7871 37.7958 65.2737 38.7734C65.1485 38.999 61.5044 42.5082 57.159 46.5688C51.0855 52.2713 49.1069 54.0509 48.5809 54.3141L47.8922 54.6525L37.3105 54.6901L26.7288 54.7277L21.7823 49.7647C16.9109 44.8894 16.8483 44.8142 17.0863 44.5886C18.0255 43.7113 20.4924 41.6058 21.2062 41.0669C23.3977 39.4 26.04 38.5227 28.8326 38.5353C31.7128 38.5353 34.1798 39.3624 36.6468 41.1546C37.1226 41.5055 37.6861 41.869 37.8865 41.9567C38.137 42.057 39.3892 42.1322 41.8186 42.1823C45.1372 42.245 45.4252 42.2701 45.8885 42.5207C46.7651 42.9844 47.2034 43.6988 47.2034 44.6889C47.2034 45.679 46.7776 46.3934 45.8885 46.8696C45.4001 47.1203 45.2248 47.1328 40.4161 47.1704L35.4446 47.208L35.1315 47.5338C34.6682 47.9976 34.6682 48.8999 35.144 49.3762L35.4821 49.7146L40.8669 49.677L46.2642 49.6394L47.0156 49.2759C47.9673 48.7997 48.9315 47.8472 49.3949 46.8947C49.6954 46.2806 49.7706 45.9422 49.8081 45.0022L49.8582 43.8617L56.057 39.8011C59.4757 37.5577 62.3559 35.6903 62.4686 35.6402C62.9445 35.4396 63.8962 35.5399 64.4096 35.8407ZM20.0917 51.9579L26.6035 58.475L23.4353 61.6333L20.2795 64.8041L13.7427 58.262L7.1933 51.7073L10.324 48.5741C12.0396 46.8571 13.4797 45.4409 13.5173 45.4409C13.5548 45.4409 16.5102 48.3736 20.0917 51.9579Z" fill="#0B2D1F"/>
<path d="M20.0917 51.9579L26.6035 58.475L23.4353 61.6333L20.2795 64.8041L13.7427 58.262L7.1933 51.7073L10.324 48.5741C12.0396 46.8571 13.4797 45.4409 13.5173 45.4409C13.5548 45.4409 16.5102 48.3736 20.0917 51.9579Z" fill="#22885E"/>
<path d="M64.4096 35.8407C65.3864 36.4047 65.7871 37.7958 65.2737 38.7734C65.1485 38.999 61.5044 42.5082 57.159 46.5688C51.0855 52.2713 49.1069 54.0509 48.5809 54.3141L47.8922 54.6525L37.3105 54.6901L26.7288 54.7277L21.7823 49.7647C16.9109 44.8894 16.8483 44.8142 17.0863 44.5886C18.0255 43.7113 20.4924 41.6058 21.2062 41.0669C23.3977 39.4 26.04 38.5227 28.8326 38.5353C31.7128 38.5353 34.1798 39.3624 36.6468 41.1546C37.1226 41.5055 37.6861 41.869 37.8865 41.9567C38.137 42.057 39.3892 42.1322 41.8186 42.1823C45.1372 42.245 45.4252 42.2701 45.8885 42.5207C46.7651 42.9844 47.2034 43.6988 47.2034 44.6889C47.2034 45.679 46.7776 46.3934 45.8885 46.8696C45.4001 47.1203 45.2248 47.1328 40.4161 47.1704L35.4446 47.208L35.1315 47.5338C34.6682 47.9976 34.6682 48.8999 35.144 49.3762L35.4821 49.7146L40.8669 49.677L46.2642 49.6394L47.0156 49.2759C47.9673 48.7997 48.9315 47.8472 49.3949 46.8947C49.6954 46.2806 49.7706 45.9422 49.8081 45.0022L49.8582 43.8617L56.057 39.8011C59.4757 37.5577 62.3559 35.6903 62.4686 35.6402C62.9445 35.4396 63.8962 35.5399 64.4096 35.8407Z" fill="#CBEDDF"/>
<path d="M44.3232 14.7228C45.7383 15.1364 46.2016 15.7631 45.7633 16.6153C45.4502 17.2169 45.1121 17.3171 44.1103 17.0539C43.5969 16.9161 42.5825 16.8033 41.5557 16.7657C40.1281 16.7156 39.6272 16.7532 38.4625 16.9913C36.9223 17.2921 36.6968 17.2545 36.3587 16.6028C35.9204 15.7505 36.4213 15.1239 37.8114 14.7479C39.2014 14.3719 39.2139 14.3719 41.3803 14.422C42.9958 14.4471 43.5718 14.5098 44.3232 14.7228Z" fill="#62C89E"/>
</g>
</g>
</g>
</svg>
