<svg width="72" height="72" viewBox="0 0 72 72" fill="none" xmlns="http://www.w3.org/2000/svg">
<g id="recurring-invoice">
<rect id="Rectangle 34624836" x="9" y="12" width="55" height="14" fill="#62C89E"/>
<g id="Group 1171275109">
<path id="Subtract" d="M61.5882 9.01961H53.4314V5.88235C53.4314 5.38312 53.2331 4.90434 52.88 4.55133C52.527 4.19832 52.0482 4 51.549 4C51.0498 4 50.571 4.19832 50.218 4.55133C49.865 4.90434 49.6667 5.38312 49.6667 5.88235V9.01961H23.3137V5.88235C23.3137 5.38312 23.1154 4.90434 22.7624 4.55133C22.4094 4.19832 21.9306 4 21.4314 4C20.9321 4 20.4534 4.19832 20.1003 4.55133C19.7473 4.90434 19.549 5.38312 19.549 5.88235V9.01961H11.3922C10.2273 9.01961 9.11012 9.48235 8.28643 10.306C7.46274 11.1297 7 12.2469 7 13.4118V63.6078C7 64.7727 7.46274 65.8899 8.28643 66.7136C9.11012 67.5373 10.2273 68 11.3922 68H61.5882C62.7531 68 63.8703 67.5373 64.694 66.7136C65.5176 65.8899 65.9804 64.7727 65.9804 63.6078V13.4118C65.9804 12.2469 65.5176 11.1297 64.694 10.306C63.8703 9.48235 62.7531 9.01961 61.5882 9.01961ZM11.3922 12.7843H19.549V15.9216C19.549 16.4208 19.7473 16.8996 20.1003 17.2526C20.4534 17.6056 20.9321 17.8039 21.4314 17.8039C21.9306 17.8039 22.4094 17.6056 22.7624 17.2526C23.1154 16.8996 23.3137 16.4208 23.3137 15.9216V12.7843H49.6667V15.9216C49.6667 16.4208 49.865 16.8996 50.218 17.2526C50.571 17.6056 51.0498 17.8039 51.549 17.8039C52.0482 17.8039 52.527 17.6056 52.88 17.2526C53.2331 16.8996 53.4314 16.4208 53.4314 15.9216V12.7843H61.5882C61.7546 12.7843 61.9142 12.8504 62.0319 12.9681C62.1496 13.0858 62.2157 13.2454 62.2157 13.4118V24.0784H10.7647V13.4118C10.7647 13.2454 10.8308 13.0858 10.9485 12.9681C11.0662 12.8504 11.2257 12.7843 11.3922 12.7843ZM61.5882 64.2353H11.3922C11.2257 64.2353 11.0662 64.1692 10.9485 64.0515C10.8308 63.9338 10.7647 63.7743 10.7647 63.6078V27.8431H62.2157V63.6078C62.2157 63.7743 62.1496 63.9338 62.0319 64.0515C61.9142 64.1692 61.7546 64.2353 61.5882 64.2353Z" fill="#0B2D1F"/>
</g>
<g id="Group 84">
<g id="Vector">
<path d="M27.6112 30.1012C25.7931 30.4889 24.3573 31.9395 23.9812 33.759C23.8934 34.1841 23.8808 35.3721 23.8808 44.282V54.3173H22.9404H22V56.0368C22 57.9127 22.0564 58.3815 22.3574 59.0943C22.9153 60.4199 24.0564 61.4265 25.5046 61.8642C25.8307 61.9642 26.5704 61.9767 34.8838 61.9955C41.4605 62.008 44.0122 61.9956 44.288 61.9455C44.7959 61.8455 45.4479 61.4952 45.7864 61.1327C46.1186 60.7825 46.4071 60.2323 46.5074 59.7696C46.5575 59.5319 46.5763 57.2185 46.5763 51.785V44.1257H48.4571H50.3381V38.3421C50.3381 34.2717 50.3192 32.4647 50.269 32.2333C50.0371 31.1579 49.1719 30.295 48.0936 30.0637C47.8553 30.0137 45.0341 29.9949 37.9057 30.0012C29.4042 30.0074 27.9873 30.0199 27.6112 30.1012ZM44.7833 32.0395C44.7582 32.1395 44.7206 38.3484 44.7018 45.8451C44.6642 59.1193 44.6579 59.482 44.5451 59.6757C44.4008 59.9134 44.0246 60.1322 43.7614 60.1322C43.4416 60.1322 43.0842 59.9134 42.94 59.6321C42.821 59.4007 42.8146 59.2694 42.8146 56.8496V54.3173H34.2882H25.7617V44.3757C25.7617 37.3104 25.7805 34.3467 25.8307 34.1091C25.9435 33.5652 26.1942 33.1212 26.6018 32.7148C27.003 32.3146 27.3981 32.0895 27.9246 31.9582C28.1692 31.9019 30.1189 31.8832 36.5389 31.8769L44.8334 31.8707L44.7833 32.0395ZM47.9556 31.9957C48.1186 32.077 48.2503 32.2083 48.3317 32.3709C48.4571 32.6085 48.4571 32.7273 48.4571 37.4355V42.25H47.5167H46.5763V37.4355C46.5763 32.7335 46.5763 32.6085 46.7017 32.3709C46.9337 31.9144 47.4792 31.7519 47.9556 31.9957ZM40.9527 58.0188C40.9652 59.0256 40.9965 59.9134 41.0216 59.9884L41.0717 60.1322H33.7677C28.6519 60.1322 26.3573 60.1135 26.1253 60.0634C25.3291 59.8946 24.5705 59.3194 24.2068 58.594C23.9561 58.1001 23.8808 57.6938 23.8808 56.8808V56.1931H32.401H40.9276L40.9527 58.0188Z" fill="#0B2D1F"/>
<path d="M44.7833 32.0395C44.7582 32.1395 44.7206 38.3484 44.7018 45.8451C44.6642 59.1193 44.6579 59.482 44.5451 59.6757C44.4008 59.9134 44.0246 60.1322 43.7614 60.1322C43.4416 60.1322 43.0842 59.9134 42.94 59.6321C42.821 59.4007 42.8146 59.2694 42.8146 56.8496V54.3173H34.2882H25.7617V44.3757C25.7617 37.3104 25.7805 34.3467 25.8307 34.1091C25.9435 33.5652 26.1942 33.1212 26.6018 32.7148C27.003 32.3146 27.3981 32.0895 27.9246 31.9582C28.1692 31.9019 30.1189 31.8832 36.5389 31.8769L44.8334 31.8707L44.7833 32.0395Z" fill="#22885E"/>
</g>
<path id="Vector_2" d="M34.101 34.4272V35.0524L33.7249 35.2525C32.2577 36.0278 31.938 37.9035 33.0729 39.0416C33.38 39.3479 33.7749 39.548 35.0791 40.0669C36.1135 40.4733 36.3769 40.6297 36.5085 40.8985C36.6526 41.2049 36.6339 41.3425 36.4145 41.5927C35.9129 42.1616 34.6026 42.0927 33.8628 41.4613L33.6058 41.2424L32.9097 41.8802L32.2139 42.5117L32.3581 42.668C32.5838 42.9118 33.2923 43.3683 33.6935 43.5309L34.0697 43.6809L34.0884 44.3062L34.1073 44.9377H35.0414H35.9818V44.3813V43.8247L36.2765 43.756C37.4551 43.4558 38.3768 42.4428 38.4708 41.3363C38.5523 40.3734 38.032 39.4605 37.0979 38.9102C36.9347 38.8164 36.3329 38.5476 35.7498 38.3163C34.3894 37.766 34.3768 37.7597 34.2954 37.5847C34.2076 37.3909 34.2891 37.1846 34.5336 36.9783C34.916 36.6592 35.637 36.6907 36.358 37.0532L36.7279 37.2408L37.3235 36.5404L37.9191 35.8402L37.7624 35.7089C37.5304 35.5214 36.7655 35.1524 36.3455 35.0274L35.9818 34.9273V34.3646V33.8081H35.0414H34.101V34.4272Z" fill="#0B2D1F"/>
<path id="Vector_3" d="M27.6416 47.8144V48.7523H35.2278H42.8138V47.8144V46.8765H35.2278H27.6416V47.8144Z" fill="#0B2D1F"/>
<path id="Vector_4" d="M27.6416 51.5667V52.5046H35.2278H42.8138V51.5667V50.6289H35.2278H27.6416V51.5667Z" fill="#0B2D1F"/>
</g>
</g>
</svg>
