<svg xmlns="http://www.w3.org/2000/svg" version="1.0" preserveAspectRatio="xMidYMid meet" viewBox="125 83.26 102.3 101.74">

<g transform="translate(0.000000,267.000000) scale(0.100000,-0.100000)" fill="#000000" stroke="none">
<path d="M1705 1827 c-107 -44 -164 -122 -164 -227 0 -85 45 -164 128 -225 27 -21 48 -48 65 -87 17 -40 31 -58 43 -58 29 0 40 13 52 56 8 28 23 51 47 69 95 73 154 163 154 237 0 81 -53 171 -126 214 -52 31 -151 41 -199 21z m137 -175 c65 -67 -25 -181 -100 -125 -73 55 -34 162 53 147 16 -2 38 -12 47 -22z"/>
<path d="M2107 1673 c-3 -5 -2 -23 0 -40 5 -31 8 -33 44 -33 l39 0 0 -94 0 -94 -30 -12 c-54 -23 -56 -41 -9 -136 l41 -85 -21 -55 c-11 -31 -21 -78 -21 -105 l0 -49 -57 -25 c-101 -45 -107 -44 -232 35 -34 22 -71 40 -80 40 -9 0 -35 -18 -56 -40 l-39 -40 -106 0 -106 0 -36 38 c-48 49 -67 116 -44 160 23 44 20 58 -19 135 -19 38 -35 74 -35 82 0 30 63 162 88 182 21 18 26 30 23 55 -1 18 -4 35 -6 36 -6 6 -90 -35 -101 -49 -6 -8 -29 -63 -52 -122 l-42 -108 39 -81 40 -81 -20 -39 -20 -39 26 -79 c22 -64 36 -86 76 -124 l49 -46 138 0 138 0 33 34 c39 40 40 40 151 -28 41 -25 79 -46 85 -46 13 0 170 62 212 83 30 16 32 19 35 89 2 40 12 103 22 139 l19 65 -33 67 c-18 37 -31 69 -29 70 2 2 16 11 32 20 l27 17 0 145 c0 132 -2 145 -19 155 -23 12 -138 14 -144 3z"/>
<path d="M1540 1183 c-41 -15 -55 -84 -21 -103 34 -18 69 -12 87 15 14 21 14 30 4 55 -7 17 -16 30 -20 30 -5 0 -14 2 -22 4 -7 3 -20 2 -28 -1z"/>
</g>
</svg>