<svg width="72" height="72" viewBox="0 0 72 72" fill="none" xmlns="http://www.w3.org/2000/svg">
<path d="M23.9123 32.4348L22.4902 40.9674L29.6008 43.8116L42.3998 40.9674L48.7993 34.5679L50.9324 25.3242L34.5782 23.9021L23.9123 32.4348Z" fill="#22885E" stroke="#0B2D1F" stroke-width="1.42211"/>
<path d="M11.4994 4.24163C7.97469 5.15406 5.13741 8.00384 4.24998 11.5411C4 12.516 4 12.9784 4 35.9891C4 58.9998 4 59.4622 4.24998 60.4372C4.38747 60.9746 4.76244 61.962 5.07491 62.612C5.58737 63.6369 5.83735 63.9619 6.92477 65.0493C7.99968 66.1242 8.36215 66.3992 9.37457 66.8992C11.6994 68.0616 10.612 67.9866 26.5357 67.9866H40.5346L41.0721 67.6741C41.8595 67.2116 42.247 66.4867 42.247 65.4868C42.247 64.4868 41.8595 63.7619 41.0721 63.2994L40.5346 62.987H27.4231C19.2988 62.987 13.9867 62.937 13.4368 62.862C12.2493 62.687 11.3744 62.2495 10.5495 61.4371C9.73705 60.6122 9.29958 59.7372 9.12459 58.5498C8.96211 57.3499 8.96211 14.6283 9.12459 13.4284C9.29958 12.241 9.73705 11.3661 10.5495 10.5411C11.3744 9.7287 12.2493 9.29123 13.4368 9.11625C14.6367 8.95376 57.3583 8.95376 58.5582 9.11625C59.7456 9.29123 60.6205 9.7287 61.4455 10.5411C62.2579 11.3661 62.6954 12.241 62.8703 13.4284C62.9453 13.9659 62.9953 19.1279 62.9953 26.9148V39.5263L63.3078 40.0638C63.7703 40.8512 64.4952 41.2387 65.4951 41.2387C66.4951 41.2387 67.22 40.8512 67.6825 40.0638L67.9949 39.5263V26.0274C67.9949 12.9659 67.9824 12.5035 67.745 11.5411C66.845 7.99134 63.9952 5.14156 60.4455 4.24163C59.4706 3.99165 59.0081 3.99165 35.9475 4.00415C13.1243 4.00415 12.4118 4.01665 11.4994 4.24163Z" fill="#0B2D1F"/>
<path d="M50.915 42.4271C46.9278 43.452 43.8155 46.5767 42.8031 50.5764C42.3781 52.2638 42.3781 54.4636 42.8031 56.151C43.828 60.1757 46.9278 63.2754 50.9775 64.3128C52.0774 64.6003 52.3648 64.6253 54.0647 64.5753C56.1645 64.5128 57.152 64.2878 58.6268 63.5629L59.4768 63.1379L61.5141 65.2003C64.0389 67.7376 64.3889 67.9875 65.4888 67.9875C67.0262 67.9875 68.0011 67.0251 68.0011 65.5002C68.0011 65.0378 67.9261 64.5628 67.8011 64.3253C67.6886 64.1004 66.6137 62.9379 65.4138 61.7255L63.239 59.5257L63.589 58.9133C64.5764 57.2134 65.0013 55.5635 65.0013 53.3512C65.0013 52.0888 64.9388 51.5264 64.7014 50.5764C63.6764 46.5642 60.5517 43.4395 56.5395 42.4146C54.8646 41.9896 52.5773 42.0021 50.915 42.4271ZM56.2895 47.7642C57.9269 48.5516 59.1768 50.0015 59.7018 51.7263C59.9267 52.4638 59.9267 54.2636 59.7018 55.0011C59.1768 56.7259 57.9144 58.1883 56.2895 58.9633C55.3271 59.4257 55.3021 59.4257 53.7522 59.4257C52.2024 59.4257 52.1774 59.4257 51.2149 58.9633C49.8775 58.3258 48.7901 57.2259 48.1527 55.901C47.6902 54.9386 47.6902 54.9136 47.6902 53.3637C47.6902 51.8138 47.6902 51.7888 48.1527 50.8264C48.9151 49.239 50.3525 47.9766 52.0649 47.4142C52.3898 47.3017 53.0523 47.2517 53.9397 47.2767C55.2396 47.3017 55.3646 47.3267 56.2895 47.7642Z" fill="#0B2D1F"/>
<path d="M35.8271 22.5978C33.0734 23.0912 30.0063 24.6314 27.3593 26.8518C26.5791 27.5052 25.1456 28.9721 24.5322 29.7322C23.372 31.1857 22.1652 33.2927 21.5984 34.8662C20.9383 36.6998 20.6183 38.5468 20.5983 40.5671L20.5916 41.9006L20.0315 42.734C18.898 44.4143 18.2246 46.2679 18.2246 47.6614C18.2313 48.6216 18.8647 49.2683 19.8048 49.2683C20.2649 49.2683 20.6383 49.1083 20.9383 48.7949C21.205 48.5082 21.3317 48.2082 21.3917 47.7014C21.4717 47.0547 21.7384 46.2212 22.0985 45.5411C22.5852 44.5943 22.4319 44.6743 23.592 44.7743C25.7924 44.9677 28.1994 45.2144 29.5262 45.3878C30.7731 45.5478 31.1398 45.5678 32.86 45.5678C34.907 45.5611 35.6204 45.4878 37.054 45.1277C41.7413 43.9542 46.3886 40.427 49.0624 35.9997C50.5159 33.5994 51.5494 30.739 52.0561 27.7319C52.3895 25.7716 52.4362 24.8048 52.2361 24.3581C52.0828 24.0114 51.6361 23.6313 51.276 23.538C51.1227 23.498 49.229 23.3313 47.0621 23.1646C44.9018 22.9979 41.9947 22.7712 40.6145 22.6645C37.7341 22.4378 36.8206 22.4245 35.8271 22.5978ZM41.8947 25.965C47.8689 26.425 48.969 26.5184 48.9957 26.5451C49.0424 26.5851 48.709 28.272 48.5023 29.0654C47.6555 32.3059 46.1286 35.0929 43.975 37.3399C41.7613 39.6536 38.9009 41.3738 36.1272 42.0606C34.3803 42.494 32.5667 42.5407 29.8929 42.214C28.9595 42.0939 27.5659 41.9406 26.7925 41.8673C26.0257 41.7939 25.3656 41.7206 25.3323 41.7139C25.2056 41.6739 26.9192 40.347 28.1994 39.4802C30.6397 37.8533 33.9269 36.1131 36.7939 34.9396C37.3473 34.7129 37.9808 34.4529 38.2075 34.3595C38.9809 34.0395 39.3343 33.4994 39.281 32.7059C39.2476 32.1925 39.0343 31.8258 38.5675 31.4991C38.3075 31.3191 38.2341 31.2991 37.7407 31.2991C37.2207 31.2991 37.1407 31.3257 36.1672 31.7191C32.5867 33.1793 29.5262 34.7462 26.8192 36.4998C26.0791 36.9799 24.8056 37.9 24.3388 38.2867C24.1655 38.4334 24.0054 38.5334 23.9854 38.5134C23.9588 38.4934 24.0054 38.1867 24.0854 37.8333C24.9256 34.0261 27.4459 30.499 31.0598 28.0986C32.0799 27.4185 32.74 27.0518 33.6668 26.6384C35.2604 25.9316 36.7006 25.5716 37.6607 25.6449C37.8474 25.6583 39.7477 25.805 41.8947 25.965Z" fill="#0B2D1F"/>
</svg>
