<svg width="72" height="72" viewBox="0 0 72 72" fill="none" xmlns="http://www.w3.org/2000/svg">
<rect x="13" y="31" width="28" height="30" fill="#2894B4"/>
<path d="M56.8012 20.1028C54.4335 22.4386 53.8255 25.7982 54.9454 28.6779L45.6024 38.0209V31.3976C45.6024 29.6378 44.1626 28.1979 42.4028 28.1979H39.1071C39.2031 27.654 39.2031 27.1421 39.2031 26.5981C39.2031 16.8712 31.332 9.00001 21.605 9.00001C17.9804 8.99661 14.4433 10.1131 11.4774 12.1968C8.51163 14.2804 6.26198 17.2295 5.03624 20.6406C3.8105 24.0516 3.66854 27.7581 4.62976 31.2529C5.59099 34.7477 7.60847 37.8602 10.4062 40.1647V60.1945C10.4062 61.9543 11.8461 63.3941 13.6059 63.3941H42.4028C44.1626 63.3941 45.6024 61.9543 45.6024 60.1945V47.0439L59.4569 33.1894C62.3366 34.3093 65.6962 33.7333 68 31.3976L56.8012 20.1028ZM10.5662 28.1979C10.5022 27.654 10.4062 27.1421 10.4062 26.5981C10.4062 20.4228 15.4297 15.3993 21.605 15.3993C27.7803 15.3993 32.8038 20.4228 32.8038 26.5981C32.8038 27.1421 32.7078 27.654 32.6438 28.1979M39.2031 56.9948H16.8055V34.5973H39.2031V56.9948Z" fill="#0D313B"/>
</svg>
