<svg width="72" height="72" viewBox="0 0 72 72" fill="none" xmlns="http://www.w3.org/2000/svg">
<path d="M33.7834 4.06294C30.8926 4.33832 28.7653 4.75139 26.4377 5.48992C19.1044 7.84319 13.0226 12.5748 8.91801 19.1339L8.25477 20.1853V17.6193C8.25477 15.2034 8.22974 15.0282 7.96695 14.5525C7.64158 13.9642 6.81566 13.4885 6.11487 13.4885C5.41409 13.4885 4.6257 13.9767 4.28782 14.6151L4 15.1533V20.7361C4 26.2938 4 26.3188 4.28782 26.8195C4.66324 27.4704 5.23889 27.846 6.03979 27.9461C6.40269 27.9962 8.86796 28.0087 11.5209 27.9837L16.3388 27.9461L16.8769 27.5956C17.4526 27.2076 17.8906 26.4565 17.8906 25.8182C17.8906 25.1798 17.4526 24.4287 16.8769 24.0407C16.3513 23.6902 16.3388 23.6902 13.8611 23.6526C12.497 23.6276 11.3833 23.565 11.3833 23.5275C11.3833 23.3522 12.3969 21.5873 13.0602 20.5859C14.4993 18.4329 16.6767 16.0421 18.6414 14.4524C29.6788 5.52747 45.6592 6.35362 55.6829 16.3675C59.775 20.4607 62.428 25.5553 63.4541 31.3258C63.8296 33.4663 63.9172 37.1589 63.6419 39.362C62.1402 51.1533 53.4679 60.6165 41.8674 63.12C39.7401 63.5831 37.938 63.7208 35.2475 63.6457C30.9302 63.533 27.5139 62.6693 23.6095 60.7166C19.0919 58.4635 15.0999 54.7834 12.4345 50.4023C9.94416 46.3216 8.37991 40.9266 8.37991 36.3953C8.37991 35.2938 8.017 34.5803 7.25365 34.1798C6.18995 33.6165 4.96358 33.9795 4.40045 35.0309C4.11263 35.5692 4.10011 35.6443 4.1752 37.4593C4.76336 52.7055 16.1636 65.3481 31.4683 67.7138C33.7834 68.0643 38.1007 68.1019 40.3532 67.7764C47.4487 66.75 53.7307 63.6207 58.6863 58.6763C63.7169 53.6318 66.7954 47.3606 67.8466 39.9628C68.0593 38.4732 68.0468 33.5539 67.8341 32.0143C66.42 21.75 60.676 13.1881 51.8286 8.13109C47.0608 5.4023 41.3544 3.92525 35.8482 4.00035C34.9597 4.00035 34.0212 4.0379 33.7834 4.06294Z" fill="#0B2D1F"/>
<mask id="path-2-outside-1_6356_46251" maskUnits="userSpaceOnUse" x="18" y="20" width="37" height="30" fill="black">
<rect fill="white" x="18" y="20" width="37" height="30"/>
<path d="M37.0509 21.6502C34.227 22.1561 31.0818 23.7356 28.3673 26.0125C27.5673 26.6825 26.0973 28.1868 25.4682 28.9662C24.2785 30.4568 23.0409 32.6175 22.4598 34.2311C21.7828 36.1114 21.4546 38.0054 21.4341 40.0771L21.4273 41.4446L20.853 42.2993C19.6906 44.0223 19 45.9231 19 47.3522C19.0068 48.3368 19.6564 49 20.6205 49C21.0923 49 21.4752 48.8359 21.7828 48.5145C22.0563 48.2205 22.1863 47.9128 22.2478 47.3932C22.3298 46.73 22.6033 45.8753 22.9726 45.1779C23.4717 44.2069 23.3144 44.289 24.5042 44.3916C26.7605 44.5898 29.2288 44.8428 30.5895 45.0206C31.8681 45.1847 32.2442 45.2052 34.0082 45.2052C36.1073 45.1984 36.8389 45.1232 38.309 44.7539C43.1157 43.5505 47.8814 39.9335 50.6232 35.3935C52.1138 32.932 53.1736 29.9987 53.6933 26.915C54.0351 24.9048 54.083 23.9134 53.8779 23.4553C53.7206 23.0997 53.2625 22.71 52.8933 22.6143C52.736 22.5732 50.7942 22.4023 48.572 22.2314C46.3567 22.0604 43.3755 21.8279 41.9602 21.7185C39.0064 21.4861 38.0697 21.4724 37.0509 21.6502ZM43.273 25.1031C49.3993 25.5749 50.5275 25.6706 50.5549 25.6979C50.6027 25.739 50.2609 27.4688 50.0489 28.2825C49.1805 31.6055 47.6148 34.4636 45.4063 36.7678C43.1362 39.1404 40.203 40.9044 37.3586 41.6087C35.5672 42.0531 33.7074 42.101 30.9656 41.766C30.0083 41.6429 28.5793 41.4856 27.7861 41.4104C26.9998 41.3352 26.3229 41.26 26.2887 41.2532C26.1588 41.2121 27.916 39.8515 29.2288 38.9626C31.7313 37.2943 35.1022 35.5097 38.0423 34.3063C38.6098 34.0738 39.2594 33.8072 39.4919 33.7114C40.285 33.3832 40.6474 32.8294 40.5927 32.0158C40.5585 31.4893 40.3397 31.1132 39.8611 30.7782C39.5944 30.5936 39.5192 30.5731 39.0132 30.5731C38.4799 30.5731 38.3979 30.6004 37.3996 31.0038C33.7279 32.5012 30.5895 34.108 27.8135 35.9063C27.0545 36.3986 25.7486 37.3421 25.2699 37.7387C25.0922 37.8891 24.9281 37.9917 24.9076 37.9712C24.8802 37.9507 24.9281 37.6361 25.0101 37.2738C25.8716 33.3696 28.4562 29.7526 32.1621 27.2911C33.2082 26.5937 33.8851 26.2176 34.8356 25.7937C36.4697 25.0689 37.9466 24.6997 38.9312 24.7749C39.1226 24.7886 41.0713 24.939 43.273 25.1031Z"/>
<path d="M43.273 25.1031C49.3993 25.5749 50.5275 25.6706 50.5549 25.6979C50.6027 25.739 50.2609 27.4688 50.0489 28.2825C49.1805 31.6055 47.6148 34.4636 45.4063 36.7678C43.1362 39.1404 40.203 40.9044 37.3586 41.6087C35.5672 42.0531 33.7074 42.101 30.9656 41.766C30.0083 41.6429 28.5793 41.4856 27.7861 41.4104C26.9998 41.3352 26.3229 41.26 26.2887 41.2532C26.1588 41.2121 27.916 39.8515 29.2288 38.9626C31.7313 37.2943 35.1022 35.5097 38.0423 34.3063C38.6098 34.0738 39.2594 33.8072 39.4919 33.7114C40.285 33.3832 40.6474 32.8294 40.5927 32.0158C40.5585 31.4893 40.3397 31.1132 39.8611 30.7782C39.5944 30.5936 39.5192 30.5731 39.0132 30.5731C38.4799 30.5731 38.3979 30.6004 37.3996 31.0038C33.7279 32.5012 30.5895 34.108 27.8135 35.9063C27.0545 36.3986 25.7486 37.3421 25.2699 37.7387C25.0922 37.8891 24.9281 37.9917 24.9076 37.9712C24.8802 37.9507 24.9281 37.6361 25.0101 37.2738C25.8716 33.3696 28.4562 29.7526 32.1621 27.2911C33.2082 26.5937 33.8851 26.2176 34.8356 25.7937C36.4697 25.0689 37.9466 24.6997 38.9312 24.7749C39.1226 24.7886 41.0713 24.939 43.273 25.1031Z"/>
</mask>
<path d="M37.0509 21.6502C34.227 22.1561 31.0818 23.7356 28.3673 26.0125C27.5673 26.6825 26.0973 28.1868 25.4682 28.9662C24.2785 30.4568 23.0409 32.6175 22.4598 34.2311C21.7828 36.1114 21.4546 38.0054 21.4341 40.0771L21.4273 41.4446L20.853 42.2993C19.6906 44.0223 19 45.9231 19 47.3522C19.0068 48.3368 19.6564 49 20.6205 49C21.0923 49 21.4752 48.8359 21.7828 48.5145C22.0563 48.2205 22.1863 47.9128 22.2478 47.3932C22.3298 46.73 22.6033 45.8753 22.9726 45.1779C23.4717 44.2069 23.3144 44.289 24.5042 44.3916C26.7605 44.5898 29.2288 44.8428 30.5895 45.0206C31.8681 45.1847 32.2442 45.2052 34.0082 45.2052C36.1073 45.1984 36.8389 45.1232 38.309 44.7539C43.1157 43.5505 47.8814 39.9335 50.6232 35.3935C52.1138 32.932 53.1736 29.9987 53.6933 26.915C54.0351 24.9048 54.083 23.9134 53.8779 23.4553C53.7206 23.0997 53.2625 22.71 52.8933 22.6143C52.736 22.5732 50.7942 22.4023 48.572 22.2314C46.3567 22.0604 43.3755 21.8279 41.9602 21.7185C39.0064 21.4861 38.0697 21.4724 37.0509 21.6502ZM43.273 25.1031C49.3993 25.5749 50.5275 25.6706 50.5549 25.6979C50.6027 25.739 50.2609 27.4688 50.0489 28.2825C49.1805 31.6055 47.6148 34.4636 45.4063 36.7678C43.1362 39.1404 40.203 40.9044 37.3586 41.6087C35.5672 42.0531 33.7074 42.101 30.9656 41.766C30.0083 41.6429 28.5793 41.4856 27.7861 41.4104C26.9998 41.3352 26.3229 41.26 26.2887 41.2532C26.1588 41.2121 27.916 39.8515 29.2288 38.9626C31.7313 37.2943 35.1022 35.5097 38.0423 34.3063C38.6098 34.0738 39.2594 33.8072 39.4919 33.7114C40.285 33.3832 40.6474 32.8294 40.5927 32.0158C40.5585 31.4893 40.3397 31.1132 39.8611 30.7782C39.5944 30.5936 39.5192 30.5731 39.0132 30.5731C38.4799 30.5731 38.3979 30.6004 37.3996 31.0038C33.7279 32.5012 30.5895 34.108 27.8135 35.9063C27.0545 36.3986 25.7486 37.3421 25.2699 37.7387C25.0922 37.8891 24.9281 37.9917 24.9076 37.9712C24.8802 37.9507 24.9281 37.6361 25.0101 37.2738C25.8716 33.3696 28.4562 29.7526 32.1621 27.2911C33.2082 26.5937 33.8851 26.2176 34.8356 25.7937C36.4697 25.0689 37.9466 24.6997 38.9312 24.7749C39.1226 24.7886 41.0713 24.939 43.273 25.1031Z" fill="#0B2D1F"/>
<path d="M43.273 25.1031C49.3993 25.5749 50.5275 25.6706 50.5549 25.6979C50.6027 25.739 50.2609 27.4688 50.0489 28.2825C49.1805 31.6055 47.6148 34.4636 45.4063 36.7678C43.1362 39.1404 40.203 40.9044 37.3586 41.6087C35.5672 42.0531 33.7074 42.101 30.9656 41.766C30.0083 41.6429 28.5793 41.4856 27.7861 41.4104C26.9998 41.3352 26.3229 41.26 26.2887 41.2532C26.1588 41.2121 27.916 39.8515 29.2288 38.9626C31.7313 37.2943 35.1022 35.5097 38.0423 34.3063C38.6098 34.0738 39.2594 33.8072 39.4919 33.7114C40.285 33.3832 40.6474 32.8294 40.5927 32.0158C40.5585 31.4893 40.3397 31.1132 39.8611 30.7782C39.5944 30.5936 39.5192 30.5731 39.0132 30.5731C38.4799 30.5731 38.3979 30.6004 37.3996 31.0038C33.7279 32.5012 30.5895 34.108 27.8135 35.9063C27.0545 36.3986 25.7486 37.3421 25.2699 37.7387C25.0922 37.8891 24.9281 37.9917 24.9076 37.9712C24.8802 37.9507 24.9281 37.6361 25.0101 37.2738C25.8716 33.3696 28.4562 29.7526 32.1621 27.2911C33.2082 26.5937 33.8851 26.2176 34.8356 25.7937C36.4697 25.0689 37.9466 24.6997 38.9312 24.7749C39.1226 24.7886 41.0713 24.939 43.273 25.1031Z" fill="#22885E"/>
<path d="M43.273 25.1031L43.3013 24.7237L43.3022 24.7238L43.273 25.1031ZM50.5549 25.6979L50.3073 25.9868L50.2962 25.9773L50.2859 25.967L50.5549 25.6979ZM50.0489 28.2825L50.417 28.3784L50.417 28.3787L50.0489 28.2825ZM45.4063 36.7678L45.1314 36.5048L45.1316 36.5045L45.4063 36.7678ZM37.3586 41.6087L37.267 41.2395L37.2671 41.2394L37.3586 41.6087ZM30.9656 41.766L30.9194 42.1436L30.917 42.1433L30.9656 41.766ZM27.7861 41.4104L27.7502 41.7892L27.7499 41.7891L27.7861 41.4104ZM26.2887 41.2532L26.2141 41.6262L26.1939 41.6222L26.1742 41.6159L26.2887 41.2532ZM29.2288 38.9626L29.0155 38.6476L29.0178 38.6461L29.2288 38.9626ZM38.0423 34.3063L38.1865 34.6583L38.1864 34.6584L38.0423 34.3063ZM39.4919 33.7114L39.6373 34.063L39.6367 34.0632L39.4919 33.7114ZM40.5927 32.0158L40.2131 32.0413L40.2131 32.0404L40.5927 32.0158ZM39.8611 30.7782L40.0776 30.4654L40.0792 30.4665L39.8611 30.7782ZM37.3996 31.0038L37.2559 30.6515L37.2571 30.6511L37.3996 31.0038ZM27.8135 35.9063L27.6065 35.5871L27.6066 35.587L27.8135 35.9063ZM25.2699 37.7387L25.0242 37.4483L25.0272 37.4458L25.2699 37.7387ZM24.9076 37.9712L25.1358 37.6668L25.1575 37.6831L25.1766 37.7022L24.9076 37.9712ZM25.0101 37.2738L25.3816 37.3557L25.3812 37.3578L25.0101 37.2738ZM32.1621 27.2911L32.3731 27.6076L32.3726 27.608L32.1621 27.2911ZM34.8356 25.7937L34.6806 25.4462L34.6813 25.4459L34.8356 25.7937ZM38.9312 24.7749L38.9041 25.1544L38.9022 25.1542L38.9312 24.7749ZM43.3022 24.7238C46.3652 24.9597 48.1798 25.1016 49.2322 25.188C49.7579 25.2312 50.0956 25.2607 50.3043 25.2812C50.4079 25.2914 50.4838 25.2998 50.5365 25.3069C50.5619 25.3103 50.5885 25.3144 50.6126 25.3193C50.6239 25.3216 50.6431 25.3259 50.6647 25.3328C50.6754 25.3362 50.6937 25.3424 50.715 25.3525C50.7306 25.3599 50.7776 25.3826 50.8239 25.4289L50.2859 25.967C50.3313 26.0124 50.3769 26.0343 50.3905 26.0407C50.4099 26.0498 50.4256 26.0551 50.4332 26.0576C50.4486 26.0625 50.4592 26.0646 50.4592 26.0646C50.4607 26.0649 50.4544 26.0636 50.4343 26.0609C50.3961 26.0557 50.3316 26.0484 50.2298 26.0384C50.0278 26.0185 49.6954 25.9895 49.1699 25.9463C48.1198 25.8601 46.3071 25.7183 43.2438 25.4824L43.3022 24.7238ZM50.8025 25.4091C50.8716 25.4684 50.901 25.536 50.9119 25.5646C50.9249 25.5984 50.9307 25.6274 50.9335 25.6441C50.9391 25.6777 50.9398 25.7069 50.9398 25.7229C50.94 25.7576 50.9372 25.794 50.9342 25.8245C50.9279 25.8887 50.9162 25.9716 50.9016 26.0642C50.8719 26.2515 50.826 26.5021 50.7726 26.7738C50.666 27.3165 50.5258 27.9609 50.417 28.3784L49.6807 28.1866C49.7839 27.7905 49.9207 27.1631 50.026 26.6271C50.0786 26.3596 50.1225 26.1192 50.1501 25.9451C50.164 25.857 50.1729 25.7917 50.1769 25.7503C50.1791 25.728 50.1789 25.7222 50.179 25.7266C50.179 25.7275 50.1789 25.7446 50.183 25.7692C50.185 25.7814 50.1899 25.8067 50.2017 25.8376C50.2116 25.8632 50.2396 25.9288 50.3073 25.9868L50.8025 25.4091ZM50.417 28.3787C49.5334 31.7597 47.9375 34.6766 45.6809 37.031L45.1316 36.5045C47.292 34.2505 48.8276 31.4513 49.6808 28.1863L50.417 28.3787ZM45.6811 37.0308C43.3674 39.449 40.3726 41.2544 37.45 41.978L37.2671 41.2394C40.0334 40.5545 42.905 38.8317 45.1314 36.5048L45.6811 37.0308ZM37.4502 41.9779C35.5975 42.4376 33.6871 42.4818 30.9194 42.1436L31.0117 41.3883C33.7277 41.7202 35.5368 41.6687 37.267 41.2395L37.4502 41.9779ZM30.917 42.1433C29.9642 42.0208 28.5394 41.864 27.7502 41.7892L27.822 41.0317C28.6192 41.1073 30.0524 41.265 31.0141 41.3886L30.917 42.1433ZM27.7499 41.7891C27.3552 41.7514 26.988 41.7136 26.7149 41.6844C26.5785 41.6698 26.4651 41.6573 26.3834 41.648C26.316 41.6403 26.2431 41.632 26.2141 41.6262L26.3633 40.8801C26.3514 40.8777 26.376 40.8814 26.4697 40.8921C26.5491 40.9011 26.6605 40.9134 26.7958 40.9279C27.0664 40.9568 27.4308 40.9943 27.8224 41.0317L27.7499 41.7891ZM26.1742 41.6159C26.1216 41.5993 26.0545 41.5657 25.9976 41.5006C25.939 41.4336 25.912 41.357 25.9041 41.2897C25.8907 41.175 25.932 41.0884 25.9439 41.0639C25.9744 41.0011 26.0179 40.951 26.0398 40.9264C26.0941 40.8655 26.1716 40.793 26.2571 40.7176C26.4329 40.5626 26.6886 40.3553 26.9843 40.1255C27.5772 39.6646 28.3515 39.0972 29.0155 38.6476L29.4421 39.2776C28.7934 39.7169 28.0327 40.2743 27.4512 40.7262C27.1598 40.9527 26.9185 41.1488 26.7603 41.2883C26.6788 41.3601 26.6301 41.4076 26.608 41.4324C26.5917 41.4507 26.6095 41.4349 26.628 41.397C26.6338 41.3849 26.6724 41.3084 26.6599 41.2013C26.6524 41.1379 26.6268 41.0644 26.5705 40.9999C26.5158 40.9374 26.4518 40.9057 26.4033 40.8904L26.1742 41.6159ZM29.0178 38.6461C31.5422 36.9631 34.9356 35.1668 37.8982 33.9542L38.1864 34.6584C35.2688 35.8526 31.9205 37.6254 29.4399 39.2792L29.0178 38.6461ZM37.8981 33.9543C38.4655 33.7218 39.1148 33.4553 39.347 33.3597L39.6367 34.0632C39.4039 34.1591 38.7541 34.4258 38.1865 34.6583L37.8981 33.9543ZM39.3464 33.3599C39.6926 33.2167 39.9111 33.0384 40.0413 32.8382C40.1702 32.6401 40.2362 32.3844 40.2131 32.0413L40.9723 31.9902C41.0039 32.4608 40.9161 32.8888 40.6791 33.2531C40.4436 33.6152 40.0843 33.878 39.6373 34.063L39.3464 33.3599ZM40.2131 32.0404C40.1991 31.8259 40.1493 31.6602 40.0657 31.5182C39.9812 31.3747 39.8497 31.2346 39.6429 31.0898L40.0792 30.4665C40.3511 30.6568 40.5683 30.8723 40.7214 31.1321C40.8754 31.3936 40.9521 31.6791 40.9723 31.9911L40.2131 32.0404ZM39.6445 31.091C39.5165 31.0023 39.4796 30.9865 39.4366 30.9759C39.3735 30.9605 39.2753 30.9535 39.0132 30.9535V30.1926C39.2572 30.1926 39.4496 30.1958 39.6172 30.2368C39.8049 30.2827 39.939 30.3694 40.0776 30.4654L39.6445 31.091ZM39.0132 30.9535C38.7552 30.9535 38.6422 30.9606 38.48 31.0044C38.2956 31.0542 38.051 31.1509 37.5421 31.3565L37.2571 30.6511C37.7465 30.4533 38.042 30.3346 38.2816 30.2699C38.5433 30.1992 38.7379 30.1926 39.0132 30.1926V30.9535ZM37.5433 31.3561C33.8896 32.8461 30.773 34.4424 28.0203 36.2256L27.6066 35.587C30.406 33.7736 33.5662 32.1563 37.2559 30.6515L37.5433 31.3561ZM28.0205 36.2254C27.2699 36.7123 25.9767 37.6472 25.5127 38.0316L25.0272 37.4458C25.5204 37.0371 26.8392 36.0848 27.6065 35.5871L28.0205 36.2254ZM25.5157 38.0291C25.4169 38.1128 25.3175 38.1869 25.234 38.24C25.1943 38.2653 25.1467 38.2932 25.0986 38.314C25.0768 38.3234 25.0354 38.34 24.9844 38.3485C24.9587 38.3528 24.9138 38.358 24.8593 38.3502C24.8037 38.3423 24.7155 38.3171 24.6386 38.2402L25.1766 37.7022C25.1022 37.6278 25.0176 37.6042 24.9669 37.597C24.9171 37.5899 24.878 37.5949 24.8591 37.598C24.8216 37.6043 24.7979 37.615 24.7971 37.6154C24.7911 37.618 24.7995 37.6147 24.8255 37.5981C24.8737 37.5674 24.9453 37.5151 25.0242 37.4483L25.5157 38.0291ZM24.6793 38.2755C24.5822 38.2027 24.55 38.108 24.5411 38.0804C24.5286 38.0415 24.5242 38.0078 24.5223 37.9888C24.5183 37.9492 24.5192 37.9116 24.5206 37.8853C24.5234 37.8291 24.5314 37.7626 24.5415 37.6947C24.5621 37.5562 24.5966 37.3772 24.6391 37.1898L25.3812 37.3578C25.3416 37.5327 25.3111 37.6922 25.2941 37.8066C25.2854 37.8653 25.2815 37.9038 25.2805 37.9237C25.2799 37.9354 25.281 37.9286 25.2792 37.9116C25.2784 37.9039 25.2757 37.8793 25.2655 37.8475C25.2589 37.827 25.2295 37.7371 25.1358 37.6668L24.6793 38.2755ZM24.6386 37.1918C25.5237 33.1807 28.1732 29.4838 31.9516 26.9742L32.3726 27.608C28.7392 30.0213 26.2196 33.5584 25.3816 37.3557L24.6386 37.1918ZM31.9511 26.9745C33.0123 26.267 33.7079 25.8801 34.6806 25.4462L34.9905 26.1411C34.0624 26.5551 33.4042 26.9203 32.3731 27.6076L31.9511 26.9745ZM34.6813 25.4459C36.3327 24.7135 37.8801 24.3131 38.9602 24.3956L38.9022 25.1542C38.0131 25.0863 36.6067 25.4243 34.9898 26.1414L34.6813 25.4459ZM38.9583 24.3954C39.1501 24.4091 41.1023 24.5598 43.3013 24.7237L43.2447 25.4825C41.0403 25.3182 39.0951 25.168 38.9041 25.1544L38.9583 24.3954ZM37.0509 21.6502L36.9167 20.9012L36.9201 20.9006L37.0509 21.6502ZM28.3673 26.0125L28.8563 26.5954L28.8559 26.5958L28.3673 26.0125ZM25.4682 28.9662L24.8736 28.4916L24.8761 28.4884L25.4682 28.9662ZM22.4598 34.2311L21.7439 33.9734L21.7439 33.9733L22.4598 34.2311ZM21.4341 40.0771L20.6733 40.0733L20.6733 40.0696L21.4341 40.0771ZM21.4273 41.4446L22.1882 41.4484L22.187 41.6782L22.0588 41.869L21.4273 41.4446ZM20.853 42.2993L21.4845 42.7237L21.4837 42.7248L20.853 42.2993ZM19 47.3522L18.2391 47.3575V47.3522H19ZM21.7828 48.5145L22.34 49.0328L22.3324 49.0407L21.7828 48.5145ZM22.2478 47.3932L21.4922 47.3037L21.4927 47.2998L22.2478 47.3932ZM22.9726 45.1779L23.6493 45.5258L23.645 45.5339L22.9726 45.1779ZM24.5042 44.3916L24.5695 43.6335L24.5708 43.6336L24.5042 44.3916ZM30.5895 45.0206L30.4926 45.7753L30.4909 45.7751L30.5895 45.0206ZM34.0082 45.2052L34.0107 45.9661H34.0082V45.2052ZM38.309 44.7539L38.1236 44.016L38.1242 44.0158L38.309 44.7539ZM50.6232 35.3935L49.9719 35.0001L49.9724 34.9993L50.6232 35.3935ZM53.6933 26.915L52.943 26.7886L52.9432 26.7874L53.6933 26.915ZM53.8779 23.4553L53.1834 23.7662L53.182 23.763L53.8779 23.4553ZM52.8933 22.6143L52.7023 23.3508L52.7012 23.3505L52.8933 22.6143ZM48.572 22.2314L48.5136 22.99L48.5135 22.99L48.572 22.2314ZM41.9602 21.7185L41.9015 22.4771L41.9005 22.4771L41.9602 21.7185ZM37.1851 22.3991C34.5192 22.8768 31.4926 24.3841 28.8563 26.5954L27.8783 25.4295C30.671 23.0871 33.9348 21.4355 36.9167 20.9012L37.1851 22.3991ZM28.8559 26.5958C28.0945 27.2335 26.659 28.7023 26.0603 29.4441L24.8761 28.4884C25.5356 27.6713 27.0402 26.1316 27.8787 25.4292L28.8559 26.5958ZM26.0629 29.4409C24.9187 30.8744 23.7252 32.9629 23.1756 34.4889L21.7439 33.9733C22.3566 32.272 23.6383 30.0392 24.8736 28.4916L26.0629 29.4409ZM23.1756 34.4888C22.5292 36.2845 22.2147 38.0935 22.195 40.0847L20.6733 40.0696C20.6946 37.9173 21.0365 35.9383 21.7439 33.9734L23.1756 34.4888ZM22.195 40.0809L22.1882 41.4484L20.6664 41.4408L20.6733 40.0733L22.195 40.0809ZM22.0588 41.869L21.4845 42.7237L20.2214 41.8749L20.7958 41.0202L22.0588 41.869ZM21.4837 42.7248C20.3713 44.3737 19.7609 46.1269 19.7609 47.3522H18.2391C18.2391 45.7194 19.0098 43.6709 20.2222 41.8738L21.4837 42.7248ZM19.7609 47.3469C19.7631 47.6705 19.8678 47.8836 19.9941 48.0121C20.1187 48.139 20.3185 48.2391 20.6205 48.2391V49.7609C19.9584 49.7609 19.3513 49.5294 18.9085 49.0785C18.4672 48.6293 18.2437 48.0185 18.2391 47.3575L19.7609 47.3469ZM20.6205 48.2391C20.891 48.2391 21.0734 48.1553 21.2333 47.9883L22.3324 49.0407C21.8769 49.5165 21.2935 49.7609 20.6205 49.7609V48.2391ZM21.2257 47.9963C21.3625 47.8493 21.4445 47.7069 21.4922 47.3037L23.0034 47.4827C22.9281 48.1187 22.7502 48.5918 22.3399 49.0328L21.2257 47.9963ZM21.4927 47.2998C21.5872 46.5354 21.8922 45.5923 22.3001 44.8219L23.645 45.5339C23.3144 46.1583 23.0724 46.9246 23.0029 47.4866L21.4927 47.2998ZM22.2959 44.83C22.4024 44.6229 22.5106 44.3977 22.5975 44.2483C22.6909 44.0877 22.8465 43.8515 23.1324 43.705C23.4052 43.5652 23.6843 43.5666 23.866 43.5745C24.0473 43.5823 24.3059 43.6108 24.5695 43.6335L24.4388 45.1496C24.1075 45.1211 23.9397 45.1008 23.8002 45.0948C23.6612 45.0887 23.7253 45.1111 23.8264 45.0593C23.9404 45.0008 23.9674 44.9197 23.9128 45.0136C23.8517 45.1187 23.7923 45.2474 23.6493 45.5257L22.2959 44.83ZM24.5708 43.6336C26.8308 43.8322 29.3116 44.0863 30.6881 44.2661L30.4909 45.7751C29.1461 45.5994 26.6902 45.3475 24.4375 45.1495L24.5708 43.6336ZM30.6863 44.2659C31.9237 44.4247 32.2658 44.4443 34.0082 44.4443V45.9661C32.2225 45.9661 31.8125 45.9447 30.4926 45.7753L30.6863 44.2659ZM34.0057 44.4443C36.0658 44.4376 36.7319 44.3655 38.1236 44.016L38.4943 45.4919C36.9459 45.8808 36.1488 45.9591 34.0107 45.9661L34.0057 44.4443ZM38.1242 44.0158C42.722 42.8648 47.3263 39.3809 49.9719 35.0001L51.2746 35.7868C48.4365 40.4861 43.5094 44.2363 38.4938 45.492L38.1242 44.0158ZM49.9724 34.9993C51.4088 32.6273 52.4378 29.7864 52.943 26.7886L54.4436 27.0414C53.9094 30.211 52.8188 33.2366 51.2741 35.7876L49.9724 34.9993ZM52.9432 26.7874C53.1127 25.7907 53.2041 25.075 53.2309 24.5634C53.259 24.0247 53.2072 23.8192 53.1834 23.7662L54.5723 23.1443C54.7537 23.5494 54.7805 24.0687 54.7505 24.6428C54.7191 25.244 54.6157 26.0291 54.4434 27.0426L52.9432 26.7874ZM53.182 23.763C53.1639 23.722 53.0965 23.623 52.9712 23.5162C52.8454 23.4088 52.7396 23.3604 52.7023 23.3508L53.0842 21.8777C53.4161 21.9638 53.724 22.1581 53.9589 22.3585C54.1943 22.5593 54.4346 22.8329 54.5737 23.1475L53.182 23.763ZM52.7012 23.3505C52.741 23.3609 52.7497 23.3592 52.6605 23.3482C52.5956 23.3402 52.504 23.3301 52.3867 23.3181C52.1529 23.2941 51.83 23.2639 51.44 23.2294C50.6607 23.1605 49.6227 23.0753 48.5136 22.99L48.6304 21.4727C49.7435 21.5584 50.7875 21.6441 51.574 21.7136C51.9669 21.7483 52.2978 21.7793 52.5417 21.8042C52.6633 21.8167 52.7666 21.828 52.8467 21.8379C52.9024 21.8448 53.0063 21.8574 53.0853 21.878L52.7012 23.3505ZM48.5135 22.99C46.2992 22.8191 43.3149 22.5864 41.9015 22.4771L42.0188 20.9599C43.4362 21.0695 46.4141 21.3017 48.6305 21.4727L48.5135 22.99ZM41.9005 22.4771C38.933 22.2435 38.0909 22.241 37.1817 22.3997L36.9201 20.9006C38.0484 20.7037 39.0798 20.7286 42.0199 20.96L41.9005 22.4771Z" fill="#0B2D1F" mask="url(#path-2-outside-1_6356_46251)"/>
</svg>
