<svg width="36" height="36" viewBox="0 0 36 36" fill="none" xmlns="http://www.w3.org/2000/svg">
<g id="clients">
<g id="Group 1171274817">
<g id="Group 1171274767">
<g id="Group">
<g id="Vector">
<mask id="path-1-outside-1_2949_57208" maskUnits="userSpaceOnUse" x="4.14282" y="7.30627" width="25" height="22" fill="black">
<rect fill="white" x="4.14282" y="7.30627" width="25" height="22"/>
<path d="M13.1776 10.8379C13.111 11.0399 13.1768 11.2559 13.3442 11.3885L14.8373 12.5714L14.3349 14.3921C14.2786 14.5972 14.3545 14.8092 14.529 14.9342C14.7027 15.0591 14.9312 15.0645 15.1112 14.948L16.7146 13.9147L18.3172 14.948C18.4033 15.0043 18.5011 15.0321 18.5989 15.0321C18.7045 15.0321 18.8094 14.9989 18.9002 14.9342C19.0739 14.81 19.1506 14.5972 19.0934 14.3921L18.5911 12.5714L20.0841 11.3885C20.2524 11.2559 20.3173 11.0399 20.2508 10.8379C20.1843 10.6366 20.0027 10.4994 19.7875 10.4894L17.8743 10.3976L17.1943 8.63246C17.1176 8.43428 16.9298 8.30627 16.7146 8.30627C16.4994 8.30627 16.3108 8.43428 16.2341 8.63246L15.5541 10.3976L13.6408 10.4894C13.4264 10.4994 13.2441 10.6366 13.1776 10.8379ZM15.727 11.1024C15.9305 11.0924 16.1089 10.9644 16.1817 10.777L16.7146 9.39434L17.2467 10.777C17.3195 10.9651 17.4979 11.0924 17.7021 11.1024L19.2006 11.1741L18.0308 12.1003C17.8719 12.2267 17.8038 12.4334 17.8571 12.6277L18.2507 14.0543L16.9955 13.2446C16.9102 13.1891 16.8124 13.1621 16.7146 13.1621C16.616 13.1621 16.5182 13.1891 16.4329 13.2446L15.1777 14.0543L15.5713 12.6277C15.6245 12.4334 15.5564 12.2267 15.3976 12.1003L14.2277 11.1741L15.727 11.1024ZM21.3534 11.3885L22.8464 12.5714L22.344 14.3921C22.2877 14.5972 22.3636 14.8092 22.5373 14.9342C22.7118 15.0591 22.9403 15.0645 23.1203 14.948L24.7229 13.9147L26.3263 14.948C26.4124 15.0043 26.5102 15.0321 26.6072 15.0321C26.7129 15.0321 26.8185 14.9989 26.9085 14.9342C27.083 14.81 27.1589 14.5972 27.1026 14.3921L26.6002 12.5714L28.0933 11.3885C28.2607 11.2559 28.3264 11.0399 28.2599 10.8379C28.1934 10.6366 28.0111 10.4994 27.7967 10.4894L25.8834 10.3976L25.2034 8.63246C25.1267 8.43428 24.9381 8.30627 24.7229 8.30627C24.5077 8.30627 24.3191 8.43428 24.2432 8.63246L23.5632 10.3976L21.6499 10.4894C21.4348 10.4994 21.2532 10.6366 21.1867 10.8379C21.1202 11.0399 21.1851 11.2559 21.3534 11.3885ZM23.7354 11.1024C23.9396 11.0924 24.118 10.9644 24.1908 10.777L24.7229 9.39434L25.2558 10.777C25.3278 10.9644 25.507 11.0924 25.7105 11.1024L27.209 11.1741L26.0399 12.1003C25.8803 12.2267 25.8122 12.4334 25.8662 12.6277L26.2598 14.0543L25.0038 13.2446C24.9186 13.1891 24.8207 13.1613 24.7229 13.1613C24.6251 13.1613 24.5273 13.1891 24.442 13.2446L23.1868 14.0543L23.5804 12.6277C23.6336 12.4334 23.5656 12.2267 23.4067 12.1003L22.2368 11.1741L23.7354 11.1024ZM5.3351 11.3885L6.82815 12.5714L6.32577 14.3921C6.26943 14.5972 6.34534 14.8092 6.51984 14.9342C6.69356 15.0591 6.92284 15.0645 7.10282 14.948L8.70543 13.9147L10.308 14.948C10.3949 15.0043 10.4919 15.0321 10.5897 15.0321C10.6954 15.0321 10.8002 14.9989 10.891 14.9342C11.0655 14.81 11.1414 14.5972 11.0851 14.3921L10.5819 12.5714L12.075 11.3885C12.2432 11.2559 12.3082 11.0399 12.2417 10.8379C12.1751 10.6366 11.9936 10.4994 11.7784 10.4894L9.86513 10.3976L9.18512 8.63246C9.10921 8.43428 8.92062 8.30627 8.70543 8.30627C8.49024 8.30627 8.30165 8.43428 8.22496 8.63246L7.54573 10.3976L5.63246 10.4894C5.41726 10.4994 5.23494 10.6366 5.16842 10.8379C5.10191 11.0399 5.16764 11.2559 5.3351 11.3885ZM7.71789 11.1024C7.92134 11.0924 8.10054 10.9644 8.17253 10.777L8.70543 9.39434L9.23755 10.777C9.31032 10.9644 9.48874 11.0924 9.69298 11.1024L11.1915 11.1741L10.0224 12.1003C9.86278 12.2267 9.79471 12.4334 9.84792 12.6277L10.2415 14.0543L8.98636 13.2446C8.90106 13.1891 8.80325 13.1613 8.70543 13.1613C8.60762 13.1613 8.5098 13.1891 8.42372 13.2446L7.16855 14.0543L7.56216 12.6277C7.61616 12.4334 7.54808 12.2267 7.38844 12.1003L6.21935 11.1741L7.71789 11.1024ZM28.2286 24.4075C27.9735 23.5986 27.4524 22.8714 26.7606 22.361C26.4296 22.1165 26.0689 21.926 25.6886 21.7919C26.216 21.3839 26.5556 20.7501 26.5556 20.0398C26.5556 18.8122 25.5422 17.8136 24.2964 17.8136C23.0507 17.8136 22.0365 18.8122 22.0365 20.0398C22.0365 20.7493 22.3761 21.3824 22.902 21.7903C22.1969 22.0386 21.5717 22.4743 21.0928 23.0619C20.869 22.7535 20.6108 22.4666 20.3212 22.2083C19.7359 21.6878 19.0504 21.3053 18.3117 21.0786C19.095 20.5673 19.613 19.6905 19.613 18.6973C19.613 17.1226 18.3125 15.8418 16.7146 15.8418C15.1159 15.8418 13.8153 17.1226 13.8153 18.6973C13.8153 19.6905 14.3333 20.5673 15.1174 21.0786C14.378 21.3053 13.6925 21.6878 13.1079 22.2083C12.8176 22.4666 12.5594 22.7535 12.3356 23.0619C11.8567 22.4743 11.2322 22.0378 10.5264 21.7903C11.053 21.3824 11.3918 20.7493 11.3918 20.0398C11.3918 18.8122 10.3785 17.8136 9.13191 17.8136C7.88613 17.8136 6.87276 18.8122 6.87276 20.0398C6.87276 20.7501 7.21237 21.3832 7.7398 21.7911C7.35949 21.926 6.99875 22.1165 6.66774 22.361C5.97599 22.8714 5.45482 23.5979 5.2005 24.4075C5.08234 24.7815 5.14808 25.1609 5.38361 25.4763C5.61915 25.7917 5.96816 25.9652 6.3649 25.9652H11.3637V26.6076C11.3637 27.5329 12.1274 28.2856 13.0664 28.2856H20.3619C21.3009 28.2856 22.0647 27.5329 22.0647 26.6076V25.9652H27.0635C27.4602 25.9652 27.8092 25.7917 28.0447 25.4763C28.2811 25.1609 28.346 24.7815 28.2286 24.4075ZM24.2964 18.5261C25.1431 18.5261 25.8325 19.2055 25.8325 20.0398C25.8325 20.875 25.1431 21.5536 24.2964 21.5536C23.449 21.5536 22.7596 20.875 22.7596 20.0398C22.7596 19.2055 23.449 18.5261 24.2964 18.5261ZM14.5392 18.6973C14.5392 17.5151 15.515 16.5543 16.7146 16.5543C17.9134 16.5543 18.89 17.5151 18.89 18.6973C18.89 19.8787 17.9142 20.8403 16.7154 20.8403H16.7146H16.713C15.5142 20.8395 14.5392 19.8787 14.5392 18.6973ZM9.13191 18.5261C9.97938 18.5261 10.6688 19.2055 10.6688 20.0398C10.6688 20.8742 9.97938 21.5536 9.13191 21.5536C8.28522 21.5536 7.59581 20.8742 7.59581 20.0398C7.59581 19.2055 8.28522 18.5261 9.13191 18.5261ZM11.4106 25.2519H6.3649C6.19901 25.2519 6.06441 25.1856 5.96581 25.0538C5.86722 24.9211 5.84139 24.7754 5.89069 24.6188C6.3336 23.2115 7.63572 22.2661 9.13191 22.2661C10.2642 22.2661 11.2956 22.8051 11.9294 23.7174C11.679 24.197 11.503 24.7145 11.4106 25.2519ZM21.3416 26.6076C21.3416 27.1397 20.9019 27.573 20.3619 27.573H13.0664C12.5265 27.573 12.0867 27.1397 12.0867 26.6076V25.6282C12.3489 23.304 14.3341 21.5536 16.713 21.5528H16.7146H16.7154C19.0942 21.5536 21.0795 23.304 21.3416 25.6282V26.6076ZM27.4625 25.0538C27.3639 25.1856 27.2294 25.2527 27.0635 25.2527H22.0177C21.9254 24.7145 21.7501 24.197 21.4989 23.7174C22.1336 22.8051 23.1641 22.2661 24.2964 22.2661C25.7926 22.2661 27.0955 23.2115 27.5377 24.6188C27.587 24.7754 27.5619 24.9219 27.4625 25.0538Z"/>
<path d="M7.71789 11.1024C7.92134 11.0924 8.10054 10.9644 8.17253 10.777L8.70543 9.39434L9.23755 10.777C9.31032 10.9644 9.48874 11.0924 9.69298 11.1024L11.1915 11.1741L10.0224 12.1003C9.86278 12.2267 9.79471 12.4334 9.84792 12.6277L10.2415 14.0543L8.98636 13.2446C8.90106 13.1891 8.80325 13.1613 8.70543 13.1613C8.60762 13.1613 8.5098 13.1891 8.42372 13.2446L7.16855 14.0543L7.56216 12.6277C7.61616 12.4334 7.54808 12.2267 7.38844 12.1003L6.21935 11.1741L7.71789 11.1024Z"/>
<path d="M15.727 11.1024C15.9305 11.0924 16.1089 10.9644 16.1817 10.777L16.7146 9.39434L17.2467 10.777C17.3195 10.9651 17.4979 11.0924 17.7021 11.1024L19.2006 11.1741L18.0308 12.1003C17.8719 12.2267 17.8038 12.4334 17.8571 12.6277L18.2507 14.0543L16.9955 13.2446C16.9102 13.1891 16.8124 13.1621 16.7146 13.1621C16.616 13.1621 16.5182 13.1891 16.4329 13.2446L15.1777 14.0543L15.5713 12.6277C15.6245 12.4334 15.5564 12.2267 15.3976 12.1003L14.2277 11.1741L15.727 11.1024Z"/>
<path d="M23.7354 11.1024C23.9396 11.0924 24.118 10.9644 24.1908 10.777L24.7229 9.39434L25.2558 10.777C25.3278 10.9644 25.507 11.0924 25.7105 11.1024L27.209 11.1741L26.0399 12.1003C25.8803 12.2267 25.8122 12.4334 25.8662 12.6277L26.2598 14.0543L25.0038 13.2446C24.9186 13.1891 24.8207 13.1613 24.7229 13.1613C24.6251 13.1613 24.5273 13.1891 24.442 13.2446L23.1868 14.0543L23.5804 12.6277C23.6336 12.4334 23.5656 12.2267 23.4067 12.1003L22.2368 11.1741L23.7354 11.1024Z"/>
<path d="M9.13191 18.5261C9.97938 18.5261 10.6688 19.2055 10.6688 20.0398C10.6688 20.8742 9.97938 21.5536 9.13191 21.5536C8.28522 21.5536 7.59581 20.8742 7.59581 20.0398C7.59581 19.2055 8.28522 18.5261 9.13191 18.5261Z"/>
<path d="M14.5392 18.6973C14.5392 17.5151 15.515 16.5543 16.7146 16.5543C17.9134 16.5543 18.89 17.5151 18.89 18.6973C18.89 19.8787 17.9142 20.8403 16.7154 20.8403H16.7146H16.713C15.5142 20.8395 14.5392 19.8787 14.5392 18.6973Z"/>
<path d="M24.2964 18.5261C25.1431 18.5261 25.8325 19.2055 25.8325 20.0398C25.8325 20.875 25.1431 21.5536 24.2964 21.5536C23.449 21.5536 22.7596 20.875 22.7596 20.0398C22.7596 19.2055 23.449 18.5261 24.2964 18.5261Z"/>
</mask>
<path d="M13.1776 10.8379C13.111 11.0399 13.1768 11.2559 13.3442 11.3885L14.8373 12.5714L14.3349 14.3921C14.2786 14.5972 14.3545 14.8092 14.529 14.9342C14.7027 15.0591 14.9312 15.0645 15.1112 14.948L16.7146 13.9147L18.3172 14.948C18.4033 15.0043 18.5011 15.0321 18.5989 15.0321C18.7045 15.0321 18.8094 14.9989 18.9002 14.9342C19.0739 14.81 19.1506 14.5972 19.0934 14.3921L18.5911 12.5714L20.0841 11.3885C20.2524 11.2559 20.3173 11.0399 20.2508 10.8379C20.1843 10.6366 20.0027 10.4994 19.7875 10.4894L17.8743 10.3976L17.1943 8.63246C17.1176 8.43428 16.9298 8.30627 16.7146 8.30627C16.4994 8.30627 16.3108 8.43428 16.2341 8.63246L15.5541 10.3976L13.6408 10.4894C13.4264 10.4994 13.2441 10.6366 13.1776 10.8379ZM15.727 11.1024C15.9305 11.0924 16.1089 10.9644 16.1817 10.777L16.7146 9.39434L17.2467 10.777C17.3195 10.9651 17.4979 11.0924 17.7021 11.1024L19.2006 11.1741L18.0308 12.1003C17.8719 12.2267 17.8038 12.4334 17.8571 12.6277L18.2507 14.0543L16.9955 13.2446C16.9102 13.1891 16.8124 13.1621 16.7146 13.1621C16.616 13.1621 16.5182 13.1891 16.4329 13.2446L15.1777 14.0543L15.5713 12.6277C15.6245 12.4334 15.5564 12.2267 15.3976 12.1003L14.2277 11.1741L15.727 11.1024ZM21.3534 11.3885L22.8464 12.5714L22.344 14.3921C22.2877 14.5972 22.3636 14.8092 22.5373 14.9342C22.7118 15.0591 22.9403 15.0645 23.1203 14.948L24.7229 13.9147L26.3263 14.948C26.4124 15.0043 26.5102 15.0321 26.6072 15.0321C26.7129 15.0321 26.8185 14.9989 26.9085 14.9342C27.083 14.81 27.1589 14.5972 27.1026 14.3921L26.6002 12.5714L28.0933 11.3885C28.2607 11.2559 28.3264 11.0399 28.2599 10.8379C28.1934 10.6366 28.0111 10.4994 27.7967 10.4894L25.8834 10.3976L25.2034 8.63246C25.1267 8.43428 24.9381 8.30627 24.7229 8.30627C24.5077 8.30627 24.3191 8.43428 24.2432 8.63246L23.5632 10.3976L21.6499 10.4894C21.4348 10.4994 21.2532 10.6366 21.1867 10.8379C21.1202 11.0399 21.1851 11.2559 21.3534 11.3885ZM23.7354 11.1024C23.9396 11.0924 24.118 10.9644 24.1908 10.777L24.7229 9.39434L25.2558 10.777C25.3278 10.9644 25.507 11.0924 25.7105 11.1024L27.209 11.1741L26.0399 12.1003C25.8803 12.2267 25.8122 12.4334 25.8662 12.6277L26.2598 14.0543L25.0038 13.2446C24.9186 13.1891 24.8207 13.1613 24.7229 13.1613C24.6251 13.1613 24.5273 13.1891 24.442 13.2446L23.1868 14.0543L23.5804 12.6277C23.6336 12.4334 23.5656 12.2267 23.4067 12.1003L22.2368 11.1741L23.7354 11.1024ZM5.3351 11.3885L6.82815 12.5714L6.32577 14.3921C6.26943 14.5972 6.34534 14.8092 6.51984 14.9342C6.69356 15.0591 6.92284 15.0645 7.10282 14.948L8.70543 13.9147L10.308 14.948C10.3949 15.0043 10.4919 15.0321 10.5897 15.0321C10.6954 15.0321 10.8002 14.9989 10.891 14.9342C11.0655 14.81 11.1414 14.5972 11.0851 14.3921L10.5819 12.5714L12.075 11.3885C12.2432 11.2559 12.3082 11.0399 12.2417 10.8379C12.1751 10.6366 11.9936 10.4994 11.7784 10.4894L9.86513 10.3976L9.18512 8.63246C9.10921 8.43428 8.92062 8.30627 8.70543 8.30627C8.49024 8.30627 8.30165 8.43428 8.22496 8.63246L7.54573 10.3976L5.63246 10.4894C5.41726 10.4994 5.23494 10.6366 5.16842 10.8379C5.10191 11.0399 5.16764 11.2559 5.3351 11.3885ZM7.71789 11.1024C7.92134 11.0924 8.10054 10.9644 8.17253 10.777L8.70543 9.39434L9.23755 10.777C9.31032 10.9644 9.48874 11.0924 9.69298 11.1024L11.1915 11.1741L10.0224 12.1003C9.86278 12.2267 9.79471 12.4334 9.84792 12.6277L10.2415 14.0543L8.98636 13.2446C8.90106 13.1891 8.80325 13.1613 8.70543 13.1613C8.60762 13.1613 8.5098 13.1891 8.42372 13.2446L7.16855 14.0543L7.56216 12.6277C7.61616 12.4334 7.54808 12.2267 7.38844 12.1003L6.21935 11.1741L7.71789 11.1024ZM28.2286 24.4075C27.9735 23.5986 27.4524 22.8714 26.7606 22.361C26.4296 22.1165 26.0689 21.926 25.6886 21.7919C26.216 21.3839 26.5556 20.7501 26.5556 20.0398C26.5556 18.8122 25.5422 17.8136 24.2964 17.8136C23.0507 17.8136 22.0365 18.8122 22.0365 20.0398C22.0365 20.7493 22.3761 21.3824 22.902 21.7903C22.1969 22.0386 21.5717 22.4743 21.0928 23.0619C20.869 22.7535 20.6108 22.4666 20.3212 22.2083C19.7359 21.6878 19.0504 21.3053 18.3117 21.0786C19.095 20.5673 19.613 19.6905 19.613 18.6973C19.613 17.1226 18.3125 15.8418 16.7146 15.8418C15.1159 15.8418 13.8153 17.1226 13.8153 18.6973C13.8153 19.6905 14.3333 20.5673 15.1174 21.0786C14.378 21.3053 13.6925 21.6878 13.1079 22.2083C12.8176 22.4666 12.5594 22.7535 12.3356 23.0619C11.8567 22.4743 11.2322 22.0378 10.5264 21.7903C11.053 21.3824 11.3918 20.7493 11.3918 20.0398C11.3918 18.8122 10.3785 17.8136 9.13191 17.8136C7.88613 17.8136 6.87276 18.8122 6.87276 20.0398C6.87276 20.7501 7.21237 21.3832 7.7398 21.7911C7.35949 21.926 6.99875 22.1165 6.66774 22.361C5.97599 22.8714 5.45482 23.5979 5.2005 24.4075C5.08234 24.7815 5.14808 25.1609 5.38361 25.4763C5.61915 25.7917 5.96816 25.9652 6.3649 25.9652H11.3637V26.6076C11.3637 27.5329 12.1274 28.2856 13.0664 28.2856H20.3619C21.3009 28.2856 22.0647 27.5329 22.0647 26.6076V25.9652H27.0635C27.4602 25.9652 27.8092 25.7917 28.0447 25.4763C28.2811 25.1609 28.346 24.7815 28.2286 24.4075ZM24.2964 18.5261C25.1431 18.5261 25.8325 19.2055 25.8325 20.0398C25.8325 20.875 25.1431 21.5536 24.2964 21.5536C23.449 21.5536 22.7596 20.875 22.7596 20.0398C22.7596 19.2055 23.449 18.5261 24.2964 18.5261ZM14.5392 18.6973C14.5392 17.5151 15.515 16.5543 16.7146 16.5543C17.9134 16.5543 18.89 17.5151 18.89 18.6973C18.89 19.8787 17.9142 20.8403 16.7154 20.8403H16.7146H16.713C15.5142 20.8395 14.5392 19.8787 14.5392 18.6973ZM9.13191 18.5261C9.97938 18.5261 10.6688 19.2055 10.6688 20.0398C10.6688 20.8742 9.97938 21.5536 9.13191 21.5536C8.28522 21.5536 7.59581 20.8742 7.59581 20.0398C7.59581 19.2055 8.28522 18.5261 9.13191 18.5261ZM11.4106 25.2519H6.3649C6.19901 25.2519 6.06441 25.1856 5.96581 25.0538C5.86722 24.9211 5.84139 24.7754 5.89069 24.6188C6.3336 23.2115 7.63572 22.2661 9.13191 22.2661C10.2642 22.2661 11.2956 22.8051 11.9294 23.7174C11.679 24.197 11.503 24.7145 11.4106 25.2519ZM21.3416 26.6076C21.3416 27.1397 20.9019 27.573 20.3619 27.573H13.0664C12.5265 27.573 12.0867 27.1397 12.0867 26.6076V25.6282C12.3489 23.304 14.3341 21.5536 16.713 21.5528H16.7146H16.7154C19.0942 21.5536 21.0795 23.304 21.3416 25.6282V26.6076ZM27.4625 25.0538C27.3639 25.1856 27.2294 25.2527 27.0635 25.2527H22.0177C21.9254 24.7145 21.7501 24.197 21.4989 23.7174C22.1336 22.8051 23.1641 22.2661 24.2964 22.2661C25.7926 22.2661 27.0955 23.2115 27.5377 24.6188C27.587 24.7754 27.5619 24.9219 27.4625 25.0538Z" fill="black"/>
<path d="M7.71789 11.1024C7.92134 11.0924 8.10054 10.9644 8.17253 10.777L8.70543 9.39434L9.23755 10.777C9.31032 10.9644 9.48874 11.0924 9.69298 11.1024L11.1915 11.1741L10.0224 12.1003C9.86278 12.2267 9.79471 12.4334 9.84792 12.6277L10.2415 14.0543L8.98636 13.2446C8.90106 13.1891 8.80325 13.1613 8.70543 13.1613C8.60762 13.1613 8.5098 13.1891 8.42372 13.2446L7.16855 14.0543L7.56216 12.6277C7.61616 12.4334 7.54808 12.2267 7.38844 12.1003L6.21935 11.1741L7.71789 11.1024Z" fill="#FFA600"/>
<path d="M15.727 11.1024C15.9305 11.0924 16.1089 10.9644 16.1817 10.777L16.7146 9.39434L17.2467 10.777C17.3195 10.9651 17.4979 11.0924 17.7021 11.1024L19.2006 11.1741L18.0308 12.1003C17.8719 12.2267 17.8038 12.4334 17.8571 12.6277L18.2507 14.0543L16.9955 13.2446C16.9102 13.1891 16.8124 13.1621 16.7146 13.1621C16.616 13.1621 16.5182 13.1891 16.4329 13.2446L15.1777 14.0543L15.5713 12.6277C15.6245 12.4334 15.5564 12.2267 15.3976 12.1003L14.2277 11.1741L15.727 11.1024Z" fill="#FFA600"/>
<path d="M23.7354 11.1024C23.9396 11.0924 24.118 10.9644 24.1908 10.777L24.7229 9.39434L25.2558 10.777C25.3278 10.9644 25.507 11.0924 25.7105 11.1024L27.209 11.1741L26.0399 12.1003C25.8803 12.2267 25.8122 12.4334 25.8662 12.6277L26.2598 14.0543L25.0038 13.2446C24.9186 13.1891 24.8207 13.1613 24.7229 13.1613C24.6251 13.1613 24.5273 13.1891 24.442 13.2446L23.1868 14.0543L23.5804 12.6277C23.6336 12.4334 23.5656 12.2267 23.4067 12.1003L22.2368 11.1741L23.7354 11.1024Z" fill="#FFA600"/>
<path d="M9.13191 18.5261C9.97938 18.5261 10.6688 19.2055 10.6688 20.0398C10.6688 20.8742 9.97938 21.5536 9.13191 21.5536C8.28522 21.5536 7.59581 20.8742 7.59581 20.0398C7.59581 19.2055 8.28522 18.5261 9.13191 18.5261Z" fill="#FFA600"/>
<path d="M14.5392 18.6973C14.5392 17.5151 15.515 16.5543 16.7146 16.5543C17.9134 16.5543 18.89 17.5151 18.89 18.6973C18.89 19.8787 17.9142 20.8403 16.7154 20.8403H16.7146H16.713C15.5142 20.8395 14.5392 19.8787 14.5392 18.6973Z" fill="#FFA600"/>
<path d="M24.2964 18.5261C25.1431 18.5261 25.8325 19.2055 25.8325 20.0398C25.8325 20.875 25.1431 21.5536 24.2964 21.5536C23.449 21.5536 22.7596 20.875 22.7596 20.0398C22.7596 19.2055 23.449 18.5261 24.2964 18.5261Z" fill="#FFA600"/>
<path d="M15.727 11.1024L15.7332 11.2308L15.7333 11.2308L15.727 11.1024ZM16.1817 10.777L16.3015 10.8235L16.3016 10.8232L16.1817 10.777ZM16.7146 9.39434L16.8346 9.34816L16.7147 9.03661L16.5946 9.3481L16.7146 9.39434ZM17.2467 10.777L17.1267 10.8232L17.1268 10.8234L17.2467 10.777ZM17.7021 11.1024L17.6958 11.2308L17.696 11.2308L17.7021 11.1024ZM19.2006 11.1741L19.2805 11.2749L19.5493 11.0621L19.2068 11.0457L19.2006 11.1741ZM18.0308 12.1003L17.951 11.9994L17.9507 11.9997L18.0308 12.1003ZM17.8571 12.6277L17.733 12.6617L17.7331 12.6619L17.8571 12.6277ZM18.2507 14.0543L18.181 14.1623L18.4643 14.3451L18.3746 14.0201L18.2507 14.0543ZM16.9955 13.2446L16.9254 13.3524L16.9258 13.3527L16.9955 13.2446ZM16.4329 13.2446L16.5026 13.3527L16.503 13.3524L16.4329 13.2446ZM15.1777 14.0543L15.0538 14.0201L14.9641 14.3451L15.2474 14.1623L15.1777 14.0543ZM15.5713 12.6277L15.6952 12.6619L15.6953 12.6617L15.5713 12.6277ZM15.3976 12.1003L15.4777 11.9997L15.4774 11.9994L15.3976 12.1003ZM14.2277 11.1741L14.2216 11.0457L13.879 11.0621L14.1479 11.2749L14.2277 11.1741ZM23.7354 11.1024L23.7415 11.2308L23.7417 11.2308L23.7354 11.1024ZM24.1908 10.777L24.3107 10.8235L24.3108 10.8232L24.1908 10.777ZM24.7229 9.39434L24.8429 9.3481L24.7228 9.03661L24.6029 9.34816L24.7229 9.39434ZM25.2558 10.777L25.3758 10.7309L25.3758 10.7307L25.2558 10.777ZM25.7105 11.1024L25.7041 11.2308L25.7043 11.2308L25.7105 11.1024ZM27.209 11.1741L27.2888 11.2749L27.5575 11.0621L27.2151 11.0457L27.209 11.1741ZM26.0399 12.1003L25.9601 11.9995L25.9601 11.9995L26.0399 12.1003ZM25.8662 12.6277L25.9901 12.5935L25.9901 12.5933L25.8662 12.6277ZM26.2598 14.0543L26.1901 14.1624L26.4734 14.345L26.3837 14.0201L26.2598 14.0543ZM25.0038 13.2446L24.9337 13.3524L24.9342 13.3527L25.0038 13.2446ZM24.442 13.2446L24.5117 13.3527L24.5121 13.3524L24.442 13.2446ZM23.1868 14.0543L23.0629 14.0201L22.9732 14.3451L23.2565 14.1623L23.1868 14.0543ZM23.5804 12.6277L23.7044 12.6619L23.7044 12.6617L23.5804 12.6277ZM23.4067 12.1003L23.4868 11.9997L23.4865 11.9994L23.4067 12.1003ZM22.2368 11.1741L22.2307 11.0457L21.8882 11.0621L22.157 11.2749L22.2368 11.1741ZM7.71789 11.1024L7.72403 11.2308L7.72421 11.2308L7.71789 11.1024ZM8.17253 10.777L8.05256 10.7307L8.05251 10.7309L8.17253 10.777ZM8.70543 9.39434L8.82542 9.34816L8.70552 9.03661L8.58546 9.34811L8.70543 9.39434ZM9.23755 10.777L9.11756 10.8232L9.1177 10.8235L9.23755 10.777ZM9.69298 11.1024L9.68667 11.2308L9.68683 11.2308L9.69298 11.1024ZM11.1915 11.1741L11.2713 11.2749L11.54 11.0621L11.1977 11.0457L11.1915 11.1741ZM10.0224 12.1003L9.94258 11.9995L9.94258 11.9995L10.0224 12.1003ZM9.84792 12.6277L9.72391 12.6617L9.72398 12.6619L9.84792 12.6277ZM10.2415 14.0543L10.1718 14.1623L10.4551 14.3451L10.3655 14.0201L10.2415 14.0543ZM8.98636 13.2446L8.91622 13.3524L8.91666 13.3527L8.98636 13.2446ZM8.42372 13.2446L8.35403 13.1366L8.35403 13.1366L8.42372 13.2446ZM7.16855 14.0543L7.04461 14.0201L6.95494 14.3451L7.23825 14.1623L7.16855 14.0543ZM7.56216 12.6277L7.43828 12.5933L7.43822 12.5935L7.56216 12.6277ZM7.38844 12.1003L7.46828 11.9995L7.46828 11.9995L7.38844 12.1003ZM6.21935 11.1741L6.2132 11.0457L5.87086 11.0621L6.13951 11.2749L6.21935 11.1741ZM16.713 20.8403L16.7129 20.9688H16.713V20.8403ZM15.7333 11.2308C15.9868 11.2183 16.2101 11.0588 16.3015 10.8235L16.0618 10.7304C16.0077 10.8699 15.8741 10.9664 15.7207 10.974L15.7333 11.2308ZM16.3016 10.8232L16.8345 9.44058L16.5946 9.3481L16.0617 10.7307L16.3016 10.8232ZM16.5946 9.44052L17.1267 10.8232L17.3667 10.7308L16.8346 9.34816L16.5946 9.44052ZM17.1268 10.8234C17.2183 11.0599 17.4419 11.2184 17.6958 11.2308L17.7084 10.974C17.5539 10.9664 17.4207 10.8704 17.3666 10.7306L17.1268 10.8234ZM17.696 11.2308L19.1945 11.3025L19.2068 11.0457L17.7083 10.974L17.696 11.2308ZM19.1208 11.0733L17.951 11.9994L18.1106 12.2011L19.2805 11.2749L19.1208 11.0733ZM17.9507 11.9997C17.752 12.1578 17.6661 12.4172 17.733 12.6617L17.9811 12.5938C17.9416 12.4495 17.9918 12.2956 18.1109 12.2008L17.9507 11.9997ZM17.7331 12.6619L18.1267 14.0885L18.3746 14.0201L17.981 12.5935L17.7331 12.6619ZM18.3204 13.9463L17.0652 13.1366L16.9258 13.3527L18.181 14.1623L18.3204 13.9463ZM17.0656 13.1369C16.9584 13.0671 16.836 13.0335 16.7146 13.0335V13.2907C16.7888 13.2907 16.862 13.3111 16.9254 13.3524L17.0656 13.1369ZM16.7146 13.0335C16.5924 13.0335 16.47 13.067 16.3627 13.1369L16.503 13.3524C16.5663 13.3112 16.6395 13.2907 16.7146 13.2907V13.0335ZM16.3632 13.1366L15.108 13.9463L15.2474 14.1623L16.5026 13.3527L16.3632 13.1366ZM15.3016 14.0885L15.6952 12.6619L15.4474 12.5935L15.0538 14.0201L15.3016 14.0885ZM15.6953 12.6617C15.7622 12.4172 15.6763 12.1578 15.4777 11.9997L15.3175 12.2008C15.4365 12.2956 15.4868 12.4495 15.4473 12.5938L15.6953 12.6617ZM15.4774 11.9994L14.3075 11.0733L14.1479 11.2749L15.3178 12.2011L15.4774 11.9994ZM14.2338 11.3025L15.7332 11.2308L15.7209 10.974L14.2216 11.0457L14.2338 11.3025ZM23.7417 11.2308C23.9958 11.2183 24.2192 11.0589 24.3107 10.8235L24.071 10.7304C24.0168 10.8698 23.8834 10.9664 23.7291 10.974L23.7417 11.2308ZM24.3108 10.8232L24.8429 9.44052L24.6029 9.34816L24.0708 10.7308L24.3108 10.8232ZM24.603 9.44058L25.1359 10.8232L25.3758 10.7307L24.8429 9.3481L24.603 9.44058ZM25.1358 10.8231C25.2265 11.0591 25.451 11.2183 25.7041 11.2308L25.7168 10.974C25.563 10.9664 25.4292 10.8697 25.3758 10.7309L25.1358 10.8231ZM25.7043 11.2308L27.2029 11.3025L27.2151 11.0457L25.7166 10.974L25.7043 11.2308ZM27.1292 11.0733L25.9601 11.9995L26.1197 12.201L27.2888 11.2749L27.1292 11.0733ZM25.9601 11.9995C25.7604 12.1576 25.6743 12.4173 25.7423 12.6621L25.9901 12.5933C25.9501 12.4494 26.0001 12.2958 26.1198 12.201L25.9601 11.9995ZM25.7423 12.6619L26.1359 14.0885L26.3837 14.0201L25.9901 12.5935L25.7423 12.6619ZM26.3295 13.9462L25.0735 13.1366L24.9342 13.3527L26.1901 14.1624L26.3295 13.9462ZM25.074 13.1369C24.9673 13.0674 24.845 13.0328 24.7229 13.0328V13.2899C24.7964 13.2899 24.8698 13.3108 24.9337 13.3524L25.074 13.1369ZM24.7229 13.0328C24.6008 13.0328 24.4785 13.0674 24.3719 13.1369L24.5121 13.3524C24.5761 13.3108 24.6494 13.2899 24.7229 13.2899V13.0328ZM24.3723 13.1366L23.1171 13.9463L23.2565 14.1623L24.5117 13.3527L24.3723 13.1366ZM23.3108 14.0885L23.7044 12.6619L23.4565 12.5935L23.0629 14.0201L23.3108 14.0885ZM23.7044 12.6617C23.7714 12.4172 23.6855 12.1578 23.4868 11.9997L23.3266 12.2008C23.4457 12.2956 23.4959 12.4495 23.4564 12.5938L23.7044 12.6617ZM23.4865 11.9994L22.3166 11.0733L22.157 11.2749L23.3269 12.2011L23.4865 11.9994ZM22.243 11.3025L23.7415 11.2308L23.7292 10.974L22.2307 11.0457L22.243 11.3025ZM7.72421 11.2308C7.97736 11.2183 8.20189 11.0591 8.29255 10.8231L8.05251 10.7309C7.99919 10.8697 7.86532 10.9664 7.71156 10.974L7.72421 11.2308ZM8.2925 10.8232L8.8254 9.44058L8.58546 9.34811L8.05256 10.7307L8.2925 10.8232ZM8.58544 9.44052L9.11756 10.8232L9.35754 10.7308L8.82542 9.34816L8.58544 9.44052ZM9.1177 10.8235C9.20912 11.0589 9.43251 11.2183 9.68667 11.2308L9.69928 10.974C9.54497 10.9664 9.41152 10.8698 9.3574 10.7304L9.1177 10.8235ZM9.68683 11.2308L11.1854 11.3025L11.1977 11.0457L9.69912 10.974L9.68683 11.2308ZM11.1117 11.0733L9.94258 11.9995L10.1023 12.201L11.2713 11.2749L11.1117 11.0733ZM9.94258 11.9995C9.74293 12.1576 9.65696 12.4172 9.72391 12.6617L9.97192 12.5938C9.93245 12.4496 9.98264 12.2958 10.1023 12.201L9.94258 11.9995ZM9.72398 12.6619L10.1176 14.0885L10.3655 14.0201L9.97186 12.5935L9.72398 12.6619ZM10.3112 13.9463L9.05605 13.1366L8.91666 13.3527L10.1718 14.1623L10.3112 13.9463ZM9.0565 13.1369C8.94984 13.0674 8.82755 13.0328 8.70543 13.0328V13.2899C8.77894 13.2899 8.85229 13.3108 8.91622 13.3524L9.0565 13.1369ZM8.70543 13.0328C8.58322 13.0328 8.46115 13.0675 8.35403 13.1366L8.49341 13.3527C8.55845 13.3107 8.63201 13.2899 8.70543 13.2899V13.0328ZM8.35403 13.1366L7.09886 13.9463L7.23825 14.1623L8.49342 13.3527L8.35403 13.1366ZM7.29249 14.0885L7.6861 12.6619L7.43822 12.5935L7.04461 14.0201L7.29249 14.0885ZM7.68604 12.6621C7.75406 12.4173 7.66792 12.1576 7.46828 11.9995L7.3086 12.201C7.42824 12.2958 7.47826 12.4494 7.43828 12.5933L7.68604 12.6621ZM7.46828 11.9995L6.29919 11.0733L6.13951 11.2749L7.30861 12.201L7.46828 11.9995ZM6.2255 11.3025L7.72403 11.2308L7.71174 10.974L6.2132 11.0457L6.2255 11.3025ZM24.2964 18.6547C25.0739 18.6547 25.704 19.2783 25.704 20.0398H25.9611C25.9611 19.1327 25.2124 18.3975 24.2964 18.3975V18.6547ZM25.704 20.0398C25.704 20.8022 25.074 21.425 24.2964 21.425V21.6821C25.2123 21.6821 25.9611 20.9478 25.9611 20.0398H25.704ZM24.2964 21.425C23.5181 21.425 22.8881 20.8021 22.8881 20.0398H22.631C22.631 20.9478 23.3798 21.6821 24.2964 21.6821V21.425ZM22.8881 20.0398C22.8881 19.2783 23.5182 18.6547 24.2964 18.6547V18.3975C23.3798 18.3975 22.631 19.1327 22.631 20.0398H22.8881ZM14.6677 18.6973C14.6677 17.588 15.5841 16.6829 16.7146 16.6829V16.4257C15.4458 16.4257 14.4106 17.4423 14.4106 18.6973H14.6677ZM16.7146 16.6829C17.8443 16.6829 18.7614 17.588 18.7614 18.6973H19.0186C19.0186 17.4423 17.9825 16.4257 16.7146 16.4257V16.6829ZM18.7614 18.6973C18.7614 19.8059 17.845 20.7117 16.7154 20.7117V20.9688C17.9834 20.9688 19.0186 19.9515 19.0186 18.6973H18.7614ZM16.7154 20.7117H16.7146V20.9688H16.7154V20.7117ZM16.7146 20.7117H16.713V20.9688H16.7146V20.7117ZM16.7131 20.7117C15.5834 20.711 14.6677 19.8059 14.6677 18.6973H14.4106C14.4106 19.9515 15.4449 20.968 16.7129 20.9688L16.7131 20.7117ZM9.13191 18.6547C9.9102 18.6547 10.5402 19.2783 10.5402 20.0398H10.7974C10.7974 19.1327 10.0486 18.3975 9.13191 18.3975V18.6547ZM10.5402 20.0398C10.5402 20.8014 9.9102 21.425 9.13191 21.425V21.6821C10.0486 21.6821 10.7974 20.947 10.7974 20.0398H10.5402ZM9.13191 21.425C8.35444 21.425 7.72438 20.8014 7.72438 20.0398H7.46724C7.46724 20.947 8.21599 21.6821 9.13191 21.6821V21.425ZM7.72438 20.0398C7.72438 19.2783 8.35444 18.6547 9.13191 18.6547V18.3975C8.21599 18.3975 7.46724 19.1327 7.46724 20.0398H7.72438ZM13.1776 10.8379L12.9334 10.7572L12.9333 10.7575L13.1776 10.8379ZM13.3442 11.3885L13.5039 11.1869L13.5039 11.1869L13.3442 11.3885ZM14.8373 12.5714L15.0852 12.6398L15.1305 12.4756L14.997 12.3699L14.8373 12.5714ZM14.3349 14.3921L14.087 14.3237L14.087 14.324L14.3349 14.3921ZM14.529 14.9342L14.6791 14.7254L14.6787 14.7251L14.529 14.9342ZM15.1112 14.948L14.9719 14.7319L14.9715 14.7321L15.1112 14.948ZM16.7146 13.9147L16.8539 13.6986L16.7146 13.6088L16.5753 13.6986L16.7146 13.9147ZM18.3172 14.948L18.4579 14.7328L18.4565 14.7319L18.3172 14.948ZM18.9002 14.9342L19.0495 15.1435L19.0497 15.1434L18.9002 14.9342ZM19.0934 14.3921L18.8456 14.4605L18.8457 14.461L19.0934 14.3921ZM18.5911 12.5714L18.4314 12.3699L18.2979 12.4756L18.3432 12.6398L18.5911 12.5714ZM20.0841 11.3885L19.9249 11.1866L19.9244 11.1869L20.0841 11.3885ZM20.2508 10.8379L20.495 10.7575L20.495 10.7572L20.2508 10.8379ZM19.7875 10.4894L19.7752 10.7462L19.7756 10.7462L19.7875 10.4894ZM17.8743 10.3976L17.6343 10.49L17.6946 10.6464L17.862 10.6544L17.8743 10.3976ZM17.1943 8.63246L17.4342 8.54002L17.4341 8.53967L17.1943 8.63246ZM16.2341 8.63246L15.9943 8.53967L15.9941 8.54002L16.2341 8.63246ZM15.5541 10.3976L15.5664 10.6544L15.7338 10.6464L15.794 10.49L15.5541 10.3976ZM13.6408 10.4894L13.6528 10.7462L13.6531 10.7462L13.6408 10.4894ZM21.3534 11.3885L21.5131 11.1869L21.5126 11.1866L21.3534 11.3885ZM22.8464 12.5714L23.0943 12.6398L23.1396 12.4756L23.0061 12.3699L22.8464 12.5714ZM22.344 14.3921L22.0962 14.3237L22.0961 14.324L22.344 14.3921ZM22.5373 14.9342L22.3872 15.1429L22.3877 15.1433L22.5373 14.9342ZM23.1203 14.948L22.981 14.7319L22.9806 14.7321L23.1203 14.948ZM24.7229 13.9147L24.8622 13.6986L24.7229 13.6088L24.5836 13.6986L24.7229 13.9147ZM26.3263 14.948L26.4671 14.7328L26.4656 14.7319L26.3263 14.948ZM26.9085 14.9342L26.7594 14.7246L26.7583 14.7255L26.9085 14.9342ZM27.1026 14.3921L27.3505 14.324L27.3505 14.3237L27.1026 14.3921ZM26.6002 12.5714L26.4405 12.3699L26.307 12.4756L26.3523 12.6398L26.6002 12.5714ZM28.0933 11.3885L27.9336 11.1869L27.9336 11.1869L28.0933 11.3885ZM28.2599 10.8379L28.5042 10.7575L28.5041 10.7572L28.2599 10.8379ZM27.7967 10.4894L27.7844 10.7462L27.7847 10.7462L27.7967 10.4894ZM25.8834 10.3976L25.6435 10.49L25.7037 10.6464L25.8711 10.6544L25.8834 10.3976ZM25.2034 8.63246L25.4433 8.54002L25.4432 8.53967L25.2034 8.63246ZM24.2432 8.63246L24.4832 8.72491L24.4834 8.72444L24.2432 8.63246ZM23.5632 10.3976L23.5755 10.6544L23.7429 10.6464L23.8032 10.49L23.5632 10.3976ZM21.65 10.4894L21.6619 10.7462L21.6623 10.7462L21.65 10.4894ZM21.1867 10.8379L20.9425 10.7572L20.9424 10.7575L21.1867 10.8379ZM5.3351 11.3885L5.49478 11.1869L5.49475 11.1869L5.3351 11.3885ZM6.82815 12.5714L7.07603 12.6398L7.12134 12.4756L6.98784 12.3699L6.82815 12.5714ZM6.32577 14.3921L6.07789 14.3237L6.07782 14.324L6.32577 14.3921ZM6.51984 14.9342L6.66997 14.7254L6.66952 14.7251L6.51984 14.9342ZM7.10282 14.948L6.96348 14.7319L6.96314 14.7321L7.10282 14.948ZM8.70543 13.9147L8.84478 13.6986L8.70543 13.6088L8.56609 13.6986L8.70543 13.9147ZM10.308 14.948L10.4479 14.7323L10.4474 14.7319L10.308 14.948ZM10.891 14.9342L10.742 14.7246L10.7417 14.7249L10.891 14.9342ZM11.0851 14.3921L11.333 14.324L11.3329 14.3236L11.0851 14.3921ZM10.5819 12.5714L10.4222 12.3699L10.2887 12.4757L10.3341 12.6399L10.5819 12.5714ZM12.075 11.3885L11.9158 11.1866L11.9153 11.1869L12.075 11.3885ZM12.2417 10.8379L12.4859 10.7575L12.4858 10.7572L12.2417 10.8379ZM11.7784 10.4894L11.7661 10.7462L11.7664 10.7462L11.7784 10.4894ZM9.86513 10.3976L9.62518 10.49L9.68542 10.6464L9.85281 10.6544L9.86513 10.3976ZM9.18512 8.63246L8.94499 8.72444L8.94517 8.72491L9.18512 8.63246ZM8.22496 8.63246L7.98515 8.53967L7.98497 8.54012L8.22496 8.63246ZM7.54573 10.3976L7.55805 10.6544L7.72551 10.6464L7.78572 10.4899L7.54573 10.3976ZM5.63246 10.4894L5.64442 10.7462L5.64478 10.7462L5.63246 10.4894ZM5.16842 10.8379L4.92427 10.7572L4.92417 10.7575L5.16842 10.8379ZM28.2286 24.4075L28.474 24.3305L28.4739 24.3302L28.2286 24.4075ZM26.7606 22.361L26.6079 22.5678L26.6079 22.5679L26.7606 22.361ZM25.6886 21.7919L25.5312 21.5885L25.1578 21.8773L25.603 22.0343L25.6886 21.7919ZM22.902 21.7903L22.9874 22.0329L23.4322 21.8762L23.0596 21.5871L22.902 21.7903ZM21.0928 23.0619L20.8847 23.2129L21.081 23.4835L21.2921 23.2244L21.0928 23.0619ZM20.3212 22.2083L20.4924 22.0164L20.4921 22.0161L20.3212 22.2083ZM18.3117 21.0786L18.1712 20.8632L17.7114 21.1633L18.2363 21.3244L18.3117 21.0786ZM15.1174 21.0786L15.1928 21.3244L15.7182 21.1633L15.2579 20.8632L15.1174 21.0786ZM13.1079 22.2083L13.2788 22.4004L13.2789 22.4003L13.1079 22.2083ZM12.3356 23.0619L12.1362 23.2244L12.3474 23.4835L12.5437 23.2129L12.3356 23.0619ZM10.5264 21.7903L10.3689 21.587L9.99516 21.8765L10.4413 22.033L10.5264 21.7903ZM7.7398 21.7911L7.82579 22.0334L8.26975 21.8759L7.89712 21.5877L7.7398 21.7911ZM6.66774 22.361L6.82043 22.5679L6.8205 22.5678L6.66774 22.361ZM5.2005 24.4075L5.4457 24.485L5.44583 24.4846L5.2005 24.4075ZM5.38361 25.4763L5.17759 25.6302H5.17759L5.38361 25.4763ZM11.3637 25.9652H11.6208V25.7081H11.3637V25.9652ZM22.0647 25.9652V25.7081H21.8075V25.9652H22.0647ZM28.0447 25.4763L27.839 25.3221L27.8387 25.3225L28.0447 25.4763ZM11.4106 25.2519V25.5091H11.6274L11.664 25.2955L11.4106 25.2519ZM5.96581 25.0538L5.75944 25.2072L5.75987 25.2077L5.96581 25.0538ZM5.89069 24.6188L6.13596 24.6961L6.13597 24.696L5.89069 24.6188ZM11.9294 23.7174L12.1574 23.8364L12.2294 23.6984L12.1406 23.5707L11.9294 23.7174ZM12.0867 25.6282L11.8312 25.5994L11.8296 25.6138V25.6282H12.0867ZM16.713 21.5528V21.2957H16.7129L16.713 21.5528ZM16.7154 21.5528L16.7154 21.2957H16.7154V21.5528ZM21.3416 25.6282H21.5988V25.6138L21.5972 25.5994L21.3416 25.6282ZM27.4625 25.0538L27.2572 24.899L27.2566 24.8998L27.4625 25.0538ZM22.0177 25.2527L21.7643 25.2962L21.801 25.5098H22.0177V25.2527ZM21.4989 23.7174L21.2878 23.5705L21.1988 23.6985L21.2711 23.8367L21.4989 23.7174ZM27.5377 24.6188L27.2923 24.6959L27.2924 24.6961L27.5377 24.6188ZM12.9333 10.7575C12.8327 11.0631 12.9336 11.3912 13.1846 11.5901L13.5039 11.1869C13.42 11.1205 13.3894 11.0167 13.4218 10.9183L12.9333 10.7575ZM13.1846 11.59L14.6776 12.773L14.997 12.3699L13.5039 11.1869L13.1846 11.59ZM14.5894 12.503L14.087 14.3237L14.5828 14.4605L15.0852 12.6398L14.5894 12.503ZM14.087 14.324C14.0017 14.6342 14.1182 14.9564 14.3793 15.1433L14.6787 14.7251C14.5907 14.6621 14.5554 14.5602 14.5829 14.4602L14.087 14.324ZM14.3789 15.1429C14.6388 15.3298 14.9823 15.3377 15.2509 15.1639L14.9715 14.7321C14.8801 14.7913 14.7666 14.7883 14.6791 14.7254L14.3789 15.1429ZM15.2505 15.1642L16.8539 14.1309L16.5753 13.6986L14.9719 14.7319L15.2505 15.1642ZM16.5752 14.1308L18.1778 15.1642L18.4565 14.7319L16.8539 13.6986L16.5752 14.1308ZM18.1764 15.1633C18.3053 15.2475 18.4522 15.2892 18.5989 15.2892V14.775C18.55 14.775 18.5012 14.7612 18.4579 14.7328L18.1764 15.1633ZM18.5989 15.2892C18.7589 15.2892 18.9158 15.2389 19.0495 15.1435L18.7508 14.7249C18.7029 14.759 18.6501 14.775 18.5989 14.775V15.2892ZM19.0497 15.1434C19.31 14.9574 19.4277 14.634 19.3412 14.3231L18.8457 14.461C18.8734 14.5604 18.8378 14.6627 18.7506 14.725L19.0497 15.1434ZM19.3413 14.3237L18.8389 12.503L18.3432 12.6398L18.8456 14.4605L19.3413 14.3237ZM18.7507 12.773L20.2438 11.59L19.9244 11.1869L18.4314 12.3699L18.7507 12.773ZM20.2433 11.5904C20.4961 11.3911 20.5955 11.0625 20.495 10.7575L20.0065 10.9183C20.0392 11.0174 20.0086 11.1206 19.9249 11.1866L20.2433 11.5904ZM20.495 10.7572C20.3946 10.4535 20.1197 10.2474 19.7995 10.2325L19.7756 10.7462C19.8858 10.7514 19.974 10.8198 20.0066 10.9186L20.495 10.7572ZM19.7999 10.2325L17.8866 10.1407L17.862 10.6544L19.7752 10.7462L19.7999 10.2325ZM18.1142 10.3051L17.4342 8.54002L16.9543 8.72491L17.6343 10.49L18.1142 10.3051ZM17.4341 8.53967C17.3186 8.24116 17.0346 8.04913 16.7146 8.04913V8.56342C16.8249 8.56342 16.9166 8.62741 16.9544 8.72526L17.4341 8.53967ZM16.7146 8.04913C16.395 8.04913 16.11 8.24074 15.9943 8.53967L16.4739 8.72526C16.5116 8.62783 16.6037 8.56342 16.7146 8.56342V8.04913ZM15.9941 8.54002L15.3141 10.3051L15.794 10.49L16.4741 8.72491L15.9941 8.54002ZM15.5418 10.1407L13.6285 10.2325L13.6531 10.7462L15.5664 10.6544L15.5418 10.1407ZM13.6288 10.2325C13.3097 10.2474 13.0339 10.4532 12.9334 10.7572L13.4217 10.9186C13.4543 10.8201 13.5431 10.7513 13.6528 10.7462L13.6288 10.2325ZM21.1937 11.59L22.6867 12.773L23.0061 12.3699L21.5131 11.1869L21.1937 11.59ZM22.5986 12.503L22.0962 14.3237L22.5919 14.4605L23.0943 12.6398L22.5986 12.503ZM22.0961 14.324C22.0109 14.634 22.1273 14.956 22.3872 15.1429L22.6875 14.7254C22.5999 14.6625 22.5645 14.5603 22.592 14.4602L22.0961 14.324ZM22.3877 15.1433C22.648 15.3296 22.9912 15.3378 23.26 15.1639L22.9806 14.7321C22.8894 14.7912 22.7757 14.7886 22.687 14.7251L22.3877 15.1433ZM23.2597 15.1642L24.8623 14.1308L24.5836 13.6986L22.981 14.7319L23.2597 15.1642ZM24.5836 14.1309L26.187 15.1642L26.4656 14.7319L24.8622 13.6986L24.5836 14.1309ZM26.1856 15.1633C26.3142 15.2474 26.4611 15.2892 26.6072 15.2892V14.775C26.5593 14.775 26.5105 14.7613 26.4671 14.7328L26.1856 15.1633ZM26.6072 15.2892C26.7667 15.2892 26.9249 15.2392 27.0587 15.1429L26.7583 14.7255C26.7121 14.7587 26.6591 14.775 26.6072 14.775V15.2892ZM27.0576 15.1437C27.3196 14.9572 27.4356 14.6337 27.3505 14.324L26.8546 14.4602C26.8822 14.5607 26.8464 14.6628 26.7594 14.7246L27.0576 15.1437ZM27.3505 14.3237L26.8481 12.503L26.3523 12.6398L26.8547 14.4605L27.3505 14.3237ZM26.7599 12.773L28.2529 11.59L27.9336 11.1869L26.4405 12.3699L26.7599 12.773ZM28.2529 11.5901C28.5039 11.3912 28.6048 11.0631 28.5042 10.7575L28.0157 10.9183C28.0481 11.0168 28.0175 11.1205 27.9336 11.1869L28.2529 11.5901ZM28.5041 10.7572C28.4036 10.4532 28.1278 10.2474 27.8087 10.2325L27.7847 10.7462C27.8944 10.7513 27.9832 10.8201 28.0158 10.9186L28.5041 10.7572ZM27.809 10.2325L25.8957 10.1407L25.8711 10.6544L27.7844 10.7462L27.809 10.2325ZM26.1234 10.3051L25.4433 8.54002L24.9634 8.72491L25.6435 10.49L26.1234 10.3051ZM25.4432 8.53967C25.3275 8.24074 25.0425 8.04913 24.7229 8.04913V8.56342C24.8337 8.56342 24.9259 8.62783 24.9636 8.72526L25.4432 8.53967ZM24.7229 8.04913C24.4035 8.04913 24.1179 8.24067 24.0031 8.54049L24.4834 8.72444C24.5203 8.62789 24.6119 8.56342 24.7229 8.56342V8.04913ZM24.0033 8.54002L23.3233 10.3051L23.8032 10.49L24.4832 8.72491L24.0033 8.54002ZM23.5509 10.1407L21.6376 10.2325L21.6623 10.7462L23.5755 10.6544L23.5509 10.1407ZM21.638 10.2325C21.3178 10.2474 21.0429 10.4535 20.9425 10.7572L21.4309 10.9186C21.4635 10.8198 21.5517 10.7514 21.6619 10.7462L21.638 10.2325ZM20.9424 10.7575C20.842 11.0625 20.9414 11.3911 21.1942 11.5904L21.5126 11.1866C21.4289 11.1206 21.3983 11.0174 21.4309 10.9183L20.9424 10.7575ZM5.17541 11.59L6.66847 12.773L6.98784 12.3699L5.49478 11.1869L5.17541 11.59ZM6.58028 12.503L6.0779 14.3237L6.57365 14.4605L7.07603 12.6398L6.58028 12.503ZM6.07782 14.324C5.99261 14.6342 6.10911 14.9564 6.37016 15.1433L6.66952 14.7251C6.58156 14.6621 6.54626 14.5602 6.57373 14.4602L6.07782 14.324ZM6.36971 15.1429C6.62965 15.3299 6.97396 15.3377 7.2425 15.1639L6.96314 14.7321C6.87172 14.7913 6.75747 14.7883 6.66997 14.7254L6.36971 15.1429ZM7.24217 15.1642L8.84478 14.1308L8.56609 13.6986L6.96348 14.7319L7.24217 15.1642ZM8.56609 14.1308L10.1687 15.1642L10.4474 14.7319L8.84478 13.6986L8.56609 14.1308ZM10.1682 15.1638C10.2968 15.2472 10.4425 15.2892 10.5897 15.2892V14.775C10.5414 14.775 10.493 14.7615 10.4479 14.7323L10.1682 15.1638ZM10.5897 15.2892C10.7498 15.2892 10.9067 15.2389 11.0404 15.1435L10.7417 14.7249C10.6938 14.759 10.641 14.775 10.5897 14.775V15.2892ZM11.0401 15.1437C11.3022 14.9572 11.4181 14.6337 11.333 14.324L10.8371 14.4602C10.8647 14.5607 10.8289 14.6628 10.742 14.7246L11.0401 15.1437ZM11.3329 14.3236L10.8298 12.5029L10.3341 12.6399L10.8372 14.4606L11.3329 14.3236ZM10.7416 12.773L12.2347 11.59L11.9153 11.1869L10.4222 12.3699L10.7416 12.773ZM12.2342 11.5904C12.487 11.3911 12.5863 11.0625 12.4859 10.7575L11.9974 10.9183C12.03 11.0174 11.9995 11.1206 11.9158 11.1866L12.2342 11.5904ZM12.4858 10.7572C12.3854 10.4535 12.1106 10.2474 11.7904 10.2325L11.7664 10.7462C11.8766 10.7514 11.9649 10.8198 11.9975 10.9186L12.4858 10.7572ZM11.7907 10.2325L9.87745 10.1407L9.85281 10.6544L11.7661 10.7462L11.7907 10.2325ZM10.1051 10.3051L9.42507 8.54002L8.94517 8.72491L9.62518 10.49L10.1051 10.3051ZM9.42525 8.54049C9.31042 8.24067 9.02483 8.04913 8.70543 8.04913V8.56342C8.81642 8.56342 8.90801 8.62789 8.94499 8.72444L9.42525 8.54049ZM8.70543 8.04913C8.38586 8.04913 8.10082 8.24074 7.98515 8.53967L8.46478 8.72526C8.50248 8.62783 8.59461 8.56342 8.70543 8.56342V8.04913ZM7.98497 8.54012L7.30574 10.3052L7.78572 10.4899L8.46495 8.72481L7.98497 8.54012ZM7.53341 10.1407L5.62014 10.2325L5.64478 10.7462L7.55805 10.6544L7.53341 10.1407ZM5.62049 10.2325C5.30078 10.2474 5.0248 10.453 4.92427 10.7572L5.41258 10.9186C5.44507 10.8203 5.53375 10.7514 5.64442 10.7462L5.62049 10.2325ZM4.92417 10.7575C4.82355 11.0631 4.92441 11.3912 5.17544 11.5901L5.49475 11.1869C5.41086 11.1205 5.38026 11.0167 5.41267 10.9183L4.92417 10.7575ZM28.4739 24.3302C28.2022 23.4688 27.6483 22.6964 26.9133 22.1541L26.6079 22.5679C27.2564 23.0464 27.7449 23.7285 27.9834 24.4849L28.4739 24.3302ZM26.9134 22.1541C26.5618 21.8945 26.1784 21.692 25.7741 21.5494L25.603 22.0343C25.9593 22.1601 26.2974 22.3385 26.6079 22.5678L26.9134 22.1541ZM25.8459 21.9953C26.4326 21.5415 26.8127 20.8342 26.8127 20.0398H26.2985C26.2985 20.6659 25.9994 21.2264 25.5312 21.5885L25.8459 21.9953ZM26.8127 20.0398C26.8127 18.6666 25.6807 17.5564 24.2964 17.5564V18.0707C25.4038 18.0707 26.2985 18.9578 26.2985 20.0398H26.8127ZM24.2964 17.5564C22.9123 17.5564 21.7794 18.6665 21.7794 20.0398H22.2937C22.2937 18.9579 23.189 18.0707 24.2964 18.0707V17.5564ZM21.7794 20.0398C21.7794 20.8335 22.1596 21.5398 22.7444 21.9935L23.0596 21.5871C22.5927 21.2249 22.2937 20.6651 22.2937 20.0398H21.7794ZM22.8166 21.5478C22.0673 21.8116 21.4025 22.2749 20.8935 22.8995L21.2921 23.2244C21.7409 22.6738 22.3266 22.2656 22.9874 22.0329L22.8166 21.5478ZM21.3009 22.9109C21.0664 22.5877 20.7958 22.2871 20.4924 22.0164L20.15 22.4001C20.4257 22.6461 20.6716 22.9192 20.8847 23.2129L21.3009 22.9109ZM20.4921 22.0161C19.8789 21.4708 19.1608 21.0702 18.3871 20.8327L18.2363 21.3244C18.94 21.5404 19.5929 21.9047 20.1503 22.4004L20.4921 22.0161ZM18.4522 21.2939C19.304 20.738 19.8702 19.7824 19.8702 18.6973H19.3559C19.3559 19.5986 18.886 20.3966 18.1712 20.8632L18.4522 21.2939ZM19.8702 18.6973C19.8702 16.977 18.4508 15.5846 16.7146 15.5846V16.0989C18.1741 16.0989 19.3559 17.2683 19.3559 18.6973H19.8702ZM16.7146 15.5846C14.9776 15.5846 13.5582 16.9769 13.5582 18.6973H14.0725C14.0725 17.2683 15.2542 16.0989 16.7146 16.0989V15.5846ZM13.5582 18.6973C13.5582 19.7824 14.1244 20.738 14.977 21.294L15.2579 20.8632C14.5423 20.3966 14.0725 19.5986 14.0725 18.6973H13.5582ZM15.0421 20.8327C14.2676 21.0701 13.5494 21.4708 12.9369 22.0162L13.2789 22.4003C13.8355 21.9047 14.4883 21.5404 15.1928 21.3244L15.0421 20.8327ZM12.937 22.0162C12.6326 22.287 12.3619 22.5877 12.1274 22.9109L12.5437 23.2129C12.7568 22.9192 13.0026 22.6462 13.2788 22.4004L12.937 22.0162ZM12.5349 22.8995C12.026 22.2751 11.362 21.8109 10.6115 21.5477L10.4413 22.033C11.1024 22.2648 11.6873 22.6736 12.1362 23.2244L12.5349 22.8995ZM10.6838 21.9936C11.2697 21.5398 11.649 20.8333 11.649 20.0398H11.1347C11.1347 20.6652 10.8363 21.225 10.3689 21.587L10.6838 21.9936ZM11.649 20.0398C11.649 18.6666 10.5169 17.5564 9.13191 17.5564V18.0707C10.2401 18.0707 11.1347 18.9578 11.1347 20.0398H11.649ZM9.13191 17.5564C7.74768 17.5564 6.61562 18.6666 6.61562 20.0398H7.1299C7.1299 18.9578 8.02458 18.0707 9.13191 18.0707V17.5564ZM6.61562 20.0398C6.61562 20.8343 6.99584 21.5408 7.58248 21.9945L7.89712 21.5877C7.42891 21.2255 7.1299 20.6658 7.1299 20.0398H6.61562ZM7.6538 21.5487C7.24983 21.6921 6.86656 21.8945 6.51498 22.1541L6.8205 22.5678C7.13094 22.3385 7.46915 22.16 7.82579 22.0334L7.6538 21.5487ZM6.51505 22.1541C5.78013 22.6964 5.22609 23.468 4.95518 24.3305L5.44583 24.4846C5.68356 23.7277 6.17184 23.0465 6.82043 22.5679L6.51505 22.1541ZM4.95531 24.3301C4.81193 24.7839 4.89309 25.2493 5.17759 25.6302L5.58964 25.3225C5.40306 25.0726 5.35276 24.7792 5.4457 24.485L4.95531 24.3301ZM5.17759 25.6302C5.46228 26.0114 5.88807 26.2224 6.3649 26.2224V25.7081C6.04826 25.7081 5.77603 25.572 5.58964 25.3225L5.17759 25.6302ZM6.3649 26.2224H11.3637V25.7081H6.3649V26.2224ZM11.1065 25.9652V26.6076H11.6208V25.9652H11.1065ZM11.1065 26.6076C11.1065 27.6785 11.989 28.5427 13.0664 28.5427V28.0284C12.2659 28.0284 11.6208 27.3874 11.6208 26.6076H11.1065ZM13.0664 28.5427H20.3619V28.0284H13.0664V28.5427ZM20.3619 28.5427C21.4394 28.5427 22.3218 27.6785 22.3218 26.6076H21.8075C21.8075 27.3874 21.1625 28.0284 20.3619 28.0284V28.5427ZM22.3218 26.6076V25.9652H21.8075V26.6076H22.3218ZM22.0647 26.2224H27.0635V25.7081H22.0647V26.2224ZM27.0635 26.2224C27.5403 26.2224 27.9661 26.0114 28.2508 25.6302L27.8387 25.3225C27.6523 25.572 27.3801 25.7081 27.0635 25.7081V26.2224ZM28.2505 25.6305C28.5363 25.2491 28.6162 24.7837 28.474 24.3305L27.9833 24.4845C28.0758 24.7793 28.0258 25.0727 27.839 25.3221L28.2505 25.6305ZM11.4106 24.9948H6.3649V25.5091H11.4106V24.9948ZM6.3649 24.9948C6.27844 24.9948 6.22083 24.9654 6.17175 24.8998L5.75987 25.2077C5.90799 25.4058 6.11957 25.5091 6.3649 25.5091V24.9948ZM6.17218 24.9003C6.12163 24.8323 6.11202 24.7721 6.13596 24.6961L5.64542 24.5416C5.57077 24.7787 5.6128 25.0099 5.75944 25.2072L6.17218 24.9003ZM6.13597 24.696C6.54454 23.3978 7.74585 22.5232 9.13191 22.5232V22.009C7.52559 22.009 6.12266 23.0252 5.64541 24.5416L6.13597 24.696ZM9.13191 22.5232C10.1809 22.5232 11.133 23.0218 11.7183 23.8641L12.1406 23.5707C11.4582 22.5885 10.3475 22.009 9.13191 22.009V22.5232ZM11.7015 23.5984C11.4389 24.1014 11.2541 24.6443 11.1572 25.2084L11.664 25.2955C11.7518 24.7846 11.9192 24.2926 12.1574 23.8364L11.7015 23.5984ZM21.0845 26.6076C21.0845 26.9941 20.7634 27.3159 20.3619 27.3159V27.8302C21.0403 27.8302 21.5988 27.2852 21.5988 26.6076H21.0845ZM20.3619 27.3159H13.0664V27.8302H20.3619V27.3159ZM13.0664 27.3159C12.6649 27.3159 12.3439 26.9941 12.3439 26.6076H11.8296C11.8296 27.2852 12.388 27.8302 13.0664 27.8302V27.3159ZM12.3439 26.6076V25.6282H11.8296V26.6076H12.3439ZM12.3422 25.6571C12.5894 23.4661 14.4618 21.8107 16.7131 21.8099L16.7129 21.2957C14.2065 21.2965 12.1084 23.142 11.8312 25.5994L12.3422 25.6571ZM16.713 21.8099H16.7146V21.2957H16.713V21.8099ZM16.7146 21.8099H16.7154V21.2957H16.7146V21.8099ZM16.7153 21.8099C18.9666 21.8107 20.839 23.4661 21.0861 25.6571L21.5972 25.5994C21.32 23.142 19.2219 21.2965 16.7154 21.2957L16.7153 21.8099ZM21.0845 25.6282V26.6076H21.5988V25.6282H21.0845ZM27.2566 24.8998C27.207 24.9661 27.149 24.9956 27.0635 24.9956V25.5098C27.3097 25.5098 27.5209 25.4051 27.6685 25.2077L27.2566 24.8998ZM27.0635 24.9956H22.0177V25.5098H27.0635V24.9956ZM22.2712 25.2092C22.1743 24.6446 21.9904 24.1015 21.7267 23.5981L21.2711 23.8367C21.5098 24.2925 21.6765 24.7844 21.7643 25.2962L22.2712 25.2092ZM21.71 23.8642C22.2961 23.0217 23.2475 22.5232 24.2964 22.5232V22.009C23.0808 22.009 21.971 22.5885 21.2878 23.5705L21.71 23.8642ZM24.2964 22.5232C25.6826 22.5232 26.8846 23.3979 27.2923 24.6959L27.783 24.5418C27.3065 23.0251 25.9027 22.009 24.2964 22.009V22.5232ZM27.2924 24.6961C27.3167 24.7733 27.3066 24.8334 27.2572 24.899L27.6679 25.2085C27.8172 25.0104 27.8572 24.7775 27.7829 24.5416L27.2924 24.6961Z" fill="black" mask="url(#path-1-outside-1_2949_57208)"/>
</g>
</g>
</g>
</g>
</g>
</svg>
