<svg width="36" height="36" viewBox="0 0 36 36" fill="none" xmlns="http://www.w3.org/2000/svg">
<g clip-path="url(#clip0_4684_37139)">
<mask id="mask0_4684_37139" style="mask-type:alpha" maskUnits="userSpaceOnUse" x="0" y="0" width="36" height="36">
<path d="M36 0H0V36H36V0Z" fill="white"/>
</mask>
<g mask="url(#mask0_4684_37139)">
<mask id="mask1_4684_37139" style="mask-type:alpha" maskUnits="userSpaceOnUse" x="0" y="0" width="36" height="36">
<path d="M36 0H0V36H36V0Z" fill="white"/>
</mask>
<g mask="url(#mask1_4684_37139)">
<path fill-rule="evenodd" clip-rule="evenodd" d="M11.828 23.3999L11.3137 22.1142L11.828 21.5999L13.1137 22.3713L13.628 22.1142L13.8852 20.8285H14.9137L15.428 22.1142L16.7138 21.5999L17.4852 22.1142V23.1428L17.228 23.6571L17.4852 24.1713H18.5138V25.4571L17.4852 25.7142L17.228 26.4856L17.7423 27.2571L16.9709 28.2856L15.9423 27.7713L15.428 28.0285L15.1709 29.0571H13.628L13.3709 28.0285L13.1137 27.7713L12.0852 28.2856L11.3137 27.5142L11.5709 26.2285L11.3137 25.7142L10.2852 25.4571V24.4285L11.828 23.3999ZM14.3995 25.7142C14.9675 25.7142 15.428 25.2537 15.428 24.6856C15.428 24.1176 14.9675 23.6571 14.3995 23.6571C13.8314 23.6571 13.3709 24.1176 13.3709 24.6856C13.3709 25.2537 13.8314 25.7142 14.3995 25.7142Z" fill="#FFA600"/>
<path fill-rule="evenodd" clip-rule="evenodd" d="M8.90341 10.3821L8.16412 8.53388L8.90341 7.7946L10.7516 8.90353L11.4909 8.53388L11.8606 6.68567H13.3391L14.0784 8.53388L15.9266 7.7946L17.0356 8.53388V10.0125L16.6659 10.7517L17.0356 11.491H18.5141V13.3392L17.0356 13.7089L16.6659 14.8178L17.4052 15.9267L16.2963 17.4053L14.8177 16.666L14.0784 17.0357L13.7088 18.5142H11.4909L11.1213 17.0357L10.7516 16.666L9.27305 17.4053L8.16412 16.2964L8.53376 14.4482L8.16412 13.7089L6.68555 13.3392V11.8607L8.90341 10.3821ZM12.8572 14.3999C13.7093 14.3999 14.4 13.7091 14.4 12.857C14.4 12.0049 13.7093 11.3142 12.8572 11.3142C12.0051 11.3142 11.3143 12.0049 11.3143 12.857C11.3143 13.7091 12.0051 14.3999 12.8572 14.3999Z" fill="#FFA600"/>
<path d="M14.0578 29.5252H14.9194C15.2716 29.5252 15.5475 29.3043 15.6324 28.9644L15.8022 28.221L15.9125 28.1786L16.5619 28.5821C16.8589 28.769 17.2112 28.7181 17.4616 28.4674L18.0558 27.8727C18.3104 27.6178 18.3529 27.2695 18.1661 26.9764L17.7629 26.3264L17.8054 26.2245L18.5481 26.0503C18.8834 25.9653 19.1041 25.6892 19.1041 25.3366V24.4998C19.1041 24.1472 18.8876 23.871 18.5481 23.7861L17.8096 23.6077L17.7672 23.4972L18.1704 22.8515C18.3571 22.5584 18.3147 22.2101 18.06 21.9509L17.4659 21.3562C17.2197 21.1056 16.8674 21.0588 16.5703 21.2415L15.921 21.6408L15.8022 21.5983L15.6324 20.8507C15.5475 20.5108 15.2716 20.2942 14.9194 20.2942H14.0578C13.7013 20.2942 13.4254 20.5108 13.3448 20.8507L13.175 21.5983L13.0562 21.6408L12.4068 21.2415C12.1055 21.0588 11.7575 21.1056 11.5113 21.3562L10.9129 21.9509C10.6625 22.2101 10.6158 22.5584 10.8026 22.8515L11.2058 23.4972L11.1633 23.6077L10.4291 23.7861C10.0895 23.871 9.87305 24.1472 9.87305 24.4998V25.3366C9.87305 25.6892 10.0938 25.9653 10.4291 26.0503L11.1718 26.2245L11.21 26.3264L10.8068 26.9764C10.6201 27.2695 10.6667 27.6178 10.9171 27.8727L11.5156 28.4674C11.7617 28.7181 12.114 28.769 12.4111 28.5821L13.0604 28.1786L13.175 28.221L13.3448 28.9644C13.4254 29.3043 13.7013 29.5252 14.0578 29.5252ZM14.1682 28.7435C14.096 28.7435 14.0578 28.7138 14.0493 28.6501L13.7947 27.6051C13.5273 27.5414 13.2684 27.4309 13.0604 27.2992L12.1437 27.8642C12.0885 27.8982 12.0376 27.8939 11.9867 27.843L11.541 27.3969C11.4901 27.3502 11.4901 27.2992 11.5241 27.244L12.0885 26.3264C11.9697 26.1225 11.8593 25.8676 11.7957 25.6L10.7474 25.3494C10.6837 25.3409 10.6498 25.3026 10.6498 25.2304V24.6017C10.6498 24.5252 10.6795 24.4955 10.7474 24.4785L11.7914 24.2321C11.8551 23.9475 11.9782 23.6841 12.0843 23.493L11.5198 22.5839C11.4859 22.5244 11.4859 22.4734 11.5325 22.4225L11.9824 21.9807C12.0334 21.9339 12.08 21.9254 12.1437 21.9637L13.052 22.5202C13.2429 22.4012 13.5273 22.2823 13.7989 22.2143L14.0493 21.1693C14.0578 21.1056 14.096 21.0716 14.1682 21.0716H14.809C14.8812 21.0716 14.9151 21.1013 14.9279 21.1693L15.1825 22.2186C15.4584 22.2865 15.7088 22.4012 15.921 22.5202L16.8292 21.9637C16.8929 21.9297 16.9396 21.9339 16.9905 21.9849L17.4404 22.4267C17.4913 22.4734 17.4913 22.5244 17.4531 22.5839L16.8929 23.493C16.9948 23.6841 17.1221 23.9475 17.1857 24.2321L18.2298 24.4785C18.2977 24.4955 18.3232 24.5252 18.3232 24.6017V25.2304C18.3232 25.3026 18.2935 25.3409 18.2298 25.3494L17.1815 25.6C17.1178 25.8676 17.0032 26.1268 16.8844 26.3264L17.4489 27.2397C17.4828 27.2992 17.4828 27.3459 17.4319 27.3927L16.9863 27.843C16.9353 27.8939 16.8844 27.8982 16.8292 27.8642L15.9167 27.2992C15.7045 27.4309 15.4626 27.5371 15.1825 27.6051L14.9279 28.6501C14.9151 28.7138 14.8812 28.7435 14.809 28.7435H14.1682ZM14.4907 26.5218C15.3735 26.5218 16.0992 25.7954 16.0992 24.9076C16.0992 24.0282 15.3735 23.3018 14.4907 23.3018C13.6037 23.3018 12.8737 24.0282 12.8737 24.9076C12.8737 25.7954 13.6037 26.5218 14.4907 26.5218ZM14.4907 25.7869C14.0069 25.7869 13.6122 25.3918 13.6122 24.9076C13.6122 24.4318 14.0111 24.0367 14.4907 24.0367C14.9618 24.0367 15.3565 24.4318 15.3565 24.9076C15.3565 25.3876 14.9618 25.7869 14.4907 25.7869Z" fill="black" stroke="black" stroke-width="0.257143"/>
<path d="M12.1759 19.4091H13.4036C13.9465 19.4091 14.3974 19.0667 14.506 18.5489L14.7065 17.6719C14.7232 17.5634 14.7482 17.5216 14.7733 17.5049L15.692 18.0478C16.143 18.315 16.6942 18.2566 17.07 17.8807L17.9136 17.0289C18.3144 16.628 18.3729 16.0851 18.0806 15.6425L17.496 14.7154C17.496 14.6987 17.5043 14.6904 17.5043 14.7238L18.5567 14.4649C19.0661 14.3396 19.4169 13.8969 19.4169 13.3541V12.2182C19.4169 11.6753 19.0745 11.2327 18.5567 11.1074L17.5043 10.8569C17.5043 10.8569 17.5043 10.8569 17.496 10.8569L18.0806 9.93817C18.3729 9.47882 18.3144 8.94431 17.9136 8.55177L17.07 7.69154C16.6942 7.31571 16.143 7.25724 15.692 7.5245L14.7232 8.10078C14.7148 8.10078 14.7065 8.10078 14.7315 8.09242L14.506 7.02339C14.3974 6.50558 13.9548 6.17151 13.4036 6.17151H12.1759C11.633 6.17151 11.1904 6.50558 11.0734 7.02339L10.8396 8.09242C10.8479 8.09242 10.8479 8.09242 10.8479 8.10078L9.89581 7.5245C9.44481 7.25724 8.89359 7.31571 8.51776 7.69154L7.66587 8.55177C7.27334 8.94431 7.22323 9.48718 7.49884 9.93817L8.09182 10.8652C8.08346 10.8736 8.08346 10.8819 8.07511 10.8569L7.02278 11.1074C6.50497 11.2327 6.1709 11.6753 6.1709 12.2182V13.3541C6.1709 13.8969 6.50497 14.3396 7.02278 14.4649L8.07511 14.7238C8.08346 14.7154 8.08346 14.7154 8.08346 14.7154L7.49884 15.6425C7.21488 16.0851 7.27334 16.628 7.66587 17.0289L8.51776 17.8807C8.89359 18.2566 9.43646 18.315 9.88745 18.0478L10.8145 17.5049C10.8312 17.5049 10.8646 17.5133 10.8813 17.6719L11.0734 18.5489C11.1904 19.0667 11.633 19.4091 12.1759 19.4091ZM12.3429 18.1229C12.2677 18.1229 12.2677 18.1146 12.251 18.0394L11.8836 16.511C11.4493 16.4192 11.0734 16.2271 10.7728 16.06L9.44481 16.8702C9.36964 16.9036 9.36129 16.9119 9.30283 16.8535L8.67644 16.2438C8.61798 16.1853 8.62633 16.1853 8.66809 16.1102L9.46986 14.7989C9.36964 14.54 9.12744 14.1475 9.03557 13.6798L7.53225 13.3207C7.44873 13.304 7.44873 13.304 7.44873 13.2204V12.3518C7.44873 12.2683 7.44873 12.2683 7.53225 12.2516L9.03557 11.8925C9.12744 11.4331 9.36964 11.0406 9.46986 10.7817L8.66809 9.46212C8.62633 9.38695 8.61798 9.38695 8.67644 9.33684L9.30283 8.71881C9.36129 8.66035 9.36964 8.6687 9.44481 8.71046L10.7728 9.51223C11.0734 9.3452 11.4493 9.1531 11.8836 9.06123L12.251 7.54121C12.2677 7.45769 12.2677 7.45769 12.3429 7.45769H13.2365C13.3201 7.45769 13.3201 7.45769 13.3368 7.54121L13.7042 9.06123C14.1302 9.1531 14.5144 9.3452 14.815 9.51223L16.143 8.71046C16.2181 8.6687 16.2265 8.66035 16.2766 8.71881L16.9113 9.33684C16.9615 9.38695 16.9615 9.38695 16.9197 9.46212L16.1179 10.7817C16.2098 11.0406 16.4603 11.4331 16.5439 11.8925L18.0555 12.2516C18.1307 12.2683 18.1391 12.2683 18.1391 12.3518V13.2204C18.1391 13.304 18.1307 13.304 18.0555 13.3207L16.5439 13.6798C16.4603 14.1475 16.2098 14.54 16.1179 14.7989L16.9197 16.1102C16.9615 16.1853 16.9615 16.1853 16.9113 16.2438L16.2766 16.8535C16.2265 16.9119 16.2181 16.9036 16.143 16.8702L14.815 16.06C14.5144 16.2271 14.1302 16.4192 13.7042 16.511L13.3368 18.0394C13.3201 18.1146 13.3201 18.1229 13.2365 18.1229H12.3429ZM12.7939 15.3084C14.1636 15.3084 15.2911 14.1725 15.2911 12.7861C15.2911 11.4164 14.1636 10.2889 12.7939 10.2889C11.3992 10.2889 10.28 11.4081 10.28 12.7861C10.28 14.1642 11.3992 15.3084 12.7939 15.3084ZM12.7939 13.9888C12.1341 13.9888 11.5912 13.4543 11.5912 12.7861C11.5912 12.1347 12.1341 11.5918 12.7939 11.5918C13.4453 11.5918 13.9799 12.1347 13.9799 12.7861C13.9799 13.4459 13.4453 13.9888 12.7939 13.9888ZM23.2504 24.5288H24.2108C24.7119 24.5288 25.1379 24.2281 25.2214 23.7688L25.3801 22.9419C25.3801 22.9336 25.3801 22.9336 25.3801 22.9336L26.0983 23.3846C26.5076 23.6351 27.0087 23.585 27.3595 23.2259L28.036 22.5327C28.3867 22.1736 28.4535 21.6725 28.1863 21.2716L27.7269 20.57C27.7269 20.5617 27.7269 20.5533 27.7353 20.5784L28.5538 20.4113C29.0048 20.3195 29.3138 19.9019 29.3138 19.4091V18.4654C29.3138 17.9726 29.0048 17.555 28.5538 17.4632L27.7353 17.2961C27.7269 17.2961 27.7269 17.2961 27.7269 17.2961L28.1863 16.6029C28.4535 16.202 28.3867 15.7009 28.036 15.3334L27.3595 14.6486C27.0087 14.2895 26.5076 14.2394 26.0983 14.4899L25.3717 14.9409C25.3634 14.9409 25.355 14.9409 25.3801 14.9326L25.2214 14.0974C25.1379 13.6464 24.7119 13.3457 24.2108 13.3457H23.2504C22.7493 13.3457 22.3233 13.6464 22.2398 14.0974L22.0811 14.9326V14.9409L21.3629 14.4899C20.9536 14.2394 20.4525 14.2895 20.1017 14.6486L19.4252 15.3334C19.0745 15.7009 19.0076 16.202 19.2749 16.6029L19.7343 17.3045C19.7343 17.3128 19.7343 17.3212 19.7259 17.2961L18.9074 17.4632C18.4481 17.555 18.1474 17.9726 18.1474 18.4654V19.4091C18.1474 19.9019 18.4481 20.3195 18.9074 20.4113L19.7259 20.5784H19.7343L19.2749 21.2716C19.0076 21.6725 19.0745 22.1736 19.4252 22.5327L20.1017 23.2259C20.4525 23.585 20.9536 23.6351 21.3629 23.3846L22.0895 22.9336C22.0978 22.9336 22.1062 22.9336 22.0811 22.9419L22.2398 23.7688C22.3233 24.2281 22.7493 24.5288 23.2504 24.5288ZM23.4759 23.3094C23.384 23.3094 23.3673 23.2844 23.3506 23.2008L23.0416 21.9815C22.6991 21.9063 22.3818 21.781 22.0561 21.5639L20.9787 22.232C20.9202 22.2571 20.8785 22.2654 20.82 22.2153L20.4442 21.8311C20.3857 21.7643 20.3857 21.7226 20.4191 21.6725L21.0622 20.6368C21.0121 20.428 20.7532 20.0439 20.678 19.6096L19.4586 19.3256C19.3835 19.3089 19.3584 19.2838 19.3584 19.2087V18.6658C19.3584 18.5906 19.3835 18.5656 19.4586 18.5489L20.678 18.2649C20.7532 17.8306 21.0121 17.4464 21.0622 17.2377L20.4191 16.202C20.3857 16.1519 20.3857 16.1102 20.4442 16.0433L20.82 15.6592C20.8785 15.6007 20.9202 15.609 20.9787 15.6425L22.0561 16.3106C22.3818 16.0935 22.6991 15.9682 23.0416 15.893L23.3506 14.6736C23.3673 14.5901 23.384 14.5651 23.4759 14.5651H23.9853C24.0772 14.5651 24.0939 14.5901 24.1106 14.6736L24.4113 15.893C24.762 15.9682 25.0794 16.0935 25.4051 16.3106L26.4825 15.6425C26.5326 15.609 26.5827 15.6007 26.6412 15.6592L27.017 16.0433C27.0755 16.1102 27.0755 16.1519 27.0421 16.202L26.399 17.2377C26.4491 17.4464 26.708 17.8306 26.7832 18.2649L28.0025 18.5489C28.0777 18.5656 28.1028 18.5906 28.1028 18.6658V19.2087C28.1028 19.2838 28.0777 19.3089 28.0025 19.3256L26.7832 19.6096C26.708 20.0439 26.4491 20.428 26.399 20.6368L27.0421 21.6725C27.0755 21.7226 27.0755 21.7643 27.017 21.8311L26.6412 22.2153C26.5827 22.2654 26.5326 22.2571 26.4825 22.232L25.4051 21.5639C25.0794 21.781 24.762 21.9063 24.4113 21.9815L24.1106 23.2008C24.0939 23.2844 24.0772 23.3094 23.9853 23.3094H23.4759ZM23.7264 20.8957C24.7954 20.8957 25.6807 20.0105 25.6807 18.9331C25.6807 17.8724 24.7954 16.9871 23.7264 16.9871C22.649 16.9871 21.7637 17.864 21.7637 18.9331C21.7637 20.0021 22.649 20.8957 23.7264 20.8957ZM23.7932 19.8267C23.3255 19.8267 22.9581 19.4592 22.9581 18.9915C22.9581 18.5405 23.3255 18.1814 23.7932 18.1814C24.2275 18.1814 24.595 18.5405 24.595 18.9915C24.595 19.4509 24.2275 19.8267 23.7932 19.8267Z" fill="black"/>
</g>
</g>
</g>
<defs>
<clipPath id="clip0_4684_37139">
<rect width="36" height="36" fill="white"/>
</clipPath>
</defs>
</svg>
