<svg width="72" height="72" viewBox="0 0 72 72" fill="none" xmlns="http://www.w3.org/2000/svg">
<path d="M25.626 4.07152C23.8179 4.37482 21.9282 5.2847 20.68 6.45121L19.8168 7.25611H16.3172C12.5027 7.25611 11.9778 7.31443 10.8813 7.86269C9.56313 8.52761 8.45494 9.96242 8.13998 11.4322C7.95334 12.3071 7.95334 58.6644 8.13998 59.5393C8.32662 60.4025 8.86322 61.429 9.48147 62.0823C10.0881 62.7238 11.2896 63.4004 12.1878 63.5871C13.0627 63.7737 50.3211 63.7737 51.196 63.5871C53.1791 63.1671 54.8239 61.5107 55.2438 59.5393C55.4305 58.6527 55.4305 12.3071 55.2438 11.4322C54.8239 9.46082 53.1558 7.7927 51.196 7.38442C50.8227 7.30277 49.1896 7.25611 47.0666 7.25611H43.5553L42.7738 6.50954C41.8872 5.68131 41.0007 5.10972 39.8108 4.64312C38.2827 4.02486 37.7694 3.98987 31.5986 4.00153C28.4723 4.0132 25.7893 4.04819 25.626 4.07152ZM37.7461 7.66439C38.1544 7.76937 38.8193 8.01434 39.2042 8.21265C40.3708 8.8309 41.6773 10.3124 42.0155 11.4206L42.0855 11.6889H31.6919H21.2983L21.3682 11.4206C21.5666 10.8023 22.1148 9.95076 22.7797 9.27418C23.5496 8.49261 24.7628 7.80437 25.7543 7.61773C26.0343 7.5594 28.6823 7.51274 31.6336 7.50108C36.043 7.48941 37.1279 7.52441 37.7461 7.66439ZM17.7287 11.5372C17.6354 11.9805 17.5771 12.7504 17.6004 13.287C17.6354 14.3135 17.822 14.6518 18.5336 15.0251C19.0002 15.2701 44.3836 15.2701 44.8502 15.0251C45.5617 14.6518 45.7484 14.3135 45.7834 13.287C45.8067 12.7504 45.7484 11.9805 45.6551 11.5372L45.4918 10.7556H47.9531C50.7761 10.7556 51.1493 10.849 51.616 11.6772L51.8726 12.1321V35.4857V58.8394L51.6276 59.2826C51.4876 59.5276 51.1843 59.8309 50.9394 59.9709L50.4961 60.2158H31.6919H12.8877L12.4444 59.9709C12.1995 59.8309 11.8962 59.5276 11.7562 59.2826L11.5112 58.8394V35.4857V12.1321L11.7678 11.6772C12.2344 10.849 12.5961 10.7556 15.4307 10.7556H17.892L17.7287 11.5372Z" fill="#4D0000"/>
<path d="M37.7461 7.66439C38.1544 7.76937 38.8193 8.01434 39.2042 8.21265C40.3708 8.8309 41.6773 10.3124 42.0155 11.4206L42.0855 11.6889H31.6919H21.2983L21.3682 11.4206C21.5666 10.8023 22.1148 9.95076 22.7797 9.27418C23.5496 8.49261 24.7628 7.80437 25.7543 7.61773C26.0343 7.5594 28.6823 7.51274 31.6336 7.50108C36.043 7.48941 37.1279 7.52441 37.7461 7.66439Z" fill="#E60000"/>
<path d="M24.1681 48.3757C24.1098 48.399 23.8998 48.4457 23.7132 48.4923C23.4916 48.539 22.8616 49.0639 21.9401 49.9738L20.5053 51.3853L20.0737 51.0003C19.5954 50.5804 19.0005 50.3004 18.6039 50.3004C18.1139 50.3004 17.4024 50.7437 17.1341 51.222C16.5858 52.2018 16.8191 52.7734 18.4289 54.3599C19.7121 55.6197 20.027 55.783 20.9369 55.608C21.2985 55.5381 21.7068 55.1881 23.5032 53.415C24.6814 52.2485 25.7313 51.1286 25.8246 50.942C26.2329 50.1721 25.9412 49.0639 25.218 48.6556C24.8447 48.4457 24.3548 48.3173 24.1681 48.3757Z" fill="#4D0000"/>
<path d="M29.488 49.6581C28.9164 49.9148 28.5664 50.498 28.5664 51.2096C28.5664 51.8628 28.7764 52.2595 29.3713 52.6911C29.6863 52.936 29.8029 52.936 37.3153 52.936C44.8276 52.936 44.9443 52.936 45.2592 52.6911C45.8541 52.2595 46.0641 51.8628 46.0641 51.2096C46.0641 50.4864 45.7142 49.9031 45.1192 49.6581C44.5593 49.4248 30.0245 49.4248 29.488 49.6581Z" fill="#4D0000"/>
<rect x="39.834" y="48.5061" width="22.1369" height="18.3778" fill="#FFCDCD"/>
<path d="M59.8 47.5092H58.4458V46.8516C58.4458 46.7385 58.426 46.6298 58.3854 46.5256C58.3448 46.4214 58.2865 46.3293 58.2115 46.2495C58.1365 46.1697 58.05 46.1076 57.9521 46.0643C57.8542 46.0211 57.7521 46 57.6458 46C57.5396 46 57.4375 46.0211 57.3396 46.0643C57.2417 46.1076 57.1552 46.1697 57.0802 46.2495C57.0052 46.3293 56.9479 46.4214 56.9073 46.5256C56.8667 46.6298 56.8458 46.7385 56.8458 46.8516V47.5092H54.0156V46.8516C54.0156 46.7385 53.9958 46.6298 53.9552 46.5256C53.9146 46.4214 53.8563 46.3293 53.7813 46.2495C53.7063 46.1697 53.6198 46.1076 53.5219 46.0643C53.424 46.0211 53.3219 46 53.2156 46C53.1094 46 53.0073 46.0211 52.9094 46.0643C52.8115 46.1076 52.725 46.1697 52.65 46.2495C52.575 46.3293 52.5167 46.4214 52.476 46.5256C52.4354 46.6298 52.4156 46.7385 52.4156 46.8516V47.5092H49.5844V46.8516C49.5844 46.7385 49.5646 46.6298 49.524 46.5256C49.4833 46.4214 49.425 46.3293 49.35 46.2495C49.275 46.1697 49.1885 46.1076 49.0906 46.0643C48.9927 46.0211 48.8906 46 48.7844 46C48.6781 46 48.576 46.0211 48.4781 46.0643C48.3802 46.1076 48.2938 46.1697 48.2188 46.2495C48.1438 46.3293 48.0854 46.4214 48.0448 46.5256C48.0042 46.6298 47.9844 46.7385 47.9844 46.8516V47.5092H45.1542V46.8516C45.1542 46.7385 45.1333 46.6298 45.0927 46.5256C45.0521 46.4214 44.9948 46.3293 44.9198 46.2495C44.8448 46.1697 44.7583 46.1076 44.6604 46.0643C44.5625 46.0211 44.4604 46 44.3542 46C44.2479 46 44.1458 46.0211 44.0479 46.0643C43.95 46.1076 43.8635 46.1697 43.7885 46.2495C43.7135 46.3293 43.6552 46.4214 43.6146 46.5256C43.574 46.6298 43.5542 46.7385 43.5542 46.8516V47.5092H42.2C41.9896 47.5103 41.7823 47.5314 41.576 47.5757C41.3698 47.619 41.1698 47.6844 40.976 47.7698C40.7823 47.8551 40.5979 47.9605 40.4229 48.0847C40.2479 48.2089 40.0865 48.3508 39.9385 48.5083C39.7896 48.6668 39.6573 48.8387 39.5406 49.025C39.424 49.2113 39.325 49.4076 39.2448 49.6138C39.1635 49.8201 39.1031 50.033 39.0625 50.2525C39.0208 50.4721 39 50.6939 39 50.9167V64.5481C39 64.7721 39.0208 64.9927 39.0625 65.2123C39.1031 65.4319 39.1635 65.6448 39.2448 65.851C39.325 66.0584 39.424 66.2546 39.5406 66.4398C39.6573 66.6261 39.7896 66.798 39.9385 66.9566C40.0865 67.1151 40.2479 67.2559 40.4229 67.3801C40.5979 67.5043 40.7823 67.6097 40.976 67.6951C41.1698 67.7816 41.3698 67.8459 41.576 67.8891C41.7823 67.9335 41.9896 67.9556 42.2 67.9556H59.8C60.0104 67.9556 60.2177 67.9335 60.424 67.8891C60.6302 67.8459 60.8302 67.7816 61.024 67.6951C61.2177 67.6097 61.4021 67.5043 61.5771 67.3801C61.7521 67.2559 61.9135 67.1151 62.0615 66.9566C62.2104 66.798 62.3427 66.6261 62.4594 66.4398C62.576 66.2546 62.675 66.0584 62.7552 65.851C62.8365 65.6448 62.8969 65.4319 62.9375 65.2123C62.9792 64.9927 63 64.7721 63 64.5481V50.9167C63 50.6939 62.9792 50.4721 62.9375 50.2525C62.8969 50.033 62.8365 49.8201 62.7552 49.6138C62.675 49.4076 62.576 49.2113 62.4594 49.025C62.3427 48.8387 62.2104 48.6668 62.0615 48.5083C61.9135 48.3508 61.7521 48.2089 61.5771 48.0847C61.4021 47.9605 61.2177 47.8551 61.024 47.7698C60.8302 47.6844 60.6302 47.619 60.424 47.5757C60.2177 47.5314 60.0104 47.5103 59.8 47.5092ZM61.4 64.5481C61.4 64.6601 61.3896 64.771 61.3688 64.8807C61.3479 64.9894 61.3177 65.0959 61.2781 65.2001C61.2375 65.3032 61.1885 65.4008 61.1302 65.4939C61.0719 65.5871 61.0052 65.6736 60.9313 65.7523C60.8563 65.831 60.776 65.902 60.6885 65.9641C60.601 66.0262 60.5094 66.0783 60.4125 66.1216C60.3146 66.1648 60.2146 66.197 60.1125 66.2192C60.0094 66.2402 59.9052 66.2513 59.8 66.2513H42.2C42.0948 66.2513 41.9906 66.2402 41.8875 66.2192C41.7854 66.197 41.6854 66.1648 41.5875 66.1216C41.4906 66.0783 41.399 66.0262 41.3115 65.9641C41.224 65.902 41.1438 65.831 41.0688 65.7523C40.9948 65.6736 40.9281 65.5871 40.8698 65.4939C40.8115 65.4008 40.7625 65.3032 40.7219 65.2001C40.6823 65.0959 40.6521 64.9894 40.6313 64.8807C40.6104 64.771 40.6 64.6601 40.6 64.5481V53.9074H61.4V64.5481ZM61.4 52.203H40.6V50.9167C40.6 50.8058 40.6104 50.695 40.6313 50.5852C40.6521 50.4754 40.6823 50.369 40.7219 50.2658C40.7625 50.1627 40.8115 50.064 40.8698 49.9709C40.9281 49.8777 40.9948 49.7923 41.0688 49.7125C41.1438 49.6338 41.224 49.5628 41.3115 49.5007C41.399 49.4386 41.4906 49.3865 41.5875 49.3432C41.6854 49.3011 41.7854 49.2678 41.8875 49.2468C41.9906 49.2246 42.0948 49.2135 42.2 49.2135H43.5542V49.8711C43.5542 49.9842 43.574 50.0928 43.6146 50.1971C43.6552 50.3024 43.7135 50.3945 43.7885 50.4743C43.8635 50.5541 43.95 50.6151 44.0479 50.6584C44.1458 50.7016 44.2479 50.7238 44.3542 50.7238C44.4604 50.7238 44.5625 50.7016 44.6604 50.6584C44.7583 50.6151 44.8448 50.5541 44.9198 50.4743C44.9948 50.3945 45.0521 50.3024 45.0927 50.1971C45.1333 50.0928 45.1542 49.9842 45.1542 49.8711V49.2135H47.9844V49.8711C47.9844 49.9842 48.0042 50.0928 48.0448 50.1971C48.0854 50.3024 48.1438 50.3945 48.2188 50.4743C48.2938 50.5541 48.3802 50.6151 48.4781 50.6584C48.576 50.7016 48.6781 50.7238 48.7844 50.7238C48.8906 50.7238 48.9927 50.7016 49.0906 50.6584C49.1885 50.6151 49.275 50.5541 49.35 50.4743C49.425 50.3945 49.4833 50.3024 49.524 50.1971C49.5646 50.0928 49.5844 49.9842 49.5844 49.8711V49.2135H52.4156V49.8711C52.4156 49.9842 52.4354 50.0928 52.476 50.1971C52.5167 50.3024 52.575 50.3945 52.65 50.4743C52.725 50.5541 52.8115 50.6151 52.9094 50.6584C53.0073 50.7016 53.1094 50.7238 53.2156 50.7238C53.3219 50.7238 53.424 50.7016 53.5219 50.6584C53.6198 50.6151 53.7063 50.5541 53.7813 50.4743C53.8563 50.3945 53.9146 50.3024 53.9552 50.1971C53.9958 50.0928 54.0156 49.9842 54.0156 49.8711V49.2135H56.8458V49.8711C56.8458 49.9842 56.8667 50.0928 56.9073 50.1971C56.9479 50.3024 57.0052 50.3945 57.0802 50.4743C57.1552 50.5541 57.2417 50.6151 57.3396 50.6584C57.4375 50.7016 57.5396 50.7238 57.6458 50.7238C57.7521 50.7238 57.8542 50.7016 57.9521 50.6584C58.05 50.6151 58.1365 50.5541 58.2115 50.4743C58.2865 50.3945 58.3448 50.3024 58.3854 50.1971C58.426 50.0928 58.4458 49.9842 58.4458 49.8711V49.2135H59.8C59.9052 49.2135 60.0094 49.2246 60.1125 49.2468C60.2146 49.2678 60.3146 49.3011 60.4125 49.3432C60.5094 49.3865 60.601 49.4386 60.6885 49.5007C60.776 49.5628 60.8563 49.6338 60.9313 49.7125C61.0052 49.7923 61.0719 49.8777 61.1302 49.9709C61.1885 50.064 61.2375 50.1627 61.2781 50.2658C61.3177 50.369 61.3479 50.4754 61.3688 50.5852C61.3896 50.695 61.4 50.8058 61.4 50.9167V52.203Z" fill="#4D0000"/>
<path d="M48.5969 65.069C48.2287 65.069 47.9007 65.0058 47.613 64.8792C47.327 64.7509 47.1009 64.575 46.9349 64.3515C46.7705 64.1262 46.6858 63.8665 46.6809 63.5722H47.756C47.7626 63.6955 47.8029 63.804 47.8769 63.8977C47.9525 63.9898 48.0528 64.0613 48.1777 64.1123C48.3027 64.1632 48.4432 64.1887 48.5994 64.1887C48.7622 64.1887 48.906 64.1599 49.0309 64.1024C49.1559 64.0449 49.2537 63.9651 49.3244 63.8632C49.3951 63.7613 49.4304 63.6437 49.4304 63.5106C49.4304 63.3758 49.3926 63.2566 49.317 63.153C49.243 63.0478 49.1362 62.9656 48.9964 62.9064C48.8583 62.8472 48.6939 62.8176 48.5032 62.8176H48.0322V62.0335H48.5032C48.6643 62.0335 48.8065 62.0055 48.9298 61.9496C49.0548 61.8937 49.1518 61.8165 49.2208 61.7178C49.2899 61.6175 49.3244 61.5008 49.3244 61.3677C49.3244 61.2411 49.294 61.1301 49.2332 61.0348C49.174 60.9378 49.0901 60.8621 48.9816 60.8079C48.8748 60.7536 48.7498 60.7265 48.6068 60.7265C48.4621 60.7265 48.3298 60.7528 48.2098 60.8054C48.0898 60.8564 47.9936 60.9295 47.9213 61.0249C47.8489 61.1202 47.8103 61.232 47.8054 61.3603H46.782C46.7869 61.0693 46.87 60.8128 47.0311 60.5909C47.1922 60.369 47.4092 60.1955 47.6821 60.0706C47.9566 59.944 48.2665 59.8807 48.6117 59.8807C48.9603 59.8807 49.2652 59.944 49.5266 60.0706C49.788 60.1972 49.991 60.3681 50.1357 60.5835C50.282 60.7972 50.3543 61.0372 50.3527 61.3035C50.3543 61.5863 50.2664 61.8222 50.0888 62.0113C49.9129 62.2003 49.6836 62.3203 49.4008 62.3713V62.4108C49.7724 62.4584 50.0551 62.5875 50.2491 62.7979C50.4448 63.0067 50.5417 63.2681 50.5401 63.5821C50.5417 63.8698 50.4587 64.1254 50.291 64.349C50.125 64.5726 49.8957 64.7485 49.603 64.8767C49.3104 65.0049 48.975 65.069 48.5969 65.069ZM53.2878 65.111C52.8636 65.1093 52.4987 65.0049 52.1929 64.7978C51.8888 64.5907 51.6545 64.2906 51.4901 63.8977C51.3274 63.5048 51.2468 63.0322 51.2484 62.4798C51.2484 61.9291 51.3298 61.4597 51.4926 61.0717C51.657 60.6838 51.8912 60.3887 52.1954 60.1865C52.5011 59.9826 52.8653 59.8807 53.2878 59.8807C53.7103 59.8807 54.0736 59.9826 54.3777 60.1865C54.6835 60.3903 54.9186 60.6862 55.083 61.0742C55.2474 61.4605 55.3288 61.9291 55.3271 62.4798C55.3271 63.0338 55.2449 63.5073 55.0805 63.9002C54.9178 64.2931 54.6843 64.5931 54.3802 64.8003C54.0761 65.0074 53.7119 65.111 53.2878 65.111ZM53.2878 64.2257C53.5771 64.2257 53.8081 64.0802 53.9807 63.7892C54.1533 63.4982 54.2388 63.0618 54.2372 62.4798C54.2372 62.0968 54.1977 61.7778 54.1188 61.523C54.0415 61.2682 53.9314 61.0767 53.7884 60.9485C53.647 60.8202 53.4801 60.7561 53.2878 60.7561C53.0001 60.7561 52.7699 60.9 52.5973 61.1876C52.4247 61.4753 52.3376 61.9061 52.3359 62.4798C52.3359 62.8678 52.3746 63.1916 52.4518 63.4514C52.5307 63.7095 52.6417 63.9035 52.7847 64.0333C52.9278 64.1616 53.0954 64.2257 53.2878 64.2257Z" fill="#4D0000"/>
<path d="M46.3876 55.0909H47.1461L47.9473 57.0455H47.9814L48.7825 55.0909H49.541V58H48.9444V56.1065H48.9203L48.1674 57.9858H47.7612L47.0083 56.0994H46.9842V58H46.3876V55.0909ZM52.7211 56.5455C52.7211 56.8627 52.6609 57.1326 52.5407 57.3551C52.4213 57.5777 52.2585 57.7476 52.052 57.8651C51.8465 57.9815 51.6155 58.0398 51.3588 58.0398C51.1003 58.0398 50.8683 57.9811 50.6628 57.8636C50.4573 57.7462 50.2949 57.5762 50.1756 57.3537C50.0563 57.1312 49.9966 56.8617 49.9966 56.5455C49.9966 56.2282 50.0563 55.9583 50.1756 55.7358C50.2949 55.5133 50.4573 55.3437 50.6628 55.2273C50.8683 55.1098 51.1003 55.0511 51.3588 55.0511C51.6155 55.0511 51.8465 55.1098 52.052 55.2273C52.2585 55.3437 52.4213 55.5133 52.5407 55.7358C52.6609 55.9583 52.7211 56.2282 52.7211 56.5455ZM52.0975 56.5455C52.0975 56.34 52.0667 56.1667 52.0051 56.0256C51.9445 55.8845 51.8588 55.7775 51.748 55.7045C51.6373 55.6316 51.5075 55.5952 51.3588 55.5952C51.2102 55.5952 51.0804 55.6316 50.9696 55.7045C50.8588 55.7775 50.7727 55.8845 50.7111 56.0256C50.6505 56.1667 50.6202 56.34 50.6202 56.5455C50.6202 56.7509 50.6505 56.9242 50.7111 57.0653C50.7727 57.2064 50.8588 57.3134 50.9696 57.3864C51.0804 57.4593 51.2102 57.4957 51.3588 57.4957C51.5075 57.4957 51.6373 57.4593 51.748 57.3864C51.8588 57.3134 51.9445 57.2064 52.0051 57.0653C52.0667 56.9242 52.0975 56.7509 52.0975 56.5455ZM55.6099 55.0909V58H55.0787L53.813 56.169H53.7917V58H53.1767V55.0909H53.7164L54.9721 56.9205H54.9977V55.0909H55.6099Z" fill="#4D0000"/>
<path d="M34.1 19.1071C33.7839 19.3 33.7143 19.4875 33.7143 20.1357V20.7143H32.4125C30.9875 20.7143 30.7571 20.7464 30.1304 21.0357C29.0804 21.5286 27.9554 22.5946 27.3071 23.7196L27.0607 24.1429H26.1018H25.1429V23.9929C25.1429 23.7946 24.9661 23.5214 24.7571 23.3929C24.5911 23.2911 24.4839 23.2857 22.5714 23.2857C20.6589 23.2857 20.5518 23.2911 20.3857 23.3929C20.2893 23.4518 20.1661 23.575 20.1071 23.6714C20.0054 23.8429 20 23.95 20 28.4286C20 32.9071 20.0054 33.0143 20.1071 33.1857C20.1661 33.2821 20.2893 33.4054 20.3857 33.4643C20.5518 33.5661 20.6589 33.5714 22.5714 33.5714C24.4839 33.5714 24.5911 33.5661 24.7571 33.4643C25.0732 33.2714 25.1429 33.0839 25.1429 32.4304V31.8571H26.2571H27.3714L27.7946 32.2107C28.6464 32.9179 29.0911 33.1857 29.7768 33.4161C30.1304 33.5339 30.2429 33.5393 31.9357 33.5607L33.7143 33.5768V34.0429L33.7089 34.5089L33.2429 34.7339C32.2946 35.1839 31.6571 35.9982 31.2982 37.225C31.1321 37.7982 31.1 39.2875 31.2339 40.4393L31.3304 41.2857H25.9464C20.6696 41.2857 20.5571 41.2857 20.3857 41.3929C20.1286 41.5536 20 41.7946 20 42.1429C20 42.4911 20.1286 42.7321 20.3857 42.8929C20.5625 43 20.6804 43 32 43C43.3196 43 43.4375 43 43.6143 42.8929C43.8714 42.7321 44 42.4911 44 42.1429C44 41.7946 43.8714 41.5536 43.6143 41.3929C43.4429 41.2911 43.3357 41.2857 40.625 41.2857H37.8125L37.9036 40.4982C38.0214 39.4589 38.0268 38.1679 37.9143 37.5839C37.7375 36.6571 37.2821 35.7839 36.6821 35.2321C36.5 35.0714 36.1893 34.8679 35.9054 34.7339L35.4339 34.5089L35.4286 34.0482V33.5821L36.1143 33.5607C36.7679 33.5446 36.8054 33.5339 37.1321 33.3625C37.55 33.1321 37.9571 32.6982 38.0964 32.3232C38.1554 32.1732 38.4821 30.7804 38.8304 29.2321C39.4036 26.6661 39.4518 26.3875 39.4304 26.0286C39.3768 25.2946 38.9268 24.6357 38.2732 24.3196C38.0375 24.2071 37.8661 24.1696 37.5071 24.1536C37.2446 24.1429 37.0357 24.1161 37.0357 24.1054C37.0357 24.0143 37.6036 23.3071 37.9464 22.9643C38.4554 22.45 38.9 22.1339 39.6982 21.7161C40.4482 21.3196 40.5714 21.1804 40.5714 20.7196C40.5714 20.1786 40.2554 19.8571 39.7143 19.8571C39.4679 19.8571 39.3339 19.9 38.9 20.1196C37.5607 20.7946 36.4786 21.7321 35.6911 22.9L35.4286 23.2964V21.4268C35.4286 19.6589 35.4232 19.5518 35.3214 19.3857C35.1607 19.1286 34.9196 19 34.5714 19C34.3732 19 34.2179 19.0321 34.1 19.1071ZM33.7143 23.2857V24.1429H33.1411C32.6589 24.1429 32.5357 24.1589 32.3857 24.25C31.8768 24.5607 31.8554 25.4071 32.3589 25.7339C32.4929 25.8196 32.7125 25.8304 34.9839 25.8571C37.4482 25.8839 37.4643 25.8839 37.5768 26.0018L37.6946 26.1196L37.0893 28.8679C36.6446 30.8768 36.4571 31.6429 36.3821 31.7232C36.2857 31.8304 36.2107 31.8304 33.4839 31.8304C30.9232 31.8304 30.6607 31.8196 30.3661 31.7339C29.9482 31.6054 29.6321 31.4071 28.9679 30.8661C28.6732 30.6196 28.3357 30.3571 28.2232 30.2821L28.0196 30.1429H26.5839H25.1429V28V25.8571H26.5625C28.3357 25.8571 28.3143 25.8625 28.6196 25.1179C28.85 24.5393 29.0857 24.1857 29.5571 23.6821C30.1893 23.0018 30.8429 22.5732 31.3839 22.4768C31.5018 22.4607 32.075 22.4393 32.6589 22.4339L33.7143 22.4286V23.2857ZM23.4286 28.4286V31.8571H22.5714H21.7143V28.4286V25H22.5714H23.4286V28.4286ZM35.1393 36.3036C35.5946 36.5286 35.9643 37.0643 36.1518 37.7768C36.2911 38.3125 36.2375 39.8446 36.0393 41.0821L36.0071 41.2857H34.5714H33.1357L33.1089 41.1089C33.0929 41.0179 33.05 40.6964 33.0179 40.4018C32.9857 40.1071 32.9482 39.8018 32.9375 39.7161L32.9161 39.5714H33.575C34.1696 39.5714 34.25 39.5607 34.4107 39.4482C34.9357 39.1 34.9357 38.3286 34.4107 37.9804C34.25 37.8679 34.1696 37.8571 33.6018 37.8571H32.975L33.0286 37.6536C33.1893 37.075 33.5643 36.5446 33.9768 36.3304C34.3036 36.1589 34.8125 36.1482 35.1393 36.3036Z" fill="#4D0000"/>
</svg>
