<svg width="72" height="72" viewBox="0 0 72 72" fill="none" xmlns="http://www.w3.org/2000/svg">
<rect x="11" y="11" width="48" height="14" fill="#22885E"/>
<path fill-rule="evenodd" clip-rule="evenodd" d="M51.1875 9.5625H58.5C59.5443 9.5625 60.5458 9.97734 61.2842 10.7158C62.0227 11.4542 62.4375 12.4557 62.4375 13.5V58.5C62.4375 59.5443 62.0227 60.5458 61.2842 61.2842C60.5458 62.0227 59.5443 62.4375 58.5 62.4375H13.5C12.4557 62.4375 11.4542 62.0227 10.7158 61.2842C9.97734 60.5458 9.5625 59.5443 9.5625 58.5V13.5C9.5625 12.4557 9.97734 11.4542 10.7158 10.7158C11.4542 9.97734 12.4557 9.5625 13.5 9.5625H20.8125V6.75C20.8125 6.30245 20.9903 5.87322 21.3068 5.55676C21.6232 5.24029 22.0524 5.0625 22.5 5.0625C22.9476 5.0625 23.3768 5.24029 23.6932 5.55676C24.0097 5.87322 24.1875 6.30245 24.1875 6.75V9.5625H47.8125V6.75C47.8125 6.30245 47.9903 5.87322 48.3068 5.55676C48.6232 5.24029 49.0524 5.0625 49.5 5.0625C49.9476 5.0625 50.3768 5.24029 50.6932 5.55676C51.0097 5.87322 51.1875 6.30245 51.1875 6.75V9.5625ZM20.8125 12.9375H13.5C13.3508 12.9375 13.2077 12.9968 13.1023 13.1023C12.9968 13.2077 12.9375 13.3508 12.9375 13.5V23.0625H59.0625V13.5C59.0625 13.3508 59.0032 13.2077 58.8977 13.1023C58.7923 12.9968 58.6492 12.9375 58.5 12.9375H51.1875V15.75C51.1875 16.1976 51.0097 16.6268 50.6932 16.9432C50.3768 17.2597 49.9476 17.4375 49.5 17.4375C49.0524 17.4375 48.6232 17.2597 48.3068 16.9432C47.9903 16.6268 47.8125 16.1976 47.8125 15.75V12.9375H24.1875V15.75C24.1875 16.1976 24.0097 16.6268 23.6932 16.9432C23.3768 17.2597 22.9476 17.4375 22.5 17.4375C22.0524 17.4375 21.6232 17.2597 21.3068 16.9432C20.9903 16.6268 20.8125 16.1976 20.8125 15.75V12.9375ZM13.5 59.0625H58.5C58.6492 59.0625 58.7923 59.0032 58.8977 58.8977C59.0032 58.7923 59.0625 58.6492 59.0625 58.5V26.4375H12.9375V58.5C12.9375 58.6492 12.9968 58.7923 13.1023 58.8977C13.2077 59.0032 13.3508 59.0625 13.5 59.0625Z" fill="#0B2D1F"/>
<path d="M38.1 31.1071C37.7839 31.3 37.7143 31.4875 37.7143 32.1357V32.7143H36.4125C34.9875 32.7143 34.7571 32.7464 34.1304 33.0357C33.0804 33.5286 31.9554 34.5946 31.3071 35.7196L31.0607 36.1429H30.1018H29.1429V35.9929C29.1429 35.7946 28.9661 35.5214 28.7571 35.3929C28.5911 35.2911 28.4839 35.2857 26.5714 35.2857C24.6589 35.2857 24.5518 35.2911 24.3857 35.3929C24.2893 35.4518 24.1661 35.575 24.1071 35.6714C24.0054 35.8429 24 35.95 24 40.4286C24 44.9071 24.0054 45.0143 24.1071 45.1857C24.1661 45.2821 24.2893 45.4054 24.3857 45.4643C24.5518 45.5661 24.6589 45.5714 26.5714 45.5714C28.4839 45.5714 28.5911 45.5661 28.7571 45.4643C29.0732 45.2714 29.1429 45.0839 29.1429 44.4304V43.8571H30.2571H31.3714L31.7946 44.2107C32.6464 44.9179 33.0911 45.1857 33.7768 45.4161C34.1304 45.5339 34.2429 45.5393 35.9357 45.5607L37.7143 45.5768V46.0429L37.7089 46.5089L37.2429 46.7339C36.2946 47.1839 35.6571 47.9982 35.2982 49.225C35.1321 49.7982 35.1 51.2875 35.2339 52.4393L35.3304 53.2857H29.9464C24.6696 53.2857 24.5571 53.2857 24.3857 53.3929C24.1286 53.5536 24 53.7946 24 54.1429C24 54.4911 24.1286 54.7321 24.3857 54.8929C24.5625 55 24.6804 55 36 55C47.3196 55 47.4375 55 47.6143 54.8929C47.8714 54.7321 48 54.4911 48 54.1429C48 53.7946 47.8714 53.5536 47.6143 53.3929C47.4429 53.2911 47.3357 53.2857 44.625 53.2857H41.8125L41.9036 52.4982C42.0214 51.4589 42.0268 50.1679 41.9143 49.5839C41.7375 48.6571 41.2821 47.7839 40.6821 47.2321C40.5 47.0714 40.1893 46.8679 39.9054 46.7339L39.4339 46.5089L39.4286 46.0482V45.5821L40.1143 45.5607C40.7679 45.5446 40.8054 45.5339 41.1321 45.3625C41.55 45.1321 41.9571 44.6982 42.0964 44.3232C42.1554 44.1732 42.4821 42.7804 42.8304 41.2321C43.4036 38.6661 43.4518 38.3875 43.4304 38.0286C43.3768 37.2946 42.9268 36.6357 42.2732 36.3196C42.0375 36.2071 41.8661 36.1696 41.5071 36.1536C41.2446 36.1429 41.0357 36.1161 41.0357 36.1054C41.0357 36.0143 41.6036 35.3071 41.9464 34.9643C42.4554 34.45 42.9 34.1339 43.6982 33.7161C44.4482 33.3196 44.5714 33.1804 44.5714 32.7196C44.5714 32.1786 44.2554 31.8571 43.7143 31.8571C43.4679 31.8571 43.3339 31.9 42.9 32.1196C41.5607 32.7946 40.4786 33.7321 39.6911 34.9L39.4286 35.2964V33.4268C39.4286 31.6589 39.4232 31.5518 39.3214 31.3857C39.1607 31.1286 38.9196 31 38.5714 31C38.3732 31 38.2179 31.0321 38.1 31.1071ZM37.7143 35.2857V36.1429H37.1411C36.6589 36.1429 36.5357 36.1589 36.3857 36.25C35.8768 36.5607 35.8554 37.4071 36.3589 37.7339C36.4929 37.8196 36.7125 37.8304 38.9839 37.8571C41.4482 37.8839 41.4643 37.8839 41.5768 38.0018L41.6946 38.1196L41.0893 40.8679C40.6446 42.8768 40.4571 43.6429 40.3821 43.7232C40.2857 43.8304 40.2107 43.8304 37.4839 43.8304C34.9232 43.8304 34.6607 43.8196 34.3661 43.7339C33.9482 43.6054 33.6321 43.4071 32.9679 42.8661C32.6732 42.6196 32.3357 42.3571 32.2232 42.2821L32.0196 42.1429H30.5839H29.1429V40V37.8571H30.5625C32.3357 37.8571 32.3143 37.8625 32.6196 37.1179C32.85 36.5393 33.0857 36.1857 33.5571 35.6821C34.1893 35.0018 34.8429 34.5732 35.3839 34.4768C35.5018 34.4607 36.075 34.4393 36.6589 34.4339L37.7143 34.4286V35.2857ZM27.4286 40.4286V43.8571H26.5714H25.7143V40.4286V37H26.5714H27.4286V40.4286ZM39.1393 48.3036C39.5946 48.5286 39.9643 49.0643 40.1518 49.7768C40.2911 50.3125 40.2375 51.8446 40.0393 53.0821L40.0071 53.2857H38.5714H37.1357L37.1089 53.1089C37.0929 53.0179 37.05 52.6964 37.0179 52.4018C36.9857 52.1071 36.9482 51.8018 36.9375 51.7161L36.9161 51.5714H37.575C38.1696 51.5714 38.25 51.5607 38.4107 51.4482C38.9357 51.1 38.9357 50.3286 38.4107 49.9804C38.25 49.8679 38.1696 49.8571 37.6018 49.8571H36.975L37.0286 49.6536C37.1893 49.075 37.5643 48.5446 37.9768 48.3304C38.3036 48.1589 38.8125 48.1482 39.1393 48.3036Z" fill="#0B2D1F"/>
</svg>
