<svg width="72" height="72" viewBox="0 0 72 72" fill="none" xmlns="http://www.w3.org/2000/svg">
<g id="lot-serial-number">
<g id="Group 19">
<path id="Vector" d="M10.4 12.6281H23.2V6H10.4C6.8704 6 4 8.97269 4 12.6281V25.8842H10.4V12.6281ZM10.4 65.6526H23.2V59.0245H10.4V45.7684H4V59.0245C4 62.6799 6.8704 65.6526 10.4 65.6526ZM61.6 6H48.8V12.6281H61.6V25.8842H68V12.6281C68 8.97269 65.1297 6 61.6 6ZM61.6 59.0245H48.8V65.6526H61.6C65.1297 65.6526 68 62.6799 68 59.0245V45.7684H61.6V59.0245Z" fill="#0D313B"/>
<path id="Vector_2" d="M13.5625 29.1292V24.2339H21.7974V46.7094H16.5057V29.1292H13.5625ZM25.0967 42.4914C25.7706 41.9372 26.0778 41.6806 26.0183 41.7217C27.9606 40.0591 29.4867 38.6941 30.5966 37.6268C31.7263 36.5595 32.6776 35.4408 33.4506 34.2709C34.2235 33.1009 34.61 31.9617 34.61 30.8534C34.61 30.0118 34.4217 29.355 34.0451 28.8829C33.6686 28.4108 33.1037 28.1748 32.3506 28.1748C31.5975 28.1748 31.0029 28.4724 30.5668 29.0676C30.1506 29.6424 29.9425 30.4634 29.9425 31.5307H25.0372C25.0769 29.786 25.4336 28.3287 26.1075 27.1588C26.8012 25.9888 27.7029 25.1267 28.8128 24.5725C29.9425 24.0183 31.1912 23.7412 32.5587 23.7412C34.9172 23.7412 36.691 24.3673 37.8802 25.6193C39.0892 26.8714 39.6937 28.5032 39.6937 30.5147C39.6937 32.7109 38.9703 34.7532 37.5234 36.6416C36.0766 38.5094 34.2334 40.3362 31.9938 42.1219H40.0207V46.4015H25.0967V42.4914ZM42.4373 30.5763C42.5166 28.38 43.2103 26.6867 44.5183 25.4962C45.8264 24.3057 47.6003 23.7104 49.8398 23.7104C51.3263 23.7104 52.5947 23.9773 53.6452 24.5109C54.7154 25.0446 55.5181 25.7733 56.0532 26.6969C56.6082 27.6206 56.8856 28.6571 56.8856 29.8066C56.8856 31.1612 56.5586 32.2696 55.9046 33.1317C55.2505 33.9733 54.4875 34.548 53.6154 34.8559V34.979C54.7451 35.369 55.637 36.0156 56.291 36.9187C56.9451 37.8218 57.2721 38.9815 57.2721 40.3978C57.2721 41.6704 56.9847 42.7993 56.41 43.7845C55.855 44.7492 55.0325 45.5087 53.9425 46.0628C52.8722 46.617 51.5939 46.8941 50.1074 46.8941C47.7291 46.8941 45.8264 46.2886 44.3994 45.0776C42.9923 43.8666 42.249 42.0398 42.1698 39.5973H47.1048C47.1246 40.5004 47.3723 41.2188 47.848 41.7525C48.3237 42.2656 49.0173 42.5222 49.929 42.5222C50.702 42.5222 51.2966 42.2964 51.7128 41.8448C52.1488 41.3727 52.3668 40.757 52.3668 39.9975C52.3668 39.0123 52.0596 38.3042 51.4452 37.8731C50.8506 37.4216 49.8894 37.1958 48.5615 37.1958H47.6102V32.9162H48.5615C49.5723 32.9162 50.3849 32.7417 50.9993 32.3928C51.6335 32.0233 51.9506 31.3768 51.9506 30.4531C51.9506 29.7142 51.7524 29.1395 51.356 28.729C50.9596 28.3185 50.4146 28.1132 49.7209 28.1132C48.9678 28.1132 48.4029 28.3492 48.0264 28.8213C47.6696 29.2934 47.4615 29.8784 47.4021 30.5763H42.4373Z" fill="#1B6278"/>
</g>
</g>
</svg>
