<svg width="36" height="36" viewBox="0 0 36 36" fill="none" xmlns="http://www.w3.org/2000/svg">
<path fill-rule="evenodd" clip-rule="evenodd" d="M15.0388 24.3093C15.1482 23.9223 15.2068 23.514 15.2068 23.0921C15.2068 21.8131 14.6688 20.6598 13.8069 19.8461H28.5964V24.3093H15.0388Z" fill="#FFA600"/>
<path d="M28.596 10.1082H9.93164V14.5714H28.596V10.1082Z" fill="#FFA600"/>
<path fill-rule="evenodd" clip-rule="evenodd" d="M8.69922 19.1233V11.6492C8.69922 9.7324 9.70666 8.7428 11.6324 8.7428H26.8866C28.8212 8.7428 29.8286 9.74132 29.8286 11.6492V22.4992C29.8286 24.4071 28.8212 25.4056 26.8866 25.4056H14.5607C14.8821 24.8763 15.0966 24.275 15.1741 23.6314H26.7707C27.5909 23.6314 28.0455 23.2035 28.0455 22.3387V20.2525H14.1868C13.5909 19.5306 12.7724 18.9993 11.8363 18.7636H28.0455V15.3847H10.4734V18.6368C9.83688 18.6748 9.2363 18.8461 8.69922 19.1233ZM11.7483 10.517C10.9281 10.517 10.4734 10.9449 10.4734 11.8097V13.8959H28.0455V11.8097C28.0455 10.9449 27.5909 10.517 26.7707 10.517H11.7483ZM26.1644 12.2109C26.1644 12.7993 25.6741 13.2896 25.0857 13.2985C24.4972 13.3075 23.9891 12.7993 23.9891 12.2109C23.9891 11.6135 24.4972 11.1143 25.0857 11.1143C25.6741 11.1143 26.1644 11.6135 26.1644 12.2109ZM26.1644 17.0608C26.1644 17.6492 25.6741 18.1396 25.0857 18.1485C24.4972 18.1574 23.9891 17.6492 23.9891 17.0608C23.9891 16.4635 24.4972 15.9553 25.0857 15.9553C25.6741 15.9553 26.1644 16.4635 26.1644 17.0608ZM26.1644 21.9019C26.1644 22.4903 25.6741 22.9806 25.0857 22.9895C24.4972 23.0074 23.9891 22.4903 23.9891 21.9019C23.9891 21.3134 24.4972 20.8053 25.0857 20.8053C25.6741 20.8053 26.1644 21.3045 26.1644 21.9019Z" fill="black"/>
<path d="M10.5385 27.1495C12.6512 27.1495 14.395 25.4049 14.395 23.2949C14.395 21.1849 12.6475 19.4403 10.5348 19.4403C8.42586 19.4403 6.68579 21.1849 6.68579 23.2949C6.68579 25.4049 8.42958 27.1495 10.5385 27.1495ZM9.55485 22.5344C9.53622 22.3928 9.47288 22.266 9.376 22.1691C9.69271 21.3713 10.192 20.6519 10.8403 20.0591C10.8813 20.0629 10.926 20.0703 10.9708 20.074C10.5124 20.8755 10.2367 21.7665 10.1659 22.691C9.95726 22.6537 9.75233 22.6015 9.55485 22.5344ZM7.85577 21.4794C8.36624 20.7339 9.17479 20.2045 10.1026 20.074C9.58466 20.6407 9.17479 21.2893 8.89907 21.9939C8.79101 22.0013 8.69413 22.0349 8.61216 22.0871C8.34016 21.9156 8.08679 21.7106 7.85577 21.4794ZM11.7309 21.5018C11.7271 21.1104 11.7756 20.719 11.8836 20.3424C12.573 20.663 13.1393 21.2185 13.4672 21.9044C13.1058 22.1803 12.7034 22.389 12.2786 22.5344C12.1668 22.4002 12.0029 22.3145 11.8203 22.3108C11.7644 22.0461 11.7346 21.7777 11.7309 21.5018ZM11.2204 21.5018C11.2241 21.8485 11.2651 22.1915 11.3434 22.5195C11.2875 22.5829 11.2428 22.6612 11.2204 22.7432C11.1235 22.7506 11.0304 22.7544 10.9335 22.7544C10.8478 22.7544 10.7584 22.7544 10.6727 22.7469C10.7323 21.9529 10.9521 21.1849 11.321 20.4953C11.2502 20.8196 11.2167 21.1588 11.2204 21.5018ZM7.29314 23.2949C7.29314 22.814 7.39747 22.3592 7.59122 21.9454C7.81851 22.1616 8.06816 22.3555 8.33271 22.5195C8.32898 22.5493 8.32525 22.5754 8.32525 22.6053C8.32525 22.8066 8.42213 22.9892 8.5749 23.1011C8.5041 23.4627 8.46684 23.8354 8.46312 24.2082C8.04953 24.0069 7.65829 23.7497 7.29686 23.444C7.29314 23.3956 7.29314 23.3434 7.29314 23.2949ZM13.7876 23.2949C13.7876 23.5894 13.7467 23.8765 13.6721 24.1486C13.4635 24.2604 13.2511 24.3573 13.035 24.4394C12.6996 24.1299 12.4239 23.7721 12.2115 23.3769C12.3084 23.2875 12.3792 23.1682 12.4053 23.0302C12.8524 22.8848 13.2734 22.6761 13.661 22.404C13.7429 22.6873 13.7876 22.9855 13.7876 23.2949ZM8.97359 24.4319C8.96241 24.0181 8.99594 23.608 9.07046 23.2092C9.19715 23.1831 9.31266 23.116 9.39836 23.0228C9.64055 23.1011 9.8902 23.1644 10.1473 23.2054C10.151 23.664 10.2032 24.115 10.3001 24.5549C10.2367 24.6071 10.1846 24.6705 10.1473 24.7413C9.74861 24.6817 9.35364 24.5773 8.97359 24.4319ZM10.9335 23.2651C11.0527 23.2651 11.172 23.2614 11.2912 23.2502C11.3843 23.3956 11.5371 23.4962 11.7122 23.526C11.9172 23.9249 12.178 24.2902 12.491 24.6146C12.0886 24.7227 11.675 24.786 11.2614 24.8047C11.1831 24.6071 11.008 24.4617 10.7994 24.4282C10.7137 24.0479 10.6652 23.6565 10.6615 23.2576C10.7509 23.2651 10.8441 23.2651 10.9335 23.2651ZM7.41982 24.1859C7.75144 24.4207 8.10914 24.6183 8.4743 24.7823C8.49665 25.17 8.55627 25.554 8.65687 25.9305C8.06816 25.5093 7.62476 24.8942 7.41982 24.1859ZM10.5385 26.5456C10.1063 26.5456 9.69271 26.4561 9.31266 26.2996C9.15244 25.8783 9.04811 25.4384 9.0034 24.9874C9.36482 25.1104 9.73743 25.1998 10.11 25.252C10.1957 25.4794 10.4081 25.6397 10.6615 25.6509C10.7844 25.9417 10.9335 26.225 11.1049 26.4934C10.9223 26.527 10.7323 26.5456 10.5385 26.5456ZM11.1384 25.4608C11.1794 25.4198 11.2129 25.3676 11.239 25.3154C11.8128 25.293 12.3792 25.1961 12.9307 25.0172C13.0089 25.0805 13.0871 25.1365 13.1654 25.1924C12.7816 25.7217 12.2451 26.1318 11.6228 26.3555C11.4328 26.0722 11.2726 25.7739 11.1384 25.4608Z" fill="black" stroke="black" stroke-width="0.308571"/>
</svg>
