<svg width="36" height="36" viewBox="0 0 36 36" fill="none" xmlns="http://www.w3.org/2000/svg">
<path d="M14.3999 9.50001L13.8999 10.8V11.3H21.8999V10.3L20.8999 9.30001L19.4999 9.00001L19.1999 8.50001L18.9999 7.70001L17.6999 7.20001L16.6999 7.70001L16.3999 8.70001L15.3999 9.00001L14.3999 9.50001Z" fill="#FFA600"/>
<path d="M22.1001 11.6H13.6001V10.7L14.2001 9.30002L15.3001 8.70002L16.2001 8.50002L16.4001 7.50002L17.6001 6.90002L19.1001 7.50002L19.4001 8.40002L19.6001 8.80002L21.0001 9.00002L22.2001 10.2V11.6H22.1001ZM14.1001 11.1H21.6001V10.4L20.7001 9.50002L19.4001 9.20002L19.1001 8.60002L18.9001 7.90002L17.8001 7.50002L17.0001 7.90002L16.7001 9.00002L15.5001 9.30002L14.6001 9.80002L14.1001 10.9V11.1Z" fill="black"/>
<path d="M15.3998 13.4H12.7998V16H15.3998V13.4Z" fill="#FFA600"/>
<path d="M15.3998 18.5H12.7998V21.1H15.3998V18.5Z" fill="#FFA600"/>
<path d="M15.3998 23.1H12.7998V25.7H15.3998V23.1Z" fill="#FFA600"/>
<path d="M14.2998 10.6H21.3998C21.2998 10.3 21.1998 10.1 20.9998 9.90001C20.6998 9.60001 20.2998 9.40001 19.7998 9.40001H19.3998C19.0998 9.40001 18.8998 9.20001 18.8998 8.90001V8.70001C18.8998 8.40001 18.7998 8.20001 18.5998 8.00001C18.3998 7.80001 18.1998 7.70001 17.8998 7.70001C17.5998 7.70001 17.3998 7.80001 17.1998 8.00001C16.9998 8.20001 16.8998 8.40001 16.8998 8.70001V8.90001C16.8998 9.20001 16.6998 9.40001 16.3998 9.40001H15.9998C15.4998 9.40001 15.0998 9.60001 14.7998 9.90001C14.5998 10.1 14.3998 10.4 14.2998 10.6ZM21.9998 11.6H13.7998C13.4998 11.6 13.2998 11.4 13.2998 11.1C13.2998 10.4 13.5998 9.70001 14.0998 9.20001C14.5998 8.70001 15.1998 8.40001 15.8998 8.40001C15.9998 8.00001 16.1998 7.60001 16.4998 7.30001C16.8998 6.90001 17.3998 6.70001 17.8998 6.70001C18.3998 6.70001 18.8998 6.90001 19.2998 7.30001C19.5998 7.60001 19.7998 8.00001 19.8998 8.50001C20.5998 8.50001 21.2998 8.80001 21.6998 9.30001C22.1998 9.80001 22.4998 10.5 22.4998 11.2C22.4998 11.4 22.2998 11.6 21.9998 11.6Z" fill="black"/>
<path d="M25.5998 9.9C25.2998 9.6 24.9998 9.5 24.5998 9.5H21.6998C21.3998 9.5 21.1998 9.7 21.1998 10C21.1998 10.3 21.3998 10.5 21.6998 10.5H24.5998C24.6998 10.5 24.8998 10.6 24.8998 10.6C24.9998 10.7 24.9998 10.8 24.9998 10.9V28.4C24.9998 28.5 24.8998 28.7 24.8998 28.7C24.8998 28.7 24.6998 28.8 24.5998 28.8H11.1998C11.0998 28.8 10.8998 28.7 10.8998 28.7C10.7998 28.6 10.7998 28.5 10.7998 28.4V10.9C10.7998 10.8 10.8998 10.6 10.8998 10.6C10.9998 10.5 11.0998 10.5 11.1998 10.5H14.0998C14.3998 10.5 14.5998 10.3 14.5998 10C14.5998 9.7 14.3998 9.5 14.0998 9.5H11.1998C10.7998 9.5 10.3998 9.7 10.1998 9.9C9.8998 10.2 9.7998 10.5 9.7998 10.9V28.4C9.7998 28.8 9.9998 29.2 10.1998 29.4C10.4998 29.7 10.7998 29.8 11.1998 29.8H24.4998C24.8998 29.8 25.2998 29.6 25.4998 29.4C25.7998 29.1 25.8998 28.8 25.8998 28.4V10.9C25.9998 10.5 25.7998 10.2 25.5998 9.9Z" fill="black"/>
<path d="M12.5 13.5V16.2C12.5 16.3 12.6 16.4 12.7 16.4H15.4C15.5 16.4 15.6 16.3 15.6 16.2V13.5C15.6 13.4 15.5 13.3 15.4 13.3H12.7C12.6 13.3 12.5 13.4 12.5 13.5ZM13 13.7H15.2V16H13V13.7Z" fill="black"/>
<path d="M14.6999 14.2L13.7999 15L13.3999 14.6C13.2999 14.5 13.1999 14.5 13.0999 14.6C12.9999 14.7 12.9999 14.8 13.0999 14.9L13.5999 15.4C13.5999 15.4 13.6999 15.5 13.7999 15.5C13.8999 15.5 13.8999 15.5 13.9999 15.4L14.9999 14.4C15.0999 14.3 15.0999 14.2 14.9999 14.1C14.9999 14.1 14.7999 14.1 14.6999 14.2Z" fill="black"/>
<path d="M15.6996 18.3C15.6996 18.2 15.5996 18.1 15.4996 18.1H12.7996C12.6996 18.1 12.5996 18.2 12.5996 18.3V21C12.5996 21.1 12.6996 21.2 12.7996 21.2H15.4996C15.5996 21.2 15.6996 21.1 15.6996 21V18.3ZM15.1996 20.8H12.9996V18.6H15.1996V20.8Z" fill="black"/>
<path d="M13.6999 20.3C13.7999 20.4 13.8999 20.4 13.9999 20.3L14.9999 19.3C15.0999 19.2 15.0999 19.1 14.9999 19C14.8999 18.9 14.7999 18.9 14.6999 19L13.7999 19.9L13.3999 19.5C13.2999 19.4 13.1999 19.4 13.0999 19.5C12.9999 19.6 12.9999 19.7 13.0999 19.8L13.6999 20.3Z" fill="black"/>
<path d="M15.4 22.9H12.7C12.6 22.9 12.5 23 12.5 23.1V25.8C12.5 25.9 12.6 26 12.7 26H15.4C15.5 26 15.6 25.9 15.6 25.8V23.1C15.7 23 15.6 22.9 15.4 22.9ZM15.2 25.6H13V23.4H15.2V25.6Z" fill="black"/>
<path d="M13.7 25.1C13.7 25.1 13.8 25.2 13.9 25.2C14 25.2 14 25.2 14.1 25.1L15.1 24.1C15.2 24 15.2 23.9 15.1 23.8C15 23.7 14.9 23.7 14.8 23.8L13.9 24.7L13.5 24.3C13.4 24.2 13.3 24.2 13.2 24.3C13.1 24.4 13.1 24.5 13.2 24.6L13.7 25.1Z" fill="black"/>
<path d="M22.9999 15.3H16.3999C16.0999 15.3 15.8999 15.1 15.8999 14.8C15.8999 14.5 16.0999 14.3 16.3999 14.3H22.9999C23.2999 14.3 23.4999 14.5 23.4999 14.8C23.4999 15.1 23.2999 15.3 22.9999 15.3Z" fill="black"/>
<path d="M22.9999 20.1H16.3999C16.0999 20.1 15.8999 19.9 15.8999 19.6C15.8999 19.3 16.0999 19.1 16.3999 19.1H22.9999C23.2999 19.1 23.4999 19.3 23.4999 19.6C23.4999 19.9 23.2999 20.1 22.9999 20.1Z" fill="black"/>
<path d="M22.9999 25H16.3999C16.0999 25 15.8999 24.8 15.8999 24.5C15.8999 24.2 16.0999 24 16.3999 24H22.9999C23.2999 24 23.4999 24.2 23.4999 24.5C23.4999 24.8 23.2999 25 22.9999 25Z" fill="black"/>
</svg>
