<svg width="36" height="36" viewBox="0 0 36 36" fill="none" xmlns="http://www.w3.org/2000/svg">
<g id="outlet-order">
<g id="Group 1171274915">
<path id="Rectangle 34624728" d="M20.0961 19.8701H26.197L25.2932 23.4855H20.774L20.0961 19.8701Z" fill="#FFA600"/>
<g id="Group">
<path id="Vector" d="M22.629 15.4287C18.9431 15.4287 15.9429 18.4289 15.9429 22.114C15.9429 25.7999 18.9431 28.8001 22.629 28.8001C26.3141 28.8001 29.3143 25.7999 29.3143 22.114C29.3143 18.4289 26.3141 15.4287 22.629 15.4287ZM22.629 28.1144C19.3201 28.1144 16.6286 25.4229 16.6286 22.114C16.6286 18.806 19.3201 16.1144 22.629 16.1144C25.937 16.1144 28.6286 18.806 28.6286 22.114C28.6286 25.4229 25.937 28.1144 22.629 28.1144Z" fill="black"/>
</g>
<path id="Vector_2" d="M25.5683 23.156L26.6008 19.5806C26.6484 19.4063 26.6167 19.2153 26.5058 19.0727C26.394 18.9134 26.2039 18.8341 26.0129 18.8341H20.2457C20.1348 18.8341 20.0547 18.85 19.9755 18.8658L19.9279 18.7391C19.8804 18.5956 19.7369 18.5005 19.5943 18.5164H19.5785H18.832C18.6569 18.5164 18.5143 18.6598 18.5143 18.8341C18.5143 19.0093 18.6569 19.1519 18.832 19.1519H19.3875L19.5309 19.6765C19.5309 19.6923 19.5309 19.7082 19.5468 19.724L20.5001 23.1401L20.7386 23.9816C20.802 24.2202 20.9921 24.4112 21.2148 24.4904C21.1197 24.633 21.0563 24.824 21.0563 25.015C21.0563 25.5387 21.485 25.9682 22.0096 25.9682C22.5334 25.9682 22.9629 25.5387 22.9629 25.015C22.9629 24.8398 22.9145 24.6814 22.8353 24.5379H24.3607C24.2815 24.6814 24.2339 24.8398 24.2339 25.015C24.2339 25.5387 24.6626 25.9682 25.1872 25.9682C25.711 25.9682 26.1405 25.5387 26.1405 25.015C26.1405 24.8398 26.0921 24.6814 26.0129 24.5379H26.4582C26.6325 24.5379 26.776 24.3953 26.776 24.2202C26.776 24.0459 26.6325 23.9024 26.4582 23.9024H21.485C21.4216 23.9024 21.3741 23.8549 21.3583 23.8073L21.294 23.5846H24.9804C25.2506 23.5846 25.4891 23.4103 25.5683 23.156ZM25.1872 25.3327C25.0121 25.3327 24.8694 25.1893 24.8694 25.015C24.8694 24.8398 25.0121 24.6972 25.1872 24.6972C25.3615 24.6972 25.505 24.8398 25.505 25.015C25.505 25.1893 25.3615 25.3327 25.1872 25.3327ZM25.5525 20.8841H24.2973L24.5358 19.4538H25.9653L25.5525 20.8841ZM22.7561 22.9491L22.4225 21.5196H23.5342L23.2965 22.9491H22.7561ZM22.2948 20.8841L21.9612 19.4538H23.8836L23.6459 20.8841H22.2948ZM20.1506 19.4696C20.1665 19.4696 20.1981 19.4538 20.2457 19.4538H21.3099L21.6435 20.8841H20.5476L20.1665 19.5013C20.1506 19.4855 20.1506 19.4696 20.1506 19.4696ZM22.0096 25.3327C21.8345 25.3327 21.6919 25.1893 21.6919 25.015C21.6919 24.8398 21.8345 24.6972 22.0096 24.6972C22.1839 24.6972 22.3274 24.8398 22.3274 25.015C22.3274 25.1893 22.1839 25.3327 22.0096 25.3327ZM20.7061 21.5196H21.7711L22.1047 22.9491H21.2623C21.1831 22.9491 21.1356 22.9491 21.1039 22.9491L21.088 22.9174L20.7061 21.5196ZM23.9637 22.9491L24.2014 21.5196H25.3774L24.9645 22.9491H23.9637Z" fill="black"/>
<path id="Subtract" fill-rule="evenodd" clip-rule="evenodd" d="M10.0286 9.25684H7.20004V29.0568H19.2685C16.6938 27.8052 14.9143 25.1627 14.9143 22.1134C14.9143 18.0344 18.1003 14.6826 22.1143 14.4167V9.25684H18.7715V10.0283H14.6572H10.2858L10.0286 9.25684Z" fill="#FFA600"/>
<path id="Subtract_2" fill-rule="evenodd" clip-rule="evenodd" d="M10.3017 13.0422C9.70476 13.0422 9.21692 13.5301 9.21692 14.1271C9.21692 14.7231 9.70476 15.2119 10.3017 15.2119C10.8987 15.2119 11.3866 14.7231 11.3866 14.1271C11.3866 13.5301 10.8987 13.0422 10.3017 13.0422ZM10.3017 14.4887C10.1034 14.4887 9.94013 14.3254 9.94013 14.1271C9.94013 13.9277 10.1034 13.7655 10.3017 13.7655C10.5011 13.7655 10.6633 13.9277 10.6633 14.1271C10.6633 14.3254 10.5011 14.4887 10.3017 14.4887ZM9.21692 17.7431C9.21692 17.1461 9.70476 16.6583 10.3017 16.6583C10.8987 16.6583 11.3866 17.1461 11.3866 17.7431C11.3866 18.3392 10.8987 18.828 10.3017 18.828C9.70476 18.828 9.21692 18.3392 9.21692 17.7431ZM9.94013 17.7431C9.94013 17.9415 10.1034 18.1047 10.3017 18.1047C10.5011 18.1047 10.6633 17.9415 10.6633 17.7431C10.6633 17.5438 10.5011 17.3815 10.3017 17.3815C10.1034 17.3815 9.94013 17.5438 9.94013 17.7431ZM9.21692 21.3592C9.21692 20.7622 9.70476 20.2744 10.3017 20.2744C10.8987 20.2744 11.3866 20.7622 11.3866 21.3592C11.3866 21.9552 10.8987 22.444 10.3017 22.444C9.70476 22.444 9.21692 21.9552 9.21692 21.3592ZM9.94013 21.3592C9.94013 21.5576 10.1034 21.7208 10.3017 21.7208C10.5011 21.7208 10.6633 21.5576 10.6633 21.3592C10.6633 21.1599 10.5011 20.9976 10.3017 20.9976C10.1034 20.9976 9.94013 21.1599 9.94013 21.3592ZM10.3017 23.8904C9.70476 23.8904 9.21692 24.3783 9.21692 24.9753C9.21692 25.5713 9.70476 26.0601 10.3017 26.0601C10.8987 26.0601 11.3866 25.5713 11.3866 24.9753C11.3866 24.3783 10.8987 23.8904 10.3017 23.8904ZM10.3017 25.3369C10.1034 25.3369 9.94013 25.1736 9.94013 24.9753C9.94013 24.776 10.1034 24.6137 10.3017 24.6137C10.5011 24.6137 10.6633 24.776 10.6633 24.9753C10.6633 25.1736 10.5011 25.3369 10.3017 25.3369ZM16.0406 18.1047C16.1939 17.8539 16.361 17.6125 16.541 17.3815H12.4714C12.273 17.3815 12.1098 17.5438 12.1098 17.7431C12.1098 17.9415 12.273 18.1047 12.4714 18.1047H16.0406ZM14.9949 20.9976C14.9602 21.2354 14.9365 21.4766 14.9242 21.7208H12.4714C12.273 21.7208 12.1098 21.5576 12.1098 21.3592C12.1098 21.1599 12.273 20.9976 12.4714 20.9976H14.9949ZM15.3303 24.6137H12.4714C12.273 24.6137 12.1098 24.776 12.1098 24.9753C12.1098 25.1736 12.273 25.3369 12.4714 25.3369H15.6207C15.5122 25.1019 15.4151 24.8606 15.3303 24.6137ZM19.7035 13.7655C19.9028 13.7655 20.0651 13.9277 20.0651 14.1271C20.0651 14.3254 19.9028 14.4887 19.7035 14.4887H12.4714C12.273 14.4887 12.1098 14.3254 12.1098 14.1271C12.1098 13.9277 12.273 13.7655 12.4714 13.7655H19.7035Z" fill="black"/>
<path id="Subtract_3" fill-rule="evenodd" clip-rule="evenodd" d="M19.5052 29.314H7.78852C7.17351 29.314 6.68567 28.8252 6.68567 28.2111V9.80525C6.68567 9.19023 7.17351 8.70239 7.78852 8.70239H9.94013V8.15951C9.94013 7.76183 10.2657 7.43629 10.6633 7.43629H13.2126C13.3028 6.73111 13.9178 6.17114 14.641 6.17114C15.3642 6.17114 15.9793 6.73111 16.0694 7.43629H18.6187C19.0164 7.43629 19.3419 7.76183 19.3419 8.15951V8.70239H21.4935C22.1085 8.70239 22.5964 9.19023 22.5964 9.80525V14.3997C22.3525 14.4008 22.1113 14.4132 21.8732 14.4364V9.80525C21.8732 9.5879 21.7109 9.42561 21.4935 9.42561H19.3419V9.96754C19.3419 10.3652 19.0164 10.6908 18.6187 10.6908H10.6633C10.2657 10.6908 9.94013 10.3652 9.94013 9.96754V9.42561H7.78852C7.57213 9.42561 7.40888 9.5879 7.39085 9.80525V28.2111C7.39085 28.4275 7.55315 28.5908 7.77049 28.5908H18.2571C18.6548 28.8622 19.0705 29.1147 19.5052 29.314ZM13.5742 8.15951H10.6633V9.96754H18.6187V8.15951L15.6898 8.14147C15.5816 8.14147 15.4905 8.08738 15.4183 8.01524C15.3462 7.94311 15.3282 7.83397 15.3462 7.72577C15.3642 7.6897 15.3642 7.65364 15.3642 7.61757C15.3642 7.2199 15.0387 6.89436 14.641 6.89436C14.2434 6.89436 13.9178 7.2199 13.9178 7.61757V7.7438C13.9358 7.83397 13.8998 7.96115 13.8457 8.03328C13.7916 8.10541 13.6824 8.15951 13.5742 8.15951Z" fill="black"/>
</g>
</g>
</svg>
