<svg width="36" height="36" viewBox="0 0 36 36" fill="none" xmlns="http://www.w3.org/2000/svg">
<path d="M23.6852 6.27481C22.5603 6.56956 21.6564 7.42925 21.283 8.55913C21.1651 8.90792 21.1504 9.03073 21.1504 9.63988C21.1504 10.2638 21.1651 10.362 21.2879 10.7206C21.6613 11.8014 22.4473 12.5874 23.5133 12.946C23.8523 13.059 23.9751 13.0737 24.5842 13.0737C25.213 13.0737 25.3064 13.0639 25.665 12.9362C27.1486 12.4204 28.0476 11.1775 28.0525 9.63988C28.0525 9.02091 27.9542 8.58369 27.6939 8.04332C27.4237 7.48329 26.7801 6.82993 26.2299 6.55483C25.4685 6.17656 24.4762 6.06849 23.6852 6.27481ZM25.4538 7.12468C26.5296 7.51277 27.2616 8.54439 27.2616 9.65462C27.2566 10.3473 26.9865 10.9761 26.451 11.5066C25.9106 12.0421 25.3359 12.2828 24.5842 12.2828C22.2803 12.273 21.062 9.56128 22.6045 7.87138C23.0122 7.42434 23.5723 7.10994 24.1667 6.99204C24.4565 6.938 25.1295 7.00678 25.4538 7.12468Z" fill="black"/>
<path d="M25.4538 7.12468C26.5296 7.51277 27.2616 8.54439 27.2616 9.65462C27.2566 10.3473 26.9865 10.9761 26.451 11.5066C25.9106 12.0421 25.3359 12.2828 24.5842 12.2828C22.2803 12.273 21.062 9.56128 22.6045 7.87138C23.0122 7.42434 23.5723 7.10994 24.1667 6.99204C24.4565 6.938 25.1295 7.00678 25.4538 7.12468Z" fill="#FFA600"/>
<path d="M24.2652 7.59129C24.2652 7.82218 24.2602 7.83691 24.0687 7.92043C23.5479 8.15623 23.3613 8.93732 23.7051 9.43348C23.8181 9.59559 23.9458 9.68893 24.3388 9.88543C24.8547 10.1409 24.9922 10.2932 24.9283 10.5044C24.8792 10.6469 24.6139 10.7942 24.4027 10.7942C24.3045 10.7942 24.0687 10.7402 23.8869 10.6714C23.7051 10.6076 23.5479 10.5634 23.5332 10.5732C23.489 10.6174 23.43 11.2069 23.4644 11.2364C23.489 11.256 23.6855 11.3101 23.9115 11.3592L24.3143 11.4476V11.6638V11.875H24.6336H24.9529V11.6392C24.9529 11.4034 24.9578 11.3985 25.1543 11.3101C25.3852 11.202 25.5571 11.0006 25.6652 10.7009C25.7536 10.4504 25.7586 10.3423 25.6849 10.0918C25.6063 9.79701 25.3557 9.57103 24.8497 9.32049C24.3143 9.06504 24.2062 8.93732 24.3094 8.69169C24.4027 8.46572 24.6189 8.41168 25.002 8.50993C25.1691 8.55414 25.3213 8.57379 25.341 8.55905C25.3557 8.5394 25.3705 8.39203 25.3705 8.225V7.92043L25.1248 7.8713L24.8792 7.81726L24.8645 7.58638L24.8497 7.35549H24.555H24.2652V7.59129Z" fill="black"/>
<path d="M22.4621 13.398C22.4031 13.4225 21.4943 14.1299 20.443 14.9651L18.5272 16.4879L16.0562 15.4612C14.6119 14.857 13.5213 14.4296 13.4329 14.4296C13.3052 14.4296 12.7599 14.798 10.5541 16.375C9.05583 17.441 7.80805 18.3645 7.77366 18.4235C7.68524 18.5856 7.69506 18.7231 7.81296 18.8754C7.9063 18.9884 7.95051 19.0031 8.12245 18.9884C8.2993 18.9737 8.66774 18.728 10.9029 17.1315C12.3177 16.1195 13.5017 15.2942 13.5311 15.304C13.5557 15.3138 14.7003 15.7805 16.066 16.3504C18.5026 17.3575 18.5615 17.3771 18.7335 17.3182C18.9496 17.2396 22.8895 14.1201 22.9779 13.9531C23.1498 13.6338 22.801 13.2604 22.4621 13.398Z" fill="black"/>
<path fill-rule="evenodd" clip-rule="evenodd" d="M21.6592 17.3083C21.556 17.4409 21.556 17.4507 21.556 22.9822V28.5285H20.942H20.3279V24.8686V21.2039L20.2051 21.086L20.0872 20.9632H18.1664H16.2456L16.1277 21.086L16.0049 21.2039V24.8686V28.5285H15.3908H14.7768V24.623C14.7768 21.8278 14.762 20.6881 14.7227 20.5997C14.6196 20.3786 14.5213 20.3688 12.5514 20.3835L10.7043 20.3982L10.5913 20.5112L10.4783 20.6242L10.4636 24.5739L10.4538 28.5285H9.8397H9.22563H7.85338C7.69127 28.6562 7.66248 29.0454 7.81477 29.1976C7.91302 29.2959 15.3663 29.3145 15.3663 29.3145C27.6819 29.3145 27.7458 29.3145 27.8441 29.2162C27.9128 29.1474 27.9423 29.0541 27.9423 28.9018C27.9423 28.5432 27.8883 28.5285 26.778 28.5285H25.8299V22.9527C25.8299 17.4409 25.8299 17.377 25.7317 17.2788C25.6383 17.1855 25.5696 17.1805 23.6979 17.1805H21.7575L21.6592 17.3083ZM25.0439 28.5285V23.2475V17.9665H23.693H22.342V23.2475V28.5285H23.693H25.0439ZM13.9416 28.5285V24.8686V21.2088H12.6153H11.2889V24.8686V28.5285H12.6153H13.9416ZM19.4928 28.5285V25.1388V21.7492H18.1418H16.7909V25.1388V28.5285H18.1418H19.4928Z" fill="black"/>
<path d="M13.9416 24.8686V28.5285H12.6153H11.2889V24.8686V21.2088H12.6153H13.9416V24.8686Z" fill="#FFA600"/>
<path d="M25.0439 23.2475V28.5285H23.693H22.342V23.2475V17.9665H23.693H25.0439V23.2475Z" fill="#FFA600"/>
</svg>
