<svg width="24" height="24" viewBox="0 0 24 24" fill="none" xmlns="http://www.w3.org/2000/svg">
<g clip-path="url(#clip0_237_1464)">
<circle cx="12" cy="12" r="12" fill="url(#paint0_linear_237_1464)"/>
<mask id="mask0_237_1464" style="mask-type:alpha" maskUnits="userSpaceOnUse" x="2" y="2" width="20" height="20">
<rect x="2" y="2" width="20" height="20" fill="#D9D9D9"/>
</mask>
<g mask="url(#mask0_237_1464)">
<path d="M11.9996 17.8327C11.7635 17.8327 11.5656 17.7528 11.4058 17.5931C11.2461 17.4334 11.1663 17.2355 11.1663 16.9994V12.8327H6.99959C6.76348 12.8327 6.56557 12.7528 6.40584 12.5931C6.24612 12.4334 6.16626 12.2355 6.16626 11.9993C6.16626 11.7632 6.24612 11.5653 6.40584 11.4056C6.56557 11.2459 6.76348 11.166 6.99959 11.166H11.1663V6.99935C11.1663 6.76324 11.2461 6.56532 11.4058 6.4056C11.5656 6.24588 11.7635 6.16602 11.9996 6.16602C12.2357 6.16602 12.4336 6.24588 12.5933 6.4056C12.7531 6.56532 12.8329 6.76324 12.8329 6.99935V11.166H16.9996C17.2357 11.166 17.4336 11.2459 17.5933 11.4056C17.7531 11.5653 17.8329 11.7632 17.8329 11.9993C17.8329 12.2355 17.7531 12.4334 17.5933 12.5931C17.4336 12.7528 17.2357 12.8327 16.9996 12.8327H12.8329V16.9994C12.8329 17.2355 12.7531 17.4334 12.5933 17.5931C12.4336 17.7528 12.2357 17.8327 11.9996 17.8327Z" fill="white"/>
</g>
</g>
<defs>
<linearGradient id="paint0_linear_237_1464" x1="22.2" y1="6" x2="-20.4" y2="13.8" gradientUnits="userSpaceOnUse">
<stop stop-color="#1C8E8A"/>
<stop offset="1" stop-color="#1C8E8A" stop-opacity="0"/>
</linearGradient>
<clipPath id="clip0_237_1464">
<rect width="24" height="24" fill="white"/>
</clipPath>
</defs>
</svg>
