<svg width="24" height="24" viewBox="0 0 24 24" fill="none" xmlns="http://www.w3.org/2000/svg">
<g clip-path="url(#clip0_237_1457)">
<circle cx="12" cy="12" r="12" fill="#D6ECEC"/>
<mask id="mask0_237_1457" style="mask-type:alpha" maskUnits="userSpaceOnUse" x="2" y="2" width="20" height="20">
<rect x="2" y="2" width="20" height="20" fill="#D9D9D9"/>
</mask>
<g mask="url(#mask0_237_1457)">
<path d="M8.66634 12.8327C8.43023 12.8327 8.23231 12.7528 8.07259 12.5931C7.91287 12.4334 7.83301 12.2355 7.83301 11.9993C7.83301 11.7632 7.91287 11.5653 8.07259 11.4056C8.23231 11.2459 8.43023 11.166 8.66634 11.166H15.333C15.5691 11.166 15.767 11.2459 15.9268 11.4056C16.0865 11.5653 16.1663 11.7632 16.1663 11.9993C16.1663 12.2355 16.0865 12.4334 15.9268 12.5931C15.767 12.7528 15.5691 12.8327 15.333 12.8327H8.66634Z" fill="url(#paint0_linear_237_1457)"/>
</g>
</g>
<defs>
<linearGradient id="paint0_linear_237_1457" x1="14.4999" y1="10.7493" x2="1.99988" y2="15.1243" gradientUnits="userSpaceOnUse">
<stop stop-color="#148F8B"/>
<stop offset="1" stop-color="#148F8B" stop-opacity="0"/>
</linearGradient>
<clipPath id="clip0_237_1457">
<rect width="24" height="24" fill="white"/>
</clipPath>
</defs>
</svg>
