<svg width="25" height="25" viewBox="0 0 25 25" fill="none" xmlns="http://www.w3.org/2000/svg">
<path d="M4.02506 17.1406C4.59381 19.4146 4.87819 20.551 5.72506 21.2135C6.57298 21.875 7.74485 21.875 10.0886 21.875H14.9115C17.2553 21.875 18.4271 21.875 19.2761 21.2135C20.123 20.551 20.4074 19.4146 20.9751 17.1406C21.8688 13.5656 22.3157 11.7792 21.3782 10.5771C20.4396 9.375 18.5959 9.375 14.9126 9.375H10.0876C6.40215 9.375 4.56048 9.375 3.62194 10.5771C3.0709 11.2823 2.99694 12.1896 3.21152 13.5417" stroke="white" stroke-width="1.5" stroke-linecap="round"/>
<path d="M20.3125 9.89518L19.5729 7.18164C19.2875 6.13477 19.1448 5.61185 18.8521 5.21706C18.5602 4.82483 18.1639 4.52268 17.7083 4.34518C17.25 4.16602 16.7083 4.16602 15.625 4.16602M4.6875 9.89518L5.42708 7.18164C5.7125 6.13477 5.85521 5.61185 6.14792 5.21706C6.43977 4.82483 6.83613 4.52268 7.29167 4.34518C7.75 4.16602 8.29167 4.16602 9.375 4.16602" stroke="white" stroke-width="1.5"/>
<path d="M9.375 4.16667C9.375 3.8904 9.48475 3.62545 9.6801 3.4301C9.87545 3.23475 10.1404 3.125 10.4167 3.125H14.5833C14.8596 3.125 15.1246 3.23475 15.3199 3.4301C15.5153 3.62545 15.625 3.8904 15.625 4.16667C15.625 4.44293 15.5153 4.70789 15.3199 4.90324C15.1246 5.09859 14.8596 5.20833 14.5833 5.20833H10.4167C10.1404 5.20833 9.87545 5.09859 9.6801 4.90324C9.48475 4.70789 9.375 4.44293 9.375 4.16667Z" stroke="white" stroke-width="1.5"/>
</svg>