<svg width="76" height="76" viewBox="0 0 76 76" fill="none" xmlns="http://www.w3.org/2000/svg">
<path d="M21.5467 0.677979C17.2816 1.57204 14.0278 4.10766 12.2397 7.96239C11.4629 9.6186 11.199 10.6446 11.0964 12.5793C10.8766 16.7711 12.4449 20.4646 15.6107 23.1468C17.3988 24.6564 20.638 26.0635 22.4701 26.1221C22.7632 26.1368 22.4261 26.2247 21.6786 26.342C14.7606 27.4119 9.32297 31.9702 7.19774 38.4924C6.42093 40.8521 6.3623 41.6436 6.3623 49.6462V57.0332H17.7213H29.0803V51.7861C29.0803 47.8874 29.1389 46.3631 29.2855 45.8208C29.7398 44.0913 30.8391 42.6256 32.3487 41.7316C33.6825 40.9401 34.7524 40.7642 38.2261 40.7642H41.2161L41.0109 39.8408C39.9263 35.1653 36.9803 31.1347 32.8471 28.687C30.6925 27.4119 28.1569 26.5472 25.8411 26.3126L24.7565 26.1954L25.6359 26.0781C27.0576 25.9023 29.2562 25.1108 30.5313 24.334C34.43 21.9303 36.7018 17.8997 36.7018 13.4C36.7018 9.89708 35.5879 7.02435 33.2721 4.60599C31.528 2.75924 29.7545 1.65998 27.3654 0.956459C25.7385 0.487442 23.1003 0.35553 21.5467 0.677979Z" fill="#148F8B"/>
<path d="M48.9404 26.5325C48.4274 26.7523 47.8412 27.4412 47.6946 28.0421C47.592 28.4086 47.548 30.4458 47.5773 33.6557C47.6213 38.4778 47.636 38.7123 47.9291 39.0933C48.0903 39.3132 48.4128 39.6356 48.6326 39.7969C49.0137 40.09 49.2629 40.1047 53.059 40.1486L57.0749 40.1926V42.6696V45.1612L46.0237 45.1905C35.0605 45.2345 34.9579 45.2345 34.5475 45.5423C34.3276 45.7035 33.9905 46.0699 33.8146 46.3338C33.4775 46.8174 33.4775 46.8761 33.4775 51.918V57.0332H52.1649H70.8669L70.823 51.8447C70.779 46.8614 70.7643 46.6269 70.4712 46.2458C70.31 46.026 69.9875 45.7035 69.7677 45.5423C69.3866 45.2492 69.1374 45.2345 65.4146 45.1905L61.4719 45.1466V42.6549V40.1779H65.2974C68.9615 40.1779 69.1521 40.1633 69.6944 39.8555C70.0608 39.6503 70.3686 39.3132 70.5591 38.9321C70.8376 38.3605 70.8523 38.0234 70.8523 33.2746C70.8523 28.3206 70.8523 28.2034 70.5298 27.5731C69.8849 26.3273 70.5152 26.4006 59.2001 26.4152C53.7185 26.4152 49.1016 26.4739 48.9404 26.5325Z" fill="#148F8B"/>
<path d="M1.51132 61.7666C0.514657 62.4262 0.5 62.4995 0.5 68.4354C0.5 73.4774 0.514657 73.7852 0.793135 74.3275C0.983673 74.7085 1.29146 75.0163 1.67254 75.2069C2.24415 75.5 2.44935 75.5 38.0213 75.5C73.5932 75.5 73.7984 75.5 74.37 75.2069C74.7511 75.0163 75.0589 74.7085 75.2495 74.3275C75.5279 73.7852 75.5426 73.4774 75.5426 68.4354C75.5426 62.4995 75.5279 62.4262 74.5313 61.7666L74.0329 61.4295H38.0213H2.00965L1.51132 61.7666Z" fill="#148F8B"/>
</svg>