<svg width="18" height="21" viewBox="0 0 18 21" fill="none" xmlns="http://www.w3.org/2000/svg">
<path d="M9.00038 21.0008C6.66704 21.0008 4.65454 20.2341 2.96288 18.7008C1.27121 17.1674 0.300376 15.2674 0.0503762 13.0008C0.0170428 12.7341 0.0962095 12.5008 0.287876 12.3008C0.479543 12.1008 0.717043 12.0008 1.00038 12.0008C1.26704 12.0008 1.50454 12.0966 1.71288 12.2883C1.92121 12.4799 2.04204 12.7174 2.07538 13.0008C2.30871 14.7174 3.07538 16.1466 4.37538 17.2883C5.67538 18.4299 7.21704 19.0008 9.00038 19.0008C10.9504 19.0008 12.6045 18.3216 13.9629 16.9633C15.3212 15.6049 16.0004 13.9508 16.0004 12.0008C16.0004 10.0508 15.3212 8.39662 13.9629 7.03828C12.6045 5.67995 10.9504 5.00078 9.00038 5.00078H8.85038L9.72538 5.87578C9.90871 6.05911 10.0004 6.29245 10.0004 6.57578C10.0004 6.85911 9.90871 7.09245 9.72538 7.27578C9.52538 7.47578 9.28371 7.57578 9.00038 7.57578C8.71704 7.57578 8.48371 7.47578 8.30038 7.27578L5.70038 4.70078C5.60038 4.60078 5.52954 4.49245 5.48788 4.37578C5.44621 4.25911 5.42538 4.13411 5.42538 4.00078C5.42538 3.86745 5.44621 3.74245 5.48788 3.62578C5.52954 3.50911 5.60038 3.40078 5.70038 3.30078L8.30038 0.700781C8.48371 0.517448 8.71704 0.425781 9.00038 0.425781C9.28371 0.425781 9.52538 0.517448 9.72538 0.700781C9.90871 0.900781 10.0004 1.14245 10.0004 1.42578C10.0004 1.70911 9.90871 1.94245 9.72538 2.12578L8.85038 3.00078H9.00038C10.2504 3.00078 11.4212 3.23828 12.5129 3.71328C13.6045 4.18828 14.5545 4.82995 15.3629 5.63828C16.1712 6.44661 16.8129 7.39661 17.2879 8.48828C17.7629 9.57995 18.0004 10.7508 18.0004 12.0008C18.0004 13.2508 17.7629 14.4216 17.2879 15.5133C16.8129 16.6049 16.1712 17.5549 15.3629 18.3633C14.5545 19.1716 13.6045 19.8133 12.5129 20.2883C11.4212 20.7633 10.2504 21.0008 9.00038 21.0008Z" fill="white"/>
</svg>