<svg width="20" height="11" viewBox="0 0 20 11" fill="none" xmlns="http://www.w3.org/2000/svg">
<path d="M0.793652 0.727139C0.568652 0.828388 0.399902 1.07214 0.399902 1.28964C0.399902 1.43964 1.44615 6.14589 1.50615 6.26214C1.5699 6.38964 1.7649 6.55464 1.87365 6.58089C1.91865 6.59214 2.0349 6.61089 2.12865 6.62589L2.30115 6.65589L1.5924 8.32464C0.921152 9.91089 0.887402 10.0046 0.898652 10.2034C0.913652 10.4546 1.0149 10.6196 1.2249 10.7246C1.5249 10.8784 1.90365 10.7696 2.0649 10.4884C2.11365 10.4021 2.42865 9.67839 2.76615 8.87589L3.3774 7.42464H4.3899H5.40615L5.9274 8.67339C6.71115 10.5409 6.73365 10.5859 6.9324 10.7021C7.1424 10.8259 7.3449 10.8296 7.5624 10.7134C7.78365 10.5971 7.91115 10.3609 7.88865 10.1246C7.88115 10.0159 7.6224 9.36339 7.17615 8.30589L6.47865 6.65589L6.7224 6.61464C7.10865 6.55089 7.2999 6.36339 7.3299 6.02214C7.3524 5.74839 7.2249 5.51964 6.98865 5.40339C6.83115 5.32464 6.7824 5.32464 4.70865 5.32464H2.5899L2.1474 3.30714C1.90365 2.20089 1.6824 1.21464 1.6524 1.12089C1.5399 0.760888 1.13115 0.577138 0.793652 0.727139Z" fill="white"/>
<path d="M18.6547 0.749804C18.3884 0.892305 18.3884 0.899805 17.8822 3.19105L17.4097 5.3248H15.2909C13.2172 5.3248 13.1684 5.3248 13.0109 5.40355C12.7747 5.5198 12.6472 5.74855 12.6697 6.02231C12.6997 6.36355 12.8909 6.55105 13.2772 6.6148L13.5209 6.65605L12.8234 8.30605C12.3809 9.35605 12.1222 10.0161 12.1109 10.1248C12.0772 10.4773 12.3847 10.7998 12.7522 10.7998C12.9584 10.7998 13.1834 10.6648 13.2847 10.4848C13.3297 10.4023 13.6447 9.6823 13.9822 8.88355L14.5934 7.4248H15.6097H16.6259L17.2372 8.87605C17.5709 9.67855 17.8859 10.4023 17.9347 10.4886C18.1559 10.8748 18.7409 10.8973 19.0072 10.5298C19.0784 10.4286 19.0934 10.3611 19.0934 10.1623C19.0897 9.9298 19.0522 9.8323 18.3959 8.2873L17.6984 6.65605L17.8709 6.62605C17.9647 6.61105 18.0809 6.5923 18.1259 6.58105C18.2347 6.5548 18.4297 6.3898 18.4934 6.2623C18.5534 6.14605 19.5997 1.43981 19.5997 1.2823C19.5997 1.12856 19.4609 0.888555 19.3184 0.791055C19.1309 0.667305 18.8422 0.648555 18.6547 0.749804Z" fill="white"/>
<path d="M5.63113 2.7148C5.49238 2.77855 5.33113 2.9473 5.27863 3.08605C5.17363 3.3598 5.29738 3.69355 5.55238 3.84355L5.71363 3.9373H7.53613H9.36238V6.73105V9.5248H9.09238C8.87863 9.5248 8.78488 9.54355 8.67238 9.61105C8.49613 9.70855 8.34988 9.9598 8.34988 10.1623C8.34988 10.3761 8.49613 10.6123 8.68738 10.7136C8.84488 10.7998 8.87113 10.7998 9.99988 10.7998C11.1286 10.7998 11.1549 10.7998 11.3124 10.7136C11.5036 10.6123 11.6499 10.3761 11.6499 10.1623C11.6499 9.9598 11.5036 9.70855 11.3274 9.61105C11.2149 9.54355 11.1211 9.5248 10.9111 9.5248H10.6374V6.73105V3.9373H12.4636H14.2861L14.4474 3.84355C14.6236 3.73855 14.7624 3.50605 14.7624 3.3073C14.7624 3.0598 14.5749 2.7898 14.3386 2.70356C14.2674 2.67355 12.8986 2.6623 9.98863 2.6623C6.52363 2.66605 5.72113 2.67355 5.63113 2.7148Z" fill="white"/>
</svg>