<svg width="20" height="20" viewBox="0 0 20 20" fill="none" xmlns="http://www.w3.org/2000/svg">
<mask id="mask0_301_1931" style="mask-type:alpha" maskUnits="userSpaceOnUse" x="0" y="0" width="20" height="20">
<rect width="20" height="20" fill="#D9D9D9"/>
</mask>
<g mask="url(#mask0_301_1931)">
<path d="M10.0001 14.166C10.2362 14.166 10.4341 14.0862 10.5938 13.9264C10.7536 13.7667 10.8334 13.5688 10.8334 13.3327C10.8334 13.0966 10.7536 12.8987 10.5938 12.7389C10.4341 12.5792 10.2362 12.4993 10.0001 12.4993C9.76397 12.4993 9.56605 12.5792 9.40633 12.7389C9.24661 12.8987 9.16675 13.0966 9.16675 13.3327C9.16675 13.5688 9.24661 13.7667 9.40633 13.9264C9.56605 14.0862 9.76397 14.166 10.0001 14.166ZM10.0001 10.8327C10.2362 10.8327 10.4341 10.7528 10.5938 10.5931C10.7536 10.4334 10.8334 10.2355 10.8334 9.99935V6.66602C10.8334 6.4299 10.7536 6.23199 10.5938 6.07227C10.4341 5.91254 10.2362 5.83268 10.0001 5.83268C9.76397 5.83268 9.56605 5.91254 9.40633 6.07227C9.24661 6.23199 9.16675 6.4299 9.16675 6.66602V9.99935C9.16675 10.2355 9.24661 10.4334 9.40633 10.5931C9.56605 10.7528 9.76397 10.8327 10.0001 10.8327ZM10.0001 18.3327C8.8473 18.3327 7.76397 18.1139 6.75008 17.6764C5.73619 17.2389 4.85425 16.6452 4.10425 15.8952C3.35425 15.1452 2.7605 14.2632 2.323 13.2493C1.8855 12.2355 1.66675 11.1521 1.66675 9.99935C1.66675 8.84657 1.8855 7.76324 2.323 6.74935C2.7605 5.73546 3.35425 4.85352 4.10425 4.10352C4.85425 3.35352 5.73619 2.75977 6.75008 2.32227C7.76397 1.88477 8.8473 1.66602 10.0001 1.66602C11.1529 1.66602 12.2362 1.88477 13.2501 2.32227C14.264 2.75977 15.1459 3.35352 15.8959 4.10352C16.6459 4.85352 17.2397 5.73546 17.6772 6.74935C18.1147 7.76324 18.3334 8.84657 18.3334 9.99935C18.3334 11.1521 18.1147 12.2355 17.6772 13.2493C17.2397 14.2632 16.6459 15.1452 15.8959 15.8952C15.1459 16.6452 14.264 17.2389 13.2501 17.6764C12.2362 18.1139 11.1529 18.3327 10.0001 18.3327Z" fill="#FF3333"/>
</g>
</svg>
