<svg width="17" height="18" viewBox="0 0 17 18" fill="none" xmlns="http://www.w3.org/2000/svg">
<path d="M1.99992 17.3327C1.54159 17.3327 1.14909 17.1694 0.82242 16.8427C0.495753 16.516 0.332698 16.1238 0.333253 15.666V2.33268C0.333253 1.87435 0.496587 1.48185 0.823253 1.15518C1.14992 0.828517 1.54214 0.665461 1.99992 0.666017H8.66659L13.6666 5.66602V8.24935L6.99992 14.8952V17.3327H1.99992ZM8.66659 17.3327V15.5619L12.9583 11.2494L14.7499 12.9993L10.4374 17.3327H8.66659ZM15.3541 12.416L13.5833 10.6452L14.1666 10.0618C14.3333 9.89518 14.5346 9.81185 14.7708 9.81185C15.0069 9.81185 15.2013 9.89518 15.3541 10.0618L15.9374 10.666C16.0902 10.8327 16.1666 11.0307 16.1666 11.2602C16.1666 11.4896 16.0902 11.6805 15.9374 11.8327L15.3541 12.416ZM7.83325 6.49935H11.9999L7.83325 2.33268V6.49935Z" fill="#148F8B"/>
</svg>
