<svg width="28" height="28" viewBox="0 0 28 28" fill="none" xmlns="http://www.w3.org/2000/svg">
<mask id="mask0_221_6007" style="mask-type:alpha" maskUnits="userSpaceOnUse" x="0" y="0" width="28" height="28">
<rect width="28" height="28" fill="#D9D9D9"/>
</mask>
<g mask="url(#mask0_221_6007)">
<path d="M12.8335 15.1663V18.6663C12.8335 18.9969 12.9453 19.274 13.1689 19.4976C13.3925 19.7212 13.6696 19.833 14.0002 19.833C14.3307 19.833 14.6078 19.7212 14.8314 19.4976C15.055 19.274 15.1668 18.9969 15.1668 18.6663V15.1663H18.6668C18.9974 15.1663 19.2745 15.0545 19.4981 14.8309C19.7217 14.6073 19.8335 14.3302 19.8335 13.9997C19.8335 13.6691 19.7217 13.392 19.4981 13.1684C19.2745 12.9448 18.9974 12.833 18.6668 12.833H15.1668V9.33301C15.1668 9.00245 15.055 8.72537 14.8314 8.50176C14.6078 8.27815 14.3307 8.16634 14.0002 8.16634C13.6696 8.16634 13.3925 8.27815 13.1689 8.50176C12.9453 8.72537 12.8335 9.00245 12.8335 9.33301V12.833H9.3335C9.00294 12.833 8.72586 12.9448 8.50225 13.1684C8.27864 13.392 8.16683 13.6691 8.16683 13.9997C8.16683 14.3302 8.27864 14.6073 8.50225 14.8309C8.72586 15.0545 9.00294 15.1663 9.3335 15.1663H12.8335ZM14.0002 25.6663C12.3863 25.6663 10.8696 25.3601 9.45016 24.7476C8.03072 24.1351 6.796 23.3038 5.746 22.2538C4.696 21.2038 3.86475 19.9691 3.25225 18.5497C2.63975 17.1302 2.3335 15.6136 2.3335 13.9997C2.3335 12.3858 2.63975 10.8691 3.25225 9.44968C3.86475 8.03023 4.696 6.79551 5.746 5.74551C6.796 4.69551 8.03072 3.86426 9.45016 3.25176C10.8696 2.63926 12.3863 2.33301 14.0002 2.33301C15.6141 2.33301 17.1307 2.63926 18.5502 3.25176C19.9696 3.86426 21.2043 4.69551 22.2543 5.74551C23.3043 6.79551 24.1356 8.03023 24.7481 9.44968C25.3606 10.8691 25.6668 12.3858 25.6668 13.9997C25.6668 15.6136 25.3606 17.1302 24.7481 18.5497C24.1356 19.9691 23.3043 21.2038 22.2543 22.2538C21.2043 23.3038 19.9696 24.1351 18.5502 24.7476C17.1307 25.3601 15.6141 25.6663 14.0002 25.6663Z" fill="#148F8B"/>
</g>
</svg>