<svg width="24" height="25" viewBox="0 0 24 25" fill="none" xmlns="http://www.w3.org/2000/svg">
<path d="M3.86404 16.955C4.41004 19.138 4.68304 20.229 5.49604 20.865C6.31004 21.5 7.43504 21.5 9.68504 21.5H14.315C16.565 21.5 17.69 21.5 18.505 20.865C19.318 20.229 19.591 19.138 20.136 16.955C20.994 13.523 21.423 11.808 20.523 10.654C19.622 9.5 17.852 9.5 14.316 9.5H9.68404C6.14604 9.5 4.37804 9.5 3.47704 10.654C2.94804 11.331 2.87704 12.202 3.08304 13.5" stroke="white" stroke-width="1.5" stroke-linecap="round"/>
<path d="M19.5 10L18.79 7.395C18.516 6.39 18.379 5.888 18.098 5.509C17.8178 5.13246 17.4373 4.8424 17 4.672C16.56 4.5 16.04 4.5 15 4.5M4.5 10L5.21 7.395C5.484 6.39 5.621 5.888 5.902 5.509C6.18218 5.13246 6.56269 4.8424 7 4.672C7.44 4.5 7.96 4.5 9 4.5" stroke="white" stroke-width="1.5"/>
<path d="M9 4.5C9 4.23478 9.10536 3.98043 9.29289 3.79289C9.48043 3.60536 9.73478 3.5 10 3.5H14C14.2652 3.5 14.5196 3.60536 14.7071 3.79289C14.8946 3.98043 15 4.23478 15 4.5C15 4.76522 14.8946 5.01957 14.7071 5.20711C14.5196 5.39464 14.2652 5.5 14 5.5H10C9.73478 5.5 9.48043 5.39464 9.29289 5.20711C9.10536 5.01957 9 4.76522 9 4.5Z" stroke="white" stroke-width="1.5"/>
</svg>