<svg width="360" height="360" viewBox="0 0 360 360" fill="none" xmlns="http://www.w3.org/2000/svg">
<path d="M333.365 339.723H26.2673C24.6858 339.752 23.1552 339.164 21.9995 338.084L21.9548 338.039C21.4066 337.468 20.9763 336.795 20.6885 336.058C20.4008 335.321 20.2612 334.534 20.2777 333.743V324.115C20.2777 321.029 22.485 318.285 25.5453 317.86C26.2239 317.769 26.9091 317.739 27.593 317.771C32.3367 317.946 37.0964 317.739 41.8498 317.688C41.9903 317.688 42.1341 317.688 42.2746 317.688C43.5524 317.748 44.8302 317.85 46.108 317.85C135.339 317.85 224.578 317.85 313.825 317.85C315.103 317.85 316.38 317.748 317.658 317.688C317.786 317.688 317.917 317.688 318.045 317.688C323.156 317.735 328.267 317.764 333.378 317.834C337.588 317.895 339.569 319.901 339.633 324.153C339.674 326.734 339.47 329.334 339.684 331.9C339.798 333.031 339.715 334.173 339.438 335.276C338.706 337.953 336.141 339.723 333.365 339.723Z" fill="#A21641"/>
<path d="M267.905 20.2773L268.544 20.9162C268.397 21.766 268.713 22.5135 268.959 23.3153C273.942 39.4504 278.961 55.5791 283.813 71.7526C285.88 78.6462 288.554 85.3673 289.787 92.5005L245.985 92.5804C245.853 92.537 245.724 92.4869 245.598 92.4303C245.634 92.3412 245.643 92.2435 245.623 92.1497C245.603 92.0558 245.555 91.9699 245.486 91.9032C245.426 91.079 245.486 90.2325 245.291 89.4371C243.183 80.301 241.011 71.1808 238.903 62.0415C235.793 48.4822 232.705 34.9175 229.639 21.3475L229.84 20.2837L267.905 20.2773Z" fill="#F0DDE0"/>
<path d="M91.4533 20.8843L92.6321 20.2773H130.058L130.259 21.3347C126.548 37.6264 122.788 53.8829 119.149 70.1746C117.533 77.41 115.402 84.5496 114.409 91.8968C114.335 91.9432 114.279 92.0134 114.25 92.0957C114.221 92.1781 114.22 92.2679 114.249 92.3504C114.121 92.4079 113.997 92.4686 113.872 92.5325L70.1592 92.4909C70.5106 90.9864 70.7757 89.4562 71.2261 87.9804C76.5545 70.5675 81.9563 53.161 87.2335 35.7416C88.7253 30.819 90.7761 26.0433 91.4533 20.8843Z" fill="#F0DDE0"/>
<path d="M163.74 20.2773H196.174L196.835 20.9162C197.474 30.7264 198.081 40.5397 198.79 50.3467C199.806 64.3926 200.892 78.4162 201.949 92.4718L158.057 92.491C157.987 85.4344 158.936 78.4354 159.418 71.4076C160.073 61.8019 160.984 52.2122 161.693 42.6097C162.229 35.3903 162.622 28.1548 163.069 20.9162L163.74 20.2773Z" fill="#F0DDE0"/>
<path d="M196.835 20.9162L196.174 20.2773H229.856L229.655 21.3411C228.831 20.7278 227.872 20.9162 226.959 20.9162C216.915 20.9162 206.874 20.9162 196.835 20.9162Z" fill="#F0DDE0"/>
<path d="M163.74 20.2773L163.069 20.9162C153.03 20.9162 142.991 20.9109 132.952 20.9003C132.035 20.9003 131.077 20.7246 130.249 21.3283L130.058 20.2773H163.74Z" fill="#F0DDE0"/>
<path d="M317.793 313.334C317.793 255.68 317.793 198.026 317.793 140.37C317.793 138.818 317.655 137.269 317.582 135.719C303.625 138.154 293.234 131.19 290.244 117.418C289.011 119.472 288.842 121.891 287.739 124.04C283.053 133.151 275.387 136.927 265.528 136.016C256.584 135.186 250.617 129.979 247.362 121.657C246.921 120.53 246.911 119.175 245.701 118.441C243.378 127.887 237.615 134.157 227.984 135.895C218.826 137.55 211.236 134.282 205.754 126.612C203.914 124.056 202.908 121.108 202.24 118.045C200.234 122.303 198.646 126.67 195.085 130.183C184.46 140.632 165.357 137.406 159.336 122.015C158.812 120.68 158.668 119.182 157.649 118.057C155.47 127.778 149.612 134.164 139.75 135.917C130.487 137.553 122.877 134.154 117.46 126.318C115.862 123.993 114.933 121.36 114.265 118.651C113.061 118.901 113.128 120.035 112.834 120.84C108.822 131.777 101.2 137.112 89.1472 135.981C79.6948 135.096 73.159 129.592 70.3383 118.901C70.1594 118.214 69.9358 117.54 69.7314 116.859C67.409 130.679 56.5064 138.195 42.355 135.739C42.2815 137.288 42.1473 138.84 42.1473 140.39C42.1473 186.326 42.1473 232.263 42.1473 278.201C42.1473 291.369 42.1282 304.537 42.0898 317.707C43.4347 317.768 44.7796 317.879 46.1244 317.879C135.356 317.879 224.595 317.879 313.841 317.879C315.186 317.879 316.531 317.768 317.879 317.707C317.831 316.237 317.793 314.787 317.793 313.334Z" fill="#E01E5A"/>
<path d="M139.977 193.877C153.154 193.877 166.328 193.857 179.505 193.909C180.917 193.909 181.696 193.548 182.437 192.241C190.743 177.62 203.236 168.682 219.697 166.136C247.467 161.843 273.217 180.112 278.475 208.047C281.408 223.63 277.661 237.883 267.825 250.364C259.222 261.286 247.815 267.576 234.187 269.125C211.459 271.703 194.439 262.356 182.808 242.777C182.124 241.627 181.431 241.295 180.217 241.292C175.333 241.273 170.449 241.116 165.564 241.132C164.719 241.164 163.877 241.008 163.098 240.677C162.32 240.346 161.624 239.847 161.06 239.215C159.594 237.644 157.993 236.19 156.537 234.609C155.796 233.807 155.333 233.852 154.604 234.628C152.985 236.36 151.304 238.043 149.586 239.682C147.18 241.975 144.206 241.755 142.095 239.18C141.063 237.902 139.99 236.676 139.079 235.328C138.255 234.107 137.638 233.81 136.431 234.973C134.671 236.666 132.725 238.168 130.822 239.701C128.298 241.729 126.193 241.755 123.66 239.749C121.624 238.143 119.629 236.486 117.676 234.778C116.878 234.079 116.284 233.775 115.667 234.9C115.544 235.084 115.402 235.254 115.242 235.408C113.466 237.324 112.527 240.468 109.741 240.944C105.47 241.675 101.088 241.771 96.7656 240.787C96.0618 240.618 95.4258 240.239 94.9416 239.701C88.9786 233.702 83.0156 227.7 77.0527 221.697C74.8421 219.461 74.7974 216.266 77.0143 214.03C83.0998 207.827 89.2778 201.722 95.3473 195.519C96.7975 194.049 98.5705 193.88 100.439 193.88L139.977 193.877ZM246.444 203.489C244.601 203.47 242.772 203.818 241.064 204.512C239.356 205.207 237.803 206.234 236.495 207.533C235.187 208.833 234.151 210.38 233.446 212.084C232.741 213.787 232.382 215.614 232.389 217.458C232.351 225.47 238.458 231.705 246.384 231.715C248.228 231.734 250.057 231.386 251.765 230.692C253.473 229.998 255.027 228.971 256.334 227.671C257.642 226.371 258.679 224.824 259.383 223.12C260.088 221.416 260.447 219.589 260.439 217.745C260.5 209.74 254.36 203.498 246.444 203.489Z" fill="#EBA1B6"/>
<path d="M260.439 217.521C260.439 217.598 260.439 217.668 260.439 217.745C260.447 219.589 260.088 221.416 259.384 223.12C258.679 224.824 257.642 226.371 256.335 227.671C255.027 228.971 253.473 229.997 251.765 230.692C250.057 231.386 248.228 231.733 246.384 231.714C238.494 231.714 232.386 225.501 232.392 217.521H75.3821C75.3486 218.292 75.4797 219.061 75.7667 219.777C76.0537 220.493 76.4899 221.14 77.0464 221.674C82.9966 227.69 88.9595 233.692 94.9353 239.678C95.4195 240.216 96.0555 240.595 96.7593 240.764C101.081 241.748 105.464 241.652 109.735 240.921C112.521 240.445 113.46 237.314 115.236 235.385C115.396 235.231 115.538 235.061 115.661 234.877C116.277 233.752 116.872 234.056 117.67 234.755C119.623 236.459 121.617 238.116 123.653 239.726C126.187 241.732 128.292 241.707 130.815 239.678C132.732 238.145 134.665 236.643 136.425 234.95C137.632 233.788 138.249 234.085 139.073 235.305C139.983 236.653 141.057 237.896 142.088 239.157C144.2 241.732 147.174 241.953 149.579 239.659C151.298 238.02 152.978 236.337 154.598 234.602C155.326 233.829 155.789 233.784 156.531 234.586C157.987 236.183 159.588 237.621 161.054 239.193C161.617 239.824 162.313 240.323 163.092 240.654C163.87 240.985 164.712 241.141 165.558 241.109C170.442 241.093 175.327 241.25 180.211 241.269C181.425 241.269 182.128 241.588 182.802 242.754C194.439 262.352 211.459 271.699 234.187 269.125C247.815 267.578 259.213 261.289 267.822 250.367C275.629 240.464 279.581 229.44 279.424 217.525L260.439 217.521Z" fill="#F0DDE0"/>
<path d="M289.777 92.4938C288.544 85.3606 285.87 78.6395 283.803 71.7459C278.951 55.5693 273.932 39.4437 268.949 23.3086C268.703 22.5068 268.387 21.7593 268.534 20.9095C274.753 20.9095 280.992 20.7786 287.192 20.9319C295.769 21.1427 302.65 24.9026 306.359 32.5916C315.361 51.3111 323.877 70.2637 332.579 89.1333C332.681 89.4249 332.749 89.7271 332.783 90.0341C332.838 92.4268 331.052 91.8805 329.707 91.8837C317.984 91.9061 306.257 91.8837 294.533 91.9156C293.338 91.9156 292.019 91.478 290.981 92.513L290.313 92.5481C290.133 92.5606 289.951 92.5422 289.777 92.4938V92.4938Z" fill="#E01E5A"/>
<path d="M290.301 92.5431L290.968 92.508L333.991 92.4824C333.991 100.449 334.512 108.455 333.892 116.374C333.106 126.401 327.056 132.665 317.568 135.719C303.625 138.153 293.233 131.19 290.243 117.418L290.301 92.5431Z" fill="#A21641"/>
<path d="M333.992 92.4729L290.969 92.4984C292.007 91.4634 293.326 91.9042 294.521 91.9011C306.245 91.8691 317.971 91.9011 329.695 91.8691C331.04 91.8691 332.826 92.4122 332.771 90.0195C333.972 90.4572 334.4 91.259 333.992 92.4729Z" fill="#E76E62"/>
<path d="M91.4532 20.8851C90.7759 26.0441 88.7251 30.8198 87.2333 35.7489C81.9561 53.1809 76.5543 70.5747 71.2259 88.0004C70.7755 89.4762 70.5104 91.0064 70.159 92.5109C69.9959 92.5561 69.8265 92.5744 69.6575 92.5652L68.9259 92.5045C67.8782 91.4951 66.5652 91.9327 65.3737 91.9295C53.6789 91.8944 41.9872 91.9295 30.2923 91.8912C29.0561 91.8912 27.4621 92.4502 27.0244 90.4825C29.8419 82.5666 33.8446 75.1747 37.2786 67.5336C42.115 56.7651 47.2357 46.1308 52.1008 35.3655C56.5027 25.6129 63.8691 20.7158 74.6248 20.8851C80.2311 20.9714 85.8437 20.8883 91.4532 20.8851Z" fill="#E01E5A"/>
<path d="M68.9262 92.4921L69.6578 92.5528C69.6769 100.645 69.6972 108.738 69.7185 116.831C67.3961 130.65 56.4935 138.166 42.3421 135.71C31.0785 131.793 25.8492 124.481 25.8268 112.627C25.8268 106.826 25.7757 101.024 25.8268 95.2266C25.8268 94.2682 25.3381 93.1278 26.421 92.3516L68.9262 92.4921Z" fill="#A21641"/>
<path d="M68.9261 92.4919L26.4112 92.3737C26.3665 91.6581 26.3474 90.9522 27.0246 90.457C27.4622 92.4248 29.0562 91.8626 30.2925 91.8658C41.9874 91.8945 53.679 91.8658 65.3739 91.9041C66.5654 91.9201 67.8751 91.4824 68.9261 92.4919Z" fill="#E76E62"/>
<path d="M196.835 20.9169C206.876 20.9169 216.917 20.9169 226.959 20.9169C227.875 20.9169 228.834 20.738 229.658 21.3513C232.739 34.9149 235.827 48.4796 238.922 62.0453C241.017 71.1846 243.19 80.3048 245.311 89.4409C245.493 90.2363 245.445 91.0828 245.506 91.907C232.43 91.907 219.357 91.907 206.287 91.907C205.192 91.907 203.981 91.5269 203.048 92.5076C202.862 92.5187 202.675 92.5187 202.489 92.5076C202.323 92.4625 202.15 92.4442 201.978 92.4533C200.892 78.4169 199.806 64.3933 198.79 50.3537C198.081 40.5467 197.483 30.7334 196.835 20.9169Z" fill="#E01E5A"/>
<path d="M290.301 92.5429L290.244 117.418C289.01 119.472 288.841 121.89 287.739 124.04C283.053 133.151 275.386 136.927 265.528 136.016C256.584 135.186 250.616 129.979 247.361 121.641C246.92 120.517 246.911 119.162 245.7 118.428C246.4 109.803 245.882 101.178 245.975 92.5525L289.777 92.4727C289.947 92.525 290.124 92.5488 290.301 92.5429V92.5429Z" fill="#EBA1B6"/>
<path d="M245.975 92.575C245.882 101.2 246.4 109.825 245.7 118.45C243.378 127.896 237.615 134.167 227.984 135.904C218.825 137.559 211.235 134.291 205.754 126.621C203.914 124.066 202.908 121.117 202.24 118.054C202.24 109.547 201.972 101.034 202.451 92.5303C202.637 92.5415 202.824 92.5415 203.01 92.5303L245.579 92.4473C245.709 92.4967 245.841 92.5393 245.975 92.575V92.575Z" fill="#A21641"/>
<path d="M245.589 92.424L203.02 92.507C203.952 91.5263 205.163 91.9065 206.259 91.9065C219.33 91.8831 232.403 91.8831 245.477 91.9065C245.544 91.9724 245.59 92.0566 245.61 92.1485C245.63 92.2405 245.623 92.3362 245.589 92.424V92.424Z" fill="#E76E62"/>
<path d="M130.259 21.3346C131.086 20.7309 132.045 20.9066 132.961 20.9066C143.003 20.913 153.038 20.9162 163.069 20.9162C162.612 28.1484 162.219 35.3838 161.683 42.6096C160.973 52.2121 160.063 61.8019 159.408 71.4076C158.926 78.4353 157.977 85.4216 158.047 92.4909C157.874 92.5174 157.699 92.5313 157.523 92.5324L156.865 92.4973C155.923 91.5389 154.712 91.9191 153.617 91.9159C140.541 91.8967 127.468 91.8967 114.398 91.9159C115.392 84.5463 117.523 77.4227 119.139 70.1937C122.787 53.8828 126.547 37.6135 130.259 21.3346Z" fill="#E01E5A"/>
<path d="M69.7179 116.84C69.6945 108.747 69.6743 100.655 69.6572 92.5621C69.8262 92.5713 69.9956 92.553 70.1588 92.5078L113.875 92.5366C114.076 101.235 113.428 109.943 114.255 118.632C113.051 118.881 113.118 120.015 112.824 120.82C108.812 131.758 101.19 137.093 89.1369 135.962C79.6846 135.077 73.1488 129.573 70.3281 118.881C70.146 118.194 69.9224 117.52 69.7179 116.84Z" fill="#EBA1B6"/>
<path d="M114.252 118.632C113.425 109.943 114.073 101.235 113.872 92.5363L114.249 92.3574L156.876 92.4916L157.534 92.5267C157.578 100.161 157.624 107.796 157.671 115.431C157.633 116.111 157.591 116.795 157.553 117.479C157.549 117.672 157.585 117.865 157.658 118.044C155.47 127.777 149.611 134.163 139.75 135.917C130.486 137.552 122.877 134.154 117.459 126.318C115.853 123.982 114.933 121.35 114.252 118.632Z" fill="#A21641"/>
<path d="M156.875 92.4922L114.249 92.358C114.22 92.2755 114.22 92.1857 114.249 92.1033C114.278 92.021 114.335 91.9508 114.408 91.9044C127.48 91.9044 140.553 91.9044 153.627 91.9044C154.722 91.914 155.933 91.5338 156.875 92.4922Z" fill="#E76E62"/>
<path d="M157.658 118.043C157.585 117.864 157.549 117.671 157.552 117.478C157.815 117.207 157.971 116.852 157.993 116.476C158.014 116.1 157.9 115.729 157.671 115.43C157.626 107.795 157.58 100.161 157.533 92.5258C157.709 92.5247 157.884 92.5108 158.057 92.4843L201.949 92.4651C202.121 92.4561 202.293 92.4744 202.46 92.5194C201.981 101.023 202.262 109.536 202.249 118.043C200.243 122.301 198.655 126.668 195.093 130.182C184.469 140.631 165.366 137.405 159.344 122.014C158.821 120.666 158.677 119.167 157.658 118.043Z" fill="#EBA1B6"/>
<path d="M157.671 115.432C157.9 115.73 158.015 116.102 157.993 116.477C157.971 116.853 157.815 117.209 157.553 117.479C157.591 116.796 157.639 116.112 157.671 115.432Z" fill="#E76E62"/>
</svg>
