<svg width="72" height="72" viewBox="0 0 72 72" fill="none" xmlns="http://www.w3.org/2000/svg">
<path d="M4.00256 54.501C4.00256 39.792 4.00256 25.0842 4.00256 10.3751C4.02631 10.3414 4.06256 10.3114 4.07256 10.2739C4.81758 7.60258 6.42886 6.37506 9.19391 6.37506C23.1242 6.37506 37.0557 6.40756 50.986 6.34881C53.9573 6.33631 56.2161 8.5201 56.1711 11.5464C56.0773 17.979 56.1473 24.4142 56.1323 30.8493C56.1311 31.3068 56.2423 31.5256 56.6936 31.7093C62.2024 33.9393 65.7963 37.9144 67.4038 43.6445C67.6763 44.6183 67.8076 45.6321 68.0038 46.6271C68.0038 47.5859 68.0038 48.5434 68.0038 49.5022C67.9301 49.9497 67.8663 50.3984 67.7813 50.8434C66.3788 58.1723 62.1425 63.1274 54.9586 65.0575C47.6584 67.0187 41.4658 64.7637 36.5945 58.9761C36.3094 58.6373 36.0394 58.5048 35.6032 58.5086C32.7506 58.5286 29.8981 58.5186 27.0455 58.5186C20.9866 58.5186 14.9265 58.5261 8.86766 58.5148C6.45636 58.5098 4.71383 57.1236 4.11632 54.7923C4.08882 54.6898 4.04006 54.5973 4.00256 54.501ZM34.0219 54.6673C31.8831 48.4409 32.4819 42.657 36.4469 37.4757C40.4008 32.3093 45.7996 30.1505 52.2698 30.5818C52.2823 30.413 52.2985 30.2905 52.2985 30.168C52.2998 23.8979 52.3023 17.6265 52.2973 11.3564C52.296 10.4776 52.0273 10.2289 51.1122 10.2289C47.1122 10.2264 43.1121 10.2264 39.1133 10.2301C38.9357 10.2301 38.7582 10.2601 38.557 10.2776C38.557 10.4939 38.557 10.6576 38.557 10.8214C38.557 15.029 38.5645 19.2378 38.5532 23.4454C38.5482 25.1117 37.3495 25.9492 35.7819 25.4004C34.0744 24.8029 32.3794 24.1679 30.6643 23.5941C30.3256 23.4804 29.8868 23.4666 29.5506 23.5791C27.8543 24.1442 26.1555 24.7129 24.4992 25.3829C22.8379 26.0542 21.5454 24.8879 21.5754 23.3241C21.6554 19.1591 21.6029 14.9915 21.6017 10.8251C21.6017 10.6439 21.5867 10.4626 21.5754 10.2289C21.3129 10.2289 21.0879 10.2289 20.8629 10.2289C16.9878 10.2289 13.1127 10.2289 9.23892 10.2289C8.04889 10.2289 7.85639 10.4189 7.85639 11.5952C7.85639 25.4904 7.85639 39.3857 7.85639 53.281C7.85639 54.4898 8.03014 54.6685 9.21517 54.6685C17.2353 54.6685 25.2567 54.6685 33.2769 54.6685C33.5037 54.6673 33.728 54.6673 34.0192 54.6673H34.0219ZM64.1462 48.1509C64.1625 40.5857 58.0399 34.4056 50.4997 34.3756C42.8796 34.3456 36.672 40.4932 36.6495 48.0921C36.627 55.6485 42.8158 61.8599 50.3785 61.8724C57.9636 61.8849 64.13 55.7398 64.1462 48.1509ZM25.463 20.9316C26.6693 20.5041 27.798 20.1491 28.8906 19.7028C29.6956 19.3741 30.4381 19.3703 31.2418 19.6878C32.3569 20.1278 33.4981 20.4991 34.6894 20.9216C34.6894 17.3165 34.6894 13.794 34.6894 10.2589C31.5994 10.2589 28.5455 10.2589 25.463 10.2589C25.463 13.8002 25.463 17.309 25.463 20.9316Z" fill="#0D313B"/>
<path d="M34.0219 54.6673C31.8831 48.4409 32.4819 42.657 36.4469 37.4757C40.4008 32.3093 45.7996 30.1505 52.2698 30.5818C52.2823 30.413 52.2985 30.2905 52.2985 30.168C52.2998 23.8979 52.3023 17.6265 52.2973 11.3564C52.296 10.4776 52.0273 10.2289 51.1122 10.2289C47.1122 10.2264 43.1121 10.2264 39.1133 10.2301C38.9357 10.2301 38.7582 10.2601 38.557 10.2776V10.8214C38.557 15.029 38.5645 19.2378 38.5532 23.4454C38.5482 25.1117 37.3495 25.9492 35.7819 25.4004C34.0744 24.8029 32.3794 24.1679 30.6643 23.5941C30.3256 23.4804 29.8868 23.4666 29.5506 23.5791C27.8543 24.1442 26.1555 24.7129 24.4992 25.3829C22.8379 26.0542 21.5454 24.8879 21.5754 23.3241C21.6554 19.1591 21.6029 14.9915 21.6017 10.8251C21.6017 10.6439 21.5867 10.4626 21.5754 10.2289H20.8629H9.23892C8.04889 10.2289 7.85639 10.4189 7.85639 11.5952V53.281C7.85639 54.4898 8.03014 54.6685 9.21517 54.6685H33.2769C33.5037 54.6673 33.728 54.6673 34.0192 54.6673H34.0219Z" fill="#2894B4"/>
<path d="M64.1462 48.1509C64.1625 40.5857 58.0399 34.4056 50.4997 34.3756C42.8796 34.3456 36.672 40.4932 36.6495 48.0921C36.627 55.6485 42.8158 61.8599 50.3785 61.8724C57.9636 61.8849 64.13 55.7398 64.1462 48.1509Z" fill="#68D4F4"/>
<path d="M25.463 20.9316C26.6693 20.5041 27.798 20.1491 28.8906 19.7028C29.6956 19.3741 30.4381 19.3703 31.2418 19.6878C32.3569 20.1278 33.4981 20.4991 34.6894 20.9216V10.2589H25.463V20.9316Z" fill="#CDF1FB"/>
<path d="M48.4959 50.0284C47.1146 50.0284 45.8271 50.0471 44.5408 50.0221C43.5808 50.0034 42.8445 49.3159 42.707 48.3821C42.5757 47.4896 43.0933 46.6121 43.9695 46.3283C44.2783 46.2283 44.6233 46.2171 44.952 46.2133C46.1121 46.2008 47.2721 46.2083 48.4946 46.2083C48.4946 44.8433 48.4784 43.5582 48.4996 42.2732C48.5159 41.3032 49.2359 40.5294 50.1846 40.4032C51.0472 40.2869 51.9647 40.8607 52.2172 41.717C52.3097 42.0307 52.3284 42.3732 52.3322 42.7032C52.3459 43.8445 52.3372 44.987 52.3372 46.2096C52.9947 46.2096 53.5922 46.2083 54.1897 46.2096C54.9185 46.2121 55.6485 46.1871 56.3748 46.2296C57.3873 46.2883 58.1385 47.1371 58.1273 48.1471C58.116 49.1534 57.3435 49.9871 56.3273 50.0196C55.246 50.0534 54.1622 50.0309 53.0809 50.0321C52.8572 50.0321 52.6347 50.0321 52.3372 50.0321C52.3372 51.2871 52.3734 52.4697 52.3197 53.6484C52.2972 54.1247 52.1659 54.6447 51.9272 55.0535C51.5184 55.7547 50.6171 56.0035 49.8396 55.7585C49.0621 55.5135 48.5109 54.8185 48.4984 53.9922C48.4821 52.7034 48.4959 51.4147 48.4959 50.0284Z" fill="#0D313B"/>
</svg>
