<svg width="72" height="72" viewBox="0 0 72 72" fill="none" xmlns="http://www.w3.org/2000/svg">
<path d="M4 31.2551V30.3817C4.44838 29.2983 5.2668 28.8949 6.42192 28.9549C7.57704 29.0149 8.70216 28.9682 9.85894 28.9682V25.2195C9.37056 25.2195 8.93385 25.2412 8.4988 25.2195C7.38535 25.1512 6.59194 24.3194 6.62861 23.2843C6.66528 22.2492 7.46203 21.5191 8.56381 21.4874C8.99385 21.4758 9.42556 21.4874 9.91062 21.4874C9.91062 19.6773 9.91062 17.9554 9.91062 16.2336C9.91062 14.7151 10.614 14 12.1092 14H46.3377C47.7746 14 48.4946 14.7184 48.4963 16.1386C48.4963 18.5088 48.4963 20.8785 48.4963 23.2476V23.9294C50.6765 23.9294 52.7584 23.9544 54.8403 23.9177C55.2535 23.8965 55.6661 23.9677 56.0482 24.1263C56.4303 24.2849 56.7722 24.5269 57.0489 24.8345C60.3825 28.3015 63.7379 31.7352 67.0699 35.1972C67.4366 35.5772 67.6933 36.064 68 36.5007V50.3521C67.5666 51.4472 66.7449 51.8806 65.5897 51.8023C65.0097 51.7623 64.423 51.8106 63.8412 51.7889C63.4862 51.7773 63.2962 51.8756 63.1528 52.2407C61.926 55.3526 59.1857 57.2412 55.9387 57.2562C52.6917 57.2712 49.9381 55.376 48.6663 52.2223C48.5313 51.8889 48.368 51.7906 48.0313 51.7906C42.3862 51.7973 36.7401 51.7973 31.0928 51.7906C30.7595 51.7906 30.5928 51.8723 30.4511 52.214C29.176 55.381 26.4507 57.2628 23.187 57.2562C19.9233 57.2495 17.1864 55.3526 15.9329 52.194C15.8029 51.8606 15.6479 51.7523 15.3012 51.7589C14.2811 51.7806 13.2593 51.7689 12.2392 51.7589C10.5724 51.7589 9.90562 51.0822 9.90562 49.402V32.712C8.67882 32.712 7.53704 32.6753 6.39692 32.722C5.2568 32.7686 4.42338 32.3602 4 31.2551ZM13.6943 28.9682H14.7295C17.5831 28.9682 20.4367 28.9582 23.2903 28.9682C24.6238 28.9682 25.4839 29.9683 25.2589 31.1885C25.0922 32.1269 24.3188 32.7019 23.1887 32.7036C20.2734 32.7036 17.3547 32.7036 14.4394 32.7036C14.1994 32.7036 13.9577 32.7236 13.6977 32.7336V47.9685H15.5879C15.6379 47.8135 15.6845 47.6785 15.7246 47.5402C16.6913 44.1015 19.6516 41.8162 23.1637 41.7962C24.863 41.7764 26.5206 42.3226 27.8753 43.3486C29.23 44.3747 30.2048 45.8224 30.6461 47.4635C30.7828 47.9502 31.0028 48.0469 31.4645 48.0452C35.6516 48.0285 39.8387 48.0352 44.0258 48.0335C44.2275 48.0335 44.4292 48.0119 44.6926 47.9969V17.7787H13.701V21.4808H21.0951C22.3652 21.4808 23.637 21.4608 24.9055 21.4974C25.3603 21.5053 25.7952 21.6852 26.1224 22.0011C26.4497 22.3169 26.645 22.7451 26.669 23.1993C26.7121 23.6604 26.578 24.1206 26.2942 24.4865C26.0103 24.8524 25.5979 25.0966 25.1405 25.1695C24.8731 25.2107 24.6026 25.2285 24.3321 25.2228C21.0418 25.2228 17.7503 25.2228 14.4578 25.2228H13.6943V28.9682ZM64.2379 38.8026H48.5046V47.1185C50.0231 43.6181 52.5217 41.6812 56.2554 41.8512C60.1742 42.0313 62.4944 44.3332 63.5612 48.0052H64.2279L64.2379 38.8026ZM61.571 34.9972C61.5501 34.9356 61.5227 34.8763 61.4893 34.8205C59.2669 32.518 57.0383 30.2195 54.8036 27.9248C54.66 27.7832 54.4699 27.6985 54.2686 27.6864C52.4167 27.6698 50.5632 27.6864 48.7113 27.6864C48.6363 27.6995 48.5637 27.7242 48.4963 27.7598V34.9989L61.571 34.9972ZM19.2266 49.442C19.2075 50.232 19.4236 51.0097 19.8476 51.6766C20.2715 52.3434 20.8841 52.8691 21.6075 53.187C22.3308 53.5049 23.1324 53.6006 23.9103 53.4619C24.6882 53.3232 25.4073 52.9565 25.9763 52.4082C26.5453 51.8599 26.9384 51.1548 27.1058 50.3826C27.2732 49.6103 27.2072 48.8058 26.9163 48.0711C26.6254 47.3365 26.1227 46.7048 25.472 46.2565C24.8214 45.8082 24.0521 45.5634 23.262 45.5533C22.7412 45.5418 22.2233 45.6335 21.7381 45.823C21.2529 46.0125 20.81 46.2962 20.4349 46.6577C20.0598 47.0192 19.7599 47.4513 19.5525 47.9291C19.3451 48.407 19.2344 48.9212 19.2266 49.442ZM55.9071 53.5041C56.6939 53.5038 57.4629 53.27 58.1168 52.8323C58.7706 52.3946 59.2799 51.7727 59.5801 51.0454C59.8803 50.3181 59.9579 49.518 59.8031 48.7466C59.6483 47.9751 59.2681 47.267 58.7105 46.7118C58.153 46.1566 57.4432 45.7793 56.6711 45.6277C55.899 45.4762 55.0993 45.5571 54.3733 45.8604C53.6472 46.1636 53.0275 46.6755 52.5926 47.3312C52.1576 47.9869 51.927 48.7569 51.93 49.5437C51.9282 50.0657 52.03 50.5829 52.2294 51.0653C52.4289 51.5476 52.722 51.9857 53.0919 52.354C53.4618 52.7223 53.9011 53.0137 54.3843 53.2111C54.8675 53.4085 55.3851 53.5081 55.9071 53.5041Z" fill="#0B2D1F"/>
<path d="M61.571 34.9972C61.5501 34.9356 61.5227 34.8763 61.4893 34.8205C59.2669 32.518 57.0383 30.2195 54.8036 27.9248C54.66 27.7832 54.4699 27.6985 54.2686 27.6864C52.4167 27.6698 50.5632 27.6864 48.7113 27.6864C48.6363 27.6995 48.5637 27.7242 48.4963 27.7598V34.9989L61.571 34.9972Z" fill="#62C89E"/>
<path d="M55.9071 53.5041C56.6939 53.5038 57.4629 53.27 58.1168 52.8323C58.7706 52.3946 59.2799 51.7727 59.5801 51.0454C59.8803 50.3181 59.9579 49.518 59.8031 48.7466C59.6483 47.9751 59.2681 47.267 58.7105 46.7118C58.153 46.1566 57.4432 45.7793 56.6711 45.6277C55.899 45.4762 55.0993 45.5571 54.3733 45.8604C53.6472 46.1636 53.0275 46.6755 52.5926 47.3312C52.1576 47.9869 51.927 48.7569 51.93 49.5437C51.9282 50.0657 52.03 50.5829 52.2294 51.0653C52.4289 51.5476 52.722 51.9857 53.0919 52.354C53.4618 52.7223 53.9011 53.0137 54.3843 53.2111C54.8675 53.4085 55.3851 53.5081 55.9071 53.5041Z" fill="#CBEDDF"/>
<path d="M19.2266 49.442C19.2075 50.232 19.4236 51.0097 19.8476 51.6766C20.2715 52.3434 20.8841 52.8691 21.6075 53.187C22.3308 53.5049 23.1324 53.6006 23.9103 53.4619C24.6882 53.3232 25.4073 52.9565 25.9763 52.4082C26.5453 51.8599 26.9384 51.1548 27.1058 50.3826C27.2732 49.6103 27.2072 48.8058 26.9163 48.0711C26.6254 47.3365 26.1227 46.7048 25.472 46.2565C24.8214 45.8082 24.0521 45.5634 23.262 45.5533C22.7412 45.5418 22.2233 45.6335 21.7381 45.823C21.2529 46.0125 20.81 46.2962 20.4349 46.6577C20.0598 47.0192 19.7599 47.4513 19.5525 47.9291C19.3451 48.407 19.2344 48.9212 19.2266 49.442Z" fill="#CBEDDF"/>
<path d="M13.6946 28.9683V25.2296H14.4497C17.7422 25.2296 21.0337 25.2296 24.324 25.2296C24.5945 25.2353 24.865 25.2175 25.1324 25.1763C25.5925 25.1052 26.0081 24.8609 26.2938 24.4933C26.5795 24.1258 26.7139 23.6628 26.6693 23.1994C26.6454 22.7466 26.4512 22.3196 26.1257 22.004C25.8002 21.6883 25.3674 21.5074 24.9141 21.4976C23.6456 21.4609 22.3738 21.4826 21.1037 21.4809H13.7012V17.7788H44.6895V48.0087C44.4295 48.0237 44.2278 48.0453 44.0227 48.0453C39.8356 48.0453 35.6485 48.0453 31.4614 48.057C30.9997 48.057 30.7797 47.962 30.643 47.4753C30.2017 45.8341 29.2269 44.3865 27.8722 43.3604C26.5175 42.3343 24.8599 41.7882 23.1606 41.808C19.6485 41.828 16.6882 44.1133 15.7215 47.5519C15.6815 47.6903 15.6348 47.8253 15.5848 47.9803H13.6979V32.7454C13.9579 32.7354 14.198 32.7154 14.4397 32.7154C17.3566 32.7154 20.2736 32.7154 23.1889 32.7154C24.319 32.7154 25.0874 32.1387 25.2591 31.2002C25.4841 29.9784 24.6241 28.9867 23.2906 28.98C20.437 28.965 17.5833 28.98 14.7297 28.98L13.6946 28.9683Z" fill="#22885E"/>
<path d="M64.2386 38.796V47.9986H63.5718C62.5051 44.3316 60.1848 42.0247 56.2661 41.8447C52.5323 41.678 50.0338 43.6149 48.5153 47.1119V38.796H64.2386Z" fill="#22885E"/>
</svg>
