<svg width="72" height="72" viewBox="0 0 72 72" fill="none" xmlns="http://www.w3.org/2000/svg">
<path d="M11.011 14.3018C10.066 14.7993 10.0163 14.9859 10.0163 18.4677V21.4896H9.10847C7.59135 21.4896 6.78306 22.1487 6.78306 23.4171C6.78306 24.6979 7.56648 25.3445 9.1209 25.3445H10.0163V27.1477V28.9508H7.80276C5.90014 28.9508 5.53951 28.9757 5.16645 29.1871C3.82342 29.8959 3.82342 31.9104 5.16645 32.582C5.52708 32.7684 5.94988 32.8058 7.81519 32.8058H10.0163V41.5851V50.3646L10.2898 50.8495C10.7623 51.6952 11.2348 51.8319 13.6971 51.8319L15.7987 51.8444L16.3334 52.9511C17.8381 56.1222 21.3822 57.8506 24.8766 57.1169C26.0827 56.8682 27.6496 56.0599 28.5325 55.2516C29.3656 54.4806 30.1865 53.2743 30.4848 52.4164L30.6838 51.8319H39.5378H48.3918L48.6032 52.4288C49.5981 55.1646 52.7567 57.3035 55.8406 57.3035C58.7505 57.3035 61.5484 55.5501 62.7795 52.9511L63.3019 51.8319H64.8563C66.6221 51.8319 67.0822 51.6826 67.5547 50.9738L67.8408 50.551V43.4877C67.8408 39.4214 67.7911 36.3002 67.7289 36.126C67.5797 35.7281 56.5992 24.3995 56.1391 24.1507C55.853 24.0139 55.082 23.9767 52.11 23.9767H48.4416V19.6368C48.4416 15.3465 48.4416 15.3091 48.1555 14.8864C48.0063 14.6502 47.683 14.3641 47.4467 14.2522C47.0363 14.0407 45.9173 14.0283 29.2911 14.0283H11.5582L11.011 14.3018ZM44.5866 32.9301V47.977H37.7597H30.9325L30.659 47.1313C29.6766 44.0846 26.9532 41.9831 23.7574 41.7965C20.1635 41.5975 16.9054 43.8359 15.8484 47.2308L15.637 47.9147L14.7541 47.952L13.8713 47.9894V40.3914V32.8058H18.9075C23.6827 32.8058 23.9812 32.7934 24.4289 32.5571C24.7646 32.3954 25.0009 32.1467 25.1875 31.7487C25.6476 30.8036 25.3987 29.9331 24.516 29.2742C24.1802 29.0253 24.006 29.0129 19.0194 28.9757L13.8713 28.9384V27.1477V25.3445H19.5915C25.0382 25.3445 25.3491 25.3321 25.7968 25.0959C26.1325 24.9341 26.3688 24.6854 26.5554 24.2876C27.0155 23.3424 26.7668 22.472 25.8838 21.8129C25.5481 21.5642 25.3739 21.5517 19.7034 21.5144L13.8713 21.4772V19.6864V17.8833H29.2289H44.5866V32.9301ZM56.9474 30.4058C58.3153 31.8358 59.8822 33.4525 60.4294 34.0119L61.4241 35.0442H54.9328H48.4416V31.4379V27.8316H51.4509H54.4603L56.9474 30.4058ZM64.1101 43.4381V47.977H63.7496C63.4386 47.977 63.389 47.9271 63.3143 47.4919C63.277 47.2308 63.0034 46.5468 62.7174 45.9748C60.7775 42.0826 55.8282 40.6276 51.9236 42.7914C50.8789 43.3634 49.4613 44.868 48.9017 45.9872L48.4416 46.9199V42.9033V38.8992H56.2759H64.1101V43.4381ZM24.8391 45.9624C25.5853 46.2858 26.4931 47.1935 26.8413 47.952C27.2393 48.8101 27.2269 50.3023 26.8165 51.148C26.4184 51.9439 25.66 52.6899 24.8766 53.0755C23.9688 53.5107 22.6381 53.5107 21.7055 53.0631C19.9645 52.2298 19.007 50.2899 19.517 48.5738C19.89 47.268 20.8226 46.2733 22.0785 45.8132C22.8123 45.552 24.0683 45.6142 24.8391 45.9624ZM57.4822 46.0371C60.4666 47.5541 60.4168 51.6205 57.3951 53.0631C56.8355 53.3242 56.537 53.3862 55.7785 53.3738C54.6593 53.3614 53.8759 53.0381 53.0924 52.2672C52.2842 51.4588 51.9857 50.7127 51.9857 49.5189C51.9857 48.6485 52.0355 48.4247 52.3587 47.7904C53.3411 45.8877 55.6416 45.0919 57.4822 46.0371Z" fill="black"/>
<path d="M44.5866 32.9301V47.977H37.7597H30.9325L30.659 47.1313C29.6766 44.0846 26.9532 41.9831 23.7574 41.7965C20.1635 41.5975 16.9054 43.8359 15.8484 47.2308L15.637 47.9147L14.7541 47.952L13.8713 47.9894V40.3914V32.8058H18.9075C23.6827 32.8058 23.9812 32.7934 24.4289 32.5571C24.7646 32.3954 25.0009 32.1467 25.1875 31.7487C25.6476 30.8036 25.3987 29.9331 24.516 29.2742C24.1802 29.0253 24.006 29.0129 19.0194 28.9757L13.8713 28.9384V27.1477V25.3445H19.5915C25.0382 25.3445 25.3491 25.3321 25.7968 25.0959C26.1325 24.9341 26.3688 24.6854 26.5554 24.2876C27.0155 23.3424 26.7668 22.472 25.8838 21.8129C25.5481 21.5642 25.3739 21.5517 19.7034 21.5144L13.8713 21.4772V19.6864V17.8833H29.2289H44.5866V32.9301Z" fill="#FFA600"/>
<path d="M64.1101 43.4381V47.977H63.7495C63.4386 47.977 63.389 47.9271 63.3143 47.4919C63.277 47.2308 63.0034 46.5468 62.7174 45.9748C60.7775 42.0826 55.8282 40.6276 51.9236 42.7914C50.8789 43.3634 49.4613 44.868 48.9017 45.9872L48.4416 46.9199V42.9033V38.8992H56.2759H64.1101V43.4381Z" fill="#FFA600"/>
<path d="M44.5866 32.9301V47.977H37.7597H30.9325L30.659 47.1313C29.6766 44.0846 26.9532 41.9831 23.7574 41.7965C20.1635 41.5975 16.9054 43.8359 15.8484 47.2308L15.637 47.9147L14.7541 47.952L13.8713 47.9894V40.3914V32.8058H18.9075C23.6827 32.8058 23.9812 32.7934 24.4289 32.5571C24.7646 32.3954 25.0009 32.1467 25.1875 31.7487C25.6476 30.8036 25.3987 29.9331 24.516 29.2742C24.1802 29.0253 24.006 29.0129 19.0194 28.9757L13.8713 28.9384V27.1477V25.3445H19.5915C25.0382 25.3445 25.3491 25.3321 25.7968 25.0959C26.1325 24.9341 26.3688 24.6854 26.5554 24.2876C27.0155 23.3424 26.7668 22.472 25.8838 21.8129C25.5481 21.5642 25.3739 21.5517 19.7034 21.5144L13.8713 21.4772V19.6864V17.8833H29.2289H44.5866V32.9301Z" stroke="black" stroke-width="0.168707"/>
<path d="M64.1101 43.4381V47.977H63.7495C63.4386 47.977 63.389 47.9271 63.3143 47.4919C63.277 47.2308 63.0034 46.5468 62.7174 45.9748C60.7775 42.0826 55.8282 40.6276 51.9236 42.7914C50.8789 43.3634 49.4613 44.868 48.9017 45.9872L48.4416 46.9199V42.9033V38.8992H56.2759H64.1101V43.4381Z" stroke="black" stroke-width="0.168707"/>
</svg>
