<svg width="72" height="72" viewBox="0 0 72 72" fill="none" xmlns="http://www.w3.org/2000/svg">
<path d="M54.5 5H17L13.5 8.5V64L18.5 67H55.5L58.5 62.5V8.5L54.5 5Z" fill="#2894B4"/>
<path d="M17.9615 67.8848C16.705 67.8848 15.6379 67.5445 14.6975 66.8433C13.4307 65.899 12.7616 64.5479 12.6515 62.7143C12.6413 62.5416 12.6426 62.3714 12.6438 62.2076C12.6438 62.1513 12.6451 62.095 12.6451 62.0387V50.8136C12.6464 37.4196 12.6477 23.5689 12.6298 9.94718C12.6272 8.2288 13.0763 6.83668 14.0014 5.68896C14.5682 4.98651 15.3603 4.49389 16.4223 4.18169C16.5272 4.15098 16.6321 4.11388 16.7421 4.07549C16.7959 4.0563 16.8483 4.03839 16.9021 4.02047L16.9584 4.00128H54.8998L54.9548 4.0192C55.0469 4.0499 55.1391 4.07933 55.2312 4.10748C55.4372 4.17274 55.6496 4.23927 55.8581 4.31988C57.5906 4.98139 58.6859 6.35175 59.1171 8.39129C59.2028 8.79946 59.2105 9.21914 59.2105 9.64906C59.213 20.1283 59.213 30.6062 59.2143 41.0854C59.2143 48.1496 59.2143 55.2138 59.2156 62.2767C59.2156 63.5063 58.9981 64.4557 58.5311 65.2644C57.5292 67.0007 55.9669 67.8823 53.8877 67.8823C51.051 67.8823 39.4343 67.8823 39.4343 67.8823H33.4897L25.2125 67.881C22.7981 67.881 20.3836 67.8823 17.9705 67.8848H17.9615V67.8848ZM48.2374 65.8325C48.8119 65.8325 49.3876 65.8351 49.9621 65.8363C50.5366 65.8389 51.1099 65.8402 51.6844 65.8402C52.58 65.8402 53.3158 65.8351 53.999 65.8235C55.4026 65.7992 56.3316 65.2158 56.7589 64.0885C56.9982 63.459 57.13 62.7693 57.13 62.1488C57.1479 47.0595 57.1479 31.7168 57.1466 16.8796V9.82435C57.1466 9.72966 57.1441 9.63626 57.1415 9.54158C57.1377 9.39827 57.1325 9.24985 57.1377 9.10014C57.1581 8.4348 56.8331 7.70547 56.2446 7.09899C55.5958 6.4298 54.745 6.03059 53.9683 6.03059C53.9453 6.03059 53.921 6.03059 53.8979 6.03187C53.1366 6.0549 52.319 6.06642 51.3261 6.06642C50.6723 6.06642 50.0172 6.0613 49.3633 6.05746C48.7108 6.05234 48.0582 6.0485 47.4057 6.0485H37.3679C31.2659 6.0485 24.7071 6.04978 18.0933 6.06002C17.6122 6.0613 17.071 6.08817 16.7025 6.28266C15.318 7.01326 14.6783 8.15714 14.6885 9.88449C14.7269 16.291 14.7205 22.805 14.7154 29.1041C14.7128 31.379 14.7115 33.654 14.7115 35.929V39.9812C14.7115 47.3512 14.7115 54.7212 14.7141 62.0912V62.2345C14.7128 62.5378 14.7115 62.8257 14.7602 63.0943C15.0058 64.4749 15.6904 65.3169 16.8522 65.6662C17.2079 65.7737 17.6339 65.8261 18.1534 65.8261C25.0347 65.8325 31.9108 65.8338 38.3173 65.8338L48.2374 65.8325Z" fill="#0D313B"/>
<mask id="path-3-inside-1_5876_45180" fill="white">
<path d="M44.949 19.2799C44.9759 24.4082 40.9812 28.5769 36.009 28.6114C30.9869 28.646 26.9181 24.5311 26.913 19.3798C26.9079 14.2796 30.7617 9.9958 35.9092 9.983C40.9045 9.97021 44.9221 14.1018 44.949 19.2799ZM36.0039 11.3175C31.9517 11.2088 28.2987 14.8042 28.2385 19.1968C28.1784 23.5586 31.596 27.2155 35.8555 27.2833C40.0485 27.3498 43.5466 23.7941 43.6183 19.4066C43.6861 15.0729 40.179 11.3073 36.0039 11.3175Z"/>
<path d="M36.0039 11.3175C31.9517 11.2088 28.2987 14.8042 28.2385 19.1968C28.1784 23.5586 31.596 27.2155 35.8555 27.2833C40.0485 27.3498 43.5466 23.7941 43.6183 19.4066C43.6861 15.0729 40.179 11.3073 36.0039 11.3175Z"/>
</mask>
<path d="M44.949 19.2799C44.9759 24.4082 40.9812 28.5769 36.009 28.6114C30.9869 28.646 26.9181 24.5311 26.913 19.3798C26.9079 14.2796 30.7617 9.9958 35.9092 9.983C40.9045 9.97021 44.9221 14.1018 44.949 19.2799ZM36.0039 11.3175C31.9517 11.2088 28.2987 14.8042 28.2385 19.1968C28.1784 23.5586 31.596 27.2155 35.8555 27.2833C40.0485 27.3498 43.5466 23.7941 43.6183 19.4066C43.6861 15.0729 40.179 11.3073 36.0039 11.3175Z" fill="#0D313B"/>
<path d="M36.0039 11.3175C31.9517 11.2088 28.2987 14.8042 28.2385 19.1968C28.1784 23.5586 31.596 27.2155 35.8555 27.2833C40.0485 27.3498 43.5466 23.7941 43.6183 19.4066C43.6861 15.0729 40.179 11.3073 36.0039 11.3175Z" fill="#68D4F4"/>
<path d="M36.0039 11.3175L35.9905 11.8174L35.9978 11.8176L36.0051 11.8175L36.0039 11.3175ZM28.2385 19.1968L28.7385 19.2037L28.7385 19.2036L28.2385 19.1968ZM35.8555 27.2833L35.8475 27.7832L35.8476 27.7832L35.8555 27.2833ZM43.6183 19.4066L44.1182 19.4148L44.1182 19.4144L43.6183 19.4066ZM36.0173 10.8177C31.6652 10.7009 27.8022 14.5405 27.7386 19.1899L28.7385 19.2036C28.7951 15.0679 32.2382 11.7166 35.9905 11.8174L36.0173 10.8177ZM27.7386 19.1899C27.6749 23.812 31.2972 27.7108 35.8475 27.7832L35.8634 26.7834C31.8948 26.7202 28.6819 23.3053 28.7385 19.2037L27.7386 19.1899ZM35.8476 27.7832C40.3386 27.8545 44.0424 24.0557 44.1182 19.4148L43.1184 19.3985C43.0509 23.5324 39.7583 26.8452 35.8634 26.7834L35.8476 27.7832ZM44.1182 19.4144C44.19 14.8254 40.4812 10.8066 36.0027 10.8175L36.0051 11.8175C39.8767 11.808 43.1822 15.3204 43.1184 19.3988L44.1182 19.4144ZM44.949 19.2799L43.949 19.2851L43.949 19.2852L44.949 19.2799ZM36.009 28.6114L36.0159 29.6114L36.016 29.6114L36.009 28.6114ZM26.913 19.3798L27.913 19.3788L27.913 19.3787L26.913 19.3798ZM35.9092 9.983L35.9117 10.983L35.9118 10.983L35.9092 9.983ZM43.949 19.2852C43.9731 23.8909 40.3941 27.581 36.0021 27.6115L36.016 29.6114C41.5684 29.5728 45.9786 24.9256 45.949 19.2747L43.949 19.2852ZM36.0022 27.6115C31.5549 27.6421 27.9176 23.996 27.913 19.3788L25.913 19.3807C25.9186 25.0661 30.419 29.6499 36.0159 29.6114L36.0022 27.6115ZM27.913 19.3787C27.9083 14.7738 31.3708 10.9943 35.9117 10.983L35.9067 8.983C30.1527 8.99731 25.9074 13.7854 25.913 19.3808L27.913 19.3787ZM35.9118 10.983C40.3224 10.9717 43.9248 14.6242 43.949 19.2851L45.949 19.2748C45.9194 13.5793 41.4865 8.96871 35.9067 8.983L35.9118 10.983Z" fill="#0D313B" mask="url(#path-3-inside-1_5876_45180)"/>
<mask id="path-5-outside-2_5876_45180" maskUnits="userSpaceOnUse" x="29.0981" y="49.5117" width="23" height="4" fill="black">
<rect fill="white" x="29.0981" y="49.5117" width="23" height="4"/>
<path d="M40.257 51.9779C37.2668 51.9779 34.2753 51.9779 31.2851 51.9779C31.0868 51.9779 30.8872 51.9843 30.6914 51.9626C30.2909 51.9165 30.1131 51.667 30.099 51.2768C30.0836 50.8763 30.2794 50.6332 30.6569 50.5526C30.8475 50.5116 31.0509 50.5282 31.248 50.5282C37.2489 50.527 43.2511 50.527 49.252 50.5282C49.4695 50.5282 49.7446 50.4681 49.8892 50.5769C50.1131 50.7432 50.3473 51.0132 50.3934 51.2716C50.456 51.6248 50.2334 51.9191 49.8227 51.9613C49.6269 51.9818 49.4273 51.9779 49.229 51.9779C46.2388 51.9779 43.2485 51.9779 40.257 51.9779Z"/>
</mask>
<path d="M40.257 51.9779C37.2668 51.9779 34.2753 51.9779 31.2851 51.9779C31.0868 51.9779 30.8872 51.9843 30.6914 51.9626C30.2909 51.9165 30.1131 51.667 30.099 51.2768C30.0836 50.8763 30.2794 50.6332 30.6569 50.5526C30.8475 50.5116 31.0509 50.5282 31.248 50.5282C37.2489 50.527 43.2511 50.527 49.252 50.5282C49.4695 50.5282 49.7446 50.4681 49.8892 50.5769C50.1131 50.7432 50.3473 51.0132 50.3934 51.2716C50.456 51.6248 50.2334 51.9191 49.8227 51.9613C49.6269 51.9818 49.4273 51.9779 49.229 51.9779C46.2388 51.9779 43.2485 51.9779 40.257 51.9779Z" fill="#0D313B"/>
<path d="M40.257 51.9779C37.2668 51.9779 34.2753 51.9779 31.2851 51.9779C31.0868 51.9779 30.8872 51.9843 30.6914 51.9626C30.2909 51.9165 30.1131 51.667 30.099 51.2768C30.0836 50.8763 30.2794 50.6332 30.6569 50.5526C30.8475 50.5116 31.0509 50.5282 31.248 50.5282C37.2489 50.527 43.2511 50.527 49.252 50.5282C49.4695 50.5282 49.7446 50.4681 49.8892 50.5769C50.1131 50.7432 50.3473 51.0132 50.3934 51.2716C50.456 51.6248 50.2334 51.9191 49.8227 51.9613C49.6269 51.9818 49.4273 51.9779 49.229 51.9779C46.2388 51.9779 43.2485 51.9779 40.257 51.9779Z" stroke="#0D313B" stroke-width="1.6" mask="url(#path-5-outside-2_5876_45180)"/>
<path d="M30.9422 35.4837C30.7758 35.4837 30.6415 35.4504 30.5289 35.3826C30.099 35.119 29.852 34.8516 29.7752 34.5637C29.71 34.3206 29.742 34.0865 29.8687 33.8881C30.0184 33.6527 30.2896 33.4902 30.6325 33.4288C30.7515 33.4083 30.8654 33.4045 30.9511 33.4045C30.9895 33.4045 31.0279 33.4045 31.0663 33.4058C31.1008 33.4058 31.1354 33.407 31.1699 33.407H38.4056C42.0547 33.407 45.7039 33.407 49.3544 33.4083C49.3928 33.4083 49.4337 33.4058 49.4759 33.4045C49.5297 33.4019 49.586 33.3994 49.6397 33.3994C49.7945 33.3994 49.9941 33.416 50.1579 33.5478C50.3306 33.6872 50.735 34.0557 50.7465 34.4805C50.7593 34.9604 50.1426 35.3263 50.0722 35.3672C49.9046 35.4632 49.7203 35.4747 49.5962 35.4747C49.5322 35.4747 49.467 35.4709 49.4017 35.467C49.3505 35.4645 49.3006 35.4607 49.252 35.4607C47.4338 35.4619 45.6156 35.4619 43.7987 35.4619C43.7987 35.4619 33.0994 35.4619 31.3055 35.4619C31.2582 35.4619 31.2083 35.467 31.1571 35.4709C31.0868 35.4773 31.0164 35.4837 30.9422 35.4837Z" fill="#0D313B"/>
<mask id="path-7-outside-3_5876_45180" maskUnits="userSpaceOnUse" x="29.1057" y="32.7631" width="23" height="4" fill="black">
<rect fill="white" x="29.1057" y="32.7631" width="23" height="4"/>
<path d="M40.2762 35.0998C37.2847 35.0998 34.2945 35.0998 31.303 35.0998C31.1047 35.0998 30.8654 35.1612 30.7183 35.0717C30.4803 34.9258 30.1898 34.7096 30.1259 34.469C30.0248 34.0903 30.3178 33.8536 30.6952 33.7858C30.8488 33.7589 31.0113 33.7704 31.1699 33.7704C37.231 33.7704 43.2921 33.7691 49.3544 33.7717C49.5502 33.7717 49.8035 33.7295 49.9302 33.8318C50.1362 33.9969 50.3767 34.263 50.3831 34.4921C50.3882 34.6801 50.1055 34.9322 49.8918 35.0538C49.7242 35.1497 49.467 35.0998 49.2495 35.0998C46.258 35.1011 43.2678 35.0998 40.2762 35.0998Z"/>
</mask>
<path d="M40.2762 35.0998C37.2847 35.0998 34.2945 35.0998 31.303 35.0998C31.1047 35.0998 30.8654 35.1612 30.7183 35.0717C30.4803 34.9258 30.1898 34.7096 30.1259 34.469C30.0248 34.0903 30.3178 33.8536 30.6952 33.7858C30.8488 33.7589 31.0113 33.7704 31.1699 33.7704C37.231 33.7704 43.2921 33.7691 49.3544 33.7717C49.5502 33.7717 49.8035 33.7295 49.9302 33.8318C50.1362 33.9969 50.3767 34.263 50.3831 34.4921C50.3882 34.6801 50.1055 34.9322 49.8918 35.0538C49.7242 35.1497 49.467 35.0998 49.2495 35.0998C46.258 35.1011 43.2678 35.0998 40.2762 35.0998Z" fill="#0D313B"/>
<path d="M40.2762 35.0998C37.2847 35.0998 34.2945 35.0998 31.303 35.0998C31.1047 35.0998 30.8654 35.1612 30.7183 35.0717C30.4803 34.9258 30.1898 34.7096 30.1259 34.469C30.0248 34.0903 30.3178 33.8536 30.6952 33.7858C30.8488 33.7589 31.0113 33.7704 31.1699 33.7704C37.231 33.7704 43.2921 33.7691 49.3544 33.7717C49.5502 33.7717 49.8035 33.7295 49.9302 33.8318C50.1362 33.9969 50.3767 34.263 50.3831 34.4921C50.3882 34.6801 50.1055 34.9322 49.8918 35.0538C49.7242 35.1497 49.467 35.0998 49.2495 35.0998C46.258 35.1011 43.2678 35.0998 40.2762 35.0998Z" stroke="#0D313B" stroke-width="1.6" mask="url(#path-7-outside-3_5876_45180)"/>
<path d="M30.9384 43.9208C30.8155 43.9208 30.6338 43.9093 30.4688 43.8108C30.3101 43.7161 29.7932 43.3732 29.7753 42.9202C29.7638 42.6272 29.9506 42.3291 30.3639 41.9811C30.5187 41.8506 30.7157 41.8352 30.8501 41.8352C30.9013 41.8352 30.9537 41.8378 31.0049 41.8403C31.0433 41.8416 31.0804 41.8442 31.1149 41.8442C34.0348 41.8429 36.9546 41.8429 39.8732 41.8429C43.0554 41.8429 46.2375 41.8429 49.4197 41.8442C49.4504 41.8442 49.4836 41.8429 49.5169 41.8416C49.5604 41.8403 49.6039 41.839 49.6474 41.839C49.8022 41.839 50.0006 41.8557 50.1618 41.9836C50.5815 42.3163 50.7708 42.6183 50.7427 42.9062C50.6966 43.377 50.1797 43.7314 50.0773 43.7967C49.9084 43.9055 49.7165 43.917 49.586 43.917C49.522 43.917 49.4555 43.9131 49.3902 43.9093C49.3391 43.9067 49.2891 43.9029 49.2418 43.9029C47.4351 43.9042 45.6297 43.9042 43.8243 43.9042H36.6386C34.8562 43.9042 33.0751 43.9042 31.2928 43.9029C31.2429 43.9029 31.1904 43.9067 31.138 43.9093C31.074 43.917 31.0049 43.9208 30.9384 43.9208Z" fill="#0D313B"/>
<mask id="path-9-outside-4_5876_45180" maskUnits="userSpaceOnUse" x="29.1372" y="41.1998" width="23" height="4" fill="black">
<rect fill="white" x="29.1372" y="41.1998" width="23" height="4"/>
<path d="M40.211 43.5446C37.24 43.5446 34.2677 43.5446 31.2967 43.5434C31.0792 43.5434 30.8194 43.5971 30.6544 43.4999C30.4317 43.3668 30.1451 43.1173 30.1374 42.9074C30.1285 42.6938 30.3933 42.4315 30.5968 42.26C30.7068 42.1679 30.9384 42.2088 31.115 42.2088C37.2157 42.2063 43.3177 42.2063 49.4184 42.2088C49.595 42.2088 49.8202 42.1768 49.9366 42.269C50.1337 42.4251 50.4011 42.6823 50.3832 42.8729C50.3614 43.0994 50.103 43.3527 49.8829 43.4935C49.7242 43.5958 49.4594 43.5434 49.2431 43.5434C46.2324 43.5459 43.2217 43.5446 40.211 43.5446Z"/>
</mask>
<path d="M40.211 43.5446C37.24 43.5446 34.2677 43.5446 31.2967 43.5434C31.0792 43.5434 30.8194 43.5971 30.6544 43.4999C30.4317 43.3668 30.1451 43.1173 30.1374 42.9074C30.1285 42.6938 30.3933 42.4315 30.5968 42.26C30.7068 42.1679 30.9384 42.2088 31.115 42.2088C37.2157 42.2063 43.3177 42.2063 49.4184 42.2088C49.595 42.2088 49.8202 42.1768 49.9366 42.269C50.1337 42.4251 50.4011 42.6823 50.3832 42.8729C50.3614 43.0994 50.103 43.3527 49.8829 43.4935C49.7242 43.5958 49.4594 43.5434 49.2431 43.5434C46.2324 43.5459 43.2217 43.5446 40.211 43.5446Z" fill="#0D313B"/>
<path d="M40.211 43.5446C37.24 43.5446 34.2677 43.5446 31.2967 43.5434C31.0792 43.5434 30.8194 43.5971 30.6544 43.4999C30.4317 43.3668 30.1451 43.1173 30.1374 42.9074C30.1285 42.6938 30.3933 42.4315 30.5968 42.26C30.7068 42.1679 30.9384 42.2088 31.115 42.2088C37.2157 42.2063 43.3177 42.2063 49.4184 42.2088C49.595 42.2088 49.8202 42.1768 49.9366 42.269C50.1337 42.4251 50.4011 42.6823 50.3832 42.8729C50.3614 43.0994 50.103 43.3527 49.8829 43.4935C49.7242 43.5958 49.4594 43.5434 49.2431 43.5434C46.2324 43.5459 43.2217 43.5446 40.211 43.5446Z" stroke="#0D313B" stroke-width="1.6" mask="url(#path-9-outside-4_5876_45180)"/>
<path d="M30.8924 60.6722C30.7849 60.6722 30.6237 60.6619 30.4714 60.5762C30.2168 60.4316 29.7869 60.1284 29.7753 59.7343C29.7638 59.3492 30.0607 58.9679 30.3166 58.7593C30.4919 58.616 30.7145 58.5981 30.8885 58.5981C30.9423 58.5981 30.9973 58.6006 31.051 58.6019C31.0945 58.6032 31.1368 58.6058 31.1764 58.6058C35.441 58.6032 39.7057 58.6032 43.969 58.6032H49.6014C50.3231 58.6032 50.7709 58.9999 50.7709 59.637C50.7709 60.0759 50.5636 60.3178 50.3909 60.4431C50.1926 60.5864 49.9277 60.6581 49.604 60.6581C48.5855 60.6555 47.5721 60.6555 46.5587 60.6555L42.6473 60.6568C42.6473 60.6568 33.2313 60.6568 31.2366 60.6555C31.1892 60.6555 31.1406 60.6594 31.092 60.6632C31.0242 60.6671 30.9563 60.6722 30.8924 60.6722Z" fill="#0D313B"/>
<mask id="path-11-outside-5_5876_45180" maskUnits="userSpaceOnUse" x="29.1372" y="57.9594" width="23" height="4" fill="black">
<rect fill="white" x="29.1372" y="57.9594" width="23" height="4"/>
<path d="M40.2097 60.2935C37.2182 60.2935 34.2267 60.2935 31.2352 60.2922C31.0368 60.2922 30.8027 60.3459 30.6504 60.2602C30.4355 60.1374 30.1425 59.9122 30.1373 59.7228C30.1309 59.4925 30.3446 59.202 30.5455 59.0383C30.6837 58.9257 30.9614 58.9666 31.1776 58.9666C37.2195 58.9641 43.2613 58.9641 49.3032 58.9641C49.4017 58.9641 49.5015 58.9641 49.6 58.9641C50.0568 58.9641 50.4061 59.1509 50.4074 59.6358C50.4074 60.1233 50.0607 60.2947 49.5988 60.2947C47.2816 60.2896 44.9631 60.2935 42.6459 60.2935C41.8334 60.2935 41.0222 60.2935 40.2097 60.2935Z"/>
</mask>
<path d="M40.2097 60.2935C37.2182 60.2935 34.2267 60.2935 31.2352 60.2922C31.0368 60.2922 30.8027 60.3459 30.6504 60.2602C30.4355 60.1374 30.1425 59.9122 30.1373 59.7228C30.1309 59.4925 30.3446 59.202 30.5455 59.0383C30.6837 58.9257 30.9614 58.9666 31.1776 58.9666C37.2195 58.9641 43.2613 58.9641 49.3032 58.9641C49.4017 58.9641 49.5015 58.9641 49.6 58.9641C50.0568 58.9641 50.4061 59.1509 50.4074 59.6358C50.4074 60.1233 50.0607 60.2947 49.5988 60.2947C47.2816 60.2896 44.9631 60.2935 42.6459 60.2935C41.8334 60.2935 41.0222 60.2935 40.2097 60.2935Z" fill="#0D313B"/>
<path d="M40.2097 60.2935C37.2182 60.2935 34.2267 60.2935 31.2352 60.2922C31.0368 60.2922 30.8027 60.3459 30.6504 60.2602C30.4355 60.1374 30.1425 59.9122 30.1373 59.7228C30.1309 59.4925 30.3446 59.202 30.5455 59.0383C30.6837 58.9257 30.9614 58.9666 31.1776 58.9666C37.2195 58.9641 43.2613 58.9641 49.3032 58.9641C49.4017 58.9641 49.5015 58.9641 49.6 58.9641C50.0568 58.9641 50.4061 59.1509 50.4074 59.6358C50.4074 60.1233 50.0607 60.2947 49.5988 60.2947C47.2816 60.2896 44.9631 60.2935 42.6459 60.2935C41.8334 60.2935 41.0222 60.2935 40.2097 60.2935Z" stroke="#0D313B" stroke-width="1.6" mask="url(#path-11-outside-5_5876_45180)"/>
<path d="M23.4659 62.3765C23.0757 62.3765 22.7571 62.0989 22.4705 61.7982C22.1033 61.4131 21.7488 61.0087 21.4059 60.6172L21.3573 60.5622C20.9645 60.1131 20.9683 59.5782 21.3688 59.1662C21.6388 58.8886 21.9139 58.8297 22.0969 58.8297C22.3541 58.8297 22.6061 58.9423 22.8262 59.1547C23.0284 59.3505 23.2062 59.5539 23.4148 59.7881C23.4263 59.8022 23.4391 59.8149 23.4506 59.829C23.4506 59.829 24.9425 58.2245 25.526 57.5976C25.5618 57.5592 25.5989 57.5221 25.6373 57.4862C25.6693 57.4555 25.7013 57.4235 25.732 57.3903C26.0288 57.064 26.3257 56.9041 26.6391 56.9041C26.8707 56.9041 27.0972 56.9936 27.3109 57.1689C27.5207 57.3416 27.6461 57.5899 27.6628 57.8675C27.6845 58.222 27.531 58.5994 27.2418 58.9027C26.4024 59.7817 25.4262 60.804 24.4576 61.8046C24.171 62.1027 23.8524 62.3765 23.4659 62.3765Z" fill="#0D313B"/>
<mask id="path-13-outside-6_5876_45180" maskUnits="userSpaceOnUse" x="20.4312" y="56.2671" width="8" height="7" fill="black">
<rect fill="white" x="20.4312" y="56.2671" width="8" height="7"/>
<path d="M23.4455 60.3677C24.2913 59.4579 25.0411 58.6506 25.7921 57.8445C25.8599 57.7716 25.9342 57.7063 26.0007 57.6334C26.3129 57.2892 26.666 57.1088 27.0806 57.4491C27.4146 57.7229 27.3621 58.2514 26.9795 58.6531C26.0544 59.6217 25.1293 60.5903 24.1979 61.5525C23.6042 62.1667 23.3265 62.1667 22.7341 61.5461C22.3554 61.1495 21.9945 60.7349 21.6324 60.3203C21.374 60.0248 21.3548 59.7011 21.6312 59.417C21.9293 59.1112 22.2735 59.1202 22.5754 59.4144C22.8569 59.6895 23.1077 59.9953 23.4455 60.3677Z"/>
</mask>
<path d="M23.4455 60.3677C24.2913 59.4579 25.0411 58.6506 25.7921 57.8445C25.8599 57.7716 25.9342 57.7063 26.0007 57.6334C26.3129 57.2892 26.666 57.1088 27.0806 57.4491C27.4146 57.7229 27.3621 58.2514 26.9795 58.6531C26.0544 59.6217 25.1293 60.5903 24.1979 61.5525C23.6042 62.1667 23.3265 62.1667 22.7341 61.5461C22.3554 61.1495 21.9945 60.7349 21.6324 60.3203C21.374 60.0248 21.3548 59.7011 21.6312 59.417C21.9293 59.1112 22.2735 59.1202 22.5754 59.4144C22.8569 59.6895 23.1077 59.9953 23.4455 60.3677Z" fill="#0D313B"/>
<path d="M23.4455 60.3677C24.2913 59.4579 25.0411 58.6506 25.7921 57.8445C25.8599 57.7716 25.9342 57.7063 26.0007 57.6334C26.3129 57.2892 26.666 57.1088 27.0806 57.4491C27.4146 57.7229 27.3621 58.2514 26.9795 58.6531C26.0544 59.6217 25.1293 60.5903 24.1979 61.5525C23.6042 62.1667 23.3265 62.1667 22.7341 61.5461C22.3554 61.1495 21.9945 60.7349 21.6324 60.3203C21.374 60.0248 21.3548 59.7011 21.6312 59.417C21.9293 59.1112 22.2735 59.1202 22.5754 59.4144C22.8569 59.6895 23.1077 59.9953 23.4455 60.3677Z" stroke="#0D313B" stroke-width="1.6" mask="url(#path-13-outside-6_5876_45180)"/>
<path d="M23.475 53.9395C23.2792 53.9395 22.9811 53.8729 22.6663 53.5594C22.5409 53.434 22.4155 53.3099 22.2901 53.1845C22.0086 52.9043 21.7259 52.6241 21.4482 52.3401C20.9454 51.827 20.9172 51.209 21.3753 50.7292C21.6427 50.4489 21.914 50.3888 22.0944 50.3888C22.4002 50.3888 22.697 50.5462 22.9785 50.8571C23.077 50.9659 23.1743 51.0785 23.269 51.1898L23.6707 50.8482C24.3054 50.3082 24.94 49.7695 25.5721 49.227C25.6207 49.1848 25.6706 49.1323 25.7244 49.0773C25.7934 49.0044 25.8715 48.9225 25.9636 48.8483C26.1863 48.6691 26.4409 48.5706 26.6802 48.5706C26.9706 48.5706 27.2265 48.7152 27.3839 48.9685C27.5733 49.2731 27.6654 49.9538 27.3711 50.2839C26.3897 51.3817 25.3443 52.4488 24.3322 53.4814L24.2235 53.5927C23.9433 53.8793 23.6618 53.9395 23.475 53.9395Z" fill="#0D313B"/>
<mask id="path-15-outside-7_5876_45180" maskUnits="userSpaceOnUse" x="20.4138" y="47.9348" width="8" height="7" fill="black">
<rect fill="white" x="20.4138" y="47.9348" width="8" height="7"/>
<path d="M23.2485 51.6823C24.1019 50.9568 24.9566 50.2314 25.8075 49.5033C25.9418 49.3882 26.0519 49.2436 26.1901 49.1323C26.492 48.8891 26.8746 48.8392 27.0755 49.1617C27.215 49.3856 27.2495 49.8769 27.0998 50.0433C26.0903 51.1744 25.0244 52.2568 23.9637 53.3393C23.6272 53.6835 23.2587 53.6374 22.9222 53.3022C22.5166 52.8966 22.1084 52.4948 21.7067 52.0854C21.3689 51.7399 21.2946 51.3381 21.6363 50.9786C22.0099 50.5871 22.3912 50.7508 22.7085 51.1001C22.9542 51.3714 23.1845 51.658 23.4225 51.9382C23.3649 51.8538 23.3073 51.768 23.2485 51.6823Z"/>
</mask>
<path d="M23.2485 51.6823C24.1019 50.9568 24.9566 50.2314 25.8075 49.5033C25.9418 49.3882 26.0519 49.2436 26.1901 49.1323C26.492 48.8891 26.8746 48.8392 27.0755 49.1617C27.215 49.3856 27.2495 49.8769 27.0998 50.0433C26.0903 51.1744 25.0244 52.2568 23.9637 53.3393C23.6272 53.6835 23.2587 53.6374 22.9222 53.3022C22.5166 52.8966 22.1084 52.4948 21.7067 52.0854C21.3689 51.7399 21.2946 51.3381 21.6363 50.9786C22.0099 50.5871 22.3912 50.7508 22.7085 51.1001C22.9542 51.3714 23.1845 51.658 23.4225 51.9382C23.3649 51.8538 23.3073 51.768 23.2485 51.6823Z" fill="#0D313B"/>
<path d="M23.2485 51.6823C24.1019 50.9568 24.9566 50.2314 25.8075 49.5033C25.9418 49.3882 26.0519 49.2436 26.1901 49.1323C26.492 48.8891 26.8746 48.8392 27.0755 49.1617C27.215 49.3856 27.2495 49.8769 27.0998 50.0433C26.0903 51.1744 25.0244 52.2568 23.9637 53.3393C23.6272 53.6835 23.2587 53.6374 22.9222 53.3022C22.5166 52.8966 22.1084 52.4948 21.7067 52.0854C21.3689 51.7399 21.2946 51.3381 21.6363 50.9786C22.0099 50.5871 22.3912 50.7508 22.7085 51.1001C22.9542 51.3714 23.1845 51.658 23.4225 51.9382C23.3649 51.8538 23.3073 51.768 23.2485 51.6823Z" stroke="#0D313B" stroke-width="1.6" mask="url(#path-15-outside-7_5876_45180)"/>
<path d="M23.4673 37.1867C23.0936 37.1867 22.7917 36.927 22.5447 36.6736C22.0969 36.213 21.6785 35.7473 21.3036 35.2905C20.9325 34.8388 20.994 34.2758 21.4546 33.8881C21.6529 33.7218 21.8781 33.6335 22.1059 33.6335C22.3784 33.6335 22.6369 33.7551 22.8544 33.9867C23.0501 34.1939 23.2229 34.4102 23.4058 34.6405L23.9176 34.1287C24.5293 33.5171 25.0986 32.9477 25.6642 32.3758C25.8804 32.157 26.2067 31.8268 26.6417 31.8268C26.8759 31.8268 27.1049 31.9215 27.3237 32.1083C27.5284 32.2836 27.6436 32.5063 27.6551 32.7507C27.6717 33.0923 27.4926 33.4518 27.1075 33.851C26.7275 34.2438 26.35 34.6405 25.9725 35.0359C25.4595 35.5733 24.9297 36.1286 24.4026 36.6685C24.1377 36.9359 23.8422 37.1854 23.4673 37.1867Z" fill="#0D313B"/>
<mask id="path-17-outside-8_5876_45180" maskUnits="userSpaceOnUse" x="20.4237" y="31.1864" width="8" height="7" fill="black">
<rect fill="white" x="20.4237" y="31.1864" width="8" height="7"/>
<path d="M23.3777 35.1805C24.3079 34.249 25.1191 33.4416 25.9226 32.6278C26.2617 32.2836 26.6084 31.9714 27.0883 32.3809C27.435 32.6777 27.3352 33.091 26.8464 33.5964C25.9418 34.533 25.0513 35.4811 24.1415 36.4126C23.608 36.959 23.329 36.9615 22.8032 36.4203C22.3784 35.984 21.9689 35.531 21.5825 35.0602C21.3304 34.7531 21.388 34.4166 21.6874 34.1645C21.9932 33.9061 22.3246 33.9534 22.5895 34.2336C22.8607 34.5189 23.0962 34.8375 23.3777 35.1805Z"/>
</mask>
<path d="M23.3777 35.1805C24.3079 34.249 25.1191 33.4416 25.9226 32.6278C26.2617 32.2836 26.6084 31.9714 27.0883 32.3809C27.435 32.6777 27.3352 33.091 26.8464 33.5964C25.9418 34.533 25.0513 35.4811 24.1415 36.4126C23.608 36.959 23.329 36.9615 22.8032 36.4203C22.3784 35.984 21.9689 35.531 21.5825 35.0602C21.3304 34.7531 21.388 34.4166 21.6874 34.1645C21.9932 33.9061 22.3246 33.9534 22.5895 34.2336C22.8607 34.5189 23.0962 34.8375 23.3777 35.1805Z" fill="#0D313B"/>
<path d="M23.3777 35.1805C24.3079 34.249 25.1191 33.4416 25.9226 32.6278C26.2617 32.2836 26.6084 31.9714 27.0883 32.3809C27.435 32.6777 27.3352 33.091 26.8464 33.5964C25.9418 34.533 25.0513 35.4811 24.1415 36.4126C23.608 36.959 23.329 36.9615 22.8032 36.4203C22.3784 35.984 21.9689 35.531 21.5825 35.0602C21.3304 34.7531 21.388 34.4166 21.6874 34.1645C21.9932 33.9061 22.3246 33.9534 22.5895 34.2336C22.8607 34.5189 23.0962 34.8375 23.3777 35.1805Z" stroke="#0D313B" stroke-width="1.6" mask="url(#path-17-outside-8_5876_45180)"/>
<path d="M23.539 45.5458C23.3227 45.5458 23.0271 45.4895 22.8442 45.3308C22.5013 45.034 22.1942 44.7 21.8961 44.3776C21.754 44.2228 21.6056 44.0641 21.4585 43.9131C20.7662 43.203 21.1578 42.631 21.3587 42.4186C21.6312 42.1308 21.9076 42.0706 22.0918 42.0706C22.2914 42.0706 22.5972 42.1423 22.9171 42.4801C23.0873 42.6605 23.2447 42.8434 23.4264 43.0558C23.4302 43.0597 23.4328 43.0635 23.4366 43.0674L23.9446 42.5261C24.551 41.8812 25.1204 41.2735 25.6898 40.667C25.9214 40.42 26.2374 40.1373 26.6418 40.1373C26.881 40.1373 27.1088 40.2358 27.3199 40.429C27.5413 40.6324 27.6641 40.8819 27.6756 41.1506C27.691 41.5537 27.4581 41.8928 27.2611 42.1052C26.2221 43.2196 25.1422 44.32 24.052 45.3769C23.9369 45.4895 23.7641 45.5458 23.539 45.5458Z" fill="#0D313B"/>
<mask id="path-19-outside-9_5876_45180" maskUnits="userSpaceOnUse" x="20.4303" y="39.5004" width="8" height="7" fill="black">
<rect fill="white" x="20.4303" y="39.5004" width="8" height="7"/>
<path d="M23.4263 43.6111C24.3386 42.64 25.1485 41.7789 25.9571 40.9152C26.2796 40.571 26.6455 40.301 27.0767 40.6964C27.4964 41.0803 27.293 41.5383 26.9961 41.8569C25.9597 42.9701 24.8926 44.0564 23.7999 45.1146C23.6809 45.2297 23.2343 45.1888 23.0808 45.0557C22.5907 44.6309 22.1723 44.1255 21.7181 43.6585C21.4149 43.3476 21.3023 43.0059 21.6234 42.6656C21.9663 42.3022 22.3374 42.3905 22.656 42.727C22.9004 42.988 23.1243 43.2644 23.4263 43.6111Z"/>
</mask>
<path d="M23.4263 43.6111C24.3386 42.64 25.1485 41.7789 25.9571 40.9152C26.2796 40.571 26.6455 40.301 27.0767 40.6964C27.4964 41.0803 27.293 41.5383 26.9961 41.8569C25.9597 42.9701 24.8926 44.0564 23.7999 45.1146C23.6809 45.2297 23.2343 45.1888 23.0808 45.0557C22.5907 44.6309 22.1723 44.1255 21.7181 43.6585C21.4149 43.3476 21.3023 43.0059 21.6234 42.6656C21.9663 42.3022 22.3374 42.3905 22.656 42.727C22.9004 42.988 23.1243 43.2644 23.4263 43.6111Z" fill="#0D313B"/>
<path d="M23.4263 43.6111C24.3386 42.64 25.1485 41.7789 25.9571 40.9152C26.2796 40.571 26.6455 40.301 27.0767 40.6964C27.4964 41.0803 27.293 41.5383 26.9961 41.8569C25.9597 42.9701 24.8926 44.0564 23.7999 45.1146C23.6809 45.2297 23.2343 45.1888 23.0808 45.0557C22.5907 44.6309 22.1723 44.1255 21.7181 43.6585C21.4149 43.3476 21.3023 43.0059 21.6234 42.6656C21.9663 42.3022 22.3374 42.3905 22.656 42.727C22.9004 42.988 23.1243 43.2644 23.4263 43.6111Z" stroke="#0D313B" stroke-width="1.6" mask="url(#path-19-outside-9_5876_45180)"/>
<path d="M35.2554 23.2119C35.2554 22.1499 35.2707 21.1826 35.2375 20.2165C35.2324 20.0784 35.0097 19.912 34.8511 19.8237C34.2804 19.5051 33.5383 19.349 33.1416 18.8897C31.6472 17.1572 32.2831 14.9693 34.4723 14.2553C35.1402 14.0378 35.313 13.7512 35.2708 13.1063C35.2196 12.3181 35.464 11.988 35.931 11.9906C36.3929 11.9931 36.6398 12.3283 36.5848 13.1127C36.5387 13.7665 36.7179 14.0646 37.3909 14.2579C38.5834 14.5982 39.3268 15.4376 39.5047 16.7081C39.5699 17.1713 39.4676 17.5833 38.9404 17.646C38.4593 17.7036 38.2712 17.3722 38.1855 16.9205C38.0307 16.108 37.4626 15.6717 36.6091 15.3698C36.6091 16.4676 36.604 17.4848 36.6181 18.502C36.6194 18.5839 36.7396 18.6965 36.8305 18.7374C37.199 18.9076 37.5816 19.0458 37.9526 19.2121C39.7209 20.0105 40.1316 22.2024 38.705 23.5241C38.2456 23.9489 37.6097 24.2086 37.0186 24.4556C36.7064 24.5861 36.5733 24.7064 36.5963 25.0378C36.6168 25.3525 36.6168 25.6737 36.5797 25.9859C36.5349 26.3672 36.2841 26.6615 35.9092 26.5719C35.6648 26.513 35.2784 26.1612 35.3053 26.0012C35.5049 24.842 34.8613 24.4581 33.9157 24.0781C32.9305 23.6815 32.3535 22.8332 32.3355 21.6969C32.3291 21.2747 32.5083 20.9868 32.9254 20.9472C33.3438 20.9062 33.6138 21.1608 33.6458 21.5716C33.7213 22.5158 34.3175 22.9304 35.2554 23.2119ZM36.6322 23.153C37.7146 22.9163 38.2367 22.329 38.1944 21.4679C38.1599 20.7578 37.666 20.3624 36.6322 20.2357C36.6322 21.1967 36.6322 22.1537 36.6322 23.153ZM35.2272 18.3868C35.2272 17.3863 35.2272 16.4241 35.2272 15.4568C34.4122 15.5758 33.6842 16.3076 33.6637 16.9999C33.6394 17.7727 34.0283 18.1322 35.2272 18.3868Z" fill="#0D313B"/>
</svg>
