<svg width="72" height="72" viewBox="0 0 72 72" fill="none" xmlns="http://www.w3.org/2000/svg">
<path d="M9.26673 4.25134C9 4.51807 9 4.6381 9 35.9923C9 67.2932 9 67.4665 9.26673 67.7333C9.53346 68 9.70684 68 35.6731 68C61.666 68 61.8127 68 62.0794 67.7333C62.3462 67.4665 62.3462 67.3465 62.3195 37.6194L62.2795 7.78552L61.8927 6.98533C61.3859 5.95842 60.3723 4.94484 59.3454 4.43805L58.5452 4.05129L34.046 4.01128C9.65349 3.98461 9.53346 3.98461 9.26673 4.25134ZM51.997 6.25182C52.6505 6.39852 53.1306 6.74527 53.4774 7.33208C53.7174 7.74551 53.7441 8.09226 53.8108 11.0263C53.8775 14.0404 53.8908 14.2938 54.1308 14.4671C54.3442 14.6138 55.0111 14.6538 57.3049 14.6538H60.2123V40.26V65.8662H35.6731H11.1338V35.9923V6.11845H31.312C42.9282 6.11845 51.7036 6.1718 51.997 6.25182ZM58.1718 6.45187C58.8653 6.74527 59.5188 7.39876 59.8522 8.11893C60.0789 8.61239 60.1323 9.07917 60.1856 10.6129L60.2523 12.52H58.0918H55.9446V9.9327C55.9446 7.98557 55.8913 7.21205 55.7446 6.78528C55.6379 6.47854 55.5445 6.18514 55.5445 6.14513C55.5445 5.99842 57.6917 6.25182 58.1718 6.45187Z" fill="#0B2D1F"/>
<path d="M51.997 6.25182C52.6505 6.39852 53.1306 6.74527 53.4774 7.33208C53.7174 7.74551 53.7441 8.09226 53.8108 11.0263C53.8775 14.0404 53.8908 14.2938 54.1308 14.4671C54.3442 14.6138 55.0111 14.6538 57.3049 14.6538H60.2123V40.26V65.8662H35.6731H11.1338V35.9923V6.11845H31.312C42.9282 6.11845 51.7036 6.1718 51.997 6.25182Z" fill="#22885E"/>
<path d="M58.1718 6.45187C58.8653 6.74527 59.5188 7.39876 59.8522 8.11893C60.0789 8.61239 60.1323 9.07917 60.1856 10.6129L60.2523 12.52H58.0918H55.9446V9.9327C55.9446 7.98557 55.8913 7.21205 55.7446 6.78528C55.6379 6.47854 55.5445 6.18514 55.5445 6.14513C55.5445 5.99842 57.6917 6.25182 58.1718 6.45187Z" fill="#62C89E"/>
<path d="M33.6021 12.566C29.8412 13.5395 26.8138 16.5803 25.8669 20.3545C25.4935 21.8082 25.5069 24.1287 25.8669 25.5824C26.6405 28.6232 28.6276 31.1171 31.4016 32.5041C33.0687 33.3443 34.3356 33.6377 36.2694 33.6377C38.2166 33.6377 39.4702 33.3443 41.204 32.4774C42.2842 31.944 42.6576 31.6506 43.8046 30.5036C44.9515 29.3567 45.2449 28.9832 45.7784 27.903C46.6453 26.1692 46.9387 24.9156 46.9387 22.9685C46.9387 21.0347 46.6453 19.7677 45.8051 18.1006C44.4181 15.3266 41.9241 13.3395 38.8834 12.566C37.4564 12.2059 35.0158 12.2059 33.6021 12.566ZM39.0835 15.0199C41.4707 15.8468 43.4979 17.9273 44.2847 20.3278C44.5514 21.1547 44.6048 21.5681 44.6048 23.0351C44.6048 24.5688 44.5648 24.8756 44.258 25.7291C41.7908 32.4908 32.7353 33.411 29.0144 27.2628C28.1608 25.8492 27.9341 24.9823 27.9341 23.0351C27.9341 20.928 28.2275 19.8344 29.2278 18.354C31.4149 15.0732 35.3892 13.7396 39.0835 15.0199Z" fill="#0B2D1F"/>
<path d="M35.4691 16.8336C35.3224 16.9803 35.2024 17.247 35.2024 17.4204C35.2024 17.6338 35.109 17.7805 34.9223 17.8338C34.4555 17.9805 33.5753 18.8607 33.3219 19.4342C32.9885 20.141 32.9885 21.528 33.3219 22.2349C33.7887 23.2751 34.7089 23.8753 36.1759 24.102C36.456 24.142 36.8027 24.302 36.9494 24.4488C37.4962 24.9955 37.0828 26.0358 36.3226 26.0358C35.7358 26.0358 35.4824 25.7957 35.2557 25.0356C35.1357 24.6221 34.9356 24.2487 34.8023 24.1687C34.3755 23.942 33.6287 24.0086 33.3352 24.302C32.9885 24.6488 32.9752 25.7557 33.3219 26.5026C33.5753 27.076 34.4555 27.9563 34.9223 28.103C35.109 28.1563 35.2024 28.303 35.2024 28.5164C35.2024 29.0098 35.6425 29.3699 36.2693 29.3699C36.8961 29.3699 37.3362 29.0098 37.3362 28.5164C37.3362 28.303 37.4296 28.1563 37.6163 28.103C38.0831 27.9563 38.9633 27.076 39.2167 26.5026C39.3767 26.1558 39.4701 25.6624 39.4701 25.1022C39.4701 23.2351 38.4298 22.1549 36.3626 21.8348C36.0826 21.7948 35.7358 21.6347 35.5891 21.488C35.0423 20.9412 35.4558 19.901 36.2159 19.901C36.8027 19.901 37.0561 20.141 37.2829 20.9012C37.4029 21.3147 37.6029 21.6881 37.7363 21.7681C38.1631 21.9948 38.9099 21.9281 39.2033 21.6347C39.5501 21.288 39.5634 20.1811 39.2167 19.4342C38.9633 18.8607 38.0831 17.9805 37.6163 17.8338C37.4296 17.7805 37.3362 17.6338 37.3362 17.4204C37.3362 16.9269 36.8961 16.5669 36.2693 16.5669C35.9092 16.5669 35.6425 16.6602 35.4691 16.8336Z" fill="#0B2D1F"/>
<mask id="path-4-outside-1_5876_45241" maskUnits="userSpaceOnUse" x="17.481" y="40.2443" width="9" height="4" fill="black">
<rect fill="white" x="17.481" y="40.2443" width="9" height="4"/>
<path d="M18.7942 41.0519C18.5906 41.2555 18.481 41.5687 18.481 41.9915C18.481 42.4143 18.5906 42.7275 18.7942 42.9311C19.0917 43.2286 19.311 43.2443 22.2394 43.2443C25.1677 43.2443 25.387 43.2286 25.6845 42.9311C25.8881 42.7275 25.9977 42.4143 25.9977 41.9915C25.9977 41.5687 25.8881 41.2555 25.6845 41.0519C25.387 40.7544 25.1677 40.7387 22.2394 40.7387C19.311 40.7387 19.0917 40.7544 18.7942 41.0519Z"/>
</mask>
<path d="M18.7942 41.0519C18.5906 41.2555 18.481 41.5687 18.481 41.9915C18.481 42.4143 18.5906 42.7275 18.7942 42.9311C19.0917 43.2286 19.311 43.2443 22.2394 43.2443C25.1677 43.2443 25.387 43.2286 25.6845 42.9311C25.8881 42.7275 25.9977 42.4143 25.9977 41.9915C25.9977 41.5687 25.8881 41.2555 25.6845 41.0519C25.387 40.7544 25.1677 40.7387 22.2394 40.7387C19.311 40.7387 19.0917 40.7544 18.7942 41.0519Z" fill="#0B2D1F"/>
<path d="M18.7942 41.0519C18.5906 41.2555 18.481 41.5687 18.481 41.9915C18.481 42.4143 18.5906 42.7275 18.7942 42.9311C19.0917 43.2286 19.311 43.2443 22.2394 43.2443C25.1677 43.2443 25.387 43.2286 25.6845 42.9311C25.8881 42.7275 25.9977 42.4143 25.9977 41.9915C25.9977 41.5687 25.8881 41.2555 25.6845 41.0519C25.387 40.7544 25.1677 40.7387 22.2394 40.7387C19.311 40.7387 19.0917 40.7544 18.7942 41.0519Z" stroke="#0B2D1F" stroke-width="0.2" mask="url(#path-4-outside-1_5876_45241)"/>
<mask id="path-5-outside-2_5876_45241" maskUnits="userSpaceOnUse" x="30.0088" y="40.2443" width="24" height="4" fill="black">
<rect fill="white" x="30.0088" y="40.2443" width="24" height="4"/>
<path d="M31.322 41.0519C31.1184 41.2555 31.0088 41.5687 31.0088 41.9915C31.0088 42.4143 31.1184 42.7275 31.322 42.9311C31.6352 43.2443 31.8388 43.2443 42.2838 43.2443C52.7289 43.2443 52.9325 43.2443 53.2457 42.9311C53.4492 42.7275 53.5589 42.4143 53.5589 41.9915C53.5589 41.5687 53.4492 41.2555 53.2457 41.0519C52.9325 40.7387 52.7289 40.7387 42.2838 40.7387C31.8388 40.7387 31.6352 40.7387 31.322 41.0519Z"/>
</mask>
<path d="M31.322 41.0519C31.1184 41.2555 31.0088 41.5687 31.0088 41.9915C31.0088 42.4143 31.1184 42.7275 31.322 42.9311C31.6352 43.2443 31.8388 43.2443 42.2838 43.2443C52.7289 43.2443 52.9325 43.2443 53.2457 42.9311C53.4492 42.7275 53.5589 42.4143 53.5589 41.9915C53.5589 41.5687 53.4492 41.2555 53.2457 41.0519C52.9325 40.7387 52.7289 40.7387 42.2838 40.7387C31.8388 40.7387 31.6352 40.7387 31.322 41.0519Z" fill="#0B2D1F"/>
<path d="M31.322 41.0519C31.1184 41.2555 31.0088 41.5687 31.0088 41.9915C31.0088 42.4143 31.1184 42.7275 31.322 42.9311C31.6352 43.2443 31.8388 43.2443 42.2838 43.2443C52.7289 43.2443 52.9325 43.2443 53.2457 42.9311C53.4492 42.7275 53.5589 42.4143 53.5589 41.9915C53.5589 41.5687 53.4492 41.2555 53.2457 41.0519C52.9325 40.7387 52.7289 40.7387 42.2838 40.7387C31.8388 40.7387 31.6352 40.7387 31.322 41.0519Z" stroke="#0B2D1F" stroke-width="0.2" mask="url(#path-5-outside-2_5876_45241)"/>
<mask id="path-6-outside-3_5876_45241" maskUnits="userSpaceOnUse" x="17.481" y="45.2556" width="9" height="4" fill="black">
<rect fill="white" x="17.481" y="45.2556" width="9" height="4"/>
<path d="M18.7942 46.0632C18.5906 46.2668 18.481 46.58 18.481 47.0028C18.481 47.4256 18.5906 47.7388 18.7942 47.9424C19.0917 48.24 19.311 48.2556 22.2394 48.2556C25.1677 48.2556 25.387 48.24 25.6845 47.9424C25.8881 47.7388 25.9977 47.4256 25.9977 47.0028C25.9977 46.58 25.8881 46.2668 25.6845 46.0632C25.387 45.7657 25.1677 45.7501 22.2394 45.7501C19.311 45.7501 19.0917 45.7657 18.7942 46.0632Z"/>
</mask>
<path d="M18.7942 46.0632C18.5906 46.2668 18.481 46.58 18.481 47.0028C18.481 47.4256 18.5906 47.7388 18.7942 47.9424C19.0917 48.24 19.311 48.2556 22.2394 48.2556C25.1677 48.2556 25.387 48.24 25.6845 47.9424C25.8881 47.7388 25.9977 47.4256 25.9977 47.0028C25.9977 46.58 25.8881 46.2668 25.6845 46.0632C25.387 45.7657 25.1677 45.7501 22.2394 45.7501C19.311 45.7501 19.0917 45.7657 18.7942 46.0632Z" fill="#0B2D1F"/>
<path d="M18.7942 46.0632C18.5906 46.2668 18.481 46.58 18.481 47.0028C18.481 47.4256 18.5906 47.7388 18.7942 47.9424C19.0917 48.24 19.311 48.2556 22.2394 48.2556C25.1677 48.2556 25.387 48.24 25.6845 47.9424C25.8881 47.7388 25.9977 47.4256 25.9977 47.0028C25.9977 46.58 25.8881 46.2668 25.6845 46.0632C25.387 45.7657 25.1677 45.7501 22.2394 45.7501C19.311 45.7501 19.0917 45.7657 18.7942 46.0632Z" stroke="#0B2D1F" stroke-width="0.2" mask="url(#path-6-outside-3_5876_45241)"/>
<mask id="path-7-outside-4_5876_45241" maskUnits="userSpaceOnUse" x="30.0088" y="45.2556" width="24" height="4" fill="black">
<rect fill="white" x="30.0088" y="45.2556" width="24" height="4"/>
<path d="M31.322 46.0632C31.1184 46.2668 31.0088 46.58 31.0088 47.0028C31.0088 47.4256 31.1184 47.7388 31.322 47.9424C31.6352 48.2556 31.8388 48.2556 42.2838 48.2556C52.7289 48.2556 52.9325 48.2556 53.2457 47.9424C53.4492 47.7388 53.5589 47.4256 53.5589 47.0028C53.5589 46.58 53.4492 46.2668 53.2457 46.0632C52.9325 45.7501 52.7289 45.7501 42.2838 45.7501C31.8388 45.7501 31.6352 45.7501 31.322 46.0632Z"/>
</mask>
<path d="M31.322 46.0632C31.1184 46.2668 31.0088 46.58 31.0088 47.0028C31.0088 47.4256 31.1184 47.7388 31.322 47.9424C31.6352 48.2556 31.8388 48.2556 42.2838 48.2556C52.7289 48.2556 52.9325 48.2556 53.2457 47.9424C53.4492 47.7388 53.5589 47.4256 53.5589 47.0028C53.5589 46.58 53.4492 46.2668 53.2457 46.0632C52.9325 45.7501 52.7289 45.7501 42.2838 45.7501C31.8388 45.7501 31.6352 45.7501 31.322 46.0632Z" fill="#0B2D1F"/>
<path d="M31.322 46.0632C31.1184 46.2668 31.0088 46.58 31.0088 47.0028C31.0088 47.4256 31.1184 47.7388 31.322 47.9424C31.6352 48.2556 31.8388 48.2556 42.2838 48.2556C52.7289 48.2556 52.9325 48.2556 53.2457 47.9424C53.4492 47.7388 53.5589 47.4256 53.5589 47.0028C53.5589 46.58 53.4492 46.2668 53.2457 46.0632C52.9325 45.7501 52.7289 45.7501 42.2838 45.7501C31.8388 45.7501 31.6352 45.7501 31.322 46.0632Z" stroke="#0B2D1F" stroke-width="0.2" mask="url(#path-7-outside-4_5876_45241)"/>
<mask id="path-8-outside-5_5876_45241" maskUnits="userSpaceOnUse" x="17.481" y="50.267" width="9" height="4" fill="black">
<rect fill="white" x="17.481" y="50.267" width="9" height="4"/>
<path d="M18.7942 51.0746C18.5906 51.2782 18.481 51.5914 18.481 52.0142C18.481 52.437 18.5906 52.7502 18.7942 52.9538C19.0917 53.2513 19.311 53.267 22.2394 53.267C25.1677 53.267 25.387 53.2513 25.6845 52.9538C25.8881 52.7502 25.9977 52.437 25.9977 52.0142C25.9977 51.5914 25.8881 51.2782 25.6845 51.0746C25.387 50.7771 25.1677 50.7614 22.2394 50.7614C19.311 50.7614 19.0917 50.7771 18.7942 51.0746Z"/>
</mask>
<path d="M18.7942 51.0746C18.5906 51.2782 18.481 51.5914 18.481 52.0142C18.481 52.437 18.5906 52.7502 18.7942 52.9538C19.0917 53.2513 19.311 53.267 22.2394 53.267C25.1677 53.267 25.387 53.2513 25.6845 52.9538C25.8881 52.7502 25.9977 52.437 25.9977 52.0142C25.9977 51.5914 25.8881 51.2782 25.6845 51.0746C25.387 50.7771 25.1677 50.7614 22.2394 50.7614C19.311 50.7614 19.0917 50.7771 18.7942 51.0746Z" fill="#0B2D1F"/>
<path d="M18.7942 51.0746C18.5906 51.2782 18.481 51.5914 18.481 52.0142C18.481 52.437 18.5906 52.7502 18.7942 52.9538C19.0917 53.2513 19.311 53.267 22.2394 53.267C25.1677 53.267 25.387 53.2513 25.6845 52.9538C25.8881 52.7502 25.9977 52.437 25.9977 52.0142C25.9977 51.5914 25.8881 51.2782 25.6845 51.0746C25.387 50.7771 25.1677 50.7614 22.2394 50.7614C19.311 50.7614 19.0917 50.7771 18.7942 51.0746Z" stroke="#0B2D1F" stroke-width="0.2" mask="url(#path-8-outside-5_5876_45241)"/>
<mask id="path-9-outside-6_5876_45241" maskUnits="userSpaceOnUse" x="30.0088" y="50.267" width="24" height="4" fill="black">
<rect fill="white" x="30.0088" y="50.267" width="24" height="4"/>
<path d="M31.322 51.0746C31.1184 51.2782 31.0088 51.5914 31.0088 52.0142C31.0088 52.437 31.1184 52.7502 31.322 52.9538C31.6352 53.267 31.8388 53.267 42.2838 53.267C52.7289 53.267 52.9325 53.267 53.2457 52.9538C53.4492 52.7502 53.5589 52.437 53.5589 52.0142C53.5589 51.5914 53.4492 51.2782 53.2457 51.0746C52.9325 50.7614 52.7289 50.7614 42.2838 50.7614C31.8388 50.7614 31.6352 50.7614 31.322 51.0746Z"/>
</mask>
<path d="M31.322 51.0746C31.1184 51.2782 31.0088 51.5914 31.0088 52.0142C31.0088 52.437 31.1184 52.7502 31.322 52.9538C31.6352 53.267 31.8388 53.267 42.2838 53.267C52.7289 53.267 52.9325 53.267 53.2457 52.9538C53.4492 52.7502 53.5589 52.437 53.5589 52.0142C53.5589 51.5914 53.4492 51.2782 53.2457 51.0746C52.9325 50.7614 52.7289 50.7614 42.2838 50.7614C31.8388 50.7614 31.6352 50.7614 31.322 51.0746Z" fill="#0B2D1F"/>
<path d="M31.322 51.0746C31.1184 51.2782 31.0088 51.5914 31.0088 52.0142C31.0088 52.437 31.1184 52.7502 31.322 52.9538C31.6352 53.267 31.8388 53.267 42.2838 53.267C52.7289 53.267 52.9325 53.267 53.2457 52.9538C53.4492 52.7502 53.5589 52.437 53.5589 52.0142C53.5589 51.5914 53.4492 51.2782 53.2457 51.0746C52.9325 50.7614 52.7289 50.7614 42.2838 50.7614C31.8388 50.7614 31.6352 50.7614 31.322 51.0746Z" stroke="#0B2D1F" stroke-width="0.2" mask="url(#path-9-outside-6_5876_45241)"/>
<mask id="path-10-outside-7_5876_45241" maskUnits="userSpaceOnUse" x="17.481" y="55.2777" width="9" height="4" fill="black">
<rect fill="white" x="17.481" y="55.2777" width="9" height="4"/>
<path d="M18.7942 56.0853C18.5906 56.2889 18.481 56.6021 18.481 57.0249C18.481 57.4477 18.5906 57.7609 18.7942 57.9645C19.0917 58.2621 19.311 58.2777 22.2394 58.2777C25.1677 58.2777 25.387 58.2621 25.6845 57.9645C25.8881 57.7609 25.9977 57.4477 25.9977 57.0249C25.9977 56.6021 25.8881 56.2889 25.6845 56.0853C25.387 55.7878 25.1677 55.7721 22.2394 55.7721C19.311 55.7721 19.0917 55.7878 18.7942 56.0853Z"/>
</mask>
<path d="M18.7942 56.0853C18.5906 56.2889 18.481 56.6021 18.481 57.0249C18.481 57.4477 18.5906 57.7609 18.7942 57.9645C19.0917 58.2621 19.311 58.2777 22.2394 58.2777C25.1677 58.2777 25.387 58.2621 25.6845 57.9645C25.8881 57.7609 25.9977 57.4477 25.9977 57.0249C25.9977 56.6021 25.8881 56.2889 25.6845 56.0853C25.387 55.7878 25.1677 55.7721 22.2394 55.7721C19.311 55.7721 19.0917 55.7878 18.7942 56.0853Z" fill="#0B2D1F"/>
<path d="M18.7942 56.0853C18.5906 56.2889 18.481 56.6021 18.481 57.0249C18.481 57.4477 18.5906 57.7609 18.7942 57.9645C19.0917 58.2621 19.311 58.2777 22.2394 58.2777C25.1677 58.2777 25.387 58.2621 25.6845 57.9645C25.8881 57.7609 25.9977 57.4477 25.9977 57.0249C25.9977 56.6021 25.8881 56.2889 25.6845 56.0853C25.387 55.7878 25.1677 55.7721 22.2394 55.7721C19.311 55.7721 19.0917 55.7878 18.7942 56.0853Z" stroke="#0B2D1F" stroke-width="0.2" mask="url(#path-10-outside-7_5876_45241)"/>
<mask id="path-11-outside-8_5876_45241" maskUnits="userSpaceOnUse" x="30.0088" y="55.2777" width="24" height="4" fill="black">
<rect fill="white" x="30.0088" y="55.2777" width="24" height="4"/>
<path d="M31.322 56.0853C31.1184 56.2889 31.0088 56.6021 31.0088 57.0249C31.0088 57.4477 31.1184 57.7609 31.322 57.9645C31.6352 58.2777 31.8388 58.2777 42.2838 58.2777C52.7289 58.2777 52.9325 58.2777 53.2457 57.9645C53.4492 57.7609 53.5589 57.4477 53.5589 57.0249C53.5589 56.6021 53.4492 56.2889 53.2457 56.0853C52.9325 55.7721 52.7289 55.7721 42.2838 55.7721C31.8388 55.7721 31.6352 55.7721 31.322 56.0853Z"/>
</mask>
<path d="M31.322 56.0853C31.1184 56.2889 31.0088 56.6021 31.0088 57.0249C31.0088 57.4477 31.1184 57.7609 31.322 57.9645C31.6352 58.2777 31.8388 58.2777 42.2838 58.2777C52.7289 58.2777 52.9325 58.2777 53.2457 57.9645C53.4492 57.7609 53.5589 57.4477 53.5589 57.0249C53.5589 56.6021 53.4492 56.2889 53.2457 56.0853C52.9325 55.7721 52.7289 55.7721 42.2838 55.7721C31.8388 55.7721 31.6352 55.7721 31.322 56.0853Z" fill="#0B2D1F"/>
<path d="M31.322 56.0853C31.1184 56.2889 31.0088 56.6021 31.0088 57.0249C31.0088 57.4477 31.1184 57.7609 31.322 57.9645C31.6352 58.2777 31.8388 58.2777 42.2838 58.2777C52.7289 58.2777 52.9325 58.2777 53.2457 57.9645C53.4492 57.7609 53.5589 57.4477 53.5589 57.0249C53.5589 56.6021 53.4492 56.2889 53.2457 56.0853C52.9325 55.7721 52.7289 55.7721 42.2838 55.7721C31.8388 55.7721 31.6352 55.7721 31.322 56.0853Z" stroke="#0B2D1F" stroke-width="0.2" mask="url(#path-11-outside-8_5876_45241)"/>
</svg>
