<svg width="72" height="72" viewBox="0 0 72 72" fill="none" xmlns="http://www.w3.org/2000/svg">
<path d="M62.8907 68C48.4579 68 34.0251 68 19.5924 68C19.1448 67.9234 18.6973 67.8402 18.2481 67.7704C10.9576 66.6224 4.8285 60.4982 4.173 52.5057C3.57572 45.2087 7.81821 38.2676 14.6994 35.5491C16.0936 34.9984 17.5826 34.6889 19.0916 34.2481C19.0916 34.1017 19.0916 33.8538 19.0916 33.6059C19.0916 25.7664 19.0899 17.9286 19.0916 10.0892C19.0916 6.4839 21.4624 4.11309 25.066 4.11309C34.3612 4.11143 43.6548 4.11809 52.95 4.10145C53.8001 4.09978 54.4556 4.36432 55.0546 4.96658C58.9809 8.91958 62.9223 12.8609 66.8753 16.7873C67.4942 17.4012 67.767 18.07 67.7654 18.9468C67.7454 27.139 67.7537 35.3311 67.7537 43.525C67.7537 49.7623 67.7671 56.0012 67.7471 62.2385C67.7388 64.7258 66.5675 66.5126 64.3032 67.5508C63.859 67.7554 63.3632 67.8536 62.8907 68ZM22.8366 34.4078C25.9195 34.7938 28.623 35.8752 31.0571 37.6587C31.3615 37.8816 31.7991 38.0364 32.1751 38.0364C38.9115 38.058 45.6479 38.053 52.386 38.053C53.9865 38.053 55.5886 38.0364 57.1891 38.0613C58.1674 38.0763 58.936 38.8266 59.0175 39.7716C59.0957 40.6833 58.4752 41.5335 57.5501 41.7431C57.2906 41.8014 57.0144 41.7947 56.7449 41.7947C49.7589 41.798 42.773 41.7964 35.7853 41.7964C35.5508 41.7964 35.3145 41.7964 34.9685 41.7964C36.5041 44.1539 37.3825 46.6095 37.7119 49.2831C38.0197 49.2831 38.266 49.2831 38.5139 49.2831C43.8161 49.2831 49.1184 49.2831 54.4207 49.2831C55.3557 49.2831 56.2924 49.2615 57.2274 49.2914C58.1724 49.323 58.9227 50.0567 59.0159 50.9784C59.1041 51.8669 58.5301 52.7037 57.63 52.9433C57.3555 53.0165 57.056 53.0215 56.7682 53.0215C50.6557 53.0265 44.5415 53.0248 38.429 53.0248C38.1894 53.0248 37.9498 53.0248 37.7103 53.0248C37.4308 55.2609 36.7952 57.2906 35.7621 59.1922C34.7206 61.1055 33.338 62.7426 31.5528 64.2549C31.8956 64.2549 32.0736 64.2549 32.2499 64.2549C42.1058 64.2549 51.9617 64.2549 61.8176 64.2549C63.3033 64.2549 64.0137 63.5312 64.0137 62.0222C64.0137 48.3614 64.0137 34.7006 64.0137 21.0398C64.0137 20.8185 64.0137 20.5972 64.0137 20.3327C63.7126 20.3327 63.488 20.3327 63.2634 20.3327C60.0823 20.3327 56.9013 20.3344 53.7203 20.3327C52.2628 20.3327 51.5375 19.609 51.5375 18.1516C51.5358 14.9489 51.5375 11.7479 51.5375 8.54525C51.5375 8.32563 51.5375 8.10602 51.5375 7.8548C51.243 7.8548 51.0383 7.8548 50.832 7.8548C42.2439 7.8548 33.6575 7.8548 25.0693 7.8548C23.5337 7.8548 22.8383 8.55856 22.8383 10.1125C22.8383 17.9719 22.8383 25.8313 22.8383 33.6907C22.8366 33.9186 22.8366 34.1432 22.8366 34.4078ZM20.9633 64.2566C28.1755 64.2583 34.0584 58.382 34.0667 51.1714C34.075 43.9575 28.2071 38.068 20.9982 38.0547C13.756 38.0413 7.8598 43.9293 7.86479 51.1698C7.86979 58.377 13.751 64.2549 20.9633 64.2566ZM55.3241 10.6598C55.3241 12.6463 55.3241 14.6029 55.3241 16.5378C57.3205 16.5378 59.2704 16.5378 61.182 16.5378C59.2305 14.5796 57.2889 12.6313 55.3241 10.6598Z" fill="#0B2D1F"/>
<path d="M22.8366 34.4078C25.9195 34.7938 28.623 35.8752 31.0571 37.6587C31.3615 37.8816 31.7991 38.0364 32.1751 38.0364C38.9115 38.058 45.6479 38.053 52.386 38.053C53.9865 38.053 55.5886 38.0364 57.1891 38.0613C58.1674 38.0763 58.936 38.8266 59.0175 39.7716C59.0957 40.6833 58.4752 41.5335 57.5501 41.7431C57.2906 41.8014 57.0144 41.7947 56.7449 41.7947C49.7589 41.798 42.773 41.7964 35.7853 41.7964H34.9685C36.5041 44.1539 37.3825 46.6095 37.7119 49.2831H38.5139H54.4207C55.3557 49.2831 56.2924 49.2615 57.2274 49.2914C58.1724 49.323 58.9227 50.0567 59.0159 50.9784C59.1041 51.8669 58.5301 52.7037 57.63 52.9433C57.3555 53.0165 57.056 53.0215 56.7682 53.0215C50.6557 53.0265 44.5415 53.0248 38.429 53.0248H37.7103C37.4308 55.2609 36.7952 57.2906 35.7621 59.1922C34.7206 61.1055 33.338 62.7426 31.5528 64.2549H32.2499H61.8176C63.3033 64.2549 64.0137 63.5312 64.0137 62.0222V21.0398V20.3327H63.2634C60.0823 20.3327 56.9013 20.3344 53.7203 20.3327C52.2628 20.3327 51.5375 19.609 51.5375 18.1516C51.5358 14.9489 51.5375 11.7479 51.5375 8.54525V7.8548H50.832H25.0693C23.5337 7.8548 22.8383 8.55856 22.8383 10.1125V33.6907C22.8366 33.9186 22.8366 34.1432 22.8366 34.4078Z" fill="#22885E"/>
<path d="M55.3241 10.6598V16.5378H61.182L55.3241 10.6598Z" fill="#62C89E"/>
<path d="M20.9633 64.2566C28.1755 64.2583 34.0584 58.382 34.0667 51.1714C34.075 43.9575 28.2071 38.068 20.9982 38.0547C13.756 38.0413 7.8598 43.9293 7.86479 51.1698C7.86979 58.377 13.751 64.2549 20.9633 64.2566Z" fill="#CBEDDF"/>
<path d="M43.4319 30.5663C38.9016 30.5663 34.3729 30.5713 29.8426 30.563C28.3802 30.5613 27.4352 29.2553 27.9759 27.9909C28.312 27.2056 28.9425 26.8246 29.796 26.8246C31.2717 26.8229 32.7475 26.8246 34.2215 26.8246C41.8064 26.8246 49.3897 26.8229 56.9746 26.8263C58.4752 26.8279 59.4335 28.1456 58.8612 29.4283C58.5019 30.2336 57.833 30.573 56.9579 30.5713C53.0931 30.5646 49.2283 30.568 45.3635 30.568C44.7196 30.5663 44.0757 30.5663 43.4319 30.5663Z" fill="#0B2D1F"/>
<path d="M18.53 54.1179C19.7282 52.7497 20.8348 51.4864 21.9414 50.2215C23.5313 48.405 25.1195 46.5884 26.7094 44.7719C26.7911 44.6786 26.8727 44.5819 26.9594 44.4936C27.536 43.9019 28.2876 43.837 28.8526 44.3269C29.4275 44.8252 29.4792 45.6385 28.9326 46.2768C27.8777 47.51 26.8011 48.7233 25.7311 49.9449C23.7846 52.168 21.8414 54.3929 19.8915 56.6127C19.0683 57.551 18.35 57.5727 17.4684 56.6927C15.8468 55.0762 14.2236 53.463 12.6187 51.8314C12.3787 51.5881 12.1554 51.2814 12.0537 50.9631C11.8737 50.3998 12.1637 49.8082 12.6587 49.5199C13.177 49.2183 13.8236 49.2966 14.3152 49.7799C15.4885 50.9298 16.6484 52.0964 17.805 53.2646C18.0517 53.513 18.2616 53.8013 18.53 54.1179Z" fill="#0B2D1F" stroke="#0B2D1F"/>
</svg>
