<svg width="72" height="72" viewBox="0 0 72 72" fill="none" xmlns="http://www.w3.org/2000/svg">
<path d="M62.8907 68C48.4579 68 34.0251 68 19.5924 68C19.1448 67.9234 18.6973 67.8402 18.2481 67.7704C10.9576 66.6224 4.8285 60.4982 4.173 52.5057C3.57572 45.2087 7.81821 38.2676 14.6994 35.5491C16.0936 34.9984 17.5826 34.6889 19.0916 34.2481C19.0916 34.1017 19.0916 33.8538 19.0916 33.6059C19.0916 25.7664 19.0899 17.9286 19.0916 10.0892C19.0916 6.4839 21.4624 4.11309 25.066 4.11309C34.3612 4.11143 43.6548 4.11809 52.95 4.10145C53.8001 4.09978 54.4556 4.36432 55.0546 4.96658C58.9809 8.91958 62.9223 12.8609 66.8753 16.7873C67.4942 17.4012 67.767 18.07 67.7654 18.9468C67.7454 27.139 67.7537 35.3311 67.7537 43.525C67.7537 49.7623 67.7671 56.0012 67.7471 62.2385C67.7388 64.7258 66.5675 66.5126 64.3032 67.5508C63.859 67.7554 63.3632 67.8536 62.8907 68ZM22.8366 34.4078C25.9195 34.7938 28.623 35.8752 31.0571 37.6587C31.3615 37.8816 31.7991 38.0364 32.1751 38.0364C38.9115 38.058 45.6479 38.053 52.386 38.053C53.9865 38.053 55.5886 38.0364 57.1891 38.0613C58.1674 38.0763 58.936 38.8266 59.0175 39.7716C59.0957 40.6833 58.4752 41.5335 57.5501 41.7431C57.2906 41.8014 57.0144 41.7947 56.7449 41.7947C49.7589 41.798 42.773 41.7964 35.7853 41.7964C35.5508 41.7964 35.3145 41.7964 34.9685 41.7964C36.5041 44.1539 37.3825 46.6095 37.7119 49.2831C38.0197 49.2831 38.266 49.2831 38.5139 49.2831C43.8161 49.2831 49.1184 49.2831 54.4207 49.2831C55.3557 49.2831 56.2924 49.2615 57.2274 49.2914C58.1724 49.323 58.9227 50.0567 59.0159 50.9784C59.1041 51.8669 58.5301 52.7037 57.63 52.9433C57.3555 53.0165 57.056 53.0215 56.7682 53.0215C50.6557 53.0265 44.5415 53.0248 38.429 53.0248C38.1894 53.0248 37.9498 53.0248 37.7103 53.0248C37.4308 55.2609 36.7952 57.2906 35.7621 59.1922C34.7206 61.1055 33.338 62.7426 31.5528 64.2549C31.8956 64.2549 32.0736 64.2549 32.2499 64.2549C42.1058 64.2549 51.9617 64.2549 61.8176 64.2549C63.3033 64.2549 64.0137 63.5312 64.0137 62.0222C64.0137 48.3614 64.0137 34.7006 64.0137 21.0398C64.0137 20.8185 64.0137 20.5972 64.0137 20.3327C63.7126 20.3327 63.488 20.3327 63.2634 20.3327C60.0823 20.3327 56.9013 20.3344 53.7203 20.3327C52.2628 20.3327 51.5375 19.609 51.5375 18.1516C51.5358 14.9489 51.5375 11.7479 51.5375 8.54525C51.5375 8.32563 51.5375 8.10602 51.5375 7.8548C51.243 7.8548 51.0383 7.8548 50.832 7.8548C42.2439 7.8548 33.6575 7.8548 25.0693 7.8548C23.5337 7.8548 22.8383 8.55856 22.8383 10.1125C22.8383 17.9719 22.8383 25.8313 22.8383 33.6907C22.8366 33.9186 22.8366 34.1432 22.8366 34.4078ZM20.9633 64.2566C28.1755 64.2583 34.0584 58.382 34.0667 51.1714C34.075 43.9575 28.2071 38.068 20.9982 38.0547C13.756 38.0413 7.8598 43.9293 7.86479 51.1698C7.86979 58.377 13.751 64.2549 20.9633 64.2566ZM55.3241 10.6598C55.3241 12.6463 55.3241 14.6029 55.3241 16.5378C57.3205 16.5378 59.2704 16.5378 61.182 16.5378C59.2305 14.5796 57.2889 12.6313 55.3241 10.6598Z" fill="#0B2D1F"/>
<path d="M22.8366 34.4078C25.9195 34.7938 28.623 35.8752 31.0571 37.6587C31.3615 37.8816 31.7991 38.0364 32.1751 38.0364C38.9115 38.058 45.6479 38.053 52.386 38.053C53.9865 38.053 55.5886 38.0364 57.1891 38.0613C58.1674 38.0763 58.936 38.8266 59.0175 39.7716C59.0957 40.6833 58.4752 41.5335 57.5501 41.7431C57.2906 41.8014 57.0144 41.7947 56.7449 41.7947C49.7589 41.798 42.773 41.7964 35.7853 41.7964H34.9685C36.5041 44.1539 37.3825 46.6095 37.7119 49.2831H38.5139H54.4207C55.3557 49.2831 56.2924 49.2615 57.2274 49.2914C58.1724 49.323 58.9227 50.0567 59.0159 50.9784C59.1041 51.8669 58.5301 52.7037 57.63 52.9433C57.3555 53.0165 57.056 53.0215 56.7682 53.0215C50.6557 53.0265 44.5415 53.0248 38.429 53.0248H37.7103C37.4308 55.2609 36.7952 57.2906 35.7621 59.1922C34.7206 61.1055 33.338 62.7426 31.5528 64.2549H32.2499H61.8176C63.3033 64.2549 64.0137 63.5312 64.0137 62.0222V21.0398V20.3327H63.2634C60.0823 20.3327 56.9013 20.3344 53.7203 20.3327C52.2628 20.3327 51.5375 19.609 51.5375 18.1516C51.5358 14.9489 51.5375 11.7479 51.5375 8.54525V7.8548H50.832H25.0693C23.5337 7.8548 22.8383 8.55856 22.8383 10.1125V33.6907C22.8366 33.9186 22.8366 34.1432 22.8366 34.4078Z" fill="#22885E"/>
<path d="M55.3241 10.6598V16.5378H61.182L55.3241 10.6598Z" fill="#62C89E"/>
<path d="M20.9633 64.2566C28.1755 64.2583 34.0584 58.382 34.0667 51.1714C34.075 43.9575 28.2071 38.068 20.9982 38.0547C13.756 38.0413 7.8598 43.9293 7.86479 51.1698C7.86979 58.377 13.751 64.2549 20.9633 64.2566Z" fill="#CBEDDF"/>
<path d="M43.4319 30.5663C38.9016 30.5663 34.3729 30.5713 29.8426 30.5629C28.3802 30.5613 27.4352 29.2553 27.9759 27.9908C28.312 27.2056 28.9425 26.8246 29.796 26.8246C31.2717 26.8229 32.7475 26.8246 34.2215 26.8246C41.8064 26.8246 49.3897 26.8229 56.9746 26.8262C58.4752 26.8279 59.4335 28.1456 58.8612 29.4283C58.5019 30.2335 57.833 30.5729 56.9579 30.5713C53.0931 30.5646 49.2283 30.5679 45.3635 30.5679C44.7196 30.5663 44.0757 30.5663 43.4319 30.5663Z" fill="#0B2D1F"/>
<path d="M25.7534 54.3874C25.7534 55.4536 25.4067 56.3718 24.7133 57.1418C24.0199 57.9119 23.1191 58.3875 22.0111 58.5687V60.3981C22.0111 60.4957 21.9797 60.5758 21.917 60.6385C21.8543 60.7012 21.7741 60.7326 21.6766 60.7326H20.2653C20.1747 60.7326 20.0963 60.6995 20.0301 60.6333C19.9639 60.5671 19.9308 60.4887 19.9308 60.3981V58.5687C19.4709 58.506 19.0266 58.398 18.598 58.2447C18.1694 58.0914 17.8157 57.9363 17.537 57.7795C17.2582 57.6227 17.0004 57.4554 16.7634 57.2777C16.5265 57.1 16.3645 56.9694 16.2773 56.8857C16.1902 56.8021 16.1293 56.7394 16.0944 56.6976C15.9759 56.5512 15.969 56.4084 16.0735 56.269L17.1502 54.8578C17.199 54.7881 17.2791 54.7463 17.3906 54.7323C17.4952 54.7184 17.5788 54.7497 17.6415 54.8264L17.6624 54.8473C18.4499 55.5372 19.2967 55.9728 20.2026 56.154C20.4605 56.2097 20.7183 56.2376 20.9762 56.2376C21.5407 56.2376 22.0372 56.0878 22.4658 55.7881C22.8944 55.4885 23.1087 55.0633 23.1087 54.5128C23.1087 54.3177 23.0564 54.133 22.9519 53.9588C22.8473 53.7845 22.7306 53.6382 22.6017 53.5197C22.4728 53.4012 22.2689 53.2706 21.9902 53.1277C21.7114 52.9848 21.4814 52.8733 21.3002 52.7932C21.119 52.7131 20.8403 52.5998 20.464 52.4535C20.1922 52.342 19.9779 52.2548 19.8211 52.1921C19.6643 52.1294 19.45 52.0371 19.1782 51.9151C18.9064 51.7932 18.6886 51.6851 18.5248 51.5911C18.3611 51.497 18.1642 51.3733 17.9342 51.22C17.7042 51.0666 17.5178 50.9185 17.375 50.7757C17.2321 50.6328 17.0805 50.4621 16.9202 50.2635C16.7599 50.0648 16.6362 49.8627 16.5491 49.6572C16.462 49.4516 16.3888 49.2199 16.3296 48.962C16.2704 48.7042 16.2408 48.4324 16.2408 48.1466C16.2408 47.1849 16.5822 46.3417 17.2652 45.6169C17.9482 44.8921 18.8367 44.4252 19.9308 44.2161V42.3345C19.9308 42.2439 19.9639 42.1655 20.0301 42.0993C20.0963 42.0331 20.1747 42 20.2653 42H21.6766C21.7741 42 21.8543 42.0314 21.917 42.0941C21.9797 42.1568 22.0111 42.2369 22.0111 42.3345V44.1743C22.4083 44.2161 22.7933 44.2963 23.1662 44.4148C23.539 44.5332 23.8422 44.65 24.0756 44.7649C24.3091 44.8799 24.5304 45.0106 24.7394 45.1569C24.9485 45.3033 25.0844 45.4043 25.1471 45.4601C25.2098 45.5158 25.2621 45.5646 25.3039 45.6064C25.4224 45.7319 25.4398 45.8643 25.3562 46.0037L24.5094 47.5299C24.4537 47.6344 24.3736 47.6902 24.269 47.6971C24.1714 47.718 24.0774 47.6937 23.9868 47.624C23.9659 47.6031 23.9153 47.5612 23.8352 47.4985C23.7551 47.4358 23.6192 47.3435 23.4275 47.2215C23.2359 47.0995 23.032 46.988 22.816 46.887C22.5999 46.7859 22.3404 46.6953 22.0372 46.6152C21.7341 46.5351 21.4361 46.495 21.1434 46.495C20.4814 46.495 19.9413 46.6448 19.5231 46.9445C19.105 47.2442 18.8959 47.6309 18.8959 48.1048C18.8959 48.286 18.9256 48.4533 18.9848 48.6066C19.044 48.7599 19.1468 48.9045 19.2932 49.0404C19.4395 49.1763 19.5772 49.2913 19.7061 49.3854C19.835 49.4795 20.0301 49.5875 20.2915 49.7094C20.5528 49.8314 20.7636 49.9255 20.9239 49.9917C21.0842 50.0579 21.3281 50.1537 21.6556 50.2791C22.025 50.4185 22.3072 50.5283 22.5024 50.6084C22.6975 50.6886 22.9623 50.8105 23.2968 50.9743C23.6314 51.1381 23.8944 51.2862 24.0861 51.4186C24.2777 51.551 24.4938 51.7252 24.7342 51.9412C24.9746 52.1573 25.1593 52.3785 25.2882 52.605C25.4172 52.8315 25.5269 53.0981 25.6175 53.4047C25.7081 53.7114 25.7534 54.0389 25.7534 54.3874Z" fill="#0B2D1F"/>
</svg>
