<?xml version="1.0" encoding="utf-8"?><!-- Generator: Adobe Illustrator 22.1.0, SVG Export Plug-In . SVG Version: 6.00 Build 0)  --><svg version="1.1" id="Layer_1" xmlns="http://www.w3.org/2000/svg" xmlns:xlink="http://www.w3.org/1999/xlink" x="0px" y="0px"	 viewBox="0 0 64 64" style="enable-background:new 0 0 64 64;" xml:space="preserve"><style type="text/css">	.st0{fill:url(#SVGID_1_);}	.st1{fill:url(#SVGID_2_);}	.st2{fill:url(#SVGID_3_);}	.st3{fill:url(#SVGID_4_);}	.st4{fill:url(#SVGID_5_);}	.st5{fill:url(#SVGID_6_);}	.st6{fill:url(#SVGID_7_);}	.st7{fill:url(#SVGID_8_);}	.st8{fill:url(#SVGID_9_);}	.st9{fill:url(#SVGID_10_);}	.st10{fill:url(#SVGID_11_);}	.st11{fill:url(#SVGID_12_);}	.st12{fill:url(#SVGID_13_);}	.st13{fill:url(#SVGID_14_);}	.st14{fill:url(#SVGID_15_);}	.st15{fill:url(#SVGID_16_);}	.st16{fill:url(#SVGID_17_);}	.st17{fill:url(#SVGID_18_);}	.st18{fill:url(#SVGID_19_);}	.st19{fill:url(#SVGID_20_);}	.st20{fill:url(#SVGID_21_);}</style><linearGradient id="SVGID_1_" gradientUnits="userSpaceOnUse" x1="32" y1="63.7233" x2="32" y2="0.5965" gradientTransform="matrix(1 0 0 -1 0 63.89)">	<stop  offset="0" style="stop-color:#2AB793"/>	<stop  offset="1" style="stop-color:#2C98B5"/></linearGradient><rect x="27" y="8" class="st0" width="10" height="2"/><linearGradient id="SVGID_2_" gradientUnits="userSpaceOnUse" x1="21.5" y1="63.7233" x2="21.5" y2="0.5965" gradientTransform="matrix(1 0 0 -1 0 63.89)">	<stop  offset="0" style="stop-color:#2AB793"/>	<stop  offset="1" style="stop-color:#2C98B5"/></linearGradient><path class="st1" d="M26,13h-9v6h9V13z M24,17h-5v-2h5V17z"/><linearGradient id="SVGID_3_" gradientUnits="userSpaceOnUse" x1="32.5" y1="63.7233" x2="32.5" y2="0.5965" gradientTransform="matrix(1 0 0 -1 0 63.89)">	<stop  offset="0" style="stop-color:#2AB793"/>	<stop  offset="1" style="stop-color:#2C98B5"/></linearGradient><rect x="28" y="15" class="st2" width="9" height="2"/><linearGradient id="SVGID_4_" gradientUnits="userSpaceOnUse" x1="21.5" y1="63.7233" x2="21.5" y2="0.5965" gradientTransform="matrix(1 0 0 -1 0 63.89)">	<stop  offset="0" style="stop-color:#2AB793"/>	<stop  offset="1" style="stop-color:#2C98B5"/></linearGradient><path class="st3" d="M26,21h-9v6h9V21z M24,25h-5v-2h5V25z"/><linearGradient id="SVGID_5_" gradientUnits="userSpaceOnUse" x1="32.5" y1="63.7233" x2="32.5" y2="0.5965" gradientTransform="matrix(1 0 0 -1 0 63.89)">	<stop  offset="0" style="stop-color:#2AB793"/>	<stop  offset="1" style="stop-color:#2C98B5"/></linearGradient><rect x="28" y="23" class="st4" width="9" height="2"/><linearGradient id="SVGID_6_" gradientUnits="userSpaceOnUse" x1="21.5" y1="63.7233" x2="21.5" y2="0.5965" gradientTransform="matrix(1 0 0 -1 0 63.89)">	<stop  offset="0" style="stop-color:#2AB793"/>	<stop  offset="1" style="stop-color:#2C98B5"/></linearGradient><path class="st5" d="M26,29h-9v6h9V29z M24,33h-5v-2h5V33z"/><linearGradient id="SVGID_7_" gradientUnits="userSpaceOnUse" x1="32.5" y1="63.7233" x2="32.5" y2="0.5965" gradientTransform="matrix(1 0 0 -1 0 63.89)">	<stop  offset="0" style="stop-color:#2AB793"/>	<stop  offset="1" style="stop-color:#2C98B5"/></linearGradient><rect x="28" y="31" class="st6" width="9" height="2"/><linearGradient id="SVGID_8_" gradientUnits="userSpaceOnUse" x1="21.5" y1="63.7233" x2="21.5" y2="0.5965" gradientTransform="matrix(1 0 0 -1 0 63.89)">	<stop  offset="0" style="stop-color:#2AB793"/>	<stop  offset="1" style="stop-color:#2C98B5"/></linearGradient><path class="st7" d="M26,37h-9v6h9V37z M24,41h-5v-2h5V41z"/><linearGradient id="SVGID_9_" gradientUnits="userSpaceOnUse" x1="32.5" y1="63.7233" x2="32.5" y2="0.5965" gradientTransform="matrix(1 0 0 -1 0 63.89)">	<stop  offset="0" style="stop-color:#2AB793"/>	<stop  offset="1" style="stop-color:#2C98B5"/></linearGradient><rect x="28" y="39" class="st8" width="9" height="2"/><linearGradient id="SVGID_10_" gradientUnits="userSpaceOnUse" x1="32" y1="63.7233" x2="32" y2="0.5965" gradientTransform="matrix(1 0 0 -1 0 63.89)">	<stop  offset="0" style="stop-color:#2AB793"/>	<stop  offset="1" style="stop-color:#2C98B5"/></linearGradient><rect x="17" y="45" class="st9" width="30" height="2"/><linearGradient id="SVGID_11_" gradientUnits="userSpaceOnUse" x1="20.5" y1="63.7233" x2="20.5" y2="0.5965" gradientTransform="matrix(1 0 0 -1 0 63.89)">	<stop  offset="0" style="stop-color:#2AB793"/>	<stop  offset="1" style="stop-color:#2C98B5"/></linearGradient><rect x="17" y="49" class="st10" width="7" height="2"/><linearGradient id="SVGID_12_" gradientUnits="userSpaceOnUse" x1="32.5" y1="63.7233" x2="32.5" y2="0.5965" gradientTransform="matrix(1 0 0 -1 0 63.89)">	<stop  offset="0" style="stop-color:#2AB793"/>	<stop  offset="1" style="stop-color:#2C98B5"/></linearGradient><rect x="27" y="49" class="st11" width="11" height="2"/><linearGradient id="SVGID_13_" gradientUnits="userSpaceOnUse" x1="40.5" y1="63.7233" x2="40.5" y2="0.5965" gradientTransform="matrix(1 0 0 -1 0 63.89)">	<stop  offset="0" style="stop-color:#2AB793"/>	<stop  offset="1" style="stop-color:#2C98B5"/></linearGradient><rect x="39" y="15" class="st12" width="3" height="2"/><linearGradient id="SVGID_14_" gradientUnits="userSpaceOnUse" x1="45.5" y1="63.7233" x2="45.5" y2="0.5965" gradientTransform="matrix(1 0 0 -1 0 63.89)">	<stop  offset="0" style="stop-color:#2AB793"/>	<stop  offset="1" style="stop-color:#2C98B5"/></linearGradient><rect x="44" y="15" class="st13" width="3" height="2"/><linearGradient id="SVGID_15_" gradientUnits="userSpaceOnUse" x1="40.5" y1="63.7233" x2="40.5" y2="0.5965" gradientTransform="matrix(1 0 0 -1 0 63.89)">	<stop  offset="0" style="stop-color:#2AB793"/>	<stop  offset="1" style="stop-color:#2C98B5"/></linearGradient><rect x="39" y="23" class="st14" width="3" height="2"/><linearGradient id="SVGID_16_" gradientUnits="userSpaceOnUse" x1="45.5" y1="63.7233" x2="45.5" y2="0.5965" gradientTransform="matrix(1 0 0 -1 0 63.89)">	<stop  offset="0" style="stop-color:#2AB793"/>	<stop  offset="1" style="stop-color:#2C98B5"/></linearGradient><rect x="44" y="23" class="st15" width="3" height="2"/><linearGradient id="SVGID_17_" gradientUnits="userSpaceOnUse" x1="40.5" y1="63.7233" x2="40.5" y2="0.5965" gradientTransform="matrix(1 0 0 -1 0 63.89)">	<stop  offset="0" style="stop-color:#2AB793"/>	<stop  offset="1" style="stop-color:#2C98B5"/></linearGradient><rect x="39" y="31" class="st16" width="3" height="2"/><linearGradient id="SVGID_18_" gradientUnits="userSpaceOnUse" x1="45.5" y1="63.7233" x2="45.5" y2="0.5965" gradientTransform="matrix(1 0 0 -1 0 63.89)">	<stop  offset="0" style="stop-color:#2AB793"/>	<stop  offset="1" style="stop-color:#2C98B5"/></linearGradient><rect x="44" y="31" class="st17" width="3" height="2"/><linearGradient id="SVGID_19_" gradientUnits="userSpaceOnUse" x1="40.5" y1="63.7233" x2="40.5" y2="0.5965" gradientTransform="matrix(1 0 0 -1 0 63.89)">	<stop  offset="0" style="stop-color:#2AB793"/>	<stop  offset="1" style="stop-color:#2C98B5"/></linearGradient><rect x="39" y="39" class="st18" width="3" height="2"/><linearGradient id="SVGID_20_" gradientUnits="userSpaceOnUse" x1="45.5" y1="63.7233" x2="45.5" y2="0.5965" gradientTransform="matrix(1 0 0 -1 0 63.89)">	<stop  offset="0" style="stop-color:#2AB793"/>	<stop  offset="1" style="stop-color:#2C98B5"/></linearGradient><rect x="44" y="39" class="st19" width="3" height="2"/><linearGradient id="SVGID_21_" gradientUnits="userSpaceOnUse" x1="32" y1="63.7233" x2="32" y2="0.5965" gradientTransform="matrix(1 0 0 -1 0 63.89)">	<stop  offset="0" style="stop-color:#2AB793"/>	<stop  offset="1" style="stop-color:#2C98B5"/></linearGradient><path class="st20" d="M50,2H14c-1.7,0-3,1.3-3,3v54c0,1.7,1.3,3,3,3h30.4l8.6-9.6V5C53,3.3,51.7,2,50,2z M51,51.6l-6,6.7V54	c0-0.6,0.4-1,1-1h2v-2h-2c-1.7,0-3,1.3-3,3v6H14c-0.6,0-1-0.4-1-1V5c0-0.6,0.4-1,1-1h36c0.6,0,1,0.4,1,1V51.6z"/></svg>