<svg width="48" height="48" viewBox="0 0 48 48" fill="none" xmlns="http://www.w3.org/2000/svg">
<path d="M39 7L36 4L33 7L30 4L27 7L24 4L21 7L18 4L15 7L12 4L9 7L6 4V44L9 41L12 44L15 41L18 44L21 41L24 44L26.52 41.48C26.18 40.36 26 39.18 26 38C26 36.64 26.24 35.28 26.68 34H14C12.8954 34 12 33.1046 12 32V32C12 30.8954 12.8954 30 14 30H29.06C30.6455 28.2271 32.7218 26.9651 35.0256 26.374C37.3294 25.7829 39.7568 25.8894 42 26.68V4L39 7ZM36 24C36 25.1046 35.1046 26 34 26H14C12.8954 26 12 25.1046 12 24V24C12 22.8954 12.8954 22 14 22H34C35.1046 22 36 22.8954 36 24V24ZM36 16C36 17.1046 35.1046 18 34 18H14C12.8954 18 12 17.1046 12 16V16C12 14.8954 12.8954 14 14 14H34C35.1046 14 36 14.8954 36 16V16ZM38 44V40H30V36H38V32L44 38L38 44Z" fill="#121212"/>
</svg>
