<svg width="48" height="48" viewBox="0 0 48 48" fill="none" xmlns="http://www.w3.org/2000/svg">
<path d="M36 14H12V8.00001C12 7.43334 12.192 6.95801 12.576 6.57401C12.96 6.19001 13.4347 5.99867 14 6.00001H34C34.5667 6.00001 35.042 6.19201 35.426 6.57601C35.81 6.96001 36.0013 7.43467 36 8.00001V14ZM36 25C36.5667 25 37.042 24.808 37.426 24.424C37.81 24.04 38.0013 23.5653 38 23C38 22.4333 37.808 21.958 37.424 21.574C37.04 21.19 36.5653 20.9987 36 21C35.4333 21 34.958 21.192 34.574 21.576C34.19 21.96 33.9987 22.4347 34 23C34 23.5667 34.192 24.042 34.576 24.426C34.96 24.81 35.4347 25.0013 36 25ZM16 38H32V30H16V38ZM16 42C14.9 42 13.958 41.608 13.174 40.824C12.39 40.04 11.9987 39.0987 12 38V34H6.00001C5.43334 34 4.95801 33.808 4.57401 33.424C4.19001 33.04 3.99867 32.5653 4.00001 32V22C4.00001 20.3 4.58334 18.8747 5.75001 17.724C6.91667 16.5733 8.33334 15.9987 10 16H38C39.7 16 41.1253 16.5753 42.276 17.726C43.4267 18.8767 44.0013 20.3013 44 22V32C44 32.5667 43.808 33.042 43.424 33.426C43.04 33.81 42.5653 34.0013 42 34H36V38C36 39.1 35.608 40.042 34.824 40.826C34.04 41.61 33.0987 42.0013 32 42H16Z" fill="#121212"/>
</svg>
