<svg width="48" height="48" viewBox="0 0 48 48" fill="none" xmlns="http://www.w3.org/2000/svg">
<path d="M19.3 8.7501C19.4989 8.40532 19.5527 7.99565 19.4495 7.6112C19.3464 7.22675 19.0947 6.89902 18.75 6.7001C18.4052 6.50119 17.9955 6.44739 17.611 6.55054C17.2266 6.65368 16.8989 6.90532 16.7 7.2501L13.38 13.0001H11C10.1311 13.0003 9.286 13.2833 8.59232 13.8064C7.89865 14.3295 7.39415 15.0643 7.15511 15.8996C6.91607 16.7349 6.95549 17.6253 7.2674 18.4361C7.57931 19.247 8.14676 19.9343 8.88395 20.3941C9.0001 20.465 9.13388 20.5017 9.26995 20.5001H38.73C38.866 20.5017 38.9998 20.465 39.116 20.3941C39.8531 19.9343 40.4206 19.247 40.7325 18.4361C41.0444 17.6253 41.0838 16.7349 40.8448 15.8996C40.6058 15.0643 40.1013 14.3295 39.4076 13.8064C38.7139 13.2833 37.8688 13.0003 37 13.0001H34.62L31.3 7.2501C31.2015 7.07939 31.0703 6.92974 30.914 6.80971C30.7577 6.68967 30.5792 6.60161 30.3889 6.55054C30.1985 6.49946 29.9999 6.48639 29.8045 6.51205C29.6091 6.53771 29.4207 6.60161 29.25 6.7001C29.0792 6.7986 28.9296 6.92975 28.8096 7.08607C28.6895 7.2424 28.6015 7.42084 28.5504 7.6112C28.4993 7.80156 28.4862 8.00011 28.5119 8.19553C28.5376 8.39094 28.6015 8.57939 28.7 8.7501L31.156 13.0001H16.846L19.3 8.7501Z" fill="#FFFFFF"/>
<path fill-rule="evenodd" clip-rule="evenodd" d="M38.6699 23.97C38.6801 23.9124 38.6776 23.8533 38.6625 23.7968C38.6475 23.7403 38.6202 23.6878 38.5826 23.643C38.545 23.5982 38.4981 23.5622 38.4451 23.5375C38.3921 23.5128 38.3344 23.5 38.2759 23.5H9.7239C9.66543 23.5 9.60767 23.5128 9.55468 23.5375C9.50168 23.5622 9.45476 23.5982 9.41719 23.643C9.37963 23.6878 9.35235 23.7403 9.33726 23.7968C9.32218 23.8533 9.31967 23.9124 9.3299 23.97L11.3299 35.366C11.5329 36.5218 12.0973 37.5834 12.9418 38.3981C13.7864 39.2128 14.8676 39.7387 16.0299 39.9C21.3179 40.636 26.6819 40.636 31.9699 39.9C33.1322 39.7387 34.2134 39.2128 35.058 38.3981C35.9026 37.5834 36.4669 36.5218 36.6699 35.366L38.6699 23.97ZM21.4999 28C21.4999 27.6022 21.3419 27.2206 21.0606 26.9393C20.7793 26.658 20.3977 26.5 19.9999 26.5C19.6021 26.5 19.2205 26.658 18.9392 26.9393C18.6579 27.2206 18.4999 27.6022 18.4999 28V32C18.4999 32.3978 18.6579 32.7794 18.9392 33.0607C19.2205 33.342 19.6021 33.5 19.9999 33.5C20.3977 33.5 20.7793 33.342 21.0606 33.0607C21.3419 32.7794 21.4999 32.3978 21.4999 32V28ZM27.9999 26.5C28.3977 26.5 28.7793 26.658 29.0606 26.9393C29.3419 27.2206 29.4999 27.6022 29.4999 28V32C29.4999 32.3978 29.3419 32.7794 29.0606 33.0607C28.7793 33.342 28.3977 33.5 27.9999 33.5C27.6021 33.5 27.2205 33.342 26.9392 33.0607C26.6579 32.7794 26.4999 32.3978 26.4999 32V28C26.4999 27.6022 26.6579 27.2206 26.9392 26.9393C27.2205 26.658 27.6021 26.5 27.9999 26.5Z" fill="#FFFFFF"/>
</svg>
