<svg xmlns="http://www.w3.org/2000/svg" xmlns:xlink="http://www.w3.org/1999/xlink" version="1.1" width="1000" height="1000" viewBox="0 0 1000 1000" xml:space="preserve">
<desc>Created with Fabric.js 3.5.0</desc>
<defs>
</defs>
<rect x="0" y="0" width="100%" height="100%" fill="#ffffff"/>
<g transform="matrix(22.7273 0 0 22.7273 500.0005 500.0004)" id="56891">
<path style="stroke: none; stroke-width: 1; stroke-dasharray: none; stroke-linecap: butt; stroke-dashoffset: 0; stroke-linejoin: miter; stroke-miterlimit: 4; is-custom-font: none; font-file-url: none; fill: rgb(20,143,139); fill-rule: nonzero; opacity: 1;" vector-effect="non-scaling-stroke" transform=" translate(-24, -24)" d="M 8 8 C 6.93913 8 5.92172 8.42143 5.17157 9.17157 C 4.42143 9.92172 4 10.9391 4 12 V 20 C 5.06087 20 6.07828 20.4214 6.82843 21.1716 C 7.57857 21.9217 8 22.9391 8 24 C 8 25.0609 7.57857 26.0783 6.82843 26.8284 C 6.07828 27.5786 5.06087 28 4 28 V 36 C 4 37.0609 4.42143 38.0783 5.17157 38.8284 C 5.92172 39.5786 6.93913 40 8 40 H 40 C 41.0609 40 42.0783 39.5786 42.8284 38.8284 C 43.5786 38.0783 44 37.0609 44 36 V 28 C 42.9391 28 41.9217 27.5786 41.1716 26.8284 C 40.4214 26.0783 40 25.0609 40 24 C 40 22.9391 40.4214 21.9217 41.1716 21.1716 C 41.9217 20.4214 42.9391 20 44 20 V 12 C 44 10.9391 43.5786 9.92172 42.8284 9.17157 C 42.0783 8.42143 41.0609 8 40 8 H 8 Z M 29.5 15.5 C 30.3284 14.6716 31.6716 14.6716 32.5 15.5 V 15.5 C 33.3284 16.3284 33.3284 17.6716 32.5 18.5 L 18.5 32.5 C 17.6716 33.3284 16.3284 33.3284 15.5 32.5 V 32.5 C 14.6716 31.6716 14.6716 30.3284 15.5 29.5 L 29.5 15.5 Z M 17.62 14.08 C 19.58 14.08 21.16 15.66 21.16 17.62 C 21.16 18.5589 20.787 19.4593 20.1232 20.1232 C 19.4593 20.787 18.5589 21.16 17.62 21.16 C 15.66 21.16 14.08 19.58 14.08 17.62 C 14.08 16.6811 14.453 15.7807 15.1168 15.1168 C 15.7807 14.453 16.6811 14.08 17.62 14.08 Z M 30.38 26.84 C 32.34 26.84 33.92 28.42 33.92 30.38 C 33.92 31.3189 33.547 32.2193 32.8832 32.8832 C 32.2193 33.547 31.3189 33.92 30.38 33.92 C 28.42 33.92 26.84 32.34 26.84 30.38 C 26.84 29.4411 27.213 28.5407 27.8768 27.8768 C 28.5407 27.213 29.4411 26.84 30.38 26.84 Z" stroke-linecap="round"/>
</g>
</svg>