<svg width="72" height="72" viewBox="0 0 72 72" fill="none" xmlns="http://www.w3.org/2000/svg">
<g id="recruitment-analysis">
<g id="Group 1171275654">
<g id="Group 1171275653">
<g id="Group 1000001393">
<g id="Vector">
<mask id="path-1-inside-1_6536_46281" fill="white">
<path d="M27.1106 4.19359C15.5715 5.86093 6.48049 14.7005 4.29706 26.3719C4.01917 27.854 3.90007 32.287 4.09857 33.9676C5.42186 45.1494 13.3219 54.3198 24.0935 57.1649C26.396 57.7736 28.2222 57.9986 30.8423 58.0118C35.1959 58.0251 38.9143 57.2311 42.3946 55.524L43.5988 54.9286L49.236 60.5393C52.7427 64.0328 55.1379 66.3353 55.6143 66.6264C57.2949 67.6851 59.4386 68.0821 61.4103 67.7115C66.7431 66.7191 69.5088 61.2407 67.1534 56.3842C66.6902 55.4446 66.3197 55.0344 60.7883 49.4898L54.9262 43.6012L55.5084 42.3441C58.2344 36.601 58.7769 29.6669 56.9773 23.4607C54.0396 13.2317 45.2132 5.64921 34.574 4.19359C32.7346 3.92893 28.897 3.94216 27.1106 4.19359ZM34.1108 8.29579C39.2981 9.06329 43.6782 11.3261 47.3569 15.1637C57.533 25.7368 55.2041 42.8469 42.5534 50.4955C36.678 54.0552 28.9235 54.7301 22.6379 52.2555C15.2936 49.3575 10.0401 43.0454 8.45219 35.1851C8.18753 33.8882 8.14784 33.306 8.14784 30.8447C8.16107 28.3966 8.20077 27.8011 8.46543 26.6101C9.16677 23.3681 10.5033 20.2451 12.2897 17.7441C13.4278 16.1297 16.1273 13.4302 17.7417 12.2921C20.6397 10.241 24.1067 8.83834 27.6531 8.28255C29.2411 8.04436 32.4302 8.04436 34.1108 8.29579ZM57.8639 52.6393C62.8659 57.681 63.2497 58.0912 63.4614 58.7529C64.2686 61.2274 62.4027 63.8343 59.8223 63.8475C58.2609 63.8608 58.1418 63.7814 52.2399 57.8663L46.9732 52.5996L48.0318 51.7791C49.1831 50.8661 50.824 49.2119 51.7503 48.0077C52.0811 47.5975 52.3722 47.2535 52.4119 47.2535C52.4516 47.2535 54.8997 49.6751 57.8639 52.6393Z"/>
<path d="M57.8639 52.6393C62.8659 57.681 63.2497 58.0912 63.4614 58.7529C64.2686 61.2274 62.4027 63.8343 59.8223 63.8475C58.2609 63.8608 58.1418 63.7814 52.2399 57.8663L46.9732 52.5996L48.0318 51.7791C49.1831 50.8661 50.824 49.2119 51.7503 48.0077C52.0811 47.5975 52.3722 47.2535 52.4119 47.2535C52.4516 47.2535 54.8997 49.6751 57.8639 52.6393Z"/>
</mask>
<path d="M27.1106 4.19359C15.5715 5.86093 6.48049 14.7005 4.29706 26.3719C4.01917 27.854 3.90007 32.287 4.09857 33.9676C5.42186 45.1494 13.3219 54.3198 24.0935 57.1649C26.396 57.7736 28.2222 57.9986 30.8423 58.0118C35.1959 58.0251 38.9143 57.2311 42.3946 55.524L43.5988 54.9286L49.236 60.5393C52.7427 64.0328 55.1379 66.3353 55.6143 66.6264C57.2949 67.6851 59.4386 68.0821 61.4103 67.7115C66.7431 66.7191 69.5088 61.2407 67.1534 56.3842C66.6902 55.4446 66.3197 55.0344 60.7883 49.4898L54.9262 43.6012L55.5084 42.3441C58.2344 36.601 58.7769 29.6669 56.9773 23.4607C54.0396 13.2317 45.2132 5.64921 34.574 4.19359C32.7346 3.92893 28.897 3.94216 27.1106 4.19359ZM34.1108 8.29579C39.2981 9.06329 43.6782 11.3261 47.3569 15.1637C57.533 25.7368 55.2041 42.8469 42.5534 50.4955C36.678 54.0552 28.9235 54.7301 22.6379 52.2555C15.2936 49.3575 10.0401 43.0454 8.45219 35.1851C8.18753 33.8882 8.14784 33.306 8.14784 30.8447C8.16107 28.3966 8.20077 27.8011 8.46543 26.6101C9.16677 23.3681 10.5033 20.2451 12.2897 17.7441C13.4278 16.1297 16.1273 13.4302 17.7417 12.2921C20.6397 10.241 24.1067 8.83834 27.6531 8.28255C29.2411 8.04436 32.4302 8.04436 34.1108 8.29579ZM57.8639 52.6393C62.8659 57.681 63.2497 58.0912 63.4614 58.7529C64.2686 61.2274 62.4027 63.8343 59.8223 63.8475C58.2609 63.8608 58.1418 63.7814 52.2399 57.8663L46.9732 52.5996L48.0318 51.7791C49.1831 50.8661 50.824 49.2119 51.7503 48.0077C52.0811 47.5975 52.3722 47.2535 52.4119 47.2535C52.4516 47.2535 54.8997 49.6751 57.8639 52.6393Z" fill="#4D0000"/>
<path d="M57.8639 52.6393C62.8659 57.681 63.2497 58.0912 63.4614 58.7529C64.2686 61.2274 62.4027 63.8343 59.8223 63.8475C58.2609 63.8608 58.1418 63.7814 52.2399 57.8663L46.9732 52.5996L48.0318 51.7791C49.1831 50.8661 50.824 49.2119 51.7503 48.0077C52.0811 47.5975 52.3722 47.2535 52.4119 47.2535C52.4516 47.2535 54.8997 49.6751 57.8639 52.6393Z" fill="#BE1A2E"/>
<path d="M57.8639 52.6393L57.9719 52.5312L57.9723 52.5317L57.8639 52.6393ZM63.4614 58.7529L63.3161 58.8002L63.3159 58.7994L63.4614 58.7529ZM59.8223 63.8475L59.821 63.6948L59.8215 63.6948L59.8223 63.8475ZM52.2399 57.8663L52.3479 57.7582L52.348 57.7584L52.2399 57.8663ZM46.9732 52.5996L46.8652 52.7076L46.7426 52.585L46.8796 52.4788L46.9732 52.5996ZM48.0318 51.7791L48.1268 51.8988L48.1254 51.8999L48.0318 51.7791ZM51.7503 48.0077L51.6291 47.9146L51.6313 47.9118L51.7503 48.0077ZM57.9723 52.5317C60.4721 55.0513 61.8214 56.4171 62.5716 57.2354C63.322 58.0538 63.4904 58.3422 63.6069 58.7063L63.3159 58.7994C63.2207 58.5019 63.0913 58.2544 62.3464 57.4418C61.6013 56.6292 60.2576 55.269 57.7554 52.7469L57.9723 52.5317ZM63.6066 58.7055C64.4455 61.277 62.5087 63.9865 59.8231 64.0003L59.8215 63.6948C62.2968 63.6821 64.0917 61.1779 63.3161 58.8002L63.6066 58.7055ZM59.8236 64.0003C59.4347 64.0036 59.1125 64.0022 58.7644 63.8966C58.4157 63.7907 58.0527 63.5845 57.5643 63.2001C56.5924 62.4352 55.0785 60.9275 52.1317 57.9742L52.348 57.7584C55.3031 60.7201 56.7998 62.2096 57.7532 62.96C58.2275 63.3332 58.5559 63.514 58.8531 63.6042C59.151 63.6945 59.4292 63.6981 59.821 63.6948L59.8236 64.0003ZM52.1318 57.9743L46.8652 52.7076L47.0812 52.4915L52.3479 57.7582L52.1318 57.9743ZM46.8796 52.4788L47.9382 51.6584L48.1254 51.8999L47.0668 52.7203L46.8796 52.4788ZM47.9369 51.6594C49.0786 50.7539 50.7106 49.1087 51.6292 47.9146L51.8714 48.1009C50.9373 49.3152 49.2876 50.9782 48.1267 51.8988L47.9369 51.6594ZM51.6313 47.9118C51.7971 47.7063 51.954 47.516 52.0748 47.3767C52.135 47.3073 52.188 47.2486 52.2294 47.2065C52.2498 47.1858 52.27 47.1663 52.2886 47.1511C52.2976 47.1437 52.3096 47.1344 52.3233 47.1262C52.3304 47.122 52.3648 47.1007 52.4119 47.1007V47.4063C52.4364 47.4063 52.4545 47.4001 52.4623 47.3971C52.4712 47.3936 52.4773 47.3902 52.4798 47.3887C52.4848 47.3857 52.4861 47.3842 52.4827 47.387C52.4764 47.3922 52.4649 47.4028 52.4472 47.4208C52.4126 47.456 52.3646 47.509 52.3057 47.5769C52.1884 47.7121 52.0342 47.899 51.8692 48.1037L51.6313 47.9118ZM52.4119 47.1007C52.45 47.1007 52.4778 47.1154 52.4803 47.1166C52.4891 47.1209 52.4959 47.1252 52.4994 47.1275C52.5068 47.1324 52.5133 47.1375 52.5176 47.1408C52.5268 47.1481 52.5374 47.1573 52.5484 47.167C52.571 47.1871 52.6021 47.2158 52.6407 47.252C52.7181 47.3249 52.8293 47.4318 52.9701 47.5686C53.252 47.8424 53.6548 48.2381 54.1486 48.7261C55.1364 49.7023 56.4897 51.049 57.9719 52.5312L57.7558 52.7473C56.2739 51.2653 54.921 49.9191 53.9338 48.9435C53.4402 48.4556 53.0382 48.0606 52.7572 47.7878C52.6167 47.6512 52.5069 47.5457 52.4313 47.4746C52.3933 47.4389 52.3649 47.4127 52.3458 47.3957C52.336 47.3871 52.3303 47.3822 52.3276 47.3802C52.326 47.3789 52.3278 47.3804 52.3316 47.3829C52.3334 47.3841 52.3386 47.3875 52.3462 47.3912C52.3476 47.3918 52.3745 47.4063 52.4119 47.4063V47.1007ZM27.1106 4.19359L27.0669 3.89117L27.068 3.89101L27.1106 4.19359ZM4.29706 26.3719L4.59741 26.4281L4.59738 26.4283L4.29706 26.3719ZM4.09857 33.9676L3.79513 34.0035L3.79512 34.0035L4.09857 33.9676ZM24.0935 57.1649L24.1715 56.8695L24.1716 56.8695L24.0935 57.1649ZM30.8423 58.0118L30.8413 58.3174L30.8407 58.3174L30.8423 58.0118ZM42.3946 55.524L42.53 55.7979L42.5292 55.7984L42.3946 55.524ZM43.5988 54.9286L43.4633 54.6547L43.6594 54.5577L43.8143 54.712L43.5988 54.9286ZM49.236 60.5393L49.4516 60.3227L49.4517 60.3228L49.236 60.5393ZM55.6143 66.6264L55.7736 66.3657L55.7771 66.3679L55.6143 66.6264ZM61.4103 67.7115L61.3539 67.4112L61.3544 67.4111L61.4103 67.7115ZM67.1534 56.3842L67.4274 56.2491L67.4283 56.2508L67.1534 56.3842ZM60.7883 49.4898L60.572 49.7056L60.5718 49.7054L60.7883 49.4898ZM54.9262 43.6012L54.7096 43.8168L54.5594 43.6659L54.6489 43.4728L54.9262 43.6012ZM55.5084 42.3441L55.2311 42.2156L55.2324 42.213L55.5084 42.3441ZM56.9773 23.4607L56.6838 23.5458L56.6836 23.545L56.9773 23.4607ZM34.574 4.19359L34.5325 4.49633L34.5304 4.49603L34.574 4.19359ZM34.1108 8.29579L34.0661 8.59805L34.0656 8.59798L34.1108 8.29579ZM47.3569 15.1637L47.1368 15.3756L47.1364 15.3751L47.3569 15.1637ZM42.5534 50.4955L42.3951 50.2342L42.3953 50.2341L42.5534 50.4955ZM22.6379 52.2555L22.5259 52.5398L22.5257 52.5397L22.6379 52.2555ZM8.45219 35.1851L8.75158 35.124L8.7517 35.1246L8.45219 35.1851ZM8.14784 30.8447L7.84228 30.8447L7.84228 30.843L8.14784 30.8447ZM8.46543 26.6101L8.76408 26.6747L8.7637 26.6764L8.46543 26.6101ZM12.2897 17.7441L12.5395 17.9201L12.5384 17.9217L12.2897 17.7441ZM17.7417 12.2921L17.9182 12.5415L17.9177 12.5419L17.7417 12.2921ZM27.6531 8.28255L27.6058 7.98068L27.6078 7.98038L27.6531 8.28255ZM27.1543 4.496C15.7479 6.14417 6.7574 14.882 4.59741 26.4281L3.99672 26.3158C6.20358 14.5191 15.3951 5.57769 27.0669 3.89117L27.1543 4.496ZM4.59738 26.4283C4.46341 27.1427 4.36433 28.5995 4.32462 30.1034C4.28496 31.6055 4.30554 33.115 4.40201 33.9318L3.79512 34.0035C3.6931 33.1397 3.67398 31.5923 3.71372 30.0873C3.75341 28.5841 3.85282 27.0832 3.99674 26.3156L4.59738 26.4283ZM4.402 33.9317C5.71078 44.9909 13.5231 54.0569 24.1715 56.8695L24.0155 57.4603C13.1208 54.5827 5.13294 45.308 3.79513 34.0035L4.402 33.9317ZM24.1716 56.8695C26.4463 57.4709 28.2464 57.6932 30.8438 57.7063L30.8407 58.3174C28.1979 58.304 26.3458 58.0764 24.0154 57.4603L24.1716 56.8695ZM30.8432 57.7063C35.1563 57.7194 38.8273 56.9334 42.26 55.2497L42.5292 55.7984C39.0014 57.5287 35.2355 58.3307 30.8413 58.3174L30.8432 57.7063ZM42.2592 55.2501L43.4633 54.6547L43.7342 55.2025L42.53 55.7979L42.2592 55.2501ZM43.8143 54.712L49.4516 60.3227L49.0205 60.7559L43.3832 55.1451L43.8143 54.712ZM49.4517 60.3228C51.2045 62.069 52.6782 63.5163 53.7727 64.5629C54.3201 65.0864 54.7712 65.5082 55.1141 65.8166C55.4664 66.1333 55.6834 66.3106 55.7736 66.3657L55.4549 66.8872C55.307 66.7967 55.0459 66.5771 54.7055 66.271C54.3558 65.9566 53.8996 65.5299 53.3503 65.0046C52.2515 63.9538 50.7743 62.5031 49.0204 60.7558L49.4517 60.3228ZM55.7771 66.3679C57.3912 67.3846 59.4563 67.7678 61.3539 67.4112L61.4667 68.0118C59.4208 68.3963 57.1986 67.9855 55.4514 66.885L55.7771 66.3679ZM61.3544 67.4111C66.4897 66.4554 69.1456 61.1919 66.8784 56.5175L67.4283 56.2508C69.8721 61.2894 66.9966 66.9827 61.4662 68.0119L61.3544 67.4111ZM66.8793 56.5193C66.6649 56.0843 66.4766 55.7709 65.6468 54.871C64.81 53.9635 63.3398 52.4801 60.572 49.7056L61.0047 49.274C63.7682 52.0442 65.249 53.5381 66.0961 54.4568C66.9501 55.383 67.1787 55.7445 67.4274 56.2491L66.8793 56.5193ZM60.5718 49.7054L54.7096 43.8168L55.1427 43.3856L61.0049 49.2743L60.5718 49.7054ZM54.6489 43.4728L55.2311 42.2156L55.7857 42.4725L55.2034 43.7296L54.6489 43.4728ZM55.2324 42.213C57.9258 36.5385 58.463 29.6814 56.6838 23.5458L57.2707 23.3756C59.0909 29.6524 58.543 36.6635 55.7844 42.4751L55.2324 42.213ZM56.6836 23.545C53.7797 13.4339 45.0535 5.93576 34.5325 4.49632L34.6154 3.89085C45.3729 5.36265 54.2994 13.0294 57.2709 23.3764L56.6836 23.545ZM34.5304 4.49603C32.7207 4.23563 28.9122 4.2486 27.1532 4.49616L27.068 3.89101C28.8819 3.63572 32.7484 3.62222 34.6175 3.89114L34.5304 4.49603ZM34.1555 7.99352C39.4104 8.77103 43.8522 11.0661 47.5775 14.9522L47.1364 15.3751C43.5042 11.5861 39.1858 9.35556 34.0661 8.59805L34.1555 7.99352ZM47.5771 14.9518C57.8913 25.6683 55.5271 43.0086 42.7115 50.757L42.3953 50.2341C54.881 42.6852 57.1748 25.8052 47.1368 15.3756L47.5771 14.9518ZM42.7117 50.7569C36.7559 54.3652 28.9015 55.0498 22.5259 52.5398L22.7498 51.9712C28.9455 54.4103 36.6001 53.7451 42.3951 50.2342L42.7117 50.7569ZM22.5257 52.5397C15.0836 49.6031 9.76081 43.2058 8.15269 35.2456L8.7517 35.1246C10.3195 42.885 15.5036 49.1119 22.75 51.9713L22.5257 52.5397ZM8.15281 35.2462C7.88191 33.9187 7.84228 33.3119 7.84228 30.8447H8.45339C8.45339 33.3 8.49316 33.8577 8.75158 35.124L8.15281 35.2462ZM7.84228 30.843C7.85554 28.3916 7.89498 27.7686 8.16715 26.5438L8.7637 26.6764C8.50655 27.8336 8.4666 28.4015 8.45339 30.8463L7.84228 30.843ZM8.16678 26.5455C8.87601 23.267 10.2281 20.1047 12.0411 17.5665L12.5384 17.9217C10.7785 20.3855 9.45753 23.4691 8.76407 26.6747L8.16678 26.5455ZM12.04 17.568C13.1982 15.925 15.9226 13.2006 17.5656 12.0424L17.9177 12.5419C16.3319 13.6597 13.6573 16.3343 12.5395 17.9201L12.04 17.568ZM17.5652 12.0427C20.5021 9.9641 24.0134 8.54368 27.6058 7.98068L27.7004 8.58443C24.2 9.133 20.7773 10.518 17.9182 12.5415L17.5652 12.0427ZM27.6078 7.98038C29.2264 7.73759 32.4461 7.73777 34.156 7.99359L34.0656 8.59798C32.4144 8.35095 29.2558 8.35113 27.6985 8.58473L27.6078 7.98038Z" fill="#4D0000" mask="url(#path-1-inside-1_6536_46281)"/>
</g>
<g id="Vector_2">
<path d="M28.5915 13.4024C28.2359 13.4716 27.5246 13.7482 27.011 13.9951C25.707 14.6471 24.729 15.6251 24.1067 16.9192C23.2967 18.5985 23.1682 20.1494 23.6918 21.9374L23.9388 22.7771L23.6227 23.024C21.9631 24.3082 20.6097 26.1851 20.0071 28.0522C19.7404 28.8523 19.5725 30.6304 19.6219 31.9936C19.6614 33.1988 19.8195 33.594 20.3924 33.9397C20.7381 34.1373 20.8567 34.1373 30.1721 34.1373C39.112 34.1373 39.6257 34.1274 39.8826 33.9595C40.4851 33.5643 40.5444 33.3272 40.5444 31.3614C40.5444 29.8895 40.5049 29.4351 40.3468 28.793C39.9221 27.1335 38.8947 25.4442 37.3142 23.8143L36.3066 22.7573L36.4943 22.2535C36.6029 21.9769 36.7313 21.3546 36.7906 20.8705C37.1561 17.8872 35.6447 15.1213 32.9874 13.8766C31.7032 13.2839 30.0041 13.0962 28.5915 13.4024ZM31.5946 16.6327C32.3157 16.9685 32.938 17.5612 33.343 18.3021C33.669 18.8948 33.6789 18.9739 33.6789 19.9617C33.6789 20.8903 33.6493 21.0582 33.4122 21.5423C33.0664 22.2436 32.3552 22.9549 31.6538 23.3006C31.1698 23.5377 31.0018 23.5673 30.1227 23.5673C29.2632 23.5673 29.0657 23.5377 28.5915 23.3105C27.7815 22.9252 27.2678 22.4214 26.8825 21.641C26.438 20.7717 26.3392 20.0111 26.5565 19.1616C27.1196 16.9587 29.5892 15.714 31.5946 16.6327ZM26.4084 25.5825C27.5938 26.3432 28.7199 26.679 30.0733 26.679C31.4958 26.679 32.7108 26.3234 33.7876 25.5924C34.3309 25.2269 34.3704 25.2467 35.2595 26.2049C36.0794 27.0939 36.593 27.8447 37.0672 28.8227C37.3537 29.4253 37.4228 29.7216 37.4623 30.3439L37.5117 31.1243H30.1325H22.7632V30.3933C22.7632 29.1882 23.2571 27.9731 24.2154 26.7976C24.5315 26.4123 25.786 25.2961 25.9144 25.2961C25.9342 25.2961 26.1614 25.4245 26.4084 25.5825Z" fill="#4D0000"/>
<path d="M31.5946 16.6327C32.3157 16.9685 32.938 17.5612 33.343 18.3021C33.669 18.8948 33.6789 18.9739 33.6789 19.9617C33.6789 20.8903 33.6493 21.0582 33.4122 21.5423C33.0664 22.2436 32.3552 22.9549 31.6538 23.3006C31.1698 23.5377 31.0018 23.5673 30.1227 23.5673C29.2632 23.5673 29.0657 23.5377 28.5915 23.3105C27.7815 22.9252 27.2678 22.4214 26.8825 21.641C26.438 20.7717 26.3392 20.0111 26.5565 19.1616C27.1196 16.9587 29.5892 15.714 31.5946 16.6327Z" fill="#BE1A2E"/>
<path d="M26.4084 25.5825C27.5938 26.3432 28.7199 26.679 30.0733 26.679C31.4958 26.679 32.7108 26.3234 33.7876 25.5924C34.3309 25.2269 34.3704 25.2467 35.2595 26.2049C36.0794 27.0939 36.593 27.8447 37.0672 28.8227C37.3537 29.4253 37.4228 29.7216 37.4623 30.3439L37.5117 31.1243H30.1325H22.7632V30.3933C22.7632 29.1882 23.2571 27.9731 24.2154 26.7976C24.5315 26.4123 25.786 25.2961 25.9144 25.2961C25.9342 25.2961 26.1614 25.4245 26.4084 25.5825Z" fill="#BE1A2E"/>
</g>
</g>
</g>
<path id="Vector_3" d="M35.529 35.7985C34.7634 36.0384 34.2149 36.964 34.3635 37.7752C34.5006 38.4951 35.1862 39.1121 35.8603 39.1121C36.0203 39.1121 36.146 39.1464 36.146 39.2035C36.146 39.2492 35.2433 40.1862 34.1464 41.2831L32.1468 43.2827L29.3702 40.5061C26.365 37.5124 26.1936 37.3867 25.3252 37.6153C24.971 37.7181 24.2397 38.3922 21.4403 41.1917C18.4923 44.1511 17.9895 44.711 17.9209 45.0767C17.7153 46.1965 18.458 47.1106 19.5778 47.1106C19.8406 47.1106 20.1605 47.0534 20.2976 46.9849C20.4347 46.9163 21.7145 45.6937 23.1542 44.2768L25.748 41.683L28.4675 44.3911C29.9529 45.8765 31.2898 47.1448 31.4269 47.2134C31.7468 47.3734 32.5467 47.3734 32.8666 47.2134C33.0037 47.1448 34.352 45.8537 35.8717 44.3454L38.6255 41.6031L38.6941 42.0601C38.9569 43.6484 41.1507 43.9797 41.8934 42.54C42.0763 42.1858 42.0877 41.843 42.0648 39.4892C42.0306 36.5755 42.0191 36.564 41.2421 35.9813C40.9451 35.7528 40.7622 35.7413 38.397 35.7185C37.003 35.7071 35.7118 35.7413 35.529 35.7985Z" fill="#4D0000"/>
</g>
</g>
</svg>
