<svg width="72" height="72" viewBox="0 0 72 72" fill="none" xmlns="http://www.w3.org/2000/svg">
<g id="interview">
<circle id="Ellipse 2746" cx="53" cy="29" r="11" fill="#22885E"/>
<path id="Ellipse 2747" d="M66 57.5C66 53.1239 64.525 48.9271 61.8995 45.8327C59.274 42.7384 55.713 41 52 41C48.287 41 44.726 42.7384 42.1005 45.8327C39.475 48.9271 38 53.1239 38 57.5L66 57.5Z" fill="#22885E"/>
<rect id="Rectangle 34624976" x="33" y="58" width="33" height="8" fill="#22885E"/>
<g id="Group 1171275641">
<path id="Vector" d="M58.3843 40.2645C60.8957 38.9846 62.903 36.8966 64.0829 34.3367C65.2628 31.7769 65.5465 28.8944 64.8884 26.1536C64.2303 23.4129 62.6686 20.9735 60.455 19.2285C58.2414 17.4836 55.5048 16.5346 52.6862 16.5347C49.8675 16.5347 47.1309 17.4836 44.9173 19.2286C42.7038 20.9736 41.1421 23.413 40.4841 26.1538C39.826 28.8946 40.1097 31.7771 41.2897 34.3369C42.4696 36.8967 44.477 38.9847 46.9883 40.2646C44.223 41.3975 41.8566 43.3267 40.1899 45.8072C38.5232 48.2877 37.6313 51.2076 37.6275 54.1961V56.7059H33.7297C32.133 53.2394 29.2851 50.5043 25.7569 49.0489C28.2683 47.769 30.2756 45.681 31.4555 43.1212C32.6354 40.5613 32.9191 37.6788 32.261 34.9381C31.6029 32.1973 30.0412 29.7579 27.8277 28.013C25.6141 26.268 22.8775 25.3191 20.0588 25.3191C17.2402 25.3191 14.5036 26.268 12.29 28.013C10.0765 29.7579 8.5148 32.1973 7.85668 34.9381C7.19857 37.6788 7.48232 40.5613 8.66221 43.1212C9.84211 45.681 11.8494 47.769 14.3608 49.0489C11.5954 50.1819 9.22916 52.1111 7.56248 54.5916C5.89579 57.0721 5.00388 59.992 5 62.9804V66.7451C4.99996 66.9099 5.03239 67.0731 5.09544 67.2254C5.15849 67.3777 5.25092 67.516 5.36746 67.6326C5.48399 67.7491 5.62235 67.8416 5.77462 67.9046C5.92689 67.9677 6.09009 68.0001 6.2549 68H66.4902C66.655 68.0001 66.8182 67.9677 66.9705 67.9047C67.1228 67.8417 67.2612 67.7492 67.3778 67.6327C67.4943 67.5161 67.5867 67.3778 67.6498 67.2255C67.7128 67.0732 67.7452 66.91 67.7451 66.7451V54.1961C67.7413 51.2076 66.8494 48.2877 65.1827 45.8072C63.5161 43.3266 61.1497 41.3974 58.3843 40.2645ZM42.6471 29.098C42.6471 27.1125 43.2359 25.1715 44.339 23.5205C45.4421 21.8696 47.01 20.5829 48.8444 19.823C50.6789 19.0632 52.6974 18.8644 54.6448 19.2517C56.5922 19.6391 58.3811 20.5952 59.7851 21.9992C61.1891 23.4032 62.1452 25.1921 62.5326 27.1395C62.92 29.0869 62.7211 31.1055 61.9613 32.9399C61.2015 34.7743 59.9147 36.3422 58.2638 37.4454C56.6128 38.5485 54.6718 39.1373 52.6863 39.1373C50.0246 39.1342 47.4729 38.0755 45.5908 36.1935C43.7088 34.3114 42.6501 31.7597 42.6471 29.098ZM10.0196 37.8824C10.0196 35.8968 10.6084 33.9558 11.7115 32.3049C12.8146 30.6539 14.3826 29.3672 16.217 28.6073C18.0514 27.8475 20.07 27.6487 22.0174 28.036C23.9648 28.4234 25.7536 29.3795 27.1576 30.7836C28.5616 32.1876 29.5178 33.9764 29.9051 35.9238C30.2925 37.8712 30.0937 39.8898 29.3339 41.7242C28.574 43.5586 27.2873 45.1265 25.6363 46.2297C23.9854 47.3328 22.0444 47.9216 20.0588 47.9216C17.3972 47.9185 14.8454 46.8599 12.9634 44.9778C11.0813 43.0957 10.0227 40.544 10.0196 37.8824ZM32.6078 65.4902H7.5098V62.9804C7.5098 59.6522 8.83193 56.4603 11.1853 54.1069C13.5387 51.7535 16.7306 50.4314 20.0588 50.4314C23.387 50.4314 26.5789 51.7535 28.9323 54.1069C31.2857 56.4603 32.6078 59.6522 32.6078 62.9804V65.4902ZM65.2353 65.4902H35.1176V62.9804C35.1128 61.7096 34.9463 60.4445 34.6221 59.2157H65.2353V65.4902ZM65.2353 56.7059H40.1373V54.1961C40.1373 50.8679 41.4594 47.676 43.8128 45.3226C46.1662 42.9692 49.3581 41.6471 52.6863 41.6471C56.0145 41.6471 59.2064 42.9692 61.5598 45.3226C63.9132 47.676 65.2353 50.8679 65.2353 54.1961V56.7059Z" fill="#0B2D1F"/>
<path id="Vector_2" d="M8.76471 21.5686H26.076L34.6231 25.2316C34.814 25.3134 35.0221 25.3464 35.2289 25.328C35.4357 25.3095 35.6347 25.24 35.8081 25.1257C35.9814 25.0114 36.1237 24.856 36.2222 24.6732C36.3208 24.4904 36.3724 24.2861 36.3726 24.0784V21.5686C37.3707 21.5676 38.3276 21.1706 39.0334 20.4648C39.7392 19.759 40.1362 18.8021 40.1373 17.8039V7.76471C40.1362 6.76658 39.7392 5.80965 39.0334 5.10386C38.3276 4.39808 37.3707 4.00109 36.3726 4H8.76471C7.76658 4.00109 6.80964 4.39808 6.10386 5.10386C5.39808 5.80965 5.00109 6.76658 5 7.76471V17.8039C5.00109 18.8021 5.39808 19.759 6.10386 20.4648C6.80964 21.1706 7.76658 21.5676 8.76471 21.5686ZM7.5098 7.76471C7.51014 7.43199 7.64246 7.11299 7.87772 6.87773C8.11299 6.64246 8.43199 6.51014 8.76471 6.50981H36.3726C36.7053 6.51014 37.0243 6.64246 37.2595 6.87773C37.4948 7.11299 37.6271 7.43199 37.6275 7.76471V17.8039C37.6271 18.1367 37.4948 18.4557 37.2595 18.6909C37.0243 18.9262 36.7053 19.0585 36.3726 19.0588H35.1176C34.9528 19.0588 34.7896 19.0912 34.6374 19.1543C34.4851 19.2173 34.3467 19.3098 34.2302 19.4263C34.1137 19.5428 34.0212 19.6812 33.9582 19.8335C33.8951 19.9857 33.8627 20.1489 33.8627 20.3137V22.1753L26.8278 19.1605C26.6716 19.0933 26.5033 19.0587 26.3333 19.0588H8.76471C8.43199 19.0585 8.11299 18.9262 7.87772 18.6909C7.64246 18.4557 7.51014 18.1367 7.5098 17.8039V7.76471Z" fill="#0B2D1F"/>
<path id="Vector_3" d="M11.2744 11.5295H15.0391C15.372 11.5295 15.6911 11.3972 15.9265 11.1619C16.1618 10.9266 16.294 10.6074 16.294 10.2746C16.294 9.94174 16.1618 9.62255 15.9265 9.38721C15.6911 9.15187 15.372 9.01965 15.0391 9.01965H11.2744C10.9416 9.01965 10.6224 9.15187 10.3871 9.38721C10.1517 9.62255 10.0195 9.94174 10.0195 10.2746C10.0195 10.6074 10.1517 10.9266 10.3871 11.1619C10.6224 11.3972 10.9416 11.5295 11.2744 11.5295Z" fill="#0B2D1F"/>
<path id="Vector_4" d="M20.0596 11.5295H33.8635C34.1963 11.5295 34.5155 11.3972 34.7509 11.1619C34.9862 10.9266 35.1184 10.6074 35.1184 10.2746C35.1184 9.94174 34.9862 9.62255 34.7509 9.38721C34.5155 9.15187 34.1963 9.01965 33.8635 9.01965H20.0596C19.7268 9.01965 19.4076 9.15187 19.1722 9.38721C18.9369 9.62255 18.8047 9.94174 18.8047 10.2746C18.8047 10.6074 18.9369 10.9266 19.1722 11.1619C19.4076 11.3972 19.7268 11.5295 20.0596 11.5295Z" fill="#0B2D1F"/>
<path id="Vector_5" d="M11.2744 16.549H15.0391C15.372 16.549 15.6911 16.4168 15.9265 16.1814C16.1618 15.9461 16.294 15.6269 16.294 15.2941C16.294 14.9613 16.1618 14.6421 15.9265 14.4067C15.6911 14.1714 15.372 14.0392 15.0391 14.0392H11.2744C10.9416 14.0392 10.6224 14.1714 10.3871 14.4067C10.1517 14.6421 10.0195 14.9613 10.0195 15.2941C10.0195 15.6269 10.1517 15.9461 10.3871 16.1814C10.6224 16.4168 10.9416 16.549 11.2744 16.549Z" fill="#0B2D1F"/>
<path id="Vector_6" d="M20.0596 16.549H33.8635C34.1963 16.549 34.5155 16.4168 34.7509 16.1814C34.9862 15.9461 35.1184 15.6269 35.1184 15.2941C35.1184 14.9613 34.9862 14.6421 34.7509 14.4067C34.5155 14.1714 34.1963 14.0392 33.8635 14.0392H20.0596C19.7268 14.0392 19.4076 14.1714 19.1722 14.4067C18.9369 14.6421 18.8047 14.9613 18.8047 15.2941C18.8047 15.6269 18.9369 15.9461 19.1722 16.1814C19.4076 16.4168 19.7268 16.549 20.0596 16.549Z" fill="#0B2D1F"/>
</g>
</g>
</svg>
