<svg width="72" height="72" viewBox="0 0 72 72" fill="none" xmlns="http://www.w3.org/2000/svg">
<g id="man-power-plan">
<g id="Group 1171275673">
<path id="Subtract" fill-rule="evenodd" clip-rule="evenodd" d="M42.872 38.4336C40.0592 37.6948 37.2108 37.3243 35.0976 37.3243C29.0439 37.3243 16.9573 40.3643 16.9573 46.3949V52.874C16.9573 54.3045 18.1183 55.4656 19.5488 55.4656H42.872V38.4336ZM4 46.9264C4 43.5159 10.0056 40.685 14.1027 40.0526C12.6696 41.8149 11.7744 43.9044 11.7744 46.3949V55.4656H6.59147C5.16098 55.4656 4 54.3045 4 52.874V46.9264Z" fill="#22885E"/>
<path id="Subtract_2" fill-rule="evenodd" clip-rule="evenodd" d="M4 46.9265C4 44.9061 6.10766 43.089 8.67761 41.812C10.4458 40.9334 12.4327 40.3104 14.1027 40.0527C13.0202 41.3838 12.2447 42.9016 11.9299 44.6379C11.828 45.2003 11.7744 45.7857 11.7744 46.395V55.4656H6.59147C5.16098 55.4656 4 54.3046 4 52.874V46.9265ZM31.4327 19.4055C32.4047 18.4335 33.723 17.8874 35.0976 17.8874C36.4722 17.8874 37.7905 18.4335 38.7625 19.4055C39.7345 20.3776 40.2806 21.6959 40.2806 23.0706C40.2806 24.4453 39.7345 25.7636 38.7625 26.7357C37.7905 27.7077 36.4722 28.2538 35.0976 28.2538C33.723 28.2538 32.4047 27.7077 31.4327 26.7357C30.4607 25.7636 29.9147 24.4453 29.9147 23.0706C29.9147 21.6959 30.4607 20.3776 31.4327 19.4055ZM13.8292 26.4213C14.3152 25.9353 14.9743 25.6622 15.6616 25.6622C16.0019 25.6622 16.3389 25.7292 16.6533 25.8595C16.9677 25.9897 17.2534 26.1806 17.494 26.4213C17.7347 26.6619 17.9256 26.9476 18.0558 27.262C18.186 27.5765 18.2531 27.9135 18.2531 28.2538C18.2531 28.5941 18.186 28.9312 18.0558 29.2456C17.9256 29.56 17.7347 29.8457 17.494 30.0864C17.2534 30.327 16.9677 30.5179 16.6533 30.6481C16.3389 30.7784 16.0019 30.8454 15.6616 30.8454C14.9743 30.8454 14.3152 30.5724 13.8292 30.0864C13.5885 29.8457 13.3976 29.56 13.2674 29.2456C13.1372 28.9311 13.0701 28.5941 13.0701 28.2538C13.0701 27.5665 13.3432 26.9073 13.8292 26.4213ZM52.7012 26.4213C53.1872 25.9353 53.8463 25.6622 54.5336 25.6622C55.2209 25.6622 55.8801 25.9353 56.3661 26.4213C56.8521 26.9073 57.1251 27.5665 57.1251 28.2538C57.1251 28.5941 57.0581 28.9311 56.9278 29.2456C56.7976 29.56 56.6067 29.8457 56.3661 30.0864C56.1254 30.327 55.8397 30.5179 55.5253 30.6481C55.2109 30.7784 54.8739 30.8454 54.5336 30.8454C53.8463 30.8454 53.1872 30.5724 52.7012 30.0864C52.4605 29.8457 52.2697 29.56 52.1394 29.2456C52.0092 28.9311 51.9422 28.5941 51.9422 28.2538C51.9422 27.5665 52.2152 26.9073 52.7012 26.4213ZM20.8445 46.395C20.8445 46.3155 20.8536 45.9577 21.5767 45.2904C22.3262 44.5987 23.551 43.8687 25.203 43.2068C28.5133 41.8805 32.5569 41.2118 35.0976 41.2118C37.1147 41.2118 40.0793 41.6333 42.872 42.4708V38.4337C40.0592 37.6949 37.2108 37.3244 35.0976 37.3244C29.0439 37.3244 16.9573 40.3644 16.9573 46.395V52.874C16.9573 54.3046 18.1183 55.4656 19.5488 55.4656H42.872V51.5782H20.8445V46.395ZM35.0976 14C32.6921 14 30.385 14.9557 28.6841 16.6567C26.9831 18.3578 26.0275 20.6649 26.0275 23.0706C26.0275 25.4763 26.9831 27.7834 28.6841 29.4845C30.385 31.1856 32.6921 32.1412 35.0976 32.1412C37.5032 32.1412 39.8102 31.1856 41.5112 29.4845C43.2121 27.7834 44.1678 25.4763 44.1678 23.0706C44.1678 20.6649 43.2121 18.3578 41.5112 16.6567C39.8102 14.9557 37.5032 14 35.0976 14ZM15.6616 21.7748C13.9434 21.7748 12.2955 22.4574 11.0805 23.6725C9.86551 24.8875 9.18294 26.5355 9.18294 28.2538C9.18294 29.1046 9.35051 29.9472 9.67609 30.7332C10.0017 31.5193 10.4789 32.2335 11.0805 32.8352C12.2955 34.0502 13.9434 34.7328 15.6616 34.7328C16.5124 34.7328 17.3549 34.5652 18.1409 34.2396C18.9269 33.914 19.6411 33.4368 20.2427 32.8352C20.8443 32.2335 21.3215 31.5193 21.6471 30.7332C21.9727 29.9472 22.1403 29.1046 22.1403 28.2538C22.1403 27.403 21.9727 26.5605 21.6471 25.7744C21.3215 24.9883 20.8443 24.2741 20.2427 23.6725C19.6411 23.0708 18.9269 22.5936 18.1409 22.268C17.3549 21.9424 16.5124 21.7748 15.6616 21.7748ZM54.5336 21.7748C52.8154 21.7748 51.1675 22.4574 49.9525 23.6725C48.7375 24.8875 48.055 26.5355 48.055 28.2538C48.055 29.1046 48.2225 29.9472 48.5481 30.7332C48.8737 31.5193 49.3509 32.2335 49.9525 32.8352C51.1675 34.0502 52.8154 34.7328 54.5336 34.7328C55.3844 34.7328 56.2269 34.5652 57.0129 34.2396C57.7989 33.914 58.5131 33.4368 59.1147 32.8352C59.7163 32.2335 60.1935 31.5193 60.5191 30.7332C60.8447 29.9472 61.0123 29.1046 61.0123 28.2538C61.0123 26.5355 60.3297 24.8875 59.1147 23.6725C57.8997 22.4574 56.2519 21.7748 54.5336 21.7748Z" fill="#0B2D1F"/>
<path id="Vector" d="M50.557 40.0526C50.1233 39.6189 49.4201 39.6189 48.9864 40.0526L47.8758 41.1633C47.6675 41.3716 47.385 41.4887 47.0904 41.4887H46.8997C46.2863 41.4887 45.7891 41.9859 45.7891 42.5993V42.5993C45.7891 43.2127 46.2863 43.71 46.8997 43.71H48.0101C48.3047 43.71 48.5872 43.5929 48.7955 43.3847L50.557 41.6231C50.9907 41.1894 50.9907 40.4863 50.557 40.0526V40.0526ZM54.6741 41.4887C54.0607 41.4887 53.5635 41.9859 53.5635 42.5993V42.5993C53.5635 43.2127 54.0607 43.71 54.6741 43.71H66.891C67.5044 43.71 68.0016 43.2127 68.0016 42.5993V42.5993C68.0016 41.9859 67.5044 41.4887 66.891 41.4887H54.6741ZM50.557 46.7166C50.1233 46.2829 49.4201 46.2829 48.9864 46.7166L47.8758 47.8273C47.6675 48.0356 47.385 48.1526 47.0904 48.1526H46.8997C46.2863 48.1526 45.7891 48.6499 45.7891 49.2633V49.2633C45.7891 49.8766 46.2863 50.3739 46.8997 50.3739H48.0101C48.3047 50.3739 48.5872 50.2569 48.7955 50.0486L50.557 48.2871C50.9907 47.8534 50.9907 47.1503 50.557 46.7166V46.7166ZM54.6741 48.1526C54.0607 48.1526 53.5635 48.6499 53.5635 49.2633V49.2633C53.5635 49.8766 54.0607 50.3739 54.6741 50.3739H66.891C67.5044 50.3739 68.0016 49.8766 68.0016 49.2633V49.2633C68.0016 48.6499 67.5044 48.1526 66.891 48.1526H54.6741ZM48.0103 54.2612C47.5685 54.2612 47.1447 54.4367 46.8323 54.7492C46.5199 55.0616 46.3444 55.4854 46.3444 55.9272C46.3444 56.3691 46.5199 56.7928 46.8323 57.1052C47.1447 57.4177 47.5685 57.5932 48.0103 57.5932C48.4522 57.5932 48.8759 57.4177 49.1883 57.1052C49.5007 56.7928 49.6763 56.3691 49.6763 55.9272C49.6763 55.4854 49.5007 55.0616 49.1883 54.7492C48.8759 54.4367 48.4522 54.2612 48.0103 54.2612ZM54.6741 54.8165C54.0607 54.8165 53.5635 55.3138 53.5635 55.9272V55.9272C53.5635 56.5406 54.0607 57.0379 54.6741 57.0379H66.891C67.5044 57.0379 68.0016 56.5406 68.0016 55.9272V55.9272C68.0016 55.3138 67.5044 54.8165 66.891 54.8165H54.6741Z" fill="#0B2D1F"/>
</g>
</g>
</svg>
