<svg width="72" height="72" viewBox="0 0 72 72" fill="none" xmlns="http://www.w3.org/2000/svg">
<g id="job-portal">
<g id="Group 1171275642">
<path id="Vector" fill-rule="evenodd" clip-rule="evenodd" d="M5.54898 11.2126C4.99872 11.5002 4.49847 12.0005 4.22334 12.5257C3.98573 12.9885 3.98573 13.5386 4.01076 35.6618L4.04826 58.3353L4.41095 58.8732C4.61103 59.1732 5.03624 59.5609 5.34888 59.7484L5.92417 60.0861L9.26324 60.1237L16.4791 60.1489H22.5321L57.5735 60.1738L61.8256 60.1237L66.0775 60.0861L66.653 59.7484C66.9655 59.5609 67.3908 59.1732 67.5908 58.8732L67.9536 58.3353L67.9909 35.8244C68.0161 19.8541 67.9909 13.1761 67.8911 12.8384C67.716 12.2506 67.1157 11.5628 66.5028 11.2376C66.0277 11 65.4774 11 35.9757 11C8.85055 11.0125 5.88664 11.025 5.54898 11.2126ZM9.43832 58.1478H12.5148H22.1944C25.2458 58.1478 58.3865 58.0977 58.3865 58.0728C58.3865 58.1102 59.9872 58.1478 61.9506 58.1478H65.5275L65.8275 57.835L66.1403 57.535V39.1385V20.7545H60.1373H54.122H5.86164V39.1261V57.4849L6.12425 57.8226L6.37438 58.1478H9.43832ZM37.0263 18.8787H60.1498H66.1403V16.1899C66.1403 13.4886 66.1403 13.4886 65.8275 13.1885L65.5275 12.8759H44.6924H23.87H14.2406H6.47441L6.17428 13.1885C5.86164 13.4886 5.86164 13.4886 5.86164 16.1899V18.8787H13.928H23.87H37.0263Z" fill="#0B2D1F"/>
<path id="Vector_2" d="M60.1478 18.8784H37.0243H23.868H13.9257H5.85938V16.1896C5.85938 13.4882 5.85937 13.4882 6.17201 13.1882L6.47214 12.8756H14.2384H23.868H44.6903H65.5254L65.8255 13.1882C66.1383 13.4882 66.1383 13.4882 66.1383 16.1896V18.8784H60.1478Z" fill="#22885E"/>
<path id="Vector_3" d="M9.93919 14.8739C9.66405 15.1866 9.66406 15.8243 9.95169 16.1371C10.2518 16.4623 11.0147 16.4496 11.3148 16.1247C11.6025 15.7995 11.6025 15.1991 11.3148 14.8739C11.0147 14.5362 10.2518 14.5362 9.93919 14.8739Z" fill="#0B2D1F"/>
<path id="Vector_4" d="M13.2159 14.8488C12.9283 15.1613 12.9408 15.9118 13.241 16.1743C13.6161 16.5244 14.2414 16.4746 14.5916 16.0742C14.9417 15.6616 14.9544 15.374 14.6168 14.9486C14.304 14.5485 13.5411 14.486 13.2159 14.8488Z" fill="#0B2D1F"/>
<path id="Vector_5" d="M16.4501 14.899C15.7499 15.8995 17.0505 16.9874 17.8384 16.0746C18.1885 15.6617 18.2009 15.3741 17.8633 14.949C17.5256 14.5112 16.7377 14.4861 16.4501 14.899Z" fill="#0B2D1F"/>
<path id="Vector_6" d="M11.1297 24.2533C10.7545 24.6286 10.7921 25.2914 11.2048 25.6167C11.5049 25.8542 11.705 25.8791 13.2682 25.8791H15.0067V28.9681C15.0067 31.6694 14.9815 32.1197 14.7816 32.5074C14.4688 33.1326 13.8435 33.5079 13.1307 33.5079C11.9801 33.5079 11.2548 32.67 11.2548 31.3569C11.2548 30.469 10.8921 29.9687 10.2793 29.9687C9.55399 29.9687 9.37891 30.2687 9.37891 31.5068C9.37891 32.4698 9.42893 32.6824 9.75407 33.3578C10.4544 34.746 11.5549 35.4338 13.1307 35.4338C13.8685 35.4338 14.1937 35.3713 14.6814 35.1462C15.4193 34.7836 16.1446 34.0831 16.5324 33.3578C16.8075 32.8326 16.82 32.72 16.8576 28.6681C16.8949 24.6286 16.8825 24.5036 16.6325 24.2533C16.3946 24.0157 16.232 24.0033 13.881 24.0033C11.5424 24.0033 11.3673 24.0157 11.1297 24.2533Z" fill="#0B2D1F"/>
<path id="Vector_7" d="M20.505 24.4034C19.5794 24.8788 18.8792 25.704 18.604 26.6171C18.4915 27.0173 18.4414 28.0051 18.4414 29.8812C18.4414 32.9075 18.5164 33.2078 19.4419 34.2332C20.5174 35.4337 22.4433 35.8214 23.8315 35.0961C24.1816 34.921 24.732 34.4832 25.0569 34.1207C25.9449 33.1453 26.0325 32.6699 25.9825 29.4683C25.9449 27.0798 25.92 26.767 25.6824 26.2419C25.0196 24.8287 23.9189 24.0909 22.3183 24.0284C21.3802 23.9783 21.2677 24.0032 20.505 24.4034ZM23.2311 26.2167C24.0315 26.8171 24.0691 26.9421 24.1067 29.5059C24.144 31.6445 24.1316 31.9196 23.894 32.4324C23.5688 33.1702 23.0309 33.5079 22.1557 33.5079C21.5553 33.5079 21.4427 33.4578 20.9676 33.02L20.4422 32.5198L20.4049 29.8561C20.3673 27.2424 20.3673 27.1799 20.6549 26.7546C21.2301 25.8918 22.4557 25.6415 23.2311 26.2167Z" fill="#0B2D1F"/>
<path id="Vector_8" d="M27.9119 24.2909C27.6367 24.5785 27.6367 24.6161 27.6367 29.7436V34.8959L27.9495 35.1962C28.2495 35.5087 28.2871 35.5087 30.3007 35.5087C33.2395 35.5087 34.0274 35.2087 34.8152 33.7455C35.1405 33.1703 35.1778 32.9576 35.1905 32.0071C35.1905 31.0815 35.1529 30.8315 34.8529 30.2187C34.6526 29.831 34.365 29.4059 34.19 29.2682L33.8899 29.0306L34.1399 28.5804C34.2901 28.3429 34.44 27.8426 34.4776 27.4673C34.615 26.1418 33.9397 24.9286 32.7392 24.3282C32.1264 24.0157 31.989 24.0033 30.1381 24.0033C28.2495 24.0033 28.1746 24.0157 27.9119 24.2909ZM32.0014 26.0793C32.3767 26.3418 32.6391 26.967 32.5517 27.4173C32.5141 27.605 32.3142 27.8926 32.114 28.0677C31.7763 28.3553 31.6389 28.3802 30.6259 28.3802H29.5128V27.1297V25.8791H30.6132C31.4262 25.8791 31.7888 25.9292 32.0014 26.0793ZM32.9018 30.7438C33.2271 31.0815 33.2644 31.1941 33.2644 31.9446C33.2644 32.6949 33.2271 32.8074 32.9018 33.1451C32.5393 33.5079 32.5266 33.5079 31.026 33.5079H29.5128V31.9446V30.3813H31.026C32.5266 30.3813 32.5393 30.3813 32.9018 30.7438Z" fill="#0B2D1F"/>
<path id="Vector_9" d="M11.7751 45.9443C11.2025 46.1739 11.0118 46.5502 11.155 46.7521C11.2265 46.8898 11.5128 47.0826 11.7752 47.1835C12.2285 47.358 12.5625 47.3672 21.7715 47.3672C30.9804 47.3672 31.3145 47.358 31.7678 47.1835C32.0302 47.0826 32.3164 46.8898 32.3881 46.7521C32.5313 46.5502 32.3139 46.1739 31.7412 45.9443H31.1237H21.7715H12.4194H11.7751Z" fill="#0B2D1F"/>
<path id="Vector_10" d="M11.5615 41.6757C11.1794 41.9052 11.0521 42.2816 11.1476 42.4835C11.1954 42.6212 11.3864 42.8139 11.5616 42.9149C11.864 43.0894 12.087 43.0985 18.2328 43.0985C24.3785 43.0985 24.6014 43.0894 24.9039 42.9149C25.0789 42.8139 25.27 42.6212 25.3179 42.4835C25.4133 42.2816 25.2684 41.9052 24.8862 41.6757H24.4739H18.2328H11.9914H11.5615Z" fill="#0B2D1F"/>
<path id="Vector_11" d="M11.7751 50.2131C11.2025 50.4427 11.0118 50.819 11.155 51.0209C11.2265 51.1586 11.5128 51.3514 11.7752 51.4526C12.2285 51.6268 12.5625 51.636 21.7715 51.636C30.9804 51.636 31.3145 51.6268 31.7678 51.4526C32.0302 51.3514 32.3164 51.1586 32.3881 51.0209C32.5313 50.819 32.3139 50.4427 31.7412 50.2131H31.1237H21.7715H12.4194H11.7751Z" fill="#0B2D1F"/>
<path id="Vector_12" d="M46.7263 27.5143C43.8289 27.9396 41.202 29.6509 39.6559 32.1229C38.9203 33.2988 38.415 34.6898 38.2198 36.0609C38.1247 36.7213 38.1247 38.1724 38.2198 38.833C38.6352 41.7553 40.3365 44.3822 42.8284 45.9436C44.0543 46.7091 45.5504 47.2395 46.9564 47.4046C47.6419 47.4848 49.2583 47.4447 49.8786 47.3297C51.1098 47.1046 52.3606 46.6341 53.3713 46.0136L53.6617 45.8335L57.0743 49.2412C58.9506 51.1175 60.5869 52.7088 60.707 52.784C61.0172 52.974 61.3325 53.0592 61.7628 53.0592C62.5335 53.0592 63.0988 52.7339 63.5341 52.0434C63.6792 51.8081 63.7644 51.4527 63.7644 51.0575C63.7644 50.6272 63.6792 50.3119 63.4893 50.0017C63.414 49.8816 61.8228 48.2453 59.9465 46.3689L56.5389 42.9561L56.7189 42.666C57.3395 41.6552 57.8099 40.4041 58.035 39.1732C58.15 38.5529 58.1901 36.9365 58.1099 36.2509C57.9047 34.5095 57.1943 32.7684 56.0884 31.3171C55.6982 30.8019 54.7975 29.9011 54.282 29.5107C52.8761 28.4449 51.2447 27.7543 49.5385 27.5143C48.903 27.4241 47.3468 27.4241 46.7263 27.5143ZM49.4433 28.5701C51.8501 28.9504 53.9319 30.2012 55.3428 32.1127C56.2535 33.3386 56.7839 34.6199 57.0292 36.1558C57.1293 36.7863 57.1343 38.0623 57.0342 38.723C56.4388 42.671 53.3763 45.7334 49.4284 46.3288C48.7677 46.4289 47.4917 46.424 46.8615 46.3239C44.4545 45.9436 42.3729 44.6925 40.9617 42.781C40.0511 41.5551 39.5206 40.2741 39.2756 38.7379C39.1705 38.0925 39.1705 36.8015 39.2756 36.1558C39.6559 33.749 40.9067 31.6674 42.8182 30.2562C44.0192 29.3707 45.2152 28.8552 46.7263 28.59C47.3919 28.47 48.7677 28.4601 49.4433 28.5701ZM56.6039 44.5224L57.2745 45.198L56.944 45.5531C56.764 45.7484 56.4537 46.0587 56.2585 46.2387L55.8984 46.5689L55.2228 45.8936L54.5422 45.213L55.2129 44.5374C55.5832 44.1671 55.8934 43.8568 55.9084 43.8568C55.9233 43.8518 56.2386 44.1521 56.6039 44.5224ZM62.5684 50.552C62.9738 51.1775 62.5183 52.0083 61.7678 52.0083C61.6226 52.0083 61.4376 51.9732 61.3474 51.9281C61.2576 51.8833 60.1716 50.8324 58.9257 49.5913L56.6689 47.3396L57.3494 46.6491L58.035 45.9635L60.2316 48.1452C61.4376 49.3512 62.4884 50.432 62.5684 50.552Z" fill="#0B2D1F"/>
<path id="Vector_13" d="M62.5714 50.5521C62.9768 51.1776 62.5213 52.0084 61.7708 52.0084C61.6256 52.0084 61.4406 51.9733 61.3504 51.9282C61.2606 51.8834 60.1746 50.8325 58.9287 49.5914L56.6719 47.3397L57.3524 46.6492L58.038 45.9636L60.2346 48.1453C61.4406 49.3513 62.4915 50.4321 62.5714 50.5521Z" fill="#22885E"/>
</g>
</g>
</svg>
