<svg width="72" height="72" viewBox="0 0 72 72" fill="none" xmlns="http://www.w3.org/2000/svg">
<g id="man-power-requisition">
<g id="Group 1171275674">
<rect id="Rectangle 34624987" x="56.2734" y="36.1266" width="10.0528" height="20.1055" fill="#22885E"/>
<rect id="Rectangle 34624988" x="39.1836" y="36.1266" width="10.0528" height="20.1055" fill="#22885E"/>
<g id="Group 1171275673">
<path id="Subtract" fill-rule="evenodd" clip-rule="evenodd" d="M38.1794 35.6333C37.1189 35.5094 36.1287 35.4474 35.2617 35.4474C29.1761 35.4474 17.0257 38.5034 17.0257 44.5659V51.079C17.0257 52.5172 18.1928 53.6843 19.6309 53.6843H38.1794V35.6333ZM4 45.1001C4 41.6716 10.0373 38.8257 14.156 38.1901C12.7153 39.9616 11.8154 42.0622 11.8154 44.5659V53.6843H6.60514C5.1671 53.6843 4 52.5172 4 51.079V45.1001Z" fill="#22885E"/>
<path id="Subtract_2" fill-rule="evenodd" clip-rule="evenodd" d="M4 45.1002C4 43.0691 6.11878 41.2425 8.7023 39.9588C10.4798 39.0755 12.4772 38.4493 14.156 38.1902C13.0678 39.5283 12.2882 41.0541 11.9718 42.7995C11.8693 43.3649 11.8154 43.9534 11.8154 44.566V53.6844H6.60514C5.1671 53.6844 4 52.5173 4 51.0791V45.1002ZM31.5775 17.4341C32.5546 16.4569 33.8799 15.9079 35.2617 15.9079C36.6436 15.9079 37.9688 16.4569 38.9459 17.4341C39.9231 18.4112 40.472 19.7365 40.472 21.1185C40.472 22.5004 39.9231 23.8257 38.9459 24.8029C37.9688 25.7801 36.6436 26.329 35.2617 26.329C33.8799 26.329 32.5546 25.7801 31.5775 24.8029C30.6004 23.8257 30.0514 22.5004 30.0514 21.1185C30.0514 19.7365 30.6004 18.4112 31.5775 17.4341ZM13.881 24.4868C14.3696 23.9982 15.0322 23.7237 15.7231 23.7237C16.0653 23.7237 16.404 23.7911 16.7201 23.9221C17.0362 24.053 17.3233 24.2449 17.5653 24.4868C17.8072 24.7287 17.9991 25.0159 18.13 25.332C18.2609 25.6481 18.3283 25.9869 18.3283 26.329C18.3283 26.6712 18.2609 27.0099 18.13 27.326C17.9991 27.6421 17.8072 27.9293 17.5653 28.1712C17.3233 28.4132 17.0362 28.6051 16.7201 28.736C16.404 28.8669 16.0653 28.9343 15.7231 28.9343C15.0322 28.9343 14.3696 28.6598 13.881 28.1712C13.6391 27.9293 13.4472 27.6421 13.3163 27.326C13.1854 27.0099 13.118 26.6712 13.118 26.329C13.118 25.6381 13.3925 24.9754 13.881 24.4868ZM52.9582 24.4868C53.4467 23.9982 54.1094 23.7237 54.8003 23.7237C55.4912 23.7237 56.1538 23.9982 56.6424 24.4868C57.131 24.9754 57.4054 25.6381 57.4054 26.329C57.4054 26.6711 57.3381 27.0099 57.2071 27.326C57.0762 27.6421 56.8843 27.9293 56.6424 28.1712C56.4005 28.4132 56.1133 28.6051 55.7972 28.736C55.4812 28.8669 55.1424 28.9343 54.8003 28.9343C54.1094 28.9343 53.4467 28.6598 52.9582 28.1712C52.7163 27.9293 52.5244 27.6421 52.3935 27.326C52.2625 27.0099 52.1951 26.6711 52.1951 26.329C52.1951 25.6381 52.4696 24.9754 52.9582 24.4868ZM20.9334 44.566C20.9334 44.486 20.9425 44.1264 21.6695 43.4555C22.4229 42.7601 23.6542 42.0263 25.3149 41.3609C28.6426 40.0276 32.7076 39.3554 35.2617 39.3554C36.0985 39.3554 37.0974 39.4276 38.1794 39.5715V35.6334C37.1189 35.5095 36.1287 35.4475 35.2617 35.4475C29.1761 35.4475 17.0257 38.5035 17.0257 44.566V51.0791C17.0257 52.5173 18.1928 53.6844 19.6309 53.6844H38.1794V49.7765H20.9334V44.566ZM35.2617 12C32.8435 12 30.5243 12.9607 28.8143 14.6707C27.1044 16.3808 26.1437 18.7001 26.1437 21.1185C26.1437 23.5368 27.1044 25.8562 28.8143 27.5662C30.5243 29.2762 32.8435 30.2369 35.2617 30.2369C37.68 30.2369 39.9992 29.2762 41.7091 27.5662C43.4191 25.8562 44.3797 23.5368 44.3797 21.1185C44.3797 18.7001 43.4191 16.3808 41.7091 14.6707C39.9992 12.9607 37.68 12 35.2617 12ZM15.7231 19.8158C13.9958 19.8158 12.3393 20.502 11.1179 21.7235C9.89646 22.945 9.21029 24.6016 9.21029 26.329C9.21029 27.1843 9.37875 28.0313 9.70605 28.8215C10.0333 29.6117 10.5131 30.3297 11.1179 30.9345C12.3393 32.156 13.9958 32.8422 15.7231 32.8422C16.5784 32.8422 17.4253 32.6737 18.2155 32.3464C19.0057 32.0191 19.7237 31.5393 20.3284 30.9345C20.9332 30.3297 21.4129 29.6117 21.7402 28.8215C22.0675 28.0313 22.236 27.1843 22.236 26.329C22.236 25.4737 22.0675 24.6267 21.7402 23.8365C21.4129 23.0463 20.9332 22.3283 20.3284 21.7235C19.7237 21.1187 19.0057 20.6389 18.2155 20.3116C17.4253 19.9843 16.5784 19.8158 15.7231 19.8158ZM54.8003 19.8158C53.073 19.8158 51.4164 20.502 50.195 21.7235C48.9736 22.945 48.2874 24.6016 48.2874 26.329C48.2874 27.1843 48.4559 28.0313 48.7832 28.8215C49.1105 29.6117 49.5902 30.3297 50.195 30.9345C51.4164 32.156 53.073 32.8422 54.8003 32.8422C55.6556 32.8422 56.5025 32.6737 57.2927 32.3464C58.0828 32.0191 58.8008 31.5393 59.4056 30.9345C60.0104 30.3297 60.4901 29.6117 60.8174 28.8215C61.1447 28.0313 61.3131 27.1843 61.3131 26.329C61.3131 24.6016 60.627 22.945 59.4056 21.7235C58.1842 20.502 56.5276 19.8158 54.8003 19.8158Z" fill="#0B2D1F"/>
</g>
<path id="Vector" d="M65.5506 33.1108H55.7564C54.3974 33.1108 53.3078 34.2004 53.3078 35.5594V60.0446C53.3078 58.6857 54.3974 57.5961 55.7564 57.5961H65.5506C66.8973 57.5961 67.9991 56.4942 67.9991 55.1475V35.5594C67.9991 34.2004 66.8973 33.1108 65.5506 33.1108ZM63.1142 53.911H58.2171C57.5438 53.911 56.9929 53.3601 56.9929 52.6868C56.9929 52.0134 57.5438 51.4625 58.2171 51.4625H63.1142C63.7876 51.4625 64.3385 52.0134 64.3385 52.6868C64.3385 53.3601 63.7876 53.911 63.1142 53.911ZM63.1142 49.014H58.2171C57.5438 49.014 56.9929 48.4631 56.9929 47.7897C56.9929 47.1164 57.5438 46.5655 58.2171 46.5655H63.1142C63.7876 46.5655 64.3385 47.1164 64.3385 47.7897C64.3385 48.4631 63.7876 49.014 63.1142 49.014ZM64.1304 42.1704C64.6079 42.6601 64.6079 43.4314 64.1304 43.9088C63.6529 44.3863 62.8816 44.3863 62.3919 43.9088L61.89 43.4069L60.6657 42.1704L58.9395 43.9088C58.4498 44.3863 57.6785 44.3863 57.201 43.9088C56.7235 43.4314 56.7235 42.6601 57.201 42.1704L58.9395 40.4442L57.201 38.718C56.7235 38.2283 56.7235 37.457 57.201 36.9795C57.6785 36.502 58.4498 36.502 58.9395 36.9795L60.6657 38.718L62.3919 36.9795C62.8816 36.502 63.6529 36.502 64.1304 36.9795C64.6079 37.457 64.6079 38.2283 64.1304 38.718L62.3919 40.4442L64.1304 42.1704ZM48.4107 33.1108H38.6165C37.2576 33.1108 36.168 34.2004 36.168 35.5594V55.1475C36.168 56.4942 37.2576 57.5961 38.6165 57.5961H48.4107C49.7574 57.5961 50.8593 58.6857 50.8593 60.0446V35.5594C50.8593 34.2004 49.7574 33.1108 48.4107 33.1108ZM45.9744 53.911H41.0773C40.404 53.911 39.853 53.3601 39.853 52.6868C39.853 52.0134 40.404 51.4625 41.0773 51.4625H45.9744C46.6478 51.4625 47.1987 52.0134 47.1987 52.6868C47.1987 53.3601 46.6478 53.911 45.9744 53.911ZM45.9744 49.014H41.0773C40.404 49.014 39.853 48.4631 39.853 47.7897C39.853 47.1164 40.404 46.5655 41.0773 46.5655H45.9744C46.6478 46.5655 47.1987 47.1164 47.1987 47.7897C47.1987 48.4631 46.6478 49.014 45.9744 49.014ZM46.8436 41.3134L44.3828 43.7742C44.1502 44.0068 43.8319 44.1292 43.5136 44.1292H43.3912C43.0239 44.0925 42.6934 43.8843 42.4852 43.5783L40.0612 39.8932C39.6816 39.3301 39.8408 38.571 40.404 38.2038C40.9671 37.8242 41.7262 37.9834 42.0935 38.5466L43.7095 40.9828L45.1052 39.5749C45.5826 39.0975 46.3662 39.0975 46.8436 39.5749C47.3211 40.0524 47.3211 40.8359 46.8436 41.3134Z" fill="#0B2D1F"/>
</g>
</g>
</svg>
