<svg width="72" height="72" viewBox="0 0 72 72" fill="none" xmlns="http://www.w3.org/2000/svg">
<g id="work-location">
<g id="Group 1171275282">
<g id="Group">
<g id="Vector">
<path d="M51.0329 30.5445H42.6214V26.8436C42.6214 22.989 39.4815 19.8518 35.6241 19.8518H10.9973C7.13992 19.8518 4 22.989 4 26.8436V62.1179C4 63.1056 4.80247 63.908 5.7915 63.908H54.8642C55.8532 63.908 56.6571 63.1056 56.6571 62.1179V36.1632C56.6571 33.0644 54.1344 30.5445 51.0329 30.5445ZM27.679 60.3278H18.9424V51.2071C18.9424 50.8792 19.2112 50.6104 19.5391 50.6104H27.0823C27.4102 50.6104 27.679 50.8792 27.679 51.2071V60.3278ZM39.0384 60.3278H31.262V51.2071C31.262 48.9039 29.3868 47.0301 27.0823 47.0301H19.5391C17.2346 47.0301 15.358 48.9039 15.358 51.2071V60.3278H7.58299V26.8436C7.58299 24.9629 9.11385 23.4307 10.9973 23.4307H35.6228C37.5062 23.4307 39.037 24.9629 39.037 26.8436V60.3278H39.0384ZM53.0727 60.3278H42.6214V34.1248H51.0329C52.1564 34.1248 53.0727 35.0397 53.0727 36.1632V60.3278Z" fill="#0D313B"/>
<path d="M27.679 60.3278H18.9424V51.2071C18.9424 50.8792 19.2112 50.6104 19.5391 50.6104H27.0823C27.4102 50.6104 27.679 50.8792 27.679 51.2071V60.3278Z" fill="#2894B4"/>
</g>
</g>
<path id="Vector_2" d="M13.3555 30.5063H33.2636V34.0866H13.3555V30.5063Z" fill="#0D313B"/>
<path id="Vector_3" d="M13.3555 38.8958H33.2636V42.476H13.3555V38.8958Z" fill="#0D313B"/>
<g id="Group 1171275281">
<g id="Group_2">
<g id="Vector_4">
<path fill-rule="evenodd" clip-rule="evenodd" d="M41.3395 15.6683C39.075 17.771 37.5801 20.9341 37.5801 25.2254C37.5801 28.0263 39.2312 31.6647 41.73 35.4355C44.1665 39.1135 47.1587 42.5515 49.3247 44.867C50.0422 45.6331 51.1909 45.6331 51.9083 44.867C54.0744 42.5515 57.0666 39.1135 59.5031 35.4355C62.0019 31.6647 63.6541 28.0263 63.6541 25.2254C63.6541 20.9341 62.158 17.771 59.8935 15.6683C57.6041 13.543 54.3584 12.3457 50.6171 12.3457C46.8746 12.3457 43.6289 13.543 41.3395 15.6683ZM38.3836 12.4826C41.5998 9.49722 45.9591 8 50.6171 8C55.2751 8 59.6344 9.49722 62.8495 12.4826C66.0895 15.4906 67.9998 19.8533 67.9998 25.2254C67.9998 29.3991 65.69 33.9666 63.1256 37.8358C60.499 41.8001 57.3257 45.4374 55.0816 47.8354C52.6473 50.4383 48.5857 50.4383 46.1515 47.8354C43.9073 45.4374 40.7341 41.8001 38.1074 37.8358C35.543 33.9666 33.2344 29.3991 33.2344 25.2254C33.2344 19.8533 35.1435 15.4906 38.3836 12.4826Z" fill="#0D313B"/>
<path d="M41.3395 15.6683C39.075 17.771 37.5801 20.9341 37.5801 25.2254C37.5801 28.0263 39.2312 31.6647 41.73 35.4355C44.1665 39.1135 47.1587 42.5515 49.3247 44.867C50.0422 45.6331 51.1909 45.6331 51.9083 44.867C54.0744 42.5515 57.0666 39.1135 59.5031 35.4355C62.0019 31.6647 63.6541 28.0263 63.6541 25.2254C63.6541 20.9341 62.158 17.771 59.8935 15.6683C57.6041 13.543 54.3584 12.3457 50.6171 12.3457C46.8746 12.3457 43.6289 13.543 41.3395 15.6683Z" fill="#2894B4"/>
</g>
</g>
<path id="Vector_5" fill-rule="evenodd" clip-rule="evenodd" d="M50.6171 18.8642C48.2168 18.8642 46.2715 20.8096 46.2715 23.2099C46.2715 25.6102 48.2168 27.5556 50.6171 27.5556C53.0163 27.5556 54.9628 25.6102 54.9628 23.2099C54.9628 20.8096 53.0163 18.8642 50.6171 18.8642ZM41.9258 23.2099C41.9258 18.4093 45.8165 14.5186 50.6171 14.5186C55.4166 14.5186 59.3085 18.4093 59.3085 23.2099C59.3085 28.0094 55.4166 31.9013 50.6171 31.9013C45.8165 31.9013 41.9258 28.0094 41.9258 23.2099Z" fill="#0D313B"/>
</g>
</g>
</g>
</svg>
