<svg width="72" height="72" viewBox="0 0 72 72" fill="none" xmlns="http://www.w3.org/2000/svg">
<g id="man-power-plan-period">
<g id="Group 1171275671">
<g id="Group 1171275667">
<g id="Group 1171275655">
<path id="Subtract" fill-rule="evenodd" clip-rule="evenodd" d="M5.59766 41.2725V61.6827C5.59959 63.3576 6.26577 64.9633 7.45006 66.1476C8.63434 67.332 10.24 67.9982 11.9149 68.0001H14.8305C15.2171 68.0001 15.5879 67.8465 15.8613 67.5731C16.1347 67.2997 16.2883 66.9289 16.2883 66.5422V58.281H60.5087C62.1835 58.279 63.7892 57.6128 64.9735 56.4285C66.1577 55.2442 66.8239 53.6384 66.8259 51.9636V19.8904C66.8239 18.2155 66.1577 16.6098 64.9735 15.4255C63.7892 14.2411 62.1835 13.5749 60.5087 13.573H57.593C57.4016 13.573 57.212 13.6107 57.0351 13.6839C56.8582 13.7572 56.6975 13.8646 56.5621 13.9999C56.4268 14.1353 56.3194 14.296 56.2461 14.4729C56.1729 14.6498 56.1352 14.8394 56.1352 15.0309V16.4887H53.7055C53.3189 16.4887 52.9481 16.6423 52.6747 16.9157C52.4013 17.1891 52.2477 17.56 52.2477 17.9466C52.2477 18.3333 52.4013 18.7041 52.6747 18.9775C52.9481 19.2509 53.3189 19.4045 53.7055 19.4045H56.1352V47.104C56.1352 47.4906 56.2888 47.8614 56.5622 48.1348C56.8356 48.4082 57.2064 48.5618 57.593 48.5619H60.5087C61.4108 48.5619 62.276 48.9202 62.9139 49.5582C63.5519 50.1961 63.9102 51.0614 63.9102 51.9636C63.9102 52.8657 63.5519 53.731 62.9139 54.3689C62.276 55.0069 61.4108 55.3652 60.5087 55.3652H51.2758V40.3006C51.2758 39.9139 51.1222 39.5431 50.8489 39.2697C50.5755 38.9963 50.2047 38.8427 49.818 38.8427C49.4314 38.8427 49.0606 38.9963 48.7872 39.2697C48.5138 39.5431 48.3602 39.9139 48.3602 40.3006V55.3652H11.9149C10.7082 55.3653 9.52712 55.7134 8.51329 56.3678V41.2725H5.59766ZM11.9149 65.0844H13.3727V58.281H11.9149C11.0127 58.281 10.1475 58.6394 9.50958 59.2773C8.87166 59.9153 8.51329 60.7805 8.51329 61.6827C8.51329 62.5849 8.87166 63.4501 9.50958 64.088C10.1475 64.726 11.0127 65.0844 11.9149 65.0844ZM60.5087 45.6461C61.7146 45.6445 62.8955 45.9902 63.9102 46.6418V19.8904C63.9091 18.9886 63.5504 18.124 62.9127 17.4863C62.275 16.8486 61.4105 16.4898 60.5087 16.4887H59.0508V45.6461H60.5087Z" fill="#0D313B"/>
<path id="Subtract_2" fill-rule="evenodd" clip-rule="evenodd" d="M11.4258 41.2727V45.1603C11.427 46.0623 11.7859 46.927 12.4238 47.5647C13.0617 48.2024 13.9265 48.561 14.8284 48.562H39.5013L38.1019 49.961C37.8285 50.2345 37.675 50.6053 37.675 50.992C37.6751 51.3787 37.8288 51.7495 38.1022 52.0228C38.3757 52.2962 38.7465 52.4498 39.1332 52.4497C39.5198 52.4497 39.8906 52.296 40.164 52.0225L44.0527 48.1349C44.1881 47.9996 44.2956 47.8389 44.3689 47.662C44.4422 47.4852 44.4799 47.2956 44.4799 47.1041C44.4799 46.9127 44.4422 46.7231 44.3689 46.5462C44.2956 46.3694 44.1881 46.2087 44.0527 46.0734L40.164 42.1857C40.0286 42.0503 39.8679 41.9429 39.691 41.8696C39.5142 41.7963 39.3246 41.7586 39.1332 41.7585C38.9417 41.7585 38.7521 41.7962 38.5752 41.8694C38.3983 41.9427 38.2376 42.05 38.1022 42.1854C37.9668 42.3208 37.8594 42.4815 37.7861 42.6583C37.7128 42.8352 37.6751 43.0248 37.675 43.2162C37.675 43.4077 37.7127 43.5973 37.7859 43.7742C37.8592 43.9511 37.9665 44.1118 38.1019 44.2472L39.5013 45.6463H14.8284C14.6996 45.6461 14.576 45.5949 14.4849 45.5038C14.3938 45.4127 14.3425 45.2891 14.3423 45.1603V41.2727H11.4258Z" fill="#0D313B"/>
</g>
</g>
<g id="Group 1171275670">
<path id="Vector" d="M28.4545 21.5913C23.8887 21.5913 14.7727 23.884 14.7727 28.4324V33.3189C14.7727 34.3978 15.6483 35.2735 16.7273 35.2735H40.1818C41.2607 35.2735 42.1363 34.3978 42.1363 33.3189V28.4324C42.1363 23.884 33.0203 21.5913 28.4545 21.5913ZM12.6197 23.649C9.52953 24.1259 5 26.261 5 28.8332V33.3189C5 34.3978 5.87564 35.2735 6.95454 35.2735H10.8636V28.4324C10.8636 26.554 11.5388 24.9781 12.6197 23.649ZM44.2894 23.649C45.3702 24.9781 46.0454 26.554 46.0454 28.4324V35.2735H49.9545C51.0334 35.2735 51.909 34.3978 51.909 33.3189V28.8332C51.909 26.261 47.3795 24.1259 44.2894 23.649Z" fill="#2894B4"/>
<path id="Vector (Stroke)" fill-rule="evenodd" clip-rule="evenodd" d="M8.52796 24.9759C6.58965 25.939 5 27.3094 5 28.8332V33.3189C5 34.3978 5.87564 35.2735 6.95454 35.2735H10.8636V28.4324C10.8636 27.9728 10.9041 27.5313 10.9809 27.1072C11.2183 25.7976 11.8033 24.6529 12.6197 23.649C11.3602 23.8434 9.86154 24.3132 8.52796 24.9759ZM45.9281 27.1072C46.005 27.5313 46.0454 27.9728 46.0454 28.4324V35.2735H49.9545C51.0334 35.2735 51.909 34.3978 51.909 33.3189V28.8332C51.909 27.3094 50.3194 25.939 48.3811 24.9759C47.0475 24.3132 45.5489 23.8434 44.2894 23.649C45.1058 24.6529 45.6907 25.7976 45.9281 27.1072ZM28.4545 6.93189C27.4178 6.93189 26.4235 7.34375 25.6904 8.07686C24.9573 8.80998 24.5454 9.80429 24.5454 10.8411C24.5454 11.8779 24.9573 12.8722 25.6904 13.6053C26.4235 14.3384 27.4178 14.7503 28.4545 14.7503C29.4913 14.7503 30.4856 14.3384 31.2187 13.6053C31.9517 12.8722 32.3636 11.8779 32.3636 10.8411C32.3636 9.80429 31.9517 8.80998 31.2187 8.07686C30.4856 7.34375 29.4913 6.93189 28.4545 6.93189ZM13.7954 12.7957C13.2771 12.7957 12.7799 13.0016 12.4134 13.3682C12.0468 13.7347 11.8409 14.2319 11.8409 14.7503C11.8409 15.0069 11.8915 15.2611 11.9897 15.4982C12.0879 15.7354 12.2319 15.9509 12.4134 16.1324C12.7799 16.4989 13.2771 16.7048 13.7954 16.7048C14.0521 16.7048 14.3063 16.6543 14.5434 16.5561C14.7805 16.4578 14.996 16.3139 15.1775 16.1324C15.359 15.9509 15.503 15.7354 15.6012 15.4982C15.6994 15.2611 15.75 15.0069 15.75 14.7503C15.75 14.4936 15.6994 14.2394 15.6012 14.0023C15.503 13.7651 15.359 13.5497 15.1775 13.3682C14.996 13.1867 14.7805 13.0427 14.5434 12.9444C14.3063 12.8462 14.0521 12.7957 13.7954 12.7957ZM43.1136 12.7957C42.5952 12.7957 42.0981 13.0016 41.7315 13.3682C41.365 13.7347 41.159 14.2319 41.159 14.7503C41.159 15.0069 41.2096 15.2611 41.3078 15.4982C41.406 15.7354 41.55 15.9509 41.7315 16.1324C42.0981 16.4989 42.5952 16.7048 43.1136 16.7048C43.3703 16.7048 43.6244 16.6543 43.8616 16.5561C44.0987 16.4578 44.3142 16.3139 44.4957 16.1324C44.6771 15.9509 44.8211 15.7354 44.9193 15.4982C45.0176 15.2611 45.0681 15.0069 45.0681 14.7503C45.0681 14.2319 44.8622 13.7347 44.4957 13.3682C44.1291 13.0016 43.632 12.7957 43.1136 12.7957ZM18.2568 27.5993C17.7113 28.1026 17.7045 28.3724 17.7045 28.4324V32.3416H39.2045V28.4324C39.2045 28.3724 39.1977 28.1026 38.6523 27.5993C38.087 27.0776 37.1632 26.527 35.9173 26.0278C33.4206 25.0275 30.3707 24.5232 28.4545 24.5232C26.5383 24.5232 23.4885 25.0275 20.9918 26.0278C19.7458 26.527 18.822 27.0776 18.2568 27.5993ZM23.6173 6.0037C24.9002 4.72075 26.6402 4 28.4545 4C30.2688 4 32.0088 4.72075 33.2918 6.0037C34.5747 7.28665 35.2954 9.02671 35.2954 10.8411C35.2954 12.6554 34.5747 14.3955 33.2918 15.6784C32.0088 16.9614 30.2688 17.6821 28.4545 17.6821C26.6402 17.6821 24.9002 16.9614 23.6173 15.6784C22.3343 14.3955 21.6136 12.6554 21.6136 10.8411C21.6136 9.02671 22.3343 7.28665 23.6173 6.0037ZM10.3403 11.295C11.2566 10.3786 12.4995 9.86378 13.7954 9.86378C14.4371 9.86378 15.0725 9.99017 15.6654 10.2357C16.2582 10.4813 16.7969 10.8412 17.2506 11.295C17.7044 11.7487 18.0643 12.2874 18.3098 12.8803C18.5554 13.4731 18.6818 14.1086 18.6818 14.7503C18.6818 15.392 18.5554 16.0274 18.3098 16.6202C18.0643 17.2131 17.7044 17.7518 17.2506 18.2055C16.7969 18.6593 16.2582 19.0192 15.6654 19.2648C15.0725 19.5103 14.4371 19.6367 13.7954 19.6367C12.4995 19.6367 11.2566 19.1219 10.3403 18.2055C9.88653 17.7518 9.5266 17.2131 9.28104 16.6202C9.03547 16.0274 8.90909 15.392 8.90909 14.7503C8.90909 13.4543 9.4239 12.2114 10.3403 11.295ZM39.6584 11.295C40.5748 10.3786 41.8176 9.86378 43.1136 9.86378C44.4095 9.86378 45.6524 10.3786 46.5688 11.295C47.4851 12.2114 47.9999 13.4543 47.9999 14.7503C47.9999 15.392 47.8735 16.0274 47.628 16.6202C47.3824 17.2131 47.0225 17.7518 46.5688 18.2055C46.115 18.6593 45.5763 19.0192 44.9835 19.2648C44.3907 19.5103 43.7553 19.6367 43.1136 19.6367C41.8176 19.6367 40.5748 19.1219 39.6584 18.2055C39.2047 17.7518 38.8447 17.2131 38.5992 16.6202C38.3536 16.0274 38.2272 15.392 38.2272 14.7503C38.2272 13.4543 38.742 12.2114 39.6584 11.295ZM14.7727 28.4324C14.7727 23.8841 23.8887 21.5913 28.4545 21.5913C33.0203 21.5913 42.1363 23.8841 42.1363 28.4324V33.3189C42.1363 34.3978 41.2607 35.2735 40.1818 35.2735H16.7273C15.6483 35.2735 14.7727 34.3978 14.7727 33.3189V28.4324Z" fill="#0D313B"/>
</g>
</g>
</g>
</svg>
