<svg width="72" height="72" viewBox="0 0 72 72" fill="none" xmlns="http://www.w3.org/2000/svg">
<g id="schedulling-interview">
<ellipse id="Ellipse 2734" cx="47.5" cy="33.5" rx="8.5" ry="7.5" fill="#2894B4"/>
<ellipse id="Ellipse 2735" cx="23.5" cy="39.5" rx="8.5" ry="7.5" fill="#2894B4"/>
<path id="Ellipse 2736" d="M34 60C34 56.8174 32.9464 53.7652 31.0711 51.5147C29.1957 49.2643 26.6522 48 24 48C21.3478 48 18.8043 49.2643 16.9289 51.5147C15.0536 53.7652 14 56.8174 14 60L24 60H34Z" fill="#2894B4"/>
<path id="Ellipse 2737" d="M57 54C57 50.8174 55.9464 47.7652 54.0711 45.5147C52.1957 43.2643 49.6522 42 47 42C44.3478 42 41.8043 43.2643 39.9289 45.5147C38.0536 47.7652 37 50.8174 37 54L47 54H57Z" fill="#2894B4"/>
<rect id="Rectangle 34624953" x="34" y="55" width="23" height="5" fill="#2894B4"/>
<rect id="Rectangle 34624952" x="6" y="12" width="60" height="8" fill="#2894B4"/>
<g id="Group 1171275601">
<path id="Vector" d="M54.5125 4.24805H56.0009C56.2109 4.32081 56.4193 4.39854 56.6309 4.46469C57.3488 4.6691 58.0093 5.03776 58.5601 5.54149C59.1109 6.04522 59.5369 6.67021 59.8045 7.36701C60.0327 7.9326 60.1154 8.55606 60.2808 9.21921H65.9779C67.2315 9.21921 67.6317 9.63265 67.6317 10.8961C67.6317 29.2858 67.6361 47.6754 67.6449 66.0651C67.6449 66.8275 67.4266 67.3881 66.7651 67.7519H4.25V10.0775C4.64029 9.39285 5.23398 9.1696 6.00298 9.20929C6.86624 9.25229 7.73115 9.21921 8.59606 9.21921H11.6538C12.0458 6.87089 12.7767 5.67027 14.3544 4.84505C14.8373 4.59203 15.3748 4.44484 15.8875 4.24805H17.3758C17.5114 4.29104 17.647 4.33735 17.7843 4.37539C19.7787 4.90293 21.0273 6.17466 21.5334 8.179C21.6177 8.50975 21.6392 8.85869 21.6888 9.18614H50.2061C50.2342 8.99099 50.2607 8.83058 50.2805 8.66851C50.4988 6.91554 51.4084 5.63058 52.9513 4.81528C53.4359 4.55399 53.9899 4.43161 54.5125 4.24805ZM6.75874 65.2167H65.1081V21.7232H6.75874V65.2167ZM6.75874 19.1318H65.1081V11.7445H60.2196C60.1733 12.0587 60.1336 12.3431 60.0856 12.6276C59.7036 14.9263 57.5207 16.7504 55.2319 16.6842C54.582 16.6644 54.0991 16.2724 54.0015 15.692C53.9427 15.4166 53.9827 15.1292 54.1145 14.8804C54.2464 14.6315 54.4616 14.437 54.7225 14.3309C54.9786 14.2538 55.2428 14.2066 55.5097 14.1904C56.1036 14.1251 56.6516 13.8396 57.0453 13.3902C57.439 12.9407 57.6499 12.36 57.6364 11.7627H14.2469C14.2469 13.1469 15.1234 14.0349 16.6217 14.2053C17.48 14.3028 17.9546 14.8105 17.8984 15.5679C17.8438 16.284 17.3014 16.7074 16.4663 16.6859C15.4909 16.6529 14.5477 16.3284 13.7586 15.7542C12.9695 15.1799 12.3705 14.3823 12.0392 13.4644C11.8697 12.9037 11.7295 12.3346 11.6191 11.7594H6.76205L6.75874 19.1318ZM14.2188 9.1729H19.109C19.1115 8.54141 18.8678 7.93379 18.4297 7.47899C17.9915 7.02419 17.3934 6.75801 16.7623 6.73694C15.4029 6.68732 14.3213 7.70769 14.2221 9.1729H14.2188ZM57.6463 9.18779C57.61 7.76391 56.5102 6.70717 55.1409 6.73694C54.825 6.74253 54.5133 6.81041 54.2237 6.9367C53.934 7.06298 53.6721 7.24519 53.4531 7.47287C53.234 7.70056 53.062 7.96924 52.947 8.26352C52.8319 8.5578 52.7761 8.87189 52.7827 9.18779H57.6463Z" fill="#0D313B"/>
<path id="Vector (Stroke)" fill-rule="evenodd" clip-rule="evenodd" d="M15.8395 4H17.4123L17.4489 4.0116C17.4892 4.02437 17.5281 4.03698 17.5662 4.04931C17.6625 4.08049 17.7534 4.10993 17.8472 4.13597C18.88 4.40938 19.7316 4.87893 20.3918 5.54936C21.0522 6.22003 21.5099 7.08042 21.7719 8.1183C21.772 8.11848 21.7719 8.11811 21.7719 8.1183C21.8331 8.35842 21.865 8.61994 21.8938 8.85659C21.8972 8.88411 21.9005 8.91131 21.9038 8.93809H21.6869V9.18615L21.9321 9.14899C21.9221 9.08283 21.913 9.01202 21.9038 8.93809H49.9902C49.9893 8.94377 49.9885 8.94947 49.9876 8.95522C49.9785 9.01589 49.9688 9.08026 49.9587 9.15078L50.2042 9.18615V8.93809H49.9902C50.0062 8.83191 50.0204 8.73656 50.0324 8.63838C50.2608 6.8038 51.22 5.4489 52.8325 4.59648C52.8323 4.59664 52.832 4.5968 52.8317 4.59696L52.9494 4.8153L52.8335 4.59597C52.8332 4.59614 52.8329 4.59631 52.8325 4.59648C53.0941 4.45556 53.3699 4.35436 53.6388 4.26669C53.7491 4.23073 53.8549 4.19801 53.9585 4.16595C54.1172 4.11687 54.2709 4.06932 54.4283 4.01402L54.4682 4H56.0407L56.0801 4.01367C56.1475 4.03702 56.2131 4.06025 56.2776 4.08312C56.4204 4.13374 56.5582 4.1826 56.7001 4.22701C56.699 4.22672 56.698 4.22642 56.6969 4.22612L56.629 4.4647L56.703 4.22793C56.702 4.22763 56.701 4.22732 56.7001 4.22701C57.4537 4.44215 58.1472 4.82948 58.7256 5.35845C59.3043 5.88769 59.752 6.54421 60.0334 7.27617C60.0331 7.27551 60.0329 7.27486 60.0326 7.27421L59.8026 7.36703L60.0341 7.27811C60.0339 7.27746 60.0336 7.27681 60.0334 7.27617C60.1546 7.57708 60.2356 7.88911 60.3062 8.2019C60.3328 8.31946 60.3575 8.43514 60.3821 8.55074C60.4119 8.68996 60.4416 8.82906 60.4744 8.97116H60.2788V9.21922L60.5195 9.1592C60.5037 9.09578 60.4888 9.03318 60.4744 8.97116H65.976C66.6156 8.97116 67.119 9.07324 67.4499 9.41002C67.7796 9.74554 67.8778 10.2532 67.8778 10.8961C67.8778 29.2857 67.8822 47.6754 67.8911 66.065C67.8911 66.4679 67.8337 66.8401 67.674 67.1669C67.5121 67.4983 67.2537 67.7653 66.8827 67.9693L66.8269 68H4V10.0118L4.03256 9.95467C4.25029 9.57272 4.53289 9.30734 4.87792 9.14686C5.2192 8.98812 5.60345 8.94041 6.01368 8.96156C6.60734 8.99112 7.19725 8.98427 7.79615 8.97731C8.06003 8.97425 8.32566 8.97116 8.59412 8.97116H11.4432C11.4309 9.03932 11.4189 9.10839 11.4072 9.17839L11.6519 9.21922V8.97116H11.4432C11.6402 7.88094 11.9203 7.02301 12.3463 6.33095C12.8022 5.59026 13.4156 5.05518 14.2375 4.62526C14.2376 4.62523 14.2375 4.62528 14.2375 4.62526C14.5832 4.44413 14.9681 4.31016 15.3317 4.1836C15.4926 4.12759 15.6493 4.07303 15.7966 4.01648L15.8395 4ZM15.9312 4.49612C15.7667 4.55834 15.6069 4.61386 15.451 4.668C15.1062 4.78772 14.7807 4.90075 14.4676 5.06479C13.7119 5.46009 13.1708 5.938 12.7688 6.59102C12.3635 7.24938 12.09 8.10127 11.8966 9.26006L11.862 9.46729H8.59412C8.33822 9.46729 8.07958 9.47028 7.81933 9.47329C7.21314 9.4803 6.59821 9.48742 5.9887 9.45706C5.63 9.43854 5.3325 9.48259 5.08715 9.59671C4.86051 9.70212 4.66224 9.87455 4.49613 10.1453V67.5039H66.6974C66.9569 67.35 67.1228 67.165 67.2283 66.9491C67.3431 66.714 67.3949 66.4246 67.3949 66.0652M15.9312 4.49612H17.3353C17.3577 4.50334 17.3807 4.51076 17.4039 4.51829C17.5042 4.55075 17.6108 4.58527 17.7161 4.61445L17.7189 4.61522C18.6799 4.86941 19.4494 5.29937 20.0383 5.89746C20.6273 6.49563 21.0469 7.27328 21.2909 8.23974C21.3443 8.4492 21.3693 8.65574 21.3958 8.87516C21.4094 8.98697 21.4233 9.10227 21.4416 9.22331L21.4736 9.43421H50.4191L50.4497 9.22152C50.4588 9.15844 50.468 9.09749 50.4769 9.03812C50.4946 8.92042 50.5113 8.8089 50.5248 8.69918C50.7328 7.02818 51.5925 5.81282 53.0653 5.03462L53.0671 5.03364C53.2899 4.91352 53.533 4.82301 53.7926 4.73838C53.8871 4.70757 53.9871 4.67658 54.0891 4.64496C54.2429 4.59727 54.4014 4.54816 54.5524 4.49612H55.957C56.0045 4.51274 56.0528 4.52986 56.1017 4.54719C56.2497 4.59963 56.4029 4.65393 56.555 4.70147L56.5611 4.70328C57.2419 4.89716 57.8683 5.2468 58.3907 5.72456C58.9131 6.20232 59.3172 6.79508 59.571 7.45595L59.5725 7.45985C59.6791 7.72392 59.7533 8.00573 59.8223 8.31117C59.8461 8.41685 59.8698 8.52736 59.894 8.64085C59.9382 8.8474 59.9844 9.06386 60.0381 9.27925L60.085 9.46729H65.976C66.59 9.46729 66.9134 9.57193 67.096 9.75774C67.2798 9.9448 67.3817 10.2756 67.3817 10.8961C67.3817 29.2858 67.3861 47.6756 67.3949 66.0652M13.9727 9.15616C14.0801 7.57077 15.2629 6.43428 16.769 6.48904C17.4645 6.51236 18.1236 6.80572 18.6064 7.3069C19.0893 7.80817 19.3578 8.47788 19.3551 9.1739L19.3541 9.42098H14.2169V9.1727L13.9727 9.15616ZM14.4979 8.92486H18.8459C18.7935 8.44829 18.5849 7.9997 18.2491 7.6511C17.8557 7.24278 17.3187 7.0038 16.7521 6.98488C15.621 6.9436 14.6914 7.72761 14.4979 8.92486ZM55.1341 6.48894C56.6444 6.45637 57.8526 7.62583 57.8924 9.18147L57.8989 9.43587H52.5378L52.5327 9.19297C52.5255 8.84443 52.5871 8.49789 52.714 8.17321C52.8409 7.84854 53.0307 7.5521 53.2724 7.30089C53.5141 7.04969 53.803 6.84866 54.1226 6.70932C54.442 6.57006 54.7857 6.49517 55.1341 6.48894ZM57.3772 8.93974C57.2298 7.78026 56.2903 6.96004 55.1444 6.98496L55.1434 6.98498C54.8601 6.98999 54.5806 7.05086 54.3209 7.1641C54.0611 7.27734 53.8263 7.44072 53.6299 7.64489C53.4334 7.84905 53.2792 8.08997 53.1761 8.35385C53.1025 8.54207 53.0559 8.73931 53.0374 8.93974H57.3772ZM60.0035 11.4964H65.3542V19.3798H6.50863L6.51216 11.5113H11.8222L11.8608 11.7126C11.9691 12.2773 12.1067 12.8359 12.2728 13.3863C12.5878 14.255 13.1553 15.0098 13.9026 15.5536C14.6514 16.0985 15.5462 16.4065 16.4717 16.4379C16.8472 16.4474 17.1303 16.3564 17.3205 16.208C17.5068 16.0626 17.6265 15.8449 17.6491 15.5493C17.6728 15.2294 17.5847 14.9846 17.42 14.8087C17.2519 14.6292 16.9798 14.4959 16.5918 14.4517C15.8009 14.3618 15.1488 14.0794 14.693 13.6125C14.2349 13.1432 13.9969 12.5097 13.9969 11.7627V11.5146H57.877L57.8825 11.7571C57.8974 12.4165 57.6646 13.0575 57.2299 13.5537C56.7953 14.0498 56.1905 14.365 55.5348 14.437L55.5229 14.4383C55.2791 14.4531 55.0378 14.4955 54.8037 14.565C54.6014 14.65 54.4346 14.8024 54.3318 14.9965C54.2272 15.1939 54.1955 15.4218 54.2421 15.6402L54.2444 15.6508C54.3197 16.099 54.6891 16.4194 55.2371 16.4363C57.3986 16.4988 59.4768 14.7666 59.839 12.5869C59.8761 12.3668 59.9082 12.1467 59.9428 11.9097C59.9523 11.844 59.9621 11.777 59.9722 11.7083L60.0035 11.4964ZM60.3284 12.6683C60.3657 12.4469 60.3982 12.225 60.4321 11.9926L60.3284 12.6683ZM57.3782 12.0108H14.5037C14.5493 12.5316 14.7407 12.951 15.048 13.2659C15.4051 13.6317 15.9403 13.8784 16.6478 13.9588C17.118 14.0123 17.5124 14.1815 17.7822 14.4696C18.0552 14.7613 18.1763 15.149 18.1439 15.5863C18.1118 16.0067 17.9331 16.3592 17.6258 16.5991C17.3225 16.8358 16.9171 16.9457 16.4579 16.9339L16.456 16.9338C15.431 16.8992 14.4399 16.5582 13.6107 15.9548C12.7815 15.3513 12.1521 14.5132 11.8039 13.5486L11.8017 13.5424L11.7998 13.5362C11.6476 13.0327 11.5187 12.5226 11.4134 12.0074H7.00806L7.00498 18.8837H64.8581V11.9926H60.4321M6.50874 21.4751H65.3542V65.4648H6.50874V21.4751ZM7.00487 21.9713V64.9687H64.8581V21.9713H7.00487Z" fill="#0D313B"/>
</g>
<g id="Vector_2">
<mask id="path-9-outside-1_6500_46128" maskUnits="userSpaceOnUse" x="12" y="23" width="47" height="39" fill="black">
<rect fill="white" x="12" y="23" width="47" height="39"/>
<path d="M51.3796 41.06C53.185 40.1399 54.6282 38.6387 55.4764 36.7984C56.3247 34.9581 56.5287 32.8857 56.0555 30.9153C55.5824 28.9449 54.4596 27.1912 52.8682 25.9367C51.2768 24.6822 49.3094 24 47.283 24C45.2565 24 43.2891 24.6822 41.6977 25.9368C40.1063 27.1913 38.9836 28.9451 38.5105 30.9155C38.0374 32.8859 38.2414 34.9582 39.0897 36.7985C39.938 38.6389 41.3812 40.14 43.1866 41.0601C41.1985 41.8746 39.4973 43.2616 38.2991 45.0449C37.1008 46.8282 36.4596 48.9274 36.4568 51.0759V52.8803H33.6546C32.5067 50.3881 30.4593 48.4218 27.9228 47.3754C29.7282 46.4553 31.1714 44.9541 32.0196 43.1138C32.8679 41.2735 33.0719 39.2011 32.5987 37.2307C32.1256 35.2603 31.0029 33.5066 29.4115 32.2521C27.8201 30.9976 25.8527 30.3154 23.8262 30.3154C21.7998 30.3154 19.8324 30.9976 18.241 32.2521C16.6496 33.5066 15.5269 35.2603 15.0538 37.2307C14.5806 39.2011 14.7846 41.2735 15.6329 43.1138C16.4811 44.9541 17.9243 46.4553 19.7297 47.3754C17.7416 48.1899 16.0405 49.5769 14.8422 51.3602C13.644 53.1435 13.0028 55.2427 13 57.3912V60.0977C13 60.2162 13.0233 60.3336 13.0686 60.443C13.1139 60.5525 13.1804 60.652 13.2642 60.7358C13.348 60.8195 13.4474 60.886 13.5569 60.9313C13.6664 60.9766 13.7837 61 13.9022 60.9999H57.2071C57.3256 61 57.4429 60.9767 57.5524 60.9314C57.6619 60.8861 57.7614 60.8196 57.8452 60.7358C57.929 60.652 57.9954 60.5526 58.0407 60.4431C58.0861 60.3336 58.1093 60.2162 58.1093 60.0977V51.0759C58.1066 48.9274 57.4654 46.8282 56.2671 45.0448C55.0689 43.2615 53.3677 41.8745 51.3796 41.06ZM40.0656 33.0322C40.0656 31.6047 40.4889 30.2093 41.2819 29.0223C42.075 27.8354 43.2022 26.9104 44.521 26.3641C45.8399 25.8178 47.2911 25.6749 48.6911 25.9534C50.0912 26.2319 51.3772 26.9193 52.3866 27.9286C53.396 28.938 54.0834 30.2241 54.3619 31.6241C54.6403 33.0242 54.4974 34.4754 53.9511 35.7942C53.4049 37.113 52.4798 38.2402 51.2929 39.0333C50.106 39.8264 48.7105 40.2497 47.2831 40.2497C45.3695 40.2475 43.535 39.4864 42.1819 38.1333C40.8289 36.7802 40.0678 34.9457 40.0656 33.0322ZM16.6087 39.3475C16.6087 37.92 17.032 36.5246 17.8251 35.3376C18.6182 34.1507 19.7454 33.2257 21.0642 32.6794C22.383 32.1331 23.8342 31.9902 25.2343 32.2687C26.6343 32.5472 27.9204 33.2346 28.9298 34.2439C29.9391 35.2533 30.6265 36.5394 30.905 37.9394C31.1835 39.3395 31.0406 40.7907 30.4943 42.1095C29.948 43.4283 29.023 44.5555 27.836 45.3486C26.6491 46.1417 25.2537 46.565 23.8262 46.565C21.9127 46.5628 20.0782 45.8017 18.7251 44.4486C17.372 43.0955 16.6109 41.261 16.6087 39.3475ZM32.8481 59.1956H14.8044V57.3912C14.8044 54.9984 15.7549 52.7037 17.4468 51.0118C19.1387 49.3198 21.4335 48.3693 23.8262 48.3693C26.219 48.3693 28.5137 49.3198 30.2056 51.0118C31.8976 52.7037 32.8481 54.9984 32.8481 57.3912V59.1956ZM56.3049 59.1956H34.6525V57.3912C34.649 56.4775 34.5292 55.5681 34.2962 54.6846H56.3049V59.1956ZM56.3049 52.8803H38.2612V51.0759C38.2612 48.6831 39.2117 46.3884 40.9036 44.6965C42.5956 43.0045 44.8903 42.054 47.2831 42.054C49.6758 42.054 51.9705 43.0045 53.6625 44.6965C55.3544 46.3884 56.3049 48.6831 56.3049 51.0759V52.8803Z"/>
</mask>
<path d="M51.3796 41.06C53.185 40.1399 54.6282 38.6387 55.4764 36.7984C56.3247 34.9581 56.5287 32.8857 56.0555 30.9153C55.5824 28.9449 54.4596 27.1912 52.8682 25.9367C51.2768 24.6822 49.3094 24 47.283 24C45.2565 24 43.2891 24.6822 41.6977 25.9368C40.1063 27.1913 38.9836 28.9451 38.5105 30.9155C38.0374 32.8859 38.2414 34.9582 39.0897 36.7985C39.938 38.6389 41.3812 40.14 43.1866 41.0601C41.1985 41.8746 39.4973 43.2616 38.2991 45.0449C37.1008 46.8282 36.4596 48.9274 36.4568 51.0759V52.8803H33.6546C32.5067 50.3881 30.4593 48.4218 27.9228 47.3754C29.7282 46.4553 31.1714 44.9541 32.0196 43.1138C32.8679 41.2735 33.0719 39.2011 32.5987 37.2307C32.1256 35.2603 31.0029 33.5066 29.4115 32.2521C27.8201 30.9976 25.8527 30.3154 23.8262 30.3154C21.7998 30.3154 19.8324 30.9976 18.241 32.2521C16.6496 33.5066 15.5269 35.2603 15.0538 37.2307C14.5806 39.2011 14.7846 41.2735 15.6329 43.1138C16.4811 44.9541 17.9243 46.4553 19.7297 47.3754C17.7416 48.1899 16.0405 49.5769 14.8422 51.3602C13.644 53.1435 13.0028 55.2427 13 57.3912V60.0977C13 60.2162 13.0233 60.3336 13.0686 60.443C13.1139 60.5525 13.1804 60.652 13.2642 60.7358C13.348 60.8195 13.4474 60.886 13.5569 60.9313C13.6664 60.9766 13.7837 61 13.9022 60.9999H57.2071C57.3256 61 57.4429 60.9767 57.5524 60.9314C57.6619 60.8861 57.7614 60.8196 57.8452 60.7358C57.929 60.652 57.9954 60.5526 58.0407 60.4431C58.0861 60.3336 58.1093 60.2162 58.1093 60.0977V51.0759C58.1066 48.9274 57.4654 46.8282 56.2671 45.0448C55.0689 43.2615 53.3677 41.8745 51.3796 41.06ZM40.0656 33.0322C40.0656 31.6047 40.4889 30.2093 41.2819 29.0223C42.075 27.8354 43.2022 26.9104 44.521 26.3641C45.8399 25.8178 47.2911 25.6749 48.6911 25.9534C50.0912 26.2319 51.3772 26.9193 52.3866 27.9286C53.396 28.938 54.0834 30.2241 54.3619 31.6241C54.6403 33.0242 54.4974 34.4754 53.9511 35.7942C53.4049 37.113 52.4798 38.2402 51.2929 39.0333C50.106 39.8264 48.7105 40.2497 47.2831 40.2497C45.3695 40.2475 43.535 39.4864 42.1819 38.1333C40.8289 36.7802 40.0678 34.9457 40.0656 33.0322ZM16.6087 39.3475C16.6087 37.92 17.032 36.5246 17.8251 35.3376C18.6182 34.1507 19.7454 33.2257 21.0642 32.6794C22.383 32.1331 23.8342 31.9902 25.2343 32.2687C26.6343 32.5472 27.9204 33.2346 28.9298 34.2439C29.9391 35.2533 30.6265 36.5394 30.905 37.9394C31.1835 39.3395 31.0406 40.7907 30.4943 42.1095C29.948 43.4283 29.023 44.5555 27.836 45.3486C26.6491 46.1417 25.2537 46.565 23.8262 46.565C21.9127 46.5628 20.0782 45.8017 18.7251 44.4486C17.372 43.0955 16.6109 41.261 16.6087 39.3475ZM32.8481 59.1956H14.8044V57.3912C14.8044 54.9984 15.7549 52.7037 17.4468 51.0118C19.1387 49.3198 21.4335 48.3693 23.8262 48.3693C26.219 48.3693 28.5137 49.3198 30.2056 51.0118C31.8976 52.7037 32.8481 54.9984 32.8481 57.3912V59.1956ZM56.3049 59.1956H34.6525V57.3912C34.649 56.4775 34.5292 55.5681 34.2962 54.6846H56.3049V59.1956ZM56.3049 52.8803H38.2612V51.0759C38.2612 48.6831 39.2117 46.3884 40.9036 44.6965C42.5956 43.0045 44.8903 42.054 47.2831 42.054C49.6758 42.054 51.9705 43.0045 53.6625 44.6965C55.3544 46.3884 56.3049 48.6831 56.3049 51.0759V52.8803Z" fill="#0D313B"/>
<path d="M51.3796 41.06C53.185 40.1399 54.6282 38.6387 55.4764 36.7984C56.3247 34.9581 56.5287 32.8857 56.0555 30.9153C55.5824 28.9449 54.4596 27.1912 52.8682 25.9367C51.2768 24.6822 49.3094 24 47.283 24C45.2565 24 43.2891 24.6822 41.6977 25.9368C40.1063 27.1913 38.9836 28.9451 38.5105 30.9155C38.0374 32.8859 38.2414 34.9582 39.0897 36.7985C39.938 38.6389 41.3812 40.14 43.1866 41.0601C41.1985 41.8746 39.4973 43.2616 38.2991 45.0449C37.1008 46.8282 36.4596 48.9274 36.4568 51.0759V52.8803H33.6546C32.5067 50.3881 30.4593 48.4218 27.9228 47.3754C29.7282 46.4553 31.1714 44.9541 32.0196 43.1138C32.8679 41.2735 33.0719 39.2011 32.5987 37.2307C32.1256 35.2603 31.0029 33.5066 29.4115 32.2521C27.8201 30.9976 25.8527 30.3154 23.8262 30.3154C21.7998 30.3154 19.8324 30.9976 18.241 32.2521C16.6496 33.5066 15.5269 35.2603 15.0538 37.2307C14.5806 39.2011 14.7846 41.2735 15.6329 43.1138C16.4811 44.9541 17.9243 46.4553 19.7297 47.3754C17.7416 48.1899 16.0405 49.5769 14.8422 51.3602C13.644 53.1435 13.0028 55.2427 13 57.3912V60.0977C13 60.2162 13.0233 60.3336 13.0686 60.443C13.1139 60.5525 13.1804 60.652 13.2642 60.7358C13.348 60.8195 13.4474 60.886 13.5569 60.9313C13.6664 60.9766 13.7837 61 13.9022 60.9999H57.2071C57.3256 61 57.4429 60.9767 57.5524 60.9314C57.6619 60.8861 57.7614 60.8196 57.8452 60.7358C57.929 60.652 57.9954 60.5526 58.0407 60.4431C58.0861 60.3336 58.1093 60.2162 58.1093 60.0977V51.0759C58.1066 48.9274 57.4654 46.8282 56.2671 45.0448C55.0689 43.2615 53.3677 41.8745 51.3796 41.06ZM40.0656 33.0322C40.0656 31.6047 40.4889 30.2093 41.2819 29.0223C42.075 27.8354 43.2022 26.9104 44.521 26.3641C45.8399 25.8178 47.2911 25.6749 48.6911 25.9534C50.0912 26.2319 51.3772 26.9193 52.3866 27.9286C53.396 28.938 54.0834 30.2241 54.3619 31.6241C54.6403 33.0242 54.4974 34.4754 53.9511 35.7942C53.4049 37.113 52.4798 38.2402 51.2929 39.0333C50.106 39.8264 48.7105 40.2497 47.2831 40.2497C45.3695 40.2475 43.535 39.4864 42.1819 38.1333C40.8289 36.7802 40.0678 34.9457 40.0656 33.0322ZM16.6087 39.3475C16.6087 37.92 17.032 36.5246 17.8251 35.3376C18.6182 34.1507 19.7454 33.2257 21.0642 32.6794C22.383 32.1331 23.8342 31.9902 25.2343 32.2687C26.6343 32.5472 27.9204 33.2346 28.9298 34.2439C29.9391 35.2533 30.6265 36.5394 30.905 37.9394C31.1835 39.3395 31.0406 40.7907 30.4943 42.1095C29.948 43.4283 29.023 44.5555 27.836 45.3486C26.6491 46.1417 25.2537 46.565 23.8262 46.565C21.9127 46.5628 20.0782 45.8017 18.7251 44.4486C17.372 43.0955 16.6109 41.261 16.6087 39.3475ZM32.8481 59.1956H14.8044V57.3912C14.8044 54.9984 15.7549 52.7037 17.4468 51.0118C19.1387 49.3198 21.4335 48.3693 23.8262 48.3693C26.219 48.3693 28.5137 49.3198 30.2056 51.0118C31.8976 52.7037 32.8481 54.9984 32.8481 57.3912V59.1956ZM56.3049 59.1956H34.6525V57.3912C34.649 56.4775 34.5292 55.5681 34.2962 54.6846H56.3049V59.1956ZM56.3049 52.8803H38.2612V51.0759C38.2612 48.6831 39.2117 46.3884 40.9036 44.6965C42.5956 43.0045 44.8903 42.054 47.2831 42.054C49.6758 42.054 51.9705 43.0045 53.6625 44.6965C55.3544 46.3884 56.3049 48.6831 56.3049 51.0759V52.8803Z" stroke="#0D313B" mask="url(#path-9-outside-1_6500_46128)"/>
</g>
</g>
</svg>
