<svg width="72" height="72" viewBox="0 0 72 72" fill="none" xmlns="http://www.w3.org/2000/svg">
<g id="whatsapp-template">
<g id="Group 1171275640">
<path id="Vector" fill-rule="evenodd" clip-rule="evenodd" d="M4.61328 57.3794L7.90272 45.3706C5.87338 41.8565 4.8062 37.8687 4.80742 33.7844C4.81353 21.0064 15.2118 10.6106 27.991 10.6106C34.1926 10.613 40.012 13.027 44.3894 17.4068C48.7655 21.7878 51.1758 27.6097 51.1734 33.8027C51.1685 46.5807 40.7678 56.9777 27.991 56.9777C27.9898 56.9777 27.991 56.9777 27.991 56.9777H27.9812C24.1021 56.9764 20.2888 56.0033 16.9029 54.1559L4.61328 57.3794Z" fill="#0D313B"/>
<path id="Vector_2" fill-rule="evenodd" clip-rule="evenodd" d="M4.60998 57.9898C4.4488 57.9898 4.29251 57.9263 4.17651 57.8091C4.02389 57.654 3.96406 57.4281 4.02144 57.2193L7.24373 45.4536C5.24613 41.9053 4.19239 37.8759 4.19483 33.7855C4.19971 20.6693 14.8727 10 27.9877 10C34.3493 10.0024 40.3262 12.4799 44.8183 16.9757C49.3105 21.4727 51.783 27.4484 51.7806 33.8026C51.7757 46.9176 41.1015 57.5881 27.9877 57.5881C24.0939 57.5869 20.2415 56.6259 16.8227 54.8078L4.76505 57.9691C4.71377 57.9837 4.66248 57.9898 4.60998 57.9898Z" fill="#0D313B"/>
<path id="Subtract" fill-rule="evenodd" clip-rule="evenodd" d="M27.9912 14.5254C33.139 14.5266 37.9755 16.5327 41.6141 20.1738C45.2528 23.8149 47.254 28.6551 47.2528 33.8017C47.2492 44.4233 38.6055 53.0645 27.9851 53.0645H27.9777C24.5198 53.0633 21.1278 52.1353 18.1705 50.3795L17.4659 49.9619L10.1727 51.874L12.1203 44.7664L11.6612 44.0375C9.73196 40.9691 8.71362 37.4256 8.71484 33.7858C8.71973 23.1653 17.3634 14.5254 27.9912 14.5254ZM20.8869 23.0955C21.3009 23.1126 21.7575 23.1321 22.191 24.0968C22.4938 24.7699 23.0076 26.037 23.4087 27.0263C23.6901 27.7202 23.916 28.2774 23.9749 28.3972C24.1202 28.6866 24.2167 29.0248 24.0237 29.4119C23.9946 29.4701 23.9677 29.525 23.942 29.5775C23.7973 29.8728 23.6907 30.0905 23.445 30.3777C23.3459 30.493 23.2435 30.6174 23.1413 30.7417C22.9438 30.9817 22.747 31.221 22.5756 31.3924C22.285 31.6817 21.9834 31.9955 22.3216 32.5743C22.6599 33.1543 23.8223 35.0505 25.5439 36.5854C27.3931 38.2336 28.9995 38.931 29.8157 39.2854C29.9766 39.3553 30.1068 39.4118 30.2021 39.4596C30.7809 39.7502 31.1191 39.7014 31.4573 39.3143C31.7956 38.9285 32.9055 37.6232 33.2913 37.0445C33.6784 36.4645 34.0642 36.5609 34.5954 36.7539C35.1265 36.9468 37.9752 38.3473 38.5539 38.6379C38.6691 38.6957 38.7766 38.7478 38.8762 38.7959C39.2767 38.9897 39.5475 39.1207 39.6638 39.3143C39.8079 39.5561 39.8079 40.7149 39.3256 42.0677C38.8433 43.4206 36.4782 44.7247 35.4159 44.8212C35.3138 44.8304 35.2122 44.8424 35.1078 44.8546C34.126 44.97 32.8869 45.1155 28.4646 43.3718C23.023 41.2254 19.4347 35.9073 18.6937 34.809C18.633 34.719 18.5914 34.6573 18.5694 34.6281L18.5655 34.6228C18.2618 34.2179 16.2043 31.475 16.2043 28.6377C16.2043 25.9713 17.5147 24.5737 18.1185 23.9298C18.16 23.8854 18.1982 23.8447 18.2324 23.8074C18.7636 23.2274 19.3912 23.0821 19.777 23.0821C19.8046 23.0821 19.8321 23.0821 19.8597 23.0821C20.2177 23.082 20.5729 23.0819 20.8869 23.0955Z" fill="#2894B4"/>
<path id="Rectangle 34624975" d="M58.2891 54.7399V18.3745H66.4082V54.7399L62.0757 59.4033L58.2891 54.7399Z" fill="#2894B4"/>
<path id="Vector_3" d="M61.2912 60.7757C61.5816 61.0662 61.9543 61.2154 62.3287 61.1411C62.8279 61.042 63.3265 60.7459 63.5245 60.3478L67.8213 52.6356C67.9384 52.4246 68.0001 52.1987 67.9991 51.9576C67.9811 43.9824 67.9219 20.5238 67.8389 20.4408L67.8369 19.8409C67.8309 16.6476 65.432 13.8505 62.0395 14.0436C58.9462 14.1377 56.654 16.6271 56.4609 19.8214L56.4629 20.4173L56.4629 20.7417L56.4648 21.2204L56.5235 52.3113C56.5245 52.5604 56.5919 52.8055 56.7169 53.0206L61.0313 60.4416C61.1063 60.5666 61.1944 60.6789 61.2912 60.7757ZM62.2193 56.8503L59.3157 51.7544L59.1574 21.2243L65.0467 21.236H65.1404L65.1033 51.5668L62.2193 56.8503Z" fill="#0D313B"/>
</g>
</g>
</svg>
