<svg width="72" height="72" viewBox="0 0 72 72" fill="none" xmlns="http://www.w3.org/2000/svg">
<g id="man-power-approval-matrix">
<g id="Group 1171275672">
<g id="Group 1171275670">
<path id="Vector" d="M36 34.0005C29.7707 34.0005 17.3333 37.1286 17.3333 43.3341V50.0009C17.3333 51.4729 18.528 52.6676 20 52.6676H52C53.472 52.6676 54.6667 51.4729 54.6667 50.0009V43.3341C54.6667 37.1286 42.2293 34.0005 36 34.0005ZM14.3958 36.8079C10.1798 37.4585 4 40.3715 4 43.881V50.0009C4 51.4729 5.19467 52.6676 6.66667 52.6676H12V43.3341C12 40.7713 12.9212 38.6212 14.3958 36.8079ZM57.6042 36.8079C59.0788 38.6212 60 40.7713 60 43.3341V52.6676H65.3333C66.8053 52.6676 68 51.4729 68 50.0009V43.881C68 40.3715 61.8202 37.4585 57.6042 36.8079Z" fill="#2894B4"/>
<path id="Vector (Stroke)" fill-rule="evenodd" clip-rule="evenodd" d="M8.81335 38.6183C6.16882 39.9324 4 41.802 4 43.8811V50.001C4 51.4731 5.19467 52.6678 6.66667 52.6678H12V43.3342C12 42.7072 12.0552 42.1048 12.1601 41.5261C12.4839 39.7395 13.282 38.1777 14.3958 36.808C12.6774 37.0732 10.6328 37.7142 8.81335 38.6183ZM59.8399 41.5261C59.9448 42.1048 60 42.7072 60 43.3342V52.6678H65.3333C66.8053 52.6678 68 51.4731 68 50.001V43.8811C68 41.802 65.8312 39.9324 63.1867 38.6183C61.3672 37.7142 59.3226 37.0732 57.6042 36.808C58.718 38.1777 59.5161 39.7395 59.8399 41.5261ZM36 14.0001C34.5855 14.0001 33.229 14.562 32.2288 15.5622C31.2286 16.5625 30.6667 17.919 30.6667 19.3336C30.6667 20.7481 31.2286 22.1047 32.2288 23.1049C33.229 24.1051 34.5855 24.667 36 24.667C37.4145 24.667 38.771 24.1051 39.7712 23.1049C40.7714 22.1047 41.3333 20.7481 41.3333 19.3336C41.3333 17.919 40.7714 16.5625 39.7712 15.5622C38.771 14.562 37.4145 14.0001 36 14.0001ZM16 22.0003C15.2928 22.0003 14.6145 22.2813 14.1144 22.7814C13.6143 23.2815 13.3333 23.9598 13.3333 24.667C13.3333 25.0172 13.4023 25.364 13.5363 25.6876C13.6703 26.0111 13.8668 26.3051 14.1144 26.5527C14.6145 27.0528 15.2928 27.3338 16 27.3338C16.3502 27.3338 16.697 27.2648 17.0205 27.1308C17.344 26.9968 17.638 26.8003 17.8856 26.5527C18.1332 26.3051 18.3297 26.0111 18.4637 25.6876C18.5977 25.364 18.6667 25.0172 18.6667 24.667C18.6667 24.3168 18.5977 23.9701 18.4637 23.6465C18.3297 23.323 18.1332 23.029 17.8856 22.7814C17.638 22.5337 17.344 22.3373 17.0205 22.2033C16.697 22.0693 16.3502 22.0003 16 22.0003ZM56 22.0003C55.2928 22.0003 54.6145 22.2813 54.1144 22.7814C53.6143 23.2815 53.3333 23.9598 53.3333 24.667C53.3333 25.0172 53.4023 25.364 53.5363 25.6876C53.6703 26.0111 53.8668 26.3051 54.1144 26.5527C54.6145 27.0528 55.2928 27.3338 56 27.3338C56.3502 27.3338 56.697 27.2648 57.0205 27.1308C57.344 26.9968 57.638 26.8003 57.8856 26.5527C58.1332 26.3051 58.3297 26.0111 58.4637 25.6876C58.5977 25.364 58.6667 25.0172 58.6667 24.667C58.6667 23.9598 58.3857 23.2815 57.8856 22.7814C57.3855 22.2813 56.7072 22.0003 56 22.0003ZM22.0868 42.1975C21.3426 42.8842 21.3333 43.2523 21.3333 43.3342V48.6677H50.6667V43.3342C50.6667 43.2523 50.6574 42.8842 49.9132 42.1975C49.142 41.4858 47.8817 40.7346 46.1817 40.0535C42.7754 38.6888 38.6144 38.0007 36 38.0007C33.3856 38.0007 29.2246 38.6888 25.8183 40.0535C24.1183 40.7346 22.858 41.4858 22.0868 42.1975ZM29.4003 12.7337C31.1507 10.9834 33.5246 10 36 10C38.4754 10 40.8493 10.9834 42.5997 12.7337C44.35 14.4841 45.3333 16.8582 45.3333 19.3336C45.3333 21.809 44.35 24.183 42.5997 25.9334C40.8493 27.6838 38.4754 28.6671 36 28.6671C33.5246 28.6671 31.1507 27.6838 29.4003 25.9334C27.65 24.183 26.6667 21.809 26.6667 19.3336C26.6667 16.8582 27.65 14.4841 29.4003 12.7337ZM11.286 19.9529C12.5362 18.7026 14.2319 18.0002 16 18.0002C16.8755 18.0002 17.7424 18.1726 18.5512 18.5077C19.3601 18.8427 20.095 19.3338 20.714 19.9529C21.3331 20.572 21.8242 21.3069 22.1592 22.1158C22.4942 22.9246 22.6667 23.7915 22.6667 24.667C22.6667 25.5425 22.4942 26.4095 22.1592 27.2183C21.8242 28.0272 21.3331 28.7621 20.714 29.3812C20.095 30.0003 19.3601 30.4914 18.5512 30.8264C17.7424 31.1614 16.8755 31.3339 16 31.3339C14.2319 31.3339 12.5362 30.6315 11.286 29.3812C10.6669 28.7621 10.1758 28.0272 9.8408 27.2183C9.50577 26.4095 9.33333 25.5425 9.33333 24.667C9.33333 22.8989 10.0357 21.2032 11.286 19.9529ZM51.286 19.9529C52.5362 18.7026 54.2319 18.0002 56 18.0002C57.7681 18.0002 59.4638 18.7026 60.714 19.9529C61.9643 21.2032 62.6667 22.8989 62.6667 24.667C62.6667 25.5425 62.4942 26.4095 62.1592 27.2183C61.8242 28.0272 61.3331 28.7621 60.714 29.3812C60.095 30.0003 59.3601 30.4914 58.5512 30.8264C57.7424 31.1614 56.8755 31.3339 56 31.3339C54.2319 31.3339 52.5362 30.6315 51.286 29.3812C50.6669 28.7621 50.1758 28.0272 49.8408 27.2183C49.5058 26.4095 49.3333 25.5425 49.3333 24.667C49.3333 22.8989 50.0357 21.2032 51.286 19.9529ZM17.3333 43.3342C17.3333 37.1287 29.7707 34.0006 36 34.0006C42.2293 34.0006 54.6667 37.1287 54.6667 43.3342V50.001C54.6667 51.4731 53.472 52.6678 52 52.6678H20C18.528 52.6678 17.3333 51.4731 17.3333 50.001V43.3342Z" fill="#0D313B"/>
</g>
<g id="Group 1171275668">
<rect id="Rectangle 34624984" x="39.9727" y="38.7732" width="19.8581" height="13.2385" fill="#2894B4"/>
<path id="Icon" fill-rule="evenodd" clip-rule="evenodd" d="M36.2955 37.5872C41.6468 37.5146 46.5226 35.4729 50.2311 32.1538C53.9395 35.4729 58.8153 37.5146 64.1667 37.5872C64.361 38.7449 64.4621 39.9341 64.4621 41.1469C64.4621 50.4412 58.522 58.3481 50.2311 61.2785C41.9401 58.3481 36 50.4412 36 41.1469C36 39.9341 36.1012 38.7449 36.2955 37.5872ZM56.8256 44.1836C57.5203 43.4889 57.5203 42.3626 56.8256 41.6679C56.1309 40.9732 55.0046 40.9732 54.3099 41.6679L48.4522 47.5255L46.1523 45.2256C45.4576 44.5309 44.3313 44.5309 43.6366 45.2256C42.9419 45.9203 42.9419 47.0466 43.6366 47.7413L47.1943 51.299C47.889 51.9937 49.0154 51.9937 49.71 51.299L56.8256 44.1836Z" fill="#1B6278"/>
</g>
</g>
</g>
</svg>
