<svg width="72" height="72" viewBox="0 0 72 72" fill="none" xmlns="http://www.w3.org/2000/svg">
<g id="interview-template">
<g id="Group 1171275641">
<ellipse id="Ellipse 2746" cx="43.1161" cy="25.1578" rx="8.96379" ry="8.96369" fill="#2894B4"/>
<path id="Ellipse 2747" d="M53.7076 48.3818C53.7076 44.8158 52.5056 41.3959 50.3661 38.8744C48.2266 36.3529 45.3248 34.9363 42.2991 34.9363C39.2734 34.9363 36.3716 36.3529 34.2321 38.8744C32.0926 41.3959 30.8906 44.8158 30.8906 48.3818L53.7076 48.3818Z" fill="#2894B4"/>
<rect id="Rectangle 34624976" x="26.8164" y="48.7893" width="26.8914" height="6.51904" fill="#2894B4"/>
<path id="Vector" d="M47.5024 34.337C49.5488 33.294 51.1846 31.5925 52.1461 29.5065C53.1076 27.4206 53.3388 25.0717 52.8025 22.8383C52.2662 20.6049 50.9936 18.6171 49.1897 17.1952C47.3859 15.7732 45.1559 15 42.859 15C40.5621 15 38.3321 15.7733 36.5283 17.1953C34.7244 18.6172 33.4519 20.6051 32.9156 22.8385C32.3793 25.0718 32.6106 27.4208 33.5721 29.5067C34.5336 31.5926 36.1694 33.2941 38.2159 34.337C35.9624 35.2602 34.0341 36.8323 32.6759 38.8536C31.3177 40.875 30.5909 43.2543 30.5878 45.6896V47.7348H27.4116C26.1104 44.9099 23.7897 42.6812 20.9146 41.4952C22.9611 40.4523 24.5968 38.7508 25.5583 36.6648C26.5198 34.5789 26.751 32.23 26.2147 29.9966C25.6784 27.7632 24.4059 25.7754 22.602 24.3534C20.7982 22.9315 18.5682 22.1582 16.2713 22.1582C13.9744 22.1582 11.7444 22.9315 9.94058 24.3534C8.13675 25.7754 6.86418 27.7632 6.32788 29.9966C5.79159 32.23 6.02281 34.5789 6.9843 36.6648C7.94579 38.7508 9.58154 40.4523 11.628 41.4952C9.37455 42.4184 7.4463 43.9905 6.08814 46.0119C4.72997 48.0332 4.00316 50.4125 4 52.8477V55.9155C3.99997 56.0498 4.02639 56.1828 4.07777 56.3069C4.12915 56.431 4.20447 56.5437 4.29944 56.6387C4.3944 56.7337 4.50715 56.809 4.63123 56.8604C4.75532 56.9117 4.88831 56.9382 5.02261 56.9381H54.1078C54.2421 56.9382 54.3751 56.9118 54.4992 56.8604C54.6233 56.8091 54.736 56.7338 54.831 56.6388C54.926 56.5438 55.0013 56.4311 55.0527 56.3069C55.104 56.1828 55.1304 56.0498 55.1304 55.9155V45.6896C55.1273 43.2543 54.4005 40.8749 53.0423 38.8536C51.6842 36.8322 49.7559 35.2602 47.5024 34.337ZM34.6782 25.2376C34.6782 23.6196 35.158 22.038 36.0569 20.6927C36.9559 19.3473 38.2335 18.2988 39.7284 17.6796C41.2233 17.0604 42.8682 16.8984 44.4551 17.2141C46.042 17.5297 47.4997 18.3089 48.6438 19.453C49.7879 20.5971 50.5671 22.0547 50.8827 23.6417C51.1984 25.2286 51.0364 26.8735 50.4172 28.3683C49.798 29.8631 48.7495 31.1408 47.4041 32.0397C46.0588 32.9386 44.4771 33.4184 42.8591 33.4184C40.6901 33.4159 38.6107 32.5532 37.0771 31.0196C35.5434 29.4859 34.6807 27.4066 34.6782 25.2376ZM8.09043 32.3958C8.09043 30.7778 8.57023 29.1962 9.46915 27.8508C10.3681 26.5055 11.6458 25.457 13.1406 24.8378C14.6355 24.2186 16.2804 24.0566 17.8673 24.3722C19.4542 24.6879 20.9119 25.467 22.056 26.6111C23.2001 27.7552 23.9793 29.2129 24.295 30.7998C24.6106 32.3867 24.4486 34.0316 23.8294 35.5265C23.2102 37.0213 22.1617 38.299 20.8163 39.1979C19.471 40.0968 17.8893 40.5766 16.2713 40.5766C14.1024 40.5741 12.023 39.7114 10.4893 38.1778C8.95561 36.6441 8.09291 34.5647 8.09043 32.3958ZM26.4974 54.8929H6.04521V52.8477C6.04521 50.1357 7.1226 47.5346 9.04036 45.6169C10.9581 43.6992 13.5592 42.6218 16.2713 42.6218C18.9834 42.6218 21.5845 43.6992 23.5022 45.6169C25.42 47.5346 26.4974 50.1357 26.4974 52.8477V54.8929ZM53.0852 54.8929H28.5426V52.8477C28.5386 51.8122 28.4029 50.7813 28.1387 49.78H53.0852V54.8929ZM53.0852 47.7348H32.633V45.6896C32.633 42.9775 33.7104 40.3765 35.6282 38.4587C37.5459 36.541 40.147 35.4636 42.8591 35.4636C45.5712 35.4636 48.1722 36.541 50.09 38.4587C52.0078 40.3765 53.0852 42.9775 53.0852 45.6896V47.7348Z" fill="#0D313B"/>
<path id="Rectangle 34624975" d="M60.0859 48.5495V18.9161H66.7021V48.5495L63.1716 52.3496L60.0859 48.5495Z" fill="#2894B4"/>
<path id="Vector_2" d="M62.5338 53.4679C62.7704 53.7046 63.0742 53.8262 63.3793 53.7656C63.7861 53.6849 64.1923 53.4437 64.3537 53.1192L67.8551 46.8347C67.9505 46.6627 68.0008 46.4787 68 46.2822C67.9853 39.7833 67.9371 20.6674 67.8694 20.5998L67.8678 20.111C67.8629 17.5088 65.908 15.2295 63.1436 15.3868C60.6228 15.4635 58.755 17.492 58.5977 20.095L58.5992 20.5807L58.5992 20.845L58.6008 21.2351L58.6486 46.5704C58.6494 46.7734 58.7044 46.9731 58.8063 47.1484L62.322 53.1956C62.3831 53.2975 62.4549 53.389 62.5338 53.4679ZM63.2901 50.2691L60.924 46.1166L60.795 21.2382L65.5941 21.2478H65.6705L65.6403 45.9638L63.2901 50.2691Z" fill="#0D313B"/>
</g>
</g>
</svg>
