<svg width="72" height="72" viewBox="0 0 72 72" fill="none" xmlns="http://www.w3.org/2000/svg">
<g id="create-contract">
<g id="Group 1171275645">
<g id="Group 1171275291">
<g id="Group">
<g id="Vector">
<path d="M9.66 4.1914C8.81275 4.49736 7.30652 5.46228 7.29476 5.7094C7.29476 5.78 7.21238 5.90944 7.11824 5.99181C6.85936 6.20363 6.3769 7.13325 6.17685 7.79222C6.02388 8.30999 6.00034 11.5696 6.00034 34.1159C6.00034 62.0399 5.96504 60.369 6.61225 61.5104C6.84759 61.9223 7.30652 62.5459 7.50657 62.7342C8.0008 63.2284 9.09517 63.8874 9.76591 64.111C9.86005 64.1463 18.4149 64.1934 28.7703 64.2051C47.1509 64.2404 47.6099 64.2404 48.2688 64.0168C48.6454 63.8874 48.9513 63.8168 48.9513 63.8639C48.9513 63.8992 49.0337 63.8286 49.1278 63.6991C49.222 63.5815 49.3044 63.5109 49.3044 63.5697C49.3161 63.8403 50.8577 62.2517 51.2342 61.581C51.9756 60.2513 51.9403 60.7455 51.9873 51.5905L52.0226 43.2356L58.7065 36.5282C65.2139 29.9855 65.3904 29.7973 65.7787 28.9382C66.12 28.1969 66.1906 27.8909 66.2259 26.9848C66.2965 25.4198 65.9788 24.4431 64.9785 23.2075C63.4841 21.3483 60.5187 20.8423 58.2476 22.0661C57.8122 22.3132 56.4589 23.5723 53.7642 26.2553L52.0226 27.9968L51.9873 20.6658C51.9403 13.6642 51.9285 13.3229 51.7049 12.6875C51.246 11.4166 50.8341 10.9106 47.904 7.9805C44.9622 5.03865 44.4327 4.60326 43.2089 4.20317C42.5969 4.00312 41.7026 3.99136 26.3697 4.00312C12.1076 4.00312 10.1189 4.02666 9.66 4.1914ZM37.7488 12.2285C37.7252 14.8174 37.7488 16.9355 37.8076 16.9355C37.8547 16.9355 37.89 17.0179 37.89 17.1238C37.89 17.3473 38.4078 17.8416 38.8078 18.0063C38.9608 18.0652 41.1378 18.1122 43.7266 18.1122H48.363V24.8903V31.6683L44.3974 35.6574C42.2204 37.8462 40.3964 39.7172 40.3376 39.7878C40.2905 39.8701 39.6786 41.6353 38.9961 43.7063C38.3018 45.7774 37.7135 47.519 37.6782 47.5778C37.4428 47.9897 37.8194 49.4723 38.2077 49.6136C38.2901 49.6489 38.3254 49.7312 38.2783 49.8136C38.243 49.8842 38.243 49.9077 38.2901 49.8607C38.3489 49.8136 38.5254 49.8371 38.7019 49.9077C39.055 50.0489 40.1258 50.096 40.1258 49.9783C40.1258 49.9313 40.2082 49.9195 40.3023 49.9548C40.3964 50.0019 40.4788 49.9666 40.4788 49.896C40.4788 49.8254 40.5612 49.8018 40.6553 49.8371C40.7495 49.8842 40.8318 49.8489 40.8318 49.7783C40.8318 49.7077 40.9142 49.6842 41.0083 49.7195C41.1025 49.7665 41.1849 49.7312 41.1849 49.6606C41.1849 49.59 41.2672 49.5665 41.3614 49.6018C41.4555 49.6489 41.5379 49.6136 41.5379 49.5429C41.5379 49.4723 41.6203 49.4488 41.7144 49.4841C41.8085 49.5312 41.8909 49.4959 41.8909 49.4253C41.8909 49.3547 41.9733 49.3311 42.0674 49.3664C42.1616 49.4135 42.2439 49.3782 42.2439 49.3076C42.2439 49.237 42.3263 49.2135 42.4204 49.2488C42.5146 49.2958 42.5969 49.2605 42.5969 49.1899C42.5969 49.1193 42.6793 49.0958 42.7735 49.1311C42.8676 49.1782 42.95 49.1429 42.95 49.0723C42.95 49.0017 43.0323 48.9781 43.1265 49.0134C43.2206 49.0605 43.303 49.0252 43.303 48.9546C43.303 48.884 43.3854 48.8604 43.4795 48.8957C43.5736 48.9428 43.656 48.9075 43.656 48.8369C43.656 48.7663 43.7384 48.7428 43.8325 48.7781C43.9267 48.8251 44.009 48.7898 44.009 48.7192C44.009 48.6486 44.0914 48.6251 44.1855 48.6604C44.2797 48.7075 44.3621 48.6722 44.3621 48.6016C44.3621 48.531 44.4444 48.5074 44.5386 48.5427C44.6327 48.5898 44.7151 48.5545 44.7151 48.4839C44.7151 48.4133 44.7975 48.3897 44.8916 48.425C44.9857 48.4721 45.0681 48.4368 45.0681 48.3662C45.0681 48.2956 45.1505 48.2721 45.2446 48.3074C45.3387 48.3544 45.4211 48.3191 45.4211 48.2485C45.4211 48.1779 45.5035 48.1544 45.5976 48.1897C45.6918 48.2368 45.7741 48.2015 45.7741 48.1309C45.7741 48.0603 45.8565 48.0367 45.9507 48.072C46.0448 48.1191 46.1272 48.0838 46.1272 48.0132C46.1272 47.9426 46.2095 47.919 46.3037 47.9544C46.3978 48.0014 46.4802 47.9661 46.4802 47.8955C46.4802 47.8249 46.5626 47.8014 46.6567 47.8367C46.7508 47.8837 46.8332 47.8484 46.8332 47.7778C46.8332 47.7072 46.9156 47.6837 47.0097 47.719C47.1039 47.7661 47.1862 47.7308 47.1862 47.6484C47.1862 47.5778 47.2451 47.5543 47.3157 47.6013C47.3863 47.6366 47.4804 47.6366 47.5275 47.5778C47.5628 47.519 47.7746 47.3542 47.9864 47.2012L48.363 46.9306L48.3277 52.9673C48.3041 56.2857 48.2688 59.1451 48.2218 59.3217C48.1276 59.7924 47.8217 60.2042 47.3863 60.4396C47.0333 60.6396 46.0095 60.6514 28.9468 60.6514C11.7781 60.6514 10.8603 60.6396 10.4955 60.4396C10.2837 60.3219 10.0013 60.063 9.88358 59.8512C9.64823 59.4864 9.64823 59.0628 9.64823 34.1159C9.64823 9.21608 9.64823 8.74538 9.88358 8.38059C10.1189 7.9805 10.4366 7.76869 11.0015 7.62748C11.2015 7.58041 17.297 7.54511 24.5693 7.53334L37.7841 7.52157L37.7488 12.2285ZM42.2675 7.74516C42.5616 7.85106 48.1394 13.4053 48.0688 13.5229C48.0335 13.5818 48.0688 13.6642 48.1394 13.6995C48.1982 13.7465 48.2335 13.8524 48.1982 13.9466C48.1629 14.0289 48.1865 14.1349 48.2453 14.1702C48.3159 14.2172 48.363 14.3231 48.363 14.4173C48.363 14.5585 47.8334 14.582 44.8916 14.582H41.4202V11.0518V7.52157L41.7497 7.59218C41.9262 7.63925 42.1616 7.70985 42.2675 7.74516ZM61.5425 25.1962C61.5425 25.2668 61.5778 25.2903 61.6131 25.255C61.7425 25.1256 62.1308 25.408 62.3662 25.7963C62.6604 26.267 62.6721 27.1261 62.3897 27.5379C62.2838 27.7027 61.7778 28.2557 61.2718 28.7617L60.3657 29.7031L59.1537 28.4911L57.9534 27.2908L59.036 26.22C59.6361 25.6316 60.1774 25.1844 60.2363 25.2315C60.3069 25.2668 60.3657 25.2433 60.3657 25.1844C60.3657 25.1138 60.6128 25.055 60.9541 25.055C61.3189 25.055 61.5425 25.1021 61.5425 25.1962ZM53.5759 36.4694L49.4103 40.635L48.21 39.4348L47.0097 38.2345L51.1754 34.0688L55.341 29.9032L56.5413 31.0917L57.7416 32.2919L53.5759 36.4694ZM46.3625 43.7063C45.9507 44.1064 45.68 44.2359 44.162 44.7301C43.2089 45.036 42.4087 45.2714 42.3969 45.2478C42.3734 45.2361 42.6322 44.4359 42.95 43.471C43.4442 42.0118 43.6089 41.6353 43.9737 41.2705L44.4091 40.8233L45.6212 42.0236L46.8332 43.2356L46.3625 43.7063Z" fill="#0B2D1F"/>
<path d="M42.2675 7.74516C42.5616 7.85106 48.1394 13.4053 48.0688 13.5229C48.0335 13.5818 48.0688 13.6642 48.1394 13.6995C48.1982 13.7465 48.2335 13.8524 48.1982 13.9466C48.1629 14.0289 48.1865 14.1349 48.2453 14.1702C48.3159 14.2172 48.363 14.3231 48.363 14.4173C48.363 14.5585 47.8334 14.582 44.8916 14.582H41.4202V11.0518V7.52157L41.7497 7.59218C41.9262 7.63925 42.1616 7.70985 42.2675 7.74516Z" fill="#62C89E"/>
<path d="M61.5425 25.1962C61.5425 25.2668 61.5778 25.2903 61.6131 25.255C61.7425 25.1256 62.1308 25.408 62.3662 25.7963C62.6604 26.267 62.6721 27.1261 62.3897 27.5379C62.2838 27.7027 61.7778 28.2557 61.2718 28.7617L60.3657 29.7031L59.1537 28.4911L57.9534 27.2908L59.036 26.22C59.6361 25.6316 60.1774 25.1844 60.2363 25.2315C60.3069 25.2668 60.3657 25.2433 60.3657 25.1844C60.3657 25.1138 60.6128 25.055 60.9541 25.055C61.3189 25.055 61.5425 25.1021 61.5425 25.1962Z" fill="#62C89E"/>
<path d="M46.3625 43.7063C45.9507 44.1064 45.68 44.2359 44.162 44.7301C43.2089 45.036 42.4087 45.2714 42.3969 45.2478C42.3734 45.2361 42.6322 44.4359 42.95 43.471C43.4442 42.0118 43.6089 41.6353 43.9737 41.2705L44.4091 40.8233L45.6212 42.0236L46.8332 43.2356L46.3625 43.7063Z" fill="#62C89E"/>
<path d="M53.5759 36.4694L49.4103 40.635L48.21 39.4348L47.0097 38.2345L51.1754 34.0688L55.341 29.9032L56.5413 31.0917L57.7416 32.2919L53.5759 36.4694Z" fill="#22885E"/>
</g>
<path id="Vector_2" d="M14.1067 21.7366C13.8595 21.8543 13.3653 22.2543 13.2476 22.4426C13.1064 22.678 12.9652 23.9959 13.0829 23.9959C13.13 23.9959 13.177 24.0783 13.177 24.1842C13.177 24.4548 13.8831 25.0432 14.2949 25.1138C14.848 25.2197 40.1244 25.2433 40.1244 25.1374C40.1244 25.0903 40.195 25.055 40.2891 25.055C40.3715 25.055 40.6421 24.8432 40.8775 24.5843C41.2658 24.1489 41.3011 24.0548 41.3011 23.4076C41.3011 22.7368 41.2658 22.6544 40.8422 22.1955L40.3715 21.7013L27.3332 21.6777C20.1669 21.666 14.2126 21.6895 14.1067 21.7366Z" fill="#0B2D1F"/>
<path id="Vector_3" d="M14.1067 28.797C13.8595 28.9147 13.3653 29.3148 13.2476 29.5031C13.1064 29.7384 12.9652 31.0564 13.0829 31.0564C13.13 31.0564 13.177 31.1387 13.177 31.2446C13.177 31.5153 13.8831 32.1037 14.2949 32.1743C14.848 32.2684 33.0639 32.3037 33.0639 32.1978C33.0639 32.1507 33.1345 32.1154 33.2287 32.1154C33.3111 32.1154 33.5817 31.9036 33.8171 31.6447C34.2054 31.2093 34.2407 31.1152 34.2407 30.468C34.2407 29.7972 34.2054 29.7149 33.7817 29.2559L33.3111 28.7617L23.803 28.7382C18.5783 28.7264 14.2126 28.7499 14.1067 28.797Z" fill="#0B2D1F"/>
<path id="Vector_4" d="M14.1067 35.8574C13.8595 35.9751 13.3653 36.3752 13.2476 36.5635C13.1064 36.7988 12.9652 38.1168 13.0829 38.1168C13.13 38.1168 13.177 38.1992 13.177 38.3051C13.177 38.5757 13.8831 39.1641 14.2949 39.2347C14.848 39.3288 33.0639 39.3641 33.0639 39.2582C33.0639 39.2111 33.1345 39.1758 33.2287 39.1758C33.3111 39.1758 33.5817 38.964 33.8171 38.7052C34.2054 38.2698 34.2407 38.1756 34.2407 37.5284C34.2407 36.8577 34.2054 36.7753 33.7817 36.3164L33.3111 35.8221L23.803 35.7986C18.5783 35.7868 14.2126 35.8104 14.1067 35.8574Z" fill="#0B2D1F"/>
<path id="Vector_5" d="M14.1067 42.9179C13.8595 43.0356 13.3653 43.4357 13.2476 43.624C13.1064 43.8593 12.9652 45.1773 13.0829 45.1773C13.13 45.1773 13.177 45.2596 13.177 45.3655C13.177 45.6362 13.8831 46.2246 14.2949 46.2952C14.848 46.3893 33.0639 46.4246 33.0639 46.3187C33.0639 46.2716 33.1345 46.2363 33.2287 46.2363C33.3111 46.2363 33.5817 46.0245 33.8171 45.7656C34.2054 45.3302 34.2407 45.2361 34.2407 44.5889C34.2407 43.9182 34.2054 43.8358 33.7817 43.3769L33.3111 42.8826L23.803 42.8591C18.5783 42.8473 14.2126 42.8709 14.1067 42.9179Z" fill="#0B2D1F"/>
<path id="Vector_6" d="M28.2182 53.7439C27.7946 53.9204 27.3121 54.4735 27.2533 54.8501C27.1003 55.7444 27.0886 56.0033 27.1945 56.0033C27.2533 56.0033 27.3004 56.0856 27.3004 56.1915C27.3004 56.4622 28.0064 57.0506 28.4183 57.1212C28.9831 57.2153 40.1268 57.2506 40.1268 57.1447C40.1268 57.0976 40.1974 57.0623 40.2916 57.0623C40.374 57.0623 40.6446 56.8505 40.88 56.5916C41.2683 56.1562 41.3036 56.0621 41.3036 55.4149C41.3036 54.7441 41.2683 54.6618 40.8447 54.2028L40.374 53.7086L34.3961 53.6851C31.113 53.6733 28.3359 53.6968 28.2182 53.7439Z" fill="#0B2D1F"/>
</g>
</g>
<g id="Group 1171275644">
<circle id="Ellipse 2748" cx="51.1767" cy="55.7647" r="13.7353" fill="#2EB67D" stroke="#0B2D1F" stroke-width="3"/>
<path id="Vector_7" d="M41.5777 55.6431C41.4447 56.3262 41.6044 56.8407 42.1545 57.3908C42.465 57.7014 42.7844 57.9143 43.0062 57.9587C43.2102 58.003 44.7539 58.0386 46.4218 58.0388L49.4736 58.0567L49.4827 61.0997C49.4917 62.7764 49.5273 64.32 49.5716 64.5241C49.6781 65.0387 50.5121 65.8372 51.0533 65.9525C51.7364 66.0857 52.2509 65.926 52.8009 65.376C53.1114 65.0655 53.3243 64.7462 53.3687 64.5244C53.413 64.3203 53.4484 62.7767 53.4571 61.1L53.4658 58.057L56.5176 58.0395C58.1854 58.0396 59.7291 58.0042 59.9331 57.9599C60.1549 57.9156 60.4743 57.7027 60.7848 57.3922C61.3348 56.8422 61.4944 56.3276 61.3613 55.6445C61.2459 55.1034 60.4474 54.2694 59.9329 54.1629C59.7288 54.1185 58.1852 54.0829 56.5084 54.0739L53.4655 54.0648L53.4475 51.013C53.4474 49.3451 53.4118 47.8015 53.3674 47.5974C53.323 47.3756 53.1101 47.0563 52.7996 46.7457C52.2495 46.1957 51.7349 46.0359 51.0518 46.169C50.5107 46.2842 49.6768 47.0826 49.5704 47.5972C49.5261 47.8012 49.4907 49.3449 49.4908 51.0127L49.4733 54.0645L46.4303 54.0732C44.7536 54.0819 43.21 54.1173 43.0059 54.1616C42.4914 54.2681 41.693 55.1019 41.5777 55.6431Z" fill="#0B2D1F"/>
</g>
</g>
</g>
</svg>
