<svg width="72" height="72" viewBox="0 0 72 72" fill="none" xmlns="http://www.w3.org/2000/svg">
<g id="department">
<g id="Group 1171275287">
<path id="Vector" d="M18.5968 42.9032C18.5368 42.9032 18.4735 42.8965 18.4135 42.8832C17.9202 42.7865 17.6002 42.3066 17.6969 41.8133L20.6233 27.3215C20.7099 26.8982 21.0866 26.5916 21.5198 26.5916H50.4868C50.9201 26.5916 51.2967 26.8982 51.3834 27.3215L54.3097 41.8033C54.4064 42.2966 54.0864 42.7765 53.5931 42.8765C53.0965 42.9765 52.6166 42.6565 52.5166 42.1633L49.7369 28.4147H22.2731L19.4934 42.1699C19.4067 42.5965 19.0334 42.9032 18.5968 42.9032Z" fill="#0D313B"/>
<path id="Vector_2" d="M28.3369 60.0011H15.1383C14.5584 60.0045 14.1251 59.4745 14.2417 58.9079L16.4015 48.229C16.6448 47.0392 18.438 47.4025 18.1946 48.5957L16.2515 58.1813H28.3369C29.5568 58.1813 29.5568 60.0011 28.3369 60.0011Z" fill="#0D313B"/>
<path id="Vector_3" d="M56.8696 60.001H43.661C42.4411 60.001 42.4411 58.1812 43.661 58.1812H55.7531L53.8099 48.5922C53.7099 48.0989 54.0266 47.6189 54.5232 47.5156C55.0198 47.4156 55.5031 47.7356 55.6031 48.2289L57.7662 58.9111C57.8828 59.4744 57.4496 60.0043 56.8696 60.0043V60.001Z" fill="#0D313B"/>
<g id="Group">
<g id="Vector_4">
<path d="M20.8849 49.3256H4.91324C4.40996 49.3256 4 48.9189 4 48.4156V46.3025C4.00333 42.9196 6.75304 40.1798 10.1427 40.1765H15.6521C19.0451 40.1798 21.7948 42.9196 21.7981 46.3025V48.419C21.7948 48.9223 21.3882 49.3256 20.8849 49.3256ZM5.82981 47.5057H19.9683V46.3025C19.9683 43.9261 18.0352 42.003 15.6521 41.9997H10.1427C7.76294 42.003 5.82981 43.9261 5.82981 46.3025V47.5057Z" fill="#0D313B"/>
<path d="M5.82981 47.5057H19.9683V46.3025C19.9683 43.9261 18.0352 42.003 15.6521 41.9997H10.1427C7.76294 42.003 5.82981 43.9261 5.82981 46.3025V47.5057Z" fill="#2894B4"/>
</g>
</g>
<path id="Vector_5" d="M12.9001 38.8532C10.9536 38.8532 9.20048 37.6833 8.45723 35.8935C7.71064 34.1004 8.12393 32.0373 9.49712 30.6641C10.8736 29.2942 12.9434 28.8843 14.7399 29.6242C16.5364 30.3674 17.7096 32.1173 17.7096 34.0571C17.7063 36.7034 15.5531 38.8499 12.9001 38.8532ZM12.9001 31.084C11.6936 31.084 10.607 31.8073 10.1437 32.9205C9.68376 34.0304 9.93707 35.3103 10.7903 36.1602C11.6436 37.0101 12.9268 37.2634 14.04 36.8034C15.1532 36.3435 15.8798 35.2603 15.8798 34.0571C15.8798 32.4172 14.5466 31.0874 12.9001 31.084Z" fill="#0D313B"/>
<g id="Group_2">
<g id="Vector_6">
<path d="M67.0847 49.3256H51.1164C50.6097 49.3256 50.2031 48.9189 50.2031 48.4156V46.3025C50.2065 42.9196 52.9562 40.1798 56.3458 40.1765H61.8552C65.2482 40.1798 67.9946 42.9196 68.0013 46.3025V48.419C67.9979 48.9223 67.5913 49.3256 67.0847 49.3256ZM52.0296 47.5057H66.1714V46.3025C66.1681 43.9261 64.2383 42.003 61.8552 41.9997H56.3458C53.9627 42.003 52.0329 43.9261 52.0296 46.3025V47.5057Z" fill="#0D313B"/>
<path d="M52.0296 47.5057H66.1714V46.3025C66.1681 43.9261 64.2383 42.003 61.8552 41.9997H56.3458C53.9627 42.003 52.0329 43.9261 52.0296 46.3025V47.5057Z" fill="#2894B4"/>
</g>
</g>
<path id="Vector_7" d="M59.101 38.8536C57.1546 38.8536 55.4014 37.6837 54.6548 35.8939C53.9116 34.1008 54.3215 32.0376 55.6981 30.6678C57.0746 29.2946 59.141 28.8846 60.9408 29.6246C62.7373 30.3678 63.9105 32.1176 63.9105 34.0574C63.9072 36.7038 61.7541 38.8503 59.101 38.8536ZM59.101 31.0844C57.8945 31.0844 56.808 31.8077 56.3447 32.9209C55.8847 34.0308 56.138 35.3073 56.9913 36.1605C57.8445 37.0104 59.1277 37.2638 60.2409 36.8038C61.3541 36.3438 62.0807 35.2606 62.0807 34.0574C62.0774 32.4176 60.7442 31.0877 59.101 31.0844Z" fill="#0D313B"/>
<g id="Group_3">
<g id="Vector_8">
<path d="M43.9206 28.0648H27.9523C27.4457 28.0648 27.0391 27.6582 27.0391 27.1549V25.0418C27.0424 21.6588 29.7921 18.9191 33.1818 18.9158H38.6912C42.0841 18.9191 44.8305 21.6588 44.8372 25.0418V27.1582C44.8339 27.6615 44.4272 28.0648 43.9206 28.0648ZM28.8655 26.245H43.0074V25.0418C43.0041 22.6654 41.0743 20.7422 38.6912 20.7389H33.1818C30.7987 20.7422 28.8689 22.6654 28.8655 25.0418V26.245Z" fill="#0D313B"/>
<path d="M28.8655 26.245H43.0074V25.0418C43.0041 22.6654 41.0743 20.7422 38.6912 20.7389H33.1818C30.7987 20.7422 28.8689 22.6654 28.8655 25.0418V26.245Z" fill="#2894B4"/>
</g>
</g>
<path id="Vector_9" d="M35.937 17.5926C33.9905 17.5926 32.2374 16.4227 31.4908 14.6329C30.7475 12.8398 31.1575 10.7766 32.534 9.40679C33.9105 8.0336 35.977 7.62364 37.7768 8.36357C39.5733 9.10682 40.7465 10.8566 40.7465 12.7964C40.7431 15.4428 38.59 17.5893 35.937 17.5926ZM35.937 9.82341C34.7304 9.82341 33.6439 10.5467 33.1806 11.6599C32.7207 12.7698 32.974 14.0463 33.8272 14.8995C34.6804 15.7495 35.9636 16.0028 37.0769 15.5428C38.1901 15.0829 38.9167 13.9996 38.9167 12.7964C38.9133 11.1566 37.5801 9.82675 35.937 9.82341Z" fill="#0D313B"/>
<g id="Group_4">
<g id="Vector_10">
<path d="M43.9831 63.9041H28.0148C27.5115 63.9041 27.1016 63.4975 27.1016 62.9942V60.8777C27.1049 57.4948 29.8546 54.755 33.2443 54.7517H38.757C42.1467 54.755 44.8964 57.4948 44.8997 60.8777V62.9942C44.8997 63.4975 44.4897 63.9041 43.9831 63.9041ZM28.928 62.0809H43.0699V60.8777C43.0666 58.5013 41.1368 56.5782 38.757 56.5749H33.2443C30.8612 56.5782 28.9314 58.5013 28.928 60.8777V62.0809Z" fill="#0D313B"/>
<path d="M28.928 62.0809H43.0699V60.8777C43.0666 58.5013 41.1368 56.5782 38.757 56.5749H33.2443C30.8612 56.5782 28.9314 58.5013 28.928 60.8777V62.0809Z" fill="#2894B4"/>
</g>
</g>
<path id="Vector_11" d="M35.9987 53.4318C34.0523 53.4318 32.2991 52.262 31.5525 50.4688C30.8093 48.679 31.2226 46.6159 32.5958 45.2427C33.9723 43.8695 36.0421 43.4596 37.8386 44.2028C39.635 44.9461 40.8082 46.6959 40.8082 48.6357C40.8049 51.2821 38.6518 53.4285 35.9987 53.4318ZM35.9987 45.666C34.7922 45.666 33.7057 46.3893 33.2424 47.4991C32.7824 48.609 33.0357 49.8889 33.889 50.7388C34.7422 51.5887 36.0254 51.8453 37.1386 51.3821C38.2518 50.9254 38.9784 49.8389 38.9784 48.6357C38.9784 46.9959 37.6419 45.666 35.9987 45.666Z" fill="#0D313B"/>
</g>
</g>
</svg>
