<svg width="72" height="72" viewBox="0 0 72 72" fill="none" xmlns="http://www.w3.org/2000/svg">
<g id="assembly-production-report">
<path id="Vector 639" d="M43.5 6L29.5 6.5L22 14.5H50.5L43.5 6Z" fill="#22885E"/>
<g id="Group">
<g id="Vector">
<mask id="path-2-inside-1_5911_45161" fill="white">
<path d="M29.887 4.07675C27.9495 4.40174 25.9246 5.37672 24.5871 6.62668L23.6622 7.48916H19.9123C15.8249 7.48916 15.2624 7.55166 14.0874 8.13914C12.675 8.85162 11.4875 10.3891 11.15 11.964C10.95 12.9015 10.95 62.5751 11.15 63.5126C11.35 64.4376 11.925 65.5376 12.5875 66.2375C13.2374 66.925 14.5249 67.65 15.4874 67.85C16.4249 68.05 56.3488 68.05 57.2862 67.85C59.4112 67.4 61.1736 65.6251 61.6236 63.5126C61.8236 62.5626 61.8236 12.9015 61.6236 11.964C61.1736 9.85159 59.3862 8.06414 57.2862 7.62666C56.8862 7.53916 55.1363 7.48916 52.8614 7.48916H49.099L48.2615 6.68918C47.3115 5.8017 46.3615 5.18922 45.0866 4.68924C43.4491 4.02675 42.8991 3.98926 36.2868 4.00175C32.9369 4.01425 30.062 4.05175 29.887 4.07675ZM42.8741 7.92665C43.3116 8.03914 44.0241 8.30164 44.4366 8.51413C45.6865 9.17661 47.0865 10.7641 47.449 11.9515L47.524 12.239H36.3868H25.2496L25.3246 11.9515C25.5371 11.2891 26.1246 10.3766 26.8371 9.6516C27.662 8.81412 28.962 8.07664 30.0245 7.87665C30.3245 7.81415 33.1619 7.76415 36.3243 7.75165C41.0492 7.73915 42.2116 7.77665 42.8741 7.92665ZM21.4247 12.0765C21.3247 12.5515 21.2622 13.3765 21.2872 13.9515C21.3247 15.0515 21.5247 15.4139 22.2872 15.8139C22.7872 16.0764 49.9864 16.0764 50.4864 15.8139C51.2489 15.4139 51.4489 15.0515 51.4864 13.9515C51.5114 13.3765 51.4489 12.5515 51.3489 12.0765L51.1739 11.2391H53.8113C56.8362 11.2391 57.2362 11.3391 57.7362 12.2265L58.0112 12.714V37.7383V62.7626L57.7487 63.2376C57.5987 63.5001 57.2737 63.8251 57.0112 63.9751L56.5362 64.2376H36.3868H16.2374L15.7624 63.9751C15.4999 63.8251 15.1749 63.5001 15.0249 63.2376L14.7624 62.7626V37.7383V12.714L15.0374 12.2265C15.5374 11.3391 15.9249 11.2391 18.9623 11.2391H21.5997L21.4247 12.0765Z"/>
</mask>
<path d="M29.887 4.07675C27.9495 4.40174 25.9246 5.37672 24.5871 6.62668L23.6622 7.48916H19.9123C15.8249 7.48916 15.2624 7.55166 14.0874 8.13914C12.675 8.85162 11.4875 10.3891 11.15 11.964C10.95 12.9015 10.95 62.5751 11.15 63.5126C11.35 64.4376 11.925 65.5376 12.5875 66.2375C13.2374 66.925 14.5249 67.65 15.4874 67.85C16.4249 68.05 56.3488 68.05 57.2862 67.85C59.4112 67.4 61.1736 65.6251 61.6236 63.5126C61.8236 62.5626 61.8236 12.9015 61.6236 11.964C61.1736 9.85159 59.3862 8.06414 57.2862 7.62666C56.8862 7.53916 55.1363 7.48916 52.8614 7.48916H49.099L48.2615 6.68918C47.3115 5.8017 46.3615 5.18922 45.0866 4.68924C43.4491 4.02675 42.8991 3.98926 36.2868 4.00175C32.9369 4.01425 30.062 4.05175 29.887 4.07675ZM42.8741 7.92665C43.3116 8.03914 44.0241 8.30164 44.4366 8.51413C45.6865 9.17661 47.0865 10.7641 47.449 11.9515L47.524 12.239H36.3868H25.2496L25.3246 11.9515C25.5371 11.2891 26.1246 10.3766 26.8371 9.6516C27.662 8.81412 28.962 8.07664 30.0245 7.87665C30.3245 7.81415 33.1619 7.76415 36.3243 7.75165C41.0492 7.73915 42.2116 7.77665 42.8741 7.92665ZM21.4247 12.0765C21.3247 12.5515 21.2622 13.3765 21.2872 13.9515C21.3247 15.0515 21.5247 15.4139 22.2872 15.8139C22.7872 16.0764 49.9864 16.0764 50.4864 15.8139C51.2489 15.4139 51.4489 15.0515 51.4864 13.9515C51.5114 13.3765 51.4489 12.5515 51.3489 12.0765L51.1739 11.2391H53.8113C56.8362 11.2391 57.2362 11.3391 57.7362 12.2265L58.0112 12.714V37.7383V62.7626L57.7487 63.2376C57.5987 63.5001 57.2737 63.8251 57.0112 63.9751L56.5362 64.2376H36.3868H16.2374L15.7624 63.9751C15.4999 63.8251 15.1749 63.5001 15.0249 63.2376L14.7624 62.7626V37.7383V12.714L15.0374 12.2265C15.5374 11.3391 15.9249 11.2391 18.9623 11.2391H21.5997L21.4247 12.0765Z" fill="#0B2D1F"/>
<path d="M29.887 4.07675L29.7216 3.09053L29.7335 3.08852L29.7456 3.0868L29.887 4.07675ZM24.5871 6.62668L25.2699 7.35728L25.2691 7.35807L24.5871 6.62668ZM23.6622 7.48916L24.3441 8.22054L24.056 8.48916H23.6622V7.48916ZM14.0874 8.13914L13.637 7.24629L13.6402 7.24471L14.0874 8.13914ZM11.15 11.964L10.172 11.7554L10.1722 11.7545L11.15 11.964ZM11.15 63.5126L10.1726 63.724L10.172 63.7213L11.15 63.5126ZM12.5875 66.2375L13.3137 65.5502L13.3141 65.5505L12.5875 66.2375ZM15.4874 67.85L15.6908 66.8709L15.696 66.872L15.4874 67.85ZM57.2862 67.85L57.0776 66.872L57.0791 66.8717L57.2862 67.85ZM61.6236 63.5126L62.6022 63.7186L62.6017 63.721L61.6236 63.5126ZM61.6236 11.964L60.6456 12.1727L60.6456 12.1724L61.6236 11.964ZM57.2862 7.62666L57.0823 8.60568L57.0725 8.60356L57.2862 7.62666ZM49.099 7.48916V8.48916H48.6981L48.4082 8.21227L49.099 7.48916ZM48.2615 6.68918L48.9442 5.9584L48.9522 5.96607L48.2615 6.68918ZM45.0866 4.68924L44.7215 5.62026L44.7115 5.61624L45.0866 4.68924ZM36.2868 4.00175L36.2831 3.00176L36.2849 3.00176L36.2868 4.00175ZM42.8741 7.92665L43.095 6.95133L43.1091 6.95454L43.1232 6.95815L42.8741 7.92665ZM44.4366 8.51413L44.8946 7.62509L44.9049 7.63056L44.4366 8.51413ZM47.449 11.9515L48.4054 11.6596L48.4114 11.6792L48.4166 11.6991L47.449 11.9515ZM47.524 12.239L48.4916 11.9866L48.8183 13.239H47.524V12.239ZM25.2496 12.239V13.239H23.9553L24.282 11.9866L25.2496 12.239ZM25.3246 11.9515L24.357 11.6991L24.364 11.6724L24.3724 11.6461L25.3246 11.9515ZM26.8371 9.6516L26.1238 8.95067L26.1247 8.94983L26.8371 9.6516ZM30.0245 7.87665L30.2284 8.85563L30.219 8.8576L30.2095 8.85939L30.0245 7.87665ZM36.3243 7.75165L36.3204 6.75166L36.3217 6.75166L36.3243 7.75165ZM21.4247 12.0765L22.4036 12.2811L22.4033 12.2825L21.4247 12.0765ZM21.2872 13.9515L22.2863 13.908L22.2866 13.9174L21.2872 13.9515ZM22.2872 15.8139L22.7517 14.9284L22.752 14.9285L22.2872 15.8139ZM50.4864 15.8139L50.0216 14.9285L50.0219 14.9284L50.4864 15.8139ZM51.4864 13.9515L50.4869 13.9174L50.4873 13.908L51.4864 13.9515ZM51.3489 12.0765L50.3703 12.2825L50.37 12.2811L51.3489 12.0765ZM51.1739 11.2391L50.195 11.4436L49.9433 10.2391H51.1739V11.2391ZM57.7362 12.2265L56.8652 12.7178L56.865 12.7174L57.7362 12.2265ZM58.0112 12.714L58.8822 12.2227L59.0112 12.4514V12.714H58.0112ZM58.0112 62.7626H59.0112V63.0206L58.8864 63.2463L58.0112 62.7626ZM57.7487 63.2376L58.624 63.7213L58.6205 63.7276L58.617 63.7338L57.7487 63.2376ZM57.0112 63.9751L57.5074 64.8434L57.5012 64.8469L57.4949 64.8504L57.0112 63.9751ZM56.5362 64.2376L57.0199 65.1128L56.7942 65.2376H56.5362V64.2376ZM16.2374 64.2376V65.2376H15.9794L15.7537 65.1128L16.2374 64.2376ZM15.7624 63.9751L15.2787 64.8504L15.2724 64.8469L15.2662 64.8434L15.7624 63.9751ZM15.0249 63.2376L14.1566 63.7338L14.1531 63.7276L14.1496 63.7213L15.0249 63.2376ZM14.7624 62.7626L13.8872 63.2463L13.7624 63.0206V62.7626H14.7624ZM14.7624 12.714H13.7624V12.4514L13.8914 12.2227L14.7624 12.714ZM15.0374 12.2265L15.9086 12.7174L15.9084 12.7178L15.0374 12.2265ZM21.5997 11.2391V10.2391H22.8303L22.5786 11.4436L21.5997 11.2391ZM30.0524 5.06297C28.2943 5.35788 26.4534 6.25121 25.2699 7.35728L23.9043 5.89608C25.3958 4.50222 27.6048 3.4456 29.7216 3.09053L30.0524 5.06297ZM25.2691 7.35807L24.3441 8.22054L22.9802 6.75777L23.9052 5.8953L25.2691 7.35807ZM23.6622 8.48916H19.9123V6.48916H23.6622V8.48916ZM19.9123 8.48916C17.85 8.48916 16.7498 8.50612 16.0185 8.58768C15.3588 8.66127 15.0381 8.78185 14.5346 9.03357L13.6402 7.24471C14.3117 6.90895 14.8597 6.70454 15.7968 6.60001C16.6624 6.50345 17.8871 6.48916 19.9123 6.48916V8.48916ZM14.5378 9.03198C13.3976 9.6071 12.4024 10.892 12.1278 12.1736L10.1722 11.7545C10.5726 9.88612 11.9523 8.09614 13.637 7.2463L14.5378 9.03198ZM12.128 12.1727C12.1426 12.104 12.1381 12.0854 12.1307 12.2399C12.1253 12.3507 12.1199 12.5084 12.1145 12.7135C12.1037 13.1223 12.0936 13.6991 12.0843 14.4227C12.0656 15.8686 12.05 17.8865 12.0375 20.2874C12.0125 25.0884 12 31.4129 12 37.7383C12 44.0637 12.0125 50.3882 12.0375 55.1893C12.05 57.5902 12.0656 59.6081 12.0843 61.054C12.0936 61.7775 12.1037 62.3544 12.1145 62.7632C12.1199 62.9683 12.1253 63.126 12.1307 63.2368C12.1381 63.3913 12.1426 63.3727 12.128 63.304L10.172 63.7213C10.1448 63.594 10.1373 63.4216 10.133 63.3331C10.1266 63.2008 10.1207 63.0263 10.1152 62.8158C10.1041 62.3936 10.0938 61.8062 10.0845 61.0799C10.0657 59.6262 10.05 57.6022 10.0375 55.1997C10.0125 50.394 10 44.0657 10 37.7383C10 31.4109 10.0125 25.0827 10.0375 20.277C10.05 17.8745 10.0657 15.8505 10.0845 14.3968C10.0938 13.6705 10.1041 13.0831 10.1152 12.6608C10.1207 12.4503 10.1266 12.2758 10.133 12.1436C10.1373 12.0551 10.1448 11.8827 10.172 11.7554L12.128 12.1727ZM12.1274 63.3013C12.2891 64.0491 12.7779 64.984 13.3137 65.5502L11.8612 66.9249C11.072 66.0911 10.4109 64.8261 10.1726 63.724L12.1274 63.3013ZM13.3141 65.5505C13.5479 65.7978 13.941 66.0929 14.4076 66.3534C14.8737 66.6136 15.339 66.7978 15.6908 66.8709L15.2839 68.8291C14.6733 68.7022 14.0136 68.424 13.4328 68.0998C12.8526 67.7759 12.277 67.3647 11.8608 66.9246L13.3141 65.5505ZM15.696 66.872C15.6348 66.8589 15.6183 66.8626 15.7439 66.8698C15.8348 66.8749 15.964 66.8803 16.1328 66.8857C16.4689 66.8963 16.9401 66.9064 17.53 66.9158C18.7085 66.9344 20.3449 66.95 22.2885 66.9625C26.175 66.9875 31.2804 67 36.3868 67C41.4932 67 46.5986 66.9875 50.4851 66.9625C52.4287 66.95 54.0651 66.9344 55.2436 66.9158C55.8335 66.9064 56.3047 66.8963 56.6409 66.8857C56.8096 66.8803 56.9388 66.8749 57.0297 66.8698C57.1553 66.8626 57.1388 66.8589 57.0776 66.872L57.4949 68.828C57.375 68.8536 57.2238 68.862 57.1433 68.8666C57.0281 68.8731 56.8798 68.8791 56.7044 68.8847C56.3523 68.8958 55.8687 68.9061 55.2753 68.9155C54.0874 68.9343 52.4436 68.95 50.4979 68.9625C46.6057 68.9875 41.4957 69 36.3868 69C31.2779 69 26.1679 68.9875 22.2757 68.9625C20.33 68.95 18.6862 68.9343 17.4983 68.9155C16.9049 68.9061 16.4213 68.8958 16.0692 68.8847C15.8938 68.8791 15.7456 68.8731 15.6303 68.8666C15.5498 68.862 15.3986 68.8536 15.2787 68.828L15.696 66.872ZM57.0791 66.8717C58.815 66.5041 60.2773 65.0329 60.6456 63.3043L62.6017 63.721C62.0699 66.2173 60.0074 68.2959 57.4934 68.8283L57.0791 66.8717ZM60.6451 63.3066C60.631 63.3733 60.6355 63.3896 60.6429 63.2358C60.6483 63.1246 60.6537 62.9665 60.6591 62.7612C60.6699 62.3517 60.68 61.7744 60.6893 61.0504C60.708 59.6036 60.7236 57.5852 60.7361 55.184C60.7611 50.3824 60.7736 44.0582 60.7736 37.7336C60.7736 31.409 60.7611 25.0857 60.7361 20.2856C60.7236 17.8852 60.708 15.8678 60.6893 14.4221C60.68 13.6988 60.6699 13.1221 60.6591 12.7133C60.6537 12.5083 60.6483 12.3506 60.6429 12.2399C60.6355 12.0854 60.631 12.104 60.6456 12.1727L62.6016 11.7554C62.6288 11.8827 62.6363 12.0551 62.6406 12.1435C62.647 12.2758 62.6529 12.4502 62.6584 12.6607C62.6695 13.0829 62.6798 13.6701 62.6891 14.3963C62.7079 15.8497 62.7236 17.8732 62.7361 20.2752C62.7611 25.0799 62.7736 31.407 62.7736 37.7336C62.7736 44.0603 62.7611 50.3881 62.7361 55.1944C62.7236 57.5972 62.7079 59.6217 62.6891 61.0763C62.6798 61.803 62.6695 62.3909 62.6584 62.8137C62.6529 63.0245 62.647 63.1993 62.6406 63.3319C62.6363 63.4217 62.6287 63.5926 62.6022 63.7186L60.6451 63.3066ZM60.6456 12.1724C60.2774 10.444 58.7908 8.96158 57.0823 8.60564L57.4902 6.64768C59.9815 7.16671 62.0699 9.25918 62.6017 11.7557L60.6456 12.1724ZM57.0725 8.60356C57.0755 8.60421 57.0466 8.59838 56.9676 8.58989C56.8951 8.58209 56.7995 8.57401 56.6797 8.56606C56.4405 8.55017 56.1263 8.53617 55.7465 8.52463C54.9882 8.50161 53.9928 8.48916 52.8614 8.48916V6.48916C54.0048 6.48916 55.0219 6.50171 55.8072 6.52556C56.5421 6.54787 57.1883 6.58158 57.4999 6.64976L57.0725 8.60356ZM52.8614 8.48916H49.099V6.48916H52.8614V8.48916ZM48.4082 8.21227L47.5707 7.41229L48.9522 5.96607L49.7897 6.76605L48.4082 8.21227ZM47.5788 7.41991C46.7191 6.61677 45.8764 6.07311 44.7215 5.62021L45.4517 3.75826C46.8467 4.30534 47.9039 4.98664 48.9441 5.95844L47.5788 7.41991ZM44.7115 5.61624C43.9688 5.31576 43.5228 5.17063 42.475 5.08938C41.3557 5.0026 39.6139 4.99547 36.2887 5.00175L36.2849 3.00176C39.5721 2.99554 41.4114 3.00091 42.6296 3.09537C43.9192 3.19537 44.5669 3.40023 45.4616 3.76223L44.7115 5.61624ZM36.2905 5.00175C34.618 5.00799 33.0646 5.02047 31.9084 5.03449C31.3301 5.04151 30.8529 5.04889 30.5106 5.05603C30.339 5.05961 30.2042 5.06307 30.1086 5.06629C29.9799 5.07064 29.9831 5.07318 30.0284 5.0667L29.7456 3.0868C29.8346 3.07408 29.9659 3.06997 30.0411 3.06743C30.1493 3.06378 30.2939 3.06011 30.4688 3.05646C30.8195 3.04915 31.3032 3.04169 31.8842 3.03464C33.0467 3.02054 34.6058 3.00802 36.2831 3.00176L36.2905 5.00175ZM43.1232 6.95815C43.6249 7.08716 44.4085 7.37477 44.8945 7.62516L43.9786 9.4031C43.6397 9.2285 42.9984 8.99113 42.6251 8.89514L43.1232 6.95815ZM44.9049 7.63056C45.6658 8.03387 46.4202 8.68513 47.027 9.37614C47.6269 10.0594 48.1665 10.877 48.4054 11.6596L46.4926 12.2435C46.369 11.8386 46.0273 11.2688 45.5242 10.6958C45.0279 10.1306 44.4573 9.65687 43.9683 9.3977L44.9049 7.63056ZM48.4166 11.6991L48.4916 11.9866L46.5564 12.4915L46.4814 12.204L48.4166 11.6991ZM47.524 13.239H36.3868V11.239H47.524V13.239ZM36.3868 13.239H25.2496V11.239H36.3868V13.239ZM24.282 11.9866L24.357 11.6991L26.2922 12.204L26.2172 12.4914L24.282 11.9866ZM24.3724 11.6461C24.6463 10.7922 25.3385 9.74982 26.1238 8.95067L27.5503 10.3525C26.9107 11.0033 26.4279 11.7859 26.2768 12.257L24.3724 11.6461ZM26.1247 8.94983C27.0715 7.98864 28.5489 7.13684 29.8395 6.89391L30.2095 8.85939C29.3751 9.01645 28.2526 9.63961 27.5495 10.3534L26.1247 8.94983ZM29.8205 6.89767C29.9386 6.87308 30.087 6.86249 30.1862 6.85599C30.3116 6.84776 30.4696 6.84023 30.6525 6.83324C31.0193 6.81922 31.5081 6.80657 32.0818 6.79558C33.2305 6.77358 34.7358 6.75792 36.3204 6.75166L36.3283 8.75164C34.7504 8.75788 33.2558 8.77347 32.1201 8.79522C31.5517 8.8061 31.0773 8.81846 30.7289 8.83178C30.5541 8.83846 30.4165 8.84518 30.317 8.8517C30.1912 8.85995 30.1854 8.8646 30.2284 8.85563L29.8205 6.89767ZM36.3217 6.75166C38.6822 6.74541 40.1687 6.75155 41.1502 6.77859C42.1206 6.80533 42.6611 6.85311 43.095 6.95133L42.6533 8.90196C42.4246 8.85019 42.0527 8.80422 41.0951 8.77783C40.1484 8.75175 38.6912 8.74539 36.327 8.75165L36.3217 6.75166ZM22.4033 12.2825C22.3227 12.6653 22.2644 13.4055 22.2863 13.908L20.2882 13.9949C20.26 13.3475 20.3267 12.4378 20.4462 11.8705L22.4033 12.2825ZM22.2866 13.9174C22.3046 14.4451 22.3626 14.6096 22.3955 14.6705C22.407 14.6919 22.4416 14.7657 22.7517 14.9284L21.8226 16.6995C21.3703 16.4622 20.9236 16.1548 20.6352 15.6199C20.3681 15.1246 20.3073 14.5579 20.2878 13.9856L22.2866 13.9174ZM22.752 14.9285C22.6667 14.8837 22.5963 14.8635 22.5758 14.8578C22.5468 14.8495 22.5259 14.8454 22.519 14.8441C22.5052 14.8414 22.5049 14.842 22.5261 14.8445C22.5666 14.8492 22.6371 14.8553 22.7439 14.8621C22.9546 14.8754 23.26 14.8883 23.653 14.9005C24.4362 14.9249 25.5343 14.9453 26.8464 14.9617C29.4689 14.9944 32.9268 15.0108 36.3868 15.0108C39.8468 15.0108 43.3047 14.9944 45.9272 14.9617C47.2393 14.9453 48.3374 14.9249 49.1207 14.9005C49.5136 14.8883 49.819 14.8754 50.0297 14.8621C50.1365 14.8553 50.207 14.8492 50.2475 14.8445C50.2687 14.842 50.2684 14.8414 50.2546 14.8441C50.2477 14.8454 50.2268 14.8495 50.1978 14.8578C50.1773 14.8635 50.1069 14.8837 50.0216 14.9285L50.9512 16.6993C50.7988 16.7794 50.6516 16.8044 50.6326 16.808C50.5776 16.8186 50.5233 16.8259 50.4784 16.8311C50.3866 16.8418 50.2759 16.8505 50.156 16.8581C49.913 16.8735 49.5824 16.8872 49.1827 16.8996C48.3808 16.9245 47.2681 16.9451 45.9521 16.9615C43.3185 16.9944 39.8516 17.0108 36.3868 17.0108C32.922 17.0108 29.4551 16.9944 26.8215 16.9615C25.5055 16.9451 24.3928 16.9245 23.5909 16.8996C23.1913 16.8872 22.8606 16.8735 22.6176 16.8581C22.4977 16.8505 22.387 16.8418 22.2952 16.8311C22.2503 16.8259 22.196 16.8186 22.141 16.808C22.122 16.8044 21.9748 16.7794 21.8224 16.6993L22.752 14.9285ZM50.0219 14.9284C50.332 14.7657 50.3666 14.6919 50.3781 14.6705C50.411 14.6096 50.469 14.4451 50.487 13.9174L52.4858 13.9856C52.4663 14.5579 52.4056 15.1246 52.1384 15.6199C51.85 16.1548 51.4033 16.4622 50.951 16.6995L50.0219 14.9284ZM50.4873 13.908C50.5092 13.4055 50.4509 12.6653 50.3703 12.2825L52.3274 11.8705C52.4469 12.4378 52.5136 13.3475 52.4854 13.9949L50.4873 13.908ZM50.37 12.2811L50.195 11.4436L52.1528 11.0345L52.3278 11.872L50.37 12.2811ZM51.1739 10.2391H53.8113V12.2391H51.1739V10.2391ZM53.8113 10.2391C55.2773 10.2391 56.2767 10.2572 56.9645 10.4302C57.349 10.5269 57.6923 10.6826 57.9917 10.9416C58.2773 11.1887 58.4636 11.4802 58.6075 11.7357L56.865 12.7174C56.7589 12.5291 56.7077 12.4753 56.6831 12.4541C56.6723 12.4447 56.6328 12.409 56.4768 12.3698C56.0833 12.2709 55.3702 12.2391 53.8113 12.2391V10.2391ZM58.6072 11.7352L58.8822 12.2227L57.1402 13.2053L56.8652 12.7178L58.6072 11.7352ZM59.0112 12.714V37.7383H57.0112V12.714H59.0112ZM59.0112 37.7383V62.7626H57.0112V37.7383H59.0112ZM58.8864 63.2463L58.624 63.7213L56.8735 62.7539L57.136 62.279L58.8864 63.2463ZM58.617 63.7338C58.3784 64.1513 57.9249 64.6048 57.5074 64.8434L56.5151 63.1069C56.6226 63.0455 56.8191 62.849 56.8805 62.7415L58.617 63.7338ZM57.4949 64.8504L57.0199 65.1128L56.0526 63.3624L56.5275 63.0999L57.4949 64.8504ZM56.5362 65.2376H36.3868V63.2376H56.5362V65.2376ZM36.3868 65.2376H16.2374V63.2376H36.3868V65.2376ZM15.7537 65.1128L15.2787 64.8504L16.2461 63.0999L16.721 63.3624L15.7537 65.1128ZM15.2662 64.8434C14.8487 64.6048 14.3952 64.1513 14.1566 63.7338L15.8931 62.7415C15.9545 62.849 16.151 63.0455 16.2585 63.1069L15.2662 64.8434ZM14.1496 63.7213L13.8872 63.2463L15.6376 62.279L15.9001 62.7539L14.1496 63.7213ZM13.7624 62.7626V37.7383H15.7624V62.7626H13.7624ZM13.7624 37.7383V12.714H15.7624V37.7383H13.7624ZM13.8914 12.2227L14.1664 11.7352L15.9084 12.7178L15.6334 13.2053L13.8914 12.2227ZM14.1661 11.7357C14.3088 11.4824 14.4938 11.1909 14.7778 10.9437C15.0763 10.6837 15.4191 10.5274 15.8038 10.4303C16.4905 10.2572 17.4906 10.2391 18.9623 10.2391V12.2391C17.3966 12.2391 16.6842 12.2709 16.2928 12.3696C16.1385 12.4086 16.1008 12.4436 16.0911 12.452C16.0669 12.4731 16.0159 12.5269 15.9086 12.7174L14.1661 11.7357ZM18.9623 10.2391H21.5997V12.2391H18.9623V10.2391ZM22.5786 11.4436L22.4036 12.2811L20.4459 11.872L20.6208 11.0345L22.5786 11.4436Z" fill="#0B2D1F" mask="url(#path-2-inside-1_5911_45161)"/>
</g>
</g>
<path id="Vector_2" d="M21.5106 50.3119C19.4558 51.139 19.501 52.7661 21.6235 53.7153C22.2331 54 22.4589 54 37 54C51.5411 54 51.7669 54 52.3765 53.7153C54.499 52.7661 54.5442 51.139 52.4894 50.3119L51.7217 50H37H22.2783L21.5106 50.3119Z" fill="#0B2D1F"/>
<path id="Vector_3" d="M21.7907 57.2027C20.68 57.5 20 58.1757 20 59C20 59.7568 20.408 60.2162 21.564 60.7162C22.176 61 22.4027 61 37 61C51.5973 61 51.824 61 52.436 60.7162C53.592 60.2162 54 59.7568 54 59C54 58.1622 53.32 57.4865 52.164 57.2027C51.076 56.9324 22.8333 56.9324 21.7907 57.2027Z" fill="#0B2D1F"/>
<g id="products">
<g id="Group 159054">
<path id="Rectangle 34624447" d="M41.25 27.6666H30.75V29.6666H41.25V27.6666Z" fill="#22885E"/>
<path id="Rectangle 47 (Stroke)" fill-rule="evenodd" clip-rule="evenodd" d="M31.0667 27.8C30.9194 27.8 30.8 27.9194 30.8 28.0667V29.2667C30.8 29.4139 30.9194 29.5333 31.0667 29.5333H40.9333C41.0806 29.5333 41.2 29.4139 41.2 29.2667V28.0667C41.2 27.9194 41.0806 27.8 40.9333 27.8H31.0667ZM30 28.0667C30 27.4776 30.4776 27 31.0667 27H40.9333C41.5224 27 42 27.4776 42 28.0667V29.2667C42 29.8558 41.5224 30.3333 40.9333 30.3333H31.0667C30.4776 30.3333 30 29.8558 30 29.2667V28.0667Z" fill="#0B2D1F"/>
<path id="Rectangle 48" d="M37.4083 31.6666H34.5917C34.541 31.6666 34.5 31.7076 34.5 31.7582V32.9082C34.5 32.9589 34.541 32.9999 34.5917 32.9999H37.4083C37.459 32.9999 37.5 32.9589 37.5 32.9082V31.7582C37.5 31.7076 37.459 31.6666 37.4083 31.6666Z" fill="#0B2D1F"/>
<g id="Rectangle 46">
<path id="Vector (Stroke)" fill-rule="evenodd" clip-rule="evenodd" d="M31.5522 30.4665V36.1999H40.4522V30.4665H31.5522ZM30.6914 30.4665C30.6914 29.7302 30.8158 29.4741 31.5522 29.4741L35.8767 29.474H40.4522C41.321 29.4741 41.3209 29.474 41.3209 30.511L41.321 33.3629L41.321 36.1999C41.321 36.9926 41.321 36.9926 40.4522 36.9926H36.1358H31.5521C30.6914 36.9926 30.6914 37.0074 30.6914 36.2147V33.3629V30.4665Z" fill="#0B2D1F"/>
</g>
</g>
</g>
<g id="Group 1171274755">
<path id="Vector_2 (Stroke)" fill-rule="evenodd" clip-rule="evenodd" d="M45.0347 40.3938H46.8651C47.1475 40.3938 47.3764 40.1649 47.3764 39.8825C47.3764 39.6001 47.1475 39.3712 46.8651 39.3712L43.8006 39.3712C43.8005 39.3712 43.8004 39.3712 43.8004 39.3712C43.731 39.3712 43.6649 39.385 43.6046 39.41C43.5443 39.435 43.4878 39.4719 43.4388 39.521C43.3898 39.57 43.3528 39.6265 43.3279 39.6868C43.3029 39.7471 43.2891 39.8132 43.2891 39.8825C43.2891 39.8826 43.2891 39.8826 43.2891 39.8827L43.2891 42.9473C43.2891 43.2297 43.518 43.4586 43.8004 43.4586C44.0827 43.4586 44.3117 43.2297 44.3117 42.9473V41.1169L47.1165 43.9218C47.3162 44.1215 47.6399 44.1215 47.8396 43.9218C48.0393 43.7222 48.0393 43.3984 47.8396 43.1987L45.0347 40.3938Z" fill="#0B2D1F" stroke="#0B2D1F" stroke-linecap="round" stroke-linejoin="round"/>
<path id="Vector_2 (Stroke)_2" fill-rule="evenodd" clip-rule="evenodd" d="M27.0043 40.3938H25.1739C24.8916 40.3938 24.6626 40.1649 24.6626 39.8825C24.6626 39.6001 24.8916 39.3712 25.1739 39.3712L28.2385 39.3712C28.2386 39.3712 28.2386 39.3712 28.2387 39.3712C28.308 39.3712 28.3741 39.385 28.4344 39.41C28.4947 39.435 28.5512 39.4719 28.6002 39.521C28.6493 39.57 28.6862 39.6265 28.7112 39.6868C28.7362 39.7471 28.75 39.8132 28.75 39.8825C28.75 39.8826 28.75 39.8826 28.75 39.8827L28.75 42.9473C28.75 43.2297 28.5211 43.4586 28.2387 43.4586C27.9563 43.4586 27.7274 43.2297 27.7274 42.9473V41.1169L24.9226 43.9218C24.7229 44.1215 24.3992 44.1215 24.1995 43.9218C23.9998 43.7222 23.9998 43.3984 24.1995 43.1987L27.0043 40.3938Z" fill="#0B2D1F" stroke="#0B2D1F" stroke-linecap="round" stroke-linejoin="round"/>
<path id="Vector_2 (Stroke)_3" fill-rule="evenodd" clip-rule="evenodd" d="M26.9555 24.6778H25.1251C24.8427 24.6778 24.6138 24.9067 24.6138 25.1891C24.6138 25.4715 24.8427 25.7004 25.1251 25.7004L28.1897 25.7004C28.1897 25.7004 28.1898 25.7004 28.1899 25.7004C28.2592 25.7004 28.3253 25.6866 28.3856 25.6616C28.4459 25.6366 28.5024 25.5996 28.5514 25.5506C28.6004 25.5016 28.6374 25.4451 28.6624 25.3848C28.6874 25.3245 28.7012 25.2584 28.7012 25.1891C28.7012 25.189 28.7012 25.1889 28.7012 25.1889L28.7012 22.1243C28.7012 21.8419 28.4723 21.613 28.1899 21.613C27.9075 21.613 27.6786 21.8419 27.6786 22.1243V23.9547L24.8738 21.1498C24.6741 20.9501 24.3503 20.9501 24.1507 21.1498C23.951 21.3494 23.951 21.6732 24.1507 21.8728L26.9555 24.6778Z" fill="#0B2D1F" stroke="#0B2D1F" stroke-linecap="round" stroke-linejoin="round"/>
<path id="Vector_2 (Stroke)_4" fill-rule="evenodd" clip-rule="evenodd" d="M45.0464 24.6778H46.8768C47.1592 24.6778 47.3881 24.9067 47.3881 25.1891C47.3881 25.4715 47.1592 25.7004 46.8768 25.7004L43.8123 25.7004C43.8122 25.7004 43.8121 25.7004 43.8121 25.7004C43.7428 25.7004 43.6767 25.6866 43.6164 25.6616C43.5561 25.6366 43.4996 25.5996 43.4505 25.5506C43.4015 25.5016 43.3645 25.4451 43.3396 25.3848C43.3146 25.3245 43.3008 25.2584 43.3008 25.1891C43.3008 25.189 43.3008 25.1889 43.3008 25.1889L43.3008 22.1243C43.3008 21.8419 43.5297 21.613 43.8121 21.613C44.0945 21.613 44.3234 21.8419 44.3234 22.1243V23.9547L47.1282 21.1498C47.3279 20.9501 47.6516 20.9501 47.8513 21.1498C48.051 21.3494 48.051 21.6732 47.8513 21.8728L45.0464 24.6778Z" fill="#0B2D1F" stroke="#0B2D1F" stroke-linecap="round" stroke-linejoin="round"/>
</g>
</g>
</svg>
