<svg width="240" height="240" viewBox="0 0 240 240" fill="none" xmlns="http://www.w3.org/2000/svg">
<path d="M150.666 112.158C163.333 112.174 175.984 112.238 188.642 112.192C195.658 112.165 200.615 115.229 203.726 121.496C209.04 132.209 214.444 142.889 219.778 153.585C220.28 154.662 221.075 155.577 222.073 156.223C225.598 158.512 227.362 161.86 227.378 166.045C227.418 175.927 227.402 185.807 227.378 195.687C227.378 198.943 225.989 200.314 222.711 200.316C204.807 200.328 186.904 200.328 169 200.316C168.111 200.316 167.204 200.349 166.306 200.367L158.115 200.38L103.111 200.316C102.362 200.316 101.611 200.343 100.864 200.303C98.4909 200.174 97.0398 198.856 97.0309 196.509C96.9909 185.96 96.942 175.412 97.0843 164.865C97.1332 161.209 99.0487 158.3 102.131 156.327C103.256 155.609 104.153 154.584 104.715 153.374C109.966 142.805 115.298 132.278 120.518 121.694C123.689 115.249 128.724 112.038 135.926 112.2C138.246 112.252 140.566 112.2 142.889 112.187L150.666 112.158ZM113.169 153.987C113.38 154.9 114.102 154.432 114.558 154.432C146.322 154.457 178.086 154.457 209.851 154.432C210.295 154.432 211.02 154.916 211.229 154C211.171 153.71 211.087 153.425 210.98 153.149C206.169 143.514 201.395 133.86 196.502 124.26C194.998 121.312 192.478 119.832 189.029 119.84C171.211 119.888 153.392 119.888 135.573 119.84C131.795 119.84 129.2 121.425 127.56 124.827C125.22 129.676 122.744 134.458 120.358 139.287C117.942 144.18 115.555 149.087 113.169 153.987ZM162.222 184.992C164.686 184.992 167.153 185.023 169.618 184.992C172.082 184.96 173.413 183.685 173.464 181.314C173.524 178.629 173.533 175.938 173.464 173.254C173.404 171.116 172.064 169.774 169.909 169.747C164.829 169.689 159.749 169.689 154.669 169.747C152.264 169.772 150.629 171.449 150.569 173.863C150.509 176.176 150.513 178.492 150.569 180.805C150.626 183.336 152.271 184.947 154.831 184.994C157.286 185.025 159.753 184.992 162.222 184.992ZM123.82 169.709C121.278 169.709 118.735 169.694 116.193 169.709C114.326 169.725 112.84 170.64 112.542 172.418C112.111 174.974 111.875 177.656 112.873 180.154C114.062 183.105 116.346 184.854 119.564 184.958C123.524 185.087 127.491 185.047 131.453 184.976C133.784 184.934 135.193 183.494 135.264 181.156C135.342 178.694 135.331 176.225 135.278 173.76C135.22 171.156 133.824 169.76 131.224 169.712C128.758 169.665 126.289 169.705 123.82 169.709ZM200.56 169.709C198.02 169.709 195.478 169.652 192.94 169.725C190.566 169.792 189.191 171.14 189.113 173.503C189.029 176.038 189.031 178.58 189.113 181.116C189.186 183.587 190.582 184.945 193.091 184.98C196.975 185.036 200.869 185.058 204.744 184.965C207.684 184.894 209.878 183.369 211.189 180.796C212.522 178.154 212.362 175.256 211.813 172.472C211.442 170.587 209.911 169.707 207.966 169.703C205.492 169.703 203.024 169.706 200.56 169.712V169.709Z" fill="#ECB22E"/>
<path d="M53.4954 20.2004L123.353 20.1581C126.124 20.1581 128.894 20.1529 131.664 20.1426V43.1004C106.944 43.1004 82.2243 43.1204 57.5043 43.0404C55.3709 43.0404 54.7465 43.5448 54.7509 45.7404C54.8235 76.5789 54.8398 107.418 54.7998 138.258C54.7998 139.307 54.7798 140.354 54.7687 141.403C51.4954 140.538 48.3576 139.265 44.8687 139.109C40.3131 138.909 36.0554 139.858 31.8643 141.423C31.8643 108.334 31.8694 75.2448 31.8798 42.1559C36.1731 45.9115 40.9131 47.9448 46.8087 46.6692C53.0731 45.3137 58.1998 39.1604 58.4643 32.8248C58.6665 27.7781 57.0243 23.6737 53.4954 20.2004Z" fill="#ECB22E"/>
<path d="M31.8599 141.423C36.051 139.867 40.3043 138.909 44.8643 139.109C48.3532 139.265 51.491 140.538 54.7643 141.403C59.3843 144.109 63.491 147.318 66.2688 152.069C68.6265 156.098 70.0199 160.387 70.0465 165.005C70.1354 179.3 70.0821 193.598 70.0843 207.894L16.5577 207.869C16.5577 193.803 16.5421 179.736 16.5821 165.669C16.6088 155.447 21.3688 147.892 29.9532 142.603L31.8599 141.423ZM43.1354 154.445C36.7354 154.445 32.0577 159.363 31.8154 165.818C31.5932 171.52 36.4177 177.3 43.0288 177.347C49.4843 177.394 54.7799 172.167 54.8066 165.772C54.8177 159.465 49.651 154.445 43.1354 154.445Z" fill="#A87A0F"/>
<path d="M166.222 215.578C185.013 215.588 203.805 215.602 222.597 215.618C228.075 215.618 231.386 218.951 231.084 224.062C230.895 227.3 228.373 230.222 225.168 230.802C223.99 231.011 222.796 231.112 221.6 231.107C181.995 231.123 142.391 231.123 102.786 231.107C97.5217 231.107 94.5795 229.314 93.4239 225.465C91.9239 220.458 95.5639 215.742 101.148 215.631C106.088 215.534 111.031 215.616 115.971 215.609C130.045 215.591 144.119 215.571 158.193 215.547L166.222 215.578Z" fill="#ECB22E"/>
<path d="M16.5619 207.869L70.0886 207.894C75.5308 208.845 77.7308 211.422 77.7375 216.865C77.7375 220.154 77.7619 223.442 77.7375 226.731C77.7064 229.538 76.4197 230.847 73.6041 230.849C53.333 230.865 33.0612 230.865 12.7886 230.849C10.1864 230.849 8.94413 229.598 8.91746 227.016C8.88191 223.654 8.90413 220.289 8.90635 216.927C8.90191 211.167 10.7664 208.965 16.5619 207.869Z" fill="#ECB22E"/>
<path d="M131.66 43.1115V20.1537C131.66 18.8048 131.638 17.4582 131.66 16.1115C131.694 11.9804 134.749 8.92928 138.907 8.91595C144.148 8.89521 149.391 8.89521 154.636 8.91595C159.022 8.9315 162.114 11.9515 162.218 16.3671C162.28 18.9848 162.218 21.6048 162.2 24.2248C159.436 24.2248 156.669 24.1537 153.905 24.2093C150.836 24.2693 148.327 26.1915 147.356 29.0826C145.609 34.2937 149.26 39.4093 154.785 39.4626C157.251 39.4848 159.718 39.4471 162.185 39.4359C162.149 42.4737 162.6 45.5404 161.963 48.5471C161.154 52.2937 158.458 54.4715 154.585 54.7471H139.265C134.307 54.3337 131.68 51.5471 131.669 46.6848C131.647 45.4826 131.658 44.2915 131.66 43.1115Z" fill="#A87A0F"/>
<path d="M53.495 20.2008C57.0239 23.6741 58.6661 27.7785 58.4594 32.8252C58.195 39.1608 53.0683 45.3141 46.8039 46.6697C40.9083 47.9452 36.1683 45.9119 31.875 42.1563C30.3194 39.8697 28.7639 37.5963 28.2683 34.7741C27.1394 28.2608 29.1816 22.923 34.5505 19.1585C40.0372 15.3097 46.6016 15.5319 52.2128 19.2985C52.6461 19.5897 53.0683 19.8985 53.495 20.2008Z" fill="#A87A0F"/>
<path d="M154.562 70.0008C157.771 70.9919 158.193 71.5253 158.195 74.6875C158.195 80.6712 158.195 86.6556 158.195 92.6408C158.195 97.6541 155.471 100.436 150.491 100.556L143.055 100.585C138.337 100.396 135.277 97.3008 135.277 92.6164C135.255 86.6445 135.255 80.6741 135.277 74.7053C135.277 71.8475 136.389 70.5564 139.255 69.9941L154.562 70.0008Z" fill="#A87A0F"/>
<path d="M154.562 70.0005H139.246C139.246 64.9146 139.246 59.8272 139.246 54.7383H154.566C154.565 59.8242 154.563 64.9116 154.562 70.0005Z" fill="#ECB22E"/>
<path d="M162.178 39.4246C159.712 39.4358 157.245 39.4735 154.778 39.4513C149.254 39.398 145.603 34.2824 147.349 29.0713C148.32 26.1824 150.829 24.258 153.898 24.198C156.663 24.1424 159.429 24.198 162.194 24.2135C162.189 29.2846 162.184 34.355 162.178 39.4246Z" fill="#ECB22E"/>
<path d="M166.222 215.578L158.2 215.556C158.178 210.502 158.155 205.448 158.131 200.391L166.322 200.378L166.222 215.578Z" fill="#A87A0F"/>
<path d="M143.056 100.589L150.491 100.561L150.664 112.158L142.887 112.187L143.056 100.589Z" fill="#ECB22E"/>
<path d="M113.169 153.987C115.565 149.087 117.942 144.18 120.358 139.291C122.744 134.463 125.22 129.68 127.56 124.831C129.2 121.429 131.793 119.836 135.573 119.845C153.391 119.883 171.21 119.883 189.029 119.845C192.478 119.845 194.998 121.316 196.502 124.265C201.391 133.858 206.169 143.511 210.98 153.154C211.088 153.43 211.171 153.714 211.229 154.005L113.169 153.987ZM169.836 142.767C170.569 142.828 171.3 142.627 171.898 142.198C175.898 139.591 179.92 137.011 183.86 134.311C185.293 133.329 185.625 130.978 184.78 129.645C183.6 127.787 181.498 126.918 179.798 127.974C175.555 130.609 171.383 133.359 167.282 136.223C165.991 137.111 165.536 138.618 166.258 140.223C166.942 141.718 167.878 142.907 169.84 142.767H169.836ZM139.251 142.767C140.116 142.856 140.902 142.469 141.664 141.958C145.072 139.675 148.479 137.403 151.887 135.14C152.706 134.617 153.414 133.937 153.971 133.14C154.942 131.709 154.725 130.314 153.629 129.038C152.533 127.763 150.927 126.816 149.476 127.718C144.991 130.505 140.642 133.523 136.342 136.591C135.202 137.405 134.829 138.847 135.584 140.229C136.34 141.611 137.271 142.92 139.256 142.769L139.251 142.767Z" fill="#F7DDA1"/>
<path d="M162.222 184.992C159.757 184.992 157.291 185.025 154.826 184.992C152.266 184.945 150.622 183.334 150.564 180.803C150.511 178.49 150.506 176.174 150.564 173.861C150.624 171.447 152.26 169.77 154.664 169.745C159.744 169.692 164.824 169.692 169.904 169.745C172.057 169.772 173.397 171.114 173.46 173.252C173.533 175.936 173.524 178.627 173.46 181.312C173.409 183.683 172.064 184.95 169.613 184.99C167.162 185.03 164.682 184.992 162.222 184.992Z" fill="#A87A0F"/>
<path d="M123.82 169.707C126.289 169.707 128.758 169.665 131.224 169.707C133.824 169.763 135.224 171.152 135.278 173.756C135.331 176.221 135.342 178.689 135.264 181.152C135.193 183.489 133.784 184.929 131.453 184.972C127.491 185.043 123.524 185.083 119.564 184.954C116.347 184.849 114.062 183.101 112.873 180.149C111.867 177.652 112.111 174.969 112.542 172.414C112.84 170.636 114.32 169.721 116.193 169.705C118.735 169.694 121.278 169.709 123.82 169.707Z" fill="#F7DDA1"/>
<path d="M200.56 169.709C203.024 169.709 205.489 169.709 207.955 169.709C209.9 169.709 211.431 170.598 211.802 172.478C212.351 175.262 212.518 178.16 211.178 180.802C209.873 183.376 207.68 184.9 204.733 184.971C200.851 185.065 196.955 185.042 193.08 184.987C190.571 184.951 189.175 183.593 189.102 181.122C189.024 178.587 189.022 176.045 189.102 173.509C189.18 171.142 190.555 169.793 192.929 169.731C195.478 169.653 198.02 169.711 200.56 169.709Z" fill="#F7DDA1"/>
<path d="M113.169 153.987H211.229C211.02 154.903 210.302 154.418 209.851 154.418C178.087 154.444 146.322 154.444 114.558 154.418C114.102 154.425 113.38 154.901 113.169 153.987Z" fill="#4EB3DA"/>
<path d="M43.1355 154.445C49.6511 154.445 54.8177 159.463 54.7977 165.779C54.78 172.174 49.4844 177.401 43.02 177.354C36.4088 177.308 31.5933 171.528 31.8066 165.825C32.0577 159.365 36.7355 154.445 43.1355 154.445Z" fill="#ECB22E"/>
<path d="M169.84 142.767C167.878 142.907 166.951 141.718 166.258 140.211C165.536 138.618 165.991 137.123 167.282 136.211C171.383 133.358 175.556 130.609 179.802 127.963C181.502 126.907 183.604 127.776 184.784 129.634C185.629 130.967 185.298 133.318 183.864 134.3C179.924 137 175.902 139.58 171.902 142.187C171.306 142.62 170.575 142.825 169.84 142.767V142.767Z" fill="#FBEED0"/>
<path d="M139.256 142.769C137.271 142.92 136.367 141.627 135.593 140.229C134.82 138.832 135.211 137.405 136.351 136.592C140.651 133.523 145 130.505 149.484 127.718C150.936 126.816 152.524 127.743 153.638 129.038C154.751 130.334 154.951 131.705 153.98 133.14C153.423 133.938 152.715 134.617 151.896 135.14C148.475 137.398 145.067 139.671 141.673 141.958C140.907 142.472 140.12 142.858 139.256 142.769Z" fill="#FBEED0"/>
</svg>
