<svg width="72" height="72" viewBox="0 0 72 72" fill="none" xmlns="http://www.w3.org/2000/svg">
<g id="bills-of-material">
<g id="Group">
<g id="Vector">
<path d="M9.0264 4.2417C7.83857 4.55428 6.8633 5.11694 5.98805 5.97968C5.11281 6.86743 4.56266 7.83019 4.25007 9.06804C4.0125 9.98079 4 10.4559 4 17.8955C4 25.5226 4.0125 25.7727 4.25007 26.2478C4.41261 26.5729 4.67519 26.8355 5.00028 26.998C5.46291 27.2356 5.72548 27.2481 9.62656 27.2481H13.7527V46.8785C13.7527 66.3214 13.7527 66.5215 14.0028 67.0091C14.2779 67.5593 15.0031 68.0094 15.6032 68.0094C15.8033 68.0094 17.0161 67.6218 18.304 67.1342L20.6296 66.2589L22.9553 67.1342C24.2431 67.6218 25.4435 68.0094 25.631 68.0094C25.8186 68.0094 27.0189 67.6218 28.3068 67.1342L30.6324 66.2589L32.958 67.1342C34.2459 67.6218 35.4462 68.0094 35.6338 68.0094C35.8213 68.0094 37.0217 67.6218 38.3095 67.1342L40.6352 66.2589L42.9608 67.1342C44.2487 67.6218 45.449 68.0094 45.6366 68.0094C45.8241 68.0094 47.0245 67.6218 48.3123 67.1342L50.638 66.2589L52.9636 67.1342C54.2515 67.6218 55.4643 68.0094 55.6644 68.0094C56.2645 68.0094 56.9897 67.5593 57.2648 67.0091C57.5024 66.5465 57.5149 66.2839 57.5149 62.0703V57.6315L58.5777 57.1439C60.3281 56.3312 61.7035 55.3434 63.2164 53.8305C65.267 51.7799 66.5924 49.6043 67.3426 47.0286C69.5932 39.2764 65.9172 31.1742 58.5777 27.7357L57.5149 27.2356V18.6332C57.5149 10.4684 57.5024 9.98079 57.2648 9.06804C56.9522 7.83019 56.4146 6.89243 55.5143 5.99218C54.6141 5.09193 53.6763 4.55428 52.4385 4.2417C51.4882 3.99163 51.0256 3.99162 30.7074 4.00413C10.6268 4.00413 9.91414 4.01663 9.0264 4.2417ZM11.6771 7.89271C12.3648 8.09277 13.4026 9.13055 13.6027 9.81824C13.7152 10.1933 13.7527 12.1189 13.7527 16.9202V23.497H10.7519H7.75104V16.9202C7.75104 12.1189 7.78855 10.1933 7.90108 9.81824C8.08864 9.18057 9.13893 8.10527 9.7516 7.90521C10.3518 7.71766 11.0645 7.71766 11.6771 7.89271ZM51.6882 7.89271C52.3759 8.09277 53.4137 9.13055 53.6138 9.81824C53.7263 10.2059 53.7638 12.419 53.7638 18.3456V26.3478L52.5385 26.2853C47.2245 25.9852 41.9981 28.5234 38.7346 32.9622L37.9844 34H30.3573C22.9803 34 22.7302 34.0125 22.2551 34.25C21.6924 34.5376 21.2548 35.2503 21.2548 35.8755C21.2548 36.5007 21.6924 37.2133 22.2551 37.5009C22.7302 37.7385 22.9803 37.751 29.5196 37.751H36.2965L36.2215 38.0886C36.1714 38.2886 36.0589 38.8263 35.9589 39.3139C35.8463 39.7891 35.7588 40.3517 35.7588 40.5643C35.7588 40.7643 35.7213 41.0644 35.6838 41.2145L35.6088 41.502H29.1695C22.9803 41.502 22.7302 41.5145 22.2551 41.7521C21.6924 42.0397 21.2548 42.7524 21.2548 43.3776C21.2548 44.0027 21.6924 44.7154 22.2551 45.003C22.7302 45.2406 22.9803 45.2531 29.2945 45.2531H35.8588L36.1214 46.3159C36.359 47.2411 36.5715 47.8913 36.9467 48.7791C37.0342 48.9916 36.6466 49.0041 29.8947 49.0041C22.9803 49.0041 22.7302 49.0166 22.2551 49.2542C21.6924 49.5418 21.2548 50.2545 21.2548 50.8796C21.2548 51.5048 21.6924 52.2175 22.2551 52.5051C22.7302 52.7427 22.9803 52.7552 30.6949 52.7552C35.8463 52.7552 38.7346 52.7052 38.8847 52.6301C39.0847 52.5176 39.2098 52.5926 39.6599 53.0928C41.673 55.2934 44.0486 56.8938 46.5868 57.744C48.5124 58.3817 49.6252 58.5568 51.7883 58.5693H53.7638V60.9699C53.7638 62.2953 53.7388 63.3831 53.7138 63.3831C53.6888 63.3831 53.0761 63.1581 52.3384 62.883C51.6132 62.6079 50.8505 62.3828 50.6505 62.3828C50.4629 62.3828 49.2501 62.7704 47.9747 63.2581L45.6491 64.1333L43.3234 63.2581C42.0481 62.7704 40.8477 62.3828 40.6477 62.3828C40.4601 62.3828 39.2473 62.7704 37.9719 63.2581L35.6463 64.1333L33.3206 63.2581C32.0453 62.7704 30.845 62.3828 30.6449 62.3828C30.4573 62.3828 29.2445 62.7704 27.9692 63.2581L25.6435 64.1333L23.3179 63.2581C22.0425 62.7704 20.8422 62.3828 20.6421 62.3828C20.4546 62.3828 19.6919 62.6079 18.9542 62.883C18.229 63.1581 17.6038 63.3831 17.5663 63.3831C17.5288 63.3831 17.4912 51.2172 17.4787 36.3381L17.4412 9.3056L17.1662 8.61791C17.0036 8.24281 16.8786 7.89271 16.8786 7.83019C16.8786 7.78018 24.5932 7.74267 34.0208 7.74267C47.1245 7.74267 51.2881 7.78018 51.6882 7.89271ZM54.7891 30.3614C57.0772 30.9491 58.9153 32.0119 60.5907 33.6749C61.8536 34.9502 62.8038 36.3756 63.3915 37.9135C64.0542 39.614 64.1917 40.3892 64.1917 42.4398C64.1917 44.4904 64.0542 45.2656 63.3915 46.9661C62.2037 50.0544 59.4404 52.8177 56.352 54.0055C54.6891 54.6557 53.8639 54.8057 51.8883 54.8057C49.9002 54.8182 48.9625 54.6557 47.2745 54.0055C44.2112 52.8177 41.4479 50.0544 40.2601 46.9661C39.5974 45.2656 39.4599 44.4904 39.4599 42.4398C39.4599 40.3892 39.5974 39.614 40.2601 37.9135C41.4479 34.8252 44.2112 32.0619 47.2745 30.8741C48.0872 30.5615 49.0375 30.3114 50.2629 30.0739C51.0006 29.9363 53.8513 30.1114 54.7891 30.3614Z" fill="#0D313B"/>
<path d="M11.6771 7.89271C12.3648 8.09277 13.4026 9.13055 13.6027 9.81824C13.7152 10.1933 13.7527 12.1189 13.7527 16.9202V23.497H10.7519H7.75104V16.9202C7.75104 12.1189 7.78855 10.1933 7.90108 9.81824C8.08864 9.18057 9.13893 8.10527 9.7516 7.90521C10.3518 7.71766 11.0645 7.71766 11.6771 7.89271Z" fill="#2894B4"/>
<path d="M54.7891 30.3614C57.0772 30.9491 58.9153 32.0119 60.5907 33.6749C61.8536 34.9502 62.8038 36.3756 63.3915 37.9135C64.0542 39.614 64.1917 40.3892 64.1917 42.4398C64.1917 44.4904 64.0542 45.2656 63.3915 46.9661C62.2037 50.0544 59.4404 52.8177 56.352 54.0055C54.6891 54.6557 53.8639 54.8057 51.8883 54.8057C49.9002 54.8182 48.9625 54.6557 47.2745 54.0055C44.2112 52.8177 41.4479 50.0544 40.2601 46.9661C39.5974 45.2656 39.4599 44.4904 39.4599 42.4398C39.4599 40.3892 39.5974 39.614 40.2601 37.9135C41.4479 34.8252 44.2112 32.0619 47.2745 30.8741C48.0872 30.5615 49.0375 30.3114 50.2629 30.0739C51.0006 29.9363 53.8513 30.1114 54.7891 30.3614Z" fill="#68D4F4"/>
</g>
<path id="Vector_2" d="M22.6114 18.8128C21.9761 19.0973 21.459 19.8604 21.459 20.4811C21.459 21.1278 21.9761 21.865 22.6409 22.1624C23.2024 22.4081 23.4978 22.4211 32.6136 22.4211C41.7294 22.4211 42.0248 22.4081 42.5863 22.1624C43.2511 21.865 43.7682 21.1278 43.7682 20.4811C43.7682 19.8345 43.2511 19.0973 42.5863 18.7999C42.0248 18.5541 41.7441 18.5412 32.584 18.5412C23.4978 18.5541 23.1433 18.5671 22.6114 18.8128Z" fill="#0D313B"/>
<path id="Vector_3" d="M22.4611 26.5729C21.9086 26.8575 21.459 27.6205 21.459 28.2413C21.459 28.8879 21.9086 29.6251 22.4868 29.9226C22.975 30.1683 23.2319 30.1812 31.1586 30.1812C39.0854 30.1812 39.3423 30.1683 39.8305 29.9226C40.4087 29.6251 40.8583 28.8879 40.8583 28.2413C40.8583 27.5946 40.4087 26.8575 39.8305 26.56C39.3423 26.3143 39.0982 26.3013 31.133 26.3013C23.2319 26.3143 22.9236 26.3272 22.4611 26.5729Z" fill="#0D313B"/>
</g>
<g id="products">
<g id="Group 159054">
<g id="Rectangle 34624447">
<mask id="path-4-outside-1_5911_45131" maskUnits="userSpaceOnUse" x="44.875" y="35.7777" width="14" height="4" fill="black">
<rect fill="white" x="44.875" y="35.7777" width="14" height="4"/>
<path d="M58.125 36.7777H45.875V39.111H58.125V36.7777Z"/>
</mask>
<path d="M58.125 36.7777H45.875V39.111H58.125V36.7777Z" fill="#2894B4"/>
<path d="M58.125 36.7777H45.875V39.111H58.125V36.7777Z" stroke="#0D313B" stroke-width="0.4" mask="url(#path-4-outside-1_5911_45131)"/>
</g>
<g id="Rectangle 47 (Stroke)">
<mask id="path-5-outside-2_5911_45131" maskUnits="userSpaceOnUse" x="44" y="35" width="16" height="6" fill="black">
<rect fill="white" x="44" y="35" width="16" height="6"/>
<path fill-rule="evenodd" clip-rule="evenodd" d="M46.2444 36.9333C46.0726 36.9333 45.9333 37.0726 45.9333 37.2444V38.6444C45.9333 38.8163 46.0726 38.9556 46.2444 38.9556H57.7556C57.9274 38.9556 58.0667 38.8163 58.0667 38.6444V37.2444C58.0667 37.0726 57.9274 36.9333 57.7556 36.9333H46.2444ZM45 37.2444C45 36.5572 45.5572 36 46.2444 36H57.7556C58.4428 36 59 36.5572 59 37.2444V38.6444C59 39.3317 58.4428 39.8889 57.7556 39.8889H46.2444C45.5572 39.8889 45 39.3317 45 38.6444V37.2444Z"/>
</mask>
<path fill-rule="evenodd" clip-rule="evenodd" d="M46.2444 36.9333C46.0726 36.9333 45.9333 37.0726 45.9333 37.2444V38.6444C45.9333 38.8163 46.0726 38.9556 46.2444 38.9556H57.7556C57.9274 38.9556 58.0667 38.8163 58.0667 38.6444V37.2444C58.0667 37.0726 57.9274 36.9333 57.7556 36.9333H46.2444ZM45 37.2444C45 36.5572 45.5572 36 46.2444 36H57.7556C58.4428 36 59 36.5572 59 37.2444V38.6444C59 39.3317 58.4428 39.8889 57.7556 39.8889H46.2444C45.5572 39.8889 45 39.3317 45 38.6444V37.2444Z" fill="#0D313B"/>
<path fill-rule="evenodd" clip-rule="evenodd" d="M46.2444 36.9333C46.0726 36.9333 45.9333 37.0726 45.9333 37.2444V38.6444C45.9333 38.8163 46.0726 38.9556 46.2444 38.9556H57.7556C57.9274 38.9556 58.0667 38.8163 58.0667 38.6444V37.2444C58.0667 37.0726 57.9274 36.9333 57.7556 36.9333H46.2444ZM45 37.2444C45 36.5572 45.5572 36 46.2444 36H57.7556C58.4428 36 59 36.5572 59 37.2444V38.6444C59 39.3317 58.4428 39.8889 57.7556 39.8889H46.2444C45.5572 39.8889 45 39.3317 45 38.6444V37.2444Z" stroke="#0D313B" stroke-width="0.4" mask="url(#path-5-outside-2_5911_45131)"/>
</g>
<g id="Rectangle 48">
<mask id="path-6-outside-3_5911_45131" maskUnits="userSpaceOnUse" x="49.25" y="40.4443" width="5" height="3" fill="black">
<rect fill="white" x="49.25" y="40.4443" width="5" height="3"/>
<path d="M53.6431 41.4443H50.3569C50.2979 41.4443 50.25 41.4922 50.25 41.5513V42.8929C50.25 42.952 50.2979 42.9999 50.3569 42.9999H53.6431C53.7021 42.9999 53.75 42.952 53.75 42.8929V41.5513C53.75 41.4922 53.7021 41.4443 53.6431 41.4443Z"/>
</mask>
<path d="M53.6431 41.4443H50.3569C50.2979 41.4443 50.25 41.4922 50.25 41.5513V42.8929C50.25 42.952 50.2979 42.9999 50.3569 42.9999H53.6431C53.7021 42.9999 53.75 42.952 53.75 42.8929V41.5513C53.75 41.4922 53.7021 41.4443 53.6431 41.4443Z" fill="#0D313B"/>
<path d="M53.6431 41.4443H50.3569C50.2979 41.4443 50.25 41.4922 50.25 41.5513V42.8929C50.25 42.952 50.2979 42.9999 50.3569 42.9999H53.6431C53.7021 42.9999 53.75 42.952 53.75 42.8929V41.5513C53.75 41.4922 53.7021 41.4443 53.6431 41.4443Z" stroke="#0D313B" stroke-width="0.4" mask="url(#path-6-outside-3_5911_45131)"/>
</g>
<g id="Rectangle 46">
<g id="Vector (Stroke)">
<mask id="path-7-outside-4_5911_45131" maskUnits="userSpaceOnUse" x="44.8066" y="37.8864" width="14" height="10" fill="black">
<rect fill="white" x="44.8066" y="37.8864" width="14" height="10"/>
<path fill-rule="evenodd" clip-rule="evenodd" d="M46.8109 40.0443V46.7332H57.1942V40.0443H46.8109ZM45.8066 40.0443C45.8066 39.1852 45.9518 38.8864 46.8109 38.8864L51.8561 38.8864H57.1942C58.2079 38.8864 58.2077 38.8864 58.2077 40.0962L58.2079 43.4234L58.2079 46.7332C58.2079 47.658 58.2079 47.658 57.1942 47.658H52.1585H46.8108C45.8066 47.658 45.8066 47.6753 45.8066 46.7505V43.4234V40.0443Z"/>
</mask>
<path fill-rule="evenodd" clip-rule="evenodd" d="M46.8109 40.0443V46.7332H57.1942V40.0443H46.8109ZM45.8066 40.0443C45.8066 39.1852 45.9518 38.8864 46.8109 38.8864L51.8561 38.8864H57.1942C58.2079 38.8864 58.2077 38.8864 58.2077 40.0962L58.2079 43.4234L58.2079 46.7332C58.2079 47.658 58.2079 47.658 57.1942 47.658H52.1585H46.8108C45.8066 47.658 45.8066 47.6753 45.8066 46.7505V43.4234V40.0443Z" fill="#0D313B"/>
<path fill-rule="evenodd" clip-rule="evenodd" d="M46.8109 40.0443V46.7332H57.1942V40.0443H46.8109ZM45.8066 40.0443C45.8066 39.1852 45.9518 38.8864 46.8109 38.8864L51.8561 38.8864H57.1942C58.2079 38.8864 58.2077 38.8864 58.2077 40.0962L58.2079 43.4234L58.2079 46.7332C58.2079 47.658 58.2079 47.658 57.1942 47.658H52.1585H46.8108C45.8066 47.658 45.8066 47.6753 45.8066 46.7505V43.4234V40.0443Z" stroke="#0D313B" stroke-width="0.4" mask="url(#path-7-outside-4_5911_45131)"/>
</g>
</g>
</g>
</g>
</g>
</svg>
