<svg width="72" height="72" viewBox="0 0 72 72" fill="none" xmlns="http://www.w3.org/2000/svg">
<path d="M9.0264 4.2417C7.83857 4.55428 6.8633 5.11694 5.98805 5.97968C5.11281 6.86743 4.56266 7.83019 4.25007 9.06804C4.0125 9.98079 4 10.4559 4 17.8955C4 25.5226 4.0125 25.7727 4.25007 26.2478C4.41261 26.5729 4.67519 26.8355 5.00028 26.998C5.46291 27.2356 5.72548 27.2481 9.62656 27.2481H13.7527V46.8785C13.7527 66.3214 13.7527 66.5215 14.0028 67.0091C14.2779 67.5593 15.0031 68.0094 15.6032 68.0094C15.8033 68.0094 17.0161 67.6218 18.304 67.1342L20.6296 66.2589L22.9553 67.1342C24.2431 67.6218 25.4435 68.0094 25.631 68.0094C25.8186 68.0094 27.0189 67.6218 28.3068 67.1342L30.6324 66.2589L32.958 67.1342C34.2459 67.6218 35.4462 68.0094 35.6338 68.0094C35.8213 68.0094 37.0217 67.6218 38.3095 67.1342L40.6352 66.2589L42.9608 67.1342C44.2487 67.6218 45.449 68.0094 45.6366 68.0094C45.8241 68.0094 47.0245 67.6218 48.3123 67.1342L50.638 66.2589L52.9636 67.1342C54.2515 67.6218 55.4643 68.0094 55.6644 68.0094C56.2645 68.0094 56.9897 67.5593 57.2648 67.0091C57.5024 66.5465 57.5149 66.2839 57.5149 62.0703V57.6315L58.5777 57.1439C60.3281 56.3312 61.7035 55.3434 63.2164 53.8305C65.267 51.7799 66.5924 49.6043 67.3426 47.0286C69.5932 39.2764 65.9172 31.1742 58.5777 27.7357L57.5149 27.2356V18.6332C57.5149 10.4684 57.5024 9.98079 57.2648 9.06804C56.9522 7.83019 56.4146 6.89243 55.5143 5.99218C54.6141 5.09193 53.6763 4.55428 52.4385 4.2417C51.4882 3.99163 51.0256 3.99162 30.7074 4.00413C10.6268 4.00413 9.91414 4.01663 9.0264 4.2417ZM11.6771 7.89271C12.3648 8.09277 13.4026 9.13055 13.6027 9.81824C13.7152 10.1933 13.7527 12.1189 13.7527 16.9202V23.497H10.7519H7.75104V16.9202C7.75104 12.1189 7.78855 10.1933 7.90108 9.81824C8.08864 9.18057 9.13893 8.10527 9.7516 7.90521C10.3518 7.71766 11.0645 7.71766 11.6771 7.89271ZM51.6882 7.89271C52.3759 8.09277 53.4137 9.13055 53.6138 9.81824C53.7263 10.2059 53.7638 12.419 53.7638 18.3456V26.3478L52.5385 26.2853C47.2245 25.9852 41.9981 28.5234 38.7346 32.9622L37.9844 34H30.3573C22.9803 34 22.7302 34.0125 22.2551 34.25C21.6924 34.5376 21.2548 35.2503 21.2548 35.8755C21.2548 36.5007 21.6924 37.2133 22.2551 37.5009C22.7302 37.7385 22.9803 37.751 29.5196 37.751H36.2965L36.2215 38.0886C36.1714 38.2886 36.0589 38.8263 35.9589 39.3139C35.8463 39.7891 35.7588 40.3517 35.7588 40.5643C35.7588 40.7643 35.7213 41.0644 35.6838 41.2145L35.6088 41.502H29.1695C22.9803 41.502 22.7302 41.5145 22.2551 41.7521C21.6924 42.0397 21.2548 42.7524 21.2548 43.3776C21.2548 44.0027 21.6924 44.7154 22.2551 45.003C22.7302 45.2406 22.9803 45.2531 29.2945 45.2531H35.8588L36.1214 46.3159C36.359 47.2411 36.5715 47.8913 36.9467 48.7791C37.0342 48.9916 36.6466 49.0041 29.8947 49.0041C22.9803 49.0041 22.7302 49.0166 22.2551 49.2542C21.6924 49.5418 21.2548 50.2545 21.2548 50.8796C21.2548 51.5048 21.6924 52.2175 22.2551 52.5051C22.7302 52.7427 22.9803 52.7552 30.6949 52.7552C35.8463 52.7552 38.7346 52.7052 38.8847 52.6301C39.0847 52.5176 39.2098 52.5926 39.6599 53.0928C41.673 55.2934 44.0486 56.8938 46.5868 57.744C48.5124 58.3817 49.6252 58.5568 51.7883 58.5693H53.7638V60.9699C53.7638 62.2953 53.7388 63.3831 53.7138 63.3831C53.6888 63.3831 53.0761 63.1581 52.3384 62.883C51.6132 62.6079 50.8505 62.3828 50.6505 62.3828C50.4629 62.3828 49.2501 62.7704 47.9747 63.2581L45.6491 64.1333L43.3234 63.2581C42.0481 62.7704 40.8477 62.3828 40.6477 62.3828C40.4601 62.3828 39.2473 62.7704 37.9719 63.2581L35.6463 64.1333L33.3206 63.2581C32.0453 62.7704 30.845 62.3828 30.6449 62.3828C30.4573 62.3828 29.2445 62.7704 27.9692 63.2581L25.6435 64.1333L23.3179 63.2581C22.0425 62.7704 20.8422 62.3828 20.6421 62.3828C20.4546 62.3828 19.6919 62.6079 18.9542 62.883C18.229 63.1581 17.6038 63.3831 17.5663 63.3831C17.5288 63.3831 17.4912 51.2172 17.4787 36.3381L17.4412 9.3056L17.1662 8.61791C17.0036 8.24281 16.8786 7.89271 16.8786 7.83019C16.8786 7.78018 24.5932 7.74267 34.0208 7.74267C47.1245 7.74267 51.2881 7.78018 51.6882 7.89271ZM54.7891 30.3614C57.0772 30.9491 58.9153 32.0119 60.5907 33.6749C61.8536 34.9502 62.8038 36.3756 63.3915 37.9135C64.0542 39.614 64.1917 40.3892 64.1917 42.4398C64.1917 44.4904 64.0542 45.2656 63.3915 46.9661C62.2037 50.0544 59.4404 52.8177 56.352 54.0055C54.6891 54.6557 53.8639 54.8057 51.8883 54.8057C49.9002 54.8182 48.9625 54.6557 47.2745 54.0055C44.2112 52.8177 41.4479 50.0544 40.2601 46.9661C39.5974 45.2656 39.4599 44.4904 39.4599 42.4398C39.4599 40.3892 39.5974 39.614 40.2601 37.9135C41.4479 34.8252 44.2112 32.0619 47.2745 30.8741C48.0872 30.5615 49.0375 30.3114 50.2629 30.0739C51.0006 29.9363 53.8513 30.1114 54.7891 30.3614Z" fill="#0D313B"/>
<path d="M54.7891 30.3614C57.0772 30.9491 58.9153 32.0119 60.5907 33.6749C61.8536 34.9502 62.8038 36.3756 63.3915 37.9135C64.0542 39.614 64.1917 40.3892 64.1917 42.4398C64.1917 44.4904 64.0542 45.2656 63.3915 46.9661C62.2037 50.0544 59.4404 52.8177 56.352 54.0055C54.6891 54.6557 53.8639 54.8057 51.8883 54.8057C49.9002 54.8182 48.9625 54.6557 47.2745 54.0055C44.2112 52.8177 41.4479 50.0544 40.2601 46.9661C39.5974 45.2656 39.4599 44.4904 39.4599 42.4398C39.4599 40.3892 39.5974 39.614 40.2601 37.9135C41.4479 34.8252 44.2112 32.0619 47.2745 30.8741C48.0872 30.5615 49.0375 30.3114 50.2629 30.0739C51.0006 29.9363 53.8513 30.1114 54.7891 30.3614Z" fill="#2894B4"/>
<path d="M11.6771 7.89271C12.3648 8.09277 13.4026 9.13055 13.6027 9.81824C13.7152 10.1933 13.7527 12.1189 13.7527 16.9202V23.497H10.7519H7.75104V16.9202C7.75104 12.1189 7.78855 10.1933 7.90108 9.81824C8.08864 9.18057 9.13893 8.10527 9.7516 7.90521C10.3518 7.71766 11.0645 7.71766 11.6771 7.89271Z" fill="#2894B4"/>
<path d="M51.6882 7.89271C52.3759 8.09277 53.4137 9.13055 53.6138 9.81824C53.7263 10.2059 53.7638 12.419 53.7638 18.3456V26.3478L52.5385 26.2853C47.2245 25.9852 41.9981 28.5234 38.7346 32.9622L37.9844 34H30.3573C22.9803 34 22.7302 34.0125 22.2551 34.25C21.6924 34.5376 21.2548 35.2503 21.2548 35.8755C21.2548 36.5007 21.6924 37.2133 22.2551 37.5009C22.7302 37.7385 22.9803 37.751 29.5196 37.751H36.2965L36.2215 38.0886C36.1714 38.2886 36.0589 38.8263 35.9589 39.3139C35.8463 39.7891 35.7588 40.3517 35.7588 40.5643C35.7588 40.7643 35.7213 41.0644 35.6838 41.2145L35.6088 41.502H29.1695C22.9803 41.502 22.7302 41.5145 22.2551 41.7521C21.6924 42.0397 21.2548 42.7524 21.2548 43.3776C21.2548 44.0027 21.6924 44.7154 22.2551 45.003C22.7302 45.2406 22.9803 45.2531 29.2945 45.2531H35.8588L36.1214 46.3159C36.359 47.2411 36.5715 47.8913 36.9467 48.7791C37.0342 48.9916 36.6466 49.0041 29.8947 49.0041C22.9803 49.0041 22.7302 49.0166 22.2551 49.2542C21.6924 49.5418 21.2548 50.2545 21.2548 50.8796C21.2548 51.5048 21.6924 52.2175 22.2551 52.5051C22.7302 52.7427 22.9803 52.7552 30.6949 52.7552C35.8463 52.7552 38.7346 52.7052 38.8847 52.6301C39.0847 52.5176 39.2098 52.5926 39.6599 53.0928C41.673 55.2934 44.0486 56.8938 46.5868 57.744C48.5124 58.3817 49.6252 58.5568 51.7883 58.5693H53.7638V60.9699C53.7638 62.2953 53.7388 63.3831 53.7138 63.3831C53.6888 63.3831 53.0761 63.1581 52.3384 62.883C51.6132 62.6079 50.8505 62.3828 50.6505 62.3828C50.4629 62.3828 49.2501 62.7704 47.9747 63.2581L45.6491 64.1333L43.3234 63.2581C42.0481 62.7704 40.8477 62.3828 40.6477 62.3828C40.4601 62.3828 39.2473 62.7704 37.9719 63.2581L35.6463 64.1333L33.3206 63.2581C32.0453 62.7704 30.845 62.3828 30.6449 62.3828C30.4573 62.3828 29.2445 62.7704 27.9692 63.2581L25.6435 64.1333L23.3179 63.2581C22.0425 62.7704 20.8422 62.3828 20.6421 62.3828C20.4546 62.3828 19.6919 62.6079 18.9542 62.883C18.229 63.1581 17.6038 63.3831 17.5663 63.3831C17.5288 63.3831 17.4912 51.2172 17.4787 36.3381L17.4412 9.3056L17.1662 8.61791C17.0036 8.24281 16.8786 7.89271 16.8786 7.83019C16.8786 7.78018 24.5932 7.74267 34.0208 7.74267C47.1245 7.74267 51.2881 7.78018 51.6882 7.89271Z" fill="#68D4F4"/>
<path d="M22.6114 18.8128C21.9761 19.0973 21.459 19.8604 21.459 20.4811C21.459 21.1278 21.9761 21.865 22.6409 22.1624C23.2024 22.4081 23.4978 22.4211 32.6136 22.4211C41.7294 22.4211 42.0248 22.4081 42.5863 22.1624C43.2511 21.865 43.7682 21.1278 43.7682 20.4811C43.7682 19.8345 43.2511 19.0973 42.5863 18.7999C42.0248 18.5541 41.7441 18.5412 32.584 18.5412C23.4978 18.5541 23.1433 18.5671 22.6114 18.8128Z" fill="#0D313B"/>
<path d="M22.4611 26.5729C21.9086 26.8575 21.459 27.6205 21.459 28.2413C21.459 28.8879 21.9086 29.6251 22.4868 29.9226C22.975 30.1683 23.2319 30.1812 31.1586 30.1812C39.0854 30.1812 39.3423 30.1683 39.8305 29.9226C40.4087 29.6251 40.8583 28.8879 40.8583 28.2413C40.8583 27.5946 40.4087 26.8575 39.8305 26.56C39.3423 26.3143 39.0982 26.3013 31.133 26.3013C23.2319 26.3143 22.9236 26.3272 22.4611 26.5729Z" fill="#0D313B"/>
<path d="M58.225 36.7777V36.6777H58.125H45.875H45.775V36.7777V39.111V39.211H45.875H58.125H58.225V39.111V36.7777Z" fill="#2894B4" stroke="#0D313B" stroke-width="0.2"/>
<path d="M46.0333 37.2444C46.0333 37.1279 46.1279 37.0333 46.2444 37.0333H57.7556C57.8721 37.0333 57.9667 37.1279 57.9667 37.2444V38.6444C57.9667 38.761 57.8721 38.8556 57.7556 38.8556H46.2444C46.1279 38.8556 46.0333 38.761 46.0333 38.6444V37.2444ZM46.2444 35.9C45.5019 35.9 44.9 36.5019 44.9 37.2444V38.6444C44.9 39.387 45.5019 39.9889 46.2444 39.9889H57.7556C58.4981 39.9889 59.1 39.387 59.1 38.6444V37.2444C59.1 36.5019 58.4981 35.9 57.7556 35.9H46.2444Z" fill="#0D313B" stroke="#0D313B" stroke-width="0.2"/>
<path d="M53.6431 41.3443H50.3569C50.2427 41.3443 50.15 41.437 50.15 41.5513V42.8929C50.15 43.0072 50.2427 43.0999 50.3569 43.0999H53.6431C53.7573 43.0999 53.85 43.0072 53.85 42.8929V41.5513C53.85 41.437 53.7573 41.3443 53.6431 41.3443Z" fill="#0D313B" stroke="#0D313B" stroke-width="0.2"/>
<path d="M46.9109 46.6332V40.1443H57.0942V46.6332H46.9109ZM46.8109 38.7864C46.3767 38.7864 46.0825 38.8603 45.9081 39.0813C45.8226 39.1896 45.7731 39.325 45.7443 39.4831C45.7157 39.6409 45.7066 39.8278 45.7066 40.0443V43.4234V46.7505L45.7066 46.7578C45.7066 46.9828 45.7066 47.1601 45.7231 47.2946C45.7397 47.4307 45.7753 47.5457 45.8658 47.6259C45.9539 47.704 46.076 47.7327 46.2212 47.7459C46.3568 47.7582 46.5327 47.7581 46.7543 47.758C46.7728 47.758 46.7916 47.758 46.8108 47.758H52.1585H57.1942H57.2003C57.4486 47.758 57.6427 47.758 57.7903 47.7431C57.9376 47.7281 58.0603 47.6968 58.1485 47.6163C58.2387 47.5341 58.2745 47.4177 58.2913 47.28C58.3079 47.1439 58.3079 46.9655 58.3079 46.7404V46.7332L58.3079 43.4234L58.3077 40.0962V40.0902C58.3078 39.7927 58.3078 39.5622 58.2915 39.3875C58.2753 39.2137 58.2418 39.0737 58.1578 38.9734C58.0706 38.8693 57.9453 38.8263 57.7934 38.8062C57.6443 38.7864 57.4489 38.7864 57.2021 38.7864L57.1942 38.7864H51.8561L46.8109 38.7864Z" fill="#0D313B" stroke="#0D313B" stroke-width="0.2"/>
</svg>
