<svg width="72" height="72" viewBox="0 0 72 72" fill="none" xmlns="http://www.w3.org/2000/svg">
<g id="cooking-list">
<g id="Group">
<g id="Vector">
<path d="M33.373 5.0485C31.7065 5.49858 30.0035 6.87314 29.225 8.40583L28.7993 9.23301H26.5489C23.0213 9.23301 22.8996 9.31815 22.8996 11.5564V13.0039H19.6518C17.8515 13.0039 16.1485 13.0647 15.8444 13.1377C13.8129 13.6 12.0248 15.2786 11.3071 17.3709L11.0395 18.1737L11.003 39.7652C10.9908 53.1459 11.0152 61.673 11.0881 62.1961C11.2341 63.2665 11.8788 64.5924 12.5843 65.2736C13.2777 65.9427 14.3846 66.5995 15.3456 66.8915C16.0998 67.1348 16.5742 67.1348 35.5504 67.1348C54.5266 67.1348 55.001 67.1348 55.7552 66.8915C56.7162 66.5995 57.8231 65.9427 58.5165 65.2736C59.222 64.5924 59.8667 63.2665 60.0127 62.1961C60.0857 61.673 60.11 53.1459 60.0978 39.7652L60.0613 18.1737L59.7937 17.3709C59.0882 15.3151 57.4217 13.7094 55.4389 13.1864C54.8794 13.0404 53.9914 13.0039 51.4612 13.0039H48.2012V11.5564C48.2012 9.30599 48.0917 9.23301 44.479 9.23301H42.1556L41.7542 8.40583C40.9513 6.77583 39.3578 5.53508 37.4359 5.03634C36.5236 4.80522 34.2732 4.80522 33.373 5.0485ZM36.9615 8.00442C38.1292 8.52748 39.0172 9.56144 39.3821 10.8387C39.516 11.3374 39.6984 11.6415 40.0025 11.897L40.4283 12.2741H42.7881H45.1602V15.1935V18.1129H35.5504H25.9407V15.1935V12.2741H28.1667C30.782 12.2741 31.001 12.2011 31.3538 11.2158C31.8038 9.98719 32.0228 9.59793 32.5215 9.05054C33.7015 7.77329 35.4774 7.34755 36.9615 8.00442ZM22.8996 18.0521C22.8996 20.3998 22.9848 20.6674 23.7876 21.0445C24.2742 21.2634 24.7607 21.2756 35.4288 21.2756C42.3989 21.2756 46.7172 21.2269 46.997 21.154C47.2281 21.0931 47.5808 20.862 47.7876 20.6552L48.1404 20.2903L48.1769 18.1616L48.2134 16.0328L51.4004 16.0693C54.4658 16.1058 54.6118 16.118 55.1348 16.3856C55.8404 16.7627 56.181 17.0789 56.5702 17.748L56.8986 18.2954L56.923 40.191L56.9595 62.0866L56.6797 62.5732C56.3756 63.1084 55.4754 63.7774 54.7942 63.9721C54.1739 64.1424 16.927 64.1424 16.3066 63.9721C15.6254 63.7774 14.7252 63.1084 14.4211 62.5732L14.1414 62.0866V40.337C14.1414 21.081 14.1657 18.5386 14.3238 18.1494C14.7131 17.2249 15.4429 16.5315 16.3917 16.1909C16.6107 16.118 17.9609 16.0571 19.8342 16.0571L22.8996 16.045V18.0521Z" fill="#0B2D1F"/>
<path d="M36.9615 8.00442C38.1292 8.52748 39.0172 9.56144 39.3821 10.8387C39.516 11.3374 39.6984 11.6415 40.0025 11.897L40.4283 12.2741H42.7881H45.1602V15.1935V18.1129H35.5504H25.9407V15.1935V12.2741H28.1667C30.782 12.2741 31.001 12.2011 31.3538 11.2158C31.8038 9.98719 32.0228 9.59793 32.5215 9.05054C33.7015 7.77329 35.4774 7.34755 36.9615 8.00442Z" fill="#62C89E"/>
</g>
<g id="Vector_2">
<path d="M18.7401 25.4477C18.5698 25.5937 18.363 25.837 18.2901 25.983C18.2049 26.1533 18.1562 27.7346 18.1562 30.7513V35.2643L18.5698 35.7265L18.9834 36.1766L23.8978 36.2131C29.396 36.2496 29.4325 36.2374 29.8704 35.3859C30.065 34.9967 30.0772 34.5588 30.0529 30.4837L30.0164 25.9951L29.5663 25.5815L29.1041 25.168H24.0924H19.0686L18.7401 25.4477ZM26.9145 30.6419V33.0747H24.0559H21.1973V30.6419V28.209H24.0559H26.9145V30.6419Z" fill="#0B2D1F"/>
<path d="M26.9145 30.6419V33.0747H24.0559H21.1973V30.6419V28.209H24.0559H26.9145V30.6419Z" fill="#62C89E"/>
</g>
<path id="Vector_3" d="M33.0438 29.7051C32.2653 30.4106 32.3748 31.5541 33.275 32.1014C33.6521 32.3326 33.9562 32.3447 42.6171 32.3447H51.57L51.9836 32.0649C52.8229 31.5054 52.8715 30.2768 52.0809 29.6199L51.7038 29.3037H42.5928H33.4818L33.0438 29.7051Z" fill="#0B2D1F"/>
<path id="Vector_4" d="M28.08 37.6363C27.8975 37.7337 26.6811 38.8406 25.3795 40.0813L23.0318 42.3439L22.0344 41.2856C20.9153 40.1057 20.5747 39.8867 19.8691 39.8867C18.9568 39.8867 18.3 40.799 18.5189 41.7722C18.5919 42.1006 19.0177 42.6237 20.2827 43.9374C22.3871 46.1148 22.8007 46.3581 23.6644 45.908C24.0536 45.7012 30.1479 39.9475 30.2452 39.6799C30.2817 39.5826 30.3182 39.2663 30.3182 38.9866C30.3182 37.8675 29.0775 37.1254 28.08 37.6363Z" fill="#0B2D1F"/>
<path id="Vector_5" d="M33.3983 41.2857C32.3522 41.7357 32.2549 43.3293 33.2159 43.9861C33.52 44.1929 34.0674 44.2051 42.5702 44.2051C51.4987 44.2051 51.596 44.2051 51.9366 43.9496C52.9463 43.2076 52.8489 41.7236 51.7663 41.2735C51.1824 41.018 33.97 41.0302 33.3983 41.2857Z" fill="#0B2D1F"/>
<path id="Vector_6" d="M26.5371 50.8587C25.6734 51.6859 24.5178 52.7563 23.9826 53.2551L23.0094 54.1674L21.8173 52.9753C20.5036 51.6737 20.1508 51.5034 19.348 51.844C18.7763 52.0873 18.4965 52.5131 18.4965 53.1821C18.4843 53.9363 18.7276 54.289 20.6861 56.2231C22.3039 57.8167 22.3891 57.8896 22.8756 57.8896C23.1432 57.8896 23.496 57.841 23.6541 57.7802C23.9704 57.6585 29.7728 52.1725 30.1012 51.6981C30.3688 51.2966 30.381 50.5546 30.1255 50.1045C29.8336 49.6301 29.3348 49.3747 28.6901 49.3747C28.1306 49.3747 28.0941 49.399 26.5371 50.8587Z" fill="#0B2D1F"/>
<path id="Vector_7" d="M33.0438 53.4258C32.2653 54.1313 32.3748 55.2748 33.275 55.8221C33.6521 56.0533 33.9562 56.0654 42.6171 56.0654H51.57L51.9836 55.7857C52.8229 55.2261 52.8715 53.9975 52.0809 53.3406L51.7038 53.0244H42.5928H33.4818L33.0438 53.4258Z" fill="#0B2D1F"/>
</g>
</g>
</svg>
