<svg width="74" height="74" viewBox="0 0 74 74" fill="none" xmlns="http://www.w3.org/2000/svg">
<path fill-rule="evenodd" clip-rule="evenodd" d="M16.5 15.5H25.5V20H48.5V14.5C50.8333 14.8333 55.7 15.5 56.5 15.5C57.3 15.5 59.8333 17.5 61 18.5V63.5L57.5 68H17.5L13.5 63.5V17.5L16.5 15.5ZM30 27H20V36H30V27Z" fill="#22885E"/>
<path d="M34.9945 5.18912C33.2817 5.6517 31.5314 7.06444 30.7313 8.63971L30.2937 9.48986H27.9808C24.3552 9.48986 24.2302 9.57737 24.2302 11.8778V13.3655H20.8921C19.0418 13.3655 17.2915 13.428 16.9789 13.503C14.8911 13.9781 13.0532 15.7034 12.3156 17.8538L12.0406 18.6789L12.0031 40.8702C11.9906 54.6225 12.0156 63.3865 12.0906 63.9241C12.2406 65.0243 12.9032 66.3871 13.6283 67.0872C14.341 67.7748 15.4787 68.4499 16.4663 68.75C17.2415 69 17.729 69 37.2324 69C56.7357 69 57.2233 69 57.9984 68.75C58.9861 68.4499 60.1238 67.7748 60.8364 67.0872C61.5615 66.3871 62.2241 65.0243 62.3742 63.9241C62.4492 63.3865 62.4742 54.6225 62.4617 40.8702L62.4242 18.6789L62.1491 17.8538C61.424 15.7409 59.7112 14.0906 57.6734 13.553C57.0983 13.403 56.1856 13.3655 53.5852 13.3655H50.2346V11.8778C50.2346 9.56487 50.1221 9.48986 46.4089 9.48986H44.021L43.6085 8.63971C42.7833 6.96442 41.1455 5.68921 39.1702 5.17662C38.2325 4.93908 35.9196 4.93908 34.9945 5.18912ZM38.6826 8.22714C39.8828 8.76473 40.7955 9.82741 41.1705 11.1401C41.3081 11.6527 41.4956 11.9653 41.8082 12.2278L42.2457 12.6154H44.6711H47.1091V15.6159V18.6164H37.2324H27.3557V15.6159V12.6154H29.6436C32.3315 12.6154 32.5566 12.5404 32.9191 11.5277C33.3817 10.265 33.6068 9.86492 34.1193 9.30232C35.332 7.9896 37.1574 7.55203 38.6826 8.22714ZM24.2302 18.5539C24.2302 20.9668 24.3177 21.2419 25.1428 21.6294C25.6429 21.8545 26.143 21.867 37.1073 21.867C44.2711 21.867 48.7093 21.817 48.9969 21.7419C49.2344 21.6794 49.597 21.4419 49.8095 21.2294L50.1721 20.8543L50.2096 18.6664L50.2471 16.4785L53.5226 16.5161C56.6732 16.5536 56.8232 16.5661 57.3608 16.8411C58.0859 17.2287 58.436 17.5537 58.8361 18.2413L59.1736 18.8039L59.1986 41.3078L59.2361 63.8116L58.9486 64.3117C58.636 64.8618 57.7109 65.5494 57.0107 65.7494C56.3731 65.9245 18.0916 65.9245 17.454 65.7494C16.7539 65.5494 15.8287 64.8618 15.5162 64.3117L15.2286 63.8116V41.4578C15.2286 21.6669 15.2536 19.054 15.4162 18.6539C15.8162 17.7038 16.5663 16.9911 17.5415 16.6411C17.7666 16.5661 19.1543 16.5036 21.0796 16.5036L24.2302 16.4911V18.5539Z" fill="#0B2D1F"/>
<path d="M38.6826 8.22714C39.8828 8.76473 40.7955 9.82741 41.1705 11.1401C41.3081 11.6527 41.4956 11.9653 41.8082 12.2278L42.2457 12.6154H44.6711H47.1091V15.6159V18.6164H37.2324H27.3557V15.6159V12.6154H29.6436C32.3315 12.6154 32.5566 12.5404 32.9191 11.5277C33.3817 10.265 33.6068 9.86492 34.1193 9.30232C35.332 7.9896 37.1574 7.55203 38.6826 8.22714Z" fill="#62C89E"/>
<path d="M19.9536 26.1552C19.7786 26.3052 19.5661 26.5553 19.491 26.7053C19.4035 26.8803 19.3535 28.5056 19.3535 31.6061V36.2444L19.7786 36.7195L20.2037 37.1821L25.2545 37.2196C30.9055 37.2571 30.943 37.2446 31.3931 36.3694C31.5931 35.9694 31.6056 35.5193 31.5806 31.3311L31.5431 26.7178L31.0805 26.2927L30.6054 25.8676H25.4546H20.2912L19.9536 26.1552ZM28.3551 31.4936V33.994H25.417H22.479V31.4936V28.9932H25.417H28.3551V31.4936Z" fill="#0B2D1F"/>
<path d="M28.3551 31.4936V33.994H25.417H22.479V31.4936V28.9932H25.417H28.3551V31.4936Z" fill="#CBEDDF"/>
<path d="M34.656 30.5309C33.8558 31.2561 33.9683 32.4313 34.8935 32.9939C35.2811 33.2314 35.5936 33.2439 44.4951 33.2439H53.6967L54.1218 32.9563C54.9844 32.3812 55.0344 31.1185 54.2218 30.4434L53.8342 30.1184H44.4701H35.106L34.656 30.5309Z" fill="#0B2D1F"/>
<path d="M29.5558 38.6823C29.3682 38.7824 28.118 39.92 26.7803 41.1953L24.3674 43.5207L23.3422 42.433C22.192 41.2203 21.8419 40.9952 21.1168 40.9952C20.1792 40.9952 19.504 41.9329 19.7291 42.9331C19.8041 43.2706 20.2417 43.8082 21.5419 45.1584C23.7048 47.3963 24.1298 47.6464 25.0175 47.1838C25.4175 46.9712 31.6811 41.0577 31.7811 40.7827C31.8186 40.6827 31.8561 40.3576 31.8561 40.0701C31.8561 38.9199 30.5809 38.1572 29.5558 38.6823Z" fill="#0B2D1F"/>
<path d="M35.0195 42.433C33.9443 42.8955 33.8443 44.5333 34.832 45.2084C35.1445 45.421 35.7071 45.4335 44.4461 45.4335C53.6227 45.4335 53.7227 45.4335 54.0728 45.1709C55.1105 44.4083 55.0104 42.883 53.8977 42.4205C53.2976 42.1579 35.6071 42.1704 35.0195 42.433Z" fill="#0B2D1F"/>
<path d="M27.9694 52.2721C27.0818 53.1223 25.8941 54.2225 25.344 54.735L24.3438 55.6727L23.1186 54.4475C21.7684 53.1098 21.4058 52.9347 20.5807 53.2848C19.9931 53.5348 19.7055 53.9724 19.7055 54.66C19.693 55.4352 19.943 55.7977 21.9559 57.7856C23.6187 59.4233 23.7062 59.4984 24.2063 59.4984C24.4813 59.4984 24.8439 59.4483 25.0064 59.3858C25.3315 59.2608 31.295 53.6224 31.6325 53.1348C31.9076 52.7222 31.9201 51.9596 31.6575 51.497C31.3575 51.0094 30.8449 50.7469 30.1823 50.7469C29.6072 50.7469 29.5697 50.7719 27.9694 52.2721Z" fill="#0B2D1F"/>
<path d="M34.656 54.9101C33.8558 55.6352 33.9683 56.8104 34.8935 57.373C35.2811 57.6105 35.5936 57.623 44.4951 57.623H53.6967L54.1218 57.3355C54.9844 56.7604 55.0344 55.4977 54.2218 54.8226L53.8342 54.4975H44.4701H35.106L34.656 54.9101Z" fill="#0B2D1F"/>
</svg>
