<svg width="72" height="72" viewBox="0 0 72 72" fill="none" xmlns="http://www.w3.org/2000/svg">
<g id="finished-product-report">
<path id="Vector 637" d="M45 6H28.5L23 13.5H50L45 6Z" fill="#E60000"/>
<g id="Group">
<path id="Vector" d="M29.887 4.07675C27.9495 4.40174 25.9246 5.37672 24.5871 6.62668L23.6622 7.48916H19.9123C15.8249 7.48916 15.2624 7.55165 14.0874 8.13914C12.675 8.85162 11.4875 10.3891 11.15 11.964C10.95 12.9015 10.95 62.5751 11.15 63.5126C11.35 64.4376 11.925 65.5376 12.5875 66.2375C13.2374 66.925 14.5249 67.65 15.4874 67.85C16.4249 68.05 56.3488 68.05 57.2862 67.85C59.4112 67.4 61.1736 65.6251 61.6236 63.5126C61.8236 62.5626 61.8236 12.9015 61.6236 11.964C61.1736 9.85159 59.3862 8.06414 57.2862 7.62666C56.8862 7.53916 55.1363 7.48916 52.8614 7.48916H49.099L48.2615 6.68918C47.3115 5.8017 46.3615 5.18922 45.0866 4.68924C43.4491 4.02675 42.8991 3.98926 36.2868 4.00175C32.9369 4.01425 30.062 4.05175 29.887 4.07675ZM42.8741 7.92665C43.3116 8.03914 44.0241 8.30164 44.4366 8.51413C45.6865 9.17661 47.0865 10.7641 47.449 11.9515L47.524 12.239H36.3868H25.2496L25.3246 11.9515C25.5371 11.2891 26.1246 10.3766 26.8371 9.6516C27.662 8.81412 28.962 8.07664 30.0245 7.87665C30.3245 7.81415 33.1619 7.76415 36.3243 7.75165C41.0492 7.73915 42.2116 7.77665 42.8741 7.92665ZM21.4247 12.0765C21.3247 12.5515 21.2622 13.3765 21.2872 13.9515C21.3247 15.0515 21.5247 15.4139 22.2872 15.8139C22.7872 16.0764 49.9864 16.0764 50.4864 15.8139C51.2489 15.4139 51.4489 15.0515 51.4864 13.9515C51.5114 13.3765 51.4489 12.5515 51.3489 12.0765L51.1739 11.2391H53.8113C56.8362 11.2391 57.2362 11.3391 57.7362 12.2265L58.0112 12.714V37.7383V62.7626L57.7487 63.2376C57.5987 63.5001 57.2737 63.8251 57.0112 63.9751L56.5362 64.2376H36.3868H16.2374L15.7624 63.9751C15.4999 63.8251 15.1749 63.5001 15.0249 63.2376L14.7624 62.7626V37.7383V12.714L15.0374 12.2265C15.5374 11.3391 15.9249 11.2391 18.9623 11.2391H21.5997L21.4247 12.0765Z" fill="#4D0000"/>
<path id="Vector_2" d="M27.762 40.9381C27.5245 41.038 26.6621 41.7755 25.8621 42.5755L24.3996 44.0255L23.8871 43.563C23.5996 43.313 23.2372 43.0505 23.0622 42.988C21.5247 42.4005 19.9872 44.063 20.7122 45.5254C20.9872 46.0754 22.9747 48.0754 23.5371 48.3753C24.1246 48.6753 24.6496 48.6753 25.2371 48.3753C25.4871 48.2379 26.6871 47.1379 27.8995 45.9004C29.662 44.1255 30.137 43.5755 30.2495 43.1755C30.512 42.2255 29.9245 41.113 29.037 40.8631C28.437 40.7006 28.287 40.7131 27.762 40.9381Z" fill="#4D0000"/>
<path id="Vector_3" d="M33.8362 42.2875C32.6988 43.05 32.7238 44.5499 33.8987 45.4249C34.2362 45.6874 34.3612 45.6874 42.411 45.6874C50.4608 45.6874 50.5858 45.6874 50.9233 45.4249C52.0982 44.5499 52.1232 43.05 50.9858 42.2875L50.5608 42H42.411H34.2612L33.8362 42.2875Z" fill="#4D0000"/>
<path id="Vector_4" d="M28.3252 51.5505C28.2627 51.5755 28.0377 51.6255 27.8377 51.6755C27.6002 51.7255 26.9252 52.288 25.9378 53.2629L24.4003 54.7754L23.9378 54.3629C23.4253 53.9129 22.7879 53.6129 22.3629 53.6129C21.8379 53.6129 21.0754 54.0879 20.7879 54.6004C20.2004 55.6504 20.4504 56.2629 22.1754 57.9628C23.5503 59.3128 23.8878 59.4878 24.8628 59.3003C25.2503 59.2253 25.6878 58.8503 27.6127 56.9503C28.8752 55.7004 30.0002 54.5004 30.1002 54.3004C30.5376 53.4754 30.2252 52.288 29.4502 51.8505C29.0502 51.6255 28.5252 51.488 28.3252 51.5505Z" fill="#4D0000"/>
<path id="Vector_5" d="M34.0246 52.9247C33.4121 53.1997 33.0371 53.8247 33.0371 54.5872C33.0371 55.2872 33.2621 55.7122 33.8996 56.1746C34.2371 56.4371 34.3621 56.4371 42.4119 56.4371C50.4616 56.4371 50.5866 56.4371 50.9241 56.1746C51.5616 55.7122 51.7866 55.2872 51.7866 54.5872C51.7866 53.8122 51.4116 53.1872 50.7741 52.9247C50.1741 52.6747 34.5996 52.6747 34.0246 52.9247Z" fill="#4D0000"/>
</g>
<g id="products">
<g id="Group 159054">
<g id="Rectangle 34624447">
<mask id="path-7-inside-1_5911_45228" fill="white">
<path d="M45.75 21.1111H28.25V24.4444H45.75V21.1111Z"/>
</mask>
<path d="M45.75 21.1111H28.25V24.4444H45.75V21.1111Z" fill="#E60000" stroke="#4D0000" stroke-width="2" mask="url(#path-7-inside-1_5911_45228)"/>
</g>
<path id="Rectangle 47 (Stroke)" fill-rule="evenodd" clip-rule="evenodd" d="M28.7778 21.3333C28.5323 21.3333 28.3333 21.5323 28.3333 21.7778V23.7778C28.3333 24.0232 28.5323 24.2222 28.7778 24.2222H45.2222C45.4677 24.2222 45.6667 24.0232 45.6667 23.7778V21.7778C45.6667 21.5323 45.4677 21.3333 45.2222 21.3333H28.7778ZM27 21.7778C27 20.7959 27.7959 20 28.7778 20H45.2222C46.2041 20 47 20.7959 47 21.7778V23.7778C47 24.7596 46.2041 25.5556 45.2222 25.5556H28.7778C27.7959 25.5556 27 24.7596 27 23.7778V21.7778Z" fill="#4D0000" stroke="#4D0000"/>
<g id="Rectangle 48">
<mask id="path-9-inside-2_5911_45228" fill="white">
<path d="M39.3472 27.7776H34.6528C34.5684 27.7776 34.5 27.846 34.5 27.9304V29.847C34.5 29.9314 34.5684 29.9998 34.6528 29.9998H39.3472C39.4316 29.9998 39.5 29.9314 39.5 29.847V27.9304C39.5 27.846 39.4316 27.7776 39.3472 27.7776Z"/>
</mask>
<path d="M39.3472 27.7776H34.6528C34.5684 27.7776 34.5 27.846 34.5 27.9304V29.847C34.5 29.9314 34.5684 29.9998 34.6528 29.9998H39.3472C39.4316 29.9998 39.5 29.9314 39.5 29.847V27.9304C39.5 27.846 39.4316 27.7776 39.3472 27.7776Z" fill="#4D0000" stroke="#4D0000" stroke-width="2" mask="url(#path-9-inside-2_5911_45228)"/>
</g>
<g id="Rectangle 46">
<path id="Vector (Stroke)" fill-rule="evenodd" clip-rule="evenodd" d="M29.587 25.7775V35.3331H44.4203V25.7775H29.587ZM28.1523 25.7775C28.1523 24.5502 28.3597 24.1234 29.587 24.1234L36.7944 24.1233H44.4203C45.8684 24.1234 45.8682 24.1233 45.8682 25.8517L45.8684 30.6048L45.8684 35.3331C45.8684 36.6542 45.8684 36.6542 44.4203 36.6542H37.2264H29.5868C28.1523 36.6542 28.1523 36.679 28.1523 35.3579V30.6048V25.7775Z" fill="#4D0000" stroke="#4D0000"/>
</g>
</g>
</g>
</g>
</svg>
