<svg version="1.1" id="Layer_1" xmlns="http://www.w3.org/2000/svg" xmlns:xlink="http://www.w3.org/1999/xlink" x="0px" y="0px"
	 width="100%" viewBox="0 0 325 328" enable-background="new 0 0 325 328" xml:space="preserve">
<path fill="#FFFFFE" opacity="1.000000" stroke="none" 
	d="
M326.000000,2.000000 
	C326.000000,110.951515 326.000000,219.903030 326.000000,328.927277 
	C217.763382,328.927277 109.526711,328.927277 1.000000,328.927277 
	C1.000000,220.312073 1.000000,111.623894 1.221198,2.362056 
	C1.720115,1.590573 1.905983,1.327772 2.000000,1.000000 
	C109.354767,1.000000 216.709534,1.000000 324.637146,1.221540 
	C325.410400,1.717982 325.673737,1.903622 326.000000,2.000000 
M201.706345,81.044914 
	C201.476852,81.071945 201.247360,81.098969 200.185013,80.902466 
	C189.082718,79.985695 178.406403,77.630730 168.216248,72.838020 
	C159.582123,68.777145 150.844086,64.582268 140.047241,64.975395 
	C128.401947,63.245266 117.238029,65.863983 106.081001,68.673843 
	C98.086357,70.687256 90.058556,72.569031 81.148956,74.726662 
	C81.148956,71.135681 81.444672,68.483910 81.065819,65.932297 
	C80.686691,63.378765 80.115311,60.624622 78.781319,58.486893 
	C75.380890,53.037685 68.399910,50.901054 62.094643,52.857510 
	C55.356556,54.948261 51.828571,59.894855 51.826416,67.568657 
	C51.806862,137.207245 51.810963,206.845825 51.833691,276.484406 
	C51.834229,278.134918 51.897686,279.849762 52.331039,281.424774 
	C54.300346,288.582001 61.131413,292.678040 69.059265,291.601990 
	C76.335342,290.614410 81.103264,285.160461 81.128944,277.469727 
	C81.191238,258.810791 81.156174,240.151505 81.141502,221.492355 
	C81.139481,218.914658 81.059624,216.768585 84.564445,215.949448 
	C103.140289,211.607910 121.379326,205.306625 141.630081,207.218674 
	C153.449158,209.347214 164.479584,213.567307 175.532883,218.296829 
	C183.385666,221.656937 192.478012,222.120117 201.667160,224.001297 
	C201.887802,223.998932 202.108444,223.996552 203.050430,224.241989 
	C204.038040,224.318069 205.024902,224.448669 206.013367,224.462097 
	C221.778229,224.676315 236.143478,219.304901 250.430740,213.476425 
	C255.888718,211.249847 259.616699,207.747192 261.609161,201.359238 
	C261.747345,200.716095 262.007080,200.072769 262.006226,199.429825 
	C261.966888,170.280457 261.918152,141.131073 261.809814,111.981911 
	C261.803772,110.348167 261.284790,108.716316 261.241180,106.281158 
	C261.300873,98.648071 261.637939,91.004700 261.355652,83.384285 
	C260.926727,71.806343 249.934998,65.056122 239.837936,70.528236 
	C228.062576,76.909889 215.598831,80.150734 201.706345,81.044914 
z"/>
<path fill="#F0F1F3" opacity="1.000000" stroke="none" 
	d="
M326.000000,1.500000 
	C325.673737,1.903622 325.410400,1.717982 325.104980,1.221540 
	C325.333344,1.000000 325.666656,1.000000 326.000000,1.500000 
z"/>
<path fill="#F0F1F3" opacity="1.000000" stroke="none" 
	d="
M1.500000,1.000000 
	C1.905983,1.327772 1.720115,1.590573 1.221198,1.894202 
	C1.000000,1.666667 1.000000,1.333333 1.500000,1.000000 
z"/>
<path fill="#193254" opacity="1.000000" stroke="none" 
	d="
M140.904587,206.893143 
	C121.379326,205.306625 103.140289,211.607910 84.564445,215.949448 
	C81.059624,216.768585 81.139481,218.914658 81.141502,221.492355 
	C81.156174,240.151505 81.191238,258.810791 81.128944,277.469727 
	C81.103264,285.160461 76.335342,290.614410 69.059265,291.601990 
	C61.131413,292.678040 54.300346,288.582001 52.331039,281.424774 
	C51.897686,279.849762 51.834229,278.134918 51.833691,276.484406 
	C51.810963,206.845825 51.806862,137.207245 51.826416,67.568657 
	C51.828571,59.894855 55.356556,54.948261 62.094643,52.857510 
	C68.399910,50.901054 75.380890,53.037685 78.781319,58.486893 
	C80.115311,60.624622 80.686691,63.378765 81.065819,65.932297 
	C81.444672,68.483910 81.148956,71.135681 81.148956,74.726662 
	C90.058556,72.569031 98.086357,70.687256 106.081001,68.673843 
	C117.238029,65.863983 128.401947,63.245266 140.514099,65.519196 
	C140.980942,81.284523 140.980942,96.506050 140.980942,111.380104 
	C133.405945,111.887878 126.504135,111.680695 119.882935,112.944092 
	C108.652153,115.087059 97.665924,118.509041 86.437355,120.667442 
	C81.873001,121.544815 80.802696,123.329491 80.907120,127.556320 
	C81.157928,137.708847 80.987724,147.871780 80.987442,158.030518 
	C80.987358,160.950195 80.987434,163.869873 80.987434,167.677338 
	C95.299400,164.320831 108.644859,161.190979 122.246063,158.098145 
	C122.663994,158.077011 122.826172,158.018875 123.340294,157.991928 
	C124.154259,157.939224 124.616295,157.855362 125.538147,157.802429 
	C129.822098,157.787033 133.651352,157.846008 137.468689,157.659912 
	C140.342194,157.519806 141.185455,158.770233 141.157898,161.497406 
	C141.004929,176.628632 140.975998,191.761093 140.904587,206.893143 
z"/>
<path fill="#A2ADBA" opacity="1.000000" stroke="none" 
	d="
M125.078323,157.771484 
	C124.616295,157.855362 124.154259,157.939224 123.242447,157.829041 
	C122.525223,157.777039 122.257767,157.919083 121.990311,158.061127 
	C108.644859,161.190979 95.299400,164.320831 80.987434,167.677338 
	C80.987434,163.869873 80.987358,160.950195 80.987442,158.030518 
	C80.987724,147.871780 81.157928,137.708847 80.907120,127.556320 
	C80.802696,123.329491 81.873001,121.544815 86.437355,120.667442 
	C97.665924,118.509041 108.652153,115.087059 119.882935,112.944092 
	C126.504135,111.680695 133.405945,111.887878 140.980942,111.380104 
	C140.980942,96.506050 140.980942,81.284523 140.913864,65.608467 
	C150.844086,64.582268 159.582123,68.777145 168.216248,72.838020 
	C178.406403,77.630730 189.082718,79.985695 200.599854,81.470901 
	C201.022690,97.351761 201.030701,112.664177 200.662003,127.983017 
	C198.856613,128.226562 197.427933,128.463669 195.624161,128.736572 
	C194.768692,128.637711 194.288300,128.503067 193.666229,128.277100 
	C193.315094,128.087372 193.094635,128.039886 192.448669,128.051804 
	C187.211227,126.982155 182.235046,126.346306 177.595520,124.738831 
	C165.949310,120.703712 155.230469,113.928185 142.129303,113.215714 
	C141.484222,115.168503 141.043549,116.928612 141.031128,118.691727 
	C140.943558,131.128220 140.944031,143.565323 140.572433,156.165405 
	C135.178421,156.809540 130.128372,157.290512 125.078323,157.771484 
z"/>
<path fill="#1A3254" opacity="1.000000" stroke="none" 
	d="
M261.039490,201.959702 
	C259.616699,207.747192 255.888718,211.249847 250.430740,213.476425 
	C236.143478,219.304901 221.778229,224.676315 206.013367,224.462097 
	C205.024902,224.448669 204.038040,224.318069 202.611267,223.647919 
	C202.156326,206.704895 202.140518,190.355957 202.079834,173.993896 
	C202.034958,173.980804 202.099258,174.048691 202.481781,174.034363 
	C203.614395,173.883270 204.364471,173.746490 205.337097,173.626465 
	C205.865738,173.556686 206.093430,173.372894 206.676132,173.157700 
	C218.353500,173.211716 228.509460,169.341751 238.376572,164.427551 
	C245.580231,160.839844 252.799088,157.282669 261.039490,153.202759 
	C261.039490,170.227020 261.039490,186.093369 261.039490,201.959702 
z"/>
<path fill="#A1ACB9" opacity="1.000000" stroke="none" 
	d="
M125.538147,157.802429 
	C130.128372,157.290512 135.178421,156.809540 140.739929,156.412949 
	C141.607285,156.662079 141.963181,156.826828 142.691132,157.066010 
	C151.963730,160.229202 160.920822,163.165726 169.749771,166.447067 
	C179.721786,170.153244 189.783630,173.118332 200.717285,172.924362 
	C200.717285,158.007263 200.717285,143.598358 200.717285,129.156250 
	C198.967758,128.987350 197.483490,128.844055 195.999237,128.700775 
	C197.427933,128.463669 198.856613,128.226562 200.922348,128.007538 
	C201.728302,128.069717 201.897217,128.113815 202.120163,128.295135 
	C202.174179,128.432358 202.143356,128.725662 202.101379,129.209839 
	C202.072693,144.478912 202.085968,159.263809 202.099243,174.048691 
	C202.099258,174.048691 202.034958,173.980804 201.746185,174.257599 
	C201.303894,176.004776 201.019669,177.474930 201.017075,178.945587 
	C200.990799,193.922440 201.010361,208.899353 201.017105,223.876251 
	C192.478012,222.120117 183.385666,221.656937 175.532883,218.296829 
	C164.479584,213.567307 153.449158,209.347214 141.267334,207.055908 
	C140.975998,191.761093 141.004929,176.628632 141.157898,161.497406 
	C141.185455,158.770233 140.342194,157.519806 137.468689,157.659912 
	C133.651352,157.846008 129.822098,157.787033 125.538147,157.802429 
z"/>
<path fill="#A3ADBA" opacity="1.000000" stroke="none" 
	d="
M202.481781,174.034363 
	C202.085968,159.263809 202.072693,144.478912 202.492096,129.248840 
	C207.774002,127.956039 212.659271,127.274300 217.465866,126.230377 
	C233.263107,122.799454 246.693726,113.929680 261.004547,107.083588 
	C261.284790,108.716316 261.803772,110.348167 261.809814,111.981911 
	C261.918152,141.131073 261.966888,170.280457 262.006226,199.429825 
	C262.007080,200.072769 261.747345,200.716095 261.324341,201.659470 
	C261.039490,186.093369 261.039490,170.227020 261.039490,153.202759 
	C252.799088,157.282669 245.580231,160.839844 238.376572,164.427551 
	C228.509460,169.341751 218.353500,173.211716 206.458496,173.174164 
	C205.511765,173.194016 205.280792,173.355667 205.114563,173.609711 
	C204.364471,173.746490 203.614395,173.883270 202.481781,174.034363 
z"/>
<path fill="#1A3254" opacity="1.000000" stroke="none" 
	d="
M261.122864,106.682373 
	C246.693726,113.929680 233.263107,122.799454 217.465866,126.230377 
	C212.659271,127.274300 207.774002,127.956039 202.534058,128.764664 
	C202.143356,128.725662 202.174179,128.432358 202.157852,127.809387 
	C202.225922,111.833168 202.310318,96.479927 202.394714,81.126678 
	C215.598831,80.150734 228.062576,76.909889 239.837936,70.528236 
	C249.934998,65.056122 260.926727,71.806343 261.355652,83.384285 
	C261.637939,91.004700 261.300873,98.648071 261.122864,106.682373 
z"/>
<path fill="#C79A75" opacity="1.000000" stroke="none" 
	d="
M201.342133,223.938782 
	C201.010361,208.899353 200.990799,193.922440 201.017075,178.945587 
	C201.019669,177.474930 201.303894,176.004776 201.791046,174.270691 
	C202.140518,190.355957 202.156326,206.704895 202.250610,223.524017 
	C202.108444,223.996552 201.887802,223.998932 201.342133,223.938782 
z"/>
<path fill="#C69975" opacity="1.000000" stroke="none" 
	d="
M202.050537,81.085800 
	C202.310318,96.479927 202.225922,111.833168 202.103836,127.672173 
	C201.897217,128.113815 201.728302,128.069717 201.299042,128.001099 
	C201.030701,112.664177 201.022690,97.351761 201.016281,81.582672 
	C201.247360,81.098969 201.476852,81.071945 202.050537,81.085800 
z"/>
<path fill="#A1ACB9" opacity="1.000000" stroke="none" 
	d="
M122.246063,158.098129 
	C122.257767,157.919083 122.525223,157.777039 122.890518,157.797882 
	C122.826172,158.018875 122.663994,158.077011 122.246063,158.098129 
z"/>
<path fill="#1A3254" opacity="1.000000" stroke="none" 
	d="
M195.624161,128.736572 
	C197.483490,128.844055 198.967758,128.987350 200.717285,129.156250 
	C200.717285,143.598358 200.717285,158.007263 200.717285,172.924362 
	C189.783630,173.118332 179.721786,170.153244 169.749771,166.447067 
	C160.920822,163.165726 151.963730,160.229202 142.621185,156.599792 
	C142.296753,141.714233 142.414352,127.369324 142.531952,113.024414 
	C155.230469,113.928185 165.949310,120.703712 177.595520,124.738831 
	C182.235046,126.346306 187.211227,126.982155 192.571548,128.201889 
	C193.108948,128.343460 193.453003,128.512512 193.453003,128.512512 
	C193.453003,128.512512 193.807907,128.368408 193.807907,128.368408 
	C194.288300,128.503067 194.768692,128.637711 195.624161,128.736572 
z"/>
<path fill="#C5AC8B" opacity="1.000000" stroke="none" 
	d="
M142.129318,113.215714 
	C142.414352,127.369324 142.296753,141.714233 142.249115,156.525360 
	C141.963181,156.826828 141.607285,156.662079 141.083893,156.249786 
	C140.944031,143.565323 140.943558,131.128220 141.031128,118.691727 
	C141.043549,116.928612 141.484222,115.168503 142.129318,113.215714 
z"/>
<path fill="#A1ACB9" opacity="1.000000" stroke="none" 
	d="
M193.666229,128.277100 
	C193.807907,128.368408 193.453003,128.512512 193.453003,128.512512 
	C193.453003,128.512512 193.108948,128.343460 192.986069,128.193375 
	C193.094635,128.039886 193.315094,128.087372 193.666229,128.277100 
z"/>
<path fill="#A1ACB9" opacity="1.000000" stroke="none" 
	d="
M205.337097,173.626465 
	C205.280792,173.355667 205.511765,173.194016 206.025085,173.108307 
	C206.093430,173.372894 205.865738,173.556686 205.337097,173.626465 
z"/>
</svg>