<svg width="72" height="72" viewBox="0 0 72 72" fill="none" xmlns="http://www.w3.org/2000/svg">
<g id="kitchen-product-record">
<g id="Group">
<path id="Vector" d="M33.7834 4.06294C30.8926 4.33832 28.7653 4.7514 26.4377 5.48992C19.1044 7.84319 13.0226 12.5748 8.91801 19.1339L8.25477 20.1853V17.6193C8.25477 15.2034 8.22974 15.0282 7.96695 14.5525C7.64158 13.9642 6.81566 13.4885 6.11487 13.4885C5.41409 13.4885 4.6257 13.9767 4.28782 14.6151L4 15.1533V20.7361C4 26.2938 4 26.3188 4.28782 26.8195C4.66324 27.4704 5.23889 27.846 6.03979 27.9461C6.40269 27.9962 8.86796 28.0087 11.5209 27.9837L16.3388 27.9461L16.8769 27.5956C17.4526 27.2076 17.8906 26.4565 17.8906 25.8182C17.8906 25.1798 17.4526 24.4287 16.8769 24.0407C16.3513 23.6902 16.3388 23.6902 13.8611 23.6526C12.497 23.6276 11.3833 23.565 11.3833 23.5275C11.3833 23.3522 12.3969 21.5873 13.0602 20.5859C14.4993 18.4329 16.6767 16.0421 18.6414 14.4524C29.6788 5.52747 45.6592 6.35362 55.6829 16.3675C59.775 20.4607 62.428 25.5553 63.4541 31.3258C63.8296 33.4663 63.9172 37.1589 63.6419 39.362C62.1402 51.1533 53.4679 60.6165 41.8674 63.12C39.7401 63.5831 37.938 63.7208 35.2475 63.6457C30.9302 63.533 27.5139 62.6693 23.6095 60.7166C19.0919 58.4635 15.0999 54.7834 12.4345 50.4023C9.94416 46.3216 8.37991 40.9266 8.37991 36.3953C8.37991 35.2938 8.017 34.5803 7.25365 34.1798C6.18995 33.6165 4.96358 33.9795 4.40045 35.0309C4.11263 35.5692 4.10011 35.6443 4.1752 37.4593C4.76336 52.7055 16.1636 65.3481 31.4683 67.7138C33.7834 68.0643 38.1007 68.1019 40.3532 67.7764C47.4487 66.75 53.7307 63.6207 58.6863 58.6763C63.7169 53.6318 66.7954 47.3606 67.8466 39.9628C68.0593 38.4732 68.0468 33.5539 67.834 32.0143C66.42 21.75 60.676 13.1881 51.8286 8.13109C47.0608 5.4023 41.3544 3.92525 35.8482 4.00035C34.9597 4.00035 34.0212 4.0379 33.7834 4.06294Z" fill="#0B2D1F"/>
</g>
<g id="Group_2">
<path id="Vector_2" d="M29.3242 22.8555V23.7109L29.8223 24.3906L30.3203 25.0645V25.7324V26.3945H31.2285H32.1367V25.4102V24.4199L31.6387 23.7578L31.1406 23.0957V22.5449V22H30.2324H29.3242V22.8555Z" fill="#0B2D1F"/>
<path id="Vector_3" d="M33.25 22.8613V23.7285L33.748 24.4023L34.2461 25.0703V25.7324V26.3945H35.1543H36.0625V25.4219V24.4492L35.5645 23.7695L35.0664 23.0898V22.5449V22H34.1582H33.25V22.8613Z" fill="#0B2D1F"/>
<path id="Vector_4" d="M37.1758 22.8672V23.7402L37.6738 24.4023L38.1719 25.0645V25.7324V26.3945H39.0801H39.9883V25.4219V24.4492L39.4902 23.7754L38.9922 23.1016V22.5508V22H38.084H37.1758V22.8672Z" fill="#0B2D1F"/>
<path id="Vector_5" d="M41.1016 22.8672V23.7344L41.5996 24.4141L42.0977 25.0938V25.7441V26.3945H43.0059H43.9141V25.4219V24.4492L43.416 23.7812L42.918 23.1133V22.5566V22H42.0098H41.1016V22.8672Z" fill="#0B2D1F"/>
<g id="Vector_6">
<path d="M36.0918 27.9C35.3828 28.1519 34.8906 28.5972 34.5859 29.2418C34.3633 29.7105 34.3164 30.3023 34.4395 31.0347L34.5215 31.5504H31.3809C28.7676 31.5504 28.1758 31.5679 27.8887 31.6382C26.6465 31.9547 25.627 32.9507 25.2871 34.1871C25.1758 34.5797 25.1641 34.7906 25.1641 36.191V37.7613H23.582H22V39.7769V41.7867L23.582 43.1578L25.1641 44.523V46.7261C25.1641 49.1871 25.1758 49.2984 25.5566 50.066C25.8613 50.6754 26.5 51.314 27.0977 51.6129C27.9414 52.023 27.25 51.9996 36.9941 51.9996C46.7852 51.9996 46.1113 52.0289 46.9316 51.6011C47.5059 51.3023 48.1562 50.6402 48.4434 50.066C48.8242 49.2984 48.8359 49.1871 48.8359 46.7261V44.523L50.418 43.1578L52 41.7925V39.7769V37.7613H50.418H48.8359V36.2203C48.8359 34.8668 48.8242 34.6148 48.7188 34.2164C48.4023 32.98 47.3652 31.9547 46.1113 31.6382C45.8242 31.5679 45.2148 31.5504 42.4609 31.5504C39.3438 31.5504 39.1621 31.5445 39.1914 31.4449C39.2031 31.3922 39.25 31.0992 39.291 30.8004C39.4609 29.5464 38.9863 28.5621 37.9551 28.0523C37.5508 27.8531 37.4629 27.8296 36.9473 27.8179C36.5195 27.8004 36.3145 27.8238 36.0918 27.9ZM37.2109 29.7281C37.5215 29.9156 37.5566 30.0972 37.4395 30.8765L37.334 31.5504H36.8535H36.3672L36.3379 31.357C36.1328 30.1793 36.1445 30.0445 36.4258 29.7808C36.6367 29.5816 36.9355 29.564 37.2109 29.7281ZM45.877 33.4898C46.3105 33.6539 46.7324 34.0757 46.8965 34.5093C47.002 34.7847 47.0195 34.9664 47.0195 35.6519V36.4722H37H26.9805V35.6519C26.9805 34.9664 26.998 34.7847 27.1035 34.5093C27.2617 34.0816 27.6895 33.6539 28.1055 33.4898C28.4102 33.3726 28.5156 33.3726 36.9824 33.3726C45.5312 33.3668 45.5488 33.3668 45.877 33.4898ZM47.0078 43.5738L46.9902 48.9234L46.8203 49.2339C46.6094 49.6148 46.3398 49.8609 45.9062 50.0601L45.584 50.2125H37H28.416L28.0938 50.0601C27.6602 49.8609 27.3906 49.6148 27.1797 49.2339L27.0098 48.9234L26.9922 43.5738L26.9805 38.23H37H47.0195L47.0078 43.5738ZM25.1641 40.8375V42.1031L24.4609 41.4996L23.7637 40.8961L23.7578 40.2339V39.5777H24.4609H25.1641V40.8375ZM50.2422 40.2339L50.2363 40.8961L49.5391 41.4996L48.8359 42.1031V40.8375V39.5777H49.5391H50.2422V40.2339Z" fill="#0B2D1F"/>
<path d="M47.0078 43.5738L46.9902 48.9234L46.8203 49.2339C46.6094 49.6148 46.3398 49.8609 45.9062 50.0601L45.584 50.2125H37H28.416L28.0938 50.0601C27.6602 49.8609 27.3906 49.6148 27.1797 49.2339L27.0098 48.9234L26.9922 43.5738L26.9805 38.23H37H47.0195L47.0078 43.5738Z" fill="#22885E"/>
<path d="M45.877 33.4898C46.3105 33.6539 46.7324 34.0757 46.8965 34.5093C47.002 34.7847 47.0195 34.9664 47.0195 35.6519V36.4722H37H26.9805V35.6519C26.9805 34.9664 26.998 34.7847 27.1035 34.5093C27.2617 34.0816 27.6895 33.6539 28.1055 33.4898C28.4102 33.3726 28.5156 33.3726 36.9824 33.3726C45.5312 33.3668 45.5488 33.3668 45.877 33.4898Z" fill="#62C89E"/>
</g>
</g>
</g>
</svg>
