<svg width="72" height="72" viewBox="0 0 72 72" fill="none" xmlns="http://www.w3.org/2000/svg">
<path d="M45.5 7H29.5L24.5 9.5L23.5 13.5H50L45.5 7Z" fill="#FFCDCD"/>
<path d="M14 11L22.3787 10V15.3778H51.5342L50.5 10L58.6454 11V65.5H14V11Z" fill="#E60000"/>
<path d="M29.887 4.07675C27.9495 4.40174 25.9246 5.37672 24.5871 6.62668L23.6622 7.48916H19.9123C15.8249 7.48916 15.2624 7.55166 14.0874 8.13914C12.675 8.85162 11.4875 10.3891 11.15 11.964C10.95 12.9015 10.95 62.5751 11.15 63.5126C11.35 64.4376 11.925 65.5376 12.5875 66.2375C13.2374 66.925 14.5249 67.65 15.4874 67.85C16.4249 68.05 56.3488 68.05 57.2862 67.85C59.4112 67.4 61.1736 65.6251 61.6236 63.5126C61.8236 62.5626 61.8236 12.9015 61.6236 11.964C61.1736 9.85159 59.3862 8.06414 57.2862 7.62665C56.8862 7.53916 55.1363 7.48916 52.8613 7.48916H49.099L48.2615 6.68918C47.3115 5.8017 46.3615 5.18922 45.0866 4.68923C43.4491 4.02675 42.8991 3.98925 36.2868 4.00175C32.9369 4.01425 30.062 4.05175 29.887 4.07675ZM42.8741 7.92665C43.3116 8.03914 44.0241 8.30164 44.4366 8.51413C45.6865 9.17661 47.0865 10.7641 47.449 11.9515L47.524 12.239H36.3868H25.2496L25.3246 11.9515C25.5371 11.2891 26.1246 10.3766 26.8371 9.6516C27.662 8.81412 28.962 8.07664 30.0245 7.87665C30.3245 7.81415 33.1619 7.76415 36.3243 7.75165C41.0492 7.73915 42.2116 7.77665 42.8741 7.92665ZM21.4247 12.0765C21.3247 12.5515 21.2622 13.3765 21.2872 13.9515C21.3247 15.0515 21.5247 15.4139 22.2872 15.8139C22.7872 16.0764 49.9864 16.0764 50.4864 15.8139C51.2489 15.4139 51.4489 15.0515 51.4864 13.9515C51.5114 13.3765 51.4489 12.5515 51.3489 12.0765L51.1739 11.2391H53.8113C56.8362 11.2391 57.2362 11.3391 57.7362 12.2265L58.0112 12.714V37.7383V62.7626L57.7487 63.2376C57.5987 63.5001 57.2737 63.8251 57.0112 63.9751L56.5362 64.2376H36.3868H16.2374L15.7624 63.9751C15.4999 63.8251 15.1749 63.5001 15.0249 63.2376L14.7624 62.7626V37.7383V12.714L15.0374 12.2265C15.5374 11.3391 15.9249 11.2391 18.9623 11.2391H21.5997L21.4247 12.0765Z" fill="#4D0000"/>
<path d="M28.75 23.9444V21.6111H45.25V23.9444H28.75Z" fill="#E60000" stroke="#4D0000"/>
<path fill-rule="evenodd" clip-rule="evenodd" d="M28.7778 21.3333C28.5323 21.3333 28.3333 21.5323 28.3333 21.7778V23.7778C28.3333 24.0232 28.5323 24.2222 28.7778 24.2222H45.2222C45.4677 24.2222 45.6667 24.0232 45.6667 23.7778V21.7778C45.6667 21.5323 45.4677 21.3333 45.2222 21.3333H28.7778ZM27 21.7778C27 20.7959 27.7959 20 28.7778 20H45.2222C46.2041 20 47 20.7959 47 21.7778V23.7778C47 24.7596 46.2041 25.5556 45.2222 25.5556H28.7778C27.7959 25.5556 27 24.7596 27 23.7778V21.7778Z" fill="#4D0000" stroke="#4D0000"/>
<path d="M35 29.4998V28.2776H39V29.4998H35Z" fill="#4D0000" stroke="#4D0000"/>
<path fill-rule="evenodd" clip-rule="evenodd" d="M29.587 25.7775V35.3331H44.4203V25.7775H29.587ZM28.1523 25.7775C28.1523 24.5502 28.3597 24.1234 29.587 24.1234L36.7944 24.1233H44.4203C45.8684 24.1234 45.8682 24.1233 45.8682 25.8517L45.8684 30.6048L45.8684 35.3331C45.8684 36.6542 45.8684 36.6542 44.4203 36.6542H37.2264H29.5868C28.1523 36.6542 28.1523 36.679 28.1523 35.3579V30.6048V25.7775Z" fill="#4D0000" stroke="#4D0000"/>
<path d="M42.2994 44.0898C41.4619 44.3523 40.8619 45.3648 41.0244 46.2523C41.1744 47.0398 41.9244 47.7147 42.6619 47.7147C42.8369 47.7147 42.9744 47.7522 42.9744 47.8147C42.9744 47.8647 41.9869 48.8897 40.7869 50.0897L38.5995 52.2771L35.5621 49.2397C32.2747 45.9648 32.0872 45.8273 31.1372 46.0773C30.7497 46.1898 29.9497 46.9273 26.8873 49.9897C23.6624 53.2271 23.1124 53.8396 23.0374 54.2396C22.8124 55.4645 23.6249 56.4645 24.8499 56.4645C25.1374 56.4645 25.4874 56.402 25.6374 56.327C25.7874 56.252 27.1873 54.9146 28.7623 53.3646L31.5997 50.5272L34.5746 53.4896C36.1996 55.1145 37.662 56.502 37.812 56.577C38.162 56.752 39.037 56.752 39.387 56.577C39.537 56.502 41.0119 55.0895 42.6744 53.4396L45.6868 50.4397L45.7618 50.9397C46.0493 52.6771 48.4492 53.0396 49.2617 51.4646C49.4617 51.0772 49.4742 50.7022 49.4492 48.1272C49.4117 44.9398 49.3992 44.9273 48.5492 44.2898C48.2242 44.0398 48.0242 44.0273 45.4368 44.0023C43.9119 43.9899 42.4994 44.0273 42.2994 44.0898Z" fill="#4D0000"/>
</svg>
