<svg width="72" height="72" viewBox="0 0 72 72" fill="none" xmlns="http://www.w3.org/2000/svg">
<path fill-rule="evenodd" clip-rule="evenodd" d="M16 15H25V18.9231H47V15H58L59.5 18.9231V63.5481L55.5 66H16L13 63.0577V18.9231L16 15ZM25.5438 27.8016C25.0858 27.9462 24.5968 28.2431 24.263 28.5857C24.0689 28.7837 23.184 30.3444 21.484 33.5039L19 38.1404V38.7951C19.0078 40.4016 19.6986 41.6958 21.0027 42.5257C21.2589 42.6855 21.6315 42.8683 21.8256 42.9215L22.1826 43.0205V47.3677C22.1826 50.8926 22.2059 51.791 22.2991 52.126C22.6717 53.4964 23.8361 54.6232 25.2644 54.9886C25.932 55.1637 46.068 55.1637 46.7356 54.9886C48.1639 54.6232 49.3283 53.4964 49.7009 52.126C49.7941 51.791 49.8174 50.8926 49.8174 47.3677V43.0205L50.1744 42.9215C50.3685 42.8683 50.7411 42.6855 50.9973 42.5257C52.3014 41.6958 52.9922 40.4016 53 38.7951V38.1328L50.4849 33.5801C47.7215 28.5705 47.6128 28.4106 46.7279 27.9843L46.2078 27.7331L36.0388 27.7178C27.7872 27.7102 25.8078 27.7254 25.5438 27.8016Z" fill="#22885E"/>
<path d="M33.9945 4.18912C32.2817 4.6517 30.5314 6.06444 29.7313 7.63971L29.2937 8.48986H26.9808C23.3552 8.48986 23.2302 8.57737 23.2302 10.8778V12.3655H19.8921C18.0418 12.3655 16.2915 12.428 15.9789 12.503C13.8911 12.9781 12.0532 14.7034 11.3156 16.8538L11.0406 17.6789L11.0031 39.8702C10.9906 53.6225 11.0156 62.3865 11.0906 62.9241C11.2406 64.0243 11.9032 65.3871 12.6283 66.0872C13.341 66.7748 14.4787 67.4499 15.4663 67.75C16.2415 68 16.729 68 36.2324 68C55.7357 68 56.2233 68 56.9984 67.75C57.9861 67.4499 59.1238 66.7748 59.8364 66.0872C60.5615 65.3871 61.2241 64.0243 61.3742 62.9241C61.4492 62.3865 61.4742 53.6225 61.4617 39.8702L61.4242 17.6789L61.1491 16.8538C60.424 14.7409 58.7112 13.0906 56.6734 12.553C56.0983 12.403 55.1856 12.3655 52.5852 12.3655H49.2346V10.8778C49.2346 8.56487 49.1221 8.48986 45.4089 8.48986H43.021L42.6085 7.63971C41.7833 5.96442 40.1455 4.68921 38.1702 4.17662C37.2325 3.93908 34.9196 3.93908 33.9945 4.18912ZM37.6826 7.22714C38.8828 7.76473 39.7955 8.82741 40.1705 10.1401C40.3081 10.6527 40.4956 10.9653 40.8082 11.2278L41.2457 11.6154H43.6711H46.1091V14.6159V17.6164H36.2324H26.3557V14.6159V11.6154H28.6436C31.3315 11.6154 31.5566 11.5404 31.9191 10.5277C32.3817 9.26499 32.6068 8.86492 33.1193 8.30232C34.332 6.9896 36.1574 6.55203 37.6826 7.22714ZM23.2302 17.5539C23.2302 19.9668 23.3177 20.2419 24.1428 20.6294C24.6429 20.8545 25.143 20.867 36.1073 20.867C43.2711 20.867 47.7093 20.817 47.9969 20.7419C48.2344 20.6794 48.597 20.4419 48.8095 20.2294L49.1721 19.8543L49.2096 17.6664L49.2471 15.4785L52.5226 15.5161C55.6732 15.5536 55.8232 15.5661 56.3608 15.8411C57.0859 16.2287 57.436 16.5537 57.8361 17.2413L58.1736 17.8039L58.1986 40.3078L58.2361 62.8116L57.9486 63.3117C57.636 63.8618 56.7109 64.5494 56.0107 64.7494C55.3731 64.9245 17.0916 64.9245 16.454 64.7494C15.7539 64.5494 14.8287 63.8618 14.5162 63.3117L14.2286 62.8116V40.4578C14.2286 20.6669 14.2536 18.054 14.4162 17.6539C14.8162 16.7038 15.5663 15.9911 16.5415 15.6411C16.7666 15.5661 18.1543 15.5036 20.0796 15.5036L23.2302 15.4911V17.5539Z" fill="#0B2D1F"/>
<path d="M37.6826 7.22714C38.8828 7.76473 39.7955 8.82741 40.1705 10.1401C40.3081 10.6527 40.4956 10.9653 40.8082 11.2278L41.2457 11.6154H43.6711H46.1091V14.6159V17.6164H36.2324H26.3557V14.6159V11.6154H28.6436C31.3315 11.6154 31.5566 11.5404 31.9191 10.5277C32.3817 9.26499 32.6068 8.86492 33.1193 8.30232C34.332 6.9896 36.1574 6.55203 37.6826 7.22714Z" fill="#CBEDDF"/>
<path d="M25.5438 27.5526C25.0858 27.7001 24.5968 28.0028 24.263 28.3522C24.0689 28.554 23.184 30.1453 21.484 33.3668L19 38.0942V38.7618C19.0078 40.3997 19.6986 41.7193 21.0027 42.5654C21.2589 42.7284 21.6315 42.9147 21.8256 42.9691L22.1826 43.07V47.5024C22.1826 51.0965 22.2059 52.0124 22.2991 52.354C22.6717 53.7513 23.8361 54.9001 25.2644 55.2727C25.932 55.4513 46.068 55.4513 46.7356 55.2727C48.1639 54.9001 49.3283 53.7513 49.7009 52.354C49.7941 52.0124 49.8174 51.0965 49.8174 47.5024V43.07L50.1744 42.9691C50.3685 42.9147 50.7411 42.7284 50.9973 42.5654C52.3014 41.7193 52.9922 40.3997 53 38.7618V38.0864L50.4849 33.4444C47.7215 28.3366 47.6128 28.1736 46.7279 27.7389L46.2078 27.4828L36.0388 27.4672C27.7872 27.4595 25.8078 27.475 25.5438 27.5526ZM45.9205 29.338C46.037 29.4001 46.2 29.5243 46.2854 29.6175C46.3708 29.7106 47.3721 31.5038 48.5132 33.6074L50.5858 37.4188L36.0233 37.4421C28.0123 37.4499 21.4452 37.4421 21.4297 37.4266C21.3986 37.3955 25.1324 30.2695 25.4196 29.827C25.5205 29.664 25.7146 29.4622 25.8543 29.3846C26.095 29.2293 26.3123 29.2293 35.9068 29.2293C44.1507 29.2293 45.742 29.2449 45.9205 29.338ZM26.9954 39.3828C26.9954 39.6467 26.5297 40.4695 26.2192 40.749C25.6059 41.3079 25.3808 41.37 24.0689 41.401C22.7027 41.4321 22.3767 41.3622 21.7635 40.8887C21.3831 40.6015 20.9406 39.9184 20.832 39.4526L20.7854 39.243H23.8904C26.8557 39.243 26.9954 39.2508 26.9954 39.3828ZM35.0297 39.4914C34.8744 40.2289 34.2068 40.9818 33.4694 41.2613C32.8406 41.4942 31.0708 41.4864 30.4498 41.2535C29.8598 41.0362 29.2388 40.4152 29.0215 39.8252C28.9283 39.5923 28.8584 39.3595 28.8584 39.3207C28.8584 39.2741 30.0306 39.243 31.9712 39.243H35.084L35.0297 39.4914ZM43.1416 39.3207C43.1416 39.3595 43.0717 39.5923 42.9785 39.8252C42.7612 40.4152 42.1402 41.0362 41.5502 41.2535C40.9292 41.4864 39.1594 41.4942 38.5306 41.2613C37.7932 40.9818 37.1256 40.2289 36.9703 39.4914L36.916 39.243H40.0288C41.9694 39.243 43.1416 39.2741 43.1416 39.3207ZM51.168 39.4526C51.0594 39.9184 50.6169 40.6015 50.2365 40.8887C49.6233 41.3622 49.2973 41.4321 47.931 41.401C46.8831 41.3777 46.7123 41.3544 46.4174 41.1992C45.8895 40.9197 45.4626 40.485 45.2219 39.9805C44.8416 39.1732 44.5621 39.243 48.1096 39.243H51.2146L51.168 39.4526ZM29.332 42.7207C30.1315 43.1243 30.5352 43.2019 31.9557 43.2019C33.8032 43.2019 34.5872 42.9458 35.5498 42.0376L36 41.6028L36.4658 42.0531C36.9703 42.5266 37.6457 42.907 38.3288 43.0855C38.9187 43.2407 41.1543 43.2407 41.7443 43.0855C42.4119 42.907 43.1338 42.5033 43.6151 42.0376L44.0575 41.6028L44.5155 42.0376C45.3384 42.8138 46.3087 43.2019 47.4265 43.2019H48.032V47.4558C48.032 52.2608 48.0475 52.1522 47.442 52.8197C47.1703 53.1225 46.5571 53.5261 46.363 53.5261C46.3475 53.5261 46.3164 51.733 46.3087 49.5439L46.2854 45.5695L46.0758 45.127C45.8119 44.5604 45.2763 44.0248 44.7096 43.7608C44.2671 43.5513 44.2594 43.5513 42.4041 43.5513C40.6498 43.5513 40.5178 43.559 40.1685 43.722C39.6251 43.9782 39.0119 44.5992 38.7479 45.1659L38.5228 45.6471L38.4995 49.6293L38.4763 53.6038L32.0566 53.5882L25.637 53.5649L25.2411 53.3554C25.0237 53.2389 24.6977 52.9828 24.5269 52.7887C23.9603 52.1444 23.968 52.2376 23.968 47.4558V43.2019H24.5735C25.6913 43.2019 26.6616 42.8138 27.4845 42.0376L27.9347 41.6106L28.3849 42.0376C28.6256 42.2704 29.0525 42.5809 29.332 42.7207ZM44.0265 45.4453C44.1429 45.5229 44.3137 45.6937 44.3913 45.8102C44.531 46.0197 44.5388 46.2449 44.5388 49.8156V53.6038H42.4041H40.2694V49.8777C40.2694 45.8723 40.2616 45.9266 40.6731 45.5618C40.7662 45.4686 40.9059 45.3755 40.968 45.3522C41.0301 45.3289 41.6977 45.3056 42.4429 45.3056C43.6461 45.2978 43.8247 45.3134 44.0265 45.4453Z" fill="#0B2D1F"/>
<path d="M45.9205 29.338C46.037 29.4001 46.2 29.5243 46.2854 29.6175C46.3708 29.7106 47.3721 31.5038 48.5132 33.6074L50.5858 37.4188L36.0233 37.4421C28.0123 37.4499 21.4452 37.4421 21.4297 37.4266C21.3986 37.3955 25.1324 30.2695 25.4196 29.827C25.5205 29.664 25.7146 29.4622 25.8543 29.3846C26.095 29.2293 26.3123 29.2293 35.9068 29.2293C44.1507 29.2293 45.742 29.2449 45.9205 29.338Z" fill="#62C89E"/>
<path d="M51.168 39.4526C51.0594 39.9184 50.6169 40.6015 50.2365 40.8887C49.6233 41.3622 49.2973 41.4321 47.931 41.401C46.8831 41.3777 46.7123 41.3544 46.4174 41.1992C45.8895 40.9197 45.4626 40.485 45.2219 39.9805C44.8416 39.1732 44.5621 39.243 48.1096 39.243H51.2146L51.168 39.4526Z" fill="#CBEDDF"/>
<path d="M43.1416 39.3207C43.1416 39.3595 43.0717 39.5923 42.9785 39.8252C42.7612 40.4152 42.1402 41.0362 41.5502 41.2535C40.9292 41.4864 39.1594 41.4942 38.5306 41.2613C37.7932 40.9818 37.1256 40.2289 36.9703 39.4914L36.916 39.243H40.0288C41.9694 39.243 43.1416 39.2741 43.1416 39.3207Z" fill="#CBEDDF"/>
<path d="M35.0297 39.4914C34.8744 40.2289 34.2068 40.9818 33.4694 41.2613C32.8406 41.4942 31.0708 41.4864 30.4498 41.2535C29.8598 41.0362 29.2388 40.4152 29.0215 39.8252C28.9283 39.5923 28.8584 39.3595 28.8584 39.3207C28.8584 39.2741 30.0306 39.243 31.9712 39.243H35.084L35.0297 39.4914Z" fill="#CBEDDF"/>
<path d="M26.9954 39.3828C26.9954 39.6467 26.5297 40.4695 26.2192 40.749C25.6059 41.3079 25.3808 41.37 24.0689 41.401C22.7027 41.4321 22.3767 41.3622 21.7635 40.8887C21.3831 40.6015 20.9406 39.9184 20.832 39.4526L20.7854 39.243H23.8904C26.8557 39.243 26.9954 39.2508 26.9954 39.3828Z" fill="#CBEDDF"/>
<path d="M29.332 42.7207C30.1315 43.1243 30.5352 43.2019 31.9557 43.2019C33.8032 43.2019 34.5872 42.9458 35.5498 42.0376L36 41.6028L36.4658 42.0531C36.9703 42.5266 37.6457 42.907 38.3288 43.0855C38.9187 43.2407 41.1543 43.2407 41.7443 43.0855C42.4119 42.907 43.1338 42.5033 43.6151 42.0376L44.0575 41.6028L44.5155 42.0376C45.3384 42.8138 46.3087 43.2019 47.4265 43.2019H48.032V47.4558C48.032 52.2608 48.0475 52.1522 47.442 52.8197C47.1703 53.1225 46.5571 53.5261 46.363 53.5261C46.3475 53.5261 46.3164 51.733 46.3087 49.5439L46.2854 45.5695L46.0758 45.127C45.8119 44.5604 45.2763 44.0248 44.7096 43.7608C44.2671 43.5513 44.2594 43.5513 42.4041 43.5513C40.6498 43.5513 40.5178 43.559 40.1685 43.722C39.6251 43.9782 39.0119 44.5992 38.7479 45.1659L38.5228 45.6471L38.4995 49.6293L38.4763 53.6038L32.0566 53.5882L25.637 53.5649L25.2411 53.3554C25.0237 53.2389 24.6977 52.9828 24.5269 52.7887C23.9603 52.1444 23.968 52.2376 23.968 47.4558V43.2019H24.5735C25.6913 43.2019 26.6616 42.8138 27.4845 42.0376L27.9347 41.6106L28.3849 42.0376C28.6256 42.2704 29.0525 42.5809 29.332 42.7207Z" fill="#62C89E"/>
<path d="M44.0265 45.4453C44.1429 45.5229 44.3137 45.6937 44.3913 45.8102C44.531 46.0197 44.5388 46.2449 44.5388 49.8156V53.6038H42.4041H40.2694V49.8777C40.2694 45.8723 40.2616 45.9266 40.6731 45.5618C40.7662 45.4686 40.9059 45.3755 40.968 45.3522C41.0301 45.3289 41.6977 45.3056 42.4429 45.3056C43.6461 45.2978 43.8247 45.3134 44.0265 45.4453Z" fill="#CBEDDF"/>
<path d="M27.3382 44.6302L27.0743 44.8942V48.1079C27.0743 51.6709 27.0587 51.57 27.5866 51.7873C27.967 51.9503 33.6336 51.9426 34.0218 51.7873C34.5729 51.5544 34.5651 51.6088 34.5651 48.1234C34.5651 45.5385 34.5496 44.9718 34.4487 44.801C34.2236 44.3741 34.1848 44.3663 30.7537 44.3663H27.6021L27.3382 44.6302ZM32.8186 48.1311V50.1106H30.8391H28.8597V48.1311V46.1517H30.8391H32.8186V48.1311Z" fill="#0B2D1F"/>
</svg>
