<svg width="72" height="72" viewBox="0 0 72 72" fill="none" xmlns="http://www.w3.org/2000/svg">
<rect x="10" y="23" width="52" height="36" fill="#68D4F4"/>
<path d="M64 12.5554H8V23.222H64V12.5554Z" fill="#2894B4"/>
<path fill-rule="evenodd" clip-rule="evenodd" d="M9.68888 13.2667C8.90342 13.2667 8.26667 13.9034 8.26667 14.6889V21.0889C8.26667 21.8744 8.90342 22.5111 9.68888 22.5111H62.3111C63.0966 22.5111 63.7333 21.8744 63.7333 21.0889V14.6889C63.7333 13.9034 63.0966 13.2667 62.3111 13.2667H9.68888ZM4 14.6889C4 11.547 6.547 9 9.68888 9H62.3111C65.453 9 68 11.547 68 14.6889V21.0889C68 24.2308 65.453 26.7778 62.3111 26.7778H9.68888C6.547 26.7778 4 24.2308 4 21.0889V14.6889Z" fill="#0D313B"/>
<path d="M43.5111 33.8885H28.4889C28.2189 33.8885 28 34.1074 28 34.3774V40.5107C28 40.7807 28.2189 40.9996 28.4889 40.9996H43.5111C43.7811 40.9996 44 40.7807 44 40.5107V34.3774C44 34.1074 43.7811 33.8885 43.5111 33.8885Z" fill="#0D313B"/>
<path fill-rule="evenodd" clip-rule="evenodd" d="M12.2666 27.4883V58.0662H59.7332V27.4883H12.2666ZM7.67578 27.4883C7.67578 23.5609 8.33921 22.195 12.2666 22.195L35.3305 22.1947H59.7332C64.367 22.195 64.3666 22.1947 64.3666 27.7256L64.3672 42.9354L64.367 58.0662C64.367 62.2938 64.367 62.2938 59.7332 62.2938H36.7127H12.2662C7.67578 62.2938 7.67578 62.3729 7.67578 58.1453V42.9354V27.4883Z" fill="#0D313B"/>
</svg>
