<svg version="1.1" id="Layer_1" xmlns="http://www.w3.org/2000/svg" xmlns:xlink="http://www.w3.org/1999/xlink" x="0px" y="0px"
	 width="100%" viewBox="0 0 317 252" enable-background="new 0 0 317 252" xml:space="preserve">
<path fill="#FFFFFE" opacity="1.000000" stroke="none" 
	d="
M186.000000,253.000000 
	C124.000008,253.000000 62.500015,253.000000 1.000016,253.000000 
	C1.000011,169.000015 1.000011,85.000038 1.000005,1.000039 
	C106.666634,1.000026 212.333267,1.000026 317.999939,1.000013 
	C317.999939,84.999962 317.999939,168.999924 317.999969,252.999939 
	C274.166656,253.000000 230.333328,253.000000 186.000000,253.000000 
M162.500061,33.240036 
	C126.676491,33.240067 90.852875,33.209309 55.029358,33.252510 
	C35.775047,33.275730 23.040350,46.028084 23.038349,65.156654 
	C23.033241,113.976875 23.015383,162.797104 23.049067,211.617294 
	C23.061565,229.734283 36.176739,242.740219 54.303699,242.741180 
	C122.951927,242.744812 191.600159,242.743225 260.248383,242.741745 
	C280.314972,242.741318 292.562531,230.471191 292.565979,210.335495 
	C292.574158,162.514999 292.143066,114.688805 292.785004,66.876930 
	C293.030975,48.557735 281.042267,32.693943 258.971771,33.093037 
	C227.157394,33.668339 195.324860,33.240082 162.500061,33.240036 
z"/>
<path fill="#1E3556" opacity="1.000000" stroke="none" 
	d="
M163.000061,33.240059 
	C195.324860,33.240082 227.157394,33.668339 258.971771,33.093037 
	C281.042267,32.693943 293.030975,48.557735 292.785004,66.876930 
	C292.143066,114.688805 292.574158,162.514999 292.565979,210.335495 
	C292.562531,230.471191 280.314972,242.741318 260.248383,242.741745 
	C191.600159,242.743225 122.951927,242.744812 54.303699,242.741180 
	C36.176739,242.740219 23.061565,229.734283 23.049067,211.617294 
	C23.015383,162.797104 23.033241,113.976875 23.038349,65.156654 
	C23.040350,46.028084 35.775047,33.275730 55.029358,33.252510 
	C90.852875,33.209309 126.676491,33.240067 163.000061,33.240059 
M45.866184,216.197327 
	C47.682518,220.178513 51.184280,220.868530 55.024853,220.868652 
	C123.488403,220.870911 191.951950,220.882843 260.415497,220.851898 
	C268.063507,220.848434 270.457031,218.312515 270.458801,210.557068 
	C270.469788,162.249451 270.469971,113.941841 270.458374,65.634224 
	C270.456421,57.538059 268.220825,55.191025 260.106720,55.186970 
	C191.976318,55.152935 123.845924,55.154408 55.715542,55.184673 
	C47.612141,55.188271 45.092434,57.864010 45.091408,66.066376 
	C45.085403,114.040833 45.083649,162.015289 45.106968,209.989731 
	C45.107849,211.805237 45.381039,213.620621 45.866184,216.197327 
z"/>
<path fill="#FCFDFC" opacity="1.000000" stroke="none" 
	d="
M45.696758,215.816681 
	C45.381039,213.620621 45.107849,211.805237 45.106968,209.989731 
	C45.083649,162.015289 45.085403,114.040833 45.091408,66.066376 
	C45.092434,57.864010 47.612141,55.188271 55.715542,55.184673 
	C123.845924,55.154408 191.976318,55.152935 260.106720,55.186970 
	C268.220825,55.191025 270.456421,57.538059 270.458374,65.634224 
	C270.469971,113.941841 270.469788,162.249451 270.458801,210.557068 
	C270.457031,218.312515 268.063507,220.848434 260.415497,220.851898 
	C191.951950,220.882843 123.488403,220.870911 55.024853,220.868652 
	C51.184280,220.868530 47.682518,220.178513 45.696758,215.816681 
M62.061340,151.175552 
	C62.254635,151.812683 62.489613,152.440430 62.635235,153.088272 
	C69.503090,183.642273 96.105431,205.068039 127.378090,205.224365 
	C159.788681,205.386383 186.623856,183.666763 193.463135,151.737030 
	C199.105392,125.395691 188.238632,97.632278 166.535660,82.940163 
	C143.291702,67.204865 112.750198,66.631409 90.459129,82.197632 
	C66.726059,98.770821 57.771294,121.902328 62.061340,151.175552 
M216.875549,203.999191 
	C223.736282,206.451782 227.877243,204.872391 231.642380,198.049423 
	C238.464859,185.686142 245.293228,173.322601 251.840271,160.813217 
	C253.491364,157.658508 254.979172,153.963074 255.023712,150.496613 
	C255.314697,127.860886 255.362427,105.216995 255.001236,82.583572 
	C254.949707,79.354561 252.930206,75.517151 250.619125,73.121048 
	C247.518631,69.906494 242.989395,70.127480 238.975784,72.093605 
	C234.568405,74.252640 233.201904,78.233467 233.204330,82.876495 
	C233.215103,103.518669 233.333237,124.162331 233.087372,144.801575 
	C233.046097,148.266525 231.996078,152.020142 230.392410,155.111359 
	C224.805298,165.881088 218.724701,176.393646 212.921692,187.052963 
	C209.115509,194.044403 210.108185,198.760086 216.875549,203.999191 
z"/>
<path fill="#1A3254" opacity="1.000000" stroke="none" 
	d="
M61.980858,150.756119 
	C57.771294,121.902328 66.726059,98.770821 90.459129,82.197632 
	C112.750198,66.631409 143.291702,67.204865 166.535660,82.940163 
	C188.238632,97.632278 199.105392,125.395691 193.463135,151.737030 
	C186.623856,183.666763 159.788681,205.386383 127.378090,205.224365 
	C96.105431,205.068039 69.503090,183.642273 62.635235,153.088272 
	C62.489613,152.440430 62.254635,151.812683 61.980858,150.756119 
M112.835953,137.567230 
	C111.785820,148.276749 122.086266,156.287369 134.070786,151.954132 
	C141.198547,149.376968 144.607803,141.628860 142.730362,133.899918 
	C141.028381,126.893349 134.371918,122.365173 126.493202,122.854324 
	C119.002213,123.319405 113.777290,128.624588 112.835953,137.567230 
z"/>
<path fill="#1E3455" opacity="1.000000" stroke="none" 
	d="
M216.527557,203.816528 
	C210.108185,198.760086 209.115509,194.044403 212.921692,187.052963 
	C218.724701,176.393646 224.805298,165.881088 230.392410,155.111359 
	C231.996078,152.020142 233.046097,148.266525 233.087372,144.801575 
	C233.333237,124.162331 233.215103,103.518669 233.204330,82.876495 
	C233.201904,78.233467 234.568405,74.252640 238.975784,72.093605 
	C242.989395,70.127480 247.518631,69.906494 250.619125,73.121048 
	C252.930206,75.517151 254.949707,79.354561 255.001236,82.583572 
	C255.362427,105.216995 255.314697,127.860886 255.023712,150.496613 
	C254.979172,153.963074 253.491364,157.658508 251.840271,160.813217 
	C245.293228,173.322601 238.464859,185.686142 231.642380,198.049423 
	C227.877243,204.872391 223.736282,206.451782 216.527557,203.816528 
z"/>
<path fill="#FCFCFA" opacity="1.000000" stroke="none" 
	d="
M112.849411,137.130615 
	C113.777290,128.624588 119.002213,123.319405 126.493202,122.854324 
	C134.371918,122.365173 141.028381,126.893349 142.730362,133.899918 
	C144.607803,141.628860 141.198547,149.376968 134.070786,151.954132 
	C122.086266,156.287369 111.785820,148.276749 112.849411,137.130615 
z"/>
</svg>