<svg width="72" height="72" viewBox="0 0 72 72" fill="none" xmlns="http://www.w3.org/2000/svg">
<g clip-path="url(#clip0_5952_45848)">
<rect x="7" y="38" width="24" height="16" fill="#68D4F4"/>
<rect x="23" y="13" width="23" height="16" fill="#68D4F4"/>
<path d="M32.1819 31.8995H5.87891V36.9096H32.1819V31.8995Z" fill="#2894B4"/>
<path fill-rule="evenodd" clip-rule="evenodd" d="M6.67205 32.2337C6.30312 32.2337 6.00404 32.5327 6.00404 32.9017V35.9077C6.00404 36.2767 6.30312 36.5757 6.67205 36.5757H31.3886C31.7575 36.5757 32.0566 36.2767 32.0566 35.9077V32.9017C32.0566 32.5327 31.7575 32.2337 31.3886 32.2337H6.67205ZM4 32.9017C4 31.4259 5.19632 30.2296 6.67205 30.2296H31.3886C32.8643 30.2296 34.0606 31.4259 34.0606 32.9017V35.9077C34.0606 37.3835 32.8643 38.5798 31.3886 38.5798H6.67205C5.19632 38.5798 4 37.3835 4 35.9077V32.9017Z" fill="#0B2D1F"/>
<path d="M22.559 41.9196H15.5031C15.3762 41.9196 15.2734 42.0224 15.2734 42.1492V45.0301C15.2734 45.1569 15.3762 45.2597 15.5031 45.2597H22.559C22.6858 45.2597 22.7886 45.1569 22.7886 45.0301V42.1492C22.7886 42.0224 22.6858 41.9196 22.559 41.9196Z" fill="#0B2D1F"/>
<path fill-rule="evenodd" clip-rule="evenodd" d="M7.88284 38.9135V53.2759H30.1778V38.9135H7.88284ZM5.72656 38.9135C5.72656 37.0688 6.03818 36.4273 7.88284 36.4273L18.7159 36.4271H30.1778C32.3543 36.4273 32.3541 36.4271 32.3541 39.025L32.3543 46.169L32.3543 53.2759C32.3543 55.2615 32.3543 55.2615 30.1778 55.2615H19.3651H7.88266C5.72656 55.2615 5.72656 55.2987 5.72656 53.313V46.169V38.9135Z" fill="#0B2D1F"/>
<path d="M62.2425 31.8995H35.9395V36.9096H62.2425V31.8995Z" fill="#2894B4"/>
<path fill-rule="evenodd" clip-rule="evenodd" d="M36.7326 32.2337C36.3637 32.2337 36.0646 32.5327 36.0646 32.9017V35.9077C36.0646 36.2767 36.3637 36.5757 36.7326 36.5757H61.4491C61.818 36.5757 62.1171 36.2767 62.1171 35.9077V32.9017C62.1171 32.5327 61.818 32.2337 61.4491 32.2337H36.7326ZM34.0605 32.9017C34.0605 31.4259 35.2569 30.2296 36.7326 30.2296H61.4491C62.9248 30.2296 64.1212 31.4259 64.1212 32.9017V35.9077C64.1212 37.3835 62.9248 38.5798 61.4491 38.5798H36.7326C35.2569 38.5798 34.0605 37.3835 34.0605 35.9077V32.9017Z" fill="#0B2D1F"/>
<path d="M52.6195 41.9196H45.5636C45.4368 41.9196 45.334 42.0224 45.334 42.1492V45.0301C45.334 45.1569 45.4368 45.2597 45.5636 45.2597H52.6195C52.7463 45.2597 52.8491 45.1569 52.8491 45.0301V42.1492C52.8491 42.0224 52.7463 41.9196 52.6195 41.9196Z" fill="#0B2D1F"/>
<path fill-rule="evenodd" clip-rule="evenodd" d="M37.9434 38.9135V53.2759H60.2383V38.9135H37.9434ZM35.7871 38.9135C35.7871 37.0688 36.0987 36.4273 37.9434 36.4273L48.7764 36.4271H60.2383C62.4148 36.4273 62.4146 36.4271 62.4146 39.025L62.4149 46.169L62.4148 53.2759C62.4148 55.2615 62.4148 55.2615 60.2383 55.2615H49.4257H37.9432C35.7871 55.2615 35.7871 55.2987 35.7871 53.313V46.169V38.9135Z" fill="#0B2D1F"/>
<path d="M37.9434 53.2759V38.9135H60.2383V53.2759H37.9434Z" fill="#68D4F4"/>
<path d="M47.2112 6.66992H20.9082V11.68H47.2112V6.66992Z" fill="#2894B4"/>
<path fill-rule="evenodd" clip-rule="evenodd" d="M21.7013 7.00404C21.3324 7.00404 21.0333 7.30312 21.0333 7.67205V10.6781C21.0333 11.047 21.3324 11.3461 21.7013 11.3461H46.4179C46.7868 11.3461 47.0859 11.047 47.0859 10.6781V7.67205C47.0859 7.30312 46.7868 7.00404 46.4179 7.00404H21.7013ZM19.0293 7.67205C19.0293 6.19632 20.2256 5 21.7013 5H46.4179C47.8936 5 49.0899 6.19632 49.0899 7.67205V10.6781C49.0899 12.1538 47.8936 13.3502 46.4179 13.3502H21.7013C20.2256 13.3502 19.0293 12.1538 19.0293 10.6781V7.67205Z" fill="#0B2D1F"/>
<path d="M37.5883 16.6901H30.5324C30.4055 16.6901 30.3027 16.7929 30.3027 16.9197V19.8005C30.3027 19.9273 30.4055 20.0301 30.5324 20.0301H37.5883C37.7151 20.0301 37.8179 19.9273 37.8179 19.8005V16.9197C37.8179 16.7929 37.7151 16.6901 37.5883 16.6901Z" fill="#0B2D1F"/>
<path fill-rule="evenodd" clip-rule="evenodd" d="M22.9102 13.6839V28.0462H45.2051V13.6839H22.9102ZM20.7539 13.6839C20.7539 11.8392 21.0655 11.1976 22.9102 11.1976L33.7432 11.1975H45.2051C47.3816 11.1977 47.3814 11.1975 47.3814 13.7953L47.3817 20.9394L47.3816 28.0462C47.3816 30.0319 47.3816 30.0319 45.2051 30.0319H34.3925H22.91C20.7539 30.0319 20.7539 30.0691 20.7539 28.0834V20.9394V13.6839Z" fill="#0B2D1F"/>
<path d="M45.6973 45.1045L56.8541 41.8484L68.0003 45.1045V51.7818C68.0003 58.8001 63.5088 65.0308 56.8504 67.2494C50.1901 65.0309 45.6973 58.7988 45.6973 51.7787V45.1045Z" fill="#2894B4" stroke="#0B2D1F" stroke-width="2.47811" stroke-linejoin="round"/>
<path d="M51.2734 53.6195L55.6101 57.9562L63.0445 50.5219" stroke="#0B2D1F" stroke-width="2.47811" stroke-linecap="round" stroke-linejoin="round"/>
</g>
<defs>
<clipPath id="clip0_5952_45848">
<rect width="72" height="72" fill="white"/>
</clipPath>
</defs>
</svg>
