<svg width="36" height="36" viewBox="0 0 36 36" fill="none" xmlns="http://www.w3.org/2000/svg">
<path fill-rule="evenodd" clip-rule="evenodd" d="M10.2121 19.6V16.5L7.91211 14.4L10.2121 10.8L12.8121 11.8L15.6121 10.3L16.4121 7.20001H20.3121L21.1121 10.3L23.7121 11.8L26.5121 10.8L28.8121 14.4L26.5121 16.5V19.6L28.8121 21.7L26.5121 25.3L23.7121 24.3L21.0121 25.8L20.2121 28.6H16.3121L15.6121 25.8L12.8121 24.3L10.2121 25.3L7.91211 21.7L10.2121 19.6ZM18.5121 21.9C20.6121 21.9 22.4121 20.2 22.4121 18C22.4121 15.9 20.7121 14.1 18.5121 14.1C16.4121 14.1 14.6121 15.8 14.6121 18C14.6121 20.2 16.3121 21.9 18.5121 21.9Z" fill="#FFA600"/>
<path d="M18.312 13C15.512 13 13.312 15.3 13.312 18C13.312 20.8 15.612 23 18.312 23C21.012 23 23.312 20.7 23.312 18C23.312 15.3 21.012 13 18.312 13ZM21.412 18.1C21.412 19.8 20.012 21.2 18.312 21.2C16.612 21.2 15.212 19.8 15.212 18.1C15.212 16.4 16.612 15 18.312 15C20.012 15 21.412 16.3 21.412 18.1Z" fill="black"/>
<path d="M22.6121 18.1C22.6121 15.8 20.8121 14 18.5121 14C16.2121 14 14.4121 15.8 14.4121 18.1C14.4121 20.4 16.2121 22.2 18.5121 22.2C20.7121 22.2 22.6121 20.3 22.6121 18.1ZM14.9121 18.1C14.9121 16.1 16.5121 14.5 18.5121 14.5C20.5121 14.5 22.1121 16.1 22.1121 18.1C22.1121 20.1 20.5121 21.7 18.5121 21.7C16.5121 21.7 14.9121 20 14.9121 18.1Z" fill="black"/>
<path d="M28.7122 20.2L27.3122 19.2C27.3122 18.8 27.4122 18.5 27.4122 18.1C27.4122 17.7 27.4122 17.4 27.3122 17L28.7122 16C29.6122 15.4 29.8122 14.2 29.3122 13.2L28.1122 11C27.5122 10.1 26.4122 9.7 25.4122 10.1L23.7122 10.8C23.1122 10.4 22.5122 10 21.8122 9.7L21.6122 7.9C21.5122 6.8 20.6122 6 19.5122 6H17.0122C15.9122 6 15.0122 6.8 14.9122 7.9L14.7122 9.8C14.0122 10.1 13.4122 10.4 12.8122 10.9L11.2122 10.1C10.2122 9.7 9.01216 10 8.51216 11L7.31216 13.1C6.71216 14 7.01216 15.3 7.91216 15.9L9.31216 16.9C9.31216 17.3 9.21216 17.6 9.21216 18C9.21216 18.4 9.21216 18.7 9.31216 19.1L7.91216 20.1C7.01216 20.7 6.81216 21.9 7.31216 22.9L8.51216 25.1C9.11216 26 10.2122 26.4 11.2122 26L12.8122 25.3C13.4122 25.7 14.0122 26.1 14.7122 26.4L14.9122 28.2C15.0122 29.3 15.9122 30.1 17.0122 30.1H19.5122C20.6122 30.1 21.5122 29.3 21.6122 28.2L21.8122 26.4C22.5122 26.1 23.1122 25.8 23.7122 25.3L25.3122 26C26.3122 26.5 27.5122 26.1 28.0122 25.1L29.2122 23C29.8122 22 29.6122 20.8 28.7122 20.2ZM15.9122 24.8C15.0122 24.5 14.3122 24.1 13.6122 23.5C13.4122 23.3 13.2122 23.3 13.0122 23.3C12.9122 23.3 12.7122 23.3 12.6122 23.4L10.4122 24.4C10.3122 24.4 10.2122 24.4 10.1122 24.3L8.91216 22.1C8.81216 22 8.91216 21.9 9.01216 21.8L10.9122 20.4C11.2122 20.2 11.3122 19.8 11.3122 19.4C11.2122 18.9 11.2122 18.5 11.2122 18.1C11.2122 17.7 11.2122 17.2 11.3122 16.8C11.4122 16.4 11.2122 16.1 10.9122 15.8L9.01216 14.4C8.91216 14.3 8.91216 14.2 8.91216 14.1L10.1122 12C10.2122 11.9 10.3122 11.9 10.4122 11.9L12.6122 12.9C12.9122 13.1 13.3122 13 13.6122 12.8C14.3122 12.2 15.1122 11.8 15.9122 11.5C16.2122 11.4 16.5122 11.1 16.5122 10.7L16.7122 8.4C16.7122 8.3 16.8122 8.2 16.9122 8.2H19.4122C19.5122 8.2 19.6122 8.3 19.6122 8.4L19.8122 10.7C19.8122 11.1 20.1122 11.4 20.4122 11.5C21.3122 11.8 22.0122 12.2 22.7122 12.8C23.0122 13 23.4122 13.1 23.7122 12.9L25.9122 11.9C26.0122 11.9 26.1122 11.9 26.2122 12L27.4122 14.2C27.5122 14.3 27.4122 14.4 27.3122 14.5L25.6122 15.8C25.3122 16 25.2122 16.4 25.2122 16.8C25.3122 17.2 25.3122 17.7 25.3122 18.1C25.3122 18.5 25.3122 19 25.2122 19.4C25.1122 19.8 25.3122 20.1 25.6122 20.4L27.5122 21.8C27.6122 21.9 27.6122 22 27.6122 22.1L26.4122 24.2C26.3122 24.3 26.2122 24.3 26.1122 24.3L23.9122 23.3C23.6122 23.1 23.2122 23.2 22.9122 23.4C22.2122 24 21.4122 24.4 20.6122 24.7C20.3122 24.8 20.0122 25.1 20.0122 25.5L19.8122 27.8C19.8122 27.9 19.7122 28 19.6122 28H17.1122C17.0122 28 16.9122 27.9 16.9122 27.8L16.7122 25.5C16.5122 25.2 16.3122 24.9 15.9122 24.8Z" fill="black"/>
</svg>
