<svg width="72" height="72" viewBox="0 0 72 72" fill="none" xmlns="http://www.w3.org/2000/svg">
<path d="M35.5651 68C34.6185 67.2247 33.6851 66.4344 32.7184 65.6874C32.4789 65.5027 32.1345 65.3663 31.835 65.3629C29.2778 65.338 26.7206 65.3629 24.1617 65.3446C20.6878 65.3197 18.0091 63.1135 17.4101 59.7893C17.322 59.3018 17.3186 58.7961 17.3186 58.2986C17.3137 42.5777 17.312 26.8584 17.317 11.1375C17.3186 6.90825 20.1271 4.11147 24.3597 4.11147C32.1577 4.1098 39.9558 4.10481 47.7522 4.11313C51.1962 4.11646 53.8948 6.36088 54.4722 9.6934C54.5637 10.2208 54.5587 10.7699 54.5587 11.3089C54.5637 23.2647 54.562 35.2222 54.562 47.178C54.562 47.4442 54.562 47.7104 54.562 47.9783C54.9463 48.0481 55.2741 48.0897 55.5935 48.1696C57.2373 48.5805 58.5168 50.0763 58.5301 51.7783C58.5667 56.7263 58.545 61.676 58.5567 66.6241C58.5584 67.3012 58.1441 67.6656 57.6499 67.9967C57.4004 67.9967 57.1508 67.9967 56.9012 67.9967C56.1342 67.6623 55.888 67.0716 55.8913 66.2497C55.9146 61.6328 55.903 57.0158 55.903 52.3989C55.903 51.3291 55.4255 50.7085 54.5969 50.6919C53.7517 50.6736 53.2559 51.3091 53.2526 52.4155C53.2509 53.1226 53.2576 53.8297 53.2493 54.5368C53.2443 55.0642 53.0796 55.5168 52.6037 55.8096C51.677 56.3769 50.6056 55.7381 50.5773 54.5684C50.5457 53.279 50.5856 51.9896 50.5573 50.7002C50.539 49.8151 49.8702 49.271 49.025 49.3958C48.3778 49.4906 47.9286 50.028 47.9219 50.7717C47.9086 52.0811 47.9336 53.3922 47.9069 54.7015C47.892 55.4586 47.303 56.0109 46.5926 56.0142C45.8805 56.0176 45.3131 55.4702 45.2765 54.7115C45.2532 54.234 45.2665 53.7549 45.2665 53.2774C45.2649 51.9879 45.2865 50.6985 45.2549 49.4091C45.2349 48.5855 44.6709 48.0398 43.9322 48.0365C43.1935 48.0315 42.6511 48.5756 42.5896 49.3941C42.5746 49.6004 42.5829 49.8101 42.5829 50.018C42.5812 51.577 42.5929 53.1376 42.5712 54.6965C42.5613 55.4186 42.0655 55.9361 41.3966 56.0076C40.7444 56.0775 40.1055 55.6249 39.9675 54.9661C39.9209 54.7448 39.9325 54.5102 39.9325 54.2823C39.9309 49.7069 39.9309 45.1316 39.9309 40.5562C39.9309 39.3383 39.4534 38.6928 38.5716 38.7161C37.7131 38.7377 37.2788 39.3533 37.2788 40.5529C37.2788 46.0633 37.2805 51.5753 37.2772 57.0857C37.2755 58.4433 36.4736 59.009 35.1941 58.5648C33.547 57.9941 31.9015 57.4151 30.2544 56.8461C29.4558 56.5699 28.8901 56.7297 28.5707 57.3037C28.2529 57.8743 28.4126 58.4334 29.0565 58.9874C31.5305 61.117 34.0079 63.2433 36.4819 65.3746C37.6016 66.3396 37.5417 67.2197 36.3138 67.9967C36.0643 68 35.8147 68 35.5651 68ZM26.5658 6.76351C25.689 6.76351 24.8605 6.74853 24.0336 6.76683C21.6478 6.82007 19.9707 8.52044 19.969 10.9063C19.964 26.7919 19.964 42.6759 19.969 58.5615C19.969 60.9473 21.6577 62.6327 24.0552 62.661C25.5942 62.6793 27.1332 62.666 28.6705 62.6627C28.8053 62.6627 28.94 62.641 29.2046 62.6177C28.3943 61.9206 27.6606 61.32 26.9618 60.6828C25.6158 59.4549 25.3097 57.5283 26.1848 55.9577C27.0716 54.3655 28.9018 53.6151 30.6703 54.1475C31.4457 54.3804 32.2043 54.6633 32.9697 54.9261C33.4871 55.1042 34.0029 55.2855 34.5519 55.4769C34.5519 50.7268 34.5519 46.0816 34.5519 41.3881C34.2607 41.3881 34.0145 41.3881 33.7683 41.3881C30.6071 41.3881 27.4476 41.3898 24.2865 41.3864C23.3132 41.3848 22.7508 40.9722 22.646 40.2068C22.5495 39.5064 22.9555 38.9973 23.8339 38.7061C23.8705 38.6945 23.8988 38.6579 23.9587 38.6113C23.9587 38.3218 23.9587 38.0107 23.9587 37.6995C23.9621 31.4488 27.9983 26.6322 34.1459 25.564C34.527 25.4975 34.6118 25.3328 34.6035 24.9867C34.5935 24.5741 34.5935 24.1498 34.6734 23.7472C34.7915 23.1449 35.3405 22.744 35.9378 22.744C36.5334 22.744 37.0808 23.1483 37.2023 23.7489C37.2788 24.1315 37.2988 24.5358 37.2688 24.9252C37.2339 25.3877 37.4202 25.5158 37.8545 25.579C43.0022 26.3344 47.2281 30.6934 47.7988 35.8361C47.9036 36.7778 47.9153 37.7278 47.9702 38.6645C48.9518 39.0056 49.3544 39.5297 49.2163 40.2684C49.0766 41.0237 48.5375 41.3831 47.5243 41.3864C46.1733 41.3898 44.8207 41.3864 43.4697 41.3864C43.1902 41.3864 42.909 41.3864 42.6278 41.3864C42.6278 42.8306 42.6278 44.1699 42.6278 45.5126C42.7326 45.5192 42.7959 45.5375 42.8524 45.5242C44.5528 45.1382 45.962 45.5958 47.1 46.9334C47.2015 47.0515 47.5343 47.0815 47.7056 47.0149C48.8836 46.5557 50.0216 46.604 51.1346 47.193C51.3809 47.3227 51.6121 47.4808 51.9083 47.6605C51.9083 47.4126 51.9083 47.2479 51.9083 47.0848C51.9083 35.0458 51.9083 23.0085 51.9083 10.9695C51.9083 10.8447 51.9083 10.7199 51.9033 10.5952C51.8368 8.98297 50.7736 7.51553 49.2513 7.00642C47.9602 6.57384 46.6308 6.80011 45.2616 6.77848C45.2616 7.26596 45.2749 7.68024 45.2599 8.09285C45.1767 10.3107 43.5529 12.0543 41.4282 12.0776C37.7696 12.1192 34.1093 12.1142 30.4507 12.0792C28.5524 12.0609 26.9535 10.5968 26.689 8.7151C26.6041 8.1045 26.6091 7.47893 26.5658 6.76351ZM45.2466 38.7061C45.4612 34.5933 44.0986 31.334 40.5365 29.3158C37.1124 27.3759 33.6435 27.5938 30.4491 29.8882C27.4809 32.0194 26.3961 35.0658 26.6424 38.6446C26.7555 38.6712 26.8154 38.6995 26.8753 38.6995C29.4109 38.7028 31.9465 38.7111 34.4837 38.6928C34.6534 38.6911 34.898 38.5214 34.9812 38.3634C35.7581 36.8893 36.9577 36.0591 38.6265 36.0707C40.2653 36.0807 41.4582 36.8893 42.2102 38.3534C42.2884 38.5048 42.4897 38.6845 42.6411 38.6895C43.4863 38.7228 44.3365 38.7061 45.2466 38.7061ZM29.2944 6.78846C29.2944 7.17945 29.2911 7.50887 29.2944 7.8383C29.3061 8.95635 29.7736 9.43385 30.8883 9.44383C31.9697 9.45381 33.0495 9.44549 34.131 9.44549C36.417 9.44549 38.7047 9.44882 40.9907 9.44383C41.8159 9.44217 42.3982 9.12938 42.503 8.51379C42.5962 7.96142 42.523 7.3791 42.523 6.78846C38.1174 6.78846 33.76 6.78846 29.2944 6.78846Z" fill="#0B2D1F"/>
<path d="M26.5658 6.76351C25.689 6.76351 24.8605 6.74853 24.0336 6.76683C21.6478 6.82007 19.9707 8.52044 19.969 10.9063C19.964 26.7919 19.964 42.6759 19.969 58.5615C19.969 60.9473 21.6577 62.6327 24.0552 62.661C25.5942 62.6793 27.1332 62.666 28.6705 62.6627C28.8053 62.6627 28.94 62.641 29.2046 62.6177C28.3943 61.9206 27.6606 61.32 26.9618 60.6828C25.6158 59.4549 25.3097 57.5283 26.1848 55.9577C27.0716 54.3655 28.9018 53.6151 30.6703 54.1475C31.4457 54.3804 32.2043 54.6633 32.9697 54.9261C33.4871 55.1042 34.0029 55.2855 34.5519 55.4769V41.3881H33.7683C30.6071 41.3881 27.4476 41.3898 24.2865 41.3864C23.3132 41.3848 22.7508 40.9722 22.646 40.2068C22.5495 39.5064 22.9555 38.9973 23.8339 38.7061C23.8705 38.6945 23.8988 38.6579 23.9587 38.6113V37.6995C23.9621 31.4488 27.9983 26.6322 34.1459 25.564C34.527 25.4975 34.6118 25.3328 34.6035 24.9867C34.5935 24.5741 34.5935 24.1498 34.6734 23.7472C34.7915 23.1449 35.3405 22.744 35.9378 22.744C36.5334 22.744 37.0808 23.1483 37.2023 23.7489C37.2788 24.1315 37.2988 24.5358 37.2688 24.9252C37.2339 25.3877 37.4202 25.5158 37.8545 25.579C43.0022 26.3344 47.2281 30.6934 47.7988 35.8361C47.9036 36.7778 47.9153 37.7278 47.9702 38.6645C48.9518 39.0056 49.3544 39.5297 49.2163 40.2684C49.0766 41.0237 48.5375 41.3831 47.5243 41.3864C46.1733 41.3898 44.8207 41.3864 43.4697 41.3864H42.6278V45.5126C42.7326 45.5192 42.7959 45.5375 42.8524 45.5242C44.5528 45.1382 45.962 45.5958 47.1 46.9334C47.2015 47.0515 47.5343 47.0815 47.7056 47.0149C48.8836 46.5557 50.0216 46.604 51.1346 47.193C51.3809 47.3227 51.6121 47.4808 51.9083 47.6605V47.0848V10.9695C51.9083 10.8447 51.9083 10.7199 51.9033 10.5952C51.8368 8.98297 50.7736 7.51553 49.2513 7.00642C47.9602 6.57384 46.6308 6.80011 45.2616 6.77848C45.2616 7.26596 45.2749 7.68024 45.2599 8.09285C45.1767 10.3107 43.5529 12.0543 41.4282 12.0776C37.7696 12.1192 34.1093 12.1142 30.4507 12.0792C28.5524 12.0609 26.9535 10.5968 26.689 8.7151C26.6041 8.1045 26.6091 7.47893 26.5658 6.76351Z" fill="#22885E"/>
<path d="M45.2466 38.7061C45.4612 34.5933 44.0986 31.334 40.5365 29.3158C37.1124 27.3759 33.6435 27.5938 30.4491 29.8882C27.4809 32.0194 26.3961 35.0658 26.6424 38.6446C26.7555 38.6712 26.8154 38.6995 26.8753 38.6995C29.4109 38.7028 31.9465 38.7111 34.4837 38.6928C34.6534 38.6911 34.898 38.5214 34.9812 38.3634C35.7581 36.8893 36.9577 36.0591 38.6265 36.0707C40.2653 36.0807 41.4582 36.8893 42.2102 38.3534C42.2884 38.5048 42.4897 38.6845 42.6411 38.6895C43.4863 38.7228 44.3365 38.7061 45.2466 38.7061Z" fill="#62C89E"/>
<path d="M29.2944 6.78846C29.2944 7.17945 29.2911 7.50887 29.2944 7.8383C29.3061 8.95635 29.7736 9.43385 30.8883 9.44383C31.9697 9.45381 33.0495 9.44549 34.131 9.44549C36.417 9.44549 38.7047 9.44882 40.9907 9.44383C41.8159 9.44217 42.3982 9.12938 42.503 8.51379C42.5962 7.96142 42.523 7.3791 42.523 6.78846H29.2944Z" fill="#CBEDDF"/>
</svg>
