<svg width="72" height="72" viewBox="0 0 72 72" fill="none" xmlns="http://www.w3.org/2000/svg">
<path d="M18.1914 8.5728C18.1914 7.55185 18.1838 6.62614 18.1933 5.70042C18.2047 4.68519 18.8352 3.99757 19.7266 4.00519C20.6028 4.01281 21.2047 4.66042 21.2219 5.65471C21.239 6.60137 21.2257 7.54804 21.2257 8.5328C25.8142 8.5328 30.3247 8.5328 34.9419 8.5328C34.9419 7.84709 34.9399 7.16709 34.9419 6.48709C34.9419 6.15375 34.9247 5.81852 34.9552 5.48709C35.0371 4.59947 35.6695 3.99947 36.4866 4.00519C37.3076 4.0109 37.938 4.60519 37.9952 5.50614C38.0409 6.21661 38.0104 6.93471 38.0123 7.64709C38.0142 7.92709 38.0123 8.20899 38.0123 8.52899C42.5895 8.52899 47.1037 8.52899 51.7266 8.52899C51.7266 7.66232 51.7171 6.78994 51.7323 5.91947C51.738 5.58995 51.7475 5.24328 51.8542 4.93852C52.079 4.29661 52.799 3.91376 53.4599 4.01662C54.1837 4.129 54.7304 4.72328 54.7514 5.50423C54.7799 6.49852 54.759 7.4928 54.759 8.56899C56.4294 8.56899 58.0409 8.55756 59.6504 8.5747C60.4104 8.58232 61.1818 8.56518 61.9247 8.6928C64.7875 9.17851 66.8161 11.5423 66.9285 14.4528C66.9323 14.5709 66.938 14.6909 66.938 14.809C66.938 30.449 66.9418 46.0908 66.9361 61.7308C66.9342 64.4261 65.698 66.388 63.239 67.4813C62.5018 67.8089 61.6294 67.9765 60.8199 67.9765C44.5837 68.0051 28.3476 68.0051 12.1114 67.9899C8.71332 67.986 6.08475 65.3937 6.02761 61.9956C5.97618 58.9023 6.01237 55.807 6.01237 52.7118C6.01237 40.1651 6.02189 27.6204 6.00285 15.0737C5.99904 12.6356 6.90189 10.7309 8.9857 9.43566C9.95712 8.83185 11.0352 8.56899 12.18 8.57089C14.1533 8.5747 16.1266 8.5728 18.1914 8.5728ZM9.04856 26.8832C9.04856 27.1918 9.04856 27.428 9.04856 27.6642C9.04856 38.9461 9.04856 50.2299 9.04856 61.5118C9.04856 63.7346 10.2657 64.9651 12.4847 64.9651C28.4809 64.967 44.4752 64.967 60.4713 64.9651C62.6923 64.9651 63.9056 63.7384 63.9056 61.5099C63.9075 50.228 63.9056 38.9442 63.9056 27.6623C63.9056 27.4109 63.9056 27.1575 63.9056 26.8832C45.5895 26.8832 27.3647 26.8832 9.04856 26.8832ZM9.05617 23.769C27.38 23.769 45.6218 23.769 63.9056 23.769C63.9056 20.7899 63.9094 17.8642 63.9037 14.9385C63.8999 12.8642 62.6523 11.6204 60.559 11.609C58.8447 11.5995 57.1323 11.6052 55.418 11.609C55.2123 11.609 55.0066 11.6357 54.7609 11.6528C54.7609 12.5899 54.7647 13.4699 54.7609 14.348C54.7552 15.5004 54.1818 16.1766 53.2218 16.169C52.2809 16.1614 51.738 15.5195 51.7285 14.388C51.7209 13.4909 51.7266 12.5937 51.7266 11.6699C47.1133 11.6699 42.5876 11.6699 38.0104 11.6699C38.0104 12.6566 38.0276 13.5823 38.0047 14.508C37.9799 15.5156 37.3914 16.1499 36.5152 16.169C35.6009 16.188 34.9723 15.5461 34.9476 14.5156C34.9247 13.5728 34.9419 12.6261 34.9419 11.6757C30.3209 11.6757 25.7952 11.6757 21.2238 11.6757C21.2238 12.6928 21.2885 13.6509 21.1952 14.5918C21.1514 15.0395 20.919 15.6356 20.5762 15.8452C20.1781 16.089 19.5323 16.1137 19.0562 15.9899C18.4657 15.8375 18.2009 15.2661 18.1952 14.6433C18.1857 13.6528 18.1933 12.6623 18.1933 11.6414C15.9857 11.6414 13.8695 11.5633 11.7628 11.668C10.2619 11.7423 9.09617 12.9823 9.07141 14.4299C9.02189 17.5233 9.05617 20.6166 9.05617 23.769Z" fill="#0B2D1F"/>
<path d="M9.05617 23.769H63.9056C63.9056 20.7899 63.9094 17.8642 63.9037 14.9385C63.8999 12.8642 62.6523 11.6204 60.559 11.609C58.8447 11.5995 57.1323 11.6052 55.418 11.609C55.2123 11.609 55.0066 11.6357 54.7609 11.6528C54.7609 12.5899 54.7647 13.4699 54.7609 14.348C54.7552 15.5004 54.1818 16.1766 53.2218 16.169C52.2809 16.1614 51.738 15.5195 51.7285 14.388C51.7209 13.4909 51.7266 12.5937 51.7266 11.6699H38.0104C38.0104 12.6566 38.0276 13.5823 38.0047 14.508C37.9799 15.5156 37.3914 16.1499 36.5152 16.169C35.6009 16.188 34.9723 15.5461 34.9476 14.5156C34.9247 13.5728 34.9419 12.6261 34.9419 11.6757H21.2238C21.2238 12.6928 21.2885 13.6509 21.1952 14.5918C21.1514 15.0395 20.919 15.6356 20.5762 15.8452C20.1781 16.089 19.5323 16.1137 19.0562 15.9899C18.4657 15.8375 18.2009 15.2661 18.1952 14.6433C18.1857 13.6528 18.1933 12.6623 18.1933 11.6414C15.9857 11.6414 13.8695 11.5633 11.7628 11.668C10.2619 11.7423 9.09617 12.9823 9.07141 14.4299C9.02189 17.5233 9.05617 20.6166 9.05617 23.769Z" fill="#22885E"/>
<path d="M9.04856 26.8832V27.6642V61.5118C9.04856 63.7346 10.2657 64.9651 12.4847 64.9651C28.4809 64.967 44.4752 64.967 60.4713 64.9651C62.6923 64.9651 63.9056 63.7384 63.9056 61.5099C63.9075 50.228 63.9056 38.9442 63.9056 27.6623V26.8832H9.04856Z" fill="#62C89E"/>
<path d="M36.485 44.1838C35.4869 44.1838 34.4869 44.199 33.4888 44.18C31.7174 44.1476 30.4412 42.9724 30.3898 41.2105C30.3307 39.1438 30.3326 37.0714 30.3879 35.0048C30.4355 33.2238 31.7479 32.02 33.5421 32.0086C35.4926 31.9971 37.4431 31.9971 39.3936 32.0086C41.2507 32.0181 42.5421 33.2657 42.5764 35.1305C42.6107 37.1038 42.6088 39.079 42.5764 41.0524C42.5459 42.9286 41.285 44.1533 39.4107 44.1819C38.4355 44.1971 37.4602 44.1838 36.485 44.1838ZM33.4888 41.1076C35.5231 41.1076 37.4869 41.1076 39.4659 41.1076C39.4659 39.0828 39.4659 37.1 39.4659 35.079C37.4583 35.079 35.4964 35.079 33.4888 35.079C33.4888 37.1 33.4888 39.0828 33.4888 41.1076Z" fill="#0B2D1F"/>
<path d="M36.139 60.1838C35.1409 60.1838 34.1409 60.199 33.1429 60.18C31.3714 60.1476 30.0952 58.9724 30.0438 57.2105C29.9848 55.1438 29.9867 53.0714 30.0419 51.0048C30.0895 49.2238 31.4019 48.02 33.1962 48.0086C35.1467 47.9971 37.0971 47.9971 39.0476 48.0086C40.9047 48.0181 42.1962 49.2657 42.2305 51.1305C42.2647 53.1038 42.2628 55.079 42.2305 57.0524C42.2 58.9286 40.939 60.1533 39.0647 60.1819C38.0895 60.1971 37.1143 60.1838 36.139 60.1838ZM33.1429 57.1076C35.1771 57.1076 37.1409 57.1076 39.12 57.1076C39.12 55.0828 39.12 53.1 39.12 51.079C37.1124 51.079 35.1505 51.079 33.1429 51.079C33.1429 53.1 33.1429 55.0828 33.1429 57.1076Z" fill="#0B2D1F"/>
<path d="M19.139 60.1838C18.1409 60.1838 17.1409 60.199 16.1429 60.18C14.3714 60.1476 13.0952 58.9724 13.0438 57.2105C12.9848 55.1438 12.9867 53.0714 13.0419 51.0048C13.0895 49.2238 14.4019 48.02 16.1962 48.0086C18.1467 47.9971 20.0971 47.9971 22.0476 48.0086C23.9047 48.0181 25.1962 49.2657 25.2305 51.1305C25.2647 53.1038 25.2628 55.079 25.2305 57.0524C25.2 58.9286 23.939 60.1533 22.0647 60.1819C21.0895 60.1971 20.1143 60.1838 19.139 60.1838ZM16.1429 57.1076C18.1771 57.1076 20.1409 57.1076 22.12 57.1076C22.12 55.0828 22.12 53.1 22.12 51.079C20.1124 51.079 18.1505 51.079 16.1429 51.079C16.1429 53.1 16.1429 55.0828 16.1429 57.1076Z" fill="#0B2D1F"/>
<path d="M53.139 44.1838C52.1409 44.1838 51.1409 44.199 50.1429 44.18C48.3714 44.1476 47.0952 42.9724 47.0438 41.2105C46.9848 39.1438 46.9867 37.0714 47.0419 35.0048C47.0895 33.2238 48.4019 32.02 50.1962 32.0086C52.1467 31.9971 54.0971 31.9971 56.0476 32.0086C57.9047 32.0181 59.1962 33.2657 59.2305 35.1305C59.2647 37.1038 59.2628 39.079 59.2305 41.0524C59.2 42.9286 57.939 44.1533 56.0647 44.1819C55.0895 44.1971 54.1143 44.1838 53.139 44.1838ZM50.1429 41.1076C52.1771 41.1076 54.1409 41.1076 56.12 41.1076C56.12 39.0828 56.12 37.1 56.12 35.079C54.1124 35.079 52.1505 35.079 50.1429 35.079C50.1429 37.1 50.1429 39.0828 50.1429 41.1076Z" fill="#0B2D1F"/>
<path d="M52.7931 60.1838C51.795 60.1838 50.795 60.199 49.7969 60.18C48.0255 60.1476 46.7493 58.9724 46.6979 57.2105C46.6388 55.1438 46.6407 53.0714 46.696 51.0048C46.7436 49.2238 48.056 48.02 49.8502 48.0086C51.8007 47.9971 53.7512 47.9971 55.7017 48.0086C57.5588 48.0181 58.8502 49.2657 58.8845 51.1305C58.9188 53.1038 58.9169 55.079 58.8845 57.0524C58.854 58.9286 57.5931 60.1533 55.7188 60.1819C54.7436 60.1971 53.7683 60.1838 52.7931 60.1838ZM49.7969 57.1076C51.8312 57.1076 53.795 57.1076 55.774 57.1076C55.774 55.0828 55.774 53.1 55.774 51.079C53.7664 51.079 51.8045 51.079 49.7969 51.079C49.7969 53.1 49.7969 55.0828 49.7969 57.1076Z" fill="#0B2D1F"/>
<path d="M19.5764 38.4337C21.2202 36.5861 22.8659 34.7442 24.5002 32.8928C24.9002 32.4394 25.3573 32.1328 25.984 32.2109C27.1878 32.3595 27.7345 33.7214 26.9592 34.6985C26.3973 35.4033 25.7688 36.0566 25.1688 36.7309C23.8126 38.2585 22.4583 39.7918 21.0945 41.3137C20.2259 42.2813 19.544 42.3423 18.5021 41.5671C17.645 40.929 16.7859 40.2928 15.9364 39.6432C15.1116 39.0128 14.9193 38.129 15.4316 37.4128C15.9707 36.6623 16.8869 36.5747 17.7516 37.1975C18.3097 37.5994 18.8621 38.0128 19.4164 38.4185C19.4354 38.4299 19.4659 38.4242 19.5764 38.4337Z" fill="#0B2D1F"/>
<path fill-rule="evenodd" clip-rule="evenodd" d="M19.8247 39.0574L19.5249 39.0315C19.4942 39.0289 19.4768 39.0281 19.4556 39.0272C19.4484 39.0268 19.4408 39.0265 19.4321 39.0261L19.4307 39.026C19.4176 39.0254 19.3783 39.0234 19.3345 39.0161C19.2812 39.0071 19.1973 38.9867 19.1077 38.933L19.0842 38.9189L19.062 38.9026C18.8551 38.7512 18.6509 38.6005 18.4476 38.4505C18.0987 38.193 17.7527 37.9377 17.401 37.6844L17.401 37.6844C17.0585 37.4377 16.7547 37.3661 16.5254 37.3875C16.3069 37.408 16.0954 37.5174 15.9193 37.7623C15.758 37.988 15.72 38.2143 15.7681 38.4291C15.8183 38.6534 15.9759 38.9182 16.3008 39.1666L16.3008 39.1666C17.0281 39.7227 17.7623 40.2688 18.5 40.8176C18.62 40.9069 18.7402 40.9963 18.8604 41.0858C19.3421 41.4442 19.6208 41.5145 19.806 41.4967C19.9896 41.4791 20.2478 41.3587 20.6478 40.9132C21.6534 39.791 22.6534 38.6631 23.6541 37.5344C24.0092 37.1338 24.3645 36.7331 24.7201 36.3325L24.7205 36.332C24.9082 36.1211 25.0939 35.9172 25.2769 35.7163C25.6992 35.2527 26.1068 34.8052 26.4895 34.3252C26.9856 33.6994 26.6296 32.8951 25.9105 32.8064L25.9098 32.8063C25.5676 32.7636 25.2909 32.9035 24.9501 33.2898L24.95 33.2898C23.7394 34.6613 22.5223 36.0279 21.3053 37.3942C20.8783 37.8736 20.4513 38.353 20.0247 38.8325L19.8247 39.0574ZM26.9592 34.6985C26.5635 35.1949 26.1347 35.6657 25.706 36.1364C25.5261 36.334 25.3462 36.5315 25.1688 36.7309C24.8138 37.1307 24.4589 37.531 24.104 37.9313C23.1029 39.0604 22.1013 40.1902 21.0945 41.3137C20.2259 42.2813 19.544 42.3423 18.5021 41.5671C18.3822 41.4778 18.2623 41.3886 18.1423 41.2993C17.4048 40.7507 16.6671 40.2019 15.9364 39.6432C15.1116 39.0128 14.9193 38.129 15.4316 37.4128C15.9707 36.6623 16.8869 36.5747 17.7516 37.1975C18.1056 37.4524 18.4572 37.7119 18.8085 37.9711C19.0111 38.1206 19.2136 38.2701 19.4164 38.4185C19.4278 38.4254 19.4434 38.426 19.4779 38.4275C19.5009 38.4286 19.5323 38.4299 19.5764 38.4337C20.0035 37.9536 20.4308 37.4739 20.858 36.9943C22.0747 35.6282 23.2906 34.2631 24.5002 32.8928C24.9002 32.4394 25.3573 32.1328 25.984 32.2109C27.1878 32.3595 27.7345 33.7214 26.9592 34.6985Z" fill="#0B2D1F"/>
</svg>
