<svg width="72" height="72" viewBox="0 0 72 72" fill="none" xmlns="http://www.w3.org/2000/svg">
<path d="M19.9745 45.1257C19.9745 38.4329 19.9745 32.891 19.9718 27.3492C19.9667 27.1847 20.0109 27.0223 20.0991 26.881C20.2794 26.5964 20.4345 26.3002 20.6495 26.0312C21.2126 25.3272 21.998 24.9783 22.9401 24.8666C23.7566 24.7701 24.5777 24.7661 25.3995 24.7595C26.1749 24.755 26.9509 24.7852 27.7258 24.7384C27.8478 24.7309 27.9051 24.6916 27.9487 24.585C28.4823 23.2952 29.4281 22.3665 30.9307 21.9411C31.3996 21.7992 31.8873 21.722 32.379 21.7118C32.522 21.7118 32.552 21.6389 32.5746 21.5388C32.7087 20.949 32.9311 20.3893 33.319 19.891C34.1171 18.8697 35.1691 18.1607 36.5412 17.856C36.8498 17.7936 37.1638 17.76 37.4791 17.7554C38.7735 17.7118 40.0683 17.7029 41.3637 17.7288C42.0341 17.7433 42.7044 17.7348 43.3747 17.7499C44.045 17.765 44.7268 17.7876 45.3998 17.8585C46.2977 17.953 47.0111 18.3704 47.6709 18.8762C48.5794 19.5727 49.1314 20.4572 49.3969 21.491C49.4805 21.8174 49.4358 21.7772 49.8048 21.7797C51.9919 21.7953 53.5449 23.1479 54.0464 24.5906C54.0916 24.7198 54.1542 24.7645 54.3056 24.764C55.3381 24.7595 56.3707 24.7565 57.4027 24.7671C58.0725 24.7741 58.7417 24.8058 59.4005 24.9214C60.4067 25.0979 61.1028 25.6254 61.6117 26.3983C61.9129 26.8554 62.0296 27.3245 62.0286 27.8591C62.0138 36.926 62.0096 45.9929 62.016 55.0599C62.016 56.7665 62.0259 58.4737 61.9981 60.1803C61.9786 61.3786 62.0044 62.5769 61.9639 63.7747C61.9424 64.4108 61.9602 65.0484 61.8977 65.6855C61.8503 66.1697 61.5628 66.5514 61.2247 66.9084C60.7148 67.4464 60.0156 67.7215 59.3074 67.9795C59.2313 67.9984 59.1523 68.0043 59.074 67.9971C47.0138 67.9971 34.9539 67.9971 22.8944 67.9971C22.7637 67.9977 22.6343 67.972 22.5148 67.9216C22.0627 67.7331 21.599 67.5696 21.2057 67.2815C20.8386 67.0145 20.5301 66.681 20.2978 66.3C20.0875 65.9575 20.0717 65.5834 20.0607 65.2098C20.0239 63.9653 20.0228 62.7207 20.0081 61.4757C19.9429 55.6427 19.9971 49.8087 19.9745 45.1257ZM59.0125 47.4498H59.0083C59.0083 43.317 59.0156 39.1841 59.0051 35.0517C58.9993 32.6612 59.0414 30.2707 58.922 27.8817C58.9026 27.489 58.8695 27.4507 58.4357 27.4492C57.0547 27.4442 55.6736 27.4457 54.293 27.4392C54.1384 27.4392 54.0722 27.4895 54.0354 27.6192C53.8314 28.3398 53.3845 28.9321 52.7663 29.4189C52.1144 29.9318 51.3815 30.3049 50.483 30.3557C49.4316 30.4155 48.3801 30.4215 47.3287 30.4527C46.376 30.4814 45.4224 30.4738 44.4692 30.4809C42.0109 30.499 39.5521 30.51 37.0927 30.4713C35.8378 30.4512 34.5818 30.4497 33.3264 30.4241C32.8995 30.4155 32.4721 30.4105 32.0463 30.3823C31.6609 30.3572 31.2645 30.3823 30.8939 30.2687C29.4218 29.8232 28.4119 28.9613 27.9571 27.6257C27.9046 27.4749 27.8283 27.4387 27.6685 27.4331C26.9719 27.4095 26.2748 27.4155 25.5782 27.4105C24.8485 27.4055 24.1193 27.413 23.3901 27.4477C23.1378 27.4598 23.081 27.5071 23.0747 27.7122C23.0636 27.9923 23.0452 28.2724 23.04 28.5525C23.0221 29.5169 23.0137 30.4814 23.0058 31.4453C22.9822 34.4146 22.9843 37.3844 22.9837 40.3537C22.9816 48.5142 22.9816 56.6747 22.9837 64.8352C22.9837 64.9056 22.9837 64.9755 22.9837 65.0459C22.9831 65.0752 22.99 65.1043 23.0037 65.1306C23.0175 65.1569 23.0377 65.1796 23.0626 65.1967C23.2103 65.3063 23.3575 65.3833 23.5715 65.3833C35.1908 65.3779 46.8094 65.3762 58.4273 65.3782C58.8321 65.3782 59.0104 65.2198 59.0104 64.8618L59.0125 47.4498ZM40.9868 27.7766V27.7866C42.5582 27.7866 44.1296 27.7912 45.7005 27.7866C47.1073 27.7806 48.5137 27.7866 49.92 27.7519C50.6481 27.7348 51.1355 27.2204 51.1476 26.7613C51.1602 26.2877 51.1681 25.8145 51.1476 25.3413C51.1395 25.193 51.0832 25.0508 50.9867 24.9345C50.7033 24.574 50.2854 24.4694 49.8253 24.4317C49.2807 24.3849 48.735 24.3935 48.1898 24.399C47.2682 24.409 46.498 23.6261 46.5175 22.9644C46.528 22.6008 46.5306 22.2282 46.436 21.8652C46.2304 21.0727 45.2489 20.3974 44.2773 20.3637C43.4236 20.334 42.5692 20.3249 41.7149 20.3229C40.3149 20.3194 38.9154 20.3285 37.517 20.4019C37.129 20.4225 36.7699 20.5024 36.4513 20.7182C35.9875 21.0233 35.6642 21.4875 35.5487 22.0145C35.4682 22.3479 35.4703 22.6893 35.4719 23.0262C35.4751 23.6895 34.6455 24.3251 34.1076 24.3703C33.6345 24.4105 33.1613 24.3814 32.6882 24.402C32.3149 24.4176 31.9364 24.4181 31.5794 24.5337C31.1777 24.664 30.9091 24.9169 30.8549 25.2956C30.7834 25.7944 30.8024 26.2982 30.8513 26.8001C30.8981 27.2808 31.2939 27.665 31.8386 27.7198C32.2502 27.7592 32.6636 27.7785 33.0772 27.7776C35.7143 27.7803 38.3508 27.7799 40.9868 27.7766Z" fill="#0D313B"/>
<path d="M9.00337 35.8968C9.00337 28.1088 9.00337 21.6601 9.00044 15.2114C8.99477 15.0201 9.0439 14.831 9.14204 14.6667C9.34274 14.3355 9.51535 13.9908 9.75467 13.6778C10.3813 12.8586 11.2555 12.4525 12.3041 12.3226C13.2128 12.2103 14.1267 12.2056 15.0413 12.198C15.9044 12.1927 16.768 12.2279 17.6305 12.1734C17.7662 12.1647 17.83 12.119 17.8786 11.995C18.4725 10.4941 19.5251 9.41339 21.1974 8.91837C21.7194 8.75327 22.2622 8.66343 22.8094 8.65155C22.9686 8.65155 23.002 8.56671 23.0271 8.45027C23.1763 7.76392 23.4238 7.11267 23.8557 6.53281C24.7439 5.34441 25.9147 4.51938 27.4419 4.1648C27.7853 4.09227 28.1349 4.05308 28.4858 4.04777C29.9264 3.99706 31.3675 3.98672 32.8093 4.01676C33.5553 4.03373 34.3014 4.02378 35.0474 4.04133C35.7934 4.05889 36.5523 4.08522 37.3013 4.16772C38.3007 4.27773 39.0947 4.76338 39.829 5.35202C40.8401 6.16242 41.4545 7.19166 41.75 8.39468C41.8431 8.77443 41.7933 8.72762 42.2041 8.73055C44.6382 8.74869 46.3667 10.3227 46.9249 12.0014C46.9752 12.1518 47.0448 12.2039 47.2134 12.2033C48.3626 12.198 49.5117 12.1945 50.6603 12.2068C51.4058 12.215 52.1507 12.2518 52.8838 12.3864C54.0038 12.5918 54.7785 13.2056 55.3449 14.1049C55.6801 14.6368 55.81 15.1827 55.8089 15.8047C55.7925 26.3554 55.7878 36.906 55.7948 47.4566C55.7948 49.4425 55.806 51.4291 55.7749 53.415C55.7533 54.8093 55.782 56.2037 55.7369 57.5975C55.7129 58.3377 55.7328 59.0796 55.6632 59.8209C55.6105 60.3844 55.2905 60.8285 54.9142 61.244C54.3466 61.8701 53.5684 62.1901 52.7803 62.4903C52.6955 62.5123 52.6076 62.5193 52.5205 62.5108C39.0976 62.5108 25.6752 62.5108 12.2532 62.5108C12.1077 62.5116 11.9638 62.4817 11.8307 62.423C11.3275 62.2036 10.8114 62.0134 10.3737 61.6781C9.96514 61.3675 9.62176 60.9794 9.36322 60.536C9.12917 60.1375 9.11161 59.7022 9.09933 59.2674C9.05837 57.8192 9.0572 56.371 9.04081 54.9223C8.96826 48.1348 9.02853 41.3461 9.00337 35.8968ZM52.452 38.6013H52.4473C52.4473 33.7921 52.4555 28.983 52.4438 24.1744C52.4374 21.3927 52.4842 18.611 52.3514 15.8311C52.3297 15.3741 52.2928 15.3296 51.8101 15.3279C50.273 15.322 48.7359 15.3238 47.1993 15.3162C47.0273 15.3162 46.9536 15.3747 46.9126 15.5256C46.6856 16.3641 46.1882 17.0534 45.5001 17.6198C44.7745 18.2166 43.9589 18.6508 42.9589 18.7099C41.7886 18.7795 40.6184 18.7865 39.4481 18.8228C38.3879 18.8562 37.3265 18.8474 36.2656 18.8556C33.5296 18.8767 30.7929 18.8895 28.0557 18.8445C26.659 18.8211 25.2611 18.8193 23.8638 18.7895C23.3887 18.7795 22.913 18.7737 22.4391 18.7409C22.0102 18.7117 21.569 18.7409 21.1565 18.6087C19.5181 18.0902 18.3941 17.0873 17.8879 15.5332C17.8294 15.3577 17.7446 15.3156 17.5667 15.3091C16.7914 15.2816 16.0155 15.2887 15.2402 15.2828C14.4281 15.277 13.6165 15.2857 12.8049 15.3261C12.5241 15.3401 12.4609 15.3951 12.4539 15.6339C12.4416 15.9598 12.4211 16.2857 12.4152 16.6116C12.3953 17.7339 12.386 18.8562 12.3772 19.9779C12.3509 23.433 12.3532 26.8888 12.3526 30.344C12.3503 39.8398 12.3503 49.3357 12.3526 58.8315C12.3526 58.9134 12.3526 58.9947 12.3526 59.0767C12.352 59.1108 12.3596 59.1447 12.3749 59.1752C12.3902 59.2058 12.4127 59.2322 12.4404 59.2522C12.6048 59.3798 12.7687 59.4693 13.0068 59.4693C25.9389 59.463 38.8702 59.4611 51.8008 59.4634C52.2513 59.4634 52.4497 59.2791 52.4497 58.8625L52.452 38.6013ZM32.3897 15.7088V15.7205C34.1387 15.7205 35.8876 15.7257 37.636 15.7205C39.2018 15.7135 40.767 15.7205 42.3322 15.6801C43.1426 15.6602 43.685 15.0616 43.6985 14.5274C43.7125 13.9762 43.7213 13.4256 43.6985 12.875C43.6895 12.7024 43.6269 12.537 43.5194 12.4016C43.2041 11.9821 42.7389 11.8604 42.2269 11.8165C41.6207 11.7621 41.0133 11.772 40.4066 11.7785C39.3808 11.7902 38.5236 10.8791 38.5453 10.1091C38.557 9.68606 38.5599 9.25248 38.4546 8.83002C38.2258 7.90786 37.1334 7.12203 36.0521 7.08283C35.1018 7.0483 34.151 7.03777 33.2001 7.03543C31.6419 7.03134 30.0843 7.04187 28.5279 7.1273C28.0961 7.15129 27.6964 7.24432 27.3418 7.49534C26.8256 7.85039 26.4658 8.39057 26.3372 9.0038C26.2477 9.39174 26.25 9.78904 26.2518 10.1811C26.2553 10.9529 25.3319 11.6925 24.7333 11.7451C24.2067 11.7919 23.6801 11.758 23.1535 11.782C22.7381 11.8001 22.3168 11.8007 21.9195 11.9353C21.4724 12.0868 21.1734 12.3812 21.1132 12.8218C21.0336 13.4022 21.0547 13.9885 21.1091 14.5725C21.1611 15.1318 21.6017 15.5789 22.2079 15.6427C22.666 15.6885 23.1261 15.711 23.5865 15.7099C26.5215 15.7131 29.4559 15.7127 32.3897 15.7088Z" fill="#0D313B"/>
<path d="M52.452 38.6013H52.4473C52.4473 33.7921 52.4555 28.983 52.4438 24.1744C52.4374 21.3927 52.4842 18.611 52.3514 15.8311C52.3297 15.3741 52.2928 15.3296 51.8101 15.3279C50.273 15.322 48.7359 15.3238 47.1993 15.3162C47.0273 15.3162 46.9536 15.3747 46.9126 15.5256C46.6856 16.3641 46.1882 17.0534 45.5001 17.6198C44.7745 18.2166 43.9589 18.6508 42.9589 18.7099C41.7886 18.7795 40.6184 18.7865 39.4481 18.8228C38.3879 18.8562 37.3265 18.8474 36.2656 18.8556C33.5296 18.8767 30.7929 18.8895 28.0557 18.8445C26.659 18.8211 25.2611 18.8193 23.8638 18.7895C23.3887 18.7795 22.913 18.7737 22.4391 18.7409C22.0102 18.7117 21.569 18.7409 21.1565 18.6087C19.5181 18.0902 18.3941 17.0873 17.8879 15.5332C17.8294 15.3577 17.7446 15.3156 17.5667 15.3091C16.7914 15.2816 16.0155 15.2887 15.2402 15.2828C14.4281 15.277 13.6165 15.2857 12.8049 15.3261C12.5241 15.3401 12.4609 15.3951 12.4539 15.6339C12.4416 15.9598 12.4211 16.2857 12.4152 16.6116C12.3953 17.7339 12.386 18.8562 12.3772 19.9779C12.3509 23.433 12.3532 26.8888 12.3526 30.344C12.3503 39.8398 12.3503 49.3357 12.3526 58.8315V59.0767C12.352 59.1108 12.3596 59.1447 12.3749 59.1752C12.3902 59.2058 12.4127 59.2322 12.4404 59.2522C12.6048 59.3798 12.7687 59.4693 13.0068 59.4693C25.9389 59.463 38.8702 59.4611 51.8008 59.4634C52.2513 59.4634 52.4497 59.2791 52.4497 58.8625L52.452 38.6013Z" fill="#2894B4"/>
<path d="M32.402 43.1114C30.6606 43.1114 28.9187 43.1231 27.1779 43.1061C26.3453 43.0979 25.5127 43.0675 24.6812 43.0031C23.4975 42.9113 22.5864 42.0546 22.5508 41.1061C22.5162 40.174 22.4536 39.2437 22.6865 38.328C23.1458 36.524 24.3091 35.1887 25.9539 34.1958C26.823 33.6663 27.7886 33.3146 28.7946 33.1613C29.2943 33.0852 29.7999 33.0753 30.3031 33.0688C31.4517 33.0542 32.6009 33.046 33.7489 33.0723C34.7928 33.0969 35.8489 33.0922 36.8618 33.3649C38.953 33.9219 40.4966 35.1267 41.52 36.9014C42.0882 37.8868 42.3977 38.9447 42.3977 40.0681C42.3955 40.5599 42.3131 41.0481 42.1537 41.5134C41.8389 42.4467 41.1303 42.9136 40.1005 43.0025C38.5394 43.1377 36.9741 43.1149 35.4095 43.1196C34.4066 43.1237 33.4043 43.1196 32.402 43.1196V43.1114ZM32.0784 40.0757C33.8677 40.0547 36.0479 40.1155 38.2275 40.0365C38.4393 40.0289 38.6505 40.0084 38.8612 39.9897C38.9741 39.9792 39.0613 39.9394 39.0367 39.8083C38.9226 39.2466 38.8114 38.6837 38.4855 38.184C37.7728 37.091 36.7571 36.3877 35.3902 36.1753C34.9391 36.1056 34.4721 36.108 34.0122 36.1062C32.6079 36.1021 31.2036 36.0904 29.7993 36.1337C27.6812 36.1981 25.8977 37.8382 25.8515 39.8042C25.845 40.0751 25.845 40.0757 26.1358 40.0757H32.0784Z" fill="#0D313B"/>
<path d="M38.0975 27.2281C38.1999 28.8015 37.5346 30.0408 36.4293 31.0753C35.5516 31.8944 34.4217 32.3175 33.1958 32.4609C31.3363 32.6779 29.6851 32.2011 28.2966 31.0255C27.41 30.2912 26.8408 29.2433 26.7074 28.0999C26.4944 26.4375 26.9754 24.9613 28.179 23.7068C29.0186 22.8291 30.0853 22.3177 31.3229 22.1269C32.9916 21.8724 34.5352 22.1854 35.9319 23.0836C36.7207 23.5915 37.2192 24.3089 37.6452 25.09C38.0001 25.7437 38.1572 26.4866 38.0975 27.2281V27.2281ZM32.3568 25.1093C30.877 25.0742 30.0005 26.3053 29.97 27.2503C29.9314 28.4205 31.0818 29.4551 32.3755 29.4796C33.9483 29.5095 34.8126 28.1853 34.8278 27.2959C34.8477 26.1163 33.716 25.1216 32.3568 25.1087V25.1093Z" fill="#0D313B"/>
<path d="M32.3804 49.6787C31.137 49.6787 29.8937 49.6723 28.6503 49.684C28.3542 49.684 28.1277 49.6255 27.9101 49.4224C27.6087 49.1433 27.3343 48.8601 27.2383 48.4646C27.0101 47.5213 27.6204 46.7525 28.659 46.6981C30.2389 46.6156 31.8158 46.6021 33.3951 46.6255C34.1914 46.6372 34.9878 46.6636 35.7841 46.6951C36.2066 46.7121 36.6226 46.742 36.9831 47.0099C37.7695 47.5951 37.8344 48.5646 37.1106 49.2188C36.6015 49.6787 36.6016 49.6787 35.8912 49.6787H32.3804Z" fill="#0D313B"/>
<path d="M32.3798 56.2221C31.0481 56.2221 29.7157 56.2163 28.384 56.2274C28.1376 56.2274 27.9744 56.1618 27.8328 55.9787C27.6175 55.7043 27.3717 55.4521 27.2541 55.1191C27.165 54.8799 27.1658 54.6165 27.2564 54.3778C27.5244 53.6534 28.1528 53.2333 29.0317 53.2274C30.5612 53.2175 32.0908 53.2198 33.6203 53.2192C34.5424 53.2192 35.4646 53.2263 36.3868 53.2192C36.5623 53.2192 36.6934 53.2637 36.8039 53.3948C37.0257 53.6552 37.296 53.8787 37.457 54.1847C37.674 54.5972 37.6541 55.0039 37.4248 55.3977C37.2644 55.6738 37.0245 55.8991 36.8151 56.1437C36.7331 56.2391 36.6167 56.2174 36.5096 56.2174C35.1326 56.2213 33.756 56.2229 32.3798 56.2221Z" fill="#0D313B"/>
<path d="M43.7382 49.6492C42.7797 49.6492 41.8213 49.6527 40.8635 49.6492C40.4252 49.6464 39.9876 49.6134 39.5539 49.5503C38.8945 49.4549 38.544 49.0676 38.3901 48.4971C38.2362 47.9266 38.4393 47.4567 38.8816 47.0577C39.2602 46.716 39.7476 46.6762 40.2274 46.658C42.1864 46.5855 44.1478 46.6048 46.1074 46.6276C46.5509 46.6323 46.9991 46.6276 47.4403 46.7113C48.0254 46.8283 48.435 47.1349 48.6217 47.6627C48.8188 48.2168 48.6854 48.7159 48.2893 49.1682C47.9177 49.5901 47.397 49.6363 46.875 49.6428C45.8288 49.6562 44.7826 49.6469 43.7364 49.6469L43.7382 49.6492Z" fill="#0D313B"/>
<path d="M21.5224 49.65C20.0929 49.65 19.1128 49.6536 18.1327 49.65C17.8843 49.6498 17.6362 49.6322 17.3902 49.5974C16.6091 49.485 16.0561 48.8531 16.0789 48.1153C16.1017 47.3639 16.674 46.7853 17.4973 46.6952C18.1451 46.6348 18.7957 46.6092 19.4463 46.6185C20.719 46.6185 21.9922 46.6062 23.2643 46.6261C23.9202 46.6366 24.5832 46.6097 25.2309 46.7379C25.8681 46.8643 26.249 47.2645 26.4099 47.8268C26.5673 48.3797 26.3789 48.8736 25.9471 49.2586C25.6142 49.5553 25.1543 49.5822 24.7142 49.6097C23.503 49.6969 22.2883 49.6337 21.5224 49.65Z" fill="#0D313B"/>
<path d="M21.0478 56.2144C20.1625 56.2144 19.2772 56.2203 18.3925 56.2144C18.0572 56.2115 17.722 56.1659 17.3867 56.1559C16.3762 56.1261 15.7805 55.019 16.2334 54.1367C16.5447 53.531 17.0982 53.3128 17.7781 53.2654C19.0771 53.1741 20.3784 53.1449 21.6792 53.1636C22.7816 53.1788 23.8869 53.1712 24.9852 53.3028C25.8108 53.4017 26.4134 53.9044 26.4772 54.672C26.5357 55.4152 26.1934 55.8932 25.5118 56.0605C25.1911 56.1324 24.8643 56.1736 24.5358 56.1834C23.3737 56.2396 22.2105 56.2185 21.0478 56.2144Z" fill="#0D313B"/>
<path d="M43.7572 56.2141C42.8643 56.2141 41.9714 56.227 41.0791 56.2088C40.5764 56.1989 40.0697 56.1959 39.5712 56.1123C38.8187 55.9853 38.491 55.7237 38.3547 55.114C38.2149 54.4856 38.4378 53.9766 38.9802 53.5886C39.281 53.3739 39.6361 53.2961 40.0048 53.2627C40.814 53.189 41.6256 53.1796 42.4371 53.1802C43.4763 53.1802 44.5155 53.1802 45.5547 53.1861C46.1539 53.1823 46.7527 53.2214 47.3464 53.3031C47.9391 53.3932 48.4329 53.6196 48.6056 54.203C48.7846 54.8074 48.7226 55.3797 48.2153 55.8472C47.9116 56.1269 47.5102 56.155 47.1141 56.1784C45.9959 56.2469 44.876 56.2117 43.7572 56.2141Z" fill="#0D313B"/>
</svg>
