<svg width="72" height="72" viewBox="0 0 72 72" fill="none" xmlns="http://www.w3.org/2000/svg">
<path d="M10.0037 38.8872C10.0037 30.369 10.0037 23.3157 10.0005 16.2625C9.99428 16.0532 10.048 15.8465 10.1554 15.6667C10.3749 15.3044 10.5637 14.9275 10.8254 14.5851C11.5108 13.6891 12.467 13.245 13.6138 13.1029C14.6077 12.98 15.6074 12.9749 16.6077 12.9666C17.5516 12.9608 18.4963 12.9992 19.4396 12.9397C19.5881 12.9301 19.6578 12.8802 19.7109 12.7445C20.3605 11.1029 21.5119 9.9209 23.3409 9.37947C23.9118 9.19889 24.5055 9.10063 25.1041 9.08764C25.2782 9.08764 25.3146 8.99484 25.3422 8.86748C25.5054 8.11678 25.7761 7.40448 26.2484 6.77026C27.2199 5.47045 28.5005 4.56808 30.1708 4.18025C30.5464 4.10092 30.9288 4.05805 31.3126 4.05225C32.8882 3.99678 34.4645 3.98548 36.0414 4.01833C36.8574 4.03689 37.6734 4.02601 38.4893 4.04521C39.3053 4.06441 40.1354 4.09321 40.9545 4.18345C42.0476 4.30376 42.9161 4.83495 43.7193 5.47877C44.8252 6.36515 45.4971 7.49088 45.8203 8.80668C45.9221 9.22203 45.8677 9.17084 46.317 9.17404C48.9793 9.19387 50.8698 10.9154 51.4803 12.7515C51.5354 12.916 51.6115 12.973 51.7959 12.9723C53.0528 12.9666 54.3097 12.9627 55.566 12.9762C56.3813 12.9851 57.196 13.0255 57.9979 13.1726C59.2229 13.3973 60.0702 14.0686 60.6897 15.0523C61.0564 15.634 61.1985 16.2311 61.1972 16.9114C61.1793 28.4512 61.1742 39.9909 61.1819 51.5307C61.1819 53.7028 61.194 55.8755 61.1601 58.0476C61.1364 59.5727 61.1678 61.0978 61.1185 62.6222C61.0923 63.4318 61.114 64.2433 61.0379 65.0542C60.9803 65.6705 60.6302 66.1562 60.2187 66.6106C59.5979 67.2954 58.7467 67.6455 57.8847 67.9738C57.792 67.9979 57.6958 68.0054 57.6005 67.9962C42.9193 67.9962 28.2385 67.9962 13.5581 67.9962C13.3991 67.997 13.2416 67.9643 13.0961 67.9002C12.5457 67.6602 11.9812 67.4522 11.5025 67.0855C11.0556 66.7457 10.6801 66.3212 10.3973 65.8362C10.1413 65.4004 10.1221 64.9242 10.1086 64.4487C10.0638 62.8648 10.0626 61.2808 10.0446 59.6962C9.96528 52.2724 10.0312 44.8473 10.0037 38.8872ZM57.5256 41.8452H57.5205C57.5205 36.5852 57.5295 31.3251 57.5167 26.0657C57.5096 23.0233 57.5608 19.9808 57.4156 16.9402C57.3919 16.4404 57.3516 16.3918 56.8236 16.3898C55.1423 16.3834 53.4611 16.3854 51.7805 16.377C51.5923 16.377 51.5117 16.441 51.4669 16.6062C51.2186 17.5233 50.6746 18.2772 49.922 18.8967C49.1284 19.5494 48.2363 20.0243 47.1425 20.0889C45.8626 20.1651 44.5826 20.1728 43.3026 20.2125C42.143 20.2489 40.9821 20.2393 39.8218 20.2483C36.8292 20.2713 33.836 20.2854 30.8422 20.2361C29.3145 20.2105 27.7856 20.2086 26.2573 20.176C25.7377 20.1651 25.2174 20.1587 24.699 20.1229C24.2299 20.0909 23.7473 20.1229 23.2961 19.9782C21.5042 19.4112 20.2748 18.3143 19.7212 16.6145C19.6572 16.4225 19.5644 16.3764 19.3698 16.3694C18.5219 16.3393 17.6732 16.347 16.8253 16.3406C15.937 16.3342 15.0493 16.3438 14.1617 16.3879C13.8545 16.4033 13.7853 16.4634 13.7777 16.7246C13.7642 17.081 13.7418 17.4375 13.7354 17.794C13.7137 19.0215 13.7034 20.2489 13.6938 21.4758C13.665 25.2549 13.6676 29.0346 13.6669 32.8137C13.6644 43.1998 13.6644 53.5859 13.6669 63.972C13.6669 64.0615 13.6669 64.1505 13.6669 64.2401C13.6662 64.2775 13.6746 64.3145 13.6913 64.3479C13.708 64.3814 13.7326 64.4103 13.7629 64.4321C13.9428 64.5716 14.122 64.6695 14.3824 64.6695C28.5269 64.6627 42.6706 64.6606 56.8133 64.6631C57.3061 64.6631 57.5231 64.4615 57.5231 64.0059L57.5256 41.8452ZM35.5825 16.8065V16.8193C37.4954 16.8193 39.4083 16.825 41.3206 16.8193C43.0332 16.8116 44.7452 16.8193 46.4571 16.7751C47.3435 16.7534 47.9368 16.0987 47.9515 15.5143C47.9668 14.9115 47.9764 14.3093 47.9515 13.707C47.9416 13.5183 47.8732 13.3373 47.7556 13.1893C47.4107 12.7304 46.9019 12.5973 46.3419 12.5493C45.6789 12.4898 45.0146 12.5007 44.3509 12.5077C43.229 12.5205 42.2915 11.5241 42.3152 10.6818C42.328 10.2191 42.3312 9.7449 42.216 9.28283C41.9657 8.27422 40.7709 7.41472 39.5882 7.37184C38.5488 7.33408 37.5089 7.32256 36.4689 7.32C34.7646 7.31552 33.061 7.32704 31.3586 7.42048C30.8863 7.44672 30.4492 7.54848 30.0614 7.82303C29.4967 8.21137 29.1032 8.80219 28.9625 9.47291C28.8652 9.89465 28.8672 10.3265 28.8691 10.7528C28.8691 10.7554 28.8691 10.758 28.8691 10.7606C28.8729 11.6047 27.8631 12.4136 27.2083 12.4712C26.6324 12.5224 26.0564 12.4853 25.4804 12.5115C25.026 12.5314 24.5652 12.532 24.1307 12.6792C23.6417 12.845 23.3147 13.1669 23.2488 13.6488C23.1617 14.2837 23.1848 14.9249 23.2443 15.5636C23.3013 16.1755 23.7832 16.6644 24.4462 16.7342C24.9472 16.7843 25.4505 16.8089 25.954 16.8078C29.1641 16.8112 32.3737 16.8107 35.5825 16.8065Z" fill="#0B2D1F"/>
<path d="M35.5825 16.8065V16.8193C37.4954 16.8193 39.4083 16.825 41.3206 16.8193C43.0332 16.8116 44.7452 16.8193 46.4571 16.7751C47.3435 16.7534 47.9368 16.0987 47.9515 15.5143C47.9668 14.9115 47.9764 14.3093 47.9515 13.707C47.9416 13.5183 47.8732 13.3373 47.7556 13.1893C47.4107 12.7304 46.9019 12.5973 46.3419 12.5493C45.6789 12.4898 45.0146 12.5007 44.3509 12.5077C43.229 12.5205 42.2915 11.5241 42.3152 10.6818C42.328 10.2191 42.3312 9.7449 42.216 9.28283C41.9657 8.27422 40.7709 7.41472 39.5882 7.37184C38.5488 7.33408 37.5089 7.32256 36.4689 7.32C34.7646 7.31552 33.061 7.32704 31.3586 7.42048C30.8863 7.44672 30.4492 7.54848 30.0614 7.82303C29.4967 8.21137 29.1032 8.80219 28.9625 9.47291C28.8652 9.89465 28.8672 10.3265 28.8691 10.7528L28.8691 10.7606C28.8729 11.6047 27.8631 12.4136 27.2083 12.4712C26.6324 12.5224 26.0564 12.4853 25.4804 12.5115C25.026 12.5314 24.5652 12.532 24.1307 12.6792C23.6417 12.845 23.3147 13.1669 23.2488 13.6488C23.1617 14.2837 23.1848 14.9249 23.2443 15.5636C23.3013 16.1755 23.7832 16.6644 24.4462 16.7342C24.9472 16.7843 25.4505 16.8089 25.954 16.8078C29.1641 16.8112 32.3737 16.8107 35.5825 16.8065Z" fill="#22885E"/>
<path d="M35.5959 46.7783C33.6914 46.7783 31.7861 46.7911 29.8822 46.7725C28.9715 46.7635 28.0608 46.7303 27.1514 46.6599C25.8567 46.5594 24.8602 45.6225 24.8212 44.585C24.7834 43.5655 24.715 42.548 24.9697 41.5464C25.4721 39.5733 26.7443 38.1129 28.5433 37.0268C29.4939 36.4477 30.5501 36.0631 31.6505 35.8953C32.197 35.8121 32.7499 35.8013 33.3003 35.7942C34.5566 35.7782 35.8135 35.7693 37.0692 35.7981C38.2109 35.8249 39.3661 35.8198 40.4739 36.1181C42.7612 36.7273 44.4495 38.0451 45.5688 39.9861C46.1902 41.0639 46.5288 42.2209 46.5288 43.4497C46.5264 43.9876 46.4362 44.5216 46.2619 45.0305C45.9176 46.0512 45.1426 46.5619 44.0162 46.6592C42.3087 46.8071 40.5968 46.7821 38.8855 46.7872C37.7885 46.7917 36.6922 46.7872 35.5959 46.7872V46.7783ZM35.242 43.458C37.1991 43.435 39.5837 43.5015 41.9676 43.4151C42.1993 43.4068 42.4303 43.3844 42.6607 43.3639C42.7842 43.3524 42.8796 43.3089 42.8527 43.1656C42.851 43.1571 42.8493 43.1487 42.8476 43.1403C42.7245 42.5343 42.6014 41.928 42.2498 41.389C41.4703 40.1935 40.3593 39.4242 38.8643 39.1919C38.3709 39.1157 37.8602 39.1183 37.3572 39.1164C35.8212 39.1119 34.2853 39.0991 32.7493 39.1465C30.4326 39.2169 28.4819 41.0107 28.4313 43.1611C28.4243 43.4574 28.4243 43.458 28.7424 43.458H35.242Z" fill="#0B2D1F"/>
<path d="M35.242 43.458C37.1991 43.435 39.5837 43.5015 41.9676 43.4151C42.1993 43.4068 42.4303 43.3844 42.6607 43.3639C42.7842 43.3524 42.8796 43.3089 42.8527 43.1656L42.8476 43.1403C42.7245 42.5343 42.6014 41.928 42.2498 41.389C41.4703 40.1935 40.3593 39.4242 38.8643 39.1919C38.3709 39.1157 37.8602 39.1183 37.3572 39.1164C35.8212 39.1119 34.2853 39.0991 32.7493 39.1465C30.4326 39.2169 28.4819 41.0107 28.4313 43.1611C28.4243 43.4574 28.4243 43.458 28.7424 43.458H35.242Z" fill="#22885E"/>
<path d="M41.8254 29.4057C41.9374 31.1266 41.2097 32.4821 40.0008 33.6136C39.0408 34.5096 37.805 34.9723 36.4642 35.1291C34.4304 35.3665 32.6243 34.8449 31.1057 33.5592C30.136 32.756 29.5134 31.6099 29.3675 30.3593C29.1345 28.5411 29.6606 26.9264 30.977 25.5543C31.8954 24.5943 33.0621 24.035 34.4157 23.8263C36.2409 23.5479 37.9292 23.8903 39.4568 24.8727C40.3195 25.4282 40.8648 26.2128 41.3307 27.0672C41.7189 27.7822 41.8907 28.5947 41.8254 29.4057ZM35.5465 27.0883C33.928 27.0499 32.9693 28.3964 32.936 29.43C32.8938 30.71 34.152 31.8415 35.567 31.8684C37.2873 31.901 38.2325 30.4527 38.2492 29.4799C38.2709 28.1897 37.0332 27.1024 35.5465 27.0883Z" fill="#0B2D1F"/>
<path d="M35.5465 27.0883C33.928 27.0499 32.9693 28.3964 32.936 29.43C32.8938 30.71 34.152 31.8415 35.567 31.8684C37.2873 31.901 38.2325 30.4527 38.2492 29.4799C38.2709 28.1897 37.0332 27.1024 35.5465 27.0883Z" fill="#62C89E"/>
<path d="M35.5723 53.961C34.2123 53.961 32.8524 53.954 31.4924 53.9668C31.1686 53.9668 30.9209 53.9028 30.6828 53.6807C30.3532 53.3754 30.0531 53.0657 29.9481 52.6331C29.6985 51.6014 30.366 50.7605 31.502 50.701C33.23 50.6107 34.9547 50.596 36.682 50.6216C37.5531 50.6344 38.4241 50.6632 39.2951 50.6978C39.7572 50.7163 40.2122 50.749 40.6064 51.0421C41.4665 51.6821 41.5376 52.7425 40.7459 53.458C40.1891 53.961 40.1891 53.961 39.4122 53.961H35.5723Z" fill="#0B2D1F"/>
<path d="M35.5716 61.1179C34.115 61.1179 32.6578 61.1115 31.2012 61.1236C30.9317 61.1236 30.7532 61.052 30.5983 60.8517C30.3628 60.5515 30.094 60.2757 29.9654 59.9115C29.8679 59.6499 29.8688 59.3617 29.9679 59.1007C30.261 58.3084 30.9484 57.8489 31.9096 57.8425C33.5826 57.8316 35.2555 57.8341 36.9284 57.8335C37.937 57.8335 38.9456 57.8412 39.9542 57.8335C40.1462 57.8335 40.2896 57.8821 40.4105 58.0255C40.6531 58.3103 40.9488 58.5548 41.1248 58.8895C41.3622 59.3407 41.3404 59.7854 41.0896 60.2162C40.9142 60.5182 40.6518 60.7646 40.4227 61.0321C40.3331 61.1364 40.2057 61.1128 40.0886 61.1128C38.5825 61.117 37.0769 61.1187 35.5716 61.1179Z" fill="#0B2D1F"/>
<path d="M47.9948 53.9291C46.9465 53.9291 45.8982 53.9329 44.8506 53.9291C44.3712 53.926 43.8927 53.8899 43.4183 53.8209C42.6971 53.7166 42.3137 53.2929 42.1454 52.6689C41.9771 52.0449 42.1991 51.531 42.683 51.0946C43.097 50.7208 43.6301 50.6773 44.1549 50.6575C46.2976 50.5781 48.4428 50.5992 50.5861 50.6242C51.0712 50.6293 51.5615 50.6242 52.044 50.7157C52.684 50.8437 53.132 51.179 53.3361 51.7563C53.5518 52.3624 53.4059 52.9083 52.9726 53.403C52.5662 53.8644 51.9966 53.915 51.4258 53.922C50.2815 53.9367 49.1372 53.9265 47.9929 53.9265L47.9948 53.9291Z" fill="#0B2D1F"/>
<path d="M23.6963 53.9297C22.1328 53.9297 21.0609 53.9336 19.9889 53.9297C19.7172 53.9294 19.4458 53.9102 19.1768 53.8721C18.3224 53.7492 17.7176 53.0581 17.7426 52.251C17.7675 51.4293 18.3934 50.7964 19.2939 50.6978C20.0025 50.6318 20.7141 50.6038 21.4257 50.614C22.8176 50.614 24.2102 50.6005 25.6016 50.6223C26.319 50.6338 27.0441 50.6044 27.7525 50.7445C28.4495 50.8828 28.8661 51.3205 29.0421 51.9355C29.2143 52.5403 29.0082 53.0805 28.5359 53.5016C28.1717 53.826 27.6687 53.8555 27.1874 53.8856C25.8627 53.9809 24.5341 53.9118 23.6963 53.9297Z" fill="#0B2D1F"/>
<path d="M23.1773 61.1094C22.209 61.1094 21.2407 61.1158 20.2731 61.1094C19.9063 61.1062 19.5396 61.0562 19.1729 61.0454C18.0677 61.0127 17.4162 59.8019 17.9115 58.8368C18.252 58.1744 18.8574 57.9357 19.6011 57.8838C21.0218 57.784 22.4452 57.752 23.8678 57.7725C25.0736 57.7891 26.2825 57.7808 27.4837 57.9248C28.3868 58.033 29.0459 58.5827 29.1157 59.4224C29.1797 60.2351 28.8053 60.758 28.0597 60.941C27.709 61.0197 27.3515 61.0647 26.9922 61.0754C25.7212 61.1369 24.4489 61.1138 23.1773 61.1094Z" fill="#0B2D1F"/>
<path d="M48.0157 61.1094C47.0391 61.1094 46.0624 61.1234 45.0865 61.1036C44.5367 61.0927 43.9825 61.0895 43.4372 60.998C42.6142 60.8591 42.2558 60.573 42.1067 59.9062C41.9537 59.2188 42.1976 58.6621 42.7908 58.2377C43.1198 58.0029 43.5083 57.9178 43.9115 57.8813C44.7966 57.8006 45.6842 57.7904 46.5719 57.791C47.7085 57.791 48.8451 57.791 49.9817 57.7974C50.6371 57.7933 51.292 57.8361 51.9413 57.9254C52.5896 58.024 53.1298 58.2717 53.3186 58.9097C53.5144 59.5708 53.4466 60.1967 52.8917 60.7081C52.5595 61.014 52.1205 61.0447 51.6872 61.0703C50.4642 61.1452 49.2393 61.1068 48.0157 61.1094Z" fill="#0B2D1F"/>
</svg>
