<svg width="72" height="72" viewBox="0 0 72 72" fill="none" xmlns="http://www.w3.org/2000/svg">
<path d="M18.5951 42.9029C18.5351 42.9029 18.4718 42.8963 18.4118 42.8829C17.9185 42.7863 17.5985 42.3063 17.6952 41.813L20.6216 27.3212C20.7082 26.8979 21.0848 26.5913 21.5181 26.5913H50.4851C50.9184 26.5913 51.295 26.8979 51.3817 27.3212L54.308 41.803C54.4047 42.2963 54.0847 42.7763 53.5914 42.8763C53.0948 42.9763 52.6149 42.6563 52.5149 42.163L49.7352 28.4145H22.2714L19.4917 42.1697C19.405 42.5963 19.0317 42.9029 18.5951 42.9029Z" fill="#0D313B"/>
<path d="M28.3375 60.0011H15.1389C14.559 60.0045 14.1257 59.4745 14.2423 58.9079L16.4021 48.229C16.6454 47.0392 18.4386 47.4025 18.1953 48.5957L16.2521 58.1813H28.3375C29.5574 58.1813 29.5574 60.0011 28.3375 60.0011Z" fill="#0D313B"/>
<path d="M56.8712 60.0012H43.6626C42.4427 60.0012 42.4427 58.1814 43.6626 58.1814H55.7546L53.8115 48.5924C53.7115 48.0991 54.0282 47.6192 54.5248 47.5159C55.0214 47.4159 55.5047 47.7358 55.6047 48.2291L57.7678 58.9113C57.8844 59.4746 57.4511 60.0045 56.8712 60.0045V60.0012Z" fill="#0D313B"/>
<path d="M20.8849 49.3258H4.91324C4.40996 49.3258 4 48.9192 4 48.4159V46.3028C4.00333 42.9198 6.75304 40.1801 10.1427 40.1768H15.6521C19.0451 40.1801 21.7948 42.9198 21.7981 46.3028V48.4192C21.7948 48.9225 21.3882 49.3258 20.8849 49.3258ZM5.82981 47.506H19.9683V46.3028C19.9683 43.9264 18.0352 42.0032 15.6521 41.9999H10.1427C7.76294 42.0032 5.82981 43.9264 5.82981 46.3028V47.506Z" fill="#0D313B"/>
<path d="M5.82981 47.506H19.9683V46.3028C19.9683 43.9264 18.0352 42.0032 15.6521 41.9999H10.1427C7.76294 42.0032 5.82981 43.9264 5.82981 46.3028V47.506Z" fill="#2894B4"/>
<path d="M12.8991 38.8535C10.9527 38.8535 9.1995 37.6836 8.45625 35.8938C7.70966 34.1006 8.12295 32.0375 9.49614 30.6643C10.8727 29.2945 12.9424 28.8845 14.7389 29.6244C16.5354 30.3677 17.7086 32.1175 17.7086 34.0573C17.7053 36.7037 15.5522 38.8501 12.8991 38.8535ZM12.8991 31.0843C11.6926 31.0843 10.606 31.8075 10.1427 32.9207C9.68279 34.0306 9.93609 35.3105 10.7893 36.1604C11.6426 37.0103 12.9258 37.2636 14.039 36.8037C15.1522 36.3437 15.8788 35.2605 15.8788 34.0573C15.8788 32.4175 14.5456 31.0876 12.8991 31.0843Z" fill="#0D313B"/>
<path d="M67.0835 49.3258H51.1151C50.6085 49.3258 50.2019 48.9192 50.2019 48.4159V46.3028C50.2052 42.9198 52.9549 40.1801 56.3446 40.1768H61.854C65.247 40.1801 67.9934 42.9198 68 46.3028V48.4192C67.9967 48.9225 67.5901 49.3258 67.0835 49.3258ZM52.0284 47.506H66.1702V46.3028C66.1669 43.9264 64.2371 42.0032 61.854 41.9999H56.3446C53.9615 42.0032 52.0317 43.9264 52.0284 46.3028V47.506Z" fill="#0D313B"/>
<path d="M52.0284 47.506H66.1702V46.3028C66.1669 43.9264 64.2371 42.0032 61.854 41.9999H56.3446C53.9615 42.0032 52.0317 43.9264 52.0284 46.3028V47.506Z" fill="#2894B4"/>
<path d="M59.1009 38.8533C57.1545 38.8533 55.4013 37.6835 54.6547 35.8937C53.9115 34.1005 54.3214 32.0374 55.6979 30.6675C57.0745 29.2943 59.1409 28.8844 60.9407 29.6243C62.7372 30.3676 63.9104 32.1174 63.9104 34.0572C63.9071 36.7036 61.754 38.85 59.1009 38.8533ZM59.1009 31.0842C57.8944 31.0842 56.8078 31.8074 56.3445 32.9206C55.8846 34.0305 56.1379 35.307 56.9911 36.1603C57.8444 37.0102 59.1276 37.2635 60.2408 36.8036C61.354 36.3436 62.0806 35.2604 62.0806 34.0572C62.0773 32.4173 60.7441 31.0875 59.1009 31.0842Z" fill="#0D313B"/>
<path d="M43.9192 28.0646H27.9508C27.4442 28.0646 27.0376 27.6579 27.0376 27.1547V25.0416C27.0409 21.6586 29.7906 18.9189 33.1803 18.9155H38.6897C42.0827 18.9189 44.8291 21.6586 44.8357 25.0416V27.158C44.8324 27.6613 44.4258 28.0646 43.9192 28.0646ZM28.8641 26.2448H43.0059V25.0416C43.0026 22.6651 41.0728 20.742 38.6897 20.7387H33.1803C30.7972 20.742 28.8674 22.6651 28.8641 25.0416V26.2448Z" fill="#0D313B"/>
<path d="M28.8641 26.2448H43.0059V25.0416C43.0026 22.6651 41.0728 20.742 38.6897 20.7387H33.1803C30.7972 20.742 28.8674 22.6651 28.8641 25.0416V26.2448Z" fill="#2894B4"/>
<path d="M35.9366 17.5926C33.9902 17.5926 32.237 16.4227 31.4904 14.6329C30.7472 12.8398 31.1571 10.7766 32.5336 9.40679C33.9102 8.0336 35.9766 7.62364 37.7764 8.36357C39.5729 9.10682 40.7461 10.8566 40.7461 12.7964C40.7428 15.4428 38.5897 17.5893 35.9366 17.5926ZM35.9366 9.82341C34.7301 9.82341 33.6435 10.5467 33.1802 11.6599C32.7203 12.7698 32.9736 14.0463 33.8268 14.8995C34.6801 15.7495 35.9633 16.0028 37.0765 15.5428C38.1897 15.0829 38.9163 13.9996 38.9163 12.7964C38.913 11.1566 37.5798 9.82675 35.9366 9.82341Z" fill="#0D313B"/>
<path d="M43.9825 63.9038H28.0142C27.5109 63.9038 27.101 63.4972 27.101 62.9939V60.8775C27.1043 57.4945 29.854 54.7548 33.2436 54.7515H38.7564C42.146 54.7548 44.8958 57.4945 44.8991 60.8775V62.9939C44.8991 63.4972 44.4891 63.9038 43.9825 63.9038ZM28.9274 62.0807H43.0693V60.8775C43.0659 58.5011 41.1361 56.5779 38.7564 56.5746H33.2436C30.8606 56.5779 28.9308 58.5011 28.9274 60.8775V62.0807Z" fill="#0D313B"/>
<path d="M28.9274 62.0807H43.0693V60.8775C43.0659 58.5011 41.1361 56.5779 38.7564 56.5746H33.2436C30.8606 56.5779 28.9308 58.5011 28.9274 60.8775V62.0807Z" fill="#2894B4"/>
<path d="M36.0001 53.4318C34.0536 53.4318 32.3005 52.262 31.5539 50.4688C30.8106 48.679 31.2239 46.6159 32.5971 45.2427C33.9736 43.8695 36.0434 43.4596 37.8399 44.2028C39.6364 44.9461 40.8096 46.6959 40.8096 48.6357C40.8063 51.2821 38.6531 53.4285 36.0001 53.4318ZM36.0001 45.666C34.7936 45.666 33.707 46.3893 33.2437 47.4991C32.7838 48.609 33.0371 49.8889 33.8903 50.7388C34.7436 51.5887 36.0268 51.8453 37.14 51.3821C38.2532 50.9254 38.9798 49.8389 38.9798 48.6357C38.9798 46.9959 37.6433 45.666 36.0001 45.666Z" fill="#0D313B"/>
</svg>
