<svg width="72" height="72" viewBox="0 0 72 72" fill="none" xmlns="http://www.w3.org/2000/svg">
<path fill-rule="evenodd" clip-rule="evenodd" d="M24 47.8193C32.7955 43.3689 39 32.5902 39 20C39 16.4936 38.5188 13.1278 37.6344 10H61V65H24V47.8193Z" fill="#2894B4"/>
<path d="M59.2856 67.9999H25.0001C23.788 67.9986 22.626 67.5165 21.7689 66.6595C20.9118 65.8024 20.4298 64.6405 20.4286 63.4284V49.7142H25.0001V63.4284H59.2856V13.1427H38.7143V8.57129H59.2856C60.4978 8.5725 61.6599 9.05452 62.5168 9.91156C63.3739 10.7686 63.8559 11.9307 63.8571 13.1427V63.4284C63.8559 64.6405 63.3739 65.8024 62.5168 66.6595C61.6599 67.5165 60.4978 67.9986 59.2856 67.9999Z" fill="#0D313B"/>
<path d="M38.7142 22.2856H54.7142V26.8571H38.7142V22.2856ZM36.4285 33.7143H54.7142V38.2856H36.4285V33.7143ZM34.1429 45.1428H54.7142V49.7143H34.1429V45.1428ZM20.4285 42.8571C17.3985 42.8541 14.4933 41.6491 12.3507 39.5064C10.2081 37.3637 9.00302 34.4586 9 31.4286V6.28572H13.5714V31.4286C13.5714 33.2471 14.2939 34.9914 15.5798 36.2773C16.8658 37.5632 18.6099 38.2856 20.4285 38.2856C22.2472 38.2856 23.9913 37.5632 25.2773 36.2773C26.5632 34.9914 27.2857 33.2471 27.2857 31.4286V10.8571C27.2857 10.2509 27.0449 9.66954 26.6162 9.24089C26.1876 8.81224 25.6062 8.57142 25 8.57142C24.3938 8.57142 23.8124 8.81224 23.3838 9.24089C22.955 9.66954 22.7142 10.2509 22.7142 10.8571V33.7143H18.1428V10.8571C18.1428 9.03851 18.8653 7.29437 20.1512 6.00841C21.4373 4.72245 23.1814 4 25 4C26.8187 4 28.5628 4.72245 29.8487 6.00841C31.1347 7.29437 31.8572 9.03851 31.8572 10.8571V31.4286C31.854 34.4586 30.649 37.3637 28.5065 39.5064C26.3638 41.6491 23.4587 42.8541 20.4285 42.8571Z" fill="#0D313B"/>
</svg>
