<svg width="72" height="72" viewBox="0 0 72 72" fill="none" xmlns="http://www.w3.org/2000/svg">
<ellipse cx="19.5" cy="24" rx="5.5" ry="6" fill="#E60000"/>
<circle cx="41.6892" cy="22.2457" r="6.40004" fill="#E60000"/>
<path d="M61.7342 46.343C61.7342 44.8336 61.1978 43.5426 60.1249 42.4697C59.0521 41.3969 57.761 40.8604 56.2517 40.8604C54.7423 40.8604 53.4512 41.3969 52.3784 42.4697C51.3055 43.5426 50.7691 44.8336 50.7691 46.343C50.7691 47.8523 51.3055 49.1434 52.3784 50.2163C53.4512 51.2891 54.7423 51.8255 56.2517 51.8255C57.761 51.8255 59.0521 51.2891 60.1249 50.2163C61.1978 49.1434 61.7342 47.8523 61.7342 46.343ZM68 56.5249C68 56.9491 67.845 57.3162 67.535 57.6263C67.2249 57.9363 66.8578 58.0913 66.4336 58.0913C65.993 58.0913 65.6259 57.9363 65.3322 57.6263L61.1346 53.4409C59.6742 54.4526 58.0466 54.9584 56.2517 54.9584C55.085 54.9584 53.9693 54.732 52.9046 54.2792C51.8399 53.8264 50.9221 53.2145 50.1511 52.4435C49.3801 51.6726 48.7682 50.7547 48.3154 49.69C47.8626 48.6253 47.6362 47.5097 47.6362 46.343C47.6362 45.1763 47.8626 44.0606 48.3154 42.9959C48.7682 41.9312 49.3801 41.0134 50.1511 40.2424C50.9221 39.4714 51.8399 38.8595 52.9046 38.4067C53.9693 37.9539 55.085 37.7275 56.2517 37.7275C57.4183 37.7275 58.534 37.9539 59.5987 38.4067C60.6634 38.8595 61.5813 39.4714 62.3522 40.2424C63.1232 41.0134 63.7351 41.9312 64.1879 42.9959C64.6407 44.0606 64.8671 45.1763 64.8671 46.343C64.8671 48.1379 64.3613 49.7655 63.3496 51.2259L67.5472 55.4235C67.8491 55.7253 68 56.0925 68 56.5249Z" fill="#4D0000"/>
<path fill-rule="evenodd" clip-rule="evenodd" d="M51.6531 22.4188C51.6531 27.7371 47.7005 32.0608 42.8203 32.0608C37.9602 32.0608 34.0076 27.7574 33.9874 22.4594C33.9874 17.2425 37.9803 13 42.8203 13C47.7207 13 51.6531 17.1816 51.6531 22.4188ZM27.1308 24.0427C27.1308 28.7318 23.7025 32.5277 19.4474 32.5277C15.2125 32.5277 11.7641 28.7521 11.7641 24.063C11.7439 19.5363 15.2327 15.781 19.4474 15.781C23.7025 15.781 27.1308 19.4754 27.1308 24.0427ZM37.6778 22.4391C37.6778 25.8696 40.0373 28.5085 42.8203 28.5085C45.6234 28.5085 47.9627 25.829 47.9627 22.4188C47.9627 19.0897 45.6436 16.5523 42.8203 16.5523C40.0171 16.5523 37.6778 19.1303 37.6778 22.4391ZM15.2327 24.063C15.2327 26.8237 17.1686 29.0159 19.4474 29.0159C21.7464 29.0159 23.6824 26.8237 23.6824 24.0427C23.6824 21.3835 21.7867 19.2724 19.4474 19.2724C17.1485 19.2724 15.2327 21.4241 15.2327 24.063ZM24.0252 51.1825H8.35594C5.45198 51.1825 4 49.9443 4 47.5084C4 40.7691 10.8969 34.6388 19.4273 34.6388C22.5732 34.6388 25.7595 35.4913 28.3206 37.0747C27.2115 37.8054 26.3645 38.658 25.6789 39.6526C23.9445 38.6783 21.6859 38.1099 19.4273 38.1099C13.0345 38.1099 7.62995 42.5351 7.62995 47.1836C7.62995 47.5287 7.79128 47.7114 8.17444 47.7114H22.3111C22.1699 49.0511 22.9161 50.5329 24.0252 51.1825ZM47.3433 51.1825H30.2566C26.7678 51.1825 25.0739 50.0661 25.0739 47.6708C25.0739 42.0885 32.0111 34.6591 42.8203 34.6591C46.6007 34.6591 49.9076 35.5679 52.6097 36.9886C51.2869 37.5136 50.1003 38.3077 49.1174 39.3035C47.3144 38.6304 45.2083 38.2114 42.8203 38.2114C33.9471 38.2114 28.966 43.9966 28.966 47.1024C28.966 47.4678 29.1475 47.6302 29.6113 47.6302H46.249C46.3949 48.9 46.7743 50.0988 47.3433 51.1825Z" fill="#4D0000"/>
<path d="M33.9874 22.4594H33.9103L33.9103 22.4596L33.9874 22.4594ZM11.7641 24.063H11.8412L11.8412 24.0626L11.7641 24.063ZM24.0252 51.1825V51.2596H24.3096L24.0642 51.1159L24.0252 51.1825ZM28.3206 37.0747L28.3631 37.1391L28.464 37.0726L28.3612 37.0091L28.3206 37.0747ZM25.6789 39.6526L25.6411 39.7199L25.7024 39.7544L25.7424 39.6964L25.6789 39.6526ZM22.3111 47.7114L22.3878 47.7195L22.3968 47.6342H22.3111V47.7114ZM47.3433 51.1825V51.2596H47.4709L47.4116 51.1466L47.3433 51.1825ZM52.6097 36.9886L52.6381 37.0603L52.7941 36.9984L52.6456 36.9203L52.6097 36.9886ZM49.1174 39.3035L49.0904 39.3757L49.1372 39.3932L49.1723 39.3577L49.1174 39.3035ZM46.249 47.6302L46.3257 47.6214L46.3178 47.553H46.249V47.6302ZM42.8203 32.1379C47.7494 32.1379 51.7303 27.7732 51.7303 22.4188H51.576C51.576 27.7011 47.6517 31.9837 42.8203 31.9837V32.1379ZM33.9103 22.4596C33.9306 27.7937 37.9115 32.1379 42.8203 32.1379V31.9837C38.0089 31.9837 34.0846 27.7211 34.0645 22.4591L33.9103 22.4596ZM42.8203 12.9229C37.933 12.9229 33.9103 17.2048 33.9103 22.4594H34.0645C34.0645 17.2802 38.0277 13.0771 42.8203 13.0771V12.9229ZM51.7303 22.4188C51.7303 17.1437 47.7678 12.9229 42.8203 12.9229V13.0771C47.6736 13.0771 51.576 17.2195 51.576 22.4188H51.7303ZM19.4474 32.6048C23.7522 32.6048 27.208 28.7669 27.208 24.0427H27.0537C27.0537 28.6966 23.6529 32.4505 19.4474 32.4505V32.6048ZM11.6869 24.063C11.6869 28.7876 15.1632 32.6048 19.4474 32.6048V32.4505C15.2618 32.4505 11.8412 28.7165 11.8412 24.063H11.6869ZM19.4474 15.7038C15.1849 15.7038 11.6666 19.4991 11.6869 24.0633L11.8412 24.0626C11.8212 19.5735 15.2804 15.8581 19.4474 15.8581V15.7038ZM27.208 24.0427C27.208 19.4382 23.7504 15.7038 19.4474 15.7038V15.8581C23.6547 15.8581 27.0537 19.5126 27.0537 24.0427H27.208ZM42.8203 28.4313C40.0903 28.4313 37.755 25.8382 37.755 22.4391H37.6007C37.6007 25.901 39.9843 28.5856 42.8203 28.5856V28.4313ZM47.8855 22.4188C47.8855 25.7983 45.5698 28.4313 42.8203 28.4313V28.5856C45.677 28.5856 48.0398 25.8597 48.0398 22.4188H47.8855ZM42.8203 16.6295C45.5926 16.6295 47.8855 19.1234 47.8855 22.4188H48.0398C48.0398 19.056 45.6945 16.4752 42.8203 16.4752V16.6295ZM37.755 22.4391C37.755 19.1637 40.0684 16.6295 42.8203 16.6295V16.4752C39.9659 16.4752 37.6007 19.0969 37.6007 22.4391H37.755ZM19.4474 28.9388C17.2217 28.9388 15.3098 26.7923 15.3098 24.063H15.1555C15.1555 26.855 17.1156 29.0931 19.4474 29.0931V28.9388ZM23.6052 24.0427C23.6052 26.7923 21.6934 28.9388 19.4474 28.9388V29.0931C21.7994 29.0931 23.7595 26.855 23.7595 24.0427H23.6052ZM19.4474 19.3495C21.736 19.3495 23.6052 21.4175 23.6052 24.0427H23.7595C23.7595 21.3495 21.8375 19.1953 19.4474 19.1953V19.3495ZM15.3098 24.063C15.3098 21.4574 17.1998 19.3495 19.4474 19.3495V19.1953C17.0971 19.1953 15.1555 21.3908 15.1555 24.063H15.3098ZM8.35594 51.2596H24.0252V51.1054H8.35594V51.2596ZM3.92286 47.5084C3.92286 48.7421 4.29118 49.6851 5.03917 50.3178C5.78472 50.9484 6.89478 51.2596 8.35594 51.2596V51.1054C6.91313 51.1054 5.84523 50.7975 5.1388 50.2C4.43481 49.6046 4.07714 48.7105 4.07714 47.5084H3.92286ZM19.4273 34.5616C10.8664 34.5616 3.92286 40.7153 3.92286 47.5084H4.07714C4.07714 40.8229 10.9274 34.7159 19.4273 34.7159V34.5616ZM28.3612 37.0091C25.7869 35.4176 22.5864 34.5616 19.4273 34.5616V34.7159C22.5601 34.7159 25.7321 35.5651 28.2801 37.1403L28.3612 37.0091ZM25.7424 39.6964C26.4225 38.7098 27.2624 37.8643 28.3631 37.1391L28.2782 37.0103C27.1606 37.7466 26.3065 38.6062 25.6153 39.6089L25.7424 39.6964ZM19.4273 38.1871C21.6741 38.1871 23.9195 38.7527 25.6411 39.7199L25.7166 39.5854C23.9696 38.6039 21.6978 38.0328 19.4273 38.0328V38.1871ZM7.70709 47.1836C7.70709 44.8898 9.04126 42.6418 11.179 40.9643C13.3157 39.2875 16.2483 38.1871 19.4273 38.1871V38.0328C16.2135 38.0328 13.2474 39.1449 11.0837 40.8429C8.92093 42.5401 7.5528 44.8289 7.5528 47.1836H7.70709ZM8.17444 47.6342C7.99379 47.6342 7.88138 47.5911 7.81323 47.5225C7.74502 47.4539 7.70709 47.3455 7.70709 47.1836H7.5528C7.5528 47.3668 7.59554 47.5223 7.70378 47.6313C7.81209 47.7403 7.97193 47.7885 8.17444 47.7885V47.6342ZM22.3111 47.6342H8.17444V47.7885H22.3111V47.6342ZM24.0642 51.1159C22.9819 50.4821 22.2497 49.0299 22.3878 47.7195L22.2343 47.7033C22.0901 49.0723 22.8502 50.5838 23.9862 51.2491L24.0642 51.1159ZM30.2566 51.2596H47.3433V51.1054H30.2566V51.2596ZM24.9967 47.6708C24.9967 48.8894 25.4293 49.7936 26.3139 50.3889C27.1924 50.9802 28.5067 51.2596 30.2566 51.2596V51.1054C28.5177 51.1054 27.2406 50.8266 26.4 50.2609C25.5654 49.6991 25.151 48.8475 25.151 47.6708H24.9967ZM42.8203 34.5819C37.3976 34.5819 32.9437 36.4456 29.8444 39.0122C26.7474 41.5769 24.9967 44.8497 24.9967 47.6708H25.151C25.151 44.9096 26.8689 41.6766 29.9428 39.131C33.0145 36.5873 37.4337 34.7362 42.8203 34.7362V34.5819ZM52.6456 36.9203C49.9324 35.4938 46.6133 34.5819 42.8203 34.5819V34.7362C46.5882 34.7362 49.8827 35.642 52.5738 37.0569L52.6456 36.9203ZM49.1723 39.3577C50.1478 38.3694 51.3255 37.5813 52.6381 37.0603L52.5812 36.9169C51.2484 37.4459 50.0528 38.246 49.0625 39.2493L49.1723 39.3577ZM42.8203 38.2886C45.1991 38.2886 47.2961 38.706 49.0904 39.3757L49.1444 39.2312C47.3327 38.5549 45.2174 38.1343 42.8203 38.1343V38.2886ZM29.0431 47.1024C29.0431 46.345 29.3475 45.4152 29.9485 44.4435C30.5489 43.4729 31.4424 42.4653 32.6131 41.5531C34.954 39.7291 38.4009 38.2886 42.8203 38.2886V38.1343C38.3664 38.1343 34.8862 39.5864 32.5183 41.4314C31.3345 42.3537 30.4282 43.3747 29.8173 44.3624C29.2071 45.3489 28.8888 46.3069 28.8888 47.1024H29.0431ZM29.6113 47.553C29.3852 47.553 29.2465 47.5128 29.1641 47.4441C29.0853 47.3783 29.0431 47.2732 29.0431 47.1024H28.8888C28.8888 47.297 28.9374 47.4558 29.0653 47.5625C29.1896 47.6663 29.3735 47.7073 29.6113 47.7073V47.553ZM46.249 47.553H29.6113V47.7073H46.249V47.553ZM47.4116 51.1466C46.8469 50.0712 46.4704 48.8816 46.3257 47.6214L46.1724 47.639C46.3193 48.9185 46.7016 50.1264 47.275 51.2184L47.4116 51.1466Z" fill="#4D0000"/>
</svg>
