<svg width="72" height="72" viewBox="0 0 72 72" fill="none" xmlns="http://www.w3.org/2000/svg">
<path d="M67.746 21.8843L60.4535 12.4406C60.3457 12.3 60.2145 12.1922 60.0551 12.1125C59.8958 12.0375 59.7317 12 59.5536 12C59.3802 12 59.2115 12.0375 59.0522 12.1125C58.8975 12.1922 58.7616 12.3 58.6538 12.4406L51.3472 21.8843C51.0613 22.2592 51.0191 22.6576 51.23 23.0794C51.4362 23.5012 51.7737 23.7168 52.2471 23.7168H54.7404V44.2212C54.7404 44.5352 54.8529 44.807 55.0731 45.0273C55.2934 45.2523 55.5652 45.3601 55.8793 45.3601H63.1952C63.5092 45.3601 63.7764 45.2523 64.0013 45.0273C64.2216 44.807 64.3341 44.5352 64.3341 44.2212V23.7168H66.8368C67.3102 23.7215 67.657 23.5106 67.8679 23.0841C68.0788 22.6576 68.0366 22.2592 67.746 21.8843ZM63.1952 21.4391C62.8812 21.4391 62.6141 21.5515 62.3891 21.7718C62.1688 21.9968 62.0564 22.2639 62.0564 22.5779V43.0823H57.0181V22.5779C57.0181 22.2639 56.9056 21.9968 56.6807 21.7718C56.4604 21.5515 56.1933 21.4391 55.8793 21.4391H54.567L59.5536 14.9901L64.5497 21.4391H63.1952Z" fill="#0B2D1F"/>
<path d="M63.1952 21.4391C62.8812 21.4391 62.6141 21.5515 62.3891 21.7718C62.1688 21.9968 62.0564 22.2639 62.0564 22.5779V43.0823H57.0181V22.5779C57.0181 22.2639 56.9056 21.9968 56.6807 21.7718C56.4604 21.5515 56.1933 21.4391 55.8793 21.4391H54.567L59.5536 14.9901L64.5497 21.4391H63.1952Z" fill="#62C89E"/>
<path d="M17.2834 44.179V23.6699H19.7861C20.2595 23.6699 20.5969 23.459 20.8032 23.0325C21.0141 22.6107 20.9719 22.2124 20.686 21.8374L13.356 12.4406C13.2482 12.3 13.1169 12.1922 12.9576 12.1125C12.7982 12.0375 12.6342 12 12.4561 12C12.2827 12 12.114 12.0375 11.9546 12.1125C11.8 12.1922 11.6641 12.3 11.5563 12.4406L4.24967 21.8843C3.96378 22.2592 3.9216 22.6576 4.1325 23.0794C4.33872 23.5012 4.68085 23.7168 5.14952 23.7168H7.64285V44.2212C7.64285 44.5352 7.75533 44.807 7.97561 45.0273C8.20057 45.2523 8.46771 45.3601 8.78172 45.3601H16.1446C16.2992 45.3601 16.4492 45.3319 16.5898 45.271C16.7351 45.2101 16.8569 45.1257 16.9647 45.0132C17.0725 44.9008 17.1522 44.7742 17.2084 44.6289C17.2647 44.4836 17.2881 44.3337 17.2834 44.179ZM15.0057 22.5311V43.0401H9.9206V22.5311C9.9206 22.217 9.80811 21.9499 9.58784 21.7249C9.36288 21.5047 9.09573 21.3922 8.78172 21.3922H7.42726L12.4561 14.9901L17.4662 21.4391H16.1446C15.8305 21.4391 15.5634 21.5515 15.3384 21.7718C15.1182 21.9968 15.0057 22.2639 15.0057 22.5779V22.5311Z" fill="#0B2D1F"/>
<path d="M15.0057 22.5779V43.0401H9.9206V22.5311C9.9206 22.217 9.80811 21.9499 9.58784 21.7249C9.36288 21.5047 9.09573 21.3922 8.78172 21.3922H7.42726L12.4561 14.9901L17.4662 21.4391H16.1446C15.8305 21.4391 15.5634 21.5515 15.3384 21.7718C15.1182 21.9968 15.0057 22.2639 15.0057 22.5779Z" fill="#62C89E"/>
<path d="M35.9501 39.3029C41.4757 39.3029 45.951 34.4395 45.951 28.4573C45.951 22.5664 41.4985 17.8628 35.9501 17.8628C30.4702 17.8628 25.9493 22.6349 25.9493 28.5029C25.9722 34.4623 30.4246 39.3029 35.9501 39.3029ZM35.9501 35.3071C32.7992 35.3071 30.1277 32.3389 30.1277 28.4801C30.1277 24.7583 32.7764 21.8586 35.9501 21.8586C39.1467 21.8586 41.7725 24.7127 41.7725 28.4573C41.7725 32.2932 39.1239 35.3071 35.9501 35.3071ZM21.7252 60.8115H50.175C54.1251 60.8115 56.0203 59.5557 56.0203 56.8614C56.0203 50.5823 48.1886 42.2255 35.9501 42.2255C23.7117 42.2255 15.8572 50.5823 15.8572 56.8614C15.8572 59.5557 17.7751 60.8115 21.7252 60.8115ZM20.9946 56.8157C20.4694 56.8157 20.2639 56.6331 20.2639 56.2221C20.2639 52.7286 25.9037 46.2213 35.9501 46.2213C45.9966 46.2213 51.6363 52.7286 51.6363 56.2221C51.6363 56.6331 51.4308 56.8157 50.8829 56.8157H20.9946Z" fill="#0B2D1F"/>
<path d="M20.9946 56.8157C20.4694 56.8157 20.2639 56.6331 20.2639 56.2221C20.2639 52.7286 25.9037 46.2213 35.9501 46.2213C45.9966 46.2213 51.6363 52.7286 51.6363 56.2221C51.6363 56.6331 51.4308 56.8157 50.8829 56.8157H20.9946Z" fill="#22885E"/>
</svg>
