<svg width="72" height="72" viewBox="0 0 72 72" fill="none" xmlns="http://www.w3.org/2000/svg">
<path d="M65.2431 4H37.6681C35.4614 4 33.6681 5.79333 33.6681 8V56C33.6681 58.205 35.4614 60 37.6681 60H44.3348V62.2417C44.3348 65.415 46.9181 68 50.0914 68C50.8781 68 51.6414 67.8417 52.3614 67.535L67.5098 61.0417C69.6298 60.1333 71.0014 58.055 71.0014 55.7483V9.75667C71.0014 6.58333 68.4164 4 65.2431 4ZM44.3348 16.25V57.3333H37.6681C36.9348 57.3333 36.3348 56.735 36.3348 56V8C36.3348 7.26333 36.9348 6.66667 37.6681 6.66667H57.8348L47.8248 10.9567C45.7048 11.8667 44.3348 13.9433 44.3348 16.25ZM68.3348 55.7483C68.3348 56.9867 67.5981 58.1033 66.4598 58.5883L51.3098 65.0817C50.9264 65.2467 50.5131 65.3333 50.0914 65.3333C48.3881 65.3333 47.0014 63.9467 47.0014 62.2417V16.25C47.0014 15.0133 47.7364 13.895 48.8748 13.41L64.0248 6.91667C64.4081 6.75167 64.8214 6.66667 65.2431 6.66667C66.9481 6.66667 68.3348 8.05333 68.3348 9.75667V55.7483ZM51.0014 33.3333C50.2648 33.3333 49.6681 33.93 49.6681 34.6667V40C49.6681 40.735 50.2648 41.3333 51.0014 41.3333C51.7364 41.3333 52.3348 40.735 52.3348 40V34.6667C52.3348 33.93 51.7364 33.3333 51.0014 33.3333Z" fill="#0B2D1F"/>
<path d="M44.3348 16.25V57.3333H37.6681C36.9348 57.3333 36.3348 56.735 36.3348 56V8C36.3348 7.26333 36.9348 6.66667 37.6681 6.66667H57.8348L47.8248 10.9567C45.7048 11.8667 44.3348 13.9433 44.3348 16.25Z" fill="#22885E"/>
<path d="M27.2086 38.2283C31.391 38.2283 34.7784 34.5471 34.7784 30.0191C34.7784 25.5602 31.4083 22 27.2086 22C23.0608 22 19.6389 25.6121 19.6389 30.0537C19.6562 34.5644 23.0263 38.2283 27.2086 38.2283ZM27.2086 35.2039C24.8236 35.2039 22.8016 32.9571 22.8016 30.0364C22.8016 27.2193 24.8064 25.0244 27.2086 25.0244C29.6282 25.0244 31.6157 27.1848 31.6157 30.0191C31.6157 32.9226 29.6109 35.2039 27.2086 35.2039ZM16.4416 54.5085H37.9757C40.9655 54.5085 42.4 53.5579 42.4 51.5186C42.4 46.7659 36.4721 40.4405 27.2086 40.4405C17.9452 40.4405 12 46.7659 12 51.5186C12 53.5579 13.4517 54.5085 16.4416 54.5085ZM15.8886 51.484C15.4911 51.484 15.3355 51.3458 15.3355 51.0347C15.3355 48.3904 19.6043 43.4649 27.2086 43.4649C34.813 43.4649 39.0817 48.3904 39.0817 51.0347C39.0817 51.3458 38.9262 51.484 38.5114 51.484H15.8886Z" fill="#0B2D1F"/>
<path d="M15.8886 51.484C15.4911 51.484 15.3355 51.3458 15.3355 51.0347C15.3355 48.3904 19.6043 43.4649 27.2086 43.4649C34.813 43.4649 39.0817 48.3904 39.0817 51.0347C39.0817 51.3458 38.9262 51.484 38.5114 51.484H15.8886Z" fill="#62C89E"/>
<path d="M27.2086 35.2039C24.8236 35.2039 22.8016 32.9571 22.8016 30.0364C22.8016 27.2193 24.8064 25.0244 27.2086 25.0244C29.6282 25.0244 31.6157 27.1848 31.6157 30.0191C31.6157 32.9226 29.6109 35.2039 27.2086 35.2039Z" fill="#62C89E"/>
<path d="M16.7071 36.7071C17.0976 36.3166 17.0976 35.6834 16.7071 35.2929L10.3431 28.9289C9.95262 28.5384 9.31946 28.5384 8.92893 28.9289C8.53841 29.3195 8.53841 29.9526 8.92893 30.3431L14.5858 36L8.92893 41.6569C8.53841 42.0474 8.53841 42.6805 8.92893 43.0711C9.31946 43.4616 9.95262 43.4616 10.3431 43.0711L16.7071 36.7071ZM-3.6296e-09 37L10.8108 37L10.8108 35L3.6296e-09 35L-3.6296e-09 37ZM10.8108 37L16 37L16 35L10.8108 35L10.8108 37Z" fill="#0B2D1F"/>
</svg>
