<svg width="72" height="72" viewBox="0 0 72 72" fill="none" xmlns="http://www.w3.org/2000/svg">
<mask id="path-1-inside-1_6230_46162" fill="white">
<path d="M39.5134 24.14C39.3331 24.216 38.6782 24.7759 38.0708 25.3834L36.9604 26.4843L36.5712 26.1331C36.3529 25.9433 36.0777 25.744 35.9448 25.6966C34.7774 25.2505 33.61 26.5128 34.1605 27.6232C34.3693 28.0408 35.8784 29.5594 36.3055 29.7872C36.7516 30.015 37.1502 30.015 37.5963 29.7872C37.7861 29.6828 38.6972 28.8476 39.6178 27.908C40.9561 26.5602 41.3167 26.1426 41.4021 25.8389C41.6014 25.1176 41.1554 24.2729 40.4815 24.0831C40.0259 23.9597 39.9121 23.9692 39.5134 24.14Z"/>
</mask>
<path d="M39.5134 24.14C39.3331 24.216 38.6782 24.7759 38.0708 25.3834L36.9604 26.4843L36.5712 26.1331C36.3529 25.9433 36.0777 25.744 35.9448 25.6966C34.7774 25.2505 33.61 26.5128 34.1605 27.6232C34.3693 28.0408 35.8784 29.5594 36.3055 29.7872C36.7516 30.015 37.1502 30.015 37.5963 29.7872C37.7861 29.6828 38.6972 28.8476 39.6178 27.908C40.9561 26.5602 41.3167 26.1426 41.4021 25.8389C41.6014 25.1176 41.1554 24.2729 40.4815 24.0831C40.0259 23.9597 39.9121 23.9692 39.5134 24.14Z" fill="#0B2D1F" stroke="#0B2D1F" stroke-width="2" mask="url(#path-1-inside-1_6230_46162)"/>
<mask id="path-2-inside-2_6230_46162" fill="white">
<path d="M44.3434 25.8193C43.4798 26.3983 43.4987 27.5372 44.3909 28.2016C44.6472 28.4009 44.7421 28.4009 50.8543 28.4009C56.9664 28.4009 57.0614 28.4009 57.3176 28.2016C58.2098 27.5372 58.2287 26.3983 57.3651 25.8193L57.0424 25.601H50.8543H44.6661L44.3434 25.8193Z"/>
</mask>
<path d="M44.3434 25.8193C43.4798 26.3983 43.4987 27.5372 44.3909 28.2016C44.6472 28.4009 44.7421 28.4009 50.8543 28.4009C56.9664 28.4009 57.0614 28.4009 57.3176 28.2016C58.2098 27.5372 58.2287 26.3983 57.3651 25.8193L57.0424 25.601H50.8543H44.6661L44.3434 25.8193Z" fill="#0B2D1F" stroke="#0B2D1F" stroke-width="2" mask="url(#path-2-inside-2_6230_46162)"/>
<mask id="path-3-inside-3_6230_46162" fill="white">
<path d="M39.9402 32.1974C39.8927 32.2164 39.7219 32.2544 39.57 32.2923C39.3897 32.3303 38.8772 32.7574 38.1274 33.4977L36.96 34.6461L36.6089 34.3329C36.2197 33.9912 35.7357 33.7634 35.413 33.7634C35.0144 33.7634 34.4354 34.1241 34.2171 34.5132C33.7711 35.3105 33.9609 35.7755 35.2706 37.0663C36.3146 38.0913 36.5709 38.2242 37.3112 38.0818C37.6054 38.0249 37.9376 37.7402 39.3992 36.2975C40.3578 35.3484 41.212 34.4373 41.2879 34.2854C41.6201 33.659 41.3828 32.7574 40.7944 32.4252C40.4907 32.2544 40.092 32.15 39.9402 32.1974Z"/>
</mask>
<path d="M39.9402 32.1974C39.8927 32.2164 39.7219 32.2544 39.57 32.2923C39.3897 32.3303 38.8772 32.7574 38.1274 33.4977L36.96 34.6461L36.6089 34.3329C36.2197 33.9912 35.7357 33.7634 35.413 33.7634C35.0144 33.7634 34.4354 34.1241 34.2171 34.5132C33.7711 35.3105 33.9609 35.7755 35.2706 37.0663C36.3146 38.0913 36.5709 38.2242 37.3112 38.0818C37.6054 38.0249 37.9376 37.7402 39.3992 36.2975C40.3578 35.3484 41.212 34.4373 41.2879 34.2854C41.6201 33.659 41.3828 32.7574 40.7944 32.4252C40.4907 32.2544 40.092 32.15 39.9402 32.1974Z" fill="#0B2D1F" stroke="#0B2D1F" stroke-width="2" mask="url(#path-3-inside-3_6230_46162)"/>
<mask id="path-4-inside-4_6230_46162" fill="white">
<path d="M44.4867 33.8965C44.0217 34.1053 43.7369 34.5799 43.7369 35.1588C43.7369 35.6903 43.9078 36.013 44.3918 36.3642C44.6481 36.5635 44.743 36.5635 50.8552 36.5635C56.9674 36.5635 57.0623 36.5635 57.3185 36.3642C57.8026 36.013 57.9734 35.6903 57.9734 35.1588C57.9734 34.5704 57.6887 34.0958 57.2046 33.8965C56.7491 33.7067 44.9233 33.7067 44.4867 33.8965Z"/>
</mask>
<path d="M44.4867 33.8965C44.0217 34.1053 43.7369 34.5799 43.7369 35.1588C43.7369 35.6903 43.9078 36.013 44.3918 36.3642C44.6481 36.5635 44.743 36.5635 50.8552 36.5635C56.9674 36.5635 57.0623 36.5635 57.3185 36.3642C57.8026 36.013 57.9734 35.6903 57.9734 35.1588C57.9734 34.5704 57.6887 34.0958 57.2046 33.8965C56.7491 33.7067 44.9233 33.7067 44.4867 33.8965Z" fill="#0B2D1F" stroke="#0B2D1F" stroke-width="2" mask="url(#path-4-inside-4_6230_46162)"/>
<path d="M22.9532 30.4864C25.1404 30.4864 26.9118 28.5614 26.9118 26.1935C26.9118 23.8618 25.1494 22 22.9532 22C20.7842 22 18.9947 23.8889 18.9947 26.2116C19.0037 28.5704 20.7661 30.4864 22.9532 30.4864ZM22.9532 28.9048C21.706 28.9048 20.6486 27.7299 20.6486 26.2026C20.6486 24.7294 21.697 23.5816 22.9532 23.5816C24.2185 23.5816 25.2578 24.7113 25.2578 26.1935C25.2578 27.7119 24.2095 28.9048 22.9532 28.9048ZM17.3227 39H28.5837C30.1473 39 30.8974 38.5029 30.8974 37.4365C30.8974 34.9511 27.7974 31.6433 22.9532 31.6433C18.109 31.6433 15 34.9511 15 37.4365C15 38.5029 15.7592 39 17.3227 39ZM17.0335 37.4184C16.8256 37.4184 16.7443 37.3461 16.7443 37.1834C16.7443 35.8006 18.9766 33.2249 22.9532 33.2249C26.9298 33.2249 29.1622 35.8006 29.1622 37.1834C29.1622 37.3461 29.0808 37.4184 28.8639 37.4184H17.0335Z" fill="#0B2D1F"/>
<path d="M22.9532 28.9048C21.706 28.9048 20.6486 27.7299 20.6486 26.2026C20.6486 24.7294 21.697 23.5816 22.9532 23.5816C24.2185 23.5816 25.2578 24.7113 25.2578 26.1935C25.2578 27.7119 24.2095 28.9048 22.9532 28.9048Z" fill="#22885E"/>
<path d="M17.0335 37.4184C16.8256 37.4184 16.7443 37.3461 16.7443 37.1834C16.7443 35.8006 18.9766 33.2249 22.9532 33.2249C26.9298 33.2249 29.1622 35.8006 29.1622 37.1834C29.1622 37.3461 29.0808 37.4184 28.8639 37.4184H17.0335Z" fill="#22885E"/>
<path d="M18.9947 26.2116L18.8412 26.2116L18.8412 26.2122L18.9947 26.2116ZM22.9532 30.64C25.2367 30.64 27.0653 28.6341 27.0653 26.1935H26.7582C26.7582 28.4887 25.044 30.3329 22.9532 30.3329V30.64ZM27.0653 26.1935C27.0653 23.7853 25.2423 21.8465 22.9532 21.8465V22.1535C25.0565 22.1535 26.7582 23.9382 26.7582 26.1935H27.0653ZM22.9532 21.8465C20.6909 21.8465 18.8412 23.8128 18.8412 26.2116H19.1482C19.1482 23.9649 20.8774 22.1535 22.9532 22.1535V21.8465ZM18.8412 26.2122C18.8505 28.6434 20.6698 30.64 22.9532 30.64V30.3329C20.8623 30.3329 19.157 28.4975 19.1482 26.211L18.8412 26.2122ZM22.9532 28.7513C21.8106 28.7513 20.8021 27.6664 20.8021 26.2026H20.4951C20.4951 27.7934 21.6014 29.0583 22.9532 29.0583V28.7513ZM20.8021 26.2026C20.8021 24.7968 21.7981 23.7351 22.9532 23.7351V23.4281C21.5958 23.4281 20.4951 24.662 20.4951 26.2026H20.8021ZM22.9532 23.7351C24.118 23.7351 25.1043 24.7794 25.1043 26.1935H25.4114C25.4114 24.6432 24.319 23.4281 22.9532 23.4281V23.7351ZM25.1043 26.1935C25.1043 27.6498 24.1036 28.7513 22.9532 28.7513V29.0583C24.3153 29.0583 25.4114 27.7739 25.4114 26.1935H25.1043ZM17.3227 39.1535H28.5837V38.8465H17.3227V39.1535ZM28.5837 39.1535C29.3763 39.1535 29.9918 39.0286 30.4126 38.7455C30.8454 38.4544 31.0509 38.0111 31.0509 37.4365H30.7439C30.7439 37.9283 30.5743 38.2667 30.2412 38.4908C29.8961 38.7229 29.3547 38.8465 28.5837 38.8465V39.1535ZM31.0509 37.4365C31.0509 36.134 30.2431 34.646 28.8395 33.4894C27.4315 32.3291 25.411 31.4898 22.9532 31.4898V31.7968C25.3397 31.7968 27.2912 32.6113 28.6443 33.7263C30.0018 34.845 30.7439 36.2535 30.7439 37.4365H31.0509ZM22.9532 31.4898C20.4955 31.4898 18.4727 32.3291 17.0625 33.4893C15.6568 34.6458 14.8465 36.1339 14.8465 37.4365H15.1535C15.1535 36.2537 15.8977 34.8451 17.2576 33.7264C18.6129 32.6114 20.5667 31.7968 22.9532 31.7968V31.4898ZM14.8465 37.4365C14.8465 38.0118 15.0548 38.455 15.4897 38.7458C15.9126 39.0285 16.5301 39.1535 17.3227 39.1535V38.8465C16.5518 38.8465 16.0079 38.7229 15.6604 38.4905C15.3248 38.2662 15.1535 37.9276 15.1535 37.4365H14.8465ZM17.0335 37.2649C16.941 37.2649 16.9135 37.2475 16.9089 37.2437C16.9083 37.2432 16.9067 37.2421 16.9044 37.2359C16.9015 37.228 16.8978 37.2121 16.8978 37.1834H16.5908C16.5908 37.2888 16.6176 37.401 16.7129 37.4801C16.801 37.5531 16.9181 37.5719 17.0335 37.5719V37.2649ZM16.8978 37.1834C16.8978 36.8759 17.0233 36.4838 17.2855 36.0627C17.5464 35.6437 17.9369 35.2054 18.4515 34.807C19.4798 34.011 20.999 33.3784 22.9532 33.3784V33.0714C20.9308 33.0714 19.3455 33.7267 18.2636 34.5642C17.723 34.9826 17.3069 35.4475 17.0249 35.9004C16.7443 36.3511 16.5908 36.7996 16.5908 37.1834H16.8978ZM22.9532 33.3784C24.9074 33.3784 26.4266 34.011 27.4549 34.807C27.9696 35.2054 28.36 35.6437 28.6209 36.0627C28.8831 36.4838 29.0086 36.8759 29.0086 37.1834H29.3157C29.3157 36.7996 29.1622 36.3511 28.8815 35.9004C28.5996 35.4475 28.1834 34.9826 27.6429 34.5642C26.5609 33.7267 24.9756 33.0714 22.9532 33.0714V33.3784ZM29.0086 37.1834C29.0086 37.2121 29.0049 37.2278 29.0021 37.2353C29 37.241 28.9986 37.2419 28.9978 37.2426C28.9922 37.2471 28.9621 37.2649 28.8639 37.2649V37.5719C28.9826 37.5719 29.1016 37.5535 29.191 37.4812C29.2887 37.4021 29.3157 37.2889 29.3157 37.1834H29.0086ZM28.8639 37.2649H17.0335V37.5719H28.8639V37.2649Z" fill="#0B2D1F"/>
<path d="M4 46.2625C4 51.206 6.52492 53.6512 11.3621 53.6512H27.6013L26.8837 58.4618H24.0664C22.7375 58.4618 21.6478 59.5781 21.6478 60.907C21.6478 62.2093 22.7375 63.3256 24.0664 63.3256H48.1196C49.4751 63.3256 50.5648 62.2093 50.5648 60.907C50.5648 59.5781 49.4751 58.4618 48.1196 58.4618H45.0897L44.3987 53.6512H60.6113C65.4485 53.6512 68 51.206 68 46.2625V16.3621C68 11.4452 65.4485 9 60.6113 9H11.3621C6.52492 9 4 11.4452 4 16.3621V46.2625ZM9.18272 45.9435V16.7076C9.18272 14.8738 9.95349 14.1827 11.7076 14.1827H60.2658C62.0199 14.1827 62.8173 14.8738 62.8173 16.7076V45.9435C62.8173 47.7508 62.0199 48.4684 60.2658 48.4684H11.7076C9.95349 48.4684 9.18272 47.7508 9.18272 45.9435Z" fill="#0B2D1F"/>
</svg>
