<svg width="72" height="72" viewBox="0 0 72 72" fill="none" xmlns="http://www.w3.org/2000/svg">
<path d="M29.887 4.07675C27.9495 4.40174 25.9246 5.37672 24.5871 6.62668L23.6622 7.48916H19.9123C15.8249 7.48916 15.2624 7.55166 14.0874 8.13914C12.675 8.85162 11.4875 10.3891 11.15 11.964C10.95 12.9015 10.95 62.5751 11.15 63.5126C11.35 64.4376 11.925 65.5376 12.5875 66.2375C13.2374 66.925 14.5249 67.65 15.4874 67.85C16.4249 68.05 56.3488 68.05 57.2862 67.85C59.4112 67.4 61.1736 65.6251 61.6236 63.5126C61.8236 62.5626 61.8236 12.9015 61.6236 11.964C61.1736 9.85159 59.3862 8.06414 57.2862 7.62666C56.8862 7.53916 55.1363 7.48916 52.8614 7.48916H49.099L48.2615 6.68918C47.3115 5.8017 46.3615 5.18922 45.0866 4.68924C43.4491 4.02675 42.8991 3.98926 36.2868 4.00175C32.9369 4.01425 30.062 4.05175 29.887 4.07675ZM42.8741 7.92665C43.3116 8.03914 44.0241 8.30164 44.4366 8.51413C45.6865 9.17661 47.0865 10.7641 47.449 11.9515L47.524 12.239H36.3868H25.2496L25.3246 11.9515C25.5371 11.2891 26.1246 10.3766 26.8371 9.6516C27.662 8.81412 28.962 8.07664 30.0245 7.87665C30.3245 7.81415 33.1619 7.76415 36.3243 7.75165C41.0492 7.73915 42.2116 7.77665 42.8741 7.92665ZM21.4247 12.0765C21.3247 12.5515 21.2622 13.3765 21.2872 13.9515C21.3247 15.0515 21.5247 15.4139 22.2872 15.8139C22.7872 16.0764 49.9864 16.0764 50.4864 15.8139C51.2489 15.4139 51.4489 15.0515 51.4864 13.9515C51.5114 13.3765 51.4489 12.5515 51.3489 12.0765L51.1739 11.2391H53.8113C56.8362 11.2391 57.2362 11.3391 57.7362 12.2265L58.0112 12.714V37.7383V62.7626L57.7487 63.2376C57.5987 63.5001 57.2737 63.8251 57.0112 63.9751L56.5362 64.2376H36.3868H16.2374L15.7624 63.9751C15.4999 63.8251 15.1749 63.5001 15.0249 63.2376L14.7624 62.7626V37.7383V12.714L15.0374 12.2265C15.5374 11.3391 15.9249 11.2391 18.9623 11.2391H21.5997L21.4247 12.0765Z" fill="#4D0000"/>
<path d="M42.8741 7.92665C43.3116 8.03914 44.0241 8.30164 44.4366 8.51413C45.6865 9.17661 47.0865 10.7641 47.449 11.9515L47.524 12.239H36.3868H25.2496L25.3246 11.9515C25.5371 11.2891 26.1246 10.3766 26.8371 9.6516C27.662 8.81412 28.962 8.07664 30.0245 7.87665C30.3245 7.81415 33.1619 7.76415 36.3243 7.75165C41.0492 7.73915 42.2116 7.77665 42.8741 7.92665Z" fill="#E60000"/>
<path d="M36.3349 28.9888C38.1361 28.9888 39.5949 27.4035 39.5949 25.4535C39.5949 23.5332 38.1435 22 36.3349 22C34.5486 22 33.075 23.5556 33.075 25.4684C33.0824 27.411 34.5338 28.9888 36.3349 28.9888ZM27.7012 29.16C29.2717 29.16 30.5369 27.7682 30.5369 26.0489C30.5369 24.3743 29.2717 23.0197 27.7012 23.0197C26.1457 23.0197 24.8581 24.3966 24.8655 26.0564C24.8655 27.7757 26.1382 29.16 27.7012 29.16ZM44.9686 29.16C46.5242 29.16 47.7969 27.7757 47.8044 26.0564C47.8118 24.3966 46.5242 23.0197 44.9686 23.0197C43.3982 23.0197 42.1255 24.3743 42.1255 26.0489C42.1255 27.7682 43.3982 29.16 44.9686 29.16ZM36.3349 27.6863C35.3078 27.6863 34.437 26.7188 34.437 25.4609C34.437 24.2477 35.3004 23.3025 36.3349 23.3025C37.3769 23.3025 38.2329 24.2329 38.2329 25.4535C38.2329 26.7039 37.3695 27.6863 36.3349 27.6863ZM27.7012 27.8724C26.8602 27.8724 26.1457 27.0686 26.1457 26.0564C26.1457 25.0888 26.8527 24.2998 27.7012 24.2998C28.5646 24.2998 29.2642 25.0739 29.2642 26.0489C29.2642 27.0686 28.5497 27.8724 27.7012 27.8724ZM44.9686 27.8724C44.1127 27.8724 43.4056 27.0686 43.4056 26.0489C43.4056 25.0739 44.1053 24.2998 44.9686 24.2998C45.8097 24.2998 46.5242 25.0888 46.5242 26.0564C46.5242 27.0686 45.8097 27.8724 44.9686 27.8724ZM23.6077 36H28.7536C28.3443 35.7618 28.0689 35.2185 28.121 34.7273H23.5407C23.3993 34.7273 23.3397 34.6603 23.3397 34.5338C23.3397 32.8293 25.3344 31.2068 27.6938 31.2068C28.5274 31.2068 28.6673 31.0862 29.3074 31.4435C29.5604 31.0788 29.873 30.7662 30.2824 30.4982C29.3372 29.9177 28.8549 29.9341 27.6938 29.9341C24.5455 29.9341 22 32.1818 22 34.6528C22 35.546 22.5359 36 23.6077 36ZM49.0622 36C50.134 36 50.6699 35.546 50.6699 34.6528C50.6699 32.1818 48.117 29.9341 44.9686 29.9341C43.815 29.9341 43.6319 29.9281 42.6941 30.5086C43.1035 30.7766 43.4161 31.0892 43.6617 31.4539C44.3018 31.0966 44.1425 31.2068 44.9686 31.2068C47.328 31.2068 49.3301 32.8293 49.3301 34.5338C49.3301 34.6603 49.2706 34.7273 49.1292 34.7273H45.1785C45.2306 35.2185 44.9627 35.7618 44.5533 36H49.0622ZM31.698 36H40.9718C42.2594 36 42.8772 35.5906 42.8772 34.7124C42.8772 32.6656 40.3243 29.9415 36.3349 29.9415C32.3456 29.9415 29.7852 32.6656 29.7852 34.7124C29.7852 35.5906 30.4104 36 31.698 36ZM31.4599 34.6975C31.2887 34.6975 31.2217 34.638 31.2217 34.504C31.2217 33.3652 33.0601 31.244 36.3349 31.244C39.6098 31.244 41.4482 33.3652 41.4482 34.504C41.4482 34.638 41.3812 34.6975 41.2026 34.6975H31.4599Z" fill="#4D0000" stroke="#4D0000" stroke-width="0.460766"/>
<path d="M42.8825 41.1019C41.9329 41.3995 41.2526 42.5475 41.4369 43.5538C41.607 44.4466 42.4573 45.212 43.2935 45.212C43.4919 45.212 43.6478 45.2545 43.6478 45.3253C43.6478 45.382 42.5282 46.5442 41.1676 47.9048L38.6874 50.385L35.2434 46.941C31.516 43.2278 31.3034 43.0719 30.2263 43.3553C29.787 43.4829 28.8799 44.3191 25.4076 47.7914C21.7511 51.4621 21.1275 52.1566 21.0424 52.6101C20.7873 53.999 21.7086 55.1328 23.0975 55.1328C23.4234 55.1328 23.8203 55.0619 23.9904 54.9769C24.1604 54.8919 25.7478 53.3754 27.5335 51.618L30.7507 48.4008L34.1238 51.7597C35.9662 53.6022 37.6244 55.1753 37.7945 55.2604C38.1914 55.4588 39.1834 55.4588 39.5803 55.2604C39.7503 55.1753 41.4227 53.5738 43.3077 51.703L46.7233 48.3016L46.8083 48.8685C47.1343 50.8385 49.8554 51.2495 50.7767 49.4638C51.0034 49.0244 51.0176 48.5992 50.9893 45.6797C50.9467 42.0656 50.9326 42.0515 49.9688 41.3287C49.6003 41.0452 49.3736 41.031 46.4398 41.0027C44.7108 40.9885 43.1093 41.031 42.8825 41.1019Z" fill="#4D0000"/>
</svg>
