<svg width="72" height="72" viewBox="0 0 72 72" fill="none" xmlns="http://www.w3.org/2000/svg">
<circle cx="27.6307" cy="17.1496" r="9.10228" fill="#2894B4"/>
<path fill-rule="evenodd" clip-rule="evenodd" d="M41.8016 17.3956C41.8016 24.9594 36.1801 31.1087 29.2393 31.1087C22.3272 31.1087 16.7057 24.9883 16.677 17.4533C16.677 10.0338 22.3559 4 29.2393 4C36.2088 4 41.8016 9.94717 41.8016 17.3956ZM21.9257 17.4244C21.9257 22.3034 25.2813 26.0565 29.2393 26.0565C33.226 26.0565 36.553 22.2457 36.553 17.3956C36.553 12.6609 33.2547 9.05221 29.2393 9.05221C25.2527 9.05221 21.9257 12.7187 21.9257 17.4244ZM35.6721 58.304H11.371C6.40921 58.304 4 56.7162 4 53.3095C4 45.3704 13.8663 34.804 29.2393 34.804C34.6159 34.804 39.3188 36.0965 43.1618 38.1169C41.2805 38.8636 39.5929 39.9931 38.195 41.4093C35.6308 40.4521 32.6355 39.8562 29.2393 39.8562C16.6197 39.8562 9.53544 48.0841 9.53544 52.5012C9.53544 53.0208 9.79357 53.2518 10.4532 53.2518H34.1158C34.3232 55.0578 34.8628 56.7628 35.6721 58.304Z" fill="#0D313B"/>
<path d="M16.677 17.4533H16.5999L16.5999 17.4536L16.677 17.4533ZM35.6721 58.304V58.3812H35.7997L35.7404 58.2682L35.6721 58.304ZM43.1618 38.1169L43.1902 38.1886L43.3462 38.1268L43.1977 38.0487L43.1618 38.1169ZM38.195 41.4093L38.168 41.4816L38.2148 41.499L38.2499 41.4635L38.195 41.4093ZM34.1158 53.2518L34.1924 53.243L34.1846 53.1747H34.1158V53.2518ZM29.2393 31.1858C36.229 31.1858 41.8788 24.9955 41.8788 17.3956H41.7245C41.7245 24.9234 36.1313 31.0316 29.2393 31.0316V31.1858ZM16.5999 17.4536C16.6287 25.0246 22.2785 31.1858 29.2393 31.1858V31.0316C22.3759 31.0316 16.7827 24.952 16.7542 17.453L16.5999 17.4536ZM29.2393 3.92286C22.3086 3.92286 16.5999 9.99605 16.5999 17.4533H16.7542C16.7542 10.0715 22.4032 4.07714 29.2393 4.07714V3.92286ZM41.8788 17.3956C41.8788 9.90924 36.256 3.92286 29.2393 3.92286V4.07714C36.1617 4.07714 41.7245 9.9851 41.7245 17.3956H41.8788ZM29.2393 25.9794C25.3343 25.9794 22.0028 22.272 22.0028 17.4244H21.8485C21.8485 22.3348 25.2283 26.1336 29.2393 26.1336V25.9794ZM36.4759 17.3956C36.4759 22.215 33.1724 25.9794 29.2393 25.9794V26.1336C33.2796 26.1336 36.6301 22.2763 36.6301 17.3956H36.4759ZM29.2393 9.12935C33.2037 9.12935 36.4759 12.6947 36.4759 17.3956H36.6301C36.6301 12.6272 33.3057 8.97506 29.2393 8.97506V9.12935ZM22.0028 17.4244C22.0028 12.752 25.3039 9.12935 29.2393 9.12935V8.97506C25.2014 8.97506 21.8485 12.6853 21.8485 17.4244H22.0028ZM11.371 58.3812H35.6721V58.2269H11.371V58.3812ZM3.92286 53.3095C3.92286 55.0338 4.53429 56.3087 5.78176 57.1483C7.02327 57.9838 8.8846 58.3812 11.371 58.3812V58.2269C8.89564 58.2269 7.07146 57.8303 5.8679 57.0203C4.67031 56.2143 4.07714 54.9919 4.07714 53.3095H3.92286ZM29.2393 34.7269C21.5348 34.7269 15.2075 37.3748 10.8056 41.0202C6.40581 44.6637 3.92286 49.31 3.92286 53.3095H4.07714C4.07714 49.3699 6.52734 44.7634 10.904 41.139C15.2784 37.5164 21.5708 34.8812 29.2393 34.8812V34.7269ZM43.1977 38.0487C39.3437 36.0224 34.6284 34.7269 29.2393 34.7269V34.8812C34.6033 34.8812 39.294 36.1706 43.1259 38.1852L43.1977 38.0487ZM38.2499 41.4635C39.6404 40.0548 41.3191 38.9313 43.1902 38.1886L43.1333 38.0452C41.242 38.7959 39.5454 39.9314 38.1401 41.3551L38.2499 41.4635ZM29.2393 39.9334C32.6264 39.9334 35.6125 40.5277 38.168 41.4816L38.222 41.337C35.6491 40.3766 32.6447 39.7791 29.2393 39.7791V39.9334ZM9.61259 52.5012C9.61259 51.416 10.0484 50.0876 10.9051 48.7025C11.7612 47.3185 13.0347 45.8826 14.7024 44.5832C18.0375 41.9846 22.9468 39.9334 29.2393 39.9334V39.7791C22.9122 39.7791 17.9696 41.8419 14.6076 44.4615C12.9268 45.7711 11.6405 47.2204 10.7739 48.6214C9.908 50.0213 9.4583 51.3779 9.4583 52.5012H9.61259ZM10.4532 53.1747C10.1292 53.1747 9.92238 53.1173 9.7964 53.0121C9.67393 52.9099 9.61259 52.7491 9.61259 52.5012H9.4583C9.4583 52.7729 9.52602 52.9874 9.69753 53.1306C9.86553 53.2708 10.1176 53.3289 10.4532 53.3289V53.1747ZM34.1158 53.1747H10.4532V53.3289H34.1158V53.1747ZM35.7404 58.2682C34.9355 56.7352 34.3987 55.0394 34.1924 53.243L34.0391 53.2606C34.2476 55.0763 34.7902 56.7904 35.6038 58.3399L35.7404 58.2682Z" fill="#0D313B"/>
<circle cx="52.2505" cy="52.3554" r="14.1444" fill="#2894B4" stroke="#0D313B" stroke-width="3"/>
<path fill-rule="evenodd" clip-rule="evenodd" d="M48.2234 56.8659L51.6415 55.8947L52.6825 58.6618C52.9231 59.3031 53.6411 59.6281 54.2843 59.3875C54.9266 59.1469 55.2536 58.4318 55.012 57.7915L54.0418 55.2117L54.5075 55.0788C55.1672 54.8915 55.5505 54.2046 55.3622 53.5468C55.174 52.888 54.4852 52.5067 53.8244 52.694L53.1657 52.8822L51.2805 47.872C51.0981 47.3878 50.6344 47.0667 50.1153 47.0667C49.5972 47.0667 49.1334 47.3878 48.951 47.872L45.2186 57.7915C44.978 58.4318 45.304 59.1469 45.9472 59.3875C46.5895 59.6281 47.3075 59.3031 47.5481 58.6618L48.2234 56.8659ZM49.31 53.9785L50.7653 53.5652L50.1153 51.8382L49.31 53.9785ZM55.0916 47.0667H54.4696C53.7827 47.0667 53.2258 47.6226 53.2258 48.3076C53.2258 48.9916 53.7827 49.5475 54.4696 49.5475H55.0916V50.1306C55.0916 50.8147 55.6485 51.3696 56.3354 51.3696C57.0223 51.3696 57.5792 50.8147 57.5792 50.1306V49.5475H58.2011C58.888 49.5475 59.4449 48.9916 59.4449 48.3076C59.4449 47.6226 58.888 47.0667 58.2011 47.0667H57.5792V46.4846C57.5792 45.7996 57.0223 45.2446 56.3354 45.2446C55.6485 45.2446 55.0916 45.7996 55.0916 46.4846V47.0667Z" fill="#0D313B"/>
</svg>
