<svg width="72" height="72" viewBox="0 0 72 72" fill="none" xmlns="http://www.w3.org/2000/svg">
<path d="M47.7889 8.59516H44.6399C44.2989 8.02821 43.6908 7.63997 42.9904 7.61532V7.56808C42.9904 5.60019 41.3902 4 39.4202 4H32.2553C30.2854 4 28.6852 5.60019 28.6852 7.56808V7.61532C27.9847 7.63997 27.3767 8.02821 27.0357 8.5931H23.8867C22.0051 8.59516 20.4727 10.1255 20.4727 12.0071V15.2157C20.4727 16.3763 20.7274 17.4568 21.2327 18.4325V27.0456C21.2327 29.1265 22.9274 30.8212 25.0103 30.8212H46.6653C48.7482 30.8212 50.4429 29.1265 50.4429 27.0456V18.4325C50.9482 17.4568 51.2029 16.3763 51.2029 15.2157V12.0071C51.2029 10.1255 49.6705 8.59516 47.7889 8.59516ZM30.7332 8.3466V7.56808C30.7332 6.72998 31.4152 6.048 32.2553 6.048H39.4202C40.2604 6.048 40.9424 6.72998 40.9424 7.56808V8.3466C40.9424 8.43082 40.9506 8.51299 40.967 8.59516H30.7085C30.725 8.51299 30.7332 8.43082 30.7332 8.3466ZM22.5227 12.0071C22.5227 11.2532 23.1348 10.6411 23.8867 10.6411H47.7868C48.5407 10.6411 49.1528 11.2532 49.1528 12.0071V15.2157C49.1528 16.1154 48.9433 16.9392 48.5284 17.6684L48.477 17.7588C47.4849 19.2357 45.6834 20.1436 43.4382 20.1436H39.0053V19.9136C39.0053 19.1186 38.3582 18.4716 37.5633 18.4716H34.1123C33.3173 18.4716 32.6703 19.1186 32.6703 19.9136V20.1436H28.2374C25.9922 20.1436 24.1907 19.2357 23.1965 17.7588L23.1472 17.6684C22.7322 16.9392 22.5227 16.1154 22.5227 15.2157V12.0071ZM37.2983 20.1786V23.6604H34.3773V20.1786H37.2983ZM46.6653 28.7732H25.0103C24.0551 28.7732 23.2807 27.9988 23.2807 27.0456V20.2895C24.583 21.2755 26.2921 21.8486 28.2374 21.8486H32.6703V23.9254C32.6703 24.7203 33.3173 25.3674 34.1123 25.3674H37.5633C38.3582 25.3674 39.0053 24.7203 39.0053 23.9254V21.8486H43.4382C45.3855 21.8486 47.0925 21.2755 48.3949 20.2895V27.0456C48.3949 27.9988 47.6184 28.7732 46.6653 28.7732Z" fill="#0D313B"/>
<path d="M22.5227 12.0071C22.5227 11.2532 23.1348 10.6411 23.8867 10.6411H47.7868C48.5407 10.6411 49.1528 11.2532 49.1528 12.0071V15.2157C49.1528 16.1154 48.9433 16.9392 48.5284 17.6684L48.477 17.7588C47.4849 19.2357 45.6834 20.1436 43.4382 20.1436H39.0053V19.9136C39.0053 19.1186 38.3582 18.4716 37.5633 18.4716H34.1123C33.3173 18.4716 32.6703 19.1186 32.6703 19.9136V20.1436H28.2374C25.9922 20.1436 24.1907 19.2357 23.1965 17.7588L23.1472 17.6684C22.7322 16.9392 22.5227 16.1154 22.5227 15.2157V12.0071Z" fill="#2894B4"/>
<path d="M59.6024 48.5654H50.7248C49.2609 48.5654 48.0615 49.7584 48.0615 51.2159V65.3497C48.0615 66.8072 49.2609 68.0002 50.7248 68.0002H59.6024C61.0664 68.0002 62.2657 66.8072 62.2657 65.3497V51.2159C62.2657 49.7584 61.0664 48.5654 59.6024 48.5654ZM60.4902 65.3497C60.4902 65.8363 60.0911 66.2332 59.6024 66.2332H50.7248C50.2361 66.2332 49.837 65.8363 49.837 65.3497V51.2159C49.837 50.7294 50.2361 50.3324 50.7248 50.3324H59.6024C60.0911 50.3324 60.4902 50.7294 60.4902 51.2159V65.3497Z" fill="#0D313B"/>
<path d="M60.4902 65.3497C60.4902 65.8363 60.0911 66.2332 59.6024 66.2332H50.7248C50.2361 66.2332 49.837 65.8363 49.837 65.3497V51.2159C49.837 50.7294 50.2361 50.3324 50.7248 50.3324H59.6024C60.0911 50.3324 60.4902 50.7294 60.4902 51.2159V65.3497Z" fill="#2894B4"/>
<path d="M57.8269 52.0991H52.5003C52.0116 52.0991 51.6125 52.4961 51.6125 52.9826C51.6125 53.467 52.0116 53.8661 52.5003 53.8661H57.8269C58.3156 53.8661 58.7147 53.467 58.7147 52.9826C58.7147 52.4961 58.3156 52.0991 57.8269 52.0991Z" fill="#0D313B"/>
<path d="M57.8269 55.6333H52.5003C52.0116 55.6333 51.6125 56.0302 51.6125 56.5168C51.6125 57.0012 52.0116 57.4003 52.5003 57.4003H57.8269C58.3156 57.4003 58.7147 57.0012 58.7147 56.5168C58.7147 56.0302 58.3156 55.6333 57.8269 55.6333Z" fill="#0D313B"/>
<path d="M57.8269 59.167H52.5003C52.0116 59.167 51.6125 59.5639 51.6125 60.0505C51.6125 60.5349 52.0116 60.934 52.5003 60.934H57.8269C58.3156 60.934 58.7147 60.5349 58.7147 60.0505C58.7147 59.5639 58.3156 59.167 57.8269 59.167Z" fill="#0D313B"/>
<path d="M57.8269 62.6992H52.5003C52.0116 62.6992 51.6125 63.0983 51.6125 63.5827C51.6125 64.0693 52.0116 64.4662 52.5003 64.4662H57.8269C58.3156 64.4662 58.7147 64.0693 58.7147 63.5827C58.7147 63.0983 58.3156 62.6992 57.8269 62.6992Z" fill="#0D313B"/>
<path d="M40.0717 48.5654H31.194C29.7301 48.5654 28.5308 49.7584 28.5308 51.2159V65.3497C28.5308 66.8072 29.7301 68.0002 31.194 68.0002H40.0717C41.5356 68.0002 42.735 66.8072 42.735 65.3497V51.2159C42.735 49.7584 41.5356 48.5654 40.0717 48.5654ZM40.9594 65.3497C40.9594 65.8363 40.5604 66.2332 40.0717 66.2332H31.194C30.7054 66.2332 30.3063 65.8363 30.3063 65.3497V51.2159C30.3063 50.7294 30.7054 50.3324 31.194 50.3324H40.0717C40.5604 50.3324 40.9594 50.7294 40.9594 51.2159V65.3497Z" fill="#0D313B"/>
<path d="M38.2961 52.0991H32.9695C32.4809 52.0991 32.0818 52.4961 32.0818 52.9826C32.0818 53.467 32.4809 53.8661 32.9695 53.8661H38.2961C38.7848 53.8661 39.1839 53.467 39.1839 52.9826C39.1839 52.4961 38.7848 52.0991 38.2961 52.0991Z" fill="#0D313B"/>
<path d="M38.2961 55.6333H32.9695C32.4809 55.6333 32.0818 56.0302 32.0818 56.5168C32.0818 57.0012 32.4809 57.4003 32.9695 57.4003H38.2961C38.7848 57.4003 39.1839 57.0012 39.1839 56.5168C39.1839 56.0302 38.7848 55.6333 38.2961 55.6333Z" fill="#0D313B"/>
<path d="M38.2961 59.167H32.9695C32.4809 59.167 32.0818 59.5639 32.0818 60.0505C32.0818 60.5349 32.4809 60.934 32.9695 60.934H38.2961C38.7848 60.934 39.1839 60.5349 39.1839 60.0505C39.1839 59.5639 38.7848 59.167 38.2961 59.167Z" fill="#0D313B"/>
<path d="M38.2961 62.6992H32.9695C32.4809 62.6992 32.0818 63.0983 32.0818 63.5827C32.0818 64.0693 32.4809 64.4662 32.9695 64.4662H38.2961C38.7848 64.4662 39.1839 64.0693 39.1839 63.5827C39.1839 63.0983 38.7848 62.6992 38.2961 62.6992Z" fill="#0D313B"/>
<path d="M20.5409 48.5654H11.6633C10.1993 48.5654 9 49.7584 9 51.2159V65.3497C9 66.8072 10.1993 68.0002 11.6633 68.0002H20.5409C22.0049 68.0002 23.2042 66.8072 23.2042 65.3497V51.2159C23.2042 49.7584 22.0049 48.5654 20.5409 48.5654ZM21.4287 65.3497C21.4287 65.8363 21.0296 66.2332 20.5409 66.2332H11.6633C11.1746 66.2332 10.7755 65.8363 10.7755 65.3497V51.2159C10.7755 50.7294 11.1746 50.3324 11.6633 50.3324H20.5409C21.0296 50.3324 21.4287 50.7294 21.4287 51.2159V65.3497Z" fill="#0D313B"/>
<path d="M21.4287 65.3497C21.4287 65.8363 21.0296 66.2332 20.5409 66.2332H11.6633C11.1746 66.2332 10.7755 65.8363 10.7755 65.3497V51.2159C10.7755 50.7294 11.1746 50.3324 11.6633 50.3324H20.5409C21.0296 50.3324 21.4287 50.7294 21.4287 51.2159V65.3497Z" fill="#2894B4"/>
<path d="M18.7654 52.0991H13.4388C12.9501 52.0991 12.551 52.4961 12.551 52.9826C12.551 53.467 12.9501 53.8661 13.4388 53.8661H18.7654C19.2541 53.8661 19.6531 53.467 19.6531 52.9826C19.6531 52.4961 19.2541 52.0991 18.7654 52.0991Z" fill="#0D313B"/>
<path d="M18.7654 55.6333H13.4388C12.9501 55.6333 12.551 56.0302 12.551 56.5168C12.551 57.0012 12.9501 57.4003 13.4388 57.4003H18.7654C19.2541 57.4003 19.6531 57.0012 19.6531 56.5168C19.6531 56.0302 19.2541 55.6333 18.7654 55.6333Z" fill="#0D313B"/>
<path d="M18.7654 59.167H13.4388C12.9501 59.167 12.551 59.5639 12.551 60.0505C12.551 60.5349 12.9501 60.934 13.4388 60.934H18.7654C19.2541 60.934 19.6531 60.5349 19.6531 60.0505C19.6531 59.5639 19.2541 59.167 18.7654 59.167Z" fill="#0D313B"/>
<path d="M18.7654 62.6992H13.4388C12.9501 62.6992 12.551 63.0983 12.551 63.5827C12.551 64.0693 12.9501 64.4662 13.4388 64.4662H18.7654C19.2541 64.4662 19.6531 64.0693 19.6531 63.5827C19.6531 63.0983 19.2541 62.6992 18.7654 62.6992Z" fill="#0D313B"/>
<path d="M16.1021 46.3566C16.5908 46.3566 16.9899 45.9596 16.9899 45.4731V41.0556H34.7451V45.0313C34.7451 45.5179 35.1442 45.9148 35.6329 45.9148C36.1216 45.9148 36.5207 45.5179 36.5207 45.0313V41.0556H54.2759V45.4731C54.2759 45.9596 54.675 46.3566 55.1637 46.3566C55.6524 46.3566 56.0514 45.9596 56.0514 45.4731V40.1721C56.0514 39.6855 55.6524 39.2886 55.1637 39.2886H36.5207V34.4294C36.5207 33.945 36.1216 33.5459 35.6329 33.5459C35.1442 33.5459 34.7451 33.945 34.7451 34.4294V39.2886H16.1021C15.6134 39.2886 15.2144 39.6855 15.2144 40.1721V45.4731C15.2144 45.9596 15.6134 46.3566 16.1021 46.3566Z" fill="#0D313B"/>
</svg>
