<svg width="72" height="72" viewBox="0 0 72 72" fill="none" xmlns="http://www.w3.org/2000/svg">
<path d="M45.6 65.8667C39.945 65.8667 34.7083 63.6033 30.845 59.4783C29.5033 58.07 28.3833 56.47 27.5 54.72C26.0583 51.8833 25.3333 48.82 25.3333 45.6C25.3333 38.07 29.4083 31.3083 35.9867 27.775C36.8417 28.4917 37.6117 29.2783 38.295 30.175C32.4033 32.9783 28.5333 39.02 28.5333 45.6C28.5333 48.8533 29.45 52.0117 31.1867 54.7283C32.2783 56.445 33.6417 57.9417 35.2333 59.145C38.22 61.45 41.8033 62.6667 45.6 62.6667C55.0083 62.6667 62.6667 55.0083 62.6667 45.6C62.6667 36.3533 55.275 28.82 46.0917 28.5533C45.495 27.445 44.8 26.3867 44.0333 25.395C44.545 25.3667 45.0667 25.3333 45.6 25.3333C56.7783 25.3333 65.8667 34.42 65.8667 45.6C65.8667 56.7783 56.7783 65.8667 45.6 65.8667ZM24.8617 54.0583C17.345 53.2783 11.4667 46.9117 11.4667 39.2C11.4667 30.9667 18.1667 24.2667 26.4 24.2667C29.1533 24.2667 31.7667 25.0033 34.07 26.4C27.3283 30.4333 23.2 37.62 23.2 45.6C23.2 48.545 23.7667 51.3783 24.8617 54.0583ZM32.5333 52.8117C31.3033 50.6117 30.6667 48.1367 30.6667 45.6C30.6667 39.745 34.175 34.3867 39.4667 31.9867C40.695 34.1867 41.3333 36.6617 41.3333 39.2C41.3333 45.0533 37.825 50.4117 32.5333 52.8117ZM47.1367 30.7417C54.6533 31.52 60.5333 37.8867 60.5333 45.6C60.5333 53.8333 53.8333 60.5333 45.6 60.5333C42.845 60.5333 40.2333 59.795 37.9283 58.4C44.67 54.3667 48.8 47.1783 48.8 39.2C48.8 36.2533 48.2333 33.42 47.1367 30.7417ZM26.4 59.4667C15.22 59.4667 6.13333 50.3783 6.13333 39.2C6.13333 28.7367 13.97 20.0617 24.37 19.0283C25.7033 18.9 27.095 18.9 28.4283 19.0283C33.2783 19.5083 37.8033 21.75 41.1533 25.32C42.495 26.7283 43.6167 28.3283 44.5 30.0783C45.9417 32.9167 46.6667 35.9783 46.6667 39.2C46.6667 46.7283 42.5917 53.4917 36.0117 57.025C35.1583 56.3083 34.3867 55.52 33.7033 54.625C39.595 51.82 43.4667 45.7783 43.4667 39.2C43.4667 35.945 42.55 32.7867 40.8117 30.07C39.72 28.3533 38.3583 26.8583 36.7667 25.6533C33.7783 23.35 30.195 22.1333 26.4 22.1333C16.9917 22.1333 9.33333 29.7917 9.33333 39.2C9.33333 48.445 16.725 55.9783 25.9083 56.245C26.5033 57.3533 27.2 58.4117 27.9667 59.4033C27.4533 59.4333 26.9333 59.4667 26.4 59.4667ZM19.1867 11.4667H22.4117L24.02 16.8333L19.1867 11.4667ZM19.6583 6.13333H20.3417L21.62 9.33333H18.3783L19.6583 6.13333ZM28.17 11.4667L26.5617 16.8117H26.2367L24.6283 11.4667H28.17ZM30.1533 6.13333L28.875 9.33333H23.925L22.645 6.13333H30.1533ZM33.6117 11.4667L28.7783 16.8333L30.3867 11.4667H33.6117ZM32.4583 6.13333H33.1417L34.42 9.33333H31.1783L32.4583 6.13333ZM45.6 23.2C44.4783 23.2 43.37 23.295 42.3033 23.4667C39.2533 20.375 35.4033 18.25 31.2 17.3333L36.7867 11.1117C37.0667 10.8167 37.1417 10.3783 36.9917 10.0033L34.8583 4.67C34.7 4.26667 34.3033 4 33.8667 4H18.9333C18.495 4 18.1 4.26667 17.9417 4.67L15.8083 10.0033C15.6583 10.3783 15.7333 10.8167 16.0117 11.1117L21.6 17.3333C11.4033 19.5283 4 28.5117 4 39.2C4 51.5533 14.045 61.6 26.4 61.6C27.52 61.6 28.6283 61.5033 29.695 61.3333C33.9283 65.6333 39.5417 68 45.6 68C57.9533 68 68 57.9533 68 45.6C68 33.245 57.9533 23.2 45.6 23.2Z" fill="#0D313B"/>
<path d="M26.4 59.4667C15.22 59.4667 6.13333 50.3783 6.13333 39.2C6.13333 28.7367 13.97 20.0617 24.37 19.0283C25.7033 18.9 27.095 18.9 28.4283 19.0283C33.2783 19.5083 37.8033 21.75 41.1533 25.32C42.495 26.7283 43.6167 28.3283 44.5 30.0783C45.9417 32.9167 46.6667 35.9783 46.6667 39.2C46.6667 46.7283 42.5917 53.4917 36.0117 57.025C35.1583 56.3083 34.3867 55.52 33.7033 54.625C39.595 51.82 43.4667 45.7783 43.4667 39.2C43.4667 35.945 42.55 32.7867 40.8117 30.07C39.72 28.3533 38.3583 26.8583 36.7667 25.6533C33.7783 23.35 30.195 22.1333 26.4 22.1333C16.9917 22.1333 9.33333 29.7917 9.33333 39.2C9.33333 48.445 16.725 55.9783 25.9083 56.245C26.5033 57.3533 27.2 58.4117 27.9667 59.4033C27.4533 59.4333 26.9333 59.4667 26.4 59.4667Z" fill="#2894B4"/>
</svg>
