<svg width="72" height="72" viewBox="0 0 72 72" fill="none" xmlns="http://www.w3.org/2000/svg">
<path d="M60.2907 65.3507C60.2907 65.6246 60.2282 65.7254 59.952 65.6903C59.7553 65.6745 59.5579 65.6686 59.3607 65.6727H58.5458H57.483H56.6674C56.5148 65.678 56.3561 65.6857 56.2004 65.6872C55.6915 65.6872 55.6915 65.6872 55.7304 65.1798V49.22C55.6824 48.5394 55.6824 48.5379 56.3408 48.5486C56.4106 48.5537 56.4799 48.5634 56.5484 48.5776L56.5659 48.5921C56.6002 48.5539 56.6353 48.5364 56.6735 48.5753C56.8965 48.5451 57.1226 48.5451 57.3457 48.5753C57.3853 48.5356 57.422 48.5532 57.4548 48.5913L57.4723 48.5768C57.7885 48.5272 58.1106 48.5272 58.4268 48.5768L58.4436 48.5913C58.4779 48.5532 58.513 48.5356 58.5519 48.5745C58.5939 48.5677 58.6358 48.531 58.677 48.5745L58.7701 48.5593L59.2439 48.5661L59.35 48.5745C59.6056 48.5059 59.8665 48.5631 60.1236 48.544C60.2488 48.5348 60.29 48.5997 60.2823 48.7149C60.2785 48.7767 60.2823 48.8393 60.2823 48.9018C60.2834 54.3861 60.2862 59.869 60.2907 65.3507ZM16.8517 49.2192C16.8822 48.486 16.8822 48.486 16.191 48.5615C16.1811 48.5615 16.1734 48.5715 16.1643 48.5776L16.1467 48.5921C16.1124 48.5539 16.0765 48.5364 16.0376 48.576H16.0414L16.03 48.5844L16.0376 48.5753C15.8146 48.5451 15.5885 48.5451 15.3654 48.5753L15.3746 48.5852L15.3616 48.576H15.3654C15.3273 48.5371 15.2891 48.5547 15.2571 48.5928L15.2403 48.5783C14.9243 48.5287 14.6026 48.5287 14.2866 48.5783C14.2454 48.5684 14.205 48.512 14.1638 48.5783C13.9979 48.547 13.8276 48.547 13.6617 48.5783C13.6545 48.5724 13.6455 48.5692 13.6362 48.5692C13.6269 48.5692 13.6178 48.5724 13.6106 48.5783C13.5694 48.5326 13.529 48.5707 13.4885 48.5783L13.4969 48.5883L13.4847 48.5791C13.4458 48.5402 13.4084 48.5577 13.3764 48.5959L13.3588 48.5814C13.1246 48.5165 12.8827 48.576 12.6477 48.5478C12.3723 48.5158 12.2815 48.5966 12.2823 48.898C12.2919 54.1198 12.2945 59.3418 12.2899 64.5641C12.2899 64.9349 12.2495 65.308 12.3265 65.6765H16.1688C16.2398 65.6765 16.3108 65.6849 16.3825 65.6857C16.8693 65.6895 16.8693 65.6857 16.8479 65.1836L16.8517 49.2192Z" fill="#2894B4"/>
<path d="M62.5571 53.779C62.5571 51.5918 62.5571 49.4046 62.5571 47.2174C62.4858 46.9325 62.328 46.6766 62.1054 46.485L61.8865 46.3446L61.8704 46.3499L61.8605 46.3362L61.727 46.2942L61.5469 46.2645H54.6695C54.48 46.2672 54.2916 46.2952 54.1095 46.3476L53.9851 46.4193C53.9462 46.443 53.9088 46.4659 53.8676 46.4903L53.7341 46.6078L53.4747 47.029L53.4335 47.1625C53.4274 47.222 53.4213 47.2815 53.4159 47.341C53.4236 47.3914 53.3961 47.4005 53.3557 47.3952H49.0311C48.5993 47.4234 48.2552 47.2533 48.0393 46.8863C47.7478 46.3995 47.4846 45.8944 47.2092 45.3993C47.1535 45.3718 47.1451 45.3184 47.1367 45.2657C46.9833 45.0544 46.8522 44.8279 46.7453 44.5897C46.7386 44.5859 46.7332 44.5801 46.7298 44.5732C46.7264 44.5663 46.7252 44.5585 46.7262 44.5508L46.6446 44.3982C46.4769 44.1645 46.3343 43.9139 46.2188 43.6505L46.0479 43.3514C45.9277 43.1957 45.8308 43.0232 45.7603 42.8395C45.3498 42.162 44.9584 41.4745 44.5929 40.7718C44.316 40.4026 44.1352 39.9982 44.1352 39.5274C44.1252 39.4778 44.1161 39.4282 44.1069 39.3787C44.0665 39.22 44.0116 39.0628 44.0306 38.8942C43.9402 38.5668 43.8791 38.2321 43.8483 37.8939C43.8399 37.8344 43.8315 37.7741 43.8239 37.7146C43.8037 37.6866 43.7899 37.6546 43.7833 37.6207C43.7767 37.5869 43.7775 37.552 43.7857 37.5185C43.7773 37.4796 43.7689 37.4422 43.7613 37.4018C43.726 37.3432 43.7135 37.2737 43.7262 37.2065C43.7163 37.1454 43.7079 37.0852 43.698 37.0249C43.6103 36.7159 43.5536 36.399 43.5286 36.0788C43.5233 36.0399 43.5164 36.0025 43.511 35.9621C43.49 35.9347 43.4758 35.9027 43.4696 35.8687C43.4634 35.8348 43.4653 35.7998 43.4752 35.7667C43.4668 35.7278 43.4569 35.6904 43.4485 35.6492C43.4135 35.5905 43.4011 35.5211 43.4134 35.4539C43.4042 35.3937 43.3943 35.3341 43.3859 35.2739C43.2674 34.6035 43.1496 33.9331 43.0327 33.2627L43.0098 33.1459C42.9976 33.0811 42.9861 33.0162 42.9732 32.9506L42.948 32.7713C42.935 32.7049 42.9213 32.6401 42.9083 32.5752C42.8953 32.5104 42.893 32.4547 42.8846 32.3944C42.7753 31.9815 42.6988 31.5605 42.6558 31.1355C42.6458 31.0768 42.6359 31.018 42.6268 30.9593C42.5703 30.9013 42.5871 30.8288 42.5886 30.7594C42.5825 30.7205 42.5756 30.6831 42.5695 30.6426C42.4223 29.956 42.2888 29.2693 42.2079 28.5681C42.1171 28.3293 42.0996 28.0752 42.0683 27.825L42.05 27.7616C42.0438 27.7174 42.0385 27.6739 42.0332 27.6289C41.9393 27.26 41.8753 26.8842 41.8417 26.505L41.8188 26.3875C41.7986 26.3595 41.7846 26.3276 41.7778 26.2938C41.7709 26.26 41.7714 26.2251 41.7791 26.1915C41.7623 26.1651 41.7516 26.1354 41.7476 26.1044C41.7436 26.0734 41.7466 26.0419 41.7562 26.0122C41.744 25.9679 41.7326 25.9236 41.7211 25.8794C41.7097 25.8351 41.7112 25.7955 41.7074 25.7535C41.6246 25.4457 41.5659 25.132 41.5319 24.8151C41.5227 24.7555 41.5143 24.6953 41.506 24.6358C41.4857 24.6078 41.4715 24.5759 41.4646 24.5421C41.4576 24.5083 41.4579 24.4733 41.4655 24.4397C41.4587 24.3802 41.451 24.3199 41.4434 24.2604C41.3831 24.0756 41.3489 23.8832 41.3419 23.6889C41.3335 23.65 41.3259 23.6126 41.3183 23.5714C41.3053 23.5066 41.2939 23.4417 41.2816 23.3761C41.2694 23.3105 41.2641 23.2563 41.2557 23.196L41.0123 22.0722C40.7592 21.4228 40.3252 20.8596 39.7618 20.4493L39.2613 20.193L39.0149 20.1129C38.9912 20.1186 38.9665 20.1173 38.9436 20.1092C38.9207 20.101 38.9006 20.0864 38.8859 20.0671L38.7638 20.0472C38.3716 19.98 37.9707 19.9813 37.5789 20.0511L37.4569 20.0709C37.4421 20.0902 37.4221 20.1048 37.3992 20.113C37.3763 20.1211 37.3515 20.1224 37.3279 20.1167L37.0815 20.193L36.8267 20.3067L36.8167 20.3196L36.8015 20.3143L36.581 20.4501C36.3177 20.7751 36.1041 20.5706 35.8943 20.3845L35.1313 20.0793L35.0131 20.0541C34.6178 19.9999 34.2226 19.9679 33.8266 20.0541L33.4589 20.1441L33.0721 20.3044L32.6494 20.5638L32.4518 20.7164L32.29 20.8781L32.0711 21.1192L31.8956 21.3664C31.8746 21.4542 31.8281 21.5338 31.762 21.5953C31.7462 21.6987 31.6997 21.7949 31.6285 21.8715C31.389 22.6085 31.3294 23.3837 31.1479 24.133C31.1402 24.1932 31.1318 24.2527 31.1234 24.313C31.115 24.3733 31.0983 24.4435 31.0853 24.5076C31.0723 24.5717 31.067 24.6289 31.0578 24.6892C30.9841 25.1088 30.9098 25.5284 30.835 25.9481C30.8259 26.0083 30.8167 26.0686 30.8083 26.1281C30.7961 26.1724 30.7839 26.2166 30.7732 26.2601C30.7824 26.2901 30.785 26.3217 30.7808 26.3528C30.7766 26.3839 30.7657 26.4137 30.7488 26.4402C30.6997 26.8648 30.6233 27.2858 30.5199 27.7006L30.4925 27.8799C30.4787 27.9432 30.4642 28.0066 30.4497 28.0699C30.4444 28.1103 30.4383 28.1523 30.433 28.1927C30.4413 28.2261 30.4422 28.2609 30.4356 28.2946C30.429 28.3284 30.4151 28.3603 30.3948 28.388C30.3872 28.4483 30.3803 28.5078 30.3727 28.5681C30.38 28.6016 30.3803 28.6363 30.3735 28.67C30.3666 28.7036 30.3529 28.7354 30.333 28.7634L30.3101 28.8809C30.3139 28.932 30.3315 28.9877 30.2598 29.0091C30.2689 29.093 30.3017 29.1785 30.2453 29.2578C30.2521 29.2998 30.2247 29.3151 30.1926 29.3257C30.198 29.3853 30.2392 29.4432 30.1995 29.5043C30.1745 29.8469 30.1139 30.1859 30.0187 30.516C30.0285 30.5459 30.0314 30.5777 30.027 30.6089C30.0226 30.6402 30.0112 30.6699 29.9935 30.696C30.0024 30.7293 30.0038 30.7641 29.9975 30.7979C29.9911 30.8317 29.9772 30.8636 29.9569 30.8914C29.9485 30.9303 29.9408 30.9677 29.934 31.0089C29.9466 31.0968 29.9328 31.1866 29.8943 31.2667L29.8714 31.3842C29.805 31.7444 29.8302 32.1251 29.6295 32.4524C29.6334 32.5752 29.6791 32.6996 29.6204 32.8209C29.6074 32.8865 29.5944 32.9514 29.5807 33.0162C29.567 33.0811 29.5632 33.1368 29.5532 33.1971C29.5276 33.4959 29.4742 33.7917 29.3938 34.0806L29.3709 34.1981C29.3447 34.5178 29.2895 34.8344 29.2061 35.1442C29.1962 35.2044 29.1878 35.2647 29.1779 35.325C29.1903 35.3919 29.1778 35.4611 29.1428 35.5195C29.1336 35.5798 29.1252 35.6401 29.1153 35.7004C29.1039 35.7446 29.0924 35.7889 29.0802 35.8324C29.0898 35.8624 29.0926 35.8942 29.0883 35.9255C29.0841 35.9568 29.073 35.9867 29.0558 36.0132C29.0062 36.4375 28.9298 36.8582 28.8269 37.2728C28.8193 37.3118 28.8109 37.3491 28.804 37.3896C28.8169 37.4778 28.8031 37.5679 28.7643 37.6482C28.7559 37.6864 28.7475 37.7245 28.7399 37.765C28.6575 38.46 28.511 39.1444 28.3752 39.8296L28.3615 39.9555C28.3457 40.1548 28.2632 40.3429 28.1272 40.4895C28.1129 40.5736 28.0701 40.6501 28.0059 40.7062C27.8674 41.0139 27.7019 41.3088 27.5115 41.5875L27.4429 41.7065L26.1969 43.9321C26.1969 43.9756 26.1908 44.0168 26.1405 44.032C26.098 44.1593 26.0306 44.2768 25.9421 44.3776C25.9162 44.428 25.891 44.4784 25.8658 44.5302C25.7931 44.6594 25.7203 44.7884 25.6476 44.9171C25.6354 44.9628 25.6308 45.0132 25.5774 45.0346L25.4416 45.2543C25.4386 45.2965 25.4269 45.3376 25.4072 45.375C25.3875 45.4125 25.3603 45.4454 25.3271 45.4717C25.0563 45.9585 24.803 46.4544 24.51 46.9267C24.4189 47.0789 24.2879 47.2033 24.1313 47.2865C23.9746 47.3698 23.7983 47.4087 23.6211 47.399H19.9284H19.2379C19.07 47.412 19.1425 47.2724 19.1341 47.2083C19.1135 47.0557 19.0258 46.9283 18.9754 46.7871L18.5756 46.4094L18.423 46.3331C18.3994 46.3386 18.3747 46.3373 18.3518 46.3292C18.329 46.321 18.3089 46.3065 18.2941 46.2874L18.172 46.2698L17.1107 46.2652H11.1038H10.9818C10.8749 46.2965 10.7681 46.3286 10.6628 46.3614C10.6018 46.3957 10.5408 46.43 10.4805 46.4651L10.115 46.9C10.0335 47.1362 9.99474 47.385 10.0006 47.6348C10.0006 53.9339 10.0006 60.2327 10.0006 66.5313C10.0006 66.6663 10.0074 66.8014 10.0113 66.9357C10.0593 67.3438 10.2829 67.6361 10.6163 67.8581L10.7391 67.9054L10.8536 67.9397L10.9863 67.9748L11.4784 67.9924H17.1115H18.0514L18.1667 67.9786L18.3002 67.9435L18.4131 67.91C18.6354 67.8055 18.8305 67.6509 18.983 67.4583C19.0319 67.324 19.0792 67.1897 19.1272 67.0547C19.1852 65.9415 19.1349 64.8276 19.1578 63.7136C19.1578 63.6183 19.0738 63.4794 19.2402 63.4237H25.5614L26.9996 63.3749L27.3048 63.3474C28.1036 63.2345 28.8704 62.9972 29.6295 62.737L29.7951 62.6607L30.5596 62.2838L31.083 61.9695C32.1189 61.2726 33.0198 60.3937 33.742 59.3754C33.7505 59.3341 33.7671 59.295 33.7908 59.2601C33.8145 59.2253 33.8448 59.1955 33.8801 59.1724L34.3035 58.4293C34.3696 58.2283 34.4601 58.0361 34.5728 57.8571C34.8184 57.1794 35.0223 56.4874 35.1832 55.7848L35.2084 55.6032C35.2206 55.5391 35.2336 55.4735 35.2465 55.4087C35.2595 55.3438 35.2648 55.2881 35.274 55.2279C35.2621 55.1606 35.2745 55.0914 35.3091 55.0325C35.3167 54.9936 35.3251 54.9562 35.3328 54.9158C35.3624 54.5775 35.4219 54.2426 35.5105 53.9148C35.5282 53.635 35.575 53.3578 35.6501 53.0877C35.701 52.7968 35.7539 52.5063 35.8088 52.2164C35.8165 52.1775 35.8241 52.1401 35.831 52.0989C35.8631 51.76 35.921 51.4241 36.0042 51.0941C36.0103 51.0536 36.0179 51.0124 36.0248 50.972C36.0385 50.9087 36.0522 50.8453 36.0667 50.7828C36.0728 50.7416 36.0789 50.7004 36.0843 50.6584C36.0761 50.6252 36.0752 50.5906 36.0816 50.557C36.0881 50.5234 36.1017 50.4917 36.1217 50.4639C36.1293 50.4036 36.1385 50.3433 36.1468 50.2838C36.1858 50.032 36.2231 49.7795 36.2651 49.5277H36.3132C36.3391 49.7383 36.3666 49.9489 36.3895 50.1602C36.4459 50.2411 36.3681 50.3212 36.3895 50.4021C36.4253 50.4135 36.4597 50.4249 36.4536 50.473L36.4673 50.5882C36.4846 50.6053 36.497 50.6267 36.5032 50.6502C36.5094 50.6737 36.5091 50.6984 36.5024 50.7217C36.5115 50.7813 36.5199 50.8415 36.5299 50.9018C36.6329 51.3159 36.7076 51.7365 36.7534 52.1607L36.7809 52.3431C36.7893 52.3637 36.7969 52.3843 36.8045 52.4049C36.8175 52.488 36.8297 52.5704 36.8419 52.6544C36.8629 52.6818 36.8771 52.7137 36.8835 52.7477C36.8898 52.7816 36.8881 52.8165 36.8785 52.8497C36.8831 52.8916 36.8877 52.9336 36.8915 52.9756C37.0487 53.6355 37.1456 54.3069 37.2547 54.9768C37.2631 55.0371 37.2722 55.0974 37.2806 55.1569C37.3156 55.2156 37.328 55.285 37.3157 55.3522L37.3432 55.5323C37.4393 55.9519 37.5349 56.3718 37.6301 56.7919C37.6392 56.8309 37.6476 56.8682 37.656 56.9094L37.949 57.7312C37.9734 57.7525 37.994 57.7754 37.9673 57.8075C38.0324 57.8691 38.0709 57.9537 38.0749 58.0432C38.168 58.2274 38.2613 58.411 38.3549 58.5941C38.7326 59.2144 39.1179 59.8301 39.6191 60.3634C39.6428 60.3886 39.6374 60.4397 39.6451 60.4817C39.9197 60.5984 40.0754 60.8525 40.2867 61.0417C40.9999 61.668 41.7957 62.1933 42.6519 62.6027C42.6764 62.5998 42.7012 62.6042 42.7232 62.6154C42.7452 62.6265 42.7634 62.6439 42.7755 62.6653L43.0899 62.7904C43.1244 62.7873 43.1592 62.7927 43.1912 62.8059C43.2232 62.8192 43.2516 62.8401 43.2738 62.8667C43.9314 63.0755 44.6033 63.2362 45.2842 63.3474L45.5291 63.3733C45.5718 63.3634 45.5871 63.3909 45.597 63.4245L45.9022 63.4176L47.1565 63.4275H48.095H53.3526C53.4114 63.4138 53.4198 63.4481 53.4159 63.4939V66.1223C53.4533 66.4756 53.3847 66.8342 53.4716 67.1844C53.5367 67.31 53.6019 67.4351 53.667 67.5598C53.8715 67.7741 54.1362 67.9215 54.4261 67.9824L54.6687 68H61.2402L61.4874 67.9893C61.7347 67.9534 61.97 67.8595 62.1741 67.7154C62.2573 67.6216 62.3397 67.527 62.4221 67.4331C62.4434 67.3904 62.4648 67.3484 62.4854 67.3065C62.5106 67.2241 62.5365 67.1417 62.5617 67.06C62.5647 64.8108 62.5675 62.5615 62.5701 60.3123C62.5663 58.131 62.5579 55.955 62.5571 53.779ZM16.3866 65.6813C16.3149 65.6813 16.244 65.6752 16.173 65.6722H12.3307C12.2544 65.3037 12.2941 64.9306 12.2941 64.5598C12.2941 59.337 12.2915 54.1149 12.2864 48.8937C12.2864 48.5923 12.3765 48.5122 12.6519 48.5435C12.8869 48.5717 13.1288 48.5122 13.363 48.577L13.3805 48.5915C13.4141 48.5534 13.45 48.5358 13.4889 48.5747C13.5293 48.5686 13.5698 48.5305 13.611 48.5747C13.6182 48.5689 13.6272 48.5656 13.6365 48.5656C13.6458 48.5656 13.6549 48.5689 13.6621 48.5747C13.828 48.5435 13.9982 48.5435 14.1641 48.5747C14.2053 48.5099 14.2457 48.5663 14.2869 48.5747C14.6029 48.5252 14.9247 48.5252 15.2407 48.5747L15.2574 48.5892C15.2918 48.5511 15.3276 48.5335 15.3658 48.5725C15.5888 48.5423 15.8149 48.5423 16.038 48.5725C16.0769 48.5328 16.1143 48.5503 16.1471 48.5885L16.1646 48.574C16.1738 48.5679 16.1814 48.5587 16.1913 48.558C16.8826 48.4817 16.8826 48.4817 16.8521 49.2156V65.1793C16.8734 65.6844 16.8734 65.6851 16.3866 65.6813ZM35.0093 43.398C34.9613 43.8423 34.8818 44.2826 34.7712 44.7156C34.7651 44.7561 34.7598 44.7973 34.7537 44.8385C34.762 44.8717 34.7629 44.9064 34.7563 44.94C34.7497 44.9737 34.7358 45.0054 34.7155 45.033C34.7079 45.0933 34.6995 45.1536 34.6911 45.2139C34.64 45.6377 34.5636 46.0581 34.4622 46.4728C34.453 46.533 34.4439 46.5933 34.4355 46.6536C34.4468 46.7205 34.4344 46.7893 34.4004 46.8481L34.3775 46.9664C34.3836 47.0084 34.3577 47.0251 34.3226 47.0358C34.3226 47.074 34.3272 47.1121 34.3302 47.1503V47.2174C34.3241 47.2594 34.3195 47.2998 34.3142 47.341C34.2226 47.9949 34.1067 48.6449 33.9617 49.2896C33.9319 49.4743 33.9029 49.6597 33.8724 49.8443C33.861 49.8886 33.8488 49.9328 33.8366 49.9771C33.8457 50.007 33.8485 50.0384 33.8447 50.0695C33.8408 50.1005 33.8306 50.1304 33.8144 50.1571C33.7595 50.4725 33.7043 50.7879 33.6489 51.1032L33.6245 51.2215C33.6331 51.2547 33.6341 51.2894 33.6275 51.3231C33.6209 51.3568 33.6069 51.3886 33.5863 51.4161C33.5802 51.4557 33.5741 51.4923 33.5672 51.5335C33.5672 51.6221 33.5848 51.7136 33.5237 51.7922C33.5154 51.8525 33.5077 51.912 33.4993 51.9723C33.3818 52.6208 33.2648 53.2696 33.1484 53.9186L33.1262 54.0376C33.1262 54.1254 33.1476 54.2169 33.0858 54.2955C33.0774 54.3344 33.0698 54.3718 33.0606 54.413C33.0689 54.4463 33.0698 54.481 33.0634 54.5148C33.0569 54.5485 33.0432 54.5804 33.0232 54.6083C33.0148 54.6678 33.0072 54.7281 32.9988 54.7884C32.95 55.1699 32.9019 55.5559 32.7699 55.9229C32.7623 55.9618 32.7539 55.9992 32.7455 56.0397C32.7371 56.0801 32.7203 56.1282 32.7074 56.1724C32.6944 56.2571 32.7013 56.3479 32.6311 56.4143C32.5438 56.7711 32.4036 57.1129 32.2153 57.4283C32.1921 57.5199 32.1437 57.6031 32.0756 57.6686C31.4612 58.7963 30.5206 59.7121 29.377 60.2963C29.204 60.4094 29.016 60.4978 28.8185 60.5587C28.5629 60.7068 28.2806 60.7785 27.9983 60.8502L27.8808 60.8746L27.7473 60.9128L27.6306 60.9372C27.1808 61.0658 26.713 61.1199 26.2458 61.0974C26.0179 61.1262 25.7876 61.1292 25.5591 61.1065H19.9276C19.1524 61.1508 19.1524 61.1508 19.1524 60.3886C19.1524 56.9552 19.1562 53.5157 19.1455 50.0801C19.1455 49.7802 19.1944 49.6337 19.527 49.6986C19.6606 49.7152 19.7954 49.7203 19.9299 49.7139C20.2419 49.6887 20.5555 49.6887 20.8676 49.7139C21.1807 49.6887 21.4952 49.6887 21.8083 49.7139C22.1204 49.6887 22.434 49.6887 22.746 49.7139C23.2038 49.6976 23.6616 49.6811 24.1194 49.6643L24.2994 49.6383L24.4322 49.6002L24.5474 49.5697C25.5591 49.2332 26.2885 48.5778 26.7547 47.6226C26.8092 47.5246 26.8696 47.4301 26.9355 47.3395C27.0519 47.0744 27.1937 46.8211 27.3589 46.5834C27.382 46.4903 27.4306 46.4054 27.4993 46.3385C27.6153 46.0733 27.7568 45.82 27.922 45.5824C28.0465 45.3081 28.1967 45.0462 28.3706 44.8003C28.3734 44.7583 28.3855 44.7175 28.4061 44.6808C28.4267 44.644 28.4552 44.6124 28.4897 44.5882C28.833 43.9015 29.2244 43.2385 29.6196 42.5786C29.8966 41.9552 30.3269 41.4112 30.568 40.7688C30.5934 40.4486 30.6501 40.1318 30.7374 39.8227C30.7378 39.6543 30.7675 39.4873 30.8251 39.3291C30.8169 39.2956 30.8161 39.2607 30.8227 39.2268C30.8293 39.193 30.8431 39.161 30.8633 39.133C30.8717 39.0735 30.8801 39.0132 30.8877 38.9529C30.9815 38.2998 31.0899 37.649 31.2386 37.0066C31.2294 36.9765 31.2268 36.9447 31.231 36.9135C31.2353 36.8823 31.2462 36.8523 31.2631 36.8257C31.2547 36.7923 31.2538 36.7573 31.2603 36.7235C31.2669 36.6896 31.2809 36.6576 31.3012 36.6297C31.3104 36.5702 31.3188 36.5099 31.3272 36.4496L31.3638 36.255C31.3729 36.1948 31.3813 36.1345 31.3905 36.0742C31.4393 35.6708 31.5142 35.2709 31.6148 34.8771L31.6377 34.6978C31.656 34.6139 31.6148 34.5185 31.685 34.4438L31.7033 34.3224C31.8032 33.651 31.9116 32.9811 32.0665 32.3204L32.0756 32.1945C32.0679 32.161 32.0674 32.1262 32.0743 32.0925C32.0811 32.0588 32.0951 32.027 32.1153 31.9992L32.1428 31.8191C32.1308 31.7519 32.1432 31.6826 32.1779 31.6238C32.1863 31.5849 32.1939 31.5475 32.2023 31.5063C32.2494 31.0816 32.3259 30.6607 32.4312 30.2466L32.4586 30.0666L32.5014 29.8766C32.5075 29.8362 32.5128 29.795 32.5189 29.7545C32.5611 29.3289 32.6377 28.9074 32.7478 28.4941C32.7562 28.4346 32.7631 28.3751 32.7715 28.3148C32.7635 28.2814 32.7628 28.2467 32.7694 28.213C32.7759 28.1793 32.7897 28.1474 32.8096 28.1195C32.8195 28.0592 32.8279 27.9989 32.8371 27.9387C32.8251 27.8717 32.8376 27.8027 32.8722 27.7441C32.8798 27.7052 32.8874 27.6678 32.8943 27.6266C32.8955 27.4318 32.9306 27.2387 32.9981 27.0559C33.0049 26.9956 33.0126 26.9361 33.021 26.8758C33.0967 26.4557 33.173 26.0358 33.2498 25.6162L33.2781 25.4353C33.2781 25.369 33.2598 25.298 33.32 25.2454C33.3254 25.2042 33.33 25.1637 33.3353 25.1233L33.3742 24.928L33.3971 24.8105C33.4179 24.4911 33.4708 24.1747 33.555 23.8659C33.5642 23.8049 33.5741 23.7446 33.5833 23.6843C33.5709 23.6171 33.5834 23.5477 33.6184 23.489L33.6412 23.3715C33.6335 23.3381 33.633 23.3035 33.6398 23.2699C33.6467 23.2363 33.6607 23.2046 33.6809 23.177C33.6715 23.1469 33.6689 23.1151 33.6731 23.0838C33.6773 23.0526 33.6883 23.0227 33.7053 22.9961C33.7101 22.8773 33.7448 22.7616 33.8061 22.6597C33.8675 22.5578 33.9535 22.473 34.0563 22.4132V22.4132C34.0783 22.3803 34.1088 22.354 34.1445 22.3369C34.1802 22.3199 34.2198 22.3128 34.2593 22.3163L34.3821 22.3003H34.4508L34.6369 22.3171C34.68 22.3183 34.7223 22.329 34.7608 22.3483C34.7993 22.3677 34.8331 22.3953 34.8597 22.4292H34.8795L34.8872 22.4475C34.9653 22.5019 35.0284 22.5752 35.0705 22.6606C35.1125 22.7461 35.1321 22.8408 35.1275 22.9359V42.6503C35.1371 42.8659 35.1034 43.0812 35.0283 43.2835C35.0372 43.3023 35.0402 43.3233 35.0368 43.3438C35.0334 43.3642 35.0238 43.3831 35.0093 43.398V43.398ZM52.7865 61.1065H48.0935H47.1558C46.8632 61.1327 46.5688 61.1301 46.2768 61.0989C45.9378 61.1227 45.5971 61.0897 45.2689 61.0013L45.0873 60.9738C45.0642 60.9808 45.0395 60.9811 45.0162 60.9748C44.9929 60.9685 44.9718 60.9557 44.9553 60.9379L44.8371 60.9143C44.7936 60.9005 44.7486 60.8883 44.7051 60.8761L44.5868 60.8517C44.5426 60.8387 44.4983 60.8265 44.4541 60.8128L44.3358 60.7853C41.7219 59.9781 39.8541 57.6518 39.5856 54.8517C39.5787 54.8128 39.5711 54.7754 39.5634 54.7357C39.4846 54.4462 39.431 54.1503 39.4032 53.8515L39.3757 53.6714C39.3635 53.6065 39.3521 53.5409 39.3391 53.4753C39.3338 53.4356 39.3277 53.3944 39.3216 53.354C39.2537 53.2777 39.2766 53.1877 39.2735 53.1007C39.2689 53.0595 39.2636 53.0191 39.2582 52.9779C39.1683 52.6708 39.1103 52.3553 39.085 52.0363C39.0774 51.9974 39.0706 51.96 39.0629 51.9196C39.024 51.8394 39.0104 51.7491 39.024 51.661C39.0156 51.6221 39.008 51.5847 39.0004 51.5435C38.98 51.5158 38.9661 51.4838 38.9597 51.45C38.9534 51.4162 38.9548 51.3814 38.9637 51.3481C38.9462 51.322 38.9347 51.2922 38.9302 51.2611C38.9257 51.2299 38.9283 51.1981 38.9378 51.1681C38.8303 50.7545 38.7538 50.3334 38.7089 49.9084C38.7005 49.8695 38.6921 49.8321 38.6845 49.7917C38.6636 49.7642 38.6494 49.7323 38.6429 49.6984C38.6364 49.6645 38.6378 49.6296 38.6471 49.5964L38.6219 49.4163C38.6015 49.3884 38.5873 49.3565 38.5803 49.3227C38.5733 49.2888 38.5737 49.2539 38.5815 49.2202C38.5708 49.1622 38.5609 49.1035 38.551 49.0455C38.4892 48.9867 38.5212 48.9127 38.5189 48.8441C38.5136 48.8044 38.5098 48.7632 38.5044 48.7235C38.4373 48.6472 38.4602 48.5564 38.4571 48.4687C38.4495 48.4305 38.4419 48.3924 38.4335 48.352C38.3317 47.9373 38.2553 47.5169 38.2046 47.0931C38.1876 47.0667 38.1766 47.0369 38.1723 47.0057C38.1681 46.9746 38.1708 46.943 38.1802 46.913C38.168 46.8687 38.1565 46.8237 38.1451 46.7802C38.1354 46.7197 38.1262 46.6594 38.1176 46.5994C38.0428 46.1798 37.9683 45.7601 37.894 45.3405C37.8857 45.2802 37.8757 45.2207 37.8666 45.1604C37.8574 45.1002 37.8414 45.0307 37.8284 44.9644C37.8155 44.898 37.8132 44.8446 37.8048 44.7843C37.6674 44.0755 37.492 43.372 37.4416 42.648C37.4141 42.336 37.4141 42.0223 37.4416 41.7103C37.4088 41.3978 37.4088 41.0828 37.4416 40.7703C37.4141 40.4584 37.4141 40.1446 37.4416 39.8326C37.4088 39.5204 37.4088 39.2056 37.4416 38.8934C37.4141 38.5814 37.4141 38.2677 37.4416 37.9557C37.4088 37.6432 37.4088 37.3282 37.4416 37.0157C37.4141 36.7038 37.4141 36.39 37.4416 36.078C37.4088 35.7656 37.4088 35.4505 37.4416 35.1381C37.4142 34.8263 37.4142 34.5128 37.4416 34.2011C37.4088 33.8887 37.4088 33.5736 37.4416 33.2611C37.4141 32.9492 37.4141 32.6354 37.4416 32.3235C37.4088 32.0112 37.4088 31.6964 37.4416 31.3842C37.4141 31.0723 37.4141 30.7585 37.4416 30.4465C37.4088 30.1341 37.4088 29.819 37.4416 29.5066C37.4141 29.1946 37.4141 28.8808 37.4416 28.5689C37.4088 28.2564 37.4088 27.9414 37.4416 27.6289C37.4141 27.3169 37.4141 27.0032 37.4416 26.6912C37.4088 26.3787 37.4088 26.0637 37.4416 25.7512C37.4141 25.4393 37.4141 25.1255 37.4416 24.8135C37.4112 24.5008 37.4094 24.1859 37.4363 23.8728C37.4363 23.5605 37.438 23.2484 37.4416 22.9366C37.4416 22.5956 37.6171 22.3934 37.9459 22.3171C37.9864 22.311 38.0276 22.3064 38.0688 22.3011H38.1367C38.2333 22.2866 38.332 22.3 38.4212 22.3398C38.5104 22.3795 38.5864 22.4439 38.6402 22.5254C38.8165 22.6864 38.8737 22.8947 38.8775 23.1228C38.8859 23.1617 38.8943 23.1991 38.9019 23.2403C38.9366 23.2991 38.9491 23.3684 38.937 23.4356L38.9645 23.6157C39.0388 24.0144 39.113 24.4132 39.1873 24.812C39.1964 24.8723 39.2056 24.9325 39.214 24.9921C39.2497 25.0508 39.2622 25.1207 39.2491 25.1881L39.2766 25.3674C39.2976 25.3948 39.3118 25.4269 39.3178 25.4609C39.3237 25.4949 39.3214 25.5299 39.3109 25.5628C39.3216 25.623 39.3307 25.6841 39.3406 25.7443C39.4259 26.0539 39.4826 26.3706 39.51 26.6904C39.5161 26.7293 39.5215 26.7667 39.5283 26.8072C39.5484 26.835 39.5621 26.867 39.5685 26.9007C39.5748 26.9345 39.5736 26.9692 39.565 27.0025C39.5824 27.0287 39.5937 27.0585 39.5982 27.0896C39.6027 27.1207 39.6002 27.1525 39.5909 27.1826C39.6082 27.1994 39.6206 27.2207 39.6268 27.2441C39.633 27.2675 39.6327 27.2921 39.626 27.3153C39.6352 27.3756 39.6435 27.4351 39.6535 27.4954C39.771 28.1663 39.8887 28.8364 40.0067 29.5058L40.0342 29.6828C40.0952 29.74 40.0647 29.8133 40.0678 29.8819C40.0754 29.9209 40.0838 29.9582 40.0914 29.9979C40.1044 30.0643 40.1173 30.1291 40.1303 30.194C40.1379 30.2337 40.1463 30.2703 40.154 30.3123C40.2303 30.7311 40.302 31.1515 40.3768 31.5704C40.3859 31.6307 40.3951 31.6909 40.4035 31.7505C40.4387 31.8091 40.4514 31.8785 40.4393 31.9458L40.4668 32.1266C40.6293 32.8964 40.772 33.6701 40.8788 34.4491L40.8971 34.5712C40.9566 34.6246 40.9383 34.6955 40.9391 34.7627C40.9398 34.8298 40.9581 34.8825 40.9673 34.9427L41.1847 36.1551C41.2259 36.3542 41.2969 36.5488 41.2801 36.7571C41.2923 36.8013 41.3038 36.8456 41.3152 36.8898C41.3267 36.9341 41.3244 36.9738 41.3297 37.0157C41.4173 37.3437 41.4763 37.6786 41.506 38.0167L41.5311 38.1342C41.5519 38.1617 41.5661 38.1937 41.5724 38.2276C41.5788 38.2615 41.5772 38.2964 41.5678 38.3296C41.5739 38.37 41.58 38.4104 41.5853 38.4509C41.6496 38.5891 41.6668 38.7445 41.6341 38.8934L41.641 39.0735C41.6769 39.0849 41.7112 39.0971 41.7059 39.1452C41.7005 39.1932 41.7142 39.2215 41.7188 39.2604C41.7389 39.2884 41.7528 39.3204 41.7596 39.3542C41.7664 39.388 41.7661 39.4228 41.7585 39.4565C41.7656 39.4951 41.7733 39.534 41.7814 39.5732C41.8785 40.0564 41.9757 40.5396 42.0728 41.0229C42.1858 41.2281 42.3017 41.4333 42.4131 41.6378C42.4726 41.7462 42.5319 41.855 42.5909 41.9644C42.7257 42.1331 42.8336 42.3218 42.9106 42.5236L44.0459 44.5218L44.0856 44.6164C44.1746 44.7166 44.2421 44.834 44.2839 44.9613C44.3358 44.9735 44.3389 45.0124 44.3358 45.0544C44.4251 45.1496 44.4905 45.2647 44.5266 45.3901C44.6951 45.6296 44.8395 45.8851 44.9576 46.1531C45.3773 46.8799 45.7972 47.6075 46.2173 48.3359C46.7449 48.9848 47.4702 49.4433 48.2827 49.6414L48.4627 49.6688L48.903 49.7116L49.0243 49.7169C49.3371 49.6917 49.6514 49.6917 49.9643 49.7169C50.2766 49.6917 50.5904 49.6917 50.9027 49.7169C51.2153 49.6917 51.5294 49.6917 51.8419 49.7169C52.154 49.6917 52.4676 49.6917 52.7796 49.7169C52.8506 49.7116 52.9208 49.7017 52.9917 49.7009C53.432 49.6955 53.432 49.6963 53.406 50.1587V60.4885C53.4487 61.1462 53.4488 61.1462 52.788 61.1088L52.7865 61.1065ZM59.9508 65.6844C59.7541 65.6686 59.5568 65.6627 59.3595 65.6668H58.5446H57.4818H56.6662C56.5136 65.6722 56.3549 65.6798 56.1993 65.6813C55.6904 65.6813 55.6904 65.6813 55.7293 65.1739V49.2195C55.6812 48.5389 55.6812 48.5374 56.3396 48.548C56.4094 48.5532 56.4787 48.5629 56.5472 48.577L56.5647 48.5915C56.5991 48.5534 56.6342 48.5358 56.6723 48.5747C56.8953 48.5446 57.1214 48.5446 57.3445 48.5747C57.3842 48.5351 57.4208 48.5526 57.4536 48.5908L57.4711 48.5763C57.7874 48.5267 58.1094 48.5267 58.4256 48.5763L58.4424 48.5908C58.4767 48.5526 58.5118 48.5351 58.5507 48.574C58.5927 48.5671 58.6347 48.5305 58.6759 48.574L58.7689 48.5587L59.2428 48.5656L59.3488 48.574C59.6044 48.5053 59.8653 48.5625 60.1225 48.5435C60.2476 48.5343 60.2888 48.5992 60.2812 48.7144C60.2773 48.7762 60.2812 48.8387 60.2812 48.9013C60.2812 54.383 60.2834 59.8649 60.288 65.3471C60.2918 65.6241 60.2285 65.7248 59.9523 65.6897L59.9508 65.6844ZM13.7994 28.2767C13.6273 28.1059 13.4913 27.9023 13.3996 27.6778C13.3078 27.4534 13.2622 27.2129 13.2653 26.9704C13.2661 26.7308 13.3141 26.4936 13.4066 26.2725C13.499 26.0514 13.6341 25.8506 13.8042 25.6817C13.9742 25.5128 14.1759 25.3791 14.3976 25.2881C14.6193 25.1971 14.8568 25.1507 15.0965 25.1515L19.9543 25.1805C20.1923 25.1733 20.4291 25.2172 20.6486 25.3093C20.8682 25.4015 21.0654 25.5397 21.2269 25.7146C21.5708 26.0569 21.7669 26.5204 21.7732 27.0055C21.7792 27.246 21.7344 27.4849 21.6417 27.7069C21.549 27.9288 21.4105 28.1287 21.2353 28.2934C21.0633 28.4703 20.8578 28.6111 20.6308 28.7076C20.4038 28.8042 20.1598 28.8545 19.9131 28.8557L15.1018 28.8115C14.8591 28.8209 14.6171 28.778 14.3924 28.6857C14.1677 28.5935 13.9655 28.4539 13.7994 28.2767V28.2767ZM20.0352 13.3102C19.69 12.9632 19.4967 12.4932 19.498 12.0037C19.4993 11.5142 19.695 11.0453 20.042 10.7001C20.3891 10.3549 20.859 10.1616 21.3485 10.1629C21.838 10.1642 22.307 10.3599 22.6522 10.7069L26.039 14.1128C26.209 14.2827 26.3429 14.4852 26.4329 14.708C26.5228 14.9309 26.5669 15.1696 26.5624 15.4099C26.5667 15.6527 26.5218 15.8939 26.4304 16.1189C26.3391 16.3439 26.2031 16.5481 26.0307 16.7192C25.8584 16.8903 25.6532 17.0247 25.4275 17.1144C25.2018 17.2041 24.9603 17.2471 24.7175 17.241C24.4765 17.2443 24.2372 17.1987 24.0143 17.1069C23.7913 17.0151 23.5893 16.879 23.4205 16.707L20.0352 13.3102ZM52.6743 25.2889L57.5169 25.2705C58.0032 25.2758 58.4679 25.4721 58.8105 25.8172C59.1532 26.1623 59.3463 26.6283 59.348 27.1146C59.3417 27.5965 59.1505 28.0576 58.814 28.4025C58.6526 28.5794 58.4553 28.7198 58.2353 28.8141C58.0153 28.9085 57.7776 28.9547 57.5383 28.9496H52.6804C52.1943 28.944 51.7298 28.7475 51.3873 28.4025C51.0447 28.0575 50.8515 27.5917 50.8493 27.1055C50.8452 26.8662 50.891 26.6287 50.9839 26.4081C51.0768 26.1875 51.2147 25.9887 51.3887 25.8245C51.7301 25.4833 52.1917 25.2898 52.6743 25.2858V25.2889ZM35.0543 11.9674C34.879 11.8056 34.7405 11.6081 34.6484 11.3881C34.5562 11.1681 34.5125 10.9308 34.5202 10.6924L34.5339 5.81859C34.5356 5.57812 34.5846 5.34033 34.6781 5.1188C34.7717 4.89727 34.9079 4.69633 35.0791 4.52747C35.2504 4.3586 35.4531 4.22511 35.6759 4.13461C35.8987 4.04412 36.1372 3.99839 36.3776 4.00004C36.6181 4.0017 36.8559 4.0507 37.0774 4.14425C37.299 4.2378 37.4999 4.37407 37.6688 4.54527C37.8376 4.71648 37.9711 4.91927 38.0616 5.14206C38.1521 5.36486 38.1978 5.6033 38.1962 5.84376V10.6711C38.1968 10.9165 38.1473 11.1594 38.0506 11.385C37.9539 11.6105 37.8121 11.8139 37.6339 11.9826C37.4675 12.1583 37.2661 12.2971 37.0426 12.3899C36.8192 12.4827 36.5787 12.5274 36.3368 12.5213C35.8533 12.5118 35.3927 12.3129 35.0543 11.9674ZM46.5973 16.81C46.4202 16.6396 46.281 16.4337 46.189 16.2059C46.097 15.978 46.0541 15.7333 46.0632 15.4877C46.0624 15.2484 46.1092 15.0113 46.2009 14.7902C46.2926 14.5691 46.4273 14.3684 46.5973 14.1998L50.0184 10.7977C50.1856 10.6251 50.3864 10.4886 50.6085 10.3967C50.8305 10.3048 51.0691 10.2595 51.3094 10.2637C51.799 10.2682 52.2672 10.465 52.6131 10.8115C52.9591 11.158 53.155 11.6265 53.1588 12.1162C53.1647 12.3576 53.1202 12.5976 53.0282 12.8209C52.9363 13.0442 52.7989 13.2459 52.6247 13.4132L49.2036 16.8153C49.0338 16.9855 48.8314 17.1196 48.6085 17.2095C48.3856 17.2995 48.1468 17.3434 47.9065 17.3387C47.6636 17.346 47.4217 17.3028 47.1964 17.2118C46.971 17.1208 46.767 16.984 46.5973 16.81V16.81Z" fill="#0D313B"/>
</svg>
