<svg width="72" height="72" viewBox="0 0 72 72" fill="none" xmlns="http://www.w3.org/2000/svg">
<path d="M35.7904 29.1138C19.3272 29.631 19.3272 53.071 35.7904 53.5899C52.2537 53.0591 52.2537 29.6208 35.7904 29.1138ZM35.7904 51.37C22.2339 50.9512 22.2339 31.7406 35.7904 31.3218C49.3453 31.7406 49.3453 50.9512 35.7904 51.37Z" fill="#0B2D1F"/>
<path d="M35.7904 51.37C22.2339 50.9512 22.2339 31.7406 35.7904 31.3218C49.3453 31.7406 49.3453 50.9512 35.7904 51.37Z" fill="#62C89E"/>
<path d="M14.1188 15.5816C13.6999 15.0067 12.7519 15.0067 12.3348 15.5816L4.20658 26.8098C3.67917 27.4932 4.22862 28.587 5.09859 28.5531H7.90691V55.746C7.90691 56.3531 8.4021 56.85 9.00921 56.85H17.4444C18.0498 56.85 18.545 56.3531 18.545 55.746V28.5531H21.3533C22.2232 28.587 22.7846 27.4932 22.2453 26.7979C22.2453 26.8098 14.1188 15.5816 14.1188 15.5816ZM17.4444 26.3451C16.8389 26.3451 16.3421 26.842 16.3421 27.4491V54.642H10.1098V27.4491C10.12 25.9924 8.18334 26.3892 7.25741 26.3451L13.2268 18.0982L19.1945 26.3451H17.4444Z" fill="#0B2D1F"/>
<path d="M17.4444 26.3451C16.8389 26.3451 16.3421 26.842 16.3421 27.4491V54.642H10.1098V27.4491C10.12 25.9924 8.18334 26.3892 7.25741 26.3451L13.2268 18.0982L19.1945 26.3451H17.4444Z" fill="#22885E"/>
<path d="M67.6601 26.8098L59.5319 15.5816C59.1147 15.0067 58.1667 15.0067 57.7479 15.5816L49.6214 26.8098C49.0923 27.4932 49.6434 28.587 50.5134 28.565H53.3217V55.746C53.3217 56.3531 53.8169 56.85 54.4223 56.85H62.8591C63.4646 56.85 63.9598 56.3531 63.9598 55.746V28.5531H66.7681C67.638 28.587 68.1875 27.4932 67.6601 26.8098ZM62.8591 26.3451C62.252 26.3451 61.7568 26.842 61.7568 27.4491V54.642H55.5246V27.4491C55.5348 25.9924 53.5964 26.3892 52.6722 26.3451L58.6399 18.0982L64.6093 26.3451H62.8591Z" fill="#0B2D1F"/>
<path d="M62.8591 26.3451C62.252 26.3451 61.7568 26.842 61.7568 27.4491V54.642H55.5246V27.4491C55.5348 25.9924 53.5964 26.3892 52.6722 26.3451L58.6399 18.0982L64.6093 26.3451H62.8591Z" fill="#22885E"/>
<path d="M45.4698 51.6725C40.3059 56.4751 31.5622 56.4751 26.3864 51.6725C25.9336 51.2638 25.24 51.3079 24.833 51.7607C23.456 53.6261 28.4333 55.6458 29.734 56.297V66.8961C29.734 67.5032 30.2292 68.0001 30.8346 68.0001H41.0318C41.6372 68.0001 42.1324 67.5032 42.1324 66.8961V56.3089C43.4212 55.6577 48.3985 53.6363 47.0334 51.7708C46.6264 51.3079 45.9328 51.2739 45.4698 51.6725ZM39.9312 65.7921H31.9352V57.0161C34.5231 57.6775 37.3433 57.6775 39.9312 57.0161V65.7921Z" fill="#0B2D1F"/>
<path d="M26.3967 31.3358C31.5622 26.5331 40.306 26.5331 45.4817 31.3358C45.9328 31.7445 46.6264 31.7004 47.0334 31.2476C48.4104 29.3821 43.4331 27.3607 42.1324 26.7095V19.6887H45.7564C46.6264 19.7107 47.1877 18.6288 46.6484 17.9335L36.8261 4.43117C36.4072 3.85628 35.4593 3.85628 35.0421 4.43117L25.218 17.9335C24.6906 18.6288 25.2299 19.7107 26.1101 19.6887H29.7341V26.7095C28.4452 27.3607 23.4679 29.3821 24.8331 31.2476C25.2401 31.7004 25.9337 31.7326 26.3967 31.3358ZM31.9353 18.5847C31.9353 16.8838 29.3373 17.613 28.279 17.4688L35.9341 6.9478L43.5874 17.4807C42.6293 17.6011 40.3602 17.05 40.0194 18.154C39.9634 18.2862 39.9312 18.4406 39.9312 18.5949V26.004C37.3433 25.3409 34.5231 25.3409 31.9353 26.004V18.5847Z" fill="#0B2D1F"/>
<path d="M35.1404 34.15C34.7332 34.403 34.6122 34.7331 34.6122 35.6024C34.6122 36.3396 34.6012 36.3616 34.2711 36.4936C34.0841 36.5706 33.699 36.8677 33.4129 37.1538C31.7954 38.7162 32.2245 41.412 34.2491 42.4243C34.5022 42.5453 35.0523 42.6993 35.4594 42.7654C36.0866 42.8424 36.2627 42.9194 36.5157 43.2055C36.8458 43.5796 36.8898 43.9427 36.6478 44.4158C36.2517 45.186 35.2394 45.153 34.5022 44.3608C33.875 43.6896 33.1378 43.6016 32.6207 44.1517C32.2465 44.5478 32.2686 45.131 32.6757 45.6592C32.9948 46.0773 34.1941 46.9465 34.4472 46.9465C34.5462 46.9465 34.6012 47.2106 34.6232 47.8928C34.6672 48.762 34.6892 48.85 34.9753 49.1031C35.1844 49.2792 35.4154 49.3672 35.7125 49.3672C36.0096 49.3672 36.2407 49.2792 36.4497 49.1031C36.7358 48.861 36.7578 48.762 36.7908 47.9038C36.8348 47.0345 36.8568 46.9575 37.0769 46.9025C37.2199 46.8695 37.561 46.6384 37.8471 46.3854C39.9817 44.5038 38.9914 41.0819 36.1856 40.6528C35.2504 40.5097 34.9643 40.3777 34.7662 39.9926C34.5132 39.5084 34.5792 39.1453 34.9863 38.7382C35.5255 38.1991 36.0976 38.2651 36.9559 38.9803C37.7371 39.6295 38.9584 38.9143 38.7384 37.924C38.6503 37.5389 37.9791 36.9007 37.308 36.5816L36.8128 36.3396V35.5804C36.8128 34.7441 36.6258 34.282 36.1856 34.0839C35.8225 33.9189 35.4925 33.9409 35.1404 34.15Z" fill="#0B2D1F"/>
</svg>
