<svg width="72" height="72" viewBox="0 0 72 72" fill="none" xmlns="http://www.w3.org/2000/svg">
<path d="M7.43775 20.8947C7.43775 15.1651 12.0849 10.4428 17.8746 10.4428C23.671 10.4428 28.3181 15.0966 28.3181 20.8947C28.3181 26.6977 23.671 31.3516 17.8746 31.3516C12.0849 31.3516 7.43775 26.6292 7.43775 20.8947ZM52.1018 59.3497V61.5747H19.5617V34.5889C22.323 34.2531 24.8186 33.1038 26.8348 31.3516H45.4317C46.3738 31.3516 47.1807 30.5431 47.1807 29.5993C47.1807 28.6555 46.4373 27.847 45.4317 27.847H29.8015C30.7436 26.225 31.3517 24.4727 31.6189 22.5166H52.1018V41.6732L55.5328 37.8261V21.8384C55.5328 20.3534 54.3234 19.1424 52.8401 19.1424H31.5504C30.7436 12.332 24.9489 7 17.8746 7C10.199 7 4 13.2073 4 20.8947C4 27.9773 9.32367 33.7804 16.1257 34.5889V62.3147C16.1257 63.7997 17.3401 65.0108 18.8184 65.0108H52.7716C54.2549 65.0108 55.471 63.7997 55.471 62.3147V55.9754L53.2443 58.4059C52.9704 58.8786 52.5728 59.1459 52.1018 59.3497Z" fill="#0D313B"/>
<path d="M7.43775 20.8947C7.43775 15.1651 12.0849 10.4428 17.8746 10.4428C23.671 10.4428 28.3181 15.0966 28.3181 20.8947C28.3181 26.6977 23.671 31.3516 17.8746 31.3516C12.0849 31.3516 7.43775 26.6292 7.43775 20.8947Z" fill="#2894B4"/>
<path d="M17.7109 19.2275C16.7827 19.2275 16.0271 18.4722 16.0271 17.5437C16.0271 16.6155 16.7827 15.8599 17.7109 15.8599C18.6394 15.8599 19.3947 16.6155 19.3947 17.5437C19.3947 18.4722 18.6394 19.2275 17.7109 19.2275ZM17.7109 16.7018C17.2468 16.7018 16.869 17.0796 16.869 17.5437C16.869 18.0081 17.2468 18.3856 17.7109 18.3856C18.1753 18.3856 18.5528 18.0081 18.5528 17.5437C18.5528 17.0796 18.1753 16.7018 17.7109 16.7018Z" fill="#0D313B"/>
<path d="M19.3947 21.3324H16.0272C15.7949 21.3324 15.6062 21.144 15.6062 20.9114V20.4905C15.6062 19.3301 16.5505 18.3857 17.7109 18.3857C18.8717 18.3857 19.8157 19.3301 19.8157 20.4905V20.9114C19.8157 21.144 19.6273 21.3324 19.3947 21.3324ZM16.4481 20.4905H18.9738C18.9738 19.7942 18.4076 19.2276 17.7109 19.2276C17.0146 19.2276 16.4481 19.7942 16.4481 20.4905Z" fill="#0D313B"/>
<path d="M21.4995 27.6466H13.9224C13.2261 27.6466 12.6595 27.0805 12.6595 26.3838V15.4391C12.6595 14.7428 13.2261 14.1763 13.9224 14.1763H21.4995C22.1961 14.1763 22.7623 14.7428 22.7623 15.4391V26.3838C22.7623 27.0805 22.1961 27.6466 21.4995 27.6466ZM13.9224 15.0182C13.6905 15.0182 13.5014 15.2072 13.5014 15.4391V26.3838C13.5014 26.616 13.6905 26.8047 13.9224 26.8047H21.4995C21.7317 26.8047 21.9204 26.616 21.9204 26.3838V15.4391C21.9204 15.2072 21.7317 15.0182 21.4995 15.0182H13.9224Z" fill="#0D313B"/>
<path d="M14.7642 22.1743H15.6061C15.6338 22.1743 15.6612 22.1771 15.6882 22.1824C15.7156 22.188 15.7419 22.1961 15.7675 22.2066C15.7927 22.2171 15.8173 22.2301 15.8401 22.2455C15.8632 22.2606 15.8843 22.2782 15.9039 22.2978C15.9236 22.3174 15.9408 22.3385 15.9562 22.3616C15.9716 22.3844 15.9846 22.4086 15.9951 22.4343C16.0057 22.4599 16.0137 22.4862 16.019 22.5132C16.0246 22.5405 16.0271 22.5679 16.0271 22.5953V23.4372C16.0271 23.4649 16.0246 23.4922 16.019 23.5192C16.0137 23.5466 16.0057 23.5729 15.9951 23.5985C15.9846 23.6238 15.9716 23.6483 15.9562 23.6711C15.9408 23.6943 15.9236 23.7153 15.9039 23.735C15.8843 23.7546 15.8632 23.7718 15.8401 23.7873C15.8173 23.8027 15.7927 23.8157 15.7675 23.8262C15.7419 23.8367 15.7156 23.8448 15.6882 23.85C15.6612 23.8557 15.6338 23.8581 15.6061 23.8581H14.7642C14.7368 23.8581 14.7095 23.8557 14.6821 23.85C14.6551 23.8448 14.6288 23.8367 14.6032 23.8262C14.5776 23.8157 14.5534 23.8027 14.5306 23.7873C14.5074 23.7718 14.4864 23.7546 14.4667 23.735C14.4471 23.7153 14.4296 23.6943 14.4145 23.6711C14.399 23.6483 14.3861 23.6238 14.3755 23.5985C14.365 23.5729 14.3569 23.5466 14.3513 23.5192C14.3461 23.4922 14.3433 23.4649 14.3433 23.4372V22.5953C14.3433 22.5679 14.3461 22.5405 14.3513 22.5132C14.3569 22.4862 14.365 22.4599 14.3755 22.4343C14.3861 22.4086 14.399 22.3844 14.4145 22.3616C14.4296 22.3385 14.4471 22.3174 14.4667 22.2978C14.4864 22.2782 14.5074 22.2606 14.5306 22.2455C14.5534 22.2301 14.5776 22.2171 14.6032 22.2066C14.6288 22.1961 14.6551 22.188 14.6821 22.1824C14.7095 22.1771 14.7368 22.1743 14.7642 22.1743Z" fill="#0D313B"/>
<path d="M20.6576 23.4371H17.29C17.0577 23.4371 16.869 23.2487 16.869 23.0162C16.869 22.7839 17.0577 22.5952 17.29 22.5952H20.6576C20.8901 22.5952 21.0785 22.7839 21.0785 23.0162C21.0785 23.2487 20.8901 23.4371 20.6576 23.4371Z" fill="#0D313B"/>
<path d="M14.7642 24.2788H15.6061C15.6338 24.2788 15.6612 24.2816 15.6882 24.2869C15.7156 24.2925 15.7419 24.3006 15.7675 24.3111C15.7927 24.3216 15.8173 24.3346 15.8401 24.35C15.8632 24.3651 15.8843 24.3826 15.9039 24.4023C15.9236 24.4219 15.9408 24.443 15.9562 24.4661C15.9716 24.4889 15.9846 24.5131 15.9951 24.5387C16.0057 24.5644 16.0137 24.5907 16.019 24.6177C16.0246 24.645 16.0271 24.6724 16.0271 24.6998V25.5417C16.0271 25.5694 16.0246 25.5967 16.019 25.6237C16.0137 25.6511 16.0057 25.6774 15.9951 25.703C15.9846 25.7283 15.9716 25.7528 15.9562 25.7756C15.9408 25.7988 15.9236 25.8198 15.9039 25.8395C15.8843 25.8591 15.8632 25.8763 15.8401 25.8917C15.8173 25.9072 15.7927 25.9202 15.7675 25.9307C15.7419 25.9412 15.7156 25.9493 15.6882 25.9545C15.6612 25.9601 15.6338 25.9626 15.6061 25.9626H14.7642C14.7368 25.9626 14.7095 25.9601 14.6821 25.9545C14.6551 25.9493 14.6288 25.9412 14.6032 25.9307C14.5776 25.9202 14.5534 25.9072 14.5306 25.8917C14.5074 25.8763 14.4864 25.8591 14.4667 25.8395C14.4471 25.8198 14.4296 25.7988 14.4145 25.7756C14.399 25.7528 14.3861 25.7283 14.3755 25.703C14.365 25.6774 14.3569 25.6511 14.3513 25.6237C14.3461 25.5967 14.3433 25.5694 14.3433 25.5417V24.6998C14.3433 24.6724 14.3461 24.645 14.3513 24.6177C14.3569 24.5907 14.365 24.5644 14.3755 24.5387C14.3861 24.5131 14.399 24.4889 14.4145 24.4661C14.4296 24.443 14.4471 24.4219 14.4667 24.4023C14.4864 24.3826 14.5074 24.3651 14.5306 24.35C14.5534 24.3346 14.5776 24.3216 14.6032 24.3111C14.6288 24.3006 14.6551 24.2925 14.6821 24.2869C14.7095 24.2816 14.7368 24.2788 14.7642 24.2788Z" fill="#0D313B"/>
<path d="M20.6576 25.5416H17.29C17.0577 25.5416 16.869 25.3532 16.869 25.1207C16.869 24.8884 17.0577 24.6997 17.29 24.6997H20.6576C20.8901 24.6997 21.0785 24.8884 21.0785 25.1207C21.0785 25.3532 20.8901 25.5416 20.6576 25.5416Z" fill="#0D313B"/>
<path d="M26.2334 39.6471H45.4317C46.3738 39.6471 47.1806 38.9071 47.1806 37.8949C47.1806 36.8826 46.4373 36.1426 45.4317 36.1426H26.2334C25.2896 36.1426 24.4778 36.8826 24.4778 37.8949C24.4778 38.9071 25.2896 39.6471 26.2334 39.6471Z" fill="#0D313B"/>
<path d="M47.1806 46.2586C47.1806 45.3148 46.4373 44.5063 45.4317 44.5063H26.2334C25.2896 44.5063 24.4778 45.2514 24.4778 46.2586C24.4778 47.2024 25.2211 48.0159 26.2334 48.0159H45.4317C46.3738 47.9491 47.1806 47.2024 47.1806 46.2586Z" fill="#0D313B"/>
<path d="M24.4778 54.5589C24.4778 55.5044 25.2211 56.3112 26.2334 56.3112H42.8008L43.4088 52.8701H26.2334C25.2896 52.8016 24.4778 53.5466 24.4778 54.5589Z" fill="#0D313B"/>
<mask id="path-12-inside-1_6230_46304" fill="white">
<path d="M49.1017 49.222L59.3515 37.7695L64.2158 42.1344L53.966 53.5869L49.1017 49.222Z"/>
</mask>
<path d="M49.1017 49.222L59.3515 37.7695L64.2158 42.1344L53.966 53.5869L49.1017 49.222Z" fill="#2894B4" stroke="#0D313B" stroke-width="4" mask="url(#path-12-inside-1_6230_46304)"/>
<mask id="path-13-inside-2_6230_46304" fill="white">
<path d="M46.7096 58.0632L50.8172 56.9207C51.0227 56.8522 51.1529 56.7837 51.2899 56.6467L52.4993 55.2987L47.6534 50.9121L46.4373 52.2668C46.307 52.3971 46.2385 52.6026 46.17 52.7379L45.4317 56.9891C45.3632 57.6607 45.9646 58.2687 46.7096 58.0632Z"/>
</mask>
<path d="M46.7096 58.0632L50.8172 56.9207C51.0227 56.8522 51.1529 56.7837 51.2899 56.6467L52.4993 55.2987L47.6534 50.9121L46.4373 52.2668C46.307 52.3971 46.2385 52.6026 46.17 52.7379L45.4317 56.9891C45.3632 57.6607 45.9646 58.2687 46.7096 58.0632Z" fill="#2894B4" stroke="#0D313B" stroke-width="3" mask="url(#path-13-inside-2_6230_46304)"/>
<mask id="path-14-inside-3_6230_46304" fill="white">
<path d="M67.6635 36.8137L64.2942 33.7802C63.8849 33.4461 63.2836 33.4461 62.8743 33.8487L60.8564 36.1422L65.704 40.5287L67.7269 38.2302C68.1362 37.826 68.061 37.1545 67.6635 36.8137Z"/>
</mask>
<path d="M67.6635 36.8137L64.2942 33.7802C63.8849 33.4461 63.2836 33.4461 62.8743 33.8487L60.8564 36.1422L65.704 40.5287L67.7269 38.2302C68.1362 37.826 68.061 37.1545 67.6635 36.8137Z" fill="#2894B4" stroke="#0D313B" stroke-width="3" mask="url(#path-14-inside-3_6230_46304)"/>
</svg>
