<svg width="72" height="72" viewBox="0 0 72 72" fill="none" xmlns="http://www.w3.org/2000/svg">
<path d="M51.0329 30.5448H42.6214V26.8438C42.6214 22.9892 39.4815 19.8521 35.6241 19.8521H10.9973C7.13992 19.8521 4 22.9892 4 26.8438V62.1182C4 63.1058 4.80247 63.9083 5.7915 63.9083H54.8642C55.8532 63.9083 56.6571 63.1058 56.6571 62.1182V36.1634C56.6571 33.0647 54.1344 30.5448 51.0329 30.5448ZM27.679 60.328H18.9424V51.2073C18.9424 50.8795 19.2112 50.6106 19.5391 50.6106H27.0823C27.4102 50.6106 27.679 50.8795 27.679 51.2073V60.328ZM39.0384 60.328H31.262V51.2073C31.262 48.9042 29.3868 47.0304 27.0823 47.0304H19.5391C17.2346 47.0304 15.358 48.9042 15.358 51.2073V60.328H7.58299V26.8438C7.58299 24.9632 9.11385 23.4309 10.9973 23.4309H35.6228C37.5062 23.4309 39.037 24.9632 39.037 26.8438V60.328H39.0384ZM53.0727 60.328H42.6214V34.125H51.0329C52.1564 34.125 53.0727 35.04 53.0727 36.1634V60.328Z" fill="#0D313B"/>
<path d="M27.679 60.328H18.9424V51.2073C18.9424 50.8795 19.2112 50.6106 19.5391 50.6106H27.0823C27.4102 50.6106 27.679 50.8795 27.679 51.2073V60.328Z" fill="#2894B4"/>
<path d="M13.3567 30.5063H33.2648V34.0866H13.3567V30.5063Z" fill="#0D313B"/>
<path d="M13.3567 38.896H33.2648V42.4762H13.3567V38.896Z" fill="#0D313B"/>
<path fill-rule="evenodd" clip-rule="evenodd" d="M41.3398 15.6683C39.0753 17.771 37.5803 20.9341 37.5803 25.2254C37.5803 28.0263 39.2314 31.6647 41.7302 35.4355C44.1667 39.1135 47.1589 42.5515 49.3249 44.867C50.0424 45.6331 51.1911 45.6331 51.9086 44.867C54.0746 42.5515 57.0668 39.1135 59.5033 35.4355C62.0021 31.6647 63.6544 28.0263 63.6544 25.2254C63.6544 20.9341 62.1583 17.771 59.8938 15.6683C57.6044 13.543 54.3587 12.3457 50.6173 12.3457C46.8748 12.3457 43.6292 13.543 41.3398 15.6683ZM38.3838 12.4826C41.6001 9.49722 45.9593 8 50.6173 8C55.2754 8 59.6346 9.49722 62.8497 12.4826C66.0898 15.4906 68.0001 19.8533 68.0001 25.2254C68.0001 29.3991 65.6903 33.9666 63.1259 37.8358C60.4992 41.8001 57.326 45.4374 55.0818 47.8354C52.6476 50.4383 48.586 50.4383 46.1517 47.8354C43.9076 45.4374 40.7343 41.8001 38.1077 37.8358C35.5433 33.9666 33.2346 29.3991 33.2346 25.2254C33.2346 19.8533 35.1438 15.4906 38.3838 12.4826Z" fill="#0D313B"/>
<path d="M41.3398 15.6683C39.0753 17.771 37.5803 20.9341 37.5803 25.2254C37.5803 28.0263 39.2314 31.6647 41.7302 35.4355C44.1667 39.1135 47.1589 42.5515 49.3249 44.867C50.0424 45.6331 51.1911 45.6331 51.9086 44.867C54.0746 42.5515 57.0668 39.1135 59.5033 35.4355C62.0021 31.6647 63.6544 28.0263 63.6544 25.2254C63.6544 20.9341 62.1583 17.771 59.8938 15.6683C57.6044 13.543 54.3587 12.3457 50.6173 12.3457C46.8748 12.3457 43.6292 13.543 41.3398 15.6683Z" fill="#2894B4"/>
<path fill-rule="evenodd" clip-rule="evenodd" d="M50.6173 18.8642C48.217 18.8642 46.2716 20.8096 46.2716 23.2099C46.2716 25.6102 48.217 27.5556 50.6173 27.5556C53.0164 27.5556 54.9629 25.6102 54.9629 23.2099C54.9629 20.8096 53.0164 18.8642 50.6173 18.8642ZM41.9259 23.2099C41.9259 18.4093 45.8166 14.5186 50.6173 14.5186C55.4167 14.5186 59.3086 18.4093 59.3086 23.2099C59.3086 28.0094 55.4167 31.9013 50.6173 31.9013C45.8166 31.9013 41.9259 28.0094 41.9259 23.2099Z" fill="#0D313B"/>
</svg>
