<svg width="72" height="72" viewBox="0 0 72 72" fill="none" xmlns="http://www.w3.org/2000/svg">
<g id="career-transition-approval-matrix">
<g id="Group 1171275551">
<g id="Group 1171275150">
<g id="Vector">
<path d="M8.00314 35.1344C8.00314 27.5325 8.00314 21.238 8.00041 14.9434C7.99513 14.7566 8.04093 14.5722 8.13244 14.4117C8.31957 14.0884 8.48051 13.752 8.70365 13.4465C9.28795 12.6469 10.103 12.2505 11.0807 12.1237C11.928 12.014 12.7801 12.0095 13.6329 12.0021C14.4376 11.9969 15.2428 12.0312 16.047 11.9781C16.1736 11.9695 16.233 11.925 16.2783 11.8039C16.8321 10.3389 17.8135 9.28399 19.3728 8.80081C19.8594 8.63966 20.3655 8.55196 20.8758 8.54037C21.0242 8.54037 21.0553 8.45755 21.0788 8.3439C21.2179 7.67395 21.4487 7.03827 21.8513 6.47227C22.6795 5.31228 23.7711 4.50697 25.1951 4.16086C25.5152 4.09006 25.8412 4.05181 26.1684 4.04663C27.5115 3.99713 28.8553 3.98704 30.1996 4.01636C30.8952 4.03292 31.5908 4.02321 32.2864 4.04035C32.982 4.05748 33.6896 4.08318 34.3879 4.16371C35.3197 4.27109 36.06 4.74514 36.7447 5.3197C37.6875 6.11073 38.2603 7.11537 38.5358 8.28964C38.6226 8.66031 38.5762 8.61462 38.9592 8.61747C41.2288 8.63518 42.8404 10.1715 43.3608 11.8102C43.4077 11.9569 43.4727 12.0078 43.6298 12.0072C44.7013 12.0021 45.7728 11.9986 46.8437 12.0106C47.5388 12.0186 48.2333 12.0546 48.9169 12.186C49.9611 12.3864 50.6834 12.9856 51.2115 13.8634C51.5242 14.3826 51.6453 14.9154 51.6442 15.5226C51.6289 25.821 51.6245 36.1194 51.6311 46.4179C51.6311 48.3563 51.6415 50.2954 51.6125 52.2338C51.5924 53.5948 51.6191 54.9559 51.5771 56.3163C51.5547 57.0388 51.5733 57.763 51.5083 58.4867C51.4592 59.0367 51.1608 59.4702 50.81 59.8757C50.2808 60.4868 49.5552 60.7992 48.8203 61.0922C48.7413 61.1137 48.6593 61.1205 48.5781 61.1122C36.0628 61.1122 23.5478 61.1122 11.0332 61.1122C10.8976 61.113 10.7634 61.0838 10.6393 61.0265C10.1701 60.8124 9.68894 60.6267 9.28086 60.2995C8.89989 59.9962 8.57972 59.6174 8.33866 59.1846C8.12044 58.7957 8.10407 58.3707 8.09261 57.9464C8.05442 56.5328 8.05333 55.1192 8.03806 53.7051C7.9704 47.0798 8.0266 40.4535 8.00314 35.1344ZM48.5143 37.7742H48.5099C48.5099 33.08 48.5175 28.3858 48.5066 23.6922C48.5006 20.977 48.5443 18.2618 48.4204 15.5483C48.4002 15.1022 48.3659 15.0588 47.9158 15.0571C46.4826 15.0514 45.0494 15.0531 43.6167 15.0457C43.4563 15.0457 43.3876 15.1028 43.3494 15.2501C43.1377 16.0686 42.674 16.7414 42.0324 17.2942C41.3559 17.8768 40.5953 18.3006 39.663 18.3583C38.5718 18.4263 37.4807 18.4331 36.3896 18.4685C35.401 18.5011 34.4113 18.4925 33.4222 18.5005C30.8712 18.5211 28.3195 18.5336 25.7674 18.4896C24.4651 18.4668 23.1617 18.4651 21.8589 18.436C21.4159 18.4263 20.9724 18.4205 20.5305 18.3886C20.1306 18.36 19.7192 18.3886 19.3346 18.2595C17.807 17.7534 16.759 16.7745 16.287 15.2576C16.2325 15.0862 16.1534 15.0451 15.9875 15.0388C15.2646 15.012 14.5412 15.0188 13.8183 15.0131C13.0611 15.0074 12.3044 15.016 11.5477 15.0554C11.2858 15.0691 11.2269 15.1228 11.2204 15.3558C11.2089 15.6739 11.1898 15.992 11.1843 16.3102C11.1658 17.4056 11.1571 18.5011 11.1489 19.5959C11.1243 22.9685 11.1265 26.3417 11.126 29.7143C11.1238 38.9831 11.1238 48.252 11.126 57.5209C11.126 57.6008 11.126 57.6802 11.126 57.7602C11.1253 57.7935 11.1325 57.8266 11.1467 57.8564C11.161 57.8862 11.1819 57.912 11.2078 57.9315C11.3611 58.056 11.5139 58.1434 11.7359 58.1434C23.7937 58.1373 35.8507 58.1354 47.907 58.1377C48.3271 58.1377 48.5121 57.9578 48.5121 57.5511L48.5143 37.7742ZM29.8084 15.4289V15.4403C31.4391 15.4403 33.0698 15.4455 34.6999 15.4403C36.1599 15.4335 37.6193 15.4403 39.0787 15.4009C39.8343 15.3815 40.34 14.7972 40.3526 14.2758C40.3657 13.7378 40.3739 13.2003 40.3526 12.6629C40.3442 12.4944 40.2858 12.3329 40.1856 12.2008C39.8916 11.7913 39.4578 11.6725 38.9805 11.6297C38.4153 11.5766 37.849 11.5863 37.2832 11.5925C36.3268 11.604 35.5276 10.7147 35.5478 9.96308C35.5587 9.55015 35.5614 9.12693 35.4632 8.71457C35.2499 7.81445 34.2313 7.04741 33.2231 7.00914C32.3371 6.97544 31.4505 6.96516 30.564 6.96288C29.1112 6.95888 27.6588 6.96916 26.2076 7.05255C25.805 7.07596 25.4324 7.16677 25.1018 7.41179C24.6204 7.75836 24.285 8.28562 24.165 8.8842C24.0816 9.26286 24.0837 9.65067 24.0854 10.0333C24.0887 10.7867 23.2278 11.5086 22.6696 11.56C22.1786 11.6057 21.6876 11.5726 21.1966 11.596C20.8092 11.6137 20.4164 11.6142 20.046 11.7456C19.6292 11.8935 19.3504 12.1808 19.2942 12.6109C19.22 13.1775 19.2397 13.7497 19.2904 14.3197C19.3389 14.8658 19.7498 15.3021 20.315 15.3644C20.7421 15.4091 21.1711 15.431 21.6003 15.43C24.3369 15.4331 27.0729 15.4327 29.8084 15.4289Z" fill="#0D313B"/>
<path d="M48.5143 37.7742H48.5099C48.5099 33.08 48.5175 28.3858 48.5066 23.6922C48.5006 20.977 48.5443 18.2618 48.4204 15.5483C48.4002 15.1022 48.3659 15.0588 47.9158 15.0571C46.4826 15.0514 45.0494 15.0531 43.6167 15.0457C43.4563 15.0457 43.3876 15.1028 43.3494 15.2501C43.1377 16.0686 42.674 16.7414 42.0324 17.2942C41.3559 17.8768 40.5953 18.3006 39.663 18.3583C38.5718 18.4263 37.4807 18.4331 36.3896 18.4685C35.401 18.5011 34.4113 18.4925 33.4222 18.5005C30.8712 18.5211 28.3195 18.5336 25.7674 18.4896C24.4651 18.4668 23.1617 18.4651 21.8589 18.436C21.4159 18.4263 20.9724 18.4205 20.5305 18.3886C20.1306 18.36 19.7192 18.3886 19.3346 18.2595C17.807 17.7534 16.759 16.7745 16.287 15.2576C16.2325 15.0862 16.1534 15.0451 15.9875 15.0388C15.2646 15.012 14.5412 15.0188 13.8183 15.0131C13.0611 15.0074 12.3044 15.016 11.5477 15.0554C11.2858 15.0691 11.2269 15.1228 11.2204 15.3558C11.2089 15.6739 11.1898 15.992 11.1843 16.3102C11.1658 17.4056 11.1571 18.5011 11.1489 19.5959C11.1243 22.9685 11.1265 26.3417 11.126 29.7143C11.1238 38.9831 11.1238 48.252 11.126 57.5209V57.7602C11.1253 57.7935 11.1325 57.8266 11.1467 57.8564C11.161 57.8862 11.1819 57.912 11.2078 57.9315C11.3611 58.056 11.5139 58.1434 11.7359 58.1434C23.7937 58.1373 35.8507 58.1354 47.907 58.1377C48.3271 58.1377 48.5121 57.9578 48.5121 57.5511L48.5143 37.7742Z" fill="#68D4F4"/>
</g>
<path id="Vector_2" d="M29.7998 48.5867C28.6405 48.5867 27.4812 48.5804 26.3218 48.5918C26.0458 48.5918 25.8346 48.5347 25.6317 48.3365C25.3507 48.0641 25.0949 47.7877 25.0054 47.4016C24.7926 46.4809 25.3616 45.7304 26.33 45.6773C27.8031 45.5968 29.2734 45.5836 30.7458 45.6065C31.4884 45.6179 32.2309 45.6436 32.9734 45.6744C33.3673 45.691 33.7552 45.7201 34.0913 45.9817C34.8245 46.5529 34.8851 47.4992 34.2102 48.1378C33.7356 48.5867 33.7356 48.5867 33.0732 48.5867H29.7998Z" fill="#0D313B"/>
<path id="Vector_3" d="M29.7999 54.9738C28.5582 54.9738 27.3159 54.9681 26.0742 54.979C25.8445 54.979 25.6923 54.915 25.5603 54.7362C25.3595 54.4684 25.1304 54.2222 25.0207 53.8972C24.9377 53.6637 24.9384 53.4065 25.0229 53.1736C25.2728 52.4665 25.8587 52.0564 26.6782 52.0507C28.1043 52.041 29.5304 52.0433 30.9565 52.0427C31.8163 52.0427 32.6761 52.0496 33.5359 52.0427C33.6996 52.0427 33.8218 52.0861 33.9249 52.2141C34.1317 52.4682 34.3838 52.6864 34.5338 52.9851C34.7362 53.3878 34.7176 53.7847 34.5038 54.1691C34.3543 54.4387 34.1306 54.6585 33.9353 54.8973C33.8589 54.9904 33.7504 54.9693 33.6505 54.9693C32.3666 54.9731 31.0831 54.9746 29.7999 54.9738Z" fill="#0D313B"/>
<path id="Vector_4" d="M40.3895 48.5579C39.4959 48.5579 38.6022 48.5614 37.7091 48.5579C37.3005 48.5552 36.8925 48.523 36.4882 48.4614C35.8733 48.3683 35.5465 47.9902 35.403 47.4334C35.2595 46.8765 35.4489 46.4179 35.8613 46.0284C36.2143 45.6948 36.6687 45.656 37.1161 45.6383C38.9427 45.5674 40.7714 45.5863 42.5985 45.6086C43.0121 45.6131 43.43 45.6086 43.8413 45.6902C44.3869 45.8045 44.7688 46.1037 44.9428 46.6189C45.1267 47.1598 45.0023 47.647 44.6329 48.0885C44.2865 48.5003 43.8009 48.5454 43.3143 48.5517C42.3388 48.5648 41.3634 48.5557 40.3879 48.5557L40.3895 48.5579Z" fill="#0D313B"/>
<path id="Vector_5" d="M19.6757 48.5589C18.3428 48.5589 17.429 48.5624 16.5152 48.5589C16.2836 48.5587 16.0522 48.5415 15.8229 48.5075C15.0945 48.3979 14.579 47.781 14.6002 47.0608C14.6215 46.3275 15.1551 45.7626 15.9227 45.6747C16.5267 45.6158 17.1334 45.5908 17.74 45.5999C18.9266 45.5999 20.1137 45.5879 21.2998 45.6073C21.9114 45.6176 22.5295 45.5913 23.1335 45.7164C23.7276 45.8397 24.0828 46.2304 24.2328 46.7793C24.3795 47.319 24.2039 47.801 23.8012 48.1768C23.4908 48.4664 23.062 48.4927 22.6517 48.5195C21.5224 48.6046 20.3898 48.5429 19.6757 48.5589Z" fill="#0D313B"/>
<path id="Vector_6" d="M19.2339 54.9663C18.4085 54.9663 17.583 54.972 16.7581 54.9663C16.4455 54.9635 16.1329 54.9189 15.8203 54.9092C14.8781 54.8801 14.3227 53.7995 14.745 52.9382C15.0352 52.3471 15.5513 52.134 16.1853 52.0878C17.3964 51.9987 18.6098 51.9701 19.8226 51.9884C20.8504 52.0033 21.881 51.9958 22.905 52.1243C23.6748 52.2209 24.2368 52.7115 24.2962 53.4608C24.3508 54.1862 24.0316 54.6528 23.396 54.8161C23.097 54.8863 22.7923 54.9265 22.486 54.9361C21.4025 54.9909 20.318 54.9703 19.2339 54.9663Z" fill="#0D313B"/>
<path id="Vector_7" d="M40.4072 54.966C39.5747 54.966 38.7422 54.9786 37.9102 54.9609C37.4415 54.9512 36.9691 54.9483 36.5043 54.8667C35.8027 54.7427 35.4971 54.4874 35.37 53.8923C35.2396 53.2789 35.4475 52.782 35.9532 52.4033C36.2337 52.1937 36.5648 52.1177 36.9085 52.0852C37.663 52.0132 38.4197 52.0041 39.1764 52.0047C40.1454 52.0047 41.1143 52.0047 42.0832 52.0104C42.642 52.0067 43.2002 52.0449 43.7538 52.1246C44.3064 52.2126 44.7669 52.4336 44.9278 53.003C45.0948 53.593 45.0369 54.1516 44.5639 54.6079C44.2808 54.8809 43.9065 54.9083 43.5372 54.9312C42.4946 54.998 41.4504 54.9637 40.4072 54.966Z" fill="#0D313B"/>
</g>
<g id="Group 1171275363">
<path id="Ellipse 2661" d="M62.6037 55.1807C62.6037 61.3479 57.6179 66.3402 51.4765 66.3402C45.3351 66.3402 40.3494 61.3479 40.3494 55.1807C40.3494 49.0136 45.3351 44.0213 51.4765 44.0213C57.6179 44.0213 62.6037 49.0136 62.6037 55.1807Z" fill="#68D4F4" stroke="#0D313B" stroke-width="3.31986"/>
<path id="Vector_8" d="M56.4725 50.7834C56.3075 50.8765 54.76 52.3554 53.0475 54.0619L49.9217 57.1853L48.8695 56.1303C48.2815 55.5615 47.6625 55.0134 47.4768 54.9203C46.2182 54.2894 44.8152 55.696 45.4445 56.9577C45.6715 57.4128 48.756 60.5155 49.2202 60.7637C49.6845 61.0016 50.1281 61.0119 50.5717 60.7947C51.0256 60.5672 58.2469 53.3483 58.4945 52.8725C58.7421 52.3761 58.7421 51.9521 58.4842 51.4453C58.1231 50.7317 57.174 50.4214 56.4725 50.7834Z" fill="#0D313B"/>
</g>
</g>
<g id="Icon">
<path fill-rule="evenodd" clip-rule="evenodd" d="M25.25 25.75V24.5625C25.25 22.595 26.845 21 28.8125 21H31.1875C33.155 21 34.75 22.595 34.75 24.5625V25.75H37.125C38.4367 25.75 39.5 26.8133 39.5 28.125V32.3653C36.5427 33.4625 33.3427 34.0624 30 34.0624C26.6574 34.0624 23.4573 33.4625 20.5 32.3653V28.125C20.5 26.8133 21.5633 25.75 22.875 25.75H25.25ZM27.625 24.5625C27.625 23.9067 28.1567 23.375 28.8125 23.375H31.1875C31.8433 23.375 32.375 23.9067 32.375 24.5625V25.75H27.625V24.5625ZM28.8125 30.5C28.8125 29.8442 29.3442 29.3125 30 29.3125H30.0119C30.6677 29.3125 31.1994 29.8442 31.1994 30.5C31.1994 31.1558 30.6677 31.6875 30.0119 31.6875H30C29.3442 31.6875 28.8125 31.1558 28.8125 30.5Z" fill="#0D313B"/>
<path d="M20.5 34.8846V37.625C20.5 38.9367 21.5633 40 22.875 40H37.125C38.4367 40 39.5 38.9367 39.5 37.625V34.8846C36.5161 35.8918 33.3207 36.4374 30 36.4374C26.6793 36.4374 23.4839 35.8918 20.5 34.8846Z" fill="#0D313B"/>
</g>
</g>
</svg>
