<svg width="36" height="36" viewBox="0 0 36 36" fill="none" xmlns="http://www.w3.org/2000/svg">
<path d="M10.2696 12.8892C6.99103 12.8892 6.17139 14.6892 6.17139 15.5892L6.65353 16.0392H14.6088L14.8499 15.5892C14.6892 14.6892 13.5481 12.8892 10.2696 12.8892Z" fill="#FFA600"/>
<path d="M10.5107 10.8642C11.4427 10.8642 12.1982 10.0583 12.1982 9.06416C12.1982 8.07005 11.4427 7.26416 10.5107 7.26416C9.57876 7.26416 8.82324 8.07005 8.82324 9.06416C8.82324 10.0583 9.57876 10.8642 10.5107 10.8642Z" fill="#FFA600"/>
<mask id="mask0_4692_38189" style="mask-type:alpha" maskUnits="userSpaceOnUse" x="5" y="5" width="11" height="13">
<path d="M15.1714 5.68567H5.17139V17.6857H15.1714V5.68567Z" fill="white"/>
<path d="M11.4405 12.5747H9.58083C7.69789 12.5747 6.17139 14.1012 6.17139 15.9841C6.17139 16.3264 6.44899 16.604 6.79129 16.604H14.23C14.5723 16.604 14.8499 16.3264 14.8499 15.9841C14.8499 14.1012 13.3234 12.5747 11.4405 12.5747ZM7.12041 15.6742C7.27345 14.4518 8.31778 13.5045 9.58083 13.5045H11.4405C12.7027 13.5045 13.7477 14.4528 13.9007 15.6742H7.12041ZM10.5106 11.6449C11.88 11.6449 12.9902 10.5347 12.9902 9.16526C12.9902 7.79587 11.88 6.68567 10.5106 6.68567C9.14128 6.68567 8.03108 7.79587 8.03108 9.16526C8.03108 10.5348 9.14109 11.6449 10.5106 11.6449ZM10.5106 7.61552C11.3651 7.61552 12.0604 8.31077 12.0604 9.16526C12.0604 10.0198 11.3651 10.715 10.5106 10.715C9.65618 10.715 8.96093 10.0196 8.96093 9.16526C8.96093 8.31077 9.65638 7.61552 10.5106 7.61552Z" fill="black"/>
</mask>
<g mask="url(#mask0_4692_38189)">
<path d="M11.4405 12.5747H9.58083C7.69789 12.5747 6.17139 14.1012 6.17139 15.9841C6.17139 16.3264 6.44899 16.604 6.79129 16.604H14.23C14.5723 16.604 14.8499 16.3264 14.8499 15.9841C14.8499 14.1012 13.3234 12.5747 11.4405 12.5747ZM7.12041 15.6742C7.27345 14.4518 8.31778 13.5045 9.58083 13.5045H11.4405C12.7027 13.5045 13.7477 14.4528 13.9007 15.6742H7.12041ZM10.5106 11.6449C11.88 11.6449 12.9902 10.5347 12.9902 9.16526C12.9902 7.79587 11.88 6.68567 10.5106 6.68567C9.14128 6.68567 8.03108 7.79587 8.03108 9.16526C8.03108 10.5348 9.14109 11.6449 10.5106 11.6449ZM10.5106 7.61552C11.3651 7.61552 12.0604 8.31077 12.0604 9.16526C12.0604 10.0198 11.3651 10.715 10.5106 10.715C9.65618 10.715 8.96093 10.0196 8.96093 9.16526C8.96093 8.31077 9.65638 7.61552 10.5106 7.61552Z" fill="black"/>
<path fill-rule="evenodd" clip-rule="evenodd" d="M7.74201 9.16524C7.74201 7.63609 8.98173 6.39636 10.5108 6.39636C12.04 6.39636 13.2797 7.63608 13.2797 9.16524C13.2797 10.6944 12.04 11.9342 10.5108 11.9342C8.98153 11.9342 7.74201 10.6945 7.74201 9.16524ZM10.5108 6.97493C9.30127 6.97493 8.32059 7.95561 8.32059 9.16524C8.32059 10.375 9.30109 11.3556 10.5108 11.3556C11.7204 11.3556 12.7011 10.3749 12.7011 9.16524C12.7011 7.95562 11.7205 6.97493 10.5108 6.97493ZM10.5108 7.90478C9.81635 7.90478 9.25043 8.47053 9.25043 9.16524C9.25043 9.85984 9.81619 10.4257 10.5108 10.4257C11.2056 10.4257 11.7713 9.85999 11.7713 9.16524C11.7713 8.47053 11.2056 7.90478 10.5108 7.90478ZM8.67186 9.16524C8.67186 8.15096 9.49685 7.32621 10.5108 7.32621C11.5251 7.32621 12.3499 8.15097 12.3499 9.16524C12.3499 10.1796 11.5251 11.0043 10.5108 11.0043C9.49661 11.0043 8.67186 10.1793 8.67186 9.16524ZM5.88232 15.9841C5.88232 13.9414 7.53834 12.2854 9.58105 12.2854H11.4407C13.4834 12.2854 15.1394 13.9414 15.1394 15.9841C15.1394 16.4861 14.7323 16.8933 14.2302 16.8933H6.79151C6.28944 16.8933 5.88232 16.4861 5.88232 15.9841ZM9.58105 12.864C7.85787 12.864 6.4609 14.2609 6.4609 15.9841C6.4609 16.1666 6.60898 16.3147 6.79151 16.3147H14.2302C14.4128 16.3147 14.5608 16.1666 14.5608 15.9841C14.5608 14.2609 13.1639 12.864 11.4407 12.864H9.58105ZM7.47386 15.3849H13.5476C13.2863 14.4677 12.4402 13.7938 11.4407 13.7938H9.58105C8.58069 13.7938 7.73501 14.467 7.47386 15.3849ZM6.83359 15.6382C7.0045 14.273 8.17018 13.2152 9.58105 13.2152H11.4407C12.8508 13.2152 14.0171 14.2741 14.188 15.6382L14.2287 15.9635H6.79287L6.83359 15.6382Z" fill="black"/>
</g>
<mask id="mask1_4692_38189" style="mask-type:alpha" maskUnits="userSpaceOnUse" x="19" y="18" width="11" height="13">
<path d="M29.6357 18.2213H19.6357V30.2213H29.6357V18.2213Z" fill="white"/>
<path d="M25.9049 25.1103H24.0452C22.1622 25.1103 20.6357 26.6368 20.6357 28.5198C20.6357 28.8621 20.9133 29.1397 21.2556 29.1397H28.6944C29.0367 29.1397 29.3143 28.8621 29.3143 28.5198C29.3143 26.6368 27.7878 25.1103 25.9049 25.1103ZM21.5848 28.2098C21.7378 26.9875 22.7821 26.0402 24.0452 26.0402H25.9049C27.1671 26.0402 28.2121 26.9884 28.3651 28.2098H21.5848ZM24.975 24.1805C26.3444 24.1805 27.4546 23.0703 27.4546 21.7009C27.4546 20.3315 26.3444 19.2213 24.975 19.2213C23.6056 19.2213 22.4954 20.3315 22.4954 21.7009C22.4954 23.0705 23.6054 24.1805 24.975 24.1805ZM24.975 20.1512C25.8295 20.1512 26.5248 20.8464 26.5248 21.7009C26.5248 22.5554 25.8295 23.2506 24.975 23.2506C24.1205 23.2506 23.4253 22.5552 23.4253 21.7009C23.4253 20.8464 24.1207 20.1512 24.975 20.1512Z" fill="black"/>
</mask>
<g mask="url(#mask1_4692_38189)">
<path d="M25.9045 25.1103H24.0448C22.1618 25.1103 20.6353 26.6368 20.6353 28.5198C20.6353 28.8621 20.9129 29.1397 21.2552 29.1397H28.694C29.0363 29.1397 29.3139 28.8621 29.3139 28.5198C29.3139 26.6368 27.7874 25.1103 25.9045 25.1103ZM21.5844 28.2098C21.7374 26.9875 22.7817 26.0402 24.0448 26.0402H25.9045C27.1667 26.0402 28.2117 26.9884 28.3647 28.2098H21.5844ZM24.9746 24.1805C26.344 24.1805 27.4542 23.0703 27.4542 21.7009C27.4542 20.3315 26.344 19.2213 24.9746 19.2213C23.6052 19.2213 22.495 20.3315 22.495 21.7009C22.495 23.0705 23.605 24.1805 24.9746 24.1805ZM24.9746 20.1512C25.8291 20.1512 26.5244 20.8464 26.5244 21.7009C26.5244 22.5554 25.8291 23.2506 24.9746 23.2506C24.1201 23.2506 23.4249 22.5552 23.4249 21.7009C23.4249 20.8464 24.1203 20.1512 24.9746 20.1512Z" fill="black"/>
<path fill-rule="evenodd" clip-rule="evenodd" d="M22.2059 21.7009C22.2059 20.1717 23.4456 18.932 24.9748 18.932C26.5039 18.932 27.7437 20.1717 27.7437 21.7009C27.7437 23.2301 26.5039 24.4698 24.9748 24.4698C23.4454 24.4698 22.2059 23.2303 22.2059 21.7009ZM24.9748 19.5106C23.7651 19.5106 22.7845 20.4913 22.7845 21.7009C22.7845 22.9107 23.7649 23.8912 24.9748 23.8912C26.1844 23.8912 27.1651 22.9105 27.1651 21.7009C27.1651 20.4913 26.1844 19.5106 24.9748 19.5106ZM24.9748 20.4405C24.2802 20.4405 23.7144 21.0062 23.7144 21.7009C23.7144 22.3954 24.2801 22.9613 24.9748 22.9613C25.6695 22.9613 26.2353 22.3956 26.2353 21.7009C26.2353 21.0062 25.6695 20.4405 24.9748 20.4405ZM23.1358 21.7009C23.1358 20.6866 23.9607 19.8619 24.9748 19.8619C25.989 19.8619 26.8139 20.6866 26.8139 21.7009C26.8139 22.7152 25.989 23.5399 24.9748 23.5399C23.9605 23.5399 23.1358 22.7149 23.1358 21.7009ZM20.3462 28.5198C20.3462 26.477 22.0022 24.821 24.045 24.821H25.9047C27.9474 24.821 29.6034 26.477 29.6034 28.5198C29.6034 29.0219 29.1962 29.429 28.6942 29.429H21.2554C20.7533 29.429 20.3462 29.0219 20.3462 28.5198ZM24.045 25.3996C22.3217 25.3996 20.9248 26.7966 20.9248 28.5198C20.9248 28.7023 21.0728 28.8504 21.2554 28.8504H28.6942C28.8767 28.8504 29.0248 28.7023 29.0248 28.5198C29.0248 26.7966 27.6278 25.3996 25.9047 25.3996H24.045ZM21.9378 27.9205H28.0116C27.7503 27.0033 26.9041 26.3295 25.9047 26.3295H24.045C23.0446 26.3295 22.1989 27.0027 21.9378 27.9205ZM21.2975 28.1739C21.4684 26.8087 22.6341 25.7509 24.045 25.7509H25.9047C27.3147 25.7509 28.481 26.8097 28.6519 28.1738L28.6927 28.4991H21.2568L21.2975 28.1739Z" fill="black"/>
</g>
<mask id="mask2_4692_38189" style="mask-type:alpha" maskUnits="userSpaceOnUse" x="15" y="6" width="14" height="13">
<path d="M28.2964 6.06873H15.2964V18.0687H28.2964V6.06873Z" fill="white"/>
<path d="M16.3519 7.07223C16.2685 7.15275 16.2816 7.38159 16.3738 7.4621C16.4265 7.50872 16.5319 7.53414 16.6724 7.53414C17.3353 7.53414 18.3889 7.69093 19.1309 7.89857C22.0065 8.69948 24.3816 10.9073 25.3342 13.6659C25.5318 14.2338 25.7162 15.0516 25.7557 15.5432C25.7689 15.7169 25.7908 15.9288 25.804 16.0093L25.8303 16.1576L25.5011 15.8483C25.3211 15.683 25.1367 15.5432 25.0884 15.5432C24.9391 15.5432 24.8118 15.6661 24.8118 15.8102C24.8118 15.9288 24.8908 16.022 25.3957 16.5094C25.8786 16.9713 25.9972 17.0687 26.1069 17.0687C26.2123 17.0687 26.3352 16.9713 26.8181 16.5051C27.4415 15.9034 27.4986 15.8059 27.3142 15.6279C27.1562 15.4754 27.0245 15.5178 26.6776 15.8398L26.3615 16.1407L26.3308 15.7085C26.1772 13.5303 25.1279 11.348 23.4772 9.76311C21.7431 8.09774 19.4382 7.11462 17.085 7.03834C16.5582 7.02139 16.3914 7.02986 16.3519 7.07223Z" fill="black"/>
</mask>
<g mask="url(#mask2_4692_38189)">
<path d="M16.3519 7.07223C16.2685 7.15275 16.2816 7.38159 16.3738 7.4621C16.4265 7.50872 16.5319 7.53414 16.6724 7.53414C17.3353 7.53414 18.3889 7.69093 19.1309 7.89857C22.0065 8.69948 24.3816 10.9073 25.3342 13.6659C25.5318 14.2338 25.7162 15.0516 25.7557 15.5432C25.7689 15.7169 25.7908 15.9288 25.804 16.0093L25.8303 16.1576L25.5011 15.8483C25.3211 15.683 25.1367 15.5432 25.0884 15.5432C24.9391 15.5432 24.8118 15.6661 24.8118 15.8102C24.8118 15.9288 24.8908 16.022 25.3957 16.5094C25.8786 16.9713 25.9972 17.0687 26.1069 17.0687C26.2123 17.0687 26.3352 16.9713 26.8181 16.5051C27.4415 15.9034 27.4986 15.8059 27.3142 15.6279C27.1562 15.4754 27.0245 15.5178 26.6776 15.8398L26.3615 16.1407L26.3308 15.7085C26.1772 13.5303 25.1279 11.348 23.4772 9.76311C21.7431 8.09774 19.4382 7.11462 17.085 7.03834C16.5582 7.02139 16.3914 7.02986 16.3519 7.07223Z" fill="black"/>
<path fill-rule="evenodd" clip-rule="evenodd" d="M16.5132 6.55138C16.6473 6.54507 16.8385 6.54796 17.1007 6.5564L17.1008 6.5564C19.5759 6.63664 21.9934 7.66946 23.8113 9.41532C25.4161 10.9561 26.4835 13.0371 26.7609 15.167C26.8112 15.1391 26.8627 15.1156 26.9154 15.0981C27.0434 15.0558 27.1896 15.0441 27.3403 15.091C27.4797 15.1343 27.5812 15.2153 27.6492 15.2809L27.6492 15.281C27.7069 15.3366 27.8247 15.4561 27.8702 15.639C27.9219 15.847 27.857 16.0249 27.7886 16.1456C27.7246 16.2582 27.6321 16.3665 27.5371 16.4682C27.4376 16.5748 27.3092 16.7013 27.1532 16.8519C26.9153 17.0816 26.7466 17.2397 26.6206 17.3396C26.5961 17.3589 26.5694 17.3794 26.5404 17.3997L26.5588 17.5034L26.4863 17.4353C26.3845 17.4981 26.2588 17.5508 26.1071 17.5508C25.8796 17.5508 25.7115 17.4347 25.5922 17.3403C25.4672 17.2413 25.2994 17.0843 25.0626 16.8578L25.061 16.8562C24.8148 16.6185 24.6477 16.4538 24.5448 16.3308C24.4312 16.195 24.3298 16.034 24.3298 15.8102C24.3298 15.3839 24.6892 15.061 25.0886 15.061C25.1315 15.061 25.1704 15.0666 25.203 15.0739C25.1274 14.6672 25.0064 14.1904 24.879 13.8243L24.8786 13.8232C23.9792 11.2185 21.7289 9.12256 19.0017 8.36299L19.0011 8.36283C18.2944 8.16504 17.2848 8.01624 16.6726 8.01624C16.5757 8.01624 16.4745 8.00771 16.3773 7.98425C16.2863 7.96231 16.1632 7.91886 16.0557 7.82423C15.8696 7.66093 15.8234 7.42939 15.8158 7.29435C15.8087 7.16799 15.8239 6.91773 16.0103 6.73208C16.1208 6.62039 16.2522 6.58754 16.3054 6.5758C16.3746 6.56053 16.4476 6.55448 16.5132 6.55138Z" fill="black"/>
</g>
<mask id="mask3_4692_38189" style="mask-type:alpha" maskUnits="userSpaceOnUse" x="6" y="17" width="14" height="13">
<path d="M19.1357 17.6445H6.13574V29.6445H19.1357V17.6445Z" fill="white"/>
<path d="M7.72405 19.1653C7.10064 19.767 7.04357 19.8645 7.22796 20.0424C7.38601 20.195 7.51771 20.1526 7.86454 19.8306L8.18063 19.5339L8.20697 19.9534C8.25088 20.5976 8.43526 21.462 8.67673 22.1739C9.64696 25.0089 11.9606 27.2463 14.8889 28.1744C15.8942 28.4922 16.7986 28.6447 17.6766 28.6447C18.1903 28.6447 18.2474 28.6193 18.2474 28.4117C18.2474 28.1871 18.1552 28.1489 17.5493 28.1193C14.1294 27.9328 11.166 26.0344 9.66452 23.0723C9.20355 22.1655 8.86111 21.0128 8.78648 20.1272C8.77331 19.9534 8.75136 19.7416 8.73819 19.6611L8.71185 19.5127L9.04111 19.8178C9.22111 19.9873 9.4055 20.1272 9.45379 20.1272C9.60306 20.1272 9.73037 20.0043 9.73037 19.8602C9.73037 19.7416 9.65135 19.6483 9.14648 19.161C8.66356 18.6991 8.54502 18.6017 8.43526 18.6017C8.3299 18.6017 8.20697 18.6991 7.72405 19.1653Z" fill="black"/>
</mask>
<g mask="url(#mask3_4692_38189)">
<path d="M7.72405 19.1653C7.10064 19.767 7.04357 19.8645 7.22796 20.0424C7.38601 20.195 7.51771 20.1526 7.86454 19.8306L8.18063 19.5339L8.20697 19.9534C8.25088 20.5976 8.43526 21.462 8.67673 22.1739C9.64696 25.0089 11.9606 27.2463 14.8889 28.1744C15.8942 28.4922 16.7986 28.6447 17.6766 28.6447C18.1903 28.6447 18.2474 28.6193 18.2474 28.4117C18.2474 28.1871 18.1552 28.1489 17.5493 28.1193C14.1294 27.9328 11.166 26.0344 9.66452 23.0723C9.20355 22.1655 8.86111 21.0128 8.78648 20.1272C8.77331 19.9534 8.75136 19.7416 8.73819 19.6611L8.71185 19.5127L9.04111 19.8178C9.22111 19.9873 9.4055 20.1272 9.45379 20.1272C9.60306 20.1272 9.73037 20.0043 9.73037 19.8602C9.73037 19.7416 9.65135 19.6483 9.14648 19.161C8.66356 18.6991 8.54502 18.6017 8.43526 18.6017C8.3299 18.6017 8.20697 18.6991 7.72405 19.1653Z" fill="black"/>
<path fill-rule="evenodd" clip-rule="evenodd" d="M8.04776 18.2401C8.15096 18.1751 8.2794 18.1195 8.43515 18.1195C8.66263 18.1195 8.83068 18.2356 8.95004 18.33C9.07507 18.429 9.24283 18.586 9.47963 18.8125L9.48121 18.814L9.4812 18.814C9.72745 19.0517 9.89453 19.2164 9.99746 19.3395C10.1111 19.4753 10.2124 19.6363 10.2124 19.8601C10.2124 20.2864 9.85307 20.6093 9.45368 20.6093C9.40912 20.6093 9.36896 20.6033 9.33559 20.5956C9.46652 21.3227 9.74343 22.1637 10.0942 22.8538L10.0945 22.8543C11.515 25.6567 14.3204 27.4599 17.5742 27.6378C17.7266 27.6452 17.8598 27.6538 17.9713 27.6671C18.0774 27.6798 18.1992 27.7006 18.3115 27.7475C18.4391 27.8009 18.5713 27.8957 18.6532 28.0569C18.7242 28.1965 18.7294 28.3348 18.7294 28.4116C18.7294 28.4688 18.7287 28.5953 18.6743 28.7238C18.6045 28.8883 18.4773 28.9945 18.338 29.0519C18.2249 29.0984 18.1062 29.1119 18.0173 29.1183C17.9206 29.1253 17.8053 29.1268 17.6765 29.1268C16.7405 29.1268 15.7867 28.9639 14.7435 28.6341L14.7431 28.634C11.673 27.6609 9.24153 25.3136 8.22045 22.33L8.22003 22.3287C8.02673 21.7588 7.86732 21.0941 7.78207 20.5029C7.73159 20.5309 7.67979 20.5546 7.6268 20.5722C7.49872 20.6145 7.3525 20.6262 7.20187 20.5793C7.06251 20.5359 6.96113 20.455 6.89308 20.3893M8.04776 18.2401L7.98604 18.1829L8.00164 18.2708C7.97272 18.291 7.94608 18.3114 7.92168 18.3307C7.79562 18.4306 7.62699 18.5887 7.38911 18.8183M7.38907 18.8184C7.23303 18.969 7.10458 19.0955 7.00509 19.2021L7.38907 18.8184ZM7.00509 19.2021C6.91013 19.3038 6.81761 19.4121 6.75366 19.5247L7.00509 19.2021ZM6.75366 19.5247C6.6852 19.6453 6.62027 19.8233 6.67203 20.0313L6.75366 19.5247ZM6.67203 20.0313C6.71753 20.2141 6.83522 20.3335 6.89295 20.3892L6.67203 20.0313Z" fill="black"/>
</g>
</svg>
