<svg width="72" height="72" viewBox="0 0 72 72" fill="none" xmlns="http://www.w3.org/2000/svg">
<g id="career-transition-category">
<g id="Group 1171275715">
<g id="Group 1171275712">
<rect id="Rectangle 34625002" x="32.8066" y="19.0007" width="6.46982" height="5.54556" fill="#2894B4"/>
<g id="Group 1171275711">
<g id="Group 1171275710">
<g id="Group 1171275713">
<g id="Group 1171275714">
<path id="Rectangle 34625001" d="M17.8457 12.3787H53.7543V24.3482H20.217H17.8457V12.3787Z" fill="#2894B4"/>
<path id="Rectangle 34625002_2" d="M32.207 12.3787H39.3887V27.9391H32.6813H32.207V12.3787Z" fill="#2894B4"/>
<g id="Group 1171275405">
<g id="Group">
<g id="Vector">
<mask id="path-4-outside-1_6874_46424" maskUnits="userSpaceOnUse" x="14.4492" y="3.30469" width="42" height="37" fill="black">
<rect fill="white" x="14.4492" y="3.30469" width="42" height="37"/>
<path d="M30.735 4.10792C30.1803 4.2268 29.6572 4.52797 29.2768 4.95594C28.7537 5.52657 28.6189 5.94662 28.3574 7.75361C28.2306 8.66504 28.1196 9.41795 28.1196 9.4338C28.1196 9.44173 25.9164 9.4655 23.2297 9.48135C18.4744 9.51305 18.3159 9.51306 17.8879 9.67949C16.9052 10.052 16.2077 10.686 15.7639 11.6054L15.4786 12.1998L15.4548 24.2068C15.439 33.3289 15.4548 36.301 15.5262 36.5704C15.8511 37.7989 16.7308 38.7182 17.991 39.162C18.3952 39.2968 19.1005 39.3047 35.728 39.3047C52.3556 39.3047 53.0609 39.2968 53.4651 39.162C54.7253 38.7182 55.605 37.7989 55.9299 36.5704C56.0012 36.301 56.0171 33.3289 56.0012 24.2068L55.9775 12.1998L55.6922 11.6054C55.2483 10.686 54.5509 10.052 53.5681 9.67949C53.1402 9.51306 52.9817 9.51305 48.2343 9.48135C45.5397 9.4655 43.3364 9.44173 43.3364 9.4338C43.3364 9.41795 43.2255 8.66504 43.0987 7.75361C42.8292 5.92284 42.6945 5.51072 42.1556 4.93217C41.7514 4.48834 41.2124 4.1951 40.6101 4.08415C39.9285 3.95734 31.3215 3.98112 30.735 4.10792ZM40.198 6.5331C40.4357 6.62028 40.4278 6.60443 40.6656 8.21329L40.8558 9.4655H35.728H30.6003L30.7905 8.21329C31.0283 6.62028 31.0283 6.62028 31.2343 6.5331C31.4721 6.43799 39.9444 6.43007 40.198 6.5331ZM52.6964 12.0096C53.0134 12.1205 53.2987 12.3583 53.4493 12.6515C53.6236 12.9923 53.6078 19.8002 53.4334 20.4105C53.0292 21.7816 51.8087 22.8674 50.4218 23.0972C50.1602 23.1448 47.9253 23.1765 45.2623 23.1765H40.5784L40.5467 22.0748C40.5229 20.8702 40.4754 20.7434 39.9761 20.3709C39.7621 20.2044 39.6749 20.2044 35.728 20.2044C31.7812 20.2044 31.694 20.2044 31.48 20.3709C30.9807 20.7434 30.9332 20.8702 30.9094 22.0748L30.8777 23.1765H26.1938C23.5308 23.1765 21.2959 23.1448 21.0343 23.0972C19.6474 22.8674 18.4269 21.7816 18.0227 20.4105C17.8483 19.8002 17.8325 12.9923 18.0068 12.6515C18.1574 12.3662 18.4348 12.1205 18.728 12.0175C19.0767 11.8986 52.3318 11.8907 52.6964 12.0096ZM38.1057 24.3098V25.9979L36.9644 26.6082C36.3383 26.941 35.7835 27.2184 35.728 27.2184C35.6726 27.2184 35.1178 26.941 34.4917 26.6082L33.3504 25.9979V24.3098V22.6217H35.728H38.1057V24.3098ZM18.3397 24.6981C18.5378 24.8329 18.9737 25.0469 19.3066 25.1737C20.4478 25.6175 20.6381 25.6333 25.9877 25.6333H30.8935V26.1961C30.8935 26.9569 31.0203 27.4166 31.2977 27.6464C31.4959 27.8128 33.3583 28.8431 34.8959 29.6278C35.7914 30.0874 35.6488 30.1271 38.5257 28.5895C39.3024 28.1774 40.0395 27.7494 40.1583 27.6464C40.4357 27.4166 40.5625 26.9569 40.5625 26.1961V25.6333H45.4684C50.818 25.6333 51.0082 25.6175 52.1495 25.1737C52.4824 25.0469 52.9183 24.8329 53.1164 24.6981C53.3225 24.5555 53.5047 24.4445 53.5285 24.4445C53.5444 24.4445 53.5602 27.0441 53.5602 30.2222V35.9919L53.3779 36.2534C53.2828 36.3961 53.1005 36.5942 52.9817 36.6814L52.7598 36.8478H35.728H18.6963L18.4744 36.6814C18.3555 36.5942 18.1733 36.3961 18.0702 36.2534L17.8959 35.9919V30.2222C17.8959 27.0441 17.9117 24.4445 17.9276 24.4445C17.9513 24.4445 18.1336 24.5555 18.3397 24.6981Z"/>
</mask>
<path d="M30.735 4.10792C30.1803 4.2268 29.6572 4.52797 29.2768 4.95594C28.7537 5.52657 28.6189 5.94662 28.3574 7.75361C28.2306 8.66504 28.1196 9.41795 28.1196 9.4338C28.1196 9.44173 25.9164 9.4655 23.2297 9.48135C18.4744 9.51305 18.3159 9.51306 17.8879 9.67949C16.9052 10.052 16.2077 10.686 15.7639 11.6054L15.4786 12.1998L15.4548 24.2068C15.439 33.3289 15.4548 36.301 15.5262 36.5704C15.8511 37.7989 16.7308 38.7182 17.991 39.162C18.3952 39.2968 19.1005 39.3047 35.728 39.3047C52.3556 39.3047 53.0609 39.2968 53.4651 39.162C54.7253 38.7182 55.605 37.7989 55.9299 36.5704C56.0012 36.301 56.0171 33.3289 56.0012 24.2068L55.9775 12.1998L55.6922 11.6054C55.2483 10.686 54.5509 10.052 53.5681 9.67949C53.1402 9.51306 52.9817 9.51305 48.2343 9.48135C45.5397 9.4655 43.3364 9.44173 43.3364 9.4338C43.3364 9.41795 43.2255 8.66504 43.0987 7.75361C42.8292 5.92284 42.6945 5.51072 42.1556 4.93217C41.7514 4.48834 41.2124 4.1951 40.6101 4.08415C39.9285 3.95734 31.3215 3.98112 30.735 4.10792ZM40.198 6.5331C40.4357 6.62028 40.4278 6.60443 40.6656 8.21329L40.8558 9.4655H35.728H30.6003L30.7905 8.21329C31.0283 6.62028 31.0283 6.62028 31.2343 6.5331C31.4721 6.43799 39.9444 6.43007 40.198 6.5331ZM52.6964 12.0096C53.0134 12.1205 53.2987 12.3583 53.4493 12.6515C53.6236 12.9923 53.6078 19.8002 53.4334 20.4105C53.0292 21.7816 51.8087 22.8674 50.4218 23.0972C50.1602 23.1448 47.9253 23.1765 45.2623 23.1765H40.5784L40.5467 22.0748C40.5229 20.8702 40.4754 20.7434 39.9761 20.3709C39.7621 20.2044 39.6749 20.2044 35.728 20.2044C31.7812 20.2044 31.694 20.2044 31.48 20.3709C30.9807 20.7434 30.9332 20.8702 30.9094 22.0748L30.8777 23.1765H26.1938C23.5308 23.1765 21.2959 23.1448 21.0343 23.0972C19.6474 22.8674 18.4269 21.7816 18.0227 20.4105C17.8483 19.8002 17.8325 12.9923 18.0068 12.6515C18.1574 12.3662 18.4348 12.1205 18.728 12.0175C19.0767 11.8986 52.3318 11.8907 52.6964 12.0096ZM38.1057 24.3098V25.9979L36.9644 26.6082C36.3383 26.941 35.7835 27.2184 35.728 27.2184C35.6726 27.2184 35.1178 26.941 34.4917 26.6082L33.3504 25.9979V24.3098V22.6217H35.728H38.1057V24.3098ZM18.3397 24.6981C18.5378 24.8329 18.9737 25.0469 19.3066 25.1737C20.4478 25.6175 20.6381 25.6333 25.9877 25.6333H30.8935V26.1961C30.8935 26.9569 31.0203 27.4166 31.2977 27.6464C31.4959 27.8128 33.3583 28.8431 34.8959 29.6278C35.7914 30.0874 35.6488 30.1271 38.5257 28.5895C39.3024 28.1774 40.0395 27.7494 40.1583 27.6464C40.4357 27.4166 40.5625 26.9569 40.5625 26.1961V25.6333H45.4684C50.818 25.6333 51.0082 25.6175 52.1495 25.1737C52.4824 25.0469 52.9183 24.8329 53.1164 24.6981C53.3225 24.5555 53.5047 24.4445 53.5285 24.4445C53.5444 24.4445 53.5602 27.0441 53.5602 30.2222V35.9919L53.3779 36.2534C53.2828 36.3961 53.1005 36.5942 52.9817 36.6814L52.7598 36.8478H35.728H18.6963L18.4744 36.6814C18.3555 36.5942 18.1733 36.3961 18.0702 36.2534L17.8959 35.9919V30.2222C17.8959 27.0441 17.9117 24.4445 17.9276 24.4445C17.9513 24.4445 18.1336 24.5555 18.3397 24.6981Z" fill="#0D313B"/>
<path d="M30.735 4.10792C30.1803 4.2268 29.6572 4.52797 29.2768 4.95594C28.7537 5.52657 28.6189 5.94662 28.3574 7.75361C28.2306 8.66504 28.1196 9.41795 28.1196 9.4338C28.1196 9.44173 25.9164 9.4655 23.2297 9.48135C18.4744 9.51305 18.3159 9.51306 17.8879 9.67949C16.9052 10.052 16.2077 10.686 15.7639 11.6054L15.4786 12.1998L15.4548 24.2068C15.439 33.3289 15.4548 36.301 15.5262 36.5704C15.8511 37.7989 16.7308 38.7182 17.991 39.162C18.3952 39.2968 19.1005 39.3047 35.728 39.3047C52.3556 39.3047 53.0609 39.2968 53.4651 39.162C54.7253 38.7182 55.605 37.7989 55.9299 36.5704C56.0012 36.301 56.0171 33.3289 56.0012 24.2068L55.9775 12.1998L55.6922 11.6054C55.2483 10.686 54.5509 10.052 53.5681 9.67949C53.1402 9.51306 52.9817 9.51305 48.2343 9.48135C45.5397 9.4655 43.3364 9.44173 43.3364 9.4338C43.3364 9.41795 43.2255 8.66504 43.0987 7.75361C42.8292 5.92284 42.6945 5.51072 42.1556 4.93217C41.7514 4.48834 41.2124 4.1951 40.6101 4.08415C39.9285 3.95734 31.3215 3.98112 30.735 4.10792ZM40.198 6.5331C40.4357 6.62028 40.4278 6.60443 40.6656 8.21329L40.8558 9.4655H35.728H30.6003L30.7905 8.21329C31.0283 6.62028 31.0283 6.62028 31.2343 6.5331C31.4721 6.43799 39.9444 6.43007 40.198 6.5331ZM52.6964 12.0096C53.0134 12.1205 53.2987 12.3583 53.4493 12.6515C53.6236 12.9923 53.6078 19.8002 53.4334 20.4105C53.0292 21.7816 51.8087 22.8674 50.4218 23.0972C50.1602 23.1448 47.9253 23.1765 45.2623 23.1765H40.5784L40.5467 22.0748C40.5229 20.8702 40.4754 20.7434 39.9761 20.3709C39.7621 20.2044 39.6749 20.2044 35.728 20.2044C31.7812 20.2044 31.694 20.2044 31.48 20.3709C30.9807 20.7434 30.9332 20.8702 30.9094 22.0748L30.8777 23.1765H26.1938C23.5308 23.1765 21.2959 23.1448 21.0343 23.0972C19.6474 22.8674 18.4269 21.7816 18.0227 20.4105C17.8483 19.8002 17.8325 12.9923 18.0068 12.6515C18.1574 12.3662 18.4348 12.1205 18.728 12.0175C19.0767 11.8986 52.3318 11.8907 52.6964 12.0096ZM38.1057 24.3098V25.9979L36.9644 26.6082C36.3383 26.941 35.7835 27.2184 35.728 27.2184C35.6726 27.2184 35.1178 26.941 34.4917 26.6082L33.3504 25.9979V24.3098V22.6217H35.728H38.1057V24.3098ZM18.3397 24.6981C18.5378 24.8329 18.9737 25.0469 19.3066 25.1737C20.4478 25.6175 20.6381 25.6333 25.9877 25.6333H30.8935V26.1961C30.8935 26.9569 31.0203 27.4166 31.2977 27.6464C31.4959 27.8128 33.3583 28.8431 34.8959 29.6278C35.7914 30.0874 35.6488 30.1271 38.5257 28.5895C39.3024 28.1774 40.0395 27.7494 40.1583 27.6464C40.4357 27.4166 40.5625 26.9569 40.5625 26.1961V25.6333H45.4684C50.818 25.6333 51.0082 25.6175 52.1495 25.1737C52.4824 25.0469 52.9183 24.8329 53.1164 24.6981C53.3225 24.5555 53.5047 24.4445 53.5285 24.4445C53.5444 24.4445 53.5602 27.0441 53.5602 30.2222V35.9919L53.3779 36.2534C53.2828 36.3961 53.1005 36.5942 52.9817 36.6814L52.7598 36.8478H35.728H18.6963L18.4744 36.6814C18.3555 36.5942 18.1733 36.3961 18.0702 36.2534L17.8959 35.9919V30.2222C17.8959 27.0441 17.9117 24.4445 17.9276 24.4445C17.9513 24.4445 18.1336 24.5555 18.3397 24.6981Z" stroke="#0D313B" stroke-width="0.613692" mask="url(#path-4-outside-1_6874_46424)"/>
</g>
</g>
</g>
</g>
</g>
</g>
</g>
</g>
<g id="Group 1171275708">
<g id="Group 1171275707">
<rect id="Rectangle 34624998" x="5" y="51.8916" width="16.1082" height="16.1082" rx="4.31801" fill="#2894B4" stroke="#0D313B" stroke-width="1.56012"/>
<rect id="Rectangle 34624999" x="50.4336" y="51.8914" width="16.1082" height="16.1082" rx="4.31801" fill="#2894B4" stroke="#0D313B" stroke-width="1.56012"/>
<line id="Line 18" x1="35.8795" y1="39.5" x2="35.8795" y2="47.1002" stroke="#0D313B" stroke-width="2.77076"/>
<g id="Group 1171275709">
<path id="Line 21" d="M59.7793 45.6387L11.6972 45.6387" stroke="#0D313B" stroke-width="2.77076"/>
<line id="Line 19" x1="13.0807" y1="45.5801" x2="13.0807" y2="51.6602" stroke="#0D313B" stroke-width="2.77076"/>
<path id="Line 20" d="M58.6973 44.2568L58.6973 51.8591" stroke="#0D313B" stroke-width="2.77076"/>
</g>
</g>
</g>
</g>
</g>
</svg>
