<svg width="72" height="72" viewBox="0 0 72 72" fill="none" xmlns="http://www.w3.org/2000/svg">
<g id="career-transition-analyst">
<g id="Group 1171275405">
<path id="Vector 780" d="M61.8814 17.7644L7.29492 16.8232V36.1167H28.4707L29.4118 39.4107L34.5881 42.7047L38.8233 40.8225L40.235 36.1167H54.8228L61.8814 33.7639V17.7644Z" fill="#E60000"/>
<g id="Group">
<g id="Vector">
<mask id="path-2-outside-1_6295_46355" maskUnits="userSpaceOnUse" x="3" y="5.43164" width="62" height="54" fill="black">
<rect fill="white" x="3" y="5.43164" width="62" height="54"/>
<path d="M26.7014 6.15993C25.8775 6.33648 25.1006 6.78375 24.5357 7.41935C23.7588 8.26681 23.5587 8.89063 23.1703 11.5742C22.982 12.9278 22.8172 14.046 22.8172 14.0695C22.8172 14.0813 19.5451 14.1166 15.555 14.1402C8.49281 14.1872 8.2574 14.1872 7.62181 14.4344C6.1623 14.9876 5.12652 15.9292 4.46738 17.2946L4.04365 18.1774L4.00834 36.0093C3.9848 49.5569 4.00834 53.9707 4.11427 54.3709C4.59685 56.1953 5.90335 57.5606 7.77482 58.2198C8.37511 58.4199 9.42266 58.4316 34.1167 58.4316C58.8107 58.4316 59.8582 58.4199 60.4585 58.2198C62.33 57.5606 63.6365 56.1953 64.119 54.3709C64.225 53.9707 64.2485 49.5569 64.225 36.0093L64.1897 18.1774L63.7659 17.2946C63.1068 15.9292 62.071 14.9876 60.6115 14.4344C59.9759 14.1872 59.7405 14.1872 52.6901 14.1402C48.6882 14.1166 45.4161 14.0813 45.4161 14.0695C45.4161 14.046 45.2513 12.9278 45.063 11.5742C44.6628 8.85532 44.4627 8.24327 43.6623 7.38404C43.062 6.7249 42.2617 6.2894 41.3671 6.12462C40.3549 5.93629 27.5724 5.97161 26.7014 6.15993ZM40.7551 9.76163C41.1082 9.8911 41.0964 9.86756 41.4495 12.2569L41.732 14.1166H34.1167H26.5013L26.7838 12.2569C27.1369 9.8911 27.1369 9.8911 27.4429 9.76163C27.796 9.62038 40.3784 9.60862 40.7551 9.76163ZM59.3168 17.8949C59.7876 18.0597 60.2113 18.4128 60.4349 18.8483C60.6939 19.3544 60.6703 29.465 60.4114 30.3713C59.8111 32.4076 57.9985 34.0201 55.9387 34.3615C55.5503 34.4321 52.2311 34.4792 48.2763 34.4792H41.3201L41.273 32.8431C41.2377 31.054 41.167 30.8657 40.4255 30.3125C40.1077 30.0653 39.9782 30.0653 34.1167 30.0653C28.2551 30.0653 28.1256 30.0653 27.8078 30.3125C27.0663 30.8657 26.9957 31.054 26.9603 32.8431L26.9133 34.4792H19.957C16.0022 34.4792 12.683 34.4321 12.2946 34.3615C10.2348 34.0201 8.42219 32.4076 7.8219 30.3713C7.56296 29.465 7.53942 19.3544 7.79836 18.8483C8.022 18.4245 8.43396 18.0597 8.86946 17.9066C9.38735 17.7301 58.7753 17.7183 59.3168 17.8949ZM37.6477 36.1623V38.6694L35.9528 39.5757C35.023 40.07 34.199 40.482 34.1167 40.482C34.0343 40.482 33.2103 40.07 32.2805 39.5757L30.5856 38.6694V36.1623V33.6553H34.1167H37.6477V36.1623ZM8.29271 36.7391C8.58697 36.9392 9.23434 37.2569 9.72869 37.4453C11.4236 38.1044 11.7061 38.1279 19.651 38.1279H26.9368V38.9636C26.9368 40.0936 27.1251 40.7763 27.5371 41.1176C27.8313 41.3648 30.5973 42.8949 32.8808 44.0602C34.2108 44.7428 33.999 44.8017 38.2716 42.5183C39.425 41.9062 40.5197 41.2706 40.6962 41.1176C41.1082 40.7763 41.2965 40.0936 41.2965 38.9636V38.1279H48.5823C56.5272 38.1279 56.8097 38.1044 58.5046 37.4453C58.999 37.2569 59.6463 36.9392 59.9406 36.7391C60.2466 36.5272 60.5173 36.3624 60.5526 36.3624C60.5762 36.3624 60.5997 40.2231 60.5997 44.9429V53.5117L60.329 53.9001C60.1878 54.112 59.9171 54.4062 59.7405 54.5357L59.4109 54.7829H34.1167H8.82238L8.49281 54.5357C8.31626 54.4062 8.04554 54.112 7.89253 53.9001L7.63358 53.5117V44.9429C7.63358 40.2231 7.65712 36.3624 7.68066 36.3624C7.71597 36.3624 7.98669 36.5272 8.29271 36.7391Z"/>
</mask>
<path d="M26.7014 6.15993C25.8775 6.33648 25.1006 6.78375 24.5357 7.41935C23.7588 8.26681 23.5587 8.89063 23.1703 11.5742C22.982 12.9278 22.8172 14.046 22.8172 14.0695C22.8172 14.0813 19.5451 14.1166 15.555 14.1402C8.49281 14.1872 8.2574 14.1872 7.62181 14.4344C6.1623 14.9876 5.12652 15.9292 4.46738 17.2946L4.04365 18.1774L4.00834 36.0093C3.9848 49.5569 4.00834 53.9707 4.11427 54.3709C4.59685 56.1953 5.90335 57.5606 7.77482 58.2198C8.37511 58.4199 9.42266 58.4316 34.1167 58.4316C58.8107 58.4316 59.8582 58.4199 60.4585 58.2198C62.33 57.5606 63.6365 56.1953 64.119 54.3709C64.225 53.9707 64.2485 49.5569 64.225 36.0093L64.1897 18.1774L63.7659 17.2946C63.1068 15.9292 62.071 14.9876 60.6115 14.4344C59.9759 14.1872 59.7405 14.1872 52.6901 14.1402C48.6882 14.1166 45.4161 14.0813 45.4161 14.0695C45.4161 14.046 45.2513 12.9278 45.063 11.5742C44.6628 8.85532 44.4627 8.24327 43.6623 7.38404C43.062 6.7249 42.2617 6.2894 41.3671 6.12462C40.3549 5.93629 27.5724 5.97161 26.7014 6.15993ZM40.7551 9.76163C41.1082 9.8911 41.0964 9.86756 41.4495 12.2569L41.732 14.1166H34.1167H26.5013L26.7838 12.2569C27.1369 9.8911 27.1369 9.8911 27.4429 9.76163C27.796 9.62038 40.3784 9.60862 40.7551 9.76163ZM59.3168 17.8949C59.7876 18.0597 60.2113 18.4128 60.4349 18.8483C60.6939 19.3544 60.6703 29.465 60.4114 30.3713C59.8111 32.4076 57.9985 34.0201 55.9387 34.3615C55.5503 34.4321 52.2311 34.4792 48.2763 34.4792H41.3201L41.273 32.8431C41.2377 31.054 41.167 30.8657 40.4255 30.3125C40.1077 30.0653 39.9782 30.0653 34.1167 30.0653C28.2551 30.0653 28.1256 30.0653 27.8078 30.3125C27.0663 30.8657 26.9957 31.054 26.9603 32.8431L26.9133 34.4792H19.957C16.0022 34.4792 12.683 34.4321 12.2946 34.3615C10.2348 34.0201 8.42219 32.4076 7.8219 30.3713C7.56296 29.465 7.53942 19.3544 7.79836 18.8483C8.022 18.4245 8.43396 18.0597 8.86946 17.9066C9.38735 17.7301 58.7753 17.7183 59.3168 17.8949ZM37.6477 36.1623V38.6694L35.9528 39.5757C35.023 40.07 34.199 40.482 34.1167 40.482C34.0343 40.482 33.2103 40.07 32.2805 39.5757L30.5856 38.6694V36.1623V33.6553H34.1167H37.6477V36.1623ZM8.29271 36.7391C8.58697 36.9392 9.23434 37.2569 9.72869 37.4453C11.4236 38.1044 11.7061 38.1279 19.651 38.1279H26.9368V38.9636C26.9368 40.0936 27.1251 40.7763 27.5371 41.1176C27.8313 41.3648 30.5973 42.8949 32.8808 44.0602C34.2108 44.7428 33.999 44.8017 38.2716 42.5183C39.425 41.9062 40.5197 41.2706 40.6962 41.1176C41.1082 40.7763 41.2965 40.0936 41.2965 38.9636V38.1279H48.5823C56.5272 38.1279 56.8097 38.1044 58.5046 37.4453C58.999 37.2569 59.6463 36.9392 59.9406 36.7391C60.2466 36.5272 60.5173 36.3624 60.5526 36.3624C60.5762 36.3624 60.5997 40.2231 60.5997 44.9429V53.5117L60.329 53.9001C60.1878 54.112 59.9171 54.4062 59.7405 54.5357L59.4109 54.7829H34.1167H8.82238L8.49281 54.5357C8.31626 54.4062 8.04554 54.112 7.89253 53.9001L7.63358 53.5117V44.9429C7.63358 40.2231 7.65712 36.3624 7.68066 36.3624C7.71597 36.3624 7.98669 36.5272 8.29271 36.7391Z" fill="#4D0000"/>
<path d="M26.7014 6.15993C25.8775 6.33648 25.1006 6.78375 24.5357 7.41935C23.7588 8.26681 23.5587 8.89063 23.1703 11.5742C22.982 12.9278 22.8172 14.046 22.8172 14.0695C22.8172 14.0813 19.5451 14.1166 15.555 14.1402C8.49281 14.1872 8.2574 14.1872 7.62181 14.4344C6.1623 14.9876 5.12652 15.9292 4.46738 17.2946L4.04365 18.1774L4.00834 36.0093C3.9848 49.5569 4.00834 53.9707 4.11427 54.3709C4.59685 56.1953 5.90335 57.5606 7.77482 58.2198C8.37511 58.4199 9.42266 58.4316 34.1167 58.4316C58.8107 58.4316 59.8582 58.4199 60.4585 58.2198C62.33 57.5606 63.6365 56.1953 64.119 54.3709C64.225 53.9707 64.2485 49.5569 64.225 36.0093L64.1897 18.1774L63.7659 17.2946C63.1068 15.9292 62.071 14.9876 60.6115 14.4344C59.9759 14.1872 59.7405 14.1872 52.6901 14.1402C48.6882 14.1166 45.4161 14.0813 45.4161 14.0695C45.4161 14.046 45.2513 12.9278 45.063 11.5742C44.6628 8.85532 44.4627 8.24327 43.6623 7.38404C43.062 6.7249 42.2617 6.2894 41.3671 6.12462C40.3549 5.93629 27.5724 5.97161 26.7014 6.15993ZM40.7551 9.76163C41.1082 9.8911 41.0964 9.86756 41.4495 12.2569L41.732 14.1166H34.1167H26.5013L26.7838 12.2569C27.1369 9.8911 27.1369 9.8911 27.4429 9.76163C27.796 9.62038 40.3784 9.60862 40.7551 9.76163ZM59.3168 17.8949C59.7876 18.0597 60.2113 18.4128 60.4349 18.8483C60.6939 19.3544 60.6703 29.465 60.4114 30.3713C59.8111 32.4076 57.9985 34.0201 55.9387 34.3615C55.5503 34.4321 52.2311 34.4792 48.2763 34.4792H41.3201L41.273 32.8431C41.2377 31.054 41.167 30.8657 40.4255 30.3125C40.1077 30.0653 39.9782 30.0653 34.1167 30.0653C28.2551 30.0653 28.1256 30.0653 27.8078 30.3125C27.0663 30.8657 26.9957 31.054 26.9603 32.8431L26.9133 34.4792H19.957C16.0022 34.4792 12.683 34.4321 12.2946 34.3615C10.2348 34.0201 8.42219 32.4076 7.8219 30.3713C7.56296 29.465 7.53942 19.3544 7.79836 18.8483C8.022 18.4245 8.43396 18.0597 8.86946 17.9066C9.38735 17.7301 58.7753 17.7183 59.3168 17.8949ZM37.6477 36.1623V38.6694L35.9528 39.5757C35.023 40.07 34.199 40.482 34.1167 40.482C34.0343 40.482 33.2103 40.07 32.2805 39.5757L30.5856 38.6694V36.1623V33.6553H34.1167H37.6477V36.1623ZM8.29271 36.7391C8.58697 36.9392 9.23434 37.2569 9.72869 37.4453C11.4236 38.1044 11.7061 38.1279 19.651 38.1279H26.9368V38.9636C26.9368 40.0936 27.1251 40.7763 27.5371 41.1176C27.8313 41.3648 30.5973 42.8949 32.8808 44.0602C34.2108 44.7428 33.999 44.8017 38.2716 42.5183C39.425 41.9062 40.5197 41.2706 40.6962 41.1176C41.1082 40.7763 41.2965 40.0936 41.2965 38.9636V38.1279H48.5823C56.5272 38.1279 56.8097 38.1044 58.5046 37.4453C58.999 37.2569 59.6463 36.9392 59.9406 36.7391C60.2466 36.5272 60.5173 36.3624 60.5526 36.3624C60.5762 36.3624 60.5997 40.2231 60.5997 44.9429V53.5117L60.329 53.9001C60.1878 54.112 59.9171 54.4062 59.7405 54.5357L59.4109 54.7829H34.1167H8.82238L8.49281 54.5357C8.31626 54.4062 8.04554 54.112 7.89253 53.9001L7.63358 53.5117V44.9429C7.63358 40.2231 7.65712 36.3624 7.68066 36.3624C7.71597 36.3624 7.98669 36.5272 8.29271 36.7391Z" stroke="#4D0000" mask="url(#path-2-outside-1_6295_46355)"/>
</g>
</g>
</g>
<g id="Group 1171275298">
<path id="Icon" fill-rule="evenodd" clip-rule="evenodd" d="M49.3521 49.5801C52.9346 49.5315 56.1986 48.1646 58.6812 45.9426C61.1639 48.1646 64.4279 49.5315 68.0104 49.5801C68.1405 50.355 68.2082 51.1512 68.2082 51.9631C68.2082 58.1852 64.2316 63.4786 58.6812 65.4403C53.1309 63.4786 49.1543 58.1852 49.1543 51.9631C49.1543 51.1512 49.222 50.355 49.3521 49.5801ZM63.0959 53.996C63.561 53.531 63.561 52.777 63.0959 52.3119C62.6309 51.8468 61.8768 51.8468 61.4118 52.3119L57.4904 56.2333L55.9507 54.6936C55.4856 54.2286 54.7316 54.2286 54.2666 54.6936C53.8015 55.1587 53.8015 55.9127 54.2666 56.3778L56.6483 58.7595C57.1134 59.2246 57.8674 59.2246 58.3324 58.7595L63.0959 53.996Z" fill="#FFCDCD"/>
<rect id="Rectangle 34624875" x="52.3984" y="51.5964" width="12.8788" height="7.85291" fill="#FFCDCD"/>
<path id="Icon (Stroke)" fill-rule="evenodd" clip-rule="evenodd" d="M58.2609 45.1601C58.4995 44.9466 58.8604 44.9466 59.0989 45.1601C61.3593 47.1833 64.3428 48.4127 67.6149 48.4127C67.8357 48.4127 68.0552 48.4071 68.2732 48.3961C68.571 48.381 68.8385 48.5774 68.9132 48.8661C69.2049 49.9933 69.36 51.1748 69.36 52.3916C69.36 58.9302 64.8879 64.4227 58.8366 65.9802C58.7339 66.0066 58.6261 66.0066 58.5234 65.9802C52.472 64.4227 48 58.9302 48 52.3916C48 51.1747 48.1551 49.9932 48.4468 48.8659C48.5216 48.5772 48.789 48.3808 49.0868 48.3959C49.3048 48.407 49.5243 48.4126 49.7451 48.4126C53.0171 48.4126 56.0005 47.1832 58.2609 45.1601ZM58.6799 46.4568C56.2534 48.463 53.1394 49.6691 49.7451 49.6691C49.6791 49.6691 49.6132 49.6686 49.5474 49.6677C49.3569 50.5449 49.2565 51.4562 49.2565 52.3916C49.2565 58.2865 53.2499 63.2502 58.68 64.722C64.11 63.2502 68.1035 58.2865 68.1035 52.3916C68.1035 51.4563 68.0031 50.545 67.8126 49.6678C67.7468 49.6687 67.6809 49.6692 67.6149 49.6692C64.2205 49.6692 61.1064 48.4631 58.6799 46.4568ZM62.4748 53.0642C62.7201 53.3096 62.7201 53.7074 62.4748 53.9527L58.0074 58.4202C57.8895 58.538 57.7297 58.6042 57.5631 58.6042C57.3965 58.6042 57.2367 58.538 57.1189 58.4202L54.8852 56.1864C54.6398 55.9411 54.6398 55.5433 54.8852 55.298C55.1305 55.0526 55.5283 55.0526 55.7736 55.298L57.5631 57.0875L61.5863 53.0643C61.8317 52.8189 62.2295 52.8189 62.4748 53.0642Z" fill="#4D0000" stroke="#4D0000" stroke-linecap="round" stroke-linejoin="round"/>
</g>
</g>
</svg>
