<svg width="72" height="72" viewBox="0 0 72 72" fill="none" xmlns="http://www.w3.org/2000/svg">
<g id="career-transition-type" clip-path="url(#clip0_6295_46298)">
<g id="Group 1171275405">
<path id="Vector 780" d="M61.8814 17.7644L7.29492 16.8232V36.1167H28.4707L29.4118 39.4107L34.5881 42.7047L38.8233 40.8225L40.235 36.1167H54.8228L61.8814 33.7639V17.7644Z" fill="#68D4F4"/>
<g id="Group">
<g id="Vector">
<mask id="path-2-outside-1_6295_46298" maskUnits="userSpaceOnUse" x="3" y="5.43164" width="62" height="54" fill="black">
<rect fill="white" x="3" y="5.43164" width="62" height="54"/>
<path d="M26.7014 6.15993C25.8775 6.33648 25.1006 6.78375 24.5357 7.41935C23.7588 8.26681 23.5587 8.89063 23.1703 11.5742C22.982 12.9278 22.8172 14.046 22.8172 14.0695C22.8172 14.0813 19.5451 14.1166 15.555 14.1402C8.49281 14.1872 8.2574 14.1872 7.62181 14.4344C6.1623 14.9876 5.12652 15.9292 4.46738 17.2946L4.04365 18.1774L4.00834 36.0093C3.9848 49.5569 4.00834 53.9707 4.11427 54.3709C4.59685 56.1953 5.90335 57.5606 7.77482 58.2198C8.37511 58.4199 9.42266 58.4316 34.1167 58.4316C58.8107 58.4316 59.8582 58.4199 60.4585 58.2198C62.33 57.5606 63.6365 56.1953 64.119 54.3709C64.225 53.9707 64.2485 49.5569 64.225 36.0093L64.1897 18.1774L63.7659 17.2946C63.1068 15.9292 62.071 14.9876 60.6115 14.4344C59.9759 14.1872 59.7405 14.1872 52.6901 14.1402C48.6882 14.1166 45.4161 14.0813 45.4161 14.0695C45.4161 14.046 45.2513 12.9278 45.063 11.5742C44.6628 8.85532 44.4627 8.24327 43.6623 7.38404C43.062 6.7249 42.2617 6.2894 41.3671 6.12462C40.3549 5.93629 27.5724 5.97161 26.7014 6.15993ZM40.7551 9.76163C41.1082 9.8911 41.0964 9.86756 41.4495 12.2569L41.732 14.1166H34.1167H26.5013L26.7838 12.2569C27.1369 9.8911 27.1369 9.8911 27.4429 9.76163C27.796 9.62038 40.3784 9.60862 40.7551 9.76163ZM59.3168 17.8949C59.7876 18.0597 60.2113 18.4128 60.4349 18.8483C60.6939 19.3544 60.6703 29.465 60.4114 30.3713C59.8111 32.4076 57.9985 34.0201 55.9387 34.3615C55.5503 34.4321 52.2311 34.4792 48.2763 34.4792H41.3201L41.273 32.8431C41.2377 31.054 41.167 30.8657 40.4255 30.3125C40.1077 30.0653 39.9782 30.0653 34.1167 30.0653C28.2551 30.0653 28.1256 30.0653 27.8078 30.3125C27.0663 30.8657 26.9957 31.054 26.9603 32.8431L26.9133 34.4792H19.957C16.0022 34.4792 12.683 34.4321 12.2946 34.3615C10.2348 34.0201 8.42219 32.4076 7.8219 30.3713C7.56296 29.465 7.53942 19.3544 7.79836 18.8483C8.022 18.4245 8.43396 18.0597 8.86946 17.9066C9.38735 17.7301 58.7753 17.7183 59.3168 17.8949ZM37.6477 36.1623V38.6694L35.9528 39.5757C35.023 40.07 34.199 40.482 34.1167 40.482C34.0343 40.482 33.2103 40.07 32.2805 39.5757L30.5856 38.6694V36.1623V33.6553H34.1167H37.6477V36.1623ZM8.29271 36.7391C8.58697 36.9392 9.23434 37.2569 9.72869 37.4453C11.4236 38.1044 11.7061 38.1279 19.651 38.1279H26.9368V38.9636C26.9368 40.0936 27.1251 40.7763 27.5371 41.1176C27.8313 41.3648 30.5973 42.8949 32.8808 44.0602C34.2108 44.7428 33.999 44.8017 38.2716 42.5183C39.425 41.9062 40.5197 41.2706 40.6962 41.1176C41.1082 40.7763 41.2965 40.0936 41.2965 38.9636V38.1279H48.5823C56.5272 38.1279 56.8097 38.1044 58.5046 37.4453C58.999 37.2569 59.6463 36.9392 59.9406 36.7391C60.2466 36.5272 60.5173 36.3624 60.5526 36.3624C60.5762 36.3624 60.5997 40.2231 60.5997 44.9429V53.5117L60.329 53.9001C60.1878 54.112 59.9171 54.4062 59.7405 54.5357L59.4109 54.7829H34.1167H8.82238L8.49281 54.5357C8.31626 54.4062 8.04554 54.112 7.89253 53.9001L7.63358 53.5117V44.9429C7.63358 40.2231 7.65712 36.3624 7.68066 36.3624C7.71597 36.3624 7.98669 36.5272 8.29271 36.7391Z"/>
</mask>
<path d="M26.7014 6.15993C25.8775 6.33648 25.1006 6.78375 24.5357 7.41935C23.7588 8.26681 23.5587 8.89063 23.1703 11.5742C22.982 12.9278 22.8172 14.046 22.8172 14.0695C22.8172 14.0813 19.5451 14.1166 15.555 14.1402C8.49281 14.1872 8.2574 14.1872 7.62181 14.4344C6.1623 14.9876 5.12652 15.9292 4.46738 17.2946L4.04365 18.1774L4.00834 36.0093C3.9848 49.5569 4.00834 53.9707 4.11427 54.3709C4.59685 56.1953 5.90335 57.5606 7.77482 58.2198C8.37511 58.4199 9.42266 58.4316 34.1167 58.4316C58.8107 58.4316 59.8582 58.4199 60.4585 58.2198C62.33 57.5606 63.6365 56.1953 64.119 54.3709C64.225 53.9707 64.2485 49.5569 64.225 36.0093L64.1897 18.1774L63.7659 17.2946C63.1068 15.9292 62.071 14.9876 60.6115 14.4344C59.9759 14.1872 59.7405 14.1872 52.6901 14.1402C48.6882 14.1166 45.4161 14.0813 45.4161 14.0695C45.4161 14.046 45.2513 12.9278 45.063 11.5742C44.6628 8.85532 44.4627 8.24327 43.6623 7.38404C43.062 6.7249 42.2617 6.2894 41.3671 6.12462C40.3549 5.93629 27.5724 5.97161 26.7014 6.15993ZM40.7551 9.76163C41.1082 9.8911 41.0964 9.86756 41.4495 12.2569L41.732 14.1166H34.1167H26.5013L26.7838 12.2569C27.1369 9.8911 27.1369 9.8911 27.4429 9.76163C27.796 9.62038 40.3784 9.60862 40.7551 9.76163ZM59.3168 17.8949C59.7876 18.0597 60.2113 18.4128 60.4349 18.8483C60.6939 19.3544 60.6703 29.465 60.4114 30.3713C59.8111 32.4076 57.9985 34.0201 55.9387 34.3615C55.5503 34.4321 52.2311 34.4792 48.2763 34.4792H41.3201L41.273 32.8431C41.2377 31.054 41.167 30.8657 40.4255 30.3125C40.1077 30.0653 39.9782 30.0653 34.1167 30.0653C28.2551 30.0653 28.1256 30.0653 27.8078 30.3125C27.0663 30.8657 26.9957 31.054 26.9603 32.8431L26.9133 34.4792H19.957C16.0022 34.4792 12.683 34.4321 12.2946 34.3615C10.2348 34.0201 8.42219 32.4076 7.8219 30.3713C7.56296 29.465 7.53942 19.3544 7.79836 18.8483C8.022 18.4245 8.43396 18.0597 8.86946 17.9066C9.38735 17.7301 58.7753 17.7183 59.3168 17.8949ZM37.6477 36.1623V38.6694L35.9528 39.5757C35.023 40.07 34.199 40.482 34.1167 40.482C34.0343 40.482 33.2103 40.07 32.2805 39.5757L30.5856 38.6694V36.1623V33.6553H34.1167H37.6477V36.1623ZM8.29271 36.7391C8.58697 36.9392 9.23434 37.2569 9.72869 37.4453C11.4236 38.1044 11.7061 38.1279 19.651 38.1279H26.9368V38.9636C26.9368 40.0936 27.1251 40.7763 27.5371 41.1176C27.8313 41.3648 30.5973 42.8949 32.8808 44.0602C34.2108 44.7428 33.999 44.8017 38.2716 42.5183C39.425 41.9062 40.5197 41.2706 40.6962 41.1176C41.1082 40.7763 41.2965 40.0936 41.2965 38.9636V38.1279H48.5823C56.5272 38.1279 56.8097 38.1044 58.5046 37.4453C58.999 37.2569 59.6463 36.9392 59.9406 36.7391C60.2466 36.5272 60.5173 36.3624 60.5526 36.3624C60.5762 36.3624 60.5997 40.2231 60.5997 44.9429V53.5117L60.329 53.9001C60.1878 54.112 59.9171 54.4062 59.7405 54.5357L59.4109 54.7829H34.1167H8.82238L8.49281 54.5357C8.31626 54.4062 8.04554 54.112 7.89253 53.9001L7.63358 53.5117V44.9429C7.63358 40.2231 7.65712 36.3624 7.68066 36.3624C7.71597 36.3624 7.98669 36.5272 8.29271 36.7391Z" fill="#0D313B"/>
<path d="M26.7014 6.15993C25.8775 6.33648 25.1006 6.78375 24.5357 7.41935C23.7588 8.26681 23.5587 8.89063 23.1703 11.5742C22.982 12.9278 22.8172 14.046 22.8172 14.0695C22.8172 14.0813 19.5451 14.1166 15.555 14.1402C8.49281 14.1872 8.2574 14.1872 7.62181 14.4344C6.1623 14.9876 5.12652 15.9292 4.46738 17.2946L4.04365 18.1774L4.00834 36.0093C3.9848 49.5569 4.00834 53.9707 4.11427 54.3709C4.59685 56.1953 5.90335 57.5606 7.77482 58.2198C8.37511 58.4199 9.42266 58.4316 34.1167 58.4316C58.8107 58.4316 59.8582 58.4199 60.4585 58.2198C62.33 57.5606 63.6365 56.1953 64.119 54.3709C64.225 53.9707 64.2485 49.5569 64.225 36.0093L64.1897 18.1774L63.7659 17.2946C63.1068 15.9292 62.071 14.9876 60.6115 14.4344C59.9759 14.1872 59.7405 14.1872 52.6901 14.1402C48.6882 14.1166 45.4161 14.0813 45.4161 14.0695C45.4161 14.046 45.2513 12.9278 45.063 11.5742C44.6628 8.85532 44.4627 8.24327 43.6623 7.38404C43.062 6.7249 42.2617 6.2894 41.3671 6.12462C40.3549 5.93629 27.5724 5.97161 26.7014 6.15993ZM40.7551 9.76163C41.1082 9.8911 41.0964 9.86756 41.4495 12.2569L41.732 14.1166H34.1167H26.5013L26.7838 12.2569C27.1369 9.8911 27.1369 9.8911 27.4429 9.76163C27.796 9.62038 40.3784 9.60862 40.7551 9.76163ZM59.3168 17.8949C59.7876 18.0597 60.2113 18.4128 60.4349 18.8483C60.6939 19.3544 60.6703 29.465 60.4114 30.3713C59.8111 32.4076 57.9985 34.0201 55.9387 34.3615C55.5503 34.4321 52.2311 34.4792 48.2763 34.4792H41.3201L41.273 32.8431C41.2377 31.054 41.167 30.8657 40.4255 30.3125C40.1077 30.0653 39.9782 30.0653 34.1167 30.0653C28.2551 30.0653 28.1256 30.0653 27.8078 30.3125C27.0663 30.8657 26.9957 31.054 26.9603 32.8431L26.9133 34.4792H19.957C16.0022 34.4792 12.683 34.4321 12.2946 34.3615C10.2348 34.0201 8.42219 32.4076 7.8219 30.3713C7.56296 29.465 7.53942 19.3544 7.79836 18.8483C8.022 18.4245 8.43396 18.0597 8.86946 17.9066C9.38735 17.7301 58.7753 17.7183 59.3168 17.8949ZM37.6477 36.1623V38.6694L35.9528 39.5757C35.023 40.07 34.199 40.482 34.1167 40.482C34.0343 40.482 33.2103 40.07 32.2805 39.5757L30.5856 38.6694V36.1623V33.6553H34.1167H37.6477V36.1623ZM8.29271 36.7391C8.58697 36.9392 9.23434 37.2569 9.72869 37.4453C11.4236 38.1044 11.7061 38.1279 19.651 38.1279H26.9368V38.9636C26.9368 40.0936 27.1251 40.7763 27.5371 41.1176C27.8313 41.3648 30.5973 42.8949 32.8808 44.0602C34.2108 44.7428 33.999 44.8017 38.2716 42.5183C39.425 41.9062 40.5197 41.2706 40.6962 41.1176C41.1082 40.7763 41.2965 40.0936 41.2965 38.9636V38.1279H48.5823C56.5272 38.1279 56.8097 38.1044 58.5046 37.4453C58.999 37.2569 59.6463 36.9392 59.9406 36.7391C60.2466 36.5272 60.5173 36.3624 60.5526 36.3624C60.5762 36.3624 60.5997 40.2231 60.5997 44.9429V53.5117L60.329 53.9001C60.1878 54.112 59.9171 54.4062 59.7405 54.5357L59.4109 54.7829H34.1167H8.82238L8.49281 54.5357C8.31626 54.4062 8.04554 54.112 7.89253 53.9001L7.63358 53.5117V44.9429C7.63358 40.2231 7.65712 36.3624 7.68066 36.3624C7.71597 36.3624 7.98669 36.5272 8.29271 36.7391Z" stroke="#0D313B" mask="url(#path-2-outside-1_6295_46298)"/>
</g>
</g>
</g>
<g id="Group 1171275295">
<path id="Rectangle 34624866" d="M45.9688 43.4463L56.0609 44.1847L66.153 43.4463V70.0305H45.9688V43.4463Z" fill="#2894B4"/>
<g id="Group_2">
<g id="Vector_2">
<mask id="path-4-outside-2_6295_46298" maskUnits="userSpaceOnUse" x="43" y="38.5071" width="26" height="34" fill="black">
<rect fill="white" x="43" y="38.5071" width="26" height="34"/>
<path d="M49.8153 40.1168C49.4953 40.2645 49.0707 40.726 48.9907 41.0214C48.9538 41.1568 48.923 41.3906 48.923 41.5506V41.846H47.8953C46.7815 41.846 46.4431 41.9014 45.8769 42.1845C45.2062 42.5106 44.6647 43.0583 44.3324 43.7598C43.9877 44.4736 44.0001 43.8213 44.0001 56.7749C44.0001 67.5808 44.0124 68.75 44.0985 69.0515C44.4431 70.1961 45.3108 71.0638 46.4554 71.4084C46.7569 71.4945 47.7046 71.5068 55.9567 71.5068C66.1288 71.5068 65.4826 71.5314 66.2703 71.0945C67.0518 70.6576 67.6979 69.8023 67.9072 68.9161C67.9872 68.5715 67.9995 67.0085 67.9995 56.578C67.9995 43.3906 68.0302 44.4244 67.618 43.5998C67.3718 43.1198 66.7257 42.4737 66.2457 42.2275C65.5872 41.8952 65.3103 41.846 64.1719 41.846H63.1381V41.6122C63.1381 40.9906 62.7688 40.3753 62.2458 40.1291C61.9689 39.9999 61.9565 39.9999 56.0182 39.9999C50.3814 39.9999 50.0491 40.006 49.8153 40.1168ZM61.2304 42.7691V43.6921H56.0305H50.8307V42.7691V41.846H56.0305H61.2304V42.7691ZM48.923 43.9813C48.923 44.4367 49.0338 44.7259 49.3107 45.0336C49.8091 45.5751 49.2861 45.5382 55.9628 45.5382C60.4366 45.5382 61.9258 45.5198 62.1165 45.4644C62.4858 45.3536 62.9227 44.8982 63.0396 44.4859C63.095 44.3075 63.1381 44.0552 63.1381 43.9198V43.6736L64.0488 43.7106C65.0334 43.7413 65.2549 43.8029 65.6242 44.1229C65.7349 44.2275 65.8949 44.4429 65.9688 44.6029L66.1103 44.8921L66.098 56.6149C66.0857 65.1747 66.0672 68.3992 66.018 68.5777C65.9134 68.9161 65.4703 69.3838 65.1195 69.5192C64.8426 69.6238 64.3934 69.6299 55.9382 69.6299H47.0461L46.7569 69.4823C46.4246 69.3223 46.1354 69.0207 45.9939 68.6884C45.9015 68.4792 45.8954 67.3777 45.9015 56.738C45.9077 48.5105 45.9323 44.9536 45.9815 44.7998C46.0492 44.5782 46.2892 44.2152 46.4615 44.0736C46.8123 43.7844 47.1631 43.7106 48.1723 43.6983L48.923 43.6921V43.9813Z"/>
</mask>
<path d="M49.8153 40.1168C49.4953 40.2645 49.0707 40.726 48.9907 41.0214C48.9538 41.1568 48.923 41.3906 48.923 41.5506V41.846H47.8953C46.7815 41.846 46.4431 41.9014 45.8769 42.1845C45.2062 42.5106 44.6647 43.0583 44.3324 43.7598C43.9877 44.4736 44.0001 43.8213 44.0001 56.7749C44.0001 67.5808 44.0124 68.75 44.0985 69.0515C44.4431 70.1961 45.3108 71.0638 46.4554 71.4084C46.7569 71.4945 47.7046 71.5068 55.9567 71.5068C66.1288 71.5068 65.4826 71.5314 66.2703 71.0945C67.0518 70.6576 67.6979 69.8023 67.9072 68.9161C67.9872 68.5715 67.9995 67.0085 67.9995 56.578C67.9995 43.3906 68.0302 44.4244 67.618 43.5998C67.3718 43.1198 66.7257 42.4737 66.2457 42.2275C65.5872 41.8952 65.3103 41.846 64.1719 41.846H63.1381V41.6122C63.1381 40.9906 62.7688 40.3753 62.2458 40.1291C61.9689 39.9999 61.9565 39.9999 56.0182 39.9999C50.3814 39.9999 50.0491 40.006 49.8153 40.1168ZM61.2304 42.7691V43.6921H56.0305H50.8307V42.7691V41.846H56.0305H61.2304V42.7691ZM48.923 43.9813C48.923 44.4367 49.0338 44.7259 49.3107 45.0336C49.8091 45.5751 49.2861 45.5382 55.9628 45.5382C60.4366 45.5382 61.9258 45.5198 62.1165 45.4644C62.4858 45.3536 62.9227 44.8982 63.0396 44.4859C63.095 44.3075 63.1381 44.0552 63.1381 43.9198V43.6736L64.0488 43.7106C65.0334 43.7413 65.2549 43.8029 65.6242 44.1229C65.7349 44.2275 65.8949 44.4429 65.9688 44.6029L66.1103 44.8921L66.098 56.6149C66.0857 65.1747 66.0672 68.3992 66.018 68.5777C65.9134 68.9161 65.4703 69.3838 65.1195 69.5192C64.8426 69.6238 64.3934 69.6299 55.9382 69.6299H47.0461L46.7569 69.4823C46.4246 69.3223 46.1354 69.0207 45.9939 68.6884C45.9015 68.4792 45.8954 67.3777 45.9015 56.738C45.9077 48.5105 45.9323 44.9536 45.9815 44.7998C46.0492 44.5782 46.2892 44.2152 46.4615 44.0736C46.8123 43.7844 47.1631 43.7106 48.1723 43.6983L48.923 43.6921V43.9813Z" fill="#0D313B"/>
<path d="M49.8153 40.1168C49.4953 40.2645 49.0707 40.726 48.9907 41.0214C48.9538 41.1568 48.923 41.3906 48.923 41.5506V41.846H47.8953C46.7815 41.846 46.4431 41.9014 45.8769 42.1845C45.2062 42.5106 44.6647 43.0583 44.3324 43.7598C43.9877 44.4736 44.0001 43.8213 44.0001 56.7749C44.0001 67.5808 44.0124 68.75 44.0985 69.0515C44.4431 70.1961 45.3108 71.0638 46.4554 71.4084C46.7569 71.4945 47.7046 71.5068 55.9567 71.5068C66.1288 71.5068 65.4826 71.5314 66.2703 71.0945C67.0518 70.6576 67.6979 69.8023 67.9072 68.9161C67.9872 68.5715 67.9995 67.0085 67.9995 56.578C67.9995 43.3906 68.0302 44.4244 67.618 43.5998C67.3718 43.1198 66.7257 42.4737 66.2457 42.2275C65.5872 41.8952 65.3103 41.846 64.1719 41.846H63.1381V41.6122C63.1381 40.9906 62.7688 40.3753 62.2458 40.1291C61.9689 39.9999 61.9565 39.9999 56.0182 39.9999C50.3814 39.9999 50.0491 40.006 49.8153 40.1168ZM61.2304 42.7691V43.6921H56.0305H50.8307V42.7691V41.846H56.0305H61.2304V42.7691ZM48.923 43.9813C48.923 44.4367 49.0338 44.7259 49.3107 45.0336C49.8091 45.5751 49.2861 45.5382 55.9628 45.5382C60.4366 45.5382 61.9258 45.5198 62.1165 45.4644C62.4858 45.3536 62.9227 44.8982 63.0396 44.4859C63.095 44.3075 63.1381 44.0552 63.1381 43.9198V43.6736L64.0488 43.7106C65.0334 43.7413 65.2549 43.8029 65.6242 44.1229C65.7349 44.2275 65.8949 44.4429 65.9688 44.6029L66.1103 44.8921L66.098 56.6149C66.0857 65.1747 66.0672 68.3992 66.018 68.5777C65.9134 68.9161 65.4703 69.3838 65.1195 69.5192C64.8426 69.6238 64.3934 69.6299 55.9382 69.6299H47.0461L46.7569 69.4823C46.4246 69.3223 46.1354 69.0207 45.9939 68.6884C45.9015 68.4792 45.8954 67.3777 45.9015 56.738C45.9077 48.5105 45.9323 44.9536 45.9815 44.7998C46.0492 44.5782 46.2892 44.2152 46.4615 44.0736C46.8123 43.7844 47.1631 43.7106 48.1723 43.6983L48.923 43.6921V43.9813Z" stroke="#0D313B" mask="url(#path-4-outside-2_6295_46298)"/>
</g>
<path id="Vector_3" d="M52.6764 48.6528C52.5533 48.702 51.9872 49.2189 51.3533 49.8527L50.2395 50.9542L49.9688 50.6712C49.6242 50.3204 49.4272 50.2158 49.1011 50.2158C48.818 50.2158 48.4365 50.4004 48.3073 50.6035C48.1719 50.8312 48.1227 51.1512 48.1903 51.4158C48.2457 51.6065 48.418 51.8219 48.9472 52.3573C49.3226 52.745 49.7042 53.0957 49.7965 53.145C50.0118 53.2557 50.4795 53.2557 50.6949 53.145C50.8918 53.0342 53.8025 50.1173 53.901 49.9266C54.0056 49.7235 53.981 49.2866 53.8579 49.0466C53.7348 48.8127 53.3102 48.5543 53.0456 48.5543C52.9595 48.5604 52.7933 48.6035 52.6764 48.6528Z" fill="#0D313B"/>
<path id="Vector_4" d="M55.6745 50.7015C55.416 50.9415 55.416 50.9476 55.416 51.3846C55.416 51.8215 55.416 51.8276 55.6745 52.0676L55.9329 52.3076H59.5513C63.0528 52.3076 63.1758 52.3015 63.3727 52.1845C63.9635 51.8215 63.9635 50.9476 63.3727 50.5846C63.1758 50.4677 63.0528 50.4615 59.5513 50.4615H55.9329L55.6745 50.7015Z" fill="#0D313B"/>
<path id="Vector_5" d="M52.6765 55.2671C52.5904 55.2979 52.0181 55.8332 51.4027 56.4425L50.2827 57.5624L49.9504 57.2486C49.5505 56.8671 49.2366 56.7624 48.8489 56.8609C48.2028 57.0394 47.9505 57.8147 48.3566 58.3809C48.5659 58.6701 49.6181 59.667 49.8274 59.7778C50.0551 59.8885 50.375 59.907 50.6273 59.8147C50.8243 59.7408 53.7473 56.8547 53.8827 56.6024C54.018 56.344 53.9934 55.8702 53.8273 55.624C53.5873 55.2609 53.0888 55.1071 52.6765 55.2671Z" fill="#0D313B"/>
<path id="Vector_6" d="M55.6745 56.8553C55.416 57.0953 55.416 57.1015 55.416 57.5384C55.416 57.9753 55.416 57.9814 55.6745 58.2214L55.9329 58.4614H59.5513C63.0528 58.4614 63.1758 58.4553 63.3727 58.3384C63.9635 57.9753 63.9635 57.1015 63.3727 56.7384C63.1758 56.6215 63.0528 56.6153 59.5513 56.6153H55.9329L55.6745 56.8553Z" fill="#0D313B"/>
<path id="Vector_7" d="M52.6765 61.4216C52.5904 61.4524 52.0181 61.9878 51.4027 62.597L50.2827 63.717L49.9504 63.4031C49.5505 63.0216 49.2366 62.917 48.8489 63.0154C48.2028 63.1939 47.9505 63.9693 48.3566 64.5354C48.5659 64.8246 49.6181 65.8215 49.8274 65.9323C50.0551 66.0431 50.375 66.0615 50.6273 65.9692C50.8243 65.8954 53.7473 63.0093 53.8827 62.757C54.018 62.4985 53.9934 62.0247 53.8273 61.7785C53.5873 61.4155 53.0888 61.2616 52.6765 61.4216Z" fill="#0D313B"/>
<path id="Vector_8" d="M55.6745 63.0091C55.416 63.2491 55.416 63.2553 55.416 63.6922C55.416 64.1291 55.416 64.1352 55.6745 64.3752L55.9329 64.6152H59.5759C63.0651 64.6152 63.2251 64.6091 63.4097 64.4983C63.982 64.1414 63.982 63.243 63.4097 62.886C63.2251 62.7753 63.0651 62.7691 59.5759 62.7691H55.9329L55.6745 63.0091Z" fill="#0D313B"/>
</g>
</g>
</g>
<defs>
<clipPath id="clip0_6295_46298">
<rect width="72" height="72" fill="white"/>
</clipPath>
</defs>
</svg>
