<svg width="72" height="72" viewBox="0 0 72 72" fill="none" xmlns="http://www.w3.org/2000/svg">
<g id="career-transition-request">
<g id="Group 1171275416">
<path id="Subtract" fill-rule="evenodd" clip-rule="evenodd" d="M14.1975 17.5278L18.2968 7.68954L28.9549 5.22998L37.1534 10.1491L39.2031 19.5774H34.6939L29.7747 14.6583L22.806 19.5774L14.1975 20.3973V17.5278ZM21.9861 36.7944L26.4953 42.1234L31.8244 36.7944L42.0001 42.2456H32.3753V55.2411H7.63867L9.68831 42.1234L21.9861 36.7944Z" fill="#22885E"/>
<g id="Group 1171275414">
<g id="Group 1171275405">
<path id="Vector 780" d="M62.1929 43.0317L34.0723 42.5469V52.4861H44.9811L45.466 54.183L48.1326 55.8799L50.3144 54.9103L51.0416 52.4861H58.5566L62.1929 51.274V43.0317Z" fill="#62C89E"/>
<g id="Group">
<g id="Vector">
<mask id="path-3-outside-1_6295_46313" maskUnits="userSpaceOnUse" x="31.377" y="35.9814" width="33" height="29" fill="black">
<rect fill="white" x="31.377" y="35.9814" width="33" height="29"/>
<path d="M44.0718 37.0532C43.6473 37.1442 43.2471 37.3746 42.9561 37.702C42.5559 38.1386 42.4528 38.46 42.2527 39.8425C42.1557 40.5398 42.0708 41.1158 42.0708 41.1279C42.0708 41.134 40.3851 41.1522 38.3296 41.1643C34.6915 41.1886 34.5702 41.1886 34.2428 41.3159C33.4909 41.6009 32.9573 42.086 32.6177 42.7894L32.3994 43.2441L32.3813 52.4304C32.3691 59.4095 32.3813 61.6834 32.4358 61.8895C32.6844 62.8294 33.3575 63.5327 34.3216 63.8723C34.6308 63.9754 35.1705 63.9814 47.8918 63.9814C60.6131 63.9814 61.1528 63.9754 61.462 63.8723C62.4261 63.5327 63.0992 62.8294 63.3478 61.8895C63.4023 61.6834 63.4145 59.4095 63.4023 52.4304L63.3841 43.2441L63.1659 42.7894C62.8263 42.086 62.2927 41.6009 61.5408 41.3159C61.2134 41.1886 61.0921 41.1886 57.4601 41.1643C55.3985 41.1522 53.7128 41.134 53.7128 41.1279C53.7128 41.1158 53.6279 40.5398 53.5309 39.8425C53.3247 38.4418 53.2216 38.1265 52.8093 37.6839C52.5001 37.3443 52.0878 37.1199 51.6269 37.0351C51.1055 36.938 44.5205 36.9562 44.0718 37.0532ZM51.3116 38.9087C51.4935 38.9754 51.4875 38.9633 51.6694 40.1942L51.8149 41.1522H47.8918H43.9687L44.1142 40.1942C44.2961 38.9754 44.2961 38.9754 44.4538 38.9087C44.6357 38.8359 51.1176 38.8299 51.3116 38.9087ZM60.8738 43.0986C61.1164 43.1835 61.3347 43.3654 61.4499 43.5897C61.5833 43.8505 61.5711 49.0591 61.4377 49.526C61.1285 50.5749 60.1947 51.4057 59.1336 51.5815C58.9335 51.6179 57.2236 51.6421 55.1862 51.6421H51.6027L51.5784 50.7993C51.5602 49.8776 51.5239 49.7806 51.1419 49.4956C50.9781 49.3683 50.9114 49.3683 47.8918 49.3683C44.8722 49.3683 44.8055 49.3683 44.6417 49.4956C44.2597 49.7806 44.2234 49.8776 44.2052 50.7993L44.1809 51.6421H40.5974C38.56 51.6421 36.8501 51.6179 36.65 51.5815C35.5889 51.4057 34.6551 50.5749 34.3458 49.526C34.2124 49.0591 34.2003 43.8505 34.3337 43.5897C34.4489 43.3715 34.6611 43.1835 34.8855 43.1047C35.1523 43.0137 60.5949 43.0076 60.8738 43.0986ZM49.7109 52.5092V53.8008L48.8377 54.2676C48.3587 54.5223 47.9342 54.7345 47.8918 54.7345C47.8493 54.7345 47.4249 54.5223 46.9459 54.2676L46.0727 53.8008V52.5092V51.2177H47.8918H49.7109V52.5092ZM34.5884 52.8063C34.74 52.9094 35.0735 53.0731 35.3281 53.1701C36.2013 53.5097 36.3468 53.5218 40.4397 53.5218H44.193V53.9523C44.193 54.5344 44.29 54.8861 44.5023 55.062C44.6539 55.1893 46.0788 55.9776 47.2551 56.5779C47.9403 56.9295 47.8312 56.9599 50.0322 55.7835C50.6265 55.4682 51.1904 55.1408 51.2813 55.062C51.4935 54.8861 51.5906 54.5344 51.5906 53.9523V53.5218H55.3439C59.4368 53.5218 59.5823 53.5097 60.4555 53.1701C60.7101 53.0731 61.0436 52.9094 61.1952 52.8063C61.3529 52.6972 61.4923 52.6123 61.5105 52.6123C61.5226 52.6123 61.5348 54.6011 61.5348 57.0326V61.4469L61.3953 61.647C61.3225 61.7561 61.1831 61.9077 61.0921 61.9744L60.9223 62.1017H47.8918H34.8612L34.6915 61.9744C34.6005 61.9077 34.461 61.7561 34.3822 61.647L34.2488 61.4469V57.0326C34.2488 54.6011 34.2609 52.6123 34.2731 52.6123C34.2913 52.6123 34.4307 52.6972 34.5884 52.8063Z"/>
</mask>
<path d="M44.0718 37.0532C43.6473 37.1442 43.2471 37.3746 42.9561 37.702C42.5559 38.1386 42.4528 38.46 42.2527 39.8425C42.1557 40.5398 42.0708 41.1158 42.0708 41.1279C42.0708 41.134 40.3851 41.1522 38.3296 41.1643C34.6915 41.1886 34.5702 41.1886 34.2428 41.3159C33.4909 41.6009 32.9573 42.086 32.6177 42.7894L32.3994 43.2441L32.3813 52.4304C32.3691 59.4095 32.3813 61.6834 32.4358 61.8895C32.6844 62.8294 33.3575 63.5327 34.3216 63.8723C34.6308 63.9754 35.1705 63.9814 47.8918 63.9814C60.6131 63.9814 61.1528 63.9754 61.462 63.8723C62.4261 63.5327 63.0992 62.8294 63.3478 61.8895C63.4023 61.6834 63.4145 59.4095 63.4023 52.4304L63.3841 43.2441L63.1659 42.7894C62.8263 42.086 62.2927 41.6009 61.5408 41.3159C61.2134 41.1886 61.0921 41.1886 57.4601 41.1643C55.3985 41.1522 53.7128 41.134 53.7128 41.1279C53.7128 41.1158 53.6279 40.5398 53.5309 39.8425C53.3247 38.4418 53.2216 38.1265 52.8093 37.6839C52.5001 37.3443 52.0878 37.1199 51.6269 37.0351C51.1055 36.938 44.5205 36.9562 44.0718 37.0532ZM51.3116 38.9087C51.4935 38.9754 51.4875 38.9633 51.6694 40.1942L51.8149 41.1522H47.8918H43.9687L44.1142 40.1942C44.2961 38.9754 44.2961 38.9754 44.4538 38.9087C44.6357 38.8359 51.1176 38.8299 51.3116 38.9087ZM60.8738 43.0986C61.1164 43.1835 61.3347 43.3654 61.4499 43.5897C61.5833 43.8505 61.5711 49.0591 61.4377 49.526C61.1285 50.5749 60.1947 51.4057 59.1336 51.5815C58.9335 51.6179 57.2236 51.6421 55.1862 51.6421H51.6027L51.5784 50.7993C51.5602 49.8776 51.5239 49.7806 51.1419 49.4956C50.9781 49.3683 50.9114 49.3683 47.8918 49.3683C44.8722 49.3683 44.8055 49.3683 44.6417 49.4956C44.2597 49.7806 44.2234 49.8776 44.2052 50.7993L44.1809 51.6421H40.5974C38.56 51.6421 36.8501 51.6179 36.65 51.5815C35.5889 51.4057 34.6551 50.5749 34.3458 49.526C34.2124 49.0591 34.2003 43.8505 34.3337 43.5897C34.4489 43.3715 34.6611 43.1835 34.8855 43.1047C35.1523 43.0137 60.5949 43.0076 60.8738 43.0986ZM49.7109 52.5092V53.8008L48.8377 54.2676C48.3587 54.5223 47.9342 54.7345 47.8918 54.7345C47.8493 54.7345 47.4249 54.5223 46.9459 54.2676L46.0727 53.8008V52.5092V51.2177H47.8918H49.7109V52.5092ZM34.5884 52.8063C34.74 52.9094 35.0735 53.0731 35.3281 53.1701C36.2013 53.5097 36.3468 53.5218 40.4397 53.5218H44.193V53.9523C44.193 54.5344 44.29 54.8861 44.5023 55.062C44.6539 55.1893 46.0788 55.9776 47.2551 56.5779C47.9403 56.9295 47.8312 56.9599 50.0322 55.7835C50.6265 55.4682 51.1904 55.1408 51.2813 55.062C51.4935 54.8861 51.5906 54.5344 51.5906 53.9523V53.5218H55.3439C59.4368 53.5218 59.5823 53.5097 60.4555 53.1701C60.7101 53.0731 61.0436 52.9094 61.1952 52.8063C61.3529 52.6972 61.4923 52.6123 61.5105 52.6123C61.5226 52.6123 61.5348 54.6011 61.5348 57.0326V61.4469L61.3953 61.647C61.3225 61.7561 61.1831 61.9077 61.0921 61.9744L60.9223 62.1017H47.8918H34.8612L34.6915 61.9744C34.6005 61.9077 34.461 61.7561 34.3822 61.647L34.2488 61.4469V57.0326C34.2488 54.6011 34.2609 52.6123 34.2731 52.6123C34.2913 52.6123 34.4307 52.6972 34.5884 52.8063Z" fill="#0B2D1F"/>
<path d="M44.0718 37.0532C43.6473 37.1442 43.2471 37.3746 42.9561 37.702C42.5559 38.1386 42.4528 38.46 42.2527 39.8425C42.1557 40.5398 42.0708 41.1158 42.0708 41.1279C42.0708 41.134 40.3851 41.1522 38.3296 41.1643C34.6915 41.1886 34.5702 41.1886 34.2428 41.3159C33.4909 41.6009 32.9573 42.086 32.6177 42.7894L32.3994 43.2441L32.3813 52.4304C32.3691 59.4095 32.3813 61.6834 32.4358 61.8895C32.6844 62.8294 33.3575 63.5327 34.3216 63.8723C34.6308 63.9754 35.1705 63.9814 47.8918 63.9814C60.6131 63.9814 61.1528 63.9754 61.462 63.8723C62.4261 63.5327 63.0992 62.8294 63.3478 61.8895C63.4023 61.6834 63.4145 59.4095 63.4023 52.4304L63.3841 43.2441L63.1659 42.7894C62.8263 42.086 62.2927 41.6009 61.5408 41.3159C61.2134 41.1886 61.0921 41.1886 57.4601 41.1643C55.3985 41.1522 53.7128 41.134 53.7128 41.1279C53.7128 41.1158 53.6279 40.5398 53.5309 39.8425C53.3247 38.4418 53.2216 38.1265 52.8093 37.6839C52.5001 37.3443 52.0878 37.1199 51.6269 37.0351C51.1055 36.938 44.5205 36.9562 44.0718 37.0532ZM51.3116 38.9087C51.4935 38.9754 51.4875 38.9633 51.6694 40.1942L51.8149 41.1522H47.8918H43.9687L44.1142 40.1942C44.2961 38.9754 44.2961 38.9754 44.4538 38.9087C44.6357 38.8359 51.1176 38.8299 51.3116 38.9087ZM60.8738 43.0986C61.1164 43.1835 61.3347 43.3654 61.4499 43.5897C61.5833 43.8505 61.5711 49.0591 61.4377 49.526C61.1285 50.5749 60.1947 51.4057 59.1336 51.5815C58.9335 51.6179 57.2236 51.6421 55.1862 51.6421H51.6027L51.5784 50.7993C51.5602 49.8776 51.5239 49.7806 51.1419 49.4956C50.9781 49.3683 50.9114 49.3683 47.8918 49.3683C44.8722 49.3683 44.8055 49.3683 44.6417 49.4956C44.2597 49.7806 44.2234 49.8776 44.2052 50.7993L44.1809 51.6421H40.5974C38.56 51.6421 36.8501 51.6179 36.65 51.5815C35.5889 51.4057 34.6551 50.5749 34.3458 49.526C34.2124 49.0591 34.2003 43.8505 34.3337 43.5897C34.4489 43.3715 34.6611 43.1835 34.8855 43.1047C35.1523 43.0137 60.5949 43.0076 60.8738 43.0986ZM49.7109 52.5092V53.8008L48.8377 54.2676C48.3587 54.5223 47.9342 54.7345 47.8918 54.7345C47.8493 54.7345 47.4249 54.5223 46.9459 54.2676L46.0727 53.8008V52.5092V51.2177H47.8918H49.7109V52.5092ZM34.5884 52.8063C34.74 52.9094 35.0735 53.0731 35.3281 53.1701C36.2013 53.5097 36.3468 53.5218 40.4397 53.5218H44.193V53.9523C44.193 54.5344 44.29 54.8861 44.5023 55.062C44.6539 55.1893 46.0788 55.9776 47.2551 56.5779C47.9403 56.9295 47.8312 56.9599 50.0322 55.7835C50.6265 55.4682 51.1904 55.1408 51.2813 55.062C51.4935 54.8861 51.5906 54.5344 51.5906 53.9523V53.5218H55.3439C59.4368 53.5218 59.5823 53.5097 60.4555 53.1701C60.7101 53.0731 61.0436 52.9094 61.1952 52.8063C61.3529 52.6972 61.4923 52.6123 61.5105 52.6123C61.5226 52.6123 61.5348 54.6011 61.5348 57.0326V61.4469L61.3953 61.647C61.3225 61.7561 61.1831 61.9077 61.0921 61.9744L60.9223 62.1017H47.8918H34.8612L34.6915 61.9744C34.6005 61.9077 34.461 61.7561 34.3822 61.647L34.2488 61.4469V57.0326C34.2488 54.6011 34.2609 52.6123 34.2731 52.6123C34.2913 52.6123 34.4307 52.6972 34.5884 52.8063Z" stroke="#0B2D1F" stroke-width="0.390622" mask="url(#path-3-outside-1_6295_46313)"/>
</g>
</g>
<g id="Group 1171275273">
<circle id="Ellipse 2648" cx="60.0128" cy="62.6673" r="4.66705" fill="#22885E"/>
<g id="Group_2">
<g id="Vector_2">
<mask id="path-5-outside-2_6295_46313" maskUnits="userSpaceOnUse" x="53.6797" y="57.0002" width="12" height="12" fill="black">
<rect fill="white" x="53.6797" y="57.0002" width="12" height="12"/>
<path d="M59.4486 57.3483C58.4215 57.4733 57.4762 57.8596 56.6899 58.4799C56.4832 58.6413 55.9923 59.1321 55.831 59.3389C55.2674 60.0547 54.8743 60.9523 54.7334 61.8499C54.6811 62.1794 54.663 62.8429 54.6971 63.177C54.8016 64.1927 55.1652 65.1108 55.7969 65.9493C55.9741 66.1834 56.4991 66.7083 56.7331 66.8855C57.4876 67.4536 58.3034 67.8059 59.21 67.949C59.5645 68.0058 60.2394 68.0172 60.6121 67.974C61.6165 67.8581 62.4596 67.515 63.3004 66.8833C63.5344 66.7106 64.0593 66.1834 64.2366 65.9493C64.8092 65.1881 65.1615 64.3723 65.3046 63.4565C65.3614 63.0952 65.3614 62.2362 65.3046 61.8749C65.1615 60.9591 64.8092 60.1433 64.2366 59.3821C64.0593 59.148 63.5344 58.6231 63.3004 58.4458C62.5414 57.8732 61.7279 57.5232 60.8234 57.3801C60.5553 57.3369 59.7032 57.3187 59.4486 57.3483ZM60.6303 58.3618C62.3187 58.6072 63.7208 59.8229 64.1866 61.4409C64.3252 61.9181 64.3457 62.0749 64.3457 62.6657C64.3457 63.2565 64.3252 63.4133 64.1866 63.8905C64.048 64.3723 63.8003 64.8654 63.4822 65.2903C63.3072 65.5244 62.8754 65.9561 62.6414 66.1311C61.5642 66.9378 60.2099 67.2059 58.9146 66.8719C57.2353 66.4356 55.9628 65.0085 55.7105 63.277C55.6651 62.9611 55.6651 62.368 55.7105 62.0544C56.0582 59.6729 58.2647 58.0186 60.6303 58.3618Z"/>
</mask>
<path d="M59.4486 57.3483C58.4215 57.4733 57.4762 57.8596 56.6899 58.4799C56.4832 58.6413 55.9923 59.1321 55.831 59.3389C55.2674 60.0547 54.8743 60.9523 54.7334 61.8499C54.6811 62.1794 54.663 62.8429 54.6971 63.177C54.8016 64.1927 55.1652 65.1108 55.7969 65.9493C55.9741 66.1834 56.4991 66.7083 56.7331 66.8855C57.4876 67.4536 58.3034 67.8059 59.21 67.949C59.5645 68.0058 60.2394 68.0172 60.6121 67.974C61.6165 67.8581 62.4596 67.515 63.3004 66.8833C63.5344 66.7106 64.0593 66.1834 64.2366 65.9493C64.8092 65.1881 65.1615 64.3723 65.3046 63.4565C65.3614 63.0952 65.3614 62.2362 65.3046 61.8749C65.1615 60.9591 64.8092 60.1433 64.2366 59.3821C64.0593 59.148 63.5344 58.6231 63.3004 58.4458C62.5414 57.8732 61.7279 57.5232 60.8234 57.3801C60.5553 57.3369 59.7032 57.3187 59.4486 57.3483ZM60.6303 58.3618C62.3187 58.6072 63.7208 59.8229 64.1866 61.4409C64.3252 61.9181 64.3457 62.0749 64.3457 62.6657C64.3457 63.2565 64.3252 63.4133 64.1866 63.8905C64.048 64.3723 63.8003 64.8654 63.4822 65.2903C63.3072 65.5244 62.8754 65.9561 62.6414 66.1311C61.5642 66.9378 60.2099 67.2059 58.9146 66.8719C57.2353 66.4356 55.9628 65.0085 55.7105 63.277C55.6651 62.9611 55.6651 62.368 55.7105 62.0544C56.0582 59.6729 58.2647 58.0186 60.6303 58.3618Z" fill="#0B2D1F"/>
<path d="M59.4486 57.3483C58.4215 57.4733 57.4762 57.8596 56.6899 58.4799C56.4832 58.6413 55.9923 59.1321 55.831 59.3389C55.2674 60.0547 54.8743 60.9523 54.7334 61.8499C54.6811 62.1794 54.663 62.8429 54.6971 63.177C54.8016 64.1927 55.1652 65.1108 55.7969 65.9493C55.9741 66.1834 56.4991 66.7083 56.7331 66.8855C57.4876 67.4536 58.3034 67.8059 59.21 67.949C59.5645 68.0058 60.2394 68.0172 60.6121 67.974C61.6165 67.8581 62.4596 67.515 63.3004 66.8833C63.5344 66.7106 64.0593 66.1834 64.2366 65.9493C64.8092 65.1881 65.1615 64.3723 65.3046 63.4565C65.3614 63.0952 65.3614 62.2362 65.3046 61.8749C65.1615 60.9591 64.8092 60.1433 64.2366 59.3821C64.0593 59.148 63.5344 58.6231 63.3004 58.4458C62.5414 57.8732 61.7279 57.5232 60.8234 57.3801C60.5553 57.3369 59.7032 57.3187 59.4486 57.3483ZM60.6303 58.3618C62.3187 58.6072 63.7208 59.8229 64.1866 61.4409C64.3252 61.9181 64.3457 62.0749 64.3457 62.6657C64.3457 63.2565 64.3252 63.4133 64.1866 63.8905C64.048 64.3723 63.8003 64.8654 63.4822 65.2903C63.3072 65.5244 62.8754 65.9561 62.6414 66.1311C61.5642 66.9378 60.2099 67.2059 58.9146 66.8719C57.2353 66.4356 55.9628 65.0085 55.7105 63.277C55.6651 62.9611 55.6651 62.368 55.7105 62.0544C56.0582 59.6729 58.2647 58.0186 60.6303 58.3618Z" stroke="#0B2D1F" stroke-width="0.6" mask="url(#path-5-outside-2_6295_46313)"/>
</g>
</g>
</g>
</g>
<g id="Vector_3">
<mask id="path-6-outside-3_6295_46313" maskUnits="userSpaceOnUse" x="58.875" y="58.1265" width="3" height="9" fill="black">
<rect fill="white" x="58.875" y="58.1265" width="3" height="9"/>
<path d="M60.6856 63.0805C60.6579 63.3671 60.6116 63.5804 60.547 63.7205C60.4824 63.8605 60.3667 63.9308 60.2002 63.9308C60.1689 63.9308 60.1409 63.9256 60.1131 63.9203C60.085 63.9256 60.0573 63.9308 60.0262 63.9308C59.8599 63.9308 59.7444 63.8605 59.6794 63.7205C59.615 63.5804 59.5686 63.3671 59.541 63.0805L59.3931 60.868C59.3654 60.4368 59.3516 60.1272 59.3516 59.9394C59.3516 59.6838 59.4185 59.4843 59.5522 59.3413C59.6865 59.1982 59.8629 59.1265 60.0815 59.1265C60.0929 59.1265 60.1017 59.1291 60.1128 59.1296C60.1239 59.1291 60.1329 59.1265 60.1442 59.1265C60.363 59.1265 60.5392 59.1981 60.6733 59.3413C60.8072 59.4844 60.8742 59.6839 60.8742 59.9396C60.8742 60.1274 60.8602 60.4369 60.8327 60.8681L60.6849 63.0805M60.1086 64.7387C60.3202 64.7387 60.501 64.8059 60.6507 64.9395C60.8001 65.0738 60.875 65.2361 60.875 65.4268C60.875 65.6429 60.7993 65.812 60.6483 65.9349C60.4967 66.058 60.3202 66.1201 60.1189 66.1201C59.9136 66.1201 59.7347 66.0589 59.5816 65.9375C59.4286 65.8158 59.3527 65.6456 59.3527 65.4267C59.3527 65.236 59.426 65.0737 59.5721 64.9393C59.7182 64.8059 59.8971 64.7387 60.1091 64.7387"/>
</mask>
<path d="M60.6856 63.0805C60.6579 63.3671 60.6116 63.5804 60.547 63.7205C60.4824 63.8605 60.3667 63.9308 60.2002 63.9308C60.1689 63.9308 60.1409 63.9256 60.1131 63.9203C60.085 63.9256 60.0573 63.9308 60.0262 63.9308C59.8599 63.9308 59.7444 63.8605 59.6794 63.7205C59.615 63.5804 59.5686 63.3671 59.541 63.0805L59.3931 60.868C59.3654 60.4368 59.3516 60.1272 59.3516 59.9394C59.3516 59.6838 59.4185 59.4843 59.5522 59.3413C59.6865 59.1982 59.8629 59.1265 60.0815 59.1265C60.0929 59.1265 60.1017 59.1291 60.1128 59.1296C60.1239 59.1291 60.1329 59.1265 60.1442 59.1265C60.363 59.1265 60.5392 59.1981 60.6733 59.3413C60.8072 59.4844 60.8742 59.6839 60.8742 59.9396C60.8742 60.1274 60.8602 60.4369 60.8327 60.8681L60.6849 63.0805M60.1086 64.7387C60.3202 64.7387 60.501 64.8059 60.6507 64.9395C60.8001 65.0738 60.875 65.2361 60.875 65.4268C60.875 65.6429 60.7993 65.812 60.6483 65.9349C60.4967 66.058 60.3202 66.1201 60.1189 66.1201C59.9136 66.1201 59.7347 66.0589 59.5816 65.9375C59.4286 65.8158 59.3527 65.6456 59.3527 65.4267C59.3527 65.236 59.426 65.0737 59.5721 64.9393C59.7182 64.8059 59.8971 64.7387 60.1091 64.7387" fill="#0B2D1F"/>
<path d="M60.547 63.7205L60.3654 63.6367L60.3654 63.6367L60.547 63.7205ZM60.1131 63.9203L60.0762 63.7238L60.1132 63.7168L60.1503 63.7238L60.1131 63.9203ZM59.6794 63.7205L59.498 63.8047L59.4977 63.8041L59.6794 63.7205ZM59.541 63.0805L59.3419 63.0996L59.3415 63.0938L59.541 63.0805ZM59.3931 60.868L59.1936 60.8814L59.1936 60.8808L59.3931 60.868ZM59.5522 59.3413L59.4062 59.2047L59.4064 59.2044L59.5522 59.3413ZM60.1128 59.1296L60.1211 59.3294L60.1128 59.3297L60.1046 59.3294L60.1128 59.1296ZM60.6733 59.3413L60.8193 59.2046L60.8193 59.2046L60.6733 59.3413ZM60.8327 60.8681L61.0322 60.8809L61.0322 60.8815L60.8327 60.8681ZM60.6507 64.9395L60.7838 64.7902L60.7844 64.7907L60.6507 64.9395ZM60.6483 65.9349L60.7745 66.09L60.7744 66.0901L60.6483 65.9349ZM59.5816 65.9375L59.4573 66.0942L59.4572 66.0941L59.5816 65.9375ZM59.5721 64.9393L59.4368 64.7921L59.4372 64.7917L59.5721 64.9393ZM60.8846 63.0997C60.8563 63.3928 60.8076 63.6332 60.7286 63.8043L60.3654 63.6367C60.4157 63.5276 60.4594 63.3413 60.4865 63.0612L60.8846 63.0997ZM60.7286 63.8043C60.682 63.9052 60.612 63.9906 60.5155 64.0491C60.42 64.1071 60.3116 64.1308 60.2002 64.1308V63.7308C60.2552 63.7308 60.288 63.7193 60.3081 63.7071C60.3272 63.6955 60.3474 63.6758 60.3654 63.6367L60.7286 63.8043ZM60.2002 64.1308C60.1479 64.1308 60.1029 64.122 60.0759 64.1168L60.1503 63.7238C60.1789 63.7292 60.19 63.7308 60.2002 63.7308V64.1308ZM60.15 64.1169C60.1234 64.1219 60.0785 64.1308 60.0262 64.1308V63.7308C60.0362 63.7308 60.0467 63.7293 60.0762 63.7238L60.15 64.1169ZM60.0262 64.1308C59.9148 64.1308 59.8065 64.107 59.7111 64.0491C59.6147 63.9906 59.5447 63.9054 59.498 63.8047L59.8608 63.6363C59.8791 63.6756 59.8994 63.6955 59.9186 63.7071C59.9387 63.7193 59.9713 63.7308 60.0262 63.7308V64.1308ZM59.4977 63.8041C59.4191 63.6331 59.3702 63.3929 59.3419 63.0996L59.7401 63.0613C59.767 63.3412 59.8109 63.5277 59.8611 63.6369L59.4977 63.8041ZM59.3415 63.0938L59.1936 60.8814L59.5927 60.8547L59.7406 63.0671L59.3415 63.0938ZM59.1936 60.8808C59.1658 60.4493 59.1516 60.1341 59.1516 59.9394H59.5516C59.5516 60.1202 59.565 60.4242 59.5927 60.8552L59.1936 60.8808ZM59.1516 59.9394C59.1516 59.649 59.2283 59.3949 59.4062 59.2047L59.6983 59.4779C59.6088 59.5736 59.5516 59.7185 59.5516 59.9394H59.1516ZM59.4064 59.2044C59.5829 59.0164 59.8144 58.9265 60.0815 58.9265V59.3265C59.9113 59.3265 59.7901 59.3801 59.6981 59.4782L59.4064 59.2044ZM60.0815 58.9265C60.1024 58.9265 60.1194 58.929 60.1255 58.9298C60.1296 58.9304 60.1291 58.9303 60.1289 58.9303C60.128 58.9302 60.1251 58.9299 60.1211 58.9297L60.1046 59.3294C60.095 59.329 60.0869 59.3282 60.0808 59.3274C60.0755 59.3268 60.0699 59.326 60.0691 59.3258C60.0652 59.3253 60.072 59.3265 60.0815 59.3265V58.9265ZM60.1046 58.9297C60.1006 58.9299 60.0977 58.9302 60.0968 58.9303C60.0967 58.9303 60.0962 58.9304 60.1003 58.9298C60.1063 58.929 60.1233 58.9265 60.1442 58.9265V59.3265C60.1537 59.3265 60.1607 59.3253 60.1566 59.3259C60.1556 59.326 60.1501 59.3268 60.1448 59.3274C60.1388 59.3282 60.1306 59.329 60.1211 59.3294L60.1046 58.9297ZM60.1442 58.9265C60.4114 58.9265 60.6429 59.0162 60.8193 59.2046L60.5274 59.478C60.4355 59.38 60.3146 59.3265 60.1442 59.3265V58.9265ZM60.8193 59.2046C60.9975 59.395 61.0742 59.6491 61.0742 59.9396H60.6742C60.6742 59.7186 60.617 59.5738 60.5273 59.478L60.8193 59.2046ZM61.0742 59.9396C61.0742 60.1344 61.0598 60.4495 61.0322 60.8809L60.6331 60.8554C60.6606 60.4242 60.6742 60.1204 60.6742 59.9396H61.0742ZM61.0322 60.8815L60.8844 63.0938L60.4853 63.0671L60.6331 60.8548L61.0322 60.8815ZM60.1086 64.5387C60.3667 64.5387 60.5955 64.6222 60.7838 64.7902L60.5175 65.0887C60.4064 64.9896 60.2738 64.9387 60.1086 64.9387V64.5387ZM60.7844 64.7907C60.9733 64.9606 61.075 65.1758 61.075 65.4268H60.675C60.675 65.2964 60.627 65.1871 60.517 65.0882L60.7844 64.7907ZM61.075 65.4268C61.075 65.6958 60.9776 65.9248 60.7745 66.09L60.522 65.7797C60.6211 65.6991 60.675 65.59 60.675 65.4268H61.075ZM60.7744 66.0901C60.5863 66.243 60.3649 66.3201 60.1189 66.3201V65.9201C60.2755 65.9201 60.4072 65.8731 60.5221 65.7797L60.7744 66.0901ZM60.1189 66.3201C59.8705 66.3201 59.6473 66.245 59.4573 66.0942L59.706 65.7808C59.822 65.8729 59.9566 65.9201 60.1189 65.9201V66.3201ZM59.4572 66.0941C59.25 65.9293 59.1527 65.6979 59.1527 65.4267H59.5527C59.5527 65.5934 59.6073 65.7024 59.7061 65.781L59.4572 66.0941ZM59.1527 65.4267C59.1527 65.1773 59.2515 64.9624 59.4368 64.7921L59.7075 65.0866C59.6005 65.185 59.5527 65.2947 59.5527 65.4267H59.1527ZM59.4372 64.7917C59.6227 64.6223 59.8507 64.5387 60.1091 64.5387V64.9387C59.9435 64.9387 59.8137 64.9895 59.7071 65.087L59.4372 64.7917Z" fill="#0B2D1F" mask="url(#path-6-outside-3_6295_46313)"/>
</g>
</g>
<path id="Subtract_2" fill-rule="evenodd" clip-rule="evenodd" d="M13.2008 12.2423C14.6056 8.11079 18.262 4.92949 22.5071 4.15483C23.6433 3.94825 29.1073 3.94825 30.2641 4.15483C34.5919 4.90883 38.2483 8.05914 39.6634 12.2423C40.1592 13.6884 40.2728 14.618 40.2728 17.0762V19.2763L40.7376 19.7514C40.9855 20.0096 41.347 20.5364 41.5329 20.9186C41.8634 21.5796 41.8738 21.6623 41.8738 22.7984C41.8738 23.9243 41.8531 24.0276 41.5432 24.6783C41.1198 25.5872 40.3761 26.3309 39.4671 26.7544C38.8268 27.0643 38.6822 27.0849 37.4633 27.1159L36.1516 27.1572L36.0896 27.5291C35.945 28.3657 35.5009 29.7601 35.1497 30.4625C34.406 31.9498 32.9909 33.5301 31.7412 34.2945C31.1937 34.625 31.1937 34.625 31.1834 35.1414V35.6682L31.8961 35.8438C32.6914 36.0504 33.4041 36.4635 34.0445 37.0729C34.4576 37.4758 34.5816 37.5274 38.1141 38.5706C40.3038 39.211 42.008 39.7791 42.3799 39.9753C43.2565 40.4367 44.112 41.2892 44.7238 42.2456H39.9085C39.4374 42.0889 38.8192 41.9038 37.9798 41.659L37.8318 41.6163C36.6076 41.2637 35.6129 40.9773 35.5732 40.9773C35.5009 40.9773 35.4595 41.1219 35.3769 41.5763C35.3528 41.7212 35.2659 41.9916 35.17 42.2456H32.3763V46.2234C32.3024 46.3046 32.2442 46.3619 32.2059 46.3896C31.8858 46.6065 30.8942 46.6168 30.5843 46.3896C30.45 46.2966 30.3261 46.245 30.3054 46.2553C30.2951 46.276 30.1402 46.6271 29.9646 47.03L29.6547 47.753L30.3054 50.6451L30.9458 53.5268L32.3763 53.5338V56.4562L26.3908 56.4499L6.70397 56.4189L6.38378 56.0884C6.11522 55.8198 6.04292 55.6546 6.00161 55.2104C5.94996 54.5597 7.15844 44.7163 7.38568 43.8693C7.81949 42.351 9.13125 40.688 10.4843 39.9753C10.8562 39.7791 12.5604 39.211 14.7398 38.5706L18.3756 37.4964L18.9437 36.9593C19.5634 36.3809 20.2968 35.9884 21.1437 35.8025L21.6808 35.6785V35.1518L21.6705 34.625L21.0921 34.2738C20.7616 34.0776 20.1315 33.5611 19.6874 33.1376C18.2413 31.7639 17.2394 29.946 16.8676 28.0455L16.692 27.1572L15.3905 27.1159C14.1821 27.0849 14.0375 27.0643 13.4177 26.7647C12.4365 26.2896 11.8374 25.7215 11.3829 24.7816C11.0008 24.0069 10.9905 23.9759 10.9905 22.7984C10.9905 21.6623 11.0008 21.5796 11.3313 20.9186C11.5172 20.5364 11.8787 20.02 12.1266 19.7618L12.5914 19.3073V17.0866C12.5914 14.618 12.705 13.6884 13.2008 12.2423ZM37.1225 14.3391C36.3685 10.7446 33.5384 7.92486 29.9233 7.13987C29.0143 6.94362 25.1926 6.86099 23.8086 7.00559C22.6311 7.11921 21.1024 7.64599 20.0076 8.29671C18.3756 9.27795 16.8882 11.0545 16.1962 12.8311C15.7521 13.9776 15.5868 14.8865 15.5145 16.7664L15.4525 18.4603H17.6113C21.1127 18.45 22.2592 18.2951 23.9738 17.572C25.5542 16.9213 27.2068 15.5682 28.1674 14.1532C28.7768 13.2649 29.0247 13.0893 29.7167 13.0893C30.9355 13.0893 33.1562 14.494 34.3027 15.9917C34.8708 16.7354 35.6248 18.0678 35.6248 18.326C35.6248 18.4293 35.8727 18.4603 36.5234 18.4603H37.4117L37.3497 16.7664C37.3084 15.8368 37.2051 14.7419 37.1225 14.3391ZM32.9496 19.8031C32.6914 18.9768 32.1336 18.0368 31.5656 17.4481C31.328 17.2002 30.9458 16.8697 30.7186 16.7147L30.3054 16.4359L29.2209 17.541C28.6218 18.1401 27.7852 18.8735 27.3617 19.1523C25.234 20.5777 22.817 21.3524 20.5137 21.3524H19.5841L19.646 24.2135C19.708 27.4361 19.7597 27.7666 20.4517 29.1817C21.1644 30.6381 22.5381 31.8362 24.2424 32.4869C24.8725 32.7348 25.0687 32.7555 26.4321 32.7555C27.7955 32.7555 27.9918 32.7348 28.6218 32.4869C29.665 32.0944 30.4294 31.5986 31.1834 30.855C32.3815 29.6465 32.9703 28.3554 33.1562 26.5272C33.2285 25.8868 33.2492 24.4097 33.2182 22.9534C33.1769 20.8256 33.1355 20.3815 32.9496 19.8031ZM16.723 24.2445V22.7984V21.3524L16.0309 21.3627C15.0187 21.3834 14.6572 21.497 14.275 21.9102C13.9858 22.22 13.9342 22.3543 13.9342 22.7984C13.9342 23.2426 13.9858 23.3769 14.275 23.6867C14.6572 24.0999 15.1013 24.2342 16.0826 24.2445H16.723ZM38.5995 21.9102C38.3826 21.6829 38.1037 21.5177 37.8455 21.4557C37.6183 21.404 37.1432 21.3524 36.792 21.3524H36.1413V22.7984V24.2445H36.792C37.7629 24.2342 38.207 24.0999 38.5995 23.6867C38.8784 23.3769 38.93 23.2426 38.93 22.7984C38.93 22.3543 38.8784 22.22 38.5995 21.9102ZM27.7542 38.6119C28.0744 38.0232 28.281 37.0626 28.2913 36.1743V35.7612H26.4321H24.5729V36.1743C24.5832 37.011 24.7898 38.0025 25.079 38.581C25.3682 39.149 26.1945 40.0477 26.4321 40.0477C26.6593 40.0477 27.4547 39.1904 27.7542 38.6119ZM23.1269 41.1322C22.5794 40.3988 22.2076 39.7378 22.001 39.0871C21.9287 38.8805 21.8358 38.7049 21.8048 38.7049C21.7635 38.7049 21.5466 38.8082 21.3193 38.9425C20.5756 39.3659 20.2038 40.2129 20.4207 40.9669C20.5756 41.4627 21.7635 43.0637 21.9287 42.9707C22.0423 42.8984 23.5607 41.8965 23.6227 41.8449C23.6433 41.8345 23.4264 41.504 23.1269 41.1322ZM32.3402 39.8204C32.2266 39.5622 31.9787 39.2317 31.7928 39.0974C31.1214 38.5913 31.0594 38.6119 30.6876 39.5002C30.512 39.9444 30.0989 40.6467 29.7787 41.0599C29.4688 41.4834 29.2209 41.8345 29.2416 41.8449C29.2622 41.8655 29.665 42.1341 30.1505 42.4543C30.6191 42.7716 30.834 42.9481 31.0186 42.9207C31.2246 42.8902 31.3929 42.6056 31.8341 41.9792C32.5365 41.0082 32.6501 40.5125 32.3402 39.8204ZM17.8901 42.6815C17.6836 42.2684 17.5183 41.7932 17.4047 41.2561C17.3634 41.1012 17.2807 40.9773 17.2084 40.9876C16.9296 41.0082 12.4055 42.4026 12.0233 42.5886C11.7961 42.6918 11.4139 42.9811 11.166 43.2289C10.3397 44.0553 10.2881 44.2515 9.66836 49.168L9.12093 53.5785L15.5248 53.5578L21.9184 53.5268L22.5588 50.6451L23.2095 47.753L22.8996 47.03C22.8617 46.943 22.8253 46.8589 22.7912 46.7803C22.6674 46.4949 22.575 46.2818 22.5588 46.2656C22.5485 46.2553 22.4039 46.3069 22.2386 46.3999C21.8048 46.6271 20.9372 46.6065 20.6273 46.3483C20.2968 46.09 18.1587 43.2289 17.8901 42.6815ZM27.7645 44.4994L27.1138 44.0862C26.7626 43.8487 26.4528 43.6628 26.4218 43.6628C26.4011 43.6628 26.0913 43.8487 25.7401 44.0862L25.11 44.5097L25.4405 45.2947L25.7814 46.09H26.4321H27.0828L27.4237 45.2947L27.7645 44.4994ZM27.731 52.88C27.6406 52.4733 27.5166 51.9155 27.3824 51.3061L26.8866 49.0854L26.4528 49.0544C26.1636 49.0338 25.9983 49.0648 25.9776 49.1577C25.9467 49.23 25.7401 50.1699 25.5025 51.2545C25.303 52.1565 25.1181 52.9857 25.0517 53.2834C25.0391 53.3402 25.0307 53.3777 25.0274 53.3926C24.9757 53.5681 25.0894 53.5785 26.4218 53.5785C27.2274 53.5785 27.8782 53.5681 27.8782 53.5475C27.8782 53.5423 27.8213 53.2867 27.731 52.88Z" fill="#0B2D1F"/>
</g>
</g>
</svg>
