<svg width="72" height="72" viewBox="0 0 72 72" fill="none" xmlns="http://www.w3.org/2000/svg">
<g id="contract">
<g id="Group 1171275291">
<g id="Group">
<g id="Vector">
<path d="M7.88875 4.20345C6.98855 4.52852 5.38818 5.55375 5.37568 5.81631C5.37568 5.89133 5.28816 6.02886 5.18813 6.11638C4.91307 6.34143 4.40045 7.32916 4.18791 8.02932C4.02537 8.57944 4.00036 12.0427 4.00036 35.9982C4.00036 65.6675 3.96285 63.8921 4.65051 65.1049C4.90057 65.5425 5.38818 66.2051 5.60073 66.4052C6.12585 66.9303 7.28861 67.6305 8.00128 67.868C8.1013 67.9055 17.1909 67.9555 28.1934 67.968C47.7229 68.0055 48.2105 68.0055 48.9106 67.768C49.3107 67.6305 49.6358 67.5554 49.6358 67.6054C49.6358 67.643 49.7233 67.5679 49.8233 67.4304C49.9234 67.3054 50.0109 67.2304 50.0109 67.2929C50.0234 67.5804 51.6613 65.8926 52.0614 65.1799C52.849 63.7671 52.8115 64.2922 52.8615 54.565L52.899 45.6879L60.0007 38.5613C66.9147 31.6097 67.1023 31.4097 67.5149 30.497C67.8775 29.7093 67.9525 29.3842 67.99 28.4215C68.065 26.7586 67.7274 25.7209 66.6647 24.4081C65.0768 22.4326 61.9261 21.895 59.5131 23.1953C59.0504 23.4578 57.6126 24.7957 54.7495 27.6463L52.899 29.4967L52.8615 21.7074C52.8115 14.2682 52.799 13.9057 52.5615 13.2305C52.0739 11.8802 51.6363 11.3426 48.523 8.22937C45.3973 5.10365 44.8347 4.64104 43.5344 4.21595C42.8843 4.0034 41.934 3.99089 25.6428 4.0034C10.4893 4.0034 8.37636 4.0284 7.88875 4.20345ZM37.7331 12.7429C37.7081 15.4935 37.7331 17.744 37.7956 17.744C37.8456 17.744 37.8831 17.8316 37.8831 17.9441C37.8831 18.1816 38.4332 18.7068 38.8583 18.8818C39.0209 18.9443 41.3339 18.9943 44.0845 18.9943H49.0107V26.196V33.3976L44.7972 37.6361C42.4842 39.9616 40.5462 41.9496 40.4837 42.0246C40.4337 42.1121 39.7835 43.9875 39.0584 46.188C38.3207 48.3885 37.6956 50.239 37.6581 50.3015C37.408 50.7391 37.8081 52.3144 38.2207 52.4645C38.3082 52.502 38.3457 52.5895 38.2957 52.677C38.2582 52.752 38.2582 52.7771 38.3082 52.727C38.3707 52.677 38.5583 52.702 38.7458 52.7771C39.1209 52.9271 40.2587 52.9771 40.2587 52.8521C40.2587 52.8021 40.3462 52.7896 40.4462 52.8271C40.5462 52.8771 40.6337 52.8396 40.6337 52.7646C40.6337 52.6895 40.7213 52.6645 40.8213 52.702C40.9213 52.752 41.0088 52.7145 41.0088 52.6395C41.0088 52.5645 41.0963 52.5395 41.1964 52.577C41.2964 52.627 41.3839 52.5895 41.3839 52.5145C41.3839 52.4395 41.4714 52.4145 41.5715 52.452C41.6715 52.502 41.759 52.4645 41.759 52.3895C41.759 52.3144 41.8465 52.2894 41.9465 52.327C42.0466 52.377 42.1341 52.3395 42.1341 52.2644C42.1341 52.1894 42.2216 52.1644 42.3216 52.2019C42.4216 52.2519 42.5092 52.2144 42.5092 52.1394C42.5092 52.0644 42.5967 52.0394 42.6967 52.0769C42.7967 52.1269 42.8843 52.0894 42.8843 52.0144C42.8843 51.9394 42.9718 51.9144 43.0718 51.9519C43.1718 52.0019 43.2593 51.9644 43.2593 51.8894C43.2593 51.8143 43.3469 51.7893 43.4469 51.8268C43.5469 51.8768 43.6344 51.8393 43.6344 51.7643C43.6344 51.6893 43.722 51.6643 43.822 51.7018C43.922 51.7518 44.0095 51.7143 44.0095 51.6393C44.0095 51.5643 44.097 51.5393 44.1971 51.5768C44.2971 51.6268 44.3846 51.5893 44.3846 51.5143C44.3846 51.4392 44.4721 51.4142 44.5721 51.4517C44.6722 51.5018 44.7597 51.4643 44.7597 51.3892C44.7597 51.3142 44.8472 51.2892 44.9472 51.3267C45.0472 51.3767 45.1348 51.3392 45.1348 51.2642C45.1348 51.1892 45.2223 51.1642 45.3223 51.2017C45.4223 51.2517 45.5099 51.2142 45.5099 51.1392C45.5099 51.0642 45.5974 51.0392 45.6974 51.0767C45.7974 51.1267 45.8849 51.0892 45.8849 51.0142C45.8849 50.9391 45.9725 50.9141 46.0725 50.9516C46.1725 51.0016 46.26 50.9641 46.26 50.8891C46.26 50.8141 46.3475 50.7891 46.4476 50.8266C46.5476 50.8766 46.6351 50.8391 46.6351 50.7641C46.6351 50.6891 46.7226 50.6641 46.8227 50.7016C46.9227 50.7516 47.0102 50.7141 47.0102 50.6391C47.0102 50.564 47.0977 50.539 47.1977 50.5765C47.2978 50.6266 47.3853 50.5891 47.3853 50.514C47.3853 50.439 47.4728 50.414 47.5728 50.4515C47.6728 50.5015 47.7604 50.464 47.7604 50.3765C47.7604 50.3015 47.8229 50.2765 47.8979 50.3265C47.9729 50.364 48.0729 50.364 48.123 50.3015C48.1605 50.239 48.3855 50.0639 48.6106 49.9014L49.0107 49.6138L48.9731 56.0278C48.9481 59.5536 48.9106 62.5918 48.8606 62.7793C48.7606 63.2795 48.4355 63.7171 47.9729 63.9671C47.5978 64.1797 46.5101 64.1922 28.3809 64.1922C10.1393 64.1922 9.16404 64.1797 8.77645 63.9671C8.5514 63.8421 8.25134 63.567 8.12631 63.342C7.87625 62.9544 7.87625 62.5043 7.87625 35.9982C7.87625 9.54216 7.87625 9.04205 8.12631 8.65446C8.37636 8.22936 8.71394 8.00431 9.31408 7.85428C9.52663 7.80427 16.0031 7.76676 23.7299 7.75426L37.7706 7.74175L37.7331 12.7429ZM42.5342 7.97931C42.8467 8.09184 48.7731 13.9932 48.6981 14.1182C48.6606 14.1807 48.6981 14.2682 48.7731 14.3058C48.8356 14.3558 48.8731 14.4683 48.8356 14.5683C48.7981 14.6558 48.8231 14.7684 48.8856 14.8059C48.9606 14.8559 49.0107 14.9684 49.0107 15.0684C49.0107 15.2185 48.448 15.2435 45.3223 15.2435H41.634V11.4926V7.74175L41.9841 7.81677C42.1716 7.86678 42.4216 7.9418 42.5342 7.97931ZM63.0139 26.521C63.0139 26.5961 63.0514 26.6211 63.0889 26.5836C63.2264 26.446 63.639 26.7461 63.8891 27.1587C64.2016 27.6588 64.2141 28.5715 63.9141 29.0091C63.8015 29.1842 63.2639 29.7718 62.7263 30.3094L61.7636 31.3096L60.4758 30.0218L59.2005 28.7466L60.3507 27.6088C60.9884 26.9837 61.5635 26.5085 61.626 26.5586C61.7011 26.5961 61.7636 26.5711 61.7636 26.5085C61.7636 26.4335 62.0261 26.371 62.3887 26.371C62.7763 26.371 63.0139 26.421 63.0139 26.521ZM54.5494 38.4988L50.1234 42.9248L48.8481 41.6495L47.5728 40.3742L51.9988 35.9482L56.4249 31.5222L57.7001 32.785L58.9754 34.0603L54.5494 38.4988ZM46.8852 46.188C46.4476 46.6131 46.16 46.7507 44.5471 47.2758C43.5344 47.6009 42.6842 47.8509 42.6717 47.8259C42.6467 47.8134 42.9218 46.9632 43.2593 45.938C43.7845 44.3876 43.9595 43.9875 44.3471 43.6L44.8097 43.1248L46.0975 44.4001L47.3853 45.6879L46.8852 46.188Z" fill="#0B2D1F"/>
<path d="M42.5342 7.97931C42.8467 8.09184 48.7731 13.9932 48.6981 14.1182C48.6606 14.1807 48.6981 14.2682 48.7731 14.3058C48.8356 14.3558 48.8731 14.4683 48.8356 14.5683C48.7981 14.6558 48.8231 14.7684 48.8856 14.8059C48.9606 14.8559 49.0107 14.9684 49.0107 15.0684C49.0107 15.2185 48.448 15.2435 45.3223 15.2435H41.634V11.4926V7.74175L41.9841 7.81677C42.1716 7.86678 42.4216 7.9418 42.5342 7.97931Z" fill="#62C89E"/>
<path d="M63.0139 26.521C63.0139 26.5961 63.0514 26.6211 63.0889 26.5836C63.2264 26.446 63.639 26.7461 63.8891 27.1587C64.2016 27.6588 64.2141 28.5715 63.9141 29.0091C63.8015 29.1842 63.2639 29.7718 62.7263 30.3094L61.7636 31.3096L60.4758 30.0218L59.2005 28.7466L60.3507 27.6088C60.9884 26.9837 61.5635 26.5085 61.626 26.5586C61.7011 26.5961 61.7636 26.5711 61.7636 26.5085C61.7636 26.4335 62.0261 26.371 62.3887 26.371C62.7763 26.371 63.0139 26.421 63.0139 26.521Z" fill="#62C89E"/>
<path d="M46.8852 46.188C46.4476 46.6131 46.16 46.7507 44.5471 47.2758C43.5344 47.6009 42.6842 47.8509 42.6717 47.8259C42.6467 47.8134 42.9218 46.9632 43.2593 45.938C43.7845 44.3876 43.9595 43.9875 44.3471 43.6L44.8097 43.1248L46.0975 44.4001L47.3853 45.6879L46.8852 46.188Z" fill="#62C89E"/>
<path d="M54.5494 38.4988L50.1234 42.9248L48.8481 41.6495L47.5728 40.3742L51.9988 35.9482L56.4249 31.5222L57.7001 32.785L58.9754 34.0603L54.5494 38.4988Z" fill="#22885E"/>
</g>
<path id="Vector_2" d="M12.6148 22.8452C12.3522 22.9703 11.8271 23.3954 11.7021 23.5954C11.552 23.8455 11.402 25.2458 11.527 25.2458C11.5771 25.2458 11.6271 25.3333 11.6271 25.4458C11.6271 25.7334 12.3772 26.3585 12.8148 26.4336C13.4025 26.5461 40.2586 26.5711 40.2586 26.4586C40.2586 26.4086 40.3336 26.371 40.4337 26.371C40.5212 26.371 40.8087 26.146 41.0588 25.8709C41.4714 25.4083 41.5089 25.3083 41.5089 24.6206C41.5089 23.908 41.4714 23.8205 41.0213 23.3329L40.5212 22.8077L26.668 22.7827C19.0538 22.7702 12.7273 22.7952 12.6148 22.8452Z" fill="#0B2D1F"/>
<path id="Vector_3" d="M12.6148 30.3468C12.3522 30.4719 11.8271 30.897 11.7021 31.097C11.552 31.3471 11.402 32.7474 11.527 32.7474C11.5771 32.7474 11.6271 32.8349 11.6271 32.9474C11.6271 33.235 12.3772 33.8601 12.8148 33.9352C13.4025 34.0352 32.7569 34.0727 32.7569 33.9602C32.7569 33.9101 32.8319 33.8726 32.9319 33.8726C33.0195 33.8726 33.307 33.6476 33.5571 33.3725C33.9697 32.9099 34.0072 32.8099 34.0072 32.1222C34.0072 31.4096 33.9697 31.3221 33.5196 30.8344L33.0195 30.3093L22.9171 30.2843C17.3659 30.2718 12.7273 30.2968 12.6148 30.3468Z" fill="#0B2D1F"/>
<path id="Vector_4" d="M12.6148 37.8485C12.3522 37.9736 11.8271 38.3987 11.7021 38.5987C11.552 38.8488 11.402 40.2491 11.527 40.2491C11.5771 40.2491 11.6271 40.3366 11.6271 40.4491C11.6271 40.7367 12.3772 41.3618 12.8148 41.4369C13.4025 41.5369 32.7569 41.5744 32.7569 41.4619C32.7569 41.4119 32.8319 41.3743 32.9319 41.3743C33.0195 41.3743 33.307 41.1493 33.5571 40.8742C33.9697 40.4116 34.0072 40.3116 34.0072 39.6239C34.0072 38.9113 33.9697 38.8238 33.5196 38.3362L33.0195 37.811L22.9171 37.786C17.3659 37.7735 12.7273 37.7985 12.6148 37.8485Z" fill="#0B2D1F"/>
<path id="Vector_5" d="M12.6148 45.3503C12.3522 45.4753 11.8271 45.9004 11.7021 46.1004C11.552 46.3505 11.402 47.7508 11.527 47.7508C11.5771 47.7508 11.6271 47.8383 11.6271 47.9508C11.6271 48.2384 12.3772 48.8636 12.8148 48.9386C13.4025 49.0386 32.7569 49.0761 32.7569 48.9636C32.7569 48.9136 32.8319 48.8761 32.9319 48.8761C33.0195 48.8761 33.307 48.651 33.5571 48.3759C33.9697 47.9133 34.0072 47.8133 34.0072 47.1257C34.0072 46.413 33.9697 46.3255 33.5196 45.8379L33.0195 45.3127L22.9171 45.2877C17.3659 45.2752 12.7273 45.3002 12.6148 45.3503Z" fill="#0B2D1F"/>
<path id="Vector_6" d="M27.6049 56.8529C27.1548 57.0405 26.6422 57.6281 26.5797 58.0282C26.4172 58.9784 26.4047 59.2535 26.5172 59.2535C26.5797 59.2535 26.6297 59.341 26.6297 59.4535C26.6297 59.7411 27.3799 60.3662 27.8175 60.4413C28.4176 60.5413 40.2578 60.5788 40.2578 60.4663C40.2578 60.4163 40.3328 60.3787 40.4329 60.3787C40.5204 60.3787 40.8079 60.1537 41.058 59.8786C41.4706 59.416 41.5081 59.316 41.5081 58.6283C41.5081 57.9157 41.4706 57.8282 41.0205 57.3405L40.5204 56.8154L34.1689 56.7904C30.6806 56.7779 27.73 56.8029 27.6049 56.8529Z" fill="#0B2D1F"/>
</g>
</g>
</g>
</svg>
