<svg width="72" height="72" viewBox="0 0 72 72" fill="none" xmlns="http://www.w3.org/2000/svg">
<g id="cost-sheet">
<g id="Group 1171275157">
<path id="Subtract" fill-rule="evenodd" clip-rule="evenodd" d="M38 7H8V65L51.5 65.5L51.5812 61.929C46.9997 61.4679 43.0699 58.7978 40.8729 55H19V32H42L41.8358 39.5511C44.2445 36.3733 47.9789 34.2556 52.2154 34.0216L52.5 21.5L38 7Z" fill="#22885E"/>
<path id="Subtract_2" fill-rule="evenodd" clip-rule="evenodd" d="M17.429 31.331C17.554 31.1435 17.8291 30.8684 18.0166 30.7434C18.3667 30.5184 18.8293 30.5059 30.3194 30.5059C41.8095 30.5059 42.2721 30.5184 42.6221 30.7434C42.8097 30.8684 43.0847 31.1435 43.2098 31.331C43.3877 31.6079 43.4328 31.9551 43.4439 37.77C41.7431 39.3596 40.4391 41.3684 39.6965 43.6316V41.7584H35.9456H32.1948V43.6338V45.5092H35.9456H39.2224C39.0772 46.3176 39.0015 47.15 39.0015 48.0001C39.0015 48.4247 39.0204 48.845 39.0574 49.2601H35.9456H32.1948V51.1355V53.0109H35.9456H39.6965V52.3685C40.2138 53.9452 41.0037 55.3984 42.0103 56.6724C41.0531 56.7555 38.4411 56.7618 30.3194 56.7618C18.8293 56.7618 18.3667 56.7493 18.0166 56.5242C17.8291 56.3992 17.554 56.1241 17.429 55.9366C17.2039 55.5865 17.1914 55.1239 17.1914 43.6338C17.1914 32.1437 17.2039 31.6811 17.429 31.331ZM28.4439 38.0076V36.1321V34.2567H24.6931H20.9423V36.1321V38.0076H24.6931H28.4439ZM39.6965 38.0076V36.1321V34.2567H35.9456H32.1948V36.1321V38.0076H35.9456H39.6965ZM28.4439 45.5092V43.6338V41.7584H24.6931H20.9423V43.6338V45.5092H24.6931H28.4439ZM28.4439 53.0109V51.1355V49.2601H24.6931H20.9423V51.1355V53.0109H24.6931H28.4439Z" fill="#0D313B"/>
<path id="Subtract_3" fill-rule="evenodd" clip-rule="evenodd" d="M6.40009 7.23823C7.11275 5.7879 8.2255 4.78768 9.70083 4.25006C10.3496 4.01299 10.8739 4.01251 24.3709 4.00008L24.4542 4H38.5323L39.0199 4.36258C39.9326 5.03774 54.5484 19.8036 54.636 20.1286C54.6645 20.262 54.6786 26.0562 54.6782 34.0995C54.1279 34.0338 53.5679 34 53 34C52.2979 34 51.6078 34.0517 50.9334 34.1515L50.9476 22.7542H45.7215C40.8078 22.7542 40.4453 22.7417 39.7576 22.5042C38.2323 21.9791 37.132 20.9913 36.4069 19.516L36.0068 18.6908L35.9693 13.2146L35.9317 7.75085L23.779 7.76335C17.09 7.77585 11.4637 7.81336 11.2512 7.86337C10.6886 8.0009 10.326 8.26346 10.0259 8.75107L9.75085 9.18867V36.0072V62.8258L10.0259 63.2634C10.1759 63.5009 10.4885 63.8135 10.7136 63.951C11.1262 64.2011 11.3512 64.2011 30.318 64.2011C49.2848 64.2011 49.5098 64.2011 49.9224 63.951C50.1475 63.8135 50.46 63.5009 50.6101 63.2634L50.8851 62.8258L50.887 61.8416C51.5761 61.9459 52.2817 62 53 62C53.5546 62 54.1017 61.9678 54.6395 61.905L54.636 63.951L54.2109 64.8262C53.6482 65.9765 52.6605 66.9642 51.5103 67.5268L50.6351 67.9519L30.568 67.9894C10.8261 68.0144 10.4885 68.0144 9.76335 67.7644C8.25051 67.2518 7.12525 66.264 6.40009 64.7762L6 63.951V36.0072V8.06342L6.40009 7.23823ZM44.0086 18.9784C45.5964 19.0034 47.1468 19.0034 47.4844 18.9784L48.072 18.9409L43.8835 14.7524L39.6826 10.564L39.7201 14.0648C39.7576 17.4155 39.7701 17.5906 40.0327 18.0032C40.5828 18.8909 40.7828 18.9409 44.0086 18.9784Z" fill="#0D313B"/>
<g id="Group 1171275151">
<g id="Vector">
<path d="M51.5453 36.1931C49.0205 36.7546 47.1128 37.8213 45.2893 39.7162C43.7744 41.2882 42.9047 42.8462 42.3156 45.0358C41.8948 46.6219 41.8948 49.3449 42.3156 50.931C42.9188 53.1346 43.9006 54.8891 45.4717 56.4752C50.1286 61.1773 57.8574 61.1773 62.5283 56.4612C64.0994 54.8891 65.0812 53.1346 65.6844 50.931C66.1052 49.3449 66.1052 46.6219 65.6844 45.0358C65.0672 42.7339 64.0713 41.0215 62.3881 39.4074C60.6347 37.709 58.713 36.6563 56.4968 36.2072C55.1923 35.9405 52.7236 35.9265 51.5453 36.1931ZM56.3004 38.7898C59.6248 39.632 62.3179 42.3269 63.2016 45.6675C63.5243 46.8746 63.5243 49.0922 63.2157 50.2853C62.0935 54.5102 58.3063 57.4577 54 57.4577C49.6937 57.4577 45.9205 54.5102 44.7843 50.2853C44.4757 49.0922 44.4757 46.8746 44.7984 45.6675C46.1309 40.6145 51.3209 37.5125 56.3004 38.7898Z" fill="#0D313B"/>
<path d="M56.3004 38.7898C59.6248 39.632 62.3179 42.3269 63.2016 45.6675C63.5243 46.8746 63.5243 49.0922 63.2157 50.2853C62.0935 54.5102 58.3063 57.4577 54 57.4577C49.6937 57.4577 45.9205 54.5102 44.7843 50.2853C44.4757 49.0922 44.4757 46.8746 44.7984 45.6675C46.1309 40.6145 51.3209 37.5125 56.3004 38.7898Z" fill="#2EB67D"/>
</g>
<path id="Vector_2" d="M53.1464 40.4599C52.8097 40.7968 52.7396 40.9933 52.7396 41.5126C52.7396 42.074 52.6975 42.1863 52.4029 42.2986C51.8699 42.4951 51.0704 43.2811 50.7478 43.8847C50.3971 44.5865 50.2709 45.8217 50.4813 46.6077C50.6917 47.3937 51.4211 48.3341 52.1364 48.7271C52.459 48.9096 53.1183 49.1061 53.6093 49.1903C54.5911 49.3447 55.1242 49.7658 55.1242 50.3693C55.1242 50.8887 54.5771 51.4361 54.0301 51.4501C53.6513 51.4642 53.455 51.3378 52.8939 50.7483C52.1505 49.9342 51.8278 49.85 51.0984 50.2992C50.4953 50.6641 50.369 51.3238 50.7618 52.0817C51.0564 52.6712 51.8419 53.4432 52.4029 53.6959C52.6835 53.8222 52.7396 53.9626 52.7396 54.4679C52.7396 55.2539 53.3147 55.9136 54.002 55.9136C54.7033 55.9136 55.2644 55.2539 55.2644 54.4538C55.2644 53.9064 55.3205 53.7801 55.587 53.6818C55.7694 53.6117 56.1201 53.3871 56.3585 53.1765C57.8594 51.9133 58.0558 49.5412 56.7793 47.9972C56.3024 47.4077 55.1382 46.7902 54.521 46.7902C54.3106 46.7902 53.9178 46.7059 53.6513 46.5936C52.8378 46.2568 52.6554 45.5269 53.2025 44.8812C53.6654 44.3479 54.3527 44.376 54.8717 44.9514C55.3346 45.4708 55.6993 45.6673 56.1762 45.6673C56.6671 45.6673 57.3685 44.9655 57.3685 44.4742C57.3685 43.7584 56.6671 42.8601 55.7273 42.3828C55.3065 42.1723 55.2644 42.0881 55.2644 41.5126C55.2644 40.7125 54.7033 40.0529 54.002 40.0529C53.6934 40.0529 53.4269 40.1792 53.1464 40.4599Z" fill="#0D313B"/>
</g>
</g>
</g>
</svg>
