<svg width="72" height="72" viewBox="0 0 72 72" fill="none" xmlns="http://www.w3.org/2000/svg">
<g id="project-budget">
<g id="Group 1000001401">
<path id="Vector" d="M35.1273 68H31.326C31.1858 67.9649 31.0491 67.9198 30.9072 67.8931C28.901 67.5291 26.8543 67.3237 24.892 66.7777C10.3506 62.715 1.35149 47.6282 4.6985 33.014C7.72635 19.799 19.4206 10.428 32.9455 10.3762C34.3353 10.3762 35.1188 11.1227 35.1239 12.4802C35.1239 14.1267 35.1239 15.7731 35.1239 17.4179V19.2797L39.4537 20.1631V18.1225C39.4537 14.1651 39.4537 10.207 39.4537 6.24846C39.4537 4.71055 40.2018 3.97082 41.7386 4.00088C42.3499 4.01257 42.9612 4.05264 43.5708 4.10107C48.2992 4.46676 52.6577 5.95624 56.5147 8.6747C63.945 13.9012 67.7564 21.0564 67.9979 30.0601C68.0435 31.7516 67.3393 32.4646 65.6152 32.4646H52.3082L53.3467 36.8562H54.0442C57.9496 36.8562 61.8555 36.8562 65.7621 36.8562C67.0371 36.8562 67.8206 37.6344 67.8054 38.8834C67.8054 39.4661 67.7598 40.0523 67.7007 40.6283C67.0252 47.3878 63.9332 52.8481 58.5564 57.0627C57.5904 57.8208 56.4843 57.6805 55.7092 56.7287C55.1807 56.0808 54.674 55.4146 54.1573 54.755L50.3087 49.8524C49.7565 50.5704 49.2617 51.2651 48.7112 51.9146C48.1607 52.5642 47.5291 53.2021 46.9043 53.8683C47.0951 54.1171 47.2826 54.3693 47.4751 54.6097C48.7146 56.191 49.9659 57.7657 51.1902 59.357C51.94 60.3255 51.7931 61.4393 50.8238 62.159C47.3535 64.7422 43.5049 66.5239 39.2376 67.3688C37.8816 67.6427 36.4985 67.7946 35.1273 68ZM32.8256 23.0351C30.6449 23.094 28.4979 23.5815 26.5097 24.4691C24.5215 25.3567 22.7318 26.6267 21.2449 28.2051C19.7581 29.7835 18.6038 31.6387 17.8493 33.6627C17.0948 35.6866 16.7553 37.8388 16.8504 39.9938C17.2186 48.5867 24.8701 55.6367 33.6969 55.3411C42.8919 55.0339 49.8866 47.5431 49.5708 38.3524C49.2668 29.8063 41.5596 22.7563 32.8256 23.0351ZM43.8511 56.1443C32.8509 62.7434 19.0947 57.8141 14.5234 46.6764C12.3483 41.3731 12.4226 36.0196 14.9084 30.8516C18.1761 24.0604 23.7775 20.3217 31.2889 19.3081V14.2986C23.7319 14.5358 13.3886 19.6838 9.30191 30.7931C5.36554 41.4916 9.56366 53.8065 19.1842 60.0583C28.8048 66.3101 40.342 64.8273 46.982 60.1385L43.8511 56.1443ZM43.3158 7.90658C43.3023 8.04518 43.2736 8.18711 43.2736 8.32905C43.2736 12.7023 43.2736 17.0756 43.2905 21.4471C43.3075 21.5895 43.3548 21.7266 43.4293 21.8495C43.5038 21.9724 43.6039 22.0783 43.7228 22.1602C46.2605 23.713 48.4256 25.794 50.0673 28.2583C50.2986 28.609 50.5553 28.6975 50.9488 28.6958C55.1283 28.6841 59.3062 28.6958 63.4857 28.6958C63.6884 28.6958 63.891 28.6758 64.0936 28.6658C63.4384 16.9971 53.3417 8.38749 43.3158 7.91159V7.90658ZM53.5122 40.635C53.1154 42.3048 52.754 43.9262 52.3301 45.5309C52.2305 45.915 52.2372 46.1755 52.4889 46.4927C54.0796 48.4965 55.6484 50.5003 57.2274 52.5141C57.3371 52.6527 57.4638 52.7779 57.6056 52.9332C61.2076 49.5468 63.2847 45.4858 63.8775 40.635H53.5122Z" fill="#0B2D1F"/>
<path id="Vector_2" d="M43.8518 56.1447L46.9827 60.1389C40.341 64.8261 28.7801 66.3038 19.1832 60.0587C9.58629 53.8136 5.36621 41.492 9.29752 30.7918C13.3774 19.6825 23.7275 14.5345 31.2777 14.2974V19.3068C23.7714 20.3204 18.17 24.0591 14.8973 30.8503C12.4115 36.0184 12.3372 41.3701 14.5122 46.6751C19.0954 57.8245 32.8516 62.7488 43.8518 56.1447Z" fill="#2EB67D"/>
<path id="Vector_3" d="M43.3147 7.91162C53.3406 8.38251 63.4373 16.9971 64.0858 28.6591C63.8832 28.6691 63.6805 28.6892 63.4779 28.6892C59.2983 28.6892 55.1205 28.6892 50.9409 28.6892C50.5475 28.6892 50.2908 28.6023 50.0594 28.2517C48.4174 25.7885 46.2523 23.7087 43.715 22.1568C43.596 22.075 43.496 21.9691 43.4215 21.8462C43.3469 21.7233 43.2996 21.5861 43.2826 21.4438C43.2573 17.0722 43.2641 12.699 43.2658 8.32574C43.2658 8.19215 43.3012 8.05356 43.3147 7.91162Z" fill="#2EB67D"/>
<path id="Vector_4" d="M53.5121 40.6416H63.8807C63.288 45.4841 61.2109 49.5534 57.6089 52.9398C57.467 52.7845 57.3404 52.6593 57.2306 52.5207C55.6516 50.5169 54.0828 48.4964 52.4921 46.4993C52.2405 46.1821 52.2337 45.9216 52.3333 45.5375C52.7538 43.9328 53.1152 42.3114 53.5121 40.6416Z" fill="#2EB67D"/>
<path id="Vector_5" d="M31.3161 30.0102C31.3161 29.4408 31.3042 28.9215 31.3161 28.4022C31.3269 27.913 31.5301 27.4473 31.8825 27.1039C32.2349 26.7605 32.7088 26.5665 33.2036 26.563C33.6983 26.5596 34.175 26.7469 34.5323 27.0853C34.8896 27.4237 35.0995 27.8865 35.1173 28.3754C35.1376 28.9114 35.1173 29.4491 35.1173 29.8649C36.1306 30.1738 37.083 30.3659 37.9476 30.7666C38.6224 31.1056 39.2367 31.5512 39.7663 32.0858C40.0949 32.4341 40.2761 32.8937 40.2727 33.37C40.2692 33.8464 40.0815 34.3033 39.7479 34.647C39.4144 34.9907 38.9604 35.1951 38.4792 35.2181C37.9981 35.2411 37.5262 35.0811 37.1607 34.7708C36.3856 34.0244 35.5074 33.769 34.4587 33.8074C33.4101 33.8458 32.3918 33.8074 31.3566 33.8207C30.1559 33.8341 29.4028 34.5204 29.4061 35.5673C29.4095 36.6143 30.1677 37.2822 31.3769 37.2989C32.8106 37.319 34.2477 37.2639 35.6797 37.3507C37.0509 37.4369 38.34 38.0268 39.2939 39.0046C40.2478 39.9824 40.7976 41.2776 40.8353 42.6357C40.8995 45.5562 38.8376 47.9223 35.9262 48.2697C35.6763 48.2997 35.4196 48.3348 35.1224 48.3732C35.1224 48.9025 35.1342 49.4202 35.1224 49.9378C35.092 51.0315 34.2527 51.8681 33.204 51.8598C32.1554 51.8514 31.338 51.0249 31.3178 49.9144C31.3178 49.4135 31.3178 48.9209 31.3178 48.4116C30.6744 48.3164 30.0495 48.3064 29.4838 48.121C28.7255 47.8811 27.9978 47.555 27.3155 47.1492C26.9094 46.8832 26.6237 46.4715 26.5187 46.001C26.4138 45.5306 26.4979 45.0382 26.7533 44.628C27.0086 44.2177 27.4152 43.9216 27.8872 43.8022C28.3592 43.6829 28.8597 43.7496 29.2829 43.9882C30.0833 44.4691 30.9158 44.5994 31.8159 44.5794C32.9761 44.5526 34.1379 44.596 35.298 44.5593C35.7083 44.557 36.1046 44.412 36.4175 44.1496C36.7304 43.8872 36.9399 43.5243 37.0092 43.1244C37.0785 42.7246 37.0032 42.3134 36.7965 41.963C36.5899 41.6125 36.265 41.3452 35.8789 41.208C35.5761 41.122 35.2617 41.0826 34.9468 41.0911C33.7225 41.0777 32.4982 41.1095 31.2738 41.0794C28.8303 41.021 26.9997 39.9306 26.0389 37.7014C25.1405 35.6057 25.4985 33.602 27.02 31.877C27.9181 30.8564 29.1801 30.2181 30.5426 30.0953C30.7706 30.077 31.0003 30.0486 31.3161 30.0102Z" fill="#0B2D1F"/>
</g>
</g>
</svg>
