<svg width="72" height="72" viewBox="0 0 72 72" fill="none" xmlns="http://www.w3.org/2000/svg">
<g id="purchase-order">
<g id="Group 1171274962">
<g id="Group 1171274961">
<g id="Group">
<path id="Vector" d="M26.7447 11.7576L25.3594 15.3593V16.7446H47.5239V13.974L44.7533 11.2034L40.8745 10.3723L40.0434 8.98699L39.4893 6.77054L35.8875 5.38525L33.117 6.77054L32.2858 9.5411L29.5152 10.3723L26.7447 11.7576Z" fill="#22885E"/>
<path id="Vector_2" d="M48.0791 17.5759H24.5293V15.0823L26.1916 11.2036L29.2393 9.54121L31.7328 8.9871L32.2869 6.21654L35.6116 4.5542L39.7674 6.21654L40.5986 8.71004L41.1527 9.81827L45.0315 10.3724L48.3562 13.6971V17.5759H48.0791ZM25.9146 16.1906H46.6938V14.2512L44.2003 11.7577L40.5986 10.9265L39.7674 9.26416L39.2133 7.32476L36.1657 6.21654L33.9492 7.32476L33.118 10.3724L29.7934 11.2036L27.2999 12.5888L25.9146 15.6365V16.1906Z" fill="#0B2D1F"/>
</g>
<g id="Group_2">
<path id="Vector_3" d="M29.516 22.563H22.3125V29.7665H29.516V22.563Z" fill="#22885E"/>
</g>
<g id="Group_3">
<path id="Vector_4" d="M29.516 36.6924H22.3125V43.8959H29.516V36.6924Z" fill="#22885E"/>
</g>
<g id="Group_4">
<path id="Vector_5" d="M29.516 49.437H22.3125V56.6405H29.516V49.437Z" fill="#22885E"/>
</g>
<g id="Group_5">
<path id="Vector_6" d="M26.4678 14.8052H46.1388C45.8618 13.974 45.5847 13.4199 45.0306 12.8658C44.1994 12.0346 43.0912 11.4805 41.7059 11.4805H40.5977C39.7665 11.4805 39.2124 10.9264 39.2124 10.0952V9.54113C39.2124 8.70996 38.9354 8.15585 38.3813 7.60173C37.8271 7.04762 37.273 6.77056 36.4419 6.77056C35.6107 6.77056 35.0566 7.04762 34.5025 7.60173C33.9484 8.15585 33.6713 8.70996 33.6713 9.54113V10.0952C33.6713 10.9264 33.1172 11.4805 32.286 11.4805H31.1778C29.7925 11.4805 28.6843 12.0346 27.8531 12.8658C27.299 13.4199 26.7449 14.2511 26.4678 14.8052ZM47.8012 17.5758H25.0825C24.2514 17.5758 23.6973 17.0217 23.6973 16.1905C23.6973 14.2511 24.5284 12.3117 25.9137 10.9264C27.299 9.54113 28.9613 8.70996 30.9007 8.70996C31.1778 7.60173 31.7319 6.49351 32.5631 5.66234C33.6713 4.55411 35.0566 4 36.4419 4C37.8271 4 39.2124 4.55411 40.3206 5.66234C41.1518 6.49351 41.7059 7.60173 41.983 8.98702C43.9224 8.98702 45.8618 9.81819 46.97 11.2035C48.3553 12.5888 49.1865 14.5281 49.1865 16.4675C49.1865 17.0217 48.6323 17.5758 47.8012 17.5758Z" fill="#0B2D1F"/>
</g>
<g id="Group_6">
<g id="Group_7">
<path id="Vector_7" d="M57.7749 12.8655C56.9437 12.0344 56.1126 11.7573 55.0044 11.7573H46.9697C46.1385 11.7573 45.5844 12.3114 45.5844 13.1426C45.5844 13.9738 46.1385 14.5279 46.9697 14.5279H55.0044C55.2814 14.5279 55.8355 14.8049 55.8355 14.8049C56.1126 15.082 56.1126 15.3591 56.1126 15.6361V64.121C56.1126 64.398 55.8355 64.9522 55.8355 64.9522C55.8355 64.9522 55.2814 65.2292 55.0044 65.2292H17.8788C17.6017 65.2292 17.0476 64.9522 17.0476 64.9522C16.7706 64.6751 16.7706 64.398 16.7706 64.121V15.6361C16.7706 15.3591 17.0476 14.8049 17.0476 14.8049C17.3247 14.5279 17.6017 14.5279 17.8788 14.5279H25.9134C26.7446 14.5279 27.2987 13.9738 27.2987 13.1426C27.2987 12.3114 26.7446 11.7573 25.9134 11.7573H17.8788C16.7706 11.7573 15.6623 12.3114 15.1082 12.8655C14.2771 13.6967 14 14.5279 14 15.6361V64.121C14 65.2292 14.5541 66.3374 15.1082 66.8916C15.9394 67.7227 16.7706 67.9998 17.8788 67.9998H54.7273C55.8355 67.9998 56.9437 67.4457 57.4979 66.8916C58.329 66.0604 58.6061 65.2292 58.6061 64.121V15.6361C58.8831 14.5279 58.329 13.6967 57.7749 12.8655Z" fill="#0B2D1F"/>
</g>
<g id="Group_8">
<path id="Vector_8" d="M21.4805 22.8398V30.3203C21.4805 30.5973 21.7575 30.8744 22.0346 30.8744H29.5151C29.7922 30.8744 30.0692 30.5973 30.0692 30.3203V22.8398C30.0692 22.5627 29.7922 22.2856 29.5151 22.2856H22.0346C21.7575 22.2856 21.4805 22.5627 21.4805 22.8398ZM22.8658 23.3939H28.961V29.7662H22.8658V23.3939Z" fill="#0B2D1F"/>
</g>
<g id="Group_9">
<path id="Vector_9" d="M27.5762 24.779L25.0827 26.9955L23.9745 25.8872C23.6974 25.6102 23.4204 25.6102 23.1433 25.8872C22.8663 26.1643 22.8663 26.4413 23.1433 26.7184L24.5286 28.1037C24.5286 28.1037 24.8057 28.3807 25.0827 28.3807C25.3598 28.3807 25.3598 28.3807 25.6368 28.1037L28.4074 25.3331C28.6845 25.0561 28.6845 24.779 28.4074 24.502C28.4074 24.502 27.8533 24.502 27.5762 24.779Z" fill="#0B2D1F"/>
</g>
<g id="Group_10">
<path id="Vector_10" d="M30.3466 36.1381C30.3466 35.861 30.0695 35.584 29.7924 35.584H22.3119C22.0349 35.584 21.7578 35.861 21.7578 36.1381V43.6186C21.7578 43.8957 22.0349 44.1727 22.3119 44.1727H29.7924C30.0695 44.1727 30.3466 43.8957 30.3466 43.6186V36.1381ZM28.9613 43.0645H22.866V36.9693H28.9613V43.0645Z" fill="#0B2D1F"/>
</g>
<g id="Group_11">
<path id="Vector_11" d="M24.8057 41.6796C25.0827 41.9567 25.3598 41.9567 25.6368 41.6796L28.4074 38.9091C28.6845 38.632 28.6845 38.355 28.4074 38.0779C28.1304 37.8009 27.8533 37.8009 27.5762 38.0779L25.0827 40.5714L23.9745 39.4632C23.6974 39.1861 23.4204 39.1861 23.1433 39.4632C22.8663 39.7402 22.8663 40.0173 23.1433 40.2944L24.8057 41.6796Z" fill="#0B2D1F"/>
</g>
<g id="Group_12">
<path id="Vector_12" d="M29.5151 48.8828H22.0346C21.7575 48.8828 21.4805 49.1599 21.4805 49.4369V56.9174C21.4805 57.1945 21.7575 57.4716 22.0346 57.4716H29.5151C29.7922 57.4716 30.0692 57.1945 30.0692 56.9174V49.4369C30.3463 49.1599 30.0692 48.8828 29.5151 48.8828ZM28.961 56.3633H22.8658V50.2681H28.961V56.3633Z" fill="#0B2D1F"/>
</g>
<g id="Group_13">
<path id="Vector_13" d="M24.806 54.978C24.806 54.978 25.083 55.255 25.3601 55.255C25.6371 55.255 25.6371 55.255 25.9142 54.978L28.6848 52.2074C28.9618 51.9304 28.9618 51.6533 28.6848 51.3762C28.4077 51.0992 28.1306 51.0992 27.8536 51.3762L25.3601 53.8698L24.2519 52.7615C23.9748 52.4845 23.6977 52.4845 23.4207 52.7615C23.1436 53.0386 23.1436 53.3156 23.4207 53.5927L24.806 54.978Z" fill="#0B2D1F"/>
</g>
</g>
<g id="Group_14">
<g id="Group_15">
<path id="Vector_14" d="M50.5714 27.8267H32.2857C31.4545 27.8267 30.9004 27.2726 30.9004 26.4414C30.9004 25.6103 31.4545 25.0562 32.2857 25.0562H50.5714C51.4026 25.0562 51.9567 25.6103 51.9567 26.4414C51.9567 27.2726 51.4026 27.8267 50.5714 27.8267Z" fill="#0B2D1F"/>
</g>
<g id="Group_16">
<path id="Vector_15" d="M50.5714 41.1255H32.2857C31.4545 41.1255 30.9004 40.5714 30.9004 39.7403C30.9004 38.9091 31.4545 38.355 32.2857 38.355H50.5714C51.4026 38.355 51.9567 38.9091 51.9567 39.7403C51.9567 40.5714 51.4026 41.1255 50.5714 41.1255Z" fill="#0B2D1F"/>
</g>
<g id="Group_17">
<path id="Vector_16" d="M50.5714 54.7012H32.2857C31.4545 54.7012 30.9004 54.1471 30.9004 53.3159C30.9004 52.4848 31.4545 51.9307 32.2857 51.9307H50.5714C51.4026 51.9307 51.9567 52.4848 51.9567 53.3159C51.9567 54.1471 51.4026 54.7012 50.5714 54.7012Z" fill="#0B2D1F"/>
</g>
</g>
</g>
</g>
</g>
</svg>
