<svg width="72" height="72" viewBox="0 0 72 72" fill="none" xmlns="http://www.w3.org/2000/svg">
<g id="purchase-agreement">
<g id="Group 1171275170">
<rect id="Rectangle 34624782" x="15.957" y="26.0435" width="8.10194" height="21.6794" transform="rotate(27.4786 15.957 26.0435)" fill="#2EB67D"/>
<rect id="Rectangle 34624781" x="57.1094" y="26" width="21.0532" height="8.31612" transform="rotate(58.7484 57.1094 26)" fill="#2EB67D"/>
<path id="Rectangle 34624780" d="M20 7H42C48.0751 7 53 11.9249 53 18V29L49.5 32H39L32 34L20 29V7Z" fill="#2EB67D"/>
<g id="Group 1171275169">
<g id="Vector">
<mask id="path-4-outside-1_6487_46500" maskUnits="userSpaceOnUse" x="3.5" y="3.00391" width="66" height="66" fill="black">
<rect fill="white" x="3.5" y="3.00391" width="66" height="66"/>
<path d="M18.8335 4.66803C18.7074 4.76616 18.5391 5.03251 18.455 5.24279C18.3709 5.50914 18.3148 8.99976 18.3148 15.5184V25.4015L17.8943 25.1772C16.8008 24.6164 15.399 24.7987 14.5298 25.6398C14.1513 26.0043 12.6233 28.5977 9.58128 34.0089C4.66076 42.7705 4.64674 42.7985 4.53459 43.4434C4.39441 44.1583 4.6888 45.0836 5.26356 45.7144C5.83832 46.3452 11.0252 49.2891 11.8383 49.4433C13.0158 49.6676 14.3336 49.1489 14.9224 48.2237L15.1747 47.8172L16.4644 48.8125C17.642 49.7377 17.7261 49.8358 17.5999 50.1583C17.2354 51.1396 17.684 52.8779 18.5532 53.7751C19.0578 54.3078 20.2774 54.9666 20.7401 54.9666C20.9363 54.9666 20.9784 55.0928 20.9784 55.6956C20.9784 56.5928 21.441 57.6442 22.1139 58.289C22.6045 58.7517 23.6699 59.2984 24.1045 59.3124C24.2868 59.3124 24.3428 59.4245 24.3428 59.775C24.3428 60.4479 24.6793 61.4853 25.1139 62.1441C25.5484 62.789 26.5858 63.4899 27.3008 63.6021L27.8054 63.6862L27.8895 64.5834C28.0437 66.6301 29.6419 68.0039 31.8287 68.0039C32.9362 68.0039 33.7213 67.6254 35.2773 66.3637L36.4689 65.3965L37.31 65.9993C38.6978 66.9806 39.2866 67.2189 40.3941 67.2189C42.1324 67.2189 43.5763 66.2516 44.0389 64.7516L44.2772 63.9946H45.2165C47.3894 64.0226 49.1557 62.2843 49.1557 60.1255C49.1557 59.6769 49.1978 59.5928 49.4641 59.5928C50.0108 59.5928 50.9501 59.032 51.5809 58.3311C52.2398 57.6021 52.5202 56.8872 52.5202 55.9339V55.3171L53.3332 55.0788C54.3286 54.7844 55.0014 54.2237 55.5201 53.2844C56.0388 52.3312 56.151 51.2097 55.8145 50.1443C55.6603 49.6816 55.6183 49.3031 55.6884 49.233C55.7584 49.177 56.2912 48.7845 56.8519 48.3779C57.6089 47.8452 57.9173 47.691 57.9594 47.8312C58.0014 47.9433 58.2818 48.2938 58.6042 48.6022C59.3051 49.3172 60.3706 49.6256 61.2818 49.3732C61.8565 49.219 67.2537 46.2891 67.7163 45.8686C68.5434 45.1396 68.7537 43.5275 68.1649 42.378C67.6322 41.3266 59.1229 26.3547 58.8145 25.9202C58.464 25.4295 57.6229 24.9809 56.8379 24.8828C56.2912 24.8127 55.8005 24.9108 54.8753 25.3174C54.637 25.4155 54.6229 25.065 54.6229 19.2754V13.1352L50.3192 8.81752L46.0015 4.4998H32.5437C21.9737 4.4998 19.0158 4.54186 18.8335 4.66803ZM44.2492 10.3315V13.9203L44.6557 14.3268L45.0623 14.7334H48.7211H52.38V20.6632V26.5931L51.3005 27.1959C49.7865 28.037 49.3379 28.4015 48.9875 29.0744C48.6791 29.6912 48.5669 30.9248 48.7772 31.5136C48.8753 31.808 48.8052 31.85 47.6837 32.2005C45.8613 32.7753 45.1604 32.6771 42.7352 31.4996C41.1651 30.7426 40.6324 30.5603 39.8754 30.4762C38.067 30.308 36.3848 30.8547 34.1839 32.2846L32.8241 33.1818L31.9129 32.7753C30.3288 32.0603 28.5204 31.6818 25.0438 31.3454L24.2727 31.2612L24.3148 30.4622C24.3709 29.2286 23.8662 28.4575 22.4363 27.6024C21.8195 27.2519 21.1606 26.8734 20.9503 26.7753L20.5578 26.6071V16.6679V6.74278H32.4035H44.2492V10.3315ZM48.665 10.5278L50.6276 12.4904H48.623H46.6324V10.5278C46.6324 9.44836 46.6464 8.56519 46.6744 8.56519C46.6884 8.56519 47.5856 9.44836 48.665 10.5278ZM56.894 27.308C57.2444 27.7286 66.2584 43.7378 66.2584 43.948C66.2584 44.2144 60.9874 47.1443 60.5949 47.0882C60.1743 47.0321 50.7538 30.5743 50.9361 30.2239C51.0903 29.9575 56.1089 27.0977 56.4594 27.0837C56.5855 27.0697 56.7818 27.1818 56.894 27.308ZM19.4924 28.6538C20.8802 29.4388 22.0718 30.1818 22.1419 30.308C22.3382 30.6304 13.0579 46.948 12.6093 47.0602C12.385 47.1162 11.5859 46.7518 9.67941 45.7004C8.24951 44.9013 7.01588 44.1443 6.9598 44.0181C6.86167 43.8499 7.64672 42.364 9.93174 38.3406C11.628 35.3406 13.7448 31.6117 14.628 30.0416C16.0999 27.4482 16.2681 27.2099 16.6046 27.2239C16.8149 27.2239 18.1186 27.8688 19.4924 28.6538ZM41.6558 33.4762C44.0249 34.5696 44.4314 34.6818 45.8613 34.6818C46.8286 34.6678 47.4454 34.5696 48.5529 34.2472L49.9828 33.8407L53.2071 39.5322C54.9874 42.6583 56.4734 45.3219 56.5154 45.448C56.5715 45.6163 56.2351 45.9387 55.2538 46.6817L53.908 47.691L52.6183 46.6676C51.9174 46.1069 49.1978 43.892 46.5763 41.7612C43.9688 39.6163 41.5296 37.7238 41.1791 37.5556C39.7913 36.8827 38.5717 37.2051 35.824 38.9434C33.553 40.3873 33.3988 40.4574 32.053 40.4574C31.0017 40.4574 30.7774 40.4154 30.2026 40.0649C29.6559 39.7425 28.969 39.0416 28.969 38.8032C28.969 38.6911 36.1605 33.7145 36.8194 33.378C38.5997 32.4668 39.4829 32.4809 41.6558 33.4762ZM25.8148 33.6724C27.6512 33.8266 29.0951 34.093 30.1185 34.4575L30.7914 34.6958L29.2774 35.6631C27.0484 37.093 26.5858 37.6117 26.5858 38.663C26.5858 39.7986 27.9877 41.4808 29.4876 42.1677C30.539 42.6583 32.4175 42.7705 33.7213 42.42C34.8708 42.1256 35.3334 41.8873 37.5764 40.4855C39.6371 39.1817 39.9735 39.1116 40.8287 39.7565C41.1371 39.9808 42.9595 41.4668 44.88 43.0368C46.8146 44.6209 49.5202 46.8219 50.908 47.9293C53.7818 50.2143 54.0482 50.5648 53.7818 51.5321C53.5155 52.4994 52.6323 53.1162 51.7772 52.9199C51.5529 52.8779 49.9267 51.6863 48.0623 50.1863C45.1043 47.8312 44.6838 47.5368 44.2212 47.5368C43.2679 47.5368 42.7773 48.6863 43.4501 49.4013C43.6184 49.5975 45.0483 50.7751 46.6324 52.0227C48.2165 53.2704 49.6463 54.462 49.8146 54.6723C50.7398 55.7517 50.0108 57.2096 48.5389 57.2096C48.1183 57.2096 47.6697 56.9152 45.4127 55.1068C43.0857 53.2564 42.7212 53.004 42.2586 53.004C41.5436 53.004 41.1651 53.3966 41.1651 54.1115C41.1651 54.7423 41.1791 54.7564 44.5856 57.4199C46.6464 59.032 47.0109 59.5087 46.8426 60.3077C46.7025 60.9105 45.8894 61.5554 45.2585 61.5554C44.6557 61.5554 44.5576 61.4993 42.1184 59.6208C40.5203 58.4012 40.1558 58.1909 39.7212 58.1909C39.0483 58.1909 38.6418 58.5834 38.6418 59.2283C38.6418 59.8171 38.838 60.0414 40.324 61.2049C42.0202 62.5226 42.3847 63.3357 41.6558 64.2049C41.2352 64.6955 40.5062 64.9759 39.9876 64.8357C39.7913 64.7937 39.1324 64.3731 38.5296 63.9105C37.4502 63.0834 37.4502 63.0694 37.282 62.1862C37.0296 60.7843 36.581 60.0694 35.4455 59.3124L35.1371 59.1021L35.4455 58.4713C35.6979 57.9666 35.768 57.6161 35.768 56.719C35.768 55.2891 35.3334 54.3638 34.31 53.6349L33.6371 53.1442L33.9315 52.5414C34.1558 52.0788 34.2259 51.7003 34.2259 50.7611C34.2259 49.6816 34.1839 49.4994 33.7913 48.7985C32.8801 47.2144 31.2119 46.5835 29.1652 47.0602C28.9269 47.1162 28.8288 47.0321 28.6325 46.4994C28.3241 45.7004 27.4409 44.7892 26.6138 44.4107C25.6886 44.0041 24.2167 44.0041 23.3615 44.4247C23.0111 44.5929 21.9036 45.392 20.8802 46.205L19.0298 47.691L17.684 46.6256L16.3522 45.5602L16.8008 44.7471C17.0532 44.3125 18.5952 41.5929 20.2074 38.7331L23.1513 33.5323L23.6419 33.5182C23.9083 33.5182 24.8896 33.5883 25.8148 33.6724ZM26.1092 47.0321C26.4877 47.4106 26.5858 47.6209 26.5858 48.0415C26.5718 48.3499 26.5017 48.7284 26.4036 48.8826C26.2494 49.163 24.455 50.6629 22.6185 52.0648C21.6653 52.7938 21.0064 52.7938 20.2634 52.0368C19.955 51.7424 19.7167 51.3639 19.7167 51.2237C19.7167 50.4106 20.0391 50.0321 22.198 48.2938C24.2587 46.6536 24.4129 46.5555 25.0017 46.5555C25.5344 46.5555 25.7026 46.6256 26.1092 47.0321ZM31.1979 49.5695C31.5904 49.7658 32.053 50.5228 32.053 50.9713C32.053 51.5321 31.4643 52.1209 28.8708 54.2237C27.3428 55.4433 25.9409 56.5648 25.7447 56.6909C25.0017 57.2096 23.8522 56.8732 23.4456 56.018C23.1653 55.4293 23.2354 54.9106 23.684 54.3919C23.8522 54.1816 25.2961 52.976 26.9082 51.6863C29.4316 49.6676 29.8802 49.3592 30.3147 49.3592C30.5811 49.3592 30.9876 49.4573 31.1979 49.5695ZM32.8241 55.5554C33.0343 55.7236 33.3007 56.0601 33.3988 56.3124C33.567 56.719 33.567 56.8591 33.3708 57.3358C33.2026 57.7704 32.754 58.1909 31.1699 59.4105C30.0764 60.2657 29.0391 61.0227 28.8708 61.1068C27.5671 61.8077 26.0952 59.9993 27.0204 58.8358C27.2867 58.4993 30.2166 56.0601 31.0717 55.4853C31.5484 55.1489 32.3474 55.1769 32.8241 55.5554ZM34.5203 61.6114C34.9128 62.004 34.9969 62.1862 34.9969 62.7049C34.9969 63.4759 34.8427 63.7002 33.539 64.6955C32.2493 65.6768 31.6745 65.817 30.9316 65.3123C30.6652 65.1301 30.3708 64.7656 30.2587 64.4852C29.9783 63.7282 30.2727 63.1535 31.4362 62.2283C32.6979 61.2329 32.8661 61.1488 33.511 61.1348C33.9315 61.1348 34.1418 61.2329 34.5203 61.6114Z"/>
</mask>
<path d="M18.8335 4.66803C18.7074 4.76616 18.5391 5.03251 18.455 5.24279C18.3709 5.50914 18.3148 8.99976 18.3148 15.5184V25.4015L17.8943 25.1772C16.8008 24.6164 15.399 24.7987 14.5298 25.6398C14.1513 26.0043 12.6233 28.5977 9.58128 34.0089C4.66076 42.7705 4.64674 42.7985 4.53459 43.4434C4.39441 44.1583 4.6888 45.0836 5.26356 45.7144C5.83832 46.3452 11.0252 49.2891 11.8383 49.4433C13.0158 49.6676 14.3336 49.1489 14.9224 48.2237L15.1747 47.8172L16.4644 48.8125C17.642 49.7377 17.7261 49.8358 17.5999 50.1583C17.2354 51.1396 17.684 52.8779 18.5532 53.7751C19.0578 54.3078 20.2774 54.9666 20.7401 54.9666C20.9363 54.9666 20.9784 55.0928 20.9784 55.6956C20.9784 56.5928 21.441 57.6442 22.1139 58.289C22.6045 58.7517 23.6699 59.2984 24.1045 59.3124C24.2868 59.3124 24.3428 59.4245 24.3428 59.775C24.3428 60.4479 24.6793 61.4853 25.1139 62.1441C25.5484 62.789 26.5858 63.4899 27.3008 63.6021L27.8054 63.6862L27.8895 64.5834C28.0437 66.6301 29.6419 68.0039 31.8287 68.0039C32.9362 68.0039 33.7213 67.6254 35.2773 66.3637L36.4689 65.3965L37.31 65.9993C38.6978 66.9806 39.2866 67.2189 40.3941 67.2189C42.1324 67.2189 43.5763 66.2516 44.0389 64.7516L44.2772 63.9946H45.2165C47.3894 64.0226 49.1557 62.2843 49.1557 60.1255C49.1557 59.6769 49.1978 59.5928 49.4641 59.5928C50.0108 59.5928 50.9501 59.032 51.5809 58.3311C52.2398 57.6021 52.5202 56.8872 52.5202 55.9339V55.3171L53.3332 55.0788C54.3286 54.7844 55.0014 54.2237 55.5201 53.2844C56.0388 52.3312 56.151 51.2097 55.8145 50.1443C55.6603 49.6816 55.6183 49.3031 55.6884 49.233C55.7584 49.177 56.2912 48.7845 56.8519 48.3779C57.6089 47.8452 57.9173 47.691 57.9594 47.8312C58.0014 47.9433 58.2818 48.2938 58.6042 48.6022C59.3051 49.3172 60.3706 49.6256 61.2818 49.3732C61.8565 49.219 67.2537 46.2891 67.7163 45.8686C68.5434 45.1396 68.7537 43.5275 68.1649 42.378C67.6322 41.3266 59.1229 26.3547 58.8145 25.9202C58.464 25.4295 57.6229 24.9809 56.8379 24.8828C56.2912 24.8127 55.8005 24.9108 54.8753 25.3174C54.637 25.4155 54.6229 25.065 54.6229 19.2754V13.1352L50.3192 8.81752L46.0015 4.4998H32.5437C21.9737 4.4998 19.0158 4.54186 18.8335 4.66803ZM44.2492 10.3315V13.9203L44.6557 14.3268L45.0623 14.7334H48.7211H52.38V20.6632V26.5931L51.3005 27.1959C49.7865 28.037 49.3379 28.4015 48.9875 29.0744C48.6791 29.6912 48.5669 30.9248 48.7772 31.5136C48.8753 31.808 48.8052 31.85 47.6837 32.2005C45.8613 32.7753 45.1604 32.6771 42.7352 31.4996C41.1651 30.7426 40.6324 30.5603 39.8754 30.4762C38.067 30.308 36.3848 30.8547 34.1839 32.2846L32.8241 33.1818L31.9129 32.7753C30.3288 32.0603 28.5204 31.6818 25.0438 31.3454L24.2727 31.2612L24.3148 30.4622C24.3709 29.2286 23.8662 28.4575 22.4363 27.6024C21.8195 27.2519 21.1606 26.8734 20.9503 26.7753L20.5578 26.6071V16.6679V6.74278H32.4035H44.2492V10.3315ZM48.665 10.5278L50.6276 12.4904H48.623H46.6324V10.5278C46.6324 9.44836 46.6464 8.56519 46.6744 8.56519C46.6884 8.56519 47.5856 9.44836 48.665 10.5278ZM56.894 27.308C57.2444 27.7286 66.2584 43.7378 66.2584 43.948C66.2584 44.2144 60.9874 47.1443 60.5949 47.0882C60.1743 47.0321 50.7538 30.5743 50.9361 30.2239C51.0903 29.9575 56.1089 27.0977 56.4594 27.0837C56.5855 27.0697 56.7818 27.1818 56.894 27.308ZM19.4924 28.6538C20.8802 29.4388 22.0718 30.1818 22.1419 30.308C22.3382 30.6304 13.0579 46.948 12.6093 47.0602C12.385 47.1162 11.5859 46.7518 9.67941 45.7004C8.24951 44.9013 7.01588 44.1443 6.9598 44.0181C6.86167 43.8499 7.64672 42.364 9.93174 38.3406C11.628 35.3406 13.7448 31.6117 14.628 30.0416C16.0999 27.4482 16.2681 27.2099 16.6046 27.2239C16.8149 27.2239 18.1186 27.8688 19.4924 28.6538ZM41.6558 33.4762C44.0249 34.5696 44.4314 34.6818 45.8613 34.6818C46.8286 34.6678 47.4454 34.5696 48.5529 34.2472L49.9828 33.8407L53.2071 39.5322C54.9874 42.6583 56.4734 45.3219 56.5154 45.448C56.5715 45.6163 56.2351 45.9387 55.2538 46.6817L53.908 47.691L52.6183 46.6676C51.9174 46.1069 49.1978 43.892 46.5763 41.7612C43.9688 39.6163 41.5296 37.7238 41.1791 37.5556C39.7913 36.8827 38.5717 37.2051 35.824 38.9434C33.553 40.3873 33.3988 40.4574 32.053 40.4574C31.0017 40.4574 30.7774 40.4154 30.2026 40.0649C29.6559 39.7425 28.969 39.0416 28.969 38.8032C28.969 38.6911 36.1605 33.7145 36.8194 33.378C38.5997 32.4668 39.4829 32.4809 41.6558 33.4762ZM25.8148 33.6724C27.6512 33.8266 29.0951 34.093 30.1185 34.4575L30.7914 34.6958L29.2774 35.6631C27.0484 37.093 26.5858 37.6117 26.5858 38.663C26.5858 39.7986 27.9877 41.4808 29.4876 42.1677C30.539 42.6583 32.4175 42.7705 33.7213 42.42C34.8708 42.1256 35.3334 41.8873 37.5764 40.4855C39.6371 39.1817 39.9735 39.1116 40.8287 39.7565C41.1371 39.9808 42.9595 41.4668 44.88 43.0368C46.8146 44.6209 49.5202 46.8219 50.908 47.9293C53.7818 50.2143 54.0482 50.5648 53.7818 51.5321C53.5155 52.4994 52.6323 53.1162 51.7772 52.9199C51.5529 52.8779 49.9267 51.6863 48.0623 50.1863C45.1043 47.8312 44.6838 47.5368 44.2212 47.5368C43.2679 47.5368 42.7773 48.6863 43.4501 49.4013C43.6184 49.5975 45.0483 50.7751 46.6324 52.0227C48.2165 53.2704 49.6463 54.462 49.8146 54.6723C50.7398 55.7517 50.0108 57.2096 48.5389 57.2096C48.1183 57.2096 47.6697 56.9152 45.4127 55.1068C43.0857 53.2564 42.7212 53.004 42.2586 53.004C41.5436 53.004 41.1651 53.3966 41.1651 54.1115C41.1651 54.7423 41.1791 54.7564 44.5856 57.4199C46.6464 59.032 47.0109 59.5087 46.8426 60.3077C46.7025 60.9105 45.8894 61.5554 45.2585 61.5554C44.6557 61.5554 44.5576 61.4993 42.1184 59.6208C40.5203 58.4012 40.1558 58.1909 39.7212 58.1909C39.0483 58.1909 38.6418 58.5834 38.6418 59.2283C38.6418 59.8171 38.838 60.0414 40.324 61.2049C42.0202 62.5226 42.3847 63.3357 41.6558 64.2049C41.2352 64.6955 40.5062 64.9759 39.9876 64.8357C39.7913 64.7937 39.1324 64.3731 38.5296 63.9105C37.4502 63.0834 37.4502 63.0694 37.282 62.1862C37.0296 60.7843 36.581 60.0694 35.4455 59.3124L35.1371 59.1021L35.4455 58.4713C35.6979 57.9666 35.768 57.6161 35.768 56.719C35.768 55.2891 35.3334 54.3638 34.31 53.6349L33.6371 53.1442L33.9315 52.5414C34.1558 52.0788 34.2259 51.7003 34.2259 50.7611C34.2259 49.6816 34.1839 49.4994 33.7913 48.7985C32.8801 47.2144 31.2119 46.5835 29.1652 47.0602C28.9269 47.1162 28.8288 47.0321 28.6325 46.4994C28.3241 45.7004 27.4409 44.7892 26.6138 44.4107C25.6886 44.0041 24.2167 44.0041 23.3615 44.4247C23.0111 44.5929 21.9036 45.392 20.8802 46.205L19.0298 47.691L17.684 46.6256L16.3522 45.5602L16.8008 44.7471C17.0532 44.3125 18.5952 41.5929 20.2074 38.7331L23.1513 33.5323L23.6419 33.5182C23.9083 33.5182 24.8896 33.5883 25.8148 33.6724ZM26.1092 47.0321C26.4877 47.4106 26.5858 47.6209 26.5858 48.0415C26.5718 48.3499 26.5017 48.7284 26.4036 48.8826C26.2494 49.163 24.455 50.6629 22.6185 52.0648C21.6653 52.7938 21.0064 52.7938 20.2634 52.0368C19.955 51.7424 19.7167 51.3639 19.7167 51.2237C19.7167 50.4106 20.0391 50.0321 22.198 48.2938C24.2587 46.6536 24.4129 46.5555 25.0017 46.5555C25.5344 46.5555 25.7026 46.6256 26.1092 47.0321ZM31.1979 49.5695C31.5904 49.7658 32.053 50.5228 32.053 50.9713C32.053 51.5321 31.4643 52.1209 28.8708 54.2237C27.3428 55.4433 25.9409 56.5648 25.7447 56.6909C25.0017 57.2096 23.8522 56.8732 23.4456 56.018C23.1653 55.4293 23.2354 54.9106 23.684 54.3919C23.8522 54.1816 25.2961 52.976 26.9082 51.6863C29.4316 49.6676 29.8802 49.3592 30.3147 49.3592C30.5811 49.3592 30.9876 49.4573 31.1979 49.5695ZM32.8241 55.5554C33.0343 55.7236 33.3007 56.0601 33.3988 56.3124C33.567 56.719 33.567 56.8591 33.3708 57.3358C33.2026 57.7704 32.754 58.1909 31.1699 59.4105C30.0764 60.2657 29.0391 61.0227 28.8708 61.1068C27.5671 61.8077 26.0952 59.9993 27.0204 58.8358C27.2867 58.4993 30.2166 56.0601 31.0717 55.4853C31.5484 55.1489 32.3474 55.1769 32.8241 55.5554ZM34.5203 61.6114C34.9128 62.004 34.9969 62.1862 34.9969 62.7049C34.9969 63.4759 34.8427 63.7002 33.539 64.6955C32.2493 65.6768 31.6745 65.817 30.9316 65.3123C30.6652 65.1301 30.3708 64.7656 30.2587 64.4852C29.9783 63.7282 30.2727 63.1535 31.4362 62.2283C32.6979 61.2329 32.8661 61.1488 33.511 61.1348C33.9315 61.1348 34.1418 61.2329 34.5203 61.6114Z" fill="#0B2D1F"/>
<path d="M18.8335 4.66803C18.7074 4.76616 18.5391 5.03251 18.455 5.24279C18.3709 5.50914 18.3148 8.99976 18.3148 15.5184V25.4015L17.8943 25.1772C16.8008 24.6164 15.399 24.7987 14.5298 25.6398C14.1513 26.0043 12.6233 28.5977 9.58128 34.0089C4.66076 42.7705 4.64674 42.7985 4.53459 43.4434C4.39441 44.1583 4.6888 45.0836 5.26356 45.7144C5.83832 46.3452 11.0252 49.2891 11.8383 49.4433C13.0158 49.6676 14.3336 49.1489 14.9224 48.2237L15.1747 47.8172L16.4644 48.8125C17.642 49.7377 17.7261 49.8358 17.5999 50.1583C17.2354 51.1396 17.684 52.8779 18.5532 53.7751C19.0578 54.3078 20.2774 54.9666 20.7401 54.9666C20.9363 54.9666 20.9784 55.0928 20.9784 55.6956C20.9784 56.5928 21.441 57.6442 22.1139 58.289C22.6045 58.7517 23.6699 59.2984 24.1045 59.3124C24.2868 59.3124 24.3428 59.4245 24.3428 59.775C24.3428 60.4479 24.6793 61.4853 25.1139 62.1441C25.5484 62.789 26.5858 63.4899 27.3008 63.6021L27.8054 63.6862L27.8895 64.5834C28.0437 66.6301 29.6419 68.0039 31.8287 68.0039C32.9362 68.0039 33.7213 67.6254 35.2773 66.3637L36.4689 65.3965L37.31 65.9993C38.6978 66.9806 39.2866 67.2189 40.3941 67.2189C42.1324 67.2189 43.5763 66.2516 44.0389 64.7516L44.2772 63.9946H45.2165C47.3894 64.0226 49.1557 62.2843 49.1557 60.1255C49.1557 59.6769 49.1978 59.5928 49.4641 59.5928C50.0108 59.5928 50.9501 59.032 51.5809 58.3311C52.2398 57.6021 52.5202 56.8872 52.5202 55.9339V55.3171L53.3332 55.0788C54.3286 54.7844 55.0014 54.2237 55.5201 53.2844C56.0388 52.3312 56.151 51.2097 55.8145 50.1443C55.6603 49.6816 55.6183 49.3031 55.6884 49.233C55.7584 49.177 56.2912 48.7845 56.8519 48.3779C57.6089 47.8452 57.9173 47.691 57.9594 47.8312C58.0014 47.9433 58.2818 48.2938 58.6042 48.6022C59.3051 49.3172 60.3706 49.6256 61.2818 49.3732C61.8565 49.219 67.2537 46.2891 67.7163 45.8686C68.5434 45.1396 68.7537 43.5275 68.1649 42.378C67.6322 41.3266 59.1229 26.3547 58.8145 25.9202C58.464 25.4295 57.6229 24.9809 56.8379 24.8828C56.2912 24.8127 55.8005 24.9108 54.8753 25.3174C54.637 25.4155 54.6229 25.065 54.6229 19.2754V13.1352L50.3192 8.81752L46.0015 4.4998H32.5437C21.9737 4.4998 19.0158 4.54186 18.8335 4.66803ZM44.2492 10.3315V13.9203L44.6557 14.3268L45.0623 14.7334H48.7211H52.38V20.6632V26.5931L51.3005 27.1959C49.7865 28.037 49.3379 28.4015 48.9875 29.0744C48.6791 29.6912 48.5669 30.9248 48.7772 31.5136C48.8753 31.808 48.8052 31.85 47.6837 32.2005C45.8613 32.7753 45.1604 32.6771 42.7352 31.4996C41.1651 30.7426 40.6324 30.5603 39.8754 30.4762C38.067 30.308 36.3848 30.8547 34.1839 32.2846L32.8241 33.1818L31.9129 32.7753C30.3288 32.0603 28.5204 31.6818 25.0438 31.3454L24.2727 31.2612L24.3148 30.4622C24.3709 29.2286 23.8662 28.4575 22.4363 27.6024C21.8195 27.2519 21.1606 26.8734 20.9503 26.7753L20.5578 26.6071V16.6679V6.74278H32.4035H44.2492V10.3315ZM48.665 10.5278L50.6276 12.4904H48.623H46.6324V10.5278C46.6324 9.44836 46.6464 8.56519 46.6744 8.56519C46.6884 8.56519 47.5856 9.44836 48.665 10.5278ZM56.894 27.308C57.2444 27.7286 66.2584 43.7378 66.2584 43.948C66.2584 44.2144 60.9874 47.1443 60.5949 47.0882C60.1743 47.0321 50.7538 30.5743 50.9361 30.2239C51.0903 29.9575 56.1089 27.0977 56.4594 27.0837C56.5855 27.0697 56.7818 27.1818 56.894 27.308ZM19.4924 28.6538C20.8802 29.4388 22.0718 30.1818 22.1419 30.308C22.3382 30.6304 13.0579 46.948 12.6093 47.0602C12.385 47.1162 11.5859 46.7518 9.67941 45.7004C8.24951 44.9013 7.01588 44.1443 6.9598 44.0181C6.86167 43.8499 7.64672 42.364 9.93174 38.3406C11.628 35.3406 13.7448 31.6117 14.628 30.0416C16.0999 27.4482 16.2681 27.2099 16.6046 27.2239C16.8149 27.2239 18.1186 27.8688 19.4924 28.6538ZM41.6558 33.4762C44.0249 34.5696 44.4314 34.6818 45.8613 34.6818C46.8286 34.6678 47.4454 34.5696 48.5529 34.2472L49.9828 33.8407L53.2071 39.5322C54.9874 42.6583 56.4734 45.3219 56.5154 45.448C56.5715 45.6163 56.2351 45.9387 55.2538 46.6817L53.908 47.691L52.6183 46.6676C51.9174 46.1069 49.1978 43.892 46.5763 41.7612C43.9688 39.6163 41.5296 37.7238 41.1791 37.5556C39.7913 36.8827 38.5717 37.2051 35.824 38.9434C33.553 40.3873 33.3988 40.4574 32.053 40.4574C31.0017 40.4574 30.7774 40.4154 30.2026 40.0649C29.6559 39.7425 28.969 39.0416 28.969 38.8032C28.969 38.6911 36.1605 33.7145 36.8194 33.378C38.5997 32.4668 39.4829 32.4809 41.6558 33.4762ZM25.8148 33.6724C27.6512 33.8266 29.0951 34.093 30.1185 34.4575L30.7914 34.6958L29.2774 35.6631C27.0484 37.093 26.5858 37.6117 26.5858 38.663C26.5858 39.7986 27.9877 41.4808 29.4876 42.1677C30.539 42.6583 32.4175 42.7705 33.7213 42.42C34.8708 42.1256 35.3334 41.8873 37.5764 40.4855C39.6371 39.1817 39.9735 39.1116 40.8287 39.7565C41.1371 39.9808 42.9595 41.4668 44.88 43.0368C46.8146 44.6209 49.5202 46.8219 50.908 47.9293C53.7818 50.2143 54.0482 50.5648 53.7818 51.5321C53.5155 52.4994 52.6323 53.1162 51.7772 52.9199C51.5529 52.8779 49.9267 51.6863 48.0623 50.1863C45.1043 47.8312 44.6838 47.5368 44.2212 47.5368C43.2679 47.5368 42.7773 48.6863 43.4501 49.4013C43.6184 49.5975 45.0483 50.7751 46.6324 52.0227C48.2165 53.2704 49.6463 54.462 49.8146 54.6723C50.7398 55.7517 50.0108 57.2096 48.5389 57.2096C48.1183 57.2096 47.6697 56.9152 45.4127 55.1068C43.0857 53.2564 42.7212 53.004 42.2586 53.004C41.5436 53.004 41.1651 53.3966 41.1651 54.1115C41.1651 54.7423 41.1791 54.7564 44.5856 57.4199C46.6464 59.032 47.0109 59.5087 46.8426 60.3077C46.7025 60.9105 45.8894 61.5554 45.2585 61.5554C44.6557 61.5554 44.5576 61.4993 42.1184 59.6208C40.5203 58.4012 40.1558 58.1909 39.7212 58.1909C39.0483 58.1909 38.6418 58.5834 38.6418 59.2283C38.6418 59.8171 38.838 60.0414 40.324 61.2049C42.0202 62.5226 42.3847 63.3357 41.6558 64.2049C41.2352 64.6955 40.5062 64.9759 39.9876 64.8357C39.7913 64.7937 39.1324 64.3731 38.5296 63.9105C37.4502 63.0834 37.4502 63.0694 37.282 62.1862C37.0296 60.7843 36.581 60.0694 35.4455 59.3124L35.1371 59.1021L35.4455 58.4713C35.6979 57.9666 35.768 57.6161 35.768 56.719C35.768 55.2891 35.3334 54.3638 34.31 53.6349L33.6371 53.1442L33.9315 52.5414C34.1558 52.0788 34.2259 51.7003 34.2259 50.7611C34.2259 49.6816 34.1839 49.4994 33.7913 48.7985C32.8801 47.2144 31.2119 46.5835 29.1652 47.0602C28.9269 47.1162 28.8288 47.0321 28.6325 46.4994C28.3241 45.7004 27.4409 44.7892 26.6138 44.4107C25.6886 44.0041 24.2167 44.0041 23.3615 44.4247C23.0111 44.5929 21.9036 45.392 20.8802 46.205L19.0298 47.691L17.684 46.6256L16.3522 45.5602L16.8008 44.7471C17.0532 44.3125 18.5952 41.5929 20.2074 38.7331L23.1513 33.5323L23.6419 33.5182C23.9083 33.5182 24.8896 33.5883 25.8148 33.6724ZM26.1092 47.0321C26.4877 47.4106 26.5858 47.6209 26.5858 48.0415C26.5718 48.3499 26.5017 48.7284 26.4036 48.8826C26.2494 49.163 24.455 50.6629 22.6185 52.0648C21.6653 52.7938 21.0064 52.7938 20.2634 52.0368C19.955 51.7424 19.7167 51.3639 19.7167 51.2237C19.7167 50.4106 20.0391 50.0321 22.198 48.2938C24.2587 46.6536 24.4129 46.5555 25.0017 46.5555C25.5344 46.5555 25.7026 46.6256 26.1092 47.0321ZM31.1979 49.5695C31.5904 49.7658 32.053 50.5228 32.053 50.9713C32.053 51.5321 31.4643 52.1209 28.8708 54.2237C27.3428 55.4433 25.9409 56.5648 25.7447 56.6909C25.0017 57.2096 23.8522 56.8732 23.4456 56.018C23.1653 55.4293 23.2354 54.9106 23.684 54.3919C23.8522 54.1816 25.2961 52.976 26.9082 51.6863C29.4316 49.6676 29.8802 49.3592 30.3147 49.3592C30.5811 49.3592 30.9876 49.4573 31.1979 49.5695ZM32.8241 55.5554C33.0343 55.7236 33.3007 56.0601 33.3988 56.3124C33.567 56.719 33.567 56.8591 33.3708 57.3358C33.2026 57.7704 32.754 58.1909 31.1699 59.4105C30.0764 60.2657 29.0391 61.0227 28.8708 61.1068C27.5671 61.8077 26.0952 59.9993 27.0204 58.8358C27.2867 58.4993 30.2166 56.0601 31.0717 55.4853C31.5484 55.1489 32.3474 55.1769 32.8241 55.5554ZM34.5203 61.6114C34.9128 62.004 34.9969 62.1862 34.9969 62.7049C34.9969 63.4759 34.8427 63.7002 33.539 64.6955C32.2493 65.6768 31.6745 65.817 30.9316 65.3123C30.6652 65.1301 30.3708 64.7656 30.2587 64.4852C29.9783 63.7282 30.2727 63.1535 31.4362 62.2283C32.6979 61.2329 32.8661 61.1488 33.511 61.1348C33.9315 61.1348 34.1418 61.2329 34.5203 61.6114Z" stroke="#0B2D1F" stroke-width="1.13778" mask="url(#path-4-outside-1_6487_46500)"/>
</g>
<g id="Vector_2">
<mask id="path-5-outside-2_6487_46500" maskUnits="userSpaceOnUse" x="31.418" y="8.75684" width="10" height="20" fill="black">
<rect fill="white" x="31.418" y="8.75684" width="10" height="20"/>
<path d="M35.7264 10.0093C35.4741 10.2757 35.418 10.5 35.418 11.3411C35.418 12.1542 35.376 12.3504 35.2078 12.3504C34.7872 12.3504 33.9321 12.8972 33.3994 13.4719C32.6704 14.271 32.4321 14.9158 32.4181 16.0093C32.404 18.1261 33.9741 19.7382 36.0909 19.7663C37.4788 19.7943 38.2217 20.341 38.2217 21.3644C38.2217 21.7989 38.1236 22.0092 37.7451 22.3877L37.2685 22.8644H35.362C32.9367 22.8644 32.4741 23.0606 32.4741 24.0559C32.4741 24.9251 33.0068 25.2475 34.4367 25.2475H35.418V26.0326C35.418 27.1961 35.8106 27.7568 36.6096 27.7568C37.4367 27.7568 37.8012 27.1961 37.8012 25.9204V25.0232L38.3059 24.841C38.9647 24.6027 39.8479 23.8036 40.2264 23.0887C40.6329 22.3176 40.661 20.3831 40.2685 19.6401C39.5816 18.3223 38.5582 17.6915 36.904 17.5513C35.6143 17.4252 35.2358 17.2429 34.9134 16.584C34.5349 15.785 34.9274 14.9579 35.8806 14.6074C36.1049 14.5233 37.0862 14.4532 38.0675 14.4532C39.7498 14.4532 39.8759 14.4392 40.1563 14.1308C40.5769 13.6822 40.5629 12.9953 40.1143 12.5607C39.8199 12.2523 39.6516 12.2102 38.7124 12.2102H37.661V11.257C37.661 10.4299 37.619 10.2476 37.3386 9.99531C36.89 9.57476 36.119 9.58878 35.7264 10.0093Z"/>
</mask>
<path d="M35.7264 10.0093C35.4741 10.2757 35.418 10.5 35.418 11.3411C35.418 12.1542 35.376 12.3504 35.2078 12.3504C34.7872 12.3504 33.9321 12.8972 33.3994 13.4719C32.6704 14.271 32.4321 14.9158 32.4181 16.0093C32.404 18.1261 33.9741 19.7382 36.0909 19.7663C37.4788 19.7943 38.2217 20.341 38.2217 21.3644C38.2217 21.7989 38.1236 22.0092 37.7451 22.3877L37.2685 22.8644H35.362C32.9367 22.8644 32.4741 23.0606 32.4741 24.0559C32.4741 24.9251 33.0068 25.2475 34.4367 25.2475H35.418V26.0326C35.418 27.1961 35.8106 27.7568 36.6096 27.7568C37.4367 27.7568 37.8012 27.1961 37.8012 25.9204V25.0232L38.3059 24.841C38.9647 24.6027 39.8479 23.8036 40.2264 23.0887C40.6329 22.3176 40.661 20.3831 40.2685 19.6401C39.5816 18.3223 38.5582 17.6915 36.904 17.5513C35.6143 17.4252 35.2358 17.2429 34.9134 16.584C34.5349 15.785 34.9274 14.9579 35.8806 14.6074C36.1049 14.5233 37.0862 14.4532 38.0675 14.4532C39.7498 14.4532 39.8759 14.4392 40.1563 14.1308C40.5769 13.6822 40.5629 12.9953 40.1143 12.5607C39.8199 12.2523 39.6516 12.2102 38.7124 12.2102H37.661V11.257C37.661 10.4299 37.619 10.2476 37.3386 9.99531C36.89 9.57476 36.119 9.58878 35.7264 10.0093Z" fill="#0B2D1F"/>
<path d="M35.7264 10.0093C35.4741 10.2757 35.418 10.5 35.418 11.3411C35.418 12.1542 35.376 12.3504 35.2078 12.3504C34.7872 12.3504 33.9321 12.8972 33.3994 13.4719C32.6704 14.271 32.4321 14.9158 32.4181 16.0093C32.404 18.1261 33.9741 19.7382 36.0909 19.7663C37.4788 19.7943 38.2217 20.341 38.2217 21.3644C38.2217 21.7989 38.1236 22.0092 37.7451 22.3877L37.2685 22.8644H35.362C32.9367 22.8644 32.4741 23.0606 32.4741 24.0559C32.4741 24.9251 33.0068 25.2475 34.4367 25.2475H35.418V26.0326C35.418 27.1961 35.8106 27.7568 36.6096 27.7568C37.4367 27.7568 37.8012 27.1961 37.8012 25.9204V25.0232L38.3059 24.841C38.9647 24.6027 39.8479 23.8036 40.2264 23.0887C40.6329 22.3176 40.661 20.3831 40.2685 19.6401C39.5816 18.3223 38.5582 17.6915 36.904 17.5513C35.6143 17.4252 35.2358 17.2429 34.9134 16.584C34.5349 15.785 34.9274 14.9579 35.8806 14.6074C36.1049 14.5233 37.0862 14.4532 38.0675 14.4532C39.7498 14.4532 39.8759 14.4392 40.1563 14.1308C40.5769 13.6822 40.5629 12.9953 40.1143 12.5607C39.8199 12.2523 39.6516 12.2102 38.7124 12.2102H37.661V11.257C37.661 10.4299 37.619 10.2476 37.3386 9.99531C36.89 9.57476 36.119 9.58878 35.7264 10.0093Z" stroke="#0B2D1F" stroke-width="1.13778" mask="url(#path-5-outside-2_6487_46500)"/>
</g>
<g id="Vector_3">
<mask id="path-6-outside-3_6487_46500" maskUnits="userSpaceOnUse" x="53.6348" y="30.376" width="4" height="4" fill="black">
<rect fill="white" x="53.6348" y="30.376" width="4" height="4"/>
<path d="M54.9174 31.5C54.5249 32.0047 54.5389 32.6075 54.9735 33.0281C55.6885 33.757 56.866 33.2664 56.866 32.243C56.866 31.8785 56.7679 31.5982 56.5857 31.4159C56.1511 30.9814 55.2819 31.0374 54.9174 31.5Z"/>
</mask>
<path d="M54.9174 31.5C54.5249 32.0047 54.5389 32.6075 54.9735 33.0281C55.6885 33.757 56.866 33.2664 56.866 32.243C56.866 31.8785 56.7679 31.5982 56.5857 31.4159C56.1511 30.9814 55.2819 31.0374 54.9174 31.5Z" fill="#0B2D1F"/>
<path d="M54.9174 31.5C54.5249 32.0047 54.5389 32.6075 54.9735 33.0281C55.6885 33.757 56.866 33.2664 56.866 32.243C56.866 31.8785 56.7679 31.5982 56.5857 31.4159C56.1511 30.9814 55.2819 31.0374 54.9174 31.5Z" stroke="#0B2D1F" stroke-width="1.13778" mask="url(#path-6-outside-3_6487_46500)"/>
</g>
<g id="Vector_4">
<mask id="path-7-outside-4_6487_46500" maskUnits="userSpaceOnUse" x="15.2012" y="30.3662" width="4" height="4" fill="black">
<rect fill="white" x="15.2012" y="30.3662" width="4" height="4"/>
<path d="M16.5208 31.4574C16.0722 31.934 16.1003 32.705 16.5769 33.0835C17.0816 33.4761 17.6844 33.462 18.1049 33.0275C18.5395 32.6069 18.5535 32.0041 18.161 31.4994C17.7825 31.0088 16.9554 30.9948 16.5208 31.4574Z"/>
</mask>
<path d="M16.5208 31.4574C16.0722 31.934 16.1003 32.705 16.5769 33.0835C17.0816 33.4761 17.6844 33.462 18.1049 33.0275C18.5395 32.6069 18.5535 32.0041 18.161 31.4994C17.7825 31.0088 16.9554 30.9948 16.5208 31.4574Z" fill="#0B2D1F"/>
<path d="M16.5208 31.4574C16.0722 31.934 16.1003 32.705 16.5769 33.0835C17.0816 33.4761 17.6844 33.462 18.1049 33.0275C18.5395 32.6069 18.5535 32.0041 18.161 31.4994C17.7825 31.0088 16.9554 30.9948 16.5208 31.4574Z" stroke="#0B2D1F" stroke-width="1.13778" mask="url(#path-7-outside-4_6487_46500)"/>
</g>
</g>
</g>
</g>
</svg>
