<svg width="72" height="72" viewBox="0 0 72 72" fill="none" xmlns="http://www.w3.org/2000/svg">
<g id="vendor-progressive-claim">
<circle id="Ellipse 2607" cx="19" cy="40" r="3" fill="#22885E"/>
<circle id="Ellipse 2608" cx="19" cy="51" r="3" fill="#22885E"/>
<rect id="Rectangle 34624783" x="23" y="12" width="4" height="9" fill="#22885E"/>
<path id="Vector" d="M15.7333 4C14.3194 4.00169 12.9638 4.56414 11.964 5.56397C10.9641 6.5638 10.4017 7.91937 10.4 9.33333V59.4667H5.06667C4.78377 59.4667 4.51246 59.579 4.31242 59.7791C4.11238 59.9791 4 60.2504 4 60.5333C4.00226 62.5129 4.78965 64.4108 6.18943 65.8106C7.58921 67.2104 9.48708 67.9977 11.4667 68H59.4667C59.7496 68 60.0209 67.8876 60.2209 67.6876C60.421 67.4875 60.5333 67.2162 60.5333 66.9333V12.5333H66.9333C67.2162 12.5333 67.4875 12.421 67.6876 12.2209C67.8876 12.0209 68 11.7496 68 11.4667C67.9977 9.48708 67.2104 7.58921 65.8106 6.18943C64.4108 4.78965 62.5129 4.00226 60.5333 4H15.7333ZM15.7333 6.13333H58.4V65.8667C55.2085 65.8667 50.9333 63.2299 50.9333 60.5333C50.9333 60.2504 50.821 59.9791 50.6209 59.7791C50.4209 59.579 50.1496 59.4667 49.8667 59.4667H12.5333V9.33333C12.5333 8.48464 12.8705 7.67071 13.4706 7.07059C14.0707 6.47048 14.8846 6.13333 15.7333 6.13333ZM60.5333 6.13333C61.7625 6.13459 62.9536 6.55968 63.9058 7.33693C64.858 8.11417 65.513 9.19601 65.7604 10.4H60.5333V6.13333ZM49.8667 9.33333V11.5729C48.57 11.8357 47.4174 12.571 46.6325 13.636C45.8476 14.701 45.4866 16.0197 45.6196 17.336C45.7525 18.6523 46.37 19.8721 47.3519 20.7587C48.3339 21.6452 49.6104 22.1352 50.9333 22.1333C51.5662 22.1333 52.1849 22.321 52.7112 22.6726C53.2374 23.0243 53.6475 23.524 53.8897 24.1087C54.1319 24.6935 54.1953 25.3369 54.0718 25.9576C53.9484 26.5784 53.6436 27.1485 53.1961 27.5961C52.7485 28.0436 52.1784 28.3484 51.5576 28.4718C50.9369 28.5953 50.2935 28.5319 49.7088 28.2897C49.124 28.0475 48.6243 27.6374 48.2726 27.1112C47.921 26.5849 47.7333 25.9662 47.7333 25.3333H45.6C45.6015 26.5624 46.0266 27.7534 46.8038 28.7056C47.581 29.6577 48.6628 30.3128 49.8667 30.5604V32.8H52V30.5604C53.2966 30.2977 54.4493 29.5624 55.2342 28.4974C56.019 27.4323 56.38 26.1136 56.2471 24.7974C56.1141 23.4811 55.4967 22.2612 54.5147 21.3746C53.5327 20.4881 52.2563 19.9982 50.9333 20C50.0846 20 49.2707 19.6629 48.6706 19.0627C48.0705 18.4626 47.7333 17.6487 47.7333 16.8C47.7333 15.9513 48.0705 15.1374 48.6706 14.5373C49.2707 13.9371 50.0846 13.6 50.9333 13.6C51.782 13.6 52.596 13.9371 53.1961 14.5373C53.7962 15.1374 54.1333 15.9513 54.1333 16.8H56.2667C56.2652 15.5709 55.84 14.3799 55.0628 13.4277C54.2856 12.4756 53.2039 11.8205 52 11.5729V9.33333H49.8667ZM17.6542 10.4C17.2618 10.3999 16.8733 10.4771 16.5108 10.6272C16.1483 10.7773 15.8189 10.9973 15.5414 11.2748C15.264 11.5522 15.044 11.8816 14.8939 12.2441C14.7438 12.6066 14.6666 12.9951 14.6667 13.3875V28.7458C14.6666 29.1382 14.7438 29.5267 14.8939 29.8892C15.044 30.2517 15.264 30.5811 15.5414 30.8586C15.8189 31.136 16.1483 31.3561 16.5108 31.5061C16.8733 31.6562 17.2618 31.7334 17.6542 31.7333H33.0125C33.4049 31.7334 33.7934 31.6562 34.1559 31.5061C34.5184 31.3561 34.8478 31.136 35.1252 30.8586C35.4027 30.5811 35.6227 30.2517 35.7728 29.8892C35.9229 29.5267 36.0001 29.1382 36 28.7458V13.3875C36.0001 12.9951 35.9229 12.6066 35.7728 12.2441C35.6227 11.8816 35.4027 11.5522 35.1252 11.2748C34.8478 10.9973 34.5184 10.7773 34.1559 10.6272C33.7934 10.4771 33.4049 10.3999 33.0125 10.4H17.6542ZM41.1542 11.9458L39.3792 13.1313L40.4062 14.6667H38.1333V16.8H40.4083L39.3792 18.3417L41.1542 19.525L43.2875 16.325H43.2792C43.2984 16.2962 43.3246 16.2726 43.3417 16.2417C43.4327 16.0712 43.4758 15.8793 43.4663 15.6863C43.4567 15.4932 43.3949 15.3065 43.2875 15.1458L41.1542 11.9458ZM17.6542 12.5333H22.1333V22.1333C22.1334 22.3443 22.1959 22.5505 22.3132 22.7259C22.4304 22.9012 22.5969 23.0379 22.7918 23.1187C22.9867 23.1994 23.2012 23.2205 23.4081 23.1794C23.6149 23.1382 23.805 23.0366 23.9542 22.8875L25.3333 21.5083L26.7125 22.8875C26.9125 23.0875 27.1838 23.2 27.4667 23.2C27.6068 23.2004 27.7457 23.1727 27.875 23.1188C28.0699 23.038 28.2364 22.9013 28.3536 22.7259C28.4708 22.5505 28.5333 22.3443 28.5333 22.1333V12.5333H33.0125C33.1247 12.5332 33.2358 12.5552 33.3395 12.5981C33.4432 12.641 33.5374 12.7039 33.6167 12.7833C33.6961 12.8626 33.759 12.9568 33.8019 13.0605C33.8448 13.1642 33.8668 13.2753 33.8667 13.3875V28.7458C33.8668 28.858 33.8448 28.9692 33.8019 29.0728C33.759 29.1765 33.6961 29.2707 33.6167 29.3501C33.5374 29.4294 33.4432 29.4923 33.3395 29.5352C33.2358 29.5781 33.1247 29.6001 33.0125 29.6H17.6542C17.542 29.6001 17.4308 29.5781 17.3272 29.5352C17.2235 29.4923 17.1293 29.4294 17.0499 29.3501C16.9706 29.2707 16.9077 29.1765 16.8648 29.0728C16.8219 28.9692 16.7999 28.858 16.8 28.7458V13.3875C16.7999 13.2753 16.8219 13.1642 16.8648 13.0605C16.9077 12.9568 16.9706 12.8626 17.0499 12.7833C17.1293 12.7039 17.2235 12.641 17.3272 12.5981C17.4308 12.5552 17.542 12.5332 17.6542 12.5333ZM24.2667 12.5333H26.4V19.5583L26.0875 19.2458C25.8875 19.0458 25.6162 18.9335 25.3333 18.9335C25.0505 18.9335 24.7792 19.0458 24.5792 19.2458L24.2667 19.5583V12.5333ZM39.3792 22.6083L37.2458 25.8083C37.1384 25.969 37.0766 26.1557 37.0671 26.3488C37.0575 26.5418 37.1006 26.7337 37.1917 26.9042C37.2087 26.934 37.235 26.9587 37.2542 26.9875H37.2458L39.3792 30.1875L41.1542 29.0021L40.125 27.4667H42.4V25.3333H40.1271L41.1542 23.7917L39.3792 22.6083ZM18.9333 36C18.0895 36 17.2646 36.2502 16.5629 36.7191C15.8613 37.1879 15.3144 37.8543 14.9914 38.6339C14.6685 39.4135 14.584 40.2714 14.7486 41.0991C14.9133 41.9267 15.3196 42.687 15.9163 43.2837C16.513 43.8804 17.2733 44.2867 18.1009 44.4514C18.9286 44.616 19.7865 44.5315 20.5661 44.2086C21.3457 43.8856 22.0121 43.3388 22.4809 42.6371C22.9498 41.9355 23.2 41.1105 23.2 40.2667C23.2 39.1351 22.7505 38.0498 21.9503 37.2497C21.1502 36.4495 20.0649 36 18.9333 36ZM18.8438 38.1354C19.1312 38.1233 19.4181 38.1695 19.6872 38.2712C19.9563 38.3728 20.2021 38.5279 20.4097 38.727C20.6174 38.9261 20.7826 39.1651 20.8955 39.4297C21.0084 39.6943 21.0666 39.979 21.0667 40.2667C21.0667 40.8325 20.8419 41.3751 20.4418 41.7752C20.0418 42.1752 19.4991 42.4 18.9333 42.4C18.3761 42.3988 17.8414 42.1796 17.4437 41.7893C17.046 41.399 16.8167 40.8686 16.805 40.3115C16.7933 39.7544 17.0001 39.2148 17.3811 38.8081C17.7621 38.4014 18.287 38.16 18.8438 38.1354ZM25.3333 39.2V41.3333H27.4667V39.2H25.3333ZM29.6 39.2V41.3333H56.2667V39.2H29.6ZM18.9333 46.6667C18.0895 46.6667 17.2646 46.9169 16.5629 47.3857C15.8613 47.8546 15.3144 48.5209 14.9914 49.3006C14.6685 50.0802 14.584 50.9381 14.7486 51.7657C14.9133 52.5934 15.3196 53.3536 15.9163 53.9503C16.513 54.547 17.2733 54.9534 18.1009 55.118C18.9286 55.2826 19.7865 55.1982 20.5661 54.8752C21.3457 54.5523 22.0121 54.0054 22.4809 53.3038C22.9498 52.6021 23.2 51.7772 23.2 50.9333C23.2 49.8017 22.7505 48.7165 21.9503 47.9163C21.1502 47.1162 20.0649 46.6667 18.9333 46.6667ZM18.8438 48.8021C19.1312 48.79 19.4181 48.8362 19.6872 48.9378C19.9563 49.0395 20.2021 49.1945 20.4097 49.3936C20.6174 49.5927 20.7826 49.8318 20.8955 50.0964C21.0084 50.361 21.0666 50.6457 21.0667 50.9333C21.0667 51.4991 20.8419 52.0418 20.4418 52.4418C20.0418 52.8419 19.4991 53.0667 18.9333 53.0667C18.3761 53.0655 17.8414 52.8463 17.4437 52.456C17.046 52.0657 16.8167 51.5353 16.805 50.9781C16.7933 50.421 17.0001 49.8814 17.3811 49.4748C17.7621 49.0681 18.287 48.8267 18.8438 48.8021ZM25.3333 49.8667V52H27.4667V49.8667H25.3333ZM29.6 49.8667V52H56.2667V49.8667H29.6ZM6.23958 61.6H48.9167C49.4169 63.37 50.5575 64.8908 52.1167 65.8667H11.4667C10.2375 65.8654 9.04642 65.4403 8.09422 64.6631C7.14201 63.8858 6.48698 62.804 6.23958 61.6Z" fill="#0B2D1F"/>
</g>
</svg>
