<svg width="72" height="72" viewBox="0 0 72 72" fill="none" xmlns="http://www.w3.org/2000/svg">
<rect x="29.415" y="11.9678" width="23.7449" height="4.45213" rx="1.42221" fill="#22885E"/>
<path d="M66.4074 12.1793H55.7566V10.5928C55.7566 10.3826 55.7162 10.1808 55.6376 9.98755C55.5591 9.79429 55.4465 9.62227 55.2978 9.4736C55.1513 9.32281 54.9814 9.20813 54.7881 9.1253C54.597 9.0446 54.3952 9.00212 54.185 9H28.3895C28.1771 9 27.9753 9.04035 27.7799 9.12105C27.5845 9.20176 27.4125 9.31644 27.2638 9.46723C27.1152 9.61589 27.0005 9.78792 26.9198 9.98331C26.8412 10.1787 26.8009 10.3805 26.8009 10.5928V12.1793H16.1671C15.9547 12.1793 15.7529 12.2196 15.5575 12.3003C15.3621 12.381 15.1901 12.4979 15.0415 12.6465C14.8907 12.7952 14.776 12.9672 14.6953 13.1626C14.6146 13.358 14.5742 13.5619 14.5742 13.7721V46.2042C14.5742 46.4166 14.6146 46.6184 14.6953 46.8137C14.776 47.0091 14.8907 47.1812 15.0415 47.3298C15.1901 47.4806 15.3621 47.5953 15.5575 47.676C15.7529 47.7567 15.9547 47.797 16.1671 47.797H31.0888L23.7851 60.0194C23.6768 60.1999 23.6088 60.3953 23.577 60.6034C23.5472 60.8136 23.5578 61.0196 23.6109 61.2235C23.6619 61.4274 23.7511 61.6143 23.8764 61.7842C24.0017 61.952 24.1567 62.09 24.3373 62.1983C24.5178 62.3067 24.7132 62.3767 24.9213 62.4065C25.1294 62.4362 25.3376 62.4256 25.5415 62.3746C25.7453 62.3236 25.9322 62.2344 26.1 62.107C26.2699 61.9817 26.408 61.8288 26.5163 61.6483L34.7927 47.797H47.7818L56.0582 61.6483C56.1665 61.8288 56.3045 61.9817 56.4744 62.1091C56.6422 62.2344 56.8291 62.3236 57.033 62.3746C57.239 62.4277 57.445 62.4383 57.6531 62.4065C57.8613 62.3767 58.0566 62.3088 58.2393 62.2005C58.4198 62.0922 58.5727 61.9541 58.7001 61.7842C58.8255 61.6143 58.9147 61.4274 58.9656 61.2235C59.0166 61.0196 59.0272 60.8136 58.9975 60.6034C58.9677 60.3953 58.8977 60.1999 58.7893 60.0194L51.4856 47.797H66.4074C66.6198 47.797 66.8215 47.7567 67.0169 47.676C67.2123 47.5953 67.3843 47.4806 67.5351 47.3298C67.6838 47.1812 67.7985 47.0091 67.8792 46.8137C67.9599 46.6184 68.0002 46.4166 68.0002 46.2042V13.7721C68.0002 13.5619 67.9599 13.358 67.8792 13.1626C67.7985 12.9672 67.6838 12.7952 67.5351 12.6465C67.3843 12.4979 67.2123 12.381 67.0169 12.3003C66.8215 12.2196 66.6198 12.1793 66.4074 12.1793ZM29.9993 13.7721V12.1793H52.5751V15.9957H29.9993V13.7721ZM64.8209 44.6071H17.7535V15.3607H26.8179V17.5843C26.8179 17.7924 26.8582 17.9942 26.9368 18.1896C27.0154 18.3828 27.13 18.5548 27.2766 18.7035C27.4231 18.8522 27.593 18.9669 27.7863 19.0497C27.9774 19.1325 28.1792 19.1729 28.3895 19.1771H54.185C54.3974 19.1771 54.5991 19.1368 54.7945 19.0561C54.9878 18.9754 55.1598 18.8607 55.3085 18.712C55.4571 18.5612 55.5718 18.3913 55.6525 18.1959C55.7332 18.0005 55.7736 17.7988 55.7736 17.5885V15.3649H64.8379L64.8209 44.6071Z" fill="#0B2D1F"/>
<path d="M32.6958 26.8079H52.3811C53.6015 26.8079 54.4109 26.2125 54.4109 25.3239C54.4109 24.4353 53.6015 23.8398 52.3811 23.8398H32.6958C31.4754 23.8398 30.666 24.4353 30.666 25.3239C30.666 26.0644 31.4754 26.8079 32.6958 26.8079Z" fill="#0B2D1F"/>
<path d="M32.6958 32.7449H52.3811C53.6015 32.7449 54.4109 32.1519 54.4109 31.2594C54.4109 30.3699 53.6015 29.7769 52.3811 29.7769H32.6958C31.4754 29.7769 30.666 30.3699 30.666 31.2594C30.666 32.0037 31.4754 32.7449 32.6958 32.7449Z" fill="#0B2D1F"/>
<path d="M32.6958 38.68H52.3811C53.6015 38.68 54.4109 38.087 54.4109 37.1975C54.4109 36.308 53.6015 35.7119 52.3811 35.7119H32.6958C31.4754 35.7119 30.666 36.308 30.666 37.1975C30.666 37.9388 31.4754 38.68 32.6958 38.68Z" fill="#0B2D1F"/>
<path fill-rule="evenodd" clip-rule="evenodd" d="M15.273 32.6427C15.5351 32.4082 15.9316 32.4082 16.1936 32.6427C18.677 34.8654 21.9547 36.2161 25.5496 36.2161C25.7922 36.2161 26.0333 36.21 26.2728 36.1978C26.6 36.1812 26.8938 36.397 26.9759 36.7142C27.2964 37.9525 27.4668 39.2506 27.4668 40.5875C27.4668 47.7709 22.5536 53.8052 15.9054 55.5163C15.7926 55.5453 15.6742 55.5453 15.5613 55.5163C8.91314 53.8052 4 47.7709 4 40.5875C4 39.2506 4.17035 37.9524 4.4909 36.7141C4.57301 36.3969 4.86681 36.1811 5.19404 36.1977C5.43351 36.2098 5.67461 36.216 5.91722 36.216C9.512 36.216 12.7897 34.8653 15.273 32.6427ZM15.7333 34.0673C13.0675 36.2713 9.64636 37.5964 5.91722 37.5964C5.8447 37.5964 5.7723 37.5959 5.70001 37.5949C5.49074 38.5586 5.3804 39.5598 5.3804 40.5875C5.3804 47.0637 9.76776 52.517 15.7334 54.134C21.699 52.517 26.0864 47.0637 26.0864 40.5875C26.0864 39.5599 25.976 38.5587 25.7668 37.595C25.6945 37.596 25.6221 37.5965 25.5496 37.5965C21.8203 37.5965 18.3991 36.2714 15.7333 34.0673ZM19.9025 41.3264C20.172 41.596 20.172 42.033 19.9025 42.3025L14.9944 47.2106C14.865 47.3401 14.6894 47.4128 14.5064 47.4128C14.3233 47.4128 14.1478 47.3401 14.0183 47.2106L11.5643 44.7566C11.2947 44.487 11.2947 44.05 11.5643 43.7805C11.8338 43.511 12.2708 43.511 12.5404 43.7805L14.5064 45.7465L18.9264 41.3264C19.1959 41.0569 19.6329 41.0569 19.9025 41.3264Z" fill="#0B2D1F"/>
<path fill-rule="evenodd" clip-rule="evenodd" d="M5.91722 37.5964C9.64636 37.5964 13.0675 36.2713 15.7333 34.0673C18.3991 36.2714 21.8203 37.5965 25.5496 37.5965C25.6221 37.5965 25.6945 37.596 25.7668 37.595C25.976 38.5587 26.0864 39.5599 26.0864 40.5875C26.0864 47.0637 21.699 52.517 15.7334 54.134C9.76776 52.517 5.3804 47.0637 5.3804 40.5875C5.3804 39.5598 5.49074 38.5586 5.70001 37.5949C5.7723 37.5959 5.8447 37.5964 5.91722 37.5964ZM19.9025 41.3264C20.172 41.596 20.172 42.033 19.9025 42.3025L14.9944 47.2106C14.865 47.3401 14.6894 47.4128 14.5064 47.4128C14.3233 47.4128 14.1478 47.3401 14.0183 47.2106L11.5643 44.7566C11.2947 44.487 11.2947 44.05 11.5643 43.7805C11.8338 43.511 12.2708 43.511 12.5404 43.7805L14.5064 45.7465L18.9264 41.3264C19.1959 41.0569 19.6329 41.0569 19.9025 41.3264Z" fill="#22885E"/>
<path d="M16.1936 32.6427L15.7152 33.1773L15.7152 33.1773L16.1936 32.6427ZM15.273 32.6427L15.7514 33.1773L15.7514 33.1773L15.273 32.6427ZM26.2728 36.1978L26.3091 36.9143L26.3091 36.9143L26.2728 36.1978ZM26.9759 36.7142L26.2814 36.894L26.2814 36.894L26.9759 36.7142ZM15.9054 55.5163L16.0842 56.211L16.0842 56.211L15.9054 55.5163ZM15.5613 55.5163L15.3825 56.211L15.3825 56.211L15.5613 55.5163ZM4.4909 36.7141L3.7964 36.5343L4.4909 36.7141ZM5.19404 36.1977L5.1577 36.9142L5.1577 36.9142L5.19404 36.1977ZM15.7333 34.0673L16.1904 33.5144C15.9251 33.2951 15.5415 33.2951 15.2762 33.5144L15.7333 34.0673ZM5.70001 37.5949L5.70992 36.8776C5.36869 36.8728 5.07137 37.1092 4.99895 37.4427L5.70001 37.5949ZM15.7334 54.134L15.5457 54.8264C15.6686 54.8597 15.7982 54.8597 15.9211 54.8264L15.7334 54.134ZM25.7668 37.595L26.4679 37.4428C26.3954 37.1093 26.0981 36.873 25.7569 36.8777L25.7668 37.595ZM19.9025 42.3025L20.4098 42.8098L20.4098 42.8098L19.9025 42.3025ZM19.9025 41.3264L20.4098 40.8192L20.4098 40.8192L19.9025 41.3264ZM14.9944 47.2106L15.5017 47.7179L15.5017 47.7179L14.9944 47.2106ZM14.0183 47.2106L13.511 47.7179L13.511 47.7179L14.0183 47.2106ZM11.5643 44.7566L11.057 45.2639L11.057 45.2639L11.5643 44.7566ZM12.5404 43.7805L12.0331 44.2878L12.0331 44.2878L12.5404 43.7805ZM14.5064 45.7465L13.9991 46.2538C14.1336 46.3883 14.3161 46.4639 14.5064 46.4639C14.6966 46.4639 14.8791 46.3883 15.0136 46.2538L14.5064 45.7465ZM18.9264 41.3264L19.4337 41.8337L19.4337 41.8337L18.9264 41.3264ZM16.6721 32.1082C16.1376 31.6298 15.329 31.6298 14.7946 32.1081L15.7514 33.1773C15.7411 33.1865 15.7255 33.1865 15.7152 33.1773L16.6721 32.1082ZM25.5496 35.4987C22.138 35.4987 19.029 34.2177 16.6721 32.1082L15.7152 33.1773C18.325 35.5131 21.7714 36.9335 25.5496 36.9335V35.4987ZM26.2364 35.4814C26.009 35.4929 25.78 35.4987 25.5496 35.4987V36.9335C25.8043 36.9335 26.0575 36.9271 26.3091 36.9143L26.2364 35.4814ZM27.6704 36.5345C27.503 35.8875 26.9038 35.4475 26.2364 35.4814L26.3091 36.9143C26.2962 36.915 26.2846 36.9065 26.2814 36.894L27.6704 36.5345ZM28.1842 40.5875C28.1842 39.1895 28.006 37.831 27.6704 36.5344L26.2814 36.894C26.5869 38.0741 26.7494 39.3118 26.7494 40.5875H28.1842ZM16.0842 56.211C23.0416 54.4203 28.1842 48.1063 28.1842 40.5875H26.7494C26.7494 47.4356 22.0656 53.19 15.7266 54.8216L16.0842 56.211ZM15.3825 56.211C15.6127 56.2703 15.8541 56.2703 16.0842 56.211L15.7266 54.8215C15.7311 54.8204 15.7357 54.8204 15.7402 54.8216L15.3825 56.211ZM3.28261 40.5875C3.28261 48.1063 8.42513 54.4203 15.3825 56.211L15.7402 54.8216C9.40115 53.19 4.71739 47.4356 4.71739 40.5875H3.28261ZM3.7964 36.5343C3.46078 37.8309 3.28261 39.1894 3.28261 40.5875H4.71739C4.71739 39.3117 4.87993 38.074 5.1854 36.8938L3.7964 36.5343ZM5.23038 35.4812C4.56302 35.4474 3.96384 35.8874 3.7964 36.5343L5.1854 36.8938C5.18217 36.9063 5.17059 36.9148 5.1577 36.9142L5.23038 35.4812ZM5.91722 35.4986C5.68674 35.4986 5.45775 35.4928 5.23038 35.4812L5.1577 36.9142C5.40927 36.9269 5.66249 36.9334 5.91722 36.9334V35.4986ZM14.7946 32.1081C12.4377 34.2176 9.32874 35.4986 5.91722 35.4986V36.9334C9.69526 36.9334 13.1416 35.5131 15.7514 33.1773L14.7946 32.1081ZM5.91722 38.3138C9.81932 38.3138 13.4008 36.9266 16.1904 34.6202L15.2762 33.5144C12.7342 35.6161 9.47339 36.879 5.91722 36.879V38.3138ZM5.69009 38.3122C5.76568 38.3133 5.84139 38.3138 5.91722 38.3138V36.879C5.84801 36.879 5.77891 36.8785 5.70992 36.8776L5.69009 38.3122ZM6.09779 40.5875C6.09779 39.6113 6.20259 38.6612 6.40106 37.7471L4.99895 37.4427C4.77889 38.4561 4.66301 39.5083 4.66301 40.5875H6.09779ZM15.9211 53.4416C10.2602 51.9072 6.09779 46.7317 6.09779 40.5875H4.66301C4.66301 47.3958 9.27534 53.1268 15.5457 54.8264L15.9211 53.4416ZM25.369 40.5875C25.369 46.7317 21.2066 51.9072 15.5457 53.4416L15.9211 54.8264C22.1914 53.1268 26.8038 47.3958 26.8038 40.5875H25.369ZM25.0657 37.7473C25.2642 38.6612 25.369 39.6113 25.369 40.5875H26.8038C26.8038 39.5084 26.6879 38.4562 26.4679 37.4428L25.0657 37.7473ZM25.5496 38.3139C25.6254 38.3139 25.7011 38.3134 25.7767 38.3124L25.7569 36.8777C25.6879 36.8787 25.6188 36.8791 25.5496 36.8791V38.3139ZM15.2762 34.6202C18.0658 36.9267 21.6474 38.3139 25.5496 38.3139V36.8791C21.9933 36.8791 18.7324 35.6162 16.1904 33.5144L15.2762 34.6202ZM20.4098 42.8098C20.9595 42.2601 20.9595 41.3689 20.4098 40.8192L19.3952 41.8337C19.3846 41.8231 19.3846 41.8059 19.3952 41.7953L20.4098 42.8098ZM15.5017 47.7179L20.4098 42.8098L19.3952 41.7953L14.4871 46.7034L15.5017 47.7179ZM14.5064 48.1302C14.8797 48.1302 15.2377 47.9819 15.5017 47.7179L14.4871 46.7034C14.4922 46.6983 14.4992 46.6954 14.5064 46.6954V48.1302ZM13.511 47.7179C13.775 47.9819 14.133 48.1302 14.5064 48.1302V46.6954C14.5136 46.6954 14.5205 46.6983 14.5256 46.7034L13.511 47.7179ZM11.057 45.2639L13.511 47.7179L14.5256 46.7034L12.0716 44.2493L11.057 45.2639ZM11.057 43.2732C10.5073 43.8229 10.5073 44.7142 11.057 45.2639L12.0716 44.2493C12.0822 44.2599 12.0822 44.2772 12.0716 44.2878L11.057 43.2732ZM13.0476 43.2732C12.4979 42.7235 11.6067 42.7235 11.057 43.2732L12.0716 44.2878C12.0609 44.2984 12.0437 44.2984 12.0331 44.2878L13.0476 43.2732ZM15.0136 45.2392L13.0476 43.2732L12.0331 44.2878L13.9991 46.2538L15.0136 45.2392ZM18.4191 40.8192L13.9991 45.2392L15.0136 46.2538L19.4337 41.8337L18.4191 40.8192ZM20.4098 40.8192C19.8601 40.2695 18.9688 40.2695 18.4191 40.8192L19.4337 41.8337C19.4231 41.8443 19.4058 41.8443 19.3952 41.8337L20.4098 40.8192Z" fill="#0B2D1F"/>
</svg>
