<svg width="72" height="72" viewBox="0 0 72 72" fill="none" xmlns="http://www.w3.org/2000/svg">
<path d="M40 46C40 44.3431 41.3431 43 43 43H50C51.1046 43 52 43.8954 52 45V64H40V46Z" fill="#22885E"/>
<path d="M12 6H49.5L45 18H9.5L12 6Z" fill="#22885E"/>
<path d="M17.9537 4C12.4881 4 8 8.48808 8 13.9538V18.2197C8 19.0029 8.63877 19.6416 9.42196 19.6416H16.5318V62.3006C16.5318 63.0838 17.1705 63.7226 17.9537 63.7226H37.8612V60.8786H19.3757V19.6416H46.3929C47.1761 19.6416 47.8149 19.0029 47.8149 18.2197V13.9538C47.8149 10.0378 51.0087 6.84393 54.9247 6.84393C54.9691 6.84393 55.0135 6.84393 55.058 6.84393C58.9128 6.91614 62.0345 10.0822 62.0345 13.9538V60.8786H54.9247V63.7226H63.4564C64.2396 63.7226 64.8784 63.0838 64.8784 62.3006V13.9538C64.8784 8.56029 60.5125 4.11665 55.1468 4C55.0746 4 54.9969 4 54.9247 4H17.9537ZM17.9537 6.84393H48.0371C46.1652 8.65472 44.971 11.1598 44.971 13.9538V16.7977H10.8439V13.9538C10.8439 10.0378 14.0378 6.84393 17.9537 6.84393ZM26.4855 23.9075V26.7515H54.9247V23.9075H26.4855ZM26.4855 32.4393V35.2833H54.9247V32.4393H26.4855ZM46.3929 40.9711C45.2931 40.9711 44.3877 41.5821 43.7267 42.4375C42.738 42.2209 41.6716 42.2709 40.7939 42.9708C39.9219 43.6706 39.6941 44.7482 39.7275 45.7702C38.8054 46.2757 38.0445 47.0367 37.8612 48.1254C37.6834 49.203 38.1667 50.1583 38.8387 50.9249C38.4388 51.9358 38.3999 53.0634 38.9276 53.9466C39.022 54.1076 39.1609 54.2132 39.2831 54.3465V66.5665C39.2776 67.1053 39.5775 67.5996 40.0607 67.844C40.5384 68.0885 41.1161 68.044 41.5494 67.7218L46.3929 64.0781L51.2365 67.7218C51.6697 68.044 52.2474 68.0885 52.7251 67.844C53.2083 67.5996 53.5083 67.1053 53.5027 66.5665V54.3465C53.6249 54.2132 53.7638 54.1076 53.8582 53.9466C54.4748 52.919 54.3414 51.8692 53.9471 50.9249C54.6192 50.1583 55.1024 49.203 54.9247 48.1254C54.7414 47.0367 53.9804 46.2757 53.0583 45.7702C53.0917 44.7482 52.8639 43.6706 51.9919 42.9708C51.1143 42.2709 50.0478 42.2209 49.0591 42.4375C48.4148 41.621 47.5094 40.9711 46.3929 40.9711ZM49.2368 42.7041C49.2979 42.7486 49.4146 42.8374 49.3701 42.793L49.3257 42.8374C49.2979 42.793 49.2646 42.7486 49.2368 42.7041ZM46.3929 43.815C46.8484 43.815 46.8928 43.8984 47.015 44.2594C47.0872 44.476 47.2094 44.676 47.3705 44.8371C47.4427 44.9093 47.5316 45.0037 47.9037 45.1926C48.2759 45.3814 48.5869 45.3703 48.6592 45.3703C48.9202 45.3814 49.1868 45.3203 49.4146 45.1926C49.6256 45.0648 50.0089 45.0259 50.2144 45.1926C50.4533 45.387 50.4533 45.4536 50.3033 45.9036C50.2478 46.0591 50.2144 46.2257 50.2144 46.3924C50.2144 46.5868 50.3144 46.6145 50.3922 46.7923C50.4422 47.4311 50.9143 47.9643 51.5475 48.0809C51.7697 48.1198 52.0419 48.392 52.0807 48.6142C52.1196 48.8586 51.9808 49.153 51.7697 49.2807C51.3587 49.5418 51.1032 49.9917 51.1032 50.4805V50.9249C51.0976 51.2248 51.192 51.5248 51.3698 51.7692C51.4087 51.8247 51.4698 52.3913 51.4142 52.4802C51.2865 52.6912 50.9921 52.8301 50.7477 52.7912C50.2255 52.6968 49.6923 52.9023 49.3701 53.3244C49.3701 53.3411 49.3701 53.3522 49.3701 53.3689C49.3201 53.4078 49.3424 53.4022 49.2813 53.4578C49.2646 53.4744 49.2535 53.4411 49.2368 53.4578C48.9535 53.7244 48.798 54.091 48.7925 54.4798C48.7925 54.8575 48.7925 54.8631 48.4814 54.9686C48.4203 54.9964 48.3592 55.0241 48.3037 55.0575C48.2926 55.0519 48.3314 55.0575 48.2592 55.0575C48.1648 55.0575 47.8871 54.9519 47.6816 54.7464C47.4094 54.4798 47.0372 54.3354 46.6595 54.3465H46.1263C45.7486 54.3354 45.3764 54.4798 45.1043 54.7464C44.871 54.9797 44.6155 55.0741 44.3044 54.9686C44.1322 54.8742 43.9934 54.6798 43.9934 54.4798C43.9934 54.2076 43.86 53.841 43.6823 53.5911C43.5212 53.3633 43.3768 53.2522 43.2824 53.1911C42.9547 52.8634 42.4936 52.7134 42.0382 52.7912C41.7938 52.8301 41.4994 52.6912 41.3716 52.4802C41.205 52.1969 41.1494 52.0913 41.3716 51.8136C41.5716 51.5637 41.6827 51.247 41.6827 50.9249V50.4805C41.6827 49.9917 41.4272 49.5418 41.0161 49.2807C40.8051 49.153 40.6662 48.8586 40.7051 48.6142C40.744 48.392 41.0161 48.1198 41.2383 48.0809C41.8715 47.9643 42.3437 47.4311 42.3936 46.7923C42.4714 46.6145 42.5714 46.5868 42.5714 46.3924C42.5714 46.2257 42.5381 46.0591 42.4825 45.9036C42.3325 45.4536 42.3325 45.387 42.5714 45.1926C42.7769 45.0259 43.1602 45.0648 43.3712 45.1926C43.8101 45.4481 44.3544 45.4481 44.7932 45.1926C44.8099 45.1926 44.821 45.1926 44.8376 45.1926C44.8543 45.1759 44.8654 45.1648 44.8821 45.1481C44.9099 45.137 44.9432 45.1204 44.971 45.1037C45.3431 44.9482 45.6375 44.6427 45.7708 44.2594C45.843 44.0372 46.1707 43.815 46.3929 43.815ZM42.127 56.7016C42.4492 57.1127 42.838 57.4404 43.3268 57.6348C43.3435 57.6514 43.3546 57.6626 43.3712 57.6792C44.4488 58.0403 45.4875 57.7237 46.3485 57.1904C46.3596 57.1849 46.3818 57.196 46.3929 57.1904H46.6595C47.165 57.4848 47.6149 57.9014 48.2592 57.9014C48.5036 57.9014 48.9924 57.7959 49.4146 57.6348C49.4368 57.6126 49.4757 57.6015 49.5034 57.5903C49.5312 57.5792 49.5645 57.607 49.5923 57.5903V57.5459C50.0311 57.3626 50.3811 57.0849 50.6588 56.746V63.7226L47.2372 61.1453C46.7373 60.7731 46.0485 60.7731 45.5486 61.1453L42.127 63.7226V56.7016Z" fill="#0B2D1F"/>
</svg>
