<svg width="72" height="72" viewBox="0 0 72 72" fill="none" xmlns="http://www.w3.org/2000/svg">
<path d="M49.44 45.04C52.9717 45.04 55.84 42.1733 55.84 38.64C55.84 35.1083 52.9717 32.24 49.44 32.24C45.9067 32.24 43.04 35.1083 43.04 38.64C43.04 42.1733 45.9067 45.04 49.44 45.04ZM49.44 34.8C51.5517 34.8 53.28 36.5283 53.28 38.64C53.28 40.7517 51.5517 42.48 49.44 42.48C47.3283 42.48 45.6 40.7517 45.6 38.64C45.6 36.5283 47.3283 34.8 49.44 34.8ZM61.485 6H10.515C6.91833 6 4 8.91833 4 12.515V48.125C4 51.7217 6.91833 54.64 10.515 54.64H42.9367L41.7467 64.2667C41.6833 64.7517 41.9133 65.2383 42.3233 65.5083C42.5283 65.635 42.77 65.7117 43.0133 65.7117C43.245 65.7117 43.4883 65.6483 43.6917 65.52L49.4517 61.9233L55.1733 65.3533C55.5967 65.61 56.1217 65.5967 56.53 65.3283C56.94 65.06 57.1583 64.5867 57.1067 64.1L55.9417 54.64H61.485C65.0817 54.64 68 51.7217 68 48.125V12.515C68 8.91833 65.0817 6 61.485 6ZM38.97 39.5483L38.0483 38.5383C37.8683 38.3467 37.8683 38.065 38.0483 37.8717L38.97 36.8617C39.6483 36.1183 39.9167 35.1083 39.6983 34.135L39.405 32.8033C39.3533 32.56 39.4933 32.305 39.7367 32.2283L41.0433 31.8183C41.99 31.5233 42.745 30.7683 43.04 29.8217L43.45 28.515C43.5267 28.2717 43.77 28.1183 44.025 28.1833L45.3567 28.4767C46.33 28.695 47.3533 28.4267 48.0833 27.7483L49.0933 26.8267C49.2867 26.6467 49.58 26.6467 49.7717 26.8267L50.7833 27.7483C51.5267 28.4267 52.5367 28.695 53.51 28.4767L54.8417 28.1833C55.0967 28.1183 55.34 28.2717 55.43 28.515L55.84 29.8217C56.1467 30.7683 56.89 31.5233 57.8367 31.8183L59.1417 32.2283C59.385 32.305 59.5383 32.56 59.475 32.8033L59.18 34.135C58.9633 35.1083 59.2317 36.1317 59.91 36.8617L60.8317 37.8717C61.0117 38.065 61.0117 38.3583 60.8317 38.5383L59.91 39.5483C59.2317 40.2917 58.9633 41.3033 59.18 42.275L59.475 43.6067C59.5267 43.8633 59.385 44.1067 59.1417 44.1833L57.8367 44.5917C56.89 44.8867 56.1333 45.6417 55.84 46.5883L55.43 47.895C55.3533 48.1383 55.0967 48.2917 54.8533 48.2283L54.3933 48.125C54.355 48.1117 54.3167 48.1117 54.2783 48.1L53.5233 47.9333C52.55 47.715 51.5267 47.985 50.7967 48.6633L49.785 49.585C49.5933 49.7633 49.2983 49.7633 49.1067 49.585L48.095 48.6633C47.52 48.1383 46.79 47.8567 46.0217 47.8567C45.805 47.8567 45.5733 47.8817 45.3567 47.9333L44.64 48.0867C44.575 48.1 44.525 48.1117 44.4733 48.125L44.025 48.2283C43.7817 48.2783 43.5133 48.1383 43.4367 47.895L43.0267 46.5883C42.7317 45.6417 41.9767 44.8867 41.03 44.5917L39.725 44.1833C39.4817 44.1067 39.3283 43.85 39.3917 43.5933L39.6867 42.2633C39.9167 41.3033 39.6483 40.2783 38.97 39.5483ZM50.0917 59.3C49.6833 59.0567 49.1583 59.0567 48.7617 59.3117L44.6133 61.8983L46.035 50.4283C46.15 50.4283 46.265 50.4683 46.355 50.545L47.3667 51.4667C47.955 52.0033 48.6967 52.2717 49.4267 52.2717C50.1567 52.2717 50.8983 52.0033 51.4883 51.4667L52.4983 50.545C52.5883 50.4683 52.7033 50.4283 52.8183 50.4283L54.2267 61.7833L50.0917 59.3ZM65.44 48.125C65.44 50.3017 63.66 52.08 61.485 52.08H55.6217L55.455 50.7617C56.5567 50.5833 57.5167 49.8017 57.8617 48.6633L58.2717 47.3567C58.3233 47.2033 58.4383 47.075 58.5917 47.0367L59.8967 46.6283C61.42 46.1417 62.3033 44.605 61.9583 43.0567L61.6633 41.725C61.625 41.5717 61.6767 41.405 61.7783 41.29L62.7 40.2783C63.775 39.1017 63.7883 37.3217 62.7 36.145L61.7783 35.1333C61.6767 35.0183 61.625 34.8517 61.6633 34.685L61.9583 33.3533C62.3033 31.7917 61.42 30.2567 59.8967 29.77L58.5917 29.36C58.4383 29.3083 58.3233 29.1933 58.2717 29.04L57.8617 27.735C57.3883 26.2117 55.84 25.315 54.2783 25.6733L52.9467 25.9683C52.7933 26.0067 52.6267 25.955 52.4983 25.8533L51.4883 24.9317C50.31 23.8567 48.53 23.8567 47.3533 24.9317L46.3683 25.84C46.2517 25.955 46.0867 25.9933 45.92 25.955L44.5883 25.6617C43.0267 25.315 41.49 26.1983 41.0167 27.7217L40.6083 29.04C40.5567 29.1933 40.4417 29.3217 40.2883 29.36L38.9817 29.77C37.4583 30.2567 36.575 31.7917 36.9217 33.3417L37.215 34.6717C37.2533 34.8267 37.2033 34.9917 37.1 35.12L36.1783 36.1317C35.1033 37.3083 35.1033 39.0883 36.1783 40.2667L37.1 41.2767C37.215 41.3917 37.2533 41.5583 37.215 41.7117L36.9217 43.0433C36.575 44.605 37.4583 46.1417 38.9817 46.6283L40.2883 47.0367C40.4417 47.0883 40.5567 47.2033 40.6083 47.3567L41.0167 48.6633C41.375 49.8017 42.3233 50.5833 43.4233 50.7617L43.2567 52.08H10.515C8.33833 52.08 6.56 50.3017 6.56 48.125V12.515C6.56 10.34 8.33833 8.56 10.515 8.56H61.485C63.66 8.56 65.44 10.34 65.44 12.515V48.125ZM59.04 13.68C59.04 14.385 58.4633 14.96 57.76 14.96H14.24C13.535 14.96 12.96 14.385 12.96 13.68C12.96 12.9767 13.535 12.4 14.24 12.4H57.76C58.4633 12.4 59.04 12.9767 59.04 13.68ZM59.04 20.08C59.04 20.785 58.4633 21.36 57.76 21.36H14.24C13.535 21.36 12.96 20.785 12.96 20.08C12.96 19.3767 13.535 18.8 14.24 18.8H57.76C58.4633 18.8 59.04 19.3767 59.04 20.08ZM34.72 26.48C34.72 27.185 34.1433 27.76 33.44 27.76H14.24C13.535 27.76 12.96 27.185 12.96 26.48C12.96 25.7767 13.535 25.2 14.24 25.2H33.44C34.1433 25.2 34.72 25.7767 34.72 26.48ZM30.88 32.88C30.88 33.585 30.3033 34.16 29.6 34.16H14.24C13.535 34.16 12.96 33.585 12.96 32.88C12.96 32.1767 13.535 31.6 14.24 31.6H29.6C30.3033 31.6 30.88 32.1767 30.88 32.88ZM30.88 39.28C30.88 39.985 30.3033 40.56 29.6 40.56H14.24C13.535 40.56 12.96 39.985 12.96 39.28C12.96 38.5767 13.535 38 14.24 38H29.6C30.3033 38 30.88 38.5767 30.88 39.28Z" fill="#0D313B"/>
<path fill-rule="evenodd" clip-rule="evenodd" d="M38.97 39.5483L38.0483 38.5383C37.8683 38.3467 37.8683 38.065 38.0483 37.8717L38.97 36.8617C39.6483 36.1183 39.9167 35.1083 39.6983 34.135L39.405 32.8033C39.3533 32.56 39.4933 32.305 39.7367 32.2283L41.0433 31.8183C41.99 31.5233 42.745 30.7683 43.04 29.8217L43.45 28.515C43.5267 28.2717 43.77 28.1183 44.025 28.1833L45.3567 28.4767C46.33 28.695 47.3533 28.4267 48.0833 27.7483L49.0933 26.8267C49.2867 26.6467 49.58 26.6467 49.7717 26.8267L50.7833 27.7483C51.5267 28.4267 52.5367 28.695 53.51 28.4767L54.8417 28.1833C55.0967 28.1183 55.34 28.2717 55.43 28.515L55.84 29.8217C56.1467 30.7683 56.89 31.5233 57.8367 31.8183L59.1417 32.2283C59.385 32.305 59.5383 32.56 59.475 32.8033L59.18 34.135C58.9633 35.1083 59.2317 36.1317 59.91 36.8617L60.8317 37.8717C61.0117 38.065 61.0117 38.3583 60.8317 38.5383L59.91 39.5483C59.2317 40.2917 58.9633 41.3033 59.18 42.275L59.475 43.6067C59.5267 43.8633 59.385 44.1067 59.1417 44.1833L57.8367 44.5917C56.89 44.8867 56.1333 45.6417 55.84 46.5883L55.43 47.895C55.3533 48.1383 55.0967 48.2917 54.8533 48.2283L54.3933 48.125C54.355 48.1117 54.3167 48.1117 54.2783 48.1L53.5233 47.9333C52.55 47.715 51.5267 47.985 50.7967 48.6633L49.785 49.585C49.5933 49.7633 49.2983 49.7633 49.1067 49.585L48.095 48.6633C47.52 48.1383 46.79 47.8567 46.0217 47.8567C45.805 47.8567 45.5733 47.8817 45.3567 47.9333L44.64 48.0867C44.575 48.1 44.525 48.1117 44.4733 48.125L44.025 48.2283C43.7817 48.2783 43.5133 48.1383 43.4367 47.895L43.0267 46.5883C42.7317 45.6417 41.9767 44.8867 41.03 44.5917L39.725 44.1833C39.4817 44.1067 39.3283 43.85 39.3917 43.5933L39.6867 42.2633C39.9167 41.3033 39.6483 40.2783 38.97 39.5483ZM55.84 38.64C55.84 42.1733 52.9717 45.04 49.44 45.04C45.9067 45.04 43.04 42.1733 43.04 38.64C43.04 35.1083 45.9067 32.24 49.44 32.24C52.9717 32.24 55.84 35.1083 55.84 38.64Z" fill="#2894B4"/>
<path d="M50.0917 59.3C49.6833 59.0567 49.1583 59.0567 48.7617 59.3117L44.6133 61.8983L46.035 50.4283C46.15 50.4283 46.265 50.4683 46.355 50.545L47.3667 51.4667C47.955 52.0033 48.6967 52.2717 49.4267 52.2717C50.1567 52.2717 50.8983 52.0033 51.4883 51.4667L52.4983 50.545C52.5883 50.4683 52.7033 50.4283 52.8183 50.4283L54.2267 61.7833L50.0917 59.3Z" fill="#2894B4"/>
</svg>
