<svg width="36" height="36" viewBox="0 0 36 36" fill="none" xmlns="http://www.w3.org/2000/svg">
<g id="configuration">
<g id="Group 1000001366">
<path id="Vector" d="M18.0864 29.3138C17.3856 29.3134 16.7565 28.8783 16.5118 28.2216C16.3878 27.8887 16.2656 27.5549 16.1491 27.2186C16.0647 26.9752 15.9408 26.8518 15.6809 26.7861C14.9426 26.6009 14.24 26.2949 13.6016 25.8804C13.2506 25.6539 12.9732 25.6369 12.6064 25.8419C12.0403 26.1566 11.4425 26.4046 10.8622 26.691C10.732 26.755 10.6534 26.7391 10.5532 26.6344C10.1116 26.1815 9.66418 25.7343 9.21092 25.2927C9.0977 25.1852 9.08185 25.1042 9.15035 24.965C9.49001 24.276 9.81099 23.5803 10.1461 22.8902C10.2027 22.7713 10.2141 22.679 10.1461 22.5579C9.69486 21.7501 9.34609 20.8892 9.10789 19.9951C9.09098 19.9453 9.06402 19.8995 9.02867 19.8606C8.99332 19.8216 8.95034 19.7904 8.90239 19.7687C8.47665 19.6071 8.04924 19.4492 7.62071 19.2924C6.96691 19.0532 6.53156 18.4321 6.53156 17.7359V17.5358C6.53156 16.9632 6.88736 16.45 7.42487 16.2526V16.2526C7.91228 16.0749 8.39856 15.8943 8.88824 15.7228C9.01278 15.6792 9.08411 15.6226 9.11468 15.4833C9.32499 14.5727 9.67219 13.6993 10.1444 12.8928C10.1645 12.8484 10.1752 12.8004 10.1758 12.7517C10.1764 12.7029 10.1669 12.6546 10.1478 12.6098C9.82344 11.9067 9.48944 11.2075 9.15148 10.5107C9.09147 10.3867 9.08468 10.3057 9.1996 10.2027C9.65871 9.78944 10.1099 9.3677 10.5582 8.94255C10.6545 8.85141 10.7281 8.83782 10.8498 8.89783C11.5319 9.2307 12.2232 9.54602 12.903 9.88455C13.0689 9.96663 13.1861 9.95078 13.335 9.85964C14.1332 9.36883 14.9733 8.97256 15.8824 8.73479C15.956 8.71611 16.0347 8.62157 16.0636 8.54288C16.337 7.81884 16.5997 7.09026 16.8658 6.36282V6.36282C16.9086 6.24675 17.0214 6.17148 17.1451 6.17148H18.6112C18.9917 6.17148 19.332 6.41517 19.4472 6.77777V6.77777C19.634 7.36482 19.814 7.9547 20.0133 8.53836C20.033 8.58609 20.0626 8.62909 20.1002 8.66452C20.1378 8.69995 20.1824 8.72699 20.2312 8.74385C21.1384 8.96585 22.0094 9.31541 22.8183 9.78208C22.8624 9.80301 22.9102 9.81458 22.959 9.81604C23.0077 9.8175 23.0562 9.80883 23.1014 9.79058C23.8045 9.46601 24.504 9.13371 25.1999 8.79367C25.3364 8.72743 25.4207 8.73706 25.5305 8.85028C25.9702 9.30316 26.4176 9.75038 26.8728 10.1919C26.986 10.3052 26.986 10.3839 26.9215 10.518C26.5846 11.207 26.2614 11.9027 25.9262 12.5928C25.8967 12.6438 25.8824 12.7022 25.885 12.7611C25.8876 12.82 25.907 12.8769 25.941 12.9251C26.4515 13.7608 26.8375 14.6665 27.0868 15.6135C27.1043 15.6826 27.1609 15.7749 27.2198 15.7941C27.6614 15.9365 28.104 16.0759 28.547 16.2142C29.2146 16.4226 29.6699 17.04 29.6699 17.7393V17.7393C29.6699 18.4383 29.2152 19.0556 28.5482 19.2647C28.1048 19.4037 27.6618 19.5436 27.2198 19.6855C27.1677 19.7025 27.1303 19.8061 27.11 19.8763C27.0479 20.0907 26.9939 20.3079 26.9376 20.5269C26.9266 20.5698 26.8712 20.609 26.8399 20.5777V20.5777C26.237 19.9765 25.6331 19.3758 25.0355 18.7692C25.0153 18.7487 24.9956 18.7301 24.9877 18.7024V18.7024C24.9541 18.5845 24.9417 18.4533 24.945 18.3307C24.9588 17.8225 25.0078 17.3115 24.9554 16.8103C24.781 15.1476 24.0315 13.7533 22.8042 12.6318C21.3618 11.3157 19.6476 10.719 17.6945 10.8203C16.4302 10.8735 15.2085 11.2932 14.1785 12.0284C12.3024 13.3604 11.2727 15.1833 11.1713 17.4952C11.0966 19.2032 11.5818 20.7554 12.6641 22.0694C14.3845 24.1577 16.6354 24.9502 19.3017 24.5942C19.3585 24.5813 19.4178 24.584 19.4732 24.6021C19.5286 24.6201 19.5781 24.6528 19.6165 24.6966C20.1395 25.2276 20.6688 25.7524 21.1953 26.2817V26.2817C21.2579 26.3443 21.2206 26.4541 21.1368 26.4827C20.9658 26.5412 20.8056 26.5992 20.6428 26.6242C20.2765 26.6808 20.1095 26.8892 20.0014 27.2311C19.8988 27.5562 19.7874 27.8784 19.6728 28.1997C19.4342 28.8686 18.7966 29.3141 18.0864 29.3138V29.3138Z" stroke="black" stroke-width="1.28571"/>
<path id="Vector_2" d="M13.6892 16.5356C13.6947 16.5178 13.723 16.4935 13.7367 16.5062C13.8718 16.6317 13.9854 16.7361 14.0976 16.8425C14.7045 17.4177 15.3112 17.9932 15.9176 18.5691C16.6406 19.2535 17.9409 19.3186 18.7334 18.6948C19.2565 18.2827 19.6432 17.7834 19.6958 17.078C19.7468 16.3862 19.5667 15.776 19.0901 15.275C18.4549 14.6104 17.7971 13.9678 17.1461 13.3191C17.0971 13.2779 17.0454 13.2401 16.9912 13.2061C16.9633 13.1886 16.9513 13.1536 16.9641 13.1232C16.9727 13.1027 16.9912 13.0881 17.013 13.0842C17.2621 13.0395 17.5094 12.9806 17.7603 12.9579C19.7564 12.7762 21.693 13.9854 22.4442 15.8496C22.9107 17.0055 22.9107 18.1513 22.4442 19.2994C22.3842 19.4477 22.4261 19.5258 22.5269 19.6255C24.7188 21.8144 26.9087 24.0033 29.0965 26.1923C29.6773 26.7731 29.8109 27.7168 29.3666 28.3955C28.7597 29.3217 27.6184 29.5362 26.7885 28.8382C26.6906 28.7556 26.5977 28.6684 26.5055 28.5767C24.3369 26.4089 22.1695 24.2388 20.0032 22.0665C19.8815 21.9476 19.7841 21.9199 19.6143 21.9765C17.2367 22.8109 14.6694 21.5853 13.7959 19.2088C13.4904 18.3771 13.4216 17.5375 13.6412 16.6818C13.6477 16.6563 13.6814 16.5607 13.6892 16.5356Z" fill="#FFA600" stroke="black" stroke-width="1.28571"/>
</g>
</g>
</svg>
