<svg width="36" height="36" viewBox="0 0 36 36" fill="none" xmlns="http://www.w3.org/2000/svg">
<g id="hr-training">
<g id="Group 1171274913">
<g id="Group">
<g id="Vector">
<path d="M6.79962 9.37104L6.68573 9.48038V10.5327V11.5851L6.79962 11.6944C6.9044 11.8038 6.93174 11.8083 7.50575 11.8083H8.09799V18.2637C8.10255 23.2704 8.11166 24.7419 8.15721 24.7966C8.27111 24.9469 8.40778 24.9742 9.00457 24.9742C9.33258 24.9742 9.60137 24.9879 9.60137 25.0107C9.60137 25.0289 9.56948 25.1884 9.53303 25.3615C9.49203 25.5483 9.4647 25.9264 9.4647 26.2863C9.4647 26.8694 9.46925 26.8967 9.57859 27.0015L9.68792 27.1154H18.2572H26.8264L26.9357 27.0015C27.0451 26.8967 27.0496 26.8694 27.0496 26.2863C27.0496 25.9264 27.0223 25.5483 26.9813 25.3615C26.9448 25.1884 26.913 25.0289 26.913 25.0107C26.913 24.9879 27.1817 24.9742 27.5097 24.9742C28.1065 24.9742 28.2432 24.9469 28.3571 24.7966C28.4027 24.7419 28.4118 23.2704 28.4163 18.2637V11.8083H29.0086C29.5826 11.8083 29.6099 11.8038 29.7147 11.6944L29.8286 11.5851V10.5327V9.48038L29.7147 9.37104L29.6054 9.25715H18.2572H6.90896L6.79962 9.37104ZM29.0541 10.5327V11.0339H18.2572H7.4602V10.5327V10.0316H18.2572H29.0541V10.5327ZM27.6419 18.0041V24.1998H27.0952H26.5485L26.1248 23.7761C25.8105 23.4527 25.6237 23.3069 25.364 23.1748C25.1772 23.0791 25.0132 22.9971 25.0041 22.988C24.995 22.9789 25.0633 22.8832 25.1545 22.7739C25.241 22.6645 25.3822 22.4367 25.4642 22.2591C25.5918 21.9903 25.6146 21.8855 25.6283 21.5074C25.6601 20.783 25.4551 20.2773 24.954 19.8127C23.7786 18.7239 21.8379 19.266 21.4234 20.8012C21.3004 21.2614 21.3414 21.8627 21.5327 22.2682C21.6101 22.4367 21.7468 22.6645 21.8334 22.7693C21.9199 22.8741 21.9928 22.9697 21.9928 22.9834C21.9928 22.9971 21.9245 23.029 21.847 23.0654C21.6329 23.1474 21.1227 23.4845 20.9951 23.6258L20.8812 23.7442L20.7218 23.5893C20.5396 23.4162 20.1341 23.152 19.9109 23.0654C19.8289 23.029 19.7605 22.9971 19.7605 22.9834C19.7605 22.9697 19.8334 22.8741 19.92 22.7693C20.0065 22.6645 20.1432 22.4367 20.2207 22.2682C20.3437 22.0085 20.371 21.8855 20.3892 21.5302C20.4166 21.0017 20.3254 20.6236 20.084 20.2455C19.2093 18.897 17.305 18.897 16.4303 20.2455C16.1934 20.619 16.1023 20.9926 16.1251 21.521C16.1388 21.8809 16.1661 21.9903 16.2891 22.2591C16.3711 22.4367 16.5078 22.6645 16.5943 22.7693C16.6809 22.8741 16.7538 22.9697 16.7538 22.9834C16.7538 22.9971 16.6854 23.029 16.608 23.0654C16.3802 23.152 15.9748 23.4162 15.7925 23.5893L15.6331 23.7442L15.4964 23.603C15.3643 23.4663 14.7584 23.0609 14.6764 23.0609C14.6536 23.0609 14.6081 23.0426 14.5716 23.0199C14.5215 22.988 14.5397 22.9379 14.6718 22.7784C14.763 22.6691 14.9042 22.4367 14.9816 22.2682C15.173 21.8627 15.214 21.2614 15.091 20.8012C14.6764 19.266 12.7357 18.7239 11.5603 19.8127C11.0592 20.2773 10.8542 20.783 10.8861 21.5074C10.8997 21.8855 10.9225 21.9903 11.0501 22.2591C11.1321 22.4367 11.2687 22.6645 11.3553 22.7693C11.4419 22.8741 11.5148 22.9697 11.5148 22.9834C11.5148 22.9971 11.4464 23.029 11.3644 23.0654C11.0455 23.193 10.6401 23.4937 10.3121 23.8399L9.97493 24.1998H9.42369H8.87246V18.0041V11.8083H18.2572H27.6419V18.0041ZM13.6013 20.1407C14.0978 20.3958 14.3484 20.783 14.3757 21.3343C14.3894 21.6122 14.3757 21.726 14.2983 21.8992C14.1434 22.25 13.952 22.4504 13.6195 22.6144C13.3598 22.742 13.2687 22.7647 12.9953 22.7647C12.722 22.7602 12.6354 22.7374 12.3894 22.6053C11.9111 22.3502 11.6469 21.9311 11.6469 21.4208C11.6423 20.7876 11.9885 20.3001 12.6036 20.0678C12.845 19.9767 13.3598 20.0177 13.6013 20.1407ZM18.8904 20.1726C19.3779 20.4368 19.6239 20.8559 19.6239 21.4163C19.6193 21.9356 19.3642 22.3502 18.8858 22.6098C18.6307 22.742 18.5578 22.7602 18.2572 22.7602C17.9565 22.7602 17.8836 22.742 17.6285 22.6098C17.1501 22.3502 16.895 21.9356 16.8905 21.4163C16.8905 20.7739 17.223 20.3001 17.8426 20.0678C18.1159 19.9676 18.6034 20.0131 18.8904 20.1726ZM24.1294 20.1726C24.9267 20.6008 25.1135 21.6213 24.5303 22.3137C24.4666 22.3912 24.2843 22.5233 24.1249 22.6098C23.8698 22.742 23.7969 22.7602 23.4962 22.7602C23.1955 22.7602 23.1226 22.742 22.8675 22.6098C22.5532 22.4413 22.3618 22.2317 22.216 21.8992C22.1386 21.726 22.1249 21.6122 22.1386 21.3343C22.1659 20.7192 22.4848 20.291 23.0816 20.0678C23.355 19.9676 23.8424 20.0131 24.1294 20.1726ZM13.952 23.6303C15.0317 23.9128 15.7971 24.915 15.7971 26.0448V26.341H13.0181H10.2392V26.0448C10.2392 24.9287 11.0045 23.9219 12.066 23.6349C12.4122 23.5392 13.5967 23.5392 13.952 23.6303ZM19.1911 23.6303C19.5282 23.7214 19.9336 23.9356 20.1933 24.1633L20.3938 24.341L20.2389 24.669C20.0567 25.0562 19.9428 25.5756 19.9428 26.0221V26.341H18.2572H16.5716V26.0221C16.5716 25.5847 16.4577 25.0654 16.2754 24.669L16.1205 24.3365L16.321 24.1633C16.5716 23.9401 16.9861 23.7214 17.305 23.6349C17.6513 23.5392 18.8357 23.5392 19.1911 23.6303ZM24.4301 23.6303C25.5098 23.9128 26.2752 24.915 26.2752 26.0448V26.341H23.4962H20.7172V26.0448C20.7172 24.9287 21.4826 23.9219 22.5441 23.6349C22.8903 23.5392 24.0748 23.5392 24.4301 23.6303Z" fill="black"/>
<path d="M29.0541 10.5327V11.0339H18.2572H7.4602V10.5327V10.0316H18.2572H29.0541V10.5327Z" fill="#FFA600"/>
<path d="M13.952 23.6303C15.0317 23.9128 15.7971 24.915 15.7971 26.0448V26.341H13.0181H10.2392V26.0448C10.2392 24.9287 11.0045 23.9219 12.066 23.6349C12.4122 23.5392 13.5967 23.5392 13.952 23.6303Z" fill="#FFA600"/>
<path d="M19.1911 23.6303C19.5282 23.7214 19.9336 23.9356 20.1933 24.1633L20.3938 24.341L20.2389 24.669C20.0567 25.0562 19.9428 25.5756 19.9428 26.0221V26.341H18.2572H16.5716V26.0221C16.5716 25.5847 16.4577 25.0654 16.2754 24.669L16.1205 24.3365L16.321 24.1633C16.5716 23.9401 16.9861 23.7214 17.305 23.6349C17.6513 23.5392 18.8357 23.5392 19.1911 23.6303Z" fill="#FFA600"/>
<path d="M24.4301 23.6303C25.5098 23.9128 26.2752 24.915 26.2752 26.0448V26.341H23.4962H20.7172V26.0448C20.7172 24.9287 21.4826 23.9219 22.5441 23.6349C22.8903 23.5392 24.0748 23.5392 24.4301 23.6303Z" fill="#FFA600"/>
</g>
<path id="Vector_2" d="M11.697 14.0361C11.6241 14.1089 11.5512 14.2183 11.533 14.2866C11.492 14.4597 11.5466 14.6237 11.697 14.7741C11.8017 14.8789 11.8655 14.9062 12.0295 14.9062C12.3712 14.9062 12.6081 14.6283 12.5443 14.2957C12.4714 13.9222 11.9657 13.7673 11.697 14.0361Z" fill="black"/>
<path id="Vector_3" d="M13.378 14.1272C13.296 14.191 13.2687 14.2593 13.2687 14.4051C13.2687 14.5509 13.296 14.6192 13.378 14.683C13.4782 14.765 13.5876 14.7695 15.2914 14.7695H17.1046L17.2002 14.6648C17.3323 14.5281 17.3323 14.273 17.2093 14.1408C17.1137 14.0406 17.1091 14.0406 15.3005 14.0406C13.5876 14.0406 13.4782 14.0452 13.378 14.1272Z" fill="black"/>
<path id="Vector_4" d="M11.8564 15.9039C11.6469 15.9905 11.5011 16.2775 11.5421 16.5007C11.6332 16.9335 12.2437 17.0428 12.476 16.6647C12.7357 16.241 12.312 15.7217 11.8564 15.9039Z" fill="black"/>
<path id="Vector_5" d="M13.4008 16.1089C13.3051 16.1909 13.2733 16.2547 13.2733 16.3868C13.2733 16.5189 13.3051 16.5827 13.4008 16.6647L13.5238 16.774H15.296H17.0681L17.1866 16.6693C17.2823 16.5918 17.3096 16.5235 17.3096 16.3868C17.3096 16.2501 17.2823 16.1818 17.1866 16.1044L17.0681 15.9996H15.296H13.5238L13.4008 16.1089Z" fill="black"/>
</g>
<g id="Group 1171274909">
<g id="Vector_6">
<path d="M22.7171 17.5505C22.177 17.5505 21.6591 17.3359 21.2772 16.9541C20.8953 16.5722 20.6808 16.0542 20.6808 15.5142C20.6808 14.9741 20.8953 14.4562 21.2772 14.0743C21.6591 13.6924 22.177 13.4778 22.7171 13.4778C22.7662 13.4778 22.8133 13.4973 22.848 13.5321C22.8827 13.5668 22.9022 13.6139 22.9022 13.663V15.329H24.5683C24.6174 15.329 24.6645 15.3485 24.6992 15.3833C24.7339 15.418 24.7534 15.4651 24.7534 15.5142C24.7534 16.0542 24.5389 16.5722 24.157 16.9541C23.7751 17.3359 23.2572 17.5505 22.7171 17.5505ZM22.532 13.8592C22.2201 13.8939 21.9243 14.016 21.6788 14.2114C21.4332 14.4068 21.2479 14.6676 21.144 14.9637C21.0402 15.2598 21.0221 15.5793 21.0918 15.8852C21.1615 16.1912 21.3162 16.4712 21.5381 16.6931C21.76 16.915 22.0401 17.0698 22.346 17.1395C22.652 17.2092 22.9715 17.1911 23.2676 17.0872C23.5637 16.9834 23.8245 16.798 24.0199 16.5525C24.2153 16.3069 24.3374 16.0112 24.3721 15.6993H22.9022C22.804 15.6993 22.7099 15.6603 22.6404 15.5908C22.571 15.5214 22.532 15.4272 22.532 15.329V13.8592Z" fill="black"/>
<path d="M22.532 13.8592C22.2201 13.8939 21.9243 14.016 21.6788 14.2114C21.4332 14.4068 21.2479 14.6676 21.144 14.9637C21.0402 15.2598 21.0221 15.5793 21.0918 15.8852C21.1615 16.1912 21.3162 16.4712 21.5381 16.6931C21.76 16.915 22.0401 17.0698 22.346 17.1395C22.652 17.2092 22.9715 17.1911 23.2676 17.0872C23.5637 16.9834 23.8245 16.798 24.0199 16.5525C24.2153 16.3069 24.3374 16.0112 24.3721 15.6993H22.9022C22.804 15.6993 22.7099 15.6603 22.6404 15.5908C22.571 15.5214 22.532 15.4272 22.532 15.329V13.8592Z" fill="#FFA600"/>
</g>
<path id="Vector_7" d="M25.4939 14.5886H23.8278C23.7296 14.5886 23.6355 14.5496 23.566 14.4801C23.4966 14.4107 23.4576 14.3165 23.4576 14.2183V12.5522C23.4576 12.5031 23.4771 12.4561 23.5118 12.4213C23.5465 12.3866 23.5936 12.3671 23.6427 12.3671C24.1828 12.3671 24.7007 12.5817 25.0826 12.9635C25.4645 13.3454 25.679 13.8634 25.679 14.4034C25.679 14.4525 25.6595 14.4996 25.6248 14.5343C25.5901 14.5691 25.543 14.5886 25.4939 14.5886ZM23.8278 14.2183H25.2977C25.2555 13.843 25.0871 13.4931 24.8201 13.2261C24.553 12.959 24.2031 12.7906 23.8278 12.7485V14.2183Z" fill="black"/>
</g>
</g>
</g>
</svg>
