<svg width="36" height="36" viewBox="0 0 36 36" fill="none" xmlns="http://www.w3.org/2000/svg">
<g id="manage-training">
<g id="Group 1171274848">
<rect id="Rectangle 34624694" x="19.3091" y="9.646" width="5.89091" height="1.35473" rx="0.514286" fill="#FFA600"/>
<g id="Group 1171274847">
<ellipse id="Ellipse 2513" cx="11.5246" cy="21.6127" rx="3.9974" ry="4.28998" fill="#FFA600"/>
<g id="Group">
<g id="Vector">
<mask id="path-3-outside-1_3021_55219" maskUnits="userSpaceOnUse" x="13.6805" y="7.74292" width="17" height="18" fill="black">
<rect fill="white" x="13.6805" y="7.74292" width="17" height="18"/>
<path d="M29.377 9.71034H26.3571V9.2276C26.3571 9.16362 26.3457 9.10223 26.3234 9.04342C26.3011 8.98461 26.2692 8.93227 26.227 8.88703C26.1855 8.84115 26.1373 8.80625 26.0825 8.78105C26.0283 8.75649 25.9711 8.74357 25.9115 8.74292H18.5976C18.5374 8.74292 18.4802 8.7552 18.4248 8.77976C18.3694 8.80431 18.3206 8.83921 18.2785 8.88509C18.2363 8.93033 18.2038 8.98267 18.1809 9.04213C18.1586 9.10158 18.1472 9.16297 18.1472 9.2276V9.71034H15.1322C15.0719 9.71034 15.0147 9.72262 14.9593 9.74717C14.9039 9.77173 14.8552 9.80727 14.813 9.85251C14.7703 9.89775 14.7377 9.95009 14.7149 10.0095C14.692 10.069 14.6805 10.131 14.6805 10.195V20.0637C14.6805 20.1283 14.692 20.1897 14.7149 20.2492C14.7377 20.3086 14.7703 20.361 14.813 20.4062C14.8552 20.4521 14.9039 20.487 14.9593 20.5116C15.0147 20.5361 15.0719 20.5484 15.1322 20.5484H19.363L17.2921 24.2675C17.2614 24.3224 17.2422 24.3819 17.2331 24.4452C17.2247 24.5092 17.2277 24.5719 17.2428 24.6339C17.2572 24.696 17.2825 24.7528 17.318 24.8045C17.3536 24.8556 17.3975 24.8976 17.4487 24.9305C17.4999 24.9635 17.5553 24.9848 17.6143 24.9939C17.6733 25.0029 17.7323 24.9997 17.7901 24.9842C17.8479 24.9687 17.9009 24.9415 17.9485 24.9028C17.9967 24.8646 18.0358 24.8181 18.0665 24.7632L20.4131 20.5484H24.096L26.4426 24.7632C26.4733 24.8181 26.5125 24.8646 26.5606 24.9034C26.6082 24.9415 26.6612 24.9687 26.719 24.9842C26.7774 25.0003 26.8358 25.0036 26.8948 24.9939C26.9539 24.9848 27.0093 24.9642 27.061 24.9312C27.1122 24.8982 27.1556 24.8562 27.1917 24.8045C27.2272 24.7528 27.2525 24.696 27.267 24.6339C27.2814 24.5719 27.2844 24.5092 27.276 24.4452C27.2676 24.3819 27.2477 24.3224 27.217 24.2675L25.1462 20.5484H29.377C29.4372 20.5484 29.4944 20.5361 29.5498 20.5116C29.6052 20.487 29.654 20.4521 29.6967 20.4062C29.7389 20.361 29.7714 20.3086 29.7943 20.2492C29.8172 20.1897 29.8286 20.1283 29.8286 20.0637V10.195C29.8286 10.131 29.8172 10.069 29.7943 10.0095C29.7714 9.95009 29.7389 9.89775 29.6967 9.85251C29.654 9.80727 29.6052 9.77173 29.5498 9.74717C29.4944 9.72262 29.4372 9.71034 29.377 9.71034ZM19.0541 10.195V9.71034H25.4551V10.8716H19.0541V10.195ZM28.9272 19.5778H15.582V10.6784H18.152V11.355C18.152 11.4183 18.1635 11.4797 18.1857 11.5392C18.208 11.598 18.2405 11.6503 18.2821 11.6956C18.3236 11.7408 18.3718 11.7757 18.4266 11.8009C18.4808 11.8261 18.538 11.8384 18.5976 11.8397H25.9115C25.9717 11.8397 26.0289 11.8274 26.0843 11.8029C26.1391 11.7783 26.1879 11.7434 26.2301 11.6982C26.2722 11.6523 26.3047 11.6006 26.3276 11.5411C26.3505 11.4817 26.3619 11.4203 26.3619 11.3563V10.6797H28.932L28.9272 19.5778Z"/>
</mask>
<path d="M29.377 9.71034H26.3571V9.2276C26.3571 9.16362 26.3457 9.10223 26.3234 9.04342C26.3011 8.98461 26.2692 8.93227 26.227 8.88703C26.1855 8.84115 26.1373 8.80625 26.0825 8.78105C26.0283 8.75649 25.9711 8.74357 25.9115 8.74292H18.5976C18.5374 8.74292 18.4802 8.7552 18.4248 8.77976C18.3694 8.80431 18.3206 8.83921 18.2785 8.88509C18.2363 8.93033 18.2038 8.98267 18.1809 9.04213C18.1586 9.10158 18.1472 9.16297 18.1472 9.2276V9.71034H15.1322C15.0719 9.71034 15.0147 9.72262 14.9593 9.74717C14.9039 9.77173 14.8552 9.80727 14.813 9.85251C14.7703 9.89775 14.7377 9.95009 14.7149 10.0095C14.692 10.069 14.6805 10.131 14.6805 10.195V20.0637C14.6805 20.1283 14.692 20.1897 14.7149 20.2492C14.7377 20.3086 14.7703 20.361 14.813 20.4062C14.8552 20.4521 14.9039 20.487 14.9593 20.5116C15.0147 20.5361 15.0719 20.5484 15.1322 20.5484H19.363L17.2921 24.2675C17.2614 24.3224 17.2422 24.3819 17.2331 24.4452C17.2247 24.5092 17.2277 24.5719 17.2428 24.6339C17.2572 24.696 17.2825 24.7528 17.318 24.8045C17.3536 24.8556 17.3975 24.8976 17.4487 24.9305C17.4999 24.9635 17.5553 24.9848 17.6143 24.9939C17.6733 25.0029 17.7323 24.9997 17.7901 24.9842C17.8479 24.9687 17.9009 24.9415 17.9485 24.9028C17.9967 24.8646 18.0358 24.8181 18.0665 24.7632L20.4131 20.5484H24.096L26.4426 24.7632C26.4733 24.8181 26.5125 24.8646 26.5606 24.9034C26.6082 24.9415 26.6612 24.9687 26.719 24.9842C26.7774 25.0003 26.8358 25.0036 26.8948 24.9939C26.9539 24.9848 27.0093 24.9642 27.061 24.9312C27.1122 24.8982 27.1556 24.8562 27.1917 24.8045C27.2272 24.7528 27.2525 24.696 27.267 24.6339C27.2814 24.5719 27.2844 24.5092 27.276 24.4452C27.2676 24.3819 27.2477 24.3224 27.217 24.2675L25.1462 20.5484H29.377C29.4372 20.5484 29.4944 20.5361 29.5498 20.5116C29.6052 20.487 29.654 20.4521 29.6967 20.4062C29.7389 20.361 29.7714 20.3086 29.7943 20.2492C29.8172 20.1897 29.8286 20.1283 29.8286 20.0637V10.195C29.8286 10.131 29.8172 10.069 29.7943 10.0095C29.7714 9.95009 29.7389 9.89775 29.6967 9.85251C29.654 9.80727 29.6052 9.77173 29.5498 9.74717C29.4944 9.72262 29.4372 9.71034 29.377 9.71034ZM19.0541 10.195V9.71034H25.4551V10.8716H19.0541V10.195ZM28.9272 19.5778H15.582V10.6784H18.152V11.355C18.152 11.4183 18.1635 11.4797 18.1857 11.5392C18.208 11.598 18.2405 11.6503 18.2821 11.6956C18.3236 11.7408 18.3718 11.7757 18.4266 11.8009C18.4808 11.8261 18.538 11.8384 18.5976 11.8397H25.9115C25.9717 11.8397 26.0289 11.8274 26.0843 11.8029C26.1391 11.7783 26.1879 11.7434 26.2301 11.6982C26.2722 11.6523 26.3047 11.6006 26.3276 11.5411C26.3505 11.4817 26.3619 11.4203 26.3619 11.3563V10.6797H28.932L28.9272 19.5778Z" fill="black"/>
<path d="M29.377 9.71034H26.3571V9.2276C26.3571 9.16362 26.3457 9.10223 26.3234 9.04342C26.3011 8.98461 26.2692 8.93227 26.227 8.88703C26.1855 8.84115 26.1373 8.80625 26.0825 8.78105C26.0283 8.75649 25.9711 8.74357 25.9115 8.74292H18.5976C18.5374 8.74292 18.4802 8.7552 18.4248 8.77976C18.3694 8.80431 18.3206 8.83921 18.2785 8.88509C18.2363 8.93033 18.2038 8.98267 18.1809 9.04213C18.1586 9.10158 18.1472 9.16297 18.1472 9.2276V9.71034H15.1322C15.0719 9.71034 15.0147 9.72262 14.9593 9.74717C14.9039 9.77173 14.8552 9.80727 14.813 9.85251C14.7703 9.89775 14.7377 9.95009 14.7149 10.0095C14.692 10.069 14.6805 10.131 14.6805 10.195V20.0637C14.6805 20.1283 14.692 20.1897 14.7149 20.2492C14.7377 20.3086 14.7703 20.361 14.813 20.4062C14.8552 20.4521 14.9039 20.487 14.9593 20.5116C15.0147 20.5361 15.0719 20.5484 15.1322 20.5484H19.363L17.2921 24.2675C17.2614 24.3224 17.2422 24.3819 17.2331 24.4452C17.2247 24.5092 17.2277 24.5719 17.2428 24.6339C17.2572 24.696 17.2825 24.7528 17.318 24.8045C17.3536 24.8556 17.3975 24.8976 17.4487 24.9305C17.4999 24.9635 17.5553 24.9848 17.6143 24.9939C17.6733 25.0029 17.7323 24.9997 17.7901 24.9842C17.8479 24.9687 17.9009 24.9415 17.9485 24.9028C17.9967 24.8646 18.0358 24.8181 18.0665 24.7632L20.4131 20.5484H24.096L26.4426 24.7632C26.4733 24.8181 26.5125 24.8646 26.5606 24.9034C26.6082 24.9415 26.6612 24.9687 26.719 24.9842C26.7774 25.0003 26.8358 25.0036 26.8948 24.9939C26.9539 24.9848 27.0093 24.9642 27.061 24.9312C27.1122 24.8982 27.1556 24.8562 27.1917 24.8045C27.2272 24.7528 27.2525 24.696 27.267 24.6339C27.2814 24.5719 27.2844 24.5092 27.276 24.4452C27.2676 24.3819 27.2477 24.3224 27.217 24.2675L25.1462 20.5484H29.377C29.4372 20.5484 29.4944 20.5361 29.5498 20.5116C29.6052 20.487 29.654 20.4521 29.6967 20.4062C29.7389 20.361 29.7714 20.3086 29.7943 20.2492C29.8172 20.1897 29.8286 20.1283 29.8286 20.0637V10.195C29.8286 10.131 29.8172 10.069 29.7943 10.0095C29.7714 9.95009 29.7389 9.89775 29.6967 9.85251C29.654 9.80727 29.6052 9.77173 29.5498 9.74717C29.4944 9.72262 29.4372 9.71034 29.377 9.71034ZM19.0541 10.195V9.71034H25.4551V10.8716H19.0541V10.195ZM28.9272 19.5778H15.582V10.6784H18.152V11.355C18.152 11.4183 18.1635 11.4797 18.1857 11.5392C18.208 11.598 18.2405 11.6503 18.2821 11.6956C18.3236 11.7408 18.3718 11.7757 18.4266 11.8009C18.4808 11.8261 18.538 11.8384 18.5976 11.8397H25.9115C25.9717 11.8397 26.0289 11.8274 26.0843 11.8029C26.1391 11.7783 26.1879 11.7434 26.2301 11.6982C26.2722 11.6523 26.3047 11.6006 26.3276 11.5411C26.3505 11.4817 26.3619 11.4203 26.3619 11.3563V10.6797H28.932L28.9272 19.5778Z" stroke="black" stroke-width="0.822857" mask="url(#path-3-outside-1_3021_55219)"/>
</g>
</g>
<path id="Vector_2" d="M19.4637 14.1618H25.0451C25.3912 14.1618 25.6207 13.9806 25.6207 13.7102C25.6207 13.4399 25.3912 13.2587 25.0451 13.2587H19.4637C19.1177 13.2587 18.8882 13.4399 18.8882 13.7102C18.8882 13.9356 19.1177 14.1618 19.4637 14.1618Z" fill="black"/>
<path id="Vector_3" d="M19.4637 15.9681H25.0451C25.3912 15.9681 25.6207 15.7877 25.6207 15.516C25.6207 15.2454 25.3912 15.0649 25.0451 15.0649H19.4637C19.1177 15.0649 18.8882 15.2454 18.8882 15.516C18.8882 15.7425 19.1177 15.9681 19.4637 15.9681Z" fill="black"/>
<path id="Vector_4" d="M19.4637 17.7744H25.0451C25.3912 17.7744 25.6207 17.5939 25.6207 17.3233C25.6207 17.0526 25.3912 16.8712 25.0451 16.8712H19.4637C19.1177 16.8712 18.8882 17.0526 18.8882 17.3233C18.8882 17.5488 19.1177 17.7744 19.4637 17.7744Z" fill="black"/>
<g id="gearshape">
<mask id="path-7-outside-2_3021_55219" maskUnits="userSpaceOnUse" x="5.68573" y="15.4197" width="11" height="12" fill="black">
<rect fill="white" x="5.68573" y="15.4197" width="11" height="12"/>
<path d="M11.0504 26.7429H11.949C12.3164 26.7429 12.6042 26.4958 12.6927 26.1158L12.8698 25.2844L12.9849 25.2369L13.6622 25.6882C13.972 25.8973 14.3394 25.8402 14.6006 25.56L15.2203 24.8949C15.4859 24.6098 15.5302 24.2203 15.3354 23.8925L14.9149 23.1656L14.9592 23.0516L15.7338 22.8568C16.0835 22.7618 16.3137 22.453 16.3137 22.0587V21.1228C16.3137 20.7285 16.088 20.4197 15.7338 20.3247L14.9636 20.1252L14.9193 20.0017L15.3399 19.2796C15.5346 18.9518 15.4904 18.5622 15.2248 18.2724L14.605 17.6073C14.3483 17.3271 13.9809 17.2748 13.671 17.4791L12.9937 17.9256L12.8698 17.8781L12.6927 17.042C12.6042 16.662 12.3164 16.4197 11.949 16.4197H11.0504C10.6786 16.4197 10.3908 16.662 10.3067 17.042L10.1297 17.8781L10.0057 17.9256L9.32845 17.4791C9.01416 17.2748 8.65117 17.3271 8.39442 17.6073L7.77026 18.2724C7.50909 18.5622 7.4604 18.9518 7.65517 19.2796L8.0757 20.0017L8.03144 20.1252L7.26562 20.3247C6.91149 20.4197 6.68573 20.7285 6.68573 21.1228V22.0587C6.68573 22.453 6.91592 22.7618 7.26562 22.8568L8.04029 23.0516L8.08013 23.1656L7.6596 23.8925C7.46482 24.2203 7.51352 24.6098 7.77469 24.8949L8.39885 25.56C8.6556 25.8402 9.02301 25.8973 9.33288 25.6882L10.0102 25.2369L10.1297 25.2844L10.3067 26.1158C10.3908 26.4958 10.6786 26.7429 11.0504 26.7429ZM11.1655 25.8687C11.0903 25.8687 11.0504 25.8355 11.0416 25.7642L10.776 24.5956C10.4971 24.5243 10.2271 24.4008 10.0102 24.2535L9.054 24.8854C8.99645 24.9234 8.94333 24.9186 8.89021 24.8616L8.42541 24.3628C8.37229 24.3105 8.37229 24.2535 8.4077 24.1918L8.99645 23.1656C8.8725 22.9376 8.75741 22.6525 8.69101 22.3533L7.59762 22.073C7.53122 22.0635 7.49581 22.0207 7.49581 21.9399V21.2369C7.49581 21.1513 7.5268 21.1181 7.59762 21.0991L8.68658 20.8235C8.75298 20.5052 8.88136 20.2107 8.99202 19.9969L8.40328 18.9803C8.36786 18.9138 8.36786 18.8568 8.41656 18.7998L8.88578 18.3057C8.9389 18.2534 8.9876 18.2439 9.054 18.2867L10.0013 18.909C10.2005 18.776 10.4971 18.643 10.7804 18.567L11.0416 17.3983C11.0504 17.3271 11.0903 17.289 11.1655 17.289H11.8339C11.9092 17.289 11.9446 17.3223 11.9579 17.3983L12.2235 18.5717C12.5112 18.6477 12.7724 18.776 12.9937 18.909L13.941 18.2867C14.0074 18.2487 14.0561 18.2534 14.1092 18.3104L14.5785 18.8045C14.6316 18.8568 14.6316 18.9138 14.5918 18.9803L14.0074 19.9969C14.1137 20.2107 14.2465 20.5052 14.3129 20.8235L15.4018 21.0991C15.4727 21.1181 15.4992 21.1513 15.4992 21.2369V21.9399C15.4992 22.0207 15.4682 22.0635 15.4018 22.073L14.3084 22.3533C14.242 22.6525 14.1225 22.9423 13.9986 23.1656L14.5873 24.187C14.6227 24.2535 14.6227 24.3058 14.5696 24.358L14.1048 24.8616C14.0517 24.9186 13.9986 24.9234 13.941 24.8854L12.9893 24.2535C12.768 24.4008 12.5156 24.5196 12.2235 24.5956L11.9579 25.7642C11.9446 25.8355 11.9092 25.8687 11.8339 25.8687H11.1655ZM11.5019 23.3842C12.4227 23.3842 13.1796 22.5718 13.1796 21.5789C13.1796 20.5955 12.4227 19.7831 11.5019 19.7831C10.5768 19.7831 9.81538 20.5955 9.81538 21.5789C9.81538 22.5718 10.5768 23.3842 11.5019 23.3842ZM11.5019 22.5623C10.9973 22.5623 10.5856 22.1205 10.5856 21.5789C10.5856 21.0468 11.0017 20.605 11.5019 20.605C11.9933 20.605 12.405 21.0468 12.405 21.5789C12.405 22.1157 11.9933 22.5623 11.5019 22.5623Z"/>
</mask>
<path d="M11.0504 26.7429H11.949C12.3164 26.7429 12.6042 26.4958 12.6927 26.1158L12.8698 25.2844L12.9849 25.2369L13.6622 25.6882C13.972 25.8973 14.3394 25.8402 14.6006 25.56L15.2203 24.8949C15.4859 24.6098 15.5302 24.2203 15.3354 23.8925L14.9149 23.1656L14.9592 23.0516L15.7338 22.8568C16.0835 22.7618 16.3137 22.453 16.3137 22.0587V21.1228C16.3137 20.7285 16.088 20.4197 15.7338 20.3247L14.9636 20.1252L14.9193 20.0017L15.3399 19.2796C15.5346 18.9518 15.4904 18.5622 15.2248 18.2724L14.605 17.6073C14.3483 17.3271 13.9809 17.2748 13.671 17.4791L12.9937 17.9256L12.8698 17.8781L12.6927 17.042C12.6042 16.662 12.3164 16.4197 11.949 16.4197H11.0504C10.6786 16.4197 10.3908 16.662 10.3067 17.042L10.1297 17.8781L10.0057 17.9256L9.32845 17.4791C9.01416 17.2748 8.65117 17.3271 8.39442 17.6073L7.77026 18.2724C7.50909 18.5622 7.4604 18.9518 7.65517 19.2796L8.0757 20.0017L8.03144 20.1252L7.26562 20.3247C6.91149 20.4197 6.68573 20.7285 6.68573 21.1228V22.0587C6.68573 22.453 6.91592 22.7618 7.26562 22.8568L8.04029 23.0516L8.08013 23.1656L7.6596 23.8925C7.46482 24.2203 7.51352 24.6098 7.77469 24.8949L8.39885 25.56C8.6556 25.8402 9.02301 25.8973 9.33288 25.6882L10.0102 25.2369L10.1297 25.2844L10.3067 26.1158C10.3908 26.4958 10.6786 26.7429 11.0504 26.7429ZM11.1655 25.8687C11.0903 25.8687 11.0504 25.8355 11.0416 25.7642L10.776 24.5956C10.4971 24.5243 10.2271 24.4008 10.0102 24.2535L9.054 24.8854C8.99645 24.9234 8.94333 24.9186 8.89021 24.8616L8.42541 24.3628C8.37229 24.3105 8.37229 24.2535 8.4077 24.1918L8.99645 23.1656C8.8725 22.9376 8.75741 22.6525 8.69101 22.3533L7.59762 22.073C7.53122 22.0635 7.49581 22.0207 7.49581 21.9399V21.2369C7.49581 21.1513 7.5268 21.1181 7.59762 21.0991L8.68658 20.8235C8.75298 20.5052 8.88136 20.2107 8.99202 19.9969L8.40328 18.9803C8.36786 18.9138 8.36786 18.8568 8.41656 18.7998L8.88578 18.3057C8.9389 18.2534 8.9876 18.2439 9.054 18.2867L10.0013 18.909C10.2005 18.776 10.4971 18.643 10.7804 18.567L11.0416 17.3983C11.0504 17.3271 11.0903 17.289 11.1655 17.289H11.8339C11.9092 17.289 11.9446 17.3223 11.9579 17.3983L12.2235 18.5717C12.5112 18.6477 12.7724 18.776 12.9937 18.909L13.941 18.2867C14.0074 18.2487 14.0561 18.2534 14.1092 18.3104L14.5785 18.8045C14.6316 18.8568 14.6316 18.9138 14.5918 18.9803L14.0074 19.9969C14.1137 20.2107 14.2465 20.5052 14.3129 20.8235L15.4018 21.0991C15.4727 21.1181 15.4992 21.1513 15.4992 21.2369V21.9399C15.4992 22.0207 15.4682 22.0635 15.4018 22.073L14.3084 22.3533C14.242 22.6525 14.1225 22.9423 13.9986 23.1656L14.5873 24.187C14.6227 24.2535 14.6227 24.3058 14.5696 24.358L14.1048 24.8616C14.0517 24.9186 13.9986 24.9234 13.941 24.8854L12.9893 24.2535C12.768 24.4008 12.5156 24.5196 12.2235 24.5956L11.9579 25.7642C11.9446 25.8355 11.9092 25.8687 11.8339 25.8687H11.1655ZM11.5019 23.3842C12.4227 23.3842 13.1796 22.5718 13.1796 21.5789C13.1796 20.5955 12.4227 19.7831 11.5019 19.7831C10.5768 19.7831 9.81538 20.5955 9.81538 21.5789C9.81538 22.5718 10.5768 23.3842 11.5019 23.3842ZM11.5019 22.5623C10.9973 22.5623 10.5856 22.1205 10.5856 21.5789C10.5856 21.0468 11.0017 20.605 11.5019 20.605C11.9933 20.605 12.405 21.0468 12.405 21.5789C12.405 22.1157 11.9933 22.5623 11.5019 22.5623Z" fill="black"/>
<path d="M11.0504 26.7429H11.949C12.3164 26.7429 12.6042 26.4958 12.6927 26.1158L12.8698 25.2844L12.9849 25.2369L13.6622 25.6882C13.972 25.8973 14.3394 25.8402 14.6006 25.56L15.2203 24.8949C15.4859 24.6098 15.5302 24.2203 15.3354 23.8925L14.9149 23.1656L14.9592 23.0516L15.7338 22.8568C16.0835 22.7618 16.3137 22.453 16.3137 22.0587V21.1228C16.3137 20.7285 16.088 20.4197 15.7338 20.3247L14.9636 20.1252L14.9193 20.0017L15.3399 19.2796C15.5346 18.9518 15.4904 18.5622 15.2248 18.2724L14.605 17.6073C14.3483 17.3271 13.9809 17.2748 13.671 17.4791L12.9937 17.9256L12.8698 17.8781L12.6927 17.042C12.6042 16.662 12.3164 16.4197 11.949 16.4197H11.0504C10.6786 16.4197 10.3908 16.662 10.3067 17.042L10.1297 17.8781L10.0057 17.9256L9.32845 17.4791C9.01416 17.2748 8.65117 17.3271 8.39442 17.6073L7.77026 18.2724C7.50909 18.5622 7.4604 18.9518 7.65517 19.2796L8.0757 20.0017L8.03144 20.1252L7.26562 20.3247C6.91149 20.4197 6.68573 20.7285 6.68573 21.1228V22.0587C6.68573 22.453 6.91592 22.7618 7.26562 22.8568L8.04029 23.0516L8.08013 23.1656L7.6596 23.8925C7.46482 24.2203 7.51352 24.6098 7.77469 24.8949L8.39885 25.56C8.6556 25.8402 9.02301 25.8973 9.33288 25.6882L10.0102 25.2369L10.1297 25.2844L10.3067 26.1158C10.3908 26.4958 10.6786 26.7429 11.0504 26.7429ZM11.1655 25.8687C11.0903 25.8687 11.0504 25.8355 11.0416 25.7642L10.776 24.5956C10.4971 24.5243 10.2271 24.4008 10.0102 24.2535L9.054 24.8854C8.99645 24.9234 8.94333 24.9186 8.89021 24.8616L8.42541 24.3628C8.37229 24.3105 8.37229 24.2535 8.4077 24.1918L8.99645 23.1656C8.8725 22.9376 8.75741 22.6525 8.69101 22.3533L7.59762 22.073C7.53122 22.0635 7.49581 22.0207 7.49581 21.9399V21.2369C7.49581 21.1513 7.5268 21.1181 7.59762 21.0991L8.68658 20.8235C8.75298 20.5052 8.88136 20.2107 8.99202 19.9969L8.40328 18.9803C8.36786 18.9138 8.36786 18.8568 8.41656 18.7998L8.88578 18.3057C8.9389 18.2534 8.9876 18.2439 9.054 18.2867L10.0013 18.909C10.2005 18.776 10.4971 18.643 10.7804 18.567L11.0416 17.3983C11.0504 17.3271 11.0903 17.289 11.1655 17.289H11.8339C11.9092 17.289 11.9446 17.3223 11.9579 17.3983L12.2235 18.5717C12.5112 18.6477 12.7724 18.776 12.9937 18.909L13.941 18.2867C14.0074 18.2487 14.0561 18.2534 14.1092 18.3104L14.5785 18.8045C14.6316 18.8568 14.6316 18.9138 14.5918 18.9803L14.0074 19.9969C14.1137 20.2107 14.2465 20.5052 14.3129 20.8235L15.4018 21.0991C15.4727 21.1181 15.4992 21.1513 15.4992 21.2369V21.9399C15.4992 22.0207 15.4682 22.0635 15.4018 22.073L14.3084 22.3533C14.242 22.6525 14.1225 22.9423 13.9986 23.1656L14.5873 24.187C14.6227 24.2535 14.6227 24.3058 14.5696 24.358L14.1048 24.8616C14.0517 24.9186 13.9986 24.9234 13.941 24.8854L12.9893 24.2535C12.768 24.4008 12.5156 24.5196 12.2235 24.5956L11.9579 25.7642C11.9446 25.8355 11.9092 25.8687 11.8339 25.8687H11.1655ZM11.5019 23.3842C12.4227 23.3842 13.1796 22.5718 13.1796 21.5789C13.1796 20.5955 12.4227 19.7831 11.5019 19.7831C10.5768 19.7831 9.81538 20.5955 9.81538 21.5789C9.81538 22.5718 10.5768 23.3842 11.5019 23.3842ZM11.5019 22.5623C10.9973 22.5623 10.5856 22.1205 10.5856 21.5789C10.5856 21.0468 11.0017 20.605 11.5019 20.605C11.9933 20.605 12.405 21.0468 12.405 21.5789C12.405 22.1157 11.9933 22.5623 11.5019 22.5623Z" stroke="black" stroke-width="0.514286" mask="url(#path-7-outside-2_3021_55219)"/>
</g>
</g>
</g>
</g>
</svg>
