<svg width="72" height="72" viewBox="0 0 72 72" fill="none" xmlns="http://www.w3.org/2000/svg">
<rect x="31.8271" y="9.78223" width="22.2607" height="4.17387" rx="1.42221" fill="#22885E"/>
<path d="M66.5064 9.98058H56.5214V8.49328C56.5214 8.29616 56.4835 8.10702 56.4099 7.92583C56.3362 7.74465 56.2307 7.58337 56.0913 7.444C55.9539 7.30264 55.7946 7.19512 55.6135 7.11747C55.4343 7.04181 55.2451 7.00199 55.048 7H30.8648C30.6657 7 30.4766 7.03783 30.2934 7.11349C30.1102 7.18915 29.9489 7.29666 29.8096 7.43803C29.6702 7.5774 29.5627 7.73867 29.487 7.92185C29.4133 8.10502 29.3755 8.29417 29.3755 8.49328V9.98058H19.4064C19.2073 9.98058 19.0181 10.0184 18.8349 10.0941C18.6518 10.1697 18.4905 10.2792 18.3511 10.4186C18.2098 10.558 18.1022 10.7193 18.0266 10.9024C17.9509 11.0856 17.9131 11.2767 17.9131 11.4739V41.8789C17.9131 42.078 17.9509 42.2672 18.0266 42.4504C18.1022 42.6335 18.2098 42.7948 18.3511 42.9342C18.4905 43.0755 18.6518 43.1831 18.8349 43.2587C19.0181 43.3344 19.2073 43.3722 19.4064 43.3722H33.3954L26.5482 54.8306C26.4467 54.9998 26.383 55.183 26.3531 55.3781C26.3252 55.5753 26.3352 55.7684 26.385 55.9595C26.4328 56.1507 26.5164 56.3259 26.6338 56.4852C26.7513 56.6425 26.8967 56.7719 27.0659 56.8734C27.2351 56.975 27.4183 57.0407 27.6134 57.0685C27.8086 57.0964 28.0037 57.0865 28.1948 57.0387C28.386 56.9909 28.5612 56.9073 28.7185 56.7878C28.8778 56.6703 29.0072 56.527 29.1087 56.3577L36.8678 43.3722H49.045L56.8041 56.3577C56.9056 56.527 57.0351 56.6703 57.1943 56.7898C57.3516 56.9073 57.5269 56.9909 57.718 57.0387C57.9111 57.0884 58.1043 57.0984 58.2994 57.0685C58.4945 57.0407 58.6777 56.9769 58.8489 56.8754C59.0181 56.7739 59.1615 56.6444 59.281 56.4852C59.3984 56.3259 59.4821 56.1507 59.5298 55.9595C59.5776 55.7684 59.5876 55.5753 59.5597 55.3781C59.5318 55.183 59.4661 54.9998 59.3646 54.8306L52.5174 43.3722H66.5064C66.7056 43.3722 66.8947 43.3344 67.0779 43.2587C67.2611 43.1831 67.4223 43.0755 67.5637 42.9342C67.7031 42.7948 67.8106 42.6335 67.8862 42.4504C67.9619 42.2672 67.9997 42.078 67.9997 41.8789V11.4739C67.9997 11.2767 67.9619 11.0856 67.8862 10.9024C67.8106 10.7193 67.7031 10.558 67.5637 10.4186C67.4223 10.2792 67.2611 10.1697 67.0779 10.0941C66.8947 10.0184 66.7056 9.98058 66.5064 9.98058ZM32.374 11.4739V9.98058H53.5388V13.5585H32.374V11.4739ZM65.0191 40.3817H20.8937V12.9631H29.3914V15.0478C29.3914 15.2429 29.4293 15.432 29.5029 15.6152C29.5766 15.7964 29.6841 15.9577 29.8215 16.097C29.9589 16.2364 30.1182 16.3439 30.2994 16.4216C30.4785 16.4992 30.6677 16.5371 30.8648 16.541H55.048C55.2471 16.541 55.4363 16.5032 55.6194 16.4275C55.8006 16.3519 55.9619 16.2444 56.1013 16.105C56.2406 15.9636 56.3482 15.8044 56.4238 15.6212C56.4995 15.438 56.5373 15.2489 56.5373 15.0517V12.9671H65.0351L65.0191 40.3817Z" fill="#0B2D1F" stroke="#0B2D1F" stroke-width="1.13777"/>
<path d="M20.2608 49.7012C7.25215 49.7012 4 56.8431 4 60.4141L5.91303 62.1996H37.4781L38.4346 60.4141C37.7969 56.8431 33.2694 49.7012 20.2608 49.7012Z" fill="#22885E"/>
<ellipse cx="21.2171" cy="34.5243" rx="6.69561" ry="7.14196" fill="#22885E"/>
<mask id="path-5-outside-1_6356_46632" maskUnits="userSpaceOnUse" x="3" y="24.0869" width="36" height="41" fill="black">
<rect fill="white" x="3" y="24.0869" width="36" height="41"/>
<path d="M24.9067 48.4531H17.5279C10.0568 48.4531 4 54.5099 4 61.981C4 63.3391 5.10144 64.4406 6.45961 64.4406H35.975C37.3331 64.4406 38.4346 63.3391 38.4346 61.981C38.4346 54.5099 32.3778 48.4531 24.9067 48.4531ZM7.76551 60.7512C8.37273 55.9011 12.5164 52.1425 17.5279 52.1425H24.9067C29.9151 52.1425 34.0611 55.905 34.6683 60.7512H7.76551ZM21.2173 44.7637C26.6507 44.7637 31.0557 40.3587 31.0557 34.9253C31.0557 29.4919 26.6507 25.0869 21.2173 25.0869C15.7838 25.0869 11.3788 29.4919 11.3788 34.9253C11.3788 40.3595 15.7831 44.7637 21.2173 44.7637ZM21.2173 28.7763C24.6077 28.7763 27.3663 31.5349 27.3663 34.9253C27.3663 38.3157 24.6077 41.0743 21.2173 41.0743C17.8269 41.0743 15.0683 38.315 15.0683 34.9253C15.0683 31.5349 17.8276 28.7763 21.2173 28.7763Z"/>
</mask>
<path d="M24.9067 48.4531H17.5279C10.0568 48.4531 4 54.5099 4 61.981C4 63.3391 5.10144 64.4406 6.45961 64.4406H35.975C37.3331 64.4406 38.4346 63.3391 38.4346 61.981C38.4346 54.5099 32.3778 48.4531 24.9067 48.4531ZM7.76551 60.7512C8.37273 55.9011 12.5164 52.1425 17.5279 52.1425H24.9067C29.9151 52.1425 34.0611 55.905 34.6683 60.7512H7.76551ZM21.2173 44.7637C26.6507 44.7637 31.0557 40.3587 31.0557 34.9253C31.0557 29.4919 26.6507 25.0869 21.2173 25.0869C15.7838 25.0869 11.3788 29.4919 11.3788 34.9253C11.3788 40.3595 15.7831 44.7637 21.2173 44.7637ZM21.2173 28.7763C24.6077 28.7763 27.3663 31.5349 27.3663 34.9253C27.3663 38.3157 24.6077 41.0743 21.2173 41.0743C17.8269 41.0743 15.0683 38.315 15.0683 34.9253C15.0683 31.5349 17.8276 28.7763 21.2173 28.7763Z" fill="#0B2D1F"/>
<path d="M24.9067 48.4531H17.5279C10.0568 48.4531 4 54.5099 4 61.981C4 63.3391 5.10144 64.4406 6.45961 64.4406H35.975C37.3331 64.4406 38.4346 63.3391 38.4346 61.981C38.4346 54.5099 32.3778 48.4531 24.9067 48.4531ZM7.76551 60.7512C8.37273 55.9011 12.5164 52.1425 17.5279 52.1425H24.9067C29.9151 52.1425 34.0611 55.905 34.6683 60.7512H7.76551ZM21.2173 44.7637C26.6507 44.7637 31.0557 40.3587 31.0557 34.9253C31.0557 29.4919 26.6507 25.0869 21.2173 25.0869C15.7838 25.0869 11.3788 29.4919 11.3788 34.9253C11.3788 40.3595 15.7831 44.7637 21.2173 44.7637ZM21.2173 28.7763C24.6077 28.7763 27.3663 31.5349 27.3663 34.9253C27.3663 38.3157 24.6077 41.0743 21.2173 41.0743C17.8269 41.0743 15.0683 38.315 15.0683 34.9253C15.0683 31.5349 17.8276 28.7763 21.2173 28.7763Z" stroke="#0B2D1F" stroke-width="0.853326" mask="url(#path-5-outside-1_6356_46632)"/>
<path d="M37.9019 23.6947H56.3569C57.501 23.6947 58.2598 23.1364 58.2598 22.3034C58.2598 21.4704 57.501 20.9121 56.3569 20.9121H37.9019C36.7578 20.9121 35.999 21.4704 35.999 22.3034C35.999 22.9976 36.7578 23.6947 37.9019 23.6947Z" fill="#0B2D1F"/>
<path d="M37.9019 29.2606H56.3569C57.501 29.2606 58.2598 28.7047 58.2598 27.8679C58.2598 27.034 57.501 26.478 56.3569 26.478H37.9019C36.7578 26.478 35.999 27.034 35.999 27.8679C35.999 28.5657 36.7578 29.2606 37.9019 29.2606Z" fill="#0B2D1F"/>
<path d="M37.9019 34.8251H56.3569C57.501 34.8251 58.2598 34.2691 58.2598 33.4352C58.2598 32.6013 57.501 32.0425 56.3569 32.0425H37.9019C36.7578 32.0425 35.999 32.6013 35.999 33.4352C35.999 34.1301 36.7578 34.8251 37.9019 34.8251Z" fill="#0B2D1F"/>
<rect x="36" y="23.6665" width="26.4444" height="21.7778" fill="#22885E"/>
<path d="M39.1111 19C37.4108 19 36 20.4108 36 22.1111V43.8889C36 45.5892 37.4108 47 39.1111 47H60.8889C62.5892 47 64 45.5892 64 43.8889V22.1111C64 20.4108 62.5892 19 60.8889 19H39.1111ZM39.1111 25.2222H60.8889V43.8889H39.1111V25.2222ZM43 29.8889C42.5707 29.8889 42.2222 30.2373 42.2222 30.6667V32.2222C42.2222 32.6516 42.5707 33 43 33H44.5556C44.9849 33 45.3333 32.6516 45.3333 32.2222V30.6667C45.3333 30.2373 44.9849 29.8889 44.5556 29.8889H43ZM49.2222 29.8889C48.7929 29.8889 48.4444 30.2373 48.4444 30.6667V32.2222C48.4444 32.6516 48.7929 33 49.2222 33H57C57.4293 33 57.7778 32.6516 57.7778 32.2222V30.6667C57.7778 30.2373 57.4293 29.8889 57 29.8889H49.2222ZM43 36.1111C42.5707 36.1111 42.2222 36.4596 42.2222 36.8889V38.4444C42.2222 38.8738 42.5707 39.2222 43 39.2222H44.5556C44.9849 39.2222 45.3333 38.8738 45.3333 38.4444V36.8889C45.3333 36.4596 44.9849 36.1111 44.5556 36.1111H43ZM49.2222 36.1111C48.7929 36.1111 48.4444 36.4596 48.4444 36.8889V38.4444C48.4444 38.8738 48.7929 39.2222 49.2222 39.2222H57C57.4293 39.2222 57.7778 38.8738 57.7778 38.4444V36.8889C57.7778 36.4596 57.4293 36.1111 57 36.1111H49.2222Z" fill="#0B2D1F"/>
</svg>
