<svg width="36" height="36" viewBox="0 0 36 36" fill="none" xmlns="http://www.w3.org/2000/svg">
<g id="my-training">
<g id="Group 1171274916">
<rect id="Rectangle 34624693" x="16.7479" y="8.72058" width="8.04969" height="1.50932" rx="0.514286" fill="#FFA600"/>
<g id="Group">
<path id="Vector" d="M29.2886 8.79216H25.6779V8.25434C25.6779 8.18306 25.6642 8.11466 25.6375 8.04915C25.6109 7.98363 25.5727 7.92531 25.5223 7.87491C25.4727 7.82379 25.4151 7.78491 25.3495 7.75683C25.2847 7.72947 25.2163 7.71508 25.1451 7.71436H16.4002C16.3282 7.71436 16.2598 7.72804 16.1936 7.75539C16.1273 7.78275 16.069 7.82163 16.0186 7.87275C15.9682 7.92315 15.9293 7.98147 15.902 8.04771C15.8753 8.11394 15.8617 8.18234 15.8617 8.25434V8.79216H12.2567C12.1847 8.79216 12.1163 8.80584 12.0501 8.8332C11.9838 8.86056 11.9255 8.90016 11.8751 8.95056C11.824 9.00096 11.7851 9.05928 11.7578 9.12551C11.7304 9.19175 11.7167 9.26087 11.7167 9.33215V20.327C11.7167 20.399 11.7304 20.4674 11.7578 20.5336C11.7851 20.5998 11.824 20.6581 11.8751 20.7085C11.9255 20.7597 11.9838 20.7985 12.0501 20.8259C12.1163 20.8533 12.1847 20.8669 12.2567 20.8669H17.3153L14.8393 25.0104C14.8026 25.0716 14.7795 25.1379 14.7687 25.2084C14.7586 25.2797 14.7622 25.3495 14.7802 25.4186C14.7975 25.4878 14.8278 25.5511 14.8702 25.6087C14.9127 25.6656 14.9653 25.7124 15.0265 25.7491C15.0877 25.7858 15.1539 25.8096 15.2245 25.8197C15.295 25.8298 15.3656 25.8262 15.4347 25.8089C15.5038 25.7916 15.5672 25.7614 15.6241 25.7182C15.6817 25.6757 15.7285 25.6238 15.7652 25.5626L18.5709 20.8669H22.9743L25.7801 25.5626C25.8168 25.6238 25.8636 25.6757 25.9212 25.7189C25.9781 25.7614 26.0414 25.7916 26.1106 25.8089C26.1804 25.8269 26.2502 25.8305 26.3208 25.8197C26.3914 25.8096 26.4576 25.7866 26.5195 25.7498C26.5807 25.7131 26.6325 25.6663 26.6757 25.6087C26.7182 25.5511 26.7485 25.4878 26.7657 25.4186C26.783 25.3495 26.7866 25.2797 26.7765 25.2084C26.7665 25.1379 26.7427 25.0716 26.706 25.0104L24.23 20.8669H29.2886C29.3605 20.8669 29.4289 20.8533 29.4952 20.8259C29.5614 20.7985 29.6197 20.7597 29.6709 20.7085C29.7213 20.6581 29.7601 20.5998 29.7875 20.5336C29.8149 20.4674 29.8285 20.399 29.8285 20.327V9.33215C29.8285 9.26087 29.8149 9.19175 29.7875 9.12551C29.7601 9.05928 29.7213 9.00096 29.6709 8.95056C29.6197 8.90016 29.5614 8.86056 29.4952 8.8332C29.4289 8.80584 29.3605 8.79216 29.2886 8.79216ZM16.9459 9.33215V8.79216H24.5993V10.086H16.9459V9.33215ZM28.7507 19.7855H12.7945V9.87069H15.8674V10.6245C15.8674 10.6951 15.8811 10.7635 15.9077 10.8297C15.9344 10.8952 15.9733 10.9535 16.0229 11.0039C16.0726 11.0543 16.1302 11.0932 16.1957 11.1213C16.2605 11.1494 16.3289 11.1631 16.4002 11.1645H25.1451C25.2171 11.1645 25.2855 11.1508 25.3517 11.1235C25.4172 11.0961 25.4755 11.0572 25.5259 11.0068C25.5763 10.9557 25.6152 10.8981 25.6426 10.8319C25.6699 10.7656 25.6836 10.6972 25.6836 10.626V9.87213H28.7565L28.7507 19.7855Z" fill="#1C1C1E" stroke="#1C1C1E" stroke-width="0.411429"/>
</g>
<g id="Group 1171274791">
<path id="Vector 25" d="M12.5658 23.1554C7.86174 23.1554 6.68573 25.738 6.68573 27.0293L7.3775 27.675H18.7917L19.1376 27.0293C18.907 25.738 17.2698 23.1554 12.5658 23.1554Z" fill="#FFA600"/>
<ellipse id="Ellipse 13" cx="12.9113" cy="17.6674" rx="2.4212" ry="2.58261" fill="#FFA600"/>
<g id="Vector_2">
<mask id="path-5-outside-1_3021_55207" maskUnits="userSpaceOnUse" x="5.68573" y="13.2546" width="14" height="16" fill="black">
<rect fill="white" x="5.68573" y="13.2546" width="14" height="16"/>
<path d="M14.2458 22.7041H11.5775C8.87592 22.7041 6.68573 24.8943 6.68573 27.5959C6.68573 28.087 7.08402 28.4853 7.57515 28.4853H18.2482C18.7393 28.4853 19.1376 28.087 19.1376 27.5959C19.1376 24.8943 16.9474 22.7041 14.2458 22.7041ZM8.04737 27.1512C8.26695 25.3974 9.76534 24.0382 11.5775 24.0382H14.2458C16.0569 24.0382 17.5561 25.3988 17.7757 27.1512H8.04737ZM12.9117 21.37C14.8764 21.37 16.4693 19.7771 16.4693 17.8123C16.4693 15.8475 14.8764 14.2546 12.9117 14.2546C10.9469 14.2546 9.35399 15.8475 9.35399 17.8123C9.35399 19.7774 10.9466 21.37 12.9117 21.37ZM12.9117 15.5888C14.1377 15.5888 15.1352 16.5863 15.1352 17.8123C15.1352 19.0383 14.1377 20.0359 12.9117 20.0359C11.6857 20.0359 10.6881 19.038 10.6881 17.8123C10.6881 16.5863 11.6859 15.5888 12.9117 15.5888Z"/>
</mask>
<path d="M14.2458 22.7041H11.5775C8.87592 22.7041 6.68573 24.8943 6.68573 27.5959C6.68573 28.087 7.08402 28.4853 7.57515 28.4853H18.2482C18.7393 28.4853 19.1376 28.087 19.1376 27.5959C19.1376 24.8943 16.9474 22.7041 14.2458 22.7041ZM8.04737 27.1512C8.26695 25.3974 9.76534 24.0382 11.5775 24.0382H14.2458C16.0569 24.0382 17.5561 25.3988 17.7757 27.1512H8.04737ZM12.9117 21.37C14.8764 21.37 16.4693 19.7771 16.4693 17.8123C16.4693 15.8475 14.8764 14.2546 12.9117 14.2546C10.9469 14.2546 9.35399 15.8475 9.35399 17.8123C9.35399 19.7774 10.9466 21.37 12.9117 21.37ZM12.9117 15.5888C14.1377 15.5888 15.1352 16.5863 15.1352 17.8123C15.1352 19.0383 14.1377 20.0359 12.9117 20.0359C11.6857 20.0359 10.6881 19.038 10.6881 17.8123C10.6881 16.5863 11.6859 15.5888 12.9117 15.5888Z" fill="#1C1C1E"/>
<path d="M14.2458 22.7041H11.5775C8.87592 22.7041 6.68573 24.8943 6.68573 27.5959C6.68573 28.087 7.08402 28.4853 7.57515 28.4853H18.2482C18.7393 28.4853 19.1376 28.087 19.1376 27.5959C19.1376 24.8943 16.9474 22.7041 14.2458 22.7041ZM8.04737 27.1512C8.26695 25.3974 9.76534 24.0382 11.5775 24.0382H14.2458C16.0569 24.0382 17.5561 25.3988 17.7757 27.1512H8.04737ZM12.9117 21.37C14.8764 21.37 16.4693 19.7771 16.4693 17.8123C16.4693 15.8475 14.8764 14.2546 12.9117 14.2546C10.9469 14.2546 9.35399 15.8475 9.35399 17.8123C9.35399 19.7774 10.9466 21.37 12.9117 21.37ZM12.9117 15.5888C14.1377 15.5888 15.1352 16.5863 15.1352 17.8123C15.1352 19.0383 14.1377 20.0359 12.9117 20.0359C11.6857 20.0359 10.6881 19.038 10.6881 17.8123C10.6881 16.5863 11.6859 15.5888 12.9117 15.5888Z" stroke="#1C1C1E" stroke-width="0.308571" mask="url(#path-5-outside-1_3021_55207)"/>
</g>
</g>
<path id="Vector_3" d="M18.9452 13.7516H25.6187C26.0324 13.7516 26.3068 13.5497 26.3068 13.2485C26.3068 12.9472 26.0324 12.7454 25.6187 12.7454H18.9452C18.5315 12.7454 18.2571 12.9472 18.2571 13.2485C18.2571 13.4995 18.5315 13.7516 18.9452 13.7516Z" fill="#1C1C1E"/>
<path id="Vector_4" d="M18.9452 15.764H25.6187C26.0324 15.764 26.3068 15.563 26.3068 15.2604C26.3068 14.9588 26.0324 14.7578 25.6187 14.7578H18.9452C18.5315 14.7578 18.2571 14.9588 18.2571 15.2604C18.2571 15.5127 18.5315 15.764 18.9452 15.764Z" fill="#1C1C1E"/>
<path id="Vector_5" d="M18.9452 17.7764H25.6187C26.0324 17.7764 26.3068 17.5753 26.3068 17.2738C26.3068 16.9722 26.0324 16.7701 25.6187 16.7701H18.9452C18.5315 16.7701 18.2571 16.9722 18.2571 17.2738C18.2571 17.5251 18.5315 17.7764 18.9452 17.7764Z" fill="#1C1C1E"/>
</g>
</g>
</svg>
