<svg width="72" height="72" viewBox="0 0 72 72" fill="none" xmlns="http://www.w3.org/2000/svg">
<circle cx="19.7404" cy="13.4816" r="5.92593" fill="#22885E"/>
<rect x="35.1484" y="17.0371" width="29.6296" height="32" fill="#22885E"/>
<path d="M19 4C13.875 4 9.66667 8.20833 9.66667 13.3333C9.66667 18.4583 13.875 22.6667 19 22.6667C24.125 22.6667 28.3333 18.4583 28.3333 13.3333C28.3333 8.20833 24.125 4 19 4ZM19 9.33333C21.2396 9.33333 23 11.0937 23 13.3333C23 15.5729 21.2396 17.3333 19 17.3333C16.7604 17.3333 15 15.5729 15 13.3333C15 11.0937 16.7604 9.33333 19 9.33333ZM40.1852 12C39.5306 12 39 12.5306 39 13.1852V13.4815C39 14.136 38.4694 14.6667 37.8148 14.6667H34.8519C34.1973 14.6667 33.6667 15.1973 33.6667 15.8519V18.8148C33.6667 19.4694 34.1973 20 34.8519 20H59.1482C59.8027 20 60.3333 20.5306 60.3333 21.1852V45.4815C60.3333 46.136 59.8027 46.6667 59.1481 46.6667H32.1852C31.5306 46.6667 31 47.1973 31 47.8519V50.8148C31 51.4694 31.5306 52 32.1852 52H35.749C36.63 52 37.2031 52.9272 36.8091 53.7152L31.8576 63.6181C31.4636 64.4062 32.0366 65.3333 32.9177 65.3333H35.6008C36.0498 65.3333 36.4602 65.0797 36.6609 64.6782L40.6066 56.7868C41.0434 55.9133 42.29 55.9133 42.7267 56.7868L46.6724 64.6782C46.8732 65.0797 47.2836 65.3333 47.7325 65.3333H50.4157C51.2967 65.3333 51.8697 64.4061 51.4757 63.6181L46.5243 53.7152C46.1303 52.9272 46.7033 52 47.5843 52H64.4815C65.136 52 65.6667 51.4694 65.6667 50.8148V15.8518C65.6667 15.1973 65.136 14.6667 64.4815 14.6667H45.5185C44.864 14.6667 44.3333 14.136 44.3333 13.4815V13.1852C44.3333 12.5306 43.8027 12 43.1481 12H40.1852ZM17.6667 25.3333C11.8021 25.3333 7 30.1354 7 36V49.2675C7 49.7164 7.25363 50.1268 7.65515 50.3276L11.6782 52.3391C12.0797 52.5399 12.3333 52.9502 12.3333 53.3992V66.8148C12.3333 67.4694 12.864 68 13.5185 68H16.4815C17.136 68 17.6667 67.4694 17.6667 66.8148V50.1036C17.6667 49.6352 17.3908 49.2107 16.9628 49.0205L16.1667 48.6667L12.9885 47.0776C12.587 46.8768 12.3333 46.4664 12.3333 46.0175V36C12.3333 33.0208 14.6875 30.6667 17.6667 30.6667H22.3333C23.75 30.6667 25.0833 31.25 26.0833 32.25L31.75 37.9167L32.2453 38.3624C32.4629 38.5583 32.7453 38.6667 33.0381 38.6667H43.1481C43.8027 38.6667 44.3333 38.136 44.3333 37.4815V34.5185C44.3333 33.864 43.8027 33.3333 43.1481 33.3333H35.3183C35.0075 33.3333 34.7091 33.2112 34.4875 32.9933L29.9167 28.5C29.8958 28.4792 29.8542 28.5208 29.8333 28.5C27.8437 26.5313 25.1354 25.3333 22.3333 25.3333H17.6667ZM21.5185 49.3333C20.864 49.3333 20.3333 49.864 20.3333 50.5185V66.8148C20.3333 67.4694 20.864 68 21.5185 68H24.4815C25.136 68 25.6667 67.4694 25.6667 66.8148V50.5185C25.6667 49.864 25.136 49.3333 24.4815 49.3333H21.5185Z" fill="#0B2D1F"/>
</svg>
