<svg width="72" height="72" viewBox="0 0 72 72" fill="none" xmlns="http://www.w3.org/2000/svg">
<circle cx="19.7404" cy="13.4816" r="5.92593" fill="#2894B4"/>
<rect x="35.1484" y="17.0371" width="29.6296" height="32" fill="#2894B4"/>
<path d="M19 4C13.875 4 9.66667 8.20833 9.66667 13.3333C9.66667 18.4583 13.875 22.6667 19 22.6667C24.125 22.6667 28.3333 18.4583 28.3333 13.3333C28.3333 8.20833 24.125 4 19 4ZM19 9.33333C21.2396 9.33333 23 11.0937 23 13.3333C23 15.5729 21.2396 17.3333 19 17.3333C16.7604 17.3333 15 15.5729 15 13.3333C15 11.0937 16.7604 9.33333 19 9.33333ZM40.1852 12C39.5306 12 39 12.5306 39 13.1852V13.4815C39 14.136 38.4694 14.6667 37.8148 14.6667H34.8519C34.1973 14.6667 33.6667 15.1973 33.6667 15.8519V18.8148C33.6667 19.4694 34.1973 20 34.8519 20H59.1482C59.8027 20 60.3333 20.5306 60.3333 21.1852V45.4815C60.3333 46.136 59.8027 46.6667 59.1481 46.6667H32.1852C31.5306 46.6667 31 47.1973 31 47.8519V50.8148C31 51.4694 31.5306 52 32.1852 52H35.749C36.63 52 37.2031 52.9272 36.8091 53.7152L31.8576 63.6181C31.4636 64.4062 32.0366 65.3333 32.9177 65.3333H35.6008C36.0498 65.3333 36.4602 65.0797 36.6609 64.6782L40.6066 56.7868C41.0434 55.9133 42.29 55.9133 42.7267 56.7868L46.6724 64.6782C46.8732 65.0797 47.2836 65.3333 47.7325 65.3333H50.4157C51.2967 65.3333 51.8697 64.4061 51.4757 63.6181L46.5243 53.7152C46.1303 52.9272 46.7033 52 47.5843 52H64.4815C65.136 52 65.6667 51.4694 65.6667 50.8148V15.8518C65.6667 15.1973 65.136 14.6667 64.4815 14.6667H45.5185C44.864 14.6667 44.3333 14.136 44.3333 13.4815V13.1852C44.3333 12.5306 43.8027 12 43.1481 12H40.1852ZM17.6667 25.3333C11.8021 25.3333 7 30.1354 7 36V49.2675C7 49.7164 7.25363 50.1268 7.65515 50.3276L11.6782 52.3391C12.0797 52.5399 12.3333 52.9502 12.3333 53.3992V66.8148C12.3333 67.4694 12.864 68 13.5185 68H16.4815C17.136 68 17.6667 67.4694 17.6667 66.8148V50.1036C17.6667 49.6352 17.3908 49.2107 16.9628 49.0205L16.1667 48.6667L12.9885 47.0776C12.587 46.8768 12.3333 46.4664 12.3333 46.0175V36C12.3333 33.0208 14.6875 30.6667 17.6667 30.6667H22.3333C23.75 30.6667 25.0833 31.25 26.0833 32.25L31.75 37.9167L32.2453 38.3624C32.4629 38.5583 32.7453 38.6667 33.0381 38.6667H43.1481C43.8027 38.6667 44.3333 38.136 44.3333 37.4815V34.5185C44.3333 33.864 43.8027 33.3333 43.1481 33.3333H35.3183C35.0075 33.3333 34.7091 33.2112 34.4875 32.9933L29.9167 28.5C29.8958 28.4792 29.8542 28.5208 29.8333 28.5C27.8437 26.5313 25.1354 25.3333 22.3333 25.3333H17.6667ZM21.5185 49.3333C20.864 49.3333 20.3333 49.864 20.3333 50.5185V66.8148C20.3333 67.4694 20.864 68 21.5185 68H24.4815C25.136 68 25.6667 67.4694 25.6667 66.8148V50.5185C25.6667 49.864 25.136 49.3333 24.4815 49.3333H21.5185Z" fill="#0D313B"/>
<path fill-rule="evenodd" clip-rule="evenodd" d="M57.5684 40.1649C57.8141 39.945 58.1858 39.945 58.4315 40.1649C60.7596 42.2487 63.8325 43.515 67.2026 43.515C67.4301 43.515 67.6561 43.5092 67.8806 43.4978C68.1874 43.4823 68.4628 43.6846 68.5398 43.9819C68.8403 45.1429 69 46.3598 69 47.6131C69 54.3476 64.394 60.0046 58.1613 61.6088C58.0555 61.636 57.9445 61.636 57.8387 61.6088C51.606 60.0046 47 54.3476 47 47.6131C47 46.3598 47.1597 45.1428 47.4602 43.9818C47.5372 43.6844 47.8126 43.4821 48.1194 43.4977C48.3439 43.5091 48.5699 43.5149 48.7974 43.5149C52.1675 43.5149 55.2403 42.2486 57.5684 40.1649ZM57.9999 41.5005C55.5007 43.5667 52.2934 44.809 48.7974 44.809C48.7294 44.809 48.6615 44.8085 48.5937 44.8076C48.3976 45.7111 48.2941 46.6497 48.2941 47.6131C48.2941 53.6846 52.4072 58.797 58 60.3129C63.5928 58.797 67.7059 53.6846 67.7059 47.6131C67.7059 46.6497 67.6024 45.7112 67.4063 44.8077C67.3385 44.8086 67.2706 44.8091 67.2026 44.8091C63.7065 44.8091 60.4991 43.5668 57.9999 41.5005ZM61.9085 48.3059C62.1612 48.5586 62.1612 48.9683 61.9085 49.221L57.3072 53.8223C57.1859 53.9436 57.0213 54.0118 56.8497 54.0118C56.6781 54.0118 56.5135 53.9436 56.3921 53.8223L54.0915 51.5216C53.8388 51.2689 53.8388 50.8592 54.0915 50.6065C54.3442 50.3539 54.7539 50.3539 55.0066 50.6065L56.8497 52.4497L60.9934 48.3059C61.2461 48.0532 61.6558 48.0532 61.9085 48.3059Z" fill="#0D313B"/>
<path fill-rule="evenodd" clip-rule="evenodd" d="M48.7974 44.809C52.2934 44.809 55.5007 43.5667 57.9999 41.5005C60.4991 43.5668 63.7065 44.8091 67.2026 44.8091C67.2706 44.8091 67.3385 44.8086 67.4063 44.8077C67.6024 45.7112 67.7059 46.6497 67.7059 47.6131C67.7059 53.6846 63.5928 58.797 58 60.3129C52.4072 58.797 48.2941 53.6846 48.2941 47.6131C48.2941 46.6497 48.3976 45.7111 48.5937 44.8076C48.6615 44.8085 48.7294 44.809 48.7974 44.809ZM61.9085 48.3059C62.1612 48.5586 62.1612 48.9683 61.9085 49.221L57.3072 53.8223C57.1859 53.9436 57.0213 54.0118 56.8497 54.0118C56.6781 54.0118 56.5135 53.9436 56.3921 53.8223L54.0915 51.5216C53.8388 51.2689 53.8388 50.8592 54.0915 50.6065C54.3442 50.3539 54.7539 50.3539 55.0066 50.6065L56.8497 52.4497L60.9934 48.3059C61.2461 48.0532 61.6558 48.0532 61.9085 48.3059Z" fill="#2894B4"/>
<path d="M58.4315 40.1649L57.953 40.6995L57.953 40.6995L58.4315 40.1649ZM57.5684 40.1649L58.0468 40.6995L58.0468 40.6995L57.5684 40.1649ZM67.8806 43.4978L67.917 44.2143L67.917 44.2143L67.8806 43.4978ZM68.5398 43.9819L67.8453 44.1617L67.8453 44.1617L68.5398 43.9819ZM58.1613 61.6088L58.3401 62.3036L58.3401 62.3036L58.1613 61.6088ZM57.8387 61.6088L57.6599 62.3036L57.6599 62.3036L57.8387 61.6088ZM47.4602 43.9818L46.7657 43.802L47.4602 43.9818ZM48.1194 43.4977L48.0831 44.2142L48.0831 44.2142L48.1194 43.4977ZM57.9999 41.5005L58.457 40.9476C58.1918 40.7282 57.8081 40.7282 57.5428 40.9476L57.9999 41.5005ZM48.5937 44.8076L48.6037 44.0902C48.2624 44.0855 47.9651 44.3218 47.8927 44.6553L48.5937 44.8076ZM58 60.3129L57.8123 61.0053C57.9352 61.0386 58.0648 61.0386 58.1877 61.0053L58 60.3129ZM67.4063 44.8077L68.1073 44.6555C68.0349 44.322 67.7376 44.0857 67.3964 44.0904L67.4063 44.8077ZM61.9085 49.221L62.4158 49.7282L62.4158 49.7282L61.9085 49.221ZM61.9085 48.3059L62.4158 47.7986L62.4158 47.7986L61.9085 48.3059ZM57.3072 53.8223L57.8145 54.3296L57.8145 54.3296L57.3072 53.8223ZM56.3921 53.8223L55.8849 54.3296L55.8849 54.3296L56.3921 53.8223ZM54.0915 51.5216L53.5842 52.0289L53.5842 52.0289L54.0915 51.5216ZM55.0066 50.6065L54.4993 51.1138L54.4993 51.1138L55.0066 50.6065ZM56.8497 52.4497L56.3424 52.9569C56.4769 53.0915 56.6594 53.1671 56.8497 53.1671C57.0399 53.1671 57.2224 53.0915 57.3569 52.9569L56.8497 52.4497ZM60.9934 48.3059L61.5007 48.8132L61.5007 48.8132L60.9934 48.3059ZM58.9099 39.6304C58.3919 39.1667 57.608 39.1667 57.09 39.6304L58.0468 40.6995C58.0201 40.7234 57.9797 40.7234 57.953 40.6995L58.9099 39.6304ZM67.2026 42.7976C64.0157 42.7976 61.1116 41.601 58.9099 39.6304L57.953 40.6995C60.4076 42.8964 63.6492 44.2324 67.2026 44.2324V42.7976ZM67.8443 42.7814C67.6319 42.7921 67.4179 42.7976 67.2026 42.7976V44.2324C67.4422 44.2324 67.6804 44.2263 67.917 44.2143L67.8443 42.7814ZM69.2343 43.8022C69.072 43.1751 68.4912 42.7486 67.8443 42.7814L67.917 44.2143C67.8836 44.216 67.8537 44.194 67.8453 44.1617L69.2343 43.8022ZM69.7174 47.6131C69.7174 46.2986 69.5499 45.0213 69.2343 43.8022L67.8453 44.1617C68.1307 45.2644 68.2826 46.421 68.2826 47.6131H69.7174ZM58.3401 62.3036C64.882 60.6198 69.7174 54.6829 69.7174 47.6131H68.2826C68.2826 54.0122 63.9059 59.3895 57.9825 60.9141L58.3401 62.3036ZM57.6599 62.3036C57.883 62.361 58.117 62.361 58.3401 62.3036L57.9825 60.9141C57.994 60.9111 58.006 60.9111 58.0175 60.9141L57.6599 62.3036ZM46.2826 47.6131C46.2826 54.6829 51.118 60.6198 57.6599 62.3036L58.0175 60.9141C52.0941 59.3895 47.7174 54.0122 47.7174 47.6131H46.2826ZM46.7657 43.802C46.4501 45.0212 46.2826 46.2986 46.2826 47.6131H47.7174C47.7174 46.4209 47.8693 45.2643 48.1547 44.1616L46.7657 43.802ZM48.1557 42.7812C47.5088 42.7484 46.928 43.175 46.7657 43.802L48.1547 44.1616C48.1464 44.1939 48.1164 44.2159 48.0831 44.2142L48.1557 42.7812ZM48.7974 42.7975C48.5821 42.7975 48.3681 42.792 48.1557 42.7812L48.0831 44.2142C48.3197 44.2262 48.5578 44.2322 48.7974 44.2322V42.7975ZM57.09 39.6304C54.8883 41.6009 51.9842 42.7975 48.7974 42.7975V44.2322C52.3507 44.2322 55.5923 42.8963 58.0468 40.6995L57.09 39.6304ZM48.7974 45.5264C52.4664 45.5264 55.834 44.222 58.457 42.0534L57.5428 40.9476C55.1674 42.9115 52.1205 44.0916 48.7974 44.0916V45.5264ZM48.5838 45.5249C48.6549 45.5259 48.7261 45.5264 48.7974 45.5264V44.0916C48.7327 44.0916 48.6681 44.0911 48.6037 44.0902L48.5838 45.5249ZM49.0115 47.6131C49.0115 46.7012 49.1094 45.8136 49.2948 44.9598L47.8927 44.6553C47.6857 45.6085 47.5767 46.5982 47.5767 47.6131H49.0115ZM58.1877 59.6205C52.8997 58.1872 49.0115 53.3525 49.0115 47.6131H47.5767C47.5767 54.0166 51.9148 59.4068 57.8123 61.0053L58.1877 59.6205ZM66.9885 47.6131C66.9885 53.3525 63.1003 58.1872 57.8123 59.6205L58.1877 61.0053C64.0852 59.4068 68.4233 54.0166 68.4233 47.6131H66.9885ZM66.7052 44.9599C66.8906 45.8137 66.9885 46.7012 66.9885 47.6131H68.4233C68.4233 46.5982 68.3143 45.6086 68.1073 44.6555L66.7052 44.9599ZM67.2026 45.5265C67.2739 45.5265 67.3451 45.526 67.4162 45.525L67.3964 44.0904C67.3319 44.0913 67.2673 44.0917 67.2026 44.0917V45.5265ZM57.5428 42.0534C60.1658 44.2221 63.5335 45.5265 67.2026 45.5265V44.0917C63.8795 44.0917 60.8324 42.9116 58.457 40.9476L57.5428 42.0534ZM62.4158 49.7282C62.9486 49.1954 62.9486 48.3315 62.4158 47.7986L61.4012 48.8132C61.3738 48.7857 61.3738 48.7412 61.4012 48.7137L62.4158 49.7282ZM57.8145 54.3296L62.4158 49.7282L61.4012 48.7137L56.7999 53.315L57.8145 54.3296ZM56.8497 54.7292C57.2115 54.7292 57.5586 54.5854 57.8145 54.3296L56.7999 53.315C56.8131 53.3018 56.831 53.2944 56.8497 53.2944V54.7292ZM55.8849 54.3296C56.1407 54.5854 56.4878 54.7292 56.8497 54.7292V53.2944C56.8683 53.2944 56.8862 53.3018 56.8994 53.315L55.8849 54.3296ZM53.5842 52.0289L55.8849 54.3296L56.8994 53.315L54.5988 51.0143L53.5842 52.0289ZM53.5842 50.0993C53.0514 50.6321 53.0514 51.496 53.5842 52.0289L54.5988 51.0144C54.6262 51.0418 54.6262 51.0864 54.5988 51.1138L53.5842 50.0993ZM55.5138 50.0993C54.981 49.5664 54.1171 49.5664 53.5842 50.0993L54.5988 51.1138C54.5713 51.1413 54.5268 51.1413 54.4993 51.1138L55.5138 50.0993ZM57.3569 51.9424L55.5138 50.0993L54.4993 51.1138L56.3424 52.9569L57.3569 51.9424ZM60.4862 47.7986L56.3424 51.9424L57.3569 52.9569L61.5007 48.8132L60.4862 47.7986ZM62.4158 47.7986C61.8829 47.2658 61.019 47.2658 60.4862 47.7986L61.5007 48.8132C61.4732 48.8406 61.4287 48.8406 61.4012 48.8132L62.4158 47.7986Z" fill="#0D313B"/>
</svg>
