<svg width="72" height="72" viewBox="0 0 72 72" fill="none" xmlns="http://www.w3.org/2000/svg">
<circle cx="17.7404" cy="13.4816" r="5.92593" fill="#22885E"/>
<rect x="33.1484" y="17.0371" width="29.6296" height="32" fill="#22885E"/>
<path d="M17 4C11.875 4 7.66667 8.20833 7.66667 13.3333C7.66667 18.4583 11.875 22.6667 17 22.6667C22.125 22.6667 26.3333 18.4583 26.3333 13.3333C26.3333 8.20833 22.125 4 17 4ZM17 9.33333C19.2396 9.33333 21 11.0937 21 13.3333C21 15.5729 19.2396 17.3333 17 17.3333C14.7604 17.3333 13 15.5729 13 13.3333C13 11.0937 14.7604 9.33333 17 9.33333ZM38.1852 12C37.5306 12 37 12.5306 37 13.1852V13.4815C37 14.136 36.4694 14.6667 35.8148 14.6667H32.8519C32.1973 14.6667 31.6667 15.1973 31.6667 15.8519V18.8148C31.6667 19.4694 32.1973 20 32.8519 20H57.1482C57.8027 20 58.3333 20.5306 58.3333 21.1852V45.4815C58.3333 46.136 57.8027 46.6667 57.1481 46.6667H30.1852C29.5306 46.6667 29 47.1973 29 47.8519V50.8148C29 51.4694 29.5306 52 30.1852 52H33.749C34.63 52 35.2031 52.9272 34.8091 53.7152L29.8576 63.6181C29.4636 64.4062 30.0366 65.3333 30.9177 65.3333H33.6008C34.0498 65.3333 34.4602 65.0797 34.6609 64.6782L38.6066 56.7868C39.0434 55.9133 40.29 55.9133 40.7267 56.7868L44.6724 64.6782C44.8732 65.0797 45.2836 65.3333 45.7325 65.3333H48.4157C49.2967 65.3333 49.8697 64.4061 49.4757 63.6181L44.5243 53.7152C44.1303 52.9272 44.7033 52 45.5843 52H62.4815C63.136 52 63.6667 51.4694 63.6667 50.8148V15.8518C63.6667 15.1973 63.136 14.6667 62.4815 14.6667H43.5185C42.864 14.6667 42.3333 14.136 42.3333 13.4815V13.1852C42.3333 12.5306 41.8027 12 41.1481 12H38.1852ZM15.6667 25.3333C9.80208 25.3333 5 30.1354 5 36V49.2675C5 49.7164 5.25363 50.1268 5.65515 50.3276L9.67818 52.3391C10.0797 52.5399 10.3333 52.9502 10.3333 53.3992V66.8148C10.3333 67.4694 10.864 68 11.5185 68H14.4815C15.136 68 15.6667 67.4694 15.6667 66.8148V50.1036C15.6667 49.6352 15.3908 49.2107 14.9628 49.0205L14.1667 48.6667L10.9885 47.0776C10.587 46.8768 10.3333 46.4664 10.3333 46.0175V36C10.3333 33.0208 12.6875 30.6667 15.6667 30.6667H20.3333C21.75 30.6667 23.0833 31.25 24.0833 32.25L29.75 37.9167L30.2453 38.3624C30.4629 38.5583 30.7453 38.6667 31.0381 38.6667H41.1481C41.8027 38.6667 42.3333 38.136 42.3333 37.4815V34.5185C42.3333 33.864 41.8027 33.3333 41.1481 33.3333H33.3183C33.0075 33.3333 32.7091 33.2112 32.4875 32.9933L27.9167 28.5C27.8958 28.4792 27.8542 28.5208 27.8333 28.5C25.8437 26.5313 23.1354 25.3333 20.3333 25.3333H15.6667ZM19.5185 49.3333C18.864 49.3333 18.3333 49.864 18.3333 50.5185V66.8148C18.3333 67.4694 18.864 68 19.5185 68H22.4815C23.136 68 23.6667 67.4694 23.6667 66.8148V50.5185C23.6667 49.864 23.136 49.3333 22.4815 49.3333H19.5185Z" fill="#0B2D1F"/>
<circle cx="52.5" cy="49.5" r="9.5" fill="#22885E"/>
<path d="M48.2395 37.9106C48.5268 38.0194 48.6726 38.3415 48.5638 38.6288L47.9348 40.2915C49.3407 39.5994 50.9142 39.1924 52.5856 39.1924C58.4269 39.1924 63.1712 43.9368 63.1712 49.778C63.1712 55.6193 58.4269 60.3637 52.5856 60.3637C46.7444 60.3637 42 55.6193 42 49.778C42 47.8498 42.518 46.0413 43.419 44.4831C43.5735 44.2176 43.913 44.1261 44.1785 44.2807C44.444 44.4352 44.5376 44.779 44.3831 45.0446C43.5757 46.4374 43.1143 48.0522 43.1143 49.778C43.1143 55.0056 47.3581 59.2494 52.5856 59.2494C57.8131 59.2494 62.057 55.0056 62.057 49.778C62.057 44.5505 57.8131 40.3067 52.5856 40.3067C51.06 40.3067 49.6302 40.6832 48.3549 41.3252L50.072 41.9738C50.3592 42.0826 50.5051 42.4025 50.3962 42.692C50.2874 42.9792 49.9653 43.125 49.6781 43.0162L46.7291 41.9019C46.4419 41.7931 46.2961 41.4732 46.4049 41.1838L47.5191 38.2349C47.6018 38.0194 47.8021 37.8845 48.0197 37.8758C48.0915 37.8736 48.1677 37.8845 48.2395 37.9106ZM51.4713 46.5462V51.3385H55.3713C55.6782 51.3385 55.9284 51.5887 55.9284 51.8956C55.9284 52.2025 55.6782 52.4527 55.3713 52.4527H50.9142C50.6073 52.4527 50.3571 52.2025 50.3571 51.8956V46.5462C50.3571 46.2394 50.6073 45.9891 50.9142 45.9891C51.2211 45.9891 51.4713 46.2394 51.4713 46.5462Z" fill="#0B2D1F" stroke="#0B2D1F" stroke-width="1.04463" stroke-miterlimit="10" stroke-linejoin="round"/>
<path d="M48.0197 37.8758C47.8021 37.8845 47.6018 38.0194 47.5191 38.2349L46.4049 41.1838C46.2961 41.4732 46.4419 41.7931 46.7291 41.9019L49.6781 43.0162C49.9653 43.125 50.2874 42.9792 50.3962 42.692C50.5051 42.4025 50.3592 42.0826 50.072 41.9738L48.3549 41.3252C49.6302 40.6832 51.06 40.3067 52.5856 40.3067C57.8131 40.3067 62.057 44.5505 62.057 49.778C62.057 55.0056 57.8131 59.2494 52.5856 59.2494C47.3581 59.2494 43.1143 55.0056 43.1143 49.778C43.1143 48.0522 43.5757 46.4374 44.3831 45.0446C44.5376 44.779 44.444 44.4352 44.1785 44.2807C43.913 44.1261 43.5735 44.2176 43.419 44.4831C42.518 46.0413 42 47.8498 42 49.778C42 55.6193 46.7444 60.3637 52.5856 60.3637C58.4269 60.3637 63.1712 55.6193 63.1712 49.778C63.1712 43.9368 58.4269 39.1924 52.5856 39.1924C50.9142 39.1924 49.3407 39.5994 47.9348 40.2915L48.5638 38.6288C48.6726 38.3415 48.5268 38.0194 48.2395 37.9106C48.1677 37.8845 48.0915 37.8736 48.0197 37.8758ZM50.9142 45.9891C50.6073 45.9891 50.3571 46.2394 50.3571 46.5462V51.8956C50.3571 52.2025 50.6073 52.4527 50.9142 52.4527H55.3713C55.6782 52.4527 55.9284 52.2025 55.9284 51.8956C55.9284 51.5887 55.6782 51.3385 55.3713 51.3385H51.4713V46.5462C51.4713 46.2394 51.2211 45.9891 50.9142 45.9891Z" fill="#0B2D1F"/>
</svg>
