<svg width="72" height="72" viewBox="0 0 72 72" fill="none" xmlns="http://www.w3.org/2000/svg">
<path fill-rule="evenodd" clip-rule="evenodd" d="M5.33073 5.1643C4.75447 5.41082 4.15331 6.12562 4.05102 6.68624C4.00567 6.93416 3.98707 20.4325 4.00953 36.6825L4.0503 66.2281L4.3453 66.6145C4.50754 66.827 4.81799 67.1306 5.0353 67.2893C5.4303 67.5776 5.43932 67.5778 26.869 67.5778C48.2988 67.5778 48.3078 67.5776 48.7028 67.2893C48.9201 67.1306 49.2305 66.827 49.3928 66.6145C49.6753 66.2444 49.6878 66.0516 49.6878 62.0514C49.6878 58.0511 49.6753 57.8583 49.3928 57.4882C48.8323 56.7541 48.375 56.5249 47.4703 56.5249C46.5658 56.5249 46.1087 56.7538 45.5478 57.4878C45.2784 57.8401 45.2489 58.1037 45.2083 60.5221L45.164 63.1706H26.8603H8.55683V36.308V9.44539H26.8625H45.1681L45.2104 13.213C45.2504 16.7652 45.2697 17.0027 45.5478 17.3666C46.1086 18.1008 46.5657 18.3296 47.4703 18.3296C48.375 18.3296 48.8323 18.1005 49.3928 17.3664C49.6786 16.9921 49.6878 16.8147 49.6878 11.6839C49.6878 6.55319 49.6786 6.37578 49.3928 6.00152C49.2305 5.789 48.9201 5.4854 48.7028 5.32674C48.3084 5.03867 48.2732 5.03825 27.0374 5.00803C9.5723 4.98312 5.68896 5.0111 5.33073 5.1643ZM19.8635 17.5855C19.6668 17.6609 18.7531 18.4551 17.8329 19.3506L16.1599 20.9784L15.521 20.4024C14.4591 19.4453 13.2113 19.4261 12.2643 20.3522C11.6751 20.9285 11.4743 21.5894 11.6323 22.4324C11.7126 22.8601 12.0394 23.2589 13.4008 24.5903C15.1974 26.3472 15.5333 26.5244 16.6804 26.3206C17.1363 26.2396 17.6395 25.8119 20.0324 23.4719C23.0519 20.5188 23.1719 20.3424 22.9497 19.1835C22.7051 17.9091 21.1371 17.097 19.8635 17.5855ZM36.6134 16.3822C33.9888 17.0726 31.9638 19.2742 31.5415 21.8969L31.3874 22.8535L29.8535 22.9001C28.1967 22.9504 27.8728 23.0754 27.2356 23.9099C26.9422 24.2943 26.9406 24.3722 26.9406 38.5466C26.9406 52.7209 26.9422 52.7989 27.2356 53.1832C27.3978 53.3957 27.7083 53.6993 27.9256 53.858C28.32 54.146 28.3525 54.1465 47.4703 54.1465C66.5881 54.1465 66.6206 54.146 67.015 53.858C67.2323 53.6993 67.5428 53.3957 67.705 53.1832C67.9984 52.7989 68 52.7209 68 38.5466C68 24.3722 67.9984 24.2943 67.705 23.9099C67.0678 23.0754 66.7439 22.9504 65.0871 22.9001L63.5531 22.8535L63.3991 21.8969C62.9717 19.2427 60.9389 17.0562 58.2656 16.3752C54.4421 15.4013 50.4801 18.0069 49.8519 21.9085L49.6959 22.8767H47.4703H45.2446L45.0887 21.9085C44.4585 17.9943 40.442 15.3753 36.6134 16.3822ZM39.5679 21.012C40.0978 21.399 40.4423 21.8945 40.5478 22.422L40.639 22.8767H38.3321C35.8236 22.8767 35.8638 22.8915 36.1778 22.0813C36.3792 21.5614 36.8544 21.0678 37.3843 20.8279C37.9544 20.5697 39.0937 20.6659 39.5679 21.012ZM57.8801 21.012C58.41 21.399 58.7545 21.8945 58.8601 22.422L58.9512 22.8767H56.6443C54.1358 22.8767 54.176 22.8915 54.49 22.0813C54.6915 21.5614 55.1666 21.0678 55.6965 20.8279C56.2666 20.5697 57.406 20.6659 57.8801 21.012ZM19.8635 31.0168C19.6668 31.0922 18.7531 31.8865 17.8329 32.7819L16.1599 34.4097L15.521 33.8337C14.4591 32.8766 13.2113 32.8574 12.2643 33.7835C11.6751 34.3598 11.4743 35.0207 11.6323 35.8637C11.7126 36.2914 12.0394 36.6902 13.4008 38.0216C15.1974 39.7785 15.5333 39.9557 16.6804 39.7519C17.1363 39.6709 17.6395 39.2432 20.0324 36.9032C23.0519 33.9501 23.1719 33.7737 22.9497 32.6148C22.7051 31.3404 21.1371 30.5284 19.8635 31.0168ZM63.4935 29.5924V31.8309H47.4703H31.4471V29.5924V27.3538H47.4703H63.4935V29.5924ZM36.0252 38.5466V40.7851H33.7361H31.4471V38.5466V36.308H33.7361H36.0252V38.5466ZM45.1813 38.5466V40.7851H42.8922H40.6032V38.5466V36.308H42.8922H45.1813V38.5466ZM54.3374 38.5466V40.7851H52.0483H49.7593V38.5466V36.308H52.0483H54.3374V38.5466ZM63.4935 38.5466V40.7851H61.2045H58.9154V38.5466V36.308H61.2045H63.4935V38.5466ZM19.8635 44.4481C19.6668 44.5235 18.7531 45.3178 17.8329 46.2132L16.1599 47.841L15.521 47.265C14.4591 46.3079 13.2113 46.2887 12.2643 47.2148C11.6751 47.7911 11.4743 48.452 11.6323 49.295C11.7126 49.7227 12.0394 50.1216 13.4008 51.4529C15.1974 53.2098 15.5333 53.387 16.6804 53.1832C17.1363 53.1022 17.6395 52.6745 20.0324 50.3345C23.0519 47.3814 23.1719 47.205 22.9497 46.0461C22.7051 44.7717 21.1371 43.9597 19.8635 44.4481ZM36.0252 47.5008V49.7393H33.7361H31.4471V47.5008V45.2622H33.7361H36.0252V47.5008ZM45.1813 47.5008V49.7393H42.8922H40.6032V47.5008V45.2622H42.8922H45.1813V47.5008ZM54.3374 47.5008V49.7393H52.0483H49.7593V47.5008V45.2622H52.0483H54.3374V47.5008ZM63.4935 47.5008V49.7393H61.2045H58.9154V47.5008V45.2622H61.2045H63.4935V47.5008Z" fill="#0B2D1F"/>
<path d="M63.4935 29.5924V31.8309H47.4703H31.4471V29.5924V27.3538H47.4703H63.4935V29.5924Z" fill="#62C89E"/>
<path d="M36.0252 47.5008V49.7393H33.7361H31.4471V47.5008V45.2622H33.7361H36.0252V47.5008Z" fill="#62C89E"/>
<path d="M36.0252 38.5466V40.7851H33.7361H31.4471V38.5466V36.308H33.7361H36.0252V38.5466Z" fill="#62C89E"/>
<path d="M45.1813 38.5466V40.7851H42.8922H40.6032V38.5466V36.308H42.8922H45.1813V38.5466Z" fill="#62C89E"/>
<path d="M45.1813 47.5008V49.7393H42.8922H40.6032V47.5008V45.2622H42.8922H45.1813V47.5008Z" fill="#62C89E"/>
<path d="M54.3374 38.5466V40.7851H52.0483H49.7593V38.5466V36.308H52.0483H54.3374V38.5466Z" fill="#62C89E"/>
<path d="M54.3374 47.5008V49.7393H52.0483H49.7593V47.5008V45.2622H52.0483H54.3374V47.5008Z" fill="#62C89E"/>
<path d="M63.4935 38.5466V40.7851H61.2045H58.9154V38.5466V36.308H61.2045H63.4935V38.5466Z" fill="#62C89E"/>
<path d="M63.4935 47.5008V49.7393H61.2045H58.9154V47.5008V45.2622H61.2045H63.4935V47.5008Z" fill="#62C89E"/>
</svg>
