<svg width="72" height="72" viewBox="0 0 72 72" fill="none" xmlns="http://www.w3.org/2000/svg">
<path d="M53 36.5L65 13.5H15L26.5 35.5L53 36.5Z" fill="#22885E"/>
<path d="M24.2 55.2C20.68 55.2 17.832 58.08 17.832 61.6C17.832 65.12 20.68 68 24.2 68C27.72 68 30.6 65.12 30.6 61.6C30.6 58.08 27.72 55.2 24.2 55.2ZM56.2 55.2C52.68 55.2 49.832 58.08 49.832 61.6C49.832 65.12 52.68 68 56.2 68C59.72 68 62.6 65.12 62.6 61.6C62.6 58.08 59.72 55.2 56.2 55.2ZM62.6 48.8C62.6 47.04 61.16 45.6 59.4 45.6H24.2L27.72 39.2H51.56C53.96 39.2 56.072 37.888 57.16 35.904L67.528 16.256C67.919 15.5161 68.004 14.6522 67.7646 13.8503C67.5252 13.0484 66.9806 12.3725 66.248 11.968C65.8769 11.7648 65.4691 11.6374 65.0483 11.5935C64.6275 11.5495 64.2021 11.5897 63.797 11.7118C63.3919 11.834 63.0152 12.0355 62.6888 12.3048C62.3624 12.574 62.0929 12.9055 61.896 13.28L51.56 32.8H29.096L16.328 5.824C16.0708 5.27778 15.6634 4.81613 15.1533 4.4931C14.6433 4.17007 14.0517 3.99903 13.448 4H8.2C6.44 4 5 5.44 5 7.2C5 8.96 6.44 10.4 8.2 10.4H11.4L22.92 34.688L18.6 42.496C16.264 46.784 19.336 52 24.2 52H59.4C61.16 52 62.6 50.56 62.6 48.8ZM37.928 6.272C38.224 5.97535 38.5757 5.74 38.9628 5.57942C39.3499 5.41884 39.7649 5.33618 40.184 5.33618C40.6031 5.33618 41.0181 5.41884 41.4052 5.57942C41.7923 5.74 42.144 5.97535 42.44 6.272L50.728 14.56C51.976 15.808 51.976 17.824 50.728 19.072L42.44 27.36C42.1437 27.6563 41.792 27.8913 41.4049 28.0516C41.0179 28.2119 40.603 28.2945 40.184 28.2945C39.765 28.2945 39.3501 28.2119 38.9631 28.0516C38.576 27.8913 38.2243 27.6563 37.928 27.36C37.6317 27.0637 37.3967 26.712 37.2364 26.3249C37.0761 25.9379 36.9935 25.523 36.9935 25.104C36.9935 24.685 37.0761 24.2702 37.2364 23.8831C37.3967 23.496 37.6317 23.1443 37.928 22.848L40.744 20H30.6C28.84 20 27.4 18.56 27.4 16.8C27.4 15.04 28.84 13.6 30.6 13.6H40.744L37.928 10.784C37.6313 10.488 37.396 10.1363 37.2354 9.7492C37.0748 9.36209 36.9922 8.9471 36.9922 8.528C36.9922 8.1089 37.0748 7.69392 37.2354 7.30681C37.396 6.91969 37.6313 6.56805 37.928 6.272Z" fill="#0B2D1F"/>
</svg>
