<svg width="72" height="72" viewBox="0 0 72 72" fill="none" xmlns="http://www.w3.org/2000/svg">
<path d="M39.5 7L36 5L32.5 7.5L33 11.5L36 13.5L39.5 10.5V7Z" fill="#CDF1FB"/>
<path d="M42 18L36 16.5L28.5 19L27 22.5L29 23.5H41L44.5 22.5L42 18Z" fill="#68D4F4"/>
<path fill-rule="evenodd" clip-rule="evenodd" d="M27.0371 17.1227L20.9931 16.6633L16.2466 19.9466V23.2298H24.7904C24.257 21.475 25.4535 18.0789 26.8677 17.2632C26.9234 17.215 26.9798 17.1682 27.0371 17.1227Z" fill="#68D4F4"/>
<path fill-rule="evenodd" clip-rule="evenodd" d="M44.8576 16.6541L50.8994 16.1948L55.646 19.478V22.7613H47.1022C47.6347 21.0094 46.4431 17.6216 45.0319 16.7987C44.9747 16.7491 44.9166 16.7008 44.8576 16.6541Z" fill="#68D4F4"/>
<circle cx="23.2839" cy="9.6284" r="2.81419" fill="#CDF1FB"/>
<circle cx="48.6101" cy="9.6284" r="2.81419" fill="#CDF1FB"/>
<path d="M19.0339 9.84948C19.0339 12.341 20.9175 14.3501 23.2342 14.3501C25.562 14.3501 27.4345 12.3301 27.4345 9.83875C27.4345 7.41111 25.5613 5.44542 23.2342 5.44542C20.929 5.44542 19.023 7.44324 19.0339 9.84948ZM19.0339 9.84948H19.0589L19.0339 9.84959C19.0339 9.84955 19.0339 9.84952 19.0339 9.84948ZM31.1214 9.00157V9.00167C31.1324 11.8153 33.2791 14.1033 35.9463 14.1033C38.6135 14.1033 40.7712 11.8045 40.7712 8.98011C40.7712 6.19804 38.6239 3.975 35.9463 3.975C33.3015 3.975 31.1214 6.23031 31.1214 9.00157ZM25.7218 24.2137H25.8162L25.7342 24.167C25.1401 23.8285 24.7395 23.0546 24.8152 22.3561L24.8182 22.3284H24.7903H17.1083C17.0076 22.3284 16.9412 22.305 16.8998 22.2644C16.8585 22.224 16.8374 22.162 16.8374 22.0744C16.8374 20.8556 17.5658 19.6628 18.7303 18.7737C19.8944 17.8849 21.4917 17.3017 23.2232 17.3017C24.4469 17.3017 25.6701 17.6014 26.6084 18.1143L26.628 18.125L26.6408 18.1069C27.0116 17.5835 27.4695 17.135 28.0695 16.7504L28.1034 16.7286L28.0689 16.7079C26.6729 15.8682 24.9369 15.4164 23.2232 15.4164C18.5785 15.4164 14.8148 18.6647 14.8148 22.2461C14.8148 22.8954 15.014 23.3891 15.4157 23.7197C15.8166 24.0496 16.4151 24.2137 17.2069 24.2137H25.7218ZM43.8236 16.7079L43.7893 16.7287L43.823 16.7504C44.423 17.135 44.8808 17.5835 45.2405 18.1066L45.2533 18.1252L45.2731 18.1143C46.2115 17.6014 47.4456 17.3017 48.6583 17.3017C50.3898 17.3017 51.9899 17.8849 53.1568 18.7737C54.324 19.6628 55.0551 20.8556 55.0551 22.0744C55.0551 22.162 55.0341 22.224 54.9928 22.2644C54.9513 22.305 54.885 22.3284 54.7842 22.3284H47.0912H47.0634L47.0664 22.3561C47.1421 23.0549 46.7522 23.8286 46.1583 24.167L46.0763 24.2137H46.1707H54.6856C55.4775 24.2137 56.076 24.0496 56.4768 23.7197C56.8785 23.3891 57.0777 22.8954 57.0777 22.2461C57.0777 18.6647 53.303 15.4164 48.6583 15.4164C46.9556 15.4164 45.2086 15.8682 43.8236 16.7079ZM48.6583 14.3501C50.9641 14.3501 52.8476 12.341 52.8586 9.84959C52.8696 7.4433 50.9635 5.44542 48.6583 5.44542C46.3313 5.44542 44.4471 7.41102 44.4471 9.83875C44.4471 12.3302 46.3306 14.3501 48.6583 14.3501ZM35.9463 12.175C34.4505 12.175 33.1768 10.7939 33.1768 8.99084C33.1768 7.25285 34.439 5.90327 35.9463 5.90327C37.4646 5.90327 38.7157 7.2315 38.7157 8.98011C38.7157 10.7726 37.4527 12.175 35.9463 12.175ZM23.2342 12.4433C22.0125 12.4433 20.9688 11.2983 20.9688 9.84948C20.9688 8.46566 22.0009 7.34149 23.2342 7.34149C24.4896 7.34149 25.5105 8.44441 25.5105 9.83875C25.5105 11.2983 24.4669 12.4433 23.2342 12.4433ZM48.6583 12.4433C47.4147 12.4433 46.382 11.2984 46.382 9.83875C46.382 8.44441 47.403 7.34149 48.6583 7.34149C49.8807 7.34149 50.9237 8.46574 50.9237 9.84948C50.9237 11.2983 49.8801 12.4433 48.6583 12.4433ZM29.119 24.2137H42.7735C43.7231 24.2137 44.4304 24.0661 44.9009 23.7562C45.3734 23.4449 45.6039 22.9722 45.6039 22.3319C45.6039 20.8462 44.6587 19.1197 42.981 17.7657C41.3026 16.4111 38.8889 15.4271 35.9463 15.4271C33.0037 15.4271 30.5872 16.4111 28.9061 17.7657C27.2257 19.1197 26.2776 20.8462 26.2776 22.3319C26.2776 22.9723 26.5109 23.445 26.9862 23.7562C27.4594 24.0661 28.1694 24.2137 29.119 24.2137ZM28.7683 22.2855C28.6441 22.2855 28.5636 22.2641 28.5142 22.224C28.4662 22.1849 28.4426 22.1239 28.4426 22.0314C28.4426 21.6272 28.6094 21.1328 28.937 20.6175C29.2644 20.1026 29.7513 19.5684 30.3889 19.085C31.6639 18.1183 33.5408 17.3554 35.9463 17.3554C38.3517 17.3554 40.2286 18.1183 41.5036 19.085C42.1412 19.5684 42.6282 20.1026 42.9555 20.6175C43.2831 21.1328 43.4499 21.6272 43.4499 22.0314C43.4499 22.1239 43.4264 22.1848 43.3772 22.2238C43.3264 22.264 43.2431 22.2855 43.1132 22.2855H28.7683Z" fill="#0D313B" stroke="#0D313B" stroke-width="0.05"/>
<path d="M29.608 58.4992H51.8451C52.743 58.4992 53.5645 57.7989 53.5645 56.7959C53.5645 55.8117 52.743 55.1115 51.8451 55.1115H30.0474C29.1304 55.1115 28.5573 54.4869 28.4235 53.5217L28.137 51.5534H51.9979C54.9208 51.5534 56.4683 49.7933 56.8886 46.9166L58.3214 37.4347C58.3596 37.1887 58.3978 36.867 58.3978 36.6588C58.3978 35.5421 57.6145 34.7851 56.2963 34.7851H25.6726L25.386 32.7411C25.1377 31.0946 24.469 30.2618 22.3485 30.2618H15.7958C14.8406 30.2618 14 31.0946 14 32.0598C14 33.0439 14.8406 33.8767 15.7958 33.8767H21.7753L24.7365 53.9002C25.1568 56.758 26.6851 58.4992 29.608 58.4992ZM54.4241 38.1728L53.2206 46.5759C53.0678 47.5411 52.5519 48.1468 51.6158 48.1468L27.6403 48.1657L26.1693 38.1728H54.4241ZM31.1745 68C33.0276 68 34.5177 66.5237 34.5177 64.6879C34.5177 62.8521 33.0276 61.3759 31.1745 61.3759C29.3214 61.3759 27.8313 62.8521 27.8313 64.6879C27.8313 66.5237 29.3214 68 31.1745 68ZM48.8267 68C50.6797 68 52.1508 66.5237 52.1508 64.6879C52.1508 62.8521 50.6797 61.3759 48.8267 61.3759C46.9736 61.3759 45.4643 62.8521 45.4643 64.6879C45.4643 66.5237 46.9736 68 48.8267 68Z" fill="#0D313B"/>
</svg>
