<svg width="72" height="72" viewBox="0 0 72 72" fill="none" xmlns="http://www.w3.org/2000/svg">
<path d="M4.01602 33.1565C4.01602 24.3837 4.0333 15.6108 4.00002 6.83789C3.99426 5.24421 5.31649 4 6.90239 4C22.3761 4.01109 37.8496 4.01323 53.323 4.0064C55.0298 4.0064 56.2068 5.13541 56.2574 6.81676C56.2574 6.90573 56.2574 6.99469 56.2574 7.08365C56.2574 17.3484 56.2574 27.6132 56.2574 37.8779C56.2574 38.6083 56.2324 38.4778 55.6294 38.4797C54.098 38.4854 52.5671 38.4797 51.0357 38.4797C50.5717 38.4797 50.5711 38.4797 50.5711 38.0194C50.5711 28.6644 50.5711 19.3087 50.5711 9.95227C50.5711 9.41848 50.5711 9.41848 50.0341 9.41848H10.2035C9.67035 9.41848 9.67035 9.41848 9.67035 9.95547V56.3704C9.67035 56.4594 9.67611 56.5483 9.67035 56.6373C9.65883 56.8254 9.74459 56.9118 9.93723 56.9042C10.048 56.899 10.1587 56.9042 10.27 56.9042H36.2301C36.8137 56.9042 36.8137 56.9042 36.8137 57.4629C36.8137 58.9453 36.8137 60.4273 36.8137 61.9091C36.8137 62.3112 36.8137 62.3137 36.4182 62.3137C26.5457 62.3137 16.6734 62.3137 6.80128 62.3137C5.21408 62.3137 3.99938 60.9696 4.00386 59.5616C4.02882 50.7618 4.01602 41.9595 4.01602 33.1565Z" fill="#0B2D1F"/>
<path d="M53.5355 42.2396C57.3833 42.2396 61.231 42.2396 65.0791 42.2396C66.4302 42.2396 67.552 43.0998 67.8951 44.3754C67.9635 44.6335 67.9976 44.8994 67.9962 45.1665C67.9962 46.3025 68.0039 47.4386 67.9962 48.5746C67.9853 49.7907 67.4362 50.697 66.3156 51.2365C66.0789 51.3498 66.0699 51.5085 66.0699 51.7126C66.0699 56.1584 66.0699 60.6038 66.0699 65.049C66.0699 66.5735 65.1335 67.6802 63.6033 67.9643C63.4445 67.9906 63.2835 68.0021 63.1227 67.9989C56.7262 67.9989 50.3296 67.9989 43.9331 67.9989C42.2737 67.9989 41.0122 66.7539 41.0115 65.1232C41.0115 60.6583 41.013 56.1932 41.016 51.728C41.016 51.472 40.9463 51.3357 40.696 51.2115C39.6657 50.6995 39.1121 49.8547 39.0878 48.7212C39.0614 47.5052 39.0781 46.289 39.0825 45.073C39.0883 43.5049 40.3626 42.2402 41.9625 42.237C45.8192 42.2327 49.6769 42.2337 53.5355 42.2396ZM53.5426 51.52H45.3847C44.9634 51.52 44.9622 51.52 44.9622 51.9238C44.9622 55.8921 44.9622 59.8622 44.9622 63.8341C44.9622 64.2252 44.9622 64.2264 45.3655 64.2264H61.7095C62.1121 64.2264 62.1134 64.2264 62.1134 63.8386C62.1134 59.8705 62.1134 55.9004 62.1134 51.9283C62.1134 51.5206 62.1134 51.52 61.6987 51.52H53.5426ZM53.5496 47.7125H63.4888C63.5893 47.7125 63.6904 47.7087 63.7909 47.7125C63.9675 47.7176 64.0468 47.6408 64.043 47.4636C64.0372 47.118 64.043 46.7722 64.043 46.4266C64.043 46.0113 64.043 46.0113 63.6091 46.0113H43.457C43.4167 46.0135 43.3763 46.0135 43.336 46.0113C43.1172 45.9863 43.0244 46.0753 43.0333 46.2954C43.0468 46.6205 43.0365 46.9471 43.0365 47.2728C43.0397 47.7138 43.0397 47.7138 43.4877 47.7138L53.5496 47.7125Z" fill="#0B2D1F"/>
<path d="M30.087 22.1126C26.7839 22.1126 23.4809 22.1126 20.1781 22.1126C18.8047 22.1126 17.6552 21.2275 17.3749 19.9795C17.044 18.5029 18.043 17.0354 19.5727 16.7575C19.7802 16.7173 19.991 16.6959 20.2024 16.6935C26.8183 16.696 33.434 16.696 40.0499 16.6935C41.4188 16.6935 42.5459 17.5378 42.8576 18.7813C43.2294 20.2784 42.2035 21.783 40.6265 22.0557C40.398 22.0941 40.1668 22.1128 39.9353 22.112C36.653 22.1125 33.3703 22.1126 30.087 22.1126Z" fill="#0B2D1F"/>
<path d="M30.1199 34.8059C26.7971 34.8059 23.4739 34.8059 20.1506 34.8059C18.7965 34.8059 17.663 33.9298 17.3769 32.681C17.0332 31.1783 18.081 29.6908 19.6623 29.4431C19.8708 29.4095 20.0815 29.3917 20.2927 29.39C26.8377 29.3874 33.3832 29.3874 39.929 29.39C41.3017 29.39 42.361 30.0786 42.7821 31.2295C43.4118 32.9575 42.0692 34.7976 40.1498 34.8047C36.8065 34.8149 33.4632 34.8059 30.1199 34.8059Z" fill="#0B2D1F"/>
<path d="M25.6856 47.4943C23.7918 47.4943 21.8975 47.5136 20.0037 47.4867C18.9158 47.4713 18.0986 46.9331 17.6076 45.9897C17.1295 45.0707 17.1999 44.1457 17.7996 43.2939C18.3885 42.4549 19.2486 42.0901 20.2655 42.0882C23.8721 42.0805 27.4786 42.0805 31.0853 42.0882C32.5111 42.0933 33.5672 42.837 33.9467 44.0376C34.4695 45.6908 33.1679 47.4559 31.3995 47.4937H31.3086L25.6856 47.4943Z" fill="#0B2D1F"/>
<path d="M53.393 60.3616H48.8004C48.3882 60.3616 48.387 60.3616 48.3863 59.9273C48.3863 59.2035 48.3946 58.4792 48.3825 57.7553C48.378 57.4987 48.4676 57.4109 48.7146 57.4115C51.8477 57.4169 54.9805 57.4169 58.113 57.4115C58.369 57.4115 58.4484 57.5121 58.4452 57.76C58.4369 58.5046 58.4343 59.2497 58.4452 59.9944C58.4497 60.2758 58.3543 60.3704 58.0766 60.3683C56.5156 60.3548 54.9541 60.3616 53.393 60.3616Z" fill="#0B2D1F"/>
<rect x="42" y="45" width="23" height="3" fill="#62C89E"/>
<rect x="41" y="50" width="25" height="16" fill="#22885E"/>
<path d="M4.01602 33.1565C4.01602 24.3837 4.0333 15.6108 4.00002 6.83789C3.99426 5.24421 5.31649 4 6.90239 4C22.3761 4.01109 37.8496 4.01323 53.323 4.0064C55.0298 4.0064 56.2068 5.13541 56.2574 6.81676C56.2574 6.90573 56.2574 6.99469 56.2574 7.08365C56.2574 17.3484 56.2574 27.6132 56.2574 37.8779C56.2574 38.6083 56.2324 38.4778 55.6294 38.4797C54.098 38.4854 52.5671 38.4797 51.0357 38.4797C50.5717 38.4797 50.5711 38.4797 50.5711 38.0194C50.5711 28.6644 50.5711 19.3087 50.5711 9.95227C50.5711 9.41848 50.5711 9.41848 50.0341 9.41848H10.2035C9.67035 9.41848 9.67035 9.41848 9.67035 9.95547V56.3704C9.67035 56.4594 9.67611 56.5483 9.67035 56.6373C9.65883 56.8254 9.74459 56.9118 9.93723 56.9042C10.048 56.899 10.1587 56.9042 10.27 56.9042H36.2301C36.8137 56.9042 36.8137 56.9042 36.8137 57.4629C36.8137 58.9453 36.8137 60.4273 36.8137 61.9091C36.8137 62.3112 36.8137 62.3137 36.4182 62.3137C26.5457 62.3137 16.6734 62.3137 6.80128 62.3137C5.21408 62.3137 3.99938 60.9696 4.00386 59.5616C4.02882 50.7618 4.01602 41.9595 4.01602 33.1565Z" fill="#0B2D1F"/>
<path d="M53.5355 42.2395C57.3833 42.2395 61.231 42.2395 65.0791 42.2395C66.4302 42.2395 67.552 43.0996 67.8951 44.3753C67.9635 44.6334 67.9976 44.8993 67.9962 45.1663C67.9962 46.3023 68.0039 47.4385 67.9962 48.5745C67.9853 49.7906 67.4362 50.6968 66.3156 51.2364C66.0789 51.3496 66.0699 51.5084 66.0699 51.7125C66.0699 56.1582 66.0699 60.6036 66.0699 65.0489C66.0699 66.5733 65.1335 67.6801 63.6033 67.9642C63.4445 67.9905 63.2835 68.002 63.1227 67.9988C56.7262 67.9988 50.3296 67.9988 43.9331 67.9988C42.2737 67.9988 41.0122 66.7538 41.0115 65.1231C41.0115 60.6582 41.013 56.1931 41.016 51.7279C41.016 51.4719 40.9463 51.3356 40.696 51.2114C39.6657 50.6994 39.1121 49.8546 39.0878 48.721C39.0614 47.505 39.0781 46.2889 39.0825 45.0729C39.0883 43.5048 40.3626 42.2401 41.9625 42.2369C45.8192 42.2326 49.6769 42.2336 53.5355 42.2395ZM53.5426 51.5199H45.3847C44.9634 51.5199 44.9622 51.5199 44.9622 51.9237C44.9622 55.892 44.9622 59.862 44.9622 63.834C44.9622 64.225 44.9622 64.2263 45.3655 64.2263H61.7095C62.1121 64.2263 62.1134 64.2263 62.1134 63.8385C62.1134 59.8704 62.1134 55.9003 62.1134 51.9282C62.1134 51.5205 62.1134 51.5199 61.6987 51.5199H53.5426ZM53.5496 47.7124H63.4888C63.5893 47.7124 63.6904 47.7086 63.7909 47.7124C63.9675 47.7175 64.0468 47.6407 64.043 47.4634C64.0372 47.1178 64.043 46.7721 64.043 46.4265C64.043 46.0111 64.043 46.0111 63.6091 46.0111H43.457C43.4167 46.0134 43.3763 46.0134 43.336 46.0111C43.1172 45.9862 43.0244 46.0751 43.0333 46.2953C43.0468 46.6204 43.0365 46.947 43.0365 47.2727C43.0397 47.7137 43.0397 47.7137 43.4877 47.7137L53.5496 47.7124Z" fill="#0B2D1F"/>
<path d="M30.087 22.1126C26.7839 22.1126 23.4809 22.1126 20.1781 22.1126C18.8047 22.1126 17.6552 21.2275 17.3749 19.9795C17.044 18.5029 18.043 17.0354 19.5727 16.7575C19.7802 16.7173 19.991 16.6959 20.2024 16.6935C26.8183 16.696 33.434 16.696 40.0499 16.6935C41.4188 16.6935 42.5459 17.5378 42.8576 18.7813C43.2294 20.2784 42.2035 21.783 40.6265 22.0557C40.398 22.0941 40.1668 22.1128 39.9353 22.112C36.653 22.1125 33.3703 22.1126 30.087 22.1126Z" fill="#0B2D1F"/>
<path d="M30.1199 34.8059C26.7971 34.8059 23.4739 34.8059 20.1506 34.8059C18.7965 34.8059 17.663 33.9298 17.3769 32.681C17.0332 31.1783 18.081 29.6908 19.6623 29.4431C19.8708 29.4095 20.0815 29.3917 20.2927 29.39C26.8377 29.3874 33.3832 29.3874 39.929 29.39C41.3017 29.39 42.361 30.0786 42.7821 31.2295C43.4118 32.9575 42.0692 34.7976 40.1498 34.8047C36.8065 34.8149 33.4632 34.8059 30.1199 34.8059Z" fill="#0B2D1F"/>
<path d="M25.6851 47.4943C23.7913 47.4943 21.8971 47.5136 20.0033 47.4867C18.9153 47.4713 18.0981 46.9331 17.6071 45.9897C17.129 45.0707 17.1994 44.1457 17.7991 43.2939C18.388 42.4549 19.2481 42.0901 20.265 42.0882C23.8716 42.0805 27.4781 42.0805 31.0848 42.0882C32.5106 42.0933 33.5667 42.837 33.9462 44.0376C34.469 45.6908 33.1674 47.4559 31.399 47.4937H31.3081L25.6851 47.4943Z" fill="#0B2D1F"/>
<path d="M53.393 60.3616H48.8004C48.3882 60.3616 48.387 60.3616 48.3863 59.9273C48.3863 59.2035 48.3946 58.4792 48.3825 57.7553C48.378 57.4987 48.4676 57.4109 48.7146 57.4115C51.8477 57.4169 54.9805 57.4169 58.113 57.4115C58.369 57.4115 58.4484 57.5121 58.4452 57.76C58.4369 58.5046 58.4343 59.2497 58.4452 59.9944C58.4497 60.2758 58.3543 60.3704 58.0766 60.3683C56.5156 60.3548 54.9541 60.3616 53.393 60.3616Z" fill="#0B2D1F"/>
</svg>
