<svg width="72" height="72" viewBox="0 0 72 72" fill="none" xmlns="http://www.w3.org/2000/svg">
<path d="M26.7447 11.7576L25.3594 15.3593V16.7446H47.5239V13.974L44.7533 11.2034L40.8745 10.3723L40.0434 8.98699L39.4893 6.77054L35.8875 5.38525L33.117 6.77054L32.2858 9.5411L29.5152 10.3723L26.7447 11.7576Z" fill="#22885E"/>
<path d="M48.0786 17.5759H24.5288V15.0823L26.1911 11.2036L29.2388 9.54121L31.7323 8.9871L32.2864 6.21654L35.6111 4.5542L39.7669 6.21654L40.5981 8.71004L41.1522 9.81827L45.031 10.3724L48.3557 13.6971V17.5759H48.0786ZM25.9141 16.1906H46.6933V14.2512L44.1998 11.7577L40.5981 10.9265L39.7669 9.26416L39.2128 7.32476L36.1652 6.21654L33.9487 7.32476L33.1176 10.3724L29.7929 11.2036L27.2994 12.5888L25.9141 15.6365V16.1906Z" fill="#0B2D1F"/>
<path d="M29.515 22.5627H22.3115V29.7662H29.515V22.5627Z" fill="#22885E"/>
<path d="M29.515 36.6926H22.3115V43.8961H29.515V36.6926Z" fill="#22885E"/>
<path d="M29.515 49.4373H22.3115V56.6407H29.515V49.4373Z" fill="#22885E"/>
<path d="M26.4673 14.8052H46.1383C45.8613 13.974 45.5842 13.4199 45.0301 12.8658C44.199 12.0346 43.0907 11.4805 41.7054 11.4805H40.5972C39.766 11.4805 39.2119 10.9264 39.2119 10.0952V9.54113C39.2119 8.70996 38.9349 8.15585 38.3808 7.60173C37.8267 7.04762 37.2725 6.77056 36.4414 6.77056C35.6102 6.77056 35.0561 7.04762 34.502 7.60173C33.9479 8.15585 33.6708 8.70996 33.6708 9.54113V10.0952C33.6708 10.9264 33.1167 11.4805 32.2855 11.4805H31.1773C29.792 11.4805 28.6838 12.0346 27.8526 12.8658C27.2985 13.4199 26.7444 14.2511 26.4673 14.8052ZM47.8007 17.5758H25.0821C24.2509 17.5758 23.6968 17.0217 23.6968 16.1905C23.6968 14.2511 24.5279 12.3117 25.9132 10.9264C27.2985 9.54113 28.9608 8.70996 30.9002 8.70996C31.1773 7.60173 31.7314 6.49351 32.5626 5.66234C33.6708 4.55411 35.0561 4 36.4414 4C37.8267 4 39.2119 4.55411 40.3202 5.66234C41.1513 6.49351 41.7054 7.60173 41.9825 8.98702C43.9219 8.98702 45.8613 9.81819 46.9695 11.2035C48.3548 12.5888 49.186 14.5281 49.186 16.4675C49.186 17.0217 48.6319 17.5758 47.8007 17.5758Z" fill="#0B2D1F"/>
<path d="M57.7749 12.8658C56.9437 12.0346 56.1126 11.7576 55.0044 11.7576H46.9697C46.1385 11.7576 45.5844 12.3117 45.5844 13.1429C45.5844 13.974 46.1385 14.5281 46.9697 14.5281H55.0044C55.2814 14.5281 55.8355 14.8052 55.8355 14.8052C56.1126 15.0822 56.1126 15.3593 56.1126 15.6364V64.1212C56.1126 64.3983 55.8355 64.9524 55.8355 64.9524C55.8355 64.9524 55.2814 65.2295 55.0044 65.2295H17.8788C17.6017 65.2295 17.0476 64.9524 17.0476 64.9524C16.7706 64.6754 16.7706 64.3983 16.7706 64.1212V15.6364C16.7706 15.3593 17.0476 14.8052 17.0476 14.8052C17.3247 14.5281 17.6017 14.5281 17.8788 14.5281H25.9134C26.7446 14.5281 27.2987 13.974 27.2987 13.1429C27.2987 12.3117 26.7446 11.7576 25.9134 11.7576H17.8788C16.7706 11.7576 15.6623 12.3117 15.1082 12.8658C14.2771 13.697 14 14.5281 14 15.6364V64.1212C14 65.2295 14.5541 66.3377 15.1082 66.8918C15.9394 67.723 16.7706 68 17.8788 68H54.7273C55.8355 68 56.9437 67.4459 57.4979 66.8918C58.329 66.0606 58.6061 65.2295 58.6061 64.1212V15.6364C58.8831 14.5281 58.329 13.697 57.7749 12.8658Z" fill="#0B2D1F"/>
<path d="M21.481 22.8398V30.3203C21.481 30.5973 21.758 30.8744 22.0351 30.8744H29.5156C29.7926 30.8744 30.0697 30.5973 30.0697 30.3203V22.8398C30.0697 22.5627 29.7926 22.2856 29.5156 22.2856H22.0351C21.758 22.2856 21.481 22.5627 21.481 22.8398ZM22.8662 23.3939H28.9615V29.7662H22.8662V23.3939Z" fill="#0B2D1F"/>
<path d="M27.5762 24.7793L25.0827 26.9957L23.9745 25.8875C23.6974 25.6104 23.4204 25.6104 23.1433 25.8875C22.8663 26.1645 22.8663 26.4416 23.1433 26.7186L24.5286 28.1039C24.5286 28.1039 24.8057 28.381 25.0827 28.381C25.3598 28.381 25.3598 28.381 25.6368 28.1039L28.4074 25.3334C28.6845 25.0563 28.6845 24.7793 28.4074 24.5022C28.4074 24.5022 27.8533 24.5022 27.5762 24.7793Z" fill="#0B2D1F"/>
<path d="M30.3456 36.1386C30.3456 35.8615 30.0685 35.5845 29.7915 35.5845H22.3109C22.0339 35.5845 21.7568 35.8615 21.7568 36.1386V43.6191C21.7568 43.8962 22.0339 44.1732 22.3109 44.1732H29.7915C30.0685 44.1732 30.3456 43.8962 30.3456 43.6191V36.1386ZM28.9603 43.065H22.8651V36.9698H28.9603V43.065Z" fill="#0B2D1F"/>
<path d="M24.8057 41.6796C25.0827 41.9567 25.3598 41.9567 25.6368 41.6796L28.4074 38.9091C28.6845 38.632 28.6845 38.355 28.4074 38.0779C28.1304 37.8009 27.8533 37.8009 27.5762 38.0779L25.0827 40.5714L23.9745 39.4632C23.6974 39.1861 23.4204 39.1861 23.1433 39.4632C22.8663 39.7402 22.8663 40.0173 23.1433 40.2944L24.8057 41.6796Z" fill="#0B2D1F"/>
<path d="M29.5156 48.8831H22.0351C21.758 48.8831 21.481 49.1601 21.481 49.4372V56.9177C21.481 57.1947 21.758 57.4718 22.0351 57.4718H29.5156C29.7926 57.4718 30.0697 57.1947 30.0697 56.9177V49.4372C30.3468 49.1601 30.0697 48.8831 29.5156 48.8831ZM28.9615 56.3636H22.8662V50.2683H28.9615V56.3636Z" fill="#0B2D1F"/>
<path d="M24.806 54.9785C24.806 54.9785 25.083 55.2555 25.3601 55.2555C25.6371 55.2555 25.6371 55.2555 25.9142 54.9785L28.6848 52.2079C28.9618 51.9309 28.9618 51.6538 28.6848 51.3767C28.4077 51.0997 28.1306 51.0997 27.8536 51.3767L25.3601 53.8702L24.2519 52.762C23.9748 52.485 23.6977 52.485 23.4207 52.762C23.1436 53.0391 23.1436 53.3161 23.4207 53.5932L24.806 54.9785Z" fill="#0B2D1F"/>
<path d="M50.5719 27.8267H32.2862C31.455 27.8267 30.9009 27.2726 30.9009 26.4414C30.9009 25.6103 31.455 25.0562 32.2862 25.0562H50.5719C51.4031 25.0562 51.9572 25.6103 51.9572 26.4414C51.9572 27.2726 51.4031 27.8267 50.5719 27.8267Z" fill="#0B2D1F"/>
<path d="M50.5719 41.1255H32.2862C31.455 41.1255 30.9009 40.5714 30.9009 39.7403C30.9009 38.9091 31.455 38.355 32.2862 38.355H50.5719C51.4031 38.355 51.9572 38.9091 51.9572 39.7403C51.9572 40.5714 51.4031 41.1255 50.5719 41.1255Z" fill="#0B2D1F"/>
<path d="M50.5719 54.7012H32.2862C31.455 54.7012 30.9009 54.1471 30.9009 53.3159C30.9009 52.4848 31.455 51.9307 32.2862 51.9307H50.5719C51.4031 51.9307 51.9572 52.4848 51.9572 53.3159C51.9572 54.1471 51.4031 54.7012 50.5719 54.7012Z" fill="#0B2D1F"/>
</svg>
