<svg width="72" height="72" viewBox="0 0 72 72" fill="none" xmlns="http://www.w3.org/2000/svg">
<path d="M33.7834 4.06294C30.8926 4.33832 28.7653 4.7514 26.4377 5.48992C19.1044 7.84319 13.0226 12.5748 8.91801 19.1339L8.25477 20.1853V17.6193C8.25477 15.2034 8.22974 15.0282 7.96695 14.5525C7.64158 13.9642 6.81566 13.4885 6.11487 13.4885C5.41409 13.4885 4.6257 13.9767 4.28782 14.6151L4 15.1533V20.7361C4 26.2938 4 26.3188 4.28782 26.8195C4.66324 27.4704 5.23889 27.846 6.03979 27.9461C6.40269 27.9962 8.86796 28.0087 11.5209 27.9837L16.3388 27.9461L16.8769 27.5956C17.4526 27.2076 17.8906 26.4565 17.8906 25.8182C17.8906 25.1798 17.4526 24.4287 16.8769 24.0407C16.3513 23.6902 16.3388 23.6902 13.8611 23.6526C12.497 23.6276 11.3833 23.565 11.3833 23.5275C11.3833 23.3522 12.3969 21.5873 13.0602 20.5859C14.4993 18.4329 16.6767 16.0421 18.6414 14.4524C29.6788 5.52747 45.6592 6.35362 55.6829 16.3675C59.775 20.4607 62.428 25.5553 63.4541 31.3258C63.8296 33.4663 63.9172 37.1589 63.6419 39.362C62.1402 51.1533 53.4679 60.6165 41.8674 63.12C39.7401 63.5831 37.938 63.7208 35.2475 63.6457C30.9302 63.533 27.5139 62.6693 23.6095 60.7166C19.0919 58.4635 15.0999 54.7834 12.4345 50.4023C9.94416 46.3216 8.37991 40.9266 8.37991 36.3953C8.37991 35.2938 8.017 34.5803 7.25365 34.1798C6.18995 33.6165 4.96358 33.9795 4.40045 35.0309C4.11263 35.5692 4.10011 35.6443 4.1752 37.4593C4.76336 52.7055 16.1636 65.3481 31.4683 67.7138C33.7834 68.0643 38.1007 68.1019 40.3532 67.7764C47.4487 66.75 53.7307 63.6207 58.6863 58.6763C63.7169 53.6318 66.7954 47.3606 67.8466 39.9628C68.0593 38.4732 68.0468 33.5539 67.834 32.0143C66.42 21.75 60.676 13.1881 51.8286 8.13109C47.0608 5.4023 41.3544 3.92525 35.8482 4.00035C34.9597 4.00035 34.0212 4.0379 33.7834 4.06294Z" fill="#0B2D1F"/>
<path d="M35.3727 16.9308C34.2339 17.3314 33.9085 17.9698 33.9085 19.8474V21.2118L32.8198 21.4746C30.5297 22.0379 28.1396 23.54 26.9382 25.1672C25.8745 26.6067 25.399 27.9461 25.399 29.5734C25.399 31.6638 26.1123 33.241 27.8267 34.9684C28.8403 35.9698 29.1282 36.1826 30.4046 36.8084C31.243 37.2215 32.2567 37.622 32.8448 37.7472L33.8459 37.9851L33.8835 42.2159L33.9085 46.4343L33.5706 46.3592C32.9199 46.209 31.4558 45.4204 30.8801 44.9072C30.1793 44.3063 29.6537 43.3049 29.6537 42.604C29.6412 40.8015 27.8267 39.7375 26.325 40.6513C24.8609 41.565 25.1487 44.4565 26.9382 46.8724C28.1521 48.4997 30.5047 49.9767 32.8198 50.5525L33.9085 50.8279V52.1923C33.9085 53.7319 34.0462 54.1951 34.6468 54.7083C35.4728 55.3967 36.5865 55.4093 37.3874 54.7333C38.0131 54.2076 38.1633 53.7194 38.1633 52.2048V50.8279L39.2645 50.5525C40.7036 50.1895 42.6558 49.2257 43.707 48.3494C45.1211 47.1853 46.1597 45.5456 46.5477 43.9183C46.7854 42.8919 46.6478 41.0268 46.2599 40.0004C45.4965 38.0101 43.8196 36.2827 41.6172 35.1937C40.8413 34.8307 39.7776 34.4176 39.227 34.2924L38.2259 34.0546L38.1883 29.8237L38.1633 25.6054L38.5012 25.6805C39.1519 25.8307 40.616 26.6193 41.1917 27.1325C41.8925 27.7333 42.4181 28.7347 42.4181 29.4357C42.4306 31.2382 44.2451 32.3022 45.7468 31.3884C47.2109 30.4746 46.9231 27.5831 45.1336 25.1672C43.9197 23.54 41.5296 22.0379 39.252 21.4746L38.1633 21.2118V19.8474C38.1633 18.9837 38.1007 18.3328 37.9881 18.0824C37.7754 17.5567 37.1622 17.0435 36.5615 16.8682C35.9858 16.718 35.9608 16.718 35.3727 16.9308ZM33.9085 29.6234V33.6165L33.4455 33.4913C32.6321 33.266 31.5183 32.6401 30.8676 32.0393C29.0406 30.3244 29.3159 28.0588 31.5434 26.6318C32.1691 26.2187 33.4705 25.6429 33.7583 25.6304C33.871 25.6304 33.9085 26.5066 33.9085 29.6234ZM39.8402 39.049C42.6058 40.451 43.2315 43.1172 41.1917 44.9072C40.616 45.4204 39.1519 46.209 38.5137 46.3592L38.1633 46.4343V42.4287V38.4232L38.6388 38.5483C38.8891 38.6234 39.4272 38.8488 39.8402 39.049Z" fill="#0B2D1F"/>
</svg>
