<svg width="72" height="72" viewBox="0 0 72 72" fill="none" xmlns="http://www.w3.org/2000/svg">
<path d="M43.5 6.5H29L23.5 14H49.5L43.5 6.5Z" fill="#E60000"/>
<path d="M29.887 4.07675C27.9495 4.40174 25.9246 5.37672 24.5871 6.62668L23.6622 7.48916H19.9123C15.8249 7.48916 15.2624 7.55166 14.0874 8.13914C12.675 8.85162 11.4875 10.3891 11.15 11.964C10.95 12.9015 10.95 62.5751 11.15 63.5126C11.35 64.4376 11.925 65.5376 12.5875 66.2375C13.2374 66.925 14.5249 67.65 15.4874 67.85C16.4249 68.05 56.3488 68.05 57.2862 67.85C59.4112 67.4 61.1736 65.6251 61.6236 63.5126C61.8236 62.5626 61.8236 12.9015 61.6236 11.964C61.1736 9.85159 59.3862 8.06414 57.2862 7.62666C56.8862 7.53916 55.1363 7.48916 52.8614 7.48916H49.099L48.2615 6.68918C47.3115 5.8017 46.3615 5.18922 45.0866 4.68924C43.4491 4.02675 42.8991 3.98926 36.2868 4.00175C32.9369 4.01426 30.062 4.05175 29.887 4.07675ZM42.8741 7.92665C43.3116 8.03914 44.0241 8.30164 44.4366 8.51413C45.6865 9.17661 47.0865 10.7641 47.449 11.9515L47.524 12.239H36.3868H25.2496L25.3246 11.9515C25.5371 11.2891 26.1246 10.3766 26.8371 9.6516C27.662 8.81412 28.962 8.07664 30.0245 7.87665C30.3245 7.81415 33.1619 7.76415 36.3243 7.75165C41.0492 7.73915 42.2116 7.77665 42.8741 7.92665ZM21.4247 12.0765C21.3247 12.5515 21.2622 13.3765 21.2872 13.9515C21.3247 15.0515 21.5247 15.4139 22.2872 15.8139C22.7872 16.0764 49.9864 16.0764 50.4864 15.8139C51.2489 15.4139 51.4489 15.0515 51.4864 13.9515C51.5114 13.3765 51.4489 12.5515 51.3489 12.0765L51.1739 11.2391H53.8113C56.8362 11.2391 57.2362 11.3391 57.7362 12.2265L58.0112 12.714V37.7383V62.7626L57.7487 63.2376C57.5987 63.5001 57.2737 63.8251 57.0112 63.9751L56.5362 64.2376H36.3868H16.2374L15.7624 63.9751C15.4999 63.8251 15.1749 63.5001 15.0249 63.2376L14.7624 62.7626V37.7383V12.714L15.0374 12.2265C15.5374 11.3391 15.9249 11.2391 18.9623 11.2391H21.5997L21.4247 12.0765Z" fill="#4D0000"/>
<path d="M42.337 21.9888C41.4995 22.2513 40.8995 23.2637 41.062 24.1512C41.212 24.9387 41.962 25.6137 42.6995 25.6137C42.8745 25.6137 43.012 25.6512 43.012 25.7137C43.012 25.7637 42.0245 26.7886 40.8245 27.9886L38.6371 30.176L35.5997 27.1386C32.3123 23.8637 32.1248 23.7262 31.1748 23.9762C30.7873 24.0887 29.9873 24.8262 26.9249 27.8886C23.7 31.126 23.15 31.7385 23.075 32.1385C22.85 33.3635 23.6625 34.3634 24.8875 34.3634C25.175 34.3634 25.525 34.3009 25.675 34.2259C25.825 34.1509 27.2249 32.8135 28.7999 31.2635L31.6373 28.4261L34.6122 31.3885C36.2372 33.0135 37.6996 34.4009 37.8496 34.4759C38.1996 34.6509 39.0746 34.6509 39.4246 34.4759C39.5746 34.4009 41.0495 32.9885 42.712 31.3385L45.7244 28.3386L45.7994 28.8386C46.0869 30.576 48.4868 30.9385 49.2993 29.3636C49.4993 28.9761 49.5118 28.6011 49.4868 26.0262C49.4493 22.8388 49.4368 22.8263 48.5868 22.1888C48.2618 21.9388 48.0618 21.9263 45.4744 21.9013C43.9495 21.8888 42.537 21.9263 42.337 21.9888Z" fill="#4D0000"/>
<path d="M27.7625 40.9381C27.525 41.038 26.6625 41.7755 25.8626 42.5755L24.4001 44.0255L23.8876 43.563C23.6001 43.313 23.2376 43.0505 23.0626 42.988C21.5252 42.4005 19.9877 44.063 20.7127 45.5254C20.9877 46.0754 22.9752 48.0754 23.5376 48.3753C24.1251 48.6753 24.6501 48.6753 25.2376 48.3753C25.4876 48.2379 26.6875 47.1379 27.9 45.9004C29.6625 44.1255 30.1375 43.5755 30.25 43.1755C30.5124 42.2255 29.925 41.113 29.0375 40.8631C28.4375 40.7006 28.2875 40.7131 27.7625 40.9381Z" fill="#4D0000"/>
<path d="M34.1238 43.1506C32.9864 43.9131 33.0114 45.4131 34.1863 46.288C34.5238 46.5505 34.6488 46.5505 42.6986 46.5505C50.7484 46.5505 50.8734 46.5505 51.2109 46.288C52.3858 45.4131 52.4108 43.9131 51.2733 43.1506L50.8484 42.8631H42.6986H34.5488L34.1238 43.1506Z" fill="#4D0000"/>
<path d="M28.3247 51.5506C28.2622 51.5756 28.0372 51.6256 27.8372 51.6756C27.5997 51.7256 26.9248 52.2881 25.9373 53.2631L24.3998 54.7755L23.9373 54.363C23.4249 53.913 22.7874 53.6131 22.3624 53.6131C21.8374 53.6131 21.0749 54.088 20.7874 54.6005C20.1999 55.6505 20.4499 56.263 22.1749 57.9629C23.5498 59.3129 23.8873 59.4879 24.8623 59.3004C25.2498 59.2254 25.6873 58.8504 27.6122 56.9505C28.8747 55.7005 29.9997 54.5005 30.0997 54.3005C30.5372 53.4756 30.2247 52.2881 29.4497 51.8506C29.0497 51.6256 28.5247 51.4881 28.3247 51.5506Z" fill="#4D0000"/>
<path d="M34.3127 53.7879C33.7002 54.0629 33.3252 54.6879 33.3252 55.4503C33.3252 56.1503 33.5502 56.5753 34.1877 57.0378C34.5252 57.3003 34.6502 57.3003 42.6999 57.3003C50.7497 57.3003 50.8747 57.3003 51.2122 57.0378C51.8497 56.5753 52.0747 56.1503 52.0747 55.4503C52.0747 54.6754 51.6997 54.0504 51.0622 53.7879C50.4622 53.5379 34.8877 53.5379 34.3127 53.7879Z" fill="#4D0000"/>
</svg>
