<svg width="72" height="72" viewBox="0 0 72 72" fill="none" xmlns="http://www.w3.org/2000/svg">
<path d="M12 6L54 7L59.7358 24H7.5L12 6Z" fill="#CBEDDF"/>
<rect x="10.3779" y="51.7249" width="46.6005" height="9.54496" fill="#97DBBE"/>
<path d="M54.317 49.4121H43.3425V47.6626C43.3425 45.0338 42.0033 42.6564 39.9636 41.0335C40.6693 39.9682 41.1603 38.7139 41.1603 37.344C41.1603 33.5859 37.711 30.4603 33.4187 30.4603C29.1969 30.4603 25.6754 33.5234 25.6754 37.344C25.6754 38.7139 26.1013 39.9682 26.8721 41.0335C24.8324 42.6564 23.4932 44.9697 23.4932 47.6001V49.3496H12.5187V27.3941C12.869 27.4566 13.1523 27.4566 13.5025 27.4566C15.2641 27.4566 16.9536 26.9567 18.4301 26.082C19.8344 26.9567 21.5239 27.4566 23.2855 27.4566H23.6357C25.3252 27.4566 27.0146 27.0192 28.419 26.1445C29.8304 26.9567 31.5199 27.4566 33.2111 27.4566H33.7021C35.3915 27.4566 37.0757 27.0192 38.4871 26.1445C39.8915 26.9567 41.5105 27.4566 43.2722 27.4566H43.6224C45.3822 27.4566 47.0717 26.9567 48.4778 26.082C49.8892 26.9567 51.5716 27.4566 53.4036 27.4566C53.7538 27.4566 54.0389 27.3941 54.3891 27.3941V49.4121H54.317ZM29.9026 43.4093C30.9567 43.9107 32.1552 44.159 33.4187 44.159C34.6876 44.159 35.8843 43.9107 36.9402 43.4093C38.3446 44.348 39.3283 45.8507 39.3283 47.6001V49.3496H27.5074V47.6001C27.5074 45.9132 28.4912 44.4105 29.9026 43.4093ZM33.4187 40.6539C31.3791 40.6539 29.6879 39.1513 29.6879 37.344C29.6879 35.5259 31.3791 34.0232 33.4187 34.0232C35.4566 34.0232 37.1479 35.5259 37.1479 37.344C37.1479 39.1513 35.4566 40.6539 33.4187 40.6539ZM12.5187 59.8587V52.9172H54.317V59.8587H12.5187ZM9.35278 18.197L11.3924 13.7594C12.1685 12.1318 12.7317 10.4448 13.0819 8.69069C13.2244 8.00497 13.8527 7.56761 14.6288 7.56761H52.2069C52.983 7.56761 53.6183 8.06745 53.7538 8.69069C54.1093 10.4448 54.6725 12.1318 55.4433 13.7594L57.49 18.197C57.981 19.1983 58.0461 20.326 57.6255 21.2008C56.992 22.8299 55.3078 23.889 53.3332 23.889C52.0696 23.889 50.8008 23.3891 49.9543 22.5128C49.6041 22.1395 49.0409 21.8912 48.4778 21.8912C47.9146 21.8912 47.3515 22.1395 47.0013 22.5128C46.1583 23.3891 44.8912 23.889 43.6224 23.889H43.2722C42.0033 23.889 40.8048 23.3891 39.9636 22.5769C39.6134 22.202 39.0503 22.013 38.4871 22.013C37.8536 22.013 37.4312 22.202 37.0106 22.5769C36.1624 23.3891 34.9657 23.889 33.7021 23.889H33.2111C31.9422 23.889 30.7438 23.4516 29.9026 22.5769C29.5471 22.202 28.9839 22.0755 28.419 22.013C27.8559 22.013 27.3649 22.202 26.9443 22.5769C26.1013 23.3891 24.9046 23.889 23.6357 23.889H23.2855C21.9463 23.889 20.7531 23.3891 19.9066 22.5128C19.5564 22.1395 18.9932 21.8912 18.4301 21.8912C17.8669 21.8912 17.3038 22.1395 16.9536 22.5128C16.1053 23.3891 14.8435 23.889 13.5747 23.889C11.6054 23.889 9.91593 22.8299 9.28062 21.2008C8.86002 20.2636 8.93217 19.1983 9.35278 18.197ZM61.147 16.8225L59.1724 12.4426C58.5441 11.0665 58.0461 9.56541 57.6977 8.06745C57.2049 5.69165 54.8801 4 52.2069 4H14.6288C11.9556 4 9.63083 5.69165 9.13983 8.06745C8.86002 9.56541 8.36902 11.004 7.66332 12.4426L5.69405 16.8225C4.8458 18.6344 4.7754 20.6369 5.4811 22.3285C6.11465 23.8312 7.17056 25.0808 8.57492 25.9555V61.6082C8.57492 62.6094 9.48829 63.3623 10.5495 63.3623H56.2915C57.4178 63.3623 58.2608 62.5516 58.2608 61.6082V25.9555C59.6652 25.0808 60.7211 23.8312 61.3546 22.3285C62.0603 20.6369 61.9899 18.6984 61.147 16.8225Z" fill="#0B2D1F"/>
<circle cx="55.087" cy="56.8694" r="11.1304" fill="#22885E"/>
<path d="M55.087 45.739C52.8856 45.739 50.7336 46.3918 48.9032 47.6148C47.0729 48.8379 45.6462 50.5762 44.8038 52.61C43.9614 54.6438 43.7409 56.8818 44.1704 59.0409C44.5999 61.2 45.66 63.1833 47.2166 64.7399C48.7732 66.2965 50.7565 67.3566 52.9156 67.786C55.0746 68.2155 57.3126 67.9951 59.3464 67.1527C61.3803 66.3102 63.1186 64.8836 64.3416 63.0532C65.5647 61.2228 66.2174 59.0709 66.2174 56.8695C66.2147 53.9183 65.0412 51.0888 62.9544 49.0021C60.8676 46.9153 58.0381 45.7417 55.087 45.739ZM55.087 65.5265C53.3748 65.5265 51.7011 65.0187 50.2774 64.0675C48.8538 63.1163 47.7442 61.7642 47.089 60.1824C46.4337 58.6005 46.2623 56.8599 46.5963 55.1806C46.9304 53.5013 47.7549 51.9587 48.9656 50.748C50.1763 49.5373 51.7188 48.7128 53.3981 48.3788C55.0774 48.0448 56.818 48.2162 58.3999 48.8714C59.9818 49.5267 61.3338 50.6362 62.285 52.0599C63.2363 53.4835 63.744 55.1573 63.744 56.8695C63.7413 59.1646 62.8283 61.365 61.2054 62.9879C59.5825 64.6108 57.3821 65.5237 55.087 65.5265ZM59.6216 58.9307C59.6189 59.8045 59.2706 60.6417 58.6527 61.2596C58.0348 61.8775 57.1975 62.2258 56.3237 62.2286V62.6408C56.3237 62.9688 56.1934 63.2834 55.9615 63.5153C55.7296 63.7472 55.415 63.8775 55.087 63.8775C54.759 63.8775 54.4444 63.7472 54.2125 63.5153C53.9806 63.2834 53.8503 62.9688 53.8503 62.6408V62.2286H52.6136C52.2856 62.2286 51.971 62.0983 51.7391 61.8663C51.5071 61.6344 51.3768 61.3198 51.3768 60.9918C51.3768 60.6638 51.5071 60.3493 51.7391 60.1174C51.971 59.8854 52.2856 59.7551 52.6136 59.7551H56.3237C56.5424 59.7551 56.7521 59.6683 56.9067 59.5136C57.0613 59.359 57.1482 59.1493 57.1482 58.9307C57.1482 58.712 57.0613 58.5023 56.9067 58.3477C56.7521 58.193 56.5424 58.1062 56.3237 58.1062H53.8503C52.9756 58.1062 52.1368 57.7587 51.5183 57.1402C50.8998 56.5218 50.5524 55.6829 50.5524 54.8083C50.5524 53.9336 50.8998 53.0948 51.5183 52.4763C52.1368 51.8578 52.9756 51.5104 53.8503 51.5104V51.0981C53.8503 50.7701 53.9806 50.4556 54.2125 50.2236C54.4444 49.9917 54.759 49.8614 55.087 49.8614C55.415 49.8614 55.7296 49.9917 55.9615 50.2236C56.1934 50.4556 56.3237 50.7701 56.3237 51.0981V51.5104H57.5604C57.8884 51.5104 58.203 51.6407 58.4349 51.8726C58.6668 52.1045 58.7971 52.4191 58.7971 52.7471C58.7971 53.0751 58.6668 53.3896 58.4349 53.6216C58.203 53.8535 57.8884 53.9838 57.5604 53.9838H53.8503C53.6316 53.9838 53.4219 54.0707 53.2673 54.2253C53.1127 54.3799 53.0258 54.5896 53.0258 54.8083C53.0258 55.0269 53.1127 55.2366 53.2673 55.3913C53.4219 55.5459 53.6316 55.6327 53.8503 55.6327H56.3237C57.1975 55.6355 58.0348 55.9838 58.6527 56.6017C59.2706 57.2196 59.6189 58.0568 59.6216 58.9307Z" fill="#0B2D1F"/>
</svg>
