<svg width="72" height="72" viewBox="0 0 72 72" fill="none" xmlns="http://www.w3.org/2000/svg">
<path d="M29.3372 8.17663C17.3756 9.7326 7.6911 18.0032 4.75073 29.1702C4.1001 31.6239 4 32.4856 4 35.9926C4 39.4277 4.1001 40.3253 4.70068 42.6354C7.07801 51.8754 14.2225 59.4159 23.5316 62.4799C26.2968 63.4016 29.7001 64 32.1024 64H33.216V62.1448V60.2896H32.2901C30.9638 60.2896 28.7241 59.9904 27.0725 59.5834C19.8029 57.824 13.8346 53.2159 10.4438 46.7527C7.81623 41.7736 7.11554 35.7891 8.49189 30.3073C9.58045 25.9865 11.9453 21.9888 15.261 18.8171C20.1157 14.1731 26.3969 11.6955 33.2786 11.6955C42.9756 11.6955 51.7591 16.9738 56.0633 25.388C56.8391 26.8961 57.6774 29.1702 58.0403 30.7023C58.2154 31.4204 58.2154 31.4563 58.0153 31.3007C57.9026 31.205 57.1769 30.6065 56.4137 29.9722C55.6379 29.3378 54.9623 28.8112 54.8997 28.8112C54.7746 28.8112 52.4223 31.4204 52.4223 31.5521C52.4223 31.6598 60.7304 38.5659 60.868 38.5659C60.9932 38.5659 68 30.6424 68 30.4988C68 30.3073 65.1097 28.0452 65.0096 28.1648C64.9595 28.2247 64.3089 28.9668 63.5582 29.8046C62.8199 30.6424 62.1943 31.3247 62.1818 31.3007C62.1693 31.2768 62.0317 30.7023 61.869 30.0081C60.2174 22.4796 55.15 15.8128 48.0555 11.7793C44.7148 9.8882 40.9611 8.66736 36.9322 8.16466C35.0929 7.93725 31.1515 7.94922 29.3372 8.17663Z" fill="#0B2D1F"/>
<mask id="path-2-outside-1_5876_46209" maskUnits="userSpaceOnUse" x="16.3335" y="23" width="33" height="29" fill="black">
<rect fill="white" x="16.3335" y="23" width="33" height="29"/>
<path d="M43.5113 34.4711H22.5691V49.1307H43.5113V34.4711ZM19.4277 32.3769H46.6526V26.0942H19.4277V32.3769ZM45.6055 34.4711V50.1778C45.6055 50.4555 45.4952 50.7218 45.2988 50.9182C45.1024 51.1146 44.8361 51.2249 44.5584 51.2249H21.5219C21.2442 51.2249 20.9779 51.1146 20.7815 50.9182C20.5851 50.7218 20.4748 50.4555 20.4748 50.1778V34.4711H18.3806C18.1029 34.4711 17.8366 34.3608 17.6402 34.1644C17.4438 33.968 17.3335 33.7017 17.3335 33.424V25.0471C17.3335 24.7694 17.4438 24.5031 17.6402 24.3067C17.8366 24.1103 18.1029 24 18.3806 24H47.6997C47.9774 24 48.2438 24.1103 48.4401 24.3067C48.6365 24.5031 48.7468 24.7694 48.7468 25.0471V33.424C48.7468 33.7017 48.6365 33.968 48.4401 34.1644C48.2438 34.3608 47.9774 34.4711 47.6997 34.4711H45.6055ZM29.8988 38.6596H36.1815C36.4592 38.6596 36.7255 38.7699 36.9219 38.9662C37.1183 39.1626 37.2286 39.429 37.2286 39.7067C37.2286 39.9844 37.1183 40.2507 36.9219 40.4471C36.7255 40.6435 36.4592 40.7538 36.1815 40.7538H29.8988C29.6211 40.7538 29.3548 40.6435 29.1584 40.4471C28.962 40.2507 28.8517 39.9844 28.8517 39.7067C28.8517 39.429 28.962 39.1626 29.1584 38.9662C29.3548 38.7699 29.6211 38.6596 29.8988 38.6596Z"/>
<path d="M19.4277 32.3769H46.6526V26.0942H19.4277V32.3769Z"/>
</mask>
<path d="M43.5113 34.4711H22.5691V49.1307H43.5113V34.4711ZM19.4277 32.3769H46.6526V26.0942H19.4277V32.3769ZM45.6055 34.4711V50.1778C45.6055 50.4555 45.4952 50.7218 45.2988 50.9182C45.1024 51.1146 44.8361 51.2249 44.5584 51.2249H21.5219C21.2442 51.2249 20.9779 51.1146 20.7815 50.9182C20.5851 50.7218 20.4748 50.4555 20.4748 50.1778V34.4711H18.3806C18.1029 34.4711 17.8366 34.3608 17.6402 34.1644C17.4438 33.968 17.3335 33.7017 17.3335 33.424V25.0471C17.3335 24.7694 17.4438 24.5031 17.6402 24.3067C17.8366 24.1103 18.1029 24 18.3806 24H47.6997C47.9774 24 48.2438 24.1103 48.4401 24.3067C48.6365 24.5031 48.7468 24.7694 48.7468 25.0471V33.424C48.7468 33.7017 48.6365 33.968 48.4401 34.1644C48.2438 34.3608 47.9774 34.4711 47.6997 34.4711H45.6055ZM29.8988 38.6596H36.1815C36.4592 38.6596 36.7255 38.7699 36.9219 38.9662C37.1183 39.1626 37.2286 39.429 37.2286 39.7067C37.2286 39.9844 37.1183 40.2507 36.9219 40.4471C36.7255 40.6435 36.4592 40.7538 36.1815 40.7538H29.8988C29.6211 40.7538 29.3548 40.6435 29.1584 40.4471C28.962 40.2507 28.8517 39.9844 28.8517 39.7067C28.8517 39.429 28.962 39.1626 29.1584 38.9662C29.3548 38.7699 29.6211 38.6596 29.8988 38.6596Z" fill="#0B2D1F"/>
<path d="M19.4277 32.3769H46.6526V26.0942H19.4277V32.3769Z" fill="#22885E"/>
<path d="M19.4277 32.3769H19.2777V32.5269H19.4277V32.3769ZM46.6526 32.3769V32.5269H46.8026V32.3769H46.6526ZM46.6526 26.0942H46.8026V25.9442H46.6526V26.0942ZM19.4277 26.0942V25.9442H19.2777V26.0942H19.4277ZM19.4277 32.5269H46.6526V32.2269H19.4277V32.5269ZM46.8026 32.3769V26.0942H46.5026V32.3769H46.8026ZM46.6526 25.9442H19.4277V26.2442H46.6526V25.9442ZM19.2777 26.0942V32.3769H19.5777V26.0942H19.2777ZM43.5113 34.4711H43.8113V34.1711H43.5113V34.4711ZM22.5691 34.4711V34.1711H22.2691V34.4711H22.5691ZM22.5691 49.1307H22.2691V49.4307H22.5691V49.1307ZM43.5113 49.1307V49.4307H43.8113V49.1307H43.5113ZM45.6055 34.4711V34.1711H45.3055V34.4711H45.6055ZM20.4748 34.4711H20.7748V34.1711H20.4748V34.4711ZM17.3335 33.424H17.0335H17.3335ZM18.3806 24V23.7V24ZM47.6997 24V23.7V24ZM43.5113 34.1711H22.5691V34.7711H43.5113V34.1711ZM22.2691 34.4711V49.1307H22.8691V34.4711H22.2691ZM22.5691 49.4307H43.5113V48.8307H22.5691V49.4307ZM43.8113 49.1307V34.4711H43.2113V49.1307H43.8113ZM45.3055 34.4711V50.1778H45.9055V34.4711H45.3055ZM45.3055 50.1778C45.3055 50.3759 45.2268 50.566 45.0867 50.7061L45.5109 51.1303C45.7636 50.8777 45.9055 50.5351 45.9055 50.1778H45.3055ZM45.0867 50.7061C44.9466 50.8462 44.7565 50.9249 44.5584 50.9249V51.5249C44.9157 51.5249 45.2583 51.383 45.5109 51.1303L45.0867 50.7061ZM44.5584 50.9249H21.5219V51.5249H44.5584V50.9249ZM21.5219 50.9249C21.3238 50.9249 21.1338 50.8462 20.9937 50.7061L20.5694 51.1303C20.822 51.383 21.1647 51.5249 21.5219 51.5249V50.9249ZM20.9937 50.7061C20.8535 50.566 20.7748 50.3759 20.7748 50.1778H20.1748C20.1748 50.5351 20.3168 50.8777 20.5694 51.1303L20.9937 50.7061ZM20.7748 50.1778V34.4711H20.1748V50.1778H20.7748ZM20.4748 34.1711H18.3806V34.7711H20.4748V34.1711ZM18.3806 34.1711C18.1825 34.1711 17.9924 34.0924 17.8523 33.9523L17.4281 34.3766C17.6807 34.6292 18.0233 34.7711 18.3806 34.7711V34.1711ZM17.8523 33.9523C17.7122 33.8122 17.6335 33.6221 17.6335 33.424H17.0335C17.0335 33.7813 17.1754 34.1239 17.4281 34.3766L17.8523 33.9523ZM17.6335 33.424V25.0471H17.0335V33.424H17.6335ZM17.6335 25.0471C17.6335 24.849 17.7122 24.6589 17.8523 24.5188L17.4281 24.0946C17.1754 24.3472 17.0335 24.6898 17.0335 25.0471H17.6335ZM17.8523 24.5188C17.9924 24.3787 18.1825 24.3 18.3806 24.3V23.7C18.0233 23.7 17.6807 23.8419 17.4281 24.0946L17.8523 24.5188ZM18.3806 24.3H47.6997V23.7H18.3806V24.3ZM47.6997 24.3C47.8979 24.3 48.0879 24.3787 48.228 24.5188L48.6523 24.0946C48.3996 23.8419 48.057 23.7 47.6997 23.7V24.3ZM48.228 24.5188C48.3681 24.6589 48.4468 24.849 48.4468 25.0471H49.0468C49.0468 24.6898 48.9049 24.3472 48.6523 24.0946L48.228 24.5188ZM48.4468 25.0471V33.424H49.0468V25.0471H48.4468ZM48.4468 33.424C48.4468 33.6221 48.3681 33.8122 48.228 33.9523L48.6523 34.3766C48.9049 34.1239 49.0468 33.7813 49.0468 33.424H48.4468ZM48.228 33.9523C48.0879 34.0924 47.8979 34.1711 47.6997 34.1711V34.7711C48.057 34.7711 48.3996 34.6292 48.6523 34.3766L48.228 33.9523ZM47.6997 34.1711H45.6055V34.7711H47.6997V34.1711ZM29.8988 38.9596H36.1815V38.3596H29.8988V38.9596ZM36.1815 38.9596C36.3796 38.9596 36.5697 39.0383 36.7098 39.1784L37.134 38.7541C36.8814 38.5015 36.5388 38.3596 36.1815 38.3596V38.9596ZM36.7098 39.1784C36.8499 39.3185 36.9286 39.5085 36.9286 39.7067H37.5286C37.5286 39.3494 37.3867 39.0067 37.134 38.7541L36.7098 39.1784ZM36.9286 39.7067C36.9286 39.9048 36.8499 40.0948 36.7098 40.235L37.134 40.6592C37.3867 40.4066 37.5286 40.0639 37.5286 39.7067H36.9286ZM36.7098 40.235C36.5697 40.3751 36.3796 40.4538 36.1815 40.4538V41.0538C36.5388 41.0538 36.8814 40.9119 37.134 40.6592L36.7098 40.235ZM36.1815 40.4538H29.8988V41.0538H36.1815V40.4538ZM29.8988 40.4538C29.7007 40.4538 29.5107 40.3751 29.3705 40.235L28.9463 40.6592C29.1989 40.9119 29.5416 41.0538 29.8988 41.0538V40.4538ZM29.3705 40.235C29.2304 40.0948 29.1517 39.9048 29.1517 39.7067H28.5517C28.5517 40.0639 28.6936 40.4066 28.9463 40.6592L29.3705 40.235ZM29.1517 39.7067C29.1517 39.5085 29.2304 39.3185 29.3705 39.1784L28.9463 38.7541C28.6936 39.0067 28.5517 39.3494 28.5517 39.7067H29.1517ZM29.3705 39.1784C29.5107 39.0383 29.7007 38.9596 29.8988 38.9596V38.3596C29.5416 38.3596 29.1989 38.5015 28.9463 38.7541L29.3705 39.1784Z" fill="#0B2D1F" mask="url(#path-2-outside-1_5876_46209)"/>
</svg>
