<svg width="72" height="72" viewBox="0 0 72 72" fill="none" xmlns="http://www.w3.org/2000/svg">
<path d="M23.3032 4.16588C22.2528 4.42848 21.465 4.87866 20.6646 5.67897C19.8518 6.49179 19.3516 7.37964 19.1265 8.46757C19.0265 8.93025 18.989 12.9443 18.989 21.7228V34.3277L17.7885 34.5528C14.3497 35.1906 11.436 36.7537 8.92253 39.3047C6.88423 41.3555 5.74628 43.2062 4.87094 45.8198C3.20778 50.8217 3.94557 56.1613 6.92174 60.6381C7.25938 61.1508 8.15973 62.2012 8.92253 62.964C11.3485 65.415 13.887 66.828 17.4259 67.6784L18.5513 67.941L40.4974 67.991C56.5788 68.016 62.6437 67.991 63.1939 67.8909C64.2068 67.6909 65.5073 66.9906 66.1826 66.2653C66.8453 65.565 67.4205 64.4646 67.6206 63.5392C67.7207 63.064 67.7582 56.5865 67.7582 40.4301C67.7582 20.1222 67.7332 17.9463 67.5581 17.5837C67.283 17.0334 54.8031 4.52852 54.2278 4.2284C53.7777 4.00331 53.3525 3.99081 38.8468 4.00331C27.3548 4.01582 23.7909 4.05333 23.3032 4.16588ZM51.5018 13.2444C51.5018 18.5215 51.5143 18.7716 51.7519 19.2468C51.9144 19.5719 52.177 19.8345 52.5022 19.9971C52.9774 20.2347 53.2275 20.2472 58.5045 20.2472H64.0067V41.5056C64.0067 62.5763 64.0067 62.7764 63.7566 63.2641C63.594 63.5892 63.3314 63.8519 63.0063 64.0144C62.5186 64.2645 62.306 64.2645 47.0375 64.2645H31.5564L32.8194 62.9765C35.2704 60.5005 36.821 57.5619 37.4462 54.2106L37.6713 53.0101H47.5877C57.2916 53.0101 57.5291 53.0101 58.0043 52.76C58.5671 52.4724 59.0047 51.7596 59.0047 51.1343C59.0047 50.5091 58.5671 49.7963 58.0043 49.5087C57.5291 49.2586 57.2916 49.2586 47.5877 49.2586H37.6463L37.5713 48.6584C37.3087 46.8827 36.4709 44.4567 35.5455 42.8561C35.2454 42.3309 34.9953 41.8557 34.9953 41.8182C34.9953 41.7807 40.0598 41.7557 46.2497 41.7557C57.2916 41.7557 57.5291 41.7557 58.0043 41.5056C58.5671 41.2179 59.0047 40.5052 59.0047 39.8799C59.0047 39.2547 58.5671 38.5419 58.0043 38.2543C57.5166 38.0042 57.2916 38.0042 44.499 38.0042H31.4814L30.8311 37.529C28.7303 35.9659 25.8542 34.7779 23.3407 34.4278L22.7405 34.3527V21.7603C22.753 7.61723 22.6779 8.65514 23.6908 8.0424L24.1785 7.74228H37.8464H51.5018V13.2444ZM58.317 13.4945L61.3181 16.4957H58.2794H55.2533V13.4945C55.2533 11.8439 55.2658 10.4934 55.2908 10.4934C55.3033 10.4934 56.6663 11.8439 58.317 13.4945ZM23.8659 38.3543C26.3419 39.0046 28.4302 40.18 30.1309 41.8682C31.819 43.5564 32.957 45.5822 33.6573 48.1332C33.8573 48.9085 33.9074 49.4337 33.9074 51.1343C33.9074 53.3852 33.7823 54.073 33.007 56.0738C31.8315 59.1125 28.8429 62.1012 25.8042 63.2766C23.8034 64.0519 23.1156 64.177 20.8647 64.177C18.6138 64.177 17.9261 64.0519 15.9253 63.2766C12.8866 62.1012 9.89791 59.1125 8.72245 56.0738C7.95965 54.098 7.8221 53.3727 7.80959 51.1969C7.79709 48.9585 8.00967 47.8581 8.79748 45.9948C10.5107 41.9307 14.5247 38.817 18.9265 38.1292C20.1019 37.9542 22.778 38.0792 23.8659 38.3543Z" fill="#0D313B"/>
<path d="M23.8659 38.3543C26.3419 39.0046 28.4302 40.18 30.1309 41.8682C31.819 43.5564 32.957 45.5822 33.6573 48.1332C33.8573 48.9085 33.9074 49.4337 33.9074 51.1343C33.9074 53.3852 33.7823 54.073 33.007 56.0738C31.8315 59.1125 28.8429 62.1012 25.8042 63.2766C23.8034 64.0519 23.1156 64.177 20.8647 64.177C18.6138 64.177 17.9261 64.0519 15.9253 63.2766C12.8866 62.1012 9.89791 59.1125 8.72245 56.0738C7.95965 54.098 7.8221 53.3727 7.80959 51.1969C7.79709 48.9585 8.00967 47.8581 8.79748 45.9948C10.5107 41.9307 14.5247 38.817 18.9265 38.1292C20.1019 37.9542 22.778 38.0792 23.8659 38.3543Z" fill="#2894B4"/>
<path d="M58.317 13.4945L61.3181 16.4957H58.2794H55.2533V13.4945C55.2533 11.8439 55.2658 10.4934 55.2908 10.4934C55.3033 10.4934 56.6663 11.8439 58.317 13.4945Z" fill="#68D4F4"/>
<path d="M28.7176 27.0123C28.1799 27.2875 27.7422 28.0252 27.7422 28.6255C27.7422 29.2507 28.1799 29.9635 28.7426 30.2511C29.2303 30.5012 29.4429 30.5012 43.3733 30.5012C57.3038 30.5012 57.5164 30.5012 58.0041 30.2511C58.5668 29.9635 59.0045 29.2507 59.0045 28.6255C59.0045 28.0002 58.5668 27.2875 58.0041 26.9998C57.5164 26.7497 57.3038 26.7497 43.3483 26.7497C29.4929 26.7623 29.1677 26.7623 28.7176 27.0123Z" fill="#0D313B"/>
<path d="M19.9643 40.7677C19.389 41.0678 18.9889 41.7931 18.9889 42.5309C18.9889 43.0686 18.9764 43.0811 18.3887 43.2937C17.5508 43.5813 16.7005 44.3691 16.2753 45.2319C15.9377 45.9197 15.9252 45.9947 15.9252 48.008C15.9252 50.409 16.0502 50.8216 17.0506 51.822C17.951 52.7224 18.5137 52.9225 20.427 53.01L22.0526 53.0725V54.2605V55.4484H20.8771H19.7017L19.5391 54.8982C19.1014 53.3851 17.3758 52.935 16.3754 54.0729C15.7626 54.7732 15.7126 55.7861 16.2378 56.974C16.5754 57.7493 17.5758 58.6997 18.3511 58.9623C18.9889 59.1999 18.9889 59.1999 18.9889 59.7376C18.9889 60.8381 19.8517 61.7634 20.8646 61.7634C21.8775 61.7634 22.7404 60.8381 22.7404 59.7376C22.7404 59.1999 22.7529 59.1999 23.3656 58.9748C24.1409 58.6997 25.1538 57.7368 25.529 56.924C25.9041 56.0987 25.9916 53.1475 25.6915 52.0846C25.4039 51.1217 24.6161 50.1714 23.6782 49.6962C23.003 49.346 22.8154 49.321 21.3148 49.2585L19.6767 49.196V48.008V46.8201H20.8521H22.0276L22.1901 47.3703C22.6278 48.8834 24.3535 49.3335 25.3539 48.1956C25.9666 47.4953 26.0167 46.4824 25.4914 45.2945C25.1538 44.5317 24.1159 43.5563 23.3656 43.2937C22.7529 43.0686 22.7404 43.0686 22.7404 42.5309C22.7404 41.0053 21.2773 40.0674 19.9643 40.7677Z" fill="#0D313B"/>
</svg>
