<svg width="12" height="12" viewBox="0 0 12 12" fill="none" xmlns="http://www.w3.org/2000/svg">
<g id="gala:clock" clip-path="url(#clip0_96_20)">
<g id="galaClock0">
<path id="galaClock1" d="M3.75187 9.89392L3.00269 11.2457" stroke="white" stroke-width="0.75" stroke-linecap="round" stroke-linejoin="round"/>
<path id="galaClock2" d="M8.24817 9.89392L8.99735 11.2457" stroke="white" stroke-width="0.75" stroke-linecap="round" stroke-linejoin="round"/>
<path id="galaClock3" d="M6.00004 10.4964C8.48313 10.4964 10.4961 8.48343 10.4961 6.00035C10.4961 3.51727 8.48313 1.50433 6.00004 1.50433C3.51696 1.50433 1.50403 3.51727 1.50403 6.00035C1.50403 8.48343 3.51696 10.4964 6.00004 10.4964Z" stroke="white" stroke-width="0.75" stroke-linecap="round" stroke-linejoin="round"/>
<path id="galaClock4" d="M1.65445 4.80181C1.30928 4.54311 1.04584 4.19055 0.895551 3.78622C0.745263 3.38189 0.714479 2.94285 0.806872 2.5215C0.899265 2.10016 1.11093 1.71429 1.41662 1.40994C1.72231 1.10559 2.1091 0.895623 2.53085 0.805082C2.9526 0.714542 3.3915 0.747255 3.79517 0.899318C4.19883 1.05138 4.55023 1.31637 4.80742 1.66267" stroke="white" stroke-width="0.75" stroke-linecap="round" stroke-linejoin="round"/>
<path id="galaClock5" d="M6 1.50434L6.00002 0.755005" stroke="white" stroke-width="0.75" stroke-linecap="round" stroke-linejoin="round"/>
<path id="galaClock6" d="M6 3.75232V6.00032" stroke="white" stroke-width="0.75" stroke-linecap="round" stroke-linejoin="round"/>
<path id="galaClock7" d="M6 6.00031L7.58958 7.58988" stroke="white" stroke-width="0.75" stroke-linecap="round" stroke-linejoin="round"/>
<path id="galaClock8" d="M10.3456 4.80181C10.6908 4.54311 10.9542 4.19055 11.1045 3.78622C11.2548 3.38189 11.2856 2.94285 11.1932 2.5215C11.1008 2.10016 10.8891 1.71429 10.5834 1.40994C10.2777 1.10559 9.89094 0.895623 9.46919 0.805082C9.04744 0.714542 8.60855 0.747255 8.20488 0.899318C7.80121 1.05138 7.44982 1.31637 7.19263 1.66267" stroke="white" stroke-width="0.75" stroke-linecap="round" stroke-linejoin="round"/>
</g>
</g>
<defs>
<clipPath id="clip0_96_20">
<rect width="12" height="12" fill="white"/>
</clipPath>
</defs>
</svg>
