<svg width="72" height="72" viewBox="0 0 72 72" fill="none" xmlns="http://www.w3.org/2000/svg">
<g id="cost-sheet">
<path id="Vector 766" d="M41.5 32H19V55L40 55.5L38.5 50L38 45.5L41.5 39V32Z" fill="#62C89E"/>
<g id="Group 1171275157">
<path id="Subtract" fill-rule="evenodd" clip-rule="evenodd" d="M38 7H8V65L51.5 65.5L51.5812 61.929C46.9997 61.4679 43.0699 58.7978 40.8729 55H19V32H42L41.8358 39.5511C44.2445 36.3733 47.9789 34.2556 52.2154 34.0216L52.5 21.5L38 7Z" fill="#22885E"/>
<path id="Subtract_2" fill-rule="evenodd" clip-rule="evenodd" d="M17.427 31.331C17.552 31.1435 17.8271 30.8684 18.0146 30.7434C18.3647 30.5184 18.8273 30.5059 30.3174 30.5059C41.8075 30.5059 42.2701 30.5184 42.6202 30.7434C42.8077 30.8684 43.0828 31.1435 43.2078 31.331C43.3858 31.6079 43.4308 31.9551 43.4419 37.77C41.7412 39.3596 40.4372 41.3684 39.6945 43.6316V41.7584H35.9437H32.1928V43.6338V45.5092H35.9437H39.2204C39.0753 46.3176 38.9995 47.15 38.9995 48.0001C38.9995 48.4247 39.0184 48.845 39.0554 49.2601H35.9437H32.1928V51.1355V53.0109H35.9437H39.6945V52.3685C40.2119 53.9452 41.0017 55.3984 42.0083 56.6724C41.0512 56.7555 38.4391 56.7618 30.3174 56.7618C18.8273 56.7618 18.3647 56.7493 18.0146 56.5242C17.8271 56.3992 17.552 56.1241 17.427 55.9366C17.202 55.5865 17.1895 55.1239 17.1895 43.6338C17.1895 32.1437 17.202 31.6811 17.427 31.331ZM28.442 38.0076V36.1321V34.2567H24.6911H20.9403V36.1321V38.0076H24.6911H28.442ZM39.6945 38.0076V36.1321V34.2567H35.9437H32.1928V36.1321V38.0076H35.9437H39.6945ZM28.442 45.5092V43.6338V41.7584H24.6911H20.9403V43.6338V45.5092H24.6911H28.442ZM28.442 53.0109V51.1355V49.2601H24.6911H20.9403V51.1355V53.0109H24.6911H28.442Z" fill="#0B2D1F"/>
<path id="Subtract_3" fill-rule="evenodd" clip-rule="evenodd" d="M6.40009 7.23823C7.11275 5.7879 8.2255 4.78768 9.70083 4.25006C10.3496 4.01299 10.8739 4.01251 24.3707 4.00008L24.4542 4H38.5323L39.0199 4.36258C39.9326 5.03773 54.5484 19.8036 54.636 20.1286C54.6645 20.262 54.6786 26.0562 54.6782 34.0995C54.1279 34.0338 53.5679 34 53 34C52.2979 34 51.6078 34.0517 50.9334 34.1515L50.9476 22.7542H45.7215C40.8078 22.7542 40.4453 22.7417 39.7576 22.5042C38.2323 21.9791 37.132 20.9913 36.4069 19.516L36.0068 18.6908L35.9693 13.2146L35.9317 7.75085L23.779 7.76335C17.09 7.77586 11.4637 7.81336 11.2512 7.86337C10.6886 8.0009 10.326 8.26346 10.0259 8.75107L9.75085 9.18867V36.0072V62.8258L10.0259 63.2634C10.1759 63.5009 10.4885 63.8135 10.7136 63.951C11.1262 64.2011 11.3512 64.2011 30.318 64.2011C49.2848 64.2011 49.5098 64.2011 49.9224 63.951C50.1475 63.8135 50.46 63.5009 50.6101 63.2634L50.8851 62.8258L50.887 61.8416C51.5761 61.9459 52.2817 62 53 62C53.5546 62 54.1017 61.9678 54.6395 61.905L54.636 63.951L54.2109 64.8262C53.6482 65.9765 52.6605 66.9642 51.5103 67.5268L50.6351 67.9519L30.568 67.9894C10.8261 68.0144 10.4885 68.0144 9.76335 67.7644C8.25051 67.2518 7.12525 66.264 6.40009 64.7762L6 63.951V36.0072V8.06342L6.40009 7.23823ZM44.0086 18.9784C45.5964 19.0034 47.1468 19.0034 47.4844 18.9784L48.072 18.9409L43.8835 14.7524L39.6826 10.564L39.7201 14.0648C39.7576 17.4155 39.7701 17.5906 40.0327 18.0032C40.5828 18.8909 40.7828 18.9409 44.0086 18.9784Z" fill="#0B2D1F"/>
<g id="Group 1171275151">
<g id="Vector">
<path d="M51.5453 36.1931C49.0205 36.7546 47.1128 37.8213 45.2893 39.7162C43.7744 41.2882 42.9047 42.8462 42.3156 45.0358C41.8948 46.6219 41.8948 49.3449 42.3156 50.931C42.9188 53.1346 43.9006 54.8891 45.4717 56.4752C50.1286 61.1773 57.8574 61.1773 62.5283 56.4612C64.0994 54.8891 65.0812 53.1346 65.6844 50.931C66.1052 49.3449 66.1052 46.6219 65.6844 45.0358C65.0672 42.7339 64.0713 41.0215 62.3881 39.4074C60.6347 37.709 58.713 36.6563 56.4968 36.2072C55.1923 35.9405 52.7236 35.9265 51.5453 36.1931ZM56.3004 38.7898C59.6248 39.632 62.3179 42.3269 63.2016 45.6675C63.5243 46.8746 63.5243 49.0922 63.2157 50.2853C62.0935 54.5102 58.3063 57.4577 54 57.4577C49.6937 57.4577 45.9205 54.5102 44.7843 50.2853C44.4757 49.0922 44.4757 46.8746 44.7984 45.6675C46.1309 40.6145 51.3209 37.5125 56.3004 38.7898Z" fill="#0B2D1F"/>
<path d="M56.3004 38.7898C59.6248 39.632 62.3179 42.3269 63.2016 45.6675C63.5243 46.8746 63.5243 49.0922 63.2157 50.2853C62.0935 54.5102 58.3063 57.4577 54 57.4577C49.6937 57.4577 45.9205 54.5102 44.7843 50.2853C44.4757 49.0922 44.4757 46.8746 44.7984 45.6675C46.1309 40.6145 51.3209 37.5125 56.3004 38.7898Z" fill="#22885E"/>
</g>
<path id="Vector_2" d="M53.1444 40.4599C52.8078 40.7968 52.7376 40.9933 52.7376 41.5126C52.7376 42.074 52.6956 42.1863 52.401 42.2986C51.868 42.4951 51.0684 43.2811 50.7458 43.8847C50.3951 44.5865 50.2689 45.8217 50.4793 46.6077C50.6897 47.3937 51.4191 48.3341 52.1345 48.7271C52.4571 48.9096 53.1164 49.1061 53.6073 49.1903C54.5892 49.3447 55.1222 49.7658 55.1222 50.3693C55.1222 50.8887 54.5752 51.4361 54.0281 51.4501C53.6494 51.4642 53.453 51.3378 52.8919 50.7483C52.1485 49.9342 51.8259 49.85 51.0965 50.2992C50.4933 50.6641 50.3671 51.3238 50.7598 52.0817C51.0544 52.6712 51.8399 53.4432 52.401 53.6959C52.6815 53.8222 52.7376 53.9626 52.7376 54.4679C52.7376 55.2539 53.3127 55.9136 54 55.9136C54.7014 55.9136 55.2625 55.2539 55.2625 54.4538C55.2625 53.9064 55.3186 53.7801 55.5851 53.6818C55.7674 53.6117 56.1181 53.3871 56.3566 53.1765C57.8574 51.9133 58.0538 49.5412 56.7774 47.9972C56.3005 47.4077 55.1362 46.7902 54.519 46.7902C54.3086 46.7902 53.9159 46.7059 53.6494 46.5936C52.8358 46.2568 52.6535 45.5269 53.2005 44.8812C53.6634 44.3479 54.3507 44.376 54.8697 44.9514C55.3326 45.4708 55.6973 45.6673 56.1742 45.6673C56.6652 45.6673 57.3665 44.9655 57.3665 44.4742C57.3665 43.7584 56.6652 42.8601 55.7254 42.3828C55.3045 42.1723 55.2625 42.0881 55.2625 41.5126C55.2625 40.7125 54.7014 40.0529 54 40.0529C53.6915 40.0529 53.4249 40.1792 53.1444 40.4599Z" fill="#0B2D1F"/>
</g>
</g>
</g>
</svg>
