<svg width="72" height="72" viewBox="0 0 72 72" fill="none" xmlns="http://www.w3.org/2000/svg">
<g id="customer-limit-approval-matrix">
<g id="Group 1171275560">
<g id="Group 1171275583">
<g id="Group 1171275533">
<circle id="Ellipse 19" cx="41.4036" cy="24.1733" r="6.35083" fill="#2894B4"/>
<g id="Group 159079">
<path id="Subtract" fill-rule="evenodd" clip-rule="evenodd" d="M26.582 48.8709C27.5229 46.2836 30.5337 40.8265 35.0498 39.6975C36.6857 39.2885 37.966 38.8203 39.0797 38.413C41.8092 37.4148 43.5377 36.7827 47.0458 38.2862C47.7057 38.569 48.3616 38.9738 49.0031 39.4651C46.5339 41.261 44.9288 44.173 44.9288 47.4598C44.9288 47.9389 44.9629 48.4101 45.0288 48.8709H26.582Z" fill="#2894B4"/>
<g id="Group 159034">
<g id="Subtract_2">
<path fill-rule="evenodd" clip-rule="evenodd" d="M51.2867 24.3463C51.2867 29.6238 47.3645 33.9142 42.5218 33.9142C37.699 33.9142 33.7768 29.6439 33.7568 24.3866C33.7568 19.2099 37.719 15 42.5218 15C47.3845 15 51.2867 19.1494 51.2867 24.3463ZM26.953 25.9578C26.953 30.6108 23.551 34.3775 19.3287 34.3775C15.1263 34.3775 11.7043 30.6309 11.7043 25.9779C11.6843 21.486 15.1463 17.7596 19.3287 17.7596C23.551 17.7596 26.953 21.4256 26.953 25.9578ZM37.4189 24.3665C37.4189 27.7706 39.7602 30.3892 42.5218 30.3892C45.3033 30.3892 47.6246 27.7303 47.6246 24.3463C47.6246 21.0429 45.3233 18.525 42.5218 18.525C39.7402 18.525 37.4189 21.0832 37.4189 24.3665ZM15.1463 25.9779C15.1463 28.7173 17.0674 30.8928 19.3287 30.8928C21.6099 30.8928 23.531 28.7173 23.531 25.9578C23.531 23.319 21.65 21.2242 19.3287 21.2242C17.0474 21.2242 15.1463 23.3593 15.1463 25.9779ZM23.8712 52.8889H8.32244C5.44081 52.8889 4 51.6602 4 49.243C4 42.5556 10.8439 36.4724 19.3086 36.4724C22.4304 36.4724 25.5922 37.3184 28.1336 38.8895C27.033 39.6147 26.1925 40.4607 25.5121 41.4477C23.7912 40.4808 21.5499 39.9168 19.3086 39.9168C12.9651 39.9168 7.60203 44.308 7.60203 48.9207C7.60203 49.2632 7.76212 49.4444 8.14234 49.4444H22.1703C22.0302 50.7739 22.7706 52.2443 23.8712 52.8889ZM47.0108 52.8889H30.0547C26.5928 52.8889 24.9118 51.781 24.9118 49.4042C24.9118 43.8648 31.7957 36.4925 42.5218 36.4925C46.2726 36.4925 49.5537 37.3941 52.2348 38.8035C50.9224 39.3246 49.745 40.1128 48.7698 41.101C46.9808 40.4332 44.8911 40.0175 42.5218 40.0175C33.7168 40.0175 28.774 45.7583 28.774 48.8402C28.774 49.2027 28.9541 49.3639 29.4144 49.3639H45.9245C46.0693 50.624 46.446 51.8136 47.0108 52.8889Z" fill="#0D313B"/>
<path d="M33.7568 24.3866H33.7182L33.7182 24.3868L33.7568 24.3866ZM11.7043 25.9779H11.7429L11.7429 25.9777L11.7043 25.9779ZM23.8712 52.8889V52.9275H24.0134L23.8907 52.8556L23.8712 52.8889ZM28.1336 38.8895L28.1548 38.9217L28.2053 38.8885L28.1539 38.8567L28.1336 38.8895ZM25.5121 41.4477L25.4933 41.4813L25.5239 41.4986L25.5439 41.4696L25.5121 41.4477ZM22.1703 49.4444L22.2086 49.4485L22.2131 49.4059H22.1703V49.4444ZM47.0108 52.8889V52.9275H47.0746L47.0449 52.871L47.0108 52.8889ZM52.2348 38.8035L52.249 38.8394L52.327 38.8084L52.2527 38.7694L52.2348 38.8035ZM48.7698 41.101L48.7563 41.1371L48.7797 41.1458L48.7973 41.1281L48.7698 41.101ZM45.9245 49.3639L45.9628 49.3595L45.9589 49.3253H45.9245V49.3639ZM42.5218 33.9528C47.3889 33.9528 51.3253 29.6418 51.3253 24.3463H51.2481C51.2481 29.6058 47.34 33.8757 42.5218 33.8757V33.9528ZM33.7182 24.3868C33.7383 29.6621 37.6747 33.9528 42.5218 33.9528V33.8757C37.7234 33.8757 33.8153 29.6258 33.7954 24.3865L33.7182 24.3868ZM42.5218 14.9614C37.6954 14.9614 33.7182 19.191 33.7182 24.3866H33.7954C33.7954 19.2287 37.7427 15.0386 42.5218 15.0386V14.9614ZM51.3253 24.3463C51.3253 19.1305 47.4081 14.9614 42.5218 14.9614V15.0386C47.3609 15.0386 51.2481 19.1684 51.2481 24.3463H51.3253ZM19.3287 34.4161C23.5759 34.4161 26.9915 30.6284 26.9915 25.9578H26.9144C26.9144 30.5932 23.5262 34.3389 19.3287 34.3389V34.4161ZM11.6658 25.9779C11.6658 30.6487 15.1016 34.4161 19.3287 34.4161V34.3389C15.1509 34.3389 11.7429 30.6132 11.7429 25.9779H11.6658ZM19.3287 17.721C15.1224 17.721 11.6457 21.4674 11.6658 25.9781L11.7429 25.9777C11.723 21.5046 15.1702 17.7982 19.3287 17.7982V17.721ZM26.9915 25.9578C26.9915 21.407 23.575 17.721 19.3287 17.721V17.7982C23.5271 17.7982 26.9144 21.4442 26.9144 25.9578H26.9915ZM42.5218 30.3506C39.7867 30.3506 37.4574 27.7549 37.4574 24.3665H37.3803C37.3803 27.7863 39.7337 30.4278 42.5218 30.4278V30.3506ZM47.5861 24.3463C47.5861 27.715 45.2765 30.3506 42.5218 30.3506V30.4278C45.3301 30.4278 47.6632 27.7457 47.6632 24.3463H47.5861ZM42.5218 18.5636C45.2978 18.5636 47.5861 21.0597 47.5861 24.3463H47.6632C47.6632 21.026 45.3488 18.4864 42.5218 18.4864V18.5636ZM37.4574 24.3665C37.4574 21.0999 39.7658 18.5636 42.5218 18.5636V18.4864C39.7145 18.4864 37.3803 21.0665 37.3803 24.3665H37.4574ZM19.3287 30.8542C17.0939 30.8542 15.1849 28.7017 15.1849 25.9779H15.1077C15.1077 28.733 17.0409 30.9314 19.3287 30.9314V30.8542ZM23.4925 25.9578C23.4925 28.7017 21.5834 30.8542 19.3287 30.8542V30.9314C21.6365 30.9314 23.5696 28.733 23.5696 25.9578H23.4925ZM19.3287 21.2627C21.6246 21.2627 23.4925 23.336 23.4925 25.9578H23.5696C23.5696 23.302 21.6753 21.1856 19.3287 21.1856V21.2627ZM15.1849 25.9779C15.1849 23.376 17.073 21.2627 19.3287 21.2627V21.1856C17.0217 21.1856 15.1077 23.3427 15.1077 25.9779H15.1849ZM8.32244 52.9275H23.8712V52.8503H8.32244V52.9275ZM3.96143 49.243C3.96143 50.4595 4.32429 51.3832 5.0557 52.0018C5.78589 52.6194 6.87704 52.9275 8.32244 52.9275V52.8503C6.88621 52.8503 5.81615 52.544 5.10552 51.9429C4.39611 51.3429 4.03857 50.4437 4.03857 49.243H3.96143ZM19.3086 36.4338C10.8286 36.4338 3.96143 42.5287 3.96143 49.243H4.03857C4.03857 42.5825 10.8591 36.511 19.3086 36.511V36.4338ZM28.1539 38.8567C25.6059 37.2815 22.437 36.4338 19.3086 36.4338V36.511C22.4238 36.511 25.5785 37.3553 28.1133 38.9223L28.1539 38.8567ZM25.5439 41.4696C26.2215 40.4866 27.0585 39.6441 28.1548 38.9217L28.1124 38.8573C27.0076 39.5853 26.1635 40.4348 25.4804 41.4258L25.5439 41.4696ZM19.3086 39.9554C21.544 39.9554 23.7786 40.518 25.4933 41.4813L25.531 41.4141C23.8037 40.4436 21.5558 39.8783 19.3086 39.8783V39.9554ZM7.64061 48.9207C7.64061 46.6296 8.97288 44.3888 11.1003 42.7193C13.2273 41.0503 16.1456 39.9554 19.3086 39.9554V39.8783C16.1282 39.8783 13.1931 40.979 11.0527 42.6587C8.91271 44.338 7.56346 46.5991 7.56346 48.9207H7.64061ZM8.14234 49.4059C7.9577 49.4059 7.83448 49.3618 7.75697 49.2838C7.67943 49.2058 7.64061 49.0866 7.64061 48.9207H7.56346C7.56346 49.0973 7.60469 49.24 7.70224 49.3382C7.79983 49.4364 7.94676 49.483 8.14234 49.483V49.4059ZM22.1703 49.4059H8.14234V49.483H22.1703V49.4059ZM23.8907 52.8556C22.8035 52.2189 22.0701 50.7633 22.2086 49.4485L22.1319 49.4404C21.9903 50.7845 22.7377 52.2697 23.8517 52.9222L23.8907 52.8556ZM30.0547 52.9275H47.0108V52.8503H30.0547V52.9275ZM24.8732 49.4042C24.8732 50.6031 25.298 51.4874 26.1635 52.0698C27.026 52.6503 28.321 52.9275 30.0547 52.9275V52.8503C28.3265 52.8503 27.0501 52.5735 26.2066 52.0058C25.3661 51.4402 24.9504 50.5821 24.9504 49.4042H24.8732ZM42.5218 36.454C37.1497 36.454 32.7385 38.3002 29.6699 40.8414C26.6024 43.3817 24.8732 46.6196 24.8732 49.4042H24.9504C24.9504 46.6495 26.6632 43.4315 29.7191 40.9008C32.7739 38.371 37.1677 36.5311 42.5218 36.5311V36.454ZM52.2527 38.7694C49.5661 37.357 46.2789 36.454 42.5218 36.454V36.5311C46.2664 36.5311 49.5412 37.4311 52.2168 38.8377L52.2527 38.7694ZM48.7973 41.1281C49.7688 40.1436 50.9416 39.3585 52.249 38.8394L52.2205 38.7677C50.9031 39.2908 49.7212 40.082 48.7424 41.0739L48.7973 41.1281ZM42.5218 40.0561C44.8866 40.0561 46.9717 40.471 48.7563 41.1371L48.7833 41.0648C46.99 40.3955 44.8957 39.979 42.5218 39.979V40.0561ZM28.8126 48.8402C28.8126 48.0792 29.118 47.1496 29.7167 46.1817C30.315 45.2144 31.2048 44.2112 32.3697 43.3036C34.6993 41.4884 38.1279 40.0561 42.5218 40.0561V39.979C38.1106 39.979 34.6654 41.4171 32.3223 43.2427C31.1509 44.1555 30.2547 45.1653 29.6511 46.1412C29.0478 47.1165 28.7354 48.0602 28.7354 48.8402H28.8126ZM29.4144 49.3253C29.1871 49.3253 29.0383 49.2852 28.9463 49.2084C28.856 49.133 28.8126 49.0155 28.8126 48.8402H28.7354C28.7354 49.0274 28.782 49.1717 28.8969 49.2676C29.0099 49.362 29.1813 49.4024 29.4144 49.4024V49.3253ZM45.9245 49.3253H29.4144V49.4024H45.9245V49.3253ZM47.0449 52.871C46.4823 51.7998 46.1071 50.6148 45.9628 49.3595L45.8862 49.3683C46.0316 50.6332 46.4097 51.8274 46.9766 52.9068L47.0449 52.871Z" fill="#0D313B"/>
</g>
</g>
</g>
</g>
<g id="Group 1171275559">
<g id="Group 1171275557">
<path id="Ellipse 2662" d="M66.6127 48.6491C66.6127 52.9918 63.1021 56.5062 58.7789 56.5062C54.4558 56.5062 50.9452 52.9918 50.9452 48.6491C50.9452 44.3065 54.4558 40.7921 58.7789 40.7921C63.1021 40.7921 66.6127 44.3065 66.6127 48.6491Z" fill="#36C5F0" stroke="#0D313B" stroke-width="2.77321"/>
<path id="Vector" d="M62.6695 45.2833C62.5505 45.3504 61.4347 46.4168 60.1999 47.6473L57.9459 49.8995L57.1872 49.1388C56.7632 48.7287 56.3169 48.3334 56.183 48.2663C55.2754 47.8114 54.2638 48.8256 54.7175 49.7354C54.8812 50.0635 57.1054 52.3008 57.4401 52.4798C57.7748 52.6513 58.0947 52.6587 58.4146 52.5021C58.7419 52.3381 63.9489 47.1328 64.1275 46.7897C64.306 46.4318 64.306 46.126 64.12 45.7606C63.8597 45.246 63.1753 45.0223 62.6695 45.2833Z" fill="#0D313B"/>
</g>
</g>
</g>
</g>
</g>
</svg>
