<svg width="72" height="72" viewBox="0 0 72 72" fill="none" xmlns="http://www.w3.org/2000/svg">
<g id="job-estimates">
<path id="Vector 763" d="M60 18H6.5H5.5V29H8.5V57L10 59H57.5V29H60V18Z" fill="#62C89E"/>
<g id="Group 1171275163">
<circle id="Ellipse 2604" cx="53.6554" cy="53.5519" r="13.2414" fill="#22885E"/>
<rect id="Rectangle 34624769" x="8.41406" y="6.10352" width="47.4483" height="16.5517" fill="#22885E"/>
<path id="Vector" d="M10.6207 5C8.74483 5 7.31034 6.43448 7.31034 8.31034V17.1379H6.2069C4.9931 17.1379 4 18.131 4 19.3448V28.1724C4 29.3862 4.9931 30.3793 6.2069 30.3793H7.31034V56.8621C7.31034 58.7379 8.74483 60.1724 10.6207 60.1724H40.9418C43.3385 64.7561 48.1335 67.8966 53.6552 67.8966C61.5647 67.8966 68 61.4612 68 53.5517C68 47.1826 63.8246 41.7765 58.069 39.9095V30.3793H59.1724C60.3862 30.3793 61.3793 29.3862 61.3793 28.1724V19.3448C61.3793 18.0207 60.3862 17.1379 59.1724 17.1379H58.069V8.31034C58.069 6.43448 56.6345 5 54.7586 5H10.6207ZM10.6207 7.2069H54.7586C55.4207 7.2069 55.8621 7.64828 55.8621 8.31034V22.6552H9.51724V8.31034C9.51724 7.64828 9.95862 7.2069 10.6207 7.2069ZM34.8966 10.5733C34.7034 10.5733 34.5103 10.6267 34.3448 10.7371L32.1379 11.8405C31.5862 12.0612 31.3655 12.7241 31.5862 13.2759C31.8069 13.8276 32.4698 14.0483 33.0216 13.8276L33.5733 13.4957V18.2414C33.5733 18.9034 34.0147 19.3448 34.6767 19.3448C35.3388 19.3448 35.7802 18.9034 35.7802 18.2414V11.6207C36.0009 11.2897 35.7793 10.8474 35.4483 10.7371C35.2828 10.6267 35.0897 10.5733 34.8966 10.5733ZM49.2414 10.5733C49.0483 10.5733 48.8552 10.6267 48.6897 10.7371L46.4828 11.8405C45.931 12.0612 45.7103 12.7241 45.931 13.2759C46.1517 13.8276 46.8147 14.0483 47.3664 13.8276L47.9181 13.4957V18.2414C47.9181 18.9034 48.3595 19.3448 49.0216 19.3448C49.6836 19.3448 50.125 18.9034 50.125 18.2414V11.6207C50.3457 11.2897 50.1241 10.8474 49.7931 10.7371C49.6276 10.6267 49.4345 10.5733 49.2414 10.5733ZM41.5172 11.6207C40.8552 11.6207 40.4138 12.0621 40.4138 12.7241V13.8276H39.3103C38.6483 13.8276 38.2069 14.269 38.2069 14.931C38.2069 15.5931 38.6483 16.0345 39.3103 16.0345H40.4138V17.1379C40.4138 17.8 40.8552 18.2414 41.5172 18.2414C42.1793 18.2414 42.6207 17.8 42.6207 17.1379V16.0345H43.7241C44.3862 16.0345 44.8276 15.5931 44.8276 14.931C44.8276 14.269 44.3862 13.8276 43.7241 13.8276H42.6207V12.7241C42.6207 12.0621 42.1793 11.6207 41.5172 11.6207ZM6.2069 19.3448H7.31034V28.1724H6.2069V19.3448ZM58.069 19.3448H59.1724V28.1724H58.069V19.3448ZM9.51724 24.8621H55.8621V39.375C55.9007 39.3838 55.9377 39.4017 55.9763 39.4116C55.2182 39.2881 54.4474 39.2069 53.6552 39.2069C52.9026 39.2069 52.1699 39.2829 51.4483 39.3944V35.8966C51.4483 34.6828 50.4552 33.6897 49.2414 33.6897H42.6207C41.4069 33.6897 40.4138 34.6828 40.4138 35.8966V48.0431C39.7054 49.7402 39.3103 51.6008 39.3103 53.5517C39.3103 55.0921 39.5616 56.5741 40.0129 57.9655H10.6207C9.95862 57.9655 9.51724 57.5241 9.51724 56.8621V24.8621ZM16.1379 27.069C15.4759 27.069 15.0345 27.5103 15.0345 28.1724V30.3793C15.0345 31.0414 15.4759 31.4828 16.1379 31.4828C16.8 31.4828 17.2414 31.0414 17.2414 30.3793V28.1724C17.2414 27.5103 16.8 27.069 16.1379 27.069ZM21.6552 27.069C20.9931 27.069 20.5517 27.5103 20.5517 28.1724V30.3793C20.5517 31.0414 20.9931 31.4828 21.6552 31.4828C22.3172 31.4828 22.7586 31.0414 22.7586 30.3793V28.1724C22.7586 27.5103 22.3172 27.069 21.6552 27.069ZM27.1724 27.069C26.5103 27.069 26.069 27.5103 26.069 28.1724V30.3793C26.069 31.0414 26.5103 31.4828 27.1724 31.4828C27.8345 31.4828 28.2759 31.0414 28.2759 30.3793V28.1724C28.2759 27.5103 27.8345 27.069 27.1724 27.069ZM32.6897 27.069C32.0276 27.069 31.5862 27.5103 31.5862 28.1724V30.3793C31.5862 31.0414 32.0276 31.4828 32.6897 31.4828C33.3517 31.4828 33.7931 31.0414 33.7931 30.3793V28.1724C33.7931 27.5103 33.3517 27.069 32.6897 27.069ZM38.2069 27.069C37.5448 27.069 37.1034 27.5103 37.1034 28.1724V30.3793C37.1034 31.0414 37.5448 31.4828 38.2069 31.4828C38.869 31.4828 39.3103 31.0414 39.3103 30.3793V28.1724C39.3103 27.5103 38.869 27.069 38.2069 27.069ZM43.7241 27.069C43.0621 27.069 42.6207 27.5103 42.6207 28.1724V30.3793C42.6207 31.0414 43.0621 31.4828 43.7241 31.4828C44.3862 31.4828 44.8276 31.0414 44.8276 30.3793V28.1724C44.8276 27.5103 44.3862 27.069 43.7241 27.069ZM49.2414 27.069C48.5793 27.069 48.1379 27.5103 48.1379 28.1724V30.3793C48.1379 31.0414 48.5793 31.4828 49.2414 31.4828C49.9034 31.4828 50.3448 31.0414 50.3448 30.3793V28.1724C50.3448 27.5103 49.9034 27.069 49.2414 27.069ZM16.1379 33.6897C14.9241 33.6897 13.931 34.6828 13.931 35.8966V40.3103C13.931 41.5241 14.9241 42.5172 16.1379 42.5172H22.7586C23.9724 42.5172 24.9655 41.5241 24.9655 40.3103V35.8966C24.9655 34.6828 23.9724 33.6897 22.7586 33.6897H16.1379ZM29.3793 33.6897C28.1655 33.6897 27.1724 34.6828 27.1724 35.8966V40.3103C27.1724 41.5241 28.1655 42.5172 29.3793 42.5172H36C37.2138 42.5172 38.2069 41.5241 38.2069 40.3103V35.8966C38.2069 34.6828 37.2138 33.6897 36 33.6897H29.3793ZM16.1379 35.8966H22.7586V40.3103H16.1379V35.8966ZM29.3793 35.8966H36V40.3103H29.3793V35.8966ZM42.6207 35.8966H49.2414V39.9095C46.6273 40.7569 44.3388 42.3308 42.6207 44.3987V35.8966ZM53.6552 41.4138C60.3476 41.4138 65.7931 46.8593 65.7931 53.5517C65.7931 60.2441 60.3476 65.6897 53.6552 65.6897C46.9628 65.6897 41.5172 60.2441 41.5172 53.5517C41.5172 46.8593 46.9628 41.4138 53.6552 41.4138ZM53.6552 43.6207C53.045 43.6207 52.5517 44.115 52.5517 44.7241V45.8276C50.1175 45.8276 48.1379 47.8072 48.1379 50.2414C48.1379 52.6756 50.1175 54.6552 52.5517 54.6552H54.7586C55.9757 54.6552 56.9655 55.645 56.9655 56.8621C56.9655 58.0792 55.9757 59.069 54.7586 59.069V56.8621C54.7586 56.253 54.2654 55.7586 53.6552 55.7586C53.045 55.7586 52.5517 56.253 52.5517 56.8621V59.069C51.3346 59.069 50.3448 58.0792 50.3448 56.8621C50.3448 56.253 49.8516 55.7586 49.2414 55.7586C48.6312 55.7586 48.1379 56.253 48.1379 56.8621C48.1379 59.2963 50.1175 61.2759 52.5517 61.2759V62.3793C52.5517 62.9884 53.045 63.4828 53.6552 63.4828C54.2654 63.4828 54.7586 62.9884 54.7586 62.3793V61.2759C57.1928 61.2759 59.1724 59.2963 59.1724 56.8621C59.1724 54.4279 57.1928 52.4483 54.7586 52.4483V50.2414C54.7586 49.6323 54.2654 49.1379 53.6552 49.1379C53.045 49.1379 52.5517 49.6323 52.5517 50.2414V52.4483C51.3346 52.4483 50.3448 51.4585 50.3448 50.2414C50.3448 49.0243 51.3346 48.0345 52.5517 48.0345H54.7586C55.9757 48.0345 56.9655 49.0243 56.9655 50.2414C56.9655 50.8505 57.4588 51.3448 58.069 51.3448C58.6792 51.3448 59.1724 50.8505 59.1724 50.2414C59.1724 47.8072 57.1928 45.8276 54.7586 45.8276V44.7241C54.7586 44.115 54.2654 43.6207 53.6552 43.6207ZM16.1379 44.7241C14.9241 44.7241 13.931 45.7172 13.931 46.931V51.3448C13.931 52.5586 14.9241 53.5517 16.1379 53.5517H22.7586C23.9724 53.5517 24.9655 52.5586 24.9655 51.3448V46.931C24.9655 45.7172 23.9724 44.7241 22.7586 44.7241H16.1379ZM29.3793 44.7241C28.1655 44.7241 27.1724 45.7172 27.1724 46.931V51.3448C27.1724 52.5586 28.1655 53.5517 29.3793 53.5517H36C37.2138 53.5517 38.2069 52.5586 38.2069 51.3448V46.931C38.2069 45.7172 37.2138 44.7241 36 44.7241H29.3793ZM16.1379 46.931H22.7586V51.3448H16.1379V46.931ZM29.3793 46.931H36V51.3448H29.3793V46.931Z" fill="#0B2D1F"/>
</g>
</g>
</svg>
