<svg width="72" height="72" viewBox="0 0 72 72" fill="none" xmlns="http://www.w3.org/2000/svg">
<g id="job-estimate-approval-matrix">
<g id="Group 1171275555">
<g id="Group 1171275545">
<g id="Group 1171275535">
<g id="Vector">
<mask id="path-1-outside-1_6490_46427" maskUnits="userSpaceOnUse" x="3" y="7" width="55" height="49" fill="black">
<rect fill="white" x="3" y="7" width="55" height="49"/>
<path d="M51.5869 16.0051H46.1011C45.507 15.0174 44.4478 14.3411 43.2275 14.2982V14.2159C43.2275 10.7877 40.4399 8 37.0081 8H24.5263C21.0945 8 18.3069 10.7877 18.3069 14.2159V14.2982C17.0866 14.3411 16.0273 15.0174 15.4333 16.0015H9.94747C6.66956 16.0051 4 18.6711 4 21.949V27.5386C4 29.5605 4.44373 31.4428 5.32405 33.1426V48.1472C5.32405 51.7722 8.27631 54.7245 11.9049 54.7245H49.6295C53.2581 54.7245 56.2103 51.7722 56.2103 48.1472V33.1426C57.0907 31.4428 57.5344 29.5605 57.5344 27.5386V21.949C57.5344 18.6711 54.8648 16.0051 51.5869 16.0051ZM21.8746 15.5721V14.2159C21.8746 12.7558 23.0627 11.5678 24.5263 11.5678H37.0081C38.4717 11.5678 39.6598 12.7558 39.6598 14.2159V15.5721C39.6598 15.7188 39.6741 15.862 39.7027 16.0051H21.8317C21.8603 15.862 21.8746 15.7188 21.8746 15.5721ZM7.57134 21.949C7.57134 20.6357 8.63774 19.5693 9.94747 19.5693H51.5833C52.8967 19.5693 53.963 20.6357 53.963 21.949V27.5386C53.963 29.106 53.598 30.541 52.8752 31.8114L52.7857 31.9688C51.0573 34.5417 47.919 36.1234 44.0077 36.1234H36.2852V35.7227C36.2852 34.3378 35.158 33.2105 33.7731 33.2105H27.7613C26.3764 33.2105 25.2491 34.3378 25.2491 35.7227V36.1234H17.5267C13.6154 36.1234 10.4771 34.5417 8.74509 31.9688L8.65921 31.8114C7.93635 30.541 7.57134 29.106 7.57134 27.5386V21.949ZM33.3115 36.1843V42.2498H28.2229V36.1843H33.3115ZM49.6295 51.1567H11.9049C10.2409 51.1567 8.89181 49.8076 8.89181 48.1472V36.3775C11.1606 38.0952 14.1379 39.0936 17.5267 39.0936H25.2491V42.7115C25.2491 44.0964 26.3764 45.2236 27.7613 45.2236H33.7731C35.158 45.2236 36.2852 44.0964 36.2852 42.7115V39.0936H44.0077C47.4001 39.0936 50.3738 38.0952 52.6426 36.3775V48.1472C52.6426 49.8076 51.2899 51.1567 49.6295 51.1567Z"/>
<path d="M7.57134 21.949C7.57134 20.6357 8.63774 19.5693 9.94747 19.5693H51.5833C52.8967 19.5693 53.963 20.6357 53.963 21.949V27.5386C53.963 29.106 53.598 30.541 52.8752 31.8114L52.7857 31.9688C51.0573 34.5417 47.919 36.1234 44.0077 36.1234H36.2852V35.7227C36.2852 34.3378 35.158 33.2105 33.7731 33.2105H27.7613C26.3764 33.2105 25.2491 34.3378 25.2491 35.7227V36.1234H17.5267C13.6154 36.1234 10.4771 34.5417 8.74509 31.9688L8.65921 31.8114C7.93635 30.541 7.57134 29.106 7.57134 27.5386V21.949Z"/>
</mask>
<path d="M51.5869 16.0051H46.1011C45.507 15.0174 44.4478 14.3411 43.2275 14.2982V14.2159C43.2275 10.7877 40.4399 8 37.0081 8H24.5263C21.0945 8 18.3069 10.7877 18.3069 14.2159V14.2982C17.0866 14.3411 16.0273 15.0174 15.4333 16.0015H9.94747C6.66956 16.0051 4 18.6711 4 21.949V27.5386C4 29.5605 4.44373 31.4428 5.32405 33.1426V48.1472C5.32405 51.7722 8.27631 54.7245 11.9049 54.7245H49.6295C53.2581 54.7245 56.2103 51.7722 56.2103 48.1472V33.1426C57.0907 31.4428 57.5344 29.5605 57.5344 27.5386V21.949C57.5344 18.6711 54.8648 16.0051 51.5869 16.0051ZM21.8746 15.5721V14.2159C21.8746 12.7558 23.0627 11.5678 24.5263 11.5678H37.0081C38.4717 11.5678 39.6598 12.7558 39.6598 14.2159V15.5721C39.6598 15.7188 39.6741 15.862 39.7027 16.0051H21.8317C21.8603 15.862 21.8746 15.7188 21.8746 15.5721ZM7.57134 21.949C7.57134 20.6357 8.63774 19.5693 9.94747 19.5693H51.5833C52.8967 19.5693 53.963 20.6357 53.963 21.949V27.5386C53.963 29.106 53.598 30.541 52.8752 31.8114L52.7857 31.9688C51.0573 34.5417 47.919 36.1234 44.0077 36.1234H36.2852V35.7227C36.2852 34.3378 35.158 33.2105 33.7731 33.2105H27.7613C26.3764 33.2105 25.2491 34.3378 25.2491 35.7227V36.1234H17.5267C13.6154 36.1234 10.4771 34.5417 8.74509 31.9688L8.65921 31.8114C7.93635 30.541 7.57134 29.106 7.57134 27.5386V21.949ZM33.3115 36.1843V42.2498H28.2229V36.1843H33.3115ZM49.6295 51.1567H11.9049C10.2409 51.1567 8.89181 49.8076 8.89181 48.1472V36.3775C11.1606 38.0952 14.1379 39.0936 17.5267 39.0936H25.2491V42.7115C25.2491 44.0964 26.3764 45.2236 27.7613 45.2236H33.7731C35.158 45.2236 36.2852 44.0964 36.2852 42.7115V39.0936H44.0077C47.4001 39.0936 50.3738 38.0952 52.6426 36.3775V48.1472C52.6426 49.8076 51.2899 51.1567 49.6295 51.1567Z" fill="#0D313B"/>
<path d="M7.57134 21.949C7.57134 20.6357 8.63774 19.5693 9.94747 19.5693H51.5833C52.8967 19.5693 53.963 20.6357 53.963 21.949V27.5386C53.963 29.106 53.598 30.541 52.8752 31.8114L52.7857 31.9688C51.0573 34.5417 47.919 36.1234 44.0077 36.1234H36.2852V35.7227C36.2852 34.3378 35.158 33.2105 33.7731 33.2105H27.7613C26.3764 33.2105 25.2491 34.3378 25.2491 35.7227V36.1234H17.5267C13.6154 36.1234 10.4771 34.5417 8.74509 31.9688L8.65921 31.8114C7.93635 30.541 7.57134 29.106 7.57134 27.5386V21.949Z" fill="#2894B4"/>
<path d="M52.8752 31.8114L52.7014 31.7124L52.7013 31.7126L52.8752 31.8114ZM52.7857 31.9688L52.9517 32.0803L52.9559 32.0741L52.9596 32.0676L52.7857 31.9688ZM36.2852 36.1234H36.0852V36.3234H36.2852V36.1234ZM25.2491 36.1234V36.3234H25.4491V36.1234H25.2491ZM8.74509 31.9688L8.56952 32.0646L8.57398 32.0728L8.57918 32.0805L8.74509 31.9688ZM8.65921 31.8114L8.83482 31.7156L8.83304 31.7124L8.65921 31.8114ZM7.77134 21.949C7.77134 20.746 8.74839 19.7693 9.94747 19.7693V19.3693C8.52709 19.3693 7.37134 20.5254 7.37134 21.949H7.77134ZM9.94747 19.7693H51.5833V19.3693H9.94747V19.7693ZM51.5833 19.7693C52.7862 19.7693 53.763 20.7461 53.763 21.949H54.163C54.163 20.5252 53.0071 19.3693 51.5833 19.3693V19.7693ZM53.763 21.949V27.5386H54.163V21.949H53.763ZM53.763 27.5386C53.763 29.074 53.4058 30.4744 52.7014 31.7124L53.049 31.9103C53.7903 30.6075 54.163 29.138 54.163 27.5386H53.763ZM52.7013 31.7126L52.6118 31.87L52.9596 32.0676L53.0491 31.9102L52.7013 31.7126ZM52.6197 31.8573C50.9351 34.365 47.8652 35.9234 44.0077 35.9234V36.3234C47.9727 36.3234 51.1795 34.7185 52.9517 32.0803L52.6197 31.8573ZM44.0077 35.9234H36.2852V36.3234H44.0077V35.9234ZM36.4852 36.1234V35.7227H36.0852V36.1234H36.4852ZM36.4852 35.7227C36.4852 34.2273 35.2685 33.0105 33.7731 33.0105V33.4105C35.0476 33.4105 36.0852 34.4482 36.0852 35.7227H36.4852ZM33.7731 33.0105H27.7613V33.4105H33.7731V33.0105ZM27.7613 33.0105C26.2659 33.0105 25.0491 34.2273 25.0491 35.7227H25.4491C25.4491 34.4482 26.4868 33.4105 27.7613 33.4105V33.0105ZM25.0491 35.7227V36.1234H25.4491V35.7227H25.0491ZM25.2491 35.9234H17.5267V36.3234H25.2491V35.9234ZM17.5267 35.9234C13.6692 35.9234 10.5992 34.3651 8.91101 31.8571L8.57918 32.0805C10.3549 34.7184 13.5616 36.3234 17.5267 36.3234V35.9234ZM8.92067 31.873L8.83479 31.7156L8.48363 31.9071L8.56952 32.0646L8.92067 31.873ZM8.83304 31.7124C8.12859 30.4744 7.77134 29.074 7.77134 27.5386H7.37134C7.37134 29.138 7.74411 30.6075 8.48538 31.9103L8.83304 31.7124ZM7.77134 27.5386V21.949H7.37134V27.5386H7.77134ZM46.1011 16.0051L45.7583 16.2113L45.8749 16.4051H46.1011V16.0051ZM43.2275 14.2982H42.8275V14.6843L43.2135 14.6979L43.2275 14.2982ZM18.3069 14.2982L18.3209 14.6979L18.7069 14.6843V14.2982H18.3069ZM15.4333 16.0015V16.4015H15.6591L15.7758 16.2082L15.4333 16.0015ZM9.94747 16.0015V15.6015L9.94703 15.6015L9.94747 16.0015ZM5.32405 33.1426H5.72405V33.0451L5.67924 32.9586L5.32405 33.1426ZM56.2103 33.1426L55.8552 32.9586L55.8103 33.0451V33.1426H56.2103ZM39.7027 16.0051V16.4051H40.1906L40.0949 15.9267L39.7027 16.0051ZM21.8317 16.0051L21.4394 15.9267L21.3438 16.4051H21.8317V16.0051ZM33.3115 36.1843H33.7115V35.7843H33.3115V36.1843ZM33.3115 42.2498V42.6498H33.7115V42.2498H33.3115ZM28.2229 42.2498H27.8229V42.6498H28.2229V42.2498ZM28.2229 36.1843V35.7843H27.8229V36.1843H28.2229ZM8.89181 36.3775L9.13326 36.0586L8.49181 35.573V36.3775H8.89181ZM25.2491 39.0936H25.6491V38.6936H25.2491V39.0936ZM36.2852 39.0936V38.6936H35.8852V39.0936H36.2852ZM52.6426 36.3775H53.0426V35.573L52.4011 36.0586L52.6426 36.3775ZM51.5869 15.6051H46.1011V16.4051H51.5869V15.6051ZM46.4439 15.7989C45.784 14.7019 44.6047 13.9464 43.2416 13.8984L43.2135 14.6979C44.2909 14.7358 45.23 15.333 45.7583 16.2113L46.4439 15.7989ZM43.6275 14.2982V14.2159H42.8275V14.2982H43.6275ZM43.6275 14.2159C43.6275 10.5666 40.6606 7.6 37.0081 7.6V8.4C40.2191 8.4 42.8275 11.0087 42.8275 14.2159H43.6275ZM37.0081 7.6H24.5263V8.4H37.0081V7.6ZM24.5263 7.6C20.8737 7.6 17.9069 10.5666 17.9069 14.2159H18.7069C18.7069 11.0087 21.3153 8.4 24.5263 8.4V7.6ZM17.9069 14.2159V14.2982H18.7069V14.2159H17.9069ZM18.2928 13.8984C16.9299 13.9464 15.7507 14.7017 15.0909 15.7948L15.7758 16.2082C16.304 15.3332 17.2433 14.7358 18.3209 14.6979L18.2928 13.8984ZM15.4333 15.6015H9.94747V16.4015H15.4333V15.6015ZM9.94703 15.6015C6.44895 15.6054 3.6 18.4498 3.6 21.949H4.4C4.4 18.8924 6.89017 16.4049 9.94791 16.4015L9.94703 15.6015ZM3.6 21.949V27.5386H4.4V21.949H3.6ZM3.6 27.5386C3.6 29.6206 4.05735 31.5665 4.96885 33.3265L5.67924 32.9586C4.83012 31.319 4.4 29.5004 4.4 27.5386H3.6ZM4.92405 33.1426V48.1472H5.72405V33.1426H4.92405ZM4.92405 48.1472C4.92405 51.9933 8.05554 55.1245 11.9049 55.1245V54.3245C8.49708 54.3245 5.72405 51.5512 5.72405 48.1472H4.92405ZM11.9049 55.1245H49.6295V54.3245H11.9049V55.1245ZM49.6295 55.1245C53.4789 55.1245 56.6103 51.9933 56.6103 48.1472H55.8103C55.8103 51.5512 53.0373 54.3245 49.6295 54.3245V55.1245ZM56.6103 48.1472V33.1426H55.8103V48.1472H56.6103ZM56.5655 33.3265C57.477 31.5665 57.9344 29.6206 57.9344 27.5386H57.1344C57.1344 29.5004 56.7043 31.319 55.8552 32.9586L56.5655 33.3265ZM57.9344 27.5386V21.949H57.1344V27.5386H57.9344ZM57.9344 21.949C57.9344 18.4499 55.0854 15.6051 51.5869 15.6051V16.4051C54.6442 16.4051 57.1344 18.8923 57.1344 21.949H57.9344ZM22.2746 15.5721V14.2159H21.4746V15.5721H22.2746ZM22.2746 14.2159C22.2746 12.9771 23.2832 11.9678 24.5263 11.9678V11.1678C22.8421 11.1678 21.4746 12.5346 21.4746 14.2159H22.2746ZM24.5263 11.9678H37.0081V11.1678H24.5263V11.9678ZM37.0081 11.9678C38.2511 11.9678 39.2598 12.9771 39.2598 14.2159H40.0598C40.0598 12.5346 38.6923 11.1678 37.0081 11.1678V11.9678ZM39.2598 14.2159V15.5721H40.0598V14.2159H39.2598ZM39.2598 15.5721C39.2598 15.7454 39.2767 15.9148 39.3105 16.0836L40.0949 15.9267C40.0714 15.8092 40.0598 15.6923 40.0598 15.5721H39.2598ZM39.7027 15.6051H21.8317V16.4051H39.7027V15.6051ZM22.2239 16.0836C22.2577 15.9148 22.2746 15.7454 22.2746 15.5721H21.4746C21.4746 15.6923 21.4629 15.8092 21.4394 15.9267L22.2239 16.0836ZM32.9115 36.1843V42.2498H33.7115V36.1843H32.9115ZM33.3115 41.8498H28.2229V42.6498H33.3115V41.8498ZM28.6229 42.2498V36.1843H27.8229V42.2498H28.6229ZM28.2229 36.5843H33.3115V35.7843H28.2229V36.5843ZM49.6295 50.7567H11.9049V51.5567H49.6295V50.7567ZM11.9049 50.7567C10.4615 50.7567 9.29181 49.5864 9.29181 48.1472H8.49181C8.49181 50.0289 10.0203 51.5567 11.9049 51.5567V50.7567ZM9.29181 48.1472V36.3775H8.49181V48.1472H9.29181ZM8.65037 36.6964C10.995 38.4715 14.059 39.4936 17.5267 39.4936V38.6936C14.2168 38.6936 11.3262 37.7189 9.13326 36.0586L8.65037 36.6964ZM17.5267 39.4936H25.2491V38.6936H17.5267V39.4936ZM24.8491 39.0936V42.7115H25.6491V39.0936H24.8491ZM24.8491 42.7115C24.8491 44.3173 26.1555 45.6236 27.7613 45.6236V44.8236C26.5973 44.8236 25.6491 43.8754 25.6491 42.7115H24.8491ZM27.7613 45.6236H33.7731V44.8236H27.7613V45.6236ZM33.7731 45.6236C35.3789 45.6236 36.6852 44.3173 36.6852 42.7115H35.8852C35.8852 43.8754 34.9371 44.8236 33.7731 44.8236V45.6236ZM36.6852 42.7115V39.0936H35.8852V42.7115H36.6852ZM36.2852 39.4936H44.0077V38.6936H36.2852V39.4936ZM44.0077 39.4936C47.479 39.4936 50.5395 38.4715 52.884 36.6964L52.4011 36.0586C50.2082 37.7189 47.3211 38.6936 44.0077 38.6936V39.4936ZM52.2426 36.3775V48.1472H53.0426V36.3775H52.2426ZM52.2426 48.1472C52.2426 49.5861 51.0696 50.7567 49.6295 50.7567V51.5567C51.5102 51.5567 53.0426 50.0292 53.0426 48.1472H52.2426Z" fill="#0D313B" mask="url(#path-1-outside-1_6490_46427)"/>
</g>
<g id="Group 1171275327">
<g id="Vector_2">
<mask id="path-3-inside-2_6490_46427" fill="white">
<path d="M47.9679 40.6945C47.4866 40.8398 47.0416 41.2349 46.8055 41.7117L46.6602 42.0114V52.1604V62.3094L46.8055 62.6091C46.9962 62.9905 47.3413 63.3356 47.7227 63.5263L48.0224 63.6716H55.5377H63.0529L63.3163 63.549C63.6841 63.3765 64.0882 62.9769 64.2699 62.6091L64.4152 62.3094L64.4288 54.4081C64.4334 50.0625 64.4697 46.3378 64.4561 46.2742C64.4243 46.1471 58.9979 40.6798 58.7935 40.5708C58.6164 40.48 48.2631 40.5992 47.9679 40.6945ZM57.7718 44.4135C57.7719 44.4213 57.7719 44.4291 57.7719 44.4369C57.7854 46.8342 57.7857 46.8888 57.8808 47.0155C58.0942 47.3061 58.0352 47.3016 60.7053 47.3016H63.121V54.6216C63.121 61.8053 63.121 61.9506 63.0302 62.0914C62.844 62.4002 63.4162 62.3775 55.5377 62.3775C47.6592 62.3775 48.2313 62.4002 48.0451 62.0914C47.9543 61.9506 47.9543 61.7871 47.9543 52.1695C47.9543 41.3666 47.9316 42.2203 48.2404 42.0341C48.3812 41.9478 48.5038 41.9433 53.0719 41.9433H57.7627L57.7718 44.4135ZM60.6462 44.4408L62.1901 45.9847H60.6326H59.0796V44.4408C59.0796 43.5916 59.0841 42.8969 59.0932 42.8969C59.0978 42.8969 59.7971 43.5916 60.6462 44.4408Z"/>
<path d="M57.7718 44.4135L57.7719 44.4369C57.7854 46.8342 57.7857 46.8888 57.8808 47.0155C58.0942 47.3061 58.0352 47.3016 60.7053 47.3016H63.121V54.6216C63.121 61.8053 63.121 61.9506 63.0302 62.0914C62.844 62.4002 63.4162 62.3775 55.5377 62.3775C47.6592 62.3775 48.2313 62.4002 48.0451 62.0914C47.9543 61.9506 47.9543 61.7871 47.9543 52.1695C47.9543 41.3666 47.9316 42.2203 48.2404 42.0341C48.3812 41.9478 48.5038 41.9433 53.0719 41.9433H57.7627L57.7718 44.4135Z"/>
</mask>
<path d="M47.9679 40.6945C47.4866 40.8398 47.0416 41.2349 46.8055 41.7117L46.6602 42.0114V52.1604V62.3094L46.8055 62.6091C46.9962 62.9905 47.3413 63.3356 47.7227 63.5263L48.0224 63.6716H55.5377H63.0529L63.3163 63.549C63.6841 63.3765 64.0882 62.9769 64.2699 62.6091L64.4152 62.3094L64.4288 54.4081C64.4334 50.0625 64.4697 46.3378 64.4561 46.2742C64.4243 46.1471 58.9979 40.6798 58.7935 40.5708C58.6164 40.48 48.2631 40.5992 47.9679 40.6945ZM57.7718 44.4135C57.7719 44.4213 57.7719 44.4291 57.7719 44.4369C57.7854 46.8342 57.7857 46.8888 57.8808 47.0155C58.0942 47.3061 58.0352 47.3016 60.7053 47.3016H63.121V54.6216C63.121 61.8053 63.121 61.9506 63.0302 62.0914C62.844 62.4002 63.4162 62.3775 55.5377 62.3775C47.6592 62.3775 48.2313 62.4002 48.0451 62.0914C47.9543 61.9506 47.9543 61.7871 47.9543 52.1695C47.9543 41.3666 47.9316 42.2203 48.2404 42.0341C48.3812 41.9478 48.5038 41.9433 53.0719 41.9433H57.7627L57.7718 44.4135ZM60.6462 44.4408L62.1901 45.9847H60.6326H59.0796V44.4408C59.0796 43.5916 59.0841 42.8969 59.0932 42.8969C59.0978 42.8969 59.7971 43.5916 60.6462 44.4408Z" fill="#0D313B"/>
<path d="M57.7718 44.4135L57.7719 44.4369C57.7854 46.8342 57.7857 46.8888 57.8808 47.0155C58.0942 47.3061 58.0352 47.3016 60.7053 47.3016H63.121V54.6216C63.121 61.8053 63.121 61.9506 63.0302 62.0914C62.844 62.4002 63.4162 62.3775 55.5377 62.3775C47.6592 62.3775 48.2313 62.4002 48.0451 62.0914C47.9543 61.9506 47.9543 61.7871 47.9543 52.1695C47.9543 41.3666 47.9316 42.2203 48.2404 42.0341C48.3812 41.9478 48.5038 41.9433 53.0719 41.9433H57.7627L57.7718 44.4135Z" fill="#36C5F0"/>
<path d="M57.8808 47.0155L58.6808 46.4155L58.6868 46.4236L57.8808 47.0155ZM63.121 47.3016V46.3016H64.121V47.3016H63.121ZM63.0302 62.0914L62.1738 61.575L62.1817 61.562L62.1899 61.5493L63.0302 62.0914ZM48.0451 62.0914L48.8854 61.5493L48.8937 61.562L48.9015 61.575L48.0451 62.0914ZM48.2404 42.0341L48.763 42.8867L48.7567 42.8905L48.2404 42.0341ZM57.7627 41.9433V40.9433H58.7591L58.7627 41.9396L57.7627 41.9433ZM58.6868 46.4236C58.7802 46.5508 58.6961 46.4138 58.558 46.3295C58.4258 46.2487 58.3355 46.2587 58.4731 46.2727C58.753 46.3012 59.3303 46.3016 60.7053 46.3016V48.3016C59.4101 48.3016 58.6819 48.3043 58.2705 48.2624C58.0624 48.2412 57.7799 48.1978 57.5153 48.0362C57.2448 47.8709 57.0881 47.6256 57.0748 47.6074L58.6868 46.4236ZM60.7053 46.3016H63.121V48.3016H60.7053V46.3016ZM64.121 47.3016V54.6216H62.121V47.3016H64.121ZM64.121 54.6216C64.121 58.209 64.1211 60.0499 64.1096 61.0095C64.104 61.4801 64.0955 61.7732 64.0789 61.9624C64.0706 62.0564 64.0569 62.1722 64.0241 62.2908C63.9816 62.4449 63.9208 62.5555 63.8705 62.6335L62.1899 61.5493C62.1623 61.5921 62.1214 61.6674 62.0963 61.7585C62.0809 61.8141 62.082 61.8394 62.0865 61.7877C62.0955 61.6856 62.104 61.467 62.1097 60.9857C62.121 60.0415 62.121 58.2179 62.121 54.6216H64.121ZM63.8866 62.6077C63.9028 62.5808 63.9123 62.5597 63.9056 62.5738C63.9053 62.5744 63.8742 62.643 63.8328 62.7112C63.7085 62.916 63.5253 63.0808 63.2853 63.1844C63.1026 63.2633 62.9152 63.2935 62.7747 63.3104C62.6202 63.329 62.4322 63.3409 62.2066 63.3495C61.3164 63.3834 59.4581 63.3775 55.5377 63.3775V61.3775C59.4957 61.3775 61.2906 61.3829 62.1305 61.3509C62.3375 61.3431 62.4618 61.3337 62.5354 61.3248C62.623 61.3142 62.5795 61.3107 62.4925 61.3483C62.3481 61.4106 62.2123 61.5266 62.1231 61.6735C62.0993 61.7127 62.0827 61.7501 62.0983 61.7172C62.1075 61.6977 62.1343 61.6405 62.1738 61.575L63.8866 62.6077ZM55.5377 63.3775C51.6172 63.3775 49.7589 63.3834 48.8688 63.3495C48.6432 63.3409 48.4552 63.329 48.3006 63.3104C48.1601 63.2935 47.9728 63.2633 47.7901 63.1844C47.55 63.0808 47.3668 62.916 47.2426 62.7112C47.2012 62.643 47.1701 62.5744 47.1698 62.5738C47.1631 62.5597 47.1725 62.5808 47.1888 62.6077L48.9015 61.575C48.941 61.6405 48.9678 61.6977 48.9771 61.7172C48.9927 61.7501 48.9761 61.7127 48.9522 61.6735C48.8631 61.5266 48.7273 61.4106 48.5829 61.3483C48.4958 61.3107 48.4524 61.3142 48.54 61.3248C48.6135 61.3337 48.7379 61.3431 48.9448 61.3509C49.7847 61.3829 51.5796 61.3775 55.5377 61.3775V63.3775ZM47.2048 62.6335C47.0359 62.3717 47.0096 62.1146 46.995 61.9029C46.9798 61.6827 46.9713 61.3185 46.9657 60.6933C46.9543 59.4268 46.9543 56.9749 46.9543 52.1695H48.9543C48.9543 56.9817 48.9543 59.4204 48.9656 60.6753C48.9714 61.3107 48.9799 61.6149 48.9903 61.7655C49.0012 61.9246 49.009 61.7407 48.8854 61.5493L47.2048 62.6335ZM46.9543 52.1695C46.9543 46.7821 46.9485 44.2711 46.982 43.0922C46.9904 42.7955 47.0017 42.5634 47.0184 42.3825C47.0334 42.2199 47.0584 42.0226 47.1243 41.839C47.2139 41.5898 47.3841 41.3509 47.6654 41.1994C47.7147 41.1729 47.757 41.1548 47.7814 41.1448C47.7938 41.1397 47.8044 41.1355 47.8102 41.1332C47.8193 41.1297 47.817 41.1306 47.82 41.1294C47.8206 41.1292 47.777 41.1458 47.7241 41.1777L48.7567 42.8905C48.6652 42.9457 48.5856 42.9774 48.5526 42.9904C48.4978 43.012 48.5605 42.989 48.6135 42.9605C48.837 42.8402 48.9583 42.6495 49.0065 42.5152C49.0312 42.4466 49.0224 42.4309 49.01 42.5663C48.9992 42.6834 48.9892 42.8654 48.9812 43.1489C48.9488 44.2903 48.9543 46.7539 48.9543 52.1695H46.9543ZM47.7178 41.1815C47.7733 41.1475 47.8645 41.0959 47.9915 41.0545C48.1016 41.0187 48.2054 41.0014 48.2909 40.9909C48.4512 40.9713 48.6705 40.9624 48.9767 40.9565C49.6082 40.9444 50.794 40.9433 53.0719 40.9433V42.9433C50.7817 42.9433 49.6221 42.9445 49.0151 42.9561C48.702 42.9622 48.5788 42.9706 48.5337 42.9761C48.5165 42.9782 48.552 42.9754 48.6106 42.9563C48.6861 42.9317 48.7427 42.8991 48.763 42.8867L47.7178 41.1815ZM53.0719 40.9433H57.7627V42.9433H53.0719V40.9433ZM58.7627 41.9396L58.7718 44.4099L56.7718 44.4172L56.7627 41.947L58.7627 41.9396ZM58.7719 44.4312C58.7787 45.643 58.7822 46.2303 58.7949 46.5362C58.8017 46.7 58.8093 46.7129 58.8011 46.6765C58.7939 46.6442 58.7777 46.5873 58.7442 46.5202C58.712 46.4557 58.6784 46.4123 58.6808 46.4155L57.0808 47.6155C56.9988 47.5062 56.9031 47.3515 56.85 47.116C56.8146 46.9588 56.8035 46.7845 56.7966 46.6191C56.782 46.2668 56.7786 45.628 56.772 44.4425L58.7719 44.4312ZM47.9679 40.6945L48.5828 42.5977L48.5644 42.6036L48.546 42.6092L47.9679 40.6945ZM46.8055 41.7117L45.0058 40.8391L45.0095 40.8316L45.0132 40.8241L46.8055 41.7117ZM46.6602 42.0114H44.6602V41.5521L44.8605 41.1388L46.6602 42.0114ZM46.6602 62.3094L44.8605 63.1819L44.6602 62.7686V62.3094H46.6602ZM46.8055 62.6091L45.0166 63.5035L45.0112 63.4926L45.0058 63.4816L46.8055 62.6091ZM47.7227 63.5263L46.8502 65.3259L46.8392 65.3206L46.8283 65.3152L47.7227 63.5263ZM48.0224 63.6716V65.6716H47.5632L47.1499 65.4713L48.0224 63.6716ZM63.0529 63.6716L63.897 65.4848L63.4956 65.6716H63.0529V63.6716ZM63.3163 63.549L64.1657 65.3597L64.1603 65.3622L63.3163 63.549ZM64.2699 62.6091L66.0695 63.4816L66.0664 63.4881L66.0631 63.4946L64.2699 62.6091ZM64.4152 62.3094L66.4152 62.3128L66.4144 62.7703L66.2148 63.1819L64.4152 62.3094ZM64.4288 54.4081L66.4288 54.4102L66.4288 54.4116L64.4288 54.4081ZM64.4561 46.2742L66.3964 45.7891L66.4046 45.822L66.4117 45.8552L64.4561 46.2742ZM58.7935 40.5708L59.7062 38.7912L59.7205 38.7985L59.7347 38.8061L58.7935 40.5708ZM57.7718 44.4135L55.7718 44.4248L59.7718 44.4023L57.7718 44.4135ZM62.1901 45.9847L63.6044 44.5705L67.0186 47.9847H62.1901V45.9847ZM59.0796 45.9847V47.9847H57.0796V45.9847H59.0796ZM57.7719 44.4369L59.7719 44.4256L55.772 44.4481L57.7719 44.4369ZM48.546 42.6092C48.5831 42.598 48.6045 42.5866 48.6121 42.5823C48.6199 42.5778 48.6198 42.5769 48.6148 42.5813C48.6098 42.5857 48.6043 42.5915 48.5997 42.5974C48.5951 42.6033 48.595 42.6047 48.5977 42.5993L45.0132 40.8241C45.47 39.9017 46.3282 39.1004 47.3899 38.7799L48.546 42.6092ZM48.6051 42.5842L48.4598 42.8839L44.8605 41.1388L45.0058 40.8391L48.6051 42.5842ZM48.6602 42.0114V52.1604H44.6602V42.0114H48.6602ZM48.6602 52.1604V62.3094H44.6602V52.1604H48.6602ZM48.4598 61.4368L48.6051 61.7365L45.0058 63.4816L44.8605 63.1819L48.4598 61.4368ZM48.5943 61.7146C48.5885 61.7029 48.586 61.7005 48.5894 61.7051C48.5926 61.7095 48.5986 61.7168 48.6068 61.725C48.615 61.7332 48.6223 61.7391 48.6267 61.7424C48.6313 61.7458 48.6288 61.7433 48.6172 61.7375L46.8283 65.3152C46.0598 64.9309 45.4009 64.272 45.0166 63.5035L48.5943 61.7146ZM48.5953 61.7267L48.895 61.872L47.1499 65.4713L46.8502 65.3259L48.5953 61.7267ZM48.0224 61.6716H55.5377V65.6716H48.0224V61.6716ZM55.5377 61.6716H63.0529V65.6716H55.5377V61.6716ZM62.2089 61.8585L62.4722 61.7359L64.1603 65.3622L63.897 65.4848L62.2089 61.8585ZM62.4668 61.7384C62.4429 61.7496 62.4278 61.7584 62.4212 61.7624C62.4143 61.7665 62.4127 61.7679 62.4158 61.7656C62.4189 61.7634 62.4246 61.759 62.4326 61.7522C62.4405 61.7455 62.4492 61.7375 62.4582 61.7286C62.4673 61.7196 62.4756 61.7108 62.4828 61.7026C62.4901 61.6943 62.4952 61.6878 62.4982 61.6839C62.5013 61.6798 62.5009 61.68 62.4977 61.685C62.4946 61.6899 62.4869 61.7026 62.4766 61.7235L66.0631 63.4946C65.6849 64.2605 64.9523 64.9907 64.1657 65.3597L62.4668 61.7384ZM62.4703 61.7365L62.6156 61.4368L66.2148 63.1819L66.0695 63.4816L62.4703 61.7365ZM62.4152 62.3059L62.4288 54.4047L66.4288 54.4116L66.4152 62.3128L62.4152 62.3059ZM62.4288 54.406C62.4311 52.2286 62.4413 50.2074 62.4493 48.7247C62.4533 47.9821 62.4567 47.3773 62.4582 46.9535C62.459 46.7411 62.4593 46.5787 62.459 46.4689C62.4589 46.413 62.4586 46.3776 62.4583 46.3585C62.4581 46.3476 62.4581 46.3517 62.4586 46.3639C62.4587 46.3689 62.4595 46.3887 62.4613 46.4159C62.4622 46.4293 62.4641 46.4552 62.4676 46.4882C62.4698 46.5081 62.4784 46.59 62.5005 46.6933L66.4117 45.8552C66.434 45.9594 66.4428 46.0427 66.4451 46.0645C66.4489 46.0994 66.451 46.1277 66.4521 46.1439C66.4543 46.1766 66.4554 46.2037 66.4559 46.2178C66.457 46.248 66.4575 46.2771 66.4578 46.2981C66.4585 46.3427 66.4588 46.3981 66.459 46.4586C66.4593 46.5816 66.459 46.7546 66.4582 46.9682C66.4566 47.3964 66.4532 48.0063 66.4492 48.7461C66.4413 50.228 66.4311 52.242 66.4288 54.4102L62.4288 54.406ZM62.5158 46.7593C62.5786 47.0105 62.6769 47.1885 62.7018 47.2339C62.7415 47.3061 62.7773 47.3602 62.7958 47.3875C62.8336 47.4432 62.8645 47.4821 62.8729 47.4926C62.8931 47.5181 62.9031 47.5287 62.8902 47.514C62.8688 47.4898 62.825 47.4419 62.7532 47.3653C62.6131 47.2159 62.4071 47.0011 62.1513 46.7376C61.6421 46.2127 60.9601 45.5198 60.2701 44.8247C59.5802 44.1297 58.8874 43.4378 58.3566 42.9149C58.0902 42.6526 57.8704 42.4385 57.7141 42.2895C57.6346 42.2137 57.5809 42.1636 57.5496 42.1354C57.5327 42.1201 57.5342 42.1219 57.5477 42.1331C57.554 42.1384 57.5753 42.1561 57.6066 42.1796C57.6188 42.1888 57.7146 42.262 57.8524 42.3355L59.7347 38.8061C59.8789 38.883 59.9836 38.9623 60.0072 38.98C60.0499 39.012 60.0851 39.0409 60.1077 39.0597C60.1537 39.098 60.1972 39.1367 60.2313 39.1675C60.302 39.2313 60.3858 39.31 60.4743 39.3944C60.6541 39.5658 60.8919 39.7977 61.1635 40.0652C61.7086 40.6021 62.4128 41.3054 63.1089 42.0067C63.805 42.7079 64.4984 43.4125 65.0219 43.9519C65.2826 44.2205 65.5073 44.4546 65.6708 44.6289C65.7508 44.7142 65.8271 44.7969 65.8888 44.8668C65.9174 44.8992 65.9597 44.9477 66.0024 45.0014C66.0219 45.0259 66.0616 45.0765 66.1056 45.1413C66.1272 45.1732 66.1654 45.2312 66.2069 45.3066C66.2336 45.3553 66.3331 45.536 66.3964 45.7891L62.5158 46.7593ZM57.8809 42.3504C58.0707 42.4478 58.2317 42.4906 58.2816 42.5037C58.3524 42.5222 58.409 42.5326 58.4388 42.5378C58.4988 42.5481 58.5423 42.5523 58.5522 42.5533C58.5767 42.5557 58.5812 42.5554 58.5505 42.5539C58.4954 42.5513 58.3988 42.5483 58.2547 42.5458C57.9716 42.5409 57.5651 42.5385 57.0686 42.5384C56.0789 42.5383 54.7672 42.5476 53.448 42.5627C52.1288 42.5778 50.8095 42.5987 49.8047 42.6217C49.3009 42.6332 48.8843 42.645 48.5889 42.6566C48.4393 42.6624 48.3337 42.6677 48.2682 42.6721C48.2338 42.6743 48.2266 42.6753 48.237 42.6742C48.2416 42.6737 48.2664 42.6711 48.3029 42.6653C48.3156 42.6633 48.4341 42.6457 48.5828 42.5977L47.3531 38.7914C47.511 38.7404 47.6437 38.7198 47.6753 38.7148C47.7306 38.706 47.7791 38.7004 47.8119 38.6968C47.8788 38.6897 47.9466 38.6846 48.0043 38.6808C48.1229 38.6729 48.2702 38.666 48.4323 38.6596C48.7603 38.6468 49.2023 38.6344 49.7134 38.6227C50.7384 38.5993 52.0739 38.5782 53.4021 38.563C54.7302 38.5477 56.0585 38.5383 57.0691 38.5384C57.5727 38.5385 58.0065 38.5409 58.3245 38.5464C58.4811 38.5492 58.6254 38.5529 58.7415 38.5585C58.7965 38.5611 58.8692 38.5652 58.9432 38.5725C58.978 38.5759 59.0416 38.5827 59.1169 38.5957C59.1544 38.6021 59.2174 38.6139 59.2934 38.6338C59.3486 38.6482 59.5136 38.6924 59.7062 38.7912L57.8809 42.3504ZM62.0604 43.0266L63.6044 44.5705L60.7759 47.3989L59.232 45.855L62.0604 43.0266ZM62.1901 47.9847H60.6326V43.9847H62.1901V47.9847ZM60.6326 47.9847H59.0796V43.9847H60.6326V47.9847ZM57.0796 45.9847V44.4408H61.0796V45.9847H57.0796ZM57.0796 44.4408C57.0796 44.0137 57.0807 43.6217 57.0831 43.3342C57.0842 43.1919 57.0857 43.0676 57.0877 42.9753C57.0887 42.932 57.09 42.8802 57.0923 42.8323C57.0932 42.8141 57.0957 42.7639 57.1016 42.7049C57.1035 42.686 57.1117 42.6016 57.1332 42.497C57.1406 42.4606 57.1709 42.311 57.2451 42.1319C57.2783 42.0517 57.3699 41.8408 57.556 41.6173C57.7244 41.415 58.2332 40.8969 59.0932 40.8969V44.8969C59.9531 44.8969 60.4617 44.3788 60.63 44.1767C60.816 43.9534 60.9074 43.7428 60.9405 43.6629C61.0144 43.4844 61.0444 43.3358 61.0516 43.3007C61.0725 43.1988 61.0802 43.1184 61.0816 43.1048C61.0844 43.0763 61.0859 43.0547 61.0865 43.0456C61.0872 43.0349 61.0876 43.0274 61.0877 43.0245C61.088 43.0179 61.0876 43.027 61.0868 43.0621C61.0854 43.1266 61.0841 43.2291 61.0829 43.3666C61.0807 43.6388 61.0796 44.0187 61.0796 44.4408H57.0796ZM59.0932 40.8969C59.3189 40.9096 59.6689 40.9815 59.7937 41.0236C59.8714 41.0544 59.9988 41.1136 60.0492 41.1401C60.1463 41.1929 60.2175 41.2424 60.2453 41.262C60.3079 41.3061 60.3541 41.3442 60.3678 41.3555C60.4032 41.3848 60.4302 41.4092 60.4372 41.4155C60.4571 41.4335 60.4733 41.4489 60.4791 41.4544C60.4941 41.4687 60.5096 41.4837 60.5216 41.4954C60.5477 41.5208 60.5825 41.555 60.623 41.595C60.7051 41.676 60.8215 41.7914 60.9629 41.9319C61.2462 42.2135 61.6348 42.6009 62.0604 43.0266L59.232 45.855C58.8085 45.4315 58.4229 45.047 58.1431 44.7689C58.0029 44.6296 57.8906 44.5182 57.8137 44.4424C57.7748 44.404 57.7476 44.3773 57.7312 44.3613C57.7221 44.3525 57.7212 44.3517 57.7251 44.3554C57.7253 44.3555 57.7372 44.367 57.7542 44.3823C57.7597 44.3873 57.7855 44.4106 57.8201 44.4392C57.8333 44.4502 57.8793 44.4881 57.9417 44.532C57.9693 44.5515 58.0404 44.6009 58.1374 44.6537C58.1878 44.6802 58.3152 44.7393 58.3928 44.7702C58.5176 44.8122 58.8676 44.8841 59.0932 44.8969V40.8969ZM59.7718 44.4023L59.7719 44.4256L55.772 44.4481L55.7718 44.4248L59.7718 44.4023ZM59.7718 44.4023C59.7718 44.4093 59.7719 44.4187 59.7719 44.4256L55.772 44.4481C55.7719 44.4395 55.7719 44.4334 55.7718 44.4248L59.7718 44.4023Z" fill="#0D313B" mask="url(#path-3-inside-2_6490_46427)"/>
</g>
</g>
</g>
<g id="Group 1171275552">
<g id="Group 1171275553">
<g id="Vector_3">
<mask id="path-5-outside-3_6490_46427" maskUnits="userSpaceOnUse" x="49.9727" y="47.884" width="11" height="11" fill="black">
<rect fill="white" x="49.9727" y="47.884" width="11" height="11"/>
<path d="M55.755 48.884C53.1117 48.884 50.9727 51.025 50.9727 53.6683C50.9727 56.3116 53.1117 58.4526 55.755 58.4526C58.3983 58.4526 60.5412 56.3116 60.5412 53.6683C60.5412 51.025 58.3983 48.884 55.755 48.884ZM55.757 57.4952C53.6428 57.4952 51.93 55.7824 51.93 53.6683C51.93 51.5536 53.6428 49.8408 55.757 49.8408C57.8717 49.8408 59.5845 51.5536 59.5845 53.6683C59.5845 55.7824 57.8717 57.4952 55.757 57.4952Z"/>
</mask>
<path d="M55.755 48.884C53.1117 48.884 50.9727 51.025 50.9727 53.6683C50.9727 56.3116 53.1117 58.4526 55.755 58.4526C58.3983 58.4526 60.5412 56.3116 60.5412 53.6683C60.5412 51.025 58.3983 48.884 55.755 48.884ZM55.757 57.4952C53.6428 57.4952 51.93 55.7824 51.93 53.6683C51.93 51.5536 53.6428 49.8408 55.757 49.8408C57.8717 49.8408 59.5845 51.5536 59.5845 53.6683C59.5845 55.7824 57.8717 57.4952 55.757 57.4952Z" fill="#0D313B"/>
<path d="M55.755 48.884C53.1117 48.884 50.9727 51.025 50.9727 53.6683C50.9727 56.3116 53.1117 58.4526 55.755 58.4526C58.3983 58.4526 60.5412 56.3116 60.5412 53.6683C60.5412 51.025 58.3983 48.884 55.755 48.884ZM55.757 57.4952C53.6428 57.4952 51.93 55.7824 51.93 53.6683C51.93 51.5536 53.6428 49.8408 55.757 49.8408C57.8717 49.8408 59.5845 51.5536 59.5845 53.6683C59.5845 55.7824 57.8717 57.4952 55.757 57.4952Z" stroke="#0D313B" stroke-width="0.6" mask="url(#path-5-outside-3_6490_46427)"/>
</g>
<g id="Vector_4">
<mask id="path-6-outside-4_6490_46427" maskUnits="userSpaceOnUse" x="54.2793" y="50.2761" width="5" height="6" fill="black">
<rect fill="white" x="54.2793" y="50.2761" width="5" height="6"/>
<path d="M55.9967 51.2761H55.2793V54.1463L57.7888 55.6532L58.1495 55.065L55.9967 53.7876V51.2761Z"/>
</mask>
<path d="M55.9967 51.2761H55.2793V54.1463L57.7888 55.6532L58.1495 55.065L55.9967 53.7876V51.2761Z" fill="#0D313B"/>
<path d="M55.9967 51.2761H55.2793V54.1463L57.7888 55.6532L58.1495 55.065L55.9967 53.7876V51.2761Z" stroke="#0D313B" stroke-width="0.6" mask="url(#path-6-outside-4_6490_46427)"/>
</g>
</g>
</g>
</g>
<g id="Group 1171275556">
<path id="Ellipse 2662" d="M66.3402 23.5008C66.3402 28.7466 62.0994 32.9921 56.877 32.9921C51.6546 32.9921 47.4138 28.7466 47.4138 23.5008C47.4138 18.255 51.6546 14.0095 56.877 14.0095C62.0994 14.0095 66.3402 18.255 66.3402 23.5008Z" fill="#36C5F0" stroke="#0D313B" stroke-width="3.31986"/>
<path id="Vector_5" d="M61.5719 19.4404C61.4283 19.5213 60.0823 20.8078 58.5926 22.2922L55.8736 25.0092L54.9582 24.0915C54.4467 23.5967 53.9083 23.1199 53.7468 23.0389C52.652 22.4902 51.4316 23.7137 51.979 24.8112C52.1764 25.2071 54.8595 27.906 55.2634 28.1219C55.6672 28.3289 56.053 28.3379 56.4389 28.1489C56.8338 27.951 63.1154 21.6715 63.3308 21.2576C63.5462 20.8258 63.5462 20.457 63.3218 20.0161C63.0077 19.3954 62.1821 19.1255 61.5719 19.4404Z" fill="#0D313B"/>
</g>
</g>
</g>
</svg>
