<svg width="72" height="72" viewBox="0 0 72 72" fill="none" xmlns="http://www.w3.org/2000/svg">
<g id="job-estimate-template">
<g id="Group 1171275544">
<g id="Group 1171275535">
<g id="Vector">
<mask id="path-1-outside-1_6490_46285" maskUnits="userSpaceOnUse" x="0" y="3" width="63" height="56" fill="black">
<rect fill="white" y="3" width="63" height="56"/>
<path d="M55.7057 13.2026H49.3992C48.7163 12.0672 47.4986 11.2897 46.0958 11.2403V11.1457C46.0958 7.20467 42.8912 4 38.946 4H24.5969C20.6518 4 17.4471 7.20467 17.4471 11.1457V11.2403C16.0443 11.2897 14.8266 12.0672 14.1437 13.1985H7.83719C4.06892 13.2026 1 16.2674 1 20.0357V26.4615C1 28.7858 1.51012 30.9497 2.52212 32.9038V50.1531C2.52212 54.3204 5.91603 57.7143 10.0875 57.7143H53.4555C57.6269 57.7143 61.0208 54.3204 61.0208 50.1531V32.9038C62.0328 30.9497 62.5429 28.7858 62.5429 26.4615V20.0357C62.5429 16.2674 59.474 13.2026 55.7057 13.2026ZM21.5486 12.7049V11.1457C21.5486 9.46728 22.9144 8.10149 24.5969 8.10149H38.946C40.6285 8.10149 41.9943 9.46728 41.9943 11.1457V12.7049C41.9943 12.8735 42.0108 13.0381 42.0437 13.2026H21.4992C21.5321 13.0381 21.5486 12.8735 21.5486 12.7049ZM5.1056 20.0357C5.1056 18.5259 6.33153 17.3 7.83719 17.3H55.7016C57.2114 17.3 58.4373 18.5259 58.4373 20.0357V26.4615C58.4373 28.2634 58.0177 29.913 57.1867 31.3734L57.0839 31.5544C55.0969 34.5123 51.4891 36.3306 46.9926 36.3306H38.115V35.8699C38.115 34.2778 36.8191 32.9819 35.2271 32.9819H28.3158C26.7238 32.9819 25.4279 34.2778 25.4279 35.8699V36.3306H16.5503C12.0539 36.3306 8.44604 34.5123 6.45494 31.5544L6.35621 31.3734C5.52521 29.913 5.1056 28.2634 5.1056 26.4615V20.0357ZM34.6964 36.4005V43.3735H28.8465V36.4005H34.6964ZM53.4555 53.6128H10.0875C8.17452 53.6128 6.62361 52.0619 6.62361 50.1531V36.6227C9.23178 38.5973 12.6545 39.7451 16.5503 39.7451H25.4279V43.9042C25.4279 45.4962 26.7238 46.7921 28.3158 46.7921H35.2271C36.8191 46.7921 38.115 45.4962 38.115 43.9042V39.7451H46.9926C50.8926 39.7451 54.3112 38.5973 56.9193 36.6227V50.1531C56.9193 52.0619 55.3643 53.6128 53.4555 53.6128Z"/>
<path d="M5.1056 20.0357C5.1056 18.5259 6.33153 17.3 7.83719 17.3H55.7016C57.2114 17.3 58.4373 18.5259 58.4373 20.0357V26.4615C58.4373 28.2634 58.0177 29.913 57.1867 31.3734L57.0839 31.5544C55.0969 34.5123 51.4891 36.3306 46.9926 36.3306H38.115V35.8699C38.115 34.2778 36.8191 32.9819 35.2271 32.9819H28.3158C26.7238 32.9819 25.4279 34.2778 25.4279 35.8699V36.3306H16.5503C12.0539 36.3306 8.44604 34.5123 6.45494 31.5544L6.35621 31.3734C5.52521 29.913 5.1056 28.2634 5.1056 26.4615V20.0357Z"/>
</mask>
<path d="M55.7057 13.2026H49.3992C48.7163 12.0672 47.4986 11.2897 46.0958 11.2403V11.1457C46.0958 7.20467 42.8912 4 38.946 4H24.5969C20.6518 4 17.4471 7.20467 17.4471 11.1457V11.2403C16.0443 11.2897 14.8266 12.0672 14.1437 13.1985H7.83719C4.06892 13.2026 1 16.2674 1 20.0357V26.4615C1 28.7858 1.51012 30.9497 2.52212 32.9038V50.1531C2.52212 54.3204 5.91603 57.7143 10.0875 57.7143H53.4555C57.6269 57.7143 61.0208 54.3204 61.0208 50.1531V32.9038C62.0328 30.9497 62.5429 28.7858 62.5429 26.4615V20.0357C62.5429 16.2674 59.474 13.2026 55.7057 13.2026ZM21.5486 12.7049V11.1457C21.5486 9.46728 22.9144 8.10149 24.5969 8.10149H38.946C40.6285 8.10149 41.9943 9.46728 41.9943 11.1457V12.7049C41.9943 12.8735 42.0108 13.0381 42.0437 13.2026H21.4992C21.5321 13.0381 21.5486 12.8735 21.5486 12.7049ZM5.1056 20.0357C5.1056 18.5259 6.33153 17.3 7.83719 17.3H55.7016C57.2114 17.3 58.4373 18.5259 58.4373 20.0357V26.4615C58.4373 28.2634 58.0177 29.913 57.1867 31.3734L57.0839 31.5544C55.0969 34.5123 51.4891 36.3306 46.9926 36.3306H38.115V35.8699C38.115 34.2778 36.8191 32.9819 35.2271 32.9819H28.3158C26.7238 32.9819 25.4279 34.2778 25.4279 35.8699V36.3306H16.5503C12.0539 36.3306 8.44604 34.5123 6.45494 31.5544L6.35621 31.3734C5.52521 29.913 5.1056 28.2634 5.1056 26.4615V20.0357ZM34.6964 36.4005V43.3735H28.8465V36.4005H34.6964ZM53.4555 53.6128H10.0875C8.17452 53.6128 6.62361 52.0619 6.62361 50.1531V36.6227C9.23178 38.5973 12.6545 39.7451 16.5503 39.7451H25.4279V43.9042C25.4279 45.4962 26.7238 46.7921 28.3158 46.7921H35.2271C36.8191 46.7921 38.115 45.4962 38.115 43.9042V39.7451H46.9926C50.8926 39.7451 54.3112 38.5973 56.9193 36.6227V50.1531C56.9193 52.0619 55.3643 53.6128 53.4555 53.6128Z" fill="#0D313B"/>
<path d="M5.1056 20.0357C5.1056 18.5259 6.33153 17.3 7.83719 17.3H55.7016C57.2114 17.3 58.4373 18.5259 58.4373 20.0357V26.4615C58.4373 28.2634 58.0177 29.913 57.1867 31.3734L57.0839 31.5544C55.0969 34.5123 51.4891 36.3306 46.9926 36.3306H38.115V35.8699C38.115 34.2778 36.8191 32.9819 35.2271 32.9819H28.3158C26.7238 32.9819 25.4279 34.2778 25.4279 35.8699V36.3306H16.5503C12.0539 36.3306 8.44604 34.5123 6.45494 31.5544L6.35621 31.3734C5.52521 29.913 5.1056 28.2634 5.1056 26.4615V20.0357Z" fill="#2894B4"/>
<path d="M57.1867 31.3734L57.0129 31.2745L57.0128 31.2746L57.1867 31.3734ZM57.0839 31.5544L57.2499 31.666L57.2541 31.6598L57.2578 31.6533L57.0839 31.5544ZM38.115 36.3306H37.915V36.5306H38.115V36.3306ZM25.4279 36.3306V36.5306H25.6279V36.3306H25.4279ZM6.45494 31.5544L6.27936 31.6502L6.28383 31.6584L6.28903 31.6661L6.45494 31.5544ZM6.35621 31.3734L6.53182 31.2777L6.53004 31.2745L6.35621 31.3734ZM5.3056 20.0357C5.3056 18.6362 6.44218 17.5 7.83719 17.5V17.1C6.22087 17.1 4.9056 18.4157 4.9056 20.0357H5.3056ZM7.83719 17.5H55.7016V17.1H7.83719V17.5ZM55.7016 17.5C57.1009 17.5 58.2373 18.6364 58.2373 20.0357H58.6373C58.6373 18.4155 57.3219 17.1 55.7016 17.1V17.5ZM58.2373 20.0357V26.4615H58.6373V20.0357H58.2373ZM58.2373 26.4615C58.2373 28.2313 57.8255 29.8465 57.0129 31.2745L57.3605 31.4724C58.21 29.9796 58.6373 28.2954 58.6373 26.4615H58.2373ZM57.0128 31.2746L56.91 31.4556L57.2578 31.6533L57.3606 31.4722L57.0128 31.2746ZM56.9179 31.4429C54.9747 34.3356 51.4353 36.1306 46.9926 36.1306V36.5306C51.5428 36.5306 55.2191 34.689 57.2499 31.666L56.9179 31.4429ZM46.9926 36.1306H38.115V36.5306H46.9926V36.1306ZM38.315 36.3306V35.8699H37.915V36.3306H38.315ZM38.315 35.8699C38.315 34.1674 36.9296 32.7819 35.2271 32.7819V33.1819C36.7087 33.1819 37.915 34.3883 37.915 35.8699H38.315ZM35.2271 32.7819H28.3158V33.1819H35.2271V32.7819ZM28.3158 32.7819C26.6133 32.7819 25.2279 34.1674 25.2279 35.8699H25.6279C25.6279 34.3883 26.8343 33.1819 28.3158 33.1819V32.7819ZM25.2279 35.8699V36.3306H25.6279V35.8699H25.2279ZM25.4279 36.1306H16.5503V36.5306H25.4279V36.1306ZM16.5503 36.1306C12.1077 36.1306 8.56819 34.3356 6.62085 31.4428L6.28903 31.6661C8.32388 34.689 12.0001 36.5306 16.5503 36.5306V36.1306ZM6.63052 31.4587L6.53179 31.2777L6.18063 31.4692L6.27936 31.6502L6.63052 31.4587ZM6.53004 31.2745C5.71746 29.8465 5.3056 28.2313 5.3056 26.4615H4.9056C4.9056 28.2954 5.33297 29.9796 6.18238 31.4724L6.53004 31.2745ZM5.3056 26.4615V20.0357H4.9056V26.4615H5.3056ZM49.3992 13.2026L49.0565 13.4088L49.173 13.6026H49.3992V13.2026ZM46.0958 11.2403H45.6958V11.6265L46.0818 11.6401L46.0958 11.2403ZM17.4471 11.2403L17.4612 11.6401L17.8471 11.6265V11.2403H17.4471ZM14.1437 13.1985V13.5985H14.3695L14.4861 13.4052L14.1437 13.1985ZM7.83719 13.1985L7.83719 12.7985L7.83675 12.7985L7.83719 13.1985ZM2.52212 32.9038H2.92212V32.8064L2.87731 32.7198L2.52212 32.9038ZM61.0208 32.9038L60.6656 32.7198L60.6208 32.8064V32.9038H61.0208ZM42.0437 13.2026V13.6026H42.5316L42.4359 13.1242L42.0437 13.2026ZM21.4992 13.2026L21.107 13.1242L21.0113 13.6026H21.4992V13.2026ZM34.6964 36.4005H35.0964V36.0005H34.6964V36.4005ZM34.6964 43.3735V43.7735H35.0964V43.3735H34.6964ZM28.8465 43.3735H28.4465V43.7735H28.8465V43.3735ZM28.8465 36.4005V36.0005H28.4465V36.4005H28.8465ZM6.62361 36.6227L6.86505 36.3038L6.22361 35.8181V36.6227H6.62361ZM25.4279 39.7451H25.8279V39.3451H25.4279V39.7451ZM38.115 39.7451V39.3451H37.715V39.7451H38.115ZM56.9193 36.6227H57.3193V35.8181L56.6779 36.3038L56.9193 36.6227ZM55.7057 12.8026H49.3992V13.6026H55.7057V12.8026ZM49.742 12.9965C48.9933 11.7517 47.6555 10.895 46.1099 10.8406L46.0818 11.6401C47.3418 11.6844 48.4393 12.3828 49.0565 13.4088L49.742 12.9965ZM46.4958 11.2403V11.1457H45.6958V11.2403H46.4958ZM46.4958 11.1457C46.4958 6.98361 43.1119 3.6 38.946 3.6V4.4C42.6704 4.4 45.6958 7.42574 45.6958 11.1457H46.4958ZM38.946 3.6H24.5969V4.4H38.946V3.6ZM24.5969 3.6C20.431 3.6 17.0471 6.98361 17.0471 11.1457H17.8471C17.8471 7.42574 20.8725 4.4 24.5969 4.4V3.6ZM17.0471 11.1457V11.2403H17.8471V11.1457H17.0471ZM17.433 10.8406C15.8876 10.895 14.5499 11.7515 13.8012 12.9918L14.4861 13.4052C15.1032 12.3829 16.201 11.6844 17.4612 11.6401L17.433 10.8406ZM14.1437 12.7985H7.83719V13.5985H14.1437V12.7985ZM7.83675 12.7985C3.84831 12.8029 0.6 16.0461 0.6 20.0357H1.4C1.4 16.4888 4.28953 13.6024 7.83763 13.5985L7.83675 12.7985ZM0.6 20.0357V26.4615H1.4V20.0357H0.6ZM0.6 26.4615C0.6 28.8459 1.12373 31.0734 2.16693 33.0877L2.87731 32.7198C1.8965 30.826 1.4 28.7257 1.4 26.4615H0.6ZM2.12212 32.9038V50.1531H2.92212V32.9038H2.12212ZM2.12212 50.1531C2.12212 54.5415 5.69526 58.1143 10.0875 58.1143V57.3143C6.1368 57.3143 2.92212 54.0993 2.92212 50.1531H2.12212ZM10.0875 58.1143H53.4555V57.3143H10.0875V58.1143ZM53.4555 58.1143C57.8477 58.1143 61.4208 54.5415 61.4208 50.1531H60.6208C60.6208 54.0993 57.4061 57.3143 53.4555 57.3143V58.1143ZM61.4208 50.1531V32.9038H60.6208V50.1531H61.4208ZM61.376 33.0877C62.4192 31.0734 62.9429 28.8459 62.9429 26.4615H62.1429C62.1429 28.7257 61.6464 30.826 60.6656 32.7198L61.376 33.0877ZM62.9429 26.4615V20.0357H62.1429V26.4615H62.9429ZM62.9429 20.0357C62.9429 16.0462 59.6946 12.8026 55.7057 12.8026V13.6026C59.2534 13.6026 62.1429 16.4887 62.1429 20.0357H62.9429ZM21.9486 12.7049V11.1457H21.1486V12.7049H21.9486ZM21.9486 11.1457C21.9486 9.68855 23.1349 8.50149 24.5969 8.50149V7.70149C22.6938 7.70149 21.1486 9.24602 21.1486 11.1457H21.9486ZM24.5969 8.50149H38.946V7.70149H24.5969V8.50149ZM38.946 8.50149C40.408 8.50149 41.5943 9.68855 41.5943 11.1457H42.3943C42.3943 9.24602 40.8491 7.70149 38.946 7.70149V8.50149ZM41.5943 11.1457V12.7049H42.3943V11.1457H41.5943ZM41.5943 12.7049C41.5943 12.9001 41.6134 13.0909 41.6515 13.2811L42.4359 13.1242C42.4082 12.9853 42.3943 12.847 42.3943 12.7049H41.5943ZM42.0437 12.8026H21.4992V13.6026H42.0437V12.8026ZM21.8915 13.2811C21.9295 13.0909 21.9486 12.9001 21.9486 12.7049H21.1486C21.1486 12.847 21.1348 12.9853 21.107 13.1242L21.8915 13.2811ZM34.2964 36.4005V43.3735H35.0964V36.4005H34.2964ZM34.6964 42.9735H28.8465V43.7735H34.6964V42.9735ZM29.2465 43.3735V36.4005H28.4465V43.3735H29.2465ZM28.8465 36.8005H34.6964V36.0005H28.8465V36.8005ZM53.4555 53.2128H10.0875V54.0128H53.4555V53.2128ZM10.0875 53.2128C8.39513 53.2128 7.02361 51.8407 7.02361 50.1531H6.22361C6.22361 52.2831 7.95392 54.0128 10.0875 54.0128V53.2128ZM7.02361 50.1531V36.6227H6.22361V50.1531H7.02361ZM6.38216 36.9416C9.06616 38.9736 12.5756 40.1451 16.5503 40.1451V39.3451C12.7334 39.3451 9.3974 38.221 6.86505 36.3038L6.38216 36.9416ZM16.5503 40.1451H25.4279V39.3451H16.5503V40.1451ZM25.0279 39.7451V43.9042H25.8279V39.7451H25.0279ZM25.0279 43.9042C25.0279 45.7171 26.5029 47.1921 28.3158 47.1921V46.3921C26.9447 46.3921 25.8279 45.2753 25.8279 43.9042H25.0279ZM28.3158 47.1921H35.2271V46.3921H28.3158V47.1921ZM35.2271 47.1921C37.0401 47.1921 38.515 45.7171 38.515 43.9042H37.715C37.715 45.2753 36.5982 46.3921 35.2271 46.3921V47.1921ZM38.515 43.9042V39.7451H37.715V43.9042H38.515ZM38.115 40.1451H46.9926V39.3451H38.115V40.1451ZM46.9926 40.1451C50.9715 40.1451 54.4768 38.9736 57.1608 36.9416L56.6779 36.3038C54.1455 38.221 50.8136 39.3451 46.9926 39.3451V40.1451ZM56.5193 36.6227V50.1531H57.3193V36.6227H56.5193ZM56.5193 50.1531C56.5193 51.8404 55.144 53.2128 53.4555 53.2128V54.0128C55.5846 54.0128 57.3193 52.2834 57.3193 50.1531H56.5193Z" fill="#0D313B" mask="url(#path-1-outside-1_6490_46285)"/>
</g>
<g id="Group 1171275327">
<g id="Vector_2">
<path d="M51.5464 41.5861C50.9931 41.7531 50.4815 42.2073 50.21 42.7554L50.043 43.1V54.7672V66.4344L50.21 66.779C50.4293 67.2175 50.826 67.6142 51.2645 67.8334L51.609 68.0005H60.2485H68.888L69.1908 67.8595C69.6136 67.6612 70.0782 67.2018 70.287 66.779L70.4541 66.4344L70.4698 57.3512C70.475 52.3554 70.4698 48.2106 70.4541 48.1375C70.4176 47.9913 64.1794 41.7062 63.9445 41.5809C63.7409 41.4765 51.8857 41.4765 51.5464 41.5861ZM62.8169 45.8615C62.8169 45.8704 62.817 45.8794 62.817 45.8883C62.8325 48.6443 62.8329 48.707 62.9422 48.8527C63.1875 49.1868 63.1197 49.1815 66.1892 49.1815H68.9663V57.5966C68.9663 65.855 68.9663 66.022 68.8619 66.1838C68.6479 66.5388 69.3056 66.5127 60.2485 66.5127C51.1914 66.5127 51.8492 66.5388 51.6351 66.1838C51.5307 66.022 51.5307 65.8341 51.5307 54.7776C51.5307 42.3587 51.5046 43.3401 51.8596 43.1261C52.0214 43.0269 52.1624 43.0217 57.4139 43.0217H62.8064L62.8169 45.8615ZM66.1213 45.8928L67.8962 47.6677H66.1056H64.3203V45.8928C64.3203 44.9166 64.3255 44.1179 64.336 44.1179C64.3412 44.1179 65.1451 44.9166 66.1213 45.8928Z" fill="#0D313B"/>
<path d="M62.8169 45.8615L62.817 45.8883C62.8325 48.6443 62.8329 48.707 62.9422 48.8527C63.1875 49.1868 63.1197 49.1815 66.1892 49.1815H68.9663V57.5966C68.9663 65.855 68.9663 66.022 68.8619 66.1838C68.6479 66.5388 69.3056 66.5127 60.2485 66.5127C51.1914 66.5127 51.8492 66.5388 51.6351 66.1838C51.5307 66.022 51.5307 65.8341 51.5307 54.7776C51.5307 42.3587 51.5046 43.3401 51.8596 43.1261C52.0214 43.0269 52.1624 43.0217 57.4139 43.0217H62.8064L62.8169 45.8615Z" fill="#36C5F0"/>
</g>
</g>
</g>
<g id="Group">
<path id="Vector_3" d="M60.4977 51C57.459 51 55 53.4613 55 56.5C55 59.5387 57.459 62 60.4977 62C63.5365 62 66 59.5387 66 56.5C66 53.4613 63.5365 51 60.4977 51ZM60.5 60.8994C58.0696 60.8994 56.1006 58.9304 56.1006 56.5C56.1006 54.0689 58.0696 52.0999 60.5 52.0999C62.9311 52.0999 64.9002 54.0689 64.9002 56.5C64.9002 58.9304 62.9311 60.8994 60.5 60.8994Z" fill="#0D313B"/>
</g>
<path id="Vector_4" d="M60.7759 53.75H59.9512V57.0496L62.8361 58.7819L63.2507 58.1057L60.7759 56.6372V53.75Z" fill="#0D313B"/>
</g>
</g>
</svg>
