<svg width="72" height="72" viewBox="0 0 72 72" fill="none" xmlns="http://www.w3.org/2000/svg">
<g id="pricelist">
<g id="Group">
<path id="Vector" d="M17.9607 67.885C16.7042 67.885 15.6371 67.5447 14.6966 66.8435C13.4299 65.8992 12.7607 64.5481 12.6507 62.7145C12.6404 62.5418 12.6417 62.3716 12.643 62.2078C12.643 62.1515 12.6443 62.0952 12.6443 62.0389V50.8138C12.6456 37.4198 12.6468 23.5691 12.6289 9.94737C12.6264 8.22898 13.0755 6.83687 14.0006 5.68914C14.5674 4.98669 15.3594 4.49408 16.4214 4.18188C16.5263 4.15117 16.6312 4.11406 16.7413 4.07568C16.795 4.05648 16.8475 4.03857 16.9012 4.02066L16.9575 4.00146H54.8989L54.954 4.01938C55.0461 4.05009 55.1382 4.07952 55.2303 4.10766C55.4363 4.17292 55.6487 4.23945 55.8573 4.32006C57.5898 4.98157 58.685 6.35193 59.1162 8.39148C59.2019 8.79964 59.2096 9.21932 59.2096 9.64924C59.2122 20.1285 59.2122 30.6064 59.2135 41.0856C59.2135 48.1498 59.2135 55.214 59.2147 62.2769C59.2147 63.5065 58.9972 64.4559 58.5302 65.2646C57.5283 67.0009 55.9661 67.8825 53.8868 67.8825C51.0502 67.8825 39.4335 67.8825 39.4335 67.8825H33.4888L25.2117 67.8812C22.7972 67.8812 20.3828 67.8825 17.9696 67.885H17.9607V67.885ZM48.2365 65.8327C48.811 65.8327 49.3868 65.8353 49.9613 65.8365C50.5358 65.8391 51.109 65.8404 51.6835 65.8404C52.5792 65.8404 53.3149 65.8352 53.9982 65.8237C55.4018 65.7994 56.3307 65.216 56.7581 64.0887C56.9973 63.4592 57.1291 62.7695 57.1291 62.149C57.147 47.0597 57.147 31.717 57.1458 16.8798V9.82453C57.1458 9.72985 57.1432 9.63644 57.1406 9.54176C57.1368 9.39845 57.1317 9.25003 57.1368 9.10033C57.1573 8.43498 56.8323 7.70566 56.2437 7.09917C55.595 6.42998 54.7441 6.03077 53.9675 6.03077C53.9444 6.03077 53.9201 6.03077 53.8971 6.03205C53.1358 6.05508 52.3182 6.0666 51.3253 6.0666C50.6714 6.0666 50.0163 6.06148 49.3625 6.05764C48.7099 6.05253 48.0574 6.04869 47.4048 6.04869H37.367C31.265 6.04869 24.7062 6.04997 18.0924 6.0602C17.6113 6.06148 17.0701 6.08835 16.7016 6.28284C15.3172 7.01344 14.6774 8.15733 14.6877 9.88467C14.726 16.2912 14.7196 22.8052 14.7145 29.1042C14.712 31.3792 14.7107 33.6542 14.7107 35.9292V39.9814C14.7107 47.3514 14.7107 54.7214 14.7132 62.0914V62.2347C14.712 62.5379 14.7107 62.8258 14.7593 63.0945C15.005 64.4751 15.6895 65.317 16.8513 65.6664C17.207 65.7738 17.6331 65.8263 18.1526 65.8263C25.0338 65.8327 31.9099 65.834 38.3164 65.834L48.2365 65.8327Z" fill="#0D313B"/>
<g id="Vector_2">
<mask id="path-2-outside-1_6490_46344" maskUnits="userSpaceOnUse" x="11.9922" y="3.3623" width="48" height="65" fill="black">
<rect fill="white" x="11.9922" y="3.3623" width="48" height="65"/>
<path d="M54.84 4.36358C55.1368 4.46083 55.4375 4.54783 55.728 4.65915C57.486 5.3309 58.3881 6.69614 58.7617 8.46571C58.8423 8.84956 58.8474 9.25389 58.8474 9.64926C58.8513 27.1914 58.85 44.7348 58.8525 62.2769C58.8525 63.2634 58.7105 64.2282 58.2166 65.0842C57.2634 66.736 55.7881 67.5204 53.8867 67.5204C47.0874 67.5191 40.2894 67.5204 33.49 67.5204C28.3169 67.5204 23.1426 67.5165 17.9695 67.5229C16.8423 67.5242 15.8212 67.2299 14.914 66.5531C13.6217 65.5896 13.1074 64.2448 13.014 62.6928C13.0012 62.4753 13.0076 62.2565 13.0076 62.039C13.0076 44.6747 13.0152 27.3104 12.9922 9.9461C12.9896 8.43244 13.3402 7.08511 14.2832 5.91563C14.8577 5.20295 15.6485 4.78582 16.5237 4.52864C16.69 4.48002 16.8525 4.4186 17.0176 4.3623C29.6259 4.36358 42.2329 4.36358 54.84 4.36358ZM14.3472 35.9279C14.3472 44.6491 14.3472 53.369 14.3498 62.0901C14.3498 62.4458 14.3383 62.8092 14.4009 63.1572C14.6479 64.5404 15.3427 65.5909 16.7463 66.0131C17.1928 66.1475 17.6816 66.1884 18.1512 66.1884C28.18 66.1974 38.2089 66.1961 48.2377 66.1961C50.1608 66.1961 52.0826 66.2204 54.0045 66.1871C55.417 66.1628 56.5712 65.6062 57.097 64.218C57.3427 63.5692 57.4911 62.8412 57.4924 62.1503C57.5129 44.7092 57.509 27.2682 57.509 9.82583C57.509 9.58784 57.4924 9.34985 57.5001 9.11314C57.5538 7.39859 55.6742 5.61495 53.8855 5.66997C51.7269 5.7365 49.5658 5.68532 47.4047 5.68532C37.6331 5.68532 27.8627 5.68148 18.0911 5.69556C17.5665 5.69684 16.9753 5.72499 16.5313 5.95914C14.9806 6.77803 14.3139 8.07545 14.3242 9.88341C14.3754 18.5662 14.3472 27.2477 14.3472 35.9279Z"/>
</mask>
<path d="M54.84 4.36358C55.1368 4.46083 55.4375 4.54783 55.728 4.65915C57.486 5.3309 58.3881 6.69614 58.7617 8.46571C58.8423 8.84956 58.8474 9.25389 58.8474 9.64926C58.8513 27.1914 58.85 44.7348 58.8525 62.2769C58.8525 63.2634 58.7105 64.2282 58.2166 65.0842C57.2634 66.736 55.7881 67.5204 53.8867 67.5204C47.0874 67.5191 40.2894 67.5204 33.49 67.5204C28.3169 67.5204 23.1426 67.5165 17.9695 67.5229C16.8423 67.5242 15.8212 67.2299 14.914 66.5531C13.6217 65.5896 13.1074 64.2448 13.014 62.6928C13.0012 62.4753 13.0076 62.2565 13.0076 62.039C13.0076 44.6747 13.0152 27.3104 12.9922 9.9461C12.9896 8.43244 13.3402 7.08511 14.2832 5.91563C14.8577 5.20295 15.6485 4.78582 16.5237 4.52864C16.69 4.48002 16.8525 4.4186 17.0176 4.3623C29.6259 4.36358 42.2329 4.36358 54.84 4.36358ZM14.3472 35.9279C14.3472 44.6491 14.3472 53.369 14.3498 62.0901C14.3498 62.4458 14.3383 62.8092 14.4009 63.1572C14.6479 64.5404 15.3427 65.5909 16.7463 66.0131C17.1928 66.1475 17.6816 66.1884 18.1512 66.1884C28.18 66.1974 38.2089 66.1961 48.2377 66.1961C50.1608 66.1961 52.0826 66.2204 54.0045 66.1871C55.417 66.1628 56.5712 65.6062 57.097 64.218C57.3427 63.5692 57.4911 62.8412 57.4924 62.1503C57.5129 44.7092 57.509 27.2682 57.509 9.82583C57.509 9.58784 57.4924 9.34985 57.5001 9.11314C57.5538 7.39859 55.6742 5.61495 53.8855 5.66997C51.7269 5.7365 49.5658 5.68532 47.4047 5.68532C37.6331 5.68532 27.8627 5.68148 18.0911 5.69556C17.5665 5.69684 16.9753 5.72499 16.5313 5.95914C14.9806 6.77803 14.3139 8.07545 14.3242 9.88341C14.3754 18.5662 14.3472 27.2477 14.3472 35.9279Z" fill="#0D313B"/>
<path d="M54.84 4.36358C55.1368 4.46083 55.4375 4.54783 55.728 4.65915C57.486 5.3309 58.3881 6.69614 58.7617 8.46571C58.8423 8.84956 58.8474 9.25389 58.8474 9.64926C58.8513 27.1914 58.85 44.7348 58.8525 62.2769C58.8525 63.2634 58.7105 64.2282 58.2166 65.0842C57.2634 66.736 55.7881 67.5204 53.8867 67.5204C47.0874 67.5191 40.2894 67.5204 33.49 67.5204C28.3169 67.5204 23.1426 67.5165 17.9695 67.5229C16.8423 67.5242 15.8212 67.2299 14.914 66.5531C13.6217 65.5896 13.1074 64.2448 13.014 62.6928C13.0012 62.4753 13.0076 62.2565 13.0076 62.039C13.0076 44.6747 13.0152 27.3104 12.9922 9.9461C12.9896 8.43244 13.3402 7.08511 14.2832 5.91563C14.8577 5.20295 15.6485 4.78582 16.5237 4.52864C16.69 4.48002 16.8525 4.4186 17.0176 4.3623C29.6259 4.36358 42.2329 4.36358 54.84 4.36358ZM14.3472 35.9279C14.3472 44.6491 14.3472 53.369 14.3498 62.0901C14.3498 62.4458 14.3383 62.8092 14.4009 63.1572C14.6479 64.5404 15.3427 65.5909 16.7463 66.0131C17.1928 66.1475 17.6816 66.1884 18.1512 66.1884C28.18 66.1974 38.2089 66.1961 48.2377 66.1961C50.1608 66.1961 52.0826 66.2204 54.0045 66.1871C55.417 66.1628 56.5712 65.6062 57.097 64.218C57.3427 63.5692 57.4911 62.8412 57.4924 62.1503C57.5129 44.7092 57.509 27.2682 57.509 9.82583C57.509 9.58784 57.4924 9.34985 57.5001 9.11314C57.5538 7.39859 55.6742 5.61495 53.8855 5.66997C51.7269 5.7365 49.5658 5.68532 47.4047 5.68532C37.6331 5.68532 27.8627 5.68148 18.0911 5.69556C17.5665 5.69684 16.9753 5.72499 16.5313 5.95914C14.9806 6.77803 14.3139 8.07545 14.3242 9.88341C14.3754 18.5662 14.3472 27.2477 14.3472 35.9279Z" stroke="#0D313B" stroke-width="1.6" mask="url(#path-2-outside-1_6490_46344)"/>
</g>
<g id="Vector_3">
<mask id="path-3-inside-2_6490_46344" fill="white">
<path d="M44.9481 19.2799C44.975 24.4082 40.9804 28.5768 36.0082 28.6114C30.9861 28.6459 26.9172 24.531 26.9121 19.3797C26.907 14.2795 30.7609 9.99573 35.9084 9.98294C40.9036 9.97014 44.9213 14.1017 44.9481 19.2799ZM36.0031 11.3175C31.9508 11.2087 28.2978 14.8041 28.2377 19.1967C28.1776 23.5586 31.5951 27.2154 35.8546 27.2832C40.0476 27.3498 43.5458 23.794 43.6174 19.4066C43.6853 15.0728 40.1781 11.3072 36.0031 11.3175Z"/>
<path d="M36.0031 11.3175C31.9508 11.2087 28.2978 14.8041 28.2377 19.1967C28.1776 23.5586 31.5951 27.2154 35.8546 27.2832C40.0476 27.3498 43.5458 23.794 43.6174 19.4066C43.6853 15.0728 40.1781 11.3072 36.0031 11.3175Z"/>
</mask>
<path d="M44.9481 19.2799C44.975 24.4082 40.9804 28.5768 36.0082 28.6114C30.9861 28.6459 26.9172 24.531 26.9121 19.3797C26.907 14.2795 30.7609 9.99573 35.9084 9.98294C40.9036 9.97014 44.9213 14.1017 44.9481 19.2799ZM36.0031 11.3175C31.9508 11.2087 28.2978 14.8041 28.2377 19.1967C28.1776 23.5586 31.5951 27.2154 35.8546 27.2832C40.0476 27.3498 43.5458 23.794 43.6174 19.4066C43.6853 15.0728 40.1781 11.3072 36.0031 11.3175Z" fill="#0D313B"/>
<path d="M36.0031 11.3175C31.9508 11.2087 28.2978 14.8041 28.2377 19.1967C28.1776 23.5586 31.5951 27.2154 35.8546 27.2832C40.0476 27.3498 43.5458 23.794 43.6174 19.4066C43.6853 15.0728 40.1781 11.3072 36.0031 11.3175Z" fill="#36C5F0"/>
<path d="M36.0031 11.3175L35.9896 11.8173L35.997 11.8175L36.0043 11.8175L36.0031 11.3175ZM28.2377 19.1967L28.7376 19.2036L28.7376 19.2036L28.2377 19.1967ZM35.8546 27.2832L35.8467 27.7832L35.8467 27.7832L35.8546 27.2832ZM43.6174 19.4066L44.1174 19.4147L44.1174 19.4144L43.6174 19.4066ZM36.0165 10.8177C31.6643 10.7008 27.8014 14.5404 27.7377 19.1899L28.7376 19.2036C28.7943 15.0679 32.2373 11.7166 35.9896 11.8173L36.0165 10.8177ZM27.7377 19.1898C27.674 23.812 31.2963 27.7107 35.8467 27.7832L35.8626 26.7833C31.894 26.7201 28.6811 23.3052 28.7376 19.2036L27.7377 19.1898ZM35.8467 27.7832C40.3377 27.8545 44.0416 24.0556 44.1174 19.4147L43.1175 19.3984C43.05 23.5324 39.7575 26.8451 35.8626 26.7833L35.8467 27.7832ZM44.1174 19.4144C44.1892 14.8254 40.4803 10.8065 36.0018 10.8175L36.0043 11.8175C39.8759 11.808 43.1813 15.3203 43.1175 19.3987L44.1174 19.4144ZM44.9481 19.2799L43.9482 19.2851L43.9482 19.2851L44.9481 19.2799ZM36.0082 28.6114L36.0151 29.6114L36.0151 29.6114L36.0082 28.6114ZM26.9121 19.3797L27.9121 19.3787L27.9121 19.3787L26.9121 19.3797ZM35.9084 9.98294L35.9109 10.9829L35.9109 10.9829L35.9084 9.98294ZM43.9482 19.2851C43.9723 23.8908 40.3932 27.5809 36.0012 27.6114L36.0151 29.6114C41.5675 29.5728 45.9777 24.9255 45.9481 19.2746L43.9482 19.2851ZM36.0013 27.6114C31.5541 27.642 27.9167 23.9959 27.9121 19.3787L25.9121 19.3807C25.9178 25.0661 30.4181 29.6499 36.0151 29.6114L36.0013 27.6114ZM27.9121 19.3787C27.9075 14.7738 31.3699 10.9942 35.9109 10.9829L35.9059 8.98294C30.1519 8.99725 25.9065 13.7853 25.9121 19.3807L27.9121 19.3787ZM35.9109 10.9829C40.3215 10.9716 43.924 14.6242 43.9482 19.2851L45.9481 19.2747C45.9186 13.5792 41.4857 8.96865 35.9058 8.98294L35.9109 10.9829Z" fill="#0D313B" mask="url(#path-3-inside-2_6490_46344)"/>
</g>
<path id="Vector_4" d="M31.0655 52.3399C30.9427 52.3399 30.7981 52.3373 30.651 52.3207C30.0918 52.2567 29.7592 51.8805 29.7374 51.2881C29.7157 50.7136 30.0227 50.3157 30.5819 50.1954C30.7303 50.1634 30.8775 50.1596 30.9875 50.1596C31.0336 50.1596 31.0783 50.1609 31.1244 50.1609C31.1653 50.1621 31.2063 50.1621 31.2472 50.1621C34.0327 50.1621 36.817 50.1609 39.6012 50.1609C42.8192 50.1609 46.0359 50.1609 49.2538 50.1621C49.3025 50.1621 49.3549 50.1583 49.4074 50.1545C49.4777 50.1493 49.5481 50.1455 49.6159 50.1455C49.7477 50.1455 49.9435 50.1596 50.1073 50.2824C50.2378 50.3797 50.6677 50.7328 50.7521 51.2049C50.7995 51.4711 50.7406 51.7308 50.5871 51.9343C50.4246 52.1505 50.1661 52.2874 49.8616 52.3194C49.6902 52.3373 49.5238 52.3386 49.3677 52.3386H36.9961C35.0922 52.3386 31.1781 52.3386 31.1781 52.3386L31.0655 52.3399Z" fill="#0D313B"/>
<g id="Vector_5">
<mask id="path-6-outside-3_6490_46344" maskUnits="userSpaceOnUse" x="29.0977" y="49.5117" width="23" height="4" fill="black">
<rect fill="white" x="29.0977" y="49.5117" width="23" height="4"/>
<path d="M40.2566 51.978C37.2663 51.978 34.2748 51.978 31.2846 51.978C31.0863 51.978 30.8867 51.9844 30.6909 51.9626C30.2904 51.9166 30.1126 51.6671 30.0985 51.2768C30.0831 50.8763 30.2789 50.6332 30.6564 50.5526C30.847 50.5117 31.0505 50.5283 31.2475 50.5283C37.2484 50.527 43.2506 50.527 49.2515 50.5283C49.4691 50.5283 49.7442 50.4682 49.8887 50.5769C50.1127 50.7433 50.3468 51.0132 50.3929 51.2717C50.4556 51.6248 50.2329 51.9191 49.8222 51.9614C49.6264 51.9818 49.4268 51.978 49.2285 51.978C46.2383 51.978 43.2481 51.978 40.2566 51.978Z"/>
</mask>
<path d="M40.2566 51.978C37.2663 51.978 34.2748 51.978 31.2846 51.978C31.0863 51.978 30.8867 51.9844 30.6909 51.9626C30.2904 51.9166 30.1126 51.6671 30.0985 51.2768C30.0831 50.8763 30.2789 50.6332 30.6564 50.5526C30.847 50.5117 31.0505 50.5283 31.2475 50.5283C37.2484 50.527 43.2506 50.527 49.2515 50.5283C49.4691 50.5283 49.7442 50.4682 49.8887 50.5769C50.1127 50.7433 50.3468 51.0132 50.3929 51.2717C50.4556 51.6248 50.2329 51.9191 49.8222 51.9614C49.6264 51.9818 49.4268 51.978 49.2285 51.978C46.2383 51.978 43.2481 51.978 40.2566 51.978Z" fill="#0D313B"/>
<path d="M40.2566 51.978C37.2663 51.978 34.2748 51.978 31.2846 51.978C31.0863 51.978 30.8867 51.9844 30.6909 51.9626C30.2904 51.9166 30.1126 51.6671 30.0985 51.2768C30.0831 50.8763 30.2789 50.6332 30.6564 50.5526C30.847 50.5117 31.0505 50.5283 31.2475 50.5283C37.2484 50.527 43.2506 50.527 49.2515 50.5283C49.4691 50.5283 49.7442 50.4682 49.8887 50.5769C50.1127 50.7433 50.3468 51.0132 50.3929 51.2717C50.4556 51.6248 50.2329 51.9191 49.8222 51.9614C49.6264 51.9818 49.4268 51.978 49.2285 51.978C46.2383 51.978 43.2481 51.978 40.2566 51.978Z" stroke="#0D313B" stroke-width="1.6" mask="url(#path-6-outside-3_6490_46344)"/>
</g>
<path id="Vector_6" d="M30.942 35.4837C30.7757 35.4837 30.6414 35.4505 30.5288 35.3827C30.0988 35.1191 29.8519 34.8517 29.7751 34.5638C29.7099 34.3207 29.7419 34.0865 29.8685 33.8882C30.0182 33.6528 30.2895 33.4903 30.6324 33.4288C30.7514 33.4084 30.8653 33.4045 30.951 33.4045C30.9894 33.4045 31.0278 33.4045 31.0662 33.4058C31.1007 33.4058 31.1353 33.4071 31.1698 33.4071H38.4054C42.0546 33.4071 45.7038 33.4071 49.3542 33.4084C49.3926 33.4084 49.4336 33.4058 49.4758 33.4045C49.5295 33.402 49.5858 33.3994 49.6396 33.3994C49.7944 33.3994 49.994 33.416 50.1578 33.5478C50.3305 33.6873 50.7348 34.0558 50.7464 34.4806C50.7592 34.9604 50.1424 35.3264 50.0721 35.3673C49.9044 35.4633 49.7202 35.4748 49.5961 35.4748C49.5321 35.4748 49.4668 35.4709 49.4016 35.4671C49.3504 35.4645 49.3005 35.4607 49.2519 35.4607C47.4337 35.462 45.6155 35.462 43.7986 35.462C43.7986 35.462 33.0993 35.462 31.3054 35.462C31.2581 35.462 31.2082 35.4671 31.157 35.4709C31.0866 35.4773 31.0163 35.4837 30.942 35.4837Z" fill="#0D313B"/>
<g id="Vector_7">
<mask id="path-8-outside-4_6490_46344" maskUnits="userSpaceOnUse" x="29.1055" y="32.7632" width="23" height="4" fill="black">
<rect fill="white" x="29.1055" y="32.7632" width="23" height="4"/>
<path d="M40.276 35.0999C37.2845 35.0999 34.2943 35.0999 31.3028 35.0999C31.1044 35.0999 30.8652 35.1614 30.718 35.0718C30.48 34.9259 30.1896 34.7097 30.1256 34.4691C30.0245 34.0904 30.3175 33.8537 30.695 33.7859C30.8485 33.759 31.011 33.7705 31.1697 33.7705C37.2308 33.7705 43.2918 33.7693 49.3542 33.7718C49.5499 33.7718 49.8033 33.7296 49.9299 33.8319C50.1359 33.997 50.3765 34.2631 50.3829 34.4922C50.388 34.6803 50.1052 34.9323 49.8915 35.0539C49.7239 35.1499 49.4668 35.0999 49.2492 35.0999C46.2577 35.1012 43.2675 35.0999 40.276 35.0999Z"/>
</mask>
<path d="M40.276 35.0999C37.2845 35.0999 34.2943 35.0999 31.3028 35.0999C31.1044 35.0999 30.8652 35.1614 30.718 35.0718C30.48 34.9259 30.1896 34.7097 30.1256 34.4691C30.0245 34.0904 30.3175 33.8537 30.695 33.7859C30.8485 33.759 31.011 33.7705 31.1697 33.7705C37.2308 33.7705 43.2918 33.7693 49.3542 33.7718C49.5499 33.7718 49.8033 33.7296 49.9299 33.8319C50.1359 33.997 50.3765 34.2631 50.3829 34.4922C50.388 34.6803 50.1052 34.9323 49.8915 35.0539C49.7239 35.1499 49.4668 35.0999 49.2492 35.0999C46.2577 35.1012 43.2675 35.0999 40.276 35.0999Z" fill="#0D313B"/>
<path d="M40.276 35.0999C37.2845 35.0999 34.2943 35.0999 31.3028 35.0999C31.1044 35.0999 30.8652 35.1614 30.718 35.0718C30.48 34.9259 30.1896 34.7097 30.1256 34.4691C30.0245 34.0904 30.3175 33.8537 30.695 33.7859C30.8485 33.759 31.011 33.7705 31.1697 33.7705C37.2308 33.7705 43.2918 33.7693 49.3542 33.7718C49.5499 33.7718 49.8033 33.7296 49.9299 33.8319C50.1359 33.997 50.3765 34.2631 50.3829 34.4922C50.388 34.6803 50.1052 34.9323 49.8915 35.0539C49.7239 35.1499 49.4668 35.0999 49.2492 35.0999C46.2577 35.1012 43.2675 35.0999 40.276 35.0999Z" stroke="#0D313B" stroke-width="1.6" mask="url(#path-8-outside-4_6490_46344)"/>
</g>
<path id="Vector_8" d="M30.939 43.9211C30.8161 43.9211 30.6344 43.9095 30.4694 43.811C30.3107 43.7163 29.7938 43.3734 29.7759 42.9205C29.7644 42.6275 29.9512 42.3293 30.3645 41.9813C30.5193 41.8508 30.7163 41.8354 30.8507 41.8354C30.9019 41.8354 30.9543 41.838 31.0055 41.8406C31.0439 41.8418 31.081 41.8444 31.1155 41.8444C34.0354 41.8431 36.9552 41.8431 39.8738 41.8431C43.056 41.8431 46.2381 41.8431 49.4203 41.8444C49.451 41.8444 49.4842 41.8431 49.5175 41.8418C49.561 41.8406 49.6045 41.8393 49.648 41.8393C49.8028 41.8393 50.0012 41.8559 50.1624 41.9839C50.5821 42.3165 50.7714 42.6185 50.7433 42.9064C50.6972 43.3773 50.1803 43.7317 50.0779 43.7969C49.909 43.9057 49.7171 43.9172 49.5866 43.9172C49.5226 43.9172 49.4561 43.9134 49.3908 43.9095C49.3397 43.907 49.2898 43.9031 49.2424 43.9031C47.4357 43.9044 45.6303 43.9044 43.825 43.9044H36.6392C34.8568 43.9044 33.0758 43.9044 31.2934 43.9031C31.2435 43.9031 31.191 43.907 31.1386 43.9095C31.0746 43.9172 31.0055 43.9211 30.939 43.9211Z" fill="#0D313B"/>
<g id="Vector_9">
<mask id="path-10-outside-5_6490_46344" maskUnits="userSpaceOnUse" x="29.1367" y="41.1997" width="23" height="4" fill="black">
<rect fill="white" x="29.1367" y="41.1997" width="23" height="4"/>
<path d="M40.2106 43.5446C37.2395 43.5446 34.2672 43.5446 31.2962 43.5433C31.0787 43.5433 30.8189 43.597 30.6539 43.4998C30.4312 43.3667 30.1446 43.1172 30.1369 42.9074C30.128 42.6937 30.3928 42.4314 30.5963 42.26C30.7063 42.1678 30.9379 42.2088 31.1145 42.2088C37.2152 42.2062 43.3172 42.2062 49.4179 42.2088C49.5945 42.2088 49.8197 42.1768 49.9361 42.2689C50.1332 42.425 50.4006 42.6822 50.3827 42.8728C50.3609 43.0993 50.1025 43.3527 49.8824 43.4934C49.7237 43.5958 49.4589 43.5433 49.2426 43.5433C46.2319 43.5459 43.2212 43.5446 40.2106 43.5446Z"/>
</mask>
<path d="M40.2106 43.5446C37.2395 43.5446 34.2672 43.5446 31.2962 43.5433C31.0787 43.5433 30.8189 43.597 30.6539 43.4998C30.4312 43.3667 30.1446 43.1172 30.1369 42.9074C30.128 42.6937 30.3928 42.4314 30.5963 42.26C30.7063 42.1678 30.9379 42.2088 31.1145 42.2088C37.2152 42.2062 43.3172 42.2062 49.4179 42.2088C49.5945 42.2088 49.8197 42.1768 49.9361 42.2689C50.1332 42.425 50.4006 42.6822 50.3827 42.8728C50.3609 43.0993 50.1025 43.3527 49.8824 43.4934C49.7237 43.5958 49.4589 43.5433 49.2426 43.5433C46.2319 43.5459 43.2212 43.5446 40.2106 43.5446Z" fill="#0D313B"/>
<path d="M40.2106 43.5446C37.2395 43.5446 34.2672 43.5446 31.2962 43.5433C31.0787 43.5433 30.8189 43.597 30.6539 43.4998C30.4312 43.3667 30.1446 43.1172 30.1369 42.9074C30.128 42.6937 30.3928 42.4314 30.5963 42.26C30.7063 42.1678 30.9379 42.2088 31.1145 42.2088C37.2152 42.2062 43.3172 42.2062 49.4179 42.2088C49.5945 42.2088 49.8197 42.1768 49.9361 42.2689C50.1332 42.425 50.4006 42.6822 50.3827 42.8728C50.3609 43.0993 50.1025 43.3527 49.8824 43.4934C49.7237 43.5958 49.4589 43.5433 49.2426 43.5433C46.2319 43.5459 43.2212 43.5446 40.2106 43.5446Z" stroke="#0D313B" stroke-width="1.6" mask="url(#path-10-outside-5_6490_46344)"/>
</g>
<path id="Vector_10" d="M30.8927 60.6722C30.7853 60.6722 30.624 60.662 30.4718 60.5763C30.2171 60.4317 29.7872 60.1284 29.7757 59.7344C29.7642 59.3492 30.061 58.9679 30.317 58.7594C30.4922 58.6161 30.7149 58.5981 30.8889 58.5981C30.9426 58.5981 30.9977 58.6007 31.0514 58.602C31.0949 58.6033 31.1371 58.6058 31.1768 58.6058C35.4414 58.6033 39.706 58.6033 43.9694 58.6033H49.6018C50.3234 58.6033 50.7713 58.9999 50.7713 59.6371C50.7713 60.076 50.564 60.3178 50.3912 60.4432C50.1929 60.5865 49.9281 60.6582 49.6043 60.6582C48.5858 60.6556 47.5725 60.6556 46.5591 60.6556L42.6476 60.6569C42.6476 60.6569 33.2317 60.6569 31.2369 60.6556C31.1896 60.6556 31.141 60.6594 31.0923 60.6633C31.0245 60.6671 30.9567 60.6722 30.8927 60.6722Z" fill="#0D313B"/>
<g id="Vector_11">
<mask id="path-12-outside-6_6490_46344" maskUnits="userSpaceOnUse" x="29.1367" y="57.9595" width="23" height="4" fill="black">
<rect fill="white" x="29.1367" y="57.9595" width="23" height="4"/>
<path d="M40.2092 60.2936C37.2177 60.2936 34.2262 60.2936 31.2347 60.2923C31.0364 60.2923 30.8022 60.346 30.6499 60.2603C30.435 60.1375 30.142 59.9123 30.1369 59.7229C30.1305 59.4926 30.3441 59.2022 30.545 59.0384C30.6832 58.9258 30.9609 58.9667 31.1771 58.9667C37.219 58.9642 43.2608 58.9642 49.3027 58.9642C49.4012 58.9642 49.501 58.9642 49.5995 58.9642C50.0563 58.9642 50.4056 59.151 50.4069 59.6359C50.4069 60.1234 50.0602 60.2949 49.5983 60.2949C47.2811 60.2897 44.9626 60.2936 42.6454 60.2936C41.8329 60.2936 41.0217 60.2936 40.2092 60.2936Z"/>
</mask>
<path d="M40.2092 60.2936C37.2177 60.2936 34.2262 60.2936 31.2347 60.2923C31.0364 60.2923 30.8022 60.346 30.6499 60.2603C30.435 60.1375 30.142 59.9123 30.1369 59.7229C30.1305 59.4926 30.3441 59.2022 30.545 59.0384C30.6832 58.9258 30.9609 58.9667 31.1771 58.9667C37.219 58.9642 43.2608 58.9642 49.3027 58.9642C49.4012 58.9642 49.501 58.9642 49.5995 58.9642C50.0563 58.9642 50.4056 59.151 50.4069 59.6359C50.4069 60.1234 50.0602 60.2949 49.5983 60.2949C47.2811 60.2897 44.9626 60.2936 42.6454 60.2936C41.8329 60.2936 41.0217 60.2936 40.2092 60.2936Z" fill="#0D313B"/>
<path d="M40.2092 60.2936C37.2177 60.2936 34.2262 60.2936 31.2347 60.2923C31.0364 60.2923 30.8022 60.346 30.6499 60.2603C30.435 60.1375 30.142 59.9123 30.1369 59.7229C30.1305 59.4926 30.3441 59.2022 30.545 59.0384C30.6832 58.9258 30.9609 58.9667 31.1771 58.9667C37.219 58.9642 43.2608 58.9642 49.3027 58.9642C49.4012 58.9642 49.501 58.9642 49.5995 58.9642C50.0563 58.9642 50.4056 59.151 50.4069 59.6359C50.4069 60.1234 50.0602 60.2949 49.5983 60.2949C47.2811 60.2897 44.9626 60.2936 42.6454 60.2936C41.8329 60.2936 41.0217 60.2936 40.2092 60.2936Z" stroke="#0D313B" stroke-width="1.6" mask="url(#path-12-outside-6_6490_46344)"/>
</g>
<path id="Vector_12" d="M23.4668 62.3768C23.0766 62.3768 22.758 62.0991 22.4713 61.7984C22.1041 61.4133 21.7497 61.009 21.4068 60.6174L21.3582 60.5624C20.9654 60.1133 20.9692 59.5785 21.3697 59.1665C21.6397 58.8888 21.9148 58.83 22.0977 58.83C22.3549 58.83 22.607 58.9426 22.827 59.155C23.0292 59.3507 23.2071 59.5542 23.4156 59.7883C23.4271 59.8024 23.4399 59.8152 23.4514 59.8293C23.4514 59.8293 24.9434 58.2248 25.5268 57.5978C25.5626 57.5594 25.5998 57.5223 25.6381 57.4865C25.6701 57.4558 25.7021 57.4238 25.7328 57.3905C26.0297 57.0642 26.3265 56.9043 26.64 56.9043C26.8716 56.9043 27.0981 56.9939 27.3117 57.1692C27.5216 57.3419 27.647 57.5901 27.6636 57.8678C27.6854 58.2222 27.5318 58.5997 27.2426 58.9029C26.4033 59.7819 25.427 60.8043 24.4584 61.8048C24.1718 62.103 23.8532 62.3768 23.4668 62.3768Z" fill="#0D313B"/>
<g id="Vector_13">
<mask id="path-14-outside-7_6490_46344" maskUnits="userSpaceOnUse" x="20.4316" y="56.2671" width="8" height="7" fill="black">
<rect fill="white" x="20.4316" y="56.2671" width="8" height="7"/>
<path d="M23.446 60.3677C24.2917 59.4579 25.0415 58.6506 25.7926 57.8445C25.8604 57.7716 25.9346 57.7063 26.0012 57.6334C26.3134 57.2892 26.6665 57.1088 27.0811 57.4491C27.415 57.7229 27.3626 58.2514 26.98 58.6531C26.0549 59.6217 25.1298 60.5903 24.1983 61.5525C23.6046 62.1667 23.327 62.1667 22.7346 61.5461C22.3558 61.1495 21.995 60.7349 21.6329 60.3203C21.3745 60.0248 21.3553 59.7011 21.6316 59.417C21.9298 59.1112 22.274 59.1202 22.5759 59.4144C22.8574 59.6895 23.1082 59.9953 23.446 60.3677Z"/>
</mask>
<path d="M23.446 60.3677C24.2917 59.4579 25.0415 58.6506 25.7926 57.8445C25.8604 57.7716 25.9346 57.7063 26.0012 57.6334C26.3134 57.2892 26.6665 57.1088 27.0811 57.4491C27.415 57.7229 27.3626 58.2514 26.98 58.6531C26.0549 59.6217 25.1298 60.5903 24.1983 61.5525C23.6046 62.1667 23.327 62.1667 22.7346 61.5461C22.3558 61.1495 21.995 60.7349 21.6329 60.3203C21.3745 60.0248 21.3553 59.7011 21.6316 59.417C21.9298 59.1112 22.274 59.1202 22.5759 59.4144C22.8574 59.6895 23.1082 59.9953 23.446 60.3677Z" fill="#0D313B"/>
<path d="M23.446 60.3677C24.2917 59.4579 25.0415 58.6506 25.7926 57.8445C25.8604 57.7716 25.9346 57.7063 26.0012 57.6334C26.3134 57.2892 26.6665 57.1088 27.0811 57.4491C27.415 57.7229 27.3626 58.2514 26.98 58.6531C26.0549 59.6217 25.1298 60.5903 24.1983 61.5525C23.6046 62.1667 23.327 62.1667 22.7346 61.5461C22.3558 61.1495 21.995 60.7349 21.6329 60.3203C21.3745 60.0248 21.3553 59.7011 21.6316 59.417C21.9298 59.1112 22.274 59.1202 22.5759 59.4144C22.8574 59.6895 23.1082 59.9953 23.446 60.3677Z" stroke="#0D313B" stroke-width="1.6" mask="url(#path-14-outside-7_6490_46344)"/>
</g>
<path id="Vector_14" d="M23.4753 53.9396C23.2796 53.9396 22.9814 53.8731 22.6667 53.5596C22.5413 53.4342 22.4159 53.3101 22.2905 53.1847C22.009 52.9045 21.7262 52.6243 21.4486 52.3402C20.9457 51.8272 20.9176 51.2092 21.3757 50.7293C21.6431 50.4491 21.9143 50.389 22.0947 50.389C22.4005 50.389 22.6974 50.5464 22.9789 50.8573C23.0774 50.9661 23.1747 51.0786 23.2693 51.19L23.6711 50.8483C24.3057 50.3084 24.9404 49.7697 25.5725 49.2272C25.6211 49.185 25.671 49.1325 25.7247 49.0775C25.7938 49.0046 25.8719 48.9227 25.964 48.8485C26.1866 48.6693 26.4412 48.5708 26.6805 48.5708C26.971 48.5708 27.2269 48.7154 27.3843 48.9687C27.5736 49.2733 27.6657 49.954 27.3715 50.2841C26.3901 51.3819 25.3447 52.449 24.3326 53.4816L24.2239 53.5929C23.9436 53.8795 23.6621 53.9396 23.4753 53.9396Z" fill="#0D313B"/>
<g id="Vector_15">
<mask id="path-16-outside-8_6490_46344" maskUnits="userSpaceOnUse" x="20.4141" y="47.9351" width="8" height="7" fill="black">
<rect fill="white" x="20.4141" y="47.9351" width="8" height="7"/>
<path d="M23.2487 51.6826C24.1021 50.9571 24.9569 50.2316 25.8077 49.5036C25.9421 49.3884 26.0521 49.2438 26.1903 49.1325C26.4923 48.8894 26.8749 48.8395 27.0757 49.1619C27.2152 49.3858 27.2497 49.8772 27.1 50.0435C26.0905 51.1746 25.0247 52.2571 23.964 53.3395C23.6274 53.6837 23.2589 53.6377 22.9224 53.3024C22.5168 52.8968 22.1087 52.4951 21.7069 52.0856C21.3691 51.7401 21.2949 51.3384 21.6365 50.9788C22.0101 50.5873 22.3914 50.7511 22.7088 51.1004C22.9544 51.3716 23.1847 51.6583 23.4227 51.9385C23.3651 51.854 23.3076 51.7683 23.2487 51.6826Z"/>
</mask>
<path d="M23.2487 51.6826C24.1021 50.9571 24.9569 50.2316 25.8077 49.5036C25.9421 49.3884 26.0521 49.2438 26.1903 49.1325C26.4923 48.8894 26.8749 48.8395 27.0757 49.1619C27.2152 49.3858 27.2497 49.8772 27.1 50.0435C26.0905 51.1746 25.0247 52.2571 23.964 53.3395C23.6274 53.6837 23.2589 53.6377 22.9224 53.3024C22.5168 52.8968 22.1087 52.4951 21.7069 52.0856C21.3691 51.7401 21.2949 51.3384 21.6365 50.9788C22.0101 50.5873 22.3914 50.7511 22.7088 51.1004C22.9544 51.3716 23.1847 51.6583 23.4227 51.9385C23.3651 51.854 23.3076 51.7683 23.2487 51.6826Z" fill="#0D313B"/>
<path d="M23.2487 51.6826C24.1021 50.9571 24.9569 50.2316 25.8077 49.5036C25.9421 49.3884 26.0521 49.2438 26.1903 49.1325C26.4923 48.8894 26.8749 48.8395 27.0757 49.1619C27.2152 49.3858 27.2497 49.8772 27.1 50.0435C26.0905 51.1746 25.0247 52.2571 23.964 53.3395C23.6274 53.6837 23.2589 53.6377 22.9224 53.3024C22.5168 52.8968 22.1087 52.4951 21.7069 52.0856C21.3691 51.7401 21.2949 51.3384 21.6365 50.9788C22.0101 50.5873 22.3914 50.7511 22.7088 51.1004C22.9544 51.3716 23.1847 51.6583 23.4227 51.9385C23.3651 51.854 23.3076 51.7683 23.2487 51.6826Z" stroke="#0D313B" stroke-width="1.6" mask="url(#path-16-outside-8_6490_46344)"/>
</g>
<path id="Vector_16" d="M23.4676 37.1865C23.094 37.1865 22.792 36.9268 22.5451 36.6735C22.0973 36.2128 21.6789 35.7471 21.304 35.2903C20.9329 34.8386 20.9943 34.2756 21.4549 33.888C21.6533 33.7216 21.8785 33.6333 22.1062 33.6333C22.3788 33.6333 22.6372 33.7549 22.8547 33.9865C23.0505 34.1938 23.2232 34.41 23.4062 34.6403L23.918 34.1285C24.5296 33.5169 25.099 32.9475 25.6646 32.3756C25.8808 32.1568 26.2071 31.8267 26.6421 31.8267C26.8763 31.8267 27.1053 31.9213 27.3241 32.1082C27.5288 32.2834 27.644 32.5061 27.6555 32.7505C27.6721 33.0921 27.493 33.4516 27.1078 33.8508C26.7278 34.2437 26.3504 34.6403 25.9729 35.0357C25.4598 35.5731 24.9301 36.1284 24.403 36.6683C24.1381 36.9358 23.8425 37.1853 23.4676 37.1865Z" fill="#0D313B"/>
<g id="Vector_17">
<mask id="path-18-outside-9_6490_46344" maskUnits="userSpaceOnUse" x="20.4238" y="31.1865" width="8" height="7" fill="black">
<rect fill="white" x="20.4238" y="31.1865" width="8" height="7"/>
<path d="M23.3778 35.1806C24.308 34.2491 25.1192 33.4417 25.9227 32.6279C26.2618 32.2838 26.6086 31.9716 27.0884 32.381C27.4351 32.6778 27.3353 33.0911 26.8466 33.5965C25.9419 34.5331 25.0514 35.4813 24.1417 36.4127C23.6081 36.9591 23.3292 36.9617 22.8033 36.4204C22.3785 35.9841 21.969 35.5312 21.5826 35.0603C21.3306 34.7532 21.3881 34.4167 21.6876 34.1646C21.9934 33.9062 22.3247 33.9535 22.5896 34.2337C22.8609 34.5191 23.0963 34.8377 23.3778 35.1806Z"/>
</mask>
<path d="M23.3778 35.1806C24.308 34.2491 25.1192 33.4417 25.9227 32.6279C26.2618 32.2838 26.6086 31.9716 27.0884 32.381C27.4351 32.6778 27.3353 33.0911 26.8466 33.5965C25.9419 34.5331 25.0514 35.4813 24.1417 36.4127C23.6081 36.9591 23.3292 36.9617 22.8033 36.4204C22.3785 35.9841 21.969 35.5312 21.5826 35.0603C21.3306 34.7532 21.3881 34.4167 21.6876 34.1646C21.9934 33.9062 22.3247 33.9535 22.5896 34.2337C22.8609 34.5191 23.0963 34.8377 23.3778 35.1806Z" fill="#0D313B"/>
<path d="M23.3778 35.1806C24.308 34.2491 25.1192 33.4417 25.9227 32.6279C26.2618 32.2838 26.6086 31.9716 27.0884 32.381C27.4351 32.6778 27.3353 33.0911 26.8466 33.5965C25.9419 34.5331 25.0514 35.4813 24.1417 36.4127C23.6081 36.9591 23.3292 36.9617 22.8033 36.4204C22.3785 35.9841 21.969 35.5312 21.5826 35.0603C21.3306 34.7532 21.3881 34.4167 21.6876 34.1646C21.9934 33.9062 22.3247 33.9535 22.5896 34.2337C22.8609 34.5191 23.0963 34.8377 23.3778 35.1806Z" stroke="#0D313B" stroke-width="1.6" mask="url(#path-18-outside-9_6490_46344)"/>
</g>
<path id="Vector_18" d="M23.5381 45.5457C23.3219 45.5457 23.0263 45.4894 22.8433 45.3308C22.5004 45.0339 22.1933 44.7 21.8952 44.3775C21.7532 44.2227 21.6047 44.064 21.4576 43.9131C20.7654 43.2029 21.1569 42.631 21.3578 42.4186C21.6303 42.1307 21.9067 42.0706 22.091 42.0706C22.2906 42.0706 22.5964 42.1422 22.9163 42.48C23.0864 42.6604 23.2438 42.8434 23.4255 43.0558C23.4293 43.0596 23.4319 43.0635 23.4357 43.0673L23.9437 42.5261C24.5502 41.8812 25.1196 41.2734 25.689 40.6669C25.9206 40.42 26.2366 40.1372 26.6409 40.1372C26.8802 40.1372 27.1079 40.2357 27.3191 40.4289C27.5404 40.6324 27.6632 40.8819 27.6748 41.1506C27.6901 41.5536 27.4572 41.8927 27.2602 42.1051C26.2212 43.2196 25.1413 44.3199 24.0512 45.3768C23.936 45.4894 23.7633 45.5457 23.5381 45.5457Z" fill="#0D313B"/>
<g id="Vector_19">
<mask id="path-20-outside-10_6490_46344" maskUnits="userSpaceOnUse" x="20.4297" y="39.5005" width="8" height="7" fill="black">
<rect fill="white" x="20.4297" y="39.5005" width="8" height="7"/>
<path d="M23.4256 43.6112C24.3379 42.64 25.1479 41.7789 25.9565 40.9153C26.279 40.5711 26.6449 40.3011 27.0761 40.6965C27.4958 41.0803 27.2923 41.5384 26.9955 41.857C25.9591 42.9702 24.892 44.0565 23.7993 45.1146C23.6803 45.2298 23.2337 45.1888 23.0802 45.0558C22.5901 44.631 22.1717 44.1256 21.7175 43.6585C21.4143 43.3476 21.3017 43.006 21.6228 42.6656C21.9657 42.3023 22.3368 42.3905 22.6554 42.7271C22.8998 42.9881 23.1237 43.2644 23.4256 43.6112Z"/>
</mask>
<path d="M23.4256 43.6112C24.3379 42.64 25.1479 41.7789 25.9565 40.9153C26.279 40.5711 26.6449 40.3011 27.0761 40.6965C27.4958 41.0803 27.2923 41.5384 26.9955 41.857C25.9591 42.9702 24.892 44.0565 23.7993 45.1146C23.6803 45.2298 23.2337 45.1888 23.0802 45.0558C22.5901 44.631 22.1717 44.1256 21.7175 43.6585C21.4143 43.3476 21.3017 43.006 21.6228 42.6656C21.9657 42.3023 22.3368 42.3905 22.6554 42.7271C22.8998 42.9881 23.1237 43.2644 23.4256 43.6112Z" fill="#0D313B"/>
<path d="M23.4256 43.6112C24.3379 42.64 25.1479 41.7789 25.9565 40.9153C26.279 40.5711 26.6449 40.3011 27.0761 40.6965C27.4958 41.0803 27.2923 41.5384 26.9955 41.857C25.9591 42.9702 24.892 44.0565 23.7993 45.1146C23.6803 45.2298 23.2337 45.1888 23.0802 45.0558C22.5901 44.631 22.1717 44.1256 21.7175 43.6585C21.4143 43.3476 21.3017 43.006 21.6228 42.6656C21.9657 42.3023 22.3368 42.3905 22.6554 42.7271C22.8998 42.9881 23.1237 43.2644 23.4256 43.6112Z" stroke="#0D313B" stroke-width="1.6" mask="url(#path-20-outside-10_6490_46344)"/>
</g>
<path id="Vector_20" d="M35.255 23.2121C35.255 22.1501 35.2704 21.1828 35.2371 20.2167C35.232 20.0785 35.0094 19.9122 34.8507 19.8239C34.28 19.5053 33.5379 19.3492 33.1413 18.8899C31.6468 17.1574 32.2827 14.9694 34.472 14.2555C35.1399 14.038 35.3126 13.7513 35.2704 13.1065C35.2192 12.3183 35.4636 11.9882 35.9306 11.9907C36.3925 11.9933 36.6395 12.3285 36.5844 13.1129C36.5384 13.7667 36.7175 14.0648 37.3905 14.258C38.583 14.5984 39.3264 15.4377 39.5043 16.7083C39.5696 17.1715 39.4672 17.5835 38.94 17.6462C38.4589 17.7038 38.2708 17.3724 38.1851 16.9207C38.0303 16.1082 37.4622 15.6719 36.6088 15.3699C36.6088 16.4678 36.6036 17.485 36.6177 18.5022C36.619 18.5841 36.7393 18.6967 36.8301 18.7376C37.1986 18.9078 37.5812 19.046 37.9522 19.2123C39.7205 20.0107 40.1313 22.2025 38.7046 23.5243C38.2453 23.9491 37.6093 24.2088 37.0182 24.4558C36.706 24.5863 36.5729 24.7065 36.596 25.0379C36.6164 25.3527 36.6164 25.6739 36.5793 25.9861C36.5345 26.3674 36.2838 26.6616 35.9089 26.5721C35.6645 26.5132 35.2781 26.1614 35.3049 26.0014C35.5045 24.8422 34.8609 24.4583 33.9154 24.0783C32.9302 23.6817 32.3531 22.8333 32.3352 21.6971C32.3288 21.2749 32.5079 20.987 32.925 20.9473C33.3434 20.9064 33.6134 21.161 33.6454 21.5717C33.7209 22.516 34.3171 22.9306 35.255 23.2121ZM36.6318 23.1532C37.7143 22.9165 38.2363 22.3292 38.1941 21.4681C38.1595 20.758 37.6656 20.3626 36.6318 20.2359C36.6318 21.1968 36.6318 22.1539 36.6318 23.1532ZM35.2269 18.387C35.2269 17.3864 35.2269 16.4243 35.2269 15.4569C34.4118 15.5759 33.6838 16.3078 33.6633 17C33.639 17.7729 34.028 18.1324 35.2269 18.387Z" fill="#0D313B"/>
</g>
</g>
</svg>
