<svg width="72" height="72" viewBox="0 0 72 72" fill="none" xmlns="http://www.w3.org/2000/svg">
<g id="quotations">
<g id="Group">
<g id="Vector">
<mask id="path-1-outside-1_6461_47261" maskUnits="userSpaceOnUse" x="8" y="3" width="55" height="66" fill="black">
<rect fill="white" x="8" y="3" width="55" height="66"/>
<path d="M9.26673 4.25134C9 4.51807 9 4.6381 9 35.9923C9 67.2932 9 67.4665 9.26673 67.7333C9.53346 68 9.70684 68 35.6731 68C61.666 68 61.8127 68 62.0794 67.7333C62.3462 67.4665 62.3462 67.3465 62.3195 37.6194L62.2795 7.78552L61.8927 6.98533C61.3859 5.95842 60.3723 4.94484 59.3454 4.43805L58.5452 4.05129L34.046 4.01128C9.65349 3.98461 9.53346 3.98461 9.26673 4.25134ZM51.997 6.25182C52.6505 6.39852 53.1306 6.74527 53.4774 7.33208C53.7174 7.74551 53.7441 8.09226 53.8108 11.0263C53.8775 14.0404 53.8908 14.2938 54.1308 14.4671C54.3442 14.6138 55.0111 14.6538 57.3049 14.6538H60.2123V40.26V65.8662H35.6731H11.1338V35.9923V6.11845H31.312C42.9282 6.11845 51.7036 6.1718 51.997 6.25182ZM58.1718 6.45187C58.8653 6.74527 59.5188 7.39876 59.8522 8.11893C60.0789 8.61239 60.1323 9.07917 60.1856 10.6129L60.2523 12.52H58.0918H55.9446V9.9327C55.9446 7.98557 55.8913 7.21205 55.7446 6.78528C55.6379 6.47854 55.5445 6.18514 55.5445 6.14513C55.5445 5.99842 57.6917 6.25182 58.1718 6.45187Z"/>
<path d="M51.997 6.25182C52.6505 6.39852 53.1306 6.74527 53.4774 7.33208C53.7174 7.74551 53.7441 8.09226 53.8108 11.0263C53.8775 14.0404 53.8908 14.2938 54.1308 14.4671C54.3442 14.6138 55.0111 14.6538 57.3049 14.6538H60.2123V40.26V65.8662H35.6731H11.1338V35.9923V6.11845H31.312C42.9282 6.11845 51.7036 6.1718 51.997 6.25182Z"/>
<path d="M58.1718 6.45187C58.8653 6.74527 59.5188 7.39876 59.8522 8.11893C60.0789 8.61239 60.1323 9.07917 60.1856 10.6129L60.2523 12.52H58.0918H55.9446V9.9327C55.9446 7.98557 55.8913 7.21205 55.7446 6.78528C55.6379 6.47854 55.5445 6.18514 55.5445 6.14513C55.5445 5.99842 57.6917 6.25182 58.1718 6.45187Z"/>
</mask>
<path d="M9.26673 4.25134C9 4.51807 9 4.6381 9 35.9923C9 67.2932 9 67.4665 9.26673 67.7333C9.53346 68 9.70684 68 35.6731 68C61.666 68 61.8127 68 62.0794 67.7333C62.3462 67.4665 62.3462 67.3465 62.3195 37.6194L62.2795 7.78552L61.8927 6.98533C61.3859 5.95842 60.3723 4.94484 59.3454 4.43805L58.5452 4.05129L34.046 4.01128C9.65349 3.98461 9.53346 3.98461 9.26673 4.25134ZM51.997 6.25182C52.6505 6.39852 53.1306 6.74527 53.4774 7.33208C53.7174 7.74551 53.7441 8.09226 53.8108 11.0263C53.8775 14.0404 53.8908 14.2938 54.1308 14.4671C54.3442 14.6138 55.0111 14.6538 57.3049 14.6538H60.2123V40.26V65.8662H35.6731H11.1338V35.9923V6.11845H31.312C42.9282 6.11845 51.7036 6.1718 51.997 6.25182ZM58.1718 6.45187C58.8653 6.74527 59.5188 7.39876 59.8522 8.11893C60.0789 8.61239 60.1323 9.07917 60.1856 10.6129L60.2523 12.52H58.0918H55.9446V9.9327C55.9446 7.98557 55.8913 7.21205 55.7446 6.78528C55.6379 6.47854 55.5445 6.18514 55.5445 6.14513C55.5445 5.99842 57.6917 6.25182 58.1718 6.45187Z" fill="#0B2D1F"/>
<path d="M51.997 6.25182C52.6505 6.39852 53.1306 6.74527 53.4774 7.33208C53.7174 7.74551 53.7441 8.09226 53.8108 11.0263C53.8775 14.0404 53.8908 14.2938 54.1308 14.4671C54.3442 14.6138 55.0111 14.6538 57.3049 14.6538H60.2123V40.26V65.8662H35.6731H11.1338V35.9923V6.11845H31.312C42.9282 6.11845 51.7036 6.1718 51.997 6.25182Z" fill="#22885E"/>
<path d="M58.1718 6.45187C58.8653 6.74527 59.5188 7.39876 59.8522 8.11893C60.0789 8.61239 60.1323 9.07917 60.1856 10.6129L60.2523 12.52H58.0918H55.9446V9.9327C55.9446 7.98557 55.8913 7.21205 55.7446 6.78528C55.6379 6.47854 55.5445 6.18514 55.5445 6.14513C55.5445 5.99842 57.6917 6.25182 58.1718 6.45187Z" fill="#62C89E"/>
<path d="M51.997 6.25182L51.9531 6.44716L51.9444 6.44477L51.997 6.25182ZM53.4774 7.33208L53.6496 7.23033L53.6503 7.23165L53.4774 7.33208ZM53.8108 11.0263L54.0107 11.0218L54.0107 11.0219L53.8108 11.0263ZM54.1308 14.4671L54.0175 14.632L54.0137 14.6293L54.1308 14.4671ZM60.2123 14.6538V14.4538H60.4123V14.6538H60.2123ZM60.2123 65.8662H60.4123V66.0662H60.2123V65.8662ZM11.1338 65.8662V66.0662H10.9338V65.8662H11.1338ZM11.1338 6.11845H10.9338V5.91845H11.1338V6.11845ZM58.1718 6.45187L58.2487 6.26725L58.2497 6.26767L58.1718 6.45187ZM59.8522 8.11893L60.0337 8.03491L60.034 8.03543L59.8522 8.11893ZM60.1856 10.6129L59.9858 10.6199V10.6198L60.1856 10.6129ZM60.2523 12.52L60.4522 12.513L60.4594 12.72H60.2523V12.52ZM55.9446 12.52V12.72H55.7446V12.52H55.9446ZM55.7446 6.78528L55.9335 6.71958L55.9337 6.72026L55.7446 6.78528ZM52.0408 6.05667C52.7482 6.21548 53.2748 6.59607 53.6495 7.23033L53.3052 7.43382C52.9865 6.89447 52.5528 6.58156 51.9532 6.44696L52.0408 6.05667ZM53.6503 7.23165C53.7901 7.4724 53.8618 7.69403 53.9083 8.21621C53.954 8.72955 53.9774 9.55779 54.0107 11.0218L53.6108 11.0308C53.5774 9.56076 53.5541 8.74861 53.5099 8.25171C53.4664 7.76365 53.4047 7.60518 53.3044 7.4325L53.6503 7.23165ZM54.0107 11.0219C54.0442 12.5331 54.0641 13.3409 54.105 13.794C54.1256 14.0221 54.1502 14.1412 54.176 14.2094C54.1963 14.263 54.215 14.2812 54.2479 14.305L54.0137 14.6293C53.9266 14.5663 53.8537 14.4879 53.8019 14.351C53.7556 14.2288 53.7277 14.0636 53.7066 13.8299C53.6641 13.3595 53.6441 12.5335 53.6108 11.0307L54.0107 11.0219ZM54.2442 14.3023C54.2635 14.3156 54.3129 14.3392 54.4316 14.3617C54.5475 14.3837 54.7126 14.4019 54.9495 14.4158C55.4229 14.4438 56.1573 14.4538 57.3049 14.4538V14.8538C56.1587 14.8538 55.4128 14.8439 54.9259 14.8152C54.6827 14.8008 54.4978 14.7814 54.3569 14.7547C54.2188 14.7284 54.1049 14.692 54.0175 14.6319L54.2442 14.3023ZM57.3049 14.4538H60.2123V14.8538H57.3049V14.4538ZM60.4123 14.6538V40.26H60.0123V14.6538H60.4123ZM60.4123 40.26V65.8662H60.0123V40.26H60.4123ZM60.2123 66.0662H35.6731V65.6662H60.2123V66.0662ZM35.6731 66.0662H11.1338V65.6662H35.6731V66.0662ZM10.9338 65.8662V35.9923H11.3338V65.8662H10.9338ZM10.9338 35.9923V6.11845H11.3338V35.9923H10.9338ZM11.1338 5.91845H31.312V6.31845H11.1338V5.91845ZM31.312 5.91845C37.1203 5.91845 42.2187 5.93179 45.9018 5.95514C47.7433 5.9668 49.2314 5.98098 50.2778 5.99725C50.8009 6.00538 51.2144 6.01405 51.5067 6.02321C51.6527 6.02779 51.7696 6.03253 51.8554 6.03746C51.8982 6.03992 51.9347 6.04251 51.9639 6.04531C51.9878 6.0476 52.0216 6.05122 52.0496 6.05887L51.9444 6.44477C51.9541 6.44741 51.953 6.44609 51.9258 6.44349C51.9038 6.44138 51.8729 6.43913 51.8325 6.43681C51.7518 6.43217 51.6389 6.42756 51.4941 6.42302C51.205 6.41395 50.794 6.40532 50.2716 6.3972C49.2271 6.38096 47.7403 6.36679 45.8993 6.35513C42.2173 6.33179 37.1199 6.31845 31.312 6.31845V5.91845ZM58.2497 6.26767C58.9926 6.58195 59.6811 7.27328 60.0337 8.03491L59.6707 8.20296C59.3565 7.52424 58.7381 6.90859 58.0939 6.63606L58.2497 6.26767ZM60.034 8.03543C60.2804 8.57181 60.3325 9.08081 60.3855 10.6059L59.9858 10.6198C59.9321 9.07752 59.8775 8.65296 59.6705 8.20243L60.034 8.03543ZM60.3855 10.6059L60.4522 12.513L60.0524 12.527L59.9858 10.6199L60.3855 10.6059ZM60.2523 12.72H58.0918V12.32H60.2523V12.72ZM58.0918 12.72H55.9446V12.32H58.0918V12.72ZM55.7446 12.52V9.9327H56.1446V12.52H55.7446ZM55.7446 9.9327C55.7446 8.95979 55.7313 8.28504 55.7 7.80175C55.6687 7.31643 55.6199 7.03788 55.5554 6.8503L55.9337 6.72026C56.0159 6.95946 56.0672 7.28105 56.0992 7.77596C56.1313 8.2729 56.1446 8.95849 56.1446 9.9327H55.7446ZM55.5557 6.85099C55.5019 6.69629 55.4512 6.54427 55.4137 6.42515C55.3951 6.36579 55.3793 6.31317 55.3679 6.27188C55.3623 6.2514 55.3573 6.23189 55.3535 6.21484C55.3511 6.20427 55.3445 6.17505 55.3445 6.14513H55.7445C55.7445 6.12521 55.7408 6.11391 55.744 6.12824C55.7457 6.13609 55.7488 6.14847 55.7536 6.16591C55.7631 6.20047 55.7773 6.24788 55.7953 6.30521C55.8312 6.41948 55.8806 6.56754 55.9335 6.71958L55.5557 6.85099ZM55.3445 6.14513C55.3445 6.07189 55.3804 6.01797 55.414 5.98652C55.4442 5.95823 55.4765 5.94345 55.4963 5.93577C55.5366 5.92014 55.5804 5.91317 55.6153 5.90924C55.6894 5.90089 55.7865 5.89992 55.8935 5.90312C56.1104 5.90962 56.4002 5.93449 56.7014 5.96983C57.0033 6.00525 57.3212 6.0517 57.595 6.10223C57.8627 6.1516 58.1066 6.20801 58.2487 6.26725L58.0949 6.63648C57.997 6.5957 57.7925 6.54541 57.5225 6.49559C57.2587 6.44693 56.9497 6.4017 56.6548 6.3671C56.3593 6.33243 56.0822 6.30895 55.8815 6.30294C55.7797 6.29989 55.7053 6.30163 55.6601 6.30672C55.6354 6.30951 55.6326 6.31195 55.6412 6.30863C55.6451 6.30709 55.6653 6.29919 55.6874 6.27854C55.7128 6.25472 55.7445 6.20919 55.7445 6.14513H55.3445ZM62.3195 37.6194L62.7195 37.6188V37.619L62.3195 37.6194ZM62.2795 7.78552L62.6396 7.61145L62.6794 7.69367L62.6795 7.78498L62.2795 7.78552ZM61.8927 6.98533L62.2514 6.8083L62.2529 6.81126L61.8927 6.98533ZM59.3454 4.43805L59.5195 4.0779L59.5225 4.07935L59.3454 4.43805ZM58.5452 4.05129L58.5459 3.65129L58.6371 3.65144L58.7193 3.69115L58.5452 4.05129ZM34.046 4.01128L34.0465 3.61128H34.0467L34.046 4.01128ZM9.54957 4.53418C9.53559 4.54816 9.54723 4.5379 9.55792 4.52098C9.56857 4.50413 9.56859 4.49701 9.56352 4.51487C9.55022 4.5618 9.53016 4.67484 9.51156 4.94199C9.47506 5.4662 9.45002 6.47332 9.43333 8.46737C9.4 12.4478 9.4 20.3139 9.4 35.9923H8.6C8.6 20.3165 8.6 12.4455 8.63336 8.46067C8.65 6.4721 8.67498 5.43955 8.71349 4.88642C8.7324 4.6149 8.7561 4.42985 8.79385 4.29668C8.81432 4.2245 8.84169 4.15683 8.88164 4.09361C8.92164 4.03032 8.96453 3.98785 8.98389 3.9685L9.54957 4.53418ZM9.4 35.9923C9.4 51.644 9.4 59.5101 9.43333 63.4972C9.45002 65.4946 9.47506 66.5068 9.51158 67.0353C9.53017 67.3045 9.55026 67.4201 9.56395 67.469C9.5693 67.4882 9.56966 67.4819 9.55947 67.4655C9.54881 67.4484 9.53727 67.4381 9.54957 67.4504L8.98389 68.0161C8.96285 67.9951 8.92005 67.9522 8.88009 67.8879C8.84059 67.8244 8.81361 67.7565 8.79343 67.6842C8.75606 67.5504 8.73239 67.3641 8.71348 67.0905C8.67498 66.5333 8.65 65.4959 8.63336 63.5039C8.6 59.5125 8.6 51.6415 8.6 35.9923H9.4ZM9.54957 67.4504C9.56256 67.4634 9.55524 67.4549 9.54188 67.4461C9.5277 67.4368 9.52096 67.436 9.53319 67.4398C9.56872 67.451 9.66085 67.4704 9.88629 67.4888C10.329 67.5249 11.1724 67.55 12.8366 67.5667C16.1565 67.6 22.6884 67.6 35.6731 67.6V68.4C22.6915 68.4 16.1536 68.4 12.8286 68.3666C11.1703 68.35 10.2975 68.325 9.8212 68.2861C9.58715 68.267 9.41913 68.2427 9.29268 68.2028C9.22393 68.1811 9.16076 68.153 9.10205 68.1143C9.04418 68.0762 9.00424 68.0365 8.98389 68.0161L9.54957 67.4504ZM35.6731 67.6C48.6711 67.6 55.203 67.6 58.5196 67.5667C60.1821 67.55 61.023 67.5249 61.4635 67.4888C61.6879 67.4704 61.7787 67.4511 61.8131 67.4401C61.8247 67.4364 61.8176 67.4374 61.8033 67.447C61.7901 67.4557 61.7828 67.4642 61.7966 67.4504L62.3623 68.0161C62.3427 68.0356 62.303 68.0754 62.2457 68.1135C62.1872 68.1523 62.1242 68.1807 62.0555 68.2025C61.9293 68.2426 61.7618 68.267 61.5289 68.2861C61.0546 68.325 60.1841 68.35 58.5276 68.3666C55.2058 68.4 48.668 68.4 35.6731 68.4V67.6ZM61.7966 67.4504C61.8108 67.4362 61.8 67.4456 61.7899 67.4615C61.7794 67.4777 61.779 67.4851 61.7836 67.4694C61.7961 67.4267 61.8159 67.3209 61.8343 67.067C61.8703 66.5689 61.8945 65.6133 61.9095 63.7208C61.9395 59.9439 61.9328 52.4846 61.9195 37.6197L62.7195 37.619C62.7328 52.4812 62.7395 59.9456 62.7095 63.7271C62.6945 65.6139 62.6704 66.5962 62.6322 67.1247C62.6134 67.384 62.5897 67.5636 62.5513 67.6946C62.5304 67.7658 62.5026 67.8321 62.4629 67.894C62.4234 67.9554 62.3814 67.997 62.3623 68.0161L61.7966 67.4504ZM61.9195 37.6199L61.8795 7.78606L62.6795 7.78498L62.7195 37.6188L61.9195 37.6199ZM61.9193 7.95959L61.5326 7.1594L62.2529 6.81126L62.6396 7.61145L61.9193 7.95959ZM61.534 7.16235C61.0662 6.21432 60.1164 5.2646 59.1684 4.79675L59.5225 4.07935C60.6283 4.62507 61.7057 5.7025 62.2514 6.80831L61.534 7.16235ZM59.1714 4.79819L58.3712 4.41143L58.7193 3.69115L59.5195 4.07791L59.1714 4.79819ZM58.5446 4.45129L34.0454 4.41128L34.0467 3.61128L58.5459 3.65129L58.5446 4.45129ZM34.0456 4.41128C21.8477 4.39794 15.7227 4.39128 12.6131 4.42126C11.0537 4.4363 10.2671 4.46053 9.85521 4.49607C9.6454 4.51418 9.56316 4.53313 9.53402 4.54284C9.52518 4.54578 9.53266 4.54419 9.54628 4.53492C9.55805 4.52689 9.56437 4.51938 9.54957 4.53418L8.98389 3.9685C9.04217 3.91022 9.12469 3.83599 9.28112 3.78386C9.40488 3.74262 9.56635 3.71803 9.78644 3.69904C10.2343 3.66039 11.0523 3.63628 12.6053 3.6213C15.7205 3.59127 21.8518 3.59795 34.0465 3.61128L34.0456 4.41128Z" fill="#0B2D1F" mask="url(#path-1-outside-1_6461_47261)"/>
</g>
<g id="Vector_2">
<mask id="path-3-outside-2_6461_47261" maskUnits="userSpaceOnUse" x="24.5918" y="11.6377" width="23" height="23" fill="black">
<rect fill="white" x="24.5918" y="11.6377" width="23" height="23"/>
<path d="M33.6021 12.566C29.8412 13.5395 26.8138 16.5803 25.8669 20.3545C25.4935 21.8082 25.5068 24.1287 25.8669 25.5824C26.6404 28.6232 28.6275 31.1171 31.4015 32.5041C33.0686 33.3443 34.3356 33.6377 36.2694 33.6377C38.2165 33.6377 39.4702 33.3443 41.2039 32.4774C42.2842 31.944 42.6576 31.6506 43.8045 30.5036C44.9515 29.3567 45.2449 28.9832 45.7783 27.903C46.6452 26.1692 46.9386 24.9156 46.9386 22.9685C46.9386 21.0347 46.6452 19.7677 45.805 18.1006C44.418 15.3266 41.9241 13.3395 38.8833 12.566C37.4563 12.2059 35.0158 12.2059 33.6021 12.566ZM39.0834 15.0199C41.4706 15.8468 43.4978 17.9273 44.2846 20.3278C44.5514 21.1547 44.6047 21.5681 44.6047 23.0351C44.6047 24.5688 44.5647 24.8756 44.258 25.7291C41.7907 32.4908 32.7352 33.411 29.0143 27.2628C28.1608 25.8492 27.934 24.9823 27.934 23.0351C27.934 20.928 28.2275 19.8344 29.2277 18.354C31.4149 15.0732 35.3892 13.7396 39.0834 15.0199Z"/>
</mask>
<path d="M33.6021 12.566C29.8412 13.5395 26.8138 16.5803 25.8669 20.3545C25.4935 21.8082 25.5068 24.1287 25.8669 25.5824C26.6404 28.6232 28.6275 31.1171 31.4015 32.5041C33.0686 33.3443 34.3356 33.6377 36.2694 33.6377C38.2165 33.6377 39.4702 33.3443 41.2039 32.4774C42.2842 31.944 42.6576 31.6506 43.8045 30.5036C44.9515 29.3567 45.2449 28.9832 45.7783 27.903C46.6452 26.1692 46.9386 24.9156 46.9386 22.9685C46.9386 21.0347 46.6452 19.7677 45.805 18.1006C44.418 15.3266 41.9241 13.3395 38.8833 12.566C37.4563 12.2059 35.0158 12.2059 33.6021 12.566ZM39.0834 15.0199C41.4706 15.8468 43.4978 17.9273 44.2846 20.3278C44.5514 21.1547 44.6047 21.5681 44.6047 23.0351C44.6047 24.5688 44.5647 24.8756 44.258 25.7291C41.7907 32.4908 32.7352 33.411 29.0143 27.2628C28.1608 25.8492 27.934 24.9823 27.934 23.0351C27.934 20.928 28.2275 19.8344 29.2277 18.354C31.4149 15.0732 35.3892 13.7396 39.0834 15.0199Z" fill="#0B2D1F"/>
<path d="M33.6021 12.566C29.8412 13.5395 26.8138 16.5803 25.8669 20.3545C25.4935 21.8082 25.5068 24.1287 25.8669 25.5824C26.6404 28.6232 28.6275 31.1171 31.4015 32.5041C33.0686 33.3443 34.3356 33.6377 36.2694 33.6377C38.2165 33.6377 39.4702 33.3443 41.2039 32.4774C42.2842 31.944 42.6576 31.6506 43.8045 30.5036C44.9515 29.3567 45.2449 28.9832 45.7783 27.903C46.6452 26.1692 46.9386 24.9156 46.9386 22.9685C46.9386 21.0347 46.6452 19.7677 45.805 18.1006C44.418 15.3266 41.9241 13.3395 38.8833 12.566C37.4563 12.2059 35.0158 12.2059 33.6021 12.566ZM39.0834 15.0199C41.4706 15.8468 43.4978 17.9273 44.2846 20.3278C44.5514 21.1547 44.6047 21.5681 44.6047 23.0351C44.6047 24.5688 44.5647 24.8756 44.258 25.7291C41.7907 32.4908 32.7352 33.411 29.0143 27.2628C28.1608 25.8492 27.934 24.9823 27.934 23.0351C27.934 20.928 28.2275 19.8344 29.2277 18.354C31.4149 15.0732 35.3892 13.7396 39.0834 15.0199Z" stroke="#0B2D1F" stroke-width="0.2" mask="url(#path-3-outside-2_6461_47261)"/>
</g>
<g id="Vector_3">
<mask id="path-4-outside-3_6461_47261" maskUnits="userSpaceOnUse" x="32.0684" y="16.3701" width="8" height="14" fill="black">
<rect fill="white" x="32.0684" y="16.3701" width="8" height="14"/>
<path d="M35.469 16.8338C35.3223 16.9805 35.2023 17.2472 35.2023 17.4206C35.2023 17.634 35.1089 17.7807 34.9222 17.834C34.4555 17.9807 33.5752 18.8609 33.3218 19.4344C32.9884 20.1412 32.9884 21.5282 33.3218 22.2351C33.7886 23.2753 34.7088 23.8755 36.1759 24.1022C36.4559 24.1422 36.8027 24.3022 36.9494 24.4489C37.4962 24.9957 37.0828 26.036 36.3226 26.036C35.7358 26.036 35.4824 25.7959 35.2556 25.0357C35.1356 24.6223 34.9356 24.2489 34.8022 24.1689C34.3754 23.9421 33.6286 24.0088 33.3352 24.3022C32.9884 24.649 32.9751 25.7559 33.3218 26.5028C33.5752 27.0762 34.4555 27.9564 34.9222 28.1031C35.1089 28.1565 35.2023 28.3032 35.2023 28.5166C35.2023 29.01 35.6424 29.3701 36.2692 29.3701C36.896 29.3701 37.3361 29.01 37.3361 28.5166C37.3361 28.3032 37.4295 28.1565 37.6162 28.1031C38.083 27.9564 38.9632 27.0762 39.2166 26.5028C39.3766 26.156 39.47 25.6626 39.47 25.1024C39.47 23.2353 38.4297 22.155 36.3626 21.835C36.0825 21.795 35.7358 21.6349 35.5891 21.4882C35.0423 20.9414 35.4557 19.9012 36.2159 19.9012C36.8027 19.9012 37.0561 20.1412 37.2828 20.9014C37.4028 21.3148 37.6029 21.6883 37.7362 21.7683C38.163 21.995 38.9099 21.9283 39.2033 21.6349C39.55 21.2882 39.5634 20.1812 39.2166 19.4344C38.9632 18.8609 38.083 17.9807 37.6162 17.834C37.4295 17.7807 37.3361 17.634 37.3361 17.4206C37.3361 16.9271 36.896 16.567 36.2692 16.567C35.9091 16.567 35.6424 16.6604 35.469 16.8338Z"/>
</mask>
<path d="M35.469 16.8338C35.3223 16.9805 35.2023 17.2472 35.2023 17.4206C35.2023 17.634 35.1089 17.7807 34.9222 17.834C34.4555 17.9807 33.5752 18.8609 33.3218 19.4344C32.9884 20.1412 32.9884 21.5282 33.3218 22.2351C33.7886 23.2753 34.7088 23.8755 36.1759 24.1022C36.4559 24.1422 36.8027 24.3022 36.9494 24.4489C37.4962 24.9957 37.0828 26.036 36.3226 26.036C35.7358 26.036 35.4824 25.7959 35.2556 25.0357C35.1356 24.6223 34.9356 24.2489 34.8022 24.1689C34.3754 23.9421 33.6286 24.0088 33.3352 24.3022C32.9884 24.649 32.9751 25.7559 33.3218 26.5028C33.5752 27.0762 34.4555 27.9564 34.9222 28.1031C35.1089 28.1565 35.2023 28.3032 35.2023 28.5166C35.2023 29.01 35.6424 29.3701 36.2692 29.3701C36.896 29.3701 37.3361 29.01 37.3361 28.5166C37.3361 28.3032 37.4295 28.1565 37.6162 28.1031C38.083 27.9564 38.9632 27.0762 39.2166 26.5028C39.3766 26.156 39.47 25.6626 39.47 25.1024C39.47 23.2353 38.4297 22.155 36.3626 21.835C36.0825 21.795 35.7358 21.6349 35.5891 21.4882C35.0423 20.9414 35.4557 19.9012 36.2159 19.9012C36.8027 19.9012 37.0561 20.1412 37.2828 20.9014C37.4028 21.3148 37.6029 21.6883 37.7362 21.7683C38.163 21.995 38.9099 21.9283 39.2033 21.6349C39.55 21.2882 39.5634 20.1812 39.2166 19.4344C38.9632 18.8609 38.083 17.9807 37.6162 17.834C37.4295 17.7807 37.3361 17.634 37.3361 17.4206C37.3361 16.9271 36.896 16.567 36.2692 16.567C35.9091 16.567 35.6424 16.6604 35.469 16.8338Z" fill="#0B2D1F"/>
<path d="M35.469 16.8338C35.3223 16.9805 35.2023 17.2472 35.2023 17.4206C35.2023 17.634 35.1089 17.7807 34.9222 17.834C34.4555 17.9807 33.5752 18.8609 33.3218 19.4344C32.9884 20.1412 32.9884 21.5282 33.3218 22.2351C33.7886 23.2753 34.7088 23.8755 36.1759 24.1022C36.4559 24.1422 36.8027 24.3022 36.9494 24.4489C37.4962 24.9957 37.0828 26.036 36.3226 26.036C35.7358 26.036 35.4824 25.7959 35.2556 25.0357C35.1356 24.6223 34.9356 24.2489 34.8022 24.1689C34.3754 23.9421 33.6286 24.0088 33.3352 24.3022C32.9884 24.649 32.9751 25.7559 33.3218 26.5028C33.5752 27.0762 34.4555 27.9564 34.9222 28.1031C35.1089 28.1565 35.2023 28.3032 35.2023 28.5166C35.2023 29.01 35.6424 29.3701 36.2692 29.3701C36.896 29.3701 37.3361 29.01 37.3361 28.5166C37.3361 28.3032 37.4295 28.1565 37.6162 28.1031C38.083 27.9564 38.9632 27.0762 39.2166 26.5028C39.3766 26.156 39.47 25.6626 39.47 25.1024C39.47 23.2353 38.4297 22.155 36.3626 21.835C36.0825 21.795 35.7358 21.6349 35.5891 21.4882C35.0423 20.9414 35.4557 19.9012 36.2159 19.9012C36.8027 19.9012 37.0561 20.1412 37.2828 20.9014C37.4028 21.3148 37.6029 21.6883 37.7362 21.7683C38.163 21.995 38.9099 21.9283 39.2033 21.6349C39.55 21.2882 39.5634 20.1812 39.2166 19.4344C38.9632 18.8609 38.083 17.9807 37.6162 17.834C37.4295 17.7807 37.3361 17.634 37.3361 17.4206C37.3361 16.9271 36.896 16.567 36.2692 16.567C35.9091 16.567 35.6424 16.6604 35.469 16.8338Z" stroke="#0B2D1F" stroke-width="0.2" mask="url(#path-4-outside-3_6461_47261)"/>
</g>
<g id="Vector_4">
<mask id="path-5-outside-4_6461_47261" maskUnits="userSpaceOnUse" x="17.4805" y="40.2441" width="9" height="4" fill="black">
<rect fill="white" x="17.4805" y="40.2441" width="9" height="4"/>
<path d="M18.7937 41.0518C18.5901 41.2554 18.4805 41.5685 18.4805 41.9914C18.4805 42.4142 18.5901 42.7274 18.7937 42.9309C19.0912 43.2285 19.3104 43.2441 22.2388 43.2441C25.1672 43.2441 25.3864 43.2285 25.684 42.9309C25.8875 42.7274 25.9972 42.4142 25.9972 41.9914C25.9972 41.5685 25.8875 41.2554 25.684 41.0518C25.3864 40.7542 25.1672 40.7386 22.2388 40.7386C19.3104 40.7386 19.0912 40.7542 18.7937 41.0518Z"/>
</mask>
<path d="M18.7937 41.0518C18.5901 41.2554 18.4805 41.5685 18.4805 41.9914C18.4805 42.4142 18.5901 42.7274 18.7937 42.9309C19.0912 43.2285 19.3104 43.2441 22.2388 43.2441C25.1672 43.2441 25.3864 43.2285 25.684 42.9309C25.8875 42.7274 25.9972 42.4142 25.9972 41.9914C25.9972 41.5685 25.8875 41.2554 25.684 41.0518C25.3864 40.7542 25.1672 40.7386 22.2388 40.7386C19.3104 40.7386 19.0912 40.7542 18.7937 41.0518Z" fill="#0B2D1F"/>
<path d="M18.7937 41.0518C18.5901 41.2554 18.4805 41.5685 18.4805 41.9914C18.4805 42.4142 18.5901 42.7274 18.7937 42.9309C19.0912 43.2285 19.3104 43.2441 22.2388 43.2441C25.1672 43.2441 25.3864 43.2285 25.684 42.9309C25.8875 42.7274 25.9972 42.4142 25.9972 41.9914C25.9972 41.5685 25.8875 41.2554 25.684 41.0518C25.3864 40.7542 25.1672 40.7386 22.2388 40.7386C19.3104 40.7386 19.0912 40.7542 18.7937 41.0518Z" stroke="#0B2D1F" stroke-width="0.2" mask="url(#path-5-outside-4_6461_47261)"/>
</g>
<g id="Vector_5">
<mask id="path-6-outside-5_6461_47261" maskUnits="userSpaceOnUse" x="30.0078" y="40.2441" width="24" height="4" fill="black">
<rect fill="white" x="30.0078" y="40.2441" width="24" height="4"/>
<path d="M31.321 41.0518C31.1174 41.2554 31.0078 41.5685 31.0078 41.9914C31.0078 42.4142 31.1174 42.7274 31.321 42.9309C31.6342 43.2441 31.8378 43.2441 42.2828 43.2441C52.7279 43.2441 52.9315 43.2441 53.2447 42.9309C53.4483 42.7274 53.5579 42.4142 53.5579 41.9914C53.5579 41.5685 53.4483 41.2554 53.2447 41.0518C52.9315 40.7386 52.7279 40.7386 42.2828 40.7386C31.8378 40.7386 31.6342 40.7386 31.321 41.0518Z"/>
</mask>
<path d="M31.321 41.0518C31.1174 41.2554 31.0078 41.5685 31.0078 41.9914C31.0078 42.4142 31.1174 42.7274 31.321 42.9309C31.6342 43.2441 31.8378 43.2441 42.2828 43.2441C52.7279 43.2441 52.9315 43.2441 53.2447 42.9309C53.4483 42.7274 53.5579 42.4142 53.5579 41.9914C53.5579 41.5685 53.4483 41.2554 53.2447 41.0518C52.9315 40.7386 52.7279 40.7386 42.2828 40.7386C31.8378 40.7386 31.6342 40.7386 31.321 41.0518Z" fill="#0B2D1F"/>
<path d="M31.321 41.0518C31.1174 41.2554 31.0078 41.5685 31.0078 41.9914C31.0078 42.4142 31.1174 42.7274 31.321 42.9309C31.6342 43.2441 31.8378 43.2441 42.2828 43.2441C52.7279 43.2441 52.9315 43.2441 53.2447 42.9309C53.4483 42.7274 53.5579 42.4142 53.5579 41.9914C53.5579 41.5685 53.4483 41.2554 53.2447 41.0518C52.9315 40.7386 52.7279 40.7386 42.2828 40.7386C31.8378 40.7386 31.6342 40.7386 31.321 41.0518Z" stroke="#0B2D1F" stroke-width="0.2" mask="url(#path-6-outside-5_6461_47261)"/>
</g>
<g id="Vector_6">
<mask id="path-7-outside-6_6461_47261" maskUnits="userSpaceOnUse" x="17.4805" y="45.2559" width="9" height="4" fill="black">
<rect fill="white" x="17.4805" y="45.2559" width="9" height="4"/>
<path d="M18.7937 46.0635C18.5901 46.2671 18.4805 46.5803 18.4805 47.0031C18.4805 47.4259 18.5901 47.7391 18.7937 47.9427C19.0912 48.2402 19.3104 48.2559 22.2388 48.2559C25.1672 48.2559 25.3864 48.2402 25.684 47.9427C25.8875 47.7391 25.9972 47.4259 25.9972 47.0031C25.9972 46.5803 25.8875 46.2671 25.684 46.0635C25.3864 45.766 25.1672 45.7503 22.2388 45.7503C19.3104 45.7503 19.0912 45.766 18.7937 46.0635Z"/>
</mask>
<path d="M18.7937 46.0635C18.5901 46.2671 18.4805 46.5803 18.4805 47.0031C18.4805 47.4259 18.5901 47.7391 18.7937 47.9427C19.0912 48.2402 19.3104 48.2559 22.2388 48.2559C25.1672 48.2559 25.3864 48.2402 25.684 47.9427C25.8875 47.7391 25.9972 47.4259 25.9972 47.0031C25.9972 46.5803 25.8875 46.2671 25.684 46.0635C25.3864 45.766 25.1672 45.7503 22.2388 45.7503C19.3104 45.7503 19.0912 45.766 18.7937 46.0635Z" fill="#0B2D1F"/>
<path d="M18.7937 46.0635C18.5901 46.2671 18.4805 46.5803 18.4805 47.0031C18.4805 47.4259 18.5901 47.7391 18.7937 47.9427C19.0912 48.2402 19.3104 48.2559 22.2388 48.2559C25.1672 48.2559 25.3864 48.2402 25.684 47.9427C25.8875 47.7391 25.9972 47.4259 25.9972 47.0031C25.9972 46.5803 25.8875 46.2671 25.684 46.0635C25.3864 45.766 25.1672 45.7503 22.2388 45.7503C19.3104 45.7503 19.0912 45.766 18.7937 46.0635Z" stroke="#0B2D1F" stroke-width="0.2" mask="url(#path-7-outside-6_6461_47261)"/>
</g>
<g id="Vector_7">
<mask id="path-8-outside-7_6461_47261" maskUnits="userSpaceOnUse" x="30.0078" y="45.2559" width="24" height="4" fill="black">
<rect fill="white" x="30.0078" y="45.2559" width="24" height="4"/>
<path d="M31.321 46.0635C31.1174 46.2671 31.0078 46.5803 31.0078 47.0031C31.0078 47.4259 31.1174 47.7391 31.321 47.9427C31.6342 48.2559 31.8378 48.2559 42.2828 48.2559C52.7279 48.2559 52.9315 48.2559 53.2447 47.9427C53.4483 47.7391 53.5579 47.4259 53.5579 47.0031C53.5579 46.5803 53.4483 46.2671 53.2447 46.0635C52.9315 45.7503 52.7279 45.7503 42.2828 45.7503C31.8378 45.7503 31.6342 45.7503 31.321 46.0635Z"/>
</mask>
<path d="M31.321 46.0635C31.1174 46.2671 31.0078 46.5803 31.0078 47.0031C31.0078 47.4259 31.1174 47.7391 31.321 47.9427C31.6342 48.2559 31.8378 48.2559 42.2828 48.2559C52.7279 48.2559 52.9315 48.2559 53.2447 47.9427C53.4483 47.7391 53.5579 47.4259 53.5579 47.0031C53.5579 46.5803 53.4483 46.2671 53.2447 46.0635C52.9315 45.7503 52.7279 45.7503 42.2828 45.7503C31.8378 45.7503 31.6342 45.7503 31.321 46.0635Z" fill="#0B2D1F"/>
<path d="M31.321 46.0635C31.1174 46.2671 31.0078 46.5803 31.0078 47.0031C31.0078 47.4259 31.1174 47.7391 31.321 47.9427C31.6342 48.2559 31.8378 48.2559 42.2828 48.2559C52.7279 48.2559 52.9315 48.2559 53.2447 47.9427C53.4483 47.7391 53.5579 47.4259 53.5579 47.0031C53.5579 46.5803 53.4483 46.2671 53.2447 46.0635C52.9315 45.7503 52.7279 45.7503 42.2828 45.7503C31.8378 45.7503 31.6342 45.7503 31.321 46.0635Z" stroke="#0B2D1F" stroke-width="0.2" mask="url(#path-8-outside-7_6461_47261)"/>
</g>
<g id="Vector_8">
<mask id="path-9-outside-8_6461_47261" maskUnits="userSpaceOnUse" x="17.4805" y="50.2671" width="9" height="4" fill="black">
<rect fill="white" x="17.4805" y="50.2671" width="9" height="4"/>
<path d="M18.7937 51.0747C18.5901 51.2783 18.4805 51.5915 18.4805 52.0143C18.4805 52.4371 18.5901 52.7503 18.7937 52.9539C19.0912 53.2514 19.3104 53.2671 22.2388 53.2671C25.1672 53.2671 25.3864 53.2514 25.684 52.9539C25.8875 52.7503 25.9972 52.4371 25.9972 52.0143C25.9972 51.5915 25.8875 51.2783 25.684 51.0747C25.3864 50.7772 25.1672 50.7615 22.2388 50.7615C19.3104 50.7615 19.0912 50.7772 18.7937 51.0747Z"/>
</mask>
<path d="M18.7937 51.0747C18.5901 51.2783 18.4805 51.5915 18.4805 52.0143C18.4805 52.4371 18.5901 52.7503 18.7937 52.9539C19.0912 53.2514 19.3104 53.2671 22.2388 53.2671C25.1672 53.2671 25.3864 53.2514 25.684 52.9539C25.8875 52.7503 25.9972 52.4371 25.9972 52.0143C25.9972 51.5915 25.8875 51.2783 25.684 51.0747C25.3864 50.7772 25.1672 50.7615 22.2388 50.7615C19.3104 50.7615 19.0912 50.7772 18.7937 51.0747Z" fill="#0B2D1F"/>
<path d="M18.7937 51.0747C18.5901 51.2783 18.4805 51.5915 18.4805 52.0143C18.4805 52.4371 18.5901 52.7503 18.7937 52.9539C19.0912 53.2514 19.3104 53.2671 22.2388 53.2671C25.1672 53.2671 25.3864 53.2514 25.684 52.9539C25.8875 52.7503 25.9972 52.4371 25.9972 52.0143C25.9972 51.5915 25.8875 51.2783 25.684 51.0747C25.3864 50.7772 25.1672 50.7615 22.2388 50.7615C19.3104 50.7615 19.0912 50.7772 18.7937 51.0747Z" stroke="#0B2D1F" stroke-width="0.2" mask="url(#path-9-outside-8_6461_47261)"/>
</g>
<g id="Vector_9">
<mask id="path-10-outside-9_6461_47261" maskUnits="userSpaceOnUse" x="30.0078" y="50.2671" width="24" height="4" fill="black">
<rect fill="white" x="30.0078" y="50.2671" width="24" height="4"/>
<path d="M31.321 51.0747C31.1174 51.2783 31.0078 51.5915 31.0078 52.0143C31.0078 52.4371 31.1174 52.7503 31.321 52.9539C31.6342 53.2671 31.8378 53.2671 42.2828 53.2671C52.7279 53.2671 52.9315 53.2671 53.2447 52.9539C53.4483 52.7503 53.5579 52.4371 53.5579 52.0143C53.5579 51.5915 53.4483 51.2783 53.2447 51.0747C52.9315 50.7615 52.7279 50.7615 42.2828 50.7615C31.8378 50.7615 31.6342 50.7615 31.321 51.0747Z"/>
</mask>
<path d="M31.321 51.0747C31.1174 51.2783 31.0078 51.5915 31.0078 52.0143C31.0078 52.4371 31.1174 52.7503 31.321 52.9539C31.6342 53.2671 31.8378 53.2671 42.2828 53.2671C52.7279 53.2671 52.9315 53.2671 53.2447 52.9539C53.4483 52.7503 53.5579 52.4371 53.5579 52.0143C53.5579 51.5915 53.4483 51.2783 53.2447 51.0747C52.9315 50.7615 52.7279 50.7615 42.2828 50.7615C31.8378 50.7615 31.6342 50.7615 31.321 51.0747Z" fill="#0B2D1F"/>
<path d="M31.321 51.0747C31.1174 51.2783 31.0078 51.5915 31.0078 52.0143C31.0078 52.4371 31.1174 52.7503 31.321 52.9539C31.6342 53.2671 31.8378 53.2671 42.2828 53.2671C52.7279 53.2671 52.9315 53.2671 53.2447 52.9539C53.4483 52.7503 53.5579 52.4371 53.5579 52.0143C53.5579 51.5915 53.4483 51.2783 53.2447 51.0747C52.9315 50.7615 52.7279 50.7615 42.2828 50.7615C31.8378 50.7615 31.6342 50.7615 31.321 51.0747Z" stroke="#0B2D1F" stroke-width="0.2" mask="url(#path-10-outside-9_6461_47261)"/>
</g>
<g id="Vector_10">
<mask id="path-11-outside-10_6461_47261" maskUnits="userSpaceOnUse" x="17.4805" y="55.2778" width="9" height="4" fill="black">
<rect fill="white" x="17.4805" y="55.2778" width="9" height="4"/>
<path d="M18.7937 56.0855C18.5901 56.289 18.4805 56.6022 18.4805 57.0251C18.4805 57.4479 18.5901 57.7611 18.7937 57.9646C19.0912 58.2622 19.3104 58.2778 22.2388 58.2778C25.1672 58.2778 25.3864 58.2622 25.684 57.9646C25.8875 57.7611 25.9972 57.4479 25.9972 57.0251C25.9972 56.6022 25.8875 56.289 25.684 56.0855C25.3864 55.7879 25.1672 55.7723 22.2388 55.7723C19.3104 55.7723 19.0912 55.7879 18.7937 56.0855Z"/>
</mask>
<path d="M18.7937 56.0855C18.5901 56.289 18.4805 56.6022 18.4805 57.0251C18.4805 57.4479 18.5901 57.7611 18.7937 57.9646C19.0912 58.2622 19.3104 58.2778 22.2388 58.2778C25.1672 58.2778 25.3864 58.2622 25.684 57.9646C25.8875 57.7611 25.9972 57.4479 25.9972 57.0251C25.9972 56.6022 25.8875 56.289 25.684 56.0855C25.3864 55.7879 25.1672 55.7723 22.2388 55.7723C19.3104 55.7723 19.0912 55.7879 18.7937 56.0855Z" fill="#0B2D1F"/>
<path d="M18.7937 56.0855C18.5901 56.289 18.4805 56.6022 18.4805 57.0251C18.4805 57.4479 18.5901 57.7611 18.7937 57.9646C19.0912 58.2622 19.3104 58.2778 22.2388 58.2778C25.1672 58.2778 25.3864 58.2622 25.684 57.9646C25.8875 57.7611 25.9972 57.4479 25.9972 57.0251C25.9972 56.6022 25.8875 56.289 25.684 56.0855C25.3864 55.7879 25.1672 55.7723 22.2388 55.7723C19.3104 55.7723 19.0912 55.7879 18.7937 56.0855Z" stroke="#0B2D1F" stroke-width="0.2" mask="url(#path-11-outside-10_6461_47261)"/>
</g>
<g id="Vector_11">
<mask id="path-12-outside-11_6461_47261" maskUnits="userSpaceOnUse" x="30.0078" y="55.2778" width="24" height="4" fill="black">
<rect fill="white" x="30.0078" y="55.2778" width="24" height="4"/>
<path d="M31.321 56.0855C31.1174 56.289 31.0078 56.6022 31.0078 57.0251C31.0078 57.4479 31.1174 57.7611 31.321 57.9646C31.6342 58.2778 31.8378 58.2778 42.2828 58.2778C52.7279 58.2778 52.9315 58.2778 53.2447 57.9646C53.4483 57.7611 53.5579 57.4479 53.5579 57.0251C53.5579 56.6022 53.4483 56.289 53.2447 56.0855C52.9315 55.7723 52.7279 55.7723 42.2828 55.7723C31.8378 55.7723 31.6342 55.7723 31.321 56.0855Z"/>
</mask>
<path d="M31.321 56.0855C31.1174 56.289 31.0078 56.6022 31.0078 57.0251C31.0078 57.4479 31.1174 57.7611 31.321 57.9646C31.6342 58.2778 31.8378 58.2778 42.2828 58.2778C52.7279 58.2778 52.9315 58.2778 53.2447 57.9646C53.4483 57.7611 53.5579 57.4479 53.5579 57.0251C53.5579 56.6022 53.4483 56.289 53.2447 56.0855C52.9315 55.7723 52.7279 55.7723 42.2828 55.7723C31.8378 55.7723 31.6342 55.7723 31.321 56.0855Z" fill="#0B2D1F"/>
<path d="M31.321 56.0855C31.1174 56.289 31.0078 56.6022 31.0078 57.0251C31.0078 57.4479 31.1174 57.7611 31.321 57.9646C31.6342 58.2778 31.8378 58.2778 42.2828 58.2778C52.7279 58.2778 52.9315 58.2778 53.2447 57.9646C53.4483 57.7611 53.5579 57.4479 53.5579 57.0251C53.5579 56.6022 53.4483 56.289 53.2447 56.0855C52.9315 55.7723 52.7279 55.7723 42.2828 55.7723C31.8378 55.7723 31.6342 55.7723 31.321 56.0855Z" stroke="#0B2D1F" stroke-width="0.2" mask="url(#path-12-outside-11_6461_47261)"/>
</g>
</g>
</g>
</svg>
