<svg width="72" height="72" viewBox="0 0 72 72" fill="none" xmlns="http://www.w3.org/2000/svg">
<g id="tax">
<g id="Group 1171275320">
<g id="Group">
<g id="Vector">
<mask id="path-1-outside-1_6490_46512" maskUnits="userSpaceOnUse" x="3" y="3" width="66" height="66" fill="black">
<rect fill="white" x="3" y="3" width="66" height="66"/>
<path fill-rule="evenodd" clip-rule="evenodd" d="M9.56517 54.0869H8.17375C7.06656 54.0869 6.00451 54.5265 5.22287 55.3098C4.43957 56.092 4 57.1534 4 58.2612V61.0434C4 64.885 7.11502 68 10.9566 68H49.912C51.7567 68 53.5266 67.2668 54.8316 65.963C56.1354 64.6581 56.8686 62.8882 56.8686 61.0434V17.9126H63.8251C66.1304 17.9126 67.9989 16.0441 67.9989 13.7388V10.9566C67.9989 9.11123 67.2657 7.34192 65.9619 6.0364C64.657 4.73311 62.8871 4 61.0423 4H16.521C14.6757 4 12.9064 4.73317 11.6014 6.0364C10.2976 7.34189 9.56446 9.11123 9.56446 10.9566L9.56517 54.0869ZM12.3474 54.0869H41.5643C42.6721 54.0869 43.7336 54.5265 44.5158 55.3098C45.2991 56.092 45.7386 57.1534 45.7386 58.2612V61.0434C45.7386 62.1512 46.1782 63.2127 46.9615 63.9943C47.7432 64.7776 48.8052 65.2172 49.9124 65.2172C51.0201 65.2172 52.0816 64.7776 52.8633 63.9943C53.6466 63.2127 54.0862 62.1513 54.0862 61.0434V10.9577C54.0862 9.44403 54.5803 7.97987 55.4776 6.78336H16.5221C15.4144 6.78336 14.3529 7.22293 13.5713 8.00623C12.7874 8.78842 12.3478 9.84986 12.3478 10.9577L12.3474 54.0869ZM41.5643 56.8697H8.17336C7.80484 56.8697 7.4501 57.0157 7.18955 57.2773C6.92845 57.5373 6.78193 57.8921 6.78193 58.2611V61.0433C6.78193 63.3487 8.65038 65.2171 10.9563 65.2171H44.3472C43.4499 64.0207 42.9558 62.5571 42.9558 61.0433V58.2611C42.9558 57.8921 42.8098 57.5373 42.5482 57.2773C42.2882 57.0157 41.9334 56.8697 41.5643 56.8697ZM61.0428 6.78252C59.9356 6.78252 58.8735 7.2221 58.0919 8.00539C57.3086 8.78759 56.869 9.84903 56.869 10.9568V15.1306H63.8256C64.5934 15.1306 65.2164 14.5071 65.2164 13.7392V10.957C65.2164 9.84921 64.7769 8.78772 63.9936 8.00551C63.2119 7.22221 62.1506 6.78252 61.0428 6.78252Z"/>
<path d="M12.3474 54.0869H41.5643C42.6721 54.0869 43.7336 54.5265 44.5158 55.3098C45.2991 56.092 45.7386 57.1534 45.7386 58.2612V61.0434C45.7386 62.1512 46.1782 63.2127 46.9615 63.9943C47.7432 64.7776 48.8052 65.2172 49.9124 65.2172C51.0201 65.2172 52.0816 64.7776 52.8633 63.9943C53.6466 63.2127 54.0862 62.1513 54.0862 61.0434V10.9577C54.0862 9.44403 54.5803 7.97987 55.4776 6.78336H16.5221C15.4144 6.78336 14.3529 7.22293 13.5713 8.00623C12.7874 8.78842 12.3478 9.84986 12.3478 10.9577L12.3474 54.0869Z"/>
</mask>
<path fill-rule="evenodd" clip-rule="evenodd" d="M9.56517 54.0869H8.17375C7.06656 54.0869 6.00451 54.5265 5.22287 55.3098C4.43957 56.092 4 57.1534 4 58.2612V61.0434C4 64.885 7.11502 68 10.9566 68H49.912C51.7567 68 53.5266 67.2668 54.8316 65.963C56.1354 64.6581 56.8686 62.8882 56.8686 61.0434V17.9126H63.8251C66.1304 17.9126 67.9989 16.0441 67.9989 13.7388V10.9566C67.9989 9.11123 67.2657 7.34192 65.9619 6.0364C64.657 4.73311 62.8871 4 61.0423 4H16.521C14.6757 4 12.9064 4.73317 11.6014 6.0364C10.2976 7.34189 9.56446 9.11123 9.56446 10.9566L9.56517 54.0869ZM12.3474 54.0869H41.5643C42.6721 54.0869 43.7336 54.5265 44.5158 55.3098C45.2991 56.092 45.7386 57.1534 45.7386 58.2612V61.0434C45.7386 62.1512 46.1782 63.2127 46.9615 63.9943C47.7432 64.7776 48.8052 65.2172 49.9124 65.2172C51.0201 65.2172 52.0816 64.7776 52.8633 63.9943C53.6466 63.2127 54.0862 62.1513 54.0862 61.0434V10.9577C54.0862 9.44403 54.5803 7.97987 55.4776 6.78336H16.5221C15.4144 6.78336 14.3529 7.22293 13.5713 8.00623C12.7874 8.78842 12.3478 9.84986 12.3478 10.9577L12.3474 54.0869ZM41.5643 56.8697H8.17336C7.80484 56.8697 7.4501 57.0157 7.18955 57.2773C6.92845 57.5373 6.78193 57.8921 6.78193 58.2611V61.0433C6.78193 63.3487 8.65038 65.2171 10.9563 65.2171H44.3472C43.4499 64.0207 42.9558 62.5571 42.9558 61.0433V58.2611C42.9558 57.8921 42.8098 57.5373 42.5482 57.2773C42.2882 57.0157 41.9334 56.8697 41.5643 56.8697ZM61.0428 6.78252C59.9356 6.78252 58.8735 7.2221 58.0919 8.00539C57.3086 8.78759 56.869 9.84903 56.869 10.9568V15.1306H63.8256C64.5934 15.1306 65.2164 14.5071 65.2164 13.7392V10.957C65.2164 9.84921 64.7769 8.78772 63.9936 8.00551C63.2119 7.22221 62.1506 6.78252 61.0428 6.78252Z" fill="#0D313B"/>
<path d="M12.3474 54.0869H41.5643C42.6721 54.0869 43.7336 54.5265 44.5158 55.3098C45.2991 56.092 45.7386 57.1534 45.7386 58.2612V61.0434C45.7386 62.1512 46.1782 63.2127 46.9615 63.9943C47.7432 64.7776 48.8052 65.2172 49.9124 65.2172C51.0201 65.2172 52.0816 64.7776 52.8633 63.9943C53.6466 63.2127 54.0862 62.1513 54.0862 61.0434V10.9577C54.0862 9.44403 54.5803 7.97987 55.4776 6.78336H16.5221C15.4144 6.78336 14.3529 7.22293 13.5713 8.00623C12.7874 8.78842 12.3478 9.84986 12.3478 10.9577L12.3474 54.0869Z" fill="#36C5F0"/>
<path d="M12.3474 54.0869L12.1931 54.0869L12.1931 54.2412H12.3474V54.0869ZM44.5158 55.3098L44.4066 55.4188L44.4068 55.4189L44.5158 55.3098ZM46.9615 63.9943L47.0707 63.8853L47.0705 63.8851L46.9615 63.9943ZM52.8633 63.9943L52.7543 63.8851L52.7541 63.8853L52.8633 63.9943ZM55.4776 6.78336L55.601 6.87592L55.7861 6.62907H55.4776V6.78336ZM13.5713 8.00623L13.6802 8.11544L13.6805 8.11521L13.5713 8.00623ZM12.3478 10.9577L12.5021 10.9577V10.9577H12.3478ZM12.3474 54.2412H41.5643V53.9326H12.3474V54.2412ZM41.5643 54.2412C42.6312 54.2412 43.6534 54.6645 44.4066 55.4188L44.625 55.2007C43.8138 54.3884 42.713 53.9326 41.5643 53.9326V54.2412ZM44.4068 55.4189C45.161 56.1721 45.5844 57.1943 45.5844 58.2612H45.8929C45.8929 57.1125 45.4371 56.0118 44.6248 55.2006L44.4068 55.4189ZM45.5844 58.2612V61.0434H45.8929V58.2612H45.5844ZM45.5844 61.0434C45.5844 62.1921 46.0402 63.2929 46.8525 64.1035L47.0705 63.8851C46.3163 63.1325 45.8929 62.1103 45.8929 61.0434H45.5844ZM46.8523 64.1033C47.663 64.9157 48.7643 65.3715 49.9124 65.3715V65.0629C48.846 65.0629 47.8234 64.6396 47.0707 63.8853L46.8523 64.1033ZM49.9124 65.3715C51.061 65.3715 52.1618 64.9157 52.9725 64.1033L52.7541 63.8853C52.0014 64.6396 50.9793 65.0629 49.9124 65.0629V65.3715ZM52.9723 64.1035C53.7846 63.2929 54.2404 62.1921 54.2404 61.0434H53.9319C53.9319 62.1104 53.5085 63.1325 52.7543 63.8851L52.9723 64.1035ZM54.2404 61.0434V10.9577H53.9319V61.0434H54.2404ZM54.2404 10.9577C54.2404 9.47762 54.7236 8.0459 55.601 6.87592L55.3541 6.69079C54.4369 7.91384 53.9319 9.41044 53.9319 10.9577H54.2404ZM55.4776 6.62907H16.5221V6.93764H55.4776V6.62907ZM16.5221 6.62907C15.3735 6.62907 14.2727 7.08488 13.462 7.89724L13.6805 8.11521C14.4331 7.36098 15.4553 6.93764 16.5221 6.93764V6.62907ZM13.4623 7.89701C12.6494 8.70821 12.1936 9.80896 12.1936 10.9577H12.5021C12.5021 9.89075 12.9255 8.86863 13.6802 8.11544L13.4623 7.89701ZM12.1936 10.9577L12.1931 54.0869L12.5017 54.0869L12.5021 10.9577L12.1936 10.9577ZM9.56517 54.0869V54.3955H9.87375L9.87375 54.0869L9.56517 54.0869ZM5.22287 55.3098L5.44091 55.5281L5.44129 55.5277L5.22287 55.3098ZM54.8316 65.963L55.0497 66.1813L55.0499 66.1811L54.8316 65.963ZM56.8686 17.9126V17.604H56.56V17.9126H56.8686ZM65.9619 6.0364L66.1803 5.81835L66.18 5.81807L65.9619 6.0364ZM11.6014 6.0364L11.3834 5.81806L11.3831 5.81834L11.6014 6.0364ZM9.56446 10.9566L9.25589 10.9566L9.25589 10.9566L9.56446 10.9566ZM7.18955 57.2773L7.40728 57.496L7.4082 57.495L7.18955 57.2773ZM44.3472 65.2171V65.5257H44.9644L44.5941 65.032L44.3472 65.2171ZM42.5482 57.2773L42.3293 57.4948L42.3307 57.4962L42.5482 57.2773ZM58.0919 8.00539L58.3099 8.22374L58.3103 8.22336L58.0919 8.00539ZM56.869 15.1306H56.5604V15.4392H56.869V15.1306ZM63.9936 8.00551L63.7751 8.22347L63.7755 8.22385L63.9936 8.00551ZM9.56517 53.7783H8.17375V54.3955H9.56517V53.7783ZM8.17375 53.7783C6.98482 53.7783 5.84413 54.2503 5.00445 55.0918L5.44129 55.5277C6.1649 54.8026 7.14829 54.3955 8.17375 54.3955V53.7783ZM5.00483 55.0914C4.16348 55.9316 3.69143 57.0716 3.69143 58.2612H4.30857C4.30857 57.2352 4.71567 56.2523 5.44091 55.5281L5.00483 55.0914ZM3.69143 58.2612V61.0434H4.30857V58.2612H3.69143ZM3.69143 61.0434C3.69143 65.0554 6.94461 68.3086 10.9566 68.3086V67.6914C7.28544 67.6914 4.30857 64.7146 4.30857 61.0434H3.69143ZM10.9566 68.3086H49.912V67.6914H10.9566V68.3086ZM49.912 68.3086C51.8386 68.3086 53.6869 67.5429 55.0497 66.1813L54.6135 65.7447C53.3664 66.9908 51.6749 67.6914 49.912 67.6914V68.3086ZM55.0499 66.1811C56.4115 64.8184 57.1771 62.97 57.1771 61.0434H56.56C56.56 62.8064 55.8594 64.4978 54.6133 65.7449L55.0499 66.1811ZM57.1771 61.0434V17.9126H56.56V61.0434H57.1771ZM56.8686 18.2211H63.8251V17.604H56.8686V18.2211ZM63.8251 18.2211C66.3009 18.2211 68.3074 16.2145 68.3074 13.7388H67.6903C67.6903 15.8737 65.96 17.604 63.8251 17.604V18.2211ZM68.3074 13.7388V10.9566H67.6903V13.7388H68.3074ZM68.3074 10.9566C68.3074 9.02936 67.5418 7.18165 66.1803 5.81835L65.7436 6.25445C66.9897 7.50218 67.6903 9.19311 67.6903 10.9566H68.3074ZM66.18 5.81807C64.8172 4.45704 62.9689 3.69143 61.0423 3.69143V4.30857C62.8052 4.30857 64.4967 5.00918 65.7439 6.25473L66.18 5.81807ZM61.0423 3.69143H16.521V4.30857H61.0423V3.69143ZM16.521 3.69143C14.5938 3.69143 12.7461 4.45711 11.3834 5.81806L11.8195 6.25474C13.0666 5.00922 14.7575 4.30857 16.521 4.30857V3.69143ZM11.3831 5.81834C10.0215 7.18162 9.25589 9.02937 9.25589 10.9566H9.87303C9.87303 9.1931 10.5736 7.50215 11.8198 6.25445L11.3831 5.81834ZM9.25589 10.9566L9.2566 54.0869L9.87375 54.0869L9.87303 10.9566L9.25589 10.9566ZM41.5643 56.5611H8.17336V57.1783H41.5643V56.5611ZM8.17336 56.5611C7.72349 56.5611 7.28986 56.7393 6.9709 57.0596L7.4082 57.495C7.61035 57.2921 7.88619 57.1783 8.17336 57.1783V56.5611ZM6.97182 57.0587C6.65217 57.377 6.47336 57.8105 6.47336 58.2611H7.0905C7.0905 57.9736 7.20472 57.6977 7.40728 57.496L6.97182 57.0587ZM6.47336 58.2611V61.0433H7.0905V58.2611H6.47336ZM6.47336 61.0433C6.47336 63.5191 8.47999 65.5257 10.9563 65.5257V64.9085C8.82078 64.9085 7.0905 63.1782 7.0905 61.0433H6.47336ZM10.9563 65.5257H44.3472V64.9085H10.9563V65.5257ZM44.5941 65.032C43.7366 63.8886 43.2644 62.4899 43.2644 61.0433H42.6472C42.6472 62.6243 43.1633 64.1528 44.1004 65.4023L44.5941 65.032ZM43.2644 61.0433V58.2611H42.6472V61.0433H43.2644ZM43.2644 58.2611C43.2644 57.8108 43.0863 57.377 42.7657 57.0584L42.3307 57.4962C42.5334 57.6976 42.6472 57.9733 42.6472 58.2611H43.2644ZM42.7671 57.0598C42.4485 56.7392 42.0146 56.5611 41.5643 56.5611V57.1783C41.8522 57.1783 42.1279 57.2921 42.3293 57.4948L42.7671 57.0598ZM61.0428 6.47395C59.8538 6.47395 58.7131 6.94598 57.8734 7.78743L58.3103 8.22336C59.0339 7.49822 60.0173 7.0911 61.0428 7.0911V6.47395ZM57.8738 7.78705C57.0325 8.62722 56.5604 9.76725 56.5604 10.9568H57.1776C57.1776 9.93081 57.5847 8.94796 58.3099 8.22374L57.8738 7.78705ZM56.5604 10.9568V15.1306H57.1776V10.9568H56.5604ZM56.869 15.4392H63.8256V14.822H56.869V15.4392ZM63.8256 15.4392C64.764 15.4392 65.525 14.6773 65.525 13.7392H64.9079C64.9079 14.3368 64.4229 14.822 63.8256 14.822V15.4392ZM65.525 13.7392V10.957H64.9079V13.7392H65.525ZM65.525 10.957C65.525 9.76743 65.053 8.62735 64.2116 7.78716L63.7755 8.22385C64.5008 8.94809 64.9079 9.93099 64.9079 10.957H65.525ZM64.212 7.78754C63.3723 6.94612 62.2324 6.47395 61.0428 6.47395V7.0911C62.0688 7.0911 63.0515 7.4983 63.7751 8.22347L64.212 7.78754Z" fill="#0D313B" mask="url(#path-1-outside-1_6490_46512)"/>
</g>
<g id="Vector_2">
<mask id="path-3-outside-2_6490_46512" maskUnits="userSpaceOnUse" x="22.4766" y="14.1318" width="10" height="10" fill="black">
<rect fill="white" x="22.4766" y="14.1318" width="10" height="10"/>
<path fill-rule="evenodd" clip-rule="evenodd" d="M27.6509 15.1318C25.3467 15.1318 23.4766 17.002 23.4766 19.3056C23.4766 21.6098 25.3467 23.4794 27.6509 23.4794C29.9545 23.4794 31.8247 21.6098 31.8247 19.3056C31.8247 17.002 29.9545 15.1318 27.6509 15.1318ZM27.6509 17.9141C28.4188 17.9141 29.0423 18.5376 29.0423 19.3055C29.0423 20.0734 28.4188 20.6969 27.6509 20.6969C26.883 20.6969 26.2595 20.0734 26.2595 19.3055C26.2595 18.5376 26.883 17.9141 27.6509 17.9141Z"/>
</mask>
<path fill-rule="evenodd" clip-rule="evenodd" d="M27.6509 15.1318C25.3467 15.1318 23.4766 17.002 23.4766 19.3056C23.4766 21.6098 25.3467 23.4794 27.6509 23.4794C29.9545 23.4794 31.8247 21.6098 31.8247 19.3056C31.8247 17.002 29.9545 15.1318 27.6509 15.1318ZM27.6509 17.9141C28.4188 17.9141 29.0423 18.5376 29.0423 19.3055C29.0423 20.0734 28.4188 20.6969 27.6509 20.6969C26.883 20.6969 26.2595 20.0734 26.2595 19.3055C26.2595 18.5376 26.883 17.9141 27.6509 17.9141Z" fill="#0D313B"/>
<path fill-rule="evenodd" clip-rule="evenodd" d="M27.6509 15.1318C25.3467 15.1318 23.4766 17.002 23.4766 19.3056C23.4766 21.6098 25.3467 23.4794 27.6509 23.4794C29.9545 23.4794 31.8247 21.6098 31.8247 19.3056C31.8247 17.002 29.9545 15.1318 27.6509 15.1318ZM27.6509 17.9141C28.4188 17.9141 29.0423 18.5376 29.0423 19.3055C29.0423 20.0734 28.4188 20.6969 27.6509 20.6969C26.883 20.6969 26.2595 20.0734 26.2595 19.3055C26.2595 18.5376 26.883 17.9141 27.6509 17.9141Z" stroke="#0D313B" stroke-width="0.617143" mask="url(#path-3-outside-2_6490_46512)"/>
</g>
<g id="Vector_3">
<mask id="path-4-outside-3_6490_46512" maskUnits="userSpaceOnUse" x="33.6094" y="25.2622" width="10" height="10" fill="black">
<rect fill="white" x="33.6094" y="25.2622" width="10" height="10"/>
<path fill-rule="evenodd" clip-rule="evenodd" d="M38.7831 26.2622C36.479 26.2622 34.6094 28.1323 34.6094 30.436C34.6094 32.7402 36.479 34.6103 38.7831 34.6103C41.0873 34.6103 42.9569 32.7402 42.9569 30.436C42.9569 28.1323 41.0873 26.2622 38.7831 26.2622ZM38.7831 29.045C39.551 29.045 40.1746 29.668 40.1746 30.4359C40.1746 31.2043 39.551 31.8273 38.7831 31.8273C38.0153 31.8273 37.3917 31.2043 37.3917 30.4359C37.3917 29.668 38.0153 29.045 38.7831 29.045Z"/>
</mask>
<path fill-rule="evenodd" clip-rule="evenodd" d="M38.7831 26.2622C36.479 26.2622 34.6094 28.1323 34.6094 30.436C34.6094 32.7402 36.479 34.6103 38.7831 34.6103C41.0873 34.6103 42.9569 32.7402 42.9569 30.436C42.9569 28.1323 41.0873 26.2622 38.7831 26.2622ZM38.7831 29.045C39.551 29.045 40.1746 29.668 40.1746 30.4359C40.1746 31.2043 39.551 31.8273 38.7831 31.8273C38.0153 31.8273 37.3917 31.2043 37.3917 30.4359C37.3917 29.668 38.0153 29.045 38.7831 29.045Z" fill="#0D313B"/>
<path fill-rule="evenodd" clip-rule="evenodd" d="M38.7831 26.2622C36.479 26.2622 34.6094 28.1323 34.6094 30.436C34.6094 32.7402 36.479 34.6103 38.7831 34.6103C41.0873 34.6103 42.9569 32.7402 42.9569 30.436C42.9569 28.1323 41.0873 26.2622 38.7831 26.2622ZM38.7831 29.045C39.551 29.045 40.1746 29.668 40.1746 30.4359C40.1746 31.2043 39.551 31.8273 38.7831 31.8273C38.0153 31.8273 37.3917 31.2043 37.3917 30.4359C37.3917 29.668 38.0153 29.045 38.7831 29.045Z" stroke="#0D313B" stroke-width="0.617143" mask="url(#path-4-outside-3_6490_46512)"/>
</g>
<g id="Vector_4">
<mask id="path-5-outside-4_6490_46512" maskUnits="userSpaceOnUse" x="22.4805" y="14.1323" width="21" height="21" fill="black">
<rect fill="white" x="22.4805" y="14.1323" width="21" height="21"/>
<path fill-rule="evenodd" clip-rule="evenodd" d="M25.8548 34.2025L42.5496 17.5063C43.0922 16.9637 43.0922 16.0817 42.5496 15.5393C42.007 14.9967 41.1251 14.9967 40.5826 15.5393L23.8878 32.234C23.3447 32.7766 23.3447 33.6586 23.8878 34.2016C24.4304 34.7442 25.3124 34.7442 25.8548 34.2016V34.2025Z"/>
</mask>
<path fill-rule="evenodd" clip-rule="evenodd" d="M25.8548 34.2025L42.5496 17.5063C43.0922 16.9637 43.0922 16.0817 42.5496 15.5393C42.007 14.9967 41.1251 14.9967 40.5826 15.5393L23.8878 32.234C23.3447 32.7766 23.3447 33.6586 23.8878 34.2016C24.4304 34.7442 25.3124 34.7442 25.8548 34.2016V34.2025Z" fill="#0D313B"/>
<path fill-rule="evenodd" clip-rule="evenodd" d="M25.8548 34.2025L42.5496 17.5063C43.0922 16.9637 43.0922 16.0817 42.5496 15.5393C42.007 14.9967 41.1251 14.9967 40.5826 15.5393L23.8878 32.234C23.3447 32.7766 23.3447 33.6586 23.8878 34.2016C24.4304 34.7442 25.3124 34.7442 25.8548 34.2016V34.2025Z" stroke="#0D313B" stroke-width="0.617143" mask="url(#path-5-outside-4_6490_46512)"/>
</g>
</g>
<g id="Group 1171275319">
<g id="Group_2">
<path id="Vector_5" d="M31.8674 38.9463C31.3933 38.9463 31.1562 39.1833 29.2598 44.1615C27.1263 49.6138 27.1263 49.6138 27.8374 50.0879C28.3116 50.562 28.7857 50.562 29.2598 50.0879C29.4968 49.8509 29.7339 49.6138 29.9709 48.9026L30.208 47.9544H31.8674H33.5268L33.7638 48.9026C34.238 49.8509 34.475 50.325 35.1862 50.325C35.6603 50.325 35.6603 50.325 35.8973 50.0879C36.1344 49.8509 36.3715 49.6138 36.1344 49.1397C36.1344 48.9026 32.8156 39.8945 32.5786 39.4204C32.3415 39.1833 31.8674 38.9463 31.6303 38.9463C32.1044 38.9463 31.8674 38.9463 31.8674 38.9463ZM32.8156 45.5839C32.8156 45.8209 32.8156 45.8209 32.1045 45.8209C31.6303 45.8209 31.3933 45.8209 31.3933 45.8209C31.3933 45.8209 31.6303 45.3468 31.8674 44.6356L32.3415 43.6874L32.5786 44.6356C32.5786 44.8727 32.8156 45.5839 32.8156 45.5839Z" fill="#0D313B"/>
</g>
<g id="Group_3">
<path id="Vector_6" d="M18.8217 39.1817C18.3475 39.4188 18.1105 40.367 18.5846 40.8411C18.8217 41.3152 19.2958 41.3152 20.7181 41.3152H21.9034V45.5822V49.8492L22.3775 50.3233C22.6146 50.5604 22.8516 50.7974 23.0887 50.7974C23.3257 50.7974 23.5628 50.7974 23.7998 50.3233L24.2739 49.8492V45.5822V41.3152H25.4592C26.8816 41.3152 27.1186 41.3152 27.5927 40.8411C27.8298 40.367 27.5927 39.4188 27.3557 39.1817C26.6445 38.9446 19.0587 38.9446 18.8217 39.1817Z" fill="#0D313B"/>
</g>
<g id="Group_4">
<path id="Vector_7" d="M38.51 39.1817C38.2729 39.1817 38.2729 39.4188 38.0359 39.6558C37.5618 40.1299 37.7988 40.604 38.7471 42.7375L39.6953 44.871L38.7471 47.0045C37.7988 48.6639 37.7988 49.1381 37.7988 49.6122C37.7988 50.3233 38.2729 50.7974 38.9841 50.7974C39.6953 50.7974 39.9323 50.5604 40.6435 49.1381L41.3547 47.9528L42.0658 49.3751C42.5399 50.0863 42.777 50.7974 43.0141 50.7974C43.4882 51.0345 44.1993 51.0345 44.4364 50.5604C45.1476 50.0863 44.9105 49.8492 43.7252 47.4787L42.777 45.3452L43.7252 43.2117C44.1993 42.0264 44.6735 41.0781 44.6735 40.8411C44.6735 40.367 44.4364 39.8929 43.9623 39.6558C43.0141 39.1817 42.54 39.6558 41.8288 41.3152L41.3547 42.5005L40.4064 40.604C39.9323 39.4188 39.6953 39.1817 39.4582 39.1817C38.9841 38.9446 38.7471 38.9446 38.51 39.1817Z" fill="#0D313B"/>
</g>
</g>
</g>
</g>
</svg>
