<svg width="72" height="72" viewBox="0 0 72 72" fill="none" xmlns="http://www.w3.org/2000/svg">
<g id="unit-of-measure">
<g id="Group 1171275543">
<g id="products">
<g id="Group 159054">
<path id="Rectangle 34624447" d="M62.0605 11.2554H26.5371V18.0217H62.0605V11.2554Z" fill="#36C5F0"/>
<path id="Rectangle 47 (Stroke)" fill-rule="evenodd" clip-rule="evenodd" d="M27.6087 11.7066C27.1105 11.7066 26.7066 12.1105 26.7066 12.6087V16.6686C26.7066 17.1668 27.1105 17.5707 27.6087 17.5707H60.9895C61.4877 17.5707 61.8917 17.1668 61.8917 16.6686V12.6087C61.8917 12.1105 61.4877 11.7066 60.9895 11.7066H27.6087ZM24 12.6087C24 10.6157 25.6157 9 27.6087 9H60.9895C62.9825 9 64.5982 10.6157 64.5982 12.6087V16.6686C64.5982 18.6616 62.9825 20.2773 60.9895 20.2773H27.6087C25.6157 20.2773 24 18.6616 24 16.6686V12.6087Z" fill="#0D313B"/>
<path id="Rectangle 48" d="M49.064 24.7878H39.5347C39.3635 24.7878 39.2246 24.9267 39.2246 25.098V28.9886C39.2246 29.1599 39.3635 29.2988 39.5347 29.2988H49.064C49.2353 29.2988 49.3742 29.1599 49.3742 28.9886V25.098C49.3742 24.9267 49.2353 24.7878 49.064 24.7878Z" fill="#0D313B"/>
<g id="Rectangle 46">
<path id="Vector (Stroke)" fill-rule="evenodd" clip-rule="evenodd" d="M29.2442 20.7281V40.1251H59.3545V20.7281H29.2442ZM26.332 20.7281C26.332 18.2368 26.7529 17.3703 29.2442 17.3703L43.8747 17.3701H59.3545C62.294 17.3703 62.2937 17.3701 62.2937 20.8786L62.294 30.5269L62.294 40.1251C62.294 42.8068 62.294 42.8068 59.3545 42.8068H44.7515H29.2439C26.332 42.8068 26.332 42.857 26.332 40.1753V30.5269V20.7281Z" fill="#0D313B"/>
</g>
</g>
</g>
<g id="Group 1171275542">
<g id="Group 1000001464">
<rect id="Rectangle 34624515" x="5.52539" y="9" width="7.61905" height="39.619" fill="#2894B4"/>
<g id="Group 1000001343">
<g id="Group">
<g id="Vector">
<mask id="path-6-outside-1_6490_46376" maskUnits="userSpaceOnUse" x="66" y="47.2595" width="3" height="17" fill="black">
<rect fill="white" x="66" y="47.2595" width="3" height="17"/>
<path d="M67.4952 63.5456C67.6571 63.4694 67.8381 63.3361 67.8952 63.2218C67.9714 63.098 68 60.8122 68 55.8788V48.7262L67.7619 48.4976C67.6095 48.3357 67.4286 48.2595 67.1905 48.2595C66.9524 48.2595 66.7714 48.3357 66.619 48.4976L66.3809 48.7262V55.8978C66.3809 63.7456 66.3523 63.3742 66.9333 63.5742C67.1238 63.6408 67.2857 63.6313 67.4952 63.5456Z"/>
</mask>
<path d="M67.4952 63.5456C67.6571 63.4694 67.8381 63.3361 67.8952 63.2218C67.9714 63.098 68 60.8122 68 55.8788V48.7262L67.7619 48.4976C67.6095 48.3357 67.4286 48.2595 67.1905 48.2595C66.9524 48.2595 66.7714 48.3357 66.619 48.4976L66.3809 48.7262V55.8978C66.3809 63.7456 66.3523 63.3742 66.9333 63.5742C67.1238 63.6408 67.2857 63.6313 67.4952 63.5456Z" fill="#0D313B"/>
<path d="M67.4952 63.5456C67.6571 63.4694 67.8381 63.3361 67.8952 63.2218C67.9714 63.098 68 60.8122 68 55.8788V48.7262L67.7619 48.4976C67.6095 48.3357 67.4286 48.2595 67.1905 48.2595C66.9524 48.2595 66.7714 48.3357 66.619 48.4976L66.3809 48.7262V55.8978C66.3809 63.7456 66.3523 63.3742 66.9333 63.5742C67.1238 63.6408 67.2857 63.6313 67.4952 63.5456Z" stroke="#0D313B" stroke-width="0.308571" mask="url(#path-6-outside-1_6490_46376)"/>
</g>
<g id="Vector_2">
<mask id="path-7-outside-2_6490_46376" maskUnits="userSpaceOnUse" x="18.8574" y="46.9097" width="3" height="17" fill="black">
<rect fill="white" x="18.8574" y="46.9097" width="3" height="17"/>
<path d="M20.3526 63.1957C20.5146 63.1196 20.6955 62.9862 20.7527 62.8719C20.8288 62.7481 20.8574 60.4623 20.8574 55.5289V48.3763L20.6193 48.1478C20.4669 47.9859 20.286 47.9097 20.0479 47.9097C19.8098 47.9097 19.6288 47.9859 19.4764 48.1478L19.2383 48.3763V55.5479C19.2383 63.3958 19.2098 63.0243 19.7907 63.2243C19.9812 63.291 20.1431 63.2815 20.3526 63.1957Z"/>
</mask>
<path d="M20.3526 63.1957C20.5146 63.1196 20.6955 62.9862 20.7527 62.8719C20.8288 62.7481 20.8574 60.4623 20.8574 55.5289V48.3763L20.6193 48.1478C20.4669 47.9859 20.286 47.9097 20.0479 47.9097C19.8098 47.9097 19.6288 47.9859 19.4764 48.1478L19.2383 48.3763V55.5479C19.2383 63.3958 19.2098 63.0243 19.7907 63.2243C19.9812 63.291 20.1431 63.2815 20.3526 63.1957Z" fill="#0D313B"/>
<path d="M20.3526 63.1957C20.5146 63.1196 20.6955 62.9862 20.7527 62.8719C20.8288 62.7481 20.8574 60.4623 20.8574 55.5289V48.3763L20.6193 48.1478C20.4669 47.9859 20.286 47.9097 20.0479 47.9097C19.8098 47.9097 19.6288 47.9859 19.4764 48.1478L19.2383 48.3763V55.5479C19.2383 63.3958 19.2098 63.0243 19.7907 63.2243C19.9812 63.291 20.1431 63.2815 20.3526 63.1957Z" stroke="#0D313B" stroke-width="0.308571" mask="url(#path-7-outside-2_6490_46376)"/>
</g>
<g id="Vector_3">
<mask id="path-8-outside-3_6490_46376" maskUnits="userSpaceOnUse" x="21.7539" y="48.7039" width="44" height="13" fill="black">
<rect fill="white" x="21.7539" y="48.7039" width="44" height="13"/>
<path d="M60.6517 60.8756C60.9946 60.5803 64.6708 55.7611 64.7375 55.523C64.8232 55.1802 64.6232 54.8659 62.9089 52.6563C60.6422 49.7229 60.6136 49.7039 60.2803 49.7039C59.5088 49.7039 59.4326 49.9705 59.4326 52.523V54.5611H43.6227L27.8128 54.5611V52.523C27.8128 49.9705 27.7366 49.7039 26.9652 49.7039C26.6318 49.7039 26.6033 49.7229 24.3365 52.6563C22.6222 54.8659 22.4222 55.1802 22.5079 55.523C22.5746 55.7611 26.2509 60.5803 26.5937 60.8756C26.8604 61.1041 27.1842 61.0756 27.4985 60.8089L27.7652 60.5803L27.7938 58.3803L27.8223 56.1802L43.6227 56.1802H59.4231L59.4517 58.3803L59.4802 60.5803L59.7469 60.8089C60.0612 61.0756 60.385 61.1041 60.6517 60.8756ZM60.9755 54.0373L61.0041 52.742L61.8708 53.8659C62.347 54.4849 62.7946 55.0754 62.8613 55.1897C62.9756 55.3707 62.8994 55.4945 61.9946 56.6659L61.0041 57.9421L60.9755 56.6374C60.966 55.9135 60.966 54.7421 60.9755 54.0373ZM25.2413 56.6469C24.708 55.9707 24.2889 55.3611 24.3175 55.2945C24.3556 55.1897 25.9937 53.0277 26.2033 52.8087C26.2509 52.7515 26.289 53.7992 26.289 55.304C26.289 56.7326 26.2699 57.8945 26.2414 57.8945C26.2223 57.8945 25.7652 57.3326 25.2413 56.6469Z"/>
<path d="M25.2413 56.6469C24.708 55.9707 24.2889 55.3611 24.3175 55.2945C24.3556 55.1897 25.9937 53.0277 26.2033 52.8087C26.2509 52.7515 26.289 53.7992 26.289 55.304C26.289 56.7326 26.2699 57.8945 26.2414 57.8945C26.2223 57.8945 25.7652 57.3326 25.2413 56.6469Z"/>
<path d="M60.9755 54.0373L61.0041 52.742L61.8708 53.8659C62.347 54.4849 62.7946 55.0754 62.8613 55.1897C62.9756 55.3707 62.8994 55.4945 61.9946 56.6659L61.0041 57.9421L60.9755 56.6374C60.966 55.9135 60.966 54.7421 60.9755 54.0373Z"/>
</mask>
<path d="M60.6517 60.8756C60.9946 60.5803 64.6708 55.7611 64.7375 55.523C64.8232 55.1802 64.6232 54.8659 62.9089 52.6563C60.6422 49.7229 60.6136 49.7039 60.2803 49.7039C59.5088 49.7039 59.4326 49.9705 59.4326 52.523V54.5611H43.6227L27.8128 54.5611V52.523C27.8128 49.9705 27.7366 49.7039 26.9652 49.7039C26.6318 49.7039 26.6033 49.7229 24.3365 52.6563C22.6222 54.8659 22.4222 55.1802 22.5079 55.523C22.5746 55.7611 26.2509 60.5803 26.5937 60.8756C26.8604 61.1041 27.1842 61.0756 27.4985 60.8089L27.7652 60.5803L27.7938 58.3803L27.8223 56.1802L43.6227 56.1802H59.4231L59.4517 58.3803L59.4802 60.5803L59.7469 60.8089C60.0612 61.0756 60.385 61.1041 60.6517 60.8756ZM60.9755 54.0373L61.0041 52.742L61.8708 53.8659C62.347 54.4849 62.7946 55.0754 62.8613 55.1897C62.9756 55.3707 62.8994 55.4945 61.9946 56.6659L61.0041 57.9421L60.9755 56.6374C60.966 55.9135 60.966 54.7421 60.9755 54.0373ZM25.2413 56.6469C24.708 55.9707 24.2889 55.3611 24.3175 55.2945C24.3556 55.1897 25.9937 53.0277 26.2033 52.8087C26.2509 52.7515 26.289 53.7992 26.289 55.304C26.289 56.7326 26.2699 57.8945 26.2414 57.8945C26.2223 57.8945 25.7652 57.3326 25.2413 56.6469Z" fill="#0D313B"/>
<path d="M25.2413 56.6469C24.708 55.9707 24.2889 55.3611 24.3175 55.2945C24.3556 55.1897 25.9937 53.0277 26.2033 52.8087C26.2509 52.7515 26.289 53.7992 26.289 55.304C26.289 56.7326 26.2699 57.8945 26.2414 57.8945C26.2223 57.8945 25.7652 57.3326 25.2413 56.6469Z" fill="#2894B4"/>
<path d="M60.9755 54.0373L61.0041 52.742L61.8708 53.8659C62.347 54.4849 62.7946 55.0754 62.8613 55.1897C62.9756 55.3707 62.8994 55.4945 61.9946 56.6659L61.0041 57.9421L60.9755 56.6374C60.966 55.9135 60.966 54.7421 60.9755 54.0373Z" fill="#2894B4"/>
<path d="M60.9755 54.0373L60.8984 54.0363L60.8984 54.0356L60.9755 54.0373ZM61.0041 52.742L60.927 52.7403L60.9318 52.5219L61.0652 52.6949L61.0041 52.742ZM61.8708 53.8659L61.9319 53.8188L61.9319 53.8188L61.8708 53.8659ZM62.8613 55.1897L62.796 55.2309L62.7946 55.2286L62.8613 55.1897ZM61.9946 56.6659L62.0556 56.7131L62.0555 56.7132L61.9946 56.6659ZM61.0041 57.9421L61.065 57.9894L60.9317 58.1612L60.927 57.9438L61.0041 57.9421ZM60.9755 56.6374L60.8984 56.639L60.8984 56.6384L60.9755 56.6374ZM25.2413 56.6469L25.3019 56.5991L25.3026 56.6001L25.2413 56.6469ZM24.3175 55.2945L24.3901 55.3209L24.3884 55.3249L24.3175 55.2945ZM26.2033 52.8087L26.2627 52.8582L26.259 52.862L26.2033 52.8087ZM60.8984 54.0356L60.927 52.7403L61.0812 52.7437L61.0526 54.039L60.8984 54.0356ZM61.0652 52.6949L61.9319 53.8188L61.8097 53.913L60.943 52.7891L61.0652 52.6949ZM61.9319 53.8188C62.1701 54.1284 62.4013 54.4311 62.5813 54.6707C62.7594 54.9079 62.8917 55.0887 62.9279 55.1508L62.7946 55.2286C62.7642 55.1764 62.6393 55.0049 62.4579 54.7634C62.2784 54.5245 62.0477 54.2223 61.8096 53.9129L61.9319 53.8188ZM62.9265 55.1485C62.9601 55.2017 62.9855 55.2606 62.9781 55.3392C62.9713 55.412 62.9369 55.4931 62.8765 55.5955C62.7556 55.8008 62.5065 56.1294 62.0556 56.7131L61.9335 56.6188C62.3875 56.031 62.6289 55.712 62.7436 55.5172C62.8011 55.4196 62.8209 55.3626 62.8245 55.3247C62.8275 55.2927 62.8196 55.2682 62.7961 55.2309L62.9265 55.1485ZM62.0555 56.7132L61.065 57.9894L60.9431 57.8949L61.9336 56.6186L62.0555 56.7132ZM60.927 57.9438L60.8984 56.639L61.0526 56.6357L61.0812 57.9405L60.927 57.9438ZM60.8984 56.6384C60.8889 55.9139 60.8889 54.7417 60.8984 54.0363L61.0527 54.0383C61.0431 54.7424 61.0431 55.9132 61.0527 56.6363L60.8984 56.6384ZM25.1808 56.6947C24.9133 56.3556 24.6741 56.0327 24.505 55.7857C24.4206 55.6624 24.3528 55.5567 24.3076 55.4768C24.2852 55.4371 24.2672 55.4017 24.2555 55.3727C24.2497 55.3583 24.2445 55.343 24.2416 55.3281C24.2393 55.3163 24.2353 55.2905 24.2466 55.2641L24.3884 55.3249C24.3962 55.3067 24.3921 55.2935 24.393 55.2983C24.3933 55.3 24.3947 55.3053 24.3987 55.3153C24.4066 55.335 24.4208 55.3634 24.4419 55.4008C24.484 55.4751 24.5489 55.5766 24.6324 55.6985C24.799 55.942 25.036 56.262 25.3019 56.5991L25.1808 56.6947ZM24.245 55.2681C24.2489 55.2574 24.255 55.2466 24.2592 55.2396C24.2643 55.231 24.2707 55.2208 24.2781 55.2095C24.2929 55.1868 24.3131 55.1573 24.3377 55.1222C24.3871 55.052 24.4554 54.9576 24.5366 54.847C24.6991 54.6257 24.9142 54.3385 25.1346 54.0478C25.355 53.7572 25.5808 53.4628 25.7648 53.2273C25.9472 52.9937 26.0918 52.8136 26.1475 52.7554L26.259 52.862C26.21 52.9133 26.0712 53.0856 25.8864 53.3223C25.703 53.557 25.4777 53.8508 25.2576 54.141C25.0375 54.4313 24.8228 54.7179 24.6609 54.9383C24.5799 55.0486 24.5124 55.142 24.464 55.2109C24.4398 55.2454 24.4207 55.2733 24.4072 55.2939C24.4005 55.3042 24.3955 55.3122 24.3921 55.3179C24.3878 55.3252 24.3885 55.325 24.39 55.3208L24.245 55.2681ZM26.144 52.7593C26.1533 52.7481 26.1822 52.7211 26.2257 52.7315C26.2595 52.7396 26.275 52.7656 26.2785 52.7715C26.2884 52.7883 26.2932 52.8086 26.296 52.8216C26.3027 52.8526 26.3084 52.8987 26.3136 52.9559C26.324 53.0718 26.3333 53.2461 26.3411 53.4679C26.3566 53.912 26.3661 54.5511 26.3661 55.304H26.2118C26.2118 54.5521 26.2023 53.915 26.1869 53.4733C26.1792 53.2522 26.17 53.0813 26.1599 52.9698C26.1548 52.9133 26.1497 52.8752 26.1452 52.854C26.1424 52.8409 26.1415 52.843 26.1456 52.85C26.1463 52.851 26.1589 52.8742 26.1897 52.8816C26.2303 52.8913 26.2562 52.8657 26.2625 52.8581L26.144 52.7593ZM26.3661 55.304C26.3661 56.0186 26.3614 56.6667 26.353 57.1364C26.3488 57.3711 26.3438 57.5618 26.3379 57.6941C26.335 57.76 26.3318 57.8125 26.3284 57.849C26.3267 57.8669 26.3248 57.8831 26.3223 57.8957C26.3212 57.9015 26.3193 57.9103 26.3159 57.9192C26.3143 57.9232 26.3106 57.9321 26.3034 57.9413C26.2973 57.949 26.277 57.9717 26.2414 57.9717V57.8174C26.2066 57.8174 26.1872 57.8394 26.182 57.8461C26.1756 57.8542 26.1728 57.8614 26.1721 57.8631C26.1704 57.8675 26.1702 57.8697 26.1709 57.8665C26.1718 57.8614 26.1732 57.8513 26.1748 57.8346C26.1779 57.802 26.1809 57.7526 26.1838 57.6872C26.1895 57.557 26.1946 57.3679 26.1987 57.1336C26.2071 56.6652 26.2118 56.018 26.2118 55.304H26.3661ZM26.2414 57.9717C26.2212 57.9717 26.2067 57.9637 26.2038 57.9622C26.1984 57.9593 26.1942 57.9563 26.1919 57.9545C26.187 57.9509 26.1828 57.947 26.1797 57.9441C26.1732 57.9379 26.1656 57.93 26.1576 57.9212C26.1412 57.9034 26.1189 57.8778 26.0919 57.8459C26.0376 57.7818 25.9618 57.6896 25.8706 57.5762C25.688 57.3495 25.4423 57.037 25.18 56.6937L25.3026 56.6001C25.5642 56.9424 25.809 57.2538 25.9907 57.4795C26.0816 57.5923 26.1565 57.6835 26.2096 57.7461C26.2362 57.7776 26.2569 57.8013 26.2712 57.8169C26.2785 57.8248 26.2832 57.8296 26.2858 57.832C26.2872 57.8334 26.2867 57.8328 26.2847 57.8313C26.2838 57.8306 26.2809 57.8284 26.2765 57.8261C26.2746 57.8251 26.2609 57.8174 26.2414 57.8174V57.9717ZM60.6517 60.8756L60.7524 60.9925L60.7521 60.9927L60.6517 60.8756ZM64.7375 55.523L64.8873 55.5605L64.8861 55.5646L64.7375 55.523ZM62.9089 52.6563L62.787 52.7509L62.7868 52.7506L62.9089 52.6563ZM59.4326 54.5611H59.5869V54.7154H59.4326V54.5611ZM27.8128 54.5611V54.7154H27.6585V54.5611H27.8128ZM24.3365 52.6563L24.4586 52.7506L24.4584 52.7509L24.3365 52.6563ZM22.5079 55.523L22.3593 55.5647L22.3583 55.5605L22.5079 55.523ZM26.5937 60.8756L26.4933 60.9927L26.4931 60.9925L26.5937 60.8756ZM27.4985 60.8089L27.5989 60.926L27.5983 60.9265L27.4985 60.8089ZM27.7652 60.5803L27.9195 60.5823L27.9186 60.6521L27.8656 60.6975L27.7652 60.5803ZM27.7938 58.3803L27.948 58.3823L27.7938 58.3803ZM27.8223 56.1802L27.6681 56.1782L27.6701 56.0259H27.8223V56.1802ZM59.4231 56.1802V56.0259H59.5754L59.5774 56.1782L59.4231 56.1802ZM59.4517 58.3803L59.2974 58.3823L59.4517 58.3803ZM59.4802 60.5803L59.3798 60.6975L59.3269 60.6521L59.326 60.5823L59.4802 60.5803ZM59.7469 60.8089L59.6471 60.9265L59.6465 60.926L59.7469 60.8089ZM60.551 60.7586C60.5819 60.7321 60.6676 60.6364 60.8043 60.4719C60.9367 60.3128 61.1078 60.1004 61.3045 59.8523C61.6976 59.3563 62.1908 58.7195 62.6755 58.0843C63.1603 57.449 63.6362 56.8159 63.9948 56.327C64.1742 56.0825 64.3237 55.8748 64.4301 55.7214C64.4834 55.6445 64.5251 55.5824 64.5541 55.5366C64.5686 55.5136 64.5791 55.4962 64.5859 55.4838C64.595 55.4674 64.5923 55.4696 64.5889 55.4814L64.8861 55.5646C64.8786 55.5914 64.8646 55.6174 64.8559 55.6333C64.8449 55.6531 64.8309 55.6762 64.8148 55.7017C64.7824 55.7528 64.7379 55.819 64.6837 55.8972C64.5749 56.054 64.4236 56.2642 64.2436 56.5096C63.8834 57.0005 63.4063 57.6353 62.9208 58.2715C62.4353 58.9077 61.941 59.546 61.5463 60.044C61.349 60.2929 61.1762 60.5074 61.0416 60.6692C60.9114 60.8257 60.8072 60.9452 60.7524 60.9925L60.551 60.7586ZM64.5878 55.4856C64.603 55.4248 64.6062 55.3692 64.5812 55.2853C64.5539 55.1939 64.4926 55.0679 64.3681 54.8727C64.1193 54.4824 63.646 53.858 62.787 52.7509L63.0308 52.5617C63.8862 53.6642 64.37 54.3017 64.6283 54.7067C64.7574 54.9091 64.8372 55.0641 64.8769 55.1971C64.9188 55.3376 64.9149 55.4498 64.8872 55.5605L64.5878 55.4856ZM62.7868 52.7506C61.6512 51.2811 61.082 50.549 60.7546 50.1829C60.5894 49.9982 60.4982 49.9213 60.4374 49.8873C60.3891 49.8602 60.3592 49.8581 60.2803 49.8581V49.5496C60.368 49.5496 60.4667 49.5499 60.5883 49.6181C60.6974 49.6792 60.8176 49.7905 60.9846 49.9772C61.3215 50.3539 61.8998 51.0981 63.031 52.562L62.7868 52.7506ZM60.2803 49.8581C60.0899 49.8581 59.976 49.8761 59.8979 49.92C59.829 49.9586 59.7658 50.0306 59.715 50.2005C59.6629 50.3745 59.6298 50.6315 59.6107 51.0134C59.5917 51.393 59.5869 51.8848 59.5869 52.523H59.2783C59.2783 51.885 59.2831 51.3862 59.3025 50.998C59.3218 50.612 59.356 50.3237 59.4193 50.112C59.484 49.8962 59.5845 49.742 59.7469 49.6509C59.9 49.5649 60.0849 49.5496 60.2803 49.5496V49.8581ZM59.5869 52.523V54.5611H59.2783V52.523H59.5869ZM59.4326 54.7154H43.6227V54.4068H59.4326V54.7154ZM43.6227 54.7154L27.8128 54.7154V54.4068L43.6227 54.4068V54.7154ZM27.6585 54.5611V52.523H27.9671V54.5611H27.6585ZM27.6585 52.523C27.6585 51.8848 27.6538 51.393 27.6348 51.0134C27.6157 50.6315 27.5826 50.3745 27.5305 50.2005C27.4796 50.0306 27.4165 49.9586 27.3476 49.92C27.2694 49.8761 27.1555 49.8581 26.9652 49.8581V49.5496C27.1606 49.5496 27.3455 49.5649 27.4986 49.6509C27.661 49.742 27.7615 49.8962 27.8261 50.112C27.8895 50.3237 27.9237 50.612 27.943 50.998C27.9624 51.3862 27.9671 51.885 27.9671 52.523H27.6585ZM26.9652 49.8581C26.8863 49.8581 26.8563 49.8602 26.808 49.8873C26.7472 49.9213 26.656 49.9982 26.4909 50.1829C26.1635 50.549 25.5942 51.2811 24.4586 52.7506L24.2145 52.562C25.3456 51.0981 25.924 50.3539 26.2609 49.9772C26.4279 49.7905 26.548 49.6792 26.6572 49.6181C26.7788 49.5499 26.8774 49.5496 26.9652 49.5496V49.8581ZM24.4584 52.7509C23.5995 53.858 23.1262 54.4824 22.8773 54.8727C22.7528 55.0679 22.6915 55.1939 22.6643 55.2853C22.6392 55.3692 22.6424 55.4248 22.6576 55.4856L22.3583 55.5605C22.3306 55.4498 22.3266 55.3376 22.3686 55.1971C22.4083 55.0641 22.4881 54.9091 22.6171 54.7067C22.8754 54.3017 23.3593 53.6642 24.2146 52.5617L24.4584 52.7509ZM22.6565 55.4814C22.6532 55.4696 22.6504 55.4674 22.6595 55.4838C22.6664 55.4962 22.6768 55.5136 22.6914 55.5366C22.7204 55.5824 22.762 55.6445 22.8154 55.7214C22.9218 55.8748 23.0713 56.0825 23.2507 56.327C23.6093 56.8159 24.0851 57.449 24.5699 58.0843C25.0547 58.7195 25.5478 59.3563 25.941 59.8523C26.1376 60.1004 26.3088 60.3128 26.4411 60.4719C26.5779 60.6364 26.6636 60.7321 26.6944 60.7586L26.4931 60.9925C26.4382 60.9452 26.334 60.8257 26.2039 60.6692C26.0693 60.5074 25.8964 60.2929 25.6991 60.044C25.3045 59.546 24.8101 58.9077 24.3246 58.2715C23.8391 57.6353 23.362 57.0005 23.0019 56.5096C22.8219 56.2642 22.6705 56.054 22.5618 55.8972C22.5075 55.819 22.463 55.7528 22.4307 55.7017C22.4146 55.6762 22.4006 55.6531 22.3896 55.6333C22.3808 55.6174 22.3668 55.5914 22.3594 55.5646L22.6565 55.4814ZM26.6942 60.7584C26.7997 60.8489 26.9077 60.8825 27.0164 60.8741C27.1286 60.8654 27.2584 60.8103 27.3987 60.6912L27.5983 60.9265C27.4243 61.0742 27.2351 61.1667 27.0402 61.1818C26.8417 61.1972 26.6545 61.1308 26.4933 60.9927L26.6942 60.7584ZM27.3981 60.6917L27.6648 60.4632L27.8656 60.6975L27.5989 60.926L27.3981 60.6917ZM27.6109 60.5783L27.6395 58.3783L27.948 58.3823L27.9195 60.5823L27.6109 60.5783ZM27.6395 58.3783L27.6681 56.1782L27.9766 56.1822L27.948 58.3823L27.6395 58.3783ZM27.8223 56.0259L43.6227 56.0259V56.3345L27.8223 56.3345V56.0259ZM43.6227 56.0259H59.4231V56.3345H43.6227V56.0259ZM59.5774 56.1782L59.6059 58.3783L59.2974 58.3823L59.2688 56.1822L59.5774 56.1782ZM59.6059 58.3783L59.6345 60.5783L59.326 60.5823L59.2974 58.3823L59.6059 58.3783ZM59.5807 60.4632L59.8473 60.6917L59.6465 60.926L59.3798 60.6975L59.5807 60.4632ZM59.8467 60.6912C59.987 60.8103 60.1169 60.8654 60.2291 60.8741C60.3377 60.8825 60.4458 60.8489 60.5513 60.7584L60.7521 60.9927C60.591 61.1308 60.4038 61.1972 60.2052 61.1818C60.0103 61.1667 59.8211 61.0742 59.6471 60.9265L59.8467 60.6912Z" fill="#0D313B" mask="url(#path-8-outside-3_6490_46376)"/>
</g>
<g id="Vector_4">
<mask id="path-10-outside-4_6490_46376" maskUnits="userSpaceOnUse" x="3" y="8" width="11" height="43" fill="black">
<rect fill="white" x="3" y="8" width="11" height="43"/>
<path d="M13.4854 9.43043C13.3101 8.99204 13.4057 9.00001 8.79863 9.00001C5.90526 9.00001 4.49445 9.02392 4.38286 9.08769C3.97635 9.3029 4.00026 8.25076 4.00026 29.405C4.00026 50.5593 3.97635 49.5072 4.38286 49.7224C4.49445 49.7861 5.91324 49.81 8.81457 49.81H13.0789L13.3021 49.6187L13.5253 49.4274L13.5412 29.5086C13.5492 18.3975 13.5253 9.52608 13.4854 9.43043ZM11.3971 12.4274C10.4964 12.4354 10.3529 12.4912 10.2094 12.8897C10.1457 13.081 10.1537 13.1846 10.2493 13.368C10.4087 13.6788 10.7275 13.7824 11.5406 13.7824H12.2101V15.1375V16.4925H10.7435C9.30876 16.4925 9.26093 16.5004 9.05369 16.6838C8.76675 16.9229 8.74284 17.3693 9.00587 17.6323C9.17326 17.7997 9.25296 17.8076 10.6957 17.8316L12.2101 17.8555V19.2025V20.5416L11.3732 20.5735C10.6399 20.5974 10.5203 20.6213 10.3609 20.7727C10.0979 21.0358 10.1218 21.4821 10.4087 21.7213C10.608 21.8966 10.6957 21.9126 11.421 21.9126H12.2101V23.2676V24.6226H10.7993C9.53991 24.6226 9.34861 24.6385 9.12543 24.774C8.71893 25.0291 8.70298 25.5711 9.09355 25.874C9.18123 25.9457 9.66744 25.9696 10.7196 25.9776H12.2101V27.3326V28.6877H11.5964C10.7196 28.6877 10.4007 28.7913 10.2413 29.134C10.1138 29.3811 10.1138 29.4289 10.2413 29.676C10.4007 30.0188 10.7196 30.1224 11.5964 30.1224H12.2101L12.2101 31.4774V32.8324H10.7116C9.31673 32.8324 9.19717 32.8404 9.03775 32.9918C8.66313 33.3426 8.75081 33.8766 9.22108 34.0679C9.42035 34.1556 9.8428 34.1874 10.8551 34.1874H12.2101V35.5425V36.8975H11.421C10.6957 36.8975 10.608 36.9134 10.4087 37.0888C10.1218 37.3279 10.0979 37.7743 10.3609 38.0373C10.5203 38.1887 10.6399 38.2127 11.3732 38.2366L12.2101 38.2685V39.6155V40.9626H10.7435C9.30876 40.9626 9.26093 40.9705 9.05369 41.1538C8.74284 41.4169 8.74284 41.8632 9.05369 42.1263C9.26093 42.3096 9.30876 42.3176 10.7435 42.3176H12.2101V43.6726V45.0276H11.5406C10.7275 45.0276 10.4087 45.1312 10.2493 45.4421C10.1537 45.6254 10.1457 45.729 10.2094 45.9203C10.3529 46.3189 10.4964 46.3747 11.3971 46.3826H12.2101V47.4188V48.455L8.8066 48.4391L5.39514 48.4152L5.39514 29.405L5.39514 10.3949L8.8066 10.371L12.2101 10.355V11.3912V12.4274H11.3971Z"/>
</mask>
<path d="M13.4854 9.43043C13.3101 8.99204 13.4057 9.00001 8.79863 9.00001C5.90526 9.00001 4.49445 9.02392 4.38286 9.08769C3.97635 9.3029 4.00026 8.25076 4.00026 29.405C4.00026 50.5593 3.97635 49.5072 4.38286 49.7224C4.49445 49.7861 5.91324 49.81 8.81457 49.81H13.0789L13.3021 49.6187L13.5253 49.4274L13.5412 29.5086C13.5492 18.3975 13.5253 9.52608 13.4854 9.43043ZM11.3971 12.4274C10.4964 12.4354 10.3529 12.4912 10.2094 12.8897C10.1457 13.081 10.1537 13.1846 10.2493 13.368C10.4087 13.6788 10.7275 13.7824 11.5406 13.7824H12.2101V15.1375V16.4925H10.7435C9.30876 16.4925 9.26093 16.5004 9.05369 16.6838C8.76675 16.9229 8.74284 17.3693 9.00587 17.6323C9.17326 17.7997 9.25296 17.8076 10.6957 17.8316L12.2101 17.8555V19.2025V20.5416L11.3732 20.5735C10.6399 20.5974 10.5203 20.6213 10.3609 20.7727C10.0979 21.0358 10.1218 21.4821 10.4087 21.7213C10.608 21.8966 10.6957 21.9126 11.421 21.9126H12.2101V23.2676V24.6226H10.7993C9.53991 24.6226 9.34861 24.6385 9.12543 24.774C8.71893 25.0291 8.70298 25.5711 9.09355 25.874C9.18123 25.9457 9.66744 25.9696 10.7196 25.9776H12.2101V27.3326V28.6877H11.5964C10.7196 28.6877 10.4007 28.7913 10.2413 29.134C10.1138 29.3811 10.1138 29.4289 10.2413 29.676C10.4007 30.0188 10.7196 30.1224 11.5964 30.1224H12.2101L12.2101 31.4774V32.8324H10.7116C9.31673 32.8324 9.19717 32.8404 9.03775 32.9918C8.66313 33.3426 8.75081 33.8766 9.22108 34.0679C9.42035 34.1556 9.8428 34.1874 10.8551 34.1874H12.2101V35.5425V36.8975H11.421C10.6957 36.8975 10.608 36.9134 10.4087 37.0888C10.1218 37.3279 10.0979 37.7743 10.3609 38.0373C10.5203 38.1887 10.6399 38.2127 11.3732 38.2366L12.2101 38.2685V39.6155V40.9626H10.7435C9.30876 40.9626 9.26093 40.9705 9.05369 41.1538C8.74284 41.4169 8.74284 41.8632 9.05369 42.1263C9.26093 42.3096 9.30876 42.3176 10.7435 42.3176H12.2101V43.6726V45.0276H11.5406C10.7275 45.0276 10.4087 45.1312 10.2493 45.4421C10.1537 45.6254 10.1457 45.729 10.2094 45.9203C10.3529 46.3189 10.4964 46.3747 11.3971 46.3826H12.2101V47.4188V48.455L8.8066 48.4391L5.39514 48.4152L5.39514 29.405L5.39514 10.3949L8.8066 10.371L12.2101 10.355V11.3912V12.4274H11.3971Z" fill="#0D313B"/>
<path d="M13.4854 9.43043C13.3101 8.99204 13.4057 9.00001 8.79863 9.00001C5.90526 9.00001 4.49445 9.02392 4.38286 9.08769C3.97635 9.3029 4.00026 8.25076 4.00026 29.405C4.00026 50.5593 3.97635 49.5072 4.38286 49.7224C4.49445 49.7861 5.91324 49.81 8.81457 49.81H13.0789L13.3021 49.6187L13.5253 49.4274L13.5412 29.5086C13.5492 18.3975 13.5253 9.52608 13.4854 9.43043ZM11.3971 12.4274C10.4964 12.4354 10.3529 12.4912 10.2094 12.8897C10.1457 13.081 10.1537 13.1846 10.2493 13.368C10.4087 13.6788 10.7275 13.7824 11.5406 13.7824H12.2101V15.1375V16.4925H10.7435C9.30876 16.4925 9.26093 16.5004 9.05369 16.6838C8.76675 16.9229 8.74284 17.3693 9.00587 17.6323C9.17326 17.7997 9.25296 17.8076 10.6957 17.8316L12.2101 17.8555V19.2025V20.5416L11.3732 20.5735C10.6399 20.5974 10.5203 20.6213 10.3609 20.7727C10.0979 21.0358 10.1218 21.4821 10.4087 21.7213C10.608 21.8966 10.6957 21.9126 11.421 21.9126H12.2101V23.2676V24.6226H10.7993C9.53991 24.6226 9.34861 24.6385 9.12543 24.774C8.71893 25.0291 8.70298 25.5711 9.09355 25.874C9.18123 25.9457 9.66744 25.9696 10.7196 25.9776H12.2101V27.3326V28.6877H11.5964C10.7196 28.6877 10.4007 28.7913 10.2413 29.134C10.1138 29.3811 10.1138 29.4289 10.2413 29.676C10.4007 30.0188 10.7196 30.1224 11.5964 30.1224H12.2101L12.2101 31.4774V32.8324H10.7116C9.31673 32.8324 9.19717 32.8404 9.03775 32.9918C8.66313 33.3426 8.75081 33.8766 9.22108 34.0679C9.42035 34.1556 9.8428 34.1874 10.8551 34.1874H12.2101V35.5425V36.8975H11.421C10.6957 36.8975 10.608 36.9134 10.4087 37.0888C10.1218 37.3279 10.0979 37.7743 10.3609 38.0373C10.5203 38.1887 10.6399 38.2127 11.3732 38.2366L12.2101 38.2685V39.6155V40.9626H10.7435C9.30876 40.9626 9.26093 40.9705 9.05369 41.1538C8.74284 41.4169 8.74284 41.8632 9.05369 42.1263C9.26093 42.3096 9.30876 42.3176 10.7435 42.3176H12.2101V43.6726V45.0276H11.5406C10.7275 45.0276 10.4087 45.1312 10.2493 45.4421C10.1537 45.6254 10.1457 45.729 10.2094 45.9203C10.3529 46.3189 10.4964 46.3747 11.3971 46.3826H12.2101V47.4188V48.455L8.8066 48.4391L5.39514 48.4152L5.39514 29.405L5.39514 10.3949L8.8066 10.371L12.2101 10.355V11.3912V12.4274H11.3971Z" stroke="#0D313B" stroke-width="0.411429" mask="url(#path-10-outside-4_6490_46376)"/>
</g>
</g>
</g>
</g>
</g>
</g>
</g>
</svg>
