<svg width="72" height="72" viewBox="0 0 72 72" fill="none" xmlns="http://www.w3.org/2000/svg">
<g id="variable">
<g id="Group 1171275571">
<g id="Group">
<g id="Vector">
<path d="M68 58.4064C68 58.2663 67.9867 58.1262 67.9583 57.9894C67.9316 57.8509 67.8916 57.7175 67.8382 57.5873C67.7831 57.4572 67.7181 57.3355 67.6397 57.2187C67.5629 57.1019 67.4745 56.9935 67.3744 56.8934C67.276 56.795 67.1676 56.7066 67.0508 56.6282C66.9357 56.5498 66.8123 56.4847 66.6822 56.4296C66.5537 56.3763 66.4203 56.3362 66.2818 56.3079C66.145 56.2812 66.0066 56.2678 65.8664 56.2678H60.5334V50.9198C60.5334 50.7796 60.52 50.6395 60.4917 50.5027C60.465 50.3643 60.425 50.2308 60.3716 50.1007C60.3165 49.9723 60.2515 49.8488 60.1731 49.7321C60.0963 49.6153 60.0079 49.5069 59.9078 49.4068C59.8094 49.3083 59.701 49.2199 59.5842 49.1415C59.4691 49.0631 59.3457 48.9981 59.2156 48.943C59.0871 48.8896 58.9537 48.8496 58.8152 48.8212C58.6784 48.7946 58.54 48.7812 58.3998 48.7812H53.0668V43.4331C53.0668 43.293 53.0534 43.1529 53.0251 43.0161C52.9984 42.8776 52.9583 42.7442 52.905 42.6141C52.8499 42.484 52.7849 42.3622 52.7065 42.2454C52.6297 42.1287 52.5413 42.0202 52.4412 41.9201C52.3428 41.8217 52.2344 41.7333 52.1176 41.6549C52.0025 41.5765 51.8791 41.5114 51.7489 41.4564C51.6205 41.403 51.487 41.363 51.3486 41.3346C51.2118 41.3079 51.0733 41.2946 50.9332 41.2946H46.6661V11.3481C46.6661 10.9961 46.6327 10.6491 46.5644 10.3038C46.496 9.96017 46.3942 9.62488 46.2607 9.30126C46.1273 8.97597 45.9622 8.66903 45.767 8.3771C45.5735 8.08518 45.3516 7.81494 45.1047 7.56639C44.8562 7.31783 44.5876 7.09597 44.2957 6.9008C44.0054 6.70562 43.6985 6.54215 43.3749 6.40703C43.0512 6.27191 42.7176 6.17182 42.374 6.10342C42.0303 6.03503 41.6834 6 41.3331 6H14.6661C14.3775 6.01335 14.1273 6.11844 13.9138 6.31361L4.31361 15.9388C4.11677 16.1523 4.01168 16.4042 4 16.6945V56.2678C4 56.6181 4.03503 56.9668 4.10342 57.3104C4.17182 57.6557 4.27191 57.9894 4.40703 58.313C4.54048 58.6383 4.70396 58.9469 4.89913 59.2388C5.0943 59.5307 5.3145 59.801 5.56305 60.0479C5.80994 60.2964 6.07851 60.5183 6.37043 60.7134C6.66236 60.9086 6.9693 61.0738 7.29292 61.2072C7.61653 61.3423 7.95016 61.4441 8.2938 61.5125C8.63577 61.5809 8.98275 61.6142 9.33306 61.6142H21.0668V63.7545C21.0668 63.8946 21.0801 64.033 21.1085 64.1715C21.1352 64.3083 21.1752 64.4434 21.2286 64.5719C21.282 64.702 21.3487 64.8254 21.4271 64.9422C21.5038 65.059 21.5922 65.1674 21.6923 65.2658C21.7908 65.3659 21.8992 65.4543 22.0143 65.5327C22.1311 65.6111 22.2545 65.6762 22.3829 65.7295C22.5131 65.7846 22.6465 65.8246 22.7833 65.8513C22.9218 65.8797 23.0602 65.893 23.2003 65.893H36C36.382 65.8914 36.7373 65.7913 37.0659 65.5961C37.3946 65.7913 37.7516 65.8914 38.1336 65.893H50.9332C51.3152 65.8914 51.6705 65.7913 51.9992 65.5961C52.3278 65.7913 52.6848 65.8914 53.0668 65.893H65.8664C66.0066 65.893 66.145 65.8797 66.2818 65.8513C66.4203 65.8246 66.5537 65.7846 66.6822 65.7295C66.8123 65.6762 66.9357 65.6111 67.0508 65.5327C67.1676 65.4543 67.276 65.3659 67.3744 65.2658C67.4745 65.1674 67.5629 65.059 67.6397 64.9422C67.7181 64.8254 67.7831 64.702 67.8382 64.5719C67.8916 64.4434 67.9316 64.3083 67.9583 64.1715C67.9867 64.033 68 63.8946 68 63.7545V58.4064ZM50.9332 43.4331V48.7812H38.1336V43.4331H50.9332ZM13.6002 9.65157V12.4173C13.6002 12.6275 13.5801 12.8361 13.5384 13.0429C13.4984 13.2498 13.4367 13.4499 13.3566 13.6451C13.2765 13.8403 13.1781 14.0238 13.0614 14.1989C12.9446 14.3741 12.8111 14.5376 12.6627 14.686C12.5142 14.8345 12.3524 14.9679 12.1772 15.0847C12.0038 15.2015 11.8186 15.3016 11.6251 15.3816C11.4299 15.4617 11.2297 15.5234 11.0246 15.5635C10.8177 15.6052 10.6109 15.6252 10.4007 15.6252H7.64156L13.6002 9.65157ZM21.0668 58.4064V59.4757H9.33306C9.12287 59.4757 8.91602 59.4557 8.70917 59.414C8.50399 59.3739 8.30381 59.3122 8.10864 59.2321C7.91513 59.1504 7.72997 59.052 7.55648 58.9352C7.38133 58.8184 7.21952 58.685 7.07105 58.5365C6.92259 58.3864 6.78914 58.2246 6.67237 58.0494C6.5556 57.8743 6.45718 57.6891 6.3771 57.4956C6.29703 57.3004 6.23531 57.1002 6.19528 56.8934C6.15357 56.6865 6.13356 56.478 6.13356 56.2678V17.7654H10.4007C10.751 17.7654 11.098 17.7304 11.4399 17.662C11.7836 17.5936 12.1172 17.4918 12.4408 17.3584C12.7644 17.2233 13.0714 17.0581 13.3633 16.863C13.6535 16.6678 13.9238 16.4459 14.1707 16.199C14.4192 15.9505 14.6394 15.6802 14.8346 15.3883C15.0298 15.0964 15.1932 14.7878 15.3267 14.4642C15.4618 14.1389 15.5619 13.8052 15.6303 13.4599C15.6987 13.1163 15.7337 12.7677 15.7337 12.4173V8.13856H41.3331C41.5432 8.13856 41.7518 8.16025 41.9569 8.20028C42.1638 8.24198 42.364 8.30204 42.5575 8.38378C42.7526 8.46385 42.9361 8.56227 43.1113 8.67904C43.2864 8.79748 43.4483 8.92926 43.5967 9.07939C43.7452 9.22786 43.877 9.38967 43.9937 9.56482C44.1105 9.73998 44.2089 9.92514 44.289 10.1203C44.3707 10.3138 44.4308 10.5157 44.4725 10.7208C44.5125 10.9277 44.5326 11.1362 44.5326 11.3481V41.2946H38.1336C37.9934 41.2946 37.855 41.3079 37.7165 41.3346C37.5797 41.363 37.4463 41.403 37.3162 41.4564C37.1877 41.5114 37.0643 41.5765 36.9475 41.6549C36.8324 41.7333 36.724 41.8217 36.6256 41.9201C36.5255 42.0202 36.4371 42.1287 36.3603 42.2454C36.2819 42.3622 36.2152 42.4856 36.1618 42.6141C36.1084 42.7442 36.0684 42.8776 36.0417 43.0161C36.0133 43.1529 36 43.293 36 43.4331V48.7812H30.6669C30.5268 48.7812 30.3884 48.7946 30.2499 48.8212C30.1131 48.8496 29.9797 48.8896 29.8496 48.943C29.7211 48.9981 29.5977 49.0631 29.4809 49.1415C29.3658 49.2199 29.2574 49.3083 29.1589 49.4068C29.0589 49.5069 28.9704 49.6153 28.8937 49.7321C28.8153 49.8488 28.7486 49.9723 28.6952 50.1007C28.6418 50.2308 28.6018 50.3643 28.5751 50.5027C28.5467 50.6395 28.5334 50.7796 28.5334 50.9198V56.2678H23.2003C23.0602 56.2678 22.9218 56.2812 22.7833 56.3079C22.6465 56.3362 22.5131 56.3763 22.3829 56.4296C22.2545 56.4847 22.1311 56.5498 22.0143 56.6282C21.8992 56.7066 21.7908 56.795 21.6923 56.8934C21.5922 56.9935 21.5038 57.1019 21.4271 57.2187C21.3487 57.3355 21.282 57.4572 21.2286 57.5873C21.1752 57.7175 21.1352 57.8509 21.1085 57.9894C21.0801 58.1262 21.0668 58.2663 21.0668 58.4064ZM36 63.7545H23.2003V58.4064H36V63.7545ZM30.6669 56.2678V50.9198H43.4666V56.2678H30.6669ZM50.9332 58.4064V63.7545H38.1336V58.4064H50.9332ZM45.6002 56.2678V50.9198H58.3998V56.2678H45.6002ZM53.0668 63.7545V58.4064H65.8664V63.7545H53.0668Z" fill="#0D313B"/>
<path d="M21.0668 58.4064V59.4757H9.33306C9.12287 59.4757 8.91602 59.4557 8.70917 59.414C8.50399 59.3739 8.30381 59.3122 8.10864 59.2321C7.91513 59.1504 7.72997 59.052 7.55648 58.9352C7.38133 58.8184 7.21952 58.685 7.07105 58.5365C6.92259 58.3864 6.78914 58.2246 6.67237 58.0494C6.5556 57.8743 6.45718 57.6891 6.3771 57.4956C6.29703 57.3004 6.23531 57.1002 6.19528 56.8934C6.15357 56.6865 6.13356 56.478 6.13356 56.2678V17.7654H10.4007C10.751 17.7654 11.098 17.7304 11.4399 17.662C11.7836 17.5936 12.1172 17.4918 12.4408 17.3584C12.7644 17.2233 13.0714 17.0581 13.3633 16.863C13.6535 16.6678 13.9238 16.4459 14.1707 16.199C14.4192 15.9505 14.6394 15.6802 14.8346 15.3883C15.0298 15.0964 15.1932 14.7878 15.3267 14.4642C15.4618 14.1389 15.5619 13.8052 15.6303 13.4599C15.6987 13.1163 15.7337 12.7677 15.7337 12.4173V8.13856H41.3331C41.5432 8.13856 41.7518 8.16025 41.9569 8.20028C42.1638 8.24198 42.364 8.30204 42.5575 8.38378C42.7526 8.46385 42.9361 8.56227 43.1113 8.67904C43.2864 8.79748 43.4483 8.92926 43.5967 9.07939C43.7452 9.22786 43.877 9.38967 43.9937 9.56482C44.1105 9.73998 44.2089 9.92514 44.289 10.1203C44.3707 10.3138 44.4308 10.5157 44.4725 10.7208C44.5125 10.9277 44.5326 11.1362 44.5326 11.3481V41.2946H38.1336C37.9934 41.2946 37.855 41.3079 37.7165 41.3346C37.5797 41.363 37.4463 41.403 37.3162 41.4564C37.1877 41.5114 37.0643 41.5765 36.9475 41.6549C36.8324 41.7333 36.724 41.8217 36.6256 41.9201C36.5255 42.0202 36.4371 42.1287 36.3603 42.2454C36.2819 42.3622 36.2152 42.4856 36.1618 42.6141C36.1084 42.7442 36.0684 42.8776 36.0417 43.0161C36.0133 43.1529 36 43.293 36 43.4331V48.7812H30.6669C30.5268 48.7812 30.3884 48.7946 30.2499 48.8212C30.1131 48.8496 29.9797 48.8896 29.8496 48.943C29.7211 48.9981 29.5977 49.0631 29.4809 49.1415C29.3658 49.2199 29.2574 49.3083 29.1589 49.4068C29.0589 49.5069 28.9704 49.6153 28.8937 49.7321C28.8153 49.8488 28.7486 49.9723 28.6952 50.1007C28.6418 50.2308 28.6018 50.3643 28.5751 50.5027C28.5467 50.6395 28.5334 50.7796 28.5334 50.9198V56.2678H23.2003C23.0602 56.2678 22.9218 56.2812 22.7833 56.3079C22.6465 56.3362 22.5131 56.3763 22.3829 56.4296C22.2545 56.4847 22.1311 56.5498 22.0143 56.6282C21.8992 56.7066 21.7908 56.795 21.6923 56.8934C21.5922 56.9935 21.5038 57.1019 21.4271 57.2187C21.3487 57.3355 21.282 57.4572 21.2286 57.5873C21.1752 57.7175 21.1352 57.8509 21.1085 57.9894C21.0801 58.1262 21.0668 58.2663 21.0668 58.4064Z" fill="#2894B4"/>
<path d="M50.9332 58.4064V63.7545H38.1336V58.4064H50.9332Z" fill="#2894B4"/>
<path d="M50.9332 43.4331V48.7812H38.1336V43.4331H50.9332Z" fill="#2894B4"/>
<path d="M36 63.7545H23.2003V58.4064H36V63.7545Z" fill="#2894B4"/>
<path d="M53.0668 63.7545V58.4064H65.8664V63.7545H53.0668Z" fill="#2894B4"/>
</g>
</g>
<path id="Vector_2" d="M20.0007 33.8077C20.0007 33.6659 19.9724 33.5291 19.919 33.3973C19.864 33.2672 19.7872 33.1505 19.6871 33.0504C19.587 32.9503 19.4719 32.8736 19.3418 32.8185C19.2117 32.7651 19.0749 32.7384 18.9331 32.7384C18.7913 32.7384 18.6562 32.7651 18.5244 32.8185C18.3943 32.8736 18.2792 32.9503 18.1791 33.0504C18.079 33.1505 18.0023 33.2672 17.9473 33.3973C17.8939 33.5291 17.8672 33.6659 17.8672 33.8077C17.8672 37.0339 20.6547 39.7029 24.2662 40.1567V41.2943C24.2662 41.4361 24.2945 41.5729 24.3479 41.703C24.4013 41.8348 24.4797 41.9499 24.5798 42.05C24.6799 42.1501 24.795 42.2285 24.9251 42.2819C25.0552 42.3369 25.192 42.3636 25.3338 42.3636C25.4756 42.3636 25.6107 42.3369 25.7408 42.2819C25.8726 42.2285 25.9877 42.1501 26.0878 42.05C26.1879 41.9499 26.2646 41.8348 26.318 41.703C26.3731 41.5729 26.3997 41.4361 26.3997 41.2943V40.15C30.0113 39.7029 32.8004 37.0339 32.8004 33.801C32.8004 30.5665 30.0113 27.9042 26.3997 27.4504V18.9212C28.8336 19.3182 30.6669 21.0464 30.6669 23.1116C30.6669 23.2534 30.6935 23.3902 30.7486 23.5219C30.802 23.6521 30.8787 23.7688 30.9788 23.8689C31.0789 23.969 31.194 24.0457 31.3258 24.1008C31.4559 24.1542 31.591 24.1809 31.7328 24.1809C31.8746 24.1809 32.0114 24.1542 32.1415 24.1008C32.2716 24.0457 32.3867 23.969 32.4868 23.8689C32.5869 23.7688 32.6653 23.6521 32.7187 23.5219C32.7721 23.3902 32.8004 23.2534 32.8004 23.1116C32.8004 19.8854 30.0113 17.2164 26.3997 16.761V15.6249C26.3997 15.4832 26.3731 15.3464 26.318 15.2162C26.2646 15.0845 26.1879 14.9694 26.0878 14.8693C25.9877 14.7692 25.8726 14.6908 25.7408 14.6374C25.6107 14.5824 25.4756 14.5557 25.3338 14.5557C25.192 14.5557 25.0552 14.5824 24.9251 14.6374C24.795 14.6908 24.6799 14.7692 24.5798 14.8693C24.4797 14.9694 24.4013 15.0845 24.3479 15.2162C24.2945 15.3464 24.2662 15.4832 24.2662 15.6249V16.7676C20.6547 17.2164 17.8672 19.8854 17.8672 23.1166C17.8672 26.3494 20.6547 29.0135 24.2662 29.4672V38.0098C21.834 37.6011 20.0007 35.8745 20.0007 33.8077ZM26.3997 29.6157C28.8336 30.0144 30.6669 31.7425 30.6669 33.8077C30.6669 35.8729 28.8336 37.6011 26.3997 37.9981V29.6157ZM20.0007 23.1116C20.0007 21.0464 21.834 19.3182 24.2662 18.9212V27.3036C21.834 26.9049 20.0007 25.1784 20.0007 23.1116Z" fill="#0D313B"/>
<path id="Vector_3" fill-rule="evenodd" clip-rule="evenodd" d="M10.4016 47.712H24.2672C24.409 47.712 24.5458 47.6836 24.6759 47.6303C24.806 47.5752 24.9211 47.4985 25.0212 47.3984C25.1213 47.2983 25.1997 47.1815 25.2531 47.0514C25.3065 46.9196 25.3348 46.7828 25.3348 46.6411C25.3348 46.4993 25.3065 46.3641 25.2531 46.2324C25.1997 46.1022 25.1213 45.9855 25.0212 45.8854C24.9211 45.7853 24.806 45.7086 24.6759 45.6535C24.5458 45.6001 24.409 45.5718 24.2672 45.5718H10.4016C10.2598 45.5718 10.123 45.6001 9.9929 45.6535C9.86279 45.7086 9.74768 45.7853 9.6476 45.8854C9.54751 45.9855 9.4691 46.1022 9.41572 46.2324C9.36234 46.3641 9.33398 46.4993 9.33398 46.6411C9.33398 46.7828 9.36234 46.9196 9.41572 47.0514C9.4691 47.1815 9.54751 47.2983 9.6476 47.3984C9.74768 47.4985 9.86279 47.5752 9.9929 47.6303C10.123 47.6836 10.2598 47.712 10.4016 47.712Z" fill="#0D313B"/>
<path id="Vector_4" fill-rule="evenodd" clip-rule="evenodd" d="M25.3348 50.9199C25.3348 50.7781 25.3065 50.6413 25.2531 50.5112C25.198 50.3794 25.1213 50.2643 25.0212 50.1642C24.9211 50.0641 24.806 49.9874 24.6759 49.9323C24.5458 49.8773 24.409 49.8506 24.2672 49.8506H10.4016C10.2598 49.8506 10.123 49.8773 9.9929 49.9323C9.86279 49.9857 9.74768 50.0641 9.6476 50.1642C9.54751 50.2643 9.4691 50.3794 9.41572 50.5112C9.36234 50.6413 9.33398 50.7781 9.33398 50.9199C9.33398 51.0617 9.36234 51.1984 9.41572 51.3286C9.4691 51.4603 9.54751 51.5754 9.6476 51.6755C9.74768 51.7756 9.86279 51.854 9.9929 51.9074C10.123 51.9625 10.2598 51.9891 10.4016 51.9891H24.2672C24.409 51.9891 24.5458 51.9625 24.6759 51.9074C24.806 51.8524 24.9211 51.7756 25.0212 51.6755C25.1213 51.5754 25.198 51.4603 25.2531 51.3286C25.3065 51.1984 25.3348 51.0617 25.3348 50.9199Z" fill="#0D313B"/>
</g>
</g>
</svg>
