<svg width="72" height="72" viewBox="0 0 72 72" fill="none" xmlns="http://www.w3.org/2000/svg">
<g id="bpjs-ketenagakerjaan-report">
<g id="Group 1171275408">
<g id="Group 1171275389">
<g id="Group">
<g id="Vector">
<path d="M29.887 4.07675C27.9495 4.40174 25.9246 5.37672 24.5871 6.62668L23.6622 7.48916H19.9123C15.8249 7.48916 15.2624 7.55166 14.0874 8.13914C12.675 8.85162 11.4875 10.3891 11.15 11.964C10.95 12.9015 10.95 62.5751 11.15 63.5126C11.35 64.4376 11.925 65.5376 12.5875 66.2375C13.2374 66.925 14.5249 67.65 15.4874 67.85C16.4249 68.05 56.3488 68.05 57.2862 67.85C59.4112 67.4 61.1736 65.6251 61.6236 63.5126C61.8236 62.5626 61.8236 12.9015 61.6236 11.964C61.1736 9.85159 59.3862 8.06414 57.2862 7.62666C56.8862 7.53916 55.1363 7.48916 52.8614 7.48916H49.099L48.2615 6.68918C47.3115 5.8017 46.3615 5.18922 45.0866 4.68924C43.4491 4.02675 42.8991 3.98926 36.2868 4.00175C32.9369 4.01425 30.062 4.05175 29.887 4.07675ZM42.8741 7.92665C43.3116 8.03914 44.0241 8.30164 44.4366 8.51413C45.6865 9.17661 47.0865 10.7641 47.449 11.9515L47.524 12.239H36.3868H25.2496L25.3246 11.9515C25.5371 11.2891 26.1246 10.3766 26.8371 9.6516C27.662 8.81412 28.962 8.07664 30.0245 7.87665C30.3245 7.81415 33.1619 7.76415 36.3243 7.75165C41.0492 7.73915 42.2116 7.77665 42.8741 7.92665ZM21.4247 12.0765C21.3247 12.5515 21.2622 13.3765 21.2872 13.9515C21.3247 15.0515 21.5247 15.4139 22.2872 15.8139C22.7872 16.0764 49.9864 16.0764 50.4864 15.8139C51.2489 15.4139 51.4489 15.0515 51.4864 13.9515C51.5114 13.3765 51.4489 12.5515 51.3489 12.0765L51.1739 11.2391H53.8113C56.8362 11.2391 57.2362 11.3391 57.7362 12.2265L58.0112 12.714V37.7383V62.7626L57.7487 63.2376C57.5987 63.5001 57.2737 63.8251 57.0112 63.9751L56.5362 64.2376H36.3868H16.2374L15.7624 63.9751C15.4999 63.8251 15.1749 63.5001 15.0249 63.2376L14.7624 62.7626V37.7383V12.714L15.0374 12.2265C15.5374 11.3391 15.9249 11.2391 18.9623 11.2391H21.5997L21.4247 12.0765Z" fill="#4D0000"/>
<path d="M42.8741 7.92665C43.3116 8.03914 44.0241 8.30164 44.4366 8.51413C45.6865 9.17661 47.0865 10.7641 47.449 11.9515L47.524 12.239H36.3868H25.2496L25.3246 11.9515C25.5371 11.2891 26.1246 10.3766 26.8371 9.6516C27.662 8.81412 28.962 8.07664 30.0245 7.87665C30.3245 7.81415 33.1619 7.76415 36.3243 7.75165C41.0492 7.73915 42.2116 7.77665 42.8741 7.92665Z" fill="#E60000"/>
</g>
</g>
<path id="Vector_2" d="M25.1551 55.3119C23.5839 56.139 23.6184 57.7661 25.2415 58.7153C25.7077 59 25.8803 59 37 59C48.1197 59 48.2923 59 48.7585 58.7153C50.3816 57.7661 50.4161 56.139 48.8449 55.3119L48.2578 55H37H25.7422L25.1551 55.3119Z" fill="#4D0000"/>
<path id="Vector_3" d="M25.1551 45.3119C23.5839 46.139 23.6184 47.7661 25.2415 48.7153C25.7077 49 25.8803 49 37 49C48.1197 49 48.2923 49 48.7585 48.7153C50.3816 47.7661 50.4161 46.139 48.8449 45.3119L48.2578 45H37H25.7422L25.1551 45.3119Z" fill="#4D0000"/>
</g>
</g>
<g id="Group 1171275464">
<g id="Group 1171275402">
<g id="Group_2">
<g id="Vector_4">
<mask id="path-4-outside-1_6242_46611" maskUnits="userSpaceOnUse" x="24" y="18" width="24" height="24" fill="black">
<rect fill="white" x="24" y="18" width="24" height="24"/>
<path d="M36.0006 20.2976C30.6465 20.2976 26.2951 24.6565 26.2951 30.0157C26.2951 35.3724 30.6465 39.7339 36.0006 39.7339C41.3548 39.7339 45.7062 35.3724 45.7062 30.0157C45.7062 24.6565 41.3548 20.2976 36.0006 20.2976ZM36.0006 41.029C29.9334 41.029 25 36.0905 25 30.0157C25 23.941 29.9334 19 36.0006 19C42.0679 19 47.0013 23.941 47.0013 30.0157C47.0013 36.0905 42.0679 41.029 36.0006 41.029Z"/>
<path d="M36.0006 20.2976C30.6465 20.2976 26.2951 24.6565 26.2951 30.0157C26.2951 35.3724 30.6465 39.7339 36.0006 39.7339C41.3548 39.7339 45.7062 35.3724 45.7062 30.0157C45.7062 24.6565 41.3548 20.2976 36.0006 20.2976Z"/>
</mask>
<path d="M36.0006 20.2976C30.6465 20.2976 26.2951 24.6565 26.2951 30.0157C26.2951 35.3724 30.6465 39.7339 36.0006 39.7339C41.3548 39.7339 45.7062 35.3724 45.7062 30.0157C45.7062 24.6565 41.3548 20.2976 36.0006 20.2976ZM36.0006 41.029C29.9334 41.029 25 36.0905 25 30.0157C25 23.941 29.9334 19 36.0006 19C42.0679 19 47.0013 23.941 47.0013 30.0157C47.0013 36.0905 42.0679 41.029 36.0006 41.029Z" fill="#4D0000"/>
<path d="M36.0006 20.2976C30.6465 20.2976 26.2951 24.6565 26.2951 30.0157C26.2951 35.3724 30.6465 39.7339 36.0006 39.7339C41.3548 39.7339 45.7062 35.3724 45.7062 30.0157C45.7062 24.6565 41.3548 20.2976 36.0006 20.2976Z" fill="#FFCDCD"/>
<path d="M36.0006 20.0582C30.5139 20.0582 26.0556 24.5246 26.0556 30.0157H26.5345C26.5345 24.7885 30.779 20.537 36.0006 20.537V20.0582ZM26.0556 30.0157C26.0556 35.5043 30.5138 39.9733 36.0006 39.9733V39.4944C30.7791 39.4944 26.5345 35.2406 26.5345 30.0157H26.0556ZM36.0006 39.9733C41.4874 39.9733 45.9456 35.5043 45.9456 30.0157H45.4667C45.4667 35.2406 41.2222 39.4944 36.0006 39.4944V39.9733ZM45.9456 30.0157C45.9456 24.5246 41.4874 20.0582 36.0006 20.0582V20.537C41.2222 20.537 45.4667 24.7885 45.4667 30.0157H45.9456ZM36.0006 40.5501C30.1984 40.5501 25.4789 35.8265 25.4789 30.0157H24.5211C24.5211 36.3545 29.6684 41.5079 36.0006 41.5079V40.5501ZM25.4789 30.0157C25.4789 24.2048 30.1985 19.4789 36.0006 19.4789V18.5211C29.6683 18.5211 24.5211 23.6771 24.5211 30.0157H25.4789ZM36.0006 19.4789C41.8027 19.4789 46.5224 24.2048 46.5224 30.0157H47.4802C47.4802 23.6771 42.333 18.5211 36.0006 18.5211V19.4789ZM46.5224 30.0157C46.5224 35.8265 41.8029 40.5501 36.0006 40.5501V41.5079C42.3328 41.5079 47.4802 36.3545 47.4802 30.0157H46.5224Z" fill="#4D0000" mask="url(#path-4-outside-1_6242_46611)"/>
</g>
</g>
</g>
<g id="Group 1171275405">
<path id="Vector_5" d="M42.2253 32.1683C42.0277 32.1683 41.867 32.0083 41.867 31.8115C41.867 29.4773 40.4897 27.326 38.3583 26.3307C38.1792 26.2473 38.1026 26.0345 38.1861 25.8569C38.2703 25.6792 38.4831 25.6019 38.663 25.6854C41.0447 26.7977 42.5843 29.2024 42.5843 31.8115C42.5835 32.0083 42.4235 32.1683 42.2253 32.1683Z" fill="#4D0000"/>
<path id="Vector_6" d="M29.3251 32.1683C29.1276 32.1683 28.9668 32.0083 28.9668 31.8115C28.9668 29.2024 30.5064 26.7977 32.8888 25.6854C33.0688 25.6019 33.2808 25.6792 33.365 25.8569C33.4492 26.0345 33.3719 26.2473 33.1928 26.3307C31.0606 27.326 29.6834 29.4773 29.6834 31.8115C29.6834 32.0083 29.5226 32.1683 29.3251 32.1683Z" fill="#4D0000"/>
<g id="Group_3">
<g id="Vector_7">
<path d="M35.7748 35.02C33.4949 35.02 31.0458 34.4366 29.223 33.459C28.7897 33.227 28.5799 32.7485 28.7009 32.2701C28.8241 31.7824 29.2444 31.4547 29.7466 31.4547C29.8523 31.4693 33.3609 32.1682 35.7748 32.1682C38.217 32.1682 41.6965 31.4693 41.7317 31.4616C41.7555 31.457 41.7792 31.4547 41.8037 31.4547C42.3051 31.4547 42.7262 31.7824 42.8495 32.2701C42.9704 32.7485 42.7607 33.227 42.3266 33.459C40.5045 34.4366 38.0547 35.02 35.7748 35.02ZM29.6754 32.1606C29.5392 32.1682 29.4297 32.3106 29.3952 32.4438C29.3792 32.5051 29.3455 32.7148 29.5629 32.8312C30.2083 33.1773 32.564 34.3065 35.774 34.3065C38.9841 34.3065 41.3405 33.1773 41.9859 32.8312C42.2026 32.7141 42.1689 32.5051 42.1536 32.4438C42.1214 32.3168 42.0203 32.182 41.8328 32.169C41.4117 32.2524 38.1726 32.881 35.774 32.881C33.289 32.881 29.8224 32.1897 29.6754 32.1606Z" fill="#4D0000"/>
<path d="M29.6754 32.1606C29.5392 32.1682 29.4297 32.3106 29.3952 32.4438C29.3792 32.5051 29.3455 32.7148 29.5629 32.8312C30.2083 33.1773 32.564 34.3065 35.774 34.3065C38.9841 34.3065 41.3405 33.1773 41.9859 32.8312C42.2026 32.7141 42.1689 32.5051 42.1536 32.4438C42.1214 32.3168 42.0203 32.182 41.8328 32.169C41.4117 32.2524 38.1726 32.881 35.774 32.881C33.289 32.881 29.8224 32.1897 29.6754 32.1606Z" fill="#E60000"/>
</g>
</g>
<g id="Group_4">
<g id="Vector_8">
<path d="M35.8408 30.0281C34.0631 30.0281 32.6162 28.5889 32.6162 26.8196C32.6162 25.0504 34.0631 23.6111 35.8408 23.6111C37.6192 23.6111 39.0662 25.0504 39.0662 26.8196C39.0662 28.5889 37.6192 30.0281 35.8408 30.0281ZM35.8408 24.3238C34.4574 24.3238 33.3328 25.4431 33.3328 26.8196C33.3328 28.1961 34.4574 29.3154 35.8408 29.3154C37.2242 29.3154 38.3496 28.1961 38.3496 26.8196C38.3496 25.4431 37.2242 24.3238 35.8408 24.3238Z" fill="#4D0000"/>
<path d="M35.8408 24.3238C34.4574 24.3238 33.3328 25.4431 33.3328 26.8196C33.3328 28.1961 34.4574 29.3154 35.8408 29.3154C37.2242 29.3154 38.3496 28.1961 38.3496 26.8196C38.3496 25.4431 37.2242 24.3238 35.8408 24.3238Z" fill="#E60000"/>
</g>
</g>
<g id="Vector_9">
<path d="M35.7837 28.35C34.9086 28.35 34.1963 27.6411 34.1963 26.7707C34.1963 25.8997 34.9086 25.1908 35.7837 25.1908C36.6588 25.1908 37.3711 25.8997 37.3711 26.7707C37.3711 27.6411 36.6588 28.35 35.7837 28.35ZM35.7837 25.823C35.2586 25.823 34.8312 26.2484 34.8312 26.7707C34.8312 27.2931 35.2586 27.7184 35.7837 27.7184C36.3087 27.7184 36.7361 27.2931 36.7361 26.7707C36.7361 26.2484 36.3087 25.823 35.7837 25.823Z" fill="#4D0000"/>
<path d="M35.7837 25.823C35.2586 25.823 34.8312 26.2484 34.8312 26.7707C34.8312 27.2931 35.2586 27.7184 35.7837 27.7184C36.3087 27.7184 36.7361 27.2931 36.7361 26.7707C36.7361 26.2484 36.3087 25.823 35.7837 25.823Z" fill="#E60000"/>
</g>
</g>
</g>
</g>
</svg>
