<svg width="72" height="72" viewBox="0 0 72 72" fill="none" xmlns="http://www.w3.org/2000/svg">
<g id="bpjs-kesehatan-report">
<g id="Group 1171275407">
<g id="Group 1171275389">
<g id="Group">
<g id="Vector">
<path d="M29.887 4.07675C27.9495 4.40174 25.9246 5.37672 24.5871 6.62668L23.6622 7.48916H19.9123C15.8249 7.48916 15.2624 7.55166 14.0874 8.13914C12.675 8.85162 11.4875 10.3891 11.15 11.964C10.95 12.9015 10.95 62.5751 11.15 63.5126C11.35 64.4376 11.925 65.5376 12.5875 66.2375C13.2374 66.925 14.5249 67.65 15.4874 67.85C16.4249 68.05 56.3488 68.05 57.2862 67.85C59.4112 67.4 61.1736 65.6251 61.6236 63.5126C61.8236 62.5626 61.8236 12.9015 61.6236 11.964C61.1736 9.85159 59.3862 8.06414 57.2862 7.62666C56.8862 7.53916 55.1363 7.48916 52.8614 7.48916H49.099L48.2615 6.68918C47.3115 5.8017 46.3615 5.18922 45.0866 4.68924C43.4491 4.02675 42.8991 3.98926 36.2868 4.00175C32.9369 4.01425 30.062 4.05175 29.887 4.07675ZM42.8741 7.92665C43.3116 8.03914 44.0241 8.30164 44.4366 8.51413C45.6865 9.17661 47.0865 10.7641 47.449 11.9515L47.524 12.239H36.3868H25.2496L25.3246 11.9515C25.5371 11.2891 26.1246 10.3766 26.8371 9.6516C27.662 8.81412 28.962 8.07664 30.0245 7.87665C30.3245 7.81415 33.1619 7.76415 36.3243 7.75165C41.0492 7.73915 42.2116 7.77665 42.8741 7.92665ZM21.4247 12.0765C21.3247 12.5515 21.2622 13.3765 21.2872 13.9515C21.3247 15.0515 21.5247 15.4139 22.2872 15.8139C22.7872 16.0764 49.9864 16.0764 50.4864 15.8139C51.2489 15.4139 51.4489 15.0515 51.4864 13.9515C51.5114 13.3765 51.4489 12.5515 51.3489 12.0765L51.1739 11.2391H53.8113C56.8362 11.2391 57.2362 11.3391 57.7362 12.2265L58.0112 12.714V37.7383V62.7626L57.7487 63.2376C57.5987 63.5001 57.2737 63.8251 57.0112 63.9751L56.5362 64.2376H36.3868H16.2374L15.7624 63.9751C15.4999 63.8251 15.1749 63.5001 15.0249 63.2376L14.7624 62.7626V37.7383V12.714L15.0374 12.2265C15.5374 11.3391 15.9249 11.2391 18.9623 11.2391H21.5997L21.4247 12.0765Z" fill="#4D0000"/>
<path d="M42.8741 7.92665C43.3116 8.03914 44.0241 8.30164 44.4366 8.51413C45.6865 9.17661 47.0865 10.7641 47.449 11.9515L47.524 12.239H36.3868H25.2496L25.3246 11.9515C25.5371 11.2891 26.1246 10.3766 26.8371 9.6516C27.662 8.81412 28.962 8.07664 30.0245 7.87665C30.3245 7.81415 33.1619 7.76415 36.3243 7.75165C41.0492 7.73915 42.2116 7.77665 42.8741 7.92665Z" fill="#E60000"/>
</g>
</g>
<path id="Vector_2" d="M25.1551 55.3119C23.5839 56.139 23.6184 57.7661 25.2415 58.7153C25.7077 59 25.8803 59 37 59C48.1197 59 48.2923 59 48.7585 58.7153C50.3816 57.7661 50.4161 56.139 48.8449 55.3119L48.2578 55H37H25.7422L25.1551 55.3119Z" fill="#4D0000"/>
<path id="Vector_3" d="M25.1551 45.3119C23.5839 46.139 23.6184 47.7661 25.2415 48.7153C25.7077 49 25.8803 49 37 49C48.1197 49 48.2923 49 48.7585 48.7153C50.3816 47.7661 50.4161 46.139 48.8449 45.3119L48.2578 45H37H25.7422L25.1551 45.3119Z" fill="#4D0000"/>
</g>
<g id="Group 1171275401">
<g id="Group_2">
<g id="Vector_4">
<mask id="path-4-outside-1_6242_46630" maskUnits="userSpaceOnUse" x="24" y="17" width="25" height="25" fill="black">
<rect fill="white" x="24" y="17" width="25" height="25"/>
<path d="M36.4855 19.3548C30.8953 19.3548 26.3522 23.9058 26.3522 29.5013C26.3522 35.0941 30.8953 39.6478 36.4855 39.6478C42.0757 39.6478 46.6188 35.0941 46.6188 29.5013C46.6188 23.9058 42.0757 19.3548 36.4855 19.3548ZM36.4855 40.9999C30.1508 40.9999 25 35.8438 25 29.5013C25 23.1587 30.1508 18 36.4855 18C42.8201 18 47.971 23.1587 47.971 29.5013C47.971 35.8438 42.8201 40.9999 36.4855 40.9999Z"/>
<path d="M36.4855 19.3548C30.8953 19.3548 26.3522 23.9058 26.3522 29.5013C26.3522 35.0941 30.8953 39.6478 36.4855 39.6478C42.0757 39.6478 46.6188 35.0941 46.6188 29.5013C46.6188 23.9058 42.0757 19.3548 36.4855 19.3548Z"/>
</mask>
<path d="M36.4855 19.3548C30.8953 19.3548 26.3522 23.9058 26.3522 29.5013C26.3522 35.0941 30.8953 39.6478 36.4855 39.6478C42.0757 39.6478 46.6188 35.0941 46.6188 29.5013C46.6188 23.9058 42.0757 19.3548 36.4855 19.3548ZM36.4855 40.9999C30.1508 40.9999 25 35.8438 25 29.5013C25 23.1587 30.1508 18 36.4855 18C42.8201 18 47.971 23.1587 47.971 29.5013C47.971 35.8438 42.8201 40.9999 36.4855 40.9999Z" fill="#4D0000"/>
<path d="M36.4855 19.3548C30.8953 19.3548 26.3522 23.9058 26.3522 29.5013C26.3522 35.0941 30.8953 39.6478 36.4855 39.6478C42.0757 39.6478 46.6188 35.0941 46.6188 29.5013C46.6188 23.9058 42.0757 19.3548 36.4855 19.3548Z" fill="#FFCDCD"/>
<path d="M36.4855 19.1048C30.7569 19.1048 26.1022 23.7681 26.1022 29.5013H26.6022C26.6022 24.0436 31.0337 19.6048 36.4855 19.6048V19.1048ZM26.1022 29.5013C26.1022 35.2318 30.7569 39.8978 36.4855 39.8978V39.3978C31.0338 39.3978 26.6022 34.9564 26.6022 29.5013H26.1022ZM36.4855 39.8978C42.2141 39.8978 46.8688 35.2318 46.8688 29.5013H46.3688C46.3688 34.9564 41.9372 39.3978 36.4855 39.3978V39.8978ZM46.8688 29.5013C46.8688 23.7681 42.2141 19.1048 36.4855 19.1048V19.6048C41.9372 19.6048 46.3688 24.0436 46.3688 29.5013H46.8688ZM36.4855 40.4999C30.4275 40.4999 25.5 35.5682 25.5 29.5013H24.5C24.5 36.1194 29.8742 41.4999 36.4855 41.4999V40.4999ZM25.5 29.5013C25.5 23.4342 30.4277 18.5 36.4855 18.5V17.5C29.874 17.5 24.5 22.8833 24.5 29.5013H25.5ZM36.4855 18.5C42.5433 18.5 47.471 23.4342 47.471 29.5013H48.471C48.471 22.8833 43.0969 17.5 36.4855 17.5V18.5ZM47.471 29.5013C47.471 35.5682 42.5435 40.4999 36.4855 40.4999V41.4999C43.0968 41.4999 48.471 36.1194 48.471 29.5013H47.471Z" fill="#4D0000" mask="url(#path-4-outside-1_6242_46630)"/>
</g>
</g>
<g id="Vector_5">
<mask id="path-6-outside-2_6242_46630" maskUnits="userSpaceOnUse" x="28.7305" y="21.7354" width="16" height="16" fill="black">
<rect fill="white" x="28.7305" y="21.7354" width="16" height="16"/>
<path d="M35.1339 34.9127H37.8382V31.5297C37.8382 31.1587 38.1407 30.8536 38.5116 30.8536H41.8894V28.1493H38.5116C38.1407 28.1493 37.8382 27.8441 37.8382 27.4706V24.0901H35.1339V27.4706C35.1339 27.8441 34.8313 28.1493 34.4604 28.1493H31.0826V30.8536H34.4604C34.8313 30.8536 35.1339 31.1587 35.1339 31.5297V34.9127ZM38.5116 36.2649H34.4604C34.0869 36.2649 33.7843 35.9623 33.7843 35.5888V32.2058H30.4066C30.033 32.2058 29.7305 31.9032 29.7305 31.5297V27.4706C29.7305 27.0996 30.033 26.7945 30.4066 26.7945H33.7843V23.4141C33.7843 23.0405 34.0869 22.7354 34.4604 22.7354H38.5116C38.8852 22.7354 39.1877 23.0405 39.1877 23.4141V26.7945H42.5655C42.939 26.7945 43.2416 27.0996 43.2416 27.4706V31.5297C43.2416 31.9032 42.939 32.2058 42.5655 32.2058H39.1877V35.5888C39.1877 35.9623 38.8852 36.2649 38.5116 36.2649Z"/>
</mask>
<path d="M35.1339 34.9127H37.8382V31.5297C37.8382 31.1587 38.1407 30.8536 38.5116 30.8536H41.8894V28.1493H38.5116C38.1407 28.1493 37.8382 27.8441 37.8382 27.4706V24.0901H35.1339V27.4706C35.1339 27.8441 34.8313 28.1493 34.4604 28.1493H31.0826V30.8536H34.4604C34.8313 30.8536 35.1339 31.1587 35.1339 31.5297V34.9127ZM38.5116 36.2649H34.4604C34.0869 36.2649 33.7843 35.9623 33.7843 35.5888V32.2058H30.4066C30.033 32.2058 29.7305 31.9032 29.7305 31.5297V27.4706C29.7305 27.0996 30.033 26.7945 30.4066 26.7945H33.7843V23.4141C33.7843 23.0405 34.0869 22.7354 34.4604 22.7354H38.5116C38.8852 22.7354 39.1877 23.0405 39.1877 23.4141V26.7945H42.5655C42.939 26.7945 43.2416 27.0996 43.2416 27.4706V31.5297C43.2416 31.9032 42.939 32.2058 42.5655 32.2058H39.1877V35.5888C39.1877 35.9623 38.8852 36.2649 38.5116 36.2649Z" fill="#4D0000"/>
<path d="M35.1339 34.9127H37.8382V31.5297C37.8382 31.1587 38.1407 30.8536 38.5116 30.8536H41.8894V28.1493H38.5116C38.1407 28.1493 37.8382 27.8441 37.8382 27.4706V24.0901H35.1339V27.4706C35.1339 27.8441 34.8313 28.1493 34.4604 28.1493H31.0826V30.8536H34.4604C34.8313 30.8536 35.1339 31.1587 35.1339 31.5297V34.9127ZM38.5116 36.2649H34.4604C34.0869 36.2649 33.7843 35.9623 33.7843 35.5888V32.2058H30.4066C30.033 32.2058 29.7305 31.9032 29.7305 31.5297V27.4706C29.7305 27.0996 30.033 26.7945 30.4066 26.7945H33.7843V23.4141C33.7843 23.0405 34.0869 22.7354 34.4604 22.7354H38.5116C38.8852 22.7354 39.1877 23.0405 39.1877 23.4141V26.7945H42.5655C42.939 26.7945 43.2416 27.0996 43.2416 27.4706V31.5297C43.2416 31.9032 42.939 32.2058 42.5655 32.2058H39.1877V35.5888C39.1877 35.9623 38.8852 36.2649 38.5116 36.2649Z" stroke="#4D0000" mask="url(#path-6-outside-2_6242_46630)"/>
</g>
</g>
</g>
</g>
</svg>
