<svg width="72" height="72" viewBox="0 0 72 72" fill="none" xmlns="http://www.w3.org/2000/svg">
<path d="M22.7608 4.25006C21.2855 4.78769 20.1727 5.78793 19.46 7.23827L19.0599 8.06347L18.9974 21.1916L18.9349 34.3072L17.8847 34.4697C16.6219 34.6698 14.6089 35.3199 13.3461 35.9576C8.56995 38.3457 5.09413 42.9843 4.19391 48.198C3.94385 49.6483 3.93135 52.474 4.18141 54.0119C5.31918 60.976 11.1081 66.7399 18.0722 67.8277C19.16 68.0027 21.9231 68.0152 41.5028 67.9902L63.6955 67.9527L64.5708 67.5276C65.721 66.965 66.7088 65.9772 67.2714 64.827L67.6965 63.9517L67.734 40.9463C67.7465 28.2933 67.734 17.8033 67.6965 17.6282C67.609 17.3032 55.4936 5.03775 54.5809 4.36259L54.0933 4H38.7646C23.9486 4.0125 23.411 4.0125 22.7608 4.25006ZM51.5051 13.4022C51.5051 18.741 51.5177 19.0911 51.7427 19.4287C51.8677 19.6162 52.1428 19.8913 52.3303 20.0163C52.6679 20.2414 53.018 20.2539 58.3568 20.2539H64.0081L63.9831 41.5339L63.9456 62.8265L63.6705 63.2641C63.5205 63.5016 63.2079 63.8142 62.9829 63.9517C62.5838 64.2012 62.3216 64.2018 47.2221 64.239C47.1828 64.2391 47.1435 64.2392 47.1041 64.2393L31.6504 64.2643L32.6507 63.3016C35.0762 60.9385 36.8392 57.7503 37.4393 54.612C37.5518 54.0369 37.6644 53.4492 37.7019 53.2867L37.7519 53.0116H47.7918C57.4066 53.0116 57.8317 52.9991 58.1817 52.7741C58.7569 52.3865 59.0069 51.9114 59.0069 51.1362C59.0069 50.3985 58.7694 49.9109 58.2443 49.5358C57.9692 49.3358 57.069 49.3233 47.8293 49.2608L37.7019 49.1982L37.5393 48.198C37.2268 46.2976 36.3641 43.972 35.3763 42.3716L35.0012 41.759H46.4164C57.3815 41.759 57.8317 41.7465 58.1817 41.5214C58.7569 41.1338 59.0069 40.6587 59.0069 39.8835C59.0069 39.1083 58.7569 38.6332 58.1817 38.2456C57.8317 38.0206 57.344 38.0081 44.7285 38.0081H31.6379L30.7127 37.3454C28.7873 35.9576 26.0366 34.8073 23.8611 34.4697L22.8108 34.3072V21.7542V9.18874L23.0859 8.75113C23.386 8.26351 23.7486 8.00095 24.3112 7.86342C24.5237 7.81341 30.7252 7.7759 38.102 7.7634L51.5051 7.75089V13.4022ZM58.2568 13.5648L61.195 16.503H58.2192H55.256V13.5648C55.256 11.9519 55.2685 10.6266 55.2936 10.6266C55.3061 10.6266 56.6439 11.9519 58.2568 13.5648ZM22.3107 38.1831C24.8113 38.3832 27.6245 39.6585 29.7125 41.5589C31.3879 43.0843 32.9007 45.6099 33.5259 47.8854C33.7759 48.7981 33.8134 49.2483 33.8134 51.1362C33.8134 53.6868 33.6134 54.6495 32.6757 56.625C31.3504 59.4257 29.2249 61.5637 26.4367 62.9015C20.6978 65.6396 13.9337 63.8392 10.1828 58.5755C9.43266 57.5377 8.58246 55.6998 8.21987 54.387C7.96981 53.4618 7.9323 53.0367 7.9323 51.1362C7.9323 48.5981 8.13235 47.6354 9.04507 45.6849C9.78274 44.1345 10.4829 43.1343 11.6707 41.934C13.8837 39.7335 16.7219 38.3957 19.7226 38.1456C20.3227 38.0956 20.9479 38.0706 21.1229 38.0831C21.298 38.1081 21.8356 38.1456 22.3107 38.1831Z" fill="#0D313B"/>
<path d="M58.2567 13.5652L61.1949 16.5034H58.2191H55.2559V13.5652C55.2559 11.9523 55.2684 10.627 55.2935 10.627C55.306 10.627 56.6438 11.9523 58.2567 13.5652Z" fill="#68D4F4"/>
<path d="M22.3105 38.1833C24.8111 38.3834 27.6243 39.6587 29.7123 41.5591C31.3877 43.0845 32.9005 45.6101 33.5257 47.8856C33.7757 48.7983 33.8132 49.2485 33.8132 51.1364C33.8132 53.687 33.6132 54.6497 32.6755 56.6252C31.3502 59.4259 29.2247 61.5639 26.4365 62.9017C20.6976 65.6398 13.9335 63.8394 10.1826 58.5757C9.43249 57.5379 8.58229 55.7 8.2197 54.3872C7.96964 53.462 7.93213 53.0369 7.93213 51.1364C7.93213 48.5983 8.13218 47.6356 9.0449 45.6851C9.78257 44.1347 10.4827 43.1345 11.6705 41.9342C13.8835 39.7337 16.7217 38.3959 19.7224 38.1458C20.3225 38.0958 20.9477 38.0708 21.1227 38.0833C21.2978 38.1083 21.8354 38.1458 22.3105 38.1833Z" fill="#2894B4"/>
<path d="M28.5752 26.9934C28.0001 27.381 27.75 27.8561 27.75 28.6313C27.75 29.4065 28.0001 29.8816 28.5752 30.2692C28.9253 30.4942 29.4379 30.5067 43.3787 30.5067C57.3195 30.5067 57.8321 30.4942 58.1822 30.2692C58.7574 29.8816 59.0074 29.4065 59.0074 28.6313C59.0074 27.8561 58.7574 27.381 58.1822 26.9934C57.8321 26.7684 57.3195 26.7559 43.3787 26.7559C29.4379 26.7559 28.9253 26.7684 28.5752 26.9934Z" fill="#0D313B"/>
<path fill-rule="evenodd" clip-rule="evenodd" d="M19.1278 49.0033L14.9832 50.2655C14.0274 48.8675 12.1333 48.4192 10.6399 49.2821C9.07248 50.1872 8.53431 52.195 9.43942 53.7624C10.3439 55.3299 12.3517 55.868 13.9197 54.9629C14.0194 54.9054 17.3304 52.9674 19.0244 51.9761C18.0325 53.6701 16.095 56.9811 16.0376 57.0808C15.1324 58.6482 15.67 60.6559 17.2374 61.5611C18.8049 62.4662 20.8126 61.928 21.7177 60.3606C22.58 58.8677 22.1336 56.9756 20.7344 56.0173L21.9942 51.8794L29.9108 48.4657C30.841 48.0639 31.5584 47.2866 31.8831 46.3264L31.984 46.028C32.0195 45.9234 31.995 45.8078 31.9192 45.7271C31.8434 45.6464 31.7296 45.614 31.6226 45.6427L23.0638 47.9361L25.3578 39.3773C25.3859 39.2703 25.3529 39.1565 25.2727 39.0813C25.192 39.0054 25.0771 38.9804 24.9719 39.0158C24.9719 39.0158 24.8514 39.0568 24.6746 39.1167C23.7139 39.4415 22.936 40.1595 22.5348 41.0909L19.1278 49.0033ZM20.5105 51.6336L21.3722 51.8672L20.0959 56.0607C20.0677 56.1512 20.0843 56.2496 20.1411 56.3261C20.1711 56.3671 20.2384 56.4111 20.2304 56.4062C21.5025 57.1493 21.9367 58.784 21.1991 60.0609C20.4591 61.3427 18.8183 61.7818 17.5371 61.0425C16.2559 60.3025 15.8156 58.6616 16.5556 57.3804C16.6253 57.2606 19.395 52.5277 19.998 51.4972L20.5105 51.6336ZM17.1433 57.7192C16.5904 58.6763 16.9194 59.9025 17.8759 60.4547C18.8336 61.0076 20.0592 60.6792 20.612 59.7221C21.1649 58.765 20.8359 57.5388 19.8788 56.9866C18.9217 56.4337 17.6955 56.7621 17.1433 57.7192ZM17.6619 58.0189C18.0496 57.348 18.9082 57.1181 19.5791 57.5052C20.2506 57.8923 20.4806 58.7515 20.0934 59.4224C19.7057 60.0933 18.8471 60.3239 18.1756 59.9361C17.5047 59.549 17.2747 58.6898 17.6619 58.0189ZM19.1345 49.6277L19.5027 51.0018C18.471 51.6054 13.7393 54.3752 13.6201 54.4443C12.3382 55.1843 10.6974 54.7446 9.95802 53.4628C9.21804 52.1815 9.65775 50.5407 10.9396 49.8007C12.2165 49.0632 13.8506 49.498 14.5943 50.7694L14.5955 50.7725C14.6487 50.8612 14.7435 50.9156 14.8468 50.9181C14.8805 50.9187 14.9135 50.9132 14.9447 50.9034L19.1345 49.6277ZM13.2813 53.8566C14.2377 53.3044 14.5661 52.0782 14.0139 51.1211C13.4617 50.164 12.2355 49.8356 11.2784 50.3884C10.3207 50.9407 9.99288 52.1669 10.5457 53.124C11.098 54.081 12.3235 54.4095 13.2813 53.8566ZM12.9816 53.338C12.3107 53.7257 11.4515 53.4952 11.0643 52.8243C10.6766 52.1534 10.9072 51.2942 11.5781 50.907C12.2489 50.5193 13.1082 50.7499 13.4953 51.4208C13.8824 52.0916 13.6525 52.9509 12.9816 53.338ZM22.7189 48.6485L31.2251 46.3693C30.9242 47.0603 30.3713 47.615 29.6735 47.9159L21.7514 51.3321C21.744 51.3357 21.7361 51.3376 21.7281 51.3382L20.6659 51.0557L20.0959 50.9009L19.7155 49.4723L22.7189 48.6485ZM21.4927 50.6062C21.7648 50.5328 21.9269 50.2527 21.8541 49.9799C21.7807 49.7078 21.5006 49.5457 21.2285 49.6191C20.9557 49.6919 20.7943 49.972 20.8664 50.2447C20.9398 50.5169 21.2199 50.6789 21.4927 50.6062ZM22.396 48.1153L19.8708 48.7917L23.0846 41.3282C23.3849 40.6298 23.9395 40.0763 24.6306 39.7754L22.396 48.1153Z" fill="#0D313B"/>
<path fill-rule="evenodd" clip-rule="evenodd" d="M22.7187 48.6483L31.2249 46.3691C30.924 47.0601 30.3711 47.6148 29.6733 47.9157L21.7512 51.3319C21.7438 51.3355 21.7359 51.3374 21.7279 51.338L20.6657 51.0555L20.0957 50.9007L19.7153 49.4721L22.7187 48.6483ZM21.8539 49.9797C21.9267 50.2525 21.7646 50.5326 21.4925 50.606C21.2197 50.6787 20.9396 50.5167 20.8662 50.2445C20.7941 49.9718 20.9555 49.6917 21.2283 49.6189C21.5004 49.5455 21.7805 49.7076 21.8539 49.9797Z" fill="#0D313B"/>
<path d="M22.3958 48.1153L19.8706 48.7917L23.0844 41.3282C23.3847 40.6298 23.9393 40.0763 24.6304 39.7754L22.3958 48.1153Z" fill="#0D313B"/>
<path fill-rule="evenodd" clip-rule="evenodd" d="M19.1344 49.6276L19.5026 51.0017C18.4709 51.6053 13.7392 54.3751 13.62 54.4442C12.3381 55.1842 10.6973 54.7445 9.95794 53.4627C9.21796 52.1814 9.65767 50.5406 10.9395 49.8006C12.2164 49.0631 13.8505 49.4979 14.5942 50.7693L14.5954 50.7724C14.6486 50.8611 14.7434 50.9155 14.8467 50.918C14.8804 50.9186 14.9134 50.9131 14.9446 50.9033L19.1344 49.6276ZM14.0138 51.121C14.566 52.0781 14.2376 53.3043 13.2812 53.8565C12.3234 54.4094 11.0979 54.0809 10.5456 53.1239C9.9928 52.1668 10.3206 50.9406 11.2783 50.3883C12.2354 49.8355 13.4616 50.1639 14.0138 51.121Z" fill="#0D313B"/>
<path fill-rule="evenodd" clip-rule="evenodd" d="M20.5104 51.6335L21.3721 51.8671L20.0958 56.0606C20.0676 56.1511 20.0842 56.2495 20.141 56.326C20.171 56.367 20.2383 56.411 20.2303 56.4061C21.5024 57.1492 21.9366 58.7839 21.199 60.0608C20.459 61.3426 18.8182 61.7817 17.537 61.0424C16.2558 60.3024 15.8155 58.6615 16.5555 57.3803C16.6252 57.2605 19.3949 52.5276 19.9979 51.4971L20.5104 51.6335ZM17.8758 60.4546C16.9193 59.9024 16.5903 58.6762 17.1432 57.7191C17.6954 56.762 18.9216 56.4336 19.8787 56.9865C20.8358 57.5387 21.1648 58.7649 20.6119 59.722C20.0591 60.6791 18.8335 61.0075 17.8758 60.4546Z" fill="#0D313B"/>
</svg>
