<svg width="72" height="72" viewBox="0 0 72 72" fill="none" xmlns="http://www.w3.org/2000/svg">
<g id="countries">
<g id="Group 1171275328">
<path id="Rectangle 34624893" d="M18.5889 33.5825H22.406L23.3602 35.4911L27.1773 37.8768H29.563L31.4716 36.9225L32.4259 35.9682L32.903 35.4911L33.8573 35.0139L35.2887 34.5368H38.1515L39.1058 35.0139L41.0143 36.4453L41.9686 37.8768V38.831L40.0601 40.2624V46.4652H35.7658L31.9487 45.511L27.1773 43.6024L22.8831 40.2624L20.4974 36.9225L18.5889 33.5825Z" fill="#2894B4"/>
<path id="Rectangle 34624892" d="M28.1309 7.81717L31.4708 6.38576L34.8108 5.43148L38.1508 4.95435L42.445 5.90862L46.7392 7.34003L49.6021 9.24859L46.7392 15.4514L47.2164 17.8371L42.445 22.6084L40.5364 20.6999V15.9285L35.2879 10.68L30.5165 10.2029L28.1309 7.81717Z" fill="#2894B4"/>
<g id="Group 1171275325">
<g id="Group 1171275324">
<g id="Group 1171275323">
<path id="Vector" d="M22.7869 8.50813C21.4921 7.44939 20.8426 5.74978 19.2642 4.979C7.34315 15.5685 7.07251 33.8789 17.6123 44.8971C27.7233 55.4888 44.5159 56.6125 55.5709 46.798C54.8932 45.1158 53.1806 44.2627 52.3189 42.7255" stroke="#0D313B" stroke-width="3.03809" stroke-linecap="round" stroke-linejoin="round"/>
<g id="Group">
<path id="Vector_2" d="M33.8959 58.7476C32.5405 58.7476 31.1852 58.687 29.832 58.7476C26.8138 58.9057 25.2311 60.4364 24.6357 63.8963H50.4222C50.4222 60.8326 48.4931 58.8234 45.2757 58.7541C41.6665 58.6762 38.0507 58.7541 34.4372 58.7541" stroke="#0D313B" stroke-width="3.03809" stroke-linecap="round" stroke-linejoin="round"/>
</g>
<path id="Vector_3" d="M45.8177 45.7134C43.5248 43.7843 42.7454 41.368 43.055 38.3758C43.2607 36.4099 40.2209 33.5195 38.2311 33.487C35.4468 33.487 32.6711 32.9436 30.5363 35.8383C29.5339 37.1915 27.3731 36.8429 25.7796 35.8989C25.2253 35.559 24.7707 35.1195 24.4134 34.5782C22.6034 31.8632 20.0074 32.1771 17.3682 32.6881" stroke="#0D313B" stroke-width="3.03809" stroke-linecap="round" stroke-linejoin="round"/>
<path id="Vector_4" d="M52.0482 9.59488C61.2975 17.1987 61.7154 31.7223 53.9665 40.3026C53.6698 40.6404 53.3624 40.9673 53.0441 41.2856C52.7259 41.6038 52.3989 41.9134 52.0633 42.2101C51.7256 42.5088 51.3813 42.7968 51.0262 43.0718C50.6733 43.3489 50.3096 43.6152 49.9394 43.8685C49.5691 44.1218 49.1902 44.3643 48.8048 44.596C48.4195 44.8255 48.0276 45.0442 47.627 45.2499C47.2287 45.4577 46.8238 45.6504 46.4124 45.8323C46.001 46.012 45.5853 46.1809 45.1631 46.3368C44.7409 46.4926 44.3166 46.6334 43.8857 46.7633C43.4549 46.891 43.0219 47.0079 42.5845 47.1097C42.1471 47.2115 41.7076 47.3002 41.2638 47.3738C40.8221 47.4496 40.3761 47.5102 39.9301 47.5579C39.4841 47.6055 39.0359 47.638 38.5877 47.6575C38.1374 47.677 37.6892 47.6813 37.241 47.6726C36.7907 47.6661 36.3425 47.6423 35.8965 47.6055C35.4483 47.5709 35.0023 47.5211 34.5563 47.4561C34.1124 47.3912 33.6708 47.3154 33.2312 47.2223C32.7917 47.1313 32.3544 47.0274 31.9213 46.9083C31.4883 46.7893 31.0596 46.6594 30.6331 46.5143C30.2087 46.3692 29.7887 46.2112 29.373 46.0401C28.9573 45.8691 28.5481 45.6851 28.1432 45.488C27.7405 45.291 27.3421 45.0832 26.9503 44.8623C26.5605 44.6393 26.1752 44.4076 25.7984 44.163C25.4217 43.9162 25.0536 43.6607 24.6921 43.3922C24.3326 43.1259 23.9797 42.8466 23.6355 42.5565C23.2934 42.2663 22.9578 41.9676 22.633 41.6558C22.3083 41.3462 21.9922 41.0257 21.6869 40.6945C21.3816 40.3654 21.0872 40.0255 20.8014 39.679C20.5177 39.3305 20.2449 38.9732 19.9808 38.6073C19.7188 38.2436 19.4677 37.869 19.2295 37.488C18.9892 37.1069 18.7618 36.7193 18.5475 36.3253C18.331 35.9312 18.1274 35.5285 17.9369 35.1215C12.9247 24.6402 17.0644 13.0114 25.989 7.35616C33.5214 2.5821 43.5198 3.08873 49.8917 7.68742C50.6863 8.15725 51.3164 8.79379 51.7775 9.59488" stroke="#0D313B" stroke-width="3.03809" stroke-linecap="round" stroke-linejoin="round"/>
<path id="Vector_5" d="M26.3096 7.96484C27.3012 8.95863 28.3036 9.94808 29.2844 10.9592C29.8257 11.5005 30.406 11.9421 31.1854 11.7559C34.9245 10.8769 36.6047 13.8106 38.7719 15.8199C39.5319 16.5084 39.3154 17.2856 39.2656 17.9915C38.9733 20.7065 39.5795 22.9777 42.9073 24.4067C44.2626 22.8911 45.7782 21.0594 47.4475 19.3815C47.8026 19.0242 48.0516 18.6042 48.1945 18.1214C48.3374 17.6364 48.3569 17.1492 48.2551 16.6556C47.8762 13.6569 48.8288 11.3554 51.5071 9.86581" stroke="#0D313B" stroke-width="3.03809" stroke-linecap="round" stroke-linejoin="round"/>
<path id="Vector_6" d="M51.2365 29.9624C53.0898 28.6591 53.6094 26.9313 52.8625 24.7316C50.5739 23.7876 49.7296 25.7102 48.4023 26.8382C48.9436 28.3321 50.2016 28.9513 50.9918 29.9624" stroke="#0D313B" stroke-width="3.03809" stroke-linecap="round" stroke-linejoin="round"/>
<path id="Vector_7" d="M34.167 53.8586V58.4768" stroke="#0D313B" stroke-width="3.03809" stroke-linecap="round" stroke-linejoin="round"/>
<path id="Vector_8" d="M41.2119 53.8586V58.4768" stroke="#0D313B" stroke-width="3.03809" stroke-linecap="round" stroke-linejoin="round"/>
</g>
</g>
<g id="Group 1171275327">
<g id="Group 1171275244">
<g id="Group_2">
<path id="Vector 685" d="M54.8693 39.5112H40.9727V67.0728H61.1227V45.9963H54.8693V39.5112Z" fill="#2894B4"/>
</g>
</g>
<g id="Group 1171275326">
<path id="Vector_9" d="M41.2651 38.4464C40.646 38.6333 40.0736 39.1414 39.7699 39.7547L39.583 40.1402V53.1939V66.2476L39.7699 66.6331C40.0152 67.1237 40.4591 67.5676 40.9497 67.8129L41.3352 67.9998H51.0013H60.6675L61.0063 67.8421C61.4794 67.6201 61.9992 67.1061 62.2328 66.6331L62.4197 66.2476L62.4372 56.085C62.4431 50.4955 62.4372 45.8581 62.4197 45.7763C62.3788 45.6128 55.3993 38.5807 55.1365 38.4406C54.9087 38.3238 41.6447 38.3238 41.2651 38.4464ZM53.8749 43.2298C53.8924 46.3429 53.8924 46.413 54.0151 46.5765C54.2896 46.9503 54.2137 46.9445 57.6479 46.9445H60.7551V56.3595C60.7551 65.5993 60.7551 65.7862 60.6383 65.9672C60.3988 66.3644 61.1348 66.3352 51.0013 66.3352C40.8679 66.3352 41.6038 66.3644 41.3644 65.9672C41.2476 65.7862 41.2476 65.5759 41.2476 53.2056C41.2476 39.3108 41.2184 40.4088 41.6155 40.1694C41.7966 40.0584 41.9543 40.0526 47.8299 40.0526H53.8632L53.8749 43.2298ZM57.572 43.2649L59.5578 45.2507H57.5545H55.557V43.2649C55.557 42.1727 55.5628 41.2791 55.5745 41.2791C55.5804 41.2791 56.4798 42.1727 57.572 43.2649Z" fill="#0D313B"/>
<path id="Vector_10" d="M49.4193 49.9594C48.7083 50.4619 48.6804 51.851 49.3636 52.4421C49.5866 52.6293 49.726 52.6392 54.2361 52.6392H58.8787L59.1157 52.4126C59.771 51.7919 59.7291 50.452 59.0321 49.9594C58.816 49.792 58.4395 49.7821 54.2292 49.7821C50.0188 49.7821 49.6424 49.792 49.4193 49.9594Z" fill="#0D313B"/>
<circle id="Ellipse 2662" cx="45.2967" cy="51.2105" r="1.42852" fill="#0D313B"/>
<path id="Vector_11" d="M49.4193 61.3874C48.7083 61.8899 48.6804 63.279 49.3636 63.8701C49.5866 64.0573 49.726 64.0671 54.2361 64.0671H58.8787L59.1157 63.8405C59.771 63.2199 59.7291 61.88 59.0321 61.3874C58.816 61.2199 58.4395 61.2101 54.2292 61.2101C50.0188 61.2101 49.6424 61.2199 49.4193 61.3874Z" fill="#0D313B"/>
<circle id="Ellipse 2664" cx="45.2967" cy="62.6385" r="1.42852" fill="#0D313B"/>
<path id="Vector_12" d="M49.4193 55.6736C48.7083 56.176 48.6804 57.5651 49.3636 58.1562C49.5866 58.3434 49.726 58.3533 54.2361 58.3533H58.8787L59.1157 58.1267C59.771 57.506 59.7291 56.1662 59.0321 55.6736C58.816 55.5061 58.4395 55.4962 54.2292 55.4962C50.0188 55.4962 49.6424 55.5061 49.4193 55.6736Z" fill="#0D313B"/>
<circle id="Ellipse 2663" cx="45.2967" cy="56.9244" r="1.42852" fill="#0D313B"/>
</g>
</g>
</g>
</g>
</g>
</svg>
