<svg width="72" height="72" viewBox="0 0 72 72" fill="none" xmlns="http://www.w3.org/2000/svg">
<g id="employee-payslips">
<g id="Group 1171275413">
<g id="Group 1171275412">
<g id="Group 159080">
<circle id="Ellipse 19" cx="42.9053" cy="24.544" r="6.60649" fill="#22885E"/>
<circle id="Ellipse 20" cx="19.6065" cy="26.6065" r="6.60649" fill="#22885E"/>
<path id="Subtract" d="M69 50.0221C69 55.0049 65.1944 59.0443 60.5 59.0443C55.8056 59.0443 52 55.0049 52 50.0221C52 45.0393 55.8056 41 60.5 41C65.1944 41 69 45.0393 69 50.0221Z" fill="#22885E"/>
<g id="Group 159034">
<g id="Subtract_2">
<path fill-rule="evenodd" clip-rule="evenodd" d="M53.1903 24.7226C53.1903 30.2125 49.1102 34.6757 44.0725 34.6757C39.0557 34.6757 34.9755 30.2335 34.9547 24.7645C34.9547 19.3794 39.0765 15 44.0725 15C49.131 15 53.1903 19.3165 53.1903 24.7226ZM27.877 26.3989C27.877 31.2392 24.3381 35.1576 19.9457 35.1576C15.5742 35.1576 12.0145 31.2602 12.0145 26.4199C11.9937 21.7471 15.595 17.8707 19.9457 17.8707C24.3381 17.8707 27.877 21.6843 27.877 26.3989ZM38.7642 24.7435C38.7642 28.2847 41.1998 31.0087 44.0725 31.0087C46.9661 31.0087 49.3808 28.2428 49.3808 24.7226C49.3808 21.2862 46.9869 18.6669 44.0725 18.6669C41.179 18.6669 38.7642 21.3281 38.7642 24.7435ZM15.595 26.4199C15.595 29.2696 17.5934 31.5326 19.9457 31.5326C22.3189 31.5326 24.3173 29.2696 24.3173 26.3989C24.3173 23.6539 22.3605 21.4747 19.9457 21.4747C17.5726 21.4747 15.595 23.6958 15.595 26.4199ZM24.6712 54.4142H8.49645C5.49882 54.4142 4 53.136 4 50.6216C4 43.6649 11.1194 37.3368 19.9249 37.3368C23.1724 37.3368 26.4614 38.2169 29.1052 39.8513C27.9603 40.6056 27.0859 41.4857 26.3782 42.5124C24.5879 41.5066 22.2564 40.9199 19.9249 40.9199C13.326 40.9199 7.74704 45.4879 7.74704 50.2863C7.74704 50.6425 7.91358 50.8311 8.3091 50.8311H22.9017C22.756 52.214 23.5263 53.7437 24.6712 54.4142ZM48.7416 54.4142H31.1036C27.5023 54.4142 25.7537 53.2617 25.7537 50.7892C25.7537 45.0269 32.9147 37.3578 44.0725 37.3578C47.9749 37.3578 51.3884 38.2958 54.1776 39.7623C52.8122 40.3043 51.5873 41.1241 50.5727 42.152C48.7116 41.4572 46.5376 41.0247 44.0725 41.0247C34.9131 41.0247 29.7713 46.9965 29.7713 50.2025C29.7713 50.5796 29.9587 50.7473 30.4375 50.7473H47.612C47.7625 52.0581 48.1542 53.2956 48.7416 54.4142Z" fill="#0B2D1F"/>
<path d="M34.9547 24.7645H34.8776V24.7648L34.9547 24.7645ZM12.0145 26.4199H12.0917L12.0916 26.4195L12.0145 26.4199ZM24.6712 54.4142V54.4913H24.9556L24.7102 54.3476L24.6712 54.4142ZM29.1052 39.8513L29.1476 39.9157L29.2485 39.8492L29.1457 39.7857L29.1052 39.8513ZM26.3782 42.5124L26.3404 42.5797L26.4017 42.6141L26.4417 42.5562L26.3782 42.5124ZM22.9017 50.8311L22.9785 50.8392L22.9874 50.7539H22.9017V50.8311ZM48.7416 54.4142V54.4913H48.8692L48.8099 54.3783L48.7416 54.4142ZM54.1776 39.7623L54.206 39.834L54.362 39.7721L54.2135 39.694L54.1776 39.7623ZM50.5727 42.152L50.5457 42.2242L50.5925 42.2417L50.6276 42.2061L50.5727 42.152ZM47.612 50.7473L47.6886 50.7385L47.6808 50.6701H47.612V50.7473ZM44.0725 34.7528C49.1591 34.7528 53.2675 30.2486 53.2675 24.7226H53.1132C53.1132 30.1764 49.0614 34.5985 44.0725 34.5985V34.7528ZM34.8776 24.7648C34.8985 30.2697 39.007 34.7528 44.0725 34.7528V34.5985C39.1044 34.5985 35.0526 30.1972 35.0319 24.7642L34.8776 24.7648ZM44.0725 14.9229C39.0292 14.9229 34.8776 19.3416 34.8776 24.7645H35.0319C35.0319 19.4171 39.1238 15.0771 44.0725 15.0771V14.9229ZM53.2675 24.7226C53.2675 19.2786 49.1782 14.9229 44.0725 14.9229V15.0771C49.0839 15.0771 53.1132 19.3544 53.1132 24.7226H53.2675ZM19.9457 35.2348C24.3878 35.2348 27.9541 31.2744 27.9541 26.3989H27.7998C27.7998 31.2041 24.2884 35.0805 19.9457 35.0805V35.2348ZM11.9374 26.4199C11.9374 31.2957 15.5249 35.2348 19.9457 35.2348V35.0805C15.6235 35.0805 12.0916 31.2246 12.0916 26.4199H11.9374ZM19.9457 17.7935C15.5473 17.7935 11.9164 21.7099 11.9374 26.4202L12.0916 26.4195C12.071 21.7843 15.6428 17.9478 19.9457 17.9478V17.7935ZM27.9541 26.3989C27.9541 21.6471 24.3859 17.7935 19.9457 17.7935V17.9478C24.2903 17.9478 27.7998 21.7215 27.7998 26.3989H27.9541ZM44.0725 30.9316C41.2528 30.9316 38.8414 28.2533 38.8414 24.7435H38.6871C38.6871 28.3162 41.1468 31.0859 44.0725 31.0859V30.9316ZM49.3037 24.7226C49.3037 28.2122 46.9124 30.9316 44.0725 30.9316V31.0859C47.0197 31.0859 49.458 28.2735 49.458 24.7226H49.3037ZM44.0725 18.7441C46.9359 18.7441 49.3037 21.3199 49.3037 24.7226H49.458C49.458 21.2524 47.0379 18.5898 44.0725 18.5898V18.7441ZM38.8414 24.7435C38.8414 21.3614 41.2303 18.7441 44.0725 18.7441V18.5898C41.1277 18.5898 38.6871 21.2947 38.6871 24.7435H38.8414ZM19.9457 31.4554C17.6465 31.4554 15.6722 29.2382 15.6722 26.4199H15.5179C15.5179 29.3009 17.5404 31.6097 19.9457 31.6097V31.4554ZM24.2402 26.3989C24.2402 29.2382 22.2659 31.4554 19.9457 31.4554V31.6097C22.3719 31.6097 24.3944 29.301 24.3944 26.3989H24.2402ZM19.9457 21.5519C22.3098 21.5519 24.2402 23.6879 24.2402 26.3989H24.3944C24.3944 23.62 22.4112 21.3976 19.9457 21.3976V21.5519ZM15.6722 26.4199C15.6722 23.7292 17.624 21.5519 19.9457 21.5519V21.3976C17.5213 21.3976 15.5179 23.6625 15.5179 26.4199H15.6722ZM8.49645 54.4913H24.6712V54.3371H8.49645V54.4913ZM3.92286 50.6216C3.92286 51.8946 4.30289 52.8672 5.07429 53.5197C5.84326 54.1701 6.98846 54.4913 8.49645 54.4913V54.3371C7.00681 54.3371 5.90378 54.0192 5.17393 53.4019C4.44652 52.7867 4.07714 51.863 4.07714 50.6216H3.92286ZM19.9249 37.2597C11.0889 37.2597 3.92286 43.6111 3.92286 50.6216H4.07714C4.07714 43.7187 11.1499 37.414 19.9249 37.414V37.2597ZM29.1457 39.7857C26.4888 38.1431 23.1855 37.2597 19.9249 37.2597V37.414C23.1592 37.414 26.434 38.2906 29.0646 39.9169L29.1457 39.7857ZM26.4417 42.5562C27.1439 41.5374 28.0112 40.6644 29.1476 39.9157L29.0627 39.7869C27.9093 40.5468 27.0279 41.4339 26.3147 42.4686L26.4417 42.5562ZM19.9249 40.9971C22.2446 40.9971 24.5628 41.581 26.3404 42.5797L26.416 42.4452C24.613 41.4322 22.2683 40.8428 19.9249 40.8428V40.9971ZM7.82419 50.2863C7.82419 47.9176 9.20194 45.5963 11.409 43.8644C13.6151 42.1332 16.6428 40.9971 19.9249 40.9971V40.8428C16.6081 40.8428 13.5468 41.9906 11.3138 43.743C9.08161 45.4946 7.6699 47.8566 7.6699 50.2863H7.82419ZM8.3091 50.7539C8.12227 50.7539 8.00547 50.7094 7.93448 50.6379C7.86342 50.5664 7.82419 50.4538 7.82419 50.2863H7.6699C7.6699 50.475 7.71394 50.6348 7.82502 50.7466C7.93618 50.8585 8.1004 50.9082 8.3091 50.9082V50.7539ZM22.9017 50.7539H8.3091V50.9082H22.9017V50.7539ZM24.7102 54.3476C23.5921 53.6929 22.8358 52.1928 22.9785 50.8392L22.825 50.823C22.6762 52.2352 23.4604 53.7945 24.6322 54.4808L24.7102 54.3476ZM31.1036 54.4913H48.7416V54.3371H31.1036V54.4913ZM25.6765 50.7892C25.6765 52.0464 26.1228 52.9789 27.0351 53.5929C27.9414 54.2029 29.2974 54.4913 31.1036 54.4913V54.3371C29.3085 54.3371 27.9896 54.0493 27.1212 53.4649C26.2588 52.8845 25.8308 52.0045 25.8308 50.7892H25.6765ZM44.0725 37.2806C38.4756 37.2806 33.8785 39.2042 30.6797 41.8532C27.4832 44.5003 25.6765 47.8781 25.6765 50.7892H25.8308C25.8308 47.9379 27.6047 44.6 30.7781 41.972C33.9493 39.3459 38.5116 37.4349 44.0725 37.4349V37.2806ZM54.2135 39.694C51.4132 38.2218 47.9874 37.2806 44.0725 37.2806V37.4349C47.9623 37.4349 51.3635 38.3699 54.1417 39.8306L54.2135 39.694ZM50.6276 42.2061C51.6348 41.1857 52.8507 40.372 54.206 39.834L54.1491 39.6906C52.7736 40.2366 51.5398 41.0624 50.5178 42.0978L50.6276 42.2061ZM44.0725 41.1018C46.5284 41.1018 48.6933 41.5327 50.5457 42.2242L50.5997 42.0797C48.7299 41.3817 46.5467 40.9475 44.0725 40.9475V41.1018ZM29.8485 50.2025C29.8485 49.42 30.1629 48.4598 30.7834 47.4565C31.4033 46.4543 32.3259 45.414 33.5346 44.4722C35.9515 42.589 39.5101 41.1018 44.0725 41.1018V40.9475C39.4755 40.9475 35.8836 42.4463 33.4397 44.3505C32.218 45.3024 31.2827 46.3562 30.6522 47.3754C30.0225 48.3935 29.6942 49.3819 29.6942 50.2025H29.8485ZM30.4375 50.6701C30.2039 50.6701 30.06 50.6286 29.9743 50.5571C29.8921 50.4885 29.8485 50.3791 29.8485 50.2025H29.6942C29.6942 50.403 29.7442 50.566 29.8754 50.6755C30.0031 50.7821 30.1922 50.8244 30.4375 50.8244V50.6701ZM47.612 50.6701H30.4375V50.8244H47.612V50.6701ZM48.8099 54.3783C48.2269 53.268 47.8381 52.0396 47.6886 50.7385L47.5354 50.7561C47.687 52.0765 48.0816 53.3232 48.6733 54.4501L48.8099 54.3783Z" fill="#0B2D1F"/>
</g>
</g>
</g>
<g id="Group 1171275411">
<g id="Group 1171275092">
<g id="Group 1171275090">
<g id="Ellipse 2542">
<mask id="path-6-outside-1_6242_46353" maskUnits="userSpaceOnUse" x="50.5166" y="39.8386" width="20" height="20" fill="black">
<rect fill="white" x="50.5166" y="39.8386" width="20" height="20"/>
<path d="M60.2585 57.3225C64.5343 57.3225 68.0005 53.8563 68.0005 49.5806C68.0005 45.3048 64.5343 41.8386 60.2585 41.8386C55.9828 41.8386 52.5166 45.3048 52.5166 49.5806C52.5166 53.8563 55.9828 57.3225 60.2585 57.3225Z"/>
</mask>
<path d="M60.2585 57.3225C64.5343 57.3225 68.0005 53.8563 68.0005 49.5806C68.0005 45.3048 64.5343 41.8386 60.2585 41.8386C55.9828 41.8386 52.5166 45.3048 52.5166 49.5806C52.5166 53.8563 55.9828 57.3225 60.2585 57.3225Z" stroke="#0B2D1F" stroke-width="3.83523" mask="url(#path-6-outside-1_6242_46353)"/>
</g>
</g>
</g>
<g id="Group 1171275410">
<g id="Group">
<g id="Vector">
<path d="M64.7426 53.5328C64.6308 53.7253 64.422 53.8552 64.1832 53.8552H57.5903C57.3333 53.8552 57.1116 53.7049 57.0068 53.4878L56.9451 53.2406C56.9446 53.2309 56.9446 53.2207 56.9446 53.2105V45.3573C56.9446 45.0025 57.2341 44.7126 57.5903 44.7126H62.2249V45.8963C62.2249 46.6148 62.8102 47.1988 63.5306 47.1988H64.8298V53.2105C64.8298 53.3283 64.7977 53.4378 64.7426 53.5328ZM58.1181 55.2481C57.9502 55.2903 57.7767 55.2643 57.6283 55.1762C57.4808 55.0876 57.3755 54.9475 57.3333 54.7805L57.2512 54.4545C57.3593 54.4842 57.4729 54.4995 57.5903 54.4995H61.0987L58.1181 55.2481ZM64.705 46.606H63.5306C63.1382 46.606 62.819 46.2873 62.819 45.8963V44.7126H62.8501L64.705 46.606ZM56.298 50.6761L55.4121 47.1654C55.3249 46.8203 55.5355 46.4696 55.8811 46.3824L56.298 46.2781V50.6761ZM64.8298 45.8843L63.6818 44.7126L63.0496 44.0684H57.5903C56.8783 44.0684 56.298 44.6463 56.298 45.3573V45.6129L55.7234 45.7572C55.0322 45.9306 54.6111 46.6333 54.7855 47.3226L56.305 53.3459C56.318 53.4688 56.3486 53.5866 56.3941 53.697L56.7062 54.9373C56.7906 55.2713 57.0007 55.5533 57.2967 55.7295C57.5003 55.8511 57.7271 55.9123 57.9581 55.9123C58.0634 55.9123 58.1705 55.9002 58.2758 55.8733L63.7476 54.4995L64.6688 54.268C64.8812 54.2151 65.0728 54.1117 65.2286 53.9674C65.384 53.755 65.4754 53.4934 65.4754 53.2105V46.5438L64.8298 45.8843Z" fill="#0B2D1F"/>
<path d="M64.7426 53.5328C64.6308 53.7253 64.422 53.8552 64.1832 53.8552H57.5903C57.3333 53.8552 57.1116 53.7049 57.0068 53.4878L56.9451 53.2406C56.9446 53.2309 56.9446 53.2207 56.9446 53.2105V45.3573C56.9446 45.0025 57.2341 44.7126 57.5903 44.7126H62.2249V45.8963C62.2249 46.6148 62.8102 47.1988 63.5306 47.1988H64.8298V53.2105C64.8298 53.3283 64.7977 53.4378 64.7426 53.5328Z" fill="#22885E"/>
</g>
</g>
<path id="Vector_2" d="M58.2334 51.1118V51.5543H59.8652V51.1118H58.2334Z" fill="#0B2D1F"/>
<path id="Vector_3" d="M60.6885 51.1118V51.5552H63.5656V51.1118H60.6885Z" fill="#0B2D1F"/>
<path id="Vector_4" d="M63.5654 49.99V50.4325H61.9336V49.99H63.5654Z" fill="#0B2D1F"/>
<path id="Vector_5" d="M61.111 49.99V50.4325H58.2334V49.99H61.111Z" fill="#0B2D1F"/>
<path id="Vector_6" d="M58.2783 52.3489V52.7909H61.6722V52.3489H58.2783Z" fill="#0B2D1F"/>
<path id="Vector_7" d="M62.4922 52.3489V52.7909H63.6091V52.3489H62.4922Z" fill="#0B2D1F"/>
<path id="Vector_8" d="M60.0581 47.3023C59.9161 47.2012 59.7608 47.1344 59.61 47.0695C59.4778 47.0129 59.3735 46.9591 59.2812 46.9016C59.1828 46.8399 59.1439 46.7439 59.1643 46.6163C59.1828 46.5013 59.2515 46.4238 59.3748 46.3821C59.5029 46.3375 59.6374 46.3505 59.7631 46.3709C59.8739 46.3895 59.9764 46.4271 60.0752 46.4855L60.1467 46.5282L60.2019 46.3913C60.2302 46.3213 60.2575 46.2531 60.283 46.1849C60.302 46.1367 60.2682 46.0759 60.2283 46.0588L60.1768 46.0351C60.1151 46.0064 60.052 45.9767 59.9834 45.9591C59.9106 45.9396 59.8354 45.9284 59.7631 45.9182C59.7515 45.9159 59.739 45.9145 59.7269 45.9122V45.627H59.315V45.9377L59.3118 45.9386C59.167 45.9716 59.0386 46.0314 58.9282 46.1172C58.7524 46.2531 58.6457 46.4693 58.6425 46.6952C58.6401 46.9099 58.7315 47.1103 58.8939 47.2425C59.0534 47.3719 59.2306 47.4521 59.367 47.5073C59.4992 47.5611 59.617 47.6117 59.7185 47.6919C59.8303 47.7814 59.8855 47.9109 59.8674 48.0384C59.8498 48.1618 59.7668 48.2615 59.642 48.3121C59.5794 48.3371 59.507 48.352 59.431 48.3547C59.2454 48.3612 59.0608 48.3167 58.8707 48.2147L58.7306 48.14L58.6782 48.2912C58.6573 48.3501 58.6378 48.4076 58.616 48.4637C58.5933 48.5245 58.6114 48.576 58.6666 48.6089C58.7821 48.6757 58.9064 48.7235 59.0362 48.749C59.103 48.762 59.1703 48.7708 59.2399 48.7792L59.2705 48.7843V49.0806H59.7005V48.7592C59.7083 48.7569 59.7172 48.7546 59.7255 48.7522C59.7812 48.7365 59.8354 48.7202 59.8874 48.6984C60.1768 48.576 60.3512 48.358 60.3906 48.0681C60.4347 47.7536 60.3197 47.4888 60.0581 47.3023Z" fill="#0B2D1F"/>
</g>
</g>
</g>
</g>
</g>
</svg>
