<svg width="72" height="72" viewBox="0 0 72 72" fill="none" xmlns="http://www.w3.org/2000/svg">
<path d="M32.6144 67.9959C25.6673 67.9959 18.7182 67.9979 11.7711 67.9959C7.15408 67.9938 4.00154 64.8454 4.00154 60.2325C3.99949 46.5414 3.99949 32.8523 4.00154 19.1612C4.00154 14.538 7.14382 11.3958 11.7568 11.3793C12.4377 11.3773 13.3464 11.6768 13.7381 11.246C14.0745 10.8748 13.8427 9.98255 13.8448 9.32004C13.853 6.03828 15.8856 4.00359 19.1674 4.00154C25.4745 3.99949 31.7816 3.99949 38.0867 4.00154C41.3193 4.00154 43.3745 6.04854 43.3806 9.27082C43.3827 9.80821 43.4073 10.3497 43.3724 10.885C43.3458 11.2932 43.4832 11.3958 43.8831 11.3958C45.1343 11.3958 46.3937 11.285 47.6305 11.605C50.9492 12.4623 53.2095 15.3359 53.2198 18.8064C53.2382 25.1135 53.2341 31.4207 53.2116 37.7257C53.2095 38.3226 53.3592 38.4703 53.9541 38.4805C60.4212 38.6118 66.476 43.7785 67.68 50.1575C69.2635 58.5444 64.2506 66.0412 55.8964 67.7621C55.0699 67.9323 54.2268 68 53.3777 68C46.4593 67.9918 39.5369 67.9959 32.6144 67.9959ZM38.4006 52.5203C38.5134 51.7409 38.5708 51.103 38.7021 50.4836C39.822 45.2164 42.874 41.5428 47.8418 39.4692C48.1761 39.3297 48.3074 39.1779 48.3053 38.8087C48.293 32.118 48.3053 25.4273 48.2869 18.7387C48.2828 17.3604 47.21 16.3533 45.8173 16.3205C45.1774 16.3061 44.5354 16.3389 43.8955 16.3102C43.5139 16.2938 43.4073 16.3963 43.356 16.8004C43.0196 19.4586 41.0075 21.2205 38.339 21.241C37.5699 21.2472 36.8007 21.2267 36.0315 21.2451C33.5497 21.3067 31.8186 20.2298 30.8976 17.8977C30.631 17.2229 30.1572 16.7368 29.4701 16.4825C28.1697 15.9984 26.8795 16.6015 26.3011 17.9839C25.3761 20.1909 23.7249 21.2739 21.3333 21.2451C20.437 21.2349 19.5386 21.2575 18.6423 21.2369C16.5748 21.1918 14.817 19.8668 14.0991 17.9162C13.9063 17.3911 14.1237 16.6097 13.6027 16.3717C13.1146 16.1482 12.4459 16.3205 11.8552 16.3205C9.85333 16.3205 8.93033 17.2332 8.93033 19.2146C8.93033 32.8769 8.93033 46.5393 8.93033 60.2017C8.93033 62.1318 9.87179 63.0712 11.8101 63.0712C21.6779 63.0712 31.5478 63.0712 41.4157 63.0712C41.631 63.0712 41.8464 63.0712 42.1254 63.0712C39.6312 59.7443 38.86 57.8594 38.4026 53.9479C37.7339 55.4883 36.5382 55.7303 35.1024 55.7201C28.9757 55.677 22.8491 55.7016 16.7245 55.6995C16.3922 55.6995 16.0497 55.7057 15.7318 55.6298C14.5011 55.3324 13.6971 54.153 13.8509 52.9183C14.0068 51.663 15.059 50.7707 16.4292 50.7687C22.7855 50.7625 29.1439 50.7831 35.5003 50.7523C36.8171 50.7379 37.7832 51.1646 38.4006 52.5203ZM53.2485 43.3827C47.7802 43.3929 43.3765 47.7946 43.3827 53.2444C43.3888 58.6839 47.811 63.0753 53.2833 63.0712C58.7023 63.0692 63.0856 58.6183 63.0712 53.1295C63.0589 47.7884 58.6101 43.3724 53.2485 43.3827ZM38.46 12.6244C38.46 11.5988 38.4436 10.5733 38.4682 9.54772C38.4785 9.11493 38.4026 8.91187 37.8919 8.91187C31.714 8.92828 25.534 8.92828 19.3561 8.91187C18.8659 8.90982 18.7551 9.07391 18.7613 9.52926C18.7859 11.1189 18.7613 12.7085 18.7756 14.2981C18.7818 14.9339 18.5028 15.7605 18.8843 16.1564C19.3048 16.5891 20.1499 16.2241 20.8001 16.3164C21.4174 16.4025 21.6636 16.1215 21.9282 15.5882C23.1773 13.0715 25.2612 11.6378 28.0425 11.4204C30.8997 11.1968 33.3569 12.2818 34.7332 14.7862C35.5495 16.2733 36.4171 16.6486 37.8796 16.3184C37.9042 16.3122 37.9309 16.3122 37.9555 16.3164C38.3718 16.3676 38.4744 16.1605 38.4682 15.7749C38.4477 14.7267 38.46 13.6745 38.46 12.6244Z" fill="#0D313B"/>
<path d="M38.46 12.6244C38.46 11.5988 38.4436 10.5733 38.4682 9.54772C38.4785 9.11493 38.4026 8.91187 37.8919 8.91187C31.714 8.92828 25.534 8.92828 19.3561 8.91187C18.8659 8.90982 18.7551 9.07391 18.7613 9.52926C18.7859 11.1189 18.7613 12.7085 18.7756 14.2981C18.7818 14.9339 18.5028 15.7605 18.8843 16.1564C19.3048 16.5891 20.1499 16.2241 20.8001 16.3164C21.4174 16.4025 21.6636 16.1215 21.9282 15.5882C23.1773 13.0715 25.2612 11.6378 28.0425 11.4204C30.8997 11.1968 33.3569 12.2818 34.7332 14.7862C35.5495 16.2733 36.4171 16.6486 37.8796 16.3184C37.9042 16.3122 37.9309 16.3122 37.9555 16.3164C38.3718 16.3676 38.4744 16.1605 38.4682 15.7749C38.4477 14.7267 38.46 13.6745 38.46 12.6244Z" fill="#68D4F4"/>
<path d="M53.2485 43.3827C47.7802 43.3929 43.3765 47.7946 43.3827 53.2444C43.3888 58.6839 47.811 63.0753 53.2833 63.0712C58.7023 63.0692 63.0856 58.6183 63.0712 53.1295C63.0589 47.7884 58.6101 43.3724 53.2485 43.3827Z" fill="#2894B4"/>
<path d="M26.1535 45.8502C22.8718 45.8502 19.5921 45.8604 16.3103 45.844C15.0222 45.8379 13.9762 44.8739 13.849 43.6493C13.7239 42.4228 14.493 41.307 15.7011 40.9932C15.9206 40.9357 16.1565 40.9173 16.3841 40.9173C22.8943 40.9132 29.4066 40.9111 35.9168 40.9173C37.2295 40.9193 38.2776 41.8157 38.4478 43.0361C38.6222 44.2708 37.8346 45.4523 36.6018 45.7681C36.3085 45.842 35.9947 45.8481 35.6891 45.8481C32.5119 45.8522 29.3327 45.8502 26.1535 45.8502Z" fill="#0D313B"/>
<path d="M22.3857 36.0049C20.4372 36.0049 18.4907 36.009 16.5421 36.0028C14.9423 35.9987 13.8244 34.9526 13.8429 33.4964C13.8613 32.0709 14.9648 31.0699 16.5401 31.0699C20.4864 31.0658 24.4348 31.0658 28.3811 31.0699C29.9809 31.072 31.1008 32.116 31.0824 33.5743C31.0639 34.9957 29.9522 36.0008 28.3831 36.0049C26.3833 36.009 24.3835 36.0049 22.3857 36.0049Z" fill="#0D313B"/>
<path d="M55.6893 50.014C55.1642 51.7697 56.2082 52.8096 57.3404 53.8987C58.8152 55.3181 58.1957 57.5784 56.2656 58.0727C55.4042 58.2942 54.633 58.0748 53.9971 57.4635C53.148 56.6452 52.3255 55.8001 51.4927 54.9653C50.9964 54.4689 50.7646 53.8659 50.7646 53.1644C50.7687 51.5502 50.7502 49.934 50.7707 48.3197C50.7892 46.8942 51.8865 45.8256 53.2649 45.8461C54.6063 45.8646 55.6503 46.9291 55.6852 48.3238C55.6995 48.8858 55.6893 49.4499 55.6893 50.014Z" fill="#0D313B"/>
</svg>
