<svg width="72" height="72" viewBox="0 0 72 72" fill="none" xmlns="http://www.w3.org/2000/svg">
<g id="import-other-input-entries">
<g id="Group 1171275322">
<g id="Group">
<g id="Vector">
<path d="M21.3036 45.1441H36.0686C36.3896 45.1381 36.6977 45.0751 36.9961 44.958C37.2912 44.8378 37.5506 44.6727 37.7776 44.4595C38.0014 44.2462 38.1765 44 38.2965 43.7237C38.4197 43.4444 38.4813 43.1592 38.4813 42.8589C38.4813 42.5586 38.4197 42.2703 38.2965 41.994C38.1765 41.7177 38.0014 41.4715 37.7776 41.2583C37.5506 41.045 37.2912 40.8769 36.9961 40.7598C36.6977 40.6396 36.3896 40.5796 36.0686 40.5736H21.3036C20.9826 40.5796 20.6712 40.6396 20.3761 40.7598C20.081 40.8769 19.8216 41.045 19.5946 41.2583C19.3676 41.4715 19.1957 41.7177 19.0725 41.994C18.9525 42.2703 18.8909 42.5586 18.8909 42.8589C18.8909 43.1592 18.9525 43.4444 19.0725 43.7237C19.1957 44 19.3676 44.2462 19.5946 44.4595C19.8216 44.6727 20.081 44.8378 20.3761 44.958C20.6712 45.0751 20.9826 45.1381 21.3036 45.1441ZM45.9108 49.7147H21.3036C20.9826 49.7207 20.6712 49.7838 20.3761 49.9009C20.081 50.021 19.8216 50.1862 19.5946 50.3994C19.3676 50.6156 19.1957 50.8589 19.0725 51.1381C18.9525 51.4144 18.8909 51.7027 18.8909 52C18.8909 52.3003 18.9525 52.5886 19.0725 52.8649C19.1957 53.1441 19.3676 53.3874 19.5946 53.6006C19.8216 53.8168 20.081 53.982 20.3761 54.0991C20.6712 54.2192 20.9826 54.2823 21.3036 54.2883H45.9108C46.2319 54.2823 46.54 54.2192 46.8383 54.0991C47.1334 53.982 47.3928 53.8168 47.6198 53.6006C47.8436 53.3874 48.0187 53.1441 48.142 52.8649C48.2619 52.5886 48.3236 52.3003 48.3236 52C48.3236 51.7027 48.2619 51.4144 48.142 51.1381C48.0187 50.8589 47.8436 50.6156 47.6198 50.3994C47.3928 50.1862 47.1334 50.021 46.8383 49.9009C46.54 49.7838 46.2319 49.7207 45.9108 49.7147ZM60.6726 40.5736H58.2144V61.1441C58.2144 61.5946 58.1658 62.039 58.0718 62.4805C57.9745 62.9219 57.835 63.3514 57.6502 63.7658C57.4653 64.1832 57.2351 64.5766 56.9659 64.952C56.6968 65.3273 56.3919 65.6727 56.0482 65.991C55.7077 66.3093 55.3347 66.5946 54.9294 66.8438C54.5272 67.0931 54.1024 67.3063 53.6549 67.4775C53.2074 67.6487 52.7469 67.7808 52.2702 67.8679C51.7967 67.955 51.3168 68 50.8303 68H16.3809C15.8977 68 15.4177 67.955 14.9443 67.8679C14.4675 67.7808 14.0071 67.6487 13.5595 67.4775C13.112 67.3063 12.6872 67.0931 12.2818 66.8438C11.8797 66.5946 11.5068 66.3093 11.1663 65.991C10.8225 65.6727 10.5177 65.3273 10.2485 64.952C9.97936 64.5766 9.74911 64.1832 9.56427 63.7658C9.37942 63.3514 9.23998 62.9219 9.14269 62.4805C9.04864 62.039 9 61.5946 9 61.1441V10.8589C9 10.4084 9.04864 9.96396 9.14269 9.52252C9.23998 9.08108 9.37942 8.65165 9.56427 8.23423C9.74911 7.81982 9.97936 7.42342 10.2485 7.05105C10.5177 6.67568 10.8225 6.33033 11.1663 6.01201C11.5068 5.69369 11.8797 5.40841 12.2818 5.15916C12.6872 4.90991 13.112 4.6967 13.5595 4.52553C14.0071 4.35135 14.4675 4.22222 14.9443 4.13514C15.4177 4.04505 15.8977 4.003 16.3809 4H41.4129C42.3923 4 43.3327 4.17117 44.2375 4.51952C45.1423 4.86787 45.94 5.36637 46.6308 6.00901L56.0514 14.7598C56.7454 15.4024 57.2805 16.1441 57.6534 16.982C58.0296 17.8228 58.2144 18.6997 58.2144 19.6096V36H60.6726C60.9936 36.009 61.3017 36.0721 61.5968 36.1922C61.8887 36.3123 62.1481 36.4775 62.3718 36.6937C62.5956 36.9069 62.7675 37.1502 62.8875 37.4264C63.0075 37.7027 63.0691 37.988 63.0691 38.2883C63.0691 38.5856 63.0075 38.8709 62.8875 39.1471C62.7675 39.4234 62.5956 39.6697 62.3718 39.8829C62.1481 40.0961 61.8887 40.2613 61.5968 40.3814C61.3017 40.5015 60.9936 40.5646 60.6726 40.5736ZM45.9108 15.4294H49.812L45.9108 11.8048V15.4294ZM53.2917 40.5736H46.9291L50.1104 43.5285C52.4031 45.5916 48.8554 48.8889 46.6308 46.7598L39.2499 39.9039C39.0196 39.6877 38.8413 39.4414 38.7148 39.1622C38.5916 38.8829 38.53 38.5916 38.53 38.2883C38.53 37.985 38.5916 37.6937 38.7148 37.4114C38.8413 37.1321 39.0196 36.8859 39.2499 36.6697L46.6308 29.8138C48.8554 27.6847 52.4031 30.979 50.1104 33.045L46.9291 36H53.2917V20H45.9108C45.5865 20 45.2687 19.97 44.9509 19.9129C44.6331 19.8529 44.325 19.7658 44.0267 19.6517C43.7283 19.5375 43.4462 19.3964 43.1771 19.2282C42.9079 19.0631 42.6614 18.8739 42.4312 18.6607C42.2042 18.4474 41.9999 18.2162 41.8215 17.967C41.6399 17.7177 41.4875 17.4565 41.3643 17.1772C41.241 16.9009 41.147 16.6156 41.0854 16.3213C41.0205 16.027 40.9881 15.7297 40.9881 15.4294V8.57357H16.3809C16.0566 8.57357 15.742 8.63063 15.4404 8.74775C15.1388 8.86186 14.8729 9.02703 14.6427 9.24324C14.4124 9.45646 14.2341 9.7027 14.1108 9.98498C13.9844 10.2643 13.9227 10.5556 13.9227 10.8589V61.1441C13.9227 61.4474 13.9844 61.7387 14.1108 62.018C14.2341 62.2973 14.4124 62.5465 14.6427 62.7598C14.8729 62.973 15.1388 63.1381 15.4404 63.2553C15.742 63.3724 16.0566 63.4294 16.3809 63.4294H50.8303C51.1579 63.4294 51.4724 63.3724 51.774 63.2553C52.0756 63.1381 52.3415 62.973 52.5718 62.7598C52.802 62.5465 52.9804 62.2973 53.1036 62.018C53.2301 61.7387 53.2917 61.4474 53.2917 61.1441V40.5736Z" fill="#0D313B"/>
<path d="M45.9108 15.4294H49.812L45.9108 11.8048V15.4294Z" fill="#2894B4"/>
</g>
</g>
<g id="Group 1171275321">
<path id="Vector_2" d="M26.4864 14.2636C25.8248 14.6445 25.6281 15.1412 25.6281 16.4494C25.6281 17.5588 25.6102 17.5919 25.0737 17.7906C24.7698 17.9065 24.1439 18.3536 23.679 18.7841C21.0504 21.1354 21.7478 25.1923 25.038 26.7156C25.4492 26.8978 26.3433 27.1296 27.0049 27.229C28.0242 27.3449 28.3103 27.4608 28.7215 27.8913C29.258 28.4543 29.3295 29.0007 28.9361 29.7127C28.2924 30.8718 26.6473 30.8221 25.4492 29.6299C24.43 28.6199 23.232 28.4874 22.3915 29.3153C21.7836 29.9114 21.8193 30.789 22.4809 31.5838C22.9995 32.2131 24.9486 33.5212 25.3598 33.5212C25.5208 33.5212 25.6102 33.9186 25.6459 34.9452C25.7175 36.2533 25.7532 36.3858 26.2181 36.7667C26.5579 37.0316 26.9334 37.1641 27.4162 37.1641C27.899 37.1641 28.2745 37.0316 28.6142 36.7667C29.0792 36.4024 29.1149 36.2533 29.1686 34.9618C29.2401 33.6537 29.2759 33.5377 29.6335 33.455C29.8659 33.4053 30.4203 33.0575 30.8852 32.6767C34.3542 29.8452 32.7448 24.6955 28.1851 24.0497C26.6652 23.8345 26.2003 23.6358 25.8784 23.0562C25.4671 22.3276 25.5744 21.7812 26.236 21.1685C27.1122 20.3572 28.042 20.4565 29.4368 21.5328C30.7064 22.5098 32.6912 21.4335 32.3336 19.9432C32.1905 19.3637 31.0998 18.4033 30.009 17.9231L29.2043 17.5588V16.4162C29.2043 15.1578 28.9003 14.4623 28.1851 14.1643C27.595 13.9159 27.0586 13.949 26.4864 14.2636Z" fill="#0D313B"/>
</g>
</g>
</g>
</svg>
