<svg width="72" height="72" viewBox="0 0 72 72" fill="none" xmlns="http://www.w3.org/2000/svg">
<g id="maybank-bank-transfer">
<g id="Group 1171275381">
<g id="Group 1171275122">
<g id="Group 1171275121">
<g id="Group">
<g id="Vector">
<path d="M6.1026 52.9985L14.1818 46.0249V52.928C14.1818 55.8724 16.5759 58.2664 19.5203 58.2664H51.551C54.4954 58.2664 56.8895 55.8724 56.8895 52.928V46.5216H59.0252C59.6133 46.5216 60.0931 47.0004 60.0931 47.5885V60.4012C60.0931 60.9893 59.6133 61.4691 59.0252 61.4691H22.7229C22.1349 61.4691 21.6551 61.9489 21.6551 62.537V65.4734C21.6551 66.0029 21.363 66.4529 20.8713 66.6784C20.3666 66.9119 19.8163 66.8324 19.3951 66.4698L6.1026 54.9922C5.80657 54.7339 5.63969 54.3793 5.63969 53.9949C5.63969 53.6114 5.80657 53.2568 6.1026 52.9985ZM54.7547 20.8962V52.928C54.7547 54.6962 53.3192 56.1306 51.551 56.1306H19.5203C17.752 56.1306 16.3166 54.6962 16.3166 52.928V20.8962C16.3166 19.128 17.752 17.6936 19.5203 17.6936H51.551C53.3192 17.6936 54.7547 19.128 54.7547 20.8962ZM12.046 27.3026C11.4579 27.3026 10.9781 26.8228 10.9781 26.2347V13.422C10.9781 12.8339 11.4579 12.3551 12.046 12.3551H48.3483C48.9364 12.3551 49.4162 11.8753 49.4162 11.2872V8.35078C49.4162 7.8213 49.7083 7.3703 50.2 7.1458C50.7046 6.91633 51.255 6.99083 51.6762 7.35441L64.9687 18.832C65.2647 19.0903 65.4316 19.4449 65.4316 19.8284C65.4316 20.2128 65.2647 20.5664 64.9687 20.8257L56.8895 27.7993V20.8962C56.8895 17.9518 54.4954 15.5578 51.551 15.5578H19.5203C16.5759 15.5578 14.1818 17.9518 14.1818 20.8962V27.3026H12.046ZM18.0014 68.088C18.657 68.6513 19.4617 68.9473 20.2832 68.9473C20.7799 68.9473 21.2845 68.839 21.7594 68.6175C23.015 68.0463 23.7908 66.8413 23.7908 65.4734V63.6049H59.0252C60.7935 63.6049 62.2279 62.1694 62.2279 60.4012V47.5885C62.2279 45.8203 60.7935 44.3858 59.0252 44.3858H56.8895V30.6185L66.3654 22.44C67.1293 21.7804 67.5674 20.8257 67.5674 19.8284C67.5674 18.832 67.1293 17.8764 66.3614 17.2138L53.0699 5.73519C52.0179 4.83022 50.5795 4.62161 49.3119 5.20572C48.0563 5.77691 47.2804 6.98288 47.2804 8.35078V10.2193H12.046C10.2778 10.2193 8.84336 11.6538 8.84336 13.422V26.2347C8.84336 28.0029 10.2778 29.4384 12.046 29.4384H14.1818V43.2057L4.7059 51.3842C3.94199 52.0429 3.50391 52.9985 3.50391 53.9949C3.50391 54.9922 3.94199 55.9469 4.7059 56.6105L18.0014 68.088Z" fill="#4D0000"/>
<path d="M12.046 27.3026C11.4579 27.3026 10.9781 26.8228 10.9781 26.2347V13.422C10.9781 12.8339 11.4579 12.3551 12.046 12.3551H48.3483C48.9364 12.3551 49.4162 11.8753 49.4162 11.2872V8.35078C49.4162 7.8213 49.7083 7.3703 50.2 7.1458C50.7046 6.91633 51.255 6.99083 51.6762 7.35441L64.9687 18.832C65.2647 19.0903 65.4316 19.4449 65.4316 19.8284C65.4316 20.2128 65.2647 20.5664 64.9687 20.8257L56.8895 27.7993V20.8962C56.8895 17.9518 54.4954 15.5578 51.551 15.5578H19.5203C16.5759 15.5578 14.1818 17.9518 14.1818 20.8962V27.3026H12.046Z" fill="#E60000"/>
<path d="M6.1026 52.9985L14.1818 46.0249V52.928C14.1818 55.8724 16.5759 58.2664 19.5203 58.2664H51.551C54.4954 58.2664 56.8895 55.8724 56.8895 52.928V46.5216H59.0252C59.6133 46.5216 60.0931 47.0004 60.0931 47.5885V60.4012C60.0931 60.9893 59.6133 61.4691 59.0252 61.4691H22.7229C22.1349 61.4691 21.6551 61.9489 21.6551 62.537V65.4734C21.6551 66.0029 21.363 66.4529 20.8713 66.6784C20.3666 66.9119 19.8163 66.8324 19.3951 66.4698L6.1026 54.9922C5.80657 54.7339 5.63969 54.3793 5.63969 53.9949C5.63969 53.6114 5.80657 53.2568 6.1026 52.9985Z" fill="#E60000"/>
</g>
</g>
</g>
</g>
<g id="Group 1171275380">
<g id="Vector_2">
<path d="M44.7987 40.3972H27.2013V38.7972H44.7987V40.3972ZM45.5987 52.3952H26.4013V51.5952C26.4013 51.1547 26.7607 50.7952 27.2013 50.7952H44.7987C45.2393 50.7952 45.5987 51.1547 45.5987 51.5952V52.3952ZM29.6006 49.1959H28.0013V41.9965H29.6006V49.1959ZM33.6007 49.1959H31.2006V41.9965H33.6007V49.1959ZM36.8 49.1959H35.2V41.9965H36.8V49.1959ZM40.7994 49.1959H38.3993V41.9965H40.7994V49.1959ZM42.3994 49.1959V41.9965H43.9987V49.1959H42.3994ZM36 31.6201L45.9425 37.1972H26.0575L36 31.6201ZM47.2605 36.1039L36.7062 30.1831C36.2716 29.939 35.7284 29.939 35.2938 30.1831L24.7395 36.1039C24.1583 36.4254 23.8799 37.0759 24.0489 37.7196C24.2171 38.3663 24.7767 38.7972 25.445 38.7972H25.6013V40.3972C25.6013 40.9844 25.9265 41.4972 26.4013 41.7748V49.3425C25.4733 49.6737 24.802 50.5548 24.802 51.5952V52.3952C24.802 53.2764 25.5202 53.9953 26.4013 53.9953H45.5987C46.4798 53.9953 47.198 53.2764 47.198 52.3952V51.5952C47.198 50.5548 46.5267 49.6737 45.5987 49.3425V41.7748C46.0735 41.4972 46.3987 40.9844 46.3987 40.3972V38.7972H46.555C47.2233 38.7972 47.7829 38.3663 47.9511 37.7196C48.1201 37.0759 47.8417 36.4254 47.2605 36.1039Z" fill="#4D0000"/>
<path d="M45.5987 52.3952H26.4013V51.5952C26.4013 51.1547 26.7607 50.7952 27.2013 50.7952H44.7987C45.2393 50.7952 45.5987 51.1547 45.5987 51.5952V52.3952Z" fill="#E60000"/>
<path d="M36 31.6201L45.9425 37.1972H26.0575L36 31.6201Z" fill="#E60000"/>
</g>
<g id="Vector_3">
<mask id="path-3-inside-1_6242_46304" fill="white">
<path d="M36.5518 34.4531C36.223 34.3368 35.8612 34.1975 35.667 34.0446C35.6542 34.0345 35.6304 33.9749 35.6468 33.8861C35.6551 33.843 35.6917 33.7011 35.8291 33.6598C35.9766 33.615 36.1671 33.691 36.3274 33.7826C36.5317 33.8998 36.7909 33.8586 36.9512 33.6846C37.1784 33.4382 37.1097 33.0434 36.812 32.8886C36.7131 32.8373 36.6068 32.7887 36.4951 32.7475C36.4877 32.47 36.2606 32.2465 35.9803 32.2465C35.7192 32.2465 35.5039 32.4416 35.4701 32.6935C35.0405 32.8474 34.7226 33.2257 34.6347 33.6946C34.5486 34.1517 34.7006 34.596 35.0313 34.8552C35.3418 35.0998 35.7806 35.2729 36.2083 35.424C36.4639 35.5147 36.4896 35.6979 36.4667 35.8353C36.441 35.9883 36.3091 36.2494 35.9775 36.2512C35.634 36.253 35.5525 36.2411 35.3015 36.0762C35.0634 35.9205 34.7437 35.9874 34.588 36.2255C34.4322 36.4637 34.4991 36.7825 34.7373 36.9382C35.0148 37.1196 35.2328 37.2084 35.4737 37.2496C35.5168 37.4914 35.7274 37.6746 35.9803 37.6746C36.2541 37.6746 36.4776 37.4603 36.4941 37.191C37.0025 37.0078 37.3891 36.5645 37.4825 36.0057C37.5988 35.315 37.2242 34.6903 36.5518 34.4531Z"/>
</mask>
<path d="M36.5518 34.4531C36.223 34.3368 35.8612 34.1975 35.667 34.0446C35.6542 34.0345 35.6304 33.9749 35.6468 33.8861C35.6551 33.843 35.6917 33.7011 35.8291 33.6598C35.9766 33.615 36.1671 33.691 36.3274 33.7826C36.5317 33.8998 36.7909 33.8586 36.9512 33.6846C37.1784 33.4382 37.1097 33.0434 36.812 32.8886C36.7131 32.8373 36.6068 32.7887 36.4951 32.7475C36.4877 32.47 36.2606 32.2465 35.9803 32.2465C35.7192 32.2465 35.5039 32.4416 35.4701 32.6935C35.0405 32.8474 34.7226 33.2257 34.6347 33.6946C34.5486 34.1517 34.7006 34.596 35.0313 34.8552C35.3418 35.0998 35.7806 35.2729 36.2083 35.424C36.4639 35.5147 36.4896 35.6979 36.4667 35.8353C36.441 35.9883 36.3091 36.2494 35.9775 36.2512C35.634 36.253 35.5525 36.2411 35.3015 36.0762C35.0634 35.9205 34.7437 35.9874 34.588 36.2255C34.4322 36.4637 34.4991 36.7825 34.7373 36.9382C35.0148 37.1196 35.2328 37.2084 35.4737 37.2496C35.5168 37.4914 35.7274 37.6746 35.9803 37.6746C36.2541 37.6746 36.4776 37.4603 36.4941 37.191C37.0025 37.0078 37.3891 36.5645 37.4825 36.0057C37.5988 35.315 37.2242 34.6903 36.5518 34.4531Z" fill="#4D0000" stroke="#4D0000" stroke-width="0.549597" mask="url(#path-3-inside-1_6242_46304)"/>
</g>
</g>
<text id="MAYBANK" fill="#4D0000" xml:space="preserve" style="white-space: pre" font-family="Inter" font-size="7" font-weight="900" letter-spacing="0em"><tspan x="17.3823" y="27.0455">MAYBANK</tspan></text>
</g>
</g>
</svg>
