<svg width="72" height="72" viewBox="0 0 72 72" fill="none" xmlns="http://www.w3.org/2000/svg">
<g id="my-payslips">
<g id="Group 1171275410">
<g id="Group 1171275386">
<g id="Group 1171275092">
<g id="Group 1171275090">
<g id="Ellipse 2542">
<mask id="path-1-outside-1_6242_46328" maskUnits="userSpaceOnUse" x="39.4668" y="39.4666" width="32" height="32" fill="black">
<rect fill="white" x="39.4668" y="39.4666" width="32" height="32"/>
<path d="M55.7335 67.9999C62.5082 67.9999 68.0001 62.5079 68.0001 55.7332C68.0001 48.9585 62.5082 43.4666 55.7335 43.4666C48.9588 43.4666 43.4668 48.9585 43.4668 55.7332C43.4668 62.5079 48.9588 67.9999 55.7335 67.9999Z"/>
</mask>
<path d="M55.7335 67.9999C62.5082 67.9999 68.0001 62.5079 68.0001 55.7332C68.0001 48.9585 62.5082 43.4666 55.7335 43.4666C48.9588 43.4666 43.4668 48.9585 43.4668 55.7332C43.4668 62.5079 48.9588 67.9999 55.7335 67.9999Z" stroke="#0B2D1F" stroke-width="6.27273" mask="url(#path-1-outside-1_6242_46328)"/>
</g>
</g>
</g>
<g id="Group 159080">
<circle id="Ellipse 19" cx="29.2062" cy="18.0262" r="9.7091" fill="#22885E"/>
<g id="Group 159034">
<g id="Subtract">
<path fill-rule="evenodd" clip-rule="evenodd" d="M44.3218 18.2886C44.3218 26.3567 38.3255 32.9159 30.922 32.9159C23.549 32.9159 17.5528 26.3875 17.5222 18.3502C17.5222 10.436 23.5796 4 30.922 4C38.3561 4 44.3218 10.3436 44.3218 18.2886ZM23.1207 18.3194C23.1207 23.5237 26.7001 27.5269 30.922 27.5269C35.1744 27.5269 38.7232 23.4621 38.7232 18.2886C38.7232 13.2383 35.205 9.38902 30.922 9.38902C26.6695 9.38902 23.1207 13.2999 23.1207 18.3194ZM37.7836 61.9243H11.8624C6.56982 61.9243 4 60.2306 4 56.5968C4 48.1284 14.524 36.8576 30.922 36.8576C36.6569 36.8576 41.6733 38.2362 45.7724 40.3913C43.7658 41.1878 41.9657 42.3926 40.4746 43.9032C37.7395 42.8823 34.5445 42.2467 30.922 42.2467C17.461 42.2467 9.90447 51.0231 9.90447 55.7346C9.90447 56.2889 10.1798 56.5353 10.8835 56.5353H36.1235C36.3448 58.4617 36.9204 60.2803 37.7836 61.9243Z" fill="#0B2D1F"/>
<path d="M17.5222 18.3502H17.445L17.445 18.3505L17.5222 18.3502ZM37.7836 61.9243V62.0014H37.9113L37.8519 61.8884L37.7836 61.9243ZM45.7724 40.3913L45.8009 40.4631L45.9568 40.4011L45.8083 40.3231L45.7724 40.3913ZM40.4746 43.9032L40.4477 43.9755L40.4944 43.993L40.5295 43.9574L40.4746 43.9032ZM36.1235 56.5353L36.2002 56.5265L36.1923 56.4581H36.1235V56.5353ZM30.922 32.9931C38.3744 32.9931 44.3989 26.3928 44.3989 18.2886H44.2446C44.2446 26.3207 38.2766 32.8388 30.922 32.8388V32.9931ZM17.445 18.3505C17.4758 26.4238 23.5003 32.9931 30.922 32.9931V32.8388C23.5977 32.8388 17.6298 26.3512 17.5993 18.3499L17.445 18.3505ZM30.922 3.92286C23.5323 3.92286 17.445 10.3983 17.445 18.3502H17.5993C17.5993 10.4738 23.6269 4.07714 30.922 4.07714V3.92286ZM44.3989 18.2886C44.3989 10.3057 38.4032 3.92286 30.922 3.92286V4.07714C38.3089 4.07714 44.2446 10.3816 44.2446 18.2886H44.3989ZM30.922 27.4498C26.7531 27.4498 23.1978 23.4922 23.1978 18.3194H23.0436C23.0436 23.5551 26.6471 27.6041 30.922 27.6041V27.4498ZM38.6461 18.2886C38.6461 23.4314 35.1208 27.4498 30.922 27.4498V27.6041C35.228 27.6041 38.8004 23.4927 38.8004 18.2886H38.6461ZM30.922 9.46616C35.154 9.46616 38.6461 13.272 38.6461 18.2886H38.8004C38.8004 13.2046 35.256 9.31188 30.922 9.31188V9.46616ZM23.1978 18.3194C23.1978 13.3333 26.7208 9.46616 30.922 9.46616V9.31188C26.6182 9.31188 23.0436 13.2665 23.0436 18.3194H23.1978ZM11.8624 62.0014H37.7836V61.8471H11.8624V62.0014ZM3.92286 56.5968C3.92286 58.4347 4.57444 59.7928 5.90341 60.6872C7.22642 61.5776 9.21061 62.0014 11.8624 62.0014V61.8471C9.22164 61.8471 7.27461 61.4241 5.98956 60.5592C4.71047 59.6984 4.07714 58.3928 4.07714 56.5968H3.92286ZM30.922 36.7805C22.705 36.7805 15.9571 39.6045 11.2626 43.4921C6.57024 47.378 3.92286 52.3327 3.92286 56.5968H4.07714C4.07714 52.3925 6.69177 47.4776 11.361 43.611C16.0279 39.7461 22.741 36.9348 30.922 36.9348V36.7805ZM45.8083 40.3231C41.6982 38.1621 36.6694 36.7805 30.922 36.7805V36.9348C36.6443 36.9348 41.6485 38.3103 45.7365 40.4596L45.8083 40.3231ZM40.5295 43.9574C42.0132 42.4543 43.8044 41.2555 45.8009 40.4631L45.744 40.3196C43.7273 41.1201 41.9182 42.331 40.4197 43.849L40.5295 43.9574ZM30.922 42.3238C34.5354 42.3238 37.7212 42.9578 40.4477 43.9755L40.5016 43.831C37.7578 42.8068 34.5537 42.1695 30.922 42.1695V42.3238ZM9.98162 55.7346C9.98162 54.5758 10.447 53.1579 11.3611 51.68C12.2746 50.2032 13.6334 48.6711 15.4128 47.2846C18.971 44.5121 24.2087 42.3238 30.922 42.3238V42.1695C24.1742 42.1695 18.9032 44.3694 15.3179 47.1629C13.5256 48.5595 12.1539 50.105 11.2299 51.5988C10.3065 53.0916 9.82733 54.5377 9.82733 55.7346H9.98162ZM10.8835 56.4581C10.5375 56.4581 10.3153 56.3969 10.1795 56.2836C10.0473 56.1732 9.98162 55.9998 9.98162 55.7346H9.82733C9.82733 56.0237 9.89935 56.2507 10.0807 56.402C10.2585 56.5504 10.5258 56.6124 10.8835 56.6124V56.4581ZM36.1235 56.4581H10.8835V56.6124H36.1235V56.4581ZM37.8519 61.8884C36.9931 60.2527 36.4203 58.4432 36.2002 56.5265L36.0469 56.5441C36.2692 58.4801 36.8478 60.3079 37.7153 61.9601L37.8519 61.8884Z" fill="#0B2D1F"/>
</g>
</g>
</g>
</g>
<g id="Group 1171275409">
<g id="Group">
<g id="Vector">
<path d="M62.8388 61.9959C62.6617 62.3009 62.331 62.5067 61.9525 62.5067H51.5064C51.0993 62.5067 50.748 62.2686 50.5819 61.9247L50.4842 61.5329C50.4834 61.5175 50.4834 61.5013 50.4834 61.4852V49.0423C50.4834 48.4801 50.942 48.0208 51.5064 48.0208H58.8497V49.8963C58.8497 51.0347 59.7772 51.9599 60.9185 51.9599H62.977V61.4852C62.977 61.6718 62.9263 61.8453 62.8388 61.9959ZM52.3428 64.7137C52.0767 64.7805 51.8019 64.7394 51.5667 64.5997C51.333 64.4594 51.1662 64.2374 51.0993 63.9729L50.9692 63.4562C51.1405 63.5033 51.3205 63.5275 51.5064 63.5275H57.0653L52.3428 64.7137ZM62.7793 51.0207H60.9185C60.2968 51.0207 59.7911 50.5158 59.7911 49.8963V48.0208H59.8404L62.7793 51.0207ZM49.459 57.4696L48.0553 51.907C47.9171 51.3603 48.2508 50.8047 48.7983 50.6665L49.459 50.5011V57.4696ZM62.977 49.8772L61.1581 48.0208L60.1564 47H51.5064C50.3784 47 49.459 47.9157 49.459 49.0423V49.4473L48.5484 49.6758C47.4534 49.9507 46.7861 51.0641 47.0624 52.1562L49.47 61.6998C49.4906 61.8945 49.5391 62.0812 49.6111 62.2561L50.1057 64.2213C50.2395 64.7504 50.5724 65.1972 51.0412 65.4765C51.3639 65.669 51.7232 65.7661 52.0892 65.7661C52.2561 65.7661 52.4258 65.7469 52.5926 65.7043L61.2624 63.5275L62.722 63.1608C63.0586 63.077 63.3621 62.9131 63.609 62.6846C63.8552 62.348 64 61.9335 64 61.4852V50.9222L62.977 49.8772Z" fill="#0B2D1F"/>
<path d="M62.8388 61.9959C62.6617 62.3009 62.331 62.5067 61.9525 62.5067H51.5064C51.0993 62.5067 50.748 62.2686 50.5819 61.9247L50.4842 61.5329C50.4834 61.5175 50.4834 61.5013 50.4834 61.4852V49.0423C50.4834 48.4801 50.942 48.0208 51.5064 48.0208H58.8497V49.8963C58.8497 51.0347 59.7772 51.9599 60.9185 51.9599H62.977V61.4852C62.977 61.6718 62.9263 61.8453 62.8388 61.9959Z" fill="#22885E"/>
</g>
</g>
<path id="Vector_2" d="M52.5273 58.1589V58.86H55.1128V58.1589H52.5273Z" fill="#0B2D1F"/>
<path id="Vector_3" d="M56.415 58.1589V58.8615H60.9737V58.1589H56.415Z" fill="#0B2D1F"/>
<path id="Vector_4" d="M60.9741 56.3828V57.0839H58.3887V56.3828H60.9741Z" fill="#0B2D1F"/>
<path id="Vector_5" d="M57.0868 56.3828V57.0839H52.5273V56.3828H57.0868Z" fill="#0B2D1F"/>
<path id="Vector_6" d="M52.5967 60.1199V60.8202H57.9741V60.1199H52.5967Z" fill="#0B2D1F"/>
<path id="Vector_7" d="M59.2744 60.1199V60.8202H61.0441V60.1199H59.2744Z" fill="#0B2D1F"/>
<path id="Vector_8" d="M55.4182 52.1238C55.1933 51.9635 54.9471 51.8577 54.7083 51.7548C54.4988 51.6652 54.3334 51.5799 54.1872 51.4888C54.0314 51.391 53.9697 51.2389 54.002 51.0368C54.0314 50.8546 54.1402 50.7318 54.3357 50.6657C54.5385 50.5951 54.7516 50.6157 54.9508 50.648C55.1264 50.6774 55.2888 50.737 55.4454 50.8296L55.5586 50.8972L55.646 50.6804C55.6908 50.5694 55.7342 50.4614 55.7746 50.3533C55.8047 50.2769 55.7511 50.1806 55.6879 50.1534L55.6063 50.116C55.5086 50.0704 55.4086 50.0234 55.2999 49.9954C55.1845 49.9646 55.0654 49.9469 54.9508 49.9308C54.9324 49.9271 54.9126 49.9249 54.8935 49.9212V49.4692H54.2408V49.9616L54.2357 49.9631C54.0064 50.0153 53.8028 50.1101 53.6279 50.246C53.3494 50.4614 53.1804 50.8038 53.1752 51.1617C53.1715 51.502 53.3163 51.8195 53.5735 52.0289C53.8264 52.234 54.1071 52.3611 54.3232 52.4486C54.5326 52.5338 54.7193 52.6139 54.8802 52.7411C55.0573 52.8829 55.1448 53.088 55.1161 53.2901C55.0882 53.4855 54.9567 53.6436 54.759 53.7237C54.6598 53.7633 54.5451 53.7869 54.4246 53.7913C54.1306 53.8016 53.8381 53.731 53.5368 53.5693L53.3149 53.451L53.2318 53.6906C53.1987 53.7839 53.1679 53.8751 53.1333 53.964C53.0973 54.0603 53.126 54.1418 53.2134 54.194C53.3964 54.2998 53.5934 54.3755 53.7992 54.416C53.905 54.4365 54.0116 54.4505 54.1218 54.4637L54.1703 54.4718V54.9414H54.8516V54.4321C54.8641 54.4284 54.878 54.4248 54.8912 54.4211C54.9794 54.3961 55.0654 54.3704 55.1477 54.3358C55.6063 54.1418 55.8826 53.7964 55.9451 53.3371C56.0149 52.8388 55.8327 52.4192 55.4182 52.1238Z" fill="#0B2D1F"/>
</g>
</g>
</g>
</svg>
