<svg width="72" height="72" viewBox="0 0 72 72" fill="none" xmlns="http://www.w3.org/2000/svg">
<g id="my-spt">
<g id="Group 1171275385">
<g id="Group 1171275092">
<g id="Group 1171275090">
<g id="Ellipse 2542">
<mask id="path-1-outside-1_6242_46483" maskUnits="userSpaceOnUse" x="39.4668" y="39.4667" width="32" height="32" fill="black">
<rect fill="white" x="39.4668" y="39.4667" width="32" height="32"/>
<path d="M55.7335 68C62.5082 68 68.0001 62.508 68.0001 55.7333C68.0001 48.9586 62.5082 43.4667 55.7335 43.4667C48.9588 43.4667 43.4668 48.9586 43.4668 55.7333C43.4668 62.508 48.9588 68 55.7335 68Z"/>
</mask>
<path d="M55.7335 68C62.5082 68 68.0001 62.508 68.0001 55.7333C68.0001 48.9586 62.5082 43.4667 55.7335 43.4667C48.9588 43.4667 43.4668 48.9586 43.4668 55.7333C43.4668 62.508 48.9588 68 55.7335 68Z" stroke="#4D0000" stroke-width="6.27273" mask="url(#path-1-outside-1_6242_46483)"/>
</g>
</g>
</g>
<g id="Group 159080">
<circle id="Ellipse 19" cx="29.2062" cy="18.0262" r="9.7091" fill="#E60000"/>
<g id="Group 159034">
<g id="Subtract">
<path fill-rule="evenodd" clip-rule="evenodd" d="M44.3218 18.2886C44.3218 26.3567 38.3255 32.9159 30.922 32.9159C23.549 32.9159 17.5528 26.3875 17.5222 18.3502C17.5222 10.436 23.5796 4 30.922 4C38.3561 4 44.3218 10.3436 44.3218 18.2886ZM23.1207 18.3194C23.1207 23.5237 26.7001 27.5269 30.922 27.5269C35.1744 27.5269 38.7232 23.4621 38.7232 18.2886C38.7232 13.2383 35.205 9.38902 30.922 9.38902C26.6695 9.38902 23.1207 13.2999 23.1207 18.3194ZM37.7836 61.9243H11.8624C6.56982 61.9243 4 60.2306 4 56.5968C4 48.1284 14.524 36.8576 30.922 36.8576C36.6569 36.8576 41.6733 38.2362 45.7724 40.3913C43.7658 41.1878 41.9657 42.3926 40.4746 43.9032C37.7395 42.8823 34.5445 42.2467 30.922 42.2467C17.461 42.2467 9.90447 51.0231 9.90447 55.7346C9.90447 56.2889 10.1798 56.5353 10.8835 56.5353H36.1235C36.3448 58.4617 36.9204 60.2803 37.7836 61.9243Z" fill="#4D0000"/>
<path d="M17.5222 18.3502H17.445L17.445 18.3505L17.5222 18.3502ZM37.7836 61.9243V62.0014H37.9113L37.8519 61.8884L37.7836 61.9243ZM45.7724 40.3913L45.8009 40.4631L45.9568 40.4011L45.8083 40.3231L45.7724 40.3913ZM40.4746 43.9032L40.4477 43.9755L40.4944 43.993L40.5295 43.9574L40.4746 43.9032ZM36.1235 56.5353L36.2002 56.5265L36.1923 56.4581H36.1235V56.5353ZM30.922 32.9931C38.3744 32.9931 44.3989 26.3928 44.3989 18.2886H44.2446C44.2446 26.3207 38.2766 32.8388 30.922 32.8388V32.9931ZM17.445 18.3505C17.4758 26.4238 23.5003 32.9931 30.922 32.9931V32.8388C23.5977 32.8388 17.6298 26.3512 17.5993 18.3499L17.445 18.3505ZM30.922 3.92286C23.5323 3.92286 17.445 10.3983 17.445 18.3502H17.5993C17.5993 10.4738 23.6269 4.07714 30.922 4.07714V3.92286ZM44.3989 18.2886C44.3989 10.3057 38.4032 3.92286 30.922 3.92286V4.07714C38.3089 4.07714 44.2446 10.3816 44.2446 18.2886H44.3989ZM30.922 27.4498C26.7531 27.4498 23.1978 23.4922 23.1978 18.3194H23.0436C23.0436 23.5551 26.6471 27.6041 30.922 27.6041V27.4498ZM38.6461 18.2886C38.6461 23.4314 35.1208 27.4498 30.922 27.4498V27.6041C35.228 27.6041 38.8004 23.4927 38.8004 18.2886H38.6461ZM30.922 9.46616C35.154 9.46616 38.6461 13.272 38.6461 18.2886H38.8004C38.8004 13.2046 35.256 9.31188 30.922 9.31188V9.46616ZM23.1978 18.3194C23.1978 13.3333 26.7208 9.46616 30.922 9.46616V9.31188C26.6182 9.31188 23.0436 13.2665 23.0436 18.3194H23.1978ZM11.8624 62.0014H37.7836V61.8471H11.8624V62.0014ZM3.92286 56.5968C3.92286 58.4347 4.57444 59.7928 5.90341 60.6872C7.22642 61.5776 9.21061 62.0014 11.8624 62.0014V61.8471C9.22164 61.8471 7.27461 61.4241 5.98956 60.5592C4.71047 59.6984 4.07714 58.3928 4.07714 56.5968H3.92286ZM30.922 36.7805C22.705 36.7805 15.9571 39.6045 11.2626 43.4921C6.57024 47.378 3.92286 52.3327 3.92286 56.5968H4.07714C4.07714 52.3925 6.69177 47.4776 11.361 43.611C16.0279 39.7461 22.741 36.9348 30.922 36.9348V36.7805ZM45.8083 40.3231C41.6982 38.1621 36.6694 36.7805 30.922 36.7805V36.9348C36.6443 36.9348 41.6485 38.3103 45.7365 40.4596L45.8083 40.3231ZM40.5295 43.9574C42.0132 42.4543 43.8044 41.2555 45.8009 40.4631L45.744 40.3196C43.7273 41.1201 41.9182 42.331 40.4197 43.849L40.5295 43.9574ZM30.922 42.3238C34.5354 42.3238 37.7212 42.9578 40.4477 43.9755L40.5016 43.831C37.7578 42.8068 34.5537 42.1695 30.922 42.1695V42.3238ZM9.98162 55.7346C9.98162 54.5758 10.447 53.1579 11.3611 51.68C12.2746 50.2032 13.6334 48.6711 15.4128 47.2846C18.971 44.5121 24.2087 42.3238 30.922 42.3238V42.1695C24.1742 42.1695 18.9032 44.3694 15.3179 47.1629C13.5256 48.5595 12.1539 50.105 11.2299 51.5988C10.3065 53.0916 9.82733 54.5377 9.82733 55.7346H9.98162ZM10.8835 56.4581C10.5375 56.4581 10.3153 56.3969 10.1795 56.2836C10.0473 56.1732 9.98162 55.9998 9.98162 55.7346H9.82733C9.82733 56.0237 9.89935 56.2507 10.0807 56.402C10.2585 56.5504 10.5258 56.6124 10.8835 56.6124V56.4581ZM36.1235 56.4581H10.8835V56.6124H36.1235V56.4581ZM37.8519 61.8884C36.9931 60.2527 36.4203 58.4432 36.2002 56.5265L36.0469 56.5441C36.2692 58.4801 36.8478 60.3079 37.7153 61.9601L37.8519 61.8884Z" fill="#4D0000"/>
</g>
</g>
</g>
<g id="Group 1171275320">
<g id="Group">
<g id="Vector">
<mask id="path-5-outside-2_6242_46483" maskUnits="userSpaceOnUse" x="46.7334" y="46.7334" width="19" height="19" fill="black">
<rect fill="white" x="46.7334" y="46.7334" width="19" height="19"/>
<path fill-rule="evenodd" clip-rule="evenodd" d="M49.2175 61.0901H48.8464C48.5512 61.0901 48.2679 61.2074 48.0595 61.4162C47.8506 61.6248 47.7334 61.9079 47.7334 62.2033V62.9453C47.7334 63.9697 48.5641 64.8004 49.5885 64.8004H59.9768C60.4688 64.8004 60.9407 64.6049 61.2887 64.2572C61.6364 63.9092 61.8319 63.4372 61.8319 62.9453V51.4435H63.687C64.3018 51.4435 64.8001 50.9452 64.8001 50.3305V49.5885C64.8001 49.0964 64.6046 48.6246 64.2569 48.2764C63.9089 47.9289 63.4369 47.7334 62.945 47.7334H51.0724C50.5803 47.7334 50.1085 47.9289 49.7605 48.2764C49.4128 48.6246 49.2173 49.0964 49.2173 49.5885L49.2175 61.0901ZM49.9594 61.0901H57.7507C58.0461 61.0901 58.3292 61.2074 58.5378 61.4162C58.7467 61.6248 58.8639 61.9079 58.8639 62.2033V62.9453C58.8639 63.2407 58.9811 63.5237 59.19 63.7322C59.3984 63.9411 59.6816 64.0583 59.9769 64.0583C60.2723 64.0583 60.5554 63.9411 60.7638 63.7322C60.9727 63.5237 61.0899 63.2407 61.0899 62.9453V49.5888C61.0899 49.1852 61.2217 48.7947 61.461 48.4756H51.0727C50.7773 48.4756 50.4942 48.5929 50.2858 48.8017C50.0768 49.0103 49.9595 49.2934 49.9595 49.5888L49.9594 61.0901ZM57.7507 61.8322H48.8463C48.748 61.8322 48.6534 61.8712 48.584 61.9409C48.5143 62.0103 48.4753 62.1049 48.4753 62.2033V62.9452C48.4753 63.56 48.9735 64.0583 49.5884 64.0583H58.4929C58.2536 63.7392 58.1218 63.3489 58.1218 62.9452V62.2033C58.1218 62.1049 58.0829 62.0103 58.0131 61.9409C57.9438 61.8712 57.8491 61.8322 57.7507 61.8322ZM62.9451 48.4754C62.6498 48.4754 62.3666 48.5926 62.1582 48.8015C61.9493 49.0101 61.832 49.2932 61.832 49.5886V50.7016H63.6872C63.8919 50.7016 64.0581 50.5353 64.0581 50.3306V49.5886C64.0581 49.2932 63.9408 49.0101 63.732 48.8016C63.5235 48.5927 63.2405 48.4754 62.9451 48.4754Z"/>
<path d="M49.9594 61.0901H57.7507C58.0461 61.0901 58.3292 61.2074 58.5378 61.4162C58.7467 61.6248 58.8639 61.9079 58.8639 62.2033V62.9453C58.8639 63.2407 58.9811 63.5237 59.19 63.7322C59.3984 63.9411 59.6816 64.0583 59.9769 64.0583C60.2723 64.0583 60.5554 63.9411 60.7638 63.7322C60.9727 63.5237 61.0899 63.2407 61.0899 62.9453V49.5888C61.0899 49.1852 61.2217 48.7947 61.461 48.4756H51.0727C50.7773 48.4756 50.4942 48.5929 50.2858 48.8017C50.0768 49.0103 49.9595 49.2934 49.9595 49.5888L49.9594 61.0901Z"/>
</mask>
<path fill-rule="evenodd" clip-rule="evenodd" d="M49.2175 61.0901H48.8464C48.5512 61.0901 48.2679 61.2074 48.0595 61.4162C47.8506 61.6248 47.7334 61.9079 47.7334 62.2033V62.9453C47.7334 63.9697 48.5641 64.8004 49.5885 64.8004H59.9768C60.4688 64.8004 60.9407 64.6049 61.2887 64.2572C61.6364 63.9092 61.8319 63.4372 61.8319 62.9453V51.4435H63.687C64.3018 51.4435 64.8001 50.9452 64.8001 50.3305V49.5885C64.8001 49.0964 64.6046 48.6246 64.2569 48.2764C63.9089 47.9289 63.4369 47.7334 62.945 47.7334H51.0724C50.5803 47.7334 50.1085 47.9289 49.7605 48.2764C49.4128 48.6246 49.2173 49.0964 49.2173 49.5885L49.2175 61.0901ZM49.9594 61.0901H57.7507C58.0461 61.0901 58.3292 61.2074 58.5378 61.4162C58.7467 61.6248 58.8639 61.9079 58.8639 62.2033V62.9453C58.8639 63.2407 58.9811 63.5237 59.19 63.7322C59.3984 63.9411 59.6816 64.0583 59.9769 64.0583C60.2723 64.0583 60.5554 63.9411 60.7638 63.7322C60.9727 63.5237 61.0899 63.2407 61.0899 62.9453V49.5888C61.0899 49.1852 61.2217 48.7947 61.461 48.4756H51.0727C50.7773 48.4756 50.4942 48.5929 50.2858 48.8017C50.0768 49.0103 49.9595 49.2934 49.9595 49.5888L49.9594 61.0901ZM57.7507 61.8322H48.8463C48.748 61.8322 48.6534 61.8712 48.584 61.9409C48.5143 62.0103 48.4753 62.1049 48.4753 62.2033V62.9452C48.4753 63.56 48.9735 64.0583 49.5884 64.0583H58.4929C58.2536 63.7392 58.1218 63.3489 58.1218 62.9452V62.2033C58.1218 62.1049 58.0829 62.0103 58.0131 61.9409C57.9438 61.8712 57.8491 61.8322 57.7507 61.8322ZM62.9451 48.4754C62.6498 48.4754 62.3666 48.5926 62.1582 48.8015C61.9493 49.0101 61.832 49.2932 61.832 49.5886V50.7016H63.6872C63.8919 50.7016 64.0581 50.5353 64.0581 50.3306V49.5886C64.0581 49.2932 63.9408 49.0101 63.732 48.8016C63.5235 48.5927 63.2405 48.4754 62.9451 48.4754Z" fill="#4D0000"/>
<path d="M49.9594 61.0901H57.7507C58.0461 61.0901 58.3292 61.2074 58.5378 61.4162C58.7467 61.6248 58.8639 61.9079 58.8639 62.2033V62.9453C58.8639 63.2407 58.9811 63.5237 59.19 63.7322C59.3984 63.9411 59.6816 64.0583 59.9769 64.0583C60.2723 64.0583 60.5554 63.9411 60.7638 63.7322C60.9727 63.5237 61.0899 63.2407 61.0899 62.9453V49.5888C61.0899 49.1852 61.2217 48.7947 61.461 48.4756H51.0727C50.7773 48.4756 50.4942 48.5929 50.2858 48.8017C50.0768 49.0103 49.9595 49.2934 49.9595 49.5888L49.9594 61.0901Z" fill="#E60000"/>
<path d="M49.9594 61.0901L49.9208 61.0901L49.9208 61.1287H49.9594V61.0901ZM58.5378 61.4162L58.5105 61.4435L58.5105 61.4435L58.5378 61.4162ZM59.19 63.7322L59.2173 63.7049L59.2173 63.7049L59.19 63.7322ZM60.7638 63.7322L60.7366 63.7049L60.7365 63.7049L60.7638 63.7322ZM61.461 48.4756L61.4919 48.4988L61.5381 48.4371H61.461V48.4756ZM50.2858 48.8017L50.313 48.829L50.3131 48.829L50.2858 48.8017ZM49.9595 49.5888L49.9981 49.5888V49.5888H49.9595ZM49.9594 61.1287H57.7507V61.0516H49.9594V61.1287ZM57.7507 61.1287C58.0359 61.1287 58.3092 61.2419 58.5105 61.4435L58.5651 61.389C58.3493 61.1728 58.0564 61.0516 57.7507 61.0516V61.1287ZM58.5105 61.4435C58.7122 61.6449 58.8253 61.9181 58.8253 62.2033H58.9025C58.9025 61.8977 58.7812 61.6048 58.5651 61.3889L58.5105 61.4435ZM58.8253 62.2033V62.9453H58.9025V62.2033H58.8253ZM58.8253 62.9453C58.8253 63.2509 58.9466 63.5438 59.1628 63.7595L59.2173 63.7049C59.0156 63.5037 58.9025 63.2304 58.9025 62.9453H58.8253ZM59.1627 63.7594C59.3784 63.9756 59.6714 64.0968 59.9769 64.0968V64.0197C59.6919 64.0197 59.4185 63.9065 59.2173 63.7049L59.1627 63.7594ZM59.9769 64.0968C60.2825 64.0968 60.5754 63.9756 60.7911 63.7594L60.7365 63.7049C60.5353 63.9065 60.2621 64.0197 59.9769 64.0197V64.0968ZM60.7911 63.7595C61.0072 63.5438 61.1285 63.2509 61.1285 62.9453H61.0514C61.0514 63.2305 60.9382 63.5037 60.7366 63.7049L60.7911 63.7595ZM61.1285 62.9453V49.5888H61.0514V62.9453H61.1285ZM61.1285 49.5888C61.1285 49.1936 61.2575 48.8112 61.4919 48.4988L61.4301 48.4525C61.1859 48.7782 61.0514 49.1768 61.0514 49.5888H61.1285ZM61.461 48.4371H51.0727V48.5142H61.461V48.4371ZM51.0727 48.4371C50.7671 48.4371 50.4742 48.5583 50.2585 48.7745L50.3131 48.829C50.5143 48.6274 50.7875 48.5142 51.0727 48.5142V48.4371ZM50.2585 48.7744C50.0422 48.9903 49.921 49.2832 49.921 49.5888H49.9981C49.9981 49.3036 50.1113 49.0304 50.313 48.829L50.2585 48.7744ZM49.921 49.5888L49.9208 61.0901L49.998 61.0901L49.9981 49.5888L49.921 49.5888ZM49.2175 61.0901V61.1673H49.2946L49.2946 61.0901L49.2175 61.0901ZM48.0595 61.4162L48.114 61.4708L48.1141 61.4707L48.0595 61.4162ZM61.2887 64.2572L61.3433 64.3117L61.3433 64.3117L61.2887 64.2572ZM61.8319 51.4435V51.3663H61.7548V51.4435H61.8319ZM64.2569 48.2764L64.3115 48.2219L64.3114 48.2219L64.2569 48.2764ZM49.7605 48.2764L49.706 48.2219L49.7059 48.2219L49.7605 48.2764ZM49.2173 49.5885H49.1401V49.5885L49.2173 49.5885ZM48.584 61.9409L48.6384 61.9956L48.6386 61.9954L48.584 61.9409ZM58.4929 64.0583V64.1354H58.6471L58.5546 64.012L58.4929 64.0583ZM58.0131 61.9409L57.9584 61.9953L57.9587 61.9957L58.0131 61.9409ZM62.1582 48.8015L62.2127 48.8561L62.2128 48.856L62.1582 48.8015ZM61.8321 50.7016H61.7549V50.7788H61.8321V50.7016ZM63.732 48.8016L63.6774 48.856L63.6775 48.8561L63.732 48.8016ZM49.2175 61.013H48.8464V61.1673H49.2175V61.013ZM48.8464 61.013C48.5307 61.013 48.2278 61.1383 48.0049 61.3618L48.1141 61.4707C48.308 61.2764 48.5716 61.1673 48.8464 61.1673V61.013ZM48.005 61.3617C47.7816 61.5847 47.6563 61.8874 47.6563 62.2033H47.8105C47.8105 61.9283 47.9196 61.6649 48.114 61.4708L48.005 61.3617ZM47.6563 62.2033V62.9453H47.8105V62.2033H47.6563ZM47.6563 62.9453C47.6563 64.0123 48.5215 64.8775 49.5885 64.8775V64.7232C48.6067 64.7232 47.8105 63.9271 47.8105 62.9453H47.6563ZM49.5885 64.8775H59.9768V64.7232H49.5885V64.8775ZM59.9768 64.8775C60.4892 64.8775 60.9808 64.6739 61.3433 64.3117L61.2342 64.2026C60.9007 64.5358 60.4483 64.7232 59.9768 64.7232V64.8775ZM61.3433 64.3117C61.7054 63.9492 61.9091 63.4577 61.9091 62.9453H61.7548C61.7548 63.4167 61.5674 63.8691 61.2342 64.2026L61.3433 64.3117ZM61.9091 62.9453V51.4435H61.7548V62.9453H61.9091ZM61.8319 51.5206H63.687V51.3663H61.8319V51.5206ZM63.687 51.5206C64.3444 51.5206 64.8772 50.9878 64.8772 50.3305H64.7229C64.7229 50.9026 64.2592 51.3663 63.687 51.3663V51.5206ZM64.8772 50.3305V49.5885H64.7229V50.3305H64.8772ZM64.8772 49.5885C64.8772 49.0759 64.6736 48.5845 64.3115 48.2219L64.2023 48.331C64.5355 48.6647 64.7229 49.1169 64.7229 49.5885H64.8772ZM64.3114 48.2219C63.9489 47.8599 63.4574 47.6563 62.945 47.6563V47.8105C63.4164 47.8105 63.8688 47.9979 64.2024 48.331L64.3114 48.2219ZM62.945 47.6563H51.0724V47.8105H62.945V47.6563ZM51.0724 47.6563C50.5598 47.6563 50.0684 47.8599 49.706 48.2219L49.815 48.331C50.1485 47.9979 50.6008 47.8105 51.0724 47.8105V47.6563ZM49.7059 48.2219C49.3438 48.5845 49.1401 49.076 49.1401 49.5885H49.2944C49.2944 49.1169 49.4818 48.6647 49.8151 48.331L49.7059 48.2219ZM49.1401 49.5885L49.1403 61.0901L49.2946 61.0901L49.2944 49.5885L49.1401 49.5885ZM57.7507 61.7551H48.8463V61.9094H57.7507V61.7551ZM48.8463 61.7551C48.7277 61.7551 48.6134 61.8021 48.5293 61.8865L48.6386 61.9954C48.6935 61.9403 48.7684 61.9094 48.8463 61.9094V61.7551ZM48.5295 61.8863C48.4453 61.9702 48.3981 62.0845 48.3981 62.2033H48.5524C48.5524 62.1252 48.5834 62.0504 48.6384 61.9956L48.5295 61.8863ZM48.3981 62.2033V62.9452H48.5524V62.2033H48.3981ZM48.3981 62.9452C48.3981 63.6026 48.9309 64.1354 49.5884 64.1354V63.9811C49.0161 63.9811 48.5524 63.5174 48.5524 62.9452H48.3981ZM49.5884 64.1354H58.4929V63.9811H49.5884V64.1354ZM58.5546 64.012C58.3252 63.7062 58.1989 63.3321 58.1989 62.9452H58.0447C58.0447 63.3657 58.1819 63.7722 58.4311 64.1045L58.5546 64.012ZM58.1989 62.9452V62.2033H58.0447V62.9452H58.1989ZM58.1989 62.2033C58.1989 62.0846 58.152 61.9702 58.0675 61.8862L57.9587 61.9957C58.0138 62.0503 58.0447 62.1252 58.0447 62.2033H58.1989ZM58.0678 61.8866C57.9838 61.802 57.8695 61.7551 57.7507 61.7551V61.9094C57.8288 61.9094 57.9037 61.9403 57.9584 61.9953L58.0678 61.8866ZM62.9451 48.3983C62.6294 48.3983 62.3265 48.5236 62.1035 48.747L62.2128 48.856C62.4067 48.6617 62.6702 48.5526 62.9451 48.5526V48.3983ZM62.1036 48.7469C61.8802 48.97 61.7549 49.2727 61.7549 49.5886H61.9092C61.9092 49.3136 62.0183 49.0502 62.2127 48.8561L62.1036 48.7469ZM61.7549 49.5886V50.7016H61.9092V49.5886H61.7549ZM61.8321 50.7788H63.6872V50.6245H61.8321V50.7788ZM63.6872 50.7788C63.9346 50.7788 64.1352 50.5779 64.1352 50.3306H63.9809C63.9809 50.4928 63.8493 50.6245 63.6872 50.6245V50.7788ZM64.1352 50.3306V49.5886H63.9809V50.3306H64.1352ZM64.1352 49.5886C64.1352 49.2728 64.0099 48.9701 63.7865 48.747L63.6775 48.8561C63.8718 49.0502 63.9809 49.3137 63.9809 49.5886H64.1352ZM63.7866 48.7471C63.5636 48.5236 63.2609 48.3983 62.9451 48.3983V48.5526C63.22 48.5526 63.4834 48.6617 63.6774 48.856L63.7866 48.7471Z" fill="#4D0000" mask="url(#path-5-outside-2_6242_46483)"/>
</g>
<g id="Vector_2">
<mask id="path-7-outside-3_6242_46483" maskUnits="userSpaceOnUse" x="51.9277" y="49.702" width="4" height="4" fill="black">
<rect fill="white" x="51.9277" y="49.702" width="4" height="4"/>
<path fill-rule="evenodd" clip-rule="evenodd" d="M54.0409 50.702C53.4264 50.702 52.9277 51.2007 52.9277 51.8151C52.9277 52.4295 53.4264 52.9281 54.0409 52.9281C54.6552 52.9281 55.1539 52.4295 55.1539 51.8151C55.1539 51.2007 54.6552 50.702 54.0409 50.702ZM54.0409 51.444C54.2457 51.444 54.412 51.6103 54.412 51.815C54.412 52.0198 54.2457 52.1861 54.0409 52.1861C53.8361 52.1861 53.6699 52.0198 53.6699 51.815C53.6699 51.6103 53.8361 51.444 54.0409 51.444Z"/>
</mask>
<path fill-rule="evenodd" clip-rule="evenodd" d="M54.0409 50.702C53.4264 50.702 52.9277 51.2007 52.9277 51.8151C52.9277 52.4295 53.4264 52.9281 54.0409 52.9281C54.6552 52.9281 55.1539 52.4295 55.1539 51.8151C55.1539 51.2007 54.6552 50.702 54.0409 50.702ZM54.0409 51.444C54.2457 51.444 54.412 51.6103 54.412 51.815C54.412 52.0198 54.2457 52.1861 54.0409 52.1861C53.8361 52.1861 53.6699 52.0198 53.6699 51.815C53.6699 51.6103 53.8361 51.444 54.0409 51.444Z" fill="#4D0000"/>
<path fill-rule="evenodd" clip-rule="evenodd" d="M54.0409 50.702C53.4264 50.702 52.9277 51.2007 52.9277 51.8151C52.9277 52.4295 53.4264 52.9281 54.0409 52.9281C54.6552 52.9281 55.1539 52.4295 55.1539 51.8151C55.1539 51.2007 54.6552 50.702 54.0409 50.702ZM54.0409 51.444C54.2457 51.444 54.412 51.6103 54.412 51.815C54.412 52.0198 54.2457 52.1861 54.0409 52.1861C53.8361 52.1861 53.6699 52.0198 53.6699 51.815C53.6699 51.6103 53.8361 51.444 54.0409 51.444Z" stroke="#4D0000" stroke-width="0.154288" mask="url(#path-7-outside-3_6242_46483)"/>
</g>
<g id="Vector_3">
<mask id="path-8-outside-4_6242_46483" maskUnits="userSpaceOnUse" x="54.8955" y="52.6698" width="4" height="4" fill="black">
<rect fill="white" x="54.8955" y="52.6698" width="4" height="4"/>
<path fill-rule="evenodd" clip-rule="evenodd" d="M57.0085 53.6698C56.3941 53.6698 55.8955 54.1685 55.8955 54.7828C55.8955 55.3973 56.3941 55.896 57.0085 55.896C57.623 55.896 58.1216 55.3973 58.1216 54.7828C58.1216 54.1685 57.623 53.6698 57.0085 53.6698ZM57.0085 54.4119C57.2133 54.4119 57.3796 54.578 57.3796 54.7828C57.3796 54.9877 57.2133 55.1539 57.0085 55.1539C56.8038 55.1539 56.6375 54.9877 56.6375 54.7828C56.6375 54.578 56.8038 54.4119 57.0085 54.4119Z"/>
</mask>
<path fill-rule="evenodd" clip-rule="evenodd" d="M57.0085 53.6698C56.3941 53.6698 55.8955 54.1685 55.8955 54.7828C55.8955 55.3973 56.3941 55.896 57.0085 55.896C57.623 55.896 58.1216 55.3973 58.1216 54.7828C58.1216 54.1685 57.623 53.6698 57.0085 53.6698ZM57.0085 54.4119C57.2133 54.4119 57.3796 54.578 57.3796 54.7828C57.3796 54.9877 57.2133 55.1539 57.0085 55.1539C56.8038 55.1539 56.6375 54.9877 56.6375 54.7828C56.6375 54.578 56.8038 54.4119 57.0085 54.4119Z" fill="#4D0000"/>
<path fill-rule="evenodd" clip-rule="evenodd" d="M57.0085 53.6698C56.3941 53.6698 55.8955 54.1685 55.8955 54.7828C55.8955 55.3973 56.3941 55.896 57.0085 55.896C57.623 55.896 58.1216 55.3973 58.1216 54.7828C58.1216 54.1685 57.623 53.6698 57.0085 53.6698ZM57.0085 54.4119C57.2133 54.4119 57.3796 54.578 57.3796 54.7828C57.3796 54.9877 57.2133 55.1539 57.0085 55.1539C56.8038 55.1539 56.6375 54.9877 56.6375 54.7828C56.6375 54.578 56.8038 54.4119 57.0085 54.4119Z" stroke="#4D0000" stroke-width="0.154288" mask="url(#path-8-outside-4_6242_46483)"/>
</g>
<g id="Vector_4">
<mask id="path-9-outside-5_6242_46483" maskUnits="userSpaceOnUse" x="51.9277" y="49.702" width="7" height="7" fill="black">
<rect fill="white" x="51.9277" y="49.702" width="7" height="7"/>
<path fill-rule="evenodd" clip-rule="evenodd" d="M53.5609 55.7875L58.0129 51.3351C58.1576 51.1904 58.1576 50.9552 58.0129 50.8105C57.8682 50.6659 57.633 50.6659 57.4884 50.8105L53.0364 55.2626C52.8915 55.4073 52.8915 55.6424 53.0364 55.7873C53.1811 55.932 53.4162 55.932 53.5609 55.7873V55.7875Z"/>
</mask>
<path fill-rule="evenodd" clip-rule="evenodd" d="M53.5609 55.7875L58.0129 51.3351C58.1576 51.1904 58.1576 50.9552 58.0129 50.8105C57.8682 50.6659 57.633 50.6659 57.4884 50.8105L53.0364 55.2626C52.8915 55.4073 52.8915 55.6424 53.0364 55.7873C53.1811 55.932 53.4162 55.932 53.5609 55.7873V55.7875Z" fill="#4D0000"/>
<path fill-rule="evenodd" clip-rule="evenodd" d="M53.5609 55.7875L58.0129 51.3351C58.1576 51.1904 58.1576 50.9552 58.0129 50.8105C57.8682 50.6659 57.633 50.6659 57.4884 50.8105L53.0364 55.2626C52.8915 55.4073 52.8915 55.6424 53.0364 55.7873C53.1811 55.932 53.4162 55.932 53.5609 55.7873V55.7875Z" stroke="#4D0000" stroke-width="0.154288" mask="url(#path-9-outside-5_6242_46483)"/>
</g>
</g>
<g id="Group 1171275319">
<g id="Group_2">
<path id="Vector_5" d="M55.1647 57.0525C55.0382 57.0525 54.975 57.1157 54.4693 58.4432C53.9003 59.8972 53.9003 59.8972 54.09 60.0236C54.2164 60.1501 54.3429 60.1501 54.4693 60.0236C54.5325 59.9604 54.5957 59.8972 54.6589 59.7076L54.7221 59.4547H55.1647H55.6072L55.6704 59.7076C55.7968 59.9604 55.86 60.0869 56.0497 60.0869C56.1761 60.0869 56.1761 60.0869 56.2393 60.0236C56.3025 59.9604 56.3658 59.8972 56.3025 59.7708C56.3025 59.7076 55.4175 57.3054 55.3543 57.1789C55.2911 57.1157 55.1647 57.0525 55.1014 57.0525C55.2279 57.0525 55.1647 57.0525 55.1647 57.0525ZM55.4175 58.8225C55.4175 58.8858 55.4175 58.8858 55.2279 58.8858C55.1014 58.8858 55.0382 58.8858 55.0382 58.8858C55.0382 58.8858 55.1014 58.7593 55.1647 58.5697L55.2911 58.3168L55.3543 58.5697C55.3543 58.6329 55.4175 58.8225 55.4175 58.8225Z" fill="#4D0000"/>
</g>
<g id="Group_3">
<path id="Vector_6" d="M51.6858 57.115C51.5594 57.1783 51.4962 57.4311 51.6226 57.5576C51.6858 57.684 51.8123 57.684 52.1916 57.684H52.5077V58.8219V59.9598L52.6341 60.0862C52.6973 60.1494 52.7605 60.2126 52.8237 60.2126C52.8869 60.2126 52.9502 60.2126 53.0134 60.0862L53.1398 59.9598V58.8219V57.684H53.4559C53.8352 57.684 53.8984 57.684 54.0248 57.5576C54.0881 57.4311 54.0248 57.1783 53.9616 57.115C53.772 57.0518 51.7491 57.0518 51.6858 57.115Z" fill="#4D0000"/>
</g>
<g id="Group_4">
<path id="Vector_7" d="M56.9367 57.115C56.8735 57.115 56.8735 57.1783 56.8103 57.2415C56.6839 57.3679 56.7471 57.4943 56.9999 58.0633L57.2528 58.6322L56.9999 59.2012C56.7471 59.6437 56.7471 59.7701 56.7471 59.8965C56.7471 60.0862 56.8735 60.2126 57.0632 60.2126C57.2528 60.2126 57.316 60.1494 57.5057 59.7701L57.6953 59.454L57.885 59.8333C58.0114 60.023 58.0746 60.2126 58.1378 60.2126C58.2643 60.2758 58.4539 60.2758 58.5171 60.1494C58.7068 60.023 58.6436 59.9598 58.3275 59.3276L58.0746 58.7587L58.3275 58.1897C58.4539 57.8736 58.5803 57.6208 58.5803 57.5576C58.5803 57.4311 58.5171 57.3047 58.3907 57.2415C58.1378 57.115 58.0114 57.2415 57.8217 57.684L57.6953 58.0001L57.4424 57.4943C57.316 57.1783 57.2528 57.115 57.1896 57.115C57.0632 57.0518 56.9999 57.0518 56.9367 57.115Z" fill="#4D0000"/>
</g>
</g>
</g>
</g>
</g>
</svg>
