<svg width="72" height="72" viewBox="0 0 72 72" fill="none" xmlns="http://www.w3.org/2000/svg">
<g id="payroll-report">
<g id="Group 1171275220">
<g id="Group">
<g id="Vector">
<path d="M58.4367 16.2292L47.77 5.5625C46.7697 4.56267 45.4098 4 43.9993 4H17.3333C14.3893 4 12 6.38929 12 9.33333V62.6667C12 65.6107 14.3893 68 17.3333 68H54.666C57.61 68 59.9993 65.6107 59.9993 62.6667V20C59.9993 18.5894 59.4365 17.2295 58.4367 16.2292ZM43.9996 9.33333L54.6663 20H43.9996V9.33333ZM54.6663 62.6667H17.3336V9.33333H38.6669V20C38.6669 22.944 41.0562 25.3333 44.0003 25.3333H54.6669L54.6663 62.6667Z" fill="#4D0000"/>
<path d="M43.9996 9.33333L54.6663 20H43.9996V9.33333Z" fill="#E60000"/>
</g>
</g>
<g id="Vector_2">
<path d="M22.666 33.335V57.3346H49.332V33.335H22.666ZM25.3323 36.0013H38.6659V38.6682H25.3323V36.0013ZM25.3323 41.3346H38.6659V44.0015H25.3323V41.3346ZM41.3317 44.0015V41.3346H46.665V44.0015H41.3317ZM46.665 46.6678V49.3347H41.3317V46.6678H46.665ZM25.3317 46.6678H38.6652V49.3347H25.3317V46.6678ZM25.3317 54.668V52.0012H38.6652V54.668H25.3317ZM41.331 54.668V52.0012H46.6643V54.668H41.331ZM46.6643 38.6687H41.331V36.0018H46.6643V38.6687Z" fill="#4D0000"/>
<path d="M25.3323 36.0013H38.6659V38.6682H25.3323V36.0013Z" fill="#E60000"/>
<path d="M25.3323 41.3346H38.6659V44.0015H25.3323V41.3346Z" fill="#E60000"/>
<path d="M25.3317 46.6678H38.6652V49.3347H25.3317V46.6678Z" fill="#E60000"/>
<path d="M25.3317 54.668V52.0012H38.6652V54.668H25.3317Z" fill="#E60000"/>
<path d="M46.6643 38.6687H41.331V36.0018H46.6643V38.6687Z" fill="#E60000"/>
<path d="M41.3317 44.0015V41.3346H46.665V44.0015H41.3317Z" fill="#E60000"/>
<path d="M46.665 46.6678V49.3347H41.3317V46.6678H46.665Z" fill="#E60000"/>
<path d="M41.331 54.668V52.0012H46.6643V54.668H41.331Z" fill="#E60000"/>
</g>
<path id="Vector_3" d="M29.3325 25.3341H26.6656C25.9323 25.3341 25.3321 25.9343 25.3321 26.6675C25.3321 27.4008 25.9323 28.001 26.6656 28.001H27.999V29.3345C27.999 30.0677 28.5987 30.6674 29.3325 30.6674C30.0658 30.6674 30.6654 30.0677 30.6654 29.3345V27.7555C32.2148 27.2033 33.3323 25.7342 33.3323 24.0006C33.3323 21.7982 31.5375 20.0007 29.3324 20.0007C28.5986 20.0007 27.999 19.401 27.999 18.6672C27.999 17.934 28.5986 17.3343 29.3324 17.3343H31.9993C32.732 17.3343 33.3322 16.7341 33.3322 16.0008C33.3322 15.2676 32.732 14.6674 31.9988 14.6674H30.6653V13.3339C30.6653 12.6007 30.0656 12.001 29.3324 12.001C28.5986 12.001 27.9989 12.6007 27.9989 13.3339V14.9129C26.4495 15.4651 25.332 16.9342 25.332 18.6672C25.332 20.8754 27.1268 22.6677 29.3325 22.6677C30.0657 22.6677 30.6654 23.2674 30.6654 24.0006C30.6654 24.7344 30.0657 25.3341 29.3325 25.3341H29.3325Z" fill="#4D0000"/>
</g>
</g>
</svg>
