<svg width="73" height="72" viewBox="0 0 73 72" fill="none" xmlns="http://www.w3.org/2000/svg">
<g id="payslip-period">
<g id="Group 1171275334">
<g id="Group 1171274973">
<g id="Group">
<g id="Vector">
<path d="M56.4716 38.6303H55.1442V37.9857C55.1442 37.8748 55.1248 37.7683 55.085 37.6661C55.0451 37.5639 54.988 37.4737 54.9144 37.3955C54.8409 37.3172 54.7562 37.2563 54.6602 37.2139C54.5642 37.1715 54.4641 37.1509 54.36 37.1509C54.2558 37.1509 54.1558 37.1715 54.0598 37.2139C53.9638 37.2563 53.879 37.3172 53.8055 37.3955C53.732 37.4737 53.6758 37.5639 53.636 37.6661C53.5962 37.7683 53.5758 37.8748 53.5758 37.9857V38.6303H50.8014V37.9857C50.8014 37.8748 50.782 37.7683 50.7422 37.6661C50.7023 37.5639 50.6452 37.4737 50.5716 37.3955C50.4981 37.3172 50.4134 37.2563 50.3174 37.2139C50.2214 37.1715 50.1213 37.1509 50.0172 37.1509C49.913 37.1509 49.813 37.1715 49.717 37.2139C49.621 37.2563 49.5362 37.3172 49.4627 37.3955C49.3892 37.4737 49.332 37.5639 49.2922 37.6661C49.2524 37.7683 49.233 37.8748 49.233 37.9857V38.6303H46.4576V37.9857C46.4576 37.8748 46.4382 37.7683 46.3983 37.6661C46.3585 37.5639 46.3013 37.4737 46.2278 37.3955C46.1543 37.3172 46.0695 37.2563 45.9736 37.2139C45.8776 37.1715 45.7775 37.1509 45.6734 37.1509C45.5692 37.1509 45.4691 37.1715 45.3731 37.2139C45.2772 37.2563 45.1924 37.3172 45.1189 37.3955C45.0454 37.4737 44.9882 37.5639 44.9484 37.6661C44.9085 37.7683 44.8891 37.8748 44.8891 37.9857V38.6303H42.1148V37.9857C42.1148 37.8748 42.0944 37.7683 42.0545 37.6661C42.0147 37.5639 41.9585 37.4737 41.885 37.3955C41.8115 37.3172 41.7267 37.2563 41.6308 37.2139C41.5348 37.1715 41.4347 37.1509 41.3306 37.1509C41.2264 37.1509 41.1263 37.1715 41.0304 37.2139C40.9344 37.2563 40.8496 37.3172 40.7761 37.3955C40.7026 37.4737 40.6454 37.5639 40.6056 37.6661C40.5657 37.7683 40.5463 37.8748 40.5463 37.9857V38.6303H39.2189C39.0126 38.6314 38.8094 38.652 38.6072 38.6955C38.4051 38.7379 38.209 38.802 38.0191 38.8857C37.8292 38.9694 37.6484 39.0727 37.4769 39.1944C37.3053 39.3162 37.1471 39.4553 37.0021 39.6097C36.856 39.7651 36.7264 39.9336 36.612 40.1162C36.4976 40.2988 36.4006 40.4912 36.322 40.6934C36.2423 40.8956 36.1831 41.1043 36.1433 41.3195C36.1025 41.5347 36.082 41.7521 36.082 41.9706V55.333C36.082 55.5526 36.1025 55.7689 36.1433 55.9841C36.1831 56.1993 36.2423 56.408 36.322 56.6102C36.4006 56.8135 36.4976 57.0059 36.612 57.1874C36.7264 57.37 36.856 57.5385 37.0021 57.6939C37.1471 57.8494 37.3053 57.9874 37.4769 58.1092C37.6484 58.2309 37.8292 58.3342 38.0191 58.4179C38.209 58.5027 38.4051 58.5657 38.6072 58.6081C38.8094 58.6516 39.0126 58.6733 39.2189 58.6733H56.4716C56.6779 58.6733 56.8811 58.6516 57.0833 58.6081C57.2855 58.5657 57.4815 58.5027 57.6714 58.4179C57.8614 58.3342 58.0421 58.2309 58.2137 58.1092C58.3852 57.9874 58.5435 57.8494 58.6885 57.6939C58.8345 57.5385 58.9642 57.37 59.0785 57.1874C59.1929 57.0059 59.2899 56.8135 59.3685 56.6102C59.4482 56.408 59.5074 56.1993 59.5472 55.9841C59.5881 55.7689 59.6085 55.5526 59.6085 55.333V41.9706C59.6085 41.7521 59.5881 41.5347 59.5472 41.3195C59.5074 41.1043 59.4482 40.8956 59.3685 40.6934C59.2899 40.4912 59.1929 40.2988 59.0785 40.1162C58.9642 39.9336 58.8345 39.7651 58.6885 39.6097C58.5435 39.4553 58.3852 39.3162 58.2137 39.1944C58.0421 39.0727 57.8614 38.9694 57.6714 38.8857C57.4815 38.802 57.2855 38.7379 57.0833 38.6955C56.8811 38.652 56.6779 38.6314 56.4716 38.6303ZM58.0401 55.333C58.0401 55.4428 58.0299 55.5515 58.0094 55.6591C57.989 55.7656 57.9594 55.87 57.9206 55.9722C57.8808 56.0732 57.8328 56.1689 57.7756 56.2602C57.7184 56.3515 57.6531 56.4363 57.5806 56.5135C57.507 56.5906 57.4284 56.6602 57.3426 56.7211C57.2569 56.782 57.167 56.8331 57.0721 56.8754C56.9761 56.9178 56.878 56.9494 56.778 56.9711C56.6769 56.9917 56.5748 57.0026 56.4716 57.0026H39.2189C39.1158 57.0026 39.0136 56.9917 38.9126 56.9711C38.8125 56.9494 38.7145 56.9178 38.6185 56.8754C38.5235 56.8331 38.4337 56.782 38.3479 56.7211C38.2621 56.6602 38.1835 56.5906 38.11 56.5135C38.0375 56.4363 37.9721 56.3515 37.9149 56.2602C37.8577 56.1689 37.8098 56.0732 37.7699 55.9722C37.7311 55.87 37.7015 55.7656 37.6811 55.6591C37.6607 55.5515 37.6505 55.4428 37.6505 55.333V44.9022H58.0401V55.333ZM58.0401 43.2315H37.6505V41.9706C37.6505 41.8619 37.6607 41.7532 37.6811 41.6456C37.7015 41.538 37.7311 41.4336 37.7699 41.3325C37.8098 41.2314 37.8577 41.1347 37.9149 41.0434C37.9721 40.9521 38.0375 40.8684 38.11 40.7901C38.1835 40.713 38.2621 40.6434 38.3479 40.5825C38.4337 40.5216 38.5235 40.4706 38.6185 40.4282C38.7145 40.3869 38.8125 40.3542 38.9126 40.3336C39.0136 40.3119 39.1158 40.301 39.2189 40.301H40.5463V40.9456C40.5463 41.0564 40.5657 41.163 40.6056 41.2651C40.6454 41.3684 40.7026 41.4586 40.7761 41.5369C40.8496 41.6152 40.9344 41.6749 41.0304 41.7173C41.1263 41.7597 41.2264 41.7815 41.3306 41.7815C41.4347 41.7815 41.5348 41.7597 41.6308 41.7173C41.7267 41.6749 41.8115 41.6152 41.885 41.5369C41.9585 41.4586 42.0147 41.3684 42.0545 41.2651C42.0944 41.163 42.1148 41.0564 42.1148 40.9456V40.301H44.8891V40.9456C44.8891 41.0564 44.9085 41.163 44.9484 41.2651C44.9882 41.3684 45.0454 41.4586 45.1189 41.5369C45.1924 41.6152 45.2772 41.6749 45.3731 41.7173C45.4691 41.7597 45.5692 41.7815 45.6734 41.7815C45.7775 41.7815 45.8776 41.7597 45.9736 41.7173C46.0695 41.6749 46.1543 41.6152 46.2278 41.5369C46.3013 41.4586 46.3585 41.3684 46.3983 41.2651C46.4382 41.163 46.4576 41.0564 46.4576 40.9456V40.301H49.233V40.9456C49.233 41.0564 49.2524 41.163 49.2922 41.2651C49.332 41.3684 49.3892 41.4586 49.4627 41.5369C49.5362 41.6152 49.621 41.6749 49.717 41.7173C49.813 41.7597 49.913 41.7815 50.0172 41.7815C50.1213 41.7815 50.2214 41.7597 50.3174 41.7173C50.4134 41.6749 50.4981 41.6152 50.5716 41.5369C50.6452 41.4586 50.7023 41.3684 50.7422 41.2651C50.782 41.163 50.8014 41.0564 50.8014 40.9456V40.301H53.5758V40.9456C53.5758 41.0564 53.5962 41.163 53.636 41.2651C53.6758 41.3684 53.732 41.4586 53.8055 41.5369C53.879 41.6152 53.9638 41.6749 54.0598 41.7173C54.1558 41.7597 54.2558 41.7815 54.36 41.7815C54.4641 41.7815 54.5642 41.7597 54.6602 41.7173C54.7562 41.6749 54.8409 41.6152 54.9144 41.5369C54.988 41.4586 55.0451 41.3684 55.085 41.2651C55.1248 41.163 55.1442 41.0564 55.1442 40.9456V40.301H56.4716C56.5748 40.301 56.6769 40.3119 56.778 40.3336C56.878 40.3542 56.9761 40.3869 57.0721 40.4282C57.167 40.4706 57.2569 40.5216 57.3426 40.5825C57.4284 40.6434 57.507 40.713 57.5806 40.7901C57.6531 40.8684 57.7184 40.9521 57.7756 41.0434C57.8328 41.1347 57.8808 41.2314 57.9206 41.3325C57.9594 41.4336 57.989 41.538 58.0094 41.6456C58.0299 41.7532 58.0401 41.8619 58.0401 41.9706V43.2315Z" fill="#0D313B"/>
<path d="M58.0401 43.2315H37.6505V41.9706C37.6505 41.8619 37.6607 41.7532 37.6811 41.6456C37.7015 41.538 37.7311 41.4336 37.7699 41.3325C37.8098 41.2314 37.8577 41.1347 37.9149 41.0434C37.9721 40.9521 38.0375 40.8684 38.11 40.7901C38.1835 40.713 38.2621 40.6434 38.3479 40.5825C38.4337 40.5216 38.5235 40.4706 38.6185 40.4282C38.7145 40.3869 38.8125 40.3542 38.9126 40.3336C39.0136 40.3119 39.1158 40.301 39.2189 40.301H40.5463V40.9456C40.5463 41.0564 40.5657 41.163 40.6056 41.2651C40.6454 41.3684 40.7026 41.4586 40.7761 41.5369C40.8496 41.6152 40.9344 41.6749 41.0304 41.7173C41.1263 41.7597 41.2264 41.7815 41.3306 41.7815C41.4347 41.7815 41.5348 41.7597 41.6308 41.7173C41.7267 41.6749 41.8115 41.6152 41.885 41.5369C41.9585 41.4586 42.0147 41.3684 42.0545 41.2651C42.0944 41.163 42.1148 41.0564 42.1148 40.9456V40.301H44.8891V40.9456C44.8891 41.0564 44.9085 41.163 44.9484 41.2651C44.9882 41.3684 45.0454 41.4586 45.1189 41.5369C45.1924 41.6152 45.2772 41.6749 45.3731 41.7173C45.4691 41.7597 45.5692 41.7815 45.6734 41.7815C45.7775 41.7815 45.8776 41.7597 45.9736 41.7173C46.0695 41.6749 46.1543 41.6152 46.2278 41.5369C46.3013 41.4586 46.3585 41.3684 46.3983 41.2651C46.4382 41.163 46.4576 41.0564 46.4576 40.9456V40.301H49.233V40.9456C49.233 41.0564 49.2524 41.163 49.2922 41.2651C49.332 41.3684 49.3892 41.4586 49.4627 41.5369C49.5362 41.6152 49.621 41.6749 49.717 41.7173C49.813 41.7597 49.913 41.7815 50.0172 41.7815C50.1213 41.7815 50.2214 41.7597 50.3174 41.7173C50.4134 41.6749 50.4981 41.6152 50.5716 41.5369C50.6452 41.4586 50.7023 41.3684 50.7422 41.2651C50.782 41.163 50.8014 41.0564 50.8014 40.9456V40.301H53.5758V40.9456C53.5758 41.0564 53.5962 41.163 53.636 41.2651C53.6758 41.3684 53.732 41.4586 53.8055 41.5369C53.879 41.6152 53.9638 41.6749 54.0598 41.7173C54.1558 41.7597 54.2558 41.7815 54.36 41.7815C54.4641 41.7815 54.5642 41.7597 54.6602 41.7173C54.7562 41.6749 54.8409 41.6152 54.9144 41.5369C54.988 41.4586 55.0451 41.3684 55.085 41.2651C55.1248 41.163 55.1442 41.0564 55.1442 40.9456V40.301H56.4716C56.5748 40.301 56.6769 40.3119 56.778 40.3336C56.878 40.3542 56.9761 40.3869 57.0721 40.4282C57.167 40.4706 57.2569 40.5216 57.3426 40.5825C57.4284 40.6434 57.507 40.713 57.5806 40.7901C57.6531 40.8684 57.7184 40.9521 57.7756 41.0434C57.8328 41.1347 57.8808 41.2314 57.9206 41.3325C57.9594 41.4336 57.989 41.538 58.0094 41.6456C58.0299 41.7532 58.0401 41.8619 58.0401 41.9706V43.2315Z" fill="#2894B4"/>
</g>
</g>
<text id="30" fill="#0D313B" xml:space="preserve" style="white-space: pre" font-family="Inter" font-size="6.6" font-weight="900" letter-spacing="0em"><tspan x="42.8701" y="55.0458">30</tspan></text>
<text id="MON" fill="#0D313B" xml:space="preserve" style="white-space: pre" font-family="Inter" font-size="3.85" font-weight="900" letter-spacing="0em"><tspan x="42.7909" y="49.2855">MON</tspan></text>
</g>
<g id="Group 1171275332">
<g id="Group_2">
<g id="Vector_2">
<mask id="path-4-outside-1_6242_46450" maskUnits="userSpaceOnUse" x="3" y="3" width="66" height="66" fill="black">
<rect fill="white" x="3" y="3" width="66" height="66"/>
<path d="M47.7353 65.867C37.735 65.867 29.6019 57.7339 29.6019 47.7337C29.6019 37.7334 37.735 29.6003 47.7353 29.6003C57.7323 29.6003 65.8654 37.7334 65.8654 47.7337C65.8654 57.7339 57.7323 65.867 47.7353 65.867ZM30.3896 62.6611L26.4511 60.1554C25.7607 59.734 24.8725 59.7372 24.1853 60.1651L20.263 62.6611L16.318 60.1554C15.6275 59.734 14.7653 59.734 14.0554 60.1651L10.1298 62.6611L6.1362 60.1165L6.14268 8.67597L10.1266 6.13458L14.0748 8.6468C14.7685 9.06496 15.6275 9.06496 16.3374 8.63383L20.2597 6.13458L24.1918 8.63707C24.8725 9.05847 25.7607 9.06496 26.4771 8.63059L30.3832 6.13782L34.3249 8.63707C35.0186 9.06496 35.9003 9.06496 36.594 8.63383L40.526 6.13458L44.5326 8.67921V27.7461C34.8792 29.2891 27.469 37.6492 27.469 47.7337C27.469 52.917 29.4399 57.6335 32.6523 61.2219L30.3896 62.6611ZM47.7353 27.4674C47.3722 27.4674 47.0222 27.4998 46.6688 27.5225V8.67921C46.6688 7.94662 46.2831 7.24968 45.6704 6.8769L41.6703 4.3355C40.9669 3.88817 40.0884 3.88817 39.3882 4.3355L35.4627 6.83151L31.5436 4.34199C30.8499 3.89141 29.9455 3.88817 29.2389 4.33874L25.3295 6.83476L21.404 4.3355C20.7006 3.88817 19.8254 3.88817 19.1187 4.3355L15.1964 6.83476L11.2838 4.34199C10.5934 3.88817 9.68896 3.88817 8.98554 4.3355L5.00489 6.86717C4.38575 7.24968 4 7.94662 4 8.67921V60.1165C4 60.8491 4.38575 61.546 4.9984 61.9253L8.98554 64.4634C9.6922 64.9108 10.5934 64.9075 11.2708 64.4634L15.1932 61.9674L19.1187 64.4634C19.472 64.6871 19.8675 64.8006 20.263 64.8006C20.6584 64.8006 21.0507 64.6871 21.404 64.4634L25.3263 61.9674L29.2421 64.4634C29.952 64.9108 30.8499 64.9075 31.5274 64.4634L34.192 62.7681C37.7837 66.0097 42.5261 68 47.7353 68C58.909 68 68.0016 58.9074 68.0016 47.7337C68.0016 36.56 58.909 27.4674 47.7353 27.4674Z"/>
<path d="M30.3896 62.6611L26.4511 60.1554C25.7607 59.734 24.8725 59.7372 24.1853 60.1651L20.263 62.6611L16.318 60.1554C15.6275 59.734 14.7653 59.734 14.0554 60.1651L10.1298 62.6611L6.1362 60.1165L6.14268 8.67597L10.1266 6.13458L14.0748 8.6468C14.7685 9.06496 15.6275 9.06496 16.3374 8.63383L20.2597 6.13458L24.1918 8.63707C24.8725 9.05847 25.7607 9.06496 26.4771 8.63059L30.3832 6.13782L34.3249 8.63707C35.0186 9.06496 35.9003 9.06496 36.594 8.63383L40.526 6.13458L44.5326 8.67921V27.7461C34.8792 29.2891 27.469 37.6492 27.469 47.7337C27.469 52.917 29.4399 57.6335 32.6523 61.2219L30.3896 62.6611Z"/>
</mask>
<path d="M47.7353 65.867C37.735 65.867 29.6019 57.7339 29.6019 47.7337C29.6019 37.7334 37.735 29.6003 47.7353 29.6003C57.7323 29.6003 65.8654 37.7334 65.8654 47.7337C65.8654 57.7339 57.7323 65.867 47.7353 65.867ZM30.3896 62.6611L26.4511 60.1554C25.7607 59.734 24.8725 59.7372 24.1853 60.1651L20.263 62.6611L16.318 60.1554C15.6275 59.734 14.7653 59.734 14.0554 60.1651L10.1298 62.6611L6.1362 60.1165L6.14268 8.67597L10.1266 6.13458L14.0748 8.6468C14.7685 9.06496 15.6275 9.06496 16.3374 8.63383L20.2597 6.13458L24.1918 8.63707C24.8725 9.05847 25.7607 9.06496 26.4771 8.63059L30.3832 6.13782L34.3249 8.63707C35.0186 9.06496 35.9003 9.06496 36.594 8.63383L40.526 6.13458L44.5326 8.67921V27.7461C34.8792 29.2891 27.469 37.6492 27.469 47.7337C27.469 52.917 29.4399 57.6335 32.6523 61.2219L30.3896 62.6611ZM47.7353 27.4674C47.3722 27.4674 47.0222 27.4998 46.6688 27.5225V8.67921C46.6688 7.94662 46.2831 7.24968 45.6704 6.8769L41.6703 4.3355C40.9669 3.88817 40.0884 3.88817 39.3882 4.3355L35.4627 6.83151L31.5436 4.34199C30.8499 3.89141 29.9455 3.88817 29.2389 4.33874L25.3295 6.83476L21.404 4.3355C20.7006 3.88817 19.8254 3.88817 19.1187 4.3355L15.1964 6.83476L11.2838 4.34199C10.5934 3.88817 9.68896 3.88817 8.98554 4.3355L5.00489 6.86717C4.38575 7.24968 4 7.94662 4 8.67921V60.1165C4 60.8491 4.38575 61.546 4.9984 61.9253L8.98554 64.4634C9.6922 64.9108 10.5934 64.9075 11.2708 64.4634L15.1932 61.9674L19.1187 64.4634C19.472 64.6871 19.8675 64.8006 20.263 64.8006C20.6584 64.8006 21.0507 64.6871 21.404 64.4634L25.3263 61.9674L29.2421 64.4634C29.952 64.9108 30.8499 64.9075 31.5274 64.4634L34.192 62.7681C37.7837 66.0097 42.5261 68 47.7353 68C58.909 68 68.0016 58.9074 68.0016 47.7337C68.0016 36.56 58.909 27.4674 47.7353 27.4674Z" fill="#0D313B"/>
<path d="M30.3896 62.6611L26.4511 60.1554C25.7607 59.734 24.8725 59.7372 24.1853 60.1651L20.263 62.6611L16.318 60.1554C15.6275 59.734 14.7653 59.734 14.0554 60.1651L10.1298 62.6611L6.1362 60.1165L6.14268 8.67597L10.1266 6.13458L14.0748 8.6468C14.7685 9.06496 15.6275 9.06496 16.3374 8.63383L20.2597 6.13458L24.1918 8.63707C24.8725 9.05847 25.7607 9.06496 26.4771 8.63059L30.3832 6.13782L34.3249 8.63707C35.0186 9.06496 35.9003 9.06496 36.594 8.63383L40.526 6.13458L44.5326 8.67921V27.7461C34.8792 29.2891 27.469 37.6492 27.469 47.7337C27.469 52.917 29.4399 57.6335 32.6523 61.2219L30.3896 62.6611Z" fill="#2894B4"/>
<path d="M30.3896 62.6611L30.2823 62.8299L30.3896 62.8982L30.497 62.8299L30.3896 62.6611ZM26.4511 60.1554L26.5585 59.9866L26.5553 59.9847L26.4511 60.1554ZM24.1853 60.1651L24.0796 59.9953L24.0779 59.9964L24.1853 60.1651ZM20.263 62.6611L20.1557 62.83L20.2631 62.8981L20.3703 62.8299L20.263 62.6611ZM16.318 60.1554L16.4252 59.9865L16.4222 59.9847L16.318 60.1554ZM14.0554 60.1651L13.9515 59.9941L13.948 59.9963L14.0554 60.1651ZM10.1298 62.6611L10.0223 62.8298L10.1297 62.8982L10.2371 62.8299L10.1298 62.6611ZM6.1362 60.1165L5.9362 60.1165L5.93618 60.2262L6.02872 60.2852L6.1362 60.1165ZM6.14268 8.67597L6.03512 8.50736L5.94269 8.56632L5.94268 8.67594L6.14268 8.67597ZM10.1266 6.13458L10.2339 5.96584L10.1264 5.89744L10.019 5.96596L10.1266 6.13458ZM14.0748 8.6468L13.9674 8.81558L13.9716 8.81808L14.0748 8.6468ZM16.3374 8.63383L16.4413 8.80481L16.4449 8.8025L16.3374 8.63383ZM20.2597 6.13458L20.3671 5.96585L20.2597 5.89747L20.1523 5.96591L20.2597 6.13458ZM24.1918 8.63707L24.0844 8.80581L24.0865 8.80712L24.1918 8.63707ZM26.4771 8.63059L26.5808 8.80165L26.5847 8.79918L26.4771 8.63059ZM30.3832 6.13782L30.4903 5.96891L30.3828 5.90078L30.2756 5.96922L30.3832 6.13782ZM34.3249 8.63707L34.2178 8.80599L34.2199 8.80729L34.3249 8.63707ZM36.594 8.63383L36.6996 8.8037L36.7013 8.80262L36.594 8.63383ZM40.526 6.13458L40.6333 5.96575L40.526 5.89762L40.4188 5.96579L40.526 6.13458ZM44.5326 8.67921H44.7326V8.56931L44.6399 8.51038L44.5326 8.67921ZM44.5326 27.7461L44.5642 27.9436L44.7326 27.9167V27.7461H44.5326ZM32.6523 61.2219L32.7596 61.3906L32.9585 61.2641L32.8013 61.0885L32.6523 61.2219ZM30.497 62.4924L26.5585 59.9866L26.3438 60.3241L30.2823 62.8299L30.497 62.4924ZM26.5553 59.9847C25.8004 59.5239 24.831 59.5274 24.0796 59.9953L24.291 60.3349C24.9139 59.947 25.7209 59.944 26.3469 60.3261L26.5553 59.9847ZM24.0779 59.9964L20.1556 62.4924L20.3703 62.8299L24.2926 60.3338L24.0779 59.9964ZM20.3702 62.4923L16.4252 59.9866L16.2107 60.3242L20.1557 62.83L20.3702 62.4923ZM16.4222 59.9847C15.6668 59.5236 14.7242 59.5249 13.9515 59.9942L14.1592 60.3361C14.8063 59.9431 15.5883 59.9443 16.2138 60.3261L16.4222 59.9847ZM13.948 59.9963L10.0225 62.4924L10.2371 62.8299L14.1627 60.3339L13.948 59.9963ZM10.2373 62.4925L6.24367 59.9478L6.02872 60.2852L10.0223 62.8298L10.2373 62.4925ZM6.3362 60.1165L6.34268 8.67599L5.94268 8.67594L5.9362 60.1165L6.3362 60.1165ZM6.25024 8.84458L10.2341 6.30319L10.019 5.96596L6.03512 8.50736L6.25024 8.84458ZM10.0192 6.30331L13.9674 8.81553L14.1822 8.47806L10.2339 5.96584L10.0192 6.30331ZM13.9716 8.81808C14.7296 9.27505 15.6684 9.27411 16.4412 8.80477L16.2336 8.46288C15.5866 8.8558 14.8074 8.85486 14.1781 8.47551L13.9716 8.81808ZM16.4449 8.8025L20.3672 6.30325L20.1523 5.96591L16.23 8.46516L16.4449 8.8025ZM20.1523 6.3033L24.0844 8.8058L24.2991 8.46834L20.3671 5.96585L20.1523 6.3033ZM24.0865 8.80712C24.8324 9.26886 25.8013 9.27421 26.5808 8.80161L26.3734 8.45957C25.72 8.85571 24.9126 8.84809 24.297 8.46702L24.0865 8.80712ZM26.5847 8.79918L30.4908 6.30641L30.2756 5.96922L26.3695 8.46199L26.5847 8.79918ZM30.2761 6.30673L34.2178 8.80598L34.432 8.46816L30.4903 5.96891L30.2761 6.30673ZM34.2199 8.80729C34.978 9.2749 35.9413 9.27498 36.6996 8.8037L36.4884 8.46396C35.8594 8.85493 35.0592 8.85501 34.4299 8.46685L34.2199 8.80729ZM36.7013 8.80262L40.6333 6.30337L40.4188 5.96579L36.4867 8.46504L36.7013 8.80262ZM40.4188 6.3034L44.4254 8.84804L44.6399 8.51038L40.6333 5.96575L40.4188 6.3034ZM44.3326 8.67921V27.7461H44.7326V8.67921H44.3326ZM44.5011 27.5487C34.7527 29.1068 27.269 37.5488 27.269 47.7337H27.669C27.669 37.7495 35.0057 29.4715 44.5642 27.9436L44.5011 27.5487ZM27.269 47.7337C27.269 52.9688 29.2598 57.7322 32.5032 61.3553L32.8013 61.0885C29.6199 57.5347 27.669 52.8651 27.669 47.7337H27.269ZM32.5449 61.0531L30.2823 62.4924L30.497 62.8299L32.7596 61.3906L32.5449 61.0531ZM46.6688 27.5225H46.2688V27.949L46.6945 27.9217L46.6688 27.5225ZM45.6704 6.8769L45.4559 7.21458L45.4625 7.21861L45.6704 6.8769ZM41.6703 4.3355L41.4557 4.67303L41.4558 4.67313L41.6703 4.3355ZM39.3882 4.3355L39.6029 4.67305L39.6036 4.67258L39.3882 4.3355ZM35.4627 6.83151L35.2482 7.16915L35.4628 7.30546L35.6773 7.16906L35.4627 6.83151ZM31.5436 4.34199L31.3257 4.67745L31.3292 4.67962L31.5436 4.34199ZM29.2389 4.33874L29.0238 4.00147L29.0236 4.0016L29.2389 4.33874ZM25.3295 6.83476L25.1147 7.17217L25.3299 7.30914L25.5448 7.1719L25.3295 6.83476ZM21.404 4.3355L21.6188 3.99808L21.6187 3.99797L21.404 4.3355ZM19.1187 4.3355L18.9047 3.99753L18.9037 3.99816L19.1187 4.3355ZM15.1964 6.83476L14.9815 7.17211L15.1964 7.30905L15.4113 7.17209L15.1964 6.83476ZM11.2838 4.34199L11.0641 4.67628L11.0689 4.67934L11.2838 4.34199ZM8.98554 4.3355L8.77089 3.99797L8.77088 3.99798L8.98554 4.3355ZM5.00489 6.86717L5.21514 7.2075L5.21955 7.20469L5.00489 6.86717ZM4.9984 61.9253L5.21323 61.5878L5.20895 61.5852L4.9984 61.9253ZM8.98554 64.4634L8.77073 64.8009L8.77159 64.8014L8.98554 64.4634ZM11.2708 64.4634L11.0561 64.1259L11.0516 64.1289L11.2708 64.4634ZM15.1932 61.9674L15.4078 61.6299L15.1931 61.4934L14.9784 61.63L15.1932 61.9674ZM19.1187 64.4634L18.9041 64.801L18.9047 64.8014L19.1187 64.4634ZM21.404 64.4634L21.618 64.8014L21.6188 64.8009L21.404 64.4634ZM25.3263 61.9674L25.5413 61.6301L25.3265 61.4932L25.1116 61.63L25.3263 61.9674ZM29.2421 64.4634L29.0271 64.8008L29.0289 64.8019L29.2421 64.4634ZM31.5274 64.4634L31.3127 64.1259L31.3081 64.1289L31.5274 64.4634ZM34.192 62.7681L34.46 62.4712L34.2341 62.2672L33.9773 62.4306L34.192 62.7681ZM47.7353 65.467C37.956 65.467 30.0019 57.513 30.0019 47.7337H29.2019C29.2019 57.9549 37.5141 66.267 47.7353 66.267V65.467ZM30.0019 47.7337C30.0019 37.9543 37.956 30.0003 47.7353 30.0003V29.2003C37.5141 29.2003 29.2019 37.5125 29.2019 47.7337H30.0019ZM47.7353 30.0003C57.5113 30.0003 65.4654 37.9543 65.4654 47.7337H66.2654C66.2654 37.5126 57.9533 29.2003 47.7353 29.2003V30.0003ZM65.4654 47.7337C65.4654 57.5131 57.5113 65.467 47.7353 65.467V66.267C57.9533 66.267 66.2654 57.9548 66.2654 47.7337H65.4654ZM47.7353 27.0674C47.3552 27.0674 46.982 27.1015 46.6432 27.1233L46.6945 27.9217C47.0623 27.898 47.3893 27.8674 47.7353 27.8674V27.0674ZM47.0688 27.5225V8.67921H46.2688V27.5225H47.0688ZM47.0688 8.67921C47.0688 7.81088 46.6136 6.98254 45.8783 6.53518L45.4625 7.21861C45.9526 7.51682 46.2688 8.08235 46.2688 8.67921H47.0688ZM45.8849 6.53927L41.8848 3.99788L41.4558 4.67313L45.4559 7.21452L45.8849 6.53927ZM41.885 3.99797C41.0509 3.46753 40.0047 3.467 39.1729 3.99842L39.6036 4.67258C40.1722 4.30933 40.8829 4.3088 41.4557 4.67303L41.885 3.99797ZM39.1736 3.99796L35.2481 6.49397L35.6773 7.16906L39.6029 4.67305L39.1736 3.99796ZM35.6772 6.49388L31.7581 4.00435L31.3292 4.67962L35.2482 7.16915L35.6772 6.49388ZM31.7615 4.00654C30.9352 3.4698 29.8615 3.46735 29.0238 4.00147L29.4539 4.67602C30.0296 4.30898 30.7647 4.31302 31.3258 4.67744L31.7615 4.00654ZM29.0236 4.0016L25.1143 6.49761L25.5448 7.1719L29.4541 4.67589L29.0236 4.0016ZM25.5444 6.49734L21.6188 3.99808L21.1892 4.67292L25.1147 7.17217L25.5444 6.49734ZM21.6187 3.99797C20.784 3.46715 19.7418 3.46768 18.9047 3.99753L19.3326 4.67348C19.909 4.30865 20.6172 4.30918 21.1894 4.67303L21.6187 3.99797ZM18.9037 3.99816L14.9814 6.49742L15.4113 7.17209L19.3336 4.67284L18.9037 3.99816ZM15.4113 6.49741L11.4987 4.00464L11.0689 4.67934L14.9815 7.17211L15.4113 6.49741ZM11.5035 4.00772C10.6786 3.46554 9.60417 3.46805 8.77089 3.99797L9.20019 4.67303C9.77375 4.30828 10.5081 4.31079 11.0641 4.67625L11.5035 4.00772ZM8.77088 3.99798L4.79023 6.52965L5.21955 7.20469L9.2002 4.67302L8.77088 3.99798ZM4.79465 6.52688C4.05621 6.98309 3.6 7.80954 3.6 8.67921H4.4C4.4 8.08369 4.71528 7.51627 5.21512 7.20747L4.79465 6.52688ZM3.6 8.67921V60.1165H4.4V8.67921H3.6ZM3.6 60.1165C3.6 60.9854 4.05558 61.8121 4.78786 62.2654L5.20895 61.5852C4.71592 61.28 4.4 60.7127 4.4 60.1165H3.6ZM4.7836 62.2627L8.77074 64.8009L9.20034 64.126L5.21321 61.5879L4.7836 62.2627ZM8.77159 64.8014C9.60711 65.3303 10.6778 65.3305 11.4901 64.798L11.0516 64.1289C10.509 64.4846 9.7773 64.4912 9.19949 64.1255L8.77159 64.8014ZM11.4856 64.8009L15.4079 62.3049L14.9784 61.63L11.0561 64.126L11.4856 64.8009ZM14.9785 62.305L18.9041 64.801L19.3333 64.1259L15.4078 61.6299L14.9785 62.305ZM18.9047 64.8014C19.3209 65.0649 19.7904 65.2006 20.263 65.2006V64.4006C19.9446 64.4006 19.6232 64.3094 19.3326 64.1255L18.9047 64.8014ZM20.263 65.2006C20.7362 65.2006 21.2023 65.0645 21.618 64.8014L21.1901 64.1255C20.899 64.3097 20.5807 64.4006 20.263 64.4006V65.2006ZM21.6188 64.8009L25.5411 62.3049L25.1116 61.63L21.1893 64.126L21.6188 64.8009ZM25.1113 62.3047L29.0271 64.8007L29.4571 64.1261L25.5413 61.6301L25.1113 62.3047ZM29.0289 64.8019C29.867 65.33 30.9341 65.3307 31.7467 64.798L31.3081 64.1289C30.7658 64.4844 30.0371 64.4916 29.4554 64.125L29.0289 64.8019ZM31.7422 64.8009L34.4067 63.1056L33.9773 62.4306L31.3127 64.126L31.7422 64.8009ZM33.924 63.065C37.5853 66.3694 42.422 68.4 47.7353 68.4V67.6C42.6302 67.6 37.9821 65.6499 34.46 62.4712L33.924 63.065ZM47.7353 68.4C59.1299 68.4 68.4016 59.1283 68.4016 47.7337H67.6016C67.6016 58.6865 58.6881 67.6 47.7353 67.6V68.4ZM68.4016 47.7337C68.4016 36.3391 59.1299 27.0674 47.7353 27.0674V27.8674C58.6881 27.8674 67.6016 36.7809 67.6016 47.7337H68.4016Z" fill="#0D313B" mask="url(#path-4-outside-1_6242_46450)"/>
</g>
</g>
<g id="Vector_3">
<mask id="path-6-outside-2_6242_46450" maskUnits="userSpaceOnUse" x="9.40234" y="12.5999" width="13" height="25" fill="black">
<rect fill="white" x="9.40234" y="12.5999" width="13" height="25"/>
<path d="M12.5353 21.0684C12.5353 19.681 13.43 18.5044 14.6683 18.0635V24.0701C13.43 23.6293 12.5353 22.4558 12.5353 21.0684ZM18.9342 29.6003C18.9342 30.9876 18.0395 32.1643 16.8012 32.6052V26.5953C18.0395 27.0394 18.9342 28.2129 18.9342 29.6003ZM12.5353 29.6003C12.5353 29.0135 12.0555 28.5338 11.4688 28.5338C10.8821 28.5338 10.4023 29.0135 10.4023 29.6003C10.4023 32.1741 12.2338 34.3297 14.6683 34.8257V35.9991C14.6683 36.5891 15.148 37.0656 15.7347 37.0656C16.3215 37.0656 16.8012 36.5891 16.8012 35.9991V34.8257C19.2356 34.3297 21.0671 32.1741 21.0671 29.6003C21.0671 27.0264 19.2356 24.8708 16.8012 24.3748V18.0635C18.0395 18.5044 18.9342 19.681 18.9342 21.0684C18.9342 21.6552 19.4139 22.1349 20.0006 22.1349C20.5906 22.1349 21.0671 21.6552 21.0671 21.0684C21.0671 18.4914 19.2356 16.339 16.8012 15.843V14.6663C16.8012 14.0796 16.3215 13.5999 15.7347 13.5999C15.148 13.5999 14.6683 14.0796 14.6683 14.6663V15.843C12.2338 16.339 10.4023 18.4914 10.4023 21.0684C10.4023 23.6422 12.2338 25.7979 14.6683 26.2906V32.6052C13.43 32.1643 12.5353 30.9876 12.5353 29.6003Z"/>
</mask>
<path d="M12.5353 21.0684C12.5353 19.681 13.43 18.5044 14.6683 18.0635V24.0701C13.43 23.6293 12.5353 22.4558 12.5353 21.0684ZM18.9342 29.6003C18.9342 30.9876 18.0395 32.1643 16.8012 32.6052V26.5953C18.0395 27.0394 18.9342 28.2129 18.9342 29.6003ZM12.5353 29.6003C12.5353 29.0135 12.0555 28.5338 11.4688 28.5338C10.8821 28.5338 10.4023 29.0135 10.4023 29.6003C10.4023 32.1741 12.2338 34.3297 14.6683 34.8257V35.9991C14.6683 36.5891 15.148 37.0656 15.7347 37.0656C16.3215 37.0656 16.8012 36.5891 16.8012 35.9991V34.8257C19.2356 34.3297 21.0671 32.1741 21.0671 29.6003C21.0671 27.0264 19.2356 24.8708 16.8012 24.3748V18.0635C18.0395 18.5044 18.9342 19.681 18.9342 21.0684C18.9342 21.6552 19.4139 22.1349 20.0006 22.1349C20.5906 22.1349 21.0671 21.6552 21.0671 21.0684C21.0671 18.4914 19.2356 16.339 16.8012 15.843V14.6663C16.8012 14.0796 16.3215 13.5999 15.7347 13.5999C15.148 13.5999 14.6683 14.0796 14.6683 14.6663V15.843C12.2338 16.339 10.4023 18.4914 10.4023 21.0684C10.4023 23.6422 12.2338 25.7979 14.6683 26.2906V32.6052C13.43 32.1643 12.5353 30.9876 12.5353 29.6003Z" fill="#0D313B"/>
<path d="M12.5353 21.0684C12.5353 19.681 13.43 18.5044 14.6683 18.0635V24.0701C13.43 23.6293 12.5353 22.4558 12.5353 21.0684ZM18.9342 29.6003C18.9342 30.9876 18.0395 32.1643 16.8012 32.6052V26.5953C18.0395 27.0394 18.9342 28.2129 18.9342 29.6003ZM12.5353 29.6003C12.5353 29.0135 12.0555 28.5338 11.4688 28.5338C10.8821 28.5338 10.4023 29.0135 10.4023 29.6003C10.4023 32.1741 12.2338 34.3297 14.6683 34.8257V35.9991C14.6683 36.5891 15.148 37.0656 15.7347 37.0656C16.3215 37.0656 16.8012 36.5891 16.8012 35.9991V34.8257C19.2356 34.3297 21.0671 32.1741 21.0671 29.6003C21.0671 27.0264 19.2356 24.8708 16.8012 24.3748V18.0635C18.0395 18.5044 18.9342 19.681 18.9342 21.0684C18.9342 21.6552 19.4139 22.1349 20.0006 22.1349C20.5906 22.1349 21.0671 21.6552 21.0671 21.0684C21.0671 18.4914 19.2356 16.339 16.8012 15.843V14.6663C16.8012 14.0796 16.3215 13.5999 15.7347 13.5999C15.148 13.5999 14.6683 14.0796 14.6683 14.6663V15.843C12.2338 16.339 10.4023 18.4914 10.4023 21.0684C10.4023 23.6422 12.2338 25.7979 14.6683 26.2906V32.6052C13.43 32.1643 12.5353 30.9876 12.5353 29.6003Z" stroke="#0D313B" stroke-width="0.8" mask="url(#path-6-outside-2_6242_46450)"/>
</g>
<g id="Vector_4">
<mask id="path-7-outside-3_6242_46450" maskUnits="userSpaceOnUse" x="23.2666" y="12.5999" width="19" height="4" fill="black">
<rect fill="white" x="23.2666" y="12.5999" width="19" height="4"/>
<path d="M25.3363 15.7328H40.267C40.8537 15.7328 41.3335 15.2563 41.3335 14.6663C41.3335 14.0796 40.8537 13.5999 40.267 13.5999H25.3363C24.7464 13.5999 24.2666 14.0796 24.2666 14.6663C24.2666 15.2563 24.7464 15.7328 25.3363 15.7328Z"/>
</mask>
<path d="M25.3363 15.7328H40.267C40.8537 15.7328 41.3335 15.2563 41.3335 14.6663C41.3335 14.0796 40.8537 13.5999 40.267 13.5999H25.3363C24.7464 13.5999 24.2666 14.0796 24.2666 14.6663C24.2666 15.2563 24.7464 15.7328 25.3363 15.7328Z" fill="#0D313B"/>
<path d="M25.3363 15.7328H40.267C40.8537 15.7328 41.3335 15.2563 41.3335 14.6663C41.3335 14.0796 40.8537 13.5999 40.267 13.5999H25.3363C24.7464 13.5999 24.2666 14.0796 24.2666 14.6663C24.2666 15.2563 24.7464 15.7328 25.3363 15.7328Z" stroke="#0D313B" stroke-width="0.8" mask="url(#path-7-outside-3_6242_46450)"/>
</g>
<g id="Vector_5">
<mask id="path-8-outside-4_6242_46450" maskUnits="userSpaceOnUse" x="23.2666" y="17.9353" width="19" height="4" fill="black">
<rect fill="white" x="23.2666" y="17.9353" width="19" height="4"/>
<path d="M25.3363 21.0683H40.267C40.8537 21.0683 41.3335 20.5885 41.3335 20.0018C41.3335 19.4118 40.8537 18.9353 40.267 18.9353H25.3363C24.7464 18.9353 24.2666 19.4118 24.2666 20.0018C24.2666 20.5885 24.7464 21.0683 25.3363 21.0683Z"/>
</mask>
<path d="M25.3363 21.0683H40.267C40.8537 21.0683 41.3335 20.5885 41.3335 20.0018C41.3335 19.4118 40.8537 18.9353 40.267 18.9353H25.3363C24.7464 18.9353 24.2666 19.4118 24.2666 20.0018C24.2666 20.5885 24.7464 21.0683 25.3363 21.0683Z" fill="#0D313B"/>
<path d="M25.3363 21.0683H40.267C40.8537 21.0683 41.3335 20.5885 41.3335 20.0018C41.3335 19.4118 40.8537 18.9353 40.267 18.9353H25.3363C24.7464 18.9353 24.2666 19.4118 24.2666 20.0018C24.2666 20.5885 24.7464 21.0683 25.3363 21.0683Z" stroke="#0D313B" stroke-width="0.8" mask="url(#path-8-outside-4_6242_46450)"/>
</g>
<g id="Vector_6">
<mask id="path-9-outside-5_6242_46450" maskUnits="userSpaceOnUse" x="23.2666" y="23.2676" width="19" height="4" fill="black">
<rect fill="white" x="23.2666" y="23.2676" width="19" height="4"/>
<path d="M25.3363 26.4005H40.267C40.8537 26.4005 41.3335 25.9208 41.3335 25.3341C41.3335 24.7473 40.8537 24.2676 40.267 24.2676H25.3363C24.7464 24.2676 24.2666 24.7473 24.2666 25.3341C24.2666 25.9208 24.7464 26.4005 25.3363 26.4005Z"/>
</mask>
<path d="M25.3363 26.4005H40.267C40.8537 26.4005 41.3335 25.9208 41.3335 25.3341C41.3335 24.7473 40.8537 24.2676 40.267 24.2676H25.3363C24.7464 24.2676 24.2666 24.7473 24.2666 25.3341C24.2666 25.9208 24.7464 26.4005 25.3363 26.4005Z" fill="#0D313B"/>
<path d="M25.3363 26.4005H40.267C40.8537 26.4005 41.3335 25.9208 41.3335 25.3341C41.3335 24.7473 40.8537 24.2676 40.267 24.2676H25.3363C24.7464 24.2676 24.2666 24.7473 24.2666 25.3341C24.2666 25.9208 24.7464 26.4005 25.3363 26.4005Z" stroke="#0D313B" stroke-width="0.8" mask="url(#path-9-outside-5_6242_46450)"/>
</g>
<g id="Vector_7">
<mask id="path-10-outside-6_6242_46450" maskUnits="userSpaceOnUse" x="23.2666" y="28.6006" width="10" height="4" fill="black">
<rect fill="white" x="23.2666" y="28.6006" width="10" height="4"/>
<path d="M25.3363 31.7335H31.7352C32.3219 31.7335 32.8017 31.2538 32.8017 30.6671C32.8017 30.0803 32.3219 29.6006 31.7352 29.6006H25.3363C24.7464 29.6006 24.2666 30.0803 24.2666 30.6671C24.2666 31.2538 24.7464 31.7335 25.3363 31.7335Z"/>
</mask>
<path d="M25.3363 31.7335H31.7352C32.3219 31.7335 32.8017 31.2538 32.8017 30.6671C32.8017 30.0803 32.3219 29.6006 31.7352 29.6006H25.3363C24.7464 29.6006 24.2666 30.0803 24.2666 30.6671C24.2666 31.2538 24.7464 31.7335 25.3363 31.7335Z" fill="#0D313B"/>
<path d="M25.3363 31.7335H31.7352C32.3219 31.7335 32.8017 31.2538 32.8017 30.6671C32.8017 30.0803 32.3219 29.6006 31.7352 29.6006H25.3363C24.7464 29.6006 24.2666 30.0803 24.2666 30.6671C24.2666 31.2538 24.7464 31.7335 25.3363 31.7335Z" stroke="#0D313B" stroke-width="0.8" mask="url(#path-10-outside-6_6242_46450)"/>
</g>
<g id="Vector_8">
<mask id="path-11-outside-7_6242_46450" maskUnits="userSpaceOnUse" x="23.2666" y="33.9329" width="6" height="4" fill="black">
<rect fill="white" x="23.2666" y="33.9329" width="6" height="4"/>
<path d="M28.5358 35.9993C28.5358 35.4126 28.056 34.9329 27.4693 34.9329H25.3363C24.7464 34.9329 24.2666 35.4126 24.2666 35.9993C24.2666 36.5893 24.7464 37.0658 25.3363 37.0658H27.4693C28.056 37.0658 28.5358 36.5893 28.5358 35.9993Z"/>
</mask>
<path d="M28.5358 35.9993C28.5358 35.4126 28.056 34.9329 27.4693 34.9329H25.3363C24.7464 34.9329 24.2666 35.4126 24.2666 35.9993C24.2666 36.5893 24.7464 37.0658 25.3363 37.0658H27.4693C28.056 37.0658 28.5358 36.5893 28.5358 35.9993Z" fill="#0D313B"/>
<path d="M28.5358 35.9993C28.5358 35.4126 28.056 34.9329 27.4693 34.9329H25.3363C24.7464 34.9329 24.2666 35.4126 24.2666 35.9993C24.2666 36.5893 24.7464 37.0658 25.3363 37.0658H27.4693C28.056 37.0658 28.5358 36.5893 28.5358 35.9993Z" stroke="#0D313B" stroke-width="0.8" mask="url(#path-11-outside-7_6242_46450)"/>
</g>
<g id="Vector_9">
<mask id="path-12-outside-8_6242_46450" maskUnits="userSpaceOnUse" x="8.33496" y="40.3345" width="17" height="4" fill="black">
<rect fill="white" x="8.33496" y="40.3345" width="17" height="4"/>
<path d="M23.1992 41.3345H10.4014C9.81471 41.3345 9.33496 41.811 9.33496 42.401C9.33496 42.9877 9.81471 43.4674 10.4014 43.4674H23.1992C23.7891 43.4674 24.2656 42.9877 24.2656 42.401C24.2656 41.811 23.7891 41.3345 23.1992 41.3345Z"/>
</mask>
<path d="M23.1992 41.3345H10.4014C9.81471 41.3345 9.33496 41.811 9.33496 42.401C9.33496 42.9877 9.81471 43.4674 10.4014 43.4674H23.1992C23.7891 43.4674 24.2656 42.9877 24.2656 42.401C24.2656 41.811 23.7891 41.3345 23.1992 41.3345Z" fill="#0D313B"/>
<path d="M23.1992 41.3345H10.4014C9.81471 41.3345 9.33496 41.811 9.33496 42.401C9.33496 42.9877 9.81471 43.4674 10.4014 43.4674H23.1992C23.7891 43.4674 24.2656 42.9877 24.2656 42.401C24.2656 41.811 23.7891 41.3345 23.1992 41.3345Z" stroke="#0D313B" stroke-width="0.8" mask="url(#path-12-outside-8_6242_46450)"/>
</g>
<g id="Vector_10">
<mask id="path-13-outside-9_6242_46450" maskUnits="userSpaceOnUse" x="8.33496" y="45.6672" width="17" height="4" fill="black">
<rect fill="white" x="8.33496" y="45.6672" width="17" height="4"/>
<path d="M23.1992 46.6672H10.4014C9.81471 46.6672 9.33496 47.147 9.33496 47.7337C9.33496 48.3204 9.81471 48.8002 10.4014 48.8002H23.1992C23.7891 48.8002 24.2656 48.3204 24.2656 47.7337C24.2656 47.147 23.7891 46.6672 23.1992 46.6672Z"/>
</mask>
<path d="M23.1992 46.6672H10.4014C9.81471 46.6672 9.33496 47.147 9.33496 47.7337C9.33496 48.3204 9.81471 48.8002 10.4014 48.8002H23.1992C23.7891 48.8002 24.2656 48.3204 24.2656 47.7337C24.2656 47.147 23.7891 46.6672 23.1992 46.6672Z" fill="#0D313B"/>
<path d="M23.1992 46.6672H10.4014C9.81471 46.6672 9.33496 47.147 9.33496 47.7337C9.33496 48.3204 9.81471 48.8002 10.4014 48.8002H23.1992C23.7891 48.8002 24.2656 48.3204 24.2656 47.7337C24.2656 47.147 23.7891 46.6672 23.1992 46.6672Z" stroke="#0D313B" stroke-width="0.8" mask="url(#path-13-outside-9_6242_46450)"/>
</g>
<g id="Vector_11">
<mask id="path-14-outside-10_6242_46450" maskUnits="userSpaceOnUse" x="8.33496" y="50.9995" width="17" height="4" fill="black">
<rect fill="white" x="8.33496" y="50.9995" width="17" height="4"/>
<path d="M23.1992 51.9995H10.4014C9.81471 51.9995 9.33496 52.4793 9.33496 53.066C9.33496 53.6527 9.81471 54.1325 10.4014 54.1325H23.1992C23.7891 54.1325 24.2656 53.6527 24.2656 53.066C24.2656 52.4793 23.7891 51.9995 23.1992 51.9995Z"/>
</mask>
<path d="M23.1992 51.9995H10.4014C9.81471 51.9995 9.33496 52.4793 9.33496 53.066C9.33496 53.6527 9.81471 54.1325 10.4014 54.1325H23.1992C23.7891 54.1325 24.2656 53.6527 24.2656 53.066C24.2656 52.4793 23.7891 51.9995 23.1992 51.9995Z" fill="#0D313B"/>
<path d="M23.1992 51.9995H10.4014C9.81471 51.9995 9.33496 52.4793 9.33496 53.066C9.33496 53.6527 9.81471 54.1325 10.4014 54.1325H23.1992C23.7891 54.1325 24.2656 53.6527 24.2656 53.066C24.2656 52.4793 23.7891 51.9995 23.1992 51.9995Z" stroke="#0D313B" stroke-width="0.8" mask="url(#path-14-outside-10_6242_46450)"/>
</g>
</g>
</g>
</g>
</svg>
