<svg width="72" height="72" viewBox="0 0 72 72" fill="none" xmlns="http://www.w3.org/2000/svg">
<g id="pesangon-payslip">
<g id="Group 1171275335">
<g id="Group">
<g id="Vector">
<path d="M10.75 65.8144H43.4773C44.0606 67.0985 45.3523 68 46.8561 68H64.2841C66.3333 68 67.9962 66.3333 67.9962 64.2879V57.9811C67.9962 55.9356 66.3295 54.2689 64.2841 54.2689H60.928L61.8902 49.1629C63.6932 47.4735 64.7159 45.1288 64.7159 42.6439C64.7159 37.7235 60.7121 33.7159 55.7879 33.7159C55.7045 33.7159 55.6288 33.7235 55.5492 33.7273V10.3447C55.5492 6.8447 52.5227 4 48.803 4H10.75C7.02652 4 4 6.8447 4 10.3447V59.4659C4 62.9659 7.02652 65.8144 10.75 65.8144ZM64.9508 57.9811V64.2879C64.9508 64.6477 64.6439 64.9508 64.2879 64.9508H46.8561C46.4962 64.9508 46.1932 64.6477 46.1932 64.2879V57.9811C46.1932 57.6136 46.4886 57.3182 46.8561 57.3182H64.2879C64.6439 57.3182 64.9508 57.6212 64.9508 57.9811ZM61.6705 42.6439C61.6705 44.4053 60.8864 46.0644 59.5227 47.1932C59.2462 47.4167 59.0606 47.7349 58.9962 48.0833L57.8295 54.2689H53.7614L52.5985 48.0909C52.5341 47.7386 52.3409 47.4205 52.0644 47.1932C50.6932 46.072 49.9053 44.4167 49.9053 42.6439C49.9053 39.4015 52.5455 36.7614 55.7879 36.7614C59.0303 36.7614 61.6705 39.4015 61.6705 42.6439ZM7.04545 10.3447C7.04545 8.52652 8.70833 7.04924 10.75 7.04924H48.803C50.8447 7.04924 52.5038 8.52652 52.5038 10.3447V34.3485C49.2008 35.6629 46.8561 38.8826 46.8561 42.6439C46.8561 45.1402 47.8864 47.4886 49.7008 49.1742L50.6591 54.2689H46.8561C44.8106 54.2689 43.1439 55.9356 43.1439 57.9811V62.7652H10.75C8.70833 62.7652 7.04545 61.2841 7.04545 59.4659V10.3447Z" fill="#0D313B"/>
<path d="M64.9508 57.9811V64.2879C64.9508 64.6477 64.6439 64.9508 64.2879 64.9508H46.8561C46.4962 64.9508 46.1932 64.6477 46.1932 64.2879V57.9811C46.1932 57.6136 46.4886 57.3182 46.8561 57.3182H64.2879C64.6439 57.3182 64.9508 57.6212 64.9508 57.9811Z" fill="#2894B4"/>
<path d="M61.6705 42.6439C61.6705 44.4053 60.8864 46.0644 59.5227 47.1932C59.2462 47.4167 59.0606 47.7349 58.9962 48.0833L57.8295 54.2689H53.7614L52.5985 48.0909C52.5341 47.7386 52.3409 47.4205 52.0644 47.1932C50.6932 46.072 49.9053 44.4167 49.9053 42.6439C49.9053 39.4015 52.5455 36.7614 55.7879 36.7614C59.0303 36.7614 61.6705 39.4015 61.6705 42.6439Z" fill="#68D4F4"/>
</g>
</g>
<path id="Vector_2" d="M16.0079 24.0763C14.7579 22.3983 12.917 24.0195 13.9701 25.4324C14.6178 26.2846 15.4549 26.8036 16.5004 27.0346V28.0574C16.5004 29.5119 18.7276 29.5043 18.7276 28.1028V27.0119C19.5382 26.8225 20.2239 26.4286 20.7958 25.8339C22.5799 23.9703 21.7996 21.1672 19.0458 20.3642C18.2617 20.1407 16.4436 20.0612 16.4436 19.0649C16.4436 17.5233 18.5117 18.0574 19.2201 18.6559C20.5382 19.7695 21.9928 18.0043 20.5496 16.6899C20.0042 16.2278 19.417 15.9627 18.7276 15.8149V14.6218C18.7276 13.243 16.4928 13.3452 16.5004 14.5081V15.796C14.4928 16.2165 13.5951 18.2013 13.8792 19.8339C14.3375 22.5157 16.9511 21.6066 18.4132 22.868C19.9776 24.2127 17.5269 25.8301 16.0079 24.0763Z" fill="#0D313B"/>
<path id="Vector_3" d="M26.4475 27.9057H40.5877C41.4286 27.9057 42.1104 27.2239 42.1104 26.3792C42.1104 25.5383 41.4286 24.8564 40.5877 24.8564H26.4475C25.6066 24.8564 24.9248 25.5383 24.9248 26.3792C24.9248 27.2239 25.6066 27.9057 26.4475 27.9057Z" fill="#0D313B"/>
<path id="Vector_4" d="M26.8146 20.1481H40.5873C41.4282 20.1481 42.1101 19.4663 42.1101 18.6254C42.1101 17.7807 41.4282 17.0989 40.5873 17.0989H26.8146C25.9737 17.0989 25.2881 17.7807 25.2881 18.6254C25.2881 19.4663 25.9737 20.1481 26.8146 20.1481Z" fill="#0D313B"/>
<path id="Vector_5" d="M15.5042 33.1821C14.6633 33.1821 13.9814 33.8639 13.9814 34.7049C13.9814 35.5496 14.6633 36.2314 15.5042 36.2314H41.4322C42.2731 36.2314 42.9587 35.5496 42.9587 34.7049C42.9587 33.8639 42.2731 33.1821 41.4322 33.1821H15.5042Z" fill="#0D313B"/>
<path id="Vector_6" d="M26.9739 41.8372H17.0345C15.3527 41.8372 13.9814 43.2084 13.9814 44.894V49.3182C13.9814 51.0038 15.3527 52.375 17.0345 52.375H26.9739C28.6595 52.375 30.0345 51.0038 30.0345 49.3182V44.894C30.0307 43.2084 28.6595 41.8372 26.9739 41.8372ZM26.9777 49.3258L17.0269 49.3182L17.0345 44.8826L26.9852 44.894L26.9777 49.3258Z" fill="#0D313B"/>
</g>
</g>
</svg>
