<svg width="72" height="72" viewBox="0 0 72 72" fill="none" xmlns="http://www.w3.org/2000/svg">
<g id="ptkp-harian-lepas">
<g id="Group 1171275337">
<g id="Group">
<g id="Vector">
<path d="M67.8981 31.1849C67.8697 31.1014 67.8363 31.0179 67.7962 30.9377C67.7962 30.9377 67.7962 30.8659 67.7962 30.8375C67.7494 30.7723 67.696 30.7139 67.6358 30.6621C67.6358 30.6621 67.6358 30.5752 67.5339 30.5318L60.7703 24.7136V14.1814C60.7703 13.9893 60.7335 13.8039 60.66 13.6251C60.5849 13.4481 60.4796 13.2894 60.3443 13.1541C60.2073 13.0171 60.0503 12.9119 59.8716 12.8384C59.6945 12.7649 59.5091 12.7281 59.3153 12.7281H46.7185L36.9446 4.34912C36.8127 4.2372 36.6657 4.15034 36.5036 4.0902C36.3399 4.03007 36.1729 4 35.9992 4C35.8254 4 35.6584 4.03007 35.4947 4.0902C35.3327 4.15034 35.1857 4.2372 35.0537 4.34912L25.2799 12.7281H12.7264C12.5343 12.7281 12.3472 12.7649 12.1702 12.8384C11.9914 12.9119 11.8344 13.0171 11.6974 13.1541C11.5621 13.2894 11.4569 13.4481 11.3834 13.6251C11.3082 13.8039 11.2715 13.9893 11.2715 14.1814V24.727L4.50782 30.5451C4.4694 30.5902 4.43599 30.6387 4.40592 30.6905C4.34244 30.7339 4.28899 30.7874 4.24723 30.8508C4.24723 30.8508 4.24723 30.9243 4.24723 30.9527C4.20714 31.0329 4.17206 31.1148 4.14533 31.2C4.12361 31.3119 4.12361 31.4238 4.14533 31.534L4 31.6359V63.6368C4 63.9224 4.02673 64.2064 4.08352 64.4887C4.13865 64.7693 4.22217 65.0416 4.33075 65.3072C4.441 65.5712 4.57464 65.8234 4.735 66.0606C4.89369 66.2995 5.0741 66.52 5.2779 66.7221C5.48002 66.9242 5.70052 67.1063 5.93772 67.265C6.1766 67.4237 6.42884 67.559 6.69277 67.6676C6.95837 67.7778 7.23065 67.8597 7.51129 67.9165C7.79192 67.9716 8.0759 68 8.36322 68H63.6351C63.9224 68 64.2064 67.9716 64.487 67.9165C64.7677 67.8597 65.04 67.7778 65.3056 67.6676C65.5695 67.559 65.8217 67.4237 66.0606 67.265C66.2978 67.1063 66.5183 66.9242 66.7204 66.7221C66.9242 66.52 67.1046 66.2995 67.2633 66.0606C67.4237 65.8234 67.5573 65.5712 67.6676 65.3072C67.7762 65.0416 67.8597 64.7693 67.9148 64.4887C67.9716 64.2064 67.9983 63.9224 67.9983 63.6368V31.6359C67.9983 31.6359 67.9983 31.5641 67.9983 31.5207C67.9866 31.4021 67.9532 31.2902 67.8981 31.1849ZM6.90826 34.3571L24.9308 46.371L6.90826 63.1123V34.3571ZM44.2896 44.7273H27.7087L23.3438 41.819H48.6545L44.2896 44.7273ZM39.9264 47.6372L35.9992 50.2548L32.0719 47.6372H39.9264ZM27.4181 48.0298L35.199 53.2082C35.4412 53.3668 35.7085 53.447 35.9992 53.447C36.2898 53.447 36.5571 53.3668 36.7993 53.2082L44.5803 48.0298L62.9519 65.0917H9.04643L27.4181 48.0298ZM65.0901 63.1123L47.0676 46.371L65.0901 34.3571V63.1123ZM64.1446 31.4906L60.7269 33.7608V28.5673L64.1446 31.4906ZM35.9992 7.37431L42.2533 12.7281H29.745L35.9992 7.37431ZM57.8169 15.6364V35.7102L53.0177 38.9091H18.9806L14.1814 35.7102V15.6364H57.8169ZM11.2715 33.7608L7.85373 31.4906L11.2715 28.5824V33.7608Z" fill="#0D313B"/>
<path d="M27.4181 48.0298L35.199 53.2082C35.4412 53.3668 35.7085 53.447 35.9992 53.447C36.2898 53.447 36.5571 53.3668 36.7993 53.2082L44.5803 48.0298L62.9519 65.0917H9.04643L27.4181 48.0298Z" fill="#2894B4"/>
<path d="M57.8169 15.6364V35.7102L53.0177 38.9091H18.9806L14.1814 35.7102V15.6364H57.8169Z" fill="#2894B4"/>
</g>
</g>
<path id="Vector_2" d="M17.09 33.0909C17.2821 33.0909 17.4709 33.1093 17.658 33.1477C17.8451 33.1844 18.0271 33.2396 18.2042 33.3131C18.3796 33.3849 18.5483 33.4751 18.707 33.582C18.8657 33.6872 19.0127 33.8075 19.148 33.9428C19.2833 34.0781 19.4036 34.2251 19.5088 34.3838C19.6157 34.5425 19.7043 34.7112 19.7778 34.8866C19.8513 35.0637 19.9064 35.2458 19.9431 35.4329C19.9816 35.62 19.9999 35.8087 19.9999 36.0008C19.9999 36.1929 20.0367 36.3783 20.1102 36.5571C20.1837 36.7358 20.2889 36.8928 20.4259 37.0281C20.5612 37.1651 20.7199 37.2704 20.897 37.3439C21.0757 37.4174 21.2611 37.4541 21.4549 37.4541H50.5441C50.7379 37.4541 50.9233 37.4174 51.1021 37.3439C51.2791 37.2704 51.4378 37.1651 51.5731 37.0281C51.7101 36.8928 51.8154 36.7358 51.8889 36.5571C51.9624 36.3783 51.9991 36.1929 51.9991 36.0008C51.9991 35.8087 52.0175 35.62 52.0559 35.4329C52.0926 35.2458 52.1478 35.0637 52.2213 34.8866C52.2948 34.7112 52.3833 34.5425 52.4902 34.3838C52.5955 34.2251 52.7157 34.0781 52.851 33.9428C52.9863 33.8075 53.1333 33.6872 53.292 33.582C53.4507 33.4751 53.6194 33.3849 53.7948 33.3131C53.9719 33.2396 54.154 33.1844 54.3411 33.1477C54.5282 33.1093 54.7169 33.0909 54.909 33.0909C55.1011 33.0909 55.2866 33.0541 55.4653 32.9806C55.644 32.9071 55.8011 32.8019 55.9364 32.6649C56.0733 32.5279 56.1786 32.3709 56.2521 32.1939C56.3256 32.0151 56.3623 31.8297 56.3623 31.6359V22.9095C56.3623 22.7157 56.3256 22.5303 56.2521 22.3532C56.1786 22.1745 56.0733 22.0175 55.9364 21.8805C55.8011 21.7452 55.644 21.6399 55.4653 21.5648C55.2866 21.4913 55.1011 21.4545 54.909 21.4545C54.7169 21.4545 54.5282 21.4362 54.3411 21.3994C54.154 21.361 53.9719 21.3059 53.7948 21.234C53.6194 21.1605 53.4507 21.0703 53.292 20.9651C53.1333 20.8582 52.9863 20.7379 52.851 20.6026C52.7157 20.4673 52.5955 20.3203 52.4902 20.1616C52.3833 20.0029 52.2948 19.8359 52.2213 19.6588C52.1478 19.4817 52.0926 19.3013 52.0559 19.1126C52.0175 18.9255 51.9991 18.7367 51.9991 18.5463C51.9991 18.3525 51.9624 18.1671 51.8889 17.9883C51.8154 17.8113 51.7101 17.6543 51.5731 17.5173C51.4378 17.3803 51.2791 17.2751 51.1021 17.2016C50.9233 17.1281 50.7379 17.0913 50.5441 17.0913H21.4549C21.2611 17.0913 21.0757 17.1281 20.897 17.2016C20.7199 17.2751 20.5612 17.3803 20.4259 17.5173C20.2889 17.6543 20.1837 17.8113 20.1102 17.9883C20.0367 18.1671 19.9999 18.3525 19.9999 18.5463C19.9999 18.7367 19.9816 18.9255 19.9431 19.1126C19.9064 19.3013 19.8513 19.4817 19.7778 19.6588C19.7043 19.8359 19.6157 20.0029 19.5088 20.1616C19.4036 20.3203 19.2833 20.4673 19.148 20.6026C19.0127 20.7379 18.8657 20.8582 18.707 20.9651C18.5483 21.0703 18.3796 21.1605 18.2042 21.234C18.0271 21.3059 17.8451 21.361 17.658 21.3994C17.4709 21.4362 17.2821 21.4545 17.09 21.4545C16.8979 21.4545 16.7125 21.4913 16.5338 21.5648C16.355 21.6399 16.198 21.7452 16.0627 21.8805C15.9257 22.0175 15.8205 22.1745 15.747 22.3532C15.6735 22.5303 15.6367 22.7157 15.6367 22.9095V31.6359C15.6367 31.8297 15.6735 32.0151 15.747 32.1939C15.8205 32.3709 15.9257 32.5279 16.0627 32.6649C16.198 32.8019 16.355 32.9071 16.5338 32.9806C16.7125 33.0541 16.8979 33.0909 17.09 33.0909ZM18.545 24.174C19.0478 24.0454 19.5239 23.8516 19.9749 23.5927C20.4259 23.3355 20.8335 23.0231 21.201 22.6556C21.5685 22.2898 21.8809 21.8805 22.1381 21.4295C22.3954 20.9801 22.5891 20.5024 22.7194 19.9996H49.2796C49.4099 20.5024 49.6037 20.9801 49.8609 21.4295C50.1182 21.8805 50.4306 22.2898 50.798 22.6556C51.1655 23.0231 51.5731 23.3355 52.0242 23.5927C52.4752 23.8516 52.9513 24.0454 53.4541 24.174V30.3714C52.9513 30.5017 52.4752 30.6955 52.0242 30.9527C51.5731 31.21 51.1655 31.5223 50.798 31.8898C50.4306 32.2573 50.1182 32.6649 49.8609 33.1159C49.6037 33.567 49.4099 34.043 49.2796 34.5459H22.7194C22.5891 34.043 22.3954 33.567 22.1381 33.1159C21.8809 32.6649 21.5685 32.2573 21.201 31.8898C20.8335 31.5223 20.4259 31.21 19.9749 30.9527C19.5239 30.6955 19.0478 30.5017 18.545 30.3714V24.174Z" fill="#0D313B"/>
<path id="Vector_3" d="M35.9988 33.091C36.3814 33.091 36.7589 33.0542 37.1331 32.979C37.5089 32.9055 37.8731 32.7953 38.2256 32.6483C38.578 32.503 38.9138 32.3225 39.2312 32.1104C39.5486 31.8983 39.8426 31.6577 40.1132 31.3871C40.3838 31.1165 40.6243 30.8225 40.8365 30.5051C41.0486 30.1877 41.2274 29.8519 41.3744 29.4995C41.5197 29.147 41.6299 28.7829 41.7051 28.4087C41.7803 28.0328 41.817 27.6553 41.817 27.2728C41.817 26.8902 41.7803 26.5127 41.7051 26.1385C41.6299 25.7627 41.5197 25.4002 41.3744 25.0461C41.2274 24.6936 41.0486 24.3578 40.8365 24.0404C40.6243 23.7231 40.3838 23.4291 40.1132 23.1585C39.8426 22.8895 39.5486 22.6473 39.2312 22.4351C38.9138 22.223 38.578 22.0443 38.2256 21.8973C37.8731 21.7519 37.5089 21.6417 37.1331 21.5665C36.7589 21.4913 36.3814 21.4546 35.9988 21.4546C35.6163 21.4546 35.2388 21.4913 34.8629 21.5665C34.4888 21.6417 34.1246 21.7519 33.7721 21.8973C33.4197 22.0443 33.0839 22.223 32.7665 22.4351C32.4491 22.6473 32.1551 22.8895 31.8845 23.1585C31.6139 23.4291 31.3734 23.7231 31.1612 24.0404C30.9491 24.3578 30.7703 24.6936 30.6233 25.0461C30.478 25.4002 30.3678 25.7627 30.2926 26.1385C30.2174 26.5127 30.1807 26.8902 30.1807 27.2728C30.1807 27.6553 30.2174 28.0328 30.2926 28.4087C30.3678 28.7829 30.478 29.147 30.6233 29.4995C30.7703 29.8519 30.9491 30.1877 31.1612 30.5051C31.3734 30.8225 31.6139 31.1165 31.8845 31.3871C32.1551 31.6577 32.4491 31.8983 32.7665 32.1104C33.0839 32.3225 33.4197 32.503 33.7721 32.6483C34.1246 32.7953 34.4888 32.9055 34.8629 32.979C35.2388 33.0542 35.6163 33.091 35.9988 33.091ZM35.9988 24.3645C36.1893 24.3645 36.3797 24.3829 36.5668 24.4196C36.7539 24.4564 36.936 24.5115 37.1114 24.585C37.2884 24.6585 37.4555 24.7487 37.6158 24.854C37.7745 24.9609 37.9215 25.0811 38.0552 25.2164C38.1905 25.3518 38.3108 25.4988 38.4177 25.6574C38.5246 25.8161 38.6131 25.9832 38.6866 26.1603C38.7601 26.3356 38.8152 26.5177 38.852 26.7048C38.8887 26.8936 38.9071 27.0823 38.9071 27.2728C38.9071 27.4649 38.8887 27.6536 38.852 27.8407C38.8152 28.0278 38.7601 28.2099 38.6866 28.387C38.6131 28.5624 38.5246 28.7311 38.4177 28.8898C38.3108 29.0485 38.1905 29.1955 38.0552 29.3308C37.9215 29.4644 37.7745 29.5863 37.6158 29.6916C37.4555 29.7985 37.2884 29.887 37.1114 29.9605C36.936 30.034 36.7539 30.0892 36.5668 30.1259C36.3797 30.1643 36.1893 30.1827 35.9988 30.1827C35.8084 30.1827 35.618 30.1643 35.4309 30.1259C35.2438 30.0892 35.0617 30.034 34.8863 29.9605C34.7093 29.887 34.5422 29.7985 34.3818 29.6916C34.2232 29.5863 34.0762 29.4644 33.9425 29.3308C33.8072 29.1955 33.6869 29.0485 33.58 28.8898C33.4731 28.7311 33.3846 28.5624 33.3111 28.387C33.2376 28.2099 33.1825 28.0278 33.1457 27.8407C33.109 27.6536 33.0889 27.4649 33.0906 27.2728C33.0906 27.0823 33.109 26.8936 33.1457 26.7048C33.1825 26.5177 33.2376 26.3356 33.3111 26.1603C33.3846 25.9832 33.4731 25.8161 33.58 25.6574C33.6869 25.4988 33.8072 25.3518 33.9425 25.2164C34.0762 25.0811 34.2232 24.9609 34.3818 24.854C34.5422 24.7487 34.7093 24.6585 34.8863 24.585C35.0617 24.5115 35.2438 24.4564 35.4309 24.4196C35.618 24.3829 35.8084 24.3645 35.9988 24.3645Z" fill="#0D313B"/>
</g>
</g>
</svg>
