<svg width="72" height="72" viewBox="0 0 72 72" fill="none" xmlns="http://www.w3.org/2000/svg">
<g id="report">
<g id="Group 1000001359">
<path id="Vector" d="M31.8078 58.0444H39.393M31.8078 58.0444V51.7234M31.8078 58.0444H24.9812C24.78 58.0444 24.5871 57.9645 24.4448 57.8222C24.3026 57.68 24.2227 57.487 24.2227 57.2859V52.4819C24.2227 52.2807 24.3026 52.0878 24.4448 51.9456C24.5871 51.8033 24.78 51.7234 24.9812 51.7234H31.8078M39.393 58.0444V42.874M39.393 58.0444H46.2197C46.4209 58.0444 46.6138 57.9645 46.7561 57.8222C46.8983 57.68 46.9782 57.487 46.9782 57.2859V36.0473C46.9782 35.8462 46.8983 35.6532 46.7561 35.511C46.6138 35.3687 46.4209 35.2888 46.2197 35.2888H40.1515C39.9504 35.2888 39.7574 35.3687 39.6152 35.511C39.4729 35.6532 39.393 35.8462 39.393 36.0473V42.874M39.393 42.874H32.5664C32.3652 42.874 32.1723 42.9539 32.03 43.0962C31.8878 43.2384 31.8078 43.4314 31.8078 43.6325V51.7234" stroke="#4D0000" stroke-width="2.05714"/>
<g id="Group 159036">
<g id="Vector_2">
<path d="M59.3248 24.5248L40.672 5.8752C40.6225 5.82922 40.5702 5.78647 40.5152 5.7472C40.4756 5.71665 40.4372 5.68463 40.4 5.6512C40.1798 5.44343 39.9457 5.25098 39.6992 5.0752C39.6173 5.02234 39.5317 4.97529 39.4432 4.9344L39.2896 4.8576L39.1296 4.7648C38.9568 4.6656 38.7808 4.5632 38.5984 4.4864C37.9612 4.23188 37.2867 4.08273 36.6016 4.0448C36.5383 4.04068 36.4753 4.0332 36.4128 4.0224C36.3259 4.00899 36.2383 4.0015 36.1504 4H16.4C14.7026 4 13.0747 4.67428 11.8745 5.87452C10.6743 7.07475 10 8.70261 10 10.4V61.6C10 63.2974 10.6743 64.9252 11.8745 66.1255C13.0747 67.3257 14.7026 68 16.4 68H54.8C56.4974 68 58.1252 67.3257 59.3255 66.1255C60.5257 64.9252 61.2 63.2974 61.2 61.6V29.0496C61.1996 27.3524 60.5251 25.7248 59.3248 24.5248ZM56.4 61.6C56.4 62.0243 56.2314 62.4313 55.9314 62.7314C55.6313 63.0314 55.2243 63.2 54.8 63.2H16.4C15.9757 63.2 15.5687 63.0314 15.2686 62.7314C14.9686 62.4313 14.8 62.0243 14.8 61.6V10.4C14.8 9.97565 14.9686 9.56869 15.2686 9.26863C15.5687 8.96857 15.9757 8.8 16.4 8.8H35.6V23.2C35.6 24.8974 36.2743 26.5252 37.4745 27.7255C38.6748 28.9257 40.3026 29.6 42 29.6H56.4V61.6ZM40.4 12.3872L52.8096 24.8H42C41.5757 24.8 41.1687 24.6314 40.8686 24.3314C40.5686 24.0313 40.4 23.6243 40.4 23.2V12.3872Z" fill="#4D0000"/>
<path d="M40.4 12.3872L52.8096 24.8H42C41.5757 24.8 41.1687 24.6314 40.8686 24.3314C40.5686 24.0313 40.4 23.6243 40.4 23.2V12.3872Z" fill="#E60000"/>
</g>
</g>
</g>
</g>
</svg>
