<svg width="72" height="72" viewBox="0 0 72 72" fill="none" xmlns="http://www.w3.org/2000/svg">
<g id="salary-rules">
<g id="Group">
<g id="Vector">
<path d="M23.3032 4.16588C22.2528 4.42848 21.465 4.87866 20.6646 5.67897C19.8518 6.49179 19.3516 7.37964 19.1265 8.46757C19.0265 8.93025 18.989 12.9443 18.989 21.7228V34.3277L17.7885 34.5528C14.3497 35.1906 11.436 36.7537 8.92253 39.3047C6.88423 41.3555 5.74628 43.2062 4.87094 45.8198C3.20778 50.8217 3.94557 56.1613 6.92174 60.6381C7.25938 61.1508 8.15973 62.2012 8.92253 62.964C11.3485 65.415 13.887 66.828 17.4259 67.6784L18.5513 67.941L40.4974 67.991C56.5788 68.016 62.6437 67.991 63.1939 67.8909C64.2068 67.6909 65.5073 66.9906 66.1826 66.2653C66.8453 65.565 67.4205 64.4646 67.6206 63.5392C67.7207 63.064 67.7582 56.5865 67.7582 40.4301C67.7582 20.1222 67.7332 17.9463 67.5581 17.5837C67.283 17.0334 54.8031 4.52852 54.2278 4.2284C53.7777 4.00331 53.3525 3.99081 38.8468 4.00331C27.3548 4.01582 23.7909 4.05333 23.3032 4.16588ZM51.5018 13.2444C51.5018 18.5215 51.5143 18.7716 51.7519 19.2468C51.9144 19.5719 52.177 19.8345 52.5022 19.9971C52.9774 20.2347 53.2275 20.2472 58.5045 20.2472H64.0067V41.5056C64.0067 62.5763 64.0067 62.7764 63.7566 63.2641C63.594 63.5892 63.3314 63.8519 63.0063 64.0144C62.5186 64.2645 62.306 64.2645 47.0375 64.2645H31.5564L32.8194 62.9765C35.2704 60.5005 36.821 57.5619 37.4462 54.2106L37.6713 53.0101H47.5877C57.2916 53.0101 57.5291 53.0101 58.0043 52.76C58.5671 52.4724 59.0047 51.7596 59.0047 51.1343C59.0047 50.5091 58.5671 49.7963 58.0043 49.5087C57.5291 49.2586 57.2916 49.2586 47.5877 49.2586H37.6463L37.5713 48.6584C37.3087 46.8827 36.4709 44.4567 35.5455 42.8561C35.2454 42.3309 34.9953 41.8557 34.9953 41.8182C34.9953 41.7807 40.0598 41.7557 46.2497 41.7557C57.2916 41.7557 57.5291 41.7557 58.0043 41.5056C58.5671 41.2179 59.0047 40.5052 59.0047 39.8799C59.0047 39.2547 58.5671 38.5419 58.0043 38.2543C57.5166 38.0042 57.2916 38.0042 44.499 38.0042H31.4814L30.8311 37.529C28.7303 35.9659 25.8542 34.7779 23.3407 34.4278L22.7405 34.3527V21.7603C22.753 7.61723 22.6779 8.65514 23.6908 8.0424L24.1785 7.74228H37.8464H51.5018V13.2444ZM58.317 13.4945L61.3181 16.4957H58.2794H55.2533V13.4945C55.2533 11.8439 55.2658 10.4934 55.2908 10.4934C55.3033 10.4934 56.6663 11.8439 58.317 13.4945ZM23.8659 38.3543C26.3419 39.0046 28.4302 40.18 30.1309 41.8682C31.819 43.5564 32.957 45.5822 33.6573 48.1332C33.8573 48.9085 33.9074 49.4337 33.9074 51.1343C33.9074 53.3852 33.7823 54.073 33.007 56.0738C31.8315 59.1125 28.8429 62.1012 25.8042 63.2766C23.8034 64.0519 23.1156 64.177 20.8647 64.177C18.6138 64.177 17.9261 64.0519 15.9253 63.2766C12.8866 62.1012 9.89791 59.1125 8.72245 56.0738C7.95965 54.098 7.8221 53.3727 7.80959 51.1969C7.79709 48.9585 8.00967 47.8581 8.79748 45.9948C10.5107 41.9307 14.5247 38.817 18.9265 38.1292C20.1019 37.9542 22.778 38.0792 23.8659 38.3543Z" fill="#0D313B"/>
<path d="M23.8659 38.3543C26.3419 39.0046 28.4302 40.18 30.1309 41.8682C31.819 43.5564 32.957 45.5822 33.6573 48.1332C33.8573 48.9085 33.9074 49.4337 33.9074 51.1343C33.9074 53.3852 33.7823 54.073 33.007 56.0738C31.8315 59.1125 28.8429 62.1012 25.8042 63.2766C23.8034 64.0519 23.1156 64.177 20.8647 64.177C18.6138 64.177 17.9261 64.0519 15.9253 63.2766C12.8866 62.1012 9.89791 59.1125 8.72245 56.0738C7.95965 54.098 7.8221 53.3727 7.80959 51.1969C7.79709 48.9585 8.00967 47.8581 8.79748 45.9948C10.5107 41.9307 14.5247 38.817 18.9265 38.1292C20.1019 37.9542 22.778 38.0792 23.8659 38.3543Z" fill="#2894B4"/>
<path d="M58.317 13.4945L61.3181 16.4957H58.2794H55.2533V13.4945C55.2533 11.8439 55.2658 10.4934 55.2908 10.4934C55.3033 10.4934 56.6663 11.8439 58.317 13.4945Z" fill="#68D4F4"/>
</g>
<path id="Vector_2" d="M48.5562 19.1838C48.3561 19.2963 46.4804 21.0845 44.4045 23.1479L40.6155 26.9243L39.34 25.6488C38.6273 24.9611 37.877 24.2983 37.6519 24.1858C36.1263 23.423 34.4256 25.1236 35.1884 26.6492C35.4635 27.1995 39.2025 30.9509 39.7652 31.251C40.3279 31.5387 40.8656 31.5512 41.4034 31.2886C41.9536 31.0135 50.707 22.285 51.0071 21.7098C51.3072 21.1096 51.3072 20.5969 50.9946 19.9841C50.557 19.1213 49.4065 18.7461 48.5562 19.1838Z" fill="#0D313B"/>
</g>
<g id="Group_2">
<g id="Vector_3">
<path d="M21.636 41.0109C21.6064 41.0183 21.4544 41.0442 21.3025 41.0665C20.3463 41.2221 19.3976 41.8114 18.7786 42.6341C18.4933 43.0121 18.2153 43.5829 18.0893 44.0498C18.0004 44.3834 17.9893 44.4834 17.9893 45.069C17.9893 45.6545 18.0004 45.7546 18.0893 46.0882C18.3932 47.2259 19.1826 48.1969 20.2277 48.7269C20.539 48.8862 21.0579 49.053 21.421 49.1086C21.8361 49.1753 22.6477 49.1382 23.0443 49.0345C23.7559 48.8454 24.3266 48.5267 24.8677 48.0042C25.4124 47.4816 25.8016 46.8182 25.998 46.0882C26.0869 45.7546 26.0981 45.6545 26.0981 45.069C26.0981 44.4871 26.0869 44.3834 25.998 44.061C25.594 42.5489 24.4007 41.4074 22.8812 41.0813C22.6403 41.0294 21.7657 40.9775 21.636 41.0109ZM22.8775 41.8447C24.2969 42.2116 25.2976 43.4495 25.368 44.9208C25.4829 47.3371 23.0851 49.053 20.8133 48.1784C19.8015 47.7855 19.001 46.8368 18.7786 45.7546C18.4006 43.9275 19.6014 42.1375 21.4396 41.7892C21.8287 41.715 22.4847 41.741 22.8775 41.8447Z" fill="#0D313B"/>
<path d="M22.8775 41.8447C24.2969 42.2116 25.2976 43.4495 25.368 44.9208C25.4829 47.3371 23.0851 49.053 20.8133 48.1784C19.8015 47.7855 19.001 46.8368 18.7786 45.7546C18.4006 43.9275 19.6014 42.1375 21.4396 41.7892C21.8287 41.715 22.4847 41.741 22.8775 41.8447Z" fill="#2894B4"/>
</g>
<path id="Vector_4" d="M21.7772 42.5376C21.6401 42.6229 21.5993 42.7341 21.5993 43.0268C21.5993 43.2751 21.5956 43.2826 21.4844 43.327C21.4214 43.353 21.2917 43.453 21.1953 43.5494C20.6506 44.0756 20.7951 44.9836 21.477 45.3246C21.5622 45.3653 21.7475 45.4172 21.8847 45.4395C22.0959 45.4654 22.1552 45.4913 22.2405 45.5877C22.3516 45.7137 22.3665 45.836 22.2849 45.9954C22.1515 46.2548 21.8106 46.2437 21.5622 45.9768C21.351 45.7508 21.1027 45.7211 20.9285 45.9064C20.8025 46.0398 20.8099 46.2363 20.947 46.4142C21.0545 46.555 21.4585 46.8478 21.5437 46.8478C21.5771 46.8478 21.5956 46.9367 21.603 47.1665C21.6178 47.4593 21.6253 47.4889 21.7216 47.5741C21.792 47.6334 21.8698 47.6631 21.9699 47.6631C22.07 47.6631 22.1478 47.6334 22.2182 47.5741C22.3146 47.4926 22.322 47.4593 22.3331 47.1702C22.3479 46.8774 22.3553 46.8515 22.4295 46.8329C22.4776 46.8218 22.5925 46.744 22.6889 46.6587C23.4079 46.025 23.0743 44.8724 22.1293 44.7279C21.8143 44.6797 21.7179 44.6353 21.6512 44.5055C21.566 44.3425 21.5882 44.2202 21.7253 44.0831C21.9069 43.9015 22.0996 43.9237 22.3887 44.1646C22.6518 44.3832 23.0632 44.1424 22.9891 43.8088C22.9594 43.6791 22.7334 43.4641 22.5073 43.3567L22.3405 43.2751V43.0194C22.3405 42.7378 22.2775 42.5821 22.1293 42.5154C22.007 42.4598 21.8958 42.4672 21.7772 42.5376Z" fill="#0D313B"/>
<g id="Vector_5">
<path d="M28.0441 48.9528C27.755 49.0491 27.566 49.1899 27.1398 49.6347C26.936 49.8422 26.4134 50.3796 25.9798 50.8243L25.1904 51.6359L25.0236 51.4803C24.8087 51.2801 24.5122 51.1467 24.2009 51.106C24.0638 51.0911 23.0372 51.0763 21.918 51.0726H19.8834L19.5387 50.9614C19.0162 50.7947 18.6122 50.7354 18.0044 50.7354C16.9593 50.7354 16.118 50.9763 15.3064 51.5025C14.8913 51.7731 14.3317 52.3327 14.0649 52.744L13.8574 53.0628L13.5979 53.0813C13.1569 53.1146 13.0865 53.1665 11.9932 54.2598L11 55.2493V55.4235V55.6014L13.1347 57.7583C14.3095 58.9405 15.3064 59.93 15.3509 59.956C15.4547 60.0153 15.577 60.0153 15.6993 59.9523C15.7548 59.9226 16.244 59.452 16.7851 58.9035C17.9118 57.7694 17.9118 57.7657 17.8895 57.232L17.8747 56.9467L18.1564 56.6873C18.6048 56.2685 18.3713 56.2981 21.414 56.2981C23.0187 56.2981 24.149 56.2833 24.338 56.2611C24.9606 56.1795 25.5944 55.909 26.0725 55.5124C26.3467 55.2864 29.7414 51.2134 29.8489 50.98C29.9267 50.8206 29.9378 50.7354 29.9378 50.3685C29.9378 49.9756 29.9304 49.9237 29.8341 49.7199C29.6895 49.4197 29.4375 49.1677 29.1299 49.0232C28.8112 48.8749 28.3702 48.8453 28.0441 48.9528ZM28.8409 49.7125C29.0818 49.8496 29.2078 50.0386 29.2263 50.2869C29.2374 50.4278 29.2226 50.5464 29.1855 50.6353C29.1151 50.8021 25.9909 54.5563 25.6574 54.875C25.3868 55.1344 25.0422 55.3271 24.6382 55.4494C24.364 55.5347 24.338 55.5347 21.4696 55.5569C19.4683 55.5717 18.5418 55.5903 18.4603 55.6199C18.2045 55.7089 17.8932 55.9053 17.6449 56.1314L17.3855 56.3685L15.9364 54.9158L14.4837 53.463L14.6616 53.1851C15.3731 52.0807 16.5516 51.4766 17.997 51.4766C18.564 51.4766 18.9198 51.5322 19.3608 51.6915L19.6536 51.7953L21.9328 51.8138C24.2046 51.8323 24.212 51.8323 24.3677 51.9139C24.9013 52.1992 24.9013 52.9479 24.3677 53.2332C24.2157 53.3148 24.1861 53.3148 22.5147 53.3333L20.8136 53.3518L20.7246 53.4556C20.5986 53.6038 20.606 53.7817 20.7432 53.9337L20.8506 54.056L22.3961 54.0671C24.049 54.0782 24.338 54.0597 24.653 53.9151C25.1682 53.678 25.5684 53.0294 25.524 52.5031C25.5128 52.3808 25.5721 52.3104 26.7618 51.0837C27.4993 50.3277 28.0774 49.7607 28.1664 49.7088C28.3702 49.5976 28.6444 49.5976 28.8409 49.7125ZM15.4917 55.5087L17.152 57.169V57.3358V57.5026L16.3589 58.2883C15.9216 58.7219 15.551 59.0776 15.5325 59.0776C15.5177 59.0776 14.6838 58.2586 13.6869 57.2617L11.8709 55.4457L12.6937 54.623L13.5164 53.804L13.6721 53.8262C13.824 53.8447 13.9092 53.9263 15.4917 55.5087Z" fill="#0D313B"/>
<path d="M15.4917 55.5087L17.152 57.169V57.3358V57.5026L16.3589 58.2883C15.9216 58.7219 15.551 59.0776 15.5325 59.0776C15.5177 59.0776 14.6838 58.2586 13.6869 57.2617L11.8709 55.4457L12.6937 54.623L13.5164 53.804L13.6721 53.8262C13.824 53.8447 13.9092 53.9263 15.4917 55.5087Z" fill="#2894B4"/>
</g>
</g>
</g>
</svg>
