<svg width="72" height="72" viewBox="0 0 72 72" fill="none" xmlns="http://www.w3.org/2000/svg">
<g id="settings">
<g id="Group 1171275193">
<g id="Subtract">
<path fill-rule="evenodd" clip-rule="evenodd" d="M13.8229 40.2669V31.7335L7.42285 26.0447L13.8229 16.0891L20.934 18.9335L28.7562 14.6669L30.8895 6.13354H41.5562L43.6895 14.6669L50.8006 18.9335L58.6229 16.0891L65.0229 26.0447L58.6229 31.7335V40.2669L65.0229 45.9558L58.6229 55.9113L50.8006 53.0669L43.6895 57.3335L41.5562 65.1558H30.8895L28.7562 57.3335L20.934 53.0669L13.8229 55.9113L7.42285 45.9558L13.8229 40.2669ZM36.5783 46.6671C42.4694 46.6671 47.245 41.8915 47.245 36.0004C47.245 30.1094 42.4694 25.3338 36.5783 25.3338C30.6873 25.3338 25.9117 30.1094 25.9117 36.0004C25.9117 41.8915 30.6873 46.6671 36.5783 46.6671Z" fill="#2894B4"/>
<path d="M13.8229 31.7335H14.08V31.6181L13.9937 31.5414L13.8229 31.7335ZM13.8229 40.2669L13.9937 40.4591L14.08 40.3824V40.2669H13.8229ZM7.42285 26.0447L7.20655 25.9056L7.08757 26.0907L7.25202 26.2368L7.42285 26.0447ZM13.8229 16.0891L13.9184 15.8503L13.7213 15.7715L13.6065 15.95L13.8229 16.0891ZM20.934 18.9335L20.8385 19.1723L20.9508 19.2172L21.0571 19.1593L20.934 18.9335ZM28.7562 14.6669L28.8793 14.8926L28.9783 14.8386L29.0057 14.7292L28.7562 14.6669ZM30.8895 6.13354V5.8764H30.6887L30.6401 6.07118L30.8895 6.13354ZM41.5562 6.13354L41.8057 6.07118L41.757 5.8764H41.5562V6.13354ZM43.6895 14.6669L43.4401 14.7292L43.4659 14.8326L43.5572 14.8874L43.6895 14.6669ZM50.8006 18.9335L50.6683 19.154L50.7734 19.2171L50.8885 19.1752L50.8006 18.9335ZM58.6229 16.0891L58.8392 15.95L58.7281 15.7772L58.535 15.8474L58.6229 16.0891ZM65.0229 26.0447L65.1937 26.2368L65.3581 26.0907L65.2392 25.9056L65.0229 26.0447ZM58.6229 31.7335L58.452 31.5414L58.3657 31.6181V31.7335H58.6229ZM58.6229 40.2669H58.3657V40.3824L58.452 40.4591L58.6229 40.2669ZM65.0229 45.9558L65.2392 46.0948L65.3581 45.9097L65.1937 45.7636L65.0229 45.9558ZM58.6229 55.9113L58.535 56.153L58.7281 56.2232L58.8392 56.0504L58.6229 55.9113ZM50.8006 53.0669L50.8885 52.8252L50.7734 52.7834L50.6683 52.8464L50.8006 53.0669ZM43.6895 57.3335L43.5572 57.113L43.4686 57.1662L43.4414 57.2659L43.6895 57.3335ZM41.5562 65.1558V65.4129H41.7526L41.8043 65.2234L41.5562 65.1558ZM30.8895 65.1558L30.6414 65.2234L30.6931 65.4129H30.8895V65.1558ZM28.7562 57.3335L29.0043 57.2659L28.9755 57.1602L28.8793 57.1078L28.7562 57.3335ZM20.934 53.0669L21.0571 52.8411L20.9508 52.7832L20.8385 52.8281L20.934 53.0669ZM13.8229 55.9113L13.6065 56.0504L13.7213 56.2289L13.9184 56.1501L13.8229 55.9113ZM7.42285 45.9558L7.25202 45.7636L7.08757 45.9097L7.20655 46.0948L7.42285 45.9558ZM13.5657 31.7335V40.2669H14.08V31.7335H13.5657ZM7.25202 26.2368L13.652 31.9257L13.9937 31.5414L7.59369 25.8525L7.25202 26.2368ZM13.6065 15.95L7.20655 25.9056L7.63915 26.1837L14.0392 16.2282L13.6065 15.95ZM21.0295 18.6948L13.9184 15.8503L13.7274 16.3279L20.8385 19.1723L21.0295 18.6948ZM28.6331 14.4411L20.8108 18.7078L21.0571 19.1593L28.8793 14.8926L28.6331 14.4411ZM30.6401 6.07118L28.5067 14.6045L29.0057 14.7292L31.139 6.19591L30.6401 6.07118ZM41.5562 5.8764H30.8895V6.39069H41.5562V5.8764ZM43.939 14.6045L41.8057 6.07118L41.3067 6.19591L43.4401 14.7292L43.939 14.6045ZM50.9329 18.713L43.8218 14.4464L43.5572 14.8874L50.6683 19.154L50.9329 18.713ZM58.535 15.8474L50.7128 18.6919L50.8885 19.1752L58.7107 16.3308L58.535 15.8474ZM65.2392 25.9056L58.8392 15.95L58.4065 16.2282L64.8066 26.1837L65.2392 25.9056ZM58.7937 31.9257L65.1937 26.2368L64.852 25.8525L58.452 31.5414L58.7937 31.9257ZM58.88 40.2669V31.7335H58.3657V40.2669H58.88ZM65.1937 45.7636L58.7937 40.0747L58.452 40.4591L64.852 46.148L65.1937 45.7636ZM58.8392 56.0504L65.2392 46.0948L64.8066 45.8167L58.4065 55.7723L58.8392 56.0504ZM50.7128 53.3085L58.535 56.153L58.7107 55.6697L50.8885 52.8252L50.7128 53.3085ZM43.8218 57.554L50.9329 53.2874L50.6683 52.8464L43.5572 57.113L43.8218 57.554ZM41.8043 65.2234L43.9376 57.4012L43.4414 57.2659L41.3081 65.0881L41.8043 65.2234ZM30.8895 65.4129H41.5562V64.8986H30.8895V65.4129ZM28.5081 57.4012L30.6414 65.2234L31.1376 65.0881L29.0043 57.2659L28.5081 57.4012ZM20.8108 53.2926L28.6331 57.5593L28.8793 57.1078L21.0571 52.8411L20.8108 53.2926ZM13.9184 56.1501L21.0295 53.3056L20.8385 52.8281L13.7274 55.6726L13.9184 56.1501ZM7.20655 46.0948L13.6065 56.0504L14.0392 55.7723L7.63915 45.8167L7.20655 46.0948ZM13.652 40.0747L7.25202 45.7636L7.59369 46.148L13.9937 40.4591L13.652 40.0747ZM46.9879 36.0004C46.9879 41.7495 42.3274 46.41 36.5783 46.41V46.9242C42.6114 46.9242 47.5021 42.0335 47.5021 36.0004H46.9879ZM36.5783 25.5909C42.3274 25.5909 46.9879 30.2514 46.9879 36.0004H47.5021C47.5021 29.9674 42.6114 25.0766 36.5783 25.0766V25.5909ZM26.1688 36.0004C26.1688 30.2514 30.8293 25.5909 36.5783 25.5909V25.0766C30.5453 25.0766 25.6545 29.9674 25.6545 36.0004H26.1688ZM36.5783 46.41C30.8293 46.41 26.1688 41.7495 26.1688 36.0004H25.6545C25.6545 42.0335 30.5453 46.9242 36.5783 46.9242V46.41Z" fill="#0D313B"/>
</g>
<g id="Group">
<g id="Vector">
<mask id="path-3-outside-1_6490_46156" maskUnits="userSpaceOnUse" x="22.3096" y="22.2405" width="27" height="27" fill="black">
<rect fill="white" x="22.3096" y="22.2405" width="27" height="27"/>
<path d="M36.0702 23.2405C29.0341 23.2405 23.3096 28.9651 23.3096 36.0011C23.3096 43.0371 29.0341 48.7617 36.0702 48.7617C43.1062 48.7617 48.8308 43.0371 48.8308 36.0011C48.8313 28.9651 43.1068 23.2405 36.0702 23.2405V23.2405ZM36.0702 45.7465C30.6962 45.7465 26.3241 41.375 26.3241 36.0009C26.3241 30.6276 30.6961 26.2554 36.0702 26.2554C41.4442 26.2554 45.8163 30.6269 45.8163 36.0009C45.8163 41.375 41.4442 45.7465 36.0702 45.7465Z"/>
</mask>
<path d="M36.0702 23.2405C29.0341 23.2405 23.3096 28.9651 23.3096 36.0011C23.3096 43.0371 29.0341 48.7617 36.0702 48.7617C43.1062 48.7617 48.8308 43.0371 48.8308 36.0011C48.8313 28.9651 43.1068 23.2405 36.0702 23.2405V23.2405ZM36.0702 45.7465C30.6962 45.7465 26.3241 41.375 26.3241 36.0009C26.3241 30.6276 30.6961 26.2554 36.0702 26.2554C41.4442 26.2554 45.8163 30.6269 45.8163 36.0009C45.8163 41.375 41.4442 45.7465 36.0702 45.7465Z" fill="#0D313B"/>
<path d="M36.0702 23.2405C29.0341 23.2405 23.3096 28.9651 23.3096 36.0011C23.3096 43.0371 29.0341 48.7617 36.0702 48.7617C43.1062 48.7617 48.8308 43.0371 48.8308 36.0011C48.8313 28.9651 43.1068 23.2405 36.0702 23.2405V23.2405ZM36.0702 45.7465C30.6962 45.7465 26.3241 41.375 26.3241 36.0009C26.3241 30.6276 30.6961 26.2554 36.0702 26.2554C41.4442 26.2554 45.8163 30.6269 45.8163 36.0009C45.8163 41.375 41.4442 45.7465 36.0702 45.7465Z" stroke="#0D313B" stroke-width="0.822857" mask="url(#path-3-outside-1_6490_46156)"/>
</g>
<g id="Vector_2">
<mask id="path-4-outside-2_6490_46156" maskUnits="userSpaceOnUse" x="5" y="3" width="62" height="66" fill="black">
<rect fill="white" x="5" y="3" width="62" height="66"/>
<path d="M64.1683 42.7901C64.1661 42.789 64.165 42.7879 64.1639 42.7868L59.6324 39.5194C59.808 38.3474 59.8963 37.1672 59.8963 35.9997C59.8963 34.8322 59.8074 33.652 59.6324 32.4801L64.1684 29.2094C66.1544 27.7658 66.7252 25.0823 65.4987 22.973L62.0718 17.0233C60.8399 14.905 58.2293 14.0628 55.9943 15.0641L50.9009 17.3623C49.0478 15.8826 47.0029 14.7006 44.8029 13.8354L44.2378 8.27259C43.9833 5.83707 41.9478 4 39.5029 4H32.6397C30.1946 4 28.1593 5.83707 27.9042 8.27643L27.3396 13.8354C25.1402 14.7006 23.0953 15.8826 21.2416 17.3623L16.145 15.0629C13.915 14.0638 11.3022 14.9057 10.0675 17.0295L6.64611 22.968C5.41639 25.0829 5.98763 27.7662 7.97863 29.2132L12.5097 32.4801C12.3352 33.652 12.2463 34.8322 12.2463 35.9997C12.2463 37.1672 12.3352 38.3475 12.5103 39.5199L7.97534 42.7901C5.9882 44.2337 5.41705 46.9171 6.64393 49.0265L10.0708 54.9767C11.3022 57.0944 13.9134 57.9368 16.1483 56.9359L21.2417 54.6377C23.0954 56.1174 25.1398 57.2994 27.3397 58.1646L27.9049 63.7274C28.1588 66.1629 30.1943 68 32.6398 68H39.503C41.948 68 43.9834 66.1629 44.2384 63.7236L44.803 58.1646C47.0024 57.2994 49.0473 56.1174 50.901 54.6377L55.9977 56.9371C58.2294 57.9373 60.8404 57.0943 62.0752 54.9705L65.4965 49.032C66.7252 46.9171 66.1539 44.2342 64.1685 42.7901L64.1683 42.7901ZM62.8858 47.5218L59.4656 53.4603C59.0111 54.2416 58.0497 54.5533 57.2339 54.1871L51.2815 51.5015C50.7463 51.2598 50.1195 51.3504 49.6738 51.7366C47.6712 53.4708 45.394 54.7889 42.9028 55.653C42.3488 55.8452 41.9565 56.3414 41.8971 56.9249L41.238 63.4152C41.1447 64.3099 40.3984 64.985 39.5021 64.985L32.6395 64.9845C31.7437 64.9845 30.9969 64.3093 30.9047 63.4185L30.2451 56.9243C30.1857 56.3409 29.7934 55.8447 29.2393 55.6524C26.7488 54.7883 24.471 53.4702 22.4684 51.736C22.1883 51.4937 21.8371 51.3676 21.4809 51.3676C21.2703 51.3676 21.0592 51.4115 20.8608 51.501L14.9117 54.1854C14.0904 54.5538 13.1318 54.2404 12.68 53.4658L9.25371 47.5162C8.80416 46.7438 9.01699 45.7608 9.74326 45.2329L15.0355 41.4165C15.5106 41.0736 15.744 40.4863 15.6346 39.9106C15.3867 38.612 15.2611 37.2967 15.2611 35.9998C15.2611 34.7034 15.3867 33.3876 15.6351 32.0895C15.7451 31.5138 15.5112 30.9265 15.0361 30.5836L9.74766 26.7699C9.01694 26.2392 8.80467 25.2562 9.25644 24.4778L12.6767 18.5398C13.1312 17.7585 14.0925 17.4462 14.9083 17.813L20.8608 20.4986C21.3948 20.7398 22.0222 20.6492 22.4684 20.2635C24.4705 18.5293 26.7483 17.2112 29.2394 16.3472C29.7934 16.1549 30.1857 15.6587 30.2452 15.0752L30.9042 8.58488C30.9976 7.69023 31.7438 7.0151 32.6401 7.0151H39.5033C40.3991 7.0151 41.1459 7.69025 41.2381 8.58103L41.8977 15.0752C41.9572 15.6587 42.3495 16.1549 42.9035 16.3472C45.3941 17.2112 47.6718 18.5293 49.6745 20.2635C50.1196 20.6492 50.7469 20.7398 51.2821 20.4986L57.2311 17.8141C58.0524 17.4457 59.011 17.7591 59.4628 18.5337L62.8891 24.4839C63.3387 25.2563 63.1264 26.2393 62.4001 26.7672L57.1067 30.5836C56.6316 30.9265 56.3982 31.5138 56.5077 32.0895C56.7556 33.3876 56.8811 34.7034 56.8811 35.9998C56.8811 37.2961 56.7556 38.612 56.5072 39.9101C56.3971 40.4858 56.6311 41.0731 57.1062 41.416L62.3967 45.2306C63.1258 45.7624 63.3375 46.7444 62.8857 47.5216L62.8858 47.5218Z"/>
</mask>
<path d="M64.1683 42.7901C64.1661 42.789 64.165 42.7879 64.1639 42.7868L59.6324 39.5194C59.808 38.3474 59.8963 37.1672 59.8963 35.9997C59.8963 34.8322 59.8074 33.652 59.6324 32.4801L64.1684 29.2094C66.1544 27.7658 66.7252 25.0823 65.4987 22.973L62.0718 17.0233C60.8399 14.905 58.2293 14.0628 55.9943 15.0641L50.9009 17.3623C49.0478 15.8826 47.0029 14.7006 44.8029 13.8354L44.2378 8.27259C43.9833 5.83707 41.9478 4 39.5029 4H32.6397C30.1946 4 28.1593 5.83707 27.9042 8.27643L27.3396 13.8354C25.1402 14.7006 23.0953 15.8826 21.2416 17.3623L16.145 15.0629C13.915 14.0638 11.3022 14.9057 10.0675 17.0295L6.64611 22.968C5.41639 25.0829 5.98763 27.7662 7.97863 29.2132L12.5097 32.4801C12.3352 33.652 12.2463 34.8322 12.2463 35.9997C12.2463 37.1672 12.3352 38.3475 12.5103 39.5199L7.97534 42.7901C5.9882 44.2337 5.41705 46.9171 6.64393 49.0265L10.0708 54.9767C11.3022 57.0944 13.9134 57.9368 16.1483 56.9359L21.2417 54.6377C23.0954 56.1174 25.1398 57.2994 27.3397 58.1646L27.9049 63.7274C28.1588 66.1629 30.1943 68 32.6398 68H39.503C41.948 68 43.9834 66.1629 44.2384 63.7236L44.803 58.1646C47.0024 57.2994 49.0473 56.1174 50.901 54.6377L55.9977 56.9371C58.2294 57.9373 60.8404 57.0943 62.0752 54.9705L65.4965 49.032C66.7252 46.9171 66.1539 44.2342 64.1685 42.7901L64.1683 42.7901ZM62.8858 47.5218L59.4656 53.4603C59.0111 54.2416 58.0497 54.5533 57.2339 54.1871L51.2815 51.5015C50.7463 51.2598 50.1195 51.3504 49.6738 51.7366C47.6712 53.4708 45.394 54.7889 42.9028 55.653C42.3488 55.8452 41.9565 56.3414 41.8971 56.9249L41.238 63.4152C41.1447 64.3099 40.3984 64.985 39.5021 64.985L32.6395 64.9845C31.7437 64.9845 30.9969 64.3093 30.9047 63.4185L30.2451 56.9243C30.1857 56.3409 29.7934 55.8447 29.2393 55.6524C26.7488 54.7883 24.471 53.4702 22.4684 51.736C22.1883 51.4937 21.8371 51.3676 21.4809 51.3676C21.2703 51.3676 21.0592 51.4115 20.8608 51.501L14.9117 54.1854C14.0904 54.5538 13.1318 54.2404 12.68 53.4658L9.25371 47.5162C8.80416 46.7438 9.01699 45.7608 9.74326 45.2329L15.0355 41.4165C15.5106 41.0736 15.744 40.4863 15.6346 39.9106C15.3867 38.612 15.2611 37.2967 15.2611 35.9998C15.2611 34.7034 15.3867 33.3876 15.6351 32.0895C15.7451 31.5138 15.5112 30.9265 15.0361 30.5836L9.74766 26.7699C9.01694 26.2392 8.80467 25.2562 9.25644 24.4778L12.6767 18.5398C13.1312 17.7585 14.0925 17.4462 14.9083 17.813L20.8608 20.4986C21.3948 20.7398 22.0222 20.6492 22.4684 20.2635C24.4705 18.5293 26.7483 17.2112 29.2394 16.3472C29.7934 16.1549 30.1857 15.6587 30.2452 15.0752L30.9042 8.58488C30.9976 7.69023 31.7438 7.0151 32.6401 7.0151H39.5033C40.3991 7.0151 41.1459 7.69025 41.2381 8.58103L41.8977 15.0752C41.9572 15.6587 42.3495 16.1549 42.9035 16.3472C45.3941 17.2112 47.6718 18.5293 49.6745 20.2635C50.1196 20.6492 50.7469 20.7398 51.2821 20.4986L57.2311 17.8141C58.0524 17.4457 59.011 17.7591 59.4628 18.5337L62.8891 24.4839C63.3387 25.2563 63.1264 26.2393 62.4001 26.7672L57.1067 30.5836C56.6316 30.9265 56.3982 31.5138 56.5077 32.0895C56.7556 33.3876 56.8811 34.7034 56.8811 35.9998C56.8811 37.2961 56.7556 38.612 56.5072 39.9101C56.3971 40.4858 56.6311 41.0731 57.1062 41.416L62.3967 45.2306C63.1258 45.7624 63.3375 46.7444 62.8857 47.5216L62.8858 47.5218Z" fill="#0D313B"/>
<path d="M64.1683 42.7901C64.1661 42.789 64.165 42.7879 64.1639 42.7868L59.6324 39.5194C59.808 38.3474 59.8963 37.1672 59.8963 35.9997C59.8963 34.8322 59.8074 33.652 59.6324 32.4801L64.1684 29.2094C66.1544 27.7658 66.7252 25.0823 65.4987 22.973L62.0718 17.0233C60.8399 14.905 58.2293 14.0628 55.9943 15.0641L50.9009 17.3623C49.0478 15.8826 47.0029 14.7006 44.8029 13.8354L44.2378 8.27259C43.9833 5.83707 41.9478 4 39.5029 4H32.6397C30.1946 4 28.1593 5.83707 27.9042 8.27643L27.3396 13.8354C25.1402 14.7006 23.0953 15.8826 21.2416 17.3623L16.145 15.0629C13.915 14.0638 11.3022 14.9057 10.0675 17.0295L6.64611 22.968C5.41639 25.0829 5.98763 27.7662 7.97863 29.2132L12.5097 32.4801C12.3352 33.652 12.2463 34.8322 12.2463 35.9997C12.2463 37.1672 12.3352 38.3475 12.5103 39.5199L7.97534 42.7901C5.9882 44.2337 5.41705 46.9171 6.64393 49.0265L10.0708 54.9767C11.3022 57.0944 13.9134 57.9368 16.1483 56.9359L21.2417 54.6377C23.0954 56.1174 25.1398 57.2994 27.3397 58.1646L27.9049 63.7274C28.1588 66.1629 30.1943 68 32.6398 68H39.503C41.948 68 43.9834 66.1629 44.2384 63.7236L44.803 58.1646C47.0024 57.2994 49.0473 56.1174 50.901 54.6377L55.9977 56.9371C58.2294 57.9373 60.8404 57.0943 62.0752 54.9705L65.4965 49.032C66.7252 46.9171 66.1539 44.2342 64.1685 42.7901L64.1683 42.7901ZM62.8858 47.5218L59.4656 53.4603C59.0111 54.2416 58.0497 54.5533 57.2339 54.1871L51.2815 51.5015C50.7463 51.2598 50.1195 51.3504 49.6738 51.7366C47.6712 53.4708 45.394 54.7889 42.9028 55.653C42.3488 55.8452 41.9565 56.3414 41.8971 56.9249L41.238 63.4152C41.1447 64.3099 40.3984 64.985 39.5021 64.985L32.6395 64.9845C31.7437 64.9845 30.9969 64.3093 30.9047 63.4185L30.2451 56.9243C30.1857 56.3409 29.7934 55.8447 29.2393 55.6524C26.7488 54.7883 24.471 53.4702 22.4684 51.736C22.1883 51.4937 21.8371 51.3676 21.4809 51.3676C21.2703 51.3676 21.0592 51.4115 20.8608 51.501L14.9117 54.1854C14.0904 54.5538 13.1318 54.2404 12.68 53.4658L9.25371 47.5162C8.80416 46.7438 9.01699 45.7608 9.74326 45.2329L15.0355 41.4165C15.5106 41.0736 15.744 40.4863 15.6346 39.9106C15.3867 38.612 15.2611 37.2967 15.2611 35.9998C15.2611 34.7034 15.3867 33.3876 15.6351 32.0895C15.7451 31.5138 15.5112 30.9265 15.0361 30.5836L9.74766 26.7699C9.01694 26.2392 8.80467 25.2562 9.25644 24.4778L12.6767 18.5398C13.1312 17.7585 14.0925 17.4462 14.9083 17.813L20.8608 20.4986C21.3948 20.7398 22.0222 20.6492 22.4684 20.2635C24.4705 18.5293 26.7483 17.2112 29.2394 16.3472C29.7934 16.1549 30.1857 15.6587 30.2452 15.0752L30.9042 8.58488C30.9976 7.69023 31.7438 7.0151 32.6401 7.0151H39.5033C40.3991 7.0151 41.1459 7.69025 41.2381 8.58103L41.8977 15.0752C41.9572 15.6587 42.3495 16.1549 42.9035 16.3472C45.3941 17.2112 47.6718 18.5293 49.6745 20.2635C50.1196 20.6492 50.7469 20.7398 51.2821 20.4986L57.2311 17.8141C58.0524 17.4457 59.011 17.7591 59.4628 18.5337L62.8891 24.4839C63.3387 25.2563 63.1264 26.2393 62.4001 26.7672L57.1067 30.5836C56.6316 30.9265 56.3982 31.5138 56.5077 32.0895C56.7556 33.3876 56.8811 34.7034 56.8811 35.9998C56.8811 37.2961 56.7556 38.612 56.5072 39.9101C56.3971 40.4858 56.6311 41.0731 57.1062 41.416L62.3967 45.2306C63.1258 45.7624 63.3375 46.7444 62.8857 47.5216L62.8858 47.5218Z" stroke="#0D313B" stroke-width="0.822857" mask="url(#path-4-outside-2_6490_46156)"/>
</g>
</g>
</g>
</g>
</svg>
