<svg width="72" height="72" viewBox="0 0 72 72" fill="none" xmlns="http://www.w3.org/2000/svg">
<g id="spt-report">
<g id="Group 1171275392">
<g id="Group 1171275389">
<g id="Group">
<g id="Vector">
<path d="M29.887 4.07675C27.9495 4.40174 25.9246 5.37672 24.5871 6.62668L23.6622 7.48916H19.9123C15.8249 7.48916 15.2624 7.55166 14.0874 8.13914C12.675 8.85162 11.4875 10.3891 11.15 11.964C10.95 12.9015 10.95 62.5751 11.15 63.5126C11.35 64.4376 11.925 65.5376 12.5875 66.2375C13.2374 66.925 14.5249 67.65 15.4874 67.85C16.4249 68.05 56.3488 68.05 57.2862 67.85C59.4112 67.4 61.1736 65.6251 61.6236 63.5126C61.8236 62.5626 61.8236 12.9015 61.6236 11.964C61.1736 9.85159 59.3862 8.06414 57.2862 7.62666C56.8862 7.53916 55.1363 7.48916 52.8614 7.48916H49.099L48.2615 6.68918C47.3115 5.8017 46.3615 5.18922 45.0866 4.68924C43.4491 4.02675 42.8991 3.98926 36.2868 4.00175C32.9369 4.01425 30.062 4.05175 29.887 4.07675ZM42.8741 7.92665C43.3116 8.03914 44.0241 8.30164 44.4366 8.51413C45.6865 9.17661 47.0865 10.7641 47.449 11.9515L47.524 12.239H36.3868H25.2496L25.3246 11.9515C25.5371 11.2891 26.1246 10.3766 26.8371 9.6516C27.662 8.81412 28.962 8.07664 30.0245 7.87665C30.3245 7.81415 33.1619 7.76415 36.3243 7.75165C41.0492 7.73915 42.2116 7.77665 42.8741 7.92665ZM21.4247 12.0765C21.3247 12.5515 21.2622 13.3765 21.2872 13.9515C21.3247 15.0515 21.5247 15.4139 22.2872 15.8139C22.7872 16.0764 49.9864 16.0764 50.4864 15.8139C51.2489 15.4139 51.4489 15.0515 51.4864 13.9515C51.5114 13.3765 51.4489 12.5515 51.3489 12.0765L51.1739 11.2391H53.8113C56.8362 11.2391 57.2362 11.3391 57.7362 12.2265L58.0112 12.714V37.7383V62.7626L57.7487 63.2376C57.5987 63.5001 57.2737 63.8251 57.0112 63.9751L56.5362 64.2376H36.3868H16.2374L15.7624 63.9751C15.4999 63.8251 15.1749 63.5001 15.0249 63.2376L14.7624 62.7626V37.7383V12.714L15.0374 12.2265C15.5374 11.3391 15.9249 11.2391 18.9623 11.2391H21.5997L21.4247 12.0765Z" fill="#4D0000"/>
<path d="M42.8741 7.92665C43.3116 8.03914 44.0241 8.30164 44.4366 8.51413C45.6865 9.17661 47.0865 10.7641 47.449 11.9515L47.524 12.239H36.3868H25.2496L25.3246 11.9515C25.5371 11.2891 26.1246 10.3766 26.8371 9.6516C27.662 8.81412 28.962 8.07664 30.0245 7.87665C30.3245 7.81415 33.1619 7.76415 36.3243 7.75165C41.0492 7.73915 42.2116 7.77665 42.8741 7.92665Z" fill="#E60000"/>
</g>
</g>
</g>
<g id="Group 1171275391">
<g id="Group 1171275390">
<g id="Vector_2">
<mask id="path-2-outside-1_6242_46594" maskUnits="userSpaceOnUse" x="26.0195" y="21" width="10" height="10" fill="black">
<rect fill="white" x="26.0195" y="21" width="10" height="10"/>
<path fill-rule="evenodd" clip-rule="evenodd" d="M31.2147 22C28.899 22 27.0195 23.8795 27.0195 26.1946C27.0195 28.5103 28.899 30.3892 31.2147 30.3892C33.5298 30.3892 35.4093 28.5103 35.4093 26.1946C35.4093 23.8795 33.5298 22 31.2147 22ZM31.2147 24.7961C31.9864 24.7961 32.6131 25.4228 32.6131 26.1945C32.6131 26.9662 31.9864 27.5928 31.2147 27.5928C30.443 27.5928 29.8163 26.9662 29.8163 26.1945C29.8163 25.4228 30.443 24.7961 31.2147 24.7961Z"/>
</mask>
<path fill-rule="evenodd" clip-rule="evenodd" d="M31.2147 22C28.899 22 27.0195 23.8795 27.0195 26.1946C27.0195 28.5103 28.899 30.3892 31.2147 30.3892C33.5298 30.3892 35.4093 28.5103 35.4093 26.1946C35.4093 23.8795 33.5298 22 31.2147 22ZM31.2147 24.7961C31.9864 24.7961 32.6131 25.4228 32.6131 26.1945C32.6131 26.9662 31.9864 27.5928 31.2147 27.5928C30.443 27.5928 29.8163 26.9662 29.8163 26.1945C29.8163 25.4228 30.443 24.7961 31.2147 24.7961Z" fill="#4D0000"/>
<path fill-rule="evenodd" clip-rule="evenodd" d="M31.2147 22C28.899 22 27.0195 23.8795 27.0195 26.1946C27.0195 28.5103 28.899 30.3892 31.2147 30.3892C33.5298 30.3892 35.4093 28.5103 35.4093 26.1946C35.4093 23.8795 33.5298 22 31.2147 22ZM31.2147 24.7961C31.9864 24.7961 32.6131 25.4228 32.6131 26.1945C32.6131 26.9662 31.9864 27.5928 31.2147 27.5928C30.443 27.5928 29.8163 26.9662 29.8163 26.1945C29.8163 25.4228 30.443 24.7961 31.2147 24.7961Z" stroke="#4D0000" stroke-width="0.620223" mask="url(#path-2-outside-1_6242_46594)"/>
</g>
<g id="Vector_3">
<mask id="path-3-outside-2_6242_46594" maskUnits="userSpaceOnUse" x="37.2061" y="32.1858" width="10" height="10" fill="black">
<rect fill="white" x="37.2061" y="32.1858" width="10" height="10"/>
<path fill-rule="evenodd" clip-rule="evenodd" d="M42.4007 33.1858C40.085 33.1858 38.2061 35.0653 38.2061 37.3804C38.2061 39.6961 40.085 41.5755 42.4007 41.5755C44.7163 41.5755 46.5952 39.6961 46.5952 37.3804C46.5952 35.0653 44.7163 33.1858 42.4007 33.1858ZM42.4007 35.9825C43.1724 35.9825 43.799 36.6086 43.799 37.3803C43.799 38.1525 43.1724 38.7787 42.4007 38.7787C41.629 38.7787 41.0023 38.1525 41.0023 37.3803C41.0023 36.6086 41.629 35.9825 42.4007 35.9825Z"/>
</mask>
<path fill-rule="evenodd" clip-rule="evenodd" d="M42.4007 33.1858C40.085 33.1858 38.2061 35.0653 38.2061 37.3804C38.2061 39.6961 40.085 41.5755 42.4007 41.5755C44.7163 41.5755 46.5952 39.6961 46.5952 37.3804C46.5952 35.0653 44.7163 33.1858 42.4007 33.1858ZM42.4007 35.9825C43.1724 35.9825 43.799 36.6086 43.799 37.3803C43.799 38.1525 43.1724 38.7787 42.4007 38.7787C41.629 38.7787 41.0023 38.1525 41.0023 37.3803C41.0023 36.6086 41.629 35.9825 42.4007 35.9825Z" fill="#4D0000"/>
<path fill-rule="evenodd" clip-rule="evenodd" d="M42.4007 33.1858C40.085 33.1858 38.2061 35.0653 38.2061 37.3804C38.2061 39.6961 40.085 41.5755 42.4007 41.5755C44.7163 41.5755 46.5952 39.6961 46.5952 37.3804C46.5952 35.0653 44.7163 33.1858 42.4007 33.1858ZM42.4007 35.9825C43.1724 35.9825 43.799 36.6086 43.799 37.3803C43.799 38.1525 43.1724 38.7787 42.4007 38.7787C41.629 38.7787 41.0023 38.1525 41.0023 37.3803C41.0023 36.6086 41.629 35.9825 42.4007 35.9825Z" stroke="#4D0000" stroke-width="0.620223" mask="url(#path-3-outside-2_6242_46594)"/>
</g>
<g id="Vector_4">
<mask id="path-4-outside-3_6242_46594" maskUnits="userSpaceOnUse" x="26.0215" y="21.0007" width="21" height="21" fill="black">
<rect fill="white" x="26.0215" y="21.0007" width="21" height="21"/>
<path fill-rule="evenodd" clip-rule="evenodd" d="M29.4077 41.166L46.1858 24.3865C46.7311 23.8412 46.7311 22.9549 46.1858 22.4097C45.6405 21.8644 44.7542 21.8644 44.209 22.4097L27.4309 39.1878C26.885 39.7331 26.885 40.6194 27.4309 41.1652C27.9762 41.7105 28.8625 41.7105 29.4077 41.1652V41.166Z"/>
</mask>
<path fill-rule="evenodd" clip-rule="evenodd" d="M29.4077 41.166L46.1858 24.3865C46.7311 23.8412 46.7311 22.9549 46.1858 22.4097C45.6405 21.8644 44.7542 21.8644 44.209 22.4097L27.4309 39.1878C26.885 39.7331 26.885 40.6194 27.4309 41.1652C27.9762 41.7105 28.8625 41.7105 29.4077 41.1652V41.166Z" fill="#4D0000"/>
<path fill-rule="evenodd" clip-rule="evenodd" d="M29.4077 41.166L46.1858 24.3865C46.7311 23.8412 46.7311 22.9549 46.1858 22.4097C45.6405 21.8644 44.7542 21.8644 44.209 22.4097L27.4309 39.1878C26.885 39.7331 26.885 40.6194 27.4309 41.1652C27.9762 41.7105 28.8625 41.7105 29.4077 41.1652V41.166Z" stroke="#4D0000" stroke-width="0.620223" mask="url(#path-4-outside-3_6242_46594)"/>
</g>
</g>
<g id="Group 1171275320">
<g id="Group_2">
<path id="Vector_5" d="M36.6074 45.9331C36.1309 45.9331 35.8927 46.1713 33.9868 51.1744C31.8426 56.6539 31.8426 56.6539 32.5573 57.1303C33.0338 57.6068 33.5103 57.6068 33.9868 57.1303C34.225 56.8921 34.4632 56.6539 34.7015 55.9391L34.9397 54.9862H36.6074H38.2751L38.5133 55.9391C38.9898 56.8921 39.228 57.3686 39.9427 57.3686C40.4192 57.3686 40.4192 57.3686 40.6575 57.1303C40.8957 56.8921 41.1339 56.6539 40.8957 56.1774C40.8957 55.9391 37.5604 46.8861 37.3221 46.4096C37.0839 46.1713 36.6074 45.9331 36.3692 45.9331C36.8456 45.9331 36.6074 45.9331 36.6074 45.9331ZM37.5604 52.6038C37.5604 52.842 37.5604 52.842 36.8456 52.842C36.3692 52.842 36.1309 52.842 36.1309 52.842C36.1309 52.842 36.3692 52.3656 36.6074 51.6508L37.0839 50.6979L37.3221 51.6508C37.3221 51.8891 37.5604 52.6038 37.5604 52.6038Z" fill="#4D0000"/>
</g>
<g id="Group_3">
<path id="Vector_6" d="M23.498 46.1692C23.0215 46.4074 22.7832 47.3604 23.2597 47.8368C23.498 48.3133 23.9744 48.3133 25.4039 48.3133H26.5951V52.6016V56.8899L27.0715 57.3664C27.3098 57.6046 27.548 57.8429 27.7863 57.8429C28.0245 57.8429 28.2627 57.8429 28.501 57.3664L28.9775 56.8899V52.6016V48.3133H30.1687C31.5981 48.3133 31.8363 48.3133 32.3128 47.8368C32.551 47.3604 32.3128 46.4074 32.0746 46.1692C31.3598 45.9309 23.7362 45.9309 23.498 46.1692Z" fill="#4D0000"/>
</g>
<g id="Group_4">
<path id="Vector_7" d="M43.285 46.1692C43.0468 46.1692 43.0468 46.4074 42.8086 46.6456C42.3321 47.1221 42.5703 47.5986 43.5233 49.7427L44.4762 51.8869L43.5233 54.031C42.5703 55.6987 42.5703 56.1752 42.5703 56.6517C42.5703 57.3664 43.0468 57.8429 43.7615 57.8429C44.4762 57.8429 44.7145 57.6046 45.4292 56.1752L46.1439 54.984L46.8586 56.4134C47.3351 57.1282 47.5733 57.8429 47.8116 57.8429C48.2881 58.0811 49.0028 58.0811 49.241 57.6046C49.9557 57.1282 49.7175 56.8899 48.5263 54.5075L47.5733 52.3634L48.5263 50.2192C49.0028 49.028 49.4792 48.0751 49.4792 47.8368C49.4792 47.3604 49.241 46.8839 48.7645 46.6456C47.8116 46.1692 47.3351 46.6456 46.6204 48.3133L46.1439 49.5045L45.1909 47.5986C44.7145 46.4074 44.4762 46.1692 44.238 46.1692C43.7615 45.9309 43.5233 45.9309 43.285 46.1692Z" fill="#4D0000"/>
</g>
</g>
</g>
</g>
</g>
</svg>
