<svg width="72" height="74" viewBox="0 0 72 74" fill="none" xmlns="http://www.w3.org/2000/svg">
<path d="M4.01504 32.3677C4.01504 24.133 4.03125 15.8984 4.00002 7.66378C3.99461 6.16787 5.23572 5 6.72432 5C21.2486 5.01041 35.7728 5.01242 50.2969 5.00601C51.8989 5.00601 53.0037 6.06575 53.0512 7.64394C53.0512 7.72745 53.0512 7.81096 53.0512 7.89446C53.0512 17.5294 53.0512 27.1645 53.0512 36.7994C53.0512 37.485 53.0278 37.3624 52.4618 37.3642C51.0243 37.3696 49.5873 37.3642 48.1498 37.3642C47.7143 37.3642 47.7137 37.3642 47.7137 36.9321C47.7137 28.1511 47.7137 19.3694 47.7137 10.5871C47.7137 10.086 47.7137 10.086 47.2097 10.086H9.82286C9.32245 10.086 9.32245 10.086 9.32245 10.5901V54.1573C9.32245 54.2408 9.32786 54.3243 9.32245 54.4078C9.31164 54.5844 9.39213 54.6655 9.57296 54.6583C9.67689 54.6535 9.78081 54.6583 9.88533 54.6583H34.2526C34.8004 54.6583 34.8004 54.6583 34.8004 55.1827C34.8004 56.5741 34.8004 57.9653 34.8004 59.3561C34.8004 59.7335 34.8004 59.7359 34.4292 59.7359C25.1625 59.7359 15.8959 59.7359 6.62941 59.7359C5.13959 59.7359 3.99942 58.4742 4.00362 57.1526C4.02705 48.8928 4.01504 40.6305 4.01504 32.3677Z" fill="#0B2D1F"/>
<path d="M28.4863 22.0013C25.3858 22.0013 22.2855 22.0013 19.1853 22.0013C17.8962 22.0013 16.8172 21.1705 16.5541 19.9991C16.2436 18.6131 17.1812 17.2356 18.617 16.9747C18.8118 16.937 19.0097 16.9169 19.2081 16.9147C25.4181 16.9171 31.6279 16.9171 37.8379 16.9147C39.1228 16.9147 40.1808 17.7072 40.4733 18.8744C40.8223 20.2796 39.8594 21.692 38.3791 21.9479C38.1647 21.9839 37.9477 22.0015 37.7304 22.0007C34.6494 22.0012 31.5682 22.0013 28.4863 22.0013Z" fill="#0B2D1F"/>
<path d="M28.5172 33.9159C25.3982 33.9159 22.279 33.9159 19.1596 33.9159C17.8885 33.9159 16.8245 33.0935 16.556 31.9213C16.2334 30.5108 17.2169 29.1146 18.7012 28.8821C18.8969 28.8506 19.0947 28.8339 19.2929 28.8322C25.4364 28.8298 31.5803 28.8298 37.7245 28.8322C39.0129 28.8322 40.0072 29.4786 40.4025 30.5589C40.9936 32.1809 39.7333 33.9081 37.9317 33.9147C34.7935 33.9243 31.6553 33.9159 28.5172 33.9159Z" fill="#0B2D1F"/>
<path d="M24.3553 45.8258C22.5777 45.8258 20.7996 45.8438 19.022 45.8185C18.0008 45.8041 17.2338 45.2989 16.7729 44.4134C16.3242 43.5508 16.3902 42.6826 16.9531 41.883C17.5059 41.0955 18.3132 40.7531 19.2677 40.7513C22.6531 40.744 26.0383 40.744 29.4237 40.7513C30.762 40.7561 31.7533 41.4541 32.1095 42.5811C32.6003 44.1329 31.3785 45.7897 29.7186 45.8252H29.6333L24.3553 45.8258Z" fill="#0B2D1F"/>
<path d="M4.01504 32.3677C4.01504 24.133 4.03125 15.8984 4.00002 7.66378C3.99461 6.16787 5.23572 5 6.72432 5C21.2486 5.01041 35.7728 5.01242 50.2969 5.00601C51.8989 5.00601 53.0037 6.06575 53.0512 7.64394C53.0512 7.72745 53.0512 7.81096 53.0512 7.89446C53.0512 17.5294 53.0512 27.1645 53.0512 36.7994C53.0512 37.485 53.0278 37.3624 52.4618 37.3642C51.0243 37.3696 49.5873 37.3642 48.1498 37.3642C47.7143 37.3642 47.7137 37.3642 47.7137 36.9321C47.7137 28.1511 47.7137 19.3694 47.7137 10.5871C47.7137 10.086 47.7137 10.086 47.2097 10.086H9.82286C9.32245 10.086 9.32245 10.086 9.32245 10.5901V54.1573C9.32245 54.2408 9.32786 54.3243 9.32245 54.4078C9.31164 54.5844 9.39213 54.6655 9.57296 54.6583C9.67689 54.6535 9.78081 54.6583 9.88533 54.6583H34.2526C34.8004 54.6583 34.8004 54.6583 34.8004 55.1827C34.8004 56.5741 34.8004 57.9653 34.8004 59.3561C34.8004 59.7335 34.8004 59.7359 34.4292 59.7359C25.1625 59.7359 15.8959 59.7359 6.62941 59.7359C5.13959 59.7359 3.99942 58.4742 4.00362 57.1526C4.02705 48.8928 4.01504 40.6305 4.01504 32.3677Z" fill="#0B2D1F"/>
<path d="M28.4863 22.0013C25.3858 22.0013 22.2855 22.0013 19.1853 22.0013C17.8962 22.0013 16.8172 21.1705 16.5541 19.9991C16.2436 18.6131 17.1812 17.2356 18.617 16.9747C18.8118 16.937 19.0097 16.9169 19.2081 16.9147C25.4181 16.9171 31.6279 16.9171 37.8379 16.9147C39.1228 16.9147 40.1808 17.7072 40.4733 18.8744C40.8223 20.2796 39.8594 21.692 38.3791 21.9479C38.1647 21.9839 37.9477 22.0015 37.7304 22.0007C34.6494 22.0012 31.5682 22.0013 28.4863 22.0013Z" fill="#0B2D1F"/>
<path d="M28.5172 33.9159C25.3982 33.9159 22.279 33.9159 19.1596 33.9159C17.8885 33.9159 16.8245 33.0935 16.556 31.9213C16.2334 30.5108 17.2169 29.1146 18.7012 28.8821C18.8969 28.8506 19.0947 28.8339 19.2929 28.8322C25.4364 28.8298 31.5803 28.8298 37.7245 28.8322C39.0129 28.8322 40.0072 29.4786 40.4025 30.5589C40.9936 32.1809 39.7333 33.9081 37.9317 33.9147C34.7935 33.9243 31.6553 33.9159 28.5172 33.9159Z" fill="#0B2D1F"/>
<path d="M24.3548 45.8258C22.5772 45.8258 20.7991 45.8438 19.0215 45.8185C18.0004 45.8041 17.2333 45.2989 16.7724 44.4134C16.3237 43.5508 16.3897 42.6826 16.9526 41.883C17.5054 41.0955 18.3127 40.7531 19.2672 40.7513C22.6526 40.744 26.0378 40.744 29.4232 40.7513C30.7615 40.7561 31.7528 41.4541 32.109 42.5811C32.5998 44.1329 31.378 45.7897 29.7181 45.8252H29.6328L24.3548 45.8258Z" fill="#0B2D1F"/>
<mask id="path-9-inside-1_5876_46106" fill="white">
<path d="M59.7434 55.8284H53.8894V61.6824H50.9623V55.8284H45.1083V52.9014H50.9623V47.0473H53.8894V52.9014H59.7434V55.8284Z"/>
<path fill-rule="evenodd" clip-rule="evenodd" d="M52.4259 39.7298C44.3473 39.7298 37.7908 46.2863 37.7908 54.3649C37.7908 62.4434 44.3473 68.9999 52.4259 68.9999C60.5044 68.9999 67.0609 62.4434 67.0609 54.3649C67.0609 46.2863 60.5044 39.7298 52.4259 39.7298ZM53.8894 55.8284H59.7434V52.9014H53.8894V47.0473H50.9623V52.9014H45.1083V55.8284H50.9623V61.6824H53.8894V55.8284Z"/>
</mask>
<path d="M59.7434 55.8284H53.8894V61.6824H50.9623V55.8284H45.1083V52.9014H50.9623V47.0473H53.8894V52.9014H59.7434V55.8284Z" fill="#CBEDDF"/>
<path fill-rule="evenodd" clip-rule="evenodd" d="M52.4259 39.7298C44.3473 39.7298 37.7908 46.2863 37.7908 54.3649C37.7908 62.4434 44.3473 68.9999 52.4259 68.9999C60.5044 68.9999 67.0609 62.4434 67.0609 54.3649C67.0609 46.2863 60.5044 39.7298 52.4259 39.7298ZM53.8894 55.8284H59.7434V52.9014H53.8894V47.0473H50.9623V52.9014H45.1083V55.8284H50.9623V61.6824H53.8894V55.8284Z" fill="#22885E"/>
<path d="M59.7434 55.8284V56.8284H60.7434V55.8284H59.7434ZM53.8894 55.8284V54.8284H52.8894V55.8284H53.8894ZM53.8894 61.6824V62.6824H54.8894V61.6824H53.8894ZM50.9623 61.6824H49.9623V62.6824H50.9623V61.6824ZM50.9623 55.8284H51.9623V54.8284H50.9623V55.8284ZM45.1083 55.8284H44.1083V56.8284H45.1083V55.8284ZM45.1083 52.9014V51.9014H44.1083V52.9014H45.1083ZM50.9623 52.9014V53.9014H51.9623V52.9014H50.9623ZM50.9623 47.0473V46.0473H49.9623V47.0473H50.9623ZM53.8894 47.0473H54.8894V46.0473H53.8894V47.0473ZM53.8894 52.9014H52.8894V53.9014H53.8894V52.9014ZM59.7434 52.9014H60.7434V51.9014H59.7434V52.9014ZM59.7434 54.8284H53.8894V56.8284H59.7434V54.8284ZM52.8894 55.8284V61.6824H54.8894V55.8284H52.8894ZM53.8894 60.6824H50.9623V62.6824H53.8894V60.6824ZM51.9623 61.6824V55.8284H49.9623V61.6824H51.9623ZM50.9623 54.8284H45.1083V56.8284H50.9623V54.8284ZM46.1083 55.8284V52.9014H44.1083V55.8284H46.1083ZM45.1083 53.9014H50.9623V51.9014H45.1083V53.9014ZM51.9623 52.9014V47.0473H49.9623V52.9014H51.9623ZM50.9623 48.0473H53.8894V46.0473H50.9623V48.0473ZM52.8894 47.0473V52.9014H54.8894V47.0473H52.8894ZM53.8894 53.9014H59.7434V51.9014H53.8894V53.9014ZM58.7434 52.9014V55.8284H60.7434V52.9014H58.7434ZM52.4259 37.7298C43.2427 37.7298 35.7908 45.1817 35.7908 54.3649H39.7908C39.7908 47.3909 45.4519 41.7298 52.4259 41.7298V37.7298ZM35.7908 54.3649C35.7908 63.548 43.2427 70.9999 52.4259 70.9999V66.9999C45.4519 66.9999 39.7908 61.3388 39.7908 54.3649H35.7908ZM52.4259 70.9999C61.609 70.9999 69.0609 63.548 69.0609 54.3649H65.0609C65.0609 61.3388 59.3998 66.9999 52.4259 66.9999V70.9999ZM69.0609 54.3649C69.0609 45.1817 61.609 37.7298 52.4259 37.7298V41.7298C59.3998 41.7298 65.0609 47.3909 65.0609 54.3649H69.0609Z" fill="#0B2D1F" mask="url(#path-9-inside-1_5876_46106)"/>
</svg>
