<svg width="50" height="50" viewBox="0 0 50 50" fill="none" xmlns="http://www.w3.org/2000/svg">
<path d="M48.1489 28.882C47.8073 29.6538 47.21 29.8959 46.3809 29.8894C42.7522 29.8598 39.123 29.8765 35.4943 29.8774C35.3137 29.8774 35.1332 29.8866 34.9531 29.8922H30.6026C30.5249 29.8033 30.4387 29.72 30.3712 29.6241C29.7847 28.8084 29.1999 27.9914 28.6165 27.1732L26.7462 24.4542C30.3912 24.4542 34.0358 24.4533 37.6799 24.4515C38.5165 24.4515 39.0869 23.882 39.1068 23.0427C39.1346 21.8478 40.1068 20.8667 41.292 20.8366C42.1637 20.8149 42.7216 20.2524 42.7225 19.3857C42.7244 17.0366 42.7244 14.6876 42.7225 12.3385C42.7225 11.4737 42.1633 10.9144 41.2874 10.8922C40.1262 10.8626 39.1383 9.88202 39.1063 8.72692C39.0809 7.81905 38.5318 7.27692 37.6304 7.27646C33.8048 7.27646 29.9795 7.27646 26.1545 7.27646C26.0462 7.27646 25.9374 7.28665 25.8304 7.2922C27.1804 7.57553 28.1647 8.40331 28.9642 9.43803C30.2142 11.0584 30.7374 12.9649 30.8698 14.9723C30.9966 16.8954 30.7443 18.7788 29.9624 20.5607C29.2596 22.1626 28.2272 23.4686 26.5661 24.1774C26.0056 23.4515 25.4796 22.7015 24.9883 21.9274C24.9934 21.7473 25.0026 21.5667 25.0026 21.3866C25.0026 14.8743 25.0026 8.36195 25.0026 1.84961H47.0637C47.6128 2.02415 47.9786 2.38155 48.1489 2.93433V28.882Z" fill="#ECB22E"/>
<path d="M24.9997 1.85205C24.9997 8.3644 24.9997 14.8767 24.9997 21.3891C24.9997 21.5692 24.9905 21.7497 24.9854 21.9298C24.9275 21.8618 24.8641 21.7983 24.8131 21.7261C23.6224 20.0326 22.4224 18.3465 21.2483 16.6419C20.5955 15.6928 19.8835 14.784 19.2983 13.7886C19.3298 13.6113 19.352 13.4321 19.3942 13.2571C20.0613 10.4919 21.259 8.15761 24.2655 7.2965C24.2349 7.28996 24.204 7.28548 24.1729 7.28307C20.1979 7.28122 16.2226 7.28122 12.2469 7.28307C11.4775 7.28307 10.9349 7.8502 10.8969 8.63261C10.833 9.93492 9.94647 10.8335 8.66777 10.8919C7.81499 10.9298 7.28304 11.4794 7.28166 12.3437C7.27795 14.6928 7.27795 17.0416 7.28166 19.39C7.28166 20.2488 7.82193 20.7993 8.67795 20.8368C9.93212 20.8919 10.8409 21.8039 10.8965 23.0632C10.9344 23.9136 11.4886 24.4497 12.3516 24.4521C14.3692 24.4553 16.3867 24.4521 18.4048 24.4521C18.8437 25.0595 19.2955 25.6558 19.7182 26.2761C20.54 27.4798 21.434 28.6312 22.1932 29.8761C15.8969 29.8761 9.60064 29.8761 3.30434 29.8761C2.42749 29.8761 1.85804 29.3095 1.85758 28.4363C1.85357 20.0616 1.85156 11.6874 1.85156 3.31362C1.85156 2.5789 2.2548 2.15946 2.85017 1.85205H24.9997Z" fill="#ECB22E"/>
<path d="M22.1923 29.8731C21.433 28.6282 20.5391 27.4755 19.7173 26.2731C19.2946 25.6546 18.8428 25.0565 18.4039 24.4491C17.7094 23.4306 16.9886 22.4343 16.3275 21.3972C14.3367 18.2727 13.7789 14.8958 14.633 11.2907C14.8344 10.4417 15.452 10.0255 16.2534 10.1602C16.69 10.2333 16.9636 10.5213 17.2062 10.8593C17.9067 11.8315 18.5423 12.8528 19.2983 13.7866C19.8835 14.7819 20.5946 15.6907 21.2483 16.6398C22.4219 18.3444 23.6219 20.0306 24.8131 21.7241C24.8641 21.7963 24.9275 21.8597 24.9854 21.9278C25.477 22.7018 26.003 23.4518 26.5631 24.1778C26.6249 24.2704 26.6854 24.363 26.7446 24.4556L28.615 27.1741V38.8407C27.7613 37.7616 27.0011 36.6551 26.2178 35.5648C25.6335 34.7518 25.1256 33.8833 24.4585 33.1315C24.0168 32.2981 23.4155 31.5741 22.8817 30.8046C22.6627 30.4861 22.5104 30.1157 22.1923 29.8731Z" fill="#F3CD75"/>
<path d="M34.6918 35.7654C35.9418 34.9784 37.2923 34.5418 38.7872 34.5788C42.2168 34.6636 45.134 37.4761 45.3344 40.9075C45.5427 44.4659 43.015 47.5899 39.5474 48.0589C36.6951 48.4446 34.0414 47.1367 32.6182 44.6432C32.5585 44.5395 32.4955 44.4376 32.433 44.3349C32.4228 44.2566 32.4117 44.1784 32.333 44.1339C32.3349 44.1233 32.3339 44.1123 32.3301 44.1022C32.3263 44.0921 32.3197 44.0832 32.3113 44.0765C32.2719 43.9483 32.2372 43.8187 32.1923 43.6927C31.7557 42.4994 31.6647 41.2072 31.9298 39.9645C32.3039 38.2001 33.2752 36.8386 34.6918 35.7654ZM42.6302 41.3751C42.6381 39.1441 40.8298 37.3112 38.6025 37.2932C38.067 37.2892 37.536 37.3909 37.0398 37.5923C36.5436 37.7937 36.092 38.091 35.7109 38.4671C35.3297 38.8432 35.0264 39.2908 34.8183 39.7842C34.6103 40.2776 34.5015 40.8072 34.4983 41.3427C34.4881 43.5909 36.315 45.4214 38.5724 45.4237C40.7965 45.4261 42.6224 43.6052 42.6302 41.3751Z" fill="#A87A0F"/>
<path d="M24.8273 44.2541C24.8145 44.2712 24.8076 44.292 24.8078 44.3134C24.7837 44.3537 24.7592 44.3935 24.7351 44.4333C23.6782 46.2953 22.1499 47.5264 20.031 47.9981C16.3388 48.8185 12.5148 46.1986 11.9777 42.4657C11.4416 38.7402 13.668 35.5 17.3324 34.7222C19.0888 34.3481 20.7384 34.687 22.2689 35.6194C22.3578 35.674 22.4509 35.7222 22.5421 35.7736C22.5828 35.8171 22.6259 35.8584 22.6712 35.8972C24.48 37.2824 25.3962 39.1199 25.4453 41.3916C25.4661 42.3504 25.1726 43.25 24.8944 44.1509H24.8995L24.8273 44.2541ZM14.6004 41.3458C14.6004 43.5916 16.406 45.4199 18.6245 45.425C20.8837 45.4291 22.7277 43.6092 22.7319 41.3713C22.7361 39.1333 20.8911 37.2861 18.6504 37.2926C16.4171 37.299 14.5999 39.1203 14.6004 41.3458V41.3458Z" fill="#A87A0F"/>
<path d="M24.8953 44.1487C25.1731 43.2477 25.467 42.3482 25.4462 41.3894C25.3971 39.1176 24.4809 37.2801 22.6721 35.8949C22.6268 35.8561 22.5837 35.8149 22.543 35.7713L24.4592 33.1283C25.1277 33.8797 25.6356 34.7487 26.2184 35.5612C27.0018 36.6514 27.762 37.7579 28.6157 38.8371V27.1704C29.1999 27.988 29.7848 28.8059 30.3703 29.6241C30.4388 29.7199 30.5249 29.8033 30.6018 29.8922C30.7971 30.3482 31.1291 30.7162 31.4157 31.1098C31.8689 31.732 32.2379 32.4176 32.7856 32.9699C32.8874 33.4287 33.2462 33.7287 33.492 34.0963C33.8726 34.6649 34.2356 35.2482 34.6893 35.763C33.2726 36.8362 32.3013 38.1977 31.9309 39.9621C31.6659 41.2048 31.7569 42.497 32.1934 43.6903C32.2397 43.8162 32.2731 43.9459 32.3124 44.0741C31.942 43.9533 31.8457 43.5806 31.6532 43.3158C30.7203 42.0306 29.8226 40.7204 28.9175 39.4158C28.6004 38.9584 28.6041 38.9528 28.2823 39.4112C27.219 40.9349 26.1559 42.4584 25.093 43.9815C25.0411 44.0584 24.9948 44.1334 24.8953 44.1487Z" fill="#F3CD75"/>
<path d="M32.7893 32.9699C32.2416 32.4176 31.8726 31.7319 31.4194 31.1097C31.1328 30.7162 30.8008 30.3481 30.6055 29.8921H34.9555C34.261 30.9379 33.5569 31.9764 32.7893 32.9699Z" fill="#F3CD75"/>
<path d="M32.3356 44.1338C32.4143 44.1801 32.4254 44.2565 32.4356 44.3347C32.3361 44.3009 32.3241 44.2231 32.3356 44.1338Z" fill="#F3CD75"/>
<path d="M24.8281 44.2544L24.9003 44.1475L24.8281 44.2544Z" fill="#F3CD75"/>
<path d="M24.7344 44.4334C24.7584 44.3936 24.783 44.3538 24.8071 44.3135C24.783 44.3519 24.7584 44.3931 24.7344 44.4334Z" fill="#F3CD75"/>
<path d="M26.7453 24.4541C26.6835 24.3615 26.623 24.2689 26.5638 24.1763C28.2249 23.4675 29.2573 22.1615 29.9601 20.5596C30.742 18.7777 30.9943 16.8944 30.8675 14.9712C30.7351 12.9638 30.211 11.0578 28.9619 9.43696C28.1624 8.40039 27.1781 7.57447 25.8281 7.29113C25.9369 7.28558 26.0457 7.27539 26.1522 7.27539C29.9775 7.27539 33.8028 7.27539 37.6281 7.27539C38.5295 7.27539 39.0786 7.81798 39.1041 8.72585C39.136 9.88095 40.1226 10.8615 41.2851 10.8911C42.1605 10.9134 42.7203 11.4726 42.7203 12.3374C42.7221 14.6865 42.7221 17.0356 42.7203 19.3846C42.7203 20.2513 42.1615 20.8138 41.2897 20.8356C40.1045 20.8647 39.1323 21.8467 39.1045 23.0416C39.0846 23.8809 38.5142 24.4499 37.6777 24.4504C34.0341 24.4538 30.39 24.455 26.7453 24.4541ZM35.8235 18.124C36.549 18.1351 37.1906 17.5221 37.2068 16.8069C37.223 16.08 36.617 15.4328 35.9008 15.4124C35.1531 15.3907 34.5013 16.012 34.4948 16.7518C34.4897 17.4782 35.1027 18.1129 35.8235 18.124Z" fill="#FBEED0"/>
<path d="M19.3016 13.7867C18.5456 12.8529 17.91 11.833 17.2095 10.8594C16.9669 10.5214 16.6933 10.2335 16.2567 10.1603C15.4544 10.0256 14.8368 10.4418 14.6363 11.2909C13.7822 14.896 14.3382 18.2728 16.3308 21.3974C16.9919 22.4344 17.7132 23.4344 18.4072 24.4492C16.3891 24.4492 14.3715 24.4543 12.3539 24.4492C11.491 24.4492 10.9368 23.9117 10.8988 23.0603C10.8433 21.8011 9.93449 20.889 8.68032 20.8339C7.82431 20.7964 7.28542 20.246 7.28403 19.3872C7.28032 17.0384 7.28032 14.6896 7.28403 12.3409C7.28403 11.4765 7.81736 10.927 8.67014 10.889C9.94792 10.8335 10.8345 9.93486 10.8984 8.62976C10.9363 7.84736 11.4789 7.28115 12.2484 7.28023C16.224 7.27313 20.1993 7.27313 24.1743 7.28023C24.2054 7.28263 24.2364 7.28712 24.2669 7.29365C21.2604 8.15476 20.0627 10.4881 19.3956 13.2543C19.3553 13.4302 19.3331 13.6112 19.3016 13.7867Z" fill="#FBEED0"/>
<path d="M35.8248 18.1242C35.104 18.1131 34.4897 17.4761 34.4961 16.752C34.5026 16.0113 35.1545 15.3909 35.9022 15.4127C36.6207 15.433 37.2225 16.0803 37.2082 16.8057C37.192 17.5247 36.5503 18.1354 35.8248 18.1242Z" fill="#FBEED0"/>
</svg>
