<svg width="72" height="72" viewBox="0 0 72 72" fill="none" xmlns="http://www.w3.org/2000/svg">
<g id="actualization">
<g id="products">
<g id="Group 159054">
<path id="Rectangle 34624447" d="M64 12.5557H8V23.2223H64V12.5557Z" fill="#22885E"/>
<path id="Rectangle 47 (Stroke)" fill-rule="evenodd" clip-rule="evenodd" d="M9.68888 13.2667C8.90342 13.2667 8.26667 13.9034 8.26667 14.6889V21.0889C8.26667 21.8744 8.90342 22.5111 9.68888 22.5111H62.3111C63.0966 22.5111 63.7333 21.8744 63.7333 21.0889V14.6889C63.7333 13.9034 63.0966 13.2667 62.3111 13.2667H9.68888ZM4 14.6889C4 11.547 6.547 9 9.68888 9H62.3111C65.453 9 68 11.547 68 14.6889V21.0889C68 24.2308 65.453 26.7778 62.3111 26.7778H9.68888C6.547 26.7778 4 24.2308 4 21.0889V14.6889Z" fill="#0B2D1F"/>
<path id="Rectangle 48" d="M43.5111 33.8887H28.4889C28.2189 33.8887 28 34.1076 28 34.3776V40.5109C28 40.7809 28.2189 40.9998 28.4889 40.9998H43.5111C43.7811 40.9998 44 40.7809 44 40.5109V34.3776C44 34.1076 43.7811 33.8887 43.5111 33.8887Z" fill="#0B2D1F"/>
<g id="Rectangle 46">
<path id="Vector (Stroke)" fill-rule="evenodd" clip-rule="evenodd" d="M12.2627 27.4879V58.0658H59.7293V27.4879H12.2627ZM7.67188 27.4879C7.67188 23.5606 8.33531 22.1946 12.2627 22.1946L35.3266 22.1943H59.7293C64.3631 22.1947 64.3627 22.1943 64.3627 27.7252L64.3632 42.9351L64.3631 58.0658C64.3631 62.2934 64.3631 62.2934 59.7293 62.2934H36.7088H12.2623C7.67188 62.2934 7.67188 62.3725 7.67188 58.145V42.9351V27.4879Z" fill="#0B2D1F"/>
</g>
</g>
</g>
<g id="Group 1171275230">
<circle id="Ellipse 2626" cx="56.5" cy="54.5" r="11" fill="#22885E" stroke="#0B2D1F" stroke-width="3"/>
</g>
<path id="Vector" d="M59.2347 51.1844C58.9972 51.2844 58.1347 52.0219 57.3347 52.8218L55.8723 54.2718L55.3598 53.8093C55.0723 53.5593 54.7098 53.2968 54.5348 53.2343C52.9974 52.6468 51.4599 54.3093 52.1849 55.7718C52.4599 56.3217 54.4473 58.3217 55.0098 58.6217C55.5973 58.9217 56.1223 58.9217 56.7098 58.6217C56.9598 58.4842 58.1597 57.3842 59.3722 56.1468C61.1346 54.3718 61.6096 53.8218 61.7221 53.4218C61.9846 52.4719 61.3971 51.3594 60.5097 51.1094C59.9097 50.9469 59.7597 50.9594 59.2347 51.1844Z" fill="#0B2D1F"/>
</g>
</svg>
