<svg width="72" height="72" viewBox="0 0 72 72" fill="none" xmlns="http://www.w3.org/2000/svg">
<g id="asset-eficiency-ratio-report">
<g id="Group">
<g id="Vector">
<path d="M29.887 4.07675C27.9495 4.40174 25.9246 5.37672 24.5871 6.62668L23.6622 7.48916H19.9123C15.8249 7.48916 15.2624 7.55166 14.0874 8.13914C12.675 8.85162 11.4875 10.3891 11.15 11.964C10.95 12.9015 10.95 62.5751 11.15 63.5126C11.35 64.4376 11.925 65.5376 12.5875 66.2375C13.2374 66.925 14.5249 67.65 15.4874 67.85C16.4249 68.05 56.3488 68.05 57.2862 67.85C59.4112 67.4 61.1736 65.6251 61.6236 63.5126C61.8236 62.5626 61.8236 12.9015 61.6236 11.964C61.1736 9.85159 59.3862 8.06414 57.2862 7.62666C56.8862 7.53916 55.1363 7.48916 52.8614 7.48916H49.099L48.2615 6.68918C47.3115 5.8017 46.3615 5.18922 45.0866 4.68924C43.4491 4.02675 42.8991 3.98926 36.2868 4.00175C32.9369 4.01426 30.062 4.05175 29.887 4.07675ZM42.8741 7.92665C43.3116 8.03914 44.0241 8.30164 44.4366 8.51413C45.6865 9.17661 47.0865 10.7641 47.449 11.9515L47.524 12.239H36.3868H25.2496L25.3246 11.9515C25.5371 11.2891 26.1246 10.3766 26.8371 9.6516C27.662 8.81412 28.962 8.07664 30.0245 7.87665C30.3245 7.81415 33.1619 7.76415 36.3243 7.75165C41.0492 7.73915 42.2116 7.77665 42.8741 7.92665ZM21.4247 12.0765C21.3247 12.5515 21.2622 13.3765 21.2872 13.9515C21.3247 15.0515 21.5247 15.4139 22.2872 15.8139C22.7872 16.0764 49.9864 16.0764 50.4864 15.8139C51.2489 15.4139 51.4489 15.0515 51.4864 13.9515C51.5114 13.3765 51.4489 12.5515 51.3489 12.0765L51.1739 11.2391H53.8113C56.8362 11.2391 57.2362 11.3391 57.7362 12.2265L58.0112 12.714V37.7383V62.7626L57.7487 63.2376C57.5987 63.5001 57.2737 63.8251 57.0112 63.9751L56.5362 64.2376H36.3868H16.2374L15.7624 63.9751C15.4999 63.8251 15.1749 63.5001 15.0249 63.2376L14.7624 62.7626V37.7383V12.714L15.0374 12.2265C15.5374 11.3391 15.9249 11.2391 18.9623 11.2391H21.5997L21.4247 12.0765Z" fill="#4D0000"/>
<path d="M42.8741 7.92665C43.3116 8.03914 44.0241 8.30164 44.4366 8.51413C45.6865 9.17661 47.0865 10.7641 47.449 11.9515L47.524 12.239H36.3868H25.2496L25.3246 11.9515C25.5371 11.2891 26.1246 10.3766 26.8371 9.6516C27.662 8.81412 28.962 8.07664 30.0245 7.87665C30.3245 7.81415 33.1619 7.76415 36.3243 7.75165C41.0492 7.73915 42.2116 7.77665 42.8741 7.92665Z" fill="#E60000"/>
</g>
<path id="Vector_2" d="M42.3385 21.989C41.501 22.2515 40.901 23.264 41.0635 24.1515C41.2135 24.9389 41.9635 25.6139 42.701 25.6139C42.876 25.6139 43.0134 25.6514 43.0134 25.7139C43.0134 25.7639 42.026 26.7889 40.826 27.9889L38.6386 30.1763L35.6012 27.1389C32.3137 23.864 32.1262 23.7265 31.1763 23.9765C30.7888 24.089 29.9888 24.8264 26.9264 27.8889C23.7015 31.1263 23.1515 31.7388 23.0765 32.1387C22.8515 33.3637 23.664 34.3637 24.8889 34.3637C25.1764 34.3637 25.5264 34.3012 25.6764 34.2262C25.8264 34.1512 27.2264 32.8137 28.8013 31.2638L31.6388 28.4263L34.6137 31.3888C36.2386 33.0137 37.7011 34.4012 37.8511 34.4762C38.2011 34.6512 39.0761 34.6512 39.426 34.4762C39.576 34.4012 41.051 32.9887 42.7135 31.3388L45.7259 28.3388L45.8009 28.8388C46.0884 30.5763 48.4883 30.9388 49.3008 29.3638C49.5008 28.9763 49.5133 28.6013 49.4883 26.0264C49.4508 22.839 49.4383 22.8265 48.5883 22.189C48.2633 21.939 48.0633 21.9265 45.4759 21.9015C43.9509 21.889 42.5385 21.9265 42.3385 21.989Z" fill="#4D0000"/>
<path id="Vector_3" d="M27.7659 40.9383C27.5284 41.0383 26.666 41.7758 25.866 42.5758L24.4035 44.0257L23.891 43.5632C23.6036 43.3132 23.2411 43.0507 23.0661 42.9882C21.5286 42.4008 19.9912 44.0632 20.7161 45.5257C20.9911 46.0757 22.9786 48.0756 23.5411 48.3756C24.1285 48.6756 24.6535 48.6756 25.241 48.3756C25.491 48.2381 26.691 47.1381 27.9034 45.9007C29.6659 44.1257 30.1409 43.5757 30.2534 43.1757C30.5159 42.2258 29.9284 41.1133 29.0409 40.8633C28.4409 40.7008 28.2909 40.7133 27.7659 40.9383Z" fill="#4D0000"/>
<path id="Vector_4" d="M33.8362 42.2876C32.6988 43.0501 32.7238 44.55 33.8987 45.425C34.2362 45.6875 34.3612 45.6875 42.411 45.6875C50.4608 45.6875 50.5858 45.6875 50.9233 45.425C52.0982 44.55 52.1232 43.0501 50.9858 42.2876L50.5608 42.0001H42.411H34.2612L33.8362 42.2876Z" fill="#4D0000"/>
<path id="Vector_5" d="M28.3233 51.5509C28.2608 51.5759 28.0358 51.6259 27.8358 51.6759C27.5983 51.7258 26.9233 52.2883 25.9358 53.2633L24.3984 54.7758L23.9359 54.3633C23.4234 53.9133 22.7859 53.6133 22.3609 53.6133C21.8359 53.6133 21.0735 54.0883 20.786 54.6008C20.1985 55.6507 20.4485 56.2632 22.1734 57.9632C23.5484 59.3131 23.8859 59.4881 24.8608 59.3006C25.2483 59.2256 25.6858 58.8507 27.6108 56.9507C28.8732 55.7007 29.9982 54.5008 30.0982 54.3008C30.5357 53.4758 30.2232 52.2883 29.4482 51.8508C29.0482 51.6259 28.5232 51.4884 28.3233 51.5509Z" fill="#4D0000"/>
<path id="Vector_6" d="M34.0265 52.9251C33.4141 53.2001 33.0391 53.8251 33.0391 54.5876C33.0391 55.2875 33.2641 55.7125 33.9015 56.175C34.239 56.4375 34.364 56.4375 42.4138 56.4375C50.4636 56.4375 50.5886 56.4375 50.9261 56.175C51.5636 55.7125 51.7885 55.2875 51.7885 54.5876C51.7885 53.8126 51.4136 53.1876 50.7761 52.9251C50.1761 52.6751 34.6015 52.6751 34.0265 52.9251Z" fill="#4D0000"/>
</g>
</g>
</svg>
