<svg width="72" height="72" viewBox="0 0 72 72" fill="none" xmlns="http://www.w3.org/2000/svg">
<g id="fuel-logs">
<g id="Group 1171275239">
<g id="Group">
<path id="Vector" d="M15.7388 4.29169C12.9884 5.1043 10.7131 7.50461 10.138 10.2175C10.038 10.6925 10.0005 17.3309 10.0005 33.7455V56.6235L8.60034 57.3236C7.82524 57.7112 7.00013 58.1612 6.7751 58.3362C6.0125 58.9113 6 58.9988 6 62.9493C6 66.3623 6.0125 66.5498 6.26253 66.9999C6.41255 67.2624 6.7376 67.5874 7.00013 67.7375L7.47519 68H30.0781C52.4186 68 52.6936 68 53.1061 67.75C53.3312 67.6124 53.6187 67.3249 53.7562 67.0999C53.9938 66.7123 54.0063 66.4623 54.0063 63.0244C54.0063 58.9863 53.9938 58.9113 53.2312 58.3362C53.0061 58.1612 52.181 57.7112 51.4184 57.3236L50.0057 56.6235V42.5592C50.0057 34.8207 50.0307 28.4949 50.0682 28.4949C50.3058 28.4949 51.2059 29.0824 51.806 29.6325C52.6936 30.4451 53.1687 31.1327 53.6062 32.2078L53.9438 33.0579L54.0063 42.2466C54.0813 52.1854 54.0313 51.5854 54.7439 52.9855C55.1064 53.6856 56.2941 54.8483 57.0817 55.2733C57.9318 55.7359 59.0069 55.9984 60.007 55.9984C62.7074 55.9984 64.9327 54.3482 65.8078 51.6854C65.9953 51.1103 66.0078 49.6351 65.9828 35.0582C65.9453 19.2811 65.9453 19.0561 65.6953 18.7061C65.5203 18.456 64.1951 17.7309 61.0697 16.1557C57.1692 14.1805 56.6316 13.943 56.069 13.943C54.3063 13.9305 53.4062 15.9682 54.5688 17.3434C54.7189 17.5309 55.5815 18.0435 56.4691 18.481L58.0943 19.2811L58.0318 19.8812C58.0068 20.2063 58.0443 20.7688 58.1318 21.1439C58.3193 21.9315 58.9944 23.2817 59.4945 23.8317C60.0446 24.4193 61.1447 25.2944 61.6073 25.482L62.0073 25.657L61.9823 38.0461C61.9448 50.1727 61.9448 50.4477 61.6948 50.8603C61.2822 51.5604 60.8447 51.8104 60.007 51.8104C59.1694 51.8104 58.7319 51.5604 58.3193 50.8603C58.0818 50.4477 58.0693 50.1477 58.0068 41.2465C57.9318 31.0327 57.9818 31.6828 57.0567 29.82C56.1565 28.0323 54.8939 26.6071 53.2187 25.5195C52.3685 24.9694 50.5058 24.1193 50.1308 24.1193C50.0432 24.1193 50.0057 21.9315 50.0057 17.3934C50.0057 10.9926 49.9932 10.63 49.7432 9.7424C49.3682 8.37973 48.7306 7.31709 47.6304 6.22945C46.9428 5.54185 46.4178 5.1543 45.7427 4.82926C43.9549 3.95415 44.7676 3.99165 30.0031 4.00415H16.6889L15.7388 4.29169ZM42.5548 8.11719C43.9675 8.34222 44.9926 9.11732 45.5927 10.4175L45.9427 11.1801L46.0052 34.9957L46.0677 58.8113L46.3553 59.2114C46.5553 59.4989 47.1179 59.8614 48.318 60.4615L50.0057 61.3116V62.6493V63.9995H30.0031H10.0005V62.6493V61.3116L11.6882 60.4615C12.8884 59.8614 13.451 59.4989 13.651 59.2114L13.9385 58.8113L14.001 35.0582C14.0636 12.7178 14.0761 11.2676 14.2886 10.755C14.8512 9.34235 16.1138 8.32972 17.564 8.11719C18.5266 7.97968 41.6922 7.96717 42.5548 8.11719Z" fill="#0B2D1F"/>
<g id="Vector_2">
<path d="M18.9001 14.2435C18.6751 14.381 18.3876 14.6686 18.25 14.8936C18.0125 15.2937 18 15.5437 18 23.9948C18 32.4459 18.0125 32.6959 18.25 33.096C18.3876 33.321 18.6751 33.6085 18.9001 33.7461C19.3002 33.9836 19.5502 33.9961 30.0016 33.9961C40.4529 33.9961 40.703 33.9836 41.103 33.7461C41.328 33.6085 41.6156 33.321 41.7531 33.096C41.9906 32.6959 42.0031 32.4459 42.0031 23.9948C42.0031 15.5437 41.9906 15.2937 41.7531 14.8936C41.6156 14.6686 41.328 14.381 41.103 14.2435C40.703 14.006 40.4529 13.9935 30.0016 13.9935C19.5502 13.9935 19.3002 14.006 18.9001 14.2435ZM38.0026 23.9948V29.9956H30.0016H22.0005V23.9948V17.994H30.0016H38.0026V23.9948Z" fill="#0B2D1F"/>
<path d="M38.0026 23.9948V29.9956H30.0016H22.0005V23.9948V17.994H30.0016H38.0026V23.9948Z" fill="#22885E"/>
</g>
</g>
</g>
</g>
</svg>
