<svg width="72" height="72" viewBox="0 0 72 72" fill="none" xmlns="http://www.w3.org/2000/svg">
<g id="fuel-ratio-report">
<g id="Group">
<g id="Vector">
<path d="M29.887 4.07675C27.9495 4.40174 25.9246 5.37672 24.5871 6.62668L23.6622 7.48916H19.9123C15.8249 7.48916 15.2624 7.55166 14.0874 8.13914C12.675 8.85162 11.4875 10.3891 11.15 11.964C10.95 12.9015 10.95 62.5751 11.15 63.5126C11.35 64.4376 11.925 65.5376 12.5875 66.2375C13.2374 66.925 14.5249 67.65 15.4874 67.85C16.4249 68.05 56.3488 68.05 57.2862 67.85C59.4112 67.4 61.1736 65.6251 61.6236 63.5126C61.8236 62.5626 61.8236 12.9015 61.6236 11.964C61.1736 9.85159 59.3862 8.06414 57.2862 7.62666C56.8862 7.53916 55.1363 7.48916 52.8614 7.48916H49.099L48.2615 6.68918C47.3115 5.8017 46.3615 5.18922 45.0866 4.68924C43.4491 4.02675 42.8991 3.98926 36.2868 4.00175C32.9369 4.01426 30.062 4.05175 29.887 4.07675ZM42.8741 7.92665C43.3116 8.03914 44.0241 8.30164 44.4366 8.51413C45.6865 9.17661 47.0865 10.7641 47.449 11.9515L47.524 12.239H36.3868H25.2496L25.3246 11.9515C25.5371 11.2891 26.1246 10.3766 26.8371 9.6516C27.662 8.81412 28.962 8.07664 30.0245 7.87665C30.3245 7.81415 33.1619 7.76415 36.3243 7.75165C41.0492 7.73915 42.2116 7.77665 42.8741 7.92665ZM21.4247 12.0765C21.3247 12.5515 21.2622 13.3765 21.2872 13.9515C21.3247 15.0515 21.5247 15.4139 22.2872 15.8139C22.7872 16.0764 49.9864 16.0764 50.4864 15.8139C51.2489 15.4139 51.4489 15.0515 51.4864 13.9515C51.5114 13.3765 51.4489 12.5515 51.3489 12.0765L51.1739 11.2391H53.8113C56.8362 11.2391 57.2362 11.3391 57.7362 12.2265L58.0112 12.714V37.7383V62.7626L57.7487 63.2376C57.5987 63.5001 57.2737 63.8251 57.0112 63.9751L56.5362 64.2376H36.3868H16.2374L15.7624 63.9751C15.4999 63.8251 15.1749 63.5001 15.0249 63.2376L14.7624 62.7626V37.7383V12.714L15.0374 12.2265C15.5374 11.3391 15.9249 11.2391 18.9623 11.2391H21.5997L21.4247 12.0765Z" fill="#4D0000"/>
<path d="M42.8741 7.92665C43.3116 8.03914 44.0241 8.30164 44.4366 8.51413C45.6865 9.17661 47.0865 10.7641 47.449 11.9515L47.524 12.239H36.3868H25.2496L25.3246 11.9515C25.5371 11.2891 26.1246 10.3766 26.8371 9.6516C27.662 8.81412 28.962 8.07664 30.0245 7.87665C30.3245 7.81415 33.1619 7.76415 36.3243 7.75165C41.0492 7.73915 42.2116 7.77665 42.8741 7.92665Z" fill="#E60000"/>
</g>
<path id="Vector_2" d="M27.7659 40.9383C27.5284 41.0383 26.666 41.7758 25.866 42.5758L24.4035 44.0257L23.891 43.5632C23.6036 43.3132 23.2411 43.0507 23.0661 42.9882C21.5286 42.4008 19.9912 44.0632 20.7161 45.5257C20.9911 46.0757 22.9786 48.0756 23.5411 48.3756C24.1285 48.6756 24.6535 48.6756 25.241 48.3756C25.491 48.2381 26.691 47.1381 27.9034 45.9007C29.6659 44.1257 30.1409 43.5757 30.2534 43.1757C30.5159 42.2258 29.9284 41.1133 29.0409 40.8633C28.4409 40.7008 28.2909 40.7133 27.7659 40.9383Z" fill="#4D0000"/>
<path id="Vector_3" d="M33.8362 42.2876C32.6988 43.0501 32.7238 44.55 33.8987 45.425C34.2362 45.6875 34.3612 45.6875 42.411 45.6875C50.4608 45.6875 50.5858 45.6875 50.9233 45.425C52.0982 44.55 52.1232 43.0501 50.9858 42.2876L50.5608 42.0001H42.411H34.2612L33.8362 42.2876Z" fill="#4D0000"/>
<path id="Vector_4" d="M28.3233 51.5509C28.2608 51.5759 28.0358 51.6259 27.8358 51.6759C27.5983 51.7258 26.9233 52.2883 25.9358 53.2633L24.3984 54.7758L23.9359 54.3633C23.4234 53.9133 22.7859 53.6133 22.3609 53.6133C21.8359 53.6133 21.0735 54.0883 20.786 54.6008C20.1985 55.6507 20.4485 56.2632 22.1734 57.9632C23.5484 59.3131 23.8859 59.4881 24.8608 59.3006C25.2483 59.2256 25.6858 58.8507 27.6108 56.9507C28.8732 55.7007 29.9982 54.5008 30.0982 54.3008C30.5357 53.4758 30.2232 52.2883 29.4482 51.8508C29.0482 51.6259 28.5232 51.4884 28.3233 51.5509Z" fill="#4D0000"/>
<path id="Vector_5" d="M34.0265 52.9251C33.4141 53.2001 33.0391 53.8251 33.0391 54.5876C33.0391 55.2875 33.2641 55.7125 33.9015 56.175C34.239 56.4375 34.364 56.4375 42.4138 56.4375C50.4636 56.4375 50.5886 56.4375 50.9261 56.175C51.5636 55.7125 51.7885 55.2875 51.7885 54.5876C51.7885 53.8126 51.4136 53.1876 50.7761 52.9251C50.1761 52.6751 34.6015 52.6751 34.0265 52.9251Z" fill="#4D0000"/>
</g>
<g id="Group 1171275240">
<g id="Group_2">
<path id="Vector_6" d="M30.0434 18.0912C29.1839 18.3451 28.4728 19.0952 28.2931 19.943C28.2619 20.0914 28.2502 22.1659 28.2502 27.2955V34.4448L27.8126 34.6636C27.5704 34.7847 27.3125 34.9254 27.2422 34.9801C27.0039 35.1598 27 35.1871 27 36.4217C27 37.4882 27.0039 37.5468 27.082 37.6875C27.1289 37.7695 27.2305 37.8711 27.3125 37.918L27.461 38H34.5244C41.5058 38 41.5917 38 41.7207 37.9219C41.791 37.8789 41.8808 37.789 41.9238 37.7187C41.998 37.5976 42.002 37.5195 42.002 36.4451C42.002 35.1832 41.9981 35.1598 41.7597 34.9801C41.6894 34.9254 41.4316 34.7847 41.1933 34.6636L40.7518 34.4448V30.0497C40.7518 27.6315 40.7596 25.6546 40.7713 25.6546C40.8456 25.6546 41.1268 25.8383 41.3144 26.0102C41.5917 26.2641 41.7402 26.479 41.8769 26.8149L41.9824 27.0806L42.002 29.9521C42.0254 33.0579 42.0098 32.8704 42.2325 33.308C42.3458 33.5268 42.7169 33.8901 42.963 34.0229C43.2287 34.1675 43.5647 34.2495 43.8772 34.2495C44.7211 34.2495 45.4165 33.7338 45.6899 32.9017C45.7485 32.722 45.7524 32.261 45.7446 27.7057C45.7329 22.7754 45.7329 22.705 45.6548 22.5956C45.6001 22.5175 45.186 22.2909 44.2093 21.7987C42.9904 21.1814 42.8224 21.1072 42.6466 21.1072C42.0957 21.1033 41.8144 21.7401 42.1778 22.1698C42.2246 22.2284 42.4942 22.3886 42.7716 22.5253L43.2795 22.7754L43.2599 22.9629C43.2521 23.0645 43.2638 23.2403 43.2912 23.3575C43.3498 23.6036 43.5608 24.0255 43.717 24.1974C43.8889 24.381 44.2327 24.6545 44.3773 24.7131L44.5023 24.7678L44.4945 28.6394C44.4827 32.429 44.4827 32.5149 44.4046 32.6438C44.2757 32.8626 44.139 32.9407 43.8772 32.9407C43.6154 32.9407 43.4787 32.8626 43.3498 32.6438C43.2756 32.5149 43.2717 32.4211 43.2521 29.6395C43.2287 26.4477 43.2443 26.6509 42.9552 26.0688C42.6739 25.5101 42.2793 25.0647 41.7558 24.7248C41.4902 24.5529 40.9081 24.2873 40.7909 24.2873C40.7635 24.2873 40.7518 23.6036 40.7518 22.1854C40.7518 20.1852 40.7479 20.0719 40.6698 19.7945C40.5525 19.3687 40.3533 19.0366 40.0095 18.6967C39.7946 18.4818 39.6306 18.3607 39.4196 18.2591C38.8609 17.9857 39.1149 17.9974 34.501 18.0013H30.3403L30.0434 18.0912ZM38.4234 19.2866C38.8648 19.3569 39.1852 19.5992 39.3727 20.0055L39.4821 20.2438L39.5016 27.6862L39.5212 35.1285L39.611 35.2535C39.6735 35.3434 39.8493 35.4567 40.2244 35.6442L40.7518 35.9099V36.3279V36.7498H34.501H28.2502V36.3279V35.9099L28.7776 35.6442C29.1526 35.4567 29.3284 35.3434 29.3909 35.2535L29.4808 35.1285L29.5003 27.7057C29.5199 20.7243 29.5238 20.2711 29.5902 20.1109C29.766 19.6695 30.1606 19.353 30.6138 19.2866C30.9146 19.2436 38.1538 19.2397 38.4234 19.2866Z" fill="#4D0000"/>
<g id="Vector_7">
<path d="M31.0313 21.2013C30.961 21.2443 30.8711 21.3342 30.8281 21.4045C30.7539 21.5295 30.75 21.6076 30.75 24.2486C30.75 26.8896 30.7539 26.9677 30.8281 27.0927C30.8711 27.1631 30.961 27.2529 31.0313 27.2959C31.1563 27.3701 31.2344 27.374 34.5005 27.374C37.7665 27.374 37.8447 27.3701 37.9697 27.2959C38.04 27.2529 38.1299 27.1631 38.1728 27.0927C38.2471 26.9677 38.251 26.8896 38.251 24.2486C38.251 21.6076 38.2471 21.5295 38.1728 21.4045C38.1299 21.3342 38.04 21.2443 37.9697 21.2013C37.8447 21.1271 37.7665 21.1232 34.5005 21.1232C31.2344 21.1232 31.1563 21.1271 31.0313 21.2013ZM37.0008 24.2486V26.1239H34.5005H32.0002V24.2486V22.3734H34.5005H37.0008V24.2486Z" fill="#4D0000"/>
<path d="M37.0008 24.2486V26.1239H34.5005H32.0002V24.2486V22.3734H34.5005H37.0008V24.2486Z" fill="#E60000"/>
</g>
</g>
</g>
</g>
</svg>
