<svg width="72" height="72" viewBox="0 0 72 72" fill="none" xmlns="http://www.w3.org/2000/svg">
<g clip-path="url(#clip0_5984_45228)">
<rect x="38" y="25" width="14" height="31" fill="#CBEDDF"/>
<rect x="19" y="38" width="12" height="19" fill="#62C89E"/>
<path fill-rule="evenodd" clip-rule="evenodd" d="M8 8.5H38.5V54.5H30.0369V37.9567H20.3594V54.5H8V8.5Z" fill="#22885E"/>
<path d="M18.3041 14.1168C17.7234 14.6732 17.6992 14.7942 17.6992 18.2781C17.6992 22.2459 17.8686 22.7782 19.1267 23.0685C19.925 23.2378 21.1831 22.7056 21.4251 22.1007C21.4976 21.883 21.5702 20.1168 21.5702 18.2055C21.5702 14.7942 21.546 14.6732 20.9654 14.1168C20.6025 13.7297 20.0944 13.5119 19.6347 13.5119C19.175 13.5119 18.667 13.7297 18.3041 14.1168Z" fill="#0B2D1F"/>
<path d="M28.0998 13.9958C27.4224 14.6732 27.3256 15.2781 27.4224 18.8346C27.495 21.9797 27.495 22.0281 28.1724 22.6088C28.995 23.3104 29.7692 23.3588 30.616 22.6814L31 21.9999L31.245 18.3507L31 14.4999L30.616 14.02C29.7934 13.3909 28.7289 13.3668 28.0998 13.9958Z" fill="#0B2D1F"/>
<mask id="path-6-outside-1_5984_45228" maskUnits="userSpaceOnUse" x="7.4668" y="4.76562" width="53" height="55" fill="black">
<rect fill="white" x="7.4668" y="4.76562" width="53" height="55"/>
<path fill-rule="evenodd" clip-rule="evenodd" d="M8.46679 58.2704C33.2745 58.2694 45.6922 58.2613 51.9651 58.1962C52.4005 58.3175 52.8991 58.3108 53.3248 58.1799C58.2047 58.1121 58.3806 57.9936 58.5876 57.7867C58.9021 57.4721 59.0715 56.9883 59.0715 56.3592C59.0715 54.9318 58.2731 54.3995 56.144 54.3995H54.4747V47.7704C54.4747 44.11 54.4665 42.4658 54.3655 41.6077C54.3695 38.2288 54.363 34.966 54.3581 32.5585C54.3557 31.3502 54.3537 30.3574 54.3537 29.6735V29.6733C54.3537 24.1331 54.3537 24.1089 53.773 23.6492C53.265 23.2137 52.7569 23.1895 47.0714 23.1895H40.9503L40.8778 14.9395L40.8052 6.68939L40.2245 6.22971C39.7567 5.84694 39.2515 5.78191 30.9876 5.77177C30.9883 5.77156 30.9886 5.77134 30.9886 5.77114C30.9883 5.75942 29.9381 5.77002 27.1115 5.77002H8.46679V5.80618V9.61053V9.64075L21.8197 9.64034C23.3514 9.64103 24.7471 9.64103 25.9502 9.64103H37.0551V32.0203V54.3995H34.6358H32.2164V46.5849C32.2164 39.5204 32.168 38.6978 31.7567 37.8268C30.6922 35.5042 29.4825 35.0445 24.5953 35.0445C20.4098 35.0445 19.6114 35.2381 18.2324 36.5687C16.8775 37.8994 16.7324 38.8187 16.7324 47.0688V54.3995H8.46679V58.2704ZM50.6899 41.5287C50.6312 36.8634 50.6037 32.6378 50.6037 31.1735V27.0606H45.7649H40.9261V40.73V54.3995H45.7649H50.6037V47.6253C50.6037 44.1324 50.6107 42.4291 50.6899 41.5287ZM28.3454 46.9478C28.3454 41.4801 28.2728 39.4236 28.0551 39.2058C27.8615 39.0123 26.7244 38.9155 24.5711 38.9155C21.5227 38.9155 21.3292 38.9397 20.9905 39.4478C20.6518 39.9075 20.6034 41.0688 20.6034 47.1898V54.3995H24.4744H28.3454V46.9478Z"/>
</mask>
<path fill-rule="evenodd" clip-rule="evenodd" d="M8.46679 58.2704C33.2745 58.2694 45.6922 58.2613 51.9651 58.1962C52.4005 58.3175 52.8991 58.3108 53.3248 58.1799C58.2047 58.1121 58.3806 57.9936 58.5876 57.7867C58.9021 57.4721 59.0715 56.9883 59.0715 56.3592C59.0715 54.9318 58.2731 54.3995 56.144 54.3995H54.4747V47.7704C54.4747 44.11 54.4665 42.4658 54.3655 41.6077C54.3695 38.2288 54.363 34.966 54.3581 32.5585C54.3557 31.3502 54.3537 30.3574 54.3537 29.6735V29.6733C54.3537 24.1331 54.3537 24.1089 53.773 23.6492C53.265 23.2137 52.7569 23.1895 47.0714 23.1895H40.9503L40.8778 14.9395L40.8052 6.68939L40.2245 6.22971C39.7567 5.84694 39.2515 5.78191 30.9876 5.77177C30.9883 5.77156 30.9886 5.77134 30.9886 5.77114C30.9883 5.75942 29.9381 5.77002 27.1115 5.77002H8.46679V5.80618V9.61053V9.64075L21.8197 9.64034C23.3514 9.64103 24.7471 9.64103 25.9502 9.64103H37.0551V32.0203V54.3995H34.6358H32.2164V46.5849C32.2164 39.5204 32.168 38.6978 31.7567 37.8268C30.6922 35.5042 29.4825 35.0445 24.5953 35.0445C20.4098 35.0445 19.6114 35.2381 18.2324 36.5687C16.8775 37.8994 16.7324 38.8187 16.7324 47.0688V54.3995H8.46679V58.2704ZM50.6899 41.5287C50.6312 36.8634 50.6037 32.6378 50.6037 31.1735V27.0606H45.7649H40.9261V40.73V54.3995H45.7649H50.6037V47.6253C50.6037 44.1324 50.6107 42.4291 50.6899 41.5287ZM28.3454 46.9478C28.3454 41.4801 28.2728 39.4236 28.0551 39.2058C27.8615 39.0123 26.7244 38.9155 24.5711 38.9155C21.5227 38.9155 21.3292 38.9397 20.9905 39.4478C20.6518 39.9075 20.6034 41.0688 20.6034 47.1898V54.3995H24.4744H28.3454V46.9478Z" fill="#0B2D1F"/>
<path d="M8.46679 58.2704H7.96679V58.7704L8.46681 58.7704L8.46679 58.2704ZM51.9651 58.1962L52.0994 57.7145L52.031 57.6955L51.9599 57.6962L51.9651 58.1962ZM53.3248 58.1799L53.3179 57.6799L53.2463 57.6809L53.1779 57.7019L53.3248 58.1799ZM54.4747 54.3995H53.9747V54.8995H54.4747V54.3995ZM54.3655 41.6077L53.8655 41.6071L53.8654 41.6368L53.8689 41.6662L54.3655 41.6077ZM54.3581 32.5585L54.8581 32.5575L54.8581 32.5575L54.3581 32.5585ZM53.773 23.6492L53.4477 24.0289L53.4551 24.0352L53.4627 24.0413L53.773 23.6492ZM40.9503 23.1895L40.4504 23.1939L40.4547 23.6895H40.9503V23.1895ZM40.8778 14.9395L41.3777 14.9351L40.8778 14.9395ZM40.8052 6.68939L41.3052 6.68499L41.3031 6.44582L41.1155 6.29737L40.8052 6.68939ZM40.2245 6.22971L39.9079 6.61673L39.9142 6.62173L40.2245 6.22971ZM30.9876 5.77177L30.8243 5.2992L30.987 6.27177L30.9876 5.77177ZM30.9886 5.77114L31.4885 5.76181L31.4885 5.76056L30.9886 5.77114ZM8.46679 5.77002V5.27002H7.96679V5.77002H8.46679ZM8.46679 9.64075H7.96679V10.1408L8.46681 10.1408L8.46679 9.64075ZM21.8197 9.64034L21.8199 9.14034L21.8196 9.14034L21.8197 9.64034ZM37.0551 9.64103H37.5551V9.14103H37.0551V9.64103ZM37.0551 54.3995V54.8995H37.5551V54.3995H37.0551ZM32.2164 54.3995H31.7164V54.8995H32.2164V54.3995ZM31.7567 37.8268L31.3021 38.0351L31.3046 38.0403L31.7567 37.8268ZM18.2324 36.5687L17.8852 36.2089L17.882 36.212L18.2324 36.5687ZM16.7324 54.3995V54.8995H17.2324V54.3995H16.7324ZM8.46679 54.3995V53.8995H7.96679V54.3995H8.46679ZM50.6899 41.5287L51.188 41.5725L51.1902 41.5475L51.1899 41.5224L50.6899 41.5287ZM50.6037 27.0606H51.1037V26.5606H50.6037V27.0606ZM40.9261 27.0606V26.5606H40.4261V27.0606H40.9261ZM40.9261 54.3995H40.4261V54.8995H40.9261V54.3995ZM50.6037 54.3995V54.8995H51.1037V54.3995H50.6037ZM28.0551 39.2058L27.7015 39.5594L27.7015 39.5594L28.0551 39.2058ZM20.9905 39.4478L21.393 39.7444L21.4 39.7349L21.4065 39.7251L20.9905 39.4478ZM20.6034 54.3995H20.1034V54.8995H20.6034V54.3995ZM28.3454 54.3995V54.8995H28.8454V54.3995H28.3454ZM8.46681 58.7704C33.2728 58.7694 45.6941 58.7613 51.9703 58.6961L51.9599 57.6962C45.6903 57.7613 33.2761 57.7694 8.46677 57.7704L8.46681 58.7704ZM51.8309 58.6778C52.3578 58.8247 52.954 58.817 53.4718 58.6578L53.1779 57.7019C52.8441 57.8046 52.4431 57.8103 52.0994 57.7145L51.8309 58.6778ZM53.3318 58.6798C55.7683 58.646 57.0523 58.5994 57.7554 58.5333C58.1026 58.5006 58.3449 58.4603 58.5246 58.3995C58.7431 58.3255 58.8563 58.2251 58.9412 58.1402L58.2341 57.4331C58.2154 57.4517 58.229 57.4438 58.2038 57.4523C58.1399 57.474 57.9944 57.5064 57.6617 57.5376C57.0051 57.5994 55.7612 57.646 53.3179 57.6799L53.3318 58.6798ZM58.9412 58.1402C59.3793 57.7021 59.5715 57.0717 59.5715 56.3592H58.5715C58.5715 56.9049 58.425 57.2422 58.2341 57.4331L58.9412 58.1402ZM59.5715 56.3592C59.5715 55.5465 59.3368 54.865 58.6841 54.4285C58.0863 54.0286 57.2226 53.8995 56.144 53.8995V54.8995C57.1945 54.8995 57.7946 55.0366 58.1282 55.2597C58.4069 55.4461 58.5715 55.7446 58.5715 56.3592H59.5715ZM56.144 53.8995H54.4747V54.8995H56.144V53.8995ZM54.9747 54.3995V47.7704H53.9747V54.3995H54.9747ZM54.9747 47.7704C54.9747 44.1304 54.9675 42.4449 54.862 41.5492L53.8689 41.6662C53.9655 42.4867 53.9747 44.0896 53.9747 47.7704H54.9747ZM54.8655 41.6083C54.8695 38.2285 54.863 34.9649 54.8581 32.5575L53.8581 32.5595C53.863 34.967 53.8695 38.2291 53.8655 41.6071L54.8655 41.6083ZM54.8581 32.5575C54.8557 31.349 54.8537 30.3568 54.8537 29.6735H53.8537C53.8537 30.3581 53.8557 31.3515 53.8581 32.5595L54.8581 32.5575ZM54.8537 29.6735V29.6733H53.8537V29.6735H54.8537ZM54.8537 29.6733C54.8537 26.9207 54.8544 25.4952 54.7788 24.7083C54.741 24.3138 54.6795 24.0137 54.5501 23.7705C54.4133 23.5133 54.2234 23.368 54.0834 23.2572L53.4627 24.0413C53.613 24.1603 53.6408 24.1904 53.6673 24.2402C53.7012 24.304 53.7487 24.4423 53.7834 24.8039C53.853 25.529 53.8537 26.8857 53.8537 29.6733H54.8537ZM54.0984 23.2696C53.9296 23.1248 53.743 23.0028 53.4572 22.9155C53.1931 22.8349 52.8582 22.7881 52.3972 22.7572C51.4748 22.6953 49.9048 22.6895 47.0714 22.6895V23.6895C49.9234 23.6895 51.4502 23.6959 52.3303 23.755C52.7705 23.7845 53.0132 23.8255 53.165 23.8719C53.295 23.9116 53.3625 23.9559 53.4477 24.0289L54.0984 23.2696ZM47.0714 22.6895H40.9503V23.6895H47.0714V22.6895ZM41.4503 23.1852L41.3777 14.9351L40.3778 14.9439L40.4504 23.1939L41.4503 23.1852ZM41.3777 14.9351L41.3052 6.68499L40.3052 6.69379L40.3778 14.9439L41.3777 14.9351ZM41.1155 6.29737L40.5349 5.83768L39.9142 6.62173L40.4948 7.08141L41.1155 6.29737ZM40.5411 5.84273C40.3726 5.70482 40.1874 5.59241 39.8663 5.5128C39.5752 5.4406 39.1699 5.39465 38.5564 5.36172C37.3224 5.29548 35.1146 5.27683 30.9882 5.27177L30.987 6.27177C35.1245 6.27685 37.3012 6.29578 38.5028 6.36028C39.107 6.39272 39.4322 6.43544 39.6256 6.4834C39.7892 6.52395 39.8425 6.56321 39.9079 6.61668L40.5411 5.84273ZM31.1509 6.24435C31.166 6.23914 31.2139 6.2223 31.2673 6.18639C31.2919 6.16988 31.4936 6.03569 31.4885 5.76181L30.4887 5.78047C30.4861 5.64245 30.5397 5.53654 30.588 5.47197C30.6334 5.41129 30.6822 5.37475 30.7094 5.35651C30.7625 5.32082 30.8099 5.30419 30.8243 5.2992L31.1509 6.24435ZM31.4885 5.76056C31.4832 5.51089 31.3089 5.3842 31.2698 5.35761C31.2134 5.31921 31.1625 5.30177 31.1453 5.29606C31.1045 5.28251 31.0707 5.27735 31.0623 5.27605C31.038 5.27226 31.0172 5.27083 31.0097 5.27033C30.9901 5.26901 30.9685 5.26832 30.95 5.26787C30.9104 5.26691 30.8541 5.26636 30.7824 5.26603C30.6378 5.26536 30.4165 5.2656 30.1089 5.26619C29.4927 5.26737 28.5242 5.27002 27.1115 5.27002V6.27002C28.5254 6.27002 29.4952 6.26737 30.1109 6.26619C30.4192 6.26559 30.6371 6.26537 30.7779 6.26602C30.8488 6.26634 30.8967 6.26688 30.9257 6.26758C30.9414 6.26796 30.9452 6.26825 30.9424 6.26806C30.9411 6.26798 30.9379 6.26775 30.9334 6.26731C30.9295 6.26694 30.9205 6.26601 30.9086 6.26416C30.9023 6.26318 30.8701 6.25836 30.8303 6.24516C30.8136 6.23962 30.763 6.22236 30.7069 6.18413C30.6681 6.15772 30.494 6.0312 30.4887 5.78172L31.4885 5.76056ZM27.1115 5.27002H8.46679V6.27002H27.1115V5.27002ZM7.96679 5.77002V5.80618H8.96679V5.77002H7.96679ZM7.96679 5.80618V9.61053H8.96679V5.80618H7.96679ZM7.96679 9.61053V9.64075H8.96679V9.61053H7.96679ZM8.46681 10.1408L21.8197 10.1403L21.8196 9.14034L8.46678 9.14075L8.46681 10.1408ZM21.8194 10.1403C23.3513 10.141 24.7471 10.141 25.9502 10.141V9.14103C24.7471 9.14103 23.3515 9.14103 21.8199 9.14034L21.8194 10.1403ZM25.9502 10.141H37.0551V9.14103H25.9502V10.141ZM36.5551 9.64103V32.0203H37.5551V9.64103H36.5551ZM36.5551 32.0203V54.3995H37.5551V32.0203H36.5551ZM37.0551 53.8995H34.6358V54.8995H37.0551V53.8995ZM34.6358 53.8995H32.2164V54.8995H34.6358V53.8995ZM32.7164 54.3995V46.5849H31.7164V54.3995H32.7164ZM32.7164 46.5849C32.7164 43.0581 32.7044 41.0707 32.6401 39.8568C32.5751 38.6313 32.4545 38.1336 32.2088 37.6133L31.3046 38.0403C31.4702 38.391 31.5794 38.74 31.6415 39.9097C31.7041 41.091 31.7164 43.0472 31.7164 46.5849H32.7164ZM32.2112 37.6185C31.6485 36.3906 31.0023 35.5679 29.7901 35.0984C28.6436 34.6544 27.0271 34.5445 24.5953 34.5445V35.5445C27.0507 35.5445 28.4826 35.6644 29.4289 36.0309C30.3095 36.372 30.8004 36.9404 31.3022 38.0351L32.2112 37.6185ZM24.5953 34.5445C22.5147 34.5445 21.2077 34.5904 20.2448 34.8214C19.2327 35.0642 18.6122 35.5074 17.8852 36.2089L18.5796 36.9285C19.2316 36.2993 19.6998 35.9805 20.478 35.7938C21.3055 35.5953 22.4904 35.5445 24.5953 35.5445V34.5445ZM17.882 36.212C17.5251 36.5625 17.2195 36.9134 16.9805 37.3843C16.7432 37.8519 16.5868 38.4074 16.4794 39.1527C16.2674 40.6239 16.2324 42.9585 16.2324 47.0688H17.2324C17.2324 42.9291 17.2699 40.6789 17.4692 39.2953C17.5675 38.6132 17.7013 38.1737 17.8723 37.8368C18.0416 37.5033 18.2622 37.2403 18.5827 36.9254L17.882 36.212ZM16.2324 47.0688V54.3995H17.2324V47.0688H16.2324ZM16.7324 53.8995H8.46679V54.8995H16.7324V53.8995ZM7.96679 54.3995V58.2704H8.96679V54.3995H7.96679ZM50.1037 31.1735C50.1037 32.6408 50.1312 36.8687 50.1899 41.535L51.1899 41.5224C51.1311 36.8581 51.1037 32.6348 51.1037 31.1735H50.1037ZM50.1037 27.0606V31.1735H51.1037V27.0606H50.1037ZM45.7649 27.5606H50.6037V26.5606H45.7649V27.5606ZM40.9261 27.5606H45.7649V26.5606H40.9261V27.5606ZM41.4261 40.73V27.0606H40.4261V40.73H41.4261ZM41.4261 54.3995V40.73H40.4261V54.3995H41.4261ZM45.7649 53.8995H40.9261V54.8995H45.7649V53.8995ZM50.6037 53.8995H45.7649V54.8995H50.6037V53.8995ZM50.1037 47.6253V54.3995H51.1037V47.6253H50.1037ZM50.1918 41.4849C50.1102 42.4134 50.1037 44.1468 50.1037 47.6253H51.1037C51.1037 44.118 51.1113 42.4449 51.188 41.5725L50.1918 41.4849ZM27.7015 39.5594C27.6245 39.4824 27.624 39.4174 27.6461 39.5026C27.6609 39.5592 27.6784 39.6537 27.6959 39.7986C27.7308 40.0862 27.7597 40.5177 27.7822 41.1266C27.8272 42.3411 27.8454 44.2137 27.8454 46.9478H28.8454C28.8454 44.2142 28.8273 42.3247 28.7815 41.0896C28.7587 40.4736 28.7287 40.0085 28.6886 39.6783C28.6688 39.5144 28.6449 39.3698 28.6139 39.2509C28.5905 39.1606 28.5401 38.9837 28.4086 38.8523L27.7015 39.5594ZM24.5711 39.4155C25.6434 39.4155 26.4496 39.4397 27.0062 39.4863C27.2859 39.5098 27.4891 39.5378 27.6259 39.5675C27.6945 39.5823 27.735 39.5952 27.7551 39.6031C27.7828 39.614 27.7481 39.606 27.7015 39.5594L28.4086 38.8523C28.3136 38.7573 28.201 38.7039 28.1211 38.6725C28.0335 38.638 27.9366 38.6116 27.8377 38.5902C27.6397 38.5472 27.3877 38.5148 27.0897 38.4898C26.4912 38.4397 25.6521 38.4155 24.5711 38.4155V39.4155ZM21.4065 39.7251C21.4825 39.6112 21.5119 39.5856 21.5366 39.5695C21.5644 39.5514 21.6353 39.5156 21.8376 39.4858C22.2633 39.423 23.0258 39.4155 24.5711 39.4155V38.4155C23.068 38.4155 22.2096 38.4201 21.6917 38.4965C21.4222 38.5362 21.1907 38.6017 20.9917 38.731C20.7896 38.8624 20.6678 39.0304 20.5744 39.1704L21.4065 39.7251ZM21.1034 47.1898C21.1034 44.125 21.1156 42.3182 21.1693 41.2202C21.1962 40.67 21.2327 40.3191 21.278 40.0858C21.3226 39.8555 21.3691 39.7768 21.393 39.7444L20.5879 39.1512C20.4425 39.3486 20.3559 39.5874 20.2962 39.8955C20.2371 40.2005 20.198 40.6087 20.1705 41.1714C20.1153 42.2992 20.1034 44.1335 20.1034 47.1898H21.1034ZM21.1034 54.3995V47.1898H20.1034V54.3995H21.1034ZM24.4744 53.8995H20.6034V54.8995H24.4744V53.8995ZM28.3454 53.8995H24.4744V54.8995H28.3454V53.8995ZM27.8454 46.9478V54.3995H28.8454V46.9478H27.8454Z" fill="#0B2D1F" mask="url(#path-6-outside-1_5984_45228)"/>
<path d="M59.4927 38.3138H51.4736L47.427 42.8317L45.8848 48.8761L49.1613 57.1897L56.0981 64.3687L62.4569 57.1897L66.2967 48.8761L64.1912 42.8317L59.4927 38.3138Z" fill="#22885E"/>
<path d="M56.0945 51.9567C56.9131 51.9567 57.6141 51.6548 58.1975 51.051C58.78 50.4482 59.0712 49.7232 59.0712 48.8761C59.0712 48.0289 58.78 47.3034 58.1975 46.6996C57.6141 46.0968 56.9131 45.7954 56.0945 45.7954C55.2759 45.7954 54.5753 46.0968 53.9929 46.6996C53.4095 47.3034 53.1177 48.0289 53.1177 48.8761C53.1177 49.7232 53.4095 50.4482 53.9929 51.051C54.5753 51.6548 55.2759 51.9567 56.0945 51.9567ZM56.0945 63.2781C59.1208 60.4028 61.3658 57.7904 62.8294 55.4409C64.2929 53.0924 65.0247 51.0068 65.0247 49.1841C65.0247 46.3859 64.1624 44.0944 62.4379 42.3097C60.7144 40.526 58.5999 39.6341 56.0945 39.6341C53.5891 39.6341 51.4741 40.526 49.7495 42.3097C48.026 44.0944 47.1642 46.3859 47.1642 49.1841C47.1642 51.0068 47.896 53.0924 49.3596 55.4409C50.8232 57.7904 53.0681 60.4028 56.0945 63.2781ZM56.0945 67.3599C52.1007 63.8429 49.118 60.5758 47.1464 57.5589C45.1738 54.5429 44.1875 51.7513 44.1875 49.1841C44.1875 45.3333 45.3846 42.2655 47.7789 39.9807C50.1722 37.6959 52.9441 36.5535 56.0945 36.5535C59.2449 36.5535 62.0167 37.6959 64.41 39.9807C66.8043 42.2655 68.0015 45.3333 68.0015 49.1841C68.0015 51.7513 67.0157 54.5429 65.0441 57.5589C63.0715 60.5758 60.0883 63.8429 56.0945 67.3599Z" fill="#0B2D1F"/>
<path d="M4 10.23C4 7.46856 6.23858 5.22998 9 5.22998H9.2093V58.81H9C6.23858 58.81 4 56.5714 4 53.81V10.23Z" fill="#0B2D1F"/>
</g>
<defs>
<clipPath id="clip0_5984_45228">
<rect width="72" height="72" fill="white"/>
</clipPath>
</defs>
</svg>
