<svg width="72" height="72" viewBox="0 0 72 72" fill="none" xmlns="http://www.w3.org/2000/svg">
<g id="mining-pit" clip-path="url(#clip0_5984_45228)">
<rect id="Rectangle 34624854" x="38" y="25" width="14" height="31" fill="#2894B4"/>
<rect id="Rectangle 34624853" x="19" y="38" width="12" height="19" fill="#68D4F4"/>
<g id="Group 1171275264">
<g id="Group 1171275256">
<g id="Group 1171275255">
<path id="Vector" d="M18.308 14.117C17.7273 14.6735 17.7031 14.7944 17.7031 18.2784C17.7031 22.2461 17.8725 22.7784 19.1306 23.0687C19.929 23.2381 21.187 22.7058 21.429 22.101C21.5015 21.8832 21.5741 20.1171 21.5741 18.2058C21.5741 14.7944 21.5499 14.6735 20.9693 14.117C20.6064 13.7299 20.0983 13.5122 19.6386 13.5122C19.1789 13.5122 18.6709 13.7299 18.308 14.117Z" fill="#0D313B"/>
<path id="Vector_2" d="M28.0998 13.9957C27.4224 14.6731 27.3256 15.2779 27.4224 18.8344C27.495 21.9796 27.495 22.028 28.1724 22.6087C28.995 23.3103 29.7692 23.3587 30.616 22.6812L31 21.9998L31.245 18.3506L31 14.4998L30.616 14.0199C29.7934 13.3908 28.7289 13.3666 28.0998 13.9957Z" fill="#0D313B"/>
<g id="Subtract">
<mask id="path-5-outside-1_5984_45228" maskUnits="userSpaceOnUse" x="7.46875" y="4.76562" width="53" height="55" fill="black">
<rect fill="white" x="7.46875" y="4.76562" width="53" height="55"/>
<path fill-rule="evenodd" clip-rule="evenodd" d="M8.46875 58.2704C33.2764 58.2694 45.6942 58.2613 51.9671 58.1962C52.4024 58.3175 52.901 58.3108 53.3268 58.1798C58.2066 58.1121 58.3826 57.9936 58.5896 57.7867C58.9041 57.4721 59.0734 56.9883 59.0734 56.3592C59.0734 54.9318 58.275 54.3995 56.146 54.3995H54.4766V47.7704C54.4766 44.11 54.4685 42.4658 54.3674 41.6077C54.3715 38.2288 54.3649 34.9659 54.3601 32.5584C54.3576 31.3502 54.3556 30.3574 54.3556 29.6735V29.6733C54.3556 24.1331 54.3556 24.1089 53.775 23.6492C53.2669 23.2137 52.7589 23.1895 47.0733 23.1895H40.9523L40.8797 14.9395L40.8071 6.68939L40.2265 6.22971C39.7586 5.84693 39.2534 5.78191 30.9896 5.77177C30.9902 5.77156 30.9905 5.77134 30.9905 5.77114C30.9903 5.75942 29.94 5.77002 27.1134 5.77002H8.46875V5.80618V9.61053V9.64075L21.8217 9.64034C23.3534 9.64103 24.7491 9.64103 25.9521 9.64103H37.0571V32.0203V54.3995H34.6377H32.2183V46.5849C32.2183 39.5204 32.17 38.6978 31.7587 37.8268C30.6941 35.5042 29.4844 35.0445 24.5973 35.0445C20.4118 35.0445 19.6134 35.2381 18.2343 36.5687C16.8795 37.8994 16.7343 38.8187 16.7343 47.0688V54.3995H8.46875V58.2704ZM50.6919 41.5287C50.6331 36.8634 50.6056 32.6378 50.6056 31.1735V27.0606H45.7669H40.9281V40.73V54.3995H45.7669H50.6056V47.6253C50.6056 44.1324 50.6127 42.4291 50.6919 41.5287ZM28.3473 46.9478C28.3473 41.4801 28.2747 39.4236 28.057 39.2058C27.8635 39.0123 26.7263 38.9155 24.5731 38.9155C21.5247 38.9155 21.3311 38.9397 20.9924 39.4478C20.6537 39.9075 20.6053 41.0688 20.6053 47.1898V54.3995H24.4763H28.3473V46.9478Z"/>
</mask>
<path fill-rule="evenodd" clip-rule="evenodd" d="M8.46875 58.2704C33.2764 58.2694 45.6942 58.2613 51.9671 58.1962C52.4024 58.3175 52.901 58.3108 53.3268 58.1798C58.2066 58.1121 58.3826 57.9936 58.5896 57.7867C58.9041 57.4721 59.0734 56.9883 59.0734 56.3592C59.0734 54.9318 58.275 54.3995 56.146 54.3995H54.4766V47.7704C54.4766 44.11 54.4685 42.4658 54.3674 41.6077C54.3715 38.2288 54.3649 34.9659 54.3601 32.5584C54.3576 31.3502 54.3556 30.3574 54.3556 29.6735V29.6733C54.3556 24.1331 54.3556 24.1089 53.775 23.6492C53.2669 23.2137 52.7589 23.1895 47.0733 23.1895H40.9523L40.8797 14.9395L40.8071 6.68939L40.2265 6.22971C39.7586 5.84693 39.2534 5.78191 30.9896 5.77177C30.9902 5.77156 30.9905 5.77134 30.9905 5.77114C30.9903 5.75942 29.94 5.77002 27.1134 5.77002H8.46875V5.80618V9.61053V9.64075L21.8217 9.64034C23.3534 9.64103 24.7491 9.64103 25.9521 9.64103H37.0571V32.0203V54.3995H34.6377H32.2183V46.5849C32.2183 39.5204 32.17 38.6978 31.7587 37.8268C30.6941 35.5042 29.4844 35.0445 24.5973 35.0445C20.4118 35.0445 19.6134 35.2381 18.2343 36.5687C16.8795 37.8994 16.7343 38.8187 16.7343 47.0688V54.3995H8.46875V58.2704ZM50.6919 41.5287C50.6331 36.8634 50.6056 32.6378 50.6056 31.1735V27.0606H45.7669H40.9281V40.73V54.3995H45.7669H50.6056V47.6253C50.6056 44.1324 50.6127 42.4291 50.6919 41.5287ZM28.3473 46.9478C28.3473 41.4801 28.2747 39.4236 28.057 39.2058C27.8635 39.0123 26.7263 38.9155 24.5731 38.9155C21.5247 38.9155 21.3311 38.9397 20.9924 39.4478C20.6537 39.9075 20.6053 41.0688 20.6053 47.1898V54.3995H24.4763H28.3473V46.9478Z" fill="#0D313B"/>
<path d="M8.46875 58.2704H7.96875V58.7704L8.46877 58.7704L8.46875 58.2704ZM51.9671 58.1962L52.1013 57.7145L52.0329 57.6955L51.9619 57.6962L51.9671 58.1962ZM53.3268 58.1798L53.3198 57.6799L53.2483 57.6809L53.1798 57.7019L53.3268 58.1798ZM58.5896 57.7867L58.9431 58.1402V58.1402L58.5896 57.7867ZM54.4766 54.3995H53.9766V54.8995H54.4766V54.3995ZM54.3674 41.6077L53.8674 41.6071L53.8674 41.6367L53.8708 41.6662L54.3674 41.6077ZM54.3601 32.5584L54.8601 32.5574L54.3601 32.5584ZM53.775 23.6492L53.4496 24.0289L53.457 24.0352L53.4646 24.0413L53.775 23.6492ZM40.9523 23.1895L40.4523 23.1939L40.4567 23.6895H40.9523V23.1895ZM40.8797 14.9395L41.3797 14.9351L40.8797 14.9395ZM40.8071 6.68939L41.3071 6.68499L41.305 6.44582L41.1175 6.29737L40.8071 6.68939ZM40.2265 6.22971L39.9098 6.61673L39.9161 6.62173L40.2265 6.22971ZM30.9896 5.77177L30.8262 5.29921L30.989 6.27177L30.9896 5.77177ZM30.9905 5.77114L31.4904 5.76181L31.4904 5.76048L30.9905 5.77114ZM8.46875 5.77002V5.27002H7.96875V5.77002H8.46875ZM8.46875 9.64075H7.96875V10.1408L8.46877 10.1408L8.46875 9.64075ZM21.8217 9.64034L21.8219 9.14034H21.8217L21.8217 9.64034ZM37.0571 9.64103H37.5571V9.14103H37.0571V9.64103ZM37.0571 54.3995V54.8995H37.5571V54.3995H37.0571ZM32.2183 54.3995H31.7183V54.8995H32.2183V54.3995ZM31.7587 37.8268L31.3041 38.0351L31.3065 38.0403L31.7587 37.8268ZM18.2343 36.5687L17.8871 36.2089L17.884 36.212L18.2343 36.5687ZM16.7343 54.3995V54.8995H17.2343V54.3995H16.7343ZM8.46875 54.3995V53.8995H7.96875V54.3995H8.46875ZM50.6919 41.5287L51.1899 41.5725L51.1921 41.5475L51.1918 41.5224L50.6919 41.5287ZM50.6056 27.0606H51.1056V26.5606H50.6056V27.0606ZM40.9281 27.0606V26.5606H40.4281V27.0606H40.9281ZM40.9281 54.3995H40.4281V54.8995H40.9281V54.3995ZM50.6056 54.3995V54.8995H51.1056V54.3995H50.6056ZM28.057 39.2058L28.4106 38.8523L28.4106 38.8523L28.057 39.2058ZM20.9924 39.4478L21.3949 39.7444L21.4019 39.7349L21.4084 39.7251L20.9924 39.4478ZM20.6053 54.3995H20.1053V54.8995H20.6053V54.3995ZM28.3473 54.3995V54.8995H28.8473V54.3995H28.3473ZM8.46877 58.7704C33.2748 58.7694 45.696 58.7613 51.9723 58.6961L51.9619 57.6962C45.6923 57.7613 33.2781 57.7694 8.46873 57.7704L8.46877 58.7704ZM51.8328 58.6778C52.3598 58.8247 52.956 58.817 53.4738 58.6578L53.1798 57.7019C52.8461 57.8046 52.4451 57.8103 52.1013 57.7145L51.8328 58.6778ZM53.3337 58.6798C55.7702 58.646 57.0542 58.5994 57.7573 58.5333C58.1045 58.5006 58.3468 58.4603 58.5266 58.3995C58.745 58.3255 58.8583 58.2251 58.9431 58.1402L58.236 57.4331C58.2174 57.4517 58.231 57.4438 58.2058 57.4523C58.1418 57.474 57.9963 57.5064 57.6637 57.5376C57.0071 57.5994 55.7632 57.646 53.3198 57.6799L53.3337 58.6798ZM58.9431 58.1402C59.3812 57.7021 59.5734 57.0717 59.5734 56.3592H58.5734C58.5734 56.9049 58.4269 57.2422 58.236 57.4331L58.9431 58.1402ZM59.5734 56.3592C59.5734 55.5465 59.3388 54.865 58.6861 54.4285C58.0882 54.0286 57.2246 53.8995 56.146 53.8995V54.8995C57.1964 54.8995 57.7965 55.0366 58.1301 55.2597C58.4089 55.4461 58.5734 55.7446 58.5734 56.3592H59.5734ZM56.146 53.8995H54.4766V54.8995H56.146V53.8995ZM54.9766 54.3995V47.7704H53.9766V54.3995H54.9766ZM54.9766 47.7704C54.9766 44.1304 54.9695 42.4448 54.864 41.5492L53.8708 41.6662C53.9675 42.4867 53.9766 44.0896 53.9766 47.7704H54.9766ZM54.8674 41.6083C54.8715 38.2285 54.8649 34.9648 54.8601 32.5574L53.8601 32.5594C53.8649 34.967 53.8715 38.2291 53.8674 41.6071L54.8674 41.6083ZM54.8601 32.5574C54.8576 31.349 54.8556 30.3568 54.8556 29.6735H53.8556C53.8556 30.358 53.8576 31.3514 53.8601 32.5594L54.8601 32.5574ZM54.8556 29.6735V29.6733H53.8556V29.6735H54.8556ZM54.8556 29.6733C54.8556 26.9207 54.8563 25.4952 54.7808 24.7083C54.7429 24.3138 54.6815 24.0137 54.5521 23.7705C54.4153 23.5133 54.2253 23.368 54.0854 23.2572L53.4646 24.0413C53.615 24.1603 53.6428 24.1904 53.6693 24.2402C53.7032 24.304 53.7506 24.4423 53.7854 24.8039C53.855 25.529 53.8556 26.8857 53.8556 29.6733H54.8556ZM54.1004 23.2696C53.9315 23.1248 53.745 23.0028 53.4591 22.9155C53.1951 22.8349 52.8601 22.7881 52.3992 22.7572C51.4768 22.6953 49.9068 22.6895 47.0733 22.6895V23.6895C49.9254 23.6895 51.4522 23.6959 52.3322 23.755C52.7725 23.7845 53.0152 23.8255 53.167 23.8719C53.2969 23.9116 53.3645 23.9559 53.4496 24.0289L54.1004 23.2696ZM47.0733 22.6895H40.9523V23.6895H47.0733V22.6895ZM41.4523 23.1852L41.3797 14.9351L40.3797 14.9439L40.4523 23.1939L41.4523 23.1852ZM41.3797 14.9351L41.3071 6.68499L40.3071 6.69379L40.3797 14.9439L41.3797 14.9351ZM41.1175 6.29737L40.5368 5.83768L39.9161 6.62173L40.4968 7.08141L41.1175 6.29737ZM40.5431 5.84273C40.3745 5.70482 40.1893 5.59241 39.8683 5.5128C39.5772 5.44059 39.1718 5.39465 38.5583 5.36172C37.3244 5.29548 35.1166 5.27683 30.9902 5.27177L30.989 6.27177C35.1264 6.27685 37.3032 6.29578 38.5047 6.36028C39.109 6.39272 39.4342 6.43544 39.6276 6.4834C39.7911 6.52395 39.8445 6.56321 39.9099 6.61668L40.5431 5.84273ZM31.1529 6.24433C31.168 6.23912 31.2159 6.22228 31.2693 6.18636C31.2939 6.16983 31.4955 6.03564 31.4904 5.76181L30.4906 5.78047C30.488 5.64248 30.5417 5.53659 30.5899 5.47202C30.6353 5.41133 30.6842 5.37478 30.7113 5.35654C30.7644 5.32084 30.8118 5.30421 30.8262 5.29921L31.1529 6.24433ZM31.4904 5.76048C31.4851 5.51083 31.3108 5.38417 31.2718 5.3576C31.2154 5.3192 31.1644 5.30177 31.1472 5.29605C31.1064 5.28251 31.0727 5.27735 31.0642 5.27605C31.0399 5.27226 31.0191 5.27083 31.0116 5.27033C30.992 5.26901 30.9705 5.26832 30.9519 5.26787C30.9124 5.26691 30.8561 5.26635 30.7844 5.26603C30.6398 5.26536 30.4184 5.2656 30.1109 5.26619C29.4947 5.26737 28.5261 5.27002 27.1134 5.27002V6.27002C28.5273 6.27002 29.4972 6.26737 30.1128 6.26619C30.4212 6.26559 30.6391 6.26537 30.7798 6.26602C30.8508 6.26634 30.8987 6.26688 30.9277 6.26758C30.9434 6.26796 30.9472 6.26825 30.9444 6.26806C30.9431 6.26798 30.9399 6.26775 30.9354 6.26731C30.9315 6.26694 30.9224 6.26601 30.9106 6.26416C30.9042 6.26318 30.872 6.25836 30.8323 6.24516C30.8156 6.23962 30.765 6.22236 30.7089 6.18414C30.6701 6.15775 30.496 6.03126 30.4906 5.7818L31.4904 5.76048ZM27.1134 5.27002H8.46875V6.27002H27.1134V5.27002ZM7.96875 5.77002V5.80618H8.96875V5.77002H7.96875ZM7.96875 5.80618V9.61053H8.96875V5.80618H7.96875ZM7.96875 9.61053V9.64075H8.96875V9.61053H7.96875ZM8.46877 10.1408L21.8217 10.1403L21.8217 9.14034L8.46873 9.14075L8.46877 10.1408ZM21.8215 10.1403C23.3533 10.141 24.7491 10.141 25.9521 10.141V9.14103C24.7491 9.14103 23.3535 9.14103 21.8219 9.14034L21.8215 10.1403ZM25.9521 10.141H37.0571V9.14103H25.9521V10.141ZM36.5571 9.64103V32.0203H37.5571V9.64103H36.5571ZM36.5571 32.0203V54.3995H37.5571V32.0203H36.5571ZM37.0571 53.8995H34.6377V54.8995H37.0571V53.8995ZM34.6377 53.8995H32.2183V54.8995H34.6377V53.8995ZM32.7183 54.3995V46.5849H31.7183V54.3995H32.7183ZM32.7183 46.5849C32.7183 43.0581 32.7064 41.0707 32.642 39.8568C32.577 38.6313 32.4565 38.1336 32.2108 37.6133L31.3065 38.0403C31.4721 38.391 31.5814 38.74 31.6434 39.9097C31.7061 41.091 31.7183 43.0472 31.7183 46.5849H32.7183ZM32.2132 37.6185C31.6504 36.3906 31.0042 35.5679 29.792 35.0984C28.6456 34.6544 27.0291 34.5445 24.5973 34.5445V35.5445C27.0527 35.5445 28.4846 35.6644 29.4309 36.0309C30.3114 36.372 30.8024 36.9404 31.3041 38.0351L32.2132 37.6185ZM24.5973 34.5445C22.5167 34.5445 21.2096 34.5904 20.2468 34.8214C19.2347 35.0642 18.6141 35.5074 17.8871 36.2089L18.5815 36.9285C19.2336 36.2993 19.7017 35.9805 20.48 35.7938C21.3075 35.5953 22.4924 35.5445 24.5973 35.5445V34.5445ZM17.884 36.212C17.5271 36.5625 17.2215 36.9134 16.9825 37.3843C16.7452 37.8519 16.5887 38.4074 16.4814 39.1527C16.2694 40.6239 16.2343 42.9585 16.2343 47.0688H17.2343C17.2343 42.9291 17.2718 40.6789 17.4711 39.2953C17.5694 38.6132 17.7033 38.1737 17.8742 37.8368C18.0435 37.5033 18.2641 37.2403 18.5847 36.9254L17.884 36.212ZM16.2343 47.0688V54.3995H17.2343V47.0688H16.2343ZM16.7343 53.8995H8.46875V54.8995H16.7343V53.8995ZM7.96875 54.3995V58.2704H8.96875V54.3995H7.96875ZM50.1056 31.1735C50.1056 32.6408 50.1331 36.8687 50.1919 41.535L51.1918 41.5224C51.1331 36.8581 51.1056 32.6348 51.1056 31.1735H50.1056ZM50.1056 27.0606V31.1735H51.1056V27.0606H50.1056ZM45.7669 27.5606H50.6056V26.5606H45.7669V27.5606ZM40.9281 27.5606H45.7669V26.5606H40.9281V27.5606ZM41.4281 40.73V27.0606H40.4281V40.73H41.4281ZM41.4281 54.3995V40.73H40.4281V54.3995H41.4281ZM45.7669 53.8995H40.9281V54.8995H45.7669V53.8995ZM50.6056 53.8995H45.7669V54.8995H50.6056V53.8995ZM50.1056 47.6253V54.3995H51.1056V47.6253H50.1056ZM50.1938 41.4849C50.1121 42.4134 50.1056 44.1468 50.1056 47.6253H51.1056C51.1056 44.118 51.1132 42.4449 51.1899 41.5725L50.1938 41.4849ZM27.7035 39.5594C27.6264 39.4824 27.6259 39.4174 27.6481 39.5026C27.6628 39.5592 27.6803 39.6538 27.6979 39.7986C27.7327 40.0862 27.7616 40.5177 27.7842 41.1266C27.8291 42.3411 27.8473 44.2137 27.8473 46.9478H28.8473C28.8473 44.2142 28.8292 42.3247 28.7835 41.0896C28.7607 40.4736 28.7306 40.0085 28.6906 39.6783C28.6707 39.5144 28.6468 39.3698 28.6159 39.2509C28.5924 39.1606 28.542 38.9837 28.4106 38.8523L27.7035 39.5594ZM24.5731 39.4155C25.6453 39.4155 26.4515 39.4397 27.0082 39.4863C27.2879 39.5098 27.491 39.5378 27.6279 39.5675C27.6965 39.5823 27.737 39.5952 27.757 39.6031C27.7848 39.614 27.7501 39.606 27.7035 39.5594L28.4106 38.8523C28.3155 38.7573 28.203 38.7039 28.1231 38.6725C28.0355 38.638 27.9386 38.6116 27.8397 38.5902C27.6416 38.5472 27.3897 38.5148 27.0917 38.4898C26.4931 38.4397 25.6541 38.4155 24.5731 38.4155V39.4155ZM21.4084 39.7251C21.4844 39.6111 21.5139 39.5856 21.5386 39.5695C21.5664 39.5514 21.6373 39.5156 21.8395 39.4858C22.2653 39.423 23.0278 39.4155 24.5731 39.4155V38.4155C23.07 38.4155 22.2115 38.4201 21.6937 38.4965C21.4242 38.5362 21.1926 38.6017 20.9936 38.731C20.7915 38.8624 20.6698 39.0304 20.5764 39.1704L21.4084 39.7251ZM21.1053 47.1898C21.1053 44.125 21.1175 42.3182 21.1713 41.2202C21.1982 40.67 21.2347 40.3191 21.2799 40.0858C21.3245 39.8555 21.371 39.7768 21.3949 39.7444L20.5899 39.1512C20.4444 39.3486 20.3579 39.5874 20.2982 39.8955C20.2391 40.2005 20.2 40.6087 20.1724 41.1713C20.1173 42.2992 20.1053 44.1335 20.1053 47.1898H21.1053ZM21.1053 54.3995V47.1898H20.1053V54.3995H21.1053ZM24.4763 53.8995H20.6053V54.8995H24.4763V53.8995ZM28.3473 53.8995H24.4763V54.8995H28.3473V53.8995ZM27.8473 46.9478V54.3995H28.8473V46.9478H27.8473Z" fill="#0D313B" mask="url(#path-5-outside-1_5984_45228)"/>
</g>
<g id="Group 1171275242">
<path id="Vector 675" d="M59.4908 38.3145H51.4716L47.4251 42.8323L45.8828 48.8767L49.1593 57.1903L56.0962 64.3693L62.455 57.1903L66.2948 48.8767L64.1892 42.8323L59.4908 38.3145Z" fill="#2894B4"/>
<path id="Vector_3" d="M56.0945 51.957C56.9131 51.957 57.6141 51.655 58.1975 51.0512C58.78 50.4485 59.0712 49.7235 59.0712 48.8763C59.0712 48.0291 58.78 47.3036 58.1975 46.6998C57.6141 46.097 56.9131 45.7957 56.0945 45.7957C55.2759 45.7957 54.5753 46.097 53.9929 46.6998C53.4095 47.3036 53.1177 48.0291 53.1177 48.8763C53.1177 49.7235 53.4095 50.4485 53.9929 51.0512C54.5753 51.655 55.2759 51.957 56.0945 51.957ZM56.0945 63.2783C59.1208 60.4031 61.3658 57.7907 62.8294 55.4412C64.2929 53.0927 65.0247 51.0071 65.0247 49.1844C65.0247 46.3861 64.1624 44.0946 62.4379 42.3099C60.7144 40.5262 58.5999 39.6344 56.0945 39.6344C53.5891 39.6344 51.4741 40.5262 49.7495 42.3099C48.026 44.0946 47.1642 46.3861 47.1642 49.1844C47.1642 51.0071 47.896 53.0927 49.3596 55.4412C50.8232 57.7907 53.0681 60.4031 56.0945 63.2783ZM56.0945 67.3602C52.1007 63.8431 49.118 60.5761 47.1464 57.5591C45.1738 54.5432 44.1875 51.7516 44.1875 49.1844C44.1875 45.3336 45.3846 42.2657 47.7789 39.9809C50.1722 37.6961 52.9441 36.5537 56.0945 36.5537C59.2449 36.5537 62.0167 37.6961 64.41 39.9809C66.8043 42.2657 68.0015 45.3336 68.0015 49.1844C68.0015 51.7516 67.0157 54.5432 65.0441 57.5591C63.0715 60.5761 60.0883 63.8431 56.0945 67.3602Z" fill="#0D313B"/>
</g>
</g>
</g>
<path id="Rectangle 34624842" d="M4 10.2305C4 7.46905 6.23858 5.23047 9 5.23047H9.2093V58.8105H9C6.23858 58.8105 4 56.5719 4 53.8105V10.2305Z" fill="#0D313B"/>
</g>
</g>
<defs>
<clipPath id="clip0_5984_45228">
<rect width="72" height="72" fill="white"/>
</clipPath>
</defs>
</svg>
