<svg width="72" height="72" viewBox="0 0 72 72" fill="none" xmlns="http://www.w3.org/2000/svg">
<g id="mining-site" clip-path="url(#clip0_5984_45211)">
<rect id="Rectangle 34624852" x="55" y="31" width="8" height="21" fill="#2894B4"/>
<g id="Group 1171275258">
<g id="Group 1171275256">
<g id="Group 1171275255">
<rect id="Rectangle 34624817" x="41.7656" y="39.8154" width="6.4646" height="11.6363" fill="#2894B4"/>
<path id="Vector" d="M33.9436 23.8249L33.5234 24.1482V26.7178V29.2875L33.9436 29.6107C34.5093 30.0633 35.0265 30.0309 35.5759 29.5623C36.0123 29.1744 36.0285 29.1259 36.0931 27.2188C36.1254 26.136 36.0931 25.0047 36.0446 24.6976C35.8345 23.5825 34.8002 23.1461 33.9436 23.8249Z" fill="#0D313B"/>
<path id="Vector_2" d="M40.3962 23.8896C40.0083 24.2613 39.9922 24.3421 39.9922 26.6694C39.9922 29.3198 40.1053 29.6754 40.9457 29.8693C41.479 29.9825 42.3194 29.6269 42.4811 29.2229C42.5295 29.0774 42.578 27.8976 42.578 26.6209C42.578 24.3421 42.5619 24.2613 42.174 23.8896C41.9316 23.631 41.5922 23.4855 41.2851 23.4855C40.978 23.4855 40.6386 23.631 40.3962 23.8896Z" fill="#0D313B"/>
<path id="Vector_3" d="M46.9347 23.8088C46.4822 24.2613 46.4175 24.6653 46.4822 27.0411C46.5307 29.1421 46.5307 29.1744 46.9832 29.5623C47.5327 30.0309 48.0498 30.0633 48.6155 29.6107L49.0357 29.2875V26.7178V24.1482L48.6155 23.8249C48.066 23.4047 47.3549 23.3886 46.9347 23.8088Z" fill="#0D313B"/>
<g id="Group 1171275242">
<path id="Vector 675" d="M21.412 19.8447H12.0949L7.39346 25.0938L5.60156 32.1164L9.40836 41.7756L17.468 50.1166L24.856 41.7756L29.3172 32.1164L26.8709 25.0938L21.412 19.8447Z" fill="#2894B4"/>
<path id="Vector_4" d="M17.4591 35.6961C18.4102 35.6961 19.2247 35.3453 19.9026 34.6438C20.5793 33.9434 20.9177 33.1011 20.9177 32.1168C20.9177 31.1325 20.5793 30.2896 19.9026 29.5881C19.2247 28.8877 18.4102 28.5376 17.4591 28.5376C16.508 28.5376 15.6941 28.8877 15.0174 29.5881C14.3395 30.2896 14.0006 31.1325 14.0006 32.1168C14.0006 33.1011 14.3395 33.9434 15.0174 34.6438C15.6941 35.3453 16.508 35.6961 17.4591 35.6961ZM17.4591 48.8498C20.9753 45.5092 23.5836 42.474 25.284 39.7442C26.9845 37.0156 27.8347 34.5925 27.8347 32.4747C27.8347 29.2236 26.8329 26.5612 24.8292 24.4876C22.8268 22.4152 20.37 21.3791 17.4591 21.3791C14.5482 21.3791 12.0909 22.4152 10.0873 24.4876C8.08477 26.5612 7.08353 29.2236 7.08353 32.4747C7.08353 34.5925 7.93375 37.0156 9.6342 39.7442C11.3346 42.474 13.9429 45.5092 17.4591 48.8498ZM17.4591 53.5923C12.8189 49.506 9.35348 45.7102 7.06278 42.2049C4.77093 38.7008 3.625 35.4574 3.625 32.4747C3.625 28.0007 5.01591 24.4363 7.79772 21.7817C10.5784 19.1271 13.7988 17.7998 17.4591 17.7998C21.1194 17.7998 24.3399 19.1271 27.1205 21.7817C29.9023 24.4363 31.2932 28.0007 31.2932 32.4747C31.2932 35.4574 30.1479 38.7008 27.8572 42.2049C25.5653 45.7102 22.0993 49.506 17.4591 53.5923Z" fill="#0D313B"/>
</g>
<g id="Subtract">
<mask id="path-8-outside-1_5984_45211" maskUnits="userSpaceOnUse" x="26.5469" y="17.3115" width="42" height="37" fill="black">
<rect fill="white" x="26.5469" y="17.3115" width="42" height="37"/>
<path fill-rule="evenodd" clip-rule="evenodd" d="M31.2474 53.3849C49.5473 53.3846 58.4798 53.381 62.882 53.3353C63.1728 53.4163 63.5058 53.4118 63.7902 53.3244C67.05 53.2791 67.1676 53.2 67.3058 53.0617C67.5159 52.8516 67.629 52.5284 67.629 52.1082C67.629 51.1547 67.0957 50.7991 65.6735 50.7991H64.5584V46.3709C64.5584 43.9257 64.5529 42.8274 64.4854 42.2542C64.4881 39.997 64.4837 37.8174 64.4805 36.2092C64.4789 35.4021 64.4775 34.7389 64.4775 34.282V34.2818C64.4775 30.5811 64.4775 30.5649 64.0897 30.2578C63.7503 29.9669 63.4109 29.9508 59.6129 29.9508H55.5241L55.4756 24.4397L55.4271 18.9286L55.0392 18.6215C54.7267 18.3659 54.3892 18.3224 48.869 18.3156C48.8694 18.3155 48.8696 18.3154 48.8696 18.3152C48.8694 18.3074 48.1678 18.3145 46.2797 18.3145H27.5469V18.3852V20.8321V20.9004C27.6332 20.9004 27.72 20.9003 27.8071 20.9003L42.7492 20.8999C43.7706 20.9003 44.7014 20.9003 45.5039 20.9003H52.9221V35.8497V50.7991H51.3059H49.6898V45.5789C49.6898 40.8598 49.6574 40.3103 49.3827 39.7285C48.6716 38.177 47.8635 37.8699 44.5989 37.8699C41.8029 37.8699 41.2696 37.9992 40.3484 38.8881C39.4434 39.777 39.3464 40.3911 39.3464 45.9022V50.7991H32.3851L31.2474 53.3849ZM62.0301 42.2013C61.9909 39.0849 61.9725 36.2622 61.9725 35.2841V32.5366H58.7402H55.5079V41.6679V50.7991H58.7402H61.9725V46.2739C61.9725 43.9406 61.9772 42.8028 62.0301 42.2013ZM47.1039 45.8214C47.1039 42.1689 47.0554 40.7951 46.91 40.6497C46.7807 40.5204 46.0211 40.4557 44.5827 40.4557C42.5464 40.4557 42.4171 40.4719 42.1908 40.8113C41.9646 41.1184 41.9322 41.8941 41.9322 45.983V50.7991H44.5181H47.1039V45.8214Z"/>
</mask>
<path fill-rule="evenodd" clip-rule="evenodd" d="M31.2474 53.3849C49.5473 53.3846 58.4798 53.381 62.882 53.3353C63.1728 53.4163 63.5058 53.4118 63.7902 53.3244C67.05 53.2791 67.1676 53.2 67.3058 53.0617C67.5159 52.8516 67.629 52.5284 67.629 52.1082C67.629 51.1547 67.0957 50.7991 65.6735 50.7991H64.5584V46.3709C64.5584 43.9257 64.5529 42.8274 64.4854 42.2542C64.4881 39.997 64.4837 37.8174 64.4805 36.2092C64.4789 35.4021 64.4775 34.7389 64.4775 34.282V34.2818C64.4775 30.5811 64.4775 30.5649 64.0897 30.2578C63.7503 29.9669 63.4109 29.9508 59.6129 29.9508H55.5241L55.4756 24.4397L55.4271 18.9286L55.0392 18.6215C54.7267 18.3659 54.3892 18.3224 48.869 18.3156C48.8694 18.3155 48.8696 18.3154 48.8696 18.3152C48.8694 18.3074 48.1678 18.3145 46.2797 18.3145H27.5469V18.3852V20.8321V20.9004C27.6332 20.9004 27.72 20.9003 27.8071 20.9003L42.7492 20.8999C43.7706 20.9003 44.7014 20.9003 45.5039 20.9003H52.9221V35.8497V50.7991H51.3059H49.6898V45.5789C49.6898 40.8598 49.6574 40.3103 49.3827 39.7285C48.6716 38.177 47.8635 37.8699 44.5989 37.8699C41.8029 37.8699 41.2696 37.9992 40.3484 38.8881C39.4434 39.777 39.3464 40.3911 39.3464 45.9022V50.7991H32.3851L31.2474 53.3849ZM62.0301 42.2013C61.9909 39.0849 61.9725 36.2622 61.9725 35.2841V32.5366H58.7402H55.5079V41.6679V50.7991H58.7402H61.9725V46.2739C61.9725 43.9406 61.9772 42.8028 62.0301 42.2013ZM47.1039 45.8214C47.1039 42.1689 47.0554 40.7951 46.91 40.6497C46.7807 40.5204 46.0211 40.4557 44.5827 40.4557C42.5464 40.4557 42.4171 40.4719 42.1908 40.8113C41.9646 41.1184 41.9322 41.8941 41.9322 45.983V50.7991H44.5181H47.1039V45.8214Z" fill="#0D313B"/>
<path d="M31.2474 53.3849L30.7897 53.1836L30.4811 53.8849L31.2474 53.8849L31.2474 53.3849ZM62.882 53.3353L63.0162 52.8536L62.9478 52.8346L62.8768 52.8353L62.882 53.3353ZM63.7902 53.3244L63.7833 52.8244L63.7117 52.8254L63.6433 52.8465L63.7902 53.3244ZM67.3058 53.0617L67.6594 53.4153L67.6594 53.4153L67.3058 53.0617ZM64.5584 50.7991H64.0584V51.2991H64.5584V50.7991ZM64.4854 42.2542L63.9854 42.2536L63.9854 42.2832L63.9888 42.3127L64.4854 42.2542ZM64.4805 36.2092L63.9805 36.2102L64.4805 36.2092ZM64.0897 30.2578L63.7643 30.6375L63.7717 30.6438L63.7793 30.6499L64.0897 30.2578ZM55.5241 29.9508L55.0241 29.9552L55.0284 30.4508H55.5241V29.9508ZM55.4271 18.9286L55.9271 18.9242L55.925 18.685L55.7374 18.5366L55.4271 18.9286ZM55.0392 18.6215L54.7226 19.0086L54.7289 19.0136L55.0392 18.6215ZM48.869 18.3156L48.7057 17.843L48.8683 18.8156L48.869 18.3156ZM48.8696 18.3152L48.3697 18.3258L48.3698 18.3292L48.8696 18.3152ZM27.5469 18.3145V17.8145H27.0469V18.3145H27.5469ZM27.5469 20.9004H27.0469V21.4009L27.5474 21.4004L27.5469 20.9004ZM27.8071 20.9003V21.4003H27.8071L27.8071 20.9003ZM42.7492 20.8999L42.7494 20.3999H42.7491L42.7492 20.8999ZM52.9221 20.9003H53.4221V20.4003H52.9221V20.9003ZM52.9221 50.7991V51.2991H53.4221V50.7991H52.9221ZM49.6898 50.7991H49.1898V51.2991H49.6898V50.7991ZM49.3827 39.7285L48.9281 39.9368L48.9306 39.942L49.3827 39.7285ZM40.3484 38.8881L40.0012 38.5283L39.9981 38.5314L40.3484 38.8881ZM39.3464 50.7991V51.2991H39.8464V50.7991H39.3464ZM32.3851 50.7991V50.2991H32.0589L31.9275 50.5977L32.3851 50.7991ZM62.0301 42.2013L62.5282 42.2451L62.5304 42.2201L62.5301 42.195L62.0301 42.2013ZM61.9725 32.5366H62.4725V32.0366H61.9725V32.5366ZM55.5079 32.5366V32.0366H55.0079V32.5366H55.5079ZM55.5079 50.7991H55.0079V51.2991H55.5079V50.7991ZM61.9725 50.7991V51.2991H62.4725V50.7991H61.9725ZM42.1908 40.8113L42.5934 41.1079L42.6003 41.0984L42.6068 41.0886L42.1908 40.8113ZM41.9322 50.7991H41.4322V51.2991H41.9322V50.7991ZM47.1039 50.7991V51.2991H47.6039V50.7991H47.1039ZM31.2474 53.8849C49.5454 53.8846 58.4816 53.881 62.8872 53.8352L62.8768 52.8353C58.4779 52.881 49.5491 52.8846 31.2474 52.8849L31.2474 53.8849ZM62.7477 53.8169C63.1301 53.9235 63.5608 53.918 63.9372 53.8023L63.6433 52.8465C63.4509 52.9056 63.2154 52.9092 63.0162 52.8536L62.7477 53.8169ZM63.7972 53.8243C65.4237 53.8017 66.288 53.7706 66.7654 53.7257C66.9998 53.7037 67.1777 53.6755 67.317 53.6283C67.495 53.568 67.5917 53.483 67.6594 53.4153L66.9523 52.7082C66.9386 52.7218 66.9494 52.7097 66.968 52.6971C66.9881 52.6834 67.0013 52.6794 66.9962 52.6811C66.9727 52.6891 66.8916 52.7094 66.6718 52.7301C66.2409 52.7706 65.4166 52.8017 63.7833 52.8244L63.7972 53.8243ZM67.6594 53.4153C67.9931 53.0816 68.129 52.6118 68.129 52.1082H67.129C67.129 52.445 67.0387 52.6217 66.9523 52.7082L67.6594 53.4153ZM68.129 52.1082C68.129 51.5324 67.9607 51.0136 67.4626 50.6805C67.0193 50.384 66.3987 50.2991 65.6735 50.2991V51.2991C66.3705 51.2991 66.7276 51.392 66.9066 51.5117C67.0308 51.5947 67.129 51.7305 67.129 52.1082H68.129ZM65.6735 50.2991H64.5584V51.2991H65.6735V50.2991ZM65.0584 50.7991V46.3709H64.0584V50.7991H65.0584ZM65.0584 46.3709C65.0584 43.9461 65.0539 42.8065 64.982 42.1957L63.9888 42.3127C64.0519 42.8483 64.0584 43.9054 64.0584 46.3709H65.0584ZM64.9854 42.2548C64.9881 39.9967 64.9837 37.8163 64.9805 36.2082L63.9805 36.2102C63.9837 37.8185 63.9881 39.9973 63.9854 42.2536L64.9854 42.2548ZM64.9805 36.2082C64.9789 35.4008 64.9775 34.7383 64.9775 34.282H63.9775C63.9775 34.7395 63.9789 35.4033 63.9805 36.2102L64.9805 36.2082ZM64.9775 34.282V34.2818H63.9775V34.282H64.9775ZM64.9775 34.2818C64.9775 32.449 64.9782 31.4853 64.9268 30.9494C64.901 30.6804 64.8576 30.4531 64.7553 30.2609C64.6456 30.0547 64.4918 29.9385 64.4 29.8658L63.7793 30.6499C63.8315 30.6912 63.8511 30.7076 63.8644 30.721C63.8719 30.7284 63.8719 30.7295 63.8725 30.7305C63.8793 30.7434 63.9087 30.8089 63.9313 31.045C63.9769 31.5191 63.9775 32.4139 63.9775 34.2818H64.9775ZM64.4151 29.8782C64.2884 29.7696 64.144 29.6752 63.9272 29.6089C63.7322 29.5494 63.4931 29.5172 63.1817 29.4963C62.5585 29.4545 61.5026 29.4508 59.6129 29.4508V30.4508C61.5212 30.4508 62.5339 30.4551 63.1148 30.4941C63.4054 30.5136 63.5522 30.54 63.635 30.5653C63.6959 30.5839 63.7213 30.6006 63.7643 30.6375L64.4151 29.8782ZM59.6129 29.4508H55.5241V30.4508H59.6129V29.4508ZM56.024 29.9464L55.9756 24.4353L54.9756 24.4441L55.0241 29.9552L56.024 29.9464ZM55.9756 24.4353L55.9271 18.9242L54.9271 18.933L54.9756 24.4441L55.9756 24.4353ZM55.7374 18.5366L55.3496 18.2295L54.7289 19.0136L55.1167 19.3206L55.7374 18.5366ZM55.3558 18.2346C55.2261 18.1284 55.0805 18.0412 54.8399 17.9815C54.6292 17.9293 54.3452 17.898 53.9338 17.876C53.1041 17.8314 51.6242 17.819 48.8696 17.8156L48.8683 18.8156C51.634 18.819 53.0829 18.8317 53.8802 18.8745C54.2823 18.8961 54.4862 18.9241 54.5992 18.9521C54.6823 18.9727 54.6961 18.9868 54.7226 19.0085L55.3558 18.2346ZM49.0322 18.7882C49.0471 18.7831 49.0952 18.7662 49.1488 18.7301C49.1732 18.7136 49.3771 18.5777 49.3694 18.3012L48.3698 18.3292C48.3659 18.1902 48.4193 18.083 48.4679 18.0175C48.5135 17.956 48.5629 17.9191 48.5901 17.9007C48.6435 17.8648 48.6912 17.848 48.7057 17.843L49.0322 18.7882ZM49.3695 18.3046C49.3642 18.055 49.1899 17.9283 49.1509 17.9018C49.0946 17.8634 49.0437 17.846 49.0265 17.8403C48.9859 17.8268 48.9524 17.8217 48.9443 17.8205C48.9207 17.8168 48.901 17.8155 48.8949 17.8151C48.878 17.8139 48.8607 17.8134 48.8478 17.8131C48.8197 17.8124 48.7807 17.812 48.7327 17.8118C48.6354 17.8114 48.487 17.8115 48.2817 17.8119C47.87 17.8127 47.2232 17.8145 46.2797 17.8145V18.8145C47.2244 18.8145 47.8724 18.8127 48.2836 18.8119C48.4897 18.8115 48.6347 18.8114 48.7281 18.8118C48.7754 18.812 48.8059 18.8124 48.8236 18.8128C48.8336 18.813 48.8332 18.8132 48.8276 18.8128C48.8271 18.8128 48.8115 18.8118 48.7906 18.8086C48.784 18.8075 48.7515 18.8027 48.7116 18.7894C48.6948 18.7838 48.6442 18.7666 48.588 18.7283C48.5492 18.7019 48.375 18.5753 48.3697 18.3258L49.3695 18.3046ZM46.2797 17.8145H27.5469V18.8145H46.2797V17.8145ZM27.0469 18.3145V18.3852H28.0469V18.3145H27.0469ZM27.0469 18.3852V20.8321H28.0469V18.3852H27.0469ZM27.0469 20.8321V20.9004H28.0469V20.8321H27.0469ZM27.5474 21.4004C27.6335 21.4004 27.7201 21.4003 27.8071 21.4003V20.4003C27.7198 20.4003 27.6329 20.4004 27.5465 20.4004L27.5474 21.4004ZM27.8071 21.4003L42.7492 21.3999L42.7491 20.3999L27.8071 20.4003L27.8071 21.4003ZM42.7489 21.3999C43.7705 21.4003 44.7014 21.4003 45.5039 21.4003V20.4003C44.7014 20.4003 43.7707 20.4003 42.7494 20.3999L42.7489 21.3999ZM45.5039 21.4003H52.9221V20.4003H45.5039V21.4003ZM52.4221 20.9003V35.8497H53.4221V20.9003H52.4221ZM52.4221 35.8497V50.7991H53.4221V35.8497H52.4221ZM52.9221 50.2991H51.3059V51.2991H52.9221V50.2991ZM51.3059 50.2991H49.6898V51.2991H51.3059V50.2991ZM50.1898 50.7991V45.5789H49.1898V50.7991H50.1898ZM50.1898 45.5789C50.1898 43.2248 50.1818 41.8921 50.1386 41.0757C50.0947 40.2479 50.0122 39.8907 49.8348 39.515L48.9306 39.942C49.0279 40.1481 49.099 40.3565 49.14 41.1287C49.1815 41.9123 49.1898 43.2139 49.1898 45.5789H50.1898ZM49.8372 39.5201C49.4512 38.6778 48.9937 38.086 48.1289 37.7511C47.3299 37.4417 46.2194 37.3699 44.5989 37.3699V38.3699C46.243 38.3699 47.1689 38.4517 47.7678 38.6836C48.301 38.8901 48.6031 39.2276 48.9282 39.9368L49.8372 39.5201ZM44.5989 37.3699C43.213 37.3699 42.3197 37.3998 41.654 37.5595C40.9391 37.7309 40.4993 38.0477 40.0012 38.5283L40.6956 39.2479C41.1188 38.8396 41.4062 38.6473 41.8872 38.5319C42.4175 38.4047 43.1888 38.3699 44.5989 38.3699V37.3699ZM39.9981 38.5314C39.7536 38.7714 39.5354 39.0204 39.3642 39.3577C39.1946 39.6918 39.0864 40.0821 39.0131 40.5905C38.8694 41.5878 38.8464 43.1613 38.8464 45.9022H39.8464C39.8464 43.132 39.8718 41.6428 40.0029 40.7331C40.067 40.2879 40.1527 40.0136 40.2559 39.8103C40.3574 39.6103 40.4907 39.4492 40.6988 39.2448L39.9981 38.5314ZM38.8464 45.9022V50.7991H39.8464V45.9022H38.8464ZM39.3464 50.2991H32.3851V51.2991H39.3464V50.2991ZM31.9275 50.5977L30.7897 53.1836L31.705 53.5863L32.8428 51.0005L31.9275 50.5977ZM61.4725 35.2841C61.4725 36.2652 61.4909 39.0902 61.5302 42.2076L62.5301 42.195C62.4909 39.0796 62.4725 36.2592 62.4725 35.2841H61.4725ZM61.4725 32.5366V35.2841H62.4725V32.5366H61.4725ZM58.7402 33.0366H61.9725V32.0366H58.7402V33.0366ZM55.5079 33.0366H58.7402V32.0366H55.5079V33.0366ZM56.0079 41.6679V32.5366H55.0079V41.6679H56.0079ZM56.0079 50.7991V41.6679H55.0079V50.7991H56.0079ZM58.7402 50.2991H55.5079V51.2991H58.7402V50.2991ZM61.9725 50.2991H58.7402V51.2991H61.9725V50.2991ZM61.4725 46.2739V50.7991H62.4725V46.2739H61.4725ZM61.532 42.1576C61.4767 42.7871 61.4725 43.955 61.4725 46.2739H62.4725C62.4725 43.9262 62.4778 42.8186 62.5282 42.2451L61.532 42.1576ZM46.5564 41.0032C46.4704 40.9172 46.4616 40.8336 46.4762 40.8897C46.4833 40.9172 46.4939 40.972 46.5053 41.0656C46.5277 41.2507 46.5468 41.5334 46.5618 41.9389C46.5918 42.7467 46.6039 43.9949 46.6039 45.8214H47.6039C47.6039 43.9954 47.5918 42.7304 47.5612 41.9019C47.5459 41.4892 47.5256 41.1729 47.498 40.9453C47.4844 40.8326 47.4673 40.7278 47.444 40.638C47.4281 40.5768 47.386 40.4185 47.2635 40.2961L46.5564 41.0032ZM44.5827 40.9557C45.2975 40.9557 45.8306 40.9719 46.1955 41.0025C46.3793 41.0179 46.5069 41.0359 46.5882 41.0535C46.6075 41.0577 46.6223 41.0614 46.633 41.0645C46.6383 41.066 46.6422 41.0673 46.645 41.0682C46.6478 41.0691 46.649 41.0696 46.6488 41.0695C46.6487 41.0695 46.6468 41.0687 46.6433 41.0671C46.6399 41.0654 46.6342 41.0626 46.6268 41.0583C46.6136 41.0506 46.5867 41.0335 46.5564 41.0032L47.2635 40.2961C47.1765 40.2091 47.0769 40.1633 47.0149 40.1389C46.9451 40.1115 46.8711 40.0916 46.8 40.0762C46.6575 40.0453 46.4811 40.0229 46.279 40.006C45.8722 39.9719 45.3063 39.9557 44.5827 39.9557V40.9557ZM42.6068 41.0886C42.6547 41.0168 42.6591 41.0234 42.6461 41.0318C42.6363 41.0382 42.657 41.0192 42.7809 41.0009C43.05 40.9612 43.5435 40.9557 44.5827 40.9557V39.9557C43.5856 39.9557 42.9963 39.9583 42.6351 40.0116C42.4439 40.0398 42.2625 40.0885 42.1012 40.1933C41.9367 40.3002 41.8401 40.4361 41.7748 40.5339L42.6068 41.0886ZM42.4322 45.983C42.4322 43.9343 42.4405 42.7319 42.4761 42.0034C42.494 41.6379 42.5179 41.413 42.5458 41.2691C42.5594 41.199 42.5722 41.1574 42.5814 41.1335C42.5858 41.122 42.5892 41.1153 42.591 41.1119C42.5919 41.1102 42.5925 41.1092 42.5929 41.1086C42.5932 41.1081 42.5933 41.1079 42.5934 41.1079L41.7883 40.5147C41.671 40.6739 41.6065 40.8601 41.5641 41.0788C41.5223 41.2944 41.4958 41.5766 41.4773 41.9545C41.4402 42.7129 41.4322 43.9428 41.4322 45.983H42.4322ZM42.4322 50.7991V45.983H41.4322V50.7991H42.4322ZM44.5181 50.2991H41.9322V51.2991H44.5181V50.2991ZM47.1039 50.2991H44.5181V51.2991H47.1039V50.2991ZM46.6039 45.8214V50.7991H47.6039V45.8214H46.6039Z" fill="#0D313B" mask="url(#path-8-outside-1_5984_45211)"/>
</g>
<rect id="Rectangle 34624840" x="16.9531" y="17.7998" width="13.3375" height="3.60908" fill="#0D313B"/>
<rect id="Rectangle 34624841" x="16.9531" y="50.291" width="15.878" height="3.60908" fill="#0D313B"/>
</g>
</g>
</g>
</g>
<defs>
<clipPath id="clip0_5984_45211">
<rect width="72" height="72" fill="white"/>
</clipPath>
</defs>
</svg>
