<svg width="72" height="72" viewBox="0 0 72 72" fill="none" xmlns="http://www.w3.org/2000/svg">
<g id="operations">
<g id="Group 1171275240">
<g id="Group">
<g id="Vector">
<path d="M4 36V68H36H68V46.0125V24.0125L66.35 24.8125C65.4375 25.25 60.95 27.4375 56.375 29.6625L48.0625 33.7L48.025 28.85C48.0125 26.1875 47.975 24 47.9625 24C47.9375 24 43.425 26.1875 37.925 28.8625L27.9375 33.7125L27.9 28.7375C27.8875 25.9875 27.85 23.75 27.825 23.75C27.7875 23.75 25.9 24.85 23.6125 26.2C21.3375 27.55 19.3875 28.675 19.3 28.7125C19.15 28.7625 19.125 26.7625 19.125 16.3875V4H11.5625H4V36ZM15.225 19.4625L15.1875 31.175L11.9375 33.0875C10.15 34.15 8.475 35.125 8.225 35.2625L7.75 35.5V21.625V7.75H11.5H15.25L15.225 19.4625ZM44.125 35.0625C44.125 37.7125 44.1625 39.875 44.2125 39.875C44.25 39.875 48.7375 37.7125 54.1875 35.0625C59.625 32.4125 64.1125 30.25 64.1625 30.25C64.2125 30.25 64.25 37.9 64.25 47.25V64.25H36H7.75V52.15L7.7625 40.0625L15.85 35.3L23.9375 30.5375L23.975 35.2125C23.9875 37.775 24.05 39.875 24.1 39.875C24.1625 39.875 28.65 37.7125 34.075 35.075C39.5 32.425 43.975 30.2625 44.0375 30.2625C44.0875 30.25 44.125 32.4125 44.125 35.0625Z" fill="#0D313B"/>
<path d="M15.225 19.4625L15.1875 31.175L11.9375 33.0875C10.15 34.15 8.475 35.125 8.225 35.2625L7.75 35.5V21.625V7.75H11.5H15.25L15.225 19.4625Z" fill="#68D4F4"/>
</g>
<g id="Vector_2">
<path d="M15.25 51.0625V56.75H24.6875H34.125V51.0625V45.375H24.6875H15.25V51.0625ZM30.25 51.0625V52.875H24.6875H19.125V51.0625V49.25H24.6875H30.25V51.0625Z" fill="#0D313B"/>
<path d="M30.25 51.0625V52.875H24.6875H19.125V51.0625V49.25H24.6875H30.25V51.0625Z" fill="#2894B4"/>
</g>
<g id="Vector_3">
<path d="M37.875 51.0625V56.75H47.3125H56.75V51.0625V45.375H47.3125H37.875V51.0625ZM52.875 51.0625V52.875H47.3125H41.75V51.0625V49.25H47.3125H52.875V51.0625Z" fill="#0D313B"/>
<path d="M52.875 51.0625V52.875H47.3125H41.75V51.0625V49.25H47.3125H52.875V51.0625Z" fill="#2894B4"/>
</g>
</g>
</g>
</g>
</svg>
