<svg width="72" height="72" viewBox="0 0 72 72" fill="none" xmlns="http://www.w3.org/2000/svg">
<g id="products">
<g id="Group 1171275231">
<g id="products_2">
<g id="Group 159054">
<path id="Rectangle 34624447" d="M63 10.5557H7V21.2223H63V10.5557Z" fill="#2894B4"/>
<path id="Rectangle 47 (Stroke)" fill-rule="evenodd" clip-rule="evenodd" d="M8.68888 11.2667C7.90342 11.2667 7.26667 11.9034 7.26667 12.6889V19.0889C7.26667 19.8744 7.90342 20.5111 8.68888 20.5111H61.3111C62.0966 20.5111 62.7333 19.8744 62.7333 19.0889V12.6889C62.7333 11.9034 62.0966 11.2667 61.3111 11.2667H8.68888ZM3 12.6889C3 9.547 5.547 7 8.68888 7H61.3111C64.453 7 67 9.547 67 12.6889V19.0889C67 22.2308 64.453 24.7778 61.3111 24.7778H8.68888C5.547 24.7778 3 22.2308 3 19.0889V12.6889Z" fill="#0D313B"/>
<g id="Rectangle 46">
<path id="Vector (Stroke)" fill-rule="evenodd" clip-rule="evenodd" d="M11.2627 25.4879V56.0658H58.7293V25.4879H11.2627ZM6.67188 25.4879C6.67188 21.5606 7.33531 20.1946 11.2627 20.1946L34.3266 20.1943H58.7293C63.3631 20.1947 63.3627 20.1943 63.3627 25.7252L63.3632 40.9351L63.3631 56.0658C63.3631 60.2934 63.3631 60.2934 58.7293 60.2934H35.7088H11.2623C6.67188 60.2934 6.67188 60.3725 6.67188 56.145V40.9351V25.4879Z" fill="#0D313B"/>
</g>
<path id="Rectangle 48" d="M42.5111 31.8887H27.4889C27.2189 31.8887 27 32.1076 27 32.3776V38.5109C27 38.7809 27.2189 38.9998 27.4889 38.9998H42.5111C42.7811 38.9998 43 38.7809 43 38.5109V32.3776C43 32.1076 42.7811 31.8887 42.5111 31.8887Z" fill="#0D313B"/>
</g>
</g>
</g>
</g>
</svg>
