<svg width="72" height="72" viewBox="0 0 72 72" fill="none" xmlns="http://www.w3.org/2000/svg">
<path d="M63 10.5554H7V21.2221H63V10.5554Z" fill="#2894B4"/>
<path fill-rule="evenodd" clip-rule="evenodd" d="M8.68888 11.2667C7.90342 11.2667 7.26667 11.9034 7.26667 12.6889V19.0889C7.26667 19.8744 7.90342 20.5111 8.68888 20.5111H61.3111C62.0966 20.5111 62.7333 19.8744 62.7333 19.0889V12.6889C62.7333 11.9034 62.0966 11.2667 61.3111 11.2667H8.68888ZM3 12.6889C3 9.547 5.547 7 8.68888 7H61.3111C64.453 7 67 9.547 67 12.6889V19.0889C67 22.2308 64.453 24.7778 61.3111 24.7778H8.68888C5.547 24.7778 3 22.2308 3 19.0889V12.6889Z" fill="#0D313B"/>
<path fill-rule="evenodd" clip-rule="evenodd" d="M11.2666 25.4883V56.0662H58.7332V25.4883H11.2666ZM6.67578 25.4883C6.67578 21.5609 7.33922 20.195 11.2666 20.195L34.3305 20.1947H58.7332C63.367 20.195 63.3666 20.1947 63.3666 25.7256L63.3671 40.9354L63.367 56.0662C63.367 60.2938 63.367 60.2938 58.7332 60.2938H35.7127H11.2662C6.67578 60.2938 6.67578 60.3729 6.67578 56.1453V40.9354V25.4883Z" fill="#0D313B"/>
<path d="M11.2666 56.0662V25.4883H58.7332V56.0662H11.2666Z" fill="#68D4F4"/>
<path d="M42.5111 31.8884H27.4889C27.2189 31.8884 27 32.1073 27 32.3773V38.5107C27 38.7807 27.2189 38.9995 27.4889 38.9995H42.5111C42.7811 38.9995 43 38.7807 43 38.5107V32.3773C43 32.1073 42.7811 31.8884 42.5111 31.8884Z" fill="#0D313B"/>
</svg>
