<svg width="72" height="72" viewBox="0 0 72 72" fill="none" xmlns="http://www.w3.org/2000/svg">
<g id="worker-group">
<g id="Group 1171275078">
<path id="Vector 527" d="M49.5 27.5L49 22.5L61.5 22L61 28.5L56.5 31H53L49.5 27.5Z" fill="#68D4F4"/>
<path id="Vector 528" d="M30.5 31.5L30 26.5L42.5 26L42 32.5L37.5 35H34L30.5 31.5Z" fill="#68D4F4"/>
<path id="Vector 529" d="M11.5 27.5L11 22.5L23.5 22L23 28.5L18.5 31H15L11.5 27.5Z" fill="#68D4F4"/>
<path id="Vector 533" d="M16.5 37L14 34L15 33V30.5H20V32.5L21.5 34L19.5 36.5L16.5 37Z" fill="#68D4F4"/>
<path id="Vector 534" d="M35.5 40.5L33 37.5L34 36.5V34H39V36L40.5 37.5L38.5 40L35.5 40.5Z" fill="#68D4F4"/>
<path id="Vector 535" d="M54.5 37.5L52 34.5L53 33.5V31H58V33L59.5 34.5L57.5 37L54.5 37.5Z" fill="#68D4F4"/>
<path id="Vector 530" d="M24.5 17L24.5 21.5L11 22L11.5 15.5L16 13L19.5 13L24.5 17Z" fill="#1B6278"/>
<path id="Vector 531" d="M44 21L44 25.5L29 26L29.5556 19.5L34.5556 17L38.4444 17L44 21Z" fill="#1B6278"/>
<path id="Vector 532" d="M63 18L63 22.5L49 21.5L48.5556 16.5L53.5 13.5L57.5 13L63 18Z" fill="#1B6278"/>
<g id="Group 1171275076">
<g id="Group 1171275073">
<path id="Vector" d="M17.562 32.0598C17.3237 32.0598 17.0853 32.0472 16.8481 32.0244C16.6109 32.0005 16.376 31.9651 16.1422 31.9184C15.9084 31.8716 15.678 31.8134 15.4499 31.7439C15.2218 31.6743 14.9971 31.5933 14.777 31.5021C14.5569 31.4108 14.3413 31.3082 14.1315 31.1964C13.9216 31.0835 13.7175 30.9604 13.5191 30.8281C13.3206 30.6946 13.1302 30.5532 12.9454 30.4015C12.7606 30.2498 12.585 30.0902 12.4162 29.9214C12.2474 29.7515 12.0878 29.5758 11.9361 29.3911C11.7855 29.2063 11.643 29.0147 11.5107 28.8163C11.3784 28.6178 11.2564 28.4125 11.1434 28.2027C11.0305 27.9917 10.929 27.7762 10.8378 27.556C10.7466 27.3348 10.6656 27.1101 10.5972 26.882C10.5276 26.6539 10.4694 26.4224 10.4227 26.1875C10.3759 25.9537 10.3406 25.7176 10.3166 25.4804C10.2938 25.242 10.2812 25.0037 10.2812 24.7653V22.0293H12.1014V24.7653C12.1014 24.9444 12.1106 25.1234 12.1277 25.3013C12.1448 25.4804 12.171 25.6572 12.2064 25.8328C12.2417 26.0084 12.2851 26.1818 12.3364 26.3528C12.3888 26.5251 12.4482 26.6938 12.5166 26.8592C12.585 27.0246 12.6614 27.1865 12.7458 27.3439C12.8302 27.5024 12.9226 27.6553 13.0218 27.8047C13.121 27.9541 13.2271 28.0978 13.3411 28.2358C13.4541 28.3749 13.5738 28.5072 13.7004 28.6338C13.827 28.7604 13.9593 28.8801 14.0984 28.9942C14.2364 29.1082 14.3801 29.2143 14.5284 29.3147C14.6766 29.4139 14.8306 29.5063 14.988 29.5907C15.1454 29.675 15.3073 29.7515 15.4727 29.8199C15.6381 29.8883 15.8057 29.9488 15.9768 30.0001C16.1479 30.0525 16.3212 30.0959 16.4968 30.1312C16.6725 30.1654 16.8492 30.1917 17.0272 30.2099C17.2051 30.227 17.383 30.2362 17.562 30.2362C17.7411 30.2362 17.919 30.227 18.0969 30.2099C18.2748 30.1917 18.4516 30.1654 18.6273 30.1312C18.8029 30.0959 18.9762 30.0525 19.1473 30.0001C19.3184 29.9488 19.486 29.8883 19.6514 29.8199C19.8168 29.7515 19.9787 29.675 20.1361 29.5907C20.2935 29.5063 20.4474 29.4139 20.5957 29.3147C20.744 29.2143 20.8877 29.1082 21.0257 28.9942C21.1648 28.8801 21.2971 28.7604 21.4237 28.6338C21.5503 28.5072 21.67 28.3749 21.7829 28.2358C21.897 28.0978 22.0031 27.9541 22.1023 27.8047C22.2015 27.6553 22.2939 27.5024 22.3783 27.3439C22.4627 27.1865 22.5391 27.0246 22.6075 26.8592C22.6759 26.6938 22.7352 26.5251 22.7877 26.3528C22.839 26.1818 22.8824 26.0084 22.9177 25.8328C22.9531 25.6572 22.9793 25.4804 22.9964 25.3013C23.0135 25.1234 23.0226 24.9444 23.0226 24.7653V22.0293H24.8428V24.7653C24.8428 25.0037 24.8303 25.242 24.8075 25.4804C24.7835 25.7176 24.7482 25.9537 24.7014 26.1875C24.6547 26.4224 24.5965 26.6539 24.5269 26.882C24.4585 27.1101 24.3775 27.3348 24.2863 27.556C24.1951 27.7762 24.0935 27.9917 23.9806 28.2027C23.8677 28.4125 23.7457 28.6178 23.6134 28.8163C23.4811 29.0147 23.3386 29.2063 23.188 29.3911C23.0363 29.5758 22.8767 29.7515 22.7079 29.9214C22.5391 30.0902 22.3634 30.2498 22.1787 30.4015C21.9939 30.5532 21.8035 30.6946 21.605 30.8281C21.4066 30.9604 21.2024 31.0835 20.9926 31.1964C20.7827 31.3082 20.5672 31.4108 20.3471 31.5021C20.127 31.5933 19.9023 31.6743 19.6742 31.7439C19.4461 31.8134 19.2157 31.8716 18.9819 31.9184C18.7481 31.9651 18.5132 32.0005 18.276 32.0244C18.0388 32.0472 17.8004 32.0598 17.562 32.0598Z" fill="#0D313B"/>
<g id="Group">
<path id="Vector_2" d="M31.2131 55.767H3.91014C3.78925 55.767 3.67292 55.7442 3.56229 55.6974C3.45053 55.6518 3.35244 55.5857 3.26691 55.5001C3.18137 55.4146 3.11523 55.3154 3.06961 55.2036C3.02285 55.0919 3.00004 54.9767 3.00004 54.8546V43.0017C2.9989 42.631 3.02399 42.2615 3.07531 41.8943C3.12663 41.527 3.20418 41.1655 3.30797 40.8097C3.41061 40.4538 3.53834 40.1071 3.69117 39.7684C3.84399 39.4308 4.01962 39.1058 4.21921 38.7933C4.41879 38.4808 4.6389 38.1843 4.88068 37.9037C5.12132 37.622 5.38249 37.3597 5.66077 37.1168C5.94018 36.8728 6.23443 36.6504 6.54578 36.4485C6.85599 36.2478 7.17988 36.0687 7.51632 35.9136L13.9212 32.5857V30.2363H15.7414V33.1411C15.7414 33.3111 15.697 33.4696 15.6091 33.6144C15.5202 33.7604 15.4004 33.8722 15.2499 33.9497L8.35343 37.5308C8.09112 37.6483 7.84022 37.7851 7.59729 37.9391C7.35551 38.0931 7.12514 38.2641 6.90845 38.4512C6.69062 38.6394 6.48761 38.8412 6.29829 39.0579C6.11011 39.2746 5.9379 39.5027 5.78166 39.7445C5.62541 39.9863 5.48741 40.2372 5.36766 40.4983C5.24791 40.7595 5.14755 41.0275 5.06658 41.3035C4.98446 41.5795 4.92402 41.8589 4.88296 42.144C4.84076 42.428 4.82024 42.7143 4.82024 43.0017V53.9434H30.303V43.0017C30.303 42.7143 30.2825 42.428 30.2403 42.144C30.1992 41.8589 30.1388 41.5795 30.0567 41.3035C29.9757 41.0275 29.8753 40.7595 29.7556 40.4983C29.6347 40.2372 29.4978 39.9863 29.3416 39.7445C29.1854 39.5027 29.0131 39.2746 28.825 39.0579C28.6356 38.8412 28.4326 38.6394 28.2148 38.4512C27.9981 38.2641 27.7677 38.0931 27.526 37.9391C27.283 37.7851 27.0321 37.6483 26.7698 37.5308L19.8734 33.9497C19.7228 33.8722 19.6031 33.7604 19.5141 33.6144C19.4263 33.4696 19.3818 33.3111 19.3818 33.1411V30.2363H21.202V32.5857L27.6069 35.9136C27.9434 36.0687 28.2673 36.2478 28.5775 36.4485C28.8888 36.6504 29.1831 36.8728 29.4625 37.1168C29.7408 37.3597 30.0019 37.622 30.2426 37.9037C30.4844 38.1843 30.7045 38.4808 30.9041 38.7933C31.1036 39.1058 31.2793 39.4308 31.4321 39.7684C31.5849 40.1071 31.7127 40.4538 31.8153 40.8097C31.9191 41.1655 31.9966 41.527 32.048 41.8943C32.0993 42.2615 32.1244 42.631 32.1232 43.0017V54.8546C32.1232 54.9767 32.1004 55.0919 32.0537 55.2036C32.008 55.3154 31.9419 55.4146 31.8563 55.5001C31.7708 55.5857 31.6727 55.6518 31.561 55.6974C31.4503 55.7442 31.334 55.767 31.2131 55.767Z" fill="#0D313B"/>
</g>
<path id="Vector_3" d="M7.54688 48.4727H9.36707V54.8548H7.54688V48.4727Z" fill="#0D313B"/>
<path id="Vector_4" d="M25.75 48.4727H27.5702V54.8548H25.75V48.4727Z" fill="#0D313B"/>
<path id="Vector_5" d="M7.54688 21.1182H27.5691V22.9418H7.54688V21.1182Z" fill="#0D313B"/>
<g id="Group_2">
<path id="Vector_6" d="M25.749 22.0293H23.9288V20.2057C23.9288 19.997 23.9185 19.7883 23.898 19.5807C23.8775 19.3732 23.8467 19.1656 23.8067 18.9615C23.7657 18.7562 23.7155 18.5532 23.6539 18.3536C23.5935 18.154 23.5239 17.9567 23.4441 17.764C23.3642 17.5701 23.2753 17.3819 23.1761 17.1971C23.078 17.0135 22.9708 16.8345 22.8556 16.66C22.7393 16.4866 22.615 16.319 22.4827 16.157C22.3504 15.9951 22.2101 15.8411 22.063 15.6929C21.9158 15.5457 21.7607 15.4055 21.5999 15.272C21.438 15.1397 21.2715 15.0154 21.097 14.8991C20.9236 14.7828 20.7457 14.6756 20.561 14.5775C20.3773 14.4783 20.1892 14.3893 19.9964 14.3095C19.8037 14.2296 19.6075 14.1589 19.4079 14.0985C19.2072 14.038 19.0053 13.9867 18.8012 13.9468C18.5959 13.9057 18.3906 13.8749 18.1831 13.8544C17.9744 13.8339 17.7668 13.8236 17.5581 13.8236C17.3494 13.8236 17.1418 13.8339 16.9331 13.8544C16.7255 13.8749 16.5203 13.9057 16.315 13.9468C16.1108 13.9867 15.909 14.038 15.7082 14.0985C15.5086 14.1589 15.3125 14.2296 15.1197 14.3095C14.927 14.3893 14.7388 14.4783 14.5552 14.5775C14.3705 14.6756 14.1925 14.7828 14.0192 14.8991C13.8447 15.0154 13.6782 15.1397 13.5162 15.272C13.3554 15.4055 13.2003 15.5457 13.0532 15.6929C12.9061 15.8411 12.7658 15.9951 12.6335 16.157C12.5012 16.319 12.3769 16.4866 12.2606 16.66C12.1454 16.8345 12.0382 17.0135 11.9401 17.1971C11.8409 17.3819 11.7519 17.5701 11.6721 17.764C11.5923 17.9567 11.5227 18.154 11.4622 18.3536C11.4007 18.5532 11.3505 18.7562 11.3094 18.9615C11.2695 19.1656 11.2387 19.3732 11.2182 19.5807C11.1977 19.7883 11.1874 19.997 11.1874 20.2057V22.0293H9.36719V20.2057C9.36719 19.9377 9.38087 19.6697 9.4071 19.4017C9.43334 19.1348 9.47211 18.8691 9.52457 18.6056C9.57703 18.3422 9.64204 18.081 9.71959 17.8244C9.79829 17.5667 9.88838 17.3146 9.99103 17.066C10.0937 16.8174 10.2077 16.5744 10.3343 16.3384C10.4609 16.1012 10.5989 15.8708 10.7472 15.6472C10.8966 15.4237 11.0562 15.2082 11.2262 15.0006C11.3961 14.793 11.5763 14.5934 11.7667 14.4041C11.9561 14.2137 12.1545 14.0335 12.3621 13.8624C12.5696 13.6925 12.7841 13.5328 13.0076 13.3834C13.23 13.234 13.4604 13.096 13.6964 12.9694C13.9337 12.8428 14.1754 12.7276 14.4241 12.625C14.6715 12.5223 14.9236 12.4311 15.1802 12.3535C15.4368 12.2749 15.6968 12.2098 15.9603 12.1574C16.2237 12.1049 16.4883 12.0661 16.7552 12.0399C17.0221 12.0137 17.2901 12 17.5581 12C17.8261 12 18.0941 12.0137 18.361 12.0399C18.6278 12.0661 18.8924 12.1049 19.1559 12.1574C19.4193 12.2098 19.6794 12.2749 19.936 12.3535C20.1926 12.4311 20.4446 12.5223 20.6921 12.625C20.9407 12.7276 21.1825 12.8428 21.4197 12.9694C21.6558 13.096 21.8862 13.234 22.1086 13.3834C22.3321 13.5328 22.5465 13.6925 22.7541 13.8624C22.9617 14.0335 23.1601 14.2137 23.3494 14.4041C23.5399 14.5934 23.7201 14.793 23.89 15.0006C24.0599 15.2082 24.2196 15.4237 24.369 15.6472C24.5173 15.8708 24.6553 16.1012 24.7819 16.3384C24.9084 16.5744 25.0225 16.8174 25.1251 17.066C25.2278 17.3146 25.3179 17.5667 25.3966 17.8244C25.4741 18.081 25.5391 18.3422 25.5916 18.6056C25.6441 18.8691 25.6828 19.1348 25.7091 19.4017C25.7353 19.6697 25.749 19.9377 25.749 20.2057V22.0293Z" fill="#0D313B"/>
</g>
<path id="Vector_7" d="M13.0312 14.0207L14.8093 13.625L16.6295 21.8319L14.8514 22.2276L13.0312 14.0207Z" fill="#0D313B"/>
<path id="Vector_8" d="M18.4922 21.833L20.3101 13.625L22.0881 14.0207L20.2702 22.2276L18.4922 21.833Z" fill="#0D313B"/>
<path id="Vector_9" d="M19.3811 37.5309H15.7407C15.4898 37.5309 15.2754 37.4419 15.0975 37.264L12.3672 34.528L13.6536 33.2393L16.1171 35.7072H19.0048L21.4682 33.2393L22.7546 34.528L20.0243 37.264C19.8464 37.4419 19.632 37.5309 19.3811 37.5309Z" fill="#0D313B"/>
<path id="Vector_10" d="M16.6484 36.6182H18.4686V41.1778H16.6484V36.6182Z" fill="#0D313B"/>
<path id="Vector_11" d="M16.6484 43.002H18.4686V44.8256H16.6484V43.002Z" fill="#0D313B"/>
</g>
</g>
<g id="Group 1171275077">
<g id="Group 1171275073_2">
<path id="Vector_12" d="M55.562 32.0598C55.3237 32.0598 55.0853 32.0472 54.8481 32.0244C54.6109 32.0005 54.376 31.9651 54.1422 31.9184C53.9084 31.8716 53.678 31.8134 53.4499 31.7439C53.2218 31.6743 52.9971 31.5933 52.777 31.5021C52.5569 31.4108 52.3413 31.3082 52.1315 31.1964C51.9216 31.0835 51.7175 30.9604 51.5191 30.8281C51.3206 30.6946 51.1302 30.5532 50.9454 30.4015C50.7606 30.2498 50.585 30.0902 50.4162 29.9214C50.2474 29.7515 50.0878 29.5758 49.9361 29.3911C49.7855 29.2063 49.643 29.0147 49.5107 28.8163C49.3784 28.6178 49.2564 28.4125 49.1434 28.2027C49.0305 27.9917 48.929 27.7762 48.8378 27.556C48.7466 27.3348 48.6656 27.1101 48.5972 26.882C48.5276 26.6539 48.4694 26.4224 48.4227 26.1875C48.3759 25.9537 48.3406 25.7176 48.3166 25.4804C48.2938 25.242 48.2812 25.0037 48.2812 24.7653V22.0293H50.1014V24.7653C50.1014 24.9444 50.1106 25.1234 50.1277 25.3013C50.1448 25.4804 50.171 25.6572 50.2064 25.8328C50.2417 26.0084 50.2851 26.1818 50.3364 26.3528C50.3888 26.5251 50.4482 26.6938 50.5166 26.8592C50.585 27.0246 50.6614 27.1865 50.7458 27.3439C50.8302 27.5024 50.9226 27.6553 51.0218 27.8047C51.121 27.9541 51.2271 28.0978 51.3411 28.2358C51.4541 28.3749 51.5738 28.5072 51.7004 28.6338C51.827 28.7604 51.9593 28.8801 52.0984 28.9942C52.2364 29.1082 52.3801 29.2143 52.5284 29.3147C52.6766 29.4139 52.8306 29.5063 52.988 29.5907C53.1454 29.675 53.3073 29.7515 53.4727 29.8199C53.6381 29.8883 53.8057 29.9488 53.9768 30.0001C54.1479 30.0525 54.3212 30.0959 54.4968 30.1312C54.6725 30.1654 54.8492 30.1917 55.0272 30.2099C55.2051 30.227 55.383 30.2362 55.562 30.2362C55.7411 30.2362 55.919 30.227 56.0969 30.2099C56.2748 30.1917 56.4516 30.1654 56.6273 30.1312C56.8029 30.0959 56.9762 30.0525 57.1473 30.0001C57.3184 29.9488 57.486 29.8883 57.6514 29.8199C57.8168 29.7515 57.9787 29.675 58.1361 29.5907C58.2935 29.5063 58.4474 29.4139 58.5957 29.3147C58.744 29.2143 58.8877 29.1082 59.0257 28.9942C59.1648 28.8801 59.2971 28.7604 59.4237 28.6338C59.5503 28.5072 59.67 28.3749 59.7829 28.2358C59.897 28.0978 60.0031 27.9541 60.1023 27.8047C60.2015 27.6553 60.2939 27.5024 60.3783 27.3439C60.4627 27.1865 60.5391 27.0246 60.6075 26.8592C60.6759 26.6938 60.7352 26.5251 60.7877 26.3528C60.839 26.1818 60.8824 26.0084 60.9177 25.8328C60.9531 25.6572 60.9793 25.4804 60.9964 25.3013C61.0135 25.1234 61.0226 24.9444 61.0226 24.7653V22.0293H62.8428V24.7653C62.8428 25.0037 62.8303 25.242 62.8075 25.4804C62.7835 25.7176 62.7482 25.9537 62.7014 26.1875C62.6547 26.4224 62.5965 26.6539 62.5269 26.882C62.4585 27.1101 62.3775 27.3348 62.2863 27.556C62.1951 27.7762 62.0935 27.9917 61.9806 28.2027C61.8677 28.4125 61.7457 28.6178 61.6134 28.8163C61.4811 29.0147 61.3386 29.2063 61.188 29.3911C61.0363 29.5758 60.8767 29.7515 60.7079 29.9214C60.5391 30.0902 60.3634 30.2498 60.1787 30.4015C59.9939 30.5532 59.8035 30.6946 59.605 30.8281C59.4066 30.9604 59.2024 31.0835 58.9926 31.1964C58.7827 31.3082 58.5672 31.4108 58.3471 31.5021C58.127 31.5933 57.9023 31.6743 57.6742 31.7439C57.4461 31.8134 57.2157 31.8716 56.9819 31.9184C56.7481 31.9651 56.5132 32.0005 56.276 32.0244C56.0388 32.0472 55.8004 32.0598 55.562 32.0598Z" fill="#0D313B"/>
<g id="Group_3">
<path id="Vector_13" d="M69.2131 55.767H41.9101C41.7892 55.767 41.6729 55.7442 41.5623 55.6974C41.4505 55.6518 41.3524 55.5857 41.2669 55.5001C41.1814 55.4146 41.1152 55.3154 41.0696 55.2036C41.0228 55.0919 41 54.9767 41 54.8546V43.0017C40.9989 42.631 41.024 42.2615 41.0753 41.8943C41.1266 41.527 41.2042 41.1655 41.308 40.8097C41.4106 40.4538 41.5383 40.1071 41.6912 39.7684C41.844 39.4308 42.0196 39.1058 42.2192 38.7933C42.4188 38.4808 42.6389 38.1843 42.8807 37.9037C43.1213 37.622 43.3825 37.3597 43.6608 37.1168C43.9402 36.8728 44.2344 36.6504 44.5458 36.4485C44.856 36.2478 45.1799 36.0687 45.5163 35.9136L51.9212 32.5857V30.2363H53.7414V33.1411C53.7414 33.3111 53.697 33.4696 53.6091 33.6144C53.5202 33.7604 53.4004 33.8722 53.2499 33.9497L46.3534 37.5308C46.0911 37.6483 45.8402 37.7851 45.5973 37.9391C45.3555 38.0931 45.1251 38.2641 44.9084 38.4512C44.6906 38.6394 44.4876 38.8412 44.2983 39.0579C44.1101 39.2746 43.9379 39.5027 43.7817 39.7445C43.6254 39.9863 43.4874 40.2372 43.3677 40.4983C43.2479 40.7595 43.1476 41.0275 43.0666 41.3035C42.9845 41.5795 42.924 41.8589 42.883 42.144C42.8408 42.428 42.8202 42.7143 42.8202 43.0017V53.9434H68.303V43.0017C68.303 42.7143 68.2825 42.428 68.2403 42.144C68.1992 41.8589 68.1388 41.5795 68.0567 41.3035C67.9757 41.0275 67.8753 40.7595 67.7556 40.4983C67.6347 40.2372 67.4978 39.9863 67.3416 39.7445C67.1854 39.5027 67.0131 39.2746 66.825 39.0579C66.6356 38.8412 66.4326 38.6394 66.2148 38.4512C65.9981 38.2641 65.7677 38.0931 65.526 37.9391C65.283 37.7851 65.0321 37.6483 64.7698 37.5308L57.8734 33.9497C57.7228 33.8722 57.6031 33.7604 57.5141 33.6144C57.4263 33.4696 57.3818 33.3111 57.3818 33.1411V30.2363H59.202V32.5857L65.6069 35.9136C65.9434 36.0687 66.2673 36.2478 66.5775 36.4485C66.8888 36.6504 67.1831 36.8728 67.4625 37.1168C67.7408 37.3597 68.0019 37.622 68.2426 37.9037C68.4844 38.1843 68.7045 38.4808 68.9041 38.7933C69.1036 39.1058 69.2793 39.4308 69.4321 39.7684C69.5849 40.1071 69.7127 40.4538 69.8153 40.8097C69.9191 41.1655 69.9966 41.527 70.048 41.8943C70.0993 42.2615 70.1244 42.631 70.1232 43.0017V54.8546C70.1232 54.9767 70.1004 55.0919 70.0537 55.2036C70.008 55.3154 69.9419 55.4146 69.8563 55.5001C69.7708 55.5857 69.6727 55.6518 69.561 55.6974C69.4503 55.7442 69.334 55.767 69.2131 55.767Z" fill="#0D313B"/>
</g>
<path id="Vector_14" d="M45.5469 48.4727H47.3671V54.8548H45.5469V48.4727Z" fill="#0D313B"/>
<path id="Vector_15" d="M63.75 48.4727H65.5702V54.8548H63.75V48.4727Z" fill="#0D313B"/>
<path id="Vector_16" d="M45.5469 21.1182H65.5691V22.9418H45.5469V21.1182Z" fill="#0D313B"/>
<g id="Group_4">
<path id="Vector_17" d="M63.749 22.0293H61.9288V20.2057C61.9288 19.997 61.9185 19.7883 61.898 19.5807C61.8775 19.3732 61.8467 19.1656 61.8067 18.9615C61.7657 18.7562 61.7155 18.5532 61.6539 18.3536C61.5935 18.154 61.5239 17.9567 61.4441 17.764C61.3642 17.5701 61.2753 17.3819 61.1761 17.1971C61.078 17.0135 60.9708 16.8345 60.8556 16.66C60.7393 16.4866 60.615 16.319 60.4827 16.157C60.3504 15.9951 60.2101 15.8411 60.063 15.6929C59.9158 15.5457 59.7607 15.4055 59.5999 15.272C59.438 15.1397 59.2715 15.0154 59.097 14.8991C58.9236 14.7828 58.7457 14.6756 58.561 14.5775C58.3773 14.4783 58.1892 14.3893 57.9964 14.3095C57.8037 14.2296 57.6075 14.1589 57.4079 14.0985C57.2072 14.038 57.0053 13.9867 56.8012 13.9468C56.5959 13.9057 56.3906 13.8749 56.1831 13.8544C55.9744 13.8339 55.7668 13.8236 55.5581 13.8236C55.3494 13.8236 55.1418 13.8339 54.9331 13.8544C54.7255 13.8749 54.5203 13.9057 54.315 13.9468C54.1108 13.9867 53.909 14.038 53.7082 14.0985C53.5086 14.1589 53.3125 14.2296 53.1197 14.3095C52.927 14.3893 52.7388 14.4783 52.5552 14.5775C52.3705 14.6756 52.1925 14.7828 52.0192 14.8991C51.8447 15.0154 51.6782 15.1397 51.5162 15.272C51.3554 15.4055 51.2003 15.5457 51.0532 15.6929C50.9061 15.8411 50.7658 15.9951 50.6335 16.157C50.5012 16.319 50.3769 16.4866 50.2606 16.66C50.1454 16.8345 50.0382 17.0135 49.9401 17.1971C49.8409 17.3819 49.7519 17.5701 49.6721 17.764C49.5923 17.9567 49.5227 18.154 49.4622 18.3536C49.4007 18.5532 49.3505 18.7562 49.3094 18.9615C49.2695 19.1656 49.2387 19.3732 49.2182 19.5807C49.1977 19.7883 49.1874 19.997 49.1874 20.2057V22.0293H47.3672V20.2057C47.3672 19.9377 47.3809 19.6697 47.4071 19.4017C47.4333 19.1348 47.4721 18.8691 47.5246 18.6056C47.577 18.3422 47.642 18.081 47.7196 17.8244C47.7983 17.5667 47.8884 17.3146 47.991 17.066C48.0937 16.8174 48.2077 16.5744 48.3343 16.3384C48.4609 16.1012 48.5989 15.8708 48.7472 15.6472C48.8966 15.4237 49.0562 15.2082 49.2262 15.0006C49.3961 14.793 49.5763 14.5934 49.7667 14.4041C49.9561 14.2137 50.1545 14.0335 50.3621 13.8624C50.5696 13.6925 50.7841 13.5328 51.0076 13.3834C51.23 13.234 51.4604 13.096 51.6964 12.9694C51.9337 12.8428 52.1754 12.7276 52.4241 12.625C52.6715 12.5223 52.9236 12.4311 53.1802 12.3535C53.4368 12.2749 53.6968 12.2098 53.9603 12.1574C54.2237 12.1049 54.4883 12.0661 54.7552 12.0399C55.0221 12.0137 55.2901 12 55.5581 12C55.8261 12 56.0941 12.0137 56.361 12.0399C56.6278 12.0661 56.8924 12.1049 57.1559 12.1574C57.4193 12.2098 57.6794 12.2749 57.936 12.3535C58.1926 12.4311 58.4446 12.5223 58.6921 12.625C58.9407 12.7276 59.1825 12.8428 59.4197 12.9694C59.6558 13.096 59.8862 13.234 60.1086 13.3834C60.3321 13.5328 60.5465 13.6925 60.7541 13.8624C60.9617 14.0335 61.1601 14.2137 61.3494 14.4041C61.5399 14.5934 61.7201 14.793 61.89 15.0006C62.0599 15.2082 62.2196 15.4237 62.369 15.6472C62.5173 15.8708 62.6553 16.1012 62.7819 16.3384C62.9084 16.5744 63.0225 16.8174 63.1251 17.066C63.2278 17.3146 63.3179 17.5667 63.3966 17.8244C63.4741 18.081 63.5391 18.3422 63.5916 18.6056C63.6441 18.8691 63.6828 19.1348 63.7091 19.4017C63.7353 19.6697 63.749 19.9377 63.749 20.2057V22.0293Z" fill="#0D313B"/>
</g>
<path id="Vector_18" d="M51.0312 14.0207L52.8093 13.625L54.6295 21.8319L52.8514 22.2276L51.0312 14.0207Z" fill="#0D313B"/>
<path id="Vector_19" d="M56.4922 21.833L58.3101 13.625L60.0881 14.0207L58.2702 22.2276L56.4922 21.833Z" fill="#0D313B"/>
<path id="Vector_20" d="M57.3811 37.5309H53.7407C53.4898 37.5309 53.2754 37.4419 53.0975 37.264L50.3672 34.528L51.6536 33.2393L54.1171 35.7072H57.0048L59.4682 33.2393L60.7546 34.528L58.0243 37.264C57.8464 37.4419 57.632 37.5309 57.3811 37.5309Z" fill="#0D313B"/>
<path id="Vector_21" d="M54.6484 36.6182H56.4686V41.1778H54.6484V36.6182Z" fill="#0D313B"/>
<path id="Vector_22" d="M54.6484 43.002H56.4686V44.8256H54.6484V43.002Z" fill="#0D313B"/>
</g>
</g>
<g id="Group 1171275075">
<path id="Rectangle 34624733" d="M23.1544 43.1151L26.9156 40.3797L31.3607 38.3281L35.1219 40.7216L38.5412 40.3797L40.9347 38.3281L48.4572 41.7474L49.483 46.1925L49.141 57.8181H23.1544L22.8125 50.6376L23.1544 43.1151Z" fill="#1B6278"/>
<g id="Group 1171275073_3">
<path id="Vector_23" d="M36.3433 35.4787C36.1049 35.4787 35.8666 35.4662 35.6294 35.4434C35.3921 35.4194 35.1572 35.3841 34.9234 35.3373C34.6896 35.2905 34.4592 35.2324 34.2311 35.1628C34.003 35.0932 33.7784 35.0123 33.5583 34.921C33.3381 34.8298 33.1226 34.7272 32.9127 34.6154C32.7029 34.5025 32.4988 34.3793 32.3003 34.247C32.1019 34.1136 31.9114 33.9722 31.7267 33.8205C31.5419 33.6688 31.3663 33.5091 31.1975 33.3403C31.0287 33.1704 30.869 32.9948 30.7173 32.81C30.5668 32.6253 30.4242 32.4337 30.2919 32.2352C30.1596 32.0368 30.0376 31.8315 29.9247 31.6216C29.8118 31.4106 29.7103 31.1951 29.6191 30.975C29.5278 30.7537 29.4468 30.5291 29.3784 30.301C29.3088 30.0729 29.2507 29.8414 29.2039 29.6064C29.1572 29.3726 29.1218 29.1365 29.0979 28.8993C29.075 28.661 29.0625 28.4226 29.0625 28.1842V25.4482H30.8827V28.1842C30.8827 28.3633 30.8918 28.5424 30.9089 28.7203C30.926 28.8993 30.9523 29.0761 30.9876 29.2517C31.023 29.4274 31.0663 29.6007 31.1176 29.7718C31.1701 29.944 31.2294 30.1128 31.2978 30.2782C31.3663 30.4435 31.4427 30.6055 31.5271 30.7629C31.6115 30.9214 31.7038 31.0742 31.8031 31.2236C31.9023 31.373 32.0083 31.5167 32.1224 31.6547C32.2353 31.7938 32.3551 31.9261 32.4816 32.0527C32.6082 32.1793 32.7405 32.2991 32.8797 32.4131C33.0177 32.5272 33.1614 32.6332 33.3096 32.7336C33.4579 32.8328 33.6119 32.9252 33.7692 33.0096C33.9266 33.094 34.0886 33.1704 34.2539 33.2388C34.4193 33.3073 34.587 33.3677 34.758 33.419C34.9291 33.4715 35.1025 33.5148 35.2781 33.5502C35.4537 33.5844 35.6305 33.6106 35.8084 33.6289C35.9863 33.646 36.1642 33.6551 36.3433 33.6551C36.5224 33.6551 36.7003 33.646 36.8782 33.6289C37.0561 33.6106 37.2329 33.5844 37.4085 33.5502C37.5841 33.5148 37.7575 33.4715 37.9286 33.419C38.0996 33.3677 38.2673 33.3073 38.4326 33.2388C38.598 33.1704 38.76 33.094 38.9173 33.0096C39.0747 32.9252 39.2287 32.8328 39.377 32.7336C39.5252 32.6332 39.6689 32.5272 39.8069 32.4131C39.9461 32.2991 40.0784 32.1793 40.2049 32.0527C40.3315 31.9261 40.4513 31.7938 40.5642 31.6547C40.6782 31.5167 40.7843 31.373 40.8835 31.2236C40.9828 31.0742 41.0751 30.9214 41.1595 30.7629C41.2439 30.6055 41.3203 30.4435 41.3888 30.2782C41.4572 30.1128 41.5165 29.944 41.569 29.7718C41.6203 29.6007 41.6636 29.4274 41.699 29.2517C41.7343 29.0761 41.7606 28.8993 41.7777 28.7203C41.7948 28.5424 41.8039 28.3633 41.8039 28.1842V25.4482H43.6241V28.1842C43.6241 28.4226 43.6115 28.661 43.5887 28.8993C43.5648 29.1365 43.5294 29.3726 43.4827 29.6064C43.4359 29.8414 43.3777 30.0729 43.3082 30.301C43.2398 30.5291 43.1588 30.7537 43.0675 30.975C42.9763 31.1951 42.8748 31.4106 42.7619 31.6216C42.649 31.8315 42.527 32.0368 42.3947 32.2352C42.2624 32.4337 42.1198 32.6253 41.9693 32.81C41.8176 32.9948 41.6579 33.1704 41.4891 33.3403C41.3203 33.5091 41.1447 33.6688 40.9599 33.8205C40.7752 33.9722 40.5847 34.1136 40.3863 34.247C40.1878 34.3793 39.9837 34.5025 39.7738 34.6154C39.564 34.7272 39.3484 34.8298 39.1283 34.921C38.9082 35.0123 38.6836 35.0932 38.4555 35.1628C38.2274 35.2324 37.997 35.2905 37.7632 35.3373C37.5294 35.3841 37.2945 35.4194 37.0572 35.4434C36.82 35.4662 36.5817 35.4787 36.3433 35.4787Z" fill="#0D313B"/>
<g id="Group_5">
<path id="Vector_24" d="M49.9944 59.186H22.6914C22.5705 59.186 22.4542 59.1631 22.3435 59.1164C22.2318 59.0708 22.1337 59.0046 22.0482 58.9191C21.9626 58.8336 21.8965 58.7343 21.8509 58.6226C21.8041 58.5108 21.7813 58.3956 21.7813 58.2736V46.4206C21.7801 46.05 21.8052 45.6804 21.8566 45.3132C21.9079 44.946 21.9854 44.5845 22.0892 44.2286C22.1919 43.8728 22.3196 43.5261 22.4724 43.1874C22.6252 42.8498 22.8009 42.5248 23.0005 42.2123C23.2 41.8998 23.4202 41.6032 23.6619 41.3227C23.9026 41.041 24.1637 40.7787 24.442 40.5358C24.7214 40.2917 25.0157 40.0693 25.327 39.8674C25.6372 39.6667 25.9611 39.4877 26.2976 39.3326L32.7025 36.0047V33.6553H34.5227V36.5601C34.5227 36.73 34.4782 36.8885 34.3904 37.0334C34.3014 37.1793 34.1817 37.2911 34.0311 37.3687L27.1347 40.9498C26.8724 41.0672 26.6215 41.2041 26.3785 41.358C26.1368 41.512 25.9064 41.6831 25.6897 41.8701C25.4719 42.0583 25.2689 42.2602 25.0795 42.4769C24.8914 42.6935 24.7192 42.9216 24.5629 43.1634C24.4067 43.4052 24.2687 43.6561 24.1489 43.9173C24.0292 44.1784 23.9288 44.4465 23.8478 44.7224C23.7657 44.9984 23.7053 45.2779 23.6642 45.563C23.622 45.847 23.6015 46.1332 23.6015 46.4206V57.3623H49.0843V46.4206C49.0843 46.1332 49.0637 45.847 49.0215 45.563C48.9805 45.2779 48.92 44.9984 48.8379 44.7224C48.757 44.4465 48.6566 44.1784 48.5368 43.9173C48.416 43.6561 48.2791 43.4052 48.1229 43.1634C47.9666 42.9216 47.7944 42.6935 47.6062 42.4769C47.4169 42.2602 47.2139 42.0583 46.9961 41.8701C46.7794 41.6831 46.549 41.512 46.3072 41.358C46.0643 41.2041 45.8134 41.0672 45.5511 40.9498L38.6546 37.3687C38.5041 37.2911 38.3843 37.1793 38.2954 37.0334C38.2076 36.8885 38.1631 36.73 38.1631 36.5601V33.6553H39.9833V36.0047L46.3882 39.3326C46.7246 39.4877 47.0485 39.6667 47.3587 39.8674C47.6701 40.0693 47.9643 40.2917 48.2437 40.5358C48.522 40.7787 48.7832 41.041 49.0238 41.3227C49.2656 41.6032 49.4857 41.8998 49.6853 42.2123C49.8849 42.5248 50.0605 42.8498 50.2133 43.1874C50.3662 43.5261 50.4939 43.8728 50.5965 44.2286C50.7003 44.5845 50.7779 44.946 50.8292 45.3132C50.8805 45.6804 50.9056 46.05 50.9045 46.4206V58.2736C50.9045 58.3956 50.8817 58.5108 50.8349 58.6226C50.7893 58.7343 50.7231 58.8336 50.6376 58.9191C50.5521 59.0046 50.454 59.0708 50.3422 59.1164C50.2316 59.1631 50.1153 59.186 49.9944 59.186Z" fill="#0D313B"/>
</g>
<path id="Vector_25" d="M26.3281 51.8916H28.1483V58.2737H26.3281V51.8916Z" fill="#0D313B"/>
<path id="Vector_26" d="M44.5312 51.8916H46.3514V58.2737H44.5312V51.8916Z" fill="#0D313B"/>
<path id="Vector_27" d="M26.3281 24.5371H46.3503V26.3607H26.3281V24.5371Z" fill="#0D313B"/>
<g id="Group_6">
<path id="Vector_28" d="M44.538 25.4483H42.7178V23.6247C42.7178 23.416 42.7076 23.2073 42.687 22.9997C42.6665 22.7921 42.6357 22.5846 42.5958 22.3804C42.5548 22.1751 42.5046 21.9721 42.443 21.7725C42.3825 21.573 42.313 21.3756 42.2331 21.1829C42.1533 20.989 42.0644 20.8008 41.9651 20.6161C41.867 20.4325 41.7598 20.2534 41.6447 20.0789C41.5283 19.9056 41.404 19.7379 41.2717 19.576C41.1394 19.414 40.9991 19.2601 40.852 19.1118C40.7049 18.9647 40.5498 18.8244 40.389 18.691C40.227 18.5587 40.0605 18.4344 39.886 18.318C39.7127 18.2017 39.5348 18.0945 39.35 17.9964C39.1664 17.8972 38.9782 17.8082 38.7855 17.7284C38.5927 17.6486 38.3966 17.5779 38.197 17.5174C37.9963 17.457 37.7944 17.4057 37.5903 17.3657C37.385 17.3247 37.1797 17.2939 36.9721 17.2734C36.7634 17.2528 36.5559 17.2426 36.3471 17.2426C36.1384 17.2426 35.9309 17.2528 35.7222 17.2734C35.5146 17.2939 35.3093 17.3247 35.104 17.3657C34.8999 17.4057 34.698 17.457 34.4973 17.5174C34.2977 17.5779 34.1015 17.6486 33.9088 17.7284C33.7161 17.8082 33.5279 17.8972 33.3443 17.9964C33.1595 18.0945 32.9816 18.2017 32.8082 18.318C32.6338 18.4344 32.4672 18.5587 32.3053 18.691C32.1445 18.8244 31.9894 18.9647 31.8423 19.1118C31.6951 19.2601 31.5549 19.414 31.4226 19.576C31.2903 19.7379 31.166 19.9056 31.0496 20.0789C30.9344 20.2534 30.8272 20.4325 30.7292 20.6161C30.6299 20.8008 30.541 20.989 30.4612 21.1829C30.3813 21.3756 30.3117 21.573 30.2513 21.7725C30.1897 21.9721 30.1395 22.1751 30.0985 22.3804C30.0586 22.5846 30.0278 22.7921 30.0072 22.9997C29.9867 23.2073 29.9764 23.416 29.9764 23.6247V25.4483H28.1562V23.6247C28.1562 23.3567 28.1699 23.0886 28.1962 22.8206C28.2224 22.5538 28.2612 22.288 28.3136 22.0246C28.3661 21.7611 28.4311 21.5 28.5087 21.2434C28.5873 20.9856 28.6774 20.7336 28.7801 20.4849C28.8827 20.2363 28.9968 19.9934 29.1234 19.7573C29.25 19.5201 29.388 19.2897 29.5362 19.0662C29.6856 18.8427 29.8453 18.6271 30.0152 18.4195C30.1852 18.212 30.3654 18.0124 30.5558 17.8231C30.7451 17.6326 30.9436 17.4524 31.1511 17.2813C31.3587 17.1114 31.5731 16.9517 31.7966 16.8023C32.019 16.6529 32.2494 16.5149 32.4855 16.3883C32.7227 16.2618 32.9645 16.1466 33.2131 16.0439C33.4606 15.9413 33.7126 15.85 33.9693 15.7725C34.2259 15.6938 34.4859 15.6288 34.7493 15.5763C35.0128 15.5239 35.2774 15.4851 35.5443 15.4589C35.8111 15.4326 36.0791 15.4189 36.3471 15.4189C36.6152 15.4189 36.8832 15.4326 37.15 15.4589C37.4169 15.4851 37.6815 15.5239 37.945 15.5763C38.2084 15.6288 38.4684 15.6938 38.725 15.7725C38.9816 15.85 39.2337 15.9413 39.4812 16.0439C39.7298 16.1466 39.9716 16.2618 40.2088 16.3883C40.4449 16.5149 40.6753 16.6529 40.8976 16.8023C41.1212 16.9517 41.3356 17.1114 41.5432 17.2813C41.7507 17.4524 41.9492 17.6326 42.1385 17.8231C42.3289 18.0124 42.5091 18.212 42.6791 18.4195C42.849 18.6271 43.0087 18.8427 43.1581 19.0662C43.3063 19.2897 43.4443 19.5201 43.5709 19.7573C43.6975 19.9934 43.8116 20.2363 43.9142 20.4849C44.0168 20.7336 44.1069 20.9856 44.1856 21.2434C44.2632 21.5 44.3282 21.7611 44.3807 22.0246C44.4331 22.288 44.4719 22.5538 44.4981 22.8206C44.5244 23.0886 44.538 23.3567 44.538 23.6247V25.4483Z" fill="#0D313B"/>
</g>
<path id="Vector_29" d="M31.8125 17.4397L33.5905 17.0439L35.4107 25.2508L33.6327 25.6466L31.8125 17.4397Z" fill="#0D313B"/>
<path id="Vector_30" d="M37.2812 25.2519L39.0992 17.0439L40.8772 17.4397L39.0593 25.6466L37.2812 25.2519Z" fill="#0D313B"/>
<path id="Vector_31" d="M38.1624 40.9498H34.522C34.2711 40.9498 34.0566 40.8609 33.8787 40.6829L31.1484 37.9469L32.4349 36.6582L34.8983 39.1262H37.786L40.2494 36.6582L41.5359 37.9469L38.8056 40.6829C38.6277 40.8609 38.4133 40.9498 38.1624 40.9498Z" fill="#0D313B"/>
<path id="Vector_32" d="M35.4375 40.0371H37.2577V44.5967H35.4375V40.0371Z" fill="#0D313B"/>
<path id="Vector_33" d="M35.4375 46.4209H37.2577V48.2445H35.4375V46.4209Z" fill="#0D313B"/>
</g>
</g>
</g>
</g>
</svg>
