<svg width="60" height="60" viewBox="0 0 36 36" fill="none" xmlns="http://www.w3.org/2000/svg">
<g id="academic-tracking">
<g id="Group 1171274957">
<path id="Vector" d="M15.7379 17.8446C16.6218 17.8446 17.447 17.9395 18.2136 18.1293C18.9417 18.3052 19.6472 18.5641 20.3163 18.9009C19.5679 19.519 18.9589 20.2886 18.5294 21.1591C18.0842 22.0498 17.8616 23.0132 17.8616 24.0491C17.8589 24.5659 17.9214 25.0809 18.0478 25.582H9.2335C8.41879 25.582 7.84747 25.4664 7.51955 25.235C7.19163 25.0036 7.02756 24.66 7.02734 24.2042C7.02734 23.5413 7.22765 22.8405 7.62827 22.1018C8.02889 21.3631 8.60893 20.6708 9.3684 20.0249C10.1281 19.3792 11.0451 18.8544 12.1195 18.4505C13.1938 18.0465 14.4 17.8446 15.7379 17.8446ZM15.7379 15.9904C15.0098 15.9936 14.2967 15.7829 13.6872 15.3845C13.0588 14.9804 12.553 14.4331 12.1698 13.7428C11.7867 13.0525 11.595 12.2757 11.5948 11.4124C11.5948 10.563 11.7865 9.80164 12.1698 9.12834C12.5532 8.45505 13.059 7.92472 13.6872 7.53737C14.3025 7.15487 15.0135 6.95413 15.7379 6.95832C16.464 6.95465 17.1759 7.15954 17.789 7.54864C18.4174 7.9424 18.9232 8.47759 19.3064 9.1542C19.6895 9.8308 19.8811 10.5904 19.8811 11.4329C19.8811 12.2894 19.6895 13.0612 19.3064 13.7481C18.9232 14.4351 18.4174 14.9806 17.789 15.3845C17.1794 15.783 16.4662 15.9937 15.7379 15.9904V15.9904Z" fill="#FFA600"/>
<path id="Vector_2" d="M18.1523 25.8688H9.22364C7.53191 25.8688 6.68604 25.3164 6.68604 24.2115C6.68604 23.5351 6.89143 22.8136 7.30221 22.0468C7.71299 21.28 8.31038 20.5567 9.09438 19.8768C9.87793 19.1966 10.8291 18.6425 11.9479 18.2145C13.0666 17.7865 14.3268 17.5724 15.7284 17.5722C16.6678 17.5722 17.543 17.674 18.3542 17.8778C19.1224 18.0651 19.865 18.3452 20.5657 18.7117C20.3506 18.8852 20.1449 19.0701 19.9495 19.2656C19.7504 19.465 19.5653 19.6779 19.3953 19.9026C18.8575 19.6567 18.2949 19.4692 17.7171 19.3435C17.0639 19.2012 16.3969 19.1317 15.7284 19.1363C14.5418 19.1356 13.4906 19.3066 12.5746 19.6491C11.6587 19.9916 10.887 20.4214 10.2594 20.9384C9.63122 21.4566 9.15614 21.9935 8.83419 22.5493C8.51223 23.105 8.35203 23.5936 8.35358 24.015C8.35358 24.1255 8.38297 24.2014 8.44175 24.2427C8.50041 24.2841 8.59554 24.305 8.72646 24.305H17.8928C17.8997 24.5718 17.9241 24.8379 17.9657 25.1015C18.0067 25.362 18.0691 25.6186 18.1523 25.8688V25.8688ZM19.5971 9.04752C19.209 8.34631 18.6496 7.75484 17.971 7.32827C17.3009 6.90286 16.5222 6.67983 15.7284 6.68591C14.8998 6.68591 14.1472 6.89661 13.4706 7.31799C12.7948 7.73797 12.2384 8.32464 11.8547 9.02167C11.4543 9.73628 11.254 10.5356 11.2538 11.4197C11.2538 12.3102 11.4558 13.1233 11.8597 13.8589C12.2636 14.5945 12.804 15.1832 13.4808 15.6249C14.1488 16.0567 14.9271 16.2868 15.7225 16.2878C16.5179 16.2887 17.2967 16.0604 17.9657 15.6302C18.6426 15.1916 19.1829 14.6046 19.5869 13.8692C19.9908 13.1338 20.1962 12.3242 20.203 11.4403C20.203 10.5635 20.0011 9.76589 19.5971 9.04752V9.04752ZM18.147 13.0976C17.8883 13.5947 17.5464 13.99 17.1215 14.2835C16.7117 14.5708 16.223 14.7246 15.7225 14.7237C15.2219 14.7228 14.7339 14.5673 14.325 14.2785C13.9003 13.9815 13.5603 13.5827 13.3048 13.082C13.0494 12.5813 12.9215 12.0272 12.921 11.4197C12.921 10.8187 13.0471 10.2783 13.2992 9.79859C13.5513 9.31887 13.8897 8.94079 14.3144 8.66436C14.7344 8.38958 15.2263 8.24541 15.7281 8.25004C16.2281 8.24672 16.7174 8.39473 17.1318 8.67463C17.5624 8.96467 17.9132 9.35821 18.152 9.81914C18.4075 10.2995 18.5352 10.8399 18.5352 11.4403C18.5354 12.0482 18.406 12.6006 18.147 13.0976ZM29.4125 22.019C29.1415 21.3909 28.7528 20.8204 28.2673 20.3385C27.7823 19.8565 27.2104 19.4708 26.5819 19.2016C25.937 18.9299 25.2442 18.7905 24.5444 18.7916C23.8447 18.7927 23.1523 18.9342 22.5083 19.2079C21.2441 19.7562 20.2372 20.7669 19.6936 22.0332C19.4219 22.6777 19.2825 23.3701 19.2836 24.0695C19.2847 24.7688 19.4262 25.4609 19.6999 26.1045C19.9711 26.7323 20.3589 27.303 20.8428 27.7862C21.3255 28.2699 21.8968 28.6562 22.5255 28.9241C23.1704 29.1943 23.8627 29.3329 24.5618 29.3318C25.2609 29.3307 25.9528 29.19 26.5968 28.9178C27.8647 28.371 28.8747 27.3589 29.4188 26.0899C29.6905 25.4455 29.83 24.7531 29.8289 24.0538C29.8278 23.3545 29.6862 22.6625 29.4125 22.019V22.019ZM28.4589 25.7027C28.0295 26.7189 27.2222 27.5286 26.2073 27.9609C25.1534 28.398 23.9692 28.3998 22.914 27.9659C22.41 27.7543 21.9521 27.4465 21.566 27.0597C21.1799 26.6737 20.8718 26.2169 20.6585 25.7143C20.2213 24.6604 20.2196 23.4762 20.6535 22.421C20.8646 21.9173 21.1704 21.4588 21.5544 21.0703C22.1515 20.4778 22.9102 20.0749 23.7355 19.9121C24.5608 19.7493 25.4157 19.8339 26.1931 20.1552C27.2115 20.5833 28.0227 21.3919 28.4539 22.4091C28.891 23.463 28.8928 24.6472 28.4589 25.7024V25.7027ZM27.1758 25.8168C27.206 25.8447 27.2301 25.8787 27.2464 25.9165C27.2627 25.9542 27.271 25.995 27.2706 26.0362C27.2717 26.0778 27.2638 26.1191 27.2476 26.1574C27.2313 26.1957 27.2071 26.2301 27.1765 26.2582C27.1473 26.2871 27.1126 26.3098 27.0746 26.3252C27.0365 26.3405 26.9958 26.3482 26.9548 26.3477L22.2614 26.3547C22.204 26.3574 22.1467 26.3486 22.0928 26.329C22.0389 26.3094 21.9894 26.2792 21.9472 26.2403C21.8672 26.1641 21.8271 26.0596 21.8268 25.9268L21.8209 21.9424C21.8205 21.9011 21.8284 21.8602 21.8442 21.822C21.86 21.7839 21.8833 21.7493 21.9127 21.7203C21.9413 21.6897 21.9761 21.6655 22.0147 21.6492C22.0533 21.6329 22.0948 21.6248 22.1367 21.6255C22.1779 21.625 22.2187 21.6332 22.2566 21.6494C22.2944 21.6656 22.3284 21.6895 22.3565 21.7197C22.3859 21.7486 22.4091 21.7831 22.425 21.8212C22.4408 21.8593 22.4488 21.9002 22.4486 21.9414L22.4513 23.8522L23.0221 23.2669C23.1407 23.1442 23.2733 23.0828 23.4198 23.0826C23.4962 23.0828 23.5716 23.0993 23.6412 23.1309C23.7107 23.1625 23.7728 23.2085 23.8232 23.2659L24.6664 24.1369C24.6712 24.1426 24.6774 24.1471 24.6842 24.15C24.6911 24.1529 24.6986 24.1541 24.706 24.1536C24.7135 24.1531 24.7207 24.1508 24.7271 24.147C24.7335 24.1432 24.739 24.1379 24.743 24.1316L25.5984 23.2579L25.2716 22.9265C25.2381 22.9 25.2141 22.8632 25.2035 22.8217C25.1928 22.7803 25.196 22.7365 25.2126 22.6971C25.228 22.654 25.2541 22.6154 25.2884 22.585C25.3227 22.5547 25.3642 22.5335 25.4089 22.5234L26.8265 22.1641C26.8684 22.1517 26.913 22.151 26.9553 22.1621C26.9977 22.1733 27.0361 22.1959 27.0665 22.2274C27.0985 22.2558 27.1217 22.2927 27.1334 22.3338C27.1452 22.3749 27.1449 22.4185 27.1327 22.4595L26.7681 23.8847C26.741 23.9868 26.6843 24.0534 26.5974 24.0836C26.5577 24.0993 26.5142 24.1023 26.4727 24.0924C26.4311 24.0824 26.3937 24.0599 26.3654 24.0279L26.034 23.6865L25.1059 24.6421C25.0545 24.6978 24.9922 24.7425 24.9229 24.7733C24.8536 24.8041 24.7787 24.8203 24.7029 24.8211C24.5599 24.8211 24.4255 24.7601 24.2998 24.6381L23.4612 23.7757C23.457 23.7694 23.4513 23.7642 23.4447 23.7607C23.438 23.7571 23.4305 23.7552 23.423 23.7552C23.4154 23.7552 23.4079 23.7571 23.4013 23.7607C23.3946 23.7642 23.3889 23.7694 23.3847 23.7757L22.4523 24.7243V25.7309L26.9518 25.7243C26.9934 25.7238 27.0348 25.7317 27.0733 25.7476C27.1118 25.7635 27.1467 25.787 27.1758 25.8168V25.8168Z" fill="black"/>
</g>
</g>
</svg>
