<svg width="59" height="60" viewBox="0 0 36 37" fill="none" xmlns="http://www.w3.org/2000/svg">
<g id="admission-approving-matrix">
<g id="Group 1171274868">
<path id="Rectangle 34624707" d="M20.8286 19.6286L25.4572 17.3143V28.8858H21.5407L21.0215 26.5715L20.8286 19.6286Z" fill="#FFA600"/>
<g id="Group 1171274860">
<rect id="Rectangle 34624704" x="10.4141" y="8.44299" width="15.4286" height="11.5714" fill="#FFA600"/>
<path id="Rectangle 34624705" d="M10.4141 19.2429L15.0426 20.0143L14.6569 29.2715H10.4141V19.2429Z" fill="#FFA600"/>
<path id="Rectangle 34624706" d="M13.5 25.8L26.2286 26.0968L25.1679 29.6572H13.5V25.8Z" fill="#FFA600"/>
<path id="Vector" d="M20.5329 23.7071C20.6503 23.7804 20.729 23.9092 20.729 24.0558C20.729 24.2485 20.5928 24.4117 20.412 24.4554C20.4977 24.5299 20.5517 24.6398 20.5517 24.7616C20.5517 24.9874 20.3663 25.1718 20.1397 25.1718L19.304 25.2711C19.1268 25.2864 18.9472 25.29 18.7688 25.2817C18.7313 25.2805 18.6937 25.2782 18.6561 25.2758L17.6186 25.1718C17.5622 25.1718 17.5059 25.1682 17.4507 25.1611C17.2453 25.1339 17.0493 25.0595 16.885 24.9389V22.311C17.1268 22.1668 17.3204 22.1159 17.4507 21.9481C17.5071 21.8771 17.5517 21.7826 17.5845 21.6502C17.6702 21.2967 17.6737 20.7446 17.6737 20.3912C17.6737 20.2777 17.7653 20.1867 17.8791 20.1867C18.2183 20.1867 18.4965 20.4727 18.4965 20.8108V21.6821C18.4965 21.8712 18.608 22.0344 18.7688 22.11C18.831 22.1384 18.8991 22.1549 18.9707 22.1549H20.317C20.5435 22.1549 20.729 22.3394 20.729 22.564C20.729 22.707 20.655 22.8335 20.5435 22.9068C20.7254 22.9493 20.8616 23.1125 20.8616 23.3063C20.8616 23.5026 20.7196 23.6693 20.5329 23.7071ZM16.2136 25.0063C16.2136 25.0973 16.1397 25.1718 16.0493 25.1718H15.3321C15.1537 25.1718 15.0094 25.0264 15.0094 24.8467V22.4777C15.0094 22.2992 15.1537 22.1526 15.3321 22.1526H16.0493C16.1397 22.1526 16.2136 22.227 16.2136 22.3193V25.0063ZM18.5939 18.8497C18.3803 18.8154 18.1597 18.7988 17.9355 18.7988C17.7113 18.7988 17.4906 18.8154 17.2758 18.8497C15.2629 19.1688 13.7241 20.9208 13.7241 23.0345C13.7241 25.141 15.2535 26.8882 17.2582 27.2145C17.4789 27.2512 17.7042 27.2701 17.9355 27.2701C18.1573 27.2701 18.3744 27.2523 18.5857 27.2192C20.6034 26.9048 22.1468 25.1505 22.1468 23.0345C22.1468 20.9208 20.6081 19.1688 18.5939 18.8497Z" fill="black"/>
<g id="Group">
<path id="Vector_2" d="M25.1919 27.6388C25.1919 28.3882 24.5863 28.9982 23.8398 28.9982H12.0309C11.2855 28.9982 10.6799 28.3882 10.6799 27.6388V10.0756C10.6799 9.32615 11.2855 8.71734 12.0309 8.71734H23.8398C24.5863 8.71734 25.1919 9.32615 25.1919 10.0756V27.6388ZM23.8398 7.28577H12.0309C10.5015 7.28577 9.25732 8.53766 9.25732 10.0756V27.6388C9.25732 29.1779 10.5015 30.4286 12.0309 30.4286H23.8398C25.3703 30.4286 26.6145 29.1779 26.6145 27.6388V10.0756C26.6145 8.53766 25.3703 7.28577 23.8398 7.28577Z" fill="black"/>
</g>
<path id="Vector_3" d="M23.702 11.4801H12.1689V10.3654H23.702V11.4801Z" fill="black"/>
<path id="Vector_4" d="M23.702 14.3244H12.1689V13.2096H23.702V14.3244Z" fill="black"/>
<path id="Vector_5" d="M23.702 17.1686H12.1689V16.0526H23.702V17.1686Z" fill="black"/>
</g>
</g>
</g>
</svg>
