<svg width="60" height="60" viewBox="0 0 36 36" fill="none" xmlns="http://www.w3.org/2000/svg">
<g id="admission-register">
<path id="Vector 440" d="M15.9429 19.0284L14.9143 21.3427H22.1143L20.0572 17.9998V17.2284V15.6856L18.7714 14.657L17.4857 14.9141L16.7143 16.457L17.7429 17.9998L15.9429 19.0284Z" fill="#FFA600"/>
<g id="Vector">
<mask id="path-2-outside-1_3023_42260" maskUnits="userSpaceOnUse" x="8.96118" y="6.45703" width="18" height="23" fill="black">
<rect fill="white" x="8.96118" y="6.45703" width="18" height="23"/>
<path d="M12.2229 21.3218H10.7817C10.7437 21.3218 10.7084 21.3379 10.6831 21.3631L10.6732 21.3728C10.6536 21.3964 10.6418 21.4274 10.6418 21.4615V21.7409C10.6418 21.7788 10.6579 21.8142 10.6831 21.8394C10.7084 21.8647 10.7437 21.8807 10.7817 21.8807H12.2229C12.2608 21.8807 12.2962 21.8647 12.3214 21.8394L12.3306 21.8306C12.3504 21.8065 12.3627 21.7747 12.3627 21.7409V21.4615C12.3627 21.4226 12.3472 21.3876 12.3229 21.3631C12.2964 21.3379 12.261 21.3218 12.2231 21.3218L12.2229 21.3218ZM18.5995 21.9412H14.9582C14.7705 21.9412 14.618 21.7888 14.618 21.601C14.618 20.5018 15.0639 19.5062 15.7842 18.7859C16.2603 18.3481 16.6665 18.0588 17.2845 17.8425C17.2202 17.7916 17.1588 17.737 17.1009 17.6788C16.716 17.2938 16.4783 16.7636 16.4783 16.1791C16.4783 15.5945 16.7162 15.064 17.1003 14.6801C17.4833 14.2956 18.0136 14.0581 18.5993 14.0581C19.1849 14.0581 19.7156 14.2956 20.0994 14.6794C20.4992 15.1194 20.7206 15.5733 20.7206 16.1791C20.7206 16.7645 20.4828 17.2951 20.099 17.6789C20.0409 17.737 19.9796 17.7916 19.9154 17.8425C20.4856 18.042 20.9965 18.3676 21.4146 18.7859C22.1665 19.6031 22.5807 20.4719 22.5807 21.6011C22.5807 21.7888 22.4283 21.9412 22.2406 21.9412H18.5991L18.5995 21.9412ZM18.5995 17.6201V17.6199V17.6201H18.6182L18.6232 17.6199C19.0114 17.6136 19.363 17.4533 19.6182 17.1982C19.8787 16.9377 20.0405 16.577 20.0405 16.1793C20.0405 15.7883 19.8857 15.4341 19.6351 15.176L19.6184 15.1605C19.3579 14.9 18.9972 14.7384 18.5993 14.7384C18.2014 14.7384 17.841 14.8998 17.5803 15.1605C17.3193 15.42 17.1582 15.7806 17.1582 16.1795C17.1582 16.5776 17.3194 16.9383 17.5797 17.1988C17.835 17.4537 18.1866 17.6139 18.5755 17.6199L18.5804 17.6201L18.5995 17.6201ZM15.3157 21.261H21.8833C21.8048 20.4924 21.4635 19.8022 20.9509 19.2828C20.2702 18.6554 19.5703 18.3077 18.6267 18.3001C17.7382 18.3001 16.9152 18.6242 16.2809 19.2499C15.7272 19.8505 15.4002 20.4338 15.3156 21.2611L15.3157 21.261ZM12.2227 24.9231H10.7815C10.7436 24.9231 10.7082 24.9392 10.683 24.9644L10.6738 24.9732C10.654 24.9973 10.6417 25.0289 10.6417 25.0626V25.342C10.6417 25.3799 10.6577 25.4153 10.683 25.4405C10.7082 25.4658 10.7436 25.4818 10.7815 25.4818H12.2227C12.2607 25.4818 12.296 25.4658 12.3213 25.4405L12.3304 25.4317C12.3503 25.4076 12.3626 25.3758 12.3626 25.342V25.0626C12.3626 25.0241 12.3469 24.9887 12.3218 24.9638C12.2962 24.9392 12.2609 24.9231 12.2227 24.9231H12.2227ZM10.7815 24.243H11.1621V22.5605H10.7815C10.5558 22.5605 10.3505 22.4683 10.202 22.32C10.0537 22.1717 9.96155 21.9662 9.96155 21.7405V21.4611C9.96155 21.2483 10.0442 21.0527 10.18 20.9063C10.3326 20.7371 10.5538 20.6415 10.7813 20.6415H11.1619V18.959H10.7813C10.5556 18.959 10.3503 18.8668 10.2019 18.7185C10.0536 18.5703 9.96137 18.3647 9.96137 18.1391V17.8597C9.96137 17.6469 10.0444 17.4511 10.1798 17.3048C10.3324 17.1356 10.5536 17.04 10.7812 17.04H11.1617V15.3574H10.7812C10.5554 15.3574 10.3501 15.2652 10.2017 15.1169C10.0534 14.9675 9.96118 14.7624 9.96118 14.5378V14.2584C9.96118 14.0327 10.0534 13.8274 10.2017 13.6789C10.35 13.5306 10.5555 13.4384 10.7812 13.4384H11.1617V11.756H10.7812C10.5554 11.756 10.3501 11.6638 10.2017 11.5155C10.0534 11.3661 9.96118 11.1609 9.96118 10.9363V10.6569C9.96118 10.4312 10.0534 10.2259 10.2017 10.0774C10.35 9.92914 10.5555 9.83696 10.7812 9.83696H11.1617V9.23688C11.1617 8.74824 11.362 8.30317 11.6842 7.9808C12.0079 7.65729 12.4533 7.45703 12.9419 7.45703H24.2575C24.7473 7.45703 25.1931 7.65768 25.5149 7.97951C25.8497 8.34229 26.0374 8.73518 26.0374 9.23693V26.7616C26.0374 27.2502 25.8371 27.6956 25.5149 28.018C25.1912 28.3415 24.7462 28.5418 24.2575 28.5418H12.9419C12.4539 28.5418 12.0084 28.3411 11.6859 28.0191C11.3515 27.6848 11.1619 27.235 11.1619 26.7617V26.1616H10.7813C10.5556 26.1616 10.3503 26.0694 10.2019 25.9211C10.0536 25.7728 9.96137 25.5673 9.96137 25.3416V25.0623C9.96137 24.8491 10.0446 24.6539 10.1794 24.508C10.3326 24.3382 10.553 24.2426 10.7814 24.2426L10.7815 24.243ZM11.8422 24.243H12.2227C12.4484 24.243 12.6538 24.3352 12.8022 24.4834C12.95 24.633 13.0427 24.8376 13.0427 25.0626V25.342C13.0427 25.5552 12.9595 25.7504 12.8247 25.8966C12.6715 26.0664 12.451 26.162 12.2227 26.162H11.8422V26.7621C11.8422 27.065 11.9656 27.3403 12.1644 27.5387C12.3641 27.7388 12.6394 27.8622 12.9423 27.8622H24.2579C24.5605 27.8622 24.8361 27.7384 25.0349 27.5396C25.2338 27.3407 25.3574 27.0648 25.3574 26.7623V9.23765C25.3574 8.94275 25.2398 8.67367 25.05 8.47581C24.8187 8.26001 24.5814 8.1379 24.2577 8.1379H12.9421C12.6395 8.1379 12.3637 8.26169 12.1647 8.46048C11.9658 8.65945 11.8422 8.9349 11.8422 9.23745V9.83753H12.2227C12.4484 9.83753 12.6537 9.92972 12.8022 10.078C12.9499 10.2276 13.0427 10.4326 13.0427 10.6575V10.9369C13.0427 11.1497 12.96 11.3453 12.8243 11.4917L12.8024 11.516C12.6541 11.6643 12.4486 11.7565 12.2229 11.7565H11.8423V13.439H12.2229C12.4486 13.439 12.6539 13.5312 12.8024 13.6795C12.9501 13.8291 13.0429 14.034 13.0429 14.259V14.5383C13.0429 14.7511 12.9602 14.9468 12.8244 15.0932L12.8026 15.1175C12.6543 15.2658 12.4488 15.358 12.2231 15.358H11.8425V17.0406H12.2231C12.4488 17.0406 12.6541 17.1328 12.8026 17.2811C12.9507 17.4303 13.0431 17.6356 13.0431 17.8602V18.1396C13.0431 18.3528 12.9598 18.548 12.825 18.6943C12.6719 18.8641 12.4514 18.9596 12.2231 18.9596H11.8425V20.6421H12.2231C12.4488 20.6421 12.6541 20.7343 12.8026 20.8826C12.9508 21.032 13.043 21.2371 13.043 21.4617V21.7411C13.043 21.9543 12.9598 22.1495 12.825 22.2958C12.6718 22.4656 12.4514 22.5611 12.223 22.5611H11.8425V24.2436L11.8422 24.243ZM12.2227 10.5175H10.7815C10.7436 10.5175 10.7082 10.5336 10.683 10.5588C10.6577 10.5841 10.6417 10.6194 10.6417 10.6574V10.9367C10.6417 10.9756 10.6572 11.0106 10.6815 11.0351C10.708 11.0603 10.7434 11.0764 10.7814 11.0764H12.2225C12.2605 11.0764 12.2959 11.0603 12.3211 11.0351L12.331 11.0254C12.3506 11.0018 12.3624 10.9708 12.3624 10.9367V10.6574C12.3624 10.6188 12.3467 10.5831 12.3217 10.5582C12.296 10.5336 12.2607 10.5175 12.2225 10.5175H12.2227ZM12.2227 14.1188H10.7815C10.7436 14.1188 10.7082 14.1349 10.683 14.1601C10.6577 14.1853 10.6417 14.2207 10.6417 14.2587V14.538C10.6417 14.5769 10.6572 14.6119 10.6815 14.6364C10.708 14.6616 10.7434 14.6777 10.7814 14.6777H12.2225C12.2605 14.6777 12.2959 14.6616 12.3211 14.6364L12.331 14.6267C12.3506 14.6031 12.3624 14.5721 12.3624 14.538V14.2586C12.3624 14.2201 12.3467 14.1844 12.3217 14.1595C12.296 14.1349 12.2607 14.1188 12.2225 14.1188H12.2227ZM12.2227 17.7204H10.7815C10.7436 17.7204 10.7082 17.7365 10.683 17.7617L10.6725 17.7716C10.6533 17.7952 10.6417 17.8262 10.6417 17.8601V18.1395C10.6417 18.1774 10.6577 18.2128 10.683 18.238C10.7082 18.2633 10.7436 18.2793 10.7815 18.2793H12.2227C12.2607 18.2793 12.296 18.2633 12.3213 18.238L12.3305 18.2292C12.3503 18.2051 12.3626 18.1733 12.3626 18.1395V17.8601C12.3626 17.8212 12.3473 17.7862 12.3228 17.7617C12.2962 17.7365 12.2609 17.7204 12.2229 17.7204L12.2227 17.7204Z"/>
</mask>
<path d="M12.2229 21.3218H10.7817C10.7437 21.3218 10.7084 21.3379 10.6831 21.3631L10.6732 21.3728C10.6536 21.3964 10.6418 21.4274 10.6418 21.4615V21.7409C10.6418 21.7788 10.6579 21.8142 10.6831 21.8394C10.7084 21.8647 10.7437 21.8807 10.7817 21.8807H12.2229C12.2608 21.8807 12.2962 21.8647 12.3214 21.8394L12.3306 21.8306C12.3504 21.8065 12.3627 21.7747 12.3627 21.7409V21.4615C12.3627 21.4226 12.3472 21.3876 12.3229 21.3631C12.2964 21.3379 12.261 21.3218 12.2231 21.3218L12.2229 21.3218ZM18.5995 21.9412H14.9582C14.7705 21.9412 14.618 21.7888 14.618 21.601C14.618 20.5018 15.0639 19.5062 15.7842 18.7859C16.2603 18.3481 16.6665 18.0588 17.2845 17.8425C17.2202 17.7916 17.1588 17.737 17.1009 17.6788C16.716 17.2938 16.4783 16.7636 16.4783 16.1791C16.4783 15.5945 16.7162 15.064 17.1003 14.6801C17.4833 14.2956 18.0136 14.0581 18.5993 14.0581C19.1849 14.0581 19.7156 14.2956 20.0994 14.6794C20.4992 15.1194 20.7206 15.5733 20.7206 16.1791C20.7206 16.7645 20.4828 17.2951 20.099 17.6789C20.0409 17.737 19.9796 17.7916 19.9154 17.8425C20.4856 18.042 20.9965 18.3676 21.4146 18.7859C22.1665 19.6031 22.5807 20.4719 22.5807 21.6011C22.5807 21.7888 22.4283 21.9412 22.2406 21.9412H18.5991L18.5995 21.9412ZM18.5995 17.6201V17.6199V17.6201H18.6182L18.6232 17.6199C19.0114 17.6136 19.363 17.4533 19.6182 17.1982C19.8787 16.9377 20.0405 16.577 20.0405 16.1793C20.0405 15.7883 19.8857 15.4341 19.6351 15.176L19.6184 15.1605C19.3579 14.9 18.9972 14.7384 18.5993 14.7384C18.2014 14.7384 17.841 14.8998 17.5803 15.1605C17.3193 15.42 17.1582 15.7806 17.1582 16.1795C17.1582 16.5776 17.3194 16.9383 17.5797 17.1988C17.835 17.4537 18.1866 17.6139 18.5755 17.6199L18.5804 17.6201L18.5995 17.6201ZM15.3157 21.261H21.8833C21.8048 20.4924 21.4635 19.8022 20.9509 19.2828C20.2702 18.6554 19.5703 18.3077 18.6267 18.3001C17.7382 18.3001 16.9152 18.6242 16.2809 19.2499C15.7272 19.8505 15.4002 20.4338 15.3156 21.2611L15.3157 21.261ZM12.2227 24.9231H10.7815C10.7436 24.9231 10.7082 24.9392 10.683 24.9644L10.6738 24.9732C10.654 24.9973 10.6417 25.0289 10.6417 25.0626V25.342C10.6417 25.3799 10.6577 25.4153 10.683 25.4405C10.7082 25.4658 10.7436 25.4818 10.7815 25.4818H12.2227C12.2607 25.4818 12.296 25.4658 12.3213 25.4405L12.3304 25.4317C12.3503 25.4076 12.3626 25.3758 12.3626 25.342V25.0626C12.3626 25.0241 12.3469 24.9887 12.3218 24.9638C12.2962 24.9392 12.2609 24.9231 12.2227 24.9231H12.2227ZM10.7815 24.243H11.1621V22.5605H10.7815C10.5558 22.5605 10.3505 22.4683 10.202 22.32C10.0537 22.1717 9.96155 21.9662 9.96155 21.7405V21.4611C9.96155 21.2483 10.0442 21.0527 10.18 20.9063C10.3326 20.7371 10.5538 20.6415 10.7813 20.6415H11.1619V18.959H10.7813C10.5556 18.959 10.3503 18.8668 10.2019 18.7185C10.0536 18.5703 9.96137 18.3647 9.96137 18.1391V17.8597C9.96137 17.6469 10.0444 17.4511 10.1798 17.3048C10.3324 17.1356 10.5536 17.04 10.7812 17.04H11.1617V15.3574H10.7812C10.5554 15.3574 10.3501 15.2652 10.2017 15.1169C10.0534 14.9675 9.96118 14.7624 9.96118 14.5378V14.2584C9.96118 14.0327 10.0534 13.8274 10.2017 13.6789C10.35 13.5306 10.5555 13.4384 10.7812 13.4384H11.1617V11.756H10.7812C10.5554 11.756 10.3501 11.6638 10.2017 11.5155C10.0534 11.3661 9.96118 11.1609 9.96118 10.9363V10.6569C9.96118 10.4312 10.0534 10.2259 10.2017 10.0774C10.35 9.92914 10.5555 9.83696 10.7812 9.83696H11.1617V9.23688C11.1617 8.74824 11.362 8.30317 11.6842 7.9808C12.0079 7.65729 12.4533 7.45703 12.9419 7.45703H24.2575C24.7473 7.45703 25.1931 7.65768 25.5149 7.97951C25.8497 8.34229 26.0374 8.73518 26.0374 9.23693V26.7616C26.0374 27.2502 25.8371 27.6956 25.5149 28.018C25.1912 28.3415 24.7462 28.5418 24.2575 28.5418H12.9419C12.4539 28.5418 12.0084 28.3411 11.6859 28.0191C11.3515 27.6848 11.1619 27.235 11.1619 26.7617V26.1616H10.7813C10.5556 26.1616 10.3503 26.0694 10.2019 25.9211C10.0536 25.7728 9.96137 25.5673 9.96137 25.3416V25.0623C9.96137 24.8491 10.0446 24.6539 10.1794 24.508C10.3326 24.3382 10.553 24.2426 10.7814 24.2426L10.7815 24.243ZM11.8422 24.243H12.2227C12.4484 24.243 12.6538 24.3352 12.8022 24.4834C12.95 24.633 13.0427 24.8376 13.0427 25.0626V25.342C13.0427 25.5552 12.9595 25.7504 12.8247 25.8966C12.6715 26.0664 12.451 26.162 12.2227 26.162H11.8422V26.7621C11.8422 27.065 11.9656 27.3403 12.1644 27.5387C12.3641 27.7388 12.6394 27.8622 12.9423 27.8622H24.2579C24.5605 27.8622 24.8361 27.7384 25.0349 27.5396C25.2338 27.3407 25.3574 27.0648 25.3574 26.7623V9.23765C25.3574 8.94275 25.2398 8.67367 25.05 8.47581C24.8187 8.26001 24.5814 8.1379 24.2577 8.1379H12.9421C12.6395 8.1379 12.3637 8.26169 12.1647 8.46048C11.9658 8.65945 11.8422 8.9349 11.8422 9.23745V9.83753H12.2227C12.4484 9.83753 12.6537 9.92972 12.8022 10.078C12.9499 10.2276 13.0427 10.4326 13.0427 10.6575V10.9369C13.0427 11.1497 12.96 11.3453 12.8243 11.4917L12.8024 11.516C12.6541 11.6643 12.4486 11.7565 12.2229 11.7565H11.8423V13.439H12.2229C12.4486 13.439 12.6539 13.5312 12.8024 13.6795C12.9501 13.8291 13.0429 14.034 13.0429 14.259V14.5383C13.0429 14.7511 12.9602 14.9468 12.8244 15.0932L12.8026 15.1175C12.6543 15.2658 12.4488 15.358 12.2231 15.358H11.8425V17.0406H12.2231C12.4488 17.0406 12.6541 17.1328 12.8026 17.2811C12.9507 17.4303 13.0431 17.6356 13.0431 17.8602V18.1396C13.0431 18.3528 12.9598 18.548 12.825 18.6943C12.6719 18.8641 12.4514 18.9596 12.2231 18.9596H11.8425V20.6421H12.2231C12.4488 20.6421 12.6541 20.7343 12.8026 20.8826C12.9508 21.032 13.043 21.2371 13.043 21.4617V21.7411C13.043 21.9543 12.9598 22.1495 12.825 22.2958C12.6718 22.4656 12.4514 22.5611 12.223 22.5611H11.8425V24.2436L11.8422 24.243ZM12.2227 10.5175H10.7815C10.7436 10.5175 10.7082 10.5336 10.683 10.5588C10.6577 10.5841 10.6417 10.6194 10.6417 10.6574V10.9367C10.6417 10.9756 10.6572 11.0106 10.6815 11.0351C10.708 11.0603 10.7434 11.0764 10.7814 11.0764H12.2225C12.2605 11.0764 12.2959 11.0603 12.3211 11.0351L12.331 11.0254C12.3506 11.0018 12.3624 10.9708 12.3624 10.9367V10.6574C12.3624 10.6188 12.3467 10.5831 12.3217 10.5582C12.296 10.5336 12.2607 10.5175 12.2225 10.5175H12.2227ZM12.2227 14.1188H10.7815C10.7436 14.1188 10.7082 14.1349 10.683 14.1601C10.6577 14.1853 10.6417 14.2207 10.6417 14.2587V14.538C10.6417 14.5769 10.6572 14.6119 10.6815 14.6364C10.708 14.6616 10.7434 14.6777 10.7814 14.6777H12.2225C12.2605 14.6777 12.2959 14.6616 12.3211 14.6364L12.331 14.6267C12.3506 14.6031 12.3624 14.5721 12.3624 14.538V14.2586C12.3624 14.2201 12.3467 14.1844 12.3217 14.1595C12.296 14.1349 12.2607 14.1188 12.2225 14.1188H12.2227ZM12.2227 17.7204H10.7815C10.7436 17.7204 10.7082 17.7365 10.683 17.7617L10.6725 17.7716C10.6533 17.7952 10.6417 17.8262 10.6417 17.8601V18.1395C10.6417 18.1774 10.6577 18.2128 10.683 18.238C10.7082 18.2633 10.7436 18.2793 10.7815 18.2793H12.2227C12.2607 18.2793 12.296 18.2633 12.3213 18.238L12.3305 18.2292C12.3503 18.2051 12.3626 18.1733 12.3626 18.1395V17.8601C12.3626 17.8212 12.3473 17.7862 12.3228 17.7617C12.2962 17.7365 12.2609 17.7204 12.2229 17.7204L12.2227 17.7204Z" fill="black"/>
<path d="M12.2229 21.3218L12.2257 20.9618H12.2229V21.3218ZM10.6831 21.3631L10.9353 21.6201L10.9377 21.6177L10.6831 21.3631ZM10.6732 21.3728L10.4211 21.1159L10.4082 21.1285L10.3967 21.1424L10.6732 21.3728ZM10.6831 21.8394L10.4286 22.094L10.4286 22.094L10.6831 21.8394ZM12.3214 21.8394L12.0722 21.5795L12.0669 21.5848L12.3214 21.8394ZM12.3306 21.8306L12.5798 22.0904L12.5952 22.0757L12.6087 22.0592L12.3306 21.8306ZM12.3229 21.3631L12.5786 21.1094L12.571 21.1022L12.3229 21.3631ZM12.2231 21.3218L12.2203 21.6818H12.2231V21.3218ZM18.5995 21.9412L18.6455 22.2982L18.5995 21.5812V21.9412ZM15.7842 18.7859L15.5405 18.5209L15.5349 18.526L15.5296 18.5313L15.7842 18.7859ZM17.2845 17.8425L17.4034 18.1822L18.0212 17.966L17.5078 17.5601L17.2845 17.8425ZM17.1009 17.6788L17.3558 17.4247L17.3555 17.4243L17.1009 17.6788ZM17.1003 14.6801L17.3548 14.9347L17.3553 14.9342L17.1003 14.6801ZM20.0994 14.6794L20.3658 14.4373L20.36 14.4309L20.3539 14.4248L20.0994 14.6794ZM20.099 17.6789L20.3536 17.9334L20.3536 17.9334L20.099 17.6789ZM19.9154 17.8425L19.6917 17.5604L19.1797 17.9665L19.7965 18.1823L19.9154 17.8425ZM21.4146 18.7859L21.6795 18.5422L21.6745 18.5367L21.6692 18.5314L21.4146 18.7859ZM18.5991 21.9412L18.5531 21.5842L18.5991 22.3012V21.9412ZM18.6182 17.6201V17.9804L18.6315 17.9799L18.6182 17.6201ZM18.6232 17.6199L18.6173 17.2599L18.6099 17.2602L18.6232 17.6199ZM19.6182 17.1982L19.8727 17.4529L19.8728 17.4528L19.6182 17.1982ZM19.6351 15.176L19.8934 14.9252L19.8871 14.9188L19.8806 14.9127L19.6351 15.176ZM19.6184 15.1605L19.3637 15.4152L19.3729 15.4238L19.6184 15.1605ZM17.5803 15.1605L17.8341 15.4158L17.8349 15.415L17.5803 15.1605ZM17.5797 17.1988L17.3251 17.4533L17.3254 17.4535L17.5797 17.1988ZM18.5755 17.6199L18.5894 17.2601L18.5811 17.26L18.5755 17.6199ZM18.5804 17.6201L18.5666 17.9801L18.5805 17.9801L18.5804 17.6201ZM15.3157 21.261V20.901H15.2307L15.1547 20.939L15.3157 21.261ZM21.8833 21.261V21.621H22.282L22.2415 21.2244L21.8833 21.261ZM20.9509 19.2828L21.2072 19.0299L21.2012 19.0238L21.1949 19.018L20.9509 19.2828ZM18.6267 18.3001L18.6296 17.9401H18.6267V18.3001ZM16.2809 19.2499L16.0281 18.9936L16.022 18.9996L16.0162 19.0059L16.2809 19.2499ZM15.3156 21.2611L14.9575 21.2245L14.8909 21.8759L15.4766 21.5831L15.3156 21.2611ZM10.683 24.9644L10.9322 25.2243L10.9375 25.219L10.683 24.9644ZM10.6738 24.9732L10.4246 24.7134L10.4092 24.7282L10.3957 24.7446L10.6738 24.9732ZM10.683 25.4405L10.4284 25.6951L10.4284 25.6951L10.683 25.4405ZM12.3213 25.4405L12.072 25.1807L12.0667 25.1859L12.3213 25.4405ZM12.3304 25.4317L12.5796 25.6915L12.595 25.6768L12.6086 25.6603L12.3304 25.4317ZM12.3218 24.9638L12.5755 24.7083L12.5716 24.7046L12.3218 24.9638ZM10.7815 24.243L10.4622 24.4092L10.5631 24.603H10.7815V24.243ZM11.1621 24.243V24.603H11.5221V24.243H11.1621ZM11.1621 22.5605H11.5221V22.2005H11.1621V22.5605ZM10.202 22.32L9.94748 22.5746L9.94762 22.5747L10.202 22.32ZM10.18 20.9063L10.444 21.1511L10.4473 21.1474L10.18 20.9063ZM11.1619 20.6415V21.0015H11.5219V20.6415H11.1619ZM11.1619 18.959H11.5219V18.599H11.1619V18.959ZM10.2019 18.7185L9.94729 18.9731L9.94744 18.9732L10.2019 18.7185ZM10.1798 17.3048L10.444 17.5494L10.4472 17.5459L10.1798 17.3048ZM11.1617 17.04V17.4H11.5217V17.04H11.1617ZM11.1617 15.3574H11.5217V14.9974H11.1617V15.3574ZM10.2017 15.1169L9.94615 15.3705L9.94725 15.3716L10.2017 15.1169ZM10.2017 13.6789L9.94711 13.4244L9.94696 13.4245L10.2017 13.6789ZM11.1617 13.4384V13.7984H11.5217V13.4384H11.1617ZM11.1617 11.756H11.5217V11.396H11.1617V11.756ZM10.2017 11.5155L9.94615 11.7691L9.94725 11.7702L10.2017 11.5155ZM10.2017 10.0774L9.94711 9.82288L9.94696 9.82302L10.2017 10.0774ZM11.1617 9.83696V10.197H11.5217V9.83696H11.1617ZM11.6842 7.9808L11.4297 7.72617L11.4296 7.72631L11.6842 7.9808ZM25.5149 7.97951L25.7795 7.73539L25.7746 7.73006L25.7695 7.72494L25.5149 7.97951ZM25.5149 28.018L25.7694 28.2726L25.7696 28.2725L25.5149 28.018ZM11.6859 28.0191L11.4313 28.2737L11.4315 28.2739L11.6859 28.0191ZM11.1619 26.1616H11.5219V25.8016H11.1619V26.1616ZM10.2019 25.9211L9.9473 26.1757L9.94744 26.1758L10.2019 25.9211ZM10.1794 24.508L10.4438 24.7524L10.4467 24.7491L10.1794 24.508ZM10.7814 24.2426L11.1007 24.0764L10.9998 23.8826H10.7814V24.2426ZM11.8422 24.243V23.883H11.2645L11.519 24.4015L11.8422 24.243ZM12.8022 24.4834L13.0584 24.2305L13.0566 24.2287L12.8022 24.4834ZM12.8247 25.8966L12.56 25.6526L12.5573 25.6555L12.8247 25.8966ZM11.8422 26.162V25.802H11.4822V26.162H11.8422ZM12.1644 27.5387L12.4192 27.2844L12.4187 27.2839L12.1644 27.5387ZM25.0349 27.5396L24.7803 27.2851L24.7803 27.2851L25.0349 27.5396ZM25.05 8.47581L25.3098 8.22659L25.3029 8.21939L25.2956 8.21258L25.05 8.47581ZM12.1647 8.46048L11.9103 8.20581L11.9102 8.20592L12.1647 8.46048ZM11.8422 9.83753H11.4822V10.1975H11.8422V9.83753ZM12.8022 10.078L13.0584 9.82505L13.0566 9.82331L12.8022 10.078ZM12.8243 11.4917L12.5602 11.2469L12.5567 11.2509L12.8243 11.4917ZM12.8024 11.516L13.0569 11.7706L13.0636 11.7639L13.07 11.7569L12.8024 11.516ZM11.8423 11.7565V11.3965H11.4823V11.7565H11.8423ZM11.8423 13.439H11.4823V13.799H11.8423V13.439ZM12.8024 13.6795L13.0585 13.4265L13.0568 13.4248L12.8024 13.6795ZM12.8244 15.0932L12.5604 14.8484L12.5569 14.8524L12.8244 15.0932ZM12.8026 15.1175L13.0571 15.3721L13.0638 15.3654L13.0702 15.3583L12.8026 15.1175ZM11.8425 15.358V14.998H11.4825V15.358H11.8425ZM11.8425 17.0406H11.4825V17.4006H11.8425V17.0406ZM12.8026 17.2811L13.0581 17.0275L13.057 17.0264L12.8026 17.2811ZM12.825 18.6943L12.5603 18.4502L12.5577 18.4531L12.825 18.6943ZM11.8425 18.9596V18.5996H11.4825V18.9596H11.8425ZM11.8425 20.6421H11.4825V21.0021H11.8425V20.6421ZM12.8026 20.8826L13.0581 20.629L13.057 20.6279L12.8026 20.8826ZM12.825 22.2958L12.5603 22.0517L12.5577 22.0546L12.825 22.2958ZM11.8425 22.5611V22.2011H11.4825V22.5611H11.8425ZM11.8425 24.2436L11.5193 24.4022L12.2025 24.2436H11.8425ZM10.683 10.5588L10.4284 10.3042L10.4284 10.3043L10.683 10.5588ZM10.6815 11.0351L10.4259 11.2888L10.4335 11.296L10.6815 11.0351ZM12.3211 11.0351L12.069 10.7781L12.0666 10.7805L12.3211 11.0351ZM12.331 11.0254L12.5831 11.2823L12.596 11.2697L12.6076 11.2558L12.331 11.0254ZM12.3217 10.5582L12.5753 10.3027L12.5714 10.299L12.3217 10.5582ZM10.683 14.1601L10.4284 13.9055L10.4284 13.9055L10.683 14.1601ZM10.6815 14.6364L10.4259 14.8901L10.4335 14.8973L10.6815 14.6364ZM12.3211 14.6364L12.069 14.3794L12.0666 14.3818L12.3211 14.6364ZM12.331 14.6267L12.5831 14.8836L12.596 14.871L12.6076 14.8571L12.331 14.6267ZM12.3217 14.1595L12.5753 13.904L12.5714 13.9003L12.3217 14.1595ZM12.2227 17.7204L12.2255 17.3604H12.2227V17.7204ZM10.683 17.7617L10.9305 18.0233L10.9375 18.0163L10.683 17.7617ZM10.6725 17.7716L10.4251 17.5102L10.4084 17.526L10.3938 17.5438L10.6725 17.7716ZM10.683 18.238L10.4284 18.4926L10.4284 18.4926L10.683 18.238ZM12.3213 18.238L12.072 17.9782L12.0667 17.9834L12.3213 18.238ZM12.3305 18.2292L12.5797 18.489L12.5951 18.4743L12.6086 18.4578L12.3305 18.2292ZM12.3228 17.7617L12.5774 17.5071L12.5708 17.5008L12.3228 17.7617ZM12.2229 17.7204L12.2202 18.0804H12.2229V17.7204ZM12.2229 20.9618H10.7817V21.6818H12.2229V20.9618ZM10.7817 20.9618C10.6419 20.9618 10.5167 21.0204 10.4286 21.1085L10.9377 21.6177C10.9 21.6553 10.8455 21.6818 10.7817 21.6818V20.9618ZM10.431 21.1062L10.4211 21.1159L10.9254 21.6298L10.9353 21.6201L10.431 21.1062ZM10.3967 21.1424C10.3228 21.231 10.2818 21.3437 10.2818 21.4615H11.0018C11.0018 21.5112 10.9844 21.5618 10.9498 21.6033L10.3967 21.1424ZM10.2818 21.4615V21.7409H11.0018V21.4615H10.2818ZM10.2818 21.7409C10.2818 21.8806 10.3404 22.0058 10.4286 22.094L10.9377 21.5849C10.9753 21.6225 11.0018 21.677 11.0018 21.7409H10.2818ZM10.4286 22.094C10.5167 22.1821 10.6419 22.2407 10.7817 22.2407V21.5207C10.8455 21.5207 10.9 21.5472 10.9377 21.5849L10.4286 22.094ZM10.7817 22.2407H12.2229V21.5207H10.7817V22.2407ZM12.2229 22.2407C12.3626 22.2407 12.4878 22.1821 12.576 22.094L12.0669 21.5848C12.1045 21.5472 12.159 21.5207 12.2229 21.5207V22.2407ZM12.5706 22.0992L12.5798 22.0904L12.0814 21.5708L12.0722 21.5796L12.5706 22.0992ZM12.6087 22.0592C12.6792 21.9735 12.7227 21.8616 12.7227 21.7409H12.0027C12.0027 21.6878 12.0217 21.6395 12.0524 21.6021L12.6087 22.0592ZM12.7227 21.7409V21.4615H12.0027V21.7409H12.7227ZM12.7227 21.4615C12.7227 21.3262 12.6687 21.2005 12.5784 21.1095L12.0674 21.6167C12.0258 21.5748 12.0027 21.519 12.0027 21.4615H12.7227ZM12.571 21.1022C12.4858 21.0212 12.3642 20.9618 12.2231 20.9618V21.6818C12.1579 21.6818 12.107 21.6545 12.0749 21.624L12.571 21.1022ZM12.2258 20.9618L12.2257 20.9618L12.2201 21.6818L12.2203 21.6818L12.2258 20.9618ZM18.5995 21.5812H14.9582V22.3012H18.5995V21.5812ZM14.9582 21.5812C14.9693 21.5812 14.978 21.5899 14.978 21.601H14.258C14.258 21.9876 14.5716 22.3012 14.9582 22.3012V21.5812ZM14.978 21.601C14.978 20.6011 15.3832 19.696 16.0387 19.0404L15.5296 18.5313C14.7446 19.3164 14.258 20.4025 14.258 21.601H14.978ZM16.0278 19.0509C16.4811 18.6341 16.846 18.3774 17.4034 18.1822L17.1655 17.5027C16.4869 17.7402 16.0394 18.0621 15.5405 18.5209L16.0278 19.0509ZM17.5078 17.5601C17.4544 17.5179 17.4037 17.4727 17.3558 17.4247L16.8459 17.933C16.9139 18.0013 16.9859 18.0653 17.0612 18.1248L17.5078 17.5601ZM17.3555 17.4243C17.035 17.1037 16.8383 16.664 16.8383 16.1791H16.1183C16.1183 16.8633 16.397 17.4838 16.8462 17.9333L17.3555 17.4243ZM16.8383 16.1791C16.8383 15.6941 17.0353 15.254 17.3548 14.9347L16.8458 14.4255C16.3971 14.874 16.1183 15.4949 16.1183 16.1791H16.8383ZM17.3553 14.9342C17.6733 14.6149 18.1129 14.4181 18.5993 14.4181V13.6981C17.9143 13.6981 17.2932 13.9763 16.8452 14.426L17.3553 14.9342ZM18.5993 14.4181C19.0857 14.4181 19.5259 14.615 19.8448 14.9339L20.3539 14.4248C19.9054 13.9763 19.2842 13.6981 18.5993 13.6981V14.4181ZM19.8329 14.9215C20.1865 15.3106 20.3606 15.6816 20.3606 16.1791H21.0806C21.0806 15.4649 20.8119 14.9282 20.3658 14.4373L19.8329 14.9215ZM20.3606 16.1791C20.3606 16.665 20.1636 17.1052 19.8445 17.4243L20.3536 17.9334C20.802 17.485 21.0806 16.8639 21.0806 16.1791H20.3606ZM19.8445 17.4243C19.7962 17.4726 19.7451 17.5181 19.6917 17.5604L20.1391 18.1246C20.214 18.0652 20.2856 18.0014 20.3536 17.9334L19.8445 17.4243ZM19.7965 18.1823C20.3147 18.3636 20.7794 18.6597 21.16 19.0404L21.6692 18.5314C21.2135 18.0755 20.6565 17.7204 20.0343 17.5027L19.7965 18.1823ZM21.1497 19.0297C21.8526 19.7936 22.2207 20.5787 22.2207 21.6011H22.9407C22.9407 20.3652 22.4805 19.4126 21.6795 18.5422L21.1497 19.0297ZM22.2207 21.6011C22.2207 21.59 22.2295 21.5812 22.2406 21.5812V22.3012C22.6271 22.3012 22.9407 21.9876 22.9407 21.6011H22.2207ZM22.2406 21.5812H18.5991V22.3012H22.2406V21.5812ZM18.6451 22.2983L18.6455 22.2982L18.5534 21.5841L18.5531 21.5842L18.6451 22.2983ZM18.9595 17.6201V17.6199H18.2395V17.6201H18.9595ZM18.2395 17.6199V17.6201H18.9595V17.6199H18.2395ZM18.5995 17.9801H18.6182V17.2601H18.5995V17.9801ZM18.6315 17.9799L18.6365 17.9797L18.6099 17.2602L18.6048 17.2604L18.6315 17.9799ZM18.6291 17.9799C19.1144 17.9719 19.5541 17.7713 19.8727 17.4529L19.3638 16.9436C19.1719 17.1353 18.9085 17.2552 18.6173 17.26L18.6291 17.9799ZM19.8728 17.4528C20.1979 17.1276 20.4005 16.6764 20.4005 16.1793H19.6805C19.6805 16.4775 19.5595 16.7478 19.3637 16.9437L19.8728 17.4528ZM20.4005 16.1793C20.4005 15.6915 20.2069 15.2482 19.8934 14.9252L19.3768 15.4268C19.5644 15.62 19.6805 15.885 19.6805 16.1793H20.4005ZM19.8806 14.9127L19.864 14.8972L19.3729 15.4238L19.3895 15.4393L19.8806 14.9127ZM19.873 14.9059C19.5477 14.5807 19.0965 14.3784 18.5993 14.3784V15.0984C18.8979 15.0984 19.1681 15.2193 19.3639 15.415L19.873 14.9059ZM18.5993 14.3784C18.102 14.3784 17.6512 14.5805 17.3257 14.9059L17.8349 15.415C18.0308 15.2191 18.3007 15.0984 18.5993 15.0984V14.3784ZM17.3265 14.9052C16.9996 15.2302 16.7982 15.6818 16.7982 16.1795H17.5182C17.5182 15.8794 17.6389 15.6099 17.8341 15.4158L17.3265 14.9052ZM16.7982 16.1795C16.7982 16.6766 16.9999 17.1279 17.3251 17.4533L17.8344 16.9443C17.639 16.7488 17.5182 16.4785 17.5182 16.1795H16.7982ZM17.3254 17.4535C17.6441 17.7718 18.0838 17.9724 18.57 17.9799L18.5811 17.26C18.2893 17.2555 18.0259 17.1356 17.8341 16.9441L17.3254 17.4535ZM18.5617 17.9797L18.5666 17.9798L18.5942 17.2604L18.5894 17.2602L18.5617 17.9797ZM18.5805 17.9801L18.5995 17.9801L18.5994 17.2601L18.5803 17.2601L18.5805 17.9801ZM15.3157 21.621H21.8833V20.901H15.3157V21.621ZM22.2415 21.2244C22.1543 20.3717 21.7755 19.6059 21.2072 19.0299L20.6947 19.5356C21.1515 19.9985 21.4552 20.6132 21.5252 21.2976L22.2415 21.2244ZM21.1949 19.018C20.4635 18.344 19.6812 17.9486 18.6296 17.9401L18.6237 18.6601C19.4594 18.6669 20.0769 18.9668 20.7069 19.5475L21.1949 19.018ZM18.6267 17.9401C17.6473 17.9401 16.7324 18.2989 16.0281 18.9936L16.5337 19.5062C17.0981 18.9494 17.8291 18.6601 18.6267 18.6601V17.9401ZM16.0162 19.0059C15.4239 19.6485 15.0518 20.3013 14.9575 21.2245L15.6738 21.2977C15.7485 20.5662 16.0306 20.0526 16.5456 19.4939L16.0162 19.0059ZM15.4766 21.5831L15.4767 21.583L15.1547 20.939L15.1546 20.9391L15.4766 21.5831ZM12.2227 24.5631H10.7815V25.2831H12.2227V24.5631ZM10.7815 24.5631C10.6418 24.5631 10.5166 24.6217 10.4284 24.7098L10.9375 25.219C10.8999 25.2566 10.8454 25.2831 10.7815 25.2831V24.5631ZM10.4338 24.7046L10.4246 24.7134L10.923 25.233L10.9322 25.2242L10.4338 24.7046ZM10.3957 24.7446C10.3257 24.8298 10.2817 24.9412 10.2817 25.0626H11.0017C11.0017 25.1166 10.9823 25.1649 10.952 25.2017L10.3957 24.7446ZM10.2817 25.0626V25.342H11.0017V25.0626H10.2817ZM10.2817 25.342C10.2817 25.4817 10.3403 25.6069 10.4284 25.6951L10.9376 25.186C10.9752 25.2236 11.0017 25.2781 11.0017 25.342H10.2817ZM10.4284 25.6951C10.5166 25.7832 10.6418 25.8418 10.7815 25.8418V25.1218C10.8454 25.1218 10.8999 25.1483 10.9375 25.186L10.4284 25.6951ZM10.7815 25.8418H12.2227V25.1218H10.7815V25.8418ZM12.2227 25.8418C12.3625 25.8418 12.4877 25.7832 12.5758 25.6951L12.0667 25.1859C12.1044 25.1483 12.1589 25.1218 12.2227 25.1218V25.8418ZM12.5705 25.7003L12.5796 25.6915L12.0812 25.1719L12.0721 25.1807L12.5705 25.7003ZM12.6086 25.6603C12.679 25.5746 12.7226 25.4627 12.7226 25.342H12.0026C12.0026 25.2889 12.0215 25.2406 12.0523 25.2032L12.6086 25.6603ZM12.7226 25.342V25.0626H12.0026V25.342H12.7226ZM12.7226 25.0626C12.7226 24.926 12.6671 24.7993 12.5754 24.7083L12.0682 25.2194C12.0267 25.1781 12.0026 25.1221 12.0026 25.0626H12.7226ZM12.5716 24.7046C12.4852 24.6214 12.3625 24.5631 12.2227 24.5631V25.2831C12.1593 25.2831 12.1072 25.257 12.0721 25.2231L12.5716 24.7046ZM12.2227 24.5631H12.2227V25.2831H12.2227V24.5631ZM10.7815 24.603H11.1621V23.883H10.7815V24.603ZM11.5221 24.243V22.5605H10.8021V24.243H11.5221ZM11.1621 22.2005H10.7815V22.9205H11.1621V22.2005ZM10.7815 22.2005C10.6556 22.2005 10.5406 22.1493 10.4565 22.0653L9.94762 22.5747C10.1604 22.7873 10.456 22.9205 10.7815 22.9205V22.2005ZM10.4566 22.0654C10.3728 21.9816 10.3216 21.8665 10.3216 21.7405H9.60155C9.60155 22.0659 9.73469 22.3618 9.94748 22.5746L10.4566 22.0654ZM10.3216 21.7405V21.4611H9.60155V21.7405H10.3216ZM10.3216 21.4611C10.3216 21.343 10.3672 21.2339 10.444 21.151L9.91598 20.6615C9.72124 20.8716 9.60155 21.1536 9.60155 21.4611H10.3216ZM10.4473 21.1474C10.5297 21.056 10.6527 21.0015 10.7813 21.0015V20.2815C10.4548 20.2815 10.1354 20.4181 9.91261 20.6652L10.4473 21.1474ZM10.7813 21.0015H11.1619V20.2815H10.7813V21.0015ZM11.5219 20.6415V18.959H10.8019V20.6415H11.5219ZM11.1619 18.599H10.7813V19.319H11.1619V18.599ZM10.7813 18.599C10.6554 18.599 10.5404 18.5479 10.4563 18.4638L9.94744 18.9732C10.1602 19.1858 10.4559 19.319 10.7813 19.319V18.599ZM10.4564 18.464C10.3726 18.3802 10.3214 18.2651 10.3214 18.1391H9.60137C9.60137 18.4644 9.7345 18.7603 9.94729 18.9731L10.4564 18.464ZM10.3214 18.1391V17.8597H9.60137V18.1391H10.3214ZM10.3214 17.8597C10.3214 17.7418 10.3672 17.6323 10.444 17.5494L9.91561 17.0603C9.72161 17.2698 9.60137 17.5519 9.60137 17.8597H10.3214ZM10.4472 17.5459C10.5295 17.4546 10.6526 17.4 10.7812 17.4V16.68C10.4547 16.68 10.1353 16.8166 9.91242 17.0638L10.4472 17.5459ZM10.7812 17.4H11.1617V16.68H10.7812V17.4ZM11.5217 17.04V15.3574H10.8017V17.04H11.5217ZM11.1617 14.9974H10.7812V15.7174H11.1617V14.9974ZM10.7812 14.9974C10.6552 14.9974 10.5402 14.9463 10.4561 14.8622L9.94725 15.3716C10.16 15.5842 10.4557 15.7174 10.7812 15.7174V14.9974ZM10.4572 14.8633C10.372 14.7775 10.3212 14.6621 10.3212 14.5378H9.60118C9.60118 14.8627 9.73476 15.1576 9.94615 15.3705L10.4572 14.8633ZM10.3212 14.5378V14.2584H9.60118V14.5378H10.3212ZM10.3212 14.2584C10.3212 14.1325 10.3723 14.0174 10.4564 13.9333L9.94696 13.4245C9.7344 13.6373 9.60118 13.9329 9.60118 14.2584H10.3212ZM10.4562 13.9335C10.54 13.8497 10.6551 13.7984 10.7812 13.7984V13.0784C10.4558 13.0784 10.1599 13.2116 9.94711 13.4244L10.4562 13.9335ZM10.7812 13.7984H11.1617V13.0784H10.7812V13.7984ZM11.5217 13.4384V11.756H10.8017V13.4384H11.5217ZM11.1617 11.396H10.7812V12.116H11.1617V11.396ZM10.7812 11.396C10.6552 11.396 10.5402 11.3448 10.4561 11.2608L9.94725 11.7702C10.16 11.9827 10.4557 12.116 10.7812 12.116V11.396ZM10.4572 11.2619C10.372 11.176 10.3212 11.0606 10.3212 10.9363H9.60118C9.60118 11.2612 9.73476 11.5561 9.94615 11.7691L10.4572 11.2619ZM10.3212 10.9363V10.6569H9.60118V10.9363H10.3212ZM10.3212 10.6569C10.3212 10.531 10.3723 10.416 10.4564 10.3319L9.94696 9.82302C9.7344 10.0358 9.60118 10.3314 9.60118 10.6569H10.3212ZM10.4562 10.332C10.54 10.2482 10.6551 10.197 10.7812 10.197V9.47696C10.4558 9.47696 10.1599 9.61009 9.94711 9.82288L10.4562 10.332ZM10.7812 10.197H11.1617V9.47696H10.7812V10.197ZM11.5217 9.83696V9.23688H10.8017V9.83696H11.5217ZM11.5217 9.23688C11.5217 8.84841 11.6807 8.49357 11.9388 8.23529L11.4296 7.72631C11.0433 8.11278 10.8017 8.64808 10.8017 9.23688H11.5217ZM11.9387 8.23543C12.1984 7.9759 12.5536 7.81703 12.9419 7.81703V7.09703C12.353 7.09703 11.8174 7.33868 11.4297 7.72617L11.9387 8.23543ZM12.9419 7.81703H24.2575V7.09703H12.9419V7.81703ZM24.2575 7.81703C24.6472 7.81703 25.0028 7.97649 25.2604 8.23408L25.7695 7.72494C25.3834 7.33888 24.8473 7.09703 24.2575 7.09703V7.81703ZM25.2504 8.22363C25.5361 8.53328 25.6774 8.84231 25.6774 9.23693H26.3974C26.3974 8.62804 26.1633 8.15131 25.7795 7.73539L25.2504 8.22363ZM25.6774 9.23693V26.7616H26.3974V9.23693H25.6774ZM25.6774 26.7616C25.6774 27.1501 25.5184 27.5053 25.2603 27.7635L25.7696 28.2725C26.1559 27.886 26.3974 27.3503 26.3974 26.7616H25.6774ZM25.2604 27.7634C25.0007 28.023 24.6458 28.1818 24.2575 28.1818V28.9018C24.8465 28.9018 25.3818 28.6601 25.7694 28.2726L25.2604 27.7634ZM24.2575 28.1818H12.9419V28.9018H24.2575V28.1818ZM12.9419 28.1818C12.5542 28.1818 12.1989 28.0226 11.9402 27.7643L11.4315 28.2739C11.818 28.6597 12.3535 28.9018 12.9419 28.9018V28.1818ZM11.9404 27.7646C11.6724 27.4965 11.5219 27.1379 11.5219 26.7617H10.8019C10.8019 27.3322 11.0306 27.873 11.4313 28.2737L11.9404 27.7646ZM11.5219 26.7617V26.1616H10.8019V26.7617H11.5219ZM11.1619 25.8016H10.7813V26.5216H11.1619V25.8016ZM10.7813 25.8016C10.6554 25.8016 10.5404 25.7505 10.4563 25.6664L9.94744 26.1758C10.1602 26.3884 10.4559 26.5216 10.7813 26.5216V25.8016ZM10.4564 25.6666C10.3726 25.5828 10.3214 25.4677 10.3214 25.3416H9.60137C9.60137 25.667 9.73451 25.9629 9.9473 26.1757L10.4564 25.6666ZM10.3214 25.3416V25.0623H9.60137V25.3416H10.3214ZM10.3214 25.0623C10.3214 24.9443 10.3672 24.8352 10.4438 24.7524L9.91506 24.2636C9.72197 24.4725 9.60137 24.7538 9.60137 25.0623H10.3214ZM10.4467 24.7491C10.5299 24.6569 10.6524 24.6026 10.7814 24.6026V23.8826C10.4537 23.8826 10.1352 24.0195 9.91209 24.2669L10.4467 24.7491ZM10.462 24.4088L10.4622 24.4092L11.1009 24.0768L11.1007 24.0764L10.462 24.4088ZM11.8422 24.603H12.2227V23.883H11.8422V24.603ZM12.2227 24.603C12.3487 24.603 12.4637 24.6541 12.5478 24.7381L13.0566 24.2287C12.8438 24.0162 12.5482 23.883 12.2227 23.883V24.603ZM12.5461 24.7364C12.6319 24.8233 12.6827 24.9387 12.6827 25.0626H13.4027C13.4027 24.7366 13.268 24.4428 13.0584 24.2305L12.5461 24.7364ZM12.6827 25.0626V25.342H13.4027V25.0626H12.6827ZM12.6827 25.342C12.6827 25.4598 12.6369 25.5692 12.56 25.6526L13.0893 26.1407C13.2821 25.9316 13.4027 25.6505 13.4027 25.342H12.6827ZM12.5573 25.6555C12.4742 25.7477 12.3517 25.802 12.2227 25.802V26.522C12.5504 26.522 12.8689 26.3851 13.092 26.1377L12.5573 25.6555ZM12.2227 25.802H11.8422V26.522H12.2227V25.802ZM11.4822 26.162V26.7621H12.2022V26.162H11.4822ZM11.4822 26.7621C11.4822 27.1645 11.6464 27.5303 11.9101 27.7935L12.4187 27.2839C12.2848 27.1502 12.2022 26.9655 12.2022 26.7621H11.4822ZM11.9096 27.793C12.1738 28.0577 12.5396 28.2222 12.9423 28.2222V27.5022C12.7392 27.5022 12.5544 27.4198 12.4192 27.2844L11.9096 27.793ZM12.9423 28.2222H24.2579V27.5022H12.9423V28.2222ZM24.2579 28.2222C24.6602 28.2222 25.0262 28.0574 25.2894 27.7942L24.7803 27.2851C24.6459 27.4195 24.4607 27.5022 24.2579 27.5022V28.2222ZM25.2894 27.7942C25.5529 27.5307 25.7174 27.1644 25.7174 26.7623H24.9974C24.9974 26.9652 24.9147 27.1506 24.7803 27.2851L25.2894 27.7942ZM25.7174 26.7623V9.23765H24.9974V26.7623H25.7174ZM25.7174 9.23765C25.7174 8.84538 25.5607 8.48818 25.3098 8.22659L24.7902 8.72503C24.9189 8.85916 24.9974 9.04012 24.9974 9.23765H25.7174ZM25.2956 8.21258C25.0155 7.95126 24.6943 7.7779 24.2577 7.7779V8.4979C24.4684 8.4979 24.6219 8.56876 24.8044 8.73905L25.2956 8.21258ZM24.2577 7.7779H12.9421V8.4979H24.2577V7.7779ZM12.9421 7.7779C12.5398 7.7779 12.1736 7.9427 11.9103 8.20581L12.4192 8.71515C12.5538 8.58069 12.7393 8.4979 12.9421 8.4979V7.7779ZM11.9102 8.20592C11.6468 8.46932 11.4822 8.83516 11.4822 9.23745H12.2022C12.2022 9.03465 12.2848 8.84957 12.4193 8.71504L11.9102 8.20592ZM11.4822 9.23745V9.83753H12.2022V9.23745H11.4822ZM11.8422 10.1975H12.2227V9.47753H11.8422V10.1975ZM12.2227 10.1975C12.3486 10.1975 12.4637 10.2487 12.5478 10.3327L13.0566 9.82331C12.8438 9.61075 12.5482 9.47753 12.2227 9.47753V10.1975ZM12.546 10.331C12.6317 10.4177 12.6827 10.5335 12.6827 10.6575H13.4027C13.4027 10.3317 13.2681 10.0375 13.0584 9.82506L12.546 10.331ZM12.6827 10.6575V10.9369H13.4027V10.6575H12.6827ZM12.6827 10.9369C12.6827 11.055 12.6371 11.1641 12.5603 11.247L13.0883 11.7365C13.283 11.5264 13.4027 11.2444 13.4027 10.9369H12.6827ZM12.5567 11.2509L12.5348 11.2752L13.07 11.7569L13.0918 11.7325L12.5567 11.2509ZM12.5478 11.2615C12.464 11.3453 12.3489 11.3965 12.2229 11.3965V12.1165C12.5482 12.1165 12.8442 11.9834 13.0569 11.7706L12.5478 11.2615ZM12.2229 11.3965H11.8423V12.1165H12.2229V11.3965ZM11.4823 11.7565V13.439H12.2023V11.7565H11.4823ZM11.8423 13.799H12.2229V13.079H11.8423V13.799ZM12.2229 13.799C12.3488 13.799 12.4639 13.8502 12.548 13.9342L13.0568 13.4248C12.844 13.2122 12.5484 13.079 12.2229 13.079V13.799ZM12.5462 13.9324C12.6319 14.0192 12.6829 14.1349 12.6829 14.259H13.4029C13.4029 13.9331 13.2683 13.6389 13.0585 13.4265L12.5462 13.9324ZM12.6829 14.259V14.5383H13.4029V14.259H12.6829ZM12.6829 14.5383C12.6829 14.6564 12.6372 14.7656 12.5605 14.8484L13.0884 15.3379C13.2832 15.1279 13.4029 14.8459 13.4029 14.5383H12.6829ZM12.5569 14.8524L12.535 14.8767L13.0702 15.3583L13.092 15.334L12.5569 14.8524ZM12.548 14.8629C12.4642 14.9467 12.3491 14.998 12.2231 14.998V15.718C12.5484 15.718 12.8443 15.5848 13.0571 15.3721L12.548 14.8629ZM12.2231 14.998H11.8425V15.718H12.2231V14.998ZM11.4825 15.358V17.0406H12.2025V15.358H11.4825ZM11.8425 17.4006H12.2231V16.6806H11.8425V17.4006ZM12.2231 17.4006C12.349 17.4006 12.464 17.4518 12.5482 17.5358L13.057 17.0264C12.8442 16.8138 12.5486 16.6806 12.2231 16.6806V17.4006ZM12.5471 17.5347C12.6321 17.6204 12.6831 17.736 12.6831 17.8602H13.4031C13.4031 17.5353 13.2692 17.2402 13.0581 17.0275L12.5471 17.5347ZM12.6831 17.8602V18.1396H13.4031V17.8602H12.6831ZM12.6831 18.1396C12.6831 18.2575 12.6373 18.3668 12.5603 18.4502L13.0897 18.9383C13.2824 18.7292 13.4031 18.4481 13.4031 18.1396H12.6831ZM12.5577 18.4531C12.4745 18.5454 12.3521 18.5996 12.2231 18.5996V19.3196C12.5507 19.3196 12.8692 19.1828 13.0923 18.9354L12.5577 18.4531ZM12.2231 18.5996H11.8425V19.3196H12.2231V18.5996ZM11.4825 18.9596V20.6421H12.2025V18.9596H11.4825ZM11.8425 21.0021H12.2231V20.2821H11.8425V21.0021ZM12.2231 21.0021C12.349 21.0021 12.464 21.0533 12.5481 21.1373L13.057 20.6279C12.8442 20.4153 12.5485 20.2821 12.2231 20.2821V21.0021ZM12.547 21.1362C12.6322 21.222 12.683 21.3374 12.683 21.4617H13.403C13.403 21.1368 13.2695 20.842 13.0581 20.629L12.547 21.1362ZM12.683 21.4617V21.7411H13.403V21.4617H12.683ZM12.683 21.7411C12.683 21.859 12.6372 21.9683 12.5603 22.0517L13.0897 22.5398C13.2824 22.3307 13.403 22.0496 13.403 21.7411H12.683ZM12.5577 22.0546C12.4745 22.1469 12.352 22.2011 12.223 22.2011V22.9211C12.5507 22.9211 12.8692 22.7843 13.0923 22.5369L12.5577 22.0546ZM12.223 22.2011H11.8425V22.9211H12.223V22.2011ZM11.4825 22.5611V24.2436H12.2025V22.5611H11.4825ZM12.1657 24.085L12.1654 24.0844L11.519 24.4015L11.5193 24.4022L12.1657 24.085ZM12.2227 10.1575H10.7815V10.8775H12.2227V10.1575ZM10.7815 10.1575C10.6418 10.1575 10.5166 10.2161 10.4284 10.3042L10.9375 10.8134C10.8999 10.851 10.8454 10.8775 10.7815 10.8775V10.1575ZM10.4284 10.3043C10.3403 10.3924 10.2817 10.5176 10.2817 10.6574H11.0017C11.0017 10.7212 10.9752 10.7757 10.9375 10.8134L10.4284 10.3043ZM10.2817 10.6574V10.9367H11.0017V10.6574H10.2817ZM10.2817 10.9367C10.2817 11.072 10.3357 11.1978 10.426 11.2887L10.937 10.7815C10.9786 10.8235 11.0017 10.8792 11.0017 10.9367H10.2817ZM10.4335 11.296C10.5187 11.377 10.6403 11.4364 10.7814 11.4364V10.7164C10.8465 10.7164 10.8974 10.7437 10.9295 10.7742L10.4335 11.296ZM10.7814 11.4364H12.2225V10.7164H10.7814V11.4364ZM12.2225 11.4364C12.3623 11.4364 12.4875 11.3778 12.5756 11.2897L12.0666 10.7805C12.1042 10.7429 12.1587 10.7164 12.2225 10.7164V11.4364ZM12.5732 11.2921L12.5831 11.2823L12.0789 10.7684L12.069 10.7781L12.5732 11.2921ZM12.6076 11.2558C12.6814 11.1672 12.7224 11.0545 12.7224 10.9367H12.0024C12.0024 10.8871 12.0198 10.8364 12.0545 10.7949L12.6076 11.2558ZM12.7224 10.9367V10.6574H12.0024V10.9367H12.7224ZM12.7224 10.6574C12.7224 10.5218 12.6677 10.3944 12.5753 10.3027L12.0681 10.8138C12.0258 10.7718 12.0024 10.7158 12.0024 10.6574H12.7224ZM12.5714 10.299C12.4851 10.2158 12.3623 10.1575 12.2225 10.1575V10.8775C12.1591 10.8775 12.107 10.8514 12.0719 10.8175L12.5714 10.299ZM12.2225 10.8775H12.2227V10.1575H12.2225V10.8775ZM12.2227 13.7588H10.7815V14.4788H12.2227V13.7588ZM10.7815 13.7588C10.6418 13.7588 10.5166 13.8174 10.4284 13.9055L10.9375 14.4147C10.8999 14.4523 10.8454 14.4788 10.7815 14.4788V13.7588ZM10.4284 13.9055C10.3403 13.9937 10.2817 14.1189 10.2817 14.2587H11.0017C11.0017 14.3225 10.9752 14.377 10.9375 14.4147L10.4284 13.9055ZM10.2817 14.2587V14.538H11.0017V14.2587H10.2817ZM10.2817 14.538C10.2817 14.6733 10.3357 14.799 10.426 14.89L10.937 14.3828C10.9786 14.4247 11.0017 14.4805 11.0017 14.538H10.2817ZM10.4335 14.8973C10.5187 14.9783 10.6403 15.0377 10.7814 15.0377V14.3177C10.8465 14.3177 10.8974 14.345 10.9295 14.3755L10.4335 14.8973ZM10.7814 15.0377H12.2225V14.3177H10.7814V15.0377ZM12.2225 15.0377C12.3623 15.0377 12.4875 14.9791 12.5756 14.891L12.0666 14.3818C12.1042 14.3442 12.1587 14.3177 12.2225 14.3177V15.0377ZM12.5732 14.8934L12.5831 14.8836L12.0789 14.3697L12.069 14.3794L12.5732 14.8934ZM12.6076 14.8571C12.6814 14.7685 12.7224 14.6558 12.7224 14.538H12.0024C12.0024 14.4884 12.0198 14.4377 12.0545 14.3962L12.6076 14.8571ZM12.7224 14.538V14.2586H12.0024V14.538H12.7224ZM12.7224 14.2586C12.7224 14.1231 12.6677 13.9957 12.5753 13.904L12.0681 14.4151C12.0258 14.3731 12.0024 14.3171 12.0024 14.2586H12.7224ZM12.5714 13.9003C12.4851 13.8171 12.3623 13.7588 12.2225 13.7588V14.4788C12.1591 14.4788 12.107 14.4527 12.0719 14.4188L12.5714 13.9003ZM12.2225 14.4788H12.2227V13.7588H12.2225V14.4788ZM12.2227 17.3604H10.7815V18.0804H12.2227V17.3604ZM10.7815 17.3604C10.6418 17.3604 10.5166 17.419 10.4284 17.5072L10.9375 18.0163C10.8999 18.0539 10.8454 18.0804 10.7815 18.0804V17.3604ZM10.4355 17.5003L10.4251 17.5102L10.92 18.0331L10.9304 18.0232L10.4355 17.5003ZM10.3938 17.5438C10.3216 17.6322 10.2817 17.7439 10.2817 17.8601H11.0017C11.0017 17.9086 10.985 17.9582 10.9512 17.9995L10.3938 17.5438ZM10.2817 17.8601V18.1395H11.0017V17.8601H10.2817ZM10.2817 18.1395C10.2817 18.2792 10.3403 18.4044 10.4284 18.4926L10.9376 17.9835C10.9752 18.0211 11.0017 18.0756 11.0017 18.1395H10.2817ZM10.4284 18.4926C10.5166 18.5807 10.6418 18.6393 10.7815 18.6393V17.9193C10.8454 17.9193 10.8999 17.9458 10.9375 17.9835L10.4284 18.4926ZM10.7815 18.6393H12.2227V17.9193H10.7815V18.6393ZM12.2227 18.6393C12.3625 18.6393 12.4877 18.5807 12.5758 18.4926L12.0667 17.9834C12.1044 17.9458 12.1589 17.9193 12.2227 17.9193V18.6393ZM12.5705 18.4978L12.5797 18.489L12.0813 17.9694L12.0721 17.9782L12.5705 18.4978ZM12.6086 18.4578C12.679 18.3721 12.7226 18.2603 12.7226 18.1395H12.0026C12.0026 18.0864 12.0215 18.0382 12.0523 18.0007L12.6086 18.4578ZM12.7226 18.1395V17.8601H12.0026V18.1395H12.7226ZM12.7226 17.8601C12.7226 17.7259 12.6695 17.5993 12.5773 17.5072L12.0682 18.0163C12.0251 17.9731 12.0026 17.9165 12.0026 17.8601H12.7226ZM12.5708 17.5008C12.4856 17.4198 12.364 17.3604 12.2229 17.3604V18.0804C12.1577 18.0804 12.1068 18.0532 12.0747 18.0226L12.5708 17.5008ZM12.2257 17.3604L12.2255 17.3604L12.22 18.0804L12.2202 18.0804L12.2257 17.3604Z" fill="black" mask="url(#path-2-outside-1_3023_42260)"/>
</g>
</g>
</svg>
