<svg width="60" height="60" viewBox="0 0 36 36" fill="none" xmlns="http://www.w3.org/2000/svg">
<g id="alumni">
<g id="Group 1171274864">
<path id="Vector 360" d="M18.514 19.2857L7.97119 14.6571L17.9998 10.0286L28.5426 14.6571L18.514 19.2857Z" fill="#FFA600"/>
<path id="Vector" d="M29.3599 13.9475L18.5585 9.31826C18.366 9.23681 18.149 9.23681 17.9567 9.31826L7.15533 13.9475C6.96859 14.0271 6.82095 14.1768 6.74377 14.3646C6.66679 14.5521 6.66679 14.7625 6.74377 14.9502C6.82095 15.1378 6.96859 15.2877 7.15533 15.3671L17.9567 19.9963C18.149 20.0778 18.366 20.0778 18.5585 19.9963L25.9728 16.8176V26.2302C25.9728 26.5059 26.1198 26.7607 26.3585 26.8985C26.5972 27.0362 26.8914 27.0362 27.1301 26.8985C27.3688 26.7607 27.5158 26.5059 27.5158 26.2302V16.154L29.3598 15.3823C29.5463 15.3029 29.6942 15.153 29.7712 14.9655C29.8481 14.7777 29.8481 14.5674 29.7712 14.3796C29.6942 14.1921 29.5463 14.0422 29.3598 13.9628L29.3599 13.9475ZM18.2577 18.4456L9.41596 14.6574L18.2577 10.8692L27.0994 14.6574L18.2577 18.4456ZM25.2018 19.2866V23.2754C25.2032 23.5265 25.0822 23.7625 24.8778 23.9081C22.9692 25.3571 20.6536 26.1696 18.2579 26.2303C15.8633 26.1718 13.5476 25.3622 11.6381 23.9158C11.4312 23.7686 11.3101 23.5291 11.3141 23.2754V19.2866C11.3141 19.0109 11.4612 18.7561 11.6998 18.6185C11.9385 18.4806 12.2326 18.4806 12.4715 18.6185C12.7101 18.7561 12.8572 19.0109 12.8572 19.2866V22.8665C16.4912 25.2967 20.0249 25.2967 23.6585 22.8665V19.2866C23.6585 19.0109 23.8056 18.7561 24.0442 18.6185C24.2829 18.4806 24.5772 18.4806 24.8158 18.6185C25.0545 18.7561 25.2015 19.0109 25.2015 19.2866H25.2018Z" fill="black"/>
</g>
</g>
</svg>
