<svg width="60" height="60" viewBox="0 0 36 36" fill="none" xmlns="http://www.w3.org/2000/svg">
<g id="classes">
<g id="Group 1171274931">
<path id="Vector" d="M13.2998 19.0931C13.0133 18.9809 12.7167 18.8961 12.4142 18.8401C12.1018 18.7827 11.7848 18.7542 11.4672 18.7548C10.8513 18.7548 10.2737 18.8568 9.73444 19.0607C9.21419 19.2532 8.73201 19.5361 8.31011 19.8962C7.89999 20.2492 7.5793 20.6493 7.34805 21.0965C7.11977 21.53 7.00048 22.0126 7.00049 22.5025C7.00049 22.828 7.1009 23.0721 7.30171 23.235C7.50253 23.3978 7.80058 23.4792 8.19588 23.4792H12.8143C12.667 23.3946 12.5465 23.2702 12.4668 23.1203C12.3777 22.9653 12.3406 22.786 12.3609 22.6084H8.05523C7.99236 22.6084 7.94726 22.5957 7.91991 22.5702C7.89257 22.5447 7.87882 22.5044 7.87867 22.4495C7.87867 22.0847 7.97383 21.7338 8.16414 21.3966C8.35445 21.0593 8.6162 20.7573 8.9494 20.4903C9.29417 20.2174 9.68194 20.0037 10.0968 19.858C10.5369 19.7018 11.0007 19.6234 11.4676 19.6263C11.7071 19.6257 11.9463 19.6454 12.1825 19.6851C12.4065 19.723 12.6269 19.7801 12.8412 19.8557C13.0507 19.9302 13.2524 20.0248 13.4437 20.1381C13.5347 20.0195 13.635 19.9083 13.7437 19.8056C13.8572 19.6989 13.9791 19.6015 14.1084 19.5146C13.8544 19.3461 13.5834 19.2049 13.2998 19.0931ZM13.382 14.4719C13.1929 14.1246 12.9186 13.831 12.5849 13.6187C12.2518 13.4106 11.8668 13.3005 11.474 13.3011C11.0813 13.3016 10.6966 13.4127 10.364 13.6218C10.0219 13.842 9.74157 14.1458 9.54959 14.5046C9.35761 14.8633 9.26029 15.2651 9.26685 15.6719C9.26685 16.1151 9.36679 16.5191 9.56668 16.884C9.75641 17.2374 10.0315 17.5377 10.367 17.7575C10.6965 17.9708 11.0805 18.0842 11.473 18.0842C11.8654 18.0842 12.2495 17.9708 12.5789 17.7575C12.915 17.5371 13.1902 17.2357 13.3792 16.881C13.5791 16.5144 13.6791 16.1075 13.6791 15.6603C13.6791 15.225 13.5801 14.8289 13.382 14.4719ZM12.6262 16.4428C12.5136 16.6677 12.3455 16.86 12.1377 17.0017C11.9422 17.1363 11.7103 17.208 11.473 17.2075C11.2365 17.2084 11.0055 17.1365 10.8112 17.0017C10.6052 16.8601 10.4383 16.6688 10.3258 16.4456C10.2028 16.2065 10.1402 15.9408 10.1434 15.6719C10.1404 15.41 10.202 15.1513 10.3228 14.9189C10.4346 14.7002 10.6007 14.5138 10.8052 14.3776C11.0028 14.2456 11.2354 14.176 11.473 14.1776C11.712 14.1753 11.9464 14.244 12.1465 14.3748C12.3504 14.5082 12.5165 14.6917 12.629 14.9077C12.7507 15.1399 12.8124 15.3987 12.8085 15.6608C12.8118 15.9324 12.7492 16.2007 12.6262 16.4428ZM23.0337 21.3087C22.7983 20.8734 22.458 20.4625 22.0128 20.076C21.5676 19.6896 21.0283 19.3747 20.395 19.1314C19.7615 18.8888 19.0466 18.7676 18.2505 18.7676C17.4505 18.7676 16.7337 18.8891 16.1002 19.1323C15.4667 19.3754 14.9274 19.6902 14.4822 20.0765C14.0371 20.4627 13.6969 20.8736 13.4615 21.3092C13.2261 21.7448 13.1084 22.1546 13.1086 22.5387C13.1086 23.1661 13.589 23.4799 14.5498 23.4801H21.9451C22.9059 23.4801 23.3864 23.1663 23.3866 22.5387C23.3866 22.1539 23.2689 21.7437 23.0337 21.3083V21.3087ZM22.3893 22.5558C22.3559 22.5794 22.3019 22.5913 22.2271 22.5913H14.2734C14.1949 22.5913 14.139 22.5794 14.1057 22.5558C14.0723 22.5326 14.0556 22.4891 14.0556 22.4265C14.0556 22.1871 14.1468 21.9096 14.3293 21.594C14.5117 21.2784 14.7813 20.9735 15.1382 20.6792C15.495 20.3849 15.9343 20.1408 16.4561 19.9467C16.9779 19.7527 17.5761 19.6555 18.2505 19.655C18.9249 19.655 19.522 19.7521 20.0418 19.9463C20.5616 20.1405 21 20.3846 21.3568 20.6787C21.7136 20.9722 21.9833 21.2772 22.1657 21.5935C22.3481 21.9099 22.4393 22.1874 22.4393 22.4261C22.4393 22.4886 22.4227 22.5319 22.3893 22.5553V22.5558ZM20.4517 13.8275C20.2336 13.4312 19.9172 13.0977 19.533 12.859C19.1485 12.6195 18.721 12.4999 18.2505 12.5C17.7986 12.4958 17.3552 12.6225 16.9738 12.8648C16.5897 13.1077 16.2731 13.4436 16.0532 13.8414C15.8235 14.2495 15.7087 14.7025 15.7089 15.2004C15.7089 15.7026 15.8236 16.1625 16.0532 16.58C16.271 16.9858 16.5877 17.3301 16.9738 17.5812C17.3549 17.8256 17.7982 17.9553 18.2509 17.9548C18.7037 17.9542 19.1467 17.8235 19.5272 17.5782C19.9129 17.3258 20.2293 16.981 20.4478 16.5751C20.6773 16.1581 20.7921 15.6962 20.7921 15.1895C20.7921 14.6876 20.6787 14.2336 20.4517 13.8275ZM19.628 16.134C19.4944 16.405 19.2953 16.6385 19.0487 16.8133C18.8166 16.9774 18.5393 17.0658 18.255 17.0664C17.9707 17.0669 17.6932 16.9796 17.4604 16.8163C17.2136 16.6433 17.0135 16.4119 16.8778 16.1428C16.7288 15.8516 16.653 15.5284 16.6572 15.2013C16.6572 14.8602 16.7298 14.5534 16.8751 14.2807C17.0105 14.0188 17.2097 13.7952 17.4543 13.6306C17.6893 13.4717 17.9669 13.3876 18.2505 13.3893C18.5354 13.3865 18.8149 13.468 19.0536 13.6236C19.2985 13.7847 19.4972 14.0068 19.6301 14.268C19.7733 14.5405 19.8449 14.8473 19.8449 15.1886C19.849 15.5166 19.7743 15.8408 19.6271 16.134H19.628ZM29.1532 21.0965C28.9214 20.6493 28.6008 20.2492 28.1911 19.8962C27.7693 19.5362 27.2874 19.2534 26.7675 19.0607C26.228 18.8568 25.6505 18.7548 25.0347 18.7548C24.7161 18.7542 24.3981 18.7828 24.0847 18.8401C23.7821 18.8956 23.4856 18.9803 23.1994 19.0931C22.9168 19.205 22.6466 19.3461 22.3932 19.5139C22.522 19.6004 22.643 19.6978 22.7552 19.8049C22.8632 19.9092 22.9643 20.0202 23.058 20.1374C23.2492 20.0241 23.451 19.9295 23.6605 19.855C23.8747 19.7794 24.0951 19.7223 24.3192 19.6845C24.5553 19.6445 24.7944 19.6246 25.0338 19.6249C25.9448 19.6216 26.8301 19.9264 27.546 20.4896C27.8794 20.7566 28.142 21.0587 28.3338 21.3959C28.5257 21.7331 28.6218 22.084 28.6221 22.4488C28.6221 22.5036 28.6073 22.5438 28.5778 22.5695C28.5483 22.5951 28.5043 22.6081 28.4457 22.6084H24.1396C24.1597 22.7863 24.1215 22.9659 24.0307 23.1203C23.9495 23.2699 23.8284 23.3941 23.6809 23.4792H28.2991C28.6993 23.4792 28.9994 23.3978 29.1993 23.235C29.3992 23.0721 29.4996 22.828 29.5005 22.5025C29.5002 22.0125 29.3806 21.53 29.1522 21.0965H29.1532ZM26.9343 14.4837C26.7442 14.1337 26.469 13.8372 26.134 13.6218C25.8046 13.4091 25.4201 13.2976 25.028 13.3011C24.6343 13.2969 24.2479 13.4073 23.9158 13.6187C23.582 13.8309 23.3077 14.1245 23.1187 14.4719C22.9205 14.8287 22.8215 15.2249 22.8217 15.6603C22.8217 16.1074 22.9216 16.5143 23.1215 16.881C23.3106 17.2357 23.5858 17.5371 23.9218 17.7575C24.2513 17.9708 24.6353 18.0842 25.0278 18.0842C25.4202 18.0842 25.8043 17.9708 26.1337 17.7575C26.4692 17.5377 26.7443 17.2374 26.9341 16.884C27.134 16.5193 27.2339 16.1153 27.2339 15.6719C27.2381 15.2567 27.1349 14.8474 26.9343 14.4837ZM26.175 16.4456C26.0621 16.6689 25.8947 16.8602 25.6884 17.0017C25.4941 17.1365 25.2631 17.2083 25.0266 17.2075C24.7893 17.2081 24.5574 17.1363 24.3618 17.0017C24.1541 16.8601 23.9859 16.6677 23.8734 16.4428C23.7503 16.2006 23.6877 15.9321 23.691 15.6603C23.687 15.3983 23.7488 15.1393 23.8706 14.9073C23.9831 14.6912 24.1492 14.5077 24.353 14.3743C24.5531 14.2435 24.7875 14.1748 25.0266 14.1772C25.2642 14.1756 25.4968 14.2452 25.6944 14.3771C25.8988 14.5134 26.0648 14.6998 26.1768 14.9184C26.2976 15.1509 26.3592 15.4095 26.3562 15.6715C26.3599 15.9404 26.2977 16.2062 26.175 16.4456Z" fill="black"/>
<path id="Vector_2" d="M19.845 15.1896C19.849 15.5173 19.7743 15.8412 19.6272 16.134C19.4935 16.4051 19.2944 16.6386 19.0479 16.8134C18.8157 16.9775 18.5385 17.0659 18.2542 17.0664C17.9699 17.067 17.6923 16.9796 17.4595 16.8164C17.2128 16.6434 17.0127 16.412 16.877 16.1428C16.7279 15.8517 16.6522 15.5285 16.6564 15.2014C16.6564 14.8603 16.729 14.5535 16.8742 14.2808C17.0097 14.0189 17.2089 13.7953 17.4535 13.6306C17.6888 13.4716 17.9666 13.3875 18.2506 13.3894C18.5355 13.3865 18.815 13.468 19.0537 13.6237C19.2986 13.7848 19.4973 14.0068 19.6302 14.2681C19.7734 14.5412 19.845 14.8483 19.845 15.1896Z" fill="#FFA600"/>
<path id="Vector_3" d="M22.4394 22.4261C22.4394 22.4886 22.4227 22.5319 22.3894 22.5553C22.356 22.5787 22.302 22.5908 22.2272 22.5908H14.2735C14.195 22.5908 14.1391 22.579 14.1057 22.5553C14.0723 22.5322 14.0557 22.4886 14.0557 22.4261C14.0557 22.1866 14.1469 21.9091 14.3293 21.5935C14.5117 21.2779 14.7814 20.973 15.1382 20.6787C15.495 20.3845 15.9344 20.1403 16.4562 19.9463C16.978 19.7523 17.5761 19.6552 18.2505 19.655C18.925 19.655 19.5221 19.7521 20.0419 19.9463C20.5617 20.1405 21 20.3846 21.3569 20.6787C21.7137 20.9722 21.9833 21.2772 22.1658 21.5935C22.3482 21.9099 22.4394 22.1874 22.4394 22.4261Z" fill="#FFA600"/>
</g>
</g>
</svg>
