<svg width="60" height="60" viewBox="0 0 36 36" fill="none" xmlns="http://www.w3.org/2000/svg">
<g id="daily-attendace">
<g id="Group">
<path id="Subtract" fill-rule="evenodd" clip-rule="evenodd" d="M27.0973 20.0922H18.3545V28.835H27.0973V20.0922ZM19.8971 24.4636L21.9543 26.5208H22.5935L25.5543 23.4351L25.04 22.4065H24.0114L21.9543 24.2065L20.9257 23.4351L19.8971 24.4636Z" fill="#FFA600"/>
<g id="Vector">
<mask id="path-2-outside-1_3013_55021" maskUnits="userSpaceOnUse" x="7.74268" y="5.31427" width="21" height="25" fill="black">
<rect fill="white" x="7.74268" y="5.31427" width="21" height="25"/>
<path d="M13.4645 6.25224C13.2201 6.40611 8.78963 10.8864 8.75795 11.0086C8.74437 11.0719 8.73985 14.6742 8.74437 19.0187L8.75795 26.9157L8.86656 27.0877C8.92539 27.1828 9.05663 27.314 9.15619 27.3819L9.34174 27.5041L13.5595 27.5176L17.7773 27.5267L17.7954 27.9249C17.8271 28.5585 18.0579 28.9477 18.5466 29.1876L18.8046 29.3143H22.7644H26.7243L26.9822 29.1876C27.2718 29.0427 27.4845 28.8255 27.6248 28.5268C27.7199 28.3187 27.7199 28.2915 27.7199 24.3588V20.399L27.5931 20.141C27.3533 19.6523 26.9641 19.4215 26.3305 19.3898L25.9323 19.3717L25.9232 13.0722L25.9097 6.77267L25.7875 6.58713C25.7196 6.48757 25.5883 6.35633 25.4933 6.29749L25.3213 6.18888L19.4608 6.17531C13.7677 6.16625 13.5957 6.16625 13.4645 6.25224ZM25.0272 13.2261V19.3762L21.9182 19.3898C18.8634 19.4034 18.8001 19.4034 18.5964 19.4984C18.2977 19.6387 18.0805 19.8514 17.9357 20.141L17.809 20.399L17.7954 23.508L17.7818 26.6216H13.7134H9.64043V19.1092V11.6014L11.6 11.5878L13.5595 11.5742L13.7451 11.4521C13.8446 11.3842 13.9759 11.2529 14.0347 11.1579L14.1433 10.9859L14.1569 9.02638L14.1705 7.07136H19.5966H25.0272V13.2261ZM13.2608 9.22098V10.6918H11.781H10.2966L11.7674 9.22098C12.5775 8.41091 13.2427 7.75019 13.2473 7.75019C13.2563 7.75019 13.2608 8.41091 13.2608 9.22098ZM26.5885 20.3402C26.8464 20.4578 26.8374 20.3266 26.8374 24.3543C26.8374 27.1375 26.8238 28.0969 26.7831 28.1829C26.6654 28.4408 26.7967 28.4318 22.7644 28.4318C18.7322 28.4318 18.8634 28.4408 18.7458 28.1829C18.6643 28.0019 18.6734 20.666 18.7548 20.5167C18.8861 20.2813 18.7593 20.2904 22.7508 20.2859C25.5431 20.2859 26.5025 20.2994 26.5885 20.3402Z"/>
</mask>
<path d="M13.4645 6.25224C13.2201 6.40611 8.78963 10.8864 8.75795 11.0086C8.74437 11.0719 8.73985 14.6742 8.74437 19.0187L8.75795 26.9157L8.86656 27.0877C8.92539 27.1828 9.05663 27.314 9.15619 27.3819L9.34174 27.5041L13.5595 27.5176L17.7773 27.5267L17.7954 27.9249C17.8271 28.5585 18.0579 28.9477 18.5466 29.1876L18.8046 29.3143H22.7644H26.7243L26.9822 29.1876C27.2718 29.0427 27.4845 28.8255 27.6248 28.5268C27.7199 28.3187 27.7199 28.2915 27.7199 24.3588V20.399L27.5931 20.141C27.3533 19.6523 26.9641 19.4215 26.3305 19.3898L25.9323 19.3717L25.9232 13.0722L25.9097 6.77267L25.7875 6.58713C25.7196 6.48757 25.5883 6.35633 25.4933 6.29749L25.3213 6.18888L19.4608 6.17531C13.7677 6.16625 13.5957 6.16625 13.4645 6.25224ZM25.0272 13.2261V19.3762L21.9182 19.3898C18.8634 19.4034 18.8001 19.4034 18.5964 19.4984C18.2977 19.6387 18.0805 19.8514 17.9357 20.141L17.809 20.399L17.7954 23.508L17.7818 26.6216H13.7134H9.64043V19.1092V11.6014L11.6 11.5878L13.5595 11.5742L13.7451 11.4521C13.8446 11.3842 13.9759 11.2529 14.0347 11.1579L14.1433 10.9859L14.1569 9.02638L14.1705 7.07136H19.5966H25.0272V13.2261ZM13.2608 9.22098V10.6918H11.781H10.2966L11.7674 9.22098C12.5775 8.41091 13.2427 7.75019 13.2473 7.75019C13.2563 7.75019 13.2608 8.41091 13.2608 9.22098ZM26.5885 20.3402C26.8464 20.4578 26.8374 20.3266 26.8374 24.3543C26.8374 27.1375 26.8238 28.0969 26.7831 28.1829C26.6654 28.4408 26.7967 28.4318 22.7644 28.4318C18.7322 28.4318 18.8634 28.4408 18.7458 28.1829C18.6643 28.0019 18.6734 20.666 18.7548 20.5167C18.8861 20.2813 18.7593 20.2904 22.7508 20.2859C25.5431 20.2859 26.5025 20.2994 26.5885 20.3402Z" fill="black"/>
<path d="M13.4645 6.25224C13.2201 6.40611 8.78963 10.8864 8.75795 11.0086C8.74437 11.0719 8.73985 14.6742 8.74437 19.0187L8.75795 26.9157L8.86656 27.0877C8.92539 27.1828 9.05663 27.314 9.15619 27.3819L9.34174 27.5041L13.5595 27.5176L17.7773 27.5267L17.7954 27.9249C17.8271 28.5585 18.0579 28.9477 18.5466 29.1876L18.8046 29.3143H22.7644H26.7243L26.9822 29.1876C27.2718 29.0427 27.4845 28.8255 27.6248 28.5268C27.7199 28.3187 27.7199 28.2915 27.7199 24.3588V20.399L27.5931 20.141C27.3533 19.6523 26.9641 19.4215 26.3305 19.3898L25.9323 19.3717L25.9232 13.0722L25.9097 6.77267L25.7875 6.58713C25.7196 6.48757 25.5883 6.35633 25.4933 6.29749L25.3213 6.18888L19.4608 6.17531C13.7677 6.16625 13.5957 6.16625 13.4645 6.25224ZM25.0272 13.2261V19.3762L21.9182 19.3898C18.8634 19.4034 18.8001 19.4034 18.5964 19.4984C18.2977 19.6387 18.0805 19.8514 17.9357 20.141L17.809 20.399L17.7954 23.508L17.7818 26.6216H13.7134H9.64043V19.1092V11.6014L11.6 11.5878L13.5595 11.5742L13.7451 11.4521C13.8446 11.3842 13.9759 11.2529 14.0347 11.1579L14.1433 10.9859L14.1569 9.02638L14.1705 7.07136H19.5966H25.0272V13.2261ZM13.2608 9.22098V10.6918H11.781H10.2966L11.7674 9.22098C12.5775 8.41091 13.2427 7.75019 13.2473 7.75019C13.2563 7.75019 13.2608 8.41091 13.2608 9.22098ZM26.5885 20.3402C26.8464 20.4578 26.8374 20.3266 26.8374 24.3543C26.8374 27.1375 26.8238 28.0969 26.7831 28.1829C26.6654 28.4408 26.7967 28.4318 22.7644 28.4318C18.7322 28.4318 18.8634 28.4408 18.7458 28.1829C18.6643 28.0019 18.6734 20.666 18.7548 20.5167C18.8861 20.2813 18.7593 20.2904 22.7508 20.2859C25.5431 20.2859 26.5025 20.2994 26.5885 20.3402Z" stroke="black" stroke-width="0.514286" mask="url(#path-2-outside-1_3013_55021)"/>
</g>
<path id="Vector_2" d="M11.6813 12.7916C11.3781 12.959 11.3872 13.4387 11.6994 13.579C11.7899 13.6197 13.1521 13.6333 17.3382 13.6333C22.0267 13.6333 22.8775 13.6242 22.9861 13.5699C23.2848 13.4116 23.2848 12.9499 22.9861 12.7916C22.8051 12.701 11.8488 12.6965 11.6813 12.7916Z" fill="black"/>
<path id="Vector_3" d="M11.6817 14.828C11.288 15.0452 11.4554 15.6697 11.9034 15.6697C12.1342 15.6697 12.356 15.448 12.356 15.2217C12.356 14.8823 11.9804 14.6605 11.6817 14.828Z" fill="black"/>
<path id="Vector_4" d="M13.7184 14.828C13.4152 14.9954 13.4243 15.4751 13.7365 15.6154C13.8225 15.6562 14.963 15.6697 18.3571 15.6697C22.1676 15.6697 22.8781 15.6607 22.9867 15.6064C23.2854 15.448 23.2854 14.9864 22.9867 14.828C22.8057 14.7375 13.8859 14.7375 13.7184 14.828Z" fill="black"/>
<path id="Vector_5" d="M11.6813 16.8644C11.3781 17.0319 11.3872 17.5116 11.6994 17.6519C11.7899 17.6926 13.1521 17.7062 17.3382 17.7062C22.0267 17.7062 22.8775 17.6971 22.9861 17.6428C23.2848 17.4844 23.2848 17.0228 22.9861 16.8644C22.8051 16.7739 11.8488 16.7694 11.6813 16.8644Z" fill="black"/>
<path id="Vector_6" d="M11.6813 18.901C11.3781 19.0684 11.3872 19.5481 11.6994 19.6884C11.8669 19.7653 16.4648 19.7653 16.6322 19.6884C16.7635 19.6296 16.8812 19.4395 16.8812 19.2901C16.8812 19.1408 16.7635 18.9507 16.6322 18.8919C16.4512 18.8104 11.8307 18.8195 11.6813 18.901Z" fill="black"/>
<path id="Vector_7" d="M11.6817 20.9374C11.469 21.0551 11.3965 21.3176 11.5142 21.5484C11.6319 21.7701 11.7043 21.7792 13.2656 21.7792C14.8359 21.7792 14.9083 21.7701 15.017 21.5303C15.121 21.2995 15.0486 21.046 14.8405 20.9374C14.664 20.8469 11.8446 20.8469 11.6817 20.9374Z" fill="black"/>
<path id="Vector_8" d="M24.2895 21.8244C23.941 21.9149 23.7238 22.0779 22.9409 22.8472L22.1489 23.6346L21.9679 23.4491C21.6873 23.1595 21.3615 23.0237 20.9542 23.0237C20.393 23.0282 19.9857 23.2771 19.7459 23.7613C19.6418 23.974 19.6191 24.0781 19.6191 24.3587C19.6191 24.8973 19.7232 25.0556 20.6283 25.9517C21.5018 26.8161 21.6375 26.9021 22.1534 26.9066C22.7055 26.9111 22.7508 26.8794 24.294 25.3408C25.8689 23.7704 25.9096 23.7206 25.9096 23.1595C25.9096 22.7386 25.8146 22.4897 25.5385 22.2091C25.2353 21.8968 24.6832 21.7294 24.2895 21.8244ZM24.9095 22.8698C25.0181 22.992 25.0317 23.0418 25.0136 23.1957C24.9909 23.3631 24.8868 23.4808 23.7057 24.6619C22.8504 25.5172 22.3752 25.9607 22.2801 25.9924C22.167 26.0286 22.1036 26.0241 21.9815 25.9653C21.7688 25.8657 20.5604 24.6393 20.5242 24.4854C20.4383 24.1415 20.7324 23.8428 21.0718 23.9243C21.1397 23.9424 21.3705 24.1279 21.5923 24.3406C21.9634 24.6936 21.9996 24.7208 22.1806 24.7208C22.3707 24.7208 22.3842 24.7072 23.3708 23.7297C23.9229 23.1866 24.4026 22.7295 24.4388 22.716C24.5746 22.6616 24.7782 22.7295 24.9095 22.8698Z" fill="black"/>
</g>
</g>
</svg>
