<svg width="60" height="60" viewBox="0 0 36 36" fill="none" xmlns="http://www.w3.org/2000/svg">
<g id="equipment">
<g id="Group 1171274866">
<rect id="Rectangle 34624704" x="10.8486" y="18.9122" width="2.1833" height="9.16985" fill="#FFA600"/>
<rect id="Rectangle 34624707" x="23.0752" y="18.0389" width="2.1833" height="9.16985" fill="#FFA600"/>
<rect id="Rectangle 34624706" width="12.6631" height="2.61996" transform="matrix(1 0 0 -1 12.1582 29.392)" fill="#FFA600"/>
<path id="Rectangle 34624705" d="M12.5953 11.7073L14.7786 10.179L18.0535 9.52405L20.6735 9.96071L22.6384 11.0524L23.2934 11.7073L24.8217 13.2357L25.2584 20.6589H10.8486L11.067 13.6723L12.5953 11.7073Z" fill="#FFA600"/>
<g id="Group 1171274857">
<g id="Group">
<g id="Vector">
<mask id="path-5-outside-1_3013_54966" maskUnits="userSpaceOnUse" x="9.00537" y="7.63855" width="18" height="23" fill="black">
<rect fill="white" x="9.00537" y="7.63855" width="18" height="23"/>
<path d="M21.947 29.8199H14.1608C13.8878 29.8199 13.6177 29.7957 13.3505 29.7473C13.0832 29.7001 12.823 29.6288 12.5714 29.5358C12.3184 29.4428 12.0795 29.3282 11.8535 29.1919C11.626 29.0568 11.417 28.9027 11.2237 28.7307C11.0304 28.5575 10.8583 28.3702 10.7077 28.1677C10.5555 27.9652 10.4276 27.7512 10.3224 27.5257C10.2186 27.3002 10.139 27.0684 10.0864 26.8302C10.0324 26.5907 10.0054 26.3487 10.0054 26.1054V15.8332C10.0054 15.5975 10.0182 15.3631 10.0438 15.1275C10.0708 14.8931 10.1091 14.6612 10.1603 14.4294C10.2115 14.1988 10.2755 13.9708 10.3522 13.7453C10.429 13.5199 10.5172 13.2982 10.6181 13.0804C10.719 12.8626 10.8313 12.6499 10.9564 12.4422C11.0801 12.2333 11.2152 12.032 11.3616 11.8359C11.508 11.6397 11.6644 11.4512 11.8322 11.269C11.9999 11.0869 12.1762 10.9123 12.3624 10.7455C12.5487 10.5786 12.7434 10.4206 12.9481 10.2716C13.1514 10.1226 13.3632 9.98244 13.5822 9.85124C13.8011 9.72003 14.0271 9.59902 14.2603 9.4882C14.492 9.37737 14.7294 9.27674 14.9739 9.1863C15.217 9.09586 15.4644 9.01688 15.7175 8.94809C15.9691 8.8793 16.225 8.82326 16.4837 8.7774C16.7425 8.73027 17.0026 8.69587 17.2642 8.67294C17.5272 8.65001 17.7902 8.63855 18.0532 8.63855C18.3176 8.63855 18.5806 8.65001 18.8422 8.67294C19.1052 8.69587 19.3653 8.73027 19.6241 8.7774C19.8814 8.82326 20.1373 8.8793 20.3889 8.94809C20.642 9.01688 20.8893 9.09586 21.1339 9.1863C21.3769 9.27674 21.6144 9.37737 21.8475 9.4882C22.0792 9.59902 22.3053 9.72003 22.5242 9.85124C22.7431 9.98244 22.955 10.1226 23.1597 10.2716C23.363 10.4206 23.5577 10.5786 23.744 10.7455C23.9302 10.9123 24.1079 11.0869 24.2742 11.269C24.442 11.4512 24.5983 11.6397 24.7448 11.8359C24.8912 12.032 25.0263 12.2333 25.1514 12.4422C25.275 12.6499 25.3874 12.8626 25.4883 13.0804C25.5892 13.2982 25.6788 13.5199 25.7541 13.7453C25.8309 13.9708 25.8949 14.1988 25.946 14.4294C25.9987 14.6612 26.037 14.8931 26.0626 15.1275C26.0882 15.3631 26.101 15.5975 26.101 15.8332V26.1054C26.101 26.3487 26.074 26.5907 26.0214 26.8302C25.9674 27.0684 25.8878 27.3002 25.784 27.5257C25.6788 27.7512 25.5508 27.9652 25.4001 28.1677C25.248 28.3702 25.076 28.5575 24.8827 28.7307C24.6908 28.9027 24.4804 29.0568 24.2543 29.1919C24.0269 29.3282 23.788 29.4428 23.5364 29.5358C23.2833 29.6288 23.0246 29.7001 22.7573 29.7473C22.4901 29.7957 22.22 29.8199 21.947 29.8199ZM18.0532 9.44489C17.82 9.44489 17.5855 9.45508 17.3537 9.47673C17.1206 9.49711 16.8889 9.52769 16.66 9.56845C16.4297 9.60921 16.2037 9.66016 15.9805 9.72131C15.7558 9.78245 15.5355 9.85251 15.3194 9.93277C15.1033 10.013 14.8929 10.1022 14.6868 10.2015C14.4806 10.2996 14.2802 10.4079 14.0854 10.5238C13.8907 10.6397 13.703 10.7646 13.5225 10.8971C13.3405 11.0295 13.1685 11.1697 13.0022 11.3174C12.8372 11.4665 12.6809 11.6206 12.5316 11.7824C12.3837 11.9441 12.2444 12.1123 12.1136 12.2855C11.9843 12.4601 11.8634 12.6384 11.754 12.8231C11.6431 13.0078 11.5436 13.1963 11.4526 13.39C11.363 13.5823 11.2848 13.7797 11.2166 13.9797C11.1484 14.1797 11.0915 14.3823 11.046 14.5874C11.0005 14.7924 10.965 14.9988 10.9422 15.2077C10.9195 15.4153 10.9067 15.6243 10.9067 15.8332V26.1054C10.9067 26.2964 10.928 26.485 10.9707 26.6722C11.0119 26.8595 11.0744 27.0416 11.1555 27.2174C11.2379 27.3945 11.3374 27.5614 11.4569 27.7206C11.5748 27.8785 11.7099 28.0263 11.8606 28.1613C12.0113 28.2964 12.1762 28.4161 12.3539 28.5231C12.5316 28.6288 12.7178 28.718 12.9154 28.7919C13.113 28.8645 13.3163 28.9193 13.5253 28.9575C13.7357 28.9944 13.9461 29.0135 14.1608 29.0135H21.947C22.1603 29.0135 22.3721 28.9944 22.5811 28.9575C22.79 28.9193 22.9933 28.8645 23.1909 28.7919C23.3885 28.718 23.5762 28.6288 23.7525 28.5231C23.9302 28.4161 24.0951 28.2964 24.2458 28.1613C24.3965 28.0263 24.5315 27.8785 24.6509 27.7206C24.7689 27.5614 24.8699 27.3945 24.9509 27.2174C25.0334 27.0416 25.0945 26.8595 25.1371 26.6722C25.1784 26.485 25.1997 26.2964 25.1997 26.1054V15.8332C25.1997 15.6243 25.1883 15.4153 25.1642 15.2077C25.1414 14.9988 25.1073 14.7924 25.0618 14.5874C25.0149 14.3823 24.958 14.1797 24.8898 13.9797C24.8215 13.7797 24.7434 13.5823 24.6538 13.39C24.5642 13.1963 24.4633 13.0078 24.3538 12.8231C24.2429 12.6384 24.1235 12.4601 23.9927 12.2855C23.8634 12.1123 23.7241 11.9441 23.5748 11.7824C23.4269 11.6206 23.2691 11.4665 23.1042 11.3174C22.9393 11.1697 22.7659 11.0295 22.5853 10.8971C22.4034 10.7646 22.2157 10.6397 22.0224 10.5238C21.8276 10.4079 21.6272 10.2996 21.421 10.2015C21.2149 10.1022 21.0031 10.013 20.787 9.93277C20.5709 9.85251 20.3505 9.78245 20.1273 9.72131C19.9027 9.66016 19.6767 9.60921 19.4464 9.56845C19.2175 9.52769 18.9858 9.49711 18.7541 9.47673C18.5209 9.45508 18.2878 9.44489 18.0532 9.44489Z"/>
</mask>
<path d="M21.947 29.8199H14.1608C13.8878 29.8199 13.6177 29.7957 13.3505 29.7473C13.0832 29.7001 12.823 29.6288 12.5714 29.5358C12.3184 29.4428 12.0795 29.3282 11.8535 29.1919C11.626 29.0568 11.417 28.9027 11.2237 28.7307C11.0304 28.5575 10.8583 28.3702 10.7077 28.1677C10.5555 27.9652 10.4276 27.7512 10.3224 27.5257C10.2186 27.3002 10.139 27.0684 10.0864 26.8302C10.0324 26.5907 10.0054 26.3487 10.0054 26.1054V15.8332C10.0054 15.5975 10.0182 15.3631 10.0438 15.1275C10.0708 14.8931 10.1091 14.6612 10.1603 14.4294C10.2115 14.1988 10.2755 13.9708 10.3522 13.7453C10.429 13.5199 10.5172 13.2982 10.6181 13.0804C10.719 12.8626 10.8313 12.6499 10.9564 12.4422C11.0801 12.2333 11.2152 12.032 11.3616 11.8359C11.508 11.6397 11.6644 11.4512 11.8322 11.269C11.9999 11.0869 12.1762 10.9123 12.3624 10.7455C12.5487 10.5786 12.7434 10.4206 12.9481 10.2716C13.1514 10.1226 13.3632 9.98244 13.5822 9.85124C13.8011 9.72003 14.0271 9.59902 14.2603 9.4882C14.492 9.37737 14.7294 9.27674 14.9739 9.1863C15.217 9.09586 15.4644 9.01688 15.7175 8.94809C15.9691 8.8793 16.225 8.82326 16.4837 8.7774C16.7425 8.73027 17.0026 8.69587 17.2642 8.67294C17.5272 8.65001 17.7902 8.63855 18.0532 8.63855C18.3176 8.63855 18.5806 8.65001 18.8422 8.67294C19.1052 8.69587 19.3653 8.73027 19.6241 8.7774C19.8814 8.82326 20.1373 8.8793 20.3889 8.94809C20.642 9.01688 20.8893 9.09586 21.1339 9.1863C21.3769 9.27674 21.6144 9.37737 21.8475 9.4882C22.0792 9.59902 22.3053 9.72003 22.5242 9.85124C22.7431 9.98244 22.955 10.1226 23.1597 10.2716C23.363 10.4206 23.5577 10.5786 23.744 10.7455C23.9302 10.9123 24.1079 11.0869 24.2742 11.269C24.442 11.4512 24.5983 11.6397 24.7448 11.8359C24.8912 12.032 25.0263 12.2333 25.1514 12.4422C25.275 12.6499 25.3874 12.8626 25.4883 13.0804C25.5892 13.2982 25.6788 13.5199 25.7541 13.7453C25.8309 13.9708 25.8949 14.1988 25.946 14.4294C25.9987 14.6612 26.037 14.8931 26.0626 15.1275C26.0882 15.3631 26.101 15.5975 26.101 15.8332V26.1054C26.101 26.3487 26.074 26.5907 26.0214 26.8302C25.9674 27.0684 25.8878 27.3002 25.784 27.5257C25.6788 27.7512 25.5508 27.9652 25.4001 28.1677C25.248 28.3702 25.076 28.5575 24.8827 28.7307C24.6908 28.9027 24.4804 29.0568 24.2543 29.1919C24.0269 29.3282 23.788 29.4428 23.5364 29.5358C23.2833 29.6288 23.0246 29.7001 22.7573 29.7473C22.4901 29.7957 22.22 29.8199 21.947 29.8199ZM18.0532 9.44489C17.82 9.44489 17.5855 9.45508 17.3537 9.47673C17.1206 9.49711 16.8889 9.52769 16.66 9.56845C16.4297 9.60921 16.2037 9.66016 15.9805 9.72131C15.7558 9.78245 15.5355 9.85251 15.3194 9.93277C15.1033 10.013 14.8929 10.1022 14.6868 10.2015C14.4806 10.2996 14.2802 10.4079 14.0854 10.5238C13.8907 10.6397 13.703 10.7646 13.5225 10.8971C13.3405 11.0295 13.1685 11.1697 13.0022 11.3174C12.8372 11.4665 12.6809 11.6206 12.5316 11.7824C12.3837 11.9441 12.2444 12.1123 12.1136 12.2855C11.9843 12.4601 11.8634 12.6384 11.754 12.8231C11.6431 13.0078 11.5436 13.1963 11.4526 13.39C11.363 13.5823 11.2848 13.7797 11.2166 13.9797C11.1484 14.1797 11.0915 14.3823 11.046 14.5874C11.0005 14.7924 10.965 14.9988 10.9422 15.2077C10.9195 15.4153 10.9067 15.6243 10.9067 15.8332V26.1054C10.9067 26.2964 10.928 26.485 10.9707 26.6722C11.0119 26.8595 11.0744 27.0416 11.1555 27.2174C11.2379 27.3945 11.3374 27.5614 11.4569 27.7206C11.5748 27.8785 11.7099 28.0263 11.8606 28.1613C12.0113 28.2964 12.1762 28.4161 12.3539 28.5231C12.5316 28.6288 12.7178 28.718 12.9154 28.7919C13.113 28.8645 13.3163 28.9193 13.5253 28.9575C13.7357 28.9944 13.9461 29.0135 14.1608 29.0135H21.947C22.1603 29.0135 22.3721 28.9944 22.5811 28.9575C22.79 28.9193 22.9933 28.8645 23.1909 28.7919C23.3885 28.718 23.5762 28.6288 23.7525 28.5231C23.9302 28.4161 24.0951 28.2964 24.2458 28.1613C24.3965 28.0263 24.5315 27.8785 24.6509 27.7206C24.7689 27.5614 24.8699 27.3945 24.9509 27.2174C25.0334 27.0416 25.0945 26.8595 25.1371 26.6722C25.1784 26.485 25.1997 26.2964 25.1997 26.1054V15.8332C25.1997 15.6243 25.1883 15.4153 25.1642 15.2077C25.1414 14.9988 25.1073 14.7924 25.0618 14.5874C25.0149 14.3823 24.958 14.1797 24.8898 13.9797C24.8215 13.7797 24.7434 13.5823 24.6538 13.39C24.5642 13.1963 24.4633 13.0078 24.3538 12.8231C24.2429 12.6384 24.1235 12.4601 23.9927 12.2855C23.8634 12.1123 23.7241 11.9441 23.5748 11.7824C23.4269 11.6206 23.2691 11.4665 23.1042 11.3174C22.9393 11.1697 22.7659 11.0295 22.5853 10.8971C22.4034 10.7646 22.2157 10.6397 22.0224 10.5238C21.8276 10.4079 21.6272 10.2996 21.421 10.2015C21.2149 10.1022 21.0031 10.013 20.787 9.93277C20.5709 9.85251 20.3505 9.78245 20.1273 9.72131C19.9027 9.66016 19.6767 9.60921 19.4464 9.56845C19.2175 9.52769 18.9858 9.49711 18.7541 9.47673C18.5209 9.45508 18.2878 9.44489 18.0532 9.44489Z" fill="black"/>
<path d="M21.947 29.8199H14.1608C13.8878 29.8199 13.6177 29.7957 13.3505 29.7473C13.0832 29.7001 12.823 29.6288 12.5714 29.5358C12.3184 29.4428 12.0795 29.3282 11.8535 29.1919C11.626 29.0568 11.417 28.9027 11.2237 28.7307C11.0304 28.5575 10.8583 28.3702 10.7077 28.1677C10.5555 27.9652 10.4276 27.7512 10.3224 27.5257C10.2186 27.3002 10.139 27.0684 10.0864 26.8302C10.0324 26.5907 10.0054 26.3487 10.0054 26.1054V15.8332C10.0054 15.5975 10.0182 15.3631 10.0438 15.1275C10.0708 14.8931 10.1091 14.6612 10.1603 14.4294C10.2115 14.1988 10.2755 13.9708 10.3522 13.7453C10.429 13.5199 10.5172 13.2982 10.6181 13.0804C10.719 12.8626 10.8313 12.6499 10.9564 12.4422C11.0801 12.2333 11.2152 12.032 11.3616 11.8359C11.508 11.6397 11.6644 11.4512 11.8322 11.269C11.9999 11.0869 12.1762 10.9123 12.3624 10.7455C12.5487 10.5786 12.7434 10.4206 12.9481 10.2716C13.1514 10.1226 13.3632 9.98244 13.5822 9.85124C13.8011 9.72003 14.0271 9.59902 14.2603 9.4882C14.492 9.37737 14.7294 9.27674 14.9739 9.1863C15.217 9.09586 15.4644 9.01688 15.7175 8.94809C15.9691 8.8793 16.225 8.82326 16.4837 8.7774C16.7425 8.73027 17.0026 8.69587 17.2642 8.67294C17.5272 8.65001 17.7902 8.63855 18.0532 8.63855C18.3176 8.63855 18.5806 8.65001 18.8422 8.67294C19.1052 8.69587 19.3653 8.73027 19.6241 8.7774C19.8814 8.82326 20.1373 8.8793 20.3889 8.94809C20.642 9.01688 20.8893 9.09586 21.1339 9.1863C21.3769 9.27674 21.6144 9.37737 21.8475 9.4882C22.0792 9.59902 22.3053 9.72003 22.5242 9.85124C22.7431 9.98244 22.955 10.1226 23.1597 10.2716C23.363 10.4206 23.5577 10.5786 23.744 10.7455C23.9302 10.9123 24.1079 11.0869 24.2742 11.269C24.442 11.4512 24.5983 11.6397 24.7448 11.8359C24.8912 12.032 25.0263 12.2333 25.1514 12.4422C25.275 12.6499 25.3874 12.8626 25.4883 13.0804C25.5892 13.2982 25.6788 13.5199 25.7541 13.7453C25.8309 13.9708 25.8949 14.1988 25.946 14.4294C25.9987 14.6612 26.037 14.8931 26.0626 15.1275C26.0882 15.3631 26.101 15.5975 26.101 15.8332V26.1054C26.101 26.3487 26.074 26.5907 26.0214 26.8302C25.9674 27.0684 25.8878 27.3002 25.784 27.5257C25.6788 27.7512 25.5508 27.9652 25.4001 28.1677C25.248 28.3702 25.076 28.5575 24.8827 28.7307C24.6908 28.9027 24.4804 29.0568 24.2543 29.1919C24.0269 29.3282 23.788 29.4428 23.5364 29.5358C23.2833 29.6288 23.0246 29.7001 22.7573 29.7473C22.4901 29.7957 22.22 29.8199 21.947 29.8199ZM18.0532 9.44489C17.82 9.44489 17.5855 9.45508 17.3537 9.47673C17.1206 9.49711 16.8889 9.52769 16.66 9.56845C16.4297 9.60921 16.2037 9.66016 15.9805 9.72131C15.7558 9.78245 15.5355 9.85251 15.3194 9.93277C15.1033 10.013 14.8929 10.1022 14.6868 10.2015C14.4806 10.2996 14.2802 10.4079 14.0854 10.5238C13.8907 10.6397 13.703 10.7646 13.5225 10.8971C13.3405 11.0295 13.1685 11.1697 13.0022 11.3174C12.8372 11.4665 12.6809 11.6206 12.5316 11.7824C12.3837 11.9441 12.2444 12.1123 12.1136 12.2855C11.9843 12.4601 11.8634 12.6384 11.754 12.8231C11.6431 13.0078 11.5436 13.1963 11.4526 13.39C11.363 13.5823 11.2848 13.7797 11.2166 13.9797C11.1484 14.1797 11.0915 14.3823 11.046 14.5874C11.0005 14.7924 10.965 14.9988 10.9422 15.2077C10.9195 15.4153 10.9067 15.6243 10.9067 15.8332V26.1054C10.9067 26.2964 10.928 26.485 10.9707 26.6722C11.0119 26.8595 11.0744 27.0416 11.1555 27.2174C11.2379 27.3945 11.3374 27.5614 11.4569 27.7206C11.5748 27.8785 11.7099 28.0263 11.8606 28.1613C12.0113 28.2964 12.1762 28.4161 12.3539 28.5231C12.5316 28.6288 12.7178 28.718 12.9154 28.7919C13.113 28.8645 13.3163 28.9193 13.5253 28.9575C13.7357 28.9944 13.9461 29.0135 14.1608 29.0135H21.947C22.1603 29.0135 22.3721 28.9944 22.5811 28.9575C22.79 28.9193 22.9933 28.8645 23.1909 28.7919C23.3885 28.718 23.5762 28.6288 23.7525 28.5231C23.9302 28.4161 24.0951 28.2964 24.2458 28.1613C24.3965 28.0263 24.5315 27.8785 24.6509 27.7206C24.7689 27.5614 24.8699 27.3945 24.9509 27.2174C25.0334 27.0416 25.0945 26.8595 25.1371 26.6722C25.1784 26.485 25.1997 26.2964 25.1997 26.1054V15.8332C25.1997 15.6243 25.1883 15.4153 25.1642 15.2077C25.1414 14.9988 25.1073 14.7924 25.0618 14.5874C25.0149 14.3823 24.958 14.1797 24.8898 13.9797C24.8215 13.7797 24.7434 13.5823 24.6538 13.39C24.5642 13.1963 24.4633 13.0078 24.3538 12.8231C24.2429 12.6384 24.1235 12.4601 23.9927 12.2855C23.8634 12.1123 23.7241 11.9441 23.5748 11.7824C23.4269 11.6206 23.2691 11.4665 23.1042 11.3174C22.9393 11.1697 22.7659 11.0295 22.5853 10.8971C22.4034 10.7646 22.2157 10.6397 22.0224 10.5238C21.8276 10.4079 21.6272 10.2996 21.421 10.2015C21.2149 10.1022 21.0031 10.013 20.787 9.93277C20.5709 9.85251 20.3505 9.78245 20.1273 9.72131C19.9027 9.66016 19.6767 9.60921 19.4464 9.56845C19.2175 9.52769 18.9858 9.49711 18.7541 9.47673C18.5209 9.45508 18.2878 9.44489 18.0532 9.44489Z" stroke="black" stroke-width="0.514286" mask="url(#path-5-outside-1_3013_54966)"/>
</g>
</g>
<g id="Group_2">
<g id="Vector_2">
<mask id="path-6-outside-2_3013_54966" maskUnits="userSpaceOnUse" x="12.8003" y="5.68573" width="10" height="5" fill="black">
<rect fill="white" x="12.8003" y="5.68573" width="10" height="5"/>
<path d="M21.8519 10.3556C21.7069 10.3556 21.5889 10.3047 21.4979 10.2015L19.7607 8.23216C19.6598 8.11752 19.5446 8.01306 19.4167 7.92135C19.2887 7.82963 19.1508 7.75066 19.003 7.68696C18.8551 7.62327 18.7002 7.57487 18.5409 7.54175C18.3803 7.50863 18.2182 7.49207 18.0533 7.49207C17.8898 7.49207 17.7264 7.50863 17.5671 7.54175C17.4065 7.57487 17.253 7.62327 17.1051 7.68696C16.9573 7.75066 16.8194 7.82963 16.6914 7.92135C16.5635 8.01306 16.4483 8.11752 16.346 8.23216L14.6087 10.2015C14.5718 10.2448 14.5277 10.2792 14.4751 10.306C14.4225 10.3327 14.3671 10.3506 14.3073 10.3569C14.2476 10.3633 14.1879 10.3595 14.1296 10.3455C14.0714 10.3302 14.0188 10.3072 13.9718 10.2728C13.9249 10.2397 13.8865 10.199 13.8567 10.1518C13.8283 10.1047 13.8098 10.055 13.8027 10.0015C13.797 9.94802 13.8012 9.89452 13.8183 9.84356C13.8354 9.79134 13.8638 9.74421 13.9008 9.70344L15.638 7.73282C15.7105 7.65257 15.7858 7.57487 15.8683 7.50098C15.9493 7.4271 16.036 7.35831 16.1256 7.29335C16.2166 7.22838 16.3104 7.16851 16.4085 7.11246C16.5066 7.05769 16.6075 7.00674 16.7113 6.96215C16.8151 6.91629 16.9217 6.8768 17.0312 6.84241C17.1406 6.80802 17.2515 6.77872 17.3653 6.75579C17.4776 6.73286 17.5913 6.71503 17.7064 6.70356C17.8216 6.6921 17.9382 6.68573 18.0533 6.68573C18.1699 6.68573 18.2851 6.6921 18.4002 6.70356C18.5154 6.71503 18.6291 6.73286 18.7428 6.75579C18.8551 6.77872 18.966 6.80802 19.0755 6.84241C19.1849 6.8768 19.2916 6.91629 19.3953 6.96215C19.5005 7.00674 19.6015 7.05769 19.6996 7.11246C19.7962 7.16851 19.8915 7.22838 19.981 7.29335C20.072 7.35831 20.1573 7.4271 20.2384 7.50098C20.3208 7.57487 20.3976 7.65257 20.4687 7.73282L22.2059 9.70344C22.2599 9.76331 22.2912 9.8321 22.2997 9.90853C22.3097 9.98496 22.2955 10.0588 22.2571 10.1276C22.2201 10.1977 22.1647 10.2525 22.0922 10.2932C22.0182 10.3353 21.9386 10.3556 21.8519 10.3556Z"/>
</mask>
<path d="M21.8519 10.3556C21.7069 10.3556 21.5889 10.3047 21.4979 10.2015L19.7607 8.23216C19.6598 8.11752 19.5446 8.01306 19.4167 7.92135C19.2887 7.82963 19.1508 7.75066 19.003 7.68696C18.8551 7.62327 18.7002 7.57487 18.5409 7.54175C18.3803 7.50863 18.2182 7.49207 18.0533 7.49207C17.8898 7.49207 17.7264 7.50863 17.5671 7.54175C17.4065 7.57487 17.253 7.62327 17.1051 7.68696C16.9573 7.75066 16.8194 7.82963 16.6914 7.92135C16.5635 8.01306 16.4483 8.11752 16.346 8.23216L14.6087 10.2015C14.5718 10.2448 14.5277 10.2792 14.4751 10.306C14.4225 10.3327 14.3671 10.3506 14.3073 10.3569C14.2476 10.3633 14.1879 10.3595 14.1296 10.3455C14.0714 10.3302 14.0188 10.3072 13.9718 10.2728C13.9249 10.2397 13.8865 10.199 13.8567 10.1518C13.8283 10.1047 13.8098 10.055 13.8027 10.0015C13.797 9.94802 13.8012 9.89452 13.8183 9.84356C13.8354 9.79134 13.8638 9.74421 13.9008 9.70344L15.638 7.73282C15.7105 7.65257 15.7858 7.57487 15.8683 7.50098C15.9493 7.4271 16.036 7.35831 16.1256 7.29335C16.2166 7.22838 16.3104 7.16851 16.4085 7.11246C16.5066 7.05769 16.6075 7.00674 16.7113 6.96215C16.8151 6.91629 16.9217 6.8768 17.0312 6.84241C17.1406 6.80802 17.2515 6.77872 17.3653 6.75579C17.4776 6.73286 17.5913 6.71503 17.7064 6.70356C17.8216 6.6921 17.9382 6.68573 18.0533 6.68573C18.1699 6.68573 18.2851 6.6921 18.4002 6.70356C18.5154 6.71503 18.6291 6.73286 18.7428 6.75579C18.8551 6.77872 18.966 6.80802 19.0755 6.84241C19.1849 6.8768 19.2916 6.91629 19.3953 6.96215C19.5005 7.00674 19.6015 7.05769 19.6996 7.11246C19.7962 7.16851 19.8915 7.22838 19.981 7.29335C20.072 7.35831 20.1573 7.4271 20.2384 7.50098C20.3208 7.57487 20.3976 7.65257 20.4687 7.73282L22.2059 9.70344C22.2599 9.76331 22.2912 9.8321 22.2997 9.90853C22.3097 9.98496 22.2955 10.0588 22.2571 10.1276C22.2201 10.1977 22.1647 10.2525 22.0922 10.2932C22.0182 10.3353 21.9386 10.3556 21.8519 10.3556Z" fill="black"/>
<path d="M21.8519 10.3556C21.7069 10.3556 21.5889 10.3047 21.4979 10.2015L19.7607 8.23216C19.6598 8.11752 19.5446 8.01306 19.4167 7.92135C19.2887 7.82963 19.1508 7.75066 19.003 7.68696C18.8551 7.62327 18.7002 7.57487 18.5409 7.54175C18.3803 7.50863 18.2182 7.49207 18.0533 7.49207C17.8898 7.49207 17.7264 7.50863 17.5671 7.54175C17.4065 7.57487 17.253 7.62327 17.1051 7.68696C16.9573 7.75066 16.8194 7.82963 16.6914 7.92135C16.5635 8.01306 16.4483 8.11752 16.346 8.23216L14.6087 10.2015C14.5718 10.2448 14.5277 10.2792 14.4751 10.306C14.4225 10.3327 14.3671 10.3506 14.3073 10.3569C14.2476 10.3633 14.1879 10.3595 14.1296 10.3455C14.0714 10.3302 14.0188 10.3072 13.9718 10.2728C13.9249 10.2397 13.8865 10.199 13.8567 10.1518C13.8283 10.1047 13.8098 10.055 13.8027 10.0015C13.797 9.94802 13.8012 9.89452 13.8183 9.84356C13.8354 9.79134 13.8638 9.74421 13.9008 9.70344L15.638 7.73282C15.7105 7.65257 15.7858 7.57487 15.8683 7.50098C15.9493 7.4271 16.036 7.35831 16.1256 7.29335C16.2166 7.22838 16.3104 7.16851 16.4085 7.11246C16.5066 7.05769 16.6075 7.00674 16.7113 6.96215C16.8151 6.91629 16.9217 6.8768 17.0312 6.84241C17.1406 6.80802 17.2515 6.77872 17.3653 6.75579C17.4776 6.73286 17.5913 6.71503 17.7064 6.70356C17.8216 6.6921 17.9382 6.68573 18.0533 6.68573C18.1699 6.68573 18.2851 6.6921 18.4002 6.70356C18.5154 6.71503 18.6291 6.73286 18.7428 6.75579C18.8551 6.77872 18.966 6.80802 19.0755 6.84241C19.1849 6.8768 19.2916 6.91629 19.3953 6.96215C19.5005 7.00674 19.6015 7.05769 19.6996 7.11246C19.7962 7.16851 19.8915 7.22838 19.981 7.29335C20.072 7.35831 20.1573 7.4271 20.2384 7.50098C20.3208 7.57487 20.3976 7.65257 20.4687 7.73282L22.2059 9.70344C22.2599 9.76331 22.2912 9.8321 22.2997 9.90853C22.3097 9.98496 22.2955 10.0588 22.2571 10.1276C22.2201 10.1977 22.1647 10.2525 22.0922 10.2932C22.0182 10.3353 21.9386 10.3556 21.8519 10.3556Z" stroke="black" stroke-width="0.514286" mask="url(#path-6-outside-2_3013_54966)"/>
</g>
</g>
<g id="Vector_3">
<mask id="path-7-outside-3_3013_54966" maskUnits="userSpaceOnUse" x="11.9395" y="11.2627" width="12" height="5" fill="black">
<rect fill="white" x="11.9395" y="11.2627" width="12" height="5"/>
<path d="M22.8311 15.8626C22.7416 15.8626 22.6577 15.8409 22.5823 15.7963C22.507 15.7518 22.4515 15.6932 22.416 15.618C22.2369 15.2409 22.0009 14.8932 21.7066 14.5773C21.4123 14.2626 21.074 13.9913 20.6916 13.7646C20.3077 13.5378 19.8969 13.3646 19.4562 13.2461C19.0169 13.1289 18.5677 13.0691 18.1071 13.0691C17.6479 13.0691 17.1986 13.1289 16.7594 13.2461C16.3187 13.3646 15.9078 13.5378 15.524 13.7646C15.1415 13.9913 14.8032 14.2626 14.5089 14.5773C14.2147 14.8932 13.9787 15.2409 13.7981 15.618C13.7739 15.6664 13.7398 15.7072 13.6972 15.7428C13.6545 15.7785 13.6062 15.8053 13.5508 15.8244C13.4967 15.8435 13.4399 15.8511 13.3816 15.8511C13.3233 15.8498 13.2664 15.8384 13.2124 15.818C13.1598 15.7976 13.1115 15.7683 13.0702 15.7314C13.029 15.6944 12.9977 15.6511 12.975 15.604C12.9522 15.5556 12.9409 15.5046 12.9395 15.4524C12.9395 15.4002 12.9494 15.3505 12.9707 15.3008C13.0774 15.0766 13.201 14.8613 13.3432 14.6537C13.4854 14.4461 13.6432 14.2486 13.818 14.0614C13.9915 13.8741 14.1805 13.6996 14.3838 13.5366C14.5857 13.3735 14.8018 13.2257 15.0278 13.0907C15.2553 12.957 15.4927 12.8385 15.7386 12.7353C15.986 12.6309 16.239 12.5442 16.5006 12.4742C16.7608 12.4041 17.0266 12.3519 17.2953 12.3162C17.5654 12.2806 17.8355 12.2627 18.1085 12.2627C18.38 12.2627 18.6515 12.2806 18.9217 12.3162C19.1903 12.3519 19.4562 12.4041 19.7163 12.4742C19.9765 12.5442 20.231 12.6309 20.4769 12.7353C20.7243 12.8385 20.9617 12.957 21.1877 13.0907C21.4152 13.2257 21.6298 13.3735 21.8331 13.5366C22.0364 13.6996 22.2241 13.8741 22.3989 14.0614C22.5738 14.2486 22.7316 14.4461 22.8738 14.6537C23.0145 14.8613 23.1396 15.0766 23.2462 15.3008C23.2761 15.3632 23.2875 15.4282 23.2804 15.4957C23.2732 15.5632 23.2491 15.6256 23.2078 15.6817C23.1666 15.739 23.1112 15.7823 23.0444 15.8154C22.9775 15.8473 22.9065 15.8626 22.8311 15.8626Z"/>
</mask>
<path d="M22.8311 15.8626C22.7416 15.8626 22.6577 15.8409 22.5823 15.7963C22.507 15.7518 22.4515 15.6932 22.416 15.618C22.2369 15.2409 22.0009 14.8932 21.7066 14.5773C21.4123 14.2626 21.074 13.9913 20.6916 13.7646C20.3077 13.5378 19.8969 13.3646 19.4562 13.2461C19.0169 13.1289 18.5677 13.0691 18.1071 13.0691C17.6479 13.0691 17.1986 13.1289 16.7594 13.2461C16.3187 13.3646 15.9078 13.5378 15.524 13.7646C15.1415 13.9913 14.8032 14.2626 14.5089 14.5773C14.2147 14.8932 13.9787 15.2409 13.7981 15.618C13.7739 15.6664 13.7398 15.7072 13.6972 15.7428C13.6545 15.7785 13.6062 15.8053 13.5508 15.8244C13.4967 15.8435 13.4399 15.8511 13.3816 15.8511C13.3233 15.8498 13.2664 15.8384 13.2124 15.818C13.1598 15.7976 13.1115 15.7683 13.0702 15.7314C13.029 15.6944 12.9977 15.6511 12.975 15.604C12.9522 15.5556 12.9409 15.5046 12.9395 15.4524C12.9395 15.4002 12.9494 15.3505 12.9707 15.3008C13.0774 15.0766 13.201 14.8613 13.3432 14.6537C13.4854 14.4461 13.6432 14.2486 13.818 14.0614C13.9915 13.8741 14.1805 13.6996 14.3838 13.5366C14.5857 13.3735 14.8018 13.2257 15.0278 13.0907C15.2553 12.957 15.4927 12.8385 15.7386 12.7353C15.986 12.6309 16.239 12.5442 16.5006 12.4742C16.7608 12.4041 17.0266 12.3519 17.2953 12.3162C17.5654 12.2806 17.8355 12.2627 18.1085 12.2627C18.38 12.2627 18.6515 12.2806 18.9217 12.3162C19.1903 12.3519 19.4562 12.4041 19.7163 12.4742C19.9765 12.5442 20.231 12.6309 20.4769 12.7353C20.7243 12.8385 20.9617 12.957 21.1877 13.0907C21.4152 13.2257 21.6298 13.3735 21.8331 13.5366C22.0364 13.6996 22.2241 13.8741 22.3989 14.0614C22.5738 14.2486 22.7316 14.4461 22.8738 14.6537C23.0145 14.8613 23.1396 15.0766 23.2462 15.3008C23.2761 15.3632 23.2875 15.4282 23.2804 15.4957C23.2732 15.5632 23.2491 15.6256 23.2078 15.6817C23.1666 15.739 23.1112 15.7823 23.0444 15.8154C22.9775 15.8473 22.9065 15.8626 22.8311 15.8626Z" fill="black"/>
<path d="M22.8311 15.8626C22.7416 15.8626 22.6577 15.8409 22.5823 15.7963C22.507 15.7518 22.4515 15.6932 22.416 15.618C22.2369 15.2409 22.0009 14.8932 21.7066 14.5773C21.4123 14.2626 21.074 13.9913 20.6916 13.7646C20.3077 13.5378 19.8969 13.3646 19.4562 13.2461C19.0169 13.1289 18.5677 13.0691 18.1071 13.0691C17.6479 13.0691 17.1986 13.1289 16.7594 13.2461C16.3187 13.3646 15.9078 13.5378 15.524 13.7646C15.1415 13.9913 14.8032 14.2626 14.5089 14.5773C14.2147 14.8932 13.9787 15.2409 13.7981 15.618C13.7739 15.6664 13.7398 15.7072 13.6972 15.7428C13.6545 15.7785 13.6062 15.8053 13.5508 15.8244C13.4967 15.8435 13.4399 15.8511 13.3816 15.8511C13.3233 15.8498 13.2664 15.8384 13.2124 15.818C13.1598 15.7976 13.1115 15.7683 13.0702 15.7314C13.029 15.6944 12.9977 15.6511 12.975 15.604C12.9522 15.5556 12.9409 15.5046 12.9395 15.4524C12.9395 15.4002 12.9494 15.3505 12.9707 15.3008C13.0774 15.0766 13.201 14.8613 13.3432 14.6537C13.4854 14.4461 13.6432 14.2486 13.818 14.0614C13.9915 13.8741 14.1805 13.6996 14.3838 13.5366C14.5857 13.3735 14.8018 13.2257 15.0278 13.0907C15.2553 12.957 15.4927 12.8385 15.7386 12.7353C15.986 12.6309 16.239 12.5442 16.5006 12.4742C16.7608 12.4041 17.0266 12.3519 17.2953 12.3162C17.5654 12.2806 17.8355 12.2627 18.1085 12.2627C18.38 12.2627 18.6515 12.2806 18.9217 12.3162C19.1903 12.3519 19.4562 12.4041 19.7163 12.4742C19.9765 12.5442 20.231 12.6309 20.4769 12.7353C20.7243 12.8385 20.9617 12.957 21.1877 13.0907C21.4152 13.2257 21.6298 13.3735 21.8331 13.5366C22.0364 13.6996 22.2241 13.8741 22.3989 14.0614C22.5738 14.2486 22.7316 14.4461 22.8738 14.6537C23.0145 14.8613 23.1396 15.0766 23.2462 15.3008C23.2761 15.3632 23.2875 15.4282 23.2804 15.4957C23.2732 15.5632 23.2491 15.6256 23.2078 15.6817C23.1666 15.739 23.1112 15.7823 23.0444 15.8154C22.9775 15.8473 22.9065 15.8626 22.8311 15.8626Z" stroke="black" stroke-width="0.514286" mask="url(#path-7-outside-3_3013_54966)"/>
</g>
<g id="Group_3">
<g id="Vector_4">
<mask id="path-8-outside-4_3013_54966" maskUnits="userSpaceOnUse" x="20.4966" y="22.4313" width="8" height="8" fill="black">
<rect fill="white" x="20.4966" y="22.4313" width="8" height="8"/>
<path d="M25.6776 29.8261H25.6733L21.9472 29.8197C21.8875 29.8197 21.8292 29.8095 21.7738 29.7892C21.7198 29.7688 21.67 29.7395 21.6288 29.7013C21.5861 29.6631 21.5534 29.6197 21.5307 29.5701C21.508 29.5217 21.4966 29.4694 21.4966 29.4159C21.4966 29.3624 21.508 29.3115 21.5307 29.2618C21.5534 29.2134 21.5861 29.1688 21.6288 29.1319C21.67 29.0936 21.7198 29.0644 21.7738 29.044C21.8292 29.0236 21.8875 29.0134 21.9472 29.0134L25.6733 29.0198H25.6762C25.8482 29.0198 26.0131 28.9905 26.1723 28.9319C26.3315 28.8733 26.4723 28.7892 26.5945 28.6797C26.7168 28.5714 26.8106 28.4453 26.876 28.3026C26.9414 28.1612 26.9741 28.0122 26.9741 27.858V25.7804C26.9741 25.5932 26.9272 25.4161 26.8305 25.2492C26.7353 25.0836 26.6016 24.9448 26.4325 24.8365L25.389 24.1665C25.3392 24.1359 25.298 24.0977 25.2653 24.0518C25.2326 24.006 25.2113 23.9576 25.1999 23.9041C25.19 23.8505 25.1914 23.797 25.2056 23.7448C25.2184 23.6926 25.2426 23.6442 25.2781 23.5996C25.3136 23.5563 25.3563 23.5194 25.4075 23.4913C25.4587 23.4633 25.5155 23.4442 25.5752 23.4366C25.6349 23.4276 25.6932 23.4302 25.7529 23.4429C25.8112 23.4557 25.8652 23.4786 25.9136 23.5104L26.9585 24.1792C27.2471 24.3652 27.4717 24.5983 27.6337 24.8798C27.7958 25.1626 27.8783 25.4619 27.8783 25.7791V27.858C27.8783 27.9867 27.864 28.1153 27.8356 28.2415C27.8072 28.3688 27.7659 28.4911 27.7105 28.6109C27.6551 28.7293 27.5882 28.8427 27.5072 28.951C27.4276 29.058 27.3366 29.1573 27.2343 29.2491C27.1319 29.3408 27.021 29.4223 26.9002 29.4936C26.7808 29.565 26.6528 29.6261 26.5192 29.6758C26.387 29.7242 26.2491 29.7624 26.1069 29.7866C25.9647 29.8121 25.8226 29.8248 25.6776 29.8248V29.8261Z"/>
</mask>
<path d="M25.6776 29.8261H25.6733L21.9472 29.8197C21.8875 29.8197 21.8292 29.8095 21.7738 29.7892C21.7198 29.7688 21.67 29.7395 21.6288 29.7013C21.5861 29.6631 21.5534 29.6197 21.5307 29.5701C21.508 29.5217 21.4966 29.4694 21.4966 29.4159C21.4966 29.3624 21.508 29.3115 21.5307 29.2618C21.5534 29.2134 21.5861 29.1688 21.6288 29.1319C21.67 29.0936 21.7198 29.0644 21.7738 29.044C21.8292 29.0236 21.8875 29.0134 21.9472 29.0134L25.6733 29.0198H25.6762C25.8482 29.0198 26.0131 28.9905 26.1723 28.9319C26.3315 28.8733 26.4723 28.7892 26.5945 28.6797C26.7168 28.5714 26.8106 28.4453 26.876 28.3026C26.9414 28.1612 26.9741 28.0122 26.9741 27.858V25.7804C26.9741 25.5932 26.9272 25.4161 26.8305 25.2492C26.7353 25.0836 26.6016 24.9448 26.4325 24.8365L25.389 24.1665C25.3392 24.1359 25.298 24.0977 25.2653 24.0518C25.2326 24.006 25.2113 23.9576 25.1999 23.9041C25.19 23.8505 25.1914 23.797 25.2056 23.7448C25.2184 23.6926 25.2426 23.6442 25.2781 23.5996C25.3136 23.5563 25.3563 23.5194 25.4075 23.4913C25.4587 23.4633 25.5155 23.4442 25.5752 23.4366C25.6349 23.4276 25.6932 23.4302 25.7529 23.4429C25.8112 23.4557 25.8652 23.4786 25.9136 23.5104L26.9585 24.1792C27.2471 24.3652 27.4717 24.5983 27.6337 24.8798C27.7958 25.1626 27.8783 25.4619 27.8783 25.7791V27.858C27.8783 27.9867 27.864 28.1153 27.8356 28.2415C27.8072 28.3688 27.7659 28.4911 27.7105 28.6109C27.6551 28.7293 27.5882 28.8427 27.5072 28.951C27.4276 29.058 27.3366 29.1573 27.2343 29.2491C27.1319 29.3408 27.021 29.4223 26.9002 29.4936C26.7808 29.565 26.6528 29.6261 26.5192 29.6758C26.387 29.7242 26.2491 29.7624 26.1069 29.7866C25.9647 29.8121 25.8226 29.8248 25.6776 29.8248V29.8261Z" fill="black"/>
<path d="M25.6776 29.8261H25.6733L21.9472 29.8197C21.8875 29.8197 21.8292 29.8095 21.7738 29.7892C21.7198 29.7688 21.67 29.7395 21.6288 29.7013C21.5861 29.6631 21.5534 29.6197 21.5307 29.5701C21.508 29.5217 21.4966 29.4694 21.4966 29.4159C21.4966 29.3624 21.508 29.3115 21.5307 29.2618C21.5534 29.2134 21.5861 29.1688 21.6288 29.1319C21.67 29.0936 21.7198 29.0644 21.7738 29.044C21.8292 29.0236 21.8875 29.0134 21.9472 29.0134L25.6733 29.0198H25.6762C25.8482 29.0198 26.0131 28.9905 26.1723 28.9319C26.3315 28.8733 26.4723 28.7892 26.5945 28.6797C26.7168 28.5714 26.8106 28.4453 26.876 28.3026C26.9414 28.1612 26.9741 28.0122 26.9741 27.858V25.7804C26.9741 25.5932 26.9272 25.4161 26.8305 25.2492C26.7353 25.0836 26.6016 24.9448 26.4325 24.8365L25.389 24.1665C25.3392 24.1359 25.298 24.0977 25.2653 24.0518C25.2326 24.006 25.2113 23.9576 25.1999 23.9041C25.19 23.8505 25.1914 23.797 25.2056 23.7448C25.2184 23.6926 25.2426 23.6442 25.2781 23.5996C25.3136 23.5563 25.3563 23.5194 25.4075 23.4913C25.4587 23.4633 25.5155 23.4442 25.5752 23.4366C25.6349 23.4276 25.6932 23.4302 25.7529 23.4429C25.8112 23.4557 25.8652 23.4786 25.9136 23.5104L26.9585 24.1792C27.2471 24.3652 27.4717 24.5983 27.6337 24.8798C27.7958 25.1626 27.8783 25.4619 27.8783 25.7791V27.858C27.8783 27.9867 27.864 28.1153 27.8356 28.2415C27.8072 28.3688 27.7659 28.4911 27.7105 28.6109C27.6551 28.7293 27.5882 28.8427 27.5072 28.951C27.4276 29.058 27.3366 29.1573 27.2343 29.2491C27.1319 29.3408 27.021 29.4223 26.9002 29.4936C26.7808 29.565 26.6528 29.6261 26.5192 29.6758C26.387 29.7242 26.2491 29.7624 26.1069 29.7866C25.9647 29.8121 25.8226 29.8248 25.6776 29.8248V29.8261Z" stroke="black" stroke-width="0.514286" mask="url(#path-8-outside-4_3013_54966)"/>
</g>
</g>
<g id="Group_4">
<g id="Vector_5">
<mask id="path-9-outside-5_3013_54966" maskUnits="userSpaceOnUse" x="7.22852" y="22.4221" width="8" height="8" fill="black">
<rect fill="white" x="7.22852" y="22.4221" width="8" height="8"/>
<path d="M10.4207 29.8261C10.2771 29.8261 10.1349 29.8133 9.99275 29.7879C9.85201 29.7637 9.71411 29.7254 9.5819 29.677C9.44827 29.6274 9.32175 29.5675 9.20233 29.4949C9.08291 29.4236 8.97203 29.342 8.86967 29.2516C8.76873 29.1599 8.67775 29.0618 8.59814 28.9548C8.51711 28.8478 8.45029 28.7344 8.39485 28.6147C8.34082 28.4962 8.29818 28.3739 8.27116 28.2478C8.24273 28.1204 8.22852 27.993 8.22852 27.8644V25.7778C8.22852 25.4619 8.30955 25.1638 8.47161 24.8823C8.63368 24.6008 8.8583 24.369 9.14546 24.1843L10.1932 23.513C10.2415 23.4773 10.2956 23.4531 10.3553 23.4378C10.415 23.4225 10.4761 23.4187 10.5372 23.4251C10.5998 23.4327 10.6567 23.4505 10.7107 23.4798C10.7633 23.5079 10.8088 23.5448 10.8443 23.5894C10.8813 23.6352 10.9054 23.6849 10.9182 23.7397C10.9324 23.7932 10.9324 23.848 10.9211 23.9028C10.9097 23.9575 10.8855 24.0072 10.85 24.0531C10.8159 24.0989 10.7718 24.1359 10.7192 24.1664L9.67004 24.8377C9.50087 24.946 9.36866 25.0836 9.27341 25.2492C9.17816 25.4148 9.12983 25.5919 9.13125 25.7778V27.8669C9.13125 28.0211 9.16395 28.1676 9.22934 28.3089C9.29473 28.4503 9.38714 28.5752 9.50798 28.6835C9.63024 28.7917 9.76956 28.8758 9.92736 28.9344C10.0852 28.993 10.2501 29.0223 10.4207 29.0223H10.4235L14.1595 29.0159C14.2192 29.0159 14.2775 29.0261 14.3316 29.0465C14.387 29.0669 14.4368 29.0962 14.478 29.1344C14.5206 29.1713 14.5533 29.2159 14.5761 29.2643C14.5988 29.314 14.6102 29.3662 14.6102 29.4197C14.6102 29.472 14.5988 29.5242 14.5761 29.5739C14.5533 29.6223 14.5206 29.6669 14.478 29.7038C14.4368 29.742 14.387 29.7713 14.3316 29.7917C14.2775 29.8121 14.2192 29.8223 14.1595 29.8223L10.4235 29.8286L10.4207 29.8261Z"/>
</mask>
<path d="M10.4207 29.8261C10.2771 29.8261 10.1349 29.8133 9.99275 29.7879C9.85201 29.7637 9.71411 29.7254 9.5819 29.677C9.44827 29.6274 9.32175 29.5675 9.20233 29.4949C9.08291 29.4236 8.97203 29.342 8.86967 29.2516C8.76873 29.1599 8.67775 29.0618 8.59814 28.9548C8.51711 28.8478 8.45029 28.7344 8.39485 28.6147C8.34082 28.4962 8.29818 28.3739 8.27116 28.2478C8.24273 28.1204 8.22852 27.993 8.22852 27.8644V25.7778C8.22852 25.4619 8.30955 25.1638 8.47161 24.8823C8.63368 24.6008 8.8583 24.369 9.14546 24.1843L10.1932 23.513C10.2415 23.4773 10.2956 23.4531 10.3553 23.4378C10.415 23.4225 10.4761 23.4187 10.5372 23.4251C10.5998 23.4327 10.6567 23.4505 10.7107 23.4798C10.7633 23.5079 10.8088 23.5448 10.8443 23.5894C10.8813 23.6352 10.9054 23.6849 10.9182 23.7397C10.9324 23.7932 10.9324 23.848 10.9211 23.9028C10.9097 23.9575 10.8855 24.0072 10.85 24.0531C10.8159 24.0989 10.7718 24.1359 10.7192 24.1664L9.67004 24.8377C9.50087 24.946 9.36866 25.0836 9.27341 25.2492C9.17816 25.4148 9.12983 25.5919 9.13125 25.7778V27.8669C9.13125 28.0211 9.16395 28.1676 9.22934 28.3089C9.29473 28.4503 9.38714 28.5752 9.50798 28.6835C9.63024 28.7917 9.76956 28.8758 9.92736 28.9344C10.0852 28.993 10.2501 29.0223 10.4207 29.0223H10.4235L14.1595 29.0159C14.2192 29.0159 14.2775 29.0261 14.3316 29.0465C14.387 29.0669 14.4368 29.0962 14.478 29.1344C14.5206 29.1713 14.5533 29.2159 14.5761 29.2643C14.5988 29.314 14.6102 29.3662 14.6102 29.4197C14.6102 29.472 14.5988 29.5242 14.5761 29.5739C14.5533 29.6223 14.5206 29.6669 14.478 29.7038C14.4368 29.742 14.387 29.7713 14.3316 29.7917C14.2775 29.8121 14.2192 29.8223 14.1595 29.8223L10.4235 29.8286L10.4207 29.8261Z" fill="black"/>
<path d="M10.4207 29.8261C10.2771 29.8261 10.1349 29.8133 9.99275 29.7879C9.85201 29.7637 9.71411 29.7254 9.5819 29.677C9.44827 29.6274 9.32175 29.5675 9.20233 29.4949C9.08291 29.4236 8.97203 29.342 8.86967 29.2516C8.76873 29.1599 8.67775 29.0618 8.59814 28.9548C8.51711 28.8478 8.45029 28.7344 8.39485 28.6147C8.34082 28.4962 8.29818 28.3739 8.27116 28.2478C8.24273 28.1204 8.22852 27.993 8.22852 27.8644V25.7778C8.22852 25.4619 8.30955 25.1638 8.47161 24.8823C8.63368 24.6008 8.8583 24.369 9.14546 24.1843L10.1932 23.513C10.2415 23.4773 10.2956 23.4531 10.3553 23.4378C10.415 23.4225 10.4761 23.4187 10.5372 23.4251C10.5998 23.4327 10.6567 23.4505 10.7107 23.4798C10.7633 23.5079 10.8088 23.5448 10.8443 23.5894C10.8813 23.6352 10.9054 23.6849 10.9182 23.7397C10.9324 23.7932 10.9324 23.848 10.9211 23.9028C10.9097 23.9575 10.8855 24.0072 10.85 24.0531C10.8159 24.0989 10.7718 24.1359 10.7192 24.1664L9.67004 24.8377C9.50087 24.946 9.36866 25.0836 9.27341 25.2492C9.17816 25.4148 9.12983 25.5919 9.13125 25.7778V27.8669C9.13125 28.0211 9.16395 28.1676 9.22934 28.3089C9.29473 28.4503 9.38714 28.5752 9.50798 28.6835C9.63024 28.7917 9.76956 28.8758 9.92736 28.9344C10.0852 28.993 10.2501 29.0223 10.4207 29.0223H10.4235L14.1595 29.0159C14.2192 29.0159 14.2775 29.0261 14.3316 29.0465C14.387 29.0669 14.4368 29.0962 14.478 29.1344C14.5206 29.1713 14.5533 29.2159 14.5761 29.2643C14.5988 29.314 14.6102 29.3662 14.6102 29.4197C14.6102 29.472 14.5988 29.5242 14.5761 29.5739C14.5533 29.6223 14.5206 29.6669 14.478 29.7038C14.4368 29.742 14.387 29.7713 14.3316 29.7917C14.2775 29.8121 14.2192 29.8223 14.1595 29.8223L10.4235 29.8286L10.4207 29.8261Z" stroke="black" stroke-width="0.514286" mask="url(#path-9-outside-5_3013_54966)"/>
</g>
</g>
<g id="Vector_6">
<mask id="path-10-outside-6_3013_54966" maskUnits="userSpaceOnUse" x="11.9341" y="19.6472" width="12" height="8" fill="black">
<rect fill="white" x="11.9341" y="19.6472" width="12" height="8"/>
<path d="M22.8314 27.0342H13.3847C13.325 27.0342 13.2682 27.024 13.2127 27.0036C13.1573 26.9832 13.1089 26.9539 13.0663 26.917C13.0236 26.8788 12.9924 26.8354 12.9682 26.7858C12.9455 26.7361 12.9341 26.6851 12.9341 26.6316V21.0497C12.9341 20.9962 12.9455 20.9452 12.9682 20.8956C12.9924 20.8471 13.0236 20.8026 13.0663 20.7656C13.1089 20.7274 13.1573 20.6981 13.2127 20.6777C13.2682 20.6573 13.325 20.6472 13.3847 20.6472H22.8314C22.8911 20.6472 22.9494 20.6573 23.0035 20.6777C23.0589 20.6981 23.1087 20.7274 23.1499 20.7656C23.1925 20.8026 23.2252 20.8471 23.248 20.8956C23.2707 20.9452 23.2821 20.9962 23.2821 21.0497V26.6316C23.2821 26.6851 23.2707 26.7361 23.248 26.7858C23.2252 26.8354 23.1925 26.8788 23.1499 26.917C23.1087 26.9539 23.0589 26.9832 23.0035 27.0036C22.9494 27.024 22.8911 27.0342 22.8314 27.0342ZM13.8354 26.2291H22.3808V21.4535H13.8354V26.2291Z"/>
</mask>
<path d="M22.8314 27.0342H13.3847C13.325 27.0342 13.2682 27.024 13.2127 27.0036C13.1573 26.9832 13.1089 26.9539 13.0663 26.917C13.0236 26.8788 12.9924 26.8354 12.9682 26.7858C12.9455 26.7361 12.9341 26.6851 12.9341 26.6316V21.0497C12.9341 20.9962 12.9455 20.9452 12.9682 20.8956C12.9924 20.8471 13.0236 20.8026 13.0663 20.7656C13.1089 20.7274 13.1573 20.6981 13.2127 20.6777C13.2682 20.6573 13.325 20.6472 13.3847 20.6472H22.8314C22.8911 20.6472 22.9494 20.6573 23.0035 20.6777C23.0589 20.6981 23.1087 20.7274 23.1499 20.7656C23.1925 20.8026 23.2252 20.8471 23.248 20.8956C23.2707 20.9452 23.2821 20.9962 23.2821 21.0497V26.6316C23.2821 26.6851 23.2707 26.7361 23.248 26.7858C23.2252 26.8354 23.1925 26.8788 23.1499 26.917C23.1087 26.9539 23.0589 26.9832 23.0035 27.0036C22.9494 27.024 22.8911 27.0342 22.8314 27.0342ZM13.8354 26.2291H22.3808V21.4535H13.8354V26.2291Z" fill="black"/>
<path d="M22.8314 27.0342H13.3847C13.325 27.0342 13.2682 27.024 13.2127 27.0036C13.1573 26.9832 13.1089 26.9539 13.0663 26.917C13.0236 26.8788 12.9924 26.8354 12.9682 26.7858C12.9455 26.7361 12.9341 26.6851 12.9341 26.6316V21.0497C12.9341 20.9962 12.9455 20.9452 12.9682 20.8956C12.9924 20.8471 13.0236 20.8026 13.0663 20.7656C13.1089 20.7274 13.1573 20.6981 13.2127 20.6777C13.2682 20.6573 13.325 20.6472 13.3847 20.6472H22.8314C22.8911 20.6472 22.9494 20.6573 23.0035 20.6777C23.0589 20.6981 23.1087 20.7274 23.1499 20.7656C23.1925 20.8026 23.2252 20.8471 23.248 20.8956C23.2707 20.9452 23.2821 20.9962 23.2821 21.0497V26.6316C23.2821 26.6851 23.2707 26.7361 23.248 26.7858C23.2252 26.8354 23.1925 26.8788 23.1499 26.917C23.1087 26.9539 23.0589 26.9832 23.0035 27.0036C22.9494 27.024 22.8911 27.0342 22.8314 27.0342ZM13.8354 26.2291H22.3808V21.4535H13.8354V26.2291Z" stroke="black" stroke-width="0.514286" mask="url(#path-10-outside-6_3013_54966)"/>
</g>
<g id="Vector_7">
<mask id="path-11-outside-7_3013_54966" maskUnits="userSpaceOnUse" x="13.478" y="21.5334" width="9" height="3" fill="black">
<rect fill="white" x="13.478" y="21.5334" width="9" height="3"/>
<path d="M21.1781 23.3398H14.9287C14.869 23.3398 14.8107 23.3296 14.7567 23.3092C14.7012 23.2876 14.6515 23.2595 14.6102 23.2213C14.5676 23.1831 14.5349 23.1398 14.5121 23.0901C14.4894 23.0417 14.478 22.9895 14.478 22.936C14.478 22.8825 14.4894 22.8315 14.5121 22.7818C14.5349 22.7322 14.5676 22.6889 14.6102 22.6519C14.6515 22.6137 14.7012 22.5844 14.7567 22.564C14.8107 22.5436 14.869 22.5334 14.9287 22.5334H21.1781C21.2393 22.5334 21.2961 22.5436 21.3516 22.564C21.407 22.5844 21.4554 22.6137 21.498 22.6519C21.5392 22.6889 21.5719 22.7322 21.5947 22.7818C21.6174 22.8315 21.6302 22.8825 21.6302 22.936C21.6302 22.9895 21.6174 23.0417 21.5947 23.0901C21.5719 23.1398 21.5392 23.1831 21.498 23.2213C21.4554 23.2595 21.407 23.2876 21.3516 23.3092C21.2961 23.3296 21.2393 23.3398 21.1781 23.3398Z"/>
</mask>
<path d="M21.1781 23.3398H14.9287C14.869 23.3398 14.8107 23.3296 14.7567 23.3092C14.7012 23.2876 14.6515 23.2595 14.6102 23.2213C14.5676 23.1831 14.5349 23.1398 14.5121 23.0901C14.4894 23.0417 14.478 22.9895 14.478 22.936C14.478 22.8825 14.4894 22.8315 14.5121 22.7818C14.5349 22.7322 14.5676 22.6889 14.6102 22.6519C14.6515 22.6137 14.7012 22.5844 14.7567 22.564C14.8107 22.5436 14.869 22.5334 14.9287 22.5334H21.1781C21.2393 22.5334 21.2961 22.5436 21.3516 22.564C21.407 22.5844 21.4554 22.6137 21.498 22.6519C21.5392 22.6889 21.5719 22.7322 21.5947 22.7818C21.6174 22.8315 21.6302 22.8825 21.6302 22.936C21.6302 22.9895 21.6174 23.0417 21.5947 23.0901C21.5719 23.1398 21.5392 23.1831 21.498 23.2213C21.4554 23.2595 21.407 23.2876 21.3516 23.3092C21.2961 23.3296 21.2393 23.3398 21.1781 23.3398Z" fill="black"/>
<path d="M21.1781 23.3398H14.9287C14.869 23.3398 14.8107 23.3296 14.7567 23.3092C14.7012 23.2876 14.6515 23.2595 14.6102 23.2213C14.5676 23.1831 14.5349 23.1398 14.5121 23.0901C14.4894 23.0417 14.478 22.9895 14.478 22.936C14.478 22.8825 14.4894 22.8315 14.5121 22.7818C14.5349 22.7322 14.5676 22.6889 14.6102 22.6519C14.6515 22.6137 14.7012 22.5844 14.7567 22.564C14.8107 22.5436 14.869 22.5334 14.9287 22.5334H21.1781C21.2393 22.5334 21.2961 22.5436 21.3516 22.564C21.407 22.5844 21.4554 22.6137 21.498 22.6519C21.5392 22.6889 21.5719 22.7322 21.5947 22.7818C21.6174 22.8315 21.6302 22.8825 21.6302 22.936C21.6302 22.9895 21.6174 23.0417 21.5947 23.0901C21.5719 23.1398 21.5392 23.1831 21.498 23.2213C21.4554 23.2595 21.407 23.2876 21.3516 23.3092C21.2961 23.3296 21.2393 23.3398 21.1781 23.3398Z" stroke="black" stroke-width="0.514286" mask="url(#path-11-outside-7_3013_54966)"/>
</g>
<g id="Vector_8">
<mask id="path-12-outside-8_3013_54966" maskUnits="userSpaceOnUse" x="11.9341" y="15.8803" width="12" height="3" fill="black">
<rect fill="white" x="11.9341" y="15.8803" width="12" height="3"/>
<path d="M22.8314 17.6867H13.3847C13.325 17.6867 13.2682 17.6765 13.2127 17.6561C13.1573 17.6357 13.1089 17.6064 13.0663 17.5682C13.0236 17.5313 12.9924 17.4867 12.9682 17.4383C12.9455 17.3886 12.9341 17.3376 12.9341 17.2841C12.9341 17.2306 12.9455 17.1784 12.9682 17.13C12.9924 17.0803 13.0236 17.037 13.0663 16.9988C13.1089 16.9606 13.1573 16.9313 13.2127 16.9109C13.2682 16.8905 13.325 16.8803 13.3847 16.8803H22.8314C22.8911 16.8803 22.9494 16.8905 23.0035 16.9109C23.0589 16.9313 23.1087 16.9606 23.1499 16.9988C23.1925 17.037 23.2252 17.0803 23.248 17.13C23.2707 17.1784 23.2821 17.2306 23.2821 17.2841C23.2821 17.3376 23.2707 17.3886 23.248 17.4383C23.2252 17.4867 23.1925 17.5313 23.1499 17.5682C23.1087 17.6064 23.0589 17.6357 23.0035 17.6561C22.9494 17.6765 22.8911 17.6867 22.8314 17.6867Z"/>
</mask>
<path d="M22.8314 17.6867H13.3847C13.325 17.6867 13.2682 17.6765 13.2127 17.6561C13.1573 17.6357 13.1089 17.6064 13.0663 17.5682C13.0236 17.5313 12.9924 17.4867 12.9682 17.4383C12.9455 17.3886 12.9341 17.3376 12.9341 17.2841C12.9341 17.2306 12.9455 17.1784 12.9682 17.13C12.9924 17.0803 13.0236 17.037 13.0663 16.9988C13.1089 16.9606 13.1573 16.9313 13.2127 16.9109C13.2682 16.8905 13.325 16.8803 13.3847 16.8803H22.8314C22.8911 16.8803 22.9494 16.8905 23.0035 16.9109C23.0589 16.9313 23.1087 16.9606 23.1499 16.9988C23.1925 17.037 23.2252 17.0803 23.248 17.13C23.2707 17.1784 23.2821 17.2306 23.2821 17.2841C23.2821 17.3376 23.2707 17.3886 23.248 17.4383C23.2252 17.4867 23.1925 17.5313 23.1499 17.5682C23.1087 17.6064 23.0589 17.6357 23.0035 17.6561C22.9494 17.6765 22.8911 17.6867 22.8314 17.6867Z" fill="black"/>
<path d="M22.8314 17.6867H13.3847C13.325 17.6867 13.2682 17.6765 13.2127 17.6561C13.1573 17.6357 13.1089 17.6064 13.0663 17.5682C13.0236 17.5313 12.9924 17.4867 12.9682 17.4383C12.9455 17.3886 12.9341 17.3376 12.9341 17.2841C12.9341 17.2306 12.9455 17.1784 12.9682 17.13C12.9924 17.0803 13.0236 17.037 13.0663 16.9988C13.1089 16.9606 13.1573 16.9313 13.2127 16.9109C13.2682 16.8905 13.325 16.8803 13.3847 16.8803H22.8314C22.8911 16.8803 22.9494 16.8905 23.0035 16.9109C23.0589 16.9313 23.1087 16.9606 23.1499 16.9988C23.1925 17.037 23.2252 17.0803 23.248 17.13C23.2707 17.1784 23.2821 17.2306 23.2821 17.2841C23.2821 17.3376 23.2707 17.3886 23.248 17.4383C23.2252 17.4867 23.1925 17.5313 23.1499 17.5682C23.1087 17.6064 23.0589 17.6357 23.0035 17.6561C22.9494 17.6765 22.8911 17.6867 22.8314 17.6867Z" stroke="black" stroke-width="0.514286" mask="url(#path-12-outside-8_3013_54966)"/>
</g>
</g>
</g>
</g>
</svg>
