<svg width="60" height="60" viewBox="0 0 36 36" fill="none" xmlns="http://www.w3.org/2000/svg">
<g id="exam">
<g id="Group 1171274920">
<path id="Vector" d="M25.8494 14.5562V22.2026C25.8494 22.6488 25.7301 22.993 25.4915 23.2353C25.253 23.4777 24.9007 23.5985 24.4349 23.5978H22.9517V19.7075C22.9555 19.3848 22.9347 19.0623 22.8893 18.7427C22.8505 18.4901 22.7671 18.2465 22.6428 18.0232C22.5204 17.8055 22.3401 17.5744 22.1017 17.33L17.1745 12.3115C16.8352 11.9598 16.5012 11.7302 16.1724 11.6229C15.8437 11.5156 15.4294 11.4619 14.9294 11.4619H14.7776V9.83397C14.7776 9.38782 14.895 9.04358 15.1298 8.80125C15.3647 8.55892 15.715 8.43811 16.1809 8.43882H20.1346V13.0269C20.1346 13.5456 20.2614 13.9301 20.515 14.1804C20.7686 14.4307 21.1516 14.556 21.6639 14.5562H25.8494ZM16.4591 19.779C15.9047 19.779 15.4858 19.6388 15.2024 19.3584C14.919 19.0781 14.7774 18.6548 14.7776 18.0887V12.9015H11.8443C11.3794 12.9015 11.0292 13.0223 10.7936 13.2639C10.5581 13.5055 10.4407 13.8468 10.4414 14.2878V26.6653C10.4414 27.1114 10.5588 27.4557 10.7936 27.698C11.0284 27.9403 11.3757 28.0612 11.8355 28.0604H20.1078C20.5666 28.0604 20.9155 27.9396 21.1543 27.698C21.3931 27.4564 21.5124 27.1121 21.5121 26.6653V19.779H16.4591Z" fill="#FFA600"/>
<path id="Vector_2" d="M22.8889 18.7427C22.8501 18.4901 22.7666 18.2464 22.6423 18.0231C22.52 17.8054 22.3396 17.5744 22.1013 17.3299L17.174 12.3115C16.8347 11.9597 16.5007 11.7302 16.172 11.6229C15.8432 11.5156 15.4289 11.4619 14.929 11.4619H11.7723C10.8481 11.4619 10.1554 11.6967 9.69423 12.1663C9.23305 12.636 9.00164 13.337 9 14.2695V26.692C9 27.6278 9.23106 28.3297 9.69317 28.798C10.1553 29.2662 10.848 29.5002 11.7713 29.4999H20.1789C21.1031 29.4999 21.7958 29.2651 22.257 28.7955C22.7181 28.3259 22.9491 27.6253 22.9498 26.6938V19.7074C22.9541 19.3848 22.9338 19.0623 22.8889 18.7427ZM16.1262 13.2339L21.2334 18.4299H16.6299C16.4509 18.4299 16.3227 18.3912 16.2452 18.3137C16.1677 18.2362 16.129 18.108 16.129 17.9291L16.1262 13.2339ZM21.5117 26.6652C21.5117 27.1114 21.3924 27.4556 21.1538 27.698C20.9152 27.9403 20.5664 28.0611 20.1074 28.0604H11.835C11.3757 28.0604 11.0285 27.9396 10.7932 27.698C10.5579 27.4563 10.4405 27.1121 10.4409 26.6652V14.2878C10.4409 13.8466 10.5584 13.5053 10.7932 13.2639C11.028 13.0225 11.3782 12.9017 11.8438 12.9014H14.7772V18.0886C14.7772 18.655 14.9188 19.0782 15.2019 19.3584C15.4851 19.6385 15.904 19.7787 16.4587 19.7789H21.5117V26.6652ZM27.0909 13.5724C26.9599 13.1911 26.7274 12.8271 26.3935 12.4805L21.878 7.89423C21.5617 7.56549 21.2129 7.33443 20.8315 7.20106C20.4502 7.06768 20.0179 7.00064 19.5346 6.99994H16.11C15.1857 6.99994 14.493 7.23475 14.0319 7.70438C13.5707 8.17402 13.3397 8.87459 13.339 9.8061V11.9525H14.7772V9.83392C14.7772 9.38778 14.8946 9.04354 15.1294 8.80121C15.3642 8.55888 15.7145 8.43806 16.1804 8.43877H20.1341V13.0268C20.1341 13.5455 20.2609 13.93 20.5145 14.1804C20.7681 14.4307 21.1511 14.5559 21.6635 14.5562H25.8489V22.2026C25.8489 22.6487 25.7297 22.993 25.4911 23.2353C25.2525 23.4776 24.9003 23.5984 24.4344 23.5977H22.6733V25.0373H24.5158C25.4398 25.0373 26.1325 24.8019 26.5939 24.3311C27.0553 23.8603 27.2869 23.1598 27.2888 22.2297V14.9676C27.2888 14.4188 27.2228 13.9538 27.0909 13.5724ZM21.8681 13.2593C21.7131 13.2593 21.6014 13.225 21.5328 13.1564C21.4642 13.0879 21.43 12.9731 21.43 12.812V9.14533L25.4724 13.2593H21.8681Z" fill="black"/>
</g>
</g>
</svg>
