<svg width="60" height="60" viewBox="0 0 36 36" fill="none" xmlns="http://www.w3.org/2000/svg">
<g id="generate-classes">
<g id="Group 1171274905">
<g id="Group 1171274903">
<circle id="Ellipse 2538" cx="16.0289" cy="14.2286" r="1.28571" fill="#FFA600"/>
<path id="person" d="M15.9148 16.0514C16.8264 16.0514 17.5647 15.2454 17.5647 14.2585C17.5647 13.2866 16.8264 12.5145 15.9148 12.5145C15.007 12.5145 14.2612 13.2979 14.265 14.266C14.2688 15.2491 15.0033 16.0514 15.9148 16.0514ZM15.9148 15.3923C15.395 15.3923 14.9543 14.8988 14.9543 14.266C14.9505 13.6483 15.3913 13.1736 15.9148 13.1736C16.4422 13.1736 16.8753 13.6407 16.8753 14.2585C16.8753 14.8913 16.4384 15.3923 15.9148 15.3923ZM13.5644 19.5545H18.2615C18.9132 19.5545 19.2258 19.3473 19.2258 18.9029C19.2258 17.867 17.9338 16.4884 15.9148 16.4884C13.8959 16.4884 12.6001 17.867 12.6001 18.9029C12.6001 19.3473 12.9127 19.5545 13.5644 19.5545ZM13.4476 18.8953C13.3572 18.8953 13.3233 18.8652 13.3233 18.7974C13.3233 18.2211 14.2537 17.1476 15.9148 17.1476C17.5722 17.1476 18.5026 18.2211 18.5026 18.7974C18.5026 18.8652 18.4687 18.8953 18.3783 18.8953H13.4476Z" fill="#1C1C1E" stroke="#1C1C1E" stroke-width="0.257143"/>
</g>
<path id="Subtract" fill-rule="evenodd" clip-rule="evenodd" d="M6.97496 8.22876H24.6535C24.8666 8.22876 25.071 8.31342 25.2217 8.46412C25.3724 8.61482 25.4571 8.81921 25.4571 9.03233V19.3927C25.3162 19.3787 25.1732 19.3715 25.0286 19.3715C24.6198 19.3715 24.2244 19.4287 23.85 19.5356V9.8359H7.77853V22.693H18.225V21.8895H21.1233C20.8789 22.4284 20.7429 23.0269 20.7429 23.6572C20.7429 23.8757 20.7592 24.0905 20.7908 24.3002H6.97496C6.76184 24.3002 6.55745 24.2155 6.40675 24.0648C6.25605 23.9141 6.17139 23.7097 6.17139 23.4966V9.03233C6.17139 8.81921 6.25605 8.61482 6.40675 8.46412C6.55745 8.31342 6.76184 8.22876 6.97496 8.22876Z" fill="#1C1C1E"/>
<g id="Group 1171274904">
<circle id="Ellipse 2540" cx="25.3786" cy="24.0068" r="3.46356" fill="#FFA600"/>
<path id="Vector" d="M25.4572 20.7797C27.2756 20.7797 28.7634 22.2674 28.7634 24.0858C28.7634 25.9041 27.2756 27.3919 25.4572 27.3919C23.6389 27.3919 22.1511 25.9041 22.1511 24.0858C22.1511 22.2674 23.6389 20.7797 25.4572 20.7797ZM25.4572 20.2286C23.3358 20.2286 21.6001 21.9644 21.6001 24.0858C21.6001 26.2072 23.3358 27.9429 25.4572 27.9429C27.5787 27.9429 29.3144 26.2072 29.3144 24.0858C29.3144 21.9644 27.5787 20.2286 25.4572 20.2286Z" fill="#1C1C1E" stroke="#1C1C1E" stroke-width="0.257143"/>
<path id="Vector_2" d="M27.6611 23.8104H25.7325V21.8818H25.1815V23.8104H23.2529V24.3614H25.1815V26.29H25.7325V24.3614H27.6611V23.8104Z" fill="#1C1C1E" stroke="#1C1C1E" stroke-width="0.257143"/>
</g>
</g>
</g>
</svg>
