<svg width="59" height="60" viewBox="0 0 36 37" fill="none" xmlns="http://www.w3.org/2000/svg">
<g id="grade">
<g id="Group 1171274935">
<path id="Vector" d="M27.1686 10.1419V27.1365C27.1686 27.5704 27.0484 27.8973 26.8082 28.1173C26.5679 28.3372 26.2254 28.4472 25.7808 28.4472H13.4282C13.6297 28.0799 13.7305 27.6596 13.7305 27.1863V10.1419C13.7305 9.7076 13.8506 9.37906 14.0909 9.15629C14.3312 8.93353 14.6734 8.82214 15.1175 8.82214H25.7808C26.2245 8.82214 26.5669 8.93353 26.8082 9.15629C27.0494 9.37906 27.1695 9.7076 27.1686 10.1419Z" fill="#FFA600"/>
<path id="Vector_2" d="M16.1417 14.3643C16.104 14.3582 16.0681 14.3439 16.0365 14.3224C16.005 14.3008 15.9786 14.2725 15.9592 14.2396C15.9179 14.1716 15.9148 14.0872 15.9505 13.9863L16.244 13.0792L15.4881 12.5188C15.4531 12.4947 15.4236 12.4636 15.4014 12.4274C15.3791 12.3912 15.3648 12.3507 15.3592 12.3086C15.3539 12.2712 15.3567 12.233 15.3674 12.1968C15.3781 12.1605 15.3964 12.127 15.4212 12.0984C15.4485 12.0682 15.4823 12.0444 15.52 12.029C15.5577 12.0136 15.5984 12.0069 15.6391 12.0095H16.582L16.893 11.0403C16.9005 11.001 16.9179 10.9643 16.9436 10.9336C16.9693 10.903 17.0024 10.8794 17.0398 10.8652C17.1103 10.8386 17.1883 10.8402 17.2577 10.8697C17.2939 10.8848 17.326 10.9085 17.3513 10.9386C17.3765 10.9687 17.3941 11.0044 17.4027 11.0428L17.7137 12.0119H18.6475C18.6882 12.0094 18.7289 12.0161 18.7666 12.0315C18.8043 12.0469 18.8381 12.0706 18.8654 12.1009C18.8902 12.1294 18.9087 12.1629 18.9194 12.1992C18.9302 12.2354 18.933 12.2736 18.9277 12.3111C18.9221 12.3532 18.9078 12.3936 18.8856 12.4298C18.8634 12.466 18.8338 12.4972 18.7988 12.5212L18.0517 13.0816L18.3452 13.9888C18.3802 14.0897 18.3778 14.1741 18.3365 14.242C18.3165 14.2754 18.2894 14.3038 18.2571 14.3254C18.2249 14.347 18.1882 14.3611 18.1498 14.3667C18.0664 14.3814 17.9806 14.3566 17.8916 14.2911L17.1536 13.7307L16.3887 14.2911C16.3039 14.3541 16.2223 14.379 16.1417 14.3643ZM16.1417 19.7268C16.104 19.7208 16.0681 19.7065 16.0366 19.685C16.005 19.6635 15.9786 19.6353 15.9592 19.6024C15.9179 19.5345 15.9148 19.4497 15.9505 19.3488L16.244 18.442L15.4881 17.8816C15.4537 17.8583 15.4244 17.828 15.4022 17.7928C15.3801 17.7576 15.3654 17.7182 15.3592 17.677C15.3543 17.6405 15.3572 17.6033 15.3679 17.568C15.3786 17.5327 15.3968 17.5001 15.4212 17.4725C15.4485 17.4422 15.4823 17.4185 15.52 17.4031C15.5577 17.3877 15.5984 17.381 15.6391 17.3835H16.582L16.893 16.4052C16.9022 16.3674 16.9203 16.3323 16.9458 16.3029C16.9714 16.2735 17.0036 16.2507 17.0398 16.2364C17.0742 16.2217 17.1113 16.2141 17.1487 16.2141C17.1862 16.2141 17.2232 16.2217 17.2577 16.2364C17.2935 16.251 17.3254 16.2739 17.3506 16.3033C17.3758 16.3326 17.3937 16.3676 17.4027 16.4052L17.7137 17.3835H18.6475C18.6882 17.381 18.7289 17.3877 18.7666 17.4031C18.8043 17.4185 18.8381 17.4422 18.8654 17.4725C18.8898 17.5001 18.9081 17.5327 18.9188 17.568C18.9296 17.6033 18.9326 17.6405 18.9277 17.677C18.9215 17.7182 18.9069 17.7576 18.8847 17.7928C18.8625 17.828 18.8333 17.8583 18.7988 17.8816L18.0517 18.442L18.3452 19.3488C18.3802 19.4497 18.3778 19.5345 18.3365 19.6024C18.3165 19.6357 18.2894 19.6641 18.2571 19.6856C18.2248 19.7071 18.1882 19.7212 18.1498 19.7268C18.0664 19.7418 17.9806 19.7166 17.8916 19.6515L17.1536 19.091L16.3887 19.6515C16.3046 19.7173 16.2223 19.7424 16.1417 19.7268ZM16.1417 25.1162C16.104 25.1102 16.0682 25.0959 16.0366 25.0744C16.0051 25.0529 15.9787 25.0247 15.9592 24.9919C15.9179 24.9236 15.9148 24.8392 15.9505 24.7383L16.244 23.8311L15.4881 23.2707C15.4532 23.2466 15.4236 23.2155 15.4014 23.1793C15.3792 23.1431 15.3648 23.1026 15.3592 23.0605C15.3538 23.024 15.3566 22.9867 15.3673 22.9513C15.378 22.9159 15.3964 22.8834 15.4212 22.856C15.4492 22.8269 15.4832 22.8042 15.5208 22.7897C15.5585 22.7751 15.5988 22.7689 15.6391 22.7716H16.582L16.893 21.7933C16.9023 21.7555 16.9204 21.7204 16.946 21.691C16.9715 21.6615 17.0037 21.6386 17.0398 21.6241C17.0743 21.6096 17.1113 21.6021 17.1487 21.6021C17.1861 21.6021 17.2232 21.6096 17.2577 21.6241C17.293 21.6392 17.3243 21.6623 17.3491 21.6917C17.3739 21.7211 17.3914 21.7559 17.4002 21.7933L17.7112 22.7716H18.645C18.6853 22.7689 18.7257 22.7751 18.7633 22.7897C18.801 22.8042 18.8349 22.8269 18.8629 22.856C18.8877 22.8834 18.9062 22.9159 18.917 22.9513C18.9278 22.9866 18.9306 23.0239 18.9252 23.0605C18.9196 23.1026 18.9053 23.1431 18.8831 23.1793C18.8609 23.2155 18.8313 23.2466 18.7963 23.2707L18.0492 23.8311L18.3428 24.7383C18.3778 24.8392 18.3753 24.9236 18.334 24.9919C18.314 25.0251 18.2869 25.0535 18.2546 25.075C18.2223 25.0965 18.1857 25.1105 18.1473 25.1162C18.064 25.1309 17.9781 25.1057 17.8892 25.0406L17.1512 24.4801L16.3869 25.0392C16.304 25.1052 16.2223 25.1309 16.1417 25.1162ZM20.8559 13.337C20.7876 13.2717 20.7336 13.1929 20.6974 13.1057C20.6612 13.0184 20.6436 12.9246 20.6457 12.8301C20.6449 12.7353 20.6629 12.6412 20.6989 12.5534C20.7348 12.4656 20.7878 12.3859 20.8549 12.3188C20.9219 12.2517 21.0017 12.1987 21.0895 12.1628C21.1773 12.1269 21.2714 12.1088 21.3662 12.1097H24.8572C24.9509 12.1086 25.0437 12.1266 25.1301 12.1628C25.2165 12.1989 25.2946 12.2524 25.3595 12.3198C25.4276 12.3862 25.4814 12.4658 25.5176 12.5537C25.5537 12.6417 25.5715 12.7361 25.5697 12.8312C25.5718 12.9256 25.5541 13.0195 25.518 13.1067C25.4818 13.194 25.4278 13.2728 25.3595 13.338C25.2939 13.4042 25.2156 13.4564 25.1293 13.4916C25.043 13.5267 24.9504 13.5441 24.8572 13.5426H21.3673C21.2725 13.5447 21.1784 13.5275 21.0905 13.4922C21.0026 13.4568 20.9228 13.404 20.8559 13.337ZM20.8559 18.7131C20.7877 18.6468 20.7339 18.5672 20.6978 18.4792C20.6616 18.3912 20.6439 18.2968 20.6457 18.2017C20.6437 18.1073 20.6613 18.0135 20.6975 17.9262C20.7336 17.8389 20.7876 17.7602 20.8559 17.6949C20.9229 17.628 21.0027 17.5754 21.0906 17.5403C21.1785 17.5051 21.2726 17.4881 21.3673 17.4903H24.8583C24.9515 17.4889 25.044 17.5062 25.1303 17.5414C25.2166 17.5765 25.2949 17.6287 25.3606 17.6949C25.4289 17.7602 25.4828 17.8389 25.519 17.9262C25.5552 18.0135 25.5728 18.1073 25.5707 18.2017C25.5725 18.2968 25.5548 18.3912 25.5187 18.4792C25.4825 18.5672 25.4287 18.6468 25.3606 18.7131C25.2957 18.7806 25.2176 18.8341 25.1312 18.8703C25.0448 18.9064 24.9519 18.9244 24.8583 18.9233H21.3673C21.2722 18.9251 21.1777 18.9073 21.0898 18.8712C21.0018 18.8351 20.9222 18.7812 20.8559 18.7131ZM20.8559 24.0892C20.7876 24.0239 20.7336 23.9451 20.6974 23.8578C20.6613 23.7704 20.6437 23.6766 20.6457 23.5821C20.6448 23.4872 20.6629 23.3932 20.6988 23.3054C20.7347 23.2176 20.7877 23.1378 20.8548 23.0708C20.9219 23.0037 21.0017 22.9507 21.0895 22.9148C21.1773 22.879 21.2714 22.861 21.3662 22.8619H24.8572C24.9509 22.8608 25.0438 22.8789 25.1301 22.915C25.2165 22.9512 25.2946 23.0046 25.3595 23.0721C25.4276 23.1384 25.4814 23.2181 25.5176 23.306C25.5537 23.394 25.5715 23.4884 25.5697 23.5835C25.5717 23.678 25.5541 23.7719 25.518 23.8592C25.4818 23.9465 25.4278 24.0253 25.3595 24.0906C25.2938 24.1568 25.2155 24.2089 25.1292 24.2441C25.0429 24.2792 24.9504 24.2966 24.8572 24.2952H21.3673C21.2725 24.2971 21.1784 24.2798 21.0906 24.2444C21.0027 24.209 20.9229 24.1562 20.8559 24.0892ZM27.9017 8.06871C27.4366 7.60963 26.739 7.37986 25.8089 7.37939H15.0909C14.1602 7.37939 13.4622 7.60917 12.9971 8.06871C12.5319 8.52825 12.2991 9.21709 12.2987 10.1352V17.8112H10.1729C9.60973 17.8112 9.16957 17.9579 8.85247 18.2515C8.53537 18.545 8.3767 18.9555 8.37646 19.483V27.1936C8.37646 28.083 8.59888 28.753 9.04371 29.2034C9.48854 29.6538 10.1616 29.8792 11.063 29.8794H25.8089C26.7392 29.8794 27.4371 29.6496 27.9028 29.1901C28.3684 28.7305 28.6019 28.0443 28.6033 27.1313V10.1363C28.6014 9.21768 28.3676 8.52848 27.9017 8.06871ZM12.2987 27.1929C12.2987 27.5604 12.1785 27.8613 11.9383 28.0955C11.8233 28.2097 11.6865 28.2996 11.5361 28.3597C11.3856 28.4199 11.2246 28.4492 11.0626 28.4458C10.7067 28.4458 10.4088 28.3258 10.1687 28.0857C9.9287 27.8457 9.80856 27.5477 9.80833 27.1918V19.7586C9.80833 19.5984 9.85433 19.4725 9.94633 19.3807C10.0381 19.2889 10.1673 19.2431 10.3316 19.2431H12.2973L12.2987 27.1929ZM27.1686 27.0507C27.1686 27.513 27.0485 27.8613 26.8082 28.0955C26.5679 28.3297 26.2255 28.4465 25.7809 28.4458H13.4283C13.6298 28.0547 13.7305 27.607 13.7305 27.1029V10.2165C13.7305 9.75416 13.8507 9.4039 14.091 9.16572C14.3312 8.92754 14.6734 8.80892 15.1176 8.80986H25.7809C26.2245 8.80986 26.567 8.92848 26.8082 9.16572C27.0494 9.40296 27.1695 9.75322 27.1686 10.2165V27.0507Z" fill="black"/>
</g>
</g>
</svg>
