<svg width="60" height="60" viewBox="0 0 36 36" fill="none" xmlns="http://www.w3.org/2000/svg">
<g id="intake">
<g id="Group 1171274895">
<rect id="Rectangle 34624705" x="20.1562" y="7.18884" width="7.54659" height="9.0559" rx="3.77329" fill="#FFA600"/>
<rect id="Rectangle 34624706" x="7.70312" y="19.7666" width="9.0559" height="9.0559" fill="#FFA600"/>
<path id="Rectangle 34624707" d="M16.7588 19.7666H21.7898V23.2883H18.2681L16.7588 23.7914V19.7666Z" fill="#FFA600"/>
<path id="Rectangle 34624708" d="M15.8306 29.4088L21.8334 29.4636L21.8695 25.5018L17.6675 25.4634L15.8719 24.881L15.8306 29.4088Z" fill="#FFA600"/>
<g id="Group 1171274894">
<g id="Group">
<path id="Vector" d="M21.35 25.4893H18.5201C17.9994 25.4893 17.5781 25.0573 17.5781 24.5237C17.5781 23.9942 17.9994 23.5621 18.5201 23.5621H21.35V25.4893ZM20.8797 28.8657H9.08817C8.56748 28.8657 8.14219 28.431 8.14219 27.8987V19.9149C8.77947 20.2968 8.14219 20.1844 20.8797 20.1844C21.1394 20.1844 21.35 20.4025 21.35 20.6693V22.5965H18.5201C17.4787 22.5965 16.6321 23.4592 16.6321 24.5237C16.6321 25.5896 17.4787 26.4523 18.5201 26.4523H21.35V28.3822C21.35 28.649 21.1394 28.8657 20.8797 28.8657ZM9.08817 17.2943H19.9351C20.1961 17.2943 20.4054 17.5096 20.4054 17.7737V19.2228H9.08817C8.56748 19.2228 8.14219 18.7895 8.14219 18.2572C8.14219 17.7249 8.56748 17.2943 9.08817 17.2943ZM21.35 19.3068V17.7737C21.35 16.9774 20.7167 16.3273 19.9351 16.3273H9.08817C8.04415 16.3273 7.2002 17.1927 7.2002 18.2572V27.8987C7.2002 28.9659 8.04415 29.8286 9.08817 29.8286H20.8797C21.6601 29.8286 22.2947 29.1813 22.2947 28.3822V20.6693C22.292 20.0571 21.9131 19.5127 21.35 19.3068Z" fill="#040606"/>
</g>
<path id="Vector_2" d="M18.0469 24.5238C18.0469 24.7906 18.2589 25.0059 18.5199 25.0059C18.7809 25.0059 18.9902 24.7906 18.9902 24.5238C18.9902 24.2583 18.7809 24.043 18.5199 24.043C18.2589 24.043 18.0469 24.2583 18.0469 24.5238Z" fill="#040606"/>
<g id="Group_2">
<path id="Vector_3" d="M23.9937 15.3644C21.907 15.3644 20.2191 13.6389 20.2191 11.5086C20.2191 9.37685 21.907 7.64872 23.9937 7.64872C26.0764 7.64872 27.7643 9.37685 27.7643 11.5086C27.7643 13.6389 26.0764 15.3644 23.9937 15.3644ZM23.9937 6.68579C21.3863 6.68579 19.2744 8.8446 19.2744 11.5086C19.2744 14.1712 21.3863 16.3273 23.9937 16.3273C26.5984 16.3273 28.709 14.1712 28.709 11.5086C28.709 8.8446 26.5984 6.68579 23.9937 6.68579Z" fill="#040606"/>
</g>
<path id="Vector_4" d="M23.9937 10.0623C24.2533 10.0623 24.464 10.2776 24.464 10.5417C24.464 10.8099 24.6747 11.0252 24.9343 11.0252C25.7187 11.0252 25.5067 9.57878 24.464 9.18467C24.464 8.91787 24.2533 8.70117 23.9937 8.70117C23.7327 8.70117 23.5194 8.91787 23.5194 9.18467C22.7854 9.45554 22.4078 10.2857 22.6727 11.0374C22.8741 11.6049 23.4001 11.9841 23.9937 11.9881C24.2533 11.9881 24.464 12.2048 24.464 12.4716C24.464 12.7384 24.2533 12.9551 23.9937 12.9551C23.7327 12.9551 23.5194 12.7384 23.5194 12.4716C23.5194 12.2048 23.31 11.9881 23.049 11.9881C22.2647 11.9881 22.478 13.4346 23.5194 13.8314C23.5194 14.0968 23.7327 14.3122 23.9937 14.3122C24.2533 14.3122 24.464 14.0968 24.464 13.8314C25.198 13.5592 25.5769 12.729 25.3119 11.9787C25.1092 11.4098 24.5832 11.0293 23.9937 11.0252C23.7327 11.0252 23.5194 10.8099 23.5194 10.5417C23.5194 10.2776 23.7327 10.0623 23.9937 10.0623Z" fill="#040606"/>
<path id="Vector_5" d="M12.3065 14.8239C12.443 14.962 12.6457 15.0013 12.8206 14.9268C12.9398 14.8781 12.9054 14.8916 13.9203 13.861C14.1044 13.6714 14.1044 13.3653 13.9176 13.177C13.7334 12.9874 13.4353 12.9874 13.2512 13.177L13.1147 13.3206V12.0705C13.1147 10.7392 14.1693 9.66117 15.4717 9.66117H17.8313C18.091 9.66117 18.3017 9.44583 18.3017 9.17768C18.3017 8.91358 18.091 8.69824 17.8313 8.69824H15.4717C13.6487 8.69824 12.1688 10.2083 12.1688 12.0705V13.3206L12.0323 13.177C11.8481 12.9874 11.5487 12.9874 11.3632 13.177C11.1791 13.3653 11.1791 13.6714 11.3632 13.861L12.3065 14.8239Z" fill="#040606"/>
</g>
</g>
</g>
</svg>
