<svg width="59" height="60" viewBox="0 0 36 37" fill="none" xmlns="http://www.w3.org/2000/svg">
<g id="program">
<g id="Group 1171274919">
<rect id="Rectangle 34624710" x="16.9614" y="11.2523" width="6.54987" height="6.54987" rx="3.27493" fill="#FFA600"/>
<path id="Rectangle 34624709" d="M9.53829 25.007H26.1313V29.3736H9.75662L8.8833 27.8453L9.10163 26.5354L9.53829 25.007Z" fill="#FFA600"/>
<path id="Rectangle 34624708" d="M9.10163 9.10541L10.4116 8.01376V24.3522L8.8833 25.0072L9.10163 9.10541Z" fill="#FFA600"/>
<g id="Group 1171274871">
<g id="Vector">
<mask id="path-4-outside-1_3013_54993" maskUnits="userSpaceOnUse" x="12.0112" y="25.1282" width="13" height="2" fill="black">
<rect fill="white" x="12.0112" y="25.1282" width="13" height="2"/>
<path d="M23.5714 26.1282H13.3614C13.1687 26.1282 13.0112 26.2863 13.0112 26.4799C13.0112 26.6742 13.1687 26.8323 13.3614 26.8323H23.5671C23.7599 26.8323 23.9166 26.6742 23.9166 26.4799C23.9166 26.2863 23.7634 26.1282 23.5714 26.1282Z"/>
</mask>
<path d="M23.5714 26.1282H13.3614C13.1687 26.1282 13.0112 26.2863 13.0112 26.4799C13.0112 26.6742 13.1687 26.8323 13.3614 26.8323H23.5671C23.7599 26.8323 23.9166 26.6742 23.9166 26.4799C23.9166 26.2863 23.7634 26.1282 23.5714 26.1282Z" fill="black"/>
<path d="M23.5714 26.1282H13.3614C13.1687 26.1282 13.0112 26.2863 13.0112 26.4799C13.0112 26.6742 13.1687 26.8323 13.3614 26.8323H23.5671C23.7599 26.8323 23.9166 26.6742 23.9166 26.4799C23.9166 26.2863 23.7634 26.1282 23.5714 26.1282Z" stroke="black" stroke-width="0.411429" mask="url(#path-4-outside-1_3013_54993)"/>
</g>
<g id="Vector_2">
<mask id="path-5-outside-2_3013_54993" maskUnits="userSpaceOnUse" x="10.1562" y="26.8137" width="12" height="2" fill="black">
<rect fill="white" x="10.1562" y="26.8137" width="12" height="2"/>
<path d="M20.9221 27.8137H11.5057C11.3137 27.8137 11.1562 27.9718 11.1562 28.1653C11.1562 28.3596 11.3137 28.5177 11.5057 28.5177H20.9221C21.1148 28.5177 21.2716 28.3596 21.2716 28.1653C21.2716 27.9718 21.1148 27.8137 20.9221 27.8137Z"/>
</mask>
<path d="M20.9221 27.8137H11.5057C11.3137 27.8137 11.1562 27.9718 11.1562 28.1653C11.1562 28.3596 11.3137 28.5177 11.5057 28.5177H20.9221C21.1148 28.5177 21.2716 28.3596 21.2716 28.1653C21.2716 27.9718 21.1148 27.8137 20.9221 27.8137Z" fill="black"/>
<path d="M20.9221 27.8137H11.5057C11.3137 27.8137 11.1562 27.9718 11.1562 28.1653C11.1562 28.3596 11.3137 28.5177 11.5057 28.5177H20.9221C21.1148 28.5177 21.2716 28.3596 21.2716 28.1653C21.2716 27.9718 21.1148 27.8137 20.9221 27.8137Z" stroke="black" stroke-width="0.411429" mask="url(#path-5-outside-2_3013_54993)"/>
</g>
<g id="Group">
<g id="Vector_3">
<mask id="path-6-outside-3_3013_54993" maskUnits="userSpaceOnUse" x="7.22852" y="5.88576" width="21" height="25" fill="black">
<rect fill="white" x="7.22852" y="5.88576" width="21" height="25"/>
<path d="M27.1629 13.3422H26.471C26.4202 13.0813 26.3496 12.8197 26.2627 12.563L26.8642 12.2149C27.206 12.017 27.3239 11.5739 27.1276 11.2336L26.5776 10.2764C26.3806 9.93177 25.945 9.81336 25.6026 10.0112L25.0017 10.3629C24.8245 10.1615 24.636 9.97147 24.4355 9.7935L24.7857 9.18799C24.8796 9.02208 24.9071 8.82851 24.8563 8.64203C24.8048 8.45627 24.6868 8.30241 24.5223 8.2074L23.5713 7.65364C23.4061 7.55863 23.2134 7.53098 23.0284 7.58203C22.8441 7.63379 22.6909 7.7522 22.5963 7.91811L22.2503 8.52363C21.9954 8.43641 21.7356 8.36551 21.4765 8.31375V7.60614C21.4765 7.21049 21.1539 6.88576 20.7613 6.88576H19.6606C19.268 6.88576 18.9454 7.21049 18.9454 7.60614V8.30241C18.6863 8.35346 18.4265 8.42507 18.1716 8.51157L17.8256 7.90677C17.731 7.74014 17.5898 7.63379 17.4048 7.58628C17.3145 7.56218 17.2163 7.55012 17.1217 7.55012H10.8105C10.8069 7.55012 10.8069 7.55012 10.8027 7.55012C10.7985 7.55012 10.7985 7.55012 10.7949 7.55012C9.38005 7.55438 8.22852 8.71365 8.22852 10.1374V27.4456C8.22852 28.8693 9.38005 30.0286 10.7949 30.0286H26.8247C26.9469 30.0286 27.0605 29.9655 27.1234 29.8584C27.1869 29.7521 27.1904 29.6209 27.1318 29.5146C26.2472 27.8412 26.2592 26.5118 27.1784 24.7789C27.1827 24.7711 27.1827 24.7669 27.1869 24.7591C27.1904 24.7513 27.1947 24.7435 27.1947 24.7314C27.206 24.696 27.2144 24.6605 27.218 24.6208C27.218 24.6166 27.2222 24.613 27.2222 24.6088V17.9828C27.2222 17.9389 27.218 17.5234 27.1982 17.456C27.1509 17.2781 27.0372 17.1164 26.8642 17.0171L26.2627 16.669C26.3496 16.4123 26.4202 16.1507 26.471 15.8898H27.1629C27.5562 15.8898 27.8781 15.565 27.8781 15.1701V14.0619C27.8781 13.6662 27.5562 13.3422 27.1629 13.3422ZM8.92396 10.1374C8.92396 9.21564 9.58833 8.44847 10.461 8.29035V24.2847C9.85945 24.3634 9.32075 24.6527 8.92396 25.0796V10.1374ZM26.2669 29.3245H10.7949C9.76484 29.3245 8.92396 28.4822 8.92396 27.4413V26.8401C8.92396 25.8035 9.76131 24.9569 10.7949 24.9569H26.31C25.6188 26.4998 25.6026 27.8249 26.2669 29.3245ZM26.5225 24.2571H11.1564V8.2549H15.8057C15.5268 8.47187 15.4399 8.86396 15.6207 9.18019L15.9666 9.7857C15.7661 9.96367 15.5776 10.1537 15.4004 10.3551L14.7996 10.0034C14.6343 9.90837 14.4416 9.88072 14.2573 9.93177C14.0723 9.98353 13.9191 10.1019 13.8245 10.2686L13.2745 11.2258C13.0783 11.5696 13.1962 12.0092 13.5379 12.2071L14.1394 12.5552C14.0526 12.8119 13.982 13.0728 13.9311 13.3344H13.2392C12.846 13.3344 12.524 13.6584 12.524 14.0541V15.1616C12.524 15.5572 12.846 15.882 13.2392 15.882H13.9311C13.982 16.1429 14.0526 16.4038 14.1394 16.6612L13.5379 17.0093C13.1962 17.2072 13.0783 17.6503 13.2745 17.9906L13.8245 18.9478C13.9191 19.1138 14.0723 19.2329 14.2573 19.2839C14.4416 19.3357 14.6343 19.308 14.7996 19.213L15.4004 18.8606C15.5776 19.0627 15.7661 19.2527 15.9666 19.4307L15.6207 20.0355C15.5268 20.2021 15.4992 20.3957 15.5501 20.5814C15.6009 20.7679 15.7188 20.9218 15.884 21.0168L16.8351 21.5706C17.1768 21.7684 17.6131 21.65 17.8101 21.3054L18.1553 20.7006C18.4109 20.7871 18.6707 20.8587 18.9299 20.9097V21.606C18.9299 22.0016 19.2518 22.3264 19.6451 22.3264H20.7458C21.1383 22.3264 21.461 22.0016 21.461 21.606V20.9097C21.7201 20.8587 21.9792 20.7871 22.2348 20.7006L22.5807 21.3054C22.6754 21.472 22.8286 21.5904 23.0128 21.6422C23.1978 21.6897 23.3906 21.6656 23.5551 21.5706L24.5061 21.0168C24.6713 20.9218 24.7892 20.7679 24.8408 20.5814C24.8916 20.3957 24.8641 20.2021 24.7694 20.0355L24.42 19.4307C24.6205 19.2527 24.809 19.0627 24.9855 18.8606L25.587 19.213C25.7522 19.308 25.945 19.3357 26.1293 19.2839C26.2867 19.2407 26.4166 19.1414 26.5105 19.0109V24.2571H26.5225ZM27.1629 15.1857H26.1766C26.0036 15.1857 25.8582 15.3119 25.8306 15.4821C25.7678 15.894 25.6576 16.301 25.5087 16.6967C25.4458 16.859 25.5087 17.0412 25.6576 17.1277L26.5183 17.6503L25.945 18.6153L25.0879 18.1168C24.9389 18.0303 24.7497 18.0658 24.6438 18.1998C24.3847 18.5288 24.086 18.8252 23.7634 19.0861C23.6299 19.1932 23.5946 19.3867 23.6807 19.537L24.1686 20.4233L23.1901 20.9693L22.6987 20.1107C22.6118 19.9603 22.4311 19.8972 22.2701 19.9603C21.8775 20.1149 21.4723 20.2255 21.0677 20.2851C20.899 20.3127 20.7726 20.4588 20.7726 20.6332L20.7535 21.6422L19.6373 21.6223V20.629C19.6373 20.4552 19.5116 20.3085 19.3422 20.2808C18.9334 20.2177 18.5288 20.1107 18.1398 19.9568C18.0967 19.9405 18.0572 19.9327 18.0141 19.9327C17.892 19.9327 17.7741 19.9965 17.7112 20.1071L17.193 20.9735L16.2335 20.3957L16.7291 19.5335C16.8153 19.3832 16.78 19.1932 16.6465 19.0826C16.3204 18.8209 16.0252 18.5203 15.7661 18.1963C15.6602 18.0615 15.4675 18.0261 15.322 18.1133L14.4416 18.604L13.8874 17.6227L14.7403 17.1277C14.8899 17.0412 14.9528 16.859 14.8899 16.6967C14.7367 16.301 14.6266 15.894 14.5673 15.4821C14.5397 15.3119 14.3943 15.1857 14.222 15.1857L13.2195 15.1659L13.2392 14.042H14.2256C14.3985 14.042 14.544 13.9158 14.5715 13.7457C14.6343 13.3344 14.7403 12.9267 14.8935 12.5311C14.9563 12.3687 14.8935 12.1872 14.7445 12.1L13.8838 11.5774L14.4578 10.6124L15.3143 11.1109C15.4639 11.1981 15.6524 11.1626 15.7584 11.0279C16.0175 10.6996 16.3161 10.4026 16.6388 10.1374C16.7722 10.031 16.8075 9.84101 16.7214 9.69069L16.2335 8.8044L17.2121 8.25845L17.7035 9.11709C17.7903 9.2674 17.9711 9.33476 18.132 9.2674C18.5253 9.11283 18.9299 9.00222 19.3386 8.94266C19.5074 8.91501 19.6331 8.76895 19.6331 8.59453L19.6528 7.58628L20.7691 7.60614V8.59878C20.7691 8.7732 20.8947 8.91927 21.0635 8.94692C21.4687 9.01002 21.8733 9.11709 22.2666 9.27166C22.4275 9.33476 22.6083 9.27166 22.6944 9.12134L23.2134 8.2549L24.1721 8.83205L23.6772 9.69495C23.5904 9.84526 23.6264 10.0346 23.7598 10.1416C24.086 10.4068 24.3804 10.7032 24.6402 11.0315C24.7462 11.1662 24.9389 11.2016 25.0843 11.1151L25.9641 10.6245L26.507 11.6093L25.6541 12.1035C25.5044 12.1907 25.4416 12.373 25.5044 12.5353C25.6576 12.931 25.7678 13.338 25.8271 13.7499C25.8546 13.9194 26.0001 14.0463 26.1723 14.0463H27.1594L27.1784 14.0661L27.1629 15.1857Z"/>
</mask>
<path d="M27.1629 13.3422H26.471C26.4202 13.0813 26.3496 12.8197 26.2627 12.563L26.8642 12.2149C27.206 12.017 27.3239 11.5739 27.1276 11.2336L26.5776 10.2764C26.3806 9.93177 25.945 9.81336 25.6026 10.0112L25.0017 10.3629C24.8245 10.1615 24.636 9.97147 24.4355 9.7935L24.7857 9.18799C24.8796 9.02208 24.9071 8.82851 24.8563 8.64203C24.8048 8.45627 24.6868 8.30241 24.5223 8.2074L23.5713 7.65364C23.4061 7.55863 23.2134 7.53098 23.0284 7.58203C22.8441 7.63379 22.6909 7.7522 22.5963 7.91811L22.2503 8.52363C21.9954 8.43641 21.7356 8.36551 21.4765 8.31375V7.60614C21.4765 7.21049 21.1539 6.88576 20.7613 6.88576H19.6606C19.268 6.88576 18.9454 7.21049 18.9454 7.60614V8.30241C18.6863 8.35346 18.4265 8.42507 18.1716 8.51157L17.8256 7.90677C17.731 7.74014 17.5898 7.63379 17.4048 7.58628C17.3145 7.56218 17.2163 7.55012 17.1217 7.55012H10.8105C10.8069 7.55012 10.8069 7.55012 10.8027 7.55012C10.7985 7.55012 10.7985 7.55012 10.7949 7.55012C9.38005 7.55438 8.22852 8.71365 8.22852 10.1374V27.4456C8.22852 28.8693 9.38005 30.0286 10.7949 30.0286H26.8247C26.9469 30.0286 27.0605 29.9655 27.1234 29.8584C27.1869 29.7521 27.1904 29.6209 27.1318 29.5146C26.2472 27.8412 26.2592 26.5118 27.1784 24.7789C27.1827 24.7711 27.1827 24.7669 27.1869 24.7591C27.1904 24.7513 27.1947 24.7435 27.1947 24.7314C27.206 24.696 27.2144 24.6605 27.218 24.6208C27.218 24.6166 27.2222 24.613 27.2222 24.6088V17.9828C27.2222 17.9389 27.218 17.5234 27.1982 17.456C27.1509 17.2781 27.0372 17.1164 26.8642 17.0171L26.2627 16.669C26.3496 16.4123 26.4202 16.1507 26.471 15.8898H27.1629C27.5562 15.8898 27.8781 15.565 27.8781 15.1701V14.0619C27.8781 13.6662 27.5562 13.3422 27.1629 13.3422ZM8.92396 10.1374C8.92396 9.21564 9.58833 8.44847 10.461 8.29035V24.2847C9.85945 24.3634 9.32075 24.6527 8.92396 25.0796V10.1374ZM26.2669 29.3245H10.7949C9.76484 29.3245 8.92396 28.4822 8.92396 27.4413V26.8401C8.92396 25.8035 9.76131 24.9569 10.7949 24.9569H26.31C25.6188 26.4998 25.6026 27.8249 26.2669 29.3245ZM26.5225 24.2571H11.1564V8.2549H15.8057C15.5268 8.47187 15.4399 8.86396 15.6207 9.18019L15.9666 9.7857C15.7661 9.96367 15.5776 10.1537 15.4004 10.3551L14.7996 10.0034C14.6343 9.90837 14.4416 9.88072 14.2573 9.93177C14.0723 9.98353 13.9191 10.1019 13.8245 10.2686L13.2745 11.2258C13.0783 11.5696 13.1962 12.0092 13.5379 12.2071L14.1394 12.5552C14.0526 12.8119 13.982 13.0728 13.9311 13.3344H13.2392C12.846 13.3344 12.524 13.6584 12.524 14.0541V15.1616C12.524 15.5572 12.846 15.882 13.2392 15.882H13.9311C13.982 16.1429 14.0526 16.4038 14.1394 16.6612L13.5379 17.0093C13.1962 17.2072 13.0783 17.6503 13.2745 17.9906L13.8245 18.9478C13.9191 19.1138 14.0723 19.2329 14.2573 19.2839C14.4416 19.3357 14.6343 19.308 14.7996 19.213L15.4004 18.8606C15.5776 19.0627 15.7661 19.2527 15.9666 19.4307L15.6207 20.0355C15.5268 20.2021 15.4992 20.3957 15.5501 20.5814C15.6009 20.7679 15.7188 20.9218 15.884 21.0168L16.8351 21.5706C17.1768 21.7684 17.6131 21.65 17.8101 21.3054L18.1553 20.7006C18.4109 20.7871 18.6707 20.8587 18.9299 20.9097V21.606C18.9299 22.0016 19.2518 22.3264 19.6451 22.3264H20.7458C21.1383 22.3264 21.461 22.0016 21.461 21.606V20.9097C21.7201 20.8587 21.9792 20.7871 22.2348 20.7006L22.5807 21.3054C22.6754 21.472 22.8286 21.5904 23.0128 21.6422C23.1978 21.6897 23.3906 21.6656 23.5551 21.5706L24.5061 21.0168C24.6713 20.9218 24.7892 20.7679 24.8408 20.5814C24.8916 20.3957 24.8641 20.2021 24.7694 20.0355L24.42 19.4307C24.6205 19.2527 24.809 19.0627 24.9855 18.8606L25.587 19.213C25.7522 19.308 25.945 19.3357 26.1293 19.2839C26.2867 19.2407 26.4166 19.1414 26.5105 19.0109V24.2571H26.5225ZM27.1629 15.1857H26.1766C26.0036 15.1857 25.8582 15.3119 25.8306 15.4821C25.7678 15.894 25.6576 16.301 25.5087 16.6967C25.4458 16.859 25.5087 17.0412 25.6576 17.1277L26.5183 17.6503L25.945 18.6153L25.0879 18.1168C24.9389 18.0303 24.7497 18.0658 24.6438 18.1998C24.3847 18.5288 24.086 18.8252 23.7634 19.0861C23.6299 19.1932 23.5946 19.3867 23.6807 19.537L24.1686 20.4233L23.1901 20.9693L22.6987 20.1107C22.6118 19.9603 22.4311 19.8972 22.2701 19.9603C21.8775 20.1149 21.4723 20.2255 21.0677 20.2851C20.899 20.3127 20.7726 20.4588 20.7726 20.6332L20.7535 21.6422L19.6373 21.6223V20.629C19.6373 20.4552 19.5116 20.3085 19.3422 20.2808C18.9334 20.2177 18.5288 20.1107 18.1398 19.9568C18.0967 19.9405 18.0572 19.9327 18.0141 19.9327C17.892 19.9327 17.7741 19.9965 17.7112 20.1071L17.193 20.9735L16.2335 20.3957L16.7291 19.5335C16.8153 19.3832 16.78 19.1932 16.6465 19.0826C16.3204 18.8209 16.0252 18.5203 15.7661 18.1963C15.6602 18.0615 15.4675 18.0261 15.322 18.1133L14.4416 18.604L13.8874 17.6227L14.7403 17.1277C14.8899 17.0412 14.9528 16.859 14.8899 16.6967C14.7367 16.301 14.6266 15.894 14.5673 15.4821C14.5397 15.3119 14.3943 15.1857 14.222 15.1857L13.2195 15.1659L13.2392 14.042H14.2256C14.3985 14.042 14.544 13.9158 14.5715 13.7457C14.6343 13.3344 14.7403 12.9267 14.8935 12.5311C14.9563 12.3687 14.8935 12.1872 14.7445 12.1L13.8838 11.5774L14.4578 10.6124L15.3143 11.1109C15.4639 11.1981 15.6524 11.1626 15.7584 11.0279C16.0175 10.6996 16.3161 10.4026 16.6388 10.1374C16.7722 10.031 16.8075 9.84101 16.7214 9.69069L16.2335 8.8044L17.2121 8.25845L17.7035 9.11709C17.7903 9.2674 17.9711 9.33476 18.132 9.2674C18.5253 9.11283 18.9299 9.00222 19.3386 8.94266C19.5074 8.91501 19.6331 8.76895 19.6331 8.59453L19.6528 7.58628L20.7691 7.60614V8.59878C20.7691 8.7732 20.8947 8.91927 21.0635 8.94692C21.4687 9.01002 21.8733 9.11709 22.2666 9.27166C22.4275 9.33476 22.6083 9.27166 22.6944 9.12134L23.2134 8.2549L24.1721 8.83205L23.6772 9.69495C23.5904 9.84526 23.6264 10.0346 23.7598 10.1416C24.086 10.4068 24.3804 10.7032 24.6402 11.0315C24.7462 11.1662 24.9389 11.2016 25.0843 11.1151L25.9641 10.6245L26.507 11.6093L25.6541 12.1035C25.5044 12.1907 25.4416 12.373 25.5044 12.5353C25.6576 12.931 25.7678 13.338 25.8271 13.7499C25.8546 13.9194 26.0001 14.0463 26.1723 14.0463H27.1594L27.1784 14.0661L27.1629 15.1857Z" fill="black"/>
<path d="M27.1629 13.3422H26.471C26.4202 13.0813 26.3496 12.8197 26.2627 12.563L26.8642 12.2149C27.206 12.017 27.3239 11.5739 27.1276 11.2336L26.5776 10.2764C26.3806 9.93177 25.945 9.81336 25.6026 10.0112L25.0017 10.3629C24.8245 10.1615 24.636 9.97147 24.4355 9.7935L24.7857 9.18799C24.8796 9.02208 24.9071 8.82851 24.8563 8.64203C24.8048 8.45627 24.6868 8.30241 24.5223 8.2074L23.5713 7.65364C23.4061 7.55863 23.2134 7.53098 23.0284 7.58203C22.8441 7.63379 22.6909 7.7522 22.5963 7.91811L22.2503 8.52363C21.9954 8.43641 21.7356 8.36551 21.4765 8.31375V7.60614C21.4765 7.21049 21.1539 6.88576 20.7613 6.88576H19.6606C19.268 6.88576 18.9454 7.21049 18.9454 7.60614V8.30241C18.6863 8.35346 18.4265 8.42507 18.1716 8.51157L17.8256 7.90677C17.731 7.74014 17.5898 7.63379 17.4048 7.58628C17.3145 7.56218 17.2163 7.55012 17.1217 7.55012H10.8105C10.8069 7.55012 10.8069 7.55012 10.8027 7.55012C10.7985 7.55012 10.7985 7.55012 10.7949 7.55012C9.38005 7.55438 8.22852 8.71365 8.22852 10.1374V27.4456C8.22852 28.8693 9.38005 30.0286 10.7949 30.0286H26.8247C26.9469 30.0286 27.0605 29.9655 27.1234 29.8584C27.1869 29.7521 27.1904 29.6209 27.1318 29.5146C26.2472 27.8412 26.2592 26.5118 27.1784 24.7789C27.1827 24.7711 27.1827 24.7669 27.1869 24.7591C27.1904 24.7513 27.1947 24.7435 27.1947 24.7314C27.206 24.696 27.2144 24.6605 27.218 24.6208C27.218 24.6166 27.2222 24.613 27.2222 24.6088V17.9828C27.2222 17.9389 27.218 17.5234 27.1982 17.456C27.1509 17.2781 27.0372 17.1164 26.8642 17.0171L26.2627 16.669C26.3496 16.4123 26.4202 16.1507 26.471 15.8898H27.1629C27.5562 15.8898 27.8781 15.565 27.8781 15.1701V14.0619C27.8781 13.6662 27.5562 13.3422 27.1629 13.3422ZM8.92396 10.1374C8.92396 9.21564 9.58833 8.44847 10.461 8.29035V24.2847C9.85945 24.3634 9.32075 24.6527 8.92396 25.0796V10.1374ZM26.2669 29.3245H10.7949C9.76484 29.3245 8.92396 28.4822 8.92396 27.4413V26.8401C8.92396 25.8035 9.76131 24.9569 10.7949 24.9569H26.31C25.6188 26.4998 25.6026 27.8249 26.2669 29.3245ZM26.5225 24.2571H11.1564V8.2549H15.8057C15.5268 8.47187 15.4399 8.86396 15.6207 9.18019L15.9666 9.7857C15.7661 9.96367 15.5776 10.1537 15.4004 10.3551L14.7996 10.0034C14.6343 9.90837 14.4416 9.88072 14.2573 9.93177C14.0723 9.98353 13.9191 10.1019 13.8245 10.2686L13.2745 11.2258C13.0783 11.5696 13.1962 12.0092 13.5379 12.2071L14.1394 12.5552C14.0526 12.8119 13.982 13.0728 13.9311 13.3344H13.2392C12.846 13.3344 12.524 13.6584 12.524 14.0541V15.1616C12.524 15.5572 12.846 15.882 13.2392 15.882H13.9311C13.982 16.1429 14.0526 16.4038 14.1394 16.6612L13.5379 17.0093C13.1962 17.2072 13.0783 17.6503 13.2745 17.9906L13.8245 18.9478C13.9191 19.1138 14.0723 19.2329 14.2573 19.2839C14.4416 19.3357 14.6343 19.308 14.7996 19.213L15.4004 18.8606C15.5776 19.0627 15.7661 19.2527 15.9666 19.4307L15.6207 20.0355C15.5268 20.2021 15.4992 20.3957 15.5501 20.5814C15.6009 20.7679 15.7188 20.9218 15.884 21.0168L16.8351 21.5706C17.1768 21.7684 17.6131 21.65 17.8101 21.3054L18.1553 20.7006C18.4109 20.7871 18.6707 20.8587 18.9299 20.9097V21.606C18.9299 22.0016 19.2518 22.3264 19.6451 22.3264H20.7458C21.1383 22.3264 21.461 22.0016 21.461 21.606V20.9097C21.7201 20.8587 21.9792 20.7871 22.2348 20.7006L22.5807 21.3054C22.6754 21.472 22.8286 21.5904 23.0128 21.6422C23.1978 21.6897 23.3906 21.6656 23.5551 21.5706L24.5061 21.0168C24.6713 20.9218 24.7892 20.7679 24.8408 20.5814C24.8916 20.3957 24.8641 20.2021 24.7694 20.0355L24.42 19.4307C24.6205 19.2527 24.809 19.0627 24.9855 18.8606L25.587 19.213C25.7522 19.308 25.945 19.3357 26.1293 19.2839C26.2867 19.2407 26.4166 19.1414 26.5105 19.0109V24.2571H26.5225ZM27.1629 15.1857H26.1766C26.0036 15.1857 25.8582 15.3119 25.8306 15.4821C25.7678 15.894 25.6576 16.301 25.5087 16.6967C25.4458 16.859 25.5087 17.0412 25.6576 17.1277L26.5183 17.6503L25.945 18.6153L25.0879 18.1168C24.9389 18.0303 24.7497 18.0658 24.6438 18.1998C24.3847 18.5288 24.086 18.8252 23.7634 19.0861C23.6299 19.1932 23.5946 19.3867 23.6807 19.537L24.1686 20.4233L23.1901 20.9693L22.6987 20.1107C22.6118 19.9603 22.4311 19.8972 22.2701 19.9603C21.8775 20.1149 21.4723 20.2255 21.0677 20.2851C20.899 20.3127 20.7726 20.4588 20.7726 20.6332L20.7535 21.6422L19.6373 21.6223V20.629C19.6373 20.4552 19.5116 20.3085 19.3422 20.2808C18.9334 20.2177 18.5288 20.1107 18.1398 19.9568C18.0967 19.9405 18.0572 19.9327 18.0141 19.9327C17.892 19.9327 17.7741 19.9965 17.7112 20.1071L17.193 20.9735L16.2335 20.3957L16.7291 19.5335C16.8153 19.3832 16.78 19.1932 16.6465 19.0826C16.3204 18.8209 16.0252 18.5203 15.7661 18.1963C15.6602 18.0615 15.4675 18.0261 15.322 18.1133L14.4416 18.604L13.8874 17.6227L14.7403 17.1277C14.8899 17.0412 14.9528 16.859 14.8899 16.6967C14.7367 16.301 14.6266 15.894 14.5673 15.4821C14.5397 15.3119 14.3943 15.1857 14.222 15.1857L13.2195 15.1659L13.2392 14.042H14.2256C14.3985 14.042 14.544 13.9158 14.5715 13.7457C14.6343 13.3344 14.7403 12.9267 14.8935 12.5311C14.9563 12.3687 14.8935 12.1872 14.7445 12.1L13.8838 11.5774L14.4578 10.6124L15.3143 11.1109C15.4639 11.1981 15.6524 11.1626 15.7584 11.0279C16.0175 10.6996 16.3161 10.4026 16.6388 10.1374C16.7722 10.031 16.8075 9.84101 16.7214 9.69069L16.2335 8.8044L17.2121 8.25845L17.7035 9.11709C17.7903 9.2674 17.9711 9.33476 18.132 9.2674C18.5253 9.11283 18.9299 9.00222 19.3386 8.94266C19.5074 8.91501 19.6331 8.76895 19.6331 8.59453L19.6528 7.58628L20.7691 7.60614V8.59878C20.7691 8.7732 20.8947 8.91927 21.0635 8.94692C21.4687 9.01002 21.8733 9.11709 22.2666 9.27166C22.4275 9.33476 22.6083 9.27166 22.6944 9.12134L23.2134 8.2549L24.1721 8.83205L23.6772 9.69495C23.5904 9.84526 23.6264 10.0346 23.7598 10.1416C24.086 10.4068 24.3804 10.7032 24.6402 11.0315C24.7462 11.1662 24.9389 11.2016 25.0843 11.1151L25.9641 10.6245L26.507 11.6093L25.6541 12.1035C25.5044 12.1907 25.4416 12.373 25.5044 12.5353C25.6576 12.931 25.7678 13.338 25.8271 13.7499C25.8546 13.9194 26.0001 14.0463 26.1723 14.0463H27.1594L27.1784 14.0661L27.1629 15.1857Z" stroke="black" stroke-width="0.411429" mask="url(#path-6-outside-3_3013_54993)"/>
</g>
</g>
<g id="Vector_4">
<mask id="path-7-outside-4_3013_54993" maskUnits="userSpaceOnUse" x="15.4111" y="9.80261" width="9" height="9" fill="black">
<rect fill="white" x="15.4111" y="9.80261" width="9" height="9"/>
<path d="M20.211 10.8026C18.1169 10.8026 16.4111 12.5192 16.4111 14.6278C16.4111 16.7365 18.1169 18.4538 20.211 18.4538C22.3058 18.4538 24.0073 16.7365 24.0073 14.6278C24.0116 12.5192 22.3058 10.8026 20.211 10.8026ZM20.211 17.749C18.5017 17.749 17.1108 16.3487 17.1108 14.6278C17.1108 12.907 18.5017 11.5067 20.211 11.5067C21.921 11.5067 23.3119 12.907 23.3119 14.6278C23.3161 16.3487 21.9245 17.749 20.211 17.749Z"/>
</mask>
<path d="M20.211 10.8026C18.1169 10.8026 16.4111 12.5192 16.4111 14.6278C16.4111 16.7365 18.1169 18.4538 20.211 18.4538C22.3058 18.4538 24.0073 16.7365 24.0073 14.6278C24.0116 12.5192 22.3058 10.8026 20.211 10.8026ZM20.211 17.749C18.5017 17.749 17.1108 16.3487 17.1108 14.6278C17.1108 12.907 18.5017 11.5067 20.211 11.5067C21.921 11.5067 23.3119 12.907 23.3119 14.6278C23.3161 16.3487 21.9245 17.749 20.211 17.749Z" fill="black"/>
<path d="M20.211 10.8026C18.1169 10.8026 16.4111 12.5192 16.4111 14.6278C16.4111 16.7365 18.1169 18.4538 20.211 18.4538C22.3058 18.4538 24.0073 16.7365 24.0073 14.6278C24.0116 12.5192 22.3058 10.8026 20.211 10.8026ZM20.211 17.749C18.5017 17.749 17.1108 16.3487 17.1108 14.6278C17.1108 12.907 18.5017 11.5067 20.211 11.5067C21.921 11.5067 23.3119 12.907 23.3119 14.6278C23.3161 16.3487 21.9245 17.749 20.211 17.749Z" stroke="black" stroke-width="0.411429" mask="url(#path-7-outside-4_3013_54993)"/>
</g>
</g>
</g>
</g>
</svg>
