<svg width="60" height="60" viewBox="0 0 36 36" fill="none" xmlns="http://www.w3.org/2000/svg">
<g id="school">
<g id="Group 1171274882">
<rect id="Rectangle 34624705" x="18.3599" y="7.61151" width="2.77714" height="1.85143" fill="#FFA600"/>
<path id="Rectangle 34624707" d="M12.3428 16.6371L17.8971 12.7028L24.1456 16.6371L24.3771 28.9028H12.3428V16.6371Z" fill="#FFA600"/>
<g id="Group 1171274880">
<g id="Group">
<path id="Vector" d="M28.0303 18.9303H25.1783V16.8488C25.1783 16.6445 25.0998 16.4817 24.9438 16.3587L18.7319 11.9101V10.3178H21.7011C22.0133 10.3178 22.2479 10.0737 22.2479 9.74637V7.25712C22.2479 6.93071 22.0133 6.68567 21.7011 6.68567H18.1455C17.8333 6.68567 17.5987 6.93071 17.5987 7.25712V11.9101L11.4256 16.3994C11.2695 16.5224 11.1911 16.6852 11.1911 16.8895V18.971H8.26063C7.94844 18.971 7.71387 19.216 7.71387 19.5424V29.2571C7.71387 29.5835 7.94844 29.8285 8.26063 29.8285H27.9906C28.3037 29.8285 28.5382 29.5835 28.5382 29.2571V19.5424C28.577 19.216 28.3425 18.9303 28.0303 18.9303ZM18.7319 7.82857H21.1535V9.13423H18.7319V7.82857ZM8.84706 20.1139H11.1911V28.6449H8.84706V20.1139ZM12.3243 19.5424V17.1752L18.1843 12.8893L24.0451 17.1752V28.6449H20.9586V24.5634C20.9586 22.9711 19.7081 21.6655 18.1843 21.6655C16.6604 21.6655 15.4108 22.9711 15.4108 24.5634V28.6449H12.3243V19.5424ZM16.544 28.6449V24.5634C16.544 23.6239 17.2856 22.849 18.1843 22.849C19.0829 22.849 19.8254 23.6239 19.8254 24.5634V28.6449H16.544ZM27.4438 28.6449H25.1783V20.1139H27.4438V28.6449Z" fill="black"/>
</g>
<path id="Vector_2" d="M18.1846 20.3183C19.4351 20.3183 20.4898 19.2568 20.4898 17.9104C20.4898 16.6039 19.4739 15.5016 18.1846 15.5016C16.935 15.5016 15.8794 16.5632 15.8794 17.9104C15.8794 19.2161 16.935 20.3183 18.1846 20.3183ZM18.1846 16.6852C18.8098 16.6852 19.3566 17.216 19.3566 17.9104C19.3566 18.5633 18.8486 19.1347 18.1846 19.1347C17.5593 19.1347 17.0126 18.6039 17.0126 17.9104C17.0126 17.216 17.5593 16.6852 18.1846 16.6852Z" fill="black"/>
</g>
</g>
</g>
</svg>
