<svg width="60" height="60" viewBox="0 0 36 36" fill="none" xmlns="http://www.w3.org/2000/svg">
<g id="subject">
<rect id="Rectangle 34624704" x="8.74268" y="12.3429" width="19.0286" height="11.3143" fill="#FFA600"/>
<g id="Group 1171274862">
<g id="Group">
<g id="Vector">
<mask id="path-2-outside-1_3013_54948" maskUnits="userSpaceOnUse" x="5.68604" y="9.28574" width="25" height="17" fill="black">
<rect fill="white" x="5.68604" y="9.28574" width="25" height="17"/>
<path d="M8.57971 10.6813C7.76773 10.6813 7.10675 11.3027 7.10675 12.0661V23.934C7.10675 24.6973 7.76773 25.3188 8.57971 25.3188H27.9352C28.7472 25.3188 29.4082 24.6973 29.4082 23.934V12.0661C29.4082 11.3027 28.7472 10.6813 27.9352 10.6813H8.57971ZM27.9352 25.7143H8.57971C7.536 25.7143 6.68604 24.9152 6.68604 23.934V12.0661C6.68604 11.0848 7.536 10.2857 8.57971 10.2857H27.9352C28.9799 10.2857 29.8289 11.0848 29.8289 12.0661V23.934C29.8289 24.9152 28.9799 25.7143 27.9352 25.7143Z"/>
</mask>
<path d="M8.57971 10.6813C7.76773 10.6813 7.10675 11.3027 7.10675 12.0661V23.934C7.10675 24.6973 7.76773 25.3188 8.57971 25.3188H27.9352C28.7472 25.3188 29.4082 24.6973 29.4082 23.934V12.0661C29.4082 11.3027 28.7472 10.6813 27.9352 10.6813H8.57971ZM27.9352 25.7143H8.57971C7.536 25.7143 6.68604 24.9152 6.68604 23.934V12.0661C6.68604 11.0848 7.536 10.2857 8.57971 10.2857H27.9352C28.9799 10.2857 29.8289 11.0848 29.8289 12.0661V23.934C29.8289 24.9152 28.9799 25.7143 27.9352 25.7143Z" fill="black"/>
<path d="M8.57971 10.6813C7.76773 10.6813 7.10675 11.3027 7.10675 12.0661V23.934C7.10675 24.6973 7.76773 25.3188 8.57971 25.3188H27.9352C28.7472 25.3188 29.4082 24.6973 29.4082 23.934V12.0661C29.4082 11.3027 28.7472 10.6813 27.9352 10.6813H8.57971ZM27.9352 25.7143H8.57971C7.536 25.7143 6.68604 24.9152 6.68604 23.934V12.0661C6.68604 11.0848 7.536 10.2857 8.57971 10.2857H27.9352C28.9799 10.2857 29.8289 11.0848 29.8289 12.0661V23.934C29.8289 24.9152 28.9799 25.7143 27.9352 25.7143Z" stroke="black" stroke-width="0.617143" mask="url(#path-2-outside-1_3013_54948)"/>
</g>
</g>
<g id="Vector_2">
<mask id="path-3-outside-2_3013_54948" maskUnits="userSpaceOnUse" x="7.36865" y="10.8679" width="22" height="14" fill="black">
<rect fill="white" x="7.36865" y="10.8679" width="22" height="14"/>
<path d="M8.78936 23.7357H27.7251V12.2634H8.78936V23.7357ZM27.935 24.1313H8.57948C8.46267 24.1313 8.36865 24.0438 8.36865 23.934V12.0661C8.36865 11.9563 8.46267 11.8679 8.57948 11.8679H27.935C28.0518 11.8679 28.1458 11.9563 28.1458 12.0661V23.934C28.1458 24.0438 28.0518 24.1313 27.935 24.1313Z"/>
</mask>
<path d="M8.78936 23.7357H27.7251V12.2634H8.78936V23.7357ZM27.935 24.1313H8.57948C8.46267 24.1313 8.36865 24.0438 8.36865 23.934V12.0661C8.36865 11.9563 8.46267 11.8679 8.57948 11.8679H27.935C28.0518 11.8679 28.1458 11.9563 28.1458 12.0661V23.934C28.1458 24.0438 28.0518 24.1313 27.935 24.1313Z" fill="black"/>
<path d="M8.78936 23.7357H27.7251V12.2634H8.78936V23.7357ZM27.935 24.1313H8.57948C8.46267 24.1313 8.36865 24.0438 8.36865 23.934V12.0661C8.36865 11.9563 8.46267 11.8679 8.57948 11.8679H27.935C28.0518 11.8679 28.1458 11.9563 28.1458 12.0661V23.934C28.1458 24.0438 28.0518 24.1313 27.935 24.1313Z" stroke="black" stroke-width="0.617143" mask="url(#path-3-outside-2_3013_54948)"/>
</g>
</g>
<g id="Group_2">
<path id="Vector_3" d="M16.0855 16.5144H22.5998C22.6354 16.5144 22.6705 16.5108 22.7056 16.5039C22.7405 16.4968 22.7746 16.4866 22.8074 16.4729C22.8403 16.4594 22.8716 16.4426 22.9013 16.4227C22.9308 16.4029 22.9583 16.3805 22.9835 16.3553C23.0087 16.3301 23.0314 16.3026 23.0509 16.2731C23.0708 16.2434 23.0876 16.2121 23.1013 16.1792C23.1148 16.1461 23.1253 16.1123 23.1321 16.0774C23.139 16.0423 23.1426 16.007 23.1426 15.9713C23.1426 15.9357 23.139 15.9006 23.1321 15.8655C23.1253 15.8306 23.1148 15.7965 23.1013 15.7637C23.0876 15.7309 23.0708 15.6996 23.0509 15.6698C23.0314 15.6403 23.0087 15.6128 22.9835 15.5876C22.9583 15.5624 22.9308 15.5398 22.9013 15.5202C22.8716 15.5003 22.8403 15.4835 22.8074 15.4698C22.7746 15.4563 22.7405 15.4459 22.7056 15.439C22.6705 15.4321 22.6354 15.4286 22.5998 15.4286H16.0855C16.0499 15.4286 16.0145 15.4321 15.9794 15.439C15.9445 15.4459 15.9107 15.4563 15.8776 15.4698C15.8448 15.4835 15.8135 15.5003 15.7837 15.5202C15.7542 15.5398 15.7267 15.5624 15.7015 15.5876C15.6763 15.6128 15.6539 15.6403 15.6341 15.6698C15.6142 15.6996 15.5974 15.7309 15.584 15.7637C15.5702 15.7965 15.56 15.8306 15.5529 15.8655C15.546 15.9006 15.5425 15.9357 15.5425 15.9713C15.5425 16.007 15.546 16.0423 15.5529 16.0774C15.56 16.1123 15.5702 16.1461 15.584 16.1792C15.5974 16.2121 15.6142 16.2434 15.6341 16.2731C15.6539 16.3026 15.6763 16.3301 15.7015 16.3553C15.7267 16.3805 15.7542 16.4029 15.7837 16.4227C15.8135 16.4426 15.8448 16.4594 15.8776 16.4729C15.9107 16.4866 15.9445 16.4968 15.9794 16.5039C16.0145 16.5108 16.0499 16.5144 16.0855 16.5144Z" fill="black"/>
</g>
<g id="Group_3">
<path id="Vector_4" d="M22.5998 17.6H16.0855C16.0499 17.6 16.0145 17.6035 15.9794 17.6104C15.9445 17.6175 15.9107 17.6277 15.8776 17.6415C15.8448 17.6549 15.8135 17.6717 15.7837 17.6916C15.7542 17.7114 15.7267 17.7338 15.7015 17.759C15.6763 17.7842 15.6539 17.8117 15.6341 17.8412C15.6142 17.871 15.5974 17.9023 15.584 17.9351C15.5702 17.9682 15.56 18.002 15.5529 18.0369C15.546 18.072 15.5425 18.1074 15.5425 18.143C15.5425 18.1786 15.546 18.2137 15.5529 18.2489C15.56 18.2837 15.5702 18.3178 15.584 18.3506C15.5974 18.3835 15.6142 18.4148 15.6341 18.4445C15.6539 18.4741 15.6763 18.5015 15.7015 18.5267C15.7267 18.5519 15.7542 18.5746 15.7837 18.5942C15.8135 18.614 15.8448 18.6308 15.8776 18.6446C15.9107 18.658 15.9445 18.6685 15.9794 18.6753C16.0145 18.6822 16.0499 18.6858 16.0855 18.6858H22.5998C22.6354 18.6858 22.6705 18.6822 22.7056 18.6753C22.7405 18.6685 22.7746 18.658 22.8074 18.6446C22.8403 18.6308 22.8716 18.614 22.9013 18.5942C22.9308 18.5746 22.9583 18.5519 22.9835 18.5267C23.0087 18.5015 23.0314 18.4741 23.0509 18.4445C23.0708 18.4148 23.0876 18.3835 23.1013 18.3506C23.1148 18.3178 23.1253 18.2837 23.1321 18.2489C23.139 18.2137 23.1426 18.1786 23.1426 18.143C23.1426 18.1074 23.139 18.072 23.1321 18.0369C23.1253 18.002 23.1148 17.9682 23.1013 17.9351C23.0876 17.9023 23.0708 17.871 23.0509 17.8412C23.0314 17.8117 23.0087 17.7842 22.9835 17.759C22.9583 17.7338 22.9308 17.7114 22.9013 17.6916C22.8716 17.6717 22.8403 17.6549 22.8074 17.6415C22.7746 17.6277 22.7405 17.6175 22.7056 17.6104C22.6705 17.6035 22.6354 17.6 22.5998 17.6Z" fill="black"/>
</g>
<g id="Group_4">
<path id="Vector_5" d="M22.5998 19.7714H16.0855C16.0499 19.7714 16.0145 19.7747 15.9794 19.7819C15.9445 19.7887 15.9107 19.7989 15.8776 19.8126C15.8448 19.8264 15.8135 19.8429 15.7837 19.8628C15.7542 19.8826 15.7267 19.905 15.7015 19.9302C15.6763 19.9557 15.6539 19.9829 15.6341 20.0127C15.6142 20.0422 15.5974 20.0735 15.584 20.1066C15.5702 20.1394 15.56 20.1732 15.5529 20.2083C15.546 20.2432 15.5425 20.2786 15.5425 20.3142C15.5425 20.3498 15.546 20.3852 15.5529 20.4201C15.56 20.4552 15.5702 20.489 15.584 20.5218C15.5974 20.5549 15.6142 20.5862 15.6341 20.6157C15.6539 20.6455 15.6763 20.6727 15.7015 20.6979C15.7267 20.7234 15.7542 20.7458 15.7837 20.7656C15.8135 20.7855 15.8448 20.802 15.8776 20.8157C15.9107 20.8295 15.9445 20.8397 15.9794 20.8465C16.0145 20.8537 16.0499 20.857 16.0855 20.857H22.5998C22.6354 20.857 22.6705 20.8537 22.7056 20.8465C22.7405 20.8397 22.7746 20.8295 22.8074 20.8157C22.8403 20.802 22.8716 20.7855 22.9013 20.7656C22.9308 20.7458 22.9583 20.7234 22.9835 20.6979C23.0087 20.6727 23.0314 20.6455 23.0509 20.6157C23.0708 20.5862 23.0876 20.5549 23.1013 20.5218C23.1148 20.489 23.1253 20.4552 23.1321 20.4201C23.139 20.3852 23.1426 20.3498 23.1426 20.3142C23.1426 20.2786 23.139 20.2432 23.1321 20.2083C23.1253 20.1732 23.1148 20.1394 23.1013 20.1066C23.0876 20.0735 23.0708 20.0422 23.0509 20.0127C23.0314 19.9829 23.0087 19.9557 22.9835 19.9302C22.9583 19.905 22.9308 19.8826 22.9013 19.8628C22.8716 19.8429 22.8403 19.8264 22.8074 19.8126C22.7746 19.7989 22.7405 19.7887 22.7056 19.7819C22.6705 19.7747 22.6354 19.7714 22.5998 19.7714Z" fill="black"/>
</g>
<g id="Group_5">
<path id="Vector_6" d="M14.4569 15.9713C14.4569 16.007 14.4533 16.0423 14.4465 16.0774C14.4393 16.1123 14.4292 16.1461 14.4154 16.1792C14.4019 16.2121 14.3851 16.2434 14.3653 16.2731C14.3454 16.3026 14.323 16.3301 14.2979 16.3553C14.2727 16.3805 14.2452 16.4029 14.2157 16.4227C14.1859 16.4426 14.1546 16.4594 14.1218 16.4729C14.0887 16.4866 14.0548 16.4968 14.02 16.5039C13.9849 16.5108 13.9495 16.5144 13.9139 16.5144C13.8782 16.5144 13.8431 16.5108 13.808 16.5039C13.7731 16.4968 13.739 16.4866 13.7062 16.4729C13.6734 16.4594 13.6421 16.4426 13.6123 16.4227C13.5828 16.4029 13.5553 16.3805 13.5301 16.3553C13.5049 16.3301 13.4823 16.3026 13.4627 16.2731C13.4429 16.2434 13.4261 16.2121 13.4123 16.1792C13.3988 16.1461 13.3884 16.1123 13.3815 16.0774C13.3747 16.0423 13.3711 16.007 13.3711 15.9713C13.3711 15.9357 13.3747 15.9006 13.3815 15.8655C13.3884 15.8306 13.3988 15.7965 13.4123 15.7637C13.4261 15.7309 13.4429 15.6996 13.4627 15.6698C13.4823 15.6403 13.5049 15.6128 13.5301 15.5876C13.5553 15.5624 13.5828 15.5398 13.6123 15.5202C13.6421 15.5003 13.6734 15.4835 13.7062 15.4698C13.739 15.4563 13.7731 15.4459 13.808 15.439C13.8431 15.4321 13.8782 15.4286 13.9139 15.4286C13.9495 15.4286 13.9849 15.4321 14.02 15.439C14.0548 15.4459 14.0887 15.4563 14.1218 15.4698C14.1546 15.4835 14.1859 15.5003 14.2157 15.5202C14.2452 15.5398 14.2727 15.5624 14.2979 15.5876C14.323 15.6128 14.3454 15.6403 14.3653 15.6698C14.3851 15.6996 14.4019 15.7309 14.4154 15.7637C14.4292 15.7965 14.4393 15.8306 14.4465 15.8655C14.4533 15.9006 14.4569 15.9357 14.4569 15.9713Z" fill="black"/>
</g>
<g id="Group_6">
<path id="Vector_7" d="M14.4569 18.143C14.4569 18.1786 14.4533 18.2137 14.4465 18.2489C14.4393 18.2837 14.4292 18.3178 14.4154 18.3506C14.4019 18.3835 14.3851 18.4148 14.3653 18.4445C14.3454 18.4741 14.323 18.5015 14.2979 18.5267C14.2727 18.5519 14.2452 18.5746 14.2157 18.5942C14.1859 18.614 14.1546 18.6308 14.1218 18.6446C14.0887 18.658 14.0548 18.6685 14.02 18.6753C13.9849 18.6822 13.9495 18.6858 13.9139 18.6858C13.8782 18.6858 13.8431 18.6822 13.808 18.6753C13.7731 18.6685 13.739 18.658 13.7062 18.6446C13.6734 18.6308 13.6421 18.614 13.6123 18.5942C13.5828 18.5746 13.5553 18.5519 13.5301 18.5267C13.5049 18.5015 13.4823 18.4741 13.4627 18.4445C13.4429 18.4148 13.4261 18.3835 13.4123 18.3506C13.3988 18.3178 13.3884 18.2837 13.3815 18.2489C13.3747 18.2137 13.3711 18.1786 13.3711 18.143C13.3711 18.1074 13.3747 18.072 13.3815 18.0369C13.3884 18.002 13.3988 17.9682 13.4123 17.9351C13.4261 17.9023 13.4429 17.871 13.4627 17.8412C13.4823 17.8117 13.5049 17.7842 13.5301 17.759C13.5553 17.7338 13.5828 17.7114 13.6123 17.6916C13.6421 17.6717 13.6734 17.6549 13.7062 17.6415C13.739 17.6277 13.7731 17.6175 13.808 17.6104C13.8431 17.6035 13.8782 17.6 13.9139 17.6C13.9495 17.6 13.9849 17.6035 14.02 17.6104C14.0548 17.6175 14.0887 17.6277 14.1218 17.6415C14.1546 17.6549 14.1859 17.6717 14.2157 17.6916C14.2452 17.7114 14.2727 17.7338 14.2979 17.759C14.323 17.7842 14.3454 17.8117 14.3653 17.8412C14.3851 17.871 14.4019 17.9023 14.4154 17.9351C14.4292 17.9682 14.4393 18.002 14.4465 18.0369C14.4533 18.072 14.4569 18.1074 14.4569 18.143Z" fill="black"/>
</g>
<g id="Group_7">
<path id="Vector_8" d="M14.4569 20.3142C14.4569 20.3498 14.4533 20.3852 14.4465 20.4201C14.4393 20.4552 14.4292 20.489 14.4154 20.5218C14.4019 20.5549 14.3851 20.5862 14.3653 20.6157C14.3454 20.6455 14.323 20.6727 14.2979 20.6979C14.2727 20.7234 14.2452 20.7458 14.2157 20.7656C14.1859 20.7855 14.1546 20.802 14.1218 20.8157C14.0887 20.8295 14.0548 20.8397 14.02 20.8465C13.9849 20.8537 13.9495 20.857 13.9139 20.857C13.8782 20.857 13.8431 20.8537 13.808 20.8465C13.7731 20.8397 13.739 20.8295 13.7062 20.8157C13.6734 20.802 13.6421 20.7855 13.6123 20.7656C13.5828 20.7458 13.5553 20.7234 13.5301 20.6979C13.5049 20.6727 13.4823 20.6455 13.4627 20.6157C13.4429 20.5862 13.4261 20.5549 13.4123 20.5218C13.3988 20.489 13.3884 20.4552 13.3815 20.4201C13.3747 20.3852 13.3711 20.3498 13.3711 20.3142C13.3711 20.2786 13.3747 20.2432 13.3815 20.2083C13.3884 20.1732 13.3988 20.1394 13.4123 20.1066C13.4261 20.0735 13.4429 20.0422 13.4627 20.0127C13.4823 19.9829 13.5049 19.9557 13.5301 19.9302C13.5553 19.905 13.5828 19.8826 13.6123 19.8628C13.6421 19.8429 13.6734 19.8264 13.7062 19.8126C13.739 19.7989 13.7731 19.7887 13.808 19.7819C13.8431 19.7747 13.8782 19.7714 13.9139 19.7714C13.9495 19.7714 13.9849 19.7747 14.02 19.7819C14.0548 19.7887 14.0887 19.7989 14.1218 19.8126C14.1546 19.8264 14.1859 19.8429 14.2157 19.8628C14.2452 19.8826 14.2727 19.905 14.2979 19.9302C14.323 19.9557 14.3454 19.9829 14.3653 20.0127C14.3851 20.0422 14.4019 20.0735 14.4154 20.1066C14.4292 20.1394 14.4393 20.1732 14.4465 20.2083C14.4533 20.2432 14.4569 20.2786 14.4569 20.3142Z" fill="black"/>
</g>
</g>
</svg>
