<svg width="72" height="72" viewBox="0 0 72 72" fill="none" xmlns="http://www.w3.org/2000/svg">
<g id="char-of-account">
<g id="dashboard (3) 1">
<g id="Group">
<g id="Vector">
<path d="M61.9995 68C44.6668 68 27.3341 68 10.0014 68C9.90811 67.9633 9.81645 67.91 9.71979 67.89C7.02322 67.3517 5.23495 65.7718 4.32665 63.1868C4.19166 62.8002 4.10833 62.3952 4 62.0002C4 44.6675 4 27.3349 4 10.0022C4.03333 9.92885 4.085 9.85885 4.1 9.78052C4.76997 6.27732 7.47987 4.00574 11.0464 4.00407C27.6858 3.99741 44.3252 3.99741 60.9645 4.01574C61.7228 4.0174 62.5078 4.13407 63.2311 4.35906C66.1893 5.27402 67.9959 7.91393 67.9976 11.2221C67.9993 27.7148 67.9976 44.2092 67.9976 60.7019C67.9976 60.9519 67.9976 61.2019 67.9876 61.4519C67.8709 64.3718 65.771 66.9934 62.9495 67.745C62.6345 67.83 62.3161 67.915 61.9995 68ZM7.75153 17.7769C7.75153 18.0352 7.75153 18.2419 7.75153 18.4469C7.75153 32.568 7.75153 46.6891 7.75153 60.8119C7.75153 62.9869 9.02648 64.2518 11.2147 64.2518C27.7308 64.2518 44.2485 64.2518 60.7645 64.2518C62.9878 64.2518 64.2477 62.9935 64.2477 60.7703C64.2494 46.6691 64.2477 32.5697 64.2477 18.4685C64.2477 18.2469 64.2477 18.0252 64.2477 17.7786C45.4109 17.7769 26.6456 17.7769 7.79396 17.7769C7.77981 17.7769 7.76567 17.7769 7.75153 17.7769ZM49.2216 7.75226C48.9683 7.75226 48.7633 7.75226 48.5583 7.75226C36.1055 7.75226 23.6526 7.75226 11.1981 7.75226C11.0531 7.75226 10.9064 7.74893 10.7614 7.7556C9.47479 7.80726 8.20151 8.61557 7.96485 9.86052C7.70986 11.2021 7.76153 12.6021 7.67986 13.9704C21.6327 13.9704 35.4122 13.9704 49.2216 13.9704C49.2216 11.9054 49.2216 9.87218 49.2216 7.75226ZM64.2494 13.977C64.2494 12.9721 64.2527 12.0371 64.2494 11.1021C64.2411 9.05555 62.9411 7.75726 60.8879 7.75393C58.4746 7.7506 56.0597 7.75226 53.6465 7.75393C53.4448 7.75393 53.2448 7.77226 53.0448 7.78226C53.0448 9.87552 53.0448 11.9221 53.0448 13.977C56.7847 13.977 60.4812 13.977 64.2494 13.977Z" fill="#0D313B"/>
<path d="M7.75153 17.7769V18.4469V60.8119C7.75153 62.9869 9.02648 64.2518 11.2147 64.2518H60.7645C62.9878 64.2518 64.2477 62.9935 64.2477 60.7703C64.2494 46.6691 64.2477 32.5697 64.2477 18.4685V17.7786C45.4109 17.7769 26.6456 17.7769 7.79396 17.7769H7.75153Z" fill="#36C5F0"/>
</g>
<path id="Vector_2" d="M27.2159 35.4149C28.8121 36.254 30.099 37.3827 31.0737 38.8546C32.1529 40.4847 32.7095 42.2802 32.7504 44.2324C32.773 45.3201 32.1134 45.9953 31.0271 45.9967C25.467 46.001 19.907 46.001 14.347 45.9967C13.265 45.9953 12.5897 45.3158 12.6349 44.2253C12.7889 40.4833 14.4869 37.6426 17.6794 35.6904C17.8277 35.6 17.9788 35.5152 18.1667 35.405C18.0692 35.2567 17.9873 35.1296 17.9011 35.0038C17.2358 34.0305 16.8558 32.9556 16.8756 31.7774C16.8968 30.5471 16.8374 29.2842 17.0988 28.0976C17.7062 25.336 20.4721 23.4685 23.2478 23.7708C26.1691 24.0901 28.4166 26.4618 28.507 29.3435C28.5338 30.208 28.5268 31.074 28.5084 31.9385C28.483 33.077 28.1609 33.919 27.2159 35.4149ZM16.0379 42.7929C20.4947 42.7929 24.9147 42.7929 29.339 42.7929C28.8587 39.9112 25.8866 37.5465 22.7464 37.5239C19.5638 37.4999 16.5592 39.8477 16.0379 42.7929ZM25.3682 30.6219C25.3569 30.6219 25.347 30.6205 25.3357 30.6205C25.3357 30.2504 25.3456 29.8803 25.3343 29.5102C25.2876 28.0524 24.1067 26.9167 22.6602 26.9294C21.2405 26.9421 20.0808 28.0792 20.0455 29.5145C20.0271 30.2532 20.0285 30.9949 20.0441 31.7337C20.0723 33.0926 21.095 34.2001 22.4271 34.3328C23.7592 34.4656 24.9853 33.5912 25.258 32.2493C25.3668 31.7209 25.3371 31.1644 25.3682 30.6219Z" fill="#0D313B"/>
<path id="Vector_3" d="M22.933 57.7494C20.3315 57.7494 17.7315 57.7511 15.13 57.7494C13.8617 57.7478 13.0084 56.9978 13.0001 55.8878C12.9917 54.7762 13.8484 54.0029 15.1033 54.0012C20.3665 53.9996 25.6313 53.9996 30.8944 54.0012C32.151 54.0012 33.0043 54.7779 32.9926 55.8928C32.981 56.9845 32.1393 57.7461 30.9194 57.7478C28.2595 57.7528 25.5963 57.7494 22.933 57.7494Z" fill="#0D313B"/>
<path id="Vector_4" d="M47.933 42.7494C45.3315 42.7494 42.7315 42.7511 40.13 42.7494C38.8617 42.7478 38.0084 41.9978 38.0001 40.8878C37.9917 39.7762 38.8484 39.0029 40.1033 39.0012C45.3665 38.9996 50.6313 38.9996 55.8944 39.0012C57.151 39.0012 58.0043 39.7779 57.9926 40.8928C57.981 41.9845 57.1393 42.7461 55.9194 42.7478C53.2595 42.7528 50.5963 42.7494 47.933 42.7494Z" fill="#0D313B"/>
<path id="Vector_5" d="M47.933 27.7494C45.3315 27.7494 42.7315 27.7511 40.13 27.7494C38.8617 27.7478 38.0084 26.9978 38.0001 25.8878C37.9917 24.7762 38.8484 24.0029 40.1033 24.0012C45.3665 23.9996 50.6313 23.9996 55.8944 24.0012C57.151 24.0012 58.0043 24.7779 57.9926 25.8928C57.981 26.9845 57.1393 27.7461 55.9194 27.7478C53.2595 27.7528 50.5963 27.7494 47.933 27.7494Z" fill="#0D313B"/>
<path id="Vector_6" d="M48.0059 54.0033C50.6274 54.0033 53.249 54.0017 55.8706 54.0033C57.1455 54.005 57.9955 54.7466 58.0055 55.8583C58.0172 56.9732 57.1622 57.7499 55.9072 57.7515C50.6224 57.7549 45.3376 57.7565 40.0528 57.7499C38.5529 57.7482 37.5929 56.4182 38.1696 55.1383C38.5212 54.36 39.1612 54 40.0162 54C42.6794 54.005 45.3426 54.0033 48.0059 54.0033Z" fill="#0D313B"/>
</g>
</g>
</g>
</svg>
