<svg width="72" height="72" viewBox="0 0 72 72" fill="none" xmlns="http://www.w3.org/2000/svg">
<g id="vendor">
<g id="Group 1171275596">
<rect id="Rectangle 34624449" x="10.7969" y="7.42969" width="50.2417" height="18.8662" fill="#36C5F0"/>
<rect id="Rectangle 34624450" x="8.86719" y="17.7207" width="54.1064" height="6.86044" fill="#36C5F0"/>
<rect id="Rectangle 34624451" x="10.7969" y="55.4536" width="50.2417" height="10.2907" fill="#36C5F0"/>
<g id="Group 1171275009">
<g id="Group">
<path id="Vector" d="M58.1704 52.9599H46.3385V51.0738C46.3385 48.2396 44.8946 45.6765 42.6955 43.9267C43.4564 42.7782 43.9857 41.426 43.9857 39.9491C43.9857 35.8973 40.2669 32.5275 35.6393 32.5275C31.0875 32.5275 27.2909 35.8299 27.2909 39.9491C27.2909 41.426 27.75 42.7782 28.5811 43.9267C26.382 45.6765 24.9382 48.1705 24.9382 51.0064V52.8925H13.1062V29.2218C13.4838 29.2891 13.7893 29.2891 14.1669 29.2891C16.0661 29.2891 17.8876 28.7502 19.4795 27.8072C20.9935 28.7502 22.815 29.2891 24.7143 29.2891H25.0918C26.9133 29.2891 28.7348 28.8176 30.2489 27.8745C31.7705 28.7502 33.592 29.2891 35.4154 29.2891H35.9447C37.7662 29.2891 39.582 28.8176 41.1036 27.8745C42.6177 28.7502 44.3633 29.2891 46.2626 29.2891H46.6401C48.5375 29.2891 50.359 28.7502 51.8749 27.8072C53.3966 28.7502 55.2105 29.2891 57.1856 29.2891C57.5632 29.2891 57.8706 29.2218 58.2482 29.2218V52.9599H58.1704ZM31.8483 46.4882C32.9848 47.0287 34.2769 47.2965 35.6393 47.2965C37.0072 47.2965 38.2974 47.0287 39.4359 46.4882C40.95 47.5003 42.0106 49.1203 42.0106 51.0064V52.8925H29.266V51.0064C29.266 49.1877 30.3266 47.5676 31.8483 46.4882ZM35.6393 43.5175C33.4402 43.5175 31.6169 41.8975 31.6169 39.9491C31.6169 37.9888 33.4402 36.3688 35.6393 36.3688C37.8364 36.3688 39.6598 37.9888 39.6598 39.9491C39.6598 41.8975 37.8364 43.5175 35.6393 43.5175ZM13.1062 64.2227V56.7389H58.1704V64.2227H13.1062ZM9.69288 19.3062L11.8919 14.5218C12.7287 12.7671 13.3358 10.9483 13.7134 9.05715C13.8671 8.31786 14.5444 7.84633 15.3812 7.84633H55.8954C56.7322 7.84633 57.4171 8.38522 57.5632 9.05715C57.9465 10.9483 58.5536 12.7671 59.3847 14.5218L61.5913 19.3062C62.1207 20.3856 62.1909 21.6015 61.7374 22.5446C61.0544 24.301 59.2386 25.4428 57.1098 25.4428C55.7474 25.4428 54.3795 24.9039 53.4668 23.9592C53.0893 23.5567 52.4821 23.2889 51.8749 23.2889C51.2678 23.2889 50.6606 23.5567 50.2831 23.9592C49.3742 24.9039 48.0081 25.4428 46.6401 25.4428H46.2626C44.8946 25.4428 43.6025 24.9039 42.6955 24.0282C42.3179 23.624 41.7108 23.4203 41.1036 23.4203C40.4206 23.4203 39.9652 23.624 39.5118 24.0282C38.5972 24.9039 37.307 25.4428 35.9447 25.4428H35.4154C34.0474 25.4428 32.7553 24.9713 31.8483 24.0282C31.4651 23.624 30.8579 23.4876 30.2489 23.4203C29.6417 23.4203 29.1123 23.624 28.6589 24.0282C27.75 24.9039 26.4598 25.4428 25.0918 25.4428H24.7143C23.2704 25.4428 21.984 24.9039 21.0713 23.9592C20.6938 23.5567 20.0866 23.2889 19.4795 23.2889C18.8723 23.2889 18.2651 23.5567 17.8876 23.9592C16.973 24.9039 15.6126 25.4428 14.2446 25.4428C12.1215 25.4428 10.3 24.301 9.61509 22.5446C9.16162 21.5342 9.23941 20.3856 9.69288 19.3062ZM65.534 17.8242L63.4052 13.1022C62.7278 11.6186 62.1909 10.0002 61.8152 8.38522C61.2839 5.82381 58.7775 4 55.8954 4H15.3812C12.4991 4 9.99266 5.82381 9.4633 8.38522C9.16162 10.0002 8.63226 11.5512 7.87142 13.1022L5.74827 17.8242C4.83375 19.7777 4.75785 21.9366 5.51869 23.7604C6.20174 25.3805 7.34016 26.7277 8.85425 27.6708V66.1088C8.85425 67.1883 9.83898 68 10.9831 68H60.2992C61.5135 68 62.4224 67.126 62.4224 66.1088V27.6708C63.9364 26.7277 65.0749 25.3805 65.7579 23.7604C66.5187 21.9366 66.4429 19.8468 65.534 17.8242Z" fill="#0D313B"/>
</g>
</g>
</g>
</g>
</svg>
