<svg width="240" height="240" viewBox="0 0 240 240" fill="none" xmlns="http://www.w3.org/2000/svg">
<g clip-path="url(#clip0_189_1799)">
<rect x="14.6987" y="34.5967" width="211.301" height="116.067" fill="#B8D3FF"/>
<path d="M14.1147 158.335C14.0949 157.577 14.0552 156.818 14.0552 156.062C14.0552 116.494 14.0552 76.9252 14.0552 37.3545C14.0552 28.3293 19.2379 23.1642 28.2918 23.162L209.832 23.1333C219.131 23.1333 222.16 25.1173 225.667 33.4944V158.489H212.855C211.893 158.452 210.932 158.379 209.971 158.379C145.788 158.379 81.6039 158.379 17.4192 158.379C16.3192 158.37 15.2169 158.346 14.1147 158.335ZM202.923 34.3762C202.235 34.3564 201.548 34.3189 200.86 34.3189C144.385 34.3189 87.911 34.3189 31.4376 34.3189C27.3703 34.3189 26.041 35.6703 26.041 39.8103V141.398C26.041 146.124 27.2028 147.306 31.8499 147.306H200.448C201.272 147.306 202.097 147.266 202.923 147.246C204.504 147.271 206.085 147.313 207.665 147.315C212.098 147.315 213.245 146.155 213.245 141.647V39.9801C213.245 39.4973 213.262 39.0145 213.245 38.5339C213.132 36.0318 211.591 34.4071 209.113 34.3321C207.048 34.2726 204.984 34.363 202.923 34.3762Z" fill="#00317E"/>
<path d="M212.858 158.49H225.67V173.388C224.348 177.237 222.553 180.69 218.616 182.526C216.967 183.293 215.292 183.765 213.464 183.754C210.091 183.73 206.716 183.754 203.343 183.754C203.616 183.567 203.904 183.404 204.203 183.264C209.549 181.28 213.147 176.538 212.893 170.223C212.732 166.316 212.858 162.399 212.858 158.49Z" fill="#B8D3FF"/>
<path d="M212.856 158.491C212.856 162.404 212.731 166.321 212.887 170.225C213.141 176.541 209.543 181.29 204.197 183.267C203.898 183.407 203.61 183.57 203.337 183.756C202.641 184.446 201.717 184.268 200.99 184.096C198.465 183.496 195.919 183.754 193.393 183.75C176.459 183.722 159.527 183.716 142.595 183.732H97.1292C73.5337 183.732 49.939 183.732 26.345 183.732C19.8836 183.732 14.2357 178.386 14.0814 171.976C13.9733 167.434 14.0968 162.886 14.1166 158.341C15.2189 158.352 16.3211 158.376 17.4234 158.376C81.6066 158.376 145.791 158.376 209.975 158.376C210.934 158.376 211.895 158.449 212.856 158.491Z" fill="#B8D3FF"/>
<path d="M97.1286 183.726H142.594C143.696 188.613 144.739 193.518 146.313 198.276C147.724 202.541 152.345 205.716 156.793 206.106C164.694 206.803 172.6 206.249 180.5 206.441C182.778 206.496 184.191 207.583 184.208 209.378C184.226 211.172 182.548 212.684 180.445 212.698C175.49 212.731 170.525 212.709 165.578 212.709H60.6794C60.0599 212.709 59.4361 212.748 58.821 212.693C57.0839 212.541 55.4944 211.108 55.5451 209.541C55.598 207.868 56.4798 206.675 58.206 206.333C58.9438 206.188 59.6938 206.114 60.4457 206.113C67.8109 206.091 75.174 206.113 82.5392 206.082C87.1907 206.064 92.0428 202.683 93.425 198.285C94.9263 193.501 96.0924 188.627 97.1286 183.726Z" fill="#B8D3FF"/>
<rect x="108.941" y="55.4292" width="64.4815" height="8.92821" rx="4.46411" fill="#478FFF"/>
<rect x="108.941" y="81.2217" width="64.4815" height="8.92821" rx="4.46411" fill="#478FFF"/>
<rect x="108.941" y="107.014" width="64.4815" height="8.92821" rx="4.46411" fill="#478FFF"/>
<rect x="39.499" y="68.3257" width="22.8165" height="8.92821" rx="4.46411" fill="#478FFF"/>
<rect x="39.499" y="94.1182" width="22.8165" height="8.92821" rx="4.46411" fill="#478FFF"/>
<rect x="39.499" y="119.912" width="22.8165" height="8.92821" rx="4.46411" fill="#478FFF"/>
<rect x="39.499" y="55.4292" width="36.7049" height="8.92821" rx="4.46411" fill="#0053D6"/>
<rect x="39.499" y="81.2217" width="36.7049" height="8.92821" rx="4.46411" fill="#0053D6"/>
<rect x="39.499" y="107.014" width="36.7049" height="8.92821" rx="4.46411" fill="#0053D6"/>
<rect x="81.1631" y="55.4292" width="22.8165" height="8.92821" rx="4.46411" fill="#00317E"/>
<rect x="81.1631" y="81.2217" width="22.8165" height="8.92821" rx="4.46411" fill="#00317E"/>
<rect x="81.1631" y="107.014" width="22.8165" height="8.92821" rx="4.46411" fill="#00317E"/>
<rect x="148.623" y="68.3257" width="24.8006" height="8.92821" rx="4.46411" fill="#00317E"/>
<rect x="148.623" y="94.1182" width="24.8006" height="8.92821" rx="4.46411" fill="#00317E"/>
<rect x="148.623" y="119.912" width="24.8006" height="8.92821" rx="4.46411" fill="#00317E"/>
<rect x="67.2773" y="68.3257" width="76.3858" height="8.92821" rx="4.46411" fill="#0053D6"/>
<rect x="67.2773" y="94.1182" width="76.3858" height="8.92821" rx="4.46411" fill="#0053D6"/>
<rect x="67.2773" y="119.912" width="76.3858" height="8.92821" rx="4.46411" fill="#0053D6"/>
<circle cx="169.912" cy="147.092" r="65.0894" fill="#B8D3FF" stroke="#00317E" stroke-width="10"/>
<path d="M214.398 146.716C214.398 171.045 194.513 190.826 169.911 190.826C145.309 190.826 125.424 171.045 125.424 146.716C125.424 122.387 145.309 102.605 169.911 102.605C194.513 102.605 214.398 122.387 214.398 146.716Z" fill="white" stroke="#00317E" stroke-width="9"/>
<path d="M181 126.842V152.158C181 153.707 180.384 155.193 179.289 156.289C178.193 157.384 176.707 158 175.158 158H149.842C148.293 158 146.807 157.384 145.711 156.289C144.616 155.193 144 153.707 144 152.158C144 150.608 144.616 149.123 145.711 148.027C146.807 146.931 148.293 146.316 149.842 146.316H169.316V126.842C169.316 125.293 169.931 123.807 171.027 122.711C172.123 121.616 173.608 121 175.158 121C176.707 121 178.193 121.616 179.289 122.711C180.384 123.807 181 125.293 181 126.842Z" fill="#00317E"/>
</g>
<defs>
<clipPath id="clip0_189_1799">
<rect width="240" height="240" fill="white"/>
</clipPath>
</defs>
</svg>
