<?xml version="1.0" encoding="utf-8"?>
<!-- Generator: Adobe Illustrator 17.1.0, SVG Export Plug-In . SVG Version: 6.00 Build 0)  -->
<!DOCTYPE svg PUBLIC "-//W3C//DTD SVG 1.1//EN" "http://www.w3.org/Graphics/SVG/1.1/DTD/svg11.dtd">
<svg version="1.1" id="Capa_1" xmlns="http://www.w3.org/2000/svg" xmlns:xlink="http://www.w3.org/1999/xlink" x="0px" y="0px"
	 viewBox="0 0 600 600" enable-background="new 0 0 600 600" xml:space="preserve">
<g>
	<g>
		<path fill="#4CAF50" d="M53.4,171.6c-15.1,0-27.3,12.2-27.3,27.3v127.6c0,15.1,12.2,27.3,27.3,27.3s27.3-12.2,27.3-27.3V198.9
			C80.8,183.8,68.5,171.6,53.4,171.6z"/>
		<path fill="#4CAF50" d="M363.4,171.6c-15.1,0-27.3,12.2-27.3,27.3v127.6c0,15.1,12.2,27.3,27.3,27.3c15.1,0,27.3-12.2,27.3-27.3
			V198.9C390.7,183.8,378.5,171.6,363.4,171.6z"/>
		<path fill="#4CAF50" d="M308.7,171.6H108.1c-5,0-9.1,4.1-9.1,9.1v145.9c0,21.7,15.2,40.3,36.5,44.7V436
			c0,15.1,12.2,27.3,27.3,27.3s27.3-12.2,27.3-27.3v-63.8h36.5V436c0,15.1,12.2,27.3,27.3,27.3s27.3-12.2,27.3-27.3v-64.7
			c21.2-4.3,36.5-23,36.5-44.7V180.7C317.8,175.7,313.7,171.6,308.7,171.6z"/>
		<path fill="#4CAF50" d="M274.7,63.5l22.2-22.2c3.6-3.5,3.7-9.3,0.2-12.9c-3.5-3.6-9.3-3.7-12.9-0.2c-0.1,0.1-0.2,0.1-0.2,0.2
			l-25.9,25.9c-31.7-13.8-67.7-13.8-99.4,0l-25.9-25.9c-3.6-3.5-9.4-3.4-12.9,0.2c-3.4,3.5-3.4,9.1,0,12.7l22.2,22.2
			C115,81.4,98.8,111.8,99,144.2c0,5,4.1,9.1,9.1,9.1h200.5c5,0,9.1-4.1,9.1-9.1C317.9,111.8,301.7,81.4,274.7,63.5z"/>
	</g>
	<g>
		<circle fill="#FAFAFA" cx="162.8" cy="107.8" r="9.1"/>
		<circle fill="#FAFAFA" cx="254" cy="107.8" r="9.1"/>
	</g>
	<path d="M53.4,353.9c-15.1,0-27.3-12.2-27.3-27.3V198.9c0-15.1,12.2-27.3,27.3-27.3s27.3,12.2,27.3,27.3v127.6
		C80.8,341.7,68.5,353.9,53.4,353.9z M53.4,189.8c-5,0-9.1,4.1-9.1,9.1v127.6c0,5,4.1,9.1,9.1,9.1s9.1-4.1,9.1-9.1V198.9
		C62.5,193.9,58.5,189.8,53.4,189.8z"/>
	<path d="M363.4,353.9c-15.1,0-27.3-12.2-27.3-27.3V198.9c0-15.1,12.2-27.3,27.3-27.3c15.1,0,27.3,12.2,27.3,27.3v127.6
		C390.7,341.7,378.5,353.9,363.4,353.9z M363.4,189.8c-5,0-9.1,4.1-9.1,9.1v127.6c0,5,4.1,9.1,9.1,9.1c5,0,9.1-4.1,9.1-9.1V198.9
		C372.5,193.9,368.4,189.8,363.4,189.8z"/>
	<path d="M254,463.3c-15.1,0-27.3-12.2-27.3-27.3v-63.8h-36.5V436c0,15.1-12.2,27.3-27.3,27.3s-27.3-12.2-27.3-27.3v-64.7
		c-21.2-4.3-36.5-23-36.5-44.7V180.7c0-5,4.1-9.1,9.1-9.1h200.5c5,0,9.1,4.1,9.1,9.1v145.9c0,21.7-15.2,40.3-36.5,44.7V436
		C281.3,451.1,269.1,463.3,254,463.3z M181,353.9h54.7c5,0,9.1,4.1,9.1,9.1V436c0,5,4.1,9.1,9.1,9.1s9.1-4.1,9.1-9.1V363
		c0-5,4.1-9.1,9.1-9.1c15.1,0,27.3-12.2,27.3-27.3V189.8H117.2v136.7c0,15.1,12.2,27.3,27.3,27.3c5,0,9.1,4.1,9.1,9.1V436
		c0,5,4.1,9.1,9.1,9.1c5,0,9.1-4.1,9.1-9.1V363C171.9,358,176,353.9,181,353.9z"/>
	<path d="M308.7,153.4H108.1c-5,0-9.1-4.1-9.1-9.1C99,87.1,146,44,208.4,44s109.4,43.1,109.4,100.3
		C317.8,149.3,313.7,153.4,308.7,153.4z M117.7,135.1h181.3c-4.6-42.8-41.3-72.9-90.7-72.9C163.8,59.3,124.4,91,117.7,135.1z"/>
	<path d="M153.7,71.3c-2.4,0-4.7-1-6.5-2.7l-27.3-27.3c-3.6-3.6-3.6-9.3,0-12.9c3.6-3.6,9.3-3.6,12.9,0l27.3,27.3
		c3.6,3.6,3.6,9.3,0,12.9C158.4,70.4,156.1,71.3,153.7,71.3z"/>
	<path d="M263.1,71.3c-5,0-9.1-4.1-9.1-9.1c0-2.4,1-4.8,2.7-6.5L284,28.4c3.5-3.6,9.3-3.7,12.9-0.2c3.6,3.5,3.7,9.3,0.2,12.9
		c-0.1,0.1-0.1,0.2-0.2,0.2l-27.3,27.3C267.8,70.4,265.5,71.3,263.1,71.3z"/>
	<circle cx="162.8" cy="107.8" r="9.1"/>
	<circle cx="254" cy="107.8" r="9.1"/>
</g>
<g>
	<path d="M472.8,289.9c-14.3,14.3-18.9,34.5-14.1,52.7c18.2,4.8,38.4,0.2,52.7-14.1c14.3-14.3,18.9-34.5,14.1-52.7
		C507.2,271,487,275.6,472.8,289.9z"/>
	<path d="M578.7,487.2c-33,0-59.8-26.8-59.8-59.8c0-26,16.6-48,39.8-56.3c-22.7-20.5-52.1-17.1-72.2-11.1c-14.7,4.4-30.4,4.4-45.1,0
		c-27.5-8.3-72.6-11.5-93.7,44.6c-21.9,58.2,9.4,117.4,37.6,153.8c15.5,20,43.6,25.1,65.4,12.2l7-4.1c3.9-2.3,8.7-2.3,12.6,0l7,4.1
		c21.8,12.8,49.9,7.8,65.4-12.2c14.5-18.8,29.9-43.7,38.4-71.4C580.2,487.1,579.5,487.2,578.7,487.2L578.7,487.2z"/>
	<g>
		<path d="M472.7,347.6c-5,0-10-0.6-14.9-1.9c-1.1-0.3-1.9-1.1-2.2-2.2c-5.3-19.9,0.4-41.2,14.9-55.7c14.5-14.5,35.8-20.2,55.7-14.9
			c1.1,0.3,1.9,1.1,2.2,2.2c5.3,19.9-0.4,41.2-14.9,55.7C502.7,341.7,487.9,347.6,472.7,347.6z M461.3,340
			c17.2,3.9,35.4-1.2,47.8-13.7c12.5-12.5,17.6-30.7,13.7-47.8c-17.2-3.9-35.4,1.2-47.8,13.7C462.5,304.6,457.4,322.8,461.3,340
			L461.3,340z"/>
		<path d="M503.1,580.9c-9.4,0-18.8-2.4-27.4-7.5l-7-4.1c-2.9-1.7-6.5-1.7-9.4,0l-7,4.1c-23.3,13.7-53.1,8.1-69.5-13
			c-24.4-31.6-61.8-93.9-38-156.8c22.3-59.3,70.7-54.6,97.6-46.5c14.2,4.3,29.1,4.3,43.3,0c21.3-6.4,51.6-9.5,75.2,11.8
			c0.8,0.7,1.2,1.9,1,3c-0.2,1.1-1,2-2,2.4c-22.5,8-37.7,29.4-37.7,53.3c0,31.2,25.4,56.6,56.6,56.6c0.4,0,0.8,0,1.2-0.1
			c0.3,0,0.7,0,1-0.1c1,0,2,0.4,2.6,1.2c0.6,0.8,0.8,1.9,0.5,2.8c-9.2,30.1-26.3,56-38.9,72.4C534.8,573.8,519.1,580.9,503.1,580.9
			L503.1,580.9z M411.9,358.5c-35.1,0-52.6,24.3-61.2,47.4C328,465.9,364.2,526,387.7,556.5c14.4,18.6,40.8,23.6,61.3,11.4l7-4.1
			c4.9-2.9,11-2.9,15.8,0l7,4.1c20.5,12.1,46.9,7.2,61.3-11.4c11.7-15.2,27.4-38.7,36.5-66.2c-33.8-1-61-28.9-61-62.9
			c0-24.7,14.6-47.1,36.9-57.2c-20.8-15.7-46.7-12.7-65.2-7.2c-15.3,4.6-31.6,4.6-46.9,0C429.8,359.9,420.3,358.5,411.9,358.5
			L411.9,358.5z"/>
	</g>
</g>
</svg>
