<svg width="36" height="36" viewBox="0 0 36 36" fill="none" xmlns="http://www.w3.org/2000/svg">
<path d="M1.80029 32.657V26.7427H17.486V32.657H1.80029Z" fill="#FFA600" stroke="black" stroke-width="0.0514286"/>
<path d="M19.2856 12.857C20.8478 12.857 22.1142 11.5906 22.1142 10.0284C22.1142 8.46622 20.8478 7.19983 19.2856 7.19983C17.7234 7.19983 16.457 8.46622 16.457 10.0284C16.457 11.5906 17.7234 12.857 19.2856 12.857Z" fill="#FFA600"/>
<path d="M29.3144 28.2856C29.4858 28.1998 29.8801 28.0284 30.0858 28.0284L29.5715 25.1998L30.0858 23.657L28.8001 22.6284L27.7715 25.457L29.3144 28.2856Z" fill="#FFA600" stroke="#FFA600" stroke-width="0.0514286"/>
<path d="M32.1432 25.457L31.6289 23.657L33.1718 22.6284L34.2003 25.457L32.4003 28.2856H31.886L32.1432 25.457Z" fill="#FFA600" stroke="black" stroke-width="0.0514286"/>
<path d="M18.3023 6.85544C17.3953 7.10153 16.5727 7.75544 16.1578 8.54997L15.9258 8.99997H15.1664H14.407L14.0414 9.33747C13.8375 9.52732 12.2063 11.032 10.4063 12.6844C8.60625 14.3438 7.05234 15.7852 6.94688 15.8977C6.75 16.1016 6.75 16.1156 6.75 17.0508V18H6.37031C6.11719 18 5.94141 18.0422 5.84297 18.1195C5.73047 18.218 5.47734 19.0055 4.73906 21.5859C4.21875 23.4211 3.72656 25.1367 3.64922 25.3969L3.50859 25.875H2.48906C1.49766 25.875 1.4625 25.882 1.30078 26.0508L1.125 26.2195V29.5313V32.843L1.30078 33.0117L1.46953 33.1875H9.5625H17.6555L17.8242 33.0117L18 32.843V29.5313V26.2195L17.8242 26.0508C17.6625 25.882 17.6273 25.875 16.6359 25.875H15.6164L15.4758 25.3969C15.3984 25.1367 14.9414 23.5336 14.4492 21.832L13.5703 18.7383L13.7531 18.5766C13.8516 18.4852 15.0891 17.3672 16.5023 16.0805C17.9156 14.7938 19.0969 13.7461 19.125 13.7461C19.1531 13.7461 20.1516 14.632 21.3469 15.7219C22.5422 16.8047 23.8781 18.0141 24.307 18.4078L25.1016 19.125H27.1758H29.25V19.9688V20.8125H28.8703C28.6172 20.8125 28.4414 20.8547 28.343 20.932C28.2305 21.0305 28.0477 21.5789 27.5977 23.1469C27.2672 24.3 27 25.2844 27 25.3477C27 25.5445 28.8211 29.1023 28.9617 29.1797C29.0391 29.2148 29.1656 29.25 29.25 29.25C29.4539 29.25 30.7758 28.575 30.8602 28.4273C30.9375 28.3078 30.9375 28.3078 31.0148 28.4273C31.0992 28.575 32.4211 29.25 32.625 29.25C32.7094 29.25 32.8359 29.2148 32.9133 29.1797C33.0539 29.1023 34.875 25.5445 34.875 25.3477C34.875 25.2844 34.6078 24.3 34.2773 23.1469C33.8273 21.5789 33.6445 21.0305 33.532 20.932C33.4336 20.8547 33.2578 20.8125 33.0047 20.8125H32.625V19.9688V19.125H33.5742C34.4953 19.125 34.5375 19.118 34.6992 18.9492L34.875 18.7805V16.3125V13.8445L34.6992 13.6758L34.5305 13.5H32.3578H30.1852L29.4398 14.0625L28.6875 14.625V13.957C28.6875 13.3242 28.6805 13.282 28.4977 13.0852C28.3852 12.9727 27.4148 12.1148 26.332 11.1727C25.2492 10.2375 24.2438 9.35857 24.0961 9.232C23.8359 8.99997 23.8359 8.99997 23.0766 8.99997H22.3242L22.0922 8.54997C21.3961 7.207 19.7438 6.46872 18.3023 6.85544ZM20.0742 8.09294C20.5172 8.30388 20.9391 8.72575 21.1641 9.17575C21.4102 9.67497 21.4102 10.5609 21.1641 11.0742C20.9461 11.5242 20.5242 11.9461 20.0742 12.1641C19.5609 12.4102 18.675 12.4102 18.1758 12.1641C17.7258 11.9461 17.3039 11.5242 17.0859 11.0742C16.9453 10.7859 16.9102 10.6172 16.9172 10.125C16.9172 9.61872 16.9453 9.47107 17.1 9.16872C17.2055 8.97185 17.3672 8.71872 17.4656 8.59919C17.6555 8.37419 18.2531 8.02263 18.5906 7.93825C18.9773 7.83982 19.6945 7.91013 20.0742 8.09294ZM15.7992 10.5961C15.8484 10.8633 15.8906 11.1305 15.9047 11.1938C15.9188 11.2781 15.4055 11.7633 14.2734 12.7336C13.3664 13.5141 12.6141 14.168 12.607 14.1961C12.6 14.2172 12.7547 14.4211 12.9586 14.6391L13.3242 15.0469L14.9273 13.6688L16.5305 12.2906L16.875 12.6141C17.0648 12.7898 17.3602 13.0078 17.543 13.0922C17.7188 13.1766 17.8523 13.275 17.8453 13.3031C17.8313 13.3383 16.6781 14.407 15.2719 15.6797L12.7195 18H10.3008H7.875V17.2758V16.5586L11.3625 13.3383L14.85 10.125H15.2859H15.7219L15.7992 10.5961ZM25.4883 11.932L27.5625 13.7461V15.8695V18H26.543H25.5305L22.9781 15.6797C21.5719 14.407 20.4188 13.3383 20.4047 13.3031C20.3977 13.275 20.5313 13.1766 20.707 13.0922C20.8898 13.0078 21.1852 12.7898 21.375 12.6141L21.7195 12.2906L23.3227 13.6688L24.9258 15.0469L25.2914 14.6391C25.4953 14.4211 25.65 14.2172 25.643 14.1961C25.6359 14.168 24.8836 13.5141 23.9766 12.7336C22.8445 11.7633 22.3313 11.2781 22.3453 11.1938C22.3594 11.1305 22.4016 10.8633 22.4508 10.5961L22.5281 10.125H22.9711H23.4141L25.4883 11.932ZM33.75 16.3125V18H31.2188H28.6875V17.0156V16.0313L29.6227 15.3281L30.5508 14.625H32.1539H33.75V16.3125ZM12.6492 19.5961C12.8883 20.4117 14.3297 25.4742 14.3789 25.6852L14.4281 25.882L13.8867 25.8609L13.3383 25.8398L12.818 24.293C12.4734 23.2383 12.2555 22.7039 12.157 22.6195C12.0234 22.5141 11.7844 22.5 9.5625 22.5C7.34063 22.5 7.10156 22.5141 6.96797 22.6195C6.86953 22.7039 6.65156 23.2383 6.30703 24.293L5.78672 25.8398L5.23828 25.8609L4.69688 25.882L4.74609 25.6852C4.79531 25.4742 6.23672 20.4117 6.47578 19.5961L6.61641 19.125H9.5625H12.5086L12.6492 19.5961ZM31.5 19.9688V20.8125H30.9375H30.375V19.9688V19.125H30.9375H31.5V19.9688ZM32.625 22.0711C32.625 22.1555 32.407 22.3453 31.9711 22.6336C31.3734 23.0273 31.282 23.0625 30.9375 23.0625C30.593 23.0625 30.5016 23.0273 29.9039 22.6336C29.468 22.3453 29.25 22.1555 29.25 22.0711C29.25 21.9445 29.3344 21.9375 30.9375 21.9375C32.5406 21.9375 32.625 21.9445 32.625 22.0711ZM29.257 23.5547C29.482 23.7164 29.6719 23.8641 29.6719 23.8852C29.6719 23.9133 29.5734 24.2367 29.4539 24.6023L29.2359 25.2773L29.4891 26.5359C29.7352 27.7664 29.7422 27.907 29.5313 27.9141C29.5102 27.9141 29.1938 27.3164 28.8281 26.5852L28.1672 25.2563L28.4414 24.2648C28.5961 23.7164 28.7438 23.2734 28.7789 23.2734C28.807 23.2734 29.025 23.4 29.257 23.5547ZM33.4336 24.2648L33.7078 25.2563L33.0469 26.5852C32.6813 27.3164 32.3648 27.9141 32.3438 27.9141C32.1328 27.907 32.1398 27.7664 32.3859 26.5359L32.6391 25.2773L32.4141 24.5813C32.2734 24.1383 32.2102 23.8711 32.2594 23.8219C32.3859 23.6953 33.0117 23.2805 33.082 23.2805C33.1242 23.2734 33.2789 23.7164 33.4336 24.2648ZM11.7844 24.7641L12.15 25.875H9.5625H6.96797L7.31953 24.8344C7.50938 24.2648 7.67813 23.7586 7.69922 23.7094C7.72031 23.6391 8.13516 23.625 9.56953 23.6391L11.4117 23.6602L11.7844 24.7641ZM31.2891 24.7922L31.4789 25.3617L31.2328 26.6344C31.0922 27.3375 30.9586 27.9141 30.9375 27.9141C30.9164 27.9141 30.7828 27.3375 30.6422 26.6344L30.3891 25.3547L30.5578 24.8625C30.6492 24.5883 30.7406 24.3211 30.7617 24.2719C30.7828 24.2227 30.8672 24.1875 30.9516 24.2016C31.0711 24.2156 31.1414 24.3352 31.2891 24.7922ZM16.875 29.5313V32.0625H9.5625H2.25V29.5313V27H9.5625H16.875V29.5313Z" fill="black"/>
<path d="M18.7383 9.73828C18.6258 9.84375 18.5625 9.99141 18.5625 10.125C18.5625 10.2586 18.6258 10.4063 18.7383 10.5117C18.8437 10.6242 18.9914 10.6875 19.125 10.6875C19.2586 10.6875 19.4062 10.6242 19.5117 10.5117C19.6242 10.4063 19.6875 10.2586 19.6875 10.125C19.6875 9.99141 19.6242 9.84375 19.5117 9.73828C19.4062 9.62578 19.2586 9.5625 19.125 9.5625C18.9914 9.5625 18.8437 9.62578 18.7383 9.73828Z" fill="black"/>
<path d="M29.9883 15.9258C29.8758 16.0313 29.8125 16.1789 29.8125 16.3125C29.8125 16.4461 29.8758 16.5938 29.9883 16.6992C30.0937 16.8117 30.2414 16.875 30.375 16.875C30.5086 16.875 30.6562 16.8117 30.7617 16.6992C30.8742 16.5938 30.9375 16.4461 30.9375 16.3125C30.9375 16.1789 30.8742 16.0313 30.7617 15.9258C30.6562 15.8133 30.5086 15.75 30.375 15.75C30.2414 15.75 30.0937 15.8133 29.9883 15.9258Z" fill="black"/>
<path d="M31.6758 15.9258C31.5633 16.0313 31.5 16.1789 31.5 16.3125C31.5 16.4461 31.5633 16.5938 31.6758 16.6992C31.7812 16.8117 31.9289 16.875 32.0625 16.875C32.1961 16.875 32.3437 16.8117 32.4492 16.6992C32.5617 16.5938 32.625 16.4461 32.625 16.3125C32.625 16.1789 32.5617 16.0313 32.4492 15.9258C32.3437 15.8133 32.1961 15.75 32.0625 15.75C31.9289 15.75 31.7812 15.8133 31.6758 15.9258Z" fill="black"/>
</svg>
