<svg width="36" height="36" viewBox="0 0 36 36" fill="none" xmlns="http://www.w3.org/2000/svg">
<g id="configuration" clip-path="url(#clip0_2890_55879)">
<path id="Subtract" fill-rule="evenodd" clip-rule="evenodd" d="M11.8282 23.3999L11.3139 22.1142L11.8282 21.5999L13.1139 22.3713L13.6282 22.1142L13.8853 20.8285H14.9139L15.4282 22.1142L16.7139 21.5999L17.4853 22.1142V23.1428L17.2282 23.6571L17.4853 24.1713H18.5139V25.4571L17.4853 25.7142L17.2282 26.4856L17.7424 27.2571L16.971 28.2856L15.9424 27.7713L15.4282 28.0285L15.171 29.0571H13.6282L13.371 28.0285L13.1139 27.7713L12.0853 28.2856L11.3139 27.5142L11.571 26.2285L11.3139 25.7142L10.2853 25.4571V24.4285L11.8282 23.3999ZM14.3996 25.7142C14.9676 25.7142 15.4282 25.2537 15.4282 24.6856C15.4282 24.1176 14.9676 23.6571 14.3996 23.6571C13.8315 23.6571 13.371 24.1176 13.371 24.6856C13.371 25.2537 13.8315 25.7142 14.3996 25.7142Z" fill="#FFA600"/>
<path id="Subtract_2" fill-rule="evenodd" clip-rule="evenodd" d="M8.90357 10.3821L8.16429 8.53388L8.90357 7.7946L10.7518 8.90353L11.4911 8.53388L11.8607 6.68567H13.3393L14.0786 8.53388L15.9268 7.7946L17.0357 8.53388V10.0125L16.6661 10.7517L17.0357 11.491H18.5143V13.3392L17.0357 13.7089L16.6661 14.8178L17.4054 15.9267L16.2964 17.4053L14.8179 16.666L14.0786 17.0357L13.7089 18.5142H11.4911L11.1214 17.0357L10.7518 16.666L9.27321 17.4053L8.16429 16.2964L8.53393 14.4482L8.16429 13.7089L6.68571 13.3392V11.8607L8.90357 10.3821ZM12.8573 14.3999C13.7094 14.3999 14.4002 13.7091 14.4002 12.857C14.4002 12.0049 13.7094 11.3142 12.8573 11.3142C12.0052 11.3142 11.3145 12.0049 11.3145 12.857C11.3145 13.7091 12.0052 14.3999 12.8573 14.3999Z" fill="#FFA600"/>
<g id="Group 25">
<g id="Group 159046">
<path id="gearshape" d="M14.058 29.5252H14.9196C15.2718 29.5252 15.5477 29.3043 15.6326 28.9644L15.8023 28.221L15.9127 28.1786L16.562 28.5821C16.8591 28.769 17.2114 28.7181 17.4618 28.4674L18.056 27.8727C18.3106 27.6178 18.3531 27.2695 18.1663 26.9764L17.7631 26.3264L17.8056 26.2245L18.5483 26.0503C18.8836 25.9653 19.1043 25.6892 19.1043 25.3366V24.4998C19.1043 24.1472 18.8878 23.871 18.5483 23.7861L17.8098 23.6077L17.7674 23.4972L18.1706 22.8515C18.3573 22.5584 18.3149 22.2101 18.0602 21.9509L17.466 21.3562C17.2199 21.1056 16.8676 21.0588 16.5705 21.2415L15.9212 21.6408L15.8023 21.5983L15.6326 20.8507C15.5477 20.5108 15.2718 20.2942 14.9196 20.2942H14.058C13.7015 20.2942 13.4256 20.5108 13.345 20.8507L13.1752 21.5983L13.0564 21.6408L12.407 21.2415C12.1057 21.0588 11.7577 21.1056 11.5115 21.3562L10.9131 21.9509C10.6627 22.2101 10.616 22.5584 10.8027 22.8515L11.2059 23.4972L11.1635 23.6077L10.4293 23.7861C10.0897 23.871 9.87328 24.1472 9.87328 24.4998V25.3366C9.87328 25.6892 10.094 25.9653 10.4293 26.0503L11.172 26.2245L11.2102 26.3264L10.807 26.9764C10.6202 27.2695 10.6669 27.6178 10.9173 27.8727L11.5158 28.4674C11.7619 28.7181 12.1142 28.769 12.4113 28.5821L13.0606 28.1786L13.1752 28.221L13.345 28.9644C13.4256 29.3043 13.7015 29.5252 14.058 29.5252ZM14.1683 28.7435C14.0962 28.7435 14.058 28.7138 14.0495 28.6501L13.7949 27.6051C13.5275 27.5414 13.2686 27.4309 13.0606 27.2992L12.1439 27.8642C12.0887 27.8982 12.0378 27.8939 11.9869 27.843L11.5412 27.3969C11.4903 27.3502 11.4903 27.2992 11.5242 27.244L12.0887 26.3264C11.9699 26.1225 11.8595 25.8676 11.7959 25.6L10.7476 25.3494C10.6839 25.3409 10.65 25.3026 10.65 25.2304V24.6017C10.65 24.5252 10.6797 24.4955 10.7476 24.4785L11.7916 24.2321C11.8553 23.9475 11.9784 23.6841 12.0845 23.493L11.52 22.5839C11.486 22.5244 11.486 22.4734 11.5327 22.4225L11.9826 21.9807C12.0335 21.9339 12.0802 21.9254 12.1439 21.9637L13.0521 22.5202C13.2431 22.4012 13.5275 22.2823 13.7991 22.2143L14.0495 21.1693C14.058 21.1056 14.0962 21.0716 14.1683 21.0716H14.8092C14.8814 21.0716 14.9153 21.1013 14.928 21.1693L15.1827 22.2186C15.4586 22.2865 15.709 22.4012 15.9212 22.5202L16.8294 21.9637C16.8931 21.9297 16.9398 21.9339 16.9907 21.9849L17.4406 22.4267C17.4915 22.4734 17.4915 22.5244 17.4533 22.5839L16.8931 23.493C16.9949 23.6841 17.1223 23.9475 17.1859 24.2321L18.23 24.4785C18.2979 24.4955 18.3234 24.5252 18.3234 24.6017V25.2304C18.3234 25.3026 18.2936 25.3409 18.23 25.3494L17.1817 25.6C17.118 25.8676 17.0034 26.1268 16.8846 26.3264L17.4491 27.2397C17.483 27.2992 17.483 27.3459 17.4321 27.3927L16.9865 27.843C16.9355 27.8939 16.8846 27.8982 16.8294 27.8642L15.9169 27.2992C15.7047 27.4309 15.4628 27.5371 15.1827 27.6051L14.928 28.6501C14.9153 28.7138 14.8814 28.7435 14.8092 28.7435H14.1683ZM14.4909 26.5218C15.3737 26.5218 16.0994 25.7954 16.0994 24.9076C16.0994 24.0282 15.3737 23.3018 14.4909 23.3018C13.6039 23.3018 12.8739 24.0282 12.8739 24.9076C12.8739 25.7954 13.6039 26.5218 14.4909 26.5218ZM14.4909 25.7869C14.0071 25.7869 13.6124 25.3918 13.6124 24.9076C13.6124 24.4318 14.0113 24.0367 14.4909 24.0367C14.962 24.0367 15.3567 24.4318 15.3567 24.9076C15.3567 25.3876 14.962 25.7869 14.4909 25.7869Z" fill="black" stroke="black" stroke-width="0.257143"/>
</g>
<path id="gearshape.2" d="M12.1759 19.4091H13.4037C13.9465 19.4091 14.3975 19.0667 14.5061 18.5489L14.7065 17.6719C14.7232 17.5634 14.7483 17.5216 14.7734 17.5049L15.692 18.0478C16.143 18.315 16.6943 18.2566 17.0701 17.8807L17.9136 17.0289C18.3145 16.628 18.373 16.0851 18.0807 15.6425L17.496 14.7154C17.496 14.6987 17.5044 14.6904 17.5044 14.7238L18.5567 14.4649C19.0662 14.3396 19.417 13.8969 19.417 13.3541V12.2182C19.417 11.6753 19.0745 11.2327 18.5567 11.1074L17.5044 10.8569C17.5044 10.8569 17.5044 10.8569 17.496 10.8569L18.0807 9.93817C18.373 9.47882 18.3145 8.94431 17.9136 8.55177L17.0701 7.69154C16.6943 7.31571 16.143 7.25724 15.692 7.5245L14.7232 8.10078C14.7149 8.10078 14.7065 8.10078 14.7316 8.09242L14.5061 7.02339C14.3975 6.50558 13.9549 6.17151 13.4037 6.17151H12.1759C11.6331 6.17151 11.1904 6.50558 11.0735 7.02339L10.8397 8.09242C10.848 8.09242 10.848 8.09242 10.848 8.10078L9.8959 7.5245C9.4449 7.25724 8.89368 7.31571 8.51785 7.69154L7.66596 8.55177C7.27343 8.94431 7.22332 9.48718 7.49893 9.93817L8.09191 10.8652C8.08355 10.8736 8.08355 10.8819 8.0752 10.8569L7.02287 11.1074C6.50506 11.2327 6.17099 11.6753 6.17099 12.2182V13.3541C6.17099 13.8969 6.50506 14.3396 7.02287 14.4649L8.0752 14.7238C8.08355 14.7154 8.08355 14.7154 8.08355 14.7154L7.49893 15.6425C7.21497 16.0851 7.27343 16.628 7.66596 17.0289L8.51785 17.8807C8.89368 18.2566 9.43655 18.315 9.88754 18.0478L10.8146 17.5049C10.8313 17.5049 10.8647 17.5133 10.8814 17.6719L11.0735 18.5489C11.1904 19.0667 11.6331 19.4091 12.1759 19.4091ZM12.343 18.1229C12.2678 18.1229 12.2678 18.1146 12.2511 18.0394L11.8836 16.511C11.4493 16.4192 11.0735 16.2271 10.7728 16.06L9.4449 16.8702C9.36973 16.9036 9.36138 16.9119 9.30292 16.8535L8.67653 16.2438C8.61807 16.1853 8.62642 16.1853 8.66818 16.1102L9.46995 14.7989C9.36973 14.54 9.12753 14.1475 9.03566 13.6798L7.53233 13.3207C7.44882 13.304 7.44882 13.304 7.44882 13.2204V12.3518C7.44882 12.2683 7.44882 12.2683 7.53233 12.2516L9.03566 11.8925C9.12753 11.4331 9.36973 11.0406 9.46995 10.7817L8.66818 9.46212C8.62642 9.38695 8.61807 9.38695 8.67653 9.33684L9.30292 8.71881C9.36138 8.66035 9.36973 8.6687 9.4449 8.71046L10.7728 9.51223C11.0735 9.3452 11.4493 9.1531 11.8836 9.06123L12.2511 7.54121C12.2678 7.45769 12.2678 7.45769 12.343 7.45769H13.2366C13.3201 7.45769 13.3201 7.45769 13.3368 7.54121L13.7043 9.06123C14.1303 9.1531 14.5144 9.3452 14.8151 9.51223L16.143 8.71046C16.2182 8.6687 16.2266 8.66035 16.2767 8.71881L16.9114 9.33684C16.9615 9.38695 16.9615 9.38695 16.9198 9.46212L16.118 10.7817C16.2099 11.0406 16.4604 11.4331 16.5439 11.8925L18.0556 12.2516C18.1308 12.2683 18.1391 12.2683 18.1391 12.3518V13.2204C18.1391 13.304 18.1308 13.304 18.0556 13.3207L16.5439 13.6798C16.4604 14.1475 16.2099 14.54 16.118 14.7989L16.9198 16.1102C16.9615 16.1853 16.9615 16.1853 16.9114 16.2438L16.2767 16.8535C16.2266 16.9119 16.2182 16.9036 16.143 16.8702L14.8151 16.06C14.5144 16.2271 14.1303 16.4192 13.7043 16.511L13.3368 18.0394C13.3201 18.1146 13.3201 18.1229 13.2366 18.1229H12.343ZM12.794 15.3084C14.1637 15.3084 15.2912 14.1725 15.2912 12.7861C15.2912 11.4164 14.1637 10.2889 12.794 10.2889C11.3992 10.2889 10.2801 11.4081 10.2801 12.7861C10.2801 14.1642 11.3992 15.3084 12.794 15.3084ZM12.794 13.9888C12.1342 13.9888 11.5913 13.4543 11.5913 12.7861C11.5913 12.1347 12.1342 11.5918 12.794 11.5918C13.4454 11.5918 13.9799 12.1347 13.9799 12.7861C13.9799 13.4459 13.4454 13.9888 12.794 13.9888ZM23.2504 24.5288H24.2109C24.712 24.5288 25.1379 24.2281 25.2215 23.7688L25.3801 22.9419C25.3801 22.9336 25.3801 22.9336 25.3801 22.9336L26.0984 23.3846C26.5076 23.6351 27.0087 23.585 27.3595 23.2259L28.036 22.5327C28.3868 22.1736 28.4536 21.6725 28.1864 21.2716L27.727 20.57C27.727 20.5617 27.727 20.5533 27.7354 20.5784L28.5538 20.4113C29.0048 20.3195 29.3138 19.9019 29.3138 19.4091V18.4654C29.3138 17.9726 29.0048 17.555 28.5538 17.4632L27.7354 17.2961C27.727 17.2961 27.727 17.2961 27.727 17.2961L28.1864 16.6029C28.4536 16.202 28.3868 15.7009 28.036 15.3334L27.3595 14.6486C27.0087 14.2895 26.5076 14.2394 26.0984 14.4899L25.3718 14.9409C25.3634 14.9409 25.3551 14.9409 25.3801 14.9326L25.2215 14.0974C25.1379 13.6464 24.712 13.3457 24.2109 13.3457H23.2504C22.7493 13.3457 22.3234 13.6464 22.2399 14.0974L22.0812 14.9326V14.9409L21.3629 14.4899C20.9537 14.2394 20.4526 14.2895 20.1018 14.6486L19.4253 15.3334C19.0745 15.7009 19.0077 16.202 19.275 16.6029L19.7343 17.3045C19.7343 17.3128 19.7343 17.3212 19.726 17.2961L18.9075 17.4632C18.4481 17.555 18.1475 17.9726 18.1475 18.4654V19.4091C18.1475 19.9019 18.4481 20.3195 18.9075 20.4113L19.726 20.5784H19.7343L19.275 21.2716C19.0077 21.6725 19.0745 22.1736 19.4253 22.5327L20.1018 23.2259C20.4526 23.585 20.9537 23.6351 21.3629 23.3846L22.0895 22.9336C22.0979 22.9336 22.1062 22.9336 22.0812 22.9419L22.2399 23.7688C22.3234 24.2281 22.7493 24.5288 23.2504 24.5288ZM23.4759 23.3094C23.3841 23.3094 23.3674 23.2844 23.3507 23.2008L23.0416 21.9815C22.6992 21.9063 22.3818 21.781 22.0561 21.5639L20.9787 22.232C20.9203 22.2571 20.8785 22.2654 20.8201 22.2153L20.4442 21.8311C20.3858 21.7643 20.3858 21.7226 20.4192 21.6725L21.0623 20.6368C21.0122 20.428 20.7532 20.0439 20.6781 19.6096L19.4587 19.3256C19.3835 19.3089 19.3585 19.2838 19.3585 19.2087V18.6658C19.3585 18.5906 19.3835 18.5656 19.4587 18.5489L20.6781 18.2649C20.7532 17.8306 21.0122 17.4464 21.0623 17.2377L20.4192 16.202C20.3858 16.1519 20.3858 16.1102 20.4442 16.0433L20.8201 15.6592C20.8785 15.6007 20.9203 15.609 20.9787 15.6425L22.0561 16.3106C22.3818 16.0935 22.6992 15.9682 23.0416 15.893L23.3507 14.6736C23.3674 14.5901 23.3841 14.5651 23.4759 14.5651H23.9854C24.0773 14.5651 24.094 14.5901 24.1107 14.6736L24.4113 15.893C24.7621 15.9682 25.0795 16.0935 25.4052 16.3106L26.4826 15.6425C26.5327 15.609 26.5828 15.6007 26.6413 15.6592L27.0171 16.0433C27.0756 16.1102 27.0756 16.1519 27.0422 16.202L26.3991 17.2377C26.4492 17.4464 26.7081 17.8306 26.7832 18.2649L28.0026 18.5489C28.0778 18.5656 28.1028 18.5906 28.1028 18.6658V19.2087C28.1028 19.2838 28.0778 19.3089 28.0026 19.3256L26.7832 19.6096C26.7081 20.0439 26.4492 20.428 26.3991 20.6368L27.0422 21.6725C27.0756 21.7226 27.0756 21.7643 27.0171 21.8311L26.6413 22.2153C26.5828 22.2654 26.5327 22.2571 26.4826 22.232L25.4052 21.5639C25.0795 21.781 24.7621 21.9063 24.4113 21.9815L24.1107 23.2008C24.094 23.2844 24.0773 23.3094 23.9854 23.3094H23.4759ZM23.7265 20.8957C24.7955 20.8957 25.6808 20.0105 25.6808 18.9331C25.6808 17.8724 24.7955 16.9871 23.7265 16.9871C22.6491 16.9871 21.7638 17.864 21.7638 18.9331C21.7638 20.0021 22.6491 20.8957 23.7265 20.8957ZM23.7933 19.8267C23.3256 19.8267 22.9581 19.4592 22.9581 18.9915C22.9581 18.5405 23.3256 18.1814 23.7933 18.1814C24.2276 18.1814 24.5951 18.5405 24.5951 18.9915C24.5951 19.4509 24.2276 19.8267 23.7933 19.8267Z" fill="black"/>
</g>
</g>
<defs>
<clipPath id="clip0_2890_55879">
<rect width="36" height="36" fill="white"/>
</clipPath>
</defs>
</svg>
