<svg width="60" height="60" viewBox="0 0 36 36" fill="none" xmlns="http://www.w3.org/2000/svg">
<path d="M28.1001 27.3C28.0001 27.2 27.8001 27.1 27.6001 27.1C27.4001 27.1 27.3001 27.3 27.2001 27.4C27.2001 27.5 27.2001 27.6 27.1001 27.7C27.1001 27.8 27.1001 28 27.1001 28.2C27.1001 28.7 27.1001 29.6 26.9001 29.9L26.8001 30H9.5001C8.9001 30 8.7001 29.8 8.7001 29.2V7.8C8.6001 7.3 8.9001 7 9.5001 7H22.5001C22.6001 7 22.6001 7.1 22.6001 7.1C22.6001 7.4 22.6001 7.6 22.6001 7.9C22.6001 8.5 22.6001 9.1 22.6001 9.7C22.6001 10.2 22.7001 10.6 23.0001 10.9C23.3001 11.2 23.8001 11.4 24.3001 11.4C24.9001 11.4 25.4001 11.4 26.0001 11.4C26.3001 11.4 26.7001 11.4 27.0001 11.4C27.1001 11.4 27.1001 11.4 27.1001 11.4C27.1001 11.4 27.1001 11.4 27.1001 11.5C27.1001 12 27.1001 14 27.1001 14.5C27.1001 14.7 27.2001 14.8 27.3001 14.9C27.4001 15 27.5001 15 27.7001 15C28.0001 15 28.2001 14.8 28.2001 14.4C28.2001 13.9 28.2001 11.8 28.2001 11.3C28.2001 11.1 28.2001 10.9 28.1001 10.7C28.0001 10.5 27.9001 10.3 27.7001 10.2C26.4001 9 25.1001 7.7 23.8001 6.5C23.6001 6.3 23.5001 6.2 23.2001 6.1C23.1001 6.1 22.9001 6 22.7001 6C18.2001 6 13.8001 6 9.3001 6C8.7001 6 8.3001 6.3 7.9001 6.7C7.7001 7 7.6001 7.4 7.6001 7.8V29.3C7.6001 29.6 7.7001 30 8.0001 30.3C8.2001 30.6 8.5001 30.8 8.9001 30.9C9.0001 30.9 9.1001 31 9.3001 31H27.2001C27.3001 31 27.4001 31 27.4001 30.9C28.4001 30.6 28.3001 28.3 28.2001 27.5C28.2001 27.5 28.1001 27.4 28.1001 27.3ZM23.7001 9.8V7.8L26.3001 10.3H24.2001C23.8001 10.3 23.7001 10.2 23.7001 9.8Z" fill="black"/>
<path d="M12.3002 15C12.2002 15.1 12.2002 15.2 12.2002 15.4C12.2002 15.5 12.3002 15.7 12.5002 15.8C12.9002 16 13.3002 16.2 13.8002 16.2C13.8002 16.3 13.8002 16.4 13.8002 16.5C13.8002 16.8 14.0002 17 14.3002 17C14.6002 17 14.8002 16.8 14.8002 16.5C14.8002 16.4 14.8002 16.3 14.8002 16.2C14.9002 16.2 14.9002 16.2 15.0002 16.2C15.4002 16.1 15.8002 15.8 16.1002 15.5C16.4002 15.2 16.5002 14.7 16.5002 14.3C16.5002 13.4 16.0002 12.8 15.1002 12.4C15.0002 12.4 14.9002 12.3 14.9002 12.3C14.9002 11.8 14.9002 11.2 14.9002 10.6C15.0002 10.7 15.2002 10.7 15.3002 10.8C15.6002 11 15.9002 10.9 16.0002 10.7C16.1002 10.6 16.1002 10.5 16.1002 10.3C16.1002 10.2 16.0002 10 15.9002 9.90001C15.8002 9.80001 15.6002 9.70001 15.5002 9.70001C15.3002 9.60001 15.2002 9.60001 15.0002 9.50001H14.9002C14.9002 9.40001 14.9002 9.30001 14.9002 9.20001C14.9002 8.90001 14.7002 8.70001 14.4002 8.70001C14.1002 8.70001 13.9002 8.90001 13.9002 9.20001C13.9002 9.30001 13.9002 9.40001 13.9002 9.50001C13.1002 9.80001 12.6002 10.3 12.5002 11.1C12.4002 11.9 12.8002 12.5 13.6002 12.8C13.9002 12.9 13.9002 13 13.9002 13.3C13.9002 13.8 13.9002 14.3 13.9002 14.7C13.9002 14.8 13.9002 15 13.9002 15.1C13.6002 15.1 13.4002 15 13.2002 14.8C12.8002 14.7 12.4002 14.7 12.3002 15ZM13.8002 10.6V11.7C13.5002 11.5 13.4002 11.4 13.5002 11.1C13.5002 10.9 13.6002 10.7 13.8002 10.6ZM14.9002 15V13.3C15.3002 13.4 15.5002 13.7 15.5002 14C15.5002 14.2 15.4002 14.5 15.3002 14.6C15.2002 14.8 15.0002 14.9 14.9002 15Z" fill="black"/>
<path d="M18.3001 22.5H11.0001C10.5001 22.5 10.1001 22.7 10.1001 23.2C10.1001 23.4 10.2001 23.5 10.3001 23.6C10.4001 23.8 10.7001 23.8 11.0001 23.8H18.3001C18.6001 23.8 18.9001 23.7 19.0001 23.6C19.1001 23.5 19.2001 23.3 19.2001 23.2C19.2001 22.7 18.8001 22.5 18.3001 22.5Z" fill="black"/>
<path d="M18.3001 25.6H11.0001C10.7001 25.6 10.4001 25.7 10.3001 25.8C10.2001 25.9 10.1001 26.1 10.1001 26.3C10.1001 26.5 10.2001 26.9 11.0001 26.9H15.7001C16.6001 26.9 17.4001 26.9 18.3001 26.9C18.6001 26.9 18.9001 26.9 19.1001 26.5C19.2001 26.3 19.2001 26.1 19.1001 25.9C19.0001 25.7 18.7001 25.6 18.3001 25.6Z" fill="black"/>
<path d="M10.9001 19.9C10.8001 19.9 10.6001 19.9 10.5001 20C10.3001 20.2 10.1001 20.4 10.1001 20.6C10.1001 20.8 10.3001 21 10.6001 21.2C10.7001 21.3 10.8001 21.3 10.9001 21.3H11.0001H11.1001H14.7001C15.9001 21.3 17.1001 21.3 18.2001 21.3C18.3001 21.3 18.5001 21.3 18.6001 21.3C18.8001 21.3 19.0001 21.2 19.1001 21C19.2001 20.9 19.2001 20.8 19.2001 20.6C19.2001 20.4 19.0001 20.2 18.8001 20.1L18.7001 20C18.6001 19.9 18.5001 19.9 18.4001 19.9H10.9001Z" fill="black"/>
<path d="M34.2002 23.3H33.7002V21.7C33.7002 18.3 31.0002 15.5 27.7002 15.5C24.4002 15.5 21.7002 18.3 21.7002 21.7V23.3H21.2002C20.9002 23.3 20.7002 23.5 20.7002 23.8V25.7C20.7002 26 20.9002 26.2 21.2002 26.2H34.1002C34.4002 26.2 34.6002 26 34.6002 25.7V23.8C34.8002 23.5 34.5002 23.3 34.2002 23.3ZM22.8002 21.7C22.8002 18.9 25.0002 16.6 27.8002 16.6C30.5002 16.6 32.8002 18.9 32.8002 21.7V23.3H22.8002V21.7ZM33.7002 25.2H21.8002V24.3H33.7002V25.2Z" fill="black"/>
<path d="M33.7002 25.2H21.8002V24.3H33.7002V25.2Z" fill="#FFA600"/>
<path d="M22.8002 21.7C22.8002 18.9 25.0002 16.6 27.8002 16.6C30.5002 16.6 32.8002 18.9 32.8002 21.7V23.3H22.8002V21.7Z" fill="#FFA600"/>
</svg>
