<svg width="36" height="36" viewBox="0 0 36 36" fill="none" xmlns="http://www.w3.org/2000/svg">
<path d="M12.3426 20.8285L15.6855 17.2285L19.0283 20.3142L15.1712 23.9142V26.7428L12.3426 29.0571H11.3141L12.0855 27.5142L12.3426 26.2285L11.3141 24.9428L10.0283 24.4285L8.99971 24.9428L7.45685 26.9999L7.19971 26.7428V24.9428L7.71399 22.8857L8.99971 21.3428L12.3426 20.8285Z" fill="#FFA600"/>
<path d="M20.8286 12.3431L17.7429 15.4288L17.4858 15.6859L20.3143 18.5145L23.6572 15.1716H26.7429L29.0572 12.6002V11.0573L28.2858 11.5716L27 12.3431H26.2286L24.9429 11.3145L24.4286 10.2859L24.6858 9.25734L27 7.45733L25.9715 7.2002H24.6858L22.6286 7.71448L21.3429 9.0002L20.8286 12.3431Z" fill="#FFA600"/>
<mask id="mask0_4684_37728" style="mask-type:alpha" maskUnits="userSpaceOnUse" x="5" y="5" width="26" height="26">
<path d="M30.6856 5.67346H5.68555V30.6735H30.6856V5.67346Z" fill="white"/>
<path d="M24.7166 6.7266C23.4205 6.89547 21.9418 7.58004 21.2253 8.34219C20.7963 8.80314 20.7826 8.84878 20.5316 10.6378L20.308 12.2214L18.8384 13.691L17.3643 15.1651L16.0499 13.8507C15.1463 12.9471 14.7493 12.5181 14.7675 12.4725C14.7812 12.4359 14.8268 12.2443 14.8679 12.0526C14.9318 11.7559 14.9318 11.6464 14.8862 11.3224C14.8177 10.8477 14.5621 10.3001 14.2746 10.0217C14.0784 9.83 9.79744 7.01869 9.57837 6.93654C9.33649 6.84526 9.22696 6.92285 8.18185 7.96796C7.18693 8.95831 7.16412 8.98569 7.16412 9.16824C7.16412 9.3371 7.31472 9.58355 8.65192 11.6327C9.46884 12.8832 10.1717 13.9466 10.2128 13.9922C10.3406 14.1382 10.7879 14.4075 11.0891 14.5216C11.3401 14.6174 11.4633 14.6357 11.8877 14.6311C12.2118 14.6311 12.4628 14.6083 12.5997 14.5627L12.8142 14.4942L14.1194 15.7995L15.4247 17.1047L13.7954 18.7294L12.1616 20.3496L10.5871 20.5687C8.81622 20.8151 8.77514 20.8288 8.3142 21.2578C7.64332 21.8785 7.01351 23.1472 6.76706 24.3703C6.6484 24.959 6.6621 26.0635 6.78988 26.5427C6.92223 27.0356 7.10479 27.4235 7.26452 27.5559C7.406 27.6745 7.61137 27.7019 7.75741 27.6243C7.80305 27.6015 8.03124 27.2638 8.26399 26.8758C8.84816 25.9038 9.33649 25.2192 9.57381 25.0549C9.9663 24.7719 10.4912 24.8404 11.1119 25.2557C11.6641 25.6254 11.9243 26.0407 11.9243 26.5564C11.9197 26.8393 11.9197 26.8439 11.331 27.8388C10.6236 29.0254 10.5871 29.0939 10.5871 29.2399C10.5871 29.3038 10.6464 29.4225 10.7194 29.5046L10.8518 29.6552L11.4816 29.6689C11.8238 29.678 12.1753 29.6735 12.2574 29.6552C12.408 29.6278 13.3482 28.9433 14.2837 28.1765C14.9044 27.6654 15.4795 27.0949 15.5707 26.8941C15.6301 26.7617 15.6483 26.4742 15.6666 25.2785L15.6894 23.8227L17.2822 22.2299C18.1539 21.3582 18.8886 20.6417 18.9115 20.6417C18.9343 20.6417 19.2218 20.9064 19.5504 21.235L20.1482 21.8237L19.5641 22.4124C19.021 22.9647 18.9845 23.0103 18.9845 23.1792C18.9845 23.3526 19.0347 23.4073 21.8232 26.1913C24.4063 28.7653 24.6938 29.0391 24.9859 29.1851C25.5427 29.4727 25.9169 29.5639 26.5148 29.5594C27.1217 29.5548 27.5599 29.4361 28.0665 29.1441C28.4361 28.9296 29.1755 28.1994 29.3854 27.8388C29.7323 27.2455 29.892 26.5062 29.8053 25.8718C29.714 25.2283 29.5223 24.7856 29.1116 24.2699C28.7236 23.7816 23.6761 18.7796 23.5392 18.7477C23.3018 18.6884 23.1695 18.7705 22.6127 19.3227L22.0605 19.8658L21.4581 19.2588L20.8556 18.6564L22.3252 17.1869L23.7993 15.7219L25.2962 15.6899L26.7886 15.658L26.9894 15.5211C27.3271 15.302 28.0254 14.4988 29.0659 13.1433L29.6182 12.4177V11.6966C29.6182 11.2494 29.5999 10.9253 29.568 10.8569C29.4904 10.6926 29.2257 10.5739 29.0614 10.6378C28.9929 10.6606 28.4589 10.9664 27.8748 11.3132L26.8114 11.9476H26.5148C26.1131 11.9476 25.7846 11.7833 25.4514 11.4228C25.1639 11.117 24.89 10.6059 24.8444 10.3001C24.7531 9.69308 25.1 9.34623 26.8616 8.28287C27.6648 7.79454 27.7516 7.68044 27.5873 7.36097C27.464 7.11909 26.8205 6.84983 26.104 6.74486C25.6294 6.67184 25.2004 6.66727 24.7166 6.7266ZM25.9671 7.62567L26.1725 7.65762L25.9443 7.78997C25.4514 8.07749 24.7486 8.58408 24.5204 8.81227C24.0777 9.26408 23.8723 9.86194 23.9636 10.4279C24.1279 11.4502 24.9631 12.4633 25.8713 12.7508C26.2227 12.8604 26.816 12.8786 27.0898 12.7919C27.1856 12.76 27.5918 12.5409 27.9843 12.3036C28.3768 12.0708 28.71 11.8792 28.7236 11.8792C28.7373 11.8792 28.751 11.9294 28.751 11.9887C28.751 12.1986 26.7019 14.7315 26.5011 14.7726C26.4463 14.7863 25.8074 14.8046 25.0772 14.8228C24.3515 14.8365 23.6624 14.8685 23.5528 14.8867C23.3703 14.9232 23.2562 15.0236 22.2293 16.0368C21.6132 16.6483 20.9058 17.3466 20.6594 17.5839L20.2167 18.0175L19.8425 17.6433L19.4682 17.269L21.0062 15.6991C22.2111 14.4668 22.5442 14.0972 22.5442 14.0059C22.5442 13.8279 22.4484 13.659 22.3115 13.586C22.0148 13.4354 22.0422 13.4126 20.3764 15.0738L18.8247 16.6255L18.414 16.2148L18.0033 15.804L19.5823 14.2158L21.1614 12.6322L21.3759 11.0805C21.4946 10.2271 21.6132 9.45576 21.636 9.35992C21.7958 8.73468 23.4159 7.83105 24.7166 7.63937C25.0452 7.59373 25.6887 7.5846 25.9671 7.62567ZM11.5135 9.24127C12.5997 9.94866 13.5444 10.5785 13.6129 10.6424C13.6813 10.7063 13.7954 10.8706 13.8593 11.012C14.0282 11.3543 14.0373 11.9248 13.8821 12.2625C13.727 12.6002 12.8781 13.4491 12.5267 13.618C12.0429 13.8507 11.3492 13.7731 10.9613 13.4445C10.8791 13.3715 10.222 12.404 9.49166 11.2859L8.16815 9.25496L8.82078 8.60233C9.17676 8.24635 9.48253 7.95427 9.50535 7.95427C9.52817 7.95427 10.4319 8.53387 11.5135 9.24127ZM17.8435 16.9222L21.4261 20.5048L21.0838 20.847L20.7415 21.1893L17.1726 17.6204C15.2056 15.6534 13.5992 14.0287 13.5992 14.0013C13.5992 13.9557 14.1925 13.3396 14.2381 13.3396C14.2518 13.3396 15.872 14.9506 17.8435 16.9222ZM16.4607 18.1407C16.6706 18.3506 16.8395 18.5378 16.8395 18.5651C16.8395 18.588 16.091 19.3592 15.1737 20.2766C13.517 21.9332 13.5079 21.9424 13.5079 22.134C13.5079 22.3759 13.6996 22.5585 13.9551 22.5585C14.1149 22.5585 14.2062 22.4718 15.7898 20.8927C16.7071 19.9754 17.4784 19.2269 17.5012 19.2269C17.5286 19.2269 17.7112 19.3912 17.912 19.592L18.2771 19.9571L16.6022 21.6366C15.6848 22.5585 14.909 23.3571 14.8816 23.4119C14.8223 23.5306 14.7401 24.9499 14.7401 25.8992V26.5655L14.3978 26.885C14.0464 27.2136 13.047 28.0259 12.4035 28.5097C12.1524 28.6968 12.0201 28.7698 11.9379 28.7561C11.8284 28.7424 11.8421 28.7196 12.262 28.0122C12.5039 27.6106 12.7275 27.1816 12.764 27.0538C12.8872 26.5975 12.8188 26.0681 12.5814 25.5706C12.3989 25.1918 11.8695 24.6487 11.4314 24.3931C10.9111 24.0874 10.6327 24.0052 10.1079 24.0006C9.67878 23.9961 9.63314 24.0052 9.34105 24.1512C9.1585 24.238 8.92118 24.4068 8.76601 24.562C8.52413 24.7993 7.66614 26.0178 7.66614 26.1228C7.66614 26.1502 7.64788 26.1593 7.62962 26.1456C7.56117 26.1046 7.52922 25.3789 7.57486 24.9545C7.69352 23.9367 8.19554 22.7136 8.75232 22.1021C9.14025 21.6685 9.10374 21.6822 10.8152 21.4403C11.655 21.3262 12.4171 21.2122 12.5039 21.1893C12.6316 21.1528 13.0241 20.7832 14.3522 19.4551C15.2787 18.5286 16.0499 17.7665 16.0636 17.7665C16.0728 17.7665 16.2553 17.9353 16.4607 18.1407ZM25.9945 22.3851C27.8885 24.2882 28.5822 25.0138 28.6734 25.1872C29.0249 25.8627 29.002 26.7252 28.6141 27.3687C28.4179 27.6973 27.8246 28.2678 27.5325 28.4138C26.857 28.7561 26.0127 28.7607 25.4331 28.4184C25.068 28.2039 24.7075 27.8616 22.3891 25.5067L20.0615 23.1472L21.7273 21.4814C22.6401 20.5687 23.3977 19.8202 23.4114 19.8202C23.4251 19.8202 24.5888 20.9748 25.9945 22.3851Z" fill="black"/>
</mask>
<g mask="url(#mask0_4684_37728)">
<path d="M24.7166 6.7266C23.4205 6.89547 21.9418 7.58004 21.2253 8.34219C20.7963 8.80314 20.7826 8.84878 20.5316 10.6378L20.308 12.2214L18.8384 13.691L17.3643 15.1651L16.0499 13.8507C15.1463 12.9471 14.7493 12.5181 14.7675 12.4725C14.7812 12.4359 14.8268 12.2443 14.8679 12.0526C14.9318 11.7559 14.9318 11.6464 14.8862 11.3224C14.8177 10.8477 14.5621 10.3001 14.2746 10.0217C14.0784 9.83 9.79744 7.01869 9.57837 6.93654C9.33649 6.84526 9.22696 6.92285 8.18185 7.96796C7.18693 8.95831 7.16412 8.98569 7.16412 9.16824C7.16412 9.3371 7.31472 9.58355 8.65192 11.6327C9.46884 12.8832 10.1717 13.9466 10.2128 13.9922C10.3406 14.1382 10.7879 14.4075 11.0891 14.5216C11.3401 14.6174 11.4633 14.6357 11.8877 14.6311C12.2118 14.6311 12.4628 14.6083 12.5997 14.5627L12.8142 14.4942L14.1194 15.7995L15.4247 17.1047L13.7954 18.7294L12.1616 20.3496L10.5871 20.5687C8.81622 20.8151 8.77514 20.8288 8.3142 21.2578C7.64332 21.8785 7.01351 23.1472 6.76706 24.3703C6.6484 24.959 6.6621 26.0635 6.78988 26.5427C6.92223 27.0356 7.10479 27.4235 7.26452 27.5559C7.406 27.6745 7.61137 27.7019 7.75741 27.6243C7.80305 27.6015 8.03124 27.2638 8.26399 26.8758C8.84816 25.9038 9.33649 25.2192 9.57381 25.0549C9.9663 24.7719 10.4912 24.8404 11.1119 25.2557C11.6641 25.6254 11.9243 26.0407 11.9243 26.5564C11.9197 26.8393 11.9197 26.8439 11.331 27.8388C10.6236 29.0254 10.5871 29.0939 10.5871 29.2399C10.5871 29.3038 10.6464 29.4225 10.7194 29.5046L10.8518 29.6552L11.4816 29.6689C11.8238 29.678 12.1753 29.6735 12.2574 29.6552C12.408 29.6278 13.3482 28.9433 14.2837 28.1765C14.9044 27.6654 15.4795 27.0949 15.5707 26.8941C15.6301 26.7617 15.6483 26.4742 15.6666 25.2785L15.6894 23.8227L17.2822 22.2299C18.1539 21.3582 18.8886 20.6417 18.9115 20.6417C18.9343 20.6417 19.2218 20.9064 19.5504 21.235L20.1482 21.8237L19.5641 22.4124C19.021 22.9647 18.9845 23.0103 18.9845 23.1792C18.9845 23.3526 19.0347 23.4073 21.8232 26.1913C24.4063 28.7653 24.6938 29.0391 24.9859 29.1851C25.5427 29.4727 25.9169 29.5639 26.5148 29.5594C27.1217 29.5548 27.5599 29.4361 28.0665 29.1441C28.4361 28.9296 29.1755 28.1994 29.3854 27.8388C29.7323 27.2455 29.892 26.5062 29.8053 25.8718C29.714 25.2283 29.5223 24.7856 29.1116 24.2699C28.7236 23.7816 23.6761 18.7796 23.5392 18.7477C23.3018 18.6884 23.1695 18.7705 22.6127 19.3227L22.0605 19.8658L21.4581 19.2588L20.8556 18.6564L22.3252 17.1869L23.7993 15.7219L25.2962 15.6899L26.7886 15.658L26.9894 15.5211C27.3271 15.302 28.0254 14.4988 29.0659 13.1433L29.6182 12.4177V11.6966C29.6182 11.2494 29.5999 10.9253 29.568 10.8569C29.4904 10.6926 29.2257 10.5739 29.0614 10.6378C28.9929 10.6606 28.4589 10.9664 27.8748 11.3132L26.8114 11.9476H26.5148C26.1131 11.9476 25.7846 11.7833 25.4514 11.4228C25.1639 11.117 24.89 10.6059 24.8444 10.3001C24.7531 9.69308 25.1 9.34623 26.8616 8.28287C27.6648 7.79454 27.7516 7.68044 27.5873 7.36097C27.464 7.11909 26.8205 6.84983 26.104 6.74486C25.6294 6.67184 25.2004 6.66727 24.7166 6.7266ZM25.9671 7.62567L26.1725 7.65762L25.9443 7.78997C25.4514 8.07749 24.7486 8.58408 24.5204 8.81227C24.0777 9.26408 23.8723 9.86194 23.9636 10.4279C24.1279 11.4502 24.9631 12.4633 25.8713 12.7508C26.2227 12.8604 26.816 12.8786 27.0898 12.7919C27.1856 12.76 27.5918 12.5409 27.9843 12.3036C28.3768 12.0708 28.71 11.8792 28.7236 11.8792C28.7373 11.8792 28.751 11.9294 28.751 11.9887C28.751 12.1986 26.7019 14.7315 26.5011 14.7726C26.4463 14.7863 25.8074 14.8046 25.0772 14.8228C24.3515 14.8365 23.6624 14.8685 23.5528 14.8867C23.3703 14.9232 23.2562 15.0236 22.2293 16.0368C21.6132 16.6483 20.9058 17.3466 20.6594 17.5839L20.2167 18.0175L19.8425 17.6433L19.4682 17.269L21.0062 15.6991C22.2111 14.4668 22.5442 14.0972 22.5442 14.0059C22.5442 13.8279 22.4484 13.659 22.3115 13.586C22.0148 13.4354 22.0422 13.4126 20.3764 15.0738L18.8247 16.6255L18.414 16.2148L18.0033 15.804L19.5823 14.2158L21.1614 12.6322L21.3759 11.0805C21.4946 10.2271 21.6132 9.45576 21.636 9.35992C21.7958 8.73468 23.4159 7.83105 24.7166 7.63937C25.0452 7.59373 25.6887 7.5846 25.9671 7.62567ZM11.5135 9.24127C12.5997 9.94866 13.5444 10.5785 13.6129 10.6424C13.6813 10.7063 13.7954 10.8706 13.8593 11.012C14.0282 11.3543 14.0373 11.9248 13.8821 12.2625C13.727 12.6002 12.8781 13.4491 12.5267 13.618C12.0429 13.8507 11.3492 13.7731 10.9613 13.4445C10.8791 13.3715 10.222 12.404 9.49166 11.2859L8.16815 9.25496L8.82078 8.60233C9.17676 8.24635 9.48253 7.95427 9.50535 7.95427C9.52817 7.95427 10.4319 8.53387 11.5135 9.24127ZM17.8435 16.9222L21.4261 20.5048L21.0838 20.847L20.7415 21.1893L17.1726 17.6204C15.2056 15.6534 13.5992 14.0287 13.5992 14.0013C13.5992 13.9557 14.1925 13.3396 14.2381 13.3396C14.2518 13.3396 15.872 14.9506 17.8435 16.9222ZM16.4607 18.1407C16.6706 18.3506 16.8395 18.5378 16.8395 18.5651C16.8395 18.588 16.091 19.3592 15.1737 20.2766C13.517 21.9332 13.5079 21.9424 13.5079 22.134C13.5079 22.3759 13.6996 22.5585 13.9551 22.5585C14.1149 22.5585 14.2062 22.4718 15.7898 20.8927C16.7071 19.9754 17.4784 19.2269 17.5012 19.2269C17.5286 19.2269 17.7112 19.3912 17.912 19.592L18.2771 19.9571L16.6022 21.6366C15.6848 22.5585 14.909 23.3571 14.8816 23.4119C14.8223 23.5306 14.7401 24.9499 14.7401 25.8992V26.5655L14.3978 26.885C14.0464 27.2136 13.047 28.0259 12.4035 28.5097C12.1524 28.6968 12.0201 28.7698 11.9379 28.7561C11.8284 28.7424 11.8421 28.7196 12.262 28.0122C12.5039 27.6106 12.7275 27.1816 12.764 27.0538C12.8872 26.5975 12.8188 26.0681 12.5814 25.5706C12.3989 25.1918 11.8695 24.6487 11.4314 24.3931C10.9111 24.0874 10.6327 24.0052 10.1079 24.0006C9.67878 23.9961 9.63314 24.0052 9.34105 24.1512C9.1585 24.238 8.92118 24.4068 8.76601 24.562C8.52413 24.7993 7.66614 26.0178 7.66614 26.1228C7.66614 26.1502 7.64788 26.1593 7.62962 26.1456C7.56117 26.1046 7.52922 25.3789 7.57486 24.9545C7.69352 23.9367 8.19554 22.7136 8.75232 22.1021C9.14025 21.6685 9.10374 21.6822 10.8152 21.4403C11.655 21.3262 12.4171 21.2122 12.5039 21.1893C12.6316 21.1528 13.0241 20.7832 14.3522 19.4551C15.2787 18.5286 16.0499 17.7665 16.0636 17.7665C16.0728 17.7665 16.2553 17.9353 16.4607 18.1407ZM25.9945 22.3851C27.8885 24.2882 28.5822 25.0138 28.6734 25.1872C29.0249 25.8627 29.002 26.7252 28.6141 27.3687C28.4179 27.6973 27.8246 28.2678 27.5325 28.4138C26.857 28.7561 26.0127 28.7607 25.4331 28.4184C25.068 28.2039 24.7075 27.8616 22.3891 25.5067L20.0615 23.1472L21.7273 21.4814C22.6401 20.5687 23.3977 19.8202 23.4114 19.8202C23.4251 19.8202 24.5888 20.9748 25.9945 22.3851Z" fill="black"/>
<path d="M22.6815 22.1526C22.4077 22.2622 22.2981 22.5314 22.4213 22.7687C22.4624 22.8418 23.3843 23.791 24.4705 24.8727C26.474 26.8716 26.4786 26.8762 26.7661 26.8533C26.9213 26.8397 27.1084 26.5932 27.1084 26.4061C27.1084 26.2418 27.0262 26.1505 25.114 24.2337C23.4254 22.5405 22.9234 22.0796 22.8093 22.107C22.8001 22.107 22.7454 22.1298 22.6815 22.1526Z" fill="black"/>
</g>
</svg>
