<svg width="60" height="60" viewBox="0 0 36 36" fill="none" xmlns="http://www.w3.org/2000/svg">
<g id="job-orders">
<path id="Vector 233" d="M7.45717 8.99983H11.8286L12.0857 8.48554H13.8857L14.1429 7.97126L15.1715 7.19983H16.7143L17.7429 8.48554H19.5429V8.99983H23.9143L24.6857 9.77126V15.4284H23.1429L22.8857 10.2855H19.5429V11.057H11.8286V10.2855L8.48574 10.5427V28.0284H23.1429V25.457H24.6857V28.5427L23.9143 29.5713H7.71431L6.94289 28.5427V10.5427L7.45717 8.99983Z" fill="#FFA600"/>
<path id="Subtract" fill-rule="evenodd" clip-rule="evenodd" d="M22.1143 17.2286L23.4 16.7143V15.4286H24.6858L24.9429 16.7143L25.9715 17.2286L27.2572 16.7143L28.0286 17.4857L27.2572 18.5143L27.5143 19.5429L29.0572 19.8V21.0857L27.5143 21.6L27.2572 22.3714L28.0286 23.6572L27 24.4286L25.9715 23.6572L24.9429 24.1714L24.6858 25.2H23.4L23.1429 24.1714L22.3715 23.6572L21.0858 24.1714L20.3143 23.6572L20.8286 22.3714L20.3143 21.3429L19.2858 21.0857V19.8L20.5715 19.2857L20.8286 18.5143L20.3143 17.4857L21.0858 16.7143L22.1143 17.2286ZM24.1714 22.1142C25.3076 22.1142 26.2286 21.3083 26.2286 20.3142C26.2286 19.32 25.3076 18.5142 24.1714 18.5142C23.0353 18.5142 22.1143 19.32 22.1143 20.3142C22.1143 21.3083 23.0353 22.1142 24.1714 22.1142Z" fill="#FFA600"/>
<g id="Group">
<path id="Vector" d="M15.2833 6.75249C14.7267 6.90184 14.2243 7.29104 13.9664 7.77981L13.8532 7.99251H12.8214H11.7895L11.6809 8.10565C11.5995 8.18259 11.5678 8.26405 11.5678 8.39529V8.57632L9.65796 8.58989C7.75268 8.60347 7.74363 8.60347 7.50377 8.71209C7.18698 8.8569 6.85661 9.21895 6.75704 9.53575C6.68463 9.76203 6.68011 10.4861 6.68916 19.3066L6.70274 28.833L6.79777 29.0412C6.92449 29.3127 7.21866 29.6069 7.49019 29.7336L7.69837 29.8286H15.7992H23.9001L24.1083 29.7336C24.3798 29.6069 24.6468 29.3398 24.7871 29.0547C24.8957 28.833 24.8957 28.8194 24.9093 27.2535C24.9229 25.7375 24.9274 25.6741 25.0134 25.6017C25.0858 25.5429 25.1265 25.3935 25.208 24.8821C25.2668 24.5246 25.3302 24.2214 25.3528 24.2033C25.4524 24.1173 25.914 23.9634 25.9683 23.9951C26 24.0177 26.2489 24.1897 26.5204 24.3843C26.8236 24.6015 27.059 24.7373 27.1268 24.7373C27.2128 24.7373 27.3893 24.5925 27.8238 24.1625C28.5569 23.4384 28.5479 23.4837 28.0274 22.7641C27.8238 22.479 27.6609 22.2165 27.6699 22.1803C27.6744 22.1441 27.7288 22.0083 27.7921 21.8726L27.8962 21.6282L28.5434 21.5241C29.444 21.3748 29.3987 21.4336 29.3987 20.4199C29.3987 19.388 29.4394 19.4378 28.5434 19.2975L27.8917 19.1934L27.765 18.8947L27.6428 18.5915L28.0229 18.062C28.5524 17.3243 28.5569 17.356 27.8419 16.65C27.3758 16.1884 27.2626 16.0934 27.1495 16.0934C27.0092 16.0934 26.9096 16.1522 26.2896 16.6002L25.914 16.8718L25.6198 16.7496C25.4569 16.6772 25.3256 16.6229 25.3256 16.6183C25.3211 16.6138 25.2713 16.3196 25.2125 15.9621C25.131 15.4734 25.0813 15.2878 25.0134 15.2154C24.9229 15.1204 24.9229 15.0615 24.9093 12.3597L24.8957 9.59911L24.7735 9.37283C24.6197 9.08319 24.3662 8.8388 24.0811 8.70756C23.8593 8.60347 23.8277 8.60347 21.945 8.58989L20.0307 8.57632V8.39529C20.0307 8.26405 19.999 8.18259 19.9175 8.10565L19.8089 7.99251H18.768H17.7271L17.623 7.77528C17.4873 7.4947 17.0754 7.08286 16.7813 6.93352C16.2925 6.68461 15.7675 6.62125 15.2833 6.75249ZM16.2337 7.48112C16.5686 7.58973 16.9533 7.96988 17.0619 8.29573C17.1976 8.70756 17.2203 8.71661 18.3381 8.71661H19.3066V9.66699V10.6174H15.7992H12.2919V9.66699V8.71661H13.2604C14.3872 8.71661 14.3872 8.71661 14.5502 8.26858C14.6226 8.0604 14.704 7.94726 14.8986 7.77076C15.2833 7.41776 15.7313 7.32272 16.2337 7.48112ZM11.5678 9.64436V9.98378H9.97928C8.36364 9.98378 8.2686 9.99284 8.14188 10.1603C8.09663 10.2146 8.08758 12.2285 8.08305 19.2296V28.2265L8.19619 28.3352L8.30481 28.4483H15.7992H23.2936L23.4023 28.3352L23.5154 28.2265V26.9548V25.6831L23.8458 25.6967L24.1716 25.7103V27.2128C24.1716 28.661 24.1671 28.7198 24.0766 28.842C24.0268 28.9099 23.9137 29.005 23.8277 29.0502C23.6828 29.1226 23.2258 29.1271 15.7449 29.1181L7.81604 29.1045L7.68932 29.0095C7.62144 28.9597 7.5264 28.8466 7.48567 28.7606C7.40873 28.6157 7.40421 28.0681 7.40421 19.2251C7.40421 10.735 7.41326 9.82539 7.47662 9.68509C7.65312 9.31852 7.70742 9.30947 9.79373 9.30494H11.5678V9.64436ZM23.8729 9.41808C23.9544 9.46786 24.063 9.581 24.1083 9.66699C24.1897 9.81634 24.1942 9.97473 24.1942 12.4593V15.0977H23.8548H23.5154V12.672V10.2463L23.3842 10.115L23.2529 9.98378H21.6418H20.0307V9.64436V9.30042L21.8771 9.31399C23.624 9.32757 23.7281 9.3321 23.8729 9.41808ZM11.5678 10.8844C11.5678 11.1242 11.604 11.1966 11.7533 11.2736C11.8619 11.3324 12.4503 11.3415 15.7992 11.3415C18.6911 11.3415 19.7456 11.3279 19.818 11.2872C19.9764 11.2057 20.0262 11.1061 20.0307 10.898V10.7079H21.411H22.7913V13.6812V16.6591L22.5379 16.7632C22.4021 16.8175 22.2709 16.8537 22.2482 16.8401C22.2256 16.8265 21.9812 16.65 21.7052 16.4554C21.3386 16.1929 21.1621 16.0934 21.0625 16.0934C20.9449 16.0934 20.8453 16.1703 20.4606 16.5459L20.0035 16.9985H17.5461H15.0887L14.9575 17.1297C14.7945 17.2927 14.79 17.4601 14.9394 17.6094L15.048 17.7226H17.4918H19.9356L20.2479 18.157L20.5602 18.596L20.4697 18.8133L20.3746 19.035H17.7136H15.048L14.9394 19.1482C14.79 19.293 14.79 19.5012 14.9394 19.646L15.048 19.7591H16.9306H18.8088V20.4153V21.0715H16.9125H15.0118L14.9213 21.1892C14.79 21.3567 14.8036 21.506 14.9575 21.6644L15.0887 21.7956H17.7317H20.3746L20.4651 22.0129L20.5602 22.2346L20.2615 22.6465L19.9628 23.0583L17.5054 23.0719L15.0434 23.0854L14.9348 23.2122C14.8036 23.366 14.7945 23.5109 14.9213 23.6692L15.0118 23.7869H17.4873H19.9628L20.3701 24.1987C20.7819 24.6151 20.9539 24.7373 21.1078 24.7373C21.1576 24.7373 21.3884 24.597 21.6192 24.4296C22.3342 23.9091 22.2528 23.9408 22.5424 24.063L22.7913 24.1671V25.9456V27.7242H15.7992H8.80715V19.216V10.7079H10.1875H11.5678V10.8844ZM24.4658 15.8535C24.4658 16.0345 24.6649 17.0437 24.7147 17.1162C24.7509 17.1705 24.8867 17.2519 25.0179 17.2927C25.1492 17.3379 25.4071 17.442 25.5836 17.528C25.8144 17.6366 25.9457 17.6728 26.0135 17.6502C26.0724 17.6366 26.3258 17.4692 26.5792 17.2881C26.8327 17.1026 27.0544 16.9532 27.0771 16.9532C27.0997 16.9532 27.2219 17.0618 27.3531 17.1931L27.5885 17.4329L27.2264 17.9262C27.0001 18.243 26.8644 18.4693 26.8644 18.5417C26.8644 18.6051 26.9322 18.8087 27.0182 18.9943C27.1042 19.1798 27.1947 19.4106 27.2219 19.5147C27.2988 19.8089 27.3758 19.8451 28.0636 19.9537L28.6791 20.0488L28.6656 20.4108L28.652 20.7774L28.0546 20.8679C27.3712 20.9765 27.3079 21.0127 27.2083 21.3612C27.1676 21.4924 27.0771 21.7187 27.0001 21.8635C26.9277 22.0129 26.8644 22.1939 26.8644 22.2618C26.8644 22.3523 26.973 22.5469 27.2264 22.8954L27.593 23.3977L27.3531 23.6376C27.2219 23.7688 27.0997 23.8774 27.0816 23.8774C27.0635 23.8774 26.8372 23.7236 26.5838 23.538C26.3258 23.3479 26.0724 23.185 26.0135 23.1669C25.9457 23.1533 25.7737 23.2031 25.5157 23.3253C25.2985 23.4249 25.0586 23.5199 24.9817 23.5335C24.7283 23.5878 24.6649 23.71 24.5608 24.3345C24.5065 24.6513 24.4658 24.9228 24.4658 24.9364C24.4658 24.95 24.3029 24.9636 24.1083 24.9636C23.6964 24.9636 23.7507 25.0405 23.624 24.2712C23.538 23.7281 23.4611 23.5833 23.2303 23.538C23.1534 23.5199 22.909 23.4249 22.6917 23.3253C22.4293 23.2031 22.2663 23.1488 22.1939 23.1669C22.1351 23.185 21.8771 23.3479 21.6192 23.538C21.3612 23.7236 21.1349 23.8774 21.1214 23.8774C21.1032 23.8774 20.9811 23.7688 20.8498 23.633L20.61 23.3932L20.9765 22.8818C21.1938 22.5786 21.3431 22.3297 21.3431 22.2663C21.3431 22.2029 21.2843 22.04 21.2119 21.8952C21.1395 21.7549 21.0444 21.5196 20.9992 21.3748C20.9539 21.2345 20.8815 21.0806 20.8362 21.0399C20.7774 20.9901 20.5421 20.9313 20.1529 20.8679L19.5555 20.7774L19.5419 20.4108L19.5283 20.0488L20.1483 19.9492C20.5194 19.8949 20.7955 19.827 20.8408 19.7863C20.886 19.7455 20.9539 19.5962 20.9992 19.4559C21.0444 19.3111 21.1395 19.0757 21.2119 18.9355C21.2843 18.7906 21.3431 18.6232 21.3431 18.5553C21.3431 18.4784 21.2164 18.2611 20.9811 17.9353L20.6145 17.4329L20.8543 17.1931C20.9856 17.0618 21.1078 16.9532 21.1259 16.9532C21.144 16.9532 21.3703 17.1026 21.6237 17.2881C21.8817 17.4692 22.1351 17.6366 22.1939 17.6502C22.2663 17.6728 22.3749 17.6457 22.556 17.5506C22.6963 17.4782 22.9542 17.3741 23.1217 17.3153C23.3072 17.2565 23.452 17.1795 23.4882 17.1207C23.538 17.0437 23.7417 16.0119 23.7417 15.849C23.7417 15.8354 23.9046 15.8218 24.1037 15.8218C24.3029 15.8218 24.4658 15.8354 24.4658 15.8535Z" fill="black"/>
<path id="Vector_2" d="M15.505 8.11922C15.3285 8.30025 15.315 8.55821 15.4779 8.74828C15.5684 8.85237 15.6227 8.875 15.7992 8.875C15.9757 8.875 16.03 8.85237 16.1205 8.74828C16.3604 8.46769 16.2065 8.05586 15.8354 8.00608C15.6679 7.98345 15.6317 7.99703 15.505 8.11922Z" fill="black"/>
<path id="Vector_3" d="M12.5892 17.6367C12.1819 18.0078 11.7701 18.3789 11.6705 18.4739L11.485 18.6368L11.141 18.3019C10.8559 18.0304 10.7654 17.967 10.6523 17.967C10.4577 17.967 10.2857 18.139 10.2857 18.3381C10.2857 18.4648 10.3536 18.5508 10.7971 18.9943C11.4578 19.6551 11.4397 19.6506 12.0416 19.112C13.8021 17.5326 13.8157 17.5145 13.8157 17.3334C13.8157 17.1524 13.6392 16.9714 13.4582 16.9714C13.3495 16.9714 13.1912 17.0936 12.5892 17.6367Z" fill="black"/>
<path id="Vector_4" d="M12.4037 21.9184L11.485 22.7511L11.141 22.4162C10.8559 22.1446 10.7654 22.0813 10.6523 22.0813C10.4577 22.0813 10.2857 22.2533 10.2857 22.4524C10.2857 22.5791 10.3536 22.6651 10.7971 23.1086C11.4578 23.7693 11.4397 23.7648 12.0416 23.2263C13.8021 21.6468 13.8157 21.6287 13.8157 21.4477C13.8157 21.2667 13.6392 21.0856 13.4582 21.0856C13.3495 21.0856 13.164 21.235 12.4037 21.9184Z" fill="black"/>
<path id="Vector_5" d="M23.5289 18.1524C22.746 18.3651 22.1215 18.9579 21.8816 19.7092C21.7594 20.0938 21.7504 20.6731 21.859 21.0487C22.1079 21.9041 22.8456 22.5558 23.7326 22.7097C24.6739 22.868 25.6831 22.3702 26.1357 21.5239C26.3439 21.1393 26.4117 20.8496 26.4117 20.3699C26.4072 19.3154 25.7057 18.4239 24.6694 18.1524C24.339 18.0709 23.8457 18.0709 23.5289 18.1524ZM24.7961 18.967C25.14 19.1344 25.4704 19.4965 25.5971 19.8404C25.7284 20.1934 25.7148 20.7682 25.5609 21.0804C25.3935 21.4153 25.1265 21.6869 24.7916 21.8498C24.52 21.9856 24.4521 21.9991 24.1037 21.9991C23.7824 21.9991 23.6737 21.9765 23.461 21.8769C22.402 21.3836 22.1667 20.0395 23.004 19.2566C23.3841 18.8991 23.6466 18.804 24.1716 18.8221C24.4612 18.8357 24.5879 18.8629 24.7961 18.967Z" fill="black"/>
</g>
</g>
</svg>
