<svg width="60" height="60" viewBox="0 0 36 36" fill="none" xmlns="http://www.w3.org/2000/svg">
<g id="materials">
<path id="Vector" d="M8.87656 20.1088H27.4166L26.5423 23.1173L25.0611 21.8985H23.3948L21.888 22.6802L21.4766 24.2951H14.7446L14.004 22.8756L11.8337 21.9396L9.98227 22.2945L8.87656 20.1088Z" fill="#FFA600"/>
<path id="Vector_2" d="M15.5675 18.5708H20.6537C20.7618 18.5708 20.8688 18.5495 20.9686 18.5081C21.0685 18.4668 21.1592 18.4062 21.2356 18.3298C21.312 18.2534 21.3726 18.1626 21.414 18.0628C21.4553 17.963 21.4766 17.856 21.4766 17.7479V16.2051C21.4766 15.9868 21.3899 15.7775 21.2356 15.6232C21.0813 15.4689 20.872 15.3822 20.6537 15.3822H15.5675C15.3492 15.3822 15.1399 15.4689 14.9856 15.6232C14.8313 15.7775 14.7446 15.9868 14.7446 16.2051V17.7479C14.7446 17.856 14.7659 17.963 14.8072 18.0628C14.8486 18.1626 14.9092 18.2534 14.9856 18.3298C15.062 18.4062 15.1527 18.4668 15.2526 18.5081C15.3524 18.5495 15.4594 18.5708 15.5675 18.5708ZM15.7732 16.4313H20.448V17.5422H15.7732V16.4313Z" fill="black"/>
<path id="Vector_3" d="M11.8286 22.8755C11.4777 22.8755 11.1346 22.9795 10.8428 23.1745C10.5511 23.3695 10.3236 23.6466 10.1894 23.9708C10.0551 24.295 10.0199 24.6517 10.0884 24.9959C10.1568 25.3401 10.3258 25.6562 10.574 25.9044C10.8221 26.1525 11.1383 26.3215 11.4824 26.39C11.8266 26.4584 12.1834 26.4233 12.5076 26.289C12.8318 26.1547 13.1089 25.9273 13.3038 25.6355C13.4988 25.3437 13.6029 25.0007 13.6029 24.6498C13.6015 24.1796 13.4141 23.7291 13.0817 23.3967C12.7492 23.0642 12.2987 22.8768 11.8286 22.8755ZM11.8286 25.3955C11.6811 25.3955 11.5369 25.3518 11.4143 25.2698C11.2916 25.1879 11.1961 25.0714 11.1396 24.9351C11.0832 24.7989 11.0684 24.6489 11.0972 24.5043C11.126 24.3596 11.197 24.2268 11.3013 24.1225C11.4056 24.0182 11.5384 23.9472 11.6831 23.9184C11.8277 23.8896 11.9777 23.9044 12.1139 23.9608C12.2502 24.0173 12.3667 24.1128 12.4486 24.2355C12.5306 24.3581 12.5743 24.5023 12.5743 24.6498C12.5743 24.8476 12.4957 25.0372 12.3559 25.1771C12.216 25.3169 12.0264 25.3955 11.8286 25.3955Z" fill="black"/>
<path id="Vector_4" d="M24.1406 22.8755C23.7897 22.8755 23.4466 22.9795 23.1549 23.1745C22.8631 23.3695 22.6357 23.6466 22.5014 23.9708C22.3671 24.295 22.3319 24.6517 22.4004 24.9959C22.4689 25.3401 22.6379 25.6562 22.886 25.9044C23.1341 26.1525 23.4503 26.3215 23.7945 26.39C24.1386 26.4584 24.4954 26.4233 24.8196 26.289C25.1438 26.1547 25.4209 25.9273 25.6159 25.6355C25.8108 25.3437 25.9149 25.0007 25.9149 24.6498C25.9149 24.4168 25.869 24.1861 25.7798 23.9708C25.6907 23.7555 25.56 23.5599 25.3952 23.3952C25.2305 23.2304 25.0349 23.0997 24.8196 23.0105C24.6043 22.9214 24.3736 22.8755 24.1406 22.8755ZM24.1406 25.3955C23.9931 25.3955 23.8489 25.3518 23.7263 25.2698C23.6037 25.1879 23.5081 25.0714 23.4517 24.9351C23.3952 24.7989 23.3804 24.6489 23.4092 24.5043C23.438 24.3596 23.509 24.2268 23.6133 24.1225C23.7176 24.0182 23.8505 23.9472 23.9951 23.9184C24.1398 23.8896 24.2897 23.9044 24.426 23.9608C24.5622 24.0173 24.6787 24.1128 24.7606 24.2355C24.8426 24.3581 24.8863 24.5023 24.8863 24.6498C24.8863 24.8476 24.8078 25.0372 24.6679 25.1771C24.5281 25.3169 24.3384 25.3955 24.1406 25.3955Z" fill="black"/>
<path id="Vector_5" d="M30.2966 27.0361H26.5475C27.0927 26.5152 27.4458 25.8253 27.5495 25.0784C27.6531 24.3315 27.5012 23.5715 27.1183 22.9218L27.8383 20.3915C27.9139 20.3044 27.9559 20.1932 27.9566 20.0778C27.9566 20.0778 27.9566 20.0418 27.9566 20.0213L29.7052 13.9064C29.7394 13.7831 29.7445 13.6535 29.7202 13.5279C29.6959 13.4022 29.6427 13.2839 29.565 13.1823C29.4873 13.0806 29.387 12.9984 29.2721 12.942C29.1573 12.8856 29.0309 12.8566 28.9029 12.8573H26.3006C26.2759 12.8195 26.2465 12.7849 26.2132 12.7544L24.0583 10.9647C23.4369 10.4357 22.6475 10.1452 21.8315 10.1452C21.0154 10.1452 20.226 10.4357 19.6046 10.9647L18.8126 11.6333L17.6298 10.363C17.2697 9.949 16.8313 9.61042 16.3398 9.36676C15.8482 9.1231 15.3133 8.97919 14.7658 8.94333C14.2184 8.90748 13.6693 8.98038 13.1501 9.15783C12.631 9.33529 12.1521 9.61379 11.7412 9.97726L8.37777 12.8573H7.09719C6.96499 12.8567 6.83464 12.8883 6.7173 12.9492C6.59996 13.0101 6.49914 13.0986 6.42348 13.207C6.3483 13.3132 6.29971 13.4359 6.28181 13.5647C6.26391 13.6936 6.27722 13.8249 6.32062 13.9475L9.25719 22.4795C8.71569 23.13 8.44019 23.9612 8.48597 24.8063C8.53176 25.6514 8.89544 26.448 9.50405 27.0361H5.70348C5.56708 27.0361 5.43627 27.0903 5.33982 27.1867C5.24338 27.2832 5.18919 27.414 5.18919 27.5504C5.18919 27.6868 5.24338 27.8176 5.33982 27.9141C5.43627 28.0105 5.56708 28.0647 5.70348 28.0647H30.2966C30.433 28.0647 30.5638 28.0105 30.6603 27.9141C30.7567 27.8176 30.8109 27.6868 30.8109 27.5504C30.8109 27.414 30.7567 27.2832 30.6603 27.1867C30.5638 27.0903 30.433 27.0361 30.2966 27.0361ZM20.2681 11.7875C20.7027 11.4084 21.2599 11.1996 21.8366 11.1996C22.4134 11.1996 22.9706 11.4084 23.4052 11.7875L24.7321 12.8573H19.9389H19.0286L20.2681 11.7875ZM12.4098 10.8001C12.9788 10.2974 13.7078 10.0131 14.4669 9.99783C14.9206 10.0053 15.3677 10.1075 15.7795 10.298C16.1913 10.4884 16.5588 10.7628 16.8583 11.1035L18.0001 12.343L17.4858 12.7904L9.98234 12.8573L12.4098 10.8001ZM9.32405 19.5995L7.38519 13.8858H28.6303L27.0052 19.5893H15.2589C15.1225 19.5893 14.9917 19.6434 14.8953 19.7399C14.7988 19.8363 14.7446 19.9671 14.7446 20.1035C14.7446 20.2399 14.7988 20.3708 14.8953 20.4672C14.9917 20.5636 15.1225 20.6178 15.2589 20.6178H26.7121L26.3161 22.0064H26.2749C26.1491 21.9068 26.0168 21.8158 25.8789 21.7338L25.8326 21.7081C25.6854 21.6282 25.5324 21.5594 25.3749 21.5024L25.2978 21.4715C25.1396 21.4196 24.9781 21.3783 24.8143 21.3481H24.7321C24.5619 21.3217 24.39 21.308 24.2178 21.307C24.0455 21.3072 23.8736 21.321 23.7035 21.3481H23.6263C23.4516 21.3765 23.2796 21.4195 23.1121 21.4767C22.6004 21.6521 22.1387 21.9485 21.7662 22.3407C21.3937 22.7329 21.1215 23.2093 20.9726 23.7293H15.0635C15.0157 23.5524 14.952 23.3803 14.8732 23.215C14.6814 22.8102 14.4107 22.448 14.0768 22.1494C13.743 21.8509 13.3528 21.6222 12.9292 21.4767C12.7617 21.4195 12.5896 21.3765 12.4149 21.3481H12.3429C12.1728 21.3214 12.0008 21.3077 11.8286 21.307C11.6916 21.2991 11.5542 21.2991 11.4172 21.307H11.2886C11.1916 21.3226 11.0955 21.3432 11.0006 21.3687L10.8772 21.3995C10.7529 21.4347 10.631 21.4777 10.5121 21.5281L10.4092 21.5795C10.3166 21.6207 10.2343 21.667 10.1469 21.7133L10.0801 21.7493L9.68919 20.6127H12.8881C13.0244 20.6127 13.1553 20.5585 13.2517 20.4621C13.3482 20.3656 13.4023 20.2348 13.4023 20.0984C13.4023 19.962 13.3482 19.8312 13.2517 19.7347C13.1553 19.6383 13.0244 19.5841 12.8881 19.5841L9.32405 19.5995ZM11.8286 26.959C11.3506 26.9585 10.8843 26.8107 10.4933 26.5356C10.1023 26.2605 9.80567 25.8716 9.64374 25.4218C9.48182 24.972 9.46251 24.4832 9.58844 24.022C9.71437 23.5609 9.97942 23.1498 10.3475 22.8447C10.4092 22.7933 10.4658 22.7367 10.5326 22.6904C10.5995 22.6441 10.7075 22.5978 10.7949 22.5515L10.9286 22.4795C11.0314 22.4416 11.1361 22.409 11.2423 22.3818C11.2828 22.3675 11.324 22.3554 11.3658 22.3458C11.5181 22.3149 11.6732 22.2994 11.8286 22.2995C11.9787 22.3 12.1284 22.3138 12.2761 22.3407L12.4715 22.3973L12.6823 22.4641C12.7595 22.495 12.8315 22.5361 12.9086 22.5721C12.96 22.5965 13.0098 22.6239 13.0578 22.6544C13.131 22.7017 13.2014 22.7532 13.2686 22.8087C13.3118 22.8404 13.3531 22.8748 13.3921 22.9115C13.4589 22.9698 13.5208 23.0334 13.5772 23.1018L13.6801 23.2253C13.7339 23.2932 13.7821 23.3654 13.8241 23.4413C13.8545 23.4892 13.882 23.539 13.9063 23.5904C13.9469 23.6646 13.9813 23.742 14.0092 23.8218L14.0658 23.9915C14.0895 24.0761 14.1084 24.162 14.1223 24.2487C14.149 24.3738 14.1628 24.5013 14.1635 24.6293C14.1621 25.2476 13.9155 25.8402 13.4778 26.2769C13.0401 26.7137 12.447 26.959 11.8286 26.959ZM14.1686 27.0361C14.7988 26.4316 15.1679 25.6049 15.1972 24.7321H20.8543C20.8836 25.6049 21.2527 26.4316 21.8829 27.0361H14.1686ZM24.2075 26.959C23.5887 26.9576 22.9956 26.7112 22.558 26.2736C22.1204 25.836 21.874 25.2429 21.8726 24.6241C21.8759 24.498 21.8896 24.3725 21.9138 24.2487C21.9264 24.1579 21.947 24.0684 21.9755 23.9813C21.9755 23.9298 22.0063 23.8733 22.0269 23.8218C22.0475 23.7704 22.0938 23.6573 22.1298 23.5801C22.1658 23.503 22.1812 23.4824 22.2121 23.4361C22.254 23.3603 22.3022 23.288 22.3561 23.2201L22.4589 23.0967C22.5153 23.0283 22.5772 22.9647 22.6441 22.9064L22.7623 22.8035C22.8343 22.7521 22.9012 22.6955 22.9783 22.6493C23.0555 22.603 23.0761 22.5978 23.1275 22.567C23.1789 22.5361 23.2766 22.4898 23.3538 22.459L23.5646 22.3921L23.7652 22.3355C23.9111 22.3086 24.0591 22.2949 24.2075 22.2944C24.3473 22.2949 24.4868 22.3086 24.6241 22.3355H24.7115C24.8381 22.3641 24.962 22.4037 25.0818 22.4538L25.1589 22.4847C25.2711 22.5348 25.3794 22.5932 25.4829 22.6595H25.5189C25.6269 22.7368 25.7284 22.8228 25.8223 22.9167C25.8437 22.9329 25.8627 22.9519 25.8789 22.9733C26.1969 23.3019 26.4111 23.7168 26.4949 24.1663C26.5787 24.6158 26.5284 25.0801 26.3502 25.5012C26.172 25.9223 25.8738 26.2817 25.4928 26.5345C25.1117 26.7873 24.6647 26.9224 24.2075 26.923V26.959Z" fill="black"/>
<path id="Vector_6" d="M25.884 23.0091C25.8678 22.9877 25.8488 22.9687 25.8274 22.9525C25.7335 22.8586 25.632 22.7726 25.524 22.6953H25.488C25.3845 22.629 25.2762 22.5706 25.164 22.5205L25.0869 22.4896C24.9671 22.4395 24.8432 22.3999 24.7166 22.3713H24.6291C24.4919 22.3444 24.3524 22.3306 24.2126 22.3302C24.0642 22.3307 23.9162 22.3444 23.7703 22.3713L23.5697 22.4279L23.3589 22.4948C23.2817 22.5256 23.2097 22.5668 23.1326 22.6028C23.0554 22.6388 23.0297 22.6542 22.9834 22.6851C22.9371 22.7159 22.8394 22.7879 22.7674 22.8393L22.6491 22.9422C22.5823 23.0005 22.5204 23.0641 22.464 23.1325L22.3611 23.2559C22.3073 23.3238 22.2591 23.3961 22.2171 23.4719C22.1863 23.5182 22.1606 23.5696 22.1349 23.6159C22.1091 23.6622 22.0629 23.7753 22.032 23.8576C22.0011 23.9399 21.996 23.9656 21.9806 24.0171C21.9521 24.1042 21.9314 24.1937 21.9189 24.2845C21.8947 24.4083 21.881 24.5338 21.8777 24.6599C21.8752 25.0433 21.9671 25.4214 22.1454 25.7608C22.3236 26.1003 22.5827 26.3906 22.8997 26.6061C23.2168 26.8217 23.582 26.9559 23.9632 26.9968C24.3444 27.0378 24.7298 26.9842 25.0854 26.8409C25.441 26.6975 25.7558 26.4688 26.0021 26.175C26.2483 25.8811 26.4184 25.5312 26.4974 25.156C26.5763 24.7808 26.5616 24.392 26.4547 24.0238C26.3477 23.6557 26.1517 23.3195 25.884 23.0451V23.0091ZM24.1406 26.4239C23.7897 26.4239 23.4466 26.3199 23.1548 26.1249C22.8631 25.9299 22.6356 25.6528 22.5014 25.3286C22.3671 25.0044 22.3319 24.6477 22.4004 24.3035C22.4688 23.9593 22.6378 23.6432 22.886 23.395C23.1341 23.1469 23.4503 22.9779 23.7944 22.9094C24.1386 22.841 24.4954 22.8761 24.8196 23.0104C25.1438 23.1447 25.4209 23.3721 25.6158 23.6639C25.8108 23.9557 25.9149 24.2987 25.9149 24.6496C25.9149 24.8826 25.869 25.1134 25.7798 25.3286C25.6906 25.5439 25.5599 25.7395 25.3952 25.9042C25.2304 26.069 25.0348 26.1997 24.8196 26.2889C24.6043 26.378 24.3736 26.4239 24.1406 26.4239Z" fill="#FFA600"/>
<path id="Vector_7" d="M14.1274 24.2432C14.1135 24.1565 14.0946 24.0706 14.0709 23.9861L14.0143 23.8164C13.9864 23.7365 13.952 23.6591 13.9114 23.5849C13.8871 23.5336 13.8596 23.4838 13.8292 23.4358C13.7872 23.36 13.739 23.2877 13.6852 23.2198L13.5823 23.0964C13.5259 23.028 13.464 22.9643 13.3972 22.9061C13.3582 22.8693 13.3169 22.8349 13.2737 22.8032C13.2065 22.7477 13.1361 22.6962 13.0629 22.6489C13.0149 22.6185 12.9651 22.591 12.9137 22.5666C12.8366 22.5306 12.7646 22.4895 12.6874 22.4586L12.4766 22.3918L12.2812 22.3352C12.1335 22.3083 11.9838 22.2945 11.8337 22.2941C11.6783 22.2939 11.5232 22.3094 11.3709 22.3404C11.3291 22.35 11.2879 22.362 11.2474 22.3764C11.1412 22.4035 11.0365 22.4361 10.9337 22.4741L10.8 22.5461C10.7126 22.5924 10.62 22.6335 10.5377 22.6849C10.4554 22.7364 10.4143 22.7878 10.3526 22.8392C10.0501 23.0898 9.81596 23.4127 9.6718 23.7781C9.52764 24.1434 9.47817 24.5392 9.528 24.9288C9.57783 25.3184 9.72533 25.689 9.95681 26.0063C10.1883 26.3236 10.4962 26.5772 10.852 26.7436C11.2077 26.9099 11.5998 26.9837 11.9917 26.9579C12.3836 26.9322 12.7626 26.8077 13.0935 26.5962C13.4245 26.3847 13.6965 26.093 13.8845 25.7481C14.0724 25.4033 14.1702 25.0165 14.1686 24.6238C14.1679 24.4959 14.1541 24.3683 14.1274 24.2432ZM11.8286 26.4238C11.4777 26.4238 11.1346 26.3197 10.8428 26.1248C10.5511 25.9298 10.3236 25.6527 10.1894 25.3285C10.0551 25.0043 10.0199 24.6475 10.0884 24.3034C10.1568 23.9592 10.3258 23.643 10.574 23.3949C10.8221 23.1468 11.1383 22.9778 11.4824 22.9093C11.8266 22.8408 12.1834 22.876 12.5076 23.0103C12.8318 23.1446 13.1089 23.372 13.3038 23.6638C13.4988 23.9555 13.6029 24.2986 13.6029 24.6495C13.6015 25.1197 13.4141 25.5702 13.0817 25.9026C12.7492 26.2351 12.2987 26.4224 11.8286 26.4238Z" fill="#FFA600"/>
<path id="Vector_8" d="M24.732 12.857H19.9389H19.0286L20.2474 11.7822C20.682 11.4031 21.2393 11.1942 21.816 11.1942C22.3927 11.1942 22.9499 11.4031 23.3846 11.7822L24.732 12.857Z" fill="#FFA600"/>
<path id="Vector_9" d="M18 12.3427L17.4857 12.7901L9.98228 12.857L12.4097 10.7998C12.9787 10.2971 13.7077 10.0128 14.4669 9.99756C14.9205 10.005 15.3676 10.1073 15.7794 10.2977C16.1913 10.4881 16.5587 10.7625 16.8583 11.1033L18 12.3427Z" fill="#FFA600"/>
</g>
</svg>
