<svg width="60" height="60" viewBox="0 0 36 36" fill="none" xmlns="http://www.w3.org/2000/svg">
<path d="M25.082 18.6641C24.9961 18.6562 24.9101 18.6484 24.8242 18.6406C24.7383 18.6328 24.6523 18.6289 24.5664 18.6289C24.4726 18.6289 24.3828 18.6328 24.2968 18.6406C24.2031 18.6484 24.0937 18.6562 23.9687 18.6641V8.16406C23.9687 7.51562 23.7968 7.01562 23.4531 6.66406C23.1015 6.30469 22.5898 6.125 21.9179 6.125H16.5859V12.9219C16.5859 13.5156 16.4414 13.9531 16.1523 14.2344C15.8554 14.5078 15.4257 14.6445 14.8632 14.6445H8.11328V25.3203C8.11328 25.9844 8.28515 26.4883 8.6289 26.832C8.97265 27.1836 9.48437 27.3594 10.164 27.3594H18.3554C18.4179 27.5625 18.4922 27.7539 18.5781 27.9336C18.6562 28.1211 18.7422 28.3008 18.8359 28.4727H10.1054C9.07422 28.4727 8.30078 28.2109 7.78515 27.6875C7.26172 27.1641 7 26.3867 7 25.3555V14.7734C7 14.4219 7.01953 14.125 7.05859 13.8828C7.09765 13.6328 7.17578 13.4102 7.29297 13.2148C7.41015 13.0195 7.57422 12.8125 7.78515 12.5937L14.5351 5.79687C14.8476 5.48437 15.1562 5.27344 15.4609 5.16406C15.7578 5.05469 16.1523 5 16.6445 5H21.9765C22.9922 5 23.7656 5.26562 24.2968 5.79687C24.8203 6.32031 25.082 7.09766 25.082 8.12891V18.6641ZM15.5195 12.8047V6.35937L8.34765 13.5781H14.7461C15.0273 13.5781 15.2265 13.5195 15.3437 13.4023C15.4609 13.2852 15.5195 13.0859 15.5195 12.8047Z" fill="black"/>
<path d="M10.5 17.5C10.5 17.2239 10.7238 17 11 17H21.5C21.7761 17 22 17.2239 22 17.5C22 17.7761 21.7761 18 21.5 18H11C10.7238 18 10.5 17.7761 10.5 17.5Z" fill="black"/>
<path d="M10.5 21C10.5 20.7239 10.7238 20.5 11 20.5H17.5C17.7761 20.5 18 20.7239 18 21C18 21.2761 17.7761 21.5 17.5 21.5H11C10.7238 21.5 10.5 21.2761 10.5 21Z" fill="black"/>
<path d="M11 24C10.7238 24 10.5 24.2239 10.5 24.5C10.5 24.7761 10.7238 25 11 25H17.5C17.7761 25 18 24.7761 18 24.5C18 24.2239 17.7761 24 17.5 24H11Z" fill="black"/>
<path fill-rule="evenodd" clip-rule="evenodd" d="M20.7834 25.9501V24.5501L19.7334 23.6168L20.7834 21.9834L21.9501 22.4501L23.2334 21.7501L23.5834 20.3501H25.3334L25.6834 21.7501L26.8501 22.4501L28.1334 21.9834L29.1834 23.6168L28.1334 24.5501V25.9501L29.1834 26.8834L28.1334 28.5168L26.8501 28.0501L25.6834 28.7501L25.3334 30.0334H23.5834L23.2334 28.7501L21.9501 28.0501L20.7834 28.5168L19.7334 26.8834L20.7834 25.9501ZM24.517 27.0001C25.4835 27.0001 26.267 26.2166 26.267 25.2501C26.267 24.2836 25.4835 23.5001 24.517 23.5001C23.5505 23.5001 22.767 24.2836 22.767 25.2501C22.767 26.2166 23.5505 27.0001 24.517 27.0001Z" fill="#FFA600" stroke="black" stroke-width="0.233333"/>
<mask id="mask0_4684_37738" style="mask-type:alpha" maskUnits="userSpaceOnUse" x="18" y="18" width="13" height="13">
<path d="M30.5 18.9999H18.5V30.9999H30.5V18.9999Z" fill="white"/>
<path d="M24.4334 23.1565C23.279 23.1565 22.3398 24.0957 22.3398 25.25C22.3398 26.4043 23.279 27.3435 24.4334 27.3435C25.5877 27.3435 26.5269 26.4043 26.5269 25.25C26.527 24.0957 25.5878 23.1565 24.4334 23.1565ZM24.4334 26.8488C23.5517 26.8488 22.8344 26.1317 22.8344 25.25C22.8344 24.3684 23.5517 23.6511 24.4334 23.6511C25.315 23.6511 26.0323 24.3683 26.0323 25.25C26.0323 26.1317 25.315 26.8488 24.4334 26.8488Z" fill="black"/>
<path d="M29.0433 26.3639C29.043 26.3637 29.0428 26.3635 29.0426 26.3633L28.2991 25.8273C28.328 25.635 28.3424 25.4414 28.3424 25.2498C28.3424 25.0583 28.3279 24.8646 28.2991 24.6724L29.0433 24.1358C29.3692 23.8989 29.4628 23.4587 29.2616 23.1126L28.6994 22.1365C28.4972 21.789 28.0689 21.6508 27.7023 21.8151L26.8666 22.1921C26.5626 21.9494 26.2271 21.7554 25.8662 21.6135L25.7735 20.7009C25.7317 20.3013 25.3978 19.9999 24.9966 19.9999H23.8707C23.4695 19.9999 23.1356 20.3013 23.0937 20.7015L23.0011 21.6135C22.6403 21.7554 22.3048 21.9494 22.0007 22.1921L21.1645 21.8149C20.7986 21.651 20.37 21.7891 20.1674 22.1375L19.6061 23.1118C19.4043 23.4588 19.4981 23.899 19.8247 24.1364L20.5681 24.6724C20.5395 24.8647 20.5249 25.0583 20.5249 25.2498C20.5249 25.4414 20.5395 25.635 20.5682 25.8274L19.8242 26.3639C19.4981 26.6007 19.4044 27.041 19.6057 27.387L20.168 28.3632C20.37 28.7107 20.7984 28.8489 21.165 28.6847L22.0007 28.3076C22.3048 28.5504 22.6402 28.7443 23.0011 28.8862L23.0938 29.7989C23.1355 30.1985 23.4695 30.4999 23.8707 30.4999H24.9967C25.3978 30.4999 25.7317 30.1985 25.7736 29.7983L25.8662 28.8862C26.227 28.7443 26.5625 28.5504 26.8667 28.3076L27.7028 28.6849C28.069 28.849 28.4973 28.7107 28.6999 28.3622L29.2612 27.3879C29.4628 27.041 29.3691 26.6008 29.0433 26.3639ZM28.8329 27.1402L28.2718 28.1145C28.1972 28.2426 28.0395 28.2938 27.9056 28.2337L26.9291 27.7931C26.8413 27.7534 26.7384 27.7683 26.6653 27.8317C26.3368 28.1162 25.9632 28.3324 25.5545 28.4742C25.4636 28.5057 25.3992 28.5871 25.3894 28.6829L25.2813 29.7477C25.266 29.8945 25.1436 30.0052 24.9965 30.0052L23.8706 30.0051C23.7237 30.0051 23.6011 29.8944 23.586 29.7482L23.4778 28.6828C23.468 28.587 23.4037 28.5056 23.3128 28.4741C22.9042 28.3323 22.5305 28.1161 22.2019 27.8316C22.156 27.7918 22.0984 27.7711 22.0399 27.7711C22.0054 27.7711 21.9707 27.7783 21.9382 27.793L20.9622 28.2334C20.8274 28.2939 20.6702 28.2424 20.596 28.1154L20.0339 27.1393C19.9601 27.0125 19.9951 26.8513 20.1142 26.7646L20.9825 26.1385C21.0604 26.0823 21.0987 25.9859 21.0808 25.8915C21.0401 25.6784 21.0195 25.4626 21.0195 25.2498C21.0195 25.0371 21.0401 24.8213 21.0808 24.6083C21.0989 24.5139 21.0605 24.4175 20.9826 24.3612L20.1149 23.7356C19.9951 23.6485 19.9602 23.4872 20.0343 23.3595L20.5955 22.3853C20.67 22.2571 20.8278 22.2059 20.9616 22.2661L21.9382 22.7067C22.0258 22.7462 22.1287 22.7314 22.2019 22.6681C22.5304 22.3836 22.9041 22.1673 23.3128 22.0256C23.4037 21.994 23.4681 21.9126 23.4778 21.8169L23.5859 20.7521C23.6012 20.6053 23.7237 20.4945 23.8707 20.4945H24.9967C25.1437 20.4945 25.2662 20.6053 25.2813 20.7515L25.3895 21.8169C25.3993 21.9126 25.4637 21.994 25.5546 22.0256C25.9632 22.1673 26.3369 22.3836 26.6654 22.6681C26.7384 22.7314 26.8414 22.7462 26.9292 22.7067L27.9052 22.2663C28.0399 22.2058 28.1972 22.2572 28.2713 22.3843L28.8335 23.3605C28.9072 23.4872 28.8724 23.6485 28.7532 23.7351L27.8848 24.3613C27.8068 24.4175 27.7685 24.5139 27.7865 24.6083C27.8272 24.8213 27.8478 25.0372 27.8478 25.2498C27.8478 25.4625 27.8272 25.6784 27.7864 25.8914C27.7684 25.9858 27.8067 26.0822 27.8847 26.1384L28.7527 26.7643C28.8723 26.8515 28.907 27.0126 28.8329 27.1402Z" fill="black"/>
</mask>
<g mask="url(#mask0_4684_37738)">
<path d="M24.4334 23.1565C23.279 23.1565 22.3398 24.0957 22.3398 25.25C22.3398 26.4043 23.279 27.3435 24.4334 27.3435C25.5877 27.3435 26.5269 26.4043 26.5269 25.25C26.527 24.0957 25.5878 23.1565 24.4334 23.1565ZM24.4334 26.8488C23.5517 26.8488 22.8344 26.1317 22.8344 25.25C22.8344 24.3684 23.5517 23.6511 24.4334 23.6511C25.315 23.6511 26.0323 24.3683 26.0323 25.25C26.0323 26.1317 25.315 26.8488 24.4334 26.8488Z" fill="black"/>
<path d="M29.0433 26.3639C29.043 26.3637 29.0428 26.3635 29.0426 26.3633L28.2991 25.8273C28.328 25.635 28.3424 25.4414 28.3424 25.2498C28.3424 25.0583 28.3279 24.8646 28.2991 24.6724L29.0433 24.1358C29.3692 23.8989 29.4628 23.4587 29.2616 23.1126L28.6994 22.1365C28.4972 21.789 28.0689 21.6508 27.7023 21.8151L26.8666 22.1921C26.5626 21.9494 26.2271 21.7554 25.8662 21.6135L25.7735 20.7009C25.7317 20.3013 25.3978 19.9999 24.9966 19.9999H23.8707C23.4695 19.9999 23.1356 20.3013 23.0937 20.7015L23.0011 21.6135C22.6403 21.7554 22.3048 21.9494 22.0007 22.1921L21.1645 21.8149C20.7986 21.651 20.37 21.7891 20.1674 22.1375L19.6061 23.1118C19.4043 23.4588 19.4981 23.899 19.8247 24.1364L20.5681 24.6724C20.5395 24.8647 20.5249 25.0583 20.5249 25.2498C20.5249 25.4414 20.5395 25.635 20.5682 25.8274L19.8242 26.3639C19.4981 26.6007 19.4044 27.041 19.6057 27.387L20.168 28.3632C20.37 28.7107 20.7984 28.8489 21.165 28.6847L22.0007 28.3076C22.3048 28.5504 22.6402 28.7443 23.0011 28.8862L23.0938 29.7989C23.1355 30.1985 23.4695 30.4999 23.8707 30.4999H24.9967C25.3978 30.4999 25.7317 30.1985 25.7736 29.7983L25.8662 28.8862C26.227 28.7443 26.5625 28.5504 26.8667 28.3076L27.7028 28.6849C28.069 28.849 28.4973 28.7107 28.6999 28.3622L29.2612 27.3879C29.4628 27.041 29.3691 26.6008 29.0433 26.3639ZM28.8329 27.1402L28.2718 28.1145C28.1972 28.2426 28.0395 28.2938 27.9056 28.2337L26.9291 27.7931C26.8413 27.7534 26.7384 27.7683 26.6653 27.8317C26.3368 28.1162 25.9632 28.3324 25.5545 28.4742C25.4636 28.5057 25.3992 28.5871 25.3894 28.6829L25.2813 29.7477C25.266 29.8945 25.1436 30.0052 24.9965 30.0052L23.8706 30.0051C23.7237 30.0051 23.6011 29.8944 23.586 29.7482L23.4778 28.6828C23.468 28.587 23.4037 28.5056 23.3128 28.4741C22.9042 28.3323 22.5305 28.1161 22.2019 27.8316C22.156 27.7918 22.0984 27.7711 22.0399 27.7711C22.0054 27.7711 21.9707 27.7783 21.9382 27.793L20.9622 28.2334C20.8274 28.2939 20.6702 28.2424 20.596 28.1154L20.0339 27.1393C19.9601 27.0125 19.9951 26.8513 20.1142 26.7646L20.9825 26.1385C21.0604 26.0823 21.0987 25.9859 21.0808 25.8915C21.0401 25.6784 21.0195 25.4626 21.0195 25.2498C21.0195 25.0371 21.0401 24.8213 21.0808 24.6083C21.0989 24.5139 21.0605 24.4175 20.9826 24.3612L20.1149 23.7356C19.9951 23.6485 19.9602 23.4872 20.0343 23.3595L20.5955 22.3853C20.67 22.2571 20.8278 22.2059 20.9616 22.2661L21.9382 22.7067C22.0258 22.7462 22.1287 22.7314 22.2019 22.6681C22.5304 22.3836 22.9041 22.1673 23.3128 22.0256C23.4037 21.994 23.4681 21.9126 23.4778 21.8169L23.5859 20.7521C23.6012 20.6053 23.7237 20.4945 23.8707 20.4945H24.9967C25.1437 20.4945 25.2662 20.6053 25.2813 20.7515L25.3895 21.8169C25.3993 21.9126 25.4637 21.994 25.5546 22.0256C25.9632 22.1673 26.3369 22.3836 26.6654 22.6681C26.7384 22.7314 26.8414 22.7462 26.9292 22.7067L27.9052 22.2663C28.0399 22.2058 28.1972 22.2572 28.2713 22.3843L28.8335 23.3605C28.9072 23.4872 28.8724 23.6485 28.7532 23.7351L27.8848 24.3613C27.8068 24.4175 27.7685 24.5139 27.7865 24.6083C27.8272 24.8213 27.8478 25.0372 27.8478 25.2498C27.8478 25.4625 27.8272 25.6784 27.7864 25.8914C27.7684 25.9858 27.8067 26.0822 27.8847 26.1384L28.7527 26.7643C28.8723 26.8515 28.907 27.0126 28.8329 27.1402Z" fill="black"/>
</g>
</svg>
