<svg width="72" height="72" viewBox="0 0 72 72" fill="none" xmlns="http://www.w3.org/2000/svg">
<mask id="path-1-outside-1_5952_45241" maskUnits="userSpaceOnUse" x="37.7334" y="52.1543" width="31" height="17" fill="black">
<rect fill="white" x="37.7334" y="52.1543" width="31" height="17"/>
<path d="M38.7334 61.0766C38.8571 60.6153 39.001 60.1655 39.3199 59.7902C39.6966 59.3469 40.1717 59.0765 40.7271 58.9261C42.0193 58.5761 43.3101 58.2188 44.6038 57.8732C44.8106 57.8182 44.9559 57.7155 45.0847 57.5442C45.8468 56.5318 46.6242 55.5302 47.3871 54.5186C48.0719 53.6103 48.9787 53.1584 50.1104 53.1569C52.8851 53.154 55.6597 53.1526 58.4344 53.1576C59.6818 53.1598 60.637 53.6949 61.2972 54.7594C61.8924 55.719 62.4926 56.675 63.1014 57.6259C63.1795 57.7481 63.3075 57.8609 63.4384 57.9238C64.0589 58.221 64.6865 58.503 65.3142 58.7843C66.4192 59.2797 66.9767 60.125 66.9608 61.3413C66.9521 62.0023 66.9933 62.669 66.9239 63.3234C66.78 64.6793 65.7539 65.5962 64.3922 65.581C63.9374 65.576 63.732 65.6888 63.5447 66.1263C63.0262 67.3361 61.7832 68.0643 60.5285 67.9956C59.1626 67.9204 58.0518 67.0924 57.6129 65.8037C57.5586 65.6454 57.495 65.5911 57.3272 65.5911C54.2308 65.5962 51.1351 65.5962 48.0386 65.5904C47.8665 65.5904 47.8065 65.6519 47.7537 65.8052C47.2982 67.1278 46.0949 67.9934 44.726 67.9963C43.339 67.9992 42.1364 67.1372 41.6751 65.798C41.6266 65.6577 41.5804 65.5846 41.4148 65.5904C40.0061 65.6374 38.9388 64.6728 38.7602 63.382C38.758 63.3654 38.7428 63.3502 38.7334 63.3343C38.7334 62.5837 38.7334 61.8301 38.7334 61.0766ZM63.8484 64.4385C64.0213 64.4385 64.2013 64.4406 64.3807 64.4385C65.2238 64.4269 65.7944 63.8556 65.8002 63.0117C65.8038 62.4332 65.7958 61.854 65.8016 61.2755C65.8081 60.6037 65.4972 60.1431 64.8926 59.8683C64.1832 59.5458 63.4681 59.2341 62.7688 58.8892C62.567 58.7894 62.3675 58.6216 62.246 58.4343C61.6111 57.4567 60.9848 56.4725 60.3897 55.4709C59.9095 54.6647 59.2312 54.3009 58.2977 54.3067C55.6243 54.3226 52.9516 54.3204 50.2782 54.3074C49.401 54.3031 48.7292 54.6278 48.2071 55.3379C47.4355 56.3886 46.6256 57.4118 45.8432 58.4546C45.6624 58.6961 45.4462 58.8443 45.1548 58.9159C44.6566 59.0381 44.1627 59.1799 43.6673 59.3158C42.7475 59.5682 41.8262 59.8133 40.9093 60.0773C40.3084 60.2501 39.9164 60.7093 39.8976 61.277C39.8774 61.9097 39.8687 62.5453 39.9005 63.1781C39.9425 64.0032 40.7365 64.5838 41.5196 64.4002C41.8147 62.5837 43.2103 61.6458 44.6067 61.5821C45.3161 61.5503 45.9683 61.7499 46.5512 62.1584C47.3379 62.7095 47.7718 63.4803 47.9128 64.4218C51.1062 64.4218 54.28 64.4218 57.4516 64.4218C57.7655 62.4788 59.3101 61.5503 60.7296 61.5814C62.2185 61.6139 63.5953 62.6813 63.8484 64.4385ZM44.7224 66.8241C45.8519 66.8169 46.7826 65.8826 46.7674 64.7718C46.7515 63.6409 45.8266 62.7247 44.7065 62.7304C43.5842 62.7362 42.6506 63.6749 42.6607 64.7885C42.6708 65.9151 43.5993 66.8313 44.7224 66.8241ZM60.6609 66.8241C61.7911 66.8147 62.7218 65.8782 62.7044 64.7697C62.6864 63.6394 61.7586 62.7232 60.6399 62.7304C59.5176 62.7377 58.5826 63.6806 58.5963 64.7906C58.6101 65.9187 59.5386 66.8335 60.6609 66.8241Z"/>
<path d="M63.8484 64.4385C64.0213 64.4385 64.2013 64.4406 64.3807 64.4385C65.2238 64.4269 65.7944 63.8556 65.8002 63.0117C65.8038 62.4332 65.7958 61.854 65.8016 61.2755C65.8081 60.6037 65.4972 60.1431 64.8926 59.8683C64.1832 59.5458 63.4681 59.2341 62.7688 58.8892C62.567 58.7894 62.3675 58.6216 62.246 58.4343C61.6111 57.4567 60.9848 56.4725 60.3897 55.4709C59.9095 54.6647 59.2312 54.3009 58.2977 54.3067C55.6243 54.3226 52.9516 54.3204 50.2782 54.3074C49.401 54.3031 48.7292 54.6278 48.2071 55.3379C47.4355 56.3886 46.6256 57.4118 45.8432 58.4546C45.6624 58.6961 45.4462 58.8443 45.1548 58.9159C44.6566 59.0381 44.1627 59.1799 43.6673 59.3158C42.7475 59.5682 41.8262 59.8133 40.9093 60.0773C40.3084 60.2501 39.9164 60.7093 39.8976 61.277C39.8774 61.9097 39.8687 62.5453 39.9005 63.1781C39.9425 64.0032 40.7365 64.5838 41.5196 64.4002C41.8147 62.5837 43.2103 61.6458 44.6067 61.5821C45.3161 61.5503 45.9683 61.7499 46.5512 62.1584C47.3379 62.7095 47.7718 63.4803 47.9128 64.4218H57.4516C57.7655 62.4788 59.3101 61.5503 60.7296 61.5814C62.2185 61.6139 63.5953 62.6813 63.8484 64.4385Z"/>
</mask>
<path d="M38.7334 61.0766C38.8571 60.6153 39.001 60.1655 39.3199 59.7902C39.6966 59.3469 40.1717 59.0765 40.7271 58.9261C42.0193 58.5761 43.3101 58.2188 44.6038 57.8732C44.8106 57.8182 44.9559 57.7155 45.0847 57.5442C45.8468 56.5318 46.6242 55.5302 47.3871 54.5186C48.0719 53.6103 48.9787 53.1584 50.1104 53.1569C52.8851 53.154 55.6597 53.1526 58.4344 53.1576C59.6818 53.1598 60.637 53.6949 61.2972 54.7594C61.8924 55.719 62.4926 56.675 63.1014 57.6259C63.1795 57.7481 63.3075 57.8609 63.4384 57.9238C64.0589 58.221 64.6865 58.503 65.3142 58.7843C66.4192 59.2797 66.9767 60.125 66.9608 61.3413C66.9521 62.0023 66.9933 62.669 66.9239 63.3234C66.78 64.6793 65.7539 65.5962 64.3922 65.581C63.9374 65.576 63.732 65.6888 63.5447 66.1263C63.0262 67.3361 61.7832 68.0643 60.5285 67.9956C59.1626 67.9204 58.0518 67.0924 57.6129 65.8037C57.5586 65.6454 57.495 65.5911 57.3272 65.5911C54.2308 65.5962 51.1351 65.5962 48.0386 65.5904C47.8665 65.5904 47.8065 65.6519 47.7537 65.8052C47.2982 67.1278 46.0949 67.9934 44.726 67.9963C43.339 67.9992 42.1364 67.1372 41.6751 65.798C41.6266 65.6577 41.5804 65.5846 41.4148 65.5904C40.0061 65.6374 38.9388 64.6728 38.7602 63.382C38.758 63.3654 38.7428 63.3502 38.7334 63.3343C38.7334 62.5837 38.7334 61.8301 38.7334 61.0766ZM63.8484 64.4385C64.0213 64.4385 64.2013 64.4406 64.3807 64.4385C65.2238 64.4269 65.7944 63.8556 65.8002 63.0117C65.8038 62.4332 65.7958 61.854 65.8016 61.2755C65.8081 60.6037 65.4972 60.1431 64.8926 59.8683C64.1832 59.5458 63.4681 59.2341 62.7688 58.8892C62.567 58.7894 62.3675 58.6216 62.246 58.4343C61.6111 57.4567 60.9848 56.4725 60.3897 55.4709C59.9095 54.6647 59.2312 54.3009 58.2977 54.3067C55.6243 54.3226 52.9516 54.3204 50.2782 54.3074C49.401 54.3031 48.7292 54.6278 48.2071 55.3379C47.4355 56.3886 46.6256 57.4118 45.8432 58.4546C45.6624 58.6961 45.4462 58.8443 45.1548 58.9159C44.6566 59.0381 44.1627 59.1799 43.6673 59.3158C42.7475 59.5682 41.8262 59.8133 40.9093 60.0773C40.3084 60.2501 39.9164 60.7093 39.8976 61.277C39.8774 61.9097 39.8687 62.5453 39.9005 63.1781C39.9425 64.0032 40.7365 64.5838 41.5196 64.4002C41.8147 62.5837 43.2103 61.6458 44.6067 61.5821C45.3161 61.5503 45.9683 61.7499 46.5512 62.1584C47.3379 62.7095 47.7718 63.4803 47.9128 64.4218C51.1062 64.4218 54.28 64.4218 57.4516 64.4218C57.7655 62.4788 59.3101 61.5503 60.7296 61.5814C62.2185 61.6139 63.5953 62.6813 63.8484 64.4385ZM44.7224 66.8241C45.8519 66.8169 46.7826 65.8826 46.7674 64.7718C46.7515 63.6409 45.8266 62.7247 44.7065 62.7304C43.5842 62.7362 42.6506 63.6749 42.6607 64.7885C42.6708 65.9151 43.5993 66.8313 44.7224 66.8241ZM60.6609 66.8241C61.7911 66.8147 62.7218 65.8782 62.7044 64.7697C62.6864 63.6394 61.7586 62.7232 60.6399 62.7304C59.5176 62.7377 58.5826 63.6806 58.5963 64.7906C58.6101 65.9187 59.5386 66.8335 60.6609 66.8241Z" fill="#0B2D1F"/>
<path d="M63.8484 64.4385C64.0213 64.4385 64.2013 64.4406 64.3807 64.4385C65.2238 64.4269 65.7944 63.8556 65.8002 63.0117C65.8038 62.4332 65.7958 61.854 65.8016 61.2755C65.8081 60.6037 65.4972 60.1431 64.8926 59.8683C64.1832 59.5458 63.4681 59.2341 62.7688 58.8892C62.567 58.7894 62.3675 58.6216 62.246 58.4343C61.6111 57.4567 60.9848 56.4725 60.3897 55.4709C59.9095 54.6647 59.2312 54.3009 58.2977 54.3067C55.6243 54.3226 52.9516 54.3204 50.2782 54.3074C49.401 54.3031 48.7292 54.6278 48.2071 55.3379C47.4355 56.3886 46.6256 57.4118 45.8432 58.4546C45.6624 58.6961 45.4462 58.8443 45.1548 58.9159C44.6566 59.0381 44.1627 59.1799 43.6673 59.3158C42.7475 59.5682 41.8262 59.8133 40.9093 60.0773C40.3084 60.2501 39.9164 60.7093 39.8976 61.277C39.8774 61.9097 39.8687 62.5453 39.9005 63.1781C39.9425 64.0032 40.7365 64.5838 41.5196 64.4002C41.8147 62.5837 43.2103 61.6458 44.6067 61.5821C45.3161 61.5503 45.9683 61.7499 46.5512 62.1584C47.3379 62.7095 47.7718 63.4803 47.9128 64.4218H57.4516C57.7655 62.4788 59.3101 61.5503 60.7296 61.5814C62.2185 61.6139 63.5953 62.6813 63.8484 64.4385Z" fill="#22885E"/>
<path d="M63.8484 64.4385L63.3535 64.5098L63.4153 64.9385H63.8484V64.4385ZM64.3807 64.4385L64.3867 64.9384L64.3875 64.9384L64.3807 64.4385ZM65.8002 63.0117L66.3002 63.0152L66.3002 63.0149L65.8002 63.0117ZM65.8016 61.2755L66.3016 61.2805L66.3016 61.2804L65.8016 61.2755ZM64.8926 59.8683L64.6857 60.3235L64.6857 60.3235L64.8926 59.8683ZM62.7688 58.8892L62.5471 59.3374L62.5476 59.3376L62.7688 58.8892ZM62.246 58.4343L62.6655 58.1622L62.6653 58.162L62.246 58.4343ZM60.3897 55.4709L60.8195 55.2155L60.8193 55.2151L60.3897 55.4709ZM58.2977 54.3067L58.3007 54.8067L58.3008 54.8067L58.2977 54.3067ZM50.2782 54.3074L50.2757 54.8074L50.2757 54.8074L50.2782 54.3074ZM48.2071 55.3379L47.8043 55.0417L47.8041 55.0419L48.2071 55.3379ZM45.8432 58.4546L45.4433 58.1545L45.4429 58.155L45.8432 58.4546ZM45.1548 58.9159L45.2739 59.4015L45.2741 59.4015L45.1548 58.9159ZM43.6673 59.3158L43.7996 59.798L43.7996 59.798L43.6673 59.3158ZM40.9093 60.0773L41.0475 60.5578L41.0476 60.5578L40.9093 60.0773ZM39.8976 61.277L39.3979 61.2604L39.3979 61.261L39.8976 61.277ZM39.9005 63.1781L39.4012 63.2032L39.4012 63.2034L39.9005 63.1781ZM41.5196 64.4002L41.6338 64.8869L41.9595 64.8106L42.0132 64.4803L41.5196 64.4002ZM44.6067 61.5821L44.5843 61.0826L44.5839 61.0826L44.6067 61.5821ZM46.5512 62.1584L46.2642 62.5679L46.2643 62.568L46.5512 62.1584ZM60.7296 61.5814L60.7186 62.0813L60.7186 62.0813L60.7296 61.5814ZM63.8484 64.9385C64.0127 64.9385 64.2038 64.9407 64.3867 64.9384L64.3746 63.9385C64.1988 63.9406 64.0299 63.9385 63.8484 63.9385V64.9385ZM64.3875 64.9384C64.923 64.9311 65.4067 64.7435 65.7587 64.3901C66.1109 64.0365 66.2965 63.5519 66.3001 63.0152L65.3002 63.0083C65.2981 63.3155 65.1955 63.5385 65.0502 63.6844C64.9047 63.8305 64.6815 63.9343 64.3738 63.9385L64.3875 64.9384ZM66.3002 63.0149C66.3039 62.4084 66.2957 61.8724 66.3016 61.2805L65.3016 61.2705C65.296 61.8357 65.3036 62.458 65.3002 63.0086L66.3002 63.0149ZM66.3016 61.2804C66.3056 60.8638 66.2105 60.4797 65.9949 60.1496C65.7801 59.8207 65.469 59.581 65.0995 59.4131L64.6857 60.3235C64.9208 60.4303 65.0675 60.5584 65.1576 60.6964C65.247 60.8333 65.3041 61.0154 65.3016 61.2707L66.3016 61.2804ZM65.0996 59.4131C64.3806 59.0863 63.6798 58.781 62.99 58.4408L62.5476 59.3376C63.2563 59.6872 63.9859 60.0053 64.6857 60.3235L65.0996 59.4131ZM62.9905 58.441C62.8591 58.376 62.7322 58.2651 62.6655 58.1622L61.8265 58.7064C62.0027 58.9781 62.275 59.2028 62.5471 59.3374L62.9905 58.441ZM62.6653 58.162C62.0318 57.1865 61.4097 56.2087 60.8195 55.2155L59.9599 55.7264C60.56 56.7362 61.1903 57.7268 61.8266 58.7066L62.6653 58.162ZM60.8193 55.2151C60.542 54.7495 60.1922 54.3875 59.7552 54.1465C59.3192 53.906 58.8281 53.8034 58.2946 53.8067L58.3008 54.8067C58.7008 54.8042 59.0157 54.8806 59.2722 55.0221C59.5278 55.1631 59.7572 55.3861 59.9601 55.7268L60.8193 55.2151ZM58.2947 53.8067C55.6235 53.8226 52.9527 53.8204 50.2806 53.8074L50.2757 54.8074C52.9505 54.8204 55.625 54.8226 58.3007 54.8067L58.2947 53.8067ZM50.2806 53.8074C49.2489 53.8023 48.4242 54.1985 47.8043 55.0417L48.61 55.6341C49.0342 55.057 49.5532 54.8038 50.2757 54.8074L50.2806 53.8074ZM47.8041 55.0419C47.0305 56.0954 46.2402 57.0924 45.4433 58.1545L46.2431 58.7547C47.0111 57.7312 47.8406 56.6817 48.6101 55.6338L47.8041 55.0419ZM45.4429 58.155C45.3279 58.3087 45.2089 58.3878 45.0355 58.4304L45.2741 59.4015C45.6836 59.3009 45.997 59.0835 46.2435 58.7542L45.4429 58.155ZM45.0357 58.4303C44.5286 58.5547 44.0228 58.6998 43.535 58.8337L43.7996 59.798C44.3025 59.66 44.7845 59.5216 45.2739 59.4015L45.0357 58.4303ZM43.535 58.8336C42.6202 59.0846 41.6919 59.3317 40.771 59.5968L41.0476 60.5578C41.9606 60.295 42.8748 60.0517 43.7996 59.798L43.535 58.8336ZM40.7711 59.5968C39.9946 59.8201 39.425 60.4438 39.3979 61.2604L40.3974 61.2935C40.4079 60.9748 40.6221 60.6801 41.0475 60.5578L40.7711 59.5968ZM39.3979 61.261C39.3775 61.8987 39.3683 62.5502 39.4012 63.2032L40.3999 63.153C40.3691 62.5405 40.3773 61.9206 40.3974 61.2929L39.3979 61.261ZM39.4012 63.2034C39.4591 64.3433 40.5502 65.1411 41.6338 64.8869L41.4055 63.9134C40.9227 64.0266 40.4258 63.663 40.3999 63.1527L39.4012 63.2034ZM42.0132 64.4803C42.2662 62.9225 43.443 62.1357 44.6294 62.0816L44.5839 61.0826C42.9776 61.1558 41.3631 62.2448 41.0261 64.32L42.0132 64.4803ZM44.6291 62.0816C45.2233 62.055 45.7676 62.2198 46.2642 62.5679L46.8382 61.749C46.1691 61.28 45.4088 61.0456 44.5843 61.0826L44.6291 62.0816ZM46.2643 62.568C46.9273 63.0323 47.2954 63.6753 47.4183 64.4959L48.4073 64.3478C48.2482 63.2853 47.7486 62.3867 46.838 61.7489L46.2643 62.568ZM57.9452 64.5016C58.215 62.8314 59.5207 62.055 60.7186 62.0813L60.7405 61.0815C59.0994 61.0456 57.3159 62.1262 56.958 64.3421L57.9452 64.5016ZM60.7186 62.0813C61.9694 62.1086 63.1362 63.0007 63.3535 64.5098L64.3433 64.3672C64.0545 62.3619 62.4676 61.1193 60.7405 61.0815L60.7186 62.0813ZM38.7334 61.0766L37.7675 60.8178L37.7334 60.945V61.0766H38.7334ZM39.3199 59.7902L38.5579 59.1426L38.5578 59.1427L39.3199 59.7902ZM40.7271 58.9261L40.9885 59.8913L40.9885 59.8913L40.7271 58.9261ZM44.6038 57.8732L44.3469 56.9067L44.3456 56.9071L44.6038 57.8732ZM45.0847 57.5442L44.2857 56.9427L44.2851 56.9436L45.0847 57.5442ZM47.3871 54.5186L48.1855 55.1207L48.1856 55.1206L47.3871 54.5186ZM50.1104 53.1569L50.1094 52.1569L50.1091 52.1569L50.1104 53.1569ZM58.4344 53.1576L58.4325 54.1576L58.4326 54.1576L58.4344 53.1576ZM61.2972 54.7594L62.1471 54.2323L62.147 54.2323L61.2972 54.7594ZM63.1014 57.6259L63.9441 57.0874L63.9436 57.0866L63.1014 57.6259ZM63.4384 57.9238L63.0052 58.8251L63.0064 58.8257L63.4384 57.9238ZM65.3142 58.7843L65.7233 57.8718L65.7232 57.8718L65.3142 58.7843ZM66.9608 61.3413L67.9607 61.3544L67.9607 61.3544L66.9608 61.3413ZM66.9239 63.3234L67.9183 63.429L67.9183 63.4289L66.9239 63.3234ZM64.3922 65.581L64.4034 64.5811L64.4034 64.5811L64.3922 65.581ZM63.5447 66.1263L64.4639 66.5202L64.464 66.5198L63.5447 66.1263ZM60.5285 67.9956L60.4736 68.994L60.4739 68.9941L60.5285 67.9956ZM57.6129 65.8037L58.5595 65.4813L58.5589 65.4798L57.6129 65.8037ZM57.3272 65.5911L57.3272 64.5911L57.3256 64.5912L57.3272 65.5911ZM48.0386 65.5904L48.0405 64.5904H48.0386V65.5904ZM47.7537 65.8052L48.6992 66.1309L48.6992 66.1308L47.7537 65.8052ZM44.726 67.9963L44.7281 68.9963L44.7281 68.9963L44.726 67.9963ZM41.6751 65.798L42.6206 65.4723L42.6203 65.4715L41.6751 65.798ZM41.4148 65.5904L41.4481 66.5899L41.4497 66.5898L41.4148 65.5904ZM38.7602 63.382L37.7685 63.5113L37.7696 63.5191L38.7602 63.382ZM38.7334 63.3343L37.7334 63.3343V63.6076L37.8725 63.843L38.7334 63.3343ZM44.7224 66.8241L44.716 65.8241L44.7159 65.8241L44.7224 66.8241ZM46.7674 64.7718L47.7673 64.7582L47.7673 64.7578L46.7674 64.7718ZM44.7065 62.7304L44.7116 63.7304L44.7116 63.7304L44.7065 62.7304ZM42.6607 64.7885L43.6607 64.7795L43.6607 64.7794L42.6607 64.7885ZM60.6609 66.8241L60.6526 65.8241L60.6525 65.8241L60.6609 66.8241ZM62.7044 64.7697L63.7043 64.754L63.7043 64.7537L62.7044 64.7697ZM60.6399 62.7304L60.6463 63.7304L60.6464 63.7304L60.6399 62.7304ZM58.5963 64.7906L59.5963 64.7785L59.5963 64.7783L58.5963 64.7906ZM39.6993 61.3355C39.8203 60.8841 39.9198 60.6285 40.0819 60.4377L38.5578 59.1427C38.0821 59.7025 37.8938 60.3465 37.7675 60.8178L39.6993 61.3355ZM40.0818 60.4378C40.3077 60.1721 40.5961 59.9975 40.9885 59.8913L40.4657 57.9608C39.7473 58.1554 39.0855 58.5217 38.5579 59.1426L40.0818 60.4378ZM40.9885 59.8913C42.2892 59.539 43.5691 59.1847 44.8619 58.8393L44.3456 56.9071C43.0511 57.253 41.7494 57.6131 40.4656 57.9608L40.9885 59.8913ZM44.8606 58.8396C45.2982 58.7233 45.6297 58.4836 45.8842 58.1447L44.2851 56.9436C44.2783 56.9525 44.2769 56.9533 44.281 56.9493C44.2854 56.9448 44.2939 56.9373 44.3059 56.929C44.3181 56.9206 44.3298 56.9143 44.3392 56.9101C44.3483 56.906 44.3518 56.9054 44.3469 56.9067L44.8606 58.8396ZM45.8836 58.1456C46.262 57.6429 46.6447 57.1423 47.0299 56.6386C47.4144 56.1358 47.8017 55.6297 48.1855 55.1207L46.5887 53.9165C46.2096 54.4191 45.8267 54.9196 45.4413 55.4236C45.0566 55.9267 44.6694 56.433 44.2857 56.9427L45.8836 58.1456ZM48.1856 55.1206C48.682 54.4622 49.2939 54.158 50.1117 54.1569L50.1091 52.1569C48.6635 52.1588 47.4618 52.7584 46.5886 53.9165L48.1856 55.1206ZM50.1114 54.1569C52.8858 54.154 55.6594 54.1526 58.4325 54.1576L58.4362 52.1576C55.6601 52.1526 52.8843 52.154 50.1094 52.1569L50.1114 54.1569ZM58.4326 54.1576C59.3323 54.1592 59.968 54.5135 60.4474 55.2865L62.147 54.2323C61.306 52.8763 60.0312 52.1604 58.4361 52.1576L58.4326 54.1576ZM60.4474 55.2864C61.0444 56.2491 61.6473 57.2093 62.2593 58.1651L63.9436 57.0866C63.3379 56.1407 62.7403 55.1889 62.1471 54.2323L60.4474 55.2864ZM62.2588 58.1644C62.4382 58.445 62.7087 58.6826 63.0052 58.8251L63.8716 57.0225C63.8862 57.0295 63.8956 57.0354 63.9007 57.0389C63.906 57.0424 63.9096 57.0453 63.9122 57.0476C63.9148 57.0499 63.9183 57.0533 63.9228 57.0585C63.9273 57.0636 63.9348 57.0729 63.9441 57.0874L62.2588 58.1644ZM63.0064 58.8257C63.6399 59.1291 64.2786 59.4161 64.9053 59.6969L65.7232 57.8718C65.0944 57.59 64.4778 57.3129 63.8704 57.0219L63.0064 58.8257ZM64.9051 59.6968C65.319 59.8824 65.5681 60.104 65.7185 60.3362C65.8681 60.5669 65.9667 60.8801 65.9609 61.3282L67.9607 61.3544C67.9707 60.5863 67.7986 59.8686 67.3971 59.2488C66.9965 58.6304 66.4143 58.1816 65.7233 57.8718L64.9051 59.6968ZM65.9609 61.3282C65.9508 62.0934 65.9927 62.6218 65.9295 63.2179L67.9183 63.4289C67.9939 62.7162 67.9534 61.9111 67.9607 61.3544L65.9609 61.3282ZM65.9295 63.2179C65.8397 64.0638 65.2465 64.5905 64.4034 64.5811L64.3811 66.581C66.2612 66.6019 67.7203 65.2948 67.9183 63.429L65.9295 63.2179ZM64.4034 64.5811C64.1149 64.5779 63.7151 64.6041 63.3381 64.8397C62.9538 65.0799 62.7521 65.4367 62.6254 65.7327L64.464 66.5198C64.4926 66.453 64.5059 66.4372 64.4992 66.4463C64.4948 66.4523 64.4841 66.4659 64.4662 66.4831C64.4478 66.5006 64.425 66.5189 64.3981 66.5357C64.3714 66.5524 64.3459 66.5644 64.3242 66.5725C64.3031 66.5804 64.2888 66.5835 64.2846 66.5843C64.2808 66.585 64.2857 66.5838 64.3025 66.5826C64.3194 66.5815 64.3447 66.5806 64.3811 66.581L64.4034 64.5811ZM62.6256 65.7323C62.2776 66.5443 61.4315 67.0435 60.5832 66.9971L60.4739 68.9941C62.1348 69.085 63.7749 68.1279 64.4639 66.5202L62.6256 65.7323ZM60.5835 66.9971C59.6163 66.9438 58.8642 66.3759 58.5595 65.4813L56.6663 66.1262C57.2395 67.8089 58.7088 68.8969 60.4736 68.994L60.5835 66.9971ZM58.5589 65.4798C58.5139 65.3482 58.4044 65.0609 58.1197 64.8434C57.8208 64.615 57.5004 64.5911 57.3272 64.5911V66.5911C57.3219 66.5911 57.1172 66.5944 56.9056 66.4327C56.8056 66.3563 56.7437 66.2726 56.7087 66.2136C56.692 66.1854 56.6813 66.1626 56.6753 66.149C56.6723 66.142 56.6701 66.1366 56.6688 66.1331C56.6675 66.1297 56.6668 66.1278 56.6668 66.1277L58.5589 65.4798ZM57.3256 64.5912C54.2303 64.5962 51.1357 64.5962 48.0405 64.5904L48.0368 66.5904C51.1345 66.5962 54.2313 66.5962 57.3289 66.5911L57.3256 64.5912ZM48.0386 64.5904C47.8469 64.5904 47.5228 64.6223 47.2263 64.8598C46.9526 65.079 46.8487 65.3619 46.8082 65.4796L48.6992 66.1308C48.7115 66.0951 48.6641 66.2707 48.4765 66.4209C48.2663 66.5892 48.0583 66.5904 48.0386 66.5904V64.5904ZM46.8082 65.4795C46.4887 66.4072 45.6586 66.9943 44.7239 66.9963L44.7281 68.9963C46.5312 68.9925 48.1076 67.8484 48.6992 66.1309L46.8082 65.4795ZM44.7239 66.9963C43.7729 66.9983 42.9455 66.4154 42.6206 65.4723L40.7296 66.1237C41.3274 67.859 42.9051 69.0001 44.7281 68.9963L44.7239 66.9963ZM42.6203 65.4715C42.597 65.404 42.5081 65.1251 42.264 64.9017C41.9635 64.6268 41.6135 64.5829 41.3799 64.591L41.4497 66.5898C41.3817 66.5922 41.1375 66.5819 40.9138 66.3771C40.8212 66.2925 40.7716 66.2085 40.7496 66.166C40.7296 66.1274 40.7228 66.104 40.7299 66.1244L42.6203 65.4715ZM41.3814 64.591C40.4952 64.6206 39.8606 64.0392 39.7507 63.2449L37.7696 63.5191C38.0169 65.3064 39.517 66.6543 41.4481 66.5899L41.3814 64.591ZM39.7518 63.2526C39.7345 63.1201 39.6947 63.0155 39.6622 62.9462C39.6304 62.8781 39.5977 62.8275 39.5815 62.8032C39.5683 62.7833 39.5497 62.7574 39.557 62.7678C39.5577 62.7687 39.5622 62.7751 39.5681 62.7839C39.5741 62.7928 39.5835 62.8072 39.5943 62.8255L37.8725 63.843C37.8971 63.8847 37.9201 63.9169 37.9254 63.9244C37.9383 63.9426 37.9254 63.9245 37.9174 63.9125C37.9065 63.8961 37.8786 63.8533 37.8505 63.7933C37.8219 63.732 37.7848 63.6356 37.7686 63.5113L39.7518 63.2526ZM39.7334 63.3343C39.7334 62.5774 39.7334 61.8364 39.7334 61.0766H37.7334C37.7334 61.8364 37.7334 62.5774 37.7334 63.3343L39.7334 63.3343ZM47.9128 65.4218C47.9191 65.4218 47.9253 65.4218 47.9315 65.4218C47.9378 65.4218 47.944 65.4218 47.9502 65.4218C47.9565 65.4218 47.9627 65.4218 47.9689 65.4218C47.9752 65.4218 47.9814 65.4218 47.9877 65.4218C47.9939 65.4218 48.0001 65.4218 48.0064 65.4218C48.0126 65.4218 48.0188 65.4218 48.0251 65.4218C48.0313 65.4218 48.0375 65.4218 48.0438 65.4218C48.05 65.4218 48.0563 65.4218 48.0625 65.4218C48.0687 65.4218 48.075 65.4218 48.0812 65.4218C48.0874 65.4218 48.0937 65.4218 48.0999 65.4218C48.1061 65.4218 48.1124 65.4218 48.1186 65.4218C48.1248 65.4218 48.1311 65.4218 48.1373 65.4218C48.1435 65.4218 48.1498 65.4218 48.156 65.4218C48.1623 65.4218 48.1685 65.4218 48.1747 65.4218C48.181 65.4218 48.1872 65.4218 48.1934 65.4218C48.1997 65.4218 48.2059 65.4218 48.2121 65.4218C48.2184 65.4218 48.2246 65.4218 48.2308 65.4218C48.2371 65.4218 48.2433 65.4218 48.2495 65.4218C48.2558 65.4218 48.262 65.4218 48.2682 65.4218C48.2745 65.4218 48.2807 65.4218 48.2869 65.4218C48.2932 65.4218 48.2994 65.4218 48.3056 65.4218C48.3119 65.4218 48.3181 65.4218 48.3243 65.4218C48.3306 65.4218 48.3368 65.4218 48.343 65.4218C48.3493 65.4218 48.3555 65.4218 48.3618 65.4218C48.368 65.4218 48.3742 65.4218 48.3805 65.4218C48.3867 65.4218 48.3929 65.4218 48.3992 65.4218C48.4054 65.4218 48.4116 65.4218 48.4179 65.4218C48.4241 65.4218 48.4303 65.4218 48.4365 65.4218C48.4428 65.4218 48.449 65.4218 48.4552 65.4218C48.4615 65.4218 48.4677 65.4218 48.4739 65.4218C48.4802 65.4218 48.4864 65.4218 48.4926 65.4218C48.4989 65.4218 48.5051 65.4218 48.5113 65.4218C48.5176 65.4218 48.5238 65.4218 48.53 65.4218C48.5363 65.4218 48.5425 65.4218 48.5487 65.4218C48.555 65.4218 48.5612 65.4218 48.5674 65.4218C48.5737 65.4218 48.5799 65.4218 48.5861 65.4218C48.5924 65.4218 48.5986 65.4218 48.6048 65.4218C48.6111 65.4218 48.6173 65.4218 48.6235 65.4218C48.6297 65.4218 48.636 65.4218 48.6422 65.4218C48.6484 65.4218 48.6547 65.4218 48.6609 65.4218C48.6671 65.4218 48.6734 65.4218 48.6796 65.4218C48.6858 65.4218 48.6921 65.4218 48.6983 65.4218C48.7045 65.4218 48.7108 65.4218 48.717 65.4218C48.7232 65.4218 48.7294 65.4218 48.7357 65.4218C48.7419 65.4218 48.7481 65.4218 48.7544 65.4218C48.7606 65.4218 48.7668 65.4218 48.7731 65.4218C48.7793 65.4218 48.7855 65.4218 48.7918 65.4218C48.798 65.4218 48.8042 65.4218 48.8104 65.4218C48.8167 65.4218 48.8229 65.4218 48.8291 65.4218C48.8354 65.4218 48.8416 65.4218 48.8478 65.4218C48.8541 65.4218 48.8603 65.4218 48.8665 65.4218C48.8727 65.4218 48.879 65.4218 48.8852 65.4218C48.8914 65.4218 48.8977 65.4218 48.9039 65.4218C48.9101 65.4218 48.9163 65.4218 48.9226 65.4218C48.9288 65.4218 48.935 65.4218 48.9413 65.4218C48.9475 65.4218 48.9537 65.4218 48.96 65.4218C48.9662 65.4218 48.9724 65.4218 48.9786 65.4218C48.9849 65.4218 48.9911 65.4218 48.9973 65.4218C49.0036 65.4218 49.0098 65.4218 49.016 65.4218C49.0222 65.4218 49.0285 65.4218 49.0347 65.4218C49.0409 65.4218 49.0472 65.4218 49.0534 65.4218C49.0596 65.4218 49.0658 65.4218 49.0721 65.4218C49.0783 65.4218 49.0845 65.4218 49.0908 65.4218C49.097 65.4218 49.1032 65.4218 49.1094 65.4218C49.1157 65.4218 49.1219 65.4218 49.1281 65.4218C49.1343 65.4218 49.1406 65.4218 49.1468 65.4218C49.153 65.4218 49.1593 65.4218 49.1655 65.4218C49.1717 65.4218 49.1779 65.4218 49.1842 65.4218C49.1904 65.4218 49.1966 65.4218 49.2029 65.4218C49.2091 65.4218 49.2153 65.4218 49.2215 65.4218C49.2278 65.4218 49.234 65.4218 49.2402 65.4218C49.2464 65.4218 49.2527 65.4218 49.2589 65.4218C49.2651 65.4218 49.2713 65.4218 49.2776 65.4218C49.2838 65.4218 49.29 65.4218 49.2963 65.4218C49.3025 65.4218 49.3087 65.4218 49.3149 65.4218C49.3212 65.4218 49.3274 65.4218 49.3336 65.4218C49.3398 65.4218 49.3461 65.4218 49.3523 65.4218C49.3585 65.4218 49.3647 65.4218 49.371 65.4218C49.3772 65.4218 49.3834 65.4218 49.3897 65.4218C49.3959 65.4218 49.4021 65.4218 49.4083 65.4218C49.4146 65.4218 49.4208 65.4218 49.427 65.4218C49.4332 65.4218 49.4395 65.4218 49.4457 65.4218C49.4519 65.4218 49.4581 65.4218 49.4644 65.4218C49.4706 65.4218 49.4768 65.4218 49.483 65.4218C49.4893 65.4218 49.4955 65.4218 49.5017 65.4218C49.5079 65.4218 49.5142 65.4218 49.5204 65.4218C49.5266 65.4218 49.5328 65.4218 49.5391 65.4218C49.5453 65.4218 49.5515 65.4218 49.5577 65.4218C49.564 65.4218 49.5702 65.4218 49.5764 65.4218C49.5826 65.4218 49.5889 65.4218 49.5951 65.4218C49.6013 65.4218 49.6075 65.4218 49.6138 65.4218C49.62 65.4218 49.6262 65.4218 49.6324 65.4218C49.6387 65.4218 49.6449 65.4218 49.6511 65.4218C49.6573 65.4218 49.6636 65.4218 49.6698 65.4218C49.676 65.4218 49.6822 65.4218 49.6885 65.4218C49.6947 65.4218 49.7009 65.4218 49.7071 65.4218C49.7133 65.4218 49.7196 65.4218 49.7258 65.4218C49.732 65.4218 49.7382 65.4218 49.7445 65.4218C49.7507 65.4218 49.7569 65.4218 49.7631 65.4218C49.7694 65.4218 49.7756 65.4218 49.7818 65.4218C49.788 65.4218 49.7943 65.4218 49.8005 65.4218C49.8067 65.4218 49.8129 65.4218 49.8191 65.4218C49.8254 65.4218 49.8316 65.4218 49.8378 65.4218C49.844 65.4218 49.8503 65.4218 49.8565 65.4218C49.8627 65.4218 49.8689 65.4218 49.8752 65.4218C49.8814 65.4218 49.8876 65.4218 49.8938 65.4218C49.9 65.4218 49.9063 65.4218 49.9125 65.4218C49.9187 65.4218 49.9249 65.4218 49.9312 65.4218C49.9374 65.4218 49.9436 65.4218 49.9498 65.4218C49.956 65.4218 49.9623 65.4218 49.9685 65.4218C49.9747 65.4218 49.9809 65.4218 49.9872 65.4218C49.9934 65.4218 49.9996 65.4218 50.0058 65.4218C50.012 65.4218 50.0183 65.4218 50.0245 65.4218C50.0307 65.4218 50.0369 65.4218 50.0432 65.4218C50.0494 65.4218 50.0556 65.4218 50.0618 65.4218C50.068 65.4218 50.0743 65.4218 50.0805 65.4218C50.0867 65.4218 50.0929 65.4218 50.0991 65.4218C50.1054 65.4218 50.1116 65.4218 50.1178 65.4218C50.124 65.4218 50.1303 65.4218 50.1365 65.4218C50.1427 65.4218 50.1489 65.4218 50.1551 65.4218C50.1614 65.4218 50.1676 65.4218 50.1738 65.4218C50.18 65.4218 50.1862 65.4218 50.1925 65.4218C50.1987 65.4218 50.2049 65.4218 50.2111 65.4218C50.2173 65.4218 50.2236 65.4218 50.2298 65.4218C50.236 65.4218 50.2422 65.4218 50.2484 65.4218C50.2547 65.4218 50.2609 65.4218 50.2671 65.4218C50.2733 65.4218 50.2796 65.4218 50.2858 65.4218C50.292 65.4218 50.2982 65.4218 50.3044 65.4218C50.3107 65.4218 50.3169 65.4218 50.3231 65.4218C50.3293 65.4218 50.3355 65.4218 50.3418 65.4218C50.348 65.4218 50.3542 65.4218 50.3604 65.4218C50.3666 65.4218 50.3728 65.4218 50.3791 65.4218C50.3853 65.4218 50.3915 65.4218 50.3977 65.4218C50.4039 65.4218 50.4102 65.4218 50.4164 65.4218C50.4226 65.4218 50.4288 65.4218 50.435 65.4218C50.4413 65.4218 50.4475 65.4218 50.4537 65.4218C50.4599 65.4218 50.4661 65.4218 50.4724 65.4218C50.4786 65.4218 50.4848 65.4218 50.491 65.4218C50.4972 65.4218 50.5035 65.4218 50.5097 65.4218C50.5159 65.4218 50.5221 65.4218 50.5283 65.4218C50.5345 65.4218 50.5408 65.4218 50.547 65.4218C50.5532 65.4218 50.5594 65.4218 50.5656 65.4218C50.5719 65.4218 50.5781 65.4218 50.5843 65.4218C50.5905 65.4218 50.5967 65.4218 50.6029 65.4218C50.6092 65.4218 50.6154 65.4218 50.6216 65.4218C50.6278 65.4218 50.634 65.4218 50.6403 65.4218C50.6465 65.4218 50.6527 65.4218 50.6589 65.4218C50.6651 65.4218 50.6713 65.4218 50.6776 65.4218C50.6838 65.4218 50.69 65.4218 50.6962 65.4218C50.7024 65.4218 50.7087 65.4218 50.7149 65.4218C50.7211 65.4218 50.7273 65.4218 50.7335 65.4218C50.7397 65.4218 50.746 65.4218 50.7522 65.4218C50.7584 65.4218 50.7646 65.4218 50.7708 65.4218C50.777 65.4218 50.7833 65.4218 50.7895 65.4218C50.7957 65.4218 50.8019 65.4218 50.8081 65.4218C50.8143 65.4218 50.8206 65.4218 50.8268 65.4218C50.833 65.4218 50.8392 65.4218 50.8454 65.4218C50.8516 65.4218 50.8579 65.4218 50.8641 65.4218C50.8703 65.4218 50.8765 65.4218 50.8827 65.4218C50.8889 65.4218 50.8952 65.4218 50.9014 65.4218C50.9076 65.4218 50.9138 65.4218 50.92 65.4218C50.9262 65.4218 50.9325 65.4218 50.9387 65.4218C50.9449 65.4218 50.9511 65.4218 50.9573 65.4218C50.9635 65.4218 50.9698 65.4218 50.976 65.4218C50.9822 65.4218 50.9884 65.4218 50.9946 65.4218C51.0008 65.4218 51.0071 65.4218 51.0133 65.4218C51.0195 65.4218 51.0257 65.4218 51.0319 65.4218C51.0381 65.4218 51.0444 65.4218 51.0506 65.4218C51.0568 65.4218 51.063 65.4218 51.0692 65.4218C51.0754 65.4218 51.0816 65.4218 51.0879 65.4218C51.0941 65.4218 51.1003 65.4218 51.1065 65.4218C51.1127 65.4218 51.1189 65.4218 51.1252 65.4218C51.1314 65.4218 51.1376 65.4218 51.1438 65.4218C51.15 65.4218 51.1562 65.4218 51.1624 65.4218C51.1687 65.4218 51.1749 65.4218 51.1811 65.4218C51.1873 65.4218 51.1935 65.4218 51.1997 65.4218C51.2059 65.4218 51.2122 65.4218 51.2184 65.4218C51.2246 65.4218 51.2308 65.4218 51.237 65.4218C51.2432 65.4218 51.2494 65.4218 51.2557 65.4218C51.2619 65.4218 51.2681 65.4218 51.2743 65.4218C51.2805 65.4218 51.2867 65.4218 51.293 65.4218C51.2992 65.4218 51.3054 65.4218 51.3116 65.4218C51.3178 65.4218 51.324 65.4218 51.3302 65.4218C51.3364 65.4218 51.3427 65.4218 51.3489 65.4218C51.3551 65.4218 51.3613 65.4218 51.3675 65.4218C51.3737 65.4218 51.3799 65.4218 51.3862 65.4218C51.3924 65.4218 51.3986 65.4218 51.4048 65.4218C51.411 65.4218 51.4172 65.4218 51.4234 65.4218C51.4297 65.4218 51.4359 65.4218 51.4421 65.4218C51.4483 65.4218 51.4545 65.4218 51.4607 65.4218C51.4669 65.4218 51.4732 65.4218 51.4794 65.4218C51.4856 65.4218 51.4918 65.4218 51.498 65.4218C51.5042 65.4218 51.5104 65.4218 51.5166 65.4218C51.5229 65.4218 51.5291 65.4218 51.5353 65.4218C51.5415 65.4218 51.5477 65.4218 51.5539 65.4218C51.5601 65.4218 51.5663 65.4218 51.5726 65.4218C51.5788 65.4218 51.585 65.4218 51.5912 65.4218C51.5974 65.4218 51.6036 65.4218 51.6098 65.4218C51.616 65.4218 51.6223 65.4218 51.6285 65.4218C51.6347 65.4218 51.6409 65.4218 51.6471 65.4218C51.6533 65.4218 51.6595 65.4218 51.6657 65.4218C51.672 65.4218 51.6782 65.4218 51.6844 65.4218C51.6906 65.4218 51.6968 65.4218 51.703 65.4218C51.7092 65.4218 51.7154 65.4218 51.7217 65.4218C51.7279 65.4218 51.7341 65.4218 51.7403 65.4218C51.7465 65.4218 51.7527 65.4218 51.7589 65.4218C51.7651 65.4218 51.7714 65.4218 51.7776 65.4218C51.7838 65.4218 51.79 65.4218 51.7962 65.4218C51.8024 65.4218 51.8086 65.4218 51.8148 65.4218C51.821 65.4218 51.8273 65.4218 51.8335 65.4218C51.8397 65.4218 51.8459 65.4218 51.8521 65.4218C51.8583 65.4218 51.8645 65.4218 51.8707 65.4218C51.8769 65.4218 51.8832 65.4218 51.8894 65.4218C51.8956 65.4218 51.9018 65.4218 51.908 65.4218C51.9142 65.4218 51.9204 65.4218 51.9266 65.4218C51.9328 65.4218 51.9391 65.4218 51.9453 65.4218C51.9515 65.4218 51.9577 65.4218 51.9639 65.4218C51.9701 65.4218 51.9763 65.4218 51.9825 65.4218C51.9887 65.4218 51.995 65.4218 52.0012 65.4218C52.0074 65.4218 52.0136 65.4218 52.0198 65.4218C52.026 65.4218 52.0322 65.4218 52.0384 65.4218C52.0446 65.4218 52.0508 65.4218 52.0571 65.4218C52.0633 65.4218 52.0695 65.4218 52.0757 65.4218C52.0819 65.4218 52.0881 65.4218 52.0943 65.4218C52.1005 65.4218 52.1067 65.4218 52.1129 65.4218C52.1192 65.4218 52.1254 65.4218 52.1316 65.4218C52.1378 65.4218 52.144 65.4218 52.1502 65.4218C52.1564 65.4218 52.1626 65.4218 52.1688 65.4218C52.175 65.4218 52.1813 65.4218 52.1875 65.4218C52.1937 65.4218 52.1999 65.4218 52.2061 65.4218C52.2123 65.4218 52.2185 65.4218 52.2247 65.4218C52.2309 65.4218 52.2371 65.4218 52.2434 65.4218C52.2496 65.4218 52.2558 65.4218 52.262 65.4218C52.2682 65.4218 52.2744 65.4218 52.2806 65.4218C52.2868 65.4218 52.293 65.4218 52.2992 65.4218C52.3054 65.4218 52.3117 65.4218 52.3179 65.4218C52.3241 65.4218 52.3303 65.4218 52.3365 65.4218C52.3427 65.4218 52.3489 65.4218 52.3551 65.4218C52.3613 65.4218 52.3675 65.4218 52.3737 65.4218C52.38 65.4218 52.3862 65.4218 52.3924 65.4218C52.3986 65.4218 52.4048 65.4218 52.411 65.4218C52.4172 65.4218 52.4234 65.4218 52.4296 65.4218C52.4358 65.4218 52.442 65.4218 52.4482 65.4218C52.4545 65.4218 52.4607 65.4218 52.4669 65.4218C52.4731 65.4218 52.4793 65.4218 52.4855 65.4218C52.4917 65.4218 52.4979 65.4218 52.5041 65.4218C52.5103 65.4218 52.5165 65.4218 52.5227 65.4218C52.529 65.4218 52.5352 65.4218 52.5414 65.4218C52.5476 65.4218 52.5538 65.4218 52.56 65.4218C52.5662 65.4218 52.5724 65.4218 52.5786 65.4218C52.5848 65.4218 52.591 65.4218 52.5972 65.4218C52.6034 65.4218 52.6097 65.4218 52.6159 65.4218C52.6221 65.4218 52.6283 65.4218 52.6345 65.4218C52.6407 65.4218 52.6469 65.4218 52.6531 65.4218C52.6593 65.4218 52.6655 65.4218 52.6717 65.4218C52.6779 65.4218 52.6841 65.4218 52.6904 65.4218C52.6966 65.4218 52.7028 65.4218 52.709 65.4218C52.7152 65.4218 52.7214 65.4218 52.7276 65.4218C52.7338 65.4218 52.74 65.4218 52.7462 65.4218C52.7524 65.4218 52.7586 65.4218 52.7648 65.4218C52.771 65.4218 52.7773 65.4218 52.7835 65.4218C52.7897 65.4218 52.7959 65.4218 52.8021 65.4218C52.8083 65.4218 52.8145 65.4218 52.8207 65.4218C52.8269 65.4218 52.8331 65.4218 52.8393 65.4218C52.8455 65.4218 52.8517 65.4218 52.8579 65.4218C52.8641 65.4218 52.8704 65.4218 52.8766 65.4218C52.8828 65.4218 52.889 65.4218 52.8952 65.4218C52.9014 65.4218 52.9076 65.4218 52.9138 65.4218C52.92 65.4218 52.9262 65.4218 52.9324 65.4218C52.9386 65.4218 52.9448 65.4218 52.951 65.4218C52.9572 65.4218 52.9635 65.4218 52.9697 65.4218C52.9759 65.4218 52.9821 65.4218 52.9883 65.4218C52.9945 65.4218 53.0007 65.4218 53.0069 65.4218C53.0131 65.4218 53.0193 65.4218 53.0255 65.4218C53.0317 65.4218 53.0379 65.4218 53.0441 65.4218C53.0503 65.4218 53.0565 65.4218 53.0627 65.4218C53.069 65.4218 53.0752 65.4218 53.0814 65.4218C53.0876 65.4218 53.0938 65.4218 53.1 65.4218C53.1062 65.4218 53.1124 65.4218 53.1186 65.4218C53.1248 65.4218 53.131 65.4218 53.1372 65.4218C53.1434 65.4218 53.1496 65.4218 53.1558 65.4218C53.162 65.4218 53.1682 65.4218 53.1744 65.4218C53.1807 65.4218 53.1869 65.4218 53.1931 65.4218C53.1993 65.4218 53.2055 65.4218 53.2117 65.4218C53.2179 65.4218 53.2241 65.4218 53.2303 65.4218C53.2365 65.4218 53.2427 65.4218 53.2489 65.4218C53.2551 65.4218 53.2613 65.4218 53.2675 65.4218C53.2737 65.4218 53.2799 65.4218 53.2861 65.4218C53.2923 65.4218 53.2985 65.4218 53.3048 65.4218C53.311 65.4218 53.3172 65.4218 53.3234 65.4218C53.3296 65.4218 53.3358 65.4218 53.342 65.4218C53.3482 65.4218 53.3544 65.4218 53.3606 65.4218C53.3668 65.4218 53.373 65.4218 53.3792 65.4218C53.3854 65.4218 53.3916 65.4218 53.3978 65.4218C53.404 65.4218 53.4102 65.4218 53.4164 65.4218C53.4226 65.4218 53.4288 65.4218 53.435 65.4218C53.4412 65.4218 53.4475 65.4218 53.4537 65.4218C53.4599 65.4218 53.4661 65.4218 53.4723 65.4218C53.4785 65.4218 53.4847 65.4218 53.4909 65.4218C53.4971 65.4218 53.5033 65.4218 53.5095 65.4218C53.5157 65.4218 53.5219 65.4218 53.5281 65.4218C53.5343 65.4218 53.5405 65.4218 53.5467 65.4218C53.5529 65.4218 53.5591 65.4218 53.5653 65.4218C53.5715 65.4218 53.5777 65.4218 53.5839 65.4218C53.5901 65.4218 53.5963 65.4218 53.6026 65.4218C53.6088 65.4218 53.615 65.4218 53.6212 65.4218C53.6274 65.4218 53.6336 65.4218 53.6398 65.4218C53.646 65.4218 53.6522 65.4218 53.6584 65.4218C53.6646 65.4218 53.6708 65.4218 53.677 65.4218C53.6832 65.4218 53.6894 65.4218 53.6956 65.4218C53.7018 65.4218 53.708 65.4218 53.7142 65.4218C53.7204 65.4218 53.7266 65.4218 53.7328 65.4218C53.739 65.4218 53.7452 65.4218 53.7514 65.4218C53.7576 65.4218 53.7638 65.4218 53.77 65.4218C53.7762 65.4218 53.7824 65.4218 53.7886 65.4218C53.7949 65.4218 53.8011 65.4218 53.8073 65.4218C53.8135 65.4218 53.8197 65.4218 53.8259 65.4218C53.8321 65.4218 53.8383 65.4218 53.8445 65.4218C53.8507 65.4218 53.8569 65.4218 53.8631 65.4218C53.8693 65.4218 53.8755 65.4218 53.8817 65.4218C53.8879 65.4218 53.8941 65.4218 53.9003 65.4218C53.9065 65.4218 53.9127 65.4218 53.9189 65.4218C53.9251 65.4218 53.9313 65.4218 53.9375 65.4218C53.9437 65.4218 53.9499 65.4218 53.9561 65.4218C53.9623 65.4218 53.9685 65.4218 53.9747 65.4218C53.9809 65.4218 53.9871 65.4218 53.9933 65.4218C53.9995 65.4218 54.0057 65.4218 54.0119 65.4218C54.0181 65.4218 54.0243 65.4218 54.0305 65.4218C54.0367 65.4218 54.0429 65.4218 54.0492 65.4218C54.0554 65.4218 54.0616 65.4218 54.0678 65.4218C54.074 65.4218 54.0802 65.4218 54.0864 65.4218C54.0926 65.4218 54.0988 65.4218 54.105 65.4218C54.1112 65.4218 54.1174 65.4218 54.1236 65.4218C54.1298 65.4218 54.136 65.4218 54.1422 65.4218C54.1484 65.4218 54.1546 65.4218 54.1608 65.4218C54.167 65.4218 54.1732 65.4218 54.1794 65.4218C54.1856 65.4218 54.1918 65.4218 54.198 65.4218C54.2042 65.4218 54.2104 65.4218 54.2166 65.4218C54.2228 65.4218 54.229 65.4218 54.2352 65.4218C54.2414 65.4218 54.2476 65.4218 54.2538 65.4218C54.26 65.4218 54.2662 65.4218 54.2724 65.4218C54.2786 65.4218 54.2848 65.4218 54.291 65.4218C54.2972 65.4218 54.3034 65.4218 54.3096 65.4218C54.3158 65.4218 54.322 65.4218 54.3282 65.4218C54.3344 65.4218 54.3406 65.4218 54.3468 65.4218C54.353 65.4218 54.3592 65.4218 54.3654 65.4218C54.3716 65.4218 54.3778 65.4218 54.384 65.4218C54.3902 65.4218 54.3964 65.4218 54.4026 65.4218C54.4088 65.4218 54.415 65.4218 54.4212 65.4218C54.4274 65.4218 54.4336 65.4218 54.4398 65.4218C54.446 65.4218 54.4522 65.4218 54.4584 65.4218C54.4646 65.4218 54.4708 65.4218 54.477 65.4218C54.4832 65.4218 54.4894 65.4218 54.4956 65.4218C54.5018 65.4218 54.508 65.4218 54.5142 65.4218C54.5204 65.4218 54.5266 65.4218 54.5328 65.4218C54.539 65.4218 54.5452 65.4218 54.5514 65.4218C54.5576 65.4218 54.5638 65.4218 54.57 65.4218C54.5762 65.4218 54.5824 65.4218 54.5886 65.4218C54.5948 65.4218 54.601 65.4218 54.6072 65.4218C54.6134 65.4218 54.6196 65.4218 54.6258 65.4218C54.632 65.4218 54.6382 65.4218 54.6444 65.4218C54.6506 65.4218 54.6568 65.4218 54.663 65.4218C54.6692 65.4218 54.6754 65.4218 54.6816 65.4218C54.6878 65.4218 54.694 65.4218 54.7002 65.4218C54.7064 65.4218 54.7126 65.4218 54.7188 65.4218C54.725 65.4218 54.7312 65.4218 54.7374 65.4218C54.7436 65.4218 54.7498 65.4218 54.756 65.4218C54.7622 65.4218 54.7684 65.4218 54.7746 65.4218C54.7808 65.4218 54.787 65.4218 54.7932 65.4218C54.7994 65.4218 54.8056 65.4218 54.8118 65.4218C54.818 65.4218 54.8242 65.4218 54.8304 65.4218C54.8366 65.4218 54.8428 65.4218 54.849 65.4218C54.8552 65.4218 54.8614 65.4218 54.8676 65.4218C54.8738 65.4218 54.88 65.4218 54.8862 65.4218C54.8924 65.4218 54.8986 65.4218 54.9048 65.4218C54.911 65.4218 54.9172 65.4218 54.9234 65.4218C54.9296 65.4218 54.9358 65.4218 54.942 65.4218C54.9482 65.4218 54.9544 65.4218 54.9606 65.4218C54.9668 65.4218 54.973 65.4218 54.9792 65.4218C54.9854 65.4218 54.9916 65.4218 54.9978 65.4218C55.004 65.4218 55.0102 65.4218 55.0164 65.4218C55.0226 65.4218 55.0288 65.4218 55.035 65.4218C55.0412 65.4218 55.0474 65.4218 55.0536 65.4218C55.0598 65.4218 55.066 65.4218 55.0722 65.4218C55.0784 65.4218 55.0846 65.4218 55.0908 65.4218C55.097 65.4218 55.1032 65.4218 55.1094 65.4218C55.1156 65.4218 55.1218 65.4218 55.128 65.4218C55.1342 65.4218 55.1404 65.4218 55.1466 65.4218C55.1528 65.4218 55.159 65.4218 55.1652 65.4218C55.1714 65.4218 55.1776 65.4218 55.1838 65.4218C55.19 65.4218 55.1962 65.4218 55.2024 65.4218C55.2086 65.4218 55.2148 65.4218 55.221 65.4218C55.2272 65.4218 55.2334 65.4218 55.2396 65.4218C55.2458 65.4218 55.252 65.4218 55.2582 65.4218C55.2644 65.4218 55.2706 65.4218 55.2768 65.4218C55.283 65.4218 55.2892 65.4218 55.2954 65.4218C55.3016 65.4218 55.3078 65.4218 55.314 65.4218C55.3202 65.4218 55.3264 65.4218 55.3325 65.4218C55.3387 65.4218 55.3449 65.4218 55.3511 65.4218C55.3573 65.4218 55.3635 65.4218 55.3697 65.4218C55.3759 65.4218 55.3821 65.4218 55.3883 65.4218C55.3945 65.4218 55.4007 65.4218 55.4069 65.4218C55.4131 65.4218 55.4193 65.4218 55.4255 65.4218C55.4317 65.4218 55.4379 65.4218 55.4441 65.4218C55.4503 65.4218 55.4565 65.4218 55.4627 65.4218C55.4689 65.4218 55.4751 65.4218 55.4813 65.4218C55.4875 65.4218 55.4937 65.4218 55.4999 65.4218C55.5061 65.4218 55.5123 65.4218 55.5185 65.4218C55.5247 65.4218 55.5309 65.4218 55.5371 65.4218C55.5433 65.4218 55.5495 65.4218 55.5557 65.4218C55.5619 65.4218 55.5681 65.4218 55.5743 65.4218C55.5805 65.4218 55.5867 65.4218 55.5929 65.4218C55.5991 65.4218 55.6053 65.4218 55.6115 65.4218C55.6176 65.4218 55.6238 65.4218 55.63 65.4218C55.6362 65.4218 55.6424 65.4218 55.6486 65.4218C55.6548 65.4218 55.661 65.4218 55.6672 65.4218C55.6734 65.4218 55.6796 65.4218 55.6858 65.4218C55.692 65.4218 55.6982 65.4218 55.7044 65.4218C55.7106 65.4218 55.7168 65.4218 55.723 65.4218C55.7292 65.4218 55.7354 65.4218 55.7416 65.4218C55.7478 65.4218 55.754 65.4218 55.7602 65.4218C55.7664 65.4218 55.7726 65.4218 55.7788 65.4218C55.785 65.4218 55.7912 65.4218 55.7974 65.4218C55.8036 65.4218 55.8098 65.4218 55.816 65.4218C55.8222 65.4218 55.8284 65.4218 55.8346 65.4218C55.8408 65.4218 55.8469 65.4218 55.8531 65.4218C55.8593 65.4218 55.8655 65.4218 55.8717 65.4218C55.8779 65.4218 55.8841 65.4218 55.8903 65.4218C55.8965 65.4218 55.9027 65.4218 55.9089 65.4218C55.9151 65.4218 55.9213 65.4218 55.9275 65.4218C55.9337 65.4218 55.9399 65.4218 55.9461 65.4218C55.9523 65.4218 55.9585 65.4218 55.9647 65.4218C55.9709 65.4218 55.9771 65.4218 55.9833 65.4218C55.9895 65.4218 55.9957 65.4218 56.0019 65.4218C56.0081 65.4218 56.0143 65.4218 56.0205 65.4218C56.0267 65.4218 56.0329 65.4218 56.039 65.4218C56.0452 65.4218 56.0514 65.4218 56.0576 65.4218C56.0638 65.4218 56.07 65.4218 56.0762 65.4218C56.0824 65.4218 56.0886 65.4218 56.0948 65.4218C56.101 65.4218 56.1072 65.4218 56.1134 65.4218C56.1196 65.4218 56.1258 65.4218 56.132 65.4218C56.1382 65.4218 56.1444 65.4218 56.1506 65.4218C56.1568 65.4218 56.163 65.4218 56.1692 65.4218C56.1754 65.4218 56.1816 65.4218 56.1878 65.4218C56.194 65.4218 56.2002 65.4218 56.2064 65.4218C56.2126 65.4218 56.2187 65.4218 56.2249 65.4218C56.2311 65.4218 56.2373 65.4218 56.2435 65.4218C56.2497 65.4218 56.2559 65.4218 56.2621 65.4218C56.2683 65.4218 56.2745 65.4218 56.2807 65.4218C56.2869 65.4218 56.2931 65.4218 56.2993 65.4218C56.3055 65.4218 56.3117 65.4218 56.3179 65.4218C56.3241 65.4218 56.3303 65.4218 56.3365 65.4218C56.3427 65.4218 56.3489 65.4218 56.3551 65.4218C56.3613 65.4218 56.3675 65.4218 56.3737 65.4218C56.3798 65.4218 56.386 65.4218 56.3922 65.4218C56.3984 65.4218 56.4046 65.4218 56.4108 65.4218C56.417 65.4218 56.4232 65.4218 56.4294 65.4218C56.4356 65.4218 56.4418 65.4218 56.448 65.4218C56.4542 65.4218 56.4604 65.4218 56.4666 65.4218C56.4728 65.4218 56.479 65.4218 56.4852 65.4218C56.4914 65.4218 56.4976 65.4218 56.5038 65.4218C56.51 65.4218 56.5162 65.4218 56.5224 65.4218C56.5285 65.4218 56.5347 65.4218 56.5409 65.4218C56.5471 65.4218 56.5533 65.4218 56.5595 65.4218C56.5657 65.4218 56.5719 65.4218 56.5781 65.4218C56.5843 65.4218 56.5905 65.4218 56.5967 65.4218C56.6029 65.4218 56.6091 65.4218 56.6153 65.4218C56.6215 65.4218 56.6277 65.4218 56.6339 65.4218C56.6401 65.4218 56.6463 65.4218 56.6525 65.4218C56.6587 65.4218 56.6649 65.4218 56.671 65.4218C56.6772 65.4218 56.6834 65.4218 56.6896 65.4218C56.6958 65.4218 56.702 65.4218 56.7082 65.4218C56.7144 65.4218 56.7206 65.4218 56.7268 65.4218C56.733 65.4218 56.7392 65.4218 56.7454 65.4218C56.7516 65.4218 56.7578 65.4218 56.764 65.4218C56.7702 65.4218 56.7764 65.4218 56.7826 65.4218C56.7888 65.4218 56.795 65.4218 56.8012 65.4218C56.8073 65.4218 56.8135 65.4218 56.8197 65.4218C56.8259 65.4218 56.8321 65.4218 56.8383 65.4218C56.8445 65.4218 56.8507 65.4218 56.8569 65.4218C56.8631 65.4218 56.8693 65.4218 56.8755 65.4218C56.8817 65.4218 56.8879 65.4218 56.8941 65.4218C56.9003 65.4218 56.9065 65.4218 56.9127 65.4218C56.9189 65.4218 56.9251 65.4218 56.9313 65.4218C56.9374 65.4218 56.9436 65.4218 56.9498 65.4218C56.956 65.4218 56.9622 65.4218 56.9684 65.4218C56.9746 65.4218 56.9808 65.4218 56.987 65.4218C56.9932 65.4218 56.9994 65.4218 57.0056 65.4218C57.0118 65.4218 57.018 65.4218 57.0242 65.4218C57.0304 65.4218 57.0366 65.4218 57.0428 65.4218C57.049 65.4218 57.0552 65.4218 57.0614 65.4218C57.0675 65.4218 57.0737 65.4218 57.0799 65.4218C57.0861 65.4218 57.0923 65.4218 57.0985 65.4218C57.1047 65.4218 57.1109 65.4218 57.1171 65.4218C57.1233 65.4218 57.1295 65.4218 57.1357 65.4218C57.1419 65.4218 57.1481 65.4218 57.1543 65.4218C57.1605 65.4218 57.1667 65.4218 57.1729 65.4218C57.1791 65.4218 57.1853 65.4218 57.1914 65.4218C57.1976 65.4218 57.2038 65.4218 57.21 65.4218C57.2162 65.4218 57.2224 65.4218 57.2286 65.4218C57.2348 65.4218 57.241 65.4218 57.2472 65.4218C57.2534 65.4218 57.2596 65.4218 57.2658 65.4218C57.272 65.4218 57.2782 65.4218 57.2844 65.4218C57.2906 65.4218 57.2968 65.4218 57.303 65.4218C57.3091 65.4218 57.3153 65.4218 57.3215 65.4218C57.3277 65.4218 57.3339 65.4218 57.3401 65.4218C57.3463 65.4218 57.3525 65.4218 57.3587 65.4218C57.3649 65.4218 57.3711 65.4218 57.3773 65.4218C57.3835 65.4218 57.3897 65.4218 57.3959 65.4218C57.4021 65.4218 57.4083 65.4218 57.4145 65.4218C57.4207 65.4218 57.4268 65.4218 57.433 65.4218C57.4392 65.4218 57.4454 65.4218 57.4516 65.4218V63.4218C57.4454 63.4218 57.4392 63.4218 57.433 63.4218C57.4268 63.4218 57.4207 63.4218 57.4145 63.4218C57.4083 63.4218 57.4021 63.4218 57.3959 63.4218C57.3897 63.4218 57.3835 63.4218 57.3773 63.4218C57.3711 63.4218 57.3649 63.4218 57.3587 63.4218C57.3525 63.4218 57.3463 63.4218 57.3401 63.4218C57.3339 63.4218 57.3277 63.4218 57.3215 63.4218C57.3153 63.4218 57.3091 63.4218 57.303 63.4218C57.2968 63.4218 57.2906 63.4218 57.2844 63.4218C57.2782 63.4218 57.272 63.4218 57.2658 63.4218C57.2596 63.4218 57.2534 63.4218 57.2472 63.4218C57.241 63.4218 57.2348 63.4218 57.2286 63.4218C57.2224 63.4218 57.2162 63.4218 57.21 63.4218C57.2038 63.4218 57.1976 63.4218 57.1914 63.4218C57.1853 63.4218 57.1791 63.4218 57.1729 63.4218C57.1667 63.4218 57.1605 63.4218 57.1543 63.4218C57.1481 63.4218 57.1419 63.4218 57.1357 63.4218C57.1295 63.4218 57.1233 63.4218 57.1171 63.4218C57.1109 63.4218 57.1047 63.4218 57.0985 63.4218C57.0923 63.4218 57.0861 63.4218 57.0799 63.4218C57.0737 63.4218 57.0675 63.4218 57.0614 63.4218C57.0552 63.4218 57.049 63.4218 57.0428 63.4218C57.0366 63.4218 57.0304 63.4218 57.0242 63.4218C57.018 63.4218 57.0118 63.4218 57.0056 63.4218C56.9994 63.4218 56.9932 63.4218 56.987 63.4218C56.9808 63.4218 56.9746 63.4218 56.9684 63.4218C56.9622 63.4218 56.956 63.4218 56.9498 63.4218C56.9436 63.4218 56.9374 63.4218 56.9313 63.4218C56.9251 63.4218 56.9189 63.4218 56.9127 63.4218C56.9065 63.4218 56.9003 63.4218 56.8941 63.4218C56.8879 63.4218 56.8817 63.4218 56.8755 63.4218C56.8693 63.4218 56.8631 63.4218 56.8569 63.4218C56.8507 63.4218 56.8445 63.4218 56.8383 63.4218C56.8321 63.4218 56.8259 63.4218 56.8197 63.4218C56.8135 63.4218 56.8073 63.4218 56.8012 63.4218C56.795 63.4218 56.7888 63.4218 56.7826 63.4218C56.7764 63.4218 56.7702 63.4218 56.764 63.4218C56.7578 63.4218 56.7516 63.4218 56.7454 63.4218C56.7392 63.4218 56.733 63.4218 56.7268 63.4218C56.7206 63.4218 56.7144 63.4218 56.7082 63.4218C56.702 63.4218 56.6958 63.4218 56.6896 63.4218C56.6834 63.4218 56.6772 63.4218 56.671 63.4218C56.6649 63.4218 56.6587 63.4218 56.6525 63.4218C56.6463 63.4218 56.6401 63.4218 56.6339 63.4218C56.6277 63.4218 56.6215 63.4218 56.6153 63.4218C56.6091 63.4218 56.6029 63.4218 56.5967 63.4218C56.5905 63.4218 56.5843 63.4218 56.5781 63.4218C56.5719 63.4218 56.5657 63.4218 56.5595 63.4218C56.5533 63.4218 56.5471 63.4218 56.5409 63.4218C56.5347 63.4218 56.5285 63.4218 56.5224 63.4218C56.5162 63.4218 56.51 63.4218 56.5038 63.4218C56.4976 63.4218 56.4914 63.4218 56.4852 63.4218C56.479 63.4218 56.4728 63.4218 56.4666 63.4218C56.4604 63.4218 56.4542 63.4218 56.448 63.4218C56.4418 63.4218 56.4356 63.4218 56.4294 63.4218C56.4232 63.4218 56.417 63.4218 56.4108 63.4218C56.4046 63.4218 56.3984 63.4218 56.3922 63.4218C56.386 63.4218 56.3798 63.4218 56.3737 63.4218C56.3675 63.4218 56.3613 63.4218 56.3551 63.4218C56.3489 63.4218 56.3427 63.4218 56.3365 63.4218C56.3303 63.4218 56.3241 63.4218 56.3179 63.4218C56.3117 63.4218 56.3055 63.4218 56.2993 63.4218C56.2931 63.4218 56.2869 63.4218 56.2807 63.4218C56.2745 63.4218 56.2683 63.4218 56.2621 63.4218C56.2559 63.4218 56.2497 63.4218 56.2435 63.4218C56.2373 63.4218 56.2311 63.4218 56.2249 63.4218C56.2187 63.4218 56.2126 63.4218 56.2064 63.4218C56.2002 63.4218 56.194 63.4218 56.1878 63.4218C56.1816 63.4218 56.1754 63.4218 56.1692 63.4218C56.163 63.4218 56.1568 63.4218 56.1506 63.4218C56.1444 63.4218 56.1382 63.4218 56.132 63.4218C56.1258 63.4218 56.1196 63.4218 56.1134 63.4218C56.1072 63.4218 56.101 63.4218 56.0948 63.4218C56.0886 63.4218 56.0824 63.4218 56.0762 63.4218C56.07 63.4218 56.0638 63.4218 56.0576 63.4218C56.0514 63.4218 56.0452 63.4218 56.039 63.4218C56.0329 63.4218 56.0267 63.4218 56.0205 63.4218C56.0143 63.4218 56.0081 63.4218 56.0019 63.4218C55.9957 63.4218 55.9895 63.4218 55.9833 63.4218C55.9771 63.4218 55.9709 63.4218 55.9647 63.4218C55.9585 63.4218 55.9523 63.4218 55.9461 63.4218C55.9399 63.4218 55.9337 63.4218 55.9275 63.4218C55.9213 63.4218 55.9151 63.4218 55.9089 63.4218C55.9027 63.4218 55.8965 63.4218 55.8903 63.4218C55.8841 63.4218 55.8779 63.4218 55.8717 63.4218C55.8655 63.4218 55.8593 63.4218 55.8531 63.4218C55.8469 63.4218 55.8408 63.4218 55.8346 63.4218C55.8284 63.4218 55.8222 63.4218 55.816 63.4218C55.8098 63.4218 55.8036 63.4218 55.7974 63.4218C55.7912 63.4218 55.785 63.4218 55.7788 63.4218C55.7726 63.4218 55.7664 63.4218 55.7602 63.4218C55.754 63.4218 55.7478 63.4218 55.7416 63.4218C55.7354 63.4218 55.7292 63.4218 55.723 63.4218C55.7168 63.4218 55.7106 63.4218 55.7044 63.4218C55.6982 63.4218 55.692 63.4218 55.6858 63.4218C55.6796 63.4218 55.6734 63.4218 55.6672 63.4218C55.661 63.4218 55.6548 63.4218 55.6486 63.4218C55.6424 63.4218 55.6362 63.4218 55.63 63.4218C55.6238 63.4218 55.6176 63.4218 55.6115 63.4218C55.6053 63.4218 55.5991 63.4218 55.5929 63.4218C55.5867 63.4218 55.5805 63.4218 55.5743 63.4218C55.5681 63.4218 55.5619 63.4218 55.5557 63.4218C55.5495 63.4218 55.5433 63.4218 55.5371 63.4218C55.5309 63.4218 55.5247 63.4218 55.5185 63.4218C55.5123 63.4218 55.5061 63.4218 55.4999 63.4218C55.4937 63.4218 55.4875 63.4218 55.4813 63.4218C55.4751 63.4218 55.4689 63.4218 55.4627 63.4218C55.4565 63.4218 55.4503 63.4218 55.4441 63.4218C55.4379 63.4218 55.4317 63.4218 55.4255 63.4218C55.4193 63.4218 55.4131 63.4218 55.4069 63.4218C55.4007 63.4218 55.3945 63.4218 55.3883 63.4218C55.3821 63.4218 55.3759 63.4218 55.3697 63.4218C55.3635 63.4218 55.3573 63.4218 55.3511 63.4218C55.3449 63.4218 55.3387 63.4218 55.3325 63.4218C55.3264 63.4218 55.3202 63.4218 55.314 63.4218C55.3078 63.4218 55.3016 63.4218 55.2954 63.4218C55.2892 63.4218 55.283 63.4218 55.2768 63.4218C55.2706 63.4218 55.2644 63.4218 55.2582 63.4218C55.252 63.4218 55.2458 63.4218 55.2396 63.4218C55.2334 63.4218 55.2272 63.4218 55.221 63.4218C55.2148 63.4218 55.2086 63.4218 55.2024 63.4218C55.1962 63.4218 55.19 63.4218 55.1838 63.4218C55.1776 63.4218 55.1714 63.4218 55.1652 63.4218C55.159 63.4218 55.1528 63.4218 55.1466 63.4218C55.1404 63.4218 55.1342 63.4218 55.128 63.4218C55.1218 63.4218 55.1156 63.4218 55.1094 63.4218C55.1032 63.4218 55.097 63.4218 55.0908 63.4218C55.0846 63.4218 55.0784 63.4218 55.0722 63.4218C55.066 63.4218 55.0598 63.4218 55.0536 63.4218C55.0474 63.4218 55.0412 63.4218 55.035 63.4218C55.0288 63.4218 55.0226 63.4218 55.0164 63.4218C55.0102 63.4218 55.004 63.4218 54.9978 63.4218C54.9916 63.4218 54.9854 63.4218 54.9792 63.4218C54.973 63.4218 54.9668 63.4218 54.9606 63.4218C54.9544 63.4218 54.9482 63.4218 54.942 63.4218C54.9358 63.4218 54.9296 63.4218 54.9234 63.4218C54.9172 63.4218 54.911 63.4218 54.9048 63.4218C54.8986 63.4218 54.8924 63.4218 54.8862 63.4218C54.88 63.4218 54.8738 63.4218 54.8676 63.4218C54.8614 63.4218 54.8552 63.4218 54.849 63.4218C54.8428 63.4218 54.8366 63.4218 54.8304 63.4218C54.8242 63.4218 54.818 63.4218 54.8118 63.4218C54.8056 63.4218 54.7994 63.4218 54.7932 63.4218C54.787 63.4218 54.7808 63.4218 54.7746 63.4218C54.7684 63.4218 54.7622 63.4218 54.756 63.4218C54.7498 63.4218 54.7436 63.4218 54.7374 63.4218C54.7312 63.4218 54.725 63.4218 54.7188 63.4218C54.7126 63.4218 54.7064 63.4218 54.7002 63.4218C54.694 63.4218 54.6878 63.4218 54.6816 63.4218C54.6754 63.4218 54.6692 63.4218 54.663 63.4218C54.6568 63.4218 54.6506 63.4218 54.6444 63.4218C54.6382 63.4218 54.632 63.4218 54.6258 63.4218C54.6196 63.4218 54.6134 63.4218 54.6072 63.4218C54.601 63.4218 54.5948 63.4218 54.5886 63.4218C54.5824 63.4218 54.5762 63.4218 54.57 63.4218C54.5638 63.4218 54.5576 63.4218 54.5514 63.4218C54.5452 63.4218 54.539 63.4218 54.5328 63.4218C54.5266 63.4218 54.5204 63.4218 54.5142 63.4218C54.508 63.4218 54.5018 63.4218 54.4956 63.4218C54.4894 63.4218 54.4832 63.4218 54.477 63.4218C54.4708 63.4218 54.4646 63.4218 54.4584 63.4218C54.4522 63.4218 54.446 63.4218 54.4398 63.4218C54.4336 63.4218 54.4274 63.4218 54.4212 63.4218C54.415 63.4218 54.4088 63.4218 54.4026 63.4218C54.3964 63.4218 54.3902 63.4218 54.384 63.4218C54.3778 63.4218 54.3716 63.4218 54.3654 63.4218C54.3592 63.4218 54.353 63.4218 54.3468 63.4218C54.3406 63.4218 54.3344 63.4218 54.3282 63.4218C54.322 63.4218 54.3158 63.4218 54.3096 63.4218C54.3034 63.4218 54.2972 63.4218 54.291 63.4218C54.2848 63.4218 54.2786 63.4218 54.2724 63.4218C54.2662 63.4218 54.26 63.4218 54.2538 63.4218C54.2476 63.4218 54.2414 63.4218 54.2352 63.4218C54.229 63.4218 54.2228 63.4218 54.2166 63.4218C54.2104 63.4218 54.2042 63.4218 54.198 63.4218C54.1918 63.4218 54.1856 63.4218 54.1794 63.4218C54.1732 63.4218 54.167 63.4218 54.1608 63.4218C54.1546 63.4218 54.1484 63.4218 54.1422 63.4218C54.136 63.4218 54.1298 63.4218 54.1236 63.4218C54.1174 63.4218 54.1112 63.4218 54.105 63.4218C54.0988 63.4218 54.0926 63.4218 54.0864 63.4218C54.0802 63.4218 54.074 63.4218 54.0678 63.4218C54.0616 63.4218 54.0554 63.4218 54.0492 63.4218C54.0429 63.4218 54.0367 63.4218 54.0305 63.4218C54.0243 63.4218 54.0181 63.4218 54.0119 63.4218C54.0057 63.4218 53.9995 63.4218 53.9933 63.4218C53.9871 63.4218 53.9809 63.4218 53.9747 63.4218C53.9685 63.4218 53.9623 63.4218 53.9561 63.4218C53.9499 63.4218 53.9437 63.4218 53.9375 63.4218C53.9313 63.4218 53.9251 63.4218 53.9189 63.4218C53.9127 63.4218 53.9065 63.4218 53.9003 63.4218C53.8941 63.4218 53.8879 63.4218 53.8817 63.4218C53.8755 63.4218 53.8693 63.4218 53.8631 63.4218C53.8569 63.4218 53.8507 63.4218 53.8445 63.4218C53.8383 63.4218 53.8321 63.4218 53.8259 63.4218C53.8197 63.4218 53.8135 63.4218 53.8073 63.4218C53.8011 63.4218 53.7949 63.4218 53.7886 63.4218C53.7824 63.4218 53.7762 63.4218 53.77 63.4218C53.7638 63.4218 53.7576 63.4218 53.7514 63.4218C53.7452 63.4218 53.739 63.4218 53.7328 63.4218C53.7266 63.4218 53.7204 63.4218 53.7142 63.4218C53.708 63.4218 53.7018 63.4218 53.6956 63.4218C53.6894 63.4218 53.6832 63.4218 53.677 63.4218C53.6708 63.4218 53.6646 63.4218 53.6584 63.4218C53.6522 63.4218 53.646 63.4218 53.6398 63.4218C53.6336 63.4218 53.6274 63.4218 53.6212 63.4218C53.615 63.4218 53.6088 63.4218 53.6026 63.4218C53.5963 63.4218 53.5901 63.4218 53.5839 63.4218C53.5777 63.4218 53.5715 63.4218 53.5653 63.4218C53.5591 63.4218 53.5529 63.4218 53.5467 63.4218C53.5405 63.4218 53.5343 63.4218 53.5281 63.4218C53.5219 63.4218 53.5157 63.4218 53.5095 63.4218C53.5033 63.4218 53.4971 63.4218 53.4909 63.4218C53.4847 63.4218 53.4785 63.4218 53.4723 63.4218C53.4661 63.4218 53.4599 63.4218 53.4537 63.4218C53.4475 63.4218 53.4412 63.4218 53.435 63.4218C53.4288 63.4218 53.4226 63.4218 53.4164 63.4218C53.4102 63.4218 53.404 63.4218 53.3978 63.4218C53.3916 63.4218 53.3854 63.4218 53.3792 63.4218C53.373 63.4218 53.3668 63.4218 53.3606 63.4218C53.3544 63.4218 53.3482 63.4218 53.342 63.4218C53.3358 63.4218 53.3296 63.4218 53.3234 63.4218C53.3172 63.4218 53.311 63.4218 53.3048 63.4218C53.2985 63.4218 53.2923 63.4218 53.2861 63.4218C53.2799 63.4218 53.2737 63.4218 53.2675 63.4218C53.2613 63.4218 53.2551 63.4218 53.2489 63.4218C53.2427 63.4218 53.2365 63.4218 53.2303 63.4218C53.2241 63.4218 53.2179 63.4218 53.2117 63.4218C53.2055 63.4218 53.1993 63.4218 53.1931 63.4218C53.1869 63.4218 53.1807 63.4218 53.1744 63.4218C53.1682 63.4218 53.162 63.4218 53.1558 63.4218C53.1496 63.4218 53.1434 63.4218 53.1372 63.4218C53.131 63.4218 53.1248 63.4218 53.1186 63.4218C53.1124 63.4218 53.1062 63.4218 53.1 63.4218C53.0938 63.4218 53.0876 63.4218 53.0814 63.4218C53.0752 63.4218 53.069 63.4218 53.0627 63.4218C53.0565 63.4218 53.0503 63.4218 53.0441 63.4218C53.0379 63.4218 53.0317 63.4218 53.0255 63.4218C53.0193 63.4218 53.0131 63.4218 53.0069 63.4218C53.0007 63.4218 52.9945 63.4218 52.9883 63.4218C52.9821 63.4218 52.9759 63.4218 52.9697 63.4218C52.9635 63.4218 52.9572 63.4218 52.951 63.4218C52.9448 63.4218 52.9386 63.4218 52.9324 63.4218C52.9262 63.4218 52.92 63.4218 52.9138 63.4218C52.9076 63.4218 52.9014 63.4218 52.8952 63.4218C52.889 63.4218 52.8828 63.4218 52.8766 63.4218C52.8704 63.4218 52.8641 63.4218 52.8579 63.4218C52.8517 63.4218 52.8455 63.4218 52.8393 63.4218C52.8331 63.4218 52.8269 63.4218 52.8207 63.4218C52.8145 63.4218 52.8083 63.4218 52.8021 63.4218C52.7959 63.4218 52.7897 63.4218 52.7835 63.4218C52.7773 63.4218 52.771 63.4218 52.7648 63.4218C52.7586 63.4218 52.7524 63.4218 52.7462 63.4218C52.74 63.4218 52.7338 63.4218 52.7276 63.4218C52.7214 63.4218 52.7152 63.4218 52.709 63.4218C52.7028 63.4218 52.6966 63.4218 52.6904 63.4218C52.6841 63.4218 52.6779 63.4218 52.6717 63.4218C52.6655 63.4218 52.6593 63.4218 52.6531 63.4218C52.6469 63.4218 52.6407 63.4218 52.6345 63.4218C52.6283 63.4218 52.6221 63.4218 52.6159 63.4218C52.6097 63.4218 52.6034 63.4218 52.5972 63.4218C52.591 63.4218 52.5848 63.4218 52.5786 63.4218C52.5724 63.4218 52.5662 63.4218 52.56 63.4218C52.5538 63.4218 52.5476 63.4218 52.5414 63.4218C52.5352 63.4218 52.529 63.4218 52.5227 63.4218C52.5165 63.4218 52.5103 63.4218 52.5041 63.4218C52.4979 63.4218 52.4917 63.4218 52.4855 63.4218C52.4793 63.4218 52.4731 63.4218 52.4669 63.4218C52.4607 63.4218 52.4545 63.4218 52.4482 63.4218C52.442 63.4218 52.4358 63.4218 52.4296 63.4218C52.4234 63.4218 52.4172 63.4218 52.411 63.4218C52.4048 63.4218 52.3986 63.4218 52.3924 63.4218C52.3862 63.4218 52.38 63.4218 52.3737 63.4218C52.3675 63.4218 52.3613 63.4218 52.3551 63.4218C52.3489 63.4218 52.3427 63.4218 52.3365 63.4218C52.3303 63.4218 52.3241 63.4218 52.3179 63.4218C52.3117 63.4218 52.3054 63.4218 52.2992 63.4218C52.293 63.4218 52.2868 63.4218 52.2806 63.4218C52.2744 63.4218 52.2682 63.4218 52.262 63.4218C52.2558 63.4218 52.2496 63.4218 52.2434 63.4218C52.2371 63.4218 52.2309 63.4218 52.2247 63.4218C52.2185 63.4218 52.2123 63.4218 52.2061 63.4218C52.1999 63.4218 52.1937 63.4218 52.1875 63.4218C52.1813 63.4218 52.175 63.4218 52.1688 63.4218C52.1626 63.4218 52.1564 63.4218 52.1502 63.4218C52.144 63.4218 52.1378 63.4218 52.1316 63.4218C52.1254 63.4218 52.1192 63.4218 52.1129 63.4218C52.1067 63.4218 52.1005 63.4218 52.0943 63.4218C52.0881 63.4218 52.0819 63.4218 52.0757 63.4218C52.0695 63.4218 52.0633 63.4218 52.0571 63.4218C52.0508 63.4218 52.0446 63.4218 52.0384 63.4218C52.0322 63.4218 52.026 63.4218 52.0198 63.4218C52.0136 63.4218 52.0074 63.4218 52.0012 63.4218C51.995 63.4218 51.9887 63.4218 51.9825 63.4218C51.9763 63.4218 51.9701 63.4218 51.9639 63.4218C51.9577 63.4218 51.9515 63.4218 51.9453 63.4218C51.9391 63.4218 51.9328 63.4218 51.9266 63.4218C51.9204 63.4218 51.9142 63.4218 51.908 63.4218C51.9018 63.4218 51.8956 63.4218 51.8894 63.4218C51.8832 63.4218 51.8769 63.4218 51.8707 63.4218C51.8645 63.4218 51.8583 63.4218 51.8521 63.4218C51.8459 63.4218 51.8397 63.4218 51.8335 63.4218C51.8273 63.4218 51.821 63.4218 51.8148 63.4218C51.8086 63.4218 51.8024 63.4218 51.7962 63.4218C51.79 63.4218 51.7838 63.4218 51.7776 63.4218C51.7714 63.4218 51.7651 63.4218 51.7589 63.4218C51.7527 63.4218 51.7465 63.4218 51.7403 63.4218C51.7341 63.4218 51.7279 63.4218 51.7217 63.4218C51.7154 63.4218 51.7092 63.4218 51.703 63.4218C51.6968 63.4218 51.6906 63.4218 51.6844 63.4218C51.6782 63.4218 51.672 63.4218 51.6657 63.4218C51.6595 63.4218 51.6533 63.4218 51.6471 63.4218C51.6409 63.4218 51.6347 63.4218 51.6285 63.4218C51.6223 63.4218 51.616 63.4218 51.6098 63.4218C51.6036 63.4218 51.5974 63.4218 51.5912 63.4218C51.585 63.4218 51.5788 63.4218 51.5726 63.4218C51.5663 63.4218 51.5601 63.4218 51.5539 63.4218C51.5477 63.4218 51.5415 63.4218 51.5353 63.4218C51.5291 63.4218 51.5229 63.4218 51.5166 63.4218C51.5104 63.4218 51.5042 63.4218 51.498 63.4218C51.4918 63.4218 51.4856 63.4218 51.4794 63.4218C51.4732 63.4218 51.4669 63.4218 51.4607 63.4218C51.4545 63.4218 51.4483 63.4218 51.4421 63.4218C51.4359 63.4218 51.4297 63.4218 51.4234 63.4218C51.4172 63.4218 51.411 63.4218 51.4048 63.4218C51.3986 63.4218 51.3924 63.4218 51.3862 63.4218C51.3799 63.4218 51.3737 63.4218 51.3675 63.4218C51.3613 63.4218 51.3551 63.4218 51.3489 63.4218C51.3427 63.4218 51.3364 63.4218 51.3302 63.4218C51.324 63.4218 51.3178 63.4218 51.3116 63.4218C51.3054 63.4218 51.2992 63.4218 51.293 63.4218C51.2867 63.4218 51.2805 63.4218 51.2743 63.4218C51.2681 63.4218 51.2619 63.4218 51.2557 63.4218C51.2494 63.4218 51.2432 63.4218 51.237 63.4218C51.2308 63.4218 51.2246 63.4218 51.2184 63.4218C51.2122 63.4218 51.2059 63.4218 51.1997 63.4218C51.1935 63.4218 51.1873 63.4218 51.1811 63.4218C51.1749 63.4218 51.1687 63.4218 51.1624 63.4218C51.1562 63.4218 51.15 63.4218 51.1438 63.4218C51.1376 63.4218 51.1314 63.4218 51.1252 63.4218C51.1189 63.4218 51.1127 63.4218 51.1065 63.4218C51.1003 63.4218 51.0941 63.4218 51.0879 63.4218C51.0816 63.4218 51.0754 63.4218 51.0692 63.4218C51.063 63.4218 51.0568 63.4218 51.0506 63.4218C51.0444 63.4218 51.0381 63.4218 51.0319 63.4218C51.0257 63.4218 51.0195 63.4218 51.0133 63.4218C51.0071 63.4218 51.0008 63.4218 50.9946 63.4218C50.9884 63.4218 50.9822 63.4218 50.976 63.4218C50.9698 63.4218 50.9635 63.4218 50.9573 63.4218C50.9511 63.4218 50.9449 63.4218 50.9387 63.4218C50.9325 63.4218 50.9262 63.4218 50.92 63.4218C50.9138 63.4218 50.9076 63.4218 50.9014 63.4218C50.8952 63.4218 50.8889 63.4218 50.8827 63.4218C50.8765 63.4218 50.8703 63.4218 50.8641 63.4218C50.8579 63.4218 50.8516 63.4218 50.8454 63.4218C50.8392 63.4218 50.833 63.4218 50.8268 63.4218C50.8206 63.4218 50.8143 63.4218 50.8081 63.4218C50.8019 63.4218 50.7957 63.4218 50.7895 63.4218C50.7833 63.4218 50.777 63.4218 50.7708 63.4218C50.7646 63.4218 50.7584 63.4218 50.7522 63.4218C50.746 63.4218 50.7397 63.4218 50.7335 63.4218C50.7273 63.4218 50.7211 63.4218 50.7149 63.4218C50.7087 63.4218 50.7024 63.4218 50.6962 63.4218C50.69 63.4218 50.6838 63.4218 50.6776 63.4218C50.6713 63.4218 50.6651 63.4218 50.6589 63.4218C50.6527 63.4218 50.6465 63.4218 50.6403 63.4218C50.634 63.4218 50.6278 63.4218 50.6216 63.4218C50.6154 63.4218 50.6092 63.4218 50.6029 63.4218C50.5967 63.4218 50.5905 63.4218 50.5843 63.4218C50.5781 63.4218 50.5719 63.4218 50.5656 63.4218C50.5594 63.4218 50.5532 63.4218 50.547 63.4218C50.5408 63.4218 50.5345 63.4218 50.5283 63.4218C50.5221 63.4218 50.5159 63.4218 50.5097 63.4218C50.5035 63.4218 50.4972 63.4218 50.491 63.4218C50.4848 63.4218 50.4786 63.4218 50.4724 63.4218C50.4661 63.4218 50.4599 63.4218 50.4537 63.4218C50.4475 63.4218 50.4413 63.4218 50.435 63.4218C50.4288 63.4218 50.4226 63.4218 50.4164 63.4218C50.4102 63.4218 50.4039 63.4218 50.3977 63.4218C50.3915 63.4218 50.3853 63.4218 50.3791 63.4218C50.3728 63.4218 50.3666 63.4218 50.3604 63.4218C50.3542 63.4218 50.348 63.4218 50.3418 63.4218C50.3355 63.4218 50.3293 63.4218 50.3231 63.4218C50.3169 63.4218 50.3107 63.4218 50.3044 63.4218C50.2982 63.4218 50.292 63.4218 50.2858 63.4218C50.2796 63.4218 50.2733 63.4218 50.2671 63.4218C50.2609 63.4218 50.2547 63.4218 50.2484 63.4218C50.2422 63.4218 50.236 63.4218 50.2298 63.4218C50.2236 63.4218 50.2173 63.4218 50.2111 63.4218C50.2049 63.4218 50.1987 63.4218 50.1925 63.4218C50.1862 63.4218 50.18 63.4218 50.1738 63.4218C50.1676 63.4218 50.1614 63.4218 50.1551 63.4218C50.1489 63.4218 50.1427 63.4218 50.1365 63.4218C50.1303 63.4218 50.124 63.4218 50.1178 63.4218C50.1116 63.4218 50.1054 63.4218 50.0991 63.4218C50.0929 63.4218 50.0867 63.4218 50.0805 63.4218C50.0743 63.4218 50.068 63.4218 50.0618 63.4218C50.0556 63.4218 50.0494 63.4218 50.0432 63.4218C50.0369 63.4218 50.0307 63.4218 50.0245 63.4218C50.0183 63.4218 50.012 63.4218 50.0058 63.4218C49.9996 63.4218 49.9934 63.4218 49.9872 63.4218C49.9809 63.4218 49.9747 63.4218 49.9685 63.4218C49.9623 63.4218 49.956 63.4218 49.9498 63.4218C49.9436 63.4218 49.9374 63.4218 49.9312 63.4218C49.9249 63.4218 49.9187 63.4218 49.9125 63.4218C49.9063 63.4218 49.9 63.4218 49.8938 63.4218C49.8876 63.4218 49.8814 63.4218 49.8752 63.4218C49.8689 63.4218 49.8627 63.4218 49.8565 63.4218C49.8503 63.4218 49.844 63.4218 49.8378 63.4218C49.8316 63.4218 49.8254 63.4218 49.8191 63.4218C49.8129 63.4218 49.8067 63.4218 49.8005 63.4218C49.7943 63.4218 49.788 63.4218 49.7818 63.4218C49.7756 63.4218 49.7694 63.4218 49.7631 63.4218C49.7569 63.4218 49.7507 63.4218 49.7445 63.4218C49.7382 63.4218 49.732 63.4218 49.7258 63.4218C49.7196 63.4218 49.7133 63.4218 49.7071 63.4218C49.7009 63.4218 49.6947 63.4218 49.6885 63.4218C49.6822 63.4218 49.676 63.4218 49.6698 63.4218C49.6636 63.4218 49.6573 63.4218 49.6511 63.4218C49.6449 63.4218 49.6387 63.4218 49.6324 63.4218C49.6262 63.4218 49.62 63.4218 49.6138 63.4218C49.6075 63.4218 49.6013 63.4218 49.5951 63.4218C49.5889 63.4218 49.5826 63.4218 49.5764 63.4218C49.5702 63.4218 49.564 63.4218 49.5577 63.4218C49.5515 63.4218 49.5453 63.4218 49.5391 63.4218C49.5328 63.4218 49.5266 63.4218 49.5204 63.4218C49.5142 63.4218 49.5079 63.4218 49.5017 63.4218C49.4955 63.4218 49.4893 63.4218 49.483 63.4218C49.4768 63.4218 49.4706 63.4218 49.4644 63.4218C49.4581 63.4218 49.4519 63.4218 49.4457 63.4218C49.4395 63.4218 49.4332 63.4218 49.427 63.4218C49.4208 63.4218 49.4146 63.4218 49.4083 63.4218C49.4021 63.4218 49.3959 63.4218 49.3897 63.4218C49.3834 63.4218 49.3772 63.4218 49.371 63.4218C49.3647 63.4218 49.3585 63.4218 49.3523 63.4218C49.3461 63.4218 49.3398 63.4218 49.3336 63.4218C49.3274 63.4218 49.3212 63.4218 49.3149 63.4218C49.3087 63.4218 49.3025 63.4218 49.2963 63.4218C49.29 63.4218 49.2838 63.4218 49.2776 63.4218C49.2713 63.4218 49.2651 63.4218 49.2589 63.4218C49.2527 63.4218 49.2464 63.4218 49.2402 63.4218C49.234 63.4218 49.2278 63.4218 49.2215 63.4218C49.2153 63.4218 49.2091 63.4218 49.2029 63.4218C49.1966 63.4218 49.1904 63.4218 49.1842 63.4218C49.1779 63.4218 49.1717 63.4218 49.1655 63.4218C49.1593 63.4218 49.153 63.4218 49.1468 63.4218C49.1406 63.4218 49.1343 63.4218 49.1281 63.4218C49.1219 63.4218 49.1157 63.4218 49.1094 63.4218C49.1032 63.4218 49.097 63.4218 49.0908 63.4218C49.0845 63.4218 49.0783 63.4218 49.0721 63.4218C49.0658 63.4218 49.0596 63.4218 49.0534 63.4218C49.0472 63.4218 49.0409 63.4218 49.0347 63.4218C49.0285 63.4218 49.0222 63.4218 49.016 63.4218C49.0098 63.4218 49.0036 63.4218 48.9973 63.4218C48.9911 63.4218 48.9849 63.4218 48.9786 63.4218C48.9724 63.4218 48.9662 63.4218 48.96 63.4218C48.9537 63.4218 48.9475 63.4218 48.9413 63.4218C48.935 63.4218 48.9288 63.4218 48.9226 63.4218C48.9163 63.4218 48.9101 63.4218 48.9039 63.4218C48.8977 63.4218 48.8914 63.4218 48.8852 63.4218C48.879 63.4218 48.8727 63.4218 48.8665 63.4218C48.8603 63.4218 48.8541 63.4218 48.8478 63.4218C48.8416 63.4218 48.8354 63.4218 48.8291 63.4218C48.8229 63.4218 48.8167 63.4218 48.8104 63.4218C48.8042 63.4218 48.798 63.4218 48.7918 63.4218C48.7855 63.4218 48.7793 63.4218 48.7731 63.4218C48.7668 63.4218 48.7606 63.4218 48.7544 63.4218C48.7481 63.4218 48.7419 63.4218 48.7357 63.4218C48.7294 63.4218 48.7232 63.4218 48.717 63.4218C48.7108 63.4218 48.7045 63.4218 48.6983 63.4218C48.6921 63.4218 48.6858 63.4218 48.6796 63.4218C48.6734 63.4218 48.6671 63.4218 48.6609 63.4218C48.6547 63.4218 48.6484 63.4218 48.6422 63.4218C48.636 63.4218 48.6297 63.4218 48.6235 63.4218C48.6173 63.4218 48.6111 63.4218 48.6048 63.4218C48.5986 63.4218 48.5924 63.4218 48.5861 63.4218C48.5799 63.4218 48.5737 63.4218 48.5674 63.4218C48.5612 63.4218 48.555 63.4218 48.5487 63.4218C48.5425 63.4218 48.5363 63.4218 48.53 63.4218C48.5238 63.4218 48.5176 63.4218 48.5113 63.4218C48.5051 63.4218 48.4989 63.4218 48.4926 63.4218C48.4864 63.4218 48.4802 63.4218 48.4739 63.4218C48.4677 63.4218 48.4615 63.4218 48.4552 63.4218C48.449 63.4218 48.4428 63.4218 48.4365 63.4218C48.4303 63.4218 48.4241 63.4218 48.4179 63.4218C48.4116 63.4218 48.4054 63.4218 48.3992 63.4218C48.3929 63.4218 48.3867 63.4218 48.3805 63.4218C48.3742 63.4218 48.368 63.4218 48.3618 63.4218C48.3555 63.4218 48.3493 63.4218 48.343 63.4218C48.3368 63.4218 48.3306 63.4218 48.3243 63.4218C48.3181 63.4218 48.3119 63.4218 48.3056 63.4218C48.2994 63.4218 48.2932 63.4218 48.2869 63.4218C48.2807 63.4218 48.2745 63.4218 48.2682 63.4218C48.262 63.4218 48.2558 63.4218 48.2495 63.4218C48.2433 63.4218 48.2371 63.4218 48.2308 63.4218C48.2246 63.4218 48.2184 63.4218 48.2121 63.4218C48.2059 63.4218 48.1997 63.4218 48.1934 63.4218C48.1872 63.4218 48.181 63.4218 48.1747 63.4218C48.1685 63.4218 48.1623 63.4218 48.156 63.4218C48.1498 63.4218 48.1435 63.4218 48.1373 63.4218C48.1311 63.4218 48.1248 63.4218 48.1186 63.4218C48.1124 63.4218 48.1061 63.4218 48.0999 63.4218C48.0937 63.4218 48.0874 63.4218 48.0812 63.4218C48.075 63.4218 48.0687 63.4218 48.0625 63.4218C48.0563 63.4218 48.05 63.4218 48.0438 63.4218C48.0375 63.4218 48.0313 63.4218 48.0251 63.4218C48.0188 63.4218 48.0126 63.4218 48.0064 63.4218C48.0001 63.4218 47.9939 63.4218 47.9877 63.4218C47.9814 63.4218 47.9752 63.4218 47.9689 63.4218C47.9627 63.4218 47.9565 63.4218 47.9502 63.4218C47.944 63.4218 47.9378 63.4218 47.9315 63.4218C47.9253 63.4218 47.9191 63.4218 47.9128 63.4218V65.4218ZM44.7288 67.8241C46.3978 67.8134 47.7903 66.4395 47.7673 64.7582L45.7675 64.7855C45.7749 65.3257 45.306 65.8203 44.716 65.8241L44.7288 67.8241ZM47.7673 64.7578C47.7438 63.0872 46.3793 61.7218 44.7013 61.7305L44.7116 63.7304C45.2738 63.7275 45.7592 64.1945 45.7675 64.7859L47.7673 64.7578ZM44.7013 61.7305C43.0332 61.7391 41.6455 63.1222 41.6608 64.7976L43.6607 64.7794C43.6557 64.2275 44.1351 63.7334 44.7116 63.7304L44.7013 61.7305ZM41.6608 64.7975C41.6758 66.473 43.0521 67.8349 44.7288 67.8241L44.7159 65.8241C44.1466 65.8278 43.6659 65.3572 43.6607 64.7795L41.6608 64.7975ZM60.6692 67.8241C62.3371 67.8102 63.7306 66.435 63.7043 64.754L61.7046 64.7853C61.713 65.3215 61.2452 65.8192 60.6526 65.8241L60.6692 67.8241ZM63.7043 64.7537C63.6776 63.0844 62.3101 61.7196 60.6334 61.7305L60.6464 63.7304C61.2071 63.7268 61.6951 64.1945 61.7046 64.7857L63.7043 64.7537ZM60.6335 61.7305C58.9666 61.7412 57.5757 63.1285 57.5964 64.803L59.5963 64.7783C59.5895 64.2328 60.0686 63.7341 60.6463 63.7304L60.6335 61.7305ZM57.5964 64.8028C57.6168 66.4765 58.991 67.8381 60.6693 67.8241L60.6525 65.8241C60.0861 65.8289 59.6034 65.3609 59.5963 64.7785L57.5964 64.8028ZM47.9128 65.4218H57.4516V63.4218H47.9128V65.4218Z" fill="#0B2D1F" mask="url(#path-1-outside-1_5952_45241)"/>
<path d="M32.9643 28.6805C32.9643 25.8354 32.9432 22.9903 32.973 20.1452C32.987 18.7839 34.0557 17.6609 35.3591 17.5138C36.7992 17.3526 38.0606 18.1532 38.4267 19.511C38.5336 19.9034 38.5353 20.3326 38.5371 20.7461C38.5441 25.5831 38.5476 30.4201 38.5318 35.2554C38.5301 35.7337 38.6685 36.0665 39.0066 36.4012C41.3577 38.7242 43.6895 41.0665 46.0213 43.407C46.8061 44.1954 47.118 45.1327 46.8096 46.2259C46.51 47.2875 45.797 47.948 44.7318 48.2003C43.7665 48.428 42.8888 48.1845 42.1898 47.4925C39.3622 44.6877 36.5504 41.8654 33.7386 39.0448C33.15 38.4526 32.9467 37.7168 32.9502 36.8899C32.9643 34.1552 32.9555 31.4187 32.9555 28.6822C32.959 28.6805 32.9607 28.6805 32.9643 28.6805Z" fill="#0B2D1F"/>
<path fill-rule="evenodd" clip-rule="evenodd" d="M35.9338 4.00014C18.9122 3.94583 5.05109 17.7527 5.00029 34.8128C4.94948 51.6381 18.7195 65.5851 35.4818 65.6832C35.9568 65.686 36.4293 65.6783 36.899 65.6604C36.3492 65.1773 35.9815 64.5001 35.8746 63.7272C35.8728 63.7131 35.8634 63.6999 35.8539 63.6867L35.8539 63.6866C35.8497 63.6807 35.8454 63.6748 35.8419 63.6688V60.9095C35.9188 60.6225 36.0022 60.3392 36.1168 60.0696C36.0064 60.0711 35.8957 60.0718 35.7849 60.0718C21.8887 60.0753 10.6082 48.7387 10.6134 34.7742C10.6204 20.9043 21.9448 9.61852 35.8585 9.61677C49.7441 9.61502 61.0755 20.9376 61.0685 34.8093C61.0653 41.0791 58.7819 46.8124 55.0016 51.2267C56.6414 51.2266 58.2811 51.2278 59.9208 51.2307C60.5899 51.2319 61.1902 51.3585 61.7214 51.6102C64.8391 46.806 66.6561 41.0688 66.6851 34.8793C66.7639 17.9962 52.88 4.05445 35.9338 4.00014Z" fill="#0B2D1F"/>
</svg>
