<svg width="72" height="72" viewBox="0 0 72 72" fill="none" xmlns="http://www.w3.org/2000/svg">
<path d="M50 18.5L37 6.5V18L50 18.5Z" fill="#62C89E"/>
<path d="M34.4248 65.6991C34.5136 65.087 34.6088 64.4764 34.6897 63.8635C34.8427 62.7065 34.9827 61.5481 35.1372 60.3911C35.2072 59.8673 35.4482 59.4283 35.8192 59.0544C37.0974 57.7666 38.372 56.4745 39.6465 55.1831C43.0827 51.7025 46.5174 48.2213 49.9543 44.7415C51.2931 43.3858 52.6355 42.033 53.9772 40.6803C54.9494 39.7 56.2132 39.6993 57.1882 40.6832C58.5999 42.1075 60.0095 43.5334 61.4168 44.9628C62.3876 45.9489 62.3883 47.2323 61.419 48.2133C55.3868 54.3197 49.3509 60.4232 43.3238 66.5355C42.8286 67.0373 42.2426 67.2542 41.5678 67.3368C39.9937 67.5296 38.4218 67.7443 36.8491 67.9518C36.7979 67.9583 36.7488 67.9839 36.699 68C36.4825 68 36.2659 68 36.0494 68C35.6272 67.8627 35.1956 67.7151 34.9322 67.3353C34.725 67.0365 34.5915 66.6845 34.4255 66.3565C34.4248 66.1374 34.4248 65.9182 34.4248 65.6991ZM54.4911 51.3402C53.2858 50.1211 52.0892 48.9101 50.8875 47.6946C50.8882 47.6939 50.8644 47.7071 50.8456 47.7261C46.5326 52.0897 42.2202 56.454 37.9108 60.8213C37.8422 60.8907 37.7946 61.0046 37.7809 61.104C37.6531 62.025 37.5333 62.9476 37.4135 63.8708C37.3601 64.2821 37.3139 64.694 37.2605 65.1367C38.5805 64.9614 39.858 64.7985 41.1326 64.6144C41.3022 64.5896 41.4913 64.4932 41.6133 64.3705C45.8549 60.0894 50.09 55.8017 54.3258 51.5148C54.3893 51.452 54.4492 51.3848 54.4911 51.3402ZM59.0986 46.6048C57.9208 45.4128 56.7263 44.2046 55.5687 43.033C54.6939 43.9183 53.791 44.8321 52.9047 45.729C54.0732 46.9131 55.2626 48.1183 56.4333 49.3038C57.3246 48.401 58.2275 47.4872 59.0986 46.6048Z" fill="#0B2D1F"/>
<path d="M59.0986 46.6048C57.9208 45.4128 56.7263 44.2046 55.5687 43.033L52.9047 45.729C54.0732 46.9131 55.2626 48.1183 56.4333 49.3038C57.3246 48.401 58.2275 47.4872 59.0986 46.6048Z" fill="#22885E"/>
<path d="M54.4911 51.3402C53.2858 50.1211 52.0892 48.9101 50.8875 47.6946C50.8882 47.6939 50.8644 47.7071 50.8456 47.7261C46.5326 52.0897 42.2202 56.454 37.9108 60.8213C37.8422 60.8907 37.7946 61.0046 37.7809 61.104C37.6531 62.025 37.5333 62.9476 37.4135 63.8708C37.3601 64.2821 37.3139 64.694 37.2605 65.1367C38.5805 64.9614 39.858 64.7985 41.1326 64.6144C41.3022 64.5896 41.4913 64.4932 41.6133 64.3705C45.8549 60.0894 50.09 55.8017 54.3258 51.5148C54.3893 51.452 54.4492 51.3848 54.4911 51.3402Z" fill="#22885E"/>
<path fill-rule="evenodd" clip-rule="evenodd" d="M13.5836 59.8911C13.8128 59.9608 14.0419 60.0306 14.2658 60.1096H14.3494C20.6946 60.1096 27.0397 60.1096 33.3846 60.1093C33.4135 59.8861 33.4428 59.663 33.4726 59.4399C33.5514 58.8508 33.8226 58.3569 34.2399 57.9362C34.6079 57.5655 34.9756 57.1944 35.3431 56.8232C28.6723 56.8235 22.0016 56.8232 15.3309 56.8222C13.4096 56.8222 12.2933 55.7147 12.2933 53.808C12.2918 39.3083 12.2918 24.8071 12.2933 10.3075C12.2933 8.39784 13.4081 7.2918 15.3294 7.2918H34.0122H34.6477C34.6477 7.54311 34.6477 7.74035 34.6463 7.93614C34.6463 8.86148 34.6461 9.78683 34.6459 10.7122C34.6456 12.5629 34.6453 14.4136 34.6463 16.2643C34.6463 18.8474 36.2286 20.44 38.7986 20.4415C40.7954 20.4424 42.7922 20.4421 44.789 20.4418C45.7874 20.4416 46.7858 20.4415 47.7842 20.4415H48.4534V21.0522C48.4534 24.6864 48.4536 28.3205 48.4537 31.9547C48.4539 35.8176 48.4541 39.6805 48.454 43.5434C49.0166 42.9736 49.5793 42.4039 50.1419 41.8342C50.671 41.2984 51.2006 40.7631 51.7305 40.228C51.7286 33.8927 51.7378 27.5573 51.7469 21.2223L51.7481 20.4079C51.751 18.4062 51.057 16.7625 49.5989 15.3949C46.2033 12.2098 42.8253 9.00564 39.4503 5.79859C38.1835 4.59612 36.6991 3.99854 34.9502 4.00001C31.9629 4.00333 28.9754 4.00363 25.9877 4.00393C22.4024 4.00429 18.817 4.00465 15.2315 4.01023C14.707 4.01169 14.1679 4.05553 13.6594 4.1768C10.8395 4.84597 9.00735 7.2319 9.00589 10.2198C9.00276 17.7971 9.00335 25.3737 9.00395 32.9507C9.00419 35.982 9.00443 39.0134 9.00443 42.0449C9.00443 43.2003 9.00332 44.3559 9.00221 45.5116C8.9995 48.3365 8.99679 51.1617 9.01027 53.9862C9.02196 56.3532 10.0666 58.1707 12.1282 59.3323C12.5761 59.5844 13.0799 59.7377 13.5836 59.8911ZM43.0155 13.7011C44.2203 14.8406 45.433 15.9876 46.6665 17.154H42.9641C42.5574 17.154 42.1509 17.1543 41.7443 17.1545C40.7284 17.1551 39.7127 17.1557 38.6964 17.1526C38.1163 17.1497 37.9381 16.9773 37.9366 16.4089C37.9329 14.418 37.9344 12.4261 37.9358 10.4348C37.9361 10.0368 37.9364 9.63883 37.9366 9.24087C37.9366 9.20026 37.9419 9.15911 37.9503 9.09422C37.9559 9.05172 37.9627 8.99905 37.9702 8.92967C39.6604 10.5279 41.3303 12.1073 43.0155 13.7011Z" fill="#0B2D1F"/>
<path d="M19.0171 27.6749C19.5707 27.0427 20.082 26.459 20.5933 25.8746C21.3279 25.0353 22.0617 24.196 22.7963 23.3566C22.834 23.3135 22.8717 23.2689 22.9118 23.228C23.1782 22.9547 23.5255 22.9247 23.7865 23.151C24.0522 23.3813 24.076 23.757 23.8235 24.052C23.3361 24.6218 22.8386 25.1823 22.3443 25.7467C21.4449 26.7739 20.5471 27.8019 19.6462 28.8276C19.2658 29.2611 18.9339 29.2711 18.5266 28.8645C17.7774 28.1176 17.0274 27.3722 16.2859 26.6184C16.175 26.506 16.0718 26.3643 16.0248 26.2172C15.9417 25.957 16.0756 25.6836 16.3043 25.5504C16.5438 25.411 16.8426 25.4472 17.0697 25.6705C17.6118 26.2018 18.1477 26.7408 18.6821 27.2806C18.7961 27.3953 18.8931 27.5286 19.0171 27.6749Z" fill="#0B2D1F" stroke="#0B2D1F"/>
<path d="M19.0171 47.9975C19.5707 47.3653 20.082 46.7816 20.5933 46.1972C21.3279 45.3579 22.0617 44.5186 22.7963 43.6793C22.834 43.6362 22.8717 43.5915 22.9118 43.5507C23.1782 43.2773 23.5255 43.2473 23.7865 43.4737C24.0522 43.7039 24.076 44.0797 23.8235 44.3746C23.3361 44.9444 22.8386 45.505 22.3443 46.0694C21.4449 47.0966 20.5471 48.1245 19.6462 49.1502C19.2658 49.5837 18.9339 49.5937 18.5266 49.1871C17.7774 48.4402 17.0274 47.6949 16.2859 46.941C16.175 46.8286 16.0718 46.6869 16.0248 46.5399C15.9417 46.2796 16.0756 46.0062 16.3043 45.873C16.5438 45.7337 16.8426 45.7698 17.0697 45.9931C17.6118 46.5245 18.1477 47.0635 18.6821 47.6032C18.7961 47.718 18.8931 47.8512 19.0171 47.9975Z" fill="#0B2D1F" stroke="#0B2D1F"/>
<path d="M19.0171 37.8362C19.5707 37.204 20.082 36.6203 20.5933 36.0359C21.3279 35.1966 22.0617 34.3573 22.7963 33.518C22.834 33.4748 22.8717 33.4302 22.9118 33.3894C23.1782 33.116 23.5255 33.086 23.7865 33.3124C24.0522 33.5426 24.076 33.9184 23.8235 34.2133C23.3361 34.7831 22.8386 35.3436 22.3443 35.9081C21.4449 36.9353 20.5471 37.9632 19.6462 38.9889C19.2658 39.4224 18.9339 39.4324 18.5266 39.0258C17.7774 38.2789 17.0274 37.5336 16.2859 36.7797C16.175 36.6673 16.0718 36.5256 16.0248 36.3785C15.9417 36.1183 16.0756 35.8449 16.3043 35.7117C16.5438 35.5723 16.8426 35.6085 17.0697 35.8318C17.6118 36.3631 18.1477 36.9021 18.6821 37.4419C18.7961 37.5567 18.8931 37.6899 19.0171 37.8362Z" fill="#0B2D1F" stroke="#0B2D1F"/>
<path d="M35.9733 26.9988C33.3728 26.9988 30.7723 27.0028 28.1708 26.9962C27.3254 26.9948 26.7794 25.9609 27.0864 24.9456C27.2707 24.3361 27.619 24.0194 28.0969 24.0061C28.5518 23.9941 29.0076 24.0035 29.4634 24.0035C34.2451 24.0035 39.0277 24.0021 43.8094 24.0048C44.6779 24.0048 45.2316 25.0494 44.9053 26.078C44.7 26.7247 44.3171 27.0001 43.8114 26.9988C41.1993 26.9961 38.5863 26.9988 35.9733 26.9988Z" fill="#0B2D1F"/>
<path d="M36.0027 37.9987C33.3898 37.9987 30.7778 38.0027 28.1649 37.996C27.3224 37.9947 26.7764 36.9473 27.0892 35.9347C27.283 35.3057 27.6467 35.0019 28.1399 35.0006C29.0391 34.9993 29.9372 35.0006 30.8364 35.0006C35.1631 35.0006 39.4889 34.9993 43.8156 35.0019C44.6812 35.0033 45.2339 36.0599 44.9029 37.0859C44.6946 37.7308 44.3098 38.0013 43.8051 38C41.552 37.9947 39.2989 37.9973 37.0458 37.9973C36.6984 37.9987 36.3511 37.9987 36.0027 37.9987Z" fill="#0B2D1F"/>
<path d="M33.3863 48.3238C31.9497 48.3238 30.5115 48.3264 29.075 48.3224C27.8567 48.3184 27.0101 47.7097 27.0001 46.8385C26.9885 45.9487 27.8451 45.328 29.1033 45.3266C31.9781 45.324 34.8528 45.324 37.7276 45.3266C38.9758 45.328 39.8541 45.958 39.8424 46.8345C39.8308 47.7137 38.9625 48.3198 37.7009 48.3224C36.2611 48.3251 34.8228 48.3238 33.3863 48.3238Z" fill="#0B2D1F"/>
</svg>
