<svg width="72" height="72" viewBox="0 0 72 72" fill="none" xmlns="http://www.w3.org/2000/svg">
<path d="M29.887 4.07675C27.9495 4.40174 25.9246 5.37672 24.5871 6.62668L23.6622 7.48916H19.9123C15.8249 7.48916 15.2624 7.55166 14.0874 8.13914C12.675 8.85162 11.4875 10.3891 11.15 11.964C10.95 12.9015 10.95 62.5751 11.15 63.5126C11.35 64.4376 11.925 65.5376 12.5875 66.2375C13.2374 66.925 14.5249 67.65 15.4874 67.85C16.4249 68.05 56.3488 68.05 57.2862 67.85C59.4112 67.4 61.1736 65.6251 61.6236 63.5126C61.8236 62.5626 61.8236 12.9015 61.6236 11.964C61.1736 9.85159 59.3862 8.06414 57.2862 7.62666C56.8862 7.53916 55.1363 7.48916 52.8614 7.48916H49.099L48.2615 6.68918C47.3115 5.8017 46.3615 5.18922 45.0866 4.68924C43.4491 4.02675 42.8991 3.98926 36.2868 4.00175C32.9369 4.01425 30.062 4.05175 29.887 4.07675ZM42.8741 7.92665C43.3116 8.03914 44.0241 8.30164 44.4366 8.51413C45.6865 9.17661 47.0865 10.7641 47.449 11.9515L47.524 12.239H36.3868H25.2496L25.3246 11.9515C25.5371 11.2891 26.1246 10.3766 26.8371 9.6516C27.662 8.81412 28.962 8.07664 30.0245 7.87665C30.3245 7.81415 33.1619 7.76415 36.3243 7.75165C41.0492 7.73915 42.2116 7.77665 42.8741 7.92665ZM21.4247 12.0765C21.3247 12.5515 21.2622 13.3765 21.2872 13.9515C21.3247 15.0515 21.5247 15.4139 22.2872 15.8139C22.7872 16.0764 49.9864 16.0764 50.4864 15.8139C51.2489 15.4139 51.4489 15.0515 51.4864 13.9515C51.5114 13.3765 51.4489 12.5515 51.3489 12.0765L51.1739 11.2391H53.8113C56.8362 11.2391 57.2362 11.3391 57.7362 12.2265L58.0112 12.714V37.7383V62.7626L57.7487 63.2376C57.5987 63.5001 57.2737 63.8251 57.0112 63.9751L56.5362 64.2376H36.3868H16.2374L15.7624 63.9751C15.4999 63.8251 15.1749 63.5001 15.0249 63.2376L14.7624 62.7626V37.7383V12.714L15.0374 12.2265C15.5374 11.3391 15.9249 11.2391 18.9623 11.2391H21.5997L21.4247 12.0765Z" fill="#4D0000"/>
<path d="M42.8741 7.92665C43.3116 8.03914 44.0241 8.30164 44.4366 8.51413C45.6865 9.17661 47.0865 10.7641 47.449 11.9515L47.524 12.239H36.3868H25.2496L25.3246 11.9515C25.5371 11.2891 26.1246 10.3766 26.8371 9.6516C27.662 8.81412 28.962 8.07664 30.0245 7.87665C30.3245 7.81415 33.1619 7.76415 36.3243 7.75165C41.0492 7.73915 42.2116 7.77665 42.8741 7.92665Z" fill="#E60000"/>
<mask id="path-2-outside-1_5952_45208" maskUnits="userSpaceOnUse" x="22" y="21" width="30" height="17" fill="black">
<rect fill="white" x="22" y="21" width="30" height="17"/>
<path d="M23 29.9224C23.1237 29.461 23.2676 29.0112 23.5865 28.6359C23.9632 28.1926 24.4383 27.9222 24.9937 27.7718C26.2859 27.4218 27.5767 27.0645 28.8704 26.7189C29.0772 26.6639 29.2225 26.5612 29.3513 26.3899C30.1134 25.3775 30.8908 24.3759 31.6537 23.3643C32.3385 22.456 33.2453 22.0041 34.377 22.0026C37.1517 21.9997 39.9263 21.9983 42.701 22.0034C43.9484 22.0055 44.9036 22.5406 45.5638 23.6051C46.159 24.5647 46.7592 25.5207 47.368 26.4716C47.4461 26.5938 47.5741 26.7066 47.705 26.7695C48.3255 27.0667 48.9531 27.3487 49.5808 27.63C50.6858 28.1254 51.2433 28.9707 51.2274 30.187C51.2187 30.848 51.2599 31.5147 51.1905 32.1691C51.0466 33.525 50.0205 34.4419 48.6588 34.4267C48.204 34.4217 47.9986 34.5345 47.8113 34.972C47.2928 36.1818 46.0498 36.91 44.7951 36.8413C43.4292 36.7661 42.3184 35.9381 41.8795 34.6495C41.8252 34.4911 41.7616 34.4369 41.5938 34.4369C38.4974 34.4419 35.4017 34.4419 32.3052 34.4361C32.1331 34.4361 32.0731 34.4976 32.0203 34.6509C31.5648 35.9735 30.3615 36.8391 28.9926 36.842C27.6056 36.8449 26.4031 35.9829 25.9417 34.6437C25.8932 34.5034 25.847 34.4303 25.6814 34.4361C24.2727 34.4831 23.2054 33.5185 23.0268 32.2277C23.0246 32.2111 23.0094 32.1959 23 32.18C23 31.4294 23 30.6759 23 29.9224ZM48.115 33.2842C48.2879 33.2842 48.4679 33.2864 48.6473 33.2842C49.4904 33.2726 50.061 32.7013 50.0668 31.8574C50.0704 31.2789 50.0624 30.6997 50.0682 30.1212C50.0747 29.4494 49.7638 28.9888 49.1592 28.714C48.4498 28.3915 47.7347 28.0798 47.0354 27.7349C46.8336 27.6351 46.6341 27.4673 46.5126 27.28C45.8777 26.3024 45.2514 25.3182 44.6563 24.3166C44.1761 23.5104 43.4978 23.1466 42.5643 23.1524C39.8909 23.1683 37.2182 23.1661 34.5448 23.1531C33.6676 23.1488 32.9958 23.4735 32.4737 24.1836C31.7021 25.2343 30.8922 26.2575 30.1098 27.3003C29.929 27.5418 29.7128 27.69 29.4214 27.7616C28.9232 27.8838 28.4293 28.0256 27.9339 28.1615C27.0141 28.4139 26.0928 28.659 25.1759 28.923C24.575 29.0958 24.183 29.555 24.1642 30.1227C24.144 30.7554 24.1353 31.391 24.1671 32.0238C24.2091 32.8489 25.0031 33.4295 25.7862 33.2459C26.0813 31.4294 27.4769 30.4915 28.8733 30.4278C29.5827 30.396 30.2349 30.5956 30.8178 31.0042C31.6045 31.5552 32.0384 32.326 32.1794 33.2676C35.3728 33.2676 38.5466 33.2676 41.7182 33.2676C42.0321 31.3245 43.5767 30.396 44.9962 30.4271C46.4851 30.4596 47.8619 31.527 48.115 33.2842ZM28.989 35.6698C30.1185 35.6626 31.0492 34.7283 31.034 33.6175C31.0181 32.4866 30.0932 31.5704 28.9731 31.5761C27.8508 31.5819 26.9172 32.5206 26.9273 33.6342C26.9374 34.7608 27.8659 35.677 28.989 35.6698ZM44.9275 35.6698C46.0577 35.6604 46.9884 34.7239 46.971 33.6154C46.953 32.4851 46.0252 31.5689 44.9065 31.5761C43.7842 31.5834 42.8492 32.5263 42.8629 33.6363C42.8767 34.7644 43.8052 35.6792 44.9275 35.6698Z"/>
</mask>
<path d="M23 29.9224C23.1237 29.461 23.2676 29.0112 23.5865 28.6359C23.9632 28.1926 24.4383 27.9222 24.9937 27.7718C26.2859 27.4218 27.5767 27.0645 28.8704 26.7189C29.0772 26.6639 29.2225 26.5612 29.3513 26.3899C30.1134 25.3775 30.8908 24.3759 31.6537 23.3643C32.3385 22.456 33.2453 22.0041 34.377 22.0026C37.1517 21.9997 39.9263 21.9983 42.701 22.0034C43.9484 22.0055 44.9036 22.5406 45.5638 23.6051C46.159 24.5647 46.7592 25.5207 47.368 26.4716C47.4461 26.5938 47.5741 26.7066 47.705 26.7695C48.3255 27.0667 48.9531 27.3487 49.5808 27.63C50.6858 28.1254 51.2433 28.9707 51.2274 30.187C51.2187 30.848 51.2599 31.5147 51.1905 32.1691C51.0466 33.525 50.0205 34.4419 48.6588 34.4267C48.204 34.4217 47.9986 34.5345 47.8113 34.972C47.2928 36.1818 46.0498 36.91 44.7951 36.8413C43.4292 36.7661 42.3184 35.9381 41.8795 34.6495C41.8252 34.4911 41.7616 34.4369 41.5938 34.4369C38.4974 34.4419 35.4017 34.4419 32.3052 34.4361C32.1331 34.4361 32.0731 34.4976 32.0203 34.6509C31.5648 35.9735 30.3615 36.8391 28.9926 36.842C27.6056 36.8449 26.4031 35.9829 25.9417 34.6437C25.8932 34.5034 25.847 34.4303 25.6814 34.4361C24.2727 34.4831 23.2054 33.5185 23.0268 32.2277C23.0246 32.2111 23.0094 32.1959 23 32.18C23 31.4294 23 30.6759 23 29.9224ZM48.115 33.2842C48.2879 33.2842 48.4679 33.2864 48.6473 33.2842C49.4904 33.2726 50.061 32.7013 50.0668 31.8574C50.0704 31.2789 50.0624 30.6997 50.0682 30.1212C50.0747 29.4494 49.7638 28.9888 49.1592 28.714C48.4498 28.3915 47.7347 28.0798 47.0354 27.7349C46.8336 27.6351 46.6341 27.4673 46.5126 27.28C45.8777 26.3024 45.2514 25.3182 44.6563 24.3166C44.1761 23.5104 43.4978 23.1466 42.5643 23.1524C39.8909 23.1683 37.2182 23.1661 34.5448 23.1531C33.6676 23.1488 32.9958 23.4735 32.4737 24.1836C31.7021 25.2343 30.8922 26.2575 30.1098 27.3003C29.929 27.5418 29.7128 27.69 29.4214 27.7616C28.9232 27.8838 28.4293 28.0256 27.9339 28.1615C27.0141 28.4139 26.0928 28.659 25.1759 28.923C24.575 29.0958 24.183 29.555 24.1642 30.1227C24.144 30.7554 24.1353 31.391 24.1671 32.0238C24.2091 32.8489 25.0031 33.4295 25.7862 33.2459C26.0813 31.4294 27.4769 30.4915 28.8733 30.4278C29.5827 30.396 30.2349 30.5956 30.8178 31.0042C31.6045 31.5552 32.0384 32.326 32.1794 33.2676C35.3728 33.2676 38.5466 33.2676 41.7182 33.2676C42.0321 31.3245 43.5767 30.396 44.9962 30.4271C46.4851 30.4596 47.8619 31.527 48.115 33.2842ZM28.989 35.6698C30.1185 35.6626 31.0492 34.7283 31.034 33.6175C31.0181 32.4866 30.0932 31.5704 28.9731 31.5761C27.8508 31.5819 26.9172 32.5206 26.9273 33.6342C26.9374 34.7608 27.8659 35.677 28.989 35.6698ZM44.9275 35.6698C46.0577 35.6604 46.9884 34.7239 46.971 33.6154C46.953 32.4851 46.0252 31.5689 44.9065 31.5761C43.7842 31.5834 42.8492 32.5263 42.8629 33.6363C42.8767 34.7644 43.8052 35.6792 44.9275 35.6698Z" fill="#4D0000"/>
<path d="M32.1794 33.4676H41.7182V33.0676H32.1794V33.4676ZM23 29.9224L22.6136 29.8188L22.6 29.8697V29.9224H23ZM23.5865 28.6359L23.2817 28.3769L23.2816 28.3769L23.5865 28.6359ZM24.9937 27.7718L25.0982 28.1579L25.0982 28.1579L24.9937 27.7718ZM28.8704 26.7189L28.7676 26.3323L28.7671 26.3324L28.8704 26.7189ZM29.3513 26.3899L29.0317 26.1493L29.0314 26.1496L29.3513 26.3899ZM31.6537 23.3643L31.9731 23.6051L31.9731 23.6051L31.6537 23.3643ZM34.377 22.0026L34.3766 21.6026L34.3765 21.6026L34.377 22.0026ZM42.701 22.0034L42.7002 22.4033L42.7003 22.4033L42.701 22.0034ZM45.5638 23.6051L45.9038 23.3943L45.9038 23.3942L45.5638 23.6051ZM47.368 26.4716L47.7051 26.2562L47.7049 26.2559L47.368 26.4716ZM47.705 26.7695L47.5317 27.13L47.5322 27.1302L47.705 26.7695ZM49.5808 27.63L49.7444 27.265L49.7444 27.265L49.5808 27.63ZM51.2274 30.187L51.6274 30.1923L51.6274 30.1922L51.2274 30.187ZM51.1905 32.1691L51.5883 32.2113L51.5883 32.2113L51.1905 32.1691ZM48.6588 34.4267L48.6633 34.0268L48.6633 34.0268L48.6588 34.4267ZM47.8113 34.972L48.179 35.1295L48.179 35.1294L47.8113 34.972ZM44.7951 36.8413L44.7732 37.2407L44.7733 37.2407L44.7951 36.8413ZM41.8795 34.6495L42.2581 34.5205L42.2579 34.5199L41.8795 34.6495ZM41.5938 34.4369L41.5938 34.0369L41.5932 34.0369L41.5938 34.4369ZM32.3052 34.4361L32.306 34.0361H32.3052V34.4361ZM32.0203 34.6509L32.3985 34.7812L32.3985 34.7811L32.0203 34.6509ZM28.9926 36.842L28.9934 37.242L28.9934 37.242L28.9926 36.842ZM25.9417 34.6437L26.3199 34.5134L26.3198 34.5131L25.9417 34.6437ZM25.6814 34.4361L25.6947 34.8359L25.6953 34.8359L25.6814 34.4361ZM23.0268 32.2277L22.6301 32.2794L22.6305 32.2825L23.0268 32.2277ZM23 32.18H22.6V32.2893L22.6556 32.3835L23 32.18ZM48.115 33.2842L47.7191 33.3412L47.7685 33.6842H48.115V33.2842ZM48.6473 33.2842L48.6521 33.6842L48.6527 33.6841L48.6473 33.2842ZM50.0668 31.8574L50.4668 31.8602L50.4668 31.8599L50.0668 31.8574ZM50.0682 30.1212L50.4682 30.1252L50.4682 30.1251L50.0682 30.1212ZM49.1592 28.714L48.9937 29.0781L48.9937 29.0781L49.1592 28.714ZM47.0354 27.7349L46.8581 28.0934L46.8584 28.0936L47.0354 27.7349ZM46.5126 27.28L46.8482 27.0624L46.848 27.0622L46.5126 27.28ZM44.6563 24.3166L45.0002 24.1123L45 24.112L44.6563 24.3166ZM42.5643 23.1524L42.5667 23.5524L42.5668 23.5524L42.5643 23.1524ZM34.5448 23.1531L34.5428 23.5531L34.5428 23.5531L34.5448 23.1531ZM32.4737 24.1836L32.1515 23.9466L32.1513 23.9468L32.4737 24.1836ZM30.1098 27.3003L29.7899 27.0602L29.7896 27.0606L30.1098 27.3003ZM29.4214 27.7616L29.5167 28.1501L29.5168 28.1501L29.4214 27.7616ZM27.9339 28.1615L28.0398 28.5473L28.0398 28.5473L27.9339 28.1615ZM25.1759 28.923L25.2865 29.3074L25.2865 29.3074L25.1759 28.923ZM24.1642 30.1227L23.7645 30.1094L23.7644 30.1099L24.1642 30.1227ZM24.1671 32.0238L23.7676 32.0439L23.7676 32.0441L24.1671 32.0238ZM25.7862 33.2459L25.8776 33.6353L26.1381 33.5742L26.181 33.31L25.7862 33.2459ZM28.8733 30.4278L28.8553 30.0282L28.8551 30.0282L28.8733 30.4278ZM30.8178 31.0042L30.5882 31.3317L30.5883 31.3318L30.8178 31.0042ZM32.1794 33.2676L31.7838 33.3268L31.8349 33.6676H32.1794V33.2676ZM41.7182 33.2676V33.6676H42.0588L42.1131 33.3313L41.7182 33.2676ZM44.9962 30.4271L44.9874 30.827L44.9874 30.827L44.9962 30.4271ZM28.989 35.6698L28.9864 35.2698L28.9864 35.2698L28.989 35.6698ZM31.034 33.6175L31.4339 33.6121L31.4339 33.6119L31.034 33.6175ZM28.9731 31.5761L28.9751 31.9761L28.9751 31.9761L28.9731 31.5761ZM26.9273 33.6342L27.3273 33.6306L27.3273 33.6305L26.9273 33.6342ZM44.9275 35.6698L44.9242 35.2698L44.9241 35.2698L44.9275 35.6698ZM46.971 33.6154L47.371 33.6091L47.371 33.609L46.971 33.6154ZM44.9065 31.5761L44.9091 31.9761L44.9091 31.9761L44.9065 31.5761ZM42.8629 33.6363L43.2629 33.6315L43.2629 33.6314L42.8629 33.6363ZM23.3864 30.0259C23.509 29.5685 23.6351 29.1964 23.8913 28.8949L23.2816 28.3769C22.9 28.826 22.7384 29.3535 22.6136 29.8188L23.3864 30.0259ZM23.8912 28.8949C24.2076 28.5227 24.6081 28.2906 25.0982 28.1579L24.8891 27.3857C24.2685 27.5537 23.7188 27.8626 23.2817 28.3769L23.8912 28.8949ZM25.0982 28.1579C26.3938 27.8069 27.6803 27.4509 28.9736 27.1053L28.7671 26.3324C27.4731 26.6782 26.178 27.0366 24.8891 27.3857L25.0982 28.1579ZM28.9731 27.1055C29.2722 27.026 29.492 26.8685 29.6711 26.6301L29.0314 26.1496C28.953 26.254 28.8821 26.3019 28.7676 26.3323L28.9731 27.1055ZM29.6708 26.6304C30.0509 26.1256 30.4349 25.6233 30.8199 25.1198C31.2047 24.6166 31.5907 24.1122 31.9731 23.6051L31.3343 23.1234C30.9538 23.628 30.5696 24.1302 30.1845 24.6338C29.7996 25.1371 29.4138 25.6417 29.0317 26.1493L29.6708 26.6304ZM31.9731 23.6051C32.5825 22.7968 33.3714 22.4039 34.3775 22.4026L34.3765 21.6026C33.1192 21.6042 32.0945 22.1153 31.3343 23.1235L31.9731 23.6051ZM34.3774 22.4026C37.152 22.3997 39.9262 22.3983 42.7002 22.4033L42.7017 21.6034C39.9265 21.5983 37.1513 21.5997 34.3766 21.6026L34.3774 22.4026ZM42.7003 22.4033C43.8086 22.4053 44.636 22.8681 45.2239 23.8159L45.9038 23.3942C45.1712 22.2132 44.0882 21.6058 42.7017 21.6034L42.7003 22.4033ZM45.2239 23.8159C45.8198 24.7767 46.421 25.7344 47.0312 26.6873L47.7049 26.2559C47.0973 25.3069 46.4981 24.3526 45.9038 23.3943L45.2239 23.8159ZM47.031 26.687C47.1496 26.8726 47.3346 27.0353 47.5317 27.13L47.8783 26.409C47.8137 26.3779 47.7427 26.315 47.7051 26.2562L47.031 26.687ZM47.5322 27.1302C48.1579 27.43 48.79 27.7139 49.4172 27.995L49.7444 27.265C49.1163 26.9835 48.493 26.7035 47.8778 26.4088L47.5322 27.1302ZM49.4172 27.995C49.9142 28.2178 50.2632 28.5076 50.4887 28.8556C50.7138 29.2031 50.8345 29.6376 50.8274 30.1818L51.6274 30.1922C51.6361 29.5201 51.486 28.9238 51.1601 28.4207C50.8346 27.9182 50.3524 27.5375 49.7444 27.265L49.4172 27.995ZM50.8274 30.1818C50.8182 30.8844 50.8597 31.4958 50.7927 32.1269L51.5883 32.2113C51.6602 31.5336 51.6192 30.8115 51.6274 30.1923L50.8274 30.1818ZM50.7927 32.1269C50.6705 33.2788 49.8175 34.0396 48.6633 34.0268L48.6544 34.8267C50.2234 34.8442 51.4227 33.7712 51.5883 32.2113L50.7927 32.1269ZM48.6633 34.0268C48.4115 34.024 48.1525 34.0506 47.9227 34.1942C47.69 34.3396 47.5505 34.5649 47.4436 34.8145L48.179 35.1294C48.2595 34.9416 48.3162 34.8917 48.3467 34.8726C48.3802 34.8517 48.4514 34.8244 48.6544 34.8267L48.6633 34.0268ZM47.4437 34.8144C46.9934 35.865 45.9091 36.5017 44.817 36.4419L44.7733 37.2407C46.1904 37.3183 47.5923 36.4985 48.179 35.1295L47.4437 34.8144ZM44.8171 36.4419C43.6107 36.3754 42.6434 35.6515 42.2581 34.5205L41.5008 34.7784C41.9935 36.2247 43.2476 37.1567 44.7732 37.2407L44.8171 36.4419ZM42.2579 34.5199C42.2236 34.4197 42.1622 34.2729 42.0221 34.1659C41.8763 34.0545 41.7134 34.0369 41.5938 34.0369V34.8369C41.6162 34.8369 41.6167 34.8389 41.6051 34.836C41.5903 34.8323 41.564 34.8227 41.5364 34.8016C41.5095 34.7811 41.4957 34.7606 41.4915 34.7534C41.4885 34.7484 41.4923 34.7535 41.5011 34.779L42.2579 34.5199ZM41.5932 34.0369C38.4972 34.0419 35.4019 34.0419 32.306 34.0361L32.3045 34.8361C35.4014 34.8419 38.4976 34.8419 41.5945 34.8369L41.5932 34.0369ZM32.3052 34.0361C32.1769 34.0361 32.0125 34.0581 31.868 34.1738C31.7326 34.2822 31.6742 34.4276 31.6421 34.5207L32.3985 34.7811C32.4075 34.755 32.4115 34.7488 32.4095 34.7523C32.4063 34.7579 32.3937 34.7777 32.3681 34.7982C32.3413 34.8197 32.3149 34.8303 32.2984 34.8347C32.2851 34.8382 32.2843 34.8361 32.3052 34.8361V34.0361ZM31.6421 34.5206C31.241 35.6853 30.1869 36.4395 28.9917 36.442L28.9934 37.242C30.536 37.2387 31.8885 36.2617 32.3985 34.7812L31.6421 34.5206ZM28.9917 36.442C27.7792 36.4445 26.7267 35.6942 26.3199 34.5134L25.5635 34.774C26.0794 36.2716 27.432 37.2452 28.9934 37.242L28.9917 36.442ZM26.3198 34.5131C26.2959 34.444 26.2461 34.3004 26.1255 34.19C25.9823 34.059 25.8105 34.0314 25.6674 34.0364L25.6953 34.8359C25.7084 34.8354 25.6976 34.8375 25.6737 34.8306C25.6458 34.8225 25.6136 34.806 25.5854 34.7802C25.5599 34.7569 25.5494 34.7365 25.5488 34.7354C25.5484 34.7348 25.5497 34.7371 25.5525 34.7441C25.5553 34.751 25.5589 34.7606 25.5636 34.7742L26.3198 34.5131ZM25.668 34.0364C24.4684 34.0764 23.5741 33.265 23.423 32.1729L22.6305 32.2825C22.8366 33.7719 24.0771 34.8899 25.6947 34.8359L25.668 34.0364ZM23.4234 32.176C23.4162 32.1204 23.3994 32.0762 23.3853 32.046C23.3715 32.0164 23.357 31.9938 23.3489 31.9817C23.3446 31.9752 23.3408 31.9698 23.3385 31.9665C23.3373 31.9649 23.3362 31.9633 23.3355 31.9624C23.3347 31.9613 23.3344 31.9608 23.3342 31.9605C23.3324 31.958 23.3378 31.9653 23.3444 31.9765L22.6556 32.3835C22.6669 32.4025 22.6777 32.4178 22.6815 32.4231C22.6883 32.4328 22.6849 32.4279 22.6833 32.4254C22.6805 32.4212 22.6707 32.4065 22.6606 32.3849C22.6503 32.3628 22.6363 32.3266 22.6301 32.2794L23.4234 32.176ZM23.4 32.18C23.4 31.4501 23.4 30.6551 23.4 29.9224H22.6C22.6 30.096 22.6 30.3138 22.6 30.4874C22.6 30.4874 22.6 30.5227 22.6 30.5227C22.6 30.5228 22.6 30.5404 22.6 30.5404C22.6 30.5404 22.6 30.5492 22.6 30.5492C22.6 30.5507 22.6 30.5522 22.6 30.5536C22.6 30.5551 22.6 30.5566 22.6 30.5581C22.6 30.5581 22.6 30.5669 22.6 30.5669C22.6 30.5669 22.6 30.5757 22.6 30.5757C22.6 30.5757 22.6 30.5845 22.6 30.5845C22.6 30.586 22.6 30.5875 22.6 30.5889C22.6 30.5904 22.6 30.5919 22.6 30.5934C22.6 30.5934 22.6 30.6022 22.6 30.6022C22.6 30.6022 22.6 30.611 22.6 30.611C22.6 30.6125 22.6 30.614 22.6 30.6154C22.6 30.6169 22.6 30.6184 22.6 30.6198C22.6 30.6199 22.6 30.6287 22.6 30.6287C22.6 30.6293 22.6 30.6987 22.6 30.6993C22.6 30.7008 22.6 30.7022 22.6 30.7037C22.6 30.7052 22.6 30.7066 22.6 30.7081C22.6 30.7096 22.6 30.711 22.6 30.7125C22.6 30.714 22.6 30.7155 22.6 30.7169C22.6 30.7184 22.6 30.7199 22.6 30.7213C22.6 30.7228 22.6 30.7243 22.6 30.7258C22.6 30.7272 22.6 30.7287 22.6 30.7302C22.6 30.7316 22.6 30.7331 22.6 30.7346C22.6 30.7361 22.6 30.7375 22.6 30.739C22.6 30.7405 22.6 30.7419 22.6 30.7434C22.6 30.7449 22.6 30.7464 22.6 30.7478C22.6 30.7493 22.6 30.7508 22.6 30.7522C22.6 30.7537 22.6 30.7552 22.6 30.7566C22.6 30.7581 22.6 30.7596 22.6 30.7611C22.6 30.7625 22.6 30.764 22.6 30.7655C22.6 30.7669 22.6 30.7684 22.6 30.7699C22.6 30.7714 22.6 30.7728 22.6 30.7743C22.6 30.7758 22.6 30.7772 22.6 30.7787C22.6 30.7802 22.6 30.7817 22.6 30.7831C22.6 30.7846 22.6 30.7861 22.6 30.7875C22.6 30.789 22.6 30.7905 22.6 30.792C22.6 30.7934 22.6 30.7949 22.6 30.7964C22.6 30.7978 22.6 30.7993 22.6 30.8008C22.6 30.8022 22.6 30.8037 22.6 30.8052C22.6 30.8067 22.6 30.8081 22.6 30.8096C22.6 30.8111 22.6 30.8125 22.6 30.814C22.6 30.8155 22.6 30.817 22.6 30.8184C22.6 30.8199 22.6 30.8214 22.6 30.8228C22.6 30.8243 22.6 30.8258 22.6 30.8273C22.6 30.8287 22.6 30.8302 22.6 30.8317C22.6 30.8331 22.6 30.8346 22.6 30.8361C22.6 30.8375 22.6 30.839 22.6 30.8405C22.6 30.842 22.6 30.8434 22.6 30.8449C22.6 30.8464 22.6 30.8478 22.6 30.8493C22.6 30.8508 22.6 30.8523 22.6 30.8537C22.6 30.8552 22.6 30.8567 22.6 30.8581C22.6 30.8596 22.6 30.8611 22.6 30.8625C22.6 30.864 22.6 30.8655 22.6 30.867C22.6 30.8684 22.6 30.8699 22.6 30.8714C22.6 30.8728 22.6 30.8743 22.6 30.8758C22.6 30.8773 22.6 30.8787 22.6 30.8802C22.6 30.8817 22.6 30.8831 22.6 30.8846C22.6 30.8861 22.6 30.8875 22.6 30.889C22.6 30.8905 22.6 30.892 22.6 30.8934C22.6 30.8949 22.6 30.8964 22.6 30.8978C22.6 30.8993 22.6 30.9008 22.6 30.9023C22.6 30.9037 22.6 30.9052 22.6 30.9067C22.6 30.9081 22.6 30.9096 22.6 30.9111C22.6 30.9126 22.6 30.914 22.6 30.9155C22.6 30.917 22.6 30.9184 22.6 30.9199C22.6 30.9214 22.6 30.9228 22.6 30.9243C22.6 30.9258 22.6 30.9273 22.6 30.9287C22.6 30.9302 22.6 30.9317 22.6 30.9331C22.6 30.9346 22.6 30.9361 22.6 30.9375C22.6 30.939 22.6 30.9405 22.6 30.942C22.6 30.9434 22.6 30.9449 22.6 30.9464C22.6 30.9478 22.6 30.9493 22.6 30.9508C22.6 30.9523 22.6 30.9537 22.6 30.9552C22.6 30.9567 22.6 30.9581 22.6 30.9596C22.6 30.9611 22.6 30.9625 22.6 30.964C22.6 30.9655 22.6 30.967 22.6 30.9684C22.6 30.9699 22.6 30.9714 22.6 30.9728C22.6 30.9743 22.6 30.9758 22.6 30.9773C22.6 30.9787 22.6 30.9802 22.6 30.9817C22.6 30.9831 22.6 30.9846 22.6 30.9861C22.6 30.9875 22.6 30.989 22.6 30.9905C22.6 30.992 22.6 30.9934 22.6 30.9949C22.6 30.9964 22.6 30.9978 22.6 30.9993C22.6 31.0008 22.6 31.0023 22.6 31.0037C22.6 31.0052 22.6 31.0067 22.6 31.0081C22.6 31.0096 22.6 31.0111 22.6 31.0125C22.6 31.014 22.6 31.0155 22.6 31.017C22.6 31.0184 22.6 31.0199 22.6 31.0214C22.6 31.0228 22.6 31.0243 22.6 31.0258C22.6 31.0272 22.6 31.0287 22.6 31.0302C22.6 31.0317 22.6 31.0331 22.6 31.0346C22.6 31.0361 22.6 31.0375 22.6 31.039C22.6 31.0405 22.6 31.0419 22.6 31.0434C22.6 31.0449 22.6 31.0464 22.6 31.0478C22.6 31.0493 22.6 31.0508 22.6 31.0522C22.6 31.4426 22.6 31.7907 22.6 32.18H23.4ZM48.115 33.6842C48.281 33.6842 48.4699 33.6864 48.6521 33.6842L48.6424 32.8842C48.4659 32.8863 48.2947 32.8842 48.115 32.8842V33.6842ZM48.6527 33.6841C49.1655 33.6771 49.6231 33.4979 49.9544 33.1652C50.2859 32.8324 50.4632 32.3739 50.4668 31.8602L49.6668 31.8547C49.6645 32.1849 49.5536 32.434 49.3876 32.6007C49.2215 32.7675 48.9722 32.8797 48.6418 32.8842L48.6527 33.6841ZM50.4668 31.8599C50.4705 31.2591 50.4623 30.7144 50.4682 30.1252L49.6682 30.1172C49.6626 30.685 49.6702 31.2988 49.6668 31.8549L50.4668 31.8599ZM50.4682 30.1251C50.4721 29.7247 50.3807 29.3608 50.1778 29.05C49.9754 28.7402 49.6808 28.5117 49.3248 28.3499L48.9937 29.0781C49.2422 29.1911 49.4054 29.3303 49.508 29.4875C49.61 29.6436 49.6709 29.846 49.6682 30.1173L50.4682 30.1251ZM49.3248 28.3499C48.6078 28.0239 47.9041 27.7174 47.2124 27.3762L46.8584 28.0936C47.5653 28.4423 48.2919 28.7591 48.9937 29.0781L49.3248 28.3499ZM47.2127 27.3763C47.0673 27.3044 46.9258 27.1821 46.8482 27.0624L46.177 27.4977C46.3423 27.7525 46.6 27.9658 46.8581 28.0934L47.2127 27.3763ZM46.848 27.0622C46.2143 26.0863 45.5913 25.1072 45.0002 24.1123L44.3124 24.521C44.9115 25.5292 45.5411 26.5185 46.1771 27.4979L46.848 27.0622ZM45 24.112C44.7301 23.6588 44.3924 23.3108 43.9735 23.0797C43.5554 22.8491 43.082 22.7492 42.5618 22.7524L42.5668 23.5524C42.9802 23.5498 43.3126 23.6289 43.5871 23.7803C43.8609 23.9312 44.1023 24.1682 44.3126 24.5213L45 24.112ZM42.5619 22.7524C39.8903 22.7683 37.2191 22.7661 34.5467 22.7531L34.5428 23.5531C37.2173 23.5661 39.8915 23.5683 42.5667 23.5524L42.5619 22.7524ZM34.5468 22.7531C33.5459 22.7482 32.7518 23.1301 32.1515 23.9466L32.796 24.4205C33.2398 23.8169 33.7893 23.5494 34.5428 23.5531L34.5468 22.7531ZM32.1513 23.9468C31.3781 24.9998 30.5839 26.002 29.7899 27.0602L30.4298 27.5404C31.2006 26.513 32.0262 25.4688 32.7961 24.4203L32.1513 23.9468ZM29.7896 27.0606C29.6614 27.2319 29.5229 27.3248 29.326 27.3732L29.5168 28.1501C29.9027 28.0553 30.1967 27.8517 30.43 27.54L29.7896 27.0606ZM29.3261 27.3732C28.8208 27.4971 28.3174 27.6415 27.8281 27.7758L28.0398 28.5473C28.5411 28.4097 29.0255 28.2706 29.5167 28.1501L29.3261 27.3732ZM27.8281 27.7758C26.9122 28.0271 25.9854 28.2737 25.0652 28.5386L25.2865 29.3074C26.2003 29.0443 27.1159 28.8007 28.0398 28.5473L27.8281 27.7758ZM25.0653 28.5386C24.324 28.7518 23.7899 29.3426 23.7645 30.1094L24.564 30.1359C24.5762 29.7674 24.826 29.4398 25.2865 29.3074L25.0653 28.5386ZM23.7644 30.1099C23.7441 30.7466 23.735 31.3949 23.7676 32.0439L24.5666 32.0037C24.5356 31.3871 24.5439 30.7642 24.564 30.1355L23.7644 30.1099ZM23.7676 32.0441C23.8224 33.121 24.8541 33.8753 25.8776 33.6353L25.6949 32.8564C25.1521 32.9837 24.5958 32.5767 24.5666 32.0035L23.7676 32.0441ZM26.181 33.31C26.4425 31.7005 27.6631 30.8834 28.8915 30.8274L28.8551 30.0282C27.2907 30.0995 25.72 31.1582 25.3914 33.1817L26.181 33.31ZM28.8912 30.8274C29.5084 30.7997 30.0743 30.9715 30.5882 31.3317L31.0474 30.6766C30.3955 30.2197 29.6569 29.9923 28.8553 30.0282L28.8912 30.8274ZM30.5883 31.3318C31.276 31.8134 31.6573 32.482 31.7838 33.3268L32.575 33.2083C32.4195 32.17 31.9331 31.2969 31.0472 30.6765L30.5883 31.3318ZM32.1794 33.6676C32.1857 33.6676 32.1919 33.6676 32.1981 33.6676C32.2044 33.6676 32.2106 33.6676 32.2168 33.6676C32.2231 33.6676 32.2293 33.6676 32.2355 33.6676C32.2418 33.6676 32.248 33.6676 32.2543 33.6676C32.2605 33.6676 32.2667 33.6676 32.273 33.6676C32.2792 33.6676 32.2854 33.6676 32.2917 33.6676C32.2979 33.6676 32.3041 33.6676 32.3104 33.6676C32.3166 33.6676 32.3229 33.6676 32.3291 33.6676C32.3353 33.6676 32.3416 33.6676 32.3478 33.6676C32.354 33.6676 32.3603 33.6676 32.3665 33.6676C32.3727 33.6676 32.379 33.6676 32.3852 33.6676C32.3914 33.6676 32.3977 33.6676 32.4039 33.6676C32.4102 33.6676 32.4164 33.6676 32.4226 33.6676C32.4289 33.6676 32.4351 33.6676 32.4413 33.6676C32.4476 33.6676 32.4538 33.6676 32.46 33.6676C32.4663 33.6676 32.4725 33.6676 32.4787 33.6676C32.485 33.6676 32.4912 33.6676 32.4974 33.6676C32.5037 33.6676 32.5099 33.6676 32.5161 33.6676C32.5224 33.6676 32.5286 33.6676 32.5348 33.6676C32.5411 33.6676 32.5473 33.6676 32.5535 33.6676C32.5598 33.6676 32.566 33.6676 32.5722 33.6676C32.5785 33.6676 32.5847 33.6676 32.591 33.6676C32.5972 33.6676 32.6034 33.6676 32.6097 33.6676C32.6159 33.6676 32.6221 33.6676 32.6284 33.6676C32.6346 33.6676 32.6408 33.6676 32.6471 33.6676C32.6533 33.6676 32.6595 33.6676 32.6658 33.6676C32.672 33.6676 32.6782 33.6676 32.6845 33.6676C32.6907 33.6676 32.6969 33.6676 32.7032 33.6676C32.7094 33.6676 32.7156 33.6676 32.7218 33.6676C32.7281 33.6676 32.7343 33.6676 32.7405 33.6676C32.7468 33.6676 32.753 33.6676 32.7592 33.6676C32.7655 33.6676 32.7717 33.6676 32.7779 33.6676C32.7842 33.6676 32.7904 33.6676 32.7966 33.6676C32.8029 33.6676 32.8091 33.6676 32.8153 33.6676C32.8216 33.6676 32.8278 33.6676 32.834 33.6676C32.8403 33.6676 32.8465 33.6676 32.8527 33.6676C32.859 33.6676 32.8652 33.6676 32.8714 33.6676C32.8777 33.6676 32.8839 33.6676 32.8901 33.6676C32.8963 33.6676 32.9026 33.6676 32.9088 33.6676C32.915 33.6676 32.9213 33.6676 32.9275 33.6676C32.9337 33.6676 32.94 33.6676 32.9462 33.6676C32.9524 33.6676 32.9587 33.6676 32.9649 33.6676C32.9711 33.6676 32.9774 33.6676 32.9836 33.6676C32.9898 33.6676 32.996 33.6676 33.0023 33.6676C33.0085 33.6676 33.0147 33.6676 33.021 33.6676C33.0272 33.6676 33.0334 33.6676 33.0397 33.6676C33.0459 33.6676 33.0521 33.6676 33.0584 33.6676C33.0646 33.6676 33.0708 33.6676 33.077 33.6676C33.0833 33.6676 33.0895 33.6676 33.0957 33.6676C33.102 33.6676 33.1082 33.6676 33.1144 33.6676C33.1207 33.6676 33.1269 33.6676 33.1331 33.6676C33.1393 33.6676 33.1456 33.6676 33.1518 33.6676C33.158 33.6676 33.1643 33.6676 33.1705 33.6676C33.1767 33.6676 33.1829 33.6676 33.1892 33.6676C33.1954 33.6676 33.2016 33.6676 33.2079 33.6676C33.2141 33.6676 33.2203 33.6676 33.2266 33.6676C33.2328 33.6676 33.239 33.6676 33.2452 33.6676C33.2515 33.6676 33.2577 33.6676 33.2639 33.6676C33.2702 33.6676 33.2764 33.6676 33.2826 33.6676C33.2888 33.6676 33.2951 33.6676 33.3013 33.6676C33.3075 33.6676 33.3138 33.6676 33.32 33.6676C33.3262 33.6676 33.3324 33.6676 33.3387 33.6676C33.3449 33.6676 33.3511 33.6676 33.3574 33.6676C33.3636 33.6676 33.3698 33.6676 33.376 33.6676C33.3823 33.6676 33.3885 33.6676 33.3947 33.6676C33.4009 33.6676 33.4072 33.6676 33.4134 33.6676C33.4196 33.6676 33.4259 33.6676 33.4321 33.6676C33.4383 33.6676 33.4445 33.6676 33.4508 33.6676C33.457 33.6676 33.4632 33.6676 33.4695 33.6676C33.4757 33.6676 33.4819 33.6676 33.4881 33.6676C33.4944 33.6676 33.5006 33.6676 33.5068 33.6676C33.513 33.6676 33.5193 33.6676 33.5255 33.6676C33.5317 33.6676 33.538 33.6676 33.5442 33.6676C33.5504 33.6676 33.5566 33.6676 33.5629 33.6676C33.5691 33.6676 33.5753 33.6676 33.5815 33.6676C33.5878 33.6676 33.594 33.6676 33.6002 33.6676C33.6064 33.6676 33.6127 33.6676 33.6189 33.6676C33.6251 33.6676 33.6313 33.6676 33.6376 33.6676C33.6438 33.6676 33.65 33.6676 33.6563 33.6676C33.6625 33.6676 33.6687 33.6676 33.6749 33.6676C33.6812 33.6676 33.6874 33.6676 33.6936 33.6676C33.6998 33.6676 33.7061 33.6676 33.7123 33.6676C33.7185 33.6676 33.7247 33.6676 33.731 33.6676C33.7372 33.6676 33.7434 33.6676 33.7496 33.6676C33.7559 33.6676 33.7621 33.6676 33.7683 33.6676C33.7745 33.6676 33.7808 33.6676 33.787 33.6676C33.7932 33.6676 33.7994 33.6676 33.8057 33.6676C33.8119 33.6676 33.8181 33.6676 33.8243 33.6676C33.8306 33.6676 33.8368 33.6676 33.843 33.6676C33.8492 33.6676 33.8555 33.6676 33.8617 33.6676C33.8679 33.6676 33.8741 33.6676 33.8804 33.6676C33.8866 33.6676 33.8928 33.6676 33.899 33.6676C33.9053 33.6676 33.9115 33.6676 33.9177 33.6676C33.9239 33.6676 33.9302 33.6676 33.9364 33.6676C33.9426 33.6676 33.9488 33.6676 33.9551 33.6676C33.9613 33.6676 33.9675 33.6676 33.9737 33.6676C33.98 33.6676 33.9862 33.6676 33.9924 33.6676C33.9986 33.6676 34.0048 33.6676 34.0111 33.6676C34.0173 33.6676 34.0235 33.6676 34.0297 33.6676C34.036 33.6676 34.0422 33.6676 34.0484 33.6676C34.0546 33.6676 34.0609 33.6676 34.0671 33.6676C34.0733 33.6676 34.0795 33.6676 34.0857 33.6676C34.092 33.6676 34.0982 33.6676 34.1044 33.6676C34.1106 33.6676 34.1169 33.6676 34.1231 33.6676C34.1293 33.6676 34.1355 33.6676 34.1418 33.6676C34.148 33.6676 34.1542 33.6676 34.1604 33.6676C34.1666 33.6676 34.1729 33.6676 34.1791 33.6676C34.1853 33.6676 34.1915 33.6676 34.1978 33.6676C34.204 33.6676 34.2102 33.6676 34.2164 33.6676C34.2226 33.6676 34.2289 33.6676 34.2351 33.6676C34.2413 33.6676 34.2475 33.6676 34.2538 33.6676C34.26 33.6676 34.2662 33.6676 34.2724 33.6676C34.2786 33.6676 34.2849 33.6676 34.2911 33.6676C34.2973 33.6676 34.3035 33.6676 34.3098 33.6676C34.316 33.6676 34.3222 33.6676 34.3284 33.6676C34.3346 33.6676 34.3409 33.6676 34.3471 33.6676C34.3533 33.6676 34.3595 33.6676 34.3658 33.6676C34.372 33.6676 34.3782 33.6676 34.3844 33.6676C34.3906 33.6676 34.3969 33.6676 34.4031 33.6676C34.4093 33.6676 34.4155 33.6676 34.4217 33.6676C34.428 33.6676 34.4342 33.6676 34.4404 33.6676C34.4466 33.6676 34.4528 33.6676 34.4591 33.6676C34.4653 33.6676 34.4715 33.6676 34.4777 33.6676C34.4839 33.6676 34.4902 33.6676 34.4964 33.6676C34.5026 33.6676 34.5088 33.6676 34.5151 33.6676C34.5213 33.6676 34.5275 33.6676 34.5337 33.6676C34.5399 33.6676 34.5462 33.6676 34.5524 33.6676C34.5586 33.6676 34.5648 33.6676 34.571 33.6676C34.5773 33.6676 34.5835 33.6676 34.5897 33.6676C34.5959 33.6676 34.6021 33.6676 34.6084 33.6676C34.6146 33.6676 34.6208 33.6676 34.627 33.6676C34.6332 33.6676 34.6395 33.6676 34.6457 33.6676C34.6519 33.6676 34.6581 33.6676 34.6643 33.6676C34.6705 33.6676 34.6768 33.6676 34.683 33.6676C34.6892 33.6676 34.6954 33.6676 34.7016 33.6676C34.7079 33.6676 34.7141 33.6676 34.7203 33.6676C34.7265 33.6676 34.7327 33.6676 34.739 33.6676C34.7452 33.6676 34.7514 33.6676 34.7576 33.6676C34.7638 33.6676 34.7701 33.6676 34.7763 33.6676C34.7825 33.6676 34.7887 33.6676 34.7949 33.6676C34.8011 33.6676 34.8074 33.6676 34.8136 33.6676C34.8198 33.6676 34.826 33.6676 34.8322 33.6676C34.8385 33.6676 34.8447 33.6676 34.8509 33.6676C34.8571 33.6676 34.8633 33.6676 34.8696 33.6676C34.8758 33.6676 34.882 33.6676 34.8882 33.6676C34.8944 33.6676 34.9006 33.6676 34.9069 33.6676C34.9131 33.6676 34.9193 33.6676 34.9255 33.6676C34.9317 33.6676 34.938 33.6676 34.9442 33.6676C34.9504 33.6676 34.9566 33.6676 34.9628 33.6676C34.969 33.6676 34.9753 33.6676 34.9815 33.6676C34.9877 33.6676 34.9939 33.6676 35.0001 33.6676C35.0063 33.6676 35.0126 33.6676 35.0188 33.6676C35.025 33.6676 35.0312 33.6676 35.0374 33.6676C35.0436 33.6676 35.0499 33.6676 35.0561 33.6676C35.0623 33.6676 35.0685 33.6676 35.0747 33.6676C35.081 33.6676 35.0872 33.6676 35.0934 33.6676C35.0996 33.6676 35.1058 33.6676 35.112 33.6676C35.1183 33.6676 35.1245 33.6676 35.1307 33.6676C35.1369 33.6676 35.1431 33.6676 35.1493 33.6676C35.1556 33.6676 35.1618 33.6676 35.168 33.6676C35.1742 33.6676 35.1804 33.6676 35.1866 33.6676C35.1929 33.6676 35.1991 33.6676 35.2053 33.6676C35.2115 33.6676 35.2177 33.6676 35.2239 33.6676C35.2301 33.6676 35.2364 33.6676 35.2426 33.6676C35.2488 33.6676 35.255 33.6676 35.2612 33.6676C35.2674 33.6676 35.2737 33.6676 35.2799 33.6676C35.2861 33.6676 35.2923 33.6676 35.2985 33.6676C35.3047 33.6676 35.311 33.6676 35.3172 33.6676C35.3234 33.6676 35.3296 33.6676 35.3358 33.6676C35.342 33.6676 35.3482 33.6676 35.3545 33.6676C35.3607 33.6676 35.3669 33.6676 35.3731 33.6676C35.3793 33.6676 35.3855 33.6676 35.3918 33.6676C35.398 33.6676 35.4042 33.6676 35.4104 33.6676C35.4166 33.6676 35.4228 33.6676 35.429 33.6676C35.4353 33.6676 35.4415 33.6676 35.4477 33.6676C35.4539 33.6676 35.4601 33.6676 35.4663 33.6676C35.4725 33.6676 35.4788 33.6676 35.485 33.6676C35.4912 33.6676 35.4974 33.6676 35.5036 33.6676C35.5098 33.6676 35.5161 33.6676 35.5223 33.6676C35.5285 33.6676 35.5347 33.6676 35.5409 33.6676C35.5471 33.6676 35.5533 33.6676 35.5596 33.6676C35.5658 33.6676 35.572 33.6676 35.5782 33.6676C35.5844 33.6676 35.5906 33.6676 35.5968 33.6676C35.6031 33.6676 35.6093 33.6676 35.6155 33.6676C35.6217 33.6676 35.6279 33.6676 35.6341 33.6676C35.6403 33.6676 35.6465 33.6676 35.6528 33.6676C35.659 33.6676 35.6652 33.6676 35.6714 33.6676C35.6776 33.6676 35.6838 33.6676 35.69 33.6676C35.6963 33.6676 35.7025 33.6676 35.7087 33.6676C35.7149 33.6676 35.7211 33.6676 35.7273 33.6676C35.7335 33.6676 35.7398 33.6676 35.746 33.6676C35.7522 33.6676 35.7584 33.6676 35.7646 33.6676C35.7708 33.6676 35.777 33.6676 35.7832 33.6676C35.7895 33.6676 35.7957 33.6676 35.8019 33.6676C35.8081 33.6676 35.8143 33.6676 35.8205 33.6676C35.8267 33.6676 35.8329 33.6676 35.8392 33.6676C35.8454 33.6676 35.8516 33.6676 35.8578 33.6676C35.864 33.6676 35.8702 33.6676 35.8764 33.6676C35.8826 33.6676 35.8889 33.6676 35.8951 33.6676C35.9013 33.6676 35.9075 33.6676 35.9137 33.6676C35.9199 33.6676 35.9261 33.6676 35.9323 33.6676C35.9386 33.6676 35.9448 33.6676 35.951 33.6676C35.9572 33.6676 35.9634 33.6676 35.9696 33.6676C35.9758 33.6676 35.982 33.6676 35.9883 33.6676C35.9945 33.6676 36.0007 33.6676 36.0069 33.6676C36.0131 33.6676 36.0193 33.6676 36.0255 33.6676C36.0317 33.6676 36.038 33.6676 36.0442 33.6676C36.0504 33.6676 36.0566 33.6676 36.0628 33.6676C36.069 33.6676 36.0752 33.6676 36.0814 33.6676C36.0876 33.6676 36.0939 33.6676 36.1001 33.6676C36.1063 33.6676 36.1125 33.6676 36.1187 33.6676C36.1249 33.6676 36.1311 33.6676 36.1373 33.6676C36.1435 33.6676 36.1498 33.6676 36.156 33.6676C36.1622 33.6676 36.1684 33.6676 36.1746 33.6676C36.1808 33.6676 36.187 33.6676 36.1932 33.6676C36.1994 33.6676 36.2057 33.6676 36.2119 33.6676C36.2181 33.6676 36.2243 33.6676 36.2305 33.6676C36.2367 33.6676 36.2429 33.6676 36.2491 33.6676C36.2553 33.6676 36.2616 33.6676 36.2678 33.6676C36.274 33.6676 36.2802 33.6676 36.2864 33.6676C36.2926 33.6676 36.2988 33.6676 36.305 33.6676C36.3112 33.6676 36.3174 33.6676 36.3237 33.6676C36.3299 33.6676 36.3361 33.6676 36.3423 33.6676C36.3485 33.6676 36.3547 33.6676 36.3609 33.6676C36.3671 33.6676 36.3733 33.6676 36.3796 33.6676C36.3858 33.6676 36.392 33.6676 36.3982 33.6676C36.4044 33.6676 36.4106 33.6676 36.4168 33.6676C36.423 33.6676 36.4292 33.6676 36.4354 33.6676C36.4416 33.6676 36.4479 33.6676 36.4541 33.6676C36.4603 33.6676 36.4665 33.6676 36.4727 33.6676C36.4789 33.6676 36.4851 33.6676 36.4913 33.6676C36.4975 33.6676 36.5037 33.6676 36.51 33.6676C36.5162 33.6676 36.5224 33.6676 36.5286 33.6676C36.5348 33.6676 36.541 33.6676 36.5472 33.6676C36.5534 33.6676 36.5596 33.6676 36.5658 33.6676C36.572 33.6676 36.5783 33.6676 36.5845 33.6676C36.5907 33.6676 36.5969 33.6676 36.6031 33.6676C36.6093 33.6676 36.6155 33.6676 36.6217 33.6676C36.6279 33.6676 36.6341 33.6676 36.6403 33.6676C36.6466 33.6676 36.6528 33.6676 36.659 33.6676C36.6652 33.6676 36.6714 33.6676 36.6776 33.6676C36.6838 33.6676 36.69 33.6676 36.6962 33.6676C36.7024 33.6676 36.7086 33.6676 36.7148 33.6676C36.7211 33.6676 36.7273 33.6676 36.7335 33.6676C36.7397 33.6676 36.7459 33.6676 36.7521 33.6676C36.7583 33.6676 36.7645 33.6676 36.7707 33.6676C36.7769 33.6676 36.7831 33.6676 36.7893 33.6676C36.7956 33.6676 36.8018 33.6676 36.808 33.6676C36.8142 33.6676 36.8204 33.6676 36.8266 33.6676C36.8328 33.6676 36.839 33.6676 36.8452 33.6676C36.8514 33.6676 36.8576 33.6676 36.8638 33.6676C36.8701 33.6676 36.8763 33.6676 36.8825 33.6676C36.8887 33.6676 36.8949 33.6676 36.9011 33.6676C36.9073 33.6676 36.9135 33.6676 36.9197 33.6676C36.9259 33.6676 36.9321 33.6676 36.9383 33.6676C36.9445 33.6676 36.9507 33.6676 36.957 33.6676C36.9632 33.6676 36.9694 33.6676 36.9756 33.6676C36.9818 33.6676 36.988 33.6676 36.9942 33.6676C37.0004 33.6676 37.0066 33.6676 37.0128 33.6676C37.019 33.6676 37.0252 33.6676 37.0314 33.6676C37.0376 33.6676 37.0439 33.6676 37.0501 33.6676C37.0563 33.6676 37.0625 33.6676 37.0687 33.6676C37.0749 33.6676 37.0811 33.6676 37.0873 33.6676C37.0935 33.6676 37.0997 33.6676 37.1059 33.6676C37.1121 33.6676 37.1183 33.6676 37.1245 33.6676C37.1308 33.6676 37.137 33.6676 37.1432 33.6676C37.1494 33.6676 37.1556 33.6676 37.1618 33.6676C37.168 33.6676 37.1742 33.6676 37.1804 33.6676C37.1866 33.6676 37.1928 33.6676 37.199 33.6676C37.2052 33.6676 37.2114 33.6676 37.2176 33.6676C37.2238 33.6676 37.2301 33.6676 37.2363 33.6676C37.2425 33.6676 37.2487 33.6676 37.2549 33.6676C37.2611 33.6676 37.2673 33.6676 37.2735 33.6676C37.2797 33.6676 37.2859 33.6676 37.2921 33.6676C37.2983 33.6676 37.3045 33.6676 37.3107 33.6676C37.3169 33.6676 37.3231 33.6676 37.3293 33.6676C37.3356 33.6676 37.3418 33.6676 37.348 33.6676C37.3542 33.6676 37.3604 33.6676 37.3666 33.6676C37.3728 33.6676 37.379 33.6676 37.3852 33.6676C37.3914 33.6676 37.3976 33.6676 37.4038 33.6676C37.41 33.6676 37.4162 33.6676 37.4224 33.6676C37.4286 33.6676 37.4348 33.6676 37.441 33.6676C37.4473 33.6676 37.4535 33.6676 37.4597 33.6676C37.4659 33.6676 37.4721 33.6676 37.4783 33.6676C37.4845 33.6676 37.4907 33.6676 37.4969 33.6676C37.5031 33.6676 37.5093 33.6676 37.5155 33.6676C37.5217 33.6676 37.5279 33.6676 37.5341 33.6676C37.5403 33.6676 37.5465 33.6676 37.5527 33.6676C37.5589 33.6676 37.5651 33.6676 37.5714 33.6676C37.5776 33.6676 37.5838 33.6676 37.59 33.6676C37.5962 33.6676 37.6024 33.6676 37.6086 33.6676C37.6148 33.6676 37.621 33.6676 37.6272 33.6676C37.6334 33.6676 37.6396 33.6676 37.6458 33.6676C37.652 33.6676 37.6582 33.6676 37.6644 33.6676C37.6706 33.6676 37.6768 33.6676 37.683 33.6676C37.6892 33.6676 37.6954 33.6676 37.7016 33.6676C37.7079 33.6676 37.7141 33.6676 37.7203 33.6676C37.7265 33.6676 37.7327 33.6676 37.7389 33.6676C37.7451 33.6676 37.7513 33.6676 37.7575 33.6676C37.7637 33.6676 37.7699 33.6676 37.7761 33.6676C37.7823 33.6676 37.7885 33.6676 37.7947 33.6676C37.8009 33.6676 37.8071 33.6676 37.8133 33.6676C37.8195 33.6676 37.8257 33.6676 37.8319 33.6676C37.8381 33.6676 37.8443 33.6676 37.8505 33.6676C37.8567 33.6676 37.8629 33.6676 37.8692 33.6676C37.8754 33.6676 37.8816 33.6676 37.8878 33.6676C37.894 33.6676 37.9002 33.6676 37.9064 33.6676C37.9126 33.6676 37.9188 33.6676 37.925 33.6676C37.9312 33.6676 37.9374 33.6676 37.9436 33.6676C37.9498 33.6676 37.956 33.6676 37.9622 33.6676C37.9684 33.6676 37.9746 33.6676 37.9808 33.6676C37.987 33.6676 37.9932 33.6676 37.9994 33.6676C38.0056 33.6676 38.0118 33.6676 38.018 33.6676C38.0242 33.6676 38.0304 33.6676 38.0366 33.6676C38.0428 33.6676 38.049 33.6676 38.0553 33.6676C38.0615 33.6676 38.0677 33.6676 38.0739 33.6676C38.0801 33.6676 38.0863 33.6676 38.0925 33.6676C38.0987 33.6676 38.1049 33.6676 38.1111 33.6676C38.1173 33.6676 38.1235 33.6676 38.1297 33.6676C38.1359 33.6676 38.1421 33.6676 38.1483 33.6676C38.1545 33.6676 38.1607 33.6676 38.1669 33.6676C38.1731 33.6676 38.1793 33.6676 38.1855 33.6676C38.1917 33.6676 38.1979 33.6676 38.2041 33.6676C38.2103 33.6676 38.2165 33.6676 38.2227 33.6676C38.2289 33.6676 38.2351 33.6676 38.2413 33.6676C38.2475 33.6676 38.2537 33.6676 38.2599 33.6676C38.2661 33.6676 38.2723 33.6676 38.2785 33.6676C38.2847 33.6676 38.2909 33.6676 38.2971 33.6676C38.3033 33.6676 38.3096 33.6676 38.3158 33.6676C38.322 33.6676 38.3282 33.6676 38.3344 33.6676C38.3406 33.6676 38.3468 33.6676 38.353 33.6676C38.3592 33.6676 38.3654 33.6676 38.3716 33.6676C38.3778 33.6676 38.384 33.6676 38.3902 33.6676C38.3964 33.6676 38.4026 33.6676 38.4088 33.6676C38.415 33.6676 38.4212 33.6676 38.4274 33.6676C38.4336 33.6676 38.4398 33.6676 38.446 33.6676C38.4522 33.6676 38.4584 33.6676 38.4646 33.6676C38.4708 33.6676 38.477 33.6676 38.4832 33.6676C38.4894 33.6676 38.4956 33.6676 38.5018 33.6676C38.508 33.6676 38.5142 33.6676 38.5204 33.6676C38.5266 33.6676 38.5328 33.6676 38.539 33.6676C38.5452 33.6676 38.5514 33.6676 38.5576 33.6676C38.5638 33.6676 38.57 33.6676 38.5762 33.6676C38.5824 33.6676 38.5886 33.6676 38.5948 33.6676C38.601 33.6676 38.6072 33.6676 38.6134 33.6676C38.6196 33.6676 38.6258 33.6676 38.632 33.6676C38.6382 33.6676 38.6444 33.6676 38.6506 33.6676C38.6568 33.6676 38.663 33.6676 38.6692 33.6676C38.6754 33.6676 38.6816 33.6676 38.6878 33.6676C38.694 33.6676 38.7002 33.6676 38.7064 33.6676C38.7126 33.6676 38.7188 33.6676 38.725 33.6676C38.7312 33.6676 38.7374 33.6676 38.7436 33.6676C38.7498 33.6676 38.756 33.6676 38.7622 33.6676C38.7684 33.6676 38.7746 33.6676 38.7808 33.6676C38.787 33.6676 38.7932 33.6676 38.7994 33.6676C38.8056 33.6676 38.8118 33.6676 38.818 33.6676C38.8242 33.6676 38.8304 33.6676 38.8366 33.6676C38.8428 33.6676 38.849 33.6676 38.8552 33.6676C38.8614 33.6676 38.8676 33.6676 38.8738 33.6676C38.88 33.6676 38.8862 33.6676 38.8924 33.6676C38.8986 33.6676 38.9048 33.6676 38.911 33.6676C38.9172 33.6676 38.9234 33.6676 38.9296 33.6676C38.9358 33.6676 38.942 33.6676 38.9482 33.6676C38.9544 33.6676 38.9606 33.6676 38.9668 33.6676C38.973 33.6676 38.9792 33.6676 38.9854 33.6676C38.9916 33.6676 38.9978 33.6676 39.004 33.6676C39.0102 33.6676 39.0164 33.6676 39.0226 33.6676C39.0288 33.6676 39.035 33.6676 39.0412 33.6676C39.0474 33.6676 39.0536 33.6676 39.0598 33.6676C39.066 33.6676 39.0722 33.6676 39.0784 33.6676C39.0846 33.6676 39.0908 33.6676 39.097 33.6676C39.1032 33.6676 39.1094 33.6676 39.1156 33.6676C39.1218 33.6676 39.128 33.6676 39.1342 33.6676C39.1404 33.6676 39.1466 33.6676 39.1528 33.6676C39.159 33.6676 39.1652 33.6676 39.1714 33.6676C39.1776 33.6676 39.1838 33.6676 39.19 33.6676C39.1962 33.6676 39.2024 33.6676 39.2086 33.6676C39.2148 33.6676 39.221 33.6676 39.2272 33.6676C39.2334 33.6676 39.2396 33.6676 39.2458 33.6676C39.252 33.6676 39.2582 33.6676 39.2644 33.6676C39.2706 33.6676 39.2768 33.6676 39.283 33.6676C39.2892 33.6676 39.2954 33.6676 39.3016 33.6676C39.3078 33.6676 39.314 33.6676 39.3202 33.6676C39.3264 33.6676 39.3326 33.6676 39.3388 33.6676C39.345 33.6676 39.3512 33.6676 39.3574 33.6676C39.3636 33.6676 39.3698 33.6676 39.376 33.6676C39.3822 33.6676 39.3884 33.6676 39.3946 33.6676C39.4008 33.6676 39.407 33.6676 39.4132 33.6676C39.4194 33.6676 39.4256 33.6676 39.4318 33.6676C39.438 33.6676 39.4442 33.6676 39.4504 33.6676C39.4566 33.6676 39.4628 33.6676 39.469 33.6676C39.4752 33.6676 39.4814 33.6676 39.4876 33.6676C39.4938 33.6676 39.5 33.6676 39.5062 33.6676C39.5124 33.6676 39.5186 33.6676 39.5248 33.6676C39.531 33.6676 39.5372 33.6676 39.5434 33.6676C39.5496 33.6676 39.5558 33.6676 39.562 33.6676C39.5682 33.6676 39.5744 33.6676 39.5806 33.6676C39.5868 33.6676 39.593 33.6676 39.5992 33.6676C39.6053 33.6676 39.6115 33.6676 39.6177 33.6676C39.6239 33.6676 39.6301 33.6676 39.6363 33.6676C39.6425 33.6676 39.6487 33.6676 39.6549 33.6676C39.6611 33.6676 39.6673 33.6676 39.6735 33.6676C39.6797 33.6676 39.6859 33.6676 39.6921 33.6676C39.6983 33.6676 39.7045 33.6676 39.7107 33.6676C39.7169 33.6676 39.7231 33.6676 39.7293 33.6676C39.7355 33.6676 39.7417 33.6676 39.7479 33.6676C39.7541 33.6676 39.7603 33.6676 39.7665 33.6676C39.7727 33.6676 39.7789 33.6676 39.7851 33.6676C39.7913 33.6676 39.7975 33.6676 39.8037 33.6676C39.8099 33.6676 39.8161 33.6676 39.8223 33.6676C39.8285 33.6676 39.8347 33.6676 39.8409 33.6676C39.8471 33.6676 39.8533 33.6676 39.8595 33.6676C39.8657 33.6676 39.8719 33.6676 39.8781 33.6676C39.8843 33.6676 39.8904 33.6676 39.8966 33.6676C39.9028 33.6676 39.909 33.6676 39.9152 33.6676C39.9214 33.6676 39.9276 33.6676 39.9338 33.6676C39.94 33.6676 39.9462 33.6676 39.9524 33.6676C39.9586 33.6676 39.9648 33.6676 39.971 33.6676C39.9772 33.6676 39.9834 33.6676 39.9896 33.6676C39.9958 33.6676 40.002 33.6676 40.0082 33.6676C40.0144 33.6676 40.0206 33.6676 40.0268 33.6676C40.033 33.6676 40.0392 33.6676 40.0454 33.6676C40.0516 33.6676 40.0578 33.6676 40.064 33.6676C40.0702 33.6676 40.0764 33.6676 40.0826 33.6676C40.0888 33.6676 40.095 33.6676 40.1012 33.6676C40.1074 33.6676 40.1136 33.6676 40.1197 33.6676C40.1259 33.6676 40.1321 33.6676 40.1383 33.6676C40.1445 33.6676 40.1507 33.6676 40.1569 33.6676C40.1631 33.6676 40.1693 33.6676 40.1755 33.6676C40.1817 33.6676 40.1879 33.6676 40.1941 33.6676C40.2003 33.6676 40.2065 33.6676 40.2127 33.6676C40.2189 33.6676 40.2251 33.6676 40.2313 33.6676C40.2375 33.6676 40.2437 33.6676 40.2499 33.6676C40.2561 33.6676 40.2623 33.6676 40.2685 33.6676C40.2747 33.6676 40.2809 33.6676 40.2871 33.6676C40.2933 33.6676 40.2995 33.6676 40.3057 33.6676C40.3118 33.6676 40.318 33.6676 40.3242 33.6676C40.3304 33.6676 40.3366 33.6676 40.3428 33.6676C40.349 33.6676 40.3552 33.6676 40.3614 33.6676C40.3676 33.6676 40.3738 33.6676 40.38 33.6676C40.3862 33.6676 40.3924 33.6676 40.3986 33.6676C40.4048 33.6676 40.411 33.6676 40.4172 33.6676C40.4234 33.6676 40.4296 33.6676 40.4358 33.6676C40.442 33.6676 40.4482 33.6676 40.4544 33.6676C40.4606 33.6676 40.4668 33.6676 40.473 33.6676C40.4792 33.6676 40.4853 33.6676 40.4915 33.6676C40.4977 33.6676 40.5039 33.6676 40.5101 33.6676C40.5163 33.6676 40.5225 33.6676 40.5287 33.6676C40.5349 33.6676 40.5411 33.6676 40.5473 33.6676C40.5535 33.6676 40.5597 33.6676 40.5659 33.6676C40.5721 33.6676 40.5783 33.6676 40.5845 33.6676C40.5907 33.6676 40.5969 33.6676 40.6031 33.6676C40.6093 33.6676 40.6155 33.6676 40.6217 33.6676C40.6279 33.6676 40.6341 33.6676 40.6403 33.6676C40.6464 33.6676 40.6526 33.6676 40.6588 33.6676C40.665 33.6676 40.6712 33.6676 40.6774 33.6676C40.6836 33.6676 40.6898 33.6676 40.696 33.6676C40.7022 33.6676 40.7084 33.6676 40.7146 33.6676C40.7208 33.6676 40.727 33.6676 40.7332 33.6676C40.7394 33.6676 40.7456 33.6676 40.7518 33.6676C40.758 33.6676 40.7642 33.6676 40.7704 33.6676C40.7766 33.6676 40.7828 33.6676 40.789 33.6676C40.7952 33.6676 40.8013 33.6676 40.8075 33.6676C40.8137 33.6676 40.8199 33.6676 40.8261 33.6676C40.8323 33.6676 40.8385 33.6676 40.8447 33.6676C40.8509 33.6676 40.8571 33.6676 40.8633 33.6676C40.8695 33.6676 40.8757 33.6676 40.8819 33.6676C40.8881 33.6676 40.8943 33.6676 40.9005 33.6676C40.9067 33.6676 40.9129 33.6676 40.9191 33.6676C40.9253 33.6676 40.9315 33.6676 40.9377 33.6676C40.9438 33.6676 40.95 33.6676 40.9562 33.6676C40.9624 33.6676 40.9686 33.6676 40.9748 33.6676C40.981 33.6676 40.9872 33.6676 40.9934 33.6676C40.9996 33.6676 41.0058 33.6676 41.012 33.6676C41.0182 33.6676 41.0244 33.6676 41.0306 33.6676C41.0368 33.6676 41.043 33.6676 41.0492 33.6676C41.0554 33.6676 41.0616 33.6676 41.0678 33.6676C41.074 33.6676 41.0801 33.6676 41.0863 33.6676C41.0925 33.6676 41.0987 33.6676 41.1049 33.6676C41.1111 33.6676 41.1173 33.6676 41.1235 33.6676C41.1297 33.6676 41.1359 33.6676 41.1421 33.6676C41.1483 33.6676 41.1545 33.6676 41.1607 33.6676C41.1669 33.6676 41.1731 33.6676 41.1793 33.6676C41.1855 33.6676 41.1917 33.6676 41.1979 33.6676C41.2041 33.6676 41.2102 33.6676 41.2164 33.6676C41.2226 33.6676 41.2288 33.6676 41.235 33.6676C41.2412 33.6676 41.2474 33.6676 41.2536 33.6676C41.2598 33.6676 41.266 33.6676 41.2722 33.6676C41.2784 33.6676 41.2846 33.6676 41.2908 33.6676C41.297 33.6676 41.3032 33.6676 41.3094 33.6676C41.3156 33.6676 41.3218 33.6676 41.328 33.6676C41.3341 33.6676 41.3403 33.6676 41.3465 33.6676C41.3527 33.6676 41.3589 33.6676 41.3651 33.6676C41.3713 33.6676 41.3775 33.6676 41.3837 33.6676C41.3899 33.6676 41.3961 33.6676 41.4023 33.6676C41.4085 33.6676 41.4147 33.6676 41.4209 33.6676C41.4271 33.6676 41.4333 33.6676 41.4395 33.6676C41.4457 33.6676 41.4519 33.6676 41.458 33.6676C41.4642 33.6676 41.4704 33.6676 41.4766 33.6676C41.4828 33.6676 41.489 33.6676 41.4952 33.6676C41.5014 33.6676 41.5076 33.6676 41.5138 33.6676C41.52 33.6676 41.5262 33.6676 41.5324 33.6676C41.5386 33.6676 41.5448 33.6676 41.551 33.6676C41.5572 33.6676 41.5634 33.6676 41.5696 33.6676C41.5757 33.6676 41.5819 33.6676 41.5881 33.6676C41.5943 33.6676 41.6005 33.6676 41.6067 33.6676C41.6129 33.6676 41.6191 33.6676 41.6253 33.6676C41.6315 33.6676 41.6377 33.6676 41.6439 33.6676C41.6501 33.6676 41.6563 33.6676 41.6625 33.6676C41.6687 33.6676 41.6749 33.6676 41.6811 33.6676C41.6873 33.6676 41.6934 33.6676 41.6996 33.6676C41.7058 33.6676 41.712 33.6676 41.7182 33.6676V32.8676C41.712 32.8676 41.7058 32.8676 41.6996 32.8676C41.6934 32.8676 41.6873 32.8676 41.6811 32.8676C41.6749 32.8676 41.6687 32.8676 41.6625 32.8676C41.6563 32.8676 41.6501 32.8676 41.6439 32.8676C41.6377 32.8676 41.6315 32.8676 41.6253 32.8676C41.6191 32.8676 41.6129 32.8676 41.6067 32.8676C41.6005 32.8676 41.5943 32.8676 41.5881 32.8676C41.5819 32.8676 41.5757 32.8676 41.5696 32.8676C41.5634 32.8676 41.5572 32.8676 41.551 32.8676C41.5448 32.8676 41.5386 32.8676 41.5324 32.8676C41.5262 32.8676 41.52 32.8676 41.5138 32.8676C41.5076 32.8676 41.5014 32.8676 41.4952 32.8676C41.489 32.8676 41.4828 32.8676 41.4766 32.8676C41.4704 32.8676 41.4642 32.8676 41.458 32.8676C41.4519 32.8676 41.4457 32.8676 41.4395 32.8676C41.4333 32.8676 41.4271 32.8676 41.4209 32.8676C41.4147 32.8676 41.4085 32.8676 41.4023 32.8676C41.3961 32.8676 41.3899 32.8676 41.3837 32.8676C41.3775 32.8676 41.3713 32.8676 41.3651 32.8676C41.3589 32.8676 41.3527 32.8676 41.3465 32.8676C41.3403 32.8676 41.3341 32.8676 41.328 32.8676C41.3218 32.8676 41.3156 32.8676 41.3094 32.8676C41.3032 32.8676 41.297 32.8676 41.2908 32.8676C41.2846 32.8676 41.2784 32.8676 41.2722 32.8676C41.266 32.8676 41.2598 32.8676 41.2536 32.8676C41.2474 32.8676 41.2412 32.8676 41.235 32.8676C41.2288 32.8676 41.2226 32.8676 41.2164 32.8676C41.2102 32.8676 41.2041 32.8676 41.1979 32.8676C41.1917 32.8676 41.1855 32.8676 41.1793 32.8676C41.1731 32.8676 41.1669 32.8676 41.1607 32.8676C41.1545 32.8676 41.1483 32.8676 41.1421 32.8676C41.1359 32.8676 41.1297 32.8676 41.1235 32.8676C41.1173 32.8676 41.1111 32.8676 41.1049 32.8676C41.0987 32.8676 41.0925 32.8676 41.0863 32.8676C41.0801 32.8676 41.074 32.8676 41.0678 32.8676C41.0616 32.8676 41.0554 32.8676 41.0492 32.8676C41.043 32.8676 41.0368 32.8676 41.0306 32.8676C41.0244 32.8676 41.0182 32.8676 41.012 32.8676C41.0058 32.8676 40.9996 32.8676 40.9934 32.8676C40.9872 32.8676 40.981 32.8676 40.9748 32.8676C40.9686 32.8676 40.9624 32.8676 40.9562 32.8676C40.95 32.8676 40.9438 32.8676 40.9377 32.8676C40.9315 32.8676 40.9253 32.8676 40.9191 32.8676C40.9129 32.8676 40.9067 32.8676 40.9005 32.8676C40.8943 32.8676 40.8881 32.8676 40.8819 32.8676C40.8757 32.8676 40.8695 32.8676 40.8633 32.8676C40.8571 32.8676 40.8509 32.8676 40.8447 32.8676C40.8385 32.8676 40.8323 32.8676 40.8261 32.8676C40.8199 32.8676 40.8137 32.8676 40.8075 32.8676C40.8013 32.8676 40.7952 32.8676 40.789 32.8676C40.7828 32.8676 40.7766 32.8676 40.7704 32.8676C40.7642 32.8676 40.758 32.8676 40.7518 32.8676C40.7456 32.8676 40.7394 32.8676 40.7332 32.8676C40.727 32.8676 40.7208 32.8676 40.7146 32.8676C40.7084 32.8676 40.7022 32.8676 40.696 32.8676C40.6898 32.8676 40.6836 32.8676 40.6774 32.8676C40.6712 32.8676 40.665 32.8676 40.6588 32.8676C40.6526 32.8676 40.6464 32.8676 40.6403 32.8676C40.6341 32.8676 40.6279 32.8676 40.6217 32.8676C40.6155 32.8676 40.6093 32.8676 40.6031 32.8676C40.5969 32.8676 40.5907 32.8676 40.5845 32.8676C40.5783 32.8676 40.5721 32.8676 40.5659 32.8676C40.5597 32.8676 40.5535 32.8676 40.5473 32.8676C40.5411 32.8676 40.5349 32.8676 40.5287 32.8676C40.5225 32.8676 40.5163 32.8676 40.5101 32.8676C40.5039 32.8676 40.4977 32.8676 40.4915 32.8676C40.4853 32.8676 40.4792 32.8676 40.473 32.8676C40.4668 32.8676 40.4606 32.8676 40.4544 32.8676C40.4482 32.8676 40.442 32.8676 40.4358 32.8676C40.4296 32.8676 40.4234 32.8676 40.4172 32.8676C40.411 32.8676 40.4048 32.8676 40.3986 32.8676C40.3924 32.8676 40.3862 32.8676 40.38 32.8676C40.3738 32.8676 40.3676 32.8676 40.3614 32.8676C40.3552 32.8676 40.349 32.8676 40.3428 32.8676C40.3366 32.8676 40.3304 32.8676 40.3242 32.8676C40.318 32.8676 40.3118 32.8676 40.3057 32.8676C40.2995 32.8676 40.2933 32.8676 40.2871 32.8676C40.2809 32.8676 40.2747 32.8676 40.2685 32.8676C40.2623 32.8676 40.2561 32.8676 40.2499 32.8676C40.2437 32.8676 40.2375 32.8676 40.2313 32.8676C40.2251 32.8676 40.2189 32.8676 40.2127 32.8676C40.2065 32.8676 40.2003 32.8676 40.1941 32.8676C40.1879 32.8676 40.1817 32.8676 40.1755 32.8676C40.1693 32.8676 40.1631 32.8676 40.1569 32.8676C40.1507 32.8676 40.1445 32.8676 40.1383 32.8676C40.1321 32.8676 40.1259 32.8676 40.1197 32.8676C40.1136 32.8676 40.1074 32.8676 40.1012 32.8676C40.095 32.8676 40.0888 32.8676 40.0826 32.8676C40.0764 32.8676 40.0702 32.8676 40.064 32.8676C40.0578 32.8676 40.0516 32.8676 40.0454 32.8676C40.0392 32.8676 40.033 32.8676 40.0268 32.8676C40.0206 32.8676 40.0144 32.8676 40.0082 32.8676C40.002 32.8676 39.9958 32.8676 39.9896 32.8676C39.9834 32.8676 39.9772 32.8676 39.971 32.8676C39.9648 32.8676 39.9586 32.8676 39.9524 32.8676C39.9462 32.8676 39.94 32.8676 39.9338 32.8676C39.9276 32.8676 39.9214 32.8676 39.9152 32.8676C39.909 32.8676 39.9028 32.8676 39.8966 32.8676C39.8904 32.8676 39.8843 32.8676 39.8781 32.8676C39.8719 32.8676 39.8657 32.8676 39.8595 32.8676C39.8533 32.8676 39.8471 32.8676 39.8409 32.8676C39.8347 32.8676 39.8285 32.8676 39.8223 32.8676C39.8161 32.8676 39.8099 32.8676 39.8037 32.8676C39.7975 32.8676 39.7913 32.8676 39.7851 32.8676C39.7789 32.8676 39.7727 32.8676 39.7665 32.8676C39.7603 32.8676 39.7541 32.8676 39.7479 32.8676C39.7417 32.8676 39.7355 32.8676 39.7293 32.8676C39.7231 32.8676 39.7169 32.8676 39.7107 32.8676C39.7045 32.8676 39.6983 32.8676 39.6921 32.8676C39.6859 32.8676 39.6797 32.8676 39.6735 32.8676C39.6673 32.8676 39.6611 32.8676 39.6549 32.8676C39.6487 32.8676 39.6425 32.8676 39.6363 32.8676C39.6301 32.8676 39.6239 32.8676 39.6177 32.8676C39.6115 32.8676 39.6053 32.8676 39.5992 32.8676C39.593 32.8676 39.5868 32.8676 39.5806 32.8676C39.5744 32.8676 39.5682 32.8676 39.562 32.8676C39.5558 32.8676 39.5496 32.8676 39.5434 32.8676C39.5372 32.8676 39.531 32.8676 39.5248 32.8676C39.5186 32.8676 39.5124 32.8676 39.5062 32.8676C39.5 32.8676 39.4938 32.8676 39.4876 32.8676C39.4814 32.8676 39.4752 32.8676 39.469 32.8676C39.4628 32.8676 39.4566 32.8676 39.4504 32.8676C39.4442 32.8676 39.438 32.8676 39.4318 32.8676C39.4256 32.8676 39.4194 32.8676 39.4132 32.8676C39.407 32.8676 39.4008 32.8676 39.3946 32.8676C39.3884 32.8676 39.3822 32.8676 39.376 32.8676C39.3698 32.8676 39.3636 32.8676 39.3574 32.8676C39.3512 32.8676 39.345 32.8676 39.3388 32.8676C39.3326 32.8676 39.3264 32.8676 39.3202 32.8676C39.314 32.8676 39.3078 32.8676 39.3016 32.8676C39.2954 32.8676 39.2892 32.8676 39.283 32.8676C39.2768 32.8676 39.2706 32.8676 39.2644 32.8676C39.2582 32.8676 39.252 32.8676 39.2458 32.8676C39.2396 32.8676 39.2334 32.8676 39.2272 32.8676C39.221 32.8676 39.2148 32.8676 39.2086 32.8676C39.2024 32.8676 39.1962 32.8676 39.19 32.8676C39.1838 32.8676 39.1776 32.8676 39.1714 32.8676C39.1652 32.8676 39.159 32.8676 39.1528 32.8676C39.1466 32.8676 39.1404 32.8676 39.1342 32.8676C39.128 32.8676 39.1218 32.8676 39.1156 32.8676C39.1094 32.8676 39.1032 32.8676 39.097 32.8676C39.0908 32.8676 39.0846 32.8676 39.0784 32.8676C39.0722 32.8676 39.066 32.8676 39.0598 32.8676C39.0536 32.8676 39.0474 32.8676 39.0412 32.8676C39.035 32.8676 39.0288 32.8676 39.0226 32.8676C39.0164 32.8676 39.0102 32.8676 39.004 32.8676C38.9978 32.8676 38.9916 32.8676 38.9854 32.8676C38.9792 32.8676 38.973 32.8676 38.9668 32.8676C38.9606 32.8676 38.9544 32.8676 38.9482 32.8676C38.942 32.8676 38.9358 32.8676 38.9296 32.8676C38.9234 32.8676 38.9172 32.8676 38.911 32.8676C38.9048 32.8676 38.8986 32.8676 38.8924 32.8676C38.8862 32.8676 38.88 32.8676 38.8738 32.8676C38.8676 32.8676 38.8614 32.8676 38.8552 32.8676C38.849 32.8676 38.8428 32.8676 38.8366 32.8676C38.8304 32.8676 38.8242 32.8676 38.818 32.8676C38.8118 32.8676 38.8056 32.8676 38.7994 32.8676C38.7932 32.8676 38.787 32.8676 38.7808 32.8676C38.7746 32.8676 38.7684 32.8676 38.7622 32.8676C38.756 32.8676 38.7498 32.8676 38.7436 32.8676C38.7374 32.8676 38.7312 32.8676 38.725 32.8676C38.7188 32.8676 38.7126 32.8676 38.7064 32.8676C38.7002 32.8676 38.694 32.8676 38.6878 32.8676C38.6816 32.8676 38.6754 32.8676 38.6692 32.8676C38.663 32.8676 38.6568 32.8676 38.6506 32.8676C38.6444 32.8676 38.6382 32.8676 38.632 32.8676C38.6258 32.8676 38.6196 32.8676 38.6134 32.8676C38.6072 32.8676 38.601 32.8676 38.5948 32.8676C38.5886 32.8676 38.5824 32.8676 38.5762 32.8676C38.57 32.8676 38.5638 32.8676 38.5576 32.8676C38.5514 32.8676 38.5452 32.8676 38.539 32.8676C38.5328 32.8676 38.5266 32.8676 38.5204 32.8676C38.5142 32.8676 38.508 32.8676 38.5018 32.8676C38.4956 32.8676 38.4894 32.8676 38.4832 32.8676C38.477 32.8676 38.4708 32.8676 38.4646 32.8676C38.4584 32.8676 38.4522 32.8676 38.446 32.8676C38.4398 32.8676 38.4336 32.8676 38.4274 32.8676C38.4212 32.8676 38.415 32.8676 38.4088 32.8676C38.4026 32.8676 38.3964 32.8676 38.3902 32.8676C38.384 32.8676 38.3778 32.8676 38.3716 32.8676C38.3654 32.8676 38.3592 32.8676 38.353 32.8676C38.3468 32.8676 38.3406 32.8676 38.3344 32.8676C38.3282 32.8676 38.322 32.8676 38.3158 32.8676C38.3096 32.8676 38.3033 32.8676 38.2971 32.8676C38.2909 32.8676 38.2847 32.8676 38.2785 32.8676C38.2723 32.8676 38.2661 32.8676 38.2599 32.8676C38.2537 32.8676 38.2475 32.8676 38.2413 32.8676C38.2351 32.8676 38.2289 32.8676 38.2227 32.8676C38.2165 32.8676 38.2103 32.8676 38.2041 32.8676C38.1979 32.8676 38.1917 32.8676 38.1855 32.8676C38.1793 32.8676 38.1731 32.8676 38.1669 32.8676C38.1607 32.8676 38.1545 32.8676 38.1483 32.8676C38.1421 32.8676 38.1359 32.8676 38.1297 32.8676C38.1235 32.8676 38.1173 32.8676 38.1111 32.8676C38.1049 32.8676 38.0987 32.8676 38.0925 32.8676C38.0863 32.8676 38.0801 32.8676 38.0739 32.8676C38.0677 32.8676 38.0615 32.8676 38.0553 32.8676C38.049 32.8676 38.0428 32.8676 38.0366 32.8676C38.0304 32.8676 38.0242 32.8676 38.018 32.8676C38.0118 32.8676 38.0056 32.8676 37.9994 32.8676C37.9932 32.8676 37.987 32.8676 37.9808 32.8676C37.9746 32.8676 37.9684 32.8676 37.9622 32.8676C37.956 32.8676 37.9498 32.8676 37.9436 32.8676C37.9374 32.8676 37.9312 32.8676 37.925 32.8676C37.9188 32.8676 37.9126 32.8676 37.9064 32.8676C37.9002 32.8676 37.894 32.8676 37.8878 32.8676C37.8816 32.8676 37.8754 32.8676 37.8692 32.8676C37.8629 32.8676 37.8567 32.8676 37.8505 32.8676C37.8443 32.8676 37.8381 32.8676 37.8319 32.8676C37.8257 32.8676 37.8195 32.8676 37.8133 32.8676C37.8071 32.8676 37.8009 32.8676 37.7947 32.8676C37.7885 32.8676 37.7823 32.8676 37.7761 32.8676C37.7699 32.8676 37.7637 32.8676 37.7575 32.8676C37.7513 32.8676 37.7451 32.8676 37.7389 32.8676C37.7327 32.8676 37.7265 32.8676 37.7203 32.8676C37.7141 32.8676 37.7079 32.8676 37.7016 32.8676C37.6954 32.8676 37.6892 32.8676 37.683 32.8676C37.6768 32.8676 37.6706 32.8676 37.6644 32.8676C37.6582 32.8676 37.652 32.8676 37.6458 32.8676C37.6396 32.8676 37.6334 32.8676 37.6272 32.8676C37.621 32.8676 37.6148 32.8676 37.6086 32.8676C37.6024 32.8676 37.5962 32.8676 37.59 32.8676C37.5838 32.8676 37.5776 32.8676 37.5714 32.8676C37.5651 32.8676 37.5589 32.8676 37.5527 32.8676C37.5465 32.8676 37.5403 32.8676 37.5341 32.8676C37.5279 32.8676 37.5217 32.8676 37.5155 32.8676C37.5093 32.8676 37.5031 32.8676 37.4969 32.8676C37.4907 32.8676 37.4845 32.8676 37.4783 32.8676C37.4721 32.8676 37.4659 32.8676 37.4597 32.8676C37.4535 32.8676 37.4473 32.8676 37.441 32.8676C37.4348 32.8676 37.4286 32.8676 37.4224 32.8676C37.4162 32.8676 37.41 32.8676 37.4038 32.8676C37.3976 32.8676 37.3914 32.8676 37.3852 32.8676C37.379 32.8676 37.3728 32.8676 37.3666 32.8676C37.3604 32.8676 37.3542 32.8676 37.348 32.8676C37.3418 32.8676 37.3356 32.8676 37.3293 32.8676C37.3231 32.8676 37.3169 32.8676 37.3107 32.8676C37.3045 32.8676 37.2983 32.8676 37.2921 32.8676C37.2859 32.8676 37.2797 32.8676 37.2735 32.8676C37.2673 32.8676 37.2611 32.8676 37.2549 32.8676C37.2487 32.8676 37.2425 32.8676 37.2363 32.8676C37.2301 32.8676 37.2238 32.8676 37.2176 32.8676C37.2114 32.8676 37.2052 32.8676 37.199 32.8676C37.1928 32.8676 37.1866 32.8676 37.1804 32.8676C37.1742 32.8676 37.168 32.8676 37.1618 32.8676C37.1556 32.8676 37.1494 32.8676 37.1432 32.8676C37.137 32.8676 37.1308 32.8676 37.1245 32.8676C37.1183 32.8676 37.1121 32.8676 37.1059 32.8676C37.0997 32.8676 37.0935 32.8676 37.0873 32.8676C37.0811 32.8676 37.0749 32.8676 37.0687 32.8676C37.0625 32.8676 37.0563 32.8676 37.0501 32.8676C37.0439 32.8676 37.0376 32.8676 37.0314 32.8676C37.0252 32.8676 37.019 32.8676 37.0128 32.8676C37.0066 32.8676 37.0004 32.8676 36.9942 32.8676C36.988 32.8676 36.9818 32.8676 36.9756 32.8676C36.9694 32.8676 36.9632 32.8676 36.957 32.8676C36.9507 32.8676 36.9445 32.8676 36.9383 32.8676C36.9321 32.8676 36.9259 32.8676 36.9197 32.8676C36.9135 32.8676 36.9073 32.8676 36.9011 32.8676C36.8949 32.8676 36.8887 32.8676 36.8825 32.8676C36.8763 32.8676 36.8701 32.8676 36.8638 32.8676C36.8576 32.8676 36.8514 32.8676 36.8452 32.8676C36.839 32.8676 36.8328 32.8676 36.8266 32.8676C36.8204 32.8676 36.8142 32.8676 36.808 32.8676C36.8018 32.8676 36.7956 32.8676 36.7893 32.8676C36.7831 32.8676 36.7769 32.8676 36.7707 32.8676C36.7645 32.8676 36.7583 32.8676 36.7521 32.8676C36.7459 32.8676 36.7397 32.8676 36.7335 32.8676C36.7273 32.8676 36.7211 32.8676 36.7148 32.8676C36.7086 32.8676 36.7024 32.8676 36.6962 32.8676C36.69 32.8676 36.6838 32.8676 36.6776 32.8676C36.6714 32.8676 36.6652 32.8676 36.659 32.8676C36.6528 32.8676 36.6466 32.8676 36.6403 32.8676C36.6341 32.8676 36.6279 32.8676 36.6217 32.8676C36.6155 32.8676 36.6093 32.8676 36.6031 32.8676C36.5969 32.8676 36.5907 32.8676 36.5845 32.8676C36.5783 32.8676 36.572 32.8676 36.5658 32.8676C36.5596 32.8676 36.5534 32.8676 36.5472 32.8676C36.541 32.8676 36.5348 32.8676 36.5286 32.8676C36.5224 32.8676 36.5162 32.8676 36.51 32.8676C36.5037 32.8676 36.4975 32.8676 36.4913 32.8676C36.4851 32.8676 36.4789 32.8676 36.4727 32.8676C36.4665 32.8676 36.4603 32.8676 36.4541 32.8676C36.4479 32.8676 36.4416 32.8676 36.4354 32.8676C36.4292 32.8676 36.423 32.8676 36.4168 32.8676C36.4106 32.8676 36.4044 32.8676 36.3982 32.8676C36.392 32.8676 36.3858 32.8676 36.3796 32.8676C36.3733 32.8676 36.3671 32.8676 36.3609 32.8676C36.3547 32.8676 36.3485 32.8676 36.3423 32.8676C36.3361 32.8676 36.3299 32.8676 36.3237 32.8676C36.3174 32.8676 36.3112 32.8676 36.305 32.8676C36.2988 32.8676 36.2926 32.8676 36.2864 32.8676C36.2802 32.8676 36.274 32.8676 36.2678 32.8676C36.2616 32.8676 36.2553 32.8676 36.2491 32.8676C36.2429 32.8676 36.2367 32.8676 36.2305 32.8676C36.2243 32.8676 36.2181 32.8676 36.2119 32.8676C36.2057 32.8676 36.1994 32.8676 36.1932 32.8676C36.187 32.8676 36.1808 32.8676 36.1746 32.8676C36.1684 32.8676 36.1622 32.8676 36.156 32.8676C36.1498 32.8676 36.1435 32.8676 36.1373 32.8676C36.1311 32.8676 36.1249 32.8676 36.1187 32.8676C36.1125 32.8676 36.1063 32.8676 36.1001 32.8676C36.0939 32.8676 36.0876 32.8676 36.0814 32.8676C36.0752 32.8676 36.069 32.8676 36.0628 32.8676C36.0566 32.8676 36.0504 32.8676 36.0442 32.8676C36.038 32.8676 36.0317 32.8676 36.0255 32.8676C36.0193 32.8676 36.0131 32.8676 36.0069 32.8676C36.0007 32.8676 35.9945 32.8676 35.9883 32.8676C35.982 32.8676 35.9758 32.8676 35.9696 32.8676C35.9634 32.8676 35.9572 32.8676 35.951 32.8676C35.9448 32.8676 35.9386 32.8676 35.9323 32.8676C35.9261 32.8676 35.9199 32.8676 35.9137 32.8676C35.9075 32.8676 35.9013 32.8676 35.8951 32.8676C35.8889 32.8676 35.8826 32.8676 35.8764 32.8676C35.8702 32.8676 35.864 32.8676 35.8578 32.8676C35.8516 32.8676 35.8454 32.8676 35.8392 32.8676C35.8329 32.8676 35.8267 32.8676 35.8205 32.8676C35.8143 32.8676 35.8081 32.8676 35.8019 32.8676C35.7957 32.8676 35.7895 32.8676 35.7832 32.8676C35.777 32.8676 35.7708 32.8676 35.7646 32.8676C35.7584 32.8676 35.7522 32.8676 35.746 32.8676C35.7398 32.8676 35.7335 32.8676 35.7273 32.8676C35.7211 32.8676 35.7149 32.8676 35.7087 32.8676C35.7025 32.8676 35.6963 32.8676 35.69 32.8676C35.6838 32.8676 35.6776 32.8676 35.6714 32.8676C35.6652 32.8676 35.659 32.8676 35.6528 32.8676C35.6465 32.8676 35.6403 32.8676 35.6341 32.8676C35.6279 32.8676 35.6217 32.8676 35.6155 32.8676C35.6093 32.8676 35.6031 32.8676 35.5968 32.8676C35.5906 32.8676 35.5844 32.8676 35.5782 32.8676C35.572 32.8676 35.5658 32.8676 35.5596 32.8676C35.5533 32.8676 35.5471 32.8676 35.5409 32.8676C35.5347 32.8676 35.5285 32.8676 35.5223 32.8676C35.5161 32.8676 35.5098 32.8676 35.5036 32.8676C35.4974 32.8676 35.4912 32.8676 35.485 32.8676C35.4788 32.8676 35.4725 32.8676 35.4663 32.8676C35.4601 32.8676 35.4539 32.8676 35.4477 32.8676C35.4415 32.8676 35.4353 32.8676 35.429 32.8676C35.4228 32.8676 35.4166 32.8676 35.4104 32.8676C35.4042 32.8676 35.398 32.8676 35.3918 32.8676C35.3855 32.8676 35.3793 32.8676 35.3731 32.8676C35.3669 32.8676 35.3607 32.8676 35.3545 32.8676C35.3482 32.8676 35.342 32.8676 35.3358 32.8676C35.3296 32.8676 35.3234 32.8676 35.3172 32.8676C35.311 32.8676 35.3047 32.8676 35.2985 32.8676C35.2923 32.8676 35.2861 32.8676 35.2799 32.8676C35.2737 32.8676 35.2674 32.8676 35.2612 32.8676C35.255 32.8676 35.2488 32.8676 35.2426 32.8676C35.2364 32.8676 35.2301 32.8676 35.2239 32.8676C35.2177 32.8676 35.2115 32.8676 35.2053 32.8676C35.1991 32.8676 35.1929 32.8676 35.1866 32.8676C35.1804 32.8676 35.1742 32.8676 35.168 32.8676C35.1618 32.8676 35.1556 32.8676 35.1493 32.8676C35.1431 32.8676 35.1369 32.8676 35.1307 32.8676C35.1245 32.8676 35.1183 32.8676 35.112 32.8676C35.1058 32.8676 35.0996 32.8676 35.0934 32.8676C35.0872 32.8676 35.081 32.8676 35.0747 32.8676C35.0685 32.8676 35.0623 32.8676 35.0561 32.8676C35.0499 32.8676 35.0436 32.8676 35.0374 32.8676C35.0312 32.8676 35.025 32.8676 35.0188 32.8676C35.0126 32.8676 35.0063 32.8676 35.0001 32.8676C34.9939 32.8676 34.9877 32.8676 34.9815 32.8676C34.9753 32.8676 34.969 32.8676 34.9628 32.8676C34.9566 32.8676 34.9504 32.8676 34.9442 32.8676C34.938 32.8676 34.9317 32.8676 34.9255 32.8676C34.9193 32.8676 34.9131 32.8676 34.9069 32.8676C34.9006 32.8676 34.8944 32.8676 34.8882 32.8676C34.882 32.8676 34.8758 32.8676 34.8696 32.8676C34.8633 32.8676 34.8571 32.8676 34.8509 32.8676C34.8447 32.8676 34.8385 32.8676 34.8322 32.8676C34.826 32.8676 34.8198 32.8676 34.8136 32.8676C34.8074 32.8676 34.8011 32.8676 34.7949 32.8676C34.7887 32.8676 34.7825 32.8676 34.7763 32.8676C34.7701 32.8676 34.7638 32.8676 34.7576 32.8676C34.7514 32.8676 34.7452 32.8676 34.739 32.8676C34.7327 32.8676 34.7265 32.8676 34.7203 32.8676C34.7141 32.8676 34.7079 32.8676 34.7016 32.8676C34.6954 32.8676 34.6892 32.8676 34.683 32.8676C34.6768 32.8676 34.6705 32.8676 34.6643 32.8676C34.6581 32.8676 34.6519 32.8676 34.6457 32.8676C34.6395 32.8676 34.6332 32.8676 34.627 32.8676C34.6208 32.8676 34.6146 32.8676 34.6084 32.8676C34.6021 32.8676 34.5959 32.8676 34.5897 32.8676C34.5835 32.8676 34.5773 32.8676 34.571 32.8676C34.5648 32.8676 34.5586 32.8676 34.5524 32.8676C34.5462 32.8676 34.5399 32.8676 34.5337 32.8676C34.5275 32.8676 34.5213 32.8676 34.5151 32.8676C34.5088 32.8676 34.5026 32.8676 34.4964 32.8676C34.4902 32.8676 34.4839 32.8676 34.4777 32.8676C34.4715 32.8676 34.4653 32.8676 34.4591 32.8676C34.4528 32.8676 34.4466 32.8676 34.4404 32.8676C34.4342 32.8676 34.428 32.8676 34.4217 32.8676C34.4155 32.8676 34.4093 32.8676 34.4031 32.8676C34.3969 32.8676 34.3906 32.8676 34.3844 32.8676C34.3782 32.8676 34.372 32.8676 34.3658 32.8676C34.3595 32.8676 34.3533 32.8676 34.3471 32.8676C34.3409 32.8676 34.3346 32.8676 34.3284 32.8676C34.3222 32.8676 34.316 32.8676 34.3098 32.8676C34.3035 32.8676 34.2973 32.8676 34.2911 32.8676C34.2849 32.8676 34.2786 32.8676 34.2724 32.8676C34.2662 32.8676 34.26 32.8676 34.2538 32.8676C34.2475 32.8676 34.2413 32.8676 34.2351 32.8676C34.2289 32.8676 34.2226 32.8676 34.2164 32.8676C34.2102 32.8676 34.204 32.8676 34.1978 32.8676C34.1915 32.8676 34.1853 32.8676 34.1791 32.8676C34.1729 32.8676 34.1666 32.8676 34.1604 32.8676C34.1542 32.8676 34.148 32.8676 34.1418 32.8676C34.1355 32.8676 34.1293 32.8676 34.1231 32.8676C34.1169 32.8676 34.1106 32.8676 34.1044 32.8676C34.0982 32.8676 34.092 32.8676 34.0857 32.8676C34.0795 32.8676 34.0733 32.8676 34.0671 32.8676C34.0609 32.8676 34.0546 32.8676 34.0484 32.8676C34.0422 32.8676 34.036 32.8676 34.0297 32.8676C34.0235 32.8676 34.0173 32.8676 34.0111 32.8676C34.0048 32.8676 33.9986 32.8676 33.9924 32.8676C33.9862 32.8676 33.98 32.8676 33.9737 32.8676C33.9675 32.8676 33.9613 32.8676 33.9551 32.8676C33.9488 32.8676 33.9426 32.8676 33.9364 32.8676C33.9302 32.8676 33.9239 32.8676 33.9177 32.8676C33.9115 32.8676 33.9053 32.8676 33.899 32.8676C33.8928 32.8676 33.8866 32.8676 33.8804 32.8676C33.8741 32.8676 33.8679 32.8676 33.8617 32.8676C33.8555 32.8676 33.8492 32.8676 33.843 32.8676C33.8368 32.8676 33.8306 32.8676 33.8243 32.8676C33.8181 32.8676 33.8119 32.8676 33.8057 32.8676C33.7994 32.8676 33.7932 32.8676 33.787 32.8676C33.7808 32.8676 33.7745 32.8676 33.7683 32.8676C33.7621 32.8676 33.7559 32.8676 33.7496 32.8676C33.7434 32.8676 33.7372 32.8676 33.731 32.8676C33.7247 32.8676 33.7185 32.8676 33.7123 32.8676C33.7061 32.8676 33.6998 32.8676 33.6936 32.8676C33.6874 32.8676 33.6812 32.8676 33.6749 32.8676C33.6687 32.8676 33.6625 32.8676 33.6563 32.8676C33.65 32.8676 33.6438 32.8676 33.6376 32.8676C33.6313 32.8676 33.6251 32.8676 33.6189 32.8676C33.6127 32.8676 33.6064 32.8676 33.6002 32.8676C33.594 32.8676 33.5878 32.8676 33.5815 32.8676C33.5753 32.8676 33.5691 32.8676 33.5629 32.8676C33.5566 32.8676 33.5504 32.8676 33.5442 32.8676C33.538 32.8676 33.5317 32.8676 33.5255 32.8676C33.5193 32.8676 33.513 32.8676 33.5068 32.8676C33.5006 32.8676 33.4944 32.8676 33.4881 32.8676C33.4819 32.8676 33.4757 32.8676 33.4695 32.8676C33.4632 32.8676 33.457 32.8676 33.4508 32.8676C33.4445 32.8676 33.4383 32.8676 33.4321 32.8676C33.4259 32.8676 33.4196 32.8676 33.4134 32.8676C33.4072 32.8676 33.4009 32.8676 33.3947 32.8676C33.3885 32.8676 33.3823 32.8676 33.376 32.8676C33.3698 32.8676 33.3636 32.8676 33.3574 32.8676C33.3511 32.8676 33.3449 32.8676 33.3387 32.8676C33.3324 32.8676 33.3262 32.8676 33.32 32.8676C33.3138 32.8676 33.3075 32.8676 33.3013 32.8676C33.2951 32.8676 33.2888 32.8676 33.2826 32.8676C33.2764 32.8676 33.2702 32.8676 33.2639 32.8676C33.2577 32.8676 33.2515 32.8676 33.2452 32.8676C33.239 32.8676 33.2328 32.8676 33.2266 32.8676C33.2203 32.8676 33.2141 32.8676 33.2079 32.8676C33.2016 32.8676 33.1954 32.8676 33.1892 32.8676C33.1829 32.8676 33.1767 32.8676 33.1705 32.8676C33.1643 32.8676 33.158 32.8676 33.1518 32.8676C33.1456 32.8676 33.1393 32.8676 33.1331 32.8676C33.1269 32.8676 33.1207 32.8676 33.1144 32.8676C33.1082 32.8676 33.102 32.8676 33.0957 32.8676C33.0895 32.8676 33.0833 32.8676 33.077 32.8676C33.0708 32.8676 33.0646 32.8676 33.0584 32.8676C33.0521 32.8676 33.0459 32.8676 33.0397 32.8676C33.0334 32.8676 33.0272 32.8676 33.021 32.8676C33.0147 32.8676 33.0085 32.8676 33.0023 32.8676C32.996 32.8676 32.9898 32.8676 32.9836 32.8676C32.9774 32.8676 32.9711 32.8676 32.9649 32.8676C32.9587 32.8676 32.9524 32.8676 32.9462 32.8676C32.94 32.8676 32.9337 32.8676 32.9275 32.8676C32.9213 32.8676 32.915 32.8676 32.9088 32.8676C32.9026 32.8676 32.8963 32.8676 32.8901 32.8676C32.8839 32.8676 32.8777 32.8676 32.8714 32.8676C32.8652 32.8676 32.859 32.8676 32.8527 32.8676C32.8465 32.8676 32.8403 32.8676 32.834 32.8676C32.8278 32.8676 32.8216 32.8676 32.8153 32.8676C32.8091 32.8676 32.8029 32.8676 32.7966 32.8676C32.7904 32.8676 32.7842 32.8676 32.7779 32.8676C32.7717 32.8676 32.7655 32.8676 32.7592 32.8676C32.753 32.8676 32.7468 32.8676 32.7405 32.8676C32.7343 32.8676 32.7281 32.8676 32.7218 32.8676C32.7156 32.8676 32.7094 32.8676 32.7032 32.8676C32.6969 32.8676 32.6907 32.8676 32.6845 32.8676C32.6782 32.8676 32.672 32.8676 32.6658 32.8676C32.6595 32.8676 32.6533 32.8676 32.6471 32.8676C32.6408 32.8676 32.6346 32.8676 32.6284 32.8676C32.6221 32.8676 32.6159 32.8676 32.6097 32.8676C32.6034 32.8676 32.5972 32.8676 32.591 32.8676C32.5847 32.8676 32.5785 32.8676 32.5722 32.8676C32.566 32.8676 32.5598 32.8676 32.5535 32.8676C32.5473 32.8676 32.5411 32.8676 32.5348 32.8676C32.5286 32.8676 32.5224 32.8676 32.5161 32.8676C32.5099 32.8676 32.5037 32.8676 32.4974 32.8676C32.4912 32.8676 32.485 32.8676 32.4787 32.8676C32.4725 32.8676 32.4663 32.8676 32.46 32.8676C32.4538 32.8676 32.4476 32.8676 32.4413 32.8676C32.4351 32.8676 32.4289 32.8676 32.4226 32.8676C32.4164 32.8676 32.4102 32.8676 32.4039 32.8676C32.3977 32.8676 32.3914 32.8676 32.3852 32.8676C32.379 32.8676 32.3727 32.8676 32.3665 32.8676C32.3603 32.8676 32.354 32.8676 32.3478 32.8676C32.3416 32.8676 32.3353 32.8676 32.3291 32.8676C32.3229 32.8676 32.3166 32.8676 32.3104 32.8676C32.3041 32.8676 32.2979 32.8676 32.2917 32.8676C32.2854 32.8676 32.2792 32.8676 32.273 32.8676C32.2667 32.8676 32.2605 32.8676 32.2543 32.8676C32.248 32.8676 32.2418 32.8676 32.2355 32.8676C32.2293 32.8676 32.2231 32.8676 32.2168 32.8676C32.2106 32.8676 32.2044 32.8676 32.1981 32.8676C32.1919 32.8676 32.1857 32.8676 32.1794 32.8676V33.6676ZM42.1131 33.3313C42.3917 31.6066 43.7452 30.7998 44.9874 30.827L45.0049 30.0272C43.4082 29.9922 41.6724 31.0424 41.3233 33.2038L42.1131 33.3313ZM44.9874 30.827C46.2858 30.8554 47.4946 31.7825 47.7191 33.3412L48.511 33.2272C48.2293 31.2715 46.6844 30.0639 45.0049 30.0272L44.9874 30.827ZM28.9915 36.0698C30.3369 36.0612 31.4522 34.951 31.4339 33.6121L30.634 33.623C30.6461 34.5055 29.9001 35.2639 28.9864 35.2698L28.9915 36.0698ZM31.4339 33.6119C31.415 32.2651 30.3143 31.1692 28.971 31.1762L28.9751 31.9761C29.8721 31.9715 30.6211 32.708 30.634 33.6232L31.4339 33.6119ZM28.971 31.1762C27.6304 31.1831 26.5152 32.2995 26.5273 33.6378L27.3273 33.6305C27.3192 32.7416 28.0711 31.9808 28.9751 31.9761L28.971 31.1762ZM26.5273 33.6378C26.5394 34.984 27.6471 36.0784 28.9915 36.0698L28.9864 35.2698C28.0848 35.2756 27.3355 34.5377 27.3273 33.6306L26.5273 33.6378ZM44.9308 36.0698C46.2761 36.0586 47.3919 34.9466 47.371 33.6091L46.5711 33.6216C46.5849 34.5012 45.8393 35.2622 44.9242 35.2698L44.9308 36.0698ZM47.371 33.609C47.3495 32.2631 46.2458 31.1675 44.9039 31.1762L44.9091 31.9761C45.8046 31.9704 46.5565 32.7071 46.5711 33.6218L47.371 33.609ZM44.9039 31.1762C43.5638 31.1848 42.4464 32.3055 42.463 33.6413L43.2629 33.6314C43.252 32.7472 44.0046 31.982 44.9091 31.9761L44.9039 31.1762ZM42.463 33.6412C42.4794 34.9875 43.5862 36.081 44.9308 36.0698L44.9241 35.2698C44.0242 35.2773 43.274 34.5413 43.2629 33.6315L42.463 33.6412Z" fill="#4D0000" mask="url(#path-2-outside-1_5952_45208)"/>
<path d="M42.2994 43.0899C41.4619 43.3524 40.8619 44.3649 41.0244 45.2523C41.1744 46.0398 41.9244 46.7148 42.6619 46.7148C42.8369 46.7148 42.9744 46.7523 42.9744 46.8148C42.9744 46.8648 41.9869 47.8898 40.7869 49.0897L38.5995 51.2772L35.5621 48.2398C32.2747 44.9649 32.0872 44.8274 31.1372 45.0774C30.7497 45.1899 29.9497 45.9273 26.8873 48.9897C23.6624 52.2272 23.1124 52.8396 23.0374 53.2396C22.8124 54.4646 23.6249 55.4646 24.8499 55.4646C25.1374 55.4646 25.4874 55.4021 25.6374 55.3271C25.7874 55.2521 27.1873 53.9146 28.7623 52.3647L31.5997 49.5272L34.5746 52.4897C36.1996 54.1146 37.662 55.5021 37.812 55.5771C38.162 55.7521 39.037 55.7521 39.387 55.5771C39.537 55.5021 41.0119 54.0896 42.6744 52.4397L45.6868 49.4397L45.7618 49.9397C46.0493 51.6772 48.4492 52.0397 49.2617 50.4647C49.4617 50.0772 49.4742 49.7022 49.4492 47.1273C49.4117 43.9399 49.3992 43.9274 48.5492 43.2899C48.2242 43.0399 48.0242 43.0274 45.4368 43.0024C43.9119 42.9899 42.4994 43.0274 42.2994 43.0899Z" fill="#4D0000"/>
</svg>
