<svg width="72" height="72" viewBox="0 0 72 72" fill="none" xmlns="http://www.w3.org/2000/svg">
<path d="M39.5 18.5V7L53 18.5H39.5Z" fill="#62C89E"/>
<path fill-rule="evenodd" clip-rule="evenodd" d="M15.7128 61.4655C15.9484 61.5372 16.1839 61.6089 16.4141 61.6901H16.4977C23.6181 61.6901 30.7385 61.6901 37.8585 61.6897C37.2928 60.6975 36.8561 59.6183 36.5649 58.4736C36.5518 58.4204 36.539 58.3663 36.5266 58.3112C30.1875 58.3114 23.8483 58.311 17.5092 58.3101C15.5338 58.3101 14.3861 57.1714 14.3861 55.211C14.3846 40.3029 14.3846 25.3933 14.3861 10.4851C14.3861 8.52172 15.5323 7.38453 17.5077 7.38453H36.7167H37.3702C37.3702 7.64291 37.3702 7.84571 37.3687 8.04701C37.3687 8.99842 37.3685 9.94983 37.3684 10.9012C37.368 12.8041 37.3677 14.7069 37.3687 16.6097C37.3687 19.2657 38.9956 20.9031 41.638 20.9046C43.6911 20.9056 45.7441 20.9053 47.7972 20.9049C48.8237 20.9048 49.8502 20.9046 50.8768 20.9046H51.5648V21.5325C51.5648 25.2691 51.5649 29.0056 51.5651 32.7422C51.5653 36.1589 51.5654 39.5757 51.5654 42.9925C51.7024 43.0193 51.8338 43.0485 51.9586 43.08C53.0121 43.3479 54.0101 43.7391 54.9359 44.2408C54.9293 36.7291 54.9402 29.2171 54.9511 21.7058L54.9523 20.87C54.9553 18.812 54.2417 17.122 52.7425 15.7159C49.2513 12.441 45.7782 9.14664 42.308 5.84925C41.0056 4.61291 39.4793 3.9985 37.6812 4C34.6098 4.00342 31.5381 4.00373 28.4662 4.00404C24.78 4.00441 21.0935 4.00478 17.4071 4.01052C16.8678 4.01202 16.3134 4.05709 15.7907 4.18177C12.8914 4.86979 11.0076 7.32294 11.0061 10.395C11.0028 18.1858 11.0035 25.9758 11.0041 33.7662C11.0043 36.8829 11.0046 39.9997 11.0046 43.1166C11.0046 44.3046 11.0034 45.4927 11.0023 46.6809C10.9995 49.5854 10.9967 52.4902 11.0106 55.3943C11.0226 57.8279 12.0967 59.6967 14.2163 60.891C14.6768 61.1501 15.1948 61.3078 15.7128 61.4655ZM45.9802 13.9805C47.2168 15.1501 48.4615 16.3273 49.7275 17.5246H45.9209C45.5028 17.5246 45.0848 17.5248 44.6668 17.5251C43.6222 17.5257 42.5779 17.5263 41.5329 17.5231C40.9365 17.5201 40.7532 17.3428 40.7517 16.7584C40.748 14.7112 40.7494 12.6629 40.7509 10.6153C40.7512 10.2063 40.7515 9.79741 40.7517 9.3885C40.7517 9.34674 40.7572 9.30443 40.7659 9.2377C40.7715 9.19401 40.7785 9.13985 40.7863 9.06853C42.5263 10.7138 44.2453 12.3397 45.9802 13.9805Z" fill="#0B2D1F"/>
<mask id="path-3-outside-1_5952_45277" maskUnits="userSpaceOnUse" x="35.2393" y="42" width="27" height="27" fill="black">
<rect fill="white" x="35.2393" y="42" width="27" height="27"/>
<path d="M45.7125 43.0799C41.2647 44.2313 37.6844 47.8274 36.5646 52.2909C36.123 54.0101 36.1387 56.7544 36.5646 58.4736C37.4794 62.0697 39.8294 65.0191 43.11 66.6594C45.0816 67.653 46.5799 68 48.8669 68C51.1696 68 52.6522 67.653 54.7026 66.6278C55.9801 65.9969 56.4218 65.6499 57.7782 64.2935C59.1346 62.9371 59.4816 62.4955 60.1125 61.218C61.1376 59.1676 61.4846 57.685 61.4846 55.3823C61.4846 53.0953 61.1376 51.5969 60.144 49.6254C58.5037 46.3448 55.5543 43.9947 51.9582 43.0799C50.2706 42.6541 47.3843 42.6541 45.7125 43.0799ZM52.1948 45.982C55.018 46.9599 57.4154 49.4204 58.346 52.2594C58.6614 53.2372 58.7245 53.7262 58.7245 55.4611C58.7245 57.2749 58.6772 57.6377 58.3144 58.6471C55.3966 66.6436 44.6873 67.7319 40.2868 60.4609C39.2774 58.789 39.0093 57.7639 39.0093 55.4611C39.0093 52.9691 39.3563 51.6758 40.5392 49.9251C43.1258 46.0451 47.8259 44.4679 52.1948 45.982Z"/>
<path d="M52.1948 45.982C55.018 46.9599 57.4154 49.4204 58.346 52.2594C58.6614 53.2372 58.7245 53.7262 58.7245 55.4611C58.7245 57.2749 58.6772 57.6377 58.3144 58.6471C55.3966 66.6436 44.6873 67.7319 40.2868 60.4609C39.2774 58.789 39.0093 57.7639 39.0093 55.4611C39.0093 52.9691 39.3563 51.6758 40.5392 49.9251C43.1258 46.0451 47.8259 44.4679 52.1948 45.982Z"/>
</mask>
<path d="M45.7125 43.0799C41.2647 44.2313 37.6844 47.8274 36.5646 52.2909C36.123 54.0101 36.1387 56.7544 36.5646 58.4736C37.4794 62.0697 39.8294 65.0191 43.11 66.6594C45.0816 67.653 46.5799 68 48.8669 68C51.1696 68 52.6522 67.653 54.7026 66.6278C55.9801 65.9969 56.4218 65.6499 57.7782 64.2935C59.1346 62.9371 59.4816 62.4955 60.1125 61.218C61.1376 59.1676 61.4846 57.685 61.4846 55.3823C61.4846 53.0953 61.1376 51.5969 60.144 49.6254C58.5037 46.3448 55.5543 43.9947 51.9582 43.0799C50.2706 42.6541 47.3843 42.6541 45.7125 43.0799ZM52.1948 45.982C55.018 46.9599 57.4154 49.4204 58.346 52.2594C58.6614 53.2372 58.7245 53.7262 58.7245 55.4611C58.7245 57.2749 58.6772 57.6377 58.3144 58.6471C55.3966 66.6436 44.6873 67.7319 40.2868 60.4609C39.2774 58.789 39.0093 57.7639 39.0093 55.4611C39.0093 52.9691 39.3563 51.6758 40.5392 49.9251C43.1258 46.0451 47.8259 44.4679 52.1948 45.982Z" fill="#0B2D1F"/>
<path d="M52.1948 45.982C55.018 46.9599 57.4154 49.4204 58.346 52.2594C58.6614 53.2372 58.7245 53.7262 58.7245 55.4611C58.7245 57.2749 58.6772 57.6377 58.3144 58.6471C55.3966 66.6436 44.6873 67.7319 40.2868 60.4609C39.2774 58.789 39.0093 57.7639 39.0093 55.4611C39.0093 52.9691 39.3563 51.6758 40.5392 49.9251C43.1258 46.0451 47.8259 44.4679 52.1948 45.982Z" fill="#22885E"/>
<path d="M52.1948 45.982L52.1785 46.0293L52.1784 46.0293L52.1948 45.982ZM58.346 52.2594L58.3935 52.2438L58.3936 52.244L58.346 52.2594ZM58.3144 58.6471L58.3615 58.664L58.3614 58.6642L58.3144 58.6471ZM40.2868 60.4609L40.244 60.4868L40.244 60.4867L40.2868 60.4609ZM40.5392 49.9251L40.5808 49.9528L40.5806 49.9531L40.5392 49.9251ZM52.2112 45.9348C55.0493 46.9178 57.4581 49.3901 58.3935 52.2438L58.2985 52.2749C57.3727 49.4506 54.9867 47.002 52.1785 46.0293L52.2112 45.9348ZM58.3936 52.244C58.7113 53.2289 58.7745 53.7237 58.7745 55.4611H58.6745C58.6745 53.7286 58.6116 53.2455 58.2984 52.2747L58.3936 52.244ZM58.7745 55.4611C58.7745 56.3676 58.7627 56.9149 58.7051 57.3621C58.6472 57.811 58.5434 58.1579 58.3615 58.664L58.2674 58.6302C58.4483 58.1269 58.5494 57.7877 58.6059 57.3494C58.6626 56.9094 58.6745 56.3684 58.6745 55.4611H58.7745ZM58.3614 58.6642C55.4293 66.6997 44.6665 67.7941 40.244 60.4868L40.3296 60.435C44.708 67.6696 55.3638 66.5875 58.2675 58.63L58.3614 58.6642ZM40.244 60.4867C39.7379 59.6485 39.416 58.9696 39.2211 58.21C39.0263 57.4509 38.9593 56.6141 38.9593 55.4611H39.0593C39.0593 56.6109 39.1263 57.438 39.3179 58.1852C39.5095 58.9318 39.8263 59.6014 40.3296 60.4351L40.244 60.4867ZM38.9593 55.4611C38.9593 54.2131 39.0461 53.2617 39.2824 52.4019C39.5189 51.5415 39.9042 50.7755 40.4977 49.8971L40.5806 49.9531C39.9912 50.8254 39.6116 51.5814 39.3788 52.4284C39.1459 53.2759 39.0593 54.2172 39.0593 55.4611H38.9593ZM40.4976 49.8973C43.0968 45.9985 47.8207 44.4132 52.2112 45.9348L52.1784 46.0293C47.8311 44.5226 43.1548 46.0917 40.5808 49.9528L40.4976 49.8973ZM45.7125 43.0799L45.6874 42.9831L45.6878 42.983L45.7125 43.0799ZM36.5646 52.2909L36.6616 52.3152L36.6614 52.3158L36.5646 52.2909ZM36.5646 58.4736L36.4677 58.4983L36.4675 58.4976L36.5646 58.4736ZM43.11 66.6594L43.1548 66.5699L43.155 66.5701L43.11 66.6594ZM54.7026 66.6278L54.6579 66.5384L54.6583 66.5382L54.7026 66.6278ZM60.1125 61.218L60.0228 61.1737L60.023 61.1732L60.1125 61.218ZM60.144 49.6254L60.0547 49.6704L60.0546 49.6701L60.144 49.6254ZM51.9582 43.0799L51.9827 42.983L51.9829 42.983L51.9582 43.0799ZM45.7375 43.1768C41.3251 44.319 37.7725 47.8873 36.6616 52.3152L36.4676 52.2666C37.5963 47.7674 41.2043 44.1437 45.6874 42.9831L45.7375 43.1768ZM36.6614 52.3158C36.2241 54.0181 36.2396 56.7456 36.6617 58.4496L36.4675 58.4976C36.0379 56.7632 36.0218 54.002 36.4677 52.266L36.6614 52.3158ZM36.6615 58.4489C37.5693 62.0174 39.9007 64.9429 43.1548 66.5699L43.0653 66.7488C39.7582 65.0952 37.3895 62.1219 36.4677 58.4983L36.6615 58.4489ZM43.155 66.5701C45.112 67.5564 46.5949 67.9 48.8669 67.9V68.1C46.565 68.1 45.0511 67.7496 43.065 66.7487L43.155 66.5701ZM48.8669 67.9C51.1543 67.9 52.6215 67.5566 54.6579 66.5384L54.7473 66.7173C52.6829 67.7495 51.185 68.1 48.8669 68.1V67.9ZM54.6583 66.5382C55.2945 66.224 55.7178 65.9828 56.1502 65.6532C56.5839 65.3226 57.0292 64.9011 57.7075 64.2228L57.8489 64.3642C57.1707 65.0424 56.717 65.4726 56.2714 65.8123C55.8245 66.153 55.3883 66.4008 54.7469 66.7175L54.6583 66.5382ZM57.7075 64.2228C58.3857 63.5446 58.8072 63.0993 59.1379 62.6656C59.4674 62.2332 59.7086 61.8099 60.0228 61.1737L60.2021 61.2622C59.8854 61.9036 59.6376 62.3398 59.2969 62.7868C58.9573 63.2324 58.5271 63.6861 57.8489 64.3642L57.7075 64.2228ZM60.023 61.1732C61.0412 59.1369 61.3846 57.6696 61.3846 55.3823H61.5846C61.5846 57.7004 61.2341 59.1983 60.2019 61.2627L60.023 61.1732ZM61.3846 55.3823C61.3846 53.1102 61.041 51.6274 60.0547 49.6704L60.2333 49.5804C61.2343 51.5665 61.5846 53.0803 61.5846 55.3823H61.3846ZM60.0546 49.6701C58.4275 46.416 55.5021 44.0846 51.9336 43.1769L51.9829 42.983C55.6065 43.9048 58.5799 46.2736 60.2334 49.5807L60.0546 49.6701ZM51.9338 43.1769C51.1008 42.9667 49.9663 42.8606 48.8294 42.8606C47.6926 42.8606 46.5621 42.9667 45.7371 43.1769L45.6878 42.983C46.5347 42.7673 47.6833 42.6606 48.8294 42.6606C49.9756 42.6606 51.128 42.7673 51.9827 42.983L51.9338 43.1769Z" fill="#0B2D1F" mask="url(#path-3-outside-1_5952_45277)"/>
<path d="M47.7951 57.9497C48.6135 57.0152 49.3693 56.1523 50.1252 55.2884C51.2111 54.0476 52.2959 52.8069 53.3818 51.5662C53.4376 51.5024 53.4934 51.4364 53.5526 51.3761C53.9464 50.972 54.4598 50.9276 54.8457 51.2622C55.2384 51.6026 55.2737 52.1581 54.9003 52.594C54.1798 53.4364 53.4444 54.2651 52.7136 55.0994C51.3841 56.6179 50.0569 58.1375 48.7251 59.6537C48.1627 60.2946 47.6721 60.3094 47.07 59.7084C45.9624 58.6042 44.8537 57.5024 43.7575 56.388C43.5936 56.2218 43.4411 56.0123 43.3717 55.7949C43.2487 55.4102 43.4468 55.0061 43.7849 54.8092C44.1389 54.6031 44.5805 54.6566 44.9163 54.9867C45.7177 55.7722 46.5099 56.569 47.2999 57.3669C47.4684 57.5365 47.6118 57.7334 47.7951 57.9497Z" fill="#0B2D1F" stroke="#0B2D1F"/>
<path d="M21.0171 25.6749C21.5707 25.0427 22.082 24.459 22.5933 23.8746C23.3279 23.0353 24.0617 22.196 24.7963 21.3566C24.834 21.3135 24.8717 21.2689 24.9118 21.228C25.1782 20.9547 25.5255 20.9247 25.7865 21.151C26.0522 21.3813 26.076 21.757 25.8235 22.052C25.3361 22.6218 24.8386 23.1823 24.3443 23.7467C23.4449 24.7739 22.5471 25.8019 21.6462 26.8276C21.2658 27.2611 20.9339 27.2711 20.5266 26.8645C19.7774 26.1176 19.0274 25.3722 18.2859 24.6184C18.175 24.506 18.0718 24.3643 18.0248 24.2172C17.9417 23.957 18.0756 23.6836 18.3043 23.5504C18.5438 23.411 18.8426 23.4472 19.0697 23.6705C19.6118 24.2018 20.1477 24.7408 20.6821 25.2806C20.7961 25.3953 20.8931 25.5286 21.0171 25.6749Z" fill="#0B2D1F" stroke="#0B2D1F"/>
<path d="M21.0171 45.9975C21.5707 45.3653 22.082 44.7816 22.5933 44.1972C23.3279 43.3579 24.0617 42.5186 24.7963 41.6793C24.834 41.6362 24.8717 41.5915 24.9118 41.5507C25.1782 41.2773 25.5255 41.2473 25.7865 41.4737C26.0522 41.7039 26.076 42.0797 25.8235 42.3746C25.3361 42.9444 24.8386 43.505 24.3443 44.0694C23.4449 45.0966 22.5471 46.1245 21.6462 47.1502C21.2658 47.5837 20.9339 47.5937 20.5266 47.1871C19.7774 46.4402 19.0274 45.6949 18.2859 44.941C18.175 44.8286 18.0718 44.6869 18.0248 44.5399C17.9417 44.2796 18.0756 44.0062 18.3043 43.873C18.5438 43.7337 18.8426 43.7698 19.0697 43.9931C19.6118 44.5245 20.1477 45.0635 20.6821 45.6032C20.7961 45.718 20.8931 45.8512 21.0171 45.9975Z" fill="#0B2D1F" stroke="#0B2D1F"/>
<path d="M21.0171 35.8362C21.5707 35.204 22.082 34.6203 22.5933 34.0359C23.3279 33.1966 24.0617 32.3573 24.7963 31.518C24.834 31.4748 24.8717 31.4302 24.9118 31.3894C25.1782 31.116 25.5255 31.086 25.7865 31.3124C26.0522 31.5426 26.076 31.9184 25.8235 32.2133C25.3361 32.7831 24.8386 33.3436 24.3443 33.9081C23.4449 34.9353 22.5471 35.9632 21.6462 36.9889C21.2658 37.4224 20.9339 37.4324 20.5266 37.0258C19.7774 36.2789 19.0274 35.5336 18.2859 34.7797C18.175 34.6673 18.0718 34.5256 18.0248 34.3785C17.9417 34.1183 18.0756 33.8449 18.3043 33.7117C18.5438 33.5723 18.8426 33.6085 19.0697 33.8318C19.6118 34.3631 20.1477 34.9021 20.6821 35.4419C20.7961 35.5567 20.8931 35.6899 21.0171 35.8362Z" fill="#0B2D1F" stroke="#0B2D1F"/>
<path d="M37.9733 24.9988C35.3728 24.9988 32.7723 25.0028 30.1708 24.9962C29.3254 24.9948 28.7794 23.9609 29.0864 22.9456C29.2707 22.3361 29.619 22.0194 30.0969 22.0061C30.5518 21.9941 31.0076 22.0035 31.4634 22.0035C36.2451 22.0035 41.0277 22.0021 45.8094 22.0048C46.6779 22.0048 47.2316 23.0494 46.9053 24.078C46.7 24.7247 46.3171 25.0001 45.8114 24.9988C43.1993 24.9961 40.5863 24.9988 37.9733 24.9988Z" fill="#0B2D1F"/>
<path d="M38.0027 35.9987C35.3898 35.9987 32.7778 36.0027 30.1649 35.996C29.3224 35.9947 28.7764 34.9473 29.0892 33.9347C29.283 33.3057 29.6467 33.0019 30.1399 33.0006C31.0391 32.9993 31.9372 33.0006 32.8364 33.0006C37.1631 33.0006 41.4889 32.9993 45.8156 33.0019C46.6812 33.0033 47.2339 34.0599 46.9029 35.0859C46.6946 35.7308 46.3098 36.0013 45.8051 36C43.552 35.9947 41.2989 35.9973 39.0458 35.9973C38.6984 35.9987 38.3511 35.9987 38.0027 35.9987Z" fill="#0B2D1F"/>
<path d="M34.47 45.9991C33.2396 45.9991 32.0077 46.0018 30.7773 45.9978C29.7338 45.9938 29.0087 45.3851 29.0001 44.5139C28.9901 43.6241 29.7238 43.0033 30.8015 43.002C33.2638 42.9993 35.7262 42.9993 38.1885 43.002C39.2576 43.0033 40.0099 43.6334 39.9999 44.5099C39.9899 45.389 39.2462 45.9951 38.1657 45.9978C36.9323 46.0005 35.7005 45.9991 34.47 45.9991Z" fill="#0B2D1F"/>
</svg>
