<svg width="72" height="72" viewBox="0 0 72 72" fill="none" xmlns="http://www.w3.org/2000/svg">
<g id="odometer-maintenance">
<g id="Group 1171275013">
<g id="Group">
<g id="Vector">
<mask id="path-1-outside-1_5952_45232" maskUnits="userSpaceOnUse" x="37.708" y="47.8273" width="32" height="18" fill="black">
<rect fill="white" x="37.708" y="47.8273" width="32" height="18"/>
<path d="M38.708 57.0471C38.8363 56.5684 38.9856 56.1017 39.3165 55.7123C39.7074 55.2524 40.2003 54.9718 40.7765 54.8158C42.1173 54.4526 43.4566 54.082 44.7988 53.7233C45.0134 53.6663 45.1642 53.5598 45.2977 53.382C46.0885 52.3316 46.8951 51.2924 47.6867 50.2428C48.3972 49.3004 49.338 48.8315 50.5122 48.83C53.3911 48.827 56.2699 48.8255 59.1487 48.8307C60.443 48.833 61.4341 49.3882 62.1191 50.4926C62.7366 51.4883 63.3593 52.4801 63.9911 53.4668C64.0721 53.5935 64.2049 53.7106 64.3407 53.7759C64.9844 54.0842 65.6357 54.3768 66.2869 54.6687C67.4334 55.1826 68.0118 56.0597 67.9953 57.3217C67.9863 58.0075 68.0291 58.6992 67.9571 59.3782C67.8078 60.785 66.7431 61.7364 65.3303 61.7206C64.8584 61.7154 64.6453 61.8324 64.451 62.2863C63.913 63.5416 62.6233 64.2971 61.3216 64.2258C59.9043 64.1478 58.7518 63.2887 58.2964 61.9517C58.2401 61.7874 58.1741 61.7311 58.0001 61.7311C54.7873 61.7364 51.5754 61.7364 48.3627 61.7304C48.1841 61.7304 48.1218 61.7941 48.067 61.9532C47.5944 63.3255 46.3459 64.2236 44.9256 64.2266C43.4866 64.2296 42.2388 63.3352 41.7602 61.9457C41.7099 61.8002 41.6619 61.7244 41.4901 61.7304C40.0285 61.7791 38.9211 60.7783 38.7358 59.439C38.7335 59.4218 38.7178 59.406 38.708 59.3895C38.708 58.6107 38.708 57.8289 38.708 57.0471ZM64.7661 60.5352C64.9454 60.5352 65.1322 60.5374 65.3183 60.5352C66.1931 60.5232 66.7851 59.9304 66.7911 59.0549C66.7949 58.4546 66.7866 57.8537 66.7926 57.2534C66.7994 56.5564 66.4768 56.0785 65.8495 55.7934C65.1135 55.4588 64.3715 55.1354 63.6459 54.7775C63.4366 54.674 63.2295 54.4999 63.1035 54.3056C62.4447 53.2912 61.795 52.27 61.1775 51.2309C60.6793 50.3943 59.9755 50.0169 59.0069 50.0229C56.2331 50.0395 53.4601 50.0372 50.6863 50.0237C49.7762 50.0192 49.0792 50.3561 48.5375 51.0929C47.7369 52.183 46.8966 53.2447 46.0848 54.3266C45.8972 54.5772 45.6729 54.731 45.3705 54.8053C44.8536 54.9321 44.3411 55.0791 43.8272 55.2202C42.8728 55.482 41.917 55.7364 40.9656 56.0102C40.3421 56.1895 39.9355 56.666 39.916 57.2549C39.895 57.9114 39.886 58.5709 39.919 59.2274C39.9625 60.0835 40.7863 60.686 41.5989 60.4954C41.905 58.6107 43.353 57.6376 44.8018 57.5716C45.5378 57.5385 46.2146 57.7456 46.8193 58.1695C47.6356 58.7412 48.0858 59.541 48.2321 60.5179C51.5454 60.5179 54.8384 60.5179 58.1291 60.5179C58.4547 58.5019 60.0573 57.5385 61.5301 57.5708C63.075 57.6046 64.5035 58.712 64.7661 60.5352ZM44.9219 63.0104C46.0938 63.0029 47.0594 62.0335 47.0437 60.8811C47.0272 59.7076 46.0675 58.757 44.9053 58.763C43.7409 58.769 42.7723 59.7429 42.7828 60.8983C42.7933 62.0672 43.7567 63.0179 44.9219 63.0104ZM61.4589 63.0104C62.6316 63.0006 63.5972 62.029 63.5792 60.8788C63.5604 59.7061 62.5978 58.7555 61.4371 58.763C60.2727 58.7705 59.3025 59.7489 59.3168 60.9006C59.3311 62.071 60.2944 63.0201 61.4589 63.0104Z"/>
<path d="M64.7661 60.5352C64.9454 60.5352 65.1322 60.5374 65.3183 60.5352C66.1931 60.5232 66.7851 59.9304 66.7911 59.0549C66.7949 58.4546 66.7866 57.8537 66.7926 57.2534C66.7994 56.5564 66.4768 56.0785 65.8495 55.7934C65.1135 55.4588 64.3715 55.1354 63.6459 54.7775C63.4366 54.674 63.2295 54.4999 63.1035 54.3056C62.4447 53.2912 61.795 52.27 61.1775 51.2309C60.6793 50.3943 59.9755 50.0169 59.0069 50.0229C56.2331 50.0395 53.4601 50.0372 50.6863 50.0237C49.7762 50.0192 49.0792 50.3561 48.5375 51.0929C47.7369 52.183 46.8966 53.2447 46.0848 54.3266C45.8972 54.5772 45.6729 54.731 45.3705 54.8053C44.8536 54.9321 44.3411 55.0791 43.8272 55.2202C42.8728 55.482 41.917 55.7364 40.9656 56.0102C40.3421 56.1895 39.9355 56.666 39.916 57.2549C39.895 57.9114 39.886 58.5709 39.919 59.2274C39.9625 60.0835 40.7863 60.686 41.5989 60.4954C41.905 58.6107 43.353 57.6376 44.8018 57.5716C45.5378 57.5385 46.2146 57.7456 46.8193 58.1695C47.6356 58.7412 48.0858 59.541 48.2321 60.5179H58.1291C58.4547 58.5019 60.0573 57.5385 61.5301 57.5708C63.075 57.6046 64.5035 58.712 64.7661 60.5352Z"/>
</mask>
<path d="M38.708 57.0471C38.8363 56.5684 38.9856 56.1017 39.3165 55.7123C39.7074 55.2524 40.2003 54.9718 40.7765 54.8158C42.1173 54.4526 43.4566 54.082 44.7988 53.7233C45.0134 53.6663 45.1642 53.5598 45.2977 53.382C46.0885 52.3316 46.8951 51.2924 47.6867 50.2428C48.3972 49.3004 49.338 48.8315 50.5122 48.83C53.3911 48.827 56.2699 48.8255 59.1487 48.8307C60.443 48.833 61.4341 49.3882 62.1191 50.4926C62.7366 51.4883 63.3593 52.4801 63.9911 53.4668C64.0721 53.5935 64.2049 53.7106 64.3407 53.7759C64.9844 54.0842 65.6357 54.3768 66.2869 54.6687C67.4334 55.1826 68.0118 56.0597 67.9953 57.3217C67.9863 58.0075 68.0291 58.6992 67.9571 59.3782C67.8078 60.785 66.7431 61.7364 65.3303 61.7206C64.8584 61.7154 64.6453 61.8324 64.451 62.2863C63.913 63.5416 62.6233 64.2971 61.3216 64.2258C59.9043 64.1478 58.7518 63.2887 58.2964 61.9517C58.2401 61.7874 58.1741 61.7311 58.0001 61.7311C54.7873 61.7364 51.5754 61.7364 48.3627 61.7304C48.1841 61.7304 48.1218 61.7941 48.067 61.9532C47.5944 63.3255 46.3459 64.2236 44.9256 64.2266C43.4866 64.2296 42.2388 63.3352 41.7602 61.9457C41.7099 61.8002 41.6619 61.7244 41.4901 61.7304C40.0285 61.7791 38.9211 60.7783 38.7358 59.439C38.7335 59.4218 38.7178 59.406 38.708 59.3895C38.708 58.6107 38.708 57.8289 38.708 57.0471ZM64.7661 60.5352C64.9454 60.5352 65.1322 60.5374 65.3183 60.5352C66.1931 60.5232 66.7851 59.9304 66.7911 59.0549C66.7949 58.4546 66.7866 57.8537 66.7926 57.2534C66.7994 56.5564 66.4768 56.0785 65.8495 55.7934C65.1135 55.4588 64.3715 55.1354 63.6459 54.7775C63.4366 54.674 63.2295 54.4999 63.1035 54.3056C62.4447 53.2912 61.795 52.27 61.1775 51.2309C60.6793 50.3943 59.9755 50.0169 59.0069 50.0229C56.2331 50.0395 53.4601 50.0372 50.6863 50.0237C49.7762 50.0192 49.0792 50.3561 48.5375 51.0929C47.7369 52.183 46.8966 53.2447 46.0848 54.3266C45.8972 54.5772 45.6729 54.731 45.3705 54.8053C44.8536 54.9321 44.3411 55.0791 43.8272 55.2202C42.8728 55.482 41.917 55.7364 40.9656 56.0102C40.3421 56.1895 39.9355 56.666 39.916 57.2549C39.895 57.9114 39.886 58.5709 39.919 59.2274C39.9625 60.0835 40.7863 60.686 41.5989 60.4954C41.905 58.6107 43.353 57.6376 44.8018 57.5716C45.5378 57.5385 46.2146 57.7456 46.8193 58.1695C47.6356 58.7412 48.0858 59.541 48.2321 60.5179C51.5454 60.5179 54.8384 60.5179 58.1291 60.5179C58.4547 58.5019 60.0573 57.5385 61.5301 57.5708C63.075 57.6046 64.5035 58.712 64.7661 60.5352ZM44.9219 63.0104C46.0938 63.0029 47.0594 62.0335 47.0437 60.8811C47.0272 59.7076 46.0675 58.757 44.9053 58.763C43.7409 58.769 42.7723 59.7429 42.7828 60.8983C42.7933 62.0672 43.7567 63.0179 44.9219 63.0104ZM61.4589 63.0104C62.6316 63.0006 63.5972 62.029 63.5792 60.8788C63.5604 59.7061 62.5978 58.7555 61.4371 58.763C60.2727 58.7705 59.3025 59.7489 59.3168 60.9006C59.3311 62.071 60.2944 63.0201 61.4589 63.0104Z" fill="#0B2D1F"/>
<path d="M64.7661 60.5352C64.9454 60.5352 65.1322 60.5374 65.3183 60.5352C66.1931 60.5232 66.7851 59.9304 66.7911 59.0549C66.7949 58.4546 66.7866 57.8537 66.7926 57.2534C66.7994 56.5564 66.4768 56.0785 65.8495 55.7934C65.1135 55.4588 64.3715 55.1354 63.6459 54.7775C63.4366 54.674 63.2295 54.4999 63.1035 54.3056C62.4447 53.2912 61.795 52.27 61.1775 51.2309C60.6793 50.3943 59.9755 50.0169 59.0069 50.0229C56.2331 50.0395 53.4601 50.0372 50.6863 50.0237C49.7762 50.0192 49.0792 50.3561 48.5375 51.0929C47.7369 52.183 46.8966 53.2447 46.0848 54.3266C45.8972 54.5772 45.6729 54.731 45.3705 54.8053C44.8536 54.9321 44.3411 55.0791 43.8272 55.2202C42.8728 55.482 41.917 55.7364 40.9656 56.0102C40.3421 56.1895 39.9355 56.666 39.916 57.2549C39.895 57.9114 39.886 58.5709 39.919 59.2274C39.9625 60.0835 40.7863 60.686 41.5989 60.4954C41.905 58.6107 43.353 57.6376 44.8018 57.5716C45.5378 57.5385 46.2146 57.7456 46.8193 58.1695C47.6356 58.7412 48.0858 59.541 48.2321 60.5179H58.1291C58.4547 58.5019 60.0573 57.5385 61.5301 57.5708C63.075 57.6046 64.5035 58.712 64.7661 60.5352Z" fill="#22885E"/>
<path d="M64.7661 60.5352L64.2712 60.6065L64.333 61.0352H64.7661V60.5352ZM65.3183 60.5352L65.3244 61.0351L65.3252 61.0351L65.3183 60.5352ZM66.7911 59.0549L67.2911 59.0583L67.2911 59.058L66.7911 59.0549ZM66.7926 57.2534L67.2926 57.2584L67.2926 57.2583L66.7926 57.2534ZM65.8495 55.7934L65.6426 56.2485L65.6426 56.2486L65.8495 55.7934ZM63.6459 54.7775L63.4243 55.2257L63.4247 55.2259L63.6459 54.7775ZM63.1035 54.3056L63.523 54.0335L63.5228 54.0332L63.1035 54.3056ZM61.1775 51.2309L61.6073 50.9755L61.6071 50.9751L61.1775 51.2309ZM59.0069 50.0229L59.0099 50.5229L59.01 50.5229L59.0069 50.0229ZM50.6863 50.0237L50.6838 50.5237L50.6839 50.5237L50.6863 50.0237ZM48.5375 51.0929L48.1346 50.7967L48.1345 50.7969L48.5375 51.0929ZM46.0848 54.3266L45.6849 54.0265L45.6845 54.027L46.0848 54.3266ZM45.3705 54.8053L45.4896 55.2909L45.4898 55.2908L45.3705 54.8053ZM43.8272 55.2202L43.9595 55.7023L43.9595 55.7023L43.8272 55.2202ZM40.9656 56.0102L41.1038 56.4907L41.1039 56.4907L40.9656 56.0102ZM39.916 57.2549L39.4162 57.2384L39.4162 57.2389L39.916 57.2549ZM39.919 59.2274L39.4196 59.2525L39.4196 59.2528L39.919 59.2274ZM41.5989 60.4954L41.713 60.9822L42.0387 60.9058L42.0924 60.5756L41.5989 60.4954ZM44.8018 57.5716L44.7794 57.0721L44.779 57.0721L44.8018 57.5716ZM46.8193 58.1695L46.5323 58.579L46.5325 58.5791L46.8193 58.1695ZM61.5301 57.5708L61.5192 58.0707L61.5192 58.0707L61.5301 57.5708ZM64.7661 61.0352C64.9368 61.0352 65.1348 61.0374 65.3244 61.0351L65.3123 60.0352C65.1297 60.0374 64.954 60.0352 64.7661 60.0352V61.0352ZM65.3252 61.0351C65.8765 61.0276 66.3734 60.8345 66.7348 60.4717C67.0963 60.1087 67.2873 59.6108 67.2911 59.0583L66.2911 59.0514C66.2889 59.3745 66.181 59.6107 66.0263 59.766C65.8714 59.9215 65.635 60.0308 65.3115 60.0352L65.3252 61.0351ZM67.2911 59.058C67.295 58.4298 67.2865 57.872 67.2926 57.2584L66.2926 57.2484C66.2868 57.8353 66.2947 58.4794 66.2911 59.0517L67.2911 59.058ZM67.2926 57.2583C67.2968 56.8291 67.1988 56.4344 66.9774 56.0955C66.7569 55.7578 66.4372 55.5113 66.0564 55.3382L65.6426 56.2486C65.8891 56.3606 66.0443 56.4956 66.1402 56.6424C66.2353 56.788 66.2952 56.9807 66.2926 57.2486L67.2926 57.2583ZM66.0565 55.3382C65.3109 54.9992 64.5832 54.6823 63.8671 54.3291L63.4247 55.2259C64.1597 55.5884 64.9161 55.9183 65.6426 56.2485L66.0565 55.3382ZM63.8676 54.3293C63.7286 54.2606 63.5942 54.1434 63.523 54.0335L62.684 54.5777C62.8648 54.8564 63.1446 55.0873 63.4243 55.2257L63.8676 54.3293ZM63.5228 54.0332C62.8655 53.0211 62.2199 52.0063 61.6073 50.9755L60.7477 51.4863C61.3701 52.5338 62.024 53.5613 62.6841 54.5779L63.5228 54.0332ZM61.6071 50.9751C61.3208 50.4943 60.9601 50.1213 60.5101 49.8731C60.0611 49.6255 59.5549 49.5195 59.0038 49.523L59.01 50.5229C59.4276 50.5204 59.7576 50.6001 60.0271 50.7488C60.2957 50.8969 60.536 51.131 60.7479 51.4867L61.6071 50.9751ZM59.004 49.523C56.2324 49.5395 53.4612 49.5372 50.6887 49.5237L50.6839 50.5237C53.459 50.5372 56.2339 50.5395 59.0099 50.5229L59.004 49.523ZM50.6888 49.5237C49.624 49.5184 48.7742 49.9268 48.1346 50.7967L48.9403 51.389C49.3842 50.7853 49.9283 50.52 50.6838 50.5237L50.6888 49.5237ZM48.1345 50.7969C47.3319 51.8899 46.5112 52.9253 45.6849 54.0265L46.4847 54.6267C47.282 53.5641 48.142 52.4762 48.9405 51.3888L48.1345 50.7969ZM45.6845 54.027C45.5627 54.1897 45.4355 54.2744 45.2512 54.3197L45.4898 55.2908C45.9102 55.1875 46.2318 54.9646 46.4851 54.6262L45.6845 54.027ZM45.2514 54.3197C44.7256 54.4486 44.2013 54.599 43.6949 54.738L43.9595 55.7023C44.481 55.5592 44.9815 55.4155 45.4896 55.2909L45.2514 54.3197ZM43.6949 54.738C42.7455 54.9985 41.7826 55.2547 40.8273 55.5297L41.1039 56.4907C42.0513 56.218 43.0001 55.9656 43.9595 55.7023L43.6949 54.738ZM40.8274 55.5297C40.0284 55.7595 39.444 56.4004 39.4162 57.2384L40.4157 57.2715C40.427 56.9315 40.6559 56.6196 41.1038 56.4907L40.8274 55.5297ZM39.4162 57.2389C39.3951 57.9005 39.3856 58.5758 39.4196 59.2525L40.4183 59.2023C40.3863 58.5661 40.3949 57.9224 40.4157 57.2709L39.4162 57.2389ZM39.4196 59.2528C39.4791 60.4237 40.6 61.2432 41.713 60.9822L41.4847 60.0086C40.9725 60.1287 40.4458 59.7433 40.4183 59.202L39.4196 59.2528ZM42.0924 60.5756C42.3565 58.9496 43.5857 58.1275 44.8246 58.071L44.779 57.0721C43.1203 57.1477 41.4535 58.2718 41.1053 60.4152L42.0924 60.5756ZM44.8242 58.071C45.4451 58.0432 46.0138 58.2155 46.5323 58.579L47.1063 57.7601C46.4154 57.2757 45.6306 57.0339 44.7794 57.0721L44.8242 58.071ZM46.5325 58.5791C47.225 59.0641 47.6094 59.7361 47.7376 60.592L48.7266 60.4439C48.5622 59.346 48.0463 58.4184 47.1062 57.76L46.5325 58.5791ZM58.6227 60.5976C58.9042 58.8545 60.268 58.0433 61.5192 58.0707L61.5411 57.0709C59.8467 57.0338 58.0052 58.1493 57.6355 60.4382L58.6227 60.5976ZM61.5192 58.0707C62.8259 58.0992 64.0444 59.0314 64.2712 60.6065L65.261 60.4639C64.9627 58.3926 63.324 57.1099 61.5411 57.0709L61.5192 58.0707ZM38.708 57.0471L37.7421 56.7882L37.708 56.9154V57.0471H38.708ZM39.3165 55.7123L38.5545 55.0647L38.5544 55.0648L39.3165 55.7123ZM40.7765 54.8158L41.038 55.781L41.038 55.781L40.7765 54.8158ZM44.7988 53.7233L44.542 52.7569L44.5407 52.7572L44.7988 53.7233ZM45.2977 53.382L44.4988 52.7805L44.4982 52.7814L45.2977 53.382ZM47.6867 50.2428L48.4851 50.8449L48.4851 50.8448L47.6867 50.2428ZM50.5122 48.83L50.5112 47.83L50.5109 47.83L50.5122 48.83ZM59.1487 48.8307L59.1469 49.8307L59.147 49.8307L59.1487 48.8307ZM62.1191 50.4926L62.9689 49.9656L62.9689 49.9655L62.1191 50.4926ZM63.9911 53.4668L64.8337 52.9283L64.8332 52.9275L63.9911 53.4668ZM64.3407 53.7759L63.9075 54.6772L63.9087 54.6777L64.3407 53.7759ZM66.2869 54.6687L66.696 53.7562L66.6959 53.7562L66.2869 54.6687ZM67.9953 57.3217L68.9952 57.3348L68.9952 57.3348L67.9953 57.3217ZM67.9571 59.3782L68.9515 59.4838L68.9515 59.4837L67.9571 59.3782ZM65.3303 61.7206L65.3415 60.7207L65.3414 60.7207L65.3303 61.7206ZM64.451 62.2863L65.3701 62.6803L65.3703 62.6799L64.451 62.2863ZM61.3216 64.2258L61.2666 65.2243L61.2669 65.2243L61.3216 64.2258ZM58.2964 61.9517L59.243 61.6293L59.2425 61.6277L58.2964 61.9517ZM58.0001 61.7311L58.0001 60.7311L57.9984 60.7311L58.0001 61.7311ZM48.3627 61.7304L48.3645 60.7304H48.3627V61.7304ZM48.067 61.9532L49.0125 62.2789L49.0126 62.2788L48.067 61.9532ZM44.9256 64.2266L44.9277 65.2266L44.9277 65.2266L44.9256 64.2266ZM41.7602 61.9457L42.7056 61.62L42.7054 61.6193L41.7602 61.9457ZM41.4901 61.7304L41.5234 62.7298L41.525 62.7298L41.4901 61.7304ZM38.7358 59.439L37.7441 59.5684L37.7452 59.5761L38.7358 59.439ZM38.708 59.3895L37.708 59.3895V59.6629L37.8471 59.8982L38.708 59.3895ZM44.9219 63.0104L44.9155 62.0104L44.9154 62.0104L44.9219 63.0104ZM47.0437 60.8811L48.0436 60.8674L48.0436 60.867L47.0437 60.8811ZM44.9053 58.763L44.9105 59.763L44.9105 59.763L44.9053 58.763ZM42.7828 60.8983L43.7828 60.8893L43.7828 60.8892L42.7828 60.8983ZM61.4589 63.0104L61.4505 62.0104L61.4505 62.0104L61.4589 63.0104ZM63.5792 60.8788L64.579 60.8631L64.579 60.8628L63.5792 60.8788ZM61.4371 58.763L61.4435 59.763L61.4436 59.763L61.4371 58.763ZM59.3168 60.9006L60.3167 60.8884L60.3167 60.8882L59.3168 60.9006ZM39.6739 57.306C39.7995 56.8373 39.9044 56.5648 40.0785 56.3599L38.5544 55.0648C38.0668 55.6387 37.8731 56.2996 37.7421 56.7882L39.6739 57.306ZM40.0785 56.36C40.3184 56.0776 40.6248 55.8929 41.038 55.781L40.5151 53.8505C39.7759 54.0507 39.0963 54.4273 38.5545 55.0647L40.0785 56.36ZM41.038 55.781C42.3872 55.4156 43.7155 55.0479 45.0569 54.6895L44.5407 52.7572C43.1976 53.1161 41.8474 53.4897 40.5151 53.8505L41.038 55.781ZM45.0556 54.6898C45.501 54.5715 45.838 54.3278 46.0973 53.9825L44.4982 52.7814C44.4902 52.792 44.4875 52.7942 44.4903 52.7914C44.4935 52.7883 44.5005 52.7819 44.5111 52.7746C44.5218 52.7673 44.5319 52.7618 44.5397 52.7583C44.5471 52.755 44.5488 52.7551 44.542 52.7569L45.0556 54.6898ZM46.0967 53.9834C46.4894 53.4617 46.8866 52.9422 47.2863 52.4196C47.6852 51.8979 48.0869 51.3729 48.4851 50.8449L46.8882 49.6407C46.4949 50.1623 46.0975 50.6817 45.6976 51.2046C45.2984 51.7266 44.8969 52.2518 44.4988 52.7805L46.0967 53.9834ZM48.4851 50.8448C49.0072 50.1523 49.6532 49.8311 50.5135 49.83L50.5109 47.83C49.0229 47.8319 47.7871 48.4485 46.8882 49.6407L48.4851 50.8448ZM50.5133 49.83C53.3918 49.827 56.2695 49.8255 59.1469 49.8307L59.1506 47.8307C56.2703 47.8255 53.3903 47.827 50.5112 47.83L50.5133 49.83ZM59.147 49.8307C60.0935 49.8324 60.7651 50.2068 61.2693 51.0197L62.9689 49.9655C62.1031 48.5696 60.7925 47.8336 59.1505 47.8307L59.147 49.8307ZM61.2693 51.0197C61.8887 52.0184 62.514 53.0144 63.1489 54.006L64.8332 52.9275C64.2046 51.9458 63.5845 50.9581 62.9689 49.9656L61.2693 51.0197ZM63.1484 54.0052C63.3307 54.2905 63.6061 54.5323 63.9075 54.6772L64.7739 52.8746C64.7872 52.881 64.7954 52.8862 64.7994 52.8888C64.8035 52.8916 64.8059 52.8936 64.8074 52.8949C64.8089 52.8962 64.8114 52.8986 64.815 52.9027C64.8185 52.9067 64.8252 52.9149 64.8337 52.9283L63.1484 54.0052ZM63.9087 54.6777C64.5655 54.9924 65.2278 55.2899 65.878 55.5813L66.6959 53.7562C66.0436 53.4638 65.4034 53.1761 64.7727 52.874L63.9087 54.6777ZM65.8779 55.5812C66.3125 55.7761 66.5772 56.0102 66.738 56.2584C66.8978 56.5052 67.0016 56.8376 66.9954 57.3086L68.9952 57.3348C69.0056 56.5438 68.8284 55.8068 68.4165 55.171C68.0056 54.5366 67.4078 54.0753 66.696 53.7562L65.8779 55.5812ZM66.9954 57.3086C66.985 58.0986 67.0285 58.652 66.9626 59.2727L68.9515 59.4837C69.0297 58.7464 68.9876 57.9164 68.9952 57.3348L66.9954 57.3086ZM66.9626 59.2727C66.8675 60.1695 66.2357 60.7307 65.3415 60.7207L65.3192 62.7206C67.2505 62.7421 68.748 61.4005 68.9515 59.4838L66.9626 59.2727ZM65.3414 60.7207C65.0445 60.7174 64.6384 60.7446 64.2566 60.9833C63.8673 61.2266 63.6619 61.5885 63.5317 61.8928L65.3703 62.6799C65.3848 62.6459 65.3961 62.6232 65.4038 62.609C65.4115 62.5949 65.4142 62.5919 65.411 62.5962C65.4076 62.6009 65.398 62.6133 65.3811 62.6294C65.3638 62.6459 65.3422 62.6633 65.3165 62.6793C65.291 62.6952 65.2668 62.7066 65.2466 62.7141C65.2269 62.7215 65.2141 62.7242 65.2115 62.7247C65.2093 62.7251 65.216 62.7237 65.2346 62.7224C65.2534 62.7211 65.2807 62.7201 65.3192 62.7206L65.3414 60.7207ZM63.5318 61.8924C63.1644 62.7498 62.2716 63.2763 61.3762 63.2273L61.2669 65.2243C62.975 65.3178 64.6617 64.3334 65.3701 62.6803L63.5318 61.8924ZM61.3765 63.2273C60.3581 63.1713 59.5642 62.5722 59.243 61.6293L57.3498 62.2741C57.9395 64.0052 59.4505 65.1243 61.2666 65.2243L61.3765 63.2273ZM59.2425 61.6277C59.1964 61.4932 59.0858 61.2039 58.7995 60.9852C58.4989 60.7555 58.1763 60.7311 58.0001 60.7311V62.7311C57.9979 62.7311 57.7953 62.7349 57.5853 62.5744C57.3896 62.4249 57.3401 62.2459 57.3504 62.2757L59.2425 61.6277ZM57.9984 60.7311C54.7868 60.7364 51.576 60.7364 48.3645 60.7304L48.3608 62.7304C51.5747 62.7364 54.7879 62.7364 58.0017 62.7311L57.9984 60.7311ZM48.3627 60.7304C48.1677 60.7304 47.8414 60.7629 47.5433 61.0016C47.268 61.2221 47.163 61.5071 47.1215 61.6276L49.0126 62.2788C49.0258 62.2403 48.9794 62.4138 48.7935 62.5627C48.5849 62.7298 48.3791 62.7304 48.3627 62.7304V60.7304ZM47.1216 61.6275C46.7849 62.6049 45.9096 63.2245 44.9235 63.2266L44.9277 65.2266C46.7822 65.2226 48.4038 64.0461 49.0125 62.2789L47.1216 61.6275ZM44.9235 63.2266C43.9205 63.2287 43.0479 62.6134 42.7056 61.62L40.8147 62.2714C41.4298 64.057 43.0526 65.2305 44.9277 65.2266L44.9235 63.2266ZM42.7054 61.6193C42.6811 61.5491 42.5913 61.2682 42.3458 61.0435C42.0439 60.7672 41.6919 60.7227 41.4551 60.731L41.525 62.7298C41.4601 62.732 41.2179 62.7224 40.9956 62.5189C40.9038 62.4349 40.8548 62.3518 40.8332 62.3103C40.8137 62.2727 40.8074 62.2504 40.8149 62.2721L42.7054 61.6193ZM41.4567 60.7309C40.5176 60.7623 39.8429 60.1447 39.7263 59.3019L37.7452 59.5761C37.9992 61.4118 39.5394 62.796 41.5234 62.7298L41.4567 60.7309ZM39.7274 59.3097C39.7101 59.177 39.6702 59.0722 39.6377 59.0027C39.6058 58.9345 39.5731 58.8837 39.5568 58.8593C39.5434 58.8393 39.5247 58.8132 39.5319 58.8234C39.5326 58.8243 39.537 58.8306 39.5429 58.8393C39.5488 58.8482 39.5581 58.8625 39.5689 58.8808L37.8471 59.8982C37.8718 59.9401 37.8949 59.9724 37.9003 59.9801C37.9133 59.9984 37.9005 59.9805 37.8926 59.9687C37.8818 59.9524 37.854 59.9098 37.826 59.8499C37.7974 59.7887 37.7604 59.6924 37.7442 59.5683L39.7274 59.3097ZM39.708 59.3895C39.708 58.6326 39.708 57.807 39.708 57.0471H37.708C37.708 57.807 37.708 58.6326 37.708 59.3895L39.708 59.3895ZM48.2321 61.5179C48.2386 61.5179 48.2451 61.5179 48.2515 61.5179C48.258 61.5179 48.2645 61.5179 48.2709 61.5179C48.2774 61.5179 48.2839 61.5179 48.2903 61.5179C48.2968 61.5179 48.3033 61.5179 48.3098 61.5179C48.3162 61.5179 48.3227 61.5179 48.3292 61.5179C48.3356 61.5179 48.3421 61.5179 48.3486 61.5179C48.3551 61.5179 48.3615 61.5179 48.368 61.5179C48.3745 61.5179 48.3809 61.5179 48.3874 61.5179C48.3939 61.5179 48.4003 61.5179 48.4068 61.5179C48.4133 61.5179 48.4198 61.5179 48.4262 61.5179C48.4327 61.5179 48.4392 61.5179 48.4456 61.5179C48.4521 61.5179 48.4586 61.5179 48.465 61.5179C48.4715 61.5179 48.478 61.5179 48.4844 61.5179C48.4909 61.5179 48.4974 61.5179 48.5039 61.5179C48.5103 61.5179 48.5168 61.5179 48.5233 61.5179C48.5297 61.5179 48.5362 61.5179 48.5427 61.5179C48.5491 61.5179 48.5556 61.5179 48.5621 61.5179C48.5685 61.5179 48.575 61.5179 48.5815 61.5179C48.5879 61.5179 48.5944 61.5179 48.6009 61.5179C48.6074 61.5179 48.6138 61.5179 48.6203 61.5179C48.6268 61.5179 48.6332 61.5179 48.6397 61.5179C48.6462 61.5179 48.6526 61.5179 48.6591 61.5179C48.6656 61.5179 48.672 61.5179 48.6785 61.5179C48.685 61.5179 48.6914 61.5179 48.6979 61.5179C48.7044 61.5179 48.7108 61.5179 48.7173 61.5179C48.7238 61.5179 48.7302 61.5179 48.7367 61.5179C48.7432 61.5179 48.7496 61.5179 48.7561 61.5179C48.7626 61.5179 48.769 61.5179 48.7755 61.5179C48.782 61.5179 48.7884 61.5179 48.7949 61.5179C48.8014 61.5179 48.8078 61.5179 48.8143 61.5179C48.8208 61.5179 48.8272 61.5179 48.8337 61.5179C48.8402 61.5179 48.8466 61.5179 48.8531 61.5179C48.8596 61.5179 48.866 61.5179 48.8725 61.5179C48.879 61.5179 48.8854 61.5179 48.8919 61.5179C48.8984 61.5179 48.9048 61.5179 48.9113 61.5179C48.9178 61.5179 48.9242 61.5179 48.9307 61.5179C48.9372 61.5179 48.9436 61.5179 48.9501 61.5179C48.9566 61.5179 48.963 61.5179 48.9695 61.5179C48.976 61.5179 48.9824 61.5179 48.9889 61.5179C48.9954 61.5179 49.0018 61.5179 49.0083 61.5179C49.0148 61.5179 49.0212 61.5179 49.0277 61.5179C49.0341 61.5179 49.0406 61.5179 49.0471 61.5179C49.0535 61.5179 49.06 61.5179 49.0665 61.5179C49.0729 61.5179 49.0794 61.5179 49.0859 61.5179C49.0923 61.5179 49.0988 61.5179 49.1053 61.5179C49.1117 61.5179 49.1182 61.5179 49.1247 61.5179C49.1311 61.5179 49.1376 61.5179 49.144 61.5179C49.1505 61.5179 49.157 61.5179 49.1634 61.5179C49.1699 61.5179 49.1764 61.5179 49.1828 61.5179C49.1893 61.5179 49.1958 61.5179 49.2022 61.5179C49.2087 61.5179 49.2152 61.5179 49.2216 61.5179C49.2281 61.5179 49.2345 61.5179 49.241 61.5179C49.2475 61.5179 49.2539 61.5179 49.2604 61.5179C49.2669 61.5179 49.2733 61.5179 49.2798 61.5179C49.2863 61.5179 49.2927 61.5179 49.2992 61.5179C49.3056 61.5179 49.3121 61.5179 49.3186 61.5179C49.325 61.5179 49.3315 61.5179 49.338 61.5179C49.3444 61.5179 49.3509 61.5179 49.3573 61.5179C49.3638 61.5179 49.3703 61.5179 49.3767 61.5179C49.3832 61.5179 49.3897 61.5179 49.3961 61.5179C49.4026 61.5179 49.409 61.5179 49.4155 61.5179C49.422 61.5179 49.4284 61.5179 49.4349 61.5179C49.4414 61.5179 49.4478 61.5179 49.4543 61.5179C49.4607 61.5179 49.4672 61.5179 49.4737 61.5179C49.4801 61.5179 49.4866 61.5179 49.493 61.5179C49.4995 61.5179 49.506 61.5179 49.5124 61.5179C49.5189 61.5179 49.5254 61.5179 49.5318 61.5179C49.5383 61.5179 49.5447 61.5179 49.5512 61.5179C49.5577 61.5179 49.5641 61.5179 49.5706 61.5179C49.577 61.5179 49.5835 61.5179 49.59 61.5179C49.5964 61.5179 49.6029 61.5179 49.6094 61.5179C49.6158 61.5179 49.6223 61.5179 49.6287 61.5179C49.6352 61.5179 49.6417 61.5179 49.6481 61.5179C49.6546 61.5179 49.661 61.5179 49.6675 61.5179C49.674 61.5179 49.6804 61.5179 49.6869 61.5179C49.6933 61.5179 49.6998 61.5179 49.7063 61.5179C49.7127 61.5179 49.7192 61.5179 49.7256 61.5179C49.7321 61.5179 49.7386 61.5179 49.745 61.5179C49.7515 61.5179 49.7579 61.5179 49.7644 61.5179C49.7709 61.5179 49.7773 61.5179 49.7838 61.5179C49.7902 61.5179 49.7967 61.5179 49.8032 61.5179C49.8096 61.5179 49.8161 61.5179 49.8225 61.5179C49.829 61.5179 49.8355 61.5179 49.8419 61.5179C49.8484 61.5179 49.8548 61.5179 49.8613 61.5179C49.8678 61.5179 49.8742 61.5179 49.8807 61.5179C49.8871 61.5179 49.8936 61.5179 49.9 61.5179C49.9065 61.5179 49.913 61.5179 49.9194 61.5179C49.9259 61.5179 49.9323 61.5179 49.9388 61.5179C49.9453 61.5179 49.9517 61.5179 49.9582 61.5179C49.9646 61.5179 49.9711 61.5179 49.9776 61.5179C49.984 61.5179 49.9905 61.5179 49.9969 61.5179C50.0034 61.5179 50.0098 61.5179 50.0163 61.5179C50.0228 61.5179 50.0292 61.5179 50.0357 61.5179C50.0421 61.5179 50.0486 61.5179 50.055 61.5179C50.0615 61.5179 50.068 61.5179 50.0744 61.5179C50.0809 61.5179 50.0873 61.5179 50.0938 61.5179C50.1003 61.5179 50.1067 61.5179 50.1132 61.5179C50.1196 61.5179 50.1261 61.5179 50.1325 61.5179C50.139 61.5179 50.1455 61.5179 50.1519 61.5179C50.1584 61.5179 50.1648 61.5179 50.1713 61.5179C50.1777 61.5179 50.1842 61.5179 50.1907 61.5179C50.1971 61.5179 50.2036 61.5179 50.21 61.5179C50.2165 61.5179 50.2229 61.5179 50.2294 61.5179C50.2359 61.5179 50.2423 61.5179 50.2488 61.5179C50.2552 61.5179 50.2617 61.5179 50.2681 61.5179C50.2746 61.5179 50.281 61.5179 50.2875 61.5179C50.294 61.5179 50.3004 61.5179 50.3069 61.5179C50.3133 61.5179 50.3198 61.5179 50.3262 61.5179C50.3327 61.5179 50.3392 61.5179 50.3456 61.5179C50.3521 61.5179 50.3585 61.5179 50.365 61.5179C50.3714 61.5179 50.3779 61.5179 50.3843 61.5179C50.3908 61.5179 50.3973 61.5179 50.4037 61.5179C50.4102 61.5179 50.4166 61.5179 50.4231 61.5179C50.4295 61.5179 50.436 61.5179 50.4424 61.5179C50.4489 61.5179 50.4554 61.5179 50.4618 61.5179C50.4683 61.5179 50.4747 61.5179 50.4812 61.5179C50.4876 61.5179 50.4941 61.5179 50.5005 61.5179C50.507 61.5179 50.5134 61.5179 50.5199 61.5179C50.5264 61.5179 50.5328 61.5179 50.5393 61.5179C50.5457 61.5179 50.5522 61.5179 50.5586 61.5179C50.5651 61.5179 50.5715 61.5179 50.578 61.5179C50.5845 61.5179 50.5909 61.5179 50.5974 61.5179C50.6038 61.5179 50.6103 61.5179 50.6167 61.5179C50.6232 61.5179 50.6296 61.5179 50.6361 61.5179C50.6425 61.5179 50.649 61.5179 50.6554 61.5179C50.6619 61.5179 50.6684 61.5179 50.6748 61.5179C50.6813 61.5179 50.6877 61.5179 50.6942 61.5179C50.7006 61.5179 50.7071 61.5179 50.7135 61.5179C50.72 61.5179 50.7264 61.5179 50.7329 61.5179C50.7393 61.5179 50.7458 61.5179 50.7523 61.5179C50.7587 61.5179 50.7652 61.5179 50.7716 61.5179C50.7781 61.5179 50.7845 61.5179 50.791 61.5179C50.7974 61.5179 50.8039 61.5179 50.8103 61.5179C50.8168 61.5179 50.8232 61.5179 50.8297 61.5179C50.8361 61.5179 50.8426 61.5179 50.849 61.5179C50.8555 61.5179 50.862 61.5179 50.8684 61.5179C50.8749 61.5179 50.8813 61.5179 50.8878 61.5179C50.8942 61.5179 50.9007 61.5179 50.9071 61.5179C50.9136 61.5179 50.92 61.5179 50.9265 61.5179C50.9329 61.5179 50.9394 61.5179 50.9458 61.5179C50.9523 61.5179 50.9587 61.5179 50.9652 61.5179C50.9716 61.5179 50.9781 61.5179 50.9845 61.5179C50.991 61.5179 50.9975 61.5179 51.0039 61.5179C51.0104 61.5179 51.0168 61.5179 51.0233 61.5179C51.0297 61.5179 51.0362 61.5179 51.0426 61.5179C51.0491 61.5179 51.0555 61.5179 51.062 61.5179C51.0684 61.5179 51.0749 61.5179 51.0813 61.5179C51.0878 61.5179 51.0942 61.5179 51.1007 61.5179C51.1071 61.5179 51.1136 61.5179 51.12 61.5179C51.1265 61.5179 51.1329 61.5179 51.1394 61.5179C51.1458 61.5179 51.1523 61.5179 51.1587 61.5179C51.1652 61.5179 51.1716 61.5179 51.1781 61.5179C51.1845 61.5179 51.191 61.5179 51.1974 61.5179C51.2039 61.5179 51.2103 61.5179 51.2168 61.5179C51.2232 61.5179 51.2297 61.5179 51.2361 61.5179C51.2426 61.5179 51.249 61.5179 51.2555 61.5179C51.2619 61.5179 51.2684 61.5179 51.2748 61.5179C51.2813 61.5179 51.2877 61.5179 51.2942 61.5179C51.3006 61.5179 51.3071 61.5179 51.3135 61.5179C51.32 61.5179 51.3264 61.5179 51.3329 61.5179C51.3393 61.5179 51.3458 61.5179 51.3522 61.5179C51.3587 61.5179 51.3651 61.5179 51.3716 61.5179C51.378 61.5179 51.3845 61.5179 51.3909 61.5179C51.3974 61.5179 51.4038 61.5179 51.4103 61.5179C51.4167 61.5179 51.4232 61.5179 51.4296 61.5179C51.4361 61.5179 51.4425 61.5179 51.449 61.5179C51.4554 61.5179 51.4619 61.5179 51.4683 61.5179C51.4748 61.5179 51.4812 61.5179 51.4877 61.5179C51.4941 61.5179 51.5006 61.5179 51.507 61.5179C51.5135 61.5179 51.5199 61.5179 51.5264 61.5179C51.5328 61.5179 51.5393 61.5179 51.5457 61.5179C51.5522 61.5179 51.5586 61.5179 51.5651 61.5179C51.5715 61.5179 51.578 61.5179 51.5844 61.5179C51.5909 61.5179 51.5973 61.5179 51.6038 61.5179C51.6102 61.5179 51.6167 61.5179 51.6231 61.5179C51.6296 61.5179 51.636 61.5179 51.6425 61.5179C51.6489 61.5179 51.6553 61.5179 51.6618 61.5179C51.6682 61.5179 51.6747 61.5179 51.6811 61.5179C51.6876 61.5179 51.694 61.5179 51.7005 61.5179C51.7069 61.5179 51.7134 61.5179 51.7198 61.5179C51.7263 61.5179 51.7327 61.5179 51.7392 61.5179C51.7456 61.5179 51.7521 61.5179 51.7585 61.5179C51.765 61.5179 51.7714 61.5179 51.7779 61.5179C51.7843 61.5179 51.7907 61.5179 51.7972 61.5179C51.8036 61.5179 51.8101 61.5179 51.8165 61.5179C51.823 61.5179 51.8294 61.5179 51.8359 61.5179C51.8423 61.5179 51.8488 61.5179 51.8552 61.5179C51.8617 61.5179 51.8681 61.5179 51.8746 61.5179C51.881 61.5179 51.8875 61.5179 51.8939 61.5179C51.9003 61.5179 51.9068 61.5179 51.9132 61.5179C51.9197 61.5179 51.9261 61.5179 51.9326 61.5179C51.939 61.5179 51.9455 61.5179 51.9519 61.5179C51.9584 61.5179 51.9648 61.5179 51.9713 61.5179C51.9777 61.5179 51.9842 61.5179 51.9906 61.5179C51.997 61.5179 52.0035 61.5179 52.0099 61.5179C52.0164 61.5179 52.0228 61.5179 52.0293 61.5179C52.0357 61.5179 52.0422 61.5179 52.0486 61.5179C52.0551 61.5179 52.0615 61.5179 52.068 61.5179C52.0744 61.5179 52.0808 61.5179 52.0873 61.5179C52.0937 61.5179 52.1002 61.5179 52.1066 61.5179C52.1131 61.5179 52.1195 61.5179 52.126 61.5179C52.1324 61.5179 52.1389 61.5179 52.1453 61.5179C52.1517 61.5179 52.1582 61.5179 52.1646 61.5179C52.1711 61.5179 52.1775 61.5179 52.184 61.5179C52.1904 61.5179 52.1969 61.5179 52.2033 61.5179C52.2098 61.5179 52.2162 61.5179 52.2226 61.5179C52.2291 61.5179 52.2355 61.5179 52.242 61.5179C52.2484 61.5179 52.2549 61.5179 52.2613 61.5179C52.2678 61.5179 52.2742 61.5179 52.2806 61.5179C52.2871 61.5179 52.2935 61.5179 52.3 61.5179C52.3064 61.5179 52.3129 61.5179 52.3193 61.5179C52.3258 61.5179 52.3322 61.5179 52.3386 61.5179C52.3451 61.5179 52.3515 61.5179 52.358 61.5179C52.3644 61.5179 52.3709 61.5179 52.3773 61.5179C52.3838 61.5179 52.3902 61.5179 52.3966 61.5179C52.4031 61.5179 52.4095 61.5179 52.416 61.5179C52.4224 61.5179 52.4289 61.5179 52.4353 61.5179C52.4418 61.5179 52.4482 61.5179 52.4546 61.5179C52.4611 61.5179 52.4675 61.5179 52.474 61.5179C52.4804 61.5179 52.4869 61.5179 52.4933 61.5179C52.4997 61.5179 52.5062 61.5179 52.5126 61.5179C52.5191 61.5179 52.5255 61.5179 52.532 61.5179C52.5384 61.5179 52.5449 61.5179 52.5513 61.5179C52.5577 61.5179 52.5642 61.5179 52.5706 61.5179C52.5771 61.5179 52.5835 61.5179 52.59 61.5179C52.5964 61.5179 52.6028 61.5179 52.6093 61.5179C52.6157 61.5179 52.6222 61.5179 52.6286 61.5179C52.6351 61.5179 52.6415 61.5179 52.6479 61.5179C52.6544 61.5179 52.6608 61.5179 52.6673 61.5179C52.6737 61.5179 52.6802 61.5179 52.6866 61.5179C52.693 61.5179 52.6995 61.5179 52.7059 61.5179C52.7124 61.5179 52.7188 61.5179 52.7253 61.5179C52.7317 61.5179 52.7381 61.5179 52.7446 61.5179C52.751 61.5179 52.7575 61.5179 52.7639 61.5179C52.7704 61.5179 52.7768 61.5179 52.7832 61.5179C52.7897 61.5179 52.7961 61.5179 52.8026 61.5179C52.809 61.5179 52.8155 61.5179 52.8219 61.5179C52.8283 61.5179 52.8348 61.5179 52.8412 61.5179C52.8477 61.5179 52.8541 61.5179 52.8605 61.5179C52.867 61.5179 52.8734 61.5179 52.8799 61.5179C52.8863 61.5179 52.8928 61.5179 52.8992 61.5179C52.9056 61.5179 52.9121 61.5179 52.9185 61.5179C52.925 61.5179 52.9314 61.5179 52.9378 61.5179C52.9443 61.5179 52.9507 61.5179 52.9572 61.5179C52.9636 61.5179 52.9701 61.5179 52.9765 61.5179C52.9829 61.5179 52.9894 61.5179 52.9958 61.5179C53.0023 61.5179 53.0087 61.5179 53.0151 61.5179C53.0216 61.5179 53.028 61.5179 53.0345 61.5179C53.0409 61.5179 53.0473 61.5179 53.0538 61.5179C53.0602 61.5179 53.0667 61.5179 53.0731 61.5179C53.0796 61.5179 53.086 61.5179 53.0924 61.5179C53.0989 61.5179 53.1053 61.5179 53.1118 61.5179C53.1182 61.5179 53.1246 61.5179 53.1311 61.5179C53.1375 61.5179 53.144 61.5179 53.1504 61.5179C53.1568 61.5179 53.1633 61.5179 53.1697 61.5179C53.1762 61.5179 53.1826 61.5179 53.189 61.5179C53.1955 61.5179 53.2019 61.5179 53.2084 61.5179C53.2148 61.5179 53.2212 61.5179 53.2277 61.5179C53.2341 61.5179 53.2406 61.5179 53.247 61.5179C53.2534 61.5179 53.2599 61.5179 53.2663 61.5179C53.2728 61.5179 53.2792 61.5179 53.2856 61.5179C53.2921 61.5179 53.2985 61.5179 53.305 61.5179C53.3114 61.5179 53.3178 61.5179 53.3243 61.5179C53.3307 61.5179 53.3372 61.5179 53.3436 61.5179C53.35 61.5179 53.3565 61.5179 53.3629 61.5179C53.3694 61.5179 53.3758 61.5179 53.3822 61.5179C53.3887 61.5179 53.3951 61.5179 53.4016 61.5179C53.408 61.5179 53.4144 61.5179 53.4209 61.5179C53.4273 61.5179 53.4338 61.5179 53.4402 61.5179C53.4466 61.5179 53.4531 61.5179 53.4595 61.5179C53.466 61.5179 53.4724 61.5179 53.4788 61.5179C53.4853 61.5179 53.4917 61.5179 53.4982 61.5179C53.5046 61.5179 53.511 61.5179 53.5175 61.5179C53.5239 61.5179 53.5303 61.5179 53.5368 61.5179C53.5432 61.5179 53.5497 61.5179 53.5561 61.5179C53.5625 61.5179 53.569 61.5179 53.5754 61.5179C53.5819 61.5179 53.5883 61.5179 53.5947 61.5179C53.6012 61.5179 53.6076 61.5179 53.6141 61.5179C53.6205 61.5179 53.6269 61.5179 53.6334 61.5179C53.6398 61.5179 53.6462 61.5179 53.6527 61.5179C53.6591 61.5179 53.6656 61.5179 53.672 61.5179C53.6784 61.5179 53.6849 61.5179 53.6913 61.5179C53.6978 61.5179 53.7042 61.5179 53.7106 61.5179C53.7171 61.5179 53.7235 61.5179 53.7299 61.5179C53.7364 61.5179 53.7428 61.5179 53.7493 61.5179C53.7557 61.5179 53.7621 61.5179 53.7686 61.5179C53.775 61.5179 53.7814 61.5179 53.7879 61.5179C53.7943 61.5179 53.8008 61.5179 53.8072 61.5179C53.8136 61.5179 53.8201 61.5179 53.8265 61.5179C53.8329 61.5179 53.8394 61.5179 53.8458 61.5179C53.8523 61.5179 53.8587 61.5179 53.8651 61.5179C53.8716 61.5179 53.878 61.5179 53.8844 61.5179C53.8909 61.5179 53.8973 61.5179 53.9038 61.5179C53.9102 61.5179 53.9166 61.5179 53.9231 61.5179C53.9295 61.5179 53.9359 61.5179 53.9424 61.5179C53.9488 61.5179 53.9553 61.5179 53.9617 61.5179C53.9681 61.5179 53.9746 61.5179 53.981 61.5179C53.9874 61.5179 53.9939 61.5179 54.0003 61.5179C54.0068 61.5179 54.0132 61.5179 54.0196 61.5179C54.0261 61.5179 54.0325 61.5179 54.0389 61.5179C54.0454 61.5179 54.0518 61.5179 54.0583 61.5179C54.0647 61.5179 54.0711 61.5179 54.0776 61.5179C54.084 61.5179 54.0904 61.5179 54.0969 61.5179C54.1033 61.5179 54.1097 61.5179 54.1162 61.5179C54.1226 61.5179 54.1291 61.5179 54.1355 61.5179C54.1419 61.5179 54.1484 61.5179 54.1548 61.5179C54.1612 61.5179 54.1677 61.5179 54.1741 61.5179C54.1805 61.5179 54.187 61.5179 54.1934 61.5179C54.1999 61.5179 54.2063 61.5179 54.2127 61.5179C54.2192 61.5179 54.2256 61.5179 54.232 61.5179C54.2385 61.5179 54.2449 61.5179 54.2513 61.5179C54.2578 61.5179 54.2642 61.5179 54.2707 61.5179C54.2771 61.5179 54.2835 61.5179 54.29 61.5179C54.2964 61.5179 54.3028 61.5179 54.3093 61.5179C54.3157 61.5179 54.3221 61.5179 54.3286 61.5179C54.335 61.5179 54.3415 61.5179 54.3479 61.5179C54.3543 61.5179 54.3608 61.5179 54.3672 61.5179C54.3736 61.5179 54.3801 61.5179 54.3865 61.5179C54.3929 61.5179 54.3994 61.5179 54.4058 61.5179C54.4122 61.5179 54.4187 61.5179 54.4251 61.5179C54.4315 61.5179 54.438 61.5179 54.4444 61.5179C54.4509 61.5179 54.4573 61.5179 54.4637 61.5179C54.4702 61.5179 54.4766 61.5179 54.483 61.5179C54.4895 61.5179 54.4959 61.5179 54.5023 61.5179C54.5088 61.5179 54.5152 61.5179 54.5216 61.5179C54.5281 61.5179 54.5345 61.5179 54.5409 61.5179C54.5474 61.5179 54.5538 61.5179 54.5603 61.5179C54.5667 61.5179 54.5731 61.5179 54.5796 61.5179C54.586 61.5179 54.5924 61.5179 54.5989 61.5179C54.6053 61.5179 54.6117 61.5179 54.6182 61.5179C54.6246 61.5179 54.631 61.5179 54.6375 61.5179C54.6439 61.5179 54.6503 61.5179 54.6568 61.5179C54.6632 61.5179 54.6696 61.5179 54.6761 61.5179C54.6825 61.5179 54.6889 61.5179 54.6954 61.5179C54.7018 61.5179 54.7083 61.5179 54.7147 61.5179C54.7211 61.5179 54.7276 61.5179 54.734 61.5179C54.7404 61.5179 54.7469 61.5179 54.7533 61.5179C54.7597 61.5179 54.7662 61.5179 54.7726 61.5179C54.779 61.5179 54.7855 61.5179 54.7919 61.5179C54.7983 61.5179 54.8048 61.5179 54.8112 61.5179C54.8176 61.5179 54.8241 61.5179 54.8305 61.5179C54.8369 61.5179 54.8434 61.5179 54.8498 61.5179C54.8562 61.5179 54.8627 61.5179 54.8691 61.5179C54.8755 61.5179 54.882 61.5179 54.8884 61.5179C54.8948 61.5179 54.9013 61.5179 54.9077 61.5179C54.9141 61.5179 54.9206 61.5179 54.927 61.5179C54.9334 61.5179 54.9399 61.5179 54.9463 61.5179C54.9527 61.5179 54.9592 61.5179 54.9656 61.5179C54.972 61.5179 54.9785 61.5179 54.9849 61.5179C54.9914 61.5179 54.9978 61.5179 55.0042 61.5179C55.0107 61.5179 55.0171 61.5179 55.0235 61.5179C55.03 61.5179 55.0364 61.5179 55.0428 61.5179C55.0493 61.5179 55.0557 61.5179 55.0621 61.5179C55.0686 61.5179 55.075 61.5179 55.0814 61.5179C55.0879 61.5179 55.0943 61.5179 55.1007 61.5179C55.1072 61.5179 55.1136 61.5179 55.12 61.5179C55.1265 61.5179 55.1329 61.5179 55.1393 61.5179C55.1458 61.5179 55.1522 61.5179 55.1586 61.5179C55.165 61.5179 55.1715 61.5179 55.1779 61.5179C55.1843 61.5179 55.1908 61.5179 55.1972 61.5179C55.2036 61.5179 55.2101 61.5179 55.2165 61.5179C55.2229 61.5179 55.2294 61.5179 55.2358 61.5179C55.2422 61.5179 55.2487 61.5179 55.2551 61.5179C55.2615 61.5179 55.268 61.5179 55.2744 61.5179C55.2808 61.5179 55.2873 61.5179 55.2937 61.5179C55.3001 61.5179 55.3066 61.5179 55.313 61.5179C55.3194 61.5179 55.3259 61.5179 55.3323 61.5179C55.3387 61.5179 55.3452 61.5179 55.3516 61.5179C55.358 61.5179 55.3645 61.5179 55.3709 61.5179C55.3773 61.5179 55.3838 61.5179 55.3902 61.5179C55.3966 61.5179 55.4031 61.5179 55.4095 61.5179C55.4159 61.5179 55.4224 61.5179 55.4288 61.5179C55.4352 61.5179 55.4417 61.5179 55.4481 61.5179C55.4545 61.5179 55.4609 61.5179 55.4674 61.5179C55.4738 61.5179 55.4802 61.5179 55.4867 61.5179C55.4931 61.5179 55.4995 61.5179 55.506 61.5179C55.5124 61.5179 55.5188 61.5179 55.5253 61.5179C55.5317 61.5179 55.5381 61.5179 55.5446 61.5179C55.551 61.5179 55.5574 61.5179 55.5639 61.5179C55.5703 61.5179 55.5767 61.5179 55.5832 61.5179C55.5896 61.5179 55.596 61.5179 55.6025 61.5179C55.6089 61.5179 55.6153 61.5179 55.6217 61.5179C55.6282 61.5179 55.6346 61.5179 55.641 61.5179C55.6475 61.5179 55.6539 61.5179 55.6603 61.5179C55.6668 61.5179 55.6732 61.5179 55.6796 61.5179C55.6861 61.5179 55.6925 61.5179 55.6989 61.5179C55.7054 61.5179 55.7118 61.5179 55.7182 61.5179C55.7247 61.5179 55.7311 61.5179 55.7375 61.5179C55.7439 61.5179 55.7504 61.5179 55.7568 61.5179C55.7632 61.5179 55.7697 61.5179 55.7761 61.5179C55.7825 61.5179 55.789 61.5179 55.7954 61.5179C55.8018 61.5179 55.8083 61.5179 55.8147 61.5179C55.8211 61.5179 55.8276 61.5179 55.834 61.5179C55.8404 61.5179 55.8468 61.5179 55.8533 61.5179C55.8597 61.5179 55.8661 61.5179 55.8726 61.5179C55.879 61.5179 55.8854 61.5179 55.8919 61.5179C55.8983 61.5179 55.9047 61.5179 55.9112 61.5179C55.9176 61.5179 55.924 61.5179 55.9305 61.5179C55.9369 61.5179 55.9433 61.5179 55.9497 61.5179C55.9562 61.5179 55.9626 61.5179 55.969 61.5179C55.9755 61.5179 55.9819 61.5179 55.9883 61.5179C55.9948 61.5179 56.0012 61.5179 56.0076 61.5179C56.0141 61.5179 56.0205 61.5179 56.0269 61.5179C56.0333 61.5179 56.0398 61.5179 56.0462 61.5179C56.0526 61.5179 56.0591 61.5179 56.0655 61.5179C56.0719 61.5179 56.0784 61.5179 56.0848 61.5179C56.0912 61.5179 56.0977 61.5179 56.1041 61.5179C56.1105 61.5179 56.1169 61.5179 56.1234 61.5179C56.1298 61.5179 56.1362 61.5179 56.1427 61.5179C56.1491 61.5179 56.1555 61.5179 56.162 61.5179C56.1684 61.5179 56.1748 61.5179 56.1812 61.5179C56.1877 61.5179 56.1941 61.5179 56.2005 61.5179C56.207 61.5179 56.2134 61.5179 56.2198 61.5179C56.2263 61.5179 56.2327 61.5179 56.2391 61.5179C56.2455 61.5179 56.252 61.5179 56.2584 61.5179C56.2648 61.5179 56.2713 61.5179 56.2777 61.5179C56.2841 61.5179 56.2906 61.5179 56.297 61.5179C56.3034 61.5179 56.3099 61.5179 56.3163 61.5179C56.3227 61.5179 56.3291 61.5179 56.3356 61.5179C56.342 61.5179 56.3484 61.5179 56.3549 61.5179C56.3613 61.5179 56.3677 61.5179 56.3742 61.5179C56.3806 61.5179 56.387 61.5179 56.3934 61.5179C56.3999 61.5179 56.4063 61.5179 56.4127 61.5179C56.4192 61.5179 56.4256 61.5179 56.432 61.5179C56.4384 61.5179 56.4449 61.5179 56.4513 61.5179C56.4577 61.5179 56.4642 61.5179 56.4706 61.5179C56.477 61.5179 56.4835 61.5179 56.4899 61.5179C56.4963 61.5179 56.5027 61.5179 56.5092 61.5179C56.5156 61.5179 56.522 61.5179 56.5285 61.5179C56.5349 61.5179 56.5413 61.5179 56.5478 61.5179C56.5542 61.5179 56.5606 61.5179 56.567 61.5179C56.5735 61.5179 56.5799 61.5179 56.5863 61.5179C56.5928 61.5179 56.5992 61.5179 56.6056 61.5179C56.612 61.5179 56.6185 61.5179 56.6249 61.5179C56.6313 61.5179 56.6378 61.5179 56.6442 61.5179C56.6506 61.5179 56.6571 61.5179 56.6635 61.5179C56.6699 61.5179 56.6763 61.5179 56.6828 61.5179C56.6892 61.5179 56.6956 61.5179 56.7021 61.5179C56.7085 61.5179 56.7149 61.5179 56.7213 61.5179C56.7278 61.5179 56.7342 61.5179 56.7406 61.5179C56.7471 61.5179 56.7535 61.5179 56.7599 61.5179C56.7664 61.5179 56.7728 61.5179 56.7792 61.5179C56.7856 61.5179 56.7921 61.5179 56.7985 61.5179C56.8049 61.5179 56.8114 61.5179 56.8178 61.5179C56.8242 61.5179 56.8306 61.5179 56.8371 61.5179C56.8435 61.5179 56.8499 61.5179 56.8564 61.5179C56.8628 61.5179 56.8692 61.5179 56.8756 61.5179C56.8821 61.5179 56.8885 61.5179 56.8949 61.5179C56.9014 61.5179 56.9078 61.5179 56.9142 61.5179C56.9206 61.5179 56.9271 61.5179 56.9335 61.5179C56.9399 61.5179 56.9464 61.5179 56.9528 61.5179C56.9592 61.5179 56.9656 61.5179 56.9721 61.5179C56.9785 61.5179 56.9849 61.5179 56.9914 61.5179C56.9978 61.5179 57.0042 61.5179 57.0106 61.5179C57.0171 61.5179 57.0235 61.5179 57.0299 61.5179C57.0364 61.5179 57.0428 61.5179 57.0492 61.5179C57.0556 61.5179 57.0621 61.5179 57.0685 61.5179C57.0749 61.5179 57.0814 61.5179 57.0878 61.5179C57.0942 61.5179 57.1006 61.5179 57.1071 61.5179C57.1135 61.5179 57.1199 61.5179 57.1264 61.5179C57.1328 61.5179 57.1392 61.5179 57.1456 61.5179C57.1521 61.5179 57.1585 61.5179 57.1649 61.5179C57.1714 61.5179 57.1778 61.5179 57.1842 61.5179C57.1906 61.5179 57.1971 61.5179 57.2035 61.5179C57.2099 61.5179 57.2164 61.5179 57.2228 61.5179C57.2292 61.5179 57.2356 61.5179 57.2421 61.5179C57.2485 61.5179 57.2549 61.5179 57.2614 61.5179C57.2678 61.5179 57.2742 61.5179 57.2806 61.5179C57.2871 61.5179 57.2935 61.5179 57.2999 61.5179C57.3064 61.5179 57.3128 61.5179 57.3192 61.5179C57.3256 61.5179 57.3321 61.5179 57.3385 61.5179C57.3449 61.5179 57.3514 61.5179 57.3578 61.5179C57.3642 61.5179 57.3706 61.5179 57.3771 61.5179C57.3835 61.5179 57.3899 61.5179 57.3964 61.5179C57.4028 61.5179 57.4092 61.5179 57.4156 61.5179C57.4221 61.5179 57.4285 61.5179 57.4349 61.5179C57.4413 61.5179 57.4478 61.5179 57.4542 61.5179C57.4606 61.5179 57.4671 61.5179 57.4735 61.5179C57.4799 61.5179 57.4863 61.5179 57.4928 61.5179C57.4992 61.5179 57.5056 61.5179 57.5121 61.5179C57.5185 61.5179 57.5249 61.5179 57.5313 61.5179C57.5378 61.5179 57.5442 61.5179 57.5506 61.5179C57.557 61.5179 57.5635 61.5179 57.5699 61.5179C57.5763 61.5179 57.5828 61.5179 57.5892 61.5179C57.5956 61.5179 57.602 61.5179 57.6085 61.5179C57.6149 61.5179 57.6213 61.5179 57.6278 61.5179C57.6342 61.5179 57.6406 61.5179 57.647 61.5179C57.6535 61.5179 57.6599 61.5179 57.6663 61.5179C57.6728 61.5179 57.6792 61.5179 57.6856 61.5179C57.692 61.5179 57.6985 61.5179 57.7049 61.5179C57.7113 61.5179 57.7177 61.5179 57.7242 61.5179C57.7306 61.5179 57.737 61.5179 57.7435 61.5179C57.7499 61.5179 57.7563 61.5179 57.7627 61.5179C57.7692 61.5179 57.7756 61.5179 57.782 61.5179C57.7884 61.5179 57.7949 61.5179 57.8013 61.5179C57.8077 61.5179 57.8142 61.5179 57.8206 61.5179C57.827 61.5179 57.8334 61.5179 57.8399 61.5179C57.8463 61.5179 57.8527 61.5179 57.8592 61.5179C57.8656 61.5179 57.872 61.5179 57.8784 61.5179C57.8849 61.5179 57.8913 61.5179 57.8977 61.5179C57.9041 61.5179 57.9106 61.5179 57.917 61.5179C57.9234 61.5179 57.9299 61.5179 57.9363 61.5179C57.9427 61.5179 57.9491 61.5179 57.9556 61.5179C57.962 61.5179 57.9684 61.5179 57.9748 61.5179C57.9813 61.5179 57.9877 61.5179 57.9941 61.5179C58.0006 61.5179 58.007 61.5179 58.0134 61.5179C58.0198 61.5179 58.0263 61.5179 58.0327 61.5179C58.0391 61.5179 58.0455 61.5179 58.052 61.5179C58.0584 61.5179 58.0648 61.5179 58.0713 61.5179C58.0777 61.5179 58.0841 61.5179 58.0905 61.5179C58.097 61.5179 58.1034 61.5179 58.1098 61.5179C58.1162 61.5179 58.1227 61.5179 58.1291 61.5179V59.5179C58.1227 59.5179 58.1162 59.5179 58.1098 59.5179C58.1034 59.5179 58.097 59.5179 58.0905 59.5179C58.0841 59.5179 58.0777 59.5179 58.0713 59.5179C58.0648 59.5179 58.0584 59.5179 58.052 59.5179C58.0455 59.5179 58.0391 59.5179 58.0327 59.5179C58.0263 59.5179 58.0198 59.5179 58.0134 59.5179C58.007 59.5179 58.0006 59.5179 57.9941 59.5179C57.9877 59.5179 57.9813 59.5179 57.9748 59.5179C57.9684 59.5179 57.962 59.5179 57.9556 59.5179C57.9491 59.5179 57.9427 59.5179 57.9363 59.5179C57.9299 59.5179 57.9234 59.5179 57.917 59.5179C57.9106 59.5179 57.9041 59.5179 57.8977 59.5179C57.8913 59.5179 57.8849 59.5179 57.8784 59.5179C57.872 59.5179 57.8656 59.5179 57.8592 59.5179C57.8527 59.5179 57.8463 59.5179 57.8399 59.5179C57.8334 59.5179 57.827 59.5179 57.8206 59.5179C57.8142 59.5179 57.8077 59.5179 57.8013 59.5179C57.7949 59.5179 57.7884 59.5179 57.782 59.5179C57.7756 59.5179 57.7692 59.5179 57.7627 59.5179C57.7563 59.5179 57.7499 59.5179 57.7435 59.5179C57.737 59.5179 57.7306 59.5179 57.7242 59.5179C57.7177 59.5179 57.7113 59.5179 57.7049 59.5179C57.6985 59.5179 57.692 59.5179 57.6856 59.5179C57.6792 59.5179 57.6728 59.5179 57.6663 59.5179C57.6599 59.5179 57.6535 59.5179 57.647 59.5179C57.6406 59.5179 57.6342 59.5179 57.6278 59.5179C57.6213 59.5179 57.6149 59.5179 57.6085 59.5179C57.602 59.5179 57.5956 59.5179 57.5892 59.5179C57.5828 59.5179 57.5763 59.5179 57.5699 59.5179C57.5635 59.5179 57.557 59.5179 57.5506 59.5179C57.5442 59.5179 57.5378 59.5179 57.5313 59.5179C57.5249 59.5179 57.5185 59.5179 57.5121 59.5179C57.5056 59.5179 57.4992 59.5179 57.4928 59.5179C57.4863 59.5179 57.4799 59.5179 57.4735 59.5179C57.4671 59.5179 57.4606 59.5179 57.4542 59.5179C57.4478 59.5179 57.4413 59.5179 57.4349 59.5179C57.4285 59.5179 57.4221 59.5179 57.4156 59.5179C57.4092 59.5179 57.4028 59.5179 57.3964 59.5179C57.3899 59.5179 57.3835 59.5179 57.3771 59.5179C57.3706 59.5179 57.3642 59.5179 57.3578 59.5179C57.3514 59.5179 57.3449 59.5179 57.3385 59.5179C57.3321 59.5179 57.3256 59.5179 57.3192 59.5179C57.3128 59.5179 57.3064 59.5179 57.2999 59.5179C57.2935 59.5179 57.2871 59.5179 57.2806 59.5179C57.2742 59.5179 57.2678 59.5179 57.2614 59.5179C57.2549 59.5179 57.2485 59.5179 57.2421 59.5179C57.2356 59.5179 57.2292 59.5179 57.2228 59.5179C57.2164 59.5179 57.2099 59.5179 57.2035 59.5179C57.1971 59.5179 57.1906 59.5179 57.1842 59.5179C57.1778 59.5179 57.1714 59.5179 57.1649 59.5179C57.1585 59.5179 57.1521 59.5179 57.1456 59.5179C57.1392 59.5179 57.1328 59.5179 57.1264 59.5179C57.1199 59.5179 57.1135 59.5179 57.1071 59.5179C57.1006 59.5179 57.0942 59.5179 57.0878 59.5179C57.0814 59.5179 57.0749 59.5179 57.0685 59.5179C57.0621 59.5179 57.0556 59.5179 57.0492 59.5179C57.0428 59.5179 57.0364 59.5179 57.0299 59.5179C57.0235 59.5179 57.0171 59.5179 57.0106 59.5179C57.0042 59.5179 56.9978 59.5179 56.9914 59.5179C56.9849 59.5179 56.9785 59.5179 56.9721 59.5179C56.9656 59.5179 56.9592 59.5179 56.9528 59.5179C56.9464 59.5179 56.9399 59.5179 56.9335 59.5179C56.9271 59.5179 56.9206 59.5179 56.9142 59.5179C56.9078 59.5179 56.9014 59.5179 56.8949 59.5179C56.8885 59.5179 56.8821 59.5179 56.8756 59.5179C56.8692 59.5179 56.8628 59.5179 56.8564 59.5179C56.8499 59.5179 56.8435 59.5179 56.8371 59.5179C56.8306 59.5179 56.8242 59.5179 56.8178 59.5179C56.8114 59.5179 56.8049 59.5179 56.7985 59.5179C56.7921 59.5179 56.7856 59.5179 56.7792 59.5179C56.7728 59.5179 56.7664 59.5179 56.7599 59.5179C56.7535 59.5179 56.7471 59.5179 56.7406 59.5179C56.7342 59.5179 56.7278 59.5179 56.7213 59.5179C56.7149 59.5179 56.7085 59.5179 56.7021 59.5179C56.6956 59.5179 56.6892 59.5179 56.6828 59.5179C56.6763 59.5179 56.6699 59.5179 56.6635 59.5179C56.6571 59.5179 56.6506 59.5179 56.6442 59.5179C56.6378 59.5179 56.6313 59.5179 56.6249 59.5179C56.6185 59.5179 56.612 59.5179 56.6056 59.5179C56.5992 59.5179 56.5928 59.5179 56.5863 59.5179C56.5799 59.5179 56.5735 59.5179 56.567 59.5179C56.5606 59.5179 56.5542 59.5179 56.5478 59.5179C56.5413 59.5179 56.5349 59.5179 56.5285 59.5179C56.522 59.5179 56.5156 59.5179 56.5092 59.5179C56.5027 59.5179 56.4963 59.5179 56.4899 59.5179C56.4835 59.5179 56.477 59.5179 56.4706 59.5179C56.4642 59.5179 56.4577 59.5179 56.4513 59.5179C56.4449 59.5179 56.4384 59.5179 56.432 59.5179C56.4256 59.5179 56.4192 59.5179 56.4127 59.5179C56.4063 59.5179 56.3999 59.5179 56.3934 59.5179C56.387 59.5179 56.3806 59.5179 56.3742 59.5179C56.3677 59.5179 56.3613 59.5179 56.3549 59.5179C56.3484 59.5179 56.342 59.5179 56.3356 59.5179C56.3291 59.5179 56.3227 59.5179 56.3163 59.5179C56.3099 59.5179 56.3034 59.5179 56.297 59.5179C56.2906 59.5179 56.2841 59.5179 56.2777 59.5179C56.2713 59.5179 56.2648 59.5179 56.2584 59.5179C56.252 59.5179 56.2455 59.5179 56.2391 59.5179C56.2327 59.5179 56.2263 59.5179 56.2198 59.5179C56.2134 59.5179 56.207 59.5179 56.2005 59.5179C56.1941 59.5179 56.1877 59.5179 56.1812 59.5179C56.1748 59.5179 56.1684 59.5179 56.162 59.5179C56.1555 59.5179 56.1491 59.5179 56.1427 59.5179C56.1362 59.5179 56.1298 59.5179 56.1234 59.5179C56.1169 59.5179 56.1105 59.5179 56.1041 59.5179C56.0977 59.5179 56.0912 59.5179 56.0848 59.5179C56.0784 59.5179 56.0719 59.5179 56.0655 59.5179C56.0591 59.5179 56.0526 59.5179 56.0462 59.5179C56.0398 59.5179 56.0333 59.5179 56.0269 59.5179C56.0205 59.5179 56.0141 59.5179 56.0076 59.5179C56.0012 59.5179 55.9948 59.5179 55.9883 59.5179C55.9819 59.5179 55.9755 59.5179 55.969 59.5179C55.9626 59.5179 55.9562 59.5179 55.9497 59.5179C55.9433 59.5179 55.9369 59.5179 55.9305 59.5179C55.924 59.5179 55.9176 59.5179 55.9112 59.5179C55.9047 59.5179 55.8983 59.5179 55.8919 59.5179C55.8854 59.5179 55.879 59.5179 55.8726 59.5179C55.8661 59.5179 55.8597 59.5179 55.8533 59.5179C55.8468 59.5179 55.8404 59.5179 55.834 59.5179C55.8276 59.5179 55.8211 59.5179 55.8147 59.5179C55.8083 59.5179 55.8018 59.5179 55.7954 59.5179C55.789 59.5179 55.7825 59.5179 55.7761 59.5179C55.7697 59.5179 55.7632 59.5179 55.7568 59.5179C55.7504 59.5179 55.7439 59.5179 55.7375 59.5179C55.7311 59.5179 55.7247 59.5179 55.7182 59.5179C55.7118 59.5179 55.7054 59.5179 55.6989 59.5179C55.6925 59.5179 55.6861 59.5179 55.6796 59.5179C55.6732 59.5179 55.6668 59.5179 55.6603 59.5179C55.6539 59.5179 55.6475 59.5179 55.641 59.5179C55.6346 59.5179 55.6282 59.5179 55.6217 59.5179C55.6153 59.5179 55.6089 59.5179 55.6025 59.5179C55.596 59.5179 55.5896 59.5179 55.5832 59.5179C55.5767 59.5179 55.5703 59.5179 55.5639 59.5179C55.5574 59.5179 55.551 59.5179 55.5446 59.5179C55.5381 59.5179 55.5317 59.5179 55.5253 59.5179C55.5188 59.5179 55.5124 59.5179 55.506 59.5179C55.4995 59.5179 55.4931 59.5179 55.4867 59.5179C55.4802 59.5179 55.4738 59.5179 55.4674 59.5179C55.4609 59.5179 55.4545 59.5179 55.4481 59.5179C55.4417 59.5179 55.4352 59.5179 55.4288 59.5179C55.4224 59.5179 55.4159 59.5179 55.4095 59.5179C55.4031 59.5179 55.3966 59.5179 55.3902 59.5179C55.3838 59.5179 55.3773 59.5179 55.3709 59.5179C55.3645 59.5179 55.358 59.5179 55.3516 59.5179C55.3452 59.5179 55.3387 59.5179 55.3323 59.5179C55.3259 59.5179 55.3194 59.5179 55.313 59.5179C55.3066 59.5179 55.3001 59.5179 55.2937 59.5179C55.2873 59.5179 55.2808 59.5179 55.2744 59.5179C55.268 59.5179 55.2615 59.5179 55.2551 59.5179C55.2487 59.5179 55.2422 59.5179 55.2358 59.5179C55.2294 59.5179 55.2229 59.5179 55.2165 59.5179C55.2101 59.5179 55.2036 59.5179 55.1972 59.5179C55.1908 59.5179 55.1843 59.5179 55.1779 59.5179C55.1715 59.5179 55.165 59.5179 55.1586 59.5179C55.1522 59.5179 55.1458 59.5179 55.1393 59.5179C55.1329 59.5179 55.1265 59.5179 55.12 59.5179C55.1136 59.5179 55.1072 59.5179 55.1007 59.5179C55.0943 59.5179 55.0879 59.5179 55.0814 59.5179C55.075 59.5179 55.0686 59.5179 55.0621 59.5179C55.0557 59.5179 55.0493 59.5179 55.0428 59.5179C55.0364 59.5179 55.03 59.5179 55.0235 59.5179C55.0171 59.5179 55.0107 59.5179 55.0042 59.5179C54.9978 59.5179 54.9914 59.5179 54.9849 59.5179C54.9785 59.5179 54.972 59.5179 54.9656 59.5179C54.9592 59.5179 54.9527 59.5179 54.9463 59.5179C54.9399 59.5179 54.9334 59.5179 54.927 59.5179C54.9206 59.5179 54.9141 59.5179 54.9077 59.5179C54.9013 59.5179 54.8948 59.5179 54.8884 59.5179C54.882 59.5179 54.8755 59.5179 54.8691 59.5179C54.8627 59.5179 54.8562 59.5179 54.8498 59.5179C54.8434 59.5179 54.8369 59.5179 54.8305 59.5179C54.8241 59.5179 54.8176 59.5179 54.8112 59.5179C54.8048 59.5179 54.7983 59.5179 54.7919 59.5179C54.7855 59.5179 54.779 59.5179 54.7726 59.5179C54.7662 59.5179 54.7597 59.5179 54.7533 59.5179C54.7469 59.5179 54.7404 59.5179 54.734 59.5179C54.7276 59.5179 54.7211 59.5179 54.7147 59.5179C54.7083 59.5179 54.7018 59.5179 54.6954 59.5179C54.6889 59.5179 54.6825 59.5179 54.6761 59.5179C54.6696 59.5179 54.6632 59.5179 54.6568 59.5179C54.6503 59.5179 54.6439 59.5179 54.6375 59.5179C54.631 59.5179 54.6246 59.5179 54.6182 59.5179C54.6117 59.5179 54.6053 59.5179 54.5989 59.5179C54.5924 59.5179 54.586 59.5179 54.5796 59.5179C54.5731 59.5179 54.5667 59.5179 54.5603 59.5179C54.5538 59.5179 54.5474 59.5179 54.5409 59.5179C54.5345 59.5179 54.5281 59.5179 54.5216 59.5179C54.5152 59.5179 54.5088 59.5179 54.5023 59.5179C54.4959 59.5179 54.4895 59.5179 54.483 59.5179C54.4766 59.5179 54.4702 59.5179 54.4637 59.5179C54.4573 59.5179 54.4509 59.5179 54.4444 59.5179C54.438 59.5179 54.4315 59.5179 54.4251 59.5179C54.4187 59.5179 54.4122 59.5179 54.4058 59.5179C54.3994 59.5179 54.3929 59.5179 54.3865 59.5179C54.3801 59.5179 54.3736 59.5179 54.3672 59.5179C54.3608 59.5179 54.3543 59.5179 54.3479 59.5179C54.3415 59.5179 54.335 59.5179 54.3286 59.5179C54.3221 59.5179 54.3157 59.5179 54.3093 59.5179C54.3028 59.5179 54.2964 59.5179 54.29 59.5179C54.2835 59.5179 54.2771 59.5179 54.2707 59.5179C54.2642 59.5179 54.2578 59.5179 54.2513 59.5179C54.2449 59.5179 54.2385 59.5179 54.232 59.5179C54.2256 59.5179 54.2192 59.5179 54.2127 59.5179C54.2063 59.5179 54.1999 59.5179 54.1934 59.5179C54.187 59.5179 54.1805 59.5179 54.1741 59.5179C54.1677 59.5179 54.1612 59.5179 54.1548 59.5179C54.1484 59.5179 54.1419 59.5179 54.1355 59.5179C54.1291 59.5179 54.1226 59.5179 54.1162 59.5179C54.1097 59.5179 54.1033 59.5179 54.0969 59.5179C54.0904 59.5179 54.084 59.5179 54.0776 59.5179C54.0711 59.5179 54.0647 59.5179 54.0583 59.5179C54.0518 59.5179 54.0454 59.5179 54.0389 59.5179C54.0325 59.5179 54.0261 59.5179 54.0196 59.5179C54.0132 59.5179 54.0068 59.5179 54.0003 59.5179C53.9939 59.5179 53.9874 59.5179 53.981 59.5179C53.9746 59.5179 53.9681 59.5179 53.9617 59.5179C53.9553 59.5179 53.9488 59.5179 53.9424 59.5179C53.9359 59.5179 53.9295 59.5179 53.9231 59.5179C53.9166 59.5179 53.9102 59.5179 53.9038 59.5179C53.8973 59.5179 53.8909 59.5179 53.8844 59.5179C53.878 59.5179 53.8716 59.5179 53.8651 59.5179C53.8587 59.5179 53.8523 59.5179 53.8458 59.5179C53.8394 59.5179 53.8329 59.5179 53.8265 59.5179C53.8201 59.5179 53.8136 59.5179 53.8072 59.5179C53.8008 59.5179 53.7943 59.5179 53.7879 59.5179C53.7814 59.5179 53.775 59.5179 53.7686 59.5179C53.7621 59.5179 53.7557 59.5179 53.7493 59.5179C53.7428 59.5179 53.7364 59.5179 53.7299 59.5179C53.7235 59.5179 53.7171 59.5179 53.7106 59.5179C53.7042 59.5179 53.6978 59.5179 53.6913 59.5179C53.6849 59.5179 53.6784 59.5179 53.672 59.5179C53.6656 59.5179 53.6591 59.5179 53.6527 59.5179C53.6462 59.5179 53.6398 59.5179 53.6334 59.5179C53.6269 59.5179 53.6205 59.5179 53.6141 59.5179C53.6076 59.5179 53.6012 59.5179 53.5947 59.5179C53.5883 59.5179 53.5819 59.5179 53.5754 59.5179C53.569 59.5179 53.5625 59.5179 53.5561 59.5179C53.5497 59.5179 53.5432 59.5179 53.5368 59.5179C53.5303 59.5179 53.5239 59.5179 53.5175 59.5179C53.511 59.5179 53.5046 59.5179 53.4982 59.5179C53.4917 59.5179 53.4853 59.5179 53.4788 59.5179C53.4724 59.5179 53.466 59.5179 53.4595 59.5179C53.4531 59.5179 53.4466 59.5179 53.4402 59.5179C53.4338 59.5179 53.4273 59.5179 53.4209 59.5179C53.4144 59.5179 53.408 59.5179 53.4016 59.5179C53.3951 59.5179 53.3887 59.5179 53.3822 59.5179C53.3758 59.5179 53.3694 59.5179 53.3629 59.5179C53.3565 59.5179 53.35 59.5179 53.3436 59.5179C53.3372 59.5179 53.3307 59.5179 53.3243 59.5179C53.3178 59.5179 53.3114 59.5179 53.305 59.5179C53.2985 59.5179 53.2921 59.5179 53.2856 59.5179C53.2792 59.5179 53.2728 59.5179 53.2663 59.5179C53.2599 59.5179 53.2534 59.5179 53.247 59.5179C53.2406 59.5179 53.2341 59.5179 53.2277 59.5179C53.2212 59.5179 53.2148 59.5179 53.2084 59.5179C53.2019 59.5179 53.1955 59.5179 53.189 59.5179C53.1826 59.5179 53.1762 59.5179 53.1697 59.5179C53.1633 59.5179 53.1568 59.5179 53.1504 59.5179C53.144 59.5179 53.1375 59.5179 53.1311 59.5179C53.1246 59.5179 53.1182 59.5179 53.1118 59.5179C53.1053 59.5179 53.0989 59.5179 53.0924 59.5179C53.086 59.5179 53.0796 59.5179 53.0731 59.5179C53.0667 59.5179 53.0602 59.5179 53.0538 59.5179C53.0473 59.5179 53.0409 59.5179 53.0345 59.5179C53.028 59.5179 53.0216 59.5179 53.0151 59.5179C53.0087 59.5179 53.0023 59.5179 52.9958 59.5179C52.9894 59.5179 52.9829 59.5179 52.9765 59.5179C52.9701 59.5179 52.9636 59.5179 52.9572 59.5179C52.9507 59.5179 52.9443 59.5179 52.9378 59.5179C52.9314 59.5179 52.925 59.5179 52.9185 59.5179C52.9121 59.5179 52.9056 59.5179 52.8992 59.5179C52.8928 59.5179 52.8863 59.5179 52.8799 59.5179C52.8734 59.5179 52.867 59.5179 52.8605 59.5179C52.8541 59.5179 52.8477 59.5179 52.8412 59.5179C52.8348 59.5179 52.8283 59.5179 52.8219 59.5179C52.8155 59.5179 52.809 59.5179 52.8026 59.5179C52.7961 59.5179 52.7897 59.5179 52.7832 59.5179C52.7768 59.5179 52.7704 59.5179 52.7639 59.5179C52.7575 59.5179 52.751 59.5179 52.7446 59.5179C52.7381 59.5179 52.7317 59.5179 52.7253 59.5179C52.7188 59.5179 52.7124 59.5179 52.7059 59.5179C52.6995 59.5179 52.693 59.5179 52.6866 59.5179C52.6802 59.5179 52.6737 59.5179 52.6673 59.5179C52.6608 59.5179 52.6544 59.5179 52.6479 59.5179C52.6415 59.5179 52.6351 59.5179 52.6286 59.5179C52.6222 59.5179 52.6157 59.5179 52.6093 59.5179C52.6028 59.5179 52.5964 59.5179 52.59 59.5179C52.5835 59.5179 52.5771 59.5179 52.5706 59.5179C52.5642 59.5179 52.5577 59.5179 52.5513 59.5179C52.5449 59.5179 52.5384 59.5179 52.532 59.5179C52.5255 59.5179 52.5191 59.5179 52.5126 59.5179C52.5062 59.5179 52.4997 59.5179 52.4933 59.5179C52.4869 59.5179 52.4804 59.5179 52.474 59.5179C52.4675 59.5179 52.4611 59.5179 52.4546 59.5179C52.4482 59.5179 52.4418 59.5179 52.4353 59.5179C52.4289 59.5179 52.4224 59.5179 52.416 59.5179C52.4095 59.5179 52.4031 59.5179 52.3966 59.5179C52.3902 59.5179 52.3838 59.5179 52.3773 59.5179C52.3709 59.5179 52.3644 59.5179 52.358 59.5179C52.3515 59.5179 52.3451 59.5179 52.3386 59.5179C52.3322 59.5179 52.3258 59.5179 52.3193 59.5179C52.3129 59.5179 52.3064 59.5179 52.3 59.5179C52.2935 59.5179 52.2871 59.5179 52.2806 59.5179C52.2742 59.5179 52.2678 59.5179 52.2613 59.5179C52.2549 59.5179 52.2484 59.5179 52.242 59.5179C52.2355 59.5179 52.2291 59.5179 52.2226 59.5179C52.2162 59.5179 52.2098 59.5179 52.2033 59.5179C52.1969 59.5179 52.1904 59.5179 52.184 59.5179C52.1775 59.5179 52.1711 59.5179 52.1646 59.5179C52.1582 59.5179 52.1517 59.5179 52.1453 59.5179C52.1389 59.5179 52.1324 59.5179 52.126 59.5179C52.1195 59.5179 52.1131 59.5179 52.1066 59.5179C52.1002 59.5179 52.0937 59.5179 52.0873 59.5179C52.0808 59.5179 52.0744 59.5179 52.068 59.5179C52.0615 59.5179 52.0551 59.5179 52.0486 59.5179C52.0422 59.5179 52.0357 59.5179 52.0293 59.5179C52.0228 59.5179 52.0164 59.5179 52.0099 59.5179C52.0035 59.5179 51.997 59.5179 51.9906 59.5179C51.9842 59.5179 51.9777 59.5179 51.9713 59.5179C51.9648 59.5179 51.9584 59.5179 51.9519 59.5179C51.9455 59.5179 51.939 59.5179 51.9326 59.5179C51.9261 59.5179 51.9197 59.5179 51.9132 59.5179C51.9068 59.5179 51.9003 59.5179 51.8939 59.5179C51.8875 59.5179 51.881 59.5179 51.8746 59.5179C51.8681 59.5179 51.8617 59.5179 51.8552 59.5179C51.8488 59.5179 51.8423 59.5179 51.8359 59.5179C51.8294 59.5179 51.823 59.5179 51.8165 59.5179C51.8101 59.5179 51.8036 59.5179 51.7972 59.5179C51.7907 59.5179 51.7843 59.5179 51.7779 59.5179C51.7714 59.5179 51.765 59.5179 51.7585 59.5179C51.7521 59.5179 51.7456 59.5179 51.7392 59.5179C51.7327 59.5179 51.7263 59.5179 51.7198 59.5179C51.7134 59.5179 51.7069 59.5179 51.7005 59.5179C51.694 59.5179 51.6876 59.5179 51.6811 59.5179C51.6747 59.5179 51.6682 59.5179 51.6618 59.5179C51.6553 59.5179 51.6489 59.5179 51.6425 59.5179C51.636 59.5179 51.6296 59.5179 51.6231 59.5179C51.6167 59.5179 51.6102 59.5179 51.6038 59.5179C51.5973 59.5179 51.5909 59.5179 51.5844 59.5179C51.578 59.5179 51.5715 59.5179 51.5651 59.5179C51.5586 59.5179 51.5522 59.5179 51.5457 59.5179C51.5393 59.5179 51.5328 59.5179 51.5264 59.5179C51.5199 59.5179 51.5135 59.5179 51.507 59.5179C51.5006 59.5179 51.4941 59.5179 51.4877 59.5179C51.4812 59.5179 51.4748 59.5179 51.4683 59.5179C51.4619 59.5179 51.4554 59.5179 51.449 59.5179C51.4425 59.5179 51.4361 59.5179 51.4296 59.5179C51.4232 59.5179 51.4167 59.5179 51.4103 59.5179C51.4038 59.5179 51.3974 59.5179 51.3909 59.5179C51.3845 59.5179 51.378 59.5179 51.3716 59.5179C51.3651 59.5179 51.3587 59.5179 51.3522 59.5179C51.3458 59.5179 51.3393 59.5179 51.3329 59.5179C51.3264 59.5179 51.32 59.5179 51.3135 59.5179C51.3071 59.5179 51.3006 59.5179 51.2942 59.5179C51.2877 59.5179 51.2813 59.5179 51.2748 59.5179C51.2684 59.5179 51.2619 59.5179 51.2555 59.5179C51.249 59.5179 51.2426 59.5179 51.2361 59.5179C51.2297 59.5179 51.2232 59.5179 51.2168 59.5179C51.2103 59.5179 51.2039 59.5179 51.1974 59.5179C51.191 59.5179 51.1845 59.5179 51.1781 59.5179C51.1716 59.5179 51.1652 59.5179 51.1587 59.5179C51.1523 59.5179 51.1458 59.5179 51.1394 59.5179C51.1329 59.5179 51.1265 59.5179 51.12 59.5179C51.1136 59.5179 51.1071 59.5179 51.1007 59.5179C51.0942 59.5179 51.0878 59.5179 51.0813 59.5179C51.0749 59.5179 51.0684 59.5179 51.062 59.5179C51.0555 59.5179 51.0491 59.5179 51.0426 59.5179C51.0362 59.5179 51.0297 59.5179 51.0233 59.5179C51.0168 59.5179 51.0104 59.5179 51.0039 59.5179C50.9975 59.5179 50.991 59.5179 50.9845 59.5179C50.9781 59.5179 50.9716 59.5179 50.9652 59.5179C50.9587 59.5179 50.9523 59.5179 50.9458 59.5179C50.9394 59.5179 50.9329 59.5179 50.9265 59.5179C50.92 59.5179 50.9136 59.5179 50.9071 59.5179C50.9007 59.5179 50.8942 59.5179 50.8878 59.5179C50.8813 59.5179 50.8749 59.5179 50.8684 59.5179C50.862 59.5179 50.8555 59.5179 50.849 59.5179C50.8426 59.5179 50.8361 59.5179 50.8297 59.5179C50.8232 59.5179 50.8168 59.5179 50.8103 59.5179C50.8039 59.5179 50.7974 59.5179 50.791 59.5179C50.7845 59.5179 50.7781 59.5179 50.7716 59.5179C50.7652 59.5179 50.7587 59.5179 50.7523 59.5179C50.7458 59.5179 50.7393 59.5179 50.7329 59.5179C50.7264 59.5179 50.72 59.5179 50.7135 59.5179C50.7071 59.5179 50.7006 59.5179 50.6942 59.5179C50.6877 59.5179 50.6813 59.5179 50.6748 59.5179C50.6684 59.5179 50.6619 59.5179 50.6554 59.5179C50.649 59.5179 50.6425 59.5179 50.6361 59.5179C50.6296 59.5179 50.6232 59.5179 50.6167 59.5179C50.6103 59.5179 50.6038 59.5179 50.5974 59.5179C50.5909 59.5179 50.5845 59.5179 50.578 59.5179C50.5715 59.5179 50.5651 59.5179 50.5586 59.5179C50.5522 59.5179 50.5457 59.5179 50.5393 59.5179C50.5328 59.5179 50.5264 59.5179 50.5199 59.5179C50.5134 59.5179 50.507 59.5179 50.5005 59.5179C50.4941 59.5179 50.4876 59.5179 50.4812 59.5179C50.4747 59.5179 50.4683 59.5179 50.4618 59.5179C50.4554 59.5179 50.4489 59.5179 50.4424 59.5179C50.436 59.5179 50.4295 59.5179 50.4231 59.5179C50.4166 59.5179 50.4102 59.5179 50.4037 59.5179C50.3973 59.5179 50.3908 59.5179 50.3843 59.5179C50.3779 59.5179 50.3714 59.5179 50.365 59.5179C50.3585 59.5179 50.3521 59.5179 50.3456 59.5179C50.3392 59.5179 50.3327 59.5179 50.3262 59.5179C50.3198 59.5179 50.3133 59.5179 50.3069 59.5179C50.3004 59.5179 50.294 59.5179 50.2875 59.5179C50.281 59.5179 50.2746 59.5179 50.2681 59.5179C50.2617 59.5179 50.2552 59.5179 50.2488 59.5179C50.2423 59.5179 50.2359 59.5179 50.2294 59.5179C50.2229 59.5179 50.2165 59.5179 50.21 59.5179C50.2036 59.5179 50.1971 59.5179 50.1907 59.5179C50.1842 59.5179 50.1777 59.5179 50.1713 59.5179C50.1648 59.5179 50.1584 59.5179 50.1519 59.5179C50.1455 59.5179 50.139 59.5179 50.1325 59.5179C50.1261 59.5179 50.1196 59.5179 50.1132 59.5179C50.1067 59.5179 50.1003 59.5179 50.0938 59.5179C50.0873 59.5179 50.0809 59.5179 50.0744 59.5179C50.068 59.5179 50.0615 59.5179 50.055 59.5179C50.0486 59.5179 50.0421 59.5179 50.0357 59.5179C50.0292 59.5179 50.0228 59.5179 50.0163 59.5179C50.0098 59.5179 50.0034 59.5179 49.9969 59.5179C49.9905 59.5179 49.984 59.5179 49.9776 59.5179C49.9711 59.5179 49.9646 59.5179 49.9582 59.5179C49.9517 59.5179 49.9453 59.5179 49.9388 59.5179C49.9323 59.5179 49.9259 59.5179 49.9194 59.5179C49.913 59.5179 49.9065 59.5179 49.9 59.5179C49.8936 59.5179 49.8871 59.5179 49.8807 59.5179C49.8742 59.5179 49.8678 59.5179 49.8613 59.5179C49.8548 59.5179 49.8484 59.5179 49.8419 59.5179C49.8355 59.5179 49.829 59.5179 49.8225 59.5179C49.8161 59.5179 49.8096 59.5179 49.8032 59.5179C49.7967 59.5179 49.7902 59.5179 49.7838 59.5179C49.7773 59.5179 49.7709 59.5179 49.7644 59.5179C49.7579 59.5179 49.7515 59.5179 49.745 59.5179C49.7386 59.5179 49.7321 59.5179 49.7256 59.5179C49.7192 59.5179 49.7127 59.5179 49.7063 59.5179C49.6998 59.5179 49.6933 59.5179 49.6869 59.5179C49.6804 59.5179 49.674 59.5179 49.6675 59.5179C49.661 59.5179 49.6546 59.5179 49.6481 59.5179C49.6417 59.5179 49.6352 59.5179 49.6287 59.5179C49.6223 59.5179 49.6158 59.5179 49.6094 59.5179C49.6029 59.5179 49.5964 59.5179 49.59 59.5179C49.5835 59.5179 49.577 59.5179 49.5706 59.5179C49.5641 59.5179 49.5577 59.5179 49.5512 59.5179C49.5447 59.5179 49.5383 59.5179 49.5318 59.5179C49.5254 59.5179 49.5189 59.5179 49.5124 59.5179C49.506 59.5179 49.4995 59.5179 49.493 59.5179C49.4866 59.5179 49.4801 59.5179 49.4737 59.5179C49.4672 59.5179 49.4607 59.5179 49.4543 59.5179C49.4478 59.5179 49.4414 59.5179 49.4349 59.5179C49.4284 59.5179 49.422 59.5179 49.4155 59.5179C49.409 59.5179 49.4026 59.5179 49.3961 59.5179C49.3897 59.5179 49.3832 59.5179 49.3767 59.5179C49.3703 59.5179 49.3638 59.5179 49.3573 59.5179C49.3509 59.5179 49.3444 59.5179 49.338 59.5179C49.3315 59.5179 49.325 59.5179 49.3186 59.5179C49.3121 59.5179 49.3056 59.5179 49.2992 59.5179C49.2927 59.5179 49.2863 59.5179 49.2798 59.5179C49.2733 59.5179 49.2669 59.5179 49.2604 59.5179C49.2539 59.5179 49.2475 59.5179 49.241 59.5179C49.2345 59.5179 49.2281 59.5179 49.2216 59.5179C49.2152 59.5179 49.2087 59.5179 49.2022 59.5179C49.1958 59.5179 49.1893 59.5179 49.1828 59.5179C49.1764 59.5179 49.1699 59.5179 49.1634 59.5179C49.157 59.5179 49.1505 59.5179 49.144 59.5179C49.1376 59.5179 49.1311 59.5179 49.1247 59.5179C49.1182 59.5179 49.1117 59.5179 49.1053 59.5179C49.0988 59.5179 49.0923 59.5179 49.0859 59.5179C49.0794 59.5179 49.0729 59.5179 49.0665 59.5179C49.06 59.5179 49.0535 59.5179 49.0471 59.5179C49.0406 59.5179 49.0341 59.5179 49.0277 59.5179C49.0212 59.5179 49.0148 59.5179 49.0083 59.5179C49.0018 59.5179 48.9954 59.5179 48.9889 59.5179C48.9824 59.5179 48.976 59.5179 48.9695 59.5179C48.963 59.5179 48.9566 59.5179 48.9501 59.5179C48.9436 59.5179 48.9372 59.5179 48.9307 59.5179C48.9242 59.5179 48.9178 59.5179 48.9113 59.5179C48.9048 59.5179 48.8984 59.5179 48.8919 59.5179C48.8854 59.5179 48.879 59.5179 48.8725 59.5179C48.866 59.5179 48.8596 59.5179 48.8531 59.5179C48.8466 59.5179 48.8402 59.5179 48.8337 59.5179C48.8272 59.5179 48.8208 59.5179 48.8143 59.5179C48.8078 59.5179 48.8014 59.5179 48.7949 59.5179C48.7884 59.5179 48.782 59.5179 48.7755 59.5179C48.769 59.5179 48.7626 59.5179 48.7561 59.5179C48.7496 59.5179 48.7432 59.5179 48.7367 59.5179C48.7302 59.5179 48.7238 59.5179 48.7173 59.5179C48.7108 59.5179 48.7044 59.5179 48.6979 59.5179C48.6914 59.5179 48.685 59.5179 48.6785 59.5179C48.672 59.5179 48.6656 59.5179 48.6591 59.5179C48.6526 59.5179 48.6462 59.5179 48.6397 59.5179C48.6332 59.5179 48.6268 59.5179 48.6203 59.5179C48.6138 59.5179 48.6074 59.5179 48.6009 59.5179C48.5944 59.5179 48.5879 59.5179 48.5815 59.5179C48.575 59.5179 48.5685 59.5179 48.5621 59.5179C48.5556 59.5179 48.5491 59.5179 48.5427 59.5179C48.5362 59.5179 48.5297 59.5179 48.5233 59.5179C48.5168 59.5179 48.5103 59.5179 48.5039 59.5179C48.4974 59.5179 48.4909 59.5179 48.4844 59.5179C48.478 59.5179 48.4715 59.5179 48.465 59.5179C48.4586 59.5179 48.4521 59.5179 48.4456 59.5179C48.4392 59.5179 48.4327 59.5179 48.4262 59.5179C48.4198 59.5179 48.4133 59.5179 48.4068 59.5179C48.4003 59.5179 48.3939 59.5179 48.3874 59.5179C48.3809 59.5179 48.3745 59.5179 48.368 59.5179C48.3615 59.5179 48.3551 59.5179 48.3486 59.5179C48.3421 59.5179 48.3356 59.5179 48.3292 59.5179C48.3227 59.5179 48.3162 59.5179 48.3098 59.5179C48.3033 59.5179 48.2968 59.5179 48.2903 59.5179C48.2839 59.5179 48.2774 59.5179 48.2709 59.5179C48.2645 59.5179 48.258 59.5179 48.2515 59.5179C48.2451 59.5179 48.2386 59.5179 48.2321 59.5179V61.5179ZM44.9283 64.0103C46.6397 63.9994 48.0671 62.5904 48.0436 60.8674L46.0438 60.8947C46.0517 61.4766 45.5479 62.0063 44.9155 62.0104L44.9283 64.0103ZM48.0436 60.867C48.0195 59.154 46.6203 57.7541 44.9002 57.763L44.9105 59.763C45.5148 59.7599 46.0348 60.2613 46.0438 60.8951L48.0436 60.867ZM44.9002 57.763C43.1899 57.7718 41.7672 59.1902 41.7828 60.9074L43.7828 60.8892C43.7774 60.2955 44.2919 59.7662 44.9105 59.763L44.9002 57.763ZM41.7828 60.9073C41.7983 62.6251 43.2094 64.0214 44.9283 64.0103L44.9154 62.0104C44.3039 62.0143 43.7883 61.5094 43.7828 60.8893L41.7828 60.9073ZM61.4672 64.0103C63.1775 63.9961 64.606 62.5857 64.579 60.8631L62.5793 60.8945C62.5883 61.4722 62.0856 62.0051 61.4505 62.0104L61.4672 64.0103ZM64.579 60.8628C64.5517 59.1511 63.1493 57.7519 61.4306 57.763L61.4436 59.763C62.0463 59.7591 62.5692 60.2611 62.5793 60.8948L64.579 60.8628ZM61.4307 57.763C59.7217 57.774 58.2956 59.1967 58.3169 60.9129L60.3167 60.8882C60.3095 60.3011 60.8236 59.767 61.4435 59.763L61.4307 57.763ZM58.3169 60.9127C58.3378 62.6288 59.7469 64.0247 61.4672 64.0103L61.4505 62.0104C60.842 62.0155 60.3243 61.5132 60.3167 60.8884L58.3169 60.9127ZM48.2321 61.5179H58.1291V59.5179H48.2321V61.5179Z" fill="#0B2D1F" mask="url(#path-1-outside-1_5952_45232)"/>
</g>
</g>
<g id="Vector_2">
<mask id="path-3-outside-2_5952_45232" maskUnits="userSpaceOnUse" x="11.0098" y="14.8994" width="42" height="24" fill="black">
<rect fill="white" x="11.0098" y="14.8994" width="42" height="24"/>
<path d="M32.368 15.8994C42.4418 16.0047 50.8428 23.1559 52.468 33.1278C52.6277 34.1093 52.6973 35.1096 52.7415 36.103C52.8043 37.5007 52.0282 38.3803 50.7834 38.4092C49.5199 38.4381 48.7388 37.6195 48.6827 36.2253C48.4484 30.3936 46.0403 25.7015 41.0595 22.5989C31.0502 16.363 18.103 22.2932 16.3216 33.8223C16.1925 34.6596 16.1314 35.5087 16.0804 36.3544C16.0023 37.6382 15.2025 38.4381 13.9781 38.4092C12.774 38.382 12.0013 37.5244 12.0098 36.2287C12.0659 26.6865 18.6312 18.5537 27.9679 16.5244C29.4114 16.2119 30.8991 16.1032 32.368 15.8994Z"/>
</mask>
<path d="M32.368 15.8994C42.4418 16.0047 50.8428 23.1559 52.468 33.1278C52.6277 34.1093 52.6973 35.1096 52.7415 36.103C52.8043 37.5007 52.0282 38.3803 50.7834 38.4092C49.5199 38.4381 48.7388 37.6195 48.6827 36.2253C48.4484 30.3936 46.0403 25.7015 41.0595 22.5989C31.0502 16.363 18.103 22.2932 16.3216 33.8223C16.1925 34.6596 16.1314 35.5087 16.0804 36.3544C16.0023 37.6382 15.2025 38.4381 13.9781 38.4092C12.774 38.382 12.0013 37.5244 12.0098 36.2287C12.0659 26.6865 18.6312 18.5537 27.9679 16.5244C29.4114 16.2119 30.8991 16.1032 32.368 15.8994Z" fill="#0B2D1F"/>
<path d="M32.368 15.8994C42.4418 16.0047 50.8428 23.1559 52.468 33.1278C52.6277 34.1093 52.6973 35.1096 52.7415 36.103C52.8043 37.5007 52.0282 38.3803 50.7834 38.4092C49.5199 38.4381 48.7388 37.6195 48.6827 36.2253C48.4484 30.3936 46.0403 25.7015 41.0595 22.5989C31.0502 16.363 18.103 22.2932 16.3216 33.8223C16.1925 34.6596 16.1314 35.5087 16.0804 36.3544C16.0023 37.6382 15.2025 38.4381 13.9781 38.4092C12.774 38.382 12.0013 37.5244 12.0098 36.2287C12.0659 26.6865 18.6312 18.5537 27.9679 16.5244C29.4114 16.2119 30.8991 16.1032 32.368 15.8994Z" stroke="#0B2D1F" stroke-width="0.4" mask="url(#path-3-outside-2_5952_45232)"/>
</g>
<g id="Vector_3">
<mask id="path-4-outside-3_5952_45232" maskUnits="userSpaceOnUse" x="25.2793" y="28.1289" width="15" height="27" fill="black">
<rect fill="white" x="25.2793" y="28.1289" width="15" height="27"/>
<path d="M26.2793 48.7514C26.2912 45.6063 28.3766 43.1083 31.464 42.609C32.0584 42.5122 32.342 42.3067 32.5305 41.7055C33.6835 38.0255 34.8961 34.3659 36.0797 30.696C36.3701 29.7943 36.9577 29.2559 37.8951 29.1439C38.7204 29.0454 39.325 29.4411 39.775 30.1C40.203 30.7266 40.0926 31.3889 39.8769 32.0546C38.6797 35.7431 37.4926 39.4333 36.2801 43.1151C36.1307 43.5685 36.151 43.8385 36.5365 44.1934C38.4317 45.9426 38.9803 48.5544 38.0089 50.8912C37.012 53.2924 34.7857 54.7784 32.2927 54.7071C28.9591 54.6136 26.2674 51.9458 26.2793 48.7514ZM34.4019 48.5307C34.3849 47.4183 33.4764 46.5709 32.3199 46.5879C31.1974 46.6049 30.3618 47.4846 30.3601 48.6546C30.3567 49.7873 31.2908 50.6585 32.4761 50.6296C33.585 50.6025 34.4206 49.6922 34.4019 48.5307Z"/>
</mask>
<path d="M26.2793 48.7514C26.2912 45.6063 28.3766 43.1083 31.464 42.609C32.0584 42.5122 32.342 42.3067 32.5305 41.7055C33.6835 38.0255 34.8961 34.3659 36.0797 30.696C36.3701 29.7943 36.9577 29.2559 37.8951 29.1439C38.7204 29.0454 39.325 29.4411 39.775 30.1C40.203 30.7266 40.0926 31.3889 39.8769 32.0546C38.6797 35.7431 37.4926 39.4333 36.2801 43.1151C36.1307 43.5685 36.151 43.8385 36.5365 44.1934C38.4317 45.9426 38.9803 48.5544 38.0089 50.8912C37.012 53.2924 34.7857 54.7784 32.2927 54.7071C28.9591 54.6136 26.2674 51.9458 26.2793 48.7514ZM34.4019 48.5307C34.3849 47.4183 33.4764 46.5709 32.3199 46.5879C31.1974 46.6049 30.3618 47.4846 30.3601 48.6546C30.3567 49.7873 31.2908 50.6585 32.4761 50.6296C33.585 50.6025 34.4206 49.6922 34.4019 48.5307Z" fill="#0B2D1F"/>
<path d="M26.2793 48.7514C26.2912 45.6063 28.3766 43.1083 31.464 42.609C32.0584 42.5122 32.342 42.3067 32.5305 41.7055C33.6835 38.0255 34.8961 34.3659 36.0797 30.696C36.3701 29.7943 36.9577 29.2559 37.8951 29.1439C38.7204 29.0454 39.325 29.4411 39.775 30.1C40.203 30.7266 40.0926 31.3889 39.8769 32.0546C38.6797 35.7431 37.4926 39.4333 36.2801 43.1151C36.1307 43.5685 36.151 43.8385 36.5365 44.1934C38.4317 45.9426 38.9803 48.5544 38.0089 50.8912C37.012 53.2924 34.7857 54.7784 32.2927 54.7071C28.9591 54.6136 26.2674 51.9458 26.2793 48.7514ZM34.4019 48.5307C34.3849 47.4183 33.4764 46.5709 32.3199 46.5879C31.1974 46.6049 30.3618 47.4846 30.3601 48.6546C30.3567 49.7873 31.2908 50.6585 32.4761 50.6296C33.585 50.6025 34.4206 49.6922 34.4019 48.5307Z" stroke="#0B2D1F" stroke-width="0.4" mask="url(#path-4-outside-3_5952_45232)"/>
</g>
<g id="Subtract">
<mask id="path-5-outside-4_5952_45232" maskUnits="userSpaceOnUse" x="3" y="6" width="59" height="59" fill="black">
<rect fill="white" x="3" y="6" width="59" height="59"/>
<path fill-rule="evenodd" clip-rule="evenodd" d="M31.9896 7.00654C15.6902 7.34788 3.85362 20.4309 4.00137 36.0171C4.52442 52.2843 17.441 64.2465 33.0034 63.951C35.6264 63.9007 38.1384 63.5192 40.5058 62.8495C40.4619 62.826 40.4052 62.8152 40.3282 62.8179C38.5418 62.8775 37.1883 61.6542 36.9618 60.0173C36.9599 60.0028 36.9501 59.9891 36.9404 59.9754L36.9403 59.9753C36.936 59.9692 36.9316 59.963 36.9279 59.9568V59.5165C35.4929 59.7678 34.0108 59.8977 32.4923 59.8957C18.7843 59.877 8.19256 49.1358 8.0567 35.4397C8.2435 21.6825 18.9269 11.0211 32.5636 11.0568C46.3225 11.0924 56.9754 21.9016 56.9312 35.545C56.9177 39.7336 55.9036 43.6419 54.1103 47.0484C55.6114 47.0474 57.1125 47.0471 58.6136 47.0479C60.2231 43.3545 61.0686 39.2579 60.9832 34.971C60.6588 18.7021 47.5962 6.67879 31.9896 7.00654Z"/>
</mask>
<path fill-rule="evenodd" clip-rule="evenodd" d="M31.9896 7.00654C15.6902 7.34788 3.85362 20.4309 4.00137 36.0171C4.52442 52.2843 17.441 64.2465 33.0034 63.951C35.6264 63.9007 38.1384 63.5192 40.5058 62.8495C40.4619 62.826 40.4052 62.8152 40.3282 62.8179C38.5418 62.8775 37.1883 61.6542 36.9618 60.0173C36.9599 60.0028 36.9501 59.9891 36.9404 59.9754L36.9403 59.9753C36.936 59.9692 36.9316 59.963 36.9279 59.9568V59.5165C35.4929 59.7678 34.0108 59.8977 32.4923 59.8957C18.7843 59.877 8.19256 49.1358 8.0567 35.4397C8.2435 21.6825 18.9269 11.0211 32.5636 11.0568C46.3225 11.0924 56.9754 21.9016 56.9312 35.545C56.9177 39.7336 55.9036 43.6419 54.1103 47.0484C55.6114 47.0474 57.1125 47.0471 58.6136 47.0479C60.2231 43.3545 61.0686 39.2579 60.9832 34.971C60.6588 18.7021 47.5962 6.67879 31.9896 7.00654Z" fill="#0B2D1F"/>
<path d="M4.00137 36.0171L3.80133 36.019L3.80147 36.0235L4.00137 36.0171ZM31.9896 7.00654L31.9938 7.2065L31.9938 7.2065L31.9896 7.00654ZM33.0034 63.951L33.0072 64.151L33.0073 64.151L33.0034 63.951ZM40.5058 62.8495L40.5603 63.0419L41.0373 62.9069L40.6002 62.6731L40.5058 62.8495ZM40.3282 62.8179L40.3348 63.0178L40.3352 63.0178L40.3282 62.8179ZM36.9618 60.0173L36.7635 60.0432L36.7637 60.0447L36.9618 60.0173ZM36.9404 59.9754L37.1032 59.8592L37.0935 59.8457L37.0818 59.8339L36.9404 59.9754ZM36.9403 59.9753L36.7775 60.0915L36.7872 60.105L36.7989 60.1168L36.9403 59.9753ZM36.9279 59.9568H36.7279V60.0115L36.7557 60.0585L36.9279 59.9568ZM36.9279 59.5165H37.1279V59.2784L36.8934 59.3195L36.9279 59.5165ZM32.4923 59.8957L32.4925 59.6957L32.4925 59.6957L32.4923 59.8957ZM8.0567 35.4397L7.85666 35.437L7.85671 35.4417L8.0567 35.4397ZM32.5636 11.0568L32.5631 11.2568L32.5631 11.2568L32.5636 11.0568ZM56.9312 35.545L56.7312 35.5443L56.7312 35.5443L56.9312 35.545ZM54.1103 47.0484L53.9333 46.9552L53.7788 47.2486L54.1104 47.2484L54.1103 47.0484ZM58.6136 47.0479L58.6135 47.2479L58.7446 47.248L58.7969 47.1278L58.6136 47.0479ZM60.9832 34.971L61.1831 34.967L61.1831 34.967L60.9832 34.971ZM4.20136 36.0152C4.05461 20.5339 15.8085 7.54545 31.9938 7.2065L31.9854 6.80659C15.5718 7.15032 3.65264 20.328 3.80138 36.019L4.20136 36.0152ZM32.9996 63.751C17.547 64.0444 4.72081 52.1688 4.20126 36.0107L3.80147 36.0235C4.32803 52.3998 17.3351 64.4485 33.0072 64.151L32.9996 63.751ZM40.4514 62.657C38.1006 63.3221 35.6056 63.701 32.9996 63.751L33.0073 64.151C35.6473 64.1003 38.1763 63.7163 40.5603 63.0419L40.4514 62.657ZM40.6002 62.6731C40.5142 62.6271 40.4186 62.6146 40.3212 62.618L40.3352 63.0178C40.3918 63.0158 40.4096 63.0248 40.4115 63.0258L40.6002 62.6731ZM40.3215 62.618C38.6397 62.6741 37.3727 61.5275 37.1599 59.9899L36.7637 60.0447C37.0039 61.7809 38.444 63.0809 40.3348 63.0178L40.3215 62.618ZM37.1601 59.9915C37.1505 59.9174 37.1044 59.8609 37.1032 59.8592L36.7776 60.0915C36.7803 60.0953 36.7812 60.0966 36.7818 60.0976C36.7823 60.0983 36.7813 60.0968 36.7796 60.0939C36.7769 60.089 36.7671 60.0708 36.7635 60.0432L37.1601 59.9915ZM37.0818 59.8339L37.0818 59.8339L36.7989 60.1168L36.7989 60.1168L37.0818 59.8339ZM37.1032 59.8592C37.1008 59.8559 37.0998 59.8545 37.0991 59.8534C37.0984 59.8525 37.099 59.8532 37.1001 59.8551L36.7557 60.0585C36.7645 60.0735 36.7741 60.0867 36.7775 60.0915L37.1032 59.8592ZM37.1279 59.9568V59.5165H36.7279V59.9568H37.1279ZM32.492 60.0957C34.0222 60.0977 35.5159 59.9668 36.9624 59.7135L36.8934 59.3195C35.4699 59.5688 33.9995 59.6977 32.4925 59.6957L32.492 60.0957ZM7.85671 35.4417C7.99363 49.2448 18.672 60.0768 32.492 60.0957L32.4925 59.6957C18.8967 59.6771 8.39148 49.0267 8.25669 35.4377L7.85671 35.4417ZM32.5641 10.8568C18.8156 10.8208 8.04498 21.5724 7.85672 35.437L8.25668 35.4424C8.44203 21.7925 19.0383 11.2214 32.5631 11.2568L32.5641 10.8568ZM57.1312 35.5456C57.1757 21.7921 46.4339 10.8927 32.5641 10.8568L32.5631 11.2568C46.2111 11.2922 56.775 22.011 56.7312 35.5443L57.1312 35.5456ZM54.2872 47.1416C56.0956 43.7065 57.1176 39.7665 57.1312 35.5456L56.7312 35.5443C56.7178 39.7007 55.7116 43.5773 53.9333 46.9552L54.2872 47.1416ZM54.1104 47.2484C55.6114 47.2474 57.1125 47.2471 58.6135 47.2479L58.6137 46.8479C57.1125 46.8471 55.6113 46.8474 54.1101 46.8484L54.1104 47.2484ZM60.7832 34.975C60.8681 39.2329 60.0283 43.3009 58.4302 46.968L58.7969 47.1278C60.4178 43.4082 61.2691 39.283 61.1831 34.967L60.7832 34.975ZM31.9938 7.2065C47.4916 6.88103 60.4611 18.8184 60.7832 34.975L61.1831 34.967C60.8565 18.5858 47.7007 6.47655 31.9854 6.80659L31.9938 7.2065Z" fill="#0B2D1F" mask="url(#path-5-outside-4_5952_45232)"/>
</g>
</g>
</g>
</svg>
