<svg width="72" height="72" viewBox="0 0 72 72" fill="none" xmlns="http://www.w3.org/2000/svg">
<mask id="path-1-outside-1_5952_45222" maskUnits="userSpaceOnUse" x="3" y="18.2577" width="66" height="36" fill="black">
<rect fill="white" x="3" y="18.2577" width="66" height="36"/>
<path d="M4 37.1847C4.27981 36.1407 4.60544 35.1229 5.32706 34.2737C6.17959 33.2706 7.25465 32.6586 8.51135 32.3183C11.4355 31.5263 14.3563 30.7179 17.2837 29.9358C17.7517 29.8114 18.0806 29.579 18.3719 29.1912C20.0965 26.9004 21.8556 24.6341 23.5819 22.3448C25.1315 20.2896 27.1835 19.2669 29.7443 19.2636C36.0229 19.2571 42.3015 19.2538 48.5801 19.2653C51.4027 19.2702 53.5643 20.4811 55.0583 22.8897C56.405 25.0611 57.7631 27.2244 59.1409 29.3761C59.3177 29.6527 59.6073 29.9079 59.9035 30.0503C61.3074 30.7228 62.7278 31.361 64.1481 31.9975C66.6484 33.1184 67.91 35.0313 67.874 37.7836C67.8544 39.2792 67.9476 40.7879 67.7906 42.2687C67.4649 45.3369 65.143 47.4117 62.0618 47.3774C61.0325 47.3659 60.5678 47.6212 60.144 48.6111C58.9707 51.3487 56.1579 52.9965 53.3189 52.841C50.2279 52.6709 47.7145 50.7973 46.7212 47.8813C46.5985 47.523 46.4545 47.4003 46.0749 47.4003C39.0681 47.4117 32.063 47.4117 25.0562 47.3986C24.6668 47.3986 24.531 47.5377 24.4115 47.8846C23.3806 50.8775 20.6578 52.8361 17.5602 52.8427C14.4218 52.8492 11.7006 50.8987 10.6566 47.8683C10.5469 47.5508 10.4422 47.3855 10.0675 47.3986C6.87993 47.505 4.46472 45.3221 4.06054 42.4013C4.05563 42.3637 4.02127 42.3293 4 42.2933C4 40.5948 4 38.8897 4 37.1847ZM60.8313 44.792C61.2223 44.792 61.6298 44.7969 62.0356 44.792C63.9435 44.7658 65.2346 43.4731 65.2477 41.5635C65.2559 40.2544 65.2379 38.9437 65.251 37.6347C65.2657 36.1145 64.5621 35.0722 63.1941 34.4504C61.5889 33.7206 59.9705 33.0153 58.3882 32.2348C57.9317 32.009 57.4801 31.6294 57.2052 31.2055C55.7685 28.9932 54.3514 26.7662 53.0047 24.4999C51.9182 22.6754 50.3833 21.8523 48.2708 21.8654C42.2213 21.9014 36.1734 21.8965 30.124 21.867C28.1391 21.8572 26.6189 22.5919 25.4375 24.1988C23.6916 26.5764 21.8589 28.8918 20.0884 31.2514C19.6793 31.7979 19.19 32.1333 18.5306 32.2953C17.4032 32.5719 16.2855 32.8926 15.1647 33.2002C13.0832 33.7713 10.9986 34.326 8.92371 34.9233C7.56392 35.3144 6.67703 36.3534 6.63449 37.6379C6.58867 39.0697 6.56903 40.5081 6.64103 41.9398C6.73594 43.8069 8.53262 45.1209 10.3048 44.7052C10.9724 40.5948 14.1305 38.4725 17.2902 38.3285C18.8955 38.2565 20.3714 38.7081 21.6903 39.6326C23.4706 40.8795 24.4524 42.6238 24.7715 44.7543C31.9975 44.7543 39.1794 44.7543 46.3563 44.7543C47.0665 40.3575 50.5617 38.2565 53.7738 38.3268C57.143 38.4005 60.2585 40.8157 60.8313 44.792ZM17.5521 50.1902C20.108 50.1738 22.2139 48.0597 22.1796 45.5463C22.1436 42.9871 20.0507 40.9139 17.5161 40.927C14.9765 40.9401 12.864 43.064 12.8869 45.5839C12.9098 48.1333 15.0108 50.2066 17.5521 50.1902ZM53.6183 50.1902C56.1759 50.1689 58.2819 48.0499 58.2426 45.5414C58.2017 42.9838 56.1023 40.9106 53.5709 40.927C51.0313 40.9433 48.9155 43.0771 48.9466 45.5889C48.9777 48.1415 51.0787 50.2115 53.6183 50.1902Z"/>
<path d="M53.6183 50.1902C56.1759 50.1689 58.2819 48.0499 58.2426 45.5414C58.2017 42.9838 56.1023 40.9106 53.5709 40.927C51.0313 40.9433 48.9155 43.0771 48.9466 45.5889C48.9777 48.1415 51.0787 50.2115 53.6183 50.1902Z"/>
<path d="M17.5521 50.1902C20.108 50.1738 22.2139 48.0597 22.1796 45.5463C22.1436 42.9871 20.0507 40.9139 17.5161 40.927C14.9765 40.9401 12.864 43.064 12.8869 45.5839C12.9098 48.1333 15.0108 50.2066 17.5521 50.1902Z"/>
</mask>
<path d="M4 37.1847C4.27981 36.1407 4.60544 35.1229 5.32706 34.2737C6.17959 33.2706 7.25465 32.6586 8.51135 32.3183C11.4355 31.5263 14.3563 30.7179 17.2837 29.9358C17.7517 29.8114 18.0806 29.579 18.3719 29.1912C20.0965 26.9004 21.8556 24.6341 23.5819 22.3448C25.1315 20.2896 27.1835 19.2669 29.7443 19.2636C36.0229 19.2571 42.3015 19.2538 48.5801 19.2653C51.4027 19.2702 53.5643 20.4811 55.0583 22.8897C56.405 25.0611 57.7631 27.2244 59.1409 29.3761C59.3177 29.6527 59.6073 29.9079 59.9035 30.0503C61.3074 30.7228 62.7278 31.361 64.1481 31.9975C66.6484 33.1184 67.91 35.0313 67.874 37.7836C67.8544 39.2792 67.9476 40.7879 67.7906 42.2687C67.4649 45.3369 65.143 47.4117 62.0618 47.3774C61.0325 47.3659 60.5678 47.6212 60.144 48.6111C58.9707 51.3487 56.1579 52.9965 53.3189 52.841C50.2279 52.6709 47.7145 50.7973 46.7212 47.8813C46.5985 47.523 46.4545 47.4003 46.0749 47.4003C39.0681 47.4117 32.063 47.4117 25.0562 47.3986C24.6668 47.3986 24.531 47.5377 24.4115 47.8846C23.3806 50.8775 20.6578 52.8361 17.5602 52.8427C14.4218 52.8492 11.7006 50.8987 10.6566 47.8683C10.5469 47.5508 10.4422 47.3855 10.0675 47.3986C6.87993 47.505 4.46472 45.3221 4.06054 42.4013C4.05563 42.3637 4.02127 42.3293 4 42.2933C4 40.5948 4 38.8897 4 37.1847ZM60.8313 44.792C61.2223 44.792 61.6298 44.7969 62.0356 44.792C63.9435 44.7658 65.2346 43.4731 65.2477 41.5635C65.2559 40.2544 65.2379 38.9437 65.251 37.6347C65.2657 36.1145 64.5621 35.0722 63.1941 34.4504C61.5889 33.7206 59.9705 33.0153 58.3882 32.2348C57.9317 32.009 57.4801 31.6294 57.2052 31.2055C55.7685 28.9932 54.3514 26.7662 53.0047 24.4999C51.9182 22.6754 50.3833 21.8523 48.2708 21.8654C42.2213 21.9014 36.1734 21.8965 30.124 21.867C28.1391 21.8572 26.6189 22.5919 25.4375 24.1988C23.6916 26.5764 21.8589 28.8918 20.0884 31.2514C19.6793 31.7979 19.19 32.1333 18.5306 32.2953C17.4032 32.5719 16.2855 32.8926 15.1647 33.2002C13.0832 33.7713 10.9986 34.326 8.92371 34.9233C7.56392 35.3144 6.67703 36.3534 6.63449 37.6379C6.58867 39.0697 6.56903 40.5081 6.64103 41.9398C6.73594 43.8069 8.53262 45.1209 10.3048 44.7052C10.9724 40.5948 14.1305 38.4725 17.2902 38.3285C18.8955 38.2565 20.3714 38.7081 21.6903 39.6326C23.4706 40.8795 24.4524 42.6238 24.7715 44.7543C31.9975 44.7543 39.1794 44.7543 46.3563 44.7543C47.0665 40.3575 50.5617 38.2565 53.7738 38.3268C57.143 38.4005 60.2585 40.8157 60.8313 44.792ZM17.5521 50.1902C20.108 50.1738 22.2139 48.0597 22.1796 45.5463C22.1436 42.9871 20.0507 40.9139 17.5161 40.927C14.9765 40.9401 12.864 43.064 12.8869 45.5839C12.9098 48.1333 15.0108 50.2066 17.5521 50.1902ZM53.6183 50.1902C56.1759 50.1689 58.2819 48.0499 58.2426 45.5414C58.2017 42.9838 56.1023 40.9106 53.5709 40.927C51.0313 40.9433 48.9155 43.0771 48.9466 45.5889C48.9777 48.1415 51.0787 50.2115 53.6183 50.1902Z" fill="#0D313B"/>
<path d="M53.6183 50.1902C56.1759 50.1689 58.2819 48.0499 58.2426 45.5414C58.2017 42.9838 56.1023 40.9106 53.5709 40.927C51.0313 40.9433 48.9155 43.0771 48.9466 45.5889C48.9777 48.1415 51.0787 50.2115 53.6183 50.1902Z" fill="#68D4F4"/>
<path d="M17.5521 50.1902C20.108 50.1738 22.2139 48.0597 22.1796 45.5463C22.1436 42.9871 20.0507 40.9139 17.5161 40.927C14.9765 40.9401 12.864 43.064 12.8869 45.5839C12.9098 48.1333 15.0108 50.2066 17.5521 50.1902Z" fill="#68D4F4"/>
<path d="M17.5521 50.1902L17.5489 49.6902L17.5488 49.6902L17.5521 50.1902ZM22.1796 45.5463L22.6795 45.5395L22.6795 45.5393L22.1796 45.5463ZM17.5161 40.927L17.5186 41.427L17.5186 41.427L17.5161 40.927ZM12.8869 45.5839L13.3869 45.5794L13.3869 45.5794L12.8869 45.5839ZM53.6183 50.1902L53.6142 49.6902L53.6141 49.6902L53.6183 50.1902ZM58.2426 45.5414L58.7425 45.5336L58.7425 45.5334L58.2426 45.5414ZM53.5709 40.927L53.5741 41.4269L53.5741 41.4269L53.5709 40.927ZM48.9466 45.5889L49.4466 45.5828L49.4466 45.5827L48.9466 45.5889ZM17.5553 50.6902C20.3809 50.6721 22.7178 48.3382 22.6795 45.5395L21.6796 45.5531C21.7101 47.7813 19.835 49.6756 17.5489 49.6902L17.5553 50.6902ZM22.6795 45.5393C22.6397 42.7103 20.3271 40.4124 17.5135 40.427L17.5186 41.427C19.7743 41.4153 21.6474 43.2639 21.6796 45.5533L22.6795 45.5393ZM17.5135 40.427C14.701 40.4415 12.3614 42.7877 12.3869 45.5885L13.3869 45.5794C13.3665 43.3403 15.252 41.4386 17.5186 41.427L17.5135 40.427ZM12.3869 45.5884C12.4123 48.4123 14.7372 50.7083 17.5553 50.6902L17.5488 49.6902C15.2844 49.7048 13.4073 47.8544 13.3869 45.5794L12.3869 45.5884ZM53.6225 50.6902C56.4489 50.6667 58.7863 48.3283 58.7425 45.5336L57.7426 45.5492C57.7774 47.7715 55.9029 49.6712 53.6142 49.6902L53.6225 50.6902ZM58.7425 45.5334C58.6973 42.7063 56.378 40.4088 53.5676 40.427L53.5741 41.4269C55.8265 41.4124 57.7061 43.2613 57.7426 45.5494L58.7425 45.5334ZM53.5677 40.427C50.7558 40.4451 48.4121 42.801 48.4467 45.595L49.4466 45.5827C49.419 43.3532 51.3068 41.4416 53.5741 41.4269L53.5677 40.427ZM48.4467 45.5949C48.4811 48.4204 50.805 50.7138 53.6225 50.6902L53.6141 49.6902C51.3525 49.7092 49.4743 47.8626 49.4466 45.5828L48.4467 45.5949ZM24.7715 45.2543H46.3563V44.2543H24.7715V45.2543ZM4 37.1847L3.03409 36.9258L3 37.053V37.1847H4ZM5.32706 34.2737L4.56509 33.626L4.56501 33.6261L5.32706 34.2737ZM8.51135 32.3183L8.77277 33.2835L8.77278 33.2835L8.51135 32.3183ZM17.2837 29.9358L17.0269 28.9693L17.0256 28.9696L17.2837 29.9358ZM18.3719 29.1912L17.573 28.5898L17.5723 28.5907L18.3719 29.1912ZM23.5819 22.3448L24.3803 22.9469L24.3804 22.9469L23.5819 22.3448ZM29.7443 19.2636L29.7433 18.2636L29.743 18.2636L29.7443 19.2636ZM48.5801 19.2653L48.5783 20.2653L48.5783 20.2653L48.5801 19.2653ZM55.0583 22.8897L55.9081 22.3627L55.9081 22.3626L55.0583 22.8897ZM59.1409 29.3761L59.9836 28.8376L59.9831 28.8369L59.1409 29.3761ZM59.9035 30.0503L59.4702 30.9516L59.4714 30.9522L59.9035 30.0503ZM64.1481 31.9975L64.5572 31.085L64.5571 31.085L64.1481 31.9975ZM67.874 37.7836L68.8739 37.7967L68.8739 37.7967L67.874 37.7836ZM67.7906 42.2687L68.785 42.3743L68.785 42.3742L67.7906 42.2687ZM62.0618 47.3774L62.0729 46.3774L62.0729 46.3774L62.0618 47.3774ZM60.144 48.6111L61.0631 49.0051L61.0633 49.0047L60.144 48.6111ZM53.3189 52.841L53.2639 53.8395L53.2642 53.8396L53.3189 52.841ZM46.7212 47.8813L47.6678 47.5589L47.6673 47.5574L46.7212 47.8813ZM46.0749 47.4003L46.0749 46.4003L46.0732 46.4003L46.0749 47.4003ZM25.0562 47.3986L25.0581 46.3986H25.0562V47.3986ZM24.4115 47.8846L25.357 48.2103L25.3571 48.2102L24.4115 47.8846ZM17.5602 52.8427L17.5623 53.8427L17.5623 53.8427L17.5602 52.8427ZM10.6566 47.8683L11.602 47.5425L11.6018 47.5418L10.6566 47.8683ZM10.0675 47.3986L10.1008 48.3981L10.1024 48.398L10.0675 47.3986ZM4.06054 42.4013L3.06891 42.5306L3.06998 42.5384L4.06054 42.4013ZM4 42.2933L3 42.2933L3 42.5667L3.13907 42.802L4 42.2933ZM60.8313 44.792L59.8415 44.9345L59.965 45.792H60.8313V44.792ZM62.0356 44.792L62.0477 45.7919L62.0493 45.7919L62.0356 44.792ZM65.2477 41.5635L66.2477 41.5703L66.2477 41.5697L65.2477 41.5635ZM65.251 37.6347L66.2509 37.6447L66.2509 37.6444L65.251 37.6347ZM63.1941 34.4504L62.7802 35.3607L62.7803 35.3607L63.1941 34.4504ZM58.3882 32.2348L57.9449 33.1311L57.9458 33.1316L58.3882 32.2348ZM57.2052 31.2055L58.0441 30.6614L58.0438 30.6609L57.2052 31.2055ZM53.0047 24.4999L53.8644 23.989L53.8639 23.9882L53.0047 24.4999ZM48.2708 21.8654L48.2768 22.8654L48.277 22.8654L48.2708 21.8654ZM30.124 21.867L30.119 22.867L30.1191 22.867L30.124 21.867ZM25.4375 24.1988L24.6318 23.6064L24.6315 23.6069L25.4375 24.1988ZM20.0884 31.2514L19.2885 30.6512L19.2878 30.6521L20.0884 31.2514ZM18.5306 32.2953L18.7688 33.2666L18.7691 33.2665L18.5306 32.2953ZM15.1647 33.2002L15.4292 34.1646L15.4293 34.1646L15.1647 33.2002ZM8.92371 34.9233L9.20011 35.8843L9.20033 35.8843L8.92371 34.9233ZM6.63449 37.6379L5.63503 37.6048L5.635 37.606L6.63449 37.6379ZM6.64103 41.9398L5.64229 41.9901L5.64232 41.9906L6.64103 41.9398ZM10.3048 44.7052L10.5331 45.6788L11.1846 45.526L11.2918 44.8656L10.3048 44.7052ZM17.2902 38.3285L17.2454 37.3295L17.2447 37.3295L17.2902 38.3285ZM21.6903 39.6326L21.1163 40.4515L21.1167 40.4517L21.6903 39.6326ZM24.7715 44.7543L23.7826 44.9024L23.9101 45.7543H24.7715V44.7543ZM46.3563 44.7543V45.7543H47.2078L47.3435 44.9138L46.3563 44.7543ZM53.7738 38.3268L53.7519 39.3266L53.7519 39.3266L53.7738 38.3268ZM4.96591 37.4436C5.24305 36.4095 5.52425 35.5859 6.08911 34.9212L4.56501 33.6261C3.68663 34.6599 3.31657 35.8719 3.03409 36.9258L4.96591 37.4436ZM6.08903 34.9213C6.79065 34.0958 7.67909 33.5797 8.77277 33.2835L8.24994 31.353C6.83021 31.7375 5.56853 32.4454 4.56509 33.626L6.08903 34.9213ZM8.77278 33.2835C11.7053 32.4892 14.6153 31.6838 17.5418 30.9019L17.0256 28.9696C14.0973 29.752 11.1656 30.5633 8.24993 31.353L8.77278 33.2835ZM17.5405 30.9022C18.2393 30.7165 18.7544 30.3471 19.1715 29.7918L17.5723 28.5907C17.4068 28.811 17.2641 28.9063 17.0269 28.9693L17.5405 30.9022ZM19.1708 29.7927C20.0305 28.6507 20.8992 27.5143 21.7706 26.3749C22.6413 25.2364 23.5148 24.0947 24.3803 22.9469L22.7835 21.7427C21.9227 22.8842 21.0535 24.0202 20.1819 25.1599C19.3111 26.2987 18.4379 27.4409 17.573 28.5898L19.1708 29.7927ZM24.3804 22.9469C25.7416 21.1415 27.4986 20.2665 29.7456 20.2636L29.743 18.2636C26.8683 18.2673 24.5215 19.4377 22.7834 21.7428L24.3804 22.9469ZM29.7454 20.2636C36.0237 20.2571 42.3011 20.2538 48.5783 20.2653L48.5819 18.2653C42.3019 18.2538 36.0221 18.2571 29.7433 18.2636L29.7454 20.2636ZM48.5783 20.2653C51.0533 20.2696 52.8953 21.2997 54.2085 23.4168L55.9081 22.3626C54.2333 19.6625 51.7522 18.2708 48.5818 18.2653L48.5783 20.2653ZM54.2085 23.4168C55.5571 25.5913 56.9178 27.7587 58.2988 29.9154L59.9831 28.8369C58.6085 26.6901 57.2529 24.531 55.9081 22.3627L54.2085 23.4168ZM58.2983 29.9146C58.5763 30.3496 59.0085 30.7296 59.4702 30.9516L60.3367 29.149C60.2061 29.0862 60.059 28.9557 59.9836 28.8376L58.2983 29.9146ZM59.4714 30.9522C60.8885 31.631 62.3199 32.274 63.7391 32.9101L64.5571 31.085C63.1357 30.448 61.7264 29.8147 60.3355 29.1484L59.4714 30.9522ZM63.739 32.91C64.8506 33.4083 65.6245 34.0532 66.1229 34.8225C66.6203 35.5903 66.89 36.5543 66.8741 37.7705L68.8739 37.7967C68.894 36.2605 68.5509 34.8919 67.8014 33.7351C67.0529 32.5796 65.9459 31.7076 64.5572 31.085L63.739 32.91ZM66.8741 37.7705C66.8531 39.3703 66.947 40.7407 66.7961 42.1633L68.785 42.3742C68.9482 40.8351 68.8557 39.1881 68.8739 37.7967L66.8741 37.7705ZM66.7961 42.1632C66.5246 44.7213 64.6356 46.406 62.0729 46.3774L62.0506 48.3773C65.6503 48.4174 68.4052 45.9524 68.785 42.3743L66.7961 42.1632ZM62.0729 46.3774C61.4973 46.371 60.889 46.4313 60.3458 46.7707C59.7953 47.1148 59.4697 47.6453 59.2247 48.2176L61.0633 49.0047C61.2421 48.587 61.3608 48.4949 61.4058 48.4667C61.4583 48.4339 61.597 48.3722 62.0506 48.3773L62.0729 46.3774ZM59.2248 48.2172C58.2221 50.5569 55.8062 51.9757 53.3736 51.8425L53.2642 53.8396C56.5096 54.0173 59.7194 52.1405 61.0631 49.0051L59.2248 48.2172ZM53.3739 51.8426C50.6816 51.6943 48.5268 50.0808 47.6678 47.5589L45.7746 48.2038C46.9021 51.5138 49.7741 53.6474 53.2639 53.8395L53.3739 51.8426ZM47.6673 47.5574C47.588 47.3258 47.4413 46.9714 47.1015 46.7118C46.7474 46.4413 46.3539 46.4003 46.0749 46.4003V48.4003C46.1755 48.4003 46.0438 48.4206 45.8873 48.3011C45.8149 48.2457 45.7761 48.1893 45.7616 48.1649C45.7504 48.146 45.7565 48.1509 45.7752 48.2053L47.6673 47.5574ZM46.0732 46.4003C39.0676 46.4117 32.0636 46.4117 25.0581 46.3986L25.0544 48.3986C32.0624 48.4117 39.0687 48.4117 46.0765 48.4003L46.0732 46.4003ZM25.0562 46.3986C24.7558 46.3986 24.3585 46.4499 24.0075 46.731C23.6793 46.9938 23.5399 47.3446 23.466 47.559L25.3571 48.2102C25.3764 48.154 25.3832 48.1463 25.3744 48.1615C25.3626 48.182 25.327 48.2366 25.2577 48.2921C25.1019 48.4169 24.9672 48.3986 25.0562 48.3986V46.3986ZM23.4661 47.5589C22.5712 50.1568 20.2215 51.8371 17.5581 51.8427L17.5623 53.8427C21.0941 53.8352 24.1901 51.5981 25.357 48.2103L23.4661 47.5589ZM17.5582 51.8427C14.8557 51.8483 12.5096 50.1769 11.602 47.5426L9.7111 48.194C10.8915 51.6205 13.9878 53.8501 17.5623 53.8427L17.5582 51.8427ZM11.6018 47.5418C11.5479 47.3857 11.4291 47.0394 11.1365 46.7718C10.7877 46.4526 10.3708 46.3874 10.0326 46.3992L10.1024 48.398C10.1252 48.3972 10.0902 48.4016 10.0238 48.3823C9.9472 48.3601 9.86141 48.3159 9.78634 48.2472C9.71803 48.1847 9.68798 48.1286 9.68331 48.1196C9.68063 48.1144 9.68901 48.13 9.71136 48.1947L11.6018 47.5418ZM10.0341 46.3992C7.36905 46.4881 5.38657 44.6886 5.0511 42.2642L3.06998 42.5384C3.54286 45.9557 6.39081 48.5219 10.1008 48.3981L10.0341 46.3992ZM5.05214 42.272C5.03417 42.1341 4.99265 42.0244 4.95786 41.95C4.92368 41.8769 4.88797 41.8213 4.86846 41.792C4.85802 41.7763 4.84885 41.7633 4.84337 41.7555C4.84059 41.7516 4.83799 41.748 4.83651 41.7459C4.83468 41.7433 4.83405 41.7424 4.83354 41.7417C4.82981 41.7365 4.84392 41.7558 4.86093 41.7846L3.13907 42.802C3.16671 42.8488 3.1931 42.8859 3.20195 42.8984C3.21835 42.9215 3.20902 42.9084 3.20435 42.9014C3.19671 42.8899 3.17184 42.8521 3.14614 42.7972C3.11985 42.7409 3.08446 42.6496 3.06894 42.5306L5.05214 42.272ZM5 42.2933C5 40.6174 5 38.8672 5 37.1847H3C3 38.9212 3 40.5633 3 42.2933L5 42.2933ZM60.8313 45.792C61.2051 45.792 61.6348 45.7969 62.0477 45.7919L62.0235 43.792C61.6247 43.7969 61.2395 43.792 60.8313 43.792V45.792ZM62.0493 45.7919C63.2311 45.7757 64.2913 45.3622 65.0607 44.5897C65.8305 43.8169 66.2396 42.7546 66.2477 41.5703L64.2477 41.5566C64.2427 42.282 63.9998 42.8208 63.6437 43.1783C63.2873 43.5361 62.748 43.7821 62.0219 43.7921L62.0493 45.7919ZM66.2477 41.5697C66.2562 40.2048 66.2376 38.9804 66.2509 37.6447L64.251 37.6247C64.2382 38.9071 64.2555 40.304 64.2477 41.5572L66.2477 41.5697ZM66.2509 37.6444C66.2599 36.723 66.0496 35.8804 65.5783 35.1588C65.1086 34.4396 64.4262 33.912 63.6079 33.54L62.7803 35.3607C63.33 35.6106 63.6834 35.9151 63.9038 36.2525C64.1226 36.5875 64.2568 37.0262 64.251 37.625L66.2509 37.6444ZM63.608 33.54C61.9836 32.8016 60.3941 32.1092 58.8306 31.338L57.9458 33.1316C59.547 33.9215 61.1941 34.6396 62.7802 35.3607L63.608 33.54ZM58.8316 31.3384C58.5157 31.1822 58.2095 30.9163 58.0441 30.6614L56.3662 31.7497C56.7506 32.3424 57.3476 32.8357 57.9449 33.1311L58.8316 31.3384ZM58.0438 30.6609C56.61 28.453 55.2012 26.2387 53.8644 23.989L52.145 25.0107C53.5016 27.2937 54.9269 29.5335 56.3665 31.7502L58.0438 30.6609ZM53.8639 23.9882C53.2462 22.951 52.4705 22.1501 51.5055 21.6179C50.5424 21.0867 49.4543 20.858 48.2646 20.8654L48.277 22.8654C49.1998 22.8597 49.9354 23.036 50.5395 23.3692C51.1417 23.7013 51.6767 24.2243 52.1455 25.0115L53.8639 23.9882ZM48.2649 20.8654C42.2198 20.9014 36.1757 20.8965 30.1288 20.867L30.1191 22.867C36.1712 22.8965 42.2228 22.9014 48.2768 22.8654L48.2649 20.8654ZM30.1289 20.867C27.8348 20.8557 26.0089 21.7334 24.6318 23.6064L26.2432 24.7912C27.2289 23.4504 28.4434 22.8587 30.119 22.867L30.1289 20.867ZM24.6315 23.6069C22.8814 25.9901 21.088 28.253 19.2885 30.6512L20.8882 31.8515C22.6298 29.5306 24.5017 27.1627 26.2435 24.7907L24.6315 23.6069ZM19.2878 30.6521C19.0102 31.023 18.7153 31.2202 18.292 31.3242L18.7691 33.2665C19.6647 33.0465 20.3484 32.5728 20.8889 31.8506L19.2878 30.6521ZM18.2924 31.3241C17.1473 31.605 16.0059 31.9324 14.9 32.2359L15.4293 34.1646C16.5652 33.8528 17.659 33.5388 18.7688 33.2666L18.2924 31.3241ZM14.9001 32.2359C12.8286 32.8042 10.7299 33.3628 8.64708 33.9623L9.20033 35.8843C11.2672 35.2893 13.3379 34.7384 15.4292 34.1646L14.9001 32.2359ZM8.6473 33.9622C6.93643 34.4543 5.69407 35.8224 5.63503 37.6048L7.63394 37.671C7.65999 36.8844 8.1914 36.1744 9.20011 35.8843L8.6473 33.9622ZM5.635 37.606C5.58886 39.0478 5.56826 40.5178 5.64229 41.9901L7.63977 41.8896C7.56981 40.4983 7.58848 39.0916 7.63397 37.6699L5.635 37.606ZM5.64232 41.9906C5.76923 44.4873 8.16012 46.2354 10.5331 45.6788L10.0764 43.7317C8.90513 44.0064 7.70264 43.1265 7.63974 41.8891L5.64232 41.9906ZM11.2918 44.8656C11.8754 41.2725 14.5959 39.4523 17.3358 39.3274L17.2447 37.3295C13.6651 37.4926 10.0694 39.917 9.3177 44.5449L11.2918 44.8656ZM17.3351 39.3275C18.7099 39.2658 19.9699 39.6479 21.1163 40.4515L22.2643 38.8138C20.773 37.7683 19.081 37.2471 17.2454 37.3295L17.3351 39.3275ZM21.1167 40.4517C22.6493 41.5251 23.4997 43.0138 23.7826 44.9024L25.7605 44.6062C25.4052 42.2338 24.292 40.2339 22.264 38.8135L21.1167 40.4517ZM24.7715 45.7543C24.7856 45.7543 24.7998 45.7543 24.8139 45.7543C24.828 45.7543 24.8421 45.7543 24.8562 45.7543C24.8703 45.7543 24.8844 45.7543 24.8985 45.7543C24.9127 45.7543 24.9268 45.7543 24.9409 45.7543C24.955 45.7543 24.9691 45.7543 24.9832 45.7543C24.9973 45.7543 25.0114 45.7543 25.0255 45.7543C25.0397 45.7543 25.0538 45.7543 25.0679 45.7543C25.082 45.7543 25.0961 45.7543 25.1102 45.7543C25.1243 45.7543 25.1384 45.7543 25.1525 45.7543C25.1667 45.7543 25.1808 45.7543 25.1949 45.7543C25.209 45.7543 25.2231 45.7543 25.2372 45.7543C25.2513 45.7543 25.2654 45.7543 25.2795 45.7543C25.2936 45.7543 25.3078 45.7543 25.3219 45.7543C25.336 45.7543 25.3501 45.7543 25.3642 45.7543C25.3783 45.7543 25.3924 45.7543 25.4065 45.7543C25.4206 45.7543 25.4347 45.7543 25.4488 45.7543C25.4629 45.7543 25.4771 45.7543 25.4912 45.7543C25.5053 45.7543 25.5194 45.7543 25.5335 45.7543C25.5476 45.7543 25.5617 45.7543 25.5758 45.7543C25.5899 45.7543 25.604 45.7543 25.6181 45.7543C25.6322 45.7543 25.6463 45.7543 25.6604 45.7543C25.6746 45.7543 25.6887 45.7543 25.7028 45.7543C25.7169 45.7543 25.731 45.7543 25.7451 45.7543C25.7592 45.7543 25.7733 45.7543 25.7874 45.7543C25.8015 45.7543 25.8156 45.7543 25.8297 45.7543C25.8438 45.7543 25.8579 45.7543 25.872 45.7543C25.8861 45.7543 25.9002 45.7543 25.9143 45.7543C25.9284 45.7543 25.9426 45.7543 25.9567 45.7543C25.9708 45.7543 25.9849 45.7543 25.999 45.7543C26.0131 45.7543 26.0272 45.7543 26.0413 45.7543C26.0554 45.7543 26.0695 45.7543 26.0836 45.7543C26.0977 45.7543 26.1118 45.7543 26.1259 45.7543C26.14 45.7543 26.1541 45.7543 26.1682 45.7543C26.1823 45.7543 26.1964 45.7543 26.2105 45.7543C26.2246 45.7543 26.2387 45.7543 26.2528 45.7543C26.2669 45.7543 26.281 45.7543 26.2951 45.7543C26.3092 45.7543 26.3233 45.7543 26.3374 45.7543C26.3515 45.7543 26.3656 45.7543 26.3797 45.7543C26.3938 45.7543 26.4079 45.7543 26.422 45.7543C26.4361 45.7543 26.4502 45.7543 26.4643 45.7543C26.4784 45.7543 26.4925 45.7543 26.5066 45.7543C26.5207 45.7543 26.5348 45.7543 26.5489 45.7543C26.563 45.7543 26.5771 45.7543 26.5912 45.7543C26.6053 45.7543 26.6194 45.7543 26.6335 45.7543C26.6476 45.7543 26.6617 45.7543 26.6758 45.7543C26.6899 45.7543 26.704 45.7543 26.7181 45.7543C26.7322 45.7543 26.7463 45.7543 26.7604 45.7543C26.7745 45.7543 26.7886 45.7543 26.8027 45.7543C26.8168 45.7543 26.8309 45.7543 26.845 45.7543C26.8591 45.7543 26.8732 45.7543 26.8873 45.7543C26.9014 45.7543 26.9155 45.7543 26.9296 45.7543C26.9437 45.7543 26.9578 45.7543 26.9719 45.7543C26.986 45.7543 27.0001 45.7543 27.0142 45.7543C27.0283 45.7543 27.0424 45.7543 27.0565 45.7543C27.0706 45.7543 27.0846 45.7543 27.0987 45.7543C27.1128 45.7543 27.1269 45.7543 27.141 45.7543C27.1551 45.7543 27.1692 45.7543 27.1833 45.7543C27.1974 45.7543 27.2115 45.7543 27.2256 45.7543C27.2397 45.7543 27.2538 45.7543 27.2679 45.7543C27.282 45.7543 27.2961 45.7543 27.3102 45.7543C27.3243 45.7543 27.3384 45.7543 27.3525 45.7543C27.3665 45.7543 27.3806 45.7543 27.3947 45.7543C27.4088 45.7543 27.4229 45.7543 27.437 45.7543C27.4511 45.7543 27.4652 45.7543 27.4793 45.7543C27.4934 45.7543 27.5075 45.7543 27.5216 45.7543C27.5357 45.7543 27.5498 45.7543 27.5638 45.7543C27.5779 45.7543 27.592 45.7543 27.6061 45.7543C27.6202 45.7543 27.6343 45.7543 27.6484 45.7543C27.6625 45.7543 27.6766 45.7543 27.6907 45.7543C27.7048 45.7543 27.7189 45.7543 27.7329 45.7543C27.747 45.7543 27.7611 45.7543 27.7752 45.7543C27.7893 45.7543 27.8034 45.7543 27.8175 45.7543C27.8316 45.7543 27.8457 45.7543 27.8598 45.7543C27.8739 45.7543 27.8879 45.7543 27.902 45.7543C27.9161 45.7543 27.9302 45.7543 27.9443 45.7543C27.9584 45.7543 27.9725 45.7543 27.9866 45.7543C28.0007 45.7543 28.0148 45.7543 28.0288 45.7543C28.0429 45.7543 28.057 45.7543 28.0711 45.7543C28.0852 45.7543 28.0993 45.7543 28.1134 45.7543C28.1275 45.7543 28.1415 45.7543 28.1556 45.7543C28.1697 45.7543 28.1838 45.7543 28.1979 45.7543C28.212 45.7543 28.2261 45.7543 28.2402 45.7543C28.2543 45.7543 28.2683 45.7543 28.2824 45.7543C28.2965 45.7543 28.3106 45.7543 28.3247 45.7543C28.3388 45.7543 28.3529 45.7543 28.367 45.7543C28.381 45.7543 28.3951 45.7543 28.4092 45.7543C28.4233 45.7543 28.4374 45.7543 28.4515 45.7543C28.4656 45.7543 28.4796 45.7543 28.4937 45.7543C28.5078 45.7543 28.5219 45.7543 28.536 45.7543C28.5501 45.7543 28.5642 45.7543 28.5782 45.7543C28.5923 45.7543 28.6064 45.7543 28.6205 45.7543C28.6346 45.7543 28.6487 45.7543 28.6628 45.7543C28.6768 45.7543 28.6909 45.7543 28.705 45.7543C28.7191 45.7543 28.7332 45.7543 28.7473 45.7543C28.7613 45.7543 28.7754 45.7543 28.7895 45.7543C28.8036 45.7543 28.8177 45.7543 28.8318 45.7543C28.8458 45.7543 28.8599 45.7543 28.874 45.7543C28.8881 45.7543 28.9022 45.7543 28.9163 45.7543C28.9303 45.7543 28.9444 45.7543 28.9585 45.7543C28.9726 45.7543 28.9867 45.7543 29.0008 45.7543C29.0148 45.7543 29.0289 45.7543 29.043 45.7543C29.0571 45.7543 29.0712 45.7543 29.0853 45.7543C29.0993 45.7543 29.1134 45.7543 29.1275 45.7543C29.1416 45.7543 29.1557 45.7543 29.1697 45.7543C29.1838 45.7543 29.1979 45.7543 29.212 45.7543C29.2261 45.7543 29.2401 45.7543 29.2542 45.7543C29.2683 45.7543 29.2824 45.7543 29.2965 45.7543C29.3106 45.7543 29.3246 45.7543 29.3387 45.7543C29.3528 45.7543 29.3669 45.7543 29.381 45.7543C29.395 45.7543 29.4091 45.7543 29.4232 45.7543C29.4373 45.7543 29.4514 45.7543 29.4654 45.7543C29.4795 45.7543 29.4936 45.7543 29.5077 45.7543C29.5218 45.7543 29.5358 45.7543 29.5499 45.7543C29.564 45.7543 29.5781 45.7543 29.5921 45.7543C29.6062 45.7543 29.6203 45.7543 29.6344 45.7543C29.6485 45.7543 29.6625 45.7543 29.6766 45.7543C29.6907 45.7543 29.7048 45.7543 29.7188 45.7543C29.7329 45.7543 29.747 45.7543 29.7611 45.7543C29.7752 45.7543 29.7892 45.7543 29.8033 45.7543C29.8174 45.7543 29.8315 45.7543 29.8455 45.7543C29.8596 45.7543 29.8737 45.7543 29.8878 45.7543C29.9019 45.7543 29.9159 45.7543 29.93 45.7543C29.9441 45.7543 29.9582 45.7543 29.9722 45.7543C29.9863 45.7543 30.0004 45.7543 30.0145 45.7543C30.0285 45.7543 30.0426 45.7543 30.0567 45.7543C30.0708 45.7543 30.0848 45.7543 30.0989 45.7543C30.113 45.7543 30.1271 45.7543 30.1411 45.7543C30.1552 45.7543 30.1693 45.7543 30.1834 45.7543C30.1974 45.7543 30.2115 45.7543 30.2256 45.7543C30.2397 45.7543 30.2537 45.7543 30.2678 45.7543C30.2819 45.7543 30.296 45.7543 30.31 45.7543C30.3241 45.7543 30.3382 45.7543 30.3523 45.7543C30.3663 45.7543 30.3804 45.7543 30.3945 45.7543C30.4086 45.7543 30.4226 45.7543 30.4367 45.7543C30.4508 45.7543 30.4649 45.7543 30.4789 45.7543C30.493 45.7543 30.5071 45.7543 30.5211 45.7543C30.5352 45.7543 30.5493 45.7543 30.5634 45.7543C30.5774 45.7543 30.5915 45.7543 30.6056 45.7543C30.6197 45.7543 30.6337 45.7543 30.6478 45.7543C30.6619 45.7543 30.6759 45.7543 30.69 45.7543C30.7041 45.7543 30.7182 45.7543 30.7322 45.7543C30.7463 45.7543 30.7604 45.7543 30.7744 45.7543C30.7885 45.7543 30.8026 45.7543 30.8167 45.7543C30.8307 45.7543 30.8448 45.7543 30.8589 45.7543C30.8729 45.7543 30.887 45.7543 30.9011 45.7543C30.9152 45.7543 30.9292 45.7543 30.9433 45.7543C30.9574 45.7543 30.9714 45.7543 30.9855 45.7543C30.9996 45.7543 31.0136 45.7543 31.0277 45.7543C31.0418 45.7543 31.0559 45.7543 31.0699 45.7543C31.084 45.7543 31.0981 45.7543 31.1121 45.7543C31.1262 45.7543 31.1403 45.7543 31.1543 45.7543C31.1684 45.7543 31.1825 45.7543 31.1965 45.7543C31.2106 45.7543 31.2247 45.7543 31.2388 45.7543C31.2528 45.7543 31.2669 45.7543 31.281 45.7543C31.295 45.7543 31.3091 45.7543 31.3232 45.7543C31.3372 45.7543 31.3513 45.7543 31.3654 45.7543C31.3794 45.7543 31.3935 45.7543 31.4076 45.7543C31.4216 45.7543 31.4357 45.7543 31.4498 45.7543C31.4638 45.7543 31.4779 45.7543 31.492 45.7543C31.506 45.7543 31.5201 45.7543 31.5342 45.7543C31.5482 45.7543 31.5623 45.7543 31.5764 45.7543C31.5904 45.7543 31.6045 45.7543 31.6186 45.7543C31.6326 45.7543 31.6467 45.7543 31.6608 45.7543C31.6748 45.7543 31.6889 45.7543 31.703 45.7543C31.717 45.7543 31.7311 45.7543 31.7452 45.7543C31.7592 45.7543 31.7733 45.7543 31.7874 45.7543C31.8014 45.7543 31.8155 45.7543 31.8296 45.7543C31.8436 45.7543 31.8577 45.7543 31.8718 45.7543C31.8858 45.7543 31.8999 45.7543 31.914 45.7543C31.928 45.7543 31.9421 45.7543 31.9561 45.7543C31.9702 45.7543 31.9843 45.7543 31.9983 45.7543C32.0124 45.7543 32.0265 45.7543 32.0405 45.7543C32.0546 45.7543 32.0687 45.7543 32.0827 45.7543C32.0968 45.7543 32.1108 45.7543 32.1249 45.7543C32.139 45.7543 32.153 45.7543 32.1671 45.7543C32.1812 45.7543 32.1952 45.7543 32.2093 45.7543C32.2234 45.7543 32.2374 45.7543 32.2515 45.7543C32.2655 45.7543 32.2796 45.7543 32.2937 45.7543C32.3077 45.7543 32.3218 45.7543 32.3359 45.7543C32.3499 45.7543 32.364 45.7543 32.378 45.7543C32.3921 45.7543 32.4062 45.7543 32.4202 45.7543C32.4343 45.7543 32.4484 45.7543 32.4624 45.7543C32.4765 45.7543 32.4905 45.7543 32.5046 45.7543C32.5187 45.7543 32.5327 45.7543 32.5468 45.7543C32.5608 45.7543 32.5749 45.7543 32.589 45.7543C32.603 45.7543 32.6171 45.7543 32.6311 45.7543C32.6452 45.7543 32.6593 45.7543 32.6733 45.7543C32.6874 45.7543 32.7015 45.7543 32.7155 45.7543C32.7296 45.7543 32.7436 45.7543 32.7577 45.7543C32.7718 45.7543 32.7858 45.7543 32.7999 45.7543C32.8139 45.7543 32.828 45.7543 32.8421 45.7543C32.8561 45.7543 32.8702 45.7543 32.8842 45.7543C32.8983 45.7543 32.9123 45.7543 32.9264 45.7543C32.9405 45.7543 32.9545 45.7543 32.9686 45.7543C32.9826 45.7543 32.9967 45.7543 33.0108 45.7543C33.0248 45.7543 33.0389 45.7543 33.0529 45.7543C33.067 45.7543 33.0811 45.7543 33.0951 45.7543C33.1092 45.7543 33.1232 45.7543 33.1373 45.7543C33.1513 45.7543 33.1654 45.7543 33.1795 45.7543C33.1935 45.7543 33.2076 45.7543 33.2216 45.7543C33.2357 45.7543 33.2497 45.7543 33.2638 45.7543C33.2779 45.7543 33.2919 45.7543 33.306 45.7543C33.32 45.7543 33.3341 45.7543 33.3481 45.7543C33.3622 45.7543 33.3763 45.7543 33.3903 45.7543C33.4044 45.7543 33.4184 45.7543 33.4325 45.7543C33.4465 45.7543 33.4606 45.7543 33.4747 45.7543C33.4887 45.7543 33.5028 45.7543 33.5168 45.7543C33.5309 45.7543 33.5449 45.7543 33.559 45.7543C33.5731 45.7543 33.5871 45.7543 33.6012 45.7543C33.6152 45.7543 33.6293 45.7543 33.6433 45.7543C33.6574 45.7543 33.6714 45.7543 33.6855 45.7543C33.6996 45.7543 33.7136 45.7543 33.7277 45.7543C33.7417 45.7543 33.7558 45.7543 33.7698 45.7543C33.7839 45.7543 33.7979 45.7543 33.812 45.7543C33.826 45.7543 33.8401 45.7543 33.8542 45.7543C33.8682 45.7543 33.8823 45.7543 33.8963 45.7543C33.9104 45.7543 33.9244 45.7543 33.9385 45.7543C33.9525 45.7543 33.9666 45.7543 33.9806 45.7543C33.9947 45.7543 34.0087 45.7543 34.0228 45.7543C34.0369 45.7543 34.0509 45.7543 34.065 45.7543C34.079 45.7543 34.0931 45.7543 34.1071 45.7543C34.1212 45.7543 34.1352 45.7543 34.1493 45.7543C34.1633 45.7543 34.1774 45.7543 34.1914 45.7543C34.2055 45.7543 34.2195 45.7543 34.2336 45.7543C34.2476 45.7543 34.2617 45.7543 34.2758 45.7543C34.2898 45.7543 34.3039 45.7543 34.3179 45.7543C34.332 45.7543 34.346 45.7543 34.3601 45.7543C34.3741 45.7543 34.3882 45.7543 34.4022 45.7543C34.4163 45.7543 34.4303 45.7543 34.4444 45.7543C34.4584 45.7543 34.4725 45.7543 34.4865 45.7543C34.5006 45.7543 34.5146 45.7543 34.5287 45.7543C34.5427 45.7543 34.5568 45.7543 34.5708 45.7543C34.5849 45.7543 34.5989 45.7543 34.613 45.7543C34.627 45.7543 34.6411 45.7543 34.6551 45.7543C34.6692 45.7543 34.6832 45.7543 34.6973 45.7543C34.7113 45.7543 34.7254 45.7543 34.7394 45.7543C34.7535 45.7543 34.7675 45.7543 34.7816 45.7543C34.7956 45.7543 34.8097 45.7543 34.8237 45.7543C34.8378 45.7543 34.8518 45.7543 34.8659 45.7543C34.8799 45.7543 34.894 45.7543 34.908 45.7543C34.9221 45.7543 34.9361 45.7543 34.9502 45.7543C34.9642 45.7543 34.9783 45.7543 34.9923 45.7543C35.0064 45.7543 35.0204 45.7543 35.0345 45.7543C35.0485 45.7543 35.0626 45.7543 35.0766 45.7543C35.0907 45.7543 35.1047 45.7543 35.1188 45.7543C35.1328 45.7543 35.1469 45.7543 35.1609 45.7543C35.175 45.7543 35.189 45.7543 35.2031 45.7543C35.2171 45.7543 35.2312 45.7543 35.2452 45.7543C35.2592 45.7543 35.2733 45.7543 35.2873 45.7543C35.3014 45.7543 35.3154 45.7543 35.3295 45.7543C35.3435 45.7543 35.3576 45.7543 35.3716 45.7543C35.3857 45.7543 35.3997 45.7543 35.4138 45.7543C35.4278 45.7543 35.4419 45.7543 35.4559 45.7543C35.47 45.7543 35.484 45.7543 35.4981 45.7543C35.5121 45.7543 35.5261 45.7543 35.5402 45.7543C35.5542 45.7543 35.5683 45.7543 35.5823 45.7543C35.5964 45.7543 35.6104 45.7543 35.6245 45.7543C35.6385 45.7543 35.6526 45.7543 35.6666 45.7543C35.6807 45.7543 35.6947 45.7543 35.7087 45.7543C35.7228 45.7543 35.7368 45.7543 35.7509 45.7543C35.7649 45.7543 35.779 45.7543 35.793 45.7543C35.8071 45.7543 35.8211 45.7543 35.8352 45.7543C35.8492 45.7543 35.8632 45.7543 35.8773 45.7543C35.8913 45.7543 35.9054 45.7543 35.9194 45.7543C35.9335 45.7543 35.9475 45.7543 35.9616 45.7543C35.9756 45.7543 35.9896 45.7543 36.0037 45.7543C36.0177 45.7543 36.0318 45.7543 36.0458 45.7543C36.0599 45.7543 36.0739 45.7543 36.088 45.7543C36.102 45.7543 36.116 45.7543 36.1301 45.7543C36.1441 45.7543 36.1582 45.7543 36.1722 45.7543C36.1863 45.7543 36.2003 45.7543 36.2143 45.7543C36.2284 45.7543 36.2424 45.7543 36.2565 45.7543C36.2705 45.7543 36.2846 45.7543 36.2986 45.7543C36.3126 45.7543 36.3267 45.7543 36.3407 45.7543C36.3548 45.7543 36.3688 45.7543 36.3829 45.7543C36.3969 45.7543 36.4109 45.7543 36.425 45.7543C36.439 45.7543 36.4531 45.7543 36.4671 45.7543C36.4812 45.7543 36.4952 45.7543 36.5092 45.7543C36.5233 45.7543 36.5373 45.7543 36.5514 45.7543C36.5654 45.7543 36.5795 45.7543 36.5935 45.7543C36.6075 45.7543 36.6216 45.7543 36.6356 45.7543C36.6497 45.7543 36.6637 45.7543 36.6777 45.7543C36.6918 45.7543 36.7058 45.7543 36.7199 45.7543C36.7339 45.7543 36.748 45.7543 36.762 45.7543C36.776 45.7543 36.7901 45.7543 36.8041 45.7543C36.8182 45.7543 36.8322 45.7543 36.8462 45.7543C36.8603 45.7543 36.8743 45.7543 36.8884 45.7543C36.9024 45.7543 36.9164 45.7543 36.9305 45.7543C36.9445 45.7543 36.9586 45.7543 36.9726 45.7543C36.9866 45.7543 37.0007 45.7543 37.0147 45.7543C37.0288 45.7543 37.0428 45.7543 37.0568 45.7543C37.0709 45.7543 37.0849 45.7543 37.099 45.7543C37.113 45.7543 37.127 45.7543 37.1411 45.7543C37.1551 45.7543 37.1692 45.7543 37.1832 45.7543C37.1972 45.7543 37.2113 45.7543 37.2253 45.7543C37.2394 45.7543 37.2534 45.7543 37.2674 45.7543C37.2815 45.7543 37.2955 45.7543 37.3096 45.7543C37.3236 45.7543 37.3376 45.7543 37.3517 45.7543C37.3657 45.7543 37.3798 45.7543 37.3938 45.7543C37.4078 45.7543 37.4219 45.7543 37.4359 45.7543C37.4499 45.7543 37.464 45.7543 37.478 45.7543C37.4921 45.7543 37.5061 45.7543 37.5201 45.7543C37.5342 45.7543 37.5482 45.7543 37.5623 45.7543C37.5763 45.7543 37.5903 45.7543 37.6044 45.7543C37.6184 45.7543 37.6324 45.7543 37.6465 45.7543C37.6605 45.7543 37.6746 45.7543 37.6886 45.7543C37.7026 45.7543 37.7167 45.7543 37.7307 45.7543C37.7447 45.7543 37.7588 45.7543 37.7728 45.7543C37.7869 45.7543 37.8009 45.7543 37.8149 45.7543C37.829 45.7543 37.843 45.7543 37.857 45.7543C37.8711 45.7543 37.8851 45.7543 37.8992 45.7543C37.9132 45.7543 37.9272 45.7543 37.9413 45.7543C37.9553 45.7543 37.9693 45.7543 37.9834 45.7543C37.9974 45.7543 38.0114 45.7543 38.0255 45.7543C38.0395 45.7543 38.0536 45.7543 38.0676 45.7543C38.0816 45.7543 38.0957 45.7543 38.1097 45.7543C38.1237 45.7543 38.1378 45.7543 38.1518 45.7543C38.1658 45.7543 38.1799 45.7543 38.1939 45.7543C38.2079 45.7543 38.222 45.7543 38.236 45.7543C38.2501 45.7543 38.2641 45.7543 38.2781 45.7543C38.2922 45.7543 38.3062 45.7543 38.3202 45.7543C38.3343 45.7543 38.3483 45.7543 38.3623 45.7543C38.3764 45.7543 38.3904 45.7543 38.4044 45.7543C38.4185 45.7543 38.4325 45.7543 38.4465 45.7543C38.4606 45.7543 38.4746 45.7543 38.4887 45.7543C38.5027 45.7543 38.5167 45.7543 38.5308 45.7543C38.5448 45.7543 38.5588 45.7543 38.5729 45.7543C38.5869 45.7543 38.6009 45.7543 38.615 45.7543C38.629 45.7543 38.643 45.7543 38.6571 45.7543C38.6711 45.7543 38.6851 45.7543 38.6992 45.7543C38.7132 45.7543 38.7272 45.7543 38.7413 45.7543C38.7553 45.7543 38.7693 45.7543 38.7834 45.7543C38.7974 45.7543 38.8114 45.7543 38.8255 45.7543C38.8395 45.7543 38.8535 45.7543 38.8676 45.7543C38.8816 45.7543 38.8956 45.7543 38.9097 45.7543C38.9237 45.7543 38.9377 45.7543 38.9518 45.7543C38.9658 45.7543 38.9798 45.7543 38.9939 45.7543C39.0079 45.7543 39.0219 45.7543 39.036 45.7543C39.05 45.7543 39.064 45.7543 39.0781 45.7543C39.0921 45.7543 39.1061 45.7543 39.1202 45.7543C39.1342 45.7543 39.1482 45.7543 39.1623 45.7543C39.1763 45.7543 39.1903 45.7543 39.2044 45.7543C39.2184 45.7543 39.2324 45.7543 39.2465 45.7543C39.2605 45.7543 39.2745 45.7543 39.2886 45.7543C39.3026 45.7543 39.3166 45.7543 39.3306 45.7543C39.3447 45.7543 39.3587 45.7543 39.3727 45.7543C39.3868 45.7543 39.4008 45.7543 39.4148 45.7543C39.4289 45.7543 39.4429 45.7543 39.4569 45.7543C39.471 45.7543 39.485 45.7543 39.499 45.7543C39.5131 45.7543 39.5271 45.7543 39.5411 45.7543C39.5551 45.7543 39.5692 45.7543 39.5832 45.7543C39.5972 45.7543 39.6113 45.7543 39.6253 45.7543C39.6393 45.7543 39.6534 45.7543 39.6674 45.7543C39.6814 45.7543 39.6955 45.7543 39.7095 45.7543C39.7235 45.7543 39.7376 45.7543 39.7516 45.7543C39.7656 45.7543 39.7796 45.7543 39.7937 45.7543C39.8077 45.7543 39.8217 45.7543 39.8358 45.7543C39.8498 45.7543 39.8638 45.7543 39.8779 45.7543C39.8919 45.7543 39.9059 45.7543 39.9199 45.7543C39.934 45.7543 39.948 45.7543 39.962 45.7543C39.9761 45.7543 39.9901 45.7543 40.0041 45.7543C40.0182 45.7543 40.0322 45.7543 40.0462 45.7543C40.0602 45.7543 40.0743 45.7543 40.0883 45.7543C40.1023 45.7543 40.1164 45.7543 40.1304 45.7543C40.1444 45.7543 40.1584 45.7543 40.1725 45.7543C40.1865 45.7543 40.2005 45.7543 40.2146 45.7543C40.2286 45.7543 40.2426 45.7543 40.2567 45.7543C40.2707 45.7543 40.2847 45.7543 40.2987 45.7543C40.3128 45.7543 40.3268 45.7543 40.3408 45.7543C40.3549 45.7543 40.3689 45.7543 40.3829 45.7543C40.3969 45.7543 40.411 45.7543 40.425 45.7543C40.439 45.7543 40.4531 45.7543 40.4671 45.7543C40.4811 45.7543 40.4951 45.7543 40.5092 45.7543C40.5232 45.7543 40.5372 45.7543 40.5513 45.7543C40.5653 45.7543 40.5793 45.7543 40.5933 45.7543C40.6074 45.7543 40.6214 45.7543 40.6354 45.7543C40.6494 45.7543 40.6635 45.7543 40.6775 45.7543C40.6915 45.7543 40.7056 45.7543 40.7196 45.7543C40.7336 45.7543 40.7476 45.7543 40.7617 45.7543C40.7757 45.7543 40.7897 45.7543 40.8038 45.7543C40.8178 45.7543 40.8318 45.7543 40.8458 45.7543C40.8599 45.7543 40.8739 45.7543 40.8879 45.7543C40.9019 45.7543 40.916 45.7543 40.93 45.7543C40.944 45.7543 40.9581 45.7543 40.9721 45.7543C40.9861 45.7543 41.0001 45.7543 41.0142 45.7543C41.0282 45.7543 41.0422 45.7543 41.0562 45.7543C41.0703 45.7543 41.0843 45.7543 41.0983 45.7543C41.1123 45.7543 41.1264 45.7543 41.1404 45.7543C41.1544 45.7543 41.1685 45.7543 41.1825 45.7543C41.1965 45.7543 41.2105 45.7543 41.2246 45.7543C41.2386 45.7543 41.2526 45.7543 41.2666 45.7543C41.2807 45.7543 41.2947 45.7543 41.3087 45.7543C41.3227 45.7543 41.3368 45.7543 41.3508 45.7543C41.3648 45.7543 41.3788 45.7543 41.3929 45.7543C41.4069 45.7543 41.4209 45.7543 41.435 45.7543C41.449 45.7543 41.463 45.7543 41.477 45.7543C41.4911 45.7543 41.5051 45.7543 41.5191 45.7543C41.5331 45.7543 41.5472 45.7543 41.5612 45.7543C41.5752 45.7543 41.5892 45.7543 41.6033 45.7543C41.6173 45.7543 41.6313 45.7543 41.6453 45.7543C41.6594 45.7543 41.6734 45.7543 41.6874 45.7543C41.7014 45.7543 41.7155 45.7543 41.7295 45.7543C41.7435 45.7543 41.7575 45.7543 41.7716 45.7543C41.7856 45.7543 41.7996 45.7543 41.8136 45.7543C41.8277 45.7543 41.8417 45.7543 41.8557 45.7543C41.8697 45.7543 41.8838 45.7543 41.8978 45.7543C41.9118 45.7543 41.9258 45.7543 41.9399 45.7543C41.9539 45.7543 41.9679 45.7543 41.9819 45.7543C41.996 45.7543 42.01 45.7543 42.024 45.7543C42.038 45.7543 42.0521 45.7543 42.0661 45.7543C42.0801 45.7543 42.0941 45.7543 42.1082 45.7543C42.1222 45.7543 42.1362 45.7543 42.1502 45.7543C42.1643 45.7543 42.1783 45.7543 42.1923 45.7543C42.2063 45.7543 42.2203 45.7543 42.2344 45.7543C42.2484 45.7543 42.2624 45.7543 42.2764 45.7543C42.2905 45.7543 42.3045 45.7543 42.3185 45.7543C42.3325 45.7543 42.3466 45.7543 42.3606 45.7543C42.3746 45.7543 42.3886 45.7543 42.4027 45.7543C42.4167 45.7543 42.4307 45.7543 42.4447 45.7543C42.4587 45.7543 42.4728 45.7543 42.4868 45.7543C42.5008 45.7543 42.5148 45.7543 42.5289 45.7543C42.5429 45.7543 42.5569 45.7543 42.5709 45.7543C42.585 45.7543 42.599 45.7543 42.613 45.7543C42.627 45.7543 42.6411 45.7543 42.6551 45.7543C42.6691 45.7543 42.6831 45.7543 42.6971 45.7543C42.7112 45.7543 42.7252 45.7543 42.7392 45.7543C42.7532 45.7543 42.7673 45.7543 42.7813 45.7543C42.7953 45.7543 42.8093 45.7543 42.8233 45.7543C42.8374 45.7543 42.8514 45.7543 42.8654 45.7543C42.8794 45.7543 42.8935 45.7543 42.9075 45.7543C42.9215 45.7543 42.9355 45.7543 42.9496 45.7543C42.9636 45.7543 42.9776 45.7543 42.9916 45.7543C43.0056 45.7543 43.0197 45.7543 43.0337 45.7543C43.0477 45.7543 43.0617 45.7543 43.0758 45.7543C43.0898 45.7543 43.1038 45.7543 43.1178 45.7543C43.1318 45.7543 43.1459 45.7543 43.1599 45.7543C43.1739 45.7543 43.1879 45.7543 43.2019 45.7543C43.216 45.7543 43.23 45.7543 43.244 45.7543C43.258 45.7543 43.2721 45.7543 43.2861 45.7543C43.3001 45.7543 43.3141 45.7543 43.3281 45.7543C43.3422 45.7543 43.3562 45.7543 43.3702 45.7543C43.3842 45.7543 43.3983 45.7543 43.4123 45.7543C43.4263 45.7543 43.4403 45.7543 43.4543 45.7543C43.4684 45.7543 43.4824 45.7543 43.4964 45.7543C43.5104 45.7543 43.5244 45.7543 43.5385 45.7543C43.5525 45.7543 43.5665 45.7543 43.5805 45.7543C43.5946 45.7543 43.6086 45.7543 43.6226 45.7543C43.6366 45.7543 43.6506 45.7543 43.6647 45.7543C43.6787 45.7543 43.6927 45.7543 43.7067 45.7543C43.7207 45.7543 43.7348 45.7543 43.7488 45.7543C43.7628 45.7543 43.7768 45.7543 43.7908 45.7543C43.8049 45.7543 43.8189 45.7543 43.8329 45.7543C43.8469 45.7543 43.8609 45.7543 43.875 45.7543C43.889 45.7543 43.903 45.7543 43.917 45.7543C43.9311 45.7543 43.9451 45.7543 43.9591 45.7543C43.9731 45.7543 43.9871 45.7543 44.0012 45.7543C44.0152 45.7543 44.0292 45.7543 44.0432 45.7543C44.0572 45.7543 44.0713 45.7543 44.0853 45.7543C44.0993 45.7543 44.1133 45.7543 44.1273 45.7543C44.1414 45.7543 44.1554 45.7543 44.1694 45.7543C44.1834 45.7543 44.1974 45.7543 44.2115 45.7543C44.2255 45.7543 44.2395 45.7543 44.2535 45.7543C44.2675 45.7543 44.2816 45.7543 44.2956 45.7543C44.3096 45.7543 44.3236 45.7543 44.3376 45.7543C44.3517 45.7543 44.3657 45.7543 44.3797 45.7543C44.3937 45.7543 44.4077 45.7543 44.4218 45.7543C44.4358 45.7543 44.4498 45.7543 44.4638 45.7543C44.4778 45.7543 44.4919 45.7543 44.5059 45.7543C44.5199 45.7543 44.5339 45.7543 44.5479 45.7543C44.562 45.7543 44.576 45.7543 44.59 45.7543C44.604 45.7543 44.618 45.7543 44.6321 45.7543C44.6461 45.7543 44.6601 45.7543 44.6741 45.7543C44.6881 45.7543 44.7021 45.7543 44.7162 45.7543C44.7302 45.7543 44.7442 45.7543 44.7582 45.7543C44.7722 45.7543 44.7863 45.7543 44.8003 45.7543C44.8143 45.7543 44.8283 45.7543 44.8423 45.7543C44.8564 45.7543 44.8704 45.7543 44.8844 45.7543C44.8984 45.7543 44.9124 45.7543 44.9265 45.7543C44.9405 45.7543 44.9545 45.7543 44.9685 45.7543C44.9825 45.7543 44.9966 45.7543 45.0106 45.7543C45.0246 45.7543 45.0386 45.7543 45.0526 45.7543C45.0666 45.7543 45.0807 45.7543 45.0947 45.7543C45.1087 45.7543 45.1227 45.7543 45.1367 45.7543C45.1508 45.7543 45.1648 45.7543 45.1788 45.7543C45.1928 45.7543 45.2068 45.7543 45.2209 45.7543C45.2349 45.7543 45.2489 45.7543 45.2629 45.7543C45.2769 45.7543 45.2909 45.7543 45.305 45.7543C45.319 45.7543 45.333 45.7543 45.347 45.7543C45.361 45.7543 45.3751 45.7543 45.3891 45.7543C45.4031 45.7543 45.4171 45.7543 45.4311 45.7543C45.4451 45.7543 45.4592 45.7543 45.4732 45.7543C45.4872 45.7543 45.5012 45.7543 45.5152 45.7543C45.5293 45.7543 45.5433 45.7543 45.5573 45.7543C45.5713 45.7543 45.5853 45.7543 45.5994 45.7543C45.6134 45.7543 45.6274 45.7543 45.6414 45.7543C45.6554 45.7543 45.6694 45.7543 45.6835 45.7543C45.6975 45.7543 45.7115 45.7543 45.7255 45.7543C45.7395 45.7543 45.7535 45.7543 45.7676 45.7543C45.7816 45.7543 45.7956 45.7543 45.8096 45.7543C45.8236 45.7543 45.8377 45.7543 45.8517 45.7543C45.8657 45.7543 45.8797 45.7543 45.8937 45.7543C45.9077 45.7543 45.9218 45.7543 45.9358 45.7543C45.9498 45.7543 45.9638 45.7543 45.9778 45.7543C45.9919 45.7543 46.0059 45.7543 46.0199 45.7543C46.0339 45.7543 46.0479 45.7543 46.0619 45.7543C46.076 45.7543 46.09 45.7543 46.104 45.7543C46.118 45.7543 46.132 45.7543 46.146 45.7543C46.1601 45.7543 46.1741 45.7543 46.1881 45.7543C46.2021 45.7543 46.2161 45.7543 46.2302 45.7543C46.2442 45.7543 46.2582 45.7543 46.2722 45.7543C46.2862 45.7543 46.3002 45.7543 46.3143 45.7543C46.3283 45.7543 46.3423 45.7543 46.3563 45.7543V43.7543C46.3423 43.7543 46.3283 43.7543 46.3143 43.7543C46.3002 43.7543 46.2862 43.7543 46.2722 43.7543C46.2582 43.7543 46.2442 43.7543 46.2302 43.7543C46.2161 43.7543 46.2021 43.7543 46.1881 43.7543C46.1741 43.7543 46.1601 43.7543 46.146 43.7543C46.132 43.7543 46.118 43.7543 46.104 43.7543C46.09 43.7543 46.076 43.7543 46.0619 43.7543C46.0479 43.7543 46.0339 43.7543 46.0199 43.7543C46.0059 43.7543 45.9919 43.7543 45.9778 43.7543C45.9638 43.7543 45.9498 43.7543 45.9358 43.7543C45.9218 43.7543 45.9077 43.7543 45.8937 43.7543C45.8797 43.7543 45.8657 43.7543 45.8517 43.7543C45.8377 43.7543 45.8236 43.7543 45.8096 43.7543C45.7956 43.7543 45.7816 43.7543 45.7676 43.7543C45.7535 43.7543 45.7395 43.7543 45.7255 43.7543C45.7115 43.7543 45.6975 43.7543 45.6835 43.7543C45.6694 43.7543 45.6554 43.7543 45.6414 43.7543C45.6274 43.7543 45.6134 43.7543 45.5994 43.7543C45.5853 43.7543 45.5713 43.7543 45.5573 43.7543C45.5433 43.7543 45.5293 43.7543 45.5152 43.7543C45.5012 43.7543 45.4872 43.7543 45.4732 43.7543C45.4592 43.7543 45.4451 43.7543 45.4311 43.7543C45.4171 43.7543 45.4031 43.7543 45.3891 43.7543C45.3751 43.7543 45.361 43.7543 45.347 43.7543C45.333 43.7543 45.319 43.7543 45.305 43.7543C45.2909 43.7543 45.2769 43.7543 45.2629 43.7543C45.2489 43.7543 45.2349 43.7543 45.2209 43.7543C45.2068 43.7543 45.1928 43.7543 45.1788 43.7543C45.1648 43.7543 45.1508 43.7543 45.1367 43.7543C45.1227 43.7543 45.1087 43.7543 45.0947 43.7543C45.0807 43.7543 45.0666 43.7543 45.0526 43.7543C45.0386 43.7543 45.0246 43.7543 45.0106 43.7543C44.9966 43.7543 44.9825 43.7543 44.9685 43.7543C44.9545 43.7543 44.9405 43.7543 44.9265 43.7543C44.9124 43.7543 44.8984 43.7543 44.8844 43.7543C44.8704 43.7543 44.8564 43.7543 44.8423 43.7543C44.8283 43.7543 44.8143 43.7543 44.8003 43.7543C44.7863 43.7543 44.7722 43.7543 44.7582 43.7543C44.7442 43.7543 44.7302 43.7543 44.7162 43.7543C44.7021 43.7543 44.6881 43.7543 44.6741 43.7543C44.6601 43.7543 44.6461 43.7543 44.6321 43.7543C44.618 43.7543 44.604 43.7543 44.59 43.7543C44.576 43.7543 44.562 43.7543 44.5479 43.7543C44.5339 43.7543 44.5199 43.7543 44.5059 43.7543C44.4919 43.7543 44.4778 43.7543 44.4638 43.7543C44.4498 43.7543 44.4358 43.7543 44.4218 43.7543C44.4077 43.7543 44.3937 43.7543 44.3797 43.7543C44.3657 43.7543 44.3517 43.7543 44.3376 43.7543C44.3236 43.7543 44.3096 43.7543 44.2956 43.7543C44.2816 43.7543 44.2675 43.7543 44.2535 43.7543C44.2395 43.7543 44.2255 43.7543 44.2115 43.7543C44.1974 43.7543 44.1834 43.7543 44.1694 43.7543C44.1554 43.7543 44.1414 43.7543 44.1273 43.7543C44.1133 43.7543 44.0993 43.7543 44.0853 43.7543C44.0713 43.7543 44.0572 43.7543 44.0432 43.7543C44.0292 43.7543 44.0152 43.7543 44.0012 43.7543C43.9871 43.7543 43.9731 43.7543 43.9591 43.7543C43.9451 43.7543 43.9311 43.7543 43.917 43.7543C43.903 43.7543 43.889 43.7543 43.875 43.7543C43.8609 43.7543 43.8469 43.7543 43.8329 43.7543C43.8189 43.7543 43.8049 43.7543 43.7908 43.7543C43.7768 43.7543 43.7628 43.7543 43.7488 43.7543C43.7348 43.7543 43.7207 43.7543 43.7067 43.7543C43.6927 43.7543 43.6787 43.7543 43.6647 43.7543C43.6506 43.7543 43.6366 43.7543 43.6226 43.7543C43.6086 43.7543 43.5946 43.7543 43.5805 43.7543C43.5665 43.7543 43.5525 43.7543 43.5385 43.7543C43.5244 43.7543 43.5104 43.7543 43.4964 43.7543C43.4824 43.7543 43.4684 43.7543 43.4543 43.7543C43.4403 43.7543 43.4263 43.7543 43.4123 43.7543C43.3983 43.7543 43.3842 43.7543 43.3702 43.7543C43.3562 43.7543 43.3422 43.7543 43.3281 43.7543C43.3141 43.7543 43.3001 43.7543 43.2861 43.7543C43.2721 43.7543 43.258 43.7543 43.244 43.7543C43.23 43.7543 43.216 43.7543 43.2019 43.7543C43.1879 43.7543 43.1739 43.7543 43.1599 43.7543C43.1459 43.7543 43.1318 43.7543 43.1178 43.7543C43.1038 43.7543 43.0898 43.7543 43.0758 43.7543C43.0617 43.7543 43.0477 43.7543 43.0337 43.7543C43.0197 43.7543 43.0056 43.7543 42.9916 43.7543C42.9776 43.7543 42.9636 43.7543 42.9496 43.7543C42.9355 43.7543 42.9215 43.7543 42.9075 43.7543C42.8935 43.7543 42.8794 43.7543 42.8654 43.7543C42.8514 43.7543 42.8374 43.7543 42.8233 43.7543C42.8093 43.7543 42.7953 43.7543 42.7813 43.7543C42.7673 43.7543 42.7532 43.7543 42.7392 43.7543C42.7252 43.7543 42.7112 43.7543 42.6971 43.7543C42.6831 43.7543 42.6691 43.7543 42.6551 43.7543C42.6411 43.7543 42.627 43.7543 42.613 43.7543C42.599 43.7543 42.585 43.7543 42.5709 43.7543C42.5569 43.7543 42.5429 43.7543 42.5289 43.7543C42.5148 43.7543 42.5008 43.7543 42.4868 43.7543C42.4728 43.7543 42.4587 43.7543 42.4447 43.7543C42.4307 43.7543 42.4167 43.7543 42.4027 43.7543C42.3886 43.7543 42.3746 43.7543 42.3606 43.7543C42.3466 43.7543 42.3325 43.7543 42.3185 43.7543C42.3045 43.7543 42.2905 43.7543 42.2764 43.7543C42.2624 43.7543 42.2484 43.7543 42.2344 43.7543C42.2203 43.7543 42.2063 43.7543 42.1923 43.7543C42.1783 43.7543 42.1643 43.7543 42.1502 43.7543C42.1362 43.7543 42.1222 43.7543 42.1082 43.7543C42.0941 43.7543 42.0801 43.7543 42.0661 43.7543C42.0521 43.7543 42.038 43.7543 42.024 43.7543C42.01 43.7543 41.996 43.7543 41.9819 43.7543C41.9679 43.7543 41.9539 43.7543 41.9399 43.7543C41.9258 43.7543 41.9118 43.7543 41.8978 43.7543C41.8838 43.7543 41.8697 43.7543 41.8557 43.7543C41.8417 43.7543 41.8277 43.7543 41.8136 43.7543C41.7996 43.7543 41.7856 43.7543 41.7716 43.7543C41.7575 43.7543 41.7435 43.7543 41.7295 43.7543C41.7155 43.7543 41.7014 43.7543 41.6874 43.7543C41.6734 43.7543 41.6594 43.7543 41.6453 43.7543C41.6313 43.7543 41.6173 43.7543 41.6033 43.7543C41.5892 43.7543 41.5752 43.7543 41.5612 43.7543C41.5472 43.7543 41.5331 43.7543 41.5191 43.7543C41.5051 43.7543 41.4911 43.7543 41.477 43.7543C41.463 43.7543 41.449 43.7543 41.435 43.7543C41.4209 43.7543 41.4069 43.7543 41.3929 43.7543C41.3788 43.7543 41.3648 43.7543 41.3508 43.7543C41.3368 43.7543 41.3227 43.7543 41.3087 43.7543C41.2947 43.7543 41.2807 43.7543 41.2666 43.7543C41.2526 43.7543 41.2386 43.7543 41.2246 43.7543C41.2105 43.7543 41.1965 43.7543 41.1825 43.7543C41.1685 43.7543 41.1544 43.7543 41.1404 43.7543C41.1264 43.7543 41.1123 43.7543 41.0983 43.7543C41.0843 43.7543 41.0703 43.7543 41.0562 43.7543C41.0422 43.7543 41.0282 43.7543 41.0142 43.7543C41.0001 43.7543 40.9861 43.7543 40.9721 43.7543C40.9581 43.7543 40.944 43.7543 40.93 43.7543C40.916 43.7543 40.9019 43.7543 40.8879 43.7543C40.8739 43.7543 40.8599 43.7543 40.8458 43.7543C40.8318 43.7543 40.8178 43.7543 40.8038 43.7543C40.7897 43.7543 40.7757 43.7543 40.7617 43.7543C40.7476 43.7543 40.7336 43.7543 40.7196 43.7543C40.7056 43.7543 40.6915 43.7543 40.6775 43.7543C40.6635 43.7543 40.6494 43.7543 40.6354 43.7543C40.6214 43.7543 40.6074 43.7543 40.5933 43.7543C40.5793 43.7543 40.5653 43.7543 40.5513 43.7543C40.5372 43.7543 40.5232 43.7543 40.5092 43.7543C40.4951 43.7543 40.4811 43.7543 40.4671 43.7543C40.4531 43.7543 40.439 43.7543 40.425 43.7543C40.411 43.7543 40.3969 43.7543 40.3829 43.7543C40.3689 43.7543 40.3549 43.7543 40.3408 43.7543C40.3268 43.7543 40.3128 43.7543 40.2987 43.7543C40.2847 43.7543 40.2707 43.7543 40.2567 43.7543C40.2426 43.7543 40.2286 43.7543 40.2146 43.7543C40.2005 43.7543 40.1865 43.7543 40.1725 43.7543C40.1584 43.7543 40.1444 43.7543 40.1304 43.7543C40.1164 43.7543 40.1023 43.7543 40.0883 43.7543C40.0743 43.7543 40.0602 43.7543 40.0462 43.7543C40.0322 43.7543 40.0182 43.7543 40.0041 43.7543C39.9901 43.7543 39.9761 43.7543 39.962 43.7543C39.948 43.7543 39.934 43.7543 39.9199 43.7543C39.9059 43.7543 39.8919 43.7543 39.8779 43.7543C39.8638 43.7543 39.8498 43.7543 39.8358 43.7543C39.8217 43.7543 39.8077 43.7543 39.7937 43.7543C39.7796 43.7543 39.7656 43.7543 39.7516 43.7543C39.7376 43.7543 39.7235 43.7543 39.7095 43.7543C39.6955 43.7543 39.6814 43.7543 39.6674 43.7543C39.6534 43.7543 39.6393 43.7543 39.6253 43.7543C39.6113 43.7543 39.5972 43.7543 39.5832 43.7543C39.5692 43.7543 39.5551 43.7543 39.5411 43.7543C39.5271 43.7543 39.5131 43.7543 39.499 43.7543C39.485 43.7543 39.471 43.7543 39.4569 43.7543C39.4429 43.7543 39.4289 43.7543 39.4148 43.7543C39.4008 43.7543 39.3868 43.7543 39.3727 43.7543C39.3587 43.7543 39.3447 43.7543 39.3306 43.7543C39.3166 43.7543 39.3026 43.7543 39.2886 43.7543C39.2745 43.7543 39.2605 43.7543 39.2465 43.7543C39.2324 43.7543 39.2184 43.7543 39.2044 43.7543C39.1903 43.7543 39.1763 43.7543 39.1623 43.7543C39.1482 43.7543 39.1342 43.7543 39.1202 43.7543C39.1061 43.7543 39.0921 43.7543 39.0781 43.7543C39.064 43.7543 39.05 43.7543 39.036 43.7543C39.0219 43.7543 39.0079 43.7543 38.9939 43.7543C38.9798 43.7543 38.9658 43.7543 38.9518 43.7543C38.9377 43.7543 38.9237 43.7543 38.9097 43.7543C38.8956 43.7543 38.8816 43.7543 38.8676 43.7543C38.8535 43.7543 38.8395 43.7543 38.8255 43.7543C38.8114 43.7543 38.7974 43.7543 38.7834 43.7543C38.7693 43.7543 38.7553 43.7543 38.7413 43.7543C38.7272 43.7543 38.7132 43.7543 38.6992 43.7543C38.6851 43.7543 38.6711 43.7543 38.6571 43.7543C38.643 43.7543 38.629 43.7543 38.615 43.7543C38.6009 43.7543 38.5869 43.7543 38.5729 43.7543C38.5588 43.7543 38.5448 43.7543 38.5308 43.7543C38.5167 43.7543 38.5027 43.7543 38.4887 43.7543C38.4746 43.7543 38.4606 43.7543 38.4465 43.7543C38.4325 43.7543 38.4185 43.7543 38.4044 43.7543C38.3904 43.7543 38.3764 43.7543 38.3623 43.7543C38.3483 43.7543 38.3343 43.7543 38.3202 43.7543C38.3062 43.7543 38.2922 43.7543 38.2781 43.7543C38.2641 43.7543 38.2501 43.7543 38.236 43.7543C38.222 43.7543 38.2079 43.7543 38.1939 43.7543C38.1799 43.7543 38.1658 43.7543 38.1518 43.7543C38.1378 43.7543 38.1237 43.7543 38.1097 43.7543C38.0957 43.7543 38.0816 43.7543 38.0676 43.7543C38.0536 43.7543 38.0395 43.7543 38.0255 43.7543C38.0114 43.7543 37.9974 43.7543 37.9834 43.7543C37.9693 43.7543 37.9553 43.7543 37.9413 43.7543C37.9272 43.7543 37.9132 43.7543 37.8992 43.7543C37.8851 43.7543 37.8711 43.7543 37.857 43.7543C37.843 43.7543 37.829 43.7543 37.8149 43.7543C37.8009 43.7543 37.7869 43.7543 37.7728 43.7543C37.7588 43.7543 37.7447 43.7543 37.7307 43.7543C37.7167 43.7543 37.7026 43.7543 37.6886 43.7543C37.6746 43.7543 37.6605 43.7543 37.6465 43.7543C37.6324 43.7543 37.6184 43.7543 37.6044 43.7543C37.5903 43.7543 37.5763 43.7543 37.5623 43.7543C37.5482 43.7543 37.5342 43.7543 37.5201 43.7543C37.5061 43.7543 37.4921 43.7543 37.478 43.7543C37.464 43.7543 37.4499 43.7543 37.4359 43.7543C37.4219 43.7543 37.4078 43.7543 37.3938 43.7543C37.3798 43.7543 37.3657 43.7543 37.3517 43.7543C37.3376 43.7543 37.3236 43.7543 37.3096 43.7543C37.2955 43.7543 37.2815 43.7543 37.2674 43.7543C37.2534 43.7543 37.2394 43.7543 37.2253 43.7543C37.2113 43.7543 37.1972 43.7543 37.1832 43.7543C37.1692 43.7543 37.1551 43.7543 37.1411 43.7543C37.127 43.7543 37.113 43.7543 37.099 43.7543C37.0849 43.7543 37.0709 43.7543 37.0568 43.7543C37.0428 43.7543 37.0288 43.7543 37.0147 43.7543C37.0007 43.7543 36.9866 43.7543 36.9726 43.7543C36.9586 43.7543 36.9445 43.7543 36.9305 43.7543C36.9164 43.7543 36.9024 43.7543 36.8884 43.7543C36.8743 43.7543 36.8603 43.7543 36.8462 43.7543C36.8322 43.7543 36.8182 43.7543 36.8041 43.7543C36.7901 43.7543 36.776 43.7543 36.762 43.7543C36.748 43.7543 36.7339 43.7543 36.7199 43.7543C36.7058 43.7543 36.6918 43.7543 36.6777 43.7543C36.6637 43.7543 36.6497 43.7543 36.6356 43.7543C36.6216 43.7543 36.6075 43.7543 36.5935 43.7543C36.5795 43.7543 36.5654 43.7543 36.5514 43.7543C36.5373 43.7543 36.5233 43.7543 36.5092 43.7543C36.4952 43.7543 36.4812 43.7543 36.4671 43.7543C36.4531 43.7543 36.439 43.7543 36.425 43.7543C36.4109 43.7543 36.3969 43.7543 36.3829 43.7543C36.3688 43.7543 36.3548 43.7543 36.3407 43.7543C36.3267 43.7543 36.3126 43.7543 36.2986 43.7543C36.2846 43.7543 36.2705 43.7543 36.2565 43.7543C36.2424 43.7543 36.2284 43.7543 36.2143 43.7543C36.2003 43.7543 36.1863 43.7543 36.1722 43.7543C36.1582 43.7543 36.1441 43.7543 36.1301 43.7543C36.116 43.7543 36.102 43.7543 36.088 43.7543C36.0739 43.7543 36.0599 43.7543 36.0458 43.7543C36.0318 43.7543 36.0177 43.7543 36.0037 43.7543C35.9896 43.7543 35.9756 43.7543 35.9616 43.7543C35.9475 43.7543 35.9335 43.7543 35.9194 43.7543C35.9054 43.7543 35.8913 43.7543 35.8773 43.7543C35.8632 43.7543 35.8492 43.7543 35.8352 43.7543C35.8211 43.7543 35.8071 43.7543 35.793 43.7543C35.779 43.7543 35.7649 43.7543 35.7509 43.7543C35.7368 43.7543 35.7228 43.7543 35.7087 43.7543C35.6947 43.7543 35.6807 43.7543 35.6666 43.7543C35.6526 43.7543 35.6385 43.7543 35.6245 43.7543C35.6104 43.7543 35.5964 43.7543 35.5823 43.7543C35.5683 43.7543 35.5542 43.7543 35.5402 43.7543C35.5261 43.7543 35.5121 43.7543 35.4981 43.7543C35.484 43.7543 35.47 43.7543 35.4559 43.7543C35.4419 43.7543 35.4278 43.7543 35.4138 43.7543C35.3997 43.7543 35.3857 43.7543 35.3716 43.7543C35.3576 43.7543 35.3435 43.7543 35.3295 43.7543C35.3154 43.7543 35.3014 43.7543 35.2873 43.7543C35.2733 43.7543 35.2592 43.7543 35.2452 43.7543C35.2312 43.7543 35.2171 43.7543 35.2031 43.7543C35.189 43.7543 35.175 43.7543 35.1609 43.7543C35.1469 43.7543 35.1328 43.7543 35.1188 43.7543C35.1047 43.7543 35.0907 43.7543 35.0766 43.7543C35.0626 43.7543 35.0485 43.7543 35.0345 43.7543C35.0204 43.7543 35.0064 43.7543 34.9923 43.7543C34.9783 43.7543 34.9642 43.7543 34.9502 43.7543C34.9361 43.7543 34.9221 43.7543 34.908 43.7543C34.894 43.7543 34.8799 43.7543 34.8659 43.7543C34.8518 43.7543 34.8378 43.7543 34.8237 43.7543C34.8097 43.7543 34.7956 43.7543 34.7816 43.7543C34.7675 43.7543 34.7535 43.7543 34.7394 43.7543C34.7254 43.7543 34.7113 43.7543 34.6973 43.7543C34.6832 43.7543 34.6692 43.7543 34.6551 43.7543C34.6411 43.7543 34.627 43.7543 34.613 43.7543C34.5989 43.7543 34.5849 43.7543 34.5708 43.7543C34.5568 43.7543 34.5427 43.7543 34.5287 43.7543C34.5146 43.7543 34.5006 43.7543 34.4865 43.7543C34.4725 43.7543 34.4584 43.7543 34.4444 43.7543C34.4303 43.7543 34.4163 43.7543 34.4022 43.7543C34.3882 43.7543 34.3741 43.7543 34.3601 43.7543C34.346 43.7543 34.332 43.7543 34.3179 43.7543C34.3039 43.7543 34.2898 43.7543 34.2758 43.7543C34.2617 43.7543 34.2476 43.7543 34.2336 43.7543C34.2195 43.7543 34.2055 43.7543 34.1914 43.7543C34.1774 43.7543 34.1633 43.7543 34.1493 43.7543C34.1352 43.7543 34.1212 43.7543 34.1071 43.7543C34.0931 43.7543 34.079 43.7543 34.065 43.7543C34.0509 43.7543 34.0369 43.7543 34.0228 43.7543C34.0087 43.7543 33.9947 43.7543 33.9806 43.7543C33.9666 43.7543 33.9525 43.7543 33.9385 43.7543C33.9244 43.7543 33.9104 43.7543 33.8963 43.7543C33.8823 43.7543 33.8682 43.7543 33.8542 43.7543C33.8401 43.7543 33.826 43.7543 33.812 43.7543C33.7979 43.7543 33.7839 43.7543 33.7698 43.7543C33.7558 43.7543 33.7417 43.7543 33.7277 43.7543C33.7136 43.7543 33.6996 43.7543 33.6855 43.7543C33.6714 43.7543 33.6574 43.7543 33.6433 43.7543C33.6293 43.7543 33.6152 43.7543 33.6012 43.7543C33.5871 43.7543 33.5731 43.7543 33.559 43.7543C33.5449 43.7543 33.5309 43.7543 33.5168 43.7543C33.5028 43.7543 33.4887 43.7543 33.4747 43.7543C33.4606 43.7543 33.4465 43.7543 33.4325 43.7543C33.4184 43.7543 33.4044 43.7543 33.3903 43.7543C33.3763 43.7543 33.3622 43.7543 33.3481 43.7543C33.3341 43.7543 33.32 43.7543 33.306 43.7543C33.2919 43.7543 33.2779 43.7543 33.2638 43.7543C33.2497 43.7543 33.2357 43.7543 33.2216 43.7543C33.2076 43.7543 33.1935 43.7543 33.1795 43.7543C33.1654 43.7543 33.1513 43.7543 33.1373 43.7543C33.1232 43.7543 33.1092 43.7543 33.0951 43.7543C33.0811 43.7543 33.067 43.7543 33.0529 43.7543C33.0389 43.7543 33.0248 43.7543 33.0108 43.7543C32.9967 43.7543 32.9826 43.7543 32.9686 43.7543C32.9545 43.7543 32.9405 43.7543 32.9264 43.7543C32.9123 43.7543 32.8983 43.7543 32.8842 43.7543C32.8702 43.7543 32.8561 43.7543 32.8421 43.7543C32.828 43.7543 32.8139 43.7543 32.7999 43.7543C32.7858 43.7543 32.7718 43.7543 32.7577 43.7543C32.7436 43.7543 32.7296 43.7543 32.7155 43.7543C32.7015 43.7543 32.6874 43.7543 32.6733 43.7543C32.6593 43.7543 32.6452 43.7543 32.6311 43.7543C32.6171 43.7543 32.603 43.7543 32.589 43.7543C32.5749 43.7543 32.5608 43.7543 32.5468 43.7543C32.5327 43.7543 32.5187 43.7543 32.5046 43.7543C32.4905 43.7543 32.4765 43.7543 32.4624 43.7543C32.4484 43.7543 32.4343 43.7543 32.4202 43.7543C32.4062 43.7543 32.3921 43.7543 32.378 43.7543C32.364 43.7543 32.3499 43.7543 32.3359 43.7543C32.3218 43.7543 32.3077 43.7543 32.2937 43.7543C32.2796 43.7543 32.2655 43.7543 32.2515 43.7543C32.2374 43.7543 32.2234 43.7543 32.2093 43.7543C32.1952 43.7543 32.1812 43.7543 32.1671 43.7543C32.153 43.7543 32.139 43.7543 32.1249 43.7543C32.1108 43.7543 32.0968 43.7543 32.0827 43.7543C32.0687 43.7543 32.0546 43.7543 32.0405 43.7543C32.0265 43.7543 32.0124 43.7543 31.9983 43.7543C31.9843 43.7543 31.9702 43.7543 31.9561 43.7543C31.9421 43.7543 31.928 43.7543 31.914 43.7543C31.8999 43.7543 31.8858 43.7543 31.8718 43.7543C31.8577 43.7543 31.8436 43.7543 31.8296 43.7543C31.8155 43.7543 31.8014 43.7543 31.7874 43.7543C31.7733 43.7543 31.7592 43.7543 31.7452 43.7543C31.7311 43.7543 31.717 43.7543 31.703 43.7543C31.6889 43.7543 31.6748 43.7543 31.6608 43.7543C31.6467 43.7543 31.6326 43.7543 31.6186 43.7543C31.6045 43.7543 31.5904 43.7543 31.5764 43.7543C31.5623 43.7543 31.5482 43.7543 31.5342 43.7543C31.5201 43.7543 31.506 43.7543 31.492 43.7543C31.4779 43.7543 31.4638 43.7543 31.4498 43.7543C31.4357 43.7543 31.4216 43.7543 31.4076 43.7543C31.3935 43.7543 31.3794 43.7543 31.3654 43.7543C31.3513 43.7543 31.3372 43.7543 31.3232 43.7543C31.3091 43.7543 31.295 43.7543 31.281 43.7543C31.2669 43.7543 31.2528 43.7543 31.2388 43.7543C31.2247 43.7543 31.2106 43.7543 31.1965 43.7543C31.1825 43.7543 31.1684 43.7543 31.1543 43.7543C31.1403 43.7543 31.1262 43.7543 31.1121 43.7543C31.0981 43.7543 31.084 43.7543 31.0699 43.7543C31.0559 43.7543 31.0418 43.7543 31.0277 43.7543C31.0136 43.7543 30.9996 43.7543 30.9855 43.7543C30.9714 43.7543 30.9574 43.7543 30.9433 43.7543C30.9292 43.7543 30.9152 43.7543 30.9011 43.7543C30.887 43.7543 30.8729 43.7543 30.8589 43.7543C30.8448 43.7543 30.8307 43.7543 30.8167 43.7543C30.8026 43.7543 30.7885 43.7543 30.7744 43.7543C30.7604 43.7543 30.7463 43.7543 30.7322 43.7543C30.7182 43.7543 30.7041 43.7543 30.69 43.7543C30.6759 43.7543 30.6619 43.7543 30.6478 43.7543C30.6337 43.7543 30.6197 43.7543 30.6056 43.7543C30.5915 43.7543 30.5774 43.7543 30.5634 43.7543C30.5493 43.7543 30.5352 43.7543 30.5211 43.7543C30.5071 43.7543 30.493 43.7543 30.4789 43.7543C30.4649 43.7543 30.4508 43.7543 30.4367 43.7543C30.4226 43.7543 30.4086 43.7543 30.3945 43.7543C30.3804 43.7543 30.3663 43.7543 30.3523 43.7543C30.3382 43.7543 30.3241 43.7543 30.31 43.7543C30.296 43.7543 30.2819 43.7543 30.2678 43.7543C30.2537 43.7543 30.2397 43.7543 30.2256 43.7543C30.2115 43.7543 30.1974 43.7543 30.1834 43.7543C30.1693 43.7543 30.1552 43.7543 30.1411 43.7543C30.1271 43.7543 30.113 43.7543 30.0989 43.7543C30.0848 43.7543 30.0708 43.7543 30.0567 43.7543C30.0426 43.7543 30.0285 43.7543 30.0145 43.7543C30.0004 43.7543 29.9863 43.7543 29.9722 43.7543C29.9582 43.7543 29.9441 43.7543 29.93 43.7543C29.9159 43.7543 29.9019 43.7543 29.8878 43.7543C29.8737 43.7543 29.8596 43.7543 29.8455 43.7543C29.8315 43.7543 29.8174 43.7543 29.8033 43.7543C29.7892 43.7543 29.7752 43.7543 29.7611 43.7543C29.747 43.7543 29.7329 43.7543 29.7188 43.7543C29.7048 43.7543 29.6907 43.7543 29.6766 43.7543C29.6625 43.7543 29.6485 43.7543 29.6344 43.7543C29.6203 43.7543 29.6062 43.7543 29.5921 43.7543C29.5781 43.7543 29.564 43.7543 29.5499 43.7543C29.5358 43.7543 29.5218 43.7543 29.5077 43.7543C29.4936 43.7543 29.4795 43.7543 29.4654 43.7543C29.4514 43.7543 29.4373 43.7543 29.4232 43.7543C29.4091 43.7543 29.395 43.7543 29.381 43.7543C29.3669 43.7543 29.3528 43.7543 29.3387 43.7543C29.3246 43.7543 29.3106 43.7543 29.2965 43.7543C29.2824 43.7543 29.2683 43.7543 29.2542 43.7543C29.2401 43.7543 29.2261 43.7543 29.212 43.7543C29.1979 43.7543 29.1838 43.7543 29.1697 43.7543C29.1557 43.7543 29.1416 43.7543 29.1275 43.7543C29.1134 43.7543 29.0993 43.7543 29.0853 43.7543C29.0712 43.7543 29.0571 43.7543 29.043 43.7543C29.0289 43.7543 29.0148 43.7543 29.0008 43.7543C28.9867 43.7543 28.9726 43.7543 28.9585 43.7543C28.9444 43.7543 28.9303 43.7543 28.9163 43.7543C28.9022 43.7543 28.8881 43.7543 28.874 43.7543C28.8599 43.7543 28.8458 43.7543 28.8318 43.7543C28.8177 43.7543 28.8036 43.7543 28.7895 43.7543C28.7754 43.7543 28.7613 43.7543 28.7473 43.7543C28.7332 43.7543 28.7191 43.7543 28.705 43.7543C28.6909 43.7543 28.6768 43.7543 28.6628 43.7543C28.6487 43.7543 28.6346 43.7543 28.6205 43.7543C28.6064 43.7543 28.5923 43.7543 28.5782 43.7543C28.5642 43.7543 28.5501 43.7543 28.536 43.7543C28.5219 43.7543 28.5078 43.7543 28.4937 43.7543C28.4796 43.7543 28.4656 43.7543 28.4515 43.7543C28.4374 43.7543 28.4233 43.7543 28.4092 43.7543C28.3951 43.7543 28.381 43.7543 28.367 43.7543C28.3529 43.7543 28.3388 43.7543 28.3247 43.7543C28.3106 43.7543 28.2965 43.7543 28.2824 43.7543C28.2683 43.7543 28.2543 43.7543 28.2402 43.7543C28.2261 43.7543 28.212 43.7543 28.1979 43.7543C28.1838 43.7543 28.1697 43.7543 28.1556 43.7543C28.1415 43.7543 28.1275 43.7543 28.1134 43.7543C28.0993 43.7543 28.0852 43.7543 28.0711 43.7543C28.057 43.7543 28.0429 43.7543 28.0288 43.7543C28.0148 43.7543 28.0007 43.7543 27.9866 43.7543C27.9725 43.7543 27.9584 43.7543 27.9443 43.7543C27.9302 43.7543 27.9161 43.7543 27.902 43.7543C27.8879 43.7543 27.8739 43.7543 27.8598 43.7543C27.8457 43.7543 27.8316 43.7543 27.8175 43.7543C27.8034 43.7543 27.7893 43.7543 27.7752 43.7543C27.7611 43.7543 27.747 43.7543 27.7329 43.7543C27.7189 43.7543 27.7048 43.7543 27.6907 43.7543C27.6766 43.7543 27.6625 43.7543 27.6484 43.7543C27.6343 43.7543 27.6202 43.7543 27.6061 43.7543C27.592 43.7543 27.5779 43.7543 27.5638 43.7543C27.5498 43.7543 27.5357 43.7543 27.5216 43.7543C27.5075 43.7543 27.4934 43.7543 27.4793 43.7543C27.4652 43.7543 27.4511 43.7543 27.437 43.7543C27.4229 43.7543 27.4088 43.7543 27.3947 43.7543C27.3806 43.7543 27.3665 43.7543 27.3525 43.7543C27.3384 43.7543 27.3243 43.7543 27.3102 43.7543C27.2961 43.7543 27.282 43.7543 27.2679 43.7543C27.2538 43.7543 27.2397 43.7543 27.2256 43.7543C27.2115 43.7543 27.1974 43.7543 27.1833 43.7543C27.1692 43.7543 27.1551 43.7543 27.141 43.7543C27.1269 43.7543 27.1128 43.7543 27.0987 43.7543C27.0846 43.7543 27.0706 43.7543 27.0565 43.7543C27.0424 43.7543 27.0283 43.7543 27.0142 43.7543C27.0001 43.7543 26.986 43.7543 26.9719 43.7543C26.9578 43.7543 26.9437 43.7543 26.9296 43.7543C26.9155 43.7543 26.9014 43.7543 26.8873 43.7543C26.8732 43.7543 26.8591 43.7543 26.845 43.7543C26.8309 43.7543 26.8168 43.7543 26.8027 43.7543C26.7886 43.7543 26.7745 43.7543 26.7604 43.7543C26.7463 43.7543 26.7322 43.7543 26.7181 43.7543C26.704 43.7543 26.6899 43.7543 26.6758 43.7543C26.6617 43.7543 26.6476 43.7543 26.6335 43.7543C26.6194 43.7543 26.6053 43.7543 26.5912 43.7543C26.5771 43.7543 26.563 43.7543 26.5489 43.7543C26.5348 43.7543 26.5207 43.7543 26.5066 43.7543C26.4925 43.7543 26.4784 43.7543 26.4643 43.7543C26.4502 43.7543 26.4361 43.7543 26.422 43.7543C26.4079 43.7543 26.3938 43.7543 26.3797 43.7543C26.3656 43.7543 26.3515 43.7543 26.3374 43.7543C26.3233 43.7543 26.3092 43.7543 26.2951 43.7543C26.281 43.7543 26.2669 43.7543 26.2528 43.7543C26.2387 43.7543 26.2246 43.7543 26.2105 43.7543C26.1964 43.7543 26.1823 43.7543 26.1682 43.7543C26.1541 43.7543 26.14 43.7543 26.1259 43.7543C26.1118 43.7543 26.0977 43.7543 26.0836 43.7543C26.0695 43.7543 26.0554 43.7543 26.0413 43.7543C26.0272 43.7543 26.0131 43.7543 25.999 43.7543C25.9849 43.7543 25.9708 43.7543 25.9567 43.7543C25.9426 43.7543 25.9284 43.7543 25.9143 43.7543C25.9002 43.7543 25.8861 43.7543 25.872 43.7543C25.8579 43.7543 25.8438 43.7543 25.8297 43.7543C25.8156 43.7543 25.8015 43.7543 25.7874 43.7543C25.7733 43.7543 25.7592 43.7543 25.7451 43.7543C25.731 43.7543 25.7169 43.7543 25.7028 43.7543C25.6887 43.7543 25.6746 43.7543 25.6604 43.7543C25.6463 43.7543 25.6322 43.7543 25.6181 43.7543C25.604 43.7543 25.5899 43.7543 25.5758 43.7543C25.5617 43.7543 25.5476 43.7543 25.5335 43.7543C25.5194 43.7543 25.5053 43.7543 25.4912 43.7543C25.4771 43.7543 25.4629 43.7543 25.4488 43.7543C25.4347 43.7543 25.4206 43.7543 25.4065 43.7543C25.3924 43.7543 25.3783 43.7543 25.3642 43.7543C25.3501 43.7543 25.336 43.7543 25.3219 43.7543C25.3078 43.7543 25.2936 43.7543 25.2795 43.7543C25.2654 43.7543 25.2513 43.7543 25.2372 43.7543C25.2231 43.7543 25.209 43.7543 25.1949 43.7543C25.1808 43.7543 25.1667 43.7543 25.1525 43.7543C25.1384 43.7543 25.1243 43.7543 25.1102 43.7543C25.0961 43.7543 25.082 43.7543 25.0679 43.7543C25.0538 43.7543 25.0397 43.7543 25.0255 43.7543C25.0114 43.7543 24.9973 43.7543 24.9832 43.7543C24.9691 43.7543 24.955 43.7543 24.9409 43.7543C24.9268 43.7543 24.9127 43.7543 24.8985 43.7543C24.8844 43.7543 24.8703 43.7543 24.8562 43.7543C24.8421 43.7543 24.828 43.7543 24.8139 43.7543C24.7998 43.7543 24.7856 43.7543 24.7715 43.7543V45.7543ZM47.3435 44.9138C47.9655 41.0628 50.9829 39.2659 53.7519 39.3266L53.7957 37.3271C50.1404 37.247 46.1674 39.6523 45.3691 44.5949L47.3435 44.9138ZM53.7519 39.3266C56.6448 39.3898 59.3402 41.4545 59.8415 44.9345L61.821 44.6494C61.1768 40.1769 57.6411 37.4111 53.7956 37.3271L53.7519 39.3266Z" fill="#0D313B" mask="url(#path-1-outside-1_5952_45222)"/>
</svg>
