<svg width="36" height="36" viewBox="0 0 36 36" fill="none" xmlns="http://www.w3.org/2000/svg">
<path d="M28.8003 27.2573H22.6289L23.1431 25.4573L25.7146 24.6859L27.5146 24.943L28.8003 26.2287V27.2573Z" fill="#FFA600"/>
<path d="M25.7142 23.143C26.5663 23.143 27.2571 22.4521 27.2571 21.6C27.2571 20.7479 26.5663 20.0573 25.7142 20.0573C24.8621 20.0573 24.1714 20.7479 24.1714 21.6C24.1714 22.4521 24.8621 23.143 25.7142 23.143Z" fill="#FFA600"/>
<path d="M11.8284 15.4285C12.3965 15.4285 12.857 14.968 12.857 14.3999C12.857 13.8318 12.3965 13.3713 11.8284 13.3713C11.2604 13.3713 10.7998 13.8318 10.7998 14.3999C10.7998 14.968 11.2604 15.4285 11.8284 15.4285Z" fill="#FFA600"/>
<path d="M26.4857 8.48572H7.7143L6.94287 9V10.2858H26.4857V8.48572Z" fill="#FFA600"/>
<path fill-rule="evenodd" clip-rule="evenodd" d="M7.63626 8.22852H26.7427V10.5429H6.68555V8.86232L7.63626 8.22852ZM7.79198 8.7428L7.19983 9.13756V10.0286H26.2284V8.7428H7.79198Z" fill="black"/>
<path d="M25.6991 23.7417C26.6943 23.7417 27.5004 22.8616 27.5004 21.7842C27.5004 20.7231 26.6943 19.8801 25.6991 19.8801C24.708 19.8801 23.8937 20.7355 23.8978 21.7924C23.902 22.8657 24.7039 23.7417 25.6991 23.7417ZM25.6991 23.022C25.1316 23.022 24.6504 22.4833 24.6504 21.7924C24.6463 21.1179 25.1275 20.5998 25.6991 20.5998C26.2749 20.5998 26.7478 21.1097 26.7478 21.7842C26.7478 22.4751 26.2708 23.022 25.6991 23.022ZM23.1329 27.5663H28.2612C28.9727 27.5663 29.314 27.3401 29.314 26.8549C29.314 25.7239 27.9034 24.2188 25.6991 24.2188C23.4948 24.2188 22.0801 25.7239 22.0801 26.8549C22.0801 27.3401 22.4215 27.5663 23.1329 27.5663ZM23.0054 26.8466C22.9067 26.8466 22.8697 26.8137 22.8697 26.7397C22.8697 26.1105 23.8855 24.9384 25.6991 24.9384C27.5086 24.9384 28.5244 26.1105 28.5244 26.7397C28.5244 26.8137 28.4874 26.8466 28.3887 26.8466H23.0054Z" fill="black"/>
<path fill-rule="evenodd" clip-rule="evenodd" d="M7.35694 7.76902C6.86734 7.92125 6.37363 8.42319 6.22963 8.92514C6.12677 9.28308 6.1638 9.87553 6.31192 10.18C6.46414 10.4968 6.77683 10.8342 7.0566 10.9782L7.28288 11.0975L7.30346 23.7325L7.45568 24.0451C7.64083 24.4195 7.87945 24.6499 8.26208 24.831L8.53774 24.9626L15.5155 25.0038L14.5651 26.4643C13.7425 27.7305 13.635 27.8959 13.6209 28.0689C13.6188 28.0949 13.6188 28.1211 13.6188 28.1512C13.6188 28.4063 13.7011 28.5626 13.8904 28.6902C14.0549 28.7971 14.4088 28.7971 14.5816 28.6902C14.668 28.6326 14.9354 28.2623 15.388 27.5587L16.0668 26.5137L16.0874 27.4518C16.108 28.3199 16.1162 28.4022 16.1944 28.5091C16.4412 28.8465 16.9679 28.8465 17.2147 28.5091C17.2929 28.4022 17.3011 28.3199 17.3217 27.4518L17.3423 26.5137L18.0211 27.5587C18.4737 28.2623 18.7411 28.6326 18.8275 28.6902C19.0003 28.7971 19.3541 28.7971 19.5187 28.6902C19.708 28.5626 19.7902 28.4063 19.7902 28.1512C19.7902 28.1211 19.7902 28.0949 19.7881 28.0689C19.7741 27.8959 19.6666 27.7305 18.844 26.4643L17.8936 25.0038L22.046 24.9793C22.6213 24.4044 23.4516 23.9269 24.4775 23.7258C24.4527 23.7081 24.4282 23.69 24.4042 23.6713C22.498 23.728 8.93069 23.7238 8.7846 23.6584C8.77238 23.6529 8.76082 23.6487 8.74988 23.6447C8.73576 23.6395 8.72267 23.6347 8.71055 23.6281C8.55774 23.5451 8.55777 23.1806 8.55825 18.2193C8.55828 17.9258 8.55831 17.6161 8.55831 17.2895V11.2004H24.8508V17.2895C24.8508 17.6298 24.8508 17.9102 24.8509 18.1636C24.8509 18.5676 24.851 18.9032 24.8508 19.304C25.1063 19.1936 25.3855 19.1327 25.6772 19.1327C25.8268 19.1327 25.9728 19.1484 26.114 19.1782L26.1262 11.0975L26.3525 10.9782C26.6323 10.8342 26.945 10.4968 27.1013 10.18C27.2083 9.96193 27.2165 9.90845 27.2165 9.45176C27.2165 8.97451 27.2124 8.94571 27.0807 8.67828C26.9038 8.32445 26.6158 8.03645 26.262 7.85954L25.9822 7.72377L16.7663 7.71554C8.80105 7.71142 7.52563 7.71554 7.35694 7.76902ZM25.5996 8.97862C26.0234 9.09793 26.0974 9.66571 25.7148 9.86319C25.6119 9.91668 24.5134 9.9249 16.7045 9.9249C8.89568 9.9249 7.79717 9.91668 7.69431 9.86319C7.52563 9.77679 7.44746 9.64513 7.44746 9.44765C7.44746 9.23782 7.59557 9.04033 7.78894 8.98274C7.9782 8.92925 25.4021 8.92514 25.5996 8.97862Z" fill="black"/>
<path d="M11.3765 12.4839C10.8664 12.5827 10.2904 13.0023 10.0476 13.4549C9.61146 14.2736 9.74312 15.1911 10.385 15.833C11.4382 16.8862 13.2568 16.4213 13.6764 14.9895C13.7669 14.6768 13.7628 14.1502 13.6599 13.8293C13.3678 12.8707 12.3804 12.2906 11.3765 12.4839ZM12.006 13.7717C12.3064 13.8992 12.4668 14.1255 12.4668 14.43C12.4668 15.1747 11.4547 15.3968 11.1461 14.7221C11.0474 14.504 11.0474 14.323 11.1461 14.1296C11.2408 13.9445 11.3354 13.8581 11.5205 13.7758C11.7057 13.6935 11.8168 13.6935 12.006 13.7717Z" fill="black"/>
<path d="M20.8652 13.8621C20.0218 13.932 19.9806 13.9403 19.8161 14.0843C19.4622 14.3969 19.5651 14.9483 20.0094 15.1499L20.1699 15.2198L18.9027 16.7873C18.2074 17.6472 17.6231 18.3549 17.6108 18.3549C17.5985 18.359 17.1006 17.8488 16.5041 17.2276C15.7635 16.45 15.3726 16.0715 15.2533 16.0139C15.027 15.9069 14.6156 15.9028 14.3852 16.0097C14.1836 16.1044 10.0446 20.0335 9.9747 20.1981C9.73608 20.7453 10.2545 21.2884 10.7976 21.058C10.8716 21.0292 11.7562 20.2228 12.7601 19.2641C13.7681 18.3055 14.6403 17.4785 14.6979 17.4251L14.8049 17.3263L15.8828 18.4495C17.1377 19.7537 17.2158 19.8154 17.6807 19.7908C17.9153 19.7784 18.0058 19.7537 18.1415 19.6673C18.2485 19.5933 18.8122 18.935 19.7132 17.8241C20.4867 16.8737 21.1326 16.0961 21.1491 16.0961C21.1655 16.0961 21.2149 16.1373 21.2602 16.1825C21.5235 16.4829 22.0254 16.4335 22.2517 16.0879L22.3587 15.9316L22.3299 15.2404C22.2887 14.29 22.2229 14.0801 21.902 13.9197C21.6757 13.8086 21.5605 13.8004 20.8652 13.8621Z" fill="black"/>
<path d="M20.0699 19.1367C19.8888 19.2314 19.786 19.3713 19.7572 19.5605C19.7078 19.865 19.7654 19.9966 20.1151 20.3546L20.4401 20.6878L20.148 20.9717C19.8066 21.3091 19.7407 21.4202 19.7407 21.6588C19.7407 22.1155 20.1727 22.4241 20.5924 22.2636C20.6541 22.243 20.8516 22.0826 21.0244 21.9098L21.3412 21.593L21.6909 21.9303C22.0612 22.2883 22.1887 22.3459 22.4849 22.2883C22.6865 22.2513 22.9293 22.0044 22.9622 21.8028C23.0075 21.5189 22.9375 21.3708 22.5837 21.017L22.2504 20.6837L22.5837 20.3505C22.8347 20.0995 22.9211 19.9802 22.9499 19.8567C23.0568 19.3795 22.6701 18.9845 22.1805 19.0791C22.0653 19.0997 21.946 19.1861 21.6868 19.4412L21.3453 19.7745L21.0244 19.4618C20.6047 19.0421 20.3825 18.9681 20.0699 19.1367Z" fill="black"/>
</svg>
