<svg width="36" height="36" viewBox="0 0 36 36" fill="none" xmlns="http://www.w3.org/2000/svg">
<path fill-rule="evenodd" clip-rule="evenodd" d="M6.73151 9.29551C6.53253 9.39952 6.35164 9.58041 6.25215 9.77034C6.16623 9.93766 6.16623 10.1366 6.17528 18.1364L6.18884 26.3352L6.31999 26.5297C6.39234 26.6382 6.5461 26.7784 6.65915 26.8462L6.86718 26.9683L8.07461 26.9819L10.6839 26.991H12.8727L25.5439 27L27.0815 26.9819L28.619 26.9683L28.8271 26.8462C28.9401 26.7784 29.0939 26.6382 29.1662 26.5297L29.2974 26.3352L29.3109 18.1952C29.32 12.4203 29.3109 10.0055 29.2748 9.8834C29.2115 9.67085 28.9944 9.42213 28.7728 9.30455C28.601 9.21863 28.402 9.21863 17.734 9.21863C7.92538 9.22315 6.85361 9.22767 6.73151 9.29551ZM8.13792 26.2674H9.25039H12.7506C13.854 26.2674 25.8379 26.2493 25.8379 26.2403C25.8379 26.2538 26.4167 26.2674 27.1267 26.2674H28.4201L28.5286 26.1543L28.6417 26.0458V19.3936V12.7459H26.471H24.2958H6.84457V19.3891V26.0277L6.93953 26.1498L7.02998 26.2674H8.13792ZM18.1139 12.0676H26.4755H28.6417V11.0953C28.6417 10.1185 28.6417 10.1185 28.5286 10.01L28.4201 9.89696H20.886H13.3565H9.87446H7.06615L6.95762 10.01C6.84457 10.1185 6.84457 10.1185 6.84457 11.0953V12.0676H9.7614H13.3565H18.1139Z" fill="black"/>
<path d="M26.4753 12.0676H18.1137H13.3563H9.76107H6.84424V11.0953C6.84424 10.1185 6.84424 10.1185 6.95729 10.01L7.06582 9.89697H9.87413H13.3563H20.8858H28.4199L28.5284 10.01C28.6415 10.1185 28.6415 10.1185 28.6415 11.0953V12.0676H26.4753Z" fill="#FFA600"/>
<path d="M8.31967 10.6195C8.22018 10.7326 8.22018 10.9632 8.32419 11.0763C8.43272 11.1939 8.70858 11.1893 8.81711 11.0718C8.92112 10.9542 8.92112 10.7371 8.81711 10.6195C8.70858 10.4974 8.43272 10.4974 8.31967 10.6195Z" fill="black"/>
<path d="M9.50446 10.6105C9.40045 10.7235 9.40497 10.9949 9.51351 11.0898C9.64917 11.2164 9.87528 11.1984 10.0019 11.0536C10.1285 10.9044 10.1331 10.8004 10.011 10.6466C9.8979 10.5019 9.62204 10.4793 9.50446 10.6105Z" fill="black"/>
<path d="M10.6754 10.6286C10.4222 10.9904 10.8925 11.3838 11.1774 11.0537C11.304 10.9044 11.3085 10.8004 11.1864 10.6467C11.0643 10.4884 10.7794 10.4793 10.6754 10.6286Z" fill="black"/>
<path d="M8.74932 14.0112C8.61365 14.1469 8.62722 14.3866 8.77645 14.5042C8.88499 14.5901 8.95734 14.5991 9.52262 14.5991H10.1512V15.7161C10.1512 16.6929 10.1421 16.8557 10.0698 16.9959C9.95675 17.222 9.73064 17.3577 9.47287 17.3577C9.05683 17.3577 8.79454 17.0547 8.79454 16.5799C8.79454 16.2588 8.6634 16.0779 8.44181 16.0779C8.17952 16.0779 8.11621 16.1864 8.11621 16.6341C8.11621 16.9823 8.1343 17.0592 8.25187 17.3034C8.50512 17.8054 8.90307 18.0541 9.47287 18.0541C9.73969 18.0541 9.85726 18.0315 10.0336 17.9501C10.3004 17.819 10.5627 17.5657 10.7029 17.3034C10.8024 17.1135 10.8069 17.0728 10.8205 15.6076C10.834 14.1469 10.8295 14.1017 10.7391 14.0112C10.6531 13.9253 10.5943 13.9208 9.74421 13.9208C8.89855 13.9208 8.83524 13.9253 8.74932 14.0112Z" fill="black"/>
<path d="M12.1407 14.0654C11.806 14.2373 11.5528 14.5357 11.4533 14.8659C11.4126 15.0106 11.3945 15.3678 11.3945 16.0462C11.3945 17.1405 11.4216 17.2491 11.7563 17.6199C12.1452 18.054 12.8416 18.1942 13.3436 17.9319C13.4702 17.8686 13.6692 17.7103 13.7867 17.5792C14.1078 17.2265 14.1395 17.0546 14.1214 15.8969C14.1078 15.0332 14.0988 14.9201 14.0129 14.7302C13.7732 14.2192 13.3752 13.9524 12.7964 13.9298C12.4572 13.9117 12.4165 13.9207 12.1407 14.0654ZM13.1265 14.7211C13.4159 14.9382 13.4295 14.9834 13.4431 15.9105C13.4566 16.6838 13.4521 16.7833 13.3662 16.9687C13.2486 17.2355 13.0541 17.3576 12.7376 17.3576C12.5205 17.3576 12.4798 17.3395 12.308 17.1812L12.118 17.0003L12.1045 16.0371C12.0909 15.092 12.0909 15.0694 12.1949 14.9156C12.4029 14.6036 12.8461 14.5131 13.1265 14.7211Z" fill="black"/>
<path d="M14.8178 14.0248C14.7183 14.1288 14.7183 14.1424 14.7183 15.9965V17.8596L14.8314 17.9682C14.9399 18.0812 14.9535 18.0812 15.6816 18.0812C16.7443 18.0812 17.0292 17.9727 17.3141 17.4436C17.4317 17.2356 17.4452 17.1587 17.4498 16.815C17.4498 16.4803 17.4362 16.3899 17.3277 16.1683C17.2553 16.0281 17.1513 15.8744 17.088 15.8246L16.9795 15.7387L17.0699 15.5759C17.1242 15.49 17.1784 15.3091 17.192 15.1734C17.2417 14.6941 16.9975 14.2554 16.5634 14.0383C16.3418 13.9253 16.2921 13.9208 15.6228 13.9208C14.9399 13.9208 14.9128 13.9253 14.8178 14.0248ZM16.2966 14.6715C16.4323 14.7664 16.5272 14.9925 16.4956 15.1553C16.482 15.2232 16.4097 15.3272 16.3373 15.3905C16.2152 15.4945 16.1655 15.5035 15.7992 15.5035H15.3967V15.0513V14.5991H15.7946C16.0886 14.5991 16.2197 14.6172 16.2966 14.6715ZM16.6222 16.3582C16.7398 16.4803 16.7533 16.521 16.7533 16.7924C16.7533 17.0637 16.7398 17.1044 16.6222 17.2265C16.4911 17.3577 16.4865 17.3577 15.9439 17.3577H15.3967V16.7924V16.2271H15.9439C16.4865 16.2271 16.4911 16.2271 16.6222 16.3582Z" fill="black"/>
<path d="M8.98487 21.8547C8.77782 21.9377 8.70885 22.0738 8.76062 22.1468C8.7865 22.1966 8.89002 22.2663 8.98492 22.3028C9.14883 22.3659 9.26961 22.3692 12.5996 22.3692C15.9296 22.3692 16.0504 22.3659 16.2143 22.3028C16.3092 22.2663 16.4127 22.1966 16.4386 22.1468C16.4904 22.0738 16.4118 21.9377 16.2047 21.8547H15.9814H12.5996H9.21785H8.98487Z" fill="black"/>
<path d="M8.90479 20.3112C8.76662 20.3942 8.72059 20.5303 8.75514 20.6033C8.77241 20.6531 8.8415 20.7228 8.90483 20.7593C9.01421 20.8224 9.09482 20.8257 11.3172 20.8257C13.5395 20.8257 13.6201 20.8224 13.7295 20.7593C13.7928 20.7228 13.8619 20.6531 13.8792 20.6033C13.9137 20.5303 13.8613 20.3942 13.7231 20.3112H13.574H11.3172H9.06027H8.90479Z" fill="black"/>
<path d="M8.98487 23.3983C8.77782 23.4813 8.70885 23.6174 8.76062 23.6904C8.7865 23.7402 8.89002 23.8099 8.98492 23.8465C9.14883 23.9095 9.26961 23.9128 12.5996 23.9128C15.9296 23.9128 16.0504 23.9095 16.2143 23.8465C16.3092 23.8099 16.4127 23.7402 16.4386 23.6904C16.4904 23.6174 16.4118 23.4813 16.2047 23.3983H15.9814H12.5996H9.21785H8.98487Z" fill="black"/>
<path d="M21.6223 15.1903C20.5746 15.3441 19.6247 15.9629 19.0656 16.8568C18.7996 17.282 18.6169 17.785 18.5463 18.2808C18.5119 18.5196 18.5119 19.0443 18.5463 19.2832C18.6965 20.3399 19.3117 21.2898 20.2128 21.8544C20.6561 22.1312 21.1971 22.323 21.7055 22.3827C21.9534 22.4117 22.5379 22.3972 22.7622 22.3556C23.2074 22.2742 23.6597 22.1041 24.0252 21.8797L24.1302 21.8146L25.3642 23.0468C26.0427 23.7253 26.6344 24.3007 26.6778 24.3279C26.79 24.3966 26.904 24.4274 27.0596 24.4274C27.3383 24.4274 27.5427 24.3098 27.7001 24.0601C27.7526 23.975 27.7834 23.8465 27.7834 23.7036C27.7834 23.548 27.7526 23.434 27.6839 23.3218C27.6567 23.2784 27.0813 22.6867 26.4028 22.0082L25.1706 20.7741L25.2357 20.6692C25.4601 20.3037 25.6302 19.8513 25.7116 19.4062C25.7532 19.1819 25.7677 18.5974 25.7387 18.3495C25.6645 17.7198 25.4076 17.0902 25.0077 16.5654C24.8666 16.3791 24.5409 16.0534 24.3545 15.9122C23.8461 15.5268 23.2562 15.2771 22.6392 15.1903C22.4094 15.1577 21.8467 15.1577 21.6223 15.1903ZM22.6048 15.5721C23.4751 15.7096 24.2279 16.1619 24.7381 16.8531C25.0674 17.2964 25.2592 17.7597 25.3479 18.3151C25.3841 18.5431 25.3859 19.0045 25.3497 19.2434C25.1344 20.671 24.027 21.7784 22.5994 21.9937C22.3605 22.0299 21.8991 22.0281 21.6712 21.9919C20.8008 21.8544 20.0481 21.402 19.5378 20.7108C19.2085 20.2675 19.0167 19.8043 18.9281 19.2488C18.8901 19.0154 18.8901 18.5486 18.9281 18.3151C19.0656 17.4448 19.5179 16.6921 20.2091 16.1818C20.6434 15.8616 21.0759 15.6752 21.6223 15.5793C21.863 15.5359 22.3605 15.5323 22.6048 15.5721ZM25.1941 21.3405L25.4366 21.5848L25.3171 21.7132C25.252 21.7838 25.1398 21.896 25.0692 21.9611L24.939 22.0805L24.6947 21.8363L24.4486 21.5902L24.6911 21.3459C24.825 21.212 24.9372 21.0998 24.9426 21.0998C24.948 21.098 25.062 21.2066 25.1941 21.3405ZM27.3509 23.5208C27.4975 23.747 27.3328 24.0474 27.0614 24.0474C27.0089 24.0474 26.942 24.0347 26.9094 24.0184C26.8769 24.0022 26.4842 23.6222 26.0337 23.1734L25.2176 22.3592L25.4637 22.1095L25.7116 21.8616L26.5059 22.6505C26.942 23.0866 27.322 23.4774 27.3509 23.5208Z" fill="black"/>
<path d="M27.3506 23.5209C27.4972 23.7471 27.3325 24.0475 27.0611 24.0475C27.0086 24.0475 26.9417 24.0348 26.9091 24.0185C26.8766 24.0023 26.4839 23.6223 26.0334 23.1735L25.2173 22.3593L25.4634 22.1096L25.7113 21.8617L26.5056 22.6506C26.9417 23.0867 27.3217 23.4775 27.3506 23.5209Z" fill="#FFA600"/>
<mask id="mask0_4692_38235" style="mask-type:alpha" maskUnits="userSpaceOnUse" x="18" y="14" width="9" height="9">
<path d="M26.0347 14.8547H18.0347V22.8547H26.0347V14.8547Z" fill="white"/>
</mask>
<g mask="url(#mask0_4692_38235)">
</g>
</svg>
