<svg width="36" height="36" viewBox="0 0 36 36" fill="none" xmlns="http://www.w3.org/2000/svg">
<path d="M23.2868 21.7512V27.9142H8.11133V8.04077H23.2868V16.794L19.391 22.3764L18.938 24.2968C18.8927 24.5647 18.9833 24.8327 19.2098 24.9667C19.3457 25.056 19.4816 25.1006 19.6175 25.1006C19.7534 25.1006 19.844 25.056 19.9799 25.0113L21.7013 23.9395L23.2868 21.7512Z" fill="#FFA600"/>
<path d="M26.7816 12.6025L28.3911 13.7317L21.4472 23.6684L19.7457 24.7072C19.6537 24.7524 19.5617 24.7524 19.4698 24.7072C19.3778 24.6621 19.3318 24.5717 19.3778 24.4814L19.7917 22.6296L26.7816 12.6025ZM29.8167 11.3378C29.7707 11.1572 29.6787 10.9765 29.4488 10.7958L29.1269 10.57C28.897 10.4345 28.713 10.3893 28.4831 10.4345C28.2991 10.4797 28.1152 10.6152 27.9312 10.841L27.2874 11.7444L28.9429 12.8284L29.5868 11.925C29.7707 11.7895 29.8627 11.5637 29.8167 11.3378ZM20.2515 20.6874C20.3435 20.597 20.4355 20.4615 20.4355 20.2809C20.4355 20.1454 20.3895 20.0099 20.2515 19.8744C20.1136 19.7389 20.0216 19.6937 19.8376 19.6937H11.4681C11.2842 19.6937 11.1462 19.7389 11.0543 19.8744C10.9623 20.0099 10.8703 20.1454 10.8703 20.2809C10.8703 20.4615 10.9163 20.597 11.0543 20.6874C11.1922 20.7777 11.2842 20.868 11.4681 20.868H19.8376C19.9756 20.868 20.1136 20.8229 20.2515 20.6874ZM23.1487 26.0622C23.1487 26.6494 23.0107 27.0559 22.6888 27.3721C22.3669 27.6882 21.907 27.8237 21.3092 27.8237H9.95058C9.35276 27.8237 8.89289 27.6882 8.61697 27.3721C8.34106 27.0559 8.15711 26.6494 8.15711 26.0622V9.89251C8.15711 9.30534 8.29507 8.89884 8.61697 8.58267C8.93888 8.26651 9.35276 8.13101 9.95058 8.13101H21.3092C21.907 8.13101 22.3669 8.26651 22.6888 8.58267C23.0107 8.89884 23.1487 9.30534 23.1487 9.89251V17.0289L24.6202 14.906V9.84735C24.6202 8.80851 24.3443 7.99551 23.7925 7.4535C23.2406 6.9115 22.4589 6.68567 21.4012 6.68567H9.90459C8.84691 6.68567 8.01915 6.95667 7.5133 7.49867C7.00745 8.04067 6.68555 8.80851 6.68555 9.89251V26.1074C6.68555 27.1914 6.96147 27.9592 7.5133 28.5012C8.06514 29.0432 8.84691 29.3142 9.90459 29.3142H21.4012C22.4589 29.3142 23.2866 29.0432 23.7925 28.5012C24.2983 27.9592 24.6202 27.1914 24.6202 26.1074V19.9647L23.1487 22.0424V26.0622ZM11.4681 23.4426C11.2842 23.4426 11.1462 23.4877 11.0543 23.6232C10.9623 23.7587 10.8703 23.8491 10.8703 24.0297C10.8703 24.1652 10.9163 24.3007 11.0543 24.4362C11.1922 24.5717 11.2842 24.6169 11.4681 24.6169H15.4689C15.6529 24.6169 15.7908 24.5717 15.8828 24.4362C15.9748 24.3007 16.0668 24.2104 16.0668 24.0297C16.0668 23.8491 16.0208 23.7136 15.8828 23.6232C15.7449 23.5329 15.6529 23.4426 15.4689 23.4426H11.4681ZM14.9171 18.0677C14.8251 18.0225 14.7791 17.9322 14.7791 17.7967L14.5492 16.9385C14.5032 16.9385 14.4572 16.8934 14.3653 16.8934C14.2733 16.8934 14.2733 16.8482 14.1813 16.8482L13.4455 17.2999C13.3536 17.3902 13.2156 17.3902 13.1236 17.3902C13.0317 17.3902 12.9397 17.345 12.8477 17.2547L12.2499 16.6675C12.1579 16.5772 12.1119 16.4869 12.1119 16.3965C12.1119 16.3062 12.1119 16.2159 12.2039 16.0804L12.6638 15.3577C12.6638 15.3125 12.6178 15.2674 12.6178 15.177C12.6178 15.1319 12.5718 15.0867 12.5718 14.9964L11.744 14.8157C11.6061 14.7705 11.5141 14.7254 11.4681 14.635C11.4221 14.5447 11.3762 14.4544 11.3762 14.364V13.551C11.3762 13.4155 11.4221 13.3252 11.4681 13.28C11.5141 13.2349 11.6061 13.1445 11.744 13.1445L12.5718 12.9639C12.5718 12.9187 12.6178 12.8735 12.6178 12.7832C12.6178 12.738 12.6638 12.6929 12.6638 12.6025L12.2039 11.8799C12.1119 11.7895 12.1119 11.654 12.1119 11.5637C12.1119 11.4734 12.1579 11.383 12.2499 11.2927L12.8477 10.7055C12.9397 10.6152 13.0317 10.57 13.1236 10.57C13.2156 10.57 13.3076 10.57 13.4455 10.6603L14.1813 11.112C14.2273 11.112 14.2733 11.0668 14.3653 11.0668C14.4113 11.0668 14.4572 11.0217 14.5492 11.0217L14.7332 10.1635C14.7791 10.028 14.8251 9.93768 14.8711 9.89251C14.9171 9.84735 15.0551 9.80218 15.193 9.80218H16.0208C16.1587 9.80218 16.2507 9.84735 16.3427 9.89251C16.4347 9.93768 16.4806 10.028 16.4806 10.1635L16.6646 11.0217C16.7106 11.0217 16.7566 11.0668 16.8485 11.0668C16.8945 11.0668 16.9405 11.112 17.0325 11.112L17.7683 10.6603C17.8602 10.6152 17.9982 10.57 18.0902 10.57C18.1821 10.57 18.2741 10.6152 18.3661 10.7055L18.9639 11.2927C19.0559 11.383 19.1019 11.4734 19.1019 11.5637C19.1019 11.654 19.1019 11.7444 19.0099 11.8799L18.55 12.6025C18.55 12.6477 18.596 12.6929 18.596 12.7832C18.596 12.8735 18.642 12.8735 18.642 12.9639L19.4698 13.1445C19.6077 13.1897 19.6997 13.2349 19.7457 13.28C19.7917 13.3252 19.8376 13.4607 19.8376 13.551V14.364C19.8376 14.4995 19.7917 14.5899 19.7457 14.635C19.6997 14.6802 19.6537 14.8157 19.5157 14.8157L18.688 15.0415C18.688 15.0867 18.642 15.1319 18.642 15.2222C18.642 15.3125 18.596 15.3125 18.596 15.4029L19.0559 16.1255C19.1479 16.2159 19.1479 16.3514 19.1479 16.4417C19.1479 16.532 19.1019 16.6224 19.0099 16.7127L18.4121 17.2999C18.3201 17.3902 18.2281 17.4354 18.1362 17.4354C18.0442 17.4354 17.9522 17.4354 17.8142 17.345L17.0785 16.8934C17.0325 16.8934 16.9865 16.9385 16.8945 16.9385C16.8025 16.9385 16.8025 16.9837 16.7106 16.9837L16.5266 17.8419C16.4806 17.9774 16.4347 18.0677 16.3887 18.1129C16.3427 18.158 16.2047 18.2032 16.0668 18.2032H15.239C15.1011 18.158 15.0091 18.158 14.9171 18.0677ZM16.3887 15.2674C16.6186 15.1319 16.8025 14.9512 16.9405 14.7254C17.0785 14.4995 17.1704 14.2285 17.1704 13.9575C17.1704 13.6865 17.0785 13.4155 16.9405 13.1897C16.8485 13.009 16.6186 12.8284 16.3887 12.6929C16.1587 12.5574 15.8828 12.467 15.6069 12.467C15.331 12.467 15.0551 12.5574 14.8251 12.6929C14.5952 12.8284 14.4113 13.009 14.2733 13.2349C14.1813 13.4607 14.0894 13.6865 14.0894 13.9575C14.0894 14.2285 14.1813 14.4995 14.3193 14.7254C14.4572 14.9512 14.6412 15.1319 14.8711 15.2674C15.1011 15.4029 15.377 15.4932 15.6529 15.4932C15.9288 15.4932 16.1587 15.4029 16.3887 15.2674Z" fill="black"/>
</svg>
