<svg width="36" height="36" viewBox="0 0 36 36" fill="none" xmlns="http://www.w3.org/2000/svg">
<g id="recruitment-dashboard">
<g id="Group 1000001326">
<g id="Group 159081">
<path id="display" d="M6.17072 23.0159C6.17072 24.7048 7.08374 25.5401 8.83291 25.5401H14.7051L14.4456 27.1836H13.4269C12.9463 27.1836 12.5523 27.565 12.5523 28.019C12.5523 28.4639 12.9463 28.8453 13.4269 28.8453H22.1247C22.6148 28.8453 23.0089 28.4639 23.0089 28.019C23.0089 27.565 22.6148 27.1836 22.1247 27.1836H21.029L20.7792 25.5401H26.6418C28.3909 25.5401 29.3136 24.7048 29.3136 23.0159V12.8009C29.3136 11.1211 28.3909 10.2857 26.6418 10.2857H8.83291C7.08374 10.2857 6.17072 11.1211 6.17072 12.8009V23.0159ZM8.04483 22.9069V12.9189C8.04483 12.2924 8.32354 12.0563 8.95785 12.0563H26.5168C27.1511 12.0563 27.4395 12.2924 27.4395 12.9189V22.9069C27.4395 23.5244 27.1511 23.7695 26.5168 23.7695H8.95785C8.32354 23.7695 8.04483 23.5244 8.04483 22.9069Z" fill="black"/>
</g>
</g>
<g id="Group 1000001393">
<g id="Vector">
<mask id="path-2-inside-1_3059_42371" fill="white">
<path d="M16.611 13.0303C14.808 13.2908 13.3876 14.672 13.0464 16.4956C13.003 16.7272 12.9844 17.4199 13.0154 17.6824C13.2222 19.4296 14.4565 20.8625 16.1396 21.307C16.4994 21.4021 16.7847 21.4373 17.1941 21.4394C17.8744 21.4414 18.4554 21.3174 18.9992 21.0506L19.1873 20.9576L20.0681 21.8343C20.6161 22.3801 20.9903 22.7399 21.0647 22.7854C21.3273 22.9508 21.6623 23.0128 21.9704 22.9549C22.8036 22.7999 23.2358 21.9439 22.8677 21.185C22.7953 21.0382 22.7375 20.9741 21.8732 20.1078L20.9572 19.1877L21.0482 18.9913C21.4741 18.0939 21.5589 17.0105 21.2777 16.0407C20.8187 14.4425 19.4396 13.2577 17.7772 13.0303C17.4898 12.9889 16.8902 12.991 16.611 13.0303ZM17.7048 13.6712C18.5153 13.7911 19.1997 14.1447 19.7745 14.7443C21.3645 16.3964 21.0006 19.0698 19.024 20.2649C18.1059 20.8211 16.8943 20.9266 15.9122 20.5399C14.7646 20.0871 13.9438 19.1009 13.6957 17.8727C13.6543 17.67 13.6481 17.5791 13.6481 17.1945C13.6502 16.812 13.6564 16.7189 13.6977 16.5328C13.8073 16.0263 14.0161 15.5383 14.2953 15.1475C14.4731 14.8953 14.8949 14.4735 15.1471 14.2957C15.6 13.9752 16.1417 13.756 16.6958 13.6692C16.9439 13.6319 17.4422 13.6319 17.7048 13.6712ZM21.4162 20.5999C22.1978 21.3877 22.2578 21.4518 22.2908 21.5551C22.417 21.9418 22.1254 22.3491 21.7222 22.3512C21.4783 22.3533 21.4596 22.3408 20.5375 21.4166L19.7146 20.5937L19.88 20.4655C20.0599 20.3228 20.3162 20.0644 20.461 19.8762C20.5127 19.8121 20.5582 19.7584 20.5644 19.7584C20.5706 19.7584 20.9531 20.1367 21.4162 20.5999Z"/>
<path d="M21.4162 20.5999C22.1978 21.3877 22.2578 21.4518 22.2908 21.5551C22.417 21.9418 22.1254 22.3491 21.7222 22.3512C21.4783 22.3533 21.4596 22.3408 20.5375 21.4166L19.7146 20.5937L19.88 20.4655C20.0599 20.3228 20.3162 20.0644 20.461 19.8762C20.5127 19.8121 20.5582 19.7584 20.5644 19.7584C20.5706 19.7584 20.9531 20.1367 21.4162 20.5999Z"/>
</mask>
<path d="M16.611 13.0303C14.808 13.2908 13.3876 14.672 13.0464 16.4956C13.003 16.7272 12.9844 17.4199 13.0154 17.6824C13.2222 19.4296 14.4565 20.8625 16.1396 21.307C16.4994 21.4021 16.7847 21.4373 17.1941 21.4394C17.8744 21.4414 18.4554 21.3174 18.9992 21.0506L19.1873 20.9576L20.0681 21.8343C20.6161 22.3801 20.9903 22.7399 21.0647 22.7854C21.3273 22.9508 21.6623 23.0128 21.9704 22.9549C22.8036 22.7999 23.2358 21.9439 22.8677 21.185C22.7953 21.0382 22.7375 20.9741 21.8732 20.1078L20.9572 19.1877L21.0482 18.9913C21.4741 18.0939 21.5589 17.0105 21.2777 16.0407C20.8187 14.4425 19.4396 13.2577 17.7772 13.0303C17.4898 12.9889 16.8902 12.991 16.611 13.0303ZM17.7048 13.6712C18.5153 13.7911 19.1997 14.1447 19.7745 14.7443C21.3645 16.3964 21.0006 19.0698 19.024 20.2649C18.1059 20.8211 16.8943 20.9266 15.9122 20.5399C14.7646 20.0871 13.9438 19.1009 13.6957 17.8727C13.6543 17.67 13.6481 17.5791 13.6481 17.1945C13.6502 16.812 13.6564 16.7189 13.6977 16.5328C13.8073 16.0263 14.0161 15.5383 14.2953 15.1475C14.4731 14.8953 14.8949 14.4735 15.1471 14.2957C15.6 13.9752 16.1417 13.756 16.6958 13.6692C16.9439 13.6319 17.4422 13.6319 17.7048 13.6712ZM21.4162 20.5999C22.1978 21.3877 22.2578 21.4518 22.2908 21.5551C22.417 21.9418 22.1254 22.3491 21.7222 22.3512C21.4783 22.3533 21.4596 22.3408 20.5375 21.4166L19.7146 20.5937L19.88 20.4655C20.0599 20.3228 20.3162 20.0644 20.461 19.8762C20.5127 19.8121 20.5582 19.7584 20.5644 19.7584C20.5706 19.7584 20.9531 20.1367 21.4162 20.5999Z" fill="black"/>
<path d="M21.4162 20.5999C22.1978 21.3877 22.2578 21.4518 22.2908 21.5551C22.417 21.9418 22.1254 22.3491 21.7222 22.3512C21.4783 22.3533 21.4596 22.3408 20.5375 21.4166L19.7146 20.5937L19.88 20.4655C20.0599 20.3228 20.3162 20.0644 20.461 19.8762C20.5127 19.8121 20.5582 19.7584 20.5644 19.7584C20.5706 19.7584 20.9531 20.1367 21.4162 20.5999Z" fill="#F9A000"/>
<path d="M21.4162 20.5999L21.593 20.4231L21.5937 20.4238L21.4162 20.5999ZM22.2908 21.5551L22.0532 21.6327L22.0527 21.6313L22.2908 21.5551ZM21.7222 22.3512L21.7201 22.1012L21.721 22.1012L21.7222 22.3512ZM20.5375 21.4166L20.7143 21.2398L20.7145 21.24L20.5375 21.4166ZM19.7146 20.5937L19.5378 20.7705L19.3372 20.5699L19.5614 20.3961L19.7146 20.5937ZM19.88 20.4655L20.0353 20.6614L20.0331 20.6631L19.88 20.4655ZM20.461 19.8762L20.2628 19.7237L20.2664 19.7193L20.461 19.8762ZM21.5937 20.4238C21.9825 20.8157 22.1974 21.0332 22.3185 21.1652C22.4397 21.2975 22.495 21.3728 22.5289 21.4789L22.0527 21.6313C22.0511 21.6262 22.0513 21.6251 22.0438 21.6142C22.0317 21.5965 22.0065 21.5648 21.9499 21.5031C21.8373 21.3803 21.6315 21.1719 21.2388 20.776L21.5937 20.4238ZM22.5285 21.4776C22.7064 22.0229 22.2987 22.5982 21.7235 22.6012L21.721 22.1012C21.9521 22.1 22.1276 21.8607 22.0532 21.6327L22.5285 21.4776ZM21.7244 22.6012C21.6658 22.6017 21.5829 22.603 21.4913 22.5752C21.3987 22.5471 21.3164 22.4961 21.2296 22.4277C21.0641 22.2975 20.8148 22.0485 20.3605 21.5932L20.7145 21.24C21.1824 21.709 21.4035 21.9283 21.5388 22.0348C21.6023 22.0848 21.6281 22.0942 21.6365 22.0968C21.6458 22.0996 21.6567 22.1017 21.7201 22.1012L21.7244 22.6012ZM20.3607 21.5934L19.5378 20.7705L19.8913 20.4169L20.7143 21.2398L20.3607 21.5934ZM19.5614 20.3961L19.7268 20.2679L20.0331 20.6631L19.8677 20.7913L19.5614 20.3961ZM19.7246 20.2696C19.8889 20.1394 20.1308 19.8954 20.2628 19.7238L20.6591 20.0286C20.5017 20.2333 20.2309 20.5063 20.0353 20.6614L19.7246 20.2696ZM20.2664 19.7193C20.2928 19.6865 20.3193 19.6543 20.3409 19.6294C20.3512 19.6175 20.3632 19.6041 20.3747 19.5924C20.3798 19.5872 20.3894 19.5776 20.4014 19.5678C20.407 19.5632 20.4187 19.5538 20.4347 19.5443C20.4398 19.5412 20.491 19.5084 20.5644 19.5084V20.0084C20.6063 20.0084 20.6382 19.9977 20.6534 19.9919C20.6705 19.9853 20.6834 19.9781 20.6908 19.9737C20.7054 19.965 20.7155 19.9568 20.7191 19.9538C20.7238 19.95 20.727 19.947 20.7284 19.9457C20.73 19.9442 20.7309 19.9432 20.7311 19.9431C20.7313 19.9429 20.7303 19.9439 20.7278 19.9467C20.7254 19.9493 20.7224 19.9527 20.7186 19.9571C20.7029 19.9751 20.6808 20.0019 20.6556 20.0332L20.2664 19.7193ZM20.5644 19.5084C20.6262 19.5084 20.671 19.5322 20.6743 19.5338C20.6878 19.5404 20.6978 19.5468 20.7022 19.5497C20.7117 19.5559 20.7188 19.5616 20.7215 19.5636C20.7277 19.5686 20.733 19.5733 20.7357 19.5756C20.7418 19.581 20.7486 19.5874 20.7551 19.5934C20.7685 19.6061 20.7869 19.6238 20.8091 19.6454C20.8539 19.6889 20.9174 19.7512 20.9947 19.8276C21.1494 19.9806 21.3612 20.1913 21.593 20.4231L21.2395 20.7767C21.0081 20.5453 20.797 20.3353 20.6432 20.1833C20.5662 20.1072 20.504 20.046 20.4608 20.004C20.439 19.9829 20.4229 19.9675 20.4124 19.9576C20.4099 19.9552 20.4079 19.9533 20.4063 19.9519C20.4047 19.9504 20.404 19.9498 20.4041 19.9498C20.4041 19.9499 20.4046 19.9503 20.4054 19.951C20.4062 19.9517 20.408 19.9532 20.4106 19.9553C20.4123 19.9566 20.4187 19.9617 20.4277 19.9676C20.4318 19.9703 20.4415 19.9766 20.4548 19.9831C20.4579 19.9846 20.5026 20.0084 20.5644 20.0084V19.5084ZM16.611 13.0303L16.5395 12.5354L16.5413 12.5351L16.611 13.0303ZM13.0464 16.4956L13.5379 16.5876L13.5379 16.5878L13.0464 16.4956ZM13.0154 17.6824L12.5189 17.7412L12.5189 17.7411L13.0154 17.6824ZM16.1396 21.307L16.2673 20.8236L16.2674 20.8236L16.1396 21.307ZM17.1941 21.4394L17.1926 21.9394L17.1916 21.9393L17.1941 21.4394ZM18.9992 21.0506L19.2208 21.4988L19.2193 21.4995L18.9992 21.0506ZM19.1873 20.9576L18.9657 20.5094L19.2864 20.3508L19.54 20.6032L19.1873 20.9576ZM20.0681 21.8343L20.4208 21.4799L20.421 21.4801L20.0681 21.8343ZM21.0647 22.7854L21.3255 22.3587L21.3312 22.3623L21.0647 22.7854ZM21.9704 22.9549L21.878 22.4635L21.8789 22.4634L21.9704 22.9549ZM22.8677 21.185L23.3162 20.964L23.3176 20.9668L22.8677 21.185ZM21.8732 20.1078L21.5192 20.4609L21.5188 20.4605L21.8732 20.1078ZM20.9572 19.1877L20.6029 19.5404L20.3571 19.2936L20.5035 18.9776L20.9572 19.1877ZM21.0482 18.9913L20.5945 18.7811L20.5965 18.7769L21.0482 18.9913ZM21.2777 16.0407L20.7975 16.18L20.7971 16.1788L21.2777 16.0407ZM17.7772 13.0303L17.7094 13.5257L17.706 13.5252L17.7772 13.0303ZM17.7048 13.6712L17.6316 14.1658L17.6308 14.1657L17.7048 13.6712ZM19.7745 14.7443L19.4143 15.0911L19.4136 15.0903L19.7745 14.7443ZM19.024 20.2649L18.7649 19.8373L18.7653 19.8371L19.024 20.2649ZM15.9122 20.5399L15.729 21.0052L15.7286 21.005L15.9122 20.5399ZM13.6957 17.8727L14.1856 17.7727L14.1858 17.7737L13.6957 17.8727ZM13.6481 17.1945L13.1481 17.1945L13.1481 17.1918L13.6481 17.1945ZM13.6977 16.5328L14.1864 16.6386L14.1858 16.6413L13.6977 16.5328ZM14.2953 15.1475L14.7039 15.4356L14.7021 15.4381L14.2953 15.1475ZM15.1471 14.2957L15.436 14.7038L15.4352 14.7043L15.1471 14.2957ZM16.6958 13.6692L16.6184 13.1752L16.6216 13.1747L16.6958 13.6692ZM16.6825 13.5251C15.0967 13.7543 13.8407 14.9689 13.5379 16.5876L12.5549 16.4037C12.9344 14.375 14.5194 12.8273 16.5395 12.5354L16.6825 13.5251ZM13.5379 16.5878C13.5243 16.6601 13.509 16.8551 13.5028 17.0906C13.4967 17.3231 13.501 17.531 13.5119 17.6238L12.5189 17.7411C12.4988 17.5713 12.4969 17.3015 12.5032 17.0642C12.5094 16.8299 12.5251 16.5627 12.555 16.4035L13.5379 16.5878ZM13.5119 17.6237C13.6949 19.1701 14.7857 20.4323 16.2673 20.8236L16.0119 21.7904C14.1274 21.2927 12.7494 19.6891 12.5189 17.7412L13.5119 17.6237ZM16.2674 20.8236C16.5816 20.9067 16.8244 20.9375 17.1966 20.9394L17.1916 21.9393C16.745 21.9371 16.4171 21.8976 16.0118 21.7904L16.2674 20.8236ZM17.1956 20.9394C17.8095 20.9412 18.313 20.8303 18.779 20.6017L19.2193 21.4995C18.5977 21.8044 17.9392 21.9416 17.1926 21.9394L17.1956 20.9394ZM18.7775 20.6024L18.9657 20.5094L19.4089 21.4058L19.2208 21.4988L18.7775 20.6024ZM19.54 20.6032L20.4208 21.4799L19.7154 22.1887L18.8346 21.312L19.54 20.6032ZM20.421 21.4801C20.694 21.7521 20.9218 21.9757 21.0895 22.1361C21.1737 22.2166 21.2404 22.2788 21.289 22.3225C21.3528 22.3799 21.3541 22.3762 21.3255 22.3587L20.804 23.212C20.7382 23.1718 20.6648 23.1061 20.6204 23.0662C20.5607 23.0125 20.4856 22.9422 20.3984 22.8588C20.2235 22.6915 19.9901 22.4624 19.7152 22.1885L20.421 21.4801ZM21.3312 22.3623C21.4849 22.4591 21.6913 22.4986 21.878 22.4635L22.0627 23.4463C21.6332 23.527 21.1697 23.4425 20.7982 23.2084L21.3312 22.3623ZM21.8789 22.4634C22.3889 22.3685 22.6414 21.8641 22.4178 21.4032L23.3176 20.9668C23.8301 22.0236 23.2183 23.2313 22.0618 23.4465L21.8789 22.4634ZM22.4192 21.4061C22.4111 21.3897 22.4115 21.3763 22.2998 21.2552C22.1766 21.1216 21.9548 20.8976 21.5192 20.4609L22.2272 19.7547C22.6558 20.1843 22.8951 20.4255 23.035 20.5773C23.1864 20.7415 23.2519 20.8336 23.3162 20.964L22.4192 21.4061ZM21.5188 20.4605L20.6029 19.5404L21.3116 18.8349L22.2275 19.755L21.5188 20.4605ZM20.5035 18.9776L20.5945 18.7811L21.5019 19.2014L21.4109 19.3978L20.5035 18.9776ZM20.5965 18.7769C20.9692 17.9917 21.0452 17.0342 20.7975 16.18L21.7579 15.9015C22.0726 16.9868 21.9791 18.1961 21.4999 19.2057L20.5965 18.7769ZM20.7971 16.1788C20.3935 14.7735 19.1783 13.7266 17.7094 13.5256L17.845 12.5349C19.7009 12.7888 21.2438 14.1115 21.7583 15.9027L20.7971 16.1788ZM17.706 13.5252C17.4671 13.4908 16.9149 13.4924 16.6807 13.5254L16.5413 12.5351C16.8654 12.4895 17.5125 12.487 17.8484 12.5354L17.706 13.5252ZM17.778 13.1766C18.6991 13.3129 19.4845 13.7193 20.1355 14.3983L19.4136 15.0903C18.9149 14.5702 18.3315 14.2694 17.6316 14.1658L17.778 13.1766ZM20.1348 14.3976C21.9507 16.2844 21.5293 19.3345 19.2827 20.6928L18.7653 19.8371C20.4719 18.8052 20.7784 16.5084 19.4143 15.0911L20.1348 14.3976ZM19.2831 20.6926C18.2334 21.3285 16.8584 21.4498 15.729 21.0052L16.0953 20.0747C16.9302 20.4034 17.9784 20.3138 18.7649 19.8373L19.2831 20.6926ZM15.7286 21.005C14.421 20.489 13.4867 19.3633 13.2056 17.9717L14.1858 17.7737C14.4009 18.8384 15.1083 19.6852 16.0957 20.0748L15.7286 21.005ZM13.2058 17.9727C13.1542 17.7199 13.1481 17.5888 13.1481 17.1945H14.1481C14.1481 17.3885 14.1498 17.4907 14.1552 17.5669C14.1598 17.6339 14.1675 17.6843 14.1856 17.7727L13.2058 17.9727ZM13.1481 17.1918C13.1502 16.8039 13.156 16.6657 13.2096 16.4244L14.1858 16.6413C14.1567 16.7721 14.1501 16.8201 14.1481 17.1972L13.1481 17.1918ZM13.209 16.4271C13.3315 15.8609 13.5658 15.3086 13.8884 14.8569L14.7021 15.4381C14.4665 15.768 14.2831 16.1916 14.1864 16.6386L13.209 16.4271ZM13.8866 14.8594C14.0974 14.5604 14.56 14.0978 14.8591 13.887L15.4352 14.7043C15.2298 14.8491 14.8488 15.2302 14.7039 15.4356L13.8866 14.8594ZM14.8583 13.8875C15.3747 13.522 15.989 13.2738 16.6184 13.1752L16.7732 14.1631C16.2944 14.2382 15.8252 14.4283 15.436 14.7038L14.8583 13.8875ZM16.6216 13.1747C16.9199 13.1299 17.4681 13.1303 17.7788 13.1767L17.6308 14.1657C17.4163 14.1336 16.9679 14.1339 16.77 14.1636L16.6216 13.1747Z" fill="black" mask="url(#path-2-inside-1_3059_42371)"/>
</g>
<g id="Vector_2">
<path d="M16.8839 14.891C16.8094 14.9055 16.6606 14.9633 16.553 15.015C16.2801 15.1515 16.0754 15.3562 15.9451 15.6271C15.7756 15.9786 15.7487 16.3032 15.8583 16.6774L15.91 16.8532L15.8438 16.9049C15.4965 17.1737 15.2132 17.5665 15.0871 17.9573C15.0313 18.1248 14.9961 18.4969 15.0064 18.7823C15.0147 19.0345 15.0478 19.1172 15.1677 19.1896C15.2401 19.231 15.2649 19.231 17.2147 19.231C19.0859 19.231 19.1934 19.2289 19.2472 19.1937C19.3733 19.111 19.3857 19.0614 19.3857 18.6499C19.3857 18.3419 19.3774 18.2468 19.3444 18.1124C19.2554 17.765 19.0404 17.4114 18.7096 17.0703L18.4987 16.849L18.538 16.7436C18.5607 16.6857 18.5876 16.5554 18.6 16.4541C18.6765 15.8297 18.3602 15.2507 17.804 14.9902C17.5352 14.8662 17.1795 14.8269 16.8839 14.891ZM17.5124 15.5671C17.6634 15.6374 17.7936 15.7615 17.8784 15.9165C17.9466 16.0406 17.9487 16.0571 17.9487 16.2639C17.9487 16.4582 17.9425 16.4934 17.8929 16.5947C17.8205 16.7415 17.6716 16.8904 17.5248 16.9628C17.4235 17.0124 17.3884 17.0186 17.2043 17.0186C17.0245 17.0186 16.9831 17.0124 16.8839 16.9648C16.7143 16.8842 16.6068 16.7787 16.5262 16.6154C16.4331 16.4334 16.4124 16.2742 16.4579 16.0964C16.5758 15.6353 17.0927 15.3748 17.5124 15.5671ZM16.4269 17.4404C16.675 17.5996 16.9107 17.6699 17.194 17.6699C17.4917 17.6699 17.7461 17.5955 17.9714 17.4424C18.0852 17.3659 18.0934 17.3701 18.2795 17.5706C18.4511 17.7567 18.5586 17.9139 18.6579 18.1186C18.7179 18.2447 18.7323 18.3067 18.7406 18.437L18.7509 18.6003H17.2064H15.6639V18.4473C15.6639 18.1951 15.7673 17.9407 15.9679 17.6947C16.0341 17.6141 16.2966 17.3804 16.3235 17.3804C16.3277 17.3804 16.3752 17.4073 16.4269 17.4404Z" fill="black"/>
<path d="M17.5124 15.5671C17.6634 15.6374 17.7936 15.7615 17.8784 15.9165C17.9466 16.0406 17.9487 16.0571 17.9487 16.2639C17.9487 16.4582 17.9425 16.4934 17.8929 16.5947C17.8205 16.7415 17.6716 16.8904 17.5248 16.9628C17.4235 17.0124 17.3884 17.0186 17.2043 17.0186C17.0245 17.0186 16.9831 17.0124 16.8839 16.9648C16.7143 16.8842 16.6068 16.7787 16.5262 16.6154C16.4331 16.4334 16.4124 16.2742 16.4579 16.0964C16.5758 15.6353 17.0927 15.3748 17.5124 15.5671Z" fill="#F9A000"/>
<path d="M16.4269 17.4404C16.675 17.5996 16.9107 17.6699 17.194 17.6699C17.4917 17.6699 17.7461 17.5955 17.9714 17.4424C18.0852 17.3659 18.0934 17.3701 18.2795 17.5706C18.4511 17.7567 18.5586 17.9139 18.6579 18.1186C18.7179 18.2447 18.7323 18.3067 18.7406 18.437L18.7509 18.6003H17.2064H15.6639V18.4473C15.6639 18.1951 15.7673 17.9407 15.9679 17.6947C16.0341 17.6141 16.2966 17.3804 16.3235 17.3804C16.3277 17.3804 16.3752 17.4073 16.4269 17.4404Z" fill="#F9A000"/>
</g>
</g>
</g>
</svg>
