<svg width="72" height="72" viewBox="0 0 72 72" fill="none" xmlns="http://www.w3.org/2000/svg">
<g id="budget-change-request">
<g id="Group 1171275161">
<circle id="Ellipse 2601" cx="36.5" cy="36.5" r="13.5" fill="#2EB67D"/>
<g id="Group">
<path id="Vector" d="M34.7982 4.36245C34.5357 4.56245 33.3982 5.63745 32.2857 6.76245C29.2232 9.88745 29.2232 9.87496 32.4732 13.175C35.1982 15.925 35.6357 16.175 36.8357 15.625C37.5232 15.325 37.8732 14.75 37.8732 13.9625C37.8732 13.25 37.7482 12.975 37.1357 12.325L36.6857 11.8375L37.8107 11.9125C46.8482 12.525 55.0857 18.6 58.4857 27.1875C59.4482 29.625 59.9482 31.9875 60.1107 34.8125C60.2232 36.7875 60.3607 37.1875 61.0607 37.625C61.4357 37.85 61.6482 37.9 62.2607 37.85C62.9232 37.8 63.0607 37.7375 63.4732 37.3375L63.9357 36.875L63.9232 34.8375C63.8732 26.8625 59.5982 18.65 52.8732 13.6C48.5607 10.3625 43.2732 8.38745 38.0232 8.04995L36.7357 7.96245L37.0982 7.57495C37.7482 6.88745 37.8732 6.59995 37.8732 5.87495C37.8732 4.67495 37.1982 3.99995 35.9857 3.99995C35.4107 3.99995 35.1982 4.06245 34.7982 4.36245Z" fill="#0B2D1F"/>
<path id="Vector_2" d="M34.2469 20.0752C27.2094 20.9627 21.7969 25.9502 20.2969 32.9002C19.9844 34.3502 19.9844 37.6502 20.2969 39.1002C21.6844 45.5627 26.4469 50.3252 32.8719 51.7002C34.3344 52.0127 37.6344 52.0127 39.0969 51.7002C45.5594 50.3127 50.3094 45.5752 51.6969 39.1002C52.0094 37.6502 52.0094 34.3502 51.6969 32.9002C50.3094 26.4377 45.5469 21.6752 39.1219 20.3002C38.2094 20.1127 35.1219 19.9627 34.2469 20.0752ZM38.8094 24.2377C41.5094 24.9002 43.9969 26.5502 45.6969 28.7877C46.4969 29.8377 47.4219 31.8252 47.7719 33.1877C48.1594 34.7752 48.1594 37.2252 47.7719 38.8002C47.4719 40.0127 46.6469 41.8752 45.9969 42.8127C45.4094 43.6627 44.0844 45.0377 43.1969 45.7127C42.1594 46.5002 40.1719 47.4377 38.8094 47.7752C37.2219 48.1627 34.7719 48.1627 33.1844 47.7752C31.8219 47.4377 29.8344 46.5002 28.7969 45.7127C27.9094 45.0377 26.5844 43.6627 25.9969 42.8127C25.3469 41.8752 24.5219 40.0127 24.2219 38.8002C23.8344 37.2252 23.8344 34.7752 24.2219 33.2002C24.5594 31.8752 25.3969 30.0252 26.1719 28.9502C26.7969 28.0752 28.2844 26.6002 29.1219 26.0377C30.5094 25.1002 32.2344 24.3877 33.9594 24.0627C35.2344 23.8252 37.4719 23.9002 38.8094 24.2377Z" fill="#0B2D1F"/>
<path id="Vector_3" d="M35.1605 26.25C34.548 26.525 34.123 27.125 34.123 27.7125C34.123 28.05 34.073 28.1125 33.723 28.1875C33.023 28.3375 31.898 29.0125 31.3605 29.5875C29.1105 32.025 29.923 36.0625 32.9355 37.4625C33.6105 37.775 33.8605 37.8125 35.5355 37.875C37.323 37.9375 37.3855 37.95 37.7105 38.275C38.1855 38.75 38.1605 39.3125 37.648 39.775L37.248 40.125H35.3605C33.3605 40.125 33.073 40.1875 32.523 40.7875C31.8855 41.4625 31.9355 42.7125 32.623 43.3875C32.8105 43.5875 33.2355 43.8125 33.548 43.9C34.0355 44.025 34.123 44.1 34.123 44.375C34.123 45.125 35.123 46 35.998 46C36.9105 46 37.873 45.125 37.873 44.3C37.873 43.9375 37.923 43.8875 38.448 43.75C39.273 43.5125 40.423 42.725 40.923 42.0375C41.8355 40.8 42.148 39.175 41.7605 37.65C41.4105 36.25 40.123 34.8625 38.698 34.375C38.1605 34.175 37.673 34.125 36.5355 34.125C34.873 34.125 34.3105 33.95 34.023 33.3375C33.8855 33.05 33.8855 32.9125 34.0105 32.6125C34.2605 31.975 34.648 31.875 36.6855 31.875C38.6355 31.875 38.923 31.8125 39.473 31.2125C40.1105 30.5375 40.0605 29.2875 39.373 28.6125C39.1855 28.4125 38.7605 28.1875 38.448 28.1C37.9605 27.975 37.873 27.9 37.873 27.625C37.873 26.875 36.873 26 35.998 26C35.823 26 35.448 26.1125 35.1605 26.25Z" fill="#0B2D1F"/>
<path id="Vector_4" d="M8.58483 34.6125L8.05983 35.1125L8.00983 36.325C7.88483 39.9125 8.95983 44.525 10.8098 48.3125C15.1848 57.2625 24.1473 63.325 33.9723 63.95L35.2598 64.0375L34.8973 64.425C34.2473 65.1125 34.1223 65.4 34.1223 66.125C34.1223 67.325 34.7973 68 36.0098 68C36.9223 68 37.1348 67.8375 39.7098 65.225C41.0848 63.825 41.7598 63.05 41.8098 62.8C41.8598 62.6 41.9223 62.3625 41.9473 62.2625C41.9723 62.175 41.9348 61.8625 41.8598 61.575C41.7473 61.15 41.3348 60.675 39.5223 58.825C36.7973 56.075 36.3598 55.825 35.1598 56.375C34.3848 56.725 34.0973 57.25 34.1473 58.225C34.1973 58.95 34.2348 59.0375 34.7473 59.575L35.3098 60.15L34.1348 60.075C25.0598 59.425 16.9223 53.4 13.5223 44.8C12.5473 42.3625 12.0473 40.0125 11.8848 37.1875C11.7723 35.225 11.6348 34.8125 10.9598 34.3875C10.6598 34.2 10.3223 34.125 9.82233 34.125C9.17233 34.125 9.07233 34.1625 8.58483 34.6125Z" fill="#0B2D1F"/>
</g>
</g>
</g>
</svg>
