<svg width="72" height="72" viewBox="0 0 72 72" fill="none" xmlns="http://www.w3.org/2000/svg">
<g id="budget-transfer">
<g id="Group 1171275284">
<g id="Group 1171275153">
<g id="Vector">
<path d="M32.4246 17.9185C28.4852 18.7945 25.5087 20.4589 22.6635 23.4154C20.2998 25.8683 18.9429 28.2992 18.0237 31.7156C17.3671 34.1903 17.3671 38.439 18.0237 40.9137C18.9648 44.352 20.4968 47.0896 22.948 49.5643C30.2141 56.9008 42.2733 56.9008 49.5613 49.5424C52.0125 47.0896 53.5445 44.352 54.4856 40.9137C55.1422 38.439 55.1422 34.1903 54.4856 31.7156C53.5226 28.124 51.9687 25.4522 49.3424 22.9336C46.6067 20.2837 43.6083 18.6412 40.1503 17.9404C38.115 17.5243 34.263 17.5024 32.4246 17.9185ZM39.8439 21.97C45.0309 23.284 49.233 27.4889 50.6118 32.7011C51.1152 34.5845 51.1152 38.0448 50.6337 39.9063C48.8828 46.4982 42.9736 51.0973 36.2547 51.0973C29.5357 51.0973 23.6484 46.4982 21.8756 39.9063C21.3941 38.0448 21.3941 34.5845 21.8975 32.7011C23.9767 24.8171 32.0744 19.9771 39.8439 21.97Z" fill="#0B2D1F"/>
<path d="M39.8439 21.97C45.0309 23.284 49.233 27.4889 50.6118 32.7011C51.1152 34.5845 51.1152 38.0448 50.6337 39.9063C48.8828 46.4982 42.9736 51.0973 36.2547 51.0973C29.5357 51.0973 23.6484 46.4982 21.8756 39.9063C21.3941 38.0448 21.3941 34.5845 21.8975 32.7011C23.9767 24.8171 32.0744 19.9771 39.8439 21.97Z" fill="#2EB67D"/>
</g>
<path id="Vector_2" d="M34.9196 24.5754C34.3943 25.101 34.2849 25.4076 34.2849 26.2179C34.2849 27.0939 34.2192 27.2691 33.7596 27.4443C32.928 27.7509 31.6805 28.9773 31.1771 29.919C30.6299 31.014 30.433 32.9413 30.7613 34.1677C31.0895 35.3941 32.2276 36.8614 33.3438 37.4746C33.8472 37.7593 34.8758 38.0659 35.6418 38.1973C37.1738 38.4382 38.0055 39.0952 38.0055 40.0369C38.0055 40.8472 37.1519 41.7013 36.2984 41.7232C35.7075 41.7451 35.4011 41.548 34.5256 40.6282C33.3657 39.358 32.8623 39.2266 31.7242 39.9274C30.7831 40.4968 30.5862 41.5261 31.199 42.7087C31.6586 43.6286 32.8842 44.8331 33.7596 45.2273C34.1973 45.4244 34.2849 45.6434 34.2849 46.4318C34.2849 47.6582 35.1822 48.6875 36.2546 48.6875C37.3489 48.6875 38.2244 47.6582 38.2244 46.4099C38.2244 45.5558 38.3119 45.3587 38.7277 45.2054C39.0122 45.0959 39.5594 44.7455 39.9315 44.417C42.2732 42.4459 42.5796 38.7448 40.588 36.3358C39.8439 35.416 38.0274 34.4524 37.0644 34.4524C36.7361 34.4524 36.1233 34.321 35.7075 34.1458C34.4381 33.6202 34.1536 32.4814 35.0071 31.4739C35.7294 30.6417 36.8018 30.6855 37.6115 31.5834C38.3338 32.3938 38.9028 32.7004 39.6469 32.7004C40.4129 32.7004 41.5072 31.6053 41.5072 30.8388C41.5072 29.7219 40.4129 28.3203 38.9466 27.5757C38.29 27.2472 38.2244 27.1158 38.2244 26.2179C38.2244 24.9696 37.3489 23.9403 36.2546 23.9403C35.7731 23.9403 35.3573 24.1374 34.9196 24.5754Z" fill="#0B2D1F"/>
</g>
<path id="Vector_3" d="M54.9482 4.24674C54.7482 4.38208 54.4732 4.66507 54.3607 4.88654C54.0732 5.4033 54.0732 6.42453 54.3357 6.83055C54.4482 7.00281 55.2857 7.87639 56.1857 8.76227L57.8232 10.3987H33.6984C10.4487 10.3987 9.56117 10.411 9.06117 10.6325C7.71119 11.2353 7.63619 13.1917 8.91117 13.9668C9.32367 14.2129 9.59867 14.2129 36.2609 14.2129C62.9232 14.2129 63.1982 14.2129 63.6106 13.9668C64.1856 13.6223 64.5106 13.0317 64.5106 12.3304C64.5106 11.9982 64.4481 11.6168 64.3731 11.4691C64.1731 11.0877 57.3982 4.39438 56.9857 4.17291C56.4857 3.91453 55.3982 3.95144 54.9482 4.24674Z" fill="#0B2D1F"/>
<path id="Vector_4" d="M8.90052 58.0333C8.67553 58.1687 8.38803 58.4517 8.25054 58.6732C7.95054 59.153 7.91304 60.1128 8.17554 60.5927C8.40053 60.9987 15.2004 67.6678 15.5879 67.8647C15.7379 67.9385 16.1504 68 16.5129 68C17.3004 68 17.8879 67.6801 18.1753 67.0895C18.4378 66.5481 18.4378 65.5637 18.1753 65.17C18.0628 64.9977 17.2254 64.1241 16.3254 63.2258L14.6879 61.6016H38.8125C62.062 61.6016 62.9495 61.5893 63.4495 61.3679C64.7995 60.7649 64.8745 58.8085 63.5995 58.0333C63.187 57.7872 62.912 57.7872 36.25 57.7872C9.58801 57.7872 9.31302 57.7872 8.90052 58.0333Z" fill="#0B2D1F"/>
</g>
</g>
</svg>
