<svg width="72" height="72" viewBox="0 0 72 72" fill="none" xmlns="http://www.w3.org/2000/svg">
<g id="cost-progress-analysis">
<g id="Group 1171275628">
<g id="Group 1171275626">
<g id="Group 1171275629">
<g id="Ellipse 2575">
<mask id="path-1-inside-1_6486_46466" fill="white">
<path d="M25.5 27C31.8513 27 37 21.8513 37 15.5C37 9.14873 31.8513 4 25.5 4C19.1487 4 14 9.14873 14 15.5C14 21.8513 19.1487 27 25.5 27Z"/>
</mask>
<path d="M25.5 27C31.8513 27 37 21.8513 37 15.5C37 9.14873 31.8513 4 25.5 4C19.1487 4 14 9.14873 14 15.5C14 21.8513 19.1487 27 25.5 27Z" fill="#E60000" stroke="#4D0000" stroke-width="5.8075" mask="url(#path-1-inside-1_6486_46466)"/>
</g>
<path id="Vector" d="M26.9801 13.9842C26.1773 13.7002 25.294 13.3603 24.8199 12.9869C24.7886 12.9623 24.7305 12.8169 24.7707 12.6C24.7909 12.4949 24.8803 12.1483 25.2157 12.0477C25.5758 11.9381 26.0409 12.1237 26.4322 12.3473C26.9309 12.6336 27.5638 12.5329 27.9551 12.108C28.5097 11.5065 28.342 10.5427 27.6152 10.1648C27.3737 10.0395 27.1143 9.92102 26.8415 9.82039C26.8236 9.14281 26.269 8.59717 25.5847 8.59717C24.9474 8.59717 24.4219 9.07348 24.3391 9.68845C23.2903 10.0641 22.5144 10.9877 22.2997 12.1326C22.0895 13.2485 22.4607 14.3331 23.268 14.9659C24.0261 15.563 25.0972 15.9857 26.1415 16.3546C26.7654 16.576 26.8281 17.0233 26.7722 17.3587C26.7095 17.7322 26.3875 18.3695 25.578 18.374C24.7394 18.3784 24.5404 18.3494 23.9277 17.9468C23.3463 17.5667 22.5658 17.7299 22.1856 18.3113C21.8055 18.8928 21.9687 19.671 22.5502 20.0511C23.2277 20.4939 23.76 20.7108 24.3481 20.8115C24.4532 21.4018 24.9675 21.8491 25.5847 21.8491C26.2533 21.8491 26.799 21.3258 26.8392 20.6683C28.0803 20.2211 29.024 19.1388 29.2521 17.7747C29.5361 16.0885 28.6215 14.5634 26.9801 13.9842Z" fill="#4D0000"/>
</g>
</g>
<g id="Group">
<path id="Vector_2" d="M7.76238 39.6989H13.7195V57.0817H7.76238V39.6989ZM7.26403 36.9497C6.0231 36.9497 5 37.9596 5 39.1906V57.5768C5 58.8144 6.0231 59.8177 7.26403 59.8177H14.2178C15.4587 59.8177 16.4703 58.8144 16.4703 57.5768V39.1906C16.4703 37.9596 15.4587 36.9497 14.2178 36.9497H7.26403Z" fill="#4D0000"/>
</g>
<path id="Vector_3" d="M23.9211 34.1743H29.8798V56.9994H23.9211V34.1743ZM23.289 31.4268C22.1207 31.4268 21.1719 32.3789 21.1719 33.5439V57.6281C21.1719 58.7931 22.1207 59.7353 23.289 59.7353H30.5052C31.6735 59.7353 32.6356 58.7931 32.6356 57.6281V33.5439C32.6356 32.3789 31.6735 31.4268 30.5052 31.4268H23.289Z" fill="#4D0000"/>
<path id="Vector_4" d="M40.0672 26.3918H46.026V56.8819H40.0672V26.3918ZM39.4352 23.6426C38.2669 23.6426 37.3164 24.5964 37.3164 25.7614V57.5056C37.3164 58.6772 38.2669 59.6178 39.4352 59.6178H46.6514C47.8197 59.6178 48.7801 58.6772 48.7801 57.5056V25.7614C48.7801 24.5964 47.8197 23.6426 46.6514 23.6426H39.4352Z" fill="#4D0000"/>
<g id="Vector_5">
<path d="M58.4454 53.5587C58.4454 51.7036 57.7861 50.1166 56.4674 48.798C55.1488 47.4793 53.5618 46.82 51.7067 46.82C49.8515 46.82 48.2646 47.4793 46.9459 48.798C45.6272 50.1166 44.9679 51.7036 44.9679 53.5587C44.9679 55.4139 45.6272 57.0008 46.9459 58.3195C48.2646 59.6382 49.8515 60.2975 51.7067 60.2975C53.5618 60.2975 55.1488 59.6382 56.4674 58.3195C57.7861 57.0008 58.4454 55.4139 58.4454 53.5587ZM66.1469 66.0736C66.1469 66.595 65.9564 67.0463 65.5753 67.4274C65.1942 67.8084 64.743 67.9989 64.2215 67.9989C63.68 67.9989 63.2288 67.8084 62.8678 67.4274L57.7084 62.283C55.9134 63.5265 53.9128 64.1482 51.7067 64.1482C50.2727 64.1482 48.9014 63.8699 47.5927 63.3134C46.2841 62.7568 45.1559 62.0047 44.2083 61.0571C43.2607 60.1095 42.5086 58.9813 41.952 57.6727C41.3955 56.364 41.1172 54.9927 41.1172 53.5587C41.1172 52.1247 41.3955 50.7534 41.952 49.4448C42.5086 48.1361 43.2607 47.008 44.2083 46.0603C45.1559 45.1127 46.2841 44.3606 47.5927 43.8041C48.9014 43.2475 50.2727 42.9692 51.7067 42.9692C53.1407 42.9692 54.512 43.2475 55.8206 43.8041C57.1293 44.3606 58.2574 45.1127 59.2051 46.0603C60.1527 47.008 60.9048 48.1361 61.4613 49.4448C62.0179 50.7534 62.2962 52.1247 62.2962 53.5587C62.2962 55.7649 61.6744 57.7654 60.431 59.5604L65.5903 64.7198C65.9614 65.0908 66.1469 65.5421 66.1469 66.0736Z" fill="#4D0000"/>
<path d="M58.4454 53.5587C58.4454 51.7036 57.7861 50.1166 56.4674 48.798C55.1488 47.4793 53.5618 46.82 51.7067 46.82C49.8515 46.82 48.2646 47.4793 46.9459 48.798C45.6272 50.1166 44.9679 51.7036 44.9679 53.5587C44.9679 55.4139 45.6272 57.0008 46.9459 58.3195C48.2646 59.6382 49.8515 60.2975 51.7067 60.2975C53.5618 60.2975 55.1488 59.6382 56.4674 58.3195C57.7861 57.0008 58.4454 55.4139 58.4454 53.5587Z" fill="#FF3333"/>
</g>
</g>
</g>
</svg>
