<svg width="72" height="72" viewBox="0 0 72 72" fill="none" xmlns="http://www.w3.org/2000/svg">
<g id="issue-analysis">
<g id="Group 1171275632">
<g id="Group">
<g id="Vector">
<path d="M24.4811 4.06714C22.7905 4.35074 21.0235 5.20152 19.8564 6.29226L19.0492 7.04487H15.777C12.2103 7.04487 11.7194 7.0994 10.6941 7.61205C9.46159 8.23378 8.42539 9.57539 8.13089 10.9497C7.95637 11.7678 7.95637 55.1138 8.13089 55.9319C8.30541 56.739 8.80715 57.6989 9.38524 58.3097C9.95243 58.9096 11.0759 59.5422 11.9158 59.7168C12.7338 59.8913 47.5721 59.8913 48.3901 59.7168C50.2444 59.3241 51.7823 57.7752 52.175 55.9319C52.3495 55.1029 52.3495 11.7678 52.175 10.9497C51.7823 9.10637 50.2226 7.54661 48.3901 7.16485C48.0411 7.0885 46.5141 7.04487 44.5289 7.04487H41.2458L40.515 6.3468C39.686 5.57237 38.8571 5.0379 37.7445 4.60161C36.3156 4.02351 35.8357 3.99079 30.0657 4.0017C27.1425 4.01261 24.6338 4.04533 24.4811 4.06714ZM35.8139 7.42663C36.1957 7.5248 36.8174 7.75385 37.1773 7.93928C38.2681 8.51737 39.4897 9.90261 39.806 10.9388L39.8715 11.1897H30.153H20.4344L20.4999 10.9388C20.6853 10.3607 21.198 9.56448 21.8197 8.93185C22.5396 8.20105 23.674 7.55752 24.6011 7.383C24.8629 7.32846 27.3388 7.28483 30.0984 7.27392C34.2214 7.26302 35.2358 7.29574 35.8139 7.42663ZM17.0968 11.0479C17.0095 11.4624 16.955 12.1823 16.9768 12.684C17.0095 13.6439 17.184 13.9602 17.8494 14.3092C18.2857 14.5383 42.0202 14.5383 42.4565 14.3092C43.1219 13.9602 43.2964 13.6439 43.3291 12.684C43.3509 12.1823 43.2964 11.4624 43.2091 11.0479L43.0564 10.3171H45.3579C47.9975 10.3171 48.3465 10.4044 48.7828 11.1788L49.0228 11.6042V33.4408V55.2775L48.7937 55.6919C48.6628 55.921 48.3792 56.2046 48.1502 56.3355L47.7357 56.5645H30.153H12.5702L12.1557 56.3355C11.9267 56.2046 11.6431 55.921 11.5122 55.6919L11.2831 55.2775V33.4408V11.6042L11.5231 11.1788C11.9594 10.4044 12.2975 10.3171 14.948 10.3171H17.2495L17.0968 11.0479Z" fill="#4D0000"/>
<path d="M17.0968 11.0479C17.0095 11.4624 16.955 12.1823 16.9768 12.684C17.0095 13.6439 17.184 13.9602 17.8494 14.3092C18.2857 14.5383 42.0202 14.5383 42.4565 14.3092C43.1219 13.9602 43.2964 13.6439 43.3291 12.684C43.3509 12.1823 43.2964 11.4624 43.2091 11.0479L43.0564 10.3171H45.3579C47.9975 10.3171 48.3465 10.4044 48.7828 11.1788L49.0228 11.6042V33.4408V55.2775L48.7937 55.6919C48.6628 55.921 48.3792 56.2046 48.1502 56.3355L47.7357 56.5645H30.153H12.5702L12.1557 56.3355C11.9267 56.2046 11.6431 55.921 11.5122 55.6919L11.2831 55.2775V33.4408V11.6042L11.5231 11.1788C11.9594 10.4044 12.2975 10.3171 14.948 10.3171H17.2495L17.0968 11.0479Z" fill="#BE1A2E"/>
</g>
</g>
<g id="Vector_2">
<path d="M56.286 54.4152C56.286 52.67 55.6657 51.1771 54.4252 49.9365C53.1846 48.696 51.6917 48.0757 49.9465 48.0757C48.2012 48.0757 46.7083 48.696 45.4678 49.9365C44.2272 51.1771 43.607 52.67 43.607 54.4152C43.607 56.1605 44.2272 57.6534 45.4678 58.8939C46.7083 60.1345 48.2012 60.7548 49.9465 60.7548C51.6917 60.7548 53.1846 60.1345 54.4252 58.8939C55.6657 57.6534 56.286 56.1605 56.286 54.4152ZM63.5312 66.1886C63.5312 66.6792 63.3519 67.1037 62.9934 67.4622C62.635 67.8207 62.2104 67.9999 61.7199 67.9999C61.2105 67.9999 60.7859 67.8207 60.4463 67.4622L55.5926 62.6226C53.904 63.7924 52.0219 64.3773 49.9465 64.3773C48.5974 64.3773 47.3074 64.1155 46.0763 63.592C44.8451 63.0684 43.7838 62.3609 42.8923 61.4694C42.0009 60.5779 41.2933 59.5166 40.7697 58.2855C40.2462 57.0543 39.9844 55.7643 39.9844 54.4152C39.9844 53.0662 40.2462 51.7761 40.7697 50.545C41.2933 49.3139 42.0009 48.2526 42.8923 47.3611C43.7838 46.4696 44.8451 45.7621 46.0763 45.2385C47.3074 44.7149 48.5974 44.4531 49.9465 44.4531C51.2955 44.4531 52.5856 44.7149 53.8167 45.2385C55.0478 45.7621 56.1091 46.4696 57.0006 47.3611C57.8921 48.2526 58.5996 49.3139 59.1232 50.545C59.6468 51.7761 59.9086 53.0662 59.9086 54.4152C59.9086 56.4907 59.3237 58.3727 58.1539 60.0614L63.0076 64.9151C63.3566 65.2641 63.5312 65.6886 63.5312 66.1886Z" fill="#4D0000"/>
<path d="M56.286 54.4152C56.286 52.67 55.6657 51.1771 54.4252 49.9365C53.1846 48.696 51.6917 48.0757 49.9465 48.0757C48.2012 48.0757 46.7083 48.696 45.4678 49.9365C44.2272 51.1771 43.607 52.67 43.607 54.4152C43.607 56.1605 44.2272 57.6534 45.4678 58.8939C46.7083 60.1345 48.2012 60.7548 49.9465 60.7548C51.6917 60.7548 53.1846 60.1345 54.4252 58.8939C55.6657 57.6534 56.286 56.1605 56.286 54.4152Z" fill="#FF3333"/>
</g>
<g id="Group_2">
<path id="Vector_3" d="M51.2779 57.5286V51.8845C51.2779 51.8093 51.307 51.738 51.3596 51.6845C51.4122 51.6319 51.4845 51.6018 51.5596 51.6018H52.688C52.7631 51.6018 52.8351 51.6319 52.8877 51.6845C52.9403 51.738 52.9704 51.8093 52.9704 51.8845V57.5286H51.2779ZM49.0199 53.2952V50.4728C49.0199 50.3984 49.0493 50.3263 49.1025 50.2737C49.1551 50.2211 49.2265 50.1911 49.3016 50.1911H50.4306C50.5058 50.1911 50.5774 50.2211 50.63 50.2737C50.6832 50.3263 50.7133 50.3984 50.7133 50.4728V57.5286H49.0199V53.2952ZM46.7619 53.2952C46.7619 53.2201 46.7913 53.1487 46.8445 53.0961C46.8971 53.0426 46.9694 53.0135 47.0438 53.0135H48.1728C48.248 53.0135 48.3194 53.0426 48.3726 53.0961C48.4252 53.1487 48.4555 53.2201 48.4555 53.2952V57.5286H46.7619V53.2952ZM53.8167 57.5286H53.535V51.8845C53.535 51.6597 53.4455 51.4447 53.2868 51.2854C53.1284 51.1267 52.9134 51.0374 52.688 51.0374H51.5596C51.4635 51.0381 51.368 51.0553 51.2779 51.0885V50.4728C51.2779 50.2488 51.1875 50.0331 51.029 49.8746C50.8704 49.716 50.6554 49.6265 50.4306 49.6265H49.3016C49.0769 49.6265 48.8621 49.716 48.7034 49.8746C48.5441 50.0331 48.4555 50.2488 48.4555 50.4728V52.4992C48.3644 52.467 48.269 52.4497 48.1728 52.4489H47.0438C46.8198 52.4489 46.6041 52.5377 46.4454 52.697C46.287 52.8555 46.1975 53.0705 46.1975 53.2952V57.5286H45.9155C45.8141 57.5286 45.7208 57.5818 45.6704 57.6698C45.6203 57.7571 45.6203 57.8645 45.6704 57.9518C45.7208 58.0388 45.8141 58.093 45.9155 58.093H53.8167C53.9184 58.093 54.0108 58.0388 54.0618 57.9518C54.1122 57.8645 54.1122 57.7571 54.0618 57.6698C54.0108 57.5818 53.9184 57.5286 53.8167 57.5286Z" fill="#4D0000"/>
</g>
<g id="Group 1171275631">
<g id="Vector_4">
<mask id="path-4-outside-1_6486_46483" maskUnits="userSpaceOnUse" x="24.875" y="37.6855" width="11" height="11" fill="black">
<rect fill="white" x="24.875" y="37.6855" width="11" height="11"/>
<path d="M30.1635 38.6855C27.7991 38.6855 25.875 40.6123 25.875 42.9808C25.875 45.3493 27.7991 47.2748 30.1635 47.2748C32.5293 47.2748 34.452 45.3493 34.452 42.9808C34.452 40.6123 32.5293 38.6855 30.1635 38.6855ZM30.1635 44.8209C29.1527 44.8209 28.3262 43.993 28.3262 42.9808C28.3262 41.9687 29.1527 41.1394 30.1635 41.1394C31.1743 41.1394 32.0022 41.9687 32.0022 42.9808C32.0022 43.993 31.1743 44.8209 30.1635 44.8209Z"/>
</mask>
<path d="M30.1635 38.6855C27.7991 38.6855 25.875 40.6123 25.875 42.9808C25.875 45.3493 27.7991 47.2748 30.1635 47.2748C32.5293 47.2748 34.452 45.3493 34.452 42.9808C34.452 40.6123 32.5293 38.6855 30.1635 38.6855ZM30.1635 44.8209C29.1527 44.8209 28.3262 43.993 28.3262 42.9808C28.3262 41.9687 29.1527 41.1394 30.1635 41.1394C31.1743 41.1394 32.0022 41.9687 32.0022 42.9808C32.0022 43.993 31.1743 44.8209 30.1635 44.8209Z" fill="#4D0000"/>
<path d="M30.1635 38.6855C27.7991 38.6855 25.875 40.6123 25.875 42.9808C25.875 45.3493 27.7991 47.2748 30.1635 47.2748C32.5293 47.2748 34.452 45.3493 34.452 42.9808C34.452 40.6123 32.5293 38.6855 30.1635 38.6855ZM30.1635 44.8209C29.1527 44.8209 28.3262 43.993 28.3262 42.9808C28.3262 41.9687 29.1527 41.1394 30.1635 41.1394C31.1743 41.1394 32.0022 41.9687 32.0022 42.9808C32.0022 43.993 31.1743 44.8209 30.1635 44.8209Z" stroke="#4D0000" stroke-width="1.41389" mask="url(#path-4-outside-1_6486_46483)"/>
</g>
<g id="Vector_5">
<mask id="path-5-outside-2_6486_46483" maskUnits="userSpaceOnUse" x="24.875" y="18.0518" width="11" height="19" fill="black">
<rect fill="white" x="24.875" y="18.0518" width="11" height="19"/>
<path d="M30.1635 19.0518C27.7991 19.0518 25.875 20.9785 25.875 23.347V31.9363C25.875 34.3048 27.7991 36.2315 30.1635 36.2315C32.5293 36.2315 34.452 34.3048 34.452 31.9363V23.347C34.452 20.9785 32.5293 19.0518 30.1635 19.0518ZM32.0022 31.9363C32.0022 32.9484 31.1743 33.7777 30.1635 33.7777C29.1527 33.7777 28.3262 32.9484 28.3262 31.9363V23.347C28.3262 22.3349 29.1527 21.507 30.1635 21.507C31.1743 21.507 32.0022 22.3349 32.0022 23.347V31.9363Z"/>
</mask>
<path d="M30.1635 19.0518C27.7991 19.0518 25.875 20.9785 25.875 23.347V31.9363C25.875 34.3048 27.7991 36.2315 30.1635 36.2315C32.5293 36.2315 34.452 34.3048 34.452 31.9363V23.347C34.452 20.9785 32.5293 19.0518 30.1635 19.0518ZM32.0022 31.9363C32.0022 32.9484 31.1743 33.7777 30.1635 33.7777C29.1527 33.7777 28.3262 32.9484 28.3262 31.9363V23.347C28.3262 22.3349 29.1527 21.507 30.1635 21.507C31.1743 21.507 32.0022 22.3349 32.0022 23.347V31.9363Z" fill="#4D0000"/>
<path d="M30.1635 19.0518C27.7991 19.0518 25.875 20.9785 25.875 23.347V31.9363C25.875 34.3048 27.7991 36.2315 30.1635 36.2315C32.5293 36.2315 34.452 34.3048 34.452 31.9363V23.347C34.452 20.9785 32.5293 19.0518 30.1635 19.0518ZM32.0022 31.9363C32.0022 32.9484 31.1743 33.7777 30.1635 33.7777C29.1527 33.7777 28.3262 32.9484 28.3262 31.9363V23.347C28.3262 22.3349 29.1527 21.507 30.1635 21.507C31.1743 21.507 32.0022 22.3349 32.0022 23.347V31.9363Z" stroke="#4D0000" stroke-width="1.41389" mask="url(#path-5-outside-2_6486_46483)"/>
</g>
</g>
</g>
</g>
</svg>
