<svg width="72" height="72" viewBox="0 0 72 72" fill="none" xmlns="http://www.w3.org/2000/svg">
<path d="M39.5 5H24L18 9.5V13.5L44.5 13L44 8L39.5 5Z" fill="#E60000"/>
<path d="M64 55.5C64 61.8513 58.6274 67 52 67C45.3726 67 40 61.8513 40 55.5C40 49.1487 45.3726 44 52 44C58.6274 44 64 49.1487 64 55.5Z" fill="#990000"/>
<path fill-rule="evenodd" clip-rule="evenodd" d="M24.887 3.07675C22.9495 3.40174 20.9246 4.37671 19.5871 5.62668L18.6622 6.48916H14.9123C10.8249 6.48916 10.2624 6.55165 9.08742 7.13914C7.67495 7.85162 6.48749 9.38908 6.15 10.964C5.95 11.9015 5.95 61.5751 6.15 62.5126C6.34999 63.4376 6.92497 64.5376 7.58746 65.2375C8.23744 65.925 9.5249 66.65 10.4874 66.85C11.0981 66.9803 28.2565 67.0257 40.4011 66.9862C39.1803 65.9059 38.1257 64.6419 37.2807 63.2376H31.3868H11.2374L10.7624 62.9751C10.4999 62.8251 10.1749 62.5001 10.0249 62.2376L9.7624 61.7626V36.7383V11.714L10.0374 11.2265C10.5374 10.339 10.9249 10.2391 13.9623 10.2391H16.5997L16.4247 11.0765C16.3247 11.5515 16.2622 12.3765 16.2872 12.9515C16.3247 14.0514 16.5247 14.4139 17.2872 14.8139C17.7872 15.0764 44.9864 15.0764 45.4864 14.8139C46.2489 14.4139 46.4489 14.0514 46.4864 12.9515C46.5114 12.3765 46.4489 11.5515 46.3489 11.0765L46.1739 10.2391H48.8113C51.8362 10.2391 52.2362 10.339 52.7362 11.2265L53.0112 11.714V36.7383V39.1252C54.3208 39.2894 55.5811 39.6119 56.7724 40.0729C56.782 26.4087 56.7324 11.4741 56.6236 10.964C56.1736 8.85159 54.3862 7.06414 52.2862 6.62665C51.8862 6.53915 50.1363 6.48916 47.8614 6.48916H44.099L43.2615 5.68918C42.3115 4.8017 41.3615 4.18922 40.0866 3.68923C38.4491 3.02675 37.8991 2.98925 31.2868 3.00175C27.9369 3.01425 25.062 3.05175 24.887 3.07675ZM37.8741 6.92664C38.3116 7.03914 39.0241 7.30163 39.4366 7.51413C40.6865 8.17661 42.0865 9.76407 42.449 10.9515L42.524 11.239H31.3868H20.2496L20.3246 10.9515C20.5371 10.2891 21.1246 9.37658 21.8371 8.6516C22.662 7.81412 23.962 7.07664 25.0245 6.87664C25.3245 6.81415 28.1619 6.76415 31.3243 6.75165C36.0492 6.73915 37.2116 6.77665 37.8741 6.92664Z" fill="#4D0000"/>
<path d="M37.2994 22.0899C36.4619 22.3524 35.8619 23.3649 36.0244 24.2524C36.1744 25.0399 36.9244 25.7148 37.6619 25.7148C37.8369 25.7148 37.9744 25.7523 37.9744 25.8148C37.9744 25.8648 36.9869 26.8898 35.7869 28.0898L33.5995 30.2772L30.5621 27.2398C27.2747 23.9649 27.0872 23.8274 26.1372 24.0774C25.7497 24.1899 24.9497 24.9274 21.8873 27.9898C18.6624 31.2272 18.1124 31.8397 18.0374 32.2397C17.8124 33.4646 18.6249 34.4646 19.8499 34.4646C20.1374 34.4646 20.4874 34.4021 20.6374 34.3271C20.7874 34.2521 22.1873 32.9147 23.7623 31.3647L26.5997 28.5273L29.5746 31.4897C31.1996 33.1146 32.662 34.5021 32.812 34.5771C33.162 34.7521 34.037 34.7521 34.387 34.5771C34.537 34.5021 36.0119 33.0896 37.6744 31.4397L40.6868 28.4398L40.7618 28.9398C41.0493 30.6772 43.4492 31.0397 44.2617 29.4647C44.4617 29.0773 44.4742 28.7023 44.4492 26.1273C44.4117 22.9399 44.3992 22.9274 43.5492 22.2899C43.2242 22.0399 43.0242 22.0274 40.4368 22.0024C38.9119 21.99 37.4994 22.0274 37.2994 22.0899Z" fill="#4D0000"/>
<path d="M18.8362 41.2875C17.6988 42.05 17.7238 43.5499 18.8987 44.4249C19.2362 44.6874 19.3612 44.6874 27.411 44.6874C35.4608 44.6874 35.5858 44.6874 35.9233 44.4249C37.0982 43.5499 37.1232 42.05 35.9858 41.2875L35.5608 41H27.411H19.2612L18.8362 41.2875Z" fill="#4D0000"/>
<path d="M18.8953 51.2027C18.34 51.5 18 52.1757 18 53C18 53.7568 18.204 54.2162 18.782 54.7162C19.088 55 19.2013 55 26.5 55C33.7987 55 33.912 55 34.218 54.7162C34.796 54.2162 35 53.7568 35 53C35 52.1622 34.66 51.4865 34.082 51.2027C33.538 50.9324 19.4167 50.9324 18.8953 51.2027Z" fill="#4D0000"/>
<path d="M45.9455 52.6892C45.9455 52.6892 45.9261 52.7088 45.9195 52.7217C45.9195 52.7348 45.9195 52.7414 45.9064 52.7545C45.3324 53.7587 45 54.913 45 56.1455C45 59.2954 47.1389 61.9497 50.0411 62.7454C50.054 62.7454 50.0606 62.7585 50.0737 62.7585C50.0933 62.7585 50.1128 62.7585 50.1324 62.7651C50.6802 62.9083 51.2542 62.9933 51.8476 62.9933C55.6234 62.9933 58.6952 59.9216 58.6952 56.1455C58.6952 55.9629 58.5517 55.8194 58.3691 55.8194H53.1519C52.9693 55.8194 52.8258 55.9629 52.8258 56.1455C52.8258 56.6869 52.3888 57.1238 51.8476 57.1238C51.3061 57.1238 50.8693 56.6869 50.8693 56.1455C50.8693 55.6043 51.3061 55.1673 51.8476 55.1673C52.0302 55.1673 52.1737 55.024 52.1737 54.8414V49.624C52.1737 49.4414 52.0302 49.2979 51.8476 49.2979C49.3302 49.2979 47.1389 50.6676 45.9455 52.6892ZM53.4452 56.4716H58.0364C57.8669 59.739 55.1539 62.3411 51.8476 62.3411C51.404 62.3411 50.9737 62.2955 50.5629 62.2042L51.7497 57.7628C51.7823 57.7628 51.815 57.7694 51.8476 57.7694C52.6367 57.7694 53.2954 57.2085 53.4452 56.465M51.1172 57.5933L49.9302 62.0279C47.4521 61.2194 45.652 58.8846 45.652 56.1392C45.652 55.1282 45.8998 54.1761 46.3303 53.3282L50.3019 55.6239C50.2497 55.7869 50.2172 55.9564 50.2172 56.1392C50.2172 56.7782 50.5889 57.326 51.1172 57.5933ZM51.5215 49.9567V54.5478C51.1692 54.6195 50.8628 54.8086 50.628 55.0696L46.6499 52.7739C47.6998 51.1631 49.4802 50.0676 51.5149 49.9632" fill="white"/>
<path fill-rule="evenodd" clip-rule="evenodd" d="M45.9447 52.6892C47.1381 50.6676 49.3294 49.298 51.8467 49.298C52.0293 49.298 52.1728 49.4414 52.1728 49.624V54.8414C52.1728 55.024 52.0293 55.1673 51.8467 55.1673C51.3053 55.1673 50.8685 55.6043 50.8685 56.1455C50.8685 56.687 51.3053 57.1238 51.8467 57.1238C52.388 57.1238 52.825 56.687 52.825 56.1455C52.825 55.9629 52.9685 55.8194 53.1511 55.8194H58.3682C58.5508 55.8194 58.6943 55.9629 58.6943 56.1455C58.6943 59.9216 55.6226 62.9933 51.8467 62.9933C51.2533 62.9933 50.6793 62.9084 50.1316 62.7651C50.1119 62.7585 50.0925 62.7585 50.0728 62.7585C50.0662 62.7585 50.0613 62.7552 50.0564 62.7519C50.0515 62.7487 50.0467 62.7454 50.0403 62.7454C47.1381 61.9498 44.9992 59.2954 44.9992 56.1455C44.9992 54.913 45.3316 53.7588 45.9056 52.7545C45.9187 52.7414 45.9187 52.7348 45.9187 52.7217C45.9252 52.7089 45.9447 52.6892 45.9447 52.6892ZM45.7457 52.6803L45.7645 52.6433C45.7783 52.6162 45.7975 52.5941 45.8034 52.5873C45.8039 52.5867 45.8046 52.586 45.8051 52.5854C47.0299 50.5228 49.2713 49.125 51.8467 49.125C52.1249 49.125 52.3458 49.3459 52.3458 49.624V54.8414C52.3458 55.1197 52.1247 55.3403 51.8467 55.3403C51.4009 55.3403 51.0415 55.6998 51.0415 56.1455C51.0415 56.5914 51.4009 56.9508 51.8467 56.9508C52.2924 56.9508 52.652 56.5914 52.652 56.1455C52.652 55.8674 52.873 55.6464 53.1511 55.6464H58.3682C58.6464 55.6464 58.8673 55.8674 58.8673 56.1455C58.8673 60.0172 55.7182 63.1663 51.8467 63.1663C51.2367 63.1663 50.648 63.079 50.0878 62.9325L50.0846 62.9316L50.0728 62.9315C50.039 62.9315 50.0113 62.9227 49.9915 62.9135C49.988 62.9119 49.9848 62.9103 49.9819 62.9088C47.0132 62.0889 44.8262 59.3712 44.8262 56.1455C44.8262 54.8884 45.1635 53.7107 45.7457 52.6857V52.6803ZM53.4444 56.4651C53.2946 57.2085 52.6359 57.7694 51.8467 57.7694C51.8305 57.7694 51.8142 57.7678 51.7978 57.7661C51.7815 57.7645 51.7652 57.7629 51.7489 57.7629L50.5621 62.2042C50.6183 62.2167 50.6749 62.2284 50.7318 62.2391C51.0909 62.3072 51.4639 62.3412 51.8467 62.3412C55.0945 62.3412 57.7698 59.8304 58.0242 56.6446C58.0288 56.5872 58.0326 56.5295 58.0356 56.4716H53.4444V56.4651ZM53.5783 56.6446C53.3635 57.3839 52.6862 57.9275 51.8801 57.9421L50.7766 62.0715C51.1207 62.1359 51.4786 62.1682 51.8467 62.1682C54.999 62.1682 57.5967 59.7346 57.8506 56.6446H53.5783ZM51.3477 49.974C49.4433 50.1232 47.7763 51.1414 46.7457 52.63C46.7129 52.6775 46.6806 52.7255 46.649 52.7739L50.6271 55.0696C50.8619 54.8086 51.1684 54.6195 51.5207 54.5479V49.9567L51.5141 49.9632C51.4584 49.9661 51.403 49.9697 51.3477 49.974ZM51.3477 50.1476C49.5078 50.2959 47.8965 51.2791 46.8961 52.7168L50.5967 54.8523C50.8063 54.6505 51.0606 54.496 51.3477 54.4125V50.1476ZM50.9144 57.6788C50.3978 57.3646 50.0433 56.7962 50.0433 56.1392C50.0433 55.9864 50.0638 55.8429 50.0978 55.7063L46.4034 53.5708C46.0342 54.3536 45.8241 55.2216 45.8241 56.1392C45.8241 58.743 47.4905 60.9678 49.8102 61.8042L50.9144 57.6788ZM51.1164 57.5934C50.5881 57.326 50.2163 56.7783 50.2163 56.1392C50.2163 55.9564 50.2489 55.7869 50.3011 55.624L46.3295 53.3283C46.3034 53.3798 46.2779 53.4317 46.2531 53.4839C45.8698 54.292 45.6511 55.1896 45.6511 56.1392C45.6511 58.8236 47.3722 61.1155 49.7653 61.9719C49.8196 61.9913 49.8743 62.01 49.9293 62.028L51.1164 57.5934Z" fill="white"/>
<path d="M52.8262 48.3195V53.5369C52.8262 53.7195 52.9697 53.863 53.1523 53.863C53.6935 53.863 54.1305 54.2998 54.1305 54.8412C54.1305 55.0238 54.2738 55.1671 54.4566 55.1671H59.6738C59.8563 55.1671 59.9998 55.0238 59.9998 54.8412C59.9998 53.4913 59.6084 52.1869 58.865 51.0652C58.7674 50.9151 58.5586 50.876 58.4151 50.9739C58.265 51.0717 58.2259 51.2737 58.3238 51.4238C58.9368 52.3498 59.2824 53.4063 59.3411 54.5152H54.7499C54.6195 53.8759 54.1174 53.3738 53.4783 53.2434V48.6522C54.5999 48.7109 55.6825 49.0696 56.6151 49.7021C56.7652 49.8065 56.9672 49.7674 57.0651 49.6173C57.1629 49.4673 57.1304 49.2652 56.9803 49.1674C55.8457 48.4043 54.5282 48 53.1523 48C52.9697 48 52.8262 48.1435 52.8262 48.3261" fill="white"/>
<path fill-rule="evenodd" clip-rule="evenodd" d="M58.3229 51.424C58.2251 51.274 58.2642 51.0718 58.4142 50.974C58.5577 50.8761 58.7665 50.9152 58.8641 51.0653C59.6076 52.187 59.999 53.4914 59.999 54.8414C59.999 55.024 59.8555 55.1672 59.6729 55.1672H54.4558C54.273 55.1672 54.1297 55.024 54.1297 54.8414C54.1297 54.2999 53.6926 53.8631 53.1514 53.8631C52.9688 53.8631 52.8253 53.7196 52.8253 53.537V48.3262C52.8253 48.324 52.8254 48.3218 52.8254 48.3197C52.8288 48.1402 52.971 48.0001 53.1514 48.0001C54.5274 48.0001 55.8449 48.4044 56.9795 49.1675C57.1295 49.2654 57.1621 49.4674 57.0642 49.6174C56.9664 49.7675 56.7644 49.8066 56.6143 49.7022C55.7297 49.1023 54.7102 48.7487 53.6505 48.6638C53.593 48.6591 53.5353 48.6553 53.4775 48.6523V53.2435C54.1166 53.3739 54.6187 53.8761 54.7491 54.5154H59.3403C59.3372 54.4576 59.3334 54.3999 59.3288 54.3424C59.2448 53.2967 58.904 52.3018 58.3229 51.424ZM59.1552 54.3424C59.0716 53.3305 58.7409 52.3686 58.1787 51.5194L58.178 51.5184C58.0301 51.2916 58.0866 50.9823 58.3182 50.8302C58.541 50.6795 58.858 50.7393 59.0088 50.9703C59.7708 52.1204 60.172 53.4578 60.172 54.8414C60.172 55.1197 59.9509 55.3402 59.6729 55.3402H54.4558C54.1775 55.3402 53.9567 55.1196 53.9567 54.8414C53.9567 54.3955 53.5971 54.0361 53.1514 54.0361C52.8733 54.0361 52.6523 53.8152 52.6523 53.537V48.3197C52.6558 48.0446 52.8755 47.8271 53.1514 47.8271C54.5615 47.8271 55.9122 48.2415 57.0751 49.0233C57.3122 49.1788 57.3536 49.4904 57.2091 49.7119C57.0573 49.9447 56.7452 50.0033 56.5164 49.8449C55.661 49.2649 54.6755 48.9219 53.6505 48.8373V53.108C54.2455 53.2794 54.7132 53.7473 54.8846 54.3424H59.1552Z" fill="white"/>
<path fill-rule="evenodd" clip-rule="evenodd" d="M65.864 55.5003C65.864 62.8808 59.8809 68.8639 52.5004 68.8639C45.1198 68.8639 39.1367 62.8808 39.1367 55.5003C39.1367 48.1198 45.1198 42.1367 52.5004 42.1367C59.8809 42.1367 65.864 48.1198 65.864 55.5003ZM52.5004 66.0003C58.2993 66.0003 63.0004 61.2993 63.0004 55.5003C63.0004 49.7013 58.2993 45.0003 52.5004 45.0003C46.7014 45.0003 42.0004 49.7013 42.0004 55.5003C42.0004 61.2993 46.7014 66.0003 52.5004 66.0003Z" fill="#4D0000"/>
</svg>
