<svg width="72" height="72" viewBox="0 0 72 72" fill="none" xmlns="http://www.w3.org/2000/svg">
<g id="project-budget-transfer">
<g id="Group">
<path id="Vector" d="M54.8116 4.25057C54.6116 4.38807 54.3366 4.67557 54.2241 4.90057C53.9366 5.42556 53.9366 6.46305 54.1991 6.87555C54.3116 7.05055 55.1491 7.93804 56.0491 8.83803L57.6865 10.5005H33.5617C10.3119 10.5005 9.42445 10.513 8.92445 10.738C7.57447 11.3505 7.49947 13.338 8.77446 14.1255C9.18695 14.3755 9.46195 14.3755 36.1242 14.3755C62.7865 14.3755 63.0615 14.3755 63.474 14.1255C64.049 13.7755 64.374 13.1755 64.374 12.463C64.374 12.1255 64.3115 11.738 64.2365 11.588C64.0365 11.2005 57.2615 4.40057 56.8491 4.17557C56.3491 3.91308 55.2616 3.95058 54.8116 4.25057Z" fill="#0B2D1F"/>
<g id="Vector_2">
<path d="M8.7508 19.1128C8.06331 19.3253 7.37581 19.7628 6.90082 20.3128C5.93833 21.4003 6.00083 20.4003 6.00083 36.0001C6.00083 51.6 5.93833 50.6 6.90082 51.6875C7.17582 52 7.70081 52.4125 8.05081 52.6L8.6883 52.9375H36.1256H63.5628L64.2003 52.6C64.5503 52.4125 65.0753 52 65.3503 51.6875C66.3128 50.6 66.2503 51.6 66.2503 36.0001C66.2503 20.4003 66.3128 21.4003 65.3503 20.3128C65.0753 20.0003 64.5503 19.5878 64.2003 19.4003L63.5628 19.0628L36.3131 19.0378C21.3257 19.0253 8.9258 19.0628 8.7508 19.1128ZM62.3754 36.0001V49.125H36.1256H9.87579V36.0001V22.8753H36.1256H62.3754V36.0001Z" fill="#0B2D1F"/>
<path d="M62.3754 36.0001V49.125H36.1256H9.87579V36.0001V22.8753H36.1256H62.3754V36.0001Z" fill="#2EB67D"/>
</g>
<path id="Vector_3" d="M33.9374 25.8006C30.4749 26.5881 27.6249 29.038 26.4249 32.2505C25.8624 33.738 25.7124 34.763 25.7749 36.5505C25.8249 37.813 25.8999 38.2505 26.2374 39.2505C27.2499 42.2504 29.3749 44.5129 32.2999 45.6754C33.7249 46.2504 34.7374 46.4004 36.5623 46.3379C37.9748 46.3004 38.3498 46.2379 39.3748 45.8879C42.5748 44.8129 44.8998 42.4879 46.0248 39.2505C46.4248 38.1005 46.4373 38.013 46.4373 36.0005C46.4373 33.988 46.4248 33.9005 46.0248 32.7505C44.8998 29.513 42.5873 27.2006 39.3748 26.1131C38.2998 25.7506 38.0123 25.7006 36.4373 25.6756C35.2623 25.6381 34.4374 25.6881 33.9374 25.8006ZM37.6623 29.688C40.5623 30.438 42.6248 33.063 42.6248 36.0005C42.6248 39.5255 39.6498 42.5004 36.1248 42.5004C32.5999 42.5004 29.6249 39.5255 29.6249 36.0005C29.6249 33.1005 31.6749 30.463 34.5374 29.688C35.3998 29.463 36.7748 29.4505 37.6623 29.688Z" fill="#0B2D1F"/>
<path id="Vector_4" d="M8.77553 57.8751C8.55054 58.0126 8.26304 58.3001 8.12554 58.5251C7.82554 59.0126 7.78804 59.9876 8.05054 60.4751C8.27554 60.8876 15.0755 67.6625 15.463 67.8625C15.613 67.9375 16.0255 68 16.388 68C17.1755 68 17.763 67.675 18.0505 67.075C18.313 66.525 18.313 65.525 18.0505 65.125C17.938 64.95 17.1005 64.0625 16.2005 63.15L14.563 61.5001H38.6878C61.9376 61.5001 62.8251 61.4876 63.3251 61.2626C64.6751 60.6501 64.7501 58.6626 63.4751 57.8751C63.0626 57.6251 62.7876 57.6251 36.1253 57.6251C9.46303 57.6251 9.18803 57.6251 8.77553 57.8751Z" fill="#0B2D1F"/>
</g>
</g>
</svg>
