<svg width="72" height="72" viewBox="0 0 72 72" fill="none" xmlns="http://www.w3.org/2000/svg">
<g id="section">
<g id="Group 1171275604">
<path id="Rectangle 34624928" d="M6 28.6185C6 26.1495 8.00155 24.1479 10.4706 24.1479H29.9739C32.4429 24.1479 34.4444 26.1495 34.4444 28.6185V48.1218C34.4444 50.5908 32.4429 52.5924 29.9739 52.5924H10.4706C8.00155 52.5924 6 50.5908 6 48.1218V28.6185Z" fill="#68D4F4"/>
<path id="Rectangle 34624928 (Stroke)" fill-rule="evenodd" clip-rule="evenodd" d="M29.9739 27.5009H10.4706C9.85333 27.5009 9.35294 28.0013 9.35294 28.6185V48.1218C9.35294 48.7391 9.85333 49.2395 10.4706 49.2395H29.9739C30.5911 49.2395 31.0915 48.7391 31.0915 48.1218V28.6185C31.0915 28.0013 30.5911 27.5009 29.9739 27.5009ZM10.4706 24.1479C8.00155 24.1479 6 26.1495 6 28.6185V48.1218C6 50.5908 8.00155 52.5924 10.4706 52.5924H29.9739C32.4429 52.5924 34.4444 50.5908 34.4444 48.1218V28.6185C34.4444 26.1495 32.4429 24.1479 29.9739 24.1479H10.4706Z" fill="#0D313B"/>
<path id="Rectangle 34624929" d="M42.7422 7.72549C42.7422 5.66795 44.4101 4 46.4677 4H62.7204C64.7779 4 66.4459 5.66796 66.4459 7.72549V23.9782C66.4459 26.0357 64.7779 27.7037 62.7204 27.7037H46.4677C44.4101 27.7037 42.7422 26.0357 42.7422 23.9782V7.72549Z" fill="#68D4F4"/>
<path id="Rectangle 34624929 (Stroke)" fill-rule="evenodd" clip-rule="evenodd" d="M62.7204 7.35294H46.4677C46.2619 7.35294 46.0951 7.51974 46.0951 7.72549V23.9782C46.0951 24.184 46.2619 24.3508 46.4677 24.3508H62.7204C62.9262 24.3508 63.093 24.184 63.093 23.9782V7.72549C63.093 7.51973 62.9262 7.35294 62.7204 7.35294ZM46.4677 4C44.4101 4 42.7422 5.66795 42.7422 7.72549V23.9782C42.7422 26.0357 44.4101 27.7037 46.4677 27.7037H62.7204C64.7779 27.7037 66.4459 26.0357 66.4459 23.9782V7.72549C66.4459 5.66796 64.7779 4 62.7204 4H46.4677Z" fill="#0D313B"/>
<path id="Rectangle 34624930" d="M42.7422 48.0219C42.7422 45.9643 44.4101 44.2964 46.4677 44.2964H62.7204C64.7779 44.2964 66.4459 45.9643 66.4459 48.0219V64.2746C66.4459 66.3321 64.7779 68.0001 62.7204 68.0001H46.4677C44.4101 68.0001 42.7422 66.3321 42.7422 64.2746V48.0219Z" fill="#68D4F4"/>
<path id="Rectangle 34624930 (Stroke)" fill-rule="evenodd" clip-rule="evenodd" d="M62.7204 47.6493H46.4677C46.2619 47.6493 46.0951 47.8161 46.0951 48.0219V64.2746C46.0951 64.4804 46.2619 64.6472 46.4677 64.6472H62.7204C62.9262 64.6472 63.093 64.4804 63.093 64.2746V48.0219C63.093 47.8161 62.9262 47.6493 62.7204 47.6493ZM46.4677 44.2964C44.4101 44.2964 42.7422 45.9643 42.7422 48.0219V64.2746C42.7422 66.3321 44.4101 68.0001 46.4677 68.0001H62.7204C64.7779 68.0001 66.4459 66.3321 66.4459 64.2746V48.0219C66.4459 45.9643 64.7779 44.2964 62.7204 44.2964H46.4677Z" fill="#0D313B"/>
<path id="Line 16 (Stroke)" fill-rule="evenodd" clip-rule="evenodd" d="M43.9268 58.5188L30.0008 51.0002L31.5938 48.0498L45.5197 55.5684L43.9268 58.5188Z" fill="#0D313B"/>
<path id="Line 17 (Stroke)" fill-rule="evenodd" clip-rule="evenodd" d="M45.1107 18.2224L32.0737 27.7038L30.1016 24.9922L43.1386 15.5107L45.1107 18.2224Z" fill="#0D313B"/>
</g>
</g>
</svg>
