<svg width="72" height="72" viewBox="0 0 72 72" fill="none" xmlns="http://www.w3.org/2000/svg">
<g id="job-orders">
<g id="Group 1171275185">
<path id="Vector" d="M64.3917 68L35.5556 67.985C35.5128 67.9425 35.4671 67.9029 35.4189 67.8667C34.8106 67.4767 34.5706 66.9733 34.7272 66.415C34.8939 65.8183 35.3722 65.4867 36.1122 65.4867C41.1856 65.4867 58.1256 65.5017 63.2 65.5017C64.765 65.5017 65.39 64.8767 65.39 63.31V45.4183L47.3984 50.6667C47.52 52.2767 47.345 53.765 46.3517 55.045C45.8919 55.6665 45.2974 56.1758 44.6127 56.5349C43.9281 56.8939 43.1711 57.0934 42.3984 57.1183C41.0729 57.193 39.7717 56.7407 38.7784 55.86C37.1767 54.49 36.7784 52.6667 36.9617 50.6567L18.9733 45.415V46.0583C18.9733 51.8506 18.9733 57.6417 18.9733 63.4317C18.9733 64.8317 19.64 65.4983 21.0367 65.4983C24.51 65.4983 27.9828 65.4983 31.455 65.4983C33.14 65.4983 34.8234 65.4983 36.5084 65.4983C37.15 65.4983 37.6234 65.86 37.765 66.4233C37.9134 67.02 37.69 67.4817 37.1884 67.8183C37.105 67.875 37.0217 67.935 36.94 67.985H19.9717C19.9276 67.9439 19.8776 67.9096 19.8233 67.8833C17.5717 67.2167 16.48 65.745 16.4783 63.3833C16.4783 62.6817 16.4783 61.9817 16.4783 61.235H15.7317C12.3867 61.235 9.04001 61.2167 5.695 61.2483C4.92834 61.2483 4.36167 61.0383 4 60.36V4H36.0667C36.3198 4.17681 36.5619 4.36883 36.7917 4.575C40.3234 8.10333 43.86 11.6283 47.36 15.1883C47.6834 15.5532 47.8742 16.0165 47.9017 16.5033C47.9667 18.0417 47.9267 19.5833 47.9267 21.125V21.7517C48.5584 21.7517 49.0934 21.7417 49.6367 21.7517C50.4998 21.7586 51.3258 22.1037 51.9372 22.713C52.5486 23.3222 52.8967 24.1469 52.9067 25.01C52.9284 26.03 52.9067 27.0517 52.9067 28.0717V29C56.5167 29 60.0284 28.9917 63.54 29C66.04 29.0083 67.8584 30.8433 67.8734 33.3467C67.8834 34.4917 67.8734 35.6367 67.8734 36.7817C67.8734 45.6939 67.8734 54.6061 67.8734 63.5183C67.8734 65.735 66.7067 67.2683 64.59 67.8817C64.5198 67.9138 64.4533 67.9535 64.3917 68ZM16.4783 58.735V57.9383C16.4783 49.7928 16.4783 41.6472 16.4783 33.5017C16.4783 30.7983 18.2767 29.0017 20.9783 29.0017C24.2417 29.0017 27.5061 29.0017 30.7717 29.0017H31.4484C31.4484 27.7183 31.4484 26.5317 31.4484 25.345C31.4484 23.1283 32.8134 21.755 35.0184 21.7533C38.2617 21.7533 41.5056 21.7533 44.75 21.7533H45.3917V17.5H36.075C34.8784 17.5 34.4484 17.0767 34.4484 15.8933C34.4484 12.9978 34.4484 10.1022 34.4484 7.20667V6.54H6.54667V58.735H16.4783ZM18.9783 42.8083L36.9467 48.0417C36.9467 47.645 36.9467 47.3333 36.9467 47.0233C36.965 46.1167 37.4334 45.6317 38.3384 45.6283C40.915 45.6206 43.4922 45.6206 46.07 45.6283C46.9284 45.6283 47.4034 46.1283 47.425 46.9967C47.4334 47.3217 47.425 47.6483 47.425 48.0067C47.5917 47.9767 47.7 47.9683 47.7967 47.94C53.5156 46.2733 59.2345 44.6117 64.9534 42.955C65.35 42.84 65.4001 42.635 65.3984 42.2883C65.3884 39.455 65.3984 36.6217 65.3984 33.7883C65.3984 32.0883 64.8117 31.4967 63.125 31.4967H21.2733C21.0867 31.4967 20.9 31.4967 20.7134 31.4967C20.4837 31.4982 20.2566 31.545 20.045 31.6344C19.8335 31.7238 19.6416 31.854 19.4805 32.0177C19.3193 32.1813 19.192 32.3751 19.1059 32.588C19.0197 32.8009 18.9764 33.0287 18.9783 33.2583C18.9583 33.8817 18.9783 34.5067 18.9783 35.1317V42.8083ZM50.4217 28.975C50.4217 27.735 50.4217 26.5683 50.4217 25.4033C50.4217 24.5083 50.1684 24.255 49.2767 24.2533H40.1667C38.42 24.2533 36.6667 24.2533 34.9284 24.2533C34.4284 24.2533 33.9967 24.4367 33.9767 24.945C33.925 26.2883 33.96 27.6333 33.96 28.9783L50.4217 28.975ZM39.4384 48.1533C39.4384 49.475 39.4167 50.7233 39.4384 51.97C39.459 52.6311 39.7178 53.2625 40.167 53.7479C40.6163 54.2333 41.2258 54.5401 41.8834 54.6117C43.23 54.7583 44.62 53.9 44.7867 52.5383C44.9634 51.0967 44.8267 49.6167 44.8267 48.1533H39.4384ZM43.2717 14.9633L36.9784 8.66667V14.9717L43.2717 14.9633Z" fill="#0B2D1F"/>
<path id="Vector_2" d="M16.4785 58.7349H6.54688V6.54492H34.4519V7.21159C34.4519 10.1083 34.4519 13.0038 34.4519 15.8983C34.4519 17.0816 34.8819 17.5033 36.0786 17.5049H45.3952V21.7549H44.7536C41.5102 21.7549 38.2663 21.7549 35.0219 21.7549C32.8169 21.7549 31.4552 23.1299 31.4519 25.3466C31.4519 26.5333 31.4519 27.7199 31.4519 29.0033H30.7752C27.5097 29.0033 24.2452 29.0033 20.9819 29.0033C18.2786 29.0033 16.4819 30.7999 16.4819 33.5033C16.4819 41.6499 16.4819 49.7955 16.4819 57.9399L16.4785 58.7349ZM18.8919 14.9999C16.4385 14.9999 13.9858 14.9999 11.5335 14.9999C10.6169 14.9999 10.0752 15.4783 10.0785 16.2566C10.0819 17.0349 10.6219 17.4966 11.5502 17.4966C16.4391 17.4966 21.3241 17.4966 26.2052 17.4966C27.1202 17.4966 27.6886 17.0233 27.7052 16.2699C27.7219 15.5166 27.1336 14.9999 26.1886 14.9999C23.7552 14.9999 21.323 14.9999 18.8919 14.9999ZM18.8919 21.9999C16.4385 21.9999 13.9858 21.9999 11.5335 21.9999C10.6169 21.9999 10.0769 22.4799 10.0819 23.2599C10.0869 24.0399 10.6285 24.4966 11.5569 24.4966C16.4458 24.4966 21.3308 24.4966 26.2119 24.4966C27.1236 24.4966 27.6936 24.0199 27.7119 23.2666C27.7302 22.5133 27.1436 21.9999 26.1952 21.9999C23.7563 21.9999 21.3208 21.9999 18.8886 21.9999H18.8919Z" fill="#2EB67D"/>
<path id="Vector_3" d="M18.9715 42.8083V35.1417C18.9715 34.5167 18.9565 33.8917 18.9715 33.2683C18.9686 33.0377 19.0115 32.8088 19.0976 32.5948C19.1836 32.3808 19.3113 32.186 19.473 32.0216C19.6348 31.8572 19.8275 31.7264 20.0401 31.6369C20.2527 31.5474 20.4809 31.5009 20.7115 31.5C20.8982 31.5 21.0848 31.5 21.2715 31.5H63.1149C64.8015 31.5 65.3882 32.0917 65.3882 33.7917C65.3882 36.625 65.3882 39.4583 65.3882 42.2917C65.3882 42.64 65.3399 42.845 64.9432 42.9583C59.221 44.6083 53.5021 46.27 47.7865 47.9433C47.6899 47.9717 47.5865 47.98 47.4149 48.01C47.4149 47.6517 47.4149 47.325 47.4149 47C47.3932 46.1333 46.9149 45.635 46.0599 45.6317C43.4832 45.6194 40.906 45.6194 38.3282 45.6317C37.4232 45.6317 36.9549 46.12 36.9365 47.0267C36.9365 47.3367 36.9365 47.6483 36.9365 48.045L18.9715 42.8083Z" fill="#2EB67D"/>
<path id="Vector_4" d="M39.4376 48.1533H44.8326C44.8326 49.615 44.9693 51.095 44.7926 52.5367C44.6259 53.8983 43.236 54.7567 41.8893 54.61C41.2318 54.5384 40.6222 54.2316 40.173 53.7462C39.7237 53.2608 39.4649 52.6294 39.4443 51.9683C39.4159 50.7233 39.4376 49.475 39.4376 48.1533Z" fill="#2EB67D"/>
<path id="Vector_5" d="M43.2699 14.9632H36.9766V8.6665L43.2699 14.9632Z" fill="#2EB67D"/>
<path id="Vector_6" d="M18.8909 15C21.3231 15 23.7554 15 26.1876 15C27.1326 15 27.7159 15.5 27.7009 16.27C27.6859 17.04 27.1193 17.4967 26.2009 17.4967C21.312 17.4967 16.427 17.4967 11.5459 17.4967C10.6176 17.4967 10.0793 17.035 10.0743 16.2567C10.0693 15.4783 10.6159 15 11.5326 15C13.9859 15 16.4387 15 18.8909 15Z" fill="#0B2D1F"/>
<path id="Vector_7" d="M18.8871 22C21.3182 22 23.7504 22 26.1837 22C27.1321 22 27.7137 22.5 27.7004 23.2667C27.6871 24.0333 27.1187 24.4967 26.2004 24.4967C21.3115 24.4967 16.4265 24.4967 11.5454 24.4967C10.617 24.4967 10.077 24.035 10.0704 23.26C10.0637 22.485 10.6054 22.0017 11.522 22C13.9798 22 16.4348 22 18.8871 22Z" fill="#0B2D1F"/>
</g>
</g>
</svg>
