<svg width="72" height="72" viewBox="0 0 72 72" fill="none" xmlns="http://www.w3.org/2000/svg">
<g id="material-usage">
<g id="Group 1171275167">
<path id="Subtract" fill-rule="evenodd" clip-rule="evenodd" d="M19.8098 10.0001L9.99998 10.3168L11.4475 64.7879L41.2336 66.6928C38.5823 63.8231 36.9475 59.8927 36.9475 55.5573C36.9475 46.7701 43.6633 39.6467 51.9475 39.6467C53.0115 39.6467 54.0497 39.7642 55.051 39.9876L54.8635 10.3168L46.8774 10.6401V13.2228L33.4397 13.2228L21.4397 12.2228L19.8098 10.0001Z" fill="#2EB67D"/>
<path id="Subtract_2" fill-rule="evenodd" clip-rule="evenodd" d="M26.887 4.07675C24.9495 4.40174 22.9246 5.37671 21.5871 6.62668L20.6622 7.48915H16.9123C12.8249 7.48915 12.2624 7.55165 11.0874 8.13914C9.67495 8.85162 8.48749 10.3891 8.15 11.964C7.95 12.9015 7.95 62.5751 8.15 63.5126C8.34999 64.4376 8.92497 65.5376 9.58746 66.2375C10.2374 66.925 11.5249 67.65 12.4874 67.85C13.0981 67.9803 30.2565 68.0257 42.4011 67.9862C41.1803 66.9059 40.1257 65.6419 39.2807 64.2376H33.3868H13.2374L12.7624 63.9751C12.4999 63.8251 12.1749 63.5001 12.0249 63.2376L11.7624 62.7626V37.7383V12.714L12.0374 12.2265C12.5374 11.3391 12.9249 11.2391 15.9623 11.2391H18.5997L18.4247 12.0765C18.3247 12.5515 18.2622 13.3765 18.2872 13.9515C18.3247 15.0514 18.5247 15.4139 19.2872 15.8139C19.7872 16.0764 46.9864 16.0764 47.4864 15.8139C48.2489 15.4139 48.4489 15.0514 48.4864 13.9515C48.5114 13.3765 48.4489 12.5515 48.3489 12.0765L48.1739 11.2391H50.8113C53.8362 11.2391 54.2362 11.3391 54.7362 12.2265L55.0112 12.714V37.7383V40.1252C56.3208 40.2894 57.5811 40.6119 58.7724 41.0729C58.782 27.4087 58.7324 12.4741 58.6236 11.964C58.1736 9.85159 56.3862 8.06414 54.2862 7.62665C53.8862 7.53915 52.1363 7.48915 49.8614 7.48915H46.099L45.2615 6.68917C44.3115 5.8017 43.3615 5.18922 42.0866 4.68923C40.4491 4.02675 39.8991 3.98925 33.2868 4.00175C29.9369 4.01425 27.062 4.05175 26.887 4.07675ZM39.8741 7.92664C40.3116 8.03914 41.0241 8.30163 41.4366 8.51413C42.6865 9.17661 44.0865 10.7641 44.449 11.9515L44.524 12.239H33.3868H22.2496L22.3246 11.9515C22.5371 11.2891 23.1246 10.3766 23.8371 9.6516C24.662 8.81412 25.962 8.07664 27.0245 7.87664C27.3245 7.81414 30.1619 7.76415 33.3243 7.75165C38.0492 7.73915 39.2116 7.77665 39.8741 7.92664Z" fill="#0B2D1F"/>
<path id="Vector" d="M39.2994 23.0896C38.4619 23.3521 37.8619 24.3646 38.0244 25.252C38.1744 26.0395 38.9244 26.7145 39.6619 26.7145C39.8369 26.7145 39.9744 26.752 39.9744 26.8145C39.9744 26.8645 38.9869 27.8895 37.7869 29.0894L35.5995 31.2769L32.5621 28.2395C29.2747 24.9646 29.0872 24.8271 28.1372 25.077C27.7497 25.1895 26.9497 25.927 23.8873 28.9894C20.6624 32.2269 20.1124 32.8393 20.0374 33.2393C19.8124 34.4643 20.6249 35.4643 21.8499 35.4643C22.1374 35.4643 22.4874 35.4018 22.6374 35.3268C22.7874 35.2518 24.1873 33.9143 25.7623 32.3643L28.5997 29.5269L31.5746 32.4893C33.1996 34.1143 34.662 35.5018 34.812 35.5768C35.162 35.7518 36.037 35.7518 36.387 35.5768C36.537 35.5018 38.0119 34.0893 39.6744 32.4393L42.6868 29.4394L42.7618 29.9394C43.0493 31.6769 45.4492 32.0394 46.2617 30.4644C46.4617 30.0769 46.4742 29.7019 46.4492 27.127C46.4117 23.9396 46.3992 23.9271 45.5492 23.2896C45.2242 23.0396 45.0242 23.0271 42.4368 23.0021C40.9119 22.9896 39.4994 23.0271 39.2994 23.0896Z" fill="#0B2D1F"/>
<path id="Vector_2" d="M20.8362 42.2876C19.6988 43.0501 19.7238 44.55 20.8987 45.425C21.2362 45.6875 21.3612 45.6875 29.411 45.6875C37.4608 45.6875 37.5858 45.6875 37.9233 45.425C39.0982 44.55 39.1232 43.0501 37.9858 42.2876L37.5608 42.0001H29.411H21.2612L20.8362 42.2876Z" fill="#0B2D1F"/>
<path id="Vector_3" d="M20.8953 52.2027C20.34 52.5 20 53.1757 20 54C20 54.7568 20.204 55.2162 20.782 55.7162C21.088 56 21.2013 56 28.5 56C35.7987 56 35.912 56 36.218 55.7162C36.796 55.2162 37 54.7568 37 54C37 53.1622 36.66 52.4865 36.082 52.2027C35.538 51.9324 21.4167 51.9324 20.8953 52.2027Z" fill="#0B2D1F"/>
<g id="Group 1171275091">
<g id="Group 1171275090">
<circle id="Ellipse 2542" cx="54.5" cy="56.5" r="11.9318" fill="#62C89E" stroke="#0B2D1F" stroke-width="2.86364"/>
</g>
<g id="Group 1171275033">
<g id="Vector_4">
<mask id="path-7-outside-1_6490_46827" maskUnits="userSpaceOnUse" x="46" y="49.2979" width="15" height="15" fill="black">
<rect fill="white" x="46" y="49.2979" width="15" height="15"/>
<path d="M47.9455 53.6891C47.9455 53.6891 47.9261 53.7088 47.9195 53.7216C47.9195 53.7347 47.9195 53.7413 47.9064 53.7544C47.3324 54.7587 47 55.9129 47 57.1454C47 60.2953 49.1389 62.9497 52.0411 63.7453C52.054 63.7453 52.0606 63.7584 52.0737 63.7584C52.0933 63.7584 52.1128 63.7584 52.1324 63.765C52.6802 63.9083 53.2542 63.9932 53.8476 63.9932C57.6234 63.9932 60.6952 60.9215 60.6952 57.1454C60.6952 56.9628 60.5517 56.8193 60.3691 56.8193H55.1519C54.9693 56.8193 54.8258 56.9628 54.8258 57.1454C54.8258 57.6869 54.3888 58.1237 53.8476 58.1237C53.3061 58.1237 52.8693 57.6869 52.8693 57.1454C52.8693 56.6042 53.3061 56.1672 53.8476 56.1672C54.0302 56.1672 54.1737 56.0239 54.1737 55.8413V50.6239C54.1737 50.4413 54.0302 50.2979 53.8476 50.2979C51.3302 50.2979 49.1389 51.6675 47.9455 53.6891ZM55.4452 57.4715H60.0364C59.8669 60.7389 57.1539 63.3411 53.8476 63.3411C53.404 63.3411 52.9737 63.2954 52.5629 63.2041L53.7497 58.7628C53.7823 58.7628 53.815 58.7693 53.8476 58.7693C54.6367 58.7693 55.2954 58.2084 55.4452 57.465M53.1172 58.5933L51.9302 63.0279C49.4521 62.2193 47.652 59.8845 47.652 57.1391C47.652 56.1281 47.8998 55.176 48.3303 54.3282L52.3019 56.6239C52.2497 56.7868 52.2172 56.9563 52.2172 57.1391C52.2172 57.7782 52.5889 58.3259 53.1172 58.5933ZM53.5215 50.9566V55.5478C53.1692 55.6194 52.8628 55.8085 52.628 56.0695L48.6499 53.7738C49.6998 52.1631 51.4802 51.0675 53.5149 50.9631"/>
</mask>
<path d="M47.9455 53.6891C47.9455 53.6891 47.9261 53.7088 47.9195 53.7216C47.9195 53.7347 47.9195 53.7413 47.9064 53.7544C47.3324 54.7587 47 55.9129 47 57.1454C47 60.2953 49.1389 62.9497 52.0411 63.7453C52.054 63.7453 52.0606 63.7584 52.0737 63.7584C52.0933 63.7584 52.1128 63.7584 52.1324 63.765C52.6802 63.9083 53.2542 63.9932 53.8476 63.9932C57.6234 63.9932 60.6952 60.9215 60.6952 57.1454C60.6952 56.9628 60.5517 56.8193 60.3691 56.8193H55.1519C54.9693 56.8193 54.8258 56.9628 54.8258 57.1454C54.8258 57.6869 54.3888 58.1237 53.8476 58.1237C53.3061 58.1237 52.8693 57.6869 52.8693 57.1454C52.8693 56.6042 53.3061 56.1672 53.8476 56.1672C54.0302 56.1672 54.1737 56.0239 54.1737 55.8413V50.6239C54.1737 50.4413 54.0302 50.2979 53.8476 50.2979C51.3302 50.2979 49.1389 51.6675 47.9455 53.6891ZM55.4452 57.4715H60.0364C59.8669 60.7389 57.1539 63.3411 53.8476 63.3411C53.404 63.3411 52.9737 63.2954 52.5629 63.2041L53.7497 58.7628C53.7823 58.7628 53.815 58.7693 53.8476 58.7693C54.6367 58.7693 55.2954 58.2084 55.4452 57.465M53.1172 58.5933L51.9302 63.0279C49.4521 62.2193 47.652 59.8845 47.652 57.1391C47.652 56.1281 47.8998 55.176 48.3303 54.3282L52.3019 56.6239C52.2497 56.7868 52.2172 56.9563 52.2172 57.1391C52.2172 57.7782 52.5889 58.3259 53.1172 58.5933ZM53.5215 50.9566V55.5478C53.1692 55.6194 52.8628 55.8085 52.628 56.0695L48.6499 53.7738C49.6998 52.1631 51.4802 51.0675 53.5149 50.9631" fill="#0B2D1F"/>
<path d="M47.9455 53.6891L48.0685 53.8107L48.0836 53.7955L48.0945 53.777L47.9455 53.6891ZM47.9195 53.7216L47.7653 53.6432L47.7465 53.6802V53.7216H47.9195ZM47.9064 53.7544L47.7841 53.6321L47.7677 53.6485L47.7562 53.6686L47.9064 53.7544ZM52.0411 63.7453L51.9954 63.9122L52.0178 63.9183H52.0411V63.7453ZM52.1324 63.765L52.0776 63.9295L52.0886 63.9324L52.1324 63.765ZM60.0364 57.4715L60.2092 57.4805L60.2186 57.2985H60.0364V57.4715ZM52.5629 63.2041L52.3958 63.1595L52.3492 63.3338L52.5254 63.373L52.5629 63.2041ZM53.7497 58.7628V58.5898H53.6169L53.5826 58.7181L53.7497 58.7628ZM53.1172 58.5933L53.2843 58.638L53.3207 58.5023L53.1953 58.4389L53.1172 58.5933ZM51.9302 63.0279L51.8765 63.1923L52.0501 63.249L52.0973 63.0726L51.9302 63.0279ZM48.3303 54.3282L48.4169 54.1784L48.2588 54.087L48.1761 54.2498L48.3303 54.3282ZM52.3019 56.6239L52.4666 56.6767L52.5092 56.5439L52.3885 56.4741L52.3019 56.6239ZM53.5215 55.5478L53.556 55.7173L53.6945 55.6891V55.5478H53.5215ZM52.628 56.0695L52.5415 56.2194L52.6629 56.2894L52.7566 56.1852L52.628 56.0695ZM48.6499 53.7738L48.5049 53.6794L48.4052 53.8324L48.5634 53.9237L48.6499 53.7738ZM47.9455 53.6891C47.8225 53.5675 47.8225 53.5675 47.8225 53.5675C47.8225 53.5675 47.8225 53.5675 47.8224 53.5675C47.8224 53.5675 47.8224 53.5675 47.8224 53.5675C47.8224 53.5676 47.8223 53.5676 47.8223 53.5676C47.8223 53.5677 47.8222 53.5678 47.8221 53.5678C47.822 53.568 47.8218 53.5681 47.8216 53.5683C47.8213 53.5687 47.8208 53.5692 47.8203 53.5697C47.8193 53.5707 47.818 53.5721 47.8164 53.5738C47.8134 53.577 47.8091 53.5816 47.8045 53.587C47.7988 53.5935 47.7792 53.6158 47.7653 53.6432L48.0737 53.8001C48.0709 53.8056 48.0685 53.8094 48.0673 53.8113C48.0659 53.8133 48.065 53.8146 48.0647 53.815C48.0641 53.8157 48.0643 53.8154 48.0655 53.8141C48.0665 53.813 48.0675 53.8118 48.0683 53.811C48.0687 53.8106 48.0689 53.8103 48.069 53.8103C48.069 53.8102 48.069 53.8102 48.0689 53.8103C48.0689 53.8104 48.0688 53.8104 48.0688 53.8105C48.0687 53.8105 48.0687 53.8106 48.0686 53.8106C48.0686 53.8106 48.0686 53.8106 48.0686 53.8107C48.0686 53.8107 48.0686 53.8107 48.0685 53.8107C48.0685 53.8107 48.0685 53.8107 48.0685 53.8107C48.0685 53.8107 48.0685 53.8107 47.9455 53.6891ZM47.7465 53.7216C47.7465 53.7266 47.7464 53.7224 47.7468 53.7172C47.7474 53.7101 47.7489 53.6979 47.7537 53.6833C47.7641 53.6524 47.7813 53.6348 47.7841 53.6321L48.0287 53.8767C48.0446 53.8609 48.0684 53.8335 48.082 53.7927C48.0941 53.7564 48.0925 53.7221 48.0925 53.7216H47.7465ZM47.7562 53.6686C47.1681 54.6976 46.827 55.8813 46.827 57.1454H47.173C47.173 55.9446 47.4968 54.8197 48.0566 53.8402L47.7562 53.6686ZM46.827 57.1454C46.827 60.3756 49.0203 63.0965 51.9954 63.9122L52.0869 63.5785C49.2575 62.8028 47.173 60.215 47.173 57.1454H46.827ZM52.0411 63.9183C52.0133 63.9183 51.991 63.9109 51.9766 63.9041C51.9699 63.901 51.9651 63.8981 51.9627 63.8967C51.9607 63.8954 51.9592 63.8944 51.961 63.8956C51.9618 63.8961 51.9658 63.8989 51.9705 63.9017C51.9754 63.9048 51.9829 63.9091 51.9923 63.9134C52.0122 63.9226 52.0399 63.9314 52.0737 63.9314V63.5854C52.1009 63.5854 52.1229 63.5926 52.1374 63.5994C52.1442 63.6025 52.1491 63.6054 52.1515 63.6069C52.1537 63.6082 52.1552 63.6093 52.1536 63.6082C52.153 63.6077 52.149 63.6051 52.1445 63.6023C52.1397 63.5993 52.1323 63.595 52.123 63.5906C52.1033 63.5814 52.0754 63.5723 52.0411 63.5723V63.9183ZM52.0737 63.9314C52.0789 63.9314 52.082 63.9314 52.0847 63.9315C52.0873 63.9316 52.0884 63.9316 52.0886 63.9317C52.0888 63.9317 52.0843 63.9313 52.0777 63.9291L52.1871 63.6009C52.1368 63.5841 52.0896 63.5854 52.0737 63.5854V63.9314ZM52.0886 63.9324C52.6488 64.0789 53.2376 64.1662 53.8476 64.1662V63.8202C53.2707 63.8202 52.7115 63.7377 52.1762 63.5976L52.0886 63.9324ZM53.8476 64.1662C57.719 64.1662 60.8682 61.0171 60.8682 57.1454H60.5222C60.5222 60.826 57.5279 63.8202 53.8476 63.8202V64.1662ZM60.8682 57.1454C60.8682 56.8673 60.6472 56.6463 60.3691 56.6463V56.9923C60.4561 56.9923 60.5222 57.0584 60.5222 57.1454H60.8682ZM60.3691 56.6463H55.1519V56.9923H60.3691V56.6463ZM55.1519 56.6463C54.8738 56.6463 54.6528 56.8673 54.6528 57.1454H54.9988C54.9988 57.0584 55.0649 56.9923 55.1519 56.9923V56.6463ZM54.6528 57.1454C54.6528 57.5913 54.2933 57.9507 53.8476 57.9507V58.2967C54.4843 58.2967 54.9988 57.7824 54.9988 57.1454H54.6528ZM53.8476 57.9507C53.4017 57.9507 53.0423 57.5913 53.0423 57.1454H52.6963C52.6963 57.7824 53.2106 58.2967 53.8476 58.2967V57.9507ZM53.0423 57.1454C53.0423 56.6997 53.4017 56.3402 53.8476 56.3402V55.9942C53.2106 55.9942 52.6963 56.5087 52.6963 57.1454H53.0423ZM53.8476 56.3402C54.1256 56.3402 54.3467 56.1196 54.3467 55.8413H54.0007C54.0007 55.9282 53.9348 55.9942 53.8476 55.9942V56.3402ZM54.3467 55.8413V50.6239H54.0007V55.8413H54.3467ZM54.3467 50.6239C54.3467 50.3458 54.1257 50.1249 53.8476 50.1249V50.4708C53.9346 50.4708 54.0007 50.5369 54.0007 50.6239H54.3467ZM53.8476 50.1249C51.2656 50.1249 49.0193 51.5298 47.7965 53.6012L48.0945 53.777C49.2585 51.8052 51.3948 50.4708 53.8476 50.4708V50.1249ZM55.4452 57.6445H60.0364V57.2985H55.4452V57.6445ZM59.8637 57.4626C59.6989 60.6384 57.0614 63.1681 53.8476 63.1681V63.5141C57.2463 63.5141 60.035 60.8395 60.2092 57.4805L59.8637 57.4626ZM53.8476 63.1681C53.4158 63.1681 52.9982 63.1236 52.6004 63.0352L52.5254 63.373C52.9492 63.4672 53.3921 63.5141 53.8476 63.5141V63.1681ZM52.73 63.2488L53.9169 58.8074L53.5826 58.7181L52.3958 63.1595L52.73 63.2488ZM53.7497 58.9358C53.7559 58.9358 53.7636 58.9364 53.7814 58.9382C53.7962 58.9397 53.8212 58.9423 53.8476 58.9423V58.5963C53.8414 58.5963 53.8338 58.5957 53.8159 58.5939C53.8011 58.5924 53.7761 58.5898 53.7497 58.5898V58.9358ZM53.8476 58.9423C54.7205 58.9423 55.449 58.3219 55.6148 57.4991L55.2757 57.4308C55.1418 58.0949 54.5529 58.5963 53.8476 58.5963V58.9423ZM52.9501 58.5485L51.763 62.9831L52.0973 63.0726L53.2843 58.638L52.9501 58.5485ZM51.9838 62.8634C49.5745 62.0773 47.825 59.8071 47.825 57.1391H47.479C47.479 59.9619 49.3296 62.3613 51.8765 63.1923L51.9838 62.8634ZM47.825 57.1391C47.825 56.1568 48.0657 55.2315 48.4846 54.4065L48.1761 54.2498C47.734 55.1206 47.479 56.0994 47.479 57.1391H47.825ZM48.2438 54.4779L52.2153 56.7736L52.3885 56.4741L48.4169 54.1784L48.2438 54.4779ZM52.1371 56.5711C52.0806 56.7477 52.0442 56.9351 52.0442 57.1391H52.3901C52.3901 56.9775 52.4188 56.8259 52.4666 56.6767L52.1371 56.5711ZM52.0442 57.1391C52.0442 57.8473 52.4562 58.4527 53.0391 58.7476L53.1953 58.4389C52.7216 58.1992 52.3901 57.709 52.3901 57.1391H52.0442ZM53.3485 50.9566V55.5478H53.6945V50.9566H53.3485ZM53.487 55.3782C53.0948 55.458 52.7564 55.6681 52.4994 55.9538L52.7566 56.1852C52.9692 55.949 53.2436 55.7808 53.556 55.7173L53.487 55.3782ZM52.7144 55.9197L48.7363 53.624L48.5634 53.9237L52.5415 56.2194L52.7144 55.9197ZM48.7948 53.8683C49.8158 52.3019 51.5467 51.2373 53.5238 51.1359L53.5061 50.7904C51.4137 50.8977 49.5837 52.0243 48.5049 53.6794L48.7948 53.8683Z" fill="#0B2D1F" mask="url(#path-7-outside-1_6490_46827)"/>
</g>
<g id="Vector_5">
<mask id="path-9-outside-2_6490_46827" maskUnits="userSpaceOnUse" x="53.8281" y="48" width="9" height="9" fill="black">
<rect fill="white" x="53.8281" y="48" width="9" height="9"/>
<path d="M54.8281 49.3195V54.5369C54.8281 54.7195 54.9716 54.863 55.1542 54.863C55.6954 54.863 56.1325 55.2998 56.1325 55.8412C56.1325 56.0238 56.2757 56.1671 56.4586 56.1671H61.6757C61.8583 56.1671 62.0018 56.0238 62.0018 55.8412C62.0018 54.4913 61.6104 53.1869 60.8669 52.0652C60.7693 51.9151 60.5605 51.876 60.417 51.9739C60.267 52.0717 60.2279 52.2737 60.3257 52.4238C60.9388 53.3498 61.2843 54.4063 61.3431 55.5152H56.7519C56.6215 54.8759 56.1194 54.3738 55.4803 54.2434V49.6522C56.6018 49.7109 57.6845 50.0696 58.6171 50.7021C58.7671 50.8065 58.9692 50.7674 59.067 50.6173C59.1649 50.4673 59.1323 50.2652 58.9823 50.1674C57.8476 49.4043 56.5302 49 55.1542 49C54.9716 49 54.8281 49.1435 54.8281 49.3261"/>
</mask>
<path d="M54.8281 49.3195V54.5369C54.8281 54.7195 54.9716 54.863 55.1542 54.863C55.6954 54.863 56.1325 55.2998 56.1325 55.8412C56.1325 56.0238 56.2757 56.1671 56.4586 56.1671H61.6757C61.8583 56.1671 62.0018 56.0238 62.0018 55.8412C62.0018 54.4913 61.6104 53.1869 60.8669 52.0652C60.7693 51.9151 60.5605 51.876 60.417 51.9739C60.267 52.0717 60.2279 52.2737 60.3257 52.4238C60.9388 53.3498 61.2843 54.4063 61.3431 55.5152H56.7519C56.6215 54.8759 56.1194 54.3738 55.4803 54.2434V49.6522C56.6018 49.7109 57.6845 50.0696 58.6171 50.7021C58.7671 50.8065 58.9692 50.7674 59.067 50.6173C59.1649 50.4673 59.1323 50.2652 58.9823 50.1674C57.8476 49.4043 56.5302 49 55.1542 49C54.9716 49 54.8281 49.1435 54.8281 49.3261" fill="#0B2D1F"/>
<path d="M60.8669 52.0652L60.7219 52.1595L60.7227 52.1607L60.8669 52.0652ZM60.417 51.9739L60.5115 52.1188L60.5145 52.1168L60.417 51.9739ZM60.3257 52.4238L60.1808 52.5183L60.1815 52.5193L60.3257 52.4238ZM61.3431 55.5152V55.6882H61.5255L61.5158 55.506L61.3431 55.5152ZM56.7519 55.5152L56.5824 55.5497L56.6106 55.6882H56.7519V55.5152ZM55.4803 54.2434H55.3073V54.3846L55.4457 54.4129L55.4803 54.2434ZM55.4803 49.6522L55.4893 49.4794L55.3073 49.4699V49.6522H55.4803ZM58.6171 50.7021L58.7159 50.56L58.7142 50.5589L58.6171 50.7021ZM59.067 50.6173L58.9221 50.5228L59.067 50.6173ZM58.9823 50.1674L58.8857 50.311L58.8878 50.3123L58.9823 50.1674ZM54.6551 49.3195V54.5369H55.0011V49.3195H54.6551ZM54.6551 54.5369C54.6551 54.815 54.8761 55.036 55.1542 55.036V54.69C55.0672 54.69 55.0011 54.6239 55.0011 54.5369H54.6551ZM55.1542 55.036C55.5999 55.036 55.9595 55.3954 55.9595 55.8412H56.3055C56.3055 55.2042 55.7909 54.69 55.1542 54.69V55.036ZM55.9595 55.8412C55.9595 56.1195 56.1803 56.3401 56.4586 56.3401V55.9941C56.3712 55.9941 56.3055 55.9282 56.3055 55.8412H55.9595ZM56.4586 56.3401H61.6757V55.9941H56.4586V56.3401ZM61.6757 56.3401C61.9537 56.3401 62.1748 56.1195 62.1748 55.8412H61.8288C61.8288 55.9281 61.7629 55.9941 61.6757 55.9941V56.3401ZM62.1748 55.8412C62.1748 54.4575 61.7735 53.1198 61.0111 51.9696L60.7227 52.1607C61.4473 53.254 61.8288 54.5251 61.8288 55.8412H62.1748ZM61.0119 51.9708C60.861 51.7388 60.5426 51.6789 60.3195 51.8309L60.5145 52.1168C60.5785 52.0732 60.6776 52.0914 60.7219 52.1595L61.0119 51.9708ZM60.3225 51.829C60.0897 51.9808 60.0326 52.291 60.1808 52.5183L60.4706 52.3293C60.4231 52.2565 60.4442 52.1626 60.5115 52.1188L60.3225 51.829ZM60.1815 52.5193C60.7773 53.4193 61.1132 54.4459 61.1703 55.5243L61.5158 55.506C61.4555 54.3667 61.1003 53.2804 60.47 52.3283L60.1815 52.5193ZM61.3431 55.3422H56.7519V55.6882H61.3431V55.3422ZM56.9214 55.4806C56.7771 54.7734 56.2219 54.2181 55.5149 54.0739L55.4457 54.4129C56.0168 54.5294 56.4658 54.9784 56.5824 55.5497L56.9214 55.4806ZM55.6533 54.2434V49.6522H55.3073V54.2434H55.6533ZM55.4712 49.8249C56.5618 49.8821 57.6139 50.2307 58.52 50.8452L58.7142 50.5589C57.7551 49.9084 56.6419 49.5398 55.4893 49.4794L55.4712 49.8249ZM58.5183 50.8441C58.7471 51.0033 59.0599 50.9449 59.2119 50.7118L58.9221 50.5228C58.8784 50.5898 58.7872 50.6096 58.7159 50.5601L58.5183 50.8441ZM59.2119 50.7118C59.3566 50.4899 59.3148 50.1777 59.0768 50.0225L58.8878 50.3123C58.9498 50.3528 58.9731 50.4446 58.9221 50.5228L59.2119 50.7118ZM59.0788 50.0238C57.9157 49.2416 56.5647 48.827 55.1542 48.827V49.173C56.4957 49.173 57.7795 49.567 58.8857 50.311L59.0788 50.0238ZM55.1542 48.827C54.8761 48.827 54.6551 49.048 54.6551 49.3261H55.0011C55.0011 49.239 55.0672 49.173 55.1542 49.173V48.827Z" fill="#0B2D1F" mask="url(#path-9-outside-2_6490_46827)"/>
</g>
</g>
</g>
</g>
</g>
</svg>
