<svg width="72" height="72" viewBox="0 0 72 72" fill="none" xmlns="http://www.w3.org/2000/svg">
<g id="progress-history">
<path id="Subtract" fill-rule="evenodd" clip-rule="evenodd" d="M57 5H8V61H42V41C42 39.8954 42.8954 39 44 39H57V5Z" fill="#2EB67D"/>
<path id="Vector" d="M9 4C7.89543 4 7 4.89543 7 6V60.6667C7 61.7712 7.89543 62.6667 9 62.6667H40.3333C41.0697 62.6667 41.6667 62.0697 41.6667 61.3333V61.3333C41.6667 60.597 41.0697 60 40.3333 60H11.6667C10.5621 60 9.66667 59.1046 9.66667 58V8.66666C9.66667 7.5621 10.5621 6.66667 11.6667 6.66667H53C54.1046 6.66667 55 7.5621 55 8.66667V37.3333C55 38.0697 55.597 38.6667 56.3333 38.6667V38.6667C57.0697 38.6667 57.6667 38.0697 57.6667 37.3333V6C57.6667 4.89543 56.7712 4 55.6667 4H9ZM19 16C18.2636 16 17.6667 16.597 17.6667 17.3333V17.3333C17.6667 18.0697 18.2636 18.6667 19 18.6667H45.6667C46.403 18.6667 47 18.0697 47 17.3333V17.3333C47 16.597 46.403 16 45.6667 16H19ZM19 33.3333C18.2636 33.3333 17.6667 33.9303 17.6667 34.6667V34.6667C17.6667 35.403 18.2636 36 19 36H21.6667C22.403 36 23 35.403 23 34.6667V34.6667C23 33.9303 22.403 33.3333 21.6667 33.3333H19ZM28.3333 33.3333C27.597 33.3333 27 33.9303 27 34.6667V34.6667C27 35.403 27.597 36 28.3333 36H45.6667C46.403 36 47 35.403 47 34.6667V34.6667C47 33.9303 46.403 33.3333 45.6667 33.3333H28.3333ZM19 41.3333C18.2636 41.3333 17.6667 41.9303 17.6667 42.6667V42.6667C17.6667 43.403 18.2636 44 19 44H21.6667C22.403 44 23 43.403 23 42.6667V42.6667C23 41.9303 22.403 41.3333 21.6667 41.3333H19ZM28.3333 41.3333C27.597 41.3333 27 41.9303 27 42.6667V42.6667C27 43.403 27.597 44 28.3333 44H37.8823C38.5449 44 39 43.3292 39 42.6667V42.6667V42.6667C39 42.0041 38.5449 41.3333 37.8823 41.3333H28.3333ZM45 42.3333C44.1979 42.3333 43.6667 42.8646 43.6667 43.6667C43.6667 44.4688 44.1979 45 45 45V45C45.7364 45 46.3333 45.597 46.3333 46.3333V49C46.3333 50.8646 47.2656 52.599 48.8698 53.9323L49.1544 54.164C50.1178 54.9484 50.1405 56.412 49.2019 57.2259L49 57.401C47.2656 58.7344 46.3333 60.3333 46.3333 62.3333V65C46.3333 65.7364 45.7364 66.3333 45 66.3333V66.3333C44.1979 66.3333 43.6667 66.8646 43.6667 67.6667C43.6667 68.4688 44.1979 69 45 69H66.3333C67.1354 69 67.6667 68.4688 67.6667 67.6667C67.6667 66.8646 67.1354 66.3333 66.2031 66.3333V66.3333C65.5387 66.3333 65 65.7947 65 65.1302V62.3333C65 60.4688 64.1979 58.7344 62.4635 57.401L62.2059 57.1777C61.2864 56.3802 61.2864 54.9531 62.2059 54.1557L62.4635 53.9323C64.1979 52.599 65 50.8646 65 49V46.3333C65 45.597 65.597 45 66.3333 45V45C67.1354 45 67.6667 44.4688 67.6667 43.6667C67.6667 42.8646 67.1354 42.3333 66.3333 42.3333H45ZM49 47C49 45.8954 49.8954 45 51 45H60.3333C61.4379 45 62.3333 45.8954 62.3333 47V49C62.3333 50.0677 61.9323 51 60.8698 51.9323L57.6667 54.599C57.2656 54.8646 57.1302 55.2656 57.1302 55.6667C57.1302 55.9299 57.1885 56.1909 57.342 56.3775C57.5091 56.5805 57.7685 56.6881 57.9664 56.8612L60.8698 59.401C61.9323 60.3333 62.3333 61.1354 62.3333 62.3333V65C62.3333 65.7364 61.7364 66.3333 61 66.3333V66.3333C60.2636 66.3333 59.6676 65.7185 59.382 65.0398C58.8365 63.7432 57.6186 62.5553 56.7253 61.8081C56.1059 61.2901 55.2274 61.2901 54.6081 61.8081C53.7148 62.5553 52.4969 63.7432 51.9513 65.0398C51.6657 65.7185 51.0697 66.3333 50.3333 66.3333V66.3333C49.597 66.3333 49 65.7364 49 65V62.3333C49 61.1354 49.5313 60.3333 50.599 59.401L53.7969 56.7344C54.1979 56.4688 54.3333 56.0677 54.3333 55.6667C54.3333 55.4037 54.2751 55.1431 54.122 54.9565C53.9549 54.7529 53.6949 54.645 53.4967 54.4714L50.599 51.9323C49.5313 51 49 50.0677 49 49V47ZM53.6667 49C52.5621 49 51.6401 49.9727 52.2929 50.8638C53.0843 51.944 54.431 52.5613 55.1607 52.8326C55.4885 52.9545 55.8448 52.9545 56.1727 52.8326C56.9023 52.5613 58.249 51.944 59.0404 50.8638C59.6932 49.9727 58.7712 49 57.6667 49H53.6667ZM19 49.3333C18.2636 49.3333 17.6667 49.9303 17.6667 50.6667V50.6667C17.6667 51.403 18.2636 52 19 52H21.6667C22.403 52 23 51.403 23 50.6667V50.6667C23 49.9303 22.403 49.3333 21.6667 49.3333H19ZM28.3333 49.3333C27.597 49.3333 27 49.9303 27 50.6667V50.6667C27 51.403 27.597 52 28.3333 52H37.3675C38.2143 52 38.7642 51.0747 38.5355 50.2595V50.2595C38.387 49.7302 37.9283 49.3333 37.3787 49.3333H28.3333Z" fill="#0B2D1F"/>
</g>
</svg>
