<svg width="72" height="72" viewBox="0 0 72 72" fill="none" xmlns="http://www.w3.org/2000/svg">
<g id="project-scope">
<g id="Group">
<path id="Vector 59" d="M11.957 11.2554H18.5531V14.5534H45.597V11.2554H50.8738L52.193 59.4067H11.957V11.2554Z" fill="#36C5F0" stroke="#36C5F0" stroke-width="0.944262"/>
<path id="Vector" d="M25.519 4.07037C23.7219 4.37182 21.8436 5.27618 20.603 6.43561L19.7451 7.23562H16.2668C12.4754 7.23562 11.9537 7.29359 10.8638 7.83853C9.55364 8.4994 8.45218 9.92551 8.13913 11.3864C7.95362 12.256 7.95362 58.3318 8.13913 59.2014C8.32464 60.0594 8.85798 61.0797 9.47248 61.729C10.0754 62.3667 11.2696 63.0391 12.1624 63.2246C13.0319 63.4101 50.0642 63.4101 50.9338 63.2246C52.9048 62.8072 54.5396 61.1608 54.957 59.2014C55.1425 58.3202 55.1425 12.256 54.957 11.3864C54.5396 9.42695 52.8816 7.76896 50.9338 7.36316C50.5628 7.282 48.9396 7.23562 46.8294 7.23562H43.3395L42.5627 6.49359C41.6815 5.67039 40.8004 5.10227 39.6177 4.63849C38.0989 4.02399 37.5887 3.98921 31.4553 4.0008C28.348 4.0124 25.6814 4.04718 25.519 4.07037ZM37.5655 7.64142C37.9713 7.74577 38.6322 7.98925 39.0148 8.18636C40.1743 8.80086 41.4728 10.2733 41.8091 11.3748L41.8786 11.6415H31.5481H21.2175L21.2871 11.3748C21.4842 10.7603 22.0291 9.91391 22.69 9.24144C23.4552 8.46462 24.661 7.78056 25.6466 7.59505C25.9248 7.53708 28.5567 7.4907 31.4901 7.4791C35.8728 7.46751 36.951 7.50229 37.5655 7.64142ZM17.6697 11.4907C17.5769 11.9313 17.5189 12.6966 17.5421 13.2299C17.5769 14.2502 17.7624 14.5864 18.4697 14.9574C18.9335 15.2009 44.1627 15.2009 44.6265 14.9574C45.3337 14.5864 45.5192 14.2502 45.554 13.2299C45.5772 12.6966 45.5192 11.9313 45.4265 11.4907L45.2642 10.7139H47.7106C50.5164 10.7139 50.8874 10.8067 51.3512 11.6299L51.6063 12.0821V35.2939V58.5057L51.3628 58.9463C51.2237 59.1898 50.9222 59.4913 50.6787 59.6304L50.2381 59.8739H31.5481H12.858L12.4174 59.6304C12.174 59.4913 11.8725 59.1898 11.7334 58.9463L11.4899 58.5057V35.2939V12.0821L11.745 11.6299C12.2087 10.8067 12.5682 10.7139 15.3856 10.7139H17.832L17.6697 11.4907Z" fill="#0D313B"/>
<path id="Vector_2" d="M23.5466 36.4073C23.3263 36.5001 22.5263 37.1841 21.7843 37.9262L20.4278 39.2711L19.9524 38.8421C19.6857 38.6102 19.3495 38.3668 19.1872 38.3088C17.7611 37.7639 16.335 39.3059 17.0074 40.6624C17.2625 41.1726 19.106 43.0277 19.6277 43.306C20.1727 43.5842 20.6596 43.5842 21.2046 43.306C21.4365 43.1784 22.5495 42.1581 23.6742 41.0103C25.309 39.3639 25.7496 38.8537 25.8539 38.4827C26.0974 37.6015 25.5524 36.5696 24.7293 36.3378C24.1727 36.187 24.0336 36.1986 23.5466 36.4073Z" fill="#0D313B"/>
<path id="Vector_3" d="M29.4475 38.4591C28.3924 39.1664 28.4156 40.5577 29.5055 41.3693C29.8186 41.6128 29.9345 41.6128 37.4012 41.6128C44.868 41.6128 44.9839 41.6128 45.297 41.3693C46.3868 40.5577 46.41 39.1664 45.355 38.4591L44.9607 38.1925H37.4012H29.8417L29.4475 38.4591Z" fill="#0D313B"/>
<path id="Vector_4" d="M23.5466 24.5777C23.3263 24.6705 22.5263 25.3546 21.7843 26.0966L20.4278 27.4415L19.9524 27.0125C19.6857 26.7807 19.3495 26.5372 19.1872 26.4792C17.7611 25.9343 16.335 27.4763 17.0074 28.8329C17.2625 29.343 19.106 31.1981 19.6277 31.4764C20.1727 31.7546 20.6596 31.7546 21.2046 31.4764C21.4365 31.3488 22.5495 30.3285 23.6742 29.1807C25.309 27.5343 25.7496 27.0241 25.8539 26.6531C26.0974 25.772 25.5524 24.7401 24.7293 24.5082C24.1727 24.3574 24.0336 24.369 23.5466 24.5777Z" fill="#0D313B"/>
<path id="Vector_5" d="M29.4475 26.6295C28.3924 27.3368 28.4156 28.7281 29.5055 29.5397C29.8186 29.7832 29.9345 29.7832 37.4012 29.7832C44.868 29.7832 44.9839 29.7832 45.297 29.5397C46.3868 28.7281 46.41 27.3368 45.355 26.6295L44.9607 26.3629H37.4012H29.8417L29.4475 26.6295Z" fill="#0D313B"/>
<path id="Vector_6" d="M24.0691 48.1064C24.0112 48.1296 23.8025 48.176 23.6169 48.2224C23.3967 48.2688 22.7706 48.7905 21.8546 49.6949L20.4285 51.0978L19.9995 50.7152C19.5242 50.2978 18.9328 50.0195 18.5386 50.0195C18.0517 50.0195 17.3444 50.4601 17.0777 50.9355C16.5328 51.9094 16.7647 52.4775 18.3647 54.0543C19.6401 55.3065 19.9531 55.4688 20.8575 55.2949C21.2169 55.2254 21.6227 54.8775 23.4083 53.1152C24.5793 51.9558 25.6228 50.8427 25.7155 50.6572C26.1213 49.892 25.8315 48.7905 25.1126 48.3847C24.7416 48.176 24.2546 48.0485 24.0691 48.1064Z" fill="#0D313B"/>
<path id="Vector_7" d="M29.623 50.181C29.0549 50.436 28.707 51.0158 28.707 51.723C28.707 52.3723 28.9157 52.7665 29.507 53.1955C29.8201 53.439 29.936 53.439 37.4028 53.439C44.8695 53.439 44.9855 53.439 45.2985 53.1955C45.8898 52.7665 46.0985 52.3723 46.0985 51.723C46.0985 51.0042 45.7507 50.4244 45.1594 50.181C44.6029 49.9491 30.1563 49.9491 29.623 50.181Z" fill="#0D313B"/>
<g id="Group 1171275273">
<circle id="Ellipse 2648" cx="52.5238" cy="55.9437" r="10.5511" fill="#36C5F0"/>
<g id="Group_2">
<path id="Vector_8" d="M51.2464 43.9183C48.9243 44.2009 46.7871 45.0742 45.0096 46.4767C44.5421 46.8415 43.4324 47.9512 43.0677 48.4187C41.7936 50.0369 40.9048 52.0662 40.5863 54.0955C40.4681 54.8404 40.427 56.3405 40.5041 57.0957C40.7404 59.3921 41.5624 61.4676 42.9906 63.3633C43.3913 63.8924 44.578 65.0792 45.1072 65.4799C46.8128 66.7642 48.6571 67.5605 50.7069 67.8842C51.5084 68.0126 53.0342 68.0383 53.8767 67.9407C56.1474 67.6787 58.0534 66.903 59.9542 65.4748C60.4834 65.0843 61.6701 63.8924 62.0708 63.3633C63.3654 61.6423 64.1617 59.798 64.4854 57.7276C64.6138 56.9107 64.6138 54.9688 64.4854 54.152C64.1617 52.0816 63.3654 50.2373 62.0708 48.5163C61.6701 47.9871 60.4834 46.8004 59.9542 46.3997C58.2383 45.1051 56.3991 44.3139 54.3545 43.9902C53.7483 43.8926 51.8217 43.8515 51.2464 43.9183ZM53.9178 46.2096C57.7349 46.7644 60.9046 49.5129 61.9578 53.1707C62.2712 54.2496 62.3174 54.6041 62.3174 55.9398C62.3174 57.2755 62.2712 57.63 61.9578 58.7088C61.6444 59.798 61.0844 60.9128 60.3652 61.8735C59.9696 62.4026 58.9935 63.3787 58.4644 63.7743C56.0293 65.5981 52.9674 66.2043 50.0391 65.4491C46.2426 64.4627 43.3656 61.2364 42.7954 57.3217C42.6926 56.6076 42.6926 55.2668 42.7954 54.5578C43.5814 49.1739 48.5698 45.4338 53.9178 46.2096Z" fill="#0D313B"/>
</g>
</g>
</g>
<path id="Vector_9" d="M47.5 49C46.6775 49 46 49.6775 46 50.5V59.1667C46.0007 59.1922 46.0033 59.2177 46.0078 59.2428C46.0488 60.0299 46.7035 60.6667 47.5 60.6667H56.8333C57.6558 60.6667 58.3333 59.9892 58.3333 59.1667V52.5C58.3333 51.6775 57.6558 51 56.8333 51H49V49.8333C49 49.3788 48.6212 49 48.1667 49H47.5ZM47.5 50H48V51.418C47.9912 51.4716 47.9912 51.5264 48 51.5801V57.6667H47.5C47.3231 57.6667 47.1582 57.7115 47 57.7689V50.5C47 50.2178 47.2178 50 47.5 50ZM49 52H56.8333C57.1155 52 57.3333 52.2178 57.3333 52.5V59.1667C57.3333 59.4488 57.1155 59.6667 56.8333 59.6667H47.5C47.2178 59.6667 47 59.4488 47 59.1667C47 58.8845 47.2178 58.6667 47.5 58.6667H48.1667C48.6212 58.6667 49 58.2879 49 57.8333V52ZM59 52.7585V59.1667C59 60.3613 58.028 61.3333 56.8333 61.3333H47.7585C47.9655 61.914 48.5157 62.3333 49.1667 62.3333H56.8333C58.5793 62.3333 60 60.9127 60 59.1667V54.1667C60 53.5157 59.5807 52.9658 59 52.7585ZM55.4902 53.3288C55.4724 53.3293 55.4546 53.3309 55.4368 53.3333H54.1667C54.1004 53.3324 54.0346 53.3446 53.9731 53.3693C53.9117 53.3941 53.8557 53.4307 53.8085 53.4773C53.7613 53.5238 53.7239 53.5792 53.6983 53.6403C53.6727 53.7015 53.6595 53.7671 53.6595 53.8333C53.6595 53.8996 53.6727 53.9652 53.6983 54.0263C53.7239 54.0875 53.7613 54.1429 53.8085 54.1894C53.8557 54.2359 53.9117 54.2726 53.9731 54.2973C54.0346 54.322 54.1004 54.3343 54.1667 54.3333H54.293L53.5 55.1263L52.5202 54.1465C52.4264 54.0528 52.2993 54.0001 52.1667 54.0001C52.0341 54.0001 51.9069 54.0528 51.8132 54.1465L50.4798 55.4798C50.4318 55.5259 50.3935 55.5811 50.3671 55.6421C50.3407 55.7032 50.3268 55.7689 50.3261 55.8354C50.3254 55.902 50.338 55.9679 50.3632 56.0295C50.3883 56.0911 50.4255 56.1471 50.4726 56.1941C50.5196 56.2412 50.5755 56.2783 50.6371 56.3035C50.6987 56.3286 50.7647 56.3412 50.8312 56.3406C50.8977 56.3399 50.9635 56.3259 51.0245 56.2995C51.0856 56.2732 51.1408 56.2348 51.1868 56.1869L52.1667 55.207L53.1465 56.1869C53.2403 56.2806 53.3674 56.3332 53.5 56.3332C53.6326 56.3332 53.7597 56.2806 53.8535 56.1869L55 55.0404V55.1667C54.9991 55.2329 55.0113 55.2987 55.036 55.3602C55.0607 55.4217 55.0974 55.4776 55.1439 55.5248C55.1904 55.572 55.2459 55.6095 55.307 55.635C55.3681 55.6606 55.4337 55.6738 55.5 55.6738C55.5663 55.6738 55.6319 55.6606 55.693 55.635C55.7541 55.6095 55.8096 55.572 55.8561 55.5248C55.9026 55.4776 55.9393 55.4217 55.964 55.3602C55.9887 55.2987 56.0009 55.2329 56 55.1667V53.8913C56.009 53.8197 56.0025 53.7471 55.9808 53.6783C55.9591 53.6096 55.9228 53.5463 55.8744 53.4928C55.826 53.4394 55.7666 53.3971 55.7003 53.3688C55.634 53.3405 55.5623 53.3268 55.4902 53.3288V53.3288ZM50.8333 57.3333C50.7671 57.3324 50.7013 57.3446 50.6398 57.3694C50.5783 57.3941 50.5224 57.4307 50.4752 57.4773C50.428 57.5238 50.3905 57.5792 50.365 57.6403C50.3394 57.7015 50.3262 57.7671 50.3262 57.8333C50.3262 57.8996 50.3394 57.9652 50.365 58.0263C50.3905 58.0875 50.428 58.1429 50.4752 58.1894C50.5224 58.2359 50.5783 58.2726 50.6398 58.2973C50.7013 58.322 50.7671 58.3343 50.8333 58.3333H55.5C55.5663 58.3343 55.632 58.322 55.6935 58.2973C55.755 58.2726 55.811 58.2359 55.8582 58.1894C55.9053 58.1429 55.9428 58.0875 55.9684 58.0263C55.994 57.9652 56.0071 57.8996 56.0071 57.8333C56.0071 57.7671 55.994 57.7015 55.9684 57.6403C55.9428 57.5792 55.9053 57.5238 55.8582 57.4773C55.811 57.4307 55.755 57.3941 55.6935 57.3694C55.632 57.3446 55.5663 57.3324 55.5 57.3333H50.8333Z" fill="#0D313B"/>
</g>
</svg>
