<svg width="72" height="72" viewBox="0 0 72 72" fill="none" xmlns="http://www.w3.org/2000/svg">
<g id="project-template">
<g id="Group 1171275550">
<g id="Vector">
<path d="M10.8571 6C7.09714 6 4 9.09714 4 12.8571V52.4762C4.00299 52.593 4.01493 52.7095 4.03571 52.8244C4.22325 56.4224 7.21618 59.3334 10.8571 59.3334H53.5238C57.2838 59.3334 60.381 56.2362 60.381 52.4762V22C60.381 18.24 57.2838 15.1429 53.5238 15.1429H17.7143V9.80953C17.7143 7.73167 15.9826 6 13.9048 6H10.8571ZM10.8571 10.5714H13.1429V17.0536C13.1026 17.299 13.1026 17.5493 13.1429 17.7947V45.6191H10.8571C10.0486 45.6191 9.29445 45.8241 8.57143 46.0863V12.8571C8.57143 11.5672 9.56724 10.5714 10.8571 10.5714ZM17.7143 19.7143H53.5238C54.8137 19.7143 55.8095 20.7101 55.8095 22V52.4762C55.8095 53.7661 54.8137 54.7619 53.5238 54.7619H10.8571C9.56724 54.7619 8.57143 53.7661 8.57143 52.4762C8.57143 51.1863 9.56724 50.1905 10.8571 50.1905H13.9048C15.9826 50.1905 17.7143 48.4588 17.7143 46.381V19.7143ZM63.4286 23.1816V52.4762C63.4286 57.9376 58.9851 62.381 53.5238 62.381H12.0387C12.985 65.0355 15.5002 66.9524 18.4762 66.9524H53.5238C61.5055 66.9524 68 60.4579 68 52.4762V29.6191C68 26.6431 66.083 24.1294 63.4286 23.1816Z" fill="#0D313B"/>
<path d="M17.7143 19.7143H53.5238C54.8137 19.7143 55.8095 20.7101 55.8095 22V52.4762C55.8095 53.7661 54.8137 54.7619 53.5238 54.7619H10.8571C9.56724 54.7619 8.57143 53.7661 8.57143 52.4762C8.57143 51.1863 9.56724 50.1905 10.8571 50.1905H13.9048C15.9826 50.1905 17.7143 48.4588 17.7143 46.381V19.7143Z" fill="#2894B4"/>
<path d="M10.8571 10.5714H13.1429V17.0536C13.1026 17.299 13.1026 17.5493 13.1429 17.7947V45.6191H10.8571C10.0486 45.6191 9.29445 45.8241 8.57143 46.0863V12.8571C8.57143 11.5672 9.56724 10.5714 10.8571 10.5714Z" fill="#2894B4"/>
</g>
<g id="Group 1171275549">
<g id="Vector_2">
<mask id="path-2-outside-1_6490_46402" maskUnits="userSpaceOnUse" x="29.6836" y="41.8965" width="23" height="4" fill="black">
<rect fill="white" x="29.6836" y="41.8965" width="23" height="4"/>
<path d="M40.8425 44.3628C37.8523 44.3628 34.8608 44.3628 31.8705 44.3628C31.6722 44.3628 31.4726 44.3692 31.2768 44.3474C30.8764 44.3013 30.6985 44.0518 30.6844 43.6616C30.6691 43.2611 30.8648 43.018 31.2423 42.9374C31.4329 42.8964 31.6364 42.9131 31.8334 42.9131C37.8344 42.9118 43.8366 42.9118 49.8375 42.9131C50.055 42.9131 50.3301 42.8529 50.4747 42.9617C50.6986 43.128 50.9327 43.398 50.9788 43.6565C51.0415 44.0096 50.8189 44.3039 50.4081 44.3461C50.2124 44.3666 50.0128 44.3628 49.8144 44.3628C46.8242 44.3628 43.834 44.3628 40.8425 44.3628Z"/>
</mask>
<path d="M40.8425 44.3628C37.8523 44.3628 34.8608 44.3628 31.8705 44.3628C31.6722 44.3628 31.4726 44.3692 31.2768 44.3474C30.8764 44.3013 30.6985 44.0518 30.6844 43.6616C30.6691 43.2611 30.8648 43.018 31.2423 42.9374C31.4329 42.8964 31.6364 42.9131 31.8334 42.9131C37.8344 42.9118 43.8366 42.9118 49.8375 42.9131C50.055 42.9131 50.3301 42.8529 50.4747 42.9617C50.6986 43.128 50.9327 43.398 50.9788 43.6565C51.0415 44.0096 50.8189 44.3039 50.4081 44.3461C50.2124 44.3666 50.0128 44.3628 49.8144 44.3628C46.8242 44.3628 43.834 44.3628 40.8425 44.3628Z" fill="#0D313B"/>
<path d="M40.8425 44.3628C37.8523 44.3628 34.8608 44.3628 31.8705 44.3628C31.6722 44.3628 31.4726 44.3692 31.2768 44.3474C30.8764 44.3013 30.6985 44.0518 30.6844 43.6616C30.6691 43.2611 30.8648 43.018 31.2423 42.9374C31.4329 42.8964 31.6364 42.9131 31.8334 42.9131C37.8344 42.9118 43.8366 42.9118 49.8375 42.9131C50.055 42.9131 50.3301 42.8529 50.4747 42.9617C50.6986 43.128 50.9327 43.398 50.9788 43.6565C51.0415 44.0096 50.8189 44.3039 50.4081 44.3461C50.2124 44.3666 50.0128 44.3628 49.8144 44.3628C46.8242 44.3628 43.834 44.3628 40.8425 44.3628Z" stroke="#0D313B" stroke-width="1.6" mask="url(#path-2-outside-1_6490_46402)"/>
</g>
<g id="Vector_3">
<mask id="path-3-outside-2_6490_46402" maskUnits="userSpaceOnUse" x="29.6914" y="26.5767" width="23" height="4" fill="black">
<rect fill="white" x="29.6914" y="26.5767" width="23" height="4"/>
<path d="M40.8619 28.9134C37.8704 28.9134 34.8802 28.9134 31.8887 28.9134C31.6904 28.9134 31.4511 28.9748 31.304 28.8853C31.066 28.7394 30.7755 28.5232 30.7116 28.2826C30.6105 27.9039 30.9035 27.6672 31.2809 27.5994C31.4345 27.5725 31.597 27.584 31.7556 27.584C37.8167 27.584 43.8778 27.5827 49.9401 27.5853C50.1359 27.5853 50.3892 27.5431 50.5159 27.6454C50.7219 27.8105 50.9624 28.0766 50.9688 28.3057C50.9739 28.4937 50.6912 28.7458 50.4775 28.8674C50.3099 28.9633 50.0527 28.9134 49.8352 28.9134C46.8437 28.9147 43.8534 28.9134 40.8619 28.9134Z"/>
</mask>
<path d="M40.8619 28.9134C37.8704 28.9134 34.8802 28.9134 31.8887 28.9134C31.6904 28.9134 31.4511 28.9748 31.304 28.8853C31.066 28.7394 30.7755 28.5232 30.7116 28.2826C30.6105 27.9039 30.9035 27.6672 31.2809 27.5994C31.4345 27.5725 31.597 27.584 31.7556 27.584C37.8167 27.584 43.8778 27.5827 49.9401 27.5853C50.1359 27.5853 50.3892 27.5431 50.5159 27.6454C50.7219 27.8105 50.9624 28.0766 50.9688 28.3057C50.9739 28.4937 50.6912 28.7458 50.4775 28.8674C50.3099 28.9633 50.0527 28.9134 49.8352 28.9134C46.8437 28.9147 43.8534 28.9134 40.8619 28.9134Z" fill="#0D313B"/>
<path d="M40.8619 28.9134C37.8704 28.9134 34.8802 28.9134 31.8887 28.9134C31.6904 28.9134 31.4511 28.9748 31.304 28.8853C31.066 28.7394 30.7755 28.5232 30.7116 28.2826C30.6105 27.9039 30.9035 27.6672 31.2809 27.5994C31.4345 27.5725 31.597 27.584 31.7556 27.584C37.8167 27.584 43.8778 27.5827 49.9401 27.5853C50.1359 27.5853 50.3892 27.5431 50.5159 27.6454C50.7219 27.8105 50.9624 28.0766 50.9688 28.3057C50.9739 28.4937 50.6912 28.7458 50.4775 28.8674C50.3099 28.9633 50.0527 28.9134 49.8352 28.9134C46.8437 28.9147 43.8534 28.9134 40.8619 28.9134Z" stroke="#0D313B" stroke-width="1.6" mask="url(#path-3-outside-2_6490_46402)"/>
</g>
<g id="Vector_4">
<mask id="path-4-outside-3_6490_46402" maskUnits="userSpaceOnUse" x="29.7227" y="34.3369" width="23" height="4" fill="black">
<rect fill="white" x="29.7227" y="34.3369" width="23" height="4"/>
<path d="M40.7965 36.6818C37.8255 36.6818 34.8531 36.6818 31.8821 36.6805C31.6646 36.6805 31.4049 36.7343 31.2398 36.637C31.0172 36.5039 30.7306 36.2544 30.7229 36.0446C30.7139 35.8309 30.9788 35.5686 31.1822 35.3972C31.2923 35.305 31.5239 35.346 31.7004 35.346C37.8011 35.3434 43.9031 35.3434 50.0039 35.346C50.1804 35.346 50.4056 35.314 50.5221 35.4061C50.7191 35.5622 50.9865 35.8194 50.9686 36.01C50.9469 36.2365 50.6884 36.4899 50.4683 36.6306C50.3097 36.733 50.0448 36.6805 49.8286 36.6805C46.8179 36.6831 43.8072 36.6818 40.7965 36.6818Z"/>
</mask>
<path d="M40.7965 36.6818C37.8255 36.6818 34.8531 36.6818 31.8821 36.6805C31.6646 36.6805 31.4049 36.7343 31.2398 36.637C31.0172 36.5039 30.7306 36.2544 30.7229 36.0446C30.7139 35.8309 30.9788 35.5686 31.1822 35.3972C31.2923 35.305 31.5239 35.346 31.7004 35.346C37.8011 35.3434 43.9031 35.3434 50.0039 35.346C50.1804 35.346 50.4056 35.314 50.5221 35.4061C50.7191 35.5622 50.9865 35.8194 50.9686 36.01C50.9469 36.2365 50.6884 36.4899 50.4683 36.6306C50.3097 36.733 50.0448 36.6805 49.8286 36.6805C46.8179 36.6831 43.8072 36.6818 40.7965 36.6818Z" fill="#0D313B"/>
<path d="M40.7965 36.6818C37.8255 36.6818 34.8531 36.6818 31.8821 36.6805C31.6646 36.6805 31.4049 36.7343 31.2398 36.637C31.0172 36.5039 30.7306 36.2544 30.7229 36.0446C30.7139 35.8309 30.9788 35.5686 31.1822 35.3972C31.2923 35.305 31.5239 35.346 31.7004 35.346C37.8011 35.3434 43.9031 35.3434 50.0039 35.346C50.1804 35.346 50.4056 35.314 50.5221 35.4061C50.7191 35.5622 50.9865 35.8194 50.9686 36.01C50.9469 36.2365 50.6884 36.4899 50.4683 36.6306C50.3097 36.733 50.0448 36.6805 49.8286 36.6805C46.8179 36.6831 43.8072 36.6818 40.7965 36.6818Z" stroke="#0D313B" stroke-width="1.6" mask="url(#path-4-outside-3_6490_46402)"/>
</g>
<g id="Vector_5">
<mask id="path-5-outside-4_6490_46402" maskUnits="userSpaceOnUse" x="21" y="40.3193" width="8" height="7" fill="black">
<rect fill="white" x="21" y="40.3193" width="8" height="7"/>
<path d="M23.8346 44.0668C24.6881 43.3414 25.5428 42.6159 26.3937 41.8878C26.528 41.7727 26.6381 41.6281 26.7762 41.5168C27.0782 41.2737 27.4608 41.2238 27.6617 41.5462C27.8011 41.7701 27.8357 42.2614 27.686 42.4278C26.6764 43.5589 25.6106 44.6413 24.5499 45.7238C24.2134 46.068 23.8449 46.0219 23.5084 45.6867C23.1028 45.2811 22.6946 44.8793 22.2928 44.4699C21.955 44.1244 21.8808 43.7227 22.2225 43.3631C22.5961 42.9716 22.9774 43.1354 23.2947 43.4847C23.5404 43.7559 23.7707 44.0425 24.0087 44.3227C23.9511 44.2383 23.8935 44.1526 23.8346 44.0668Z"/>
</mask>
<path d="M23.8346 44.0668C24.6881 43.3414 25.5428 42.6159 26.3937 41.8878C26.528 41.7727 26.6381 41.6281 26.7762 41.5168C27.0782 41.2737 27.4608 41.2238 27.6617 41.5462C27.8011 41.7701 27.8357 42.2614 27.686 42.4278C26.6764 43.5589 25.6106 44.6413 24.5499 45.7238C24.2134 46.068 23.8449 46.0219 23.5084 45.6867C23.1028 45.2811 22.6946 44.8793 22.2928 44.4699C21.955 44.1244 21.8808 43.7227 22.2225 43.3631C22.5961 42.9716 22.9774 43.1354 23.2947 43.4847C23.5404 43.7559 23.7707 44.0425 24.0087 44.3227C23.9511 44.2383 23.8935 44.1526 23.8346 44.0668Z" fill="#0D313B"/>
<path d="M23.8346 44.0668C24.6881 43.3414 25.5428 42.6159 26.3937 41.8878C26.528 41.7727 26.6381 41.6281 26.7762 41.5168C27.0782 41.2737 27.4608 41.2238 27.6617 41.5462C27.8011 41.7701 27.8357 42.2614 27.686 42.4278C26.6764 43.5589 25.6106 44.6413 24.5499 45.7238C24.2134 46.068 23.8449 46.0219 23.5084 45.6867C23.1028 45.2811 22.6946 44.8793 22.2928 44.4699C21.955 44.1244 21.8808 43.7227 22.2225 43.3631C22.5961 42.9716 22.9774 43.1354 23.2947 43.4847C23.5404 43.7559 23.7707 44.0425 24.0087 44.3227C23.9511 44.2383 23.8935 44.1526 23.8346 44.0668Z" stroke="#0D313B" stroke-width="1.6" mask="url(#path-5-outside-4_6490_46402)"/>
</g>
<g id="Vector_6">
<mask id="path-6-outside-5_6490_46402" maskUnits="userSpaceOnUse" x="21.0098" y="25" width="8" height="7" fill="black">
<rect fill="white" x="21.0098" y="25" width="8" height="7"/>
<path d="M23.9637 28.9941C24.8939 28.0626 25.7051 27.2552 26.5087 26.4414C26.8478 26.0972 27.1945 25.785 27.6743 26.1945C28.0211 26.4913 27.9213 26.9046 27.4325 27.41C26.5279 28.3466 25.6373 29.2947 24.7276 30.2262C24.194 30.7726 23.9151 30.7751 23.3892 30.2339C22.9644 29.7976 22.555 29.3446 22.1686 28.8738C21.9165 28.5667 21.9741 28.2302 22.2735 27.9781C22.5793 27.7197 22.9107 27.767 23.1755 28.0472C23.4468 28.3325 23.6822 28.6511 23.9637 28.9941Z"/>
</mask>
<path d="M23.9637 28.9941C24.8939 28.0626 25.7051 27.2552 26.5087 26.4414C26.8478 26.0972 27.1945 25.785 27.6743 26.1945C28.0211 26.4913 27.9213 26.9046 27.4325 27.41C26.5279 28.3466 25.6373 29.2947 24.7276 30.2262C24.194 30.7726 23.9151 30.7751 23.3892 30.2339C22.9644 29.7976 22.555 29.3446 22.1686 28.8738C21.9165 28.5667 21.9741 28.2302 22.2735 27.9781C22.5793 27.7197 22.9107 27.767 23.1755 28.0472C23.4468 28.3325 23.6822 28.6511 23.9637 28.9941Z" fill="#0D313B"/>
<path d="M23.9637 28.9941C24.8939 28.0626 25.7051 27.2552 26.5087 26.4414C26.8478 26.0972 27.1945 25.785 27.6743 26.1945C28.0211 26.4913 27.9213 26.9046 27.4325 27.41C26.5279 28.3466 25.6373 29.2947 24.7276 30.2262C24.194 30.7726 23.9151 30.7751 23.3892 30.2339C22.9644 29.7976 22.555 29.3446 22.1686 28.8738C21.9165 28.5667 21.9741 28.2302 22.2735 27.9781C22.5793 27.7197 22.9107 27.767 23.1755 28.0472C23.4468 28.3325 23.6822 28.6511 23.9637 28.9941Z" stroke="#0D313B" stroke-width="1.6" mask="url(#path-6-outside-5_6490_46402)"/>
</g>
<g id="Vector_7">
<mask id="path-7-outside-6_6490_46402" maskUnits="userSpaceOnUse" x="21.0156" y="32.6377" width="8" height="7" fill="black">
<rect fill="white" x="21.0156" y="32.6377" width="8" height="7"/>
<path d="M24.0116 36.7484C24.9239 35.7773 25.7338 34.9161 26.5425 34.0525C26.8649 33.7083 27.2308 33.4383 27.662 33.8337C28.0817 34.2175 27.8783 34.6756 27.5814 34.9942C26.545 36.1074 25.4779 37.1937 24.3852 38.2518C24.2662 38.367 23.8197 38.326 23.6661 38.193C23.1761 37.7682 22.7577 37.2628 22.3034 36.7957C22.0002 36.4848 21.8876 36.1432 22.2088 35.8028C22.5517 35.4395 22.9227 35.5277 23.2413 35.8643C23.4857 36.1253 23.7096 36.4017 24.0116 36.7484Z"/>
</mask>
<path d="M24.0116 36.7484C24.9239 35.7773 25.7338 34.9161 26.5425 34.0525C26.8649 33.7083 27.2308 33.4383 27.662 33.8337C28.0817 34.2175 27.8783 34.6756 27.5814 34.9942C26.545 36.1074 25.4779 37.1937 24.3852 38.2518C24.2662 38.367 23.8197 38.326 23.6661 38.193C23.1761 37.7682 22.7577 37.2628 22.3034 36.7957C22.0002 36.4848 21.8876 36.1432 22.2088 35.8028C22.5517 35.4395 22.9227 35.5277 23.2413 35.8643C23.4857 36.1253 23.7096 36.4017 24.0116 36.7484Z" fill="#0D313B"/>
<path d="M24.0116 36.7484C24.9239 35.7773 25.7338 34.9161 26.5425 34.0525C26.8649 33.7083 27.2308 33.4383 27.662 33.8337C28.0817 34.2175 27.8783 34.6756 27.5814 34.9942C26.545 36.1074 25.4779 37.1937 24.3852 38.2518C24.2662 38.367 23.8197 38.326 23.6661 38.193C23.1761 37.7682 22.7577 37.2628 22.3034 36.7957C22.0002 36.4848 21.8876 36.1432 22.2088 35.8028C22.5517 35.4395 22.9227 35.5277 23.2413 35.8643C23.4857 36.1253 23.7096 36.4017 24.0116 36.7484Z" stroke="#0D313B" stroke-width="1.6" mask="url(#path-7-outside-6_6490_46402)"/>
</g>
</g>
</g>
</g>
</svg>
