<svg width="72" height="72" viewBox="0 0 72 72" fill="none" xmlns="http://www.w3.org/2000/svg">
<g id="reporting">
<path id="Vector 482" d="M43.5 5.5H28.5L23 13H49.5L43.5 5.5Z" fill="#E60000"/>
<g id="Group">
<path id="Vector" d="M29.887 4.07675C27.9495 4.40174 25.9246 5.37672 24.5871 6.62668L23.6622 7.48916H19.9123C15.8249 7.48916 15.2624 7.55165 14.0874 8.13914C12.675 8.85162 11.4875 10.3891 11.15 11.964C10.95 12.9015 10.95 62.5751 11.15 63.5126C11.35 64.4376 11.925 65.5376 12.5875 66.2375C13.2374 66.925 14.5249 67.65 15.4874 67.85C16.4249 68.05 56.3488 68.05 57.2862 67.85C59.4112 67.4 61.1736 65.6251 61.6236 63.5126C61.8236 62.5626 61.8236 12.9015 61.6236 11.964C61.1736 9.85159 59.3862 8.06414 57.2862 7.62666C56.8862 7.53916 55.1363 7.48916 52.8614 7.48916H49.099L48.2615 6.68918C47.3115 5.8017 46.3615 5.18922 45.0866 4.68924C43.4491 4.02675 42.8991 3.98926 36.2868 4.00175C32.9369 4.01425 30.062 4.05175 29.887 4.07675ZM42.8741 7.92665C43.3116 8.03914 44.0241 8.30164 44.4366 8.51413C45.6865 9.17661 47.0865 10.7641 47.449 11.9515L47.524 12.239H36.3868H25.2496L25.3246 11.9515C25.5371 11.2891 26.1246 10.3766 26.8371 9.6516C27.662 8.81412 28.962 8.07664 30.0245 7.87665C30.3245 7.81415 33.1619 7.76415 36.3243 7.75165C41.0492 7.73915 42.2116 7.77665 42.8741 7.92665ZM21.4247 12.0765C21.3247 12.5515 21.2622 13.3765 21.2872 13.9515C21.3247 15.0515 21.5247 15.4139 22.2872 15.8139C22.7872 16.0764 49.9864 16.0764 50.4864 15.8139C51.2489 15.4139 51.4489 15.0515 51.4864 13.9515C51.5114 13.3765 51.4489 12.5515 51.3489 12.0765L51.1739 11.2391H53.8113C56.8362 11.2391 57.2362 11.3391 57.7362 12.2265L58.0112 12.714V37.7383V62.7626L57.7487 63.2376C57.5987 63.5001 57.2737 63.8251 57.0112 63.9751L56.5362 64.2376H36.3868H16.2374L15.7624 63.9751C15.4999 63.8251 15.1749 63.5001 15.0249 63.2376L14.7624 62.7626V37.7383V12.714L15.0374 12.2265C15.5374 11.3391 15.9249 11.2391 18.9623 11.2391H21.5997L21.4247 12.0765Z" fill="#4D0000"/>
<path id="Vector_2" d="M42.337 21.989C41.4995 22.2515 40.8995 23.264 41.062 24.1515C41.212 24.9389 41.962 25.6139 42.6995 25.6139C42.8745 25.6139 43.012 25.6514 43.012 25.7139C43.012 25.7639 42.0245 26.7889 40.8245 27.9889L38.6371 30.1763L35.5997 27.1389C32.3123 23.864 32.1248 23.7265 31.1748 23.9765C30.7873 24.089 29.9873 24.8264 26.9249 27.8889C23.7 31.1263 23.15 31.7388 23.075 32.1387C22.85 33.3637 23.6625 34.3637 24.8875 34.3637C25.175 34.3637 25.525 34.3012 25.675 34.2262C25.825 34.1512 27.2249 32.8137 28.7999 31.2638L31.6373 28.4263L34.6122 31.3888C36.2372 33.0137 37.6996 34.4012 37.8496 34.4762C38.1996 34.6512 39.0746 34.6512 39.4246 34.4762C39.5746 34.4012 41.0495 32.9887 42.712 31.3388L45.7244 28.3388L45.7994 28.8388C46.0869 30.5763 48.4868 30.9388 49.2993 29.3638C49.4993 28.9763 49.5118 28.6013 49.4868 26.0264C49.4493 22.839 49.4368 22.8265 48.5868 22.189C48.2618 21.939 48.0618 21.9265 45.4744 21.9015C43.9495 21.889 42.537 21.9265 42.337 21.989Z" fill="#4D0000"/>
<path id="Vector_3" d="M27.7625 40.9383C27.525 41.0383 26.6625 41.7758 25.8626 42.5758L24.4001 44.0257L23.8876 43.5632C23.6001 43.3132 23.2376 43.0507 23.0626 42.9882C21.5252 42.4008 19.9877 44.0632 20.7127 45.5257C20.9877 46.0757 22.9752 48.0756 23.5376 48.3756C24.1251 48.6756 24.6501 48.6756 25.2376 48.3756C25.4876 48.2381 26.6875 47.1381 27.9 45.9007C29.6625 44.1257 30.1375 43.5757 30.25 43.1757C30.5124 42.2258 29.925 41.1133 29.0375 40.8633C28.4375 40.7008 28.2875 40.7133 27.7625 40.9383Z" fill="#4D0000"/>
<path id="Vector_4" d="M34.1238 43.1509C32.9864 43.9134 33.0114 45.4133 34.1863 46.2883C34.5238 46.5508 34.6488 46.5508 42.6986 46.5508C50.7484 46.5508 50.8734 46.5508 51.2109 46.2883C52.3858 45.4133 52.4108 43.9134 51.2733 43.1509L50.8484 42.8634H42.6986H34.5488L34.1238 43.1509Z" fill="#4D0000"/>
<path id="Vector_5" d="M28.3247 51.5509C28.2622 51.5759 28.0372 51.6259 27.8372 51.6759C27.5997 51.7258 26.9248 52.2883 25.9373 53.2633L24.3998 54.7758L23.9373 54.3633C23.4249 53.9133 22.7874 53.6133 22.3624 53.6133C21.8374 53.6133 21.0749 54.0883 20.7874 54.6008C20.1999 55.6507 20.4499 56.2632 22.1749 57.9632C23.5498 59.3131 23.8873 59.4881 24.8623 59.3006C25.2498 59.2256 25.6873 58.8507 27.6122 56.9507C28.8747 55.7007 29.9997 54.5008 30.0997 54.3008C30.5372 53.4758 30.2247 52.2883 29.4497 51.8508C29.0497 51.6259 28.5247 51.4884 28.3247 51.5509Z" fill="#4D0000"/>
<path id="Vector_6" d="M34.3127 53.7884C33.7002 54.0634 33.3252 54.6884 33.3252 55.4508C33.3252 56.1508 33.5502 56.5758 34.1877 57.0383C34.5252 57.3008 34.6502 57.3008 42.6999 57.3008C50.7497 57.3008 50.8747 57.3008 51.2122 57.0383C51.8497 56.5758 52.0747 56.1508 52.0747 55.4508C52.0747 54.6759 51.6997 54.0509 51.0622 53.7884C50.4622 53.5384 34.8877 53.5384 34.3127 53.7884Z" fill="#4D0000"/>
</g>
</g>
</svg>
