<svg width="72" height="72" viewBox="0 0 72 72" fill="none" xmlns="http://www.w3.org/2000/svg">
<g id="stage">
<g id="Group 1171275517">
<g id="Group 1171275300">
<g id="Group">
<g id="Vector">
<path d="M46.4377 5.31372H42.0366V4.65818C42.0366 4.5713 42.0199 4.48793 41.9875 4.40807C41.955 4.32821 41.9085 4.25713 41.8471 4.1957C41.7865 4.13339 41.7163 4.086 41.6364 4.05178C41.5575 4.01843 41.4741 4.00088 41.3872 4H30.7282C30.6404 4 30.557 4.01667 30.4763 4.05002C30.3956 4.08337 30.3245 4.13076 30.263 4.19307C30.2016 4.25449 30.1542 4.32558 30.1209 4.40631C30.0884 4.48705 30.0717 4.57042 30.0717 4.65818V5.31372H25.6777C25.59 5.31372 25.5066 5.3304 25.4258 5.36374C25.3451 5.39709 25.274 5.44536 25.2126 5.50679C25.1503 5.56822 25.1029 5.6393 25.0696 5.72004C25.0362 5.80077 25.0195 5.88502 25.0195 5.9719V19.3733C25.0195 19.461 25.0362 19.5444 25.0696 19.6251C25.1029 19.7059 25.1503 19.7769 25.2126 19.8384C25.274 19.9007 25.3451 19.9481 25.4258 19.9814C25.5066 20.0148 25.59 20.0314 25.6777 20.0314H31.8436L28.8256 25.0818C28.7808 25.1564 28.7527 25.2372 28.7396 25.3232C28.7273 25.4101 28.7317 25.4952 28.7536 25.5794C28.7747 25.6637 28.8115 25.7409 28.8633 25.8111C28.9151 25.8804 28.9792 25.9375 29.0537 25.9822C29.1283 26.027 29.2091 26.0559 29.2951 26.0682C29.3811 26.0805 29.4671 26.0761 29.5513 26.0551C29.6356 26.034 29.7128 25.9972 29.7821 25.9445C29.8523 25.8927 29.9094 25.8295 29.9541 25.7549L33.3741 20.0314H38.7413L42.1612 25.7549C42.206 25.8295 42.263 25.8927 42.3332 25.9454C42.4026 25.9972 42.4798 26.034 42.564 26.0551C42.6492 26.077 42.7343 26.0814 42.8203 26.0682C42.9063 26.0559 42.987 26.0279 43.0625 25.9831C43.1371 25.9384 43.2003 25.8813 43.2529 25.8111C43.3047 25.7409 43.3416 25.6637 43.3626 25.5794C43.3837 25.4952 43.3881 25.4101 43.3758 25.3232C43.3635 25.2372 43.3345 25.1564 43.2898 25.0818L40.2718 20.0314H46.4377C46.5254 20.0314 46.6088 20.0148 46.6895 19.9814C46.7703 19.9481 46.8413 19.9007 46.9036 19.8384C46.9651 19.7769 47.0125 19.7059 47.0458 19.6251C47.0792 19.5444 47.0958 19.461 47.0958 19.3733V5.9719C47.0958 5.88502 47.0792 5.80077 47.0458 5.72004C47.0125 5.6393 46.9651 5.56822 46.9036 5.50679C46.8413 5.44536 46.7703 5.39709 46.6895 5.36374C46.6088 5.3304 46.5254 5.31372 46.4377 5.31372ZM31.3934 5.9719V5.31372H40.722V6.89071H31.3934V5.9719ZM45.7821 18.7133H26.3333V6.62832H30.0788V7.54714C30.0788 7.63314 30.0954 7.71651 30.1279 7.79724C30.1604 7.8771 30.2078 7.94818 30.2683 8.00961C30.3289 8.07104 30.3991 8.11843 30.4789 8.15266C30.5579 8.18688 30.6413 8.20356 30.7282 8.20531H41.3872C41.475 8.20531 41.5583 8.18864 41.6391 8.15529C41.7189 8.12194 41.79 8.07455 41.8514 8.01312C41.9129 7.95082 41.9603 7.88061 41.9936 7.79988C42.027 7.71914 42.0436 7.63577 42.0436 7.54889V6.63008H45.7891L45.7821 18.7133Z" fill="#0D313B"/>
<path d="M45.7821 18.7133H26.3333V6.62832H30.0788V7.54714C30.0788 7.63314 30.0954 7.71651 30.1279 7.79724C30.1604 7.8771 30.2078 7.94818 30.2683 8.00961C30.3289 8.07104 30.3991 8.11843 30.4789 8.15266C30.5579 8.18688 30.6413 8.20356 30.7282 8.20531H41.3872C41.475 8.20531 41.5583 8.18864 41.6391 8.15529C41.7189 8.12194 41.79 8.07455 41.8514 8.01312C41.9129 7.95082 41.9603 7.88061 41.9936 7.79988C42.027 7.71914 42.0436 7.63577 42.0436 7.54889V6.63008H45.7891L45.7821 18.7133Z" fill="#2894B4"/>
<path d="M42.0366 5.31372H41.7366V5.61372H42.0366V5.31372ZM41.9875 4.40807L41.7096 4.52107V4.52107L41.9875 4.40807ZM41.8471 4.1957L41.6319 4.4048L41.6349 4.40783L41.8471 4.1957ZM41.6364 4.05178L41.7546 3.77603L41.7531 3.7754L41.6364 4.05178ZM41.3872 4L41.3902 3.7H41.3872V4ZM30.263 4.19307L30.4752 4.4052L30.4767 4.40369L30.263 4.19307ZM30.1209 4.40631L29.8436 4.29178L29.8425 4.29437L30.1209 4.40631ZM30.0717 5.31372V5.61372H30.3717V5.31372H30.0717ZM25.4258 5.36374L25.3113 5.08646L25.3113 5.08646L25.4258 5.36374ZM25.2126 5.50679L25.4232 5.72042L25.4247 5.71892L25.2126 5.50679ZM25.0696 5.72004L25.3468 5.83457L25.3468 5.83456L25.0696 5.72004ZM25.0696 19.6251L25.3468 19.5106L25.3468 19.5106L25.0696 19.6251ZM25.2126 19.8384L25.4262 19.6277L25.4232 19.6247L25.2126 19.8384ZM25.4258 19.9814L25.3113 20.2587H25.3113L25.4258 19.9814ZM31.8436 20.0314L32.1011 20.1853L32.3723 19.7314H31.8436V20.0314ZM28.8256 25.0818L29.0828 25.2362L29.0831 25.2357L28.8256 25.0818ZM28.7396 25.3232L28.443 25.2778L28.4425 25.2812L28.7396 25.3232ZM28.7536 25.5794L29.0447 25.5067L29.0439 25.5038L28.7536 25.5794ZM28.8633 25.8111L28.6219 25.9892L28.623 25.9906L28.8633 25.8111ZM29.0537 25.9822L29.2081 25.725L29.0537 25.9822ZM29.2951 26.0682L29.2527 26.3652H29.2527L29.2951 26.0682ZM29.7821 25.9445L29.6041 25.703L29.6007 25.7056L29.7821 25.9445ZM29.9541 25.7549L30.2114 25.9093L30.2117 25.9088L29.9541 25.7549ZM33.3741 20.0314V19.7314H33.2038L33.1165 19.8776L33.3741 20.0314ZM38.7413 20.0314L38.9988 19.8776L38.9115 19.7314H38.7413V20.0314ZM42.1612 25.7549L41.9037 25.9088L41.904 25.9093L42.1612 25.7549ZM42.3332 25.9454L42.1532 26.1854L42.1537 26.1857L42.3332 25.9454ZM42.564 26.0551L42.6389 25.7646L42.6368 25.764L42.564 26.0551ZM42.8203 26.0682L42.7779 25.7712L42.7749 25.7717L42.8203 26.0682ZM43.0625 25.9831L43.2155 26.2412L43.2168 26.2404L43.0625 25.9831ZM43.2529 25.8111L43.4929 25.9911L43.4944 25.9892L43.2529 25.8111ZM43.3758 25.3232L43.6728 25.2812L43.6728 25.2808L43.3758 25.3232ZM43.2898 25.0818L43.0323 25.2357L43.0325 25.2362L43.2898 25.0818ZM40.2718 20.0314V19.7314H39.743L40.0143 20.1853L40.2718 20.0314ZM46.6895 19.9814L46.804 20.2587L46.6895 19.9814ZM46.9036 19.8384L47.1158 20.0505L46.9036 19.8384ZM47.0458 19.6251L46.7685 19.5106V19.5106L47.0458 19.6251ZM47.0458 5.72004L46.7685 5.83456V5.83457L47.0458 5.72004ZM46.9036 5.50679L47.1158 5.29465L47.1143 5.29315L46.9036 5.50679ZM46.6895 5.36374L46.804 5.08646V5.08646L46.6895 5.36374ZM31.3934 5.31372V5.01372H31.0934V5.31372H31.3934ZM40.722 5.31372H41.022V5.01372H40.722V5.31372ZM40.722 6.89071V7.19071H41.022V6.89071H40.722ZM31.3934 6.89071H31.0934V7.19071H31.3934V6.89071ZM45.7821 18.7133V19.0133H46.0819L46.0821 18.7135L45.7821 18.7133ZM26.3333 18.7133H26.0333V19.0133H26.3333V18.7133ZM26.3333 6.62832V6.32832H26.0333V6.62832H26.3333ZM30.0788 6.62832H30.3788V6.32832H30.0788V6.62832ZM30.1279 7.79724L29.8496 7.90918L29.85 7.91024L30.1279 7.79724ZM30.2683 8.00961L30.482 7.79901L30.482 7.79901L30.2683 8.00961ZM30.4789 8.15266L30.5982 7.87739L30.5971 7.87691L30.4789 8.15266ZM30.7282 8.20531L30.7221 8.50531H30.7282V8.20531ZM41.6391 8.15529L41.7536 8.43257L41.7547 8.43212L41.6391 8.15529ZM41.8514 8.01312L42.0636 8.22526L42.0651 8.22375L41.8514 8.01312ZM42.0436 6.63008V6.33008H41.7436V6.63008H42.0436ZM45.7891 6.63008L46.0891 6.63025L46.0893 6.33008H45.7891V6.63008ZM46.4377 5.01372H42.0366V5.61372H46.4377V5.01372ZM42.3366 5.31372V4.65818H41.7366V5.31372H42.3366ZM42.3366 4.65818C42.3366 4.53184 42.3122 4.41014 42.2654 4.29507L41.7096 4.52107C41.7277 4.56571 41.7366 4.61076 41.7366 4.65818H42.3366ZM42.2654 4.29507C42.2182 4.17917 42.1497 4.07412 42.0592 3.98357L41.6349 4.40783C41.6672 4.44014 41.6917 4.47725 41.7096 4.52107L42.2654 4.29507ZM42.0622 3.98662C41.9728 3.89468 41.8693 3.82517 41.7546 3.77603L41.5183 4.32752C41.5633 4.34683 41.6002 4.37211 41.6319 4.40478L42.0622 3.98662ZM41.7531 3.7754C41.6384 3.72697 41.5165 3.70129 41.3902 3.70002L41.3842 4.29998C41.4317 4.30046 41.4765 4.30989 41.5197 4.32815L41.7531 3.7754ZM41.3872 3.7H30.7282V4.3H41.3872V3.7ZM30.7282 3.7C30.6009 3.7 30.4786 3.72448 30.3618 3.77274L30.5908 4.3273C30.6354 4.30887 30.6799 4.3 30.7282 4.3V3.7ZM30.3618 3.77274C30.2446 3.82114 30.1396 3.89093 30.0494 3.98244L30.4767 4.40369C30.5093 4.37058 30.5465 4.3456 30.5908 4.3273L30.3618 3.77274ZM30.0509 3.98093C29.9614 4.07045 29.8919 4.17475 29.8436 4.29179L30.3982 4.52084C30.4165 4.47641 30.4418 4.43854 30.4752 4.4052L30.0509 3.98093ZM29.8425 4.29437C29.7962 4.40968 29.7717 4.53098 29.7717 4.65818H30.3717C30.3717 4.60986 30.3806 4.56443 30.3992 4.51825L29.8425 4.29437ZM29.7717 4.65818V5.31372H30.3717V4.65818H29.7717ZM30.0717 5.01372H25.6777V5.61372H30.0717V5.01372ZM25.6777 5.01372C25.5504 5.01372 25.4282 5.0382 25.3113 5.08646L25.5404 5.64102C25.585 5.62259 25.6295 5.61372 25.6777 5.61372V5.01372ZM25.3113 5.08646C25.1927 5.13546 25.0887 5.20638 25.0005 5.29465L25.4247 5.71892C25.4593 5.68434 25.4975 5.65872 25.5404 5.64102L25.3113 5.08646ZM25.002 5.29315C24.9105 5.38338 24.8407 5.48835 24.7923 5.60551L25.3468 5.83456C25.3651 5.79025 25.3901 5.75306 25.4232 5.72042L25.002 5.29315ZM24.7923 5.60551C24.7439 5.72255 24.7195 5.84571 24.7195 5.9719H25.3195C25.3195 5.92433 25.3285 5.879 25.3468 5.83457L24.7923 5.60551ZM24.7195 5.9719V19.3733H25.3195V5.9719H24.7195ZM24.7195 19.3733C24.7195 19.5005 24.744 19.6228 24.7923 19.7397L25.3468 19.5106C25.3284 19.466 25.3195 19.4215 25.3195 19.3733H24.7195ZM24.7923 19.7397C24.8407 19.8568 24.9105 19.9618 25.002 20.052L25.4232 19.6247C25.3901 19.5921 25.3651 19.5549 25.3468 19.5106L24.7923 19.7397ZM24.999 20.049C25.0892 20.1405 25.1942 20.2103 25.3113 20.2587L25.5404 19.7041C25.4961 19.6858 25.4589 19.6609 25.4262 19.6277L24.999 20.049ZM25.3113 20.2587C25.4282 20.307 25.5504 20.3314 25.6777 20.3314V19.7314C25.6295 19.7314 25.585 19.7226 25.5404 19.7041L25.3113 20.2587ZM25.6777 20.3314H31.8436V19.7314H25.6777V20.3314ZM31.586 19.8775L28.5681 24.928L29.0831 25.2357L32.1011 20.1853L31.586 19.8775ZM28.5683 24.9275C28.5023 25.0375 28.4617 25.1556 28.443 25.2778L29.0361 25.3686C29.0437 25.3188 29.0593 25.2754 29.0828 25.2362L28.5683 24.9275ZM28.4425 25.2812C28.4249 25.406 28.431 25.5312 28.4633 25.655L29.0439 25.5038C29.0323 25.4592 29.0297 25.4141 29.0366 25.3652L28.4425 25.2812ZM28.4626 25.6522C28.4934 25.7755 28.5475 25.8884 28.6219 25.9892L29.1048 25.633C29.0756 25.5934 29.0559 25.5518 29.0447 25.5067L28.4626 25.6522ZM28.623 25.9906C28.699 26.0925 28.7928 26.1755 28.8994 26.2395L29.2081 25.725C29.1656 25.6995 29.1312 25.6684 29.1037 25.6316L28.623 25.9906ZM28.8994 26.2395C29.0077 26.3045 29.1264 26.3472 29.2527 26.3652L29.3375 25.7712C29.2918 25.7647 29.249 25.7495 29.2081 25.725L28.8994 26.2395ZM29.2527 26.3652C29.377 26.383 29.5021 26.3766 29.6241 26.3461L29.4786 25.764C29.4321 25.7756 29.3852 25.7781 29.3375 25.7712L29.2527 26.3652ZM29.6241 26.3461C29.7474 26.3153 29.8617 26.2608 29.9636 26.1834L29.6007 25.7056C29.564 25.7335 29.5238 25.7527 29.4786 25.764L29.6241 26.3461ZM29.9602 26.1859C30.0628 26.1103 30.1466 26.0173 30.2114 25.9093L29.6969 25.6006C29.6722 25.6418 29.6419 25.6752 29.6041 25.7031L29.9602 26.1859ZM30.2117 25.9088L33.6316 20.1853L33.1165 19.8776L29.6966 25.6011L30.2117 25.9088ZM33.3741 20.3314H38.7413V19.7314H33.3741V20.3314ZM38.4838 20.1853L41.9037 25.9088L42.4188 25.6011L38.9988 19.8776L38.4838 20.1853ZM41.904 25.9093C41.9688 26.0174 42.0522 26.1096 42.1532 26.1854L42.5132 25.7054C42.4738 25.6758 42.4431 25.6417 42.4185 25.6006L41.904 25.9093ZM42.1537 26.1857C42.2546 26.2611 42.3681 26.3153 42.4913 26.3461L42.6368 25.764C42.5915 25.7527 42.5505 25.7332 42.5127 25.705L42.1537 26.1857ZM42.4892 26.3456C42.6131 26.3775 42.7391 26.3842 42.8657 26.3648L42.7749 25.7717C42.7295 25.7786 42.6852 25.7765 42.6389 25.7646L42.4892 26.3456ZM42.8627 26.3652C42.9872 26.3474 43.1056 26.3063 43.2155 26.2411L42.9095 25.7251C42.8684 25.7494 42.8254 25.7645 42.7779 25.7712L42.8627 26.3652ZM43.2168 26.2404C43.3249 26.1755 43.4172 26.0921 43.4929 25.9911L43.0129 25.6311C42.9834 25.6705 42.9492 25.7012 42.9081 25.7259L43.2168 26.2404ZM43.4944 25.9892C43.5687 25.8884 43.6228 25.7755 43.6537 25.6522L43.0716 25.5067C43.0603 25.5518 43.0407 25.5934 43.0115 25.633L43.4944 25.9892ZM43.6537 25.6522C43.6842 25.5301 43.6905 25.406 43.6728 25.2812L43.0787 25.3652C43.0857 25.4141 43.0832 25.4603 43.0716 25.5067L43.6537 25.6522ZM43.6728 25.2808C43.6547 25.1545 43.612 25.0358 43.547 24.9275L43.0325 25.2362C43.0571 25.2771 43.0723 25.3199 43.0788 25.3656L43.6728 25.2808ZM43.5473 24.928L40.5293 19.8775L40.0143 20.1853L43.0323 25.2357L43.5473 24.928ZM40.2718 20.3314H46.4377V19.7314H40.2718V20.3314ZM46.4377 20.3314C46.5649 20.3314 46.6872 20.307 46.804 20.2587L46.575 19.7041C46.5304 19.7226 46.4859 19.7314 46.4377 19.7314V20.3314ZM46.804 20.2587C46.9213 20.2102 47.0256 20.1407 47.1158 20.0505L46.6915 19.6262C46.6571 19.6607 46.6192 19.6859 46.575 19.7041L46.804 20.2587ZM47.1158 20.0505C47.2053 19.961 47.2747 19.8567 47.3231 19.7397L46.7685 19.5106C46.7502 19.555 46.7249 19.5929 46.6915 19.6262L47.1158 20.0505ZM47.3231 19.7397C47.3714 19.6228 47.3958 19.5005 47.3958 19.3733H46.7958C46.7958 19.4215 46.787 19.466 46.7685 19.5106L47.3231 19.7397ZM47.3958 19.3733V5.9719H46.7958V19.3733H47.3958ZM47.3958 5.9719C47.3958 5.84571 47.3714 5.72255 47.3231 5.60551L46.7685 5.83457C46.7869 5.879 46.7958 5.92433 46.7958 5.9719H47.3958ZM47.3231 5.60551C47.2747 5.48847 47.2053 5.38417 47.1158 5.29465L46.6915 5.71892C46.7249 5.75226 46.7502 5.79013 46.7685 5.83456L47.3231 5.60551ZM47.1143 5.29315C47.0261 5.20619 46.9228 5.13551 46.804 5.08646L46.575 5.64102C46.6177 5.65867 46.6566 5.68452 46.693 5.72042L47.1143 5.29315ZM46.804 5.08646C46.6872 5.0382 46.5649 5.01372 46.4377 5.01372V5.61372C46.4859 5.61372 46.5304 5.62259 46.575 5.64102L46.804 5.08646ZM31.6934 5.9719V5.31372H31.0934V5.9719H31.6934ZM31.3934 5.61372H40.722V5.01372H31.3934V5.61372ZM40.422 5.31372V6.89071H41.022V5.31372H40.422ZM40.722 6.59071H31.3934V7.19071H40.722V6.59071ZM31.6934 6.89071V5.9719H31.0934V6.89071H31.6934ZM45.7821 18.4133H26.3333V19.0133H45.7821V18.4133ZM26.6333 18.7133V6.62832H26.0333V18.7133H26.6333ZM26.3333 6.92832H30.0788V6.32832H26.3333V6.92832ZM29.7788 6.62832V7.54714H30.3788V6.62832H29.7788ZM29.7788 7.54714C29.7788 7.67297 29.8033 7.79426 29.8496 7.90918L30.4062 7.6853C30.3875 7.63875 30.3788 7.5933 30.3788 7.54714H29.7788ZM29.85 7.91024C29.8977 8.02764 29.9674 8.13164 30.0547 8.22022L30.482 7.79901C30.4482 7.76473 30.423 7.72657 30.4058 7.68425L29.85 7.91024ZM30.0547 8.22022C30.1433 8.31016 30.2462 8.37932 30.3608 8.4284L30.5971 7.87691C30.5519 7.85755 30.5144 7.83192 30.482 7.79901L30.0547 8.22022ZM30.3597 8.42793C30.4777 8.47909 30.6 8.50278 30.7221 8.50525L30.7342 7.90537C30.6826 7.90433 30.6381 7.89468 30.5982 7.87739L30.3597 8.42793ZM30.7282 8.50531H41.3872V7.90531H30.7282V8.50531ZM41.3872 8.50531C41.5145 8.50531 41.6367 8.48083 41.7536 8.43257L41.5245 7.87801C41.4799 7.89644 41.4354 7.90531 41.3872 7.90531V8.50531ZM41.7547 8.43212C41.8702 8.38387 41.9742 8.31464 42.0636 8.22526L41.6393 7.80099C41.6058 7.83447 41.5676 7.86001 41.5235 7.87846L41.7547 8.43212ZM42.0651 8.22375C42.1524 8.13512 42.2221 8.03263 42.2709 7.9144L41.7163 7.68535C41.6985 7.72859 41.6733 7.76651 41.6378 7.8025L42.0651 8.22375ZM42.2709 7.9144C42.3191 7.79774 42.3436 7.67549 42.3436 7.54889H41.7436C41.7436 7.59605 41.7348 7.64054 41.7163 7.68535L42.2709 7.9144ZM42.3436 7.54889V6.63008H41.7436V7.54889H42.3436ZM42.0436 6.93008H45.7891V6.33008H42.0436V6.93008ZM45.4891 6.6299L45.4821 18.7132L46.0821 18.7135L46.0891 6.63025L45.4891 6.6299Z" fill="#0D313B"/>
</g>
</g>
<g id="Group 1171275519">
<g id="Vector_2">
<mask id="path-3-inside-1_6490_46880" fill="white">
<path d="M31.0258 11.2265H40.9742C41.591 11.2265 42 10.9804 42 10.6132C42 10.2461 41.591 10 40.9742 10H31.0258C30.409 10 30 10.2461 30 10.6132C30 10.9192 30.409 11.2265 31.0258 11.2265Z"/>
</mask>
<path d="M31.0258 11.2265H40.9742C41.591 11.2265 42 10.9804 42 10.6132C42 10.2461 41.591 10 40.9742 10H31.0258C30.409 10 30 10.2461 30 10.6132C30 10.9192 30.409 11.2265 31.0258 11.2265Z" fill="#0D313B" stroke="#0D313B" stroke-width="2" mask="url(#path-3-inside-1_6490_46880)"/>
</g>
<g id="Vector_3">
<mask id="path-4-inside-2_6490_46880" fill="white">
<path d="M31.0258 13.6796H40.9742C41.591 13.6796 42 13.4345 42 13.0657C42 12.6982 41.591 12.4531 40.9742 12.4531H31.0258C30.409 12.4531 30 12.6982 30 13.0657C30 13.3733 30.409 13.6796 31.0258 13.6796Z"/>
</mask>
<path d="M31.0258 13.6796H40.9742C41.591 13.6796 42 13.4345 42 13.0657C42 12.6982 41.591 12.4531 40.9742 12.4531H31.0258C30.409 12.4531 30 12.6982 30 13.0657C30 13.3733 30.409 13.6796 31.0258 13.6796Z" fill="#0D313B" stroke="#0D313B" stroke-width="2" mask="url(#path-4-inside-2_6490_46880)"/>
</g>
<g id="Vector_4">
<mask id="path-5-inside-3_6490_46880" fill="white">
<path d="M31.0258 16.1322H40.9742C41.591 16.1322 42 15.8872 42 15.5196C42 15.1521 41.591 14.9058 40.9742 14.9058H31.0258C30.409 14.9058 30 15.1521 30 15.5196C30 15.8259 30.409 16.1322 31.0258 16.1322Z"/>
</mask>
<path d="M31.0258 16.1322H40.9742C41.591 16.1322 42 15.8872 42 15.5196C42 15.1521 41.591 14.9058 40.9742 14.9058H31.0258C30.409 14.9058 30 15.1521 30 15.5196C30 15.8259 30.409 16.1322 31.0258 16.1322Z" fill="#0D313B" stroke="#0D313B" stroke-width="2" mask="url(#path-5-inside-3_6490_46880)"/>
</g>
</g>
</g>
<path id="Vector_5" d="M31.3438 45.7981C31.3438 45.4761 31.3756 45.1595 31.4393 44.8446C31.5012 44.5298 31.5932 44.2255 31.717 43.9283C31.8391 43.6329 31.9912 43.3517 32.1681 43.0845C32.3467 42.8174 32.5502 42.5716 32.7766 42.3434C33.0048 42.1169 33.2507 41.9153 33.5178 41.7366C33.7849 41.558 34.0679 41.4076 34.3633 41.2855C34.6605 41.1635 34.9665 41.0697 35.2814 41.0078C35.5963 40.9459 35.9147 40.9141 36.2366 40.9141C36.5568 40.9141 36.8752 40.9459 37.1901 41.0078C37.5049 41.0715 37.811 41.1635 38.1082 41.2873C38.4036 41.4094 38.6866 41.5597 38.9537 41.7384C39.2208 41.917 39.4667 42.1187 39.6949 42.3451C39.9213 42.5733 40.123 42.8192 40.3016 43.0863C40.4803 43.3534 40.6307 43.6347 40.7545 43.9301C40.8765 44.2273 40.9685 44.5333 41.0322 44.8464C41.0941 45.1613 41.126 45.4797 41.126 45.7999C41.1242 46.12 41.0941 46.4384 41.0304 46.7533C40.9685 47.0682 40.8748 47.3724 40.7509 47.6696C40.6289 47.965 40.4785 48.2463 40.2999 48.5134C40.1212 48.7805 39.9178 49.0264 39.6914 49.2528C39.4632 49.4792 39.2155 49.6827 38.9484 49.8596C38.6813 50.0382 38.4 50.1886 38.1028 50.3106C37.8057 50.4327 37.4996 50.5265 37.1848 50.5884C36.8699 50.6503 36.5515 50.6821 36.2313 50.6804C35.9094 50.6804 35.5927 50.6485 35.2779 50.5866C34.963 50.5229 34.657 50.4309 34.3616 50.3071C34.0644 50.185 33.7831 50.0347 33.516 49.856C33.2507 49.6774 33.003 49.4757 32.7766 49.2475C32.5502 49.0211 32.3467 48.7752 32.1698 48.5081C31.9912 48.2428 31.8408 47.9615 31.717 47.6643C31.5949 47.3689 31.5012 47.0646 31.4393 46.7498C31.3756 46.4349 31.3455 46.1183 31.3438 45.7981ZM33.6929 45.7981C33.6929 45.9644 33.7088 46.1289 33.7407 46.2916C33.7743 46.4561 33.822 46.6136 33.8857 46.7675C33.9494 46.9214 34.0272 47.0682 34.121 47.2062C34.213 47.3441 34.3191 47.4715 34.4358 47.59C34.5544 47.7085 34.6817 47.8129 34.8215 47.9049C34.9595 47.9969 35.1063 48.0765 35.2602 48.1402C35.4141 48.2038 35.5715 48.2516 35.736 48.2834C35.8988 48.3153 36.065 48.333 36.2313 48.333C36.3976 48.333 36.5621 48.3153 36.7266 48.2834C36.8894 48.2516 37.0486 48.2038 37.2025 48.1402C37.3564 48.0765 37.5032 47.9969 37.6412 47.9049C37.7791 47.8129 37.9083 47.7085 38.025 47.59C38.1435 47.4715 38.2497 47.3441 38.3417 47.2062C38.4336 47.0682 38.5115 46.9214 38.5769 46.7675C38.6406 46.6136 38.6884 46.4561 38.7202 46.2916C38.7538 46.1289 38.7697 45.9644 38.7697 45.7981C38.7697 45.6318 38.7538 45.4673 38.7202 45.3028C38.6884 45.14 38.6406 44.9808 38.5769 44.8269C38.5115 44.673 38.4336 44.528 38.3417 44.39C38.2497 44.2503 38.1435 44.1229 38.025 44.0062C37.9083 43.8876 37.7791 43.7833 37.6412 43.6895C37.5032 43.5975 37.3564 43.5197 37.2025 43.456C37.0486 43.3923 36.8894 43.3446 36.7266 43.311C36.5621 43.2791 36.3976 43.2632 36.2313 43.2632C36.065 43.2632 35.8988 43.2791 35.736 43.3127C35.5733 43.3446 35.4141 43.3923 35.2602 43.4578C35.1063 43.5215 34.9595 43.5993 34.8215 43.6913C34.6835 43.7833 34.5544 43.8894 34.4376 44.0062C34.3191 44.1247 34.2147 44.252 34.121 44.39C34.029 44.528 33.9512 44.6748 33.8875 44.8287C33.8238 44.9826 33.7743 45.14 33.7424 45.3028C33.7088 45.4673 33.6929 45.6318 33.6929 45.7981Z" fill="#0D313B"/>
<g id="Vector_6">
<path d="M26.7617 58.5895V57.139C26.7635 56.603 26.8095 56.0705 26.9015 55.5416C26.9934 55.0127 27.1297 54.4944 27.3083 53.9885C27.4888 53.4843 27.7099 52.9961 27.9717 52.5273C28.2352 52.0603 28.536 51.6163 28.8738 51.1989C29.2117 50.7814 29.5814 50.3958 29.9847 50.042C30.388 49.6864 30.8197 49.368 31.2778 49.0868C31.7342 48.8055 32.2118 48.5649 32.7106 48.3633C33.2095 48.1634 33.7225 48.0059 34.2479 47.8927C34.5273 47.8308 34.7927 47.868 35.0456 48.0059C35.4136 48.2129 35.8081 48.3173 36.2308 48.3173C36.6536 48.3173 37.0481 48.2129 37.416 48.0059C37.669 47.8697 37.9361 47.8326 38.2173 47.8927C38.7427 48.0059 39.2557 48.1634 39.7528 48.3633C40.2516 48.5649 40.731 48.8055 41.1874 49.0868C41.6455 49.368 42.0754 49.6864 42.4787 50.042C42.8838 50.3958 43.2535 50.7814 43.5914 51.1989C43.9292 51.6163 44.2299 52.0603 44.4917 52.5273C44.7553 52.9961 44.9764 53.4843 45.1569 53.9885C45.3355 54.4944 45.4717 55.0127 45.5637 55.5416C45.6557 56.0705 45.7017 56.603 45.7035 57.139V58.5895C45.7035 58.7452 45.6734 58.8937 45.6133 59.037C45.5549 59.1821 45.47 59.3077 45.3603 59.4173C45.2489 59.5288 45.1233 59.6137 44.9782 59.6721C44.8349 59.7322 44.6846 59.7623 44.5289 59.7623H27.9363C27.7806 59.7623 27.6303 59.7322 27.487 59.6721C27.3419 59.6137 27.2146 59.5288 27.1049 59.4173C26.9952 59.3077 26.9103 59.1821 26.8502 59.037C26.7918 58.8937 26.7617 58.7452 26.7617 58.5895ZM43.3543 57.139C43.3543 56.7516 43.3207 56.3677 43.257 55.9856C43.1916 55.6035 43.0978 55.2303 42.9722 54.8623C42.8466 54.4962 42.6927 54.1424 42.5105 53.801C42.3266 53.4596 42.1178 53.1341 41.8826 52.8281C41.6473 52.5203 41.3873 52.2337 41.106 51.9684C40.823 51.7013 40.5223 51.4607 40.2003 51.2449C39.8784 51.0273 39.5423 50.838 39.1885 50.677C38.8365 50.5143 38.4738 50.3816 38.1006 50.279C37.5027 50.5355 36.88 50.6629 36.2308 50.6629C35.5816 50.6629 34.9572 50.5355 34.3611 50.279C33.9878 50.3816 33.6234 50.5143 33.2714 50.677C32.9194 50.838 32.5833 51.0273 32.2613 51.2449C31.9412 51.4607 31.6387 51.703 31.3556 51.9684C31.0744 52.2337 30.8161 52.5203 30.5808 52.8281C30.3438 53.1359 30.1351 53.4596 29.9529 53.801C29.7707 54.1424 29.6168 54.4962 29.4912 54.8641C29.3674 55.2303 29.2718 55.6035 29.2082 55.9856C29.1445 56.3677 29.1109 56.7516 29.1091 57.139V57.4167H43.3543V57.139Z" fill="#0D313B"/>
<path d="M43.3543 57.139C43.3543 56.7516 43.3207 56.3677 43.257 55.9856C43.1916 55.6035 43.0978 55.2303 42.9722 54.8623C42.8466 54.4962 42.6927 54.1424 42.5105 53.801C42.3266 53.4596 42.1178 53.1341 41.8826 52.8281C41.6473 52.5203 41.3873 52.2337 41.106 51.9684C40.823 51.7013 40.5223 51.4607 40.2003 51.2449C39.8784 51.0273 39.5423 50.838 39.1885 50.677C38.8365 50.5143 38.4738 50.3816 38.1006 50.279C37.5027 50.5355 36.88 50.6629 36.2308 50.6629C35.5816 50.6629 34.9572 50.5355 34.3611 50.279C33.9878 50.3816 33.6234 50.5143 33.2714 50.677C32.9194 50.838 32.5833 51.0273 32.2613 51.2449C31.9412 51.4607 31.6387 51.703 31.3556 51.9684C31.0744 52.2337 30.8161 52.5203 30.5808 52.8281C30.3438 53.1359 30.1351 53.4596 29.9529 53.801C29.7707 54.1424 29.6168 54.4962 29.4912 54.8641C29.3674 55.2303 29.2718 55.6035 29.2082 55.9856C29.1445 56.3677 29.1109 56.7516 29.1091 57.139V57.4167H43.3543V57.139Z" fill="#2894B4"/>
</g>
<path id="Vector_7" d="M10.582 29.8793C10.582 29.5591 10.6139 29.2407 10.6758 28.9276C10.7377 28.6127 10.8315 28.3067 10.9535 28.0095C11.0756 27.7141 11.2259 27.4328 11.4046 27.1657C11.5832 26.8986 11.7849 26.6527 12.0131 26.4245C12.2395 26.1981 12.4872 25.9947 12.7543 25.8178C13.0196 25.6391 13.3027 25.4888 13.5981 25.3649C13.8952 25.2429 14.2013 25.1491 14.5161 25.0872C14.831 25.0235 15.1494 24.9917 15.4696 24.9917C15.7915 24.9917 16.11 25.0235 16.4248 25.0855C16.7397 25.1474 17.0457 25.2411 17.3429 25.3632C17.6383 25.4852 17.9213 25.6356 18.1884 25.8143C18.4556 25.9929 18.7032 26.1946 18.9296 26.421C19.1561 26.6474 19.3595 26.8951 19.5381 27.1604C19.7168 27.4275 19.8672 27.7088 19.991 28.006C20.1131 28.3014 20.2068 28.6074 20.2687 28.9223C20.3324 29.2371 20.3625 29.5538 20.3625 29.874C20.3625 30.1959 20.3324 30.5125 20.2687 30.8274C20.2068 31.1423 20.1148 31.4483 19.991 31.7437C19.8689 32.0409 19.7186 32.3222 19.5399 32.5875C19.3613 32.8546 19.1578 33.1023 18.9314 33.3287C18.705 33.5551 18.4573 33.7585 18.1902 33.9354C17.9231 34.1141 17.6418 34.2645 17.3447 34.3883C17.0475 34.5103 16.7415 34.6023 16.4266 34.666C16.1117 34.7279 15.7933 34.7598 15.4731 34.7598C15.1512 34.7598 14.8345 34.7279 14.5197 34.6642C14.2048 34.6023 13.8988 34.5103 13.6034 34.3865C13.3062 34.2645 13.0249 34.1141 12.7578 33.9354C12.4907 33.7585 12.2448 33.5551 12.0166 33.3287C11.7902 33.1023 11.5868 32.8564 11.4099 32.5893C11.2312 32.3239 11.0791 32.0427 10.957 31.7473C10.8332 31.4501 10.7412 31.1458 10.6776 30.831C10.6139 30.5179 10.5838 30.1994 10.582 29.8793ZM12.9347 29.8793C12.9347 30.0455 12.9506 30.2101 12.9825 30.3746C13.0161 30.5373 13.0638 30.6965 13.1275 30.8504C13.1912 31.0025 13.269 31.1494 13.3628 31.2873C13.4548 31.4271 13.5609 31.5544 13.6777 31.6712C13.7962 31.7897 13.9235 31.8941 14.0633 31.9878C14.2013 32.0798 14.3481 32.1577 14.502 32.2213C14.6559 32.285 14.8133 32.3328 14.9778 32.3664C15.1406 32.3982 15.3069 32.4141 15.4731 32.4141C15.6394 32.4141 15.8039 32.3982 15.9684 32.3664C16.1312 32.3328 16.2904 32.285 16.4443 32.2213C16.5982 32.1577 16.745 32.0798 16.883 31.9878C17.021 31.8941 17.1501 31.7897 17.2668 31.6712C17.3854 31.5544 17.4915 31.4271 17.5835 31.2873C17.6755 31.1494 17.7533 31.0025 17.8187 30.8504C17.8824 30.6965 17.9302 30.5373 17.962 30.3746C17.9956 30.2101 18.0116 30.0455 18.0116 29.8793C18.0116 29.713 17.9956 29.5485 17.962 29.3857C17.9302 29.2212 17.8824 29.0638 17.8187 28.9099C17.7533 28.756 17.6755 28.6092 17.5835 28.4712C17.4915 28.3332 17.3854 28.2059 17.2668 28.0873C17.1501 27.9688 17.021 27.8644 16.883 27.7725C16.745 27.6805 16.5982 27.6009 16.4443 27.5372C16.2904 27.4735 16.1312 27.4258 15.9684 27.3939C15.8039 27.3603 15.6394 27.3444 15.4731 27.3444C15.3069 27.3444 15.1406 27.3621 14.9778 27.3939C14.8151 27.4275 14.6559 27.4753 14.502 27.539C14.3481 27.6026 14.2013 27.6805 14.0633 27.7725C13.9253 27.8662 13.7962 27.9706 13.6794 28.0891C13.5609 28.2059 13.4566 28.3332 13.3628 28.473C13.2708 28.6109 13.193 28.756 13.1293 28.9099C13.0656 29.0638 13.0161 29.223 12.9842 29.3857C12.9506 29.5485 12.9347 29.713 12.9347 29.8793Z" fill="#0D313B"/>
<g id="Group_2">
<g id="Vector_8">
<path d="M6.00007 42.6833V41.2451C6.00007 40.7074 6.04607 40.1749 6.13805 39.646C6.23003 39.1153 6.36624 38.5988 6.54491 38.0929C6.72534 37.5852 6.94645 37.0988 7.20826 36.63C7.47006 36.1612 7.77078 35.7172 8.10864 35.2997C8.44651 34.8823 8.81799 34.4949 9.2213 34.1411C9.62462 33.7855 10.0562 33.4671 10.5144 33.1859C10.9708 32.9046 11.4502 32.6623 11.949 32.4624C12.4478 32.2607 12.9591 32.1033 13.4844 31.9901C13.7675 31.9264 14.0346 31.9635 14.2875 32.1033C14.6555 32.312 15.0499 32.4146 15.4727 32.4146C15.8955 32.4146 16.29 32.312 16.6579 32.1033C16.9109 31.9688 17.1762 31.9317 17.4557 31.9936C17.9811 32.1068 18.4941 32.2643 18.9929 32.4659C19.49 32.6658 19.9694 32.9064 20.4275 33.1894C20.8839 33.4707 21.3155 33.7891 21.7188 34.1429C22.1221 34.4984 22.4936 34.884 22.8315 35.3015C23.1694 35.719 23.4683 36.163 23.7319 36.6318C23.9937 37.1005 24.2148 37.587 24.3952 38.0929C24.5757 38.5988 24.7101 39.1171 24.8021 39.646C24.8941 40.1749 24.9401 40.7074 24.9418 41.2451V42.6904C24.9418 42.846 24.9118 42.9946 24.8516 43.1397C24.7932 43.2829 24.7083 43.4085 24.5969 43.52C24.4872 43.6297 24.3598 43.7146 24.2166 43.7729C24.0733 43.8331 23.9229 43.8632 23.7673 43.8632H7.17288C7.01721 43.8632 6.86685 43.8331 6.7218 43.7729C6.57852 43.7128 6.45115 43.6279 6.34148 43.5164C6.23004 43.4068 6.14513 43.2776 6.08675 43.1344C6.02838 42.9893 5.9983 42.8389 6.00007 42.6833ZM22.5927 41.2451C22.5927 40.8577 22.5608 40.4721 22.4972 40.09C22.4335 39.7062 22.338 39.3329 22.2141 38.965C22.0903 38.5988 21.9364 38.2433 21.7524 37.9019C21.5702 37.5587 21.3615 37.2332 21.1262 36.9254C20.891 36.6176 20.6327 36.331 20.3497 36.0639C20.0666 35.7986 19.7659 35.5562 19.444 35.3404C19.122 35.1229 18.7842 34.9336 18.4321 34.7708C18.0801 34.6081 17.7157 34.4754 17.3425 34.3728C16.7446 34.6293 16.1219 34.7567 15.4727 34.7567C14.8235 34.7567 14.1991 34.6293 13.603 34.3728C13.2279 34.4754 12.8653 34.6081 12.5115 34.7708C12.1595 34.9336 11.8216 35.1229 11.5015 35.3387C11.1795 35.5562 10.877 35.7986 10.594 36.0639C10.311 36.3293 10.0527 36.6176 9.81743 36.9254C9.58217 37.2332 9.37166 37.5587 9.18946 37.9001C9.00726 38.2433 8.85336 38.597 8.72777 38.965C8.60395 39.3311 8.50842 39.7062 8.44474 40.09C8.38106 40.4721 8.34922 40.856 8.34745 41.2451V41.5176H22.5927V41.2451Z" fill="#0D313B"/>
<path d="M22.5927 41.2451C22.5927 40.8577 22.5608 40.4721 22.4972 40.09C22.4335 39.7062 22.338 39.3329 22.2141 38.965C22.0903 38.5988 21.9364 38.2433 21.7524 37.9019C21.5702 37.5587 21.3615 37.2332 21.1262 36.9254C20.891 36.6176 20.6327 36.331 20.3497 36.0639C20.0666 35.7986 19.7659 35.5562 19.444 35.3404C19.122 35.1229 18.7842 34.9336 18.4321 34.7708C18.0801 34.6081 17.7157 34.4754 17.3425 34.3728C16.7446 34.6293 16.1219 34.7567 15.4727 34.7567C14.8235 34.7567 14.1991 34.6293 13.603 34.3728C13.2279 34.4754 12.8653 34.6081 12.5115 34.7708C12.1595 34.9336 11.8216 35.1229 11.5015 35.3387C11.1795 35.5562 10.877 35.7986 10.594 36.0639C10.311 36.3293 10.0527 36.6176 9.81743 36.9254C9.58217 37.2332 9.37166 37.5587 9.18946 37.9001C9.00726 38.2433 8.85336 38.597 8.72777 38.965C8.60395 39.3311 8.50842 39.7062 8.44474 40.09C8.38106 40.4721 8.34922 40.856 8.34745 41.2451V41.5176H22.5927V41.2451Z" fill="#2894B4"/>
</g>
</g>
<path id="Vector_9" d="M52.1016 29.8793C52.1016 29.5591 52.1334 29.2407 52.1953 28.9276C52.2572 28.6127 52.351 28.3067 52.473 28.0095C52.5951 27.7141 52.7455 27.4328 52.9241 27.1657C53.1028 26.8986 53.3062 26.6527 53.5326 26.4245C53.7591 26.1981 54.0067 25.9947 54.2738 25.8178C54.5409 25.6391 54.8222 25.4888 55.1176 25.3649C55.4148 25.2429 55.7208 25.1491 56.0357 25.0872C56.3505 25.0235 56.669 24.9917 56.9909 24.9917C57.3111 24.9917 57.6295 25.0235 57.9444 25.0855C58.2592 25.1474 58.5652 25.2411 58.8624 25.3632C59.1596 25.4852 59.4409 25.6356 59.708 25.8143C59.9751 25.9929 60.2227 26.1946 60.4492 26.421C60.6756 26.6474 60.879 26.8951 61.0577 27.1622C61.2363 27.4275 61.3867 27.7088 61.5105 28.006C61.6326 28.3014 61.7263 28.6074 61.7882 28.9223C61.8519 29.2371 61.882 29.5538 61.8838 29.874C61.8838 30.1959 61.8519 30.5125 61.79 30.8274C61.7263 31.1423 61.6344 31.4483 61.5105 31.7437C61.3885 32.0409 61.2381 32.3222 61.0594 32.5875C60.8808 32.8546 60.6774 33.1023 60.4509 33.3287C60.2245 33.5551 59.9769 33.7585 59.7098 33.9354C59.4426 34.1141 59.1614 34.2645 58.8642 34.3883C58.567 34.5103 58.261 34.6023 57.9461 34.666C57.6313 34.7279 57.3128 34.7598 56.9927 34.7598C56.6725 34.758 56.3541 34.7279 56.0392 34.6642C55.7243 34.6023 55.4201 34.5086 55.1229 34.3865C54.8275 34.2627 54.5445 34.1123 54.2791 33.9354C54.012 33.7568 53.7644 33.5551 53.5379 33.3287C53.3115 33.1023 53.1081 32.8546 52.9294 32.5893C52.7508 32.3222 52.6004 32.0427 52.4783 31.7455C52.3545 31.4501 52.2608 31.1458 52.1989 30.831C52.1352 30.5179 52.1033 30.1994 52.1016 29.8793ZM54.4542 29.8793C54.4542 30.0455 54.4702 30.2101 54.5038 30.3746C54.5356 30.5373 54.5834 30.6965 54.6471 30.8504C54.7107 31.0025 54.7903 31.1494 54.8823 31.2873C54.9743 31.4271 55.0804 31.5544 55.1972 31.6712C55.3157 31.7897 55.4431 31.8941 55.5828 31.9878C55.7208 32.0798 55.8676 32.1577 56.0215 32.2213C56.1754 32.285 56.3346 32.3328 56.4974 32.3664C56.6601 32.3982 56.8264 32.4141 56.9927 32.4141C57.1589 32.4141 57.3235 32.3982 57.488 32.3664C57.6507 32.3328 57.8099 32.285 57.9638 32.2213C58.1177 32.1577 58.2645 32.0798 58.4025 31.9878C58.5405 31.8941 58.6696 31.7897 58.7881 31.6712C58.9049 31.5544 59.011 31.4271 59.103 31.2873C59.195 31.1494 59.2746 31.0025 59.3383 30.8504C59.402 30.6965 59.4497 30.5373 59.4816 30.3746C59.5152 30.2101 59.5311 30.0455 59.5311 29.8793C59.5311 29.713 59.5152 29.5485 59.4816 29.3857C59.4497 29.2212 59.402 29.0638 59.3383 28.9099C59.2746 28.756 59.195 28.6092 59.103 28.4712C59.011 28.3332 58.9049 28.2059 58.7881 28.0873C58.6696 27.9688 58.5405 27.8644 58.4025 27.7725C58.2645 27.6805 58.1177 27.6009 57.9638 27.5372C57.8099 27.4735 57.6507 27.4258 57.488 27.3939C57.3235 27.3603 57.1589 27.3444 56.9927 27.3444C56.8264 27.3444 56.6601 27.3621 56.4974 27.3939C56.3346 27.4275 56.1754 27.4753 56.0215 27.539C55.8676 27.6026 55.7226 27.6805 55.5828 27.7725C55.4448 27.8662 55.3175 27.9706 55.199 28.0891C55.0804 28.2059 54.9761 28.3332 54.8841 28.473C54.7903 28.6109 54.7125 28.756 54.6488 28.9099C54.5851 29.0638 54.5356 29.223 54.5038 29.3857C54.4702 29.5485 54.4542 29.713 54.4542 29.8793Z" fill="#0D313B"/>
<g id="Group_3">
<g id="Vector_10">
<path d="M47.5196 42.6833V41.2451C47.5196 40.7074 47.5674 40.1732 47.6594 39.6443C47.7496 39.1153 47.8858 38.597 48.0662 38.0894C48.2466 37.5834 48.4678 37.0952 48.7313 36.6264C48.9931 36.1577 49.2938 35.7154 49.6335 35.2962C49.9713 34.8787 50.3428 34.4931 50.7479 34.1376C51.1512 33.7838 51.5828 33.4654 52.041 33.1823C52.4992 32.9011 52.9785 32.6605 53.4774 32.4606C53.978 32.2607 54.491 32.1033 55.0163 31.9901C55.2976 31.9264 55.5647 31.9635 55.8177 32.1033C56.1856 32.312 56.5819 32.4146 57.0029 32.4146C57.4256 32.4146 57.8219 32.312 58.1898 32.1033C58.441 31.9688 58.7081 31.9317 58.9876 31.9936C59.5112 32.1086 60.0242 32.266 60.5213 32.4677C61.0201 32.6676 61.4977 32.9099 61.9541 33.1912C62.4123 33.4742 62.8421 33.7908 63.2437 34.1464C63.647 34.502 64.0185 34.8876 64.3546 35.3051C64.6924 35.7225 64.9914 36.1665 65.2549 36.6335C65.5167 37.1023 65.7379 37.5887 65.9165 38.0947C66.0952 38.6006 66.2314 39.1189 66.3234 39.646C66.4136 40.1749 66.4596 40.7074 66.4614 41.2451V42.6904C66.4614 42.846 66.4313 42.9946 66.3711 43.1397C66.3128 43.2829 66.2279 43.4085 66.1182 43.52C66.0067 43.6297 65.8811 43.7146 65.7361 43.7729C65.5928 43.8331 65.4425 43.8632 65.2868 43.8632H48.6942C48.5367 43.8632 48.3864 43.8331 48.2431 43.7729C48.098 43.7128 47.9707 43.6279 47.861 43.5164C47.7496 43.4068 47.6647 43.2776 47.6063 43.1344C47.5479 42.9893 47.5178 42.8389 47.5196 42.6833ZM64.1122 41.2451C64.1122 40.8577 64.0786 40.4721 64.0149 40.09C63.9512 39.7079 63.8575 39.3347 63.7319 38.9667C63.6063 38.6006 63.4542 38.2468 63.2702 37.9054C63.088 37.5622 62.8793 37.2385 62.644 36.9307C62.4087 36.6229 62.1487 36.3363 61.8674 36.0692C61.5844 35.8039 61.2837 35.5633 60.9617 35.3457C60.6398 35.1299 60.3037 34.9407 59.9517 34.7779C59.5979 34.6152 59.2353 34.4843 58.862 34.3799C58.2641 34.6364 57.6414 34.7638 56.9922 34.7638C56.3431 34.7638 55.7186 34.6364 55.1225 34.3799C54.7492 34.4843 54.3848 34.6152 54.0328 34.7779C53.6808 34.9407 53.3429 35.1299 53.0228 35.3457C52.7008 35.5633 52.3983 35.8039 52.1153 36.0692C51.834 36.3346 51.574 36.6229 51.3387 36.9307C51.1035 37.2385 50.8947 37.5622 50.7108 37.9036C50.5286 38.2468 50.3747 38.6006 50.2491 38.9667C50.1252 39.3329 50.0297 39.7079 49.966 40.09C49.9024 40.4721 49.8688 40.8577 49.867 41.2451V41.5176H64.1122V41.2451Z" fill="#0D313B"/>
<path d="M64.1122 41.2451C64.1122 40.8577 64.0786 40.4721 64.0149 40.09C63.9512 39.7079 63.8575 39.3347 63.7319 38.9667C63.6063 38.6006 63.4542 38.2468 63.2702 37.9054C63.088 37.5622 62.8793 37.2385 62.644 36.9307C62.4087 36.6229 62.1487 36.3363 61.8674 36.0692C61.5844 35.8039 61.2837 35.5633 60.9617 35.3457C60.6398 35.1299 60.3037 34.9407 59.9517 34.7779C59.5979 34.6152 59.2353 34.4843 58.862 34.3799C58.2641 34.6364 57.6414 34.7638 56.9922 34.7638C56.3431 34.7638 55.7186 34.6364 55.1225 34.3799C54.7492 34.4843 54.3848 34.6152 54.0328 34.7779C53.6808 34.9407 53.3429 35.1299 53.0228 35.3457C52.7008 35.5633 52.3983 35.8039 52.1153 36.0692C51.834 36.3346 51.574 36.6229 51.3387 36.9307C51.1035 37.2385 50.8947 37.5622 50.7108 37.9036C50.5286 38.2468 50.3747 38.6006 50.2491 38.9667C50.1252 39.3329 50.0297 39.7079 49.966 40.09C49.9024 40.4721 49.8688 40.8577 49.867 41.2451V41.5176H64.1122V41.2451Z" fill="#2894B4"/>
</g>
</g>
<g id="Group_4">
<path id="Vector_11" d="M36.2293 68C36.3849 68 36.5353 67.97 36.6786 67.9098C36.8236 67.8497 36.951 67.7648 37.0607 67.6551C37.1703 67.5437 37.2552 67.4163 37.3154 67.273C37.3738 67.128 37.4038 66.9794 37.4038 66.8237V58.5893C37.4038 58.4336 37.3738 58.2833 37.3136 58.14C37.2535 57.9967 37.1686 57.8694 37.0589 57.7597C36.9492 57.65 36.8219 57.5651 36.6786 57.505C36.5353 57.4466 36.3849 57.4165 36.2293 57.4165C36.0736 57.4165 35.9232 57.4466 35.78 57.505C35.6349 57.5651 35.5093 57.65 35.3979 57.7597C35.2882 57.8694 35.2033 57.9967 35.1449 58.14C35.0848 58.2833 35.0547 58.4336 35.0547 58.5893V66.8237C35.0547 66.9794 35.083 67.128 35.1431 67.273C35.2033 67.4163 35.2864 67.5437 35.3979 67.6551C35.5075 67.7648 35.6349 67.8497 35.7782 67.9098C35.9232 67.97 36.0736 68 36.2293 68Z" fill="#0D313B"/>
</g>
<g id="Group_5">
<path id="Vector_12" d="M13.9086 68H58.56C58.7157 68 58.8661 67.9699 59.0093 67.9097C59.1544 67.8496 59.2818 67.7647 59.3914 67.655C59.5011 67.5436 59.586 67.4162 59.6462 67.2729C59.7045 67.1279 59.7346 66.9793 59.7346 66.8236V51.2853C59.7346 51.1296 59.7045 50.9793 59.6444 50.836C59.5842 50.6927 59.4993 50.5671 59.3897 50.4574C59.28 50.3478 59.1526 50.2628 59.0093 50.2027C58.8643 50.1443 58.7157 50.1143 58.56 50.1143C58.4044 50.1143 58.254 50.1443 58.1107 50.2027C57.9674 50.2628 57.8401 50.3478 57.7304 50.4574C57.6207 50.5671 57.5358 50.6927 57.4757 50.836C57.4155 50.9793 57.3855 51.1296 57.3855 51.2853V65.6508H15.0832V51.9681C15.0743 51.8177 15.0372 51.6745 14.9752 51.5383C14.9116 51.402 14.8249 51.2818 14.7152 51.1792C14.6055 51.0766 14.4817 50.997 14.342 50.9404C14.2022 50.8855 14.0572 50.8572 13.9068 50.8572C13.7565 50.8572 13.6114 50.8855 13.4717 50.9404C13.3319 50.997 13.2063 51.0766 13.0966 51.1792C12.9887 51.2818 12.9021 51.402 12.8384 51.5383C12.7747 51.6745 12.7393 51.8177 12.7305 51.9681V66.8236C12.7305 66.9793 12.7605 67.1296 12.8207 67.2729C12.8791 67.418 12.9657 67.5436 13.0754 67.655C13.1851 67.7647 13.3124 67.8496 13.4575 67.9097C13.6026 67.9699 13.7529 68 13.9086 68Z" fill="#0D313B"/>
</g>
<path id="Vector_13" d="M22.1275 27.0033C22.338 27.0051 22.5343 26.9521 22.7165 26.8477L25.7113 25.1212C25.8458 25.0434 25.9608 24.9425 26.0563 24.8205C26.1518 24.6967 26.219 24.5605 26.2597 24.4101C26.3004 24.2597 26.3092 24.1058 26.2898 23.9519C26.2686 23.798 26.2208 23.653 26.143 23.5185C26.0651 23.3841 25.9643 23.2691 25.8405 23.1736C25.7166 23.0799 25.5804 23.0109 25.4283 22.9719C25.278 22.9313 25.1258 22.9206 24.9719 22.9401C24.8163 22.9613 24.673 23.0109 24.5368 23.0887L21.5384 24.8152C21.427 24.8789 21.3279 24.9602 21.2412 25.0575C21.1563 25.153 21.0891 25.2627 21.0396 25.3812C20.9901 25.5015 20.96 25.6253 20.9511 25.7545C20.9441 25.8836 20.9564 26.011 20.9901 26.1348C21.0237 26.2604 21.0767 26.3771 21.1475 26.4833C21.22 26.5912 21.3085 26.6849 21.4111 26.7628C21.5137 26.8424 21.6269 26.9008 21.7489 26.9432C21.8728 26.9839 21.9983 27.0051 22.1275 27.0033Z" fill="#0D313B"/>
<path id="Vector_14" d="M50.3942 27.0033C50.5234 27.0051 50.649 26.9838 50.7728 26.9432C50.8948 26.9007 51.0081 26.8423 51.1107 26.7627C51.2133 26.6849 51.3017 26.5911 51.3742 26.4832C51.445 26.3771 51.4981 26.2604 51.5317 26.1348C51.5653 26.0109 51.5777 25.8836 51.5706 25.7544C51.5617 25.6253 51.5317 25.5015 51.4821 25.3812C51.4326 25.2627 51.3654 25.153 51.2805 25.0575C51.1938 24.9602 51.0947 24.8788 50.9833 24.8151L47.9885 23.0887C47.854 23.0108 47.709 22.9613 47.5533 22.9418C47.3994 22.9206 47.2473 22.9312 47.0969 22.9719C46.9466 23.0126 46.8086 23.0798 46.6866 23.1753C46.5627 23.2691 46.4619 23.3841 46.3841 23.5185C46.3062 23.6529 46.2567 23.798 46.2372 23.9519C46.216 24.1076 46.2266 24.2597 46.2673 24.41C46.308 24.5604 46.3752 24.6966 46.469 24.8204C46.5645 24.9425 46.6795 25.0433 46.8139 25.1212L49.8087 26.8476C49.9892 26.952 50.1855 27.0033 50.3942 27.0033Z" fill="#0D313B"/>
</g>
</g>
</svg>
