<svg width="88" height="88" viewBox="0 0 88 88" fill="none" xmlns="http://www.w3.org/2000/svg">
<path d="M12.7234 18.3333C11.9167 18.3333 11.1467 18.6267 10.5234 19.1033C8.91002 20.35 8.61669 22.66 9.86335 24.2367V24.2733L25.6667 44.5133V66.1833L39.0134 79.6033C40.3334 81.0333 42.7534 81.0333 44.1834 79.6033C45.6134 78.1733 45.6134 75.8633 44.22 74.4333L33 63.14V41.9833L15.6567 19.7633C14.96 18.8467 13.86 18.3333 12.7234 18.3333ZM79.2734 11.8067C78.5767 11.2933 77.8067 11 77 11H25.6667C24.86 11 24.09 11.2933 23.3934 11.8067C22.6323 12.4063 22.1395 13.2829 22.0227 14.2447C21.9059 15.2066 22.1746 16.1756 22.77 16.94L40.3334 39.4167V58.19C40.1867 59.2533 40.5534 60.39 41.3967 61.2333L56.1 75.9367C57.53 77.3667 59.84 77.3667 61.27 75.9367C62.1134 75.1667 62.48 73.9933 62.3334 72.8933V39.4167L79.8967 16.94C80.4921 16.1756 80.7608 15.2066 80.644 14.2447C80.5272 13.2829 80.0344 12.4063 79.2734 11.8067ZM55 36.85V64.46L47.6667 57.1267V36.8867L33.1467 18.3333H69.52L55 36.85Z" fill="#515151"/>
</svg>
