<?xml version="1.0" standalone="no"?>
<!DOCTYPE svg PUBLIC "-//W3C//DTD SVG 20010904//EN"
 "http://www.w3.org/TR/2001/REC-SVG-20010904/DTD/svg10.dtd">
<svg version="1.0" xmlns="http://www.w3.org/2000/svg"
 width="1014.000000pt" height="429.000000pt" viewBox="0 0 1014.000000 429.000000"
 preserveAspectRatio="xMidYMid meet">

<g transform="translate(0.000000,429.000000) scale(0.100000,-0.100000)"
fill="#787373" stroke="none">
<path d="M1425 3870 c-407 -86 -732 -376 -858 -765 -53 -164 -52 -151 -52
-910 l0 -710 27 -98 c131 -476 506 -803 983 -858 61 -7 1257 -9 3650 -7 l3560
4 85 21 c225 56 400 153 555 307 169 168 280 383 320 622 14 87 16 185 13 779
l-4 680 -26 96 c-36 134 -79 230 -147 336 -137 212 -341 375 -574 458 -196 70
113 65 -3857 64 -3476 0 -3588 -1 -3675 -19z m7430 -123 c125 -39 240 -96 333
-167 194 -146 324 -338 390 -578 l27 -97 0 -695 c0 -687 0 -696 -22 -783 -32
-125 -77 -227 -146 -330 -148 -221 -364 -373 -624 -440 l-88 -22 -3615 0
-3615 0 -89 23 c-430 109 -739 466 -786 907 -13 122 -13 1157 0 1284 47 452
371 817 810 911 81 18 236 19 3710 17 l3625 -2 90 -28z"/>
<path d="M3260 2666 c0 -23 -5 -25 -65 -31 -60 -7 -65 -9 -65 -31 0 -22 -4
-24 -50 -24 -49 0 -50 -1 -50 -30 0 -26 -3 -30 -29 -30 -27 0 -29 -3 -36 -55
-6 -50 -9 -55 -31 -55 -23 0 -24 -3 -24 -60 0 -57 -1 -60 -25 -60 l-25 0 0
-109 c0 -106 1 -110 23 -113 19 -3 22 -10 25 -60 3 -54 5 -58 27 -58 21 0 24
-6 30 -54 7 -50 10 -55 34 -58 20 -2 27 -9 29 -30 3 -26 6 -28 52 -28 46 0 49
-2 52 -27 3 -27 6 -28 66 -31 58 -3 62 -4 62 -27 0 -25 0 -25 105 -25 105 0
105 0 105 25 0 23 4 24 63 27 59 3 62 4 65 31 3 25 6 27 52 27 46 0 49 2 52
28 2 21 9 28 30 30 24 3 27 8 34 58 6 48 9 54 30 54 21 0 23 5 26 58 3 50 6
57 26 60 21 3 22 7 22 112 0 105 -1 109 -22 112 -20 3 -23 10 -26 61 -3 53 -5
57 -27 57 -21 0 -24 6 -30 55 -7 52 -9 55 -36 55 -26 0 -29 4 -29 30 0 29 -1
30 -50 30 -46 0 -50 2 -50 24 0 22 -5 24 -65 31 -60 6 -65 8 -65 31 0 24 -1
24 -105 24 -104 0 -105 0 -105 -24z"/>
<path d="M4980 2666 c0 -23 -5 -25 -65 -31 -60 -7 -65 -9 -65 -31 0 -22 -4
-24 -49 -24 -47 0 -50 -2 -53 -27 -2 -22 -9 -29 -29 -31 -24 -3 -27 -8 -34
-58 -6 -48 -9 -54 -30 -54 -22 0 -24 -4 -27 -57 -3 -51 -6 -58 -25 -61 -18 -3
-23 -12 -29 -58 -3 -30 -3 -78 0 -108 6 -46 11 -55 29 -58 19 -3 22 -10 25
-60 3 -53 5 -58 26 -58 21 0 24 -6 30 -54 7 -50 10 -55 34 -58 21 -2 28 -9 30
-30 3 -24 8 -27 50 -30 40 -3 47 -6 52 -28 5 -23 11 -25 68 -28 58 -3 62 -4
62 -27 0 -25 0 -25 105 -25 105 0 105 0 105 25 0 23 4 24 63 27 59 3 62 4 65
31 3 25 6 27 53 27 48 0 49 1 49 30 0 26 3 30 29 30 27 0 29 3 36 55 5 45 10
55 25 55 16 0 20 10 26 60 6 55 9 60 30 60 24 0 24 1 24 110 l0 110 -25 0
c-22 0 -24 4 -27 58 -3 50 -6 57 -25 60 -18 3 -23 12 -29 58 -6 51 -8 54 -35
54 -26 0 -29 4 -29 30 0 29 -1 30 -50 30 -46 0 -50 2 -50 24 0 22 -5 24 -65
31 -60 6 -65 8 -65 31 0 24 -1 24 -105 24 -104 0 -105 0 -105 -24z"/>
<path d="M6690 2666 c0 -22 -5 -25 -60 -31 -55 -6 -60 -9 -60 -31 0 -22 -4
-24 -55 -24 -54 0 -55 0 -55 -30 0 -25 -4 -30 -25 -30 -20 0 -25 -5 -25 -24 0
-14 -4 -28 -10 -31 -5 -3 -10 -17 -10 -31 0 -17 -6 -24 -19 -24 -16 0 -20 -10
-26 -60 -6 -55 -9 -60 -31 -60 -24 0 -24 -1 -24 -110 0 -109 0 -110 24 -110
22 0 25 -5 31 -60 6 -50 10 -60 26 -60 13 0 19 -7 19 -24 0 -14 5 -28 10 -31
6 -3 10 -17 10 -31 0 -19 5 -24 25 -24 21 0 25 -5 25 -29 0 -29 2 -30 53 -33
48 -3 52 -5 55 -30 3 -27 5 -28 63 -28 56 0 59 -1 59 -25 l0 -25 105 0 105 0
0 25 c0 24 2 25 64 25 63 0 65 1 68 28 3 25 7 27 56 30 50 3 52 4 52 33 0 24
4 29 24 29 22 0 25 5 31 55 7 49 10 55 30 55 21 0 24 6 30 60 6 55 9 60 31 60
24 0 24 1 24 110 0 109 0 110 -24 110 -22 0 -25 5 -31 60 -6 54 -9 60 -30 60
-21 0 -24 6 -30 55 -7 49 -10 55 -31 55 -20 0 -24 5 -24 30 0 30 -1 30 -55 30
-51 0 -55 2 -55 24 0 22 -5 25 -60 31 -55 6 -60 9 -60 31 0 24 -1 24 -110 24
-109 0 -110 0 -110 -24z"/>
</g>
</svg>
