<svg width="72" height="72" viewBox="0 0 72 72" fill="none" xmlns="http://www.w3.org/2000/svg">
<path d="M8.6691 5.23405C7.04646 5.81529 5.79921 7.07465 5.23008 8.72151C5.01211 9.37541 5 10.1141 5 35.9916C5 61.8691 5.01211 62.6077 5.23008 63.2616C5.79921 64.9327 7.05857 66.1921 8.71754 66.7612C9.38355 66.9792 9.89214 66.9913 28.6131 66.9913C47.334 66.9913 47.8426 66.9792 48.5086 66.7612C50.1675 66.1921 51.4269 64.9327 51.996 63.2616C52.214 62.644 52.2261 62.196 52.2261 57.1586V51.7336L58.8499 43.8989C66.3334 35.0349 66.1881 35.2045 66.5998 34.2963C67.0599 33.3033 67.1326 31.5717 66.7693 30.4576C66.2486 28.8471 65.074 27.5998 63.5483 27.0065C62.9428 26.7764 62.6037 26.728 61.4897 26.7401C59.0799 26.7522 58.5835 27.1034 54.9749 31.3658L52.2866 34.5385L52.2261 25.069C52.1656 14.8851 52.2019 15.4422 51.5238 14.207C51.1726 13.5894 50.4097 12.8144 46.3168 8.93948C43.1805 5.97271 42.7082 5.59732 41.6547 5.24615C40.9282 4.99186 40.7707 4.99186 25.1135 5.00397C10.0253 5.00397 9.27457 5.01608 8.6691 5.23405ZM37.695 13.4926C37.695 18.0699 37.7071 18.3968 37.9251 18.7238C38.0462 18.9054 38.3126 19.1718 38.4942 19.2929C38.8212 19.5109 39.1481 19.523 43.7254 19.523H48.5933V29.2225V38.9099L44.5488 43.6931C42.3328 46.3329 40.359 48.7547 40.1895 49.0696C39.9715 49.4692 39.5477 50.9707 38.9059 53.6711C38.3731 55.875 37.9372 57.8003 37.9372 57.9457C37.9372 58.43 38.4579 59.2656 38.9059 59.5077C39.7293 59.9316 40.0805 59.8347 43.8949 58.1878C45.8445 57.3523 47.6367 56.541 47.8668 56.3957C48.0968 56.2504 48.3633 56.0929 48.448 56.0445C48.5812 55.9597 48.6054 56.4804 48.5691 58.9507C48.5328 61.7964 48.5207 61.9901 48.2664 62.3898C48.1211 62.6198 47.8183 62.9226 47.6004 63.0558C47.2008 63.2979 46.9828 63.2979 28.6131 63.2979C10.2433 63.2979 10.0253 63.2979 9.62574 63.0558C9.40777 62.9226 9.10504 62.6198 8.95973 62.3898L8.69332 61.9659V35.9916V10.0172L8.95973 9.59338C9.25035 9.12112 9.60152 8.86683 10.1464 8.73362C10.3523 8.68519 16.6249 8.64885 24.1084 8.63675L37.695 8.62464V13.4926ZM46.232 14.1222L48.0484 15.8781H44.6941L41.3278 15.8902V12.6691V9.44807L42.8778 10.9012C43.7254 11.7004 45.2391 13.1535 46.232 14.1222ZM62.4463 30.6514C62.967 31.0026 63.2455 31.499 63.2455 32.1166C63.2455 32.7342 63.0518 33.0975 62.2647 33.9693L61.7319 34.5506L60.4241 33.4365C59.2616 32.4557 59.1284 32.3104 59.2737 32.1408C60.4483 30.7119 60.8479 30.4213 61.6108 30.4213C61.8772 30.4213 62.2526 30.5182 62.4463 30.6514ZM57.9538 36.3185C58.6319 36.8877 59.1768 37.4326 59.1768 37.5052C59.1647 37.59 56.9729 40.254 54.2847 43.4267C50.9788 47.3379 49.3683 49.1664 49.2593 49.0938C49.005 48.9485 46.789 47.0715 46.789 46.9989C46.7769 46.9262 56.6097 35.265 56.6823 35.265C56.7065 35.265 57.2757 35.7373 57.9538 36.3185ZM45.7961 51.1281C46.3894 51.6246 46.8859 52.0727 46.8859 52.1332C46.898 52.1816 46.668 52.4481 46.3894 52.7266C46.0019 53.102 45.457 53.4047 44.2461 53.9254C43.35 54.3129 42.5992 54.6156 42.575 54.6035C42.5629 54.5793 42.7446 53.7801 42.9746 52.8234C43.3863 51.1039 43.5317 50.7285 44.0281 50.1836C44.3188 49.8688 44.1977 49.8082 45.7961 51.1281Z" fill="#0B2D1F"/>
<path d="M46.232 14.1222L48.0484 15.8781H44.6941L41.3278 15.8902V12.6691V9.44807L42.8778 10.9012C43.7254 11.7004 45.2391 13.1535 46.232 14.1222Z" fill="#62C89E"/>
<path d="M57.9538 36.3185C58.6319 36.8877 59.1768 37.4326 59.1768 37.5052C59.1647 37.59 56.9729 40.254 54.2847 43.4267C50.9788 47.3379 49.3683 49.1664 49.2593 49.0938C49.005 48.9485 46.789 47.0715 46.789 46.9989C46.7769 46.9262 56.6097 35.265 56.6823 35.265C56.7065 35.265 57.2757 35.7373 57.9538 36.3185Z" fill="#62C89E"/>
<path d="M13.0648 48.9363C12.5078 49.3117 12.2656 49.7719 12.2656 50.5227C12.2656 51.2734 12.5078 51.7336 13.0648 52.109C13.4039 52.3269 13.8156 52.3391 23.164 52.3391C32.5123 52.3391 32.924 52.3269 33.2631 52.109C33.8201 51.7336 34.0623 51.2734 34.0623 50.5227C34.0623 49.7719 33.8201 49.3117 33.2631 48.9363C32.924 48.7184 32.5123 48.7063 23.164 48.7063C13.8156 48.7063 13.4039 48.7184 13.0648 48.9363Z" fill="#0B2D1F"/>
<g clip-path="url(#clip0_5985_45031)">
<mask id="path-3-outside-1_5985_45031" maskUnits="userSpaceOnUse" x="11.75" y="18.7102" width="27" height="27" fill="black">
<rect fill="white" x="11.75" y="18.7102" width="27" height="27"/>
<path d="M16.4396 19.6312C16.3412 19.7394 16.3363 19.7886 16.3511 20.5068C16.3658 21.2447 16.3708 21.2792 16.5085 21.5301C16.5921 21.6776 16.7397 21.8597 16.8381 21.9384C17.1579 22.1893 17.3153 22.2286 18.0089 22.2286H18.6435L19.0223 23.3601C19.4503 24.6342 19.5782 24.8408 20.0554 25.0622C20.2718 25.1655 20.3751 25.1802 20.9015 25.1802H21.5017L21.5164 27.1578L21.5312 29.1403L21.6739 29.4011C21.9198 29.8389 22.3281 30.0996 22.7856 30.0996H23.0316V30.6752C23.0316 31.3344 23.0808 31.5558 23.2628 31.7722C23.4399 31.9887 23.6269 32.0674 23.9417 32.0674H24.2123V33.8236C24.2172 35.7126 24.227 35.7914 24.473 36.121C24.5419 36.2095 24.6796 36.3227 24.7731 36.3669L24.9502 36.4506V38.192C24.9502 39.5547 24.9354 39.9384 24.8911 39.9384C24.8567 39.9384 24.7091 39.8695 24.5714 39.7908C24.109 39.5252 23.7695 38.9594 23.7695 38.4626C23.7695 38.3396 23.7351 38.2511 23.6564 38.1773L23.5432 38.069H19.0912H14.6391L14.3833 38.1969C14.1078 38.3347 13.9406 38.5069 13.7684 38.8266C13.6651 39.0185 13.6602 39.0923 13.6454 40.514L13.6307 42.0045H13.2715C12.7304 42.0045 12.7501 41.9504 12.7501 43.3672C12.7501 44.4495 12.7599 44.5528 12.8386 44.6266C12.9223 44.7053 13.8619 44.7102 25.3536 44.7102C37.3224 44.7102 37.7799 44.7053 37.8537 44.6217C37.9275 44.5429 37.9373 44.3806 37.9373 43.3475C37.9373 41.9455 37.9619 42.0045 37.4061 42.0045H37.0568L37.042 40.5189C37.0273 39.0923 37.0223 39.0185 36.919 38.8266C36.7469 38.5069 36.5796 38.3347 36.3041 38.1969L36.0483 38.069H31.5815C27.1491 38.069 27.1196 38.069 27.0261 38.1674C26.9622 38.2363 26.9228 38.3691 26.9032 38.5561C26.8786 38.8758 26.6916 39.289 26.485 39.5153C26.3424 39.6629 25.8996 39.9384 25.8012 39.9384C25.752 39.9384 25.7373 39.5547 25.7373 38.192C25.7373 36.5686 25.7422 36.4407 25.8258 36.4112C26.0029 36.3423 26.1948 36.1652 26.3178 35.9537L26.4506 35.7323L26.4653 33.9023L26.4801 32.0674H26.7999C27.1983 32.0674 27.4049 31.9838 27.587 31.7427C27.7247 31.5607 27.7296 31.5459 27.7444 30.8326L27.7591 30.1095L28.0248 30.0898C28.5069 30.0504 28.989 29.6274 29.1316 29.1256C29.1612 29.0174 29.1808 28.1909 29.1808 27.0594V25.1802H29.7859C30.3123 25.1802 30.4156 25.1655 30.6321 25.0622C31.1092 24.8408 31.2371 24.6342 31.6651 23.3601L32.0439 22.2286H32.6933C33.2934 22.2286 33.3623 22.2188 33.5984 22.1007C33.8739 21.963 34.0461 21.7908 34.2134 21.471C34.3068 21.2939 34.3216 21.1759 34.3364 20.5167C34.356 19.7886 34.3511 19.7542 34.2429 19.641L34.1347 19.5229H25.3388H16.5429L16.4396 19.6312ZM33.5591 20.6101C33.5591 21.0283 33.4607 21.2644 33.2443 21.3825C33.1016 21.4612 32.5555 21.4661 25.3437 21.4661C18.1319 21.4661 17.5858 21.4612 17.4432 21.3825C17.2267 21.2644 17.1283 21.0283 17.1283 20.6101V20.2609H25.3437H33.5591V20.6101ZM30.8731 23.1731C30.6862 23.729 30.514 24.1619 30.45 24.2308C30.391 24.2948 30.2631 24.3636 30.1696 24.3931C29.9286 24.4571 20.7589 24.4571 20.5178 24.3931C20.4243 24.3636 20.2964 24.2948 20.2374 24.2308C20.1734 24.1619 20.0013 23.729 19.8143 23.1731L19.4946 22.2286H25.3437H31.1929L30.8731 23.1731ZM28.3937 27.0053C28.3937 29.0272 28.3839 29.0862 28.0789 29.2535C27.9412 29.3273 27.6853 29.3371 25.3437 29.3371C23.0021 29.3371 22.7463 29.3273 22.6085 29.2535C22.3035 29.0862 22.2937 29.0272 22.2937 27.0053V25.1802H25.3437H28.3937V27.0053ZM26.9671 30.685C26.9671 31.1721 26.9524 31.2754 26.8884 31.3C26.7507 31.3541 24.0155 31.3344 23.9122 31.2803C23.8285 31.2311 23.8187 31.1721 23.8187 30.6654V30.0996H25.3929H26.9671V30.685ZM25.6881 33.7892C25.6881 35.447 25.6832 35.5159 25.5897 35.6093C25.5356 35.6635 25.4273 35.7077 25.3437 35.7077C25.2601 35.7077 25.1519 35.6635 25.0977 35.6093C25.0043 35.5159 24.9994 35.447 24.9994 33.7892V32.0674H25.3437H25.6881V33.7892ZM23.0513 38.9939C23.0906 39.2546 23.3415 39.7367 23.5727 40.0024C24.3352 40.8632 25.693 41.0403 26.6572 40.3959C27.1295 40.086 27.5624 39.4612 27.6411 38.9939L27.6706 38.8069L31.734 38.8168C35.458 38.8315 35.8122 38.8365 35.9499 38.9152C36.2451 39.0775 36.2648 39.1907 36.2648 40.6714V42.0045H25.3437H14.4227V40.6714C14.4227 39.0578 14.4374 38.9988 14.9097 38.8512C14.9786 38.8315 16.8332 38.8119 19.0272 38.8119L23.0168 38.8069L23.0513 38.9939ZM37.1994 43.3574V43.9723H25.3437H13.488V43.3574V42.7425H25.3437H37.1994V43.3574Z"/>
<path d="M30.8731 23.1731C30.6862 23.729 30.514 24.1619 30.45 24.2308C30.391 24.2948 30.2631 24.3636 30.1696 24.3931C29.9286 24.4571 20.7589 24.4571 20.5178 24.3931C20.4243 24.3636 20.2964 24.2948 20.2374 24.2308C20.1734 24.1619 20.0013 23.729 19.8143 23.1731L19.4946 22.2286H25.3437H31.1929L30.8731 23.1731Z"/>
<path d="M33.5591 20.6101C33.5591 21.0283 33.4607 21.2644 33.2443 21.3825C33.1016 21.4612 32.5555 21.4661 25.3437 21.4661C18.1319 21.4661 17.5858 21.4612 17.4432 21.3825C17.2267 21.2644 17.1283 21.0283 17.1283 20.6101V20.2609H25.3437H33.5591V20.6101Z"/>
<path d="M28.3937 27.0053C28.3937 29.0272 28.3839 29.0862 28.0789 29.2535C27.9412 29.3273 27.6853 29.3371 25.3437 29.3371C23.0021 29.3371 22.7463 29.3273 22.6085 29.2535C22.3035 29.0862 22.2937 29.0272 22.2937 27.0053V25.1802H25.3437H28.3937V27.0053Z"/>
<path d="M26.9671 30.685C26.9671 31.1721 26.9524 31.2754 26.8884 31.3C26.7507 31.3541 24.0155 31.3344 23.9122 31.2803C23.8285 31.2311 23.8187 31.1721 23.8187 30.6654V30.0996H25.3929H26.9671V30.685Z"/>
<path d="M23.0513 38.9939C23.0906 39.2546 23.3415 39.7367 23.5727 40.0024C24.3352 40.8632 25.693 41.0403 26.6572 40.3959C27.1295 40.086 27.5624 39.4612 27.6411 38.9939L27.6706 38.8069L31.734 38.8168C35.458 38.8315 35.8122 38.8365 35.9499 38.9152C36.2451 39.0775 36.2648 39.1907 36.2648 40.6714V42.0045H25.3437H14.4227V40.6714C14.4227 39.0578 14.4374 38.9988 14.9097 38.8512C14.9786 38.8315 16.8332 38.8119 19.0272 38.8119L23.0168 38.8069L23.0513 38.9939Z"/>
<path d="M37.1994 43.3574V43.9723H25.3437H13.488V43.3574V42.7425H25.3437H37.1994V43.3574Z"/>
<path d="M25.6881 33.7892C25.6881 35.447 25.6832 35.5159 25.5897 35.6093C25.5356 35.6635 25.4273 35.7077 25.3437 35.7077C25.2601 35.7077 25.1519 35.6635 25.0977 35.6093C25.0043 35.5159 24.9994 35.447 24.9994 33.7892V32.0674H25.3437H25.6881V33.7892Z"/>
</mask>
<path d="M16.4396 19.6312C16.3412 19.7394 16.3363 19.7886 16.3511 20.5068C16.3658 21.2447 16.3708 21.2792 16.5085 21.5301C16.5921 21.6776 16.7397 21.8597 16.8381 21.9384C17.1579 22.1893 17.3153 22.2286 18.0089 22.2286H18.6435L19.0223 23.3601C19.4503 24.6342 19.5782 24.8408 20.0554 25.0622C20.2718 25.1655 20.3751 25.1802 20.9015 25.1802H21.5017L21.5164 27.1578L21.5312 29.1403L21.6739 29.4011C21.9198 29.8389 22.3281 30.0996 22.7856 30.0996H23.0316V30.6752C23.0316 31.3344 23.0808 31.5558 23.2628 31.7722C23.4399 31.9887 23.6269 32.0674 23.9417 32.0674H24.2123V33.8236C24.2172 35.7126 24.227 35.7914 24.473 36.121C24.5419 36.2095 24.6796 36.3227 24.7731 36.3669L24.9502 36.4506V38.192C24.9502 39.5547 24.9354 39.9384 24.8911 39.9384C24.8567 39.9384 24.7091 39.8695 24.5714 39.7908C24.109 39.5252 23.7695 38.9594 23.7695 38.4626C23.7695 38.3396 23.7351 38.2511 23.6564 38.1773L23.5432 38.069H19.0912H14.6391L14.3833 38.1969C14.1078 38.3347 13.9406 38.5069 13.7684 38.8266C13.6651 39.0185 13.6602 39.0923 13.6454 40.514L13.6307 42.0045H13.2715C12.7304 42.0045 12.7501 41.9504 12.7501 43.3672C12.7501 44.4495 12.7599 44.5528 12.8386 44.6266C12.9223 44.7053 13.8619 44.7102 25.3536 44.7102C37.3224 44.7102 37.7799 44.7053 37.8537 44.6217C37.9275 44.5429 37.9373 44.3806 37.9373 43.3475C37.9373 41.9455 37.9619 42.0045 37.4061 42.0045H37.0568L37.042 40.5189C37.0273 39.0923 37.0223 39.0185 36.919 38.8266C36.7469 38.5069 36.5796 38.3347 36.3041 38.1969L36.0483 38.069H31.5815C27.1491 38.069 27.1196 38.069 27.0261 38.1674C26.9622 38.2363 26.9228 38.3691 26.9032 38.5561C26.8786 38.8758 26.6916 39.289 26.485 39.5153C26.3424 39.6629 25.8996 39.9384 25.8012 39.9384C25.752 39.9384 25.7373 39.5547 25.7373 38.192C25.7373 36.5686 25.7422 36.4407 25.8258 36.4112C26.0029 36.3423 26.1948 36.1652 26.3178 35.9537L26.4506 35.7323L26.4653 33.9023L26.4801 32.0674H26.7999C27.1983 32.0674 27.4049 31.9838 27.587 31.7427C27.7247 31.5607 27.7296 31.5459 27.7444 30.8326L27.7591 30.1095L28.0248 30.0898C28.5069 30.0504 28.989 29.6274 29.1316 29.1256C29.1612 29.0174 29.1808 28.1909 29.1808 27.0594V25.1802H29.7859C30.3123 25.1802 30.4156 25.1655 30.6321 25.0622C31.1092 24.8408 31.2371 24.6342 31.6651 23.3601L32.0439 22.2286H32.6933C33.2934 22.2286 33.3623 22.2188 33.5984 22.1007C33.8739 21.963 34.0461 21.7908 34.2134 21.471C34.3068 21.2939 34.3216 21.1759 34.3364 20.5167C34.356 19.7886 34.3511 19.7542 34.2429 19.641L34.1347 19.5229H25.3388H16.5429L16.4396 19.6312ZM33.5591 20.6101C33.5591 21.0283 33.4607 21.2644 33.2443 21.3825C33.1016 21.4612 32.5555 21.4661 25.3437 21.4661C18.1319 21.4661 17.5858 21.4612 17.4432 21.3825C17.2267 21.2644 17.1283 21.0283 17.1283 20.6101V20.2609H25.3437H33.5591V20.6101ZM30.8731 23.1731C30.6862 23.729 30.514 24.1619 30.45 24.2308C30.391 24.2948 30.2631 24.3636 30.1696 24.3931C29.9286 24.4571 20.7589 24.4571 20.5178 24.3931C20.4243 24.3636 20.2964 24.2948 20.2374 24.2308C20.1734 24.1619 20.0013 23.729 19.8143 23.1731L19.4946 22.2286H25.3437H31.1929L30.8731 23.1731ZM28.3937 27.0053C28.3937 29.0272 28.3839 29.0862 28.0789 29.2535C27.9412 29.3273 27.6853 29.3371 25.3437 29.3371C23.0021 29.3371 22.7463 29.3273 22.6085 29.2535C22.3035 29.0862 22.2937 29.0272 22.2937 27.0053V25.1802H25.3437H28.3937V27.0053ZM26.9671 30.685C26.9671 31.1721 26.9524 31.2754 26.8884 31.3C26.7507 31.3541 24.0155 31.3344 23.9122 31.2803C23.8285 31.2311 23.8187 31.1721 23.8187 30.6654V30.0996H25.3929H26.9671V30.685ZM25.6881 33.7892C25.6881 35.447 25.6832 35.5159 25.5897 35.6093C25.5356 35.6635 25.4273 35.7077 25.3437 35.7077C25.2601 35.7077 25.1519 35.6635 25.0977 35.6093C25.0043 35.5159 24.9994 35.447 24.9994 33.7892V32.0674H25.3437H25.6881V33.7892ZM23.0513 38.9939C23.0906 39.2546 23.3415 39.7367 23.5727 40.0024C24.3352 40.8632 25.693 41.0403 26.6572 40.3959C27.1295 40.086 27.5624 39.4612 27.6411 38.9939L27.6706 38.8069L31.734 38.8168C35.458 38.8315 35.8122 38.8365 35.9499 38.9152C36.2451 39.0775 36.2648 39.1907 36.2648 40.6714V42.0045H25.3437H14.4227V40.6714C14.4227 39.0578 14.4374 38.9988 14.9097 38.8512C14.9786 38.8315 16.8332 38.8119 19.0272 38.8119L23.0168 38.8069L23.0513 38.9939ZM37.1994 43.3574V43.9723H25.3437H13.488V43.3574V42.7425H25.3437H37.1994V43.3574Z" fill="#0B2D1F"/>
<path d="M30.8731 23.1731C30.6862 23.729 30.514 24.1619 30.45 24.2308C30.391 24.2948 30.2631 24.3636 30.1696 24.3931C29.9286 24.4571 20.7589 24.4571 20.5178 24.3931C20.4243 24.3636 20.2964 24.2948 20.2374 24.2308C20.1734 24.1619 20.0013 23.729 19.8143 23.1731L19.4946 22.2286H25.3437H31.1929L30.8731 23.1731Z" fill="#22885E"/>
<path d="M33.5591 20.6101C33.5591 21.0283 33.4607 21.2644 33.2443 21.3825C33.1016 21.4612 32.5555 21.4661 25.3437 21.4661C18.1319 21.4661 17.5858 21.4612 17.4432 21.3825C17.2267 21.2644 17.1283 21.0283 17.1283 20.6101V20.2609H25.3437H33.5591V20.6101Z" fill="#22885E"/>
<path d="M28.3937 27.0053C28.3937 29.0272 28.3839 29.0862 28.0789 29.2535C27.9412 29.3273 27.6853 29.3371 25.3437 29.3371C23.0021 29.3371 22.7463 29.3273 22.6085 29.2535C22.3035 29.0862 22.2937 29.0272 22.2937 27.0053V25.1802H25.3437H28.3937V27.0053Z" fill="#22885E"/>
<path d="M26.9671 30.685C26.9671 31.1721 26.9524 31.2754 26.8884 31.3C26.7507 31.3541 24.0155 31.3344 23.9122 31.2803C23.8285 31.2311 23.8187 31.1721 23.8187 30.6654V30.0996H25.3929H26.9671V30.685Z" fill="#22885E"/>
<path d="M23.0513 38.9939C23.0906 39.2546 23.3415 39.7367 23.5727 40.0024C24.3352 40.8632 25.693 41.0403 26.6572 40.3959C27.1295 40.086 27.5624 39.4612 27.6411 38.9939L27.6706 38.8069L31.734 38.8168C35.458 38.8315 35.8122 38.8365 35.9499 38.9152C36.2451 39.0775 36.2648 39.1907 36.2648 40.6714V42.0045H25.3437H14.4227V40.6714C14.4227 39.0578 14.4374 38.9988 14.9097 38.8512C14.9786 38.8315 16.8332 38.8119 19.0272 38.8119L23.0168 38.8069L23.0513 38.9939Z" fill="#22885E"/>
<path d="M37.1994 43.3574V43.9723H25.3437H13.488V43.3574V42.7425H25.3437H37.1994V43.3574Z" fill="#22885E"/>
<path d="M25.6881 33.7892C25.6881 35.447 25.6832 35.5159 25.5897 35.6093C25.5356 35.6635 25.4273 35.7077 25.3437 35.7077C25.2601 35.7077 25.1519 35.6635 25.0977 35.6093C25.0043 35.5159 24.9994 35.447 24.9994 33.7892V32.0674H25.3437H25.6881V33.7892Z" fill="#22885E"/>
<path d="M33.2443 21.3825L33.1959 21.2949L33.1964 21.2947L33.2443 21.3825ZM17.4432 21.3825L17.4911 21.2947L17.4915 21.2949L17.4432 21.3825ZM17.1283 20.2609H17.0283V20.1609H17.1283V20.2609ZM33.5591 20.2609V20.1609H33.6591V20.2609H33.5591ZM30.8731 23.1731L30.7783 23.1413L30.7784 23.1411L30.8731 23.1731ZM30.45 24.2308L30.3766 24.163L30.3768 24.1628L30.45 24.2308ZM30.1696 24.3931L30.1998 24.4886L30.1953 24.4898L30.1696 24.3931ZM20.5178 24.3931L20.4921 24.4899L20.4877 24.4885L20.5178 24.3931ZM20.2374 24.2308L20.3107 24.1628L20.3109 24.163L20.2374 24.2308ZM19.8143 23.1731L19.909 23.1411L19.9091 23.1413L19.8143 23.1731ZM19.4946 22.2286L19.3998 22.2607L19.3551 22.1286H19.4946V22.2286ZM31.1929 22.2286V22.1286H31.3323L31.2876 22.2607L31.1929 22.2286ZM28.0789 29.2535L28.127 29.3412L28.1261 29.3416L28.0789 29.2535ZM22.6085 29.2535L22.5613 29.3416L22.5605 29.3412L22.6085 29.2535ZM22.2937 25.1802H22.1937V25.0802H22.2937V25.1802ZM28.3937 25.1802V25.0802H28.4937V25.1802H28.3937ZM26.8884 31.3L26.8518 31.2069L26.8525 31.2066L26.8884 31.3ZM23.9122 31.2803L23.8657 31.369L23.8615 31.3665L23.9122 31.2803ZM23.8187 30.0996H23.7187V29.9996H23.8187V30.0996ZM26.9671 30.0996V29.9996H27.0671V30.0996H26.9671ZM24.9994 32.0674H24.8994V31.9674H24.9994V32.0674ZM25.6881 32.0674V31.9674H25.7881V32.0674H25.6881ZM23.0513 38.9939L23.1497 38.9758L23.1502 38.979L23.0513 38.9939ZM23.5727 40.0024L23.4979 40.0687L23.4973 40.068L23.5727 40.0024ZM26.6572 40.3959L26.6016 40.3128L26.6023 40.3123L26.6572 40.3959ZM27.6411 38.9939L27.7399 39.0095L27.7397 39.0105L27.6411 38.9939ZM27.6706 38.8069L27.5718 38.7913L27.5852 38.7067L27.6708 38.7069L27.6706 38.8069ZM31.734 38.8168L31.7342 38.7168L31.7344 38.7168L31.734 38.8168ZM35.9499 38.9152L35.9017 39.0028L35.9003 39.002L35.9499 38.9152ZM36.2648 42.0045H36.3648V42.1045H36.2648V42.0045ZM14.4227 42.0045V42.1045H14.3227V42.0045H14.4227ZM14.9097 38.8512L14.8799 38.7557L14.8822 38.7551L14.9097 38.8512ZM19.0272 38.8119L19.0274 38.9119H19.0272V38.8119ZM23.0168 38.8069L23.0167 38.7069L23.1001 38.7068L23.1152 38.7888L23.0168 38.8069ZM37.1994 43.9723H37.2994V44.0723H37.1994V43.9723ZM13.488 43.9723V44.0723H13.388V43.9723H13.488ZM13.488 42.7425H13.388V42.6425H13.488V42.7425ZM37.1994 42.7425V42.6425H37.2994V42.7425H37.1994ZM33.6591 20.6101C33.6591 21.0394 33.5582 21.3252 33.2921 21.4703L33.1964 21.2947C33.3632 21.2037 33.4591 21.0172 33.4591 20.6101H33.6591ZM33.2926 21.47C33.2343 21.5022 33.151 21.5172 32.97 21.5286C32.7832 21.5403 32.4737 21.5483 31.946 21.5538C30.8895 21.5649 28.9493 21.5661 25.3437 21.5661V21.3661C28.9499 21.3661 30.8887 21.3649 31.9439 21.3538C32.4719 21.3483 32.7765 21.3403 32.9575 21.3289C33.1445 21.3172 33.1829 21.3021 33.1959 21.2949L33.2926 21.47ZM25.3437 21.5661C21.7381 21.5661 19.798 21.5649 18.7415 21.5538C18.2137 21.5483 17.9043 21.5403 17.7174 21.5286C17.5365 21.5172 17.4531 21.5022 17.3949 21.47L17.4915 21.2949C17.5046 21.3021 17.543 21.3172 17.7299 21.3289C17.9109 21.3403 18.2155 21.3483 18.7436 21.3538C19.7987 21.3649 21.7375 21.3661 25.3437 21.3661V21.5661ZM17.3953 21.4703C17.1293 21.3252 17.0283 21.0394 17.0283 20.6101H17.2283C17.2283 21.0172 17.3242 21.2037 17.4911 21.2947L17.3953 21.4703ZM17.0283 20.6101V20.2609H17.2283V20.6101H17.0283ZM17.1283 20.1609H25.3437V20.3609H17.1283V20.1609ZM25.3437 20.1609H33.5591V20.3609H25.3437V20.1609ZM33.6591 20.2609V20.6101H33.4591V20.2609H33.6591ZM30.9679 23.205C30.874 23.4841 30.7836 23.7331 30.7083 23.9217C30.6707 24.0158 30.6365 24.096 30.6071 24.1576C30.5925 24.1884 30.5786 24.2156 30.5657 24.2381C30.5536 24.2592 30.5393 24.2816 30.5233 24.2988L30.3768 24.1628C30.3767 24.1628 30.3818 24.1566 30.3922 24.1386C30.4016 24.1221 30.4131 24.0999 30.4265 24.0717C30.4533 24.0154 30.4858 23.9397 30.5226 23.8475C30.5961 23.6634 30.6852 23.4181 30.7783 23.1413L30.9679 23.205ZM30.5235 24.2986C30.4839 24.3416 30.427 24.3808 30.372 24.4119C30.3159 24.4437 30.2542 24.4713 30.1998 24.4885L30.1395 24.2978C30.1786 24.2855 30.2275 24.2639 30.2735 24.2379C30.3206 24.2112 30.3572 24.184 30.3766 24.163L30.5235 24.2986ZM30.1953 24.4898C30.1772 24.4946 30.1514 24.4969 30.1291 24.4987C30.1031 24.5007 30.0692 24.5025 30.0285 24.5043C29.947 24.5078 29.8352 24.5111 29.6978 24.5141C29.4229 24.5201 29.0434 24.5251 28.5946 24.5291C27.6969 24.5371 26.5202 24.5411 25.3437 24.5411C24.1672 24.5411 22.9905 24.5371 22.0928 24.5291C21.644 24.5251 21.2646 24.5201 20.9897 24.5141C20.8523 24.5111 20.7405 24.5078 20.6589 24.5043C20.6182 24.5025 20.5844 24.5007 20.5584 24.4987C20.536 24.4969 20.5102 24.4946 20.4922 24.4898L20.5434 24.2965C20.5405 24.2957 20.5472 24.2972 20.5737 24.2992C20.5965 24.301 20.6278 24.3027 20.6676 24.3045C20.747 24.3079 20.8571 24.3112 20.994 24.3141C21.2677 24.3201 21.6461 24.3251 22.0946 24.3291C22.9915 24.3371 24.1675 24.3411 25.3437 24.3411C26.5199 24.3411 27.6959 24.3371 28.5929 24.3291C29.0414 24.3251 29.4198 24.3201 29.6934 24.3141C29.8303 24.3112 29.9404 24.3079 30.0198 24.3045C30.0596 24.3027 30.0909 24.301 30.1138 24.2992C30.1403 24.2972 30.147 24.2957 30.144 24.2965L30.1953 24.4898ZM20.4877 24.4885C20.4333 24.4713 20.3715 24.4437 20.3154 24.4119C20.2605 24.3808 20.2036 24.3416 20.1639 24.2986L20.3109 24.163C20.3303 24.184 20.3668 24.2112 20.414 24.2379C20.46 24.2639 20.5089 24.2855 20.5479 24.2978L20.4877 24.4885ZM20.1641 24.2988C20.1481 24.2816 20.1338 24.2592 20.1218 24.2381C20.1089 24.2156 20.095 24.1884 20.0803 24.1576C20.051 24.096 20.0167 24.0158 19.9791 23.9217C19.9038 23.7331 19.8134 23.4841 19.7195 23.205L19.9091 23.1413C20.0022 23.4181 20.0913 23.6634 20.1649 23.8475C20.2017 23.9397 20.2341 24.0154 20.2609 24.0717C20.2743 24.0999 20.2858 24.1221 20.2953 24.1386C20.3056 24.1566 20.3107 24.1628 20.3107 24.1628L20.1641 24.2988ZM19.7196 23.2052L19.3998 22.2607L19.5893 22.1965L19.909 23.1411L19.7196 23.2052ZM19.4946 22.1286H25.3437V22.3286H19.4946V22.1286ZM25.3437 22.1286H31.1929V22.3286H25.3437V22.1286ZM31.2876 22.2607L30.9678 23.2052L30.7784 23.1411L31.0981 22.1965L31.2876 22.2607ZM28.4937 27.0053C28.4937 28.0118 28.4916 28.5415 28.4497 28.8388C28.4286 28.989 28.3958 29.0944 28.3378 29.1745C28.2795 29.2553 28.2031 29.2994 28.127 29.3412L28.0308 29.1658C28.1072 29.1239 28.1464 29.098 28.1757 29.0574C28.2054 29.0163 28.2322 28.9492 28.2517 28.811C28.291 28.5314 28.2937 28.0208 28.2937 27.0053H28.4937ZM28.1261 29.3416C28.0328 29.3916 27.9094 29.4114 27.5409 29.4229C27.1651 29.4347 26.5139 29.4371 25.3437 29.4371V29.2371C26.5152 29.2371 27.1627 29.2347 27.5346 29.223C27.9139 29.2112 27.9872 29.1892 28.0317 29.1653L28.1261 29.3416ZM25.3437 29.4371C24.1736 29.4371 23.5224 29.4347 23.1465 29.4229C22.7781 29.4114 22.6546 29.3916 22.5613 29.3416L22.6558 29.1653C22.7002 29.1892 22.7735 29.2112 23.1528 29.223C23.5247 29.2347 24.1722 29.2371 25.3437 29.2371V29.4371ZM22.5605 29.3412C22.4843 29.2994 22.4079 29.2553 22.3496 29.1745C22.2917 29.0944 22.2589 28.989 22.2377 28.8388C22.1959 28.5415 22.1937 28.0118 22.1937 27.0053H22.3937C22.3937 28.0208 22.3964 28.5314 22.4358 28.811C22.4552 28.9492 22.482 29.0163 22.5117 29.0574C22.541 29.098 22.5802 29.1239 22.6566 29.1658L22.5605 29.3412ZM22.1937 27.0053V25.1802H22.3937V27.0053H22.1937ZM22.2937 25.0802H25.3437V25.2802H22.2937V25.0802ZM25.3437 25.0802H28.3937V25.2802H25.3437V25.0802ZM28.4937 25.1802V27.0053H28.2937V25.1802H28.4937ZM27.0671 30.685C27.0671 30.927 27.0636 31.0814 27.0509 31.1788C27.0446 31.2272 27.0351 31.2709 27.0171 31.3067C26.9967 31.3475 26.9658 31.3773 26.9243 31.3933L26.8525 31.2066C26.843 31.2103 26.8379 31.2179 26.8382 31.2173C26.8411 31.2116 26.8472 31.1944 26.8526 31.153C26.8633 31.0708 26.8671 30.93 26.8671 30.685H27.0671ZM26.925 31.393C26.9104 31.3987 26.895 31.4017 26.8846 31.4034C26.8725 31.4055 26.8585 31.4072 26.8436 31.4087C26.8135 31.4118 26.7751 31.4144 26.7303 31.4167C26.6405 31.4214 26.5207 31.4248 26.3816 31.4273C26.1031 31.4322 25.7441 31.4332 25.3867 31.4307C25.0292 31.4282 24.6725 31.4224 24.3983 31.4137C24.2613 31.4094 24.1441 31.4044 24.0575 31.3987C24.0143 31.3958 23.9775 31.3927 23.9491 31.3893C23.9351 31.3876 23.9217 31.3857 23.91 31.3834C23.9017 31.3817 23.8831 31.3779 23.8658 31.3689L23.9586 31.1917C23.9477 31.186 23.9407 31.1855 23.9488 31.1872C23.9536 31.1881 23.9614 31.1893 23.9731 31.1907C23.9962 31.1935 24.0289 31.1963 24.0707 31.1991C24.1539 31.2046 24.2684 31.2096 24.4046 31.2138C24.6766 31.2224 25.0316 31.2283 25.3881 31.2307C25.7445 31.2332 26.1017 31.2322 26.378 31.2273C26.5163 31.2249 26.6335 31.2215 26.7201 31.217C26.7635 31.2148 26.7981 31.2123 26.8233 31.2098C26.8359 31.2085 26.8452 31.2073 26.8515 31.2062C26.8595 31.2048 26.8578 31.2046 26.8518 31.2069L26.925 31.393ZM23.8615 31.3665C23.833 31.3497 23.8018 31.3268 23.7774 31.2876C23.7545 31.2507 23.7426 31.2077 23.7352 31.1595C23.7209 31.066 23.7187 30.9155 23.7187 30.6654H23.9187C23.9187 30.9219 23.9214 31.0543 23.9329 31.1292C23.9385 31.1653 23.9447 31.1779 23.9472 31.1818C23.9481 31.1834 23.9495 31.1862 23.9629 31.1941L23.8615 31.3665ZM23.7187 30.6654V30.0996H23.9187V30.6654H23.7187ZM23.8187 29.9996H25.3929V30.1996H23.8187V29.9996ZM25.3929 29.9996H26.9671V30.1996H25.3929V29.9996ZM27.0671 30.0996V30.685H26.8671V30.0996H27.0671ZM25.7881 33.7892C25.7881 34.6164 25.7869 35.0517 25.7738 35.2914C25.7673 35.4102 25.7576 35.4896 25.7403 35.5473C25.7207 35.613 25.6918 35.6486 25.6604 35.6801L25.519 35.5386C25.5343 35.5233 25.5411 35.5153 25.5487 35.49C25.5586 35.4567 25.5677 35.3978 25.5741 35.2804C25.5868 35.0478 25.5881 34.6198 25.5881 33.7892H25.7881ZM25.6604 35.6801C25.621 35.7194 25.5676 35.7504 25.5151 35.7716C25.4623 35.7929 25.4015 35.8077 25.3437 35.8077V35.6077C25.3696 35.6077 25.4047 35.6005 25.4404 35.5861C25.4765 35.5715 25.5042 35.5534 25.519 35.5386L25.6604 35.6801ZM25.3437 35.8077C25.286 35.8077 25.2251 35.7929 25.1723 35.7716C25.1198 35.7504 25.0664 35.7194 25.027 35.6801L25.1685 35.5386C25.1832 35.5534 25.211 35.5715 25.247 35.5861C25.2827 35.6005 25.3178 35.6077 25.3437 35.6077V35.8077ZM25.027 35.6801C24.9956 35.6486 24.9668 35.613 24.9471 35.5473C24.9299 35.4896 24.9202 35.4102 24.9137 35.2914C24.9006 35.0517 24.8994 34.6164 24.8994 33.7892H25.0994C25.0994 34.6198 25.1006 35.0478 25.1134 35.2804C25.1198 35.3978 25.1288 35.4567 25.1388 35.49C25.1463 35.5153 25.1532 35.5233 25.1685 35.5386L25.027 35.6801ZM24.8994 33.7892V32.0674H25.0994V33.7892H24.8994ZM24.9994 31.9674H25.3437V32.1674H24.9994V31.9674ZM25.3437 31.9674H25.6881V32.1674H25.3437V31.9674ZM25.7881 32.0674V33.7892H25.5881V32.0674H25.7881ZM23.1502 38.979C23.1674 39.0929 23.2339 39.2669 23.3289 39.4503C23.4229 39.6318 23.5392 39.8116 23.6482 39.9367L23.4973 40.068C23.375 39.9275 23.2503 39.7333 23.1513 39.5423C23.0532 39.353 22.9746 39.1556 22.9524 39.0088L23.1502 38.979ZM23.6476 39.936C24.3769 40.7594 25.6789 40.9295 26.6016 40.3128L26.7128 40.479C25.7071 41.1512 24.2936 40.9671 23.4979 40.0687L23.6476 39.936ZM26.6023 40.3123C26.8257 40.1657 27.0433 39.9419 27.2148 39.6966C27.3868 39.4505 27.5064 39.1914 27.5425 38.9773L27.7397 39.0105C27.697 39.2637 27.5608 39.5506 27.3787 39.8112C27.196 40.0726 26.961 40.3161 26.7121 40.4795L26.6023 40.3123ZM27.5423 38.9783L27.5718 38.7913L27.7694 38.8225L27.7398 39.0095L27.5423 38.9783ZM27.6708 38.7069L31.7342 38.7168L31.7338 38.9168L27.6703 38.9069L27.6708 38.7069ZM31.7344 38.7168C33.5958 38.7242 34.6166 38.7291 35.1891 38.742C35.4747 38.7485 35.652 38.757 35.7673 38.7692C35.8821 38.7814 35.9468 38.7982 35.9995 38.8283L35.9003 39.002C35.8842 38.9928 35.8529 38.9794 35.7462 38.9681C35.64 38.9568 35.4701 38.9484 35.1845 38.942C34.6145 38.9291 33.5962 38.9242 31.7336 38.9168L31.7344 38.7168ZM35.9981 38.8275C36.0746 38.8696 36.1465 38.9153 36.203 38.989C36.2598 39.0631 36.294 39.156 36.3165 39.2813C36.3602 39.526 36.3648 39.9357 36.3648 40.6714H36.1648C36.1648 39.9263 36.1594 39.5391 36.1196 39.3165C36.1002 39.2081 36.0742 39.1497 36.0443 39.1107C36.014 39.0712 35.9728 39.0419 35.9017 39.0028L35.9981 38.8275ZM36.3648 40.6714V42.0045H36.1648V40.6714H36.3648ZM36.2648 42.1045H25.3437V41.9045H36.2648V42.1045ZM25.3437 42.1045H14.4227V41.9045H25.3437V42.1045ZM14.3227 42.0045V40.6714H14.5227V42.0045H14.3227ZM14.3227 40.6714C14.3227 40.2685 14.3236 39.9603 14.3324 39.7233C14.3412 39.4877 14.358 39.3148 14.3925 39.1858C14.428 39.0528 14.4841 38.9596 14.5739 38.8913C14.6577 38.8276 14.7641 38.7919 14.8799 38.7558L14.9395 38.9467C14.8192 38.9843 14.7466 39.0113 14.6949 39.0506C14.6491 39.0854 14.6129 39.1354 14.5857 39.2374C14.5574 39.3432 14.541 39.4969 14.5323 39.7308C14.5236 39.9633 14.5227 40.2675 14.5227 40.6714H14.3227ZM14.8822 38.7551C14.8935 38.7518 14.9052 38.7505 14.9104 38.75C14.9179 38.7491 14.9268 38.7484 14.9364 38.7478C14.9557 38.7464 14.9813 38.7452 15.0125 38.744C15.075 38.7415 15.1623 38.7391 15.2715 38.7368C15.4899 38.7322 15.7971 38.7279 16.1705 38.7242C16.9174 38.7168 17.9299 38.7119 19.0272 38.7119V38.9119C17.9305 38.9119 16.9186 38.9168 16.1725 38.9242C15.7994 38.9278 15.493 38.9321 15.2757 38.9367C15.167 38.939 15.081 38.9414 15.0203 38.9438C14.9899 38.945 14.9665 38.9462 14.95 38.9473C14.9417 38.9479 14.9359 38.9484 14.9323 38.9488C14.9263 38.9494 14.9302 38.9494 14.9372 38.9474L14.8822 38.7551ZM19.0271 38.7119L23.0167 38.7069L23.017 38.9069L19.0274 38.9119L19.0271 38.7119ZM23.1152 38.7888L23.1496 38.9758L22.9529 39.012L22.9185 38.8251L23.1152 38.7888ZM37.2994 43.3574V43.9723H37.0994V43.3574H37.2994ZM37.1994 44.0723H25.3437V43.8723H37.1994V44.0723ZM25.3437 44.0723H13.488V43.8723H25.3437V44.0723ZM13.388 43.9723V43.3574H13.588V43.9723H13.388ZM13.388 43.3574V42.7425H13.588V43.3574H13.388ZM13.488 42.6425H25.3437V42.8425H13.488V42.6425ZM25.3437 42.6425H37.1994V42.8425H25.3437V42.6425ZM37.2994 42.7425V43.3574H37.0994V42.7425H37.2994ZM16.4396 19.6312L16.2916 19.4966L16.295 19.4931L16.4396 19.6312ZM16.3511 20.5068L16.551 20.5027L16.551 20.5028L16.3511 20.5068ZM16.5085 21.5301L16.3345 21.6287L16.3332 21.6263L16.5085 21.5301ZM16.8381 21.9384L16.7146 22.0957L16.7132 22.0945L16.8381 21.9384ZM18.6435 22.2286V22.0286H18.7875L18.8332 22.1651L18.6435 22.2286ZM19.0223 23.3601L18.8327 23.4238L18.8327 23.4236L19.0223 23.3601ZM20.0554 25.0622L20.1396 24.8807L20.1415 24.8817L20.0554 25.0622ZM21.5017 25.1802V24.9802H21.7002L21.7017 25.1787L21.5017 25.1802ZM21.5164 27.1578L21.7164 27.1563L21.7164 27.1563L21.5164 27.1578ZM21.5312 29.1403L21.3557 29.2363L21.3316 29.1922L21.3312 29.1418L21.5312 29.1403ZM21.6739 29.4011L21.4995 29.499L21.4984 29.4971L21.6739 29.4011ZM23.0316 30.0996V29.8996H23.2316V30.0996H23.0316ZM23.2628 31.7722L23.4159 31.6435L23.4176 31.6456L23.2628 31.7722ZM24.2123 32.0674V31.8674H24.4123V32.0674H24.2123ZM24.2123 33.8236L24.0123 33.8241V33.8236H24.2123ZM24.473 36.121L24.3151 36.2438L24.3127 36.2406L24.473 36.121ZM24.7731 36.3669L24.6877 36.5478L24.6875 36.5477L24.7731 36.3669ZM24.9502 36.4506L25.0356 36.2697L25.1502 36.3238V36.4506H24.9502ZM24.5714 39.7908L24.4721 39.9645L24.4717 39.9642L24.5714 39.7908ZM23.6564 38.1773L23.5196 38.3232L23.5181 38.3218L23.6564 38.1773ZM23.5432 38.069V37.869H23.6235L23.6815 37.9245L23.5432 38.069ZM14.6391 38.069L14.5497 37.8901L14.5919 37.869H14.6391V38.069ZM14.3833 38.1969L14.2939 38.0181L14.2939 38.0181L14.3833 38.1969ZM13.7684 38.8266L13.9445 38.9214L13.7684 38.8266ZM13.6454 40.514L13.4454 40.512L13.4454 40.5119L13.6454 40.514ZM13.6307 42.0045L13.8307 42.0065L13.8287 42.2045H13.6307V42.0045ZM12.8386 44.6266L12.9754 44.4807L12.9757 44.4809L12.8386 44.6266ZM37.8537 44.6217L37.7037 44.4893L37.7078 44.4849L37.8537 44.6217ZM37.0568 42.0045V42.2045H36.8588L36.8568 42.0065L37.0568 42.0045ZM37.042 40.5189L37.242 40.5168L37.242 40.5169L37.042 40.5189ZM36.919 38.8266L36.7429 38.9214L36.919 38.8266ZM36.3041 38.1969L36.3936 38.0181L36.3936 38.0181L36.3041 38.1969ZM36.0483 38.069V37.869H36.0955L36.1377 37.8901L36.0483 38.069ZM27.0261 38.1674L26.8796 38.0313L26.8811 38.0297L27.0261 38.1674ZM26.9032 38.5561L26.7037 38.5407L26.7043 38.5351L26.9032 38.5561ZM26.485 39.5153L26.6328 39.6502L26.6288 39.6543L26.485 39.5153ZM25.8258 36.4112L25.8983 36.5977L25.8924 36.5998L25.8258 36.4112ZM26.3178 35.9537L26.1448 35.8532L26.1463 35.8508L26.3178 35.9537ZM26.4506 35.7323L26.6506 35.7339L26.6501 35.7885L26.6221 35.8352L26.4506 35.7323ZM26.4653 33.9023L26.6653 33.9039L26.6653 33.9039L26.4653 33.9023ZM26.4801 32.0674L26.2801 32.0658L26.2817 31.8674H26.4801V32.0674ZM27.587 31.7427L27.4274 31.6222L27.4275 31.622L27.587 31.7427ZM27.7444 30.8326L27.9443 30.8367L27.9443 30.8368L27.7444 30.8326ZM27.7591 30.1095L27.5592 30.1054L27.5629 29.9235L27.7444 29.91L27.7591 30.1095ZM28.0248 30.0898L28.0411 30.2891L28.0396 30.2892L28.0248 30.0898ZM29.1316 29.1256L29.3246 29.1782L29.324 29.1803L29.1316 29.1256ZM29.1808 25.1802H28.9808V24.9802H29.1808V25.1802ZM30.6321 25.0622L30.5459 24.8817L30.5479 24.8807L30.6321 25.0622ZM31.6651 23.3601L31.8548 23.4236L31.8547 23.4238L31.6651 23.3601ZM32.0439 22.2286L31.8543 22.1651L31.9 22.0286H32.0439V22.2286ZM33.5984 22.1007L33.6879 22.2796L33.5984 22.1007ZM34.2134 21.471L34.0362 21.3783L34.0365 21.3777L34.2134 21.471ZM34.3364 20.5167L34.1364 20.5122L34.1364 20.5113L34.3364 20.5167ZM34.2429 19.641L34.0983 19.7793L34.0955 19.7762L34.2429 19.641ZM34.1347 19.5229V19.3229H34.2226L34.2821 19.3878L34.1347 19.5229ZM16.5429 19.5229L16.3983 19.3849L16.4574 19.3229H16.5429V19.5229ZM16.5876 19.7657C16.5673 19.788 16.5654 19.7929 16.5644 19.7952C16.5627 19.7988 16.5566 19.8138 16.5519 19.8604C16.5418 19.9607 16.5435 20.1371 16.551 20.5027L16.1511 20.5109C16.1439 20.1583 16.1407 19.951 16.1539 19.8201C16.1609 19.7511 16.1736 19.6886 16.2 19.6301C16.2271 19.5703 16.2627 19.5284 16.2916 19.4966L16.5876 19.7657ZM16.551 20.5028C16.5586 20.8786 16.5636 21.055 16.5814 21.1707C16.5962 21.2676 16.6181 21.3141 16.6838 21.4338L16.3332 21.6263C16.2612 21.4952 16.2117 21.399 16.186 21.2314C16.1632 21.0827 16.1584 20.873 16.1511 20.5108L16.551 20.5028ZM16.6825 21.4315C16.7573 21.5635 16.8897 21.7235 16.963 21.7822L16.7132 22.0945C16.5898 21.9958 16.427 21.7918 16.3345 21.6287L16.6825 21.4315ZM16.9616 21.781C17.1113 21.8985 17.2046 21.952 17.3315 21.9835C17.4704 22.0179 17.6595 22.0286 18.0089 22.0286V22.4286C17.6647 22.4286 17.4283 22.4196 17.2351 22.3717C17.0299 22.3208 16.8847 22.2291 16.7146 22.0957L16.9616 21.781ZM18.0089 22.0286H18.6435V22.4286H18.0089V22.0286ZM18.8332 22.1651L19.212 23.2966L18.8327 23.4236L18.4539 22.2921L18.8332 22.1651ZM19.2119 23.2964C19.4276 23.9386 19.56 24.2861 19.6913 24.502C19.8101 24.6974 19.9255 24.7815 20.1395 24.8807L19.9712 25.2436C19.708 25.1215 19.5209 24.9916 19.3495 24.7098C19.1906 24.4485 19.045 24.0556 18.8327 23.4238L19.2119 23.2964ZM20.1415 24.8817C20.2381 24.9278 20.2978 24.949 20.3899 24.9619C20.4925 24.9762 20.6359 24.9802 20.9015 24.9802V25.3802C20.6408 25.3802 20.4693 25.3769 20.3345 25.358C20.1893 25.3377 20.0891 25.2999 19.9692 25.2427L20.1415 24.8817ZM20.9015 24.9802H21.5017V25.3802H20.9015V24.9802ZM21.7017 25.1787L21.7164 27.1563L21.3164 27.1593L21.3017 25.1817L21.7017 25.1787ZM21.7164 27.1563L21.7312 29.1389L21.3312 29.1418L21.3164 27.1593L21.7164 27.1563ZM21.7066 29.0443L21.8493 29.3051L21.4984 29.4971L21.3557 29.2363L21.7066 29.0443ZM21.8482 29.3031C22.064 29.6872 22.4105 29.8996 22.7856 29.8996V30.2996C22.2458 30.2996 21.7757 29.9906 21.4995 29.499L21.8482 29.3031ZM22.7856 29.8996H23.0316V30.2996H22.7856V29.8996ZM23.2316 30.0996V30.6752H22.8316V30.0996H23.2316ZM23.2316 30.6752C23.2316 31.3345 23.2848 31.4876 23.4159 31.6435L23.1097 31.9009C22.8768 31.624 22.8316 31.3343 22.8316 30.6752H23.2316ZM23.4176 31.6456C23.491 31.7352 23.5576 31.7861 23.6299 31.8174C23.7043 31.8495 23.8 31.8674 23.9417 31.8674V32.2674C23.7685 32.2674 23.6133 32.2459 23.4713 32.1846C23.3272 32.1223 23.2118 32.0257 23.108 31.8989L23.4176 31.6456ZM23.9417 31.8674H24.2123V32.2674H23.9417V31.8674ZM24.4123 32.0674V33.8236H24.0123V32.0674H24.4123ZM24.4123 33.8231C24.4147 34.774 24.4187 35.2514 24.4509 35.5344C24.4666 35.6718 24.4878 35.7508 24.5131 35.81C24.5386 35.8697 24.5727 35.9202 24.6333 36.0013L24.3127 36.2406C24.2503 36.1569 24.1909 36.074 24.1453 35.9672C24.0994 35.8599 24.0717 35.7393 24.0535 35.5797C24.0181 35.2687 24.0147 34.7622 24.0123 33.8241L24.4123 33.8231ZM24.6309 35.9982C24.6532 36.027 24.693 36.0669 24.7406 36.1059C24.7889 36.1455 24.8325 36.1738 24.8587 36.1862L24.6875 36.5477C24.6202 36.5158 24.5482 36.4654 24.487 36.4152C24.4251 36.3644 24.3616 36.3035 24.3151 36.2437L24.6309 35.9982ZM24.8585 36.1861L25.0356 36.2697L24.8648 36.6314L24.6877 36.5478L24.8585 36.1861ZM25.1502 36.4506V38.192H24.7502V36.4506H25.1502ZM25.1502 38.192C25.1502 38.873 25.1465 39.3129 25.1371 39.5831C25.1325 39.717 25.1263 39.8159 25.1173 39.8835C25.1131 39.9154 25.1068 39.9525 25.095 39.9858C25.0894 40.0015 25.0779 40.0307 25.0546 40.0595C25.03 40.0899 24.9757 40.1384 24.8911 40.1384V39.7384C24.8121 39.7384 24.7631 39.7839 24.7435 39.808C24.7254 39.8305 24.7187 39.8501 24.7178 39.8527C24.7153 39.8597 24.7174 39.8562 24.7208 39.8308C24.727 39.7839 24.7328 39.7017 24.7374 39.5693C24.7465 39.307 24.7502 38.8737 24.7502 38.192H25.1502ZM24.8911 40.1384C24.8599 40.1384 24.8334 40.1317 24.8214 40.1285C24.8058 40.1243 24.7905 40.1191 24.7768 40.114C24.7491 40.1038 24.7178 40.0904 24.6859 40.0756C24.6218 40.0459 24.5453 40.0063 24.4721 39.9645L24.6706 39.6172C24.7351 39.6541 24.8014 39.6883 24.854 39.7126C24.8806 39.7249 24.9013 39.7336 24.9153 39.7388C24.9223 39.7414 24.9253 39.7422 24.9249 39.7421C24.9247 39.742 24.9221 39.7413 24.9177 39.7406C24.914 39.7399 24.9044 39.7384 24.8911 39.7384V40.1384ZM24.4717 39.9642C23.952 39.6657 23.5695 39.0364 23.5695 38.4626H23.9695C23.9695 38.8825 24.2659 39.3847 24.671 39.6174L24.4717 39.9642ZM23.5695 38.4626C23.5695 38.385 23.5513 38.3529 23.5196 38.3232L23.7932 38.0314C23.9189 38.1492 23.9695 38.2942 23.9695 38.4626H23.5695ZM23.5181 38.3218L23.405 38.2136L23.6815 37.9245L23.7946 38.0327L23.5181 38.3218ZM23.5432 38.269H19.0912V37.869H23.5432V38.269ZM19.0912 38.269H14.6391V37.869H19.0912V38.269ZM14.7286 38.2479L14.4728 38.3758L14.2939 38.0181L14.5497 37.8901L14.7286 38.2479ZM14.4728 38.3758C14.2407 38.4918 14.101 38.6309 13.9445 38.9214L13.5923 38.7318C13.7802 38.3828 13.9749 38.1775 14.2939 38.0181L14.4728 38.3758ZM13.9445 38.9214C13.9216 38.964 13.9101 38.9891 13.9007 39.0236C13.8904 39.0617 13.8808 39.1187 13.8732 39.2236C13.8578 39.4358 13.8528 39.8015 13.8454 40.516L13.4454 40.5119C13.4528 39.8047 13.4577 39.4226 13.4742 39.1946C13.4826 39.0793 13.4945 38.9931 13.5147 38.9189C13.5357 38.8413 13.5636 38.7852 13.5923 38.7318L13.9445 38.9214ZM13.8454 40.5159L13.8307 42.0065L13.4307 42.0026L13.4454 40.512L13.8454 40.5159ZM13.6307 42.2045H13.2715V41.8045H13.6307V42.2045ZM13.2715 42.2045C13.1187 42.2045 13.0521 42.2027 13.0066 42.2131C12.9918 42.2165 12.9935 42.2186 12.9992 42.2138C13.0048 42.2089 13.0015 42.2082 12.9946 42.2262C12.9768 42.2727 12.962 42.367 12.9554 42.5634C12.9489 42.7531 12.9501 43.0104 12.9501 43.3672H12.5501C12.5501 43.0156 12.5488 42.7484 12.5556 42.5498C12.5621 42.3579 12.5763 42.2 12.6212 42.083C12.6456 42.0192 12.6822 41.9588 12.7383 41.9105C12.7945 41.8622 12.8575 41.837 12.917 41.8233C13.02 41.7996 13.1538 41.8045 13.2715 41.8045V42.2045ZM12.9501 43.3672C12.9501 43.9116 12.9527 44.1993 12.9643 44.3607C12.9702 44.4422 12.9776 44.4761 12.9818 44.4892C12.9833 44.4936 12.9831 44.4915 12.9799 44.4867C12.9767 44.4816 12.9738 44.4792 12.9754 44.4807L12.7019 44.7725C12.6598 44.733 12.6247 44.6844 12.6014 44.6126C12.5816 44.5517 12.5718 44.4783 12.5654 44.3895C12.5524 44.2102 12.5501 43.9051 12.5501 43.3672H12.9501ZM12.9757 44.4809C12.9614 44.4675 12.948 44.4595 12.9396 44.4553C12.9313 44.4511 12.9257 44.4494 12.9251 44.4492C12.9247 44.4491 12.9328 44.4514 12.9561 44.4546C13.0024 44.4609 13.0829 44.4673 13.2216 44.473C13.497 44.4844 13.9781 44.4924 14.8194 44.4979C16.5004 44.509 19.6073 44.5102 25.3536 44.5102V44.9102C19.6081 44.9102 16.4994 44.909 14.8168 44.8979C13.9762 44.8924 13.4885 44.8844 13.2051 44.8727C13.0644 44.8669 12.9681 44.8599 12.902 44.8509C12.8692 44.8464 12.8373 44.8406 12.8083 44.8318C12.7815 44.8236 12.7392 44.8076 12.7016 44.7722L12.9757 44.4809ZM25.3536 44.5102C31.3384 44.5102 34.4441 44.509 36.0628 44.4973C36.8734 44.4914 37.3072 44.483 37.5424 44.471C37.6618 44.465 37.7206 44.4584 37.7491 44.453C37.7787 44.4474 37.7393 44.449 37.7038 44.4893L38.0037 44.754C37.9497 44.8152 37.8799 44.8353 37.8236 44.846C37.7661 44.8569 37.6836 44.8644 37.5627 44.8705C37.3174 44.883 36.8749 44.8914 36.0657 44.8973C34.4451 44.909 31.3375 44.9102 25.3536 44.9102V44.5102ZM37.7078 44.4849C37.6903 44.5036 37.7117 44.5134 37.7236 44.3295C37.7348 44.1579 37.7373 43.8666 37.7373 43.3475H38.1373C38.1373 43.8616 38.135 44.1679 38.1228 44.3555C38.1114 44.5306 38.091 44.661 37.9996 44.7584L37.7078 44.4849ZM37.7373 43.3475C37.7373 42.9942 37.7389 42.7401 37.7326 42.5529C37.7262 42.3586 37.7114 42.2676 37.6941 42.2237C37.6877 42.2074 37.6851 42.2091 37.6912 42.2141C37.697 42.2188 37.698 42.2163 37.6814 42.2127C37.6328 42.2022 37.5626 42.2045 37.4061 42.2045V41.8045C37.5274 41.8045 37.6627 41.7995 37.7658 41.8217C37.825 41.8345 37.8885 41.8584 37.9457 41.9055C38.0032 41.9529 38.041 42.0129 38.0662 42.0769C38.1122 42.1935 38.1261 42.3505 38.1324 42.5396C38.1389 42.7355 38.1373 42.9999 38.1373 43.3475H37.7373ZM37.4061 42.2045H37.0568V41.8045H37.4061V42.2045ZM36.8568 42.0065L36.842 40.5209L37.242 40.5169L37.2568 42.0026L36.8568 42.0065ZM36.842 40.521C36.8346 39.804 36.8297 39.4371 36.8143 39.2242C36.8066 39.119 36.797 39.0618 36.7867 39.0236C36.7773 38.989 36.7658 38.964 36.7429 38.9214L37.0951 38.7318C37.1239 38.7852 37.1517 38.8413 37.1728 38.9191C37.1929 38.9933 37.2048 39.0797 37.2132 39.1953C37.2298 39.4239 37.2347 39.8072 37.242 40.5168L36.842 40.521ZM36.7429 38.9214C36.5865 38.6309 36.4467 38.4918 36.2147 38.3758L36.3936 38.0181C36.7125 38.1775 36.9072 38.3828 37.0951 38.7318L36.7429 38.9214ZM36.2147 38.3758L35.9589 38.2479L36.1377 37.8901L36.3936 38.0181L36.2147 38.3758ZM36.0483 38.269H31.5815V37.869H36.0483V38.269ZM31.5815 38.269C29.3637 38.269 28.2514 38.269 27.681 38.2813C27.3924 38.2875 27.2553 38.2967 27.1861 38.308C27.1529 38.3134 27.1499 38.3171 27.158 38.313C27.1711 38.3063 27.1796 38.2963 27.1711 38.3052L26.8811 38.0297C26.8961 38.014 26.9259 37.9824 26.9759 37.9569C27.0208 37.9339 27.0701 37.9216 27.122 37.9131C27.2232 37.8967 27.388 37.8875 27.6724 37.8814C28.2483 37.869 29.3669 37.869 31.5815 37.869V38.269ZM27.1727 38.3035C27.1689 38.3076 27.1546 38.3268 27.139 38.3769C27.1239 38.4253 27.1111 38.4913 27.1021 38.577L26.7043 38.5351C26.7149 38.4339 26.7316 38.34 26.7571 38.258C26.7821 38.1778 26.8195 38.0961 26.8796 38.0313L27.1727 38.3035ZM27.1026 38.5714C27.0881 38.76 27.0272 38.9657 26.9454 39.1514C26.8635 39.3372 26.7543 39.517 26.6327 39.6502L26.3373 39.3805C26.4223 39.2874 26.51 39.1474 26.5793 38.9901C26.6487 38.8326 26.6937 38.6719 26.7038 38.5407L27.1026 38.5714ZM26.6288 39.6543C26.5394 39.7468 26.3753 39.8633 26.2319 39.9522C26.1578 39.9981 26.0827 40.0408 26.0173 40.0727C25.9848 40.0886 25.9517 40.1033 25.9205 40.1145C25.895 40.1237 25.85 40.1384 25.8012 40.1384V39.7384C25.7771 39.7384 25.7674 39.7445 25.7855 39.738C25.7979 39.7336 25.8166 39.7256 25.8417 39.7134C25.8914 39.6891 25.9544 39.6536 26.0211 39.6122C26.1594 39.5265 26.288 39.4314 26.3412 39.3763L26.6288 39.6543ZM25.8012 40.1384C25.7248 40.1384 25.6715 40.0986 25.6433 40.0671C25.6177 40.0384 25.6045 40.0086 25.5979 39.9917C25.5844 39.9568 25.5772 39.9182 25.5725 39.8858C25.5626 39.8172 25.5559 39.7174 25.5509 39.5836C25.5409 39.3131 25.5373 38.8728 25.5373 38.192H25.9373C25.9373 38.8739 25.941 39.3068 25.9507 39.5688C25.9556 39.7012 25.9618 39.7826 25.9684 39.8285C25.972 39.8534 25.9741 39.8554 25.9708 39.8468C25.9693 39.8431 25.9615 39.8228 25.9415 39.8004C25.9189 39.7752 25.8715 39.7384 25.8012 39.7384V40.1384ZM25.5373 38.192C25.5373 37.3832 25.5384 36.9389 25.5504 36.6941C25.5562 36.5758 25.5651 36.4842 25.5848 36.4171C25.5955 36.3811 25.613 36.3381 25.6462 36.2994C25.6826 36.2569 25.7248 36.2348 25.7593 36.2226L25.8924 36.5998C25.906 36.595 25.9297 36.5833 25.9498 36.5598C25.9667 36.5401 25.9702 36.5246 25.9686 36.5301C25.9639 36.546 25.9558 36.5934 25.9499 36.7137C25.9386 36.9461 25.9373 37.3774 25.9373 38.192H25.5373ZM25.7533 36.2248C25.8781 36.1763 26.0386 36.036 26.1449 35.8532L26.4907 36.0542C26.351 36.2944 26.1277 36.5084 25.8983 36.5976L25.7533 36.2248ZM26.1463 35.8508L26.2791 35.6294L26.6221 35.8352L26.4893 36.0566L26.1463 35.8508ZM26.2506 35.7307L26.2653 33.9007L26.6653 33.9039L26.6506 35.7339L26.2506 35.7307ZM26.2653 33.9007L26.2801 32.0658L26.6801 32.069L26.6653 33.9039L26.2653 33.9007ZM26.4801 31.8674H26.7999V32.2674H26.4801V31.8674ZM26.7999 31.8674C26.9875 31.8674 27.109 31.8472 27.1986 31.8104C27.2831 31.7757 27.3532 31.7204 27.4274 31.6222L27.7466 31.8632C27.6387 32.0061 27.5145 32.1131 27.3506 32.1804C27.1917 32.2457 27.0106 32.2674 26.7999 32.2674V31.8674ZM27.4275 31.622C27.4636 31.5743 27.4794 31.5521 27.4906 31.5309C27.4994 31.5143 27.5076 31.4935 27.5148 31.4523C27.5317 31.3559 27.5369 31.1937 27.5444 30.8285L27.9443 30.8368C27.9371 31.1848 27.9324 31.3867 27.9088 31.5215C27.8957 31.5959 27.876 31.6575 27.8446 31.7172C27.8156 31.7722 27.7792 31.8201 27.7464 31.8634L27.4275 31.622ZM27.5444 30.8285L27.5592 30.1054L27.9591 30.1135L27.9443 30.8367L27.5444 30.8285ZM27.7444 29.91L28.01 29.8903L28.0396 30.2892L27.7739 30.3089L27.7444 29.91ZM28.0085 29.8905C28.398 29.8587 28.8167 29.5021 28.9393 29.0709L29.324 29.1803C29.1613 29.7527 28.6158 30.2422 28.0411 30.2891L28.0085 29.8905ZM28.9387 29.073C28.9373 29.0781 28.9397 29.0693 28.9431 29.0331C28.9461 29.0018 28.9492 28.9592 28.9521 28.9054C28.9579 28.7979 28.9631 28.6514 28.9674 28.4715C28.9759 28.112 28.9808 27.6242 28.9808 27.0594H29.3808C29.3808 27.6261 29.3759 28.1173 29.3673 28.481C29.3629 28.6627 29.3576 28.8138 29.3515 28.9271C29.3484 28.9836 29.3451 29.0322 29.3413 29.0712C29.3381 29.1054 29.3334 29.1461 29.3246 29.1782L28.9387 29.073ZM28.9808 27.0594V25.1802H29.3808V27.0594H28.9808ZM29.1808 24.9802H29.7859V25.3802H29.1808V24.9802ZM29.7859 24.9802C30.0516 24.9802 30.195 24.9762 30.2975 24.9619C30.3896 24.949 30.4493 24.9278 30.5459 24.8817L30.7182 25.2427C30.5983 25.2999 30.4982 25.3377 30.3529 25.358C30.2181 25.3769 30.0466 25.3802 29.7859 25.3802V24.9802ZM30.5479 24.8807C30.7619 24.7815 30.8773 24.6974 30.9962 24.502C31.1275 24.2861 31.2598 23.9386 31.4755 23.2964L31.8547 23.4238C31.6425 24.0556 31.4968 24.4485 31.3379 24.7098C31.1665 24.9916 30.9794 25.1215 30.7162 25.2436L30.5479 24.8807ZM31.4755 23.2966L31.8543 22.1651L32.2336 22.2921L31.8548 23.4236L31.4755 23.2966ZM32.0439 22.0286H32.6933V22.4286H32.0439V22.0286ZM32.6933 22.0286C32.9981 22.0286 33.1496 22.0257 33.2544 22.0109C33.3451 21.9981 33.3991 21.9768 33.509 21.9218L33.6879 22.2796C33.5617 22.3427 33.4631 22.3854 33.3104 22.407C33.1717 22.4266 32.9886 22.4286 32.6933 22.4286V22.0286ZM33.509 21.9218C33.7424 21.8051 33.8859 21.6656 34.0362 21.3783L34.3906 21.5637C34.2063 21.916 34.0055 22.1208 33.6879 22.2796L33.509 21.9218ZM34.0365 21.3777C34.1037 21.2503 34.1214 21.1841 34.1364 20.5122L34.5363 20.5211C34.5218 21.1676 34.51 21.3375 34.3902 21.5644L34.0365 21.3777ZM34.1364 20.5113C34.1465 20.1397 34.1492 19.9665 34.1387 19.8697C34.134 19.8262 34.128 19.8145 34.1273 19.8132C34.1263 19.8112 34.1239 19.806 34.0984 19.7793L34.3874 19.5028C34.416 19.5326 34.4548 19.5742 34.4845 19.6332C34.5146 19.6929 34.5288 19.7566 34.5364 19.8267C34.5506 19.9575 34.5459 20.1656 34.5363 20.5221L34.1364 20.5113ZM34.0955 19.7762L33.9872 19.6581L34.2821 19.3878L34.3903 19.5059L34.0955 19.7762ZM34.1347 19.7229H25.3388V19.3229H34.1347V19.7229ZM25.3388 19.7229H16.5429V19.3229H25.3388V19.7229ZM16.6876 19.661L16.5843 19.7693L16.295 19.4931L16.3983 19.3849L16.6876 19.661Z" fill="#0B2D1F" mask="url(#path-3-outside-1_5985_45031)"/>
<path d="M21.1136 23.0748C20.9808 23.2223 20.9857 23.4634 21.1284 23.5962L21.2415 23.7044H25.3541H29.4717L29.5701 23.5765C29.7078 23.4044 29.7029 23.2076 29.5602 23.0748L29.4471 22.9665H25.3296H21.2169L21.1136 23.0748Z" fill="#0B2D1F"/>
<path d="M23.731 26.0461C23.4555 26.1838 23.2833 26.356 23.116 26.6757C23.0324 26.8332 23.0078 26.9611 23.0078 27.271C23.0078 27.5809 23.0324 27.7088 23.116 27.8662C23.2833 28.186 23.4555 28.3582 23.731 28.4959L23.9868 28.6238H25.3445H26.7023L26.9581 28.4959C27.2336 28.3582 27.4057 28.186 27.573 27.8662C27.7255 27.5809 27.7255 26.9611 27.573 26.6757C27.4057 26.356 27.2336 26.1838 26.9581 26.0461L26.7023 25.9181H25.3445H23.9868L23.731 26.0461ZM26.4465 26.7102C26.8253 26.8135 27.0024 27.1775 26.8449 27.512C26.6875 27.8416 26.594 27.8613 25.3445 27.8613C24.095 27.8613 24.0015 27.8416 23.8441 27.512C23.6867 27.1824 23.8294 26.8578 24.1885 26.7298C24.4295 26.6462 26.1513 26.6265 26.4465 26.7102Z" fill="#0B2D1F"/>
<path d="M26.4465 26.7102C26.8253 26.8135 27.0024 27.1775 26.8449 27.512C26.6875 27.8416 26.594 27.8613 25.3445 27.8613C24.095 27.8613 24.0015 27.8416 23.8441 27.512C23.6867 27.1824 23.8294 26.8578 24.1885 26.7298C24.4295 26.6462 26.1513 26.6265 26.4465 26.7102Z" fill="#22885E"/>
</g>
<defs>
<clipPath id="clip0_5985_45031">
<rect width="25.1873" height="25.1873" fill="white" transform="translate(12.75 19.5229)"/>
</clipPath>
</defs>
</svg>
