<svg width="72" height="72" viewBox="0 0 72 72" fill="none" xmlns="http://www.w3.org/2000/svg">
<path d="M30.3024 7.07032C28.5275 7.36804 26.6724 8.26121 25.4472 9.40631L24.5998 10.1964H21.1645C17.4201 10.1964 16.9048 10.2537 15.8284 10.7919C14.5344 11.4446 13.4466 12.853 13.1374 14.2959C12.9542 15.1547 12.9542 60.6607 13.1374 61.5195C13.3206 62.3669 13.8474 63.3745 14.4543 64.0158C15.0497 64.6456 16.2292 65.3097 17.1109 65.493C17.9697 65.6762 54.544 65.6762 55.4028 65.493C57.3494 65.0807 58.964 63.4547 59.3763 61.5195C59.5595 60.6492 59.5595 15.1547 59.3763 14.2959C58.964 12.3606 57.3265 10.7232 55.4028 10.3224C55.0364 10.2422 53.4332 10.1964 51.3492 10.1964H47.9024L47.1352 9.46356C46.2649 8.65055 45.3947 8.08945 44.2267 7.63141C42.7266 7.02451 42.2228 6.99016 36.1652 7.00161C33.0964 7.01306 30.4627 7.04741 30.3024 7.07032ZM42.1999 10.5972C42.6006 10.7003 43.2534 10.9407 43.6312 11.1354C44.7763 11.7423 46.0588 13.1966 46.3909 14.2844L46.4596 14.5478H36.2568H26.0541L26.1228 14.2844C26.3174 13.6775 26.8556 12.8416 27.5083 12.1774C28.2641 11.4102 29.455 10.7346 30.4283 10.5514C30.7031 10.4941 33.3025 10.4483 36.1996 10.4369C40.528 10.4254 41.593 10.4598 42.1999 10.5972ZM22.5501 14.3989C22.4585 14.834 22.4012 15.5898 22.4241 16.1166C22.4585 17.1242 22.6417 17.4563 23.3402 17.8227C23.7982 18.0632 48.7154 18.0632 49.1735 17.8227C49.872 17.4563 50.0552 17.1242 50.0896 16.1166C50.1125 15.5898 50.0552 14.834 49.9636 14.3989L49.8033 13.6317H52.2194C54.9906 13.6317 55.357 13.7233 55.815 14.5363L56.0669 14.9829V37.9077V60.8324L55.8265 61.2676C55.6891 61.508 55.3913 61.8058 55.1509 61.9432L54.7157 62.1836H36.2568H17.7979L17.3628 61.9432C17.1223 61.8058 16.8246 61.508 16.6872 61.2676L16.4467 60.8324V37.9077V14.9829L16.6986 14.5363C17.1567 13.7233 17.5117 13.6317 20.2942 13.6317H22.7104L22.5501 14.3989Z" fill="#4D0000"/>
<path d="M42.1999 10.5972C42.6006 10.7003 43.2534 10.9407 43.6312 11.1354C44.7763 11.7423 46.0588 13.1966 46.3909 14.2844L46.4596 14.5478H36.2568H26.0541L26.1228 14.2844C26.3174 13.6775 26.8556 12.8416 27.5083 12.1774C28.2641 11.4102 29.455 10.7346 30.4283 10.5514C30.7031 10.4941 33.3025 10.4483 36.1996 10.4369C40.528 10.4254 41.593 10.4598 42.1999 10.5972Z" fill="#FF3333"/>
<path d="M40.7766 23.0707C40.0486 23.2773 39.527 24.074 39.6683 24.7723C39.7987 25.392 40.4506 25.9231 41.0917 25.9231C41.2438 25.9231 41.3633 25.9526 41.3633 26.0018C41.3633 26.0412 40.5049 26.8477 39.4618 27.7919L37.5603 29.5132L34.92 27.1231C32.0623 24.5461 31.8993 24.4379 31.0735 24.6346C30.7367 24.7232 30.0413 25.3035 27.3792 27.7132C24.5758 30.2607 24.0977 30.7427 24.0325 31.0574C23.837 32.0213 24.5432 32.8082 25.6081 32.8082C25.858 32.8082 26.1622 32.759 26.2926 32.7C26.423 32.641 27.64 31.5886 29.009 30.3689L31.4755 28.1362L34.0616 30.4673C35.4741 31.7459 36.7454 32.8377 36.8758 32.8967C37.18 33.0344 37.9406 33.0344 38.2449 32.8967C38.3753 32.8377 39.6574 31.7263 41.1026 30.4279L43.7212 28.0673L43.7864 28.4608C44.0363 29.8279 46.1225 30.1132 46.8288 28.8739C47.0026 28.569 47.0135 28.2739 46.9918 26.2477C46.9592 23.7396 46.9483 23.7297 46.2094 23.2281C45.9269 23.0314 45.7531 23.0216 43.5039 23.0019C42.1783 22.992 40.9504 23.0216 40.7766 23.0707Z" fill="#4D0000"/>
<g clip-path="url(#clip0_6206_46273)">
<mask id="path-3-outside-1_6206_46273" maskUnits="userSpaceOnUse" x="23" y="35.3896" width="26" height="26" fill="black">
<rect fill="white" x="23" y="35.3896" width="26" height="26"/>
<path d="M27.5728 36.1048C27.4775 36.2096 27.4727 36.2572 27.487 36.9527C27.5013 37.6672 27.5061 37.7006 27.6395 37.9435C27.7205 38.0864 27.8634 38.2627 27.9586 38.3389C28.2683 38.5819 28.4207 38.62 29.0924 38.62H29.7069L30.0737 39.7156C30.4881 40.9494 30.612 41.1494 31.074 41.3638C31.2836 41.4638 31.3837 41.4781 31.8934 41.4781H32.4745L32.4888 43.3931L32.5031 45.3128L32.6412 45.5653C32.8794 45.9892 33.2748 46.2417 33.7178 46.2417H33.956V46.7991C33.956 47.4374 34.0036 47.6517 34.1799 47.8613C34.3514 48.0709 34.5324 48.1472 34.8373 48.1472H35.0993V49.8478C35.104 51.677 35.1136 51.7532 35.3517 52.0724C35.4184 52.1581 35.5518 52.2677 35.6423 52.3105L35.8138 52.3915V54.0778C35.8138 55.3973 35.7995 55.7689 35.7566 55.7689C35.7233 55.7689 35.5804 55.7022 35.447 55.626C34.9992 55.3688 34.6705 54.8209 34.6705 54.3398C34.6705 54.2207 34.6372 54.135 34.561 54.0635L34.4514 53.9587H30.1404H25.8293L25.5816 54.0826C25.3148 54.216 25.1529 54.3827 24.9862 54.6923C24.8861 54.8781 24.8814 54.9496 24.8671 56.3262L24.8528 57.7696H24.505C23.981 57.7696 24.0001 57.7172 24.0001 59.0891C24.0001 60.1371 24.0096 60.2372 24.0858 60.3086C24.1668 60.3848 25.0767 60.3896 36.2044 60.3896C47.7942 60.3896 48.2373 60.3848 48.3087 60.3038C48.3802 60.2276 48.3897 60.0704 48.3897 59.0701C48.3897 57.7124 48.4135 57.7696 47.8752 57.7696H47.537L47.5227 56.331C47.5084 54.9496 47.5037 54.8781 47.4036 54.6923C47.2369 54.3827 47.0749 54.216 46.8082 54.0826L46.5605 53.9587H42.2351C37.9431 53.9587 37.9145 53.9587 37.824 54.054C37.7621 54.1207 37.724 54.2493 37.7049 54.4303C37.6811 54.74 37.5001 55.1401 37.3 55.3592C37.1619 55.5021 36.7332 55.7689 36.6379 55.7689C36.5903 55.7689 36.576 55.3973 36.576 54.0778C36.576 52.5058 36.5807 52.382 36.6617 52.3534C36.8332 52.2867 37.019 52.1152 37.1381 51.9104L37.2667 51.696L37.281 49.924L37.2953 48.1472H37.6049C37.9908 48.1472 38.1908 48.0662 38.3671 47.8328C38.5005 47.6565 38.5052 47.6422 38.5195 46.9515L38.5338 46.2512L38.791 46.2322C39.2579 46.1941 39.7247 45.7844 39.8629 45.2985C39.8914 45.1937 39.9105 44.3934 39.9105 43.2978V41.4781H40.4964C41.0061 41.4781 41.1062 41.4638 41.3157 41.3638C41.7778 41.1494 41.9017 40.9494 42.3161 39.7156L42.6829 38.62H43.3117C43.8929 38.62 43.9595 38.6104 44.1882 38.4961C44.455 38.3627 44.6217 38.196 44.7836 37.8864C44.8742 37.7149 44.8884 37.6006 44.9027 36.9622C44.9218 36.2572 44.917 36.2239 44.8122 36.1143L44.7074 36H36.1901H27.6728L27.5728 36.1048ZM44.1501 37.0527C44.1501 37.4576 44.0548 37.6863 43.8452 37.8006C43.7071 37.8768 43.1783 37.8816 36.1949 37.8816C29.2115 37.8816 28.6827 37.8768 28.5446 37.8006C28.335 37.6863 28.2397 37.4576 28.2397 37.0527V36.7145H36.1949H44.1501V37.0527ZM41.5492 39.5346C41.3681 40.0729 41.2014 40.4921 41.1395 40.5587C41.0823 40.6207 40.9585 40.6874 40.868 40.7159C40.6346 40.7779 31.7552 40.7779 31.5218 40.7159C31.4313 40.6874 31.3074 40.6207 31.2503 40.5587C31.1884 40.4921 31.0216 40.0729 30.8406 39.5346L30.531 38.62H36.1949H41.8588L41.5492 39.5346ZM39.1483 43.2454C39.1483 45.2033 39.1388 45.2604 38.8434 45.4224C38.7101 45.4938 38.4624 45.5034 36.1949 45.5034C33.9274 45.5034 33.6797 45.4938 33.5463 45.4224C33.251 45.2604 33.2415 45.2033 33.2415 43.2454V41.4781H36.1949H39.1483V43.2454ZM37.7669 46.8086C37.7669 47.2802 37.7526 47.3802 37.6907 47.404C37.5573 47.4564 34.9087 47.4374 34.8087 47.385C34.7277 47.3373 34.7182 47.2802 34.7182 46.7895V46.2417H36.2425H37.7669V46.8086ZM36.5283 49.8144C36.5283 51.4197 36.5236 51.4864 36.4331 51.5769C36.3807 51.6293 36.2759 51.6722 36.1949 51.6722C36.1139 51.6722 36.0091 51.6293 35.9567 51.5769C35.8662 51.4864 35.8614 51.4197 35.8614 49.8144V48.1472H36.1949H36.5283V49.8144ZM33.9751 54.8543C34.0132 55.1068 34.2561 55.5736 34.48 55.8308C35.2184 56.6645 36.5331 56.8359 37.4668 56.2119C37.9241 55.9118 38.3433 55.3068 38.4195 54.8543L38.4481 54.6733L42.3828 54.6828C45.9888 54.6971 46.3318 54.7019 46.4652 54.7781C46.751 54.9353 46.7701 55.0448 46.7701 56.4787V57.7696H36.1949H25.6197V56.4787C25.6197 54.9162 25.634 54.8591 26.0913 54.7161C26.158 54.6971 27.9539 54.678 30.0784 54.678L33.9417 54.6733L33.9751 54.8543ZM47.6751 59.0796V59.675H36.1949H24.7146V59.0796V58.4842H36.1949H47.6751V59.0796Z"/>
<path d="M41.5492 39.5346C41.3681 40.0729 41.2014 40.4921 41.1395 40.5587C41.0823 40.6207 40.9585 40.6874 40.868 40.7159C40.6346 40.7779 31.7552 40.7779 31.5218 40.7159C31.4313 40.6874 31.3074 40.6207 31.2503 40.5587C31.1884 40.4921 31.0216 40.0729 30.8406 39.5346L30.531 38.62H36.1949H41.8588L41.5492 39.5346Z"/>
<path d="M44.1501 37.0527C44.1501 37.4576 44.0548 37.6863 43.8452 37.8006C43.7071 37.8768 43.1783 37.8816 36.1949 37.8816C29.2115 37.8816 28.6827 37.8768 28.5446 37.8006C28.335 37.6863 28.2397 37.4576 28.2397 37.0527V36.7145H36.1949H44.1501V37.0527Z"/>
<path d="M39.1483 43.2454C39.1483 45.2033 39.1388 45.2604 38.8434 45.4224C38.7101 45.4938 38.4624 45.5034 36.1949 45.5034C33.9274 45.5034 33.6797 45.4938 33.5463 45.4224C33.251 45.2604 33.2415 45.2033 33.2415 43.2454V41.4781H36.1949H39.1483V43.2454Z"/>
<path d="M37.7669 46.8086C37.7669 47.2802 37.7526 47.3802 37.6907 47.404C37.5573 47.4564 34.9087 47.4374 34.8087 47.385C34.7277 47.3373 34.7182 47.2802 34.7182 46.7895V46.2417H36.2425H37.7669V46.8086Z"/>
<path d="M33.9751 54.8543C34.0132 55.1068 34.2561 55.5736 34.48 55.8308C35.2184 56.6645 36.5331 56.8359 37.4668 56.2119C37.9241 55.9118 38.3433 55.3068 38.4195 54.8543L38.4481 54.6733L42.3828 54.6828C45.9888 54.6971 46.3318 54.7019 46.4652 54.7781C46.751 54.9353 46.7701 55.0448 46.7701 56.4787V57.7696H36.1949H25.6197V56.4787C25.6197 54.9162 25.634 54.8591 26.0913 54.7161C26.158 54.6971 27.9539 54.678 30.0784 54.678L33.9417 54.6733L33.9751 54.8543Z"/>
<path d="M47.6751 59.0796V59.675H36.1949H24.7146V59.0796V58.4842H36.1949H47.6751V59.0796Z"/>
<path d="M36.5283 49.8144C36.5283 51.4197 36.5236 51.4864 36.4331 51.5769C36.3807 51.6293 36.2759 51.6722 36.1949 51.6722C36.1139 51.6722 36.0091 51.6293 35.9567 51.5769C35.8662 51.4864 35.8614 51.4197 35.8614 49.8144V48.1472H36.1949H36.5283V49.8144Z"/>
</mask>
<path d="M27.5728 36.1048C27.4775 36.2096 27.4727 36.2572 27.487 36.9527C27.5013 37.6672 27.5061 37.7006 27.6395 37.9435C27.7205 38.0864 27.8634 38.2627 27.9586 38.3389C28.2683 38.5819 28.4207 38.62 29.0924 38.62H29.7069L30.0737 39.7156C30.4881 40.9494 30.612 41.1494 31.074 41.3638C31.2836 41.4638 31.3837 41.4781 31.8934 41.4781H32.4745L32.4888 43.3931L32.5031 45.3128L32.6412 45.5653C32.8794 45.9892 33.2748 46.2417 33.7178 46.2417H33.956V46.7991C33.956 47.4374 34.0036 47.6517 34.1799 47.8613C34.3514 48.0709 34.5324 48.1472 34.8373 48.1472H35.0993V49.8478C35.104 51.677 35.1136 51.7532 35.3517 52.0724C35.4184 52.1581 35.5518 52.2677 35.6423 52.3105L35.8138 52.3915V54.0778C35.8138 55.3973 35.7995 55.7689 35.7566 55.7689C35.7233 55.7689 35.5804 55.7022 35.447 55.626C34.9992 55.3688 34.6705 54.8209 34.6705 54.3398C34.6705 54.2207 34.6372 54.135 34.561 54.0635L34.4514 53.9587H30.1404H25.8293L25.5816 54.0826C25.3148 54.216 25.1529 54.3827 24.9862 54.6923C24.8861 54.8781 24.8814 54.9496 24.8671 56.3262L24.8528 57.7696H24.505C23.981 57.7696 24.0001 57.7172 24.0001 59.0891C24.0001 60.1371 24.0096 60.2372 24.0858 60.3086C24.1668 60.3848 25.0767 60.3896 36.2044 60.3896C47.7942 60.3896 48.2373 60.3848 48.3087 60.3038C48.3802 60.2276 48.3897 60.0704 48.3897 59.0701C48.3897 57.7124 48.4135 57.7696 47.8752 57.7696H47.537L47.5227 56.331C47.5084 54.9496 47.5037 54.8781 47.4036 54.6923C47.2369 54.3827 47.0749 54.216 46.8082 54.0826L46.5605 53.9587H42.2351C37.9431 53.9587 37.9145 53.9587 37.824 54.054C37.7621 54.1207 37.724 54.2493 37.7049 54.4303C37.6811 54.74 37.5001 55.1401 37.3 55.3592C37.1619 55.5021 36.7332 55.7689 36.6379 55.7689C36.5903 55.7689 36.576 55.3973 36.576 54.0778C36.576 52.5058 36.5807 52.382 36.6617 52.3534C36.8332 52.2867 37.019 52.1152 37.1381 51.9104L37.2667 51.696L37.281 49.924L37.2953 48.1472H37.6049C37.9908 48.1472 38.1908 48.0662 38.3671 47.8328C38.5005 47.6565 38.5052 47.6422 38.5195 46.9515L38.5338 46.2512L38.791 46.2322C39.2579 46.1941 39.7247 45.7844 39.8629 45.2985C39.8914 45.1937 39.9105 44.3934 39.9105 43.2978V41.4781H40.4964C41.0061 41.4781 41.1062 41.4638 41.3157 41.3638C41.7778 41.1494 41.9017 40.9494 42.3161 39.7156L42.6829 38.62H43.3117C43.8929 38.62 43.9595 38.6104 44.1882 38.4961C44.455 38.3627 44.6217 38.196 44.7836 37.8864C44.8742 37.7149 44.8884 37.6006 44.9027 36.9622C44.9218 36.2572 44.917 36.2239 44.8122 36.1143L44.7074 36H36.1901H27.6728L27.5728 36.1048ZM44.1501 37.0527C44.1501 37.4576 44.0548 37.6863 43.8452 37.8006C43.7071 37.8768 43.1783 37.8816 36.1949 37.8816C29.2115 37.8816 28.6827 37.8768 28.5446 37.8006C28.335 37.6863 28.2397 37.4576 28.2397 37.0527V36.7145H36.1949H44.1501V37.0527ZM41.5492 39.5346C41.3681 40.0729 41.2014 40.4921 41.1395 40.5587C41.0823 40.6207 40.9585 40.6874 40.868 40.7159C40.6346 40.7779 31.7552 40.7779 31.5218 40.7159C31.4313 40.6874 31.3074 40.6207 31.2503 40.5587C31.1884 40.4921 31.0216 40.0729 30.8406 39.5346L30.531 38.62H36.1949H41.8588L41.5492 39.5346ZM39.1483 43.2454C39.1483 45.2033 39.1388 45.2604 38.8434 45.4224C38.7101 45.4938 38.4624 45.5034 36.1949 45.5034C33.9274 45.5034 33.6797 45.4938 33.5463 45.4224C33.251 45.2604 33.2415 45.2033 33.2415 43.2454V41.4781H36.1949H39.1483V43.2454ZM37.7669 46.8086C37.7669 47.2802 37.7526 47.3802 37.6907 47.404C37.5573 47.4564 34.9087 47.4374 34.8087 47.385C34.7277 47.3373 34.7182 47.2802 34.7182 46.7895V46.2417H36.2425H37.7669V46.8086ZM36.5283 49.8144C36.5283 51.4197 36.5236 51.4864 36.4331 51.5769C36.3807 51.6293 36.2759 51.6722 36.1949 51.6722C36.1139 51.6722 36.0091 51.6293 35.9567 51.5769C35.8662 51.4864 35.8614 51.4197 35.8614 49.8144V48.1472H36.1949H36.5283V49.8144ZM33.9751 54.8543C34.0132 55.1068 34.2561 55.5736 34.48 55.8308C35.2184 56.6645 36.5331 56.8359 37.4668 56.2119C37.9241 55.9118 38.3433 55.3068 38.4195 54.8543L38.4481 54.6733L42.3828 54.6828C45.9888 54.6971 46.3318 54.7019 46.4652 54.7781C46.751 54.9353 46.7701 55.0448 46.7701 56.4787V57.7696H36.1949H25.6197V56.4787C25.6197 54.9162 25.634 54.8591 26.0913 54.7161C26.158 54.6971 27.9539 54.678 30.0784 54.678L33.9417 54.6733L33.9751 54.8543ZM47.6751 59.0796V59.675H36.1949H24.7146V59.0796V58.4842H36.1949H47.6751V59.0796Z" fill="#4D0000"/>
<path d="M41.5492 39.5346C41.3681 40.0729 41.2014 40.4921 41.1395 40.5587C41.0823 40.6207 40.9585 40.6874 40.868 40.7159C40.6346 40.7779 31.7552 40.7779 31.5218 40.7159C31.4313 40.6874 31.3074 40.6207 31.2503 40.5587C31.1884 40.4921 31.0216 40.0729 30.8406 39.5346L30.531 38.62H36.1949H41.8588L41.5492 39.5346Z" fill="#E60000"/>
<path d="M44.1501 37.0527C44.1501 37.4576 44.0548 37.6863 43.8452 37.8006C43.7071 37.8768 43.1783 37.8816 36.1949 37.8816C29.2115 37.8816 28.6827 37.8768 28.5446 37.8006C28.335 37.6863 28.2397 37.4576 28.2397 37.0527V36.7145H36.1949H44.1501V37.0527Z" fill="#E60000"/>
<path d="M39.1483 43.2454C39.1483 45.2033 39.1388 45.2604 38.8434 45.4224C38.7101 45.4938 38.4624 45.5034 36.1949 45.5034C33.9274 45.5034 33.6797 45.4938 33.5463 45.4224C33.251 45.2604 33.2415 45.2033 33.2415 43.2454V41.4781H36.1949H39.1483V43.2454Z" fill="#E60000"/>
<path d="M37.7669 46.8086C37.7669 47.2802 37.7526 47.3802 37.6907 47.404C37.5573 47.4564 34.9087 47.4374 34.8087 47.385C34.7277 47.3373 34.7182 47.2802 34.7182 46.7895V46.2417H36.2425H37.7669V46.8086Z" fill="#E60000"/>
<path d="M33.9751 54.8543C34.0132 55.1068 34.2561 55.5736 34.48 55.8308C35.2184 56.6645 36.5331 56.8359 37.4668 56.2119C37.9241 55.9118 38.3433 55.3068 38.4195 54.8543L38.4481 54.6733L42.3828 54.6828C45.9888 54.6971 46.3318 54.7019 46.4652 54.7781C46.751 54.9353 46.7701 55.0448 46.7701 56.4787V57.7696H36.1949H25.6197V56.4787C25.6197 54.9162 25.634 54.8591 26.0913 54.7161C26.158 54.6971 27.9539 54.678 30.0784 54.678L33.9417 54.6733L33.9751 54.8543Z" fill="#E60000"/>
<path d="M47.6751 59.0796V59.675H36.1949H24.7146V59.0796V58.4842H36.1949H47.6751V59.0796Z" fill="#E60000"/>
<path d="M36.5283 49.8144C36.5283 51.4197 36.5236 51.4864 36.4331 51.5769C36.3807 51.6293 36.2759 51.6722 36.1949 51.6722C36.1139 51.6722 36.0091 51.6293 35.9567 51.5769C35.8662 51.4864 35.8614 51.4197 35.8614 49.8144V48.1472H36.1949H36.5283V49.8144Z" fill="#E60000"/>
<path d="M43.8452 37.8006L43.7969 37.7131L43.7973 37.7128L43.8452 37.8006ZM28.5446 37.8006L28.5924 37.7128L28.5929 37.7131L28.5446 37.8006ZM28.2397 36.7145H28.1397V36.6145H28.2397V36.7145ZM44.1501 36.7145V36.6145H44.2501V36.7145H44.1501ZM41.5492 39.5346L41.4544 39.5027L41.4544 39.5025L41.5492 39.5346ZM41.1395 40.5587L41.066 40.4909L41.0662 40.4907L41.1395 40.5587ZM40.868 40.7159L40.8981 40.8114L40.8936 40.8126L40.868 40.7159ZM31.5218 40.7159L31.4961 40.8127L31.4917 40.8113L31.5218 40.7159ZM31.2503 40.5587L31.3236 40.4907L31.3238 40.4909L31.2503 40.5587ZM30.8406 39.5346L30.9353 39.5025L30.9354 39.5027L30.8406 39.5346ZM30.531 38.62L30.4363 38.652L30.3915 38.52H30.531V38.62ZM41.8588 38.62V38.52H41.9982L41.9535 38.652L41.8588 38.62ZM38.8434 45.4224L38.8915 45.5101L38.8907 45.5105L38.8434 45.4224ZM33.5463 45.4224L33.4991 45.5105L33.4982 45.5101L33.5463 45.4224ZM33.2415 41.4781H33.1415V41.3781H33.2415V41.4781ZM39.1483 41.4781V41.3781H39.2483V41.4781H39.1483ZM37.6907 47.404L37.6541 47.311L37.6548 47.3107L37.6907 47.404ZM34.8087 47.385L34.7622 47.4737L34.758 47.4712L34.8087 47.385ZM34.7182 46.2417H34.6182V46.1417H34.7182V46.2417ZM37.7669 46.2417V46.1417H37.8669V46.2417H37.7669ZM36.4331 51.5769L36.5038 51.6477L36.4331 51.5769ZM35.9567 51.5769L35.886 51.6477L35.9567 51.5769ZM35.8614 48.1472H35.7614V48.0472H35.8614V48.1472ZM36.5283 48.1472V48.0472H36.6283V48.1472H36.5283ZM33.9751 54.8543L34.0734 54.8362L34.0739 54.8394L33.9751 54.8543ZM34.48 55.8308L34.4051 55.8971L34.4046 55.8965L34.48 55.8308ZM37.4668 56.2119L37.4112 56.1288L37.4119 56.1283L37.4668 56.2119ZM38.4195 54.8543L38.5183 54.8699L38.5181 54.8709L38.4195 54.8543ZM38.4481 54.6733L38.3493 54.6577L38.3626 54.5731L38.4483 54.5733L38.4481 54.6733ZM42.3828 54.6828L42.383 54.5828L42.3832 54.5828L42.3828 54.6828ZM46.4652 54.7781L46.417 54.8657L46.4156 54.8649L46.4652 54.7781ZM46.7701 57.7696H46.8701V57.8696H46.7701V57.7696ZM25.6197 57.7696V57.8696H25.5197V57.7696H25.6197ZM26.0913 54.7161L26.0615 54.6207L26.0638 54.62L26.0913 54.7161ZM30.0784 54.678L30.0786 54.778H30.0784V54.678ZM33.9417 54.6733L33.9416 54.5733L34.025 54.5732L34.0401 54.6552L33.9417 54.6733ZM47.6751 59.675H47.7751V59.775H47.6751V59.675ZM24.7146 59.675V59.775H24.6146V59.675H24.7146ZM24.7146 58.4842H24.6146V58.3842H24.7146V58.4842ZM47.6751 58.4842V58.3842H47.7751V58.4842H47.6751ZM44.2501 37.0527C44.2501 37.4687 44.1523 37.7471 43.8931 37.8884L43.7973 37.7128C43.9574 37.6256 44.0501 37.4466 44.0501 37.0527H44.2501ZM43.8935 37.8882C43.8364 37.9197 43.755 37.9343 43.5799 37.9452C43.3988 37.9566 43.0991 37.9643 42.5881 37.9697C41.565 37.9804 39.6863 37.9816 36.1949 37.9816V37.7816C39.6869 37.7816 41.5643 37.7804 42.586 37.7697C43.0973 37.7643 43.3922 37.7566 43.5674 37.7456C43.7485 37.7343 43.785 37.7197 43.7969 37.7131L43.8935 37.8882ZM36.1949 37.9816C32.7035 37.9816 30.8247 37.9804 29.8017 37.9697C29.2907 37.9643 28.9909 37.9566 28.8099 37.9452C28.6348 37.9343 28.5534 37.9197 28.4962 37.8882L28.5929 37.7131C28.6048 37.7197 28.6413 37.7343 28.8224 37.7456C28.9976 37.7566 29.2924 37.7643 29.8038 37.7697C30.8255 37.7804 32.7029 37.7816 36.1949 37.7816V37.9816ZM28.4967 37.8884C28.2375 37.7471 28.1397 37.4687 28.1397 37.0527H28.3397C28.3397 37.4466 28.4324 37.6256 28.5924 37.7128L28.4967 37.8884ZM28.1397 37.0527V36.7145H28.3397V37.0527H28.1397ZM28.2397 36.6145H36.1949V36.8145H28.2397V36.6145ZM36.1949 36.6145H44.1501V36.8145H36.1949V36.6145ZM44.2501 36.7145V37.0527H44.0501V36.7145H44.2501ZM41.644 39.5665C41.5531 39.8367 41.4655 40.0779 41.3925 40.2606C41.3561 40.3518 41.3229 40.4295 41.2945 40.4893C41.2803 40.5191 41.2668 40.5455 41.2542 40.5674C41.2425 40.5878 41.2285 40.6098 41.2128 40.6268L41.0662 40.4907C41.0659 40.491 41.0707 40.4853 41.0807 40.4679C41.0898 40.452 41.1009 40.4305 41.1139 40.4033C41.1398 40.3489 41.1712 40.2756 41.2068 40.1864C41.278 40.0082 41.3643 39.7707 41.4544 39.5027L41.644 39.5665ZM41.213 40.6266C41.1743 40.6685 41.1188 40.7067 41.0655 40.7369C41.011 40.7677 40.951 40.7946 40.8981 40.8113L40.8379 40.6206C40.8754 40.6087 40.9226 40.588 40.967 40.5628C41.0125 40.5371 41.0476 40.5109 41.066 40.4909L41.213 40.6266ZM40.8936 40.8126C40.8758 40.8173 40.8505 40.8196 40.8289 40.8213C40.8037 40.8232 40.7709 40.825 40.7315 40.8267C40.6525 40.8302 40.5442 40.8333 40.4111 40.8362C40.1449 40.8421 39.7775 40.8469 39.3429 40.8508C38.4736 40.8585 37.3342 40.8624 36.1949 40.8624C35.0556 40.8624 33.9162 40.8585 33.0469 40.8508C32.6123 40.8469 32.2449 40.8421 31.9787 40.8362C31.8456 40.8333 31.7373 40.8302 31.6583 40.8267C31.6189 40.825 31.5861 40.8232 31.5608 40.8213C31.5393 40.8196 31.514 40.8173 31.4962 40.8126L31.5474 40.6193C31.5442 40.6184 31.5504 40.6199 31.5761 40.6219C31.5982 40.6236 31.6285 40.6253 31.667 40.6269C31.7438 40.6303 31.8505 40.6334 31.983 40.6363C32.248 40.6421 32.6144 40.6469 33.0487 40.6508C33.9172 40.6585 35.056 40.6624 36.1949 40.6624C37.3338 40.6624 38.4726 40.6585 39.3411 40.6508C39.7754 40.6469 40.1418 40.6421 40.4068 40.6363C40.5393 40.6334 40.6459 40.6303 40.7228 40.6269C40.7613 40.6253 40.7916 40.6236 40.8136 40.6219C40.8394 40.6199 40.8455 40.6184 40.8423 40.6193L40.8936 40.8126ZM31.4917 40.8113C31.4387 40.7946 31.3787 40.7677 31.3243 40.7369C31.2709 40.7067 31.2155 40.6685 31.1768 40.6266L31.3238 40.4909C31.3422 40.5109 31.3773 40.5371 31.4228 40.5628C31.4672 40.588 31.5144 40.6087 31.5519 40.6206L31.4917 40.8113ZM31.177 40.6268C31.1612 40.6098 31.1473 40.5878 31.1356 40.5674C31.123 40.5455 31.1095 40.5191 31.0953 40.4893C31.0668 40.4295 31.0337 40.3518 30.9972 40.2606C30.9243 40.0779 30.8367 39.8367 30.7458 39.5665L30.9354 39.5027C31.0255 39.7707 31.1118 40.0082 31.183 40.1864C31.2186 40.2756 31.25 40.3489 31.2759 40.4033C31.2889 40.4305 31.2999 40.452 31.3091 40.4679C31.319 40.4853 31.3238 40.491 31.3236 40.4907L31.177 40.6268ZM30.7459 39.5666L30.4363 38.652L30.6257 38.5879L30.9353 39.5025L30.7459 39.5666ZM30.531 38.52H36.1949V38.72H30.531V38.52ZM36.1949 38.52H41.8588V38.72H36.1949V38.52ZM41.9535 38.652L41.6439 39.5666L41.4544 39.5025L41.7641 38.5879L41.9535 38.652ZM39.2483 43.2454C39.2483 44.2198 39.2462 44.7331 39.2057 45.0213C39.1852 45.1669 39.1533 45.2695 39.0967 45.3478C39.0398 45.4266 38.9652 45.4696 38.8915 45.5101L38.7954 45.3347C38.8693 45.2941 38.9067 45.2693 38.9346 45.2307C38.9629 45.1915 38.9888 45.1271 39.0076 44.9934C39.0457 44.723 39.0483 44.2288 39.0483 43.2454H39.2483ZM38.8907 45.5105C38.7996 45.5593 38.6792 45.5785 38.3226 45.5896C37.9586 45.601 37.328 45.6034 36.1949 45.6034V45.4034C37.3293 45.4034 37.9562 45.401 38.3163 45.3897C38.6838 45.3782 38.7539 45.3569 38.7962 45.3342L38.8907 45.5105ZM36.1949 45.6034C35.0618 45.6034 34.4312 45.601 34.0672 45.5896C33.7106 45.5785 33.5902 45.5593 33.4991 45.5105L33.5936 45.3342C33.6358 45.3569 33.706 45.3782 34.0734 45.3897C34.4335 45.401 35.0605 45.4034 36.1949 45.4034V45.6034ZM33.4982 45.5101C33.4245 45.4696 33.35 45.4266 33.293 45.3478C33.2365 45.2695 33.2046 45.1669 33.1841 45.0213C33.1436 44.7331 33.1415 44.2198 33.1415 43.2454H33.3415C33.3415 44.2288 33.3441 44.723 33.3822 44.9934C33.401 45.1271 33.4268 45.1915 33.4552 45.2307C33.4831 45.2693 33.5204 45.2941 33.5944 45.3347L33.4982 45.5101ZM33.1415 43.2454V41.4781H33.3415V43.2454H33.1415ZM33.2415 41.3781H36.1949V41.5781H33.2415V41.3781ZM36.1949 41.3781H39.1483V41.5781H36.1949V41.3781ZM39.2483 41.4781V43.2454H39.0483V41.4781H39.2483ZM37.8669 46.8086C37.8669 47.0429 37.8635 47.1926 37.8512 47.2871C37.845 47.3341 37.8357 47.3768 37.8181 47.412C37.798 47.4522 37.7676 47.4816 37.7266 47.4974L37.6548 47.3107C37.6447 47.3146 37.6392 47.3226 37.6392 47.3225C37.6417 47.3175 37.6476 47.3013 37.6528 47.2613C37.6631 47.182 37.6669 47.0459 37.6669 46.8086H37.8669ZM37.7272 47.4971C37.7128 47.5028 37.6976 47.5057 37.6875 47.5074C37.6756 47.5093 37.6621 47.511 37.6475 47.5125C37.6184 47.5155 37.5812 47.518 37.5378 47.5203C37.4507 47.5248 37.3347 47.5281 37.1999 47.5305C36.9302 47.5353 36.5826 47.5362 36.2365 47.5338C35.8903 47.5314 35.5448 47.5258 35.2793 47.5174C35.1466 47.5132 35.0331 47.5083 34.9492 47.5028C34.9074 47.5 34.8716 47.497 34.8441 47.4937C34.8304 47.492 34.8174 47.4901 34.806 47.4879C34.7979 47.4863 34.7795 47.4826 34.7623 47.4736L34.8551 47.2964C34.8441 47.2907 34.8369 47.2901 34.8448 47.2917C34.8493 47.2926 34.8568 47.2938 34.868 47.2951C34.8903 47.2978 34.9219 47.3005 34.9624 47.3032C35.0429 47.3085 35.1538 47.3133 35.2856 47.3175C35.5489 47.3258 35.8927 47.3314 36.2379 47.3338C36.583 47.3362 36.9288 47.3353 37.1964 47.3305C37.3303 47.3282 37.4438 47.3248 37.5275 47.3205C37.5695 47.3184 37.6029 47.316 37.6273 47.3135C37.6395 47.3123 37.6484 47.3111 37.6544 47.3101C37.6621 47.3088 37.6601 47.3086 37.6541 47.311L37.7272 47.4971ZM34.758 47.4712C34.7302 47.4548 34.6995 47.4323 34.6755 47.3937C34.653 47.3575 34.6414 47.3154 34.6342 47.2685C34.6203 47.1776 34.6182 47.0316 34.6182 46.7895H34.8182C34.8182 47.0381 34.8208 47.166 34.8319 47.2382C34.8372 47.273 34.8432 47.2847 34.8453 47.288C34.8458 47.2889 34.8467 47.2913 34.8594 47.2988L34.758 47.4712ZM34.6182 46.7895V46.2417H34.8182V46.7895H34.6182ZM34.7182 46.1417H36.2425V46.3417H34.7182V46.1417ZM36.2425 46.1417H37.7669V46.3417H36.2425V46.1417ZM37.8669 46.2417V46.8086H37.6669V46.2417H37.8669ZM36.6283 49.8144C36.6283 50.6154 36.6272 51.0371 36.6145 51.2692C36.6082 51.3843 36.5988 51.4615 36.5819 51.5178C36.5627 51.582 36.5345 51.617 36.5038 51.6477L36.3624 51.5062C36.3769 51.4917 36.3832 51.4843 36.3903 51.4605C36.3999 51.4286 36.4086 51.3719 36.4148 51.2583C36.4271 51.0331 36.4283 50.6187 36.4283 49.8144H36.6283ZM36.5038 51.6477C36.4653 51.6862 36.4132 51.7164 36.3621 51.737C36.3106 51.7577 36.2513 51.7722 36.1949 51.7722V51.5722C36.2194 51.5722 36.253 51.5653 36.2873 51.5515C36.322 51.5375 36.3485 51.5201 36.3624 51.5062L36.5038 51.6477ZM36.1949 51.7722C36.1385 51.7722 36.0792 51.7577 36.0277 51.737C35.9766 51.7164 35.9245 51.6862 35.886 51.6477L36.0274 51.5062C36.0413 51.5201 36.0678 51.5375 36.1024 51.5515C36.1367 51.5653 36.1703 51.5722 36.1949 51.5722V51.7722ZM35.886 51.6477C35.8553 51.617 35.827 51.582 35.8078 51.5178C35.791 51.4615 35.7816 51.3843 35.7753 51.2692C35.7626 51.0371 35.7614 50.6154 35.7614 49.8144H35.9614C35.9614 50.6187 35.9627 51.0331 35.975 51.2583C35.9812 51.3719 35.9899 51.4286 35.9994 51.4605C36.0066 51.4843 36.0128 51.4917 36.0274 51.5062L35.886 51.6477ZM35.7614 49.8144V48.1472H35.9614V49.8144H35.7614ZM35.8614 48.0472H36.1949V48.2472H35.8614V48.0472ZM36.1949 48.0472H36.5283V48.2472H36.1949V48.0472ZM36.6283 48.1472V49.8144H36.4283V48.1472H36.6283ZM34.0739 54.8394C34.0905 54.9492 34.1547 55.1173 34.2466 55.2948C34.3377 55.4704 34.4502 55.6442 34.5554 55.7652L34.4046 55.8965C34.2859 55.7602 34.165 55.572 34.0691 55.3868C33.974 55.2034 33.8977 55.0119 33.8762 54.8692L34.0739 54.8394ZM34.5549 55.7645C35.26 56.5606 36.519 56.7251 37.4112 56.1288L37.5223 56.2951C36.5472 56.9468 35.1767 56.7683 34.4051 55.8971L34.5549 55.7645ZM37.4119 56.1283C37.6277 55.9867 37.8382 55.7703 38.0041 55.533C38.1705 55.2949 38.2861 55.0444 38.3209 54.8377L38.5181 54.8709C38.4767 55.1167 38.3445 55.395 38.168 55.6476C37.9909 55.9009 37.7631 56.1371 37.5216 56.2955L37.4119 56.1283ZM38.3207 54.8387L38.3493 54.6577L38.5468 54.6889L38.5183 54.8699L38.3207 54.8387ZM38.4483 54.5733L42.383 54.5828L42.3826 54.7828L38.4478 54.7733L38.4483 54.5733ZM42.3832 54.5828C44.1857 54.5899 45.1741 54.5947 45.7285 54.6072C46.0051 54.6135 46.1769 54.6217 46.2887 54.6336C46.4 54.6454 46.4632 54.6617 46.5148 54.6913L46.4156 54.8649C46.4005 54.8563 46.3708 54.8434 46.2676 54.8325C46.1649 54.8216 46.0005 54.8134 45.724 54.8072C45.172 54.7947 44.186 54.7899 42.3824 54.7828L42.3832 54.5828ZM46.5134 54.6905C46.5876 54.7313 46.6577 54.7757 46.7128 54.8477C46.7682 54.9199 46.8015 55.0105 46.8232 55.132C46.8657 55.3693 46.8701 55.7665 46.8701 56.4787H46.6701C46.6701 55.7571 46.6649 55.3825 46.6264 55.1672C46.6076 55.0625 46.5826 55.0066 46.554 54.9693C46.5252 54.9317 46.4857 54.9035 46.417 54.8657L46.5134 54.6905ZM46.8701 56.4787V57.7696H46.6701V56.4787H46.8701ZM46.7701 57.8696H36.1949V57.6696H46.7701V57.8696ZM36.1949 57.8696H25.6197V57.6696H36.1949V57.8696ZM25.5197 57.7696V56.4787H25.7197V57.7696H25.5197ZM25.5197 56.4787C25.5197 56.0885 25.5206 55.79 25.5292 55.5605C25.5377 55.3323 25.5539 55.1646 25.5874 55.0393C25.6219 54.91 25.6765 54.8191 25.7642 54.7525C25.8459 54.6904 25.9494 54.6557 26.0615 54.6207L26.1211 54.8116C26.0045 54.848 25.9348 54.8741 25.8852 54.9117C25.8416 54.9449 25.8069 54.9927 25.7806 55.0909C25.7534 55.193 25.7375 55.3415 25.729 55.5679C25.7206 55.793 25.7197 56.0876 25.7197 56.4787H25.5197ZM26.0638 54.62C26.075 54.6168 26.0866 54.6155 26.0917 54.615C26.099 54.6142 26.1076 54.6135 26.1169 54.6128C26.1357 54.6115 26.1605 54.6103 26.1907 54.6091C26.2512 54.6067 26.3359 54.6044 26.4415 54.6022C26.653 54.5977 26.9506 54.5935 27.3122 54.59C28.0354 54.5828 29.0159 54.578 30.0784 54.578V54.778C29.0164 54.778 28.0366 54.7828 27.3142 54.7899C26.9529 54.7935 26.6562 54.7977 26.4458 54.8021C26.3405 54.8044 26.2573 54.8067 26.1986 54.809C26.1691 54.8101 26.1465 54.8113 26.1306 54.8123C26.1225 54.8129 26.117 54.8134 26.1135 54.8138C26.1077 54.8144 26.1117 54.8143 26.1188 54.8123L26.0638 54.62ZM30.0783 54.578L33.9416 54.5733L33.9418 54.7733L30.0786 54.778L30.0783 54.578ZM34.0401 54.6552L34.0734 54.8362L33.8767 54.8724L33.8434 54.6914L34.0401 54.6552ZM47.7751 59.0796V59.675H47.5751V59.0796H47.7751ZM47.6751 59.775H36.1949V59.575H47.6751V59.775ZM36.1949 59.775H24.7146V59.575H36.1949V59.775ZM24.6146 59.675V59.0796H24.8146V59.675H24.6146ZM24.6146 59.0796V58.4842H24.8146V59.0796H24.6146ZM24.7146 58.3842H36.1949V58.5842H24.7146V58.3842ZM36.1949 58.3842H47.6751V58.5842H36.1949V58.3842ZM47.7751 58.4842V59.0796H47.5751V58.4842H47.7751ZM27.5728 36.1048L27.4248 35.9702L27.4281 35.9667L27.5728 36.1048ZM27.487 36.9527L27.687 36.9486L27.687 36.9487L27.487 36.9527ZM27.6395 37.9435L27.4655 38.0421L27.4642 38.0398L27.6395 37.9435ZM27.9586 38.3389L27.8352 38.4963L27.8337 38.4951L27.9586 38.3389ZM29.7069 38.62V38.42H29.8508L29.8965 38.5565L29.7069 38.62ZM30.0737 39.7156L29.8841 39.7793L29.884 39.7791L30.0737 39.7156ZM31.074 41.3638L31.1582 41.1824L31.1602 41.1833L31.074 41.3638ZM32.4745 41.4781V41.2781H32.673L32.6745 41.4766L32.4745 41.4781ZM32.4888 43.3931L32.6888 43.3916L32.6888 43.3916L32.4888 43.3931ZM32.5031 45.3128L32.3276 45.4088L32.3035 45.3646L32.3031 45.3143L32.5031 45.3128ZM32.6412 45.5653L32.4669 45.6633L32.4658 45.6613L32.6412 45.5653ZM33.956 46.2417V46.0417H34.156V46.2417H33.956ZM34.1799 47.8613L34.333 47.7326L34.3347 47.7347L34.1799 47.8613ZM35.0993 48.1472V47.9472H35.2993V48.1472H35.0993ZM35.0993 49.8478L34.8993 49.8483V49.8478H35.0993ZM35.3517 52.0724L35.1938 52.1952L35.1914 52.192L35.3517 52.0724ZM35.6423 52.3105L35.5569 52.4914L35.5567 52.4913L35.6423 52.3105ZM35.8138 52.3915L35.8992 52.2107L36.0138 52.2648V52.3915H35.8138ZM35.447 55.626L35.3478 55.7996L35.3474 55.7994L35.447 55.626ZM34.561 54.0635L34.4242 54.2095L34.4227 54.2081L34.561 54.0635ZM34.4514 53.9587V53.7587H34.5317L34.5897 53.8142L34.4514 53.9587ZM25.8293 53.9587L25.7399 53.7799L25.7821 53.7587H25.8293V53.9587ZM25.5816 54.0826L25.4922 53.9037L25.4922 53.9037L25.5816 54.0826ZM24.9862 54.6923L25.1622 54.7871L24.9862 54.6923ZM24.8671 56.3262L24.6671 56.3243L24.6671 56.3242L24.8671 56.3262ZM24.8528 57.7696L25.0528 57.7716L25.0508 57.9696H24.8528V57.7696ZM24.0858 60.3086L24.2226 60.1627L24.2229 60.163L24.0858 60.3086ZM48.3087 60.3038L48.1587 60.1715L48.1628 60.1671L48.3087 60.3038ZM47.537 57.7696V57.9696H47.339L47.337 57.7716L47.537 57.7696ZM47.5227 56.331L47.7227 56.3289L47.7227 56.329L47.5227 56.331ZM47.4036 54.6923L47.2275 54.7871L47.4036 54.6923ZM46.8082 54.0826L46.8976 53.9037L46.8976 53.9037L46.8082 54.0826ZM46.5605 53.9587V53.7587H46.6077L46.6499 53.7799L46.5605 53.9587ZM37.824 54.054L37.6775 53.9179L37.679 53.9163L37.824 54.054ZM37.7049 54.4303L37.5055 54.415L37.506 54.4094L37.7049 54.4303ZM37.3 55.3592L37.4478 55.4941L37.4438 55.4982L37.3 55.3592ZM36.6617 52.3534L36.7342 52.5399L36.7283 52.542L36.6617 52.3534ZM37.1381 51.9104L36.9652 51.8099L36.9666 51.8075L37.1381 51.9104ZM37.2667 51.696L37.4667 51.6976L37.4662 51.7522L37.4382 51.7989L37.2667 51.696ZM37.281 49.924L37.481 49.9256L37.481 49.9256L37.281 49.924ZM37.2953 48.1472L37.0953 48.1455L37.0969 47.9472H37.2953V48.1472ZM38.3671 47.8328L38.2075 47.7122L38.2076 47.7121L38.3671 47.8328ZM38.5195 46.9515L38.7195 46.9556L38.7195 46.9556L38.5195 46.9515ZM38.5338 46.2512L38.3339 46.2472L38.3376 46.0652L38.519 46.0518L38.5338 46.2512ZM38.791 46.2322L38.8073 46.4315L38.8058 46.4316L38.791 46.2322ZM39.8629 45.2985L40.0558 45.3512L40.0552 45.3532L39.8629 45.2985ZM39.9105 41.4781H39.7105V41.2781H39.9105V41.4781ZM41.3157 41.3638L41.2296 41.1833L41.2316 41.1824L41.3157 41.3638ZM42.3161 39.7156L42.5058 39.7791L42.5057 39.7793L42.3161 39.7156ZM42.6829 38.62L42.4932 38.5565L42.5389 38.42H42.6829V38.62ZM44.1882 38.4961L44.0988 38.3172L44.1882 38.4961ZM44.7836 37.8864L44.6064 37.7937L44.6068 37.793L44.7836 37.8864ZM44.9027 36.9622L44.7028 36.9578L44.7028 36.9568L44.9027 36.9622ZM44.8122 36.1143L44.6677 36.2526L44.6648 36.2495L44.8122 36.1143ZM44.7074 36V35.8H44.7954L44.8549 35.8648L44.7074 36ZM27.6728 36L27.5281 35.8619L27.5872 35.8H27.6728V36ZM27.7208 36.2393C27.7012 36.2608 27.6999 36.2649 27.6994 36.2662C27.6981 36.2689 27.6923 36.2827 27.6878 36.3274C27.678 36.4241 27.6797 36.5944 27.687 36.9486L27.2871 36.9568C27.2801 36.6155 27.277 36.4143 27.2898 36.2871C27.2966 36.2199 27.309 36.1586 27.335 36.1012C27.3617 36.0423 27.3967 36.0012 27.4248 35.9703L27.7208 36.2393ZM27.687 36.9487C27.6943 37.3128 27.6992 37.4831 27.7163 37.5946C27.7305 37.6873 27.7512 37.7315 27.8148 37.8473L27.4642 38.0398C27.3943 37.9126 27.346 37.8187 27.3209 37.6553C27.2987 37.5108 27.2941 37.3072 27.2871 36.9567L27.687 36.9487ZM27.8135 37.8449C27.8856 37.9723 28.0133 38.1265 28.0836 38.1827L27.8337 38.4951C27.7134 38.3989 27.5553 38.2006 27.4655 38.0421L27.8135 37.8449ZM28.0821 38.1816C28.2268 38.2951 28.3163 38.3463 28.4379 38.3764C28.5716 38.4096 28.754 38.42 29.0924 38.42V38.82C28.7591 38.82 28.5295 38.8113 28.3416 38.7647C28.1416 38.715 28.0001 38.6257 27.8352 38.4963L28.0821 38.1816ZM29.0924 38.42H29.7069V38.82H29.0924V38.42ZM29.8965 38.5565L30.2633 39.6521L29.884 39.7791L29.5172 38.6835L29.8965 38.5565ZM30.2633 39.6519C30.4722 40.274 30.6001 40.6097 30.7269 40.818C30.8411 41.0059 30.9517 41.0866 31.1582 41.1824L30.9899 41.5452C30.7342 41.4266 30.5519 41.3001 30.3851 41.0259C30.2308 40.7722 30.0896 40.391 29.8841 39.7793L30.2633 39.6519ZM31.1602 41.1833C31.2533 41.2278 31.3105 41.248 31.3989 41.2604C31.4977 41.2742 31.636 41.2781 31.8934 41.2781V41.6781C31.641 41.6781 31.4745 41.6749 31.3434 41.6565C31.2019 41.6367 31.1043 41.5999 30.9879 41.5443L31.1602 41.1833ZM31.8934 41.2781H32.4745V41.6781H31.8934V41.2781ZM32.6745 41.4766L32.6888 43.3916L32.2888 43.3946L32.2745 41.4796L32.6745 41.4766ZM32.6888 43.3916L32.7031 45.3113L32.3031 45.3143L32.2888 43.3946L32.6888 43.3916ZM32.6786 45.2168L32.8167 45.4693L32.4658 45.6613L32.3276 45.4088L32.6786 45.2168ZM32.8156 45.4673C33.0236 45.8375 33.3571 46.0417 33.7178 46.0417V46.4417C33.1925 46.4417 32.7353 46.141 32.4669 45.6632L32.8156 45.4673ZM33.7178 46.0417H33.956V46.4417H33.7178V46.0417ZM34.156 46.2417V46.7991H33.756V46.2417H34.156ZM34.156 46.7991C34.156 47.4375 34.2076 47.5836 34.333 47.7326L34.0268 47.9901C33.7997 47.7199 33.756 47.4372 33.756 46.7991H34.156ZM34.3347 47.7347C34.4052 47.8209 34.469 47.8695 34.5378 47.8992C34.6088 47.9299 34.7006 47.9472 34.8373 47.9472V48.3472C34.6691 48.3472 34.5179 48.3263 34.3793 48.2665C34.2386 48.2057 34.126 48.1113 34.0251 47.988L34.3347 47.7347ZM34.8373 47.9472H35.0993V48.3472H34.8373V47.9472ZM35.2993 48.1472V49.8478H34.8993V48.1472H35.2993ZM35.2993 49.8472C35.3017 50.7683 35.3055 51.2301 35.3367 51.5037C35.3518 51.6364 35.3722 51.7122 35.3964 51.7687C35.4208 51.8258 35.4534 51.8742 35.512 51.9527L35.1914 52.192C35.131 52.1109 35.0731 52.0301 35.0286 51.926C34.9838 51.8213 34.9569 51.7039 34.9392 51.549C34.9049 51.2474 34.9016 50.7565 34.8993 49.8483L35.2993 49.8472ZM35.5096 51.9496C35.5309 51.977 35.5691 52.0153 35.6149 52.0529C35.6614 52.091 35.7032 52.1181 35.7279 52.1298L35.5567 52.4913C35.4909 52.4601 35.4207 52.411 35.3613 52.3622C35.3011 52.3128 35.2393 52.2535 35.1939 52.1951L35.5096 51.9496ZM35.7277 52.1297L35.8992 52.2107L35.7284 52.5724L35.5569 52.4914L35.7277 52.1297ZM36.0138 52.3915V54.0778H35.6138V52.3915H36.0138ZM36.0138 54.0778C36.0138 54.7372 36.0102 55.1633 36.0012 55.4251C35.9967 55.5547 35.9907 55.6507 35.9819 55.7166C35.9778 55.7475 35.9716 55.784 35.96 55.8169C35.9545 55.8324 35.943 55.8615 35.9199 55.8901C35.8954 55.9205 35.8411 55.9689 35.7566 55.9689V55.5689C35.6775 55.5689 35.6284 55.6144 35.6088 55.6387C35.5906 55.6612 35.5838 55.681 35.5828 55.6838C35.5802 55.6913 35.5821 55.6884 35.5854 55.6639C35.5914 55.6188 35.597 55.5395 35.6014 55.4113C35.6102 55.1574 35.6138 54.738 35.6138 54.0778H36.0138ZM35.7566 55.9689C35.7256 55.9689 35.6992 55.9622 35.6875 55.9591C35.6722 55.955 35.6571 55.9499 35.6437 55.9449C35.6167 55.9349 35.5862 55.9218 35.5553 55.9075C35.4929 55.8786 35.4188 55.8402 35.3478 55.7996L35.5462 55.4523C35.6086 55.488 35.6726 55.521 35.7234 55.5445C35.749 55.5564 35.7689 55.5648 35.7822 55.5697C35.7889 55.5721 35.7916 55.5729 35.791 55.5727C35.7906 55.5726 35.7879 55.5719 35.7835 55.5711C35.7796 55.5704 35.7699 55.5689 35.7566 55.5689V55.9689ZM35.3474 55.7994C34.8423 55.5093 34.4705 54.8979 34.4705 54.3398H34.8705C34.8705 54.744 35.1562 55.2283 35.5466 55.4526L35.3474 55.7994ZM34.4705 54.3398C34.4705 54.2661 34.4534 54.2368 34.4242 54.2094L34.6978 53.9176C34.821 54.0332 34.8705 54.1754 34.8705 54.3398H34.4705ZM34.4227 54.2081L34.3132 54.1033L34.5897 53.8142L34.6992 53.919L34.4227 54.2081ZM34.4514 54.1587H30.1404V53.7587H34.4514V54.1587ZM30.1404 54.1587H25.8293V53.7587H30.1404V54.1587ZM25.9188 54.1376L25.671 54.2615L25.4922 53.9037L25.7399 53.7799L25.9188 54.1376ZM25.671 54.2615C25.4477 54.3731 25.3133 54.5067 25.1622 54.7871L24.8101 54.5975C24.9925 54.2587 25.1819 54.0588 25.4922 53.9037L25.671 54.2615ZM25.1622 54.7871C25.1402 54.8282 25.1293 54.852 25.1204 54.8848C25.1105 54.9211 25.1013 54.9758 25.0939 55.0772C25.079 55.2825 25.0742 55.6363 25.0671 56.3283L24.6671 56.3242C24.6742 55.6395 24.6789 55.2693 24.695 55.0482C24.7031 54.9364 24.7147 54.8524 24.7343 54.7801C24.7549 54.7042 24.7821 54.6494 24.8101 54.5975L25.1622 54.7871ZM25.0671 56.3282L25.0528 57.7716L24.6528 57.7676L24.6671 56.3243L25.0671 56.3282ZM24.8528 57.9696H24.505V57.5696H24.8528V57.9696ZM24.505 57.9696C24.3564 57.9696 24.293 57.9679 24.2499 57.9778C24.2363 57.9809 24.2389 57.9826 24.2454 57.977C24.2519 57.9715 24.2492 57.9698 24.2428 57.9865C24.226 58.0304 24.2117 58.1207 24.2052 58.311C24.1989 58.4946 24.2001 58.7436 24.2001 59.0891H23.8001C23.8001 58.7487 23.7989 58.4898 23.8054 58.2974C23.8117 58.1116 23.8254 57.9578 23.8693 57.8433C23.8933 57.7808 23.9292 57.7214 23.9846 57.6737C24.04 57.6261 24.102 57.6013 24.1603 57.5879C24.2609 57.5648 24.3916 57.5696 24.505 57.5696V57.9696ZM24.2001 59.0891C24.2001 59.6163 24.2026 59.8947 24.2139 60.0507C24.2196 60.1295 24.2267 60.1617 24.2305 60.1736C24.2318 60.1774 24.2314 60.1749 24.2279 60.1697C24.2244 60.1643 24.2213 60.1615 24.2226 60.1627L23.949 60.4545C23.9076 60.4156 23.873 60.3677 23.85 60.297C23.8307 60.2373 23.8211 60.1656 23.8149 60.0795C23.8023 59.9056 23.8001 59.6099 23.8001 59.0891H24.2001ZM24.2229 60.163C24.2085 60.1494 24.195 60.1414 24.1864 60.1371C24.178 60.1328 24.1723 60.131 24.1714 60.1308C24.1706 60.1305 24.178 60.1327 24.2005 60.1358C24.2449 60.1419 24.3226 60.148 24.4569 60.1536C24.7235 60.1646 25.1893 60.1723 26.0039 60.1777C27.6316 60.1884 30.6401 60.1896 36.2044 60.1896V60.5896C30.6409 60.5896 27.6307 60.5884 26.0013 60.5777C25.1873 60.5723 24.715 60.5646 24.4404 60.5532C24.3042 60.5476 24.2106 60.5409 24.1463 60.5321C24.1144 60.5278 24.0831 60.5221 24.0546 60.5134C24.0283 60.5053 23.9862 60.4895 23.9488 60.4542L24.2229 60.163ZM36.2044 60.1896C41.9998 60.1896 45.007 60.1884 46.5745 60.1771C47.3594 60.1714 47.7793 60.1632 48.0069 60.1517C48.1225 60.1458 48.1791 60.1394 48.2062 60.1343C48.2344 60.1289 48.1946 60.1309 48.1587 60.1715L48.4587 60.4362C48.405 60.497 48.3356 60.5169 48.2807 60.5273C48.2246 60.5379 48.1443 60.5452 48.0272 60.5511C47.7895 60.5632 47.3609 60.5714 46.5774 60.5771C45.0081 60.5884 41.9989 60.5896 36.2044 60.5896V60.1896ZM48.1628 60.1671C48.1441 60.187 48.1648 60.1988 48.1764 60.0205C48.1872 59.8546 48.1897 59.5727 48.1897 59.0701H48.5897C48.5897 59.5678 48.5874 59.8647 48.5756 60.0465C48.5645 60.216 48.5448 60.3445 48.4546 60.4406L48.1628 60.1671ZM48.1897 59.0701C48.1897 58.7278 48.1911 58.482 48.1851 58.3008C48.1788 58.1126 48.1646 58.0255 48.1483 57.9841C48.1423 57.9691 48.1404 57.9717 48.1473 57.9774C48.1539 57.9828 48.1559 57.9807 48.1405 57.9774C48.0943 57.9674 48.0274 57.9696 47.8752 57.9696V57.5696C47.9922 57.5696 48.1242 57.5647 48.2249 57.5864C48.2829 57.5989 48.3454 57.6224 48.4018 57.6688C48.4585 57.7156 48.4956 57.7746 48.5203 57.8373C48.5654 57.9514 48.5788 58.1045 48.5849 58.2875C48.5912 58.4774 48.5897 58.7335 48.5897 59.0701H48.1897ZM47.8752 57.9696H47.537V57.5696H47.8752V57.9696ZM47.337 57.7716L47.3227 56.333L47.7227 56.329L47.737 57.7676L47.337 57.7716ZM47.3227 56.3331C47.3155 55.6387 47.3108 55.2836 47.2958 55.0777C47.2885 54.9761 47.2792 54.9211 47.2694 54.8848C47.2605 54.8519 47.2496 54.8282 47.2275 54.7871L47.5797 54.5975C47.6077 54.6494 47.6349 54.7042 47.6555 54.7802C47.6751 54.8526 47.6867 54.9368 47.6948 55.0488C47.7109 55.2705 47.7156 55.6419 47.7227 56.3289L47.3227 56.3331ZM47.2275 54.7871C47.0765 54.5067 46.942 54.3731 46.7187 54.2615L46.8976 53.9037C47.2078 54.0588 47.3973 54.2587 47.5797 54.5975L47.2275 54.7871ZM46.7187 54.2615L46.471 54.1376L46.6499 53.7799L46.8976 53.9037L46.7187 54.2615ZM46.5605 54.1587H42.2351V53.7587H46.5605V54.1587ZM42.2351 54.1587C40.0875 54.1587 39.0105 54.1588 38.4583 54.1706C38.1787 54.1766 38.0464 54.1855 37.98 54.1963C37.948 54.2015 37.9459 54.2051 37.9546 54.2006C37.9683 54.1936 37.9771 54.1832 37.969 54.1918L37.679 53.9163C37.6936 53.901 37.7231 53.8697 37.7724 53.8445C37.8168 53.8218 37.8653 53.8097 37.9158 53.8015C38.0143 53.7855 38.1743 53.7766 38.4497 53.7707C39.0075 53.7587 40.0908 53.7587 42.2351 53.7587V54.1587ZM37.9706 54.1901C37.9678 54.1931 37.9543 54.2107 37.9394 54.2587C37.9249 54.3051 37.9126 54.3685 37.9038 54.4513L37.506 54.4094C37.5164 54.3111 37.5326 54.2197 37.5575 54.1398C37.5818 54.0617 37.6184 53.9816 37.6775 53.9179L37.9706 54.1901ZM37.9044 54.4457C37.8902 54.6292 37.8311 54.8291 37.7516 55.0094C37.6721 55.1897 37.5661 55.3645 37.4477 55.4941L37.1523 55.2244C37.2341 55.1348 37.3186 55 37.3856 54.848C37.4526 54.696 37.4958 54.5411 37.5055 54.415L37.9044 54.4457ZM37.4438 55.4982C37.3567 55.5884 37.1972 55.7015 37.0583 55.7876C36.9865 55.8322 36.9135 55.8736 36.8499 55.9047C36.8183 55.9201 36.7861 55.9345 36.7556 55.9454C36.7307 55.9543 36.6863 55.9689 36.6379 55.9689V55.5689C36.6133 55.5689 36.6031 55.5751 36.6205 55.5689C36.6322 55.5647 36.6502 55.5571 36.6743 55.5453C36.7222 55.5219 36.783 55.4877 36.8475 55.4477C36.9813 55.3647 37.1053 55.273 37.1562 55.2202L37.4438 55.4982ZM36.6379 55.9689C36.5615 55.9689 36.5084 55.9292 36.4803 55.8977C36.4547 55.8692 36.4416 55.8395 36.4351 55.8228C36.4217 55.7883 36.4147 55.7503 36.4102 55.7189C36.4005 55.6521 36.394 55.5552 36.3892 55.4256C36.3795 55.1635 36.376 54.7371 36.376 54.0778H36.776C36.776 54.7381 36.7796 55.1572 36.7889 55.4108C36.7937 55.539 36.7997 55.6175 36.8061 55.6615C36.8095 55.6856 36.8115 55.687 36.808 55.6779C36.8064 55.674 36.7985 55.6535 36.7784 55.6311C36.7558 55.6057 36.7083 55.5689 36.6379 55.5689V55.9689ZM36.376 54.0778C36.376 53.2947 36.3771 52.8643 36.3887 52.6271C36.3943 52.5125 36.4029 52.4231 36.4223 52.3574C36.4327 52.322 36.4501 52.2794 36.4829 52.2411C36.5192 52.1988 36.561 52.1769 36.5952 52.1648L36.7283 52.542C36.7422 52.5371 36.7662 52.5253 36.7866 52.5014C36.8038 52.4814 36.8074 52.4655 36.806 52.4703C36.8017 52.4849 36.7939 52.5301 36.7882 52.6466C36.7772 52.8714 36.776 53.2889 36.776 54.0778H36.376ZM36.5892 52.167C36.7084 52.1207 36.8628 51.986 36.9652 51.8099L37.311 52.0109C37.1752 52.2444 36.958 52.4528 36.7342 52.5398L36.5892 52.167ZM36.9666 51.8075L37.0952 51.5931L37.4382 51.7989L37.3096 52.0133L36.9666 51.8075ZM37.0667 51.6944L37.081 49.9224L37.481 49.9256L37.4667 51.6976L37.0667 51.6944ZM37.081 49.9224L37.0953 48.1455L37.4953 48.1488L37.481 49.9256L37.081 49.9224ZM37.2953 47.9472H37.6049V48.3472H37.2953V47.9472ZM37.6049 47.9472C37.7863 47.9472 37.903 47.9277 37.9886 47.8925C38.0692 47.8594 38.1362 47.8066 38.2075 47.7122L38.5267 47.9533C38.4217 48.0923 38.3006 48.1967 38.1406 48.2625C37.9857 48.3261 37.8094 48.3472 37.6049 48.3472V47.9472ZM38.2076 47.7121C38.2426 47.6658 38.2576 47.6447 38.2682 47.6247C38.2763 47.6093 38.2841 47.5898 38.291 47.5505C38.3073 47.4577 38.3122 47.3013 38.3196 46.9474L38.7195 46.9556C38.7125 47.2924 38.708 47.4885 38.6849 47.6196C38.6722 47.6922 38.6529 47.7526 38.6222 47.811C38.5938 47.8648 38.5582 47.9116 38.5266 47.9534L38.2076 47.7121ZM38.3196 46.9474L38.3339 46.2472L38.7338 46.2553L38.7195 46.9556L38.3196 46.9474ZM38.519 46.0518L38.7763 46.0327L38.8058 46.4316L38.5486 46.4507L38.519 46.0518ZM38.7748 46.0329C39.149 46.0023 39.5524 45.6591 39.6705 45.2438L40.0552 45.3532C39.897 45.9097 39.3668 46.3859 38.8073 46.4315L38.7748 46.0329ZM39.6699 45.2459C39.6684 45.2514 39.6707 45.2434 39.674 45.2084C39.6769 45.1782 39.6798 45.137 39.6826 45.0849C39.6883 44.981 39.6933 44.8391 39.6974 44.665C39.7057 44.317 39.7105 43.8447 39.7105 43.2978H40.1105C40.1105 43.8466 40.1057 44.3222 40.0973 44.6745C40.0931 44.8504 40.088 44.9968 40.0821 45.1066C40.0791 45.1614 40.0758 45.2086 40.0722 45.2464C40.069 45.2795 40.0645 45.3194 40.0558 45.3511L39.6699 45.2459ZM39.7105 43.2978V41.4781H40.1105V43.2978H39.7105ZM39.9105 41.2781H40.4964V41.6781H39.9105V41.2781ZM40.4964 41.2781C40.7537 41.2781 40.8921 41.2742 40.9909 41.2604C41.0793 41.248 41.1365 41.2278 41.2296 41.1833L41.4019 41.5443C41.2854 41.5999 41.1878 41.6367 41.0463 41.6565C40.9153 41.6749 40.7488 41.6781 40.4964 41.6781V41.2781ZM41.2316 41.1824C41.438 41.0866 41.5486 41.0059 41.6629 40.818C41.7896 40.6097 41.9176 40.274 42.1265 39.6519L42.5057 39.7793C42.3002 40.391 42.159 40.7722 42.0047 41.0259C41.8379 41.3001 41.6555 41.4266 41.3999 41.5452L41.2316 41.1824ZM42.1264 39.6521L42.4932 38.5565L42.8726 38.6835L42.5058 39.7791L42.1264 39.6521ZM42.6829 38.42H43.3117V38.82H42.6829V38.42ZM43.3117 38.42C43.607 38.42 43.7532 38.4172 43.8541 38.4029C43.941 38.3906 43.9925 38.3703 44.0988 38.3172L44.2776 38.675C44.1552 38.7362 44.059 38.7779 43.9101 38.7989C43.7753 38.818 43.5975 38.82 43.3117 38.82V38.42ZM44.0988 38.3172C44.3234 38.2049 44.4615 38.0708 44.6064 37.7937L44.9609 37.9791C44.7819 38.3212 44.5865 38.5206 44.2776 38.675L44.0988 38.3172ZM44.6068 37.793C44.671 37.6713 44.6882 37.6088 44.7028 36.9578L45.1027 36.9667C45.0887 37.5923 45.0773 37.7585 44.9605 37.9797L44.6068 37.793ZM44.7028 36.9568C44.7125 36.5968 44.7152 36.4296 44.7051 36.3365C44.7006 36.2947 44.6948 36.2842 44.6946 36.2839C44.6941 36.2828 44.6924 36.2784 44.6677 36.2526L44.9568 35.9761C44.9845 36.005 45.0226 36.0458 45.0519 36.1039C45.0815 36.1627 45.0954 36.2251 45.1028 36.2935C45.1165 36.4206 45.112 36.6227 45.1027 36.9676L44.7028 36.9568ZM44.6648 36.2495L44.56 36.1351L44.8549 35.8648L44.9597 35.9792L44.6648 36.2495ZM44.7074 36.2H36.1901V35.8H44.7074V36.2ZM36.1901 36.2H27.6728V35.8H36.1901V36.2ZM27.8175 36.1381L27.7175 36.2429L27.4281 35.9667L27.5281 35.8619L27.8175 36.1381Z" fill="#4D0000" mask="url(#path-3-outside-1_6206_46273)"/>
<path d="M32.0989 39.4393C31.9703 39.5822 31.975 39.8156 32.1132 39.9442L32.2227 40.049H36.2051H40.1922L40.2875 39.9252C40.4209 39.7585 40.4161 39.5679 40.278 39.4393L40.1684 39.3345H36.1813H32.1989L32.0989 39.4393Z" fill="#4D0000"/>
<path d="M34.6319 42.3165C34.3651 42.4499 34.1984 42.6166 34.0364 42.9262C33.9555 43.0787 33.9316 43.2025 33.9316 43.5026C33.9316 43.8027 33.9555 43.9266 34.0364 44.079C34.1984 44.3887 34.3651 44.5554 34.6319 44.6888L34.8796 44.8126H36.1943H37.5091L37.7568 44.6888C38.0236 44.5554 38.1903 44.3887 38.3523 44.079C38.4999 43.8027 38.4999 43.2025 38.3523 42.9262C38.1903 42.6166 38.0236 42.4499 37.7568 42.3165L37.5091 42.1926H36.1943H34.8796L34.6319 42.3165ZM37.2614 42.9596C37.6282 43.0596 37.7997 43.4121 37.6472 43.736C37.4948 44.0552 37.4043 44.0743 36.1943 44.0743C34.9844 44.0743 34.8939 44.0552 34.7415 43.736C34.589 43.4169 34.7272 43.1025 35.0749 42.9786C35.3083 42.8977 36.9756 42.8786 37.2614 42.9596Z" fill="#4D0000"/>
<path d="M37.2614 42.9596C37.6282 43.0596 37.7997 43.4121 37.6472 43.736C37.4948 44.0552 37.4043 44.0743 36.1943 44.0743C34.9844 44.0743 34.8939 44.0552 34.7415 43.736C34.589 43.4169 34.7272 43.1025 35.0749 42.9786C35.3083 42.8977 36.9756 42.8786 37.2614 42.9596Z" fill="#E60000"/>
</g>
<defs>
<clipPath id="clip0_6206_46273">
<rect width="24.3896" height="24.3896" fill="white" transform="translate(24 36)"/>
</clipPath>
</defs>
</svg>
